<svg xmlns="http://www.w3.org/2000/svg" viewBox="0 0 357.273 238.414"><path d="M281.279 103.854c-.253-.168-6.181-4.192-6.181-10.354V73.165h.56c.782 0 1.417-.635 1.417-1.416V68.47a1.42 1.42 0 0 0-.857 1.302v2.538h-5.075v-2.538a4.521 4.521 0 0 1 4.515-4.516h3.395V59.64a4.527 4.527 0 0 1-1.977-3.708 4.522 4.522 0 0 1 4.515-4.519 4.521 4.521 0 0 1 4.515 4.516 4.532 4.532 0 0 1-1.977 3.711v5.616h3.395a4.521 4.521 0 0 1 4.515 4.516v2.538h-5.075v-2.538c0-.582-.353-1.083-.857-1.302v3.279c0 .781.635 1.416 1.417 1.416h.56V93.5c0 6.161-5.928 10.186-6.181 10.354l-.311.208-.313-.208zm-3.084-10.353c.22 2.53 1.45 4.936 3.395 6.628a10.023 10.023 0 0 0 3.397-6.676l-.002-17.973a4.527 4.527 0 0 1-1.977-3.73v-3.395h-2.835v3.394a4.532 4.532 0 0 1-1.977 3.731v18.021zm3.395-38.988c-.782 0-1.417.635-1.417 1.416a1.418 1.418 0 0 0 2.834 0c0-.781-.635-1.416-1.417-1.416zM117.462 155.362a4.521 4.521 0 0 1-4.516-4.515V75.704a4.521 4.521 0 0 1 4.516-4.516h122.602a4.521 4.521 0 0 1 4.515 4.516v75.143a4.52 4.52 0 0 1-4.515 4.515H117.462zm122.602-3.098c.782 0 1.417-.635 1.417-1.417v-60.74h-65.257v-7.91h-28.54v70.067h92.38zm-124.019-1.417c0 .782.635 1.417 1.416 1.417h27.123V82.197h-28.54v68.65zm125.436-63.839v-4.81h-62.157v4.81h62.157zm0-7.91v-3.394c0-.781-.635-1.416-1.417-1.416H117.462c-.781 0-1.416.635-1.416 1.416v3.394h125.435zm-116.109 64.399a2.54 2.54 0 0 1-2.538-2.537v-9.327h-3.955v-3.097h18.919v3.097h-11.865v2.835h15.82v3.097h-15.82v2.835h15.82v3.097h-16.381zm0-21.752a2.54 2.54 0 0 1-2.538-2.537v-3.394h-3.955v-3.099h18.919v3.099h-11.865v2.833h15.82v3.098h-16.381zm0-15.818a2.541 2.541 0 0 1-2.538-2.538V88.13h-3.955v-3.1h18.919v3.099h-11.865v2.833h15.82v3.099h-15.82v2.833h15.82v3.099h-15.82v2.833h15.82v3.099h-16.381zm23.168-19.775v-3.099h26.829v3.099H148.54zm88.557-7.415c-.95 0-1.75-.651-1.977-1.529a2.047 2.047 0 0 1-1.977 1.529c-.95 0-1.75-.651-1.977-1.529a2.047 2.047 0 0 1-1.977 1.529 2.045 2.045 0 0 1 0-4.088 2.057 2.057 0 0 1 1.976 1.533 2.048 2.048 0 0 1 1.979-1.533 2.057 2.057 0 0 1 1.976 1.533 2.048 2.048 0 0 1 1.979-1.533 2.054 2.054 0 0 1 2.043 2.036 2.05 2.05 0 0 1-2.045 2.052zm-72.737-.495v-3.099h28.805v3.099H164.36z" fill="#070308"/><path d="M240.064 71.749H117.462a3.955 3.955 0 0 0-3.955 3.955v75.143a3.955 3.955 0 0 0 3.955 3.955h122.602a3.955 3.955 0 0 0 3.955-3.955V75.704a3.956 3.956 0 0 0-3.955-3.955zm-122.602 81.075a1.977 1.977 0 0 1-1.977-1.977V81.636h29.662v71.188h-27.685zm124.579-1.977a1.977 1.977 0 0 1-1.977 1.977h-92.94V81.636h29.662v7.91h65.256v61.301zm0-63.278h-63.278v-5.932h63.278v5.932zm0-7.91H115.484v-3.955c0-1.092.885-1.977 1.977-1.977h122.602c1.092 0 1.977.885 1.977 1.977v3.955zm-11.37-2.966a1.483 1.483 0 1 1-1.483-1.483c.814.01 1.472.668 1.483 1.483zm3.955 0a1.483 1.483 0 1 1-1.483-1.483c.814.01 1.472.668 1.483 1.483zm3.954 0a1.483 1.483 0 1 1-1.483-1.483c.815.01 1.473.668 1.483 1.483zm-73.659-.989h27.684v1.977h-27.684v-1.977zm-15.82 7.91h25.707v1.977h-25.707v-1.977zm-23.729 11.864v1.977h15.82v1.977h-15.82v3.955h15.82v1.977h-15.82a1.977 1.977 0 0 1-1.977-1.977v-15.82h-3.955V85.59h17.797v1.977h-11.865v3.955h15.82v1.977h-15.82v1.979zm0 23.73h15.82v1.977h-15.82a1.977 1.977 0 0 1-1.977-1.977v-3.955h-3.955v-1.977h17.797v1.977h-11.865v3.955zm0 15.819h15.82v1.977h-15.82v3.955h15.82v1.977h-15.82a1.977 1.977 0 0 1-1.977-1.977v-9.887h-3.955v-1.977h17.797v1.977h-11.865v3.955z" fill="#fff"/><path d="M194.582 99.018H172.83v24.975c0 17.797 21.752 23.017 21.752 23.017s21.752-5.201 21.752-23.017V99.018h-21.752z" fill="#d37d2d"/><path d="M194.582 95.478H172.83v24.975c0 17.797 21.752 22.998 21.752 22.998s21.752-5.181 21.752-22.998V95.478h-21.752z" fill="#e5b131"/><path d="M202.492 111.298c-1.74.475-7.396 5.398-10.678 8.681-6.15 6.15-6.526 9.63-5.932 10.144.593.514 3.955.138 10.144-5.932 3.283-3.283 8.206-8.938 8.681-10.678l-2.215-2.215zM202.987 110.751l.713-.713 2.14 2.138-.714.714zM206.309 111.733s2.234.831 3.737-2.155c1.503-2.986 2.67-2.946 2.986-2.729-.692-.613-4.785-1.977-6.684-.613a5.656 5.656 0 0 0-2.195 3.342l2.156 2.155zM195.353 105.188l-1.76-1.799.138.138a2.611 2.611 0 0 0-3.678 0l-.653.653a2.294 2.294 0 0 1-3.243 0l-.554-.554-6.229 6.288.554.534a2.333 2.333 0 0 1 0 3.263l-1.622-1.622-2.492 2.472 5.082 5.082 2.492-2.412-1.641-1.622a2.333 2.333 0 0 1 3.263 0l.534.554 1.167-1.167 3.955-3.955 1.147-1.167-.573-.554a1.978 1.978 0 0 1-.475-2.749 1.502 1.502 0 0 1 2.214 0l.514.534 1.86-1.917z" fill="#d37d2d"/><path d="M205.221 126.03l-5.319-5.339c-3.342-3.461-4.172-2.828-8.503-7.178l-2.175 2.195c4.331 4.331 3.718 5.042 7.158 8.483l5.339 5.339a2.492 2.492 0 0 0 3.52-3.52l-.02.02zM187.187 115.398l3.916-3.915.712.712-3.915 3.916zM210.402 105.82l.91.811h1.522l.218.158v-1.384c-.198-.138-.455-.257-1.463 0l-1.187.415zM204.924 108.015l-.771.198v1.562l1.028.949.712-.356-.237-1.641zM201.899 113.058l2.669.395v-1.384h-2.551z" fill="#d37d2d"/><path fill="#d37d2d" d="M203.817 112.326l2.017-.138v-1.384l-2.393-1.345-.455-.079v2.017zM185.98 112.267l1.187 1.74v1.384l2.056-1.068v1.385l2.393-.534.178-2.986v-1.384l-.732-.416.396-.534h.316v-1.384l-5.141 3.006zM179.376 108.529v1.385l2.254.138-1.364-1.997zM185.585 129.569v-1.463l1.265-.257-.929 2.096zM175.816 113.196v1.365l7.574 2.59v-1.364zM192.605 114.62l.316 6.13 1.661-3.816v-1.977l-1.977-.337zM190.627 103.784l1.286.039v1.365l-1.859-.495z"/><path d="M202.492 109.933c-1.74.475-7.396 5.398-10.678 8.681-6.15 6.15-6.526 9.63-5.932 10.144.593.514 3.955.138 10.144-5.932 3.283-3.283 8.206-8.938 8.681-10.678l-2.215-2.215zM202.991 109.371l.714-.713 2.138 2.139-.713.713zM206.309 110.349s2.234.831 3.737-2.155c1.503-2.986 2.67-2.946 2.986-2.729-.692-.613-4.785-1.977-6.684-.593a5.615 5.615 0 0 0-2.195 3.342l2.156 2.135zM195.353 103.823l-1.76-1.76.138.138a2.611 2.611 0 0 0-3.678 0l-.653.653a2.294 2.294 0 0 1-3.243 0l-.554-.554-6.229 6.229.554.554a2.294 2.294 0 0 1 0 3.243l-1.622-1.622-2.492 2.571 5.082 5.062 2.492-2.472-1.641-1.641a2.333 2.333 0 0 1 3.263 0l.534.554 1.167-1.147 3.955-3.955 1.147-1.167-.534-.514a2.095 2.095 0 0 1-.475-2.768 1.502 1.502 0 0 1 2.214 0l.514.534 1.821-1.938zM187.178 114.004l3.915-3.915.713.712-3.916 3.916zM194.582 114.956a38.053 38.053 0 0 1-3.105-2.808l-2.175 2.175a36.822 36.822 0 0 1 2.729 3.006c.574-.732 1.523-1.542 2.551-2.373z" fill="#fff"/><path d="M195.116 115.431c-.949.85-1.859 1.72-2.689 2.511a37.558 37.558 0 0 0 3.678 4.588 105.783 105.783 0 0 0 3.381-3.619 34.533 34.533 0 0 0-4.37-3.48zM205.28 124.685l-5.181-5.201a101.85 101.85 0 0 1-3.381 3.638l5.062 5.062a2.492 2.492 0 0 0 3.52-3.52l-.02.021z" fill="#fff"/><path d="M199.537 224.572a9.442 9.442 0 0 1-7.701-3.955h-4.395a9.442 9.442 0 0 1-7.691 3.955 9.39 9.39 0 0 1-6.693-2.773 9.394 9.394 0 0 1-2.768-6.689c.002-5.214 4.245-9.455 9.459-9.455h19.778a9.437 9.437 0 0 1 7.867 4.204 9.4 9.4 0 0 1 1.414 7.101 9.383 9.383 0 0 1-4.022 6.017 9.403 9.403 0 0 1-5.248 1.595zm-19.791-15.819a6.353 6.353 0 0 0-5.295 2.835 6.367 6.367 0 0 0 1.769 8.819 6.353 6.353 0 0 0 8.819-1.767l.763-1.12h7.674l.759 1.116a6.315 6.315 0 0 0 5.274 2.839c3.524 0 6.378-2.854 6.378-6.361a6.369 6.369 0 0 0-6.361-6.361h-19.78zm19.78 9.887a1.55 1.55 0 0 1-1.46-2.067 1.55 1.55 0 0 1-2.067-1.46 1.55 1.55 0 0 1 2.067-1.46 1.55 1.55 0 0 1 1.46-2.067 1.55 1.55 0 0 1 1.46 2.067 1.55 1.55 0 0 1 2.067 1.46 1.55 1.55 0 0 1-2.067 1.46 1.552 1.552 0 0 1-1.46 2.067zm0-3.098c.182 0 .355.031.518.089a1.532 1.532 0 0 1 0-1.036 1.532 1.532 0 0 1-1.036 0 1.532 1.532 0 0 1 0 1.036c.163-.058.336-.089.518-.089zm-21.324 3.098v-1.977h-1.977v-3.097h1.977v-1.977h3.098v1.977h1.977v3.097H181.3v1.977h-3.098zm9.044-2.103c-.274 0-.535-.104-.732-.295a1.06 1.06 0 0 1-.336-.753c-.004-.282.1-.55.297-.751l1.985-2.103a1.06 1.06 0 0 1 .763-.328c.274 0 .535.104.732.295.336.326.45.589.456.871a1.05 1.05 0 0 1-.299.753l-2.126 2.008a1.05 1.05 0 0 1-.74.303zm4.034 0c-.274 0-.535-.104-.732-.295a1.06 1.06 0 0 1-.336-.753c-.004-.282.1-.55.297-.751l1.985-2.103a1.06 1.06 0 0 1 .763-.328c.274 0 .535.104.732.295.336.326.45.589.456.871a1.05 1.05 0 0 1-.299.753l-2.126 2.008a1.05 1.05 0 0 1-.74.303z" fill="#070308"/><path d="M199.526 206.215h-19.774a8.899 8.899 0 1 0 7.395 13.842h4.983a8.898 8.898 0 0 0 12.343 2.455 8.898 8.898 0 0 0-4.947-16.297zm0 15.82a6.88 6.88 0 0 1-5.754-3.085l-.593-.87H186.1l-.593.87a6.921 6.921 0 1 1-5.754-10.758h19.774a6.921 6.921 0 1 1-.001 13.843zm-18.786-7.91h1.977v1.977h-1.977v1.977h-1.977v-1.977h-1.977v-1.977h1.977v-1.977h1.977v1.977zm17.797.989a.99.99 0 1 1-1.979 0 .99.99 0 0 1 1.979 0zm0-1.978a.99.99 0 1 1 1.979 0 .99.99 0 0 1-1.979 0zm1.978 3.955a.99.99 0 1 1-1.979 0 .99.99 0 0 1 1.979 0zm1.977-1.977a.99.99 0 1 1-1.979 0 .99.99 0 0 1 1.979 0zm-12.794-1.978a.494.494 0 0 1 .013.699l-.013.013-2.096 1.977a.494.494 0 0 1-.699.013l-.013-.013a.494.494 0 0 1-.013-.699l.013-.013 1.977-2.096a.494.494 0 0 1 .699-.013l.013.013.119.119zm4.034 0a.494.494 0 0 1 .013.699l-.013.013-2.096 1.977a.494.494 0 0 1-.699.013l-.013-.013a.494.494 0 0 1-.013-.699l.013-.013 1.977-2.096a.494.494 0 0 1 .699-.013l.013.013.119.119z" fill="#fff"/><path d="M226.221 238.414a2.538 2.538 0 0 1-2.537-2.537v-13.842c0-1.4 1.137-2.537 2.537-2.537h33.617c1.4 0 2.537 1.137 2.537 2.537v13.842c0 1.4-1.137 2.537-2.537 2.537h-33.617zm33.057-3.097v-12.722h-32.497v12.722h32.497zm-3.955-.858v-3.097h3.097v3.097h-3.097zm-3.955 0v-3.097h3.097v3.097h-3.097zm-15.819 0v-3.097h14.962v3.097h-14.962zm-3.955 0v-3.097h3.097v3.097h-3.097zm-3.955 0v-3.097h3.097v3.097h-3.097zm25.707-3.954v-3.955h-1.977v-3.097h7.052v7.052h-5.075zm-3.955 0v-3.097h3.097v3.097h-3.097zm-3.955 0v-3.097h3.097v3.097h-3.097zm-3.955 0v-3.097h3.097v3.097h-3.097zm-3.955 0v-3.097h3.097v3.097h-3.097zm-3.955 0v-3.097h3.097v3.097h-3.097zm-5.932 0v-3.097h5.075v3.097h-5.075zm19.774-3.955v-3.097h3.097v3.097h-3.097zm-3.955 0v-3.097h3.097v3.097h-3.097zm-3.955 0v-3.097h3.097v3.097h-3.097zm-3.954 0v-3.097h3.097v3.097h-3.097zm-3.955 0v-3.097h3.097v3.097h-3.097zm-3.955 0v-3.097h3.097v3.097h-3.097z" fill="#070308"/><path d="M259.838 220.057h-33.617a1.977 1.977 0 0 0-1.977 1.977v13.842c0 1.092.885 1.977 1.977 1.977h33.617a1.977 1.977 0 0 0 1.977-1.977v-13.842a1.977 1.977 0 0 0-1.977-1.977zm0 15.82h-33.617v-13.842h33.617v13.842zm-13.842-9.887h-1.977v-1.977h1.977v1.977zm0 1.977h1.977v1.977h-1.977v-1.977zm3.955-1.977h-1.977v-1.977h1.977v1.977zm7.91-1.978v5.932h-3.955v-3.955h-1.977v-1.977h5.932zm-5.933 5.933h-1.977v-1.977h1.977v1.977zm-15.819 1.977h13.842v1.977h-13.842v-1.977zm-3.955 0h1.977v1.977h-1.977v-1.977zm19.774 0h1.977v1.977h-1.977v-1.977zm3.955 0h1.977v1.977h-1.977v-1.977zm-25.707-5.932h-1.977v-1.977h1.977v1.977zm11.865 1.977h1.977v1.977h-1.977v-1.977zm-13.842 3.955h1.977v1.977h-1.977v-1.977zm5.932-5.932h-1.977v-1.977h1.977v1.977zm-1.977 3.955h-3.955v-1.977h3.955v1.977zm5.932-1.978h1.977v1.977h-1.977v-1.977zm-1.977 1.978h-1.977v-1.977h1.977v1.977zm5.932-3.955h-1.977v-1.977h1.977v1.977zm-3.955 0h-1.977v-1.977h1.977v1.977z" fill="#fff"/><path d="M31.713 123.723l1.777-7.104a2.529 2.529 0 0 1 2.374-1.926l.91-12.721h-.387a2.541 2.541 0 0 1-2.538-2.538l1.055-8.471h5.999v3.955h.855v-3.955h7.054v3.955h.855v-3.955h5.999l1.051 8.401c.005 1.469-1.135 2.608-2.534 2.608h-.387l.91 12.722c1.189.036 2.161.818 2.435 1.927l1.709 7.102H31.713zm23.177-3.099l-.708-2.833h-2.36l-1.344-18.919h3.071l-.593-4.81h-.189v3.955h-7.054v-3.955h-.855v3.955h-7.054v-3.955h-.171l-.609 4.81h3.05l-1.345 18.919h-2.34l-.708 2.833H54.89zm-11.154-8.765v-5.932h-1.977v-3.099h1.977v-1.977h3.099v1.977h1.977v3.099h-1.977v5.932h-3.099z" fill="#070308"/><path d="M46.274 103.388h1.977v1.977h-1.977v5.932h-1.977v-5.932H42.32v-1.977h1.977v-1.977h1.977v1.977zm11.865 19.775H32.432l1.602-6.407a1.978 1.978 0 0 1 1.977-1.503h.376l.989-13.842h-.989a1.977 1.977 0 0 1-1.977-1.977l.989-7.91h4.944v3.955h1.977v-3.955h5.932v3.955h1.977v-3.955h4.944l.989 7.91a1.977 1.977 0 0 1-1.977 1.977h-.989l.989 13.842h.435a1.977 1.977 0 0 1 1.977 1.503l1.542 6.407zm-2.532-1.978l-.989-3.955h-2.274l-1.266-17.797h3.105l-.732-5.932h-1.246v3.955h-5.932v-3.955h-1.977v3.955h-5.932v-3.955h-1.226l-.751 5.932h3.085l-1.266 17.797h-2.254l-.989 3.955h20.644z" fill="#fff"/><path d="M0 157.372l3.146-3.144 1.386-1.369 2.745-2.763 5.946-5.927a6.488 6.488 0 0 1 .265-7.166 6.514 6.514 0 0 1 5.283-2.711c1.361 0 2.668.421 3.777 1.217a6.503 6.503 0 0 1 1.495 9.061 6.513 6.513 0 0 1-5.282 2.709 6.419 6.419 0 0 1-3.379-.952l-5.531 5.548 4.113 4.136-3.54 3.538-4.131-4.129-.577.585 4.138 4.138-3.567 3.538L0 157.372zm18.784-19.906c-.929 0-1.795.367-2.441 1.035a3.382 3.382 0 0 0 0 4.718c.718.697 1.556 1.035 2.441 1.035.929 0 1.795-.367 2.441-1.035.63-.651.968-1.51.953-2.416a3.368 3.368 0 0 0-1.035-2.383 3.377 3.377 0 0 0-2.359-.954z" fill="#070308"/><path d="M10.423 158.757l2.749-2.749-4.113-4.133 6.249-6.268a5.933 5.933 0 1 0-1.364-1.365l-6.268 6.249-2.749 2.768-1.384 1.364-2.749 2.749 1.384 1.384 4.113 4.133 2.768-2.749-4.133-4.133 1.364-1.384 4.133 4.134zm5.517-20.645a3.955 3.955 0 1 1 5.687 5.498 3.955 3.955 0 0 1-5.687-5.498z" fill="#fff"/><path d="M100.16 203.78a39.976 39.976 0 0 0-10.412-1.948 44.238 44.238 0 0 0-7.325.975c-2.467.423-4.818.827-7.198 1l-2.256.002c-3.271-.433-5.505-2.288-5.505-4.515v-23.729c0-2.489 2.913-4.515 6.493-4.515 3.58 0 6.493 2.026 6.493 4.515v.813l2.642-.475a35.403 35.403 0 0 1 6.667-.838c3.891.139 7.709.813 11.383 2.004l1.06.577v26.815l-2.042-.681zm-26.202-5.982c-2.191 0-3.394 1.064-3.394 1.417 0 .363 1.061 1.311 3.028 1.417h1.374c1.528-.239 2.386-.977 2.386-1.417 0-.365-1.166-1.417-3.394-1.417zm15.84.898c3.145.116 6.272.599 9.306 1.437v-20.454a38.276 38.276 0 0 0-9.35-1.576c-2.045.06-4.132.321-6.16.778-1.026.21-2.09.407-3.24.587v19.788a3.29 3.29 0 0 1-.069.628l1.49-.251a47.87 47.87 0 0 1 7.985-.937h.038zm-15.84-24.549c-2.228 0-3.394 1.052-3.394 1.417v19.867a8.705 8.705 0 0 1 3.394-.691c1.166 0 2.324.238 3.394.691v-19.867c0-.364-1.166-1.417-3.394-1.417zm15.82 14.487l-3.501 3.482-2.175-2.174 3.482-3.501-3.482-3.501 2.176-2.174 3.501 3.499 3.5-3.48 2.176 2.176-3.482 3.482 3.481 3.499-2.175 2.174-3.501-3.482z" fill="#070308"/><path d="M100.97 177.602a41.086 41.086 0 0 0-11.192-1.977 35.022 35.022 0 0 0-6.585.831l-3.302.593v-1.483c0-2.175-2.65-3.955-5.932-3.955-3.283 0-5.932 1.78-5.932 3.955v23.729c0 1.977 2.136 3.579 4.944 3.955h2.215c2.412-.178 4.805-.593 7.119-.989 2.459-.54 4.96-.871 7.475-.989 3.592.188 7.143.853 10.56 1.977l1.305.435v-25.707l-.675-.375zm-26.003 23.591h-1.404c-2.175-.119-3.559-1.206-3.559-1.977 0-.771 1.542-1.977 3.955-1.977 2.412 0 3.955 1.167 3.955 1.977s-1.128 1.7-2.947 1.977zm2.946-4.865a8.125 8.125 0 0 0-7.91 0v-20.763c0-.811 1.542-1.977 3.955-1.977 2.412 0 3.955 1.167 3.955 1.977v20.763zm21.752 4.548a40.041 40.041 0 0 0-9.887-1.621 47.382 47.382 0 0 0-7.91.929l-2.452.415a2.71 2.71 0 0 0 .376-1.345v-20.269a65.915 65.915 0 0 0 3.678-.653 33 33 0 0 1 6.308-.791 38.8 38.8 0 0 1 9.887 1.72v21.615zm-9.887-15.819l3.5-3.48 1.384 1.384-3.48 3.48 3.48 3.5-1.384 1.384-3.5-3.48-3.5 3.48-1.384-1.384 3.48-3.5-3.48-3.5 1.384-1.384 3.5 3.5z" fill="#fff"/><path d="M118.075 34.739c-1.826 0-3.152-1.068-3.152-2.538.425-2.704 2.649-4.632 5.298-4.673h.011c.141 0 .374 0 .624.03V16.942h-10.743v13.083c0 2.538-3.234 4.714-5.88 4.714-1.826 0-3.152-1.068-3.152-2.538.425-2.704 2.649-4.632 5.298-4.673h.011c.141 0 .374 0 .624.03V11.865h16.942v18.16c-.001 2.538-3.234 4.714-5.881 4.714z" fill="#070308"/><path d="M123.394 12.426v17.599c0 2.175-2.927 4.153-5.319 4.153-1.444 0-2.59-.771-2.59-1.977a4.884 4.884 0 0 1 4.746-4.113c1.107 0 1.186.257 1.186.257V16.381h-11.865v13.644c0 2.175-2.927 4.153-5.319 4.153-1.444 0-2.59-.771-2.59-1.977a4.884 4.884 0 0 1 4.746-4.113c1.107 0 1.186.257 1.186.257V12.426h15.819z" fill="#fff"/><path d="M234.131 48.581a6.5 6.5 0 0 1-6.492-6.493 6.372 6.372 0 0 1 1.344-3.964c.301-.415.5-.897.585-1.408h-5.324a2.54 2.54 0 0 1-2.537-2.538v-8.409l.494-.058a5.105 5.105 0 0 1 3.999 1.266 3.72 3.72 0 0 0 2.026.709c1.844-.001 3.368-1.524 3.368-3.395a3.4 3.4 0 0 0-3.395-3.394 3.949 3.949 0 0 0-2.045.743 5.245 5.245 0 0 1-3.943 1.231l-.504-.05v-8.418a2.54 2.54 0 0 1 2.537-2.538h5.336a3.468 3.468 0 0 0-.577-1.474 6.503 6.503 0 0 1-1.363-3.888c0-3.589 2.912-6.502 6.492-6.502a6.5 6.5 0 0 1 6.492 6.493 6.372 6.372 0 0 1-1.344 3.964c-.301.415-.5.897-.585 1.408h5.324a2.54 2.54 0 0 1 2.537 2.538v5.333a3.458 3.458 0 0 0 1.477-.575 6.485 6.485 0 0 1 3.887-1.363c3.588-.001 6.5 2.912 6.5 6.492s-2.912 6.493-6.492 6.493h-.002a6.426 6.426 0 0 1-3.963-1.345 3.365 3.365 0 0 0-1.408-.585v5.324a2.54 2.54 0 0 1-2.537 2.538h-5.336c.075.527.272 1.029.577 1.474a6.503 6.503 0 0 1 1.363 3.888c.002 3.59-2.911 6.503-6.491 6.503zm-1.417-14.964v2.538a6.937 6.937 0 0 1-.299 1.982l-.884 1.823c-.519.678-.778 1.402-.794 2.139a3.396 3.396 0 0 0 3.395 3.382 3.4 3.4 0 0 0 3.395-3.394 3.411 3.411 0 0 0-.73-2.026l-.915-1.841a6.68 6.68 0 0 1-.332-2.065v-2.538h7.91v-7.91h2.537c.674.005 1.34.106 1.983.302l1.821.882c.68.52 1.404.779 2.14.795a3.398 3.398 0 0 0 3.383-3.395 3.4 3.4 0 0 0-3.395-3.394 3.403 3.403 0 0 0-2.026.73l-1.842.913a6.684 6.684 0 0 1-2.064.334h-2.537v-7.91h-7.91v-2.538a6.937 6.937 0 0 1 .299-1.982l.884-1.823c.519-.678.778-1.402.794-2.139a3.396 3.396 0 0 0-3.395-3.382 3.4 3.4 0 0 0-3.395 3.394c.015.725.274 1.449.73 2.026l.915 1.841a6.68 6.68 0 0 1 .332 2.065v2.538h-7.91v3.845a6.519 6.519 0 0 1 3.478-1.012c1.446 0 2.872.492 4.009 1.386a6.502 6.502 0 0 1 1.099 9.116 6.455 6.455 0 0 1-5.112 2.485 6.419 6.419 0 0 1-3.474-1.01v3.843h7.91z" fill="#070308"/><path d="M234.131 2.538a3.955 3.955 0 0 1 3.955 3.955 3.958 3.958 0 0 1-.85 2.373l-.85 1.74a6.376 6.376 0 0 0-.277 1.819v1.977h7.91v7.91h1.977a6.163 6.163 0 0 0 1.819-.277l1.74-.85a3.951 3.951 0 0 1 2.373-.85 3.955 3.955 0 0 1 0 7.91 3.958 3.958 0 0 1-2.373-.85l-1.74-.85a6.376 6.376 0 0 0-1.819-.277h-1.977v7.91h-7.91v1.977c.001.617.094 1.23.277 1.819l.85 1.74c.535.677.833 1.51.85 2.373a3.955 3.955 0 0 1-7.91 0 3.958 3.958 0 0 1 .85-2.373l.85-1.74c.18-.59.273-1.203.277-1.819v-1.977h-7.91V28.68l.376.277a5.932 5.932 0 1 0 0-9.333l-.376.297v-5.517h7.91v-1.977a6.163 6.163 0 0 0-.277-1.819l-.85-1.74a3.951 3.951 0 0 1-.85-2.373 3.956 3.956 0 0 1 3.955-3.957m0-1.977a5.932 5.932 0 0 0-5.932 5.932 5.927 5.927 0 0 0 1.266 3.579c.475.692.724 1.514.712 2.353h-5.932a1.977 1.977 0 0 0-1.977 1.977v7.91a4.724 4.724 0 0 0 3.559-1.127 4.53 4.53 0 0 1 2.373-.85 3.955 3.955 0 0 1 0 7.91 4.318 4.318 0 0 1-2.373-.85 4.546 4.546 0 0 0-3.559-1.127v7.91c0 1.092.885 1.977 1.977 1.977h5.932a3.959 3.959 0 0 1-.751 2.314 5.797 5.797 0 0 0-1.226 3.619 5.932 5.932 0 0 0 11.864 0 5.927 5.927 0 0 0-1.266-3.579 4.055 4.055 0 0 1-.712-2.353h5.932a1.977 1.977 0 0 0 1.977-1.977v-5.932a3.956 3.956 0 0 1 2.314.751 5.797 5.797 0 0 0 3.619 1.226 5.932 5.932 0 0 0 0-11.864 5.927 5.927 0 0 0-3.579 1.266 4.055 4.055 0 0 1-2.353.712v-5.932a1.977 1.977 0 0 0-1.977-1.977h-5.932a3.956 3.956 0 0 1 .751-2.314 5.797 5.797 0 0 0 1.226-3.619 5.933 5.933 0 0 0-5.933-5.935zM287.522 65.817h-3.955v-6.486a3.954 3.954 0 0 0 1.977-3.401 3.955 3.955 0 0 0-7.91 0 3.954 3.954 0 0 0 1.977 3.401v6.486h-3.955a3.955 3.955 0 0 0-3.955 3.955v1.977h3.955v-1.977c0-1.092.885-1.977 1.977-1.977v3.955a1.977 1.977 0 0 1-1.977 1.977v19.774c0 5.932 5.932 9.887 5.932 9.887s5.932-3.955 5.932-9.887V73.726a1.977 1.977 0 0 1-1.977-1.977v-3.955c1.092 0 1.977.885 1.977 1.977v1.977h3.955v-1.977a3.952 3.952 0 0 0-3.953-3.954zm-5.932-11.865a1.977 1.977 0 1 1 0 3.954 1.977 1.977 0 0 1 0-3.954zm3.955 21.218v18.331a10.54 10.54 0 0 1-3.955 7.356 10.54 10.54 0 0 1-3.955-7.356V75.17a3.954 3.954 0 0 0 1.977-3.421v-3.955h3.955v3.955a3.956 3.956 0 0 0 1.978 3.421z" fill="#fff"/><path d="M330.447 147.55v-7.052h2.306l1.977-1.977h1.132l-.452-.647v-1.383c0-4.063 2.57-6.257 4.637-8.02.786-.672 1.529-1.305 2.022-1.95a6.71 6.71 0 0 0 .263-.359c-1.161 1.097-2.731 1.371-3.899 1.574-.49.085-.954.166-1.188.282-.541.265-1.412 1.607-1.879 2.327-.309.477-.465.713-.601.848a2.283 2.283 0 0 1-1.582.637h-.297c-.527-.081-1.006-.411-1.468-.732-.205-.139-.512-.353-.616-.384-.545-.081-.846-.49-1.085-.821l-.124-.166a7.976 7.976 0 0 1-.743-1.361 2.929 2.929 0 0 1-.317-1.823 4.883 4.883 0 0 1 1.275-2.084c.429-.442 3.992-6.095 6.261-9.749l-2.615-4.506h4.513c3.827.038 10.862.964 15.047 6.738 5.502 7.178 3.331 11.115 1.417 14.588-.888 1.611-1.726 3.13-1.726 4.864v1.433l-.579.597h1.219l-.019 1.977h3.949v7.151h-26.828zm23.764-3.196l.027-.857H350.3v-1.977h-1.977v-3.574l1.344-1.387v-.166a15.395 15.395 0 0 1 2.464-7.228c1.647-3.049 1.898-5.629-1.566-10.399-3.121-4.296-8.236-5.289-11.56-5.441l.823 1.404-.813 1.298c-2.512 4.072-6.205 9.83-6.772 10.489a3.433 3.433 0 0 0-.44.525l.041.216c.058.133.182.363.323.579l.012.014c.294.139.579.301.85.489a9.216 9.216 0 0 1 2.889-3.09 7.015 7.015 0 0 1 2.084-.585 4.089 4.089 0 0 0 2.379-.925 6.492 6.492 0 0 0 1.219-2.42c-.017-1.256 1.12-2.395 2.52-2.395a2.54 2.54 0 0 1 2.537 2.537 9.794 9.794 0 0 1-2.097 6.834 17.794 17.794 0 0 1-2.501 2.462c-1.9 1.624-3.53 3.018-3.53 5.635v.398l.969 1.406v3.323h-1.977v1.977h-3.955v.857h20.645z" fill="#070308"/><path d="M352.778 138.982H350.8l1.345-1.384v-1.206c0-5.754 8.266-8.879.415-19.122-3.955-5.458-10.56-6.466-14.594-6.506h-3.54l2.294 3.955s-5.932 9.571-6.526 10.144a4.283 4.283 0 0 0-1.107 1.76c-.077.524.02 1.059.277 1.523.189.443.421.867.692 1.266.257.336.455.692.85.751.395.059 1.404 1.008 1.977 1.107h.277c.449.005.881-.165 1.206-.475.336-.336 1.661-2.808 2.63-3.283s3.638-.277 5.161-1.977a8.321 8.321 0 0 0 1.819-3.619 7.021 7.021 0 0 1-1.463 4.944c-1.859 2.432-6.545 4.311-6.545 9.63v1.206l.969 1.384h-1.977l-1.977 1.977h-1.977v5.932h25.707v-6.031h-3.955l.02-1.976zm1.977 5.932h-21.752v-1.977h3.955v-1.977h1.977v-2.59l-.356-.514-.613-.89v-.573c0-2.887 1.819-4.429 3.737-6.071a17.127 17.127 0 0 0 2.413-2.373 9.292 9.292 0 0 0 1.977-6.486 1.977 1.977 0 1 0-3.954 0 6.968 6.968 0 0 1-1.404 2.709 4.586 4.586 0 0 1-2.67 1.048 6.625 6.625 0 0 0-1.839.494 8.66 8.66 0 0 0-2.887 3.223l-.138.218-.277-.198a5.291 5.291 0 0 0-1.107-.653l-.119-.158a5.157 5.157 0 0 1-.415-.771v-.119a1.19 1.19 0 0 1-.099-.277c.171-.305.384-.585.633-.831.494-.573 3.955-5.932 6.723-10.421l.633-1.008-.613-1.048-.554-.929c4.074 0 9.65 1.068 13.012 5.695 3.362 4.627 3.52 7.455 1.582 11.034a14.795 14.795 0 0 0-2.373 6.921v.395l-.791.811-.554.573v2.788h1.977v1.977h3.955l-.059 1.978z" fill="#fff"/><g fill="#d0ced0"><path d="M157.011 162.711v-2.966a.99.99 0 0 1 1.978 0v2.966a.99.99 0 0 1-1.978 0zM159.819 182.486a.97.97 0 0 1-.831-.989v-2.59a.99.99 0 0 0-1.978 0v2.59a2.927 2.927 0 0 0 2.511 2.966h.158a.99.99 0 0 0 .14-1.977zM181.254 182.486h-5.398a.99.99 0 0 0 0 1.978h5.398a.99.99 0 0 0 0-1.978zM170.477 182.486h-5.398a.99.99 0 0 0 0 1.978h5.398a.99.99 0 0 0 0-1.978zM158 174.576a.99.99 0 0 0 .989-.989v-5.478a.99.99 0 0 0-1.978 0v5.398a.989.989 0 0 0 .989 1.069zM192.605 182.486h-5.932a.99.99 0 0 0 0 1.978h1.977v1.977a.99.99 0 0 0 1.978 0v-1.977h1.977a.99.99 0 0 0 0-1.978zM233.142 182.486h-1.602a.99.99 0 0 0 0 1.978h1.602a.99.99 0 0 1 .989.989v.85a.99.99 0 0 0 1.978 0v-.85a2.967 2.967 0 0 0-2.967-2.967zM203.738 182.486h-5.576a.99.99 0 0 0 0 1.978h5.576a.99.99 0 0 0 0-1.978zM235.12 190.87a.99.99 0 0 0-.989.989v5.557a.99.99 0 0 0 1.978 0v-5.557a.99.99 0 0 0-.989-.989zM235.12 202.003a.99.99 0 0 0-.989.989v5.557a.99.99 0 0 0 1.978 0v-5.557a.99.99 0 0 0-.989-.989zM214.851 182.486h-5.557a.99.99 0 0 0 0 1.978h5.557a.99.99 0 0 0 0-1.978zM225.984 182.486h-5.576a.99.99 0 0 0 0 1.978h5.576a.99.99 0 0 0 0-1.978zM235.12 213.136a.99.99 0 0 0-.989.989v2.966a.99.99 0 0 0 1.978 0v-2.966a.99.99 0 0 0-.989-.989zM58.139 108.332a.99.99 0 0 1 .989-.989h2.966a.99.99 0 0 1 0 1.978h-2.966a.99.99 0 0 1-.989-.989zM80.879 109.32a.99.99 0 0 1 .989.989v2.65a.99.99 0 0 0 1.978 0v-2.65a2.966 2.966 0 0 0-2.966-2.966h-.376a.99.99 0 0 0 0 1.978h.375zM99.428 133.05h-6.13a.99.99 0 0 0 0 1.978h6.13a.99.99 0 0 0 0-1.978zM87.167 133.05h-2.333a.99.99 0 0 1-.989-.989v-.692a.99.99 0 0 0-1.978 0v.692c.003.805.331 1.576.91 2.136a.969.969 0 0 0-.91.969v5.932a.99.99 0 0 0 1.978 0v-5.932a.66.66 0 0 0 0-.336c.342.126.703.193 1.068.198h2.333a.99.99 0 0 0 0-1.978h-.079zM74.373 109.32a.99.99 0 0 0 0-1.978h-6.15a.99.99 0 0 0 0 1.978h6.15zM82.857 118.1a.99.99 0 0 0-.989.989v6.051a.99.99 0 0 0 1.978 0v-6.13a.99.99 0 0 0-.989-.91zM108.563 133.05h-2.966a.99.99 0 0 0 0 1.978h2.966a.99.99 0 0 0 0-1.978zM39.353 150.847h-5.932a.99.99 0 0 0 0 1.978h5.932a.99.99 0 0 0 0-1.978zM63.082 150.847H57.15a.99.99 0 0 0 0 1.978h5.932a.99.99 0 0 0 0-1.978zM51.218 150.847h-5.932a.99.99 0 0 0 0 1.978h5.932a.99.99 0 0 0 0-1.978zM27.488 150.847h-5.932a.99.99 0 0 0 0 1.978h5.932a.99.99 0 0 0 0-1.978zM74.947 150.847h-5.932a.99.99 0 0 0 0 1.978h5.932a.99.99 0 0 0 0-1.978zM82.857 146.042a.99.99 0 0 0-.989.989v2.828c0 .546-.443.989-.989.989a.99.99 0 0 0 0 1.978 2.966 2.966 0 0 0 2.966-2.966v-2.828a.988.988 0 0 0-.988-.99zM82.857 152.824a.99.99 0 0 0-.989.989v5.932a.99.99 0 0 0 1.978 0v-5.932a.99.99 0 0 0-.989-.989zM82.857 164.689a.99.99 0 0 0-.989.989v5.932a.99.99 0 0 0 1.978 0v-5.932a.99.99 0 0 0-.989-.989zM162.943 56.918v1.701a.99.99 0 0 1-1.978 0v-1.701a.99.99 0 0 0-.989-.989h-1.127a.99.99 0 0 1 0-1.978h1.127a2.968 2.968 0 0 1 2.967 2.967zM152.918 53.952h-5.932a.99.99 0 0 0 0 1.978h5.932a.99.99 0 0 0 0-1.978zM161.954 63.562a.99.99 0 0 0-.989.989v2.254a.99.99 0 0 0 1.978 0v-2.254a.989.989 0 0 0-.989-.989zM141.053 53.952h-5.932a.99.99 0 0 0 0 1.978h5.932a.99.99 0 0 0 0-1.978zM114.496 46.042a.99.99 0 0 0 .989-.989v-5.932a.99.99 0 0 0-1.978 0v5.932c0 .547.443.989.989.989zM117.324 53.952h-.85a.99.99 0 0 1-.989-.989v-1.977a.99.99 0 0 0-1.978 0v1.977a2.966 2.966 0 0 0 2.966 2.966h.85a.99.99 0 0 0 .001-1.977zM129.188 53.952h-5.932a.99.99 0 0 0 0 1.978h5.932a.99.99 0 0 0 0-1.978zM193.594 24.29a2.966 2.966 0 0 0-2.966 2.966v2.828a.99.99 0 0 0 1.978 0v-2.828a.99.99 0 0 1 .989-.989.99.99 0 1 0-.001-1.977zM191.616 35.028a.99.99 0 0 0-.989.989v5.932a.99.99 0 0 0 1.978 0v-5.932a.99.99 0 0 0-.989-.989zM205.458 24.29h-5.932a.99.99 0 0 0 0 1.978h5.932a.99.99 0 0 0 0-1.978zM217.323 24.29h-5.932a.99.99 0 0 0 0 1.978h5.932a.99.99 0 0 0 0-1.978zM185.961 53.952h-5.932a.99.99 0 0 0 0 1.978h5.932a.99.99 0 0 0 0-1.978zM191.616 46.893a.99.99 0 0 0-.989.989v5.082c.028.137.028.278 0 .415a.969.969 0 0 0 .451 1.294l.024.011c.13.061.272.094.415.099a1.01 1.01 0 0 0 .91-.593c.149-.391.209-.809.178-1.226v-5.082a.989.989 0 0 0-.989-.989zM174.096 53.952h-5.932a.99.99 0 0 0 0 1.978h5.932a.99.99 0 0 0 0-1.978zM252.917 118.219a.99.99 0 0 1-.989.989h-2.966a.99.99 0 0 1 0-1.978h2.966a.99.99 0 0 1 .989.989zM260.827 93.481a.99.99 0 0 0-.989.989v5.3a.99.99 0 0 0 1.978 0v-5.3a.99.99 0 0 0-.989-.969v-.02zM262.231 83.594a2.966 2.966 0 0 0-2.393 2.986v2.571a.99.99 0 0 0 1.978 0V86.58a.969.969 0 0 1 .791-.969c.537-.11.888-.628.791-1.167-.078-.54-.627-.928-1.167-.85-.016.002 0 0 0 0zM260.827 114.6a.99.99 0 0 0-.989.989v.573a.99.99 0 0 1-.989.989h-1.621a.99.99 0 0 0 0 1.978h1.621a2.966 2.966 0 0 0 2.966-2.966v-.573c-.041-.516-.472-.991-.988-.99zM260.827 104.001a.99.99 0 0 0-.989.989v5.3a.99.99 0 0 0 1.978 0v-5.22c-.001-.547-.443-1.069-.989-1.069zM270.714 83.535h-2.966a.99.99 0 0 0 0 1.978h2.966a.99.99 0 0 0 0-1.978zM295.432 83.614h-2.966a.99.99 0 0 0 0 1.978h2.966a.99.99 0 0 0 0-1.978zM303.342 107.541a.99.99 0 0 0-1.978 0v5.735a.99.99 0 0 0 1.978 0v-5.735zM317.302 133.05h-5.814a.99.99 0 0 0 0 1.978h5.814a.99.99 0 0 0 0-1.978zM305.695 133.05h-1.364a.99.99 0 0 1-.989-.989v-1.325a.99.99 0 0 0-1.978 0v1.325a2.966 2.966 0 0 0 2.966 2.966h1.364a.99.99 0 0 0 .001-1.977zM302.353 118.14a.99.99 0 0 0-.989.989v5.794a.99.99 0 0 0 1.978 0v-5.715a.989.989 0 0 0-.989-1.068zM301.364 90.139a.99.99 0 0 0 1.978 0V86.58a2.965 2.965 0 0 0-1.72-2.689.969.969 0 0 0-1.294.451l-.011.024a.988.988 0 0 0 .475 1.324.967.967 0 0 1 .573.89v3.559zM303.342 95.933a.99.99 0 0 0-1.978 0v5.794a.99.99 0 0 0 1.978 0v-5.794zM326.082 133.05h-2.966a.99.99 0 0 0 0 1.978h2.966a.99.99 0 0 0 0-1.978zM189.639 196.743a.992.992 0 0 1-.989-.989v-4.706c0-.544.445-.989.989-.989s.989.445.989.989v4.706a.993.993 0 0 1-.989.989zM189.639 204.437a.992.992 0 0 1-.989-.989v-3.278c0-.544.445-.989.989-.989s.989.445.989.989v3.278a.993.993 0 0 1-.989.989z" opacity=".5"/></g></svg>