<svg xmlns="http://www.w3.org/2000/svg" viewBox="0 0 324.601 85.871"><text transform="translate(314.961 83.833)" fill="#c23334" font-family="ArialMT" font-size="1">I don’t like bugs!</text><path d="M316.532 59.144c.189-.131.378-.262.56-.393 4.912-3.646 7.509-8.987 7.509-15.434 0-5.232-1.397-9.511-4.162-12.719-2.583-2.998-6.644-5.37-12.407-7.262a73.88 73.88 0 0 1-3.988-1.463c-.429-.175-.058-.582.662-.582 1.681 0 3.238.233 4.635.546 1.412.32 2.794.713 4.111 1.317l6.804 3.114.691-7.451.859-9.256.378-4.111-3.893-1.375c-1.746-.619-3.806-1.135-6.294-1.579a44.359 44.359 0 0 0-7.648-.648c-7.087 0-12.909 1.572-17.311 4.664V2.7H264.75v33.923c0 4.068-.844 5.887-1.353 6.607-.233.342-.728 1.041-2.882 1.041s-2.678-.706-2.925-1.048c-.837-1.142-1.303-3.34-1.303-6.171V2.7h-22.288v3.536c-3.915-2.372-8.965-3.536-15.397-3.536h-24.318v27.025L183.618 2.7H162.64l-15.827 40.858h-10.784V2.7H113.74v18.279C107.126 8.514 94.014 0 78.944 0 60.461 0 44.926 12.807 40.713 30.009c-2.598-2.721-6.491-4.904-11.868-6.673a74.768 74.768 0 0 1-4.024-1.477c-.407-.167-.233-.349-.233-.349s.211-.226.931-.226c1.688 0 3.245.24 4.635.553 1.433.32 2.78.699 4.126 1.31l6.804 3.107 1.914-20.811-3.893-1.368c-1.754-.626-3.813-1.135-6.294-1.579a44.364 44.364 0 0 0-7.64-.648c-7.306 0-13.265 1.666-17.719 4.948C2.576 10.406 0 15.725 0 22.172c0 5.596 1.732 10.042 5.145 13.214 2.903 2.692 6.978 4.861 12.458 6.636 2.707.902 4.33 1.623 4.22 1.892-.109.277-1.142.429-2.212.429-2.001 0-4.824-.415-7.509-1.412-2.685-.997-9.678-6.272-9.678-6.272L.262 60.126l4.184 1.237c1.303.386 2.823.764 4.606 1.142L.124 85.551h13.011l1.514-4.053h1.783l1.477 4.053h29.834V61.676h9.256l-.007.015-9.234 23.86h13.011l1.506-4.053h1.79l1.484 4.053h34.695v-6.876c1.339-.167 2.554-.517 3.646-1.041.837 2.198 2.103 3.726 3.245 4.73 2.62 2.321 6.134 3.5 10.456 3.5 1.448 0 2.918-.138 4.366-.4 1.39-.255 2.416-.495 3.238-.749l2.809-.866V62.986l6.185-.007c-1.761 1.783-3.558 4.744-3.558 9.387 0 5.232 2.263 8.332 4.162 10.005 2.62 2.321 6.134 3.5 10.456 3.5a23.88 23.88 0 0 0 3.806-.313h11.788l1.506-4.053h1.783l1.484 4.053h51.453V59.151h-.488V45.02l5.115 14.124h-1.586v26.407h39.737V82.99c2.532 1.899 5.77 2.874 9.671 2.874a24.36 24.36 0 0 0 4.366-.4 48.86 48.86 0 0 0 1.761-.357v.451h48.295V59.144h-7.408z" fill="#3c2d6e"/><g fill="#fff"><path d="M233.979 43.747l-.291-.64a74.543 74.543 0 0 0-2.525-6.047c-.975-2.088-2.503-3.42-4.592-3.988 3.464-.713 6.003-2.183 7.611-4.41 1.608-2.234 2.423-4.701 2.423-7.408 0-4.511-1.543-7.844-4.621-10.005-3.093-2.161-7.553-3.238-13.382-3.238H199.59V57.63h11.679V37.482h3.558c1.95 0 3.442.604 4.482 1.819 1.041 1.208 1.877 2.743 2.489 4.592l4.984 13.738h12.523l-5.326-13.884zm-11.541-16.343c-1.521 1.026-3.602 1.535-6.258 1.535h-4.912V16.547h4.555c2.94 0 5.159.488 6.651 1.455 1.492.975 2.248 2.554 2.248 4.737.001 2.096-.763 3.646-2.284 4.665zM37.227 34.062c-1.921-2.234-5.283-4.126-10.071-5.698-4.322-1.47-7.044-2.656-8.157-3.558-1.113-.902-1.666-1.994-1.666-3.274 0-1.848.728-3.238 2.205-4.162 1.47-.924 3.464-1.39 5.981-1.39 2.088 0 4.024.204 5.807.604 1.783.4 3.5.982 5.159 1.746l.851-9.256c-1.47-.524-3.282-.968-5.443-1.353a38.903 38.903 0 0 0-6.724-.568c-6.178 0-11.031 1.303-14.568 3.915s-5.297 6.309-5.297 11.104c0 4.082 1.15 7.189 3.449 9.329 2.299 2.132 5.799 3.966 10.5 5.479 3.558 1.186 5.93 2.336 7.117 3.449s1.783 2.336 1.783 3.667c0 1.703-.8 3.056-2.387 4.053-1.594.997-3.646 1.492-6.156 1.492-2.569 0-5.13-.415-7.691-1.244-2.561-.83-4.25-1.528-5.057-2.103l-.924 9.969c1.608.473 3.697.961 6.265 1.463 2.561.495 5.246.749 8.048.749 6.069 0 10.9-1.324 14.48-3.988 3.58-2.656 5.377-6.382 5.377-11.177.008-3.936-.953-7.014-2.881-9.248zm279.188 0c-1.921-2.234-5.283-4.126-10.071-5.698-4.322-1.47-7.044-2.656-8.157-3.558-1.113-.902-1.666-1.994-1.666-3.274 0-1.848.728-3.238 2.205-4.162 1.47-.924 3.464-1.39 5.981-1.39 2.088 0 4.024.204 5.807.604 1.783.4 3.5.982 5.159 1.746l.859-9.256c-1.47-.524-3.289-.968-5.443-1.353a38.903 38.903 0 0 0-6.724-.568c-6.178 0-11.031 1.303-14.56 3.915-3.536 2.612-5.305 6.309-5.305 11.104 0 4.082 1.157 7.189 3.456 9.329 2.307 2.132 5.807 3.966 10.507 5.479 3.558 1.186 5.93 2.336 7.116 3.449 1.179 1.113 1.783 2.336 1.783 3.667 0 1.703-.8 3.056-2.387 4.053-1.601.997-3.653 1.492-6.163 1.492-2.561 0-5.123-.415-7.684-1.244-2.561-.83-4.25-1.528-5.064-2.103l-.917 9.969c1.608.473 3.697.961 6.258 1.463 2.561.495 5.246.749 8.055.749 6.069 0 10.9-1.324 14.48-3.988 3.58-2.656 5.363-6.382 5.363-11.177-.013-3.936-.959-7.014-2.888-9.248z"/><path d="M180.008 8.012h-13.731L150.451 48.87h-19.72V8.012h-11.679v49.619h39.963l4.053-10.893h19.727l3.988 10.893h12.814L180.008 8.012zm-13.876 30.11l6.971-20.149 6.694 20.149h-13.665zm103.931-30.11V36.63c0 4.228-.764 7.437-2.307 9.649-1.543 2.205-3.951 3.311-7.233 3.311-3.231 0-5.618-1.07-7.197-3.202-1.564-2.132-2.343-5.246-2.343-9.321V8.012h-11.679v31.253c0 6.316 1.834 11.097 5.479 14.342 3.66 3.253 8.921 4.875 15.805 4.875 7.022 0 12.305-1.688 15.841-5.05 3.536-3.369 5.305-8.448 5.305-15.237V8.012h-11.671z"/></g><path d="M103.269 64.536c-1.303-.939-3.194-1.412-5.683-1.412h-5.668V81.57h4.337v-6.753h1.957c2.205 0 3.929-.509 5.159-1.543 1.237-1.033 1.856-2.503 1.856-4.402.007-1.942-.648-3.383-1.958-4.336zm-3.238 6.396c-.553.473-1.317.706-2.285.706l-1.484-.044v-5.297h1.484c.953 0 1.71.233 2.278.684.568.466.844 1.113.844 1.936 0 .873-.276 1.542-.837 2.015zm-39.33-7.808L53.563 81.57h4.439l1.506-4.053h7.335l1.484 4.053h4.759l-7.277-18.446h-5.108zm-.058 11.192l2.598-7.488 2.489 7.488h-5.087zM13.076 63.124L5.93 81.571h4.439l1.514-4.053h7.335l1.477 4.053h4.759l-7.277-18.446-5.101-.001zm-.051 11.192l2.59-7.488 2.489 7.488h-5.079zm74.607 1.855a27.56 27.56 0 0 0-.939-2.248c-.357-.779-.931-1.273-1.71-1.484 1.295-.269 2.234-.808 2.838-1.645a4.618 4.618 0 0 0 .895-2.743c0-1.681-.568-2.918-1.717-3.718s-2.809-1.208-4.977-1.208h-7.066v18.446h4.337v-7.495h1.317c.72 0 1.288.233 1.666.684.386.437.699 1.019.931 1.703l1.856 5.108h4.65l-1.972-5.159-.109-.241zm-4.184-5.835c-.56.386-1.339.568-2.329.568H79.3v-4.599h1.688c1.099 0 1.921.182 2.489.546.553.357.83.953.83 1.761 0 .77-.291 1.352-.859 1.724zm-43.754 5.937l-6.753-13.149h-5.392V81.57h4.075V68.524l6.724 12.756.153.291h5.261V63.124h-4.068v13.149zm76.812-2.117h3.34v4.075a5.448 5.448 0 0 1-.888.24c-.349.073-.771.102-1.281.102-1.87 0-3.384-.568-4.526-1.695-1.15-1.135-1.732-2.627-1.732-4.504 0-1.936.64-3.464 1.885-4.592 1.259-1.113 2.954-1.681 5.108-1.681.866 0 1.717.095 2.54.277a9.077 9.077 0 0 1 2.285.837l.291-3.384v-.182c-.669-.269-1.484-.473-2.43-.626-.946-.153-2.023-.218-3.238-.218-3.405 0-6.076.837-8.004 2.503-1.928 1.659-2.896 4.009-2.896 7.044 0 3.013.939 5.363 2.816 7.022 1.885 1.666 4.49 2.503 7.822 2.503 1.237 0 2.452-.116 3.646-.335 1.186-.218 2.117-.429 2.794-.64v-9.94h-7.517v3.194h-.015zm151.92 0h3.34v4.075a4.955 4.955 0 0 1-.88.24c-.349.073-.779.102-1.288.102-1.863 0-3.384-.568-4.519-1.695-1.15-1.135-1.725-2.627-1.725-4.504 0-1.936.626-3.464 1.877-4.592 1.252-1.113 2.954-1.681 5.108-1.681.866 0 1.717.095 2.54.277a9.077 9.077 0 0 1 2.285.837l.277-3.384v-.182c-.662-.269-1.47-.473-2.409-.626-.953-.153-2.03-.218-3.245-.218-3.405 0-6.069.837-8.004 2.503-1.936 1.659-2.896 4.009-2.896 7.044 0 3.013.939 5.363 2.816 7.022 1.892 1.666 4.497 2.503 7.822 2.503 1.23 0 2.46-.116 3.638-.335 1.193-.218 2.117-.429 2.794-.64v-9.94h-7.517v3.194h-.014zm11.199-11.032h4.344V81.57h-4.344V63.124zM144.157 74.156h3.325v4.075a5.127 5.127 0 0 1-.88.24c-.349.073-.779.102-1.281.102-1.877 0-3.391-.568-4.533-1.695-1.15-1.135-1.717-2.627-1.717-4.504 0-1.936.626-3.464 1.877-4.592 1.259-1.113 2.954-1.681 5.108-1.681.866 0 1.71.095 2.54.277.83.189 1.586.466 2.278.837l.291-3.384v-.182c-.669-.269-1.477-.473-2.423-.626-.946-.153-2.023-.218-3.238-.218-3.405 0-6.069.837-8.004 2.503-1.928 1.659-2.903 4.009-2.903 7.044 0 3.013.939 5.363 2.816 7.022 1.885 1.666 4.49 2.503 7.822 2.503 1.237 0 2.452-.116 3.638-.335 1.193-.218 2.117-.429 2.794-.64v-9.94h-7.509v3.194zm107.635 2.117l-6.745-13.149h-5.399V81.57h4.068V68.524l6.724 12.756.167.291h5.261V63.124h-4.075v13.149zm48.098 0l-6.745-13.149h-5.392V81.57h4.068V68.524l6.724 12.756.16.291h5.261V63.124h-4.075v13.149zm12.188 2.089v-4.679h7.16V70.51h-7.16v-4.206h7.728v-3.18h-12.072V81.57h12.217v-3.209h-7.873zm-125.855-2.373l-4.286-12.865h-6.724V81.57h4.206l-.058-14.655 4.853 14.364h3.864l4.948-14.342-.051 14.633h4.169V63.124h-6.534l-4.387 12.865zm-25.461-12.865l-7.138 18.446h4.446l1.506-4.053h7.335l1.484 4.053h4.759l-7.277-18.446h-5.115zm-.044 11.192l2.598-7.488 2.481 7.488h-5.079zm44.482-.633h7.16V70.51h-7.16v-4.206h7.728v-3.18h-12.072V81.57h12.225v-3.209H205.2v-4.678zm23.234 0h7.167V70.51h-7.167v-4.206h7.713v-3.18H224.09V81.57h12.225v-3.209h-7.881v-4.678z" fill="#fff"/><path d="M78.944 3.98c-19.545 0-35.393 15.841-35.393 35.393 0 6.716 1.899 12.901 5.152 18.257h2.03c6.884-6.884 22.587-22.521 26.851-26.792 2.459 2.459 5.829-.851 6.804-1.928-.531-.524-1.099-1.099-1.688-1.688-2.336-2.329-4.344 1.237-4.344 1.237l-5.115-5.123s7.982-3.638 12.319.699l3.253 3.253 5.945-5.945a4.417 4.417 0 0 1 1.011-4.635 4.404 4.404 0 0 1 6.236 0 4.392 4.392 0 0 1 .025 6.211l-.025.025a4.38 4.38 0 0 1-4.592 1.019l-5.96 5.952c.677.684 1.688 1.695 3.231 3.238 4.351 4.344.699 12.327.699 12.327l-5.115-5.123s3.558-2.008 1.23-4.337l-1.688-1.688c-1.077.982-4.388 4.351-1.928 6.804-2.678 2.678-9.86 9.794-16.547 16.481h37.824c3.253-5.356 5.152-11.541 5.152-18.257.026-19.539-15.815-35.38-35.367-35.38z" fill="#e5b131"/></svg>