<svg xmlns="http://www.w3.org/2000/svg" viewBox="0 0 480.179 237.422"><path d="M480.179 176.917c0-.769-.618-1.387-1.387-1.387h-96.02c-.769 0-1.387.618-1.387 1.387v4.204c0 .769.618 1.387 1.387 1.387h4.75c.769 0 1.387.619 1.387 1.387v18.703h-6.147c-.769 0-1.387.618-1.387 1.387v32.049c0 .769.618 1.387 1.387 1.387h96.032c.769 0 1.387-.618 1.387-1.387l-.002-59.117" fill="#2c2c2c"/><path d="M471.057 233.415h-70.54c-2.849 0-5.18-2.331-5.18-5.18V180.71c0-2.849 2.331-5.18 5.18-5.18h70.54c2.849 0 5.18 2.331 5.18 5.18v47.525c0 2.849-2.331 5.18-5.18 5.18z" fill="#a9a9a9"/><circle cx="388.712" cy="221.537" r="3.306" fill="#e0e0e0"/><path d="M382.771 202.599v-20.09h4.75c.769 0 1.387.619 1.387 1.387v18.703h-6.147" fill="#1c1b15"/><path d="M389.687 186.352h-8.081a.223.223 0 0 1-.223-.223v-1.506c0-.123.1-.223.223-.223h8.081c.123 0 .223.1.223.223v1.506c0 .122-.1.223-.223.223zM389.687 189.847h-8.081a.223.223 0 0 1-.223-.223v-1.506c0-.123.1-.223.223-.223h8.081c.123 0 .223.1.223.223v1.506c0 .122-.1.223-.223.223zM389.687 193.342h-8.081a.223.223 0 0 1-.223-.223v-1.506c0-.123.1-.223.223-.223h8.081c.123 0 .223.1.223.223v1.506c0 .122-.1.223-.223.223zM389.687 196.742h-8.081a.223.223 0 0 1-.223-.223v-1.506c0-.123.1-.223.223-.223h8.081c.123 0 .223.1.223.223v1.506c0 .123-.1.223-.223.223zM389.687 200.143h-8.081a.223.223 0 0 1-.223-.223v-1.506c0-.123.1-.223.223-.223h8.081c.123 0 .223.1.223.223v1.506c0 .122-.1.223-.223.223z" fill="#333"/><text transform="translate(468.832 225.832)" fill="#c13234" font-family="ArialMT" font-size=".092">I don’t like bugs!</text><path fill="#25231d" d="M459.722 225.07h12.015v4.582h-12.015z"/><path fill="#fff" d="M471.365 227.367v-1.906h-4.266v3.811h4.266z"/><path d="M468.027 227.398v-1.566h1.587l.721.541v.757h-.606l.77.567.001.634.001.633h-.721l-.005-.613-.005-.613-1.041-.011v1.237h-.701l-.001-1.566zm1.566-.618v-.288h-.866v.577h.866v-.289z" fill="#25231d"/><g fill="#fff"><path d="M461.555 228.902v-.082l-.34-.012-.006-.211-.006-.211h.352v-.165h-.35v-.269l-.361.012-.006.129-.006.129h-.245v.165h.247v.221c0 .122.006.243.013.27.022.082.113.104.424.105l.283.001.001-.082zM462.73 228.603v-.381h-.371v.577h-.227v-.577h-.35v.337c0 .295.004.341.036.368.059.052.081.054.505.056l.407.002v-.382zM463.364 228.68l.006-.294h.349v-.165h-.232c-.281.001-.382.022-.443.092-.043.05-.046.072-.046.348 0 .162.007.301.015.309a.635.635 0 0 0 .18.009l.166-.006.005-.293zM464.763 228.927c.074-.06.093-.124.093-.316 0-.347-.044-.395-.379-.407l-.222-.008v-.244l-.361.012-.011.999h.418c.365 0 .423-.005.462-.036zm-.508-.334v-.206h.227v.412h-.227v-.206zM465.931 228.921c.065-.051.096-.154.096-.318 0-.17-.031-.266-.105-.328-.061-.051-.071-.053-.366-.053-.338 0-.376.012-.428.136-.035.083-.039.424-.006.489.055.107.088.116.433.117.294-.001.327-.004.376-.043zm-.481-.328v-.206h.227v.412h-.227v-.206z"/></g><path d="M461.231 227.336c.056-.187.108-.347.116-.356.008-.009.04.07.072.175l.108.362.052.171.396-.012.057-.175.117-.37.06-.195.124.37.124.37.667.005c.776.006.818 0 .985-.15.133-.12.179-.234.178-.442-.002-.238-.105-.427-.285-.52-.071-.037-.137-.046-.404-.059a3.003 3.003 0 0 1-.356-.029c-.05-.021-.048-.126.004-.154.025-.013.261-.021.623-.021h.584l.165.209c.091.115.163.217.16.226-.003.009-.14.213-.306.453-.165.24-.305.448-.311.464-.009.023.038.028.254.028h.265l.196-.258c.108-.142.201-.258.207-.258.006 0 .094.116.195.258l.184.258h.274c.15 0 .274-.004.274-.009s-.144-.214-.319-.466-.319-.47-.319-.486.13-.214.289-.44c.159-.226.289-.42.289-.432 0-.014-.097-.021-.267-.021h-.266l-.11.154-.166.237c-.031.046-.064.083-.072.083-.009 0-.075-.083-.147-.184-.217-.303-.096-.272-1.025-.265-.784.006-.803.007-.888.052-.169.09-.26.266-.259.5.001.192.029.299.108.408.101.139.15.154.536.168.355.013.433.031.433.103 0 .092-.062.103-.547.103h-.455l-.39-1.329-.433-.012-.101.33c-.056.182-.107.33-.114.33s-.038-.086-.07-.191l-.099-.33-.042-.14-.438.012-.068.247a57.056 57.056 0 0 0-.396 1.553c0 .018.061.023.231.019l.231-.006.095-.338z" fill="#fff"/><g><path d="M346.87 237.422H20.739c-5.008 0-9.105-4.097-9.105-9.105V104.39c0-5.008 4.097-9.105 9.105-9.105H346.87c5.008 0 9.105 4.097 9.105 9.105v123.927c0 5.008-4.097 9.105-9.105 9.105z" fill="#637080"/><path d="M197.304 118.426h-44.067a1.333 1.333 0 0 1-1.329-1.329v-7.205c0-.731.598-1.329 1.329-1.329h44.067c.731 0 1.329.598 1.329 1.329v7.205c0 .731-.598 1.329-1.329 1.329zM269.92 118.426h-67.443a1.333 1.333 0 0 1-1.329-1.329v-7.205c0-.731.598-1.329 1.329-1.329h67.443c.731 0 1.329.598 1.329 1.329v7.205c0 .731-.598 1.329-1.329 1.329zM148.433 118.426H35.412a1.333 1.333 0 0 1-1.329-1.329v-7.205c0-.731.598-1.329 1.329-1.329h113.02c.731 0 1.329.598 1.329 1.329v7.205a1.331 1.331 0 0 1-1.328 1.329zM276.5 127.172c0-.676-.523-1.221-1.175-1.221H32.009c-.652 0-1.176.544-1.175 1.221v64.882c0 .675.524 1.221 1.175 1.221h29.99v16.941c0 .677.524 1.221 1.175 1.221H275.325c.651 0 1.175-.545 1.175-1.221v.011-83.055zM342.958 169.63h-62.165a1.79 1.79 0 0 1-1.785-1.785V105.68a1.79 1.79 0 0 1 1.785-1.785h62.165a1.79 1.79 0 0 1 1.785 1.785v62.165a1.79 1.79 0 0 1-1.785 1.785z" fill="#221d1f"/><path d="M273.392 124.876H33.339a2.514 2.514 0 0 1-2.506-2.506v-17.75a2.514 2.514 0 0 1 2.506-2.506h240.053a2.514 2.514 0 0 1 2.506 2.506v17.75a2.514 2.514 0 0 1-2.506 2.506z" fill="none" stroke="#4f5962" stroke-width=".75" stroke-miterlimit="10"/><path d="M55.191 144.476h11.78c.644 0 1.16.519 1.16 1.161v11.78c0 .642-.517 1.16-1.16 1.16h-11.78c-.643 0-1.16-.519-1.16-1.16v-11.78a1.156 1.156 0 0 1 1.16-1.161zM71.504 144.476h11.78c.644 0 1.16.519 1.16 1.161v11.78c0 .642-.517 1.16-1.16 1.16h-11.78c-.643 0-1.16-.519-1.16-1.16v-11.78a1.156 1.156 0 0 1 1.16-1.161zM87.816 144.476h11.78c.644 0 1.16.519 1.16 1.161v11.78c0 .642-.517 1.16-1.16 1.16h-11.78c-.643 0-1.16-.519-1.16-1.16v-11.78c0-.644.517-1.161 1.16-1.161zM104.129 144.476h11.78c.644 0 1.16.519 1.16 1.161v11.78c0 .642-.517 1.16-1.16 1.16h-11.78c-.643 0-1.16-.519-1.16-1.16v-11.78c0-.644.517-1.161 1.16-1.161zM120.442 144.476h11.78c.644 0 1.16.519 1.16 1.161v11.78c0 .642-.517 1.16-1.16 1.16h-11.78c-.643 0-1.16-.519-1.16-1.16v-11.78a1.156 1.156 0 0 1 1.16-1.161zM136.755 144.476h11.78c.644 0 1.16.519 1.16 1.161v11.78c0 .642-.517 1.16-1.16 1.16h-11.78c-.643 0-1.16-.519-1.16-1.16v-11.78a1.156 1.156 0 0 1 1.16-1.161zM153.068 144.476h11.78c.644 0 1.16.519 1.16 1.161v11.78c0 .642-.517 1.16-1.16 1.16h-11.78c-.643 0-1.16-.519-1.16-1.16v-11.78a1.156 1.156 0 0 1 1.16-1.161zM169.381 144.476h11.78c.644 0 1.16.519 1.16 1.161v11.78c0 .642-.517 1.16-1.16 1.16h-11.78c-.643 0-1.16-.519-1.16-1.16v-11.78a1.156 1.156 0 0 1 1.16-1.161zM185.694 144.476h11.78c.644 0 1.16.519 1.16 1.161v11.78c0 .642-.517 1.16-1.16 1.16h-11.78c-.643 0-1.16-.519-1.16-1.16v-11.78a1.156 1.156 0 0 1 1.16-1.161zM202.007 144.476h11.78c.644 0 1.16.519 1.16 1.161v11.78c0 .642-.517 1.16-1.16 1.16h-11.78c-.643 0-1.16-.519-1.16-1.16v-11.78a1.156 1.156 0 0 1 1.16-1.161zM218.319 144.476h11.78c.644 0 1.16.519 1.16 1.161v11.78c0 .642-.517 1.16-1.16 1.16h-11.78c-.643 0-1.16-.519-1.16-1.16v-11.78c0-.644.517-1.161 1.16-1.161zM234.632 144.476h11.78c.644 0 1.16.519 1.16 1.161v11.78c0 .642-.517 1.16-1.16 1.16h-11.78c-.643 0-1.16-.519-1.16-1.16v-11.78c0-.644.517-1.161 1.16-1.161zM60.755 161.105h11.78c.644 0 1.16.519 1.16 1.161v11.78c0 .642-.517 1.16-1.16 1.16h-11.78c-.643 0-1.16-.519-1.16-1.16v-11.78a1.156 1.156 0 0 1 1.16-1.161zM77.068 161.105h11.78c.644 0 1.16.519 1.16 1.161v11.78c0 .642-.517 1.16-1.16 1.16h-11.78c-.643 0-1.16-.519-1.16-1.16v-11.78a1.156 1.156 0 0 1 1.16-1.161zM93.381 161.105h11.78c.644 0 1.16.519 1.16 1.161v11.78c0 .642-.517 1.16-1.16 1.16h-11.78c-.643 0-1.16-.519-1.16-1.16v-11.78a1.156 1.156 0 0 1 1.16-1.161zM109.693 161.105h11.78c.644 0 1.16.519 1.16 1.161v11.78c0 .642-.517 1.16-1.16 1.16h-11.78c-.643 0-1.16-.519-1.16-1.16v-11.78c0-.644.517-1.161 1.16-1.161zM126.006 161.105h11.78c.644 0 1.16.519 1.16 1.161v11.78c0 .642-.517 1.16-1.16 1.16h-11.78c-.643 0-1.16-.519-1.16-1.16v-11.78c0-.644.517-1.161 1.16-1.161zM142.319 161.105h11.78c.644 0 1.16.519 1.16 1.161v11.78c0 .642-.517 1.16-1.16 1.16h-11.78c-.643 0-1.16-.519-1.16-1.16v-11.78a1.156 1.156 0 0 1 1.16-1.161zM158.632 161.105h11.78c.644 0 1.16.519 1.16 1.161v11.78c0 .642-.517 1.16-1.16 1.16h-11.78c-.643 0-1.16-.519-1.16-1.16v-11.78a1.156 1.156 0 0 1 1.16-1.161zM174.945 161.105h11.78c.644 0 1.16.519 1.16 1.161v11.78c0 .642-.517 1.16-1.16 1.16h-11.78c-.643 0-1.16-.519-1.16-1.16v-11.78a1.156 1.156 0 0 1 1.16-1.161zM191.258 161.105h11.78c.644 0 1.16.519 1.16 1.161v11.78c0 .642-.517 1.16-1.16 1.16h-11.78c-.643 0-1.16-.519-1.16-1.16v-11.78a1.156 1.156 0 0 1 1.16-1.161zM207.571 161.105h11.78c.644 0 1.16.519 1.16 1.161v11.78c0 .642-.517 1.16-1.16 1.16h-11.78c-.643 0-1.16-.519-1.16-1.16v-11.78a1.156 1.156 0 0 1 1.16-1.161zM223.884 161.105h11.78c.644 0 1.16.519 1.16 1.161v11.78c0 .642-.517 1.16-1.16 1.16h-11.78c-.643 0-1.16-.519-1.16-1.16v-11.78a1.156 1.156 0 0 1 1.16-1.161zM240.196 161.105h11.78c.644 0 1.16.519 1.16 1.161v11.78c0 .642-.517 1.16-1.16 1.16h-11.78c-.643 0-1.16-.519-1.16-1.16v-11.78c0-.644.517-1.161 1.16-1.161zM66.161 177.734h11.78c.644 0 1.16.519 1.16 1.161v11.78c0 .642-.517 1.16-1.16 1.16h-11.78c-.643 0-1.16-.519-1.16-1.16v-11.78a1.156 1.156 0 0 1 1.16-1.161zM82.474 177.734h11.78c.644 0 1.16.519 1.16 1.161v11.78c0 .642-.517 1.16-1.16 1.16h-11.78c-.643 0-1.16-.519-1.16-1.16v-11.78a1.156 1.156 0 0 1 1.16-1.161zM98.786 177.734h11.78c.644 0 1.16.519 1.16 1.161v11.78c0 .642-.517 1.16-1.16 1.16h-11.78c-.643 0-1.16-.519-1.16-1.16v-11.78c0-.644.517-1.161 1.16-1.161zM115.099 177.734h11.78c.644 0 1.16.519 1.16 1.161v11.78c0 .642-.517 1.16-1.16 1.16h-11.78c-.643 0-1.16-.519-1.16-1.16v-11.78c0-.644.517-1.161 1.16-1.161zM131.412 177.734h11.78c.644 0 1.16.519 1.16 1.161v11.78c0 .642-.517 1.16-1.16 1.16h-11.78c-.643 0-1.16-.519-1.16-1.16v-11.78a1.156 1.156 0 0 1 1.16-1.161zM147.725 177.734h11.78c.644 0 1.16.519 1.16 1.161v11.78c0 .642-.517 1.16-1.16 1.16h-11.78c-.643 0-1.16-.519-1.16-1.16v-11.78a1.156 1.156 0 0 1 1.16-1.161zM164.038 177.734h11.78c.644 0 1.16.519 1.16 1.161v11.78c0 .642-.517 1.16-1.16 1.16h-11.78c-.643 0-1.16-.519-1.16-1.16v-11.78a1.156 1.156 0 0 1 1.16-1.161zM180.351 177.734h11.78c.644 0 1.16.519 1.16 1.161v11.78c0 .642-.517 1.16-1.16 1.16h-11.78c-.643 0-1.16-.519-1.16-1.16v-11.78a1.156 1.156 0 0 1 1.16-1.161zM196.664 177.734h11.78c.644 0 1.16.519 1.16 1.161v11.78c0 .642-.517 1.16-1.16 1.16h-11.78c-.643 0-1.16-.519-1.16-1.16v-11.78a1.156 1.156 0 0 1 1.16-1.161zM212.977 177.734h11.78c.644 0 1.16.519 1.16 1.161v11.78c0 .642-.517 1.16-1.16 1.16h-11.78c-.643 0-1.16-.519-1.16-1.16v-11.78a1.156 1.156 0 0 1 1.16-1.161zM229.289 177.734h11.78c.644 0 1.16.519 1.16 1.161v11.78c0 .642-.517 1.16-1.16 1.16h-11.78c-.643 0-1.16-.519-1.16-1.16v-11.78c0-.644.517-1.161 1.16-1.161zM50.006 127.847h11.78c.644 0 1.16.519 1.16 1.161v11.78c0 .642-.517 1.16-1.16 1.16h-11.78c-.643 0-1.16-.519-1.16-1.16v-11.78a1.156 1.156 0 0 1 1.16-1.161zM66.319 127.847h11.78c.644 0 1.16.519 1.16 1.161v11.78c0 .642-.517 1.16-1.16 1.16h-11.78c-.643 0-1.16-.519-1.16-1.16v-11.78a1.156 1.156 0 0 1 1.16-1.161zM82.632 127.847h11.78c.644 0 1.16.519 1.16 1.161v11.78c0 .642-.517 1.16-1.16 1.16h-11.78c-.643 0-1.16-.519-1.16-1.16v-11.78a1.156 1.156 0 0 1 1.16-1.161zM98.945 127.847h11.78c.644 0 1.16.519 1.16 1.161v11.78c0 .642-.517 1.16-1.16 1.16h-11.78c-.643 0-1.16-.519-1.16-1.16v-11.78a1.156 1.156 0 0 1 1.16-1.161zM115.258 127.847h11.78c.644 0 1.16.519 1.16 1.161v11.78c0 .642-.517 1.16-1.16 1.16h-11.78c-.643 0-1.16-.519-1.16-1.16v-11.78a1.156 1.156 0 0 1 1.16-1.161zM131.57 127.847h11.78c.644 0 1.16.519 1.16 1.161v11.78c0 .642-.517 1.16-1.16 1.16h-11.78c-.643 0-1.16-.519-1.16-1.16v-11.78c0-.644.517-1.161 1.16-1.161zM147.883 127.847h11.78c.644 0 1.16.519 1.16 1.161v11.78c0 .642-.517 1.16-1.16 1.16h-11.78c-.643 0-1.16-.519-1.16-1.16v-11.78a1.157 1.157 0 0 1 1.16-1.161zM164.196 127.847h11.78c.644 0 1.16.519 1.16 1.161v11.78c0 .642-.517 1.16-1.16 1.16h-11.78c-.643 0-1.16-.519-1.16-1.16v-11.78a1.156 1.156 0 0 1 1.16-1.161zM180.509 127.847h11.78c.644 0 1.16.519 1.16 1.161v11.78c0 .642-.517 1.16-1.16 1.16h-11.78c-.643 0-1.16-.519-1.16-1.16v-11.78a1.156 1.156 0 0 1 1.16-1.161zM196.822 127.847h11.78c.644 0 1.16.519 1.16 1.161v11.78c0 .642-.517 1.16-1.16 1.16h-11.78c-.643 0-1.16-.519-1.16-1.16v-11.78a1.156 1.156 0 0 1 1.16-1.161zM213.135 127.847h11.78c.644 0 1.16.519 1.16 1.161v11.78c0 .642-.517 1.16-1.16 1.16h-11.78c-.643 0-1.16-.519-1.16-1.16v-11.78a1.156 1.156 0 0 1 1.16-1.161zM229.448 127.847h11.78c.644 0 1.16.519 1.16 1.161v11.78c0 .642-.517 1.16-1.16 1.16h-11.78c-.643 0-1.16-.519-1.16-1.16v-11.78a1.156 1.156 0 0 1 1.16-1.161zM245.761 127.847h11.78c.644 0 1.16.519 1.16 1.161v11.78c0 .642-.517 1.16-1.16 1.16h-11.78c-.643 0-1.16-.519-1.16-1.16v-11.78a1.156 1.156 0 0 1 1.16-1.161z" fill="#c6d1d5"/><path d="M274.001 194.995c.562 0 1.012.519 1.012 1.161v11.78c0 .642-.451 1.16-1.012 1.16h-23.203c-.561 0-1.012-.519-1.012-1.16v-11.78c-.001-.644.451-1.161 1.012-1.161h23.203z" fill="#6d7a8a"/><path d="M177.732 117.31c-.643 0-1.16-.519-1.16-1.16v-5.31a1.156 1.156 0 0 1 1.16-1.161h18.44c.644 0 1.16.519 1.16 1.161v5.31c0 .642-.517 1.16-1.16 1.16h-18.44z" fill="#5d5d5d"/><path d="M273.888 177.734c.624 0 1.125.519 1.125 1.161v11.78c0 .642-.501 1.16-1.125 1.16h-25.772c-.623 0-1.125-.519-1.125-1.16v-11.78c-.001-.644.501-1.161 1.125-1.161h25.772zM33.693 127.847h11.78c.644 0 1.16.519 1.16 1.161v11.78c0 .642-.517 1.16-1.16 1.16h-11.78c-.643 0-1.16-.519-1.16-1.16v-11.78a1.156 1.156 0 0 1 1.16-1.161zM262.073 127.847h11.78c.644 0 1.16.519 1.16 1.161v11.78c0 .642-.517 1.16-1.16 1.16h-11.78c-.643 0-1.16-.519-1.16-1.16v-11.78c0-.644.517-1.161 1.16-1.161zM56.384 161.105c.553 0 .997.519.997 1.161v11.78c0 .642-.444 1.16-.997 1.16H33.53c-.553 0-.997-.519-.997-1.16v-11.78c-.001-.644.444-1.161.997-1.161h22.854zM64.454 194.995h11.78c.644 0 1.16.519 1.16 1.161v11.78c0 .642-.517 1.16-1.16 1.16h-11.78c-.643 0-1.16-.519-1.16-1.16v-11.78a1.156 1.156 0 0 1 1.16-1.161zM80.767 194.995h11.78c.644 0 1.16.519 1.16 1.161v11.78c0 .642-.517 1.16-1.16 1.16h-11.78c-.643 0-1.16-.519-1.16-1.16v-11.78a1.156 1.156 0 0 1 1.16-1.161zM97.08 194.995h11.78c.644 0 1.16.519 1.16 1.161v11.78c0 .642-.517 1.16-1.16 1.16H97.08c-.643 0-1.16-.519-1.16-1.16v-11.78a1.156 1.156 0 0 1 1.16-1.161zM230.063 194.995c.664 0 1.196.519 1.196 1.161v11.78c0 .642-.533 1.16-1.196 1.16h-27.421c-.663 0-1.196-.519-1.196-1.16v-11.78c-.001-.644.533-1.161 1.196-1.161h27.421zM234.632 194.995h11.78c.644 0 1.16.519 1.16 1.161v11.78c0 .642-.517 1.16-1.16 1.16h-11.78c-.643 0-1.16-.519-1.16-1.16v-11.78c0-.644.517-1.161 1.16-1.161zM61.263 177.734c.543 0 .978.519.978 1.161v11.78c0 .642-.436 1.16-.978 1.16H33.511c-.542 0-.978-.519-.978-1.16v-11.78c-.001-.644.435-1.161.978-1.161h27.752zM50.811 158.576c.534 0 .963-.518.963-1.16v-11.78c0-.642-.429-1.161-.963-1.161H33.496c-.535 0-.964.517-.963 1.161v11.78c0 .642.429 1.16.963 1.16h17.315zM112.886 194.869h85.167c.644 0 1.16.519 1.16 1.161v11.78c0 .642-.517 1.16-1.16 1.16v.126h-85.167c-.643 0-1.16-.519-1.16-1.16v-11.78a1.156 1.156 0 0 1 1.16-1.161M254.769 158.576h-3.824c-.643 0-1.16-.519-1.16-1.16v-11.78a1.156 1.156 0 0 1 1.16-1.161h22.908c.644 0 1.16.519 1.16 1.161v28.409c0 .642-.517 1.16-1.16 1.16h-16.764c-.642 0-1.16-.517-1.16-1.16v-14.239c0-.642-.517-1.23-1.16-1.23zM281.421 121.335h11.78c.644 0 1.16.519 1.16 1.161v11.78c0 .642-.517 1.16-1.16 1.16h-11.78c-.643 0-1.16-.519-1.16-1.16v-11.78a1.157 1.157 0 0 1 1.16-1.161zM297.734 121.335h11.78c.644 0 1.16.519 1.16 1.161v11.78c0 .642-.517 1.16-1.16 1.16h-11.78c-.643 0-1.16-.519-1.16-1.16v-11.78a1.156 1.156 0 0 1 1.16-1.161zM314.047 121.335h11.78c.644 0 1.16.519 1.16 1.161v11.78c0 .642-.517 1.16-1.16 1.16h-11.78c-.643 0-1.16-.519-1.16-1.16v-11.78a1.156 1.156 0 0 1 1.16-1.161zM330.36 121.335h11.78c.644 0 1.16.519 1.16 1.161v11.78c0 .642-.517 1.16-1.16 1.16h-11.78c-.643 0-1.16-.519-1.16-1.16v-11.78a1.156 1.156 0 0 1 1.16-1.161zM281.421 104.706h11.78c.644 0 1.16.519 1.16 1.161v11.78c0 .642-.517 1.16-1.16 1.16h-11.78c-.643 0-1.16-.519-1.16-1.16v-11.78a1.157 1.157 0 0 1 1.16-1.161zM297.734 104.706h11.78c.644 0 1.16.519 1.16 1.161v11.78c0 .642-.517 1.16-1.16 1.16h-11.78c-.643 0-1.16-.519-1.16-1.16v-11.78a1.156 1.156 0 0 1 1.16-1.161zM314.047 104.706h11.78c.644 0 1.16.519 1.16 1.161v11.78c0 .642-.517 1.16-1.16 1.16h-11.78c-.643 0-1.16-.519-1.16-1.16v-11.78a1.156 1.156 0 0 1 1.16-1.161zM330.36 104.706h11.78c.644 0 1.16.519 1.16 1.161v11.78c0 .642-.517 1.16-1.16 1.16h-11.78c-.643 0-1.16-.519-1.16-1.16v-11.78a1.156 1.156 0 0 1 1.16-1.161zM281.421 154.593h11.78c.644 0 1.16.519 1.16 1.161v11.78c0 .642-.517 1.16-1.16 1.16h-11.78c-.643 0-1.16-.519-1.16-1.16v-11.78a1.157 1.157 0 0 1 1.16-1.161zM297.734 154.593h11.78c.644 0 1.16.519 1.16 1.161v11.78c0 .642-.517 1.16-1.16 1.16h-11.78c-.643 0-1.16-.519-1.16-1.16v-11.78a1.156 1.156 0 0 1 1.16-1.161zM314.047 154.593h11.78c.644 0 1.16.519 1.16 1.161v11.78c0 .642-.517 1.16-1.16 1.16h-11.78c-.643 0-1.16-.519-1.16-1.16v-11.78a1.156 1.156 0 0 1 1.16-1.161zM330.36 154.593h11.78c.644 0 1.16.519 1.16 1.161v11.78c0 .642-.517 1.16-1.16 1.16h-11.78c-.643 0-1.16-.519-1.16-1.16v-11.78a1.156 1.156 0 0 1 1.16-1.161zM281.421 137.964h11.78c.644 0 1.16.519 1.16 1.161v11.78c0 .642-.517 1.16-1.16 1.16h-11.78c-.643 0-1.16-.519-1.16-1.16v-11.78a1.157 1.157 0 0 1 1.16-1.161zM297.734 137.964h11.78c.644 0 1.16.519 1.16 1.161v11.78c0 .642-.517 1.16-1.16 1.16h-11.78c-.643 0-1.16-.519-1.16-1.16v-11.78a1.156 1.156 0 0 1 1.16-1.161zM314.047 137.964h11.78c.644 0 1.16.519 1.16 1.161v11.78c0 .642-.517 1.16-1.16 1.16h-11.78c-.643 0-1.16-.519-1.16-1.16v-11.78a1.156 1.156 0 0 1 1.16-1.161zM330.36 137.964h11.78c.644 0 1.16.519 1.16 1.161v11.78c0 .642-.517 1.16-1.16 1.16h-11.78c-.643 0-1.16-.519-1.16-1.16v-11.78a1.156 1.156 0 0 1 1.16-1.161zM36.928 117.31c-.643 0-1.16-.519-1.16-1.16v-5.31a1.156 1.156 0 0 1 1.16-1.161h18.44c.644 0 1.16.519 1.16 1.161v5.31c0 .642-.517 1.16-1.16 1.16h-18.44zM59.658 117.31c-.643 0-1.16-.519-1.16-1.16v-5.31a1.156 1.156 0 0 1 1.16-1.161h18.44c.644 0 1.16.519 1.16 1.161v5.31c0 .642-.517 1.16-1.16 1.16h-18.44zM82.384 117.31c-.643 0-1.16-.519-1.16-1.16v-5.31a1.156 1.156 0 0 1 1.16-1.161h18.44c.644 0 1.16.519 1.16 1.161v5.31c0 .642-.517 1.16-1.16 1.16h-18.44zM105.115 117.31c-.643 0-1.16-.519-1.16-1.16v-5.31a1.156 1.156 0 0 1 1.16-1.161h18.44c.644 0 1.16.519 1.16 1.161v5.31c0 .642-.517 1.16-1.16 1.16h-18.44zM128.477 117.31c-.643 0-1.16-.519-1.16-1.16v-5.31a1.156 1.156 0 0 1 1.16-1.161h18.44c.644 0 1.16.519 1.16 1.161v5.31c0 .642-.517 1.16-1.16 1.16h-18.44zM154.369 117.31c-.643 0-1.16-.519-1.16-1.16v-5.31a1.156 1.156 0 0 1 1.16-1.161h18.44c.644 0 1.16.519 1.16 1.161v5.31c0 .642-.517 1.16-1.16 1.16h-18.44zM203.624 117.31c-.643 0-1.16-.519-1.16-1.16v-5.31a1.156 1.156 0 0 1 1.16-1.161h18.44c.644 0 1.16.519 1.16 1.161v5.31c0 .642-.517 1.16-1.16 1.16h-18.44zM226.355 117.31c-.643 0-1.16-.519-1.16-1.16v-5.31a1.156 1.156 0 0 1 1.16-1.161h18.44c.644 0 1.16.519 1.16 1.161v5.31c0 .642-.517 1.16-1.16 1.16h-18.44zM249.717 117.31c-.643 0-1.16-.519-1.16-1.16v-5.31a1.156 1.156 0 0 1 1.16-1.161h18.44c.644 0 1.16.519 1.16 1.161v5.31c0 .642-.517 1.16-1.16 1.16h-18.44zM177.732 117.31c-.643 0-1.16-.519-1.16-1.16v-5.31a1.156 1.156 0 0 1 1.16-1.161h18.44c.644 0 1.16.519 1.16 1.161v5.31c0 .642-.517 1.16-1.16 1.16h-18.44z" fill="#8c979d"/><path fill="none" stroke="#fff" stroke-width=".759" stroke-miterlimit="10" d="M311.404 202.852h7.459"/><path d="M342.958 210.107h-60.912a1.79 1.79 0 0 1-1.785-1.785v-19.413a1.79 1.79 0 0 1 1.785-1.785h60.912a1.79 1.79 0 0 1 1.785 1.785v19.413a1.79 1.79 0 0 1-1.785 1.785z" fill="#221d1f"/><path d="M322.259 217.505h-19.798a1.79 1.79 0 0 1-1.785-1.785v-34.556a1.79 1.79 0 0 1 1.785-1.785h19.798a1.79 1.79 0 0 1 1.785 1.785v34.556a1.79 1.79 0 0 1-1.785 1.785z" fill="#221d1f"/><g><path d="M298.381 209.24h-16.193a1.04 1.04 0 0 1-1.037-1.037v-19.158a1.04 1.04 0 0 1 1.037-1.037h16.193a1.04 1.04 0 0 1 1.037 1.037v19.158a1.04 1.04 0 0 1-1.037 1.037z" fill="#878c91"/><path fill="none" stroke="#fff" stroke-width=".759" stroke-miterlimit="10" d="M290.089 193.572l-5.051 5.051 5.051 5.051"/><path d="M308.731 198.623h-18.624c0-4.945 4.169-8.953 9.312-8.953l9.312 8.953z" fill="#989da3"/><path d="M308.731 198.623h-18.624c0 4.945 4.169 8.953 9.312 8.953l9.312-8.953z" fill="#a2a6aa"/><g><path d="M326.428 209.24h16.193a1.04 1.04 0 0 0 1.037-1.037v-19.158a1.04 1.04 0 0 0-1.037-1.037h-16.193a1.04 1.04 0 0 0-1.037 1.037v19.158a1.04 1.04 0 0 0 1.037 1.037z" fill="#878c91"/><path fill="none" stroke="#fff" stroke-width=".759" stroke-miterlimit="10" d="M334.72 193.572l5.05 5.051-5.05 5.051"/><path d="M316.078 198.623h18.624c0-4.945-4.169-8.953-9.312-8.953l-9.312 8.953z" fill="#989da3"/><path d="M316.078 198.623h18.624c0 4.945-4.169 8.953-9.312 8.953l-9.312-8.953z" fill="#a2a6aa"/></g><g><path d="M323.269 190.432h-21.787v-8.75c0-.71.581-1.291 1.291-1.291h19.263c.71 0 1.291.581 1.291 1.291v8.692a.059.059 0 0 1-.058.058z" fill="#878c91"/><path fill="none" stroke="#fff" stroke-width=".759" stroke-miterlimit="10" d="M317.455 187.936l-5.051-5.051-5.05 5.051"/><path fill="#989da3" d="M323.27 190.432l-8.275 7.445h-5.36l-8.153-7.445z"/></g><g><path d="M301.54 206.784h21.787v8.75c0 .71-.581 1.291-1.291 1.291h-19.263c-.71 0-1.291-.581-1.291-1.291v-8.692c0-.032.026-.058.058-.058z" fill="#878c91"/><path fill="none" stroke="#fff" stroke-width=".759" stroke-miterlimit="10" d="M307.354 209.279l5.05 5.051 5.051-5.051"/><path fill="#94979b" d="M301.539 206.784l8.275-7.446h5.36l8.153 7.446z"/></g></g><path fill="#637080" d="M183.79 2.213h159.823l5.23 43.754H18.712l5.229-43.754h159.823"/><path d="M153.689 40.106h-11.675a1.55 1.55 0 0 1-1.546-1.546v-2.428c0-.85.696-1.546 1.546-1.546h11.675c.85 0 1.546.696 1.546 1.546v2.428a1.55 1.55 0 0 1-1.546 1.546z" fill="#4f5966" stroke="#131314" stroke-width=".759" stroke-miterlimit="10"/><path fill="#131314" d="M99.989 14.226h95.726v3.794H99.989z"/><path d="M195.383 34.586H100.32a2.768 2.768 0 0 1-2.76-2.76V15.564a2.768 2.768 0 0 1 2.76-2.76h95.062a2.768 2.768 0 0 1 2.76 2.76v16.262a2.767 2.767 0 0 1-2.759 2.76z" fill="none" stroke="#1d1d1e" stroke-width=".759" stroke-miterlimit="10"/><g><path fill="#131314" d="M29.848 2.213H183.79v10.591H29.848z"/><path d="M42.55 12.804h-9.283a.713.713 0 0 1-.711-.711V.711a.712.712 0 0 1 .71-.711h9.283c.391 0 .711.32.711.711v11.381a.712.712 0 0 1-.71.712zM55.862 12.804H49.14a.713.713 0 0 1-.711-.711V.711c0-.391.32-.711.711-.711h6.721c.391 0 .711.32.711.711v11.381a.712.712 0 0 1-.71.712zM68.989 12.804h-6.721a.713.713 0 0 1-.711-.711V.711c0-.391.32-.711.711-.711h6.721c.391 0 .711.32.711.711v11.381a.712.712 0 0 1-.711.712zM82.117 12.804h-6.721a.713.713 0 0 1-.711-.711V.711A.712.712 0 0 1 75.396 0h6.721c.391 0 .711.32.711.711v11.381c0 .392-.32.712-.711.712zM95.245 12.804h-6.721a.713.713 0 0 1-.711-.711V.711a.712.712 0 0 1 .71-.711h6.721c.391 0 .711.32.711.711v11.381a.712.712 0 0 1-.71.712zM108.372 12.804h-6.721a.713.713 0 0 1-.711-.711V.711c0-.391.32-.711.711-.711h6.721c.391 0 .711.32.711.711v11.381a.713.713 0 0 1-.711.712zM121.5 12.804h-6.721a.713.713 0 0 1-.711-.711V.711c0-.391.32-.711.711-.711h6.721c.391 0 .711.32.711.711v11.381c0 .392-.32.712-.711.712zM134.627 12.804h-6.721a.713.713 0 0 1-.711-.711V.711c0-.391.32-.711.711-.711h6.721c.391 0 .711.32.711.711v11.381a.712.712 0 0 1-.711.712zM147.755 12.804h-6.721a.713.713 0 0 1-.711-.711V.711c0-.391.32-.711.711-.711h6.721c.391 0 .711.32.711.711v11.381c0 .392-.32.712-.711.712zM160.883 12.804h-6.721a.713.713 0 0 1-.711-.711V.711c0-.391.32-.711.711-.711h6.721c.391 0 .711.32.711.711v11.381c0 .392-.32.712-.711.712zM174.01 12.804h-6.721a.713.713 0 0 1-.711-.711V.711c0-.391.32-.711.711-.711h6.721c.391 0 .711.32.711.711v11.381a.712.712 0 0 1-.711.712z" fill="#637080"/><path fill="#131314" d="M337.707 12.804H183.765V2.213h153.942z"/><path d="M325.005 12.804h9.283c.391 0 .711-.32.711-.711V.711a.713.713 0 0 0-.711-.711h-9.283a.713.713 0 0 0-.711.711v11.381c0 .392.32.712.711.712zM311.693 12.804h6.721c.391 0 .711-.32.711-.711V.711a.713.713 0 0 0-.711-.711h-6.721a.713.713 0 0 0-.711.711v11.381a.712.712 0 0 0 .711.712zM298.565 12.804h6.721c.391 0 .711-.32.711-.711V.711a.713.713 0 0 0-.711-.711h-6.721a.713.713 0 0 0-.711.711v11.381c0 .392.32.712.711.712zM285.437 12.804h6.721c.391 0 .711-.32.711-.711V.711a.713.713 0 0 0-.711-.711h-6.721a.713.713 0 0 0-.711.711v11.381c0 .392.32.712.711.712zM272.31 12.804h6.721c.391 0 .711-.32.711-.711V.711a.713.713 0 0 0-.711-.711h-6.721a.713.713 0 0 0-.711.711v11.381c0 .392.32.712.711.712zM259.182 12.804h6.721c.391 0 .711-.32.711-.711V.711a.713.713 0 0 0-.711-.711h-6.721a.713.713 0 0 0-.711.711v11.381c0 .392.32.712.711.712zM246.055 12.804h6.721c.391 0 .711-.32.711-.711V.711a.713.713 0 0 0-.711-.711h-6.721a.713.713 0 0 0-.711.711v11.381a.712.712 0 0 0 .711.712zM232.927 12.804h6.721c.391 0 .711-.32.711-.711V.711a.713.713 0 0 0-.711-.711h-6.721a.713.713 0 0 0-.711.711v11.381c0 .392.32.712.711.712zM219.799 12.804h6.721c.391 0 .711-.32.711-.711V.711A.713.713 0 0 0 226.52 0h-6.721a.713.713 0 0 0-.711.711v11.381c0 .392.32.712.711.712zM206.672 12.804h6.721c.391 0 .711-.32.711-.711V.711a.713.713 0 0 0-.711-.711h-6.721a.713.713 0 0 0-.711.711v11.381a.713.713 0 0 0 .711.712zM193.544 12.804h6.721c.391 0 .711-.32.711-.711V.711a.713.713 0 0 0-.711-.711h-6.721a.713.713 0 0 0-.711.711v11.381c0 .392.32.712.711.712zM187.138 12.804h-6.721a.713.713 0 0 1-.711-.711V.711c0-.391.32-.711.711-.711h6.721c.391 0 .711.32.711.711v11.381c0 .392-.32.712-.711.712z" fill="#637080"/></g><path fill="none" stroke="#4f5962" stroke-width=".75" stroke-miterlimit="10" d="M28.002 16.123h67.954M334.999 16.123H200.977"/><path fill="#637080" d="M29.848 0h-5.646l-.132 1.106-.133 1.107h5.911zM337.706 0h5.646l.133 1.106.132 1.107h-5.911z"/><path fill="#28292b" d="M16.755 70.247h334.044v18.905H16.755z"/><path fill="#697986" d="M16.755 45.967h334.044v24.28H16.755z"/><path fill="#30343d" d="M16.755 51.784h334.044V64.43H16.755z"/><path d="M6.955 89.152L0 76.756c.448-2.306 3.618-4.291 7.201-5.031l9.554-1.479v18.905h-9.8z" fill="#28292b"/><path d="M16.755 64.43V51.785L8.15 53.363c-3.227.79-6.082 2.909-6.486 5.372v.044l-.616 5.761-.763 6.84c.463-2.462 2.896-4.582 6.598-5.372l9.872-1.578z" fill="#30343d"/><path d="M1.665 58.735l1.005-6.258c.377-2.306 3.042-4.291 6.054-5.031l8.032-1.479v5.817L8.15 53.363c-3.227.79-6.082 2.909-6.485 5.372zM0 76.756l.285-5.376c.463-2.462 2.896-4.582 6.598-5.372l9.873-1.579v5.817l-9.554 1.479C3.618 72.465.448 74.45 0 76.756l.142.253" fill="#697986"/><path fill="#9a9b9a" stroke="#221d1f" stroke-width=".824" stroke-miterlimit="10" d="M183.804 76.064h4.805v9.611h-4.805z"/><path fill="none" stroke="#131314" stroke-width=".793" stroke-miterlimit="10" d="M191.584 89.152H78.494L74.42 72.649h117.164z"/><path fill="#494949" d="M127.892 80.142h2.023v5.532h-2.023zM130.595 80.142h2.023v5.532h-2.023zM133.298 80.142h2.023v5.532h-2.023zM136.001 80.142h2.023v5.532h-2.023zM138.704 80.142h2.023v5.532h-2.023z"/><path fill="none" stroke="#131314" stroke-width=".759" stroke-miterlimit="10" d="M127.892 82.908h12.836"/><path fill="#494949" d="M164.931 80.142h2.023v5.532h-2.023zM167.634 80.142h2.023v5.532h-2.023zM170.337 80.142h2.023v5.532h-2.023z"/><path fill="none" stroke="#131314" stroke-width=".759" stroke-miterlimit="10" d="M164.931 82.908h7.429M89.405 80.142h65.378v5.532H89.405z"/><path d="M117.242 77.436h-.192a1.045 1.045 0 0 1-1.042-1.042c0-.573.469-1.042 1.042-1.042h.192c.573 0 1.042.469 1.042 1.042 0 .573-.469 1.042-1.042 1.042zM120.182 77.436h-.192a1.045 1.045 0 0 1-1.042-1.042c0-.573.469-1.042 1.042-1.042h.192c.573 0 1.042.469 1.042 1.042 0 .573-.469 1.042-1.042 1.042zM123.122 77.436h-.192a1.045 1.045 0 0 1-1.042-1.042c0-.573.469-1.042 1.042-1.042h.192c.573 0 1.042.469 1.042 1.042 0 .573-.468 1.042-1.042 1.042zM126.063 77.436h-.192a1.045 1.045 0 0 1-1.042-1.042c0-.573.469-1.042 1.042-1.042h.192c.573 0 1.042.469 1.042 1.042 0 .573-.469 1.042-1.042 1.042z" fill="#937048"/><path d="M360.599 89.144l6.955-12.396c-.448-2.306-3.618-4.291-7.201-5.031l-9.555-1.479v18.905h9.801z" fill="#28292b"/><path d="M350.799 64.422V51.776l8.605 1.579c3.227.79 6.082 2.909 6.486 5.372v.044l.617 5.761.763 6.84c-.463-2.462-2.896-4.582-6.598-5.372l-9.873-1.578z" fill="#30343d"/><path d="M365.89 58.727l-1.005-6.258c-.377-2.306-3.042-4.291-6.054-5.031l-8.032-1.479v5.817l8.605 1.579c3.227.79 6.082 2.91 6.486 5.372zM367.554 76.748l-.285-5.376c-.463-2.462-2.896-4.582-6.598-5.372l-9.873-1.579v5.817l9.555 1.479c3.583.74 6.754 2.725 7.201 5.031l-.142.253" fill="#697986"/><path fill="#181718" d="M140.583 80.142h14.199v5.532h-14.199z"/><path d="M346.887 95.285H20.662c-3.282.028-6.164 1.815-7.745 4.459l-.004-.002-5.942-10.59h-.016H360.6v-.008l-5.94 10.559.006-.004c-1.599-2.64-4.5-4.414-7.795-4.414" fill="#6f7e8c"/><g><text transform="translate(239.494 26.705)" fill="#c13234" font-family="ArialMT" font-size=".135">I don’t like bugs!</text><path fill="#25231d" d="M226.156 25.589h17.59v6.708h-17.59z"/><path fill="#637080" d="M243.202 28.951v-2.79h-6.246v5.58h6.246z"/><path d="M238.314 28.996v-2.292h2.324l1.055.792v1.109h-.887l1.127.829.001.927.001.927h-1.055l-.008-.897-.008-.897-1.524-.016v1.811h-1.026v-2.293zm2.293-.904v-.422h-1.267v.844h1.267v-.422z" fill="#25231d"/><g fill="#637080"><path d="M228.84 31.199v-.119l-.498-.018-.009-.309-.009-.309h.515v-.241h-.513v-.394l-.528.017-.009.189-.009.189h-.359v.241h.362v.324c0 .178.009.356.019.395.032.12.165.153.621.154l.415.001.002-.12zM230.56 30.761v-.558h-.543v.844h-.332v-.844h-.513v.493c0 .432.007.499.053.539.087.076.119.079.739.082l.596.002v-.558zM231.489 30.874l.008-.43h.511v-.241l-.339.001c-.412.001-.559.032-.649.135-.064.074-.068.106-.068.509 0 .237.01.44.021.452.012.012.13.017.264.013l.243-.009.009-.43zM233.536 31.235c.109-.088.136-.181.136-.462 0-.509-.064-.578-.555-.595l-.324-.012v-.358l-.528.017-.016 1.463.612-.001c.533 0 .619-.007.675-.052zm-.743-.489v-.302h.332v.603h-.332v-.301zM235.247 31.227c.095-.075.141-.225.141-.466 0-.248-.045-.389-.154-.481-.09-.075-.103-.077-.535-.077-.495 0-.55.018-.626.199-.051.122-.057.621-.008.715.08.157.129.17.634.171.428 0 .476-.005.548-.061zm-.704-.481v-.302h.332v.603h-.332v-.301z"/></g><path d="M228.366 28.906c.081-.274.158-.508.17-.521.012-.013.059.103.105.256l.159.529.076.25.579-.017.084-.256c.046-.141.123-.385.171-.542l.087-.286.181.542.181.542.976.008c1.136.009 1.197 0 1.442-.22.195-.176.263-.343.26-.648-.003-.348-.154-.625-.417-.761-.104-.054-.201-.068-.592-.086a4.319 4.319 0 0 1-.52-.043c-.074-.03-.07-.185.006-.225.036-.019.381-.031.913-.031h.854l.241.306c.133.168.238.317.234.331-.004.014-.205.312-.447.663-.242.351-.447.656-.456.679-.013.034.055.041.372.041h.388l.286-.377c.157-.207.294-.377.303-.377s.138.17.286.377l.269.377h.4c.22 0 .4-.006.4-.013 0-.007-.21-.314-.468-.682-.257-.368-.468-.689-.468-.712 0-.024.19-.313.422-.644.232-.331.422-.615.422-.632 0-.02-.142-.031-.39-.031h-.39l-.16.225c-.088.124-.198.28-.243.347-.045.067-.093.121-.106.121-.013 0-.109-.122-.215-.269-.317-.443-.141-.398-1.501-.387-1.148.009-1.176.011-1.299.077-.248.132-.381.389-.38.732.001.281.043.438.158.597.147.203.219.226.785.246.519.018.634.046.634.151 0 .134-.09.151-.801.151h-.667l-.571-1.945-.634-.017-.148.484c-.081.266-.156.484-.167.484s-.056-.126-.102-.279a80.364 80.364 0 0 1-.144-.484l-.062-.205-.641.017-.1.362c-.147.536-.58 2.231-.58 2.273 0 .027.089.034.338.028l.338-.009.149-.497z" fill="#637080"/></g><path d="M267.25 206.077h-9.702a3.827 3.827 0 0 1-3.816-3.816v-.431a3.827 3.827 0 0 1 3.816-3.816h9.702a3.827 3.827 0 0 1 3.816 3.816v.431a3.827 3.827 0 0 1-3.816 3.816z" fill="#93a1aa" stroke="#303030" stroke-width=".239" stroke-miterlimit="10"/><ellipse cx="80.729" cy="76.968" rx="1.771" ry="1.616" fill="#202021"/><path fill="none" stroke="#000" stroke-width=".255" stroke-miterlimit="10" d="M346.744 68.297l.237 1.95-1.08 18.897M332.888 68.297l.236 1.95-1.08 18.897M319.031 68.297l.236 1.95-1.08 18.897M305.174 68.297l.236 1.95-1.08 18.897M291.317 68.297l.237 1.95-1.08 18.897M277.461 68.297l.236 1.95-1.08 18.897M263.604 68.297l.236 1.95-1.08 18.897M249.747 68.297l.237 1.95-1.08 18.897M235.89 68.297l.237 1.95-1.08 18.897M222.034 68.297l.236 1.95-1.08 18.897M208.177 68.297l.236 1.95-1.08 18.897"/><path fill="#28292b" d="M203.424 74.151h147.75v11h-147.75z"/><g><path d="M343.206 82.908H211.391a3.267 3.267 0 0 1-3.257-3.257 3.267 3.267 0 0 1 3.257-3.257h131.815a3.267 3.267 0 0 1 3.257 3.257 3.267 3.267 0 0 1-3.257 3.257z" fill="#99784b"/><path d="M267.657 79.233l-.132-.774a.94.94 0 0 0-1.082-.766.94.94 0 0 0-.766 1.082l.343 2.013c.078.455.477.78.924.78h6.682a1.17 1.17 0 0 0 1.167-1.167 1.17 1.17 0 0 0-1.167-1.167c.001-.001-5.969-.001-5.969-.001zM281.514 79.233l-.132-.774a.94.94 0 0 0-1.082-.766.94.94 0 0 0-.766 1.082l.343 2.013c.078.455.477.78.924.78h6.682a1.17 1.17 0 0 0 1.167-1.167 1.17 1.17 0 0 0-1.167-1.167c.001-.001-5.969-.001-5.969-.001zM295.371 79.233l-.132-.774a.94.94 0 0 0-1.082-.766.94.94 0 0 0-.766 1.082l.343 2.013c.078.455.477.78.924.78h6.682a1.17 1.17 0 0 0 1.167-1.167 1.17 1.17 0 0 0-1.167-1.167l-5.969-.001zM309.228 79.233l-.132-.774a.94.94 0 0 0-1.082-.766.942.942 0 0 0-.767 1.082l.343 2.013c.078.455.477.78.924.78h6.682a1.17 1.17 0 0 0 1.167-1.167 1.17 1.17 0 0 0-1.167-1.167c.001-.001-5.968-.001-5.968-.001zM323.084 79.233l-.132-.774a.94.94 0 0 0-1.082-.766.94.94 0 0 0-.766 1.082l.343 2.013c.078.455.477.78.924.78h6.682a1.17 1.17 0 0 0 1.167-1.167 1.17 1.17 0 0 0-1.167-1.167c.001-.001-5.969-.001-5.969-.001z" fill="#11110f"/><path d="M336.163 79.233l-.132-.774a.94.94 0 0 0-1.082-.766.94.94 0 0 0-.766 1.082l.343 2.013c.078.455.477.78.924.78h6.682a1.17 1.17 0 0 0 1.167-1.167 1.17 1.17 0 0 0-1.167-1.167c.001-.001-5.969-.001-5.969-.001z" fill="#32100f"/><ellipse cx="246.812" cy="78.287" rx=".922" ry=".828" fill="#11110f"/><ellipse cx="249.833" cy="78.287" rx=".922" ry=".828" fill="#11110f"/><ellipse cx="252.854" cy="78.287" rx=".922" ry=".828" fill="#11110f"/><ellipse cx="255.874" cy="78.287" rx=".922" ry=".828" fill="#11110f"/><ellipse cx="246.458" cy="81.016" rx=".922" ry=".828" fill="#11110f"/><ellipse cx="249.479" cy="81.016" rx=".922" ry=".828" fill="#11110f"/><ellipse cx="252.499" cy="81.016" rx=".922" ry=".828" fill="#11110f"/><ellipse cx="255.52" cy="81.016" rx=".922" ry=".828" fill="#11110f"/><path fill="none" stroke="#11110f" stroke-width=".5" stroke-miterlimit="10" d="M246.812 78.287l-.354 2.729M249.479 81.016h-3.021M249.833 78.287l-.354 2.729M252.854 78.287h-3.021M255.874 78.287h-3.02M255.52 81.016h-3.021"/><g><ellipse transform="rotate(-21.925 219.053 80.376)" cx="219.055" cy="80.377" rx=".954" ry=".482" fill="#131314"/><path fill="none" stroke="#131314" stroke-width=".5" stroke-miterlimit="10" d="M219.705 80.15l.296-1.797"/><path d="M219.901 78.96l.1-.607c.063.007.799.106 1.073.674.093.193.107.38.102.51-.039-.098-.22-.235-.353-.309-.443-.246-.83-.276-.922-.268z" fill="#131314"/></g><path d="M221.067 81.608h-3.078a.386.386 0 0 1-.389-.418l.215-3.078a.456.456 0 0 1 .447-.418h3.078c.23 0 .405.188.389.418l-.215 3.078a.457.457 0 0 1-.447.418z" fill="none" stroke="#131314" stroke-width=".15" stroke-miterlimit="10"/></g></g></svg>