<svg xmlns="http://www.w3.org/2000/svg" viewBox="-328.653 902.925 98.806 61.892"><path d="M-229.847 904.312c0-.769-.618-1.387-1.387-1.387h-96.02c-.769 0-1.387.618-1.387 1.387v4.204c0 .768.618 1.387 1.387 1.387h4.75c.769 0 1.387.619 1.387 1.387v18.703h-6.147c-.769 0-1.387.618-1.387 1.387v32.049c0 .768.618 1.387 1.387 1.387h96.032c.769 0 1.387-.618 1.387-1.387l-.002-59.117" fill="#2c2c2c"/><path d="M-238.969 960.81h-70.54c-2.849 0-5.18-2.331-5.18-5.18v-47.525c0-2.849 2.331-5.18 5.18-5.18h70.54c2.849 0 5.18 2.331 5.18 5.18v47.525c0 2.849-2.331 5.18-5.18 5.18z" fill="#a9a9a9"/><circle cx="-321.314" cy="948.932" r="3.306" fill="#e0e0e0"/><path d="M-327.255 929.994v-20.09h4.75c.769 0 1.387.619 1.387 1.387v18.703h-6.147" fill="#1d1c16"/><path d="M-320.338 913.747h-8.081a.223.223 0 0 1-.223-.223v-1.506c0-.123.1-.223.223-.223h8.081c.123 0 .223.1.223.223v1.506a.225.225 0 0 1-.223.223zM-320.338 917.242h-8.081a.223.223 0 0 1-.223-.223v-1.506c0-.123.1-.223.223-.223h8.081c.123 0 .223.1.223.223v1.506a.225.225 0 0 1-.223.223zM-320.338 920.737h-8.081a.223.223 0 0 1-.223-.223v-1.506c0-.123.1-.223.223-.223h8.081c.123 0 .223.1.223.223v1.506a.225.225 0 0 1-.223.223zM-320.338 924.137h-8.081a.223.223 0 0 1-.223-.223v-1.506c0-.123.1-.223.223-.223h8.081c.123 0 .223.1.223.223v1.506a.224.224 0 0 1-.223.223zM-320.338 927.538h-8.081a.223.223 0 0 1-.223-.223v-1.506c0-.123.1-.223.223-.223h8.081c.123 0 .223.1.223.223v1.506a.225.225 0 0 1-.223.223z" fill="#333"/><text transform="translate(-241.194 953.227)" fill="#c23435" font-family="ArialMT" font-size=".092">I don’t like bugs!</text><path fill="#25231d" d="M-250.304 952.465h12.015v4.582h-12.015z"/><path fill="#fff" d="M-238.66 954.762v-1.906h-4.267v3.811h4.267z"/><path d="M-241.999 954.793v-1.566h1.587l.721.541v.757h-.606l.77.567.001.634.001.633h-.721l-.005-.613-.005-.613-1.041-.011v1.237h-.701l-.001-1.566zm1.566-.618v-.288h-.866v.577h.866v-.289z" fill="#25231d"/><g fill="#fff"><path d="M-248.47 956.297v-.082l-.34-.012-.006-.211-.006-.211h.352v-.165h-.35v-.269l-.361.012-.006.129-.006.129h-.245v.165h.247v.221c0 .122.006.243.013.27.022.082.113.104.424.105l.283.001v-.082zM-247.296 955.998v-.381h-.371v.577h-.227v-.577h-.35v.337c0 .295.004.341.036.368.059.052.081.054.505.056l.407.002v-.382zM-246.661 956.075l.006-.294h.349v-.165h-.232c-.281.001-.382.022-.443.092-.043.05-.046.073-.046.348 0 .162.007.301.014.309a.635.635 0 0 0 .18.009l.166-.006.006-.293zM-245.263 956.322c.074-.06.093-.124.093-.315 0-.347-.044-.395-.379-.407l-.222-.008v-.244l-.361.012-.011.999h.418c.365-.002.424-.006.462-.037zm-.508-.335v-.206h.227v.412h-.227v-.206zM-244.094 956.316c.065-.051.096-.154.096-.318 0-.17-.031-.266-.105-.328-.061-.052-.071-.053-.366-.053-.338 0-.376.012-.428.136-.035.083-.039.424-.006.489.055.107.088.116.433.117.294-.001.327-.004.376-.043zm-.481-.329v-.206h.227v.412h-.227v-.206z"/></g><path d="M-248.794 954.731c.056-.187.108-.347.116-.356.008-.009.04.07.072.175l.108.362.052.171.396-.012.057-.175.117-.37.06-.195.124.37.124.37.667.005c.776.006.818 0 .985-.15.134-.12.179-.234.178-.442-.002-.238-.105-.427-.285-.52-.071-.037-.137-.046-.404-.059a3.003 3.003 0 0 1-.356-.029c-.05-.021-.048-.126.004-.154.025-.013.261-.021.623-.021h.584l.165.209c.091.115.163.217.16.226-.003.009-.14.213-.306.453s-.305.448-.311.464c-.009.023.038.028.254.028h.265l.196-.258c.108-.142.201-.258.207-.258s.094.116.195.258l.184.258h.274c.15 0 .274-.004.274-.009s-.144-.214-.319-.466-.319-.47-.319-.486c0-.016.13-.214.289-.44.159-.226.289-.42.289-.432 0-.014-.097-.021-.266-.021h-.267l-.11.154-.166.237c-.031.046-.064.083-.072.083s-.075-.083-.147-.184c-.217-.303-.096-.272-1.025-.265-.784.006-.803.007-.888.052-.169.091-.26.266-.259.5.001.192.029.299.108.408.101.139.15.154.536.168.355.013.433.031.433.103 0 .092-.062.103-.547.103h-.455l-.39-1.329-.433-.012-.101.33c-.055.182-.107.33-.114.33a.923.923 0 0 1-.07-.191l-.099-.33-.042-.14-.438.012-.068.247a57.056 57.056 0 0 0-.396 1.553c0 .018.061.023.231.019l.231-.006.095-.338z" fill="#fff"/></svg>