<svg xmlns="http://www.w3.org/2000/svg" viewBox="0 0 794.816 490.751"><path d="M784.531 20.332v-6.985H5.592l-2.923.001-.013-.001.013.001C1.23 13.348 0 14.415 0 15.705v131.497c0 1.29 1.193 2.358 2.631 2.358h6.18v5.043l775.72-.001v-8.08h6.861c1.438 0 2.631-1.068 2.631-2.358V22.963c0-1.438-1.068-2.631-2.358-2.631h-7.134z" fill="#858786"/><path d="M5.124 154.602c-1.438 0-2.669 1.187-2.669 2.626v330.895c0 1.438 1.228 2.628 2.669 2.628h783.134a2.647 2.647 0 0 0 2.628-2.628V157.229a2.647 2.647 0 0 0-2.628-2.626H5.124v-.001z" fill="#272727"/><path d="M561.888 316.919h25.423a2.423 2.423 0 0 1 2.457 2.388v25.448c0 1.386-1.073 2.501-2.457 2.501h-25.423c-1.384 0-2.457-1.117-2.457-2.501v-25.378a2.422 2.422 0 0 1 2.385-2.458h.072zM163.068 392.722h25.381c1.384 0 2.5 1.074 2.5 2.456V420.6c0 1.386-1.117 2.458-2.5 2.458h-25.381c-1.384 0-2.499-1.075-2.499-2.458v-25.422c0-1.382 1.116-2.456 2.499-2.456z" fill="#12724d"/><path d="M79.607 241.074h25.379a2.495 2.495 0 0 1 2.499 2.489V268.954a2.493 2.493 0 0 1-2.487 2.499H79.607a2.495 2.495 0 0 1-2.499-2.491v-25.387a2.492 2.492 0 0 1 2.483-2.501h.016zM117.485 241.074h25.379c1.386 0 2.5 1.117 2.5 2.501v25.379a2.495 2.495 0 0 1-2.491 2.499h-25.388a2.496 2.496 0 0 1-2.5-2.492V243.575a2.495 2.495 0 0 1 2.489-2.501h.011zM155.367 241.074h25.38c1.387 0 2.5 1.117 2.5 2.501v25.379a2.495 2.495 0 0 1-2.489 2.499h-25.391c-1.384 0-2.457-1.117-2.457-2.499v-25.379c.001-1.387 1.07-2.501 2.457-2.501zM193.235 241.074h25.422c1.387 0 2.457 1.117 2.457 2.501v25.379c0 1.384-1.073 2.499-2.457 2.499h-25.422c-1.386 0-2.457-1.117-2.457-2.499v-25.379c0-1.387 1.071-2.501 2.457-2.501zM231.115 241.074h25.421c1.388 0 2.458 1.117 2.458 2.501v25.379c0 1.384-1.072 2.499-2.458 2.499h-25.421c-1.384 0-2.457-1.117-2.457-2.499v-25.379c.001-1.387 1.072-2.501 2.457-2.501zM269.039 241.074h25.379c1.384 0 2.456 1.117 2.456 2.501v25.379c0 1.384-1.075 2.499-2.456 2.499h-25.379a2.497 2.497 0 0 1-2.499-2.495V243.575a2.493 2.493 0 0 1 2.485-2.501h.014zM306.919 241.074h25.38a2.5 2.5 0 0 1 2.501 2.497V268.954a2.497 2.497 0 0 1-2.495 2.499h-25.386a2.497 2.497 0 0 1-2.5-2.496v-25.382a2.495 2.495 0 0 1 2.489-2.501h.011zM344.787 241.074h25.379a2.495 2.495 0 0 1 2.499 2.489V268.954a2.493 2.493 0 0 1-2.487 2.499H344.787c-1.386 0-2.456-1.117-2.456-2.499v-25.379c-.002-1.387 1.07-2.501 2.456-2.501zM382.668 241.074h25.379a2.496 2.496 0 0 1 2.499 2.493v25.387a2.495 2.495 0 0 1-2.491 2.499h-25.387c-1.386 0-2.458-1.117-2.458-2.499v-25.379c0-1.387 1.072-2.501 2.458-2.501zM420.547 241.074h25.424c1.384 0 2.456 1.117 2.456 2.501v25.379c0 1.382-1.079 2.499-2.456 2.499h-25.424c-1.384 0-2.458-1.117-2.458-2.499v-25.379c0-1.384 1.075-2.501 2.458-2.501zM458.428 241.074h25.422c1.385 0 2.458 1.117 2.458 2.501v25.379c0 1.384-1.076 2.499-2.458 2.499h-25.422c-1.386 0-2.457-1.117-2.457-2.499v-25.379c0-1.387 1.072-2.501 2.457-2.501zM496.35 241.074h25.377c1.389 0 2.458 1.117 2.458 2.501v25.379c0 1.384-1.071 2.499-2.458 2.499H496.35a2.497 2.497 0 0 1-2.501-2.495V243.575a2.497 2.497 0 0 1 2.491-2.501h.01zM534.216 241.074h25.379a2.495 2.495 0 0 1 2.499 2.489V268.954a2.495 2.495 0 0 1-2.489 2.499H534.216a2.497 2.497 0 0 1-2.5-2.494v-25.384a2.495 2.495 0 0 1 2.487-2.501h.013zM107.275 316.919h25.379c1.387 0 2.501 1.073 2.501 2.458v25.378a2.495 2.495 0 0 1-2.487 2.501h-25.393c-1.385 0-2.458-1.117-2.458-2.501v-25.378a2.422 2.422 0 0 1 2.385-2.458h.073zM145.159 316.919h25.422c1.385 0 2.456 1.073 2.456 2.458v25.378c0 1.386-1.072 2.501-2.456 2.501h-25.422c-1.386 0-2.458-1.117-2.458-2.501v-25.378c-.001-1.388 1.074-2.458 2.458-2.458zM183.026 316.919h25.422a2.422 2.422 0 0 1 2.458 2.385v25.451c0 1.386-1.071 2.501-2.458 2.501h-25.422c-1.385 0-2.458-1.117-2.458-2.501v-25.378c0-1.388 1.071-2.458 2.458-2.458zM220.948 316.919h25.379a2.423 2.423 0 0 1 2.457 2.389v25.447c0 1.386-1.073 2.501-2.457 2.501h-25.379a2.495 2.495 0 0 1-2.5-2.49v-25.389c-.001-1.388 1.115-2.458 2.5-2.458zM258.829 316.919h25.379c1.387 0 2.501 1.073 2.501 2.458v25.378a2.495 2.495 0 0 1-2.487 2.501h-25.393a2.495 2.495 0 0 1-2.499-2.491v-25.388c0-1.388 1.113-2.458 2.499-2.458zM296.709 316.919h25.38c1.387 0 2.499 1.073 2.499 2.458v25.378a2.495 2.495 0 0 1-2.487 2.501h-25.392a2.497 2.497 0 0 1-2.499-2.495v-25.384c0-1.388 1.117-2.458 2.499-2.458zM334.577 316.919h25.379c1.382 0 2.501 1.073 2.501 2.458v25.378a2.497 2.497 0 0 1-2.495 2.501h-25.385c-1.382 0-2.458-1.117-2.458-2.501v-25.378a2.422 2.422 0 0 1 2.385-2.458h.073zM372.459 316.919h25.421a2.422 2.422 0 0 1 2.458 2.385v25.451c0 1.386-1.073 2.501-2.458 2.501h-25.421c-1.385 0-2.458-1.117-2.458-2.501v-25.378a2.422 2.422 0 0 1 2.458-2.458zM410.339 316.919h25.422c1.387 0 2.456 1.073 2.456 2.458v25.378c0 1.386-1.072 2.501-2.456 2.501h-25.422c-1.383 0-2.458-1.117-2.458-2.501v-25.378a2.424 2.424 0 0 1 2.389-2.458h.069zM448.259 316.919h25.381a2.423 2.423 0 0 1 2.456 2.39v25.446c0 1.384-1.076 2.501-2.456 2.501h-25.381a2.495 2.495 0 0 1-2.498-2.49v-25.389c0-1.388 1.113-2.458 2.498-2.458zM486.14 316.919h25.379c1.385 0 2.499 1.073 2.499 2.458v25.378a2.495 2.495 0 0 1-2.487 2.501H486.14a2.495 2.495 0 0 1-2.498-2.492v-25.387c0-1.388 1.114-2.458 2.498-2.458zM524.009 316.919h25.379c1.384 0 2.499 1.073 2.499 2.458v25.378a2.495 2.495 0 0 1-2.489 2.501H524.009c-1.386 0-2.458-1.117-2.458-2.501v-25.378c0-1.388 1.072-2.458 2.458-2.458zM125.153 354.798h25.422c1.384 0 2.457 1.117 2.457 2.501v25.378c0 1.387-1.071 2.502-2.457 2.502h-25.422c-1.385 0-2.457-1.117-2.457-2.502v-25.378c0-1.384 1.075-2.501 2.457-2.501zM163.028 354.798h25.42c1.385 0 2.457 1.117 2.457 2.501v25.378c0 1.387-1.071 2.502-2.457 2.502h-25.42c-1.385 0-2.458-1.117-2.458-2.502v-25.378c0-1.384 1.075-2.501 2.458-2.501zM200.95 354.798h25.379c1.385 0 2.458 1.117 2.458 2.501v25.378c0 1.387-1.071 2.502-2.458 2.502H200.95a2.495 2.495 0 0 1-2.5-2.49v-25.39a2.495 2.495 0 0 1 2.489-2.501h.011zM238.831 354.798h25.379a2.495 2.495 0 0 1 2.499 2.491v25.388a2.493 2.493 0 0 1-2.484 2.502H238.831a2.497 2.497 0 0 1-2.5-2.494v-25.386a2.495 2.495 0 0 1 2.487-2.501h.013zM276.711 354.798h25.379a2.495 2.495 0 0 1 2.499 2.491v25.388a2.495 2.495 0 0 1-2.486 2.502H276.711a2.495 2.495 0 0 1-2.5-2.492v-25.388a2.495 2.495 0 0 1 2.489-2.501h.011zM314.578 354.798h25.38a2.497 2.497 0 0 1 2.501 2.495v25.384a2.496 2.496 0 0 1-2.49 2.502h-25.391c-1.386 0-2.457-1.117-2.457-2.502v-25.378c0-1.384 1.074-2.501 2.457-2.501zM352.46 354.798h25.422c1.385 0 2.458 1.117 2.458 2.501v25.378c0 1.387-1.074 2.502-2.458 2.502H352.46c-1.383 0-2.457-1.117-2.457-2.502v-25.378c-.001-1.384 1.073-2.501 2.457-2.501zM390.381 354.798h25.379c1.384 0 2.456 1.117 2.456 2.501v25.378c0 1.387-1.072 2.502-2.456 2.502h-25.379a2.495 2.495 0 0 1-2.5-2.492v-25.388a2.497 2.497 0 0 1 2.493-2.501h.007zM428.261 354.798h25.379c1.386 0 2.46 1.117 2.46 2.501v25.378c0 1.387-1.074 2.502-2.46 2.502h-25.379a2.495 2.495 0 0 1-2.498-2.492v-25.388a2.497 2.497 0 0 1 2.491-2.501h.007zM466.129 354.798h25.379a2.497 2.497 0 0 1 2.501 2.495v25.384a2.496 2.496 0 0 1-2.49 2.502h-25.39a2.495 2.495 0 0 1-2.5-2.492v-25.388a2.497 2.497 0 0 1 2.495-2.501h.005zM504.011 354.798h25.377c1.386 0 2.5 1.117 2.5 2.501v25.378a2.495 2.495 0 0 1-2.486 2.502h-25.391c-1.387 0-2.46-1.117-2.46-2.502v-25.378c0-1.384 1.076-2.501 2.46-2.501zM200.95 392.722h295.603c1.385 0 2.499 1.074 2.499 2.456V420.6c0 1.386-1.114 2.458-2.499 2.458H200.95a2.425 2.425 0 0 1-2.458-2.391v-25.489a2.424 2.424 0 0 1 2.392-2.456h.066zM97.487 278.996h25.379c1.385 0 2.499 1.074 2.499 2.458v25.422c0 1.386-1.114 2.458-2.499 2.458H97.487c-1.385 0-2.499-1.074-2.499-2.458v-25.422c0-1.386 1.115-2.458 2.499-2.458zM135.369 278.996h25.379c1.385 0 2.5 1.074 2.5 2.458v25.422c0 1.386-1.114 2.458-2.5 2.458h-25.379a2.423 2.423 0 0 1-2.457-2.389v-25.491c.001-1.386 1.073-2.458 2.457-2.458zM173.237 278.996h25.422a2.423 2.423 0 0 1 2.457 2.389v25.491a2.422 2.422 0 0 1-2.385 2.458h-25.494a2.422 2.422 0 0 1-2.457-2.386v-25.494a2.422 2.422 0 0 1 2.385-2.458h.072zM211.117 278.996h25.422c1.389 0 2.458 1.072 2.458 2.458v25.422a2.422 2.422 0 0 1-2.385 2.458h-25.495a2.423 2.423 0 0 1-2.457-2.389v-25.491c.001-1.386 1.073-2.458 2.457-2.458zM249.039 278.996h25.379a2.423 2.423 0 0 1 2.456 2.39V306.876c0 1.386-1.071 2.458-2.456 2.458h-25.379c-1.387 0-2.5-1.072-2.5-2.458v-25.422c.001-1.387 1.113-2.458 2.5-2.458zM286.921 278.996H312.3c1.385 0 2.501 1.072 2.501 2.458v25.422c0 1.386-1.117 2.458-2.501 2.458h-25.379c-1.386 0-2.5-1.074-2.5-2.458v-25.422c0-1.386 1.117-2.458 2.5-2.458zM324.801 278.996h25.379c1.386 0 2.5 1.074 2.5 2.458v25.422c0 1.386-1.114 2.458-2.5 2.458h-25.379a2.424 2.424 0 0 1-2.456-2.392v-25.488a2.421 2.421 0 0 1 2.383-2.458h.073zM362.669 278.996h25.379c1.385 0 2.499 1.072 2.499 2.458v25.422c0 1.386-1.115 2.458-2.499 2.458h-25.379a2.424 2.424 0 0 1-2.458-2.39V281.454a2.424 2.424 0 0 1 2.389-2.458h.069zM400.551 278.996h25.422c1.386 0 2.456 1.072 2.456 2.458v25.422a2.423 2.423 0 0 1-2.388 2.458H400.551a2.425 2.425 0 0 1-2.458-2.392v-25.488a2.423 2.423 0 0 1 2.387-2.458h.071zM438.432 278.996h25.42a2.424 2.424 0 0 1 2.46 2.388v25.492a2.424 2.424 0 0 1-2.389 2.458H438.432a2.424 2.424 0 0 1-2.46-2.388v-25.492c0-1.386 1.072-2.458 2.46-2.458zM476.353 278.996h25.38a2.422 2.422 0 0 1 2.456 2.388v25.492a2.423 2.423 0 0 1-2.388 2.458h-25.448c-1.387 0-2.5-1.076-2.5-2.458v-25.422c0-1.386 1.115-2.458 2.5-2.458zM514.221 278.996H539.6c1.386 0 2.499 1.074 2.499 2.458v25.422c0 1.386-1.117 2.458-2.499 2.458h-25.379c-1.387 0-2.503-1.074-2.503-2.458v-25.422c-.001-1.386 1.117-2.458 2.503-2.458z" fill="#a7a193"/><path d="M41.729 241.074h25.379c1.387 0 2.458 1.117 2.458 2.501v25.379c0 1.384-1.074 2.499-2.458 2.499H41.729a2.496 2.496 0 0 1-2.5-2.492V243.575a2.495 2.495 0 0 1 2.487-2.501h.013zM643.794 186.586h25.379c1.382 0 2.499 1.074 2.499 2.458v25.418c0 1.388-1.117 2.458-2.499 2.458h-25.379c-1.389 0-2.5-1.07-2.5-2.458v-25.418c0-1.388 1.114-2.458 2.5-2.458zM681.661 186.586h25.378c1.387 0 2.501 1.072 2.501 2.458v25.418c0 1.388-1.114 2.458-2.501 2.458h-25.378a2.422 2.422 0 0 1-2.458-2.385v-25.491a2.425 2.425 0 0 1 2.392-2.458h.066zM719.542 186.586h25.422a2.426 2.426 0 0 1 2.458 2.394v25.482a2.424 2.424 0 0 1-2.389 2.458h-25.491a2.422 2.422 0 0 1-2.458-2.385v-25.491a2.425 2.425 0 0 1 2.392-2.458h.066zM572.099 241.074h25.38a2.497 2.497 0 0 1 2.499 2.495v25.385a2.5 2.5 0 0 1-2.499 2.499h-25.38c-1.385 0-2.458-1.117-2.458-2.499v-25.379c0-1.384 1.073-2.501 2.458-2.501zM61.092 316.919h33.685c1.385 0 2.499 1.076 2.499 2.458v25.378a2.493 2.493 0 0 1-2.485 2.501H61.092a2.492 2.492 0 0 1-2.499-2.485v-25.394c-.002-1.385 1.117-2.458 2.499-2.458zM69.398 354.798h43.259a2.496 2.496 0 0 1 2.499 2.493v25.386a2.495 2.495 0 0 1-2.488 2.502h-43.27a2.497 2.497 0 0 1-2.501-2.493v-25.387a2.497 2.497 0 0 1 2.495-2.501h.006zM541.89 354.798h45.845a2.495 2.495 0 0 1 2.498 2.492v25.387a2.495 2.495 0 0 1-2.486 2.502H541.89c-1.386 0-2.458-1.117-2.458-2.502v-25.378c0-1.384 1.076-2.501 2.458-2.501zM125.196 392.722h25.379c1.384 0 2.499 1.074 2.499 2.456V420.6c0 1.386-1.115 2.458-2.499 2.458h-25.379c-1.384 0-2.5-1.075-2.5-2.458v-25.422c0-1.382 1.116-2.456 2.5-2.456zM50.035 278.996h34.954c1.385 0 2.5 1.074 2.5 2.458v25.419c0 1.386-1.114 2.458-2.5 2.458H50.035c-1.382 0-2.5-1.075-2.5-2.458v-25.422c0-1.383 1.117-2.455 2.5-2.455zM552.102 278.996h45.207a2.423 2.423 0 0 1 2.458 2.388v25.492a2.424 2.424 0 0 1-2.389 2.458h-45.275a2.424 2.424 0 0 1-2.457-2.391V281.453a2.423 2.423 0 0 1 2.387-2.458l.069.001zM75.709 185.367h40.759a2.422 2.422 0 0 1 2.457 2.387v25.491a2.423 2.423 0 0 1-2.388 2.458H75.709a2.422 2.422 0 0 1-2.457-2.386v-25.494a2.421 2.421 0 0 1 2.385-2.456h.072zM131.508 185.367h40.716c1.382 0 2.499 1.07 2.499 2.456v25.422c0 1.386-1.117 2.458-2.499 2.458h-40.716c-1.385 0-2.501-1.072-2.501-2.458v-25.422c0-1.386 1.118-2.456 2.501-2.456zM187.27 185.367h40.757a2.421 2.421 0 0 1 2.457 2.385V213.245a2.423 2.423 0 0 1-2.388 2.458H187.27a2.422 2.422 0 0 1-2.458-2.385v-25.495c.001-1.388 1.074-2.456 2.458-2.456zM243.061 185.367h40.715c1.384 0 2.501 1.07 2.501 2.456v25.422c0 1.386-1.115 2.458-2.501 2.458h-40.715c-1.387 0-2.501-1.072-2.501-2.458v-25.422c0-1.388 1.116-2.456 2.501-2.456zM298.825 185.367h40.759c1.385 0 2.456 1.069 2.456 2.456v25.422a2.422 2.422 0 0 1-2.385 2.458h-40.83a2.423 2.423 0 0 1-2.457-2.388v-25.492c-.002-1.386 1.073-2.456 2.457-2.456zM496.473 185.367h40.715c1.387 0 2.457 1.069 2.457 2.456v25.422c0 1.386-1.07 2.458-2.457 2.458h-40.715c-1.382 0-2.499-1.072-2.499-2.458v-25.422c0-1.386 1.117-2.456 2.499-2.456z" fill="#40413b"/><path d="M552.222 185.367h40.758c1.385 0 2.458 1.069 2.458 2.456v25.422a2.423 2.423 0 0 1-2.387 2.458h-40.829a2.422 2.422 0 0 1-2.456-2.388v-25.492a2.422 2.422 0 0 1 2.388-2.456h.068z" fill="#ab1a1f"/><path d="M44.822 194.301h14.32v10.933h-14.32v-10.933z" fill="#89283b"/><path d="M30.248 326.583c-1.438 0-2.626 1.231-2.626 2.671v4.237a2.645 2.645 0 0 0 2.626 2.626H42.62a2.642 2.642 0 0 0 2.626-2.626v-4.237c0-1.439-1.187-2.671-2.626-2.671H30.248z" fill="#3c5e43"/><path d="M607.349 326.583c-1.438 0-2.628 1.231-2.628 2.671v4.237a2.644 2.644 0 0 0 2.628 2.626h12.328a2.643 2.643 0 0 0 2.628-2.626v-4.237c0-1.438-1.187-2.671-2.628-2.671h-12.328z" fill="#232323"/><path fill="#424242" d="M40.924 18.218h2.712v128.304h-2.712zM52.575 20.263h2.712v126.259h-2.712zM64.226 20.263h2.712v126.259h-2.712zM75.878 20.263h2.712v126.259h-2.712zM87.572 20.263h2.712v126.259h-2.712zM99.223 20.263h2.712v126.259h-2.712zM110.876 20.263h2.712v126.259h-2.712zM122.528 20.263h2.712v126.259h-2.712zM134.176 20.263h2.712v126.259h-2.712zM145.836 20.263h2.712v126.259h-2.712zM157.481 20.263h2.712v126.259h-2.712zM169.131 20.263h2.712v126.259h-2.712zM180.784 20.263h2.712v126.259h-2.712zM192.437 20.263h2.712v126.259h-2.712zM204.085 20.263h2.712v126.259h-2.712zM215.745 20.263h2.712v126.259h-2.712zM227.215 20.263h2.712v126.259h-2.712zM238.866 20.263h2.712v126.259h-2.712zM250.519 20.263h2.712v126.259h-2.712zM262.171 20.263h2.712v126.259h-2.712zM273.819 20.263h2.712v126.259h-2.712zM285.479 20.263h2.712v126.259h-2.712zM297.14 20.263h2.712v126.259h-2.712zM308.791 20.263h2.712v126.259h-2.712zM320.443 20.263h2.712v126.259h-2.712zM332.095 20.263h2.712v126.259h-2.712zM343.744 20.263h2.712v126.259h-2.712z"/><path d="M352.189 20.332v.793h439.476c.396 0 .771.18 1.072.512.297.331.493.804.493 1.325v121.201c-.001.396-.181.772-.513 1.072a1.993 1.993 0 0 1-1.325.493h-438.41V20.332h-.793v.793-.793h-.793v126.983h439.996c.916 0 1.759-.338 2.384-.898.624-.556 1.041-1.359 1.04-2.254v-121.2a3.57 3.57 0 0 0-.897-2.384c-.557-.624-1.359-1.041-2.254-1.041H351.396v.793h.793v.001z" fill="#545353"/><path d="M464.447 39.053a2.644 2.644 0 0 0-2.628 2.626v52.197a2.646 2.646 0 0 0 2.628 2.627h312.43a2.643 2.643 0 0 0 2.626-2.627V41.679a2.643 2.643 0 0 0-2.626-2.626h-312.43z" fill="#424242"/><path d="M477.233 51.085v-.793a2.8 2.8 0 0 0-2.786 2.785V82.48a2.8 2.8 0 0 0 2.786 2.785h228.491a2.8 2.8 0 0 0 2.786-2.785V53.077a2.8 2.8 0 0 0-2.786-2.785H477.233v1.586h228.491c.322 0 .62.133.844.356.223.223.356.521.355.842v29.403c.001.32-.133.618-.355.841a1.195 1.195 0 0 1-.844.356H477.233c-.321 0-.619-.133-.843-.355a1.193 1.193 0 0 1-.356-.843V53.075c0-.323.134-.62.356-.843.224-.222.521-.355.843-.355v-.792z" fill="#545353"/><path d="M748.094 51.891c8.791 0 15.89 7.095 15.89 15.889 0 8.793-7.099 15.888-15.89 15.888-8.762.013-15.875-7.08-15.888-15.842v-.046c.002-8.794 7.095-15.889 15.888-15.889z" fill="#262424"/><path fill="#545353" d="M508.462 56.552v.793h.635v-.793h-.793v22.371h.793v-.793h-.635v.793h.793V56.552h-.793v.793-.793h-.793v23.165h2.221V55.758h-2.221v.794zM674.885 56.552v.793h.635v-.793h-.794v22.371h.794v-.793h-.635v.793h.793V56.552h-.793v.793-.793h-.794v23.165h2.222V55.758h-2.222v.794z"/><path d="M735.469 119.085h44.034v17.833h-44.034v-17.833z" fill="#231f20"/><path d="M776.02 121.595l-4.187 6.114 4.553 6.68h-4.204l-2.502-3.576-2.522 3.585h-4.177c.113-.236 4.572-6.689 4.572-6.689l-1.9-2.644-8.063.009c-.376.03-.837-.084-1.026.339-.065.141-.094.348-.019.49.065.16.217.31.386.356l.254.02h3.227c1.496.038 2.88.968 3.528 2.313.574 1.129.489 2.672-.15 3.745a4.203 4.203 0 0 1-3.811 2.07h-8.975l-1.384-4.967-1.383 4.967h-3.273l-1.317-4.987-1.439 4.977h-3.622s3.33-11.985 3.547-12.776h3.059l1.438 5.344 1.468-5.344 3.001-.001 2.568 9.306h5.983c.413-.02.987.093 1.157-.415a.622.622 0 0 0-.15-.621c-.151-.132-.339-.169-.536-.169h-3.217c-1.524-.047-3.039-1.044-3.604-2.511-.611-1.468-.254-3.228.865-4.364.79-.792 1.73-1.187 2.832-1.234l10.556-.009 2.127 3.066 2.2-3.076 4.14.002z" fill="#858786"/><path d="M788.531 13.347H2.455V2.358c0-1.29 1.23-2.357 2.669-2.357L5.111 0h783.147c1.438 0 2.631 1.068 2.631 2.358v8.358c0 1.438-1.068 2.631-2.358 2.631z" fill="#272727"/><path d="M694.419 270.944c4.227 0 8.461 1.598 11.693 4.83l18.386 18.385-30.083 30.084-30.079-30.085 18.386-18.384c3.234-3.232 7.466-4.83 11.693-4.83h.004zM751.15 327.37c0 4.228-1.598 8.462-4.831 11.694l-18.384 18.386-30.084-30.083 30.084-30.079 18.385 18.386c3.232 3.233 4.83 7.466 4.83 11.693v.003zM694.412 384.099c-4.228 0-8.461-1.598-11.693-4.83l-18.386-18.384 30.082-30.084 30.08 30.084-18.386 18.384c-3.234 3.232-7.467 4.831-11.694 4.831l-.003-.001zM637.977 327.367c0-4.228 1.598-8.461 4.83-11.693l18.384-18.386 30.084 30.082-30.084 30.08-18.384-18.386c-3.232-3.234-4.83-7.467-4.83-11.694v-.003z" fill="#2761a2"/><path fill="#fff" d="M681.844 301.794l12.528-11.918 12.526 11.918 2.187-2.299-14.713-14-14.715 14zM720.3 314.797l11.918 12.526-11.918 12.528 2.299 2.187 14-14.715-14-14.714zM706.986 353.249l-12.527 11.919-12.528-11.919-2.187 2.299 14.715 14.001 14.714-14.001zM668.827 339.941l-11.918-12.527 11.918-12.527-2.299-2.188-14 14.715 14 14.715z"/><path d="M747.169 389.125H641.461c-4.962 0-9.021-4.059-9.021-9.021V274.396c0-4.961 4.059-9.021 9.021-9.021h105.708c4.962 0 9.021 4.059 9.021 9.021v105.708c0 4.962-4.06 9.021-9.021 9.021z" fill="none" stroke="#1e1e1e" stroke-width="1.48" stroke-miterlimit="10"/></svg>