<svg xmlns="http://www.w3.org/2000/svg" viewBox="0 0 172.714 252.873"><path d="M0 188.44V64.678C3.803 22.568 37.722 1.538 76.413.04c46.483-1.8 96.301 56.787 96.301 126.396 0 69.609-49.818 128.195-96.301 126.396C37.722 251.334 3.803 230.304 0 188.195" fill="#242d32"/><path d="M161.462 126.436c0-52.137-51.541-113.743-86.357-112.395-28.979 1.122-54.908 16.307-57.757 47.847v129.097c2.849 31.54 28.777 46.726 57.757 47.847 34.816 1.348 86.357-60.258 86.357-112.396z" fill="#42494c"/><path d="M79.935 109.213c-.001-17.693 6.318-31.784 17.819-35.97 11.696-4.257 26.434 2.692 38.461 18.136l-1.578 1.229c-11.476-14.735-25.347-21.436-36.199-17.486-16.695 6.077-21.571 34.94-10.874 64.338 10.701 29.399 32.99 48.373 49.687 42.297 7.988-2.908 13.546-11.133 15.648-23.159 2.137-12.226.441-26.849-4.774-41.18l1.879-.684c5.334 14.653 7.062 29.643 4.866 42.208-2.231 12.761-8.246 21.531-16.935 24.693-17.732 6.454-41.171-13.057-52.249-43.492-3.895-10.695-5.75-21.342-5.751-30.93z" fill="#6d7779"/><path fill="#c66a56" d="M112.542 144.591h6.674l-3.337-6.28zM112.689 150.871h6.673l-3.336-6.28z"/><path fill="#f86745" d="M40.059 38.369l13.984-13.984H73.82l13.985 13.984v19.776L73.82 72.13H54.043L40.059 58.145z"/><path d="M64.23 54.538a6.28 6.28 0 1 1 0-12.561 6.28 6.28 0 0 1 0 12.561zM59.156 35.72h10.148l-5.074-9.55zM69.304 60.794H59.156l5.074 9.551zM51.395 53.331V43.184l-9.551 5.074zM76.469 43.184v10.147l9.551-5.073z" fill="#c66a56"/><path d="M63.94 198.522c-6.938 0-12.561-5.623-12.561-12.561S57.003 173.4 63.94 173.4s12.562 5.624 12.562 12.562-5.624 12.56-12.562 12.56zM64.823 235.09c-6.938 0-12.562-5.624-12.562-12.562 0-6.937 5.624-12.561 12.562-12.561 6.937 0 12.561 5.624 12.561 12.561 0 6.938-5.624 12.562-12.561 12.562z" fill="#f86745"/><path fill="#405762" d="M93.037 204.195h8.628v21.303h-8.628z"/><path d="M100.45 223.812l-2.958-2.025-3.231 2.203v-2.034l1.729-1.21-1.733-1.221v-2.021c.113.055 3.235 2.212 3.235 2.212l1.279-.92-.004-3.9c-.015-.182.04-.404-.165-.496l-.236-.009-.173.187-.009.123v1.561a1.984 1.984 0 0 1-1.12 1.707c-.546.277-1.292.236-1.812-.073a2.034 2.034 0 0 1-1.001-1.843v-4.342l2.402-.67-2.402-.669-.001-1.583 2.413-.638-2.407-.696v-1.752l6.181 1.716v1.479l-2.586.696 2.586.71v1.451l-4.502 1.243v2.895c.01.2-.045.478.2.56.11.032.224.005.301-.072a.382.382 0 0 0 .082-.26v-1.557c.022-.737.505-1.47 1.215-1.743a1.97 1.97 0 0 1 2.111.419c.383.382.574.837.597 1.37l.005 5.106-1.483 1.029 1.488 1.064-.001 2.003z" fill="#fff"/><path d="M29.077 99.208h9.057v3.798c-.014 1.281-.081 2.517-1.233 3.375-.324.24-.922.572-1.924.572-1.261 0-2.02-.549-2.373-.927-.676-.675-.745-1.579-.786-2.472v-1.659h-2.74v-2.687zm4.841 3.718c.012.446.035.949.361 1.27.097.092.29.24.604.24a.96.96 0 0 0 .603-.229c.423-.389.374-1.018.374-1.533v-.743h-1.942v.995M29.067 111.312l.603-.103c-.269-.343-.795-.973-.795-2.105 0-.194.026-1.041.513-1.624.219-.252.745-.687 1.615-.687.206 0 .556.057.992.389.628.47.799 1.03.967 1.751l.15 1.212c.039.138.077.286.103.446.014.035.04.229.116.332.077.104.372.184.514.184.257 0 .466-.332.466-.847 0-.458-.166-.676-.333-.79-.089-.057-.166-.08-.372-.091l.014-2.3c.525.103.949.206 1.385.583.526.47.859 1.213.859 2.666 0 .274.115 1.396-.437 2.22a1.785 1.785 0 0 1-.821.697c-.539.252-1.19.184-1.756.184h-1.808c-1.128-.012-1.333.068-1.975.274v-2.391zm2.909-.24c-.115-.331-.219-.675-.334-1.018l-.077-.252c-.025-.126-.109-.515-.597-.515-.219 0-.616.126-.616.629 0 .068.03.378.082.538.128.457.425.492.555.617h.987M29.061 118.234h3.208c-.383 0 1.253.104 1.414-.24.056-.114.167-.332.161-.595-.006-.298-.149-.629-.414-.743-.322-.126-.619-.172-1.291-.16h-3.081v-2.472h6.641v2.334l-.771.034c.393.32.899.698.899 2.071 0 1.007-.351 1.772-1.37 2.082-.258.068-.507.103-1.035.126h-4.36v-2.437M33.779 131.963c.253-.046.672-.229.672-.858 0-.274-.074-.48-.139-.583-.023-.058-.189-.149-.38-.149a.397.397 0 0 0-.29.194c-.052.092-.114.31-.144.562l-.253.972c-.174.687-.296 1.281-.776 1.763-.228.24-.522.365-.643.4-.344.114-.612.057-.727.057-.783 0-1.254-.377-1.457-.595-.43-.469-.755-1.213-.755-2.574 0-1.133.298-1.842.544-2.266.523-.903 1.488-.949 1.791-1.007l.008 2.357c-.228.022-.397.057-.562.24-.14.148-.235.309-.235.732 0 .503.242.789.463.801l.292-.058c.189-.114.27-.423.385-.869 0 0 .295-1.373.344-1.477.143-.309.423-1.556 1.813-1.556.783 0 1.2.4 1.415.629.367.424.709 1.122.709 2.369 0 .274.012 1.441-.583 2.311-.163.24-.366.435-.606.584-.341.205-.748.24-.887.263v-2.242M29.82 140.463c-.406-.4-.939-1.224-.939-2.585 0-.436.025-1.637 1.066-2.518.443-.366 1.181-.813 2.502-.813.229 0 .749 0 1.32.218 1.447.492 2.107 1.831 2.095 3.238 0 .377-.038 1.556-.901 2.402-.432.423-1.219.961-2.615.949-.343.002-1.639-.021-2.528-.891zm4.009-1.83c.203-.218.244-.549.244-.664 0-.286-.165-.491-.216-.561-.241-.297-.608-.515-1.434-.515-.647 0-1.73.148-1.73 1.064 0 .263.068.515.258.675.242.217.678.446 1.439.435.039.001.982.012 1.439-.434M35.72 148.85v2.425h-6.671v-2.425h6.671zm2.473 0v2.425h-1.735v-2.425h1.735zM33.169 155.943c.801-.183.841-.571.841-1.007 0-.354-.12-.469-.22-.583-.264-.309-.589-.412-1.402-.412-.063 0-1.149-.034-1.563.561-.113.172-.12.252-.12.458 0 .068-.007.274.08.457.112.24.318.492.883.538l.02 2.346c-.151-.023-.684-.115-1.121-.344-1.164-.583-1.649-1.773-1.649-2.975 0-.492.074-.835.112-1.041.238-.949.901-1.785 1.853-2.15.287-.104.726-.24 1.452-.24.299 0 1.075.011 1.851.435.125.057.438.251.726.526.876.892.901 2.219.901 2.539 0 1.236-.463 2.003-.813 2.38-.113.114-.415.344-.828.526a3.857 3.857 0 0 1-1.001.286v-2.3M31.007 127.65h1.804c.564 0 1.322 0 1.86-.24.347-.16.539-.274.756-.606.552-.823.447-2.036.447-2.311 0-1.453-.383-2.197-.909-2.666-.436-.378-.862-.458-1.389-.561v2.3a.794.794 0 0 1 .373.091c.166.126.375.31.375.767 0 .516-.262.847-.519.847-.141 0-.37-.011-.447-.114-.077-.103-.169-.366-.182-.412a5.775 5.775 0 0 0-.102-.446l-.152-1.201c-.167-.721-.313-1.281-.941-1.75-.437-.344-.834-.344-1.039-.344-.872 0-1.375.378-1.594.63-.486.583-.468 1.418-.468 1.624 0 1.133.497 1.728.767 2.083l-.63.103v2.482c.437-.139.665-.288 1.99-.276zm-.612-3.032c-.052-.16-.04-.435-.037-.503a.683.683 0 0 1 .621-.629c.488 0 .566.389.592.515l.073.263c.115.332.213.676.328 1.007l-.848.012c-.19-.104-.602-.219-.729-.665M29.073 145.921h3.229c-.383 0 1.231.114 1.395-.229.054-.114.166-.331.16-.583-.006-.298-.15-.641-.414-.744-.323-.137-.543-.206-1.213-.194l-3.169-.022.01-2.414h6.641v2.322l-.771.034c.393.32.899.698.899 2.082 0 .996-.423 1.762-1.442 2.071-.258.068-.426.08-.954.114H29.07l.003-2.437" fill="#c66a56"/><path fill="#5e676a" d="M103.105 94.903h3.663v66.338h-3.663z"/><path d="M103.105 159.41v-9.22c0-1.008.824-1.832 1.832-1.832 1.007 0 1.831.824 1.831 1.832v9.22a1.836 1.836 0 0 1-1.831 1.831 1.838 1.838 0 0 1-1.832-1.831z" fill="#231f20"/><path fill="#5e676a" d="M123.124 94.903h3.664v66.338h-3.664z"/><path d="M123.124 112.174v-9.22c0-1.007.825-1.832 1.832-1.832 1.008 0 1.832.824 1.832 1.832v9.22a1.837 1.837 0 0 1-1.832 1.832 1.838 1.838 0 0 1-1.832-1.832z" fill="#231f20"/><path fill="#c66a56" d="M112.689 105.992h6.673l-3.336-6.281zM112.689 157.152h6.673l-3.336-6.281zM137.125 85.901l10.678 1.918v3.822c0 .662-.089 1.159-.267 1.49-.177.331-.48.604-.91.821-.43.216-.911.324-1.445.324-.442 0-.892-.077-1.348-.23a3.738 3.738 0 0 1-1.129-.584 2.884 2.884 0 0 1-.67-.716 2.802 2.802 0 0 1-.335-.774 6.744 6.744 0 0 1-.24-1.78V87.9l-4.334-.774v-1.225zm5.543 2.218v2.018c0 .782.098 1.357.295 1.724.196.366.496.66.899.881.402.221.83.331 1.281.331.35 0 .635-.059.856-.175.221-.117.383-.281.487-.494.104-.212.157-.62.157-1.224v-2.349l-3.975-.712zM141.597 95.052c1.903 0 3.444.472 4.621 1.415 1.178.943 1.767 2.087 1.767 3.433 0 1.141-.434 2.07-1.3 2.79-.867.718-2.028 1.077-3.485 1.077a7.615 7.615 0 0 1-2.892-.543 6.3 6.3 0 0 1-1.723-1.024c-.482-.414-.855-.855-1.117-1.326a3.997 3.997 0 0 1-.524-1.986c0-.732.203-1.399.611-2.002.408-.602.978-1.058 1.708-1.367a5.875 5.875 0 0 1 2.334-.467zm-.073 1.206c-.627 0-1.202.111-1.727.334s-.935.555-1.23.996a2.452 2.452 0 0 0-.444 1.393c0 .471.13.919.39 1.344s.621.805 1.085 1.14 1.034.6 1.712.793a7.237 7.237 0 0 0 1.999.291c1.063 0 1.91-.256 2.542-.766.631-.51.946-1.14.946-1.89 0-.958-.477-1.803-1.431-2.536-.954-.733-2.235-1.099-3.842-1.099zM137.125 105.996l10.678-.563v1.243l-5.281.213a133.028 133.028 0 0 1-2.709.076l-.721-.007c1.214.508 2.068.875 2.563 1.1l6.147 2.786v1.262l-6.242.306c-.714.033-1.573.057-2.578.069.247.074.616.208 1.106.399.792.304 1.357.528 1.697.675l6.017 2.61v1.25l-10.678-4.66v-1.312l6.468-.307a64.304 64.304 0 0 1 2.039-.068 26.826 26.826 0 0 1-1.573-.637l-6.934-3.174v-1.261zM137.125 116.484l10.678 1.918v6.608l-1.217-.218v-5.384l-3.321-.6v5.247l-1.216-.219v-5.247l-3.715-.662v5.766l-1.209-.219zM137.125 125.041l10.678 1.918v3.841c0 .759-.074 1.333-.223 1.725s-.426.698-.834.921c-.407.223-.923.335-1.544.335-.869 0-1.59-.244-2.163-.731s-.944-1.274-1.114-2.361c-.287.333-.568.585-.845.756-.627.384-1.274.691-1.945.925l-2.01.699v-1.367l1.988-.656a9.822 9.822 0 0 0 1.864-.813c.364-.208.604-.42.718-.637s.171-.568.171-1.056v-1.424l-4.741-.85v-1.225zm5.899 2.281v1.692c0 .783.012 1.293.036 1.53.054.463.175.842.364 1.137.189.296.444.525.765.688.321.162.666.243 1.034.243.312 0 .582-.06.813-.181s.387-.279.47-.475c.083-.196.124-.529.124-1v-2.985l-3.606-.649zM137.125 137.785l10.678 1.918v3.822c0 .662-.089 1.159-.267 1.49-.177.331-.48.604-.91.821-.43.216-.911.324-1.445.324-.442 0-.892-.077-1.348-.23a3.738 3.738 0 0 1-1.129-.584 2.884 2.884 0 0 1-.67-.716 2.802 2.802 0 0 1-.335-.774 6.744 6.744 0 0 1-.24-1.78v-2.292l-4.334-.774v-1.225zm5.543 2.217v2.018c0 .782.098 1.357.295 1.724.196.366.496.66.899.881.402.221.83.331 1.281.331.35 0 .635-.059.856-.175.221-.117.383-.281.487-.494.104-.212.157-.62.157-1.224v-2.349l-3.975-.712zM137.125 144.562l10.678 5.19v1.443l-10.678 1.512v-1.188l3.073-.443v-3.704l-3.073-1.468v-1.342zm4.174 3.335v3.03l2.68-.356a33.34 33.34 0 0 1 2.658-.256 21.25 21.25 0 0 1-2.178-.912l-3.16-1.506zM137.125 153.918l10.678 1.911v2.762c0 .662-.057 1.168-.168 1.518-.15.5-.419.927-.805 1.28s-.868.62-1.445.8a6.565 6.565 0 0 1-1.945.269c-.859 0-1.643-.111-2.349-.334a7.263 7.263 0 0 1-1.864-.875c-.537-.36-.957-.737-1.261-1.131a3.96 3.96 0 0 1-.673-1.396c-.112-.408-.168-.91-.168-1.506v-3.298zm1.209 1.444v1.449c0 .653.07 1.234.211 1.742.088.316.217.587.387.813.218.295.507.563.866.806.476.316 1.019.569 1.628.759s1.303.284 2.079.284c.864 0 1.528-.129 1.992-.388.464-.258.771-.587.922-.986.111-.296.167-.756.167-1.381v-1.617l-8.252-1.481zM88.772 182.868v2.695c0 .533-.021.932-.066 1.193a1.744 1.744 0 0 1-.278.704c-.141.207-.329.38-.563.518s-.497.207-.789.207c-.315 0-.605-.085-.869-.256-.264-.17-.462-.4-.594-.692-.119.411-.323.728-.611.948s-.627.331-1.017.331c-.307 0-.604-.071-.895-.214s-.521-.338-.695-.584c-.173-.247-.279-.552-.319-.913-.024-.228-.04-.774-.046-1.643v-2.295h6.742zm-1.122 1.361h-1.56v.893c0 .53.008.86.023.988.027.233.108.417.241.55a.71.71 0 0 0 .526.2.747.747 0 0 0 .509-.172c.13-.115.209-.286.237-.514.015-.135.022-.522.022-1.163v-.782zm-2.681 0h-1.804v1.26c0 .491.015.803.042.935.037.202.126.367.269.494s.334.191.573.191c.202 0 .374-.05.515-.147.142-.099.244-.24.309-.426s.097-.588.097-1.207v-1.1zM109.063 87.612v2.695c0 .533-.021.932-.066 1.193a1.744 1.744 0 0 1-.278.704c-.141.207-.329.38-.563.518s-.497.207-.789.207c-.315 0-.605-.085-.869-.256-.264-.17-.462-.4-.594-.692-.119.411-.323.728-.611.948s-.627.331-1.017.331c-.307 0-.604-.071-.895-.214s-.521-.338-.695-.584c-.173-.247-.279-.552-.319-.913-.024-.228-.04-.774-.046-1.643v-2.295h6.742zm-1.123 1.362h-1.56v.893c0 .53.008.86.023.988.027.233.108.417.241.55a.71.71 0 0 0 .526.2.747.747 0 0 0 .509-.172c.13-.115.209-.286.237-.514.015-.135.022-.522.022-1.163v-.782zm-2.681 0h-1.804v1.26c0 .491.015.803.042.935.037.202.126.367.269.494s.334.191.573.191c.202 0 .374-.05.515-.147.142-.099.244-.24.309-.426s.097-.588.097-1.207v-1.1zM82.553 226.104v-1.481l1.532-.589v-2.695l-1.532-.557v-1.444l6.743 2.627v1.439l-6.743 2.7zm2.668-2.507l2.503-.93-2.503-.91v1.84zM121.161 93.688v-1.481l1.532-.589v-2.695l-1.532-.557v-1.444l6.743 2.627v1.439l-6.743 2.7zm2.668-2.506l2.503-.93-2.503-.91v1.84zM115.558 107.072h1v29.767h-1zM73.391 24.367h.875v11.354h-.875zM76.451 37.949h11.354v.875H76.451z"/><path fill="#c66a56" d="M73.396 35.757l.619-.619 3.067 3.067-.618.62zM40.077 37.923h11.354v.875H40.077zM53.659 24.385h.875v11.354h-.875z"/><path fill="#c66a56" d="M50.852 38.179l3.067-3.067.619.618-3.067 3.068zM73.382 60.776h.875V72.13h-.875zM76.442 57.672h11.353v.875H76.442z"/><path fill="#c66a56" d="M73.381 60.74l3.068-3.067.618.618L74 61.36zM40.068 57.699h11.354v.875H40.068zM53.65 60.759h.875v11.354h-.875z"/><path fill="#c66a56" d="M50.839 58.318l.619-.62 3.067 3.068-.619.619z"/></svg>