<?xml version="1.0" encoding="utf-8"?>
<!-- Generator: Adobe Illustrator 22.0.0, SVG Export Plug-In . SVG Version: 6.00 Build 0)  -->
<svg version="1.1" id="Layer_1" xmlns="http://www.w3.org/2000/svg" xmlns:xlink="http://www.w3.org/1999/xlink" x="0px" y="0px"
	 viewBox="0 0 228.894 143.379" style="enable-background:new 0 0 228.894 143.379;" xml:space="preserve">
<g>
	<path style="fill:#231F20;" d="M228.894,3.214L228.894,3.214L228.894,3.214c0-1.78-1.432-3.214-3.213-3.214h-8.545L34.974,0v0
		H3.239v0l0,0c-1.78,0-3.214,1.432-3.214,3.213v9.738h0h0l0,0c0,1.78,1.432,3.214,3.213,3.214h11.003
		c1.781,0,3.213,1.434,3.213,3.214l0,0h0v43.327H3.214l0,0l0,0C1.434,62.707,0,64.139,0,65.921v74.244h0h0l0,0
		c0,1.78,1.432,3.214,3.213,3.214H225.68v0v0l0,0c1.78,0,3.214-1.432,3.214-3.213L228.894,3.214"/>
	<path style="fill:#5353F9;" d="M207.762,134.097H44.348c-6.6,0-12-5.4-12-12V12c0-6.6,5.4-12,12-12h163.413c6.6,0,12,5.4,12,12
		v110.097C219.762,128.697,214.362,134.097,207.762,134.097z"/>
	<rect x="181.547" y="114.238" style="fill:#26241E;" width="26.909" height="10.898"/>
	<path style="fill:#FFFFFF;" d="M206.326,115.772l-2.558,3.736l2.782,4.082h-2.569l-1.529-2.185l-1.541,2.191h-2.553
		c0.069-0.144,2.794-4.087,2.794-4.087l-1.161-1.616l-4.927,0.006c-0.23,0.018-0.511-0.052-0.627,0.208
		c-0.04,0.086-0.058,0.212-0.011,0.299c0.04,0.098,0.132,0.189,0.235,0.218l0.155,0.012h1.972c0.914,0.023,1.759,0.592,2.156,1.414
		c0.351,0.69,0.299,1.633-0.092,2.289c-0.494,0.833-1.374,1.299-2.328,1.265h-5.485c0,0-0.84-3.03-0.845-3.035l-0.845,3.035l-2,0
		l-0.805-3.047l-0.88,3.041h-2.213c0,0,2.035-7.324,2.167-7.807h1.869l0.879,3.266l0.897-3.266l1.834,0l1.57,5.687h3.656
		c0.252-0.012,0.603,0.057,0.707-0.253c0.04-0.139,0.006-0.282-0.092-0.38c-0.092-0.081-0.207-0.103-0.328-0.103l-1.966,0
		c-0.931-0.029-1.857-0.638-2.202-1.534c-0.374-0.897-0.155-1.973,0.529-2.667c0.483-0.484,1.058-0.725,1.731-0.754l6.45-0.006
		l1.3,1.874l1.345-1.879L206.326,115.772z"/>
	<circle style="fill:#1C1B15;" cx="17.001" cy="106.579" r="7.659"/>
	<path style="fill:#1C1B15;" d="M3.238,62.707V16.166h11.003c1.781,0,3.213,1.434,3.213,3.214v43.327H3.214"/>
	<path style="fill:#231F20;" d="M19.262,25.069H0.542c-0.284,0-0.517-0.233-0.517-0.517l0-3.489c0-0.284,0.232-0.517,0.517-0.517
		h18.72c0.284,0,0.517,0.233,0.517,0.517v3.489C19.778,24.837,19.546,25.069,19.262,25.069z"/>
	<path style="fill:#231F20;" d="M19.262,33.166H0.542c-0.284,0-0.517-0.232-0.517-0.517l0-3.489c0-0.284,0.232-0.517,0.517-0.517
		h18.72c0.284,0,0.517,0.233,0.517,0.517v3.489C19.778,32.933,19.546,33.166,19.262,33.166z"/>
	<path style="fill:#231F20;" d="M19.262,41.262H0.542c-0.284,0-0.517-0.233-0.517-0.517l0-3.489c0-0.284,0.232-0.517,0.517-0.517
		h18.72c0.284,0,0.517,0.233,0.517,0.517v3.489C19.778,41.03,19.546,41.262,19.262,41.262z"/>
	<path style="fill:#231F20;" d="M19.262,49.14H0.542c-0.284,0-0.517-0.233-0.517-0.517l0-3.489c0-0.284,0.232-0.517,0.517-0.517
		h18.72c0.284,0,0.517,0.233,0.517,0.517v3.489C19.778,48.908,19.546,49.14,19.262,49.14z"/>
	<path style="fill:#231F20;" d="M19.262,57.018H0.542c-0.284,0-0.517-0.233-0.517-0.517l0-3.489c0-0.284,0.232-0.517,0.517-0.517
		h18.72c0.284,0,0.517,0.233,0.517,0.517v3.489C19.778,56.785,19.546,57.018,19.262,57.018z"/>
</g>
</svg>
