<svg xmlns="http://www.w3.org/2000/svg" xmlns:xlink="http://www.w3.org/1999/xlink" viewBox="0 0 367.149 202.549"><path d="M174.051 144.058a59.515 59.515 0 0 0-5.31 0s-10.381.559-16.962 1.696c-10.39 1.79-20.578 4.739-30.136 9.304-12.34 5.885-20.129 16.027-25.176 28.414-2.138 5.242-4.699 10.014-9.632 13.158-9.914 6.308-20.136 6.623-30.599 1.562-8.922-4.31-16.228-10.745-22.857-17.944C17.205 162.7 6.326 142.329 1.815 118.835-1.677 100.657-.43 82.914 8.21 66.123c5.858-11.395 14.894-19.74 25.424-26.651 18.158-11.911 37.972-20.223 58.57-26.778 16.985-5.409 34.339-9.25 52.055-11.194C152.41.608 160.654.528 168.852.039l.393-.023c1.183-.008 3.12-.008 4.303 0l.393.023c8.198.489 16.442.57 24.593 1.461 17.716 1.944 35.07 5.785 52.055 11.194 20.598 6.555 40.412 14.867 58.57 26.778 10.53 6.911 19.566 15.256 25.424 26.651 8.64 16.791 9.887 34.534 6.395 52.712-4.511 23.494-15.39 43.864-31.564 61.413-6.629 7.199-13.935 13.634-22.857 17.944-10.463 5.061-20.685 4.746-30.599-1.562-4.933-3.144-7.494-7.916-9.632-13.158-5.047-12.387-12.836-22.529-25.176-28.414-9.558-4.565-19.747-7.514-30.136-9.304-6.58-1.137-16.963-1.696-16.963-1.696z" fill="#20211d"/><path d="M303.973 52.468c-6.448-1.012-12.809-.442-19.204.449-28.736 4.008-52.558 17.635-73.129 37.496-8.271 7.983-12.018 17.575-10.189 29.332 2.413 15.571 16.972 26.597 32.409 23.581 4.29-.838 8.426-2.849 12.414-4.779 6.106-2.943 11.864-6.663 18.064-9.377 14.639-6.408 29.406-12.541 44.213-18.54 13.104-5.315 19.559-14.371 19.827-28.548.289-15.27-9.665-27.295-24.405-29.614zm7.092 55.816c-.67.375-1.367.69-2.078.972-8.513 3.351-17.166 6.361-25.491 10.115-11.958 5.382-23.695 11.254-35.432 17.119-6.006 3.003-11.784 6.254-18.842 6.2-14.19-.114-25.357-10.604-26.906-24.754-1.347-12.313 3.881-21.496 12.555-29.232 13.547-12.085 28.219-22.441 45.52-28.622 8.613-3.07 24.969-7.132 36.102-6.931 7.856-.416 14.767 2.105 21.718 7.621 5.651 4.484 8.151 13.151 8.814 19.72.047.489.067.979.067 1.468-.034 7.294-1.006 17.958-16.027 26.324z" fill="#1a1a13"/><path d="M327.092 81.961c-.034 7.293-1.005 17.957-16.027 26.323-.67.375-1.367.69-2.078.972-8.513 3.351-17.166 6.361-25.491 10.115-11.958 5.382-23.695 11.254-35.432 17.119-6.006 3.003-11.784 6.254-18.842 6.2-14.19-.114-25.357-10.604-26.906-24.754-1.347-12.313 3.881-21.496 12.555-29.232 13.547-12.085 28.219-22.441 45.52-28.622 8.613-3.07 24.969-7.132 36.102-6.931 7.856-.416 14.767 2.105 21.718 7.621 5.651 4.484 8.151 13.151 8.814 19.72.047.49.067.98.067 1.469z" fill="#1e1f1a"/><path d="M258.534 49.981c-7.601 3.532-15.296 6.871-22.984 10.215-1.032.449-2.245.483-2.695.576-5.061-.047-8.459-2.876-9.424-7.253-.945-4.297.684-7.702 4.853-9.592 7.145-3.244 14.311-6.462 21.543-9.518 6.549-2.768 12.307.107 13.292 6.428.596 3.809-1.066 7.515-4.585 9.144z" fill="#1e1e17"/><path d="M257.528 40.071c1.11 2.053.607 4.483-2.515 5.835-6.747 3.228-13.539 6.362-20.325 9.508-.64.297-1.325.557-2.017.673-1.988.332-4.093-.864-4.716-2.7-.664-1.957.093-3.487 1.665-4.661.493-.368 14.828-6.731 21.438-9.619 3.684-1.759 5.72-.423 6.47.964z" fill="#b7b7b7"/><g fill="#aba9a7"><path d="M232.861 39.504c-.23.097-.441.152-.639.165a1.29 1.29 0 0 1-.535-.069 1.124 1.124 0 0 1-.426-.27 1.518 1.518 0 0 1-.304-.448l.579-.246a.797.797 0 0 0 .208.262.777.777 0 0 0 .262.134.785.785 0 0 0 .295.019c.101-.014.204-.042.305-.086a1.17 1.17 0 0 0 .254-.141.837.837 0 0 0 .171-.171.465.465 0 0 0 .075-.188.37.37 0 0 0-.029-.195.337.337 0 0 0-.117-.149.401.401 0 0 0-.2-.061 1.287 1.287 0 0 0-.308.012 6.27 6.27 0 0 0-.445.079 3.28 3.28 0 0 1-.532.058 1.266 1.266 0 0 1-.408-.053.747.747 0 0 1-.296-.176.894.894 0 0 1-.203-.306.875.875 0 0 1-.074-.407.938.938 0 0 1 .114-.397c.069-.125.165-.241.288-.349a1.69 1.69 0 0 1 .45-.272c.182-.077.36-.125.532-.138.171-.015.332.001.483.048.148.048.283.125.402.234.122.108.219.249.297.42l-.574.243c-.196-.347-.495-.436-.892-.267-.195.082-.328.179-.404.288a.333.333 0 0 0-.04.336.232.232 0 0 0 .086.106c.036.024.086.04.148.048a.874.874 0 0 0 .223-.001c.087-.009.191-.025.309-.05.105-.021.213-.039.322-.058.112-.019.222-.032.332-.04a1.94 1.94 0 0 1 .325.008c.106.014.205.04.3.082a.857.857 0 0 1 .451.482 1 1 0 0 1 .083.443c-.01.148-.049.289-.119.423-.07.134-.169.256-.296.37a1.723 1.723 0 0 1-.453.278zM235.896 35.028l-.994.423 1.124 2.65-.6.254-1.124-2.65-.992.421-.234-.552 2.586-1.098.234.552zM240.231 36.316l-.666.283-.74-.767-1.119.476.055 1.057-.632.268-.129-3.724.569-.241 2.662 2.648zm-1.806-.913l-.819-.85.064 1.171.755-.321zM243.35 34.992l-.644.273-.675-.741a.685.685 0 0 0-.342-.206.677.677 0 0 0-.197-.018.572.572 0 0 0-.201.047l-.641.272.547 1.286-.597.254-1.359-3.201 1.434-.609c.086-.036.167-.07.247-.099a1.226 1.226 0 0 1 .466-.088.852.852 0 0 1 .439.133.951.951 0 0 1 .173.134 1.124 1.124 0 0 1 .246.359.946.946 0 0 1 .07.561.98.98 0 0 1-.252.489c.179.046.361.162.543.351l.743.803zm-2.935-.922l.794-.337c.108-.045.196-.091.266-.139a.535.535 0 0 0 .157-.153.332.332 0 0 0 .051-.178.595.595 0 0 0-.052-.214c-.06-.143-.148-.229-.266-.258-.117-.029-.267-.005-.45.074l-.857.363.357.842zM245.131 31.109l-.996.422 1.126 2.65-.6.254-1.124-2.65-.992.421-.234-.552 2.586-1.097.234.552z"/></g><path d="M129.523 93.218c0 29.229-23.655 52.923-52.835 52.923s-52.835-23.695-52.835-52.923 23.655-52.923 52.835-52.923 52.835 23.694 52.835 52.923zM76.688 50.331c-23.648 0-42.818 19.21-42.818 42.907s19.17 42.907 42.818 42.907 42.818-19.21 42.818-42.907-19.17-42.907-42.818-42.907z" fill="#1e1e17"/><g fill="#a9a6a5"><path d="M76.688 41.126l-3.783 8.232h7.567z"/><circle cx="41.968" cy="60.719" r="1.772"/><circle cx="111.408" cy="60.719" r="1.772"/><circle cx="111.408" cy="125.717" r="1.772"/><circle cx="41.968" cy="125.717" r="1.772"/><path d="M24.596 93.218l8.233 3.783v-7.567zM76.688 145.31l3.784-8.233h-7.567zM128.781 92.979l-8.233-3.783v7.567z"/></g><path fill="#aeabac" d="M126.639 61.523l5.502 3.525h78.511l5.503-3.525v-7.772l-5.202-3.345H185.1l-4.658-7.291H161.89l-4.604 7.291h-25.471l-5.176 3.315z"/><g fill="#20211d"><path d="M167.75 48.637c0 .382.281.684.619.68h2.527v-.851h-2.373v-.239h1.87v-.847h-2.639l-.004 1.257zM167.754 45.831c0-.352.274-.679.615-.677h2.527v.847h-2.373v.239h1.87v.858h-2.643l.004-1.267zM184.636 56.733h8.01v3.525l-2.86 2.139h-8.841l2.929-2.169h5.175v-1.326h-8.009v-3.45l2.957-2.214h8.826l-2.915 2.169h-5.272zM193.763 53.238h3.596v9.159h-3.596zM202.344 56.733h8.009v3.525l-2.861 2.139h-8.84l2.929-2.169h5.176v-1.326h-8.009v-3.45l2.955-2.214h8.827l-2.915 2.169h-5.271z"/><path d="M173.25 60.228v-1.326h3.445l2.929-2.169h-6.374v-1.326h5.189l2.915-2.169h-8.567l-3.133 2.125v7.034h8.717l2.942-2.169zM148.078 60.228v-1.326h3.447l2.928-2.169h-6.375v-1.326h5.19l2.915-2.169h-8.568l-3.132 2.125v7.034h8.717l2.942-2.169zM165.05 59.355l-4.468-3.074v6.116h-3.596v-9.159h3.65l4.414 2.681v-2.681h3.596v9.159h-3.596zM135.493 55.407v4.821h4.467v-1.326h-3.65l2.915-2.169h4.331v3.616l-2.751 2.048h-8.908v-6.929l2.983-2.23h9.752l-2.901 2.169zM168.279 44.012c-.858 0-1.554.769-1.554 1.718v3.007c0 .948.696 1.718 1.554 1.718h2.618v-.847h-2.553c-.45 0-.85-.472-.85-.97v-2.809c0-.498.399-.958.85-.958h2.553v-.858h-2.618v-.001zM173.235 48.489v-2.488h2.496v-.847h-2.636c-.341-.002-.615.325-.615.677l-.003 2.806c0 .382.281.684.618.68h1.608l-.004-1.951h-1.21v.839h.447v.284h-.701zM165.985 44.004h-2.508c-1.057 0-1.914.947-1.914 2.116s.857 2.094 1.914 2.084h.764v.286h-2.661v.828h2.574c.484 0 .876-.434.876-.969 0-.535-.393-.962-.876-.962l-.667-.003c-.628 0-1.137-.563-1.137-1.257s.509-1.257 1.137-1.257h2.499l-.001-.866z"/><path d="M165.985 45.978h-2.607v.284l.782.002c1.057 0 1.914.925 1.914 2.093 0 1.169-.857 2.096-1.914 2.096l-2.58-.006v-.842h2.574c.628 0 1.137-.562 1.137-1.257s-.509-1.25-1.137-1.25l-.667-.003c-.484 0-.876-.434-.876-.969 0-.535.393-.969.876-.969h2.499l-.001.821zM178.648 45.009c-.031-.081-.042-.1-.126-.1-.084 0-.104.048-.136.129l-1.59 5.416.837.001.899-3.003.296 1.014h-.594v.854h1.689l-1.275-4.311z"/><path d="M173.005 50.454c-.858 0-1.554-.769-1.554-1.718V45.73c0-.948.696-1.718 1.554-1.718h2.727v.858h-2.661c-.451 0-.85.46-.85.958v2.809c0 .498.399.97.85.97h1.885v-2.526h-1.466v-.841h2.245v4.017l1.599-5.472c.172-.542.639-.931 1.188-.931.561 0 1.037.406 1.198.967l1.661 5.635h-3.147v-.847h2.044l-1.386-4.7c-.081-.258-.226-.289-.37-.289-.151 0-.29.069-.369.305l-1.627 5.531-3.521-.002z"/></g><path d="M307.673 102.781c-10.611 4.236-21.403 8.064-31.812 12.736-11.067 4.967-21.832 10.624-32.63 16.168-8.385 4.236-11.154 4.042-17.575 2.929-4.665-.811-11.992-5.329-14.894-11.455-1.602-3.378-2.319-7.125-1.964-10.845.818-8.466 5.202-13.419 10.731-17.039 20.317-13.305 42.363-22.931 65.072-31.202 3.921-1.428 7.909-3.036 11.998-3.613 13.372-1.89 24.318 7.601 24.875 21.148.423 10.408-4.021 17.271-13.801 21.173z" fill="#1a1b15"/><path d="M225.789 90.082l-1.023.488-1.648-1.072-3.879 1.851-.159 1.934-1.067.509.584-6.779 1.506-.719 5.686 3.788zm-3.476-1.232l-2.247-1.521-.66.315-.136 2.659 3.043-1.453zM256.765 69.509c.287-.27.328-.673.136-1.21l-.206-.463c-.426-.902-1.166-1.101-2.212-.607l-4.729 2.233.409.892 1.701 3.603.436.897 4.729-2.233c1.046-.494 1.361-1.197.937-2.094l-.226-.454c-.249-.395-.57-.584-.975-.564zm-.089 2.187l-.613.289-3.299 1.545-.638-1.35 3.334-1.574.578-.261c.399-.188.704-.058.913.385.215.455.124.778-.275.966zm-1.068-2.262l-3.907 1.844-.638-1.35 3.907-1.844c.399-.188.706-.053.92.4.213.448.117.762-.282.95zM289.723 55.414l-2.296.946c-1.54.627-1.153 1.187-.65 2.415s.617 1.896 2.152 1.267l4.062-1.664.377.921-4.055 1.666c-2.146.882-2.69.034-3.445-1.808-.755-1.843-.973-2.835 1.156-3.714l4.081-1.671.374.914-1.756.728z" fill="#b0aead"/><circle cx="266.21" cy="96.469" r="15.261" fill="#181810"/><circle cx="266.21" cy="96.469" r="13.226" fill="#2c2b25"/><path d="M269.337 94.913c.319-.3.365-.748.151-1.344l-.229-.515c-.473-1.002-1.295-1.223-2.458-.674l-5.254 2.481.454.991 1.89 4.003.484.997 5.254-2.481c1.163-.549 1.512-1.33 1.041-2.326l-.252-.504c-.274-.44-.631-.651-1.081-.628zm-.098 2.43l-.681.322-3.665 1.717-.708-1.5 3.704-1.749.642-.29c.443-.209.782-.065 1.015.428.237.503.136.863-.307 1.072zm-1.187-2.514l-4.341 2.049-.708-1.5 4.341-2.049c.443-.209.785-.059 1.023.445.234.498.128.846-.315 1.055z" fill="#191a13"/><circle cx="269.67" cy="103.516" r="1.413" fill="#1e1e17"/><circle cx="231.339" cy="113.797" r="15.261" fill="#181810"/><circle cx="231.339" cy="113.797" r="13.226" fill="#2c2b25"/><path d="M236.892 113.172l-1.136.542-1.831-1.191-4.31 2.057-.176 2.149-1.186.566.648-7.533 1.673-.798 6.318 4.208zm-3.862-1.369l-2.497-1.69-.733.35-.151 2.955 3.381-1.615z" fill="#191a13"/><circle cx="300.947" cy="82.051" r="15.261" fill="#181810"/><circle cx="300.947" cy="82.051" r="13.226" fill="#2c2b25"/><path d="M302.602 79.683l-2.551 1.051c-1.711.697-1.281 1.318-.722 2.683.559 1.365.685 2.107 2.391 1.408l4.514-1.849.419 1.024-4.506 1.851c-2.384.98-2.989.038-3.827-2.009-.839-2.047-1.081-3.15 1.284-4.127l4.534-1.857.416 1.015-1.952.81z" fill="#191a13"/><g fill="#aba9a7"><path d="M272.37 130.128l-1.241.572 1.523 3.305-.748.345-1.523-3.306-1.236.569-.317-.685 3.226-1.486.316.686zM277.942 131.569l-.802.37-.88-.911a.881.881 0 0 0-.206-.156.824.824 0 0 0-.486-.105.735.735 0 0 0-.252.066l-.8.369.739 1.606-.744.343-1.839-3.993 1.789-.823a5.57 5.57 0 0 1 .309-.134 1.7 1.7 0 0 1 .292-.093c.097-.023.196-.035.293-.036a.968.968 0 0 1 .301.042 1.186 1.186 0 0 1 .482.273 1.472 1.472 0 0 1 .322.444c.113.243.152.48.114.709a1.252 1.252 0 0 1-.302.624c.23.051.463.193.7.424l.97.981zm-3.742-1.053l.991-.457c.134-.062.244-.122.331-.186a.663.663 0 0 0 .192-.199.392.392 0 0 0 .056-.227.734.734 0 0 0-.071-.269c-.083-.177-.197-.282-.347-.314-.149-.031-.339.004-.569.109l-1.067.492.484 1.051zM279.427 130.885l-.74.341-1.839-3.992.741-.343 1.838 3.994zM282.126 129.719a2.278 2.278 0 0 1-.861.217 1.934 1.934 0 0 1-.804-.138c-.253-.103-.484-.257-.694-.467s-.387-.471-.53-.78c-.145-.317-.231-.622-.253-.919s.009-.574.097-.83c.086-.254.226-.486.417-.691.192-.204.43-.373.714-.502a2.29 2.29 0 0 1 .715-.205 1.93 1.93 0 0 1 .678.038c.217.053.413.147.592.279.179.131.328.302.448.513l-.765.353a.966.966 0 0 0-.241-.287c-.095-.073-.2-.121-.317-.148s-.241-.031-.375-.012a1.481 1.481 0 0 0-.421.13 1.297 1.297 0 0 0-.432.31 1.109 1.109 0 0 0-.244.44 1.399 1.399 0 0 0-.039.547c.023.197.086.409.19.632.1.219.219.401.354.548.136.147.284.257.443.33.158.073.323.108.496.105.173-.003.347-.044.521-.123.248-.116.444-.248.588-.402a1.2 1.2 0 0 0 .288-.547l-.192-.418-.989.456-.317-.687 1.725-.794.992 2.155-.572.264-.226-.243c-.086.179-.21.343-.373.488a2.508 2.508 0 0 1-.613.388zM286.585 127.666c-.289.134-.576.205-.861.215s-.552-.035-.804-.136a2.104 2.104 0 0 1-.695-.469 2.622 2.622 0 0 1-.53-.78 2.702 2.702 0 0 1-.253-.918 2.062 2.062 0 0 1 .097-.83c.087-.254.226-.487.417-.692.192-.204.43-.371.714-.502.238-.109.476-.178.715-.205.238-.027.465-.014.679.039.216.053.412.147.591.278.178.132.328.304.448.514l-.765.352a.975.975 0 0 0-.241-.286.795.795 0 0 0-.315-.148 1.023 1.023 0 0 0-.376-.012 1.52 1.52 0 0 0-.421.129c-.173.08-.318.184-.432.312a1.112 1.112 0 0 0-.244.439 1.387 1.387 0 0 0-.038.548c.022.197.084.408.187.631.101.221.221.402.356.548.136.148.284.257.443.33.157.073.323.109.496.106.173-.003.347-.044.521-.125a1.84 1.84 0 0 0 .588-.401 1.2 1.2 0 0 0 .288-.547l-.192-.418-.989.454-.317-.685 1.725-.794.992 2.155-.574.264-.226-.244c-.086.18-.209.343-.371.489a2.472 2.472 0 0 1-.613.389zM292.293 124.959l-3.051 1.406-1.84-3.993 2.965-1.366.317.687-2.22 1.022.415.904 2.077-.958.313.682-2.077.957.478 1.036 2.307-1.062.316.685zM296.522 123.01l-.802.37-.88-.91a.894.894 0 0 0-.441-.248.841.841 0 0 0-.251-.014.75.75 0 0 0-.253.068l-.798.369.739 1.605-.744.343-1.838-3.993 1.786-.823c.108-.049.21-.093.309-.134.099-.04.196-.071.293-.093.096-.022.195-.035.293-.036a.97.97 0 0 1 .3.042c.091.027.177.064.257.108a1.37 1.37 0 0 1 .409.371c.055.075.101.156.139.238.112.243.151.48.113.709a1.259 1.259 0 0 1-.301.624c.23.052.462.193.698.424l.972.98zm-3.743-1.052l.992-.457a1.82 1.82 0 0 0 .33-.186.647.647 0 0 0 .192-.197.408.408 0 0 0 .057-.228.693.693 0 0 0-.073-.267c-.082-.179-.197-.283-.347-.315-.148-.031-.337.004-.567.11l-1.067.491.483 1.049z"/></g><ellipse cx="76.688" cy="93.218" rx="42.818" ry="42.907" fill="#20211d"/><path d="M43.318 93.066c.023-18.549 14.862-33.275 33.491-33.235 18.269.039 33.288 15.088 33.251 33.319-.037 18.421-15.105 33.484-33.467 33.456-18.451-.029-33.298-14.994-33.275-33.54zm33.4-31.423c-17.709-.018-31.516 13.675-31.583 31.322-.068 17.764 13.785 31.781 31.436 31.811 17.657.03 31.652-13.963 31.662-31.657.01-17.484-13.981-31.458-31.515-31.476z" fill="#0a0a0a"/><path d="M76.722 61.651c-17.709-.018-31.516 13.675-31.583 31.322-.068 17.764 13.785 31.781 31.436 31.811 17.657.03 31.652-13.963 31.662-31.657.011-17.484-13.98-31.458-31.515-31.476z" fill="#373735"/><g fill="#292b27"><path d="M56.709 73.272l2.345 4.895 2.551-2.551zM56.709 112.986l4.896-2.344-2.551-2.551zM96.311 113.164l-2.344-4.895-2.551 2.551zM96.667 73.501l-4.895 2.344 2.551 2.551z"/></g><path d="M106.086 93.218a137.986 137.986 0 0 1-.053 4.272c-.067 2.158-1.186 3.13-3.378 3.291-2.835.208-5.698.476-8.459 1.106-4.786 1.086-7.829 4.209-8.895 8.989-.583 2.601-.851 5.282-1.079 7.936-.248 2.889-.858 3.707-3.673 3.801a115.36 115.36 0 0 1-3.859.069 115.313 115.313 0 0 1-3.859-.069c-2.815-.094-3.425-.912-3.673-3.801-.228-2.654-.496-5.336-1.079-7.936-1.066-4.779-4.109-7.903-8.895-8.989-2.762-.63-5.624-.898-8.459-1.106-2.192-.161-3.311-1.133-3.378-3.291a138.064 138.064 0 0 1-.053-4.272c.001-1.426.008-2.854.053-4.272.067-2.158 1.186-3.13 3.378-3.291 2.835-.208 5.698-.476 8.459-1.106 4.786-1.086 7.829-4.209 8.895-8.989.583-2.601.851-5.282 1.079-7.936.248-2.889.858-3.707 3.673-3.801a115.36 115.36 0 0 1 3.859-.069c1.288.002 2.575.024 3.859.069 2.815.094 3.425.912 3.673 3.801.228 2.654.496 5.336 1.079 7.936 1.066 4.779 4.109 7.903 8.895 8.989 2.762.63 5.624.898 8.459 1.106 2.192.161 3.311 1.133 3.378 3.291.044 1.418.052 2.846.053 4.272z" fill="#1d1d17"/><g fill="#26251f"><path d="M48.807 87.004h55.762v12.541H48.807z"/><path d="M70.418 121.1V65.336h12.54V121.1z"/></g><path d="M82.865 93.215a6.176 6.176 0 1 1-12.353 0 6.175 6.175 0 0 1 6.18-6.173 6.169 6.169 0 0 1 6.173 6.173z" fill="#1a1b15"/><g><path d="M362.373 159.197H291.41a3.779 3.779 0 0 0-3.778 3.779v34.63a3.779 3.779 0 0 0 3.778 3.779h70.963a3.778 3.778 0 0 0 3.778-3.779v-34.63a3.779 3.779 0 0 0-3.778-3.779" fill="#f4f4f4"/><path d="M291.41 159.197v.998h70.963a2.785 2.785 0 0 1 2.78 2.781v34.63a2.785 2.785 0 0 1-2.78 2.781H291.41a2.786 2.786 0 0 1-2.78-2.781v-34.63a2.786 2.786 0 0 1 2.78-2.781v-1.996a4.779 4.779 0 0 0-4.777 4.778v34.63a4.779 4.779 0 0 0 4.777 4.778h70.963a4.778 4.778 0 0 0 4.777-4.778v-34.63a4.779 4.779 0 0 0-4.777-4.778H291.41v.998z" fill="#35495e"/><path d="M348.198 183.722h-6.492l-1.458 4.044h-2.107l5.918-15.496h1.788l5.928 15.496h-2.097l-1.48-4.044zm-5.875-1.682h5.269l-2.64-7.248-2.629 7.248z" fill="#35495e"/><defs><path id="c" d="M290.09 162.111h36.76v36.759h-36.76v-36.759"/></defs><clipPath id="d"><use xlink:href="#c" overflow="visible"/></clipPath><path d="M320.076 184.871a5.076 5.076 0 1 1 0-10.152 5.076 5.076 0 0 1 0 10.152m-10.683-8.329a5.075 5.075 0 0 1-5.076-5.077 5.076 5.076 0 1 1 5.076 5.077m-1.829 18.166a5.076 5.076 0 1 1 0-10.152 5.076 5.076 0 0 1 0 10.152m-10.553-8.542a5.075 5.075 0 0 1-5.076-5.077c0-2.803 2.272-5.075 5.076-5.075s5.076 2.272 5.076 5.075a5.075 5.075 0 0 1-5.076 5.077m11.529-24.055c-10.133 0-18.348 8.214-18.348 18.348 0 10.133 8.215 18.348 18.348 18.348 10.134 0 18.349-8.215 18.349-18.348-.001-10.135-8.216-18.348-18.349-18.348" clip-path="url(#d)" fill="#35495e"/><path d="M311.154 189.631a3.59 3.59 0 1 1-7.18 0 3.59 3.59 0 0 1 7.18 0M300.792 181.09a3.78 3.78 0 1 1-7.56.001 3.78 3.78 0 0 1 7.56-.001M312.976 171.568a3.59 3.59 0 1 1-7.18 0 3.59 3.59 0 0 1 7.18 0" clip-path="url(#d)" fill="#35495e"/><path d="M277.998 159.197h-70.962a3.78 3.78 0 0 0-3.779 3.779v34.63a3.78 3.78 0 0 0 3.779 3.779h70.962a3.778 3.778 0 0 0 3.778-3.779v-34.63a3.779 3.779 0 0 0-3.778-3.779" fill="#f4f4f4"/><path d="M207.036 159.197v.998h70.962a2.785 2.785 0 0 1 2.78 2.781v34.63a2.785 2.785 0 0 1-2.78 2.781h-70.962a2.786 2.786 0 0 1-2.781-2.781v-34.63a2.786 2.786 0 0 1 2.781-2.781v-1.996a4.779 4.779 0 0 0-4.778 4.778v34.63a4.779 4.779 0 0 0 4.778 4.778h70.962a4.778 4.778 0 0 0 4.777-4.778v-34.63a4.779 4.779 0 0 0-4.777-4.778h-70.962v.998z" fill="#35495e"/><path d="M255.266 187.766V172.27h5.066c1.682 0 2.944.348 3.789 1.043.852.695 1.276 1.724 1.276 3.086a3.17 3.17 0 0 1-.617 1.927c-.411.554-.972.982-1.682 1.288.838.233 1.497.681 1.98 1.341.489.652.734 1.434.734 2.342 0 1.391-.451 2.483-1.353 3.277-.9.795-2.174 1.192-3.82 1.192h-5.373zm2.044-7.248v5.577h3.374c.95 0 1.699-.245 2.245-.734.554-.497.83-1.178.83-2.044 0-1.865-1.015-2.799-3.044-2.799h-3.405zm0-1.639h3.086c.895 0 1.607-.224 2.14-.671.539-.447.809-1.054.809-1.82 0-.851-.248-1.469-.745-1.852-.496-.39-1.252-.585-2.267-.585h-3.022v4.928z" fill="#35495e"/><defs><path id="e" d="M205.076 161.625h37.545v37.544h-37.545v-37.544"/></defs><clipPath id="f"><use xlink:href="#e" overflow="visible"/></clipPath><path d="M235.701 184.871a5.186 5.186 0 1 1 .002-10.372 5.186 5.186 0 0 1-.002 10.372m-10.91-8.506a5.185 5.185 0 1 1 0-10.372 5.185 5.185 0 0 1 0 10.372m-1.869 18.552a5.184 5.184 0 1 1-.001-10.369 5.184 5.184 0 0 1 .001 10.369m-10.777-8.722a5.186 5.186 0 1 1 0-10.371 5.186 5.186 0 0 1 0 10.371m11.774-24.57c-10.35 0-18.739 8.389-18.739 18.739 0 10.349 8.39 18.739 18.739 18.739s18.739-8.391 18.739-18.739c.001-10.35-8.39-18.739-18.739-18.739" clip-path="url(#f)" fill="#35495e"/><path d="M239.403 179.686a3.702 3.702 0 1 1-7.403.003 3.702 3.702 0 0 1 7.403-.003M216.006 181.009a3.863 3.863 0 1 1-7.72 0 3.863 3.863 0 0 1 7.72 0M228.45 171.284a3.666 3.666 0 1 1-7.332 0 3.666 3.666 0 0 1 7.332 0" clip-path="url(#f)" fill="#35495e"/><path d="M201.672 94.905H130.71a3.777 3.777 0 0 0-3.778 3.778v34.63a3.777 3.777 0 0 0 3.778 3.778h70.962a3.777 3.777 0 0 0 3.778-3.778v-34.63a3.777 3.777 0 0 0-3.778-3.778" fill="#f4f4f4"/><path d="M130.71 94.905v.32h70.962a3.462 3.462 0 0 1 3.458 3.458v34.63a3.462 3.462 0 0 1-3.458 3.458H130.71a3.462 3.462 0 0 1-3.458-3.458v-34.63a3.462 3.462 0 0 1 3.458-3.458v-.64a4.098 4.098 0 0 0-4.098 4.098v34.63a4.098 4.098 0 0 0 4.098 4.098h70.962a4.098 4.098 0 0 0 4.098-4.098v-34.63a4.098 4.098 0 0 0-4.098-4.098H130.71v.32z" fill="#35495e"/><path fill="#35495e" d="M183.666 115.757l4.044-7.779h2.321l-5.343 9.717v5.779h-2.043v-5.779l-5.343-9.717h2.342z"/><defs><path id="g" d="M128.355 97.037h38.298v38.297h-38.298V97.037"/></defs><clipPath id="h"><use xlink:href="#g" overflow="visible"/></clipPath><path d="M159.594 120.749a5.29 5.29 0 1 1 .001-10.58 5.29 5.29 0 0 1-.001 10.58m-11.129-8.676a5.29 5.29 0 1 1 0-10.579 5.29 5.29 0 0 1 0 10.579m-1.905 18.924a5.289 5.289 0 1 1 0-10.578 5.289 5.289 0 0 1 0 10.578m-10.994-8.898a5.288 5.288 0 1 1 0-10.577 5.288 5.288 0 1 1 0 10.577m12.011-25.062c-10.557 0-19.115 8.558-19.115 19.115 0 10.557 8.558 19.114 19.115 19.114 10.557 0 19.115-8.558 19.115-19.114-.001-10.557-8.559-19.115-19.115-19.115" clip-path="url(#h)" fill="#35495e"/><path d="M163.371 115.46a3.776 3.776 0 1 1-7.552.002 3.776 3.776 0 0 1 7.552-.002M150.299 125.708a3.74 3.74 0 1 1-7.481-.001 3.74 3.74 0 0 1 7.481.001M152.198 106.89a3.74 3.74 0 1 1-7.48 0 3.74 3.74 0 0 1 7.48 0" clip-path="url(#h)" fill="#35495e"/><path d="M203.197 23.916H86.137a3.764 3.764 0 0 0-3.764 3.764v34.497a3.764 3.764 0 0 0 3.764 3.764h117.06a3.764 3.764 0 0 0 3.764-3.764V27.68a3.765 3.765 0 0 0-3.764-3.764" fill="#f4f4f4"/><path d="M86.137 23.916v1.255h117.06a2.514 2.514 0 0 1 2.509 2.509v34.497a2.513 2.513 0 0 1-2.509 2.509H86.137a2.514 2.514 0 0 1-2.509-2.509V27.68a2.513 2.513 0 0 1 2.509-2.509v-2.51a5.02 5.02 0 0 0-5.019 5.019v34.497a5.02 5.02 0 0 0 5.019 5.019h117.06a5.02 5.02 0 0 0 5.019-5.019V27.68a5.02 5.02 0 0 0-5.019-5.019H86.137v1.255z" fill="#35495e"/><path d="M117.741 41.686h1.435v-6.063h2.557v-1.127h-6.548v1.127h2.557l-.001 6.063zm-8.694-3.966v-2.097h2.477c.753 0 1.223.292 1.223 1.037 0 .806-.431 1.061-1.223 1.061h-2.477zm-1.431 3.966h1.431v-2.839h2.438c1.051 0 1.186.725 1.186 1.751 0 .525.068.888.173 1.088h1.549c-.281-.394-.29-1.196-.29-1.542 0-1.017-.18-1.762-.992-1.94v-.021c.642-.21 1.125-.795 1.125-1.733 0-1.117-.562-1.95-2.3-1.95h-4.317l-.003 7.186zm-8.865 0h1.548l.706-1.782h3.21l.716 1.782h1.599l-3.038-7.19h-1.7l-3.041 7.19zm2.686-2.909l1.184-3.035 1.166 3.035h-2.35zm-6.716 2.909h1.431v-6.063h2.562v-1.127H92.16v1.127h2.561v6.063zm-9.783-5.168c0 2.949 5.025 1.396 5.025 3.181 0 .79-.812 1.062-1.68 1.062-1.176 0-1.919-.455-1.958-1.404h-1.547c.021 1.513 1.003 2.532 3.461 2.532 1.452 0 3.272-.485 3.272-2.34 0-3.072-5.082-1.451-5.082-3.141 0-.674.631-.986 1.585-.986 1.193 0 1.672.603 1.722 1.158h1.547c-.183-2.087-2.283-2.286-3.336-2.286-1.663 0-3.009.622-3.009 2.224M117.893 45.248H88.588c-2.118 0-3.836 1.768-3.836 3.948 0 2.18 1.718 3.948 3.836 3.948h29.305c2.118 0 3.835-1.767 3.835-3.948s-1.717-3.948-3.835-3.948zM138.867 45.496c-1.752-.504-3.029-1.121-3.831-1.852-.795-.738-1.192-1.646-1.192-2.725 0-1.22.486-2.228 1.458-3.022.979-.802 2.25-1.203 3.811-1.203 1.064 0 2.011.206 2.841.617.837.412 1.483.979 1.938 1.703.461.724.691 1.515.691 2.374h-2.054c0-.937-.298-1.671-.894-2.203-.596-.54-1.437-.809-2.522-.809-1.008 0-1.795.224-2.363.67-.561.44-.841 1.054-.841 1.841 0 .631.266 1.167.798 1.607.539.433 1.451.831 2.735 1.192 1.292.362 2.299.763 3.023 1.203.73.433 1.27.94 1.618 1.522.354.582.532 1.266.532 2.054 0 1.256-.49 2.264-1.469 3.023-.979.752-2.289 1.128-3.927 1.128a7.345 7.345 0 0 1-2.98-.606c-.922-.412-1.636-.972-2.14-1.682-.497-.709-.745-1.515-.745-2.416h2.054c0 .937.344 1.678 1.033 2.225.695.539 1.621.809 2.778.809 1.078 0 1.905-.22 2.479-.66s.862-1.04.862-1.799-.266-1.345-.798-1.756c-.533-.419-1.497-.83-2.895-1.235zM157.95 38.589h-4.981v13.815h-2.033V38.589h-4.97v-1.682h11.984zM167.976 48.359h-6.492l-1.458 4.044h-2.107l5.917-15.496h1.788l5.928 15.496h-2.096l-1.48-4.044zm-5.875-1.681h5.268l-2.639-7.248-2.629 7.248zM179.321 46.135h-3.64v6.269h-2.054V36.907h5.13c1.746 0 3.086.397 4.023 1.192.944.795 1.416 1.951 1.416 3.47 0 .965-.263 1.806-.788 2.522-.518.717-1.242 1.252-2.171 1.607l3.64 6.578v.127h-2.192l-3.364-6.268zm-3.64-1.671h3.14c1.015 0 1.82-.263 2.416-.788.603-.525.904-1.228.904-2.107 0-.958-.287-1.692-.862-2.203-.568-.511-1.391-.77-2.469-.777h-3.129v5.875zM196.903 38.589h-4.981v13.815h-2.033V38.589h-4.97v-1.682h11.984z" fill="#35495e"/><path d="M135.256 159.275H20.82a3.765 3.765 0 0 0-3.765 3.765v34.503a3.765 3.765 0 0 0 3.765 3.765h114.436a3.765 3.765 0 0 0 3.765-3.765V163.04a3.765 3.765 0 0 0-3.765-3.765" fill="#f4f4f4"/><path d="M20.82 159.275v1.242h114.436a2.527 2.527 0 0 1 2.523 2.523v34.503a2.527 2.527 0 0 1-2.523 2.523H20.82a2.527 2.527 0 0 1-2.523-2.523V163.04a2.527 2.527 0 0 1 2.523-2.523v-2.484a5.007 5.007 0 0 0-5.006 5.007v34.503a5.006 5.006 0 0 0 5.006 5.006h114.436a5.006 5.006 0 0 0 5.006-5.006V163.04a5.008 5.008 0 0 0-5.006-5.007H20.82v1.242z" fill="#35495e"/><path d="M41.539 199.171h-7.201c-2.318 0-3.158-1.89-3.158-3.16v-8.842h-8.844c-2.319 0-3.16-1.89-3.16-3.16v-7.2c0-2.317 1.891-3.159 3.16-3.159h8.844v-8.843c0-2.319 1.889-3.16 3.158-3.16h7.201c2.319 0 3.16 1.89 3.16 3.16v8.843h8.841c1.216 0 2.181.531 2.718 1.499.209.379.462 1.126.435 1.659h.007v7.199c0 2.319-1.89 3.161-3.16 3.161h-8.841v8.842c0 2.319-1.889 3.161-3.16 3.161zm-19.204-24.004c-.38.007-1.641.141-1.641 1.641v7.199c.006.381.141 1.642 1.641 1.642h10.362v10.361c.005.381.141 1.642 1.639 1.642h7.198c.389-.006 1.645-.145 1.645-1.642v-10.36h10.36c.381-.006 1.641-.142 1.641-1.641v-7.211c-.005-.291-.113-1.63-1.64-1.63H43.181v-10.361c-.006-.381-.141-1.642-1.642-1.642h-7.201c-.38.006-1.639.141-1.639 1.642v10.36H22.335z" fill="#35495e"/><path d="M37.94 184.107a3.7 3.7 0 0 1-3.695-3.697 3.7 3.7 0 0 1 3.695-3.695 3.7 3.7 0 0 1 3.696 3.695 3.701 3.701 0 0 1-3.696 3.697zm0-5.874a2.18 2.18 0 0 0-2.176 2.177 2.18 2.18 0 0 0 2.176 2.179 2.18 2.18 0 0 0 2.177-2.179 2.18 2.18 0 0 0-2.177-2.177zM37.939 164.869l-3.043 4.744h6.088z" fill="#35495e"/><path d="M40.983 170.372h-6.088a.762.762 0 0 1-.64-1.17l3.043-4.743c.279-.437 1-.436 1.278 0l3.045 4.743c.15.233.161.53.027.774a.756.756 0 0 1-.665.396zm-4.698-1.519h3.308l-1.654-2.577-1.654 2.577zM22.34 180.409l4.743 3.042v-6.086z" fill="#35495e"/><path d="M27.083 184.211a.767.767 0 0 1-.41-.12l-4.743-3.042a.758.758 0 0 1 0-1.279l4.743-3.044a.76.76 0 1 1 1.17.639v6.086a.761.761 0 0 1-.76.76zm-3.337-3.802l2.577 1.653v-3.307l-2.577 1.654zM53.481 180.408l-4.744-3.043v6.086z" fill="#35495e"/><path d="M48.738 184.211a.762.762 0 0 1-.76-.76v-6.086a.759.759 0 0 1 1.171-.639l4.744 3.043a.762.762 0 0 1 0 1.279l-4.745 3.043a.767.767 0 0 1-.41.12zm.76-5.456v3.308l2.578-1.654-2.578-1.654zM37.939 195.949l3.045-4.743h-6.088z" fill="#35495e"/><path d="M37.939 196.708a.758.758 0 0 1-.639-.349l-3.043-4.743a.76.76 0 0 1 .64-1.17h6.088a.759.759 0 0 1 .639 1.17l-3.045 4.743a.762.762 0 0 1-.64.349zm-1.654-4.742l1.654 2.576 1.654-2.576h-3.308zM68.987 187.766V172.27h4.375c1.348 0 2.54.298 3.576.894 1.036.597 1.834 1.444 2.395 2.544.567 1.1.855 2.362.862 3.789v.989c0 1.462-.284 2.743-.852 3.843a5.913 5.913 0 0 1-2.416 2.533c-1.043.589-2.26.89-3.65.904h-4.29zm2.044-13.815v12.144h2.15c1.575 0 2.799-.489 3.672-1.469.88-.979 1.32-2.373 1.32-4.183v-.905c0-1.759-.415-3.125-1.246-4.097-.823-.979-1.994-1.477-3.512-1.49h-2.384zM81.887 180.379h5.194v1.607h-5.194zM91.337 181.699v6.066h-2.043V172.27h5.715c1.696 0 3.023.433 3.98 1.298.965.866 1.448 2.012 1.448 3.438 0 1.504-.472 2.664-1.416 3.479-.937.81-2.281 1.214-4.034 1.214h-3.65zm0-1.67h3.672c1.093 0 1.93-.256 2.512-.767.582-.518.873-1.263.873-2.235 0-.922-.291-1.66-.873-2.213-.582-.554-1.38-.841-2.395-.862h-3.789v6.077zM110.154 183.722h-6.492l-1.458 4.044h-2.107l5.917-15.496h1.788l5.928 15.496h-2.097l-1.479-4.044zm-5.875-1.682h5.269l-2.64-7.248-2.629 7.248zM115.816 187.766V172.27h4.375c1.348 0 2.54.298 3.576.894 1.036.597 1.834 1.444 2.395 2.544.567 1.1.855 2.362.862 3.789v.989c0 1.462-.284 2.743-.852 3.843a5.913 5.913 0 0 1-2.416 2.533c-1.043.589-2.26.89-3.651.904h-4.289zm2.044-13.815v12.144h2.15c1.575 0 2.799-.489 3.672-1.469.88-.979 1.32-2.373 1.32-4.183v-.905c0-1.759-.415-3.125-1.245-4.097-.823-.979-1.994-1.477-3.512-1.49h-2.385z" fill="#35495e"/><ellipse cx="229.895" cy="120.194" rx="2.453" ry="2.4" fill="#434547"/><path d="M264.217 101.475c1.354 0 2.452 1.075 2.452 2.4s-1.098 2.4-2.452 2.4c-1.355 0-2.453-1.075-2.453-2.4s1.098-2.4 2.453-2.4zM299.81 87.788c1.354 0 2.453 1.075 2.453 2.4 0 1.326-1.099 2.4-2.453 2.4s-2.453-1.075-2.453-2.4c0-1.326 1.099-2.4 2.453-2.4zM76.454 90.852c1.354 0 2.453 1.075 2.453 2.4s-1.099 2.4-2.453 2.4-2.453-1.075-2.453-2.4 1.098-2.4 2.453-2.4z" fill="#434547"/><ellipse cx="241.335" cy="47.939" rx="2.453" ry="2.4" fill="#434547"/><path fill="#434547" d="M230.728 120.002l-24.948.067.002.645 24.948-.067M263.697 103.876l.067 54.907 1.024-.001-.068-54.907M299.297 90.189l.067 68.745 1.134-.001-.068-68.745M241.363 47.527l-34.093.067.002.751 34.092-.067M75.75 93.033l.068 65.758 1.049-.001-.068-65.759"/></g></svg>