<svg enable-background="new 0 0 572.48 216.722" viewBox="0 0 572.48 216.722" xmlns="http://www.w3.org/2000/svg" xmlns:xlink="http://www.w3.org/1999/xlink"><linearGradient id="a" gradientUnits="userSpaceOnUse" x1="503.3208" x2="503.3208" y1="135.499" y2="77.9223"><stop offset="0" stop-color="#404140"/><stop offset=".583" stop-color="#424342"/><stop offset=".7928" stop-color="#494a49"/><stop offset=".7991" stop-color="#494a49"/><stop offset=".8002" stop-color="#494a49"/><stop offset=".8874" stop-color="#3f403f"/><stop offset="1" stop-color="#3c3d3c"/></linearGradient><linearGradient id="b" gradientUnits="userSpaceOnUse" x1="444.8496" x2="561.8496" y1="145.9506" y2="145.9506"><stop offset="0" stop-color="#f6b700"/><stop offset="1" stop-color="#ee5f13"/></linearGradient><path d="m199.228 216.722c35.223 0 141.719-5.802 150.835-6.631 9.117-.828 41.439 2.901 46.411-35.222 4.974-38.124-1.362-102.042-4.144-118.514-5.387-31.907-4.42-43.648-22.791-45.996-26.463-3.382-89.092-10.359-170.446-10.359h.135c-81.353 0-143.983 6.977-170.446 10.359-18.371 2.348-17.403 14.089-22.791 45.996-2.781 16.472-9.116 80.39-4.144 118.514 4.973 38.123 37.294 34.393 46.411 35.222 9.116.829 115.612 6.631 150.835 6.631z" fill="#333"/><path d="m199.228 210.644c34.27 0 137.687-4.856 146.556-5.664 8.87-.805 39.501.42 44.339-36.672s-.447-94.658-3.152-110.684c-5.242-31.045-3.978-44.152-21.852-46.437-25.748-3.29-86.872-10.358-166.026-10.358h.135c-79.153 0-140.278 7.068-166.026 10.359-17.873 2.285-16.61 15.392-21.852 46.437-2.705 16.025-7.99 73.591-3.152 110.683s35.469 35.867 44.339 36.672c8.87.808 112.287 5.664 146.556 5.664z" fill="#404140"/><path d="m202.393 148.763s42.265.277 62.708 0c20.443-.275 31.493-20.994 34.532-28.178 3.039-7.182 26.521-70.997 29.559-80.666 3.039-9.669-1.934-18.786-8.564-21.272-6.629-2.486-23.481-6.354-46.135-8.012-22.652-1.658-41.437-1.934-72.1-1.934h-3.165c-30.662 0-49.447.276-72.101 1.934-22.652 1.658-39.504 5.525-46.134 8.012-6.63 2.486-11.603 11.603-8.564 21.272 3.039 9.668 26.521 73.484 29.559 80.666 3.039 7.184 14.089 27.902 34.532 28.178 20.443.277 62.708 0 62.708 0z" fill="#333"/><path d="m53.842 8.17c3.253 10.351 37.926 107.673 41.179 115.363 3.253 7.688 15.082 34.426 36.966 34.723 21.884.295 67.129 0 67.129 0h3.389s45.245.295 67.129 0c21.885-.297 33.713-27.035 36.967-34.723 3.253-7.689 36.967-104.48 40.22-114.831" fill="none" stroke="#333" stroke-miterlimit="10" stroke-width="1.6575"/><path d="m202.343 148.214s40.933.268 60.731 0 30.499-21.99 33.443-28.947c2.943-6.955 25.684-68.758 28.628-78.123 2.943-9.364-1.873-16.121-8.294-18.529s-22.742-6.154-44.68-7.759-40.132-1.873-69.827-1.873h-3.064c-29.695 0-47.889.268-69.828 1.873-21.938 1.605-38.259 5.351-44.68 7.759s-11.237 9.165-8.294 18.529 25.685 71.167 28.627 78.123c2.942 6.957 13.645 28.68 33.443 28.947 19.798.268 60.731 0 60.731 0z" fill="#272727"/><path d="m281.627 128.458c0 3.243-2.629 5.873-5.873 5.873h-147.241c-3.244 0-5.873-2.63-5.873-5.873v-107.46c0-3.244 2.629-5.873 5.873-5.873h147.241c3.244 0 5.873 2.629 5.873 5.873z" fill="#3a3b3b"/><path d="m266.456 120.326c0 2.654-2.152 4.805-4.805 4.805h-120.484c-2.654 0-4.806-2.15-4.806-4.805v-87.933c0-2.654 2.152-4.807 4.806-4.807h120.484c2.653 0 4.805 2.152 4.805 4.807z" fill="#1a1b1b"/><g fill="#242425"><path d="m40.695 157.785c0 1.105-.896 2.002-2.003 2.002-1.106 0-2.002-.896-2.002-2.002 0-1.107.896-2.004 2.002-2.004 1.107 0 2.003.896 2.003 2.004z"/><path d="m40.695 164.249c0 1.105-.896 2.003-2.003 2.003-1.106 0-2.002-.898-2.002-2.003s.896-2.002 2.002-2.002c1.107 0 2.003.897 2.003 2.002z"/><path d="m40.695 170.714c0 1.105-.896 2.003-2.003 2.003-1.106 0-2.002-.897-2.002-2.003s.896-2.003 2.002-2.003c1.107 0 2.003.898 2.003 2.003z"/><path d="m46.981 151.318c0 1.107-.897 2.004-2.003 2.004-1.105 0-2.003-.896-2.003-2.004 0-1.105.897-2.002 2.003-2.002s2.003.896 2.003 2.002z"/><path d="m46.981 157.785c0 1.105-.897 2.002-2.003 2.002-1.105 0-2.003-.896-2.003-2.002 0-1.107.897-2.004 2.003-2.004s2.003.896 2.003 2.004z"/><path d="m46.981 164.249c0 1.105-.897 2.003-2.003 2.003-1.105 0-2.003-.898-2.003-2.003s.897-2.002 2.003-2.002 2.003.897 2.003 2.002z"/><path d="m46.981 170.714c0 1.105-.897 2.003-2.003 2.003-1.105 0-2.003-.897-2.003-2.003s.897-2.003 2.003-2.003 2.003.898 2.003 2.003z"/><path d="m46.981 177.18c0 1.107-.897 2.003-2.003 2.003-1.105 0-2.003-.896-2.003-2.003 0-1.106.897-2.003 2.003-2.003s2.003.897 2.003 2.003z"/><path d="m53.265 151.318c0 1.107-.896 2.004-2.002 2.004s-2.003-.896-2.003-2.004c0-1.105.897-2.002 2.003-2.002s2.002.896 2.002 2.002z"/><path d="m53.265 157.785c0 1.105-.896 2.002-2.002 2.002s-2.003-.896-2.003-2.002c0-1.107.897-2.004 2.003-2.004s2.002.896 2.002 2.004z"/><path d="m53.265 164.249c0 1.105-.896 2.003-2.002 2.003s-2.003-.898-2.003-2.003.897-2.002 2.003-2.002 2.002.897 2.002 2.002z"/><path d="m53.265 170.714c0 1.105-.896 2.003-2.002 2.003s-2.003-.897-2.003-2.003.897-2.003 2.003-2.003 2.002.898 2.002 2.003z"/><path d="m53.265 177.18c0 1.107-.896 2.003-2.002 2.003s-2.003-.896-2.003-2.003c0-1.106.897-2.003 2.003-2.003s2.002.897 2.002 2.003z"/><path d="m59.55 151.318c0 1.107-.896 2.004-2.002 2.004s-2.003-.896-2.003-2.004c0-1.105.897-2.002 2.003-2.002s2.002.896 2.002 2.002z"/><path d="m59.55 157.785c0 1.105-.896 2.002-2.002 2.002s-2.003-.896-2.003-2.002c0-1.107.897-2.004 2.003-2.004s2.002.896 2.002 2.004z"/><path d="m59.55 164.249c0 1.105-.896 2.003-2.002 2.003s-2.003-.898-2.003-2.003.897-2.002 2.003-2.002 2.002.897 2.002 2.002z"/><path d="m59.55 170.714c0 1.105-.896 2.003-2.002 2.003s-2.003-.897-2.003-2.003.897-2.003 2.003-2.003 2.002.898 2.002 2.003z"/><path d="m59.55 177.18c0 1.107-.896 2.003-2.002 2.003s-2.003-.896-2.003-2.003c0-1.106.897-2.003 2.003-2.003s2.002.897 2.002 2.003z"/><path d="m65.835 151.318c0 1.107-.897 2.004-2.002 2.004-1.106 0-2.003-.896-2.003-2.004 0-1.105.897-2.002 2.003-2.002s2.002.896 2.002 2.002z"/><path d="m65.835 157.785c0 1.105-.897 2.002-2.002 2.002-1.106 0-2.003-.896-2.003-2.002 0-1.107.897-2.004 2.003-2.004s2.002.896 2.002 2.004z"/><path d="m65.835 164.249c0 1.105-.897 2.003-2.002 2.003-1.106 0-2.003-.898-2.003-2.003s.897-2.002 2.003-2.002 2.002.897 2.002 2.002z"/><path d="m65.835 170.714c0 1.105-.897 2.003-2.002 2.003-1.106 0-2.003-.897-2.003-2.003s.897-2.003 2.003-2.003 2.002.898 2.002 2.003z"/><path d="m65.835 177.18c0 1.107-.897 2.003-2.002 2.003-1.106 0-2.003-.896-2.003-2.003 0-1.106.897-2.003 2.003-2.003s2.002.897 2.002 2.003z"/><path d="m72.121 151.318c0 1.107-.897 2.004-2.003 2.004s-2.003-.896-2.003-2.004c0-1.105.896-2.002 2.003-2.002 1.106 0 2.003.896 2.003 2.002z"/><path d="m72.121 157.785c0 1.105-.897 2.002-2.003 2.002s-2.003-.896-2.003-2.002c0-1.107.896-2.004 2.003-2.004 1.106 0 2.003.896 2.003 2.004z"/><path d="m72.121 164.249c0 1.105-.897 2.003-2.003 2.003s-2.003-.898-2.003-2.003.896-2.002 2.003-2.002c1.106 0 2.003.897 2.003 2.002z"/><path d="m72.121 170.714c0 1.105-.897 2.003-2.003 2.003s-2.003-.897-2.003-2.003.896-2.003 2.003-2.003c1.106 0 2.003.898 2.003 2.003z"/><path d="m72.121 177.18c0 1.107-.897 2.003-2.003 2.003s-2.003-.896-2.003-2.003c0-1.106.896-2.003 2.003-2.003 1.106 0 2.003.897 2.003 2.003z"/><path d="m78.405 151.318c0 1.107-.897 2.004-2.003 2.004s-2.003-.896-2.003-2.004c0-1.105.897-2.002 2.003-2.002s2.003.896 2.003 2.002z"/><path d="m78.405 157.785c0 1.105-.897 2.002-2.003 2.002s-2.003-.896-2.003-2.002c0-1.107.897-2.004 2.003-2.004s2.003.896 2.003 2.004z"/><path d="m78.405 164.249c0 1.105-.897 2.003-2.003 2.003s-2.003-.898-2.003-2.003.897-2.002 2.003-2.002 2.003.897 2.003 2.002z"/><circle cx="76.402" cy="170.714" r="2.003"/><path d="m78.405 177.18c0 1.107-.897 2.003-2.003 2.003s-2.003-.896-2.003-2.003c0-1.106.897-2.003 2.003-2.003s2.003.897 2.003 2.003z"/><path d="m84.69 157.785c0 1.105-.897 2.002-2.003 2.002s-2.003-.896-2.003-2.002c0-1.107.896-2.004 2.003-2.004s2.003.896 2.003 2.004z"/><path d="m84.69 164.249c0 1.105-.897 2.003-2.003 2.003s-2.003-.898-2.003-2.003.896-2.002 2.003-2.002 2.003.897 2.003 2.002z"/><path d="m84.69 170.714c0 1.105-.897 2.003-2.003 2.003s-2.003-.897-2.003-2.003.896-2.003 2.003-2.003 2.003.898 2.003 2.003z"/></g><path d="m349.98 41.283c.077-2.899-1.417-9.542-7.251-11.188-2.141-.604-2.435-.104-2.746.777-.311.88-6.733 19.113-6.733 19.113s-.984 2.693 1.606 2.745c2.589.052 14.814.31 15.124-11.447z" fill="#2c3691"/><path clip-rule="evenodd" d="m95.932 20.91c.12.026.243.042.36.08.437.146.67.468.763.904.087.408.042.812-.048 1.213-.168.745-.48 1.431-.853 2.092-.504.892-1.113 1.707-1.799 2.467-.738.819-1.548 1.557-2.466 2.173-.572.382-1.171.712-1.834.906-.351.103-.706.162-1.074.106-.522-.08-.877-.413-.99-.935-.083-.381-.055-.76.021-1.137.148-.732.438-1.412.8-2.058.992-1.772 2.306-3.265 3.928-4.486.579-.436 1.197-.809 1.877-1.072.313-.121.633-.212.969-.24.016-.002.032-.008.048-.013z" fill="#c3262e" fill-rule="evenodd"/><path clip-rule="evenodd" d="m104.523 20.91c.12.026.243.042.359.08.437.146.671.468.763.904.087.408.042.812-.048 1.213-.168.745-.48 1.431-.853 2.092-.503.892-1.113 1.707-1.799 2.467-.738.819-1.548 1.557-2.466 2.173-.571.382-1.171.712-1.835.906-.35.103-.706.162-1.074.106-.521-.08-.877-.413-.99-.935-.083-.381-.055-.76.021-1.137.148-.732.438-1.412.8-2.058.992-1.772 2.307-3.265 3.928-4.486.579-.436 1.198-.809 1.878-1.072.313-.121.633-.212.969-.24.017-.002.032-.008.047-.013z" fill="#0d9347" fill-rule="evenodd"/><path clip-rule="evenodd" d="m113.113 20.91c.12.026.243.042.359.08.437.146.67.468.763.904.087.408.042.812-.048 1.213-.168.745-.48 1.431-.853 2.092-.503.892-1.113 1.707-1.798 2.467-.739.819-1.549 1.557-2.466 2.173-.571.382-1.171.712-1.834.906-.351.103-.707.162-1.074.106-.522-.08-.877-.413-.991-.935-.083-.381-.054-.76.022-1.137.147-.732.438-1.412.8-2.058.992-1.772 2.307-3.265 3.928-4.486.58-.436 1.198-.809 1.878-1.072.313-.121.633-.212.969-.24.017-.002.032-.008.047-.013z" fill="#2c3691" fill-rule="evenodd"/><path clip-rule="evenodd" d="m95.434 48.646c-.11-.026-.221-.05-.33-.079-.707-.19-1.218-.625-1.558-1.267-.219-.415-.328-.863-.373-1.326-.072-.724-.028-1.441.153-2.147.194-.757.536-1.438 1.072-2.012.582-.623 1.308-.922 2.157-.93.512-.005 1.005.08 1.467.313.695.353 1.085.928 1.211 1.688.041.247.055.499.083.755-.527 0-1.034 0-1.54 0-.014-.133-.019-.266-.042-.395-.086-.471-.314-.709-.786-.799-.481-.091-.931-.012-1.318.309-.262.216-.436.499-.577.802-.338.734-.445 1.505-.342 2.304.035.275.127.534.279.77.179.276.43.445.756.491.331.046.653.015.959-.127.23-.106.396-.282.54-.483.162-.225.274-.474.355-.745-.477 0-.947 0-1.425 0 .024-.143.047-.28.07-.417.05-.296.101-.593.147-.891.01-.064.032-.083.098-.083.83.002 1.661.002 2.492.002h.203c-.017.1-.032.193-.049.286-.071.393-.125.792-.218 1.181-.157.655-.435 1.257-.879 1.773-.272.316-.603.554-.982.724-.202.091-.406.179-.61.267-.037.016-.077.023-.115.034-.3.002-.599.002-.898.002z" fill="#cdcccc" fill-rule="evenodd"/><path clip-rule="evenodd" d="m86.621 37.084c.009-.106.018-.211.028-.318.1-1.061.442-2.025 1.15-2.837.542-.623 1.23-.958 2.057-1.005.521-.03 1.027.029 1.509.242.765.336 1.209.923 1.347 1.742.042.249.056.503.084.762-.526 0-1.032 0-1.537 0-.015-.136-.02-.274-.045-.408-.088-.467-.322-.702-.796-.786-.475-.083-.917-.008-1.3.305-.231.188-.394.428-.527.69-.351.692-.476 1.431-.426 2.2.018.3.092.589.23.859.218.424.567.638 1.041.643.456.005.862-.114 1.171-.476.164-.193.292-.408.385-.644.032-.081.059-.164.092-.257-.48 0-.951 0-1.426 0 .077-.464.153-.92.229-1.38h2.777c-.021.121-.04.238-.062.356-.065.366-.116.735-.203 1.097-.156.65-.427 1.25-.866 1.764-.274.321-.608.562-.991.737-.148.067-.292.148-.443.211-.254.105-.522.13-.795.119-.466-.018-.912-.115-1.319-.352-.512-.298-.858-.738-1.079-1.281-.167-.408-.243-.836-.271-1.274-.003-.037-.009-.074-.013-.112-.001-.198-.001-.397-.001-.597z" fill="#cdcccc" fill-rule="evenodd"/><path clip-rule="evenodd" d="m99.966 40.522c-.167-1.902-.334-3.796-.501-5.69-.004 0-.007 0-.011-.001-.025.178-.051.356-.075.533-.08.566-.158 1.132-.236 1.698-.078.559-.156 1.117-.233 1.677-.08.577-.161 1.155-.243 1.732-.002.019-.031.048-.048.048-.427.002-.854.001-1.281.001-.007 0-.013-.004-.027-.01.411-2.463.822-4.926 1.234-7.395h1.9c.141 1.723.281 3.45.422 5.175.004.002.009.003.014.005.01-.022.02-.043.029-.065.686-1.683 1.373-3.365 2.057-5.048.025-.063.052-.089.126-.088.588.008 1.177.011 1.766.015.016 0 .032.002.057.004-.03.178-.059.353-.087.527-.126.75-.252 1.5-.378 2.251-.126.752-.252 1.505-.379 2.258-.125.748-.249 1.496-.377 2.243-.026.154.011.128-.148.13-.372.001-.745 0-1.118 0-.027 0-.055 0-.093 0 .35-1.905.696-3.799 1.044-5.692-.003-.001-.006-.003-.009-.004-.033.08-.066.159-.099.239-.725 1.792-1.449 3.583-2.171 5.377-.026.063-.057.082-.124.082-.306-.004-.613-.002-.918-.002-.031 0-.059 0-.093 0z" fill="#cdcccc" fill-rule="evenodd"/><path clip-rule="evenodd" d="m112.57 45.363c.406 1.045.81 2.082 1.216 3.127-.032.001-.054.003-.077.003-.494 0-.987-.001-1.48.001-.053 0-.078-.014-.098-.065-.347-.9-.698-1.797-1.045-2.696-.021-.056-.047-.071-.103-.07-.192.004-.384.001-.583.001-.158.942-.317 1.881-.476 2.823-.473 0-.943 0-1.422 0 .41-2.472.819-4.94 1.228-7.413.019-.001.038-.004.056-.004.832 0 1.665-.001 2.498.002.285.001.562.05.823.169.363.165.626.431.752.811.202.606.228 1.224.017 1.83-.224.639-.667 1.104-1.245 1.446-.018.011-.036.021-.061.035zm-1.957-1.035c.021.002.038.004.054.004.249 0 .498.008.746-.004.15-.007.304-.029.447-.073.338-.103.593-.303.681-.667.05-.208.045-.418 0-.627-.045-.21-.174-.345-.381-.397-.114-.028-.232-.05-.349-.055-.271-.008-.541-.002-.811-.006-.052 0-.067.018-.076.067-.058.338-.12.676-.18 1.015-.044.246-.087.494-.131.743z" fill="#cdcccc" fill-rule="evenodd"/><path clip-rule="evenodd" d="m108.516 35.975c-.077.486-.151.959-.227 1.438-.727 0-1.452 0-2.186 0-.094.527-.187 1.048-.282 1.579h2.466c-.023.149-.045.29-.067.429-.056.349-.113.697-.167 1.046-.007.042-.021.055-.062.055-1.265-.001-2.53-.001-3.794-.001-.009 0-.018-.003-.04-.006.409-2.472.818-4.941 1.228-7.414h3.843c-.078.512-.156 1.02-.234 1.534-.807 0-1.608 0-2.418 0-.082.446-.162.888-.244 1.339.727.001 1.449.001 2.184.001z" fill="#cdcccc" fill-rule="evenodd"/><path clip-rule="evenodd" d="m98.905 48.488c.41-2.474.819-4.942 1.229-7.414h3.842c-.078.51-.155 1.018-.233 1.531-.807 0-1.609 0-2.419 0-.081.448-.161.891-.243 1.343h2.182c-.076.484-.15.959-.225 1.438-.034 0-.061 0-.089 0-.671 0-1.343.001-2.014-.002-.068 0-.087.021-.098.083-.084.481-.172.961-.259 1.441-.002.016-.001.033-.003.055h2.464c-.082.512-.162 1.017-.243 1.525-1.295 0-2.587 0-3.891 0z" fill="#cdcccc" fill-rule="evenodd"/><path clip-rule="evenodd" d="m107.508 41.067c.282 2.477.563 4.944.844 7.42-.47 0-.936 0-1.408 0-.041-.477-.082-.954-.124-1.436-.029-.001-.054-.003-.079-.003-.586 0-1.172.001-1.758-.002-.058 0-.08.019-.1.072-.158.439-.32.877-.48 1.315-.014.039-.028.062-.077.062-.451-.002-.902-.001-1.353-.001-.014 0-.028-.002-.05-.004.029-.074.057-.144.084-.213.958-2.379 1.916-4.759 2.872-7.139.021-.052.044-.071.102-.07.484.002.968.001 1.452.001.023-.002.044-.002.075-.002zm-2.129 4.702h1.332c-.083-.973-.167-1.941-.25-2.909-.006 0-.012-.001-.017-.002-.354.968-.708 1.936-1.065 2.911z" fill="#cdcccc" fill-rule="evenodd"/><path clip-rule="evenodd" d="m97.122 40.522c-.032 0-.058 0-.084 0-.413 0-.826-.002-1.239.002-.075 0-.089-.026-.095-.092-.036-.449-.075-.897-.114-1.357-.029 0-.057 0-.085 0-.579 0-1.158.001-1.737-.001-.063 0-.094.015-.117.078-.156.438-.319.872-.479 1.309-.014.039-.027.063-.077.063-.449-.003-.897-.001-1.345-.001-.015 0-.029-.003-.052-.005.008-.025.015-.047.023-.068.979-2.43 1.957-4.86 2.934-7.292.019-.046.041-.063.092-.063.487.003.974.003 1.459 0 .055 0 .076.012.083.072.057.525.119 1.051.179 1.576.059.521.117 1.041.176 1.562.06.521.119 1.041.179 1.562.054.473.108.947.162 1.421.045.397.09.796.135 1.194.001.009.001.019.002.04zm-1.889-5.637c-.004-.001-.01-.001-.014-.001-.357.972-.713 1.944-1.07 2.918h1.333c-.084-.977-.166-1.947-.249-2.917z" fill="#cdcccc" fill-rule="evenodd"/><path clip-rule="evenodd" d="m307.742 29.194v1.194c-.025.001-.047.002-.069.002-1.299 0-2.596.004-3.895-.001-.557-.002-1.058.387-1.188.924-.022.092-.035.189-.036.283-.002 1.29-.002 2.579-.001 3.87 0 .587.446 1.101 1.028 1.189.069.011.138.017.208.017.897.001 1.794.001 2.691.001.07 0 .07 0 .07-.072 0-1.049 0-2.098 0-3.147 0-.074 0-.074-.072-.074-.692 0-1.384 0-2.076 0-.064 0-.065 0-.065-.063 0-.36 0-.721 0-1.082 0-.016 0-.032 0-.05h3.408v4.834c.005 0 .01.002.015.003.008-.017.016-.032.022-.049.23-.678.461-1.355.691-2.033.293-.86.586-1.721.879-2.582.236-.694.468-1.391.708-2.084.185-.534.558-.898 1.083-1.088.734-.265 1.415-.153 2.02.349.263.219.426.504.534.828.478 1.43.961 2.858 1.442 4.287.355 1.054.711 2.108 1.067 3.162.005.017.009.033.016.056-.023.001-.039.003-.057.003-1.588 0-3.174 0-4.762.001-.048 0-.06-.014-.059-.061.002-.36.001-.721.001-1.081 0-.016 0-.032 0-.056h3.218c-.02-.06-.035-.111-.052-.16-.576-1.698-1.151-3.396-1.726-5.095-.098-.287-.195-.574-.292-.861-.089-.261-.353-.445-.634-.443-.289.001-.549.182-.638.444-.346 1.022-.692 2.043-1.039 3.065-.431 1.271-.863 2.543-1.294 3.815-.043.125-.088.249-.127.375-.014.045-.036.055-.08.055-.34-.002-.682 0-1.022 0-1.294 0-2.586-.004-3.879.001-1.036.003-1.971-.654-2.309-1.646-.082-.242-.125-.491-.125-.746-.003-1.296-.003-2.592-.001-3.889.001-1.124.818-2.122 1.919-2.341.164-.032.333-.049.499-.05 1.301-.004 2.603-.002 3.904-.002.026-.002.048-.002.075-.002z" fill="#cdcccc" fill-rule="evenodd"/><path clip-rule="evenodd" d="m287.11 36.376c0-.403 0-.797 0-1.197h.069 3.724c.027 0 .055-.001.081-.009.067-.018.106-.077.104-.15-.003-.067-.049-.122-.117-.135-.027-.004-.055-.006-.082-.006-.346-.001-.691.005-1.038-.003-.629-.015-1.191-.226-1.682-.619-.55-.442-.896-1.014-1.016-1.71-.147-.854.049-1.63.596-2.307.425-.527.978-.856 1.643-.988.177-.035.362-.053.543-.054 1.261-.004 2.521-.002 3.782-.002h.064v1.201c-.022 0-.046 0-.069 0-1.252 0-2.505-.001-3.757 0-.772 0-1.432.519-1.6 1.271-.125.558.012 1.057.395 1.482.267.295.604.466.999.513.15.018.303.013.455.015.26.004.52.006.78.008.589.005 1.116.422 1.267 1.002.201.768-.301 1.542-1.084 1.67-.083.014-.168.019-.251.019-1.247.002-2.496.001-3.743.001-.022-.002-.041-.002-.063-.002z" fill="#cdcccc" fill-rule="evenodd"/><path clip-rule="evenodd" d="m287.107 36.663h.07 3.773c.792 0 1.471-.565 1.616-1.344.162-.869-.423-1.729-1.29-1.901-.201-.04-.405-.033-.608-.035-.244-.002-.488-.001-.732-.004-.669-.011-1.209-.486-1.313-1.137-.108-.693.328-1.345 1.009-1.509.096-.023.198-.035.297-.035 1.268-.002 2.534-.002 3.802-.002h.05c.003.011.006.021.006.029-.003.366-.007.73-.007 1.095 0 .057-.023.062-.068.062-1.233-.001-2.467-.001-3.7-.001-.029 0-.058 0-.087.004-.071.009-.122.066-.125.138-.005.098.054.164.153.164.173 0 .346-.005.519-.004.25.001.502-.01.751.012.565.05 1.07.259 1.511.616.524.425.866.969 1 1.63.176.868-.01 1.659-.559 2.355-.428.543-.99.88-1.666 1.023-.19.039-.383.055-.577.055-1.251 0-2.502 0-3.753 0-.07 0-.07 0-.07-.072 0-.359 0-.718 0-1.077-.002-.017-.002-.036-.002-.062z" fill="#cdcccc" fill-rule="evenodd"/><path clip-rule="evenodd" d="m300.883 29.194v1.193c-.023.001-.047.003-.07.003-1.343 0-2.686 0-4.03 0-.59 0-1.094.419-1.2.999-.012.069-.018.141-.018.212-.001 1.281-.001 2.563-.001 3.845.001.622.442 1.129 1.055 1.214.062.008.125.01.189.01 1.329.001 2.66.001 3.991.001.071 0 .071 0 .071.07 0 .354-.001.708.001 1.062 0 .049-.013.064-.063.064-1.353-.001-2.705.001-4.058-.002-1.125-.003-2.108-.82-2.331-1.924-.035-.171-.05-.342-.05-.515.001-1.262.001-2.525 0-3.788 0-.624.199-1.173.614-1.639.363-.408.816-.665 1.353-.763.156-.028.315-.041.472-.041 1.335-.003 2.67-.002 4.005-.002.023.001.045.001.07.001z" fill="#cdcccc" fill-rule="evenodd"/><path clip-rule="evenodd" d="m311.351 35.267c-.263.774-.56 1.648-.823 2.422-.016.046-.033.091-.047.138-.008.03-.023.041-.055.04-.058-.001-.116 0-.174 0-.373 0-.747 0-1.121 0-.021 0-.041-.002-.068-.003.007-.024.013-.044.019-.063.419-1.24.839-2.48 1.26-3.719.383-1.133.767-2.267 1.15-3.399.091-.266.388-.364.603-.202.068.051.112.12.139.2.326.97.653 1.94.98 2.911.308.912.615 1.824.922 2.737.005.015.01.03.018.052-.938 0-1.869 0-2.805 0-.001-.354.002-.766.002-1.114zm.074-.217c.248.001.557 0 .805 0h.067c-.145-.433-.286-.853-.427-1.274-.004 0-.009 0-.013 0-.006.017-.014.034-.02.051-.131.388-.263.776-.393 1.164z" fill="#cdcccc" fill-rule="evenodd"/><path clip-rule="evenodd" d="m307.744 31.883c-.025 0-.042 0-.06 0-1.094 0-2.188 0-3.282 0-.028 0-.055 0-.083.002-.167.013-.271.124-.271.292v2.71c0 .15.122.276.277.281.139.004.278.002.417.004.088.001.175.002.262.007.043.002.056-.015.054-.056-.003-.064-.003-.129 0-.194.001-.041-.014-.053-.054-.053-.2.001-.401.001-.602 0-.065 0-.066 0-.066-.062 0-.364 0-.728 0-1.091 0-.014.002-.028.003-.045h1.91c0 .021.001.04.002.06v2.574c0 .064-.001.064-.062.064-.797 0-1.594.001-2.391 0-.453 0-.826-.291-.926-.721-.014-.062-.023-.127-.023-.192-.001-1.288-.001-2.576 0-3.864 0-.449.347-.842.793-.901.056-.007.113-.01.169-.01 1.287-.001 2.574-.001 3.86-.001.081 0 .071-.007.072.073v1.058c.001.019.001.038.001.065z" fill="#cdcccc" fill-rule="evenodd"/><path clip-rule="evenodd" d="m297.067 32.183h2.935c.002.025.006.047.006.069.002.334.003.668.005 1.003v.004c0 .12 0 .12-.117.12-1.317 0-2.635 0-3.952 0-.022 0-.045 0-.072 0 0-.025 0-.043 0-.06 0-.567 0-1.135.001-1.702 0-.454.295-.818.738-.912.066-.014.138-.017.207-.017 1.335-.001 2.67-.001 4.005-.001h.063v.063 1.067c0 .066 0 .066-.066.066-1.138 0-2.277 0-3.414 0-.035 0-.071.001-.107.005-.14.013-.247.146-.232.295z" fill="#cdcccc" fill-rule="evenodd"/><path clip-rule="evenodd" d="m297.065 34.877c-.009.177.106.295.288.301h.044 3.404c.068 0 .069 0 .069.067v1.057c0 .063-.001.063-.064.063-1.339 0-2.676 0-4.015 0-.467 0-.85-.334-.914-.798-.006-.043-.005-.087-.005-.131-.001-.562-.001-1.125-.001-1.687 0-.066 0-.066.066-.066h4.01c.07 0 .068 0 .067.069-.001.232-.001.465-.003.697-.001.12-.002.239-.003.359 0 .067 0 .067-.066.067-.934 0-1.869 0-2.802 0-.025.002-.049.002-.075.002z" fill="#cdcccc" fill-rule="evenodd"/><path clip-rule="evenodd" d="m108.827 59.844c0 1.106-.896 2.003-2.003 2.003-1.106 0-2.003-.897-2.003-2.003s.896-2.003 2.003-2.003 2.003.897 2.003 2.003z" fill="#c3262e" fill-rule="evenodd"/><path d="m17.249 127.837c1.945 9.895 9.668 24.24 23.447 14.502 13.778-9.737 28.698-27.276 29.422-51.45s-9.843-38.47-29.007-38.47c-19.166 0-27.867 17.302-27.867 27.506-.001 10.203 2.416 39.831 4.005 47.912z" fill="#3d3d3d"/><path d="m64.972 79.925c0 13.178-10.683 23.861-23.861 23.861-13.179 0-23.862-10.684-23.862-23.861 0-13.179 10.683-23.862 23.862-23.862 13.178 0 23.861 10.683 23.861 23.862z" fill="#262727"/><path d="m49.64 88.988v-29.179l-.637-.266c-.17-.071-4.205-1.737-7.893-1.737s-7.723 1.667-7.893 1.737l-.637.266v29.178" fill="#181819"/><path d="m32.581 88.455v11.585l.637.267c.169.07 4.205 1.737 7.893 1.737s7.722-1.667 7.893-1.737l.637-.267v-11.585" fill="#181819"/><path d="m32.581 71.395h-11.586l-.266.638c-.071.17-1.737 4.205-1.737 7.893s1.666 7.722 1.737 7.892l.266.637h11.586" fill="#181819"/><path d="m31.89 88.455h29.335l.266-.637c.071-.171 1.737-4.205 1.737-7.892s-1.667-7.723-1.737-7.893l-.266-.638h-29.335" fill="#181819"/><path d="m41.11 58.842c-3.523 0-7.494 1.658-7.494 1.658v10.566l7.494 8.012 7.493-8.012v-10.566c.001 0-3.971-1.658-7.493-1.658z" fill="#262727"/><path d="m41.11 101.007c3.522 0 7.493-1.658 7.493-1.658v-10.566l-7.493-8.012-7.494 8.012v10.566s3.972 1.658 7.494 1.658z" fill="#262727"/><path d="m62.192 79.925c0-3.522-1.657-7.494-1.657-7.494h-11.395l-7.183 7.494 7.183 7.492h11.396c-.001 0 1.656-3.97 1.656-7.492z" fill="#262727"/><path d="m20.027 79.925c0 3.521 1.658 7.492 1.658 7.492h11.396l7.183-7.492-7.183-7.494h-11.396s-1.658 3.972-1.658 7.494z" fill="#262727"/><path d="m345.281 94.464c-18.851 18.713-29.216 38.834-23.152 44.943s26.262-4.107 45.115-22.818c11.025-10.944 19.145-22.369 22.775-31.191-.449-5.513-.937-10.562-1.418-14.939-7.615-3.168-26.033 6.845-43.32 24.005z" fill="#3d3d3d"/><path d="m353.784 96.343c0 6.479-5.251 11.729-11.729 11.729s-11.728-5.251-11.728-11.729 5.25-11.729 11.728-11.729c6.478.001 11.729 5.252 11.729 11.729z" fill="#2f2f2f"/><path d="m381.237 73.345c0 6.479-5.251 11.729-11.73 11.729-6.478 0-11.729-5.251-11.729-11.729s5.251-11.729 11.729-11.729c6.479.001 11.73 5.252 11.73 11.729z" fill="#2f2f2f"/><path d="m572.371 82.647c0-2.609-2.115-4.725-4.724-4.725h-128.87c-2.61 0-4.726 2.116-4.726 4.726v132.588c0 .821.665 1.486 1.486 1.486h135.347c.821 0 1.486-.665 1.486-1.486v-132.589z" fill="#3a3a3a"/><path d="m503.159 101.775h40.938c10.946 0 19.82 8.874 19.82 19.82v14.398s8.133 1.093 8.4-3.998c0 4.02-7.518 3.648-7.518 3.008 0-.291 0-21.1 0-21.1 0-10.947-8.873-19.82-19.82-19.82h-41.821-.001-41.82c-10.947 0-19.822 8.873-19.822 19.82v21.1c0 .641-7.516 1.012-7.516-3.008.268 5.091 8.399 3.998 8.399 3.998s0-8.463 0-14.398c0-10.946 8.874-19.82 19.821-19.82z" fill="#333"/><path d="m483.027 210.288c-3.958 0-7.168-3.21-7.168-7.168 0-3.959 3.21-7.167 7.168-7.167h40.25c3.959 0 7.168 3.208 7.168 7.167 0 3.958-3.209 7.168-7.168 7.168z" fill="#333"/><path d="m536.316 97.239h-65.992c-.386 0-.699-.313-.699-.699s.313-.699.699-.699h65.992c.386 0 .699.313.699.699s-.313.699-.699.699z" fill="#404140"/><path d="m536.316 100.648h-65.992c-.386 0-.699-.313-.699-.699s.313-.699.699-.699h65.992c.386 0 .699.313.699.699s-.313.699-.699.699z" fill="#404140"/><path clip-rule="evenodd" d="m510.543 197.489v1.44c-.029.002-.057.004-.084.004-1.565 0-3.131.004-4.697-.002-.672-.002-1.275.466-1.432 1.114-.027.111-.043.228-.044.341-.003 1.557-.003 3.111-.001 4.668 0 .709.537 1.328 1.24 1.434.082.014.167.021.25.021h3.246c.086 0 .086 0 .086-.086 0-1.266 0-2.531 0-3.797 0-.09 0-.09-.088-.09-.834 0-1.67 0-2.504 0-.078 0-.078 0-.078-.074 0-.436 0-.871 0-1.305 0-.019 0-.039 0-.06h4.109v5.83c.007.001.014.003.02.004.009-.021.02-.039.025-.06.279-.817.557-1.636.835-2.452.353-1.038.707-2.076 1.061-3.115.284-.838.563-1.678.854-2.514.223-.645.673-1.084 1.306-1.314.885-.318 1.708-.184 2.438.422.317.264.514.607.645.998.576 1.725 1.159 3.447 1.739 5.17.429 1.273.858 2.545 1.287 3.816.006.02.011.04.018.067-.026.002-.047.004-.066.004-1.916 0-3.83 0-5.745.002-.058 0-.071-.016-.071-.072.002-.434.002-.87.002-1.305 0-.02 0-.038 0-.068h3.882c-.023-.072-.042-.133-.064-.192-.693-2.049-1.387-4.097-2.081-6.146-.118-.346-.235-.693-.353-1.039-.107-.315-.425-.537-.764-.535-.35.002-.662.22-.77.535-.418 1.232-.836 2.466-1.254 3.697-.519 1.534-1.041 3.068-1.56 4.604-.053.15-.107.3-.153.452-.017.056-.044.066-.097.066-.41-.002-.822-.001-1.233-.001-1.561 0-3.12-.005-4.68.001-1.249.005-2.378-.788-2.784-1.984-.1-.292-.151-.593-.151-.9-.003-1.564-.003-3.128-.001-4.691.002-1.356.987-2.56 2.315-2.823.198-.039.402-.061.602-.061 1.57-.005 3.141-.003 4.71-.003.026-.001.054-.001.085-.001z" fill="#3a3a3a" fill-rule="evenodd"/><path clip-rule="evenodd" d="m485.654 206.152c0-.486 0-.96 0-1.443h.083c1.497 0 2.995 0 4.493-.001.032 0 .066-.003.098-.011.08-.021.128-.092.125-.182-.004-.081-.06-.148-.143-.162-.032-.006-.066-.008-.099-.008-.417-.001-.833.006-1.252-.004-.759-.018-1.437-.272-2.028-.748-.664-.533-1.08-1.223-1.227-2.061-.178-1.03.061-1.968.719-2.784.513-.635 1.18-1.033 1.982-1.191.214-.043.436-.065.655-.065 1.521-.006 3.041-.003 4.563-.003h.076v1.45c-.025 0-.055 0-.083 0-1.511 0-3.023-.002-4.532 0-.931 0-1.728.626-1.93 1.533-.151.674.014 1.275.477 1.787.322.357.729.563 1.205.619.182.021.365.016.549.018.313.006.627.007.94.01.71.007 1.347.51 1.529 1.209.242.926-.363 1.859-1.308 2.014-.1.016-.201.023-.303.023-1.506.002-3.011 0-4.517 0-.021 0-.044 0-.072 0z" fill="#3a3a3a" fill-rule="evenodd"/><path clip-rule="evenodd" d="m485.65 206.499h.086 4.551c.955 0 1.774-.682 1.949-1.622.195-1.047-.511-2.085-1.557-2.292-.242-.049-.488-.041-.734-.043-.293-.004-.588-.002-.883-.006-.807-.013-1.459-.586-1.583-1.37-.131-.837.396-1.623 1.216-1.821.117-.027.24-.041.359-.041 1.529-.004 3.057-.002 4.586-.002h.061c.003.014.008.025.008.035-.004.44-.01.881-.01 1.322 0 .067-.027.074-.082.074-1.488-.002-2.975-.002-4.463-.002-.035 0-.07 0-.104.005-.087.011-.147.08-.152.167-.005.119.065.197.186.197.209 0 .417-.006.626-.005.303.001.605-.013.906.015.681.059 1.291.312 1.822.742.632.514 1.045 1.169 1.207 1.969.211 1.045-.014 2-.675 2.84-.516.656-1.193 1.061-2.01 1.233-.229.048-.462.066-.696.066-1.51.001-3.019.001-4.527.001-.086 0-.086 0-.086-.087 0-.433 0-.866 0-1.299-.001-.021-.001-.043-.001-.076z" fill="#3a3a3a" fill-rule="evenodd"/><path clip-rule="evenodd" d="m502.27 197.489v1.44c-.028.001-.057.004-.084.004-1.621 0-3.241 0-4.861 0-.711 0-1.32.505-1.448 1.205-.015.083-.023.17-.023.254v4.64c0 .749.534 1.362 1.273 1.464.075.01.152.014.227.014h4.815c.086 0 .086 0 .086.086 0 .426-.001.853.002 1.28 0 .059-.016.076-.076.076-1.632-.002-3.264.001-4.895-.002-1.357-.004-2.544-.989-2.812-2.321-.042-.206-.061-.412-.061-.621 0-1.523.002-3.047 0-4.569-.001-.751.24-1.415.74-1.977.438-.492.984-.801 1.633-.92.188-.035.379-.049.569-.049 1.61-.004 3.22-.003 4.831-.003.027-.001.053-.001.084-.001z" fill="#3a3a3a" fill-rule="evenodd"/><path clip-rule="evenodd" d="m514.896 204.814c-.316.936-.676 1.988-.992 2.922-.019.056-.04.11-.057.166-.01.037-.029.05-.066.049-.069-.002-.14 0-.21 0-.45 0-.901 0-1.352-.001-.024 0-.05-.001-.083-.003.009-.03.016-.054.023-.076.506-1.496 1.013-2.991 1.52-4.486.462-1.367.924-2.734 1.388-4.102.108-.321.468-.439.727-.243.082.061.136.145.169.241.393 1.17.787 2.34 1.182 3.512.371 1.1.74 2.199 1.111 3.301.007.018.014.035.021.063-1.131 0-2.254 0-3.384 0 0-.425.003-.922.003-1.343zm.09-.26c.301.001.672 0 .973 0h.08c-.175-.523-.345-1.03-.515-1.538-.006 0-.011 0-.017 0-.008.02-.018.042-.023.062-.158.469-.316.936-.475 1.404z" fill="#3a3a3a" fill-rule="evenodd"/><path clip-rule="evenodd" d="m510.547 200.732c-.03 0-.051 0-.072 0-1.32 0-2.641 0-3.96 0-.034 0-.066 0-.101.003-.201.017-.326.149-.326.352v3.27c0 .182.147.333.334.34.167.004.336.002.502.004.107 0 .212.003.316.009.053.002.068-.019.066-.069-.004-.076-.004-.155 0-.233.002-.049-.018-.064-.064-.064-.242.002-.484.002-.726.001-.079 0-.079 0-.079-.075 0-.438 0-.877 0-1.316 0-.017.002-.033.002-.055h2.304c.001.025.003.049.003.071v3.106c0 .076 0 .076-.074.076-.962 0-1.924.002-2.885 0-.546 0-.995-.35-1.115-.869-.018-.076-.028-.154-.028-.232-.001-1.553-.001-3.107-.001-4.66.001-.543.42-1.016.957-1.088.067-.008.137-.012.203-.012h4.657c.097 0 .087-.01.087.088v1.275z" fill="#3a3a3a" fill-rule="evenodd"/><path clip-rule="evenodd" d="m497.666 201.094h3.541c.002.03.008.056.008.083.002.404.004.807.006 1.211v.006c0 .143 0 .143-.142.143-1.589 0-3.179 0-4.767 0-.027 0-.055 0-.088 0 0-.029 0-.051 0-.072 0-.684 0-1.368.001-2.053 0-.547.356-.987.89-1.1.08-.017.166-.021.25-.021h4.832.076v.075 1.286c0 .08 0 .08-.08.08-1.373 0-2.746 0-4.119 0-.042 0-.085.002-.128.006-.169.016-.298.175-.28.356z" fill="#3a3a3a" fill-rule="evenodd"/><path clip-rule="evenodd" d="m497.664 204.344c-.012.214.129.355.348.363.018.001.035.001.053.001h4.105c.084 0 .084 0 .084.08v1.275c0 .076 0 .076-.077.076-1.614 0-3.228 0-4.843 0-.563 0-1.025-.402-1.102-.962-.008-.052-.007-.105-.007-.157-.001-.679-.001-1.357-.001-2.035 0-.08 0-.08.08-.08h4.837c.085 0 .081 0 .081.083-.003.28-.003.561-.004.842-.001.145-.004.289-.004.433-.002.081-.002.081-.08.081-1.127 0-2.254 0-3.381 0-.028 0-.058 0-.089 0z" fill="#3a3a3a" fill-rule="evenodd"/><path d="m503.32 94.179h41.822c10.946 0 19.82 8.874 19.82 19.82v21.102c0 .641 7.518 1.012 7.518-3.01v-49.756c0-2.437-1.976-4.413-4.413-4.413h-64.747-64.746c-2.437 0-4.413 1.976-4.413 4.413v49.756c0 4.021 7.517 3.65 7.517 3.01v-21.1c0-10.948 8.875-19.822 19.822-19.822z" fill="url(#a)"/><path d="m558.85 187.451h-111c-1.657 0-3-1.343-3-3v-64.938c0-8.319 6.744-15.063 15.063-15.063h86.875c8.319 0 15.063 6.744 15.063 15.063v64.938c-.001 1.656-1.345 3-3.001 3z" fill="url(#b)"/><path d="m558.85 187.451h-111c-1.657 0-3-1.343-3-3v-10.833h117v10.833c0 1.656-1.344 3-3 3z" fill="#db3cbc"/><path d="m459.85 187.451h-12c-1.657 0-3-1.343-3-3v-64.938c0-8.319 6.744-15.063 15.063-15.063z" fill="#b1389f"/><path d="m459.906 125.124-15.056 10.542v-12.129l15.056-10.542z" fill="#db3cbc"/><path d="m444.85 159.923 15.056-10.542v-12.129l-15.056 10.543z" fill="#db3cbc"/><path d="m444.85 184.451v-12.399l15.056-10.542v12.128l-15.056 10.543" fill="#db3cbc"/><text font-family="Swiss721BT-BoldCondensed" font-size="2.852" transform="translate(466.5996 186.1107)">Copying and/or transmission strictly prohibited</text><path d="m490.559 179.471h.917c-.563-.525-.917-1.278-.917-2.113 0-1.588 1.272-2.879 2.835-2.879h3.648l.008.977c.455-.589 1.164-.968 1.958-.968h3.875v2.008l-.016 4.226v2.008h-3.859c-1.018 0-1.894-.622-2.278-1.511l-.004-.002c-.48.905-1.423 1.521-2.506 1.521h-3.661v-2.024" fill="#fff"/><path d="m508.521 176.979v5.75h-3.771c-1.375 0-2.493-1.129-2.493-2.516v-3.209c0-1.387 1.115-2.516 2.485-2.516h3.779v2.008z" fill="#fff"/><path d="m509.2 182.729h-2.12l2.334-6.949c.244-.821 1.059-1.405 1.975-1.405s1.73.584 1.98 1.422l2.303 6.933h-5.212-1.26z" fill="#fff"/><path d="m491.06 182.237h3.161c1.294 0 2.343-1.065 2.343-2.379s-1.048-2.371-2.343-2.371h-.826c-.064 0-.119-.056-.119-.121 0-.073.056-.129.119-.129h3.153l.008-1h-3.161c-.611 0-1.104.5-1.104 1.121 0 .629.492 1.137 1.104 1.137h.826c.739 0 1.342.613 1.342 1.363s-.604 1.355-1.342 1.355h-3.161z" fill="#17569b"/><path d="m491.06 180.979h3.161c.619 0 1.112-.508 1.112-1.129s-.492-1.129-1.112-1.129h-.826c-.739 0-1.334-.621-1.334-1.371s.596-1.355 1.334-1.355h3.161l-.008-1.016h-3.153c-1.294 0-2.335 1.065-2.335 2.379s1.048 2.371 2.335 2.371h.818c.064 0 .119.056.119.121s-.056.121-.119.121h-3.153zm7.949.242c-.548 0-.993-.444-.993-1.008v-3.226c0-.54.445-.992.993-.992h3.375v-1.008h-3.375c-1.096 0-1.985.903-1.985 2.016v3.21c0 1.113.889 2.016 1.985 2.016h3.359v-1.008z" fill="#17569b"/><path d="m498.262 177.003c0-.419.334-.774.754-.774h3.375v1.008h-2.906c-.23 0-.23.234-.23.234h2.43v1.008h-3.415z" fill="#17569b"/><path d="m499.009 180.979c-.413 0-.754-.347-.754-.766v-1.484h3.415v1.008h-2.43c0 .234.23.234.23.234h2.891v1z" fill="#17569b"/><path d="m504.758 181.221c-.548 0-1.001-.452-1.001-1.008v-3.21c0-.556.445-1.008.993-1.008h3.272v-1.008h-3.28c-1.096 0-1.985.903-1.985 2.016v3.21c0 1.113.897 2.016 1.993 2.016h3.272v-4.75h-2.811v1.008h1.818v2.734z" fill="#17569b"/><path d="m503.988 180.213c0 .419.341.774.762.774h2.041v-2.258h-1.58v1.016h.588v.234h-.588c-.127 0-.23-.113-.23-.234v-2.258s0-.234.23-.234h2.803v-1.008h-3.272c-.413 0-.762.347-.762.774z" fill="#17569b"/><path d="m511.087 176.221c.048-.129.159-.226.302-.226s.262.089.302.226l1.58 4.774h-2.319v-1.121h.778l-.349-1.065-1.144 3.419h-1.167z" fill="#17569b"/><path d="m513.604 181.221h-2.644v1.008h4.018l-2.089-6.29c-.183-.613-.786-1.065-1.501-1.065s-1.318.452-1.501 1.065l-2.112 6.29h1.064l2.041-6.121c.087-.202.278-.347.516-.347.23 0 .421.137.508.347z" fill="#17569b"/><path d="m515.796 174.68c-.213-.229-.51-.349-.818-.349-.64 0-1.162.518-1.162 1.168 0 .313.13.614.344.831.213.253.51.361.818.361s.604-.12.818-.349c.225-.229.344-.518.344-.831 0-.314-.119-.614-.344-.831zm-.794 1.842c-.273 0-.522-.096-.711-.301-.202-.169-.308-.433-.308-.71 0-.265.107-.518.296-.722.178-.193.439-.301.711-.301.261 0 .51.108.711.301.19.193.296.457.296.722 0 .565-.45 1.011-.995 1.011z"/><path d="m514.682 175.619v.566h-.166v-1.312h.474c.178 0 .284 0 .391.084.083.072.13.181.13.301 0 .301-.237.349-.308.349l.356.566h-.202l-.344-.566zm0-.145h.344c.059 0 .107 0 .154-.024.13-.024.166-.12.166-.205 0-.024-.012-.132-.083-.193-.071-.06-.154-.048-.249-.048h-.332z"/><path d="m456.559 172.699c.164.417.307.872.428 1.365.122.494.183.971.183 1.432 0 .594-.07 1.139-.211 1.634s-.352.917-.633 1.265c-.284.352-.64.624-1.066.814-.426.191-.925.287-1.497.287-1.046 0-1.872-.356-2.477-1.068s-.908-1.689-.908-2.933c0-.434.045-.876.134-1.329s.241-.94.455-1.462h1.033v.092c-.07.106-.163.259-.277.461s-.209.399-.286.594c-.091.235-.166.503-.226.802s-.09.638-.09 1.017c0 .854.235 1.529.706 2.026.47.497 1.107.746 1.91.746.847 0 1.506-.26 1.976-.779.471-.519.706-1.226.706-2.121 0-.328-.028-.655-.083-.981s-.127-.612-.215-.858h-1.604v2.043h-.765v-3.047z" fill="#fff"/><path d="m457.042 164.913v1.081l-1.825.748v3.299l1.825.748v1.029l-6.546-2.776v-1.352zm-2.572 2.141-3.214 1.337 3.214 1.342z" fill="#fff"/><path d="m457.042 156.963v1.014h-5.641l5.641 2.121v.604l-5.641 2.105h5.641v.948h-6.546v-1.383l5.448-2.033-5.448-1.967v-1.409z" fill="#fff"/><path d="m457.042 149.21v5.704h-6.546v-5.704h.774v4.69h1.794v-4.011h.773v4.011h2.431v-4.69z" fill="#fff"/><path d="m456.559 139.231c.164.417.307.872.428 1.365.122.494.183.971.183 1.432 0 .594-.07 1.139-.211 1.634s-.352.917-.633 1.265c-.284.352-.64.624-1.066.814-.426.191-.925.287-1.497.287-1.046 0-1.872-.356-2.477-1.068s-.908-1.689-.908-2.933c0-.434.045-.876.134-1.329s.241-.94.455-1.462h1.033v.092c-.07.106-.163.259-.277.461s-.209.399-.286.594c-.091.235-.166.503-.226.802s-.09.638-.09 1.017c0 .854.235 1.529.706 2.026.47.497 1.107.746 1.91.746.847 0 1.506-.26 1.976-.779.471-.519.706-1.226.706-2.121 0-.328-.028-.655-.083-.981s-.127-.612-.215-.858h-1.604v2.043h-.765v-3.047z" fill="#fff"/><path d="m457.042 123.811v1.081l-1.825.748v3.299l1.825.748v1.029l-6.546-2.776v-1.352zm-2.572 2.141-3.214 1.337 3.214 1.342z" fill="#fff"/><path d="m457.042 116.342v1.317l-2.603 1.717v2.263h2.603v1.014h-6.546v-2.97c0-.461.026-.845.077-1.152.051-.308.143-.584.275-.83.149-.276.338-.492.565-.648.227-.155.515-.233.864-.233.472 0 .867.138 1.185.415.318.276.558.657.719 1.142zm-4.704 1.538c-.188 0-.354.038-.499.115s-.268.204-.367.381c-.085.147-.144.321-.178.522-.034.202-.051.439-.051.712v2.028h2.471v-1.858c0-.321-.024-.601-.072-.84s-.139-.442-.271-.609c-.123-.154-.265-.267-.424-.341-.16-.073-.363-.11-.609-.11z" fill="#fff"/><path d="m457.046 131.648v5.704h-6.546v-5.704h.774v4.69h1.794v-4.011h.773v4.011h2.431v-4.69z" fill="#fff"/><path d="m450.837 115.22v.487h-.341v-1.375h.341v.487h1.459v.4h-1.459z"/><path d="m450.496 114.057v-.437l.8-.287c.106-.036.222-.066.333-.102v-.011c-.111-.036-.226-.065-.333-.101l-.8-.278v-.437h1.8v.364h-.661c-.175 0-.438-.032-.611-.051v.011l.426.145.689.25v.222l-.689.25-.426.141v.011c.174-.019.436-.051.611-.051h.661v.359h-1.8z"/></svg>