<svg enable-background="new 0 0 398.631 262.024" viewBox="0 0 398.631 262.024" xmlns="http://www.w3.org/2000/svg" xmlns:xlink="http://www.w3.org/1999/xlink"><clipPath id="a"><path d="m322.253 199.237h36.76v36.76h-36.76z"/></clipPath><clipPath id="b"><path d="m228.77 198.999h37.544v37.544h-37.544z"/></clipPath><path d="m199.228 262.024c35.223 0 141.719-5.802 150.835-6.631 9.117-.828 41.439 2.901 46.411-35.222 4.974-38.124-1.362-102.042-4.144-118.514-5.387-31.907-4.42-43.648-22.791-45.996-26.463-3.382-89.092-10.359-170.446-10.359h.135c-81.354 0-143.983 6.977-170.446 10.359-18.371 2.349-17.403 14.089-22.791 45.996-2.781 16.472-9.116 80.39-4.144 118.514 4.973 38.123 37.294 34.393 46.411 35.222 9.116.829 115.612 6.631 150.835 6.631z" fill="#333"/><path d="m199.228 255.946c34.27 0 137.687-4.856 146.556-5.664 8.87-.805 39.501.42 44.339-36.672s-.447-94.658-3.152-110.684c-5.242-31.045-3.978-44.152-21.852-46.437-25.748-3.291-86.873-10.359-166.026-10.359h.135c-79.153 0-140.278 7.068-166.026 10.359-17.873 2.285-16.61 15.392-21.852 46.437-2.705 16.026-7.99 73.592-3.152 110.684s35.469 35.867 44.339 36.672c8.87.808 112.287 5.664 146.556 5.664z" fill="#404140"/><path d="m202.393 194.065s42.265.277 62.708 0c20.443-.275 31.493-20.994 34.532-28.178 3.039-7.182 26.521-70.997 29.559-80.666 3.039-9.669-1.934-18.786-8.564-21.272-6.629-2.486-23.481-6.354-46.135-8.012-22.652-1.658-41.437-1.934-72.1-1.934h-3.165c-30.662 0-49.447.276-72.101 1.934-22.652 1.658-39.504 5.525-46.134 8.012-6.63 2.486-11.603 11.603-8.564 21.272s26.521 73.484 29.559 80.666c3.039 7.184 14.089 27.902 34.532 28.178 20.443.277 62.708 0 62.708 0z" fill="#333"/><path d="m53.842 53.472c3.253 10.351 37.926 107.673 41.179 115.363 3.253 7.688 15.082 34.426 36.966 34.723 21.884.295 67.129 0 67.129 0h3.389s45.245.295 67.129 0c21.885-.297 33.713-27.035 36.967-34.723 3.253-7.689 36.967-104.48 40.22-114.831" fill="none" stroke="#333" stroke-miterlimit="10" stroke-width="1.6575"/><path d="m202.343 193.516s40.933.268 60.731 0 30.499-21.99 33.443-28.947c2.943-6.955 25.684-68.758 28.628-78.123 2.943-9.364-1.873-16.121-8.294-18.529s-22.742-6.154-44.68-7.759-40.132-1.873-69.827-1.873h-3.064c-29.695 0-47.889.268-69.828 1.873-21.938 1.605-38.259 5.351-44.68 7.759s-11.237 9.165-8.294 18.529 25.685 71.167 28.627 78.123c2.942 6.957 13.645 28.68 33.443 28.947 19.798.268 60.731 0 60.731 0z" fill="#272727"/><path d="m281.627 173.761c0 3.243-2.629 5.873-5.873 5.873h-147.241c-3.244 0-5.873-2.63-5.873-5.873v-107.461c0-3.244 2.629-5.873 5.873-5.873h147.241c3.244 0 5.873 2.629 5.873 5.873z" fill="#3a3b3b"/><path d="m266.456 165.628c0 2.654-2.152 4.805-4.805 4.805h-120.484c-2.654 0-4.806-2.15-4.806-4.805v-87.932c0-2.654 2.152-4.807 4.806-4.807h120.484c2.653 0 4.805 2.152 4.805 4.807z" fill="#1a1b1b"/><g fill="#242425"><path d="m40.695 203.087c0 1.105-.896 2.002-2.003 2.002-1.106 0-2.002-.897-2.002-2.002 0-1.107.896-2.004 2.002-2.004 1.107 0 2.003.896 2.003 2.004z"/><path d="m40.695 209.552c0 1.105-.896 2.003-2.003 2.003-1.106 0-2.002-.897-2.002-2.003 0-1.105.896-2.002 2.002-2.002 1.107 0 2.003.896 2.003 2.002z"/><path d="m40.695 216.016c0 1.105-.896 2.003-2.003 2.003-1.106 0-2.002-.897-2.002-2.003s.896-2.003 2.002-2.003c1.107 0 2.003.898 2.003 2.003z"/><path d="m46.981 196.62c0 1.107-.897 2.004-2.003 2.004-1.105 0-2.003-.896-2.003-2.004 0-1.105.897-2.002 2.003-2.002s2.003.896 2.003 2.002z"/><path d="m46.981 203.087c0 1.105-.897 2.002-2.003 2.002-1.105 0-2.003-.897-2.003-2.002 0-1.107.897-2.004 2.003-2.004s2.003.896 2.003 2.004z"/><path d="m46.981 209.552c0 1.105-.897 2.003-2.003 2.003-1.105 0-2.003-.897-2.003-2.003 0-1.105.897-2.002 2.003-2.002s2.003.896 2.003 2.002z"/><path d="m46.981 216.016c0 1.105-.897 2.003-2.003 2.003-1.105 0-2.003-.897-2.003-2.003s.897-2.003 2.003-2.003 2.003.898 2.003 2.003z"/><path d="m46.981 222.482c0 1.107-.897 2.003-2.003 2.003-1.105 0-2.003-.896-2.003-2.003 0-1.106.897-2.003 2.003-2.003s2.003.897 2.003 2.003z"/><path d="m53.265 196.62c0 1.107-.896 2.004-2.002 2.004s-2.003-.896-2.003-2.004c0-1.105.897-2.002 2.003-2.002s2.002.896 2.002 2.002z"/><path d="m53.265 203.087c0 1.105-.896 2.002-2.002 2.002s-2.003-.897-2.003-2.002c0-1.107.897-2.004 2.003-2.004s2.002.896 2.002 2.004z"/><path d="m53.265 209.552c0 1.105-.896 2.003-2.002 2.003s-2.003-.897-2.003-2.003c0-1.105.897-2.002 2.003-2.002s2.002.896 2.002 2.002z"/><path d="m53.265 216.016c0 1.105-.896 2.003-2.002 2.003s-2.003-.897-2.003-2.003.897-2.003 2.003-2.003 2.002.898 2.002 2.003z"/><path d="m53.265 222.482c0 1.107-.896 2.003-2.002 2.003s-2.003-.896-2.003-2.003c0-1.106.897-2.003 2.003-2.003s2.002.897 2.002 2.003z"/><path d="m59.55 196.62c0 1.107-.896 2.004-2.002 2.004s-2.003-.896-2.003-2.004c0-1.105.897-2.002 2.003-2.002s2.002.896 2.002 2.002z"/><path d="m59.55 203.087c0 1.105-.896 2.002-2.002 2.002s-2.003-.897-2.003-2.002c0-1.107.897-2.004 2.003-2.004s2.002.896 2.002 2.004z"/><path d="m59.55 209.552c0 1.105-.896 2.003-2.002 2.003s-2.003-.897-2.003-2.003c0-1.105.897-2.002 2.003-2.002s2.002.896 2.002 2.002z"/><path d="m59.55 216.016c0 1.105-.896 2.003-2.002 2.003s-2.003-.897-2.003-2.003.897-2.003 2.003-2.003 2.002.898 2.002 2.003z"/><path d="m59.55 222.482c0 1.107-.896 2.003-2.002 2.003s-2.003-.896-2.003-2.003c0-1.106.897-2.003 2.003-2.003s2.002.897 2.002 2.003z"/><path d="m65.835 196.62c0 1.107-.897 2.004-2.002 2.004-1.106 0-2.003-.896-2.003-2.004 0-1.105.897-2.002 2.003-2.002s2.002.896 2.002 2.002z"/><path d="m65.835 203.087c0 1.105-.897 2.002-2.002 2.002-1.106 0-2.003-.897-2.003-2.002 0-1.107.897-2.004 2.003-2.004s2.002.896 2.002 2.004z"/><path d="m65.835 209.552c0 1.105-.897 2.003-2.002 2.003-1.106 0-2.003-.897-2.003-2.003 0-1.105.897-2.002 2.003-2.002s2.002.896 2.002 2.002z"/><path d="m65.835 216.016c0 1.105-.897 2.003-2.002 2.003-1.106 0-2.003-.897-2.003-2.003s.897-2.003 2.003-2.003 2.002.898 2.002 2.003z"/><path d="m65.835 222.482c0 1.107-.897 2.003-2.002 2.003-1.106 0-2.003-.896-2.003-2.003 0-1.106.897-2.003 2.003-2.003s2.002.897 2.002 2.003z"/><path d="m72.121 196.62c0 1.107-.897 2.004-2.003 2.004s-2.003-.896-2.003-2.004c0-1.105.896-2.002 2.003-2.002 1.106 0 2.003.896 2.003 2.002z"/><path d="m72.121 203.087c0 1.105-.897 2.002-2.003 2.002s-2.003-.897-2.003-2.002c0-1.107.896-2.004 2.003-2.004 1.106 0 2.003.896 2.003 2.004z"/><path d="m72.121 209.552c0 1.105-.897 2.003-2.003 2.003s-2.003-.897-2.003-2.003c0-1.105.896-2.002 2.003-2.002 1.106 0 2.003.896 2.003 2.002z"/><path d="m72.121 216.016c0 1.105-.897 2.003-2.003 2.003s-2.003-.897-2.003-2.003.896-2.003 2.003-2.003c1.106 0 2.003.898 2.003 2.003z"/><path d="m72.121 222.482c0 1.107-.897 2.003-2.003 2.003s-2.003-.896-2.003-2.003c0-1.106.896-2.003 2.003-2.003 1.106 0 2.003.897 2.003 2.003z"/><path d="m78.405 196.62c0 1.107-.897 2.004-2.003 2.004s-2.003-.896-2.003-2.004c0-1.105.897-2.002 2.003-2.002s2.003.896 2.003 2.002z"/><path d="m78.405 203.087c0 1.105-.897 2.002-2.003 2.002s-2.003-.897-2.003-2.002c0-1.107.897-2.004 2.003-2.004s2.003.896 2.003 2.004z"/><path d="m78.405 209.552c0 1.105-.897 2.003-2.003 2.003s-2.003-.897-2.003-2.003c0-1.105.897-2.002 2.003-2.002s2.003.896 2.003 2.002z"/><circle cx="76.402" cy="216.016" r="2.003"/><path d="m78.405 222.482c0 1.107-.897 2.003-2.003 2.003s-2.003-.896-2.003-2.003c0-1.106.897-2.003 2.003-2.003s2.003.897 2.003 2.003z"/><path d="m84.69 203.087c0 1.105-.897 2.002-2.003 2.002s-2.003-.897-2.003-2.002c0-1.107.896-2.004 2.003-2.004s2.003.896 2.003 2.004z"/><path d="m84.69 209.552c0 1.105-.897 2.003-2.003 2.003s-2.003-.897-2.003-2.003c0-1.105.896-2.002 2.003-2.002s2.003.896 2.003 2.002z"/><path d="m84.69 216.016c0 1.105-.897 2.003-2.003 2.003s-2.003-.897-2.003-2.003.896-2.003 2.003-2.003 2.003.898 2.003 2.003z"/></g><path d="m349.98 86.585c.077-2.899-1.417-9.541-7.251-11.188-2.141-.604-2.435-.104-2.746.777-.311.88-6.733 19.113-6.733 19.113s-.984 2.693 1.606 2.745c2.589.052 14.814.311 15.124-11.447z" fill="#2c3691"/><path clip-rule="evenodd" d="m95.932 66.212c.12.026.243.042.36.08.437.146.67.468.763.904.087.408.042.812-.048 1.213-.168.745-.48 1.431-.853 2.092-.504.892-1.113 1.707-1.799 2.467-.738.819-1.548 1.557-2.466 2.173-.572.382-1.171.712-1.834.906-.351.103-.706.162-1.074.106-.522-.08-.877-.413-.99-.935-.083-.381-.055-.76.021-1.137.148-.732.438-1.412.8-2.058.992-1.772 2.306-3.265 3.928-4.486.579-.436 1.197-.809 1.877-1.072.313-.121.633-.212.969-.24.016-.002.032-.008.048-.013z" fill="#c3262e" fill-rule="evenodd"/><path clip-rule="evenodd" d="m104.523 66.212c.12.026.243.042.359.08.437.146.671.468.763.904.087.408.042.812-.048 1.213-.168.745-.48 1.431-.853 2.092-.503.892-1.113 1.707-1.799 2.467-.738.819-1.548 1.557-2.466 2.173-.571.382-1.171.712-1.835.906-.35.103-.706.162-1.074.106-.521-.08-.877-.413-.99-.935-.083-.381-.055-.76.021-1.137.148-.732.438-1.412.8-2.058.992-1.772 2.307-3.265 3.928-4.486.579-.436 1.198-.809 1.878-1.072.313-.121.633-.212.969-.24.017-.002.032-.008.047-.013z" fill="#0d9347" fill-rule="evenodd"/><path clip-rule="evenodd" d="m113.113 66.212c.12.026.243.042.359.08.437.146.67.468.763.904.087.408.042.812-.048 1.213-.168.745-.48 1.431-.853 2.092-.503.892-1.113 1.707-1.798 2.467-.739.819-1.549 1.557-2.466 2.173-.571.382-1.171.712-1.834.906-.351.103-.707.162-1.074.106-.522-.08-.877-.413-.991-.935-.083-.381-.054-.76.022-1.137.147-.732.438-1.412.8-2.058.992-1.772 2.307-3.265 3.928-4.486.58-.436 1.198-.809 1.878-1.072.313-.121.633-.212.969-.24.017-.002.032-.008.047-.013z" fill="#2c3691" fill-rule="evenodd"/><path clip-rule="evenodd" d="m95.434 93.948c-.11-.026-.221-.05-.33-.079-.707-.19-1.218-.625-1.558-1.267-.219-.415-.328-.863-.373-1.326-.072-.724-.028-1.441.153-2.147.194-.757.536-1.438 1.072-2.012.582-.623 1.308-.922 2.157-.93.512-.005 1.005.08 1.467.313.695.353 1.085.928 1.211 1.688.041.247.055.499.083.755-.527 0-1.034 0-1.54 0-.014-.133-.019-.266-.042-.395-.086-.471-.314-.71-.786-.799-.481-.091-.931-.012-1.318.309-.262.216-.436.499-.577.802-.338.734-.445 1.505-.342 2.304.035.275.127.534.279.77.179.276.43.445.756.491.331.046.653.015.959-.127.23-.106.396-.282.54-.483.162-.225.274-.474.355-.745-.477 0-.947 0-1.425 0 .024-.143.047-.28.07-.416.05-.296.101-.593.147-.891.01-.064.032-.082.098-.082.83.002 1.661.002 2.492.002h.203c-.017.1-.032.193-.049.286-.071.394-.125.792-.218 1.181-.157.655-.435 1.257-.879 1.773-.272.316-.603.554-.982.724-.202.091-.406.179-.61.267-.037.016-.077.023-.115.034-.3 0-.599 0-.898 0z" fill="#cdcccc" fill-rule="evenodd"/><path clip-rule="evenodd" d="m86.621 82.386c.009-.106.018-.211.028-.318.1-1.061.442-2.025 1.15-2.837.542-.623 1.23-.958 2.057-1.005.521-.03 1.027.029 1.509.242.765.336 1.209.923 1.347 1.742.042.249.056.503.084.762-.526 0-1.032 0-1.537 0-.015-.136-.02-.275-.045-.408-.088-.467-.322-.702-.796-.786-.475-.083-.917-.008-1.3.305-.231.188-.394.428-.527.69-.351.692-.476 1.431-.426 2.2.018.3.092.589.23.859.218.424.567.638 1.041.643.456.005.862-.114 1.171-.476.164-.193.292-.408.385-.644.032-.081.059-.164.092-.257-.48 0-.951 0-1.426 0 .077-.464.153-.92.229-1.38h2.777c-.021.121-.04.238-.062.357-.065.366-.116.735-.203 1.097-.156.65-.427 1.25-.866 1.764-.274.321-.608.562-.991.737-.148.067-.292.147-.443.211-.254.105-.522.13-.795.119-.466-.018-.912-.115-1.319-.352-.512-.298-.858-.738-1.079-1.281-.167-.408-.243-.836-.271-1.274-.003-.037-.009-.074-.013-.112-.001-.199-.001-.398-.001-.598z" fill="#cdcccc" fill-rule="evenodd"/><path clip-rule="evenodd" d="m99.966 85.824c-.167-1.902-.334-3.796-.501-5.69-.004 0-.007 0-.011-.001-.025.178-.051.355-.075.533-.08.566-.158 1.132-.236 1.698-.078.559-.156 1.117-.233 1.677-.08.577-.161 1.155-.243 1.732-.002.019-.031.048-.048.048-.427.002-.854.001-1.281.001-.007 0-.013-.004-.027-.01.411-2.463.822-4.926 1.234-7.395h1.9c.141 1.723.281 3.45.422 5.175.004.002.009.003.014.005.01-.023.02-.044.029-.066.686-1.683 1.373-3.365 2.057-5.048.025-.063.052-.089.126-.088.588.008 1.177.011 1.766.015.016 0 .032.002.057.003-.03.178-.059.353-.087.527-.126.75-.252 1.5-.378 2.251-.126.752-.252 1.505-.379 2.258-.125.747-.249 1.496-.377 2.243-.026.154.011.128-.148.13-.372.001-.745 0-1.118 0-.027 0-.055 0-.093 0 .35-1.905.696-3.799 1.044-5.692-.003-.001-.006-.003-.009-.004-.033.08-.066.159-.099.239-.725 1.792-1.449 3.584-2.171 5.377-.026.063-.057.082-.124.082-.306-.004-.613-.002-.918-.002-.031.002-.059.002-.093.002z" fill="#cdcccc" fill-rule="evenodd"/><path clip-rule="evenodd" d="m112.57 90.665c.406 1.044.81 2.082 1.216 3.127-.032.001-.054.003-.077.003-.494 0-.987-.001-1.48.001-.053 0-.078-.014-.098-.065-.347-.899-.698-1.797-1.045-2.696-.021-.056-.047-.071-.103-.07-.192.004-.384.001-.583.001-.158.942-.317 1.881-.476 2.823-.473 0-.943 0-1.422 0 .41-2.472.819-4.94 1.228-7.414.019-.001.038-.004.056-.004.832 0 1.665-.002 2.498.002.285.001.562.05.823.169.363.165.626.431.752.811.202.606.228 1.224.017 1.83-.224.639-.667 1.104-1.245 1.446-.018.012-.036.022-.061.036zm-1.957-1.035c.021.002.038.004.054.004.249 0 .498.008.746-.004.15-.007.304-.029.447-.073.338-.103.593-.303.681-.666.05-.209.045-.418 0-.627-.045-.21-.174-.345-.381-.397-.114-.028-.232-.05-.349-.055-.271-.008-.541-.002-.811-.006-.052 0-.067.018-.076.067-.058.338-.12.676-.18 1.015-.044.246-.087.493-.131.742z" fill="#cdcccc" fill-rule="evenodd"/><path clip-rule="evenodd" d="m108.516 81.277c-.077.486-.151.959-.227 1.438-.727 0-1.452 0-2.186 0-.094.527-.187 1.048-.282 1.579h2.466c-.023.149-.045.29-.067.429-.056.349-.113.697-.167 1.046-.007.041-.021.055-.062.055-1.265-.001-2.53-.001-3.794-.001-.009 0-.018-.003-.04-.006.409-2.472.818-4.941 1.228-7.414h3.843c-.078.512-.156 1.021-.234 1.534-.807 0-1.608 0-2.418 0-.082.446-.162.888-.244 1.339.727.001 1.449.001 2.184.001z" fill="#cdcccc" fill-rule="evenodd"/><path clip-rule="evenodd" d="m98.905 93.79c.41-2.474.819-4.942 1.229-7.414h3.842c-.078.51-.155 1.018-.233 1.531-.807 0-1.609 0-2.419 0-.081.448-.161.891-.243 1.343h2.182c-.076.484-.15.959-.225 1.438-.034 0-.061 0-.089 0-.671 0-1.343.001-2.014-.002-.068 0-.087.021-.098.083-.084.481-.172.961-.259 1.441-.002.016-.001.033-.003.055h2.464c-.082.512-.162 1.017-.243 1.525-1.295 0-2.587 0-3.891 0z" fill="#cdcccc" fill-rule="evenodd"/><path clip-rule="evenodd" d="m107.508 86.369c.282 2.477.563 4.944.844 7.42-.47 0-.936 0-1.408 0-.041-.477-.082-.954-.124-1.436-.029-.001-.054-.003-.079-.003-.586 0-1.172.001-1.758-.002-.058 0-.08.018-.1.072-.158.439-.32.877-.48 1.315-.014.039-.028.062-.077.062-.451-.002-.902-.001-1.353-.001-.014 0-.028-.002-.05-.004.029-.074.057-.144.084-.213.958-2.379 1.916-4.759 2.872-7.139.021-.052.044-.071.102-.07.484.002.968.001 1.452.001.023-.002.044-.002.075-.002zm-2.129 4.702h1.332c-.083-.973-.167-1.941-.25-2.909-.006-.001-.012-.002-.017-.002-.354.968-.708 1.936-1.065 2.911z" fill="#cdcccc" fill-rule="evenodd"/><path clip-rule="evenodd" d="m97.122 85.824c-.032 0-.058 0-.084 0-.413 0-.826-.002-1.239.003-.075 0-.089-.026-.095-.092-.036-.449-.075-.897-.114-1.357-.029 0-.057 0-.085 0-.579 0-1.158.001-1.737-.001-.063-.001-.094.015-.117.078-.156.438-.319.872-.479 1.309-.014.039-.027.063-.077.063-.449-.003-.897-.001-1.345-.001-.015 0-.029-.003-.052-.005.008-.025.015-.047.023-.068.979-2.43 1.957-4.86 2.934-7.291.019-.046.041-.063.092-.063.487.003.974.003 1.459 0 .055 0 .076.012.083.072.057.525.119 1.051.179 1.576.059.521.117 1.041.176 1.562.06.521.119 1.041.179 1.562.054.473.108.947.162 1.421.045.397.09.796.135 1.194.001.007.001.017.002.038zm-1.889-5.637c-.004-.001-.01-.001-.014-.001-.357.972-.713 1.944-1.07 2.918h1.333c-.084-.977-.166-1.947-.249-2.917z" fill="#cdcccc" fill-rule="evenodd"/><path clip-rule="evenodd" d="m307.742 74.496v1.194c-.025.001-.047.002-.069.002-1.299 0-2.596.004-3.895-.001-.557-.002-1.058.387-1.188.924-.022.092-.035.188-.036.283-.002 1.289-.002 2.579-.001 3.87 0 .587.446 1.101 1.028 1.188.069.011.138.017.208.017.897.001 1.794.001 2.691.001.07 0 .07 0 .07-.072 0-1.049 0-2.098 0-3.147 0-.074 0-.074-.072-.074-.692 0-1.384 0-2.076 0-.064 0-.065 0-.065-.063 0-.36 0-.721 0-1.082 0-.016 0-.032 0-.05h3.408v4.834c.005.001.01.002.015.003.008-.017.016-.032.022-.049.23-.678.461-1.355.691-2.033.293-.86.586-1.721.879-2.582.236-.694.468-1.391.708-2.085.185-.534.558-.898 1.083-1.088.734-.265 1.415-.153 2.02.349.263.219.426.504.534.828.478 1.43.961 2.858 1.442 4.287.355 1.054.711 2.108 1.067 3.162.005.017.009.033.016.056-.023.001-.039.003-.057.003-1.588 0-3.174 0-4.762.001-.048 0-.06-.014-.059-.061.002-.36.001-.721.001-1.081 0-.016 0-.032 0-.056h3.218c-.02-.06-.035-.111-.052-.16-.576-1.698-1.151-3.396-1.726-5.095-.098-.287-.195-.574-.292-.861-.089-.261-.353-.445-.634-.443-.289.001-.549.182-.638.444-.346 1.022-.692 2.043-1.039 3.065-.431 1.271-.863 2.543-1.294 3.815-.043.125-.088.249-.127.375-.014.045-.036.055-.08.055-.34-.002-.682-.001-1.022-.001-1.294 0-2.586-.004-3.879.001-1.036.003-1.971-.654-2.309-1.646-.082-.242-.125-.491-.125-.746-.003-1.296-.003-2.592-.001-3.889.001-1.124.818-2.122 1.919-2.341.164-.032.333-.049.499-.05 1.301-.004 2.603-.002 3.904-.002.026.001.048.001.075.001z" fill="#cdcccc" fill-rule="evenodd"/><path clip-rule="evenodd" d="m287.11 81.678c0-.403 0-.797 0-1.197h.069c1.241 0 2.482 0 3.724-.001.027 0 .055-.001.081-.009.067-.018.106-.077.104-.15-.003-.067-.049-.122-.117-.135-.027-.004-.055-.006-.082-.006-.346-.001-.691.005-1.038-.003-.629-.015-1.191-.226-1.682-.619-.55-.442-.896-1.014-1.016-1.71-.147-.854.049-1.63.596-2.307.425-.527.978-.856 1.643-.988.177-.035.362-.053.543-.054 1.261-.004 2.521-.002 3.782-.002h.064v1.201c-.022 0-.046 0-.069 0-1.252 0-2.505 0-3.757.001-.772 0-1.432.519-1.6 1.271-.125.559.012 1.057.395 1.482.267.295.604.466.999.513.15.018.303.013.455.015.26.004.52.006.78.008.589.005 1.116.422 1.267 1.001.201.768-.301 1.542-1.084 1.67-.083.014-.168.019-.251.019-1.247.002-2.496.001-3.743.001-.022-.001-.041-.001-.063-.001z" fill="#cdcccc" fill-rule="evenodd"/><path clip-rule="evenodd" d="m287.107 81.966h.07 3.773c.792 0 1.471-.565 1.616-1.344.162-.869-.423-1.729-1.29-1.901-.201-.04-.405-.033-.608-.035-.244-.002-.488-.001-.732-.004-.669-.011-1.209-.486-1.313-1.137-.108-.693.328-1.345 1.009-1.509.096-.024.198-.035.297-.035 1.268-.002 2.534-.001 3.802-.001h.05c.003.011.006.021.006.029-.003.366-.007.73-.007 1.095 0 .057-.023.062-.068.062-1.233-.001-2.467-.001-3.7-.001-.029 0-.058 0-.087.004-.071.009-.122.066-.125.138-.005.098.054.164.153.164.173 0 .346-.005.519-.004.25.001.502-.01.751.012.565.05 1.07.259 1.511.616.524.425.866.969 1 1.63.176.868-.01 1.659-.559 2.355-.428.543-.99.88-1.666 1.023-.19.04-.383.055-.577.055-1.251 0-2.502 0-3.753 0-.07 0-.07 0-.07-.072 0-.359 0-.718 0-1.077-.002-.018-.002-.038-.002-.063z" fill="#cdcccc" fill-rule="evenodd"/><path clip-rule="evenodd" d="m300.883 74.496v1.193c-.023.001-.047.003-.07.003-1.343 0-2.686 0-4.03 0-.59 0-1.094.419-1.2.999-.012.069-.018.141-.018.212-.001 1.281-.001 2.563-.001 3.845.001.622.442 1.129 1.055 1.214.062.008.125.01.189.01 1.329.001 2.66.001 3.991.001.071 0 .071 0 .071.07 0 .354-.001.708.001 1.062 0 .049-.013.064-.063.064-1.353-.001-2.705.001-4.058-.002-1.125-.003-2.108-.82-2.331-1.924-.035-.171-.05-.342-.05-.515.001-1.262.001-2.525 0-3.788 0-.624.199-1.173.614-1.639.363-.408.816-.665 1.353-.763.156-.028.315-.04.472-.04 1.335-.004 2.67-.002 4.005-.002z" fill="#cdcccc" fill-rule="evenodd"/><path clip-rule="evenodd" d="m311.351 80.569c-.263.774-.56 1.648-.823 2.422-.016.046-.033.091-.047.138-.008.03-.023.041-.055.04-.058-.001-.116 0-.174 0-.373 0-.747 0-1.121 0-.021 0-.041-.002-.068-.003.007-.024.013-.044.019-.063.419-1.24.839-2.479 1.26-3.719.383-1.133.767-2.267 1.15-3.399.091-.266.388-.364.603-.202.068.051.112.12.139.2.326.97.653 1.94.98 2.911.308.912.615 1.824.922 2.737.005.015.01.03.018.052-.938 0-1.869 0-2.805 0-.001-.354.002-.766.002-1.114zm.074-.217c.248.001.557 0 .805 0h.067c-.145-.434-.286-.854-.427-1.274-.004 0-.009 0-.013 0-.006.017-.014.034-.02.051-.131.388-.263.776-.393 1.164z" fill="#cdcccc" fill-rule="evenodd"/><path clip-rule="evenodd" d="m307.744 77.185c-.025 0-.042 0-.06 0-1.094 0-2.188 0-3.282 0-.028 0-.055 0-.083.002-.167.013-.271.124-.271.292v2.711c0 .15.122.276.277.281.139.004.278.003.417.004.088.001.175.002.262.007.043.002.056-.015.054-.056-.003-.064-.003-.129 0-.194.001-.041-.014-.053-.054-.053-.2.001-.401.001-.602 0-.065 0-.066 0-.066-.062 0-.364 0-.728 0-1.091 0-.014.002-.028.003-.045h1.91c0 .021.001.04.002.06v2.574c0 .064-.001.064-.062.064-.797 0-1.594.001-2.391 0-.453 0-.826-.29-.926-.721-.014-.062-.023-.127-.023-.192-.001-1.288-.001-2.576 0-3.864 0-.449.347-.842.793-.901.056-.007.113-.01.169-.01h3.86c.081 0 .071-.007.072.073v1.058c.001.017.001.036.001.063z" fill="#cdcccc" fill-rule="evenodd"/><path clip-rule="evenodd" d="m297.067 77.485h2.935c.002.025.006.047.006.069.002.334.003.669.005 1.003v.004c0 .12 0 .12-.117.12-1.317 0-2.635 0-3.952 0-.022 0-.045 0-.072 0 0-.025 0-.043 0-.06 0-.567 0-1.135.001-1.702 0-.454.295-.818.738-.912.066-.014.138-.018.207-.018h4.005.063v.063 1.067c0 .066 0 .066-.066.066-1.138 0-2.277 0-3.414 0-.035 0-.071.001-.107.005-.14.013-.247.146-.232.295z" fill="#cdcccc" fill-rule="evenodd"/><path clip-rule="evenodd" d="m297.065 80.179c-.009.177.106.295.288.301.015.001.029.001.044.001h3.404c.068 0 .069 0 .069.067v1.057c0 .063-.001.063-.064.063-1.339 0-2.676 0-4.015 0-.467-.001-.85-.335-.914-.798-.006-.043-.005-.087-.005-.131-.001-.562-.001-1.124-.001-1.687 0-.065 0-.065.066-.065h4.01c.07 0 .068 0 .067.069-.001.232-.001.465-.003.697-.001.12-.002.239-.003.359 0 .067 0 .067-.066.067-.934 0-1.869 0-2.802 0-.025 0-.049 0-.075 0z" fill="#cdcccc" fill-rule="evenodd"/><path clip-rule="evenodd" d="m108.827 105.146c0 1.105-.896 2.002-2.003 2.002-1.106 0-2.003-.897-2.003-2.002 0-1.106.896-2.003 2.003-2.003s2.003.897 2.003 2.003z" fill="#c3262e" fill-rule="evenodd"/><path d="m17.249 173.139c1.945 9.895 9.668 24.24 23.447 14.502 13.778-9.737 28.698-27.276 29.422-51.45s-9.843-38.47-29.007-38.47c-19.166 0-27.867 17.302-27.867 27.506-.001 10.203 2.416 39.831 4.005 47.912z" fill="#3d3d3d"/><path d="m64.972 125.227c0 13.178-10.683 23.861-23.861 23.861-13.179 0-23.862-10.684-23.862-23.861 0-13.179 10.683-23.862 23.862-23.862 13.178 0 23.861 10.683 23.861 23.862z" fill="#262727"/><path d="m49.64 134.29v-29.178l-.637-.266c-.17-.071-4.205-1.737-7.893-1.737s-7.723 1.667-7.893 1.737l-.637.266v29.178" fill="#181819"/><path d="m32.581 133.757v11.585l.637.267c.169.07 4.205 1.737 7.893 1.737s7.722-1.667 7.893-1.737l.637-.267v-11.585" fill="#181819"/><path d="m32.581 116.697h-11.586l-.266.638c-.071.17-1.737 4.205-1.737 7.893s1.666 7.722 1.737 7.892l.266.637h11.586" fill="#181819"/><path d="m31.89 133.757h29.335l.266-.637c.071-.171 1.737-4.205 1.737-7.892 0-3.688-1.667-7.723-1.737-7.893l-.266-.638h-29.335" fill="#181819"/><path d="m41.11 104.144c-3.523 0-7.494 1.658-7.494 1.658v10.566l7.494 8.012 7.493-8.012v-10.566c.001 0-3.971-1.658-7.493-1.658z" fill="#262727"/><path d="m41.11 146.309c3.522 0 7.493-1.658 7.493-1.658v-10.566l-7.493-8.012-7.494 8.012v10.566s3.972 1.658 7.494 1.658z" fill="#262727"/><path d="m62.192 125.227c0-3.522-1.657-7.494-1.657-7.494h-11.395l-7.183 7.494 7.183 7.492h11.396c-.001 0 1.656-3.97 1.656-7.492z" fill="#262727"/><path d="m20.027 125.227c0 3.521 1.658 7.492 1.658 7.492h11.396l7.183-7.492-7.183-7.494h-11.396s-1.658 3.972-1.658 7.494z" fill="#262727"/><path d="m345.281 139.766c-18.851 18.713-29.216 38.834-23.152 44.943s26.262-4.107 45.115-22.818c11.025-10.944 19.145-22.369 22.775-31.191-.449-5.513-.937-10.562-1.418-14.939-7.615-3.168-26.033 6.845-43.32 24.005z" fill="#3d3d3d"/><path d="m353.784 141.645c0 6.479-5.251 11.73-11.729 11.73s-11.728-5.251-11.728-11.73c0-6.477 5.25-11.729 11.728-11.729 6.478.001 11.729 5.252 11.729 11.729z" fill="#2f2f2f"/><path d="m381.237 118.647c0 6.479-5.251 11.73-11.73 11.73-6.478 0-11.729-5.251-11.729-11.73 0-6.478 5.251-11.729 11.729-11.729 6.479.001 11.73 5.252 11.73 11.729z" fill="#2f2f2f"/><path d="m119.203.395h-114.436c-2.079 0-3.765 1.686-3.765 3.765v34.504c0 2.079 1.686 3.764 3.765 3.764h114.436c2.079 0 3.765-1.685 3.765-3.764v-34.505c-.001-2.079-1.686-3.764-3.765-3.764" fill="#f4f4f4"/><path d="m4.767.395v.395h114.436c1.861.003 3.367 1.509 3.37 3.37v34.504c-.003 1.861-1.509 3.366-3.37 3.369h-114.436c-1.861-.003-3.367-1.509-3.37-3.369v-34.504c.003-1.861 1.509-3.367 3.37-3.37v-.395-.395c-2.298 0-4.159 1.862-4.16 4.159v34.504c0 2.297 1.862 4.159 4.159 4.159h114.436c2.297 0 4.159-1.862 4.159-4.159v-34.504c0-2.297-1.862-4.159-4.159-4.159h-114.435z" fill="#35495e"/><path d="m25.485 40.292h-7.2c-2.318 0-3.159-1.89-3.159-3.16v-8.842h-8.843c-2.319 0-3.161-1.89-3.161-3.16v-7.2c0-2.318 1.891-3.159 3.161-3.159h8.844v-8.844c0-2.319 1.889-3.16 3.159-3.16h7.2c2.319 0 3.161 1.891 3.161 3.16v8.843h8.841c1.216 0 2.181.532 2.718 1.499.21.38.462 1.126.435 1.66h.008v7.2c0 2.319-1.89 3.16-3.161 3.16h-8.841v8.842c-.001 2.319-1.891 3.161-3.162 3.161zm-19.202-24.004c-.381.006-1.642.141-1.642 1.641v7.2c.006.381.141 1.641 1.642 1.641h10.362v10.361c.005.38.141 1.641 1.64 1.641h7.197c.389-.006 1.645-.144 1.645-1.641v-10.361h10.36c.381-.006 1.642-.142 1.642-1.641v-7.211c-.005-.291-.113-1.629-1.641-1.629h-10.36v-10.362c-.006-.381-.141-1.641-1.641-1.641h-7.201c-.381.006-1.64.141-1.64 1.641v10.361z" fill="#35495e"/><path d="m21.887 25.227c-2.037 0-3.695-1.659-3.695-3.697 0-2.039 1.658-3.696 3.695-3.696 2.039 0 3.696 1.659 3.696 3.696 0 2.04-1.659 3.697-3.696 3.697zm0-5.874c-1.2 0-2.176.977-2.176 2.177 0 1.202.976 2.178 2.176 2.178 1.201 0 2.177-.977 2.177-2.178s-.977-2.177-2.177-2.177z" fill="#35495e"/><path d="m21.886 5.99-3.043 4.743h6.088z" fill="#35495e"/><path d="m24.93 11.492h-6.088c-.277 0-.533-.152-.666-.395-.133-.244-.123-.541.027-.774l3.042-4.743c.28-.437 1-.436 1.278 0l3.045 4.743c.149.234.161.53.027.774-.132.244-.387.395-.665.395zm-4.698-1.519h3.308l-1.655-2.577z" fill="#35495e"/><path d="m6.287 21.53 4.743 3.042v-6.085z" fill="#35495e"/><path d="m11.03 25.332c-.143 0-.286-.041-.41-.121l-4.743-3.042c-.218-.139-.349-.38-.349-.639s.131-.5.349-.639l4.743-3.044c.233-.149.531-.161.774-.027.243.133.395.389.395.667v6.085c0 .277-.151.533-.395.667-.114.062-.24.093-.364.093zm-3.337-3.802 2.577 1.652v-3.306z" fill="#35495e"/><path d="m37.428 21.529-4.744-3.042v6.085z" fill="#35495e"/><path d="m32.685 25.332c-.125 0-.25-.031-.363-.093-.244-.134-.396-.389-.396-.667v-6.085c0-.278.151-.533.396-.667.242-.134.539-.125.774.027l4.744 3.043c.218.14.349.381.349.639s-.131.5-.349.639l-4.745 3.043c-.124.08-.268.121-.41.121zm.76-5.456v3.307l2.578-1.654z" fill="#35495e"/><path d="m21.886 37.07 3.045-4.744h-6.088z" fill="#35495e"/><path d="m21.886 37.829c-.258 0-.499-.132-.639-.35l-3.042-4.743c-.15-.234-.16-.53-.027-.774s.389-.396.666-.396h6.088c.277 0 .533.151.667.396.133.243.123.541-.027.774l-3.045 4.743c-.142.218-.383.35-.641.35zm-1.654-4.743 1.653 2.577 1.655-2.577z" fill="#35495e"/><path d="m52.934 28.886v-15.496h4.375c1.348 0 2.54.298 3.576.894s1.834 1.444 2.395 2.544c.567 1.1.855 2.363.862 3.789v.99c0 1.461-.284 2.742-.852 3.842-.561 1.1-1.366 1.944-2.416 2.533-1.043.589-2.26.891-3.65.905h-4.29zm2.044-13.815v12.144h2.15c1.575 0 2.799-.49 3.672-1.469.88-.979 1.32-2.374 1.32-4.183v-.904c0-1.76-.415-3.125-1.245-4.098-.823-.979-1.994-1.476-3.512-1.49z" fill="#35495e"/><path d="m65.834 21.5h5.194v1.607h-5.194z" fill="#35495e"/><path d="m75.285 22.82v6.067h-2.043v-15.497h5.715c1.696 0 3.022.433 3.98 1.299.965.865 1.447 2.011 1.447 3.438 0 1.504-.472 2.665-1.416 3.48-.937.809-2.281 1.213-4.034 1.213zm0-1.671h3.672c1.093 0 1.93-.255 2.512-.766.582-.518.873-1.263.873-2.235 0-.922-.291-1.661-.873-2.214-.582-.554-1.38-.841-2.395-.862h-3.789z" fill="#35495e"/><path d="m94.102 24.842h-6.492l-1.458 4.044h-2.107l5.917-15.497h1.788l5.928 15.497h-2.097zm-5.875-1.682h5.268l-2.639-7.248z" fill="#35495e"/><path d="m99.764 28.886v-15.496h4.374c1.348 0 2.54.298 3.576.894s1.834 1.444 2.395 2.544c.568 1.1.855 2.363.862 3.789v.99c0 1.461-.284 2.742-.852 3.842-.561 1.1-1.366 1.944-2.416 2.533-1.043.589-2.26.891-3.65.905h-4.289zm2.043-13.815v12.144h2.15c1.575 0 2.799-.49 3.672-1.469.88-.979 1.32-2.374 1.32-4.183v-.904c0-1.76-.415-3.125-1.245-4.098-.823-.979-1.994-1.476-3.512-1.49z" fill="#35495e"/><path d="m390.544.399h-117.06c-2.079 0-3.765 1.685-3.765 3.764v34.497c0 2.079 1.686 3.764 3.765 3.764h117.06c2.079 0 3.764-1.685 3.764-3.764v-34.497c0-2.079-1.684-3.764-3.764-3.764" fill="#f4f4f4"/><path d="m273.485.399v.399h117.06c1.859.003 3.361 1.507 3.365 3.365v34.497c-.003 1.858-1.506 3.361-3.365 3.365h-117.06c-1.859-.003-3.362-1.507-3.366-3.365v-34.497c.003-1.858 1.507-3.361 3.366-3.365v-.399-.399c-2.299 0-4.163 1.863-4.164 4.163v34.497c0 2.299 1.864 4.162 4.164 4.163h117.06c2.3 0 4.162-1.864 4.163-4.163v-34.497c0-2.299-1.863-4.162-4.163-4.163h-117.06z" fill="#35495e"/><path d="m305.088 18.169h1.435v-6.063h2.558v-1.127h-6.548v1.127h2.557zm-8.693-3.966v-2.097h2.476c.754 0 1.224.292 1.224 1.037 0 .806-.432 1.061-1.224 1.061h-2.476zm-1.432 3.966h1.432v-2.84h2.437c1.051 0 1.186.726 1.186 1.751 0 .525.068.888.174 1.089h1.549c-.281-.395-.29-1.196-.29-1.542 0-1.017-.18-1.762-.991-1.941v-.021c.642-.21 1.125-.795 1.125-1.733 0-1.116-.562-1.95-2.3-1.95h-4.317zm-8.864 0h1.548l.706-1.782h3.21l.716 1.782h1.6l-3.038-7.191h-1.7zm2.685-2.91 1.185-3.035 1.165 3.035zm-6.716 2.91h1.431v-6.063h2.562v-1.127h-6.553v1.127h2.561v6.063zm-9.782-5.168c0 2.949 5.024 1.397 5.024 3.181 0 .791-.812 1.062-1.68 1.062-1.177 0-1.919-.455-1.959-1.404h-1.547c.021 1.513 1.003 2.532 3.462 2.532 1.451 0 3.272-.485 3.272-2.339 0-3.072-5.082-1.451-5.082-3.141 0-.674.631-.985 1.586-.985 1.193 0 1.672.603 1.722 1.158h1.548c-.185-2.088-2.285-2.287-3.338-2.287-1.663-.001-3.008.621-3.008 2.223" fill="#35495e"/><path d="m305.241 21.731h-29.306c-2.118 0-3.836 1.768-3.836 3.948s1.718 3.948 3.836 3.948h29.306c2.118 0 3.835-1.767 3.835-3.948s-1.717-3.948-3.835-3.948z" fill="#35495e"/><path d="m326.214 21.979c-1.753-.504-3.029-1.121-3.831-1.852-.795-.738-1.192-1.646-1.192-2.725 0-1.221.486-2.228 1.458-3.022.979-.802 2.249-1.203 3.811-1.203 1.063 0 2.011.206 2.842.617.837.412 1.482.979 1.937 1.703.461.724.691 1.515.691 2.374h-2.054c0-.937-.298-1.671-.894-2.203-.597-.539-1.438-.809-2.522-.809-1.008 0-1.796.224-2.363.671-.561.44-.841 1.054-.841 1.841 0 .631.267 1.167.799 1.607.539.433 1.45.83 2.734 1.192 1.292.362 2.3.763 3.023 1.203.73.433 1.27.94 1.617 1.522.354.582.532 1.267.532 2.054 0 1.256-.489 2.263-1.469 3.022-.979.752-2.288 1.128-3.927 1.128-1.064 0-2.058-.203-2.98-.607-.922-.412-1.636-.972-2.139-1.682-.497-.709-.745-1.515-.745-2.416h2.054c0 .937.344 1.678 1.032 2.225.695.539 1.621.809 2.778.809 1.078 0 1.904-.22 2.479-.66.574-.44.862-1.04.862-1.798 0-.759-.267-1.345-.799-1.756-.53-.419-1.495-.831-2.893-1.235z" fill="#35495e"/><path d="m345.297 15.071h-4.981v13.815h-2.032v-13.815h-4.971v-1.681h11.984z" fill="#35495e"/><path d="m355.323 24.842h-6.492l-1.458 4.044h-2.107l5.918-15.497h1.788l5.928 15.497h-2.097zm-5.875-1.682h5.269l-2.64-7.248z" fill="#35495e"/><path d="m366.668 22.617h-3.64v6.269h-2.055v-15.496h5.13c1.746 0 3.087.397 4.023 1.192.943.794 1.415 1.951 1.415 3.47 0 .965-.263 1.806-.787 2.522-.519.717-1.242 1.252-2.171 1.607l3.64 6.577v.128h-2.192zm-3.639-1.671h3.14c1.015 0 1.819-.262 2.416-.788.603-.525.904-1.228.904-2.107 0-.958-.287-1.692-.862-2.203-.567-.511-1.391-.77-2.469-.777h-3.129z" fill="#35495e"/><path d="m384.25 15.071h-4.98v13.815h-2.033v-13.815h-4.971v-1.681h11.984z" fill="#35495e"/><path d="m394.536 196.323h-70.963c-2.086 0-3.778 1.692-3.778 3.778v34.631c0 2.087 1.692 3.778 3.778 3.778h70.963c2.087 0 3.778-1.691 3.778-3.778v-34.631c0-2.085-1.691-3.778-3.778-3.778" fill="#f4f4f4"/><path d="m323.573 196.323v.317h70.963c1.911.003 3.458 1.55 3.461 3.461v34.631c-.003 1.912-1.549 3.458-3.461 3.461h-70.963c-1.911-.003-3.458-1.55-3.461-3.461v-34.631c.003-1.91 1.551-3.458 3.461-3.461v-.317-.317c-2.261 0-4.095 1.834-4.096 4.096v34.631c0 2.262 1.834 4.095 4.096 4.096h70.963c2.262 0 4.095-1.833 4.096-4.096v-34.631c0-2.261-1.833-4.095-4.096-4.096h-70.963z" fill="#35495e"/><path d="m380.361 220.848h-6.492l-1.458 4.045h-2.107l5.918-15.496h1.788l5.928 15.496h-2.097zm-5.875-1.682h5.269l-2.64-7.247z" fill="#35495e"/><path clip-path="url(#a)" d="m352.239 221.998c-2.804 0-5.077-2.273-5.077-5.078 0-2.803 2.273-5.075 5.077-5.075s5.076 2.272 5.076 5.075c0 2.805-2.273 5.078-5.076 5.078m-10.683-8.329c-2.805 0-5.076-2.273-5.076-5.077s2.271-5.077 5.076-5.077c2.804 0 5.076 2.273 5.076 5.077s-2.272 5.077-5.076 5.077m-1.829 18.165c-2.804 0-5.076-2.273-5.076-5.076 0-2.804 2.272-5.076 5.076-5.076 2.803 0 5.076 2.272 5.076 5.076 0 2.803-2.273 5.076-5.076 5.076m-10.553-8.541c-2.804 0-5.076-2.272-5.076-5.077 0-2.803 2.272-5.075 5.076-5.075s5.076 2.272 5.076 5.075c0 2.805-2.272 5.077-5.076 5.077m11.529-24.056c-10.133 0-18.348 8.214-18.348 18.348 0 10.133 8.215 18.348 18.348 18.348 10.134 0 18.349-8.215 18.349-18.348-.001-10.134-8.216-18.348-18.349-18.348" fill="#35495e"/><path clip-path="url(#a)" d="m343.317 226.758c0 1.981-1.608 3.59-3.59 3.59-1.983 0-3.59-1.608-3.59-3.59 0-1.983 1.606-3.59 3.59-3.59 1.981 0 3.59 1.607 3.59 3.59" fill="#35495e"/><path clip-path="url(#a)" d="m332.955 218.216c0 2.088-1.692 3.782-3.78 3.782s-3.781-1.694-3.781-3.782 1.693-3.78 3.781-3.78 3.78 1.692 3.78 3.78" fill="#35495e"/><path clip-path="url(#a)" d="m345.139 208.695c0 1.983-1.607 3.59-3.59 3.59s-3.589-1.606-3.589-3.59c0-1.982 1.606-3.59 3.589-3.59s3.59 1.607 3.59 3.59" fill="#35495e"/><path d="m301.692 196.572h-70.963c-2.087 0-3.778 1.691-3.778 3.778v34.631c0 2.087 1.691 3.778 3.778 3.778h70.963c2.087 0 3.778-1.691 3.778-3.778v-34.631c0-2.087-1.691-3.778-3.778-3.778" fill="#f4f4f4"/><path d="m230.729 196.571v.317h70.963c1.912.003 3.458 1.549 3.461 3.461v34.631c-.003 1.912-1.549 3.458-3.461 3.461h-70.963c-1.912-.003-3.458-1.549-3.461-3.461v-34.63c.003-1.912 1.549-3.458 3.461-3.461v-.318-.317c-2.262 0-4.095 1.833-4.096 4.096v34.631c0 2.262 1.833 4.095 4.096 4.096h70.963c2.262 0 4.095-1.833 4.096-4.096v-34.631c0-2.262-1.833-4.095-4.096-4.096h-70.963z" fill="#35495e"/><path d="m278.96 225.141v-15.497h5.065c1.682 0 2.945.348 3.789 1.043.852.695 1.277 1.725 1.277 3.087 0 .724-.206 1.366-.617 1.927-.412.553-.973.982-1.682 1.287.837.234 1.497.682 1.979 1.342.489.652.734 1.433.734 2.341 0 1.391-.45 2.483-1.352 3.278s-2.175 1.192-3.821 1.192zm2.043-7.248v5.576h3.374c.951 0 1.699-.244 2.246-.734.553-.496.83-1.178.83-2.043 0-1.866-1.015-2.799-3.044-2.799zm0-1.64h3.087c.894 0 1.606-.224 2.139-.67.539-.447.81-1.054.81-1.82 0-.852-.249-1.469-.745-1.852-.497-.391-1.253-.586-2.268-.586h-3.022v4.928z" fill="#35495e"/><path clip-path="url(#b)" d="m259.394 222.246c-2.862 0-5.185-2.322-5.185-5.187 0-2.862 2.322-5.184 5.185-5.184 2.864 0 5.186 2.321 5.186 5.184 0 2.865-2.322 5.187-5.186 5.187m-10.91-8.507c-2.863 0-5.185-2.322-5.185-5.186s2.321-5.185 5.185-5.185 5.185 2.321 5.185 5.185-2.321 5.186-5.185 5.186m-1.868 18.553c-2.863 0-5.185-2.322-5.185-5.185 0-2.864 2.321-5.185 5.185-5.185s5.186 2.32 5.186 5.185c-.001 2.863-2.323 5.185-5.186 5.185m-10.778-8.723c-2.864 0-5.185-2.32-5.185-5.186 0-2.862 2.32-5.184 5.185-5.184s5.185 2.321 5.185 5.184c0 2.865-2.32 5.186-5.185 5.186m11.775-24.569c-10.349 0-18.739 8.389-18.739 18.738s8.391 18.739 18.739 18.739c10.35 0 18.739-8.39 18.739-18.739s-8.39-18.738-18.739-18.738" fill="#35495e"/><path clip-path="url(#b)" d="m263.096 217.061c0 2.045-1.657 3.702-3.701 3.702-2.046 0-3.703-1.657-3.703-3.702s1.657-3.702 3.703-3.702c2.044 0 3.701 1.657 3.701 3.702" fill="#35495e"/><path clip-path="url(#b)" d="m239.7 218.384c0 2.132-1.729 3.862-3.861 3.862-2.133 0-3.862-1.73-3.862-3.862 0-2.133 1.729-3.862 3.862-3.862 2.131 0 3.861 1.729 3.861 3.862" fill="#35495e"/><path clip-path="url(#b)" d="m252.144 208.659c0 2.024-1.643 3.666-3.666 3.666-2.025 0-3.666-1.642-3.666-3.666 0-2.025 1.641-3.667 3.666-3.667 2.023 0 3.666 1.642 3.666 3.667" fill="#35495e"/><ellipse cx="40.863" cy="125.322" fill="#848687" rx="2.453" ry="2.4"/><ellipse cx="341.986" cy="87.682" fill="#848687" rx="2.453" ry="2.4"/><ellipse cx="342.969" cy="141.895" fill="#848687" rx="2.453" ry="2.4"/><ellipse cx="370.357" cy="118.862" fill="#848687" rx="2.453" ry="2.4"/><path d="m341.891 42.721.068 45.223" fill="#848687" stroke="#868686" stroke-width=".8687"/><path d="m40.787 42.726.068 81.872" fill="#848687" stroke="#868686" stroke-width="1.1689"/><path d="m370.231 118.258.067 78.631" fill="#848687" stroke="#868686" stroke-width="1.1392"/><path d="m244.675 141.287.068 55.601" fill="#848687" stroke="#868686" stroke-width=".9632"/><path d="m343.011 141.826-99.031.067" fill="#848687" stroke="#868686" stroke-width="1.2831"/></svg>