<svg enable-background="new 0 0 138.48 138.8" viewBox="0 0 138.48 138.8" xmlns="http://www.w3.org/2000/svg" xmlns:xlink="http://www.w3.org/1999/xlink"><linearGradient id="a" gradientUnits="userSpaceOnUse" x1="69.3208" x2="69.3208" y1="57.5768" y2="0"><stop offset="0" stop-color="#404140"/><stop offset=".583" stop-color="#424342"/><stop offset=".7928" stop-color="#494a49"/><stop offset=".7991" stop-color="#494a49"/><stop offset=".8002" stop-color="#494a49"/><stop offset=".8874" stop-color="#3f403f"/><stop offset="1" stop-color="#3c3d3c"/></linearGradient><linearGradient id="b" gradientUnits="userSpaceOnUse" x1="10.8496" x2="127.8496" y1="68.0283" y2="68.0283"><stop offset="0" stop-color="#f6b700"/><stop offset="1" stop-color="#ee5f13"/></linearGradient><path d="m138.371 4.725c0-2.609-2.115-4.725-4.725-4.725h-128.869c-2.61 0-4.726 2.116-4.726 4.726v132.588c0 .821.665 1.486 1.486 1.486h135.347c.821 0 1.486-.665 1.486-1.486v-132.589z" fill="#3a3a3a"/><path d="m69.159 23.852h40.938c10.946 0 19.82 8.874 19.82 19.82v14.398s8.133 1.093 8.4-3.998c0 4.02-7.518 3.648-7.518 3.008 0-.291 0-21.1 0-21.1 0-10.947-8.873-19.82-19.82-19.82h-41.82-.001-41.82c-10.947 0-19.822 8.873-19.822 19.82v21.1c0 .642-7.516 1.013-7.516-3.007.268 5.091 8.399 3.998 8.399 3.998s0-8.463 0-14.398c0-10.946 8.874-19.82 19.821-19.82h40.939z" fill="#333"/><path d="m49.027 132.366c-3.958 0-7.168-3.21-7.168-7.168 0-3.959 3.21-7.167 7.168-7.167h40.25c3.959 0 7.168 3.208 7.168 7.167 0 3.958-3.209 7.168-7.168 7.168z" fill="#333"/><path d="m102.316 19.316h-65.992c-.386 0-.699-.313-.699-.699s.313-.699.699-.699h65.992c.386 0 .699.313.699.699s-.313.699-.699.699z" fill="#404140"/><path d="m102.316 22.726h-65.992c-.386 0-.699-.313-.699-.699s.313-.699.699-.699h65.992c.386 0 .699.313.699.699s-.313.699-.699.699z" fill="#404140"/><g clip-rule="evenodd" fill="#3a3a3a" fill-rule="evenodd"><path d="m76.543 119.566v1.44c-.029.002-.057.004-.084.004-1.565 0-3.131.004-4.697-.002-.672-.002-1.275.466-1.432 1.114-.027.111-.043.228-.044.341-.003 1.557-.003 3.111-.001 4.668 0 .709.537 1.328 1.24 1.434.082.014.167.021.25.021h3.246c.086 0 .086 0 .086-.086 0-1.266 0-2.531 0-3.797 0-.09 0-.09-.088-.09-.834 0-1.67 0-2.504 0-.078 0-.078 0-.078-.074 0-.435 0-.871 0-1.305 0-.019 0-.039 0-.06h4.109v5.83c.007.001.014.003.02.004.009-.021.02-.039.025-.06.279-.817.557-1.636.835-2.452.353-1.038.707-2.076 1.061-3.115.284-.838.563-1.678.854-2.514.223-.645.673-1.084 1.306-1.314.885-.318 1.708-.184 2.438.422.317.264.514.607.645.998.576 1.725 1.159 3.447 1.739 5.17.429 1.273.858 2.545 1.287 3.816.006.02.011.04.019.067-.026.002-.047.004-.066.004-1.916 0-3.83 0-5.745.002-.058 0-.071-.016-.071-.072.002-.435.002-.87.002-1.305 0-.02 0-.038 0-.068h3.882c-.022-.072-.042-.133-.063-.192-.693-2.049-1.387-4.097-2.081-6.146-.118-.346-.235-.693-.353-1.039-.107-.315-.425-.537-.764-.535-.35.002-.662.22-.77.535-.418 1.232-.836 2.466-1.254 3.697-.52 1.534-1.041 3.068-1.561 4.604-.053.15-.107.3-.153.452-.017.056-.044.066-.097.066-.41-.002-.822-.001-1.233-.001-1.561 0-3.12-.005-4.68.001-1.249.005-2.378-.788-2.784-1.984-.1-.292-.151-.593-.151-.9-.003-1.563-.003-3.128-.001-4.691.002-1.356.987-2.56 2.315-2.823.198-.039.402-.061.603-.061 1.57-.005 3.141-.003 4.71-.003.024-.001.052-.001.083-.001z"/><path d="m51.654 128.229c0-.486 0-.96 0-1.443h.083c1.497 0 2.995 0 4.493-.001.032 0 .066-.003.098-.011.08-.021.128-.092.125-.182-.004-.081-.06-.148-.143-.162-.032-.006-.066-.008-.099-.008-.417-.001-.833.006-1.252-.004-.759-.018-1.437-.272-2.028-.748-.664-.533-1.08-1.223-1.227-2.062-.178-1.03.061-1.968.719-2.784.513-.635 1.18-1.033 1.982-1.191.214-.043.436-.065.655-.065 1.521-.006 3.041-.003 4.563-.003h.076v1.45c-.025 0-.055 0-.083 0-1.511 0-3.022-.002-4.532 0-.931 0-1.729.626-1.93 1.533-.151.674.014 1.275.477 1.787.322.357.729.563 1.205.619.182.021.365.016.549.018.313.006.627.007.94.01.71.007 1.347.51 1.529 1.209.242.926-.363 1.859-1.308 2.014-.1.016-.201.023-.303.023-1.506.002-3.011 0-4.517 0-.021.001-.044.001-.072.001z"/><path d="m51.65 128.577h.086 4.551c.955 0 1.774-.682 1.949-1.622.195-1.047-.511-2.085-1.557-2.292-.242-.049-.488-.041-.734-.043-.293-.004-.588-.002-.883-.006-.807-.013-1.459-.586-1.583-1.37-.131-.837.396-1.623 1.216-1.821.117-.027.24-.041.359-.041 1.529-.004 3.057-.002 4.586-.002h.061c.003.014.008.025.008.035-.004.44-.01.881-.01 1.322 0 .067-.027.074-.082.074-1.488-.002-2.975-.002-4.463-.002-.035 0-.07 0-.104.005-.087.011-.147.08-.152.167-.005.119.065.197.186.197.209 0 .417-.006.626-.005.303.001.605-.013.906.015.681.058 1.291.312 1.822.742.632.514 1.045 1.169 1.207 1.969.211 1.045-.014 2-.675 2.84-.516.656-1.193 1.061-2.01 1.233-.229.048-.462.066-.696.066-1.51.001-3.019.001-4.527.001-.086 0-.086 0-.086-.087 0-.433 0-.866 0-1.299-.001-.021-.001-.044-.001-.076z"/><path d="m68.27 119.566v1.44c-.028.001-.057.004-.084.004-1.621 0-3.241 0-4.861 0-.711 0-1.32.505-1.448 1.205-.015.083-.023.17-.023.254v4.64c0 .749.534 1.362 1.273 1.464.075.01.152.014.227.014h4.815c.086 0 .086 0 .086.086 0 .426-.001.853.002 1.28 0 .059-.016.076-.076.076-1.632-.002-3.264.001-4.895-.002-1.356-.004-2.544-.989-2.812-2.321-.042-.206-.061-.412-.061-.621 0-1.523.002-3.047 0-4.569-.001-.751.24-1.415.74-1.978.438-.492.984-.801 1.633-.92.188-.035.379-.049.569-.049 1.61-.004 3.22-.003 4.831-.003z"/><path d="m80.896 126.892c-.316.936-.676 1.988-.992 2.922-.02.056-.04.11-.057.166-.01.037-.029.05-.066.049-.069-.002-.14 0-.21 0-.45 0-.901 0-1.352-.001-.024 0-.05-.001-.083-.003.009-.03.016-.054.023-.076.506-1.496 1.013-2.991 1.52-4.486.462-1.367.924-2.734 1.388-4.102.108-.321.468-.439.727-.243.082.062.136.145.169.241.393 1.17.787 2.34 1.182 3.512.371 1.1.74 2.199 1.111 3.301.007.018.014.035.021.063-1.131 0-2.254 0-3.384 0 .001-.426.003-.922.003-1.343zm.09-.26c.301.001.672 0 .973 0h.08c-.175-.523-.345-1.03-.515-1.538-.006 0-.011 0-.017 0-.008.021-.018.042-.023.062-.158.469-.316.936-.475 1.404z"/><path d="m76.547 122.809c-.03 0-.051 0-.072 0-1.32 0-2.641 0-3.96 0-.034 0-.066 0-.101.003-.201.017-.326.149-.326.352v3.27c0 .182.146.333.334.34.167.004.336.002.502.004.106 0 .212.003.316.009.053.002.068-.019.066-.069-.004-.076-.004-.155 0-.233.002-.049-.018-.064-.064-.064-.242.002-.484.002-.726.001-.079 0-.079 0-.079-.075 0-.438 0-.877 0-1.316 0-.017.002-.033.002-.055h2.304c.001.025.003.049.003.071v3.106c0 .076 0 .076-.074.076-.962 0-1.924.002-2.885 0-.546 0-.995-.35-1.115-.869-.018-.076-.028-.154-.028-.232-.001-1.553-.001-3.107-.001-4.66.001-.543.42-1.016.957-1.088.067-.008.137-.012.203-.012h4.657c.097 0 .087-.01.087.088v1.275z"/><path d="m63.666 123.172h3.541c.002.03.008.056.008.083.002.404.004.807.006 1.211v.006c0 .143 0 .143-.142.143-1.589 0-3.179 0-4.767 0-.027 0-.055 0-.088 0 0-.029 0-.051 0-.072 0-.684 0-1.368.001-2.053 0-.547.356-.987.89-1.101.08-.017.166-.021.25-.021h4.832.076v.075 1.286c0 .08 0 .08-.08.08-1.373 0-2.746 0-4.119 0-.042 0-.085.002-.128.006-.169.017-.298.176-.28.357z"/><path d="m63.664 126.422c-.012.214.129.355.348.363.018.001.035.001.053.001h4.105c.084 0 .084 0 .084.08v1.275c0 .076 0 .076-.077.076-1.614 0-3.229 0-4.843 0-.563 0-1.025-.402-1.102-.962-.008-.052-.007-.105-.007-.157-.001-.679-.001-1.357-.001-2.035 0-.08 0-.08.08-.08h4.837c.085 0 .081 0 .081.083-.003.28-.003.562-.004.842-.001.145-.004.289-.004.433-.002.081-.002.081-.08.081-1.127 0-2.254 0-3.381 0-.028 0-.058 0-.089 0z"/></g><path d="m69.32 16.257h41.822c10.946 0 19.82 8.874 19.82 19.82v21.102c0 .641 7.518 1.012 7.518-3.01v-49.756c0-2.437-1.976-4.413-4.413-4.413h-64.747-64.746c-2.437 0-4.413 1.976-4.413 4.413v49.756c0 4.021 7.517 3.65 7.517 3.01v-21.1c0-10.948 8.875-19.822 19.822-19.822z" fill="url(#a)"/><path d="m124.85 109.528h-111c-1.657 0-3-1.343-3-3v-64.937c0-8.319 6.744-15.062 15.063-15.062h86.875c8.319 0 15.063 6.744 15.063 15.062v64.938c-.001 1.656-1.345 2.999-3.001 2.999z" fill="url(#b)"/><path d="m124.85 109.528h-111c-1.657 0-3-1.343-3-3v-10.833h117v10.833c0 1.657-1.344 3-3 3z" fill="#db3cbc"/><path d="m25.85 109.528h-12c-1.657 0-3-1.343-3-3v-64.937c0-8.319 6.744-15.062 15.063-15.062z" fill="#b1389f"/><path d="m25.906 47.201-15.056 10.543v-12.129l15.056-10.542z" fill="#db3cbc"/><path d="m10.85 82.001 15.056-10.542v-12.129l-15.056 10.542z" fill="#db3cbc"/><path d="m10.85 106.528v-12.398l15.056-10.543v12.129l-15.056 10.543" fill="#db3cbc"/><text font-family="Swiss721BT-BoldCondensed" font-size="2.852" transform="translate(32.5996 108.1884)">Copying and/or transmission strictly prohibited</text><path d="m56.559 101.549h.917c-.563-.525-.917-1.278-.917-2.113 0-1.588 1.272-2.879 2.835-2.879h3.648l.008.977c.455-.589 1.164-.968 1.958-.968h3.875v2.008l-.016 4.226v2.008h-3.859c-1.018 0-1.894-.622-2.278-1.511l-.004-.002c-.48.905-1.423 1.521-2.506 1.521h-3.661v-2.024" fill="#fff"/><path d="m74.521 99.056v5.75h-3.771c-1.375 0-2.493-1.129-2.493-2.516v-3.209c0-1.387 1.115-2.516 2.485-2.516h3.779v2.008z" fill="#fff"/><path d="m75.2 104.806h-2.12l2.334-6.949c.244-.821 1.059-1.405 1.975-1.405s1.73.584 1.98 1.422l2.303 6.933h-5.212-1.26z" fill="#fff"/><path d="m57.06 104.315h3.161c1.294 0 2.343-1.065 2.343-2.379 0-1.315-1.048-2.371-2.343-2.371h-.826c-.064 0-.119-.056-.119-.121 0-.073.056-.129.119-.129h3.153l.008-1h-3.161c-.611 0-1.104.5-1.104 1.121 0 .629.492 1.137 1.104 1.137h.826c.739 0 1.342.613 1.342 1.363s-.604 1.355-1.342 1.355h-3.161z" fill="#17569b"/><path d="m57.06 103.057h3.161c.619 0 1.112-.508 1.112-1.129s-.492-1.129-1.112-1.129h-.826c-.739 0-1.334-.621-1.334-1.371s.596-1.355 1.334-1.355h3.161l-.008-1.016h-3.153c-1.294 0-2.335 1.065-2.335 2.379s1.048 2.371 2.335 2.371h.818c.064 0 .119.056.119.121s-.056.121-.119.121h-3.153zm7.949.242c-.548 0-.993-.444-.993-1.008v-3.226c0-.54.445-.992.993-.992h3.375v-1.008h-3.375c-1.096 0-1.985.903-1.985 2.016v3.21c0 1.113.889 2.016 1.985 2.016h3.359v-1.008z" fill="#17569b"/><path d="m64.262 99.081c0-.419.334-.774.754-.774h3.375v1.008h-2.906c-.23 0-.23.234-.23.234h2.43v1.008h-3.415z" fill="#17569b"/><path d="m65.009 103.057c-.413 0-.754-.347-.754-.766v-1.484h3.415v1.008h-2.43c0 .234.23.234.23.234h2.891v1z" fill="#17569b"/><path d="m70.758 103.299c-.548 0-1.001-.452-1.001-1.008v-3.21c0-.556.445-1.008.993-1.008h3.272v-1.008h-3.28c-1.096 0-1.985.903-1.985 2.016v3.21c0 1.113.897 2.016 1.993 2.016h3.272v-4.75h-2.811v1.008h1.818v2.734z" fill="#17569b"/><path d="m69.988 102.291c0 .419.341.774.762.774h2.041v-2.258h-1.58v1.016h.588v.234h-.588c-.127 0-.23-.113-.23-.234v-2.258s0-.234.23-.234h2.803v-1.008h-3.272c-.413 0-.762.347-.762.774z" fill="#17569b"/><path d="m77.087 98.299c.048-.129.159-.226.302-.226s.262.089.302.226l1.58 4.774h-2.319v-1.121h.778l-.349-1.065-1.144 3.419h-1.167z" fill="#17569b"/><path d="m79.604 103.299h-2.644v1.008h4.018l-2.089-6.29c-.183-.613-.786-1.065-1.501-1.065s-1.318.452-1.501 1.065l-2.112 6.29h1.064l2.041-6.121c.087-.202.278-.347.516-.347.23 0 .421.137.508.347z" fill="#17569b"/><path d="m81.796 96.758c-.213-.229-.51-.349-.818-.349-.64 0-1.162.518-1.162 1.168 0 .313.13.614.344.831.213.253.51.361.818.361s.605-.12.818-.349c.225-.229.344-.518.344-.831 0-.314-.119-.615-.344-.831zm-.794 1.841c-.273 0-.522-.096-.711-.301-.202-.169-.308-.433-.308-.71 0-.265.107-.518.296-.722.178-.193.439-.301.711-.301.261 0 .51.108.711.301.19.193.296.457.296.722.001.566-.45 1.011-.995 1.011z"/><path d="m80.682 97.697v.566h-.166v-1.313h.474c.178 0 .284 0 .391.084.083.072.13.181.13.301 0 .301-.237.349-.308.349l.356.566h-.202l-.344-.566zm0-.145h.344c.059 0 .107 0 .154-.024.13-.024.166-.12.166-.205 0-.024-.012-.132-.083-.193s-.154-.048-.249-.048h-.332z"/><path d="m22.559 94.777c.164.417.307.872.428 1.365.122.494.183.971.183 1.432 0 .594-.07 1.139-.211 1.634s-.352.917-.633 1.265c-.284.352-.64.624-1.066.814-.426.191-.925.287-1.497.287-1.046 0-1.872-.356-2.477-1.068s-.908-1.689-.908-2.933c0-.434.045-.876.134-1.329s.241-.94.455-1.462h1.033v.092c-.07.106-.163.259-.277.461s-.209.399-.286.594c-.091.235-.166.503-.226.802s-.09.638-.09 1.017c0 .854.235 1.529.706 2.026.47.497 1.107.746 1.91.746.847 0 1.506-.26 1.976-.779.471-.519.706-1.226.706-2.121 0-.328-.028-.655-.083-.981s-.127-.612-.215-.858h-1.604v2.043h-.765v-3.047z" fill="#fff"/><path d="m23.042 86.991v1.081l-1.825.748v3.299l1.825.748v1.029l-6.546-2.776v-1.352zm-2.572 2.141-3.214 1.337 3.214 1.342z" fill="#fff"/><path d="m23.042 79.04v1.014h-5.641l5.641 2.121v.604l-5.641 2.105h5.641v.948h-6.546v-1.382l5.448-2.033-5.448-1.967v-1.41z" fill="#fff"/><path d="m23.042 71.288v5.704h-6.546v-5.704h.774v4.69h1.794v-4.011h.773v4.011h2.431v-4.69z" fill="#fff"/><path d="m22.559 61.309c.164.417.307.872.428 1.365.122.494.183.971.183 1.432 0 .594-.07 1.139-.211 1.634s-.352.917-.633 1.265c-.284.352-.64.624-1.066.814-.426.191-.925.287-1.497.287-1.046 0-1.872-.356-2.477-1.068s-.908-1.689-.908-2.933c0-.434.045-.876.134-1.329s.241-.94.455-1.462h1.033v.092c-.07.106-.163.259-.277.461s-.209.399-.286.594c-.091.235-.166.503-.226.802s-.09.638-.09 1.017c0 .854.235 1.529.706 2.026.47.497 1.107.746 1.91.746.847 0 1.506-.26 1.976-.779.471-.519.706-1.226.706-2.121 0-.328-.028-.655-.083-.981s-.127-.612-.215-.858h-1.604v2.043h-.765v-3.047z" fill="#fff"/><path d="m23.042 45.889v1.081l-1.825.748v3.299l1.825.748v1.029l-6.546-2.776v-1.352zm-2.572 2.141-3.214 1.337 3.214 1.342z" fill="#fff"/><path d="m23.042 38.42v1.317l-2.603 1.717v2.263h2.603v1.014h-6.546v-2.97c0-.461.026-.845.077-1.152.051-.308.143-.584.275-.83.149-.276.338-.492.565-.648.227-.155.515-.233.864-.233.472 0 .867.138 1.185.415.318.276.558.657.719 1.142zm-4.704 1.538c-.188 0-.354.038-.499.115s-.268.204-.367.381c-.085.147-.144.321-.178.522-.034.202-.051.439-.051.712v2.028h2.471v-1.858c0-.321-.024-.601-.072-.84s-.139-.442-.271-.609c-.123-.154-.265-.267-.424-.341-.16-.073-.363-.11-.609-.11z" fill="#fff"/><path d="m23.046 53.725v5.704h-6.546v-5.704h.774v4.69h1.794v-4.011h.773v4.011h2.431v-4.69z" fill="#fff"/><path d="m16.837 37.297v.487h-.341v-1.374h.341v.487h1.459v.4z"/><path d="m16.496 36.135v-.437l.8-.287c.106-.036.222-.066.333-.102v-.011c-.111-.036-.226-.065-.333-.101l-.8-.278v-.437h1.8v.364h-.661c-.175 0-.438-.032-.611-.051v.011l.426.145.689.25v.222l-.689.25-.426.141v.011c.174-.019.436-.051.611-.051h.661v.359h-1.8z"/></svg>