<svg viewBox="0 0 29.999999 30" xmlns="http://www.w3.org/2000/svg"><path d="m2.05370457 13.41540222c2.09506933-3.5139737 4.97919073-5.70726446 6.44189915-4.90644124 1.45962092.80429667.94516436 4.3047625-1.15376434 7.81642054-2.09545526 3.51416666-4.97919072 5.7070715-6.4384257 4.90586233-1.46309437-.80371776-.9455503-4.30456952 1.1502909-7.81584163z" fill="#d61808"/><path d="m11.4266167 13.41540222c2.09526228-3.5139737 4.9791907-5.70726446 6.4415132-4.90644124 1.45962092.80429667.94516437 4.3047625-1.15376434 7.81642054-2.09506932 3.51416666-4.97899775 5.7070715-6.4384257 4.90586233-1.46270843-.80371776-.94516436-4.30456952 1.15067683-7.81584163z" fill="#008400"/><path d="m20.79952882 13.41540222c2.09468338-3.51416666 4.97919072-5.70726446 6.4415132-4.9066342 1.45962093.80429666.94516438 4.30476248-1.15376433 7.81642053-2.0954553 3.51416666-4.9788048 5.7070715-6.4384257 4.90586233-1.4629014-.8035248-.9451644-4.30437655 1.1506768-7.81564866z" fill="#00f"/></svg>