<svg enable-background="new 0 0 406.755 48.53" viewBox="0 0 406.755 48.53" xmlns="http://www.w3.org/2000/svg"><path d="m153.034 40.394c-3.429 4.658-6.823 5.979-8.308 6.694-1.484.716-3.732 1.276-5.697 1.276-5.517 0-9.821-1.799-12.915-5.381-3.095-3.599-4.641-8.643-4.641-15.185 0-7.736 1.951-14.294 5.87-19.71 3.917-5.397 9.113-8.088 15.587-8.088 4.912 0 8.929 1.379 12.074 4.153 3.145 2.758 4.71 7.097 4.71 12.998h-9.502c0-2.825-.622-4.809-1.868-5.953-1.243-1.126-3.027-1.698-5.365-1.698-3.817 0-6.76 1.866-8.862 5.583-2.085 3.734-3.146 7.97-3.146 12.729 0 3.246.691 5.904 2.036 7.954 1.362 2.07 3.395 3.094 6.104 3.094 2.825 0 5.011-.807 6.592-2.406 1.564-1.58 2.724-3.633 3.464-6.139h-8.846l1.432-8.61h17.252l-1.463 8.341c.001.006-1.093 5.69-4.508 10.348zm82.03-39.199-7.718 46.043h-8.308l6.542-35.684-14.43 35.684h-6.809l-3.145-35.668-4.963 35.668h-8.406l7.683-46.043h11.791l2.64 32.422 13.252-32.507m20.666 17.91h13.572l-1.415 8.93h-13.57l-1.748 9.804h15.318l-1.511 9.485h-24.149l7.635-46.095h23.861l-1.461 9.552h-15.017m-73.84-9.586-18.565 46.129h9.047l3.313-8.998h11.838l.773 8.998h8.761l-5.247-46.128zm-3.33 29.261 6.728-18.347 1.563 18.347zm140.513 10.023c-3.43 4.658-6.823 5.979-8.308 6.695-1.484.715-3.732 1.276-5.697 1.276-5.516 0-9.821-1.799-12.915-5.381-3.095-3.599-4.643-8.643-4.643-15.185 0-7.736 1.952-14.294 5.87-19.71 3.918-5.398 9.114-8.088 15.589-8.088 4.91 0 8.929 1.379 12.074 4.153 3.146 2.759 4.709 7.098 4.709 12.999h-9.499c0-2.825-.622-4.809-1.868-5.953-1.243-1.126-3.027-1.698-5.365-1.698-3.817 0-6.76 1.866-8.862 5.583-2.086 3.734-3.145 7.97-3.145 12.73 0 3.245.689 5.903 2.033 7.953 1.363 2.07 3.397 3.094 6.106 3.094 2.825 0 5.011-.807 6.592-2.405 1.564-1.581 2.724-3.633 3.465-6.139h-8.846l1.429-8.61h17.253l-1.463 8.341c-.001.002-1.096 5.687-4.509 10.345zm17.726-21.358h13.552l-1.394 8.914h-13.572l-1.764 9.804h15.336l-1.513 9.501h-24.149l7.635-46.111h23.863l-1.463 9.551h-15.018m28.485-9.567-18.565 46.128h9.065l3.295-8.997h11.856l.772 8.997h8.745l-5.248-46.128zm-3.313 29.243 6.711-18.347 1.581 18.347zm32.507-8.964 2.018-11.35h4.843c1.782 0 3.111.319 4.002.959.891.656 1.329 1.95 1.329 3.901 0 2.186-.723 3.8-2.152 4.877-1.448 1.076-3.279 1.614-5.499 1.614zm-5.465-20.263-7.635 46.111h8.827l2.961-17.573h4.086l6.827 17.573h10.123l-7.567-19.456c2.64-1.345 4.91-3.582 6.491-5.919 1.648-2.405 2.472-5.213 2.472-8.425 0-4.355-.975-7.483-2.943-9.417-1.951-1.933-4.727-2.892-8.29-2.892z"/><path d="m7.371 18.856c7.789-13.065 18.513-21.22 23.951-18.242 5.427 2.99 3.514 16.005-4.29 29.062-7.791 13.065-18.513 21.219-23.938 18.24-5.44-2.988-3.516-16.005 4.277-29.06z" fill="#d61808"/><path d="m42.22 18.856c7.79-13.065 18.513-21.22 23.95-18.242 5.427 2.99 3.514 16.005-4.29 29.062-7.79 13.066-18.512 21.219-23.938 18.24-5.439-2.988-3.515-16.005 4.278-29.06z" fill="#008400"/><path d="m77.069 18.856c7.788-13.066 18.513-21.22 23.95-18.243 5.427 2.99 3.514 16.005-4.29 29.062-7.791 13.066-18.512 21.219-23.938 18.24-5.44-2.987-3.515-16.004 4.278-29.059z" fill="#00f"/></svg>