<svg xmlns="http://www.w3.org/2000/svg" viewBox="0 0 391.881 102.568"><path d="M391.846.213v26.051H0V0l391.846.213M8.601 57.93v9.276H.128l.025-31.133h39.759v8.316H8.842l-.025 6.397h29.985v7.357L8.601 57.93M105.472 67.135h8.857V36.109h-8.857v31.026zM229.961 36.109l-.036 30.991h9.134l.036-11.266h24.913v11.302h9.134l.071-31.026h-9.169l-.036 11.906h-24.913V36.109h-9.134M300.437 36.073v31.026h40.053v-8.281h-31.524V36.073h-8.529M80.366 36.109H59.725L41.66 67.171h9.56l5.9-9.134h25.699l5.402 9.134h10.648L80.366 36.109zm-19.6 14.358l4.126-6.468h11.081l3.479 6.468H60.766M158.92 58.357c.409 0-.391.035 0 0"/><path d="M160.299 58.463c4.055-.569 7.609-3.874 7.609-8.103v-5.011c0-4.656-4.656-9.169-9.272-9.169h-34.737v30.955h8.256v-8.956h17.166l8.039 8.956h11.081l-8.142-8.672zm-4.279-7.321h-23.89v-6.859h23.915a3.561 3.561 0 0 1 3.558 3.554c0 1.99-1.582 3.589-3.583 3.305M222.214 48.405h-8.707c-.533-2.061-2.559-3.661-4.798-3.661h-18.516c-2.665 0-4.833 2.168-4.833 4.798v4.371c0 2.63 2.168 4.798 4.833 4.798h18.516c2.452 0 4.514-1.848 4.798-4.194h8.459c0 7.641-5.26 12.617-11.941 12.617h-22.248c-6.682 0-12.084-5.367-12.084-11.941v-7.179c0-6.575 5.402-11.941 12.084-11.941h22.248c6.68 0 12.189 5.722 12.189 12.332M282.809 67.099h8.849V36.144h-8.849v30.955zM381.895 36.109h-34.758v30.92h34.971s9.596-1.919 9.631-15.886c.036-13.115-8.529-14.821-9.844-15.034zm-2.488 22.745l-23.812-.071-.036-14.536h23.883c2.132.391 4.762.782 4.833 7.001.036 7.464-4.868 7.606-4.868 7.606M391.881 76.518v26.051H.021V76.304l391.86.214"/></svg>