<svg enable-background="new 0 0 415.051 98.876" viewBox="0 0 415.051 98.876" xmlns="http://www.w3.org/2000/svg"><path d="m274.802 79.382c-.697.543-1.588.813-2.682.813-.789 0-1.479-.1-2.069-.304-.586-.201-1.122-.54-1.602-1.021l1.273-1.269c.299.3.654.518 1.065.649.41.134.864.2 1.363.2 1.185 0 1.779-.419 1.779-1.249 0-.351-.09-.624-.269-.818-.179-.193-.49-.321-.934-.388l-.566-.087-.65-.082c-.859-.124-1.512-.401-1.954-.834-.481-.479-.721-1.139-.721-1.975 0-.912.316-1.65.946-2.207.632-.561 1.484-.84 2.561-.84.702 0 1.315.089 1.833.275.52.185.99.484 1.411.898l-1.241 1.228c-.285-.271-.596-.455-.939-.549-.344-.094-.715-.142-1.123-.142-.499 0-.883.118-1.151.359-.269.24-.403.542-.403.908 0 .263.104.502.31.709.209.211.514.346.919.403l.606.083.581.086c.451.066.829.162 1.135.284.306.119.568.287.784.495.519.489.777 1.2.777 2.135.001.953-.348 1.698-1.039 2.24zm8.43-7.591v8.313h-1.966v-8.313h-2.628v-1.746h7.222v1.746zm6.765 8.312v-10.058h6.63v1.746h-4.659v2.373h3.968v1.746h-3.968v2.448h4.659v1.746h-6.63zm16.806 0-.591-1.782h-3.575l-.608 1.782h-2.047l3.659-10.058h1.538l3.677 10.058zm-2.343-7.092-1.272 3.653h2.5zm15.025 7.092v-5.86l-1.906 3.815h-1.327l-1.93-3.815v5.86h-1.966v-10.058h1.942l2.618 5.437 2.606-5.437h1.942v10.058zm6.237-10.368c.724 0 1.303.586 1.303 1.32 0 .744-.579 1.323-1.303 1.323s-1.303-.579-1.303-1.323c0-.733.579-1.32 1.303-1.32zm0 .208c-.579 0-1.05.496-1.05 1.112 0 .627.47 1.119 1.05 1.119.591.006 1.062-.492 1.062-1.113 0-.622-.471-1.118-1.062-1.118zm-.241 1.88h-.241v-1.471c.121-.017.241-.035.422-.035.217 0 .362.047.458.111.084.065.133.164.133.305 0 .194-.133.309-.29.357v.011c.133.023.217.141.241.357.036.229.072.318.097.365h-.241c-.036-.047-.072-.182-.109-.375-.036-.188-.121-.257-.314-.257h-.157zm0-.816h.169c.193 0 .35-.069.35-.251 0-.129-.097-.257-.35-.257-.084 0-.133.005-.169.012z"/><path d="m263.964 69.288c-2.113-.571-4.296.683-4.867 2.795-.005.017-.009.034-.012.05l-3.436 2.912c-.395-.125-.815-.164-1.238-.111-.186.023-.366.064-.54.121l-9.881-7.605c.047-.916-.339-1.841-1.117-2.444-1.263-.977-3.087-.745-4.065.518s-.745 3.086.518 4.064c.612.473 1.371.68 2.139.583.177-.023.349-.063.516-.115l9.903 7.622c-.039.91.347 1.822 1.119 2.419 1.263.979 3.087.746 4.064-.516.254-.33.432-.7.526-1.092l4.213-1.565c.029.009.058.017.087.025 2.113.571 4.296-.684 4.867-2.796.571-2.111-.683-4.294-2.796-4.865m-24.232-.222c-.734-.568-1.017-1.508-.789-2.354.075-.277.204-.542.39-.781.754-.975 2.161-1.155 3.135-.401.46.356.739.856.831 1.387l-1.134-.873c-.718-.556-1.752-.424-2.308.294-.556.719-.424 1.754.294 2.309l1.138.875c-.562.05-1.111-.109-1.557-.456m16.813 10.111c-.756.974-2.161 1.154-3.137.4-.45-.348-.728-.838-.825-1.358l1.108.853c.719.557 1.753.424 2.309-.294.557-.718.425-1.752-.294-2.308l-1.145-.882c.548-.054 1.116.092 1.585.454.473.365.774.893.849 1.485.074.592-.085 1.179-.45 1.65m5.693-3.504c-1.407-.38-2.243-1.836-1.862-3.243.38-1.407 1.835-2.243 3.242-1.862 1.407.38 2.243 1.836 1.863 3.242-.38 1.407-1.835 2.243-3.243 1.863m.177-.639c-1.058-.286-1.685-1.376-1.398-2.435.286-1.059 1.377-1.686 2.435-1.4 1.059.286 1.686 1.378 1.4 2.437-.287 1.058-1.378 1.684-2.437 1.398"/><path d="m184.108 79.567v-.229h.147c.08 0 .19.006.19.104 0 .106-.056.125-.151.125zm0 .161h.098l.228.4h.25l-.252-.417c.13-.01.238-.072.238-.247 0-.218-.151-.288-.405-.288h-.368v.952h.211zm1.071-.075c0-.559-.435-.883-.919-.883-.487 0-.922.325-.922.883 0 .559.434.884.922.884.484.001.919-.325.919-.884m-.265 0c0 .407-.3.681-.653.681v-.003c-.364.003-.658-.27-.658-.678 0-.407.294-.679.658-.679.353 0 .653.272.653.679z"/><path d="m151.473 70.192.001 10.033h2.833v-10.033zm-22.29-.013v10.047h2.859v-7.629l2.215.001c.734 0 1.256.183 1.61.56.448.478.631 1.248.631 2.657v4.412h2.77v-5.551c0-3.962-2.525-4.496-4.996-4.496h-5.089zm26.853.014v10.033h4.596c2.449 0 3.248-.407 4.112-1.32.611-.641 1.006-2.048 1.006-3.586 0-1.41-.334-2.668-.917-3.452-1.05-1.401-2.562-1.675-4.82-1.675zm2.81 2.184h1.218c1.768 0 2.911.794 2.911 2.853 0 2.06-1.143 2.854-2.911 2.854h-1.218zm-11.458-2.184-2.365 7.951-2.266-7.951h-3.059l3.236 10.033h4.084l3.262-10.033zm19.68 10.032h2.834v-10.032h-2.835zm7.943-10.029-3.957 10.026h2.794l.626-1.772h4.682l.593 1.772h3.033l-3.987-10.026zm1.84 1.829 1.716 4.697h-3.487z"/><path d="m110.246 71.791v-1.469c.143-.01.287-.018.433-.022 4.018-.126 6.653 3.452 6.653 3.452s-2.847 3.954-5.899 3.954c-.44 0-.833-.071-1.188-.19v-4.454c1.564.189 1.878.88 2.819 2.447l2.091-1.763s-1.527-2.002-4.1-2.002c-.279-.001-.546.019-.809.047m0-4.852v2.194c.144-.011.289-.021.433-.026 5.587-.188 9.227 4.582 9.227 4.582s-4.181 5.084-8.536 5.084c-.399 0-.773-.037-1.124-.099v1.356c.3.038.611.061.936.061 4.053 0 6.985-2.07 9.823-4.52.47.377 2.397 1.293 2.793 1.695-2.699 2.259-8.988 4.08-12.554 4.08-.344 0-.674-.021-.998-.052v1.906h15.406v-16.261zm0 10.577v1.158c-3.749-.668-4.789-4.565-4.789-4.565s1.8-1.994 4.789-2.317v1.27c-.002 0-.004-.001-.006-.001-1.569-.188-2.794 1.277-2.794 1.277s.686 2.468 2.8 3.178m-6.658-3.576s2.222-3.279 6.658-3.617v-1.189c-4.914.394-9.169 4.556-9.169 4.556s2.41 6.968 9.169 7.605v-1.265c-4.96-.624-6.658-6.09-6.658-6.09z" fill="#93ba1f"/><g fill="#333"><path d="m189.975 70.201v10.055h-2.282v-10.055z"/><path d="m191.913 75.289c0-.91-.029-1.686-.059-2.327h1.969l.105.999h.044c.299-.462 1.045-1.164 2.253-1.164 1.492 0 2.611.985 2.611 3.133v4.326h-2.268v-4.043c0-.94-.328-1.581-1.148-1.581-.627 0-1 .433-1.149.851-.06.134-.089.358-.089.567v4.207h-2.268v-4.968z"/><path d="m204.1 75.587v1.507h-3.908v-1.507z"/><path d="m207.813 70.201v3.864h3.745v-3.864h2.267v10.055h-2.267v-4.206h-3.745v4.207h-2.282v-10.056z"/><path d="m222.893 76.527c0 2.67-1.895 3.894-3.849 3.894-2.134 0-3.775-1.403-3.775-3.759 0-2.357 1.552-3.864 3.894-3.864 2.237-.001 3.73 1.536 3.73 3.729zm-5.282.075c0 1.253.522 2.193 1.492 2.193.881 0 1.448-.88 1.448-2.193 0-1.089-.418-2.193-1.448-2.193-1.089 0-1.492 1.118-1.492 2.193z"/><path d="m224.293 75.289c0-.91-.029-1.686-.059-2.327h1.91l.104.985h.045c.313-.463.955-1.149 2.207-1.149.941 0 1.686.477 2 1.238h.03c.268-.373.596-.671.94-.88.403-.238.85-.358 1.388-.358 1.402 0 2.462.985 2.462 3.163v4.296h-2.208v-3.968c0-1.059-.344-1.671-1.074-1.671-.523 0-.896.358-1.045.79-.059.164-.089.403-.089.582v4.266h-2.208v-4.088c0-.925-.329-1.551-1.044-1.551-.582 0-.926.447-1.06.821-.074.179-.089.388-.089.567v4.252h-2.208v-4.968z"/><path d="m238.865 77.333c.074.94.999 1.388 2.058 1.388.776 0 1.403-.105 2.015-.299l.298 1.536c-.745.299-1.655.448-2.64.448-2.477 0-3.894-1.432-3.894-3.715 0-1.85 1.149-3.894 3.685-3.894 2.357 0 3.253 1.835 3.253 3.64 0 .388-.045.731-.075.895h-4.7zm2.67-1.552c0-.552-.238-1.477-1.283-1.477-.955 0-1.343.866-1.402 1.477z"/><path d="m337.995 79.64c-.701.238-2.029.567-3.356.567-1.835 0-3.163-.462-4.088-1.358-.925-.865-1.433-2.178-1.418-3.655.015-3.342 2.447-5.251 5.744-5.251 1.298 0 2.297.253 2.79.492l-.478 1.82c-.552-.238-1.238-.433-2.342-.433-1.895 0-3.326 1.074-3.326 3.252 0 2.073 1.297 3.297 3.162 3.297.523 0 .941-.06 1.119-.149v-2.104h-1.551v-1.775h3.744z"/><path d="m343.961 80.102-.134-.731h-.045c-.477.582-1.223.895-2.088.895-1.478 0-2.357-1.074-2.357-2.238 0-1.895 1.7-2.804 4.281-2.79v-.104c0-.388-.208-.94-1.327-.94-.745 0-1.537.253-2.014.552l-.418-1.462c.507-.284 1.507-.642 2.834-.642 2.432 0 3.208 1.432 3.208 3.148v2.536c0 .701.029 1.373.104 1.775h-2.044zm-.269-3.445c-1.193-.015-2.119.269-2.119 1.149 0 .582.389.865.896.865.567 0 1.029-.373 1.178-.836.03-.119.045-.253.045-.388z"/><path d="m347.688 75.135c0-.91-.029-1.686-.059-2.327h1.91l.104.985h.045c.313-.463.955-1.149 2.207-1.149.941 0 1.686.477 2 1.238h.03c.268-.373.596-.671.94-.88.403-.238.85-.358 1.388-.358 1.402 0 2.462.985 2.462 3.163v4.296h-2.208v-3.968c0-1.059-.344-1.671-1.074-1.671-.523 0-.896.358-1.045.79-.059.164-.089.403-.089.582v4.266h-2.208v-4.088c0-.925-.329-1.551-1.044-1.551-.582 0-.926.447-1.06.821-.074.179-.089.388-.089.567v4.252h-2.208v-4.968z"/><path d="m362.26 77.179c.074.94.999 1.388 2.058 1.388.776 0 1.403-.105 2.015-.299l.298 1.536c-.745.299-1.655.448-2.64.448-2.477 0-3.894-1.432-3.894-3.715 0-1.85 1.149-3.894 3.685-3.894 2.357 0 3.253 1.835 3.253 3.64 0 .388-.045.731-.075.895h-4.7zm2.67-1.552c0-.552-.238-1.477-1.283-1.477-.955 0-1.342.866-1.402 1.477z"/><path d="m368.538 77.76c.612.314 1.552.627 2.522.627 1.044 0 1.596-.432 1.596-1.089 0-.627-.477-.984-1.686-1.417-1.67-.582-2.759-1.507-2.759-2.969 0-1.715 1.432-3.028 3.804-3.028 1.133 0 1.969.238 2.566.507l-.507 1.835c-.403-.194-1.119-.478-2.104-.478s-1.462.448-1.462.97c0 .642.567.925 1.865 1.418 1.775.656 2.611 1.581 2.611 2.999 0 1.686-1.297 3.118-4.058 3.118-1.149 0-2.283-.299-2.849-.612z"/><path d="m378.906 70.719v2.088h1.626v1.671h-1.626v2.641c0 .88.208 1.283.895 1.283.284 0 .507-.03.671-.06l.015 1.716c-.299.119-.836.194-1.477.194-.731 0-1.342-.253-1.701-.627-.417-.433-.626-1.134-.626-2.163v-2.984h-.97v-1.671h.97v-1.581z"/><path d="m381.842 75.209c0-1.074-.029-1.775-.059-2.402h1.954l.075 1.342h.059c.374-1.059 1.268-1.507 1.97-1.507.208 0 .314 0 .478.03v2.133c-.164-.03-.359-.06-.612-.06-.836 0-1.403.447-1.552 1.149-.029.149-.044.328-.044.507v3.7h-2.268v-4.892z"/><path d="m389.137 77.179c.074.94.999 1.388 2.058 1.388.776 0 1.403-.105 2.015-.299l.298 1.536c-.745.299-1.655.448-2.64.448-2.477 0-3.894-1.432-3.894-3.715 0-1.85 1.149-3.894 3.685-3.894 2.357 0 3.253 1.835 3.253 3.64 0 .388-.045.731-.075.895h-4.7zm2.67-1.552c0-.552-.238-1.477-1.283-1.477-.955 0-1.342.866-1.402 1.477z"/><path d="m399.413 80.102-.134-.731h-.045c-.477.582-1.223.895-2.088.895-1.478 0-2.357-1.074-2.357-2.238 0-1.895 1.7-2.804 4.281-2.79v-.104c0-.388-.208-.94-1.328-.94-.745 0-1.537.253-2.014.552l-.418-1.462c.507-.284 1.507-.642 2.834-.642 2.432 0 3.208 1.432 3.208 3.148v2.536c0 .701.029 1.373.104 1.775h-2.043zm-.268-3.445c-1.193-.015-2.119.269-2.119 1.149 0 .582.389.865.896.865.567 0 1.029-.373 1.178-.836.03-.119.045-.253.045-.388z"/><path d="m403.14 75.135c0-.91-.029-1.686-.059-2.327h1.91l.104.985h.045c.313-.463.955-1.149 2.207-1.149.941 0 1.686.477 2 1.238h.03c.268-.373.596-.671.94-.88.403-.238.85-.358 1.388-.358 1.402 0 2.462.985 2.462 3.163v4.296h-2.208v-3.968c0-1.059-.344-1.671-1.074-1.671-.523 0-.896.358-1.045.79-.059.164-.089.403-.089.582v4.266h-2.208v-4.088c0-.925-.329-1.551-1.044-1.551-.582 0-.926.447-1.06.821-.074.179-.089.388-.089.567v4.252h-2.208v-4.968z"/></g><path d="m98.557 49.598c0 27.216-22.063 49.278-49.278 49.278s-49.279-22.063-49.279-49.278 22.063-49.279 49.278-49.279 49.279 22.063 49.279 49.279zm-49.279-31.093c-17.172 0-31.092 13.921-31.092 31.092s13.92 31.093 31.092 31.093 31.093-13.92 31.093-31.092-13.921-31.093-31.093-31.093z" fill="#a3a1a3"/><path d="m47.278 18.505h2.952v62.185h-2.952z" fill="#a3a1a3"/><path d="m47.453 19.156h2.952v62.884h-2.952z" fill="#a3a1a3" transform="matrix(0 1 -1 0 99.5266 1.6688)"/><path d="m47.661 18.654h2.952v63.472h-2.952z" fill="#a3a1a3" transform="matrix(.7071 .7071 -.7071 .7071 50.0228 -19.9862)"/><path d="m47.333 18.79h2.952v62.545h-2.952z" fill="#a3a1a3" transform="matrix(.7071 -.7071 .7071 .7071 -21.1033 49.176)"/><path d="m141.912 47.335c-.162-4.376-.324-9.672-.324-14.967h-.162c-1.135 4.646-2.647 9.833-4.053 14.102l-4.431 14.21h-6.43l-3.89-14.103c-1.189-4.268-2.432-9.455-3.296-14.21h-.108c-.216 4.917-.378 10.536-.648 15.075l-.648 13.832h-7.618l2.323-36.417h10.968l3.566 12.157c1.135 4.215 2.27 8.753 3.08 13.021h.162c1.026-4.214 2.27-9.023 3.458-13.075l3.89-12.103h10.753l1.999 36.417h-8.051z" fill="#a4a1a4"/><path d="m190.165 42.689c0 11.941-7.24 19.181-17.884 19.181-10.807 0-17.129-8.159-17.129-18.533 0-10.914 6.971-19.073 17.723-19.073 11.185 0 17.29 8.375 17.29 18.425zm-26.313.486c0 7.132 3.351 12.157 8.861 12.157 5.565 0 8.753-5.295 8.753-12.373 0-6.538-3.134-12.157-8.807-12.157-5.565 0-8.807 5.295-8.807 12.373z" fill="#a4a1a4"/><path d="m228.909 42.689c0 11.941-7.24 19.181-17.884 19.181-10.807 0-17.129-8.159-17.129-18.533 0-10.914 6.971-19.073 17.723-19.073 11.185 0 17.29 8.375 17.29 18.425zm-26.313.486c0 7.132 3.351 12.157 8.861 12.157 5.565 0 8.753-5.295 8.753-12.373 0-6.538-3.134-12.157-8.807-12.157-5.565 0-8.807 5.295-8.807 12.373z" fill="#a4a1a4"/><path d="m234.316 61.275v-36.417h9.617l7.564 13.346c2.161 3.836 4.322 8.375 5.943 12.481h.162c-.54-4.809-.702-9.726-.702-15.183v-10.644h7.564v36.417h-8.646l-7.78-14.048c-2.161-3.89-4.539-8.591-6.321-12.859l-.162.054c.216 4.809.324 9.942.324 15.885v10.968z" fill="#a4a1a4"/><path d="m271.6 24.858h8.267v29.501h14.48v6.916h-22.747z" fill="#a4a1a4"/><path d="m307.479 24.858v36.417h-8.267v-36.417z" fill="#a4a1a4"/><path d="m345.031 59.601c-2.539.864-7.348 2.053-12.156 2.053-6.646 0-11.455-1.675-14.805-4.917-3.351-3.134-5.188-7.889-5.134-13.238.055-12.103 8.861-19.019 20.803-19.019 4.7 0 8.32.918 10.104 1.783l-1.729 6.592c-1.999-.865-4.485-1.567-8.483-1.567-6.862 0-12.049 3.89-12.049 11.779 0 7.51 4.701 11.941 11.455 11.941 1.891 0 3.403-.216 4.052-.541v-7.618h-5.619v-6.43h13.562v19.182z" fill="#a4a1a4"/><path d="m359.731 24.858v13.994h13.562v-13.994h8.213v36.417h-8.213v-15.236h-13.562v15.237h-8.267v-36.418z" fill="#a4a1a4"/><path d="m395.718 31.774h-9.779v-6.916h27.988v6.916h-9.941v29.501h-8.268z" fill="#a4a1a4"/><path d="m143.036 46.857c-.162-4.376-.324-9.672-.324-14.967h-.162c-1.135 4.646-2.647 9.833-4.053 14.102l-4.431 14.21h-6.43l-3.89-14.103c-1.189-4.268-2.432-9.455-3.296-14.21h-.108c-.216 4.917-.378 10.536-.648 15.075l-.648 13.832h-7.618l2.323-36.417h10.968l3.566 12.157c1.135 4.215 2.27 8.753 3.08 13.021h.162c1.026-4.214 2.27-9.023 3.458-13.075l3.89-12.103h10.753l1.999 36.417h-8.051z" fill="#deddde"/><path d="m191.289 42.21c0 11.941-7.24 19.181-17.884 19.181-10.807 0-17.129-8.159-17.129-18.533 0-10.914 6.971-19.073 17.723-19.073 11.185.001 17.29 8.376 17.29 18.425zm-26.313.487c0 7.132 3.351 12.157 8.861 12.157 5.565 0 8.753-5.295 8.753-12.373 0-6.538-3.134-12.157-8.807-12.157-5.565 0-8.807 5.295-8.807 12.373z" fill="#deddde"/><path d="m230.033 42.21c0 11.941-7.24 19.181-17.884 19.181-10.807 0-17.129-8.159-17.129-18.533 0-10.914 6.971-19.073 17.723-19.073 11.185.001 17.29 8.376 17.29 18.425zm-26.313.487c0 7.132 3.351 12.157 8.861 12.157 5.565 0 8.753-5.295 8.753-12.373 0-6.538-3.134-12.157-8.807-12.157-5.565 0-8.807 5.295-8.807 12.373z" fill="#deddde"/><path d="m235.44 60.797v-36.417h9.617l7.564 13.346c2.161 3.836 4.322 8.375 5.943 12.481h.162c-.54-4.809-.702-9.726-.702-15.183v-10.644h7.564v36.417h-8.646l-7.78-14.048c-2.161-3.89-4.539-8.591-6.321-12.859l-.162.054c.216 4.809.324 9.942.324 15.885v10.968z" fill="#deddde"/><path d="m272.724 24.38h8.267v29.501h14.48v6.916h-22.747z" fill="#deddde"/><path d="m308.603 24.38v36.417h-8.267v-36.417z" fill="#deddde"/><path d="m346.155 59.123c-2.539.864-7.348 2.053-12.156 2.053-6.646 0-11.455-1.675-14.805-4.917-3.351-3.134-5.188-7.889-5.134-13.238.055-12.103 8.861-19.019 20.803-19.019 4.7 0 8.32.918 10.104 1.783l-1.729 6.592c-1.999-.865-4.485-1.567-8.483-1.567-6.862 0-12.049 3.89-12.049 11.779 0 7.51 4.701 11.941 11.455 11.941 1.891 0 3.403-.216 4.052-.541v-7.618h-5.619v-6.43h13.562v19.182z" fill="#deddde"/><path d="m360.855 24.38v13.994h13.562v-13.994h8.213v36.417h-8.213v-15.236h-13.562v15.237h-8.267v-36.418z" fill="#deddde"/><path d="m396.842 31.296h-9.779v-6.916h27.988v6.916h-9.941v29.501h-8.268z" fill="#deddde"/><path d="m99.509 49.278c0 27.216-22.063 49.278-49.278 49.278s-49.279-22.062-49.279-49.278 22.063-49.278 49.278-49.278 49.279 22.063 49.279 49.278zm-49.279-31.092c-17.172 0-31.092 13.921-31.092 31.092s13.921 31.093 31.092 31.093 31.093-13.921 31.093-31.093-13.921-31.092-31.093-31.092z" fill="#deddde"/><path d="m48.23 18.186h2.952v62.185h-2.952z" fill="#deddde"/><path d="m48.405 18.837h2.952v62.884h-2.952z" fill="#deddde" transform="matrix(0 1 -1 0 100.1595 .3973)"/><path d="m48.613 18.335h2.952v63.472h-2.952z" fill="#deddde" transform="matrix(.7071 .7071 -.7071 .7071 50.0759 -20.753)"/><path d="m48.285 18.47h2.952v62.545h-2.952z" fill="#deddde" transform="matrix(.7071 -.7071 .7071 .7071 -20.5986 49.7557)"/></svg>