<?xml version="1.0" encoding="UTF-8" standalone="no"?>
<svg
   xmlns:dc="http://purl.org/dc/elements/1.1/"
   xmlns:cc="http://creativecommons.org/ns#"
   xmlns:rdf="http://www.w3.org/1999/02/22-rdf-syntax-ns#"
   xmlns:svg="http://www.w3.org/2000/svg"
   xmlns="http://www.w3.org/2000/svg"
   xmlns:xlink="http://www.w3.org/1999/xlink"
   xmlns:sodipodi="http://sodipodi.sourceforge.net/DTD/sodipodi-0.dtd"
   xmlns:inkscape="http://www.inkscape.org/namespaces/inkscape"
   viewBox="0 0 1307.8455 1164.9165"
   id="svg2"
   version="1.1"
   inkscape:version="0.48.5 r10040"
   width="100%"
   height="100%"
   sodipodi:docname="cd-case.svg">
  <metadata
     id="metadata142">
    <rdf:RDF>
      <cc:Work
         rdf:about="">
        <dc:format>image/svg+xml</dc:format>
        <dc:type
           rdf:resource="http://purl.org/dc/dcmitype/StillImage" />
        <dc:title>CD-DVD</dc:title>
      </cc:Work>
    </rdf:RDF>
  </metadata>
  <sodipodi:namedview
     pagecolor="#ffffff"
     bordercolor="#666666"
     borderopacity="1"
     objecttolerance="10"
     gridtolerance="10"
     guidetolerance="10"
     inkscape:pageopacity="0"
     inkscape:pageshadow="2"
     inkscape:window-width="1488"
     inkscape:window-height="872"
     id="namedview140"
     showgrid="false"
     showguides="true"
     inkscape:guide-bbox="true"
     inkscape:zoom="0.40517926"
     inkscape:cx="328.98193"
     inkscape:cy="678.03418"
     inkscape:window-x="145"
     inkscape:window-y="36"
     inkscape:window-maximized="0"
     inkscape:current-layer="g64">
    <sodipodi:guide
       orientation="0,1"
       position="356.01473,1155.3027"
       id="guide3119" />
    <sodipodi:guide
       orientation="1,0"
       position="162.30083,958.09847"
       id="guide3121" />
    <sodipodi:guide
       orientation="0,1"
       position="411.86018,50.609937"
       id="guide3123" />
    <sodipodi:guide
       orientation="1,0"
       position="1298.4067,739.95219"
       id="guide3125" />
  </sodipodi:namedview>
  <defs
     id="defs4">
    <filter
       id="filter4100">
      <feGaussianBlur
         stdDeviation="6.037"
         id="feGaussianBlur7" />
    </filter>
    <linearGradient
       id="linearGradient3995">
      <stop
         offset="0"
         stop-color="#5f5f5f"
         id="stop10" />
      <stop
         offset="1"
         stop-color="#a4a4a4"
         id="stop12" />
    </linearGradient>
    <linearGradient
       gradientUnits="userSpaceOnUse"
       id="linearGradient3980"
       x1="694.4785"
       x2="366.6324"
       y1="-15.5226"
       y2="552.3235"
       gradientTransform="translate(-1480.8261,-2.4680435)">
      <stop
         offset="0"
         stop-color="#fff"
         stop-opacity=".348"
         id="stop15" />
      <stop
         offset=".96"
         stop-color="#fff"
         stop-opacity=".27"
         id="stop17" />
      <stop
         offset="1"
         stop-color="#fff"
         stop-opacity=".139"
         id="stop19" />
    </linearGradient>
    <linearGradient
       gradientUnits="userSpaceOnUse"
       id="linearGradient4199"
       spreadMethod="reflect"
       x1="269.3266"
       x2="483.6859"
       y1="494.5869"
       y2="-305.4131">
      <stop
         offset="0"
         stop-color="#ffc988"
         id="stop22" />
      <stop
         offset=".274"
         stop-color="#be88e4"
         id="stop24" />
      <stop
         offset="1"
         stop-color="#96ff88"
         id="stop26" />
    </linearGradient>
    <linearGradient
       gradientUnits="userSpaceOnUse"
       id="linearGradient4201"
       spreadMethod="reflect"
       x1="664.8509"
       x2="110.5947"
       y1="703.3681"
       y2="1023.3681">
      <stop
         offset="0"
         stop-color="#fffeb6"
         id="stop29" />
      <stop
         offset=".548"
         stop-color="#d6e0da"
         id="stop31" />
      <stop
         offset="1"
         stop-color="#aec3fe"
         id="stop33" />
    </linearGradient>
    <linearGradient
       gradientUnits="userSpaceOnUse"
       id="linearGradient3903"
       x1="-196.2188"
       x2="-78.7868">
      <stop
         offset="0"
         id="stop36" />
      <stop
         offset=".043"
         stop-color="#111"
         id="stop38" />
      <stop
         offset=".852"
         stop-color="#111"
         id="stop40" />
      <stop
         offset="1"
         id="stop42" />
    </linearGradient>
    <linearGradient
       gradientUnits="userSpaceOnUse"
       id="linearGradient4237"
       x1="664.8635"
       x2="643.4276"
       xlink:href="#linearGradient3995"
       y1="1109.75"
       y2="1029.75" />
    <radialGradient
       cx="2926.6164"
       cy="724.5781"
       gradientUnits="userSpaceOnUse"
       id="radialGradient3869"
       r="341.75">
      <stop
         offset="0"
         stop-color="#fff"
         id="stop46" />
      <stop
         offset=".984"
         stop-color="#fffee3"
         stop-opacity=".498"
         id="stop48" />
      <stop
         offset="1"
         stop-color="#fffec8"
         stop-opacity="0"
         id="stop50" />
    </radialGradient>
    <radialGradient
       cx="502.6316"
       cy="575.305"
       gradientTransform="matrix(-0.87788,0.65212,-0.66271,-0.89214,-96.451662,716.35845)"
       gradientUnits="userSpaceOnUse"
       id="radialGradient4462"
       r="564.9988">
      <stop
         offset="0"
         stop-color="#d5d5d5"
         id="stop53" />
      <stop
         offset=".107"
         stop-color="#333"
         id="stop55" />
      <stop
         offset=".878"
         stop-color="#1b1b1b"
         id="stop57" />
      <stop
         offset="1"
         stop-color="#e2e2e2"
         id="stop59" />
    </radialGradient>
    <radialGradient
       cx="780"
       cy="706.9783"
       gradientTransform="matrix(.90707,.5237,-.4445,.76989,386.73616,-260.41604)"
       gradientUnits="userSpaceOnUse"
       id="radialGradient3837"
       r="639.4216"
       spreadMethod="reflect"
       xlink:href="#linearGradient3995" />
  </defs>
  <title
     id="title62">CD-DVD</title>
  <g
     transform="translate(227.8566,-13.3223)"
     id="g64">
    <path
       d="m -1646.8417,-16.613683 h 1263.14089 a 7.8634,7.9456 0 0 1 7.8634,7.9455998 V 1111.3795 a 7.8634,7.9456 0 0 1 -7.8634,7.9456 H -1646.8417 a 7.8634,7.9456 0 0 1 -7.8634,-7.9456 V -8.6680832 a 7.8634,7.9456 0 0 1 7.8634,-7.9455998"
       id="path66"
       inkscape:connector-curvature="0"
       style="opacity:0.581;filter:url(#filter4100)" />
    <path
       d="m -184.9928,7.3715 c -4.3529,0 -7.8438,3.5358 -7.8438,7.9375 l 0,1120 c 0,4.4017 3.4909,7.9375 7.8438,7.9375 l 1262.1251,0 c 4.3527,0 7.875,-3.5358 7.875,-7.9375 l 0,-1120 c 0,-4.4017 -3.5223,-7.9375 -7.875,-7.9375 z"
       id="path68"
       inkscape:export-filename="/home/dave/tmp/prova.png"
       inkscape:export-xdpi="90.009315"
       inkscape:export-ydpi="90.009315"
       inkscape:connector-curvature="0"
       style="fill:url(#radialGradient3837);stroke:#6a5555"
       sodipodi:nodetypes="sssssssss" />
    <path
       d="m -1630.1412,22.93608 c -3.8654,0 -7,3.4363 -7,7.7188 V 1120.3423 c 0,4.2825 3.1346,7.7188 7,7.7188 h 1120.74996 c 3.8654,0 7,-3.4363 7,-7.7188 V 30.65488 c 0,-4.2825 -3.1346,-7.7188 -7,-7.7188 z m 562.5313,462.125 h 0.094 c 3.6174,0 7.182,0.2087 10.6875,0.625 -2.1308,4.2783 -3.9272,8.8886 -4.25,14.0938 -0,0.016 0,0.0154 0,0.0312 -0,0.0158 -0.031,0.0438 -0.031,0.0625 h 0.031 c -0.2546,2.9636 0.6278,5.6634 2.0938,7.875 1.6367,0.5318 3.0671,1.4386 3.8438,3.0625 1.0675,3.0418 -0.5166,6.2187 -1.875,8.9063 -2.035,4.3373 -5.12,8.4825 -5.4063,13.4063 -0.3396,3.5885 3.0415,6.032 6.125,6.9375 2.9389,1.1629 6.8991,1.5931 9.2188,-1 3.9216,-5.3472 3.0488,-12.4864 5.0938,-18.5625 0.5756,-2.5582 2.6029,-5.0339 5.4375,-4.9688 0.8022,0.099 1.5826,0.2828 2.3438,0.5313 1.9831,-0.6841 3.8375,-1.8124 5.375,-3.5313 0.066,-0.0696 0.1289,-0.1426 0.1875,-0.2188 3.4704,-4.7319 5.0613,-9.9485 6.0625,-15.1875 3.0762,1.7844 6.0445,3.7494 8.875,5.875 -3.1303,2.0857 -6.1944,4.429 -8.8125,7.4375 l -0.1875,0.2188 c -2.8446,2.8015 -4.1016,6.5759 -3.9375,10.3125 1.7763,1.6939 2.4264,4.5273 1.0625,6.6875 -4.0381,5.4173 -11.4049,7.2116 -15.8125,12.375 -2.2151,2.0849 -2.3677,5.5659 -0.75,8.0625 1.9669,2.9068 4.7348,6.1922 8.5625,6.2188 4.0307,-0.4573 6.811,-3.939 9.2188,-6.8438 2.7242,-2.9923 4.8242,-6.7811 8.5,-8.6563 2.3055,-1.3157 5.0765,-0.1564 6.625,1.7813 0.8323,0.1522 1.6966,0.244 2.5938,0.25 0.1047,-0.004 0.209,-0.0149 0.3125,-0.0312 7.42846,-0.8429 12.44896,-6.2214 16.43746,-11 1.8056,3.113 3.4477,6.3519 4.875,9.6875 -4.3933,0.2907 -8.8736,0.964 -13.25,2.8125 l -0.0625,0.0312 c -0.039,0.0165 -0.086,0.0145 -0.125,0.0312 -3.20306,1.1715 -5.44436,3.4868 -6.81246,6.25 0.1056,0.4995 0.2054,1.018 0.25,1.5313 0.2361,2.4823 -1.5697,4.6137 -3.875,5.3125 -6.338,1.9068 -13.3639,0.004 -19.5313,2.6563 -2.8214,0.9821 -4.0475,4.1254 -3.75,6.9063 0.2798,3.5679 1.3831,7.9845 5.0938,9.375 4.9622,1.08 9.7262,-1.4844 14.25,-3.125 3.193,-1.007 6.8914,-2.8503 10.1875,-1.1875 1.556,0.9314 2.3172,2.4794 2.65626,4.1875 1.1682,1.0036 2.5314,1.8521 4.0938,2.4375 0.1218,0.0506 0.2472,0.0924 0.375,0.125 6.3214,1.3758 12.2343,-0.0835 17.6875,-2.0625 -6e-4,3.6122 -0.2093,7.1558 -0.625,10.6563 -4.5107,-2.2806 -9.3917,-4.1793 -14.9688,-4.25 h -0.0625 c -2.6515,-0.0711 -5.0463,0.7545 -7.03126,2.0625 -0.5274,1.6448 -1.4404,3.0937 -3.0625,3.875 -3.1218,1.1061 -6.3898,-0.5565 -9.125,-1.9688 -4.3879,-2.0057 -8.5619,-5.232 -13.5625,-5.2813 -3.5191,-0.1155 -5.7603,3.2793 -6.6563,6.2813 -1.1304,2.9489 -1.4514,6.8415 1.1875,9.0938 5.3645,3.8276 12.413,3.0085 18.4375,5.0313 2.5797,0.5707 5.0587,2.6149 5,5.4375 -0.1001,0.8031 -0.282,1.5791 -0.5313,2.3438 0.7141,2.0594 1.9191,3.9999 3.75,5.5625 0.05,0.0542 0.1021,0.1063 0.1563,0.1563 4.7022,3.3551 9.90046,4.9167 15.06246,5.9063 -1.791,3.0887 -3.7714,6.0652 -5.9063,8.9063 -2.0441,-3.0778 -4.33816,-6.0837 -7.24996,-8.6875 -2.827,-2.9657 -6.7796,-4.4299 -10.7188,-4.2813 -1.6834,1.8027 -4.5655,2.4465 -6.7188,1.0938 -5.3497,-4.0424 -7.1581,-11.2148 -12.125,-15.6563 -1.8878,-2.0631 -5.0629,-2.5884 -7.5625,-1.3125 -3.1077,1.8534 -6.5323,4.5794 -6.9375,8.375 -0.031,3.8912 3.2592,6.7308 5.9688,9.0313 3.2452,3.0748 7.572,5.3327 9.5938,9.4688 1.2399,2.2785 -0.015,4.9155 -1.875,6.4375 -0.081,0.4262 -0.1401,0.8688 -0.1875,1.3125 -0.014,0.0828 -0.025,0.1663 -0.031,0.25 -0.064,8.1837 6.2151,13.6929 11.0313,17.7813 -3.1261,1.8142 -6.3681,3.4423 -9.7188,4.875 -0.2804,-4.4643 -0.94,-9.0359 -2.875,-13.4688 -0.027,-0.0617 -0.035,-0.1258 -0.062,-0.1875 h -0.031 c -1.1765,-3.1155 -3.5296,-5.2857 -6.1875,-6.5938 -0.3191,0.07 -0.6138,0.1399 -0.9375,0.1875 -2.3362,0.3783 -4.7319,-0.9358 -5.5938,-3.1563 -2.4143,-6.4886 -0.1255,-13.8896 -2.9688,-20.2813 -1.148,-3.2105 -4.957,-4.1044 -8,-3.5625 -3.2329,0.4447 -7.1374,1.6618 -8.2813,5.0938 -1.0174,5.2427 1.7774,10.1084 3.4688,14.9063 0.9658,3.0049 2.4897,6.6118 0.7813,9.625 -0.9851,1.4277 -2.4808,2.145 -4.125,2.4688 -1.0589,1.2359 -1.9392,2.6923 -2.5,4.375 -0.039,0.1124 -0.07,0.2273 -0.094,0.3438 -1.2156,6.2642 0.2088,12.0505 2.1563,17.4375 -3.6176,-0.002 -7.2132,-0.2384 -10.7188,-0.6563 2.2676,-4.4851 4.2136,-9.326 4.3125,-14.8438 v -0.0312 -0.0312 c 0.087,-2.7014 -0.7609,-5.1374 -2.0938,-7.1563 -1.7079,-0.5525 -3.2121,-1.5022 -3.9375,-3.2188 -0.9849,-3.2951 0.8354,-6.6358 2.3125,-9.5 1.9834,-4.1792 4.9581,-8.2225 5.0313,-12.9688 0.1295,-3.4423 -3.0723,-5.681 -6,-6.5938 -2.9942,-1.1583 -7.0009,-1.6808 -9.3438,1.0313 -3.8361,5.2613 -3.045,12.2419 -4.9688,18.2188 -0.557,2.5594 -2.4355,5.1332 -5.25,5.25 -0.9242,-0.0676 -1.8173,-0.2483 -2.6875,-0.5313 -1.9996,0.7021 -3.9012,1.8778 -5.4375,3.6563 -0.044,0.0608 -0.086,0.1233 -0.125,0.1875 -3.4327,4.7081 -5.0389,9.9165 -6.0313,15.125 -3.0864,-1.7912 -6.0362,-3.7717 -8.875,-5.9063 0.4703,-0.3204 0.9409,-0.6663 1.4063,-1 2.5318,-1.7886 5.42,-3.9467 7.75,-6.75 2.2332,-2.687 3.9411,-6.1396 3.8438,-10.1563 -1.7152,-1.6588 -2.4832,-4.3272 -1.2813,-6.5 2.9221,-4.2206 7.9215,-6.2294 12,-9.1563 2.7712,-1.9574 6.0592,-4.5582 5.8125,-8.375 -0.4444,-2.8994 -2.5163,-5.4222 -4.6563,-7.3125 -1.9611,-1.73 -4.824,-2.7693 -7.2813,-1.5 -6.0308,3.0763 -8.666,9.9947 -13.9375,14 -1.7909,1.721 -4.7437,1.9992 -6.75,0.4688 -0.456,-0.4152 -0.8757,-0.8466 -1.2813,-1.3125 -2.6252,-0.5172 -5.4121,-0.3066 -8.0625,1.0625 v 0.0312 c -4.7138,2.4082 -8.2888,5.9009 -11.4375,9.5938 -1.7903,-3.0962 -3.396,-6.3092 -4.8125,-9.625 3.9754,-0.2545 8.0102,-0.8199 11.9688,-2.2813 l 0.2813,-0.0937 c 3.6567,-1.0428 6.3909,-3.6151 8,-6.7813 -0.01,-0.0418 -0.022,-0.0832 -0.031,-0.125 -0.8047,-2.4724 0.425,-5.2931 2.8125,-6.3438 6.2981,-2.4061 13.5179,-0.3364 19.7813,-2.7188 2.7877,-0.7227 4.4835,-3.6086 4.375,-6.4063 -0.2115,-3.4733 -0.9222,-7.6283 -4.0938,-9.6563 -3.5526,-1.7078 -7.6434,-0.2058 -11.0938,1.0625 -4.015,1.2608 -7.8635,3.62 -12.1875,3.4063 -2.6371,0.0127 -4.5011,-2.4008 -4.8438,-4.8438 -0.5347,-0.46 -1.0961,-0.9143 -1.7188,-1.3125 -0.1007,-0.0586 -0.2052,-0.1109 -0.3125,-0.1563 -6.9219,-3.3274 -14.1829,-1.0538 -20.0938,1.0938 -10e-5,-0.0156 0,-0.0469 0,-0.0625 0,-3.6336 0.205,-7.1982 0.625,-10.7188 3.8521,1.907 7.9693,3.5232 12.5625,4.125 l 0.25,0.0312 c 3.4211,0.6702 6.6986,-0.2713 9.2813,-2 0.096,-0.3009 0.1972,-0.5808 0.3125,-0.875 0.8659,-2.2445 3.1949,-3.6879 5.5938,-3.2813 6.7293,1.1959 11.9211,6.7294 18.75,7.5625 3.2156,0.7055 6.015,-1.8775 7.125,-4.6875 1.2867,-3.0528 2.3741,-7.0998 0.094,-9.9688 -3.2975,-3.2625 -8.271,-3.5825 -12.625,-4.3125 -3.4898,-0.7317 -7.5983,-0.8489 -10.25,-3.5313 -1.5067,-1.5944 -1.4537,-3.7974 -0.7813,-5.7813 -0.4708,-1.3301 -1.1453,-2.6193 -2.0938,-3.8125 -0.069,-0.077 -0.1418,-0.15 -0.2188,-0.2188 -4.7245,-4.6744 -10.7978,-6.3585 -16.625,-7.375 1.7862,-3.0863 3.7457,-6.0667 5.875,-8.9063 2.8008,4.2138 6.1306,8.2407 10.875,11.1563 2.2777,1.4048 4.767,1.8714 7.1563,1.7188 0.9575,-0.8611 2.0442,-1.5226 3.375,-1.7813 3.1772,-0.3811 5.5794,2.3986 7.1563,4.7813 3.2473,4.333 5.2959,9.8953 10.0938,12.8438 2.9281,1.8059 6.4982,0.0375 8.75,-2.0313 2.4398,-1.9676 4.7497,-5.0937 3.7188,-8.4063 -2.5941,-6.0225 -9.0987,-8.8857 -13.3438,-13.5313 -1.9001,-1.7431 -3.2346,-4.6297 -1.9688,-7.125 0.5158,-0.7805 1.1294,-1.4733 1.8125,-2.0938 0.3826,-1.9993 0.3531,-4.1114 -0.3125,-6.25 -0.026,-0.0953 -0.057,-0.1893 -0.094,-0.2813 -2.3372,-5.4261 -6.0925,-9.4847 -10.1563,-13 3.0604,-1.7652 6.2253,-3.3495 9.5,-4.75 0.2247,3.6764 0.7109,7.4282 1.9375,11.125 0.9521,4.0071 3.6765,7.2178 7.1563,9.0625 2.2806,-0.6106 4.9692,0.0629 6.2188,2.1875 2.8438,6.2275 0.6928,13.4554 2.8125,19.8438 0.6199,2.8969 3.4222,5.0199 6.375,4.9688 3.617,-0.2165 7.9951,-0.8752 10,-4.2813 1.6433,-3.6743 0.046,-7.7464 -1.25,-11.2813 -1.2899,-4.1776 -3.9238,-8.2872 -3.125,-12.8125 0.4707,-2.2346 2.5157,-3.431 4.6563,-3.875 0.5482,-0.6385 1.0518,-1.3323 1.5,-2.0938 0.046,-0.0811 0.088,-0.1646 0.125,-0.25 3.0743,-6.8739 0.8898,-13.9212 -1.25,-19.7813 z"
       id="path70"
       inkscape:connector-curvature="0"
       style="fill:#1a1a1a" />
    <path
       d="m-189.9688,23.25a5.7593,5.7593 0 0,0 -5.75,5.75v1079a5.7593,5.7593 0 0,0 5.75,5.75h104.9375a5.7593,5.7593 0 0,0 5.75-5.75v-1079a5.7593,5.7593 0 0,0 -5.75-5.75h-104.9375z"
       transform="matrix(1,0,0,1.02247,2.851,-6.41017)"
       id="path72"
       stroke-width=".989"
       stroke="#000"
       fill="url(#linearGradient3903)"
       inkscape:export-filename="/home/dave/tmp/prova.png"
       inkscape:export-xdpi="90.009315"
       inkscape:export-ydpi="90.009315" />
    <path
       d="m-175,17.809v1115"
       id="path74"
       stroke-width="3.2587"
       stroke="#000"
       fill="#151515"
       inkscape:export-filename="/home/dave/tmp/prova.png"
       inkscape:export-xdpi="90.009315"
       inkscape:export-ydpi="90.009315" />
    <path
       d="m-165,17.809v1115"
       id="path76"
       stroke-width="3.2587"
       stroke="#000"
       fill="#151515"
       inkscape:export-filename="/home/dave/tmp/prova.png"
       inkscape:export-xdpi="90.009315"
       inkscape:export-ydpi="90.009315" />
    <path
       d="m-145,17.809v1115"
       id="path78"
       stroke-width="3.2587"
       stroke="#000"
       fill="#151515"
       inkscape:export-filename="/home/dave/tmp/prova.png"
       inkscape:export-xdpi="90.009315"
       inkscape:export-ydpi="90.009315" />
    <path
       d="m-135,17.809v1115"
       id="path80"
       stroke-width="3.2587"
       stroke="#000"
       fill="#151515"
       inkscape:export-filename="/home/dave/tmp/prova.png"
       inkscape:export-xdpi="90.009315"
       inkscape:export-ydpi="90.009315" />
    <path
       d="m-125,17.809v1115"
       id="path82"
       stroke-width="3.2587"
       stroke="#000"
       fill="#151515"
       inkscape:export-filename="/home/dave/tmp/prova.png"
       inkscape:export-xdpi="90.009315"
       inkscape:export-ydpi="90.009315" />
    <path
       d="m-105,17.809v1115"
       id="path84"
       stroke-width="3.2587"
       stroke="#000"
       fill="#151515"
       inkscape:export-filename="/home/dave/tmp/prova.png"
       inkscape:export-xdpi="90.009315"
       inkscape:export-ydpi="90.009315" />
    <path
       d="m-155,17.809v1115"
       id="path86"
       stroke-width="3.2587"
       stroke="#000"
       fill="#151515"
       inkscape:export-filename="/home/dave/tmp/prova.png"
       inkscape:export-xdpi="90.009315"
       inkscape:export-ydpi="90.009315" />
    <path
       d="m-115,17.809v1115"
       id="path88"
       stroke-width="3.2587"
       stroke="#000"
       fill="#151515"
       inkscape:export-filename="/home/dave/tmp/prova.png"
       inkscape:export-xdpi="90.009315"
       inkscape:export-ydpi="90.009315" />
    <path
       d="m-95,17.809v1115"
       id="path90"
       stroke-width="3.2587"
       stroke="#000"
       fill="#151515"
       inkscape:export-filename="/home/dave/tmp/prova.png"
       inkscape:export-xdpi="90.009315"
       inkscape:export-ydpi="90.009315" />
    <path
       d="m-180,17.809v1115"
       id="path92"
       stroke-width="3.2587"
       stroke="#222"
       fill="none"
       inkscape:export-filename="/home/dave/tmp/prova.png"
       inkscape:export-xdpi="90.009315"
       inkscape:export-ydpi="90.009315" />
    <path
       d="m-170,17.809v1115"
       id="path94"
       stroke-width="3.2587"
       stroke="#222"
       fill="none"
       inkscape:export-filename="/home/dave/tmp/prova.png"
       inkscape:export-xdpi="90.009315"
       inkscape:export-ydpi="90.009315" />
    <path
       d="m-150,17.809v1115"
       id="path96"
       stroke-width="3.2587"
       stroke="#222"
       fill="none"
       inkscape:export-filename="/home/dave/tmp/prova.png"
       inkscape:export-xdpi="90.009315"
       inkscape:export-ydpi="90.009315" />
    <path
       d="m-140,17.809v1115"
       id="path98"
       stroke-width="3.2587"
       stroke="#222"
       fill="none"
       inkscape:export-filename="/home/dave/tmp/prova.png"
       inkscape:export-xdpi="90.009315"
       inkscape:export-ydpi="90.009315" />
    <path
       d="m-130,17.809v1115"
       id="path100"
       stroke-width="3.2587"
       stroke="#222"
       fill="none"
       inkscape:export-filename="/home/dave/tmp/prova.png"
       inkscape:export-xdpi="90.009315"
       inkscape:export-ydpi="90.009315" />
    <path
       d="m-110,17.809v1115"
       id="path102"
       stroke-width="3.2587"
       stroke="#222"
       fill="none"
       inkscape:export-filename="/home/dave/tmp/prova.png"
       inkscape:export-xdpi="90.009315"
       inkscape:export-ydpi="90.009315" />
    <path
       d="m-160,17.809v1115"
       id="path104"
       stroke-width="3.2587"
       stroke="#222"
       fill="none"
       inkscape:export-filename="/home/dave/tmp/prova.png"
       inkscape:export-xdpi="90.009315"
       inkscape:export-ydpi="90.009315" />
    <path
       d="m-120,17.809v1115"
       id="path106"
       stroke-width="3.2587"
       stroke="#222"
       fill="none"
       inkscape:export-filename="/home/dave/tmp/prova.png"
       inkscape:export-xdpi="90.009315"
       inkscape:export-ydpi="90.009315" />
    <path
       d="m-100,17.809v1115"
       id="path108"
       stroke-width="3.2587"
       stroke="#222"
       fill="none"
       inkscape:export-filename="/home/dave/tmp/prova.png"
       inkscape:export-xdpi="90.009315"
       inkscape:export-ydpi="90.009315" />
    <rect
       style="opacity:0.92000002;fill:#ffffff;fill-opacity:1;stroke:none"
       id="rect3127"
       width="1136.1058"
       height="1104.6927"
       x="-65.555695"
       y="22.936081"
       rx="0.0011428189"
       ry="1104.6927"
       inkscape:export-filename="/home/dave/tmp/prova.png"
       inkscape:export-xdpi="90.009315"
       inkscape:export-ydpi="90.009315" />
    <g
       id="g110"
       stroke-width="3"
       stroke="#fff"
       opacity=".5"
       inkscape:export-filename="/home/dave/tmp/prova.png"
       inkscape:export-xdpi="90.009315"
       inkscape:export-ydpi="90.009315">
      <path
         d="m159.6041,26.5523c0,23.7104-19.4472,42.9315-43.4366,42.9315s-43.4366-19.2211-43.4366-42.9315v-2e-006l43.4366,2e-006z"
         transform="translate(6.7891,-15.8329)"
         id="path112"
         stroke-linejoin="round"
         stroke-linecap="round"
         stroke-width="3"
         stroke="#fff"
         fill="#c8c8c8"
         opacity=".647" />
      <path
         d="m159.6041,26.5523c0,23.7104-19.4472,42.9315-43.4366,42.9315s-43.4366-19.2211-43.4366-42.9315v-2e-006l43.4366,2e-006z"
         transform="translate(753.2918,-15.8329)"
         id="path114"
         stroke-linejoin="round"
         stroke-linecap="round"
         stroke-width="3"
         stroke="#fff"
         fill="#c8c8c8"
         opacity=".647" />
      <path
         d="m159.6041,26.5523c0,23.7104-19.4472,42.9315-43.4366,42.9315s-43.4366-19.2211-43.4366-42.9315v-2e-006l43.4366,2e-006z"
         transform="matrix(1,0,0,-1,6.78912,1166.4443)"
         id="path116"
         stroke-linejoin="round"
         stroke-linecap="round"
         stroke-width="3"
         stroke="#fff"
         fill="#c8c8c8"
         opacity=".647" />
      <path
         d="m159.6041,26.5523c0,23.7104-19.4472,42.9315-43.4366,42.9315s-43.4366-19.2211-43.4366-42.9315v-2e-006l43.4366,2e-006z"
         transform="matrix(1,0,0,-1,753.29185,1166.4443)"
         id="path118"
         stroke-linejoin="round"
         stroke-linecap="round"
         stroke-width="3"
         stroke="#fff"
         fill="#c8c8c8"
         opacity=".647" />
    </g>
    <path
       d="m -737.21106,1087.4143 v -26.675 c 10.3115,-3.5362 20.5016,-7.3885 30.5313,-11.5 13.3859,-5.4872 26.5009,-11.4669 39.3438,-17.9375 6.4169,-3.233 12.7587,-6.5928 19.0313,-10.0625 l 2.2188,-1.2188 c 0.8271,-0.4622 1.6442,-0.9397 2.4688,-1.4062 4.6743,-2.6447 9.3168,-5.351 13.9063,-8.125 0.3836,-0.2319 0.7733,-0.4548 1.1563,-0.6875 1.1468,-0.6968 2.2961,-1.4202 3.4375,-2.125 6.077,-3.7534 12.0801,-7.6174 18,-11.59368 1.4872,-0.9991 2.9604,-2.0185 4.4375,-3.0313 1.4729,-1.0099 2.9436,-2.0077 4.4063,-3.0313 1.4681,-1.0273 2.9172,-2.0526 4.375,-3.0937 5.8009,-4.1428 11.523,-8.3942 17.1563,-12.75 1.1755,-0.909 2.3632,-1.8007 3.5313,-2.7187 0.2327,-0.1829 0.4551,-0.3793 0.6875,-0.5626 13.8533,-10.9236 27.1856,-22.4965 39.9375,-34.6562 0.1174,-0.112 0.2264,-0.2316 0.3438,-0.3438 2.5728,-2.4576 5.1304,-4.9317 7.6563,-7.4374 0.5386,-0.5345 1.0885,-1.0573 1.625,-1.5938 0.7224,-0.7224 1.4379,-1.4612 2.1563,-2.1875 1.2484,-1.2623 2.4823,-2.5385 3.7188,-3.8125 1.1696,-1.2052 2.3412,-2.4094 3.5,-3.625 1.2937,-1.3569 2.5948,-2.7238 3.875,-4.0938 1.2205,-1.3061 2.4169,-2.6197 3.625,-3.9374 3.5761,-3.9012 7.1278,-7.8421 10.5938,-11.8438 1.1895,-1.3732 2.3549,-2.7714 3.5312,-4.1562 1.1555,-1.3605 2.2948,-2.7222 3.4375,-4.0938 0.9974,-1.1973 1.9813,-2.3881 2.9688,-3.5938 0.2541,-0.3099 0.4967,-0.627 0.75,-0.9374 0.7362,-0.9028 1.488,-1.7801 2.2187,-2.6876 1.393,-1.7294 2.7522,-3.4724 4.125,-5.2187 0.018,-0.023 0.045,-0.0395 0.062,-0.0625 1.0824,-1.3774 2.1491,-2.7685 3.2188,-4.1562 0.929,-1.2054 1.8618,-2.412 2.7812,-3.625 0.5025,-0.6631 1.0004,-1.3349 1.5,-2 0.3038,-0.4048 0.6035,-0.8133 0.9063,-1.2188 1.0466,-1.4015 2.0911,-2.8071 3.125,-4.2188 0.3607,-0.4926 0.7345,-0.9748 1.0937,-1.4687 1.1371,-1.5633 2.2538,-3.1433 3.375,-4.7187 0.039,-0.0541 0.086,-0.102 0.125,-0.1563 0.9815,-1.3802 1.937,-2.7667 2.9063,-4.1563 1.0231,-1.4668 2.0531,-2.9291 3.0625,-4.4062 1.0059,-1.4718 2.008,-2.9556 3,-4.4375 1.9874,-2.9685 3.9433,-5.9606 5.875,-8.9687 0.081,-0.1267 0.1688,-0.2484 0.25,-0.375 0.883,-1.3772 1.7539,-2.7398 2.625,-4.125 0.9222,-1.4667 1.8412,-2.9306 2.75,-4.4063 0.064,-0.1032 0.1239,-0.2092 0.1875,-0.3125 0.532,-0.8651 1.0662,-1.7254 1.5937,-2.5938 0.3708,-0.61 0.7254,-1.232 1.0938,-1.8437 0.794,-1.3182 1.5917,-2.6435 2.375,-3.9687 1.0348,-1.7502 2.0463,-3.5189 3.0625,-5.2813 0.1097,-0.1903 0.2342,-0.3721 0.3437,-0.5625 0.7829,-1.3615 1.5408,-2.725 2.3125,-4.0938 0.8385,-1.4872 1.6748,-2.9731 2.5,-4.4687 l 0.125,-0.2187 c 0.5559,-1.0087 1.1065,-2.0189 1.6563,-3.0313 1.0783,-1.985 2.1638,-3.9694 3.2187,-5.9687 0.92,-1.7439 1.8168,-3.4955 2.7189,-5.25 l 0.4063,-0.7813 c 0.685,-1.3375 1.3567,-2.6875 2.0312,-4.0313 0.8085,-1.6107 1.6129,-3.2241 2.4063,-4.8437 0.6404,-1.3074 1.2756,-2.6244 1.9062,-3.9375 0.1456,-0.3033 0.2924,-0.6027 0.4375,-0.9062 0.7271,-1.5213 1.4426,-3.0336 2.1563,-4.5626 0.9271,-1.9854 1.8456,-3.9706 2.75,-5.9687 l 0.5625,-1.25 c 0.5099,-1.1339 1.0287,-2.2682 1.5312,-3.4063 0.6601,-1.4947 1.2901,-2.9981 1.9375,-4.5 0.5088,-1.1802 1.0304,-2.3467 1.5313,-3.5312 0.2024,-0.4786 0.3925,-0.9583 0.5937,-1.4375 1.3987,-3.3335 2.7581,-6.6966 4.0938,-10.0625 0.3553,-0.8953 0.7117,-1.7899 1.0625,-2.6875 0.5333,-1.3641 1.0708,-2.7245 1.5937,-4.0937 l 0.2813,-0.75 c 0.3295,-0.8668 0.6433,-1.725 0.9687,-2.5938 0.5569,-1.4875 1.1117,-2.9753 1.6563,-4.4688 0.077,-0.2107 0.1733,-0.4139 0.25,-0.625 0.2143,-0.5898 0.4126,-1.1904 0.625,-1.7812 0.4019,-1.1179 0.7925,-2.2538 1.1875,-3.375 0.4122,-1.1702 0.8454,-2.3263 1.25,-3.5 l 0.75,-2.1875 c 0.092,-0.272 0.189,-0.5403 0.2812,-0.8125 0.4279,-1.2645 0.8308,-2.5439 1.25,-3.8125 0.5151,-1.5597 1.0295,-3.1218 1.5313,-4.6875 l 0.1562,-0.5 c 0.4353,-1.3624 0.8562,-2.7268 1.2813,-4.0938 0.3978,-1.2788 0.7986,-2.5608 1.1875,-3.8437 0.5703,-1.8819 1.1365,-3.766 1.6875,-5.6563 0.361,-1.2381 0.7099,-2.477 1.0625,-3.7187 0.4928,-1.7351 0.9611,-3.4768 1.4375,-5.2187 0.328,-1.1994 0.6798,-2.3912 1,-3.5938 0.055,-0.2074 0.1011,-0.4175 0.1562,-0.625 0.3836,-1.4478 0.7839,-2.8913 1.1563,-4.3438 0.5009,-1.9535 0.9572,-3.9131 1.4375,-5.875 0.2193,-0.8957 0.4411,-1.7901 0.6562,-2.6874 0.3585,-1.4966 0.716,-2.999 1.0625,-4.5 0.3749,-1.624 0.7331,-3.2457 1.0938,-4.875 0.24,-1.0842 0.485,-2.1638 0.7187,-3.25 0.2375,-1.1043 0.4565,-2.2059 0.6875,-3.3126 0.1851,-0.8863 0.3816,-1.7683 0.5625,-2.6562 0.4196,-2.0603 0.8219,-4.119 1.2188,-6.1875 0.048,-0.2486 0.078,-0.5013 0.125,-0.75 0.3264,-1.7132 0.658,-3.4375 0.9687,-5.1563 0.237,-1.3108 0.4596,-2.6236 0.6875,-3.9374 0.038,-0.2189 0.087,-0.4375 0.125,-0.6563 0.1991,-1.1566 0.4018,-2.3097 0.5938,-3.4687 0.2226,-1.3439 0.4431,-2.6843 0.6562,-4.0313 0.4748,-3.0021 0.9169,-6.0134 1.3438,-9.0313 0.087,-0.6134 0.1652,-1.2295 0.25,-1.8437 0.2755,-1.9949 0.5581,-3.9985 0.8125,-6 0.1391,-1.0944 0.2735,-2.1849 0.4062,-3.2813 0.1505,-1.2426 0.2951,-2.4736 0.4375,-3.7187 0.4963,-4.3419 0.9473,-8.691 1.3438,-13.0625 0.02,-0.2178 0.043,-0.4385 0.062,-0.6562 0.012,-0.1357 0.019,-0.2707 0.031,-0.4063 0.1353,-1.5234 0.252,-3.0668 0.375,-4.5937 0.1509,-1.8729 0.3051,-3.7472 0.4375,-5.625 0.1334,-1.8925 0.2604,-3.79 0.375,-5.6876 0.1098,-1.8189 0.2201,-3.6451 0.3125,-5.4687 0.099,-1.9581 0.171,-3.9429 0.25,-5.9063 0.041,-1.0111 0.09,-2.0187 0.125,-3.0312 0.06,-1.7103 0.112,-3.4108 0.1563,-5.125 v -0.2812 c 0.025,-0.9903 0.042,-1.9772 0.062,-2.9688 0.038,-1.9133 0.074,-3.832 0.094,-5.75 0.019,-1.9119 0.031,-3.8336 0.031,-5.75 0,-1.9164 -0.012,-3.8352 -0.031,-5.75 -0.019,-1.918 -0.055,-3.8367 -0.094,-5.75 -0.022,-1.083 -0.035,-2.1686 -0.062,-3.25 -0.044,-1.7142 -0.097,-3.4147 -0.1563,-5.125 -0.021,-0.5939 -0.04,-1.188 -0.062,-1.7812 -0.088,-2.3199 -0.1961,-4.6564 -0.3125,-6.9688 v -0.1875 c -0.093,-1.8328 -0.2021,-3.6406 -0.3125,-5.4687 -0.1146,-1.8976 -0.2416,-3.7952 -0.375,-5.6876 -0.1324,-1.8778 -0.2866,-3.7521 -0.4375,-5.625 -0.1344,-1.6685 -0.2572,-3.3355 -0.4062,-5 -0.02,-0.2177 -0.043,-0.4384 -0.062,-0.6562 -0.3965,-4.3715 -0.8475,-8.7206 -1.3438,-13.0625 -0.1424,-1.245 -0.287,-2.4763 -0.4375,-3.7187 -0.1328,-1.0973 -0.267,-2.186 -0.4062,-3.2813 -0.2544,-2.0015 -0.537,-4.0051 -0.8125,-6 -0.046,-0.3322 -0.079,-0.668 -0.125,-1 -0.039,-0.2806 -0.085,-0.5633 -0.125,-0.8437 -0.4269,-3.0179 -0.869,-6.0292 -1.3438,-9.0313 -0.2125,-1.3433 -0.4342,-2.6911 -0.6562,-4.0313 -0.28,-1.6903 -0.5799,-3.3773 -0.875,-5.0624 -0.1679,-0.959 -0.3272,-1.9179 -0.5,-2.875 -0.3182,-1.7628 -0.6653,-3.5243 -1,-5.2813 -0.047,-0.2487 -0.077,-0.5014 -0.125,-0.75 -0.3969,-2.0685 -0.7992,-4.1272 -1.2188,-6.1875 -0.1809,-0.8878 -0.3774,-1.7699 -0.5625,-2.6562 -0.231,-1.1067 -0.45,-2.2083 -0.6875,-3.3126 -0.2337,-1.0862 -0.4787,-2.1658 -0.7187,-3.25 -0.097,-0.4362 -0.1837,-0.8766 -0.2813,-1.3124 -0.2664,-1.1897 -0.5385,-2.3757 -0.8125,-3.5626 -0.3465,-1.501 -0.704,-3.0034 -1.0625,-4.5 -0.1798,-0.7503 -0.3484,-1.5007 -0.5312,-2.25 -0.036,-0.1466 -0.089,-0.2909 -0.125,-0.4374 -0.29,-1.1847 -0.5774,-2.3809 -0.875,-3.5626 -0.194,-0.7699 -0.3654,-1.5438 -0.5625,-2.3124 -0.3724,-1.4525 -0.7727,-2.896 -1.1563,-4.3438 -0.055,-0.2075 -0.101,-0.4176 -0.1562,-0.625 -0.3202,-1.2025 -0.672,-2.3943 -1,-3.5938 -0.139,-0.5082 -0.2658,-1.0234 -0.4063,-1.5312 -0.3404,-1.2312 -0.6826,-2.4598 -1.0312,-3.6875 -0.3526,-1.2417 -0.7015,-2.4806 -1.0625,-3.7187 -0.551,-1.8902 -1.1172,-3.7745 -1.6875,-5.6563 -0.3889,-1.2829 -0.7897,-2.5648 -1.1875,-3.8437 -0.4762,-1.5312 -0.9485,-3.0683 -1.4375,-4.5938 -0.5018,-1.5656 -1.0162,-3.1279 -1.5313,-4.6875 -0.5094,-1.5421 -1.0088,-3.0889 -1.5312,-4.625 -0.3546,-1.0427 -0.7332,-2.0851 -1.0938,-3.125 -0.2931,-0.8451 -0.5781,-1.688 -0.875,-2.5313 -0.01,-0.0219 -0.024,-0.0415 -0.031,-0.0624 -0.2711,-0.7695 -0.5382,-1.5446 -0.8125,-2.3126 -0.4109,-1.15 -0.8318,-2.2909 -1.25,-3.4374 -0.079,-0.216 -0.1397,-0.4404 -0.2188,-0.6563 -0.4671,-1.276 -0.9614,-2.5409 -1.4375,-3.8125 -0.4175,-1.115 -0.8257,-2.2322 -1.25,-3.3438 -0.5229,-1.3692 -1.0604,-2.7296 -1.5937,-4.0937 -0.1993,-0.5099 -0.393,-1.0221 -0.5938,-1.5313 -0.1521,-0.3858 -0.3157,-0.7708 -0.4687,-1.1562 -1.2382,-3.12 -2.4889,-6.2203 -3.7813,-9.3125 -0.1924,-0.4603 -0.4001,-0.9153 -0.5937,-1.375 -0.109,-0.2589 -0.2031,-0.5224 -0.3125,-0.7813 -0.5046,-1.1932 -1.0187,-2.3735 -1.5313,-3.5624 -0.6458,-1.4979 -1.279,-3.0091 -1.9375,-4.5 -0.5025,-1.138 -1.0213,-2.2723 -1.5312,-3.4063 l -0.5625,-1.25 c -0.8563,-1.8919 -1.7172,-3.7755 -2.5938,-5.6563 -0.049,-0.1053 -0.107,-0.2071 -0.1562,-0.3124 -0.8548,-1.8309 -1.7199,-3.6488 -2.5938,-5.4688 -0.4023,-0.8377 -0.8124,-1.6646 -1.2187,-2.5 -0.3142,-0.646 -0.6209,-1.2929 -0.9375,-1.9375 -0.3785,-0.7708 -0.743,-1.5437 -1.125,-2.3125 -0.3368,-0.6779 -0.6917,-1.3549 -1.0313,-2.0312 -0.6744,-1.3437 -1.3463,-2.6939 -2.0312,-4.0313 l -0.4063,-0.7813 c -0.1383,-0.2687 -0.2676,-0.5439 -0.4062,-0.8124 -0.6846,-1.3262 -1.3679,-2.6489 -2.0627,-3.9688 -0.082,-0.1563 -0.1676,-0.3124 -0.25,-0.4688 -1.0549,-1.9994 -2.1404,-3.9837 -3.2187,-5.9687 -0.5892,-1.0847 -1.1851,-2.1697 -1.7813,-3.25 -0.8252,-1.4955 -1.6615,-2.9817 -2.5,-4.4687 -0.7704,-1.3666 -1.531,-2.7345 -2.3125,-4.0938 -0.1097,-0.1908 -0.2338,-0.3718 -0.3437,-0.5625 -0.5336,-0.9255 -1.0551,-1.8591 -1.5938,-2.7813 -0.3646,-0.6239 -0.7267,-1.2523 -1.0937,-1.875 l -0.375,-0.625 c -1.0148,-1.7166 -2.0299,-3.42 -3.0625,-5.125 -0.216,-0.3566 -0.4395,-0.7063 -0.6563,-1.0624 -0.9397,-1.5438 -1.8896,-3.0912 -2.8437,-4.625 -0.2792,-0.4487 -0.5635,-0.896 -0.8438,-1.3438 -0.63,-1.0063 -1.2701,-1.998 -1.9062,-3 -0.4401,-0.6931 -0.8695,-1.4026 -1.3125,-2.0938 -0.081,-0.1269 -0.1685,-0.2481 -0.25,-0.375 -1.8816,-2.9299 -3.7844,-5.8263 -5.7188,-8.7187 l -0.5625,-0.8437 -1.4375,-2.125 c -0.7692,-1.1344 -1.5352,-2.2779 -2.3125,-3.4063 -0.3096,-0.4494 -0.6266,-0.8954 -0.9375,-1.3437 -0.3186,-0.4597 -0.6488,-0.9165 -0.9687,-1.375 -1.0031,-1.4379 -2.0152,-2.8846 -3.0313,-4.3126 -1.1212,-1.5754 -2.2379,-3.1554 -3.375,-4.7187 -0.3592,-0.4938 -0.733,-0.9761 -1.0937,-1.4687 -1.0339,-1.4118 -2.0784,-2.8173 -3.125,-4.2188 l -0.9063,-1.2188 c -0.4996,-0.6651 -0.9975,-1.3369 -1.5,-2 -0.6234,-0.8225 -1.2471,-1.6497 -1.875,-2.4687 -0.2976,-0.3882 -0.6075,-0.7688 -0.9062,-1.1563 -1.07,-1.3883 -2.136,-2.7782 -3.2188,-4.1562 l -0.062,-0.0625 c -0.5095,-0.6482 -1.0189,-1.2916 -1.5312,-1.9375 -0.5949,-0.7499 -1.1827,-1.5032 -1.7813,-2.25 -0.269,-0.3356 -0.5428,-0.665 -0.8125,-1 -1.4101,-1.7509 -2.8193,-3.4851 -4.25,-5.2188 l -1.6875,-2.0312 c -1.1436,-1.3727 -2.281,-2.7322 -3.4375,-4.0938 l -1.9687,-2.3124 c -0.5002,-0.5827 -0.9973,-1.1697 -1.5,-1.75 l -0.0625,-0.0626 c -1.1459,-1.3227 -2.3108,-2.6256 -3.4688,-3.9374 -1.1801,-1.3372 -2.3699,-2.6744 -3.5625,-4 -1.0163,-1.1299 -2.0371,-2.2537 -3.0625,-3.375 -0.9142,-0.9999 -1.8286,-2.007 -2.75,-3 l -0.7188,-0.7813 c -1.4328,-1.5385 -2.8939,-3.0715 -4.3438,-4.5937 -0.0659,-0.069 -0.1215,-0.1496 -0.1875,-0.2188 -1.1611,-1.2179 -2.328,-2.4176 -3.5,-3.625 -0.9819,-1.0117 -1.9481,-2.027 -2.9375,-3.0312 l -0.7813,-0.7813 c -0.7171,-0.7251 -1.4351,-1.435 -2.1563,-2.1563 -0.7336,-0.7336 -1.4811,-1.458 -2.2188,-2.1874 -2.3328,-2.3075 -4.6896,-4.6087 -7.0625,-6.875 -0.1172,-0.1119 -0.2266,-0.232 -0.3438,-0.3438 -1.17,-1.1155 -2.3518,-2.2071 -3.5313,-3.3125 -1.1034,-1.034 -2.2008,-2.0686 -3.3125,-3.0937 l -1.2188,-1.125 c -0.9353,-0.8574 -1.8714,-1.7114 -2.8125,-2.5626 -0.4655,-0.4209 -0.9394,-0.8305 -1.4063,-1.25 -0.8467,-0.7604 -1.68,-1.5257 -2.5313,-2.2812 -0.1826,-0.162 -0.3797,-0.3069 -0.5625,-0.4688 -1.2906,-1.1421 -2.5738,-2.307 -3.875,-3.4374 l -0.1563,-0.125 -0.4688,-0.4063 c -1.1778,-1.0202 -2.3762,-2.0206 -3.5625,-3.0313 -1.0506,-0.8948 -2.0989,-1.8003 -3.1563,-2.6874 -0.8222,-0.6901 -1.6425,-1.377 -2.4688,-2.062603 -0.3632,-0.3011 -0.7299,-0.6058 -1.0938,-0.9062 -0.4866,-0.4015 -0.9809,-0.7876 -1.4688,-1.1875 -2.361,-1.9353 -4.732,-3.8528 -7.125,-5.75 -0.4009,-0.3178 -0.7857,-0.652 -1.1875,-0.9687 -0.227,-0.1791 -0.4603,-0.3527 -0.6875,-0.5313 -1.4001,-1.1003 -2.8079,-2.194 -4.2188,-3.2813 l -1.0938,-0.8437 c -0.8192,-0.6281 -1.6461,-1.2514 -2.4688,-1.875 -0.9621,-0.7292 -1.9081,-1.4644 -2.875,-2.1875 -0.4646,-0.3475 -0.9406,-0.6852 -1.4063,-1.0312 -1.3357,-0.9927 -2.6864,-1.9879 -4.0313,-2.9688 -0.091,-0.066 -0.1902,-0.1212 -0.2813,-0.1875 -1.0787,-0.7858 -2.1655,-1.5656 -3.25,-2.3437 -0.4854,-0.3484 -0.9509,-0.7156 -1.4375,-1.0626 -0.9632,-0.6864 -1.9386,-1.3506 -2.9063,-2.0312 -0.4204,-0.2957 -0.8287,-0.6118 -1.25,-0.9062 -1.4065,-0.9835 -2.8339,-1.9354 -4.25,-2.9063 -1.4782,-1.0135 -2.9492,-2.0315 -4.4375,-3.0313 -2.9626,-1.9897 -5.9351,-3.9406 -8.9375,-5.875 -1.5022,-0.9677 -3.0191,-1.9211 -4.5313,-2.875 -1.3085,-0.8254 -2.6217,-1.6538 -3.9375,-2.4687 l -1.25,-0.7813 c -0.9265,-0.5704 -1.8512,-1.1536 -2.7813,-1.7187 -1.9101,-1.1607 -3.8249,-2.2991 -5.75,-3.4375 l -0.0312,-0.031 c -3.0668,-1.8133 -6.1772,-3.5878 -9.2813,-5.3438 -0.8217,-0.4648 -1.6445,-0.9456 -2.4688,-1.4062 -0.737,-0.412 -1.4796,-0.8101 -2.2188,-1.2188 -3.1422,-1.738 -6.2899,-3.4461 -9.4688,-5.125 -2.8461,-1.5032 -5.7188,-2.9821 -8.5938,-4.4375 -0.3248,-0.1644 -0.6437,-0.3362 -0.9688,-0.5 -0.9038,-0.4553 -1.8121,-0.8932 -2.7188,-1.3437 -1.3508,-0.6715 -2.7056,-1.3394 -4.0625,-2 l -2.0313,-1 c -0.2905,-0.14 -0.5842,-0.2668 -0.875,-0.4063 -0.9938,-0.4768 -2.0029,-0.9351 -3,-1.4063 -0.7334,-0.3463 -1.4524,-0.7191 -2.1875,-1.0624 l -0.0937,-0.031 c -1.4961,-0.6985 -2.9966,-1.3768 -4.5,-2.0625 -4.9182,-2.2433 -9.8816,-4.4274 -14.875,-6.5312 -1.6641,-0.7012 -3.3276,-1.4083 -5,-2.0938 -1.6724,-0.6855 -3.35,-1.3612 -5.0313,-2.0312 l -1.875,-0.7500002 c -1.0576,-0.4172 -2.1268,-0.808 -3.1875,-1.2188 -1.6822,-0.6514 -3.3725,-1.3019 -5.0625,-1.9375 -1.5149,-0.5697 -3.0414,-1.1618 -4.5625,-1.7187 -1.8796,-0.6883 -3.7672,-1.3628 -5.6563,-2.0313 -1.1824,-0.4185 -2.3765,-0.808 -3.5625,-1.2187 -0.532,-0.1843 -1.0611,-0.3798 -1.5938,-0.5626 V -24.643783 H -1100.7429 V 1.0210168 c -1.4297,0.4905 -2.8569,0.9985 -4.2813,1.5 -2.0014,0.7048 -4.0091,1.3982 -6,2.125 -0.1576,0.058 -0.3114,0.1298 -0.4688,0.1876 -1.5452,0.5655 -3.0863,1.1398 -4.625,1.7187 -2.7314,1.0276 -5.4454,2.0873 -8.1563,3.1563 -2.1184,0.8351002 -4.2381,1.6709002 -6.3438,2.5312002 -1.8898,0.772 -3.7769,1.5517 -5.6563,2.3438 -2.012,0.8478 -4.0001,1.7231 -6,2.5937 -0.2987,0.1301 -0.6078,0.2444 -0.9063,0.375 -2.0807,0.9102 -4.1513,1.8465 -6.2188,2.7813 -3.8655,1.7474 -7.7131,3.5117 -11.5313,5.3437 -0.2724,0.1307 -0.5404,0.275 -0.8125,0.4063 -4.0807,1.9661 -8.1313,3.9697 -12.1563,6.0312 l -1.5,0.7812 c -1.5005,0.7743 -3.0075,1.5563 -4.5,2.3438 -0.095,0.05 -0.1865,0.1062 -0.2813,0.1562 -0.2389,0.1263 -0.4799,0.2486 -0.7188,0.375 -1.6645,0.8826 -3.3142,1.7889 -4.9688,2.6876 -1.986,1.0785 -3.9661,2.148 -5.9375,3.25 -1.9714,1.102 -3.9223,2.2211 -5.875,3.3437 -1.9527,1.1226 -3.904,2.2597 -5.8438,3.4063 -0.028,0.016 -0.066,0.015 -0.094,0.031 -1.5464,0.9144 -3.0883,1.8525 -4.625,2.7812 l -2.1563,1.3126 c -1.5669,0.9567 -3.1308,1.9345 -4.6875,2.9062 -3.7885,2.3649 -7.5541,4.7664 -11.2812,7.2188 -1.4945,0.983 -2.9845,1.9717 -4.4688,2.9687 l -1.2188,0.8125 c -1.8622,1.2579 -3.7164,2.5329 -5.5624,3.8125 -1.846,1.2796 -3.6683,2.5725 -5.5,3.875 -1.8317,1.3025 -3.6539,2.6139 -5.4688,3.9375 -1.827,1.3324 -3.6586,2.6774 -5.4688,4.0312 -3.5778,2.6762 -7.1139,5.3974 -10.625,8.1563 -0.2387,0.1876 -0.4802,0.3745 -0.7187,0.5625 -1.3986,1.1027 -2.7997,2.1968 -4.1875,3.3125 -1.8739,1.5063 -3.7397,3.0327 -5.5938,4.5625 -1.7297,1.427403 -3.444,2.864903 -5.1562,4.312503 -0.5313,0.4492 -1.0642,0.8928 -1.5938,1.3437 -2.8835,2.4566 -5.7296,4.9552 -8.5624,7.4688 -1.8805,1.6686 -3.7673,3.338 -5.625,5.0312 -1.4484,1.3203 -2.878,2.665 -4.3126,4 -1.6425,1.529 -3.2821,3.0454 -4.9062,4.5938 -0.1229,0.1172 -0.2522,0.2265 -0.375,0.3438 -0.911,0.8699 -1.8135,1.7489 -2.7188,2.625 -0.5809,0.5623 -1.1714,1.1227 -1.75,1.6874 -1.0699,1.0447 -2.1258,2.1031 -3.1874,3.1563 -0.5316,0.5272 -1.0331,1.0646 -1.5626,1.5937 -1.3543,1.3543 -2.7219,2.6945 -4.0624,4.0626 l -0.6876,0.6874 c -1.5645,1.6024 -3.1107,3.223 -4.6562,4.8438 -0.071,0.075 -0.1475,0.144 -0.2188,0.2188 -1.2295,1.2908 -2.4388,2.6036 -3.6562,3.9062 -1.2146,1.2997 -2.4227,2.5951 -3.625,3.9062 -0.498,0.5431 -1.0041,1.08 -1.5,1.625 l -0.3125,0.3438 c -1.3922,1.5327 -2.7809,3.0769 -4.1563,4.625 -0.063,0.072 -0.124,0.1472 -0.1874,0.2188 -1.5164,1.7085 -3.0046,3.4291 -4.5,5.1562 -1.165,1.3453 -2.3165,2.6748 -3.4688,4.0312 -1.4511,1.7081 -2.8816,3.4307 -4.3125,5.1563 -0.5142,0.6201 -1.0197,1.2526 -1.5313,1.875 -0.3282,0.3994 -0.6728,0.7872 -1,1.1875 -0.8461,1.0355 -1.6922,2.0834 -2.5312,3.125 -0.279,0.3464 -0.5655,0.6843 -0.8438,1.0312 -2.6744,3.3367 -5.307,6.6953 -7.9062,10.0938 -1.2232,1.5994 -2.4187,3.1996 -3.625,4.8125 -0.4999,0.6684 -1.003,1.3293 -1.5,2 -0.8394,1.1327 -1.6689,2.2669 -2.5,3.4063 -2.324,3.186 -4.6171,6.3885 -6.875,9.625 -0.3167,0.4537 -0.6221,0.92 -0.9375,1.375 -1.2785,1.8442 -2.5556,3.7023 -3.8125,5.5624 -1.0261,1.5188 -2.051,3.0332 -3.0625,4.5626 -0.2283,0.3451 -0.4599,0.6855 -0.6875,1.0312 -0.1703,0.2586 -0.3302,0.5224 -0.5,0.7812 l -0.5,0.7813 c -0.8914,1.3638 -1.7766,2.7219 -2.6562,4.0937 -1.8509,2.8864 -3.6699,5.7653 -5.4688,8.6876 -0.569,0.9241 -1.1237,1.8535 -1.6875,2.7812 -1.1634,1.9146 -2.3277,3.8518 -3.4687,5.7812 -0.131,0.2214 -0.2758,0.4349 -0.4063,0.6563 -0.9088,1.5418 -1.7931,3.0738 -2.6875,4.625 -0.1071,0.1858 -0.2056,0.3766 -0.3125,0.5625 -0.7856,1.366 -1.5694,2.7205 -2.3437,4.0938 -0.1995,0.3537 -0.3951,0.7083 -0.5938,1.0624 l -0.4062,0.7188 c -0.5449,0.9744 -1.086,1.9595 -1.625,2.9375 -0.029,0.053 -0.065,0.103 -0.094,0.1563 -0.8335,1.5131 -1.6489,3.0409 -2.4688,4.5624 -1.1901,2.209 -2.37,4.4298 -3.5312,6.6563 -0.4989,0.9566 -1.0064,1.9152 -1.4999,2.875 -0.1284,0.2495 -0.2472,0.5003 -0.375,0.75 -1.0337,2.0177 -2.0528,4.0307 -3.0625,6.0625 -0.4651,0.9357 -0.9463,1.8738 -1.4064,2.8125 -0.4179,0.8533 -0.8358,1.7068 -1.25,2.5625 -0.2216,0.4585 -0.4358,0.9159 -0.6561,1.375 -0.5805,1.2081 -1.1469,2.4121 -1.7189,3.625 -1.6094,3.4141 -3.1766,6.861 -4.7186,10.3125 -0.2572,0.5753 -0.5261,1.1425 -0.7814,1.7187 -0.3277,0.7409 -0.6437,1.4762 -0.9686,2.2188 -0.9128,2.0857 -1.7998,4.1825 -2.6875,6.2812 -0.8318,1.9662 -1.6591,3.9288 -2.4689,5.9063 -0.051,0.1256 -0.1048,0.2493 -0.1561,0.375 -0.021,0.052 -0.01,0.1043 -0.031,0.1563 -1.3666,3.3469 -2.6969,6.7148 -4.0001,10.0937 -0.5747,1.4901 -1.1565,2.9726 -1.7188,4.4687 -0.5519,1.4682 -1.0854,2.9324 -1.625,4.4063 -0.5029,1.3726 -1.0079,2.7474 -1.5,4.125 -0.2799,0.7832 -0.5672,1.559 -0.8438,2.3437 -0.6014,1.7077 -1.1643,3.4098 -1.75,5.125 -0.1533,0.4498 -0.3475,0.8937 -0.5,1.3438 -0.1525,0.4501 -0.2535,0.9196 -0.4062,1.375 -0.5771,1.7196 -1.1578,3.4294 -1.7188,5.1562 -0.6175,1.9024 -1.2144,3.8076 -1.8124,5.7188 -0.088,0.283 -0.2242,0.5604 -0.3126,0.8438 -0.1164,0.3742 -0.1968,0.7503 -0.3124,1.125 -0.5603,1.8148 -1.145,3.646 -1.6876,5.4687 -0.6559,2.205 -1.2767,4.4087 -1.9062,6.625 -0.3489,1.2277 -0.6907,2.4563 -1.0312,3.6875 -0.2728,0.9865 -0.5448,1.98 -0.8126,2.9688 -0.211,0.78 -0.417,1.5622 -0.625,2.3437 -0.3851,1.4485 -0.7823,2.8908 -1.1562,4.3437 l -0.25,0.9688 c -0.4914,1.9238 -0.9973,3.8496 -1.4688,5.7812 -0.1827,0.7493 -0.3201,1.4998 -0.5,2.25 -0.3585,1.4966 -0.7159,2.999 -1.0624,4.5 -0.274,1.1868 -0.5461,2.3728 -0.8126,3.5626 -0.2398,1.0711 -0.5161,2.1453 -0.75,3.2187 -0.1586,0.7288 -0.2814,1.4576 -0.4374,2.1875 -0.328,1.5354 -0.6536,3.085 -0.9688,4.625 -0.055,0.2691 -0.1014,0.5432 -0.1562,0.8125 -0.4101,2.0191 -0.7992,4.0356 -1.1876,6.0625 -0.307,1.6025 -0.6128,3.2052 -0.9062,4.8125 -0.125,0.6843 -0.2527,1.3773 -0.375,2.0625 -0.2045,1.1441 -0.3963,2.291 -0.5938,3.4375 -0.1975,1.1465 -0.4331,2.3126 -0.625,3.4687 -0.01,0.062 0.01,0.125 0,0.1876 -0.372,2.2496 -0.7171,4.4912 -1.0624,6.75 -0.03,0.1977 -0.095,0.3959 -0.125,0.5937 -0.3219,2.1208 -0.6396,4.2465 -0.9376,6.375 -0.046,0.332 -0.079,0.6678 -0.125,1 -0.2753,1.9947 -0.5581,3.9986 -0.8124,6 -0.1394,1.0953 -0.2732,2.184 -0.4063,3.2813 -0.1495,1.2354 -0.2959,2.4807 -0.4375,3.7187 v 0.125 c -0.4917,4.3077 -0.9501,8.6007 -1.3438,12.9375 -0.032,0.3523 -0.062,0.71 -0.094,1.0625 -0.1358,1.5292 -0.2514,3.0611 -0.375,4.5937 -0.1509,1.8729 -0.3051,3.7472 -0.4375,5.625 -0.1333,1.8925 -0.2603,3.79 -0.375,5.6876 -0.1104,1.8279 -0.2194,3.636 -0.3125,5.4687 v 0.1875 c -0.1162,2.3122 -0.2242,4.6491 -0.3125,6.9688 -0.023,0.5932 -0.011,1.1873 -0.031,1.7812 -0.06,1.7102 -0.1432,3.4109 -0.1876,5.125 v 0.2812 c -0.025,0.9878 -0.012,1.9799 -0.031,2.9688 -0.039,1.9133 -0.075,3.832 -0.094,5.75 -0.019,1.9146 -0.031,3.8308 -0.031,5.75 0,1.9192 0.012,3.8354 0.031,5.75 0.019,1.918 0.055,3.8367 0.094,5.75 0.02,0.9915 0.01,1.9785 0.031,2.9688 v 0.2812 c 0.044,1.7141 0.1283,3.4148 0.1876,5.125 0.021,0.5959 0.01,1.1858 0.031,1.7812 0.016,0.4183 0.046,0.8321 0.062,1.25 0.079,1.9633 0.1508,3.9484 0.25,5.9063 0.093,1.8236 0.2028,3.6498 0.3125,5.4687 0.1147,1.8976 0.2417,3.7951 0.375,5.6876 0.1324,1.8778 0.2866,3.7521 0.4375,5.625 0.1232,1.5268 0.2399,3.0704 0.375,4.5937 0.032,0.355 0.062,0.7077 0.094,1.0625 0.3937,4.3367 0.8521,8.6299 1.3438,12.9375 v 0.125 c 0.1425,1.2451 0.2871,2.4762 0.4375,3.7187 0.1329,1.0964 0.2669,2.187 0.4063,3.2813 0.2543,2.0014 0.5371,4.0053 0.8124,6 0.046,0.3317 0.079,0.6685 0.125,1 0.04,0.2817 0.085,0.5623 0.125,0.8437 0.01,0.042 0.025,0.0831 0.031,0.125 0.2556,1.8032 0.5084,3.6088 0.7813,5.4063 0.03,0.1989 0.063,0.395 0.094,0.5937 0.3453,2.2587 0.6904,4.5004 1.0625,6.75 l 0.031,0.1876 c 0.1923,1.159 0.3946,2.3121 0.5938,3.4687 0.1969,1.1426 0.3901,2.2973 0.5938,3.4375 0.123,0.6889 0.2493,1.3745 0.375,2.0625 0.2943,1.6131 0.5982,3.2042 0.9062,4.8125 0.04,0.2082 0.085,0.4169 0.125,0.625 0.4026,2.0876 0.793,4.1707 1.2188,6.25 0.3163,1.5464 0.6396,3.0833 0.9687,4.625 0.1558,0.7292 0.3102,1.4594 0.4687,2.1875 0.2346,1.0761 0.4785,2.1451 0.7188,3.2187 0.2671,1.1919 0.538,2.3735 0.8125,3.5626 0.3467,1.501 0.7039,3.0034 1.0625,4.5 0.1792,0.7469 0.3494,1.5041 0.5312,2.25 0.036,0.1467 0.089,0.2907 0.125,0.4374 0.2915,1.1897 0.5763,2.3758 0.875,3.5626 0.1491,0.5907 0.2868,1.1912 0.4376,1.7812 l 0.25,0.9688 c 0.3737,1.4526 0.7711,2.8955 1.1562,4.3437 0.2077,0.7805 0.4141,1.5647 0.625,2.3437 0.2687,0.9919 0.5389,1.9791 0.8125,2.9688 0.3408,1.2321 0.6822,2.4588 1.0313,3.6875 0.6295,2.2163 1.2815,4.42 1.9374,6.625 0.022,0.073 0.041,0.1461 0.063,0.2187 0.6335,2.1265 1.2795,4.2594 1.9374,6.375 0.088,0.283 0.1929,0.561 0.2813,0.8438 0.598,1.9112 1.1949,3.8163 1.8125,5.7188 0.5609,1.7269 1.1417,3.4366 1.7188,5.1562 0.1533,0.4568 0.283,0.9187 0.4374,1.375 0.153,0.4513 0.315,0.8929 0.4688,1.3438 0.5832,1.7076 1.1511,3.4246 1.75,5.125 0,0.012 0.027,0.0192 0.031,0.0312 0.2721,0.7723 0.5372,1.5418 0.8126,2.3125 0.493,1.38 0.9963,2.75 1.5,4.125 0.4625,1.2633 0.9347,2.5222 1.4062,3.7813 0.6383,1.7042 1.2833,3.3974 1.9375,5.0937 0.5022,1.302 0.9884,2.6089 1.5001,3.9063 0.837,2.1221 1.7003,4.2342 2.5625,6.3437 0.6599,1.6148 1.3253,3.2366 2,4.8437 0.6987,1.6654 1.4104,3.343 2.125,5 0.7125,1.6528 1.4283,3.293 2.1561,4.9376 2.6998,6.0965 5.4979,12.1451 8.4064,18.125 0.4503,0.9261 0.9195,1.8578 1.375,2.7812 0.2519,0.5109 0.4964,1.0213 0.75,1.5312 0.3287,0.6616 0.6686,1.3088 1,1.9688 l 0.125,0.25 c 0.6422,1.2779 1.2855,2.5402 1.9375,3.8125 1.7646,3.445 3.5726,6.8781 5.4061,10.2813 0.8199,1.5216 1.6353,3.0494 2.4688,4.5624 0.029,0.053 0.064,0.1032 0.094,0.1563 0.5407,0.9808 1.0784,1.9603 1.625,2.9375 0.3282,0.5872 0.6696,1.1641 1,1.75 l 0.9062,1.5938 c 0.4798,0.8443 0.9535,1.6896 1.4375,2.5312 0.1066,0.1854 0.2057,0.3772 0.3125,0.5625 0.8906,1.5445 1.7826,3.0898 2.6875,4.625 0.1303,0.2211 0.2756,0.4352 0.4063,0.6563 1.0305,1.7429 2.0761,3.4879 3.125,5.2187 1.2857,2.1214 2.5618,4.2409 3.875,6.3437 l 0.9687,1.5313 c 0.9515,1.5129 1.9095,3.028 2.875,4.5313 0.8025,1.2494 1.6254,2.4761 2.4375,3.7187 0.3381,0.5173 0.6603,1.0464 1,1.5625 2.3899,3.6304 4.8411,7.2416 7.3125,10.8125 0.085,0.1232 0.1646,0.2519 0.25,0.375 1.2799,1.8461 2.5736,3.6701 3.875,5.5 2.8641,4.0266 5.783,8.0222 8.75,11.9687 0.2901,0.386 0.5839,0.7711 0.875,1.1563 3.0445,4.0281 6.1313,8.0267 9.2813,11.9687 l 0.5624,0.6876 c 0.9889,1.2336 2.001,2.4625 3,3.6874 0.2722,0.3338 0.5395,0.667 0.8126,1 0.6928,0.8457 1.396,1.6898 2.0937,2.5313 2.0272,2.445 4.0885,4.8715 6.1563,7.2813 1.7047,1.9866 3.3928,3.9752 5.125,5.9374 2.3563,2.6701 4.75,5.3132 7.1562,7.9376 0.968,1.0556 1.9304,2.108 2.9062,3.1562 l 0.7188,0.75 c 2.4292,2.5994 4.866,5.1659 7.3438,7.7188 1.2389,1.2764 2.4989,2.5478 3.75,3.8124 1.0225,1.0337 2.0321,2.0681 3.0624,3.0938 l 0.6876,0.6875 c 1.0591,1.0507 2.12,2.1138 3.1874,3.1563 0.2057,0.2006 0.4192,0.3933 0.625,0.5937 2.0649,2.0097 4.1546,3.9908 6.25,5.9687 0.7904,0.7461 1.5806,1.5087 2.375,2.25 l 0.5,0.4688 c 1.3259,1.2341 2.6625,2.4349 4,3.6562 0.3147,0.2873 0.6221,0.5885 0.9376,0.875 l 1.5312,1.375 c 1.1564,1.0435 2.3035,2.0914 3.4688,3.125 0.1652,0.1468 0.3343,0.2909 0.5,0.4376 1.5193,1.3447 3.0286,2.6714 4.5624,4 1.1629,1.007 2.3291,2.0022 3.5,2.9999 0.5359,0.4565 1.0562,0.9205 1.5938,1.375 0.819,0.6924 1.6457,1.3747 2.4688,2.0625 1.368,1.1434 2.7457,2.2758 4.125,3.4063 1.2563,1.0298 2.5157,2.0746 3.7812,3.0937 0.1214,0.098 0.2535,0.1835 0.375,0.2813 1.3878,1.1156 2.7889,2.2097 4.1875,3.3125 1.3924,1.0978 2.7845,2.1964 4.1875,3.2812 l 1.8438,1.4375 c 0.7989,0.6123 1.6039,1.2043 2.4062,1.8125 1.4242,1.0797 2.8465,2.1524 4.2812,3.2188 1.3589,1.0098 2.7256,2.0335 4.0938,3.0312 l 0.2188,0.1563 c 1.7441,1.2707 3.4905,2.5302 5.25,3.7813 1.1443,0.8136 2.2868,1.6009 3.4374,2.4062 l 2.0626,1.4375 c 1.4402,0.9985 2.8935,1.9836 4.3437,2.9687 0.4085,0.2776 0.8095,0.5673 1.2187,0.8438 l 1.2188,0.8125 c 1.4627,0.9825 2.9339,1.9685 4.4062,2.9375 l 0.063,0.031 1.75,1.15628 c 1.1844,0.7731 2.3718,1.5481 3.5625,2.3125 0.095,0.061 0.1865,0.1268 0.2813,0.1875 1.2886,0.826 2.5792,1.6217 3.875,2.4375 0.6048,0.3807 1.2061,0.7778 1.8125,1.1562 1.1435,0.7138 2.2885,1.4193 3.4375,2.125 1.1355,0.6975 2.2655,1.373 3.4063,2.0626 3.0572,1.8479 6.1549,3.6778 9.25,5.4687 0.4402,0.2547 0.8715,0.5276 1.3125,0.7813 1.9546,1.1238 3.9057,2.2117 5.875,3.3124 1.6619,0.929 3.3278,1.8377 5,2.75 0.3158,0.1723 0.6213,0.3596 0.9375,0.5313 l 0.9375,0.5 c 1.6716,0.9038 3.3495,1.8003 5.0313,2.6875 1.4987,0.7907 2.9933,1.5661 4.5,2.3438 l 1.5,0.7812 c 1.0973,0.562 2.211,1.1012 3.3125,1.6562 1.6004,0.8064 3.2034,1.6149 4.8125,2.4063 1.6091,0.7914 3.2224,1.5969 4.8438,2.375 1.248,0.5987 2.497,1.1914 3.75,1.7813 l 1.3125,0.625 0.2813,0.125 c 1.472,0.6873 2.9585,1.3563 4.4375,2.0312 1.6421,0.7493 3.287,1.4849 4.9375,2.2188 l 3.0313,1.3437 c 0.6878,0.3008 1.3733,0.6081 2.0625,0.9063 1.6104,0.6966 3.2256,1.3805 4.8438,2.0624 0.8302,0.3499 1.6678,0.6853 2.5,1.0313 2.8121,1.1691 5.6338,2.3444 8.4688,3.4687 l 1.0313,0.4063 c 1.0274,0.4051 2.0635,0.7883 3.0938,1.1875 1.6849,0.6528 3.3697,1.3006 5.0625,1.9375 1.5421,0.5802 3.0764,1.1831 4.625,1.75 0.1542,0.056 0.3145,0.1 0.4688,0.1563 1.6605,0.6061 3.3322,1.1903 5,1.7812 0.043,0.015 0.082,0.048 0.125,0.062 l 0.875,0.3125 c 1.4274,0.5027 2.8485,0.9773 4.2813,1.4688 v 26.7062 h 363.53134 z m -181.75,-252.51878 c -167.89184,0 -304.00004,-136.1084 -304.00004,-304 0,-167.8916 136.1082,-304 304.00004,-304 167.8918,0 304,136.1085 304,304 0,167.8915 -136.1084,304 -304,304 z"
       id="path120"
       style="fill:#111111;stroke:url(#radialGradient4462);stroke-width:10;stroke-linecap:round;stroke-linejoin:round"
       inkscape:connector-curvature="0" />
    <g
       transform="matrix(1.03641,0,0,1.03641,-3917.5762,-220.07796)"
       id="g122">
      <path
         d="m 2926.6165,538.5 c -102.7733,0 -186.0937,83.2893 -186.0937,186.0625 0,102.7732 83.3204,186.0938 186.0937,186.0938 102.7733,0 186.0938,-83.3206 186.0938,-186.0938 0,-102.7732 -83.3206,-186.0625 -186.0938,-186.0625 z m 0,114.3125 c 39.63,0 71.75,32.12 71.75,71.75 0,39.63 -32.12,71.7813 -71.75,71.7813 -39.63,0 -71.75,-32.1513 -71.75,-71.7813 0,-39.63 32.1199,-71.75 71.75,-71.75 z"
         id="path124"
         style="opacity:0.30700001;fill:url(#radialGradient3869);stroke:#f3eedf;stroke-width:2"
         inkscape:connector-curvature="0" />
      <path
         d="m 2926.6322,195.7812 c -292.0465,0 -528.8125,236.7348 -528.8125,528.7813 0,292.0465 236.766,528.8125 528.8125,528.8125 292.0465,0 528.7811,-236.7661 528.7811,-528.8125 0,-292.0464 -236.7347,-528.7813 -528.7811,-528.7813 z m 0,349.5938 c 98.9607,0 179.1875,80.2267 179.1875,179.1875 0,98.9608 -80.2268,179.1875 -179.1875,179.1875 -98.9607,0 -179.1875,-80.2267 -179.1875,-179.1875 0,-98.9608 80.2267,-179.1875 179.1875,-179.1875 z"
         id="path126"
         inkscape:connector-curvature="0"
         style="fill:#b3b3b3;stroke:#6a5555;stroke-width:0.88550001" />
      <g
         transform="translate(2421.75,150.007)"
         id="g128">
        <path
           d="m 504.8823,45.7743 c -292.0465,0 -528.8125,236.7347 -528.8125,528.7812 0,292.0465 236.766,528.8125 528.8125,528.8125 292.0465,0 528.781,-236.766 528.781,-528.8125 0,-292.0465 -236.7346,-528.7812 -528.781,-528.7812 z m 0,349.5937 c 98.9608,0 179.1875,80.2267 179.1875,179.1875 0,98.9608 -80.2267,179.1875 -179.1875,179.1875 -98.9608,0 -179.1875,-80.2267 -179.1875,-179.1875 0,-98.9608 80.2265,-179.1875 179.1875,-179.1875 z"
           id="path130"
           style="opacity:0.4;fill:url(#linearGradient4199)"
           inkscape:connector-curvature="0" />
        <path
           d="m 698.25,423.4063 c -79.6868,0 -144.2813,64.5944 -144.2813,144.2813 0,79.6869 64.5944,144.2813 144.2813,144.2813 79.6869,0 144.2813,-64.5944 144.2813,-144.2813 0,-79.6869 -64.5944,-144.2813 -144.2813,-144.2813 z m 0,72.5313 c 39.63,0 71.75,32.12 71.75,71.75 0,39.63 -32.12,71.7813 -71.75,71.7813 -39.63,0 -71.75,-32.1513 -71.75,-71.7813 0,-39.63 32.12,-71.75 71.75,-71.75 z"
           transform="translate(-193.3678,6.868)"
           id="path132"
           inkscape:connector-curvature="0"
           style="opacity:0.15800003;fill:none;stroke:#e3eace;stroke-width:3" />
        <path
           d="m 504.8508,1103.368 c 292.0464,0 528.8125,-236.7347 528.8125,-528.7812 0,-292.0465 -236.7661,-528.8125 -528.8125,-528.8125 -292.0464,0 -528.781,236.766 -528.781,528.8125 0,292.0465 236.7347,528.7812 528.781,528.7812 z m 0,-349.5937 c -98.9608,0 -179.1875,-80.2267 -179.1875,-179.1875 0,-98.9608 80.2267,-179.1875 179.1875,-179.1875 98.9608,0 179.1875,80.2267 179.1875,179.1875 0,98.9608 -80.2265,179.1875 -179.1875,179.1875 z"
           id="path5378"
           style="opacity:0.37000002;fill:url(#linearGradient4201);stroke:none"
           inkscape:connector-curvature="0" />
      </g>
      <text
         font-size="40"
         font-weight="500"
         letter-spacing="0"
         transform="matrix(-0.93135,0,0,-0.93135,3390.815,1253.757)"
         word-spacing="0"
         xml:space="preserve"
         id="text135"
         style="font-size:40px;font-weight:500;letter-spacing:0;word-spacing:0;fill:url(#linearGradient4237);font-family:URW Palladio L"><textPath
           font-size="41.027"
           font-weight="normal"
           xlink:href="#path5378"
           id="textPath137"
           style="font-size:41.02700043px;font-weight:normal;fill:url(#linearGradient4237);font-family:Ume P Gothic O5">DESIGNED BY KOSTAS S.                               DESIGNED BY KOSTAS S.                               DESIGNED BY KOSTAS S.                               DESIGNED BY KOSTAS S.                               </textPath></text>
    </g>
    <path
       d="m -1666.3304,5.3430565 h 1263.14089 a 7.8634,7.9456 0 0 1 7.8634,7.9455995 V 1133.3363 a 7.8634,7.9456 0 0 1 -7.8634,7.9456 H -1666.3304 a 7.8634,7.9456 0 0 1 -7.8634,-7.9456 V 13.288656 a 7.8634,7.9456 0 0 1 7.8634,-7.9455995"
       id="glare"
       style="opacity:0.29300005;fill:url(#linearGradient3980)"
       inkscape:connector-curvature="0" />
  </g>
</svg>
