<?xml version="1.0" encoding="UTF-8" standalone="no"?>
<svg viewBox="0 0 1307.8455 1164.9165" xmlns="http://www.w3.org/2000/svg" xmlns:xlink="http://www.w3.org/1999/xlink">
<defs>
<filter id="filter4100">
<feGaussianBlur stdDeviation="6.037"/>
</filter>
<linearGradient id="linearGradient3995">
<stop offset="0" stop-color="#5f5f5f"/>
<stop offset="1" stop-color="#a4a4a4"/>
</linearGradient>
<linearGradient gradientUnits="userSpaceOnUse" id="linearGradient3980" x1="694.4785" x2="366.6324" y1="-15.5226" y2="552.3235">
<stop offset="0" stop-color="#fff" stop-opacity=".348"/>
<stop offset=".96" stop-color="#fff" stop-opacity=".27"/>
<stop offset="1" stop-color="#fff" stop-opacity=".139"/>
</linearGradient>
<linearGradient gradientUnits="userSpaceOnUse" id="linearGradient4199" spreadMethod="reflect" x1="269.3266" x2="483.6859" y1="494.5869" y2="-305.4131">
<stop offset="0" stop-color="#ffc988"/>
<stop offset=".274" stop-color="#be88e4"/>
<stop offset="1" stop-color="#96ff88"/>
</linearGradient>
<linearGradient gradientUnits="userSpaceOnUse" id="linearGradient4201" spreadMethod="reflect" x1="664.8509" x2="110.5947" y1="703.3681" y2="1023.3681">
<stop offset="0" stop-color="#fffeb6"/>
<stop offset=".548" stop-color="#d6e0da"/>
<stop offset="1" stop-color="#aec3fe"/>
</linearGradient>
<linearGradient gradientUnits="userSpaceOnUse" id="linearGradient3903" x1="-196.2188" x2="-78.7868">
<stop offset="0"/>
<stop offset=".043" stop-color="#111"/>
<stop offset=".852" stop-color="#111"/>
<stop offset="1"/>
</linearGradient>
<linearGradient gradientUnits="userSpaceOnUse" id="linearGradient4237" x1="664.8635" x2="643.4276" xlink:href="#linearGradient3995" y1="1109.75" y2="1029.75"/>
<radialGradient cx="2926.6164" cy="724.5781" gradientUnits="userSpaceOnUse" id="radialGradient3869" r="341.75">
<stop offset="0" stop-color="#fff"/>
<stop offset=".984" stop-color="#fffee3" stop-opacity=".498"/>
<stop offset="1" stop-color="#fffec8" stop-opacity="0"/>
</radialGradient>
<radialGradient cx="502.6316" cy="575.305" gradientTransform="matrix(-.87788,.65212,-.66271,-.89214,1325.1414,760.78323)" gradientUnits="userSpaceOnUse" id="radialGradient4462" r="564.9988">
<stop offset="0" stop-color="#d5d5d5"/>
<stop offset=".107" stop-color="#333"/>
<stop offset=".878" stop-color="#1b1b1b"/>
<stop offset="1" stop-color="#e2e2e2"/>
</radialGradient>
<radialGradient cx="780" cy="706.9783" gradientTransform="matrix(.90707,.5237,-.4445,.76989,386.73616,-260.41604)" gradientUnits="userSpaceOnUse" id="radialGradient3837" r="639.4216" spreadMethod="reflect" xlink:href="#linearGradient3995"/>
</defs>
<title>CD-DVD</title>
<g transform="translate(227.8566,-13.3223)">
<path d="m-205.5043,27.8111h1263.1409a7.8634,7.9456 0 0,1 7.8634,7.9456v1120.0476a7.8634,7.9456 0 0,1 -7.8634,7.9456h-1263.1409a7.8634,7.9456 0 0,1 -7.8634-7.9456v-1120.0476a7.8634,7.9456 0 0,1 7.8634-7.9456" filter="url(#filter4100)" opacity=".581"/>
<path d="m-184.9928,7.3715c-4.3529,0-7.8438,3.5358-7.8438,7.9375v1120c0,4.4017 3.4909,7.9375 7.8438,7.9375h1262.1251c4.3527,0 7.875-3.5358 7.875-7.9375v-1120c0-4.4017-3.5223-7.9375-7.875-7.9375h-1262.1251zm689.7813,477.5h.0937c3.6174,0 7.182.2087 10.6875.625-2.1308,4.2783-3.9272,8.8886-4.25,14.0938-.003.016.003.0154 0,.0312s-.0312.0438-.0312.0625h.0312c-.2546,2.9636.6278,5.6634 2.0938,7.875 1.6367.5318 3.0671,1.4386 3.8438,3.0625 1.0675,3.0418-.5166,6.2187-1.875,8.9063-2.035,4.3373-5.12,8.4825-5.4063,13.4063-.3396,3.5885 3.0415,6.032 6.125,6.9375 2.9389,1.1629 6.8991,1.5931 9.2188-1 3.9216-5.3472 3.0488-12.4864 5.0938-18.5625 .5756-2.5582 2.6029-5.0339 5.4375-4.9688 .8022.099 1.5826.2828 2.3438.5313 1.9831-.6841 3.8375-1.8124 5.375-3.5313a2.7485,2.7485 0 0,0 .1875-.2188c3.4704-4.7319 5.0613-9.9485 6.0625-15.1875 3.0762,1.7844 6.0445,3.7494 8.875,5.875-3.1303,2.0857-6.1944,4.429-8.8125,7.4375l-.1875.2188c-2.8446,2.8015-4.1016,6.5759-3.9375,10.3125 1.7763,1.6939 2.4264,4.5273 1.0625,6.6875-4.0381,5.4173-11.4049,7.2116-15.8125,12.375-2.2151,2.0849-2.3677,5.5659-.75,8.0625 1.9669,2.9068 4.7348,6.1922 8.5625,6.2188 4.0307-.4573 6.811-3.939 9.2188-6.8438 2.7242-2.9923 4.8242-6.7811 8.5-8.6563 2.3055-1.3157 5.0765-.1564 6.625,1.7813 .8323.1522 1.6966.244 2.5938.25a2.7485,2.7485 0 0,0 .3125-.0312c7.4285-.8429 12.449-6.2214 16.4375-11 1.8056,3.113 3.4477,6.3519 4.875,9.6875-4.3933.2907-8.8736.964-13.25,2.8125l-.0625.0312c-.039.0165-.086.0145-.125.0312-3.2031,1.1715-5.4444,3.4868-6.8125,6.25 .1056.4995.2054,1.018.25,1.5313 .2361,2.4823-1.5697,4.6137-3.875,5.3125-6.338,1.9068-13.3639.004-19.5313,2.6563-2.8214.9821-4.0475,4.1254-3.75,6.9063 .2798,3.5679 1.3831,7.9845 5.0938,9.375 4.9622,1.08 9.7262-1.4844 14.25-3.125 3.193-1.007 6.8914-2.8503 10.1875-1.1875 1.556.9314 2.3172,2.4794 2.6563,4.1875 1.1682,1.0036 2.5314,1.8521 4.0938,2.4375a2.7485,2.7485 0 0,0 .375.125c6.3214,1.3758 12.2343-.0835 17.6875-2.0625-.0006,3.6122-.2093,7.1558-.625,10.6563-4.5107-2.2806-9.3917-4.1793-14.9688-4.25h-.0625c-2.6515-.0711-5.0463.7545-7.0313,2.0625-.5274,1.6448-1.4404,3.0937-3.0625,3.875-3.1218,1.1061-6.3898-.5565-9.125-1.9688-4.3879-2.0057-8.5619-5.232-13.5625-5.2813-3.5191-.1155-5.7603,3.2793-6.6563,6.2813-1.1304,2.9489-1.4514,6.8415 1.1875,9.0938 5.3645,3.8276 12.413,3.0085 18.4375,5.0313 2.5797.5707 5.0587,2.6149 5,5.4375-.1001.8031-.282,1.5791-.5313,2.3438 .7141,2.0594 1.9191,3.9999 3.75,5.5625a2.7485,2.7485 0 0,0 .1563.1563c4.7022,3.3551 9.9005,4.9167 15.0625,5.9063-1.791,3.0887-3.7714,6.0652-5.9063,8.9063-2.0441-3.0778-4.3382-6.0837-7.25-8.6875-2.827-2.9657-6.7796-4.4299-10.7188-4.2813-1.6834,1.8027-4.5655,2.4465-6.7188,1.0938-5.3497-4.0424-7.1581-11.2148-12.125-15.6563-1.8878-2.0631-5.0629-2.5884-7.5625-1.3125-3.1077,1.8534-6.5323,4.5794-6.9375,8.375-.0306,3.8912 3.2592,6.7308 5.9688,9.0313 3.2452,3.0748 7.572,5.3327 9.5938,9.4688 1.2399,2.2785-.0154,4.9155-1.875,6.4375-.0807.4262-.1401.8688-.1875,1.3125a2.7485,2.7485 0 0,0 -.0312.25c-.0644,8.1837 6.2151,13.6929 11.0313,17.7813-3.1261,1.8142-6.3681,3.4423-9.7188,4.875-.2804-4.4643-.94-9.0359-2.875-13.4688-.0269-.0617-.0351-.1258-.0625-.1875h-.0312c-1.1765-3.1155-3.5296-5.2857-6.1875-6.5938-.3191.07-.6138.1399-.9375.1875-2.3362.3783-4.7319-.9358-5.5938-3.1563-2.4143-6.4886-.1255-13.8896-2.9688-20.2813-1.148-3.2105-4.957-4.1044-8-3.5625-3.2329.4447-7.1374,1.6618-8.2813,5.0938-1.0174,5.2427 1.7774,10.1084 3.4688,14.9063 .9658,3.0049 2.4897,6.6118.7813,9.625-.9851,1.4277-2.4808,2.145-4.125,2.4688-1.0589,1.2359-1.9392,2.6923-2.5,4.375a2.7485,2.7485 0 0,0 -.0937.3438c-1.2156,6.2642.2088,12.0505 2.1563,17.4375-3.6176-.002-7.2132-.2384-10.7188-.6563 2.2676-4.4851 4.2136-9.326 4.3125-14.8438v-.0312-.0312c.0872-2.7014-.7609-5.1374-2.0938-7.1563-1.7079-.5525-3.2121-1.5022-3.9375-3.2188-.9849-3.2951.8354-6.6358 2.3125-9.5 1.9834-4.1792 4.9581-8.2225 5.0313-12.9688 .1295-3.4423-3.0723-5.681-6-6.5938-2.9942-1.1583-7.0009-1.6808-9.3438,1.0313-3.8361,5.2613-3.045,12.2419-4.9688,18.2188-.557,2.5594-2.4355,5.1332-5.25,5.25-.9242-.0676-1.8173-.2483-2.6875-.5313-1.9996.7021-3.9012,1.8778-5.4375,3.6563a2.7485,2.7485 0 0,0 -.125.1875c-3.4327,4.7081-5.0389,9.9165-6.0313,15.125-3.0864-1.7912-6.0362-3.7717-8.875-5.9063 .4703-.3204.9409-.6663 1.4063-1 2.5318-1.7886 5.42-3.9467 7.75-6.75 2.2332-2.687 3.9411-6.1396 3.8438-10.1563-1.7152-1.6588-2.4832-4.3272-1.2813-6.5 2.9221-4.2206 7.9215-6.2294 12-9.1563 2.7712-1.9574 6.0592-4.5582 5.8125-8.375-.4444-2.8994-2.5163-5.4222-4.6563-7.3125-1.9611-1.73-4.824-2.7693-7.2813-1.5-6.0308,3.0763-8.666,9.9947-13.9375,14-1.7909,1.721-4.7437,1.9992-6.75.4688-.456-.4152-.8757-.8466-1.2813-1.3125-2.6252-.5172-5.4121-.3066-8.0625,1.0625v.0312c-4.7138,2.4082-8.2888,5.9009-11.4375,9.5938-1.7903-3.0962-3.396-6.3092-4.8125-9.625 3.9754-.2545 8.0102-.8199 11.9688-2.2813l.2813-.0937c3.6567-1.0428 6.3909-3.6151 8-6.7813-.01-.0418-.0222-.0832-.0312-.125-.8047-2.4724.425-5.2931 2.8125-6.3438 6.2981-2.4061 13.5179-.3364 19.7813-2.7188 2.7877-.7227 4.4835-3.6086 4.375-6.4063-.2115-3.4733-.9222-7.6283-4.0938-9.6563-3.5526-1.7078-7.6434-.2058-11.0938,1.0625-4.015,1.2608-7.8635,3.62-12.1875,3.4063-2.6371.0127-4.5011-2.4008-4.8438-4.8438-.5347-.46-1.0961-.9143-1.7188-1.3125a2.7485,2.7485 0 0,0 -.3125-.1563c-6.9219-3.3274-14.1829-1.0538-20.0938,1.0938-4e-005-.0156 0-.0469 0-.0625 3e-005-3.6336.205-7.1982.625-10.7188 3.8521,1.907 7.9693,3.5232 12.5625,4.125l.25.0312c3.4211.6702 6.6986-.2713 9.2813-2 .0956-.3009.1972-.5808.3125-.875 .8659-2.2445 3.1949-3.6879 5.5938-3.2813 6.7293,1.1959 11.9211,6.7294 18.75,7.5625 3.2156.7055 6.015-1.8775 7.125-4.6875 1.2867-3.0528 2.3741-7.0998.0937-9.9688-3.2975-3.2625-8.271-3.5825-12.625-4.3125-3.4898-.7317-7.5983-.8489-10.25-3.5313-1.5067-1.5944-1.4537-3.7974-.7813-5.7813-.4708-1.3301-1.1453-2.6193-2.0938-3.8125a2.7485,2.7485 0 0,0 -.2188-.2188c-4.7245-4.6744-10.7978-6.3585-16.625-7.375 1.7862-3.0863 3.7457-6.0667 5.875-8.9063 2.8008,4.2138 6.1306,8.2407 10.875,11.1563 2.2777,1.4048 4.767,1.8714 7.1563,1.7188 .9575-.8611 2.0442-1.5226 3.375-1.7813 3.1772-.3811 5.5794,2.3986 7.1563,4.7813 3.2473,4.333 5.2959,9.8953 10.0938,12.8438 2.9281,1.8059 6.4982.0375 8.75-2.0313 2.4398-1.9676 4.7497-5.0937 3.7188-8.4063-2.5941-6.0225-9.0987-8.8857-13.3438-13.5313-1.9001-1.7431-3.2346-4.6297-1.9688-7.125 .5158-.7805 1.1294-1.4733 1.8125-2.0938 .3826-1.9993.3531-4.1114-.3125-6.25a2.7485,2.7485 0 0,0 -.0937-.2813c-2.3372-5.4261-6.0925-9.4847-10.1563-13 3.0604-1.7652 6.2253-3.3495 9.5-4.75 .2247,3.6764.7109,7.4282 1.9375,11.125 .9521,4.0071 3.6765,7.2178 7.1563,9.0625 2.2806-.6106 4.9692.0629 6.2188,2.1875 2.8438,6.2275.6928,13.4554 2.8125,19.8438 .6199,2.8969 3.4222,5.0199 6.375,4.9688 3.617-.2165 7.9951-.8752 10-4.2813 1.6433-3.6743.0459-7.7464-1.25-11.2813-1.2899-4.1776-3.9238-8.2872-3.125-12.8125 .4707-2.2346 2.5157-3.431 4.6563-3.875 .5482-.6385 1.0518-1.3323 1.5-2.0938a2.7485,2.7485 0 0,0 .125-.25c3.0743-6.8739.8898-13.9212-1.25-19.7813z" fill="url(#radialGradient3837)" stroke="#6a5555"/>
<path d="m135.625,15.875c-3.8654,0-7,3.4363-7,7.7188v1089.6874c0,4.2825 3.1346,7.7188 7,7.7188h1120.75c3.8654,0 7-3.4363 7-7.7188v-1089.6874c0-4.2825-3.1346-7.7188-7-7.7188zm562.5313,462.125h.0937c3.6174,0 7.182.2087 10.6875.625-2.1308,4.2783-3.9272,8.8886-4.25,14.0938-.003.016.003.0154 0,.0312s-.0312.0438-.0312.0625h.0312c-.2546,2.9636.6278,5.6634 2.0938,7.875 1.6367.5318 3.0671,1.4386 3.8438,3.0625 1.0675,3.0418-.5166,6.2187-1.875,8.9063-2.035,4.3373-5.12,8.4825-5.4063,13.4063-.3396,3.5885 3.0415,6.032 6.125,6.9375 2.9389,1.1629 6.8991,1.5931 9.2188-1 3.9216-5.3472 3.0488-12.4864 5.0938-18.5625 .5756-2.5582 2.6029-5.0339 5.4375-4.9688 .8022.099 1.5826.2828 2.3438.5313 1.9831-.6841 3.8375-1.8124 5.375-3.5313 .0663-.0696.1289-.1426.1875-.2188 3.4704-4.7319 5.0613-9.9485 6.0625-15.1875 3.0762,1.7844 6.0445,3.7494 8.875,5.875-3.1303,2.0857-6.1944,4.429-8.8125,7.4375l-.1875.2188c-2.8446,2.8015-4.1016,6.5759-3.9375,10.3125 1.7763,1.6939 2.4264,4.5273 1.0625,6.6875-4.0381,5.4173-11.4049,7.2116-15.8125,12.375-2.2151,2.0849-2.3677,5.5659-.75,8.0625 1.9669,2.9068 4.7348,6.1922 8.5625,6.2188 4.0307-.4573 6.811-3.939 9.2188-6.8438 2.7242-2.9923 4.8242-6.7811 8.5-8.6563 2.3055-1.3157 5.0765-.1564 6.625,1.7813 .8323.1522 1.6966.244 2.5938.25 .1047-.004.209-.0149.3125-.0312 7.4285-.8429 12.449-6.2214 16.4375-11 1.8056,3.113 3.4477,6.3519 4.875,9.6875-4.3933.2907-8.8736.964-13.25,2.8125l-.0625.0312c-.039.0165-.086.0145-.125.0312-3.2031,1.1715-5.4444,3.4868-6.8125,6.25 .1056.4995.2054,1.018.25,1.5313 .2361,2.4823-1.5697,4.6137-3.875,5.3125-6.338,1.9068-13.3639.004-19.5313,2.6563-2.8214.9821-4.0475,4.1254-3.75,6.9063 .2798,3.5679 1.3831,7.9845 5.0938,9.375 4.9622,1.08 9.7262-1.4844 14.25-3.125 3.193-1.007 6.8914-2.8503 10.1875-1.1875 1.556.9314 2.3172,2.4794 2.6563,4.1875 1.1682,1.0036 2.5314,1.8521 4.0938,2.4375 .1218.0506.2472.0924.375.125 6.3214,1.3758 12.2343-.0835 17.6875-2.0625-.0006,3.6122-.2093,7.1558-.625,10.6563-4.5107-2.2806-9.3917-4.1793-14.9688-4.25h-.0625c-2.6515-.0711-5.0463.7545-7.0313,2.0625-.5274,1.6448-1.4404,3.0937-3.0625,3.875-3.1218,1.1061-6.3898-.5565-9.125-1.9688-4.3879-2.0057-8.5619-5.232-13.5625-5.2813-3.5191-.1155-5.7603,3.2793-6.6563,6.2813-1.1304,2.9489-1.4514,6.8415 1.1875,9.0938 5.3645,3.8276 12.413,3.0085 18.4375,5.0313 2.5797.5707 5.0587,2.6149 5,5.4375-.1001.8031-.282,1.5791-.5313,2.3438 .7141,2.0594 1.9191,3.9999 3.75,5.5625 .05.0542.1021.1063.1563.1563 4.7022,3.3551 9.9005,4.9167 15.0625,5.9063-1.791,3.0887-3.7714,6.0652-5.9063,8.9063-2.0441-3.0778-4.3382-6.0837-7.25-8.6875-2.827-2.9657-6.7796-4.4299-10.7188-4.2813-1.6834,1.8027-4.5655,2.4465-6.7188,1.0938-5.3497-4.0424-7.1581-11.2148-12.125-15.6563-1.8878-2.0631-5.0629-2.5884-7.5625-1.3125-3.1077,1.8534-6.5323,4.5794-6.9375,8.375-.0306,3.8912 3.2592,6.7308 5.9688,9.0313 3.2452,3.0748 7.572,5.3327 9.5938,9.4688 1.2399,2.2785-.0154,4.9155-1.875,6.4375-.0807.4262-.1401.8688-.1875,1.3125-.0142.0828-.0247.1663-.0312.25-.0644,8.1837 6.2151,13.6929 11.0313,17.7813-3.1261,1.8142-6.3681,3.4423-9.7188,4.875-.2804-4.4643-.94-9.0359-2.875-13.4688-.0269-.0617-.0351-.1258-.0625-.1875h-.0312c-1.1765-3.1155-3.5296-5.2857-6.1875-6.5938-.3191.07-.6138.1399-.9375.1875-2.3362.3783-4.7319-.9358-5.5938-3.1563-2.4143-6.4886-.1255-13.8896-2.9688-20.2813-1.148-3.2105-4.957-4.1044-8-3.5625-3.2329.4447-7.1374,1.6618-8.2813,5.0938-1.0174,5.2427 1.7774,10.1084 3.4688,14.9063 .9658,3.0049 2.4897,6.6118.7813,9.625-.9851,1.4277-2.4808,2.145-4.125,2.4688-1.0589,1.2359-1.9392,2.6923-2.5,4.375-.0386.1124-.07.2273-.0937.3438-1.2156,6.2642.2088,12.0505 2.1563,17.4375-3.6176-.002-7.2132-.2384-10.7188-.6563 2.2676-4.4851 4.2136-9.326 4.3125-14.8438v-.0312-.0312c.0872-2.7014-.7609-5.1374-2.0938-7.1563-1.7079-.5525-3.2121-1.5022-3.9375-3.2188-.9849-3.2951.8354-6.6358 2.3125-9.5 1.9834-4.1792 4.9581-8.2225 5.0313-12.9688 .1295-3.4423-3.0723-5.681-6-6.5938-2.9942-1.1583-7.0009-1.6808-9.3438,1.0313-3.8361,5.2613-3.045,12.2419-4.9688,18.2188-.557,2.5594-2.4355,5.1332-5.25,5.25-.9242-.0676-1.8173-.2483-2.6875-.5313-1.9996.7021-3.9012,1.8778-5.4375,3.6563-.0442.0608-.0859.1233-.125.1875-3.4327,4.7081-5.0389,9.9165-6.0313,15.125-3.0864-1.7912-6.0362-3.7717-8.875-5.9063 .4703-.3204.9409-.6663 1.4063-1 2.5318-1.7886 5.42-3.9467 7.75-6.75 2.2332-2.687 3.9411-6.1396 3.8438-10.1563-1.7152-1.6588-2.4832-4.3272-1.2813-6.5 2.9221-4.2206 7.9215-6.2294 12-9.1563 2.7712-1.9574 6.0592-4.5582 5.8125-8.375-.4444-2.8994-2.5163-5.4222-4.6563-7.3125-1.9611-1.73-4.824-2.7693-7.2813-1.5-6.0308,3.0763-8.666,9.9947-13.9375,14-1.7909,1.721-4.7437,1.9992-6.75.4688-.456-.4152-.8757-.8466-1.2813-1.3125-2.6252-.5172-5.4121-.3066-8.0625,1.0625v.0312c-4.7138,2.4082-8.2888,5.9009-11.4375,9.5938-1.7903-3.0962-3.396-6.3092-4.8125-9.625 3.9754-.2545 8.0102-.8199 11.9688-2.2813l.2813-.0937c3.6567-1.0428 6.3909-3.6151 8-6.7813-.01-.0418-.0222-.0832-.0312-.125-.8047-2.4724.425-5.2931 2.8125-6.3438 6.2981-2.4061 13.5179-.3364 19.7813-2.7188 2.7877-.7227 4.4835-3.6086 4.375-6.4063-.2115-3.4733-.9222-7.6283-4.0938-9.6563-3.5526-1.7078-7.6434-.2058-11.0938,1.0625-4.015,1.2608-7.8635,3.62-12.1875,3.4063-2.6371.0127-4.5011-2.4008-4.8438-4.8438-.5347-.46-1.0961-.9143-1.7188-1.3125-.1007-.0586-.2052-.1109-.3125-.1563-6.9219-3.3274-14.1829-1.0538-20.0938,1.0938-4e-005-.0156 0-.0469 0-.0625 3e-005-3.6336.205-7.1982.625-10.7188 3.8521,1.907 7.9693,3.5232 12.5625,4.125l.25.0312c3.4211.6702 6.6986-.2713 9.2813-2 .0956-.3009.1972-.5808.3125-.875 .8659-2.2445 3.1949-3.6879 5.5938-3.2813 6.7293,1.1959 11.9211,6.7294 18.75,7.5625 3.2156.7055 6.015-1.8775 7.125-4.6875 1.2867-3.0528 2.3741-7.0998.0937-9.9688-3.2975-3.2625-8.271-3.5825-12.625-4.3125-3.4898-.7317-7.5983-.8489-10.25-3.5313-1.5067-1.5944-1.4537-3.7974-.7813-5.7813-.4708-1.3301-1.1453-2.6193-2.0938-3.8125-.0687-.077-.1418-.15-.2188-.2188-4.7245-4.6744-10.7978-6.3585-16.625-7.375 1.7862-3.0863 3.7457-6.0667 5.875-8.9063 2.8008,4.2138 6.1306,8.2407 10.875,11.1563 2.2777,1.4048 4.767,1.8714 7.1563,1.7188 .9575-.8611 2.0442-1.5226 3.375-1.7813 3.1772-.3811 5.5794,2.3986 7.1563,4.7813 3.2473,4.333 5.2959,9.8953 10.0938,12.8438 2.9281,1.8059 6.4982.0375 8.75-2.0313 2.4398-1.9676 4.7497-5.0937 3.7188-8.4063-2.5941-6.0225-9.0987-8.8857-13.3438-13.5313-1.9001-1.7431-3.2346-4.6297-1.9688-7.125 .5158-.7805 1.1294-1.4733 1.8125-2.0938 .3826-1.9993.3531-4.1114-.3125-6.25-.0262-.0953-.0575-.1893-.0937-.2813-2.3372-5.4261-6.0925-9.4847-10.1563-13 3.0604-1.7652 6.2253-3.3495 9.5-4.75 .2247,3.6764.7109,7.4282 1.9375,11.125 .9521,4.0071 3.6765,7.2178 7.1563,9.0625 2.2806-.6106 4.9692.0629 6.2188,2.1875 2.8438,6.2275.6928,13.4554 2.8125,19.8438 .6199,2.8969 3.4222,5.0199 6.375,4.9688 3.617-.2165 7.9951-.8752 10-4.2813 1.6433-3.6743.0459-7.7464-1.25-11.2813-1.2899-4.1776-3.9238-8.2872-3.125-12.8125 .4707-2.2346 2.5157-3.431 4.6563-3.875 .5482-.6385 1.0518-1.3323 1.5-2.0938 .0459-.0811.0876-.1646.125-.25 3.0743-6.8739.8898-13.9212-1.25-19.7813z" fill="#1a1a1a" transform="translate(-193.3678,6.868)"/>
<path d="m-189.9688,23.25a5.7593,5.7593 0 0,0 -5.75,5.75v1079a5.7593,5.7593 0 0,0 5.75,5.75h104.9375a5.7593,5.7593 0 0,0 5.75-5.75v-1079a5.7593,5.7593 0 0,0 -5.75-5.75h-104.9375z" fill="url(#linearGradient3903)" stroke="#000" stroke-width=".989" transform="matrix(1,0,0,1.02247,2.851,-6.41017)"/>
<path d="m-175,17.809v1115" fill="#151515" stroke="#000" stroke-width="3.2587"/>
<path d="m-165,17.809v1115" fill="#151515" stroke="#000" stroke-width="3.2587"/>
<path d="m-145,17.809v1115" fill="#151515" stroke="#000" stroke-width="3.2587"/>
<path d="m-135,17.809v1115" fill="#151515" stroke="#000" stroke-width="3.2587"/>
<path d="m-125,17.809v1115" fill="#151515" stroke="#000" stroke-width="3.2587"/>
<path d="m-105,17.809v1115" fill="#151515" stroke="#000" stroke-width="3.2587"/>
<path d="m-155,17.809v1115" fill="#151515" stroke="#000" stroke-width="3.2587"/>
<path d="m-115,17.809v1115" fill="#151515" stroke="#000" stroke-width="3.2587"/>
<path d="m-95,17.809v1115" fill="#151515" stroke="#000" stroke-width="3.2587"/>
<path d="m-180,17.809v1115" fill="none" stroke="#222" stroke-width="3.2587"/>
<path d="m-170,17.809v1115" fill="none" stroke="#222" stroke-width="3.2587"/>
<path d="m-150,17.809v1115" fill="none" stroke="#222" stroke-width="3.2587"/>
<path d="m-140,17.809v1115" fill="none" stroke="#222" stroke-width="3.2587"/>
<path d="m-130,17.809v1115" fill="none" stroke="#222" stroke-width="3.2587"/>
<path d="m-110,17.809v1115" fill="none" stroke="#222" stroke-width="3.2587"/>
<path d="m-160,17.809v1115" fill="none" stroke="#222" stroke-width="3.2587"/>
<path d="m-120,17.809v1115" fill="none" stroke="#222" stroke-width="3.2587"/>
<path d="m-100,17.809v1115" fill="none" stroke="#222" stroke-width="3.2587"/>
<g opacity=".5" stroke="#fff" stroke-width="3">
<path d="m159.6041,26.5523c0,23.7104-19.4472,42.9315-43.4366,42.9315s-43.4366-19.2211-43.4366-42.9315v-2e-006l43.4366,2e-006z" fill="#c8c8c8" opacity=".647" stroke="#fff" stroke-linecap="round" stroke-linejoin="round" stroke-width="3" transform="translate(6.7891,-15.8329)"/>
<path d="m159.6041,26.5523c0,23.7104-19.4472,42.9315-43.4366,42.9315s-43.4366-19.2211-43.4366-42.9315v-2e-006l43.4366,2e-006z" fill="#c8c8c8" opacity=".647" stroke="#fff" stroke-linecap="round" stroke-linejoin="round" stroke-width="3" transform="translate(753.2918,-15.8329)"/>
<path d="m159.6041,26.5523c0,23.7104-19.4472,42.9315-43.4366,42.9315s-43.4366-19.2211-43.4366-42.9315v-2e-006l43.4366,2e-006z" fill="#c8c8c8" opacity=".647" stroke="#fff" stroke-linecap="round" stroke-linejoin="round" stroke-width="3" transform="matrix(1,0,0,-1,6.78912,1166.4443)"/>
<path d="m159.6041,26.5523c0,23.7104-19.4472,42.9315-43.4366,42.9315s-43.4366-19.2211-43.4366-42.9315v-2e-006l43.4366,2e-006z" fill="#c8c8c8" opacity=".647" stroke="#fff" stroke-linecap="round" stroke-linejoin="round" stroke-width="3" transform="matrix(1,0,0,-1,753.29185,1166.4443)"/>
</g>
<path d="m684.382,1131.8391v-26.675c10.3115-3.5362 20.5016-7.3885 30.5313-11.5 13.3859-5.4872 26.5009-11.4669 39.3438-17.9375 6.4169-3.233 12.7587-6.5928 19.0313-10.0625l2.2188-1.2188c.8271-.4622 1.6442-.9397 2.4688-1.4062 4.6743-2.6447 9.3168-5.351 13.9063-8.125 .3836-.2319.7733-.4548 1.1563-.6875 1.1468-.6968 2.2961-1.4202 3.4375-2.125 6.077-3.7534 12.0801-7.6174 18-11.5937 1.4872-.9991 2.9604-2.0185 4.4375-3.0313 1.4729-1.0099 2.9436-2.0077 4.4063-3.0313 1.4681-1.0273 2.9172-2.0526 4.375-3.0937 5.8009-4.1428 11.523-8.3942 17.1563-12.75 1.1755-.909 2.3632-1.8007 3.5313-2.7187 .2327-.1829.4551-.3793.6875-.5626 13.8533-10.9236 27.1856-22.4965 39.9375-34.6562 .1174-.112.2264-.2316.3438-.3438 2.5728-2.4576 5.1304-4.9317 7.6563-7.4374 .5386-.5345 1.0885-1.0573 1.625-1.5938 .7224-.7224 1.4379-1.4612 2.1563-2.1875 1.2484-1.2623 2.4823-2.5385 3.7188-3.8125 1.1696-1.2052 2.3412-2.4094 3.5-3.625 1.2937-1.3569 2.5948-2.7238 3.875-4.0938 1.2205-1.3061 2.4169-2.6197 3.625-3.9374 3.5761-3.9012 7.1278-7.8421 10.5938-11.8438 1.1895-1.3732 2.3549-2.7714 3.5312-4.1562 1.1555-1.3605 2.2948-2.7222 3.4375-4.0938 .9974-1.1973 1.9813-2.3881 2.9688-3.5938 .2541-.3099.4967-.627.75-.9374 .7362-.9028 1.488-1.7801 2.2187-2.6876 1.393-1.7294 2.7522-3.4724 4.125-5.2187 .018-.023.045-.0395.062-.0625 1.0824-1.3774 2.1491-2.7685 3.2188-4.1562 .929-1.2054 1.8618-2.412 2.7812-3.625 .5025-.6631 1.0004-1.3349 1.5-2 .3038-.4048.6035-.8133.9063-1.2188 1.0466-1.4015 2.0911-2.8071 3.125-4.2188 .3607-.4926.7345-.9748 1.0937-1.4687 1.1371-1.5633 2.2538-3.1433 3.375-4.7187 .039-.0541.086-.102.125-.1563 .9815-1.3802 1.937-2.7667 2.9063-4.1563 1.0231-1.4668 2.0531-2.9291 3.0625-4.4062 1.0059-1.4718 2.008-2.9556 3-4.4375 1.9874-2.9685 3.9433-5.9606 5.875-8.9687 .081-.1267.1688-.2484.25-.375 .883-1.3772 1.7539-2.7398 2.625-4.125 .9222-1.4667 1.8412-2.9306 2.75-4.4063 .064-.1032.1239-.2092.1875-.3125 .532-.8651 1.0662-1.7254 1.5937-2.5938 .3708-.61.7254-1.232 1.0938-1.8437 .794-1.3182 1.5917-2.6435 2.375-3.9687 1.0348-1.7502 2.0463-3.5189 3.0625-5.2813 .1097-.1903.2342-.3721.3437-.5625 .7829-1.3615 1.5408-2.725 2.3125-4.0938 .8385-1.4872 1.6748-2.9731 2.5-4.4687l.125-.2187c.5559-1.0087 1.1065-2.0189 1.6563-3.0313 1.0783-1.985 2.1638-3.9694 3.2187-5.9687 .92-1.7439 1.8168-3.4955 2.7189-5.25l.4063-.7813c.685-1.3375 1.3567-2.6875 2.0312-4.0313 .8085-1.6107 1.6129-3.2241 2.4063-4.8437 .6404-1.3074 1.2756-2.6244 1.9062-3.9375 .1456-.3033.2924-.6027.4375-.9062 .7271-1.5213 1.4426-3.0336 2.1563-4.5626 .9271-1.9854 1.8456-3.9706 2.75-5.9687l.5625-1.25c.5099-1.1339 1.0287-2.2682 1.5312-3.4063 .6601-1.4947 1.2901-2.9981 1.9375-4.5 .5088-1.1802 1.0304-2.3467 1.5313-3.5312 .2024-.4786.3925-.9583.5937-1.4375 1.3987-3.3335 2.7581-6.6966 4.0938-10.0625 .3553-.8953.7117-1.7899 1.0625-2.6875 .5333-1.3641 1.0708-2.7245 1.5937-4.0937l.2813-.75c.3295-.8668.6433-1.725.9687-2.5938 .5569-1.4875 1.1117-2.9753 1.6563-4.4688 .077-.2107.1733-.4139.25-.625 .2143-.5898.4126-1.1904.625-1.7812 .4019-1.1179.7925-2.2538 1.1875-3.375 .4122-1.1702.8454-2.3263 1.25-3.5l.75-2.1875c.092-.272.189-.5403.2812-.8125 .4279-1.2645.8308-2.5439 1.25-3.8125 .5151-1.5597 1.0295-3.1218 1.5313-4.6875l.1562-.5c.4353-1.3624.8562-2.7268 1.2813-4.0938 .3978-1.2788.7986-2.5608 1.1875-3.8437 .5703-1.8819 1.1365-3.766 1.6875-5.6563 .361-1.2381.7099-2.477 1.0625-3.7187 .4928-1.7351.9611-3.4768 1.4375-5.2187 .328-1.1994.6798-2.3912 1-3.5938 .055-.2074.1011-.4175.1562-.625 .3836-1.4478.7839-2.8913 1.1563-4.3438 .5009-1.9535.9572-3.9131 1.4375-5.875 .2193-.8957.4411-1.7901.6562-2.6874 .3585-1.4966.716-2.999 1.0625-4.5 .3749-1.624.7331-3.2457 1.0938-4.875 .24-1.0842.485-2.1638.7187-3.25 .2375-1.1043.4565-2.2059.6875-3.3126 .1851-.8863.3816-1.7683.5625-2.6562 .4196-2.0603.8219-4.119 1.2188-6.1875 .048-.2486.078-.5013.125-.75 .3264-1.7132.658-3.4375.9687-5.1563 .237-1.3108.4596-2.6236.6875-3.9374 .038-.2189.087-.4375.125-.6563 .1991-1.1566.4018-2.3097.5938-3.4687 .2226-1.3439.4431-2.6843.6562-4.0313 .4748-3.0021.9169-6.0134 1.3438-9.0313 .087-.6134.1652-1.2295.25-1.8437 .2755-1.9949.5581-3.9985.8125-6 .1391-1.0944.2735-2.1849.4062-3.2813 .1505-1.2426.2951-2.4736.4375-3.7187 .4963-4.3419.9473-8.691 1.3438-13.0625 .02-.2178.043-.4385.062-.6562 .012-.1357.019-.2707.031-.4063 .1353-1.5234.252-3.0668.375-4.5937 .1509-1.8729.3051-3.7472.4375-5.625 .1334-1.8925.2604-3.79.375-5.6876 .1098-1.8189.2201-3.6451.3125-5.4687 .099-1.9581.171-3.9429.25-5.9063 .041-1.0111.09-2.0187.125-3.0312 .06-1.7103.112-3.4108.1563-5.125v-.2812c.025-.9903.042-1.9772.062-2.9688 .038-1.9133.074-3.832.094-5.75 .019-1.9119.031-3.8336.031-5.75s-.012-3.8352-.031-5.75c-.019-1.918-.055-3.8367-.094-5.75-.022-1.083-.035-2.1686-.062-3.25-.044-1.7142-.097-3.4147-.1563-5.125-.021-.5939-.04-1.188-.062-1.7812-.088-2.3199-.1961-4.6564-.3125-6.9688v-.1875c-.093-1.8328-.2021-3.6406-.3125-5.4687-.1146-1.8976-.2416-3.7952-.375-5.6876-.1324-1.8778-.2866-3.7521-.4375-5.625-.1344-1.6685-.2572-3.3355-.4062-5-.02-.2177-.043-.4384-.062-.6562-.3965-4.3715-.8475-8.7206-1.3438-13.0625-.1424-1.245-.287-2.4763-.4375-3.7187-.1328-1.0973-.267-2.186-.4062-3.2813-.2544-2.0015-.537-4.0051-.8125-6-.046-.3322-.079-.668-.125-1-.039-.2806-.085-.5633-.125-.8437-.4269-3.0179-.869-6.0292-1.3438-9.0313-.2125-1.3433-.4342-2.6911-.6562-4.0313-.28-1.6903-.5799-3.3773-.875-5.0624-.1679-.959-.3272-1.9179-.5-2.875-.3182-1.7628-.6653-3.5243-1-5.2813-.047-.2487-.077-.5014-.125-.75-.3969-2.0685-.7992-4.1272-1.2188-6.1875-.1809-.8878-.3774-1.7699-.5625-2.6562-.231-1.1067-.45-2.2083-.6875-3.3126-.2337-1.0862-.4787-2.1658-.7187-3.25-.097-.4362-.1837-.8766-.2813-1.3124-.2664-1.1897-.5385-2.3757-.8125-3.5626-.3465-1.501-.704-3.0034-1.0625-4.5-.1798-.7503-.3484-1.5007-.5312-2.25-.036-.1466-.089-.2909-.125-.4374-.29-1.1847-.5774-2.3809-.875-3.5626-.194-.7699-.3654-1.5438-.5625-2.3124-.3724-1.4525-.7727-2.896-1.1563-4.3438-.055-.2075-.101-.4176-.1562-.625-.3202-1.2025-.672-2.3943-1-3.5938-.139-.5082-.2658-1.0234-.4063-1.5312-.3404-1.2312-.6826-2.4598-1.0312-3.6875-.3526-1.2417-.7015-2.4806-1.0625-3.7187-.551-1.8902-1.1172-3.7745-1.6875-5.6563-.3889-1.2829-.7897-2.5648-1.1875-3.8437-.4762-1.5312-.9485-3.0683-1.4375-4.5938-.5018-1.5656-1.0162-3.1279-1.5313-4.6875-.5094-1.5421-1.0088-3.0889-1.5312-4.625-.3546-1.0427-.7332-2.0851-1.0938-3.125-.2931-.8451-.5781-1.688-.875-2.5313-.01-.0219-.024-.0415-.031-.0624-.2711-.7695-.5382-1.5446-.8125-2.3126-.4109-1.15-.8318-2.2909-1.25-3.4374-.079-.216-.1397-.4404-.2188-.6563-.4671-1.276-.9614-2.5409-1.4375-3.8125-.4175-1.115-.8257-2.2322-1.25-3.3438-.5229-1.3692-1.0604-2.7296-1.5937-4.0937-.1993-.5099-.393-1.0221-.5938-1.5313-.1521-.3858-.3157-.7708-.4687-1.1562-1.2382-3.12-2.4889-6.2203-3.7813-9.3125-.1924-.4603-.4001-.9153-.5937-1.375-.109-.2589-.2031-.5224-.3125-.7813-.5046-1.1932-1.0187-2.3735-1.5313-3.5624-.6458-1.4979-1.279-3.0091-1.9375-4.5-.5025-1.138-1.0213-2.2723-1.5312-3.4063l-.5625-1.25c-.8563-1.8919-1.7172-3.7755-2.5938-5.6563-.049-.1053-.107-.2071-.1562-.3124-.8548-1.8309-1.7199-3.6488-2.5938-5.4688-.4023-.8377-.8124-1.6646-1.2187-2.5-.3142-.646-.6209-1.2929-.9375-1.9375-.3785-.7708-.743-1.5437-1.125-2.3125-.3368-.6779-.6917-1.3549-1.0313-2.0312-.6744-1.3437-1.3463-2.6939-2.0312-4.0313l-.4063-.7813c-.1383-.2687-.2676-.5439-.4062-.8124-.6846-1.3262-1.3679-2.6489-2.0627-3.9688-.082-.1563-.1676-.3124-.25-.4688-1.0549-1.9994-2.1404-3.9837-3.2187-5.9687-.5892-1.0847-1.1851-2.1697-1.7813-3.25-.8252-1.4955-1.6615-2.9817-2.5-4.4687-.7704-1.3666-1.531-2.7345-2.3125-4.0938-.1097-.1908-.2338-.3718-.3437-.5625-.5336-.9255-1.0551-1.8591-1.5938-2.7813-.3646-.6239-.7267-1.2523-1.0937-1.875l-.375-.625c-1.0148-1.7166-2.0299-3.42-3.0625-5.125-.216-.3566-.4395-.7063-.6563-1.0624-.9397-1.5438-1.8896-3.0912-2.8437-4.625-.2792-.4487-.5635-.896-.8438-1.3438-.63-1.0063-1.2701-1.998-1.9062-3-.4401-.6931-.8695-1.4026-1.3125-2.0938-.081-.1269-.1685-.2481-.25-.375-1.8816-2.9299-3.7844-5.8263-5.7188-8.7187l-.5625-.8437-1.4375-2.125c-.7692-1.1344-1.5352-2.2779-2.3125-3.4063-.3096-.4494-.6266-.8954-.9375-1.3437-.3186-.4597-.6488-.9165-.9687-1.375-1.0031-1.4379-2.0152-2.8846-3.0313-4.3126-1.1212-1.5754-2.2379-3.1554-3.375-4.7187-.3592-.4938-.733-.9761-1.0937-1.4687-1.0339-1.4118-2.0784-2.8173-3.125-4.2188l-.9063-1.2188c-.4996-.6651-.9975-1.3369-1.5-2-.6234-.8225-1.2471-1.6497-1.875-2.4687-.2976-.3882-.6075-.7688-.9062-1.1563-1.07-1.3883-2.136-2.7782-3.2188-4.1562l-.062-.0625c-.5095-.6482-1.0189-1.2916-1.5312-1.9375-.5949-.7499-1.1827-1.5032-1.7813-2.25-.269-.3356-.5428-.665-.8125-1-1.4101-1.7509-2.8193-3.4851-4.25-5.2188l-1.6875-2.0312c-1.1436-1.3727-2.281-2.7322-3.4375-4.0938l-1.9687-2.3124c-.5002-.5827-.9973-1.1697-1.5-1.75l-.0625-.0626c-1.1459-1.3227-2.3108-2.6256-3.4688-3.9374-1.1801-1.3372-2.3699-2.6744-3.5625-4-1.0163-1.1299-2.0371-2.2537-3.0625-3.375-.9142-.9999-1.8286-2.007-2.75-3l-.7188-.7813c-1.4328-1.5385-2.8939-3.0715-4.3438-4.5937-.0659-.069-.1215-.1496-.1875-.2188-1.1611-1.2179-2.328-2.4176-3.5-3.625-.9819-1.0117-1.9481-2.027-2.9375-3.0312l-.7813-.7813c-.7171-.7251-1.4351-1.435-2.1563-2.1563-.7336-.7336-1.4811-1.458-2.2188-2.1874-2.3328-2.3075-4.6896-4.6087-7.0625-6.875-.1172-.1119-.2266-.232-.3438-.3438-1.17-1.1155-2.3518-2.2071-3.5313-3.3125-1.1034-1.034-2.2008-2.0686-3.3125-3.0937l-1.2188-1.125c-.9353-.8574-1.8714-1.7114-2.8125-2.5626-.4655-.4209-.9394-.8305-1.4063-1.25-.8467-.7604-1.68-1.5257-2.5313-2.2812-.1826-.162-.3797-.3069-.5625-.4688-1.2906-1.1421-2.5738-2.307-3.875-3.4374l-.1563-.125-.4688-.4063c-1.1778-1.0202-2.3762-2.0206-3.5625-3.0313-1.0506-.8948-2.0989-1.8003-3.1563-2.6874-.8222-.6901-1.6425-1.377-2.4688-2.0626-.3632-.3011-.7299-.6058-1.0938-.9062-.4866-.4015-.9809-.7876-1.4688-1.1875-2.361-1.9353-4.732-3.8528-7.125-5.75-.4009-.3178-.7857-.652-1.1875-.9687-.227-.1791-.4603-.3527-.6875-.5313-1.4001-1.1003-2.8079-2.194-4.2188-3.2813l-1.0938-.8437c-.8192-.6281-1.6461-1.2514-2.4688-1.875-.9621-.7292-1.9081-1.4644-2.875-2.1875-.4646-.3475-.9406-.6852-1.4063-1.0312-1.3357-.9927-2.6864-1.9879-4.0313-2.9688-.091-.066-.1902-.1212-.2813-.1875-1.0787-.7858-2.1655-1.5656-3.25-2.3437-.4854-.3484-.9509-.7156-1.4375-1.0626-.9632-.6864-1.9386-1.3506-2.9063-2.0312-.4204-.2957-.8287-.6118-1.25-.9062-1.4065-.9835-2.8339-1.9354-4.25-2.9063-1.4782-1.0135-2.9492-2.0315-4.4375-3.0313-2.9626-1.9897-5.9351-3.9406-8.9375-5.875-1.5022-.9677-3.0191-1.9211-4.5313-2.875-1.3085-.8254-2.6217-1.6538-3.9375-2.4687l-1.25-.7813c-.9265-.5704-1.8512-1.1536-2.7813-1.7187-1.9101-1.1607-3.8249-2.2991-5.75-3.4375l-.0312-.031c-3.0668-1.8133-6.1772-3.5878-9.2813-5.3438-.8217-.4648-1.6445-.9456-2.4688-1.4062-.737-.412-1.4796-.8101-2.2188-1.2188-3.1422-1.738-6.2899-3.4461-9.4688-5.125-2.8461-1.5032-5.7188-2.9821-8.5938-4.4375-.3248-.1644-.6437-.3362-.9688-.5-.9038-.4553-1.8121-.8932-2.7188-1.3437-1.3508-.6715-2.7056-1.3394-4.0625-2l-2.0313-1c-.2905-.14-.5842-.2668-.875-.4063-.9938-.4768-2.0029-.9351-3-1.4063-.7334-.3463-1.4524-.7191-2.1875-1.0624l-.0937-.031c-1.4961-.6985-2.9966-1.3768-4.5-2.0625-4.9182-2.2433-9.8816-4.4274-14.875-6.5312-1.6641-.7012-3.3276-1.4083-5-2.0938s-3.35-1.3612-5.0313-2.0312l-1.875-.75c-1.0576-.4172-2.1268-.808-3.1875-1.2188-1.6822-.6514-3.3725-1.3019-5.0625-1.9375-1.5149-.5697-3.0414-1.1618-4.5625-1.7187-1.8796-.6883-3.7672-1.3628-5.6563-2.0313-1.1824-.4185-2.3765-.808-3.5625-1.2187-.532-.1843-1.0611-.3798-1.5938-.5626v-25.6648h-363.5313v25.6648c-1.4297.4905-2.8569.9985-4.2813,1.5-2.0014.7048-4.0091,1.3982-6,2.125-.1576.058-.3114.1298-.4688.1876-1.5452.5655-3.0863,1.1398-4.625,1.7187-2.7314,1.0276-5.4454,2.0873-8.1563,3.1563-2.1184.8351-4.2381,1.6709-6.3438,2.5312-1.8898.772-3.7769,1.5517-5.6563,2.3438-2.012.8478-4.0001,1.7231-6,2.5937-.2987.1301-.6078.2444-.9063.375-2.0807.9102-4.1513,1.8465-6.2188,2.7813-3.8655,1.7474-7.7131,3.5117-11.5313,5.3437-.2724.1307-.5404.275-.8125.4063-4.0807,1.9661-8.1313,3.9697-12.1563,6.0312l-1.5.7812c-1.5005.7743-3.0075,1.5563-4.5,2.3438-.0948.05-.1865.1062-.2813.1562-.2389.1263-.4799.2486-.7188.375-1.6645.8826-3.3142,1.7889-4.9688,2.6876-1.986,1.0785-3.9661,2.148-5.9375,3.25s-3.9223,2.2211-5.875,3.3437-3.904,2.2597-5.8438,3.4063c-.0279.016-.066.015-.0937.031-1.5464.9144-3.0883,1.8525-4.625,2.7812l-2.1563,1.3126c-1.5669.9567-3.1308,1.9345-4.6875,2.9062-3.7885,2.3649-7.5541,4.7664-11.2812,7.2188-1.4945.983-2.9845,1.9717-4.4688,2.9687l-1.2188.8125c-1.8622,1.2579-3.7164,2.5329-5.5624,3.8125s-3.6683,2.5725-5.5,3.875-3.6539,2.6139-5.4688,3.9375c-1.827,1.3324-3.6586,2.6774-5.4688,4.0312-3.5778,2.6762-7.1139,5.3974-10.625,8.1563-.2387.1876-.4802.3745-.7187.5625-1.3986,1.1027-2.7997,2.1968-4.1875,3.3125-1.8739,1.5063-3.7397,3.0327-5.5938,4.5625-1.7297,1.4274-3.444,2.8649-5.1562,4.3125-.5313.4492-1.0642.8928-1.5938,1.3437-2.8835,2.4566-5.7296,4.9552-8.5624,7.4688-1.8805,1.6686-3.7673,3.338-5.625,5.0312-1.4484,1.3203-2.878,2.665-4.3126,4-1.6425,1.529-3.2821,3.0454-4.9062,4.5938-.1229.1172-.2522.2265-.375.3438-.911.8699-1.8135,1.7489-2.7188,2.625-.5809.5623-1.1714,1.1227-1.75,1.6874-1.0699,1.0447-2.1258,2.1031-3.1874,3.1563-.5316.5272-1.0331,1.0646-1.5626,1.5937-1.3543,1.3543-2.7219,2.6945-4.0624,4.0626l-.6876.6874c-1.5645,1.6024-3.1107,3.223-4.6562,4.8438-.0713.075-.1475.144-.2188.2188-1.2295,1.2908-2.4388,2.6036-3.6562,3.9062-1.2146,1.2997-2.4227,2.5951-3.625,3.9062-.498.5431-1.0041,1.08-1.5,1.625l-.3125.3438c-1.3922,1.5327-2.7809,3.0769-4.1563,4.625-.0634.072-.124.1472-.1874.2188-1.5164,1.7085-3.0046,3.4291-4.5,5.1562-1.165,1.3453-2.3165,2.6748-3.4688,4.0312-1.4511,1.7081-2.8816,3.4307-4.3125,5.1563-.5142.6201-1.0197,1.2526-1.5313,1.875-.3282.3994-.6728.7872-1,1.1875-.8461,1.0355-1.6922,2.0834-2.5312,3.125-.279.3464-.5655.6843-.8438,1.0312-2.6744,3.3367-5.307,6.6953-7.9062,10.0938-1.2232,1.5994-2.4187,3.1996-3.625,4.8125-.4999.6684-1.003,1.3293-1.5,2-.8394,1.1327-1.6689,2.2669-2.5,3.4063-2.324,3.186-4.6171,6.3885-6.875,9.625-.3167.4537-.6221.92-.9375,1.375-1.2785,1.8442-2.5556,3.7023-3.8125,5.5624-1.0261,1.5188-2.051,3.0332-3.0625,4.5626-.2283.3451-.4599.6855-.6875,1.0312-.1703.2586-.3302.5224-.5.7812l-.5.7813c-.8914,1.3638-1.7766,2.7219-2.6562,4.0937-1.8509,2.8864-3.6699,5.7653-5.4688,8.6876-.569.9241-1.1237,1.8535-1.6875,2.7812-1.1634,1.9146-2.3277,3.8518-3.4687,5.7812-.131.2214-.2758.4349-.4063.6563-.9088,1.5418-1.7931,3.0738-2.6875,4.625-.1071.1858-.2056.3766-.3125.5625-.7856,1.366-1.5694,2.7205-2.3437,4.0938-.1995.3537-.3951.7083-.5938,1.0624l-.4062.7188c-.5449.9744-1.086,1.9595-1.625,2.9375-.029.053-.065.103-.094.1563-.8335,1.5131-1.6489,3.0409-2.4688,4.5624-1.1901,2.209-2.37,4.4298-3.5312,6.6563-.4989.9566-1.0064,1.9152-1.4999,2.875-.1284.2495-.2472.5003-.375.75-1.0337,2.0177-2.0528,4.0307-3.0625,6.0625-.4651.9357-.9463,1.8738-1.4064,2.8125-.4179.8533-.8358,1.7068-1.25,2.5625-.2216.4585-.4358.9159-.6561,1.375-.5805,1.2081-1.1469,2.4121-1.7189,3.625-1.6094,3.4141-3.1766,6.861-4.7186,10.3125-.2572.5753-.5261,1.1425-.7814,1.7187-.3277.7409-.6437,1.4762-.9686,2.2188-.9128,2.0857-1.7998,4.1825-2.6875,6.2812-.8318,1.9662-1.6591,3.9288-2.4689,5.9063-.051.1256-.1048.2493-.1561.375-.021.052-.01.1043-.031.1563-1.3666,3.3469-2.6969,6.7148-4.0001,10.0937-.5747,1.4901-1.1565,2.9726-1.7188,4.4687-.5519,1.4682-1.0854,2.9324-1.625,4.4063-.5029,1.3726-1.0079,2.7474-1.5,4.125-.2799.7832-.5672,1.559-.8438,2.3437-.6014,1.7077-1.1643,3.4098-1.75,5.125-.1533.4498-.3475.8937-.5,1.3438s-.2535.9196-.4062,1.375c-.5771,1.7196-1.1578,3.4294-1.7188,5.1562-.6175,1.9024-1.2144,3.8076-1.8124,5.7188-.088.283-.2242.5604-.3126.8438-.1164.3742-.1968.7503-.3124,1.125-.5603,1.8148-1.145,3.646-1.6876,5.4687-.6559,2.205-1.2767,4.4087-1.9062,6.625-.3489,1.2277-.6907,2.4563-1.0312,3.6875-.2728.9865-.5448,1.98-.8126,2.9688-.211.78-.417,1.5622-.625,2.3437-.3851,1.4485-.7823,2.8908-1.1562,4.3437l-.25.9688c-.4914,1.9238-.9973,3.8496-1.4688,5.7812-.1827.7493-.3201,1.4998-.5,2.25-.3585,1.4966-.7159,2.999-1.0624,4.5-.274,1.1868-.5461,2.3728-.8126,3.5626-.2398,1.0711-.5161,2.1453-.75,3.2187-.1586.7288-.2814,1.4576-.4374,2.1875-.328,1.5354-.6536,3.085-.9688,4.625-.055.2691-.1014.5432-.1562.8125-.4101,2.0191-.7992,4.0356-1.1876,6.0625-.307,1.6025-.6128,3.2052-.9062,4.8125-.125.6843-.2527,1.3773-.375,2.0625-.2045,1.1441-.3963,2.291-.5938,3.4375s-.4331,2.3126-.625,3.4687c-.01.062.01.125 0,.1876-.372,2.2496-.7171,4.4912-1.0624,6.75-.03.1977-.095.3959-.125.5937-.3219,2.1208-.6396,4.2465-.9376,6.375-.046.332-.079.6678-.125,1-.2753,1.9947-.5581,3.9986-.8124,6-.1394,1.0953-.2732,2.184-.4063,3.2813-.1495,1.2354-.2959,2.4807-.4375,3.7187v.125c-.4917,4.3077-.9501,8.6007-1.3438,12.9375-.032.3523-.062.71-.094,1.0625-.1358,1.5292-.2514,3.0611-.375,4.5937-.1509,1.8729-.3051,3.7472-.4375,5.625-.1333,1.8925-.2603,3.79-.375,5.6876-.1104,1.8279-.2194,3.636-.3125,5.4687v.1875c-.1162,2.3122-.2242,4.6491-.3125,6.9688-.023.5932-.011,1.1873-.031,1.7812-.06,1.7102-.1432,3.4109-.1876,5.125v.2812c-.025.9878-.012,1.9799-.031,2.9688-.039,1.9133-.075,3.832-.094,5.75-.019,1.9146-.031,3.8308-.031,5.75s.012,3.8354.031,5.75c.019,1.918.055,3.8367.094,5.75 .02.9915.01,1.9785.031,2.9688v.2812c.044,1.7141.1283,3.4148.1876,5.125 .021.5959.01,1.1858.031,1.7812 .016.4183.046.8321.062,1.25 .079,1.9633.1508,3.9484.25,5.9063 .093,1.8236.2028,3.6498.3125,5.4687 .1147,1.8976.2417,3.7951.375,5.6876 .1324,1.8778.2866,3.7521.4375,5.625 .1232,1.5268.2399,3.0704.375,4.5937 .032.355.062.7077.094,1.0625 .3937,4.3367.8521,8.6299 1.3438,12.9375v.125c.1425,1.2451.2871,2.4762.4375,3.7187 .1329,1.0964.2669,2.187.4063,3.2813 .2543,2.0014.5371,4.0053.8124,6 .046.3317.079.6685.125,1 .04.2817.085.5623.125.8437 .01.042.025.0831.031.125 .2556,1.8032.5084,3.6088.7813,5.4063 .03.1989.063.395.094.5937 .3453,2.2587.6904,4.5004 1.0625,6.75l.031.1876c.1923,1.159.3946,2.3121.5938,3.4687 .1969,1.1426.3901,2.2973.5938,3.4375 .123.6889.2493,1.3745.375,2.0625 .2943,1.6131.5982,3.2042.9062,4.8125 .04.2082.085.4169.125.625 .4026,2.0876.793,4.1707 1.2188,6.25 .3163,1.5464.6396,3.0833.9687,4.625 .1558.7292.3102,1.4594.4687,2.1875 .2346,1.0761.4785,2.1451.7188,3.2187 .2671,1.1919.538,2.3735.8125,3.5626 .3467,1.501.7039,3.0034 1.0625,4.5 .1792.7469.3494,1.5041.5312,2.25 .036.1467.089.2907.125.4374 .2915,1.1897.5763,2.3758.875,3.5626 .1491.5907.2868,1.1912.4376,1.7812l.25.9688c.3737,1.4526.7711,2.8955 1.1562,4.3437 .2077.7805.4141,1.5647.625,2.3437 .2687.9919.5389,1.9791.8125,2.9688 .3408,1.2321.6822,2.4588 1.0313,3.6875 .6295,2.2163 1.2815,4.42 1.9374,6.625 .022.073.041.1461.063.2187 .6335,2.1265 1.2795,4.2594 1.9374,6.375 .088.283.1929.561.2813.8438 .598,1.9112 1.1949,3.8163 1.8125,5.7188 .5609,1.7269 1.1417,3.4366 1.7188,5.1562 .1533.4568.283.9187.4374,1.375 .153.4513.315.8929.4688,1.3438 .5832,1.7076 1.1511,3.4246 1.75,5.125 0,.012.027.0192.031.0312 .2721.7723.5372,1.5418.8126,2.3125 .493,1.38.9963,2.75 1.5,4.125 .4625,1.2633.9347,2.5222 1.4062,3.7813 .6383,1.7042 1.2833,3.3974 1.9375,5.0937 .5022,1.302.9884,2.6089 1.5001,3.9063 .837,2.1221 1.7003,4.2342 2.5625,6.3437 .6599,1.6148 1.3253,3.2366 2,4.8437 .6987,1.6654 1.4104,3.343 2.125,5 .7125,1.6528 1.4283,3.293 2.1561,4.9376 2.6998,6.0965 5.4979,12.1451 8.4064,18.125 .4503.9261.9195,1.8578 1.375,2.7812 .2519.5109.4964,1.0213.75,1.5312 .3287.6616.6686,1.3088 1,1.9688l.125.25c.6422,1.2779 1.2855,2.5402 1.9375,3.8125 1.7646,3.445 3.5726,6.8781 5.4061,10.2813 .8199,1.5216 1.6353,3.0494 2.4688,4.5624 .029.053.064.1032.094.1563 .5407.9808 1.0784,1.9603 1.625,2.9375 .3282.5872.6696,1.1641 1,1.75l.9062,1.5938c.4798.8443.9535,1.6896 1.4375,2.5312 .1066.1854.2057.3772.3125.5625 .8906,1.5445 1.7826,3.0898 2.6875,4.625 .1303.2211.2756.4352.4063.6563 1.0305,1.7429 2.0761,3.4879 3.125,5.2187 1.2857,2.1214 2.5618,4.2409 3.875,6.3437l.9687,1.5313c.9515,1.5129 1.9095,3.028 2.875,4.5313 .8025,1.2494 1.6254,2.4761 2.4375,3.7187 .3381.5173.6603,1.0464 1,1.5625 2.3899,3.6304 4.8411,7.2416 7.3125,10.8125 .085.1232.1646.2519.25.375 1.2799,1.8461 2.5736,3.6701 3.875,5.5 2.8641,4.0266 5.783,8.0222 8.75,11.9687 .2901.386.5839.7711.875,1.1563 3.0445,4.0281 6.1313,8.0267 9.2813,11.9687l.5624.6876c.9889,1.2336 2.001,2.4625 3,3.6874 .2722.3338.5395.667.8126,1 .6928.8457 1.396,1.6898 2.0937,2.5313 2.0272,2.445 4.0885,4.8715 6.1563,7.2813 1.7047,1.9866 3.3928,3.9752 5.125,5.9374 2.3563,2.6701 4.75,5.3132 7.1562,7.9376 .968,1.0556 1.9304,2.108 2.9062,3.1562l.7188.75c2.4292,2.5994 4.866,5.1659 7.3438,7.7188 1.2389,1.2764 2.4989,2.5478 3.75,3.8124 1.0225,1.0337 2.0321,2.0681 3.0624,3.0938l.6876.6875c1.0591,1.0507 2.12,2.1138 3.1874,3.1563 .2057.2006.4192.3933.625.5937 2.0649,2.0097 4.1546,3.9908 6.25,5.9687 .7904.7461 1.5806,1.5087 2.375,2.25l.5.4688c1.3259,1.2341 2.6625,2.4349 4,3.6562 .3147.2873.6221.5885.9376.875l1.5312,1.375c1.1564,1.0435 2.3035,2.0914 3.4688,3.125 .1652.1468.3343.2909.5.4376 1.5193,1.3447 3.0286,2.6714 4.5624,4 1.1629,1.007 2.3291,2.0022 3.5,2.9999 .5359.4565 1.0562.9205 1.5938,1.375 .819.6924 1.6457,1.3747 2.4688,2.0625 1.368,1.1434 2.7457,2.2758 4.125,3.4063 1.2563,1.0298 2.5157,2.0746 3.7812,3.0937 .1214.098.2535.1835.375.2813 1.3878,1.1156 2.7889,2.2097 4.1875,3.3125 1.3924,1.0978 2.7845,2.1964 4.1875,3.2812l1.8438,1.4375c.7989.6123 1.6039,1.2043 2.4062,1.8125 1.4242,1.0797 2.8465,2.1524 4.2812,3.2188 1.3589,1.0098 2.7256,2.0335 4.0938,3.0312l.2188.1563c1.7441,1.2707 3.4905,2.5302 5.25,3.7813 1.1443.8136 2.2868,1.6009 3.4374,2.4062l2.0626,1.4375c1.4402.9985 2.8935,1.9836 4.3437,2.9687 .4085.2776.8095.5673 1.2187.8438l1.2188.8125c1.4627.9825 2.9339,1.9685 4.4062,2.9375l.0626.031 1.75,1.1563c1.1844.7731 2.3718,1.5481 3.5625,2.3125 .0947.061.1865.1268.2813.1875 1.2886.826 2.5792,1.6217 3.875,2.4375 .6048.3807 1.2061.7778 1.8125,1.1562 1.1435.7138 2.2885,1.4193 3.4375,2.125 1.1355.6975 2.2655,1.373 3.4063,2.0626 3.0572,1.8479 6.1549,3.6778 9.25,5.4687 .4402.2547.8715.5276 1.3125.7813 1.9546,1.1238 3.9057,2.2117 5.875,3.3124 1.6619.929 3.3278,1.8377 5,2.75 .3158.1723.6213.3596.9375.5313l.9375.5c1.6716.9038 3.3495,1.8003 5.0313,2.6875 1.4987.7907 2.9933,1.5661 4.5,2.3438l1.5.7812c1.0973.562 2.211,1.1012 3.3125,1.6562 1.6004.8064 3.2034,1.6149 4.8125,2.4063s3.2224,1.5969 4.8438,2.375c1.248.5987 2.497,1.1914 3.75,1.7813l1.3125.625 .2813.125c1.472.6873 2.9585,1.3563 4.4375,2.0312 1.6421.7493 3.287,1.4849 4.9375,2.2188l3.0313,1.3437c.6878.3008 1.3733.6081 2.0625.9063 1.6104.6966 3.2256,1.3805 4.8438,2.0624 .8302.3499 1.6678.6853 2.5,1.0313 2.8121,1.1691 5.6338,2.3444 8.4688,3.4687l1.0313.4063c1.0274.4051 2.0635.7883 3.0938,1.1875 1.6849.6528 3.3697,1.3006 5.0625,1.9375 1.5421.5802 3.0764,1.1831 4.625,1.75 .1542.056.3145.1.4688.1563 1.6605.6061 3.3322,1.1903 5,1.7812 .0435.015.0815.048.125.062l.875.3125c1.4274.5027 2.8485.9773 4.2813,1.4688v26.7062h363.5313zm-181.75-252.5188c-167.8918,0-304-136.1084-304-304s136.1082-304 304-304 304,136.1085 304,304-136.1084,304-304,304z" fill="#111" stroke="url(#radialGradient4462)" stroke-linecap="round" stroke-linejoin="round" stroke-width="10"/>
<g transform="matrix(1.03641,0,0,1.03641,-2530.5357,-175.65318)">
<path d="m2926.6165,538.5c-102.7733,0-186.0937,83.2893-186.0937,186.0625s83.3204,186.0938 186.0937,186.0938 186.0938-83.3206 186.0938-186.0938-83.3206-186.0625-186.0938-186.0625zm0,114.3125c39.63,0 71.75,32.12 71.75,71.75s-32.12,71.7813-71.75,71.7813-71.75-32.1513-71.75-71.7813 32.1199-71.75 71.75-71.75z" fill="url(#radialGradient3869)" opacity=".307" stroke="#f3eedf" stroke-width="2"/>
<path d="m2926.6322,195.7812c-292.0465,0-528.8125,236.7348-528.8125,528.7813s236.766,528.8125 528.8125,528.8125 528.7811-236.7661 528.7811-528.8125-236.7347-528.7813-528.7811-528.7813zm0,349.5938c98.9607,0 179.1875,80.2267 179.1875,179.1875s-80.2268,179.1875-179.1875,179.1875-179.1875-80.2267-179.1875-179.1875 80.2267-179.1875 179.1875-179.1875z" fill="#b3b3b3" stroke="#6a5555" stroke-width=".8855"/>
<g transform="translate(2421.75,150.007)">
<path d="m504.8823,45.7743c-292.0465,0-528.8125,236.7347-528.8125,528.7812s236.766,528.8125 528.8125,528.8125 528.781-236.766 528.781-528.8125-236.7346-528.7812-528.781-528.7812zm0,349.5937c98.9608,0 179.1875,80.2267 179.1875,179.1875s-80.2267,179.1875-179.1875,179.1875-179.1875-80.2267-179.1875-179.1875 80.2265-179.1875 179.1875-179.1875z" fill="url(#linearGradient4199)" opacity=".4"/>
<path d="m698.25,423.4063c-79.6868,0-144.2813,64.5944-144.2813,144.2813s64.5944,144.2813 144.2813,144.2813 144.2813-64.5944 144.2813-144.2813-64.5944-144.2813-144.2813-144.2813zm0,72.5313c39.63,0 71.75,32.12 71.75,71.75s-32.12,71.7813-71.75,71.7813-71.75-32.1513-71.75-71.7813 32.12-71.75 71.75-71.75z" fill="none" opacity=".158" stroke="#e3eace" stroke-width="3" transform="translate(-193.3678,6.868)"/>
<path d="m504.8508,1103.368c292.0464,0 528.8125-236.7347 528.8125-528.7812s-236.7661-528.8125-528.8125-528.8125-528.781,236.766-528.781,528.8125 236.7347,528.7812 528.781,528.7812zm0-349.5937c-98.9608,0-179.1875-80.2267-179.1875-179.1875s80.2267-179.1875 179.1875-179.1875 179.1875,80.2267 179.1875,179.1875-80.2265,179.1875-179.1875,179.1875z" fill="url(#linearGradient4201)" id="path5378" opacity=".37" stroke="none"/>
</g><text fill="url(#linearGradient4237)" font-family="URW Palladio L" font-size="40" font-weight="500" letter-spacing="0" transform="matrix(-.93135,0,0,-.93135,3390.815,1253.757)" word-spacing="0" xml:space="preserve">
          <textPath fill="url(#linearGradient4237)" font-family="Ume P Gothic O5" font-size="41.027" font-weight="normal" xlink:href="#path5378">DESIGNED BY KOSTAS S.                               DESIGNED BY KOSTAS S.                               DESIGNED BY KOSTAS S.                               DESIGNED BY KOSTAS S.                               </textPath>
        </text>
</g>
<path d="m-185.5043,7.8111h1263.1409a7.8634,7.9456 0 0,1 7.8634,7.9456v1120.0476a7.8634,7.9456 0 0,1 -7.8634,7.9456h-1263.1409a7.8634,7.9456 0 0,1 -7.8634-7.9456v-1120.0476a7.8634,7.9456 0 0,1 7.8634-7.9456" fill="url(#linearGradient3980)" id="glare" opacity=".293"/>
</g>
</svg>
