<svg xmlns="http://www.w3.org/2000/svg" viewBox="0 0 528.593 299.334"><path fill="#131313" d="M12 98.334h504.593v3.333H12z"/><path d="M264.297 100.334H128.765l4.628-86.427C133.391 6.28 140.632 0 149.532 0h114.764m0 4H149.532c-6.357 0-11.529 4.486-11.529 10l-4.406 82.334h130.7M264.298 0h114.764c8.9 0 16.141 6.28 16.139 13.907l4.628 86.427H264.297m0-4h130.7L390.591 14c0-5.514-5.172-10-11.529-10H264.298" fill="#131313"/><path d="M264.297 2h114.765c7.609 0 13.835 5.4 13.835 12l4.516 84.333H131.181L135.696 14c0-6.6 6.226-12 13.835-12h114.766zM11.972 98.417h117.216l4.418-87.5L32.117 26.406c-5.733.915-10.38 5.393-11.777 11.347L7.523 92.397c-.718 3.06 1.47 6.02 4.449 6.02z" fill="#151616"/><path d="M129.636 98.917H11.972c-1.566 0-3.018-.749-3.983-2.055a5.563 5.563 0 0 1-.925-4.586l12.817-54.643c1.448-6.174 6.223-10.774 12.165-11.722l102.062-15.577-4.472 88.583zm3.467-87.418L32.184 26.901c-5.56.887-10.031 5.193-11.386 10.973L7.982 92.517a4.519 4.519 0 0 0 .752 3.729c.785 1.062 1.965 1.671 3.239 1.671H128.74l4.363-86.418z" fill="#131313"/><linearGradient id="a" gradientUnits="userSpaceOnUse" y1="200.5" x2="528.593" y2="200.5"><stop offset="0" stop-color="#151616"/><stop offset=".03" stop-color="#101111"/><stop offset=".97" stop-color="#101111"/><stop offset="1" stop-color="#151616"/></linearGradient><path d="M516.593 299.334H12c-6.6 0-12-5.4-12-12V113.667c0-6.6 5.4-12 12-12h504.593c6.6 0 12 5.4 12 12v173.667c0 6.6-5.4 12-12 12z" fill-rule="evenodd" clip-rule="evenodd" fill="url(#a)"/><path d="M516.622 98.417H399.406l-4.418-87.5 101.489 15.489c5.733.915 10.38 5.393 11.777 11.347l12.817 54.643c.718 3.061-1.47 6.021-4.449 6.021z" fill="#151616"/><path d="M394.486 10.335l102.062 15.577c5.942.947 10.717 5.548 12.165 11.722l12.817 54.643a5.56 5.56 0 0 1-.925 4.586c-.965 1.306-2.417 2.055-3.983 2.055H398.959l-4.473-88.583zm5.369 87.582h116.767c1.274 0 2.454-.609 3.239-1.671a4.527 4.527 0 0 0 .752-3.729l-12.817-54.643c-1.355-5.779-5.826-10.086-11.386-10.973L395.491 11.499l4.364 86.418z" fill="#131313"/><radialGradient id="b" cx="381.63" cy="214.834" r="77.14" gradientTransform="matrix(-.5 -.866 6.9282 -4 -915.967 1404.67)" gradientUnits="userSpaceOnUse"><stop offset="0" stop-color="#111212"/><stop offset=".678" stop-color="#131414"/><stop offset=".921" stop-color="#181b1a"/><stop offset="1" stop-color="#1c1f1e"/></radialGradient><path d="M450.63 299.334h-138v-100c0-38.108 30.892-69 69-69s69 30.892 69 69v100z" fill="url(#b)"/><path d="M433.505 299.334h-103.75v-88.917a4.763 4.763 0 0 1 4.75-4.75h94.25a4.764 4.764 0 0 1 4.75 4.75v88.917z" fill="#0f0f0f"/><g fill="#141414"><path d="M339.765 285h-.104a.865.865 0 0 1-.865-.865v-77.604c0-.477.387-.865.865-.865h.104c.478 0 .865.387.865.865v77.604a.865.865 0 0 1-.865.865zM347.765 285h-.104a.865.865 0 0 1-.865-.865v-77.604c0-.477.387-.865.865-.865h.104c.478 0 .865.387.865.865v77.604a.865.865 0 0 1-.865.865zM355.765 266.84h-.104a.865.865 0 0 1-.865-.865v-59.444c0-.477.387-.865.865-.865h.104c.478 0 .865.387.865.865v59.444a.865.865 0 0 1-.865.865zM364.682 260h-.104a.865.865 0 0 1-.865-.865v-52.604c0-.477.387-.865.865-.865h.104c.478 0 .865.387.865.865v52.604a.866.866 0 0 1-.865.865zM373.598 256.334h-.104a.865.865 0 0 1-.865-.865v-48.938c0-.477.387-.865.865-.865h.104c.477 0 .865.387.865.865v48.938a.865.865 0 0 1-.865.865zM381.682 254.834h-.104a.865.865 0 0 1-.865-.865v-40.243c0-.477.387-.865.865-.865h.104c.477 0 .865.387.865.865v40.243a.866.866 0 0 1-.865.865z"/><path d="M386.44 218.51l-.074.074a.864.864 0 0 1-1.223 0l-4.177-4.177a.864.864 0 0 1 0-1.223l.074-.074a.864.864 0 0 1 1.223 0l4.177 4.177a.866.866 0 0 1 0 1.223z"/><path d="M382.219 213.11l.074.074a.864.864 0 0 1 0 1.223l-4.177 4.177a.864.864 0 0 1-1.223 0l-.074-.074a.864.864 0 0 1 0-1.223l4.177-4.177a.866.866 0 0 1 1.223 0zM423.494 285.042h.104a.865.865 0 0 0 .865-.865v-77.604a.865.865 0 0 0-.865-.865h-.104a.865.865 0 0 0-.865.865v77.604a.866.866 0 0 0 .865.865zM415.494 285.042h.104a.865.865 0 0 0 .865-.865v-77.604a.865.865 0 0 0-.865-.865h-.104a.865.865 0 0 0-.865.865v77.604a.866.866 0 0 0 .865.865zM407.494 266.882h.104a.865.865 0 0 0 .865-.865v-59.444a.865.865 0 0 0-.865-.865h-.104a.865.865 0 0 0-.865.865v59.444a.866.866 0 0 0 .865.865zM398.578 260.042h.104a.865.865 0 0 0 .865-.865v-52.604a.865.865 0 0 0-.865-.865h-.104a.865.865 0 0 0-.865.865v52.604c0 .478.387.865.865.865zM389.661 256.375h.104a.865.865 0 0 0 .865-.865v-48.938a.865.865 0 0 0-.865-.865h-.104a.865.865 0 0 0-.865.865v48.938c0 .478.387.865.865.865z"/></g><path d="M329.755 289.292h19.292v2.625h-19.292z"/><path d="M408.88 299.334h-54.5v-13.283c0-15.05 12.2-27.25 27.25-27.25s27.25 12.2 27.25 27.25v13.283z" fill="#070707"/><path d="M275.996 267.5a4.262 4.262 0 0 1 4.25 4.25v17.917a4.263 4.263 0 0 1-4.25 4.25 4.262 4.262 0 0 1-4.25-4.25V276h-26.783a4.262 4.262 0 0 1-4.25-4.25 4.262 4.262 0 0 1 4.25-4.25h30.917a4.262 4.262 0 0 1 4.25 4.25" fill="#151616"/><circle cx="275.996" cy="290.604" r="2.2" fill="#44f518"/><g fill="#070707"><path d="M245.433 274.104v-5.011h1.237c.461 0 .762.024.904.071.226.078.413.243.56.496s.221.579.221.978c0 .362-.063.666-.19.911s-.285.417-.476.516c-.19.1-.518.148-.983.148h-.504v1.891h-.769zm.768-4.163v1.425h.426c.286 0 .48-.021.583-.064a.534.534 0 0 0 .252-.234.815.815 0 0 0 .099-.417.81.81 0 0 0-.102-.421.512.512 0 0 0-.251-.229c-.1-.039-.311-.059-.632-.059h-.375zM248.83 271.63c0-.597.082-1.089.246-1.475.164-.387.378-.674.642-.863s.584-.283.961-.283c.545 0 .99.224 1.333.673.344.449.516 1.088.516 1.917 0 .839-.182 1.494-.545 1.966-.319.417-.753.626-1.3.626-.552 0-.988-.207-1.307-.619-.364-.473-.546-1.12-.546-1.942zm.793-.034c0 .576.102 1.009.305 1.297.203.288.455.433.756.433.303 0 .554-.143.753-.429.199-.286.298-.726.298-1.317 0-.582-.097-1.011-.291-1.289s-.447-.417-.761-.417-.569.14-.766.421c-.195.278-.294.713-.294 1.301zM253.674 274.104l-.914-5.011h.79l.572 3.443.697-3.443h.917l.669 3.502.588-3.502h.774l-.926 5.011h-.82l-.762-3.748-.755 3.748h-.83zM258.161 274.104v-5.011h2.829v.848h-2.062v1.11h1.916v.845h-1.916v1.36h2.131v.848h-2.898zM261.713 274.104v-5.011h1.621c.415 0 .71.045.888.135s.324.246.438.469c.115.222.172.488.172.798 0 .392-.088.707-.262.947a1.16 1.16 0 0 1-.744.451c.165.127.301.267.409.418.108.151.255.424.44.815l.463.978h-.918l-.557-1.09c-.201-.395-.337-.642-.409-.74a.6.6 0 0 0-.229-.205c-.08-.038-.209-.057-.387-.057h-.159v2.092h-.766zm.768-2.891h.571c.349 0 .571-.017.666-.05s.172-.1.231-.199a.777.777 0 0 0 .089-.4.727.727 0 0 0-.089-.385.451.451 0 0 0-.241-.199c-.072-.025-.28-.038-.625-.038h-.603v1.271z"/></g><path d="M469.646 267.5a4.262 4.262 0 0 0-4.25 4.25v17.917a4.263 4.263 0 0 0 4.25 4.25 4.263 4.263 0 0 0 4.25-4.25V276h26.783a4.263 4.263 0 0 0 4.25-4.25 4.262 4.262 0 0 0-4.25-4.25h-30.917a4.262 4.262 0 0 0-4.25 4.25" fill="#151616"/><circle cx="469.646" cy="290.604" r="2.2" fill="#44f518"/><g fill="#070707"><path d="M488.701 274.604v-5.011h1.237c.461 0 .763.024.903.071.227.078.413.243.561.496.146.253.221.579.221.978 0 .362-.064.666-.191.911s-.285.417-.475.516c-.191.1-.519.148-.984.148h-.504v1.891h-.768zm.767-4.163v1.425h.426c.287 0 .48-.021.584-.064a.53.53 0 0 0 .252-.234.815.815 0 0 0 .1-.417.82.82 0 0 0-.102-.421.51.51 0 0 0-.252-.229c-.1-.039-.311-.059-.633-.059h-.375zM495.304 274.604h-.834l-.334-1.135h-1.527l-.314 1.135h-.818l1.484-5.011h.815l1.528 5.011zm-1.416-1.982l-.526-1.859-.517 1.859h1.043zM495.704 269.594h1.403c.354 0 .622.043.804.128.18.086.346.229.498.433s.271.466.358.79c.087.323.13.726.13 1.206 0 .433-.045.81-.137 1.13-.09.32-.205.573-.345.76a1.36 1.36 0 0 1-.505.423c-.198.095-.452.142-.763.142h-1.444v-5.012zm.768.847v3.315h.576c.248 0 .428-.025.538-.075s.202-.126.272-.227c.071-.102.13-.262.176-.48.047-.218.07-.506.07-.863 0-.371-.023-.664-.071-.878s-.122-.382-.222-.505a.706.706 0 0 0-.367-.243c-.107-.029-.315-.044-.625-.044h-.347z"/></g><path d="M47.046 162.584H11.13a3.928 3.928 0 0 1-3.917-3.917 3.928 3.928 0 0 1 3.917-3.917h35.917a3.928 3.928 0 0 1 3.917 3.917 3.93 3.93 0 0 1-3.918 3.917z" fill="#151616"/><g fill="#070707"><path d="M31.667 159.025l.746.311c-.117.561-.31.97-.581 1.229a1.391 1.391 0 0 1-.999.389c-.497 0-.9-.207-1.208-.619-.355-.477-.533-1.119-.533-1.928 0-.854.179-1.523.536-2.006.312-.42.729-.629 1.254-.629.427 0 .785.156 1.073.471.206.224.355.556.451.995l-.761.239c-.049-.271-.146-.479-.291-.624s-.316-.217-.513-.217c-.282 0-.512.132-.689.396s-.267.7-.267 1.31c0 .631.086 1.08.26 1.346.173.268.398.4.676.4.203 0 .378-.085.526-.255s.255-.439.32-.808zM33.073 160.867v-5.011h.768v1.972h1.513v-1.972h.768v5.011h-.768v-2.191H33.84v2.191h-.767zM38.207 159.541l.708-.113c.019.236.08.417.181.541a.454.454 0 0 0 .359.188c.151 0 .278-.074.382-.223.104-.147.156-.353.156-.615 0-.243-.05-.435-.149-.574-.1-.139-.221-.208-.363-.208-.093 0-.205.024-.334.071l.079-.782a.577.577 0 0 0 .45-.164c.108-.113.163-.273.163-.48 0-.172-.04-.308-.118-.405-.079-.098-.18-.146-.303-.146s-.229.057-.32.169c-.09.113-.144.28-.161.501l-.675-.15c.07-.458.206-.791.41-.998.203-.207.459-.311.769-.311a.99.99 0 0 1 .827.398c.205.267.307.562.307.885 0 .218-.046.415-.138.59-.092.176-.23.329-.414.461a.914.914 0 0 1 .521.406c.134.21.202.473.202.787 0 .457-.126.836-.38 1.136-.253.3-.554.45-.903.45-.334 0-.618-.127-.85-.379-.232-.254-.367-.599-.406-1.035zM40.964 160.953l.945-5.182h.548l-.955 5.182h-.538zM44.11 160.867v-1.008h-1.561v-.842l1.653-3.178h.615v3.175h.473v.845h-.473v1.008h-.707zm0-1.853v-1.711l-.875 1.711h.875z"/></g><circle cx="10.913" cy="158.667" r="2.2" fill="#44f518"/><path d="M58.005 134.584H11.13a3.928 3.928 0 0 1-3.917-3.917 3.928 3.928 0 0 1 3.917-3.917h46.875a3.928 3.928 0 0 1 3.917 3.917 3.93 3.93 0 0 1-3.917 3.917z" fill="#151616"/><g fill="#070707"><path d="M29.705 133.105h-.815l-.327-1.135h-1.492l-.308 1.135h-.8l1.451-5.011h.797l1.494 5.011zm-1.384-1.982l-.515-1.859-.505 1.859h1.02zM30.109 133.105v-5.011h.731l1.525 3.347v-3.347h.701v5.011h-.756l-1.5-3.268v3.268h-.701zM34.697 133.105v-4.163h-1.106v-.848h2.961v.848h-1.104v4.163h-.751zM38.297 131.472l.735-.096c.083.641.354.96.813.96.228 0 .406-.065.536-.196a.663.663 0 0 0 .195-.486.575.575 0 0 0-.068-.291.52.52 0 0 0-.208-.196c-.093-.051-.318-.137-.676-.258-.32-.106-.555-.223-.704-.348a1.3 1.3 0 0 1-.355-.493 1.646 1.646 0 0 1-.132-.658c0-.272.056-.519.169-.737.112-.219.268-.384.466-.495.199-.111.443-.167.735-.167.438 0 .78.131 1.026.393s.376.637.391 1.125l-.753.044c-.033-.269-.104-.457-.214-.563-.109-.107-.266-.161-.468-.161s-.358.047-.468.14a.44.44 0 0 0-.164.348c0 .137.05.251.149.344.1.094.328.196.686.308.378.121.651.248.82.381.168.134.297.306.386.517s.133.466.133.767c0 .436-.122.801-.364 1.098-.243.296-.623.444-1.14.444-.914-.005-1.423-.578-1.526-1.724zM42.489 133.105l-.893-5.011h.772l.56 3.443.681-3.443h.897l.654 3.502.575-3.502h.756l-.905 5.011h-.801l-.745-3.748-.738 3.748h-.813zM46.851 133.105v-5.011h.75v5.011h-.75zM49.161 133.105v-4.163h-1.106v-.848h2.961v.848h-1.104v4.163h-.751zM53.889 131.264l.729.311c-.114.561-.303.97-.567 1.229s-.59.389-.977.389c-.486 0-.879-.207-1.181-.619-.347-.477-.521-1.119-.521-1.928 0-.854.175-1.523.524-2.006.304-.42.713-.629 1.226-.629.418 0 .768.156 1.049.471.201.224.348.556.441.995l-.744.239c-.048-.271-.143-.479-.284-.624a.679.679 0 0 0-.502-.217c-.275 0-.5.132-.674.396s-.261.7-.261 1.31c0 .631.085 1.08.254 1.346.169.268.39.4.661.4.198 0 .37-.085.515-.255.144-.171.248-.439.312-.808zM55.263 133.105v-5.011h.75v1.972h1.479v-1.972h.75v5.011h-.75v-2.191h-1.479v2.191h-.75z"/></g><circle cx="10.663" cy="130.667" r="2.2" fill="#44f518"/><path d="M215.381 219.851H99.214a2.758 2.758 0 0 1-2.75-2.75v-26.333a2.758 2.758 0 0 1 2.75-2.75h116.167a2.759 2.759 0 0 1 2.75 2.75v26.333a2.759 2.759 0 0 1-2.75 2.75z" fill="#181919"/><path d="M200.878 196.761a8.115 8.115 0 0 1 6.353 1.622c1.298 1.002 2.295 2.414 2.852 3.994a9.162 9.162 0 0 1 .062 5.804 8.698 8.698 0 0 1-2.882 4.165c-1.453 1.146-3.273 1.788-5.097 1.75-2.73.026-5.403-1.493-6.903-3.866-1.562-2.397-1.843-5.622-.742-8.279 1.088-2.709 3.571-4.749 6.357-5.19zm-4.242 4.886c-.003.342-.003.684-.002 1.026l.891-.001c.002 1.823 0 3.645.001 5.468h-.892v1.024h2.787v-1.024c-.298 0-.596 0-.893-.002.005-2.161-.004-4.322.004-6.483-.631-.015-1.264-.002-1.896-.008zm3.655.643c.005 2.045-.012 4.091.008 6.136.166.264.424.457.629.69h6.24c.229-.309.712-.519.64-.975-.011-.876.01-1.75-.01-2.625-.128-.234-.35-.396-.525-.59-2.028.009-4.056-.006-6.085.007-.012-.761-.003-1.523-.005-2.285h5.753c-.001.318-.001.637.002.955l.868-.001c0-.449-.004-.9.004-1.349-.18-.198-.366-.391-.551-.583-2.118.007-4.237-.01-6.354.008-.23.176-.411.408-.614.612zM112.303 197.112c.541-.002 1.082.004 1.623-.004.011 4.933.001 9.867.004 14.8h1.828c.004-4.934-.007-9.867.005-14.801.549.01 1.098 0 1.647.007-.006 4.728-.002 9.457-.003 14.185-.006.341.029.69-.053 1.024-.155.718-.826 1.263-1.53 1.26-.654 0-1.308.003-1.962-.002-.854-.017-1.58-.844-1.557-1.729-.009-4.913 0-9.827-.002-14.74zM121.534 197.112c1.126.007 2.253-.013 3.379.009.797.011 1.651.641 1.659 1.529.003 1.8.003 3.6 0 5.4-.006.779-.505 1.59-1.273 1.735.532 2.599 1.054 5.199 1.588 7.797-.51.002-1.02.001-1.531.001-.565-2.568-1.137-5.132-1.701-7.7l-.56-.002c-.001 2.568.001 5.135-.001 7.702h-1.56v-16.471zm1.627 1.629c.002 1.791 0 3.582.001 5.373.601.001 1.202-.003 1.804.003.004-1.792.001-3.585.002-5.377-.603.001-1.205-.001-1.807.001zM131.007 197.115c1.18-.003 2.36-.013 3.539.004.747-.002 1.453.644 1.48 1.436.004 1.737 0 3.476.002 5.214.004.483-.326.865-.651 1.166.314.273.618.627.648 1.074.048.708.017 1.419.026 2.129-.008 1.084.02 2.169-.022 3.253-.014.461.068.954-.153 1.378-.238.513-.786.809-1.319.813-1.181.003-2.361-.005-3.542.003-.011-5.489.003-10.98-.008-16.47zm1.631 1.625c0 1.791-.001 3.584.001 5.375.602-.002 1.203 0 1.805-.001.001-1.791-.002-3.582.002-5.372-.603-.004-1.205-.001-1.808-.002zm.002 7.094c-.004 2.04-.001 4.081-.002 6.121.602-.001 1.205.002 1.807-.001-.003-2.04 0-4.079-.001-6.118-.601-.001-1.203.002-1.804-.002zM141.282 197.204c.48-.144.986-.078 1.479-.092.543.011 1.13-.07 1.627.216.494.274.933.795.917 1.408-.002 4.222-.001 8.444 0 12.666-.006.368.041.758-.121 1.099-.252.549-.752 1.018-1.349 1.079-.535.013-1.07-.003-1.605.005-.313-.003-.639.03-.935-.097-.626-.257-1.142-.901-1.121-1.626.001-4.217.002-8.436 0-12.654.004-.34-.032-.698.104-1.017a1.777 1.777 0 0 1 1.004-.987zm.61 1.56c-.001 4.365.001 8.732-.001 13.097.58.002 1.16.002 1.741 0-.002-4.366 0-8.732-.001-13.097h-1.739z" fill="#f79226"/><path d="M201.228 205.906c1.88.001 3.761-.001 5.642.001-.002.736-.001 1.472-.001 2.209-1.882-.004-3.764.007-5.645-.006.008-.735.001-1.469.004-2.204zM105.54 195.422h-1.532v-1.652h4.905v1.652h-1.532v18.146h-1.841z" fill="#f79226"/><g><path d="M149.919 195.573c-.035-.845.617-1.651 1.414-1.779.65-.026 1.301.001 1.952-.011.937-.103 1.814.82 1.764 1.788-.001.971-.004 1.941.001 2.911-.558.006-1.116.002-1.674.003-.003-.986.005-1.972-.004-2.958-.622.007-1.243.005-1.865.001-.008 5.476-.001 10.952-.004 16.428.64-.003 1.281.006 1.922-.006-.01-2.65-.002-5.301-.004-7.951h-.847v-1.582c.823-.002 1.647.004 2.472-.003.004 3.717.009 7.434-.003 11.149-1.15-.007-2.299-.001-3.449-.002a1.728 1.728 0 0 1-1.58-1.095c-.132-.342-.087-.716-.094-1.074 0-5.273.001-10.546-.001-15.819zM159.373 197.113c1.093.001 2.186-.006 3.279.003.673-.008 1.362.374 1.649 1.024.118.245.087.525.092.789-.004 1.736 0 3.473-.003 5.209-.037.736-.536 1.486-1.263 1.614.54 2.6 1.063 5.204 1.589 7.808l-1.529.001c-.567-2.577-1.14-5.151-1.708-7.727l-.544.004c-.002 2.582.003 5.165-.003 7.747-.52-.003-1.04.001-1.559-.003.003-5.49.001-10.98 0-16.469zm1.584 1.604v5.351c.609.001 1.218-.001 1.828.001.003-1.784.001-3.568.001-5.352h-1.829zM168.629 198.641c.004-.748.6-1.467 1.33-1.502.716-.01 1.432.001 2.149-.006.366-.007.746.091 1.033.338.332.279.506.729.505 1.17v14.919h-1.539c-.001-2.606.001-5.212-.001-7.818-.639.001-1.277.002-1.915-.001-.004 2.607.001 5.213-.004 7.82-.52-.002-1.039-.001-1.559-.001.001-4.973-.002-9.946.001-14.919zm1.604.169c.003 1.762-.005 3.523.004 5.285.608-.007 1.217-.003 1.825-.004-.001-1.761.002-3.521-.002-5.282-.609.002-1.218 0-1.827.001zM177.569 198.549c.005-.722.611-1.402 1.312-1.414.879-.004 1.756.001 2.635-.001v1.466c-.787-.002-1.573.004-2.359-.004-.01 1.84-.003 3.679-.004 5.518.646-.002 1.292-.001 1.939-.001 0 .543-.002 1.085.001 1.628-.647.002-1.293.001-1.94 0-.003 2.606 0 5.212-.001 7.818h-1.583v-15.01zM185.44 197.135h1.65c.01 1.522-.021 3.045.014 4.565.28.488.607.946.899 1.428.287-.471.623-.911.882-1.401.025-1.529.005-3.061.009-4.591.551-.003 1.102-.004 1.654 0-.005 1.093-.001 2.187-.002 3.28-.006.508.046 1.033-.134 1.519-.366 1.017-.916 1.947-1.463 2.865.622 1.042 1.296 2.098 1.581 3.302.033 1.826.009 3.655.012 5.482-.512-.004-1.023-.001-1.535-.002-.005-1.835.011-3.67-.007-5.504-.259-.556-.648-1.041-.959-1.569-.319.51-.655 1.008-.976 1.516-.001 1.854.008 3.707-.004 5.561-.541-.008-1.082-.002-1.622-.004-.001-1.722.002-3.443-.001-5.165-.007-.467.207-.894.384-1.31a21.07 21.07 0 0 1 1.315-2.325c-.644-1.03-1.36-2.059-1.679-3.259-.044-1.459-.004-2.925-.018-4.388z" fill="#d5e14d"/></g><g><path fill="#0b0b0c" d="M0 230.167h308.171v3.75H0z"/><path fill="#353636" d="M0 233.917h308.171v1H0z"/><path fill="#151616" d="M0 234.917h308.171v1H0z"/><path fill="#0b0b0c" d="M0 235.917h308.171v3.75H0z"/><path fill="#353636" d="M0 239.667h308.171v1H0z"/><path fill="#151616" d="M0 240.667h308.171v1H0z"/><path fill="#0b0b0c" d="M0 241.667h308.171v3.75H0z"/><path fill="#353636" d="M0 245.417h308.171v1H0z"/><path fill="#151616" d="M0 246.417h308.171v1H0z"/><path fill="#0b0b0c" d="M0 247.417h308.171v3.75H0z"/><path fill="#353636" d="M0 251.167h308.171v1H0z"/><path fill="#151616" d="M0 252.167h308.171v1H0z"/></g><path fill="#0b0b0c" d="M0 253.167h308.171v3.75H0z"/><path fill="#353636" d="M0 256.917h308.171v1H0z"/><path fill="#151616" d="M0 257.917h308.171v1H0z"/><g><path fill="#0b0b0c" d="M455.088 230.167h73.505v3.75h-73.505z"/><path fill="#353636" d="M455.088 233.917h73.505v1h-73.505z"/><path fill="#151616" d="M455.088 234.917h73.505v1h-73.505z"/><path fill="#0b0b0c" d="M455.088 235.917h73.505v3.75h-73.505z"/><path fill="#353636" d="M455.088 239.667h73.505v1h-73.505z"/><path fill="#151616" d="M455.088 240.667h73.505v1h-73.505z"/><path fill="#0b0b0c" d="M455.088 241.667h73.505v3.75h-73.505z"/><path fill="#353636" d="M455.088 245.417h73.505v1h-73.505z"/><path fill="#151616" d="M455.088 246.417h73.505v1h-73.505z"/><path fill="#0b0b0c" d="M455.088 247.417h73.505v3.75h-73.505z"/><path fill="#353636" d="M455.088 251.167h73.505v1h-73.505z"/><path fill="#151616" d="M455.088 252.167h73.505v1h-73.505z"/><path fill="#0b0b0c" d="M455.088 253.167h73.505v3.75h-73.505z"/><path fill="#353636" d="M455.088 256.917h73.505v1h-73.505z"/><path fill="#151616" d="M455.088 257.917h73.505v1h-73.505z"/></g><g><path d="M495.235 117.937l-4.636-4.158-2.106 1.803 1.011.692-1.207 5.004 2.423-.796-1.251-.867.694-2.646 4.883 4.214 1.686-5.746 1.707-.773-2.064-.94-1.14 4.213zm4.083-3.462c.146.124.329.282.287.45l-.57 2.247c-.045.176-.253.303-.416.391-.163.088-.364.111-.564.135.173.051.346.102.462.196.117.094.277.228.235.369l-.652 2.189c-.061.202-.336.328-.531.438-.195.11-.418.166-.641.222h7.8l.548-2.19c-.3.455-.6.909-1.111 1.201-.512.291-1.213.547-1.955.547h-1.429l.713-2.71c.259-.067.552-.06.816.036.265.095.5.281.713.483.211.202.397.419.545.65l.747-2.85c-.255.209-.54.399-.846.569-.307.171-.634.323-.941.398a1.857 1.857 0 0 1-.859.017l.739-2.668 1.15-.008c.521-.003 1.041-.05 1.46.207.421.258.743.798 1.063 1.339l.569-1.953h-7.929c.225.087.449.171.597.295zm9.344.684c-.583.372-1.11.867-1.46 1.407-.35.539-.528 1.125-.537 1.66a2.58 2.58 0 0 0 .441 1.472c.293.448.718.855 1.243 1.13.527.276 1.152.42 1.727.486a6.97 6.97 0 0 0 1.511.011 3.45 3.45 0 0 0 .997-.234l1.645-2.56c-.426.15-.86.287-1.309.425-.45.139-.915.281-1.409.325-.494.044-1.017-.008-1.481-.214-.464-.206-.869-.567-1.079-.972a1.544 1.544 0 0 1-.078-1.256c.147-.404.458-.765.835-1.08.377-.315.82-.587 1.232-.765a3.33 3.33 0 0 1 1.182-.286l1.243 1.341 1.43-.4-1.003-1.837a8.157 8.157 0 0 0-.903.028c-.336.027-.725.074-1.128.151a9.766 9.766 0 0 0-1.35.366c-.527.179-1.167.43-1.749.802z" fill-rule="evenodd" clip-rule="evenodd" fill="#181919"/></g></svg>