<svg xmlns="http://www.w3.org/2000/svg" viewBox="0 0 663.15 299.334"><path fill="#131313" d="M12 98.334h504.593v3.333H12z"/><path d="M264.297 100.334H128.765l4.628-86.427C133.391 6.28 140.632 0 149.532 0h114.764m0 4H149.532c-6.357 0-11.529 4.486-11.529 10l-4.406 82.334h130.7M264.298 0h114.764c8.9 0 16.141 6.28 16.139 13.907l4.628 86.427H264.297m0-4h130.7L390.591 14c0-5.514-5.172-10-11.529-10H264.298" fill="#131313"/><path d="M264.297 2h114.765c7.609 0 13.835 5.4 13.835 12l4.516 84.333H131.181L135.696 14c0-6.6 6.226-12 13.835-12h114.766zM11.972 98.417h117.216l4.418-87.5L32.117 26.406c-5.733.915-10.38 5.393-11.777 11.347L7.523 92.397c-.718 3.06 1.47 6.02 4.449 6.02z" fill="#151616"/><path d="M129.636 98.917H11.972c-1.566 0-3.018-.749-3.983-2.055a5.563 5.563 0 0 1-.925-4.586l12.817-54.643c1.448-6.174 6.223-10.774 12.165-11.722l102.062-15.577-4.472 88.583zm3.467-87.418L32.184 26.901c-5.56.887-10.031 5.193-11.386 10.973L7.982 92.517a4.519 4.519 0 0 0 .752 3.729c.785 1.062 1.965 1.671 3.239 1.671H128.74l4.363-86.418z" fill="#131313"/><linearGradient id="a" gradientUnits="userSpaceOnUse" y1="200.5" x2="528.593" y2="200.5"><stop offset="0" stop-color="#151616"/><stop offset=".03" stop-color="#101111"/><stop offset=".97" stop-color="#101111"/><stop offset="1" stop-color="#151616"/></linearGradient><path d="M516.593 299.334H12c-6.6 0-12-5.4-12-12V113.667c0-6.6 5.4-12 12-12h504.593c6.6 0 12 5.4 12 12v173.667c0 6.6-5.4 12-12 12z" fill-rule="evenodd" clip-rule="evenodd" fill="url(#a)"/><path d="M516.622 98.417H399.406l-4.418-87.5 101.489 15.489c5.733.915 10.38 5.393 11.777 11.347l12.817 54.643c.718 3.061-1.47 6.021-4.449 6.021z" fill="#151616"/><path d="M394.486 10.335l102.062 15.577c5.942.947 10.717 5.548 12.165 11.722l12.817 54.643a5.56 5.56 0 0 1-.925 4.586c-.965 1.306-2.417 2.055-3.983 2.055H398.959l-4.473-88.583zm5.369 87.582h116.767c1.274 0 2.454-.609 3.239-1.671a4.527 4.527 0 0 0 .752-3.729l-12.817-54.643c-1.355-5.779-5.826-10.086-11.386-10.973L395.491 11.499l4.364 86.418z" fill="#131313"/><radialGradient id="b" cx="381.63" cy="214.834" r="77.14" gradientTransform="matrix(-.5 -.866 6.9282 -4 -915.967 1404.67)" gradientUnits="userSpaceOnUse"><stop offset="0" stop-color="#111212"/><stop offset=".678" stop-color="#131414"/><stop offset=".921" stop-color="#181b1a"/><stop offset="1" stop-color="#1c1f1e"/></radialGradient><path d="M450.63 299.334h-138v-100c0-38.108 30.892-69 69-69s69 30.892 69 69v100z" fill="url(#b)"/><path d="M433.505 299.334h-103.75v-88.917a4.763 4.763 0 0 1 4.75-4.75h94.25a4.764 4.764 0 0 1 4.75 4.75v88.917z" fill="#0f0f0f"/><g fill="#141414"><path d="M339.765 285h-.104a.865.865 0 0 1-.865-.865v-77.604c0-.477.387-.865.865-.865h.104c.478 0 .865.387.865.865v77.604a.865.865 0 0 1-.865.865zM347.765 285h-.104a.865.865 0 0 1-.865-.865v-77.604c0-.477.387-.865.865-.865h.104c.478 0 .865.387.865.865v77.604a.865.865 0 0 1-.865.865zM355.765 266.84h-.104a.865.865 0 0 1-.865-.865v-59.444c0-.477.387-.865.865-.865h.104c.478 0 .865.387.865.865v59.444a.865.865 0 0 1-.865.865zM364.682 260h-.104a.865.865 0 0 1-.865-.865v-52.604c0-.477.387-.865.865-.865h.104c.478 0 .865.387.865.865v52.604a.866.866 0 0 1-.865.865zM373.598 256.334h-.104a.865.865 0 0 1-.865-.865v-48.938c0-.477.387-.865.865-.865h.104c.477 0 .865.387.865.865v48.938a.865.865 0 0 1-.865.865zM381.682 254.834h-.104a.865.865 0 0 1-.865-.865v-40.243c0-.477.387-.865.865-.865h.104c.477 0 .865.387.865.865v40.243a.866.866 0 0 1-.865.865z"/><path d="M386.44 218.51l-.074.074a.864.864 0 0 1-1.223 0l-4.177-4.177a.864.864 0 0 1 0-1.223l.074-.074a.864.864 0 0 1 1.223 0l4.177 4.177a.866.866 0 0 1 0 1.223z"/><path d="M382.219 213.11l.074.074a.864.864 0 0 1 0 1.223l-4.177 4.177a.864.864 0 0 1-1.223 0l-.074-.074a.864.864 0 0 1 0-1.223l4.177-4.177a.866.866 0 0 1 1.223 0zM423.494 285.042h.104a.865.865 0 0 0 .865-.865v-77.604a.865.865 0 0 0-.865-.865h-.104a.865.865 0 0 0-.865.865v77.604a.866.866 0 0 0 .865.865zM415.494 285.042h.104a.865.865 0 0 0 .865-.865v-77.604a.865.865 0 0 0-.865-.865h-.104a.865.865 0 0 0-.865.865v77.604a.866.866 0 0 0 .865.865zM407.494 266.882h.104a.865.865 0 0 0 .865-.865v-59.444a.865.865 0 0 0-.865-.865h-.104a.865.865 0 0 0-.865.865v59.444a.866.866 0 0 0 .865.865zM398.578 260.042h.104a.865.865 0 0 0 .865-.865v-52.604a.865.865 0 0 0-.865-.865h-.104a.865.865 0 0 0-.865.865v52.604c0 .478.387.865.865.865zM389.661 256.375h.104a.865.865 0 0 0 .865-.865v-48.938a.865.865 0 0 0-.865-.865h-.104a.865.865 0 0 0-.865.865v48.938c0 .478.387.865.865.865z"/></g><path d="M329.755 289.292h19.292v2.625h-19.292z"/><path d="M408.88 299.334h-54.5v-13.283c0-15.05 12.2-27.25 27.25-27.25s27.25 12.2 27.25 27.25v13.283z" fill="#070707"/><path d="M275.996 267.5a4.262 4.262 0 0 1 4.25 4.25v17.917a4.263 4.263 0 0 1-4.25 4.25 4.262 4.262 0 0 1-4.25-4.25V276h-26.783a4.262 4.262 0 0 1-4.25-4.25 4.262 4.262 0 0 1 4.25-4.25h30.917a4.262 4.262 0 0 1 4.25 4.25" fill="#151616"/><circle cx="275.996" cy="290.604" r="2.2" fill="#44f518"/><g fill="#070707"><path d="M245.433 274.104v-5.011h1.237c.461 0 .762.024.904.071.226.078.413.243.56.496s.221.579.221.978c0 .362-.063.666-.19.911s-.285.417-.476.516c-.19.1-.518.148-.983.148h-.504v1.891h-.769zm.768-4.163v1.425h.426c.286 0 .48-.021.583-.064a.534.534 0 0 0 .252-.234.815.815 0 0 0 .099-.417.81.81 0 0 0-.102-.421.512.512 0 0 0-.251-.229c-.1-.039-.311-.059-.632-.059h-.375zM248.83 271.63c0-.597.082-1.089.246-1.475.164-.387.378-.674.642-.863s.584-.283.961-.283c.545 0 .99.224 1.333.673.344.449.516 1.088.516 1.917 0 .839-.182 1.494-.545 1.966-.319.417-.753.626-1.3.626-.552 0-.988-.207-1.307-.619-.364-.473-.546-1.12-.546-1.942zm.793-.034c0 .576.102 1.009.305 1.297.203.288.455.433.756.433.303 0 .554-.143.753-.429.199-.286.298-.726.298-1.317 0-.582-.097-1.011-.291-1.289s-.447-.417-.761-.417-.569.14-.766.421c-.195.278-.294.713-.294 1.301zM253.674 274.104l-.914-5.011h.79l.572 3.443.697-3.443h.917l.669 3.502.588-3.502h.774l-.926 5.011h-.82l-.762-3.748-.755 3.748h-.83zM258.161 274.104v-5.011h2.829v.848h-2.062v1.11h1.916v.845h-1.916v1.36h2.131v.848h-2.898zM261.713 274.104v-5.011h1.621c.415 0 .71.045.888.135s.324.246.438.469c.115.222.172.488.172.798 0 .392-.088.707-.262.947a1.16 1.16 0 0 1-.744.451c.165.127.301.267.409.418.108.151.255.424.44.815l.463.978h-.918l-.557-1.09c-.201-.395-.337-.642-.409-.74a.6.6 0 0 0-.229-.205c-.08-.038-.209-.057-.387-.057h-.159v2.092h-.766zm.768-2.891h.571c.349 0 .571-.017.666-.05s.172-.1.231-.199a.777.777 0 0 0 .089-.4.727.727 0 0 0-.089-.385.451.451 0 0 0-.241-.199c-.072-.025-.28-.038-.625-.038h-.603v1.271z"/></g><path d="M469.646 267.5a4.262 4.262 0 0 0-4.25 4.25v17.917a4.263 4.263 0 0 0 4.25 4.25 4.263 4.263 0 0 0 4.25-4.25V276h26.783a4.263 4.263 0 0 0 4.25-4.25 4.262 4.262 0 0 0-4.25-4.25h-30.917a4.262 4.262 0 0 0-4.25 4.25" fill="#151616"/><circle cx="469.646" cy="290.604" r="2.2" fill="#44f518"/><g fill="#070707"><path d="M488.701 274.604v-5.011h1.237c.461 0 .763.024.903.071.227.078.413.243.561.496.146.253.221.579.221.978 0 .362-.064.666-.191.911s-.285.417-.475.516c-.191.1-.519.148-.984.148h-.504v1.891h-.768zm.767-4.163v1.425h.426c.287 0 .48-.021.584-.064a.53.53 0 0 0 .252-.234.815.815 0 0 0 .1-.417.82.82 0 0 0-.102-.421.51.51 0 0 0-.252-.229c-.1-.039-.311-.059-.633-.059h-.375zM495.304 274.604h-.834l-.334-1.135h-1.527l-.314 1.135h-.818l1.484-5.011h.815l1.528 5.011zm-1.416-1.982l-.526-1.859-.517 1.859h1.043zM495.704 269.594h1.403c.354 0 .622.043.804.128.18.086.346.229.498.433s.271.466.358.79c.087.323.13.726.13 1.206 0 .433-.045.81-.137 1.13-.09.32-.205.573-.345.76a1.36 1.36 0 0 1-.505.423c-.198.095-.452.142-.763.142h-1.444v-5.012zm.768.847v3.315h.576c.248 0 .428-.025.538-.075s.202-.126.272-.227c.071-.102.13-.262.176-.48.047-.218.07-.506.07-.863 0-.371-.023-.664-.071-.878s-.122-.382-.222-.505a.706.706 0 0 0-.367-.243c-.107-.029-.315-.044-.625-.044h-.347z"/></g><path d="M47.046 162.584H11.13a3.928 3.928 0 0 1-3.917-3.917 3.928 3.928 0 0 1 3.917-3.917h35.917a3.928 3.928 0 0 1 3.917 3.917 3.93 3.93 0 0 1-3.918 3.917z" fill="#151616"/><g fill="#070707"><path d="M31.667 159.025l.746.311c-.117.561-.31.97-.581 1.229a1.391 1.391 0 0 1-.999.389c-.497 0-.9-.207-1.208-.619-.355-.477-.533-1.119-.533-1.928 0-.854.179-1.523.536-2.006.312-.42.729-.629 1.254-.629.427 0 .785.156 1.073.471.206.224.355.556.451.995l-.761.239c-.049-.271-.146-.479-.291-.624s-.316-.217-.513-.217c-.282 0-.512.132-.689.396s-.267.7-.267 1.31c0 .631.086 1.08.26 1.346.173.268.398.4.676.4.203 0 .378-.085.526-.255s.255-.439.32-.808zM33.073 160.867v-5.011h.768v1.972h1.513v-1.972h.768v5.011h-.768v-2.191H33.84v2.191h-.767zM38.207 159.541l.708-.113c.019.236.08.417.181.541a.454.454 0 0 0 .359.188c.151 0 .278-.074.382-.223.104-.147.156-.353.156-.615 0-.243-.05-.435-.149-.574-.1-.139-.221-.208-.363-.208-.093 0-.205.024-.334.071l.079-.782a.577.577 0 0 0 .45-.164c.108-.113.163-.273.163-.48 0-.172-.04-.308-.118-.405-.079-.098-.18-.146-.303-.146s-.229.057-.32.169c-.09.113-.144.28-.161.501l-.675-.15c.07-.458.206-.791.41-.998.203-.207.459-.311.769-.311a.99.99 0 0 1 .827.398c.205.267.307.562.307.885 0 .218-.046.415-.138.59-.092.176-.23.329-.414.461a.914.914 0 0 1 .521.406c.134.21.202.473.202.787 0 .457-.126.836-.38 1.136-.253.3-.554.45-.903.45-.334 0-.618-.127-.85-.379-.232-.254-.367-.599-.406-1.035zM40.964 160.953l.945-5.182h.548l-.955 5.182h-.538zM44.11 160.867v-1.008h-1.561v-.842l1.653-3.178h.615v3.175h.473v.845h-.473v1.008h-.707zm0-1.853v-1.711l-.875 1.711h.875z"/></g><circle cx="10.913" cy="158.667" r="2.2" fill="#44f518"/><path d="M58.005 134.584H11.13a3.928 3.928 0 0 1-3.917-3.917 3.928 3.928 0 0 1 3.917-3.917h46.875a3.928 3.928 0 0 1 3.917 3.917 3.93 3.93 0 0 1-3.917 3.917z" fill="#151616"/><g fill="#070707"><path d="M29.705 133.105h-.815l-.327-1.135h-1.492l-.308 1.135h-.8l1.451-5.011h.797l1.494 5.011zm-1.384-1.982l-.515-1.859-.505 1.859h1.02zM30.109 133.105v-5.011h.731l1.525 3.347v-3.347h.701v5.011h-.756l-1.5-3.268v3.268h-.701zM34.697 133.105v-4.163h-1.106v-.848h2.961v.848h-1.104v4.163h-.751zM38.297 131.472l.735-.096c.083.641.354.96.813.96.228 0 .406-.065.536-.196a.663.663 0 0 0 .195-.486.575.575 0 0 0-.068-.291.52.52 0 0 0-.208-.196c-.093-.051-.318-.137-.676-.258-.32-.106-.555-.223-.704-.348a1.3 1.3 0 0 1-.355-.493 1.646 1.646 0 0 1-.132-.658c0-.272.056-.519.169-.737.112-.219.268-.384.466-.495.199-.111.443-.167.735-.167.438 0 .78.131 1.026.393s.376.637.391 1.125l-.753.044c-.033-.269-.104-.457-.214-.563-.109-.107-.266-.161-.468-.161s-.358.047-.468.14a.44.44 0 0 0-.164.348c0 .137.05.251.149.344.1.094.328.196.686.308.378.121.651.248.82.381.168.134.297.306.386.517s.133.466.133.767c0 .436-.122.801-.364 1.098-.243.296-.623.444-1.14.444-.914-.005-1.423-.578-1.526-1.724zM42.489 133.105l-.893-5.011h.772l.56 3.443.681-3.443h.897l.654 3.502.575-3.502h.756l-.905 5.011h-.801l-.745-3.748-.738 3.748h-.813zM46.851 133.105v-5.011h.75v5.011h-.75zM49.161 133.105v-4.163h-1.106v-.848h2.961v.848h-1.104v4.163h-.751zM53.889 131.264l.729.311c-.114.561-.303.97-.567 1.229s-.59.389-.977.389c-.486 0-.879-.207-1.181-.619-.347-.477-.521-1.119-.521-1.928 0-.854.175-1.523.524-2.006.304-.42.713-.629 1.226-.629.418 0 .768.156 1.049.471.201.224.348.556.441.995l-.744.239c-.048-.271-.143-.479-.284-.624a.679.679 0 0 0-.502-.217c-.275 0-.5.132-.674.396s-.261.7-.261 1.31c0 .631.085 1.08.254 1.346.169.268.39.4.661.4.198 0 .37-.085.515-.255.144-.171.248-.439.312-.808zM55.263 133.105v-5.011h.75v1.972h1.479v-1.972h.75v5.011h-.75v-2.191h-1.479v2.191h-.75z"/></g><circle cx="10.663" cy="130.667" r="2.2" fill="#44f518"/><path d="M215.381 219.851H99.214a2.758 2.758 0 0 1-2.75-2.75v-26.333a2.758 2.758 0 0 1 2.75-2.75h116.167a2.759 2.759 0 0 1 2.75 2.75v26.333a2.759 2.759 0 0 1-2.75 2.75z" fill="#181919"/><path d="M200.878 196.761a8.115 8.115 0 0 1 6.353 1.622c1.298 1.002 2.295 2.414 2.852 3.994a9.162 9.162 0 0 1 .062 5.804 8.698 8.698 0 0 1-2.882 4.165c-1.453 1.146-3.273 1.788-5.097 1.75-2.73.026-5.403-1.493-6.903-3.866-1.562-2.397-1.843-5.622-.742-8.279 1.088-2.709 3.571-4.749 6.357-5.19zm-4.242 4.886c-.003.342-.003.684-.002 1.026l.891-.001c.002 1.823 0 3.645.001 5.468h-.892v1.024h2.787v-1.024c-.298 0-.596 0-.893-.002.005-2.161-.004-4.322.004-6.483-.631-.015-1.264-.002-1.896-.008zm3.655.643c.005 2.045-.012 4.091.008 6.136.166.264.424.457.629.69h6.24c.229-.309.712-.519.64-.975-.011-.876.01-1.75-.01-2.625-.128-.234-.35-.396-.525-.59-2.028.009-4.056-.006-6.085.007-.012-.761-.003-1.523-.005-2.285h5.753c-.001.318-.001.637.002.955l.868-.001c0-.449-.004-.9.004-1.349-.18-.198-.366-.391-.551-.583-2.118.007-4.237-.01-6.354.008-.23.176-.411.408-.614.612zM112.303 197.112c.541-.002 1.082.004 1.623-.004.011 4.933.001 9.867.004 14.8h1.828c.004-4.934-.007-9.867.005-14.801.549.01 1.098 0 1.647.007-.006 4.728-.002 9.457-.003 14.185-.006.341.029.69-.053 1.024-.155.718-.826 1.263-1.53 1.26-.654 0-1.308.003-1.962-.002-.854-.017-1.58-.844-1.557-1.729-.009-4.913 0-9.827-.002-14.74zM121.534 197.112c1.126.007 2.253-.013 3.379.009.797.011 1.651.641 1.659 1.529.003 1.8.003 3.6 0 5.4-.006.779-.505 1.59-1.273 1.735.532 2.599 1.054 5.199 1.588 7.797-.51.002-1.02.001-1.531.001-.565-2.568-1.137-5.132-1.701-7.7l-.56-.002c-.001 2.568.001 5.135-.001 7.702h-1.56v-16.471zm1.627 1.629c.002 1.791 0 3.582.001 5.373.601.001 1.202-.003 1.804.003.004-1.792.001-3.585.002-5.377-.603.001-1.205-.001-1.807.001zM131.007 197.115c1.18-.003 2.36-.013 3.539.004.747-.002 1.453.644 1.48 1.436.004 1.737 0 3.476.002 5.214.004.483-.326.865-.651 1.166.314.273.618.627.648 1.074.048.708.017 1.419.026 2.129-.008 1.084.02 2.169-.022 3.253-.014.461.068.954-.153 1.378-.238.513-.786.809-1.319.813-1.181.003-2.361-.005-3.542.003-.011-5.489.003-10.98-.008-16.47zm1.631 1.625c0 1.791-.001 3.584.001 5.375.602-.002 1.203 0 1.805-.001.001-1.791-.002-3.582.002-5.372-.603-.004-1.205-.001-1.808-.002zm.002 7.094c-.004 2.04-.001 4.081-.002 6.121.602-.001 1.205.002 1.807-.001-.003-2.04 0-4.079-.001-6.118-.601-.001-1.203.002-1.804-.002zM141.282 197.204c.48-.144.986-.078 1.479-.092.543.011 1.13-.07 1.627.216.494.274.933.795.917 1.408-.002 4.222-.001 8.444 0 12.666-.006.368.041.758-.121 1.099-.252.549-.752 1.018-1.349 1.079-.535.013-1.07-.003-1.605.005-.313-.003-.639.03-.935-.097-.626-.257-1.142-.901-1.121-1.626.001-4.217.002-8.436 0-12.654.004-.34-.032-.698.104-1.017a1.777 1.777 0 0 1 1.004-.987zm.61 1.56c-.001 4.365.001 8.732-.001 13.097.58.002 1.16.002 1.741 0-.002-4.366 0-8.732-.001-13.097h-1.739z" fill="#f79226"/><path d="M201.228 205.906c1.88.001 3.761-.001 5.642.001-.002.736-.001 1.472-.001 2.209-1.882-.004-3.764.007-5.645-.006.008-.735.001-1.469.004-2.204zM105.54 195.422h-1.532v-1.652h4.905v1.652h-1.532v18.146h-1.841z" fill="#f79226"/><g><path d="M149.919 195.573c-.035-.845.617-1.651 1.414-1.779.65-.026 1.301.001 1.952-.011.937-.103 1.814.82 1.764 1.788-.001.971-.004 1.941.001 2.911-.558.006-1.116.002-1.674.003-.003-.986.005-1.972-.004-2.958-.622.007-1.243.005-1.865.001-.008 5.476-.001 10.952-.004 16.428.64-.003 1.281.006 1.922-.006-.01-2.65-.002-5.301-.004-7.951h-.847v-1.582c.823-.002 1.647.004 2.472-.003.004 3.717.009 7.434-.003 11.149-1.15-.007-2.299-.001-3.449-.002a1.728 1.728 0 0 1-1.58-1.095c-.132-.342-.087-.716-.094-1.074 0-5.273.001-10.546-.001-15.819zM159.373 197.113c1.093.001 2.186-.006 3.279.003.673-.008 1.362.374 1.649 1.024.118.245.087.525.092.789-.004 1.736 0 3.473-.003 5.209-.037.736-.536 1.486-1.263 1.614.54 2.6 1.063 5.204 1.589 7.808l-1.529.001c-.567-2.577-1.14-5.151-1.708-7.727l-.544.004c-.002 2.582.003 5.165-.003 7.747-.52-.003-1.04.001-1.559-.003.003-5.49.001-10.98 0-16.469zm1.584 1.604v5.351c.609.001 1.218-.001 1.828.001.003-1.784.001-3.568.001-5.352h-1.829zM168.629 198.641c.004-.748.6-1.467 1.33-1.502.716-.01 1.432.001 2.149-.006.366-.007.746.091 1.033.338.332.279.506.729.505 1.17v14.919h-1.539c-.001-2.606.001-5.212-.001-7.818-.639.001-1.277.002-1.915-.001-.004 2.607.001 5.213-.004 7.82-.52-.002-1.039-.001-1.559-.001.001-4.973-.002-9.946.001-14.919zm1.604.169c.003 1.762-.005 3.523.004 5.285.608-.007 1.217-.003 1.825-.004-.001-1.761.002-3.521-.002-5.282-.609.002-1.218 0-1.827.001zM177.569 198.549c.005-.722.611-1.402 1.312-1.414.879-.004 1.756.001 2.635-.001v1.466c-.787-.002-1.573.004-2.359-.004-.01 1.84-.003 3.679-.004 5.518.646-.002 1.292-.001 1.939-.001 0 .543-.002 1.085.001 1.628-.647.002-1.293.001-1.94 0-.003 2.606 0 5.212-.001 7.818h-1.583v-15.01zM185.44 197.135h1.65c.01 1.522-.021 3.045.014 4.565.28.488.607.946.899 1.428.287-.471.623-.911.882-1.401.025-1.529.005-3.061.009-4.591.551-.003 1.102-.004 1.654 0-.005 1.093-.001 2.187-.002 3.28-.006.508.046 1.033-.134 1.519-.366 1.017-.916 1.947-1.463 2.865.622 1.042 1.296 2.098 1.581 3.302.033 1.826.009 3.655.012 5.482-.512-.004-1.023-.001-1.535-.002-.005-1.835.011-3.67-.007-5.504-.259-.556-.648-1.041-.959-1.569-.319.51-.655 1.008-.976 1.516-.001 1.854.008 3.707-.004 5.561-.541-.008-1.082-.002-1.622-.004-.001-1.722.002-3.443-.001-5.165-.007-.467.207-.894.384-1.31a21.07 21.07 0 0 1 1.315-2.325c-.644-1.03-1.36-2.059-1.679-3.259-.044-1.459-.004-2.925-.018-4.388z" fill="#d5e14d"/></g><g><path fill="#0b0b0c" d="M0 230.167h308.171v3.75H0z"/><path fill="#353636" d="M0 233.917h308.171v1H0z"/><path fill="#151616" d="M0 234.917h308.171v1H0z"/><path fill="#0b0b0c" d="M0 235.917h308.171v3.75H0z"/><path fill="#353636" d="M0 239.667h308.171v1H0z"/><path fill="#151616" d="M0 240.667h308.171v1H0z"/><path fill="#0b0b0c" d="M0 241.667h308.171v3.75H0z"/><path fill="#353636" d="M0 245.417h308.171v1H0z"/><path fill="#151616" d="M0 246.417h308.171v1H0z"/><path fill="#0b0b0c" d="M0 247.417h308.171v3.75H0z"/><path fill="#353636" d="M0 251.167h308.171v1H0z"/><path fill="#151616" d="M0 252.167h308.171v1H0z"/></g><path fill="#0b0b0c" d="M0 253.167h308.171v3.75H0z"/><path fill="#353636" d="M0 256.917h308.171v1H0z"/><path fill="#151616" d="M0 257.917h308.171v1H0z"/><g><path fill="#0b0b0c" d="M455.088 230.167h73.505v3.75h-73.505z"/><path fill="#353636" d="M455.088 233.917h73.505v1h-73.505z"/><path fill="#151616" d="M455.088 234.917h73.505v1h-73.505z"/><path fill="#0b0b0c" d="M455.088 235.917h73.505v3.75h-73.505z"/><path fill="#353636" d="M455.088 239.667h73.505v1h-73.505z"/><path fill="#151616" d="M455.088 240.667h73.505v1h-73.505z"/><path fill="#0b0b0c" d="M455.088 241.667h73.505v3.75h-73.505z"/><path fill="#353636" d="M455.088 245.417h73.505v1h-73.505z"/><path fill="#151616" d="M455.088 246.417h73.505v1h-73.505z"/><path fill="#0b0b0c" d="M455.088 247.417h73.505v3.75h-73.505z"/><path fill="#353636" d="M455.088 251.167h73.505v1h-73.505z"/><path fill="#151616" d="M455.088 252.167h73.505v1h-73.505z"/><path fill="#0b0b0c" d="M455.088 253.167h73.505v3.75h-73.505z"/><path fill="#353636" d="M455.088 256.917h73.505v1h-73.505z"/><path fill="#151616" d="M455.088 257.917h73.505v1h-73.505z"/></g><g><path d="M495.235 117.937l-4.636-4.158-2.106 1.803 1.011.692-1.207 5.004 2.423-.796-1.251-.867.694-2.646 4.883 4.214 1.686-5.746 1.707-.773-2.064-.94-1.14 4.213zm4.083-3.462c.146.124.329.282.287.45l-.57 2.247c-.045.176-.253.303-.416.391-.163.088-.364.111-.564.135.173.051.346.102.462.196.117.094.277.228.235.369l-.652 2.189c-.061.202-.336.328-.531.438-.195.11-.418.166-.641.222h7.8l.548-2.19c-.3.455-.6.909-1.111 1.201-.512.291-1.213.547-1.955.547h-1.429l.713-2.71c.259-.067.552-.06.816.036.265.095.5.281.713.483.211.202.397.419.545.65l.747-2.85c-.255.209-.54.399-.846.569-.307.171-.634.323-.941.398a1.857 1.857 0 0 1-.859.017l.739-2.668 1.15-.008c.521-.003 1.041-.05 1.46.207.421.258.743.798 1.063 1.339l.569-1.953h-7.929c.225.087.449.171.597.295zm9.344.684c-.583.372-1.11.867-1.46 1.407-.35.539-.528 1.125-.537 1.66a2.58 2.58 0 0 0 .441 1.472c.293.448.718.855 1.243 1.13.527.276 1.152.42 1.727.486a6.97 6.97 0 0 0 1.511.011 3.45 3.45 0 0 0 .997-.234l1.645-2.56c-.426.15-.86.287-1.309.425-.45.139-.915.281-1.409.325-.494.044-1.017-.008-1.481-.214-.464-.206-.869-.567-1.079-.972a1.544 1.544 0 0 1-.078-1.256c.147-.404.458-.765.835-1.08.377-.315.82-.587 1.232-.765a3.33 3.33 0 0 1 1.182-.286l1.243 1.341 1.43-.4-1.003-1.837a8.157 8.157 0 0 0-.903.028c-.336.027-.725.074-1.128.151a9.766 9.766 0 0 0-1.35.366c-.527.179-1.167.43-1.749.802z" fill-rule="evenodd" clip-rule="evenodd" fill="#181919"/></g><g><path d="M663.15 293.493c0 3.213-2.628 5.84-5.84 5.84h-88.614c-3.213 0-5.84-2.628-5.84-5.84V150.402c0-3.213 2.628-5.84 5.84-5.84h88.614c3.212 0 5.84 2.628 5.84 5.84v143.091z" fill="#e6e6e6"/><path fill="#132616" d="M566.932 198.337h92.143v87.125h-92.143z"/><path d="M565.551 147.965v40.304c0 3.249 2.628 5.909 5.84 5.909h83.223c3.213 0 5.84-2.659 5.84-5.909v-40.304h-94.903z" fill="#22211d"/><path d="M565.551 147.965h94.904v8.055h-94.904z"/><path d="M626.494 292.253l-13.33-3.993a.559.559 0 0 0-.324 0l-13.329 3.993a.564.564 0 0 0-.402.54v3.484c0 .311.253.564.564.564h26.659a.564.564 0 0 0 .564-.564v-3.484a.564.564 0 0 0-.402-.54z" fill="#d3d3d3"/><g fill="#d1ad2d"><path d="M568.084 149.944h1.358v5.365h-1.358zM570.476 149.105h1.357v6.205h-1.357zM572.867 149.105h1.357v6.205h-1.357zM575.259 149.105h1.357v6.205h-1.357zM577.649 149.105h1.358v6.205h-1.358zM580.041 149.105h1.357v6.205h-1.357zM582.433 149.105h1.357v6.205h-1.357zM584.824 149.105h1.357v6.205h-1.357zM587.215 149.105h1.358v6.205h-1.358zM589.606 149.105h1.357v6.205h-1.357zM591.998 149.105h1.357v6.205h-1.357zM594.389 149.105h1.358v6.205h-1.358zM596.78 149.105h1.357v6.205h-1.357zM599.172 149.105h1.357v6.205h-1.357zM601.563 149.105h1.358v6.205h-1.358zM603.954 149.105h1.357v6.205h-1.357zM606.346 149.105h1.357v6.205h-1.357zM608.737 147.965h1.357v8.055h-1.357zM611.128 149.105h1.358v6.205h-1.358zM613.52 149.105h1.357v6.205h-1.357zM615.911 149.105h1.357v6.205h-1.357zM618.303 149.105h1.357v6.205h-1.357zM620.694 149.105h1.358v6.205h-1.358zM623.085 149.105h1.357v6.205h-1.357zM625.477 149.105h1.357v6.205h-1.357zM627.868 149.105h1.358v6.205h-1.358zM630.259 149.105h1.357v6.205h-1.357zM632.651 149.105h1.357v6.205h-1.357zM635.042 149.105h1.357v6.205h-1.357zM637.433 149.105h1.358v6.205h-1.358zM639.825 149.105h1.357v6.205h-1.357zM642.216 149.105h1.357v6.205h-1.357zM644.607 149.105h1.358v6.205h-1.358zM646.999 149.105h1.358v6.205h-1.358zM649.39 149.105h1.357v6.205h-1.357zM651.781 149.105h1.357v6.205h-1.357zM654.172 149.105h1.358v6.205h-1.358zM656.564 147.965h1.357v8.055h-1.357z"/></g><path fill="#fff" stroke="#0b090c" stroke-width=".259" stroke-miterlimit="2.613" d="M624.333 267.899V235.78h-22.66v32.119z"/><path fill="#0b090c" d="M623.377 267.05v-30.351h-20.96v30.351z"/><path fill="#fff" d="M603.266 237.902h2.904v.92h-.85v12.487h-1.027v-12.452h-1.027zM607.869 246.675h1.133v-8.749h.991v8.749a.975.975 0 0 1-.968.967h-1.157c-.518 0-.979-.454-.979-.979v-8.737h.979v8.749h.001zM610.967 247.63v-9.674h2.036c.549 0 1.031.424 1.031.88v3.166c0 .579-.447 1.013-.783 1.013l.974 4.599h-.921l-1.045-4.528h-.354v4.545h-.938v-.001zM615.003 237.955h2.142c.465 0 .921.363.921.92v2.954c0 .411-.425.708-.425.708s.421.274.425.707c.004.433 0 3.449 0 3.449 0 .628-.487.92-.921.92h-2.142v-9.658zM620.58 237.938h.567c.593 0 1.04.53 1.04.884v11.558c0 .42-.473.946-.947.946h-1.213c-.443 0-.967-.46-.967-.966v-11.512c0-.394.409-.911.971-.911h.549v.001zM605.373 258.233h1.514v7.588h-2.133c-.456 0-1.018-.376-1.018-.946v-11.47c0-.482.469-.995.996-.995h1.164c.516 0 .985.508.985.984v2.717h-1.02v-2.679H604.7v11.452h1.186v-5.722h-.513v-.929zM607.904 265.827v-9.675h2.036c.549 0 1.031.425 1.031.88v3.166c0 .579-.447 1.013-.783 1.013l.974 4.598h-.92l-1.044-4.528h-.354v4.545h-.94v.001zM612.897 261.213v4.598h-.938v-8.755c0-.389.328-.884.885-.884h1.239c.566 0 .938.359.938.937v8.702h-.938v-4.598h-1.186zM617.021 261.213v4.598h-.956v-8.808c0-.398.367-.831.832-.831h1.575v.849h-1.452v3.255h1.195v.941l-1.194-.004zM619.046 252.441h1.003v4.858l.566.849.555-.825v-4.882h.991v4.622c0 .564-.98 2.052-.98 2.052s.991 1.486.991 2.087v4.61h-.933v-4.799l-.602-.908-.602.896v4.811h-.991v-4.598c0-.566 1.05-2.111 1.05-2.111s-1.05-1.471-1.05-2.063l.002-4.599z"/><path fill="#0b090c" d="M613.065 242.068v-3.175h-1.124v3.175zM609.989 260.254v-3.175h-1.124v3.175zM617.101 242.068v-3.175h-1.124v3.175zM617.101 246.666v-3.599h-1.124v3.599zM621.182 250.33v-11.437h-1.086v11.437zM614.056 260.258v-3.112h-1.124v3.112z"/><path d="M610.524 255.244c-1.54 0-3.169-1.335-3.169-3.383 0-1.949 1.735-3.328 3.169-3.328v6.711zM615.189 255.244c1.54 0 3.169-1.325 3.169-3.374 0-1.949-1.735-3.338-3.169-3.338v6.712zM615.189 255.244v-6.712h-4.665v6.712z" fill="#fff"/><path d="M610.347 254.669c-.779 0-2.455-.861-2.455-2.809 0-1.684 1.511-2.709 2.455-2.709v5.518zM615.364 254.66c.779 0 2.466-.865 2.466-2.813 0-1.684-1.522-2.696-2.466-2.696v5.509zM615.364 254.665v-5.514h-5.017v5.514z" fill="#0b090c"/><path fill="#fff" d="M609.613 249.929h1.044v3.396h.487v.548h-1.54v-.539h.495v-2.848h-.486zM611.888 250.274l.327-.327h3.497l.3.3v.717h-.495v-.495h-3.125v1.185h3.337l.283.283v1.565l-.354.353h-3.416l-.354-.353z"/><path fill="#0b090c" d="M615.481 253.316v-1.141h-3.062v1.141z"/><g fill="#fff"><path d="M639.469 276.757h-1.344l-.324 1.551h-.716l.727-3.473h.713l-.28 1.341h1.343l.282-1.341h.713l-.725 3.473h-.715l.326-1.551zM641.094 275.792h.68l-.31 1.49a2.35 2.35 0 0 0-.057.334c0 .072.026.135.081.187a.279.279 0 0 0 .206.079c.06 0 .119-.012.178-.035a.805.805 0 0 0 .18-.104c.062-.047.116-.1.166-.16a.994.994 0 0 0 .137-.237 2.25 2.25 0 0 0 .097-.355l.251-1.199h.68l-.526 2.516h-.635l.071-.341c-.278.267-.581.401-.908.401-.206 0-.37-.06-.488-.178a.644.644 0 0 1-.177-.476c0-.087.026-.26.081-.519l.293-1.403zM646.057 277.057l.72.109c-.14.39-.351.688-.632.894a1.63 1.63 0 0 1-.988.309c-.424 0-.757-.128-.996-.384s-.359-.627-.359-1.114c0-.395.081-.756.24-1.084.16-.328.383-.579.667-.753.284-.173.594-.26.929-.26.376 0 .68.1.912.302.232.201.369.476.41.823l-.685.066c-.038-.202-.111-.349-.219-.439a.648.648 0 0 0-.432-.136.949.949 0 0 0-.554.18c-.171.12-.308.307-.411.563-.102.255-.154.51-.154.764 0 .278.066.493.2.644.134.152.3.227.499.227.185 0 .354-.06.508-.18.154-.118.269-.295.345-.531zM649.32 277.541h-1.377l-.417.768h-.734l1.964-3.473h.793l.564 3.473h-.678l-.115-.768zm-.088-.578l-.201-1.398-.839 1.398h1.04zM651.279 278.308h-.716l.728-3.473h1.542c.265 0 .472.027.619.082a.701.701 0 0 1 .358.299.98.98 0 0 1 .136.529c0 .295-.088.539-.265.731-.177.192-.445.311-.803.357.091.082.177.19.258.324.16.271.337.655.533 1.151h-.768a10.75 10.75 0 0 0-.363-.917c-.097-.225-.202-.376-.313-.453-.068-.046-.186-.068-.355-.068h-.291l-.3 1.438zm.41-1.959h.379c.384 0 .638-.023.764-.069a.617.617 0 0 0 .295-.215.52.52 0 0 0 .107-.309.311.311 0 0 0-.154-.284c-.063-.038-.2-.057-.409-.057h-.787l-.195.934zM654.065 278.308l.728-3.473h.935c.261 0 .427.004.5.012.143.015.272.044.385.088.112.044.215.106.308.186.092.08.172.175.239.288s.119.241.155.387c.037.146.055.306.055.48 0 .374-.072.707-.215.996-.143.29-.323.52-.539.69-.166.133-.38.231-.642.294a3.247 3.247 0 0 1-.684.052h-1.225zm.832-.559h.362c.263 0 .452-.016.57-.049a.8.8 0 0 0 .324-.181 1.52 1.52 0 0 0 .355-.512 1.82 1.82 0 0 0 .144-.753c0-.246-.04-.432-.119-.556a.59.59 0 0 0-.295-.248c-.083-.028-.228-.043-.439-.043h-.414l-.488 2.342z"/></g><g fill="#1f1713"><circle cx="568.763" cy="154.708" r=".328"/><circle cx="571.154" cy="154.708" r=".328"/><circle cx="573.545" cy="154.708" r=".328"/><circle cx="575.937" cy="154.708" r=".328"/><circle cx="578.328" cy="154.708" r=".328"/><circle cx="580.719" cy="154.708" r=".328"/><circle cx="583.11" cy="154.708" r=".328"/><circle cx="585.502" cy="154.708" r=".328"/><circle cx="587.893" cy="154.708" r=".328"/><circle cx="590.284" cy="154.708" r=".328"/><circle cx="592.675" cy="154.708" r=".328"/><circle cx="595.067" cy="154.708" r=".328"/><circle cx="597.458" cy="154.708" r=".328"/><circle cx="599.849" cy="154.708" r=".328"/><circle cx="602.24" cy="154.708" r=".328"/><circle cx="604.632" cy="154.708" r=".328"/><circle cx="607.023" cy="154.708" r=".328"/><circle cx="609.414" cy="154.708" r=".328"/><circle cx="611.805" cy="154.708" r=".328"/><circle cx="614.197" cy="154.708" r=".328"/><circle cx="616.588" cy="154.708" r=".328"/><circle cx="618.979" cy="154.708" r=".328"/><circle cx="621.37" cy="154.708" r=".328"/><circle cx="623.762" cy="154.708" r=".328"/><circle cx="626.153" cy="154.708" r=".328"/><circle cx="628.544" cy="154.708" r=".328"/><circle cx="630.935" cy="154.708" r=".328"/><circle cx="633.327" cy="154.708" r=".328"/><circle cx="635.718" cy="154.708" r=".328"/><circle cx="638.109" cy="154.708" r=".328"/><circle cx="640.5" cy="154.708" r=".328"/><circle cx="642.892" cy="154.708" r=".328"/><circle cx="645.283" cy="154.708" r=".328"/><circle cx="647.674" cy="154.708" r=".328"/><circle cx="650.065" cy="154.708" r=".328"/><circle cx="652.457" cy="154.708" r=".328"/><circle cx="654.848" cy="154.708" r=".328"/><circle cx="657.239" cy="154.708" r=".328"/></g><g fill="#fff"><path d="M625.431 266.392h1.756v.327h-.689v1.841h-.38v-1.841h-.687v-.327zM627.433 266.392h.519l.598 1.698h.008l.583-1.698h.512v2.168h-.346v-1.673h-.006l-.601 1.673h-.313l-.602-1.673h-.006v1.673h-.346v-2.168z"/></g><g fill="#fff"><path d="M569.564 276.006a1.14 1.14 0 0 1 .619-.603c.14-.058.289-.088.447-.088a1.143 1.143 0 0 1 .811.329 1.114 1.114 0 0 1 .341.814 1.14 1.14 0 0 1-1.152 1.152c-.158 0-.306-.029-.447-.086a1.13 1.13 0 0 1-.619-.607 1.137 1.137 0 0 1-.092-.459c0-.162.03-.313.092-.452zm.189.843a.947.947 0 0 0 .5.519c.116.05.241.075.376.075a.923.923 0 0 0 .872-.594c.048-.12.072-.25.072-.392 0-.137-.024-.265-.072-.385a.939.939 0 0 0-1.248-.515.932.932 0 0 0-.5.515c-.048.12-.072.247-.072.385 0 .142.023.273.072.392zm1.28.189a.554.554 0 0 1-.367.129.732.732 0 0 1-.283-.053.627.627 0 0 1-.351-.369.819.819 0 0 1-.047-.28c0-.103.015-.197.046-.283a.63.63 0 0 1 .132-.22.578.578 0 0 1 .212-.144.709.709 0 0 1 .282-.052.63.63 0 0 1 .381.118.515.515 0 0 1 .196.349h-.193a.36.36 0 0 0-.125-.214.384.384 0 0 0-.257-.084.475.475 0 0 0-.201.04.397.397 0 0 0-.146.112.53.53 0 0 0-.089.168.679.679 0 0 0 .001.412c.022.065.053.123.094.172s.09.088.149.118a.416.416 0 0 0 .198.045c.104 0 .189-.03.255-.088a.372.372 0 0 0 .12-.225h.196a.603.603 0 0 1-.203.349zM573.541 277.56V276h-.565v-.209c.074 0 .145-.006.215-.017a.619.619 0 0 0 .189-.063.442.442 0 0 0 .143-.126.478.478 0 0 0 .08-.203h.2v2.177h-.262zM574.957 277.28a.438.438 0 0 0 .27.086c.16 0 .28-.069.359-.207.08-.138.124-.35.132-.635l-.006-.006a.562.562 0 0 1-.504.3.776.776 0 0 1-.295-.053.609.609 0 0 1-.217-.149.62.62 0 0 1-.132-.23.927.927 0 0 1 .008-.582.651.651 0 0 1 .374-.37.884.884 0 0 1 .578-.004.55.55 0 0 1 .236.164.835.835 0 0 1 .161.317c.04.134.06.305.06.512 0 .377-.06.665-.18.867-.12.202-.312.303-.576.303a.72.72 0 0 1-.454-.138c-.121-.092-.189-.232-.206-.42h.262a.332.332 0 0 0 .13.245zm.687-1.36a.43.43 0 0 0-.226-.267.435.435 0 0 0-.193-.04.414.414 0 0 0-.198.043.37.37 0 0 0-.132.116.49.49 0 0 0-.074.164.81.81 0 0 0-.023.193c0 .06.011.117.033.172a.467.467 0 0 0 .224.251.439.439 0 0 0 .358 0 .434.434 0 0 0 .23-.258.563.563 0 0 0 .031-.183.648.648 0 0 0-.03-.191zM576.665 277.28a.438.438 0 0 0 .27.086c.16 0 .28-.069.359-.207.08-.138.124-.35.132-.635l-.006-.006a.562.562 0 0 1-.504.3.776.776 0 0 1-.295-.053.596.596 0 0 1-.348-.379.927.927 0 0 1 .008-.582.651.651 0 0 1 .374-.37.884.884 0 0 1 .578-.004.55.55 0 0 1 .236.164.835.835 0 0 1 .161.317c.04.134.06.305.06.512 0 .377-.06.665-.18.867-.12.202-.312.303-.576.303a.72.72 0 0 1-.454-.138c-.121-.092-.189-.232-.206-.42h.262c.01.107.053.188.129.245zm.686-1.36a.43.43 0 0 0-.226-.267.435.435 0 0 0-.193-.04.414.414 0 0 0-.198.043.37.37 0 0 0-.132.116.49.49 0 0 0-.074.164.81.81 0 0 0-.023.193c0 .06.011.117.033.172a.467.467 0 0 0 .224.251.439.439 0 0 0 .358 0 .434.434 0 0 0 .23-.258.563.563 0 0 0 .031-.183.648.648 0 0 0-.03-.191zM577.967 276.242a1.58 1.58 0 0 1 .031-.251c.017-.082.04-.16.071-.233a.563.563 0 0 1 .327-.326.786.786 0 0 1 .29-.048c.113 0 .21.016.29.048a.577.577 0 0 1 .327.326c.031.073.054.151.071.233.016.081.027.165.031.251a5.364 5.364 0 0 1 0 .498 1.58 1.58 0 0 1-.031.251c-.016.082-.04.159-.071.232a.566.566 0 0 1-.326.323.787.787 0 0 1-.292.047c-.113 0-.209-.016-.29-.047s-.148-.075-.201-.131a.64.64 0 0 1-.126-.192 1.228 1.228 0 0 1-.071-.232 1.851 1.851 0 0 1-.031-.251 5.364 5.364 0 0 1 .001-.498zm.278.521c.005.101.021.197.049.286a.542.542 0 0 0 .133.225.352.352 0 0 0 .258.092.35.35 0 0 0 .258-.092.531.531 0 0 0 .133-.225 1.14 1.14 0 0 0 .049-.286c.005-.102.007-.193.007-.275 0-.053 0-.113-.002-.177a1.568 1.568 0 0 0-.055-.383.49.49 0 0 0-.077-.161.375.375 0 0 0-.315-.155.372.372 0 0 0-.315.155.511.511 0 0 0-.077.161 1.49 1.49 0 0 0-.055.383l-.001.177c.002.082.005.173.01.275zM580.925 275.367v.943h1.155v-.943h.292v2.193h-.292v-1.005h-1.155v1.005h-.292v-2.193h.292zM584.377 277.399c-.149.14-.362.211-.639.211-.282 0-.503-.067-.662-.202-.159-.133-.238-.347-.238-.64v-1.401h.292v1.401c0 .196.052.345.157.447.104.101.255.151.451.151.186 0 .328-.05.426-.151.097-.102.146-.251.146-.447v-1.401h.292v1.401c-.001.28-.076.491-.225.631zM585.821 275.367c.338 0 .598.086.78.258.182.172.273.434.273.786 0 .185-.021.348-.062.49a.915.915 0 0 1-.19.359.803.803 0 0 1-.328.222 1.32 1.32 0 0 1-.473.077h-.752v-2.193h.752zm.024 1.947c.033 0 .074-.002.123-.007a.69.69 0 0 0 .321-.122.565.565 0 0 0 .146-.15.82.82 0 0 0 .106-.238c.028-.095.042-.211.042-.345 0-.132-.013-.248-.039-.352a.676.676 0 0 0-.126-.264.536.536 0 0 0-.226-.166.898.898 0 0 0-.341-.056h-.491v1.701h.485zM588.329 275.667a.617.617 0 0 0-.373-.106.91.91 0 0 0-.181.018.542.542 0 0 0-.158.061.322.322 0 0 0-.11.116.353.353 0 0 0-.042.18c0 .067.02.122.06.164.04.042.093.076.16.103.067.027.142.048.226.066.084.017.169.037.256.056.087.021.173.044.257.072a.84.84 0 0 1 .226.113c.066.046.12.106.16.178.04.071.06.161.06.27a.554.554 0 0 1-.078.3.66.66 0 0 1-.201.203.897.897 0 0 1-.275.114 1.307 1.307 0 0 1-.652-.01.881.881 0 0 1-.289-.139.65.65 0 0 1-.196-.24.77.77 0 0 1-.072-.345h.276c0 .092.018.171.054.238a.498.498 0 0 0 .141.164.581.581 0 0 0 .204.095.917.917 0 0 0 .239.031c.066 0 .132-.006.198-.018a.601.601 0 0 0 .179-.063.36.36 0 0 0 .129-.122.355.355 0 0 0 .049-.197.277.277 0 0 0-.06-.184.442.442 0 0 0-.16-.115 1.131 1.131 0 0 0-.226-.072l-.257-.057a4.203 4.203 0 0 1-.257-.067.891.891 0 0 1-.225-.102.486.486 0 0 1-.16-.162.48.48 0 0 1-.06-.251c0-.11.022-.206.067-.287s.105-.147.18-.2a.826.826 0 0 1 .255-.117 1.156 1.156 0 0 1 .607.002.712.712 0 0 1 .254.126c.073.057.13.13.172.217a.77.77 0 0 1 .069.311h-.277c-.016-.159-.073-.274-.169-.344zM589.164 276.033a1.1 1.1 0 0 1 .198-.368.966.966 0 0 1 .329-.254c.131-.064.284-.096.458-.096s.326.032.458.096c.131.063.24.148.328.254.088.107.154.229.198.368.044.137.066.282.066.431s-.022.294-.066.431a1.1 1.1 0 0 1-.198.368.947.947 0 0 1-.328.253c-.131.062-.284.094-.458.094s-.327-.032-.458-.094a.951.951 0 0 1-.329-.253 1.09 1.09 0 0 1-.198-.368c-.044-.137-.066-.282-.066-.431s.022-.294.066-.431zm.268.758a.898.898 0 0 0 .135.29c.061.086.14.155.236.208.096.052.211.078.344.078s.248-.026.344-.078c.096-.052.175-.122.236-.208s.106-.182.135-.29a1.255 1.255 0 0 0 0-.654.898.898 0 0 0-.135-.29.698.698 0 0 0-.236-.208c-.096-.052-.211-.078-.344-.078s-.248.026-.344.078a.687.687 0 0 0-.236.208.858.858 0 0 0-.135.29 1.255 1.255 0 0 0 0 .654zM591.862 275.367l1.155 1.779h.006v-1.779h.276v2.193h-.319l-1.145-1.76h-.006v1.76h-.277v-2.193h.31zM595.724 275.667a.617.617 0 0 0-.373-.106.91.91 0 0 0-.181.018.542.542 0 0 0-.158.061.322.322 0 0 0-.11.116.353.353 0 0 0-.042.18c0 .067.02.122.06.164.04.042.093.076.16.103.067.027.142.048.226.066.084.017.169.037.256.056.087.021.173.044.257.072a.84.84 0 0 1 .226.113c.066.046.12.106.16.178.04.071.06.161.06.27a.554.554 0 0 1-.078.3.66.66 0 0 1-.201.203.897.897 0 0 1-.275.114 1.307 1.307 0 0 1-.652-.01.881.881 0 0 1-.289-.139.65.65 0 0 1-.196-.24.77.77 0 0 1-.072-.345h.276c0 .092.018.171.054.238a.498.498 0 0 0 .141.164.581.581 0 0 0 .204.095.917.917 0 0 0 .239.031c.066 0 .131-.006.198-.018a.601.601 0 0 0 .179-.063.36.36 0 0 0 .129-.122.355.355 0 0 0 .049-.197.277.277 0 0 0-.06-.184.442.442 0 0 0-.16-.115 1.131 1.131 0 0 0-.226-.072l-.257-.057a4.203 4.203 0 0 1-.257-.067.891.891 0 0 1-.225-.102.486.486 0 0 1-.16-.162.48.48 0 0 1-.06-.251c0-.11.022-.206.067-.287s.105-.147.18-.2a.826.826 0 0 1 .255-.117 1.156 1.156 0 0 1 .607.002.712.712 0 0 1 .254.126c.073.057.13.13.172.217a.77.77 0 0 1 .069.311h-.277c-.015-.159-.072-.274-.169-.344zM596.56 276.033a1.1 1.1 0 0 1 .198-.368.966.966 0 0 1 .329-.254c.131-.064.284-.096.458-.096s.326.032.458.096c.131.063.24.148.328.254.088.107.154.229.198.368.044.137.066.282.066.431s-.022.294-.066.431a1.1 1.1 0 0 1-.198.368.947.947 0 0 1-.328.253c-.131.062-.284.094-.458.094s-.327-.032-.458-.094a.951.951 0 0 1-.329-.253 1.09 1.09 0 0 1-.198-.368c-.044-.137-.066-.282-.066-.431s.022-.294.066-.431zm.268.758a.898.898 0 0 0 .135.29c.061.086.14.155.236.208.096.052.211.078.344.078s.248-.026.344-.078c.096-.052.175-.122.236-.208s.106-.182.135-.29a1.255 1.255 0 0 0 0-.654.898.898 0 0 0-.135-.29.698.698 0 0 0-.236-.208c-.096-.052-.211-.078-.344-.078s-.248.026-.344.078a.687.687 0 0 0-.236.208.858.858 0 0 0-.135.29 1.255 1.255 0 0 0 0 .654zM600.391 275.367v.246h-1.148v.697h1.008v.245h-1.008v1.005h-.292v-2.193h1.44zM600.48 275.613v-.246h1.754v.246h-.731v1.947h-.292v-1.947h-.731z"/></g><path d="M626.896 292.793a.563.563 0 0 0-.402-.54l-.695-.208h-25.592l-.695.208a.564.564 0 0 0-.402.54h27.786zM623.586 291.382H602.42l2.498-.748h16.231zM599.11 293.456h27.787v.748H599.11z" fill="#c1c1c1"/><g fill="#b7b7b7"><path d="M626.896 292.793a.563.563 0 0 0-.402-.54l-.695-.208h-25.592l-.695.208a.564.564 0 0 0-.402.54h27.786zM623.586 291.382H602.42l2.498-.748h16.231zM618.875 289.971h-11.744l2.498-.749h6.747zM599.11 293.456h27.787v.709H599.11zM599.11 294.794h27.787v.709H599.11zM626.896 296.132H599.11v.146c0 .311.253.564.564.564h26.659a.564.564 0 0 0 .564-.564l-.001-.146z"/></g><path fill="#d3d3d3" d="M607.131 296.132h11.744v.709h-11.744z"/></g></svg>