<svg xmlns="http://www.w3.org/2000/svg" viewBox="0 0 100.295 154.772"><path d="M100.295 148.932c0 3.213-2.628 5.84-5.84 5.84H5.84c-3.213 0-5.84-2.628-5.84-5.84V5.84C0 2.628 2.628 0 5.84 0h88.614c3.212 0 5.84 2.628 5.84 5.84v143.092z" fill="#e6e6e6"/><path fill="#142717" d="M4.076 53.775h92.143V140.9H4.076z"/><path d="M2.695 3.404v40.304c0 3.249 2.628 5.909 5.84 5.909h83.223c3.213 0 5.84-2.659 5.84-5.909V3.404H2.695z" fill="#23221d"/><path d="M2.695 3.404h94.904v8.055H2.695z"/><path d="M63.639 147.692l-13.33-3.993a.559.559 0 0 0-.324 0l-13.329 3.993a.563.563 0 0 0-.402.54v3.484c0 .311.252.564.564.564h26.659a.564.564 0 0 0 .564-.564v-3.484a.564.564 0 0 0-.402-.54z" fill="#d3d3d3"/><g fill="#d2ae2f"><path d="M5.228 5.383h1.358v5.365H5.228zM7.62 4.543h1.357v6.205H7.62zM10.012 4.543h1.357v6.205h-1.357zM12.403 4.543h1.357v6.205h-1.357zM14.794 4.543h1.358v6.205h-1.358zM17.185 4.543h1.357v6.205h-1.357zM19.577 4.543h1.357v6.205h-1.357zM21.969 4.543h1.357v6.205h-1.357zM24.359 4.543h1.358v6.205h-1.358zM26.751 4.543h1.357v6.205h-1.357zM29.142 4.543h1.357v6.205h-1.357zM31.533 4.543h1.358v6.205h-1.358zM33.925 4.543h1.357v6.205h-1.357zM36.316 4.543h1.357v6.205h-1.357zM38.707 4.543h1.358v6.205h-1.358zM41.099 4.543h1.357v6.205h-1.357zM43.49 4.543h1.357v6.205H43.49zM45.882 3.404h1.357v8.055h-1.357zM48.273 4.543h1.358v6.205h-1.358zM50.664 4.543h1.357v6.205h-1.357zM53.056 4.543h1.357v6.205h-1.357zM55.447 4.543h1.357v6.205h-1.357zM57.838 4.543h1.358v6.205h-1.358zM60.23 4.543h1.357v6.205H60.23zM62.621 4.543h1.357v6.205h-1.357zM65.012 4.543h1.358v6.205h-1.358zM67.404 4.543h1.357v6.205h-1.357zM69.795 4.543h1.357v6.205h-1.357zM72.187 4.543h1.357v6.205h-1.357zM74.577 4.543h1.358v6.205h-1.358zM76.969 4.543h1.357v6.205h-1.357zM79.361 4.543h1.357v6.205h-1.357zM81.751 4.543h1.358v6.205h-1.358zM84.143 4.543h1.358v6.205h-1.358zM86.534 4.543h1.357v6.205h-1.357zM88.926 4.543h1.357v6.205h-1.357zM91.317 4.543h1.358v6.205h-1.358zM93.708 3.404h1.357v8.055h-1.357z"/></g><path fill="#fff" stroke="#0c0a0d" stroke-width=".259" stroke-miterlimit="2.613" d="M61.477 123.337V91.218H38.818v32.119z"/><path fill="#0c0a0d" d="M60.521 122.488v-30.35h-20.96v30.35z"/><path fill="#fff" d="M40.411 93.341h2.903v.919h-.85v12.487h-1.027V94.296h-1.026zM45.013 102.113h1.133v-8.749h.991v8.749a.975.975 0 0 1-.968.967h-1.157c-.518 0-.98-.454-.98-.979v-8.737h.98v8.749h.001zM48.112 103.068v-9.674h2.036c.549 0 1.031.424 1.031.88v3.166c0 .579-.447 1.013-.783 1.013l.974 4.599h-.921l-1.045-4.528h-.354v4.545h-.938v-.001zM52.148 93.394h2.142c.465 0 .921.363.921.92v2.954c0 .411-.425.708-.425.708s.421.274.425.707c.004.433 0 3.449 0 3.449 0 .628-.487.92-.921.92h-2.142v-9.658zM57.724 93.376h.567c.593 0 1.04.53 1.04.884v11.558c0 .42-.473.946-.947.946h-1.213c-.443 0-.967-.46-.967-.966V94.287c0-.394.409-.911.971-.911h.549zM42.517 113.671h1.514v7.588h-2.133c-.456 0-1.018-.376-1.018-.946v-11.47c0-.482.469-.995.996-.995h1.164c.516 0 .985.508.985.984v2.717h-1.02v-2.679h-1.159v11.452h1.186V114.6h-.513l-.002-.929zM45.049 121.265v-9.675h2.036c.549 0 1.031.425 1.031.88v3.166c0 .579-.447 1.013-.783 1.013l.974 4.598h-.92l-1.045-4.528h-.354v4.545l-.939.001zM50.041 116.652v4.598h-.938v-8.755c0-.389.327-.884.885-.884h1.239c.566 0 .938.359.938.937v8.702h-.938v-4.598h-1.186zM54.166 116.652v4.598h-.956v-8.808c0-.398.367-.831.832-.831h1.575v.849h-1.452v3.255h1.195v.941l-1.194-.004zM56.19 107.879h1.003v4.858l.566.849.555-.825v-4.882h.991v4.622c0 .564-.98 2.052-.98 2.052s.991 1.486.991 2.087v4.61h-.933v-4.799l-.602-.908-.602.896v4.811h-.989v-4.598c0-.566 1.05-2.111 1.05-2.111s-1.05-1.471-1.05-2.063v-4.599z"/><path fill="#0c0a0d" d="M50.209 97.506v-3.175h-1.124v3.175zM47.133 115.692v-3.175h-1.124v3.175zM54.246 97.506v-3.175h-1.124v3.175zM54.246 102.104v-3.599h-1.124v3.599zM58.326 105.768V94.331H57.24v11.437zM51.201 115.697v-3.113h-1.124v3.113z"/><path d="M47.669 110.682c-1.54 0-3.169-1.335-3.169-3.383 0-1.949 1.735-3.328 3.169-3.328v6.711zM52.334 110.682c1.54 0 3.169-1.325 3.169-3.374 0-1.949-1.735-3.338-3.169-3.338v6.712zM52.334 110.682v-6.712h-4.665v6.712z" fill="#fff"/><path d="M47.492 110.108c-.779 0-2.455-.861-2.455-2.809 0-1.684 1.511-2.709 2.455-2.709v5.518zM52.508 110.099c.779 0 2.466-.865 2.466-2.813 0-1.684-1.522-2.696-2.466-2.696v5.509zM52.508 110.103v-5.514h-5.016v5.514z" fill="#0c0a0d"/><path fill="#fff" d="M46.757 105.367h1.045v3.396h.486v.549h-1.54v-.54h.496v-2.847h-.487zM49.032 105.712l.327-.327h3.497l.301.301v.716h-.496v-.495h-3.124v1.185h3.336l.284.283v1.565l-.354.354h-3.417l-.354-.354z"/><path fill="#0c0a0d" d="M52.626 108.755v-1.141h-3.063v1.141z"/><g fill="#fff"><path d="M76.613 132.195h-1.344l-.324 1.551h-.715l.727-3.473h.713l-.28 1.341h1.343l.282-1.341h.713l-.725 3.473h-.715l.325-1.551zM78.238 131.23h.68l-.31 1.49a2.35 2.35 0 0 0-.057.334c0 .072.026.135.081.187a.28.28 0 0 0 .206.079c.06 0 .119-.012.178-.035.058-.023.118-.058.18-.104s.116-.1.166-.16a.994.994 0 0 0 .137-.237 2.25 2.25 0 0 0 .097-.355l.251-1.199h.68l-.526 2.516h-.635l.071-.341c-.278.267-.581.401-.908.401-.206 0-.37-.06-.488-.178a.644.644 0 0 1-.177-.476c0-.087.026-.26.081-.519l.293-1.403zM83.201 132.496l.72.109c-.14.39-.351.688-.632.894a1.63 1.63 0 0 1-.988.309c-.424 0-.757-.128-.996-.384s-.359-.627-.359-1.114c0-.395.081-.756.24-1.084.16-.328.383-.579.667-.753.284-.173.594-.26.929-.26.376 0 .68.1.912.302.232.201.369.476.41.823l-.685.066c-.038-.202-.111-.349-.219-.439a.648.648 0 0 0-.432-.136.949.949 0 0 0-.554.18c-.171.12-.308.307-.411.563-.102.255-.154.51-.154.764 0 .278.066.493.2.644.134.152.3.227.499.227.185 0 .354-.06.508-.18.154-.118.27-.296.345-.531zM86.464 132.979h-1.377l-.417.768h-.734l1.964-3.473h.793l.564 3.473h-.677l-.116-.768zm-.088-.578l-.201-1.398-.839 1.398h1.04zM88.423 133.747h-.715l.728-3.473h1.542c.265 0 .472.027.619.082a.701.701 0 0 1 .358.299.98.98 0 0 1 .136.529c0 .295-.088.539-.265.731-.177.192-.445.311-.803.357.091.082.177.19.258.324.16.271.337.655.533 1.151h-.768a10.75 10.75 0 0 0-.363-.917c-.097-.225-.202-.376-.313-.453-.068-.046-.186-.068-.355-.068h-.291l-.301 1.438zm.41-1.959h.379c.384 0 .638-.023.764-.069a.617.617 0 0 0 .295-.215.52.52 0 0 0 .107-.309.311.311 0 0 0-.154-.284c-.063-.038-.2-.057-.41-.057h-.787l-.194.934zM91.209 133.747l.728-3.473h.935c.261 0 .427.004.5.012.144.015.272.044.385.088.112.044.215.106.308.186.092.08.172.175.239.288s.119.241.155.387c.037.146.055.306.055.48 0 .374-.072.707-.215.996s-.323.52-.539.69c-.166.133-.38.231-.642.294a3.247 3.247 0 0 1-.684.052h-1.225zm.832-.56h.362c.263 0 .452-.016.57-.049s.225-.093.324-.181a1.52 1.52 0 0 0 .355-.512 1.82 1.82 0 0 0 .144-.753c0-.246-.04-.432-.119-.556a.59.59 0 0 0-.295-.248c-.083-.028-.228-.043-.439-.043h-.414l-.488 2.342z"/></g><g fill="#201813"><circle cx="5.907" cy="10.146" r=".328"/><circle cx="8.299" cy="10.146" r=".328"/><circle cx="10.69" cy="10.146" r=".328"/><circle cx="13.081" cy="10.146" r=".328"/><circle cx="15.472" cy="10.146" r=".328"/><circle cx="17.864" cy="10.146" r=".328"/><circle cx="20.255" cy="10.146" r=".328"/><circle cx="22.646" cy="10.146" r=".328"/><circle cx="25.037" cy="10.146" r=".328"/><circle cx="27.429" cy="10.146" r=".328"/><circle cx="29.82" cy="10.146" r=".328"/><circle cx="32.211" cy="10.146" r=".328"/><circle cx="34.602" cy="10.146" r=".328"/><circle cx="36.994" cy="10.146" r=".328"/><circle cx="39.385" cy="10.146" r=".328"/><circle cx="41.776" cy="10.146" r=".328"/><circle cx="44.167" cy="10.146" r=".328"/><circle cx="46.559" cy="10.146" r=".328"/><circle cx="48.95" cy="10.146" r=".328"/><circle cx="51.341" cy="10.146" r=".328"/><circle cx="53.732" cy="10.146" r=".328"/><circle cx="56.124" cy="10.146" r=".328"/><circle cx="58.515" cy="10.146" r=".328"/><circle cx="60.906" cy="10.146" r=".328"/><circle cx="63.297" cy="10.146" r=".328"/><circle cx="65.689" cy="10.146" r=".328"/><circle cx="68.08" cy="10.146" r=".328"/><circle cx="70.471" cy="10.146" r=".328"/><circle cx="72.862" cy="10.146" r=".328"/><circle cx="75.254" cy="10.146" r=".328"/><circle cx="77.645" cy="10.146" r=".328"/><circle cx="80.036" cy="10.146" r=".328"/><circle cx="82.427" cy="10.146" r=".328"/><circle cx="84.819" cy="10.146" r=".328"/><circle cx="87.21" cy="10.146" r=".328"/><circle cx="89.601" cy="10.146" r=".328"/><circle cx="91.992" cy="10.146" r=".328"/><circle cx="94.384" cy="10.146" r=".328"/></g><g fill="#fff"><path d="M62.575 121.831h1.756v.327h-.689v1.841h-.38v-1.841h-.687v-.327zM64.577 121.831h.519l.598 1.698h.008l.583-1.698h.512v2.168h-.346v-1.673h-.006l-.601 1.673h-.313l-.602-1.673h-.006v1.673h-.346v-2.168z"/></g><g fill="#fff"><path d="M6.708 131.444a1.14 1.14 0 0 1 .619-.603c.14-.058.289-.088.447-.088a1.143 1.143 0 0 1 .811.329 1.114 1.114 0 0 1 .341.814 1.14 1.14 0 0 1-1.152 1.152c-.157 0-.307-.029-.447-.086a1.13 1.13 0 0 1-.619-.607 1.137 1.137 0 0 1-.092-.459c0-.162.031-.312.092-.452zm.189.844a.947.947 0 0 0 .5.519.922.922 0 0 0 .376.075.923.923 0 0 0 .872-.594c.048-.12.072-.25.072-.392 0-.137-.024-.265-.072-.385a.937.937 0 0 0-.872-.589.935.935 0 0 0-.876.589c-.048.12-.072.247-.072.385 0 .141.024.272.072.392zm1.281.188a.554.554 0 0 1-.367.129.732.732 0 0 1-.283-.053.627.627 0 0 1-.351-.369.795.795 0 0 1-.047-.28c0-.103.015-.197.046-.283a.63.63 0 0 1 .132-.22.578.578 0 0 1 .212-.144.709.709 0 0 1 .282-.052.63.63 0 0 1 .381.118.515.515 0 0 1 .196.349h-.193a.36.36 0 0 0-.125-.214.384.384 0 0 0-.257-.084.475.475 0 0 0-.201.04.397.397 0 0 0-.146.112.53.53 0 0 0-.089.168.679.679 0 0 0 .001.412.53.53 0 0 0 .094.172c.041.049.09.088.149.118a.416.416 0 0 0 .198.045c.104 0 .189-.03.255-.088a.372.372 0 0 0 .12-.225h.196a.61.61 0 0 1-.203.349zM10.686 132.998v-1.56h-.565v-.209c.074 0 .145-.006.215-.017a.619.619 0 0 0 .189-.063.442.442 0 0 0 .143-.126.478.478 0 0 0 .08-.203h.2v2.177h-.262zM12.101 132.719a.438.438 0 0 0 .27.086c.16 0 .28-.069.359-.207.08-.138.124-.35.132-.635l-.006-.006a.562.562 0 0 1-.504.3.776.776 0 0 1-.295-.053.609.609 0 0 1-.217-.149.62.62 0 0 1-.132-.23.927.927 0 0 1 .008-.582.651.651 0 0 1 .374-.37.884.884 0 0 1 .578-.004.55.55 0 0 1 .236.164.835.835 0 0 1 .161.317c.04.134.06.305.06.512 0 .377-.06.665-.18.867-.12.202-.312.303-.576.303a.72.72 0 0 1-.454-.138c-.121-.092-.189-.232-.206-.42h.262a.342.342 0 0 0 .13.245zm.687-1.361a.43.43 0 0 0-.226-.267.435.435 0 0 0-.193-.04.414.414 0 0 0-.198.043.37.37 0 0 0-.132.116.49.49 0 0 0-.074.164.81.81 0 0 0-.023.193c0 .06.011.117.033.172a.467.467 0 0 0 .224.251.439.439 0 0 0 .358 0 .434.434 0 0 0 .23-.258.563.563 0 0 0 .031-.183.653.653 0 0 0-.03-.191zM13.809 132.719a.438.438 0 0 0 .27.086c.16 0 .28-.069.359-.207.08-.138.124-.35.132-.635l-.006-.006a.562.562 0 0 1-.504.3.776.776 0 0 1-.295-.053.609.609 0 0 1-.217-.149.62.62 0 0 1-.132-.23.927.927 0 0 1 .008-.582.651.651 0 0 1 .374-.37.884.884 0 0 1 .578-.004.55.55 0 0 1 .236.164.835.835 0 0 1 .161.317c.04.134.06.305.06.512 0 .377-.06.665-.18.867-.12.202-.312.303-.576.303a.72.72 0 0 1-.454-.138c-.121-.092-.189-.232-.206-.42h.262a.336.336 0 0 0 .13.245zm.687-1.361a.43.43 0 0 0-.226-.267.435.435 0 0 0-.193-.04.414.414 0 0 0-.198.043.37.37 0 0 0-.132.116.49.49 0 0 0-.074.164.81.81 0 0 0-.023.193c0 .06.011.117.033.172a.467.467 0 0 0 .224.251.439.439 0 0 0 .358 0 .434.434 0 0 0 .23-.258.563.563 0 0 0 .031-.183.653.653 0 0 0-.03-.191zM15.111 131.68a1.58 1.58 0 0 1 .031-.251c.017-.082.04-.16.071-.233.031-.074.073-.138.126-.194s.12-.1.201-.132.177-.048.29-.048c.113 0 .21.016.29.048a.577.577 0 0 1 .327.326c.031.073.054.151.071.233.016.081.027.165.031.251a5.364 5.364 0 0 1 0 .498 1.58 1.58 0 0 1-.031.251c-.016.082-.04.159-.071.232a.566.566 0 0 1-.326.323.787.787 0 0 1-.292.047.808.808 0 0 1-.29-.047.548.548 0 0 1-.201-.131.64.64 0 0 1-.126-.192 1.228 1.228 0 0 1-.071-.232 1.851 1.851 0 0 1-.031-.251 5.364 5.364 0 0 1 .001-.498zm.278.521c.005.101.021.197.049.286a.542.542 0 0 0 .133.225.352.352 0 0 0 .258.092.35.35 0 0 0 .258-.092.531.531 0 0 0 .133-.225 1.14 1.14 0 0 0 .049-.286c.005-.102.007-.193.007-.275l-.001-.177a1.568 1.568 0 0 0-.055-.383.49.49 0 0 0-.077-.161.375.375 0 0 0-.315-.155.372.372 0 0 0-.315.155.511.511 0 0 0-.077.161 1.49 1.49 0 0 0-.055.383l-.001.177c.002.083.004.174.009.275zM18.069 130.805v.943h1.155v-.943h.292v2.193h-.292v-1.005h-1.155v1.005h-.292v-2.193h.292zM21.521 132.837c-.149.14-.362.211-.639.211-.282 0-.503-.067-.662-.202-.159-.133-.238-.347-.238-.64v-1.401h.292v1.401c0 .196.052.345.157.447.104.101.255.151.451.151.186 0 .328-.05.426-.151.097-.102.146-.251.146-.447v-1.401h.292v1.401c0 .28-.075.491-.225.631zM22.965 130.805c.338 0 .598.086.78.258.182.172.273.434.273.786 0 .185-.021.348-.062.49a.915.915 0 0 1-.19.359.803.803 0 0 1-.328.222 1.32 1.32 0 0 1-.473.077h-.752v-2.193h.752zm.024 1.947c.033 0 .074-.002.123-.007a.69.69 0 0 0 .321-.122.565.565 0 0 0 .146-.15.82.82 0 0 0 .106-.238c.028-.095.042-.211.042-.345 0-.132-.013-.248-.039-.352a.676.676 0 0 0-.126-.264.536.536 0 0 0-.226-.166.898.898 0 0 0-.341-.056h-.491v1.701h.485zM25.473 131.105a.617.617 0 0 0-.373-.106.91.91 0 0 0-.181.018.542.542 0 0 0-.158.061.322.322 0 0 0-.11.116.353.353 0 0 0-.042.18c0 .067.02.122.06.164.04.042.093.076.16.103.067.027.142.048.226.066.084.017.169.037.256.056.087.021.173.044.257.072s.159.065.226.113c.066.046.12.106.16.178.04.071.06.161.06.27a.554.554 0 0 1-.078.3.66.66 0 0 1-.201.203c-.082.052-.174.09-.275.114a1.307 1.307 0 0 1-.652-.01.881.881 0 0 1-.289-.139.65.65 0 0 1-.196-.24.77.77 0 0 1-.072-.345h.276c0 .092.018.171.054.238a.498.498 0 0 0 .141.164.581.581 0 0 0 .204.095.917.917 0 0 0 .239.031c.066 0 .132-.006.198-.018a.601.601 0 0 0 .179-.063.36.36 0 0 0 .129-.122.355.355 0 0 0 .049-.197.277.277 0 0 0-.06-.184.442.442 0 0 0-.16-.115 1.131 1.131 0 0 0-.226-.072l-.257-.057a3.584 3.584 0 0 1-.257-.067.891.891 0 0 1-.225-.102.486.486 0 0 1-.16-.162.48.48 0 0 1-.06-.251c0-.11.022-.206.067-.287a.596.596 0 0 1 .18-.2.826.826 0 0 1 .255-.117 1.156 1.156 0 0 1 .607.002.712.712 0 0 1 .254.126c.073.057.13.13.172.217a.77.77 0 0 1 .069.311h-.277c-.015-.159-.072-.274-.169-.344zM26.308 131.471a1.1 1.1 0 0 1 .198-.368.966.966 0 0 1 .329-.254c.131-.064.284-.096.458-.096.174 0 .326.032.458.096.131.063.24.148.328.254.088.107.154.229.198.368.044.137.066.282.066.431 0 .149-.022.294-.066.431a1.1 1.1 0 0 1-.198.368.947.947 0 0 1-.328.253 1.064 1.064 0 0 1-.458.094c-.174 0-.327-.032-.458-.094s-.241-.147-.329-.253a1.09 1.09 0 0 1-.198-.368 1.407 1.407 0 0 1-.066-.431c0-.149.022-.294.066-.431zm.268.758a.898.898 0 0 0 .135.29c.061.086.14.155.236.208.096.052.211.078.344.078s.248-.026.344-.078a.687.687 0 0 0 .236-.208c.061-.086.106-.182.135-.29a1.255 1.255 0 0 0 0-.654.898.898 0 0 0-.135-.29.698.698 0 0 0-.236-.208c-.096-.052-.211-.078-.344-.078s-.248.026-.344.078a.687.687 0 0 0-.236.208.858.858 0 0 0-.135.29 1.255 1.255 0 0 0 0 .654zM29.006 130.805l1.155 1.779h.006v-1.779h.276v2.193h-.319l-1.145-1.76h-.006v1.76h-.277v-2.193h.31zM32.869 131.105a.617.617 0 0 0-.373-.106.91.91 0 0 0-.181.018.542.542 0 0 0-.158.061.322.322 0 0 0-.11.116.353.353 0 0 0-.042.18c0 .067.02.122.06.164.04.042.093.076.16.103.067.027.142.048.226.066.084.017.169.037.256.056.087.021.173.044.257.072a.84.84 0 0 1 .226.113c.066.046.12.106.16.178.04.071.06.161.06.27a.554.554 0 0 1-.078.3.66.66 0 0 1-.201.203c-.082.052-.174.09-.275.114a1.307 1.307 0 0 1-.652-.01.881.881 0 0 1-.289-.139.65.65 0 0 1-.196-.24.77.77 0 0 1-.072-.345h.276c0 .092.018.171.054.238a.498.498 0 0 0 .141.164.581.581 0 0 0 .204.095.917.917 0 0 0 .239.031c.066 0 .132-.006.198-.018a.601.601 0 0 0 .179-.063.36.36 0 0 0 .129-.122.355.355 0 0 0 .049-.197.277.277 0 0 0-.06-.184.442.442 0 0 0-.16-.115 1.131 1.131 0 0 0-.226-.072l-.257-.057a4.203 4.203 0 0 1-.257-.067.891.891 0 0 1-.225-.102.486.486 0 0 1-.16-.162.48.48 0 0 1-.06-.251c0-.11.022-.206.067-.287a.596.596 0 0 1 .18-.2.826.826 0 0 1 .255-.117 1.156 1.156 0 0 1 .607.002.712.712 0 0 1 .254.126c.073.057.13.13.172.217a.77.77 0 0 1 .069.311h-.277c-.016-.159-.072-.274-.169-.344zM33.704 131.471a1.1 1.1 0 0 1 .198-.368.966.966 0 0 1 .329-.254c.131-.064.284-.096.458-.096.174 0 .326.032.458.096.131.063.24.148.328.254.088.107.154.229.198.368.044.137.066.282.066.431 0 .149-.022.294-.066.431a1.1 1.1 0 0 1-.198.368.947.947 0 0 1-.328.253 1.064 1.064 0 0 1-.458.094c-.174 0-.327-.032-.458-.094a.951.951 0 0 1-.329-.253 1.09 1.09 0 0 1-.198-.368 1.407 1.407 0 0 1-.066-.431c0-.149.022-.294.066-.431zm.269.758a.898.898 0 0 0 .135.29c.061.086.14.155.236.208.096.052.211.078.344.078s.248-.026.344-.078a.687.687 0 0 0 .236-.208.898.898 0 0 0 .135-.29 1.255 1.255 0 0 0 0-.654.898.898 0 0 0-.135-.29.698.698 0 0 0-.236-.208c-.096-.052-.211-.078-.344-.078s-.248.026-.344.078a.687.687 0 0 0-.236.208.858.858 0 0 0-.135.29 1.255 1.255 0 0 0 0 .654zM37.535 130.805v.246h-1.148v.697h1.008v.245h-1.008v1.005h-.292v-2.193h1.44zM37.624 131.052v-.246h1.754v.246h-.731v1.947h-.292v-1.947h-.731z"/></g><path d="M64.041 148.232a.563.563 0 0 0-.402-.54l-.695-.208H37.352l-.695.208a.563.563 0 0 0-.402.54h27.786zM60.73 146.82H39.564l2.499-.748h16.231zM36.254 148.895h27.787v.748H36.254z" fill="#c1c1c1"/><g fill="#b7b7b7"><path d="M64.041 148.232a.563.563 0 0 0-.402-.54l-.695-.208H37.352l-.695.208a.563.563 0 0 0-.402.54h27.786zM60.73 146.82H39.564l2.499-.748h16.231zM56.019 145.409H44.275l2.499-.748h6.746zM36.254 148.895h27.787v.709H36.254zM36.254 150.232h27.787v.709H36.254zM64.041 151.57H36.254v.146c0 .311.252.564.564.564h26.659a.564.564 0 0 0 .564-.564v-.146z"/></g><path fill="#d3d3d3" d="M44.276 151.57H56.02v.709H44.276z"/></svg>