<svg xmlns="http://www.w3.org/2000/svg" viewBox="673.396 509.685 691.322 126.382"><path d="M1301.74 528.28c14.348-2.384 29.598 1.302 41.21 10.084 8.418 6.231 14.886 15.007 18.502 24.831 4.183 11.519 4.38 24.472.405 36.084-3.408 10.263-10.072 19.387-18.693 25.896-9.424 7.122-21.232 11.114-33.063 10.882-17.709.162-35.048-9.28-44.774-24.033-10.13-14.903-11.953-34.95-4.813-51.473 7.052-16.847 23.152-29.528 41.226-32.271zm-27.515 30.374a616.231 616.231 0 0 0-.012 6.376c1.921 0 3.847 0 5.78-.006.012 11.334 0 22.662.006 33.995h-5.785c-.006 2.123-.006 4.241 0 6.364h18.079c-.006-2.123 0-4.241 0-6.364-1.932 0-3.865 0-5.791-.012.035-13.434-.029-26.868.029-40.301-4.103-.093-8.205-.012-12.306-.052zm23.708 3.998c.035 12.716-.075 25.433.052 38.149 1.076 1.643 2.748 2.841 4.079 4.293h40.475c1.487-1.921 4.617-3.228 4.154-6.063-.069-5.444.064-10.882-.064-16.321-.827-1.452-2.268-2.459-3.408-3.668-13.156.058-26.312-.035-39.468.046-.081-4.732-.017-9.471-.035-14.203h37.316c-.006 1.979-.006 3.957.012 5.936 1.874-.006 3.749-.006 5.629-.006 0-2.794-.023-5.594.023-8.389a165.09 165.09 0 0 0-3.575-3.622c-13.74.046-27.481-.064-41.215.052-1.487 1.088-2.656 2.529-3.975 3.796zM727.2 530.462c3.512-.012 7.018.023 10.529-.023.069 30.669.006 61.343.029 92.012h11.86c.023-30.674-.046-61.343.035-92.017 3.564.064 7.122 0 10.686.046-.041 29.396-.012 58.792-.017 88.187-.04 2.117.185 4.287-.341 6.364-1.007 4.466-5.357 7.851-9.922 7.833-4.241 0-8.487.017-12.728-.012-5.542-.104-10.246-5.247-10.101-10.749-.07-30.547-.013-61.094-.03-91.641zM787.079 530.462c7.301.04 14.614-.081 21.915.058 5.172.069 10.709 3.986 10.761 9.505.017 11.189.017 22.384 0 33.573-.04 4.842-3.275 9.887-8.256 10.784 3.448 16.159 6.838 32.323 10.298 48.476-3.309.012-6.619.006-9.928.006-3.662-15.962-7.376-31.907-11.033-47.869-1.209-.006-2.424-.006-3.633-.012-.006 15.962.006 31.924-.006 47.88h-10.119l.001-102.401zm10.553 10.13c.012 11.137 0 22.268.006 33.405 3.899.006 7.799-.017 11.704.017.029-11.143.006-22.285.012-33.428-3.912.006-7.817-.006-11.722.006zM848.526 530.485c7.654-.017 15.308-.081 22.957.023 4.848-.012 9.424 4.004 9.598 8.927.029 10.801 0 21.609.012 32.416.029 3.003-2.117 5.375-4.223 7.249 2.036 1.695 4.009 3.899 4.2 6.676.312 4.403.11 8.823.168 13.237-.052 6.74.127 13.486-.145 20.226-.093 2.864.44 5.93-.989 8.568-1.545 3.188-5.097 5.028-8.557 5.057-7.66.017-15.314-.029-22.974.017-.07-34.134.023-68.268-.047-102.396zm10.582 10.101c0 11.137-.006 22.28.006 33.417 3.905-.012 7.805 0 11.71-.006.006-11.137-.012-22.268.012-33.399-3.912-.024-7.817-.006-11.728-.012zm.012 44.102c-.029 12.682-.006 25.369-.012 38.051 3.905-.006 7.816.012 11.721-.006-.017-12.682 0-25.358-.006-38.033-3.899-.006-7.804.012-11.703-.012zM915.175 531.034c3.113-.897 6.393-.486 9.592-.573 3.523.069 7.33-.434 10.553 1.342 3.205 1.701 6.052 4.941 5.947 8.753-.012 26.249-.006 52.497 0 78.746-.041 2.285.266 4.709-.787 6.833-1.632 3.413-4.877 6.329-8.748 6.705-3.471.081-6.943-.017-10.408.029-2.031-.017-4.142.185-6.063-.602-4.061-1.597-7.405-5.6-7.272-10.107.006-26.22.012-52.445 0-78.67.023-2.112-.208-4.339.677-6.323 1.203-2.812 3.616-5.109 6.509-6.133zm3.957 9.697c-.006 27.139.006 54.285-.006 81.424 3.76.012 7.527.012 11.293 0-.012-27.145 0-54.285-.006-81.424h-11.281z" fill="#f79226"/><path d="M1304.008 585.134c12.196.006 24.397-.006 36.599.006-.012 4.576-.006 9.153-.006 13.735-12.207-.023-24.414.04-36.616-.035.052-4.571.006-9.136.023-13.706zM683.335 519.954h-9.939v-10.269h31.819v10.269h-9.939V632.77h-11.941z" fill="#f79226"/><g><path d="M971.195 520.898c-.226-5.253 4.004-10.263 9.17-11.062 4.218-.162 8.441.006 12.664-.069 6.081-.642 11.768 5.097 11.444 11.114-.006 6.034-.023 12.068.006 18.097-3.622.035-7.238.012-10.859.017-.017-6.133.035-12.259-.029-18.392-4.032.041-8.065.029-12.097.006-.052 34.042-.006 68.089-.023 102.13 4.154-.017 8.308.035 12.468-.035-.064-16.477-.012-32.954-.029-49.431h-5.496v-9.835c5.34-.012 10.686.023 16.031-.017.029 23.107.058 46.214-.017 69.315-7.457-.046-14.915-.006-22.372-.012-4.339.012-8.643-2.748-10.246-6.81-.856-2.123-.567-4.449-.607-6.676-.002-32.779.009-65.56-.008-98.34zM1032.521 530.467c7.087.006 14.18-.035 21.267.017 4.368-.052 8.834 2.326 10.697 6.364.764 1.522.566 3.263.596 4.906-.029 10.796 0 21.591-.017 32.387-.237 4.576-3.477 9.239-8.192 10.032 3.5 16.164 6.896 32.352 10.304 48.54-3.309.006-6.613.006-9.916.006-3.68-16.02-7.394-32.022-11.079-48.036-1.18.012-2.355.017-3.529.023-.011 16.055.017 32.109-.017 48.164-3.373-.017-6.746.006-10.112-.017.015-34.129.003-68.257-.002-102.386zm10.275 9.974v33.266c3.952.006 7.903-.006 11.854.006.017-11.091.006-22.181.006-33.272h-11.86zM1092.556 539.967c.023-4.651 3.894-9.118 8.626-9.338 4.646-.064 9.292.006 13.937-.035 2.372-.041 4.837.567 6.7 2.1 2.152 1.736 3.28 4.53 3.275 7.272-.006 30.917 0 61.835 0 92.752h-9.98c-.006-16.199.006-32.404-.006-48.603-4.142.006-8.285.012-12.421-.006-.029 16.205.006 32.41-.023 48.615-3.373-.012-6.74-.006-10.113-.006.005-30.916-.012-61.834.005-92.751zm10.408 1.053c.017 10.952-.035 21.904.023 32.855 3.946-.046 7.891-.017 11.837-.023-.006-10.946.012-21.892-.012-32.838-3.951.012-7.896 0-11.848.006zM1150.549 539.4c.035-4.49 3.963-8.719 8.51-8.788 5.699-.023 11.391.006 17.09-.006v9.112c-5.103-.012-10.206.023-15.302-.023-.064 11.438-.017 22.87-.023 34.308 4.189-.012 8.383-.006 12.578-.006 0 3.373-.012 6.746.006 10.119-4.194.012-8.389.006-12.583 0-.017 16.199 0 32.404-.006 48.603h-10.269c.005-31.108-.001-62.216-.001-93.319zM1201.606 530.606h10.703c.064 9.459-.133 18.93.093 28.383 1.817 3.032 3.934 5.884 5.832 8.875 1.863-2.927 4.044-5.664 5.722-8.707.162-9.505.035-19.028.058-28.54 3.575-.017 7.151-.023 10.726 0-.035 6.798-.006 13.596-.012 20.394-.04 3.159.301 6.422-.868 9.442-2.372 6.323-5.942 12.103-9.488 17.813 4.032 6.48 8.406 13.04 10.258 20.527.214 11.351.058 22.725.075 34.082-3.321-.023-6.636-.006-9.957-.012-.035-11.409.069-22.818-.046-34.221-1.678-3.454-4.206-6.474-6.219-9.754-2.071 3.17-4.247 6.266-6.329 9.424-.006 11.525.052 23.049-.023 34.574-3.512-.052-7.018-.012-10.524-.023-.006-10.703.012-21.406-.006-32.109-.046-2.904 1.342-5.56 2.494-8.146 2.494-5.01 5.409-9.806 8.528-14.452-4.177-6.404-8.823-12.803-10.888-20.261-.303-9.082-.042-18.194-.129-27.289z" fill="#d5e14d"/></g></svg>