<svg xmlns="http://www.w3.org/2000/svg" viewBox="0 0 423.89 168.832"><path d="M402.623 109.894c-.04.859-.291 1.776-.077 2.566.441 1.627-.058 3.021-.598 4.483-.735 1.991-1.332 4.032-2.054 6.028-.603 1.667-1.369 3.276-1.938 4.953-.542 1.596-.92 3.246-1.373 4.872-.165.591-.285 1.201-.517 1.764-1.622 3.933-2.559 8.103-5.065 11.736-1.665 2.414-2.383 5.476-3.561 8.233-.408.955-1.077 1.822-1.355 2.806-.543 1.923-1.335 3.386-3.643 3.426-.531.009-1.09.39-1.574.698-2.325 1.478-4.68 1.008-7.071.217-.293-.097-.891-.02-.996.171-1.727 3.114-4.626 3.915-7.868 4.173-1.75.139-3.38.014-5.099-.543-1.865-.604-3.907-.722-5.886-.896-1.338-.118-3.35-.913-3.42-1.947-.114-1.697-1.248-3.628.756-5.099.366-.268.386-1.039.517-1.589.42-1.753.931-3.494 1.197-5.271.454-3.03 1.104-5.99 2.408-8.776.734-1.569 1.578-3.09 2.239-4.688 1.191-2.877 2.244-5.811 3.439-8.686.337-.811 1.713-2.757 1.722-2.708.521 2.857 1.168 6.446 1.683 9.304a3.5 3.5 0 0 0 .102.451c.579 1.824.983 3.73 1.794 5.445.821 1.737.461 3.073-.297 4.711-.992 2.146-1.782 4.421-1.748 6.906.013.941-.597 1.877-.815 2.839-.247 1.088.187 1.823 1.278 2.261 1.108.445 2.132 1.093 3.23 1.567.307.132.869.103 1.098-.099.661-.579 1.229-1.268 1.801-1.943.739-.873 1.473-1.753 2.154-2.67.283-.381.616-.879.593-1.305-.088-1.604.668-2.713 1.802-3.701.256-.223.498-.66.471-.976-.092-1.104.287-1.971.866-2.899.509-.816.66-1.86.942-2.812.446-1.505.897-3.009 1.29-4.527.19-.735.288-1.499.364-2.257.117-1.163.64-1.797 1.736-2.437 1.664-.972 3.194-2.318 4.469-3.778 1.851-2.119 3.382-4.513 5.133-6.724.809-1.021 1.898-1.82 2.714-2.836 2.563-3.188 5.05-6.438 7.584-9.649a35.504 35.504 0 0 1 2.042-2.359c.491-.521.78-1.013.468-1.756-.159-.379-.197-.834-.191-1.253.019-1.444-.307-2.751-1.315-3.841-.545-.589-.629-1.179-.021-1.826.448-.476.726-1.134 1.218-1.545 1.785-1.491 2.147-3.39 2.067-5.611-.095-2.665.092-5.363-1.055-7.847-.488-1.057-1.332-1.955-2.059-2.89-.772-.806-1.337-.186-.555.736.942.993 1.856 2.012 2.035 3.425.255 2.016.442 4.042.617 6.067.066.769.038 1.549.009 2.322-.016.419.014.937-.21 1.235a62.907 62.907 0 0 1-3.155 3.854c-.138.156-.739.106-.976-.061-3.571-2.521-7.211-4.959-10.624-7.68-1.5-1.196-2.504-3.006-3.773-4.505-1.272-1.502-2.616-2.943-3.874-4.456-.285-.343-.448-.866-.485-1.32-.156-1.923-.055-3.885-.4-5.769a15.058 15.058 0 0 0-3.462-7.225c-1.152-1.326-2.295-2.746-3.715-3.73-1.749-1.212-3.864-1.672-6.046-1.657-.443.003-.888-.298-1.332-.46.176-.404.292-.85.54-1.204.549-.784 1.168-1.517 1.751-2.278 1.095-1.429 2.516-2.368 4.248-2.84 2.218-.604 4.428-1.242 6.663-1.775.544-.13 1.363-.125 1.724.194.995.879 1.814 1.956 2.737 2.993-1.546.426-3.32-.361-5.201.612.538.236.777.398 1.035.439.34.054.696.036 1.043.011 2.946-.213 5.74.34 8.568 1.214 2.418.748 4.786 1.648 7.204 2.349 3.273.949 5.562 3.217 8.083 5.213 2.663 2.109 5.29 4.263 7.969 6.352.654.51.989.962.732 1.844-.276.949-.334 1.959-.54 2.932a3.34 3.34 0 0 1-.477 1.175c-1.476 2.163-2.959 4.321-4.495 6.442-.401.554-1.03.937-1.484 1.459-.579.604-.262 1.251.55.668 2.002-1.387 3.088-3.522 4.406-5.465.751-1.107 1.458-2.245 2.173-3.376.122-.193.202-.418.269-.638.501-1.642 1.237-1.877 2.59-.866 1.048.783 2.163 1.48 3.185 2.294.397.316.725.809.903 1.289.429 1.156.651 2.395 1.141 3.52.667 1.531.836 3.085.852 4.733.014 1.405.346 2.807.537 4.211.114.835.202 1.674.345 2.504.607 3.515.667 7.057.496 10.605-.024.5-.37.987-.579 1.475-.118.276-.342.533-.373.814-.179 1.594-.312 3.193-.466 4.79-.037.383-.085.765-.145 1.144-.15.952-.365 1.898-.455 2.856-.158 1.683-.303 3.371-.342 5.059-.058 2.471-.019 4.944-.018 7.416 0 3.167-.102 6.338.047 9.498.076 1.623.076 3.188-.156 4.804-.163 1.136-.106 2.521.414 3.494 1.29 2.414.842 4.669.013 7.014-.529 1.497-.843 2.983-.43 4.631.642 2.561-2.041 6.314-4.83 7.091-1.401.39-2.754.953-4.154 1.348-.602.17-1.268.127-1.907.15-.611.022-1.256-.121-1.829.029-1.233.321-2.218-.453-1.942-1.71.12-.547.363-1.167.756-1.536 1.776-1.671 1.464-3.741.85-5.62-.546-1.672-1.264-3.282-1.47-5.05-.072-.613-.195-1.242-.126-1.844.232-2.029.727-4.044.777-6.074a89.66 89.66 0 0 0-.265-9.111c-.26-3.364-.823-6.704-1.096-10.067-.08-.99.263-2.063.608-3.028.803-2.25-.168-4.137-.986-6.109-.571-1.377-.974-2.827-1.412-4.257-.446-1.458-.843-2.93-1.261-4.396-.136-.023-.271-.043-.405-.064z"/><path d="M374.577 138.366c-.015 1.511.189 3.047.5 4.529.297 1.414.717 2.941-2.814 2.654a.507.507 0 0 1-.122-.024c-2.046-.677-5.293-3.608-5.307-6.609-.004-.943-.637-1.874-.92-2.829-.261-.882-.418-1.796-.623-2.694-.229-1.001-.491-1.996-.658-3.009-.154-.935-.541-1.861-.578-2.801-.076-1.948.453-2.689 2.256-3.424 2.782-1.134 5.606-2.171 8.338-3.413.844-.383 1.555-1.128 2.222-1.836a312.096 312.096 0 0 0 6.041-6.609c.832-.936 1.688-1.905 2.296-2.992.637-1.139.343-2.082-.82-2.618-1.489-.686-3.092-1.116-4.617-1.731-1.968-.793-3.887-1.714-5.868-2.473-1.027-.393-2.154-.516-3.215-.833-1.206-.36-2.382-.823-3.586-1.191-.316-.097-.69-.006-1.037-.001.188.276.321.716.574.802 1.481.502 2.991.918 4.489 1.368.884.266 1.786.489 2.642.826 1.077.423 2.117.939 3.17 1.422 1.582.725 1.933 1.625 1.625 3.308-.453 2.475-.727 4.981-1.137 7.464a5.713 5.713 0 0 1-3.309 4.271c-2.619 1.167-5.313 2.168-7.948 3.303-.89.384-1.696.966-2.583 1.482.206-1.404.436-2.692.573-3.99.16-1.516.291-3.04.339-4.563.054-1.73.187-3.49-.049-5.19-.323-2.338-.068-4.721-.854-7.034-.824-2.428-2.211-4.59-3.024-7.005-.575-1.707-1.249-3.404-1.584-5.161-.264-1.385-.158-2.86-.07-4.287.119-1.926-1.067-2.885-2.434-3.88-1.543-1.124-3.115-2.281-4.394-3.681-2.886-3.16-5.61-6.469-8.373-9.739-.645-.764-15.915-33.383 4.894-34.426 4.042.188 6.768 3.573 6.685 7.264-.039 1.728.594 3.968.502 5.694-.033.618-.766.73-.853 1.339-.309 2.16-.63 4.32-1.039 6.463-.048.249-.707.594-1.025.541-1.097-.183-2.157-.586-3.254-.78-.82-.145-1.675-.147-2.512-.111-.889.038-.824.932-.031.919 3.02-.188 5.794 1.388 8.897 1.074 1.555-.158 3.266.693 4.826 1.295 1.25.483 2.433 1.201 3.535 1.973.463.324.812 1.038.874 1.611.032.29-.638.776-1.08.979-3.876 1.783-5.912 4.811-5.828 9.045.059 2.996.457 5.987.782 8.972.058.528.422 1.079.777 1.51 2.094 2.545 4.856 3.114 7.953 2.558 1.018-.183 2.014-.487 3.032-.67.446-.08 1.03-.171 1.365.04 1.853 1.164 3.662.552 5.301-.271 1.464-.735 2.377-.752 3.433.645 1.074 1.42 2.531 2.495 4.311 3.02.228.067.507.29.625.497 1.625 2.86 4.658 4.14 7.016 6.153 1.914 1.634 4.029 2.998 6.156 4.344 2.63 1.664 3.533 4.112 3.522 6.993-.001.352-.213.749-.434 1.047-1.375 1.856-2.74 3.723-4.185 5.524-2.053 2.559-4.176 5.061-6.262 7.594-2.229 2.706-4.383 5.477-6.701 8.104-1.187 1.346-2.645 2.458-4.011 3.64-.664.575-1.262.358-1.783-.295-.288-.361-.636-.678-.982-.986-.424-.377-.826-.89-1.489-.353-.542.445-2.142 5.692-2.158 7.242z"/><path d="M359.239 73.695c.001-4.575 1.878-7.39 5.689-8.925 3.952-1.591 8.211-.378 10.794 2.983 1.562 2.033 3.174 4.082 3.716 6.602.497 2.31.749 4.728.657 7.08-.034.876-1.277 1.783-2.107 2.519-.491.435-1.238.617-1.899.817-1.074.325-2.112.53-3.246-.066-.616-.324-1.496-.282-2.238-.209-1.941.193-3.865.62-5.808.721-2.413.126-4.637-2.068-4.838-4.445-.212-2.493-.504-4.978-.72-7.077z"/><g><path d="M151.797 167.025c-1.255-.107-2.512-.194-3.764-.324-1.544-.16-2.873-1.259-3.243-2.766-.749-3.048-.259-6.058.099-9.084.19-1.605.237-3.227.373-4.839.12-1.411.138-2.851.45-4.221.34-1.497 1.359-2.197 2.861-2.13 1.413.063 2.789-.492 3.904-1.363 1.739-1.357 3.341-2.793 4.663-4.563.428-.573 1.085-.984 1.664-1.434 2.378-1.848 4.918-3.52 7.106-5.569 2.048-1.917 3.807-4.165 5.543-6.385 1.591-2.034 3.539-3.549 5.793-4.73 2.28-1.195 3.726-3.229 4.63-5.519.826-2.093 2.055-4.021 3.811-5.428 2.914-2.336 4.805-5.401 4.929-9.112.139-4.163 2.026-7.658 3.832-11.187.963-1.883 2.314-3.563 3.397-5.39.523-.882.839-1.887 1.238-2.841 1.062-2.537 1.488-5.298 3.145-7.644.977-1.383 1.417-3.157 2.029-4.781 1.489-3.95 4.069-7.272 6.166-10.873.554-.951.906-2.017 1.384-3.014.326-.68.581-1.462 1.095-1.97 1.5-1.483 3.284-2.533 5.308-3.223.956-.326 1.786-1.013 2.686-1.514.56-.312 1.162-.861 1.71-.822 1.785.128 2.869-.851 3.967-2.006 1.195-1.257 2.5-2.409 3.727-3.637 1.408-.777 3.846-1.308 6.218-.77 1.49.637 2.948 1.376 4.484 1.871 1.351.436 2.039 1.351 2.431 2.572.363 1.132.755 2.285.876 3.455.08.775-.164 1.658-.497 2.385-.447.975-1.597 1.845-1.601 2.763-.007 2.091-1.301 1.467-2.357 1.489-3.787.076-7.25-1.03-10.451-2.981-.677-.413-1.236-1.036-1.804-1.606-.408-.409-.697-.942-1.127-1.321-.196-.172-.603-.104-.914-.145.06.269.055.577.191.801 1.477 2.446 3.861 3.668 6.351 4.821 3.24 1.5 6.714 1.262 10.115 1.605.231.023.501-.05.689.046 2.186 1.108 4.11.341 6.177-.549 1.782-.767 3.83-.875 5.516-2.003.96-.643 2.081-1.086 2.935-1.839 2.225-1.962 4.35-4.04 6.502-6.084 1.436-1.364 2.813-2.767 5.04-2.717 1.374.031 2.178.471 2.662 1.742.096.253.195.507.32.746.973 1.873.888 2.023-.579 3.558-2.714 2.84-5.876 5.13-9.062 7.362-3.6 2.522-7.37 4.798-11.031 7.235-1.849 1.231-3.772 1.041-5.68.4-2.232-.75-4.427-.976-6.481.296-1.023.634-1.89 1.564-2.713 2.465-.97 1.061-1.836 1.865-3.462 1.112-1.194-.553-2.082.016-2.716 1.272-1.186 2.345-2.298 4.732-3.595 7.015-2.414 4.251-5.249 8.184-8.956 11.448-.698.614-1.18 1.625-1.434 2.518-.284.997-1.343 1.57-2.35 1.322-1.263-.311-2.532-.709-3.702-1.27-2.542-1.219-5.019-2.576-7.541-3.839-1.513-.758-2.819-.146-.512.866a533.844 533.844 0 0 0 9.861 4.879c.574.276 1.262.322 1.9.458.782.166 1.178.564 1.185 1.435.018 2.501.702 4.731 2.854 6.276.503.361.973.79 1.52 1.063 2.528 1.26 4.183 3.344 5.655 5.671 1.841 2.91 3.765 5.769 5.721 8.603a5.88 5.88 0 0 1 .96 4.299c-1.277 7.734-2.275 15.498-2.691 23.338-.115 2.168-.707 4.36-1.416 6.426-.321.933-1.39 1.683-2.257 2.334-.794.596-1.958.889-1.95 2.077.008 1.189 1.042 1.751 1.957 2.255.947.521 2.001.859 2.913 1.43.992.621 1.976 1.325 2.764 2.177.423.457.79 1.55.54 1.914-.416.605-1.312 1.061-2.075 1.199-.966.175-2.008.028-3.004-.087-1.877-.216-3.738-.636-5.619-.736-2.379-.127-4.773.045-7.157-.033-1.694-.055-3.389-.261-5.07-.495-.994-.139-1.628-1.017-1.399-2.058.437-1.992 1.005-3.956 1.561-5.92.417-1.474.836-2.953 1.377-4.383.295-.781.674-1.538 1.188-2.196 1.465-1.874 1.981-4.023 2.264-6.3.125-1.003.34-2.115.89-2.922 1.691-2.482 1.931-5.361 2.448-8.15.281-1.514-.377-3.016-1.521-3.983-2.859-2.42-4.37-5.763-6.442-8.731-1.509-2.162-3.487-3.997-5.262-5.973-.821-.914-1.641-1.83-2.493-2.714-2.014-2.092-1.802-.692-.839.539a35.476 35.476 0 0 0 2.095 2.458c.847.899 1.786 1.715 2.595 2.645.196.225.2.879.014 1.129-.923 1.238-1.856 2.491-2.943 3.58-1.603 1.605-3.346 3.068-5.018 4.605-2.503 2.302-4.985 4.627-7.497 6.918-1.591 1.452-3.19 2.898-4.842 4.279-2.254 1.884-4.561 3.704-6.845 5.553l-.224.26c-2.171 3.618-5.991 5.535-8.858 8.445-1.113 1.129-2.992 1.485-4.484 2.266-1.573.823-3.059 1.813-4.598 2.696-.42.241-.819.511-1.189.823-.801.675-1.658 1.389-2.172 2.271-.572.98-.847 2.154-1.125 3.275-.121.489-.005 1.078.142 1.582.183.625.527 1.202.772 1.811.837 2.081-.167 3.747-2.416 3.959-.729.069-1.47.011-2.206.011-.006.02-.007.045-.009.07z"/><path d="M283.103 163.249c-1.004-.071-2.043-.007-3.003-.251a9.175 9.175 0 0 1-2.774-1.248c-.748-.499-.575-1.238.159-1.699.817-.513 1.718-.892 2.535-1.405 1.315-.826 2.459-1.776 2.225-3.598-.184-1.435-.205-2.897-.478-4.312-.137-.71-.516-1.535-1.056-1.979-4.009-3.298-6.105-8.047-9.234-12.005-2.324-2.939-4.525-5.975-6.864-8.902-1.954-2.444-3.529-5.075-4.477-8.06-.16-.503-.059-1.086-.192-1.602-.581-3.495-1.065-.312-1.044.056.144 2.459 1.165 4.64 2.444 6.671.589.935.468 1.526-.253 2.201a76.41 76.41 0 0 0-2.069 2.037c-.82.827-.976 1.82-.969 2.974.019 3.226 1.226 6.371.597 9.639-.233 1.212-.535 2.465-.448 3.674.199 2.765.625 5.514.945 8.271.066.567.21 1.179.072 1.705-.341 1.3-.032 2.378.852 3.318.934.993 1.27 2.112 1.179 3.494-.102 1.562.124 3.144.067 4.712-.035.971-.723 1.489-1.71 1.562-1.347.1-2.691.268-4.039.309-5.512.165-10.953-.662-16.406-1.272-1.427-.159-1.993-.908-2.193-2.306-.177-1.238.333-2.238 1.441-2.637 1.946-.701 3.977-1.165 5.955-1.785.597-.187 1.338-.413 1.667-.871 1.276-1.775 1.896-3.317.537-5.182-2.067-2.834-2.409-6.03-1.973-9.402.071-.549-.114-1.136-.212-1.699-.21-1.204-.542-2.396-.644-3.608-.265-3.152-.43-6.312-.647-9.469a2.494 2.494 0 0 0-.184-.76c-.976-2.423-.725-4.754.308-7.116 1.377-3.149 2.658-6.342 3.913-9.543.491-1.252.766-2.587 1.193-3.867.744-2.228 1.446-4.477 2.326-6.651.612-1.511.965-2.984.772-4.619-.217-1.844-.321-3.702-.443-5.556-.11-1.679.148-2.016 1.777-2.156 3.158-.272 6.321-.49 9.481-.737.423-.033.841-.12 1.264-.16.983-.092 1.97-.152 2.951-.267.265-.031 1.936-.815.221-.95-.722-.057-1.459-.157-2.179-.093-4.042.355-8.08.75-12.12 1.13-.647.061-.99-.281-.916-.885.077-.634.174-1.319.475-1.864 1.211-2.193 2.038-4.49 2.287-6.993.106-1.069.234-2.142.461-3.19.071-.326.483-.794.765-.813.585-.04 1.252.048 1.772.309 3.172 1.594 6.312 3.251 9.462 4.888 2.054 1.067 4.112 2.128 6.159 3.209.668.353.659.747.046 1.215-2.297 1.753-2.238 2.175-1.403 4.91.611 2.002.815 4.164.942 6.27.169 2.793-.267 5.517-1.199 8.207-.801 2.311-.383 4.761.175 7.088.576 2.399 1.995 4.403 3.377 6.429.885 1.298 1.174 2.998 1.958 4.376.172.302.389.576.623.832.729.797 1.532 1.533 2.212 2.369.626.77 1.331 1.594 1.599 2.511.489 1.674 1.315 3.093 2.309 4.494.682.962 1.008 2.167 1.618 3.19 1.459 2.448 2.864 4.946 4.538 7.244 1.187 1.63 2.481 3.141 3.171 5.081.224.629.698 1.191 1.137 1.718 1.258 1.511 2.616 2.942 3.797 4.509.306.406.375 1.403.091 1.764-.749.95-1.637 1.915-2.683 2.477-1.446.777-3.098 1.164-4.638 1.777-.523.208-1.156.481-1.428.918-1.272 2.044-3.194 2.223-5.287 2.045-.231-.02-.463-.036-.695-.054.004-.007.004-.012.005-.017z"/><path d="M281.379 28.069c4.093.158 8.047 2.796 9.071 6.059 1.042 3.323-.092 8.344-3.628 10.289-1.268.697-2.244 1.967-3.265 3.057-.745.795-.597 1.707-.177 2.698.359.848.436 1.82.599 2.744.349 1.967.322 4.093 1.099 5.869a16.96 16.96 0 0 1 1.426 6.51c.091 4.203-.096 8.413-.235 12.618a49.314 49.314 0 0 1-.461 5.43c-.288 1.995-1.057 2.551-3.012 2.24-2.394-.381-4.847-.64-7.13-1.392-3.466-1.142-6.435-3.797-10.065-4.438-2.109-.372-3.794-1.741-5.339-3.225-.326-.313-.911-.387-1.233-.714-1.217-1.238-2.681-1.508-4.351-1.37-1.134.094-2.212-1.726-1.825-2.951.719-2.277 2.364-3.754 4.35-4.912.177-.103.496-.153.659-.064 1.501.823 3.293 1.249 4.113 3.02.173.375.436.791.775.994 3.858 2.314 7.58 4.943 12.23 5.496.192.023.4.049.568.064 1.402.123 1.351-.893.099-1.084-.945-.144-1.967-.109-2.821-.466-.95-.398-1.738-1.177-2.614-1.763-.355-.237-.912-.671-1.114-.555-1.048.6-1.795-.065-2.572-.49-.943-.517-1.835-1.129-2.736-1.721-.252-.166-.545-.364-.665-.62-.795-1.698-2.263-2.601-3.871-3.334-.834-.38-1.007-.743-.546-1.68.85-1.727 1.414-3.593 2.152-5.378.209-.505.515-1.055.936-1.374 2.094-1.587 4.332-2.997 6.344-4.678 1.829-1.528 3.493-3.271 5.098-5.038.41-.451.59-1.434.408-2.03-.365-1.194-1.088-2.274-1.583-3.435-.138-.323-.151-.908.049-1.129.897-.993 1.051-2.02.455-3.2-.444-.88-.241-1.643.463-2.306 1.041-.981 2.118-1.929 3.098-2.968.817-.867 1.548-1.821 2.259-2.779.81-1.087 1.625-2.109 2.992-1.994zM254.473 33.491c-2.341 1.372-4.581 2.695-6.837 3.991-.196.112-.661.136-.715.04a1.23 1.23 0 0 1-.112-.849c.589-2.19 1.282-4.355 1.803-6.56.381-1.61.599-3.265.796-4.911.171-1.428-.39-2.496-1.71-3.195-.9-.477-1.076-1.437-.378-2.18.942-1.003 1.789-2.153 2.895-2.928 1.512-1.059 3.239-1.553 5.161-.873.598.212 1.419.142 2.029-.088 3.79-1.43 7.562-2.91 11.315-4.437 4.678-1.903 9.326-3.882 13.998-5.8 3.821-1.569 7.662-3.086 11.482-4.656.522-.215 2.308-1.133 2.964-1.035 1.462.218.878 1.626.342 2.121-.386.357-.876.638-1.366.843-2.276.951-4.578 1.84-6.853 2.796-4.163 1.75-8.302 3.558-12.471 5.292-4.92 2.047-9.86 4.047-14.794 6.06-.597.244-1.586.617-2.214.764-2.626.613-3.806 2.554-4.64 4.961-1.048 3.023-1.244 6.108-1.025 9.25.035.517.239 1.025.33 1.394z"/><path d="M245.735 48.594c-.794-2.279-1.541-4.356-2.216-6.456-.082-.255.129-.778.365-.934 2.892-1.904 5.783-3.815 8.746-5.606 1.066-.644 2.316-.99 3.495-1.436 1.817-.688 2.735-2.154 3.487-3.822.408-.904.855-1.844 1.503-2.573.965-1.085 2.208-1.538 3.765-1.281.944.156 2.005-.017 2.942-.288 1.494-.432 2.914-.3 4.326.186 1.195.412 1.641 1.635.855 2.739-.749 1.051-1.603 2.162-2.671 2.827-2.842 1.769-5.54 3.831-8.831 4.806-.7.207-1.339.587-1.869 1.089-2.873 2.725-6.523 4.308-9.634 6.667-1.279.97-2.322 2.25-3.478 3.383-.259.255-.542.484-.785.699zM256.017 41.975c.348.145.862.333 1.101.572.784.786 1.671 1.473 2.771 1.622 2.321.315 3.278.772 2.417 1.506-2.313 1.974-4.63 3.944-6.985 5.866-.233.19-.863.214-1.091.037-1.643-1.276-3.225-2.63-4.836-3.947-.519-.424-.702-.883-.083-1.307 2.096-1.434 4.218-2.832 6.333-4.239.091-.06.218-.066.373-.11z"/></g><g><path d="M127.567 51.173c1.325 1.601 4.029 7.268 4.056 7.782.002.037 2.629 6.517 4.218 9.584.83 1.602 1.947 3.055 2.788 4.653.625 1.187 1.091 2.474 1.492 3.759.478 1.534.142 2.8-1.246 3.876-1.348 1.044-2.531 1.578-4.147.573-1.401-.872-2.965-1.482-4.383-2.331-.637-.381-1.151-1.018-1.621-1.617-1.312-1.674-2.82-3.041-4.848-3.836-.802-.315-1.445-1.014-2.201-1.471-.71-.43-1.523-.701-2.194-1.178-.376-.267-.775-.803-.788-1.229-.069-2.327 2.67-4.441 4.915-3.829.378.103.736.423 1.009.727.358.4.735.844.908 1.338.688 1.967 2.607 2.496 4.063 3.555.187.136 2.774.385.532-.823-1.587-.85-2.235-2.224-2.443-3.94-.112-.921-.761-1.009-1.831-.292-.163-.129-.406-.232-.505-.413-.591-1.09-1.546-1.255-2.668-1.2-2.442.119-4.705 2.128-5.029 4.534-.144 1.072.511 2.116 1.566 2.489.292.104.593.183.878.304 2.671 1.13 3.043 2.242 1.611 4.651-1.658 2.79-3.297 5.591-4.046 8.801-.262 1.124-.415 2.298-.85 3.352-.804 1.948-1.811 3.812-2.675 5.736-1.068 2.378-2.63 3.081-5.037 1.979a22.01 22.01 0 0 1-3.932-2.35c-1.597-1.189-3.153-2.464-4.551-3.877-.806-.815-1.239-1.991-1.896-2.967-.975-1.741-1.32-.604-.897.425 1.372 3.341 4.154 5.419 6.941 7.444 1.199.871 2.558 1.52 4.001 2.36-1.655 1.294-.457 2.287.191 3.465.694 1.261 1.123 2.667 1.677 4.006.482 1.165.806 2.439 1.497 3.465 1.996 2.965 3.212 6.314 4.103 9.655.624 2.339 1.599 4.565 2.076 6.935.159.79.105 1.635.344 2.393.332 1.053.881 2.035 1.273 3.071.225.596.429 1.234.46 1.863.096 1.983-.262 3.992.913 5.855.361.573.247 1.514.185 2.273-.206 2.528 1.162 17.56 2.138 18.086.61.328 3.729 2.287 4.413 2.591 1.401.623 2.901 1.028 4.293 1.667a9.257 9.257 0 0 1 2.435 1.649c.635.597 1.042 1.432 1.583 2.136.375.488.307.767-.227 1.099-1.685 1.045-3.366 1.217-5.137.22-1.581-.889-3.263-1.294-5.11-1.239-.862.025-1.731-.458-2.61-.65-1.313-.286-2.63-.684-3.958-.735-2.744-.105-4.976-2.242-5.272-4.972-.503-4.646-1.034-9.295-1.761-13.91-.466-2.954-1.381-5.834-1.953-8.774-.338-1.736-.374-3.529-.63-5.284-.102-.701-.278-1.389-.473-2.071a155.096 155.096 0 0 0-2.002-6.52c-.641-1.924-1.794-3.605-3.127-5.133-.757-.868-1.143-2.044-1.681-3.091-.282-.549-.502-1.134-.829-1.653-1.434-2.283-2.82-4.603-4.37-6.807-1.689-2.401-3.404-4.814-5.379-6.973-.985-1.077-2.493-1.839-3.908-2.325-3.321-1.14-6.712-2.093-10.116-2.961-1.187-.302-2.416-.366-3.637-.269-5.516.439-10.942-.04-16.352-1.121-1.414-.282-2.93-.015-4.394-.094-.892-.048-1.929-.027-2.633-.466-2.547-1.59-5.395-1.942-8.243-2.478-2.043-.384-4.175-.636-5.866-2.184-1.46-1.336-3.328-.85-4.996-.533-2.87.546-5.606.084-8.317-.724-1.462-.436-2.172-1.506-2.08-3.043a24.86 24.86 0 0 1 .534-3.871c.317-1.433 1.712-2.187 3.105-1.724 1.978.658 3.904.928 6.026.661.993-.125 2.31.672 3.166 1.414 2.398 2.078 5.026 1.643 7.623.867 1.839-.55 3.65-.79 5.486-.425 2.226.441 4.419 1.058 6.614 1.645 1.994.533 3.942 1.399 5.965 1.616 1.958.21 3.993-.149 5.979-.385 3.055-.364 6.035-1.124 9.164-1.192 2.205-.048 4.386-1.006 6.586-1.524 1.302-.307 2.609-.675 3.933-.789 2.153-.185 4.064-.561 4.843-2.974.134-.415.592-.832 1.022-.904 2.215-.369 3.586-1.736 4.637-3.573 1.106-1.933 2.297-3.82 3.324-5.794.202-.387-.016-1.202-.325-1.598-.482-.619-.449-.956.133-1.42 1.874-1.497 3.788-2.882 6.05-3.804 1.067-.435 1.945-1.373 2.839-2.163.232-.205.257-.705.278-1.076.041-.709.012-1.421.012-2.294 3.146 1.265 5.329-.401 7.599-1.655.849-.386.931-1.35-.517-.765-1.529.615-3.021 1.323-4.563 1.9-.808.303-1.334.02-1.582-.958-.317-1.25-.877-2.438-1.341-3.649-.039-.101-.13-.226-.223-.256-1.525-.485-1.394-1.705-1.366-2.927.015-.649-.103-1.309-.225-1.952-.565-2.991.134-5.803 1.551-8.363 1.059-1.913 3.176-2.722 5.149-3.356 1.81-.582 4.995-1.286 7.683-.048 2.165 1.353 2.076 2.839 2.81 4.436.88 1.912 4.095 13.639 4.321 13.912z"/><path d="M27.205 115.826c-.194 1.912-.205 3.887-.735 5.705-.315 1.08-.109 2.111-.339 3.064-.437 1.806-1.044 3.683-2.058 5.215-2.962 4.477-6.169 8.79-9.252 13.188-.412.587-.659 1.29-.977 1.942-.487.998-.873 2.06-1.473 2.985-1.947 3.003-1.34 5.563 1.324 7.724.432.351 1.06 1.01 1.425 1.43 1.096 1.259 2.639 1.584 4.152 1.974.558.144 1.273.127 1.07 1.001-.212.91.433 2.295-1.185 2.494-2.895.356-5.756.3-8.205-1.569-2.175-1.661-4.711-2.419-7.256-3.209-1.064-.33-2.1-.756-3.134-1.175-.585-.237-.777-1.62-.271-2.371.704-1.044 1.603-1.969 2.221-3.057.818-1.438 1.5-2.962 2.146-4.489 2.315-5.474 4.588-10.965 6.883-16.447.164-.392.283-.863.576-1.129 1.546-1.402 1.399-3.221 1.352-5.032-.017-.658.005-1.316-.001-1.974-.008-1.022-.216-1.833-1.524-1.86-.301-.006-.736-.453-.857-.787-.231-.645-.288-1.354-.407-2.038-.328-1.891-.726-3.774-.952-5.678-.213-1.794-.248-3.609-.347-5.416-.027-.486-.004-.974-.004-1.559 1.15.197 2.255.478 3.375.56 3.224.238 6.452.497 9.681.542 1.471.021 2.967-.366 4.413-.726.465-.116 2.592-1.206-.23-.897-2.707.297-5.422.699-8.135.712-2.336.011-4.699-.337-7.004-.773-1.471-.279-2.854-1.258-2.913-3.063-.085-2.577-.589-5.139-.703-7.717-.131-2.971.03-5.954-.049-8.929-.084-3.164-.36-6.324-.432-9.488-.034-1.493-.002-3.05.377-4.479.97-3.658 1.259-7.37 1.318-11.121.019-1.222.351-2.165 1.248-3.18.905-1.024 1.044-2.689 1.678-3.997.807-1.667.961-3.461 1.278-5.228.125-.697.4-1.096 1.21-1.086 1.207.015 1.123-1.059 1.378-1.823.142-.426.138-1.002.425-1.262 2.195-1.987 3.968-4.501 6.802-5.703.947-.402 1.998-.551 2.974-.894.774-.271 1.712-.475 2.218-1.034 1.552-1.714 3.483-2.518 5.679-2.85.837-.127 1.311-.485 1.405-1.397.034-.33.427-.688.743-.908a8.186 8.186 0 0 1 1.615-.85c.271-.109.675-.147.918-.021.949.491 1.842 1.091 2.786 1.593 1.342.713 2.493 1.54 2.71 3.216.034.267.386.664.638.705 3.203.519 5.84 2.343 8.706 3.65 1.579.72 2.68 1.78 3.433 3.274.115.228.067.539.094.811-.253-.014-.532.037-.755-.052-3.461-1.378-6.937-2.724-10.358-4.198-.998-.43-1.858-1.206-2.74-1.877-1.274-.969-1.691-.841-2.93.061-1.771 1.289-3.74 2.304-5.553 3.541-1.323.903-2.557 1.934-3.826 2.916-.477.369-1.289.928-1.811 1.229-.966.556-1.96 1.063-2.913 1.64-1.324.801-1.525 5.126-1.516 5.934.012 1.109.718 1.556.936.009.203-1.443.347-2.896.59-4.333.062-.369.357-.903.657-.995 2.93-.898 4.686-3.454 7.16-4.979 2.5-1.541 5.024-3.043 7.542-4.555.084-.051.218-.018.223-.019.371.677.872 1.258 1.007 1.914.208 1.015.215 2.081.212 3.125-.002.674-.426 1.439-.219 2.001.422 1.148.256 2.166-.064 3.258-.314 1.069-.538 1.977-1.591 2.808-1.279 1.01-2.067 2.662-3.008 4.076-1.01 1.517-1.438 1.73-2.851.638-2.106-1.627-3.8-.587-5.338 1.028-.315.33-.289 1.283-.054 1.773a9.017 9.017 0 0 0 1.738 2.444c1.178 1.176 1.628 2.662 1.797 4.176.387 3.465 2.163 6.311 3.844 9.192 1.255 2.15 2.511 4.311 4.039 6.276.725.932.406 1.356-.489 1.468-.614.076-1.224.183-1.838.252-1.427.159-2.681-.004-3.842-1.102-1.301-1.229-2.92-1.985-4.831-1.848-.344.025-.825-.123-1.041-.369-.731-.83-1.38-.684-2.204-.129-.372.25-1.038.292-1.455.128-2.894-1.143-3.831.245-4.664 2.609-.425 1.205-.5 2.563-.561 3.86-.09 1.909.938 3.385 2.803 3.897 1.398.384 2.869.534 4.317.697 1.174.133 2.248.185 2.181 1.84-.021.521.485 1.043.636 1.596.28 1.024.413 2.091.724 3.104.515 1.676 1.031 3.361 1.721 4.969.501 1.168 1.101 2.171.802 3.59-.166.787.37 1.77.724 2.607.512 1.208 1.213 2.338 1.703 3.553.296.733.323 1.572.512 2.353.249 1.033.415 2.109.833 3.073 1.182 2.718 2.55 5.357 3.698 8.089.7 1.665 0 3.355-.432 4.982a432.803 432.803 0 0 1-2.762 9.879c-.333 1.144-.809 2.247-1.214 3.37-.628 1.742-1.201 3.459-1.128 5.39.053 1.399-.383 2.813-.569 4.225-.304 2.3.876 3.733 2.809 4.705 1.174.59 2.303 1.331 3.542 1.71 1.033.315 2.198.264 3.304.26 1.378-.004 1.561.185 2.051 2.011.305 1.136-.487 1.289-1.186 1.607-1.884.858-3.825 1.486-5.926 1.267-.913-.095-1.804-.398-2.717-.509a161.3 161.3 0 0 0-5.379-.54c-1.421-.125-2.856-.139-4.26-.358-.377-.059-.842-.634-.962-1.059-.448-1.581-.645-3.124.436-4.654.444-.629.436-1.634.485-2.476.204-3.476.315-6.958.534-10.433.094-1.499.392-2.983.552-4.479.164-1.536.201-3.088.425-4.613.176-1.203.359-2.47.881-3.544.916-1.886 1.139-3.592-.378-5.23-1.812-1.957-1.837-4.141-1.13-6.584.323-1.122-.354-6.491-.731-2.764zM108.417 54.229c-1.491-.526-2.834-1.008-4.183-1.474a2.4 2.4 0 0 0-2.74.888c-.223.315-.446.639-.601.989-.776 1.756-1.643 3.421-3.559 4.219-.182.076-.294.321-.439.488l.115.348c.48-.126 1.015-.156 1.431-.394 1.461-.838 2.412-2.121 3.062-3.667.94-2.237 1.378-2.395 3.571-1.436.283.124.564.252.847.377.541.24 1.584-.137 1.509.843-.072.947-.335 1.994-.862 2.756-.439.636-1.392.91-2.101 1.369-2.196 1.421-4.577 2.635-6.516 4.35-1.67 1.477-2.869 3.502-4.208 5.335-1.132 1.55-2.331 2.988-4.204 3.663-1.704.614-3.382.789-4.989-.387-.504-.369-.732-1.021-.605-1.632.744-3.578 2.297-6.566 5.586-8.507 2.262-1.335 4.286-2.913 5.683-5.321 1.126-1.941 2.746-3.622 4.295-5.28.617-.66 1.605-1.011 2.477-1.381.772-.328 1.631-.443 2.423-.732 1.027-.374 2.235.06 2.701 1.048.448.95.825 1.934 1.226 2.906.051.126.038.278.081.632z"/><path d="M50.371 100.6c-2.603.016-5.362-2.691-5.759-6.002a2.728 2.728 0 0 0-1.138-1.91c-.263-.188-.182-.526-.206-.818.289-.018.609-.127.861-.04 2.317.796 4.609 1.669 6.937 2.428 1.15.375 2.343.646 2.867 1.87.215.503.181 1.119.224 1.686.01.132-.133.273-.193.414-.933 2.183-1.196 2.357-3.593 2.372z"/></g></svg>