<svg xmlns="http://www.w3.org/2000/svg" viewBox="0 0 30 30"><path d="M29.78 6.757L23.243.22c-.306-.306-.868-.281-1.251.102L.312 22.002c-.357.357-.409.919-.102 1.251l6.537 6.537c.306.306.868.281 1.251-.102l21.68-21.68c.383-.357.434-.919.102-1.251z" fill="#c3c3c3"/><g fill="#cecece"><circle cx="22.604" cy="3.131" r=".868"/><circle cx="24.724" cy="5.276" r=".868"/><circle cx="26.869" cy="7.396" r=".868"/><circle cx="20.536" cy="5.2" r=".868"/><circle cx="22.655" cy="7.345" r=".868"/><circle cx="24.8" cy="9.464" r=".868"/><circle cx="18.468" cy="7.268" r=".868"/><circle cx="20.587" cy="9.413" r=".868"/><circle cx="22.732" cy="11.532" r=".868"/><circle cx="7.258" cy="18.478" r=".868"/><circle cx="9.403" cy="20.597" r=".868"/><circle cx="11.522" cy="22.742" r=".868"/><circle cx="5.189" cy="20.546" r=".868"/><circle cx="7.334" cy="22.666" r=".868"/><circle cx="9.454" cy="24.811" r=".868"/><circle cx="3.121" cy="22.615" r=".868"/><circle cx="5.266" cy="24.734" r=".868"/><circle cx="7.385" cy="26.879" r=".868"/></g><path d="M6.747.22L.21 6.757c-.306.306-.281.868.102 1.251l21.68 21.68c.357.357.919.409 1.251.102l6.537-6.537c.306-.306.281-.868-.102-1.251L7.998.322C7.641-.061 7.079-.112 6.747.22z" fill="#d6d6d6"/><g fill="#cecece"><circle cx="3.121" cy="7.396" r=".868"/><circle cx="5.266" cy="5.276" r=".868"/><circle cx="7.385" cy="3.131" r=".868"/><circle cx="5.189" cy="9.464" r=".868"/><circle cx="7.334" cy="7.345" r=".868"/><circle cx="9.454" cy="5.2" r=".868"/><circle cx="7.258" cy="11.532" r=".868"/><circle cx="9.403" cy="9.413" r=".868"/><circle cx="11.522" cy="7.268" r=".868"/><circle cx="18.468" cy="22.742" r=".868"/><circle cx="20.587" cy="20.597" r=".868"/><circle cx="22.732" cy="18.478" r=".868"/><circle cx="20.536" cy="24.811" r=".868"/><circle cx="22.655" cy="22.666" r=".868"/><circle cx="24.8" cy="20.546" r=".868"/><circle cx="22.604" cy="26.879" r=".868"/><circle cx="24.724" cy="24.734" r=".868"/><circle cx="26.869" cy="22.615" r=".868"/></g><path fill="#c3c3c3" d="M8.684 14.188l5.254-5.254 7.601 7.601-5.254 5.255z"/></svg>