<svg xmlns="http://www.w3.org/2000/svg" viewBox="0 0 574.125 151"><path d="M79.8 76.1c8.3-9.7 20.7-15.9 34.5-15.9 2.8 0 5.5.3 8.1.7 1.8-4.9 2.7-10.1 2.7-15.6 0-25-20.3-45.3-45.3-45.3S34.5 20.3 34.5 45.3c0 5.5 1 10.7 2.8 15.6 2.7-.5 5.4-.8 8.2-.8 13.6.2 26 6.3 34.3 16z" fill="red"/><path d="M122.4 61C117 75.9 103.9 87.1 88 90c1.8 4.9 2.7 10.1 2.7 15.6 0 11.3-4.1 21.5-10.9 29.5 8.3 9.7 20.7 15.9 34.5 15.9 25 0 45.3-20.3 45.3-45.3 0-22.4-16.1-40.9-37.2-44.7z" fill="#00f"/><path d="M71.7 90c-16-2.9-29-14.1-34.5-29C16 64.9 0 83.4 0 105.6c0 25 20.3 45.3 45.3 45.3 13.8 0 26.1-6.2 34.5-15.9-6.8-7.9-10.9-18.2-10.9-29.5 0-5.4 1-10.6 2.8-15.5z" fill="#0f0"/><path d="M71.7 90c2.6.5 5.3.7 8.1.7s5.5-.3 8.2-.7c-1.9-5.1-4.7-9.8-8.1-13.9-3.6 4.1-6.4 8.8-8.2 13.9z" fill="#fff"/><path d="M122.4 61c-2.6-.5-5.3-.7-8.1-.7-13.8 0-26.1 6.2-34.5 15.9 3.5 4.1 6.3 8.8 8.1 13.9 16-3 29-14.2 34.5-29.1" fill="#f0f"/><path d="M71.6 90.1c2.6.5 5.3.7 8.1.7s5.5-.3 8.2-.7c1.8 4.9 2.7 10.1 2.7 15.6 0 11.3-4.1 21.5-10.9 29.5-6.8-7.9-10.9-18.2-10.9-29.5.1-5.6 1.1-10.8 2.8-15.6" fill="#0ff"/><path d="M37.2 61c2.7-.5 5.4-.8 8.2-.8 13.8 0 26.1 6.2 34.5 15.9-3.5 4.1-6.3 8.8-8.1 13.9-16.1-2.8-29.2-14.1-34.6-29" fill="#ff0"/><g><path d="M185.5 118.156l1.126-14.813 1.563-32.813.751-23.813c.041-2.166.063-4.354.063-6.563 0-1.625-.021-4.063-.063-7.313 5.333.084 9.666.125 12.999.125 2.666 0 6.374-.063 11.124-.188s8.521-.188 11.313-.188c5.75 0 9.979.417 12.688 1.25 2.874.917 5.395 2.354 7.562 4.313 2.166 1.959 3.813 4.313 4.938 7.063 1.25 3.084 1.875 6.396 1.875 9.938 0 5.375-1.344 10.261-4.031 14.656-2.688 4.396-6.406 7.678-11.156 9.844-4.75 2.167-10.021 3.25-15.813 3.25-2.834 0-5.854-.291-9.063-.875-.917-4.333-1.959-8.396-3.125-12.188 2.576.542 5.133.813 7.668.813 3.449 0 6.442-.521 8.978-1.563 2.535-1.041 4.552-2.739 6.048-5.094 1.496-2.354 2.244-5.01 2.244-7.969 0-1.75-.313-3.354-.936-4.813-.624-1.458-1.528-2.625-2.713-3.5s-2.494-1.469-3.928-1.781c-1.435-.313-3.482-.469-6.143-.469-2.328 0-4.677.042-7.046.125a179.79 179.79 0 0 1-6.298.125 853.157 853.157 0 0 0-1.117 23.438l-.745 23.875c-.249 8.459-.373 14.667-.373 18.625 0 1.5.021 3.667.063 6.5l-9.069-.125c-1.169.003-4.297.045-9.384.128zM309.25 31.344c6.208 0 12.166.854 17.875 2.563 5.708 1.709 10.771 4.49 15.188 8.344 4.416 3.854 7.75 8.344 10 13.469s3.375 11.104 3.375 17.938c0 6.417-1.063 12.553-3.188 18.406-2.125 5.854-5.417 10.896-9.875 15.125-4.459 4.229-9.886 7.365-16.281 9.406-6.396 2.041-13.115 3.063-20.156 3.063-6.667 0-13.073-.938-19.219-2.813-6.146-1.875-11.438-4.813-15.875-8.813s-7.615-8.594-9.531-13.781c-1.917-5.188-2.875-10.802-2.875-16.844 0-6.625 1.197-12.958 3.594-19 2.396-6.041 5.916-11.041 10.563-15 4.646-3.958 10.083-6.958 16.313-9 6.227-2.042 12.925-3.063 20.092-3.063zm-1 13.312c-6.292 0-11.771 1.448-16.438 4.344-4.667 2.896-8.178 6.854-10.531 11.875-2.354 5.021-3.531 10.448-3.531 16.281 0 5.417 1.135 10.406 3.406 14.969 2.271 4.563 5.76 8.042 10.469 10.438 4.708 2.396 9.791 3.594 15.25 3.594 4.125 0 8.063-.708 11.813-2.125 3.75-1.416 6.989-3.572 9.719-6.469 2.729-2.896 4.781-6.385 6.156-10.469 1.375-4.083 2.063-8.333 2.063-12.75 0-4.125-.615-8.083-1.844-11.875-1.229-3.791-3.136-7.052-5.719-9.781-2.584-2.729-5.698-4.75-9.344-6.063-3.647-1.312-7.469-1.969-11.469-1.969zM367.438 118.156c1.256-12.416 2.198-26.688 2.827-42.813.628-16.125.942-30.291.942-42.5 4.998.084 9.185.125 12.559.125 3.624 0 7.175-.063 10.653-.188 3.478-.125 7.153-.188 11.028-.188 4.831 0 9.152.271 12.964.813 3.812.542 7.196 1.792 10.153 3.75 2.957 1.959 5.154 4.334 6.592 7.125 1.438 2.792 2.156 6.042 2.156 9.75 0 2.334-.271 4.553-.813 6.656a23.87 23.87 0 0 1-2.406 5.938c-1.063 1.854-2.323 3.479-3.781 4.875-1.459 1.396-2.906 2.5-4.344 3.313s-3.073 1.511-4.906 2.094c-1.834.584-4.292 1.292-7.375 2.125l4.25 8.25c1.375 2.625 3.979 7.334 7.813 14.125l6.313 11.063c.333.584 1.333 2.479 3 5.688-5.098-.083-8.461-.125-10.09-.125-2.006 0-5.537.042-10.592.125l-6.926-16.625a702.477 702.477 0 0 0-4.368-9l-7.55-15.188c-.749-1.416-1.789-3.541-3.12-6.375 2.793.5 5.337.75 7.631.75 3.586 0 6.858-.583 9.819-1.75 2.961-1.166 5.233-2.969 6.818-5.406 1.584-2.438 2.377-5.094 2.377-7.969 0-1.75-.344-3.375-1.031-4.875s-1.844-2.771-3.469-3.813c-1.625-1.041-3.563-1.708-5.813-2-2.25-.291-4.5-.438-6.75-.438-1.25 0-2.959.021-5.125.063-2.167.042-4.834.063-8 .063l-1.116 25.688-1.178 46.875-9.697-.125c-1.542-.001-4.692.041-9.445.124zM466.5 118.156l1.37-18.25 1.369-27.188.872-26.75h-4.368l-4.057.063-3.87.063-14.416.437c.333-6 .521-10.563.563-13.688 11.995.084 24.553.126 37.674.126l22.43-.063 11.996-.063c-.417 5.93-.625 10.492-.625 13.688a437.312 437.312 0 0 0-21.688-.563h-4.813l-.743 11.418-1.796 43.924-.124 7.362a703.086 703.086 0 0 0-.062 9.483l-9.513-.125c-1.042.001-4.442.043-10.199.126zM519.875 116.344c-.334-6.333-.771-11.5-1.313-15.5 8.166 3.709 15.583 5.563 22.25 5.563 2.666 0 5.156-.406 7.469-1.219s4.021-1.958 5.125-3.438c1.104-1.479 1.656-3.135 1.656-4.969 0-1.416-.266-2.688-.797-3.813-.797-1.541-2.124-3.146-3.982-4.813-2.382-2.291-6.631-6.063-12.748-11.313-2.915-2.541-4.927-4.354-6.035-5.438-2.5-2.375-4.417-4.51-5.75-6.406-1.334-1.896-2.292-3.781-2.875-5.656-.584-1.875-.875-3.875-.875-6 0-3.916 1.094-7.594 3.281-11.031s5.458-6.125 9.813-8.063c4.354-1.938 9.844-2.906 16.469-2.906 5.958 0 12.666.729 20.125 2.188.208 4.334.625 9.292 1.25 14.875-6.487-2.5-12.476-3.75-17.965-3.75-4.076 0-7.413.928-10.012 2.781-2.6 1.854-3.898 4.011-3.898 6.469 0 .667.09 1.365.271 2.094.182.729.453 1.438.815 2.125s1.008 1.584 1.937 2.688 2.288 2.396 4.078 3.875c1.789 1.479 3.318 2.678 4.587 3.594l7.712 7a76.944 76.944 0 0 1 5.24 4.75c1.539 1.542 2.859 3.021 3.961 4.438 1.102 1.417 1.965 2.771 2.589 4.063a18.825 18.825 0 0 1 1.404 3.969c.312 1.354.468 2.781.468 4.281 0 3.5-.813 6.803-2.438 9.906-1.625 3.104-3.959 5.656-7 7.656-3.042 2-6.375 3.386-10 4.156s-7.459 1.156-11.5 1.156c-2.667 0-5.771-.229-9.313-.688-3.541-.458-8.208-1.332-13.999-2.624z"/></g></svg>