<svg xmlns="http://www.w3.org/2000/svg" viewBox="0 0 104.081 63.949"><path d="M30.208 16.29c-6.974 0-12.627 5.653-12.627 12.627s5.653 12.627 12.627 12.627c6.974 0 12.627-5.653 12.627-12.627S37.181 16.29 30.208 16.29zm0 20.815a8.19 8.19 0 1 1 0-16.378 8.19 8.19 0 0 1 0 16.378zM73.874 12.845c-8.876 0-16.072 7.196-16.072 16.072s7.196 16.072 16.072 16.072 16.072-7.196 16.072-16.072c-.001-8.877-7.196-16.072-16.072-16.072zm0 24.258a8.19 8.19 0 1 1 0-16.378 8.19 8.19 0 0 1 0 16.378z" fill="#301511"/><path d="M73.874 23.06a5.854 5.854 0 1 0 0 11.708 5.854 5.854 0 0 0 0-11.708zm.358 10.736V32.73h-.695v1.068a4.892 4.892 0 0 1-3.721-2.144l.925-.534-.348-.602-.925.534a4.875 4.875 0 0 1-.49-2.137c0-.772.179-1.502.498-2.151l.914.528.348-.602-.912-.527a4.891 4.891 0 0 1 3.705-2.13v1.041h.695v-1.04a4.891 4.891 0 0 1 3.698 2.13l-.902.521.348.602.904-.522c.318.649.497 1.379.497 2.151 0 .762-.174 1.482-.484 2.125l-.914-.528-.348.602.915.529a4.896 4.896 0 0 1-3.708 2.152zM30.207 23.06a5.854 5.854 0 1 0 0 11.708 5.854 5.854 0 0 0 0-11.708zm.338 10.738V32.73h-.695v1.066a4.89 4.89 0 0 1-3.708-2.154l.915-.529-.348-.602-.914.528a4.88 4.88 0 0 1-.484-2.125c0-.772.179-1.502.497-2.151l.904.522.348-.602-.902-.521a4.891 4.891 0 0 1 3.698-2.13v1.04h.695v-1.041a4.89 4.89 0 0 1 3.705 2.13l-.912.527.348.602.914-.528c.318.649.498 1.379.498 2.151 0 .766-.176 1.491-.49 2.137l-.925-.534-.348.602.925.534a4.892 4.892 0 0 1-3.721 2.146z" fill="#e3e3e1"/><path d="M102.737 40.954c.921.947 1.21 1.262 1.21 1.262s.158.105.132.552c-.026.447 0 14.702 0 15.149 0 .447-.132.447-.263.605-.132.158-1.078 1.262-1.078 1.262v-18.83zM1.344 40.954c-.921.947-1.21 1.262-1.21 1.262s-.158.105-.132.552c.026.447 0 14.702 0 15.149 0 .447.132.447.263.605.132.158 1.078 1.262 1.078 1.262v-18.83z" fill="#0b090b"/><path d="M101.212 0H2.827A1.874 1.874 0 0 0 .958 1.868V62.08c0 1.028.841 1.868 1.868 1.868h98.385a1.873 1.873 0 0 0 1.868-1.868V1.868A1.871 1.871 0 0 0 101.212 0zM27.336 62.584a2.213 2.213 0 1 1 0-4.427 2.213 2.213 0 0 1 0 4.427zm2.871-28.114a5.555 5.555 0 1 1 0-11.11 5.555 5.555 0 0 1 0 11.11zm9.51 25.43c0 .44-.36.801-.801.801h-2.447a.803.803 0 0 1-.801-.801v-2.212c0-.44.36-.801.801-.801h2.447c.44 0 .801.36.801.801V59.9zm24.114-26.492c0 .128-.12.233-.267.233H40.307c-.147 0-.267-.105-.267-.233v-9.503c0-.128.12-.233.267-.233h23.256c.147 0 .267.105.267.233v9.503zM68.413 59.9c0 .44-.36.801-.801.801h-2.447a.803.803 0 0 1-.801-.801v-2.212c0-.44.36-.801.801-.801h2.447c.44 0 .801.36.801.801V59.9zm8.333 2.684a2.213 2.213 0 1 1 0-4.427 2.213 2.213 0 0 1 0 4.427zM73.874 34.47a5.555 5.555 0 1 1 0-11.11 5.555 5.555 0 0 1 0 11.11z" fill="#0b090b"/><path d="M63.932 23.338H39.939c-.151 0-.275.112-.275.249v10.14c0 .137.124.249.275.249h23.994c.151 0 .275-.112.275-.249v-10.14c0-.137-.124-.249-.276-.249zm-.101 10.07c0 .128-.12.233-.267.233H40.307c-.147 0-.267-.105-.267-.233v-9.503c0-.128.12-.233.267-.233h23.256c.147 0 .267.105.267.233v9.503zM87.992 63.949c-.64-2.911-2.779-13.116-3.008-14.122-.235-1.036-.659-1.883-1.977-1.883H21.074c-1.318 0-1.742.847-1.977 1.883-.229 1.006-2.368 11.211-3.008 14.122h.98c.774-3.566 2.541-11.924 2.832-13.318.325-1.558.659-1.883 1.977-1.883h60.324c1.318 0 1.652.325 1.977 1.883.291 1.394 2.058 9.752 2.832 13.318h.981z" fill="#100e12"/><path d="M96.585 8.959c-.087-.101-3.237-3.388-3.372-3.533-.095-.102-.249-.104-.249-.104H11.117s-.154.003-.249.104c-.135.145-3.285 3.432-3.372 3.533-.135.156-.108.254-.108.254v35.218c0 .147.12.267.267.267h88.771c.147 0 .267-.12.267-.267V9.213s.028-.098-.108-.254zM73.874 35.674H30.207a6.759 6.759 0 1 1 0-13.518h43.667a6.759 6.759 0 1 1 0 13.518z" fill-rule="evenodd" clip-rule="evenodd" fill="#e9e9e8"/><g fill="none" stroke="#559acb" stroke-width=".275" stroke-miterlimit="10"><path d="M54.891 11.212l-.763 6.479h1.187l.121-1.336.563.006.096 1.331h1.291l-.884-6.475-1.611-.005zm.817 1.118l.183 2.955h-.374l.191-2.955zM58.73 11.227l.011 6.468h1.241l-.004-3.78.511 3.78h.79l.499-3.78-.002 3.78h1.258v-6.468h-1.753l-.403 2.882-.328-2.882zM68.774 11.277l.002 1.006h.66v5.391h1.369v-5.391h.707v-1.006zM65.868 11.283c-.783-.002-1.075-.108-1.312.202-.301.393-.178 1.201-.178 2.14.001.758 1.735 1.151 1.745 1.608v1.263c-.001.198-.437.135-.436-.047v-1.39h-1.32l.019 1.086c-.03 1.368-.019 1.571 1.596 1.566.77-.003.948-.013 1.095-.099a.969.969 0 0 0 .298-.356c.112-.232.12-.344.103-1.417l.005-1.071c.002-.275-.633-.744-.974-.921-.39-.202-.812-.221-.821-.909-.007-.559-.014-.66.229-.662.265-.002.191.111.207 1.158h1.385c-.002-2.237-.087-2.146-1.641-2.151zM72.895 11.294l.042 6.393h1.311l.009-2.582c.47.007.435-.155.405 2.608l1.386.005c-.048-2.539.054-2.687-.574-3.205.561-.353.511-.569.523-1.626.012-1.013-.023-1.154-.316-1.426-.267-.246-.511-.205-2.786-.167zm1.351.996c.514.015.416.143.416.802 0 .689.086.834-.419.837l.003-1.639zM82.09 11.371s-.089 6.243-.047 6.345v.002l2.378.018c.875.007.736-.584.753-3.091.02-2.878-.011-3.274-.653-3.274H82.09zm1.729 3.137c.017 2.101.04 2.153-.356 2.167l-.029-4.344c.425.001.37.339.385 2.177zM78.206 11.303l-.763 6.479h1.187l.121-1.337.563.006.096 1.331h1.291l-.884-6.475-1.611-.004zm.818 1.118l.183 2.955h-.374l.191-2.955z"/></g><path d="M14.189 29.829l1.279-3.57h1.19l1.279 3.57h-1.165l-.14-.471h-1.165l-.134.471h-1.144zm1.864-2.494l-.361 1.279h.738l-.377-1.279z" fill="#559acb"/></svg>