<svg xmlns="http://www.w3.org/2000/svg" viewBox="0 0 44.384 18.138"><path fill="#9c2249" d="M28.243 0h9.806l-9.136 18.138h-9.806z"/><path d="M1.386 3.153L0 14.917h2.155l.22-2.427 1.023.011.174 2.416h2.344L4.31 3.16l-2.924-.007zm1.485 2.031l.333 5.367h-.679l.346-5.367zM6.358 3.181l.02 11.746h2.254l-.008-6.865.928 6.865h1.436l.906-6.865-.004 6.865h2.283V3.181H10.99l-.731 5.232-.597-5.232zM20.596 3.272l.004 1.826h1.199v9.79h2.485v-9.79h1.284V3.272zM17.319 3.283c-1.422-.004-1.953-.195-2.382.367-.546.714-.324 2.181-.323 3.886.001 1.376 3.15 2.09 3.168 2.921v2.294c-.002.359-.793.245-.791-.086v-2.524h-2.397l.034 1.972c-.054 2.485-.035 2.853 2.898 2.844 1.398-.005 1.721-.023 1.988-.18.175-.103.419-.394.54-.646.204-.422.218-.625.187-2.573l.009-1.945c.003-.5-1.15-1.352-1.768-1.673-.708-.367-1.475-.402-1.491-1.651-.014-1.015-.026-1.199.416-1.203.481-.003.347.202.375 2.103h2.515c-.001-4.062-.155-3.897-2.978-3.906zM26.079 3.302l.076 11.608h2.381l.015-4.688c.854.014.79-.281.735 4.735l2.517.01c-.088-4.611.098-4.879-1.043-5.82 1.018-.641.927-1.034.949-2.953.021-1.839-.042-2.095-.574-2.589-.482-.446-.923-.371-5.056-.303zm2.453 1.809c.933.027.755.259.755 1.457 0 1.251.157 1.514-.761 1.521l.006-2.978zM38.777 3.442s-.161 11.336-.085 11.522v.003L43.01 15c1.588.013 1.336-1.061 1.367-5.612.036-5.226-.02-5.946-1.186-5.946h-4.414zm3.139 5.697c.03 3.815.073 3.91-.646 3.936l-.053-7.888c.771 0 .673.615.699 3.952zM33.724 3.318l-1.386 11.765h2.155l.22-2.428 1.023.011.174 2.417h2.344L36.648 3.325l-2.924-.007zm1.485 2.032l.333 5.367h-.679l.346-5.367z"/></svg>