<svg enable-background="new 0 0 566.871 224.862" viewBox="0 0 566.871 224.862" xmlns="http://www.w3.org/2000/svg"><g fill="#f91d11"><path d="m147.642 224.589v-5.851h1.404c1.131 0 1.833-1.209 2.457-4.213l3.199-15.096c.647-3.705 2.828-6.553 5.344-6.553h3.316v5.383c-1.268 0-2.145.176-2.496 1.482l-4.096 18.821c-.803 3.723-2.522 6.027-5.676 6.027zm34.674-5.851c-1.131 0-1.833-1.209-2.457-4.213l-3.199-15.096h-6.274c.039.099.08.196.111.312l4.096 18.821c.803 3.723 2.522 6.027 5.676 6.027h3.452v-5.851zm24.578-15.33h-24.38v5.773h24.38zm170.54 0h-23.58v5.773h23.58zm-133.249 0h-10.249c.04-1.69.029-3.279.029-4.525h.234c6.085 0 9.167-.248 9.284-2.418v-5.695c-2.392 1.82-5.149 2.613-9.284 2.613h-22.546v5.5h16.851c0 1.599-.055 3.108-.175 4.525h-17.357v5.773h16.315c-1.88 6.106-6.221 9.414-14.931 9.518v6.163c10.232 0 17.4-3.983 20.44-12.638.311-.885.539-1.926.707-3.043h10.683v-5.773zm14.733-1.755-.339-4.447h-5.266l.263 4.447h-5.802v5.773h6.144l1.033 17.436h5.734l-1.328-17.436h10.261c-1.26 3.254-3.255 5.362-6.163 6.046v5.695c7.014-1.514 11.835-6.263 12.248-17.514zm25.874 12.053.351-12.404c-.122-1.92.439-2.746 1.404-2.926v-5.968c-4.234.068-6.988 2.466-7.255 8.777l-.468 13.106c-.078 3.082-1.433 4.189-3.121 4.681v5.266c6.548-.238 8.894-5.071 9.089-10.532zm20.713-17.241c0 9.206-1.516 16.475-10.181 21.064v-25.121h-5.617v32.454c16.724-1.079 21.649-13.828 21.649-28.397zm45.287.741h-13.926v-5.734h-5.734v5.734h-13.926v5.773h13.926v21.259h5.734v-21.259h13.926zm-5.734-7.84h-5.968v5.968h5.968zm7.724 0h-5.968v5.968h5.968zm-178.342 1.404h-6.163v6.163h6.163zm7.802 0h-6.163v6.163h6.163zm232.093 1.58h-6.67c-3.537 6.505-10.532 9.303-26.564 9.303v5.734c6.019 0 11.233-.454 15.681-1.476v18.327h5.851v-20.193c5.543-2.375 9.41-6.142 11.702-11.695zm-86.245 12.775h-5.676c-.293 8.738-2.574 12.268-5.734 13.262v5.617c7.665-.761 11.215-9.44 11.41-18.879zm23.229 18.879v-5.617c-3.16-.995-5.441-4.525-5.734-13.262h-5.676c.195 9.439 3.745 18.118 11.41 18.879z"/><path d="m556.712 40.826-22.468 84.88v56.483h-15.291v-56.483l-22.468-84.88h15.915l14.199 63.66 14.199-63.66zm-64.128 19.66v101.731c0 14.979-15.603 21.22-23.404 21.22h-.936c-7.801 0-23.404-6.241-23.404-21.22v-101.731c0-14.979 15.603-21.22 23.404-21.22h.936c7.801 0 23.404 6.241 23.404 21.22zm-15.291 101.731v-101.731-5.929h-8.113-.936-8.114v5.929 101.731 5.929h8.114.936 8.113zm-52.66-50.74v.061c0 .201.159.358.36.371 5.011.338 7.208 7.754 7.208 14.538v32.181c0 17.007-13.106 23.56-23.872 23.56h-9.362-15.291v-141.362h15.291 9.362c10.766 0 23.872 6.553 23.872 23.56v32.181c0 6.783-2.197 14.199-7.208 14.538-.201.014-.36.171-.36.372zm-8.894 7.052h-16.773v49.617h16.773zm0-63.66h-16.773v49.617h16.773zm-75.284 113.277v-127.32h-15.291v141.362h15.291 25.589v-14.043h-25.589zm-41.126-4.057h-21.663l-3.133 18.099h-15.681l29.646-145.419 29.646 145.419h-15.681zm-2.431-14.043-8.4-48.525-8.4 48.525zm-57.862-109.22v121.391 5.929h-8.114-.936-8.114v-5.929-121.391h-15.291v121.391c0 14.979 15.603 21.22 23.404 21.22h.936c7.801 0 23.404-6.241 23.404-21.22v-121.391zm-56.794 0h-15.291-16.227v13.731h16.227v127.632h15.291v-127.632h16.227v-13.731zm-49.725 74.795c2.821-.645 5.144-1.711 6.933-3.373 6.281-5.835 7.021-16.382 7.021-23.17v-24.692c0-18.841-12.677-23.56-23.443-23.56h-10.064-15.29v141.362h15.291v-77.546-49.773h17.475v49.773h-1.17-16.305l23.794 77.546h15.447zm-49.51-74.795h-15.29v141.362h15.291v-141.362zm-38.383 0-14.354 79.263-14.355-79.263h-15.915l30.27 147.604 30.27-147.603h-15.916z"/><path d="m291.209 32.006-.101-3.079c-.537 1.306-1.398 2.326-2.583 3.056-1.186.73-2.55 1.096-4.093 1.096s-2.936-.459-4.177-1.376-2.304-2.146-3.187-3.686c-.884-1.54-1.56-3.313-2.03-5.319s-.704-4.083-.704-6.229c0-2.27.235-4.409.704-6.415.47-2.006 1.163-3.756 2.08-5.249s2.058-2.667 3.422-3.522c1.364-.855 2.952-1.283 4.764-1.283 1.319 0 2.555.265 3.707.793 1.152.529 2.158 1.26 3.02 2.193.861.933 1.554 2.046 2.08 3.336.525 1.291.833 2.714.922 4.269h-4.697c-.067-.715-.246-1.392-.537-2.03-.291-.637-.66-1.19-1.107-1.656-.448-.466-.968-.84-1.56-1.12-.593-.28-1.202-.42-1.828-.42-1.879 0-3.383.973-4.512 2.916-1.13 1.944-1.694 4.767-1.694 8.468 0 1.276.117 2.559.352 3.849.235 1.291.604 2.457 1.107 3.499s1.146 1.889 1.929 2.543c.783.653 1.711.98 2.785.98.76 0 1.471-.187 2.13-.56.66-.373 1.236-.886 1.728-1.54.492-.653.878-1.407 1.157-2.263.279-.855.42-1.765.42-2.729h-4.932v-5.178h9.293v16.656zm24.659 0-1.409-6.392h-8.219l-1.577 6.392h-4.932l7.952-30.979h5.401l7.851 30.979zm-5.536-24.028h-.033l-2.852 12.317h5.67zm32.074 24.028v-21.229l-4.16 21.228h-4.63l-4.127-21.135v21.135h-4.328v-30.979h6.844l4.026 22.721 4.026-22.721h6.71v30.979h-4.361zm10.601 0v-30.98h16.373v5.412h-11.843v6.625h10.904v5.459h-10.904v7.978h12.38v5.505h-16.91zm-226.555 0v-30.98h8.622c1.498 0 2.885.35 4.16 1.05s2.365 1.703 3.271 3.009 1.616 2.893 2.131 4.759c.514 1.866.772 3.982.772 6.345 0 2.364-.229 4.518-.688 6.462s-1.113 3.608-1.963 4.992-1.868 2.457-3.053 3.219c-1.186.762-2.494 1.143-3.925 1.143h-9.327zm8.388-5.272c2.035 0 3.511-.878 4.429-2.636.917-1.757 1.375-4.393 1.375-7.908 0-1.741-.112-3.235-.336-4.479s-.587-2.263-1.09-3.056-1.147-1.368-1.929-1.726c-.783-.357-1.734-.536-2.852-.536h-3.456v20.342h3.859zm14.828 5.272v-30.98h4.663v30.979h-4.663zm22.814-21.835c-.112-1.586-.526-2.768-1.241-3.546-.716-.777-1.79-1.167-3.221-1.167-2.639 0-3.959 1.26-3.959 3.779 0 .903.274 1.656.822 2.263s1.426 1.113 2.633 1.516c1.431.466 2.672.902 3.724 1.306 1.051.405 2.013.871 2.885 1.4.492.28.956.63 1.392 1.05s.805.941 1.107 1.563.542 1.369.721 2.239c.179.871.268 1.929.268 3.173 0 1.493-.224 2.815-.671 3.966-.448 1.151-1.051 2.123-1.812 2.916s-1.656 1.4-2.684 1.82c-1.029.42-2.114.63-3.254.63-3.243 0-5.682-.871-7.314-2.613-1.633-1.742-2.494-4.323-2.584-7.745h4.496c.022 1.586.486 2.839 1.392 3.756.906.918 2.041 1.376 3.406 1.376 1.476 0 2.594-.373 3.355-1.12.76-.746 1.141-1.757 1.141-3.033 0-.497-.045-.957-.134-1.376-.09-.42-.263-.8-.52-1.143-.257-.342-.609-.645-1.057-.91-.448-.264-1.029-.505-1.744-.723-1.7-.497-3.171-1.003-4.412-1.516-1.242-.513-2.265-1.15-3.07-1.913-.805-.762-1.398-1.687-1.778-2.776-.381-1.088-.57-2.473-.57-4.152 0-1.275.168-2.473.503-3.592s.85-2.092 1.543-2.916 1.549-1.477 2.567-1.959c1.019-.483 2.221-.724 3.608-.724 1.342 0 2.55.241 3.624.723 1.073.482 1.996 1.166 2.768 2.053.772.886 1.37 1.959 1.795 3.219s.66 2.652.705 4.176zm10.467 21.835v-30.98h9.83c1.096 0 2.08.257 2.952.77.873.513 1.621 1.229 2.248 2.146.626.918 1.107 1.983 1.443 3.196s.503 2.519.503 3.919-.168 2.699-.503 3.896c-.336 1.198-.817 2.224-1.443 3.079-.627.856-1.375 1.524-2.248 2.006-.872.483-1.856.723-2.952.723h-5.167v11.244h-4.663zm9.092-16.516c1.342 0 2.309-.427 2.902-1.283.592-.855.889-1.967.889-3.336 0-1.306-.297-2.38-.889-3.219-.593-.84-1.56-1.26-2.902-1.26h-4.429v9.098zm12.682 16.516v-30.98h4.663v25.334h11.038v5.645h-15.701zm35.797 0-1.409-6.392h-8.219l-1.577 6.392h-4.932l7.952-30.979h5.401l7.851 30.979zm-5.535-24.028h-.033l-2.852 12.317h5.67zm17.512 24.028v-11.711l-7.717-19.269h5.435l4.697 12.597 4.328-12.597h5.368l-7.448 19.362v11.617h-4.663zm143.94-21.835c-.112-1.586-.526-2.768-1.242-3.546-.716-.777-1.79-1.167-3.221-1.167-2.639 0-3.959 1.26-3.959 3.779 0 .903.273 1.656.822 2.263.548.607 1.426 1.113 2.633 1.516 1.431.466 2.673.902 3.724 1.306 1.051.405 2.013.871 2.885 1.4.492.28.956.63 1.392 1.05s.805.941 1.107 1.563.542 1.369.721 2.239c.179.871.268 1.929.268 3.173 0 1.493-.224 2.815-.671 3.966-.448 1.151-1.051 2.123-1.812 2.916s-1.656 1.4-2.684 1.82c-1.029.42-2.114.63-3.254.63-3.243 0-5.681-.871-7.314-2.613s-2.494-4.323-2.583-7.745h4.496c.022 1.586.486 2.839 1.392 3.756.906.918 2.041 1.376 3.406 1.376 1.476 0 2.594-.373 3.355-1.12.76-.746 1.141-1.757 1.141-3.033 0-.497-.045-.957-.134-1.376-.09-.42-.263-.8-.52-1.143-.257-.342-.61-.645-1.057-.91-.448-.264-1.029-.505-1.745-.723-1.7-.497-3.171-1.003-4.412-1.516-1.242-.513-2.265-1.15-3.07-1.913-.805-.762-1.398-1.687-1.778-2.776-.38-1.088-.57-2.473-.57-4.152 0-1.275.168-2.473.503-3.592.336-1.12.85-2.092 1.544-2.916.693-.824 1.548-1.477 2.566-1.959 1.019-.483 2.221-.724 3.608-.724 1.342 0 2.55.241 3.624.723s1.996 1.166 2.768 2.053c.772.886 1.37 1.959 1.795 3.219s.66 2.652.705 4.176zm13.99 21.835v-11.711l-7.717-19.269h5.435l4.697 12.597 4.328-12.597h5.368l-7.448 19.362v11.617h-4.663zm27.107-21.835c-.112-1.586-.526-2.768-1.241-3.546-.716-.777-1.79-1.167-3.221-1.167-2.639 0-3.959 1.26-3.959 3.779 0 .903.274 1.656.822 2.263s1.426 1.113 2.633 1.516c1.431.466 2.672.902 3.724 1.306 1.051.405 2.013.871 2.885 1.4.492.28.956.63 1.392 1.05s.805.941 1.107 1.563.542 1.369.721 2.239c.179.871.268 1.929.268 3.173 0 1.493-.224 2.815-.671 3.966-.448 1.151-1.051 2.123-1.812 2.916s-1.656 1.4-2.684 1.82c-1.029.42-2.114.63-3.254.63-3.243 0-5.681-.871-7.314-2.613s-2.494-4.323-2.584-7.745h4.496c.022 1.586.486 2.839 1.392 3.756.906.918 2.041 1.376 3.406 1.376 1.476 0 2.594-.373 3.355-1.12.76-.746 1.141-1.757 1.141-3.033 0-.497-.045-.957-.134-1.376-.09-.42-.263-.8-.52-1.143-.257-.342-.609-.645-1.057-.91-.448-.264-1.029-.505-1.744-.723-1.7-.497-3.171-1.003-4.412-1.516-1.242-.513-2.265-1.15-3.07-1.913-.805-.762-1.398-1.687-1.778-2.776-.381-1.088-.57-2.473-.57-4.152 0-1.275.168-2.473.503-3.592.336-1.12.85-2.092 1.543-2.916s1.549-1.477 2.567-1.959c1.019-.483 2.221-.724 3.608-.724 1.342 0 2.55.241 3.624.723 1.073.482 1.996 1.166 2.768 2.053.772.886 1.37 1.959 1.795 3.219s.66 2.652.705 4.176zm15.199 21.835v-25.568h-6.71v-5.412h18.117v5.412h-6.744v25.567h-4.663zm15.701 0v-30.98h16.373v5.412h-11.843v6.625h10.904v5.459h-10.904v7.978h12.38v5.505h-16.91zm39.287 0v-21.229l-4.16 21.228h-4.63l-4.127-21.135v21.135h-4.328v-30.979h6.844l4.026 22.721 4.026-22.721h6.71v30.979h-4.361z"/><path d="m73.334 16.08 2.378-1.484v-8.66l-6.338-4.91h-17.399l-6.338 4.91v5.949h8.543v-3.51l1.189-1.034h10.611l1.189 1.034v3.979l-1.386 1.034h-6.492v6.53h6.492l1.386 1.034v3.703l-1.189 1.035h-10.612l-1.189-1.034v-3.511h-8.543v5.949l6.338 4.91h17.399l6.338-4.91v-8.66l-2.378-1.479v-.875zm30.074-15.054h-21.649v30.978h21.649l8.543-6.235v-18.508zm0 22.323-2.926 2.34h-10.18v-18.348h10.181l2.926 2.34v13.668z"/><path d="m547.81 169.41h7.195v2.366h-2.241v9.467h-2.776v-9.467h-2.178z"/><path d="m556.127 181.243v-11.833h3.912l1.437 6.989h.031l1.483-6.989h3.881v11.833h-2.65l.284-9.277h-.032l-1.956 9.277h-2.067l-1.908-9.277h-.032l.253 9.277z"/></g></svg>