<svg xmlns="http://www.w3.org/2000/svg" viewBox="0 0 31.394 71.465"><path d="M17.381 70.798c0 .367-.3.667-.667.667H2.399C1.074 71.465 0 70.458 0 69.213V2.251C0 1.008 1.074 0 2.399 0h26.596c1.325 0 2.399 1.008 2.399 2.251v66.962c0 1.244-1.074 2.252-2.399 2.252h-3.233a.669.669 0 0 1-.667-.667v-.096h-7.713v.096" fill="#0c0e0d"/><path d="M29.967 2.966V68.5a2.192 2.192 0 0 1-2.181 2.203H3.609A2.192 2.192 0 0 1 1.427 68.5V2.966c0-1.217.977-2.204 2.182-2.204h24.176c1.205 0 2.182.987 2.182 2.204" fill="#1c1d1e"/><path d="M28.088 3.213v64.624c0 .692-.559 1.254-1.248 1.254H4.555a1.25 1.25 0 0 1-1.248-1.254V3.213c0-.692.559-1.254 1.248-1.254H26.84c.689 0 1.248.562 1.248 1.254" fill="#bfbfb4"/><path d="M22.237 9.514V8.472h.605v-.537h-1.584v.538h.637v1.042h-.637v.538h1.584v-.539h-.605m-.342 1.436l.615.375-.615.363v-.738m.947.166l-1.584-.965v.411l.324.198v1.113l-.325.191v.657l1.584-.964v-.641m-.685 3.74c.168.129.414.111.555-.136.132-.229.18-.666.18-.94 0-.438-.03-.719-.07-.959h-1.563v.538h1.325c.029.153.041.309.036.465-.009.213-.042.333-.111.43-.07.099-.227.126-.335-.003-.081-.097-.145-.292-.078-.729l-.102-.063-.734.827v.733l.637-.736c.022.177.092.445.26.573m.139-8.101c.06-.311.097-.575.198-.575.111 0 .141.213.108.516-.03.278-.102.551-.212.808l.313.191c.078-.203.177-.623.188-1.003.012-.417-.025-1.121-.447-1.151-.386-.028-.479.522-.563.883-.082.352-.111.682-.233.682-.085 0-.153-.116-.129-.424.028-.37.129-.685.285-.999l-.343-.208a3.72 3.72 0 0 0-.252 1.217c-.008.489.071 1.042.49 1.054.351.008.473-.354.597-.991m-.127 9.84c-.076-.093-.103-.229-.102-.443.004-.153.023-.306.06-.455h.457c.029.154.041.311.036.468-.009.214-.045.34-.111.433-.068.097-.231.129-.34-.003m.542.47c.13-.219.18-.629.18-.944 0-.438-.03-.723-.07-.962h-1.563v.538h.572a3.45 3.45 0 0 0-.042.555c.003.44.106.768.269.917.232.211.51.14.654-.104" fill="#040006"/><path fill="#668ecc" d="M25.549 39.192v28.565h-4.341V39.192h4.341"/><path fill="#58a08f" d="M25.549 39.048v11.184l-4.34-2.455v-8.729h4.34"/><path d="M21.753 39.975l1.077.987-1.077.622v-1.609m1.136.953l.025.043-.025-.043m.109.052l-.05-.046-1.295-1.187v2.01l1.345-.777m-1.245 1.255l2.806-1.573.013 1.92-2.539 1.417v1.186l2.032 1.173v-.83l.505.504v2.358l-2.817-1.627v-4.528m2.846.332l.024.044-.024-.044m.074.073v-.03l-.015-2.119-3.005 1.685v4.644l3.017 1.742V45.99l-.619-.619-.085-.085v.898l-1.832-1.057v-1.07l2.539-1.417" fill="#010202"/><path d="M24.566 43.159l.007 1.736-1.146-1.111 1.139-.625m.108 1.973l-.009-2.141-.074.04.024.044-.024-.044-1.331.73 1.414 1.371" fill="#010202"/><path d="M21.63 49.823h.162v.321c0 .186.053.34.159.463.126.151.31.228.553.228h2.125v.18h-2.184c-.257 0-.46-.087-.608-.262a.876.876 0 0 1-.206-.591v-.339zm-.051 3.157c0-.423.151-.782.454-1.079a1.526 1.526 0 0 1 1.096-.441c.426 0 .79.146 1.093.44.305.298.458.657.458 1.08 0 .426-.153.786-.458 1.083a1.505 1.505 0 0 1-1.093.446c-.425 0-.791-.148-1.096-.445a1.46 1.46 0 0 1-.454-1.084zm.162 0c0 .374.136.691.407.95.274.26.601.39.98.39.38 0 .706-.13.977-.39.274-.259.412-.576.412-.95a1.25 1.25 0 0 0-.412-.951 1.379 1.379 0 0 0-.977-.381 1.39 1.39 0 0 0-.98.381 1.263 1.263 0 0 0-.407.951zm2.887 3.595v.18h-.818a.946.946 0 0 1-.681-.253.77.77 0 0 1-.248-.573h-1.25v-.181h1.25a.77.77 0 0 1 .248-.573.946.946 0 0 1 .681-.253h.818v.18h-.831a.748.748 0 0 0-.548.206.716.716 0 0 0-.205.53c0 .218.068.395.205.532a.75.75 0 0 0 .548.205h.831zm-2.843 2.927h-.155v-.381c0-.4.128-.74.385-1.02.283-.309.654-.463 1.114-.463.46 0 .831.154 1.114.463.257.279.386.619.386 1.02v.385h-.154v-.351c0-.349-.11-.648-.33-.899-.248-.286-.586-.429-1.015-.429-.428 0-.766.143-1.015.429-.22.251-.33.551-.33.899v.347zm1.862 2.446H21.63v-.18h1.464v-1.533h.154v1.533h.455c.251 0 .449-.078.595-.235.146-.154.219-.36.219-.617s-.073-.464-.219-.621c-.146-.154-.344-.23-.595-.23H21.63v-.181h2.017c.323 0 .576.093.758.278s.274.438.274.754c0 .317-.091.568-.274.754s-.435.278-.758.278zm-2.017.733v-.18h2.107c.286 0 .514.08.686.24.171.163.257.38.257.651s-.073.491-.218.659a.705.705 0 0 1-.561.257c-.386 0-.635-.164-.75-.492h-.009c-.028.168-.103.303-.223.402s-.275.149-.467.149h-.822v-.188h.848a.529.529 0 0 0 .407-.163c.111-.123.167-.306.167-.548v-.617h.154v.488c0 .254.063.45.188.587.117.128.28.192.488.192a.574.574 0 0 0 .458-.205.769.769 0 0 0 .176-.522c0-.226-.07-.401-.21-.527-.14-.123-.327-.185-.562-.185H21.63zm0 2.385v-.18h2.998v.65c0 .412-.139.765-.416 1.059-.289.308-.65.462-1.084.462-.445 0-.806-.136-1.083-.406a1.341 1.341 0 0 1-.416-1.003v-.433h.162v.416c0 .374.136.678.407.912.254.217.564.325.929.325.377 0 .694-.133.951-.398.257-.266.386-.6.386-1.002v-.402H21.63zM18.505 9.837a.54.54 0 0 0-.555-.533h-3.817V5.488a.557.557 0 0 0-.554-.555h-3.071a.557.557 0 0 0-.554.555v3.817H6.137a.521.521 0 0 0-.533.533v3.092c0 .304.229.533.533.533h3.817v3.817c0 .304.25.554.554.554h3.071c.304 0 .554-.25.554-.554v-3.817h3.817a.54.54 0 0 0 .555-.533V9.837z"/><path d="M18.024 9.944a.168.168 0 0 0-.17-.171h-4.166V5.608a.167.167 0 0 0-.17-.17h-2.935a.174.174 0 0 0-.178.17v4.166H6.246a.175.175 0 0 0-.178.171v2.942c0 .097.082.171.178.171h4.159v4.166c0 .096.082.17.178.17h2.935c.096 0 .17-.074.17-.17v-4.166h4.166c.096 0 .17-.074.17-.171V9.944z" fill="#191919"/><path fill="#040006" d="M13.264 7.082l.02-.02-.619-.619-.64-.64-.64.64-.667.667h.411v1.239h1.791V7.11h.413l-.049-.048-.02.02v-.028h-.4v1.239h-1.678V7.054h-.331l.57-.571.6-.6.6.6.619.619.02-.02v-.028zM13.264 15.735l-.02-.02-.619.62-.6.599-.6-.599-.57-.572h.331v-1.239h1.678v1.239h.4v-.028l-.02-.02.02.02v-.028h-.344v-1.24h-1.791v1.24h-.411l.667.668.64.639.64-.639.668-.668h-.069zM16.394 12.635l.02.02.619-.619.639-.64-.639-.639-.668-.668v.412h-1.239v1.791h1.239v.412l.049-.049-.02-.02h.028v-.4h-1.239v-1.678h1.239v-.331l.571.57.6.6-.6.6-.619.619.02.02h.028zM7.609 12.635l.021-.02-.62-.619-.6-.6.6-.6.571-.57v.331H8.82v1.678H7.581v.4h.028l.021-.02-.021.02h.029v-.343h1.239v-1.791H7.638v-.412l-.668.668-.64.639.64.64.668.668v-.069zM12.045 12.903v-.041h-.001a1.445 1.445 0 0 1-1.445-1.444v-.001c0-.798.646-1.445 1.444-1.445h.003v-.006.005-.005.005a1.445 1.445 0 0 1 .001 2.889h-.002V12.945h.002a1.53 1.53 0 0 0 1.528-1.528v-.002l-.042.001h.042a1.528 1.528 0 0 0-1.528-1.527h-.002l.001.042v-.043h-.002c-.844 0-1.527.685-1.527 1.528v.001a1.528 1.528 0 0 0 1.528 1.527h.001v-.041z"/><path fill="#0c0e0d" d="M20.365 69.372h2.594v1.099h-2.594z"/><path d="M17.202 48.414v.163h-1.983a.933.933 0 0 0-.634.235.766.766 0 0 0-.009 1.161.898.898 0 0 0 .642.248.9.9 0 0 0 .643-.248.766.766 0 0 0 .261-.57c0-.233-.098-.445-.295-.634h.193c.171.209.257.42.257.634 0 .28-.102.515-.304.703a1.05 1.05 0 0 1-.754.287c-.302 0-.555-.096-.758-.287a.926.926 0 0 1-.3-.703c0-.279.1-.515.3-.706.203-.188.456-.283.758-.283h1.983zM14.226 61.045v-.163h1.015c.243 0 .454-.078.634-.235s.27-.354.27-.591a.745.745 0 0 0-.257-.562c-.177-.171-.393-.257-.646-.257s-.47.086-.647.257a.747.747 0 0 0-.257.562c0 .233.099.445.295.634h-.193c-.171-.206-.257-.417-.257-.634 0-.28.1-.516.3-.707.203-.188.456-.283.758-.283s.554.095.753.283a.932.932 0 0 1 .304.707.919.919 0 0 1-.304.702c-.2.191-.451.287-.753.287h-1.015z" fill="#040006"/><path d="M13.687 49.403a4.106 4.106 0 1 1-8.213 0 4.106 4.106 0 0 1 8.213 0zM13.669 60.056a4.106 4.106 0 1 1-8.213 0 4.106 4.106 0 0 1 8.213 0z"/><path d="M13.125 49.403a3.546 3.546 0 1 1-7.091 0 3.546 3.546 0 0 1 7.091 0zM13.107 60.056a3.545 3.545 0 1 1-7.09 0 3.545 3.545 0 0 1 7.09 0z" fill="#1a1d22"/></svg>