<svg xmlns="http://www.w3.org/2000/svg" viewBox="0 0 30 30"><path d="M18.61 6.173c-.979.14-2.589.42-3.988.909-1.119.42-2.099.979-2.449 1.749-1.119 2.239-.07 6.087 1.889 7.066 1.889.909 4.198-2.099 4.897-4.198.21-.56.35-1.399.42-2.239.14-.909.21-1.749.21-2.449-.21-.348-.56-.628-.979-.838z" fill="#ffd54f"/><path d="M20.498 6.942c-.35 1.189-1.539.909-3.078.56-1.539-.35-2.659-.84-2.379-2.029.35-1.189 1.819-1.749 3.288-1.399 1.47.35 2.449 1.679 2.169 2.868z" fill="#ffe082"/><path d="M4.198.996c1.189-.63 2.449.28 3.148 1.259-.42-.979-2.519-2.798-3.918-2.099S1.819 3.864 2.239 4.844c.07.14.14.28.28.42-.28-1.12.349-3.639 1.679-4.268z" fill="#6d4c41"/><path d="M5.597 5.543c1.399-.7 2.169-2.379 1.749-3.358C6.576 1.206 5.317.366 4.198.926c-1.329.7-1.959 3.148-1.609 4.268.559.629 1.819.979 3.008.349z" fill="#ff5722"/><path d="M13.992.996c-1.189-.63-2.449.28-3.148 1.259.42-.979 2.519-2.798 3.918-2.099 1.399.7 1.609 3.708 1.189 4.687-.07.14-.14.28-.28.42.28-1.119-.35-3.638-1.679-4.267z" fill="#6d4c41"/><path d="M12.593 5.543c-1.399-.7-2.169-2.379-1.749-3.358.77-.979 2.029-1.819 3.148-1.259 1.329.7 1.959 3.148 1.609 4.268-.559.629-1.819.979-3.008.349z" fill="#ff5722"/><path d="M7.346 7.292l.35-2.449.7.7.7-2.099.7 2.099.7-.7.35 2.449c.84-.21 1.749-.35 2.798-.35s2.029.14 2.798.35c-.14-.42-.21-.77-.35-1.049-.63-2.099-1.259-3.498-3.848-4.198-1.539-.42-4.827-.42-6.436 0-2.589.7-3.218 2.099-3.848 4.198-.07.28-.21.63-.35 1.049.84-.21 1.749-.35 2.798-.35 1.189 0 2.098.14 2.938.35zM9.095 23.033c0 3.498-2.029 6.296-4.547 6.296S0 28.63 0 24.433c0-3.498 2.029-7.696 4.547-7.696s4.548 2.798 4.548 6.296zM18.19 24.433c0 4.198-2.029 4.897-4.547 4.897s-4.547-2.798-4.547-6.296 2.029-6.296 4.547-6.296 4.547 4.197 4.547 7.695z" fill="#ffa726"/><path d="M16.791 20.935c0 5.597 1.399 8.395-7.696 8.395-8.395 0-7.696-2.798-7.696-8.395 0-6.996 2.099-9.095 7.696-9.095 6.296 0 7.696 3.498 7.696 9.095z" fill="#ffecb3"/><path d="M6.996 19.186c0-1.329-1.119-2.449-2.449-2.449-1.399-.28-1.679-2.309-1.189-3.358.42-.979.42-1.399.42-1.469C1.679 12.329 0 14.288 0 16.737c0 2.728 2.029 4.897 4.547 4.897 1.33 0 2.449-1.119 2.449-2.448z" fill="#ffe082"/><path d="M13.293 14.638c-1.399.7-6.996.7-8.395 0-1.749-.84-2.099-2.099-2.099-3.498 0-1.889 1.539-3.498 3.498-3.498h5.597c1.889 0 3.498 1.539 3.498 3.498-.001 1.399-.35 2.659-2.099 3.498z" fill="#d32f2f"/><path d="M3.498 12.539c1.329.84 3.918.7 5.597.7s4.268 0 5.597-.7c1.399-.7 2.099-1.819 2.099-3.498 0-.56-.14-1.189-.35-1.749a11.33 11.33 0 0 0-5.596 0l-.35-2.449-.7.7-.7-2.099-.7 2.099-.7-.7-.35 2.449c-.84-.21-1.749-.35-2.798-.35s-2.029.14-2.798.35c-.21.56-.35 1.189-.35 1.749 0 1.679.77 2.659 2.099 3.498z" fill="#ffecb3"/><path d="M7.836 10.44c.49 0 .909-.14 1.259-.42.35.28.77.42 1.259.42.7 0 1.259-.35 1.539-.84-.28.21-.7.42-1.119.42-.63 0-1.259-.35-1.539-.77l-.14-.21-.14.14c-.28.49-.909.77-1.539.77-.42 0-.84-.14-1.119-.42.279.561.909.91 1.539.91z" fill="#ff5722"/><path d="M9.445 8.342c-.21 0-.35.35-.35.35s-.14-.35-.35-.35-.35.07-.35.35c0 .28.49.49.7.49.21 0 .7-.21.7-.49-.001-.28-.14-.35-.35-.35z" fill="#ff8a80"/><path d="M14.692 7.642c-.49-.63-1.259-1.049-2.099-1.049s-1.609.42-2.099 1.049c.56-.35 1.259-.49 2.099-.49s1.539.14 2.099.49zM7.696 7.642c-.49-.63-1.259-1.049-2.099-1.049s-1.609.42-2.099 1.049c.56-.35 1.259-.49 2.099-.49s1.539.14 2.099.49z" fill="#424242"/><circle cx="9.445" cy="15.688" r="1.749" fill="#fdd835"/><circle cx="8.745" cy="15.688" r="1.049" fill="#ff0"/><path d="M7.696 28.63c0-1.399-2.798-3.498-4.897-3.498-.7 0-2.099.7-2.099 2.798 0 1.399.7 2.099 3.498 2.099s3.498-.699 3.498-1.399zM10.494 28.63c0-1.399 2.798-3.498 4.897-3.498.7 0 2.099.7 2.099 2.798 0 1.399-.7 2.099-3.498 2.099s-3.498-.699-3.498-1.399z" fill="#ffe082"/><path d="M18.05 5.543c-.07 0-.21.35-.42 1.679.07-.07.42-.35.56-.84.07-.419-.07-.839-.14-.839zM19.519 5.893c-.07 0-.21.35-.42 1.679.07-.07.42-.35.56-.84.07-.419 0-.839-.14-.839zM6.296 20.025c0-.07-.35-.21-1.679-.49.07.07.28.49.84.56.42.07.839 0 .839-.07zM5.667 21.005c0-.07-.35-.21-1.679-.49.07.07.28.49.84.56.419.139.839.069.839-.07zM6.296 18.696c0-.07-.35-.21-1.679-.49.07.07.28.49.84.56.42.14.839 0 .839-.07zM4.547 29.89c-.07 0-.21-.35-.35-1.679.07.07.42.35.49.84.07.419-.07.839-.14.839zM5.947 29.61c-.07 0-.21-.35-.35-1.679.07.07.42.35.49.84.07.419-.07.839-.14.839zM3.148 29.89c-.07 0-.21-.35-.35-1.679.07.07.42.35.49.84.07.419-.07.839-.14.839zM13.642 29.959c.07 0 .21-.35.35-1.679-.07.07-.42.35-.49.84-.07.35.07.839.14.839zM12.243 29.61c.07 0 .21-.35.35-1.679-.07.07-.42.35-.49.84-.07.419.07.839.14.839zM15.042 29.89c.07 0 .21-.35.35-1.679-.07.07-.42.35-.49.84-.07.419.07.839.14.839z" fill="#424242"/></svg>