<svg xmlns="http://www.w3.org/2000/svg" viewBox="0 0 686.659 132.717"><text transform="translate(428.15 129.717)" fill="red" font-family="ArialMT" font-size="5">I don’t like bugs!</text><path d="M326.021 59.784L292.493 0h92.503l-58.975 59.784zM307.04 8.52l20.87 37.215L364.623 8.52H307.04zM235.148 132.717H134.343l63.751-62.555 37.054 62.555zm-79.957-8.52h65.008l-23.896-40.341-41.112 40.341z"/><path d="M427.386 0l-29.444 30.803h35.777l-52.553 93.393h-33.713L276.015 0H173.742l77.039 132.717h226.767L553.887 0H427.386zM255.687 124.197L188.539 8.52h82.548l66.537 115.677h-81.937zm216.933 0h-81.678l57.347-101.914h-30.417L431.028 8.52h108.129L472.62 124.197z"/></svg>