<svg enable-background="new 0 0 335.904 321.814" viewBox="0 0 335.904 321.814" xmlns="http://www.w3.org/2000/svg"><path d="m333.711 296.215c-4.849 5.064-23.675 21.674-27.46 25.004-.43.392-.671.595-.671.595h-280.665s-20.193-19.281-22.257-20.193c-1.392-1.899-2.658-5.039-2.658-12.837v-271.043c0-18.484 14.901-17.737 14.901-17.737s5.71 0 15.559 0v1.81h269.688v-1.81h10.9c.506 0 1.013.013 1.494.025 20.978.836 23.345 19.092 23.345 19.092v269.131c.001 0 .343 5.343-2.176 7.963z" fill="#4d4d4f"/><path d="m306.251 321.219c-.063.266-.139.468-.203.595h-281.133s-7.697-129.628 39.234-135.996c8.672-1.025 19.497 1.266 44.045 7.128s90.027 5.862 114.575 0 35.322-7.128 44.045-7.128c16.268 0 26.308 15.863 32.372 36.765 10.926 37.639 8.913 91.61 7.065 98.636z" fill="#58595b"/><path d="m300.147 1.819v11.222s-.094 1.424-1.986 1.424c-1.899 0-132.86 0-132.86 0s-130.961 0-132.86 0-1.986-1.424-1.986-1.424v-11.222l134.846.066z" fill="#30302f"/><path d="m165.482 197.866c-33.215 0-39.834-1.634-45.49-2.388s-3.971 4.4-3.971 4.4 2.888 19.107 3.249 26.398 8.183 6.285 8.183 6.285h76.058s7.822 1.006 8.183-6.285 3.249-26.398 3.249-26.398 1.685-5.154-3.971-4.4c-5.656.753-12.275 2.388-45.49 2.388z" fill="#3d3d3d" stroke="#404041" stroke-miterlimit="10" stroke-width="3.7981"/><ellipse cx="165.301" cy="99.503" fill="#30302f" rx="142.789" ry="82.021"/><ellipse cx="165.241" cy="99.314" fill="#404041" rx="141.284" ry="80.45"/><ellipse cx="165.662" cy="97.429" fill="#4d4c4c" rx="116.072" ry="65.24"/><path d="m165.768 71.031c-38.555 0-80.104 4.902-80.104 4.902s-9.778.283-14.562 5.28-5.235 10.685-5.235 16.216 1.251 10.557 2.347 13.199c1.564 3.771 5.551 6.034 7.672 6.034s7.13 0 7.13 0h82.752 82.752 7.13c2.121 0 6.107-2.263 7.672-6.034 1.096-2.642 2.347-7.668 2.347-13.199s-.451-11.219-5.235-16.216-14.562-5.28-14.562-5.28-41.549-4.902-80.104-4.902z" fill="#5c5c5c" stroke="#4d4d4f" stroke-miterlimit="10" stroke-width="2.532"/><path d="m87.679 81.213h157.771v8.862h9.387s.812.503.812 3.614-.812 3.74-.812 3.74h-175.823s-1.143-.88-1.143-3.897 1.143-4.211 1.143-4.211h8.484z" fill="#353535"/><path d="m64.393 293.935v-1.802c1.808-.445 2.987-1.039 3.539-1.783h1.777v7.286l-.015 1.603h-2.369l-.02-1.603v-5.009c-1.248.632-2.218 1.068-2.912 1.308z" fill="#f1f1f2"/><path d="m79.178 292.691-2.106.475c-.199-.898-.72-1.347-1.563-1.347-1.226 0-1.838.976-1.838 2.929.495-.67 1.277-1.005 2.344-1.005.975 0 1.772.266 2.39.798s.927 1.162.927 1.889c0 .774-.341 1.458-1.023 2.052s-1.592.891-2.731.891c-1.123 0-2.011-.242-2.662-.725s-1.093-1.058-1.325-1.725-.349-1.315-.349-1.943c0-1.343.361-2.45 1.084-3.322s1.794-1.308 3.213-1.308c1.026 0 1.851.226 2.474.677.624.45 1.012 1.005 1.165 1.664zm-3.814 5.214c.444 0 .814-.125 1.111-.374s.444-.603.444-1.059c0-.405-.16-.726-.479-.963-.319-.236-.675-.355-1.069-.355-.414 0-.78.128-1.099.384s-.479.591-.479 1.005c0 .388.148.712.444.973s.672.389 1.127.389z" fill="#f1f1f2"/><path d="m80.013 294.537h3.661v1.541h-3.661z" fill="#f1f1f2"/><path d="m84.915 290.484h4.871c.873 0 1.529.09 1.968.269s.802.436 1.088.769.429.74.429 1.218c0 .97-.628 1.617-1.884 1.942.725.137 1.269.409 1.631.815.363.407.544.849.544 1.329 0 .655-.296 1.221-.889 1.697-.592.477-1.555.716-2.888.716h-4.871v-8.755zm2.443 1.546v1.918h1.854c.679 0 1.107-.112 1.283-.337s.264-.439.264-.645c0-.222-.073-.414-.218-.574s-.305-.261-.479-.301-.516-.061-1.026-.061zm0 3.476v2.11h1.88c.642 0 1.095-.094 1.361-.282.265-.188.397-.451.397-.789 0-.282-.127-.526-.382-.731s-.678-.308-1.269-.308z" fill="#f1f1f2"/><path d="m96.596 290.484v8.755h-2.443v-8.755z" fill="#f1f1f2"/><path d="m104.871 290.484v1.732h-2.589v7.023h-2.482v-7.023h-2.604v-1.732z" fill="#f1f1f2"/><path d="m188.223 222.285c-2.339 0-4.684 0-7.109 0 0-.534 0-1.022 0-1.663h4.873c-.354-1.072-.648-1.944-.931-2.819-.707-2.182-1.367-4.382-2.143-6.536-.188-.522-.696-1.168-1.159-1.275-.781-.182-1.034.629-1.251 1.299-1.081 3.343-2.193 6.676-3.239 10.031-.246.788-.604 1.054-1.398 1.032-2.181-.059-4.364-.005-6.546-.025-2.211-.02-3.657-1.466-3.705-3.755-.043-2.061-.047-4.125.001-6.186.054-2.325 1.453-3.739 3.687-3.771 1.967-.028 3.934-.006 5.971-.006v1.75c-1.691 0-3.371 0-5.052 0-2.371-.001-2.915.572-2.916 3.072 0 1.556-.007 3.112.002 4.668.01 1.664.768 2.475 2.334 2.492 1.271.013 2.543.003 3.88.003 0-1.848 0-3.564 0-5.427-1.081 0-2.133 0-3.236 0 0-.635 0-1.123 0-1.689h5.043v7.15c.092.011.184.022.275.032 1.067-3.287 2.135-6.573 3.199-9.861.608-1.88 1.728-2.644 3.534-2.366 1.005.154 1.749.741 2.078 1.735 1.306 3.947 2.573 7.909 3.85 11.867.018.06-.023.139-.042.248z" fill="#eff8fb"/><path d="m143.672 222.321c0-.607 0-1.097 0-1.731 1.897 0 3.756.021 5.616-.006 1.556-.023 2.719-1.152 2.775-2.63.055-1.445-1.096-2.681-2.626-2.789-.621-.044-1.251.016-1.869-.05-.951-.103-1.645-1-1.644-2.036.001-1.051.687-1.99 1.647-2.018 2.034-.059 4.07-.018 6.159-.018v1.712c-1.04 0-2.067 0-3.094 0-.962 0-1.923 0-2.885 0-.002.192-.004.384-.006.576.57.025 1.14.061 1.71.074 2.15.049 3.702 1.302 4.238 3.429.654 2.597-1.21 5.362-3.777 5.469-2.036.086-4.079.018-6.244.018z" fill="#eff8fb"/><path d="m143.655 219.911c0-.621 0-1.086 0-1.788h6c.001-.167.001-.335.002-.502-.612-.025-1.223-.061-1.835-.072-1.718-.03-2.995-.852-3.749-2.434-.767-1.611-.649-3.225.362-4.705.693-1.016 1.65-1.704 2.856-1.743 2.108-.068 4.219-.019 6.411-.019v1.715c-1.894 0-3.789-.032-5.682.009-1.88.041-3.101 1.796-2.533 3.564.342 1.064 1.317 1.778 2.567 1.851.587.035 1.181-.009 1.765.051.947.097 1.666.99 1.677 2.012s-.706 2.017-1.632 2.043c-2.035.058-4.072.018-6.209.018z" fill="#eff8fb"/><path d="m164.738 208.671v1.691c-1.875 0-3.733-.001-5.59 0-1.953.002-2.633.692-2.646 2.713-.01 1.627-.004 3.254.008 4.881.014 1.878.735 2.634 2.506 2.639 1.862.005 3.724.001 5.656.001v1.737c-1.389 0-2.758.003-4.126-.001-.865-.002-1.733.029-2.595-.032-1.588-.112-3.032-1.597-3.073-3.257-.059-2.384-.055-4.772-.001-7.156.035-1.527 1.324-3.099 2.784-3.181 2.337-.131 4.684-.035 7.077-.035z" fill="#eff8fb"/><path d="m177.529 222.246c1.206-3.726 2.378-7.371 3.579-11.005.085-.257.351-.531.592-.618.132-.048.502.237.572.443.98 2.914 1.926 5.84 2.907 8.844-1.423 0-2.724 0-4.072 0-.045-.432-.086-.817-.126-1.201-.058-.021-.117-.042-.175-.063-.232.674-.47 1.347-.695 2.024-.597 1.794-.595 1.795-2.582 1.576zm3.481-4.304h1.429c-.222-.689-.411-1.274-.599-1.858-.082.005-.164.01-.246.016-.179.565-.358 1.13-.584 1.842z" fill="#eff8fb"/><path d="m171.476 217.767c-.521-.152-.831-.243-1.201-.351 0-.473 0-.965 0-1.537h2.641v4.027c-1.35 0-2.693.077-4.018-.052-.344-.033-.886-.697-.902-1.091-.09-2.167-.064-4.34-.038-6.511.009-.761.454-1.207 1.189-1.214 2.006-.019 4.013-.007 6.108-.007v1.721c-1.509 0-2.99.043-4.467-.016-.906-.036-1.256.295-1.199 1.251.061 1.009.004 2.026.016 3.039.015 1.208.574 1.499 1.871.741z" fill="#eff8fb"/><path d="m158.95 218.059c1.864.348 3.795-.016 5.727.202v1.642c-2.21 0-4.378.054-6.538-.055-.345-.017-.861-.721-.939-1.175-.15-.871-.044-1.791-.044-2.782h6.15v1.623c-1.434 0-2.867 0-4.299 0-.019.181-.038.363-.057.545z" fill="#eff8fb"/><path d="m164.738 211.047v1.631c-1.918.273-3.884-.174-5.768.242.006.149.013.299.019.448h4.321v1.704c-2 0-3.993 0-6.134 0 0-.999-.086-2.043.046-3.055.047-.362.611-.914.955-.927 2.168-.085 4.341-.043 6.561-.043z" fill="#eff8fb"/><path d="m167.059 98.937h-83.399-3.382s1.453 1.808 2.2 2.595c6.975 7.345 14.889 8.152 14.889 8.152h7.566v.943h61.948 61.948v-.943h7.566s7.914-.807 14.889-8.152c.748-.788 2.2-2.595 2.2-2.595h-3.382z" fill="#353535"/><path d="m266.571 260.151c0 12.415-14.261 14.519-14.261 14.519h-86.828s-84.301 0-86.828 0-14.261-2.104-14.261-14.519 14.261-14.519 14.261-14.519h86.828 86.828c0 .001 14.261 2.105 14.261 14.519z" fill="#3f4040"/><path d="m252.23 271.32h-173.135c-6.1 0-11.092-4.991-11.092-11.092 0-6.1 4.991-11.092 11.092-11.092h173.135c6.1 0 11.092 4.991 11.092 11.092 0 6.101-4.992 11.092-11.092 11.092z" fill="#333"/><path d="m161.261 266.562h-2.028c-.437 0-.791-.354-.791-.791v-10.412c0-.437.354-.791.791-.791h2.028c.437 0 .791.354.791.791v10.412c0 .437-.354.791-.791.791z" fill="#5d5e5f"/><path d="m166.496 266.562h-2.028c-.437 0-.791-.354-.791-.791v-10.412c0-.437.354-.791.791-.791h2.028c.437 0 .791.354.791.791v10.412c0 .437-.354.791-.791.791z" fill="#5d5e5f"/><path d="m171.671 266.562h-2.028c-.437 0-.791-.354-.791-.791v-10.412c0-.437.354-.791.791-.791h2.028c.437 0 .791.354.791.791v10.412c0 .437-.354.791-.791.791z" fill="#5d5e5f"/><path d="m250.988 267.882h-29.487c-4.252 0-7.731-3.479-7.731-7.731 0-4.252 3.479-7.731 7.731-7.731h29.487c4.252 0 7.731 3.479 7.731 7.731 0 4.252-3.479 7.731-7.731 7.731z" fill="#d4202b"/><path d="m245.693 262.791h-17.325c-1.226 0-2.229-1.003-2.229-2.229v-.822c0-1.226 1.003-2.229 2.229-2.229h17.325c1.226 0 2.229 1.003 2.229 2.229v.822c0 1.226-1.003 2.229-2.229 2.229z" fill="#b7202f"/><path d="m110.125 267.882h-29.487c-4.252 0-7.731-3.479-7.731-7.731 0-4.252 3.479-7.731 7.731-7.731h29.487c4.252 0 7.731 3.479 7.731 7.731 0 4.252-3.479 7.731-7.731 7.731z" fill="#d4202b"/><path d="m104.044 262.791h-17.325c-1.226 0-2.229-1.003-2.229-2.229v-.822c0-1.226 1.003-2.229 2.229-2.229h17.325c1.226 0 2.229 1.003 2.229 2.229v.822c-.001 1.226-1.004 2.229-2.229 2.229z" fill="#b7202f"/><path d="m207.058 295.403c0-.416 0-.752 0-1.087.024-.021.046-.057.068-.057 1.318 0 2.637-.04 3.953.02.719.033 1.277.884 1.231 1.681-.046.82-.683 1.491-1.479 1.504-1.171.02-2.342.007-3.513.007-.875.001-1.75.008-2.625-.003-.94-.011-1.491-.595-1.494-1.564-.002-.709 0-1.418 0-2.197h1.08 1.086c0 .598-.002 1.164 0 1.728.003.71.067.778.73.779 1.097.001 2.194.001 3.292 0 .089 0 .178.003.267-.004.255-.02.468-.149.401-.426-.038-.153-.259-.354-.406-.363-.665-.04-1.334-.02-2.001-.02-.177.002-.352.002-.59.002z" fill="#fff"/><path d="m263.312 295.384c-.096.625.053.826.58.829 1.409.007 2.818.003 4.227.004h.623v1.224c-.135.009-.29.03-.446.031-1.868.002-3.738.006-5.606-.001-1.114-.004-1.613-.547-1.608-1.721.003-.66 0-1.321 0-1.989.085-.02.141-.047.196-.047.623-.003 1.246-.002 1.931-.002.094.549.514.508.921.507 1.232-.003 2.463-.002 3.693.001.189 0 .378.02.581.033v1.131c-1.72 0-3.413 0-5.092 0z" fill="#fff"/><path d="m201.702 294.218v1.169c-1.72 0-3.415 0-5.1 0-.077.625.074.823.598.826 1.425.007 2.849.002 4.274.003h.57v1.226c-.155.009-.312.029-.469.029-1.855.002-3.71.005-5.565 0-1.124-.004-1.632-.542-1.627-1.703.002-.663 0-1.326 0-2.024h2.132c.113.432.444.482.826.478 1.247-.01 2.494-.004 3.741-.004z" fill="#fff"/><path d="m251.676 293.743h2.439c.395.624.815 1.289 1.28 2.024.45-.715.86-1.368 1.279-2.034h2.44c-.816 1.276-1.592 2.489-2.376 3.715-.892 0-1.776 0-2.685 0-.779-1.213-1.557-2.426-2.377-3.705z" fill="#fff"/><path d="m193.123 293.327c-3.877 0-7.755 0-11.68 0 0-.421 0-.825 0-1.252.14-.014.254-.037.369-.037 3.367-.002 6.734-.005 10.1.001.776.001 1.245.502 1.211 1.288z" fill="#fff"/><path d="m219.846 294.848c0-.414 0-.746 0-1.109h2.154v3.694c-.704 0-1.389 0-2.121 0-.015-.342-.029-.675-.046-1.074-1.275 0-2.54 0-3.85 0 0-.529 0-.995 0-1.512 1.271.001 2.525.001 3.863.001z" fill="#fff"/><path d="m246.71 297.469c-.768 0-1.536.032-2.3-.021-.205-.015-.436-.252-.58-.448-.396-.544-.885-.735-1.536-.677-.676.059-1.359.013-2.081.013 0-.508 0-.974 0-1.502h2.186c.386 0 .771.002 1.157-.001.503-.005.597-.102.612-.617.004-.151.015-.301.024-.477h2.121c.165.927-.052 1.666-.97 2.225.534.459 1.021.876 1.508 1.294-.049.069-.095.14-.141.211z" fill="#fff"/><path d="m229.581 297.458c0-.428 0-.794 0-1.21.194-.011.366-.029.538-.03 1.069-.003 2.137.002 3.205-.003.496-.003.607-.117.612-.624.006-.602.002-1.204.002-1.844h2.184c0 .311.002.627-.001.943-.004.434-.012.868-.018 1.301-.011.785-.489 1.434-1.224 1.452-1.747.045-3.496.015-5.298.015z" fill="#fff"/><path d="m203.242 293.316c-.078-.731.395-1.263 1.145-1.276.86-.014 1.722-.004 2.582-.004h4.764.556v1.28c-3.017 0-6.033 0-9.047 0z" fill="#fff"/><path d="m236.069 293.324c-2.998 0-5.97 0-8.969 0-.011-.169-.026-.304-.029-.44-.004-.26-.001-.519-.001-.798.146-.021.245-.047.344-.047 2.492-.003 4.983-.007 7.475.001.752.002 1.216.504 1.18 1.284z" fill="#fff"/><path d="m246.297 293.329c-2.907 0-5.816 0-8.723 0-.059-.704.382-1.276 1.05-1.282 2.207-.021 4.413-.021 6.62 0 .68.007 1.125.579 1.053 1.282z" fill="#fff"/><path d="m213.409 293.318c.013-.769.426-1.268 1.103-1.274 2.133-.017 4.266-.017 6.399.001.672.006 1.118.558 1.076 1.273-2.858 0-5.718 0-8.578 0z" fill="#fff"/><path d="m261.09 293.322c0-.42 0-.828 0-1.261h7.661v1.261c-2.545 0-5.083 0-7.661 0z" fill="#fff"/><path d="m194.395 293.323c0-.429 0-.823 0-1.252h7.656v1.252c-2.537 0-5.064 0-7.656 0z" fill="#fff"/><path d="m190.968 297.437c0-1.252 0-2.452 0-3.69h2.165v3.69c-.724 0-1.413 0-2.165 0z" fill="#fff"/><path d="m237.541 293.736h2.146v3.7c-.728 0-1.414 0-2.146 0 0-1.226 0-2.437 0-3.7z" fill="#fff"/><path d="m181.443 293.732h2.113v3.708c-.719 0-1.392 0-2.113 0 0-1.227 0-2.438 0-3.708z" fill="#fff"/><path d="m213.385 297.438c0-1.261 0-2.461 0-3.695h2.145v3.695c-.726 0-1.411 0-2.145 0z" fill="#fff"/><path d="m249.772 297.443c-.726 0-1.4 0-2.116 0 0-1.242 0-2.453 0-3.7h2.116z" fill="#fff"/><path d="m188.327 297.447c-.71 0-1.385 0-2.102 0 0-1.233 0-2.446 0-3.699h2.102z" fill="#fff"/><path d="m227.097 297.435c0-1.258 0-2.461 0-3.695h2.132v3.695c-.713 0-1.4 0-2.132 0z" fill="#fff"/><path d="m252.987 291.969c.267.418.542.848.866 1.353-.862 0-1.621 0-2.447 0-.254-.401-.534-.844-.856-1.353z" fill="#fff"/><path d="m257.799 291.965h2.444c-.314.497-.587.926-.861 1.359-.794 0-1.565 0-2.436 0 .315-.502.585-.932.853-1.359z" fill="#fff"/><path d="m249.784 292.068v1.258c-.713 0-1.397 0-2.123 0 0-.421 0-.823 0-1.258z" fill="#fff"/><path d="m277.31 295.815v-3.741h1.555v-1.424h-8.718v1.668h1.56v3.575h-1.56v1.585h9.068v-1.663zm-2.064 0h-1.401v-3.619h1.401z" fill="#fff"/><path d="m141.319 135.994-1.252.093c-.017-.851-.298-1.277-.843-1.277-.624 0-.936.656-.936 1.967 0 .757.085 1.271.255 1.54.17.27.407.404.711.404.494 0 .796-.38.906-1.14l1.158.084c-.075.722-.302 1.271-.682 1.646-.38.376-.845.563-1.396.563-.675 0-1.224-.275-1.646-.826s-.633-1.313-.633-2.285c0-.91.204-1.656.613-2.236s.967-.871 1.674-.871c1.227 0 1.917.78 2.071 2.338z" fill="#343433"/><path d="m144.055 133.749 1.597 6.032h-1.284l-.314-1.242h-1.649l-.32 1.242h-1.048l1.635-6.032zm-1.364 3.677h1.081l-.536-2.117z" fill="#343433"/><path d="m147.133 137.391v2.391h-1.203v-6.032h2.242c.414 0 .745.057.996.17.25.113.458.322.622.625s.247.64.247 1.011c0 .724-.295 1.244-.886 1.559l.942 2.667h-1.32l-.783-2.391zm0-2.568v1.538h.732c.239 0 .413-.02.521-.06s.205-.128.29-.265.127-.294.127-.471c0-.168-.042-.318-.127-.451s-.177-.214-.277-.245-.286-.046-.561-.046z" fill="#343433"/><path d="m153.967 133.749v1.193h-1.263v4.839h-1.211v-4.839h-1.271v-1.193z" fill="#343433"/><path d="m155.569 137.391v2.391h-1.203v-6.032h2.242c.414 0 .746.057.996.17s.458.322.622.625.247.64.247 1.011c0 .724-.295 1.244-.886 1.559l.942 2.667h-1.32l-.783-2.391zm0-2.568v1.538h.732c.239 0 .413-.02.521-.06s.205-.128.29-.265.127-.294.127-.471c0-.168-.042-.318-.127-.451s-.177-.214-.277-.245-.286-.046-.561-.046z" fill="#343433"/><path d="m160.001 133.749v6.032h-1.192v-6.032z" fill="#343433"/><path d="m160.371 133.749h1.557c.635 0 1.107.104 1.418.312s.59.536.836.985.37 1.017.37 1.704c0 .863-.215 1.584-.646 2.163s-1.024.868-1.781.868h-1.755v-6.032zm1.173 1.109v3.787h.492c.435 0 .758-.192.969-.577.211-.384.317-.836.317-1.354 0-.365-.06-.703-.181-1.014s-.27-.529-.449-.654-.394-.188-.645-.188z" fill="#343433"/><path d="m168.99 136.555s-.008 1.9-.694 2.594-.849.725-1.413.725c-.666 0-1.183-.281-1.554-.844-.37-.563-.555-1.29-.555-2.183 0-.96.197-1.732.592-2.316.395-.583.931-.875 1.609-.875.568 0 1.026.189 1.375.566s.562.879.639 1.507l-1.136.177c-.092-.731-.385-1.096-.878-1.096-.324 0-.569.173-.734.519-.166.346-.249.84-.249 1.483 0 .619.09 1.092.269 1.419s.435.491.766.491c.214 0 .405-.082.574-.247.168-.165.252-.429.252-.791h-.96v-1.127h2.097z" fill="#343433"/><path d="m172.898 134.898h-2.429v1.237h1.91v1.136h-1.91v1.317h2.429v1.193h-3.643v-6.032h3.643z" fill="#343433"/><path d="m177.646 133.749v6.032h-1.192v-6.032z" fill="#343433"/><path d="m181.826 133.749v6.032h-1.02l-1.996-4.075c.003.103.005.171.007.203.01.103.015.19.015.261v3.611h-.93v-6.032h1.288l1.735 3.557c-.015-.177-.022-.311-.022-.402v-3.155z" fill="#343433"/><path d="m183.275 137.541v2.241h-1.214v-6.032h2.01c.448 0 .792.057 1.03.17s.45.316.637.608.28.65.28 1.074c0 .298-.05.588-.149.871-.1.283-.24.505-.422.667s-.358.27-.529.323-.438.08-.802.08h-.841zm-.041-1.096h.777c.296 0 .504-.081.624-.243s.179-.348.179-.557c0-.245-.067-.439-.2-.583s-.336-.217-.607-.217h-.774v1.6z" fill="#343433"/><path d="m190.339 133.749v3.756c0 .607-.059 1.058-.176 1.354s-.333.539-.648.729-.718.285-1.209.285-.881-.085-1.172-.256c-.29-.171-.508-.414-.652-.729-.145-.315-.217-.776-.217-1.383v-3.756h1.297v3.756c0 .324.023.563.069.716s.138.275.277.365c.138.09.308.135.51.135.224 0 .407-.044.547-.133.141-.088.234-.205.28-.351s.069-.39.069-.731v-3.756h1.025z" fill="#343433"/><path d="m194.363 133.749v1.193h-1.263v4.839h-1.211v-4.839h-1.271v-1.193z" fill="#343433"/><g fill="#444546"><path d="m31.591.002h2.481v12.836h-2.481z"/><path d="m35.35.002h2.481v12.836h-2.481z"/><path d="m39.172.002h2.481v12.836h-2.481z"/><path d="m42.931.002h2.481v12.836h-2.481z"/><path d="m46.627.002h2.481v12.836h-2.481z"/><path d="m50.386.002h2.481v12.836h-2.481z"/><path d="m54.208.002h2.481v12.836h-2.481z"/><path d="m57.967.002h2.481v12.836h-2.481z"/><path d="m61.821.002h2.481v12.836h-2.481z"/><path d="m65.58.002h2.481v12.836h-2.481z"/><path d="m69.402.002h2.481v12.836h-2.481z"/><path d="m73.161.002h2.481v12.836h-2.481z"/><path d="m76.856.002h2.481v12.836h-2.481z"/><path d="m80.615.002h2.481v12.836h-2.481z"/><path d="m84.437.002h2.481v12.836h-2.481z"/><path d="m88.196.002h2.481v12.836h-2.481z"/><path d="m92.018.002h2.481v12.836h-2.481z"/><path d="m95.777.002h2.481v12.836h-2.481z"/><path d="m99.6.002h2.481v12.836h-2.481z"/><path d="m103.358.002h2.481v12.836h-2.481z"/><path d="m107.054.002h2.481v12.836h-2.481z"/><path d="m110.813.002h2.481v12.836h-2.481z"/><path d="m114.635.002h2.481v12.836h-2.481z"/><path d="m118.394.002h2.481v12.836h-2.481z"/><path d="m122.216.002h2.481v12.836h-2.481z"/><path d="m125.975.002h2.481v12.836h-2.481z"/><path d="m129.797.002h2.481v12.836h-2.481z"/><path d="m133.556.002h2.481v12.836h-2.481z"/><path d="m137.252.002h2.481v12.836h-2.481z"/><path d="m141.011.002h2.481v12.836h-2.481z"/><path d="m144.833.002h2.481v12.836h-2.481z"/><path d="m148.592.002h2.481v12.836h-2.481z"/><path d="m152.614.002h2.481v12.836h-2.481z"/><path d="m156.436.002h2.481v12.836h-2.481z"/><path d="m160.195.002h2.481v12.836h-2.481z"/><path d="m163.891.002h2.481v12.836h-2.481z"/><path d="m167.65.002h2.481v12.836h-2.481z"/><path d="m171.472.002h2.481v12.836h-2.481z"/><path d="m175.231.002h2.481v12.836h-2.481z"/><path d="m179.053.002h2.481v12.836h-2.481z"/><path d="m182.812.002h2.481v12.836h-2.481z"/><path d="m186.634.002h2.481v12.836h-2.481z"/><path d="m190.393.002h2.481v12.836h-2.481z"/><path d="m194.089.002h2.481v12.836h-2.481z"/><path d="m197.848.002h2.481v12.836h-2.481z"/><path d="m201.67.002h2.481v12.836h-2.481z"/><path d="m205.429.002h2.481v12.836h-2.481z"/><path d="m209.567.002h2.481v12.836h-2.481z"/><path d="m213.389.002h2.481v12.836h-2.481z"/><path d="m217.148.002h2.481v12.836h-2.481z"/><path d="m220.843.002h2.481v12.836h-2.481z"/><path d="m224.602.002h2.481v12.836h-2.481z"/><path d="m228.425.002h2.481v12.836h-2.481z"/><path d="m232.183.002h2.481v12.836h-2.481z"/><path d="m236.006.002h2.481v12.836h-2.481z"/><path d="m239.764.002h2.481v12.836h-2.481z"/><path d="m243.587.002h2.481v12.836h-2.481z"/><path d="m247.346.002h2.481v12.836h-2.481z"/><path d="m251.041.002h2.481v12.836h-2.481z"/><path d="m254.8.002h2.481v12.836h-2.481z"/><path d="m258.622.002h2.481v12.836h-2.481z"/><path d="m262.381.002h2.481v12.836h-2.481z"/><path d="m266.361.002h2.481v12.836h-2.481z"/><path d="m270.183.002h2.481v12.836h-2.481z"/><path d="m273.942.002h2.481v12.836h-2.481z"/><path d="m277.638.002h2.481v12.836h-2.481z"/><path d="m281.397.002h2.481v12.836h-2.481z"/><path d="m285.219.002h2.481v12.836h-2.481z"/><path d="m288.978.002h2.481v12.836h-2.481z"/><path d="m292.8.002h2.481v12.836h-2.481z"/><path d="m296.559.002h2.481v12.836h-2.481z"/></g><path d="m15.996 118.015s.008.43.016 1.195c0 .255.008.502.008.757" fill="none"/><path d="m315.961 125.867s0 0 0-.008" fill="none"/><path d="m317.834 126.593c0 .486-.175 21.454-1.354 30.238-1.195 8.895 1.059 19.646-16.19 27.076-17.257 7.438-43.274 13.928-80.568 18.189-37.293 4.253-83.427 3.846-119.86-2.325-36.425-6.172-56.677-10.918-67.898-16.262-11.993-5.702-13.323-15.792-13.522-25.444-.104-4.961-.446-30.134-.549-37.373.088 6.53.478 11.587 1.123 13.522l.35 1.067c2.023 6.092 3.775 11.356 12.431 14.51 3.002 1.091 10.177 3.13 18.491 5.487 14.876 4.229 35.239 10.018 41.689 13.299 10.289 5.248 34.379 15.29 41.036 17.496l6.705 2.214c.478.183 11.818 4.38 28.303 4.38 16.493 0 27.697-4.197 28.104-4.356l6.769-2.238c6.658-2.206 30.74-12.248 41.028-17.496 6.45-3.281 26.821-9.07 41.689-13.299 8.314-2.357 15.497-4.396 18.499-5.487 8.656-3.154 10.4-8.418 12.423-14.51l.358-1.067c.433-1.297.752-4.005.943-7.621z" fill="#282827"/><path d="m17.869 118.741s.008.43.016 1.195c0 .255.008.502.008.757" fill="none"/><path d="m317.834 126.593s0 0 0-.008" fill="none"/><path d="m313.048 98.88h-4.316c-1.003 0-1.824.82-1.824 1.832v.223c0 1.011.82 1.832 1.824 1.832h4.316c1.003 0 1.824-.82 1.824-1.832v-.223c0-1.012-.821-1.832-1.824-1.832zm-.366 3.305h-3.584c-.749 0-1.362-.613-1.362-1.362s.613-1.362 1.362-1.362h3.584c.749 0 1.362.613 1.362 1.362s-.614 1.362-1.362 1.362z" fill="#565151"/><path d="m314.043 100.823c0 .749-.613 1.362-1.362 1.362h-3.584c-.749 0-1.362-.613-1.362-1.362s.613-1.362 1.362-1.362h3.584c.749 0 1.362.614 1.362 1.362z" fill="#231f20"/><path d="m312.212 89.841h-4.308c-1.003 0-1.824.82-1.824 1.824v.231c0 1.003.82 1.824 1.824 1.824h4.308c1.011 0 1.832-.82 1.832-1.824v-.231c-.001-1.003-.821-1.824-1.832-1.824zm-.359 3.297h-3.584c-.749 0-1.362-.613-1.362-1.362s.613-1.362 1.362-1.362h3.584c.749 0 1.362.613 1.362 1.362s-.613 1.362-1.362 1.362z" fill="#565151"/><path d="m313.215 91.777c0 .749-.613 1.362-1.362 1.362h-3.584c-.749 0-1.362-.613-1.362-1.362s.613-1.362 1.362-1.362h3.584c.749 0 1.362.613 1.362 1.362z" fill="#231f20"/><path d="m311.615 80.819h-4.308c-1.003 0-1.824.82-1.824 1.824v.231c0 1.003.82 1.824 1.824 1.824h4.308c1.011 0 1.832-.82 1.832-1.824v-.231c-.001-1.004-.821-1.824-1.832-1.824zm-.359 3.297h-3.584c-.749 0-1.362-.613-1.362-1.362s.613-1.362 1.362-1.362h3.584c.749 0 1.362.613 1.362 1.362s-.613 1.362-1.362 1.362z" fill="#565151"/><path d="m312.618 82.754c0 .749-.613 1.362-1.362 1.362h-3.584c-.749 0-1.362-.613-1.362-1.362s.613-1.362 1.362-1.362h3.584c.749 0 1.362.613 1.362 1.362z" fill="#231f20"/><path d="m27.258 98.88h-4.308c-1.003 0-1.832.82-1.832 1.832v.223c0 1.011.828 1.832 1.832 1.832h4.308c1.003 0 1.824-.82 1.824-1.832v-.223c0-1.012-.82-1.832-1.824-1.832zm-.366 3.305h-3.584c-.749 0-1.354-.613-1.354-1.362s.605-1.362 1.354-1.362h3.584c.749 0 1.362.613 1.362 1.362s-.613 1.362-1.362 1.362z" fill="#565151"/><path d="m28.254 100.823c0 .749-.613 1.362-1.362 1.362h-3.584c-.749 0-1.354-.613-1.354-1.362s.605-1.362 1.354-1.362h3.584c.749 0 1.362.614 1.362 1.362z" fill="#231f20"/><path d="m28.087 89.841h-4.308c-1.003 0-1.824.82-1.824 1.824v.231c0 1.003.82 1.824 1.824 1.824h4.308c1.003 0 1.832-.82 1.832-1.824v-.231c-.001-1.003-.829-1.824-1.832-1.824zm-.359 3.297h-3.584c-.749 0-1.362-.613-1.362-1.362s.613-1.362 1.362-1.362h3.584c.749 0 1.354.613 1.354 1.362s-.605 1.362-1.354 1.362z" fill="#565151"/><path d="m29.082 91.777c0 .749-.605 1.362-1.354 1.362h-3.584c-.749 0-1.362-.613-1.362-1.362s.613-1.362 1.362-1.362h3.584c.749 0 1.354.613 1.354 1.362z" fill="#231f20"/><path d="m28.684 80.819h-4.308c-1.003 0-1.824.82-1.824 1.824v.231c0 1.003.82 1.824 1.824 1.824h4.308c1.003 0 1.832-.82 1.832-1.824v-.231c0-1.004-.829-1.824-1.832-1.824zm-.358 3.297h-3.584c-.749 0-1.362-.613-1.362-1.362s.613-1.362 1.362-1.362h3.584c.749 0 1.354.613 1.354 1.362s-.606 1.362-1.354 1.362z" fill="#565151"/><path d="m29.679 82.754c0 .749-.605 1.362-1.354 1.362h-3.584c-.749 0-1.362-.613-1.362-1.362s.613-1.362 1.362-1.362h3.584c.749 0 1.354.613 1.354 1.362z" fill="#231f20"/><path d="m317.834 126.585v.008c-.191 3.615-.51 6.323-.94 7.621l-.358 1.067c-2.023 6.092-3.767 11.356-12.423 14.51-3.002 1.091-10.185 3.13-18.499 5.487-14.868 4.229-35.239 10.018-41.689 13.299-10.289 5.248-34.371 15.29-41.028 17.496l-6.769 2.238c-.406.159-11.611 4.356-28.104 4.356-16.485 0-27.825-4.197-28.303-4.38l-6.705-2.214c-6.658-2.206-30.747-12.248-41.036-17.496-6.451-3.281-26.813-9.07-41.689-13.299-8.314-2.357-15.489-4.396-18.491-5.487-8.656-3.154-10.408-8.418-12.431-14.51l-.35-1.067c-.645-1.935-1.035-6.992-1.123-13.522 0-.255-.008-.502-.008-.757-.151-15.569 1.346-38.831 4.929-48.212 8.171-21.326 22.704-22.569 41.108-24.146 2.732-.231 5.559-.47 8.489-.788 16.564-1.776 33.702-3.082 51.27-3.886l-.024 1.569c-21.956.995-39.276 2.548-51.078 3.791-22.76 2.389-39.316.478-48.275 23.357-4.969 12.678-5.973 53.587-3.783 59.958s3.408 11.253 11.81 14.239c8.394 2.986 50.203 13.379 60.356 18.436 10.154 5.057 34.044 14.812 40.813 17.002s6.769 2.19 6.769 2.19 11.364 4.181 27.753 4.181 27.61-4.181 27.61-4.181 0 0 6.769-2.19 30.66-11.945 40.813-17.002c10.154-5.057 51.962-15.449 60.364-18.436 8.394-2.986 9.62-7.868 11.802-14.239 2.198-6.371 1.187-47.28-3.775-59.958-8.967-22.879-25.523-20.968-48.283-23.357-1.521-.159-3.13-.327-4.834-.494-.366-.032-.741-.072-1.115-.111-1.593-.151-3.265-.311-5.017-.47-.741-.072-1.489-.135-2.254-.199-.765-.072-1.537-.143-2.325-.207-.788-.072-1.593-.135-2.413-.199-3.265-.271-6.729-.542-10.4-.796-1.832-.135-3.711-.263-5.646-.382-2.652-.175-5.399-.334-8.242-.486-.772-.048-1.553-.088-2.341-.127-.526-.032-1.051-.056-1.585-.08-.98-.056-1.975-.104-2.978-.151-.677-.032-1.362-.064-2.047-.096l.056-1.561c17.576.804 34.721 2.102 51.309 3.886 2.931.319 5.758.557 8.489.788 18.404 1.577 32.938 2.819 41.108 24.146 4.155 10.855 5.501 40.256 4.744 54.861z" fill="#17171b"/><path d="m311.607 71.621c-8.967-22.879-25.523-20.968-48.283-23.357-1.521-.159-3.13-.327-4.834-.494-.366-.032-.733-.072-1.115-.111-1.593-.151-3.265-.311-5.017-.47-.733-.064-1.489-.135-2.254-.199-.765-.072-1.537-.135-2.325-.207-.796-.064-1.601-.135-2.413-.199-3.265-.271-6.729-.542-10.4-.796-1.832-.127-3.719-.255-5.646-.382-.661-.04-1.33-.08-2.007-.127-.311-.016-.613-.032-.924-.056-1.051-.064-2.118-.127-3.193-.191-.382-.024-.772-.04-1.163-.064-.319-.016-.637-.032-.956-.048-.772-.048-1.553-.088-2.341-.127-.526-.032-1.051-.056-1.585-.08-.98-.056-1.975-.104-2.978-.151-.677-.032-1.362-.064-2.047-.096-13.116-.589-27.896-.98-44.142-.98-16.302 0-31.13.39-44.294.987h-.032c-21.956.995-39.276 2.548-51.078 3.791-22.76 2.389-39.316.478-48.275 23.357-4.969 12.678-5.973 53.587-3.783 59.958s3.408 11.253 11.81 14.239c8.394 2.986 50.203 13.379 60.356 18.436 10.154 5.057 34.044 14.812 40.813 17.002s6.769 2.19 6.769 2.19 11.364 4.181 27.753 4.181 27.61-4.181 27.61-4.181 0 0 6.769-2.19 30.66-11.945 40.813-17.002c10.154-5.057 51.962-15.449 60.364-18.436 8.394-2.986 9.62-7.868 11.802-14.239 2.198-6.371 1.187-47.28-3.774-59.958zm-282.525 29.314c0 1.011-.82 1.832-1.824 1.832h-4.308c-1.003 0-1.832-.82-1.832-1.832v-.223c0-1.011.828-1.832 1.832-1.832h4.308c1.003 0 1.824.82 1.824 1.832zm.836-9.039c0 1.003-.828 1.824-1.832 1.824h-4.308c-1.003 0-1.824-.82-1.824-1.824v-.231c0-1.003.82-1.824 1.824-1.824h4.308c1.003 0 1.832.82 1.832 1.824zm.598-9.023c0 1.003-.828 1.824-1.832 1.824h-4.308c-1.003 0-1.824-.82-1.824-1.824v-.231c0-1.003.82-1.824 1.824-1.824h4.308c1.003 0 1.832.82 1.832 1.824zm261.811 37.326c-14.613 12.383-34.076 29.378-61.184 41.084-.008.008-.016.016-.024.016-.024.008-.064.024-.127.048-1.903.828-3.846 1.625-5.829 2.389-30.262 11.683-43.911 15.131-57.394 15.131-9.27 0-18.619-1.633-33.383-6.443-.008-.008-28.446-10.464-30.596-11.404-26.798-11.691-46.077-28.534-60.579-40.821-15.656-13.267-17.783-57.601 11.945-63.438 29.736-5.845 112.613-6.904 112.613-6.904s82.877 1.059 112.613 6.904c29.727 5.837 27.601 50.17 11.945 63.438zm13.156-37.326v-.231c0-1.003.82-1.824 1.824-1.824h4.308c1.011 0 1.832.82 1.832 1.824v.231c0 1.003-.82 1.824-1.832 1.824h-4.308c-1.004 0-1.824-.82-1.824-1.824zm.597 9.023v-.231c0-1.003.82-1.824 1.824-1.824h4.308c1.011 0 1.832.82 1.832 1.824v.231c0 1.003-.82 1.824-1.832 1.824h-4.308c-1.004 0-1.824-.821-1.824-1.824zm8.792 9.039c0 1.011-.82 1.832-1.824 1.832h-4.316c-1.003 0-1.824-.82-1.824-1.832v-.223c0-1.011.82-1.832 1.824-1.832h4.316c1.003 0 1.824.82 1.824 1.832z" fill="#282827"/><path d="m231.142 161.283c-.008.008-.016.016-.024.016-.024.008-.064.024-.127.048-1.903.828-3.846 1.625-5.829 2.389-30.262 11.683-43.911 15.131-57.394 15.131-9.27 0-18.619-1.633-33.383-6.443-.008-.008-28.446-10.464-30.596-11.404.526-1.378 1.983-4.953 4.476-8.999.008-.008.008-.024.016-.032 3.01-4.882 7.526-10.432 13.705-13.602.366-.183.741-.366 1.115-.534 12.081-5.439 31.719-5.041 44.923-5.041s32.587-.398 44.668 5.041c.374.167.749.35 1.115.534 8.25 4.253 13.132 12.885 15.585 18.42.898 2.031 1.464 3.648 1.75 4.476z" fill="#fff"/><path d="m167.768 177.274c-9.486 0-19.015-1.844-32.89-6.364l.051.031c-.317-.131-.854-.329-1.834-.691-14.661-5.405-23.787-8.797-27.231-10.121.752-1.778 1.953-4.324 3.659-7.116l.135-.135.066-.198c2.608-4.196 6.955-9.783 12.988-12.877.331-.165.684-.338 1.038-.496 10.903-4.909 29.134-4.909 38.928-4.909l5.345.007 5.333-.007c13.442 0 28.624.379 38.681 4.907.359.16.712.334 1.058.507 7.52 3.875 12.222 11.732 14.84 17.64.508 1.146.908 2.163 1.204 2.956-1.491.633-3.016 1.25-4.55 1.841-29.461 11.374-43.268 15.025-56.821 15.025z" fill="#2f3134"/><path d="m280.381 56.761c-29.736-5.845-112.613-6.904-112.613-6.904s-82.877 1.059-112.613 6.904c-29.728 5.837-27.602 50.171-11.945 63.438 14.502 12.288 33.782 29.131 60.579 40.821.526-1.378 1.983-4.953 4.476-8.999.008-.008.008-.024.016-.032 3.01-4.882 7.526-10.432 13.705-13.602.366-.183.741-.366 1.115-.534 12.081-5.439 31.719-5.041 44.923-5.041s32.587-.398 44.668 5.041c.374.167.749.35 1.115.534 8.25 4.253 13.132 12.885 15.585 18.42.9 2.031 1.465 3.647 1.752 4.476 27.108-11.706 46.571-28.701 61.184-41.084 15.655-13.268 17.781-57.601-11.947-63.438zm5.041 40.28s-1.394 20.108-18.316 23.094c-16.923 2.986-45.377 3.584-99.338 3.584s-82.415-.597-99.338-3.584c-16.923-2.986-18.316-23.094-18.316-23.094s0 0 0-5.264c0-5.256 4.579-19.224 18.914-24.799 14.334-5.575 82.033-7.167 98.741-7.167s84.406 1.593 98.741 7.167c14.334 5.575 18.914 19.543 18.914 24.799-.002 5.264-.002 5.264-.002 5.264z" fill="#171819"/><path d="m266.509 66.978c-14.334-5.575-82.033-7.167-98.741-7.167s-84.406 1.593-98.741 7.167c-14.334 5.575-18.914 19.543-18.914 24.799v5.264s1.394 20.108 18.316 23.094c16.923 2.986 45.377 3.584 99.338 3.584s82.415-.597 99.338-3.584c16.923-2.986 18.316-23.094 18.316-23.094s0 0 0-5.264c.001-5.256-4.578-19.225-18.912-24.799zm4.38 34.012c-.693 6.005-3.783 12.575-9.556 12.877-5.774.295-29.067 1.386-33.646 1.29s-42.972.796-59.663.494c-16.684.303-55.084-.597-59.663-.494-4.579.096-27.873-.995-33.646-1.298-5.774-.295-8.856-6.865-9.556-12.869-.693-6.005-.796-6.737 0-14.669s5.774-11.38 8.76-12.575 16.923-2.389 36.832-3.783 31.623-2.126 57.274-2.126 37.365.733 57.274 2.126 33.845 2.588 36.832 3.783c2.986 1.195 7.964 4.643 8.76 12.575s.691 8.665-.002 14.669z" fill="#282827"/><path d="m270.889 86.322c-.796-7.932-5.774-11.38-8.76-12.575s-16.923-2.389-36.832-3.783-31.623-2.126-57.274-2.126-37.365.733-57.274 2.126-33.845 2.588-36.832 3.783c-2.986 1.195-7.964 4.643-8.76 12.575s-.693 8.664 0 14.669c.701 6.005 3.783 12.575 9.556 12.869 5.774.303 29.067 1.394 33.646 1.298 4.579-.104 42.98.796 59.663.494 16.692.303 55.084-.589 59.663-.494 4.579.096 27.873-.995 33.646-1.29 5.774-.303 8.863-6.873 9.556-12.877.695-6.005.798-6.738.002-14.669zm-13.276 15.234h-3.783v6.172h-9.755v-1.465h-7.693v1.465h-136.36v-1.593h-7.812v1.593h-10.258v-6.737h-4.03v-14.669h4.03v-6.737h10.258v1.593h7.812v-1.593h136.361v1.465h7.693v-1.465h9.755v6.172h3.783v15.799z" fill="#1d1d1d"/><path d="m257.613 94.253v7.303h-3.782v6.172h-9.756v-1.466h-7.692v1.466h-136.361v-1.593h-7.812v1.593h-10.258v-6.738h-4.029v-6.737z" fill="#191818"/><path d="m77.923 93.059h179.691v1.195h-179.691z"/><path d="m257.613 85.756v7.303h-179.69v-6.737h4.029v-6.738h10.258v1.593h7.812v-1.593h136.361v1.466h7.692v-1.466h9.756v6.172z" fill="#191818"/><path d="m224.501 82.762v1.736s-.661 7.526-2.652 8.64l-106.736-.08h-.096c-1.895-1.338-2.54-8.561-2.54-8.561v-1.736h112.024z" fill="#505052"/><path d="m224.501 84.498v8.64h-2.652c1.991-1.115 2.652-8.64 2.652-8.64z" fill="#323333"/><path d="m115.017 93.059h-2.54v-8.561s.645 7.223 2.54 8.561z" fill="#323333"/><path d="m224.501 104.486v-1.736s-.661-7.526-2.652-8.64l-106.736.08h-.096c-1.895 1.338-2.54 8.561-2.54 8.561v1.736h112.024z" fill="#505052"/><path d="m224.501 102.75v-8.64h-2.652c1.991 1.115 2.652 8.64 2.652 8.64z" fill="#323333"/><path d="m115.017 94.19h-2.54v8.561c0-.001.645-7.224 2.54-8.561z" fill="#323333"/><path d="m140.198 142.694v-.772h7.203c.343 0 .514.257.514.772zm0 2.315v-2.058h1.286v2.058zm3.086 0v-2.058h1.286v2.058zm3.345 0v-2.058h1.286v2.058z" fill="#fff"/><path d="m148.686 142.694v-.772h4.887v.772zm0 1.544v-1.286h1.286c0 .172.086.257.257.257h3.087v.772h-3.344c0 .172.086.257.257.257h3.344v.772h-4.373c-.342-.001-.514-.258-.514-.772z" fill="#fff"/><path d="m154.345 142.694c0-.514.171-.772.514-.772h4.887v.772zm0 1.544v-1.286h1.286v1.286h2.572c.171 0 .257-.043.257-.129s-.086-.129-.257-.129h-1.286v-.772h2.315c.514 0 .772.257.772.772v.257c0 .514-.171.772-.514.772h-4.63c-.343 0-.515-.257-.515-.771z" fill="#fff"/><path d="m160.776 142.694c0-.514.171-.772.514-.772h4.373c.343 0 .514.257.514.772zm0 2.315v-2.058h1.286v2.058zm4.116 0v-.514h-2.572v-.772h2.572v-.772h1.286v2.058z" fill="#fff"/><path d="m166.95 142.694v-.772h4.887c.343 0 .514.257.514.772zm0 2.315v-2.058h1.286v2.058zm4.887 0h-3.344v-.772h2.572v-1.286h1.286v1.286c.001.515-.171.772-.514.772z" fill="#fff"/><path d="m173.123 142.694c0-.514.171-.772.514-.772h4.373c.343 0 .514.257.514.772zm0 2.315v-2.058h1.286v2.058zm1.544-.514v-.772h2.315c.171 0 .257-.085.257-.257v-.514h1.286v.772c0 .514-.171.772-.514.772l.772.514h-1.286l-.772-.514h-2.058z" fill="#fff"/><path d="m179.554 145.009v-3.087h1.286v3.087z" fill="#fff"/><path d="m182.384 142.694-.514-.772h1.543l.514.772zm1.543 2.315-1.286-2.058h1.543l.772 1.235.772-1.235h1.543l-1.286 2.058zm2.021-2.315.514-.772h1.543l-.514.772z" fill="#fff"/><path d="m188.778 142.694v-.772h4.887v.772zm0 1.544v-1.286h1.286c0 .172.086.257.257.257h3.087v.772h-3.344c0 .172.086.257.257.257h3.344v.772h-4.373c-.343-.001-.514-.258-.514-.772z" fill="#fff"/><path d="m140.198 148.398v-2.508h13.152c1.515 0 2.273.836 2.273 2.508zm0 7.524v-2.508h10.554c.541 0 .812-.14.812-.418s-.271-.418-.812-.418h-7.307v-2.508h7.144c.649 0 .974-.278.974-.836h4.059v4.18c0 1.672-.758 2.508-2.273 2.508z" fill="#fff"/><path d="m157.247 148.398v-2.508h12.99c1.624 0 2.436.836 2.436 2.508zm0 4.18c0-1.672.812-2.508 2.436-2.508h8.119c.541 0 .812-.278.812-.836h4.059v.836c0 1.672-.812 2.508-2.436 2.508h-8.931c-.541 0-.812.278-.812.836h12.178v2.508h-15.426v-3.344z" fill="#fff"/><path d="m177.915 148.398-3.619-2.508h4.871l3.607 2.508zm10.833 7.524-4.767-3.308-4.767 3.308h-4.871l7.202-5.004-2.424-1.684h9.719l-2.424 1.684 7.202 5.004zm.046-10.032h4.871l-3.619 2.508h-4.86z" fill="#fff"/><path d="m152.728 168.268c0-.789.282-1.466.844-2.032.563-.566 1.191-.849 1.886-.849h3.943v1.213h-3.64c-.56 0-1.002.165-1.329.495-.327.331-.49.721-.49 1.173 0 .458.163.851.49 1.178s.77.49 1.329.49h.607c.479 0 .851.133 1.117.4.266.266.399.588.399.965 0 .371-.133.691-.399.96-.266.27-.638.404-1.117.404h-3.64v-1.213h3.64c.202 0 .303-.051.303-.152s-.101-.152-.303-.152h-.91c-.694 0-1.323-.282-1.886-.845-.562-.56-.844-1.239-.844-2.035zm1.517 0c0-.371.133-.691.399-.96.266-.27.638-.404 1.117-.404h3.64v1.213h-3.64c-.202 0-.303.051-.303.152s.101.152.303.152h.91c.694 0 1.323.282 1.886.845.563.562.844 1.241.844 2.037 0 .789-.282 1.466-.844 2.032s-1.191.849-1.886.849h-3.943v-1.213h3.64c.56 0 1.002-.165 1.329-.495.327-.331.49-.721.49-1.173 0-.458-.163-.851-.49-1.178s-.77-.49-1.329-.49h-.607c-.479 0-.851-.133-1.117-.4-.266-.268-.399-.59-.399-.967z" fill="#fff"/><path d="m160.007 168.116c0-1.82.91-2.73 2.73-2.73h3.64v1.213h-3.64c-1.011 0-1.517.505-1.517 1.516v3.336c0 1.011.506 1.517 1.517 1.517h3.64v1.213h-3.64c-1.82 0-2.73-.91-2.73-2.73zm1.517 1.517v-1.517c0-.809.404-1.213 1.213-1.213h3.64v1.213h-3.336c-.202 0-.303.101-.303.303h2.73v1.213h-3.944zm0 .303h3.943v1.213h-2.73c0 .202.101.303.303.303h3.336v1.213h-3.64c-.809 0-1.213-.404-1.213-1.213v-1.516z" fill="#fff"/><path d="m166.983 168.116c0-1.82.91-2.73 2.73-2.73h3.64v1.213h-3.64c-1.011 0-1.516.505-1.516 1.516v3.336c0 1.011.505 1.517 1.516 1.517h2.426v-3.336h-2.123v-1.213h3.336v5.763h-3.64c-1.82 0-2.73-.91-2.73-2.73v-3.336zm1.517 0c0-.809.404-1.213 1.213-1.213h3.64v1.213h-3.336c-.202 0-.303.101-.303.303v2.73c0 .202.101.303.303.303h.607v-.303h-.607v-1.213h1.82v2.73h-2.123c-.809 0-1.213-.404-1.213-1.213v-3.337z" fill="#fff"/><path d="m177.548 172.969h3.589l-2.426-6.167c-.067-.135-.202-.202-.404-.202-.168 0-.303.068-.404.202l-2.73 7.38h-1.213l2.831-7.785c.337-.674.843-1.011 1.517-1.011.775 0 1.28.337 1.517 1.011l2.932 7.785h-5.207v-1.213zm0-.303v-.657l-.859 2.174h-1.213l2.629-7.077c.034-.135.101-.202.202-.202s.168.068.202.202l2.123 5.561h-3.084zm.758-2.629-.556 1.415h1.112z" fill="#fff"/><path d="m146.394 174.951 5.508-10.751h29.731l5.939 10.751 1.261-.398-6.669-11.752h-31.357l-5.74 11.586z" fill="#fff"/><path d="m92.21 79.584h7.812v1.593h-7.812z" fill="#231f20"/><path d="m92.21 106.135h7.812v1.593h-7.812z" fill="#231f20"/><path d="m236.383 79.584h7.693v1.465h-7.693z" fill="#231f20"/><path d="m236.383 106.262h7.693v1.465h-7.693z" fill="#231f20"/><path d="m100.667 91.83c-.365 0-.664-.299-.664-.664v-8.096c0-.365.299-.664.664-.664.365 0 .664.299.664.664v8.096c-.001.365-.299.664-.664.664z" fill="#505052"/><path d="m95.208 91.83c-.365 0-.664-.299-.664-.664v-8.096c0-.365.299-.664.664-.664.365 0 .664.299.664.664v8.096c0 .365-.299.664-.664.664z" fill="#505052"/><path d="m100.667 104.838c-.365 0-.664-.299-.664-.664v-8.096c0-.365.299-.664.664-.664.365 0 .664.299.664.664v8.096c-.001.366-.299.664-.664.664z" fill="#505052"/><path d="m95.208 104.838c-.365 0-.664-.299-.664-.664v-8.096c0-.365.299-.664.664-.664.365 0 .664.299.664.664v8.096c0 .366-.299.664-.664.664z" fill="#505052"/><path d="m241.365 91.864c-.365 0-.664-.299-.664-.664v-8.096c0-.365.299-.664.664-.664.365 0 .664.299.664.664v8.096c0 .365-.299.664-.664.664z" fill="#505052"/><path d="m235.907 91.864c-.365 0-.664-.299-.664-.664v-8.096c0-.365.299-.664.664-.664.365 0 .664.299.664.664v8.096c0 .365-.299.664-.664.664z" fill="#505052"/><path d="m241.365 104.872c-.365 0-.664-.299-.664-.664v-8.096c0-.365.299-.664.664-.664.365 0 .664.299.664.664v8.096c0 .365-.299.664-.664.664z" fill="#505052"/><path d="m235.907 104.872c-.365 0-.664-.299-.664-.664v-8.096c0-.365.299-.664.664-.664.365 0 .664.299.664.664v8.096c0 .365-.299.664-.664.664z" fill="#505052"/></svg>