<svg enable-background="new 0 0 288.411 75.415" viewBox="0 0 288.411 75.415" xmlns="http://www.w3.org/2000/svg"><g fill="#a09c9b"><path d="m26.048 6.682v-3.787h35.342c1.684 0 2.524 1.262 2.524 3.787zm0 11.36v-10.098h6.311v10.098zm15.146 0v-10.098h6.311v10.098zm16.409 0v-10.098h6.311v10.098z"/><path d="m67.701 6.682v-3.787h23.982v3.787zm0 7.573v-6.311h6.311c0 .843.421 1.262 1.262 1.262h15.147v3.787h-16.409c0 .843.421 1.262 1.262 1.262h16.409v3.787h-21.457c-1.684 0-2.525-1.262-2.525-3.787z"/><path d="m95.47 6.682c0-2.524.841-3.787 2.524-3.787h23.982v3.787zm0 7.573v-6.311h6.311v6.311h12.622c.841 0 1.262-.212 1.262-.631s-.422-.631-1.262-.631h-6.311v-3.787h11.36c2.524 0 3.787 1.262 3.787 3.787v1.262c0 2.524-.841 3.787-2.524 3.787h-22.72c-1.684 0-2.525-1.262-2.525-3.787z"/><path d="m127.026 6.682c0-2.524.841-3.787 2.524-3.787h21.458c1.684 0 2.524 1.262 2.524 3.787zm0 11.36v-10.098h6.311v10.098zm20.196 0v-2.524h-12.622v-3.787h12.622v-3.787h6.311v10.098z"/><path d="m157.32 6.682v-3.787h23.982c1.684 0 2.524 1.262 2.524 3.787zm0 11.36v-10.098h6.311v10.098zm23.982 0h-16.409v-3.787h12.622v-6.311h6.311v6.311c0 2.525-.84 3.787-2.524 3.787z"/><path d="m187.613 6.682c0-2.524.841-3.787 2.524-3.787h21.458c1.684 0 2.524 1.262 2.524 3.787zm0 11.36v-10.098h6.311v10.098zm7.574-2.525v-3.787h11.36c.841 0 1.262-.419 1.262-1.262v-2.524h6.311v3.787c0 2.524-.841 3.787-2.524 3.787l3.787 2.524h-6.311l-3.787-2.524h-10.098z"/><path d="m219.169 18.042v-15.147h6.311v15.147z"/><path d="m233.053 6.682-2.524-3.787h7.573l2.524 3.787zm7.574 11.36-6.311-10.098h7.573l3.787 6.059 3.787-6.059h7.573l-6.311 10.098zm9.917-11.36 2.524-3.787h7.573l-2.524 3.787z"/><path d="m264.429 6.682v-3.787h23.982v3.787zm0 7.573v-6.311h6.311c0 .843.421 1.262 1.262 1.262h15.147v3.787h-16.409c0 .843.421 1.262 1.262 1.262h16.409v3.787h-21.458c-1.683 0-2.524-1.262-2.524-3.787z"/><path d="m26.048 34.667v-12.306h64.538c7.436 0 11.155 4.102 11.155 12.307h-75.693zm0 36.921v-12.307h51.79c2.655 0 3.984-.685 3.984-2.051s-1.329-2.051-3.984-2.051h-35.855v-12.307h35.058c3.187 0 4.781-1.366 4.781-4.102h19.919v20.511c0 8.205-3.719 12.307-11.155 12.307z"/><path d="m109.708 34.667v-12.306h63.741c7.968 0 11.951 4.102 11.951 12.307h-75.692zm0 20.512c0-8.205 3.984-12.307 11.951-12.307h39.838c2.655 0 3.984-1.366 3.984-4.102h19.919v4.102c0 8.205-3.984 12.307-11.951 12.307h-43.822c-2.655 0-3.984 1.366-3.984 4.102h59.757v12.307h-75.693v-16.409z"/><path d="m211.125 34.667-17.757-12.307h23.903l17.7 12.307zm53.156 36.921-23.391-16.234-23.391 16.233h-23.903l35.342-24.555-11.895-8.263h47.692l-11.895 8.263 35.342 24.555h-23.901zm.227-49.227h23.903l-17.757 12.307h-23.846z"/></g><path d="m7.237 75.415c-1.981 0-3.682-.707-5.104-2.12s-2.133-2.992-2.133-4.736v-9.903h3.047v9.141c0 1.405.414 2.518 1.244 3.339s1.811 1.232 2.946 1.232c1.15 0 2.137-.41 2.959-1.232.82-.821 1.231-1.934 1.231-3.339v-1.524c0-1.202.334-2.137 1.004-2.806.668-.669 1.477-1.003 2.424-1.003.932 0 1.734.334 2.412 1.003s1.016 1.604 1.016 2.806v9.141h-3.047v-9.141c0-.508-.127-.762-.381-.762s-.381.254-.381.762v2.285c0 1.743-.707 3.322-2.121 4.736-1.413 1.414-3.118 2.121-5.116 2.121zm0-3.809c-.932 0-1.734-.334-2.412-1.003s-1.016-1.603-1.016-2.805v-9.141h3.047v9.141c0 .508.127.762.381.762s.381-.254.381-.762v-2.285c0-1.743.707-3.322 2.121-4.736 1.412-1.413 3.117-2.12 5.116-2.12 1.981 0 3.682.707 5.104 2.12s2.133 2.992 2.133 4.736v9.903h-3.047v-9.141c0-1.405-.414-2.518-1.244-3.339s-1.811-1.232-2.946-1.232c-1.15 0-2.137.41-2.959 1.232-.82.821-1.231 1.934-1.231 3.339v1.524c0 1.202-.334 2.137-1.004 2.806-.668.667-1.477 1.001-2.424 1.001z" fill="#002e82"/><path d="m6.856 57.133c-4.571 0-6.856-2.286-6.856-6.856v-9.141h3.047v9.141c0 2.539 1.27 3.809 3.809 3.809h8.379c2.539 0 3.809-1.27 3.809-3.809v-9.141h3.047v9.141c0 4.571-2.285 6.856-6.856 6.856zm3.809-3.809h-3.809c-2.031 0-3.047-1.016-3.047-3.047v-9.141h3.047v8.379c0 .508.254.762.762.762v-6.856h3.047zm.762 0v-9.903h3.047v6.856c.508 0 .762-.254.762-.762v-8.379h3.047v9.141c0 2.031-1.016 3.047-3.047 3.047z" fill="#002e82"/><path d="m6.856 39.612c-4.571 0-6.856-2.285-6.856-6.856v-9.141h3.047v9.141c0 2.539 1.27 3.809 3.809 3.809h8.379c2.539 0 3.809-1.27 3.809-3.809v-6.094h-8.379v5.332h-3.047v-8.379h14.474v9.141c0 4.571-2.285 6.856-6.856 6.856zm0-3.809c-2.031 0-3.047-1.016-3.047-3.047v-9.141h3.047v8.379c0 .508.254.762.762.762h6.856c.508 0 .762-.254.762-.762v-1.524h-.762v1.524h-3.047v-4.571h6.856v5.332c0 2.031-1.016 3.047-3.047 3.047h-8.38z" fill="#002e82"/><path d="m19.044 13.077v-9.014l-15.489 6.094c-.338.169-.508.508-.508 1.016 0 .423.17.762.508 1.016l18.536 6.856v3.047l-19.552-7.11c-1.693-.847-2.539-2.117-2.539-3.809 0-1.946.846-3.216 2.539-3.809l19.552-7.364v13.077zm-.762 0h-1.651l5.459 2.158v3.047l-17.773-6.602c-.338-.085-.508-.254-.508-.508s.17-.423.508-.508l13.966-5.332v7.745zm-6.602-1.904 3.555 1.397v-2.794z" fill="#002e82"/></svg>