<svg viewBox="0 0 176.331 439.301" xmlns="http://www.w3.org/2000/svg"><ellipse cx="89.104" cy="83.222" fill="#231f20" rx="83.222" ry="83.222" transform="matrix(.70709444 -.70711912 .70711912 .70709444 -32.750225 87.383915)"/><path d="m89.104 160.329 16.896-16.323h-8.253v-18.674h-17.286v18.674h-8.252zm54.523-22.584.405-23.489-5.836 5.836-13.204-13.205-12.223 12.223 13.204 13.205-5.835 5.835zm22.584-54.522-16.323-16.896v8.252h-18.674v17.287h18.674v8.252zm-22.584-54.523-23.488-.405 5.835 5.835-13.205 13.205 12.223 12.223 13.205-13.204 5.835 5.835zm-54.522-22.584-16.895 16.322h8.252v18.675h17.286v-18.674l8.252-.001zm-54.522 22.583-.406 23.489 5.835-5.835 13.205 13.205 12.224-12.223-13.205-13.205 5.835-5.835zm-22.585 54.522 16.322 16.896v-8.252h18.675v-17.286h-18.674v-8.252zm22.583 54.523 23.489.405-5.835-5.835 13.205-13.204-12.223-12.224-13.205 13.205-5.835-5.835z" fill="#38383a"/><path d="m88.166 166.433c-45.529-.504-82.284-37.562-82.284-83.21 0-45.648 36.754-82.706 82.284-83.21-.313-.005-.625-.013-.939-.013-45.962 0-83.222 37.26-83.222 83.222s37.26 83.222 83.222 83.222c.314 0 .626-.008.939-.011z" fill="#6d6e70"/><ellipse cx="89.04" cy="83.222" fill="#9e9e9b" rx="28.159" ry="28.159" transform="matrix(.2302026 -.97314272 .97314272 .2302026 -12.443397 150.721625)"/><circle cx="89.04" cy="83.222" fill="#565656" r="22.436"/><path d="m117.022 83.287c0-15.49-12.557-28.047-28.047-28.047s-28.047 12.557-28.047 28.047 12.557 28.047 28.047 28.047 28.047-12.557 28.047-28.047zm-54.584-.346c0-14.847 12.036-26.883 26.883-26.883s26.883 12.036 26.883 26.883-12.036 26.883-26.883 26.883-26.883-12.036-26.883-26.883z" fill="#c9c9c7"/><path d="m60.929 83.286c0 15.49 12.556 28.047 28.047 28.047 15.49 0 28.047-12.557 28.047-28.047s-12.557-28.047-28.047-28.047c-15.491.001-28.047 12.558-28.047 28.047zm54.583.346c0 14.847-12.036 26.883-26.883 26.883s-26.883-12.036-26.883-26.883c0-14.846 12.036-26.883 26.883-26.883 14.847.001 26.883 12.037 26.883 26.883z" fill="#9a9a9b"/><circle cx="110.354" cy="83.636" fill="#f7e555" r="38.358"/><circle cx="143.166" cy="321.85" fill="#f7e555" r="33.166"/><circle cx="143.166" cy="321.85" fill="#e0d04d" r="26.533"/><circle cx="113.166" cy="237.564" fill="#f7e555" r="33.166"/><circle cx="113.166" cy="237.564" fill="#e0d04d" r="26.533"/><circle cx="113.166" cy="406.135" fill="#f7e555" r="33.166"/><circle cx="113.166" cy="406.135" fill="#e0d04d" r="26.533"/><circle cx="63.166" cy="321.85" fill="#f7e555" r="33.166"/><circle cx="63.166" cy="321.85" fill="#e0d04d" r="26.533"/><circle cx="33.166" cy="237.564" fill="#f7e555" r="33.166"/><circle cx="33.166" cy="237.564" fill="#e0d04d" r="26.533"/><circle cx="33.166" cy="406.135" fill="#f7e555" r="33.166"/><circle cx="33.166" cy="406.135" fill="#e0d04d" r="26.533"/></svg>