<svg viewBox="0 0 30 30" xmlns="http://www.w3.org/2000/svg"><g fill="#9dff48"><path d="m21.79 8.316h2.737v2.737h-2.737z"/><path d="m28.316 19.158h-1.158v-2.737h-2.632v-2.737h-2.737v-2.737h-2.737v2.737h-8.105v-2.737h-2.736v2.737h-2.737v2.737h-2.737v2.632l-2.737.105v8.105h2.737v-5.368h2.737v5.474h2.737v-2.737h13.579v2.737h2.737v-5.474h2.737v5.368h2.736v-8.105z"/><path d="m16.316 27.263v2.737h5.474v-2.737zm-10.737-18.947h2.737v2.737h-2.737zm5.368 18.947h-2.736v2.737h5.474v-2.737z"/></g><path d="m19.053 16.421h2.737v2.737h-2.737zm-10.842 0h2.737v2.737h-2.737z" fill="#24396d"/></svg>