<?xml version="1.0" encoding="utf-8"?>
<!-- Generator: Adobe Illustrator 22.0.0, SVG Export Plug-In . SVG Version: 6.00 Build 0)  -->
<svg version="1.1" id="Capa_1" xmlns="http://www.w3.org/2000/svg" xmlns:xlink="http://www.w3.org/1999/xlink" x="0px" y="0px"
	 viewBox="0 0 30 30" style="enable-background:new 0 0 30 30;" xml:space="preserve">
<g>
	<path style="fill:#57555C;" d="M15,0C6.756,0,0,6.756,0,15s6.756,15,15,15s15-6.756,15-15S23.244,0,15,0z"/>
	<path style="fill:#3C3A41;" d="M30,15c0,8.244-6.756,15-15,15V0C23.244,0,30,6.756,30,15z"/>
	<path style="fill:#FEDB41;" d="M15,1.816C7.723,1.816,1.816,7.723,1.816,15S7.723,28.242,15,28.242S28.184,22.277,28.184,15
		S22.277,1.816,15,1.816z"/>
	<path style="fill:#FCBF29;" d="M28.184,15c0,7.277-5.906,13.242-13.184,13.242V1.816C22.277,1.816,28.184,7.723,28.184,15z"/>
	<path style="fill:#57555C;" d="M21.223,5.42C19.359,4.207,17.18,3.609,15,3.609S10.641,4.207,8.777,5.42
		C8.355,5.701,8.232,6.281,8.549,6.685l3.182,4.236c0.264,0.352,0.738,0.457,1.125,0.246c0.65-0.369,1.406-0.563,2.144-0.563
		s1.494,0.193,2.144,0.563c0.387,0.211,0.861,0.105,1.125-0.246l3.182-4.236C21.768,6.281,21.645,5.701,21.223,5.42z"/>
	<path style="fill:#3C3A41;" d="M18.971,24.745l-2.081-4.871c-0.173-0.404-0.02-0.874,0.357-1.1
		c1.323-0.791,2.125-2.179,2.146-3.714c0.006-0.44,0.336-0.808,0.774-0.861l5.26-0.633c0.504-0.061,0.956,0.319,0.983,0.828
		c0.233,4.533-2.181,8.721-6.23,10.788C19.728,25.412,19.174,25.218,18.971,24.745z"/>
	<g>
		<path style="fill:#57555C;" d="M9.82,25.183c-4.042-2.063-6.464-6.247-6.23-10.788c0.027-0.506,0.472-0.886,0.983-0.828
			l5.26,0.633c0.438,0.053,0.768,0.421,0.774,0.861c0.021,1.535,0.823,2.923,2.146,3.714c0.377,0.226,0.53,0.695,0.357,1.1
			l-2.081,4.871C10.826,25.218,10.272,25.412,9.82,25.183z"/>
		<path style="fill:#57555C;" d="M15,12.363c-1.459,0-2.637,1.178-2.637,2.637c0,1.459,1.178,2.637,2.637,2.637
			s2.637-1.178,2.637-2.637C17.637,13.541,16.459,12.363,15,12.363z"/>
	</g>
	<g>
		<path style="fill:#3C3A41;" d="M17.637,15c0,1.459-1.178,2.637-2.637,2.637v-5.273C16.459,12.363,17.637,13.541,17.637,15z"/>
		<path style="fill:#3C3A41;" d="M21.451,6.685l-3.182,4.236c-0.264,0.352-0.738,0.457-1.125,0.246
			c-0.65-0.369-1.406-0.563-2.144-0.563V3.609c2.18,0,4.359,0.598,6.223,1.811C21.645,5.701,21.768,6.281,21.451,6.685z"/>
	</g>
</g>
</svg>
