<svg enable-background="new 0 0 3881.439 1674.879" viewBox="0 0 3881.439 1674.879" xmlns="http://www.w3.org/2000/svg"><path d="m1940.54 416.078v-53.991-169.278-45.664h-590.077c-428.626 0-776.096 58.338-776.096 130.302s347.47 130.302 776.096 130.302v8.328h590.077z" fill="#b00a25"/><path d="m1310.477 147.315v134.296h31.128v-134.456c-10.426.02-20.805.073-31.128.16z" fill="#93161a"/><path d="m1940.899 416.078v-53.991-169.278-45.664h590.077.001c428.625 0 776.096 58.338 776.096 130.302s-347.471 130.302-776.096 130.302h-.001v8.328h-590.077z" fill="#b00a25"/><path d="m2570.962 147.315v134.296h-31.127v-134.456c10.426.02 20.805.073 31.127.16z" fill="#93161a"/><path d="m2209.688 28c-6.008-19.25-19.716-28-35.39-28h-233.399-.359-233.399c-15.675 0-29.382 8.75-35.39 28l-25.621 106c0 15.656 45.336 25 61.011 25h233.399.359 233.399c15.674 0 61.011-9.344 61.011-25z" fill="#282821"/><path d="m1940.54 102.721h-558.056v209.835h558.056 558.415v-209.835z" fill="#93161a"/><path d="m2327.533 59h-386.993-386.647c-7.828 0-14.173 6.346-14.173 14.173v171.653c0 7.828 6.346 14.173 14.173 14.173h386.647 386.993c7.835 0 14.187-6.346 14.187-14.173v-171.653c0-7.827-6.352-14.173-14.187-14.173z" fill="#3b3a35"/><path d="m1988.386 179.665c-7.916 0-14.333-6.417-14.333-14.333v-115.321c0-15.655-12.691-28.346-28.347-28.346h-4.807-4.811c-15.67 0-28.372 12.691-28.372 28.346v115.32c0 7.916-6.423 14.333-14.346 14.333h-353.65v19.974h401.18 400.82v-19.974h-353.334z" fill="#585854"/><path d="m1694.838 172.149c0-8.879-12.553-18.149-20.172-18.149h-75.439-75.439c-7.619 0-20.172 9.27-20.172 18.149l-13.896 41.773c0 8.879 6.177 16.077 13.796 16.077h95.711 95.711c7.62 0 13.797-7.198 13.797-16.077z" fill="#b00a25"/><path d="m2186.601 172.149c0-8.879 12.553-18.149 20.172-18.149h75.439 75.439c7.619 0 20.172 9.27 20.172 18.149l13.896 41.773c0 8.879-6.177 16.077-13.797 16.077h-95.711-95.711c-7.62 0-13.797-7.198-13.797-16.077z" fill="#b00a25"/><path d="m1404.837 283.567c0 7.828-6.346 14.173-14.173 14.173h-34.887c-7.828 0-14.173-6.346-14.173-14.173v-184.674c0-7.828 6.345-14.173 14.173-14.173h34.887c7.828 0 14.173 6.346 14.173 14.173z" fill="#b00a25"/><path d="m2476.603 283.567c0 7.828 6.346 14.173 14.173 14.173h34.887c7.827 0 14.173-6.346 14.173-14.173v-184.674c0-7.828-6.346-14.173-14.173-14.173h-34.887c-7.827 0-14.173 6.346-14.173 14.173z" fill="#b00a25"/><path d="m1942.181 199.639h-565.96c-8.009 0-14.502 6.345-14.502 14.173l-21.999 59.8c0 7.828 5.292 16.129 13.301 16.129h589.16z" fill="#93161a"/><path d="m1940.899 199.639h564.419c7.987 0 14.462 6.345 14.462 14.173l21.939 59.8c0 7.828-5.277 16.129-13.266 16.129h-587.555v-90.102z" fill="#93161a"/><path d="m2508.206 221.812c0-7.828-6.35-14.173-14.182-14.173h-551.844-1.641-553.047c-7.849 0-14.212 6.345-14.212 14.173l-21.561 59.8c0 7.828 5.187 16.129 13.036 16.129h575.784 1.641 574.531c7.833 0 13.008-8.302 13.008-16.129z" fill="#b00a25"/><path clip-rule="evenodd" d="m1940.72 1287v-60-334h-1521v22h-157v362l13.072 10z" fill="#282821" fill-rule="evenodd"/><path clip-rule="evenodd" d="m1940.72 1287v-60-334h1521v22h157v362l-13.073 10z" fill="#282821" fill-rule="evenodd"/><path d="m1940.72 1287h-1664.928l148.524 113.612c7.603 6.734 23.843 11.388 42.653 11.388h1473.75 1473.75c18.811 0 35.051-4.653 42.653-11.388l148.525-113.612z" fill="#1e1e18"/><path clip-rule="evenodd" d="m3461.72 916.229v-23.229h-1521-1521v23.229h-157v382.212l13.072 10.559h1664.928 1664.927l13.073-10.559v-382.212z" fill="#282821" fill-rule="evenodd"/><path d="m1940.72 1381.28h-954.276l26.868 266.852c4.65 15.817 14.582 26.747 26.086 26.747h901.321 901.32c11.505 0 21.438-10.93 26.087-26.747l26.868-266.852z" fill="#1e1e18"/><path d="m1940.72 275h-1542.667v618h1542.667 1542.666v-618z" fill="#93161a"/><path d="m3248.626 665c-4.148 0-7.8-2.12-9.938-5.333h-.111c-.043-.134-.088-.267-.131-.4-.93-1.522-1.531-3.263-1.695-5.133-71.945-214.235-274.365-368.572-512.836-368.572h-783.195-783.195c-238.471 0-440.891 154.337-512.836 368.572-.165 1.871-.767 3.611-1.695 5.133-.043.134-.088.267-.132.4h-.111c-2.137 3.213-5.788 5.333-9.937 5.333s-34.761-5.333-34.761-5.333v233.333h1342.667 1342.666v-233.333s-30.612 5.333-34.76 5.333z" fill="#bf0811"/><path d="m598.053 893v211.754s30.612-5.334 34.761-5.334c4.148 0 7.799 2.121 9.937 5.334h.111c.043.134.088.267.132.4.929 1.521 1.53 3.263 1.695 5.133 71.944 214.234 274.364 368.572 512.836 368.572h783.195v-585.859z" fill="#282821"/><path d="m3283.386 893v211.754s-30.611-5.334-34.76-5.334-7.8 2.121-9.938 5.334h-.111c-.043.134-.088.267-.131.4-.93 1.521-1.531 3.263-1.695 5.133-71.945 214.234-274.365 368.572-512.836 368.572h-783.195v-585.859z" fill="#282821"/><path d="m2724.259 316.078h-783.539-783.539c-278.606 0-504.461 225.855-504.461 504.462v126.65c0 278.606 225.855 504.461 504.461 504.461h783.539 783.539c278.605 0 504.461-225.854 504.461-504.461v-126.651c0-278.606-225.856-504.461-504.461-504.461z" fill="#16160f"/><path d="m2985.005 467.974h-1042.875-1.231-1044.361l-72.11 109.545v803.761h1116.471 1.231 1114.881v-803.761z" fill="#3b3a35"/><path d="m1983.759 870h-43.039-43.04c-14.44 0-26.147 12.691-26.147 28.347v259.236c0 15.655 11.706 28.347 26.147 28.347h43.04 43.039c14.441 0 26.147-12.691 26.147-28.347v-259.236c0-15.656-11.706-28.347-26.147-28.347z" fill="#1e1e18"/><path d="m2202.611 1359.313-8.521-54.777-13.292-85.452h-.307c-46.637-55.676-136.469-93.473-239.771-93.814-103.303.342-193.135 38.139-239.772 93.814h-.307l-13.292 85.452-8.521 54.777-9.685 62.26 25.366 199.49c0 6.884 4.13 13.248 11.121 18.443 2.416 2.997 8.304 5.862 17.143 8.531 2.94.967 103.279 18.358 217.447 18.358.167 0 .333-.001.499-.001s.332.001.499.001c114.168 0 214.508-17.392 217.447-18.358 8.839-2.669 14.727-5.534 17.143-8.531 6.991-5.195 11.121-11.56 11.121-18.443l25.366-199.49z" fill="#282821"/><path d="m1404.837 332.782c-2 2-110.995 0-223.489.347-104.076.32-238.628 25.871-342.628 127.871s-144.847 182.611-167.059 333c-22.528 152.525 6.324 225.983 22.17 335.983 16.332 113.372 98.167 297.104 126.273 335.924 28.105 38.82 106.616-132.907 106.616-132.907s-124-180-126-278-18.267-170.359 52-313c100-203 220-265 260-285s214 2 224 2 68.117-126.218 68.117-126.218z" fill="#1e1e18"/><path d="m2476.603 332.782c2 2 110.994 0 223.488.347 104.076.32 238.629 25.871 342.629 127.871s144.847 182.611 167.059 333c22.528 152.525-6.323 225.983-22.17 335.983-16.332 113.372-98.168 297.104-126.273 335.924s-106.616-132.907-106.616-132.907 124-180 126-278 18.267-170.359-52-313c-100-203-220-265-260-285s-214 2-224 2-68.117-126.218-68.117-126.218z" fill="#1e1e18"/><path d="m2922.72 467c-110-118-370-140-494-150s-323.666-6-323.666-6l-163.517 1.55-165.151-1.55s-199.666-4-323.666 6-384 32-494 150-222 346-216 580 12 352 100 446 214 82 238 100 536-10 536-10 44.966-3.063 48-52c9.281-149.72 16.749-197.728-8-223-12-11-21.794-7.961-60-8.683-182.363-3.444-296 13.683-456-14.317-141.913-24.835-187.351-55.01-228-90-60.06-51.699-57.869-40.85-72-78-17.857-46.946 2-160 2-160s24-198 104-318c76.105-114.158 124.644-162.357 206-166 268-12 670.666-.334 670.666-.334 3.019.593 114.001.001 117.334 1.001 3.333-1 114.314-.408 117.334-1.001 0 0 402.666-11.666 670.666.334 81.355 3.643 129.895 51.842 206 166 80 120 104 318 104 318s19.857 113.054 2 160c-14.131 37.15-11.939 26.301-72 78-40.648 34.99-86.088 65.165-228 90-160 28-273.637 10.873-456 14.317-38.207.722-48-2.317-60 8.683-24.75 25.272-17.281 73.28-8 223 3.033 48.937 48 52 48 52s512 28 536 10 150-6 238-100 94-212 100-446-106-462-216-580z" fill="#282821"/><path d="m1853.531 1024.612c0 23.483-19.037 42.52-42.519 42.52h-614.031c-23.483 0-42.519-19.037-42.519-42.52v-324.316c0-23.483 19.036-42.519 42.519-42.519h614.031c23.483 0 42.519 19.037 42.519 42.519z" fill="#5a4438"/><path d="m2027.908 1024.612c0 23.483 19.036 42.52 42.52 42.52h614.03c23.483 0 42.52-19.037 42.52-42.52v-324.316c0-23.483-19.036-42.519-42.52-42.519h-614.03c-23.484 0-42.52 19.037-42.52 42.519z" fill="#5a4438"/><path d="m99.839 847.284.008-.071-.01-.001c-.103-8.939-6.831-16.617-15.944-17.657-3.576-.408-7.02.273-10.02 1.762l-.001-.009-.065.04c-.843.423-50.665 30.784-50.665 30.784l-.003.021c-4.147 2.468-7.144 6.761-7.733 11.927l-15.301 134.13c-.589 5.166 1.364 10.023 4.849 13.362l-.002.021s41.704 40.803 42.43 41.404l.055.053.003-.008c2.588 2.126 5.79 3.565 9.365 3.974 9.114 1.039 17.398-4.927 19.512-13.613l.01.001.008-.071c.168-.708 23.51-205.323 23.504-206.049z" fill="#282821"/><path d="m3781.601 847.284-.008-.071.01-.001c.104-8.939 6.83-16.617 15.943-17.657 3.576-.408 7.021.273 10.021 1.762l.001-.009.066.04c.843.423 50.664 30.784 50.664 30.784l.004.021c4.146 2.468 7.143 6.761 7.732 11.927l15.301 134.13c.59 5.166-1.363 10.023-4.848 13.362l.002.021s-41.704 40.803-42.431 41.404l-.056.053-.003-.008c-2.588 2.126-5.79 3.565-9.365 3.974-9.114 1.039-17.397-4.927-19.512-13.613l-.011.001-.008-.071c-.166-.708-23.508-205.323-23.502-206.049z" fill="#282821"/><path d="m112.791 810.112c-12.524-1.429-23.835 7.565-25.264 20.09l-27.382 240.036c-1.428 12.524 7.566 23.834 20.09 25.264 12.525 1.428 23.835-7.566 25.265-20.09l27.382-240.035c1.429-12.525-7.566-23.836-20.091-25.265z" fill="#1e1e18"/><path d="m3768.647 810.112c12.525-1.429 23.836 7.565 25.265 20.09l27.382 240.036c1.428 12.524-7.566 23.834-20.09 25.264-12.525 1.428-23.836-7.566-25.266-20.09l-27.381-240.035c-1.429-12.525 7.566-23.836 20.09-25.265z" fill="#1e1e18"/><path d="m200.306 510.686 410.136 46.469-29.722-240.155c0-23.196-18.804-42-42-42h-229.667c-44.522 0-81.535 32.149-89.09 74.5v.001c-.572 3.207-.969 6.475-1.194 9.789z" fill="#b00a25"/><path d="m3681.134 510.686-410.137 46.469 29.723-240.155c0-23.196 18.805-42 42-42h229.666c44.522 0 81.535 32.149 89.09 74.5v.001c.572 3.207.97 6.475 1.194 9.789z" fill="#b00a25"/><path d="m649.72 880-545.667 13-30.667 280 10.667 76c0 41.974 34.026 76 76 76h298 82.667c28.493 0 51.945-21.537 54.99-49.22l.006-.002z" fill="#282821"/><path d="m644.264 880-51.548 377.778-.006.002c-3.044 27.683-26.497 49.22-54.99 49.22h-82.667-298c-34.526 0-63.656-23.03-72.913-54.562 1.799 40.377 35.093 72.562 75.913 72.562h298 82.667c28.493 0 51.945-21.537 54.99-49.22l.006-.002 54.004-395.778z" fill="#1e1e18"/><path d="m3231.72 880 545.666 13 30.667 280-10.667 76c0 41.974-34.026 76-76 76h-298-82.666c-28.492 0-51.945-21.537-54.99-49.22l-.006-.002z" fill="#282821"/><path d="m3237.176 880 51.548 377.778.006.002c3.045 27.683 26.498 49.22 54.99 49.22h82.666 298c34.526 0 63.656-23.03 72.913-54.562-1.799 40.377-35.093 72.562-75.913 72.562h-298-82.666c-28.492 0-51.945-21.537-54.99-49.22l-.006-.002-54.004-395.778z" fill="#1e1e18"/><path clip-rule="evenodd" d="m649.352 876.977-40.632-333.977c0-21.539-17.461-39-39-39h-185l13.333 389h238.667c7.18 0 13-5.82 13-13 0-1.043-.136-2.052-.368-3.023z" fill="#b00a25" fill-rule="evenodd"/><path clip-rule="evenodd" d="m649.352 876.977-40.632-333.977c0-21.539-17.461-39-39-39h-185l.994 29h178.006c21.539 0 39 17.461 39 39l38.935 320.024c4.731-1.944 8.065-6.593 8.065-12.024 0-1.043-.136-2.052-.368-3.023z" fill="#93161a" fill-rule="evenodd"/><path clip-rule="evenodd" d="m3232.087 876.977 40.633-333.977c0-21.539 17.461-39 39-39h185l-13.334 389h-238.666c-7.18 0-13-5.82-13-13 0-1.043.135-2.052.367-3.023z" fill="#b00a25" fill-rule="evenodd"/><path clip-rule="evenodd" d="m3232.087 876.977 40.633-333.977c0-21.539 17.461-39 39-39h185l-.994 29h-178.006c-21.539 0-39 17.461-39 39l-38.936 320.024c-4.73-1.944-8.064-6.593-8.064-12.024 0-1.043.135-2.052.367-3.023z" fill="#93161a" fill-rule="evenodd"/><path d="m384.72 504-193 6.998c-24.117 0-43.667 19.55-43.667 43.667l-44 338.335h72 222z" fill="#31312b"/><path d="m148.053 582.665c0-24.117 19.55-43.667 43.667-43.667l193-6.998 12.374 361h.96l-13.334-389-193 6.998c-24.117 0-43.667 19.55-43.667 43.667l-44 338.335h3.641z" fill="#282821"/><path d="m3496.72 504 193 6.998c24.117 0 43.667 19.55 43.667 43.667l43.999 338.335h-72-222z" fill="#31312b"/><path d="m3733.387 582.665c0-24.117-19.55-43.667-43.667-43.667l-193-6.998-12.374 361h-.96l13.334-389 193 6.998c24.117 0 43.667 19.55 43.667 43.667l43.999 338.335h-3.641z" fill="#282821"/><g fill="#1e1e18"><path d="m371.797 504.469 12.054 387.808-38.538 288.55h-270.828l1.99 14.173h281.245l40.333-302-12.09-389h-1.243z"/><path d="m3509.642 504.469-12.053 387.808 38.537 288.55h270.828l-1.989 14.173h-281.245l-40.334-302 12.091-389h1.243z"/><path d="m284.72 718h-157.909l-4.162 32h162.07c8.836 0 16-7.164 16-16s-7.163-16-15.999-16z"/><path d="m284.72 777h-165.581l-4.162 32h169.743c8.836 0 16-7.164 16-16s-7.164-16-16-16z"/><path d="m284.72 838h-173.514l-4.162 32h177.676c8.836 0 16-7.164 16-16s-7.164-16-16-16z"/><path d="m284.72 899h-181.324l-3.504 32h184.828c8.836 0 16-7.164 16-16s-7.164-16-16-16z"/><path d="m284.72 957h-187.676l-3.505 32h191.181c8.836 0 16-7.164 16-16s-7.164-16-16-16z"/><path d="m284.72 1015h-194.029l-3.505 32h197.534c8.836 0 16-7.164 16-16s-7.164-16-16-16z"/><path d="m3596.72 718h157.908l4.162 32h-162.07c-8.836 0-16-7.164-16-16s7.164-16 16-16z"/><path d="m3596.72 777h165.581l4.161 32h-169.742c-8.836 0-16-7.164-16-16s7.164-16 16-16z"/><path d="m3596.72 838h173.514l4.162 32h-177.676c-8.836 0-16-7.164-16-16s7.164-16 16-16z"/><path d="m3596.72 899h181.324l3.504 32h-184.828c-8.836 0-16-7.164-16-16s7.164-16 16-16z"/><path d="m3596.72 957h187.676l3.505 32h-191.181c-8.836 0-16-7.164-16-16s7.164-16 16-16z"/><path d="m3596.72 1015h194.028l3.505 32h-197.533c-8.836 0-16-7.164-16-16s7.164-16 16-16z"/></g><path d="m2127.972 1240.666c0-46.575-83.78-84.333-187.129-84.333s-187.129 37.758-187.129 84.333l-60.216 372.436 1.012 7.962c0 6.884 4.13 13.248 11.121 18.443 2.416 2.997 8.304 5.862 17.143 8.531 2.94.967 103.279 18.358 217.447 18.358.167 0 .333-.001.499-.001s.332.001.499.001c114.168 0 214.508-17.392 217.447-18.358 8.839-2.669 14.727-5.534 17.143-8.531 6.931-5.15 11.043-11.449 11.114-18.264z" fill="#3b3a35"/><path d="m1784.061 513.128c-25.991 0-54.928 22.453-54.928 52.743s26.354 52.742 54.928 52.742h318.729c30.288 2.187 54.931-22.452 54.931-52.742s-25.402-52.743-54.931-52.743z" fill="#282821"/><path d="m1784.061 526.253c-20.335-1.087-41.803 16.53-41.803 39.619s17.552 39.489 41.803 39.618h318.729c24.575.334 41.806-16.529 41.806-39.618 0-23.088-20.688-41.396-41.806-39.619z" fill="#3b3a35"/><path d="m1831.656 558.392h15.134v33.298h-15.134z" fill="#282821"/><path d="m1880.731 556.879s-6.282.313-11.024 5.055v-3.542h-15.137v33.298h15.137v-21.62c1.728-6.055 6.702-5.84 6.702-5.84 7.997 0 7.567 7.786 7.567 7.786v19.674h14.486v-20.11s-.864-14.701-17.731-14.701z" fill="#282821"/><path d="m2002.892 556.879s-6.281.313-11.024 5.055v-3.542h-15.138v33.298h15.138v-21.62c1.729-6.055 6.698-5.84 6.698-5.84 8.001 0 7.57 7.786 7.57 7.786v19.674h14.486v-20.11c.001 0-.863-14.701-17.73-14.701z" fill="#282821"/><path d="m1831.656 542.286h15.134v10.052h-15.134z" fill="#282821"/><path d="m1929.598 554.935h-7.567v-7.786h-15.138v7.786h-6.268v4.322h6.268v32.433h15.138v-32.433h7.567z" fill="#282821"/><path d="m2095.324 556.985c-11.703 0-21.188 8.228-21.188 18.38 0 10.151 9.485 18.376 21.188 18.376 11.701 0 21.192-8.226 21.192-18.376.001-10.152-9.491-18.38-21.192-18.38z" fill="#282821"/><path d="m2095.324 560.881c-3.209 0-5.837 2.95-5.837 6.563v15.845c0 3.61 2.628 6.563 5.837 6.563 3.213 0 5.838-2.952 5.838-6.563v-15.845c0-3.613-2.625-6.563-5.838-6.563z" fill="#3b3a35"/><path d="m2053.7 542.391v17c-2.174-1.186-4.525-1.86-6.811-1.86-11.354 0-20.555 7.985-20.555 17.834s9.201 17.833 20.555 17.833c2.146 0 4.539-.852 6.811-2.32v.812h15.137v-49.3h-15.137z" fill="#282821"/><path d="m2047.779 562.284c-3.112 0-5.664 2.689-5.664 5.978v14.427c0 3.286 2.552 5.974 5.664 5.974 3.114 0 5.666-2.688 5.666-5.974v-14.432c0-3.284-2.551-5.973-5.666-5.973z" fill="#3b3a35"/><path d="m1957.177 581.961c0 5.404-2.751 7.89-6.121 7.89-3.367 0-6.122-2.952-6.122-6.563v-7.383h28.308c.004-.18-1.268-18.92-22.186-18.92-12.271 0-22.214 8.228-22.214 18.38 0 10.151 9.944 18.376 22.214 18.376 9.453 0 17.51-4.893 20.719-11.781h-14.598z" fill="#282821"/><path d="m1957.177 570.717v-3.274c0-3.612-2.751-6.563-6.121-6.563-3.367 0-6.122 2.95-6.122 6.563v3.274z" fill="#3b3a35"/><path d="m1771.546 542.286v49.188h13.621v-34.38l21.839 34.596h15.568v-49.404h-15.137v34.485l-21.623-34.485z" fill="#282821"/></svg>