<svg enable-background="new 0 0 1146.747 748.515" viewBox="0 0 1146.747 748.515" xmlns="http://www.w3.org/2000/svg" xmlns:xlink="http://www.w3.org/1999/xlink"><clipPath id="a"><path d="m702.934 484.608h94.371v94.373h-94.371z"/></clipPath><clipPath id="b"><path d="m482.823 483.363h96.384v96.383h-96.384z"/></clipPath><path d="m555.903 495.494h-.017-22.389-.029l-130.571 2.158 6.772 40.657h.134c.506 2.002 2.489 3.5 4.868 3.5h259.996c2.378 0 4.359-1.498 4.866-3.5h.134l6.77-40.657z" fill="#20201a"/><path d="m936.667 571.309c-8-67-13-80-31-141.72s-42-60.28-31-95.28 11-27 21-51 10-49 10-49l-55-48h-306-306l-55 48s0 25 10 49 10 16 21 51-13 33.56-31 95.28-23 74.72-31 141.72 0 83 5 130 97.681 74.523 113 6c15.198-67.981 15.55-77.402 22-129 8-64 10-110.898 25-165 6.004-21.656 20-18 20-18s90 12 193 14c4.937.096 9.595.183 14 .261 4.404-.078 9.063-.165 14-.261 103-2 193-14 193-14s13.996-3.656 20 18c15 54.102 17 101 25 165 6.449 51.598 6.803 61.019 22 129 15.318 68.523 108 41 113-6s13-63 5-130z" fill="#20201a"/><path d="m674.667 187.309h-129.945-130.046c-6.632 0-12.009 5.373-12.009 12v296c0 6.627 5.377 12 12.009 12h130.045 129.945c6.627 0 12-5.373 12-12v-296c.001-6.627-5.372-12-11.999-12z" fill="#292922"/><path d="m662.667 199.309h-118-118c-6.627 0-12 5.373-12 12v216c0 6.627 5.373 12 12 12h118 118c6.627 0 12-5.373 12-12v-216c0-6.627-5.373-12-12-12z" fill="#31302a"/><path d="m360.667 132.309 133 86s40 28 27 79-75.678 65.773-123 54c-44.214-11-155-39-155-39s-85-32.28-51-130 143-68.74 169-50z" fill="#292922"/><path d="m728.667 132.309-133 86s-40 28-27 79 75.678 65.773 123 54c44.215-11 155-39 155-39s85-32.28 51-130-143-68.74-169-50z" fill="#292922"/><circle cx="799.042" cy="215.934" fill="none" r="41.5" stroke="#20201a" stroke-miterlimit="10" stroke-width="2.2677"/><circle cx="294.167" cy="215.934" fill="none" r="41.5" stroke="#20201a" stroke-miterlimit="10" stroke-width="2.2677"/><path d="m841.872 197.934h-24.83v-24.831c0-3.131-2.538-5.669-5.669-5.669h-24.662c-3.131 0-5.669 2.538-5.669 5.669v24.831h-24.83c-3.132 0-5.67 2.538-5.67 5.669v24.662c0 3.131 2.538 5.669 5.67 5.669h24.83v24.831c0 3.131 2.538 5.669 5.669 5.669h24.662c3.131 0 5.669-2.538 5.669-5.669v-24.831h24.83c3.132 0 5.67-2.538 5.67-5.669v-24.662c0-3.131-2.538-5.669-5.67-5.669z" fill="#20201a" stroke="#1e1e18" stroke-miterlimit="10" stroke-width="2.8347"/><path d="m336.997 197.934h-24.83v-24.831c0-3.131-2.538-5.669-5.669-5.669h-24.662c-3.131 0-5.669 2.538-5.669 5.669v24.831h-24.83c-3.132 0-5.67 2.538-5.67 5.669v24.662c0 3.131 2.538 5.669 5.67 5.669h24.83v24.831c0 3.131 2.538 5.669 5.669 5.669h24.662c3.131 0 5.669-2.538 5.669-5.669v-24.831h24.83c3.132 0 5.67-2.538 5.67-5.669v-24.662c0-3.131-2.538-5.669-5.67-5.669z" fill="#20201a" stroke="#1e1e18" stroke-miterlimit="10" stroke-width="2.8347"/><circle cx="799.042" cy="215.934" fill="#1b1b14" r="9"/><circle cx="294.167" cy="215.934" fill="#1b1b14" r="9"/><circle cx="703.167" cy="257.434" fill="#bf0811" r="23.5" stroke="#1e1e18" stroke-miterlimit="10" stroke-width="2.8347"/><circle cx="643.167" cy="281.934" fill="#bf0811" r="23.5" stroke="#1e1e18" stroke-miterlimit="10" stroke-width="2.8347"/><circle cx="390.042" cy="257.434" fill="#727176" r="23.5" stroke="#1e1e18" stroke-miterlimit="10" stroke-width="2.8347"/><circle cx="450.042" cy="281.934" fill="#87868a" r="23.5" stroke="#1e1e18" stroke-miterlimit="10" stroke-width="2.8347"/><path d="m592.112 204.934c2.485 0 4.5 2.015 4.5 4.5 0 1.711-.966 3.181-2.372 3.942l.036.004-23.387 14.263h-21.223v-13.708-9h42.446z" fill="#727176"/><path d="m581.612 209.434c0-2.485-2.015-4.5-4.5-4.5h-32.5-9.945-32.5c-2.485 0-4.5 2.015-4.5 4.5 0 1.711.966 3.181 2.372 3.942l-.037.004 23.387 14.263h11.277 9.945 11.278l23.387-14.263-.036-.004c1.407-.76 2.372-2.231 2.372-3.942z" fill="#9a999e"/><path d="m531.89 226.642c0 .783-.635 1.418-1.417 1.418h-3.665c-.783 0-1.417-.635-1.417-1.418v-21.165c0-.783.635-1.417 1.417-1.417h3.665c.783 0 1.417.635 1.417 1.417z" fill="#87868a"/><path d="m543.14 226.642c0 .783-.635 1.418-1.417 1.418h-3.665c-.783 0-1.417-.635-1.417-1.418v-21.165c0-.783.635-1.417 1.417-1.417h3.665c.783 0 1.417.635 1.417 1.417z" fill="#87868a"/><path d="m553.89 226.642c0 .783-.635 1.418-1.418 1.418h-3.664c-.783 0-1.418-.635-1.418-1.418v-21.165c0-.783.635-1.417 1.418-1.417h3.664c.783 0 1.418.635 1.418 1.417z" fill="#87868a"/><path d="m389.19 213.183-4.665-2.033c-.212-.092-.417-.079-.614.039s-.346.293-.446.525c-.099.227-.125.448-.078.662.048.214.182.369.402.464l2.745 1.197c.742.323 1.196.879 1.365 1.666.155.716.062 1.465-.279 2.247-.343.787-.825 1.366-1.449 1.736-.692.413-1.411.457-2.156.132l-5-2.179.876-2.011 4.684 2.041c.198.086.4.063.607-.068.185-.119.328-.297.432-.534.1-.228.129-.449.09-.663-.04-.214-.166-.367-.377-.459l-2.752-1.199c-.746-.325-1.206-.88-1.382-1.665-.162-.711-.073-1.456.266-2.232.338-.776.82-1.347 1.444-1.71.701-.408 1.424-.45 2.17-.125l4.988 2.174z" fill="#9a999e"/><path d="m394.44 224.303-4.988-2.174c-.746-.325-1.208-.881-1.389-1.668-.161-.712-.072-1.458.267-2.235.148-.34.333-.648.555-.926.221-.278.471-.51.753-.698-.052-.316-.051-.655.002-1.019.054-.364.151-.709.293-1.035.338-.776.823-1.347 1.455-1.714.7-.408 1.423-.45 2.169-.124l4.988 2.174-.87 1.997-4.665-2.033c-.212-.092-.417-.079-.614.039-.197.119-.347.294-.447.525-.099.227-.124.448-.077.662.048.214.182.369.402.464l4.665 2.033-.867 1.99-.024.056-4.931-2.148c-.161.007-.313.067-.449.182-.137.115-.245.263-.324.445-.1.228-.125.449-.077.664.047.215.181.37.401.466l4.665 2.033z" fill="#9a999e"/><path d="m402.902 228.05-3.496-1.523c-1.104-.48-1.85-1.165-2.242-2.056-.303-.691-.383-1.488-.242-2.39.093-.59.277-1.199.551-1.827.051-.116.093-.209.128-.276.035-.068.067-.126.099-.173l1.937-4.444 1.944.847-1.936 4.444c-.349.8-.486 1.542-.416 2.226.082.788.44 1.32 1.073 1.597l3.496 1.523z" fill="#9a999e"/><path d="m411.408 231.698-4.988-2.174c-.746-.325-1.208-.881-1.389-1.668-.161-.712-.072-1.457.267-2.235.148-.339.333-.648.554-.926.222-.278.472-.51.754-.698-.052-.315-.051-.655.002-1.019.054-.364.151-.708.293-1.034.338-.776.823-1.348 1.455-1.715.7-.408 1.423-.449 2.169-.124l4.988 2.174-.87 1.997-4.665-2.032c-.212-.093-.417-.079-.614.038-.197.119-.347.293-.447.525-.099.227-.124.448-.077.662.048.214.182.369.402.465l4.665 2.033-.867 1.99-.024.056-4.931-2.148c-.161.007-.313.067-.449.182-.137.115-.245.263-.324.445-.1.228-.125.449-.077.664.047.214.181.37.401.465l4.665 2.033z" fill="#9a999e"/><path d="m419.871 235.444-4.291-1.87c-1.03-.448-1.631-1.286-1.805-2.513-.156-1.098.042-2.282.596-3.552.565-1.298 1.316-2.282 2.255-2.952 1.041-.742 2.068-.892 3.08-.451l4.291 1.87-.87 1.997-3.968-1.728c-.474-.207-.967-.095-1.477.336-.461.386-.848.939-1.162 1.66-.324.744-.476 1.433-.454 2.067.021.701.267 1.153.732 1.355l3.968 1.73z" fill="#9a999e"/><path d="m429.808 230.885-1.983-.864-3.256 7.471-1.913-.833 3.256-7.472-1.978-.861.87-1.997 5.874 2.559z" fill="#9a999e"/><path d="m454.523 239.85-4.665-2.033c-.212-.092-.416-.079-.613.039s-.346.293-.446.525c-.1.228-.126.448-.078.662s.181.369.401.464l2.745 1.197c.742.323 1.196.879 1.365 1.666.155.716.061 1.465-.279 2.247-.343.787-.825 1.366-1.449 1.736-.692.413-1.411.457-2.156.132l-5-2.179.877-2.011 4.684 2.041c.198.086.399.063.607-.068.185-.119.329-.297.433-.534.099-.228.129-.449.09-.663-.04-.214-.167-.367-.378-.459l-2.752-1.199c-.746-.325-1.206-.88-1.381-1.665-.163-.711-.073-1.456.266-2.232.338-.776.82-1.347 1.444-1.711.701-.408 1.423-.45 2.169-.125l4.988 2.174z" fill="#9a999e"/><path d="m461.204 242.762-1.984-.865-3.256 7.472-1.912-.833 3.256-7.472-1.977-.861.87-1.997 5.874 2.56z" fill="#9a999e"/><path d="m466.671 254.034-2.073-.903.89-8.287c.02-.08-.014-.139-.1-.176-.092-.04-.167-.029-.231.032l-5.418 6.313-2.101-.915c.424-.524 1.07-1.309 1.941-2.353.97-1.156 1.905-2.255 2.806-3.297.987-1.137 1.564-1.764 1.728-1.881.291-.189.634-.28 1.023-.276.391.004.778.09 1.166.259.385.167.711.393.982.677s.432.596.485.935c.04.2-.021 1.049-.186 2.544-.115 1.053-.287 2.484-.518 4.295-.133 1.009-.264 2.021-.394 3.033z" fill="#9a999e"/><path d="m474.778 257.823-4.4-4.973-1.025 2.353-1.912-.833 1.366-3.135c.329-.754.77-1.29 1.324-1.608.636-.366 1.343-.378 2.122-.039l2.378 1.036c.221.096.431.085.63-.032.179-.105.316-.27.416-.498.101-.231.132-.453.09-.664-.046-.235-.179-.401-.399-.497l-4.671-2.035.87-1.997 4.994 2.176c.746.325 1.207.879 1.382 1.664.162.712.073 1.456-.265 2.232-.341.781-.824 1.354-1.448 1.717-.695.406-1.418.445-2.167.119l-1.208-.526 2.899 3.298z" fill="#9a999e"/><path d="m484.589 252.952-1.984-.864-3.256 7.471-1.912-.833 3.256-7.472-1.978-.861.87-1.997 5.874 2.56z" fill="#9a999e"/><path d="m616.321 243.997 7.406-3.556c1.234-.593 2.329-.743 3.284-.449.953.294 1.648.892 2.081 1.794.364.758.439 1.52.228 2.288-.141.512-.464 1.018-.969 1.518 1.027-.22 1.885-.165 2.578.165.692.331 1.234.904 1.625 1.719.319.664.452 1.335.398 2.012-.055.678-.275 1.3-.663 1.866-.239.351-.674.732-1.301 1.14-.835.545-1.398.887-1.689 1.026l-6.831 3.28zm6.404 3.105 1.721-.826c.617-.296.995-.608 1.135-.938.14-.328.113-.694-.08-1.095-.179-.373-.439-.605-.781-.7-.343-.093-.814.004-1.414.292l-1.746.839zm2.416 5.032 2.018-.969c.682-.327 1.103-.679 1.267-1.055.163-.376.148-.767-.049-1.175-.182-.378-.466-.616-.853-.713-.387-.098-.928.02-1.62.353l-2.009.964z" fill="#aeadb3"/><path d="m687.834 225.911-4.491 2.157.391 2.414-4.039 1.94-1.337-15.114 4.316-2.073 10.959 10.494-4.143 1.989zm-2.149-2.374-3.624-3.924.813 5.274z" fill="#aeadb3"/><path d="m457.111 387.233 9.307 40.543 9.259-40.543h-5.011l-4.248 22.786-4.295-22.786z" fill="#727176"/><path d="m477.73 387.233h5.011v40.543h-5.011z" fill="#727176"/><path d="m487.225 387.228v40.548h5.013v-20.95l6.971 20.95h4.622l-5.577-19.171c3.098-1.688 4.01-3.899 4.01-3.899v-12.88c-2.052-4.141-5.593-4.597-5.593-4.597h-9.446zm5.013 4.127h5.013v14.09h-5.013z" fill="#727176"/><path d="m503.837 387.233h14.987v4.119h-5.012v36.423h-5.011v-36.423h-4.964z" fill="#727176"/><path d="m546.552 387.228-9.682 40.506v.043h4.966l1.05-5.465h7.003l1.002 5.465h5.013zm0 17.477 2.287 13.962h-4.95z" fill="#727176"/><path d="m557.912 387.233h5.012v36.423h7.495v4.12h-12.507z" fill="#727176"/><path d="m611.512 387.233h4.581l4.677 17.474 4.25-17.474h5.059l-7.016 23.849v16.694h-5.013v-16.694z" fill="#727176"/><path d="m602.518 387.233c-5.695 0-7.525 4.592-7.525 4.592.045.065 0 30.487 0 31.354.753 4.929 7.525 4.596 7.525 4.596 7.515 0 7.513-4.596 7.513-4.596v-31.354c-1.944-4.82-7.513-4.592-7.513-4.592zm-2.515 4.592h5.015v31.824h-5.015z" fill="#727176"/><path d="m520.78 387.233h5.06v35.946h5.06v-35.946h4.963v35.946s-1.623 4.597-7.303 4.597c-5.679 0-7.78-4.597-7.78-4.597z" fill="#727176"/><path d="m575.957 387.228v40.548h10.073c4.676-1.105 4.967-4.127 4.967-4.127s-.008-10.83-.008-13.631c-.354-1.767-1.951-1.826-1.951-1.826s-.006-.493 0-.882c1.767-.123 1.959-1.864 1.959-1.864s-.008-10.82 0-13.621c-.766-3.308-4.967-4.597-4.967-4.597zm5.029 4.625h5.044v13.592h-5.044zm-.016 17.706h5.061v14.09h-5.061z" fill="#727176"/><path d="m626.094 423.656h3.483v.471h-1.481v3.649h-.501v-3.649h-1.502v-.471z" fill="#727176"/><path d="m630.078 427.775v-4.12h.501l1.789 3.675 1.719-3.675h.525v4.12h-.525v-3.189l-1.483 3.189h-.506l-1.519-3.189v3.189z" fill="#727176"/><path d="m500.944 453.832c-7.252 0-15.326 6.265-15.326 14.717 0 8.451 7.354 14.716 15.326 14.716h88.934c8.451.61 15.327-6.265 15.327-14.716 0-8.452-7.088-14.717-15.327-14.717z" fill="#20201a"/><path d="m500.944 457.494c-5.674-.304-11.664 4.611-11.664 11.055 0 6.441 4.897 11.018 11.664 11.054h88.934c6.858.093 11.665-4.612 11.665-11.054 0-6.443-5.773-11.551-11.665-11.055z" fill="#292922"/><path d="m514.225 466.461h4.223v9.291h-4.223z" fill="#20201a"/><path d="m527.918 466.039s-1.753.088-3.076 1.41v-.988h-4.224v9.291h4.224v-6.032c.482-1.689 1.87-1.63 1.87-1.63 2.232 0 2.111 2.173 2.111 2.173v5.489h4.042v-5.611c0-.001-.241-4.102-4.947-4.102z" fill="#20201a"/><path d="m562.004 466.039s-1.753.088-3.076 1.41v-.988h-4.224v9.291h4.224v-6.032c.483-1.689 1.869-1.63 1.869-1.63 2.232 0 2.112 2.173 2.112 2.173v5.489h4.042v-5.611c0-.001-.241-4.102-4.947-4.102z" fill="#20201a"/><path d="m514.225 461.967h4.223v2.805h-4.223z" fill="#20201a"/><path d="m541.553 465.496h-2.112v-2.172h-4.223v2.172h-1.749v1.207h1.749v9.049h4.223v-9.049h2.112z" fill="#20201a"/><path d="m587.795 466.068c-3.266 0-5.912 2.297-5.912 5.129s2.646 5.127 5.912 5.127c3.265 0 5.913-2.295 5.913-5.127s-2.648-5.129-5.913-5.129z" fill="#20201a"/><path d="m587.795 467.156c-.896 0-1.629.822-1.629 1.83v4.422c0 1.008.733 1.831 1.629 1.831s1.629-.823 1.629-1.831v-4.422c0-1.008-.733-1.83-1.629-1.83z" fill="#292922"/><path d="m576.181 461.996v4.744c-.607-.331-1.263-.52-1.9-.52-3.168 0-5.735 2.228-5.735 4.977 0 2.748 2.567 4.977 5.735 4.977.599 0 1.267-.238 1.9-.648v.227h4.224v-13.756h-4.224z" fill="#20201a"/><path d="m574.528 467.547c-.868 0-1.58.75-1.58 1.668v4.025c0 .918.712 1.668 1.58 1.668.869 0 1.581-.75 1.581-1.668v-4.026c0-.917-.711-1.667-1.581-1.667z" fill="#292922"/><path d="m549.248 473.037c0 1.508-.768 2.202-1.708 2.202-.939 0-1.708-.823-1.708-1.831v-2.061h7.898c.001-.05-.353-5.279-6.19-5.279-3.424 0-6.198 2.297-6.198 5.129s2.774 5.127 6.198 5.127c2.638 0 4.886-1.365 5.781-3.287z" fill="#20201a"/><path d="m549.248 469.9v-.914c0-1.008-.768-1.83-1.708-1.83-.939 0-1.708.822-1.708 1.83v.914z" fill="#292922"/><path d="m497.452 461.967v13.724h3.801v-9.592l6.094 9.653h4.343v-13.785h-4.223v9.623l-6.033-9.623z" fill="#20201a"/><path d="m387.322 477.328h-293.78c-5.338 0-9.665 4.327-9.665 9.664v88.579c0 5.338 4.327 9.665 9.665 9.665h293.78c5.338 0 9.665-4.327 9.665-9.665v-88.579c-.001-5.337-4.328-9.664-9.665-9.664" fill="#f5f4f4"/><g fill="#35485c"><path d="m93.542 477.328v1.013h293.78c4.777.009 8.643 3.874 8.651 8.651v88.579c-.009 4.777-3.874 8.643-8.651 8.651h-293.78c-4.777-.009-8.643-3.874-8.651-8.651v-88.579c.009-4.777 3.874-8.643 8.651-8.651v-1.013-1.013c-5.898.001-10.677 4.78-10.678 10.678v88.579c.001 5.898 4.78 10.677 10.678 10.678h293.78c5.897-.001 10.677-4.78 10.678-10.678v-88.579c-.001-5.898-4.78-10.677-10.678-10.678h-293.78z"/><path d="m146.731 579.753h-18.486c-5.95 0-8.108-4.851-8.108-8.115v-22.699h-22.704c-5.953 0-8.113-4.851-8.113-8.113v-18.482c0-5.952 4.852-8.113 8.113-8.113h22.705v-22.701c0-5.952 4.847-8.113 8.108-8.113h18.486c5.953 0 8.113 4.854 8.113 8.113v22.701h22.696c3.123 0 5.599 1.366 6.978 3.848.538.975 1.185 2.891 1.114 4.259h.021v18.484c0 5.952-4.851 8.113-8.114 8.113h-22.696v22.699c0 5.958-4.851 8.119-8.113 8.119zm-49.298-61.623c-.978.015-4.214.361-4.214 4.209v18.484c.016.978.362 4.214 4.214 4.214h26.601v26.597c.014.978.362 4.214 4.209 4.214h18.477c.999-.015 4.222-.369 4.222-4.214v-26.595h26.596c.978-.015 4.214-.364 4.214-4.214v-18.512c-.013-.745-.291-4.182-4.212-4.182h-26.593v-26.601c-.015-.978-.361-4.214-4.213-4.214h-18.486c-.978.015-4.209.361-4.209 4.214v26.6z"/><path d="m137.491 541.077c-5.23 0-9.485-4.257-9.485-9.489 0-5.235 4.256-9.489 9.485-9.489 5.233 0 9.489 4.257 9.489 9.489.001 5.235-4.258 9.489-9.489 9.489zm0-15.08c-3.08 0-5.586 2.51-5.586 5.591 0 3.086 2.506 5.591 5.586 5.591 3.084 0 5.589-2.507 5.589-5.591.001-3.084-2.507-5.591-5.589-5.591z"/><path d="m137.489 491.691-7.811 12.177h15.628z"/><path d="m145.303 505.818h-15.629c-.712 0-1.366-.391-1.71-1.013-.341-.627-.315-1.389.07-1.991l7.812-12.177c.717-1.118 2.565-1.116 3.28 0l7.817 12.177c.385.602.412 1.364.07 1.991-.34.622-.995 1.013-1.71 1.013zm-12.059-3.898h8.493l-4.248-6.616z"/><path d="m97.443 531.588 12.176 7.809v-15.624z"/><path d="m109.619 541.345c-.366 0-.733-.103-1.053-.308l-12.177-7.809c-.558-.356-.896-.975-.896-1.64 0-.667.338-1.281.896-1.642l12.177-7.812c.598-.384 1.363-.414 1.989-.07.623.338 1.013.998 1.013 1.71v15.624c0 .712-.387 1.366-1.013 1.71-.294.16-.616.237-.936.237zm-8.565-9.757 6.616 4.242v-8.489z"/><path d="m177.39 531.585-12.179-7.812v15.624z"/><path d="m165.213 541.345c-.322 0-.642-.078-.933-.238-.627-.343-1.017-.998-1.017-1.71v-15.624c0-.712.387-1.369 1.017-1.71.622-.343 1.383-.321 1.988.07l12.179 7.809c.559.361.898.978.898 1.642 0 .662-.338 1.281-.898 1.64l-12.182 7.812c-.319.207-.687.309-1.052.309zm1.95-14.006v8.491l6.619-4.244z"/><path d="m137.489 571.48 7.817-12.177h-15.628z"/><path d="m137.489 573.43c-.663 0-1.281-.338-1.64-.898l-7.812-12.177c-.385-.599-.411-1.361-.07-1.988.343-.627.998-1.015 1.711-1.015h15.628c.712 0 1.368.386 1.711 1.015.343.624.315 1.389-.07 1.988l-7.817 12.177c-.359.56-.978.898-1.641.898zm-4.245-12.176 4.244 6.616 4.248-6.616z"/><path d="m217.198 550.471v-39.782h11.229c3.461 0 6.521.765 9.181 2.296 2.659 1.529 4.708 3.705 6.147 6.528 1.458 2.825 2.195 6.067 2.214 9.727v2.542c0 3.753-.728 7.04-2.186 9.863-1.439 2.823-3.506 4.992-6.202 6.503-2.678 1.512-5.801 2.286-9.371 2.322h-11.012zm5.246-35.465v31.175h5.519c4.044 0 7.185-1.256 9.426-3.771 2.258-2.512 3.387-6.092 3.387-10.738v-2.322c0-4.518-1.065-8.025-3.196-10.52-2.113-2.515-5.118-3.788-9.017-3.826h-6.119z"/><path d="m250.312 531.51h13.334v4.124h-13.334z"/><path d="m274.575 534.897v15.574h-5.246v-39.782h14.672c4.353 0 7.759 1.111 10.219 3.334 2.477 2.221 3.715 5.165 3.715 8.825 0 3.861-1.211 6.839-3.634 8.935-2.404 2.076-5.855 3.114-10.355 3.114zm0-4.289h9.426c2.805 0 4.954-.654 6.448-1.968 1.494-1.329 2.24-3.242 2.24-5.736 0-2.369-.746-4.262-2.24-5.683s-3.542-2.159-6.147-2.214h-9.727z"/><path d="m322.882 540.089h-16.667l-3.743 10.382h-5.41l15.191-39.782h4.59l15.219 39.782h-5.383zm-15.082-4.317h13.524l-6.775-18.607z"/><path d="m337.418 550.471v-39.782h11.229c3.461 0 6.521.765 9.181 2.296 2.659 1.529 4.708 3.705 6.147 6.528 1.458 2.825 2.195 6.067 2.214 9.727v2.542c0 3.753-.728 7.04-2.186 9.863-1.439 2.823-3.506 4.992-6.202 6.503-2.678 1.512-5.801 2.286-9.371 2.322h-11.012zm5.246-35.465v31.175h5.519c4.044 0 7.185-1.256 9.426-3.771 2.258-2.512 3.387-6.092 3.387-10.738v-2.322c0-4.518-1.065-8.025-3.196-10.52-2.112-2.515-5.118-3.788-9.017-3.826h-6.119z"/></g><path d="m888.498 477.13h-182.177c-5.357 0-9.7 4.342-9.7 9.7v88.905c0 5.357 4.342 9.7 9.7 9.7h182.177c5.358 0 9.7-4.342 9.7-9.7v-88.905c0-5.358-4.342-9.7-9.7-9.7" fill="#f5f4f4"/><path d="m706.321 477.13v2.563h182.177c3.941.007 7.13 3.196 7.137 7.137v88.905c-.007 3.941-3.196 7.13-7.137 7.137h-182.177c-3.941-.007-7.13-3.196-7.137-7.137v-88.905c.007-3.941 3.196-7.13 7.137-7.137v-2.563-2.563c-6.774.001-12.261 5.489-12.263 12.262v88.905c.001 6.774 5.489 12.261 12.263 12.262h182.177c6.774-.001 12.261-5.489 12.262-12.262v-88.904c-.002-6.774-5.489-12.261-12.262-12.262h-182.177z" fill="#35485c"/><path d="m852.108 540.089h-16.667l-3.743 10.382h-5.41l15.19-39.782h4.59l15.22 39.782h-5.383zm-15.082-4.317h13.526l-6.777-18.607z" fill="#35485c"/><path clip-path="url(#a)" d="m779.911 543.04c-7.195 0-13.032-5.836-13.032-13.034 0-7.195 5.836-13.029 13.032-13.029 7.2 0 13.034 5.834 13.034 13.029 0 7.198-5.834 13.034-13.034 13.034m-27.425-21.38c-7.198 0-13.032-5.836-13.032-13.037 0-7.195 5.834-13.032 13.032-13.032 7.2 0 13.034 5.836 13.034 13.032 0 7.201-5.834 13.037-13.034 13.037m-4.696 46.634c-7.198 0-13.032-5.836-13.032-13.032 0-7.2 5.834-13.034 13.032-13.034s13.034 5.834 13.034 13.034c0 7.195-5.836 13.032-13.034 13.032m-27.088-21.927c-7.2 0-13.034-5.834-13.034-13.034 0-7.198 5.834-13.032 13.034-13.032 7.198 0 13.032 5.834 13.032 13.032-.001 7.2-5.835 13.034-13.032 13.034m29.595-61.758c-26.013 0-47.102 21.087-47.102 47.105 0 26.013 21.089 47.102 47.102 47.102s47.102-21.089 47.102-47.102c.001-26.019-21.089-47.105-47.102-47.105" fill="#35485c"/><path clip-path="url(#a)" d="m757.006 555.259c0 5.089-4.127 9.216-9.216 9.216s-9.213-4.127-9.213-9.216 4.124-9.213 9.213-9.213 9.216 4.124 9.216 9.213" fill="#35485c"/><path clip-path="url(#a)" d="m730.407 533.333c0 5.36-4.347 9.71-9.707 9.71s-9.707-4.35-9.707-9.71 4.347-9.707 9.707-9.707 9.707 4.347 9.707 9.707" fill="#35485c"/><path clip-path="url(#a)" d="m761.687 508.889c0 5.089-4.129 9.216-9.216 9.216-5.089 0-9.216-4.127-9.216-9.216 0-5.092 4.127-9.216 9.216-9.216 5.087 0 9.216 4.124 9.216 9.216" fill="#35485c"/><path d="m670.027 477.13h-182.175c-5.357 0-9.7 4.342-9.7 9.7v88.905c0 5.357 4.342 9.7 9.7 9.7h182.175c5.358 0 9.7-4.342 9.7-9.7v-88.905c0-5.358-4.342-9.7-9.7-9.7" fill="#f5f4f4"/><path d="m487.852 477.13v2.563h182.175c3.941.007 7.13 3.196 7.137 7.137v88.905c-.007 3.941-3.196 7.13-7.137 7.137h-182.175c-3.941-.007-7.13-3.196-7.137-7.137v-88.905c.007-3.941 3.196-7.13 7.137-7.137v-2.563-2.563c-6.774.001-12.261 5.489-12.262 12.262v88.905c.001 6.774 5.489 12.261 12.262 12.262h182.175c6.774-.001 12.261-5.489 12.262-12.262v-88.904c-.001-6.774-5.489-12.261-12.262-12.262h-182.175z" fill="#35485c"/><path d="m611.671 550.471v-39.782h13.007c4.317 0 7.559.893 9.727 2.678 2.186 1.785 3.277 4.427 3.277 7.925 0 1.858-.526 3.505-1.584 4.944-1.055 1.422-2.495 2.525-4.317 3.307 2.151.602 3.843 1.75 5.082 3.442 1.259 1.677 1.885 3.68 1.885 6.012 0 3.57-1.156 6.375-3.47 8.416-2.311 2.038-5.583 3.059-9.808 3.059h-13.799zm5.247-18.607v14.318h8.659c2.442 0 4.365-.627 5.766-1.885 1.422-1.274 2.131-3.023 2.131-5.245 0-4.791-2.605-7.188-7.814-7.188zm0-4.207h7.922c2.297 0 4.127-.574 5.493-1.72 1.384-1.148 2.076-2.705 2.076-4.673 0-2.186-.637-3.771-1.913-4.753-1.274-1.003-3.214-1.504-5.819-1.504h-7.759z" fill="#35485c"/><path clip-path="url(#b)" d="m561.442 543.04c-7.349 0-13.31-5.959-13.31-13.312 0-7.348 5.961-13.307 13.31-13.307 7.352 0 13.31 5.959 13.31 13.307 0 7.353-5.958 13.312-13.31 13.312m-28.01-21.836c-7.352 0-13.31-5.962-13.31-13.312s5.958-13.312 13.31-13.312c7.353 0 13.311 5.962 13.311 13.312s-5.958 13.312-13.311 13.312m-4.795 47.629c-7.352 0-13.311-5.962-13.311-13.31 0-7.353 5.959-13.312 13.311-13.312 7.349 0 13.31 5.959 13.31 13.312 0 7.348-5.96 13.31-13.31 13.31m-27.669-22.396c-7.352 0-13.31-5.957-13.31-13.312 0-7.351 5.958-13.307 13.31-13.307s13.31 5.957 13.31 13.307c0 7.355-5.958 13.312-13.31 13.312m30.228-63.074c-26.568 0-48.108 21.538-48.108 48.108s21.539 48.108 48.108 48.108c26.568 0 48.106-21.538 48.106-48.108s-21.538-48.108-48.106-48.108" fill="#35485c"/><path clip-path="url(#b)" d="m570.945 529.73c0 5.25-4.254 9.504-9.502 9.504-5.251 0-9.505-4.254-9.505-9.504s4.254-9.504 9.505-9.504c5.247 0 9.502 4.255 9.502 9.504" fill="#35485c"/><path clip-path="url(#b)" d="m510.881 533.127c0 5.473-4.44 9.915-9.914 9.915s-9.914-4.442-9.914-9.915c0-5.475 4.44-9.915 9.914-9.915s9.914 4.44 9.914 9.915" fill="#35485c"/><path clip-path="url(#b)" d="m542.828 508.16c0 5.2-4.216 9.414-9.413 9.414-5.198 0-9.411-4.214-9.411-9.414 0-5.197 4.213-9.411 9.411-9.411 5.198-.001 9.413 4.214 9.413 9.411" fill="#35485c"/><path d="m657.061 2.048h-300.518c-4.575.008-8.311 3.556-8.619 8.053.013.218.02.438.02.659v88.494c0 .206-.006.412-.017.615.326 4.48 4.054 8.008 8.617 8.017h300.518c4.769-.009 8.63-3.868 8.638-8.638v-88.562c-.01-4.77-3.871-8.629-8.639-8.638" fill="#f5f4f4"/><path d="m356.543 1.024v1.024h300.518c4.769.009 8.63 3.868 8.638 8.638v88.561c-.009 4.77-3.869 8.63-8.638 8.638h-300.518c-4.772-.009-8.631-3.868-8.64-8.638v-88.561c.009-4.77 3.868-8.63 8.64-8.638v-1.024-1.024c-5.903.001-10.687 4.784-10.688 10.686v88.561c.001 5.902 4.784 10.686 10.688 10.686h300.518c5.901-.001 10.685-4.784 10.686-10.686v-88.561c-.001-5.902-4.786-10.685-10.686-10.686h-300.518z" fill="#35485c"/><path d="m437.677 46.644h3.683v-15.567h6.565v-2.894h-16.81v2.894h6.565zm-22.319-10.183v-5.384h6.357c1.934 0 3.14.748 3.14 2.661 0 2.07-1.107 2.723-3.14 2.723zm-3.674 10.183h3.674v-7.29h6.256c2.698 0 3.044 1.863 3.044 4.495 0 1.348.174 2.28.445 2.795h3.976c-.721-1.013-.743-3.071-.743-3.96 0-2.611-.461-4.524-2.546-4.983v-.054c1.647-.54 2.889-2.041 2.889-4.449 0-2.866-1.443-5.005-5.904-5.005h-11.084zm-22.758 0h3.974l1.813-4.575h8.241l1.839 4.575h4.105l-7.799-18.461h-4.365zm6.893-7.47 3.04-7.792 2.992 7.792zm-17.241 7.47h3.673v-15.567h6.576v-2.894h-16.823v2.894h6.575v15.567zm-25.114-13.269c0 7.571 12.9 3.586 12.9 8.165 0 2.029-2.083 2.725-4.313 2.725-3.02 0-4.926-1.167-5.028-3.604h-3.971c.054 3.883 2.575 6.501 8.886 6.501 3.727 0 8.401-1.245 8.401-6.006 0-7.887-13.045-3.724-13.045-8.064 0-1.731 1.62-2.53 4.07-2.53 3.064 0 4.293 1.547 4.421 2.973h3.972c-.474-5.361-5.865-5.87-8.568-5.87-4.269.002-7.725 1.597-7.725 5.71" fill="#35485c"/><path d="m438.067 55.787h-75.233c-5.438 0-9.849 4.539-9.849 10.136 0 5.596 4.411 10.135 9.849 10.135h75.233c5.438 0 9.845-4.536 9.845-10.135 0-5.6-4.407-10.136-9.845-10.136z" fill="#35485c"/><path d="m491.91 56.425c-4.499-1.294-7.777-2.878-9.835-4.755-2.041-1.894-3.061-4.226-3.061-6.995 0-3.134 1.249-5.72 3.744-7.759 2.513-2.058 5.774-3.089 9.781-3.087 2.731-.001 5.163.528 7.295 1.584 2.149 1.057 3.807 2.513 4.973 4.371 1.183 1.858 1.775 3.89 1.775 6.093h-5.272c0-2.404-.766-4.29-2.295-5.656-1.531-1.384-3.689-2.077-6.476-2.077-2.587 0-4.609.574-6.066 1.722-1.439 1.129-2.159 2.705-2.159 4.727 0 1.621.683 2.996 2.05 4.125 1.384 1.111 3.724 2.131 7.021 3.06 3.316.929 5.903 1.958 7.761 3.087 1.877 1.112 3.26 2.414 4.153 3.907.91 1.494 1.366 3.252 1.366 5.274 0 3.224-1.257 5.81-3.771 7.759-2.515 1.93-5.875 2.897-10.082 2.897-2.733 0-5.282-.52-7.65-1.558-2.368-1.057-4.199-2.495-5.492-4.317-1.276-1.821-1.913-3.888-1.913-6.202h5.274c0 2.406.882 4.308 2.65 5.711 1.785 1.384 4.162 2.077 7.131 2.077 2.769 0 4.89-.565 6.365-1.695 1.475-1.129 2.214-2.669 2.214-4.617 0-1.949-.683-3.452-2.049-4.509-1.366-1.073-3.843-2.129-7.432-3.167z" fill="#35485c"/><path d="m540.901 38.691h-12.788v35.466h-5.218v-35.466h-12.76v-4.317h30.766z" fill="#35485c"/><path d="m566.639 63.774h-16.667l-3.743 10.383h-5.41l15.191-39.783h4.59l15.219 39.783h-5.383zm-15.082-4.317h13.524l-6.775-18.607z" fill="#35485c"/><path d="m595.766 58.063h-9.346v16.094h-5.272v-39.783h13.169c4.48 0 7.925 1.02 10.329 3.061 2.422 2.039 3.633 5.009 3.633 8.908 0 2.477-.674 4.636-2.021 6.474-1.331 1.84-3.189 3.215-5.576 4.127l9.346 16.885v.328h-5.631zm-9.346-4.289h8.06c2.605 0 4.673-.673 6.202-2.022 1.549-1.348 2.324-3.151 2.324-5.41 0-2.458-.74-4.343-2.214-5.655-1.457-1.312-3.57-1.977-6.34-1.996h-8.033v15.083z" fill="#35485c"/><path d="m640.903 38.691h-12.789v35.466h-5.217v-35.466h-12.761v-4.317h30.767z" fill="#35485c"/><path d="m6.802 67.82v32.573h92.461v-32.573c-.993 4.394-4.82 7.667-9.391 7.667h-73.676c-4.571 0-8.4-3.274-9.394-7.667m16.59-21.136v-18.071h12.326v2.832h-9.346v4.563h8.96v2.832h-8.96v5.013h9.496v2.832h-12.476m15.716-.001v-18.071h2.98v15.091h8.622v2.98zm14.247 0 .003-18.071h12.308v2.832h-9.334v4.563h8.963v2.832h-8.963v5.013h9.497v2.832h-12.474m22.495.507c-5.122 0-7.578-4.46-7.578-9.541 0-5.097 2.351-9.544 7.932-9.544 4.881 0 7.427 3.286 7.743 7.184l-3.209-.002c-.298-2.736-2.066-4.357-4.573-4.357-2.746 0-4.786 2.335-4.786 7.043 0 3.773 2.039 6.387 4.988 6.387 3.093 0 4.123-2.689 4.371-4.588h3.212c-.416 3.603-2.26 7.418-8.1 7.418m23.413-39.261h-92.461v32.897h3.002c.083 2.385 1.626 3.53 4.074 3.53 1.811 0 3.499-.682 3.499-2.669 0-4.485-10.452-.58-10.452-7.992 0-4.025 2.802-5.591 6.256-5.591 2.184 0 6.558.499 6.939 5.744h-3.22c-.1-1.399-1.098-2.917-3.581-2.917-1.982 0-3.294.787-3.294 2.486 0 4.242 10.568.173 10.568 7.892 0 4.663-3.791 5.876-6.813 5.876-4.206 0-6.336-1.735-6.978-4.471v20.587c.994-4.393 4.823-7.667 9.394-7.667h73.676c4.571 0 8.398 3.273 9.391 7.667v-31.858h-5.062v15.239h-2.975v-15.242h-5.325v-2.829h13.361v-20.682m-92.711 57.631v-57.882h92.962v20.932h.015v2.832h-.015v69.197h-92.962zm330.674-63.393h-326.505c-4.744.008-8.582 3.847-8.591 8.591v88.494c.009 4.744 3.847 8.583 8.591 8.592h326.505c4.744-.009 8.582-3.847 8.59-8.592v-88.494c-.008-4.744-3.846-8.583-8.59-8.591" fill="#f5f4f4"/><path d="m10.72 1.104v1.064h326.505c4.744.009 8.582 3.847 8.59 8.592v88.494c-.009 4.745-3.846 8.583-8.59 8.592h-326.505c-4.744-.009-8.583-3.847-8.591-8.592v-88.494c.009-4.744 3.847-8.583 8.591-8.592v-1.064-1.064c-5.92.001-10.719 4.8-10.72 10.72v88.494c.001 5.921 4.8 10.719 10.72 10.72h326.505c5.921-.001 10.718-4.8 10.719-10.72v-88.494c-.001-5.921-4.798-10.719-10.719-10.72h-326.505z" fill="#35485c"/><path d="m89.871 55.636h-73.675c-5.325 0-9.645 4.445-9.645 9.925 0 5.481 4.32 9.925 9.645 9.925h73.676c5.326 0 9.642-4.442 9.642-9.925 0-5.482-4.316-9.925-9.643-9.925" fill="#35485c"/><path d="m91.226 46.684h2.975v-15.239h5.327v-2.832h-13.626v2.829h5.325v15.242m-7.28-11.394c-.316-3.898-2.862-7.184-7.743-7.184-5.582 0-7.932 4.447-7.932 9.544 0 5.082 2.456 9.541 7.578 9.541 5.84 0 7.684-3.815 8.1-7.419h-3.212c-.248 1.899-1.278 4.588-4.371 4.588-2.948 0-4.988-2.614-4.988-6.387 0-4.708 2.039-7.043 4.786-7.043 2.507 0 4.275 1.621 4.573 4.357zm-30.592 11.394h12.474v-2.832h-9.497v-5.013h8.963v-2.832h-8.963v-4.563h9.334v-2.832h-12.308zm-14.247 0h11.601v-2.98h-8.622v-15.091h-2.98v18.071m-15.715 0h12.476v-2.832h-9.496v-5.013h8.96v-2.832h-8.96v-4.563h9.346v-2.832h-12.326zm-16.467-12.987c0 7.412 10.452 3.507 10.452 7.992 0 1.987-1.687 2.669-3.499 2.669-2.448 0-3.991-1.145-4.074-3.53h-3.215c.038 3.801 2.085 6.359 7.192 6.359 3.022 0 6.813-1.213 6.813-5.876 0-7.719-10.568-3.65-10.568-7.892 0-1.698 1.313-2.486 3.294-2.486 2.483 0 3.481 1.518 3.581 2.917h3.22c-.381-5.245-4.756-5.744-6.939-5.744-3.456.001-6.257 1.566-6.257 5.591" fill="#35485c"/><path d="m99.514 31.445h-.251v31.858c.164.726.251 1.482.251 2.259s-.087 1.533-.251 2.259v32.573h-92.461v-32.574c-.164-.725-.251-1.482-.251-2.258v35.08h92.962v-69.197m.001-23.765h-92.963v57.881c0-.777.087-1.533.251-2.258v-20.586c-.137-.586-.207-1.218-.213-1.888h.213v-32.898h92.461v20.682h.251z" fill="#f5f4f4"/><path d="m6.802 63.303c-.164.725-.251 1.482-.251 2.258 0 .777.087 1.533.251 2.258zm92.461 0v4.517c.164-.726.251-1.482.251-2.259 0-.776-.087-1.532-.251-2.258" fill="#35485c"/><path d="m6.802 40.829h-.213c.007.67.076 1.302.213 1.888zm92.712-12.216h-.251v2.832h.251z" fill="#35485c"/><path d="m146.055 56.465c-4.499-1.294-7.778-2.878-9.836-4.755-2.039-1.894-3.06-4.226-3.06-6.995 0-3.133 1.247-5.72 3.743-7.759 2.513-2.058 5.775-3.087 9.781-3.087 2.733 0 5.165.528 7.295 1.584 2.15 1.057 3.807 2.513 4.973 4.371 1.185 1.859 1.776 3.89 1.776 6.093h-5.274c0-2.404-.765-4.29-2.295-5.656-1.529-1.384-3.688-2.076-6.476-2.076-2.586 0-4.608.573-6.065 1.721-1.439 1.129-2.159 2.705-2.159 4.727 0 1.621.683 2.996 2.048 4.125 1.385 1.111 3.725 2.131 7.022 3.06 3.316.929 5.902 1.958 7.759 3.087 1.877 1.112 3.262 2.414 4.154 3.907.91 1.494 1.365 3.252 1.365 5.274 0 3.224-1.256 5.81-3.771 7.759-2.513 1.932-5.874 2.897-10.082 2.897-2.731 0-5.282-.519-7.65-1.558-2.368-1.057-4.198-2.496-5.492-4.317-1.275-1.821-1.913-3.888-1.913-6.201h5.274c0 2.404.884 4.307 2.65 5.71 1.785 1.385 4.163 2.077 7.131 2.077 2.769 0 4.891-.565 6.367-1.695 1.475-1.129 2.214-2.669 2.214-4.617 0-1.949-.683-3.452-2.05-4.509-1.363-1.072-3.84-2.129-7.429-3.167z" fill="#35485c"/><path d="m190.045 55.809h-17.241v14.099h20.028v4.289h-25.274v-39.782h25.001v4.318h-19.755v12.786h17.241z" fill="#35485c"/><path d="m204.635 69.908h18.853v4.289h-24.125v-39.782h5.272z" fill="#35485c"/><path d="m252.013 55.809h-17.241v14.099h20.028v4.289h-25.274v-39.782h25v4.318h-19.754v12.786h17.241z" fill="#35485c"/><path d="m290.593 61.574c-.491 4.207-2.048 7.458-4.672 9.754-2.605 2.276-6.075 3.416-10.41 3.416-4.699 0-8.47-1.685-11.311-5.055-2.824-3.369-4.236-7.877-4.236-13.524v-3.826c0-3.698.656-6.948 1.967-9.754 1.33-2.805 3.207-4.955 5.63-6.448 2.422-1.512 5.227-2.268 8.415-2.268 4.226 0 7.614 1.183 10.164 3.551 2.551 2.35 4.035 5.611 4.454 9.782h-5.272c-.456-3.17-1.449-5.465-2.978-6.886-1.512-1.421-3.634-2.131-6.367-2.131-3.352 0-5.983 1.238-7.896 3.715-1.895 2.477-2.842 6.002-2.842 10.573v3.853c0 4.317.901 7.751 2.705 10.3 1.803 2.55 4.326 3.826 7.568 3.826 2.914 0 5.147-.657 6.695-1.968 1.566-1.33 2.605-3.634 3.115-6.912h5.271z" fill="#35485c"/><path d="m324.446 38.733h-12.787v35.464h-5.219v-35.464h-12.76v-4.318h30.766z" fill="#35485c"/><path d="m1135.875 1.477h-459.53c-4.128 0-7.647 2.599-9.014 6.248.271.94.416 1.934.416 2.961v88.561c0 1.118-.172 2.196-.49 3.208 1.31 3.758 4.883 6.454 9.088 6.454h459.531c5.315 0 9.622-4.308 9.622-9.622v-88.188c-.001-5.314-4.308-9.622-9.623-9.622" fill="#f5f4f4"/><path d="m667.331 7.725c-.393 1.05-.608 2.187-.608 3.374v88.189c0 1.11.188 2.176.534 3.168.318-1.013.49-2.09.49-3.208v-88.562c0-1.027-.146-2.021-.416-2.961" fill="#caced3"/><path d="m676.345 1.477v1.25h459.531c4.624.008 8.363 3.749 8.372 8.372v88.189c-.008 4.623-3.748 8.363-8.372 8.372h-459.531c-4.624-.008-8.364-3.749-8.372-8.372v-88.189c.008-4.623 3.748-8.363 8.372-8.372v-1.25-1.25c-6.006.001-10.872 4.868-10.872 10.872v88.189c.001 6.005 4.866 10.871 10.872 10.872h459.531c6.006-.001 10.871-4.868 10.872-10.872v-88.189c-.001-6.005-4.866-10.872-10.872-10.872h-459.531z" fill="#35485c"/><path d="m814.397 58.29h-9.346v16.093h-5.272v-39.782h13.169c4.48 0 7.925 1.02 10.329 3.06 2.422 2.041 3.633 5.009 3.633 8.908 0 2.477-.674 4.636-2.021 6.476-1.331 1.839-3.189 3.214-5.576 4.125l9.346 16.885v.328h-5.628zm-9.346-4.29h8.06c2.605 0 4.673-.674 6.202-2.022 1.549-1.349 2.324-3.151 2.324-5.41 0-2.459-.74-4.345-2.214-5.656-1.457-1.311-3.57-1.977-6.338-1.994h-8.035v15.082z" fill="#35485c"/><path d="m834.614 34.601h5.247v39.782h-5.247z" fill="#35485c"/><path d="m878.796 69.164c-1.346 1.93-3.232 3.378-5.656 4.345-2.404.946-5.21 1.42-8.414 1.42-3.244 0-6.122-.756-8.634-2.268-2.515-1.531-4.463-3.698-5.849-6.503-1.366-2.805-2.066-6.056-2.103-9.754v-3.47c0-5.993 1.394-10.639 4.182-13.935 2.805-3.297 6.739-4.945 11.803-4.945 4.152 0 7.496 1.065 10.026 3.196 2.532 2.113 4.081 5.118 4.646 9.017h-5.245c-.985-5.264-4.117-7.896-9.399-7.896-3.517 0-6.185 1.238-8.007 3.715-1.803 2.459-2.713 6.029-2.73 10.711v3.25c0 4.464 1.018 8.015 3.059 10.656 2.041 2.624 4.801 3.935 8.278 3.935 1.968 0 3.69-.218 5.165-.656 1.477-.437 2.698-1.175 3.663-2.214v-8.934h-9.208v-4.263h14.426v14.593z" fill="#35485c"/><path d="m918.141 74.383h-5.272v-18.388h-20.056v18.388h-5.245v-39.782h5.245v17.104h20.056v-17.104h5.272z" fill="#35485c"/><path d="m954.18 38.918h-12.788v35.465h-5.218v-35.465h-12.76v-4.317h30.766z" fill="#35485c"/><path d="m984.646 56.65c-4.5-1.294-7.779-2.878-9.838-4.755-2.041-1.894-3.059-4.226-3.059-6.995 0-3.133 1.246-5.72 3.743-7.759 2.512-2.058 5.774-3.087 9.78-3.087 2.733 0 5.164.528 7.295 1.584 2.151 1.057 3.808 2.515 4.974 4.372 1.183 1.858 1.775 3.888 1.775 6.092h-5.272c0-2.404-.765-4.29-2.296-5.656-1.529-1.384-3.688-2.076-6.476-2.076-2.585 0-4.608.574-6.065 1.721-1.439 1.129-2.159 2.705-2.159 4.727 0 1.621.682 2.996 2.048 4.125 1.384 1.112 3.725 2.131 7.022 3.06 3.317.93 5.902 1.959 7.759 3.087 1.878 1.112 3.262 2.414 4.154 3.907.91 1.494 1.366 3.252 1.366 5.274 0 3.224-1.259 5.811-3.771 7.761-2.515 1.93-5.874 2.896-10.083 2.896-2.733 0-5.282-.519-7.649-1.557-2.369-1.057-4.199-2.496-5.493-4.317-1.274-1.821-1.913-3.89-1.913-6.202h5.275c0 2.404.883 4.307 2.65 5.71 1.785 1.385 4.162 2.077 7.13 2.077 2.77 0 4.891-.565 6.368-1.695 1.474-1.128 2.211-2.667 2.211-4.617 0-1.949-.682-3.452-2.048-4.509-1.364-1.073-3.841-2.13-7.428-3.168z" fill="#35485c"/><path d="m1033.636 38.918h-12.789v35.465h-5.219v-35.465h-12.759v-4.317h30.767z" fill="#35485c"/><path d="m1039.973 34.601h5.245v39.782h-5.245z" fill="#35485c"/><path d="m1084.045 61.76c-.491 4.208-2.048 7.458-4.673 9.754-2.605 2.278-6.075 3.416-10.409 3.416-4.698 0-8.469-1.685-11.312-5.054-2.823-3.371-4.234-7.878-4.234-13.525v-3.824c0-3.698.657-6.95 1.968-9.755 1.329-2.805 3.204-4.954 5.628-6.448 2.422-1.512 5.227-2.268 8.414-2.268 4.227 0 7.614 1.183 10.166 3.552 2.55 2.349 4.034 5.61 4.453 9.781h-5.272c-.456-3.17-1.449-5.465-2.978-6.886-1.512-1.42-3.635-2.131-6.368-2.131-3.349 0-5.982 1.238-7.895 3.715-1.895 2.477-2.843 6.002-2.843 10.575v3.852c0 4.317.902 7.751 2.705 10.3 1.805 2.551 4.327 3.826 7.569 3.826 2.916 0 5.147-.656 6.694-1.967 1.567-1.33 2.605-3.634 3.116-6.913z" fill="#35485c"/><path d="m1101.286 55.886-4.864 5.054v13.443h-5.245v-39.782h5.245v19.673l17.677-19.673h6.34l-15.656 17.568 16.885 22.214h-6.283z" fill="#35485c"/><path d="m719.629 8.686c-18.637 0-33.747 15.11-33.747 33.747 0 18.639 15.11 33.747 33.747 33.747s33.745-15.109 33.745-33.747c0-18.637-15.108-33.747-33.745-33.747zm-13.215 18.94h16.145c5.363 0 8.762 3.725 8.762 8.262 0 6.37-4.728 7.599-4.728 7.599 3.224.84 4.134 3.992 4.34 7.011.138 1.899.098 5.413 1.271 7.092h-6.576c-.8-1.887-.715-4.786-1.048-7.176-.459-3.149-1.68-4.536-4.992-4.536h-6.594v11.709h-6.573zm6.581 5.105v8.449h7.218c2.926 0 4.533-1.271 4.533-4.302 0-2.881-1.602-4.147-4.533-4.147z" fill="#35485c"/><path d="m714.758 71.279h9.74v32.007h-9.74z" fill="#35485c"/><ellipse cx="294.152" cy="216.03" fill="#ccc" rx="6.297" ry="6.162" stroke="#ccc" stroke-width="2.5672"/><ellipse cx="391.07" cy="256.797" fill="#ccc" rx="6.297" ry="6.162" stroke="#ccc" stroke-width="2.5672"/><ellipse cx="451.836" cy="282.181" fill="#ccc" rx="6.297" ry="6.162" stroke="#ccc" stroke-width="2.5672"/><ellipse cx="646.442" cy="282.95" fill="#ccc" rx="6.297" ry="6.162" stroke="#ccc" stroke-width="2.5672"/><ellipse cx="707.208" cy="257.182" fill="#ccc" rx="6.297" ry="6.162" stroke="#ccc" stroke-width="2.5672"/><ellipse cx="799.357" cy="215.646" fill="#ccc" rx="6.297" ry="6.162" stroke="#ccc" stroke-width="2.5672"/><path d="m645.97 281.058.174 195.313" fill="#ccc" stroke="#ccc" stroke-width="2.8928"/><path d="m707.121 258.749.173 217.24" fill="#ccc" stroke="#ccc" stroke-width="3.0485"/><path d="m799.27 109.083.173 109.419" fill="#ccc" stroke="#ccc" stroke-width="2.1636"/><path d="m293.683 216.284.17 259.48" fill="#ccc" stroke="#ccc" stroke-width="3.2982"/><path d="m452.136 108.991.17 175.628" fill="#ccc" stroke="#ccc" stroke-width="2.7134"/><path d="m159.843 109.374.17 148.316" fill="#ccc" stroke="#ccc" stroke-width="2.4966"/><path d="m389.667 256.328-231.028.169" fill="#ccc" stroke="#ccc" stroke-width="3.1037"/></svg>