<svg enable-background="new 0 0 635.248 790.788" viewBox="0 0 635.248 790.788" xmlns="http://www.w3.org/2000/svg"><path d="m253.021 406.63v-.017-22.389-.029l-2.158-130.571-40.657 6.772v.134c-2.002.506-3.5 2.489-3.5 4.868v259.996c0 2.378 1.498 4.359 3.5 4.866v.134l40.657 6.77z" fill="#20201a"/><path d="m177.206 787.394c67-8 80-13 141.72-31s60.28-42 95.28-31 27 11 51 21 49 10 49 10l48-55v-306-306l-48-55s-25 0-49 10-16 10-51 21-33.561-13-95.28-31c-61.72-18-74.72-23-141.72-31s-83 0-130 5-74.522 97.681-6 113c67.981 15.198 77.402 15.55 129 22 64 8 110.897 10 165 25 21.656 6.004 18 20 18 20s-12 90-14 193c-.096 4.937-.183 9.595-.261 14 .078 4.404.165 9.062.261 14 2 103 14 193 14 193s3.656 13.996-18 20c-54.103 15-101 17-165 25-51.598 6.449-61.019 6.803-129 22-68.522 15.318-41 108 6 113s63 13 130 5z" fill="#20201a"/><path d="m561.206 525.394v-129.945-130.046c0-6.632-5.373-12.009-12-12.009h-296c-6.627 0-12 5.377-12 12.009v130.045 129.945c0 6.627 5.373 12 12 12h296c6.627.001 12-5.372 12-11.999z" fill="#292922"/><path d="m549.206 513.394v-118-118c0-6.627-5.373-12-12-12h-216c-6.627 0-12 5.373-12 12v118 118c0 6.627 5.373 12 12 12h216c6.627 0 12-5.373 12-12z" fill="#31302a"/><path d="m616.206 211.394-86 133s-28 40-79 27-65.773-75.678-54-123c11-44.214 39-155 39-155s32.28-85 130-51 68.74 143 50 169z" fill="#292922"/><path d="m616.206 579.394-86-133s-28-40-79-27-65.773 75.678-54 123c11 44.215 39 155 39 155s32.28 85 130 51 68.74-143 50-169z" fill="#292922"/><circle cx="532.581" cy="649.769" fill="none" r="41.5" stroke="#20201a" stroke-miterlimit="10" stroke-width="2.2677"/><circle cx="532.581" cy="144.894" fill="none" r="41.5" stroke="#20201a" stroke-miterlimit="10" stroke-width="2.2677"/><path d="m550.581 692.599v-24.83h24.831c3.131 0 5.669-2.538 5.669-5.669v-24.662c0-3.131-2.538-5.669-5.669-5.669h-24.831v-24.83c0-3.132-2.538-5.67-5.669-5.67h-24.662c-3.131 0-5.669 2.538-5.669 5.67v24.83h-24.831c-3.131 0-5.669 2.538-5.669 5.669v24.662c0 3.131 2.538 5.669 5.669 5.669h24.831v24.83c0 3.132 2.538 5.67 5.669 5.67h24.662c3.13 0 5.669-2.538 5.669-5.67z" fill="#20201a" stroke="#1e1e18" stroke-miterlimit="10" stroke-width="2.8347"/><path d="m550.581 187.724v-24.83h24.831c3.131 0 5.669-2.538 5.669-5.669v-24.662c0-3.131-2.538-5.669-5.669-5.669h-24.831v-24.83c0-3.132-2.538-5.67-5.669-5.67h-24.662c-3.131 0-5.669 2.538-5.669 5.67v24.83h-24.831c-3.131 0-5.669 2.538-5.669 5.669v24.662c0 3.131 2.538 5.669 5.669 5.669h24.831v24.83c0 3.132 2.538 5.67 5.669 5.67h24.662c3.13 0 5.669-2.538 5.669-5.67z" fill="#20201a" stroke="#1e1e18" stroke-miterlimit="10" stroke-width="2.8347"/><circle cx="532.581" cy="649.769" fill="#1b1b14" r="9"/><circle cx="532.581" cy="144.894" fill="#1b1b14" r="9"/><circle cx="491.081" cy="553.894" fill="#bf0811" r="23.5" stroke="#1e1e18" stroke-miterlimit="10" stroke-width="2.8347"/><circle cx="466.581" cy="493.894" fill="#bf0811" r="23.5" stroke="#1e1e18" stroke-miterlimit="10" stroke-width="2.8347"/><circle cx="491.081" cy="240.769" fill="#727176" r="23.5" stroke="#1e1e18" stroke-miterlimit="10" stroke-width="2.8347"/><circle cx="466.581" cy="300.769" fill="#87868a" r="23.5" stroke="#1e1e18" stroke-miterlimit="10" stroke-width="2.8347"/><path d="m543.581 442.839c0 2.485-2.015 4.5-4.5 4.5-1.711 0-3.181-.966-3.942-2.372l-.004.036-14.263-23.387v-21.223h13.708 9v42.446z" fill="#727176"/><path d="m539.081 432.339c2.485 0 4.5-2.015 4.5-4.5v-32.5-9.945-32.5c0-2.485-2.015-4.5-4.5-4.5-1.711 0-3.181.966-3.942 2.372l-.004-.037-14.263 23.387v11.277 9.945 11.278l14.263 23.387.004-.036c.76 1.406 2.231 2.372 3.942 2.372z" fill="#9a999e"/><path d="m521.873 382.617c-.783 0-1.418-.635-1.418-1.418v-3.665c0-.783.635-1.417 1.418-1.417h21.165c.783 0 1.417.635 1.417 1.417v3.665c0 .783-.635 1.418-1.417 1.418z" fill="#87868a"/><path d="m521.873 393.867c-.783 0-1.418-.635-1.418-1.418v-3.665c0-.783.635-1.417 1.418-1.417h21.165c.783 0 1.417.635 1.417 1.417v3.665c0 .783-.635 1.418-1.417 1.418z" fill="#87868a"/><path d="m521.873 404.617c-.783 0-1.418-.635-1.418-1.418v-3.664c0-.783.635-1.418 1.418-1.418h21.165c.783 0 1.417.635 1.417 1.418v3.664c0 .783-.635 1.418-1.417 1.418z" fill="#87868a"/><path d="m535.332 239.916 2.033-4.665c.092-.212.079-.417-.039-.614s-.293-.346-.525-.446c-.227-.099-.448-.125-.662-.078-.214.048-.369.182-.464.402l-1.197 2.745c-.323.742-.879 1.196-1.666 1.365-.716.155-1.465.062-2.247-.279-.787-.343-1.366-.825-1.736-1.449-.413-.692-.457-1.411-.132-2.156l2.179-5 2.011.876-2.041 4.684c-.086.198-.063.4.068.607.119.184.297.328.534.432.228.1.449.129.663.09.214-.04.367-.166.459-.377l1.199-2.752c.325-.746.88-1.206 1.665-1.382.711-.162 1.456-.073 2.232.266.776.338 1.347.82 1.711 1.444.408.701.45 1.424.125 2.17l-2.174 4.988z" fill="#9a999e"/><path d="m524.211 245.166 2.174-4.988c.325-.746.881-1.208 1.668-1.389.712-.161 1.458-.072 2.235.267.34.148.648.333.926.555.278.221.51.471.698.753.315-.052.655-.051 1.019.002.364.054.709.151 1.035.293.776.338 1.347.823 1.714 1.455.408.7.45 1.423.125 2.169l-2.174 4.988-1.997-.87 2.033-4.665c.092-.212.079-.417-.039-.614-.119-.197-.293-.347-.525-.447-.228-.099-.448-.124-.662-.077-.214.048-.369.182-.464.402l-2.033 4.665-1.99-.867-.056-.024 2.148-4.931c-.007-.161-.067-.313-.182-.449-.115-.137-.263-.245-.445-.324-.228-.1-.449-.125-.664-.077-.215.047-.37.181-.466.401l-2.033 4.665z" fill="#9a999e"/><path d="m520.465 253.629 1.523-3.496c.481-1.104 1.166-1.85 2.056-2.242.691-.303 1.488-.383 2.39-.242.59.093 1.199.277 1.827.551.116.051.209.093.276.128.068.035.126.067.173.099l4.444 1.937-.847 1.944-4.444-1.936c-.8-.349-1.542-.486-2.226-.416-.788.082-1.32.441-1.597 1.073l-1.523 3.496z" fill="#9a999e"/><path d="m516.817 262.135 2.174-4.988c.325-.746.881-1.208 1.668-1.389.712-.161 1.458-.072 2.235.267.339.148.648.333.926.554.278.222.51.472.698.754.315-.052.655-.051 1.019.002.364.054.708.151 1.034.293.776.338 1.348.823 1.715 1.455.408.7.449 1.423.125 2.169l-2.174 4.988-1.997-.87 2.032-4.665c.093-.212.079-.417-.038-.614-.119-.197-.293-.347-.525-.447-.227-.099-.448-.124-.662-.077-.214.048-.369.182-.465.402l-2.033 4.665-1.99-.867-.056-.024 2.148-4.931c-.007-.161-.067-.313-.182-.449-.115-.137-.263-.245-.445-.324-.228-.1-.449-.125-.664-.077-.214.047-.37.181-.465.401l-2.033 4.665z" fill="#9a999e"/><path d="m513.071 270.598 1.87-4.291c.448-1.03 1.286-1.631 2.513-1.805 1.098-.156 2.282.042 3.552.596 1.298.565 2.282 1.316 2.952 2.255.742 1.041.892 2.068.451 3.08l-1.87 4.291-1.997-.87 1.729-3.968c.207-.474.095-.967-.336-1.477-.386-.461-.939-.848-1.66-1.162-.744-.324-1.433-.476-2.067-.454-.701.022-1.153.267-1.355.732l-1.729 3.968z" fill="#9a999e"/><path d="m517.63 280.534.864-1.983-7.471-3.256.833-1.913 7.472 3.256.861-1.978 1.997.87-2.56 5.874z" fill="#9a999e"/><path d="m508.665 305.249 2.033-4.665c.092-.212.079-.416-.039-.613s-.293-.346-.525-.446c-.228-.1-.448-.126-.662-.078s-.369.181-.464.401l-1.197 2.745c-.323.742-.879 1.196-1.666 1.365-.716.155-1.465.062-2.247-.279-.787-.343-1.366-.825-1.736-1.449-.413-.692-.457-1.411-.132-2.156l2.179-5 2.011.877-2.041 4.684c-.086.198-.063.399.068.607.119.185.297.329.534.433.228.099.449.129.663.09.214-.04.367-.167.459-.378l1.199-2.752c.325-.746.88-1.206 1.665-1.381.711-.163 1.456-.073 2.232.266.776.338 1.347.82 1.711 1.444.408.701.45 1.423.125 2.169l-2.174 4.988z" fill="#9a999e"/><path d="m505.753 311.931.865-1.984-7.472-3.256.833-1.912 7.472 3.256.861-1.978 1.997.87-2.56 5.874z" fill="#9a999e"/><path d="m494.48 317.398.903-2.073 8.287.89c.08.02.139-.014.176-.1.04-.092.029-.167-.032-.231l-6.313-5.418.915-2.101c.524.424 1.309 1.07 2.353 1.941 1.156.97 2.255 1.905 3.297 2.806 1.137.987 1.764 1.564 1.881 1.728.188.291.28.634.276 1.023-.004.391-.09.778-.259 1.166-.167.385-.393.711-.677.982s-.596.432-.935.485c-.2.04-1.049-.021-2.544-.186-1.053-.115-2.484-.287-4.295-.518-1.008-.134-2.02-.264-3.033-.394z" fill="#9a999e"/><path d="m490.692 325.505 4.973-4.4-2.353-1.025.833-1.912 3.135 1.366c.754.329 1.29.77 1.608 1.324.366.636.378 1.343.039 2.122l-1.036 2.378c-.096.221-.085.431.032.63.105.179.27.316.497.416.232.101.453.132.664.09.235-.046.401-.179.497-.399l2.035-4.671 1.997.87-2.176 4.994c-.325.746-.879 1.207-1.664 1.382-.712.162-1.456.073-2.232-.265-.781-.341-1.354-.824-1.717-1.448-.406-.695-.445-1.418-.119-2.167l.526-1.208-3.298 2.899z" fill="#9a999e"/><path d="m495.563 335.316.864-1.984-7.471-3.256.833-1.912 7.472 3.256.861-1.978 1.997.87-2.56 5.874z" fill="#9a999e"/><path d="m504.518 467.048 3.556 7.406c.593 1.234.743 2.329.449 3.284-.294.953-.892 1.648-1.794 2.081-.758.364-1.52.439-2.288.228-.512-.141-1.018-.464-1.518-.969.22 1.027.165 1.885-.165 2.578-.331.692-.904 1.234-1.719 1.625-.664.319-1.335.452-2.012.398-.678-.055-1.3-.275-1.866-.663-.351-.239-.732-.674-1.14-1.301-.544-.835-.887-1.398-1.026-1.688l-3.28-6.831zm-3.105 6.403.826 1.721c.296.617.608.995.938 1.135.328.14.694.113 1.095-.08.373-.179.605-.439.7-.781.093-.343-.004-.814-.292-1.414l-.839-1.746zm-5.032 2.416.969 2.018c.327.682.679 1.103 1.055 1.267.375.163.767.147 1.175-.049.378-.182.616-.466.713-.853.098-.387-.021-.928-.353-1.62l-.964-2.009z" fill="#aeadb3"/><path d="m522.604 538.561-2.157-4.491-2.414.391-1.94-4.039 15.114-1.337 2.073 4.316-10.494 10.959-1.989-4.143zm2.374-2.15 3.924-3.624-5.274.813z" fill="#aeadb3"/><g fill="#727176"><path d="m361.282 307.838-40.542 9.307 40.542 9.259v-5.011l-22.786-4.247 22.786-4.295z"/><path d="m361.282 328.457v5.011h-40.542v-5.011z"/><path d="m361.287 337.951h-40.548v5.013h20.95l-20.95 6.971v4.622l19.171-5.577c1.689 3.098 3.899 4.01 3.899 4.01h12.88c4.141-2.052 4.597-5.593 4.597-5.593v-9.446zm-4.127 5.014v5.013h-14.09v-5.013z"/><path d="m361.282 354.564v14.987h-4.119v-5.012h-36.423v-5.011h36.423v-4.964z"/><path d="m361.287 397.279-40.506-9.682h-.042v4.966l5.465 1.05v7.003l-5.465 1.002v5.013zm-17.477 0-13.962 2.287v-4.95z"/><path d="m361.282 408.639v5.012h-36.423v7.495h-4.12v-12.507z"/><path d="m361.282 462.239v4.581l-17.474 4.677 17.474 4.25v5.059l-23.849-7.016h-16.693v-5.013h16.694z"/><path d="m361.282 453.244c0-5.695-4.592-7.525-4.592-7.525-.065.045-30.487 0-31.354 0-4.929.753-4.596 7.525-4.596 7.525 0 7.515 4.596 7.513 4.596 7.513h31.354c4.82-1.943 4.592-7.513 4.592-7.513zm-4.592-2.514v5.015h-31.824v-5.015z"/><path d="m361.282 371.507v5.06h-35.946v5.06h35.946v4.963h-35.946s-4.597-1.623-4.597-7.303c0-5.679 4.597-7.78 4.597-7.78z"/><path d="m361.287 426.684h-40.548v10.073c1.105 4.676 4.127 4.967 4.127 4.967s10.831-.008 13.631-.008c1.767-.354 1.826-1.951 1.826-1.951s.493-.006.882 0c.123 1.767 1.864 1.959 1.864 1.959s10.82-.008 13.621 0c3.308-.766 4.597-4.967 4.597-4.967zm-4.625 5.029v5.044h-13.592v-5.044zm-17.706-.016v5.061h-14.09v-5.061z"/><path d="m324.859 476.821v3.483h-.471v-1.48h-3.649v-.501h3.649v-1.502z"/><path d="m320.74 480.805h4.12v.501l-3.675 1.789 3.675 1.719v.525h-4.12v-.525h3.188l-3.188-1.483v-.506l3.188-1.519h-3.188z"/></g><path d="m294.683 351.671c0-7.252-6.265-15.326-14.717-15.326-8.451 0-14.716 7.354-14.716 15.326v88.934c-.61 8.451 6.265 15.327 14.716 15.327 8.452 0 14.717-7.088 14.717-15.327z" fill="#20201a"/><path d="m291.021 351.671c.304-5.674-4.611-11.664-11.055-11.664-6.441 0-11.018 4.897-11.054 11.664v88.934c-.093 6.858 4.612 11.665 11.054 11.665 6.443 0 11.551-5.773 11.055-11.665z" fill="#292922"/><path d="m272.763 364.951h9.291v4.223h-9.291z" fill="#20201a"/><path d="m282.476 378.645s-.088-1.753-1.41-3.076h.988v-4.224h-9.291v4.224h6.032c1.69.482 1.63 1.87 1.63 1.87 0 2.232-2.173 2.111-2.173 2.111h-5.489v4.042h5.611s4.102-.241 4.102-4.947z" fill="#20201a"/><path d="m282.476 412.731s-.088-1.753-1.41-3.076h.988v-4.224h-9.291v4.224h6.032c1.69.483 1.63 1.869 1.63 1.869 0 2.232-2.173 2.112-2.173 2.112h-5.489v4.042h5.611s4.102-.241 4.102-4.947z" fill="#20201a"/><path d="m283.744 364.951h2.805v4.223h-2.805z" fill="#20201a"/><path d="m283.019 392.28v-2.112h2.172v-4.223h-2.172v-1.749h-1.207v1.749h-9.049v4.223h9.049v2.112z" fill="#20201a"/><path d="m282.447 438.522c0-3.266-2.297-5.912-5.129-5.912s-5.127 2.646-5.127 5.912c0 3.265 2.295 5.913 5.127 5.913s5.129-2.649 5.129-5.913z" fill="#20201a"/><path d="m281.359 438.522c0-.895-.822-1.629-1.83-1.629h-4.422c-1.008 0-1.831.733-1.831 1.629 0 .897.823 1.629 1.831 1.629h4.422c1.008 0 1.83-.733 1.83-1.629z" fill="#292922"/><path d="m286.519 426.908h-4.744c.331-.606.52-1.263.52-1.9 0-3.168-2.229-5.735-4.977-5.735s-4.977 2.567-4.977 5.735c0 .599.238 1.267.648 1.9h-.227v4.224h13.756v-4.224z" fill="#20201a"/><path d="m280.968 425.255c0-.868-.75-1.58-1.668-1.58h-4.025c-.918 0-1.668.712-1.668 1.58 0 .869.75 1.581 1.668 1.581h4.026c.917 0 1.667-.712 1.667-1.581z" fill="#292922"/><path d="m275.478 399.975c-1.508 0-2.202-.768-2.202-1.708 0-.939.823-1.708 1.831-1.708h2.06v7.898c.05.001 5.279-.353 5.279-6.19 0-3.424-2.297-6.198-5.129-6.198s-5.127 2.774-5.127 6.198c0 2.638 1.365 4.886 3.287 5.781v-4.073z" fill="#20201a"/><path d="m278.615 399.975h.914c1.008 0 1.83-.768 1.83-1.708 0-.939-.822-1.708-1.83-1.708h-.914z" fill="#292922"/><path d="m286.548 348.179h-13.724v3.801h9.592l-9.653 6.094v4.343h13.785v-4.223h-9.623l9.623-6.034z" fill="#20201a"/></svg>