<svg enable-background="new 0 0 1400 1374" viewBox="0 0 1400 1374" xmlns="http://www.w3.org/2000/svg"><path d="m1310 0h-1220c-49.706 0-90 40.294-90 90v1070h1400v-1070c0-49.706-40.295-90-90-90z" fill="#87868a"/><path d="m0 1160v104c0 49.705 40.294 90 90 90h4.203c95.337 11.71 331.796 20 608.405 20 276.721 0 513.258-8.297 608.519-20.015 8.395-.103 16.512-1.354 24.203-3.604 13.492-2.523 20.671-5.168 20.671-7.895 0-.315-.107-.631-.299-.944 26.512-15.659 44.299-44.521 44.299-77.542v-104z" fill="#444242"/><path d="m45.354 1264c0 24.617 20.028 44.646 44.646 44.646h4.203 2.775l2.754.338c95.746 11.761 338.023 19.662 602.875 19.662 264.99 0 507.31-7.906 602.982-19.675l2.482-.306 2.502-.03c4.104-.051 8.147-.65 12.018-1.783l2.174-.636 2.226-.416c.021-.004.042-.008.063-.012l5.582-3.297c13.782-8.141 22.01-22.529 22.01-38.491v-104h-1309.292z" fill="#504f51"/><path d="m1309.999 45.355h-1220c-24.618 0-44.645 20.028-44.645 44.645v1070h1309.292v-1070c0-24.618-20.03-44.645-44.647-44.645z" fill="#918f94"/><path d="m174 1158.583c0 .782-.635 1.417-1.417 1.417h-35.165c-.783 0-1.417-.635-1.417-1.417v-1121.165c0-.783.635-1.418 1.417-1.418h35.165c.783 0 1.417.635 1.417 1.418z" fill="#7f7e82"/><path d="m1264 1158.583c0 .782-.635 1.417-1.418 1.417h-35.164c-.783 0-1.418-.635-1.418-1.417v-1121.165c0-.783.635-1.418 1.418-1.418h35.164c.783 0 1.418.635 1.418 1.418z" fill="#7f7e82"/><path d="m1199 917.827c0 7.827-6.346 14.173-14.173 14.173h-969.654c-7.828 0-14.173-6.346-14.173-14.173v-789.654c0-7.828 6.346-14.173 14.173-14.173h969.654c7.827 0 14.173 6.346 14.173 14.173z" fill="#7f7e82"/><path d="m735.75 1038.59h-71.5c-7.18 0-13 5.82-13 13 0 3.591 1.455 6.841 3.809 9.194l35.748 35.748c2.353 2.353 5.603 3.808 9.192 3.808 3.594 0 6.847-1.459 9.199-3.815l35.725-35.725c2.363-2.354 3.826-5.61 3.826-9.21.001-7.18-5.819-13-12.999-13z" fill="#7f7e82"/><path d="m1187 864.481c0 23.482-19.037 42.519-42.52 42.519h-888.96c-23.483 0-42.52-19.037-42.52-42.519v-688.961c0-23.483 19.037-42.52 42.52-42.52h888.961c23.482 0 42.52 19.037 42.52 42.52v688.961z" fill="#323131"/><path d="m873 227h-358l-140-94h646z" fill="#14150d" stroke="#bf0811" stroke-miterlimit="10" stroke-width="2.8347"/><g fill="#bf0811"><path d="m548.665 147.008 15.188 64.273 15.109-64.273h-8.177l-6.932 36.123-7.01-36.123z"/><path d="m582.311 147.008h8.178v64.273h-8.178z"/><path d="m597.806 147v64.283h8.181v-33.213l11.376 33.213h7.541l-9.1-30.393c5.056-2.677 6.544-6.182 6.544-6.182v-20.42c-3.349-6.564-9.126-7.288-9.126-7.288zm8.18 6.544h8.18v22.337h-8.18z"/><path d="m624.914 147.008h24.455v6.53h-8.178v57.743h-8.177v-57.743h-8.1z"/><path d="m694.618 147-15.799 64.215v.068h8.104l1.712-8.665h11.429l1.636 8.665h8.181zm0 27.708 3.732 22.135h-8.08z"/><path d="m713.157 147.008h8.177v57.742h12.229v6.531h-20.406z"/><path d="m800.621 147.008h7.475l7.634 27.703 6.932-27.703h8.256l-11.449 37.808v26.465h-8.178v-26.465z"/><path d="m785.946 147.008c-9.296 0-12.284 7.28-12.284 7.28.078.103 0 48.332 0 49.707 1.233 7.814 12.284 7.286 12.284 7.286 12.261 0 12.257-7.286 12.257-7.286v-49.707c-3.171-7.642-12.257-7.28-12.257-7.28zm-4.103 7.28h8.181v50.451h-8.181z"/><path d="m652.563 147.008h8.255v56.987h8.256v-56.987h8.1v56.987s-2.648 7.287-11.916 7.287-12.695-7.287-12.695-7.287z"/><path d="m742.602 147v64.283h16.438c7.629-1.753 8.104-6.544 8.104-6.544s-.014-17.169-.014-21.608c-.573-2.801-3.182-2.895-3.182-2.895s-.011-.782 0-1.399c2.885-.194 3.195-2.955 3.195-2.955s-.014-17.153 0-21.593c-1.248-5.244-8.104-7.288-8.104-7.288h-16.437zm8.206 7.333h8.232v21.548h-8.232zm-.025 28.069h8.257v22.337h-8.257z"/><path d="m824.415 204.75h5.685v.747h-2.415v5.784h-.817v-5.784h-2.453z"/><path d="m830.918 211.281v-6.531h.818l2.921 5.826 2.803-5.826h.857v6.531h-.857v-5.054l-2.419 5.054h-.825l-2.48-5.054v5.054z"/><path d="m1187 692.997v-7.234l-71.844-56.929h71.844v-5.669h-78.998l-50.897-40.331h77.176l52.72 32.791v-6.676l-41.985-26.115h41.984v-5.669h-51.1l-48.764-30.331h52.201l47.662 23.91v-6.343l-35.018-17.567h35.019v-5.669h-46.318l-44.514-22.331h57.432l33.4 14.688v-6.192l-19.318-8.496h19.318v-5.669h-974v5.669h24.513l-24.513 10.78v6.193l38.596-16.973h57.433l-44.514 22.331h-51.515v5.669h40.214l-40.214 20.174v6.342l52.857-26.516h38.202l-48.764 30.331h-42.295v5.669h33.181l-33.181 20.639v6.677l43.915-27.315h91.176l-50.897 40.331h-84.194v5.669h77.04l-77.04 61.046v7.232l86.168-68.279h98.265l-134.497 158.331h-49.936v5.67h45.12l-45.12 53.116v8.756l52.558-61.872h299.047l-23.676 114.165h5.79l23.677-114.165h264.404l23.677 114.165h5.79l-23.677-114.165h299.048l47.362 55.756v-8.756l-39.925-47h39.925v-5.67h-44.741l-134.496-158.331h98.265zm-61.834-115.831h-75.216l-38.277-30.331h64.729zm-335.094 0h-174.949l6.291-30.331h162.368zm-.501-30.332h141.098l25.766 30.331h-160.574zm-180.238 30.332h-160.572l25.765-30.331h141.098zm-168.01 0h-76.95l38.278-30.331h64.437zm2.622 5.668h164.212l-8.364 40.331h-190.108zm170.002 0h177.3l8.364 40.331h-194.028zm183.09 0h164.213l34.26 40.331h-190.109zm141.07-36h64.437l38.277 30.331h-76.949zm145.416-28 44.515 22.331h-50.016l-35.903-22.331zm-52.138 0 35.902 22.331h-62.769l-28.182-22.331zm-64.177 0 28.182 22.331h-62.099l-18.969-22.331zm-60.324 0 18.97 22.331h-137.458l-4.632-22.331zm-279.663 0h150.754l4.631 22.331h-160.017zm-5.79 0-4.631 22.331h-137.458l18.969-22.331zm-130.557 0-18.97 22.331h-62.099l28.182-22.331zm-62.015 0-28.182 22.331h-76.769l35.902-22.331zm-151.702 22.332 44.514-22.331h27.404l-35.902 22.331zm-11.128 36 48.764-30.331h78.729l-38.277 30.331zm40.293 46 50.897-40.331h79.289l-34.26 40.331zm259.459 163.999h-295.406l134.495-158.331h193.748zm5.79 0 32.836-158.331h196.38l32.837 158.331zm563.25 0h-295.407l-32.837-158.331h193.748zm-131.874-163.999-34.26-40.331h79.288l50.897 40.331z"/></g></svg>