<svg xmlns="http://www.w3.org/2000/svg" viewBox="0 0 30 30"><path d="M30 8.406V2.383C30 .98 29.062.034 27.656.034h-10.86c-.752 0-1.377.27-1.795.752-.406-.481-1.035-.752-1.791-.752H2.349C.95.034 0 .98 0 2.383v6.024c0 .768.279 1.393.769 1.807-.482.414-.752 1.03-.752 1.791v6.024c0 .761.27 1.377.743 1.791-.481.414-.76 1.039-.76 1.799v6.032c0 1.411.95 2.34 2.349 2.34h10.86c.756 0 1.385-.27 1.791-.743.418.473 1.043.743 1.795.743h10.86C29.062 30 30 29.062 30 27.651v-6.032c0-.76-.27-1.385-.752-1.799.473-.414.743-1.03.743-1.791v-6.024c0-.761-.279-1.377-.752-1.791.482-.414.761-1.039.761-1.808" fill="#6c6c6c"/><path d="M30 8.406V2.383C30 .98 29.062.034 27.656.034h-10.86c-.752 0-1.377.279-1.791.752-.41-.473-1.035-.752-1.795-.752H2.349C.951.034.005.98.005 2.383v6.024c0 .769.275 1.394.765 1.808-.482.414-.748 1.039-.748 1.791v6.032c0 .752.266 1.369.739 1.791-.481.406-.756 1.031-.756 1.799v6.024C.004 29.054.95 30 2.349 30h10.86c.76 0 1.385-.27 1.795-.752.414.482 1.039.752 1.791.752h10.86c1.407.008 2.345-.946 2.345-2.349v-6.024c0-.769-.266-1.394-.748-1.799.473-.422.739-1.039.739-1.791v-6.032c0-.752-.275-1.377-.748-1.791.482-.414.757-1.039.757-1.808M15.553 2.323c.017-.769.465-1.183 1.25-1.183h10.852c.807 0 1.246.439 1.246 1.242v6.024c0 .803-.439 1.25-1.246 1.25h-10.86c-.777 0-1.225-.431-1.242-1.2V2.323zm6.121 15.714c0 .752-.384 1.183-1.09 1.233h-3.789c-.059 0-.114.008-.169.008h-3.24c-.055 0-.118-.008-.177-.008H9.42c-.697-.05-1.09-.481-1.081-1.233v-6.032c-.008-.794.439-1.242 1.238-1.242h10.86c.803 0 1.238.448 1.238 1.242l-.001 6.032zM1.111 2.383c0-.803.431-1.242 1.238-1.242h10.86c.786 0 1.225.414 1.25 1.183-.008.025-.008.042-.008.051v6.082c-.017.769-.456 1.2-1.242 1.2H2.349c-.807 0-1.238-.448-1.238-1.25V2.383zm.017 15.654v-6.032c0-.794.431-1.242 1.238-1.242h3.607c.803 0 1.246.448 1.246 1.242v6.032c0 .752-.393 1.183-1.09 1.233h-3.78c-.017 0-.042.008-.059.008-.757-.033-1.162-.464-1.162-1.241m13.323 9.665c-.017.769-.456 1.191-1.242 1.191H2.349c-.807 0-1.238-.439-1.238-1.242v-6.024c0-.786.418-1.216 1.179-1.242.025 0 .051.008.076.008h3.607c.063 0 .123-.008.182-.008h3.248c.051 0 .114.008.173.008h3.789c.684.05 1.069.456 1.086 1.166v6.143zm14.451-6.074v6.024c0 .803-.439 1.242-1.246 1.242l-10.86-.008c-.777 0-1.225-.414-1.242-1.183V21.56c.017-.71.401-1.115 1.094-1.166h3.789c.063 0 .123-.008.173-.008h3.248c.063 0 .114.008.173.008h3.607c.034 0 .063-.008.089-.008.757.025 1.175.456 1.175 1.242m-1.246-2.357h-3.772c-.705-.05-1.09-.481-1.09-1.233v-6.032c0-.794.444-1.242 1.238-1.242h3.607c.807 0 1.246.448 1.246 1.242v6.032c0 .777-.41 1.208-1.157 1.233-.026.008-.047 0-.072 0" fill="#2e2e2e"/></svg>