<svg enable-background="new 0 0 653.052 723.5" viewBox="0 0 653.052 723.5" xmlns="http://www.w3.org/2000/svg" xmlns:xlink="http://www.w3.org/1999/xlink"><clipPath id="a"><path d="m68.543 366.495h49.542v49.542h-49.542z"/></clipPath><clipPath id="b"><path d="m68.543 366.495h49.542v49.542h-49.542z"/></clipPath><clipPath id="c"><path d="m69.505 184.934h47.789v47.788h-47.789z"/></clipPath><clipPath id="d"><path d="m69.505 184.934h47.789v47.788h-47.789z"/></clipPath><clipPath id="e"><path d="m498.731 184.575h48.807v48.807h-48.807z"/></clipPath><clipPath id="f"><path d="m498.731 184.575h48.807v48.807h-48.807z"/></clipPath><clipPath id="g"><path d="m282.623 282.01h49.787v49.786h-49.787z"/></clipPath><clipPath id="h"><path d="m282.623 282.01h49.787v49.786h-49.787z"/></clipPath><path d="m191.583 723.5c-4.756 0-8.625-3.869-8.625-8.625v-455.5c0-4.756 3.869-8.625 8.625-8.625h281.75c4.756 0 8.625 3.869 8.625 8.625v455.5c0 4.756-3.869 8.625-8.625 8.625z" fill="#0b0b0b"/><path d="m473.333 721.5h-281.75c-3.644 0-6.625-2.981-6.625-6.625v-455.5c0-3.644 2.981-6.625 6.625-6.625h281.75c3.644 0 6.625 2.981 6.625 6.625v455.5c0 3.644-2.981 6.625-6.625 6.625z" fill="#282828"/><path d="m180.541 171.25h8v75.25h-8z" fill="#989d9b"/><path d="m196.375 168.25h271.833v91.863h-271.833z" fill="#0b0b0b"/><path d="m197.875 169.75h268.833v88.863h-268.833z" fill="#282828"/><path d="m199.375 171.25h265.833v85.863h-265.833z" fill="#0e0e0e"/><path d="m182.666 163.375v-155.5c0-4.349 3.526-7.875 7.875-7.875h283.5c4.349 0 7.875 3.526 7.875 7.875v155.5c0 4.349-3.526 7.875-7.875 7.875h-283.5c-4.349 0-7.875-3.526-7.875-7.875z" fill="#0b0b0b"/><path d="m474.041 171.25h-283.5c-3.781 0-6.875-3.094-6.875-6.875v-156.5c0-3.781 3.094-6.875 6.875-6.875h283.5c3.781 0 6.875 3.094 6.875 6.875v156.5c0 3.781-3.093 6.875-6.875 6.875z" fill="#282828"/><path d="m470.916 171.25h-277.25c-3.781 0-6.875-3.094-6.875-6.875v-153.5c0-3.781 3.094-6.875 6.875-6.875h277.25c3.781 0 6.875 3.094 6.875 6.875v153.5c0 3.781-3.093 6.875-6.875 6.875z" fill="#0e0e0e"/><path d="m332.291 150.469c-38.543 0-69.9-31.357-69.9-69.9s31.357-69.9 69.9-69.9 69.9 31.357 69.9 69.9-31.357 69.9-69.9 69.9z" fill="#121212"/><path d="m332.291 147.469c-36.889 0-66.9-30.011-66.9-66.9s30.011-66.9 66.9-66.9 66.9 30.011 66.9 66.9-30.011 66.9-66.9 66.9z" fill="#0a0a0a"/><path d="m332.291 147.469c-36.889 0-66.9-30.011-66.9-66.9s30.011-66.9 66.9-66.9 66.9 30.011 66.9 66.9-30.011 66.9-66.9 66.9z" fill="#101010"/><path d="m332.291 145.462c-35.782 0-64.893-29.111-64.893-64.893s29.111-64.893 64.893-64.893 64.893 29.111 64.893 64.893c.001 35.782-29.111 64.893-64.893 64.893z" fill="#282829"/><circle cx="332.291" cy="80.569" fill="#d8d9d8" r="52.9"/><path d="m188.541 171.25h8v75.25h-8z" fill="#8e8f8e"/><path d="m476.208 171.25h8v75.25h-8z" fill="#989d9b"/><path d="m468.208 171.25h8v75.25h-8z" fill="#8e8f8e"/><path d="m471.416 721.5h-278.25c-3.644 0-6.625-2.981-6.625-6.625v-452.75c0-3.644 2.981-6.625 6.625-6.625h278.25c3.644 0 6.625 2.981 6.625 6.625v452.75c0 3.644-2.981 6.625-6.625 6.625z" fill="#0e0e0e"/><path d="m206.291 250.125v-71.875c.008-2.62 2.13-4.742 4.75-4.75h242c2.62.008 4.742 2.13 4.75 4.75v71.875l18.833 14.708v439.583c0 2.979-2.438 5.417-5.417 5.417h-278.332c-2.979 0-5.417-2.438-5.417-5.417v-439.583z" fill="#181818"/><path d="m272.425 425.109h-48c-6.6 0-12-5.4-12-12v-52.75c0-6.6 5.4-12 12-12h48c6.6 0 12 5.4 12 12v52.75c0 6.6-5.4 12-12 12z" fill="#282627"/><path d="m270.675 425.109h-44.964c-6.6 0-12-5.4-12-12v-46.112c0-6.6 5.4-12 12-12h44.964c6.6 0 12 5.4 12 12v46.112c0 6.6-5.4 12-12 12z" fill="#939393"/><path d="m270.925 425.109h-44.964c-6.6 0-12-5.4-12-12v-39.75c0-6.6 5.4-12 12-12h44.964c6.6 0 12 5.4 12 12v39.75c0 6.6-5.4 12-12 12z" fill="#b3b3b3"/><path d="m249.643 381.083h-.099l-5.651 3.05-.85-3.349 7.1-3.801h3.701v32.502h-4.201z"/><path d="m356.291 425.109h-48c-6.6 0-12-5.4-12-12v-52.75c0-6.6 5.4-12 12-12h48c6.6 0 12 5.4 12 12v52.75c0 6.6-5.4 12-12 12z" fill="#282627"/><path d="m354.541 425.109h-44.964c-6.6 0-12-5.4-12-12v-46.112c0-6.6 5.4-12 12-12h44.964c6.6 0 12 5.4 12 12v46.112c0 6.6-5.4 12-12 12z" fill="#939393"/><path d="m354.541 425.109h-44.964c-6.6 0-12-5.4-12-12v-39.75c0-6.6 5.4-12 12-12h44.964c6.6 0 12 5.4 12 12v39.75c0 6.6-5.4 12-12 12z" fill="#b3b3b3"/><path d="m356.041 425.109h-48c-6.6 0-12-5.4-12-12v-52.75c0-6.6 5.4-12 12-12h48c6.6 0 12 5.4 12 12v52.75c0 6.6-5.4 12-12 12z" fill="#282627"/><path d="m354.291 425.109h-44.964c-6.6 0-12-5.4-12-12v-46.112c0-6.6 5.4-12 12-12h44.964c6.6 0 12 5.4 12 12v46.112c0 6.6-5.4 12-12 12z" fill="#939393"/><path d="m354.773 425.109h-44.964c-6.6 0-12-5.4-12-12v-39.75c0-6.6 5.4-12 12-12h44.964c6.6 0 12 5.4 12 12v39.75c0 6.6-5.4 12-12 12z" fill="#b3b3b3"/><path d="m321.916 409.76v-2.7l3.5-3.3c8.251-7.9 12.051-12.15 12.101-17.051 0-3.301-1.6-6.4-6.45-6.4-2.95 0-5.4 1.55-6.9 2.8l-1.4-3.101c2.251-1.899 5.451-3.3 9.201-3.3 7 0 9.9 4.8 9.9 9.45 0 6.001-4.351 10.851-11.15 17.451l-2.601 2.45v.1h14.551v3.601z"/><path d="m439.658 425.109h-48c-6.6 0-12-5.4-12-12v-52.75c0-6.6 5.4-12 12-12h48c6.6 0 12 5.4 12 12v52.75c0 6.6-5.4 12-12 12z" fill="#282627"/><path d="m437.908 425.109h-44.964c-6.6 0-12-5.4-12-12v-46.112c0-6.6 5.4-12 12-12h44.964c6.6 0 12 5.4 12 12v46.112c0 6.6-5.4 12-12 12z" fill="#939393"/><path d="m438.39 425.109h-44.964c-6.6 0-12-5.4-12-12v-39.75c0-6.6 5.4-12 12-12h44.964c6.6 0 12 5.4 12 12v39.75c0 6.6-5.4 12-12 12z" fill="#b3b3b3"/><path d="m406.957 404.434c1.25.801 4.101 2.051 7.201 2.051 5.65 0 7.4-3.601 7.351-6.301-.051-4.55-4.15-6.5-8.401-6.5h-2.45v-3.3h2.45c3.2 0 7.251-1.65 7.251-5.501 0-2.6-1.65-4.9-5.7-4.9-2.601 0-5.101 1.15-6.501 2.15l-1.149-3.2c1.7-1.25 5-2.5 8.5-2.5 6.4 0 9.351 3.8 9.351 7.75 0 3.4-2.05 6.201-6.05 7.701v.1c4 .75 7.25 3.75 7.25 8.301 0 5.2-4.101 9.75-11.851 9.75-3.65 0-6.851-1.149-8.45-2.25z"/><path d="m272.675 511.442h-48c-6.6 0-12-5.4-12-12v-52.75c0-6.6 5.4-12 12-12h48c6.6 0 12 5.4 12 12v52.75c0 6.6-5.4 12-12 12z" fill="#282627"/><path d="m270.925 511.442h-44.964c-6.6 0-12-5.4-12-12v-46.112c0-6.6 5.4-12 12-12h44.964c6.6 0 12 5.4 12 12v46.112c0 6.6-5.4 12-12 12z" fill="#939393"/><path d="m270.441 511.442h-44.964c-6.6 0-12-5.4-12-12v-39.75c0-6.6 5.4-12 12-12h44.964c6.6 0 12 5.4 12 12v39.75c0 6.6-5.4 12-12 12z" fill="#b3b3b3"/><path d="m251.159 495.818v-8.851h-15.101v-2.899l14.501-20.752h4.75v20.251h4.551v3.4h-4.551v8.851zm0-12.251v-10.9c0-1.7.051-3.4.15-5.101l-.15-.05c-1 1.95-1.8 3.351-2.7 4.851l-7.95 11.101v.1h10.65z"/><path d="m356.291 511.442h-48c-6.6 0-12-5.4-12-12v-52.75c0-6.6 5.4-12 12-12h48c6.6 0 12 5.4 12 12v52.75c0 6.6-5.4 12-12 12z" fill="#282627"/><path d="m354.541 511.442h-44.964c-6.6 0-12-5.4-12-12v-46.112c0-6.6 5.4-12 12-12h44.964c6.6 0 12 5.4 12 12v46.112c0 6.6-5.4 12-12 12z" fill="#939393"/><path d="m354.773 511.442h-44.964c-6.6 0-12-5.4-12-12v-39.75c0-6.6 5.4-12 12-12h44.964c6.6 0 12 5.4 12 12v39.75c0 6.6-5.4 12-12 12z" fill="#b3b3b3"/><path d="m341.742 466.742h-12.4l-1.251 8.351c.751-.1 1.45-.2 2.65-.2 2.5 0 5.001.551 7.001 1.75 2.5 1.45 4.65 4.301 4.65 8.351 0 6.351-5.051 11.101-12.102 11.101-3.55 0-6.55-1-8.1-2l1.1-3.351c1.35.801 4 1.801 7 1.801 4.101 0 7.651-2.7 7.651-7.051 0-4.2-2.851-7.2-9.351-7.2-1.851 0-3.301.2-4.501.351l2.101-15.602h15.551v3.699z"/><path d="m439.908 511.442h-48c-6.6 0-12-5.4-12-12v-52.75c0-6.6 5.4-12 12-12h48c6.6 0 12 5.4 12 12v52.75c0 6.6-5.4 12-12 12z" fill="#282627"/><path d="m438.158 511.442h-44.964c-6.6 0-12-5.4-12-12v-46.112c0-6.6 5.4-12 12-12h44.964c6.6 0 12 5.4 12 12v46.112c0 6.6-5.4 12-12 12z" fill="#939393"/><path d="m438.39 511.442h-44.964c-6.6 0-12-5.4-12-12v-39.75c0-6.6 5.4-12 12-12h44.964c6.6 0 12 5.4 12 12v39.75c0 6.6-5.4 12-12 12z" fill="#b3b3b3"/><path d="m423.858 466.398c-.949 0-2 0-3.3.25-6.9 1.1-10.551 6.15-11.301 11.551h.101c1.55-2.15 4.3-3.851 7.9-3.851 5.75 0 9.801 4.2 9.801 10.551 0 5.95-4.051 11.45-10.852 11.45-6.9 0-11.45-5.4-11.45-13.851 0-6.351 2.25-11.45 5.5-14.65 2.7-2.65 6.301-4.301 10.401-4.801 1.3-.2 2.35-.3 3.199-.25zm-1.25 18.751c0-4.65-2.649-7.45-6.7-7.45-2.65 0-5.15 1.649-6.351 4-.295.59-.448 1.24-.449 1.9.1 5.399 2.55 9.4 7.15 9.4 3.8.001 6.35-3.199 6.35-7.85z"/><path d="m272.675 597.776h-48c-6.6 0-12-5.4-12-12v-52.75c0-6.6 5.4-12 12-12h48c6.6 0 12 5.4 12 12v52.75c0 6.6-5.4 12-12 12z" fill="#282627"/><path d="m270.925 597.776h-44.964c-6.6 0-12-5.4-12-12v-46.112c0-6.6 5.4-12 12-12h44.964c6.6 0 12 5.4 12 12v46.112c0 6.6-5.4 12-12 12z" fill="#939393"/><path d="m270.925 597.776h-44.964c-6.6 0-12-5.4-12-12v-39.75c0-6.6 5.4-12 12-12h44.964c6.6 0 12 5.4 12 12v39.75c0 6.6-5.4 12-12 12z" fill="#b3b3b3"/><path d="m258.694 549.65v2.9l-14.152 29.602h-4.55l14.101-28.752v-.1h-15.9v-3.65z"/><path d="m356.291 597.776h-48c-6.6 0-12-5.4-12-12v-52.75c0-6.6 5.4-12 12-12h48c6.6 0 12 5.4 12 12v52.75c0 6.6-5.4 12-12 12z" fill="#282627"/><path d="m354.541 597.776h-44.964c-6.6 0-12-5.4-12-12v-46.112c0-6.6 5.4-12 12-12h44.964c6.6 0 12 5.4 12 12v46.112c0 6.6-5.4 12-12 12z" fill="#939393"/><path d="m354.523 597.776h-44.964c-6.6 0-12-5.4-12-12v-39.75c0-6.6 5.4-12 12-12h44.964c6.6 0 12 5.4 12 12v39.75c0 6.6-5.4 12-12 12z" fill="#b3b3b3"/><path d="m321.066 573.901c0-4.05 2.449-6.95 6.4-8.7v-.2c-3.601-1.65-5.201-4.45-5.201-7.25 0-5.101 4.4-8.651 10.101-8.651 6.301 0 9.451 3.951 9.451 8.001 0 2.75-1.351 5.7-5.351 7.601v.149c4.051 1.551 6.551 4.501 6.551 8.401 0 5.7-4.851 9.45-11.101 9.45-6.751 0-10.85-4.05-10.85-8.801zm17.501-.199c0-3.9-2.751-5.851-7.15-7.051-3.801 1.05-5.851 3.6-5.851 6.7-.15 3.25 2.35 6.15 6.5 6.15 3.95.001 6.501-2.45 6.501-5.799zm-12.102-16.252c-.05 3.251 2.45 5.001 6.201 6.001 2.8-.95 4.9-2.95 4.9-5.9 0-2.601-1.501-5.301-5.501-5.301-3.599 0-5.6 2.4-5.6 5.2z"/><path d="m439.908 597.776h-48c-6.6 0-12-5.4-12-12v-52.75c0-6.6 5.4-12 12-12h48c6.6 0 12 5.4 12 12v52.75c0 6.6-5.4 12-12 12z" fill="#282627"/><path d="m438.158 597.776h-44.964c-6.6 0-12-5.4-12-12v-46.112c0-6.6 5.4-12 12-12h44.964c6.6 0 12 5.4 12 12v46.112c0 6.6-5.4 12-12 12z" fill="#939393"/><path d="m437.836 597.776h-44.964c-6.6 0-12-5.4-12-12v-39.75c0-6.6 5.4-12 12-12h44.964c6.6 0 12 5.4 12 12v39.75c0 6.6-5.4 12-12 12z" fill="#b3b3b3"/><path d="m407.18 579.068c.949.101 2.05 0 3.55-.149 2.5-.351 4.95-1.4 6.801-3.15 2.149-1.95 3.7-4.801 4.3-8.65h-.15c-1.85 2.25-4.399 3.5-7.7 3.5-5.8 0-9.551-4.4-9.551-9.951 0-6.15 4.45-11.551 11.101-11.551s10.751 5.4 10.751 13.701c0 7.15-2.4 12.151-5.601 15.251-2.5 2.45-5.95 3.95-9.45 4.351-1.601.25-3.05.3-4.05.25zm1.599-18.652c0 4.001 2.45 6.9 6.301 6.9 2.899 0 5.2-1.5 6.35-3.45.2-.399.45-.85.45-1.6 0-5.551-2.1-9.801-6.7-9.801-3.75.001-6.401 3.302-6.401 7.951z"/><path d="m272.675 690.109h-48c-6.6 0-12-5.4-12-12v-52.75c0-6.6 5.4-12 12-12h48c6.6 0 12 5.4 12 12v52.75c0 6.6-5.4 12-12 12z" fill="#282627"/><path d="m270.925 690.109h-44.964c-6.6 0-12-5.4-12-12v-46.112c0-6.6 5.4-12 12-12h44.964c6.6 0 12 5.4 12 12v46.112c0 6.6-5.4 12-12 12z" fill="#2f3133"/><path d="m270.925 690.109h-44.964c-6.6 0-12-5.4-12-12v-39.75c0-6.6 5.4-12 12-12h44.964c6.6 0 12 5.4 12 12v39.75c0 6.6-5.4 12-12 12z" fill="#36393b"/><path d="m251.243 643.999-1.611 11.948.116.202 9.368-7.2 2.638 4.569-10.842 4.646.077.134 11.143 4.407-2.809 4.756-9.527-7.039-.134.077 1.101 11.994-5.225-.208 1.65-11.881-.078-.134-9.205 7.017-2.638-4.568 10.546-4.387-.011-.174-11.047-4.55 2.74-4.717 9.518 6.866.134-.077-1.292-11.705z" fill="#f4f4f4"/><path d="m356.291 690.109h-48c-6.6 0-12-5.4-12-12v-52.75c0-6.6 5.4-12 12-12h48c6.6 0 12 5.4 12 12v52.75c0 6.6-5.4 12-12 12z" fill="#282627"/><path d="m354.541 690.109h-44.964c-6.6 0-12-5.4-12-12v-46.112c0-6.6 5.4-12 12-12h44.964c6.6 0 12 5.4 12 12v46.112c0 6.6-5.4 12-12 12z" fill="#939393"/><path d="m354.773 690.109h-44.964c-6.6 0-12-5.4-12-12v-39.75c0-6.6 5.4-12 12-12h44.964c6.6 0 12 5.4 12 12v39.75c0 6.6-5.4 12-12 12z" fill="#b3b3b3"/><path d="m343.317 657.884c0 11.05-4.101 17.15-11.301 17.15-6.351 0-10.65-5.95-10.751-16.7 0-10.901 4.7-16.901 11.301-16.901 6.851 0 10.751 6.101 10.751 16.451zm-17.651.5c0 8.45 2.601 13.25 6.601 13.25 4.5 0 6.65-5.25 6.65-13.55 0-8.001-2.05-13.201-6.601-13.201-3.849 0-6.65 4.651-6.65 13.501z"/><path d="m438.858 690.109h-48c-6.6 0-12-5.4-12-12v-52.75c0-6.6 5.4-12 12-12h48c6.6 0 12 5.4 12 12v52.75c0 6.6-5.4 12-12 12z" fill="#282627"/><path d="m437.108 690.109h-44.964c-6.6 0-12-5.4-12-12v-46.112c0-6.6 5.4-12 12-12h44.964c6.6 0 12 5.4 12 12v46.112c0 6.6-5.4 12-12 12z" fill="#2f3133"/><path d="m437.108 690.109h-44.964c-6.6 0-12-5.4-12-12v-39.75c0-6.6 5.4-12 12-12h44.964c6.6 0 12 5.4 12 12v39.75c0 6.6-5.4 12-12 12z" fill="#36393b"/><path d="m406.851 674.485 1.3-9.801h-4.1v-2.95h4.55l1-7.25h-4.351v-2.95h4.751l1.3-9.551h2.9l-1.25 9.551h5.2l1.3-9.551h2.95l-1.25 9.551h4.05v2.95h-4.5l-.899 7.25h4.3v2.95h-4.75l-1.301 9.801h-3l1.3-9.801h-5.2l-1.3 9.801zm9.95-12.751.95-7.25h-5.2l-.95 7.25z" fill="#f4f4f4"/><path d="m196.375 252.75h1.5v2.75h-1.5zm270.333 0h1.5v2.75h-1.5z" fill="#282828"/><path d="m391.208 226.5h-117.833c-6.6 0-12-5.4-12-12v-6c0-6.6 5.4-12 12-12h117.833c6.6 0 12 5.4 12 12v6c0 6.6-5.4 12-12 12z" fill="#1c1c1c"/><path d="m314.153 220.933v-18.84h5.998v13.373h11.35v5.467z" fill="#232323"/><path d="m319.651 215.966h11.35v4.467h-16.348v-17.84h4.998z" fill="#0e0e0e"/><path d="m332.1 220.933v-18.84h18.728v5.066h-12.73v2.049h11.843v4.53h-11.843v2.156h12.73v5.039z" fill="#232323"/><path d="m332.6 202.593h17.727v4.066h-12.729v3.049h11.843v3.53h-11.843v3.156h12.729v4.039h-17.727z" fill="#0e0e0e"/><path d="m295.966 220.638c-3.036 0-5.506-2.646-5.506-5.9v-6.771c0-3.253 2.47-5.9 5.506-5.9h12.237c3.036 0 5.506 2.647 5.506 5.9v6.771c0 3.253-2.47 5.9-5.506 5.9zm2.424-13.571c-1.301 0-2.36 1.16-2.36 2.586v3.4c0 1.426 1.059 2.585 2.36 2.585h7.39c1.302 0 2.361-1.16 2.361-2.585v-3.4c0-1.426-1.059-2.586-2.361-2.586z" fill="#232323"/><path d="m308.203 202.567h-12.237c-2.765 0-5.006 2.418-5.006 5.4v6.771c0 2.982 2.241 5.4 5.006 5.4h12.237c2.765 0 5.006-2.418 5.006-5.4v-6.771c0-2.982-2.241-5.4-5.006-5.4zm.437 10.486c0 1.704-1.281 3.086-2.861 3.086h-7.39c-1.58 0-2.861-1.382-2.861-3.086v-3.4c0-1.704 1.281-3.086 2.861-3.086h7.39c1.58 0 2.861 1.382 2.861 3.086z" fill="#0e0e0e"/><path d="m273.297 220.638c-2.899 0-5.257-2.646-5.257-5.9v-6.771c0-3.253 2.358-5.9 5.257-5.9h11.627c2.898 0 5.257 2.647 5.257 5.9v1.457h-5.325l-.084-.396c-.247-1.155-1.131-1.962-2.15-1.962h-7.022c-1.223 0-2.218 1.16-2.218 2.586v3.4c0 1.426.995 2.585 2.218 2.585h7.022c1.019 0 1.903-.807 2.15-1.961l.084-.396h5.325v1.457c0 3.253-2.358 5.9-5.257 5.9z" fill="#232323"/><path d="m285.261 213.781c-.289 1.352-1.359 2.357-2.639 2.357h-7.022c-1.501 0-2.718-1.382-2.718-3.086v-3.4c0-1.704 1.217-3.086 2.718-3.086h7.022c1.28 0 2.35 1.005 2.639 2.357h4.421v-.957c0-2.982-2.13-5.4-4.757-5.4h-11.628c-2.627 0-4.757 2.418-4.757 5.4v6.771c0 2.982 2.13 5.4 4.757 5.4h11.628c2.627 0 4.757-2.418 4.757-5.4v-.957h-4.421z" fill="#0e0e0e"/><path d="m378.8 220.638c-3.036 0-5.507-2.646-5.507-5.9v-6.771c0-3.253 2.471-5.9 5.507-5.9h12.236c3.036 0 5.506 2.647 5.506 5.9v6.771c0 3.253-2.47 5.9-5.506 5.9zm2.423-13.571c-1.302 0-2.36 1.16-2.36 2.586v3.4c0 1.426 1.059 2.585 2.36 2.585h7.39c1.302 0 2.361-1.16 2.361-2.585v-3.4c0-1.426-1.06-2.586-2.361-2.586z" fill="#232323"/><path d="m391.036 202.567h-12.237c-2.765 0-5.006 2.418-5.006 5.4v6.771c0 2.982 2.241 5.4 5.006 5.4h12.237c2.765 0 5.006-2.418 5.006-5.4v-6.771c.001-2.982-2.241-5.4-5.006-5.4zm.438 10.486c0 1.704-1.281 3.086-2.861 3.086h-7.39c-1.58 0-2.861-1.382-2.861-3.086v-3.4c0-1.704 1.281-3.086 2.861-3.086h7.39c1.58 0 2.861 1.382 2.861 3.086z" fill="#0e0e0e"/><path d="m356.13 220.638c-2.898 0-5.257-2.646-5.257-5.9v-6.771c0-3.253 2.358-5.9 5.257-5.9h11.628c2.898 0 5.257 2.647 5.257 5.9v1.457h-5.325l-.085-.396c-.247-1.155-1.131-1.962-2.149-1.962h-7.022c-1.223 0-2.218 1.16-2.218 2.586v3.4c0 1.426.995 2.585 2.218 2.585h7.022c1.019 0 1.902-.807 2.149-1.961l.085-.396h5.325v1.457c0 3.253-2.358 5.9-5.257 5.9z" fill="#232323"/><path d="m368.094 213.781c-.289 1.352-1.359 2.357-2.639 2.357h-7.022c-1.501 0-2.718-1.382-2.718-3.086v-3.4c0-1.704 1.217-3.086 2.718-3.086h7.022c1.28 0 2.35 1.005 2.639 2.357h4.421v-.957c0-2.982-2.13-5.4-4.757-5.4h-11.628c-2.627 0-4.757 2.418-4.757 5.4v6.771c0 2.982 2.13 5.4 4.757 5.4h11.628c2.627 0 4.757-2.418 4.757-5.4v-.957h-4.421z" fill="#0e0e0e"/><g fill="#666"><ellipse cx="332.375" cy="80.569" rx="2.453" ry="2.4"/><ellipse cx="184.541" cy="208.602" rx="2.453" ry="2.4"/><ellipse cx="480.208" cy="208.602" rx="2.453" ry="2.4"/><path d="m184.541 208.568-17.935.068"/><path d="m184.539 208.001-17.935.068.004 1.133 17.936-.067"/><path d="m498.144 208.841-17.936.068"/><path d="m498.141 208.274-17.935.068.005 1.133 17.935-.067"/><ellipse cx="248.443" cy="390.053" rx="2.453" ry="2.4"/><ellipse cx="331.81" cy="390.053" rx="2.453" ry="2.4"/><ellipse cx="415.426" cy="390.234" rx="2.453" ry="2.4"/><ellipse cx="248.443" cy="476.386" rx="2.453" ry="2.4"/><ellipse cx="332.458" cy="476.386" rx="2.453" ry="2.4"/><ellipse cx="415.908" cy="476.386" rx="2.453" ry="2.4"/><ellipse cx="248.675" cy="562.72" rx="2.453" ry="2.4"/><ellipse cx="332.016" cy="562.72" rx="2.453" ry="2.4"/><ellipse cx="248.443" cy="655.219" rx="2.453" ry="2.4"/><ellipse cx="414.626" cy="655.219" rx="2.453" ry="2.4"/><path d="m332.375 80.569-165.769.068"/><path d="m332.375 80.003-165.769.067v1.134l165.769-.068"/><path d="m248.193 390.019-81.587.068"/><path d="m248.193 389.453-81.587.067.001 1.134 81.587-.068"/><path d="m331.776 337.753.067 52.481"/><path d="m331.209 337.754.068 52.481 1.133-.002-.068-52.48"/><path d="m497.013 390.2-81.587.068"/><path d="m497.013 389.633-81.587.068.001 1.133 81.587-.067"/><path d="m415.356 508.042h82.788v-1.133h-82.788"/><path d="m248.152 476.353-81.587.067"/><path d="m248.152 475.786-81.587.068.001 1.133 81.587-.068"/><path d="m415.874 476.386.068 31.09"/><path d="m415.307 476.388.068 31.089 1.133-.003-.067-31.089m-84.535-30.521h166.238v-1.133h-166.238m.586.566-.068 31.089"/><path d="m331.925 445.296-.067 31.089 1.133.003.068-31.09m165.085 117.422-166.081.067m166.08-.634-166.08.068v1.133l166.081-.068m-249.469-.566-82.069.067m82.068-.634-82.068.068.001 1.133 82.068-.068m-.232 91.767-81.837.068m81.837-.635-81.837.068.001 1.133 81.837-.067m166.182.166h83.518v-1.134h-83.518"/></g><path d="m163.432 363.396h-92.252c-2.713.001-4.912 2.2-4.913 4.913v45.02c.001 2.713 2.2 4.912 4.913 4.913h92.252c2.712 0 4.911-2.199 4.911-4.911v-.001-45.02c.001-2.712-2.198-4.912-4.91-4.913-.001-.001-.001-.001-.001-.001" fill="#f4f4f4"/><path d="m71.18 363.396v1.297h92.252c1.995.003 3.611 1.619 3.614 3.614v45.02c-.003 1.995-1.619 3.611-3.614 3.614h-92.252c-1.995-.003-3.611-1.619-3.614-3.614v-45.02c.003-1.995 1.619-3.611 3.614-3.614v-2.595c-3.429.001-6.209 2.781-6.21 6.21v45.02c.001 3.429 2.781 6.209 6.21 6.21h92.252c3.429-.001 6.209-2.781 6.21-6.21v-45.02c-.001-3.429-2.781-6.209-6.21-6.21h-92.252z" fill="#35495e"/><path d="m140.453 388.111 4.828-7.721h3.126l-6.363 9.989 6.516 10.156h-3.154l-4.953-7.859-4.982 7.859h-3.141l6.531-10.156-6.379-9.989h3.113z" fill="#35495e"/><path clip-path="url(#a)" d="m108.955 397.17c-3.779.022-6.861-3.024-6.883-6.803s3.024-6.861 6.803-6.883h.082c3.779.001 6.843 3.065 6.842 6.845 0 3.778-3.065 6.842-6.844 6.841zm-14.397-11.225c-3.779 0-6.843-3.064-6.843-6.843s3.064-6.843 6.843-6.843 6.843 3.064 6.843 6.843c-.001 3.78-3.064 6.843-6.843 6.843m-2.465 24.481c-3.779 0-6.842-3.063-6.842-6.842s3.063-6.842 6.842-6.842 6.842 3.063 6.842 6.842-3.064 6.842-6.842 6.842m-14.222-11.51c-3.779 0-6.842-3.063-6.842-6.842s3.063-6.842 6.842-6.842 6.842 3.063 6.842 6.842-3.064 6.842-6.842 6.842m15.537-32.421c-13.656 0-24.727 11.07-24.727 24.727s11.071 24.727 24.727 24.727 24.727-11.071 24.727-24.727c.001-13.658-11.07-24.727-24.727-24.727" fill="#35495e"/><path clip-path="url(#b)" d="m113.839 390.328c.001 2.697-2.185 4.885-4.883 4.885-2.697.001-4.885-2.185-4.885-4.883-.001-2.697 2.185-4.885 4.883-4.885 2.697-.001 4.884 2.185 4.885 4.883m-16.909 13.257c0 2.672-2.166 4.837-4.837 4.837s-4.837-2.166-4.837-4.837 2.166-4.837 4.837-4.837 4.837 2.166 4.837 4.837m-13.965-11.511c0 2.815-2.282 5.097-5.097 5.097s-5.097-2.282-5.097-5.097 2.282-5.097 5.097-5.097 5.097 2.282 5.097 5.097" fill="#35495e"/><path d="m596.191 349.637h-95.261c-2.712 0-4.911 2.199-4.911 4.911v45.01c0 2.712 2.199 4.911 4.911 4.911h95.261c2.713 0 4.911-2.199 4.911-4.911v-45.01c0-2.712-2.199-4.911-4.911-4.911z" fill="#f4f4f4"/><path d="m500.93 349.637v1.317h95.26c1.984.003 3.592 1.611 3.594 3.595v45.01c-.003 1.984-1.61 3.592-3.594 3.595h-95.26c-1.984-.003-3.592-1.611-3.595-3.595v-45.01c.003-1.984 1.611-3.592 3.595-3.595v-2.634c-3.439 0-6.227 2.788-6.227 6.227v45.01c0 3.439 2.788 6.227 6.227 6.227h95.26c3.439 0 6.227-2.788 6.227-6.227v-45.01c0-3.439-2.788-6.227-6.227-6.227h-95.26z" fill="#35495e"/><path d="m570.769 378.741h-4.732v8.15h-2.67v-20.145h6.669c2.268 0 4.012.516 5.23 1.55 1.227 1.034 1.841 2.536 1.841 4.511 0 1.254-.342 2.348-1.024 3.279-.673.932-1.615 1.628-2.822 2.089l4.732 8.55v.166h-2.851zm-4.732-2.173h4.082c1.32 0 2.366-.342 3.141-1.024.784-.682 1.177-1.596 1.177-2.739 0-1.245-.373-2.2-1.121-2.864-.738-.664-1.808-1.001-3.21-1.01h-4.068v7.637zm22.526 10.321h-2.574v-17.06l-5.161 1.897v-2.324l7.333-2.753h.402zm-67.741-13.04h2.198c.892 0 1.381.386 1.381 1.264 0 .923-.49 1.31-1.381 1.31h-2.198zm-2.002 7.571h2.002v-3.567h2.009c1.009 0 1.381.423 1.52 1.382.101.728.075 1.612.318 2.187h2.003c-.357-.512-.345-1.582-.387-2.161-.064-.919-.339-1.88-1.322-2.136 0 0 1.442-.374 1.442-2.315 0-1.382-1.036-2.517-2.67-2.517h-4.918z" fill="#35495e"/><path d="m536.001 368.212c4.299 0 7.795 3.88 7.795 8.646 0 4.777-3.497 8.666-7.795 8.666h-26.566c-4.267-.038-7.736-3.926-7.736-8.666 0-4.729 3.471-8.61 7.721-8.646zm0-1.854h-26.581c-5.291.046-9.574 4.722-9.574 10.5 0 5.782 4.284 10.471 9.574 10.52h26.581c5.33 0 9.649-4.711 9.649-10.52 0-5.807-4.32-10.5-9.649-10.5z" fill="#35495e"/><path d="m597.058 535.305h-96.229c-2.712 0-4.91 2.198-4.91 4.91v45.007c0 2.712 2.198 4.91 4.91 4.91h96.229c2.712 0 4.91-2.198 4.91-4.91v-45.006c.001-2.712-2.197-4.911-4.909-4.911-.001 0-.001 0-.001 0" fill="#f4f4f4"/><path d="m500.829 535.305v1.322h96.227c1.98.003 3.585 1.608 3.588 3.588v45.007c-.003 1.98-1.608 3.585-3.588 3.588h-96.227c-1.98-.003-3.585-1.608-3.588-3.588v-45.007c.003-1.98 1.608-3.585 3.588-3.588v-2.644c-3.442.001-6.233 2.791-6.234 6.234v45.007c.001 3.442 2.791 6.233 6.234 6.233h96.227c3.442-.001 6.233-2.791 6.233-6.233v-45.007c-.001-3.442-2.791-6.233-6.233-6.233h-96.227z" fill="#35495e"/><path d="m566.193 570.265h9.547v2.172h-12.217v-20.145h2.67zm15.662-9.145h1.923c1.209-.018 2.158-.337 2.851-.954.692-.617 1.037-1.452 1.037-2.504 0-2.361-1.177-3.542-3.528-3.542-1.106 0-1.993.318-2.656.954-.655.627-.983 1.463-.983 2.504h-2.56c0-1.595.581-2.92 1.743-3.971 1.171-1.061 2.656-1.591 4.455-1.591 1.901 0 3.39.503 4.469 1.508s1.618 2.402 1.618 4.192c0 .876-.286 1.725-.858 2.545-.563.82-1.333 1.434-2.31 1.841 1.106.351 1.96.932 2.56 1.743.608.811.913 1.803.913 2.974 0 1.808-.59 3.242-1.771 4.303-1.18 1.061-2.717 1.591-4.607 1.591-1.892 0-3.431-.512-4.622-1.535-1.18-1.024-1.771-2.375-1.771-4.053h2.574c0 1.061.346 1.91 1.037 2.545.692.637 1.618.954 2.781.954 1.236 0 2.181-.322 2.837-.969.655-.646.983-1.573.983-2.781 0-1.171-.36-2.071-1.079-2.698s-1.758-.95-3.114-.969h-1.923v-2.089zm-58.727-21.886c-13.117 0-23.746 10.631-23.746 23.746 0 13.118 10.629 23.746 23.746 23.746s23.746-10.629 23.746-23.746c0-13.112-10.632-23.746-23.746-23.746zm7.661 12.542c2.333 0 4.064.452 5.218 1.34 1.162.879 1.772 2.198 1.772 3.974 0 1.212-.308 2.192-.862 2.968-.554.768-1.36 1.313-2.441 1.628 1.21.36 2.151 1.018 2.777 1.915.633.888.91 2.022.91 3.4 0 2.053-.647 3.619-2.011 4.692-1.362 1.063-3.371 1.58-5.984 1.58-.922 0-1.846-.064-2.777-.239-.931-.171-1.844-.428-2.729-.766v-4.117c.817.465 1.684.834 2.586 1.101.858.25 1.664.383 2.49.383 1.227 0 2.175-.227 2.825-.718.658-.49 1.005-1.191 1.005-2.106 0-.944-.331-1.673-1.005-2.154-.666-.49-1.661-.718-2.968-.718h-1.867v-3.446h1.963c1.162 0 2.016-.207 2.586-.623.569-.425.862-1.054.862-1.915 0-.796-.261-1.433-.814-1.867-.554-.434-1.335-.671-2.345-.671-.746 0-1.537.094-2.298.287-.779.204-1.534.493-2.25.862v-3.878c.892-.291 1.804-.516 2.729-.671.867-.151 1.746-.232 2.628-.241zm-21.208.384h4.644v16.66h8.138v4.069h-12.782z" fill="#35495e"/><path d="m163.473 181.146h-92.252c-2.712 0-4.911 2.199-4.911 4.911v.001 45.02c0 2.712 2.199 4.911 4.911 4.911h92.252c2.713 0 4.912-2.199 4.913-4.911v-45.02c-.001-2.713-2.201-4.912-4.913-4.912" fill="#f4f4f4"/><path d="m71.221 181.146v1.297h92.252c1.995.003 3.611 1.619 3.614 3.614v45.02c-.003 1.995-1.619 3.611-3.614 3.614h-92.252c-1.995-.003-3.611-1.619-3.614-3.614v-45.02c.003-1.995 1.619-3.611 3.614-3.614v-2.595c-3.43 0-6.21 2.78-6.21 6.21v45.02c.001 3.429 2.781 6.209 6.21 6.21h92.252c3.429-.001 6.209-2.781 6.21-6.21v-45.02c0-3.43-2.78-6.21-6.21-6.21h-92.252z" fill="#35495e"/><path d="m145.045 213.028h-8.44l-1.895 5.257h-2.739l7.692-20.145h2.324l7.706 20.145h-2.726c.001 0-1.922-5.257-1.922-5.257zm-7.637-2.186h6.848l-3.431-9.422z" fill="#35495e"/><path clip-path="url(#c)" d="m108.485 214.523c-3.645.051-6.64-2.863-6.691-6.508s2.863-6.64 6.508-6.691c.062-.001.123-.001.185 0 3.645.055 6.555 3.054 6.5 6.699-.054 3.568-2.934 6.447-6.502 6.5m-13.886-10.828c-3.644 0-6.599-2.954-6.599-6.599 0-3.644 2.954-6.599 6.599-6.599s6.599 2.954 6.599 6.599c-.001 3.645-2.955 6.599-6.599 6.599zm-2.378 23.615c-3.644 0-6.599-2.954-6.599-6.599s2.954-6.599 6.599-6.599c3.644 0 6.599 2.954 6.599 6.599s-2.955 6.599-6.599 6.599m-13.719-11.103c-3.644 0-6.599-2.954-6.599-6.599 0-3.644 2.954-6.599 6.599-6.599 3.644-.001 6.598 2.953 6.599 6.596v.001c.001 3.644-2.951 6.599-6.595 6.6-.001.001-.003.001-.004.001m14.988-31.273c-13.173 0-23.852 10.678-23.852 23.852 0 13.173 10.679 23.852 23.852 23.852s23.852-10.679 23.852-23.852c0-13.174-10.679-23.852-23.852-23.852" fill="#35495e"/><path clip-path="url(#d)" d="m96.887 220.71c-.001 2.578-2.091 4.668-4.67 4.667-2.578-.001-4.668-2.091-4.667-4.67.001-2.578 2.091-4.668 4.67-4.667 2.578.001 4.667 2.092 4.667 4.67m-13.47-11.103c.001 2.715-2.199 4.918-4.914 4.919s-4.918-2.199-4.919-4.914c0-.002 0-.003 0-.005.001-2.715 2.204-4.916 4.919-4.914 2.714.001 4.913 2.2 4.914 4.914m15.839-12.379c0 2.578-2.089 4.667-4.667 4.667s-4.667-2.089-4.667-4.667c0-2.577 2.089-4.667 4.667-4.667s4.667 2.089 4.667 4.667" fill="#35495e"/><path d="m593.53 181.419h-92.252c-2.713.001-4.912 2.2-4.913 4.913v45.02c0 2.712 2.199 4.911 4.911 4.911h.001 92.252c2.713 0 4.912-2.199 4.913-4.911v-45.02c0-2.714-2.2-4.913-4.912-4.913" fill="#f4f4f4"/><path d="m501.278 181.419v1.297h92.252c1.995.003 3.611 1.619 3.614 3.614v45.02c-.003 1.995-1.619 3.611-3.614 3.614h-92.252c-1.995-.003-3.611-1.619-3.614-3.614v-45.02c.003-1.995 1.619-3.611 3.614-3.614v-2.595c-3.429.001-6.209 2.781-6.21 6.21v45.02c.001 3.429 2.781 6.209 6.21 6.21h92.252c3.429-.001 6.209-2.781 6.21-6.21v-45.02c0-3.43-2.78-6.21-6.21-6.21h-92.252z" fill="#35495e"/><path d="m563.978 218.558v-20.145h6.586c2.187 0 3.828.452 4.926 1.356 1.106.904 1.66 2.241 1.66 4.012.013.9-.268 1.779-.802 2.504-.534.719-1.264 1.278-2.187 1.674 1.088.304 1.946.885 2.574 1.743.637.849.954 1.863.954 3.043 0 1.808-.586 3.228-1.758 4.261-1.171 1.033-2.827 1.55-4.967 1.55h-6.986zm2.657-9.422v7.25h4.386c1.236 0 2.209-.318 2.92-.954.719-.646 1.079-1.531 1.079-2.656 0-2.426-1.32-3.639-3.957-3.639h-4.428zm0-2.131h4.012c1.162 0 2.089-.29 2.781-.872.701-.581 1.052-1.37 1.052-2.366 0-1.106-.322-1.91-.968-2.408-.646-.507-1.628-.761-2.947-.761h-3.929z" fill="#35495e"/><path clip-path="url(#e)" d="m538.543 214.796c-3.723-.001-6.741-3.02-6.741-6.743.001-3.723 3.02-6.741 6.743-6.74s6.741 3.02 6.74 6.743c.001 3.723-3.018 6.741-6.742 6.74m-14.184-11.059c-3.723.004-6.743-3.011-6.747-6.734s3.011-6.743 6.734-6.747h.013c3.723.004 6.738 3.024 6.734 6.747-.003 3.718-3.016 6.731-6.734 6.734m-2.428 24.119c-3.723.004-6.743-3.011-6.747-6.734s3.011-6.743 6.734-6.747h.013c3.723.004 6.738 3.024 6.734 6.747-.004 3.718-3.017 6.73-6.734 6.734m-14.012-11.34c-3.723.004-6.743-3.011-6.747-6.734s3.011-6.743 6.734-6.747h.013c3.723.004 6.738 3.024 6.734 6.747-.003 3.718-3.016 6.731-6.734 6.734m15.308-31.94c-13.454 0-24.361 10.906-24.361 24.361 0 13.454 10.907 24.361 24.361 24.361s24.361-10.907 24.361-24.361c0-13.455-10.908-24.361-24.361-24.361" fill="#35495e"/><path clip-path="url(#f)" d="m543.356 208.054c0 2.658-2.154 4.814-4.813 4.814-2.658 0-4.814-2.154-4.814-4.813 0-2.658 2.154-4.814 4.813-4.814 2.658 0 4.814 2.155 4.814 4.813m-30.416 1.722c0 2.773-2.248 5.021-5.021 5.022-2.773-.044-4.985-2.329-4.941-5.102.043-2.71 2.23-4.897 4.941-4.941 2.773.001 5.02 2.248 5.021 5.021m16.177-12.643c0 2.632-2.134 4.766-4.766 4.766s-4.766-2.134-4.766-4.766 2.134-4.766 4.766-4.766 4.766 2.134 4.766 4.766" fill="#35495e"/><path d="m170.006 53.248h-148.765c-2.703 0-4.894 2.191-4.894 4.894v44.855c0 2.703 2.191 4.895 4.894 4.895h148.767c2.703 0 4.895-2.191 4.895-4.895v-44.854c-.002-2.704-2.193-4.895-4.897-4.895" fill="#f4f4f4"/><path d="m21.241 53.248v1.615h148.767c1.81.003 3.277 1.47 3.28 3.28v44.855c-.003 1.81-1.47 3.277-3.28 3.28h-148.767c-1.81-.003-3.277-1.47-3.28-3.28v-44.855c.003-1.81 1.47-3.277 3.28-3.28v-3.229c-3.594 0-6.508 2.914-6.508 6.508v44.855c0 3.594 2.914 6.508 6.508 6.508h148.767c3.594 0 6.508-2.914 6.508-6.508v-44.854c0-3.594-2.914-6.508-6.508-6.508h-148.767z" fill="#35495e"/><path d="m48.174 105.114h-9.361c-3.013 0-4.105-2.457-4.105-4.108v-11.494h-11.498c-3.015 0-4.108-2.457-4.108-4.108v-9.36c0-3.013 2.458-4.107 4.108-4.107h11.497v-11.496c0-3.015 2.454-4.108 4.105-4.108h9.361c3.015 0 4.108 2.458 4.108 4.108v11.496h11.493c1.581 0 2.835.692 3.533 1.949.273.494.601 1.464.564 2.158h.01v9.36c0 3.015-2.456 4.108-4.108 4.108h-11.491v11.495c.001 3.013-2.456 4.107-4.108 4.107zm-24.964-31.205c-.495.008-2.133.183-2.133 2.132v9.36c.008.495.183 2.133 2.133 2.133h13.471v13.469c.007.495.183 2.133 2.131 2.133h9.357c.506-.008 2.137-.187 2.137-2.133v-13.467h13.468c.495-.008 2.133-.185 2.133-2.133v-9.374c-.007-.378-.147-2.118-2.132-2.118h-13.465v-13.471c-.008-.495-.183-2.133-2.133-2.133h-9.361c-.495.008-2.131.183-2.131 2.133v13.469z" fill="#35495e"/><path d="m43.497 85.53c-2.652-.004-4.801-2.154-4.803-4.806.003-2.652 2.152-4.801 4.803-4.805 2.652.003 4.802 2.152 4.805 4.805-.003 2.653-2.152 4.803-4.805 4.806zm0-7.636c-1.563.058-2.784 1.372-2.726 2.936.055 1.482 1.244 2.671 2.726 2.726 1.563-.002 2.829-1.269 2.83-2.831-.002-1.563-1.268-2.829-2.83-2.831zm-.002-17.372-3.956 6.166h7.914z" fill="#35495e"/><path d="m47.453 67.674h-7.914c-.546-.001-.987-.444-.987-.989 0-.189.054-.373.156-.532l3.956-6.166c.363-.567 1.299-.565 1.661 0l3.958 6.166c.295.458.163 1.069-.295 1.364-.16.103-.346.158-.535.157zm-6.108-1.974h4.3l-2.152-3.35zm-18.128 15.024 6.166 3.955v-7.912z" fill="#35495e"/><path d="m29.383 85.666c-.189 0-.374-.054-.533-.156l-6.166-3.955c-.459-.295-.591-.907-.296-1.366.076-.119.177-.219.296-.296l6.166-3.957c.459-.294 1.071-.161 1.365.299.102.159.156.343.156.532v7.912c0 .545-.442.987-.987.987-.001 0-.001 0-.001 0zm-4.338-4.942 3.35 2.149v-4.298zm38.655-.002-6.167-3.956v7.912z" fill="#35495e"/><path d="m57.534 85.666c-.545-.001-.986-.442-.987-.987v-7.912c0-.36.196-.693.515-.866.317-.175.704-.162 1.008.035l6.167 3.956c.459.295.591.907.296 1.366-.076.119-.177.219-.296.296l-6.169 3.956c-.159.102-.345.156-.534.156zm.988-7.093v4.299l3.351-2.15zm-15.027 22.353 3.958-6.166h-7.913z" fill="#35495e"/><path d="m43.495 101.912c-.336-.001-.649-.171-.831-.454l-3.956-6.166c-.294-.46-.16-1.072.3-1.366.158-.101.342-.155.53-.156h7.914c.296-.458.907-.589 1.364-.293.458.296.589.907.293 1.364-.181.281-.493.45-.827.451l-3.958 6.166c-.18.283-.493.454-.829.454zm-2.15-6.165 2.15 3.35 2.151-3.35zm42.513-5.461v-20.144h5.686c1.752 0 3.302.387 4.649 1.162s2.384 1.877 3.113 3.307c.738 1.43 1.112 3.072 1.121 4.926v1.287c0 1.901-.369 3.565-1.106 4.995-.691 1.389-1.786 2.537-3.141 3.293-1.356.766-2.938 1.157-4.746 1.176h-5.576zm2.657-17.958v15.787h2.795c2.047 0 3.639-.637 4.774-1.91 1.144-1.273 1.716-3.085 1.716-5.438v-1.176c0-2.288-.539-4.063-1.618-5.327-1.07-1.273-2.592-1.919-4.566-1.937h-3.1v.001zm14.112 8.357h6.752v2.089h-6.752zm12.286 1.716v7.887h-2.656v-20.146h7.43c2.205 0 3.93.563 5.174 1.687 1.254 1.126 1.881 2.616 1.881 4.469 0 1.955-.614 3.463-1.841 4.524-1.218 1.052-2.965 1.577-5.244 1.577h-4.744zm0-2.173h4.774c1.421 0 2.509-.331 3.266-.996.757-.673 1.135-1.642 1.135-2.905 0-1.199-.378-2.158-1.135-2.878-.757-.719-1.794-1.093-3.113-1.121h-4.926c-.001 0-.001 7.9-.001 7.9zm24.462 4.801h-8.44l-1.895 5.257h-2.739l7.693-20.145h2.324l7.706 20.145h-2.726zm-7.638-2.186h6.848l-3.431-9.422zm14.999 7.443v-20.144h5.686c1.752 0 3.302.387 4.649 1.162s2.384 1.877 3.113 3.307c.738 1.43 1.112 3.072 1.121 4.926v1.287c0 1.901-.369 3.565-1.106 4.995-.691 1.389-1.786 2.537-3.141 3.293-1.356.766-2.938 1.157-4.746 1.176h-5.576zm2.657-17.958v15.787h2.795c2.048 0 3.639-.637 4.774-1.91 1.144-1.273 1.716-3.085 1.716-5.438v-1.176c0-2.288-.539-4.063-1.618-5.327-1.07-1.273-2.592-1.919-4.566-1.937h-3.101z" fill="#35495e"/><path d="m377.936 279.238h-92.252c-2.713 0-4.912 2.199-4.913 4.911v45.02c0 2.712 2.199 4.911 4.911 4.911h.001 92.252c2.713 0 4.912-2.199 4.913-4.911v-45.02c0-2.712-2.2-4.911-4.912-4.911" fill="#f4f4f4"/><path d="m285.684 279.238v.416h92.252c2.482.004 4.493 2.015 4.497 4.497v45.02c-.004 2.482-2.015 4.493-4.497 4.497h-92.252c-2.482-.004-4.493-2.015-4.497-4.497v-45.02c.004-2.482 2.015-4.493 4.497-4.497v-.832c-2.942 0-5.327 2.385-5.327 5.327v45.02c0 2.942 2.385 5.327 5.327 5.327h92.252c2.942 0 5.327-2.385 5.327-5.327v-45.02c0-2.942-2.385-5.327-5.327-5.327h-92.252z" fill="#35495e"/><path d="m354.528 306.346 5.257-10.114h3.016l-6.945 12.632v7.514h-2.657v-7.514l-6.946-12.632h3.045z" fill="#35495e"/><path clip-path="url(#g)" d="m323.234 312.836c-3.798-.001-6.876-3.08-6.876-6.878.001-3.798 3.08-6.876 6.878-6.876 3.798.001 6.876 3.08 6.876 6.878 0 3.799-3.08 6.877-6.878 6.876m-14.469-11.28c-3.798.052-6.918-2.985-6.97-6.782s2.985-6.918 6.782-6.97c.063-.001.125-.001.188 0 3.798.052 6.834 3.173 6.782 6.97-.051 3.725-3.057 6.731-6.782 6.782m-2.476 24.603c-3.797 0-6.876-3.078-6.876-6.876s3.078-6.876 6.876-6.876c3.797 0 6.876 3.078 6.876 6.876s-3.079 6.876-6.876 6.876zm-14.293-11.569c-3.797 0-6.876-3.078-6.876-6.876 0-3.797 3.078-6.876 6.876-6.876s6.876 3.078 6.876 6.876-3.078 6.876-6.876 6.876zm15.615-32.58c-13.724 0-24.849 11.124-24.849 24.849 0 13.724 11.125 24.849 24.849 24.849s24.849-11.125 24.849-24.849-11.126-24.849-24.849-24.849" fill="#35495e"/><path clip-path="url(#h)" d="m328.143 305.959c.005 2.712-2.189 4.914-4.9 4.92-2.712.005-4.914-2.189-4.92-4.901 0-.006 0-.013 0-.019.005-2.712 2.208-4.906 4.92-4.901 2.704.006 4.895 2.197 4.9 4.901m-16.994 13.324c0 2.686-2.178 4.862-4.863 4.862-2.686 0-4.862-2.178-4.862-4.863 0-2.686 2.178-4.862 4.863-4.862 2.686 0 4.863 2.178 4.862 4.863zm2.47-24.465c0 2.685-2.177 4.862-4.862 4.862s-4.862-2.177-4.862-4.862 2.177-4.862 4.862-4.862c2.686 0 4.862 2.177 4.862 4.862" fill="#35495e"/><path d="m163.821 450.791h-95.261c-2.712 0-4.911 2.199-4.911 4.911v45.01c0 2.712 2.199 4.911 4.911 4.911h95.261c2.712 0 4.911-2.199 4.911-4.911v-45.01c0-2.711-2.199-4.91-4.911-4.911" fill="#f4f4f4"/><path d="m68.56 450.791v1.317h95.26c1.984.003 3.592 1.611 3.594 3.595v45.01c-.003 1.984-1.611 3.592-3.594 3.595h-95.26c-1.984-.003-3.592-1.611-3.594-3.595v-45.01c.003-1.984 1.61-3.592 3.594-3.595v-2.634c-3.439 0-6.227 2.788-6.227 6.227v45.01c0 3.439 2.788 6.227 6.227 6.227h95.26c3.439 0 6.227-2.788 6.227-6.227v-45.01c0-3.439-2.788-6.227-6.227-6.227h-95.26z" fill="#35495e"/><path d="m133.925 485.752h9.547v2.172h-12.217v-20.144h2.67zm20.353 2.173h-2.573v-17.06l-5.161 1.895v-2.324l7.333-2.753h.4v20.242zm-50.252-18.588c4.326 0 7.844 3.905 7.844 8.703 0 4.809-3.519 8.72-7.844 8.72h-26.734c-4.294-.038-7.786-3.952-7.786-8.72 0-4.762 3.493-8.665 7.77-8.703zm0-1.865h-26.75c-5.325.047-9.636 4.751-9.636 10.569 0 5.819 4.311 10.539 9.636 10.586h26.75c5.365 0 9.71-4.741 9.71-10.586s-4.347-10.569-9.71-10.569z" fill="#35495e"/><path d="m89.46 473.45h-2.019v9.178h6.495v-1.694h-4.476z" fill="#35495e"/><path d="m596.191 475.059h-95.261c-2.712 0-4.911 2.199-4.911 4.911v45.01c0 2.713 2.199 4.911 4.911 4.911h95.261c2.713 0 4.911-2.199 4.911-4.911v-45.01c0-2.711-2.199-4.91-4.911-4.911" fill="#f4f4f4"/><path d="m500.93 475.059v1.317h95.26c1.984.003 3.592 1.611 3.594 3.595v45.01c-.003 1.984-1.61 3.592-3.594 3.595h-95.26c-1.984-.003-3.592-1.61-3.595-3.595v-45.01c.003-1.984 1.611-3.592 3.595-3.595v-2.634c-3.439 0-6.227 2.788-6.227 6.227v45.01c0 3.439 2.788 6.227 6.227 6.227h95.26c3.439 0 6.227-2.788 6.227-6.227v-45.01c0-3.439-2.788-6.227-6.227-6.227h-95.26z" fill="#35495e"/><path d="m566.296 510.022h9.546v2.172h-12.216v-20.146h2.67zm25.139 2.172h-13.199v-1.84l6.973-7.748c1.033-1.171 1.743-2.122 2.131-2.85.387-.699.591-1.484.595-2.283 0-1.052-.319-1.914-.954-2.587-.637-.673-1.485-1.01-2.545-1.01-1.273 0-2.265.364-2.974 1.093-.701.719-1.052 1.725-1.052 3.016h-2.56c0-1.854.595-3.353 1.785-4.497 1.199-1.144 2.799-1.716 4.801-1.716 1.872 0 3.353.494 4.441 1.481 1.088.978 1.633 2.283 1.633 3.916 0 1.983-1.264 4.345-3.791 7.084l-5.396 5.853h10.114v2.088zm-55.257-18.546c4.274 0 7.751 3.858 7.751 8.598 0 4.751-3.476 8.616-7.751 8.616h-26.415c-4.242-.036-7.693-3.904-7.693-8.616 0-4.705 3.45-8.56 7.676-8.598zm0-1.843h-26.43c-5.261.047-9.52 4.694-9.52 10.442 0 5.749 4.259 10.413 9.52 10.46h26.43c5.3 0 9.594-4.685 9.594-10.46s-4.295-10.442-9.594-10.442z" fill="#35495e"/><path d="m516.104 497.712v9.069h6.417v-1.674h-4.423v-7.394zm14.523 7.385v1.565h-5.911c.065-.597.262-1.172.576-1.684.321-.529.952-1.232 1.897-2.109.759-.708 1.226-1.188 1.399-1.44.231-.348.348-.692.348-1.032 0-.376-.101-.664-.303-.867-.203-.203-.482-.303-.839-.303-.351 0-.633.105-.841.318s-.328.564-.36 1.056l-1.68-.168c.1-.928.415-1.594.943-1.998s1.188-.606 1.98-.606c.867 0 1.551.234 2.046.702s.744 1.049.744 1.746c0 .395-.071.773-.213 1.131-.17.406-.397.785-.675 1.126-.204.259-.573.634-1.104 1.123-.532.486-.868.811-1.01.972-.143.16-.259.316-.346.468z" fill="#35495e"/><path d="m596.191 413.881h-95.261c-2.712 0-4.911 2.199-4.911 4.911v45.01c0 2.712 2.199 4.911 4.911 4.911h95.261c2.713 0 4.911-2.199 4.911-4.911v-45.01c0-2.712-2.199-4.911-4.911-4.911z" fill="#f4f4f4"/><path d="m500.93 413.881v1.317h95.26c1.984.003 3.592 1.611 3.594 3.595v45.01c-.003 1.984-1.61 3.592-3.594 3.595h-95.26c-1.984-.003-3.592-1.611-3.595-3.595v-45.01c.003-1.984 1.611-3.592 3.595-3.595v-2.634c-3.439 0-6.227 2.788-6.227 6.227v45.01c0 3.439 2.788 6.227 6.227 6.227h95.26c3.439 0 6.227-2.788 6.227-6.227v-45.01c0-3.439-2.788-6.227-6.227-6.227h-95.26z" fill="#35495e"/><path d="m571.014 442.866h-4.732v8.15h-2.67v-20.145h6.669c2.268 0 4.012.516 5.23 1.55 1.227 1.034 1.841 2.536 1.841 4.511 0 1.254-.342 2.348-1.024 3.279-.673.932-1.615 1.628-2.822 2.089l4.732 8.55v.166h-2.85zm-4.732-2.172h4.082c1.32 0 2.366-.342 3.141-1.024.784-.682 1.177-1.596 1.177-2.739 0-1.245-.373-2.2-1.121-2.864-.738-.664-1.808-1.001-3.21-1.01h-4.068v7.637zm27.312 10.321h-13.199v-1.84l6.973-7.748c1.033-1.171 1.743-2.122 2.131-2.85.387-.699.591-1.484.595-2.283 0-1.052-.318-1.914-.954-2.587-.637-.673-1.485-1.01-2.545-1.01-1.273 0-2.265.364-2.974 1.093-.701.719-1.052 1.725-1.052 3.016h-2.56c0-1.854.595-3.353 1.785-4.497 1.199-1.144 2.799-1.716 4.801-1.716 1.872 0 3.353.494 4.441 1.481 1.088.978 1.633 2.283 1.633 3.916 0 1.984-1.264 4.345-3.791 7.084l-5.396 5.853h10.114v2.088zm-76.195-13.123h2.213c.898 0 1.39.387 1.39 1.271 0 .93-.493 1.318-1.39 1.318h-2.213zm-2.015 7.618h2.015v-3.589h2.021c1.015 0 1.388.425 1.53 1.39.101.732.075 1.621.321 2.2h2.016c-.359-.515-.347-1.591-.389-2.174-.064-.926-.342-1.892-1.331-2.149 0 0 1.45-.377 1.45-2.33 0-1.39-1.043-2.532-2.686-2.532h-4.948z" fill="#35495e"/><path d="m536.401 432.222c4.325 0 7.843 3.905 7.843 8.7 0 4.807-3.518 8.72-7.843 8.72h-26.729c-4.293-.038-7.784-3.951-7.784-8.72 0-4.759 3.492-8.663 7.769-8.7zm0-1.866h-26.746c-5.323.046-9.634 4.75-9.634 10.565 0 5.819 4.311 10.536 9.634 10.586h26.746c5.364 0 9.708-4.741 9.708-10.586.001-5.843-4.345-10.565-9.708-10.565z" fill="#35495e"/><path d="m531.222 443.928v1.585h-5.981c.065-.599.259-1.166.584-1.704.325-.536.962-1.247 1.919-2.135.768-.718 1.242-1.202 1.416-1.457.234-.352.352-.701.352-1.045 0-.381-.101-.673-.305-.877-.205-.205-.487-.307-.848-.307-.356 0-.641.107-.85.322-.209.216-.331.571-.364 1.069l-1.7-.17c.1-.939.419-1.613.954-2.021.534-.41 1.202-.614 2.003-.614.878 0 1.569.237 2.071.71.5.473.753 1.062.753 1.767 0 .4-.071.783-.216 1.144-.143.363-.371.742-.682 1.139-.207.263-.58.642-1.117 1.136-.538.493-.879.82-1.022.984-.133.145-.25.304-.35.473z" fill="#35495e"/><path d="m118.579 537.523h-50.875c-1.98.003-3.585 1.608-3.588 3.588v45.007c.003 1.98 1.608 3.585 3.588 3.588h50.876v-52.183m45.352 0h-45.197v52.183h45.197c1.98-.003 3.585-1.608 3.588-3.588v-45.007c-.002-1.981-1.607-3.585-3.588-3.588" fill="#f4f4f4"/><path d="m67.704 536.199v1.322h96.229c1.98.003 3.585 1.608 3.588 3.588v45.007c-.003 1.98-1.608 3.585-3.588 3.588h-96.229c-1.98-.003-3.585-1.608-3.588-3.588v-45.006c.003-1.98 1.608-3.585 3.588-3.588v-2.644c-3.442.001-6.233 2.791-6.233 6.233v45.007c.001 3.442 2.791 6.233 6.233 6.233h96.229c3.442-.001 6.233-2.791 6.234-6.233v-45.007c0-3.443-2.791-6.233-6.234-6.233h-96.229z" fill="#35495e"/><path d="m137.787 565.182h-4.732v8.15h-2.67v-20.145h6.669c2.268 0 4.012.516 5.23 1.55 1.227 1.033 1.841 2.536 1.841 4.511 0 1.255-.342 2.348-1.024 3.279-.673.932-1.615 1.628-2.822 2.089l4.732 8.55v.166h-2.85zm-4.732-2.173h4.082c1.319 0 2.366-.342 3.141-1.024.784-.683 1.176-1.595 1.176-2.739 0-1.245-.373-2.2-1.121-2.864-.738-.664-1.808-1.001-3.21-1.01h-4.068v7.638zm17.834-.995h1.923c1.208-.018 2.158-.337 2.85-.954s1.037-1.453 1.037-2.504c0-2.361-1.176-3.542-3.528-3.542-1.106 0-1.993.318-2.656.954-.655.627-.983 1.463-.983 2.504h-2.56c0-1.595.581-2.92 1.743-3.971 1.171-1.061 2.656-1.591 4.455-1.591 1.901 0 3.39.503 4.469 1.508s1.618 2.402 1.618 4.192c0 .876-.286 1.725-.858 2.545-.563.82-1.333 1.434-2.31 1.841 1.106.351 1.96.932 2.56 1.743.608.811.913 1.803.913 2.974 0 1.808-.59 3.242-1.771 4.303-1.18 1.061-2.717 1.591-4.607 1.591-1.891 0-3.431-.512-4.621-1.535-1.18-1.024-1.771-2.375-1.771-4.053h2.574c0 1.061.346 1.91 1.037 2.545.692.637 1.618.954 2.781.954 1.236 0 2.181-.322 2.837-.969s.983-1.573.983-2.781c0-1.171-.36-2.071-1.079-2.698s-1.758-.95-3.114-.969h-1.923zm-61.058-22.683c-13.356 0-24.179 10.826-24.179 24.179 0 13.358 10.822 24.179 24.179 24.179s24.179-10.823 24.179-24.179c0-13.351-10.827-24.179-24.179-24.179zm8.676 13.259c2.375 0 4.186.412 5.362 1.316 1.184.894 1.755 2.287 1.755 4.095 0 1.234-.265 2.231-.828 3.023-.563.781-1.433 1.338-2.535 1.658 1.232.368 2.19.988 2.828 1.901.645.904.975 2.058.975 3.461 0 2.09-.708 3.684-2.096 4.777-1.388 1.083-3.383 1.608-6.045 1.608-.939 0-1.929-.065-2.876-.244-.948-.174-1.878-.435-2.778-.78v-4.192c.831.488 1.714.88 2.632 1.17.84.236 1.71.351 2.583.341 1.249 0 2.215-.233 2.876-.731.67-.499.975-1.213.975-2.145 0-.961-.338-1.704-1.023-2.193-.677-.499-1.691-.731-3.022-.731h-1.853v-3.51h1.95c1.184 0 2.053-.209 2.632-.633.58-.433.878-1.074.878-1.95 0-.81-.265-1.459-.828-1.901s-1.36-.633-2.388-.633c-.759 0-1.516.095-2.291.292-.809.208-1.594.502-2.34.878v-3.997c.931-.302 1.864-.532 2.778-.683s1.798-.197 2.679-.197zm-24.909.342h7.215c2.409 0 4.146.481 5.265 1.413 1.127.932 1.706 2.421 1.706 4.436 0 1.394-.29 2.518-.878 3.412-.58.894-1.457 1.574-2.633 1.998.645.169 1.2.567 1.706 1.17.515.593 1.037 1.466 1.56 2.681l2.583 5.996h-5.021l-2.243-5.216c-.449-1.054-.9-1.807-1.365-2.193-.458-.386-1.085-.585-1.853-.585h-1.316v7.995h-4.728zm4.728 3.948v5.411h1.998c.988 0 1.672-.209 2.096-.633.433-.424.633-1.126.633-2.096 0-.961-.201-1.633-.633-2.048-.425-.415-1.109-.633-2.096-.633h-1.998z" fill="#35495e"/><path d="m118.735 537.523h-.156v52.182h.156z" fill="#f4f4f4"/><path d="m118.735 589.705h-.156v2.553h-51.945c.348.06.706.092 1.071.092h51.032v-2.645m-.002-54.828h-.156v2.645h.156z" fill="#35495e"/><path d="m4.601 662.872v16.494h46.821v-16.494c-.503 2.226-2.441 3.882-4.755 3.882h-37.31c-2.314.002-4.253-1.657-4.756-3.882m8.402-10.702v-9.151h6.241v1.434h-4.732v2.31h4.537v1.434h-4.537v2.538h4.809v1.434h-6.318m7.957.001v-9.151h1.509v7.641h4.365v1.509h-5.874m7.215.001.001-9.151h6.232v1.434h-4.727v2.31h4.538v1.434h-4.538v2.538h4.809v1.434h-6.315m11.39.258c-2.594 0-3.838-2.258-3.838-4.832 0-2.581 1.189-4.833 4.017-4.833 2.471 0 3.761 1.664 3.921 3.637l-1.625-.001c-.151-1.386-1.047-2.206-2.315-2.206-1.391 0-2.423 1.183-2.423 3.567 0 1.911 1.032 3.234 2.525 3.234 1.567 0 2.088-1.361 2.214-2.323h1.626c-.211 1.825-1.144 3.757-4.102 3.757m11.858-19.881h-46.822v16.659h1.52c.042 1.208.823 1.788 2.063 1.788.918 0 1.772-.346 1.772-1.352 0-2.271-5.294-.294-5.294-4.047 0-2.038 1.418-2.831 3.168-2.831 1.106 0 3.321.253 3.515 2.909h-1.63c-.051-.708-.556-1.477-1.813-1.477-1.004 0-1.668.399-1.668 1.258 0 2.148 5.351.087 5.351 3.996 0 2.361-1.919 2.976-3.45 2.976-2.129 0-3.208-.879-3.533-2.263v10.425c.503-2.224 2.443-3.883 4.757-3.883h37.309c2.314 0 4.252 1.658 4.755 3.882v-16.132h-2.564v7.717h-1.507v-7.718h-2.696v-1.433h6.767zm-46.948 29.182v-29.31h47.075v10.6h.008v1.434h-.008v35.04h-47.075zm167.447-30.943h-165.336c-1.763.002-3.192 1.431-3.194 3.194v44.812c.003 1.763 1.431 3.191 3.194 3.194h165.338c1.763-.002 3.192-1.431 3.194-3.194v-44.812c-.004-1.763-1.433-3.192-3.196-3.194" fill="#f4f4f4"/><path d="m6.586 629.088v1.696h165.338c1.763.002 3.192 1.431 3.194 3.194v44.812c-.003 1.763-1.431 3.191-3.194 3.194h-165.338c-1.763-.002-3.192-1.431-3.194-3.194v-44.812c.003-1.763 1.431-3.191 3.194-3.194v-3.393c-3.637 0-6.586 2.949-6.586 6.586v44.812c0 3.637 2.949 6.586 6.586 6.586h165.338c3.637 0 6.585-2.948 6.585-6.584v-.001-44.812c0-3.637-2.948-6.585-6.585-6.586h-165.338z" fill="#35495e"/><path d="m46.666 656.703h-37.309c-2.696 0-4.884 2.25-4.884 5.026s2.188 5.026 4.884 5.026h37.309c2.696 0 4.883-2.25 4.883-5.026s-2.185-5.026-4.883-5.026m.687-4.533h1.507v-7.717h2.698v-1.434h-6.9v1.433h2.696zm-3.686-5.77c-.16-1.973-1.45-3.637-3.921-3.637-2.826 0-4.017 2.252-4.017 4.833 0 2.574 1.243 4.832 3.838 4.832 2.958 0 3.891-1.932 4.102-3.757h-1.626c-.126.962-.647 2.323-2.214 2.323-1.492 0-2.525-1.323-2.525-3.234 0-2.384 1.032-3.567 2.423-3.567 1.269 0 2.165.82 2.315 2.206zm-15.492 5.77h6.317v-1.434h-4.809v-2.538h4.538v-1.434h-4.538v-2.31h4.727v-1.434h-6.232zm-7.215-.001h5.875v-1.509h-4.365v-7.641h-1.51zm-7.957 0h6.318v-1.434h-4.809v-2.538h4.537v-1.434h-4.537v-2.31h4.732v-1.434h-6.241zm-8.34-6.576c0 3.753 5.294 1.776 5.294 4.047 0 1.006-.855 1.352-1.772 1.352-1.24 0-2.02-.58-2.063-1.787h-1.629c.02 1.924 1.056 3.22 3.641 3.22 1.53 0 3.45-.615 3.45-2.976 0-3.908-5.351-1.849-5.351-3.996 0-.859.664-1.258 1.668-1.258 1.257 0 1.763.768 1.813 1.477h1.631c-.194-2.656-2.409-2.909-3.515-2.909-1.749-.002-3.167.791-3.167 2.83" fill="#35495e"/><path d="m51.549 644.453h-.127v16.132c.171.753.171 1.535 0 2.288v16.494h-46.821v-16.494c-.085-.375-.128-.758-.127-1.143v17.763h47.076v-35.04m-.001-12.034h-47.074v29.31c0-.394.044-.776.127-1.143v-10.425c-.072-.314-.108-.635-.108-.957h.108v-16.66h46.821v10.473h.127v-10.599" fill="#f4f4f4"/><path d="m4.601 660.586c-.17.752-.17 1.533 0 2.285zm46.822-.001v2.288c.17-.754.17-1.535 0-2.288m-46.822-11.381h-.108c.004.339.039.659.108.957zm46.948-6.185h-.127v1.434h.127zm23.569 14.104c-2.279-.655-3.939-1.457-4.98-2.408-1.033-.959-1.55-2.14-1.55-3.542 0-1.586.632-2.896 1.895-3.93 1.273-1.043 2.924-1.564 4.953-1.564 1.383 0 2.616.268 3.695.802 1.088.536 1.928 1.273 2.518 2.214.599.941.9 1.97.9 3.085h-2.67c0-1.218-.387-2.172-1.162-2.864-.775-.701-1.868-1.052-3.279-1.052-1.31 0-2.333.291-3.072.871-.729.572-1.093 1.37-1.093 2.393 0 .82.346 1.517 1.037 2.089.701.563 1.886 1.079 3.556 1.55 1.678.471 2.989.992 3.93 1.564.95.563 1.651 1.222 2.103 1.979.462.757.692 1.647.692 2.67 0 1.633-.637 2.942-1.91 3.93-1.273.978-2.974 1.466-5.105 1.466-1.332.011-2.652-.258-3.874-.789-1.199-.536-2.125-1.264-2.781-2.187-.646-.923-.969-1.97-.969-3.141h2.67c0 1.218.447 2.181 1.342 2.891.903.701 2.107 1.052 3.611 1.052 1.403 0 2.477-.286 3.224-.858s1.121-1.351 1.121-2.339c0-.987-.346-1.748-1.037-2.283-.694-.539-1.949-1.074-3.765-1.599zm22.275-.333h-8.731v7.14h10.141v2.172h-12.796v-20.145h12.659v2.185h-10.003v6.475h8.731v2.173zm7.388 7.139h9.547v2.172h-12.217v-20.145h2.67zm23.992-7.139h-8.731v7.14h10.143v2.172h-12.799v-20.145h12.659v2.185h-10.004v6.475h8.731v2.173zm19.536 2.92c-.25 2.131-1.037 3.778-2.366 4.939-1.32 1.153-3.076 1.729-5.272 1.729-2.38 0-4.289-.853-5.728-2.56-1.43-1.707-2.145-3.99-2.145-6.848v-1.937c0-1.872.331-3.519.996-4.94.673-1.421 1.624-2.509 2.85-3.266 1.227-.766 2.647-1.148 4.261-1.148 2.14 0 3.856.599 5.147 1.799 1.291 1.19 2.044 2.841 2.256 4.953h-2.67c-.23-1.605-.733-2.768-1.508-3.487-.766-.719-1.841-1.079-3.224-1.079-1.698 0-3.03.627-3.999 1.881-.959 1.255-1.439 3.039-1.439 5.355v1.951c0 2.187.456 3.925 1.37 5.216.913 1.291 2.19 1.937 3.832 1.937 1.475 0 2.605-.331 3.39-.996.793-.673 1.32-1.839 1.577-3.501.001 0 2.672.002 2.672.002zm17.143-11.568h-6.475v17.96h-2.643v-17.96h-6.461v-2.185h15.579z" fill="#35495e"/><path d="m646.527 630.478h-152.178c-2.702 0-4.893 2.191-4.893 4.893v44.846c0 2.702 2.191 4.893 4.893 4.893h152.178c2.702 0 4.893-2.191 4.893-4.893v-44.846c0-2.702-2.191-4.892-4.893-4.893" fill="#f4f4f4"/><path d="m494.349 630.478v1.632h152.178c1.8.004 3.258 1.462 3.262 3.262v44.846c-.004 1.8-1.462 3.258-3.262 3.262h-152.178c-1.8-.004-3.258-1.462-3.262-3.262v-44.846c.004-1.8 1.462-3.258 3.262-3.262v-3.263c-3.603.001-6.524 2.922-6.525 6.525v44.846c.001 3.603 2.922 6.524 6.525 6.525h152.178c3.603-.001 6.524-2.922 6.525-6.525v-44.846c-.001-3.603-2.922-6.524-6.525-6.525h-152.178z" fill="#35495e"/><path d="m535.434 653.579h1.865v-7.882h3.324v-1.465h-8.512v1.465h3.324zm-11.302-5.156v-2.726h3.219c.979 0 1.59.378 1.59 1.348 0 1.048-.56 1.379-1.59 1.379h-3.219zm-1.86 5.156h1.86v-3.692h3.168c1.366 0 1.541.943 1.541 2.276 0 .682.088 1.154.226 1.416h2.012c-.364-.512-.376-1.555-.376-2.005 0-1.322-.234-2.291-1.29-2.523v-.027c.835-.274 1.462-1.034 1.462-2.253 0-1.451-.731-2.535-2.99-2.535h-5.612zm-11.525 0h2.011l.918-2.317h4.173l.931 2.317h2.079l-3.949-9.348h-2.21zm3.491-3.783 1.539-3.945 1.514 3.945zm-8.731 3.783h1.86v-7.882h3.329v-1.465h-8.519v1.465h3.329v7.882zm-12.717-6.718c0 3.834 6.533 1.816 6.533 4.135 0 1.027-1.054 1.381-2.184 1.381-1.529 0-2.495-.591-2.547-1.825h-2.01c.027 1.967 1.304 3.292 4.499 3.292 1.888 0 4.255-.63 4.255-3.042 0-3.994-6.605-1.886-6.605-4.083 0-.876.82-1.282 2.06-1.282 1.551 0 2.174.784 2.239 1.505h2.011c-.241-2.714-2.971-2.973-4.338-2.973-2.163.001-3.913.808-3.913 2.892m42.841 11.349h-38.096c-2.753 0-4.987 2.298-4.987 5.132s2.233 5.132 4.987 5.132h38.096c2.753 0 4.985-2.297 4.985-5.132s-2.231-5.132-4.985-5.132zm27.266.322c-2.279-.655-3.939-1.457-4.98-2.408-1.034-.959-1.55-2.14-1.55-3.542 0-1.586.632-2.896 1.895-3.93 1.273-1.043 2.924-1.564 4.953-1.564 1.383 0 2.616.268 3.695.802 1.088.536 1.928 1.273 2.518 2.214.599.941.9 1.97.9 3.085h-2.67c0-1.218-.387-2.172-1.162-2.864-.775-.701-1.868-1.052-3.279-1.052-1.31 0-2.333.291-3.072.872-.729.572-1.093 1.37-1.093 2.393 0 .82.346 1.517 1.037 2.089.701.563 1.886 1.079 3.555 1.55 1.678.471 2.989.992 3.93 1.564.95.563 1.651 1.222 2.103 1.979.461.757.692 1.647.692 2.67 0 1.633-.637 2.942-1.91 3.93-1.273.978-2.974 1.466-5.105 1.466-1.332.011-2.652-.258-3.874-.789-1.199-.534-2.126-1.264-2.781-2.187-.646-.923-.969-1.97-.969-3.141h2.67c0 1.218.447 2.181 1.342 2.891.904.701 2.107 1.052 3.611 1.052 1.401 0 2.477-.286 3.224-.858s1.121-1.351 1.121-2.339c0-.987-.346-1.748-1.037-2.283-.692-.539-1.947-1.074-3.764-1.6zm24.808-8.98h-6.475v17.96h-2.642v-17.96h-6.462v-2.185h15.579zm13.034 12.702h-8.44l-1.895 5.257h-2.739l7.692-20.145h2.324l7.706 20.145h-2.726zm-7.638-2.186h6.848l-3.431-9.422zm22.386-.706h-4.732v8.15h-2.67v-20.145h6.669c2.268 0 4.012.516 5.23 1.55 1.227 1.033 1.841 2.536 1.841 4.511 0 1.255-.342 2.348-1.024 3.279-.673.932-1.615 1.628-2.822 2.089l4.732 8.55v.166h-2.85zm-4.731-2.173h4.082c1.32 0 2.366-.342 3.141-1.024.784-.683 1.177-1.595 1.177-2.739 0-1.245-.373-2.2-1.121-2.864-.738-.664-1.808-1.001-3.21-1.01h-4.068v7.638h-.001zm27.589-7.637h-6.475v17.96h-2.643v-17.96h-6.461v-2.185h15.579z" fill="#35495e"/></svg>