<svg enable-background="new 0 0 793 867.917" viewBox="0 0 793 867.917" xmlns="http://www.w3.org/2000/svg" xmlns:xlink="http://www.w3.org/1999/xlink"><linearGradient id="a" gradientUnits="userSpaceOnUse" x1="397.5" x2="397.5" y1="819.9167" y2="211.9167"><stop offset="0" stop-color="#0b3d1b"/><stop offset="1" stop-color="#2b7d3f"/></linearGradient><path d="m0 37.25h785.167v812.333h-785.167z" fill="#fff"/><path d="m37 37.25h718v26.083h-718z" fill="#51be68"/><path d="m37 73.25h718v129h-718z" fill="#7fa088"/><path d="m47 81.625h701v111h-701z" fill="#40714e"/><path d="m55 91h683v93.625h-683z" fill="#4e7b5b"/><path d="m66 100.25h664.5v73.833h-664.5z" fill="#165227"/><path d="m84.25 92.333h26.333v7.917h-26.333z" fill="#fff"/><path d="m92.25 100.25h10.333v18.5h-10.333z" fill="#cfe7fd"/><path d="m92.25 118.75h10.333v18.5h-10.333z" fill="#b0d7fb"/><path d="m92.25 137.25h10.333v18.5h-10.333z" fill="#92c7fa"/><path d="m84.25 155.75h26.333v10.5h-26.333z" fill="#73b7f9"/><path d="m139.5 92.333h7.917v7.917h-7.917z" fill="#fff"/><path d="m139.5 100.25h7.917v18.5h-7.917z" fill="#cfe7fd"/><path d="m102.583 100.25h18.583v10.667h-18.583z" fill="#1b1b1b"/><path d="m102.583 110.917h8v44.833h-8z" fill="#1b1b1b"/><path d="m92.25 166.25h28.917v7.833h-28.917z" fill="#1b1b1b"/><path d="m129.083 110.917h36.833v7.833h-36.833z" fill="#cfe7fd"/><path d="m139.5 118.75h8v18.5h-8z" fill="#b0d7fb"/><path d="m139.5 137.25h8v18.5h-8z" fill="#92c7fa"/><path d="m147.5 155.75h18.417v10.5h-18.417z" fill="#73b7f9"/><path d="m147.417 100.25h10.667v10.667h-10.667z" fill="#1b1b1b"/><path d="m147.5 118.75h28.833v10.417h-28.833z" fill="#1b1b1b"/><path d="m147.5 129.167h10.583v26.583h-10.583z" fill="#1b1b1b"/><path d="m158.083 166.25h18.25v7.833h-18.25z" fill="#1b1b1b"/><path d="m202.833 118.75h10.417v10.417h-10.417z" fill="#1b1b1b"/><path d="m194.917 110.917h18.333v7.833h-18.333z" fill="#cfe7fd"/><path d="m184.417 118.75h10.5v18.5h-10.5z" fill="#b0d7fb"/><path d="m213.25 118.75h8v18.5h-8z" fill="#b0d7fb"/><path d="m194.917 129.167h18.333v8.083h-18.333z" fill="#b0d7fb"/><path d="m184.417 137.25h10.5v18.5h-10.5z" fill="#92c7fa"/><path d="m194.917 155.75h26.333v10.5h-26.333z" fill="#73b7f9"/><path d="m221.25 129.167h10.5v18.583h-10.5z" fill="#1b1b1b"/><path d="m194.917 137.25h26.333v10.5h-26.333z" fill="#1b1b1b"/><path d="m194.917 147.75h7.917v8h-7.917z" fill="#1b1b1b"/><path d="m202.833 166.25h28.917v7.833h-28.917z" fill="#1b1b1b"/><path d="m239.75 110.917h47.25v7.833h-47.25z" fill="#cfe7fd"/><path d="m239.75 118.75h10.5v18.5h-10.5z" fill="#b0d7fb"/><path d="m239.75 137.25h10.5v18.5h-10.5z" fill="#92c7fa"/><path d="m239.75 155.75h10.5v10.5h-10.5z" fill="#73b7f9"/><path d="m276.5 118.75h10.5v18.5h-10.5z" fill="#b0d7fb"/><path d="m276.5 137.25h10.5v18.5h-10.5z" fill="#92c7fa"/><path d="m276.5 155.75h10.5v10.5h-10.5z" fill="#73b7f9"/><path d="m258.125 118.75h10.5v18.5h-10.5z" fill="#b0d7fb"/><path d="m258.125 137.25h10.5v18.5h-10.5z" fill="#92c7fa"/><path d="m258.125 155.75h10.5v10.5h-10.5z" fill="#73b7f9"/><path d="m250.25 118.75h7.875v55.333h-7.875z" fill="#1b1b1b"/><path d="m268.625 118.75h7.875v55.333h-7.875z" fill="#1b1b1b"/><path d="m287 118.75h7.875v55.333h-7.875z" fill="#1b1b1b"/><path d="m287 81.625h7.875v18.75h-7.875z" fill="#fff"/><path d="m294.875 81.625h10.625v10.625h-10.625z" fill="#fff"/><path d="m305.5 92.25h8.125v8.125h-8.125z" fill="#fff"/><path d="m294.875 92.25h10.625v8.125h-10.625z" fill="#1b1b1b"/><path d="m294.875 100.375h10.625v10.542h-10.625z" fill="#cfe7fd"/><path d="m313.625 100.375h10.542v10.542h-10.542z" fill="#cfe7fd"/><path d="m305.5 110.917h7.833v7.833h-7.833z" fill="#cfe7fd"/><path d="m324.167 110.917h7.833v7.833h-7.833z" fill="#cfe7fd"/><path d="m313.333 118.75h10.417v10.417h-10.417z" fill="#b0d7fb"/><path d="m332 118.75h10.417v10.417h-10.417z" fill="#b0d7fb"/><path d="m323.75 129.167h8.083v8.083h-8.083z" fill="#b0d7fb"/><path d="m342.417 129.167h8.083v8.083h-8.083z" fill="#b0d7fb"/><path d="m331.833 137.25h10.5v10.5h-10.5z" fill="#92c7fa"/><path d="m350.5 137.25h18.25v10.5h-18.25z" fill="#92c7fa"/><path d="m342.333 147.75h8v8h-8z" fill="#92c7fa"/><path d="m361 147.75h8v8h-8z" fill="#92c7fa"/><path d="m342.333 155.75h18.667v10.5h-18.667z" fill="#73b7f9"/><path d="m313.625 155.75h10.5v10.5h-10.5z" fill="#73b7f9"/><path d="m324.167 166.25h18.167v7.833h-18.167z" fill="#73b7f9"/><path d="m369 147.75h10.375v8h-10.375z" fill="#1b1b1b"/><path d="m379.375 129.167h7.75v18.583h-7.75z" fill="#1b1b1b"/><path d="m350.333 166.25h10.667v7.833h-10.667z" fill="#1b1b1b"/><path d="m332 174.083h18.5v10.542h-18.5z" fill="#1b1b1b"/><path d="m369 174.25h10.375v10.375h-10.375z" fill="#1b1b1b"/><path d="m361 166.25h18.375v7.833h-18.375z" fill="#73b7f9"/><path d="m369 155.75h10.375v10.5h-10.375z" fill="#73b7f9"/><path d="m379.292 166.25h7.833v7.833h-7.833z" fill="#1b1b1b"/><path d="m379.292 174.083h7.833v10.542h-7.833z" fill="#54a7f7"/><path d="m368.75 118.75h10.542v18.5h-10.542z" fill="#b0d7fb"/><path d="m361 110.917h7.75v7.833h-7.75z" fill="#cfe7fd"/><path d="m387.125 184.625h10.75v8h-10.75z" fill="#1b1b1b"/><path d="m47 45.433h701v17.9h-701z" fill="#348f4a"/><path d="m0 26.25h793v11h-793z" fill="#9bdcff"/><path d="m785.167 8.083h7.833v18.167h-7.833z" fill="#9bdcff"/><path d="m774.667.083h10.5v8h-10.5z" fill="#9bdcff"/><path d="m774.667 37.25h10.5v793.5h-10.5z" fill="#9bdcff"/><path d="m28.917 37.25h8.083v26.083h-8.083z" fill="#9bdcff"/><path d="m28.917 0h8.083v8.083h-8.083z" fill="#9bdcff"/><path d="m37 .083h718v8h-718z" fill="#6fa0d2"/><path d="m10.5.083h18.417v8h-18.417z" fill="#fff"/><path d="m755 .083h19.667v8h-19.667z" fill="#fff"/><path d="m0 7.5h785.167v18.75h-785.167z" fill="#fff"/><path d="m785.167 37.25h7.833v793.5h-7.833z" fill="#6fa0d2"/><path d="m0 37.25h10.5v793.667h-10.5z" fill="#6fa0d2"/><path d="m0 849.583h785.167v7.667h-785.167z" fill="#9bdcff"/><path d="m785.167 830.75h7.833v26.5h-7.833z" fill="#9bdcff"/><path d="m756.167 857.25h29v10.667h-29z" fill="#9bdcff"/><path d="m10.5 857.25h26.312v10.667h-26.312z" fill="#9bdcff"/><path d="m36.812 857.25h719.354v10.667h-719.354z" fill="#6fa0d2"/><path d="m0 .083h10.5v7.417h-10.5z" fill="#9bdcff"/><path d="m28.917 211.917h7.896v619h-7.896z" fill="#9bdcff"/><path d="m37 211.917h718v619h-718z" fill="#51be68"/><path d="m47 211.917h701v608h-701z" fill="url(#a)"/><path d="m73.687 240h47.438v8h-47.438z" fill="#fff"/><path d="m92.156 266.375h10.5v18.375h-10.5z" fill="#b0d7fb"/><path d="m92.156 284.75h10.5v18.375h-10.5z" fill="#92c7fa"/><path d="m92.156 303.125h10.5v10.5h-10.5z" fill="#73b7f9"/><path d="m84.25 248h44.875v10.625h-44.875z" fill="#1b1b1b"/><path d="m92.156 248h10.5v18.375h-10.5z" fill="#cfe7fd"/><path d="m102.656 258.625h7.844v63.125h-7.844z" fill="#1b1b1b"/><path d="m139.594 258.625h18.375v7.875h-18.375z" fill="#cfe7fd"/><path d="m129.125 266.5h10.469v18.25h-10.469z" fill="#b0d7fb"/><path d="m157.969 266.5h7.906v18.25h-7.906z" fill="#b0d7fb"/><path d="m139.594 277h18.375v7.75h-18.375z" fill="#b0d7fb"/><path d="m147.438 266.5h10.531v10.5h-10.531z" fill="#1b1b1b"/><path d="m129.125 284.75h10.469v18.375h-10.469z" fill="#92c7fa"/><path d="m165.875 277h10.625v18.5h-10.625z" fill="#1b1b1b"/><path d="m139.594 284.75h26.281v10.75h-26.281z" fill="#1b1b1b"/><path d="m139.594 295.5h7.844v7.625h-7.844z" fill="#1b1b1b"/><path d="m139.594 303.125h26.281v10.75h-26.281z" fill="#73b7f9"/><path d="m147.438 313.875h29.063v7.875h-29.063z" fill="#1b1b1b"/><path d="m195 258.625h18.333v7.875h-18.333z" fill="#cfe7fd"/><path d="m184.417 266.5h10.583v18.25h-10.583z" fill="#b0d7fb"/><path d="m184.417 284.75h10.583v18.375h-10.583z" fill="#92c7fa"/><path d="m195 303.125h26.167v10.75h-26.167z" fill="#73b7f9"/><path d="m195 277h7.917v26.125h-7.917z" fill="#1b1b1b"/><path d="m202.917 266.5h10.417v10.5h-10.417z" fill="#1b1b1b"/><path d="m221.167 277h10.667v7.75h-10.667z" fill="#1b1b1b"/><path d="m202.917 313.875h28.917v7.875h-28.917z" fill="#1b1b1b"/><path d="m239.75 240h10.5v8h-10.5z" fill="#fff"/><path d="m239.75 248h10.5v18.375h-10.5z" fill="#cfe7fd"/><path d="m239.75 266.375h10.5v18.375h-10.5z" fill="#b0d7fb"/><path d="m250.25 266.5h7.917v10.5h-7.917z" fill="#b0d7fb"/><path d="m239.75 284.75h10.5v18.375h-10.5z" fill="#92c7fa"/><path d="m239.75 303.125h10.5v10.75h-10.5z" fill="#73b7f9"/><path d="m258.167 258.625h18.5v7.875h-18.5z" fill="#cfe7fd"/><path d="m268.667 266.5h8v18.25h-8z" fill="#b0d7fb"/><path d="m268.667 284.75h8v18.375h-8z" fill="#92c7fa"/><path d="m268.667 303.125h8v10.75h-8z" fill="#73b7f9"/><path d="m250.25 248h7.917v18.5h-7.917z" fill="#1b1b1b"/><path d="m250.25 277h7.917v44.75h-7.917z" fill="#1b1b1b"/><path d="m258.167 277h10.5v7.75h-10.5z" fill="#1b1b1b"/><path d="m276.667 266.5h10.5v55.25h-10.5z" fill="#1b1b1b"/><path d="m360.875 240.063h18.438v7.938h-18.438z" fill="#fff"/><path d="m350.333 248h10.542v18.375h-10.542z" fill="#cfe7fd"/><path d="m379.375 248h7.75v10.625h-7.75z" fill="#cfe7fd"/><path d="m361 266.5h8v10.5h-8z" fill="#b0d7fb"/><path d="m369 277h10.292v7.75h-10.292z" fill="#b0d7fb"/><path d="m379.375 284.75h7.75v18.375h-7.75z" fill="#92c7fa"/><path d="m361 303.125h18.292v10.75h-18.292z" fill="#73b7f9"/><path d="m350.333 295.583h10.667v7.542h-10.667z" fill="#92c7fa"/><path d="m361 258.625h8v7.875h-8z" fill="#1b1b1b"/><path d="m369 248.083h10.313v10.542h-10.313z" fill="#1b1b1b"/><path d="m387.125 258.625h10.375v7.875h-10.375z" fill="#1b1b1b"/><path d="m387.125 295.583h10.375v18.292h-10.375z" fill="#1b1b1b"/><path d="m369 313.875h18.125v7.875h-18.125z" fill="#1b1b1b"/><path d="m213.333 266.5h7.833v10.5h-7.833z" fill="#b0d7fb"/><path d="m405.625 240.063h10.5v7.938h-10.5z" fill="#fff"/><path d="m405.625 248h10.5v18.5h-10.5z" fill="#cfe7fd"/><path d="m405.625 266.5h10.5v18.25h-10.5z" fill="#b0d7fb"/><path d="m405.625 284.75h10.5v18.375h-10.5z" fill="#92c7fa"/><path d="m405.625 303.125h10.5v10.75h-10.5z" fill="#73b7f9"/><path d="m416.125 277h7.75v7.75h-7.75z" fill="#b0d7fb"/><path d="m423.875 266.375h10.625v10.625h-10.625z" fill="#b0d7fb"/><path d="m423.875 284.75h10.625v10.625h-10.625z" fill="#92c7fa"/><path d="m434.5 258.625h7.75v7.75h-7.75z" fill="#cfe7fd"/><path d="m434.5 295.375h8.063v8.063h-8.063z" fill="#92c7fa"/><path d="m434.5 303.438h8.063v10.438h-8.063z" fill="#73b7f9"/><path d="m442.563 266.5h10.5v10.5h-10.5z" fill="#1b1b1b"/><path d="m434.5 277h8.063v7.75h-8.063z" fill="#1b1b1b"/><path d="m416.125 248h7.75v29h-7.75z" fill="#1b1b1b"/><path d="m416.125 284.75h7.75v37h-7.75z" fill="#1b1b1b"/><path d="m442.563 303.438h10.5v18.313h-10.5z" fill="#1b1b1b"/><path d="m423.938 414.25h10.417v10.417h-10.417z" fill="#1b1b1b"/><path d="m416.021 406.417h18.333v7.833h-18.333z" fill="#cfe7fd"/><path d="m405.521 414.25h10.5v18.5h-10.5z" fill="#b0d7fb"/><path d="m434.354 414.25h8v18.5h-8z" fill="#b0d7fb"/><path d="m416.021 424.667h18.333v8.083h-18.333z" fill="#b0d7fb"/><path d="m405.521 432.75h10.5v18.5h-10.5z" fill="#92c7fa"/><path d="m416.021 451.25h26.333v10.5h-26.333z" fill="#73b7f9"/><path d="m442.354 424.667h10.5v18.583h-10.5z" fill="#1b1b1b"/><path d="m416.021 432.75h26.333v10.5h-26.333z" fill="#1b1b1b"/><path d="m416.021 443.25h7.917v8h-7.917z" fill="#1b1b1b"/><path d="m423.938 461.75h28.917v7.833h-28.917z" fill="#1b1b1b"/><path d="m350.396 406.417h47.25v7.833h-47.25z" fill="#cfe7fd"/><path d="m350.396 414.25h10.5v18.5h-10.5z" fill="#b0d7fb"/><path d="m350.396 432.75h10.5v18.5h-10.5z" fill="#92c7fa"/><path d="m350.396 451.25h10.5v10.5h-10.5z" fill="#73b7f9"/><path d="m387.146 414.25h10.5v18.5h-10.5z" fill="#b0d7fb"/><path d="m387.146 432.75h10.5v18.5h-10.5z" fill="#92c7fa"/><path d="m387.146 451.25h10.5v10.5h-10.5z" fill="#73b7f9"/><path d="m368.771 414.25h10.5v18.5h-10.5z" fill="#b0d7fb"/><path d="m368.771 432.75h10.5v18.5h-10.5z" fill="#92c7fa"/><path d="m368.771 451.25h10.5v10.5h-10.5z" fill="#73b7f9"/><path d="m360.896 414.25h7.875v55.333h-7.875z" fill="#1b1b1b"/><path d="m379.271 414.25h7.875v55.333h-7.875z" fill="#1b1b1b"/><path d="m397.646 414.25h7.875v55.333h-7.875z" fill="#1b1b1b"/><path d="m258.271 561.833h10.417v10.417h-10.417z" fill="#1b1b1b"/><path d="m250.354 554h18.333v7.833h-18.333z" fill="#cfe7fd"/><path d="m239.854 561.833h10.5v18.5h-10.5z" fill="#b0d7fb"/><path d="m268.688 561.833h8v18.5h-8z" fill="#b0d7fb"/><path d="m250.354 572.25h18.333v8.083h-18.333z" fill="#b0d7fb"/><path d="m239.854 580.333h10.5v18.5h-10.5z" fill="#92c7fa"/><path d="m250.354 598.833h26.333v10.5h-26.333z" fill="#73b7f9"/><path d="m276.688 572.25h10.5v18.583h-10.5z" fill="#1b1b1b"/><path d="m250.354 580.333h26.333v10.5h-26.333z" fill="#1b1b1b"/><path d="m250.354 590.833h7.917v8h-7.917z" fill="#1b1b1b"/><path d="m258.271 609.333h28.917v7.833h-28.917z" fill="#1b1b1b"/><path d="m84.042 535.448h18.438v7.938h-18.438z" fill="#fff"/><path d="m73.5 543.385h10.542v18.375h-10.542z" fill="#cfe7fd"/><path d="m102.542 543.385h7.75v10.625h-7.75z" fill="#cfe7fd"/><path d="m84.167 561.885h8v10.5h-8z" fill="#b0d7fb"/><path d="m92.167 572.385h10.292v7.75h-10.292z" fill="#b0d7fb"/><path d="m102.542 580.135h7.75v18.375h-7.75z" fill="#92c7fa"/><path d="m84.167 598.51h18.292v10.75h-18.292z" fill="#73b7f9"/><path d="m73.5 590.969h10.667v7.542h-10.667z" fill="#92c7fa"/><path d="m84.167 554.01h8v7.875h-8z" fill="#1b1b1b"/><path d="m92.167 543.469h10.313v10.542h-10.313z" fill="#1b1b1b"/><path d="m110.292 554.01h10.375v7.875h-10.375z" fill="#1b1b1b"/><path d="m110.292 590.969h10.375v18.292h-10.375z" fill="#1b1b1b"/><path d="m92.167 609.26h18.125v7.875h-18.125z" fill="#1b1b1b"/><path d="m479.271 709.542h10.417v10.417h-10.417z" fill="#1b1b1b"/><path d="m471.354 701.708h18.333v7.833h-18.333z" fill="#cfe7fd"/><path d="m460.854 709.542h10.5v18.5h-10.5z" fill="#b0d7fb"/><path d="m489.688 709.542h8v18.5h-8z" fill="#b0d7fb"/><path d="m471.354 719.958h18.333v8.083h-18.333z" fill="#b0d7fb"/><path d="m460.854 728.042h10.5v18.5h-10.5z" fill="#92c7fa"/><path d="m471.354 746.542h26.333v10.5h-26.333z" fill="#73b7f9"/><path d="m497.688 719.958h10.5v18.583h-10.5z" fill="#1b1b1b"/><path d="m471.354 728.042h26.333v10.5h-26.333z" fill="#1b1b1b"/><path d="m471.354 738.542h7.917v8h-7.917z" fill="#1b1b1b"/><path d="m479.271 757.042h28.917v7.833h-28.917z" fill="#1b1b1b"/><path d="m405.729 701.708h47.25v7.833h-47.25z" fill="#cfe7fd"/><path d="m405.729 709.542h10.5v18.5h-10.5z" fill="#b0d7fb"/><path d="m405.729 728.042h10.5v18.5h-10.5z" fill="#92c7fa"/><path d="m405.729 746.542h10.5v10.5h-10.5z" fill="#73b7f9"/><path d="m442.479 709.542h10.5v18.5h-10.5z" fill="#b0d7fb"/><path d="m442.479 728.042h10.5v18.5h-10.5z" fill="#92c7fa"/><path d="m442.479 746.542h10.5v10.5h-10.5z" fill="#73b7f9"/><path d="m424.104 709.542h10.5v18.5h-10.5z" fill="#b0d7fb"/><path d="m424.104 728.042h10.5v18.5h-10.5z" fill="#92c7fa"/><path d="m424.104 746.542h10.5v10.5h-10.5z" fill="#73b7f9"/><path d="m416.229 709.542h7.875v55.333h-7.875z" fill="#1b1b1b"/><path d="m434.604 709.542h7.875v55.333h-7.875z" fill="#1b1b1b"/><path d="m452.979 709.542h7.875v55.333h-7.875z" fill="#1b1b1b"/><path d="m73.625 387.75h37v7.875h-37z" fill="#fff"/><path d="m73.625 395.625h10.5v18.625h-10.5z" fill="#cfe7fd"/><path d="m73.625 414.25h10.5v18.375h-10.5z" fill="#b0d7fb"/><path d="m84.125 414.25h18.5v10.375h-18.5z" fill="#b0d7fb"/><path d="m73.625 432.625h10.5v18.375h-10.5z" fill="#92c7fa"/><path d="m73.625 451h37v10.688h-37z" fill="#73b7f9"/><path d="m84.125 395.625h37v10.75h-37z" fill="#1b1b1b"/><path d="m84.125 424.625h26.5v8h-26.5z" fill="#1b1b1b"/><path d="m84.125 461.688h37v7.688h-37z" fill="#1b1b1b"/><path d="m84.125 432.625h8v18.375h-8z" fill="#1b1b1b"/><path d="m84.125 406.375h8v7.875h-8z" fill="#1b1b1b"/><path d="m73.625 683.125h37v7.875h-37z" fill="#fff"/><path d="m73.625 691h10.5v18.625h-10.5z" fill="#cfe7fd"/><path d="m73.625 709.625h10.5v18.375h-10.5z" fill="#b0d7fb"/><path d="m84.125 709.625h18.5v10.375h-18.5z" fill="#b0d7fb"/><path d="m73.625 728h10.5v18.375h-10.5z" fill="#92c7fa"/><path d="m73.625 746.375h37v10.688h-37z" fill="#73b7f9"/><path d="m84.125 691h37v10.75h-37z" fill="#1b1b1b"/><path d="m84.125 720h26.5v8h-26.5z" fill="#1b1b1b"/><path d="m84.125 757.063h37v7.688h-37z" fill="#1b1b1b"/><path d="m84.125 728h8v18.375h-8z" fill="#1b1b1b"/><path d="m84.125 701.75h8v7.875h-8z" fill="#1b1b1b"/><path d="m479.5 229.5h10.75v18.5h-10.75z" fill="#fff"/><path d="m471.625 258.625h18.625v7.75h-18.625z" fill="#cfe7fd"/><path d="m479.5 266.375h10.75v18.375h-10.75z" fill="#b0d7fb"/><path d="m479.5 284.75h10.75v18.688h-10.75z" fill="#92c7fa"/><path d="m471.625 303.438h26.125v10.438h-26.125z" fill="#73b7f9"/><path d="m490.25 240.125h7.5v18.5h-7.5z" fill="#1b1b1b"/><path d="m490.25 266.375h7.5v37.063h-7.5z" fill="#1b1b1b"/><path d="m479.5 313.875h29v7.875h-29z" fill="#1b1b1b"/><path d="m527 240.125h18.25v7.875h-18.25z" fill="#fff"/><path d="m534.917 248h10.333v18.375h-10.333z" fill="#cfe7fd"/><path d="m534.917 266.375h10.333v18.531h-10.333z" fill="#b0d7fb"/><path d="m534.917 284.906h10.333v18.531h-10.333z" fill="#92c7fa"/><path d="m527 303.438h26.333v10.438h-26.333z" fill="#73b7f9"/><path d="m534.917 313.875h28.833v7.875h-28.833z" fill="#1b1b1b"/><path d="m545.25 248h8.083v55.438h-8.083z" fill="#1b1b1b"/><path d="m582.292 240.125h18.25v7.875h-18.25z" fill="#fff"/><path d="m590.208 248h10.333v18.375h-10.333z" fill="#cfe7fd"/><path d="m590.208 266.375h10.333v18.531h-10.333z" fill="#b0d7fb"/><path d="m590.208 284.906h10.333v18.531h-10.333z" fill="#92c7fa"/><path d="m582.292 303.438h26.333v10.438h-26.333z" fill="#73b7f9"/><path d="m590.208 313.875h28.833v7.875h-28.833z" fill="#1b1b1b"/><path d="m600.542 248h8.083v55.438h-8.083z" fill="#1b1b1b"/><path d="m258.104 377.375h10.75v18.5h-10.75z" fill="#fff"/><path d="m250.229 406.5h18.625v7.75h-18.625z" fill="#cfe7fd"/><path d="m258.104 414.25h10.75v18.375h-10.75z" fill="#b0d7fb"/><path d="m258.104 432.625h10.75v18.688h-10.75z" fill="#92c7fa"/><path d="m250.229 451.313h26.125v10.438h-26.125z" fill="#73b7f9"/><path d="m268.854 388h7.5v18.5h-7.5z" fill="#1b1b1b"/><path d="m268.854 414.25h7.5v37.063h-7.5z" fill="#1b1b1b"/><path d="m258.104 461.75h29v7.875h-29z" fill="#1b1b1b"/><path d="m139.667 406.375h26.167v7.875h-26.167z" fill="#cfe7fd"/><path d="m128.833 414.25h10.833v18.375h-10.833z" fill="#b0d7fb"/><path d="m128.833 432.625h10.833v18.375h-10.833z" fill="#92c7fa"/><path d="m157.833 414.25h8v18.375h-8z" fill="#b0d7fb"/><path d="m157.833 432.625h8v18.375h-8z" fill="#92c7fa"/><path d="m139.667 451h26.167v10.688h-26.167z" fill="#73b7f9"/><path d="m157.833 461.688h8v7.938h-8z" fill="#73b7f9"/><path d="m157.833 469.625h8v10.542h-8z" fill="#54a7f7"/><path d="m147.458 414.25h10.375v10.375h-10.375z" fill="#1b1b1b"/><path d="m139.667 424.625h7.792v26.375h-7.792z" fill="#1b1b1b"/><path d="m147.458 461.75h10.375v7.875h-10.375z" fill="#1b1b1b"/><path d="m165.833 414.25h10.667v74h-10.667z" fill="#1b1b1b"/><path d="m184.375 406.375h10.375v7.875h-10.375z" fill="#cfe7fd"/><path d="m184.375 414.25h10.375v18.531h-10.375z" fill="#b0d7fb"/><path d="m184.375 432.781h10.375v18.219h-10.375z" fill="#92c7fa"/><path d="m213.375 406.375h7.875v7.875h-7.875z" fill="#cfe7fd"/><path d="m213.375 414.25h7.875v18.5h-7.875z" fill="#b0d7fb"/><path d="m213.375 432.75h7.875v18.25h-7.875z" fill="#92c7fa"/><path d="m194.75 451h26.5v10.688h-26.5z" fill="#73b7f9"/><path d="m194.75 414.25h8v36.75h-8z" fill="#1b1b1b"/><path d="m221.25 414.25h10.562v55.375h-10.562z" fill="#1b1b1b"/><path d="m202.75 461.688h18.5v7.938h-18.5z" fill="#1b1b1b"/><path d="m295 406.375h29v7.875h-29z" fill="#cfe7fd"/><path d="m295 414.25h10.667v18.375h-10.667z" fill="#b0d7fb"/><path d="m324 414.25h8v18.375h-8z" fill="#b0d7fb"/><path d="m295 432.625h10.667v18.375h-10.667z" fill="#92c7fa"/><path d="m324 432.625h8v18.375h-8z" fill="#92c7fa"/><path d="m295 451h10.667v18.583h-10.667z" fill="#73b7f9"/><path d="m305.667 451h18.333v10.75h-18.333z" fill="#73b7f9"/><path d="m295 469.583h10.667v10.583h-10.667z" fill="#54a7f7"/><path d="m305.667 414.25h18.333v10.417h-18.333z" fill="#1b1b1b"/><path d="m305.667 424.667h7.833v26.333h-7.833z" fill="#1b1b1b"/><path d="m305.5 461.75h8v26.5h-8z" fill="#1b1b1b"/><path d="m313.5 461.75h18.5v7.875h-18.5z" fill="#1b1b1b"/><path d="m332 424.667h10.5v37.083h-10.5z" fill="#1b1b1b"/><path d="m461.083 406.417h10.5v7.833h-10.5z" fill="#cfe7fd"/><path d="m461.083 414.25h10.5v18.5h-10.5z" fill="#b0d7fb"/><path d="m471.583 414.25h7.833v10.417h-7.833z" fill="#b0d7fb"/><path d="m461.083 432.75h10.5v18.5h-10.5z" fill="#92c7fa"/><path d="m461.083 451.25h10.5v10.5h-10.5z" fill="#73b7f9"/><path d="m479.417 406.417h18.5v7.833h-18.5z" fill="#cfe7fd"/><path d="m490.083 414.25h7.833v18.5h-7.833z" fill="#b0d7fb"/><path d="m490.083 432.75h7.833v18.5h-7.833z" fill="#92c7fa"/><path d="m490.083 451.25h7.833v10.5h-7.833z" fill="#73b7f9"/><path d="m471.583 424.667h7.833v44.917h-7.833z" fill="#1b1b1b"/><path d="m479.417 424.667h10.667v8.083h-10.667z" fill="#1b1b1b"/><path d="m497.917 414.25h10.583v55.333h-10.583z" fill="#1b1b1b"/><path d="m129.083 701.75h10.5v7.833h-10.5z" fill="#cfe7fd"/><path d="m129.083 709.583h10.5v18.5h-10.5z" fill="#b0d7fb"/><path d="m139.583 709.583h7.833v10.417h-7.833z" fill="#b0d7fb"/><path d="m129.083 728.083h10.5v18.5h-10.5z" fill="#92c7fa"/><path d="m129.083 746.583h10.5v10.5h-10.5z" fill="#73b7f9"/><path d="m147.417 701.75h18.5v7.833h-18.5z" fill="#cfe7fd"/><path d="m158.083 709.583h7.833v18.5h-7.833z" fill="#b0d7fb"/><path d="m158.083 728.083h7.833v18.5h-7.833z" fill="#92c7fa"/><path d="m158.083 746.583h7.833v10.5h-7.833z" fill="#73b7f9"/><path d="m139.583 720h7.833v44.917h-7.833z" fill="#1b1b1b"/><path d="m147.417 720h10.667v8.083h-10.667z" fill="#1b1b1b"/><path d="m165.917 709.583h10.583v55.333h-10.583z" fill="#1b1b1b"/><path d="m527 388h7.875v7.875h-7.875z" fill="#fff"/><path d="m516.5 406.417h36.833v7.833h-36.833z" fill="#cfe7fd"/><path d="m527 395.875h7.875v10.542h-7.875z" fill="#cfe7fd"/><path d="m527 414.25h7.875v18.5h-7.875z" fill="#b0d7fb"/><path d="m527 432.75h7.875v18.5h-7.875z" fill="#92c7fa"/><path d="m534.875 451.25h18.458v10.5h-18.458z" fill="#73b7f9"/><path d="m534.917 395.875h10.333v10.333h-10.333z" fill="#1b1b1b"/><path d="m534.875 414.25h10.375v37h-10.375z" fill="#1b1b1b"/><path d="m545.25 414.25h18.5v10.417h-18.5z" fill="#1b1b1b"/><path d="m545.25 461.75h18.5v7.833h-18.5z" fill="#1b1b1b"/><path d="m139.5 554h18.333v7.76h-18.333z" fill="#cfe7fd"/><path d="m157.833 561.885h8v18.448h-8z" fill="#b0d7fb"/><path d="m139.5 572.385h18.333v7.75h-18.333z" fill="#b0d7fb"/><path d="m157.833 580.135h8v18.375h-8z" fill="#92c7fa"/><path d="m129 580.135h10.5v18.375h-10.5z" fill="#92c7fa"/><path d="m139.5 598.51h26.333v10.823h-26.333z" fill="#73b7f9"/><path d="m147.333 561.885h10.5v10.5h-10.5z" fill="#1b1b1b"/><path d="m147.333 580.135h10.5v10.698h-10.5z" fill="#1b1b1b"/><path d="m139.5 590.833h7.833v7.677h-7.833z" fill="#1b1b1b"/><path d="m165.833 572.385h10.667v44.75h-10.667z" fill="#1b1b1b"/><path d="m147.333 609.26h18.5v7.906h-18.5z" fill="#1b1b1b"/><path d="m213.5 572.385h7.75v7.75h-7.75z" fill="#b0d7fb"/><path d="m184.375 554h10.5v7.76h-10.5z" fill="#cfe7fd"/><path d="m221.25 554h10.625v7.76h-10.625z" fill="#cfe7fd"/><path d="m184.375 561.76h10.49v10.49h-10.49z" fill="#b0d7fb"/><path d="m221.25 561.76h10.625v10.625h-10.625z" fill="#b0d7fb"/><path d="m194.865 572.25h7.885v7.885h-7.885z" fill="#b0d7fb"/><path d="m194.875 580.135h7.875v10.698h-7.875z" fill="#92c7fa"/><path d="m213.5 580.135h7.75v10.833h-7.75z" fill="#92c7fa"/><path d="m202.75 590.969h10.75v7.865h-10.75z" fill="#92c7fa"/><path d="m202.75 598.833h10.75v10.5h-10.75z" fill="#73b7f9"/><path d="m194.865 561.76h7.885v10.49h-7.885z" fill="#1b1b1b"/><path d="m202.75 580.135h10.75v10.833h-10.75z" fill="#1b1b1b"/><path d="m213.5 598.833h7.75v18.302h-7.75z" fill="#1b1b1b"/><path d="m221.25 580.135h10.625v18.375h-10.625z" fill="#1b1b1b"/><path d="m231.875 561.76h7.979v18.573h-7.979z" fill="#1b1b1b"/><path d="m360.917 701.609h18.333v7.76h-18.333z" fill="#cfe7fd"/><path d="m379.25 709.495h8v18.448h-8z" fill="#b0d7fb"/><path d="m360.917 719.995h18.333v7.75h-18.333z" fill="#b0d7fb"/><path d="m379.25 727.745h8v18.375h-8z" fill="#92c7fa"/><path d="m350.417 727.745h10.5v18.375h-10.5z" fill="#92c7fa"/><path d="m360.917 746.12h26.333v10.823h-26.333z" fill="#73b7f9"/><path d="m368.75 709.495h10.5v10.5h-10.5z" fill="#1b1b1b"/><path d="m368.75 727.745h10.5v10.698h-10.5z" fill="#1b1b1b"/><path d="m360.917 738.443h7.833v7.677h-7.833z" fill="#1b1b1b"/><path d="m387.25 719.995h10.667v44.75h-10.667z" fill="#1b1b1b"/><path d="m368.75 756.87h18.5v7.906h-18.5z" fill="#1b1b1b"/><path d="m213.375 683.125h7.875v7.875h-7.875z" fill="#fff"/><path d="m213.375 691h7.875v18.625h-7.875z" fill="#cfe7fd"/><path d="m194.875 701.75h18.5v7.875h-18.5z" fill="#cfe7fd"/><path d="m184.25 709.583h10.625v18.417h-10.625z" fill="#b0d7fb"/><path d="m184.25 728h10.625v18.583h-10.625z" fill="#92c7fa"/><path d="m213.375 709.625h7.875v18.375h-7.875z" fill="#b0d7fb"/><path d="m213.375 728h7.875v18.375h-7.875z" fill="#92c7fa"/><path d="m194.875 746.583h26.375v10.479h-26.375z" fill="#73b7f9"/><path d="m203 709.625h10.375v10.375h-10.375z" fill="#1b1b1b"/><path d="m194.875 720h8.125v26.375h-8.125z" fill="#1b1b1b"/><path d="m221.25 691h10.5v73.75h-10.5z" fill="#1b1b1b"/><path d="m203 757.063h18.25v7.854h-18.25z" fill="#1b1b1b"/><path d="m305.5 683.125h18.5v7.875h-18.5z" fill="#fff"/><path d="m295 691h10.5v18.37h-10.5z" fill="#cfe7fd"/><path d="m324 691h7.833v10.609h-7.833z" fill="#cfe7fd"/><path d="m295 709.37h10.5v18.714h-10.5z" fill="#b0d7fb"/><path d="m295 728.083h10.5v18.5h-10.5z" fill="#92c7fa"/><path d="m305.5 746.12h26.333v10.823h-26.333z" fill="#73b7f9"/><path d="m324 727.943h7.833v18.177h-7.833z" fill="#92c7fa"/><path d="m313.391 720h18.443v8.083h-18.443z" fill="#b0d7fb"/><path d="m313.391 691h10.609v10.609h-10.609z" fill="#1b1b1b"/><path d="m305.5 701.609h7.891v44.51h-7.891z" fill="#1b1b1b"/><path d="m331.833 701.609h10.75v7.885h-10.75z" fill="#1b1b1b"/><path d="m331.833 728.083h10.75v36.792h-10.75z" fill="#1b1b1b"/><path d="m313.391 757.042h18.443v7.833h-18.443z" fill="#1b1b1b"/><path d="m508.188 709.542h8.063v18.203h-8.063z" fill="#b0d7fb"/><path d="m508.188 727.745h8.063v10.797h-8.063z" fill="#92c7fa"/><path d="m516.25 691.25h10.583v18.292h-10.583z" fill="#cfe7fd"/><path d="m516.25 738.542h10.583v8h-10.583z" fill="#92c7fa"/><path d="m516.25 746.542h10.583v10.5h-10.583z" fill="#73b7f9"/><path d="m526.833 757.042h18.667v7.833h-18.667z" fill="#73b7f9"/><path d="m526.833 683.25h18.667v8h-18.667z" fill="#fff"/><path d="m600.875 709.542h8.063v18.203h-8.063z" fill="#b0d7fb" transform="matrix(-1 0 0 -1 1209.8125 1437.2865)"/><path d="m600.875 727.745h8.063v10.797h-8.063z" fill="#92c7fa" transform="matrix(-1 0 0 -1 1209.8125 1466.2865)"/><path d="m590.292 691.25h10.583v18.292h-10.583z" fill="#cfe7fd" transform="matrix(-1 0 0 -1 1191.1666 1400.7916)"/><path d="m590.292 738.542h10.583v8h-10.583z" fill="#92c7fa" transform="matrix(-1 0 0 -1 1191.1666 1485.0834)"/><path d="m590.292 746.542h10.583v10.5h-10.583z" fill="#73b7f9" transform="matrix(-1 0 0 -1 1191.1666 1503.5834)"/><path d="m571.625 757.042h18.667v7.833h-18.667z" fill="#73b7f9" transform="matrix(-1 0 0 -1 1161.9166 1521.9166)"/><path d="m571.625 683.25h18.667v8h-18.667z" fill="#fff" transform="matrix(-1 0 0 -1 1161.9166 1374.5)"/><path d="m545.5 672.5h26.125v10.75h-26.125z" fill="#fff"/><path d="m545.5 764.875h26.125v10.625h-26.125z" fill="#54a7f7"/><path d="m534.833 709.542h10.667v10.667h-10.667z" fill="#b0d7fb"/><path d="m534.833 738.542h10.667v8h-10.667z" fill="#92c7fa"/><path d="m571.625 709.542h10.667v10.667h-10.667z" fill="#b0d7fb"/><path d="m571.625 738.542h10.667v8h-10.667z" fill="#92c7fa"/><path d="m545.5 728.042h26.125v10.5h-26.125z" fill="#92c7fa"/><g fill="#1b1b1b"><path d="m516.25 719.958h10.583v18.583h-10.583z"/><path d="m526.833 701.708h8v18.5h-8z"/><path d="m534.833 691.25h18.333v10.458h-18.333z"/><path d="m545.5 720.208h7.536v7.536h-7.536z"/><path d="m526.833 746.542h8v10.5h-8z"/><path d="m545.5 746.542h7.536v10.5h-7.536z"/><path d="m553.036 738.542h18.589v8h-18.589z"/><path d="m534.833 764.875h10.667v10.625h-10.667z"/><path d="m553.167 683.25h18.458v8h-18.458z"/><path d="m582.292 720.208h7.536v7.536h-7.536z"/><path d="m582.292 746.542h8v10.5h-8z"/><path d="m553.167 775.5h29.125v7.917h-29.125z"/><path d="m582.292 764.875h18.542v10.625h-18.542z"/><path d="m600.875 746.542h8.125v18.333h-8.125z"/><path d="m609 720.208h10.167v26.333h-10.167z"/><path d="m600.833 701.708h8.104v7.833h-8.104z"/></g></svg>