<svg enable-background="new 0 0 30 30" viewBox="0 0 30 30" xmlns="http://www.w3.org/2000/svg" xmlns:xlink="http://www.w3.org/1999/xlink"><radialGradient id="a" cx="330.3658" cy="-268.5624" gradientTransform="matrix(.6042 0 0 -.6042 -184.8103 -145.4537)" gradientUnits="userSpaceOnUse" r="18.5447"><stop offset="0" stop-color="#e3e3e3"/><stop offset="1" stop-color="#afafaf"/></radialGradient><radialGradient id="b" cx="330.7527" cy="-265.5738" gradientTransform="matrix(.6042 0 0 -.6042 -184.8103 -145.4537)" gradientUnits="userSpaceOnUse" r="22.1115"><stop offset="0" stop-color="#7b7b7b"/><stop offset=".4749" stop-color="#6a6a6a"/><stop offset="1" stop-color="#535353"/></radialGradient><path d="m14.543 30c-1.801 0-3.55-.344-5.203-1.023-.925.062-1.86-.038-2.797-.288-2.306-.617-4.1-2.012-5.332-4.145-1.245-2.158-1.532-4.468-.854-6.867.113-.381.27-.718.471-1.012-.003-.128-.006-.256-.006-.385 0-5.191 2.981-9.983 7.618-12.29.175-.212.364-.417.563-.617 1.686-1.688 3.791-2.544 6.256-2.544 2.49 0 4.635.906 6.373 2.694.452.477.745 1.014.87 1.583 3.285 2.346 5.39 6.045 5.714 10.063.675.88 1.17 1.893 1.472 3.019.619 2.304.308 4.556-.925 6.691-1.246 2.157-3.103 3.56-5.519 4.171-.874.212-1.698.106-2.396-.298-.087-.05-.171-.103-.251-.159-1.872.922-3.947 1.407-6.054 1.407zm-4.806-3.526.296.13c3.241 1.413 7.113 1.196 10.163-.58l1.005-.585.639.97c.057.086.132.156.237.216.103.059.261.117.58.04 1.761-.445 3.067-1.433 3.981-3.015.908-1.572 1.13-3.151.679-4.826-.245-.913-.66-1.718-1.233-2.392l-.271-.317-.02-.415c-.182-3.588-2.095-6.904-5.118-8.869l-.559-.363v-.667c.001-.172-.028-.338-.255-.578-1.266-1.301-2.774-1.938-4.601-1.938-1.815 0-3.292.597-4.518 1.824-.199.199-.382.406-.548.619l-.18.232-.265.126c-3.93 1.852-6.469 5.853-6.469 10.194 0 .242.008.482.023.721l.036.565-.406.394c-.09.087-.163.222-.215.4-.494 1.747-.293 3.371.621 4.955.907 1.57 2.163 2.552 3.839 3.001.757.202 1.514.264 2.237.192z" fill="#505050"/><g stroke-width=".4094"><circle cx="14.587" cy="16.303" fill="#767676" r="12.492" stroke="#a2a2a2"/><circle cx="14.81" cy="16.822" fill="url(#a)" r="11.205" stroke="#c1c1c1"/><path d="m28.548 18.53c-.534-1.988-1.728-3.517-3.581-4.587s-3.778-1.342-5.776-.815c-.224.059-.442.127-.655.203-.182-.046-.379-.07-.59-.07h-2.642c-.989 0-1.83-.352-2.523-1.057-.693-.704-1.039-1.553-1.039-2.545s.346-1.835 1.038-2.53 1.532-1.042 2.522-1.042c.257 0 .514.027.771.081l-2.13 2.115c-.438.432-.657.893-.657 1.384 0 .55.203 1.03.608 1.442.406.412.885.618 1.44.618.495 0 .96-.199 1.395-.599l3.799-3.72c.574-.436.861-.982.861-1.637 0-.496-.198-.952-.594-1.369-1.504-1.548-3.335-2.322-5.491-2.322-2.137 0-3.933.728-5.387 2.184-1.455 1.456-2.182 3.255-2.182 5.395s.727 3.943 2.182 5.409c.175.177.355.342.54.497.051.168.125.337.223.507l1.321 2.288c.495.857.61 1.761.346 2.713s-.825 1.676-1.685 2.172c-.859.496-1.762.618-2.71.366-.946-.251-1.668-.805-2.162-1.661-.128-.222-.233-.458-.316-.708l2.897.788c.593.163 1.102.122 1.527-.123.476-.275.791-.691.945-1.248.154-.558.092-1.076-.185-1.556-.247-.428-.653-.731-1.216-.909l-5.122-1.43c-.665-.279-1.281-.254-1.848.073-.429.248-.726.648-.889 1.199-.588 2.076-.343 4.049.735 5.917 1.069 1.851 2.597 3.042 4.586 3.573 1.989.532 3.91.262 5.763-.808s3.051-2.601 3.594-4.594c.063-.232.115-.463.156-.693.119-.128.228-.276.325-.444l1.321-2.288c.495-.857 1.22-1.409 2.177-1.657.956-.248 1.864-.123 2.724.373.859.496 1.416 1.217 1.672 2.164.256.946.136 1.848-.358 2.705-.128.222-.28.431-.455.627l-.766-2.902c-.155-.595-.445-1.015-.87-1.26-.476-.275-.994-.34-1.553-.194-.56.145-.978.458-1.255.938-.247.428-.307.931-.179 1.508l1.322 5.151c.091.715.42 1.236.988 1.564.43.248.924.305 1.482.17 2.092-.529 3.678-1.727 4.756-3.595 1.067-1.854 1.334-3.774.8-5.761z" fill="url(#b)" stroke="#6a6a6a"/></g></svg>