<svg enable-background="new 0 0 537.287 286" viewBox="0 0 537.287 286" xmlns="http://www.w3.org/2000/svg" xmlns:xlink="http://www.w3.org/1999/xlink"><linearGradient id="a" gradientUnits="userSpaceOnUse" x1="193.3333" x2="193.3333" y1="286" y2="0"><stop offset="0" stop-color="#040006"/><stop offset=".08" stop-color="#191c21"/><stop offset=".92" stop-color="#191c21"/><stop offset="1" stop-color="#040006"/></linearGradient><linearGradient id="b"><stop offset=".1744" stop-color="#ab364b"/><stop offset=".2797" stop-color="#893444"/><stop offset=".4525" stop-color="#5c2b36"/><stop offset=".6024" stop-color="#42212b"/><stop offset=".7217" stop-color="#321a23"/><stop offset=".7957" stop-color="#2b161f"/><stop offset=".8113" stop-color="#2a161f"/><stop offset="1" stop-color="#200f19"/></linearGradient><radialGradient id="c" cx="105.3684" cy="110.625" gradientTransform="matrix(1 0 0 .45 0 60.8438)" gradientUnits="userSpaceOnUse" r="7.967" xlink:href="#b"/><radialGradient id="d" cx="65.3399" cy="133.7917" gradientTransform="matrix(1 0 0 .45 0 85.1687)" gradientUnits="userSpaceOnUse" r="7.967" xlink:href="#b"/><radialGradient id="e" cx="321.3268" cy="110.625" gradientTransform="matrix(1 0 0 .45 0 60.8438)" gradientUnits="userSpaceOnUse" r="7.967" xlink:href="#b"/><linearGradient id="f" gradientUnits="userSpaceOnUse" x1="488.8181" x2="488.8181" y1="260.9006" y2="197.8417"><stop offset="0" stop-color="#b6b9a6"/><stop offset=".5" stop-color="#b5b7a5"/><stop offset=".6" stop-color="#507a36"/><stop offset=".7" stop-color="#a17440"/><stop offset=".7063" stop-color="#906a3f"/><stop offset=".7216" stop-color="#6f553b"/><stop offset=".7389" stop-color="#574534"/><stop offset=".7579" stop-color="#44382e"/><stop offset=".7794" stop-color="#362d28"/><stop offset=".8045" stop-color="#2a2422"/><stop offset=".8356" stop-color="#211e1e"/><stop offset=".8791" stop-color="#1b1a1b"/><stop offset="1" stop-color="#1a181b"/></linearGradient><path d="m383.844 286h-381.021c-1.559 0-2.823-1.264-2.823-2.823v-280.354c0-1.559 1.264-2.823 2.823-2.823h381.021c1.559 0 2.823 1.264 2.823 2.823v280.354c0 1.559-1.264 2.823-2.823 2.823z" fill="url(#a)"/><g fill="#0c0a0c"><path d="m47.5 0h4.057v21.167h-4.057z"/><path d="m55.959 0h4.057v21.167h-4.057z"/><path d="m64.418 0h4.057v21.167h-4.057z"/><path d="m72.877 0h4.057v21.167h-4.057z"/><path d="m81.336 0h4.057v21.167h-4.057z"/><path d="m89.796 0h4.057v21.167h-4.057z"/><path d="m98.255 0h4.057v21.167h-4.057z"/><path d="m106.714 0h4.057v21.167h-4.057z"/><path d="m115.173 0h4.057v21.167h-4.057z"/><path d="m123.632 0h4.057v21.167h-4.057z"/><path d="m132.091 0h4.057v21.167h-4.057z"/><path d="m140.55 0h4.057v21.167h-4.057z"/><path d="m149.009 0h4.057v21.167h-4.057z"/><path d="m157.468 0h4.057v21.167h-4.057z"/><path d="m165.928 0h4.057v21.167h-4.057z"/><path d="m174.387 0h4.057v21.167h-4.057z"/><path d="m182.846 0h4.057v21.167h-4.057z"/><path d="m191.305 0h4.057v21.167h-4.057z"/><path d="m199.764 0h4.057v21.167h-4.057z"/><path d="m208.223 0h4.057v21.167h-4.057z"/><path d="m216.682 0h4.057v21.167h-4.057z"/><path d="m225.141 0h4.057v21.167h-4.057z"/><path d="m233.6 0h4.057v21.167h-4.057z"/><path d="m242.06 0h4.057v21.167h-4.057z"/><path d="m250.519 0h4.057v21.167h-4.057z"/><path d="m258.978 0h4.057v21.167h-4.057z"/><path d="m267.437 0h4.057v21.167h-4.057z"/><path d="m275.896 0h4.057v21.167h-4.057z"/><path d="m284.355 0h4.057v21.167h-4.057z"/><path d="m292.814 0h4.057v21.167h-4.057z"/><path d="m301.273 0h4.057v21.167h-4.057z"/><path d="m309.732 0h4.057v21.167h-4.057z"/><path d="m318.191 0h4.057v21.167h-4.057z"/><path d="m326.651 0h4.057v21.167h-4.057z"/><path d="m335.11 0h4.057v21.167h-4.057z"/></g><path d="m253.615 94.75h-120.563c-.387 0-.701-.314-.701-.701v-38.598c0-.387.314-.701.701-.701h120.563c.387 0 .701.314.701.701v38.599c-.001.386-.314.7-.701.7z" fill="#111113"/><path d="m239.822 83.625h-92.977c-.226 0-.409-.183-.409-.409v-16.932c0-.226.183-.409.409-.409h92.977c.226 0 .409.183.409.409v16.931c0 .227-.183.41-.409.41z" fill="#161517"/><path d="m0 106.25h386.667v8.75h-386.667z" fill="#210f1a"/><path d="m0 141h386.667v8.75h-386.667z" fill="#210f1a"/><path d="m0 257.25h386.667v2.375h-386.667z" fill="#141518"/><path d="m.479 115h386.25v.691h-386.25z" fill="#141518"/><path d="m.479 119.218h49.979v.691h-49.979z" fill="#141518"/><path d="m296.18 119.218h10.265v.691h-10.265z" fill="#141518"/><path d="m336.208 119.218h50.521v.691h-50.521z" fill="#141518"/><path d="m80.221 119.218h10.265v.691h-10.265z" fill="#141518"/><path d="m.479 123.436h386.25v.691h-386.25z" fill="#141518"/><path d="m.479 127.654h386.25v.691h-386.25z" fill="#141518"/><path d="m.479 131.872h386.25v.691h-386.25z" fill="#141518"/><path d="m.479 136.09h386.25v.691h-386.25z" fill="#141518"/><path d="m.479 140.309h386.25v.691h-386.25z" fill="#141518"/><path d="m.479 149.75h386.25v.691h-386.25z" fill="#141518"/><path d="m.479 158.186h386.25v.691h-386.25z" fill="#141518"/><path d="m.479 162.404h386.25v.691h-386.25z" fill="#141518"/><path d="m.479 166.622h386.25v.691h-386.25z" fill="#141518"/><path d="m.479 170.84h386.25v.691h-386.25z" fill="#141518"/><path d="m.479 175.059h386.25v.691h-386.25z" fill="#141518"/><path d="m.479 153.968h49.979v.691h-49.979z" fill="#141518"/><path d="m296.18 153.968h10.265v.691h-10.265z" fill="#141518"/><path d="m336.208 153.968h50.521v.691h-50.521z" fill="#141518"/><path d="m80.221 153.968h10.265v.691h-10.265z" fill="#141518"/><path d="m120.25 153.968h146.167v.691h-146.167z" fill="#141518"/><path d="m120.25 115h146.167v26h-146.167z" fill="#aaa9a9"/><path d="m143.839 126.079c0 2.245-.446 4.063-1.336 5.455-1.123 1.74-2.851 2.602-5.184 2.584v-1.736c3.718.026 5.576-2.64 5.576-8 0-.548-.014-1.2-.044-1.957h.988z" fill="#fff"/><path d="m144.159 122.425h1.612v11.693h-1.612z" fill="#fff"/><path d="m152.611 134.118h-.116c-2.198 0-3.868-.892-5.01-2.675-.91-1.444-1.365-3.232-1.365-5.364v-3.654h.973c0 2.932.213 5.059.639 6.382.813 2.532 2.44 3.724 4.879 3.576z" fill="#fff"/><path d="m165.749 134.098h-2.373l-.59-2.208h-3.206l-.616 2.208h-2.385l2.962-10.248c.115-.401.308-.736.59-1.017.269-.281.603-.428.987-.428.423 0 .795.147 1.116.455s.539.682.667 1.124zm-3.604-4.348-.949-5.004-1.052 5.004zm9.708-4.977h-2.078v9.325h-2.334v-9.325h-2.103v-2.194h6.515zm8.772 9.325h-2.373l-.59-2.208h-3.206l-.616 2.208h-2.385l2.962-10.248c.115-.401.308-.736.59-1.017.269-.281.603-.428.987-.428.423 0 .795.147 1.116.455s.539.682.667 1.124zm-3.604-4.348-.949-5.004-1.052 5.004zm11.927 4.348h-2.693l-2.27-4.536c-.103-.214-.192-.415-.256-.602-.064-.174-.103-.321-.103-.415 0-.508.372-.923 1.141-1.244.757-.321 1.141-.736 1.141-1.217 0-.294-.103-.589-.321-.883-.218-.281-.449-.428-.705-.428h-1.334v9.325h-2.257v-9.954c0-.348.154-.696.462-1.03s.616-.495.923-.495h2.244c.872 0 1.642.334 2.296.99.654.669.987 1.432.987 2.301 0 .696-.192 1.284-.564 1.766s-.898.883-1.552 1.204zm3.219.04h-2.347v-11.519h2.347z" fill="#fff"/><path d="m230.348 134.163c1.726 0 3.106-.592 4.141-1.775 1.085-1.233 1.627-2.613 1.627-4.141s-.592-2.909-1.775-4.092-2.564-1.775-4.141-1.775c-1.578 0-3.007.592-4.191 1.775-1.183 1.134-1.775 2.613-1.775 4.289 0 1.725.592 3.106 1.824 4.141 1.184 1.035 2.663 1.578 4.29 1.578zm-2.564-3.254c-.739-.641-1.085-1.479-1.085-2.465 0-.937.345-1.775 1.035-2.514s1.528-1.085 2.564-1.085c.887 0 1.676.345 2.366 1.035s1.035 1.479 1.035 2.366c0 1.085-.345 1.923-.937 2.613-.69.641-1.479.986-2.416.986-.984.001-1.872-.295-2.562-.936z" fill="#fff"/><path d="m243.264 134.163c1.725 0 3.106-.592 4.141-1.775 1.085-1.233 1.627-2.613 1.627-4.141s-.592-2.909-1.775-4.092-2.564-1.775-4.141-1.775c-1.578 0-3.007.592-4.191 1.775-1.183 1.134-1.775 2.613-1.775 4.289 0 1.725.592 3.106 1.824 4.141 1.184 1.035 2.663 1.578 4.29 1.578zm-2.563-3.254c-.74-.641-1.085-1.479-1.085-2.465 0-.937.345-1.775 1.035-2.514s1.528-1.085 2.564-1.085c.887 0 1.676.345 2.366 1.035s1.035 1.479 1.035 2.366c0 1.085-.345 1.923-.937 2.613-.69.641-1.479.986-2.416.986-.985.001-1.872-.295-2.562-.936z" fill="#fff"/><path d="m208.41 126.374h-2.133c.057-1.239.446-2.215 1.168-2.926.721-.711 1.646-1.066 2.777-1.066.697 0 1.313.147 1.848.441.533.294.961.719 1.281 1.273s.48 1.119.48 1.691c0 .683-.194 1.417-.583 2.203-.388.787-1.098 1.716-2.13 2.789l-1.289 1.359h4.096v2.023h-7.961v-1.047l3.555-3.625c.859-.87 1.431-1.569 1.715-2.098.283-.528.426-1.006.426-1.434 0-.442-.147-.809-.441-1.098-.295-.289-.674-.434-1.137-.434-.469 0-.859.175-1.172.523-.312.353-.479.827-.5 1.426z" fill="#fff"/><path d="m221.382 127.798c.508.326.901.744 1.178 1.255s.415 1.064.415 1.66c0 .646-.161 1.244-.484 1.794-.323.549-.756.963-1.3 1.24s-1.238.416-2.082.416c-.905 0-1.624-.133-2.158-.4s-.961-.672-1.281-1.214-.48-1.153-.48-1.836c0-.59.129-1.128.385-1.614s.642-.92 1.155-1.301c-.336-.34-.588-.703-.759-1.086s-.255-.788-.255-1.215c0-.584.141-1.116.423-1.596s.678-.854 1.186-1.12c.508-.267 1.095-.4 1.762-.4.656 0 1.233.134 1.731.404.499.269.891.652 1.178 1.147s.431 1.028.431 1.597c0 .401-.075.773-.225 1.116-.15.341-.423.726-.82 1.153zm-2.28 1.141c-.514 0-.946.156-1.296.469s-.526.685-.526 1.117c0 .453.165.835.496 1.148s.765.469 1.304.469c.544 0 .977-.146 1.3-.439.323-.292.484-.67.484-1.133 0-.462-.168-.85-.503-1.163-.336-.312-.756-.468-1.259-.468zm-.084-4.5c-.351 0-.64.115-.866.346s-.339.526-.339.886.119.662.358.905c.239.244.534.365.885.365.361 0 .657-.119.888-.357.232-.238.347-.547.347-.928 0-.36-.117-.653-.351-.878-.233-.226-.541-.339-.922-.339z" fill="#fff"/><path d="m266.417 115h29.763v26h-29.763z" fill="none" stroke="#040006" stroke-miterlimit="10" stroke-width="1.0263"/><path d="m271.034 116.733 1.511 5.081h-.922l-.306-1.132h-1.511l-.316 1.132h-.895l1.527-5.081zm.051 3.117-.509-1.865h-.012l-.525 1.865z" fill="#fff"/><path d="m274.072 119.437v.868h-1.703v-.868z" fill="#fff"/><path d="m277.348 116.733v.94h-2.133v1.088h1.957v.868h-1.957v1.246h2.178v.94h-3.066v-5.081h3.021z" fill="#fff"/><path d="m277.245 116.733h1.03l.792 1.623.819-1.623h.974l-1.296 2.428 1.409 2.654h-1.059l-.882-1.758-.899 1.758h-.996l1.409-2.662z" fill="#fff"/><path d="m282.716 116.733c.252 0 .467.046.645.139.177.093.321.214.433.367.111.152.192.326.243.519.051.195.076.397.076.605 0 .205-.025.405-.076.602-.051.196-.132.371-.243.523s-.256.274-.433.367c-.178.093-.393.138-.645.138h-.934v1.823h-.889v-5.081h1.823zm-.243 2.392c.102 0 .199-.011.294-.029.094-.019.177-.056.249-.11.071-.054.129-.132.172-.232.044-.099.065-.23.065-.392 0-.16-.021-.291-.065-.39-.043-.101-.101-.177-.172-.232-.072-.054-.155-.091-.249-.11-.095-.02-.192-.029-.294-.029h-.69v1.523h.69z" fill="#fff"/><path d="m287.252 116.733v.94h-2.133v1.088h1.958v.868h-1.958v1.246h2.179v.94h-3.066v-5.081h3.02z" fill="#fff"/><path d="m289.64 116.733c.181 0 .344.037.489.111.145.073.27.173.373.302.104.128.183.277.237.445.055.168.082.349.082.544 0 .299-.05.559-.149.776-.101.218-.264.385-.489.499v.013c.109.038.199.097.271.175.071.078.13.171.175.278.046.106.078.224.1.352.021.128.034.255.042.384.004.081.008.176.012.285.003.11.01.221.02.335s.024.221.045.324c.021.102.052.188.094.259h-.889c-.049-.161-.079-.353-.09-.577-.012-.222-.028-.435-.051-.641-.03-.265-.095-.459-.192-.582-.099-.124-.259-.185-.481-.185h-.888v1.985h-.889v-5.081h2.178zm-.318 2.299c.204 0 .356-.057.458-.171.103-.114.153-.299.153-.556 0-.246-.051-.425-.153-.537-.102-.111-.254-.167-.458-.167h-.973v1.431z" fill="#fff"/><path d="m290.691 117.673v-.94h3.31v.94h-1.211v4.142h-.888v-4.142z" fill="#fff"/><path d="m90.487 149.75h29.763v26h-29.763z" fill="none" stroke="#040006" stroke-miterlimit="10" stroke-width="1.0263"/><path d="m306.445 149.75h29.763v26h-29.763z" fill="none" stroke="#040006" stroke-miterlimit="10" stroke-width="1.0263"/><path d="m266.417 149.75h29.763v26h-29.763z" fill="none" stroke="#040006" stroke-miterlimit="10" stroke-width="1.0263"/><path d="m97.262 151.483c.253 0 .468.046.646.139.177.093.321.214.433.365.11.152.192.326.243.52.051.195.076.396.076.605 0 .204-.025.404-.076.601s-.133.372-.243.523c-.111.152-.256.274-.433.367-.178.093-.393.139-.646.139h-.934v1.821h-.888v-5.08zm-.243 2.391c.102 0 .2-.009.294-.028.095-.02.178-.056.249-.111.071-.054.129-.131.173-.23.043-.101.064-.23.064-.392s-.021-.293-.064-.392c-.044-.099-.102-.176-.173-.232-.071-.054-.154-.09-.249-.11-.094-.019-.192-.028-.294-.028h-.69v1.522h.69z" fill="#fff"/><path d="m100.373 151.483 1.511 5.08h-.922l-.306-1.132h-1.511l-.316 1.132h-.895l1.527-5.08zm.051 3.116-.509-1.864h-.012l-.525 1.864z" fill="#fff"/><path d="m103.541 151.483c.261 0 .503.052.727.156.225.105.419.261.583.47s.292.47.385.782c.093.314.139.682.139 1.104 0 .369-.038.711-.113 1.024-.075.312-.189.582-.342.811-.153.228-.344.406-.572.536-.228.131-.496.196-.806.196h-1.742v-5.08h1.741zm-.062 4.142c.129 0 .253-.026.374-.079.12-.052.228-.138.322-.259.094-.12.17-.278.227-.473.056-.195.084-.432.084-.712 0-.255-.02-.487-.059-.694-.04-.206-.105-.383-.195-.531-.091-.147-.211-.259-.359-.338-.149-.078-.333-.118-.552-.118h-.634v3.203h.792z" fill="#fff"/><path d="m107.297 151.483c.261 0 .503.052.727.156.225.105.419.261.583.47s.292.47.385.782c.093.314.139.682.139 1.104 0 .369-.038.711-.113 1.024-.075.312-.189.582-.342.811-.153.228-.344.406-.572.536-.228.131-.496.196-.806.196h-1.742v-5.08h1.741zm-.062 4.142c.129 0 .253-.026.374-.079.12-.052.228-.138.322-.259.094-.12.17-.278.227-.473.056-.195.084-.432.084-.712 0-.255-.02-.487-.059-.694-.04-.206-.105-.383-.195-.531-.091-.147-.211-.259-.359-.338-.149-.078-.333-.118-.552-.118h-.634v3.203h.792z" fill="#fff"/><path d="m110.199 151.483v4.142h1.969v.938h-2.857v-5.08z" fill="#fff"/><path d="m115.25 151.483v.938h-2.133v1.089h1.958v.868h-1.958v1.246h2.179v.938h-3.066v-5.08h3.02z" fill="#fff"/><path d="m272.423 155.433c.049.119.114.214.195.289.081.073.176.128.285.163.109.036.223.054.34.054.079 0 .164-.008.255-.025.09-.017.175-.049.254-.097.079-.046.146-.113.198-.195.053-.083.079-.189.079-.318 0-.138-.035-.249-.104-.334-.07-.086-.161-.158-.274-.214s-.241-.106-.385-.15c-.144-.042-.288-.09-.436-.142-.15-.048-.298-.106-.441-.175s-.271-.158-.385-.266c-.112-.11-.204-.246-.274-.409-.069-.164-.104-.363-.104-.594 0-.261.045-.488.133-.68.089-.192.205-.352.349-.48.143-.127.305-.222.486-.285.181-.061.362-.093.543-.093.211 0 .414.03.608.09.193.058.366.155.518.287.15.134.271.303.358.51.089.206.134.457.134.75h-.86c-.008-.152-.033-.278-.076-.377-.044-.099-.101-.177-.173-.234-.071-.057-.153-.098-.246-.122-.092-.024-.193-.036-.303-.036-.071 0-.143.009-.215.029-.071.019-.137.052-.195.099-.059.048-.106.107-.144.177-.038.071-.057.161-.057.271 0 .099.015.18.045.242.03.061.09.118.179.171.088.052.211.103.367.156.156.052.361.118.614.199.075.02.18.054.313.103.134.05.267.13.398.238.133.11.246.255.343.438.096.183.145.416.145.702 0 .232-.036.447-.107.647-.072.199-.179.371-.32.516-.142.144-.316.257-.525.338-.21.081-.452.12-.728.12-.223 0-.438-.034-.647-.103s-.395-.176-.555-.323-.287-.335-.382-.563c-.094-.228-.14-.498-.136-.811h.86c0 .173.024.319.073.437z" fill="#fff"/><path d="m278.001 151.605v.938h-2.133v1.089h1.957v.868h-1.957v1.246h2.178v.938h-3.066v-5.08h3.021z" fill="#fff"/><path d="m279.098 151.605v4.142h1.969v.938h-2.856v-5.08z" fill="#fff"/><path d="m284.149 151.605v.938h-2.133v1.089h1.957v.868h-1.957v1.246h2.178v.938h-3.066v-5.08h3.021z" fill="#fff"/><path d="m286.949 152.96c-.053-.107-.119-.2-.198-.281s-.169-.144-.269-.189-.204-.068-.313-.068c-.2 0-.37.049-.51.146-.14.098-.253.228-.339.392-.087.164-.15.349-.189.559-.04.209-.06.425-.06.647 0 .213.02.421.06.623.039.201.103.383.189.544s.199.29.339.388c.14.097.31.146.51.146.271 0 .483-.105.636-.314.153-.208.246-.483.28-.825h.859c-.022.318-.081.605-.175.86-.095.257-.219.475-.373.655-.155.18-.336.318-.544.413-.207.094-.436.142-.684.142-.31 0-.588-.068-.835-.203s-.455-.322-.625-.559-.3-.516-.391-.837c-.09-.32-.136-.664-.136-1.035 0-.38.046-.732.136-1.056.091-.326.221-.609.391-.851.17-.241.378-.432.625-.569.247-.138.525-.206.835-.206.222 0 .433.041.63.122.198.081.376.197.532.352.156.154.285.345.388.573.102.228.166.488.192.782h-.86c-.014-.127-.048-.244-.101-.351z" fill="#fff"/><path d="m287.798 152.543v-.938h3.31v.938h-1.211v4.142h-.888v-4.142z" fill="#fff"/><path d="m315.336 151.605c.181 0 .344.037.489.11.146.074.27.175.373.303.104.127.184.275.238.445.055.168.082.349.082.544 0 .299-.05.557-.15.776-.1.218-.263.384-.489.498v.015c.109.038.2.095.271.175.072.078.13.171.176.277.045.107.078.225.099.352.021.128.035.257.043.385.003.081.007.175.011.285.004.109.011.22.02.334.01.114.025.222.046.324s.052.188.093.259h-.888c-.049-.161-.079-.353-.091-.576-.011-.224-.028-.437-.051-.641-.03-.266-.094-.461-.192-.584s-.258-.185-.48-.185h-.889v1.985h-.888v-5.08h2.177zm-.316 2.298c.203 0 .356-.057.458-.171s.152-.299.152-.555c0-.246-.051-.426-.152-.537-.102-.111-.255-.167-.458-.167h-.974v1.43z" fill="#fff"/><path d="m319.827 151.605v.938h-2.133v1.089h1.958v.868h-1.958v1.246h2.179v.938h-3.066v-5.08h3.02z" fill="#fff"/><path d="m320.716 155.433c.049.119.113.214.194.289.081.073.177.128.286.163.109.036.223.054.339.054.08 0 .164-.008.255-.025s.176-.049.255-.097c.079-.046.145-.113.198-.195.053-.083.079-.189.079-.318 0-.138-.035-.249-.105-.334-.069-.086-.161-.158-.273-.214-.113-.057-.242-.106-.385-.15-.144-.042-.289-.09-.436-.142-.151-.048-.298-.106-.441-.175s-.271-.158-.385-.266c-.113-.11-.205-.246-.274-.409-.07-.164-.104-.363-.104-.594 0-.261.044-.488.133-.68s.204-.352.348-.48c.144-.127.306-.222.486-.285.182-.061.362-.093.543-.093.212 0 .414.03.608.09.194.058.367.155.518.287.151.134.271.303.359.51.089.206.133.457.133.75h-.859c-.008-.152-.033-.278-.077-.377-.043-.099-.101-.177-.172-.234-.072-.057-.154-.098-.246-.122-.093-.024-.193-.036-.303-.036-.072 0-.144.009-.215.029-.072.019-.137.052-.195.099-.059.048-.106.107-.145.177-.037.071-.057.161-.057.271 0 .099.016.18.046.242.029.061.089.118.178.171.089.052.211.103.368.156.156.052.36.118.613.199.075.02.18.054.314.103.134.05.267.13.398.238.132.11.246.255.342.438.097.183.145.416.145.702 0 .232-.036.447-.107.647-.071.199-.178.371-.319.516-.142.144-.317.257-.526.338s-.451.12-.727.12c-.223 0-.438-.034-.648-.103-.209-.069-.394-.176-.554-.323s-.288-.335-.382-.563c-.095-.228-.14-.498-.136-.811h.859c0 .173.024.319.074.437z" fill="#fff"/><path d="m326.293 151.605v.938h-2.133v1.089h1.958v.868h-1.958v1.246h2.179v.938h-3.066v-5.08h3.02z" fill="#fff"/><path d="m326.186 152.543v-.938h3.31v.938h-1.211v4.142h-.888v-4.142z" fill="#fff"/><path d="m161.958 76.906h-15.523v-4.313h15.523c.242 0 .438.196.438.438v3.438c0 .241-.196.437-.438.437z" fill="#080609"/><path d="m224.708 76.906h15.523v-4.313h-15.523c-.242 0-.438.196-.438.438v3.438c.001.241.197.437.438.437z" fill="#080609"/><path d="m215.792 75.625h-44.953c-.16 0-.289-.129-.289-.289v-1.172c0-.16.129-.289.289-.289h44.953c.16 0 .289.129.289.289v1.172c0 .16-.13.289-.289.289z" fill="#080609"/><path d="m112.944 115h-15.151c-1.819 0-3.307-1.488-3.307-3.307v-2.136c0-1.819 1.488-3.307 3.307-3.307h15.152c1.819 0 3.307 1.488 3.307 3.307v2.136c-.001 1.819-1.489 3.307-3.308 3.307z" fill="url(#c)"/><path d="m90.487 115h29.763v26h-29.763z" fill="none" stroke="#040006" stroke-miterlimit="10" stroke-width="1.0263"/><path d="m72.916 149.75h-15.152c-1.819 0-3.307-1.488-3.307-3.307v-2.136c0-1.819 1.488-3.307 3.307-3.307h15.152c1.819 0 3.307 1.488 3.307 3.307v2.136c0 1.819-1.488 3.307-3.307 3.307z" fill="url(#d)"/><path d="m50.458 115h29.763v26h-29.763z" fill="none" stroke="#040006" stroke-miterlimit="10" stroke-width="1.0263"/><path d="m55.076 116.733 1.511 5.316h-.922l-.306-1.184h-1.511l-.316 1.184h-.895l1.527-5.316zm.051 3.261-.509-1.951h-.012l-.525 1.951z" fill="#fff"/><path d="m58.114 119.562v.908h-1.703v-.908z" fill="#fff"/><path d="m61.389 116.733v.983h-2.133v1.138h1.957v.908h-1.957v1.303h2.178v.983h-3.066v-5.316h3.021z" fill="#fff"/><path d="m61.287 116.733h1.03l.792 1.698.819-1.698h.974l-1.296 2.539 1.409 2.776h-1.059l-.882-1.839-.899 1.839h-.996l1.409-2.785z" fill="#fff"/><path d="m66.757 116.733c.252 0 .467.048.645.145.177.097.321.224.433.384.111.159.192.341.243.543.051.204.076.415.076.633 0 .215-.025.424-.076.63-.051.205-.132.388-.243.547s-.256.287-.433.384c-.178.097-.393.144-.645.144h-.934v1.907h-.889v-5.316h1.823zm-.243 2.502c.102 0 .199-.011.294-.03.094-.019.177-.058.249-.115.071-.057.129-.138.172-.242.044-.104.065-.241.065-.41 0-.168-.021-.305-.065-.408-.043-.105-.101-.186-.172-.242-.072-.057-.155-.096-.249-.115-.095-.021-.192-.03-.294-.03h-.69v1.594h.69z" fill="#fff"/><path d="m71.294 116.733v.983h-2.133v1.138h1.958v.908h-1.958v1.303h2.179v.983h-3.066v-5.316h3.02z" fill="#fff"/><path d="m73.681 116.733c.181 0 .344.039.489.116.145.076.27.181.373.316.104.134.183.289.237.465.055.176.082.366.082.569 0 .313-.05.584-.149.811-.101.228-.264.403-.489.522v.014c.109.04.199.101.271.183.071.082.13.179.175.291.046.111.078.234.1.368.021.134.034.267.042.402.004.084.008.184.012.298.003.115.01.231.02.35s.024.231.045.339c.021.107.052.197.094.271h-.889c-.049-.169-.079-.37-.09-.604-.012-.233-.028-.456-.051-.67-.03-.277-.095-.48-.192-.609-.099-.13-.259-.194-.481-.194h-.888v2.077h-.889v-5.316h2.178zm-.317 2.405c.204 0 .356-.06.458-.179.103-.119.153-.313.153-.582 0-.258-.051-.444-.153-.562-.102-.116-.254-.174-.458-.174h-.973v1.497z" fill="#fff"/><path d="m74.733 117.716v-.983h3.31v.983h-1.211v4.333h-.888v-4.333z" fill="#fff"/><path d="m50.458 149.75h29.763v26h-29.763z" fill="none" stroke="#040006" stroke-miterlimit="10" stroke-width="1.0263"/><path d="m55.328 155.633c-.026.199-.087.385-.182.559-.094.172-.229.318-.407.434-.177.115-.416.173-.718.173-.17 0-.334-.029-.492-.089-.159-.06-.3-.152-.425-.278-.124-.126-.225-.286-.3-.483s-.113-.435-.113-.715v-.442h.804v.228c0 .124.008.238.022.341.015.105.042.193.079.267.038.074.09.131.155.175.066.042.152.064.258.064.117 0 .207-.026.271-.078.064-.053.11-.12.139-.203.028-.083.045-.173.051-.271.006-.097.009-.191.009-.281v-3.43h.888v3.48c0 .166-.013.349-.039.549z" fill="#fff"/><path d="m55.672 153.11c.091-.326.221-.609.391-.851.169-.241.378-.432.625-.569.247-.138.524-.206.834-.206.313 0 .592.069.837.206.245.138.453.328.623.569.169.242.3.525.39.851.091.324.136.676.136 1.056 0 .371-.045.715-.136 1.035-.09.32-.221.6-.39.837-.17.237-.378.424-.623.559s-.523.203-.837.203c-.31 0-.587-.068-.834-.203s-.456-.322-.625-.559c-.17-.237-.3-.516-.391-.837-.091-.32-.136-.664-.136-1.035.001-.38.046-.732.136-1.056zm.812 1.68c.04.201.103.383.189.544s.2.29.34.388c.14.097.309.146.509.146s.369-.049.509-.146c.14-.098.253-.226.34-.388s.149-.343.189-.544c.04-.203.06-.41.06-.623 0-.222-.02-.438-.06-.647s-.103-.394-.189-.559-.2-.294-.34-.392c-.14-.097-.309-.146-.509-.146s-.369.049-.509.146c-.14.098-.253.228-.34.392s-.149.349-.189.559c-.039.209-.06.425-.06.647 0 .212.021.42.06.623z" fill="#fff"/><path d="m59.242 151.605h.995l.945 2.007.938-2.007h.99l-1.499 3.13v1.95h-.888v-1.977z" fill="#fff"/><path d="m63.694 155.433c.049.119.114.214.195.289.081.073.176.128.285.163.109.036.223.054.34.054.079 0 .164-.008.255-.025.09-.017.175-.049.254-.097.079-.046.146-.113.198-.195.053-.083.079-.189.079-.318 0-.138-.035-.249-.104-.334-.07-.086-.161-.158-.274-.214s-.241-.106-.385-.15c-.144-.042-.288-.09-.436-.142-.15-.048-.298-.106-.441-.175s-.271-.158-.385-.266c-.112-.11-.204-.246-.274-.409-.069-.164-.104-.363-.104-.594 0-.261.045-.488.133-.68.089-.192.205-.352.349-.48.143-.127.305-.222.486-.285.181-.061.362-.093.543-.093.211 0 .414.03.608.09.193.058.366.155.518.287.15.134.271.303.358.51.089.206.134.457.134.75h-.86c-.008-.152-.033-.278-.076-.377-.044-.099-.101-.177-.173-.234-.071-.057-.153-.098-.246-.122-.092-.024-.193-.036-.303-.036-.071 0-.143.009-.215.029-.071.019-.137.052-.195.099-.059.048-.106.107-.144.177-.038.071-.057.161-.057.271 0 .099.015.18.045.242.03.061.09.118.179.171.088.052.211.103.367.156.156.052.361.118.614.199.075.02.18.054.313.103.134.05.267.13.398.238.133.11.246.255.343.438.096.183.145.416.145.702 0 .232-.036.447-.107.647-.072.199-.179.371-.32.516-.142.144-.316.257-.525.338-.21.081-.452.12-.728.12-.223 0-.438-.034-.647-.103s-.395-.176-.555-.323-.287-.335-.382-.563c-.094-.228-.14-.498-.136-.811h.86c0 .173.024.319.073.437z" fill="#fff"/><path d="m65.934 152.543v-.938h3.309v.938h-1.21v4.142h-.889v-4.142z" fill="#fff"/><path d="m70.16 151.605v5.08h-.889v-5.08z" fill="#fff"/><path d="m73.095 152.96c-.053-.107-.119-.2-.198-.281s-.169-.144-.269-.189-.204-.068-.313-.068c-.2 0-.37.049-.51.146-.14.098-.253.228-.339.392-.087.164-.15.349-.189.559-.04.209-.06.425-.06.647 0 .213.02.421.06.623.039.201.103.383.189.544s.199.29.339.388c.14.097.31.146.51.146.271 0 .483-.105.636-.314.153-.208.246-.483.28-.825h.859c-.022.318-.081.605-.175.86-.095.257-.219.475-.373.655-.155.18-.336.318-.544.413-.207.094-.436.142-.684.142-.31 0-.588-.068-.835-.203s-.455-.322-.625-.559-.3-.516-.391-.837c-.09-.32-.136-.664-.136-1.035 0-.38.046-.732.136-1.056.091-.326.221-.609.391-.851.17-.241.378-.432.625-.569.247-.138.525-.206.835-.206.222 0 .433.041.63.122.198.081.376.197.532.352.156.154.285.345.388.573.102.228.166.488.192.782h-.86c-.014-.127-.048-.244-.101-.351z" fill="#fff"/><path d="m75.149 151.605v2.106l1.578-2.106h1.108l-1.578 2.007 1.731 3.073h-1.114l-1.217-2.283-.509.647v1.636h-.888v-5.08z" fill="#fff"/><path d="m328.903 115h-15.152c-1.819 0-3.307-1.488-3.307-3.307v-2.136c0-1.819 1.488-3.307 3.307-3.307h15.152c1.819 0 3.307 1.488 3.307 3.307v2.136c0 1.819-1.488 3.307-3.307 3.307z" fill="url(#e)"/><path d="m306.445 115h29.763v26h-29.763z" fill="none" stroke="#040006" stroke-miterlimit="10" stroke-width="1.0263"/><path d="m311.068 116.854c.192 0 .368.021.526.065.158.042.294.113.407.209.113.098.201.226.263.388.063.161.094.361.094.598 0 .255-.046.47-.139.641s-.229.31-.41.42c.249.09.435.248.558.473.122.226.184.498.184.815 0 .255-.04.478-.119.666-.079.187-.186.34-.319.458-.134.119-.287.206-.458.263-.172.057-.348.086-.529.086h-1.957v-5.081h1.899zm-.113 2.056c.159 0 .289-.048.391-.143.102-.094.152-.249.152-.462 0-.119-.017-.216-.051-.291-.033-.077-.079-.136-.136-.179s-.121-.071-.195-.089c-.073-.017-.149-.025-.229-.025h-.832v1.189zm.051 2.157c.086 0 .169-.011.248-.032s.149-.057.21-.107c.06-.05.108-.118.144-.203.036-.086.054-.195.054-.327 0-.262-.058-.447-.175-.559-.117-.113-.271-.168-.464-.168h-.968v1.395h.951z" fill="#fff"/><path d="m314.327 119.558v.868h-1.703v-.868z" fill="#fff"/><path d="m315.463 116.854 1.686 3.408h.012v-3.408h.831v5.081h-.888l-1.68-3.402h-.012v3.402h-.832v-5.081z" fill="#fff"/><path d="m318.297 118.359c.091-.324.221-.608.391-.85.169-.242.378-.432.625-.569s.524-.206.834-.206c.313 0 .592.069.837.206s.453.327.623.569c.169.242.3.525.39.85.091.326.136.678.136 1.058 0 .369-.045.715-.136 1.035-.09.32-.221.598-.39.837-.17.237-.378.422-.623.559-.245.135-.523.203-.837.203-.31 0-.587-.068-.834-.203-.247-.136-.456-.322-.625-.559-.17-.238-.3-.516-.391-.837-.091-.32-.136-.666-.136-1.035.001-.381.046-.733.136-1.058zm.812 1.679c.04.201.103.384.189.544.087.161.2.291.34.388.14.098.309.147.509.147s.369-.049.509-.147c.14-.097.253-.226.34-.388.087-.16.149-.343.189-.544s.06-.409.06-.622c0-.224-.02-.439-.06-.649-.04-.208-.103-.394-.189-.559-.087-.163-.2-.294-.34-.39-.14-.098-.309-.146-.509-.146s-.369.048-.509.146c-.14.097-.253.228-.34.39-.087.164-.149.351-.189.559-.039.209-.06.425-.06.649 0 .213.021.421.06.622z" fill="#fff"/><path d="m323.179 121.935-1.307-5.081h.911l.899 3.572h.011l.911-3.572h.916l-1.34 5.081z" fill="#fff"/><path d="m326.319 116.854v5.081h-.889v-5.081z" fill="#fff"/><path d="m329.254 118.209c-.053-.106-.118-.2-.197-.281s-.169-.143-.269-.188c-.101-.045-.205-.068-.314-.068-.2 0-.369.048-.509.146-.14.097-.253.228-.34.39-.087.164-.149.351-.189.559-.039.209-.06.425-.06.649 0 .213.021.421.06.622.04.201.103.384.189.544.087.161.2.291.34.388.14.098.309.147.509.147.271 0 .483-.105.637-.314.152-.209.246-.484.279-.826h.86c-.022.319-.081.605-.176.862-.094.255-.219.474-.373.654-.154.181-.336.319-.543.413-.207.095-.436.143-.685.143-.31 0-.587-.068-.834-.203-.247-.136-.456-.322-.625-.559-.17-.238-.3-.516-.391-.837-.091-.32-.136-.666-.136-1.035 0-.38.045-.732.136-1.058.091-.324.221-.608.391-.85.169-.242.378-.432.625-.569s.524-.206.834-.206c.223 0 .433.04.631.12s.375.199.531.352c.157.155.286.345.388.573s.166.488.192.784h-.859c-.015-.127-.049-.245-.102-.352z" fill="#fff"/><path d="m333.441 116.854v.94h-2.133v1.088h1.957v.868h-1.957v1.246h2.178v.94h-3.066v-5.081h3.021z" fill="#fff"/><path d="m95.11 116.854c.192 0 .368.021.526.065.158.042.294.113.407.209.113.098.201.226.263.388.063.161.094.361.094.598 0 .255-.046.47-.139.641s-.229.31-.41.42c.249.09.435.248.558.473.122.226.184.498.184.815 0 .255-.04.478-.119.666-.079.187-.186.34-.319.458-.134.119-.287.206-.458.263-.172.057-.348.086-.529.086h-1.957v-5.081h1.899zm-.114 2.056c.159 0 .289-.048.391-.143.102-.094.152-.249.152-.462 0-.119-.017-.216-.051-.291-.033-.077-.079-.136-.136-.179s-.121-.071-.195-.089c-.073-.017-.149-.025-.229-.025h-.832v1.189zm.052 2.157c.086 0 .169-.011.248-.032s.149-.057.21-.107c.06-.05.108-.118.144-.203.036-.086.054-.195.054-.327 0-.262-.058-.447-.175-.559-.117-.113-.271-.168-.464-.168h-.968v1.395h.951z" fill="#fff"/><path d="m98.368 119.558v.868h-1.703v-.868z" fill="#fff"/><path d="m99.505 116.854 1.686 3.408h.012v-3.408h.831v5.081h-.888l-1.68-3.402h-.012v3.402h-.832v-5.081z" fill="#fff"/><path d="m102.339 118.359c.091-.324.221-.608.391-.85.169-.242.378-.432.625-.569s.524-.206.834-.206c.313 0 .592.069.837.206s.453.327.623.569c.169.242.3.525.39.85.091.326.136.678.136 1.058 0 .369-.045.715-.136 1.035-.09.32-.221.598-.39.837-.17.237-.378.422-.623.559-.245.135-.523.203-.837.203-.31 0-.587-.068-.834-.203-.247-.136-.456-.322-.625-.559-.17-.238-.3-.516-.391-.837-.091-.32-.136-.666-.136-1.035 0-.381.045-.733.136-1.058zm.812 1.679c.04.201.103.384.189.544.087.161.2.291.34.388.14.098.309.147.509.147s.369-.049.509-.147c.14-.097.253-.226.34-.388.087-.16.149-.343.189-.544s.06-.409.06-.622c0-.224-.02-.439-.06-.649-.04-.208-.103-.394-.189-.559-.087-.163-.2-.294-.34-.39-.14-.098-.309-.146-.509-.146s-.369.048-.509.146c-.14.097-.253.228-.34.39-.087.164-.149.351-.189.559-.039.209-.06.425-.06.649 0 .213.021.421.06.622z" fill="#fff"/><path d="m107.221 121.935-1.307-5.081h.911l.899 3.572h.011l.911-3.572h.916l-1.34 5.081z" fill="#fff"/><path d="m110.361 116.854v5.081h-.889v-5.081z" fill="#fff"/><path d="m113.296 118.209c-.053-.106-.118-.2-.197-.281s-.169-.143-.269-.188c-.101-.045-.205-.068-.314-.068-.2 0-.369.048-.509.146-.14.097-.253.228-.34.39-.087.164-.149.351-.189.559-.039.209-.06.425-.06.649 0 .213.021.421.06.622.04.201.103.384.189.544.087.161.2.291.34.388.14.098.309.147.509.147.271 0 .483-.105.637-.314.152-.209.246-.484.279-.826h.86c-.022.319-.081.605-.176.862-.094.255-.219.474-.373.654-.154.181-.336.319-.543.413-.207.095-.436.143-.685.143-.31 0-.587-.068-.834-.203-.247-.136-.456-.322-.625-.559-.17-.238-.3-.516-.391-.837-.091-.32-.136-.666-.136-1.035 0-.38.045-.732.136-1.058.091-.324.221-.608.391-.85.169-.242.378-.432.625-.569s.524-.206.834-.206c.223 0 .433.04.631.12s.375.199.531.352c.157.155.286.345.388.573s.166.488.192.784h-.859c-.015-.127-.049-.245-.102-.352z" fill="#fff"/><path d="m117.483 116.854v.94h-2.133v1.088h1.957v.868h-1.957v1.246h2.178v.94h-3.066v-5.081h3.021z" fill="#fff"/><path d="m535.417 286h-93.198c-1.029 0-1.87-.842-1.87-1.87v-114.218c0-1.029.842-1.87 1.87-1.87h93.198c1.029 0 1.87.842 1.87 1.87v114.218c0 1.028-.841 1.87-1.87 1.87z" fill="#21272b"/><path d="m530.757 280.102h-83.878c-.926 0-1.683-.757-1.683-1.683v-102.796c0-.926.757-1.683 1.683-1.683h83.878c.926 0 1.683.757 1.683 1.683v102.796c0 .926-.757 1.683-1.683 1.683z" fill="#1a181b"/><path d="m453.682 197.842h70.273c.667 0 1.212.546 1.212 1.212v60.634c0 .667-.546 1.212-1.212 1.212h-70.273c-.667 0-1.212-.546-1.212-1.212v-60.634c-.001-.667.545-1.212 1.212-1.212z" fill="url(#f)"/><path d="m457.797 259.435h-.696l-.287-1.038h-1.281l-.298 1.038h-.696l1.149-4.086c.088-.316.246-.475.475-.475.25 0 .42.159.508.475zm1.977-11.983c0 1.9-.339 3.439-1.016 4.616-.854 1.473-2.169 2.202-3.943 2.187v-1.469c2.827.022 4.241-2.234 4.241-6.77 0-.449-.011-1.001-.033-1.657h.751zm-3.17 10.271-.442-1.59-.442 1.59zm3.082-2.176h-.906v3.887h-.696v-3.887h-.906v-.674h2.507v.674zm2.65 3.888h-.718l-.276-1.038h-1.281l-.287 1.038h-.718l1.149-4.086c.088-.316.254-.475.497-.475.235 0 .39.159.464.475zm-1.093-5.18h-1.226v-9.895h1.226zm-.111 3.468-.431-1.59-.453 1.59zm5.312-3.468h-.088c-1.672 0-2.942-.755-3.81-2.264-.692-1.222-1.038-2.735-1.038-4.539v-3.092h.74c0 2.481.162 4.281.486 5.4.618 2.143 1.855 3.152 3.711 3.026v1.469zm-1.203 5.18h-.806c-.126-.147-.247-.298-.364-.453-.118-.155-.236-.313-.353-.475-.28-.405-.42-.747-.42-1.027 0-.235.188-.46.563-.674.383-.206.574-.431.574-.674 0-.39-.188-.585-.563-.585h-.685v3.887h-.674v-4.086c0-.316.151-.475.453-.475h.906c.324 0 .614.121.872.364.258.236.387.516.387.839 0 .692-.379 1.16-1.138 1.403zm.927 0h-.685v-4.561h.685z"/><path d="m468.334 253.856c.196 0 .382.027.557.08.175.054.326.138.455.255.128.116.221.25.276.4.056.15.084.313.084.489 0 .187-.031.366-.093.537-.061.171-.155.316-.279.435-.124.118-.282.209-.473.271-.192.062-.391.093-.599.093-.193 0-.378-.026-.557-.078-.178-.052-.332-.131-.462-.237s-.226-.238-.288-.397c-.062-.158-.094-.326-.094-.505 0-.19.035-.374.103-.55.07-.176.17-.324.301-.443.132-.119.291-.207.479-.263.189-.058.385-.087.59-.087zm-.005.275c-.163 0-.318.022-.466.066s-.276.117-.383.218c-.108.101-.187.22-.237.356-.051.136-.076.278-.076.427 0 .143.028.277.082.401.055.124.132.227.231.309s.218.141.355.177c.138.036.283.055.436.055.161 0 .314-.021.459-.064.145-.042.269-.111.371-.207s.178-.21.227-.342c.048-.133.073-.273.073-.422 0-.14-.022-.272-.067-.397-.044-.125-.115-.232-.212-.322s-.215-.155-.353-.195c-.139-.039-.285-.06-.44-.06zm-.686 1.674c.025-.232.043-.46.051-.684.008-.225.012-.45.012-.677.101.002.174.003.218.003.045 0 .107-.001.187-.004.079-.003.155-.005.228-.005.153 0 .262.008.329.024.067.017.122.041.165.074s.075.072.095.117c.021.045.031.097.031.155 0 .061-.011.117-.034.169-.022.052-.059.099-.109.138-.05.041-.108.071-.172.093.033.085.078.186.136.304.058.117.103.214.136.291-.099-.002-.181-.002-.244-.002-.07 0-.152.001-.246.002l-.067-.214c-.01-.03-.019-.06-.029-.087l-.183-.478c.049.008.093.012.131.012.045 0 .087-.007.126-.02.039-.014.069-.034.087-.062.019-.028.028-.057.028-.087 0-.027-.008-.05-.023-.07s-.039-.034-.073-.043c-.033-.009-.086-.013-.157-.013-.031 0-.076.001-.134.004-.009.112-.017.287-.023.527-.007.24-.011.416-.011.53-.097-.003-.174-.004-.231-.004-.065.003-.139.004-.224.007z"/></svg>