<svg viewBox="0 0 386.729 286" xmlns="http://www.w3.org/2000/svg" xmlns:xlink="http://www.w3.org/1999/xlink"><linearGradient id="a" gradientUnits="userSpaceOnUse" x1="193.333" x2="193.333" y1="286" y2="0"><stop offset="0" stop-color="#040006"/><stop offset=".08" stop-color="#191c21"/><stop offset=".92" stop-color="#191c21"/><stop offset="1" stop-color="#040006"/></linearGradient><linearGradient id="b"><stop offset=".174" stop-color="#ab364b"/><stop offset=".28" stop-color="#893444"/><stop offset=".453" stop-color="#5c2b36"/><stop offset=".602" stop-color="#42212b"/><stop offset=".722" stop-color="#321a23"/><stop offset=".796" stop-color="#2b161f"/><stop offset=".811" stop-color="#2a161f"/><stop offset="1" stop-color="#200f19"/></linearGradient><radialGradient id="c" cx="105.368" cy="110.625" gradientTransform="matrix(1 0 0 .45 0 60.844)" gradientUnits="userSpaceOnUse" r="7.967" xlink:href="#b"/><radialGradient id="d" cx="65.34" cy="133.792" gradientTransform="matrix(1 0 0 .45 0 85.169)" gradientUnits="userSpaceOnUse" r="7.967" xlink:href="#b"/><radialGradient id="e" cx="321.327" cy="110.625" gradientTransform="matrix(1 0 0 .45 0 60.844)" gradientUnits="userSpaceOnUse" r="7.967" xlink:href="#b"/><path d="m383.844 286h-381.021a2.823 2.823 0 0 1 -2.823-2.823v-280.354a2.823 2.823 0 0 1 2.823-2.823h381.021a2.823 2.823 0 0 1 2.823 2.823v280.354a2.823 2.823 0 0 1 -2.823 2.823z" fill="url(#a)"/><path d="m47.5 0h4.057v21.167h-4.057zm8.459 0h4.057v21.167h-4.057zm8.459 0h4.057v21.167h-4.057zm8.459 0h4.057v21.167h-4.057zm8.459 0h4.057v21.167h-4.057zm8.46 0h4.057v21.167h-4.057zm8.459 0h4.057v21.167h-4.057zm8.459 0h4.057v21.167h-4.057zm8.459 0h4.057v21.167h-4.057zm8.459 0h4.057v21.167h-4.057zm8.459 0h4.057v21.167h-4.057zm8.459 0h4.057v21.167h-4.057zm8.459 0h4.057v21.167h-4.057zm8.459 0h4.057v21.167h-4.057zm8.46 0h4.057v21.167h-4.057zm8.459 0h4.057v21.167h-4.057zm8.459 0h4.057v21.167h-4.057zm8.459 0h4.057v21.167h-4.057zm8.459 0h4.057v21.167h-4.057zm8.459 0h4.057v21.167h-4.057zm8.459 0h4.057v21.167h-4.057zm8.459 0h4.057v21.167h-4.057zm8.459 0h4.057v21.167h-4.057zm8.46 0h4.057v21.167h-4.057zm8.459 0h4.057v21.167h-4.057zm8.459 0h4.057v21.167h-4.057zm8.459 0h4.057v21.167h-4.057zm8.459 0h4.057v21.167h-4.057zm8.459 0h4.057v21.167h-4.057zm8.459 0h4.057v21.167h-4.057zm8.459 0h4.057v21.167h-4.057zm8.459 0h4.057v21.167h-4.057zm8.459 0h4.057v21.167h-4.057zm8.46 0h4.057v21.167h-4.057zm8.459 0h4.057v21.167h-4.057z" fill="#0c0a0c"/><path d="m253.615 94.75h-120.563a.701.701 0 0 1 -.701-.701v-38.598c0-.387.314-.701.701-.701h120.563c.387 0 .701.314.701.701v38.599a.702.702 0 0 1 -.701.7z" fill="#111113"/><path d="m239.822 83.625h-92.977a.409.409 0 0 1 -.409-.409v-16.932c0-.226.183-.409.409-.409h92.977c.226 0 .409.183.409.409v16.931a.41.41 0 0 1 -.409.41z" fill="#161517"/><path d="m0 106.25h386.667v8.75h-386.667zm0 34.75h386.667v8.75h-386.667z" fill="#210f1a"/><g fill="#141518"><path d="m0 257.25h386.667v2.375h-386.667z"/><path d="m.479 115h386.25v.691h-386.25zm0 4.218h49.979v.691h-49.979zm295.701 0h10.265v.691h-10.265zm40.028 0h50.521v.691h-50.521zm-255.987 0h10.265v.691h-10.265zm-79.742 4.218h386.25v.691h-386.25zm0 4.218h386.25v.691h-386.25zm0 4.218h386.25v.691h-386.25zm0 4.218h386.25v.691h-386.25zm0 4.219h386.25v.691h-386.25z"/><path d="m.479 149.75h386.25v.691h-386.25zm0 8.436h386.25v.691h-386.25zm0 4.218h386.25v.691h-386.25zm0 4.218h386.25v.691h-386.25zm0 4.218h386.25v.691h-386.25zm0 4.219h386.25v.691h-386.25zm0-21.091h49.979v.691h-49.979zm295.701 0h10.265v.691h-10.265zm40.028 0h50.521v.691h-50.521zm-255.987 0h10.265v.691h-10.265zm40.029 0h146.167v.691h-146.167z"/></g><path d="m120.25 115h146.167v26h-146.167z" fill="#aaa9a9"/><path d="m143.839 126.079c0 2.245-.446 4.063-1.336 5.455-1.123 1.74-2.851 2.602-5.184 2.584v-1.736c3.718.026 5.576-2.64 5.576-8 0-.548-.014-1.2-.044-1.957h.988zm.32-3.654h1.612v11.693h-1.612zm8.452 11.693h-.116c-2.198 0-3.868-.892-5.01-2.675-.91-1.444-1.365-3.232-1.365-5.364v-3.654h.973c0 2.932.213 5.059.639 6.382.813 2.532 2.44 3.724 4.879 3.576z" fill="#fff"/><path d="m165.749 134.098h-2.373l-.59-2.208h-3.206l-.616 2.208h-2.385l2.962-10.248a2.29 2.29 0 0 1 .59-1.017c.269-.281.603-.428.987-.428.423 0 .795.147 1.116.455s.539.682.667 1.124zm-3.604-4.348-.949-5.004-1.052 5.004zm9.708-4.977h-2.078v9.325h-2.334v-9.325h-2.103v-2.194h6.515zm8.772 9.325h-2.373l-.59-2.208h-3.206l-.616 2.208h-2.385l2.962-10.248a2.29 2.29 0 0 1 .59-1.017c.269-.281.603-.428.987-.428.423 0 .795.147 1.116.455s.539.682.667 1.124zm-3.604-4.348-.949-5.004-1.052 5.004zm11.927 4.348h-2.693l-2.27-4.536a5.626 5.626 0 0 1 -.256-.602 1.393 1.393 0 0 1 -.103-.415c0-.508.372-.923 1.141-1.244.757-.321 1.141-.736 1.141-1.217 0-.294-.103-.589-.321-.883-.218-.281-.449-.428-.705-.428h-1.334v9.325h-2.257v-9.954c0-.348.154-.696.462-1.03s.616-.495.923-.495h2.244c.872 0 1.642.334 2.296.99.654.669.987 1.432.987 2.301 0 .696-.192 1.284-.564 1.766s-.898.883-1.552 1.204zm3.219.04h-2.347v-11.519h2.347zm38.181.025c1.726 0 3.106-.592 4.141-1.775 1.085-1.233 1.627-2.613 1.627-4.141s-.592-2.909-1.775-4.092-2.564-1.775-4.141-1.775c-1.578 0-3.007.592-4.191 1.775-1.183 1.134-1.775 2.613-1.775 4.289 0 1.725.592 3.106 1.824 4.141 1.184 1.035 2.663 1.578 4.29 1.578zm-2.564-3.254c-.739-.641-1.085-1.479-1.085-2.465 0-.937.345-1.775 1.035-2.514s1.528-1.085 2.564-1.085c.887 0 1.676.345 2.366 1.035s1.035 1.479 1.035 2.366c0 1.085-.345 1.923-.937 2.613-.69.641-1.479.986-2.416.986-.984.001-1.872-.295-2.562-.936zm15.48 3.254c1.725 0 3.106-.592 4.141-1.775 1.085-1.233 1.627-2.613 1.627-4.141s-.592-2.909-1.775-4.092-2.564-1.775-4.141-1.775c-1.578 0-3.007.592-4.191 1.775-1.183 1.134-1.775 2.613-1.775 4.289 0 1.725.592 3.106 1.824 4.141 1.184 1.035 2.663 1.578 4.29 1.578zm-2.563-3.254c-.74-.641-1.085-1.479-1.085-2.465 0-.937.345-1.775 1.035-2.514s1.528-1.085 2.564-1.085c.887 0 1.676.345 2.366 1.035s1.035 1.479 1.035 2.366c0 1.085-.345 1.923-.937 2.613-.69.641-1.479.986-2.416.986-.985.001-1.872-.295-2.562-.936zm-32.291-4.535h-2.133c.057-1.239.446-2.215 1.168-2.926.721-.711 1.646-1.066 2.777-1.066.697 0 1.313.147 1.848.441.533.294.961.719 1.281 1.273s.48 1.119.48 1.691c0 .683-.194 1.417-.583 2.203-.388.787-1.098 1.716-2.13 2.789l-1.289 1.359h4.096v2.023h-7.961v-1.047l3.555-3.625c.859-.87 1.431-1.569 1.715-2.098.283-.528.426-1.006.426-1.434 0-.442-.147-.809-.441-1.098-.295-.289-.674-.434-1.137-.434-.469 0-.859.175-1.172.523-.312.353-.479.827-.5 1.426zm12.972 1.424a3.402 3.402 0 0 1 1.593 2.915 3.48 3.48 0 0 1 -.484 1.794 3.145 3.145 0 0 1 -1.3 1.24c-.544.277-1.238.416-2.082.416-.905 0-1.624-.133-2.158-.4a3.058 3.058 0 0 1 -1.281-1.214c-.32-.542-.48-1.153-.48-1.836 0-.59.129-1.128.385-1.614s.642-.92 1.155-1.301a3.686 3.686 0 0 1 -.759-1.086 2.946 2.946 0 0 1 -.255-1.215c0-.584.141-1.116.423-1.596s.678-.854 1.186-1.12c.508-.267 1.095-.4 1.762-.4.656 0 1.233.134 1.731.404.499.269.891.652 1.178 1.147s.431 1.028.431 1.597c0 .401-.075.773-.225 1.116-.15.341-.423.726-.82 1.153zm-2.28 1.141c-.514 0-.946.156-1.296.469s-.526.685-.526 1.117c0 .453.165.835.496 1.148s.765.469 1.304.469c.544 0 .977-.146 1.3-.439.323-.292.484-.67.484-1.133 0-.462-.168-.85-.503-1.163-.336-.312-.756-.468-1.259-.468zm-.084-4.5c-.351 0-.64.115-.866.346s-.339.526-.339.886.119.662.358.905c.239.244.534.365.885.365.361 0 .657-.119.888-.357.232-.238.347-.547.347-.928 0-.36-.117-.653-.351-.878-.233-.226-.541-.339-.922-.339z" fill="#fff"/><path d="m266.417 115h29.763v26h-29.763z" fill="none" stroke="#040006" stroke-miterlimit="10" stroke-width="1.026"/><g fill="#fff"><path d="m271.034 116.733 1.511 5.081h-.922l-.306-1.132h-1.511l-.316 1.132h-.895l1.527-5.081zm.051 3.117-.509-1.865h-.012l-.525 1.865zm2.987-.413v.868h-1.703v-.868zm3.276-2.704v.94h-2.133v1.088h1.957v.868h-1.957v1.246h2.178v.94h-3.066v-5.081h3.021z"/><path d="m277.245 116.733h1.03l.792 1.623.819-1.623h.974l-1.296 2.428 1.409 2.654h-1.059l-.882-1.758-.899 1.758h-.996l1.409-2.662z"/><path d="m282.716 116.733c.252 0 .467.046.645.139.177.093.321.214.433.367.111.152.192.326.243.519.051.195.076.397.076.605 0 .205-.025.405-.076.602a1.533 1.533 0 0 1 -.243.523 1.24 1.24 0 0 1 -.433.367 1.378 1.378 0 0 1 -.645.138h-.934v1.823h-.889v-5.081h1.823zm-.243 2.392c.102 0 .199-.011.294-.029a.611.611 0 0 0 .249-.11.565.565 0 0 0 .172-.232.98.98 0 0 0 .065-.392.976.976 0 0 0 -.065-.39.565.565 0 0 0 -.172-.232.611.611 0 0 0 -.249-.11 1.417 1.417 0 0 0 -.294-.029h-.69v1.523h.69zm4.779-2.392v.94h-2.133v1.088h1.958v.868h-1.958v1.246h2.179v.94h-3.066v-5.081h3.02zm2.388 0c.181 0 .344.037.489.111.145.073.27.173.373.302.104.128.183.277.237.445.055.168.082.349.082.544 0 .299-.05.559-.149.776a1.038 1.038 0 0 1 -.489.499v.013a.656.656 0 0 1 .271.175c.071.078.13.171.175.278.046.106.078.224.1.352.021.128.034.255.042.384l.012.285c.003.11.01.221.02.335s.024.221.045.324a.837.837 0 0 0 .094.259h-.889a2.402 2.402 0 0 1 -.09-.577 11.264 11.264 0 0 0 -.051-.641c-.03-.265-.095-.459-.192-.582-.099-.124-.259-.185-.481-.185h-.888v1.985h-.889v-5.081h2.178zm-.318 2.299c.204 0 .356-.057.458-.171.103-.114.153-.299.153-.556 0-.246-.051-.425-.153-.537-.102-.111-.254-.167-.458-.167h-.973v1.431z"/><path d="m290.691 117.673v-.94h3.31v.94h-1.211v4.142h-.888v-4.142z"/></g><path d="m90.487 149.75h29.763v26h-29.763zm215.958 0h29.763v26h-29.763zm-40.028 0h29.763v26h-29.763z" fill="none" stroke="#040006" stroke-miterlimit="10" stroke-width="1.026"/><g fill="#fff"><path d="m97.262 151.483c.253 0 .468.046.646.139.177.093.321.214.433.365.11.152.192.326.243.52.051.195.076.396.076.605 0 .204-.025.404-.076.601s-.133.372-.243.523a1.24 1.24 0 0 1 -.433.367 1.38 1.38 0 0 1 -.646.139h-.934v1.821h-.888v-5.08zm-.243 2.391c.102 0 .2-.009.294-.028a.601.601 0 0 0 .249-.111.575.575 0 0 0 .173-.23c.043-.101.064-.23.064-.392a1 1 0 0 0 -.064-.392.597.597 0 0 0 -.173-.232.613.613 0 0 0 -.249-.11 1.481 1.481 0 0 0 -.294-.028h-.69v1.522h.69zm3.354-2.391 1.511 5.08h-.922l-.306-1.132h-1.511l-.316 1.132h-.895l1.527-5.08zm.051 3.116-.509-1.864h-.012l-.525 1.864z"/><path d="m103.541 151.483c.261 0 .503.052.727.156.225.105.419.261.583.47s.292.47.385.782c.093.314.139.682.139 1.104 0 .369-.038.711-.113 1.024a2.496 2.496 0 0 1 -.342.811 1.69 1.69 0 0 1 -.572.536 1.588 1.588 0 0 1 -.806.196h-1.742v-5.08h1.741zm-.062 4.142a.92.92 0 0 0 .374-.079.824.824 0 0 0 .322-.259 1.4 1.4 0 0 0 .227-.473c.056-.195.084-.432.084-.712 0-.255-.02-.487-.059-.694a1.602 1.602 0 0 0 -.195-.531.931.931 0 0 0 -.359-.338 1.18 1.18 0 0 0 -.552-.118h-.634v3.203h.792zm3.818-4.142c.261 0 .503.052.727.156.225.105.419.261.583.47s.292.47.385.782c.093.314.139.682.139 1.104 0 .369-.038.711-.113 1.024a2.496 2.496 0 0 1 -.342.811 1.69 1.69 0 0 1 -.572.536 1.588 1.588 0 0 1 -.806.196h-1.742v-5.08h1.741zm-.062 4.142a.92.92 0 0 0 .374-.079.824.824 0 0 0 .322-.259 1.4 1.4 0 0 0 .227-.473c.056-.195.084-.432.084-.712 0-.255-.02-.487-.059-.694a1.602 1.602 0 0 0 -.195-.531.931.931 0 0 0 -.359-.338 1.18 1.18 0 0 0 -.552-.118h-.634v3.203h.792zm2.964-4.142v4.142h1.969v.938h-2.857v-5.08zm5.051 0v.938h-2.133v1.089h1.958v.868h-1.958v1.246h2.179v.938h-3.066v-5.08h3.02z"/></g><path d="m272.423 155.433a.8.8 0 0 0 .195.289.775.775 0 0 0 .285.163c.109.036.223.054.34.054.079 0 .164-.008.255-.025a.756.756 0 0 0 .254-.097.585.585 0 0 0 .198-.195.581.581 0 0 0 .079-.318.513.513 0 0 0 -.104-.334c-.07-.086-.161-.158-.274-.214s-.241-.106-.385-.15a8.476 8.476 0 0 1 -.436-.142c-.15-.048-.298-.106-.441-.175s-.271-.158-.385-.266a1.265 1.265 0 0 1 -.274-.409 1.532 1.532 0 0 1 -.104-.594c0-.261.045-.488.133-.68.089-.192.205-.352.349-.48.143-.127.305-.222.486-.285.181-.061.362-.093.543-.093.211 0 .414.03.608.09.193.058.366.155.518.287a1.4 1.4 0 0 1 .358.51c.089.206.134.457.134.75h-.86a1.1 1.1 0 0 0 -.076-.377.602.602 0 0 0 -.419-.356 1.199 1.199 0 0 0 -.303-.036.8.8 0 0 0 -.215.029.523.523 0 0 0 -.195.099.58.58 0 0 0 -.144.177.57.57 0 0 0 -.057.271c0 .099.015.18.045.242.03.061.09.118.179.171.088.052.211.103.367.156.156.052.361.118.614.199.075.02.18.054.313.103a1.404 1.404 0 0 1 .741.676c.096.183.145.416.145.702 0 .232-.036.447-.107.647a1.427 1.427 0 0 1 -.32.516 1.472 1.472 0 0 1 -.525.338c-.21.081-.452.12-.728.12-.223 0-.438-.034-.647-.103s-.395-.176-.555-.323a1.571 1.571 0 0 1 -.382-.563 2.05 2.05 0 0 1 -.136-.811h.86c0 .173.024.319.073.437zm5.578-3.828v.938h-2.133v1.089h1.957v.868h-1.957v1.246h2.178v.938h-3.066v-5.08h3.021zm1.097 0v4.142h1.969v.938h-2.856v-5.08zm5.051 0v.938h-2.133v1.089h1.957v.868h-1.957v1.246h2.178v.938h-3.066v-5.08h3.021zm2.8 1.355c-.053-.107-.119-.2-.198-.281s-.169-.144-.269-.189a.874.874 0 0 0 -.823.078 1.08 1.08 0 0 0 -.339.392c-.087.164-.15.349-.189.559a3.437 3.437 0 0 0 0 1.27c.039.201.103.383.189.544s.199.29.339.388c.14.097.31.146.51.146a.745.745 0 0 0 .636-.314c.153-.208.246-.483.28-.825h.859a3.1 3.1 0 0 1 -.175.86 2.133 2.133 0 0 1 -.373.655c-.155.18-.336.318-.544.413a1.639 1.639 0 0 1 -.684.142c-.31 0-.588-.068-.835-.203s-.455-.322-.625-.559-.3-.516-.391-.837a3.804 3.804 0 0 1 -.136-1.035c0-.38.046-.732.136-1.056.091-.326.221-.609.391-.851.17-.241.378-.432.625-.569a1.68 1.68 0 0 1 .835-.206 1.644 1.644 0 0 1 1.162.474c.156.154.285.345.388.573.102.228.166.488.192.782h-.86a1.042 1.042 0 0 0 -.101-.351zm.849-.417v-.938h3.31v.938h-1.211v4.142h-.888v-4.142z" fill="#fff"/><g fill="#fff"><path d="m315.336 151.605a1.072 1.072 0 0 1 .862.413c.104.127.184.275.238.445.055.168.082.349.082.544 0 .299-.05.557-.15.776-.1.218-.263.384-.489.498v.015a.63.63 0 0 1 .271.175c.072.078.13.171.176.277.045.107.078.225.099.352.021.128.035.257.043.385l.011.285c.004.109.011.22.02.334.01.114.025.222.046.324a.864.864 0 0 0 .093.259h-.888a2.449 2.449 0 0 1 -.091-.576 10.17 10.17 0 0 0 -.051-.641c-.03-.266-.094-.461-.192-.584s-.258-.185-.48-.185h-.889v1.985h-.888v-5.08h2.177zm-.316 2.298c.203 0 .356-.057.458-.171s.152-.299.152-.555c0-.246-.051-.426-.152-.537-.102-.111-.255-.167-.458-.167h-.974v1.43zm4.807-2.298v.938h-2.133v1.089h1.958v.868h-1.958v1.246h2.179v.938h-3.066v-5.08h3.02z"/><path d="m320.716 155.433a.799.799 0 0 0 .194.289.78.78 0 0 0 .286.163c.109.036.223.054.339.054.08 0 .164-.008.255-.025a.753.753 0 0 0 .255-.097.595.595 0 0 0 .198-.195.581.581 0 0 0 .079-.318.508.508 0 0 0 -.105-.334.808.808 0 0 0 -.273-.214 2.474 2.474 0 0 0 -.385-.15 8.17 8.17 0 0 1 -.436-.142c-.151-.048-.298-.106-.441-.175s-.271-.158-.385-.266a1.234 1.234 0 0 1 -.274-.409 1.514 1.514 0 0 1 -.104-.594c0-.261.044-.488.133-.68s.204-.352.348-.48c.144-.127.306-.222.486-.285.182-.061.362-.093.543-.093.212 0 .414.03.608.09.194.058.367.155.518.287.151.134.271.303.359.51.089.206.133.457.133.75h-.859a1.076 1.076 0 0 0 -.077-.377.6.6 0 0 0 -.418-.356 1.205 1.205 0 0 0 -.303-.036.79.79 0 0 0 -.215.029.515.515 0 0 0 -.195.099.599.599 0 0 0 -.145.177.582.582 0 0 0 -.057.271c0 .099.016.18.046.242a.432.432 0 0 0 .178.171c.089.052.211.103.368.156.156.052.36.118.613.199.075.02.18.054.314.103.134.05.267.13.398.238.132.11.246.255.342.438.097.183.145.416.145.702 0 .232-.036.447-.107.647a1.411 1.411 0 0 1 -.319.516 1.476 1.476 0 0 1 -.526.338c-.209.081-.451.12-.727.12-.223 0-.438-.034-.648-.103a1.506 1.506 0 0 1 -.554-.323 1.559 1.559 0 0 1 -.382-.563 2.032 2.032 0 0 1 -.136-.811h.859c0 .173.024.319.074.437zm5.577-3.828v.938h-2.133v1.089h1.958v.868h-1.958v1.246h2.179v.938h-3.066v-5.08h3.02z"/><path d="m326.186 152.543v-.938h3.31v.938h-1.211v4.142h-.888v-4.142z"/></g><path d="m161.958 76.906h-15.523v-4.313h15.523c.242 0 .438.196.438.438v3.438a.438.438 0 0 1 -.438.437zm62.75 0h15.523v-4.313h-15.523a.438.438 0 0 0 -.438.438v3.438a.439.439 0 0 0 .438.437zm-8.916-1.281h-44.953a.289.289 0 0 1 -.289-.289v-1.172c0-.16.129-.289.289-.289h44.953c.16 0 .289.129.289.289v1.172a.29.29 0 0 1 -.289.289z" fill="#080609"/><path d="m112.944 115h-15.151a3.317 3.317 0 0 1 -3.307-3.307v-2.136a3.317 3.317 0 0 1 3.307-3.307h15.152a3.317 3.317 0 0 1 3.307 3.307v2.136a3.318 3.318 0 0 1 -3.308 3.307z" fill="url(#c)"/><path d="m90.487 115h29.763v26h-29.763z" fill="none" stroke="#040006" stroke-miterlimit="10" stroke-width="1.026"/><path d="m72.916 149.75h-15.152a3.317 3.317 0 0 1 -3.307-3.307v-2.136a3.317 3.317 0 0 1 3.307-3.307h15.152a3.317 3.317 0 0 1 3.307 3.307v2.136a3.317 3.317 0 0 1 -3.307 3.307z" fill="url(#d)"/><path d="m50.458 115h29.763v26h-29.763z" fill="none" stroke="#040006" stroke-miterlimit="10" stroke-width="1.026"/><g fill="#fff"><path d="m55.076 116.733 1.511 5.316h-.922l-.306-1.184h-1.511l-.316 1.184h-.895l1.527-5.316zm.051 3.261-.509-1.951h-.012l-.525 1.951zm2.987-.432v.908h-1.703v-.908zm3.275-2.829v.983h-2.133v1.138h1.957v.908h-1.957v1.303h2.178v.983h-3.066v-5.316h3.021z"/><path d="m61.287 116.733h1.03l.792 1.698.819-1.698h.974l-1.296 2.539 1.409 2.776h-1.059l-.882-1.839-.899 1.839h-.996l1.409-2.785z"/><path d="m66.757 116.733c.252 0 .467.048.645.145.177.097.321.224.433.384.111.159.192.341.243.543a2.6 2.6 0 0 1 .076.633c0 .215-.025.424-.076.63-.051.205-.132.388-.243.547s-.256.287-.433.384a1.33 1.33 0 0 1 -.645.144h-.934v1.907h-.889v-5.316h1.823zm-.243 2.502c.102 0 .199-.011.294-.03a.582.582 0 0 0 .249-.115.595.595 0 0 0 .172-.242 1.07 1.07 0 0 0 .065-.41c0-.168-.021-.305-.065-.408a.581.581 0 0 0 -.172-.242.582.582 0 0 0 -.249-.115 1.351 1.351 0 0 0 -.294-.03h-.69v1.594h.69zm4.78-2.502v.983h-2.133v1.138h1.958v.908h-1.958v1.303h2.179v.983h-3.066v-5.316h3.02zm2.387 0c.181 0 .344.039.489.116.145.076.27.181.373.316.104.134.183.289.237.465a1.9 1.9 0 0 1 .082.569c0 .313-.05.584-.149.811a1.064 1.064 0 0 1 -.489.522v.014c.109.04.199.101.271.183.071.082.13.179.175.291.046.111.078.234.1.368.021.134.034.267.042.402l.012.298c.003.115.01.231.02.35s.024.231.045.339a.897.897 0 0 0 .094.271h-.889a2.63 2.63 0 0 1 -.09-.604 12.124 12.124 0 0 0 -.051-.67c-.03-.277-.095-.48-.192-.609-.099-.13-.259-.194-.481-.194h-.888v2.077h-.889v-5.316h2.178zm-.317 2.405c.204 0 .356-.06.458-.179.103-.119.153-.313.153-.582 0-.258-.051-.444-.153-.562-.102-.116-.254-.174-.458-.174h-.973v1.497z"/><path d="m74.733 117.716v-.983h3.31v.983h-1.211v4.333h-.888v-4.333z"/></g><path d="m50.458 149.75h29.763v26h-29.763z" fill="none" stroke="#040006" stroke-miterlimit="10" stroke-width="1.026"/><g fill="#fff"><path d="m55.328 155.633a1.584 1.584 0 0 1 -.182.559 1.203 1.203 0 0 1 -.407.434c-.177.115-.416.173-.718.173-.17 0-.334-.029-.492-.089-.159-.06-.3-.152-.425-.278-.124-.126-.225-.286-.3-.483s-.113-.435-.113-.715v-.442h.804v.228c0 .124.008.238.022.341a.867.867 0 0 0 .079.267c.038.074.09.131.155.175a.474.474 0 0 0 .258.064.419.419 0 0 0 .271-.078.449.449 0 0 0 .139-.203c.028-.083.045-.173.051-.271.006-.097.009-.191.009-.281v-3.43h.888v3.48c0 .166-.013.349-.039.549zm.344-2.523c.091-.326.221-.609.391-.851.169-.241.378-.432.625-.569.247-.138.524-.206.834-.206.313 0 .592.069.837.206.245.138.453.328.623.569.169.242.3.525.39.851.091.324.136.676.136 1.056 0 .371-.045.715-.136 1.035-.09.32-.221.6-.39.837-.17.237-.378.424-.623.559s-.523.203-.837.203c-.31 0-.587-.068-.834-.203s-.456-.322-.625-.559c-.17-.237-.3-.516-.391-.837a3.765 3.765 0 0 1 -.136-1.035c.001-.38.046-.732.136-1.056zm.812 1.68c.04.201.103.383.189.544s.2.29.34.388c.14.097.309.146.509.146s.369-.049.509-.146c.14-.098.253-.226.34-.388s.149-.343.189-.544a3.437 3.437 0 0 0 0-1.27c-.04-.209-.103-.394-.189-.559s-.2-.294-.34-.392a.87.87 0 0 0 -.509-.146.87.87 0 0 0 -.509.146c-.14.098-.253.228-.34.392s-.149.349-.189.559c-.039.209-.06.425-.06.647 0 .212.021.42.06.623zm2.758-3.185h.995l.945 2.007.938-2.007h.99l-1.499 3.13v1.95h-.888v-1.977zm4.452 3.828a.8.8 0 0 0 .195.289.775.775 0 0 0 .285.163c.109.036.223.054.34.054.079 0 .164-.008.255-.025a.756.756 0 0 0 .254-.097.585.585 0 0 0 .198-.195.581.581 0 0 0 .079-.318.513.513 0 0 0 -.104-.334c-.07-.086-.161-.158-.274-.214s-.241-.106-.385-.15a8.476 8.476 0 0 1 -.436-.142c-.15-.048-.298-.106-.441-.175s-.271-.158-.385-.266a1.265 1.265 0 0 1 -.274-.409 1.532 1.532 0 0 1 -.104-.594c0-.261.045-.488.133-.68.089-.192.205-.352.349-.48.143-.127.305-.222.486-.285.181-.061.362-.093.543-.093.211 0 .414.03.608.09.193.058.366.155.518.287a1.4 1.4 0 0 1 .358.51c.089.206.134.457.134.75h-.86a1.1 1.1 0 0 0 -.076-.377.602.602 0 0 0 -.419-.356 1.199 1.199 0 0 0 -.303-.036.8.8 0 0 0 -.215.029.523.523 0 0 0 -.195.099.58.58 0 0 0 -.144.177.57.57 0 0 0 -.057.271c0 .099.015.18.045.242.03.061.09.118.179.171.088.052.211.103.367.156.156.052.361.118.614.199.075.02.18.054.313.103a1.404 1.404 0 0 1 .741.676c.096.183.145.416.145.702 0 .232-.036.447-.107.647a1.427 1.427 0 0 1 -.32.516 1.472 1.472 0 0 1 -.525.338c-.21.081-.452.12-.728.12-.223 0-.438-.034-.647-.103s-.395-.176-.555-.323a1.571 1.571 0 0 1 -.382-.563 2.05 2.05 0 0 1 -.136-.811h.86c0 .173.024.319.073.437z"/><path d="m65.934 152.543v-.938h3.309v.938h-1.21v4.142h-.889v-4.142zm4.226-.938v5.08h-.889v-5.08zm2.935 1.355c-.053-.107-.119-.2-.198-.281s-.169-.144-.269-.189a.874.874 0 0 0 -.823.078 1.08 1.08 0 0 0 -.339.392c-.087.164-.15.349-.189.559a3.437 3.437 0 0 0 0 1.27c.039.201.103.383.189.544s.199.29.339.388c.14.097.31.146.51.146a.745.745 0 0 0 .636-.314c.153-.208.246-.483.28-.825h.859a3.1 3.1 0 0 1 -.175.86 2.133 2.133 0 0 1 -.373.655c-.155.18-.336.318-.544.413a1.639 1.639 0 0 1 -.684.142c-.31 0-.588-.068-.835-.203s-.455-.322-.625-.559-.3-.516-.391-.837a3.804 3.804 0 0 1 -.136-1.035c0-.38.046-.732.136-1.056.091-.326.221-.609.391-.851.17-.241.378-.432.625-.569a1.68 1.68 0 0 1 .835-.206 1.644 1.644 0 0 1 1.162.474c.156.154.285.345.388.573.102.228.166.488.192.782h-.86a1.042 1.042 0 0 0 -.101-.351zm2.054-1.355v2.106l1.578-2.106h1.108l-1.578 2.007 1.731 3.073h-1.114l-1.217-2.283-.509.647v1.636h-.888v-5.08z"/></g><path d="m328.903 115h-15.152a3.317 3.317 0 0 1 -3.307-3.307v-2.136a3.317 3.317 0 0 1 3.307-3.307h15.152a3.317 3.317 0 0 1 3.307 3.307v2.136a3.317 3.317 0 0 1 -3.307 3.307z" fill="url(#e)"/><path d="m306.445 115h29.763v26h-29.763z" fill="none" stroke="#040006" stroke-miterlimit="10" stroke-width="1.026"/><g fill="#fff"><path d="m311.068 116.854c.192 0 .368.021.526.065.158.042.294.113.407.209a.95.95 0 0 1 .263.388c.063.161.094.361.094.598 0 .255-.046.47-.139.641s-.229.31-.41.42c.249.09.435.248.558.473.122.226.184.498.184.815 0 .255-.04.478-.119.666-.079.187-.186.34-.319.458a1.301 1.301 0 0 1 -.458.263 1.67 1.67 0 0 1 -.529.086h-1.957v-5.081h1.899zm-.113 2.056a.55.55 0 0 0 .391-.143c.102-.094.152-.249.152-.462a.71.71 0 0 0 -.051-.291c-.033-.077-.079-.136-.136-.179s-.121-.071-.195-.089a1.005 1.005 0 0 0 -.229-.025h-.832v1.189zm.051 2.157c.086 0 .169-.011.248-.032s.149-.057.21-.107a.525.525 0 0 0 .144-.203.853.853 0 0 0 .054-.327c0-.262-.058-.447-.175-.559a.638.638 0 0 0 -.464-.168h-.968v1.395h.951zm3.321-1.509v.868h-1.703v-.868zm1.136-2.704 1.686 3.408h.012v-3.408h.831v5.081h-.888l-1.68-3.402h-.012v3.402h-.832v-5.081zm2.834 1.505c.091-.324.221-.608.391-.85.169-.242.378-.432.625-.569s.524-.206.834-.206c.313 0 .592.069.837.206s.453.327.623.569c.169.242.3.525.39.85.091.326.136.678.136 1.058 0 .369-.045.715-.136 1.035-.09.32-.221.598-.39.837-.17.237-.378.422-.623.559a1.703 1.703 0 0 1 -.837.203c-.31 0-.587-.068-.834-.203a1.865 1.865 0 0 1 -.625-.559c-.17-.238-.3-.516-.391-.837a3.775 3.775 0 0 1 -.136-1.035 3.99 3.99 0 0 1 .136-1.058zm.812 1.679c.04.201.103.384.189.544.087.161.2.291.34.388.14.098.309.147.509.147s.369-.049.509-.147c.14-.097.253-.226.34-.388a1.92 1.92 0 0 0 .189-.544 3.45 3.45 0 0 0 0-1.271 2.032 2.032 0 0 0 -.189-.559 1.078 1.078 0 0 0 -.34-.39c-.14-.098-.309-.146-.509-.146s-.369.048-.509.146c-.14.097-.253.228-.34.39a1.989 1.989 0 0 0 -.189.559c-.039.209-.06.425-.06.649 0 .213.021.421.06.622zm4.07 1.897-1.307-5.081h.911l.899 3.572h.011l.911-3.572h.916l-1.34 5.081z"/><path d="m326.319 116.854v5.081h-.889v-5.081zm2.935 1.355a1.108 1.108 0 0 0 -.197-.281.872.872 0 0 0 -.269-.188.762.762 0 0 0 -.314-.068c-.2 0-.369.048-.509.146-.14.097-.253.228-.34.39a1.989 1.989 0 0 0 -.189.559c-.039.209-.06.425-.06.649 0 .213.021.421.06.622.04.201.103.384.189.544.087.161.2.291.34.388.14.098.309.147.509.147a.748.748 0 0 0 .637-.314c.152-.209.246-.484.279-.826h.86a3.085 3.085 0 0 1 -.176.862 2.13 2.13 0 0 1 -.373.654 1.55 1.55 0 0 1 -.543.413 1.625 1.625 0 0 1 -.685.143c-.31 0-.587-.068-.834-.203a1.865 1.865 0 0 1 -.625-.559c-.17-.238-.3-.516-.391-.837a3.775 3.775 0 0 1 -.136-1.035c0-.38.045-.732.136-1.058.091-.324.221-.608.391-.85.169-.242.378-.432.625-.569s.524-.206.834-.206a1.625 1.625 0 0 1 1.162.472c.157.155.286.345.388.573s.166.488.192.784h-.859a1.072 1.072 0 0 0 -.102-.352zm4.187-1.355v.94h-2.133v1.088h1.957v.868h-1.957v1.246h2.178v.94h-3.066v-5.081h3.021z"/></g><g fill="#fff"><path d="m95.11 116.854c.192 0 .368.021.526.065.158.042.294.113.407.209a.95.95 0 0 1 .263.388c.063.161.094.361.094.598 0 .255-.046.47-.139.641s-.229.31-.41.42c.249.09.435.248.558.473.122.226.184.498.184.815 0 .255-.04.478-.119.666-.079.187-.186.34-.319.458a1.301 1.301 0 0 1 -.458.263 1.67 1.67 0 0 1 -.529.086h-1.957v-5.081h1.899zm-.114 2.056a.55.55 0 0 0 .391-.143c.102-.094.152-.249.152-.462a.71.71 0 0 0 -.051-.291c-.033-.077-.079-.136-.136-.179s-.121-.071-.195-.089a1.005 1.005 0 0 0 -.229-.025h-.832v1.189zm.052 2.157c.086 0 .169-.011.248-.032s.149-.057.21-.107a.525.525 0 0 0 .144-.203.853.853 0 0 0 .054-.327c0-.262-.058-.447-.175-.559a.638.638 0 0 0 -.464-.168h-.968v1.395h.951zm3.32-1.509v.868h-1.703v-.868zm1.137-2.704 1.686 3.408h.012v-3.408h.831v5.081h-.888l-1.68-3.402h-.012v3.402h-.832v-5.081zm2.834 1.505c.091-.324.221-.608.391-.85.169-.242.378-.432.625-.569s.524-.206.834-.206c.313 0 .592.069.837.206s.453.327.623.569c.169.242.3.525.39.85.091.326.136.678.136 1.058 0 .369-.045.715-.136 1.035-.09.32-.221.598-.39.837-.17.237-.378.422-.623.559a1.703 1.703 0 0 1 -.837.203c-.31 0-.587-.068-.834-.203a1.865 1.865 0 0 1 -.625-.559c-.17-.238-.3-.516-.391-.837a3.775 3.775 0 0 1 -.136-1.035c0-.381.045-.733.136-1.058zm.812 1.679c.04.201.103.384.189.544.087.161.2.291.34.388.14.098.309.147.509.147s.369-.049.509-.147c.14-.097.253-.226.34-.388a1.92 1.92 0 0 0 .189-.544 3.45 3.45 0 0 0 0-1.271 2.032 2.032 0 0 0 -.189-.559 1.078 1.078 0 0 0 -.34-.39c-.14-.098-.309-.146-.509-.146s-.369.048-.509.146c-.14.097-.253.228-.34.39a1.989 1.989 0 0 0 -.189.559c-.039.209-.06.425-.06.649 0 .213.021.421.06.622zm4.07 1.897-1.307-5.081h.911l.899 3.572h.011l.911-3.572h.916l-1.34 5.081z"/><path d="m110.361 116.854v5.081h-.889v-5.081zm2.935 1.355a1.108 1.108 0 0 0 -.197-.281.872.872 0 0 0 -.269-.188.762.762 0 0 0 -.314-.068c-.2 0-.369.048-.509.146-.14.097-.253.228-.34.39a1.989 1.989 0 0 0 -.189.559c-.039.209-.06.425-.06.649 0 .213.021.421.06.622.04.201.103.384.189.544.087.161.2.291.34.388.14.098.309.147.509.147a.748.748 0 0 0 .637-.314c.152-.209.246-.484.279-.826h.86a3.085 3.085 0 0 1 -.176.862 2.13 2.13 0 0 1 -.373.654 1.55 1.55 0 0 1 -.543.413 1.625 1.625 0 0 1 -.685.143c-.31 0-.587-.068-.834-.203a1.865 1.865 0 0 1 -.625-.559c-.17-.238-.3-.516-.391-.837a3.775 3.775 0 0 1 -.136-1.035c0-.38.045-.732.136-1.058.091-.324.221-.608.391-.85.169-.242.378-.432.625-.569s.524-.206.834-.206a1.625 1.625 0 0 1 1.162.472c.157.155.286.345.388.573s.166.488.192.784h-.859a1.072 1.072 0 0 0 -.102-.352zm4.187-1.355v.94h-2.133v1.088h1.957v.868h-1.957v1.246h2.178v.94h-3.066v-5.081h3.021z"/></g></svg>