<svg viewBox="0 0 98.181 191.54" xmlns="http://www.w3.org/2000/svg" xmlns:xlink="http://www.w3.org/1999/xlink"><linearGradient id="a"><stop offset="0" stop-color="#282b24"/><stop offset=".053" stop-color="#242520"/><stop offset=".16" stop-color="#1d1c1a"/><stop offset=".294" stop-color="#191515"/><stop offset=".481" stop-color="#151012"/><stop offset="1" stop-color="#140f11"/></linearGradient><linearGradient id="b" gradientUnits="userSpaceOnUse" x1="4.243" x2="93.938" xlink:href="#a" y1="189.65" y2="189.65"/><linearGradient id="c"><stop offset="0" stop-color="#040006"/><stop offset=".026" stop-color="#100f11"/><stop offset=".079" stop-color="#16171a"/><stop offset=".146" stop-color="#1a1c20"/><stop offset=".24" stop-color="#1b1e23"/><stop offset=".5" stop-color="#1c1e23"/><stop offset=".76" stop-color="#1b1e23"/><stop offset=".854" stop-color="#1a1c20"/><stop offset=".921" stop-color="#16171a"/><stop offset=".974" stop-color="#100f11"/><stop offset="1" stop-color="#040006"/></linearGradient><linearGradient id="d" gradientUnits="userSpaceOnUse" x1="3.991" x2="94.189" xlink:href="#c" y1="178.919" y2="178.919"/><linearGradient id="e"><stop offset="0" stop-color="#821a1f"/><stop offset=".016" stop-color="#8a2022"/><stop offset=".059" stop-color="#9b2a28"/><stop offset=".109" stop-color="#a9312e"/><stop offset=".171" stop-color="#b23531"/><stop offset=".258" stop-color="#b63834"/><stop offset=".5" stop-color="#b83934"/><stop offset=".742" stop-color="#b63834"/><stop offset=".829" stop-color="#b23531"/><stop offset=".891" stop-color="#a9312e"/><stop offset=".941" stop-color="#9b2a28"/><stop offset=".984" stop-color="#8a2022"/><stop offset="1" stop-color="#821a1f"/></linearGradient><linearGradient id="f" gradientUnits="userSpaceOnUse" x1="5.754" x2="5.754" xlink:href="#e" y1="44.114" y2="17.677"/><linearGradient id="g" gradientTransform="matrix(-1 0 0 1 1152.403 0)" gradientUnits="userSpaceOnUse" x1="1059.976" x2="1059.976" xlink:href="#e" y1="44.114" y2="17.677"/><linearGradient id="h" gradientUnits="userSpaceOnUse" x1="3.991" x2="94.189" xlink:href="#c" y1="86.491" y2="86.491"/><linearGradient id="i" gradientUnits="userSpaceOnUse" x1="8.631" x2="89.549" xlink:href="#a" y1="1.452" y2="1.452"/><radialGradient id="j" cx="49.09" cy="78.482" gradientUnits="userSpaceOnUse" r="24.571"><stop offset="0" stop-color="#1c1f24"/><stop offset=".592" stop-color="#1c1f23"/><stop offset=".805" stop-color="#1b1d20"/><stop offset=".956" stop-color="#19191a"/><stop offset="1" stop-color="#181718"/></radialGradient><radialGradient id="k" cx="49.09" cy="78.482" gradientUnits="userSpaceOnUse" r="10.201"><stop offset="0" stop-color="#1d2124"/><stop offset=".571" stop-color="#1d2123"/><stop offset=".776" stop-color="#1c1f20"/><stop offset=".922" stop-color="#1a1b1c"/><stop offset="1" stop-color="#181718"/></radialGradient><radialGradient id="l" cx="49.09" cy="78.482" gradientUnits="userSpaceOnUse" r="1.659"><stop offset="0" stop-color="#191c21"/><stop offset=".633" stop-color="#191b20"/><stop offset=".86" stop-color="#18191c"/><stop offset="1" stop-color="#171617"/></radialGradient><path d="m93.937 187.759h-89.694l4.322 3.617a.7.7 0 0 0 .451.164h80.149a.703.703 0 0 0 .451-.164z" fill="url(#b)"/><path d="m93.937 187.759h-89.694a.704.704 0 0 1 -.252-.539v-17.141h90.198v17.141a.701.701 0 0 1 -.252.539z" fill="url(#d)"/><path d="m11.508 41.652v-21.513c0-.69-.254-1.547-.664-2.462h-8.382a2.462 2.462 0 0 0 -2.462 2.462v21.513a2.462 2.462 0 0 0 2.462 2.462h8.382l.016-.036c.401-.902.648-1.746.648-2.426z" fill="url(#f)"/><path d="m86.673 41.652v-21.513c0-.69.254-1.547.664-2.462h8.382a2.462 2.462 0 0 1 2.462 2.462v21.513a2.462 2.462 0 0 1 -2.462 2.462h-8.382l-.016-.036c-.401-.902-.648-1.746-.648-2.426z" fill="url(#g)"/><path d="m89.55 2.903h-80.919l-4.363 2.267a.514.514 0 0 0 -.277.456v3.257c0 .153.064.29.182.387.871.715 1.915 1.796 2.825 2.757 1.978 2.089 4.51 5.934 4.51 8.113v21.513c0 2.179-2.532 6.024-4.51 8.113-.909.96-1.952 2.04-2.823 2.755a.495.495 0 0 0 -.184.392v117.168h90.198v-117.166a.5.5 0 0 0 -.186-.395c-.871-.715-1.912-1.794-2.821-2.754-1.978-2.089-4.51-5.934-4.51-8.113v-21.514c0-2.179 2.532-6.024 4.51-8.113.908-.959 1.949-2.037 2.819-2.752a.507.507 0 0 0 .188-.399v-3.24a.53.53 0 0 0 -.285-.47z" fill="url(#h)"/><path d="m83.786 0c.116 0 .23.028.333.081l5.431 2.821h-80.919l5.431-2.821a.728.728 0 0 1 .333-.081z" fill="url(#i)"/><path d="m73.042 37.945h-47.904a.515.515 0 0 1 -.515-.515v-13.07c0-.285.231-.515.515-.515h47.904c.285 0 .515.231.515.515v13.07a.514.514 0 0 1 -.515.515z" fill="#dbd9d8"/><path d="m32.904 29.197c0 1.738-.345 3.146-1.035 4.224-.87 1.348-2.208 2.014-4.014 2.001v-1.344c2.879.02 4.318-2.045 4.318-6.194 0-.424-.011-.93-.034-1.516h.765zm.248-2.829h1.248v9.054h-1.248zm6.544 9.054h-.09c-1.702 0-2.995-.691-3.88-2.072-.705-1.118-1.057-2.503-1.057-4.153v-2.829h.753c0 2.27.165 3.917.495 4.941.63 1.96 1.889 2.883 3.778 2.769v1.344zm10.173-.015h-1.837l-.457-1.709h-2.483l-.477 1.709h-1.847l2.294-7.935a1.76 1.76 0 0 1 .457-.787c.209-.218.467-.332.765-.332.328 0 .616.114.864.352s.417.528.516.87zm-2.79-3.367-.735-3.874-.814 3.874zm7.517-3.854h-1.609v7.221h-1.807v-7.221h-1.629v-1.699h5.044v1.699zm6.792 7.221h-1.837l-.457-1.709h-2.483l-.477 1.709h-1.847l2.294-7.935a1.76 1.76 0 0 1 .457-.787c.209-.218.467-.332.765-.332.328 0 .616.114.864.352s.417.528.516.87zm-2.79-3.367-.735-3.874-.814 3.874zm9.235 3.367h-2.085l-1.758-3.512a4.64 4.64 0 0 1 -.199-.466 1.064 1.064 0 0 1 -.079-.321c0-.394.288-.715.884-.963.586-.249.884-.57.884-.943 0-.228-.079-.456-.248-.684-.169-.218-.348-.332-.546-.332h-1.033v7.221h-1.748v-7.708c0-.269.119-.539.357-.798s.477-.383.715-.383h1.738c.675 0 1.271.259 1.777.767.506.518.765 1.108.765 1.782 0 .539-.149.995-.437 1.367-.288.373-.695.684-1.202.932zm2.492.031h-1.817v-8.92h1.817z" fill="#bcbcbc"/><circle cx="49.09" cy="78.482" fill="url(#j)" r="24.571" stroke="#181618" stroke-miterlimit="10" stroke-width=".373"/><circle cx="49.09" cy="78.482" fill="url(#k)" r="10.201" stroke="#181618" stroke-miterlimit="10" stroke-width=".373"/><circle cx="49.09" cy="78.482" fill="url(#l)" r="1.659"/><path d="m50.568 59.959a18.553 18.553 0 0 0 -2.956 0l.246 3.087a15.68 15.68 0 0 1 2.464 0zm-3.883.098a18.422 18.422 0 0 0 -2.891.614l.883 2.968a15.467 15.467 0 0 1 2.41-.512c-.001.001-.402-3.069-.402-3.07zm-3.779.902a18.978 18.978 0 0 0 -2.7 1.202l1.481 2.72a15.865 15.865 0 0 1 2.25-1.002zm-3.508 1.669a18.536 18.536 0 0 0 -2.391 1.738l2.014 2.353a15.467 15.467 0 0 1 1.993-1.448zm-3.084 2.362a19.142 19.142 0 0 0 -1.978 2.196l2.459 1.883a15.89 15.89 0 0 1 1.648-1.831zm-2.526 2.951a18.83 18.83 0 0 0 -1.478 2.56l2.797 1.33a15.588 15.588 0 0 1 1.232-2.133zm-1.857 3.412a19.091 19.091 0 0 0 -.913 2.812l3.012.72a15.67 15.67 0 0 1 .761-2.342c-.001-.002-2.86-1.19-2.86-1.19zm-1.108 3.723a18.892 18.892 0 0 0 -.309 2.94l3.096.078a15.542 15.542 0 0 1 .258-2.45zm-.309 3.873a18.94 18.94 0 0 0 .309 2.94l3.045-.568a15.71 15.71 0 0 1 -.258-2.45zm.503 3.852a19.028 19.028 0 0 0 .913 2.812l2.86-1.188a15.749 15.749 0 0 1 -.761-2.342c0-.002-3.011.717-3.012.718zm1.293 3.663a18.888 18.888 0 0 0 1.478 2.56l2.55-1.757a15.548 15.548 0 0 1 -1.232-2.133zm2.026 3.314a18.678 18.678 0 0 0 1.978 2.196l2.129-2.249a15.284 15.284 0 0 1 -1.648-1.831c0 .002-2.458 1.884-2.459 1.884zm2.671 2.821a19.086 19.086 0 0 0 2.391 1.738l1.615-2.642a15.36 15.36 0 0 1 -1.993-1.448zm3.199 2.204a18.541 18.541 0 0 0 2.7 1.202l1.031-2.92a15.593 15.593 0 0 1 -2.25-1.002zm3.588 1.49a18.654 18.654 0 0 0 2.891.614l.401-3.071c-.404-.053-.809-.122-1.215-.209s-.804-.188-1.195-.303zm3.818.712a18.553 18.553 0 0 0 2.956 0l-.246-3.087a15.679 15.679 0 0 1 -2.464 0zm3.884-.097a19.151 19.151 0 0 0 2.892-.614l-.883-2.968a15.467 15.467 0 0 1 -2.41.512zm3.778-.903a18.978 18.978 0 0 0 2.7-1.202l-1.481-2.72a15.593 15.593 0 0 1 -2.25 1.002zm3.508-1.669a18.536 18.536 0 0 0 2.391-1.738l-2.014-2.353a15.467 15.467 0 0 1 -1.993 1.448zm3.085-2.361a19.142 19.142 0 0 0 1.978-2.196l-2.459-1.883a15.89 15.89 0 0 1 -1.648 1.831zm2.526-2.951a18.83 18.83 0 0 0 1.478-2.56l-2.797-1.33a15.588 15.588 0 0 1 -1.232 2.133zm1.857-3.412a19.091 19.091 0 0 0 .913-2.812l-3.012-.72a15.67 15.67 0 0 1 -.761 2.342zm1.107-3.724a18.892 18.892 0 0 0 .309-2.94l-3.096-.078a15.511 15.511 0 0 1 -.258 2.45zm.309-3.872a18.94 18.94 0 0 0 -.309-2.94l-3.045.568a15.71 15.71 0 0 1 .258 2.45zm-.503-3.852a19.028 19.028 0 0 0 -.913-2.812l-2.86 1.188a15.749 15.749 0 0 1 .761 2.342c0 .002 3.011-.718 3.012-.718zm-1.292-3.663a18.888 18.888 0 0 0 -1.478-2.56l-2.55 1.757a15.548 15.548 0 0 1 1.232 2.133zm-2.027-3.315a18.678 18.678 0 0 0 -1.978-2.196l-2.129 2.249a15.284 15.284 0 0 1 1.648 1.831zm-2.671-2.821a19.086 19.086 0 0 0 -2.391-1.738l-1.615 2.642a15.36 15.36 0 0 1 1.993 1.448zm-3.199-2.203a18.541 18.541 0 0 0 -2.7-1.202l-1.031 2.92a15.593 15.593 0 0 1 2.25 1.002zm-3.587-1.491a18.654 18.654 0 0 0 -2.891-.614l-.401 3.071a16.062 16.062 0 0 1 2.41.512z" fill="#1a181b"/><path d="m3.991 151.677h90.198v.881h-90.198zm0 4.51h90.198v.881h-90.198zm0 4.51h90.198v.881h-90.198zm0 4.51h90.198v.881h-90.198z" fill="#141518"/></svg>