<svg enable-background="new 0 0 96.939 117.958" viewBox="0 0 96.939 117.958" xmlns="http://www.w3.org/2000/svg" xmlns:xlink="http://www.w3.org/1999/xlink"><linearGradient id="a" gradientUnits="userSpaceOnUse" x1="48.4693" x2="48.4693" y1="92.8589" y2="29.8"><stop offset="0" stop-color="#b6b9a6"/><stop offset=".5" stop-color="#b5b7a5"/><stop offset=".6" stop-color="#507a36"/><stop offset=".7" stop-color="#a17440"/><stop offset=".7063" stop-color="#906a3f"/><stop offset=".7216" stop-color="#6f553b"/><stop offset=".7389" stop-color="#574534"/><stop offset=".7579" stop-color="#44382e"/><stop offset=".7794" stop-color="#362d28"/><stop offset=".8045" stop-color="#2a2422"/><stop offset=".8356" stop-color="#211e1e"/><stop offset=".8791" stop-color="#1b1a1b"/><stop offset="1" stop-color="#1a181b"/></linearGradient><path d="m95.068 117.958h-93.198c-1.029 0-1.87-.842-1.87-1.87v-114.218c0-1.028.842-1.87 1.87-1.87h93.198c1.029 0 1.87.842 1.87 1.87v114.218c.001 1.029-.841 1.87-1.87 1.87z" fill="#21272b"/><path d="m90.409 112.06h-83.879c-.926 0-1.683-.757-1.683-1.683v-102.796c0-.926.757-1.683 1.683-1.683h83.878c.926 0 1.683.757 1.683 1.683v102.796c.001.926-.757 1.683-1.682 1.683z" fill="#1a181b"/><path d="m13.333 29.8h70.273c.667 0 1.212.546 1.212 1.212v60.634c0 .667-.546 1.212-1.212 1.212h-70.273c-.667 0-1.212-.546-1.212-1.212v-60.634c0-.666.545-1.212 1.212-1.212z" fill="url(#a)"/><path d="m17.448 91.393h-.696l-.287-1.038h-1.281l-.298 1.038h-.696l1.149-4.086c.088-.316.246-.475.475-.475.25 0 .42.159.508.475zm1.977-11.983c0 1.9-.339 3.439-1.016 4.616-.854 1.473-2.169 2.202-3.943 2.187v-1.469c2.827.022 4.241-2.234 4.241-6.77 0-.449-.011-1.001-.033-1.657h.751zm-3.169 10.271-.442-1.59-.442 1.59zm3.081-2.175h-.906v3.887h-.696v-3.887h-.905v-.674h2.507zm2.65 3.887h-.717l-.276-1.038h-1.281l-.287 1.038h-.718l1.149-4.086c.088-.316.254-.475.497-.475.235 0 .39.159.464.475zm-1.093-5.18h-1.226v-9.895h1.226zm-.11 3.468-.431-1.59-.453 1.59zm5.312-3.468h-.088c-1.672 0-2.942-.754-3.81-2.264-.692-1.222-1.038-2.735-1.038-4.539v-3.092h.74c0 2.481.162 4.282.486 5.4.618 2.143 1.855 3.152 3.711 3.026v1.469zm-1.204 5.18h-.806c-.125-.147-.247-.298-.364-.453-.118-.155-.236-.313-.353-.475-.28-.405-.42-.747-.42-1.027 0-.235.188-.46.563-.674.383-.206.574-.431.574-.674 0-.39-.188-.585-.563-.585h-.685v3.887h-.674v-4.086c0-.316.151-.475.453-.475h.906c.324 0 .614.121.872.364.258.236.387.516.387.839 0 .692-.38 1.16-1.138 1.403zm.928 0h-.685v-4.561h.685z"/><path d="m27.985 85.815c.196 0 .382.027.557.08.175.054.326.138.455.255s.221.25.276.4.084.313.084.489c0 .187-.031.366-.093.537-.061.171-.155.316-.279.435-.124.118-.282.209-.473.271-.192.062-.391.093-.599.093-.193 0-.378-.027-.557-.078-.178-.052-.332-.131-.462-.237s-.226-.238-.288-.397c-.062-.158-.094-.326-.094-.505 0-.19.035-.374.103-.55.07-.176.17-.324.301-.443s.291-.207.479-.263c.189-.059.386-.087.59-.087zm-.005.275c-.163 0-.318.022-.466.066s-.276.117-.383.218c-.108.101-.187.22-.237.356-.051.136-.076.278-.076.427 0 .143.028.277.082.401.055.124.132.227.231.309s.218.141.355.177.283.055.436.055c.161 0 .314-.021.459-.064.145-.042.269-.111.371-.207s.178-.21.227-.342c.048-.133.073-.273.073-.422 0-.14-.022-.272-.067-.397-.044-.125-.115-.232-.212-.322s-.215-.155-.353-.195-.285-.06-.44-.06zm-.686 1.673c.025-.232.043-.46.051-.684s.012-.45.012-.677c.101.002.174.003.218.003.045 0 .107-.001.187-.004s.155-.005.228-.005c.153 0 .262.008.329.024.067.017.122.041.165.074s.075.072.095.117c.021.045.031.097.031.155 0 .061-.011.117-.034.169-.022.052-.059.099-.109.138-.05.041-.108.071-.172.093.033.085.078.186.136.304.058.117.103.214.136.291-.099-.002-.181-.002-.244-.002-.07 0-.152.001-.246.002l-.067-.214c-.01-.03-.019-.06-.029-.087l-.183-.478c.049.008.093.012.131.012.045 0 .087-.007.126-.02.039-.014.069-.034.087-.062.019-.028.028-.057.028-.087 0-.027-.008-.05-.023-.07s-.039-.034-.073-.043c-.033-.009-.086-.013-.157-.013-.031 0-.076.001-.134.004-.009.112-.017.287-.023.527-.007.24-.011.416-.011.53-.097-.003-.174-.004-.231-.004-.064.003-.139.004-.224.007z"/></svg>