<svg viewBox="0 0 408.295 109.564" xmlns="http://www.w3.org/2000/svg"><g fill="#ed1c24"><path d="m88.517 109.192h-22.903l-5.694-20.427h-30.95l-5.942 20.427h-23.028l28.598-94.831c1.114-3.714 2.971-6.809 5.695-9.409 2.6-2.6 5.819-3.962 9.533-3.962 4.085 0 7.676 1.362 10.771 4.209s5.2 6.314 6.438 10.399zm-34.788-40.235-9.161-46.301-10.151 46.301zm93.718-46.054h-20.056v86.289h-22.532v-86.289h-20.303v-20.303h62.891zm84.679 86.289h-22.903l-5.695-20.427h-30.95l-5.942 20.427h-23.027l28.598-94.831c1.114-3.714 2.971-6.809 5.695-9.409 2.6-2.6 5.819-3.962 9.533-3.962 4.085 0 7.676 1.362 10.771 4.209s5.2 6.314 6.438 10.399zm-34.788-40.235-9.161-46.301-10.152 46.301zm115.135 40.235h-25.998l-21.913-41.968c-.99-1.981-1.857-3.838-2.476-5.571-.619-1.609-.99-2.971-.99-3.838 0-4.704 3.59-8.542 11.018-11.513 7.304-2.971 11.018-6.809 11.018-11.266 0-2.724-.99-5.447-3.095-8.171-2.105-2.6-4.333-3.962-6.809-3.962h-12.875v86.289h-21.789v-92.108c0-3.219 1.486-6.438 4.457-9.533s5.942-4.581 8.914-4.581h21.665c8.418 0 15.846 3.095 22.16 9.161 6.314 6.19 9.533 13.247 9.533 21.294 0 6.438-1.857 11.885-5.447 16.342s-8.666 8.171-14.98 11.142zm31.074.372h-22.656v-106.593h22.656zm10.523-109.564c.743 0 1.486.248 2.228.619.743.371 1.238.99 1.733 1.609.371.743.619 1.486.619 2.228s-.248 1.486-.619 2.228c-.371.743-.99 1.238-1.609 1.733-.743.371-1.486.619-2.228.619s-1.486-.248-2.228-.619c-.743-.371-1.238-.99-1.733-1.733-.371-.743-.619-1.486-.619-2.228s.248-1.486.619-2.228c.371-.743.99-1.238 1.733-1.609.618-.371 1.361-.619 2.104-.619zm0 .743c-.619 0-1.238.124-1.857.495s-1.114.743-1.362 1.362c-.371.619-.495 1.238-.495 1.857s.124 1.238.495 1.857.743 1.114 1.362 1.362c.619.371 1.238.495 1.857.495s1.238-.124 1.857-.495 1.114-.743 1.362-1.362c.371-.619.495-1.238.495-1.857s-.124-1.238-.495-1.857-.867-1.114-1.362-1.362-1.238-.495-1.857-.495zm-1.981 6.314v-4.952h1.609c.619 0 .99 0 1.238.124s.495.248.619.495.248.495.248.743c0 .371-.124.619-.371.867-.248.248-.619.371-.99.495.124.124.248.124.371.248.248.248.495.495.743.99l.619.99h-.867l-.495-.867c-.371-.619-.619-.99-.867-1.114-.124-.124-.248-.124-.619-.124h-.495v2.105zm.867-2.724h.99c.495 0 .743-.124.99-.248.124-.124.248-.371.248-.495s0-.248-.124-.371c-.124-.124-.248-.248-.371-.248s-.371-.124-.743-.124h-.867v1.486zm46.054 3.095v-4.952h-1.857v-.867h4.828v.867h-2.105v4.952zm3.466 0v-5.819h1.486l1.486 4.704 1.486-4.704h1.362v5.819h-.867v-4.952l-1.486 4.952h-.867l-1.609-4.952v4.952z"/><path d="m394.677 91.241v15.351c0 .619-.371 1.238-1.238 1.857s-1.733.867-2.6.867c-1.362 0-3.095-.99-5.323-2.971-2.105-1.981-4.333-3.962-6.438-6.066-2.105-1.981-3.838-3.095-5.076-3.095-.619 0-1.238.248-1.857.867-.619.495-.867 1.238-.867 2.105s.248 1.609.867 2.228 1.362.867 2.352.867v5.942c-2.476 0-4.581-.867-6.438-2.724-1.733-1.857-2.724-3.962-2.724-6.438s.867-4.581 2.724-6.314c1.733-1.733 3.838-2.6 6.314-2.6s5.076 1.238 7.428 3.59c2.476 2.352 4.828 4.581 7.057 6.809l.124-10.399h5.695zm.123-41.349c0-4.333-1.486-7.799-4.457-10.399-3.095-2.724-6.561-4.085-10.399-4.085s-7.304 1.486-10.275 4.457-4.457 6.438-4.457 10.399 1.486 7.552 4.457 10.523c2.847 2.971 6.561 4.457 10.771 4.457 4.333 0 7.799-1.486 10.399-4.581 2.6-2.972 3.961-6.686 3.961-10.771zm-8.17 6.437c-1.609 1.857-3.714 2.724-6.19 2.724-2.352 0-4.457-.867-6.314-2.6s-2.724-3.838-2.724-6.438c0-2.228.867-4.209 2.6-5.942s3.714-2.6 5.942-2.6c2.724 0 4.828.867 6.561 2.352 1.609 1.733 2.476 3.714 2.476 6.066.001 2.477-.742 4.705-2.351 6.438zm8.17-38.873c0-4.333-1.486-7.799-4.457-10.399-3.095-2.724-6.561-4.085-10.399-4.085s-7.304 1.486-10.275 4.457-4.457 6.438-4.457 10.399 1.486 7.552 4.457 10.523c2.847 2.971 6.561 4.457 10.771 4.457 4.333 0 7.799-1.486 10.399-4.581 2.6-2.972 3.961-6.686 3.961-10.771zm-8.17 6.437c-1.609 1.857-3.714 2.724-6.19 2.724-2.352 0-4.457-.867-6.314-2.6s-2.724-3.838-2.724-6.438c0-2.228.867-4.209 2.6-5.942s3.714-2.6 5.942-2.6c2.724 0 4.828.867 6.561 2.352 1.609 1.733 2.476 3.714 2.476 6.066.001 2.477-.742 4.705-2.351 6.438zm7.432 50.444c-.409-1.162-.981-2.159-1.714-2.992a7.673 7.673 0 0 0 -2.645-1.942c-1.03-.462-2.166-.693-3.408-.693-.832 0-1.631.106-2.397.317a7.546 7.546 0 0 0 -2.12.951 7.548 7.548 0 0 0 -1.734 1.575 8.04 8.04 0 0 0 -1.238 2.169c-.686-1.201-1.568-2.166-2.645-2.893a6.256 6.256 0 0 0 -3.576-1.09 6.59 6.59 0 0 0 -2.873.634 6.913 6.913 0 0 0 -2.298 1.773c-.647.76-1.155 1.658-1.525 2.694-.369 1.037-.555 2.169-.555 3.398 0 1.216.182 2.338.545 3.368.364 1.03.869 1.925 1.516 2.684a7.008 7.008 0 0 0 2.298 1.783c.885.43 1.85.644 2.893.644 1.308 0 2.5-.363 3.576-1.09 1.077-.726 1.959-1.704 2.645-2.932a7.63 7.63 0 0 0 1.248 2.179 7.41 7.41 0 0 0 1.743 1.545c.647.41 1.354.717 2.12.921a9.158 9.158 0 0 0 2.377.307c1.242 0 2.377-.234 3.408-.703a7.698 7.698 0 0 0 2.645-1.961c.733-.838 1.305-1.835 1.714-2.992.409-1.155.614-2.427.614-3.814.001-1.396-.205-2.678-.614-3.84zm-17.523 5.281c-.19.434-.455.811-.793 1.132a3.883 3.883 0 0 1 -2.684 1.052c-.511 0-.995-.086-1.453-.259a3.71 3.71 0 0 1 -1.204-.731 3.383 3.383 0 0 1 -.811-1.132 3.549 3.549 0 0 1 -.294-1.462c0-.511.096-.986.285-1.426.19-.439.452-.82.785-1.141a3.641 3.641 0 0 1 1.195-.758 4.025 4.025 0 0 1 1.498-.276 3.814 3.814 0 0 1 2.666 1.061c.339.327.606.707.802 1.141s.294.9.294 1.4a3.462 3.462 0 0 1 -.286 1.399zm13.727.408a3.925 3.925 0 0 1 -.927 1.418 4.142 4.142 0 0 1 -1.48.909c-.582.214-1.236.321-1.961.321a5.235 5.235 0 0 1 -1.908-.339 4.57 4.57 0 0 1 -1.507-.936c-.422-.398-.749-.874-.981-1.426s-.348-1.15-.348-1.792c0-.678.125-1.293.374-1.845s.588-1.025 1.016-1.418c.428-.392.93-.695 1.507-.909a5.263 5.263 0 0 1 1.845-.321c.713 0 1.358.113 1.935.339s1.07.538 1.48.936c.41.399.725.871.945 1.417.22.547.33 1.148.33 1.801 0 .677-.107 1.292-.32 1.845z"/></g></svg>