<svg enable-background="new 0 0 613.997 403.24" viewBox="0 0 613.997 403.24" xmlns="http://www.w3.org/2000/svg"><g clip-rule="evenodd" fill-rule="evenodd"><path d="m8.391 403.24c-7.527 0-8.391-4.572-8.391-8.624s0-386.446 0-390.587 3.357-4.029 12.442-4.029h369.564c9.084 0 12.442-.112 12.442 4.028s0 386.535 0 390.587-.864 8.624-8.391 8.624c-7.528.001-370.139.001-377.666.001z" fill="#3a3742"/><path d="m0 242.785c0-15.891 3.253-19.809 11.835-19.809h370.965c8.582 0 11.648 3.918 11.648 19.809 0 0-394.448.073-394.448 0z" fill="#181221"/><path d="m.187 56.301s0-51.346 0-52.272c0-4.141 3.357-4.029 12.442-4.029h369.378c9.084 0 12.442-.112 12.442 4.028v52.272h-394.262z" fill="#2a2733"/><path d="m379.174 395.611c3.615 0 6.546-2.931 6.546-6.546v-139.754c0-3.615-2.931-6.546-6.546-6.546h-363.713c-3.616 0-6.546 2.931-6.546 6.546v139.754c0 3.615 2.931 6.546 6.546 6.546z" fill="#3f3e4a" stroke="#0e0e10" stroke-miterlimit="10" stroke-width="1.2782"/><path d="m50.826 324.572h21.571c1.24 0 2.245 1.005 2.245 2.245v15.427c0 1.24-1.005 2.245-2.245 2.245h-21.571c-1.24 0-2.244-1.005-2.244-2.245v-15.427c-.001-1.24 1.004-2.245 2.244-2.245z" fill="#afacb3"/><path d="m84.118 324.57h21.574c1.24 0 2.244 1.005 2.244 2.245v15.431c0 1.24-1.005 2.245-2.244 2.245h-21.574c-1.24 0-2.245-1.005-2.245-2.245v-15.431c0-1.24 1.005-2.245 2.245-2.245z" fill="#afacb3"/><path d="m117.411 324.57h21.574c1.24 0 2.245 1.005 2.245 2.245v15.431c0 1.24-1.005 2.245-2.245 2.245h-21.574c-1.24 0-2.245-1.005-2.245-2.245v-15.431c0-1.24 1.005-2.245 2.245-2.245z" fill="#afacb3"/><path d="m150.704 324.57h21.574c1.239 0 2.244 1.005 2.244 2.245v15.431c0 1.24-1.005 2.245-2.244 2.245h-21.574c-1.24 0-2.244-1.005-2.244-2.245v-15.431c-.001-1.24 1.004-2.245 2.244-2.245z" fill="#afacb3"/><path d="m183.997 324.57h21.574c1.24 0 2.244 1.005 2.244 2.245v15.431c0 1.24-1.005 2.245-2.244 2.245h-21.574c-1.24 0-2.245-1.005-2.245-2.245v-15.431c0-1.24 1.005-2.245 2.245-2.245z" fill="#afacb3"/><path d="m217.29 324.57h21.574c1.24 0 2.244 1.005 2.244 2.245v15.431c0 1.24-1.005 2.245-2.244 2.245h-21.574c-1.24 0-2.244-1.005-2.244-2.245v-15.431c0-1.24 1.004-2.245 2.244-2.245z" fill="#afacb3"/><path d="m250.583 324.57h21.574c1.24 0 2.245 1.005 2.245 2.245v15.431c0 1.24-1.005 2.245-2.245 2.245h-21.574c-1.24 0-2.244-1.005-2.244-2.245v-15.431c0-1.24 1.004-2.245 2.244-2.245z" fill="#afacb3"/><path d="m283.876 324.57h21.574c1.24 0 2.244 1.005 2.244 2.245v15.431c0 1.24-1.005 2.245-2.244 2.245h-21.574c-1.24 0-2.245-1.005-2.245-2.245v-15.431c.001-1.24 1.006-2.245 2.245-2.245z" fill="#afacb3"/><path d="m317.169 324.57h21.574c1.24 0 2.245 1.005 2.245 2.245v15.431c0 1.24-1.005 2.245-2.245 2.245h-21.574c-1.24 0-2.244-1.005-2.244-2.245v-15.431c0-1.24 1.005-2.245 2.244-2.245z" fill="#afacb3"/><path d="m350.462 324.57h21.574c1.24 0 2.244 1.005 2.244 2.245v15.431c0 1.24-1.005 2.245-2.244 2.245h-21.574c-1.24 0-2.245-1.005-2.245-2.245v-15.431c.001-1.24 1.006-2.245 2.245-2.245z" fill="#afacb3"/><path d="m35.19 356.467h21.574c1.24 0 2.245 1.005 2.245 2.244v15.431c0 1.24-1.005 2.244-2.245 2.244h-21.574c-1.24 0-2.244-1.005-2.244-2.244v-15.431c0-1.24 1.005-2.244 2.244-2.244z" fill="#afacb3"/><path d="m68.484 356.467h21.574c1.24 0 2.244 1.005 2.244 2.244v15.431c0 1.24-1.005 2.244-2.244 2.244h-21.574c-1.24 0-2.245-1.005-2.245-2.244v-15.431c0-1.24 1.005-2.244 2.245-2.244z" fill="#afacb3"/><path d="m101.777 356.467h21.574c1.24 0 2.244 1.005 2.244 2.244v15.431c0 1.24-1.005 2.244-2.244 2.244h-21.574c-1.24 0-2.244-1.005-2.244-2.244v-15.431c-.001-1.24 1.004-2.244 2.244-2.244z" fill="#afacb3"/><path d="m135.07 356.467h21.574c1.24 0 2.244 1.005 2.244 2.244v15.431c0 1.24-1.005 2.244-2.244 2.244h-21.574c-1.24 0-2.244-1.005-2.244-2.244v-15.431c-.001-1.24 1.004-2.244 2.244-2.244z" fill="#afacb3"/><path d="m168.363 356.467h21.574c1.24 0 2.245 1.005 2.245 2.244v15.431c0 1.24-1.005 2.244-2.245 2.244h-21.574c-1.24 0-2.244-1.005-2.244-2.244v-15.431c-.001-1.24 1.004-2.244 2.244-2.244z" fill="#afacb3"/><path d="m201.656 356.467h21.574c1.24 0 2.244 1.005 2.244 2.244v15.431c0 1.24-1.005 2.244-2.244 2.244h-21.574c-1.24 0-2.244-1.005-2.244-2.244v-15.431c-.001-1.24 1.004-2.244 2.244-2.244z" fill="#afacb3"/><path d="m234.949 356.467h21.574c1.24 0 2.245 1.005 2.245 2.244v15.431c0 1.24-1.005 2.244-2.245 2.244h-21.574c-1.24 0-2.244-1.005-2.244-2.244v-15.431c0-1.24 1.004-2.244 2.244-2.244z" fill="#afacb3"/><path d="m268.242 356.467h21.574c1.24 0 2.245 1.005 2.245 2.244v15.431c0 1.24-1.005 2.244-2.245 2.244h-21.574c-1.24 0-2.245-1.005-2.245-2.244v-15.431c.001-1.24 1.006-2.244 2.245-2.244z" fill="#afacb3"/><path d="m301.535 356.467h21.574c1.24 0 2.244 1.005 2.244 2.244v15.431c0 1.24-1.005 2.244-2.244 2.244h-21.574c-1.24 0-2.244-1.005-2.244-2.244v-15.431c0-1.24 1.005-2.244 2.244-2.244z" fill="#afacb3"/><path d="m334.828 356.467h21.574c1.24 0 2.245 1.005 2.245 2.244v15.431c0 1.24-1.005 2.244-2.245 2.244h-21.574c-1.239 0-2.244-1.005-2.244-2.244v-15.431c0-1.24 1.005-2.244 2.244-2.244z" fill="#afacb3"/><path d="m42.831 292.218h21.574c1.24 0 2.244 1.005 2.244 2.244v15.431c0 1.24-1.005 2.245-2.244 2.245h-21.574c-1.24 0-2.244-1.005-2.244-2.245v-15.431c0-1.239 1.005-2.244 2.244-2.244z" fill="#afacb3"/><path d="m76.125 292.218h21.574c1.24 0 2.244 1.005 2.244 2.244v15.431c0 1.24-1.005 2.245-2.244 2.245h-21.574c-1.24 0-2.244-1.005-2.244-2.245v-15.431c-.001-1.239 1.004-2.244 2.244-2.244z" fill="#afacb3"/><path d="m109.418 292.218h21.574c1.24 0 2.244 1.005 2.244 2.244v15.431c0 1.24-1.005 2.245-2.244 2.245h-21.574c-1.24 0-2.244-1.005-2.244-2.245v-15.431c-.001-1.239 1.004-2.244 2.244-2.244z" fill="#afacb3"/><path d="m142.711 292.218h21.574c1.24 0 2.245 1.005 2.245 2.244v15.431c0 1.24-1.005 2.245-2.245 2.245h-21.574c-1.24 0-2.245-1.005-2.245-2.245v-15.431c0-1.239 1.005-2.244 2.245-2.244z" fill="#afacb3"/><path d="m176.004 292.218h21.574c1.24 0 2.245 1.005 2.245 2.244v15.431c0 1.24-1.005 2.245-2.245 2.245h-21.574c-1.24 0-2.244-1.005-2.244-2.245v-15.431c-.001-1.239 1.004-2.244 2.244-2.244z" fill="#afacb3"/><path d="m209.297 292.218h21.574c1.24 0 2.244 1.005 2.244 2.244v15.431c0 1.24-1.005 2.245-2.244 2.245h-21.574c-1.24 0-2.245-1.005-2.245-2.245v-15.431c0-1.239 1.005-2.244 2.245-2.244z" fill="#afacb3"/><path d="m242.59 292.218h21.574c1.24 0 2.244 1.005 2.244 2.244v15.431c0 1.24-1.005 2.245-2.244 2.245h-21.574c-1.24 0-2.244-1.005-2.244-2.245v-15.431c0-1.239 1.004-2.244 2.244-2.244z" fill="#afacb3"/><path d="m275.883 292.218h21.574c1.24 0 2.244 1.005 2.244 2.244v15.431c0 1.24-1.005 2.245-2.244 2.245h-21.574c-1.24 0-2.244-1.005-2.244-2.245v-15.431c0-1.239 1.005-2.244 2.244-2.244z" fill="#afacb3"/><path d="m309.176 292.218h21.574c1.24 0 2.244 1.005 2.244 2.244v15.431c0 1.24-1.005 2.245-2.244 2.245h-21.574c-1.24 0-2.245-1.005-2.245-2.245v-15.431c.001-1.239 1.006-2.244 2.245-2.244z" fill="#afacb3"/><path d="m342.469 292.218h21.574c1.24 0 2.245 1.005 2.245 2.244v15.431c0 1.24-1.005 2.245-2.245 2.245h-21.574c-1.24 0-2.245-1.005-2.245-2.245v-15.431c.001-1.239 1.006-2.244 2.245-2.244z" fill="#afacb3"/><path d="m25.482 260.287h21.574c1.24 0 2.244 1.005 2.244 2.245v15.431c0 1.24-1.005 2.245-2.244 2.245h-21.574c-1.24 0-2.245-1.005-2.245-2.245v-15.431c0-1.24 1.005-2.245 2.245-2.245z" fill="#afacb3"/><path d="m58.775 260.287h21.574c1.24 0 2.244 1.005 2.244 2.245v15.431c0 1.24-1.005 2.245-2.244 2.245h-21.574c-1.24 0-2.244-1.005-2.244-2.245v-15.431c0-1.24 1.004-2.245 2.244-2.245z" fill="#afacb3"/><path d="m92.068 260.287h21.574c1.24 0 2.244 1.005 2.244 2.245v15.431c0 1.24-1.005 2.245-2.244 2.245h-21.574c-1.24 0-2.244-1.005-2.244-2.245v-15.431c0-1.24 1.005-2.245 2.244-2.245z" fill="#afacb3"/><path d="m125.361 260.287h21.574c1.24 0 2.245 1.005 2.245 2.245v15.431c0 1.24-1.005 2.245-2.245 2.245h-21.574c-1.24 0-2.244-1.005-2.244-2.245v-15.431c0-1.24 1.005-2.245 2.244-2.245z" fill="#afacb3"/><path d="m158.654 260.287h21.574c1.24 0 2.245 1.005 2.245 2.245v15.431c0 1.24-1.005 2.245-2.245 2.245h-21.574c-1.24 0-2.244-1.005-2.244-2.245v-15.431c0-1.24 1.005-2.245 2.244-2.245z" fill="#afacb3"/><path d="m191.947 260.287h21.574c1.24 0 2.245 1.005 2.245 2.245v15.431c0 1.24-1.005 2.245-2.245 2.245h-21.574c-1.24 0-2.244-1.005-2.244-2.245v-15.431c0-1.24 1.005-2.245 2.244-2.245z" fill="#afacb3"/><path d="m225.241 260.287h21.574c1.24 0 2.244 1.005 2.244 2.245v15.431c0 1.24-1.005 2.245-2.244 2.245h-21.574c-1.24 0-2.245-1.005-2.245-2.245v-15.431c0-1.24 1.005-2.245 2.245-2.245z" fill="#afacb3"/><path d="m258.534 260.287h21.574c1.24 0 2.244 1.005 2.244 2.245v15.431c0 1.24-1.005 2.245-2.244 2.245h-21.574c-1.24 0-2.245-1.005-2.245-2.245v-15.431c0-1.24 1.005-2.245 2.245-2.245z" fill="#afacb3"/><path d="m291.827 260.287h21.574c1.24 0 2.245 1.005 2.245 2.245v15.431c0 1.24-1.005 2.245-2.245 2.245h-21.574c-1.24 0-2.244-1.005-2.244-2.245v-15.431c-.001-1.24 1.004-2.245 2.244-2.245z" fill="#afacb3"/><path d="m325.12 260.287h21.574c1.24 0 2.244 1.005 2.244 2.245v15.431c0 1.24-1.005 2.245-2.244 2.245h-21.574c-1.24 0-2.244-1.005-2.244-2.245v-15.431c-.001-1.24 1.004-2.245 2.244-2.245z" fill="#afacb3"/></g><path d="m20.022 207.098h15.094v-3.595h-6.107c-.378 0-.8.008-1.268.025s-.915.033-1.342.049c-.492.033-.985.058-1.477.074v-.074l1.206-1.207c.345-.345.706-.722 1.084-1.133.377-.41.722-.804 1.034-1.182l6.525-7.978v-3.299h-14.084v3.546h5.269c.361 0 .763-.004 1.206-.012s.862-.02 1.256-.037c.459-.016.927-.041 1.404-.074v.074c-.378.361-.747.731-1.108 1.108-.312.328-.64.677-.985 1.046s-.657.718-.936 1.046l-6.771 8.224z" fill="#f05953"/><path d="m36.445 207.098h4.777l1.896-3.226c.213-.361.431-.759.653-1.194s.422-.841.603-1.219c.213-.443.419-.887.615-1.33h.049c.197.443.394.886.591 1.33.18.378.373.784.579 1.219.205.435.414.833.628 1.194l1.847 3.226h4.974l-6.107-9.603 5.54-8.717h-4.58l-1.502 2.487c-.214.361-.431.751-.653 1.17s-.423.817-.603 1.194c-.213.427-.419.87-.616 1.33h-.049c-.214-.459-.419-.903-.616-1.33-.181-.377-.378-.776-.591-1.194-.213-.419-.427-.808-.64-1.17l-1.477-2.487h-4.801l5.639 8.741z" fill="#f05953"/><path d="m64.946 207.147c.878-.246 1.637-.603 2.278-1.071.64-.468 1.141-1.046 1.502-1.736s.542-1.469.542-2.339c0-1.034-.292-1.945-.874-2.733-.583-.788-1.457-1.346-2.622-1.674v-.074c.919-.328 1.601-.804 2.044-1.428s.665-1.33.665-2.117c0-.739-.152-1.404-.455-1.995-.304-.591-.735-1.091-1.293-1.502-.558-.41-1.235-.726-2.031-.948s-1.687-.332-2.672-.332-1.88.115-2.684.345c-.805.23-1.49.558-2.056.985s-1.001.94-1.305 1.539-.456 1.26-.456 1.982c0 .821.222 1.539.665 2.155.443.615 1.133 1.088 2.068 1.416v.074c-1.133.345-1.994.907-2.585 1.687s-.886 1.687-.886 2.721c0 .854.181 1.613.542 2.278s.866 1.231 1.514 1.699 1.416.825 2.302 1.071 1.855.369 2.905.369c1.049-.003 2.014-.126 2.892-.372zm-4.924-11.29c-.468-.402-.702-.939-.702-1.613 0-.689.234-1.239.702-1.65.468-.41 1.128-.616 1.982-.616.87 0 1.535.205 1.994.616s.689.96.689 1.65c0 .673-.23 1.211-.689 1.613-.46.403-1.125.603-1.994.603-.854 0-1.515-.2-1.982-.603zm-.321 7.941c-.566-.476-.85-1.124-.85-1.945 0-.853.287-1.527.862-2.019.574-.492 1.354-.739 2.339-.739s1.756.246 2.315.739c.558.492.837 1.166.837 2.019 0 .804-.287 1.449-.862 1.933s-1.338.726-2.29.726c-1 0-1.784-.238-2.351-.714z" fill="#f05953"/><path d="m71.533 207.098h4.211v-18.32h-4.211z" fill="#f05953"/><path d="m122.82 9.762h5.755v21.577h-5.755z" fill="#181221"/><path d="m131.452 15.517v4.312h20.138v1.439h-20.138v10.071h25.893v-15.822zm5.751 10.067h14.387v1.439h-14.387z" fill="#181221"/><path d="m160.223 15.517h5.751v15.822h-5.751z" fill="#181221"/><path d="m160.223 9.762h5.751v4.316h-5.751z" fill="#181221"/><path d="m168.851 15.517v15.822h5.755v-11.51h23.015v-4.312z" fill="#181221"/><path d="m91.172 15.517v15.822h28.77v-4.316h-23.015v-7.193h23.016v-4.312h-28.771z" fill="#181221"/><path d="m59.524 15.517v15.822h5.755v-11.51h17.261v11.51h5.755v-15.822z" fill="#181221"/><path d="m50.892 15.517h5.755v15.822h-5.755z" fill="#181221"/><path d="m50.892 9.762h5.755v4.316h-5.755z" fill="#181221"/><path d="m19.248 15.517v10.067h23.016v1.439h-23.016v4.316h28.77v-10.071h-23.019v-1.439h23.019v-4.312z" fill="#181221"/><path d="m121.262 8.204h5.755v21.577h-5.755z" fill="#5b585b"/><path d="m129.894 13.959v4.313h20.138v1.439h-20.138v10.071h25.893v-15.823zm5.751 10.067h14.387v1.439h-14.387z" fill="#5b585b"/><path d="m158.665 13.959h5.751v15.822h-5.751z" fill="#5b585b"/><path d="m158.665 8.204h5.751v4.316h-5.751z" fill="#5b585b"/><path d="m167.293 13.959v15.822h5.755v-11.51h23.015v-4.313h-28.77z" fill="#5b585b"/><path d="m89.614 13.959v15.822h28.77v-4.316h-23.015v-7.193h23.016v-4.313z" fill="#5b585b"/><path d="m57.966 13.959v15.822h5.755v-11.51h17.261v11.51h5.755v-15.822z" fill="#5b585b"/><path d="m49.334 13.959h5.755v15.822h-5.755z" fill="#5b585b"/><path d="m49.334 8.204h5.755v4.316h-5.755z" fill="#5b585b"/><path d="m17.689 13.959v10.067h23.016v1.439h-23.016v4.316h28.771v-10.071h-23.019v-1.439h23.019v-4.313h-28.771z" fill="#5b585b"/><path d="m122.041 8.983h5.755v21.577h-5.755z" fill="#2a2733"/><path d="m130.673 14.738v4.312h20.138v1.439h-20.138v10.071h25.893v-15.822zm5.751 10.067h14.387v1.439h-14.387z" fill="#2a2733"/><path d="m159.444 14.738h5.751v15.822h-5.751z" fill="#2a2733"/><path d="m159.444 8.983h5.751v4.316h-5.751z" fill="#2a2733"/><path d="m168.072 14.738v15.822h5.755v-11.51h23.015v-4.312z" fill="#2a2733"/><path d="m90.393 14.738v15.822h28.77v-4.316h-23.015v-7.194h23.016v-4.312z" fill="#2a2733"/><path d="m58.745 14.738v15.822h5.755v-11.51h17.261v11.51h5.755v-15.822z" fill="#2a2733"/><path d="m50.113 14.738h5.755v15.822h-5.755z" fill="#2a2733"/><path d="m50.113 8.983h5.755v4.316h-5.755z" fill="#2a2733"/><path d="m18.469 14.738v10.067h23.016v1.439h-23.016v4.316h28.77v-10.071h-23.019v-1.439h23.019v-4.312z" fill="#2a2733"/><path d="m479.853 316.698c-12.663 0-22.928 10.265-22.928 22.928s10.266 22.928 22.928 22.928c12.663 0 22.928-10.265 22.928-22.928s-10.265-22.928-22.928-22.928zm0 37.798c-8.212 0-14.87-6.657-14.87-14.87 0-8.212 6.657-14.87 14.87-14.87 8.212 0 14.87 6.657 14.87 14.87s-6.658 14.87-14.87 14.87z" fill="#311610"/><path d="m559.144 310.442c-16.118 0-29.184 13.066-29.184 29.184s13.066 29.184 29.184 29.184 29.184-13.066 29.184-29.184c-.001-16.118-13.067-29.184-29.184-29.184zm0 44.05c-8.212 0-14.87-6.657-14.87-14.87 0-8.212 6.657-14.87 14.87-14.87 8.212 0 14.87 6.657 14.87 14.87 0 8.212-6.658 14.87-14.87 14.87z" fill="#311610"/><path d="m559.144 328.992c-5.871 0-10.631 4.759-10.631 10.631 0 5.871 4.76 10.631 10.631 10.631s10.631-4.759 10.631-10.631c0-5.871-4.759-10.631-10.631-10.631zm.65 19.495v-1.936h-1.263v1.938c-2.812-.192-5.266-1.689-6.757-3.893l1.68-.97-.631-1.094-1.679.97c-.57-1.173-.89-2.489-.89-3.88 0-1.402.326-2.727.903-3.907l1.66.958.631-1.094-1.657-.957c1.49-2.188 3.931-3.674 6.728-3.868v1.89h1.263v-1.889c2.792.198 5.227 1.683 6.715 3.868l-1.638.946.631 1.094 1.641-.948c.578 1.179.903 2.504.903 3.906 0 1.383-.316 2.692-.879 3.859l-1.66-.958-.631 1.094 1.662.96c-1.481 2.206-3.926 3.708-6.732 3.911z" fill="#e4e4e3"/><path d="m479.852 328.992c-5.871 0-10.631 4.759-10.631 10.631 0 5.871 4.76 10.631 10.631 10.631s10.631-4.759 10.631-10.631c0-5.871-4.76-10.631-10.631-10.631zm.613 19.498v-1.938h-1.263v1.936c-2.805-.203-5.251-1.705-6.733-3.911l1.662-.96-.631-1.094-1.66.958c-.563-1.167-.879-2.476-.879-3.859 0-1.402.325-2.727.903-3.906l1.641.948.631-1.094-1.638-.946c1.488-2.184 3.923-3.669 6.715-3.868v1.889h1.263v-1.89c2.797.194 5.238 1.68 6.728 3.868l-1.657.957.631 1.094 1.66-.958c.578 1.179.904 2.505.904 3.907 0 1.391-.32 2.708-.89 3.88l-1.679-.97-.631 1.094 1.68.97c-1.491 2.204-3.944 3.701-6.757 3.893z" fill="#e4e4e3"/><path d="m611.556 361.485c1.671 1.719 2.197 2.292 2.197 2.292s.286.191.239 1.003c-.048.812 0 26.697 0 27.509s-.239.812-.478 1.098-1.958 2.292-1.958 2.292z" fill="#181221"/><path d="m427.441 361.485c-1.672 1.719-2.197 2.292-2.197 2.292s-.287.191-.239 1.003 0 26.697 0 27.509.239.812.478 1.098 1.958 2.292 1.958 2.292z" fill="#181221"/><path d="m608.787 287.118h-178.654c-1.866 0-3.393 1.527-3.393 3.392v109.336c0 1.866 1.527 3.393 3.393 3.393h178.654c1.866 0 3.393-1.527 3.393-3.393v-109.335c-.001-1.866-1.527-3.393-3.393-3.393zm-134.15 113.645c-2.219 0-4.018-1.799-4.018-4.018s1.799-4.018 4.018-4.018 4.018 1.799 4.018 4.018-1.799 4.018-4.018 4.018zm5.215-51.053c-5.571 0-10.087-4.516-10.087-10.087s4.516-10.088 10.087-10.088 10.088 4.516 10.088 10.088-4.517 10.087-10.088 10.087zm17.269 46.179c0 .8-.654 1.454-1.454 1.454h-4.444c-.8 0-1.454-.654-1.454-1.454v-4.017c0-.8.654-1.454 1.454-1.454h4.444c.8 0 1.454.654 1.454 1.454zm43.786-48.106c0 .233-.218.423-.485.423h-42.23c-.267 0-.485-.19-.485-.423v-17.256c0-.233.218-.423.485-.423h42.23c.267 0 .485.19.485.423zm8.321 48.106c0 .8-.654 1.454-1.454 1.454h-4.444c-.8 0-1.454-.654-1.454-1.454v-4.017c0-.8.654-1.454 1.454-1.454h4.444c.8 0 1.454.654 1.454 1.454zm15.131 4.874c-2.219 0-4.018-1.799-4.018-4.018s1.799-4.018 4.018-4.018 4.018 1.799 4.018 4.018-1.799 4.018-4.018 4.018zm-5.215-51.053c-5.571 0-10.088-4.516-10.088-10.087s4.516-10.088 10.088-10.088c5.571 0 10.088 4.516 10.088 10.088s-4.516 10.087-10.088 10.087z" fill="#181221"/><path d="m541.092 329.496h-43.569c-.275 0-.5.203-.5.451v18.414c0 .248.225.451.5.451h43.569c.275 0 .5-.203.5-.451v-18.414c0-.247-.225-.451-.5-.451zm-.185 18.287c0 .233-.218.423-.485.423h-42.23c-.267 0-.485-.19-.485-.423v-17.256c0-.233.218-.423.485-.423h42.23c.267 0 .485.19.485.423z" fill="#3e3845"/><path d="m584.781 403.24c-1.161-5.286-5.047-23.817-5.462-25.644-.427-1.881-1.197-3.419-3.59-3.419-2.394 0-110.068 0-112.461 0-2.394 0-3.163 1.539-3.591 3.419-.415 1.827-4.3 20.358-5.462 25.644h1.78c1.405-6.475 4.614-21.653 5.143-24.183.591-2.829 1.197-3.419 3.59-3.419h109.54c2.394 0 3 .591 3.59 3.419.529 2.531 3.738 17.708 5.143 24.183z" fill="#0f0c12"/><path clip-rule="evenodd" d="m600.385 303.386c-.159-.182-5.878-6.151-6.124-6.415-.172-.184-.451-.189-.451-.189h-148.623s-.279.005-.451.189c-.246.263-5.965 6.232-6.124 6.415-.246.283-.196.462-.196.462v63.95c0 .267.218.485.485.485h161.196c.267 0 .485-.218.485-.485v-63.95c-.001 0 .049-.179-.197-.462zm-41.241 48.511c-6.779 0-72.514 0-79.292 0-6.779 0-12.274-5.495-12.274-12.274s5.495-12.274 12.274-12.274h79.292c6.779 0 12.274 5.495 12.274 12.274 0 6.778-5.495 12.274-12.274 12.274z" fill="#d4d1d1" fill-rule="evenodd"/><path d="m520.496 296.782h71.609v23.918h-71.609z" fill="#060809"/><path d="m561.537 301.049h2.03v7.612h-2.03z" fill="#d4d1d1"/><path d="m564.582 303.08v1.521h7.105v.508h-7.105v3.553h9.135v-5.582zm2.029 3.551h5.076v.508h-5.076z" fill="#d4d1d1"/><path d="m574.733 303.08h2.029v5.582h-2.029z" fill="#d4d1d1"/><path d="m574.733 301.049h2.029v1.523h-2.029z" fill="#d4d1d1"/><path d="m577.777 303.08v5.582h2.03v-4.06h8.12v-1.521h-10.15z" fill="#d4d1d1"/><path d="m550.372 303.08v5.582h10.15v-1.523h-8.12v-2.538h8.12v-1.521z" fill="#d4d1d1"/><path d="m539.206 303.08v5.582h2.03v-4.06h6.089v4.06h2.03v-5.582z" fill="#d4d1d1"/><path d="m536.161 303.08h2.03v5.582h-2.03z" fill="#d4d1d1"/><path d="m536.161 301.049h2.03v1.523h-2.03z" fill="#d4d1d1"/><path d="m524.997 303.08v3.552h8.12v.508h-8.12v1.523h10.15v-3.553h-8.121v-.508h8.121v-1.521h-10.15z" fill="#d4d1d1"/><path d="m524.977 315.331h3.897v-.928h-1.577c-.098 0-.207.002-.327.006s-.236.008-.346.013c-.127.009-.254.015-.382.019v-.019l.312-.312c.089-.089.182-.186.28-.292.097-.106.186-.208.267-.305l1.685-2.06v-.852h-3.637v.915h1.361c.093 0 .197-.001.311-.003.115-.002.223-.005.324-.01.119-.004.239-.01.362-.019v.019c-.098.093-.193.189-.286.286-.081.085-.165.175-.254.27s-.17.186-.242.27l-1.748 2.123z" fill="#d4d1d1"/><path d="m529.218 315.331h1.233l.49-.833c.055-.093.111-.196.169-.308.057-.112.109-.217.156-.315.055-.114.108-.229.159-.343h.013c.051.114.102.229.153.343.047.098.096.202.149.315.053.112.107.215.162.308l.477.833h1.284l-1.577-2.479 1.43-2.251h-1.183l-.388.642c-.055.093-.111.194-.169.302-.057.108-.109.211-.156.308-.055.11-.108.225-.159.343h-.013c-.055-.119-.108-.233-.159-.343-.047-.097-.098-.2-.153-.308s-.11-.209-.165-.302l-.382-.642h-1.24l1.456 2.257z" fill="#d4d1d1"/><path d="m536.577 315.344c.227-.064.423-.156.588-.277s.294-.27.388-.448c.093-.178.14-.379.14-.604 0-.267-.075-.502-.226-.706-.151-.203-.376-.348-.677-.432v-.019c.237-.085.413-.208.528-.369.114-.161.172-.343.172-.547 0-.191-.039-.362-.118-.515-.078-.153-.19-.282-.334-.388s-.319-.188-.524-.245c-.206-.057-.436-.086-.69-.086s-.485.03-.693.089-.385.144-.531.254-.259.243-.337.397c-.078.155-.118.325-.118.512 0 .212.057.397.172.556s.292.281.534.366v.019c-.292.089-.515.234-.668.436-.153.201-.229.435-.229.702 0 .22.047.416.14.588s.224.318.391.439.366.213.594.277c.229.064.479.095.75.095.272.001.521-.031.748-.094zm-1.272-2.915c-.121-.104-.181-.242-.181-.416 0-.178.06-.32.181-.426s.291-.159.512-.159c.225 0 .396.053.515.159s.178.248.178.426c0 .174-.059.313-.178.416-.119.104-.29.156-.515.156-.22 0-.391-.052-.512-.156zm-.082 2.05c-.146-.123-.219-.29-.219-.502 0-.22.074-.394.222-.521s.35-.191.604-.191.453.064.598.191.216.301.216.521c0 .208-.074.374-.222.499s-.346.188-.591.188c-.26 0-.462-.062-.608-.185z" fill="#d4d1d1"/><path d="m538.277 315.331h1.087v-4.73h-1.087z" fill="#d4d1d1"/></svg>