<svg enable-background="new 0 0 394.448 403.24" viewBox="0 0 394.448 403.24" xmlns="http://www.w3.org/2000/svg"><g clip-rule="evenodd" fill-rule="evenodd"><path d="m8.391 403.24c-7.527 0-8.391-4.572-8.391-8.624s0-386.446 0-390.587 3.357-4.029 12.442-4.029h369.564c9.084 0 12.442-.112 12.442 4.028s0 386.535 0 390.587-.864 8.624-8.391 8.624c-7.528.001-370.139.001-377.666.001z" fill="#3a3742"/><path d="m0 242.785c0-15.891 3.253-19.809 11.835-19.809h370.965c8.582 0 11.648 3.918 11.648 19.809 0 0-394.448.073-394.448 0z" fill="#181221"/><path d="m.187 56.301s0-51.346 0-52.272c0-4.141 3.357-4.029 12.442-4.029h369.378c9.084 0 12.442-.112 12.442 4.028v52.272h-394.262z" fill="#2a2733"/><path d="m379.174 395.611c3.615 0 6.546-2.931 6.546-6.546v-139.754c0-3.615-2.931-6.546-6.546-6.546h-363.713c-3.616 0-6.546 2.931-6.546 6.546v139.754c0 3.615 2.931 6.546 6.546 6.546z" fill="#3f3e4a" stroke="#0e0e10" stroke-miterlimit="10" stroke-width="1.2782"/><path d="m50.826 324.572h21.571c1.24 0 2.245 1.005 2.245 2.245v15.427c0 1.24-1.005 2.245-2.245 2.245h-21.571c-1.24 0-2.244-1.005-2.244-2.245v-15.427c-.001-1.24 1.004-2.245 2.244-2.245z" fill="#afacb3"/><path d="m84.118 324.57h21.574c1.24 0 2.244 1.005 2.244 2.245v15.431c0 1.24-1.005 2.245-2.244 2.245h-21.574c-1.24 0-2.245-1.005-2.245-2.245v-15.431c0-1.24 1.005-2.245 2.245-2.245z" fill="#afacb3"/><path d="m117.411 324.57h21.574c1.24 0 2.245 1.005 2.245 2.245v15.431c0 1.24-1.005 2.245-2.245 2.245h-21.574c-1.24 0-2.245-1.005-2.245-2.245v-15.431c0-1.24 1.005-2.245 2.245-2.245z" fill="#afacb3"/><path d="m150.704 324.57h21.574c1.239 0 2.244 1.005 2.244 2.245v15.431c0 1.24-1.005 2.245-2.244 2.245h-21.574c-1.24 0-2.244-1.005-2.244-2.245v-15.431c-.001-1.24 1.004-2.245 2.244-2.245z" fill="#afacb3"/><path d="m183.997 324.57h21.574c1.24 0 2.244 1.005 2.244 2.245v15.431c0 1.24-1.005 2.245-2.244 2.245h-21.574c-1.24 0-2.245-1.005-2.245-2.245v-15.431c0-1.24 1.005-2.245 2.245-2.245z" fill="#afacb3"/><path d="m217.29 324.57h21.574c1.24 0 2.244 1.005 2.244 2.245v15.431c0 1.24-1.005 2.245-2.244 2.245h-21.574c-1.24 0-2.244-1.005-2.244-2.245v-15.431c0-1.24 1.004-2.245 2.244-2.245z" fill="#afacb3"/><path d="m250.583 324.57h21.574c1.24 0 2.245 1.005 2.245 2.245v15.431c0 1.24-1.005 2.245-2.245 2.245h-21.574c-1.24 0-2.244-1.005-2.244-2.245v-15.431c0-1.24 1.004-2.245 2.244-2.245z" fill="#afacb3"/><path d="m283.876 324.57h21.574c1.24 0 2.244 1.005 2.244 2.245v15.431c0 1.24-1.005 2.245-2.244 2.245h-21.574c-1.24 0-2.245-1.005-2.245-2.245v-15.431c.001-1.24 1.006-2.245 2.245-2.245z" fill="#afacb3"/><path d="m317.169 324.57h21.574c1.24 0 2.245 1.005 2.245 2.245v15.431c0 1.24-1.005 2.245-2.245 2.245h-21.574c-1.24 0-2.244-1.005-2.244-2.245v-15.431c0-1.24 1.005-2.245 2.244-2.245z" fill="#afacb3"/><path d="m350.462 324.57h21.574c1.24 0 2.244 1.005 2.244 2.245v15.431c0 1.24-1.005 2.245-2.244 2.245h-21.574c-1.24 0-2.245-1.005-2.245-2.245v-15.431c.001-1.24 1.006-2.245 2.245-2.245z" fill="#afacb3"/><path d="m35.19 356.467h21.574c1.24 0 2.245 1.005 2.245 2.244v15.431c0 1.24-1.005 2.244-2.245 2.244h-21.574c-1.24 0-2.244-1.005-2.244-2.244v-15.431c0-1.24 1.005-2.244 2.244-2.244z" fill="#afacb3"/><path d="m68.484 356.467h21.574c1.24 0 2.244 1.005 2.244 2.244v15.431c0 1.24-1.005 2.244-2.244 2.244h-21.574c-1.24 0-2.245-1.005-2.245-2.244v-15.431c0-1.24 1.005-2.244 2.245-2.244z" fill="#afacb3"/><path d="m101.777 356.467h21.574c1.24 0 2.244 1.005 2.244 2.244v15.431c0 1.24-1.005 2.244-2.244 2.244h-21.574c-1.24 0-2.244-1.005-2.244-2.244v-15.431c-.001-1.24 1.004-2.244 2.244-2.244z" fill="#afacb3"/><path d="m135.07 356.467h21.574c1.24 0 2.244 1.005 2.244 2.244v15.431c0 1.24-1.005 2.244-2.244 2.244h-21.574c-1.24 0-2.244-1.005-2.244-2.244v-15.431c-.001-1.24 1.004-2.244 2.244-2.244z" fill="#afacb3"/><path d="m168.363 356.467h21.574c1.24 0 2.245 1.005 2.245 2.244v15.431c0 1.24-1.005 2.244-2.245 2.244h-21.574c-1.24 0-2.244-1.005-2.244-2.244v-15.431c-.001-1.24 1.004-2.244 2.244-2.244z" fill="#afacb3"/><path d="m201.656 356.467h21.574c1.24 0 2.244 1.005 2.244 2.244v15.431c0 1.24-1.005 2.244-2.244 2.244h-21.574c-1.24 0-2.244-1.005-2.244-2.244v-15.431c-.001-1.24 1.004-2.244 2.244-2.244z" fill="#afacb3"/><path d="m234.949 356.467h21.574c1.24 0 2.245 1.005 2.245 2.244v15.431c0 1.24-1.005 2.244-2.245 2.244h-21.574c-1.24 0-2.244-1.005-2.244-2.244v-15.431c0-1.24 1.004-2.244 2.244-2.244z" fill="#afacb3"/><path d="m268.242 356.467h21.574c1.24 0 2.245 1.005 2.245 2.244v15.431c0 1.24-1.005 2.244-2.245 2.244h-21.574c-1.24 0-2.245-1.005-2.245-2.244v-15.431c.001-1.24 1.006-2.244 2.245-2.244z" fill="#afacb3"/><path d="m301.535 356.467h21.574c1.24 0 2.244 1.005 2.244 2.244v15.431c0 1.24-1.005 2.244-2.244 2.244h-21.574c-1.24 0-2.244-1.005-2.244-2.244v-15.431c0-1.24 1.005-2.244 2.244-2.244z" fill="#afacb3"/><path d="m334.828 356.467h21.574c1.24 0 2.245 1.005 2.245 2.244v15.431c0 1.24-1.005 2.244-2.245 2.244h-21.574c-1.239 0-2.244-1.005-2.244-2.244v-15.431c0-1.24 1.005-2.244 2.244-2.244z" fill="#afacb3"/><path d="m42.831 292.218h21.574c1.24 0 2.244 1.005 2.244 2.244v15.431c0 1.24-1.005 2.245-2.244 2.245h-21.574c-1.24 0-2.244-1.005-2.244-2.245v-15.431c0-1.239 1.005-2.244 2.244-2.244z" fill="#afacb3"/><path d="m76.125 292.218h21.574c1.24 0 2.244 1.005 2.244 2.244v15.431c0 1.24-1.005 2.245-2.244 2.245h-21.574c-1.24 0-2.244-1.005-2.244-2.245v-15.431c-.001-1.239 1.004-2.244 2.244-2.244z" fill="#afacb3"/><path d="m109.418 292.218h21.574c1.24 0 2.244 1.005 2.244 2.244v15.431c0 1.24-1.005 2.245-2.244 2.245h-21.574c-1.24 0-2.244-1.005-2.244-2.245v-15.431c-.001-1.239 1.004-2.244 2.244-2.244z" fill="#afacb3"/><path d="m142.711 292.218h21.574c1.24 0 2.245 1.005 2.245 2.244v15.431c0 1.24-1.005 2.245-2.245 2.245h-21.574c-1.24 0-2.245-1.005-2.245-2.245v-15.431c0-1.239 1.005-2.244 2.245-2.244z" fill="#afacb3"/><path d="m176.004 292.218h21.574c1.24 0 2.245 1.005 2.245 2.244v15.431c0 1.24-1.005 2.245-2.245 2.245h-21.574c-1.24 0-2.244-1.005-2.244-2.245v-15.431c-.001-1.239 1.004-2.244 2.244-2.244z" fill="#afacb3"/><path d="m209.297 292.218h21.574c1.24 0 2.244 1.005 2.244 2.244v15.431c0 1.24-1.005 2.245-2.244 2.245h-21.574c-1.24 0-2.245-1.005-2.245-2.245v-15.431c0-1.239 1.005-2.244 2.245-2.244z" fill="#afacb3"/><path d="m242.59 292.218h21.574c1.24 0 2.244 1.005 2.244 2.244v15.431c0 1.24-1.005 2.245-2.244 2.245h-21.574c-1.24 0-2.244-1.005-2.244-2.245v-15.431c0-1.239 1.004-2.244 2.244-2.244z" fill="#afacb3"/><path d="m275.883 292.218h21.574c1.24 0 2.244 1.005 2.244 2.244v15.431c0 1.24-1.005 2.245-2.244 2.245h-21.574c-1.24 0-2.244-1.005-2.244-2.245v-15.431c0-1.239 1.005-2.244 2.244-2.244z" fill="#afacb3"/><path d="m309.176 292.218h21.574c1.24 0 2.244 1.005 2.244 2.244v15.431c0 1.24-1.005 2.245-2.244 2.245h-21.574c-1.24 0-2.245-1.005-2.245-2.245v-15.431c.001-1.239 1.006-2.244 2.245-2.244z" fill="#afacb3"/><path d="m342.469 292.218h21.574c1.24 0 2.245 1.005 2.245 2.244v15.431c0 1.24-1.005 2.245-2.245 2.245h-21.574c-1.24 0-2.245-1.005-2.245-2.245v-15.431c.001-1.239 1.006-2.244 2.245-2.244z" fill="#afacb3"/><path d="m25.482 260.287h21.574c1.24 0 2.244 1.005 2.244 2.245v15.431c0 1.24-1.005 2.245-2.244 2.245h-21.574c-1.24 0-2.245-1.005-2.245-2.245v-15.431c0-1.24 1.005-2.245 2.245-2.245z" fill="#afacb3"/><path d="m58.775 260.287h21.574c1.24 0 2.244 1.005 2.244 2.245v15.431c0 1.24-1.005 2.245-2.244 2.245h-21.574c-1.24 0-2.244-1.005-2.244-2.245v-15.431c0-1.24 1.004-2.245 2.244-2.245z" fill="#afacb3"/><path d="m92.068 260.287h21.574c1.24 0 2.244 1.005 2.244 2.245v15.431c0 1.24-1.005 2.245-2.244 2.245h-21.574c-1.24 0-2.244-1.005-2.244-2.245v-15.431c0-1.24 1.005-2.245 2.244-2.245z" fill="#afacb3"/><path d="m125.361 260.287h21.574c1.24 0 2.245 1.005 2.245 2.245v15.431c0 1.24-1.005 2.245-2.245 2.245h-21.574c-1.24 0-2.244-1.005-2.244-2.245v-15.431c0-1.24 1.005-2.245 2.244-2.245z" fill="#afacb3"/><path d="m158.654 260.287h21.574c1.24 0 2.245 1.005 2.245 2.245v15.431c0 1.24-1.005 2.245-2.245 2.245h-21.574c-1.24 0-2.244-1.005-2.244-2.245v-15.431c0-1.24 1.005-2.245 2.244-2.245z" fill="#afacb3"/><path d="m191.947 260.287h21.574c1.24 0 2.245 1.005 2.245 2.245v15.431c0 1.24-1.005 2.245-2.245 2.245h-21.574c-1.24 0-2.244-1.005-2.244-2.245v-15.431c0-1.24 1.005-2.245 2.244-2.245z" fill="#afacb3"/><path d="m225.241 260.287h21.574c1.24 0 2.244 1.005 2.244 2.245v15.431c0 1.24-1.005 2.245-2.244 2.245h-21.574c-1.24 0-2.245-1.005-2.245-2.245v-15.431c0-1.24 1.005-2.245 2.245-2.245z" fill="#afacb3"/><path d="m258.534 260.287h21.574c1.24 0 2.244 1.005 2.244 2.245v15.431c0 1.24-1.005 2.245-2.244 2.245h-21.574c-1.24 0-2.245-1.005-2.245-2.245v-15.431c0-1.24 1.005-2.245 2.245-2.245z" fill="#afacb3"/><path d="m291.827 260.287h21.574c1.24 0 2.245 1.005 2.245 2.245v15.431c0 1.24-1.005 2.245-2.245 2.245h-21.574c-1.24 0-2.244-1.005-2.244-2.245v-15.431c-.001-1.24 1.004-2.245 2.244-2.245z" fill="#afacb3"/><path d="m325.12 260.287h21.574c1.24 0 2.244 1.005 2.244 2.245v15.431c0 1.24-1.005 2.245-2.244 2.245h-21.574c-1.24 0-2.244-1.005-2.244-2.245v-15.431c-.001-1.24 1.004-2.245 2.244-2.245z" fill="#afacb3"/></g><path d="m20.022 207.098h15.094v-3.595h-6.107c-.378 0-.8.008-1.268.025s-.915.033-1.342.049c-.492.033-.985.058-1.477.074v-.074l1.206-1.207c.345-.345.706-.722 1.084-1.133.377-.41.722-.804 1.034-1.182l6.525-7.978v-3.299h-14.084v3.546h5.269c.361 0 .763-.004 1.206-.012s.862-.02 1.256-.037c.459-.016.927-.041 1.404-.074v.074c-.378.361-.747.731-1.108 1.108-.312.328-.64.677-.985 1.046s-.657.718-.936 1.046l-6.771 8.224z" fill="#f05953"/><path d="m36.445 207.098h4.777l1.896-3.226c.213-.361.431-.759.653-1.194s.422-.841.603-1.219c.213-.443.419-.887.615-1.33h.049c.197.443.394.886.591 1.33.18.378.373.784.579 1.219.205.435.414.833.628 1.194l1.847 3.226h4.974l-6.107-9.603 5.54-8.717h-4.58l-1.502 2.487c-.214.361-.431.751-.653 1.17s-.423.817-.603 1.194c-.213.427-.419.87-.616 1.33h-.049c-.214-.459-.419-.903-.616-1.33-.181-.377-.378-.776-.591-1.194-.213-.419-.427-.808-.64-1.17l-1.477-2.487h-4.801l5.639 8.741z" fill="#f05953"/><path d="m64.946 207.147c.878-.246 1.637-.603 2.278-1.071.64-.468 1.141-1.046 1.502-1.736s.542-1.469.542-2.339c0-1.034-.292-1.945-.874-2.733-.583-.788-1.457-1.346-2.622-1.674v-.074c.919-.328 1.601-.804 2.044-1.428s.665-1.33.665-2.117c0-.739-.152-1.404-.455-1.995-.304-.591-.735-1.091-1.293-1.502-.558-.41-1.235-.726-2.031-.948s-1.687-.332-2.672-.332-1.88.115-2.684.345c-.805.23-1.49.558-2.056.985s-1.001.94-1.305 1.539-.456 1.26-.456 1.982c0 .821.222 1.539.665 2.155.443.615 1.133 1.088 2.068 1.416v.074c-1.133.345-1.994.907-2.585 1.687s-.886 1.687-.886 2.721c0 .854.181 1.613.542 2.278s.866 1.231 1.514 1.699 1.416.825 2.302 1.071 1.855.369 2.905.369c1.049-.003 2.014-.126 2.892-.372zm-4.924-11.29c-.468-.402-.702-.939-.702-1.613 0-.689.234-1.239.702-1.65.468-.41 1.128-.616 1.982-.616.87 0 1.535.205 1.994.616s.689.96.689 1.65c0 .673-.23 1.211-.689 1.613-.46.403-1.125.603-1.994.603-.854 0-1.515-.2-1.982-.603zm-.321 7.941c-.566-.476-.85-1.124-.85-1.945 0-.853.287-1.527.862-2.019.574-.492 1.354-.739 2.339-.739s1.756.246 2.315.739c.558.492.837 1.166.837 2.019 0 .804-.287 1.449-.862 1.933s-1.338.726-2.29.726c-1 0-1.784-.238-2.351-.714z" fill="#f05953"/><path d="m71.533 207.098h4.211v-18.32h-4.211z" fill="#f05953"/><path d="m122.82 9.762h5.755v21.577h-5.755z" fill="#181221"/><path d="m131.452 15.517v4.312h20.138v1.439h-20.138v10.071h25.893v-15.822zm5.751 10.067h14.387v1.439h-14.387z" fill="#181221"/><path d="m160.223 15.517h5.751v15.822h-5.751z" fill="#181221"/><path d="m160.223 9.762h5.751v4.316h-5.751z" fill="#181221"/><path d="m168.851 15.517v15.822h5.755v-11.51h23.015v-4.312z" fill="#181221"/><path d="m91.172 15.517v15.822h28.77v-4.316h-23.015v-7.193h23.016v-4.312h-28.771z" fill="#181221"/><path d="m59.524 15.517v15.822h5.755v-11.51h17.261v11.51h5.755v-15.822z" fill="#181221"/><path d="m50.892 15.517h5.755v15.822h-5.755z" fill="#181221"/><path d="m50.892 9.762h5.755v4.316h-5.755z" fill="#181221"/><path d="m19.248 15.517v10.067h23.016v1.439h-23.016v4.316h28.77v-10.071h-23.019v-1.439h23.019v-4.312z" fill="#181221"/><path d="m121.262 8.204h5.755v21.577h-5.755z" fill="#5b585b"/><path d="m129.894 13.959v4.313h20.138v1.439h-20.138v10.071h25.893v-15.823zm5.751 10.067h14.387v1.439h-14.387z" fill="#5b585b"/><path d="m158.665 13.959h5.751v15.822h-5.751z" fill="#5b585b"/><path d="m158.665 8.204h5.751v4.316h-5.751z" fill="#5b585b"/><path d="m167.293 13.959v15.822h5.755v-11.51h23.015v-4.313h-28.77z" fill="#5b585b"/><path d="m89.614 13.959v15.822h28.77v-4.316h-23.015v-7.193h23.016v-4.313z" fill="#5b585b"/><path d="m57.966 13.959v15.822h5.755v-11.51h17.261v11.51h5.755v-15.822z" fill="#5b585b"/><path d="m49.334 13.959h5.755v15.822h-5.755z" fill="#5b585b"/><path d="m49.334 8.204h5.755v4.316h-5.755z" fill="#5b585b"/><path d="m17.689 13.959v10.067h23.016v1.439h-23.016v4.316h28.771v-10.071h-23.019v-1.439h23.019v-4.313h-28.771z" fill="#5b585b"/><path d="m122.041 8.983h5.755v21.577h-5.755z" fill="#2a2733"/><path d="m130.673 14.738v4.312h20.138v1.439h-20.138v10.071h25.893v-15.822zm5.751 10.067h14.387v1.439h-14.387z" fill="#2a2733"/><path d="m159.444 14.738h5.751v15.822h-5.751z" fill="#2a2733"/><path d="m159.444 8.983h5.751v4.316h-5.751z" fill="#2a2733"/><path d="m168.072 14.738v15.822h5.755v-11.51h23.015v-4.312z" fill="#2a2733"/><path d="m90.393 14.738v15.822h28.77v-4.316h-23.015v-7.194h23.016v-4.312z" fill="#2a2733"/><path d="m58.745 14.738v15.822h5.755v-11.51h17.261v11.51h5.755v-15.822z" fill="#2a2733"/><path d="m50.113 14.738h5.755v15.822h-5.755z" fill="#2a2733"/><path d="m50.113 8.983h5.755v4.316h-5.755z" fill="#2a2733"/><path d="m18.469 14.738v10.067h23.016v1.439h-23.016v4.316h28.77v-10.071h-23.019v-1.439h23.019v-4.312z" fill="#2a2733"/></svg>