<svg enable-background="new 0 0 188.997 116.121" viewBox="0 0 188.997 116.121" xmlns="http://www.w3.org/2000/svg"><path d="m54.853 29.58c-12.663 0-22.928 10.265-22.928 22.928s10.265 22.928 22.928 22.928 22.928-10.265 22.928-22.928-10.265-22.928-22.928-22.928zm0 37.798c-8.212 0-14.87-6.657-14.87-14.87 0-8.212 6.657-14.87 14.87-14.87 8.212 0 14.87 6.657 14.87 14.87 0 8.212-6.658 14.87-14.87 14.87z" fill="#311610"/><path d="m134.144 23.324c-16.118 0-29.184 13.066-29.184 29.184s13.066 29.184 29.184 29.184 29.184-13.066 29.184-29.184c-.001-16.118-13.067-29.184-29.184-29.184zm0 44.049c-8.212 0-14.87-6.657-14.87-14.87 0-8.212 6.657-14.87 14.87-14.87 8.212 0 14.87 6.657 14.87 14.87s-6.658 14.87-14.87 14.87z" fill="#311610"/><path d="m134.144 41.874c-5.871 0-10.631 4.76-10.631 10.631s4.76 10.631 10.631 10.631 10.631-4.759 10.631-10.631-4.759-10.631-10.631-10.631zm.65 19.495v-1.936h-1.263v1.938c-2.812-.192-5.266-1.689-6.757-3.893l1.68-.97-.631-1.094-1.679.97c-.57-1.173-.89-2.489-.89-3.88 0-1.402.326-2.727.903-3.907l1.66.958.631-1.094-1.657-.957c1.49-2.188 3.931-3.674 6.728-3.868v1.89h1.263v-1.889c2.792.198 5.228 1.683 6.715 3.868l-1.638.946.631 1.094 1.641-.948c.578 1.179.903 2.504.903 3.906 0 1.383-.316 2.692-.879 3.859l-1.66-.958-.631 1.094 1.662.96c-1.481 2.206-3.926 3.708-6.732 3.911z" fill="#e4e4e3"/><path d="m54.852 41.874c-5.871 0-10.631 4.76-10.631 10.631s4.76 10.631 10.631 10.631 10.631-4.759 10.631-10.631-4.76-10.631-10.631-10.631zm.613 19.498v-1.938h-1.263v1.936c-2.806-.203-5.251-1.705-6.733-3.91l1.662-.96-.631-1.095-1.66.958c-.563-1.167-.879-2.476-.879-3.859 0-1.402.325-2.727.903-3.906l1.641.948.631-1.094-1.638-.946c1.488-2.184 3.923-3.669 6.715-3.868v1.889h1.263v-1.89c2.797.194 5.238 1.68 6.728 3.868l-1.657.957.631 1.094 1.66-.958c.578 1.179.903 2.505.903 3.907 0 1.391-.32 2.708-.89 3.88l-1.679-.97-.631 1.094 1.68.97c-1.49 2.204-3.943 3.701-6.756 3.893z" fill="#e4e4e3"/><path d="m186.556 74.367c1.671 1.719 2.197 2.292 2.197 2.292s.286.191.239 1.003c-.048.812 0 26.697 0 27.509s-.239.812-.478 1.098-1.958 2.292-1.958 2.292z" fill="#181221"/><path d="m2.441 74.367c-1.671 1.719-2.197 2.292-2.197 2.292s-.287.191-.239 1.003 0 26.697 0 27.509.239.812.478 1.098 1.958 2.292 1.958 2.292z" fill="#181221"/><path d="m183.787 0h-178.654c-1.866 0-3.393 1.527-3.393 3.392v109.336c0 1.866 1.527 3.393 3.393 3.393h178.654c1.866 0 3.393-1.527 3.393-3.393v-109.336c-.001-1.865-1.527-3.392-3.393-3.392zm-134.15 113.644c-2.219 0-4.018-1.799-4.018-4.018s1.799-4.018 4.018-4.018 4.018 1.799 4.018 4.018-1.799 4.018-4.018 4.018zm5.215-51.052c-5.571 0-10.087-4.516-10.087-10.088s4.516-10.087 10.087-10.087 10.088 4.516 10.088 10.087-4.517 10.088-10.088 10.088zm17.269 46.179c0 .8-.654 1.454-1.454 1.454h-4.444c-.8 0-1.454-.654-1.454-1.454v-4.017c0-.8.654-1.454 1.454-1.454h4.444c.8 0 1.454.654 1.454 1.454zm43.786-48.107c0 .233-.218.423-.485.423h-42.23c-.267 0-.485-.19-.485-.423v-17.256c0-.232.218-.423.485-.423h42.23c.267 0 .485.19.485.423zm8.321 48.107c0 .8-.654 1.454-1.454 1.454h-4.444c-.8 0-1.454-.654-1.454-1.454v-4.017c0-.8.654-1.454 1.454-1.454h4.444c.8 0 1.454.654 1.454 1.454zm15.131 4.873c-2.219 0-4.018-1.799-4.018-4.018s1.799-4.018 4.018-4.018 4.018 1.799 4.018 4.018-1.799 4.018-4.018 4.018zm-5.215-51.052c-5.571 0-10.087-4.516-10.087-10.088s4.516-10.087 10.087-10.087 10.088 4.516 10.088 10.087-4.516 10.088-10.088 10.088z" fill="#181221"/><path d="m116.092 42.378h-43.569c-.275 0-.5.203-.5.451v18.414c0 .248.225.451.5.451h43.569c.275 0 .5-.203.5-.451v-18.414c0-.248-.225-.451-.5-.451zm-.185 18.286c0 .233-.218.423-.485.423h-42.23c-.267 0-.485-.19-.485-.423v-17.256c0-.232.218-.423.485-.423h42.23c.267 0 .485.19.485.423z" fill="#3e3845"/><path d="m159.781 116.121c-1.161-5.286-5.047-23.817-5.462-25.644-.427-1.881-1.197-3.419-3.59-3.419-2.394 0-110.068 0-112.462 0s-3.163 1.539-3.59 3.419c-.415 1.827-4.3 20.358-5.462 25.644h1.78c1.405-6.475 4.614-21.653 5.143-24.183.591-2.829 1.197-3.419 3.59-3.419h109.54c2.394 0 3 .591 3.59 3.419.529 2.531 3.738 17.708 5.143 24.183z" fill="#0f0c12"/><path clip-rule="evenodd" d="m175.385 16.268c-.158-.182-5.878-6.151-6.124-6.415-.172-.185-.451-.189-.451-.189h-148.623s-.279.005-.451.189c-.246.263-5.965 6.232-6.124 6.415-.246.283-.196.462-.196.462v63.95c0 .267.218.485.485.485h161.196c.267 0 .485-.218.485-.485v-63.95c-.001 0 .049-.179-.197-.462zm-41.241 48.51c-6.779 0-72.514 0-79.292 0s-12.274-5.495-12.274-12.274 5.495-12.274 12.274-12.274 72.514 0 79.292 0c6.779 0 12.274 5.495 12.274 12.274s-5.495 12.274-12.274 12.274z" fill="#d4d1d1" fill-rule="evenodd"/><path d="m95.496 9.664h71.609v23.918h-71.609z" fill="#060809"/><g fill="#d4d1d1"><path d="m136.537 13.931h2.03v7.612h-2.03z"/><path d="m139.582 15.961v1.521h7.105v.508h-7.105v3.553h9.135v-5.582zm2.029 3.552h5.076v.508h-5.076z"/><path d="m149.733 15.961h2.029v5.582h-2.029z"/><path d="m149.733 13.931h2.029v1.523h-2.029z"/><path d="m152.777 15.961v5.582h2.03v-4.061h8.12v-1.521z"/><path d="m125.372 15.961v5.582h10.15v-1.523h-8.12v-2.538h8.12v-1.521z"/><path d="m114.206 15.961v5.582h2.03v-4.061h6.09v4.061h2.03v-5.582z"/><path d="m111.161 15.961h2.03v5.582h-2.03z"/><path d="m111.161 13.931h2.03v1.523h-2.03z"/><path d="m99.997 15.961v3.552h8.12v.508h-8.12v1.523h10.15v-3.554h-8.121v-.508h8.121v-1.521z"/><path d="m99.977 28.213h3.897v-.928h-1.577c-.098 0-.207.002-.327.006-.121.004-.236.009-.346.013-.127.008-.254.015-.382.019v-.019l.312-.312c.089-.089.182-.186.28-.292.097-.106.186-.208.267-.305l1.685-2.06v-.852h-3.637v.916h1.36c.093 0 .197-.001.312-.003s.223-.005.324-.01c.119-.004.239-.01.362-.019v.019c-.098.093-.193.189-.286.286-.081.085-.165.175-.254.27s-.17.185-.242.27l-1.748 2.123z"/><path d="m104.218 28.213h1.233l.489-.833c.055-.093.111-.196.169-.308.057-.112.109-.217.156-.315.055-.114.108-.229.159-.343h.013c.051.114.102.229.153.343.047.098.096.202.149.315.053.112.107.215.162.308l.477.833h1.284l-1.577-2.479 1.431-2.251h-1.183l-.388.642c-.055.093-.111.194-.169.302-.057.108-.109.211-.156.308-.055.11-.108.225-.159.343h-.013c-.055-.119-.108-.233-.159-.343-.047-.097-.098-.2-.153-.308s-.11-.209-.165-.302l-.382-.642h-1.24l1.456 2.257z"/><path d="m111.577 28.225c.227-.064.423-.156.588-.277s.295-.27.388-.448.14-.379.14-.604c0-.267-.075-.502-.226-.706-.15-.204-.376-.347-.677-.432v-.018c.237-.085.413-.208.528-.369s.172-.343.172-.547c0-.191-.039-.362-.118-.515-.078-.153-.19-.282-.334-.388s-.319-.188-.524-.245c-.206-.057-.436-.086-.69-.086s-.485.03-.693.089-.385.144-.531.254-.259.243-.337.397-.118.325-.118.512c0 .212.057.397.172.556s.292.281.534.366v.019c-.292.089-.515.234-.668.436-.153.201-.229.435-.229.702 0 .22.047.416.14.588s.223.318.391.439c.167.121.366.213.594.277.229.064.479.095.75.095.272.001.521-.031.748-.095zm-1.272-2.915c-.121-.104-.181-.243-.181-.416 0-.178.06-.32.181-.426s.291-.159.512-.159c.225 0 .396.053.515.159s.178.248.178.426c0 .174-.059.313-.178.416-.119.104-.29.156-.515.156-.22 0-.391-.052-.512-.156zm-.082 2.051c-.146-.123-.219-.29-.219-.502 0-.22.074-.394.222-.521s.35-.191.604-.191.454.064.598.191.216.301.216.521c0 .208-.074.374-.223.499-.148.125-.345.188-.591.188-.259-.001-.461-.062-.607-.185z"/><path d="m113.277 28.213h1.087v-4.73h-1.087z"/></g></svg>