<svg enable-background="new 0 0 371.073 84.825" viewBox="0 0 371.073 84.825" xmlns="http://www.w3.org/2000/svg"><g fill="#f9605b"><path d="m215.51 0h11.968v44.872h-11.968z"/><path d="m233.462 11.968v8.968h41.881v2.992h-41.881v20.944h53.849v-32.904zm11.961 20.936h29.92v2.992h-29.92z"/><path d="m293.295 11.968h11.96v32.904h-11.96z"/><path d="m293.295 0h11.96v8.975h-11.96z"/><path d="m311.24 11.968v32.904h11.968v-23.936h47.864v-8.968z"/><path d="m149.693 11.968v32.904h59.832v-8.976h-47.864v-14.96h47.864v-8.968z"/><path d="m83.876 11.968v32.904h11.969v-23.936h35.896v23.936h11.968v-32.904z"/><path d="m65.925 11.968h11.968v32.904h-11.968z"/><path d="m65.925 0h11.968v8.975h-11.968z"/><path d="m.115 11.968v20.936h47.865v2.992h-47.865v8.976h59.833v-20.943h-47.872v-2.992h47.872v-8.968h-59.833z"/><path d="m0 84.188h22.974v-5.472h-9.294c-.575 0-1.218.013-1.93.038s-1.394.05-2.043.075c-.75.05-1.5.088-2.249.112v-.112l1.836-1.837c.525-.525 1.074-1.099 1.649-1.724.574-.624 1.099-1.224 1.574-1.799l9.932-12.143v-5.022h-21.437v5.397h8.02c.549 0 1.162-.006 1.836-.018.675-.012 1.312-.031 1.912-.057.699-.025 1.411-.062 2.136-.113v.113c-.575.55-1.138 1.112-1.686 1.686-.475.5-.974 1.03-1.499 1.593s-1 1.093-1.424 1.593l-10.307 12.518z"/><path d="m24.997 84.188h7.271l2.885-4.909c.324-.549.656-1.155.993-1.818.337-.661.643-1.28.918-1.855.324-.674.637-1.349.937-2.024h.075c.3.674.6 1.349.9 2.024.275.575.568 1.194.881 1.855.312.663.631 1.269.956 1.818l2.811 4.909h7.57l-9.294-14.616 8.432-13.267h-6.972l-2.286 3.785c-.325.55-.656 1.143-.993 1.78s-.643 1.243-.918 1.818c-.325.65-.637 1.325-.937 2.024h-.075c-.325-.699-.637-1.373-.937-2.024-.275-.575-.575-1.181-.9-1.818s-.65-1.23-.974-1.78l-2.249-3.785h-7.308l8.582 13.304z"/><path d="m68.376 84.263c1.336-.374 2.492-.918 3.466-1.63s1.736-1.593 2.287-2.642c.549-1.05.824-2.236.824-3.56 0-1.574-.444-2.961-1.33-4.16-.887-1.2-2.218-2.048-3.991-2.548v-.113c1.399-.5 2.436-1.224 3.111-2.174.675-.949 1.012-2.024 1.012-3.223 0-1.125-.232-2.136-.694-3.036s-1.118-1.661-1.967-2.286c-.849-.624-1.88-1.105-3.092-1.443-1.213-.337-2.567-.506-4.066-.506-1.5 0-2.861.175-4.085.525s-2.267.849-3.13 1.499c-.862.65-1.524 1.431-1.987 2.343-.462.912-.693 1.918-.693 3.016 0 1.25.338 2.343 1.012 3.279.675.937 1.724 1.656 3.148 2.155v.113c-1.724.525-3.036 1.381-3.935 2.567-.9 1.187-1.349 2.567-1.349 4.141 0 1.299.275 2.455.825 3.467.549 1.012 1.317 1.874 2.305 2.586.987.711 2.155 1.256 3.504 1.63 1.349.375 2.823.562 4.422.562 1.598 0 3.066-.187 4.403-.562zm-7.495-17.184c-.712-.612-1.068-1.429-1.068-2.455 0-1.049.356-1.886 1.068-2.511s1.718-.937 3.017-.937c1.324 0 2.336.312 3.036.937.699.624 1.049 1.461 1.049 2.511 0 1.025-.35 1.843-1.049 2.455-.7.613-1.712.918-3.036.918-1.3.001-2.305-.304-3.017-.918zm-.488 12.087c-.861-.724-1.293-1.711-1.293-2.961 0-1.299.437-2.324 1.312-3.073s2.061-1.124 3.56-1.124 2.673.375 3.523 1.124c.849.749 1.274 1.774 1.274 3.073 0 1.225-.437 2.206-1.312 2.942-.875.737-2.037 1.105-3.486 1.105-1.523.001-2.716-.361-3.578-1.086z"/><path d="m78.4 84.188h6.409v-27.883h-6.409z"/></g></svg>