<svg xmlns="http://www.w3.org/2000/svg" viewBox="-769.518 494.892 1777.518 548.124"><path d="M-744.013 693.726c.164-.271.338-.537.511-.799 28.075-43.407 72.361-68.813 114.008-68.813 42.407 0 69.065 23.344 104.119 23.344 34.012 0 54.729-23.378 103.758-23.378 37.043 0 76.318 20.256 104.293 55.282-7.735 4.254-14.712 9.083-20.949 14.391l-405.74-.027z" fill="#61bb46" stroke="#61bb46" stroke-width="2.985" stroke-miterlimit="2.613"/><path d="M-458.807 584.97c17.796-22.952 31.333-55.36 26.427-88.494-29.097 2.003-63.129 20.605-83.006 44.821-18.037 21.999-32.928 54.624-27.131 86.316 31.766.992 64.627-18.055 83.71-42.643z" fill="#61bb46" stroke="#61bb46" stroke-width="2.985" stroke-miterlimit="2.613"/><path d="M-745.461 693.086c-12.09 19.021-20.456 46.284-22.676 70.197l392.241-.01c4.241-26.161 18.343-51.156 40.694-70.158l-410.259-.029h.023-.023z" fill="#fdb827"/><path d="M-764.575 832.857c-3.812-24.424-4.428-47.97-2.034-69.572l389.186-.01c-3.807 23.427-.612 47.806 9.017 69.597l-396.169-.015z" fill="#f5821f" stroke="#f5821f" stroke-width="2.985" stroke-miterlimit="2.613"/><path d="M-745.555 902.424c-9.19-23.373-15.483-46.848-19.02-69.568l396.168.015c12.265 27.768 34.962 51.358 66.922 63.48-.949 2.12-1.865 4.148-2.747 6.102l-441.323-.029z" fill="#e03a3e" stroke="#e03a3e" stroke-width="2.985" stroke-miterlimit="2.613"/><path d="M-304.233 902.453c-10.973 24.224-17.333 36.797-32.518 60.006a599.08 599.08 0 0 1-6.352 9.523l-365.683.034a802.098 802.098 0 0 1-3.475-5.241c-13.672-20.91-24.74-42.59-33.294-64.352l441.322.03z" fill="#963d97" stroke="#963d97" stroke-width="2.985" stroke-miterlimit="2.613"/><path d="M-343.103 971.982c-22.37 32.906-52.402 69.118-88.843 69.461-35.559.324-44.681-23.237-92.924-22.972-48.243.271-58.315 23.383-93.874 23.049-38.017-.353-67.538-35.916-90.042-69.505l365.683-.033z" fill="#009ddc" stroke="#009ddc" stroke-width="2.985" stroke-miterlimit="2.613"/><path d="M452.899 655.628v228.325h55.197V655.628h-55.197zm356.544 0v31.808h32.325a6.39 6.39 0 0 1 4.586 1.941 6.74 6.74 0 0 1 1.889 4.717v151.448a6.761 6.761 0 0 1-1.889 4.711 6.36 6.36 0 0 1-4.586 1.941h-32.325v31.866h86.624V655.628h-86.624zm111.939 0v228.435H1008V852.2h-32.319a6.365 6.365 0 0 1-4.586-1.941 6.677 6.677 0 0 1-1.875-4.711V694.097a6.68 6.68 0 0 1 1.875-4.717 6.36 6.36 0 0 1 4.586-1.941H1008v-31.811h-86.618zm-1097.778 54.56c-25.839 0-46.899 8.495-64.485 25.969-17.698 17.582-26.112 37.126-26.112 59.841 0 22.415 8.82 42.218 27.547 60.677 18.675 18.402 39.527 27.277 63.688 27.277h35.4V842.72h-14.964c-13.624 0-25.786-4.426-35.295-13.095-9.506-8.657-14.65-20.195-14.65-32.996 0-12.956 5.042-24.487 14.438-32.799 9.34-8.271 21.322-12.389 34.868-12.389h37.629a6.368 6.368 0 0 1 4.583 1.944 6.738 6.738 0 0 1 1.892 4.708v125.874h55.197V710.188h-119.736zm153.86 0v228.319h55.252V758.082a6.735 6.735 0 0 1 1.889-4.708 6.373 6.373 0 0 1 4.583-1.944h35.028c14.577 0 27.611 5.057 37.841 14.839 9.46 9.064 14.705 20.407 14.705 32.735 0 12.752-5.67 24.127-15.868 32.029-10.084 7.812-22.584 11.686-36.676 11.686H61.214v41.235h36.992c25.446 0 46.472-8.207 64.168-24.941 17.681-16.696 26.109-36.266 26.109-60.271 0-24.874-8.454-45.287-26.059-62.683-17.626-17.422-38.193-25.862-62.892-25.862l-122.068-.009zm237.718 0v228.319h55.197V758.082a6.745 6.745 0 0 1 1.886-4.708 6.374 6.374 0 0 1 4.592-1.944h35.066c14.589 0 27.611 5.057 37.841 14.839 9.457 9.064 14.705 20.407 14.708 32.735-.003 12.775-5.734 24.133-15.923 32.029-10.081 7.809-22.534 11.686-36.629 11.686h-13.017v41.235h36.992c25.449 0 46.423-8.201 64.116-24.941 17.687-16.696 26.109-36.266 26.109-60.271 0-24.874-8.445-45.287-26.059-62.683-17.623-17.428-38.14-25.862-62.84-25.862l-122.039-.009zm426.817 0c-28.983 0-53.697 8.797-75.101 26.678-21.45 17.919-31.366 37.266-31.366 59.408 0 26.673 10.189 47.396 31.787 64.162 20.238 15.655 44.761 23.517 74.363 23.517h108.684v-41.247H647.193c-13.464 0-25.56-4.536-35.135-13.255-9.631-8.779-14.859-20.581-14.859-33.778 0-12.581 5.039-23.796 14.275-31.968 9.314-8.236 21.587-12.278 35.72-12.278h35.034c2.485-.006 4.769 1.462 5.841 3.766a6.794 6.794 0 0 1-.793 7.039l-39.704 51.395h60.666l42.145-57.722v-45.717H641.999z" fill="gray"/></svg>