<svg xmlns="http://www.w3.org/2000/svg" viewBox="0 0 151.735 257.441"><path d="M101.993 251.265c8.572-4.406 14.85-11.204 20.048-19.125 8.96-13.66 15.213-28.566 20.145-44.062 4.069-12.777 6.959-25.832 8.421-39.159.671-6.132.731-12.334 1.1-18.501.065-1.129.005-8.31-.036-9.369-1.18-31.798-9.061-61.805-24.193-89.826-4.523-8.386-9.984-16.101-17.961-21.688C101.202 3.711 91.939.736 81.864.085 80.805.02 76.328-.016 75.335.004 62.636.222 50.807 3.828 39.567 9.44c-11.799 5.9-22.177 13.7-30.381 24.148-3.564 4.539-6.318 9.48-7.165 15.344C.77 57.575 5.45 66.495 13.453 70.091c6.312 2.839 12.177 6.258 16.872 11.472a34.917 34.917 0 0 1 6.837 11.325c6.056 16.353 7.896 33.179 4.927 50.374-1.347 7.816-3.565 15.48-6.999 22.671-4.428 9.283-12.057 15.143-21.375 18.939-3.943 1.608-7.533 3.535-9.898 7.246-4.745 7.458-4.981 15.147-1.175 23.019 3.242 6.712 8.083 12.208 13.499 17.195 13.201 12.167 28.524 20.351 46.198 23.744 13.675 2.627 27.023 1.689 39.654-4.811zm34.808-155.292h-.005l-.005.002.005-.002h.005zm.388 8.872h.01l.01.005-.02-.005zm-.406 14.921l.008-.005.007.02-.01.01-.005-.025z" fill="#3e3c3c"/><path d="M80.686 98.404c-22.133-.039-41.11-17.389-41.144-40.982-.031-23.152 18.209-40.927 40.979-41.188 22.488-.257 41.215 18.413 41.299 40.918.086 22.703-18.287 41.129-41.134 41.252zm39.76-40.977c.03-21.983-17.741-39.815-39.713-39.852-21.941-.035-40.045 17.86-39.912 39.685.135 22.142 17.325 39.864 39.946 39.809 23.286-.057 39.731-18.886 39.679-39.642z" fill="#4d4c48"/><path d="M111.424 228.238c.762-4.852.333-9.637-.338-14.447-3.015-21.616-13.267-39.537-28.207-55.013-6.006-6.223-13.221-9.041-22.066-7.664-11.714 1.814-20.009 12.767-17.739 24.38.63 3.227 2.143 6.338 3.595 9.339 2.214 4.593 5.013 8.925 7.055 13.589 4.82 11.013 9.435 22.121 13.947 33.26 3.999 9.858 10.811 14.714 21.476 14.916 11.487.216 20.532-7.273 22.277-18.36zm-41.989 5.334a12.964 12.964 0 0 1-.73-1.563c-2.521-6.404-4.785-12.914-7.609-19.177-4.049-8.995-8.466-17.825-12.878-26.654-2.26-4.518-4.705-8.864-4.665-14.174.086-10.675 7.978-19.076 18.622-20.24 9.263-1.014 16.171 2.919 21.99 9.444 9.091 10.19 16.882 21.229 21.531 34.243 2.309 6.479 5.365 18.783 5.214 27.158.313 5.91-1.583 11.108-5.733 16.338-3.374 4.251-9.893 6.132-14.835 6.631-.368.035-.736.05-1.104.05-5.487-.024-13.509-.756-19.803-12.056z" fill="#1a1b13"/><path d="M89.238 245.628c-5.486-.024-13.509-.756-19.802-12.056a12.964 12.964 0 0 1-.73-1.563c-2.521-6.404-4.785-12.914-7.609-19.177-4.049-8.995-8.466-17.825-12.878-26.654-2.26-4.518-4.705-8.864-4.665-14.174.086-10.675 7.978-19.076 18.622-20.24 9.263-1.014 16.171 2.919 21.99 9.444 9.091 10.19 16.882 21.229 21.531 34.243 2.309 6.479 5.365 18.783 5.214 27.158.313 5.91-1.583 11.108-5.733 16.338-3.374 4.251-9.893 6.132-14.835 6.631-.37.036-.737.05-1.105.05zM113.295 194.055c-2.657-5.719-5.168-11.507-7.685-17.291-.338-.776-.363-1.689-.434-2.027.035-3.807 2.163-6.363 5.456-7.09 3.232-.711 5.793.515 7.216 3.651 2.44 5.375 4.861 10.766 7.16 16.206 2.083 4.927-.081 9.258-4.836 9.999-2.863.449-5.652-.802-6.877-3.448z" fill="#1e1e18"/><path d="M120.494 57.423c.052 20.756-16.392 39.584-39.678 39.641-22.621.055-39.811-17.667-39.946-39.809-.133-21.825 17.972-39.72 39.912-39.684 21.972.036 39.743 17.869 39.712 39.852zm-7.543-.036c.002-17.748-14.431-32.246-32.14-32.284-17.681-.039-32.52 14.53-32.415 32.073.104 17.135 13.083 32.386 32.5 32.35 18.853-.036 32.146-15.495 32.055-32.139z" fill="#323030"/><path d="M73.576 231.021c-3.188-7.982-6.066-16.101-9.581-23.932-3.736-8.325-7.992-16.423-12.162-24.547-3.187-6.308-3.041-8.391-2.204-13.221.61-3.51 4.009-9.021 8.618-11.204 2.541-1.206 5.359-1.745 8.158-1.478 6.369.615 10.095 3.913 12.818 8.072 10.009 15.284 17.25 31.868 23.473 48.952 1.074 2.95 2.284 5.95 2.718 9.026 1.422 10.06-5.718 18.294-15.909 18.712-7.831.32-12.994-3.024-15.929-10.38z" fill="#363434"/><path d="M120.75 193.297c-1.544.836-3.372.457-4.39-1.892-2.428-5.075-4.786-10.185-7.152-15.29-.224-.481-.419-.997-.506-1.517-.25-1.496.65-3.079 2.032-3.548 1.472-.499 2.623.07 3.506 1.253.277.371 5.064 11.154 7.236 16.127 1.323 2.771.318 4.304-.726 4.867z" fill="#c6c7cc"/><path d="M80.796 32.214c13.954.017 25.032 11.18 25.002 25.194-.029 13.743-11.35 25.041-25.065 25.013-13.857-.028-25.188-11.363-25.168-25.176.022-13.88 11.279-25.048 25.231-25.031zm23.639 25.126c.014-13.322-10.287-23.708-23.563-23.759-13.363-.051-23.908 10.369-23.931 23.648-.022 13.282 10.504 23.811 23.814 23.818 13.154.008 23.667-10.517 23.68-23.707z" fill="#262525"/><path d="M65.289 161.993c6.333 0 11.467 5.134 11.467 11.468 0 6.333-5.134 11.468-11.467 11.468-6.334 0-11.468-5.135-11.468-11.468 0-6.334 5.134-11.468 11.468-11.468zM55.08 173.461c0 5.638 4.57 10.208 10.209 10.208 5.638 0 10.208-4.57 10.208-10.208s-4.57-10.209-10.208-10.209c-5.639 0-10.209 4.571-10.209 10.209zM78.324 188.361c6.333 0 11.468 5.135 11.468 11.468 0 6.334-5.134 11.468-11.468 11.468s-11.467-5.134-11.467-11.468c-.001-6.334 5.133-11.468 11.467-11.468zm-10.209 11.467c0 5.639 4.57 10.209 10.208 10.209s10.208-4.57 10.208-10.209c0-5.638-4.57-10.208-10.208-10.208s-10.208 4.571-10.208 10.208zM89.17 215.428c6.333 0 11.468 5.135 11.468 11.468s-5.134 11.468-11.468 11.468-11.468-5.135-11.468-11.468 5.135-11.468 11.468-11.468zm-10.208 11.468c0 5.638 4.571 10.208 10.208 10.208 5.638 0 10.208-4.57 10.208-10.208s-4.57-10.208-10.208-10.208-10.208 4.57-10.208 10.208z" fill="#181811"/><path d="M65.759 177.774l-.408-.854.896-1.378-1.548-3.242-1.616-.132-.426-.893 5.666.488.601 1.258-3.165 4.753zm1.029-2.906l1.271-1.879-.263-.552-2.223-.113 1.215 2.544zM79.494 202.182c.225.239.563.274 1.011.113l.387-.173c.754-.355.92-.975.507-1.849l-1.866-3.953-.746.342-3.011 1.422-.75.364 1.866 3.952c.413.875 1 1.138 1.75.783l.379-.188c.332-.207.49-.475.473-.813zm-1.828-.074l-.242-.513-1.292-2.757 1.128-.533 1.316 2.786.218.483c.157.333.048.588-.322.764-.378.179-.648.103-.806-.23zm1.891-.894l-1.542-3.265 1.129-.533 1.542 3.266c.157.333.044.59-.335.769-.374.177-.636.097-.794-.237zM90.951 227.206l-.791-1.92c-.524-1.287-.992-.964-2.019-.543s-1.585.516-1.06 1.799l1.391 3.396-.77.315-1.393-3.39c-.737-1.794-.028-2.249 1.512-2.88s2.369-.813 3.104.967l1.397 3.41-.764.313-.607-1.467z" fill="#933c29"/><path d="M82.297 147.952v-6.437h1.505v4.411c.97-.32 1.76-.586 2.552-.843 1.976-.64 3.967-1.237 5.918-1.94.473-.17 1.058-.63 1.155-1.049.164-.707-.569-.937-1.176-1.133-3.027-.979-6.045-1.985-9.083-2.933-.713-.223-.954-.547-.935-1.266.054-1.975.005-3.951.022-5.927.018-2.002 1.328-3.311 3.4-3.355 1.866-.039 3.735-.042 5.601 0 2.105.049 3.385 1.316 3.414 3.338.025 1.781.005 3.563.005 5.407H93.09v-4.575c0-2.147-.518-2.64-2.782-2.64-1.409 0-2.817-.006-4.226.002-1.507.009-2.241.695-2.256 2.113-.012 1.151-.002 2.303-.002 3.514h4.914v-2.931h1.529v4.566h-6.474l-.029.249c2.976.966 5.952 1.934 8.929 2.896 1.702.551 2.394 1.564 2.142 3.2-.14.91-.67 1.584-1.571 1.882-3.574 1.183-7.161 2.33-10.744 3.485-.053.021-.125-.016-.223-.034zM82.264 107.614h1.567c0 1.717-.019 3.401.006 5.085.021 1.409 1.043 2.462 2.381 2.513 1.309.049 2.428-.993 2.525-2.378.04-.563-.015-1.132.046-1.692.093-.861.905-1.489 1.843-1.488.951 0 1.801.622 1.827 1.491.054 1.841.017 3.685.017 5.577h-1.55v-2.801-2.612a89.633 89.633 0 0 1-.521-.005c-.023.516-.055 1.032-.067 1.548-.044 1.946-1.179 3.352-3.105 3.837-2.352.593-4.854-1.095-4.951-3.42-.079-1.844-.018-3.694-.018-5.655z" fill="#e0e0e0"/><path d="M84.446 107.599h1.619v5.433l.455.001c.022-.554.056-1.107.065-1.662.027-1.555.771-2.712 2.204-3.394 1.458-.694 2.919-.588 4.26.327.919.628 1.543 1.494 1.578 2.586.061 1.908.017 3.82.017 5.805h-1.553c0-1.715.029-3.43-.008-5.145-.037-1.703-1.626-2.808-3.227-2.294-.963.31-1.609 1.192-1.676 2.324-.031.532.008 1.069-.046 1.598-.088.858-.896 1.509-1.822 1.519s-1.826-.639-1.85-1.477c-.052-1.841-.016-3.686-.016-5.621zM94.623 126.688h-1.531v-5.061c-.002-1.768-.626-2.384-2.457-2.396a325.464 325.464 0 0 0-4.419.007c-1.7.013-2.385.666-2.389 2.269-.005 1.686-.001 3.372-.001 5.121h-1.572c0-1.258-.002-2.497.001-3.736.002-.783-.026-1.569.029-2.349.102-1.438 1.446-2.745 2.949-2.782 2.159-.054 4.321-.05 6.479-.001 1.382.032 2.806 1.199 2.88 2.521.118 2.116.031 4.241.031 6.407zM82.332 138.271c3.373 1.092 6.673 2.153 9.964 3.24a.997.997 0 0 1 .56.536c.043.119-.214.455-.401.518-2.638.887-5.287 1.743-8.008 2.632v-3.688l1.087-.113.057-.158c-.61-.211-1.219-.426-1.832-.63-1.625-.54-1.625-.538-1.427-2.337zm3.897 3.151v1.294l1.683-.543-.014-.224-1.669-.527zM86.387 132.789l.318-1.088h1.392v2.392h-3.646c0-1.223-.069-2.438.047-3.638.03-.312.631-.802.988-.817 1.962-.082 3.93-.058 5.895-.035.689.008 1.093.411 1.099 1.077.018 1.816.006 3.633.006 5.531h-1.559c0-1.366-.039-2.707.014-4.045.033-.82-.267-1.138-1.132-1.085-.914.055-1.834.003-2.751.015-1.093.013-1.357.518-.671 1.693z" fill="#e0e0e0"/><path d="M86.123 121.448c-.315 1.688.015 3.436-.183 5.186h-1.486c0-2.001-.048-3.963.049-5.919.016-.312.653-.779 1.064-.85.789-.136 1.621-.04 2.519-.04v5.568h-1.47V121.5a74.513 74.513 0 0 0-.493-.052zM92.472 126.689h-1.477c-.247-1.736.158-3.517-.219-5.223a55.09 55.09 0 0 0-.406.017v3.912h-1.542v-5.554c.905 0 1.85-.078 2.766.042.328.042.827.553.84.865.076 1.963.038 3.93.038 5.941zM121.177 174.741a1.501 1.501 0 0 1-.124-.48.956.956 0 0 1 .052-.402.84.84 0 0 1 .203-.32c.092-.092.204-.168.337-.229l.185.436-.197.156-.101.197-.015.222.064.229.106.191.128.129.142.057.147-.021.112-.088.046-.15a.938.938 0 0 0-.009-.231 4.679 4.679 0 0 0-.059-.335 2.41 2.41 0 0 1-.043-.4.957.957 0 0 1 .04-.307l.132-.223a.66.66 0 0 1 .23-.152.652.652 0 0 1 .306-.056.695.695 0 0 1 .298.086.978.978 0 0 1 .263.217c.081.093.148.206.205.339.058.137.094.271.104.4a.945.945 0 0 1-.036.363.823.823 0 0 1-.176.303.933.933 0 0 1-.316.224l-.183-.432c.261-.147.328-.372.201-.671a.694.694 0 0 0-.216-.304l-.252-.03-.08.064-.036.111v.168l.038.232.044.242.03.25-.006.244-.062.226-.134.192a.705.705 0 0 1-.229.146.761.761 0 0 1-.333.063.8.8 0 0 1-.318-.09.98.98 0 0 1-.278-.223 1.286 1.286 0 0 1-.21-.343zM124.544 177.025l-.319-.748-1.993.845-.191-.451 1.993-.846-.316-.746.415-.175.826 1.945zM123.575 180.285l-.213-.501.577-.557-.358-.842-.795.041-.202-.476 2.801-.097.182.428-1.992 2.004zm.686-1.358l.64-.616-.881.048.241.568zM124.571 182.632l-.205-.484.558-.508.097-.119.058-.139.013-.148-.036-.151-.205-.482-.968.411-.191-.449 2.408-1.022.458 1.079.074.186.051.176.015.175-.03.179-.07.151-.101.13-.126.105-.144.08a.71.71 0 0 1-.79-.136.896.896 0 0 1-.264.408l-.602.558zm.694-2.208l.253.598.104.2.115.118.134.038.161-.039c.107-.045.172-.111.194-.2.021-.088.003-.201-.056-.339l-.273-.645-.632.269zM127.492 183.972l-.317-.749-1.994.847-.191-.452 1.993-.845-.316-.746.415-.176.825 1.945zM97.065 185.446l-.317-.749-1.994.847-.192-.451 1.994-.848-.316-.745.414-.176.825 1.946zM96.108 188.736l-.205-.484.558-.508.097-.12.058-.138.013-.148-.036-.152-.205-.482-.968.412-.191-.449 2.408-1.023.458 1.08.074.186.051.176.015.174-.03.18-.07.15-.101.131-.126.105-.144.079a.71.71 0 0 1-.422.054.735.735 0 0 1-.367-.19c-.035.136-.123.271-.265.409l-.602.558zm.694-2.209l.253.598.104.201.115.117.134.038.161-.038c.107-.045.172-.112.194-.2.021-.089.003-.201-.055-.34l-.273-.644-.633.268zM96.297 189.176l2.409-1.023.19.447-2.409 1.023zM97.134 191.255a1.352 1.352 0 0 1-.114-.515 1.158 1.158 0 0 1 .388-.88c.129-.122.287-.223.474-.302.19-.081.375-.126.552-.134.176-.008.341.016.491.072.151.057.286.144.403.262.119.117.215.262.288.434.061.143.096.287.109.428.012.143 0 .277-.036.404s-.094.242-.176.346a.998.998 0 0 1-.314.258l-.196-.461.175-.139.095-.186.014-.225-.07-.252a.777.777 0 0 0-.177-.262.634.634 0 0 0-.257-.153c-.097-.032-.206-.043-.324-.032a1.24 1.24 0 0 0-.38.1 1.228 1.228 0 0 0-.332.202.842.842 0 0 0-.204.257.681.681 0 0 0-.072.293.768.768 0 0 0 .063.313c.064.15.141.269.23.357a.714.714 0 0 0 .319.181l.253-.106-.253-.597.413-.176.442 1.04-1.299.553-.146-.346.148-.131a.924.924 0 0 1-.284-.231 1.32 1.32 0 0 1-.223-.372zM98.275 193.947a1.38 1.38 0 0 1-.114-.516 1.176 1.176 0 0 1 .388-.881 1.59 1.59 0 0 1 .474-.301c.19-.081.374-.125.552-.134.176-.009.341.017.491.073.152.056.286.143.403.26.119.118.215.262.288.434.062.145.097.287.109.43.012.143 0 .276-.036.403a1 1 0 0 1-.176.347 1 1 0 0 1-.314.258l-.196-.462.175-.14.094-.184.014-.225-.07-.252a.79.79 0 0 0-.177-.264.654.654 0 0 0-.258-.152c-.097-.032-.206-.043-.324-.032a1.164 1.164 0 0 0-.38.101 1.227 1.227 0 0 0-.332.201.845.845 0 0 0-.205.257.667.667 0 0 0-.071.294.763.763 0 0 0 .063.312 1.1 1.1 0 0 0 .229.356.712.712 0 0 0 .319.182l.253-.107-.253-.596.413-.176.441 1.041-1.299.551-.146-.346.148-.13a.924.924 0 0 1-.284-.231 1.52 1.52 0 0 1-.219-.371zM99.783 197.392l-.781-1.84 2.408-1.023.759 1.789-.414.175-.569-1.339-.544.231.533 1.253-.412.174-.532-1.252-.625.264.591 1.392zM100.866 199.943l-.206-.483.558-.509.097-.119.058-.139.013-.148-.036-.151-.205-.481-.968.41-.19-.449 2.408-1.021.458 1.078.074.186.05.176.015.176-.03.178-.07.152-.101.129-.126.106-.144.079a.71.71 0 0 1-.422.054.738.738 0 0 1-.368-.19.894.894 0 0 1-.265.408l-.6.558zm.693-2.207l.254.598.104.199.114.118.134.038.161-.039c.107-.045.173-.111.194-.199.021-.088.003-.201-.056-.34l-.273-.645-.632.27zM138.921 96.884l-.097-.606 2.126-.342c-.897-.155-1.346-.23-2.244-.379l-.087-.524c.802-.428 1.202-.644 2.002-1.079l-2.123.364-.104-.603 3.313-.579.142.824c-.892.476-1.338.711-2.232 1.179.998.155 1.497.235 2.495.399l.131.822-3.322.524zM139.422 100.262a159.4 159.4 0 0 0-.374-2.56l3.325-.508c.155 1.011.229 1.518.37 2.531l-.573.08c-.105-.756-.16-1.134-.273-1.89l-.752.113c.105.705.156 1.057.255 1.763l-.568.08c-.099-.704-.15-1.055-.255-1.757l-.864.129c.116.776.172 1.165.28 1.942-.228.029-.342.045-.571.077zM139.657 102.425a1.768 1.768 0 0 1 .038-.682 1.495 1.495 0 0 1 .779-.967c.201-.108.431-.181.689-.216.264-.036.506-.028.729.023.222.051.417.139.585.263.168.125.306.283.413.473.107.191.176.409.208.651.026.205.021.398-.014.582a1.472 1.472 0 0 1-.186.497 1.282 1.282 0 0 1-.339.372 1.25 1.25 0 0 1-.479.209 144.4 144.4 0 0 0-.079-.651.692.692 0 0 0 .264-.112l.182-.198c.046-.081.078-.173.094-.278s.017-.219.001-.343a1.045 1.045 0 0 0-.129-.396.866.866 0 0 0-.267-.285 1.05 1.05 0 0 0-.392-.155 1.567 1.567 0 0 0-.505-.007 1.56 1.56 0 0 0-.481.138 1.092 1.092 0 0 0-.34.25.888.888 0 0 0-.19.342 1.006 1.006 0 0 0-.028.412c.027.21.079.385.159.526a.93.93 0 0 0 .332.342l.35-.043-.104-.837.574-.073c.075.586.111.878.181 1.464l-1.802.216-.059-.482.23-.109a1.2 1.2 0 0 1-.271-.389 1.87 1.87 0 0 1-.143-.537zM140.293 107.533c-.028-.28-.042-.42-.072-.7.367-.187.551-.281.917-.47-.05-.473-.076-.709-.129-1.182-.398-.098-.597-.146-.996-.242l-.077-.665c1.397.359 2.095.543 3.491.92l.067.609a215.83 215.83 0 0 1-3.201 1.73zm1.356-1.421c.406-.21.609-.315 1.015-.527-.441-.11-.661-.165-1.103-.272.036.319.054.478.088.799zM142.389 111.94c-1.13.087-1.736-.443-1.834-1.59-.038-.444-.058-.666-.099-1.109l3.35-.307c.042.451.062.677.1 1.128.101 1.167-.411 1.793-1.517 1.878zm-.05-.648a1.88 1.88 0 0 0 .451-.087c.131-.044.24-.112.326-.204s.148-.209.185-.355c.038-.145.048-.325.03-.539l-.042-.484-2.199.194.042.479c.019.21.059.383.121.518a.805.805 0 0 0 .247.317.834.834 0 0 0 .365.148c.141.023.298.027.474.013zM140.935 115.638c-.016-.271-.023-.407-.041-.678l.894-.379.169-.106.128-.144.08-.176.02-.201-.046-.68-1.348.094c-.018-.251-.026-.377-.045-.628l3.354-.246c.045.615.066.922.106 1.537.006.092.01.18.012.263l-.014.24-.055.223-.113.208-.149.157-.179.115-.198.076-.208.033a.91.91 0 0 1-.536-.119.961.961 0 0 1-.362-.394c-.1.151-.266.28-.496.384l-.973.421zm1.78-2.404c.024.338.035.507.057.845.008.114.022.211.042.292l.089.195.146.105.212.023c.149-.009.255-.063.32-.163.064-.099.09-.247.077-.444-.024-.366-.036-.549-.062-.915l-.881.062zM141.004 116.894l-.033-.627 3.358-.184.034.638-3.359.173zM144.516 120.37a230.354 230.354 0 0 0-3.409-1.204l-.023-.581a241.1 241.1 0 0 0 3.299-1.477l.033.687c-.986.422-1.479.631-2.467 1.044 1.019.333 1.528.502 2.545.845l.022.686zM141.229 123.478c-.018-1.032-.03-1.548-.061-2.58l3.362-.103c.031 1.02.043 1.53.061 2.551l-.578.01c-.013-.762-.021-1.143-.042-1.904l-.76.021c.02.71.027 1.066.04 1.776l-.573.01c-.013-.708-.021-1.063-.041-1.771l-.873.024c.021.783.03 1.174.043 1.957l-.578.009zM143.46 127.684a.696.696 0 0 0 .271-.071l.207-.163a.7.7 0 0 0 .131-.237.93.93 0 0 0 .046-.292.995.995 0 0 0-.076-.398.803.803 0 0 0-.227-.3 1.044 1.044 0 0 0-.37-.19 1.75 1.75 0 0 0-.503-.064c-.189 0-.357.024-.502.069-.146.045-.27.108-.369.19a.81.81 0 0 0-.228.295.933.933 0 0 0-.079.387.94.94 0 0 0 .045.298l.135.235.219.161a.917.917 0 0 0 .3.079l-.004.646a1.511 1.511 0 0 1-.534-.146 1.25 1.25 0 0 1-.636-.735 1.63 1.63 0 0 1-.083-.532c0-.244.041-.462.123-.658.082-.196.197-.362.347-.5.15-.138.332-.246.545-.322.213-.076.452-.115.717-.117s.505.035.719.109.398.18.551.32c.152.14.27.309.352.507.083.197.124.418.124.664 0 .186-.03.36-.089.525a1.332 1.332 0 0 1-.636.748c-.15.081-.317.129-.5.146l.004-.654zM144.637 130.533a1.72 1.72 0 0 1-.138.661 1.508 1.508 0 0 1-.92.841 1.992 1.992 0 0 1-.713.103 1.984 1.984 0 0 1-.701-.139 1.638 1.638 0 0 1-.54-.351 1.512 1.512 0 0 1-.344-.523c-.081-.2-.118-.42-.114-.659.005-.239.05-.457.138-.653.087-.198.208-.368.362-.51.154-.142.338-.251.552-.329.214-.077.451-.115.709-.112.262.003.499.047.711.131.212.084.394.201.543.35a1.5 1.5 0 0 1 .342.528c.081.203.118.424.113.662zm-2.911-.058a.979.979 0 0 0 .072.4.882.882 0 0 0 .226.317c.099.09.221.161.365.213.144.052.309.08.493.085a1.55 1.55 0 0 0 .499-.063c.147-.046.271-.111.373-.198a.865.865 0 0 0 .235-.308.964.964 0 0 0 .086-.392.97.97 0 0 0-.073-.402.894.894 0 0 0-.225-.322 1.067 1.067 0 0 0-.365-.214 1.5 1.5 0 0 0-.492-.081c-.185-.003-.35.02-.496.067a1.09 1.09 0 0 0-.373.199c-.103.085-.182.187-.238.306s-.084.25-.087.393zM141.059 135.462l.026-.594c.924-.563 1.385-.85 2.305-1.428l-2.248-.077.02-.607 3.362.104-.02.607c-.922.579-1.384.865-2.31 1.43l2.251.095-.027.622c-1.343-.06-2.014-.09-3.359-.152zM143.664 138.896c.027-.426.04-.639.063-1.064l-2.781-.158.035-.631 2.782.149.054-1.061.578.028a171.416 171.416 0 0 1-.153 2.771l-.578-.034zM140.64 142.142l.053-.677.937-.253.182-.082.147-.124.103-.164.047-.196.048-.681-1.348-.092.042-.629 3.356.219c-.04.615-.061.922-.106 1.537a7.87 7.87 0 0 1-.024.261l-.047.236-.085.214-.14.19-.17.135-.193.089-.207.048-.21.004a.91.91 0 0 1-.515-.191.97.97 0 0 1-.305-.439c-.12.135-.302.24-.544.312-.408.114-.613.171-1.021.283zm2.094-2.137l-.06.845c-.008.114-.008.212.001.295l.062.205.13.124.207.052c.149.012.262-.027.339-.117.077-.089.124-.232.138-.429.027-.365.04-.549.065-.914l-.882-.061zM143.864 144.533a1.74 1.74 0 0 1-.185.65 1.514 1.514 0 0 1-.978.773c-.221.06-.46.077-.719.051-.255-.025-.485-.088-.689-.188s-.375-.23-.513-.389-.24-.341-.306-.547-.087-.429-.066-.666c.022-.238.083-.452.185-.643.101-.191.233-.353.397-.483s.355-.227.575-.289c.219-.062.458-.082.715-.062.261.021.494.083.7.182.206.101.378.229.517.389s.24.344.304.552c.064.209.085.433.063.67zm-2.899-.266c-.013.144.001.278.044.404s.11.237.203.333c.092.097.208.177.349.238.14.063.302.103.486.12.185.019.353.01.502-.026.149-.035.278-.092.386-.17s.193-.176.257-.291a.975.975 0 0 0 .114-.386.999.999 0 0 0-.043-.407.896.896 0 0 0-.202-.337 1.05 1.05 0 0 0-.349-.24 1.502 1.502 0 0 0-.485-.116 1.556 1.556 0 0 0-.5.031 1.105 1.105 0 0 0-.387.173.882.882 0 0 0-.259.288.946.946 0 0 0-.116.386zM140.004 148.663c.1-.867.146-1.301.236-2.169l3.346.346-.067.639-2.77-.295c-.066.618-.1.928-.171 1.546l-.574-.067zM143.118 150.949c-.065.524-.099.786-.168 1.31-.015.117-.037.23-.064.341a1.786 1.786 0 0 1-.107.309 1.254 1.254 0 0 1-.158.258l-.217.188a.854.854 0 0 1-.286.104c-.107.02-.228.02-.363.001-.354-.049-.605-.195-.753-.437-.148-.242-.193-.577-.136-1.008l.09-.694-1.254-.16.079-.626c1.334.164 2.002.248 3.337.414zm-1.59.444l-.092.708a1.193 1.193 0 0 0-.007.301l.067.213.136.133.204.063a.44.44 0 0 0 .238-.022l.156-.125.094-.203.05-.25.091-.697-.937-.121zM138.925 156.607l.108-.697 1.007-.222c.072-.472.106-.707.175-1.178l-.901-.487.094-.662c1.26.701 1.889 1.057 3.144 1.775l-.09.606c-1.416.356-2.123.529-3.537.865zm1.671-1.035c.446-.101.669-.151 1.116-.254l-.998-.543c-.046.319-.07.478-.118.797zM140.07 160.09c-1.117-.195-1.573-.86-1.385-1.999.073-.44.109-.66.179-1.101l3.322.528c-.071.449-.108.673-.182 1.121-.192 1.159-.842 1.642-1.934 1.451zm.11-.642c.167.028.32.037.458.026a.791.791 0 0 0 .366-.117.803.803 0 0 0 .267-.3c.072-.132.126-.304.162-.517l.079-.48-2.179-.354-.078.476c-.035.209-.038.387-.011.533s.081.27.162.369c.08.098.186.176.317.233.132.058.284.101.457.131z" fill="#e0e0e0"/><path fill="#894b52" d="M119.869 57.318l-6.193-2.847v5.693z"/><circle cx="105.13" cy="31.198" r="1.333" fill="#fffffd"/><circle cx="105.13" cy="83.436" r="1.333" fill="#fffffd"/><circle cx="56.233" cy="83.436" r="1.333" fill="#fffffd"/><circle cx="56.233" cy="31.198" r="1.333" fill="#fffffd"/><path fill="#894b52" d="M80.682 18.13l-2.846 6.193h5.692zM41.494 57.318l6.193 2.846v-5.693zM80.862 96.505l2.846-6.193h-5.693z"/><path fill="#292b27" d="M95.687 42.288l-3.683 1.764 1.919 1.918zM65.81 42.288l1.764 3.682 1.92-1.918zM65.677 72.079l3.682-1.763-1.919-1.92zM95.514 72.347l-1.763-3.683-1.919 1.919z"/><path d="M80.682 79.432a104.175 104.175 0 0 1-3.214-.04c-1.624-.051-2.355-.893-2.476-2.542-.156-2.133-.357-4.286-.832-6.364-.816-3.6-3.167-5.89-6.762-6.691-1.956-.438-3.974-.64-5.971-.812-2.173-.187-2.788-.646-2.858-2.763a85.08 85.08 0 0 1-.052-2.903c.001-.969.018-1.937.052-2.903.07-2.118.686-2.577 2.858-2.763 1.997-.171 4.015-.373 5.971-.812 3.595-.802 5.945-3.091 6.762-6.691.475-2.077.676-4.23.832-6.363.121-1.649.852-2.491 2.476-2.542 1.067-.034 2.142-.04 3.214-.04s2.146.006 3.214.04c1.624.05 2.355.893 2.476 2.542.156 2.133.358 4.286.832 6.363.816 3.601 3.167 5.89 6.762 6.691 1.957.439 3.974.641 5.97.812 2.173.187 2.789.646 2.859 2.763.034.966.05 1.935.052 2.903a85.08 85.08 0 0 1-.052 2.903c-.07 2.118-.686 2.577-2.859 2.763-1.997.171-4.014.373-5.97.812-3.595.802-5.945 3.091-6.762 6.691-.474 2.078-.676 4.231-.832 6.364-.121 1.649-.853 2.491-2.476 2.542-1.068.034-2.142.039-3.214.04z" fill="#1a1b13"/><path fill="#26261f" d="M75.922 36.343h9.435v41.948h-9.435z"/><path fill="#26261f" d="M59.708 52.6h41.948v9.435H59.708z"/><path d="M80.684 61.964a4.647 4.647 0 1 1-.005-9.293 4.647 4.647 0 0 1 .005 9.293z" fill="#1a1b15"/><path d="M73.022 203.494a1.063 1.063 0 1 1 0-2.126 1.063 1.063 0 0 1 0 2.126z" fill="#1e1e18"/></svg>