<svg xmlns="http://www.w3.org/2000/svg" viewBox="0 0 171.934 117.522"><linearGradient id="a" gradientUnits="userSpaceOnUse" y1="58.761" x2="171.934" y2="58.761"><stop offset="0" stop-color="#282928"/><stop offset=".07" stop-color="#121519"/><stop offset=".5" stop-color="#141313"/><stop offset=".93" stop-color="#121519"/><stop offset="1" stop-color="#282928"/></linearGradient><path d="M167.251 117.522H4.683c-4.683 0-4.683 0-4.683-4.683V4.683A4.696 4.696 0 0 1 4.683 0h162.568a4.696 4.696 0 0 1 4.683 4.683v108.156c0 4.766 0 4.683-4.683 4.683z" fill="url(#a)"/><path d="M146.066 3.345v94.33a5.366 5.366 0 0 1-3.554 5.039 5.336 5.336 0 0 1-1.797.312H32.112a5.356 5.356 0 0 1-2.546-.646 5.366 5.366 0 0 1-2.805-4.705V3.345c0-1.262.442-2.426 1.182-3.345h116.942a5.323 5.323 0 0 1 1.181 3.345z" fill="#25241e"/><path d="M144.884 0H27.942a5.318 5.318 0 0 0-1.182 3.345v94.33a5.366 5.366 0 0 0 3.554 5.039 5.336 5.336 0 0 0 1.797.312h108.602a5.356 5.356 0 0 0 2.546-.646 5.366 5.366 0 0 0 2.805-4.705V3.345A5.304 5.304 0 0 0 144.884 0zM30.515 102.38h-.335a3.993 3.993 0 0 1-.401-.192 5.35 5.35 0 0 1-2.792-4.687v-.696h3.528v5.575zm0-5.91h-3.528v-5.316h3.528v5.316zm0-5.65h-3.528v-5.276h3.528v5.276zm5.353.334v5.316h-5.093v-5.316h5.093zm-5.094-.334v-5.276h5.093v5.276h-5.093zm5.094 5.985v5.575h-5.093v-5.575h5.093zm104.641 6.025H32.317c-.375 0-.745-.04-1.097-.116h110.386a5.229 5.229 0 0 1-1.097.116zM41.255 91.154v5.316h-5.129v-5.316h5.129zm-5.129-.334v-5.276h5.129v5.276h-5.129zm5.129 5.985v5.575h-5.129v-5.575h5.129zm5.276-5.651v5.316h-5.018v-5.316h5.018zm-5.017-.334v-5.276h5.018v5.276h-5.018zm5.017 5.985v5.575h-5.018v-5.575h5.018zm5.281-5.651v5.316h-5.018v-5.316h5.018zm-5.017-.334v-5.276h5.018v5.276h-5.018zm5.017 5.985v5.575h-5.018v-5.575h5.018zm5.201-5.651v5.316h-4.942v-5.316h4.942zm-4.942-.334v-5.276h4.942v5.276h-4.942zm4.942 5.985v5.575h-4.942v-5.575h4.942zm5.187-5.651v5.316h-4.924v-5.316H62.2zm-4.924-.334v-5.276H62.2v5.276h-4.924zm4.924 5.985v5.575h-4.924v-5.575H62.2zm5.352-5.651v5.316h-5.093v-5.316h5.093zm-5.094-.334v-5.276h5.093v5.276h-5.093zm5.094 5.985v5.575h-5.093v-5.575h5.093zm5.387-5.651v5.316H67.81v-5.316h5.129zm-5.129-.334v-5.276h5.129v5.276H67.81zm5.129 5.985v5.575H67.81v-5.575h5.129zm5.276-11.262v5.276h-5.018v-5.276h5.018zm-5.017-.334v-5.388h5.018v5.388h-5.018zm5.017 5.945v5.316h-5.018v-5.316h5.018zm0 5.651v5.575h-5.018v-5.575h5.018zm5.281-11.262v5.276h-5.018v-5.276h5.018zm-5.017-.334v-5.388h5.018v5.388h-5.018zm5.017 5.945v5.316h-5.018v-5.316h5.018zm0 5.651v5.575h-5.018v-5.575h5.018zm5.201-11.262v5.276h-4.942v-5.276h4.942zm-4.942-.334v-5.388h4.942v5.388h-4.942zm4.942 5.945v5.316h-4.942v-5.316h4.942zm0 5.651v5.575h-4.942v-5.575h4.942zm4.852-11.262v5.276H88.96v-5.276h4.589zm-4.589-.334v-5.388h4.589v5.388H88.96zm4.589 5.945v5.316H88.96v-5.316h4.589zm0 5.651v5.575H88.96v-5.575h4.589zm5.352-11.262v5.276h-5.093v-5.276h5.093zm-5.093-.334v-5.388h5.093v5.388h-5.093zm5.093 5.945v5.316h-5.093v-5.316h5.093zm0 5.651v5.575h-5.093v-5.575h5.093zm5.388-5.651v5.316H99.16v-5.316h5.129zm-5.129-.334v-5.276h5.129v5.276H99.16zm5.129 5.985v5.575H99.16v-5.575h5.129zm5.28-5.651v5.316h-5.018v-5.316h5.018zm-5.017-.334v-5.276h5.018v5.276h-5.018zm5.017 5.985v5.575h-5.018v-5.575h5.018zm5.277-5.651v5.316h-5.018v-5.316h5.018zm-5.018-.334v-5.276h5.018v5.276h-5.018zm5.018 5.985v5.575h-5.018v-5.575h5.018zm5.205-5.651v5.316h-4.946v-5.316h4.946zm-4.947-.334v-5.276h4.946v5.276h-4.946zm4.947 5.985v5.575h-4.946v-5.575h4.946zm5.106-5.651v5.316h-4.848v-5.316h4.848zm-4.848-.334v-5.276h4.848v5.276h-4.848zm4.848 5.985v5.575h-4.848v-5.575h4.848zm5.352-5.651v5.316h-5.089v-5.316h5.089zm-5.089-.334v-5.276h5.089v5.276h-5.089zm5.089 5.985v5.575h-5.089v-5.575h5.089zm5.392-5.651v5.316h-5.129v-5.316h5.129zm-5.129-.334v-5.276h5.129v5.276h-5.129zm5.129 5.985v5.575h-5.129v-5.575h5.129zm5.277-5.651v5.316h-5.018v-5.316h5.018zm-5.018-.334v-5.276h5.018v5.276h-5.018zm5.018 5.985v5.575h-5.018v-5.575h5.018zm4.66.696a5.349 5.349 0 0 1-2.792 4.687 4.223 4.223 0 0 1-.401.192h-1.209v-5.575h4.402v.696zm0-1.031h-4.402v-5.316h4.402v5.316zm0-5.65h-4.402v-5.276h4.402v5.276zm-4.402-5.611v-4.603h-.259v4.603h-5.018v-4.603h-.259v4.603h-5.129v-4.603h-.263v4.603h-5.089v-4.603h-.263v4.603h-4.848v-4.603h-.259v4.603h-4.946v-4.603h-.259v4.603h-5.018v-4.603h-.259v4.603h-5.018v-4.603h-.263v4.603H99.16v-5.388h4.295a13.167 13.167 0 0 0-.334-.335H99.16v-2.854a4.246 4.246 0 0 0-.259-.138v2.993h-5.093V74.54h-.259v4.946H88.96V73.68c-.089-.004-.174-.013-.263-.018v5.825h-4.942v-5.794a4.521 4.521 0 0 0-.259.022v5.771h-5.018V74.67l-.263.08v4.737h-5.018v-2.591c-.089.049-.174.103-.259.152v2.44h-3.234c-.116.112-.227.223-.335.335h3.568v5.388H67.81v-4.603h-.259v4.603h-5.093v-4.603H62.2v4.603h-4.924v-4.603h-.263v4.603h-4.942v-4.603h-.259v4.603h-5.018v-4.603h-.263v4.603h-5.018v-4.603h-.259v4.603h-5.129v-4.603h-.259v4.603h-5.093v-4.603h-.259v4.603h-3.528V3.528c0-1.258.437-2.417 1.177-3.332h116.496a5.275 5.275 0 0 1 1.177 3.332v81.681h-4.4z" fill="#b9b4ad"/><path d="M146.066 79.464v1.142h-41.889a12.627 12.627 0 0 0-.723-.785 13.167 13.167 0 0 0-.334-.335c-.143-.134-.29-.268-.437-.401a18.84 18.84 0 0 0-3.782-2.591c-2.828-1.499-6.231-2.498-9.941-2.814-.089-.004-.174-.013-.263-.018a29.601 29.601 0 0 0-5.201.053 27.533 27.533 0 0 0-5.018.954l-.263.08a23.07 23.07 0 0 0-5.018 2.145c-.089.049-.174.103-.259.152a18.671 18.671 0 0 0-2.796 2.038c-.147.134-.294.268-.437.401-.116.112-.227.223-.335.335-.254.254-.495.517-.723.785H26.76v-1.142H68.1c4.014-4.018 10.717-6.654 18.313-6.654 7.595 0 14.299 2.636 18.313 6.654h41.34z" fill="#b9b4ad"/><path d="M127.344 87.124c1.448.358 2.846.857 4.069 1.75.647.472 1.134 1.041 1.103 1.906-.019.536-.261.981-.577 1.394-.599.781-1.433 1.23-2.297 1.641-1.541.731-3.193 1.009-4.86 1.254-2.838.418-5.694.31-8.544.324-6.415.031-12.83.018-19.245.021h-10.61v.005c-8.586 0-17.172.005-25.758-.003-3.024-.003-6.049-.002-9.073-.07-2.539-.057-5.061-.323-7.478-1.172-.919-.323-1.817-.722-2.562-1.374a4.636 4.636 0 0 1-.779-.865c-.676-.99-.535-2.027.376-2.808.806-.692 1.751-1.139 2.742-1.5 2.115-.77 4.317-1.141 6.548-1.213 2.618-.085 5.241-.027 7.862-.011 3.492.023 6.973-.132 10.415-.749 2.445-.438 4.791-1.143 6.932-2.486 2.156-1.353 4.564-2.043 7.088-2.345 2.042-.244 4.088-.27 6.135-.132 3.12.211 6.081.984 8.746 2.677 1.781 1.132 3.766 1.703 5.794 2.136 2.412.516 4.863.772 7.328.812 2.742.044 5.486.016 8.229-.007 2.834-.024 5.652.132 8.416.815zm-48.983-1.905c.655.22 1.298.495 1.97.648 2.112.483 4.265.607 7.074.608 1.745-.01 4.129-.132 6.452-.76a7.08 7.08 0 0 0 1.705-.717c.667-.391.653-.942.01-1.38a4.267 4.267 0 0 0-.943-.472c-1.699-.616-3.479-.817-5.263-.941-2.707-.189-5.406-.11-8.087.351-1.056.182-2.108.396-3.057.927-.329.184-.678.392-.673.837.005.444.366.629.683.834.04.026.083.05.129.065zm-3.941-.446c.018-.005-.029.004-.072.023a23.471 23.471 0 0 1-4.043 1.353c-3.279.785-6.621 1-9.973 1.07-3.048.064-6.097.037-9.145.105a18.698 18.698 0 0 0-4.861.755c-1.115.328-2.196.75-3.052 1.581-.788.766-.808 1.72.035 2.412.603.495 1.285.948 2.005 1.238 2.181.88 4.492 1.215 6.825 1.26 4.768.091 9.537.139 14.306.145 7.781.009 15.564-.03 23.345-.049 10.184-.026 20.369-.044 30.554-.084 1.929-.007 3.841-.236 5.709-.742 1.225-.333 2.424-.732 3.419-1.58 1.055-.899 1.08-1.875.031-2.769-.864-.736-1.896-1.141-2.969-1.439-2.176-.604-4.407-.79-6.654-.81-4.072-.036-8.147.1-12.21-.29-1.967-.189-3.918-.474-5.819-1.02-1.142-.328-2.259-.746-3.444-1.142l.001-.001a.281.281 0 0 0-.094.052c-1.134.976-2.458 1.551-3.9 1.902-2.374.577-4.784.738-7.217.733-2.317-.004-4.634.029-6.927-.382-1.307-.234-2.622-.465-3.812-1.088-.688-.359-1.33-.801-2.038-1.233z"/><path d="M46.782 92.958c1.391.486 2.832.724 4.296.785 1.51.063 3.023.083 4.535.084 10.257.007 20.516.004 30.774.004h4.574c9.55-.002 19.101.003 28.651-.011 1.939-.003 3.872-.113 5.756-.65.968-.276 1.857-.675 2.543-1.435.54-.598.555-1.172-.051-1.69a5.907 5.907 0 0 0-1.502-.94c-1.472-.628-3.038-.885-4.626-.954a105.531 105.531 0 0 0-4.571-.082c-20.504-.005-41.008-.004-61.512-.003-1.122 0-2.245-.026-3.366.012-1.854.062-3.695.237-5.46.872-.73.262-1.429.572-1.959 1.161-.477.531-.481 1.028-.008 1.563a4.484 4.484 0 0 0 1.926 1.284zm27.638-8.185c.708.433 1.35.874 2.036 1.233 1.191.623 2.505.853 3.812 1.088 2.293.411 4.609.378 6.927.382 2.434.004 4.844-.156 7.217-.733 1.441-.351 2.766-.927 3.9-1.902a.281.281 0 0 1 .094-.052l-.001.001c1.184.396 2.301.814 3.444 1.142 1.901.545 3.852.831 5.819 1.02 4.063.389 8.139.254 12.21.29 2.248.02 4.478.206 6.654.81 1.074.298 2.106.703 2.969 1.439 1.049.894 1.025 1.869-.031 2.769-.995.848-2.193 1.247-3.419 1.58-1.868.506-3.78.735-5.709.742-10.184.04-20.369.059-30.554.084-7.781.019-15.564.058-23.345.049a793.4 793.4 0 0 1-14.306-.145c-2.333-.045-4.644-.379-6.825-1.26-.719-.291-1.402-.743-2.005-1.238-.843-.692-.823-1.647-.035-2.412.856-.831 1.937-1.253 3.052-1.581a18.74 18.74 0 0 1 4.861-.755c3.048-.068 6.097-.041 9.145-.105 3.353-.07 6.695-.285 9.973-1.07a23.471 23.471 0 0 0 4.043-1.353c.045-.019.092-.028.074-.023z" fill="#fff"/><path d="M126.094 92.022c-.624.003-1.176-.535-1.181-1.151-.004-.613.545-1.146 1.178-1.144.639.002 1.172.534 1.16 1.159-.011.609-.543 1.133-1.157 1.136zm-3.601-3.151v.992h-6.296v-.992h6.296zm-3.994 3.267c1.158.006 2.316.002 3.474.003h.512v.963c-.111.007-.239.023-.367.024-1.536.001-3.072.004-4.607-.001-.916-.003-1.325-.43-1.321-1.354.002-.52 0-1.039 0-1.565.07-.016.116-.037.161-.037.512-.002 1.024-.001 1.587-.001.077.432.422.4.757.399a767.54 767.54 0 0 1 3.035.001c.155 0 .31.016.477.026v.89h-4.183c-.08.492.042.65.475.652zm-5.006-3.342h2.008l-.708 1.069h-2.002l.702-1.069zm-.926 1.391h2.005l-1.953 2.923h-2.207l-1.953-2.915h2.004l1.052 1.593 1.052-1.601zm-3.029-1.388l.711 1.064h-2.011l-.703-1.064h2.003zm-2.632.078v.99h-1.745v-.99h1.745zm-.01 1.318v2.911h-1.739v-2.911h1.739zm-2.401 2.764a16.64 16.64 0 0 0-.115.167c-.631 0-1.263.025-1.89-.017-.168-.012-.359-.198-.476-.353-.326-.428-.728-.578-1.263-.533-.556.046-1.117.01-1.71.01v-1.182h1.796c.317 0 .634.001.951-.001.414-.004.49-.081.503-.485.003-.119.012-.237.02-.375h1.743c.135.73-.042 1.311-.797 1.751l1.238 1.018zm-1.319-4.099c.558.005.924.455.865 1.009h-7.168c-.048-.554.314-1.004.863-1.009 1.813-.016 3.626-.016 5.44 0zm-4.567 1.329V93.1h-1.764v-2.911h1.764zm-2.931.009c0 .244.001.493-.001.742-.003.341-.01.683-.015 1.024-.009.618-.402 1.128-1.006 1.142-1.435.035-2.873.011-4.354.011v-.952c.16-.009.301-.023.442-.023.878-.002 1.756.001 2.634-.002.408-.002.499-.092.503-.491.005-.474.001-.947.001-1.451h1.796zm-.043-.333h-7.37c-.009-.133-.021-.239-.023-.346-.003-.204-.001-.408-.001-.628.12-.017.201-.037.283-.037 2.048-.002 4.095-.006 6.143.001.617.001.998.396.968 1.01z" fill="#fff"/><path d="M90.479 85.09l-.304.817H89.7l.921-2.671.162-.005.743 2.163h-.951l-.096-.304zm.059-.174l.323-.028-.181-.418-.142.446z"/><path d="M92.15 85.613c.029.088.039.182.061.294h-1.652a49.546 49.546 0 0 1-.015-.348h1.175c-.278-.807-.524-1.54-.79-2.265-.026-.072-.195-.162-.255-.138a.496.496 0 0 0-.255.261c-.248.687-.476 1.38-.713 2.071-.047.138-.1.273-.16.435-.674 0-1.344.016-2.011-.007-.367-.012-.646-.332-.655-.711a36.173 36.173 0 0 1 .001-1.647c.01-.411.29-.712.717-.736.509-.029 1.02-.007 1.566-.007v.401c-.456 0-.893-.003-1.329.001-.425.004-.546.124-.55.54-.003.427.004.853 0 1.281-.003.316.138.477.462.474.326-.004.652-.001 1.003-.001v-1.194l-.749-.06-.018-.331h1.191v1.537l.077.02c.037-.075.084-.146.111-.223.219-.646.441-1.29.646-1.94.108-.342.323-.562.676-.569.37-.006.595.221.709.575.248.764.506 1.524.757 2.287z"/><path d="M90.861 84.888l-.323.028.142-.446.181.418zm-.847 5.305V93.1h-1.752v-2.907h1.752z" fill="#fff"/><path d="M87.859 84.923l.288.045-.225-.531h.674v.922c-.303 0-.595.034-.871-.017-.119-.022-.283-.214-.293-.341-.035-.422-.02-.849-.003-1.273.009-.224.143-.35.382-.348.437.004.873.001 1.356.001v.38h-1.309l.001 1.162zm-1.241.429c-.493 0-.973.021-1.451-.017-.098-.008-.211-.225-.259-.365-.044-.13-.009-.285-.009-.465h1.407l.019.323h-.942l-.003.127h1.238v.397zM85.236 83.4c.444-.04.894-.016 1.369-.016v.392h-1.212l.001.112h.907l.019.366h-1.419c0-.206-.043-.379.012-.512.059-.139.203-.33.323-.342z"/><path d="M84.746 85.013c.004.323.167.493.5.49.448-.003.896-.001 1.37-.001v.404c-.555 0-1.089.026-1.62-.008-.367-.023-.621-.297-.64-.685a15.06 15.06 0 0 1 .01-1.713c.026-.403.286-.653.689-.676.507-.03 1.017-.007 1.554-.007v.399c-.438 0-.861-.003-1.284.001-.451.004-.58.133-.584.591-.004.401-.001.803.005 1.205z"/><path d="M84.074 90.192v2.906h-1.743l-.038-.845h-3.164v-1.189h3.174v-.872h1.771z" fill="#fff"/><path d="M84.066 83.75h-1.382a4.415 4.415 0 0 0-.01.109c.138.018.276.036.414.051.596.069.993.476.99 1.02-.003.514-.38.957-.887.986-.484.028-.97.006-1.489.006l-.024-.414c.479 0 .927.012 1.373-.004.377-.014.627-.286.616-.63-.011-.334-.256-.55-.632-.56-.11-.002-.22.004-.329-.004-.071-.006-.175-.006-.205-.05-.102-.149-.269-.334-.241-.471.031-.155.236-.37.385-.386.454-.05.919-.018 1.403-.018l.018.365z"/><path d="M84.063 89.86h-7.05c.011-.605.35-.998.907-1.002a341.45 341.45 0 0 1 5.259.001c.552.004.919.439.884 1.001z" fill="#fff"/><path d="M82.157 84.068c.068.153.288.268.465.333.151.056.342-.004.506.029.253.05.419.223.409.486-.01.261-.168.438-.441.446-.449.013-.899.004-1.383.004l-.034-.372h1.399l.012-.113c-.114-.018-.228-.048-.344-.053-.606-.025-1.055-.435-1.066-.979-.011-.561.403-1.001 1.01-1.033.447-.023.896-.004 1.364-.004v.404c-.404 0-.806-.031-1.2.012-.223.024-.482.124-.63.28-.109.114-.135.406-.067.56z"/><path d="M84.9 84.504c0 .18-.035.336.009.465.048.141.161.357.259.365.477.038.958.017 1.451.017v-.397h-1.238c.001-.042.001-.085.003-.127h.942l-.019-.323H84.9zm.014-.762c-.055.132-.012.306-.012.512h1.419l-.019-.366h-.907l-.001-.112h1.212v-.392c-.476 0-.926-.024-1.369.016-.121.012-.265.203-.323.342zm5.565 1.348l.095.304h.951l-.743-2.163-.162.005-.921 2.671h.475l.305-.817zm-7.857-.689c-.177-.065-.397-.18-.465-.333-.069-.154-.042-.446.067-.561.148-.156.407-.255.63-.28.394-.044.796-.012 1.2-.012v-.404c-.468 0-.916-.018-1.364.004-.607.031-1.021.471-1.01 1.033.011.544.46.954 1.066.979.116.005.23.035.344.053l-.012.113h-1.399l.034.372c.485 0 .934.01 1.383-.004.273-.007.431-.185.441-.446.01-.263-.156-.436-.409-.486-.164-.032-.354.028-.506-.028zm-.362-.611c-.028.137.138.322.241.471.03.044.134.044.205.05.109.008.219.001.329.004.376.01.621.226.632.56.012.344-.239.616-.616.63-.446.016-.894.004-1.373.004l.024.414c.519 0 1.006.022 1.489-.006.507-.029.884-.472.887-.986.003-.543-.394-.951-.99-1.02-.138-.015-.277-.034-.414-.051l.01-.109h1.382l-.018-.365c-.485 0-.949-.032-1.403.018-.149.016-.354.231-.385.386zm11.596 1.926c-2.323.629-4.707.75-6.452.76-2.809-.001-4.961-.125-7.074-.608-.671-.154-1.314-.428-1.97-.648a.59.59 0 0 1-.13-.066c-.317-.205-.678-.39-.683-.834-.005-.446.343-.654.673-.837.949-.531 2.001-.745 3.057-.927 2.68-.46 5.38-.539 8.087-.351 1.784.124 3.564.326 5.263.941.329.119.655.276.943.472.643.438.658.99-.01 1.38a7.02 7.02 0 0 1-1.704.718zm-5.104-.206c-.351 0-.678-.003-1.003.001-.323.004-.465-.157-.462-.474.004-.427-.003-.854 0-1.281.004-.416.124-.536.55-.54.436-.004.873-.001 1.329-.001v-.401c-.546 0-1.058-.022-1.566.007-.427.024-.707.326-.717.736a33.494 33.494 0 0 0-.001 1.647c.009.379.288.699.655.711.667.023 1.337.007 2.011.007.059-.162.113-.297.16-.435.236-.691.465-1.384.713-2.071a.507.507 0 0 1 .255-.261c.06-.024.229.066.255.138.266.725.512 1.458.79 2.265h-1.175l.015.348h1.652c-.023-.113-.033-.206-.061-.294-.251-.763-.509-1.523-.755-2.288-.114-.354-.339-.58-.709-.575-.352.007-.567.227-.676.569-.206.65-.427 1.294-.646 1.94-.026.078-.073.149-.111.223l-.077-.02v-1.537h-1.191l.018.331.749.06c-.002.408-.002.78-.002 1.195zm-1.027-.168c.276.051.568.017.871.017v-.922h-.674c.084.201.149.352.225.531l-.288-.045v-1.162h1.309v-.38c-.483 0-.919.003-1.356-.001-.239-.002-.373.124-.382.348-.017.424-.032.852.003 1.273.009.127.173.319.292.341zm-3.369-.129c.019.388.274.662.64.685.531.034 1.065.008 1.62.008v-.404c-.474 0-.922-.002-1.37.001-.333.002-.495-.167-.5-.49a44.02 44.02 0 0 1-.005-1.205c.004-.458.133-.588.584-.591.423-.004.846-.001 1.284-.001v-.399c-.536 0-1.047-.023-1.554.007-.403.023-.663.274-.689.676-.036.57-.039 1.143-.01 1.713zm-5.6 4.982v2.907h-1.762v-2.907h1.762zm-2.662-1.343v1.007h-7.435c-.064-.575.324-.994.941-1.004.707-.011 1.415-.003 2.122-.003h4.372zm.016 3.088a1.249 1.249 0 0 1-1.216 1.183c-.962.015-1.925.006-2.887.006-.719.001-1.438.007-2.157-.002-.773-.009-1.225-.468-1.227-1.23v-1.729h1.78v1.36c.002.558.055.612.6.613h2.705c.073 0 .146.002.22-.003.209-.015.385-.117.329-.335-.031-.12-.213-.279-.334-.285-.547-.031-1.096-.015-1.645-.016h-.484v-.855c.02-.017.038-.045.056-.045 1.083 0 2.167-.031 3.248.016.591.025 1.05.694 1.012 1.322z" fill="#fff"/><path d="M126.094 92.022a1.186 1.186 0 0 0 1.157-1.137c.012-.624-.521-1.156-1.16-1.159-.633-.002-1.182.531-1.178 1.144.005.617.557 1.154 1.181 1.152zm-25.344.202c.535-.045.937.105 1.263.533.118.154.308.341.476.353.628.042 1.26.017 1.89.017l.115-.167-1.239-1.018c.755-.44.932-1.021.797-1.751h-1.743c-.007.138-.017.257-.02.375-.012.405-.089.482-.503.485-.317.002-.634.001-.951.001h-1.796v1.182c.594 0 1.156.036 1.711-.01zm16.761.903c1.536.005 3.072.002 4.607.001.128-.001.255-.017.367-.024v-.963h-.512c-1.158-.001-2.316.003-3.474-.003-.433-.002-.556-.16-.476-.652h4.183v-.89c-.167-.01-.322-.026-.477-.026a767.54 767.54 0 0 0-3.035-.001c-.334.001-.68.033-.757-.399-.563 0-1.075-.001-1.587.001-.045 0-.091.02-.161.037 0 .525.002 1.045 0 1.565-.004.924.406 1.351 1.322 1.354zm-9.273-3.264h2.011l-.711-1.064h-2.003l.703 1.064zm-4.197.006c.059-.553-.307-1.003-.865-1.009a290.14 290.14 0 0 0-5.44 0c-.549.004-.911.455-.863 1.009h7.168zM69.6 88.855c-.617.01-1.006.429-.941 1.004h7.435v-1.007h-4.372c-.707 0-1.415-.008-2.122.003zm-8.222 2.933c-.004.913.414 1.337 1.337 1.34 1.525.004 3.049.001 4.574 0 .13 0 .258-.015.386-.023v-.965h-.468c-1.171-.001-2.341.003-3.512-.002-.431-.002-.556-.158-.492-.65h4.191v-.92h-.509c-1.025 0-2.049-.005-3.074.003-.315.003-.586-.037-.679-.376H61.38c-.002.55 0 1.071-.002 1.593zm66.482-1.743c.606.518.591 1.092.051 1.69-.686.76-1.574 1.159-2.543 1.435-1.884.536-3.817.647-5.756.65-9.55.014-19.101.009-28.651.011h-4.574c-10.258 0-20.516.003-30.774-.004a110.574 110.574 0 0 1-4.535-.084c-1.465-.061-2.905-.299-4.296-.785a4.488 4.488 0 0 1-1.926-1.282c-.473-.535-.469-1.033.008-1.563.53-.589 1.23-.899 1.959-1.161 1.765-.635 3.606-.809 5.46-.872 1.121-.038 2.244-.012 3.366-.012 20.504-.001 41.008-.002 61.512.003 1.524 0 3.049.016 4.571.082 1.588.069 3.154.326 4.626.954a5.872 5.872 0 0 1 1.502.938zm-82.352.816c-.005.615.553 1.164 1.179 1.16.614-.004 1.153-.538 1.156-1.146.004-.629-.534-1.153-1.178-1.149-.618.004-1.152.527-1.157 1.135zm36.786 1.393l.038.845h1.743v-2.906h-1.77v.872h-3.174v1.189h3.163zm5.948-2.735c.002.107.015.213.023.346h7.37c.03-.614-.351-1.009-.969-1.011-2.048-.007-4.095-.003-6.143-.001-.081 0-.162.021-.283.037.001.221-.001.425.002.629zm-13.985 2.283c.056.218-.12.32-.329.335-.073.005-.146.003-.22.003h-2.705c-.545-.001-.598-.054-.6-.613v-1.36h-1.78v1.729c.002.762.455 1.222 1.227 1.23.719.009 1.437.003 2.157.002.962 0 1.925.01 2.887-.006a1.25 1.25 0 0 0 1.216-1.183c.038-.627-.421-1.296-1.011-1.323-1.081-.048-2.165-.016-3.248-.016-.018 0-.036.028-.056.045v.855h.484c.548.001 1.098-.015 1.645.016.12.007.301.166.333.286zm48.236-1.939v-.992h-6.296v.992h6.296zm-7.7.002l.708-1.069h-2.008l-.701 1.069h2.001zm-.22.322h-2.005l-1.051 1.601-1.052-1.593h-2.004l1.953 2.915h2.207l1.952-2.923zm-7.667-.321v-.99h-1.745v.99h1.745zm-.01 3.239v-2.911h-1.739v2.911h1.739zm-8.287-.005v-2.911h-1.764V93.1h1.764zm-2.931-2.16c.002-.249.001-.498.001-.742h-1.795c0 .504.004.977-.001 1.451-.004.399-.095.489-.503.491-.878.004-1.756 0-2.634.002-.141.001-.283.015-.442.023v.952c1.481 0 2.919.024 4.354-.011.604-.015.997-.525 1.006-1.142.004-.341.011-.683.014-1.024zm-5.664 2.16v-2.907h-1.752V93.1h1.752zm-5.951-3.24c.034-.562-.332-.997-.884-1.001a341.45 341.45 0 0 0-5.259-.001c-.557.004-.896.397-.907 1.002h7.05zm-5.307 3.242v-2.907h-1.762v2.907h1.762zM67.68 89.864v-.985h-6.291v.985h6.291zm-7.329 3.237v-2.903h-1.779v2.903h1.779zm-.008-3.233c.028-.618-.358-1.013-.995-1.014-2.767-.004-5.534-.002-8.3-.001-.094 0-.188.018-.303.029v.985l9.598.001zm-3.941 3.24v-2.91h-1.727v2.91h1.727zm-3.921-.005v-2.917h-1.737v2.917h1.737z"/><path d="M67.68 88.879v.985h-6.291v-.985h6.291zm-4.478 2.61c-.064.492.061.648.492.65 1.171.005 2.341.001 3.512.002h.468v.965c-.127.007-.256.023-.386.023-1.525.001-3.049.004-4.574 0-.924-.003-1.341-.427-1.337-1.34v-1.593h1.752c.093.34.364.379.679.376 1.025-.008 2.049-.003 3.074-.003h.509v.92h-4.189zm-2.851-1.291v2.903h-1.779v-2.903h1.779zm-1.002-1.344c.637.001 1.022.395.995 1.014h-9.598v-.985c.115-.011.209-.029.303-.029 2.766-.002 5.533-.004 8.3 0zm-2.947 1.344v2.91h-1.727v-2.91h1.727zm-3.921-.012v2.917h-1.737v-2.917h1.737zm-5.816-.46c.644-.004 1.182.52 1.178 1.149-.004.608-.542 1.142-1.156 1.146-.626.004-1.184-.545-1.179-1.16.005-.608.539-1.131 1.157-1.135z" fill="#fff"/><linearGradient id="b" gradientUnits="userSpaceOnUse" x1="86.413" y1="79.464" x2="86.413"><stop offset="0" stop-color="#bc6d4a"/><stop offset="1" stop-color="#9f3c5f"/></linearGradient><path d="M68.1 79.464H26.76V3.345c0-1.262.442-2.426 1.182-3.345h116.942a5.318 5.318 0 0 1 1.182 3.345v76.119h-41.34c-4.014-4.018-10.717-6.654-18.313-6.654-7.595 0-14.299 2.636-18.313 6.654z" fill="url(#b)"/></svg>