<svg xmlns="http://www.w3.org/2000/svg" viewBox="0 0 30 30"><path d="M15.087 25.707c-4.632 0-8.241-.75-10.729-2.228-2.771-1.647-4.176-4.208-4.176-7.61 0-3.925 1.607-7.897 4.408-10.899 1.384-1.483 2.975-2.654 4.729-3.48C11.159.624 13.085.184 15.044.184c3.949 0 7.67 1.684 10.477 4.742a16.207 16.207 0 0 1 3.147 5.052 16.516 16.516 0 0 1 1.15 6.068c0 3.278-1.347 5.764-4.004 7.387-2.468 1.509-6.077 2.274-10.727 2.274" fill="#fe0100"/><path d="M15.044 0c-1.985 0-3.937.445-5.802 1.323-1.775.836-3.384 2.02-4.784 3.52a16.757 16.757 0 0 0-3.254 5.061A15.582 15.582 0 0 0 0 15.869c0 3.473 1.435 6.087 4.266 7.769 2.516 1.495 6.157 2.254 10.821 2.254 4.683 0 8.324-.774 10.821-2.3C28.623 21.932 30 19.393 30 16.046c0-2.109-.391-4.173-1.163-6.136a16.403 16.403 0 0 0-3.183-5.109 15.02 15.02 0 0 0-4.75-3.501 13.81 13.81 0 0 0-5.86-1.3m0 .369c8.126 0 14.592 7.263 14.592 15.677 0 6.643-5.592 9.477-14.548 9.477-8.735 0-14.723-2.657-14.723-9.654C.364 7.809 7.092.369 15.044.369" fill="#161616"/><path d="M.387 15.957c0 6.997 5.989 9.654 14.723 9.654 7.916 0 13.203-2.214 14.325-7.315-.843 1.346-1.772 1.992-2.533 2.296-2.658-1.967-6.988-3.247-11.879-3.247-4.91 0-9.255 1.29-11.909 3.27-.965-.786-1.991-2.21-2.725-4.774l-.002.116" fill="#fe0100"/><path d="M14.15 29.815c-.79 0-1.993-.069-3.237-.396-1.494-.393-2.677-1.059-3.514-1.979-1.126-1.237-1.614-2.92-1.449-5.003a.186.186 0 0 1 .05-.113c.038-.04.95-.998 2.541-1.785a14.68 14.68 0 0 1 6.465-1.517c1.942 0 3.864.402 5.715 1.193l.302.128c1.101.465 2.472 1.043 3.087 2.008a.186.186 0 0 1 .024.056c.026.106.61 2.614-1.007 4.705-1.373 1.776-3.887 2.676-7.471 2.676-.197 0-.401-.003-.605-.008a9.435 9.435 0 0 1-.901.035" fill="#fada85"/><path d="M15.005 18.839c-2.843 0-5.128.835-6.545 1.536-1.619.801-2.553 1.782-2.592 1.823a.372.372 0 0 0-.1.225c-.169 2.136.334 3.866 1.497 5.142.862.947 2.074 1.63 3.602 2.033 1.263.332 2.482.402 3.283.402.487 0 .816-.026.905-.033.202.005.404.008.6.008 3.643 0 6.204-.924 7.614-2.747 1.671-2.161 1.067-4.754 1.041-4.863a.372.372 0 0 0-.048-.112c-.646-1.013-2.046-1.603-3.17-2.078a24.973 24.973 0 0 1-.301-.128 14.636 14.636 0 0 0-5.786-1.208m0 .369c1.735 0 3.645.323 5.644 1.179 1.127.482 2.667 1.062 3.308 2.066 0 0 1.736 7.153-8.301 7.153-.199 0-.403-.003-.612-.009 0 0-.343.034-.894.034-2.359 0-8.538-.621-8.019-7.178 0 0 .909-.965 2.489-1.746a14.537 14.537 0 0 1 6.385-1.499" fill="#161616"/><path d="M12.772 23.109c0 1.455-.14 2.546-.743 2.546s-.743-1.091-.743-2.546.14-2.369.743-2.369.743.914.743 2.369" fill="#231f20"/><path d="M12.772 23.109c0 1.455-.14 2.546-.743 2.546s-.743-1.091-.743-2.546.14-2.369.743-2.369.743.914.743 2.369z" fill="none" stroke="#231f20"/><path d="M18.888 23.109c0 1.455-.14 2.546-.743 2.546s-.743-1.091-.743-2.546.14-2.369.743-2.369c.604 0 .743.914.743 2.369" fill="#231f20"/><path d="M18.888 23.109c0 1.455-.14 2.546-.743 2.546s-.743-1.091-.743-2.546.14-2.369.743-2.369c.604 0 .743.914.743 2.369z" fill="none" stroke="#231f20"/><path d="M11.988 20.878c-.452 0-.605.59-.639 1.563a1.082 1.082 0 0 0 1.278 0c-.034-.973-.187-1.563-.639-1.563M18.187 20.878c-.465 0-.613.624-.641 1.646a1.076 1.076 0 0 0 1.282 0c-.027-1.022-.176-1.646-.641-1.646M3.018 7.262C1.352 9.784.364 12.781.364 15.868c0 .882.095 1.695.279 2.442 1.727-1.848 4.203-5.649 2.375-11.048M26.888 6.966c-.418 2.977-.79 8.991 2.483 11.421.175-.721.265-1.5.265-2.341 0-3.334-1.016-6.487-2.748-9.08M22.209 8.163c0 4.011-3.208 7.263-7.165 7.263s-7.165-3.252-7.165-7.263S11.087.9 15.044.9s7.165 3.252 7.165 7.263" fill="#fff"/></svg>