<svg enable-background="new 0 0 247.663 470.294" viewBox="0 0 247.663 470.294" xmlns="http://www.w3.org/2000/svg"><path d="m50.686 235.147c.462 45.704-4.417 75.846-21.167 99.096-13.641 18.935-30.17 39.395-29.5 67.75.121 5.105.694 17.511 8.045 30.663 3.847 6.882 9.7 13.765 18.788 20.17 62.667 44.167 123.648-8.846 129.479-13.013 89.791-64.176 91.347-158.57 91.331-204.666.016-46.096-1.539-140.489-91.331-204.666-5.83-4.167-66.812-57.18-129.479-13.013-9.088 6.405-14.941 13.288-18.788 20.17-7.35 13.152-7.923 25.559-8.044 30.663-.67 28.355 15.859 48.815 29.5 67.75 16.75 23.25 21.629 53.392 21.166 99.096z" fill="#1b1d1f"/><path d="m239.287 317.767c8.083-32.454 8.383-62.252 8.376-82.62.007-20.368-.293-50.166-8.376-82.62l-.002.001c-9.577 4.086-13.996 6.212-18.431 10.274-1.013.928-.857 3.506-.167 6.5 6.859 20.647 6.977 51.016 6.976 65.846.001 14.83-.118 45.199-6.976 65.846-.69 2.994-.847 5.572.167 6.5 4.435 4.062 8.855 6.188 18.431 10.274" fill="#111"/><ellipse cx="123.763" cy="346.951" fill="#111" rx="94.698" ry="73.344" transform="matrix(.5623 -.8269 .8269 .5623 -232.7357 254.2106)"/><ellipse cx="125.554" cy="341.636" fill="#090909" rx="74.877" ry="59.909" transform="matrix(.5623 -.8269 .8269 .5623 -227.5573 253.3651)"/><circle cx="139.328" cy="294.06" fill="#6a6a6d" r="14.5"/><circle cx="155.718" cy="332.267" fill="#6a6a6d" r="14.5"/><circle cx="168.328" cy="371.925" fill="#6a6a6d" r="14.5"/><circle cx="93.734" cy="309.18" fill="#262626" r="19"/><circle cx="113.107" cy="355.096" fill="#262626" r="19"/><circle cx="129.479" cy="401.014" fill="#262626" r="19"/><ellipse cx="129.984" cy="116.592" fill="#191818" rx="69.286" ry="84.953" transform="matrix(.8269 -.5623 .5623 .8269 -43.0634 93.2652)"/><ellipse cx="134.302" cy="118.467" fill="#0f0f0f" rx="54.784" ry="63.708" transform="matrix(.8269 -.5623 .5623 .8269 -43.3702 96.0175)"/><circle cx="136.515" cy="119.218" r="47.5"/><circle cx="136.515" cy="119.218" fill="#373737" r="41.75"/><path d="m161.333 95.782-6.936 3.329 3.614 3.623z" fill="#1f1f1f"/><path d="m113.058 95.782 3.322 6.952 3.614-3.623z" fill="#1f1f1f"/><path d="m112.805 144.024 6.937-3.33-3.615-3.623z" fill="#1f1f1f"/><path d="m161.009 144.53-3.322-6.953-3.615 3.623z" fill="#1f1f1f"/><path d="m136.515 160.968c-2.02-.002-4.044-.012-6.054-.076-3.058-.095-4.436-1.685-4.664-4.798-.294-4.027-.674-8.092-1.567-12.014-1.539-6.797-5.965-11.119-12.737-12.632-3.685-.828-7.484-1.209-11.246-1.533-4.094-.352-5.252-1.219-5.385-5.217-.064-1.824-.095-3.652-.097-5.481.002-1.829.033-3.657.097-5.481.133-3.998 1.292-4.864 5.385-5.217 3.761-.324 7.561-.704 11.246-1.533 6.772-1.514 11.198-5.835 12.737-12.632.893-3.922 1.273-7.987 1.567-12.014.228-3.113 1.605-4.703 4.664-4.798 2.01-.064 4.034-.074 6.054-.076 2.02.002 4.044.012 6.054.076 3.058.095 4.436 1.685 4.664 4.798.294 4.027.674 8.092 1.567 12.014 1.539 6.797 5.965 11.119 12.737 12.632 3.685.828 7.484 1.209 11.246 1.533 4.094.352 5.252 1.219 5.385 5.217.064 1.824.095 3.652.097 5.481-.002 1.829-.033 3.657-.097 5.481-.133 3.998-1.292 4.864-5.385 5.217-3.761.324-7.561.704-11.246 1.533-6.772 1.514-11.198 5.835-12.737 12.632-.893 3.922-1.273 7.987-1.567 12.014-.228 3.113-1.605 4.703-4.664 4.798-2.011.064-4.034.074-6.054.076z" fill="#181818"/><path d="m127.973 103.956v-24.335h17.811v24.335l5.903 6.356h24.335v17.811h-24.335l-6.368 6.489v24.335h-17.811v-24.335l-5.903-6.356h-24.335v-17.811h24.335z" fill="#2c2c2c"/><path d="m136.519 127.99c-4.835 0-8.757-3.922-8.757-8.767s3.923-8.777 8.757-8.777c4.835 0 8.748 3.932 8.748 8.777s-3.913 8.767-8.748 8.767z" fill="#242424"/><path d="m127.762 119.218c0-3.343 1.867-6.246 4.612-7.725h.017c2.674 1.485 4.487 4.382 4.487 7.716v-.005c0 3.334-1.813 6.231-4.487 7.716h-.017c-2.745-1.479-4.612-4.382-4.612-7.725" fill="#404040"/><path d="m115.885 362.096c.438.851.939 1.23 1.508 1.166l.476-.148c.917-.343.864-1.904-.143-4.66l-4.552-12.455-.911.311-3.662 1.37-.907.369 4.552 12.455c1.007 2.756 1.977 3.975 2.888 3.634l.456-.201c.378-.29.479-.895.295-1.841zm-2.666-1.748-.59-1.614-3.16-8.679 1.373-.513 3.209 8.78.541 1.513c.384 1.05.348 1.66-.103 1.829-.461.172-.886-.266-1.27-1.316zm2.3-.86-3.76-10.289 1.373-.513 3.76 10.289c.384 1.05.343 1.662-.118 1.835-.457.17-.872-.272-1.255-1.322z" fill="#141415"/><circle cx="102.519" cy="357.796" fill="#191818" r="1.069"/><path d="m95.293 317.499-.808-2.188.846-2.589-3.063-8.299-2.273-1.277-.843-2.284 7.973 4.53 1.189 3.222zm.595-5.979 1.223-3.499-.521-1.412-3.105-1.601z" fill="#141415"/><path d="m132.14 403.751-2.111-6c-1.407-4.02-1.894-3.452-3.114-3.024s-1.953.284-.546 4.293l3.723 10.609-.915.321-3.723-10.594c-1.97-5.606-1.214-6.366.616-7.008s2.898-.544 4.857 5.019l3.74 10.657-.907.318z" fill="#141415"/><path d="m137.775 300.315.51-3.253c.17-1.311.29-2.139.44-2.943l-.023-.062c-.609-.457-1.188-.924-2.181-1.81l-2.415-2.011-1.147-3.15 5.785 5.244 1.072-7.454 1.158 3.182-.565 3.381c-.156.948-.278 1.672-.433 2.37l.034.094c.619.453 1.125.875 1.844 1.506l2.641 2.321 1.147 3.15-5.643-5.26-1.065 7.879z" fill="#484849"/><path d="m151.756 331.907 2.87-1.045 1.452-8.128 1.135 3.119-.777 3.672c-.214 1.005-.397 1.785-.628 2.619l.023.063c.659.438 1.365 1.001 2.175 1.634l2.979 2.376 1.135 3.118-6.476-5.705-2.881 1.048z" fill="#484849"/><path d="m162.637 365.22 9.779 9.784.029-.011-3.922-10.774.733-.267 5.217 14.334-.532.194-9.735-9.728-.03.011 4.322 11.876-.732.267-5.641-15.499z" fill="#484849"/><path d="m122.556 215.603c0-.429.069-.801.213-1.118.144-.319.345-.585.603-.801.253-.212.563-.375.919-.487s.747-.172 1.172-.183v1.083c-.276.018-.511.069-.712.154s-.368.192-.5.324-.23.281-.293.449c-.063.17-.092.35-.092.542.006.181.029.346.075.493.046.15.115.279.201.384.086.107.19.188.316.246s.264.087.419.087c.161 0 .293-.027.408-.083.109-.058.207-.147.299-.275.086-.125.167-.29.241-.493.069-.205.144-.455.218-.755.098-.342.213-.634.345-.882.126-.246.281-.449.46-.607.178-.156.385-.275.615-.35.23-.076.494-.114.798-.112.322 0 .62.051.89.156.276.107.511.254.707.446.195.194.35.424.465.69.109.268.167.565.167.893 0 .342-.057.652-.178.933s-.293.525-.517.73c-.224.203-.5.364-.827.48-.322.116-.695.179-1.103.185v-1.069c.873-.076 1.31-.487 1.31-1.228 0-.362-.08-.638-.236-.83-.161-.19-.373-.286-.649-.286-.109 0-.207.02-.293.06-.08.042-.155.109-.224.201s-.132.21-.19.355c-.057.143-.115.317-.172.522-.046.179-.092.359-.149.547s-.126.371-.213.551c-.08.179-.178.348-.293.507s-.258.297-.425.417c-.167.121-.362.217-.586.284-.224.069-.483.105-.787.105-.356 0-.678-.058-.971-.17-.293-.114-.546-.27-.758-.471s-.373-.44-.494-.719c-.121-.275-.179-.579-.179-.905z" fill="#d5d5d5"/><path d="m129.053 223.403v-1.855l-6.37-.007v-1.116l6.365.007v-1.848l1.327.002v4.817z" fill="#d5d5d5"/><path d="m122.689 229.379v-1.241l2.2-.652v-2.087l-2.2-.623-.006-1.179 7.697 2.297v1.063zm3.423-2.237 2.43-.721-2.436-.685z" fill="#d5d5d5"/><path d="m122.694 235.192v-1.199l2.097-.567c.144-.042.276-.098.396-.165.121-.069.23-.147.316-.239.086-.089.155-.19.207-.299.046-.112.075-.225.075-.35v-1.194l-3.09-.002v-1.114l7.692.007v2.674c0 .159-.006.31-.011.455-.006.145-.029.281-.063.415-.04.132-.092.259-.161.382-.069.121-.161.237-.287.346-.103.098-.224.183-.362.257-.132.074-.27.132-.419.181s-.304.085-.465.109c-.161.027-.322.038-.477.038-.471 0-.873-.089-1.212-.266-.333-.174-.592-.417-.77-.728-.253.254-.649.462-1.189.621zm4.412-4.012v1.482c.006.199.023.368.057.511s.092.259.172.35c.08.089.19.156.322.199s.293.063.483.063c.339.002.592-.08.753-.246.155-.165.236-.42.236-.763v-1.596z" fill="#d5d5d5"/><path d="m129.07 240.614v-1.855l-6.37-.007v-1.116l6.365.007v-1.848l1.327.002v4.817z" fill="#d5d5d5"/><circle cx="146.381" cy="329.733" fill="#484849" r="1.069"/><circle cx="149.644" cy="339.659" fill="#484849" r="1.069"/><g fill="#d5d5d5"><path d="m181.716 252.918c0-2.537 0-5.08 0-7.71h1.993v5.285c1.285-.384 2.33-.702 3.38-1.01 2.616-.767 5.254-1.483 7.837-2.325.626-.204 1.4-.754 1.529-1.257.218-.847-.754-1.122-1.558-1.357-4.008-1.172-8.004-2.378-12.027-3.513-.945-.266-1.264-.656-1.238-1.516.071-2.365.006-4.734.03-7.1.024-2.398 1.758-3.966 4.502-4.018 2.471-.047 4.946-.051 7.417.001 2.787.058 4.483 1.576 4.521 3.999.034 2.133.007 4.267.007 6.476-.724 0-1.31 0-2.099 0 0-1.834 0-3.657 0-5.48.001-2.572-.686-3.162-3.683-3.163-1.865 0-3.731-.008-5.596.002-1.995.01-2.968.833-2.988 2.531-.016 1.379-.003 2.758-.003 4.208h6.506c0-1.173 0-2.313 0-3.51h2.024v5.469c-2.857 0-5.714 0-8.572 0-.013.1-.026.199-.039.299 3.941 1.157 7.881 2.316 11.823 3.47 2.253.66 3.169 1.874 2.837 3.833-.185 1.09-.888 1.897-2.081 2.254-4.732 1.417-9.482 2.791-14.227 4.176-.07.021-.165-.023-.295-.044z"/><path d="m181.672 204.598h2.075c0 2.057-.025 4.074.008 6.091.027 1.688 1.381 2.949 3.153 3.01 1.732.059 3.215-1.189 3.343-2.848.052-.674-.02-1.357.06-2.027.123-1.031 1.198-1.784 2.441-1.783 1.26.001 2.385.745 2.419 1.786.071 2.206.022 4.414.022 6.68-.703 0-1.29 0-2.053 0 0-1.128 0-2.242 0-3.356 0-1.043 0-2.086 0-3.129-.23-.002-.46-.004-.69-.006-.03.618-.073 1.236-.089 1.855-.059 2.331-1.561 4.015-4.112 4.597-3.114.71-6.428-1.312-6.556-4.097-.102-2.21-.021-4.425-.021-6.773z"/><path d="m184.561 204.579h2.143v6.508c.201.001.402.001.602.002.03-.664.074-1.327.086-1.991.036-1.863 1.021-3.249 2.918-4.066 1.931-.832 3.866-.704 5.641.392 1.218.752 2.043 1.79 2.09 3.098.081 2.286.023 4.576.023 6.954-.659 0-1.277 0-2.056 0 0-2.054.038-4.109-.011-6.163-.049-2.04-2.153-3.363-4.273-2.747-1.276.371-2.131 1.428-2.22 2.784-.042.637.011 1.281-.061 1.914-.116 1.028-1.187 1.807-2.412 1.819s-2.418-.766-2.45-1.77c-.067-2.206-.02-4.416-.02-6.734z"/><path d="m198.038 227.446c-.685 0-1.272 0-2.028 0 0-2.034.002-4.048 0-6.063-.002-2.118-.83-2.856-3.253-2.87-1.95-.011-3.901-.005-5.851.009-2.252.015-3.158.797-3.164 2.718-.006 2.019-.001 4.039-.001 6.135-.704 0-1.288 0-2.082 0 0-1.507-.003-2.991.001-4.475.003-.938-.034-1.88.039-2.814.134-1.722 1.915-3.288 3.905-3.333 2.858-.064 5.721-.059 8.58-.001 1.831.038 3.715 1.437 3.814 3.02.155 2.533.04 5.079.04 7.674z"/><path d="m181.762 241.32c4.467 1.308 8.837 2.58 13.195 3.882.309.092.637.38.741.642.057.143-.284.545-.531.62-3.493 1.062-7.001 2.089-10.604 3.153 0-1.543 0-2.955 0-4.417.518-.049.979-.093 1.44-.137.025-.063.051-.126.076-.19-.809-.252-1.615-.51-2.426-.754-2.153-.647-2.154-.644-1.891-2.799zm5.16 3.775v1.549c.826-.241 1.527-.446 2.228-.65-.006-.089-.012-.178-.019-.267-.677-.193-1.355-.387-2.209-.632z"/><path d="m187.132 234.754c.183-.565.291-.901.421-1.303h1.843v2.864c-1.582 0-3.119 0-4.828 0 0-1.465-.092-2.921.063-4.358.04-.373.836-.961 1.308-.979 2.598-.098 5.203-.069 7.806-.042.913.01 1.447.493 1.456 1.29.023 2.176.008 4.352.008 6.625-.685 0-1.301 0-2.064 0 0-1.637-.051-3.243.019-4.845.043-.983-.354-1.362-1.5-1.3-1.21.066-2.429.004-3.643.018-1.449.017-1.797.623-.889 2.03z"/><path d="m186.782 221.168c-.417 2.021.02 4.116-.242 6.212-.659 0-1.243 0-1.968 0 0-2.397-.064-4.748.066-7.091.021-.374.865-.934 1.409-1.019 1.044-.163 2.147-.047 3.336-.047v6.67c-.615 0-1.202 0-1.946 0 0-1.555 0-3.109 0-4.663-.219-.02-.437-.041-.655-.062z"/><path d="m195.189 227.446c-.71 0-1.296 0-1.955 0-.327-2.08.209-4.213-.29-6.257-.179.007-.358.014-.538.021v4.686c-.773 0-1.36 0-2.043 0 0-2.17 0-4.331 0-6.653 1.198 0 2.449-.093 3.663.05.434.051 1.096.663 1.112 1.036.102 2.352.051 4.709.051 7.117z"/></g><path d="m132.582 243.676v-35.312c0-3.713 3.038-6.75 6.75-6.75h4.812c3.713 0 6.75 3.038 6.75 6.75v35.312c0 3.713-3.038 6.75-6.75 6.75h-4.812c-3.712 0-6.75-3.037-6.75-6.75z" fill="#191818"/><path d="m137.47 241.319v-31.488c0-1.715 1.404-3.119 3.119-3.119h2.223c1.715 0 3.119 1.404 3.119 3.119v31.488c0 1.715-1.404 3.119-3.119 3.119h-2.223c-1.716 0-3.119-1.404-3.119-3.119z" fill="#b7b7b7"/></svg>