<svg enable-background="new 0 0 508.808 373.008" viewBox="0 0 508.808 373.008" xmlns="http://www.w3.org/2000/svg"><path d="m500.111 0h-491.413c-4.804 0-8.698 3.895-8.698 8.698v10.595h88.849 6.556c1.041 0 2.669-.33 5.14 2.898 2.335 3.052 17.544 21.756 18.994 23.732 1.45 1.977 4.218 3.03 8.04 3.03h124.721 5.164 124.722c3.821 0 6.589-1.054 8.039-3.03 1.449-1.977 16.658-20.681 18.994-23.732 2.471-3.229 4.1-2.898 5.14-2.898h6.556 87.895v-10.595c-.002-4.803-3.896-8.698-8.699-8.698z" fill="#2b2b2b"/><path d="m88.849 19.293h6.556c1.041 0 2.669-.33 5.14 2.898 2.335 3.052 17.544 21.756 18.994 23.732 1.45 1.977 4.218 3.03 8.04 3.03h124.721 5.164 124.722c3.821 0 6.589-1.054 8.039-3.03 1.449-1.977 16.658-20.681 18.994-23.732 2.471-3.229 4.1-2.898 5.14-2.898h6.556 87.895v345.017c0 4.804-3.895 8.698-8.697 8.698h-491.415c-4.804 0-8.698-3.895-8.698-8.698v-345.017z" fill="#373736"/><path d="m115.602 372.008v-311.437c0-1.007.9-1.83 2-1.83h271.439c1.1 0 2 .824 2 1.83v311.437" fill="#282828"/><path d="m118.428 372.008v-309.176c0-1 .883-1.817 1.963-1.817h266.444c1.08 0 1.963.818 1.963 1.817v309.176" fill="#373736"/><path d="m115.602 257.961c0 20.962-9.322 37.955-30.325 37.955-21.002 0-30.324-16.993-30.324-37.955s14.007-37.955 30.324-37.955 30.325 16.993 30.325 37.955z" fill="#2b2b2b"/><path d="m103.041 211.782c-38.583 0-69.861-31.277-69.861-69.86s31.278-69.861 69.861-69.861h302.215c38.584 0 69.861 31.278 69.861 69.861s-31.277 69.86-69.861 69.86z" fill="#414140"/><path d="m19.372 37.601h3.359v-5.411l6.08 5.411h3.343v-9.05h-3.359v5.41l-6.08-5.41h-3.343z" fill="#e8e2e9"/><path d="m32.527 37.601h3.359v-4.291l5.055 4.291h3.996l-5.448-4.658 5.354-4.392h-3.996l-4.961 4.011v-4.011h-3.359z" fill="#e8e2e9"/><path d="m18.812 31.069v-2.518h-9.796c-1.706-.03-2.799 1.295-2.799 2.893 0 1.597 1.049 2.924 2.799 2.892h6.205c.231 0 .419.167.419.373 0 .207-.188.374-.419.374h-8.911v2.519h9.797c1.706.03 2.799-1.295 2.799-2.893 0-1.597-1.049-2.924-2.799-2.892h-6.205c-.231 0-.42-.167-.42-.373 0-.207.188-.374.42-.374h8.91z" fill="#e8e2e9"/><path d="m403.065 115.037c14.849 0 26.885 12.036 26.885 26.885 0 14.848-12.036 26.885-26.885 26.885h-297.834c-14.848 0-26.885-12.037-26.885-26.885 0-14.849 12.037-26.885 26.885-26.885z" fill="#494948"/><path d="m105.231 115.037h297.834v53.77h-297.834z" fill="#373736" stroke="#1b1b1b" stroke-miterlimit="10"/><path d="m257.463 48.954h124.722c3.821 0 6.589-1.054 8.039-3.03 1.449-1.977 16.658-20.681 18.994-23.732 2.471-3.229 4.1-2.898 5.14-2.898h6.556v-7.314s-27.294 0-28.334 0-2.669-.329-5.14 2.899c-2.335 3.052-11.597 14.761-13.048 16.737-1.449 1.977-4.217 3.031-8.039 3.031-3.821 0-108.89 0-108.89 0h-5.164s-105.068 0-108.89 0-6.589-1.055-8.04-3.031c-1.45-1.977-10.712-13.686-13.047-16.737-2.471-3.229-4.099-2.899-5.14-2.899s-28.334 0-28.334 0v7.314h6.556c1.041 0 2.669-.33 5.14 2.898 2.335 3.052 17.544 21.756 18.994 23.732 1.45 1.977 4.218 3.03 8.04 3.03h124.721z" fill="#494949"/><path d="m79.096 11.979h3.361v7.314h-3.361z" fill="#494949"/><path d="m69.542 11.979h3.361v7.314h-3.361z" fill="#494949"/><path d="m59.987 11.979h3.361v7.314h-3.361z" fill="#494949"/><path d="m50.432 11.979h3.361v7.314h-3.361z" fill="#494949"/><path d="m40.878 11.979h3.36v7.314h-3.36z" fill="#494949"/><path d="m31.323 11.979h3.36v7.314h-3.36z" fill="#494949"/><path d="m21.768 11.979h3.361v7.314h-3.361z" fill="#494949"/><path d="m12.213 11.979h3.361v7.314h-3.361z" fill="#494949"/><path d="m0 11.979h6.019v7.314h-6.019z" fill="#494949"/><path d="m426.351 11.979h3.361v7.314h-3.361z" fill="#494949"/><path d="m435.906 11.979h3.361v7.314h-3.361z" fill="#494949"/><path d="m445.461 11.979h3.361v7.314h-3.361z" fill="#494949"/><path d="m455.015 11.979h3.361v7.314h-3.361z" fill="#494949"/><path d="m464.57 11.979h3.361v7.314h-3.361z" fill="#494949"/><path d="m474.126 11.979h3.36v7.314h-3.36z" fill="#494949"/><path d="m483.68 11.979h3.36v7.314h-3.36z" fill="#494949"/><path d="m493.235 11.979h3.36v7.314h-3.36z" fill="#494949"/><path d="m502.79 11.979h6.018v7.314h-6.018z" fill="#494949"/><path d="m268.63 285.953v4.907h-.357c-.42-1.347-1.057-2.364-1.91-3.051-.841-.702-1.351-1.06-2.357-1.06-.956 0-1.758.303-2.394.88-.65.592-1.096 1.402-1.363 2.446-.267 1.045-.395 2.117-.395 3.218 0 1.333.141 2.502.434 3.506.293 1.017.764 1.553 1.414 2.021.649.467 1.172.7 2.063.7.318 0 .637-.027.955-.096.331-.083.586-.179.93-.316v-3.547c0-.55-.039-.907-.102-1.071-.077-.151-.216-.303-.433-.427-.216-.138-.484-.206-.802-.206h-.331v-.371h6.267v.371c-.471.041-.803.11-.994.22-.191.097-.331.275-.433.523-.051.138-.076.454-.089.962l-.026 3.438c-.815.384-1.566.715-2.458.921-.892.192-1.821.357-2.777.357-1.223 0-1.999-.096-2.802-.453-.815-.357-1.516-.688-2.14-1.265-.612-.591-1.096-1.251-1.452-1.979-.433-.948-.662-1.993-.662-3.176 0-2.089.688-3.849 2.05-5.292 1.35-1.444 3.069-2.158 5.133-2.158.942 0 1.783.261 2.662.618.624.262.994.385 1.108.385.179 0 .331-.068.484-.206s.293-.398.42-.797h.357z" fill="#c19528"/><path d="m245.525 286.846c-.012 0-.025 0-.025 0v-.769c2.102-.056 3.835.59 5.159 1.91 1.35 1.361 2.025 3.053 2.025 5.086 0 1.746-.509 3.272-1.516 4.605-1.337 1.746-3.223 2.626-5.668 2.626v-1.059c.675 0 1.261-.193 1.707-.522.573-.412.942-1.086 1.261-2.007.318-.907.535-2.076.535-3.547 0-1.76-.165-3.065-.497-3.932-.318-.88-.738-1.484-1.235-1.855-.51-.357-1.096-.536-1.746-.536zm-.025 0c-1.21.015-2.114.633-2.738 1.87-.524 1.004-.777 2.475-.777 4.372 0 2.268.37 3.973 1.16 5.045.56.756 1.362 1.113 2.355 1.113v1.059h-.012c-2.446 0-4.343-.839-5.681-2.516-1.057-1.32-1.592-2.887-1.592-4.701 0-2.035.689-3.739 2.064-5.087 1.376-1.361 3.07-2.007 5.082-1.924h.14v.769z" fill="#c19528"/><path d="m231.439 287.08v5.485h.28c.879 0 1.223-.274 1.617-.839.395-.55.65-1.361.752-2.447h.395v7.286h-.395c-.076-.797-.254-1.443-.509-1.952-.268-.509-.573-.853-.917-1.017-.344-.18-.56-.262-1.223-.262v4.083c0 .77.039 1.237.103 1.402.063.179.178.315.356.426.179.11.458.165.866.165h.828c1.287 0 1.656-.303 2.433-.907.777-.591 1.312-1.278 1.655-2.516h.382l-.599 4.192h-11.323v-.385h.472c.395 0 .726-.068.968-.206.178-.097.318-.261.408-.495.076-.165.114-.591.114-1.292v-9.156c0-.618-.013-1.003-.051-1.154-.063-.233-.191-.426-.382-.55-.254-.192-.611-.288-1.057-.288h-.472v-.386h11.617v4.11h-.383c-.204-1.003-.471-1.718-.84-2.157-.357-.44-.854-.757-1.516-.963-.382-.124-1.095-.179-2.152-.179h-1.427z" fill="#c19528"/><path d="m216.385 286.269 7.145 8.634v-5.98c0-.838-.115-1.402-.37-1.69-.343-.398-.751-.592-1.567-.577v-.386h4.318v.386c-.611.068-.713.179-.917.288-.217.124-.383.316-.497.591-.115.262-.178.729-.178 1.389v11.575h-.357l-9.807-11.575v8.84c0 .797.191 1.333.573 1.621.382.276.815.413 1.312.413h.344v.385h-5.146v-.385c.802 0 1.35-.164 1.668-.467.306-.303.471-.825.471-1.568v-9.816l-.318-.37c-.306-.371-.573-.606-.802-.73-.242-.109-.026-.179-.458-.191v-.386h4.586z" fill="#c19528"/><path d="m288.817 286.846c-.013 0-.025 0-.025 0v-.769c2.102-.056 3.834.59 5.159 1.91 1.363 1.361 2.038 3.053 2.038 5.086 0 1.746-.509 3.272-1.516 4.605-1.35 1.746-3.235 2.626-5.681 2.626v-1.059c.675 0 1.261-.193 1.707-.522.573-.412.942-1.086 1.261-2.007.318-.907.535-2.076.535-3.547 0-1.76-.166-3.065-.497-3.932-.319-.88-.739-1.484-1.236-1.855-.509-.357-1.095-.536-1.745-.536zm-.026 0c-1.21.015-2.114.633-2.738 1.87-.523 1.004-.777 2.475-.777 4.372 0 2.268.369 3.973 1.159 5.045.56.756 1.363 1.113 2.356 1.113v1.059s0 0-.013 0c-2.445 0-4.343-.839-5.68-2.516-1.058-1.32-1.592-2.887-1.592-4.701 0-2.035.688-3.739 2.063-5.087 1.376-1.361 3.07-2.007 5.083-1.924h.14v.769z" fill="#c19528"/><path d="m274.73 287.08v5.485h.281c.879 0 1.223-.274 1.618-.839.395-.55.649-1.361.751-2.447h.395v7.286h-.395c-.076-.797-.254-1.443-.509-1.952-.268-.509-.574-.853-.917-1.017-.344-.18-.56-.262-1.223-.262v4.083c0 .77.039 1.237.103 1.402.064.179.178.315.356.426.179.11.458.165.866.165h.828c1.287 0 1.656-.303 2.433-.907.777-.591 1.312-1.278 1.656-2.516h.382l-.599 4.192h-11.323v-.385h.471c.395 0 .726-.068.968-.206.178-.097.318-.261.407-.495.077-.165.114-.591.114-1.292v-9.156c0-.618-.012-1.003-.05-1.154-.064-.233-.191-.426-.382-.55-.254-.192-.611-.288-1.057-.288h-.471v-.386h11.616v4.11h-.382c-.204-1.003-.471-1.718-.84-2.157-.357-.44-.854-.757-1.516-.963-.382-.124-1.096-.179-2.153-.179h-1.428z" fill="#c19528"/><path clip-rule="evenodd" d="m254.467 291.781h.076c.726 0 1.313.618 1.313 1.361 0 .742-.586 1.348-1.313 1.348h-.076c-.726 0-1.311-.605-1.311-1.348-.001-.743.585-1.361 1.311-1.361z" fill="#c19528" fill-rule="evenodd"/><path d="m145.107 115.037h1.586v53.77h-1.586z" fill="#282828"/><path d="m361.551 115.037h1.586v53.77h-1.586z" fill="#282828"/><path d="m105.231 141.193h297.834v1.458h-297.834z" fill="#282828"/><path d="m115.602 72.061h2.827v42.977h-2.827z" fill="#282828"/><path d="m388.798 72.061h2.242v42.977h-2.242z" fill="#282828"/><path d="m388.798 168.807h2.242v42.977h-2.242z" fill="#282828"/><path d="m115.602 168.807h2.827v42.977h-2.827z" fill="#282828"/><path d="m87.102 270.62h2.577v102.388h-2.577z" fill="#2d2d2d"/><path d="m13.627 283.175h2.577v89.833h-2.577z" fill="#2d2d2d"/><path d="m41.559 241.586h2.577v62.23h-2.577z" fill="#2d2d2d" transform="matrix(-.3844 -.9232 .9232 -.3844 -192.4325 417.0785)"/><path d="m102.08 254.402c0 9.28-7.523 16.804-16.803 16.804s-16.803-7.523-16.803-16.804c0-9.279 7.523-16.803 16.803-16.803 9.28.001 16.803 7.524 16.803 16.803z" fill="#383838" stroke="#1b1b1b" stroke-miterlimit="10" stroke-width=".75"/><path d="m205.316 11.969h-62.488c-.755 0-1.372-.617-1.372-1.372 0-.755.617-1.372 1.372-1.372h62.488c.755 0 1.372.617 1.372 1.372 0 .755-.617 1.372-1.372 1.372z" fill="#212121"/><path d="m292.026 11.835h-79.49c-.755 0-1.372-.617-1.372-1.372 0-.755.617-1.372 1.372-1.372h79.49c.755 0 1.372.617 1.372 1.372 0 .754-.617 1.372-1.372 1.372z" fill="#212121"/><path d="m362.353 11.835h-62.488c-.755 0-1.372-.617-1.372-1.372 0-.755.617-1.372 1.372-1.372h62.488c.755 0 1.372.617 1.372 1.372 0 .754-.617 1.372-1.372 1.372z" fill="#212121"/><path d="m292.026 19.284h-79.49c-.755 0-1.372-.617-1.372-1.372 0-.754.617-1.372 1.372-1.372h79.49c.755 0 1.372.617 1.372 1.372 0 .754-.617 1.372-1.372 1.372z" fill="#212121"/><path d="m292.026 27.649h-79.49c-.755 0-1.372-.617-1.372-1.372 0-.754.617-1.372 1.372-1.372h79.49c.755 0 1.372.617 1.372 1.372 0 .755-.617 1.372-1.372 1.372z" fill="#212121"/><path d="m205.378 19.545h-56.844c-.72 0-1.31-.589-1.31-1.31v-.124c0-.72.589-1.31 1.31-1.31h56.844c.72 0 1.31.589 1.31 1.31v.124c0 .72-.589 1.31-1.31 1.31z" fill="#212121"/><path d="m356.665 19.284h-56.845c-.72 0-1.31-.589-1.31-1.31v-.124c0-.72.589-1.31 1.31-1.31h56.844c.72 0 1.31.589 1.31 1.31v.124c.001.72-.589 1.31-1.309 1.31z" fill="#212121"/><path d="m350.332 27.649h-50.585c-.68 0-1.237-.557-1.237-1.237v-.269c0-.681.557-1.237 1.237-1.237h50.585c.68 0 1.237.557 1.237 1.237v.269c.001.68-.556 1.237-1.237 1.237z" fill="#212121"/><path d="m205.338 27.649h-50.585c-.681 0-1.237-.557-1.237-1.237v-.269c0-.681.557-1.237 1.237-1.237h50.585c.68 0 1.237.557 1.237 1.237v.269c.001.68-.556 1.237-1.237 1.237z" fill="#212121"/><g fill="#fff"><path d="m238.708 306.676h-.892l-.211-3.998h-.014l-.659 3.998h-.666l-.63-4.021h-.014l-.239 4.021h-.892l.447-4.886h1.178l.476 3.219h.014l.518-3.219h1.163z"/><path d="m242.313 306.676h-.915l-.145-.763h-1.14l-.157.763h-.916l1.238-4.886h.95zm-1.192-1.553-.382-2.138h-.014l-.44 2.138z"/><path d="m245.659 306.676h-.995l-.517-1.451-.562 1.451h-.995l.995-2.418-.981-2.468h.974l.568 1.584.475-1.584h.95l-.849 2.476z"/><path d="m249.625 304.086c.185.112.318.256.4.431s.123.422.123.743c0 1.009-.432 1.514-1.296 1.514-.344 0-.633-.108-.867-.326s-.35-.608-.35-1.172h.895c.002.222.028.385.076.489s.147.156.294.156c.241 0 .361-.205.361-.614 0-.509-.167-.763-.503-.763h-.177v-.834c.308-.005.501-.065.58-.182.078-.117.117-.275.117-.478 0-.395-.124-.592-.372-.592-.108 0-.184.052-.226.157-.042.104-.066.271-.071.496h-.801c0-.507.101-.872.303-1.098s.486-.339.851-.339c.352 0 .627.112.829.337s.302.534.302.931c0 .276-.037.497-.109.661-.073.167-.193.327-.359.483z"/><path d="m252.734 304.086c.185.112.318.256.4.431s.123.422.123.743c0 1.009-.432 1.514-1.296 1.514-.344 0-.633-.108-.867-.326s-.35-.608-.35-1.172h.895c.002.222.028.385.076.489s.147.156.294.156c.241 0 .361-.205.361-.614 0-.509-.167-.763-.503-.763h-.177v-.834c.308-.005.501-.065.58-.182.078-.117.117-.275.117-.478 0-.395-.124-.592-.372-.592-.108 0-.184.052-.226.157-.042.104-.066.271-.071.496h-.801c0-.507.101-.872.303-1.098s.486-.339.851-.339c.352 0 .627.112.829.337s.302.534.302.931c0 .276-.037.497-.109.661-.073.167-.193.327-.359.483z"/><path d="m255.133 301.676c.375 0 .677.187.908.56s.347 1.027.347 1.964c0 .869-.105 1.515-.317 1.938-.211.424-.536.636-.972.636-.372 0-.676-.188-.912-.567-.236-.378-.354-1.027-.354-1.948 0-.98.122-1.656.364-2.026s.55-.556.922-.556h.014zm-.021.955c-.097 0-.184.063-.262.189-.077.127-.116.57-.116 1.332 0 .84.04 1.325.12 1.455.08.131.168.196.265.196.148 0 .248-.107.298-.323.051-.215.076-.578.076-1.089v-.247c0-.644-.031-1.058-.093-1.24-.063-.183-.156-.273-.281-.273z"/><path d="m262.618 306.676h-.892l-.211-3.998h-.014l-.659 3.998h-.666l-.63-4.021h-.014l-.239 4.021h-.892l.447-4.886h1.178l.476 3.219h.014l.518-3.219h1.163z"/><path d="m265.374 306.676h-2.16v-4.886h2.024v.942h-1.095v.994h.939v.907h-.939v1.08h1.23v.963z"/><path d="m269.06 304.704c0 .209-.044.477-.132.804s-.257.62-.508.879c-.251.258-.547.387-.89.387-1.061 0-1.591-.86-1.591-2.582 0-.813.138-1.437.414-1.868s.668-.647 1.177-.647c.733 0 1.175.406 1.328 1.217l-.822.403c-.016-.438-.192-.657-.527-.657-.146 0-.264.052-.355.154-.091.104-.151.246-.179.429-.027.183-.042.495-.042.938 0 .521.015.88.045 1.074s.091.34.184.438c.092.099.212.147.36.147.347 0 .532-.323.555-.971h-.575v-.946h1.557v.801z"/><path d="m272.734 306.676h-.915l-.145-.763h-1.14l-.157.763h-.916l1.238-4.886h.95zm-1.191-1.553-.382-2.138h-.014l-.44 2.138z"/><path d="m229.288 313.943v-4.922h1.646c.186 0 .36.014.523.041.164.027.31.065.439.116.226.091.403.254.532.487.129.235.193.519.193.851 0 .405-.111.741-.333 1.01-.266.328-.595.492-.986.492h-.296-.726v1.925zm.993-4.253v1.611h.502c.27 0 .458-.034.563-.103.218-.142.327-.371.327-.689 0-.282-.068-.489-.206-.621s-.361-.198-.671-.198z"/><path d="m233.033 313.943v-4.922h1.785c.379 0 .651.025.816.075.516.154.774.551.774 1.188 0 .619-.289.999-.865 1.141.44.072.688.37.744.894l.067.73c.012.142.022.258.03.349s.016.173.024.245l.061.301h-.992c-.02-.1-.038-.215-.054-.345s-.028-.224-.037-.283l-.061-.73c0-.091-.012-.181-.036-.27s-.055-.165-.091-.229c-.081-.155-.28-.232-.596-.232h-.583v2.089h-.986zm.986-4.246v1.461h.635c.544 0 .817-.236.817-.71 0-.378-.139-.61-.417-.696-.097-.036-.244-.055-.442-.055z"/><path d="m236.796 311.499c0-.705.151-1.278.454-1.72.379-.556.938-.833 1.676-.833.734 0 1.295.277 1.682.833.302.45.454 1.023.454 1.72 0 .688-.151 1.259-.454 1.714-.371.56-.932.84-1.682.84-.379 0-.703-.067-.971-.201-.269-.135-.503-.348-.705-.639-.303-.437-.454-1.008-.454-1.714zm2.129-1.795c-.347 0-.615.154-.804.464-.19.31-.285.754-.285 1.331 0 .574.095 1.016.285 1.325.189.31.458.464.804.464.351 0 .619-.152.805-.457.186-.306.278-.749.278-1.332 0-.573-.093-1.016-.278-1.327s-.454-.468-.805-.468z"/><path d="m241.444 312.605v-.724h3.41v.724z"/><path d="m249.052 310.373h-.992c-.06-.45-.308-.676-.744-.676-.335 0-.601.161-.799.484s-.296.761-.296 1.311c0 1.211.425 1.816 1.276 1.816.117 0 .226-.007.327-.021s.216-.041.345-.082v-1.181h-.847v-.696h1.809v2.437c-.084.027-.165.053-.242.075-.036.01-.093.023-.169.041-.206.05-.426.091-.66.123-.234.031-.458.048-.671.048-.238 0-.438-.017-.599-.048-.162-.032-.329-.091-.502-.178-.338-.168-.605-.452-.798-.854-.194-.4-.291-.869-.291-1.406 0-.851.188-1.505.566-1.962.377-.458.914-.687 1.612-.687.807 0 1.335.318 1.585.956.036.096.06.174.072.235s.018.152.018.265z"/><path d="m249.85 313.943v-4.922h2.934v.744h-1.942v1.276h1.845v.758h-1.845v1.399h1.99v.744h-2.982z"/><path d="m252.924 313.943 1.536-4.922h1.283l1.537 4.922h-.974l-.333-1.092h-1.809l-.338 1.092zm2.153-4.089-.714 2.28h1.41z"/><path d="m257.564 313.943v-4.922h1.785c.379 0 .651.025.816.075.516.154.774.551.774 1.188 0 .619-.289.999-.865 1.141.44.072.688.37.744.894l.067.73c.012.142.022.258.03.349s.016.173.024.245l.061.301h-.992c-.02-.1-.038-.215-.054-.345s-.028-.224-.037-.283l-.061-.73c0-.091-.012-.181-.036-.27s-.055-.165-.091-.229c-.081-.155-.28-.232-.596-.232h-.583v2.089h-.986zm.986-4.246v1.461h.635c.544 0 .817-.236.817-.71 0-.378-.139-.61-.417-.696-.097-.036-.244-.055-.442-.055z"/><path d="m263.057 312.435h.956v.145c0 .229.073.415.218.557.145.143.334.214.569.214.229 0 .415-.063.556-.191s.212-.297.212-.506c0-.314-.153-.529-.46-.643l-.29-.103-.369-.137-.466-.185c-.182-.078-.327-.157-.436-.24-.266-.204-.399-.526-.399-.964 0-.469.142-.831.427-1.087.284-.255.69-.383 1.219-.383.476 0 .853.094 1.131.28.173.104.316.266.43.484.048.091.083.186.105.283.022.098.034.22.034.365h-.95c0-.228-.066-.405-.199-.532-.133-.128-.317-.191-.551-.191-.209 0-.379.062-.508.185s-.193.287-.193.492c0 .196.07.358.212.485.101.087.27.174.508.26l.412.137.429.157c.597.21.896.627.896 1.252 0 .975-.573 1.463-1.718 1.463-1.182 0-1.772-.51-1.772-1.529v-.068z"/><path d="m267.086 313.943v-4.922h1.646c.186 0 .36.014.523.041.164.027.31.065.439.116.226.091.403.254.532.487.129.235.193.519.193.851 0 .405-.111.741-.333 1.01-.266.328-.595.492-.986.492h-.296-.726v1.925zm.992-4.253v1.611h.502c.27 0 .458-.034.563-.103.218-.142.327-.371.327-.689 0-.282-.068-.489-.206-.621s-.361-.198-.671-.198z"/><path d="m270.83 313.943v-4.922h2.934v.744h-1.942v1.276h1.845v.758h-1.845v1.399h1.99v.744h-2.982z"/><path d="m277.914 310.571h-.95c0-.232-.067-.421-.2-.566-.133-.146-.301-.219-.502-.219-.331 0-.586.158-.768.475s-.272.764-.272 1.341c0 .523.085.927.254 1.209s.411.423.726.423c.246 0 .438-.076.578-.229s.208-.367.208-.646h.95c0 .155-.005.263-.015.324-.01.062-.037.154-.082.276-.048.164-.108.303-.178.417-.071.113-.157.214-.257.3-.125.109-.3.198-.526.267-.226.068-.456.103-.689.103-.633 0-1.126-.218-1.479-.652-.353-.435-.53-1.043-.53-1.826 0-.823.183-1.471.548-1.941.365-.472.87-.707 1.515-.707.521 0 .929.143 1.225.427s.444.691.444 1.224z"/><path d="m200.76 320.943 1.468-4.922h1.225l1.467 4.922h-.93l-.318-1.092h-1.728l-.324 1.092zm2.057-4.089-.682 2.28h1.346z"/><path d="m205.192 320.943v-4.922h1.548c.328 0 .59.025.789.075s.392.141.581.272c.266.188.471.462.615.826s.217.788.217 1.27c0 .523-.079.976-.237 1.355-.158.38-.389.666-.693.856-.169.105-.341.176-.514.212s-.435.055-.786.055h-1.52zm.947-4.253v3.584h.572c.42 0 .73-.146.93-.437.2-.292.3-.747.3-1.366 0-.719-.146-1.224-.439-1.515-.104-.096-.213-.164-.326-.205-.114-.041-.261-.062-.442-.062h-.595z"/><path d="m208.954 316.021h.976l1.029 3.945 1.034-3.945h.873l-1.317 4.922h-1.266z"/><path d="m212.31 320.943 1.468-4.922h1.225l1.467 4.922h-.93l-.318-1.092h-1.728l-.324 1.092zm2.057-4.089-.682 2.28h1.346z"/><path d="m216.742 320.943v-4.922h1.317l1.699 3.639-.006-3.639h.792v4.922h-1.225l-1.768-3.714.006 3.714z"/><path d="m224.641 317.571h-.907c0-.232-.063-.421-.191-.566-.127-.146-.287-.219-.479-.219-.316 0-.561.158-.734.475s-.26.764-.26 1.341c0 .523.081.927.243 1.209s.393.423.693.423c.235 0 .419-.076.552-.229s.199-.367.199-.646h.907c0 .155-.005.263-.015.324-.009.062-.036.154-.078.276-.046.164-.103.303-.17.417-.067.113-.149.214-.246.3-.12.109-.287.198-.503.267s-.435.103-.659.103c-.604 0-1.076-.218-1.413-.652s-.505-1.043-.505-1.826c0-.823.174-1.471.523-1.941.348-.472.831-.707 1.447-.707.497 0 .887.143 1.17.427s.426.691.426 1.224z"/><path d="m225.172 320.943v-4.922h2.802v.744h-1.855v1.276h1.763v.758h-1.763v1.399h1.901v.744h-2.848z"/><path d="m228.541 320.943v-4.922h1.548c.328 0 .59.025.789.075s.392.141.581.272c.266.188.471.462.615.826s.217.788.217 1.27c0 .523-.079.976-.237 1.355-.158.38-.389.666-.693.856-.169.105-.341.176-.514.212s-.435.055-.786.055h-1.52zm.947-4.253v3.584h.572c.42 0 .73-.146.93-.437.2-.292.3-.747.3-1.366 0-.719-.146-1.224-.439-1.515-.104-.096-.213-.164-.326-.205-.114-.041-.261-.062-.442-.062h-.595z"/><path d="m234.509 320.943v-4.922h2.802v.744h-1.855v1.276h1.763v.758h-1.763v1.399h1.901v.744h-2.848z"/><path d="m237.878 320.943v-4.922h1.317l1.699 3.639-.006-3.639h.792v4.922h-1.225l-1.768-3.714.006 3.714z"/><path d="m241.968 316.807v-.785h3.363v.785h-1.202v4.137h-.959v-4.137z"/><path d="m245.626 320.943v-4.922h2.802v.744h-1.855v1.276h1.763v.758h-1.763v1.399h1.901v.744h-2.848z"/><path d="m248.994 320.943v-4.922h1.705c.362 0 .622.025.78.075.493.154.74.551.74 1.188 0 .619-.275.999-.826 1.141.419.072.657.37.71.894l.063.73c.012.142.021.258.029.349s.016.173.023.245l.058.301h-.948c-.019-.1-.037-.215-.052-.345-.016-.13-.027-.224-.035-.283l-.058-.73c0-.091-.012-.181-.035-.27s-.052-.165-.087-.229c-.078-.155-.267-.232-.569-.232h-.557v2.089h-.941zm.942-4.246v1.461h.606c.52 0 .78-.236.78-.71 0-.378-.133-.61-.399-.696-.092-.036-.233-.055-.422-.055z"/><path d="m252.369 316.807v-.785h3.363v.785h-1.202v4.137h-.959v-4.137z"/><path d="m255.044 320.943 1.468-4.922h1.225l1.467 4.922h-.93l-.318-1.092h-1.728l-.324 1.092zm2.057-4.089-.682 2.28h1.346z"/><path d="m259.475 320.943v-4.922h.953v4.922z"/><path d="m261.128 320.943v-4.922h1.317l1.699 3.639-.006-3.639h.792v4.922h-1.225l-1.768-3.714.006 3.714z"/><path d="m265.629 320.943v-4.922h1.479l1.034 3.646 1.133-3.646h1.404v4.922h-.884v-3.952l-1.254 3.952h-.971l-1.144-3.938v3.938z"/><path d="m271.383 320.943v-4.922h2.802v.744h-1.855v1.276h1.763v.758h-1.763v1.399h1.901v.744h-2.848z"/><path d="m274.752 320.943v-4.922h1.317l1.699 3.639-.006-3.639h.792v4.922h-1.225l-1.768-3.714.006 3.714z"/><path d="m278.843 316.807v-.785h3.363v.785h-1.202v4.137h-.959v-4.137z"/><path d="m283.962 319.435h.913v.145c0 .229.069.415.208.557.139.143.319.214.543.214.22 0 .396-.063.532-.191.135-.128.202-.297.202-.506 0-.314-.146-.529-.439-.643l-.277-.103-.352-.137-.445-.185c-.173-.078-.312-.157-.416-.24-.254-.204-.381-.526-.381-.964 0-.469.136-.831.408-1.087.271-.255.66-.383 1.164-.383.455 0 .815.094 1.081.28.166.104.302.266.41.484.046.091.08.186.101.283s.032.22.032.365h-.907c0-.228-.063-.405-.19-.532-.127-.128-.302-.191-.526-.191-.2 0-.362.062-.485.185s-.185.287-.185.492c0 .196.067.358.203.485.096.087.258.174.485.26l.393.137.41.157c.57.21.855.627.855 1.252 0 .975-.547 1.463-1.641 1.463-1.128 0-1.693-.51-1.693-1.529v-.068z"/><path d="m287.203 316.021h1.017l1.051 2.26 1.017-2.26h.924l-1.485 3.16v1.762h-.965v-1.769z"/><path d="m291.172 319.435h.913v.145c0 .229.069.415.208.557.139.143.319.214.543.214.22 0 .396-.063.532-.191.135-.128.202-.297.202-.506 0-.314-.146-.529-.439-.643l-.277-.103-.352-.137-.445-.185c-.173-.078-.312-.157-.416-.24-.254-.204-.381-.526-.381-.964 0-.469.136-.831.408-1.087.271-.255.66-.383 1.164-.383.455 0 .815.094 1.081.28.166.104.302.266.41.484.046.091.08.186.101.283s.032.22.032.365h-.907c0-.228-.063-.405-.19-.532-.127-.128-.302-.191-.526-.191-.2 0-.362.062-.485.185s-.185.287-.185.492c0 .196.067.358.203.485.096.087.258.174.485.26l.393.137.41.157c.57.21.855.627.855 1.252 0 .975-.547 1.463-1.641 1.463-1.128 0-1.693-.51-1.693-1.529v-.068z"/><path d="m294.391 316.807v-.785h3.363v.785h-1.202v4.137h-.959v-4.137z"/><path d="m298.048 320.943v-4.922h2.802v.744h-1.855v1.276h1.763v.758h-1.763v1.399h1.901v.744h-2.848z"/><path d="m301.417 320.943v-4.922h1.479l1.034 3.646 1.133-3.646h1.404v4.922h-.884v-3.952l-1.254 3.952h-.971l-1.144-3.938v3.938z"/><path d="m38.578 299.841v-4.231h1.477c.313 0 .539.021.676.064.427.133.641.474.641 1.021 0 .532-.239.858-.716.979.364.063.569.319.616.77l.055.628c.01.121.018.221.025.299s.013.149.02.212l.05.258h-.822c-.017-.086-.032-.185-.045-.297-.013-.111-.023-.192-.03-.243l-.05-.628c0-.078-.01-.155-.03-.231-.02-.077-.045-.143-.075-.197-.067-.133-.231-.199-.493-.199h-.483v1.796h-.816zm.815-3.651v1.256h.526c.451 0 .676-.203.676-.61 0-.325-.115-.524-.345-.599-.08-.031-.202-.047-.366-.047z"/><path d="m41.856 299.841v-4.231h2.428v.64h-1.607v1.098h1.527v.651h-1.527v1.203h1.647v.64h-2.468z"/><path d="m44.59 298.544h.791v.124c0 .197.06.356.18.479s.277.184.471.184c.19 0 .344-.055.46-.164.117-.11.175-.255.175-.436 0-.271-.127-.454-.381-.553l-.24-.088-.305-.117-.385-.159c-.15-.066-.271-.135-.361-.206-.22-.176-.33-.452-.33-.828 0-.404.118-.716.353-.935.235-.22.571-.329 1.008-.329.394 0 .706.08.937.24.143.09.262.229.355.417.04.078.069.159.088.243.018.084.027.188.027.314h-.786c0-.196-.055-.349-.166-.458-.11-.109-.262-.164-.456-.164-.173 0-.313.053-.42.158-.107.106-.16.247-.16.424 0 .168.059.308.175.417.083.074.224.148.42.224l.34.117.355.135c.494.181.741.539.741 1.076 0 .839-.474 1.258-1.421 1.258-.978 0-1.467-.438-1.467-1.314v-.059z"/><path d="m47.923 299.841v-4.231h2.428v.64h-1.607v1.098h1.527v.651h-1.527v1.203h1.647v.64h-2.468z"/><path d="m50.486 296.284v-.675h2.914v.675h-1.041v3.557h-.831v-3.557z"/><path d="m37.744 353.341v-4.231h1.362c.153 0 .298.012.433.035s.256.057.363.1c.187.078.333.218.44.42.107.201.16.445.16.73 0 .349-.092.638-.275.868-.22.282-.492.423-.816.423h-.245-.601v1.655zm.821-3.656v1.385h.416c.223 0 .378-.029.465-.088.18-.121.271-.319.271-.593 0-.242-.057-.421-.17-.534s-.299-.17-.556-.17z"/><path d="m40.708 351.239c0-.606.125-1.099.375-1.479.314-.478.776-.716 1.387-.716.607 0 1.071.238 1.392.716.25.388.375.88.375 1.479 0 .591-.125 1.082-.375 1.474-.307.481-.771.722-1.392.722-.313 0-.582-.058-.803-.173-.222-.115-.417-.299-.583-.549-.251-.376-.376-.866-.376-1.474zm1.762-1.543c-.287 0-.509.133-.666.398-.157.267-.235.648-.235 1.145 0 .493.078.873.235 1.139.157.267.378.399.666.399.291 0 .512-.131.666-.394.153-.262.23-.644.23-1.145 0-.492-.077-.873-.23-1.142-.154-.266-.376-.4-.666-.4z"/><path d="m44.362 349.109h.801l.601 3.146.736-3.146h1.016l.741 3.146.611-3.146h.716l-.821 4.231h-1.011l-.781-3.163-.741 3.163h-1.041z"/><path d="m49.893 353.341v-4.231h2.428v.64h-1.607v1.098h1.527v.651h-1.527v1.203h1.647v.64h-2.468z"/><path d="m52.811 353.341v-4.231h1.477c.313 0 .539.021.676.064.427.133.641.474.641 1.021 0 .532-.239.858-.716.979.364.063.569.319.616.77l.055.628c.01.121.018.221.025.299s.013.149.02.212l.05.258h-.821c-.017-.086-.032-.185-.045-.297-.013-.111-.023-.192-.03-.243l-.05-.628c0-.078-.01-.155-.03-.231-.02-.077-.045-.143-.075-.197-.067-.133-.231-.199-.493-.199h-.483v1.796h-.817zm.816-3.651v1.256h.526c.451 0 .676-.203.676-.61 0-.325-.115-.524-.345-.599-.08-.031-.202-.047-.366-.047z"/><path d="m36.601 357.114c0-.606.119-1.099.358-1.479.299-.478.739-.716 1.321-.716.579 0 1.021.238 1.326.716.238.388.357.88.357 1.479 0 .591-.119 1.082-.357 1.474-.292.481-.734.722-1.326.722-.299 0-.554-.058-.765-.173-.212-.115-.397-.299-.556-.549-.238-.376-.358-.866-.358-1.474zm1.679-1.543c-.273 0-.485.133-.634.398-.149.267-.224.648-.224 1.145 0 .493.075.873.224 1.139.149.267.361.399.634.399.277 0 .488-.131.634-.394.146-.262.22-.644.22-1.145 0-.492-.073-.873-.22-1.142-.146-.266-.357-.4-.634-.4z"/><path d="m40.417 359.216v-4.231h1.087l1.402 3.128-.005-3.128h.653v4.231h-1.011l-1.459-3.192.005 3.192z"/><path d="m44.362 358.065v-.622h3.018v.622z"/><path d="m48.325 357.114c0-.606.119-1.099.358-1.479.299-.478.739-.716 1.321-.716.579 0 1.021.238 1.326.716.238.388.357.88.357 1.479 0 .591-.119 1.082-.357 1.474-.292.481-.734.722-1.326.722-.299 0-.554-.058-.765-.173-.212-.115-.397-.299-.556-.549-.239-.376-.358-.866-.358-1.474zm1.678-1.543c-.273 0-.485.133-.634.398-.149.267-.224.648-.224 1.145 0 .493.075.873.224 1.139.149.267.361.399.634.399.277 0 .488-.131.634-.394.146-.262.22-.644.22-1.145 0-.492-.073-.873-.22-1.142-.145-.266-.357-.4-.634-.4z"/><path d="m52.14 359.216v-4.231h2.251v.675h-1.464v1.086h1.359v.675h-1.359v1.796h-.787z"/><path d="m54.687 359.216v-4.231h2.251v.675h-1.464v1.086h1.359v.675h-1.359v1.796h-.787z"/><path d="m416.954 358.684v-4.605h1.314l.919 3.411 1.006-3.411h1.248v4.605h-.786v-3.698l-1.114 3.698h-.862l-1.017-3.686v3.686z"/><path d="m422.067 358.684v-4.605h2.49v.696h-1.648v1.194h1.566v.709h-1.566v1.31h1.689v.696z"/><path d="m425.06 358.684v-4.605h1.314l.919 3.411 1.006-3.411h1.248v4.605h-.786v-3.698l-1.114 3.698h-.862l-1.017-3.686v3.686z"/><path d="m430.035 356.396c0-.659.128-1.196.385-1.609.321-.52.795-.779 1.422-.779.623 0 1.098.26 1.427.779.257.422.385.958.385 1.609 0 .644-.128 1.178-.385 1.604-.315.523-.79.786-1.427.786-.322 0-.597-.063-.824-.188-.228-.126-.427-.325-.598-.598-.257-.408-.385-.943-.385-1.604zm1.807-1.679c-.295 0-.522.145-.683.435s-.241.705-.241 1.245c0 .537.08.95.241 1.239.161.29.388.435.683.435.298 0 .525-.143.683-.428s.236-.7.236-1.246c0-.536-.079-.95-.236-1.242-.158-.292-.386-.438-.683-.438z"/><path d="m434.142 358.684v-4.605h1.514c.322 0 .553.023.693.07.438.145.657.516.657 1.111 0 .579-.245.935-.734 1.066.373.068.584.348.632.837l.056.684c.01.132.018.241.026.326.007.085.014.162.02.229l.051.281h-.842c-.017-.094-.033-.201-.046-.322-.014-.122-.024-.21-.031-.266l-.051-.684c0-.085-.01-.169-.031-.252s-.047-.154-.077-.214c-.069-.145-.237-.217-.506-.217h-.495v1.954h-.836zm.837-3.973v1.366h.539c.462 0 .693-.221.693-.664 0-.354-.118-.57-.354-.651-.082-.034-.207-.051-.375-.051z"/><path d="m437.012 354.078h.903l.935 2.114.903-2.114h.822l-1.32 2.957v1.648h-.857v-1.654z"/><path d="m446.616 355.528h-.872c0-.218-.061-.394-.183-.53s-.276-.204-.461-.204c-.304 0-.539.147-.705.443-.167.296-.25.715-.25 1.255 0 .49.078.867.233 1.131.155.265.377.396.666.396.226 0 .403-.071.53-.214.128-.143.192-.344.192-.604h.872c0 .145-.005.245-.014.303s-.034.144-.075.259c-.044.153-.099.283-.164.39-.064.106-.143.2-.236.281-.115.103-.276.186-.483.249-.208.063-.418.096-.633.096-.581 0-1.034-.203-1.357-.61-.324-.406-.486-.976-.486-1.708 0-.771.167-1.377.502-1.817s.799-.661 1.391-.661c.478 0 .852.133 1.125.399.272.265.408.648.408 1.146z"/><path d="m446.638 358.684 1.41-4.605h1.177l1.411 4.605h-.894l-.306-1.022h-1.66l-.311 1.022zm1.977-3.827-.655 2.134h1.294z"/><path d="m450.898 358.684v-4.605h1.638c.348 0 .598.023.75.07.474.145.71.516.71 1.111 0 .579-.265.935-.794 1.066.403.068.631.348.683.837l.061.684c.011.132.02.241.028.326.007.085.015.162.022.229l.056.281h-.911c-.019-.094-.035-.201-.05-.322-.015-.122-.026-.21-.034-.266l-.055-.684c0-.085-.011-.169-.034-.252s-.05-.154-.083-.214c-.075-.145-.257-.217-.547-.217h-.536v1.954h-.904zm.904-3.973v1.366h.583c.5 0 .75-.221.75-.664 0-.354-.128-.57-.383-.651-.089-.034-.224-.051-.405-.051z"/><path d="m454.534 358.684v-4.605h1.488c.315 0 .567.023.758.07.19.047.376.132.558.256.255.174.452.432.591.772.139.341.208.737.208 1.188 0 .489-.076.912-.228 1.268s-.374.623-.667.802c-.163.098-.328.164-.494.198s-.418.051-.755.051zm.911-3.98v3.354h.55c.403 0 .701-.137.894-.409s.289-.698.289-1.277c0-.673-.141-1.146-.422-1.418-.1-.089-.204-.153-.313-.191s-.251-.058-.425-.058h-.573z"/><path d="m461.231 358.684v-4.605h.916v4.605z"/><path d="m462.819 358.684v-4.605h1.266l1.632 3.404-.005-3.404h.76v4.605h-1.177l-1.699-3.475.005 3.475z"/></g><path d="m445.151 359.167h-6.875l3.437 5.083z" fill="#fefefe"/></svg>