<svg viewBox="0 0 456.072 332.454" xmlns="http://www.w3.org/2000/svg" xmlns:xlink="http://www.w3.org/1999/xlink"><clipPath id="a"><path d="m0 332.454v-300h436.413v300z"/></clipPath><clipPath id="b"><path d="m378.306 72.865h38.108v38.109h-38.108z"/></clipPath><clipPath id="c"><path d="m347.019 121.843h38.297v38.297h-38.297z"/></clipPath><clipPath id="d"><path d="m312.655 171.168h36.76v36.76h-36.76z"/></clipPath><clipPath id="e"><path d="m267.478 221.343h37.544v37.545h-37.544z"/></clipPath><path clip-path="url(#a)" d="m436.413 326.036a6.419 6.419 0 0 1 -6.415 6.418h-423.583a6.417 6.417 0 0 1 -6.415-6.418v-287.165a6.415 6.415 0 0 1 6.415-6.417h423.583a6.417 6.417 0 0 1 6.415 6.417z" fill="#383838"/><path clip-path="url(#a)" d="m179.621 142.643c0 31.259-25.341 56.602-56.602 56.602-31.263 0-56.602-25.343-56.602-56.602 0-31.262 25.339-56.604 56.602-56.604 31.26 0 56.602 25.343 56.602 56.604" fill="#2d2d2d"/><path clip-path="url(#a)" d="m145.663 143.398c0 12.506-10.14 22.642-22.644 22.642s-22.639-10.136-22.639-22.642c0-12.504 10.134-22.641 22.639-22.641s22.644 10.137 22.644 22.641" fill="#3f3f3f"/><path clip-path="url(#a)" d="m345.595 119.711c16.526-8.72 22.521-18.991 18.423-33.264-4.1-14.271-18.992-22.52-33.265-18.419-34.719 11.124-76.886 52.02-107.645 106.858-7.36 12.9-4.547 29.107 7.908 37.193 12.459 8.085 29.688 4.902 37.195-7.912 25.558-43.647 37.732-62.424 77.384-84.456" fill="#2d2d2d"/><path clip-path="url(#a)" d="m264.056 189.103c0 9.927-8.047 17.973-17.974 17.973-9.928 0-17.968-8.046-17.968-17.973 0-9.923 8.041-17.972 17.968-17.972s17.974 8.049 17.974 17.972m24.02-38.023c0 9.927-8.042 17.972-17.97 17.972-9.926 0-17.973-8.044-17.973-17.972 0-9.927 8.047-17.973 17.973-17.973 9.928.001 17.97 8.046 17.97 17.973m31.61-33.287c0 9.927-8.047 17.972-17.969 17.972-9.928 0-17.975-8.044-17.975-17.972 0-9.924 8.047-17.973 17.975-17.973 9.922.001 17.969 8.049 17.969 17.973m36.983-24.844c0 9.926-8.042 17.972-17.971 17.972-9.926 0-17.973-8.046-17.973-17.972 0-9.927 8.047-17.973 17.973-17.973 9.929 0 17.971 8.046 17.971 17.973m-175.997-12.896a5.467 5.467 0 0 1 -4.699-6.149 5.47 5.47 0 0 1 6.146-4.695l17.298 2.313a5.48 5.48 0 0 1 4.704 6.149 5.479 5.479 0 0 1 -6.153 4.698zm73.553 0a5.471 5.471 0 1 0 -1.453-10.844l-17.3 2.313a5.476 5.476 0 0 0 -4.697 6.149 5.475 5.475 0 0 0 6.146 4.698z" fill="#494949"/><path clip-path="url(#a)" d="m21.356 52.231h3.038v-4.884l5.492 4.884h3.015v-8.173h-3.032v4.889l-5.491-4.889h-3.021v8.173zm11.885 0h3.031v-3.874l4.565 3.874h3.606l-4.915-4.205 4.832-3.969h-3.607l-4.48 3.621v-3.621h-3.031v8.174zm-12.387-5.896v-2.277h-8.848c-1.538-.024-2.527 1.173-2.527 2.613 0 1.442.95 2.641 2.527 2.614h5.605c.207 0 .379.148.379.336 0 .187-.172.335-.379.335h-8.047v2.275h8.846c1.544.028 2.528-1.168 2.528-2.61 0-1.444-.945-2.641-2.528-2.613h-5.604c-.207 0-.38-.151-.38-.337s.173-.336.38-.336zm209.591 233.591v3.966h-.29c-.336-1.092-.851-1.913-1.544-2.468-.677-.564-1.085-.855-1.901-.855-.772 0-1.421.246-1.935.713-.525.479-.883 1.131-1.102 1.975-.213.846-.32 1.712-.32 2.601 0 1.076.118 2.019.353 2.83.235.822.614 1.256 1.14 1.634.526.376.945.564 1.668.564.258 0 .514-.021.772-.076a5.13 5.13 0 0 0 .749-.254v-2.868c0-.44-.028-.731-.078-.865a.884.884 0 0 0 -.353-.344 1.215 1.215 0 0 0 -.649-.168h-.268v-.299h5.062v.299c-.38.035-.645.09-.8.179-.156.079-.268.225-.353.422-.039.112-.062.367-.066.776l-.021 2.778c-.661.31-1.265.576-1.987.745-.721.152-1.472.286-2.242.286-.991 0-1.616-.077-2.266-.366-.66-.287-1.226-.552-1.729-1.02a5.812 5.812 0 0 1 -1.174-1.6 6.15 6.15 0 0 1 -.536-2.567c0-1.688.559-3.109 1.66-4.271 1.09-1.17 2.478-1.746 4.143-1.746.762 0 1.444.209 2.154.5.504.21.799.311.894.311a.57.57 0 0 0 .392-.168c.124-.111.234-.32.337-.643h.29zm-18.685.722c-.978.011-1.712.512-2.214 1.51-.419.811-.626 1.999-.626 3.531 0 1.835.295 3.211.934 4.077.458.609 1.102.901 1.907.901v.852h-.012c-1.973 0-3.506-.677-4.591-2.032-.849-1.066-1.28-2.33-1.28-3.798 0-1.644.553-3.02 1.66-4.107 1.113-1.102 2.484-1.622 4.111-1.558h.111zm.023 0h-.022v-.624c1.695-.042 3.098.479 4.167 1.546 1.09 1.1 1.632 2.468 1.632 4.107 0 1.414-.407 2.646-1.219 3.724-1.084 1.409-2.606 2.118-4.58 2.118v-.852c.543 0 1.018-.157 1.376-.425.465-.334.76-.877 1.023-1.62.252-.732.431-1.678.431-2.866 0-1.421-.134-2.479-.402-3.177-.258-.71-.6-1.199-.996-1.498a2.426 2.426 0 0 0 -1.41-.433m-11.381.189v4.433h.224c.71 0 .989-.224 1.308-.679.32-.446.521-1.099.605-1.979h.317v5.887h-.317c-.062-.646-.202-1.166-.409-1.577-.219-.412-.464-.688-.745-.822-.272-.142-.452-.21-.983-.21v3.297c0 .621.027 1 .079 1.133a.672.672 0 0 0 .291.347c.145.087.369.131.699.131h.671c1.035 0 1.338-.242 1.963-.731.626-.479 1.058-1.036 1.335-2.034h.31l-.481 3.388h-9.15v-.312h.38c.318 0 .587-.053.783-.165a.73.73 0 0 0 .33-.401c.062-.132.095-.476.095-1.04v-7.396c0-.5-.011-.815-.044-.934a.73.73 0 0 0 -.309-.445c-.206-.157-.491-.23-.855-.23h-.38v-.315h9.384v3.322h-.307c-.162-.812-.38-1.389-.682-1.742-.286-.357-.689-.611-1.219-.78-.313-.101-.89-.143-1.74-.143h-1.153zm-12.164-.656 5.771 6.976v-4.834c0-.675-.088-1.13-.295-1.364-.281-.322-.609-.479-1.27-.464v-.313h3.49v.313c-.493.052-.576.142-.738.232a.967.967 0 0 0 -.404.476c-.093.212-.144.588-.144 1.12v9.354h-.291l-7.919-9.354v7.143c0 .645.157 1.075.464 1.311.308.222.661.332 1.057.332h.279v.312h-4.154v-.312c.643 0 1.089-.13 1.347-.377.246-.243.38-.666.38-1.266v-7.93l-.257-.298c-.246-.301-.465-.489-.649-.59-.196-.089-.021-.146-.369-.153v-.313h3.702zm58.492.467c-.974.011-1.706.512-2.209 1.51-.425.811-.632 1.999-.632 3.531 0 1.835.302 3.211.94 4.077.452.609 1.101.901 1.9.901v.852h-.011c-1.974 0-3.506-.677-4.586-2.032-.855-1.066-1.286-2.33-1.286-3.798 0-1.644.553-3.02 1.666-4.107 1.107-1.102 2.478-1.622 4.105-1.558h.111v.624zm.023 0h-.022v-.624c1.7-.042 3.099.479 4.166 1.546 1.103 1.1 1.65 2.468 1.65 4.107 0 1.414-.414 2.646-1.225 3.724-1.091 1.409-2.612 2.118-4.592 2.118v-.852c.549 0 1.02-.157 1.382-.425.464-.334.76-.877 1.017-1.62.26-.732.432-1.678.432-2.866 0-1.421-.134-2.479-.402-3.177-.258-.71-.594-1.199-.995-1.498a2.414 2.414 0 0 0 -1.411-.433" fill="#e8e2e9"/><path clip-path="url(#a)" d="m235.372 280.837v4.433h.224c.716 0 .989-.224 1.31-.679.318-.446.525-1.099.608-1.979h.318v5.887h-.318c-.062-.646-.207-1.166-.414-1.577-.212-.412-.464-.688-.738-.822-.279-.142-.452-.21-.989-.21v3.297c0 .621.033 1 .084 1.133.05.146.14.258.285.347.146.087.375.131.699.131h.671c1.041 0 1.338-.242 1.97-.731.626-.479 1.056-1.036 1.335-2.034h.308l-.485 3.388h-9.144v-.312h.38c.318 0 .581-.053.782-.165a.728.728 0 0 0 .331-.401c.062-.132.088-.476.088-1.04v-7.396c0-.5-.011-.815-.039-.934a.724.724 0 0 0 -.313-.445c-.199-.157-.491-.23-.849-.23h-.38v-.315h9.384v3.322h-.313c-.162-.812-.381-1.389-.677-1.742-.291-.357-.688-.611-1.225-.78-.308-.101-.884-.143-1.74-.143h-1.153zm-16.369 3.798h.062c.587 0 1.063.501 1.063 1.099 0 .6-.475 1.088-1.063 1.088h-.062c-.587 0-1.058-.488-1.058-1.088 0-.598.47-1.099 1.058-1.099" fill="#e8e2e9"/><path clip-path="url(#a)" d="m218.203 58.208c26.888 0 211.795-25.754 211.795-25.754h-423.583s185.47 25.754 211.788 25.754" fill="#494949"/><path d="m177.458 218.967h-114.436a3.765 3.765 0 0 0 -3.764 3.765v34.503a3.765 3.765 0 0 0 3.764 3.765h114.436a3.765 3.765 0 0 0 3.765-3.765v-34.503a3.765 3.765 0 0 0 -3.765-3.765" fill="#ccc"/><g fill="#35495e"><path d="m63.022 218.967v1.242h114.436a2.527 2.527 0 0 1 2.523 2.523v34.503a2.527 2.527 0 0 1 -2.523 2.523h-114.436a2.526 2.526 0 0 1 -2.522-2.523v-34.503a2.527 2.527 0 0 1 2.522-2.523v-2.484a5.007 5.007 0 0 0 -5.006 5.007v34.503a5.007 5.007 0 0 0 5.006 5.007h114.436a5.007 5.007 0 0 0 5.006-5.007v-34.503a5.008 5.008 0 0 0 -5.006-5.007h-114.436z"/><path d="m83.742 258.864h-7.201c-2.318 0-3.158-1.89-3.158-3.16v-8.842h-8.844c-2.319 0-3.16-1.89-3.16-3.16v-7.2c0-2.317 1.89-3.159 3.16-3.159h8.844v-8.843c0-2.319 1.888-3.16 3.158-3.16h7.201c2.319 0 3.16 1.89 3.16 3.16v8.843h8.841c1.216 0 2.181.531 2.718 1.499.209.379.461 1.126.434 1.659h.008v7.2c0 2.318-1.89 3.16-3.161 3.16h-8.841v8.842c.001 2.319-1.889 3.161-3.159 3.161zm-19.203-24.004c-.381.007-1.642.141-1.642 1.641v7.2c.006.38.141 1.641 1.642 1.641h10.361v10.361c.005.381.141 1.642 1.64 1.642h7.197c.389-.006 1.645-.144 1.645-1.642v-10.36h10.36c.381-.006 1.642-.142 1.642-1.641v-7.211c-.005-.291-.113-1.63-1.641-1.63h-10.359v-10.361c-.006-.381-.141-1.642-1.641-1.642h-7.201c-.381.006-1.64.141-1.64 1.642v10.36z"/><path d="m80.143 243.799a3.7 3.7 0 0 1 -3.695-3.697 3.7 3.7 0 0 1 3.695-3.695 3.7 3.7 0 0 1 3.696 3.695 3.7 3.7 0 0 1 -3.696 3.697zm0-5.874a2.18 2.18 0 0 0 -2.176 2.177 2.18 2.18 0 0 0 2.176 2.179 2.18 2.18 0 0 0 2.177-2.179 2.18 2.18 0 0 0 -2.177-2.177zm-.001-13.363-3.043 4.743h6.088z"/><path d="m83.186 230.065h-6.088a.76.76 0 0 1 -.639-1.17l3.043-4.743c.279-.437.999-.436 1.278 0l3.045 4.743a.76.76 0 0 1 -.639 1.17zm-4.698-1.52h3.308l-1.655-2.577zm-13.946 11.557 4.744 3.042v-6.086z"/><path d="m69.286 243.904a.765.765 0 0 1 -.41-.12l-4.743-3.042a.758.758 0 0 1 0-1.279l4.743-3.044a.761.761 0 0 1 1.169.639v6.086a.761.761 0 0 1 -.759.76zm-3.337-3.802 2.577 1.653v-3.307zm29.735-.001-4.744-3.043v6.086z"/><path d="m90.941 243.904a.762.762 0 0 1 -.759-.76v-6.086a.759.759 0 0 1 1.17-.639l4.744 3.043a.76.76 0 0 1 0 1.279l-4.745 3.043a.767.767 0 0 1 -.41.12zm.76-5.456v3.308l2.578-1.654zm-11.559 17.194 3.045-4.743h-6.088z"/><path d="m80.142 256.401a.76.76 0 0 1 -.639-.349l-3.043-4.743a.76.76 0 0 1 .639-1.17h6.088a.76.76 0 0 1 .64 1.17l-3.045 4.743a.762.762 0 0 1 -.64.349zm-1.654-4.742 1.653 2.576 1.655-2.576zm32.702-4.201v-15.496h4.374c1.348 0 2.54.298 3.576.894 1.036.597 1.834 1.444 2.395 2.544.568 1.1.855 2.362.862 3.789v.989c0 1.462-.284 2.743-.852 3.843a5.913 5.913 0 0 1 -2.416 2.533c-1.043.589-2.26.89-3.65.904zm2.044-13.814v12.144h2.15c1.575 0 2.799-.489 3.671-1.469.88-.979 1.32-2.373 1.32-4.183v-.905c0-1.759-.415-3.125-1.245-4.097-.823-.979-1.994-1.477-3.512-1.49zm10.855 6.428h5.194v1.607h-5.194zm9.452 1.32v6.066h-2.043v-15.496h5.715c1.696 0 3.022.433 3.98 1.298.965.866 1.447 2.012 1.447 3.438 0 1.504-.472 2.664-1.416 3.479-.937.81-2.281 1.214-4.034 1.214h-3.649zm0-1.671h3.672c1.093 0 1.93-.256 2.512-.767.582-.518.873-1.263.873-2.235 0-.922-.291-1.66-.873-2.213-.582-.554-1.38-.841-2.395-.862h-3.789zm18.816 3.693h-6.492l-1.458 4.044h-2.107l5.917-15.496h1.788l5.928 15.496h-2.096zm-5.875-1.681h5.268l-2.639-7.248zm11.538 5.725v-15.496h4.374c1.348 0 2.54.298 3.576.894 1.036.597 1.834 1.444 2.395 2.544.568 1.1.855 2.362.862 3.789v.989c0 1.462-.284 2.743-.852 3.843a5.913 5.913 0 0 1 -2.416 2.533c-1.043.589-2.26.89-3.65.904zm2.043-13.814v12.144h2.15c1.575 0 2.799-.489 3.672-1.469.879-.979 1.319-2.373 1.319-4.183v-.905c0-1.759-.415-3.125-1.245-4.097-.823-.979-1.994-1.477-3.512-1.49z"/></g><path d="m71.225 27.292v5.162h36.017v-5.162c-.387 1.711-1.878 2.986-3.658 2.986h-28.7c-1.78.001-3.272-1.275-3.659-2.986m6.462-8.233v-7.039h4.802v1.103h-3.641v1.777h3.49v1.103h-3.49v1.952h3.699v1.103h-4.86m6.122.001v-7.039h1.161v5.878h3.358v1.161zm5.549 0 .001-7.039h4.794v1.103h-3.636v1.777h3.491v1.103h-3.491v1.952h3.7v1.103h-4.859m8.763.199c-1.995 0-2.952-1.737-2.952-3.717 0-1.985.916-3.718 3.089-3.718 1.901 0 2.893 1.28 3.016 2.798l-1.25-.001c-.116-1.066-.805-1.697-1.781-1.697-1.07 0-1.864.91-1.864 2.744 0 1.47.794 2.488 1.942 2.488 1.205 0 1.607-1.047 1.703-1.787h1.251c-.161 1.404-.88 2.89-3.154 2.89m9.12-15.293h-36.016v12.814h1.17c.032.929.633 1.375 1.586 1.375.705 0 1.363-.266 1.363-1.04 0-1.747-4.072-.226-4.072-3.113 0-1.568 1.091-2.178 2.437-2.178.851 0 2.555.194 2.704 2.237h-1.254c-.039-.545-.428-1.136-1.396-1.136-.772 0-1.283.307-1.283.968 0 1.652 4.116.067 4.116 3.074 0 1.816-1.476 2.29-2.654 2.29-1.638 0-2.468-.676-2.718-1.742v8.019c.387-1.712 1.879-2.987 3.659-2.987h28.699c1.78 0 3.271 1.275 3.658 2.986v-12.408h-1.972v5.936h-1.159v-5.937h-2.074v-1.102h5.205v-8.056m92.694-1.355h-127.183a2.46 2.46 0 0 0 -2.456 2.457v27.389h.832v-28.589h36.212v8.154h.006v1.103h-.006v19.332h95.051v-27.389a2.46 2.46 0 0 0 -2.456-2.457" fill="#f4f4f4"/><path d="m70.941 41.195a2.455 2.455 0 0 0 1.81.798h4.211z" fill="#ccc"/><path d="m107.241 32.454h-36.016v7.526h36.017v-7.526m95.148 0h-95.051v7.623h-36.212v-7.623h-.832v7.082a2.45 2.45 0 0 0 .647 1.659l6.02.798h122.972a2.461 2.461 0 0 0 2.457-2.457v-7.082" fill="#cfcfcf"/><path d="m72.751 1.305v1.304h127.183a2.462 2.462 0 0 1 2.457 2.457v34.471a2.461 2.461 0 0 1 -2.457 2.457h-127.183a2.46 2.46 0 0 1 -2.456-2.457v-34.471a2.461 2.461 0 0 1 2.456-2.457v-2.609a5.066 5.066 0 0 0 -5.065 5.066v34.471a5.066 5.066 0 0 0 5.065 5.066h127.183a5.066 5.066 0 0 0 5.066-5.066v-34.471a5.066 5.066 0 0 0 -5.066-5.066h-127.183z" fill="#35495e"/><path d="m103.583 22.546h-28.699c-2.074 0-3.757 1.731-3.757 3.867 0 2.135 1.683 3.866 3.757 3.866h28.699c2.074 0 3.756-1.731 3.756-3.866 0-2.137-1.682-3.867-3.756-3.867m.527-3.487h1.159v-5.936h2.075v-1.103h-5.309v1.102h2.074v5.937m-2.834-4.438c-.123-1.519-1.115-2.798-3.016-2.798-2.174 0-3.089 1.732-3.089 3.718 0 1.979.957 3.717 2.952 3.717 2.274 0 2.993-1.486 3.155-2.89h-1.251c-.097.74-.498 1.787-1.703 1.787-1.148 0-1.942-1.018-1.942-2.488 0-1.834.794-2.744 1.864-2.744.976 0 1.665.631 1.781 1.697zm-11.917 4.438h4.859v-1.103h-3.7v-1.952h3.491v-1.104h-3.491v-1.777h3.636v-1.103h-4.794zm-5.549 0h4.519v-1.161h-3.358v-5.878h-1.161zm-6.122 0h4.86v-1.103h-3.699v-1.952h3.49v-1.104h-3.49v-1.777h3.641v-1.103h-4.802zm-6.415-5.059c0 2.887 4.072 1.366 4.072 3.113 0 .773-.658 1.04-1.363 1.04-.954 0-1.554-.446-1.586-1.375h-1.253c.015 1.48.812 2.477 2.801 2.477 1.178 0 2.654-.473 2.654-2.29 0-3.006-4.116-1.421-4.116-3.074 0-.661.511-.968 1.283-.968.967 0 1.356.591 1.396 1.136h1.254c-.148-2.043-1.853-2.237-2.704-2.237-1.346.001-2.438.61-2.438 2.178" fill="#35495e"/><path d="m71.127 26.412v6.042h.098v-5.162a3.982 3.982 0 0 1 -.098-.88m36.212-13.289h-.098v12.409a3.982 3.982 0 0 1 0 1.76v5.162h.098zm0-9.257h-36.212v22.546c0-.303.034-.597.098-.88v-8.019a3.423 3.423 0 0 1 -.083-.735h.083v-12.814h36.017v8.056h.098v-8.154" fill="#f4f4f4"/><path d="m107.339 32.454h-.098v7.526h-36.016v-7.526h-.098v7.623h36.212z" fill="#cfcfcf"/><path d="m71.225 25.533a3.982 3.982 0 0 0 0 1.76zm36.016-.001v1.76a3.982 3.982 0 0 0 0-1.76m-36.016-8.754h-.083c.003.261.03.507.083.735zm36.114-4.758h-.098v1.103h.098zm18.129 10.848c-1.753-.503-3.03-1.121-3.832-1.852-.795-.738-1.192-1.646-1.192-2.725 0-1.221.486-2.228 1.458-3.022.979-.802 2.249-1.203 3.81-1.203 1.064 0 2.012.206 2.842.618.837.412 1.483.979 1.937 1.703.461.724.692 1.515.692 2.374h-2.054c0-.937-.298-1.671-.894-2.203-.596-.539-1.437-.809-2.522-.809-1.007 0-1.795.224-2.363.671-.561.439-.841 1.053-.841 1.841 0 .632.266 1.167.798 1.607.539.433 1.451.83 2.735 1.192 1.291.362 2.299.763 3.022 1.203.731.433 1.27.94 1.618 1.522.355.582.532 1.267.532 2.054 0 1.256-.49 2.263-1.469 3.022-.979.752-2.288 1.128-3.927 1.128a7.346 7.346 0 0 1 -2.98-.607c-.922-.412-1.636-.972-2.139-1.682-.497-.709-.745-1.515-.745-2.416h2.054c0 .937.344 1.678 1.032 2.225.695.539 1.621.809 2.778.809 1.079 0 1.905-.22 2.48-.66s.862-1.04.862-1.799-.266-1.344-.798-1.756c-.531-.418-1.496-.83-2.894-1.235zm17.136-.255h-6.716v5.492h7.801v1.671h-9.845v-15.496h9.739v1.681h-7.695v4.981h6.716zm5.683 5.492h7.343v1.671h-9.398v-15.496h2.055zm18.455-5.492h-6.716v5.492h7.801v1.671h-9.845v-15.496h9.739v1.681h-7.695v4.981h6.716zm15.028 2.246c-.191 1.639-.798 2.906-1.82 3.8-1.015.887-2.366 1.331-4.055 1.331-1.831 0-3.299-.657-4.406-1.969-1.1-1.313-1.649-3.069-1.649-5.268v-1.49c0-1.44.255-2.707.766-3.799.518-1.093 1.249-1.93 2.192-2.512.944-.589 2.037-.884 3.278-.884 1.646 0 2.966.461 3.959 1.384.993.916 1.572 2.186 1.735 3.81h-2.054c-.177-1.234-.564-2.128-1.16-2.682-.589-.554-1.416-.831-2.479-.831-1.306 0-2.331.482-3.076 1.448-.738.965-1.106 2.338-1.106 4.119v1.5c0 1.682.351 3.019 1.053 4.013.703.993 1.686 1.49 2.948 1.49 1.135 0 2.004-.255 2.607-.766.61-.518 1.015-1.416 1.213-2.693h2.054zm13.186-8.898h-4.981v13.815h-2.033v-13.815h-4.97v-1.681h11.984z" fill="#35495e"/><path d="m348.153 1.289h-117.06a3.764 3.764 0 0 0 -3.763 3.764v27.402h124.587v-27.402a3.764 3.764 0 0 0 -3.764-3.764" fill="#f4f4f4"/><path d="m351.917 32.454h-124.587v7.095a3.764 3.764 0 0 0 3.763 3.764h117.061a3.764 3.764 0 0 0 3.764-3.764v-7.095" fill="#cfcfcf"/><path d="m231.093 1.289v1.255h117.061a2.512 2.512 0 0 1 2.509 2.509v34.497a2.513 2.513 0 0 1 -2.509 2.509h-117.061a2.513 2.513 0 0 1 -2.508-2.509v-34.497a2.514 2.514 0 0 1 2.508-2.509v-2.51a5.019 5.019 0 0 0 -5.018 5.019v34.497a5.02 5.02 0 0 0 5.018 5.019h117.061a5.02 5.02 0 0 0 5.019-5.019v-34.497a5.02 5.02 0 0 0 -5.019-5.019h-117.061z" fill="#35495e"/><path d="m262.697 19.059h1.435v-6.063h2.558v-1.127h-6.548v1.127h2.557zm-8.694-3.966v-2.097h2.477c.754 0 1.224.292 1.224 1.037 0 .806-.432 1.061-1.224 1.061h-2.477zm-1.431 3.966h1.431v-2.84h2.438c1.051 0 1.186.726 1.186 1.751 0 .525.068.888.174 1.089h1.549c-.281-.394-.29-1.196-.29-1.542 0-1.017-.18-1.762-.991-1.941v-.021c.642-.21 1.125-.795 1.125-1.733 0-1.116-.562-1.949-2.3-1.949h-4.317zm-8.864 0h1.548l.706-1.782h3.21l.716 1.782h1.6l-3.038-7.191h-1.7zm2.685-2.91 1.185-3.035 1.165 3.035zm-6.716 2.91h1.431v-6.063h2.562v-1.127h-6.553v1.127h2.561v6.063zm-9.782-5.169c0 2.949 5.024 1.397 5.024 3.181 0 .791-.812 1.062-1.68 1.062-1.177 0-1.919-.455-1.959-1.404h-1.547c.021 1.513 1.003 2.532 3.462 2.532 1.451 0 3.272-.485 3.272-2.339 0-3.072-5.082-1.451-5.082-3.141 0-.674.631-.985 1.586-.985 1.193 0 1.672.603 1.722 1.158h1.548c-.185-2.088-2.285-2.287-3.338-2.287-1.663 0-3.008.621-3.008 2.223m32.955 8.73h-29.306c-2.118 0-3.836 1.768-3.836 3.948s1.718 3.948 3.836 3.948h29.306c2.118 0 3.835-1.767 3.835-3.948s-1.717-3.948-3.835-3.948zm20.973.249c-1.753-.504-3.029-1.121-3.831-1.852-.795-.738-1.192-1.646-1.192-2.725 0-1.221.486-2.228 1.458-3.022.979-.802 2.249-1.203 3.811-1.203 1.063 0 2.011.206 2.841.617.838.412 1.483.979 1.938 1.703.461.724.691 1.515.691 2.374h-2.054c0-.937-.298-1.671-.894-2.203-.597-.539-1.438-.809-2.522-.809-1.008 0-1.796.224-2.363.671-.561.44-.841 1.054-.841 1.841 0 .631.267 1.167.799 1.607.539.433 1.45.83 2.734 1.192 1.292.362 2.3.763 3.023 1.203.73.433 1.27.94 1.617 1.522.354.582.532 1.267.532 2.054 0 1.256-.489 2.263-1.469 3.022-.979.752-2.288 1.128-3.927 1.128a7.346 7.346 0 0 1 -2.98-.607c-.922-.412-1.636-.972-2.14-1.682-.496-.709-.744-1.515-.744-2.416h2.054c0 .937.344 1.678 1.032 2.225.695.539 1.621.809 2.778.809 1.078 0 1.904-.22 2.479-.66.574-.44.862-1.04.862-1.798 0-.759-.267-1.345-.799-1.756-.53-.419-1.495-.831-2.893-1.235zm19.083-6.908h-4.981v13.815h-2.032v-13.815h-4.971v-1.681h11.984zm10.026 9.771h-6.492l-1.458 4.044h-2.107l5.918-15.497h1.788l5.928 15.497h-2.097zm-5.875-1.682h5.269l-2.64-7.248zm17.22-.543h-3.64v6.269h-2.055v-15.496h5.13c1.746 0 3.087.397 4.023 1.192.943.794 1.415 1.951 1.415 3.47 0 .965-.263 1.806-.787 2.522-.519.717-1.242 1.252-2.171 1.607l3.64 6.577v.128h-2.192zm-3.639-1.671h3.14c1.015 0 1.819-.262 2.416-.788.603-.525.904-1.228.904-2.107 0-.958-.287-1.692-.862-2.203-.567-.511-1.391-.77-2.469-.777h-3.129zm21.221-5.875h-4.98v13.815h-2.033v-13.815h-4.971v-1.681h11.984z" fill="#35495e"/><path d="m451.296 70.481h-14.883v42.187h14.883a3.778 3.778 0 0 0 3.778-3.778v-34.63a3.778 3.778 0 0 0 -3.778-3.779" fill="#f4f4f4"/><path d="m436.413 70.481h-56.079a3.778 3.778 0 0 0 -3.779 3.778v34.631a3.779 3.779 0 0 0 3.779 3.778h56.079z" fill="#ccc"/><path d="m380.334 70.481v.998h70.962a2.784 2.784 0 0 1 2.78 2.78v34.631a2.784 2.784 0 0 1 -2.78 2.78h-70.962a2.786 2.786 0 0 1 -2.781-2.78v-34.63a2.785 2.785 0 0 1 2.781-2.78v-1.997a4.779 4.779 0 0 0 -4.778 4.777v34.631a4.779 4.779 0 0 0 4.778 4.777h70.962a4.777 4.777 0 0 0 4.777-4.777v-34.631a4.777 4.777 0 0 0 -4.777-4.777h-70.962z" fill="#35495e"/><path d="m433.62 89.493 3.714-5.939h2.405l-4.895 7.684 5.012 7.812h-2.425l-3.811-6.045-3.832 6.045h-2.415l5.023-7.812-4.907-7.684h2.396z" fill="#35495e"/><path clip-path="url(#b)" d="m409.391 96.461a5.263 5.263 0 1 1 0-10.526 5.263 5.263 0 0 1 0 10.526m-11.075-8.634a5.263 5.263 0 0 1 -5.263-5.264 5.263 5.263 0 1 1 10.526 0 5.263 5.263 0 0 1 -5.263 5.264m-1.896 18.832a5.264 5.264 0 1 1 .002-10.528 5.264 5.264 0 0 1 -.002 10.528m-10.94-8.855a5.263 5.263 0 1 1 0-10.526 5.263 5.263 0 0 1 0 10.526m11.952-24.939c-10.505 0-19.021 8.515-19.021 19.021 0 10.504 8.516 19.021 19.021 19.021s19.021-8.517 19.021-19.021c0-10.506-8.516-19.021-19.021-19.021" fill="#35495e"/><path clip-path="url(#b)" d="m413.148 91.198a3.758 3.758 0 1 1 -7.516 0 3.758 3.758 0 0 1 7.516 0m-13.006 10.198a3.723 3.723 0 1 1 -7.445-.003 3.723 3.723 0 0 1 7.445.003m-10.743-8.855a3.92 3.92 0 1 1 -7.841 0 3.92 3.92 0 0 1 7.841 0" fill="#35495e"/><path d="m420.336 119.711h-70.963a3.779 3.779 0 0 0 -3.778 3.779v34.63a3.779 3.779 0 0 0 3.778 3.779h70.963a3.778 3.778 0 0 0 3.778-3.779v-34.63a3.778 3.778 0 0 0 -3.778-3.779" fill="#ccc"/><path d="m349.373 119.711v.32h70.963a3.462 3.462 0 0 1 3.458 3.459v34.63a3.463 3.463 0 0 1 -3.458 3.459h-70.963a3.463 3.463 0 0 1 -3.458-3.459v-34.63a3.464 3.464 0 0 1 3.458-3.459v-.64a4.099 4.099 0 0 0 -4.098 4.099v34.63a4.1 4.1 0 0 0 4.098 4.099h70.963a4.098 4.098 0 0 0 4.098-4.099v-34.63a4.099 4.099 0 0 0 -4.098-4.099h-70.963z" fill="#35495e"/><path d="m402.33 140.563 4.044-7.779h2.32l-5.342 9.717v5.779h-2.043v-5.779l-5.343-9.717h2.341z" fill="#35495e"/><path clip-path="url(#c)" d="m378.258 145.556a5.29 5.29 0 1 1 0-10.577 5.29 5.29 0 0 1 0 10.577m-11.129-8.677a5.289 5.289 0 1 1 0-10.58 5.289 5.289 0 0 1 0 10.58m-1.906 18.925a5.288 5.288 0 0 1 -5.288-5.289 5.288 5.288 0 1 1 10.577 0 5.29 5.29 0 0 1 -5.289 5.289m-10.994-8.898a5.289 5.289 0 1 1 0-10.577 5.289 5.289 0 0 1 0 10.577m12.011-25.062c-10.558 0-19.115 8.557-19.115 19.115 0 10.557 8.558 19.115 19.115 19.115s19.114-8.558 19.114-19.115c0-10.558-8.557-19.115-19.114-19.115" fill="#35495e"/><path clip-path="url(#c)" d="m382.034 140.266a3.776 3.776 0 1 1 -7.552.002 3.776 3.776 0 0 1 7.552-.002m-13.071 10.249a3.74 3.74 0 1 1 -7.479-.001 3.74 3.74 0 0 1 7.479.001m1.898-18.818a3.74 3.74 0 1 1 -7.481-.001 3.74 3.74 0 0 1 7.481.001" fill="#35495e"/><path d="m122.942 140.491c1.354 0 2.453 1.075 2.453 2.4s-1.098 2.4-2.453 2.4-2.453-1.075-2.453-2.4 1.098-2.4 2.453-2.4zm122.545 45.842c1.354 0 2.452 1.074 2.452 2.399 0 1.326-1.098 2.4-2.452 2.4-1.355 0-2.453-1.074-2.453-2.4 0-1.324 1.098-2.399 2.453-2.399zm24.569-38.052c1.354 0 2.453 1.075 2.453 2.4 0 1.326-1.099 2.4-2.453 2.4s-2.452-1.075-2.452-2.4 1.097-2.4 2.452-2.4zm32.059-32.659c1.354 0 2.453 1.074 2.453 2.4s-1.099 2.4-2.453 2.4-2.453-1.075-2.453-2.4 1.099-2.4 2.453-2.4z" fill="#1a1a1a"/><ellipse cx="338.969" cy="92.555" fill="#1a1a1a" rx="2.453" ry="2.4"/><path d="m244.588 73.076c1.354 0 2.453 1.075 2.453 2.4s-1.099 2.4-2.453 2.4-2.453-1.074-2.453-2.4 1.098-2.4 2.453-2.4zm-54.531 0c1.354 0 2.453 1.075 2.453 2.4s-1.098 2.4-2.453 2.4-2.453-1.074-2.453-2.4 1.098-2.4 2.453-2.4zm186.143 19.321-37.594.068m37.593-.464-37.593.068.001.792 37.594-.068m-253.512 50.774.067 74.882m-.626-74.881.067 74.881 1.118-.001-.067-74.881m66.775-99.813.068 32.306" fill="#1a1a1a"/><path d="m189.654 43.755.068 32.306.737-.001-.067-32.307m54.162-.01.068 32.306m-.437-32.306.068 32.307.738-.002-.069-32.306m.531 145.012.068 49.994m-.524-49.993.067 49.994.913-.001-.068-49.994m23.963-38.348.068 39.351m-.474-39.351.069 39.352.811-.002-.068-39.351m31.803-32.355.068 26.911m-.405-26.91.068 26.911.674-.002-.068-26.911m42.812 26.456-43.402.068" fill="#1a1a1a"/><path d="m345.23 144.08-43.403.067.002.851 43.402-.067m-35.035 44.351-40.693.067zm0-.412-40.694.067.002.824 40.693-.067zm-44.538 49.566-20.455.068zm-.001-.294-20.455.068.002.588 20.455-.068z" fill="#1a1a1a"/><path d="m384.937 168.255h-70.963a3.778 3.778 0 0 0 -3.778 3.778v17.248l.001.412-.001 16.971a3.778 3.778 0 0 0 3.778 3.778h70.963a3.777 3.777 0 0 0 3.778-3.778v-34.631a3.777 3.777 0 0 0 -3.778-3.778" fill="#ccc"/><path d="m310.196 189.282v.412h.001z" fill="#c6c6c6"/><path d="m313.975 168.255v.998h70.963a2.784 2.784 0 0 1 2.78 2.78v34.631a2.784 2.784 0 0 1 -2.78 2.78h-70.963a2.785 2.785 0 0 1 -2.78-2.78v-34.631a2.785 2.785 0 0 1 2.78-2.78v-1.996a4.778 4.778 0 0 0 -4.777 4.777v34.631a4.778 4.778 0 0 0 4.777 4.777h70.963a4.777 4.777 0 0 0 4.777-4.777v-34.631a4.777 4.777 0 0 0 -4.777-4.777h-70.963z" fill="#35495e"/><path d="m370.763 192.78h-6.492l-1.458 4.044h-2.107l5.918-15.496h1.788l5.928 15.496h-2.097zm-5.875-1.682h5.269l-2.64-7.248z" fill="#35495e"/><path clip-path="url(#d)" d="m342.641 193.929a5.076 5.076 0 1 1 0-10.152 5.076 5.076 0 0 1 0 10.152m-10.683-8.328a5.076 5.076 0 0 1 -5.076-5.078 5.076 5.076 0 1 1 10.152 0 5.077 5.077 0 0 1 -5.076 5.078m-1.829 18.165a5.076 5.076 0 0 1 -5.076-5.076 5.075 5.075 0 1 1 10.152 0 5.077 5.077 0 0 1 -5.076 5.076m-10.553-8.541a5.076 5.076 0 0 1 -5.076-5.078c0-2.803 2.272-5.075 5.076-5.075s5.076 2.272 5.076 5.075a5.076 5.076 0 0 1 -5.076 5.078m11.528-24.057c-10.133 0-18.348 8.214-18.348 18.348s8.215 18.349 18.348 18.349c10.134 0 18.349-8.215 18.349-18.349s-8.215-18.348-18.349-18.348" fill="#35495e"/><path clip-path="url(#d)" d="m333.719 198.689a3.59 3.59 0 0 1 -7.18 0 3.59 3.59 0 0 1 7.18 0m-10.363-8.541a3.781 3.781 0 1 1 -7.562.002 3.781 3.781 0 0 1 7.562-.002m12.185-9.522a3.59 3.59 0 1 1 -7.18 0 3.59 3.59 0 0 1 7.18 0" fill="#35495e"/><path d="m340.399 218.915h-70.963a3.779 3.779 0 0 0 -3.778 3.778v15.76l.001.277h-.001v18.595a3.778 3.778 0 0 0 3.778 3.778h70.963a3.777 3.777 0 0 0 3.778-3.778v-34.631a3.778 3.778 0 0 0 -3.778-3.779" fill="#ccc"/><path d="m265.658 238.453v.277h.001z" fill="#c6c6c6"/><path d="m269.437 218.915v.998h70.963a2.785 2.785 0 0 1 2.78 2.78v34.631a2.784 2.784 0 0 1 -2.78 2.78h-70.963a2.785 2.785 0 0 1 -2.78-2.78v-34.631a2.786 2.786 0 0 1 2.78-2.78v-1.996a4.779 4.779 0 0 0 -4.777 4.777v34.631a4.778 4.778 0 0 0 4.777 4.777h70.963a4.777 4.777 0 0 0 4.777-4.777v-34.631a4.778 4.778 0 0 0 -4.777-4.777h-70.963z" fill="#35495e"/><path d="m317.668 247.485v-15.496h5.066c1.682 0 2.944.348 3.789 1.043.851.695 1.276 1.724 1.276 3.086a3.17 3.17 0 0 1 -.617 1.927c-.411.553-.972.982-1.682 1.287.838.234 1.497.682 1.979 1.342.49.652.734 1.433.734 2.341 0 1.391-.45 2.483-1.352 3.278-.9.795-2.175 1.192-3.82 1.192zm2.044-7.248v5.577h3.373c.951 0 1.7-.245 2.246-.734.554-.497.83-1.178.83-2.044 0-1.866-1.015-2.799-3.044-2.799zm0-1.64h3.086c.895 0 1.607-.223 2.14-.67.539-.447.809-1.054.809-1.82 0-.852-.248-1.469-.745-1.852-.496-.391-1.252-.586-2.267-.586h-3.022v4.928z" fill="#35495e"/><path clip-path="url(#e)" d="m298.103 244.59a5.186 5.186 0 1 1 .002-10.372 5.186 5.186 0 0 1 -.002 10.372m-10.911-8.507a5.185 5.185 0 0 1 -5.185-5.186 5.184 5.184 0 1 1 10.37 0 5.185 5.185 0 0 1 -5.185 5.186m-1.868 18.553a5.184 5.184 0 1 1 0-10.37 5.185 5.185 0 0 1 0 10.37m-10.778-8.723a5.186 5.186 0 1 1 .001-10.371 5.186 5.186 0 0 1 -.001 10.371m11.775-24.569c-10.35 0-18.739 8.389-18.739 18.739 0 10.349 8.39 18.738 18.739 18.738s18.738-8.39 18.738-18.738c.001-10.35-8.389-18.739-18.738-18.739" fill="#35495e"/><path clip-path="url(#e)" d="m301.805 239.405a3.701 3.701 0 1 1 -7.403.001 3.701 3.701 0 0 1 7.403-.001m-23.398 1.323c0 2.132-1.729 3.862-3.861 3.862a3.862 3.862 0 0 1 0-7.724 3.862 3.862 0 0 1 3.861 3.862m12.445-9.725a3.667 3.667 0 1 1 -7.334-.002 3.667 3.667 0 0 1 7.334.002" fill="#35495e"/></svg>