<svg enable-background="new 0 0 237.442 345.409" viewBox="0 0 237.442 345.409" xmlns="http://www.w3.org/2000/svg"><path d="m5.08 345.409c-2.805 0-5.08-2.275-5.08-5.077v-335.255c0-2.803 2.275-5.077 5.08-5.077h227.283c2.807 0 5.079 2.274 5.079 5.077v335.255c0 2.802-2.272 5.077-5.079 5.077z" fill="#383838"/><path d="m150.23 142.165c-24.741 0-44.799-20.057-44.799-44.799 0-24.744 20.058-44.799 44.799-44.799 24.743 0 44.801 20.055 44.801 44.799 0 24.742-20.057 44.799-44.801 44.799z" fill="#2d2d2d"/><path d="m149.633 115.288c-9.898 0-17.92-8.025-17.92-17.922s8.022-17.918 17.92-17.918c9.897 0 17.92 8.021 17.92 17.918s-8.023 17.922-17.92 17.922z" fill="#3f3f3f"/><path d="m168.381 273.529c6.902 13.08 15.031 17.825 26.328 14.581 11.295-3.245 17.824-15.032 14.578-26.328-8.805-27.479-41.172-60.853-84.576-85.198-10.21-5.825-23.037-3.599-29.438 6.259-6.398 9.861-3.88 23.499 6.263 29.439 34.546 20.229 49.407 29.864 66.845 61.247z" fill="#2d2d2d"/><path d="m113.459 208.993c-7.857 0-14.225-6.369-14.225-14.226s6.367-14.222 14.225-14.222c7.854 0 14.224 6.364 14.224 14.222 0 7.857-6.37 14.226-14.224 14.226z" fill="#494949"/><path d="m143.553 228.005c-7.856 0-14.224-6.365-14.224-14.223 0-7.856 6.367-14.226 14.224-14.226s14.225 6.369 14.225 14.226c-.001 7.858-6.368 14.223-14.225 14.223z" fill="#494949"/><path d="m169.898 253.022c-7.856 0-14.224-6.369-14.224-14.222 0-7.857 6.367-14.227 14.224-14.227 7.855 0 14.225 6.369 14.225 14.227 0 7.853-6.369 14.222-14.225 14.222z" fill="#494949"/><path d="m189.563 282.294c-7.856 0-14.224-6.365-14.224-14.223 0-7.856 6.367-14.225 14.224-14.225s14.225 6.369 14.225 14.225c-.001 7.858-6.368 14.223-14.225 14.223z" fill="#494949"/><path d="m199.77 142.997c.316-2.373 2.494-4.037 4.867-3.719 2.37.319 4.035 2.497 3.716 4.865l-1.83 13.69c-.319 2.372-2.497 4.037-4.867 3.723-2.37-.319-4.034-2.497-3.718-4.869z" fill="#494949"/><path d="m199.77 201.212c.316 2.368 2.494 4.032 4.867 3.719 2.37-.319 4.035-2.497 3.716-4.869l-1.83-13.691c-.319-2.367-2.497-4.036-4.867-3.718-2.37.319-4.034 2.497-3.718 4.864z" fill="#494949"/><g fill="#e8e2e9"><path d="m221.789 16.903v2.405h3.866l-3.866 4.346v2.386h6.469v-2.399h-3.869l3.869-4.347v-2.391z"/><path d="m221.789 26.31v2.399h3.066l-3.066 3.612v2.855l3.328-3.891 3.141 3.824v-2.854l-2.866-3.546h2.866v-2.399z"/><path d="m226.456 16.506h1.802v-7.003c.02-1.217-.928-2-2.067-2-1.142 0-2.091.752-2.069 2v4.436c0 .164-.117.301-.266.301-.148 0-.266-.137-.266-.301v-6.37h-1.801v7.002c-.022 1.222.925 2.001 2.066 2.001 1.143 0 2.09-.748 2.067-2.001v-4.436c0-.164.12-.301.268-.301.146 0 .266.137.266.301z"/><path d="m41.575 182.392h-3.139v-.23c.863-.266 1.514-.673 1.952-1.222.447-.536.678-.858.678-1.505 0-.611-.195-1.125-.564-1.531-.379-.416-.895-.699-1.563-.872-.669-.169-1.355-.253-2.059-.253-.852 0-1.598.094-2.24.279-.65.186-.993.486-1.292.902s-.447.748-.447 1.319c0 .204.016.407.06.611.054.212.113.376.201.593h2.27c.35 0 .579-.021.685-.061.096-.049.192-.142.273-.279.086-.138.133-.309.133-.514v-.212h.236v4.006h-.236c-.028-.301-.071-.51-.142-.633-.063-.124-.178-.213-.334-.279-.089-.031-.291-.049-.615-.053l-2.198-.018c-.245-.522-.456-1.001-.589-1.572-.121-.57-.228-1.164-.228-1.774 0-.784.062-1.279.29-1.793.228-.522.438-.97.808-1.368.378-.389.799-.699 1.266-.929.608-.275 1.274-.425 2.032-.425 1.336 0 2.461.442 3.381 1.314.926.863 1.382 1.961 1.382 3.279 0 .602-.166 1.143-.396 1.705-.166.398-.245.633-.245.708 0 .11.044.212.133.31.088.098.254.186.509.266v.231z"/><path d="m41.004 167.62c0-.008 0-.018 0-.018h.494c.033 1.342-.379 2.452-1.225 3.298-.869.863-1.952 1.292-3.251 1.292-1.118 0-2.094-.322-2.946-.965-1.115-.858-1.677-2.063-1.677-3.625h.675c0 .43.124.806.336 1.089.264.368.693.602 1.281.811.58.199 1.328.341 2.27.341 1.124 0 1.961-.106 2.514-.318.563-.204.949-.475 1.187-.788.227-.329.342-.705.342-1.117zm0-.017c-.009-.774-.405-1.355-1.195-1.752-.642-.332-1.582-.496-2.795-.496-1.452 0-2.541.234-3.226.739-.483.362-.713.872-.713 1.509h-.675v-.009c0-1.563.535-2.775 1.608-3.634.844-.673 1.844-1.014 3.006-1.014 1.301 0 2.391.439 3.251 1.315.872.881 1.284 1.966 1.233 3.254v.088z"/><path d="m40.854 158.613h-3.508v.177c0 .563.177.783.537 1.035.353.253.87.412 1.565.479v.252h-4.659v-.252c.512-.049.924-.159 1.248-.323.326-.173.545-.367.651-.589.112-.217.166-.358.166-.778h-2.609c-.491 0-.792.021-.896.062-.115.045-.204.115-.274.23-.068.115-.104.292-.104.553v.531c0 .819.192 1.059.579 1.554.379.496.819.837 1.609 1.058v.244l-2.681-.381v-7.241h.246v.301c0 .252.042.465.131.62.062.114.168.203.318.261.104.049.376.075.823.075h5.854c.396 0 .645-.009.739-.035.15-.04.272-.12.351-.244.125-.163.184-.389.184-.677v-.301h.248v7.427h-2.629v-.243c.643-.128 1.1-.301 1.379-.54.283-.226.484-.545.617-.965.08-.248.113-.704.113-1.377v-.913z"/><path d="m41.373 148.985-5.521 4.568h3.826c.534 0 .895-.07 1.08-.234.255-.222.379-.482.367-1.005h.248v2.762h-.248c-.041-.39-.112-.456-.184-.584-.079-.138-.201-.243-.376-.319-.168-.074-.467-.114-.888-.114h-7.402v-.23l7.402-6.268h-5.652c-.511 0-.851.124-1.037.367-.176.243-.264.522-.264.837v.221h-.246v-3.288h.246c0 .509.104.862.299 1.066.192.194.526.301 1.002.301h6.275l.236-.203c.238-.195.387-.368.467-.514.07-.155.115-.018.121-.292h.248v2.929z"/><path d="m41.004 195.298c0-.008 0-.018 0-.018h.494c.033 1.346-.379 2.453-1.225 3.298-.869.872-1.952 1.306-3.251 1.306-1.118 0-2.094-.327-2.946-.969-1.115-.863-1.677-2.067-1.677-3.635h.675c0 .435.124.807.336 1.094.264.367.693.602 1.281.806.58.204 1.328.341 2.27.341 1.124 0 1.961-.107 2.514-.318.563-.204.949-.47 1.187-.788.227-.328.342-.7.342-1.117zm0-.018c-.009-.77-.405-1.35-1.195-1.748-.642-.336-1.582-.5-2.795-.5-1.452 0-2.541.239-3.226.744-.483.357-.713.871-.713 1.504h-.675s0 0 0-.008c0-1.563.535-2.775 1.608-3.63.844-.678 1.844-1.018 3.006-1.018 1.301 0 2.391.438 3.251 1.319.872.876 1.284 1.961 1.233 3.249v.088z"/><path d="m40.854 186.291h-3.508v.177c0 .566.177.783.537 1.036.353.252.87.416 1.565.482v.252h-4.659v-.252c.512-.049.924-.164 1.248-.328.326-.168.545-.367.651-.584.112-.222.166-.358.166-.783h-2.609c-.491 0-.792.026-.896.066-.115.04-.204.11-.274.226-.068.115-.104.297-.104.553v.531c0 .824.192 1.059.579 1.559.379.496.819.836 1.609 1.058v.243l-2.681-.385v-7.236h.246v.301c0 .252.042.46.131.619.062.115.168.204.318.262.104.049.376.07.823.07h5.854c.396 0 .645-.009.739-.031.15-.039.272-.123.351-.248.125-.158.184-.389.184-.672v-.301h.248v7.427h-2.629v-.248c.643-.128 1.1-.301 1.379-.535.283-.231.484-.545.617-.97.08-.243.113-.699.113-1.377v-.912z"/><path clip-rule="evenodd" d="m37.848 173.335v.049c0 .465-.396.841-.869.841-.475 0-.861-.376-.861-.841v-.049c0-.465.387-.837.861-.837.472 0 .869.372.869.837z" fill-rule="evenodd"/></g><path d="m217.059 172.702c0 21.281 20.384 167.63 20.384 167.63v-335.255c-.001 0-20.384 146.795-20.384 167.625z" fill="#494949"/></svg>