<svg enable-background="new 0 0 221.616 172.892" viewBox="0 0 221.616 172.892" xmlns="http://www.w3.org/2000/svg" xmlns:xlink="http://www.w3.org/1999/xlink"><linearGradient id="a" gradientUnits="userSpaceOnUse" x1="65.1982" x2="156.4179" y1="83.2662" y2="-7.9534"><stop offset="0" stop-color="#b3c88f"/><stop offset=".5" stop-color="#223987"/><stop offset="1" stop-color="#350654"/></linearGradient><path d="m2.33 133.562h216.093v37.209h-216.093z" fill="#2d2d2d"/><path d="m221.616 140.33v-132.932c0-1.868-1.512-3.383-3.385-3.383 0 0-32.731 0-33.701 0-3.726.001-10.637-4.015-14.373-4.015-14.881 0-59.346 0-59.346 0h-.007s-44.464 0-59.347 0c-3.735 0-10.645 4.016-14.373 4.016-.968 0-33.699 0-33.699 0-1.864 0-3.385 1.515-3.385 3.382v132.932h25.235v2.887h-25.235v2.187h25.235v2.891h-25.235v2.185h25.235v2.887h-25.235v2.185h25.235v2.893h-25.235v2.185h25.235v2.887h-25.235v2.185h25.235v2.893h-25.235v.915c0 1.868 1.521 3.385 3.385 3.385h107.427 107.42c1.873 0 3.385-1.517 3.385-3.385v-.915h-25.235v-2.895h25.235v-2.185h-25.235v-2.887h25.235v-2.185h-25.235v-2.893h25.235v-2.185h-25.235v-2.887h25.235v-2.185h-25.235v-2.891h25.235v-2.187h-25.235v-2.887h25.234zm-112.935 28.262h-79.5v-2.892h79.5zm0-5.077h-79.5v-2.887h79.5zm0-5.072h-79.5v-2.893h79.5zm0-5.077h-79.5v-2.887h79.5zm0-5.072h-79.5v-2.891h79.5zm0-5.077h-79.5v-2.887h79.5zm83.754 25.375h-79.802v-2.892h79.802zm0-5.077h-79.802v-2.887h79.802zm0-5.072h-79.802v-2.893h79.802zm0-5.077h-79.802v-2.887h79.802zm0-5.072h-79.802v-2.891h79.802zm0-5.077h-79.802v-2.887h79.802z" fill="#383838"/><path d="m163.357 75.907h-105.098c-.56 0-1.014-.454-1.014-1.014v-74.893h107.126v74.893c0 .56-.454 1.014-1.014 1.014z" fill="url(#a)"/><path d="m91.833 75.907h-33.574c-.56 0-1.014-.454-1.014-1.014v-74.893h34.589v75.907z"/><ellipse cx="74.539" cy="53.24" rx="15.593" ry="15.593" stroke="#fff" stroke-miterlimit="10" stroke-width=".25" transform="matrix(.7885 -.615 .615 .7885 -16.9798 57.0982)"/><g fill="#f7b210"><path d="m80.048 42.95-2.495 3.637 1.768 3.847 3.118 3.951 2.391.831 3.016-3.639-.415-3.118-3.12-4.366zm2.287 8.938c.353.225.727.221 1.09.216.608-.007 1.192-.197 1.612-.684.34-.493.348-.801.547-1.359.117-.327.26-.513.26-.513s.117.441.104.963c-.009.348-.071.716-.286 1.065-.415.677-.807.937-1.093.989s-1.09.156-1.61-.078c-.406-.184-.624-.599-.624-.599zm0-5.197.418-.623h.519s.441.649.441.753-.338.599-.338.599l-.677-.026zm-1.766 1.768c-.275-.061-.521-.312-.521-.312l.104-.312.314-.208s.312.026.415.104c.104.078.208.415.208.415l-.234.208c0 .001-.052.156-.286.105z"/><path d="m62.066 54.279.312-8.315 1.039-1.248 4.055 3.016 1.039-6.16.208 1.794.521-.937.104.833.727-.937.121 10.933-5.838-4.487c-.001-.001-2.288 5.456-2.288 5.508z"/><path d="m71.108 41.805 7.036-1.975s-1.422.833-1.318.833.935.104.935.104l-1.662 1.039 1.869-.104-4.989 2.91v.208l5.407-.312-5.407 3.847v1.142l4.072-.502s-1.344.764-1.264.712c.078-.054.987-.037.987-.037l-.571.348h.987l-5.976 4.26z"/></g><path d="m70.588 57.503-1.718-3.76s-.952-.859-2.642-.798c-.372.013-3.447.037-3.644 4.766-.175 4.23 2.644 6.229 2.644 6.229s1.365 1.008 2.376 1.621c1.01.614 2.88 1.506 2.88 1.506l-1.454-9.252-3.12.935.625.104-1.041.833.935.104-.623.623 1.664.104.623 2.391s-1.268-.398-2.335-1.458c-.874-.87-1.577-2.287-1.616-3.427-.037-1.14.498-2.579 2.079-2.598 1.585-.022 4.367 2.077 4.367 2.077z" fill="#1082ce"/><path d="m69.757 60.101 5.924-8.109 3.743 3.016s-.467-.119-.519-.104c-.052.013.831 1.246.831 1.246l-1.142-.415.623.831-3.847-1.35-.312.312 2.495 4.159-5.093-.208 2.806 5.405-1.039-.208.489 1.223-.878-.764.701 1.309z" fill="#1082ce"/><path d="m77.138 61.14-.104 3.743 1.664 1.352 2.929-.617 4.866-4.269.312-5.303h-5.612zm4.677-1.974-.415-.625.416-.831 1.041-.104.312.623-.312.833zm2.183.52s.379-.169.415-.104c.037.063.519.104.519.104v.519l-.415.312-.519-.312zm-5.404 2.806.312-.519.935-.415.729.935h.623l.831-.312.623 1.35-1.558.729h-.729l-.312-.623h-1.038z" fill="#1082ce"/><text fill="#fff" font-family="Gadugi-Bold" font-size="2.6228" transform="matrix(.9111 0 0 1 85.2502 68.418)">TM</text><path d="m59.278 9.013c0 1.429.838 2.586 1.875 2.586h5.207c.12 0 .239.136.239.318s-.1.318-.239.318h-7.102v2.291h7.94c1.037 0 1.875-1.18 1.875-2.609s-.838-2.609-1.875-2.609h-5.187c-.12 0-.239-.136-.239-.318s.1-.318.239-.318h7.042v-2.245h-7.899c-1.038 0-1.876 1.157-1.876 2.586z" fill="#0097e0"/><path d="m69.632 6.427v8.054h2.493v-5.06l4.748 5.06h2.594v-8.054h-2.494v5.036l-4.748-5.036z" fill="#0097e0"/><path d="m82.539 9.966v-3.539h-2.534v8.054h2.534v-3.562l4.03 3.562h3.251l-4.588-4.016 4.588-4.038h-3.251z" fill="#0097e0"/></svg>