<svg xmlns="http://www.w3.org/2000/svg" xmlns:xlink="http://www.w3.org/1999/xlink" viewBox="0 0 299.492 209.558"><path d="M151.337 42.293c.014-.126.079-.756.079-1.755 0-1.135-.083-2.748-.438-4.64-.532-2.83-1.682-6.329-4.173-9.626a21.446 21.446 0 0 0-4.769-4.596c-1.948-1.374-4.262-2.538-6.951-3.397-3.893-1.242-7.144-2.351-9.732-3.469-1.943-.837-3.505-1.677-4.718-2.54-.912-.648-1.63-1.303-2.22-2.004-.879-1.054-1.51-2.22-1.983-3.849-.467-1.624-.736-3.721-.734-6.416h-8.099c.002 3.808.432 7.105 1.503 10.05a17.802 17.802 0 0 0 3.482 5.851c1.125 1.256 2.416 2.342 3.829 3.295 2.122 1.431 4.511 2.581 7.192 3.656 2.682 1.073 5.666 2.07 9.016 3.141 2.612.838 4.483 1.967 5.905 3.21a13.097 13.097 0 0 1 2.527 2.985c.966 1.562 1.541 3.217 1.867 4.712.326 1.492.399 2.814.398 3.637 0 .322-.011.567-.02.716l-.011.149-.001.016 2.156.215-2.153-.241-.003.026 2.156.215-2.153-.241 8.048.9z" fill="#b2b3ba"/><path d="M286.904 114.732c-1.912-19.707-10.381-39.954-15.024-49.402-4.644-9.448-13.659-12.148-13.659-12.148s-13.385-4.319-45.62-8.639c-32.234-4.319-65.288-4.319-65.288-4.319s-33.054 0-65.289 4.319c-32.234 4.319-45.62 8.639-45.62 8.639s-9.015 2.7-13.659 12.148S9.632 95.025 7.72 114.732s1.912 27.806 9.834 36.984c7.922 9.179 19.122 10.528 24.859 11.338 5.736.81 51.903 4.049 51.903 4.049s4.371-.27 6.556-2.969c2.186-2.7 8.469-8.099 14.479-10.259s31.961-2.969 31.961-2.969 25.951.81 31.961 2.969 12.293 7.559 14.479 10.259c2.186 2.699 6.557 2.969 6.557 2.969s46.166-3.239 51.902-4.049c5.737-.81 16.937-2.16 24.859-11.338 7.922-9.178 11.746-17.277 9.834-36.984z" fill="#bdbec2"/><path d="M286.904 112.83c-1.912-19.204-10.381-38.934-15.024-48.141-4.644-9.207-13.659-11.838-13.659-11.838s-13.385-4.209-45.62-8.418c-32.234-4.209-65.288-4.209-65.288-4.209s-33.054 0-65.289 4.209c-32.234 4.209-45.62 8.418-45.62 8.418s-9.015 2.631-13.659 11.838C18.101 73.896 9.632 93.626 7.72 112.83s1.912 27.096 9.834 36.04c7.922 8.944 19.122 10.259 24.859 11.048 5.736.79 51.903 3.946 51.903 3.946s4.371-.263 6.556-2.894c2.186-2.63 8.469-7.892 14.479-9.996s31.961-2.894 31.961-2.894 25.951.79 31.961 2.894 12.293 7.366 14.479 9.996c2.186 2.631 6.557 2.894 6.557 2.894s46.166-3.157 51.902-3.946c5.737-.789 16.937-2.104 24.859-11.048 7.922-8.945 11.746-16.837 9.834-36.04z" fill="#bdbec2"/><path d="M285.022 112.684c-1.887-18.945-10.241-38.408-14.822-47.492-4.581-9.083-13.475-11.678-13.475-11.678s-13.205-4.152-45.004-8.304c-31.8-4.152-64.408-4.152-64.408-4.152s-32.608 0-64.408 4.152S37.9 53.514 37.9 53.514s-8.894 2.595-13.475 11.678c-4.582 9.083-12.936 28.547-14.822 47.492-1.887 18.945 1.886 26.73 9.702 35.554 7.815 8.823 18.864 10.121 24.523 10.899 5.659.779 51.203 3.893 51.203 3.893s4.312-.26 6.468-2.855c2.156-2.595 8.354-7.785 14.283-9.861s31.53-2.855 31.53-2.855 25.602.779 31.53 2.855 12.127 7.266 14.282 9.861c2.156 2.595 6.468 2.855 6.468 2.855s45.544-3.114 51.203-3.893c5.659-.778 16.709-2.076 24.523-10.899 7.817-8.824 11.59-16.609 9.704-35.554z" fill="#d1d2d3"/><path d="M256.563 63.478c5.137.214 9.584 2.936 11.232 7.594 3.551 10.028 10.454 31.29 10.236 44.441-.292 17.68-6.186 25.114-11.742 29.59s-13.994 5.433-13.994 5.433-23.376 2.129-32.445 2.858a9.815 9.815 0 0 1-6.166-1.56c-3.12-2.047-6.755-5.702-13.581-13.906-11.406-13.707-14.083-32.12-12.328-41.586s5.151-13.822 11.878-18.966c6.727-5.145 21.35-9.379 42.114-12.736 6.509-1.053 11.294-1.308 14.796-1.162z" fill="#bdbec2"/><path d="M256.662 66.098c4.676.207 8.724 3.354 10.225 7.85 3.231 9.678 9.515 30.197 9.316 42.889-.266 17.062-6.122 22.461-11.181 26.78-5.058 4.319-12.245 5.939-12.245 5.939s-20.08 2.055-28.451 2.759c-2.017.169-4.023.719-5.691-.426-2.88-1.975-7.73-6.024-14.031-13.94-10.528-13.228-13.498-27.351-11.878-36.487 1.619-9.136 6.749-15.944 12.958-20.909s19.707-10.094 38.874-13.333c6.007-1.016 8.917-1.262 12.104-1.122z" fill="#d1d2d3"/><path d="M213.962 100.099c0 5.398-4.376 9.773-9.773 9.773s-9.773-4.375-9.773-9.773c0-5.397 4.376-9.773 9.773-9.773s9.773 4.376 9.773 9.773z" fill="#acacac"/><path d="M213.962 100.099h-.27a9.47 9.47 0 0 1-2.784 6.72 9.473 9.473 0 0 1-6.72 2.783 9.473 9.473 0 0 1-6.72-2.783 9.478 9.478 0 0 1-2.784-6.72 9.47 9.47 0 0 1 2.784-6.72 9.473 9.473 0 0 1 6.72-2.783 9.473 9.473 0 0 1 6.72 2.783 9.478 9.478 0 0 1 2.784 6.72h.54c0-5.547-4.497-10.043-10.043-10.043-5.547 0-10.043 4.496-10.043 10.043 0 5.547 4.497 10.043 10.043 10.043 5.547 0 10.043-4.496 10.043-10.043h-.27z" fill="#494a4a"/><path d="M213.962 100.099c0 5.09-3.705 9.217-8.275 9.217-4.569 0-8.274-4.126-8.274-9.217 0-5.09 3.705-9.216 8.274-9.216 4.57 0 8.275 4.126 8.275 9.216z" fill="#b9babf"/><path d="M237.718 90.326c0 5.397-4.375 9.773-9.772 9.773a9.772 9.772 0 0 1-9.773-9.773 9.772 9.772 0 0 1 9.773-9.773c5.397 0 9.772 4.375 9.772 9.773z" fill="#acacac"/><path d="M237.718 90.326h-.27a9.473 9.473 0 0 1-2.783 6.72 9.47 9.47 0 0 1-6.719 2.783 9.47 9.47 0 0 1-6.72-2.783 9.473 9.473 0 0 1-2.783-6.72 9.473 9.473 0 0 1 2.783-6.72 9.473 9.473 0 0 1 6.72-2.783 9.47 9.47 0 0 1 6.719 2.783 9.473 9.473 0 0 1 2.783 6.72h.54c0-5.547-4.496-10.043-10.042-10.043-5.548 0-10.043 4.496-10.043 10.043 0 5.547 4.496 10.043 10.043 10.043 5.547 0 10.042-4.496 10.042-10.043h-.27z" fill="#494a4a"/><path d="M237.718 90.326c0 5.09-3.704 9.216-8.274 9.216s-8.275-4.126-8.275-9.216c0-5.09 3.705-9.217 8.275-9.217s8.274 4.127 8.274 9.217z" fill="#b9babf"/><path d="M262.564 81.958c0 5.397-4.375 9.773-9.772 9.773a9.772 9.772 0 0 1-9.773-9.773 9.772 9.772 0 0 1 9.773-9.773c5.397-.001 9.772 4.375 9.772 9.773z" fill="#acacac"/><path d="M262.564 81.958h-.27a9.473 9.473 0 0 1-2.783 6.72 9.47 9.47 0 0 1-6.719 2.783 9.47 9.47 0 0 1-6.72-2.783 9.473 9.473 0 0 1-2.783-6.72 9.473 9.473 0 0 1 2.783-6.72 9.473 9.473 0 0 1 6.72-2.783 9.47 9.47 0 0 1 6.719 2.783 9.473 9.473 0 0 1 2.783 6.72h.54c0-5.547-4.496-10.043-10.042-10.043-5.548 0-10.043 4.496-10.043 10.043 0 5.547 4.496 10.043 10.043 10.043 5.547 0 10.042-4.496 10.042-10.043h-.27z" fill="#494a4a"/><path d="M262.564 81.958c0 5.09-3.704 9.216-8.274 9.216-4.57 0-8.275-4.126-8.275-9.216 0-5.09 3.705-9.217 8.275-9.217s8.274 4.126 8.274 9.217z" fill="#b9babf"/><path d="M272.338 107.064c0 5.397-4.375 9.773-9.773 9.773-5.397 0-9.772-4.376-9.772-9.773 0-5.398 4.375-9.773 9.772-9.773 5.398-.001 9.773 4.375 9.773 9.773z" fill="#acacac"/><path d="M272.338 107.064h-.27a9.473 9.473 0 0 1-2.783 6.72 9.478 9.478 0 0 1-6.72 2.784 9.466 9.466 0 0 1-6.719-2.784 9.473 9.473 0 0 1-2.783-6.72 9.473 9.473 0 0 1 2.783-6.72 9.47 9.47 0 0 1 6.719-2.783c2.626 0 5 1.063 6.72 2.783a9.473 9.473 0 0 1 2.783 6.72h.54c0-5.547-4.496-10.043-10.043-10.043-5.547 0-10.042 4.496-10.042 10.043 0 5.547 4.496 10.043 10.042 10.043 5.548 0 10.043-4.497 10.043-10.043h-.27z" fill="#494a4a"/><path d="M272.089 107.064c0 5.09-3.704 9.216-8.274 9.216s-8.275-4.126-8.275-9.216c0-5.09 3.705-9.217 8.275-9.217s8.274 4.126 8.274 9.217z" fill="#b9babf"/><path d="M247.491 114.622a9.772 9.772 0 0 1-9.773 9.773c-5.397 0-9.772-4.375-9.772-9.773 0-5.397 4.375-9.773 9.772-9.773 5.398 0 9.773 4.376 9.773 9.773z" fill="#acacac"/><path d="M247.491 114.622h-.27a9.473 9.473 0 0 1-2.783 6.72 9.473 9.473 0 0 1-6.72 2.783 9.47 9.47 0 0 1-6.719-2.783 9.473 9.473 0 0 1-2.783-6.72 9.473 9.473 0 0 1 2.783-6.72 9.47 9.47 0 0 1 6.719-2.783c2.626 0 5 1.063 6.72 2.783a9.473 9.473 0 0 1 2.783 6.72h.54c0-5.547-4.496-10.043-10.043-10.043-5.547 0-10.042 4.496-10.042 10.043 0 5.547 4.496 10.043 10.042 10.043 5.548 0 10.043-4.496 10.043-10.043h-.27z" fill="#494a4a"/><path d="M247.095 114.622c0 5.09-3.705 9.217-8.275 9.217s-8.275-4.126-8.275-9.217c0-5.09 3.705-9.216 8.275-9.216s8.275 4.126 8.275 9.216z" fill="#b9babf"/><circle cx="213.962" cy="125.69" r="9.773" fill="#acacac"/><path d="M223.735 125.69h-.27a9.47 9.47 0 0 1-2.784 6.72 9.478 9.478 0 0 1-6.72 2.784 9.47 9.47 0 0 1-6.72-2.784 9.478 9.478 0 0 1-2.784-6.72 9.47 9.47 0 0 1 2.784-6.72 9.478 9.478 0 0 1 6.72-2.784 9.47 9.47 0 0 1 6.72 2.784 9.478 9.478 0 0 1 2.784 6.72h.54c0-5.547-4.497-10.043-10.043-10.043-5.547 0-10.043 4.497-10.043 10.043 0 5.547 4.497 10.043 10.043 10.043 5.547 0 10.043-4.497 10.043-10.043h-.27z" fill="#494a4a"/><ellipse cx="215.123" cy="125.69" rx="8.275" ry="9.216" fill="#b9babf"/><path d="M36.742 63.478c-5.137.214-9.583 2.936-11.232 7.594-3.55 10.028-10.454 31.29-10.236 44.441.292 17.68 6.186 25.114 11.743 29.59 5.557 4.476 13.993 5.433 13.993 5.433s23.377 2.129 32.446 2.858a9.815 9.815 0 0 0 6.166-1.56c3.12-2.047 6.755-5.702 13.581-13.906 11.406-13.707 14.083-32.12 12.328-41.586s-5.152-13.822-11.878-18.966c-6.727-5.145-21.349-9.379-42.114-12.736-6.51-1.053-11.295-1.308-14.797-1.162z" fill="#bdbec2"/><path d="M36.643 66.098c-4.675.207-8.723 3.354-10.224 7.85-3.231 9.678-9.515 30.197-9.317 42.889.267 17.062 6.123 22.461 11.181 26.78s12.245 5.939 12.245 5.939 20.08 2.055 28.452 2.759c2.016.169 4.023.719 5.692-.426 2.879-1.975 7.73-6.024 14.031-13.94 10.528-13.228 13.498-27.351 11.878-36.487-1.62-9.136-6.749-15.944-12.958-20.909S67.915 70.459 48.748 67.219c-6.009-1.015-8.918-1.261-12.105-1.121z" fill="#d1d2d3"/><path d="M141.048 136.313H130.05c-1.794 0-3.262-1.468-3.262-3.262s1.468-3.262 3.262-3.262h10.998c1.795 0 3.263 1.468 3.263 3.262s-1.468 3.262-3.263 3.262z" fill="#000008"/><path d="M141.176 135.438h-11.253c-1.313 0-2.387-1.074-2.387-2.387s1.074-2.386 2.387-2.386h11.253c1.313 0 2.387 1.074 2.387 2.386s-1.075 2.387-2.387 2.387z" fill="#c3c5c8"/><path d="M164.442 136.313h-10.998c-1.794 0-3.263-1.468-3.263-3.262s1.469-3.262 3.263-3.262h10.998c1.794 0 3.262 1.468 3.262 3.262s-1.468 3.262-3.262 3.262z" fill="#000008"/><path d="M164.57 135.438h-11.254c-1.313 0-2.387-1.074-2.387-2.387s1.074-2.386 2.387-2.386h11.254c1.313 0 2.387 1.074 2.387 2.386s-1.074 2.387-2.387 2.387z" fill="#c3c5c8"/><path d="M141.881 82.584a2.273 2.273 0 0 1-.028-.209 14.116 14.116 0 0 0-.031-.236l-.057.223-.093.228-.854 1.739-.854-1.774-.093-.212-.067-.203-.017.215-.044.235-.35 1.607h-.488l.771-3.402.963 2.06.068.163.11.281c.031-.094.08-.212.146-.356l.04-.089.941-2.058.789 3.402h-.493l-.359-1.614zM146.414 82.57a1.675 1.675 0 0 1-.511 1.21 1.745 1.745 0 0 1-1.232.501c-.235 0-.459-.043-.673-.13a1.718 1.718 0 0 1-.564-.371 1.653 1.653 0 0 1-.509-1.211 1.682 1.682 0 0 1 .509-1.215c.166-.162.354-.285.565-.37.212-.084.436-.127.672-.127.234 0 .457.042.667.127a1.724 1.724 0 0 1 .945.929c.087.208.131.427.131.657zm-.553 0a1.23 1.23 0 0 0-.733-1.131 1.158 1.158 0 0 0-.458-.093 1.166 1.166 0 0 0-.846.357 1.18 1.18 0 0 0-.258.395c-.06.148-.09.306-.09.473a1.226 1.226 0 0 0 .734 1.128c.145.061.298.091.46.091.158 0 .31-.03.453-.091a1.21 1.21 0 0 0 .647-.661c.061-.149.091-.305.091-.468zM146.931 84.195v-3.264h.716c.465 0 .793.023.982.07a1.333 1.333 0 0 1 .927.79c.098.226.146.484.146.773 0 .29-.049.547-.146.771a1.38 1.38 0 0 1-.429.554c-.143.11-.306.188-.487.235s-.466.07-.851.07h-.858zm.531-.479h.445c.245 0 .43-.016.552-.049a.813.813 0 0 0 .32-.165c.123-.105.216-.237.277-.394s.093-.339.093-.547c0-.208-.031-.39-.093-.547a.98.98 0 0 0-.277-.393.826.826 0 0 0-.331-.165 2.668 2.668 0 0 0-.604-.049h-.382v2.309zM150.22 84.195v-3.263h1.821v.45h-1.291v.818h1.291v.466h-1.291v1.055h1.291v.474zM154.676 84.195v-2.813h-.675l.205-.419h.954v3.232zM141.881 102.051a2.273 2.273 0 0 1-.028-.209 14.116 14.116 0 0 0-.031-.236l-.057.223-.093.228-.854 1.739-.854-1.774-.093-.212-.067-.203-.017.215-.044.235-.35 1.607h-.488l.771-3.402.963 2.06.068.163.11.281c.031-.094.08-.212.146-.356l.04-.089.941-2.058.789 3.402h-.493l-.359-1.614zM146.414 102.038a1.675 1.675 0 0 1-.511 1.21 1.745 1.745 0 0 1-1.232.501c-.235 0-.459-.043-.673-.13a1.718 1.718 0 0 1-.564-.371 1.653 1.653 0 0 1-.509-1.211 1.682 1.682 0 0 1 .509-1.215c.166-.162.354-.285.565-.37.212-.084.436-.127.672-.127.234 0 .457.042.667.127a1.724 1.724 0 0 1 .945.929c.087.208.131.426.131.657zm-.553 0a1.23 1.23 0 0 0-.733-1.131 1.158 1.158 0 0 0-.458-.093 1.166 1.166 0 0 0-.846.357 1.18 1.18 0 0 0-.258.395c-.06.148-.09.306-.09.473a1.226 1.226 0 0 0 .734 1.128c.145.061.298.091.46.091.158 0 .31-.03.453-.091a1.21 1.21 0 0 0 .647-.661c.061-.15.091-.305.091-.468zM146.931 103.663v-3.264h.716c.465 0 .793.023.982.07a1.333 1.333 0 0 1 .927.79c.098.226.146.484.146.773 0 .29-.049.547-.146.771a1.38 1.38 0 0 1-.429.554c-.143.11-.306.188-.487.235s-.466.07-.851.07h-.858zm.531-.48h.445c.245 0 .43-.016.552-.049a.813.813 0 0 0 .32-.165c.123-.105.216-.237.277-.394s.093-.339.093-.547c0-.208-.031-.39-.093-.547a.98.98 0 0 0-.277-.393.826.826 0 0 0-.331-.165 2.668 2.668 0 0 0-.604-.049h-.382v2.309zM150.22 103.663v-3.264h1.821v.45h-1.291v.819h1.291v.465h-1.291v1.055h1.291v.475zM155.753 103.239v.423h-2.188l1.22-1.46c.151-.183.263-.343.332-.481a.846.846 0 0 0 .105-.376.506.506 0 0 0-.145-.382.542.542 0 0 0-.394-.14.503.503 0 0 0-.367.14.547.547 0 0 0-.163.367h-.511c0-.293.099-.526.295-.701s.46-.262.791-.262c.315 0 .563.081.746.243.182.162.272.383.272.662 0 .199-.052.4-.157.603-.104.203-.326.498-.665.884l-.415.482h1.244zM128.383 126.195l.423-.196c.04.146.114.257.221.333s.244.115.41.115a.524.524 0 0 0 .375-.131.462.462 0 0 0 .14-.353c0-.191-.159-.362-.477-.513l-.103-.049c-.36-.175-.6-.334-.719-.476s-.179-.315-.179-.521c0-.266.09-.481.271-.646.181-.165.417-.248.71-.248.241 0 .442.046.604.14a.731.731 0 0 1 .336.4l-.415.214a.686.686 0 0 0-.215-.225.512.512 0 0 0-.269-.071.495.495 0 0 0-.34.111.38.38 0 0 0-.126.299c0 .196.185.379.553.548l.067.031c.323.149.544.294.665.436s.181.319.181.532c0 .309-.098.555-.292.737-.195.182-.458.273-.79.273-.278 0-.505-.064-.683-.192a.894.894 0 0 1-.348-.548zM130.984 126.848v-3.263h1.822v.45h-1.291v.818h1.291v.466h-1.291v1.055h1.291v.474zM133.323 126.848v-3.263h.531v2.789h1.186v.474zM135.378 126.848v-3.263h1.821v.45h-1.29v.818h1.29v.466h-1.29v1.055h1.29v.474zM140.337 124.378c-.15-.128-.31-.224-.477-.288s-.343-.096-.527-.096c-.356 0-.646.114-.87.343s-.336.525-.336.89c0 .352.109.643.327.872s.492.343.823.343c.193 0 .377-.034.552-.103s.343-.172.503-.31v.6a1.545 1.545 0 0 1-.466.229c-.168.05-.35.076-.546.076-.25 0-.48-.041-.692-.123a1.616 1.616 0 0 1-.926-.913c-.085-.211-.128-.437-.128-.676s.043-.464.128-.674c.086-.21.21-.395.372-.554.161-.161.348-.282.557-.365.21-.082.437-.124.68-.124a1.811 1.811 0 0 1 1.055.336l-.029.537zM141.957 124.035v2.813h-.53v-2.813h-.867v-.45h2.26v.45zM155.095 125.388v1.46h-.497v-3.264h.74c.217 0 .385.014.505.042a.802.802 0 0 1 .307.14.768.768 0 0 1 .233.306.989.989 0 0 1 .083.41c0 .262-.063.466-.189.614-.127.148-.313.236-.56.266l1.123 1.485h-.6l-1.086-1.46h-.059zm.033-.412h.096c.281 0 .468-.033.56-.098.093-.065.139-.181.139-.348 0-.18-.05-.307-.148-.38-.099-.073-.282-.11-.55-.11h-.096v.936zM157.05 123.585h.524v1.982c0 .294.067.515.203.663.137.148.34.222.61.222.269 0 .472-.074.607-.222s.204-.369.204-.663v-1.982h.53v2.031c0 .441-.111.772-.334.991-.224.219-.56.329-1.008.329-.449 0-.784-.109-1.006-.328-.222-.219-.332-.549-.332-.992v-2.031zM160.369 126.848v-3.393l2.073 1.995.172.181.183.216v-2.262h.491v3.39l-2.116-2.031-.164-.173-.151-.192v2.269z" fill="#a9a8b2"/><path d="M150.499 93.521h-7.693a3.272 3.272 0 0 1-3.262-3.262 3.272 3.272 0 0 1 3.262-3.262h7.693a3.272 3.272 0 0 1 3.263 3.262 3.272 3.272 0 0 1-3.263 3.262z"/><path d="M147.212 92.849h-3.616a2.598 2.598 0 0 1-2.59-2.59 2.598 2.598 0 0 1 2.59-2.59h3.616a2.598 2.598 0 0 1 2.59 2.59 2.597 2.597 0 0 1-2.59 2.59z" fill="#a9a9ad"/><circle cx="143.925" cy="90.259" r="2.417" fill="#d9dcdf"/><path d="M127.23 91.957l-.37-.84h-1.293l-.379.84h-.558l1.581-3.393 1.578 3.393h-.559zm-1.467-1.282h.91l-.334-.745-.06-.164-.063-.206-.057.2-.061.17-.335.745zM166.91 91.957v-3.264h.823c.234 0 .408.013.521.038a.728.728 0 0 1 .521.417.935.935 0 0 1 .083.399c0 .174-.04.319-.12.436s-.196.198-.35.244c.19.03.34.116.449.26s.164.324.164.543c0 .132-.023.258-.069.376a.84.84 0 0 1-.196.303.73.73 0 0 1-.332.192c-.133.037-.354.056-.667.056h-.827zm.52-1.887h.203c.253 0 .432-.034.536-.104.104-.069.157-.186.157-.349 0-.179-.049-.304-.146-.376-.096-.072-.279-.108-.548-.108h-.203v.937zm0 1.443h.183c.187 0 .325-.007.417-.022a.535.535 0 0 0 .219-.078l.151-.174.054-.241a.55.55 0 0 0-.064-.272l-.186-.181-.173-.056a1.458 1.458 0 0 0-.257-.018h-.344v1.042z" fill="#a9a8b2"/><path d="M133.852 85.981s8.256.337 12.8.337c4.545 0 13.048-.337 13.048-.337l-13.048 1.016-12.8-1.016zM133.852 94.537s8.256-.337 12.8-.337c4.545 0 13.048.337 13.048.337l-13.048-1.016-12.8 1.016z" fill="#a8a8b2"/><path d="M150.499 113.498h-7.693c-1.794 0-3.262-1.468-3.262-3.262s1.468-3.262 3.262-3.262h7.693c1.795 0 3.263 1.468 3.263 3.262s-1.468 3.262-3.263 3.262z"/><path d="M147.212 112.826h-3.616c-1.424 0-2.59-1.166-2.59-2.59s1.166-2.59 2.59-2.59h3.616c1.425 0 2.59 1.166 2.59 2.59s-1.165 2.59-2.59 2.59z" fill="#a9a9ad"/><circle cx="143.925" cy="110.236" r="2.417" fill="#d9dcdf"/><path d="M127.23 111.933l-.37-.84h-1.293l-.379.84h-.558l1.581-3.393 1.578 3.393h-.559zm-1.467-1.282h.91l-.334-.745-.06-.164-.063-.206-.057.2-.061.17-.335.745zM166.91 111.933v-3.264h.823c.234 0 .408.013.521.038a.728.728 0 0 1 .521.417.935.935 0 0 1 .083.399c0 .174-.04.319-.12.436s-.196.198-.35.244c.19.03.34.116.449.26s.164.324.164.543c0 .132-.023.258-.069.376a.84.84 0 0 1-.196.303.73.73 0 0 1-.332.192c-.133.037-.354.056-.667.056h-.827zm.52-1.887h.203c.253 0 .432-.034.536-.104.104-.069.157-.186.157-.349 0-.179-.049-.304-.146-.376-.096-.072-.279-.108-.548-.108h-.203v.937zm0 1.443h.183c.187 0 .325-.007.417-.022a.535.535 0 0 0 .219-.078l.151-.174.054-.241a.55.55 0 0 0-.064-.272l-.186-.181-.173-.056a1.458 1.458 0 0 0-.257-.018h-.344v1.042z" fill="#a9a8b2"/><path d="M133.852 105.958s8.256.338 12.8.338c4.545 0 13.048-.338 13.048-.338l-13.048 1.016-12.8-1.016zM133.852 114.513s8.256-.337 12.8-.337c4.545 0 13.048.337 13.048.337l-13.048-1.015-12.8 1.015z" fill="#a8a8b2"/><path d="M260.598 111.668c.067-.132.067-.356.081-.555l.896.022.064-.003.053-.118v-7.313l-1.119-.107c.065-.132.065-.344.078-.542l1.588.063h1.562c-.054.121-.067.357-.081.542l-.989-.022-.064.002-.026.118-.04 7.314 1.212.107c-.058.105-.064.308-.074.491 0 0-1.26-.013-1.538-.013-.267 0-1.603.014-1.603.014z" fill="#a1a1a3"/><path d="M263.671 103.181c.002.115-.003.239-.01.349l-.928.035c-.017 0-.162.005-.162.188l-.04 7.314v.131l.131.005 1.017.035c0 .116-.001.242-.006.361a70.4 70.4 0 0 1-.607-.006c-.288-.003-.588-.007-.866-.007-.266 0-.553.003-.834.007l-.632.006c0-.119.001-.243.006-.362l.833-.035a.185.185 0 0 0 .188-.189v-7.443l-.13-.005-.925-.035c.001-.116.002-.233.007-.349h2.958m.13-.135h-3.217c-.013.2-.013.414-.013.614l1.055.04v7.313l-.054.054-.961.04c-.014.2-.014.427-.014.627.48 0 1.081-.013 1.602-.013.534 0 1.148.013 1.602.013.014-.2.014-.44.014-.627l-1.147-.04.04-7.314.026-.053 1.054-.04c.013-.187.026-.427.013-.614z" fill="#79797d"/><path d="M238.001 118.753l-.448.003-.721-.013-1.602.013c.067-.132.067-.356.08-.555l.896.022.064-.003.054-.118v-7.313l-1.119-.107c.064-.132.064-.344.078-.542l1.588.063h3.884c-.054.121-.067.358-.081.542l-.989-.022-.064.002-.027.118-.04 7.314 1.213.107c-.058.105-.064.308-.074.491l-1.538-.012-.788.006v.074l-.366-.07zm-.703-8.028l-.026.117-.04 7.314.733.091.63-.026.053-.118v-7.313l-.675-.091-.675.026z" fill="#a1a1a3"/><path d="M240.626 110.271c.002.115-.004.239-.01.348l-.928.036c-.017 0-.162.005-.162.188l-.04 7.314v.131l.131.005 1.017.036c0 .116-.001.242-.006.361-.187 0-.394-.003-.607-.006-.288-.003-.588-.007-.866-.007-.23 0-.478.003-.723.005l-.101.008-.333-.003-.311.002v-.006l-.133-.001a59.45 59.45 0 0 0-1.557.002l-.633.006c.001-.119.002-.243.007-.362l.832-.035a.184.184 0 0 0 .188-.189v-7.443l-.13-.005-.924-.035c0-.115.001-.233.006-.349h5.283m-2.658 8.043h.005l.555-.023a.184.184 0 0 0 .188-.189v-7.443l-.13-.005-.618-.023-.602.023c-.017 0-.162.005-.162.188l-.04 7.314-.001.131.131.004.669.023h.005m2.788-8.18h-5.54c-.014.2-.014.414-.014.614l1.055.04v7.313l-.054.054-.961.04c-.013.2-.013.427-.013.627.48 0 1.081-.013 1.602-.013.231 0 .479.002.721.005v.008l.447-.003.434.003v-.008c.244-.003.49-.005.721-.005.534 0 1.147.013 1.602.013.014-.2.014-.44.014-.627l-1.147-.04.039-7.314.027-.053 1.054-.04c.013-.186.027-.427.013-.614zm-2.788 8.045l-.669-.023.04-7.314.027-.053.606-.023.607.023v7.313l-.053.054-.558.023z" fill="#79797d"/><path d="M213.025 130.069l-.612.002-.721-.014c-.266 0-1.602.014-1.602.014.067-.132.067-.357.081-.555l.896.022.064-.003.053-.118v-7.313l-1.119-.107c.065-.132.065-.344.078-.542l1.588.063h6.207c-.055.121-.067.357-.081.542l-.989-.022-.065.002-.026.118-.04 7.314 1.213.107c-.059.105-.064.308-.074.491 0 0-1.261-.013-1.538-.013l-1.602.014-.722-.014-.788.007v.074l-.201-.069zm1.456-8.029l-.026.117-.04 7.314.733.091.629-.026.054-.118v-7.313l-.675-.091-.675.026zm-2.322 0l-.026.117-.04 7.314.732.091.63-.026.054-.118v-7.313l-.675-.091-.675.026z" fill="#a1a1a3"/><path d="M217.81 121.585c.001.115-.004.239-.011.349l-.928.035c-.017 0-.161.005-.161.188l-.04 7.314-.001.131.131.004 1.018.036c-.001.116-.002.242-.007.361a70.4 70.4 0 0 1-.607-.006c-.287-.003-.587-.007-.865-.007-.231 0-.478.002-.723.005l-.101.007-.333-.002-.311.002v-.006l-.134-.001a59.287 59.287 0 0 0-1.445 0l-.102.007-.332-.002-.311.002v-.006l-.134-.001a59.45 59.45 0 0 0-1.557.002l-.632.006c0-.119.001-.243.006-.362l.833-.035a.185.185 0 0 0 .188-.189v-7.443l-.13-.005-.925-.035c.001-.115.002-.233.007-.349H217.81m-4.982 8.044h.006l.554-.023a.185.185 0 0 0 .188-.189v-7.443l-.13-.005-.617-.023-.603.023c-.017 0-.162.005-.162.188l-.04 7.314v.131l.131.004.668.023h.005m2.323 0h.005l.554-.023a.185.185 0 0 0 .188-.189v-7.443l-.13-.005-.617-.023-.603.023c-.017 0-.161.005-.161.188l-.04 7.314-.001.131.131.004.668.023h.006m2.788-8.179H210.075c-.013.2-.013.414-.013.614l1.055.04v7.313l-.054.054-.961.04c-.014.2-.014.427-.014.627.48 0 1.081-.013 1.602-.013.232 0 .479.002.722.005v.008l.446-.003.434.003.001-.008a59.544 59.544 0 0 1 1.442 0v.008l.446-.003.435.003v-.008c.244-.003.49-.005.721-.005.533 0 1.147.013 1.602.013.013-.2.013-.44.013-.627l-1.147-.04.04-7.314.026-.053 1.055-.04c.013-.187.026-.428.013-.614zm-5.111 8.044l-.668-.023.04-7.314.026-.053.607-.023.607.023v7.313l-.054.054-.558.023zm2.322 0l-.668-.023.04-7.314.026-.053.607-.023.607.023v7.313l-.054.054-.558.023z" fill="#79797d"/><path d="M205.614 104.402c-.05-.024-.361-.026-.652-.026a195.578 195.578 0 0 1-1.678-4.587c-.257-.744-.525-1.547-.787-2.327l-.403-1.201-.128-.04-.164-.009-.304.011-.027.119-.039 7.313 1.212.108c-.064.118-.064.356-.078.554l-.669-.068-.865-.007-1.602.013c.067-.131.067-.356.081-.554l.896.021.064-.003.054-.118v-7.313l-1.12-.107c.065-.13.065-.343.079-.541l1.587.063h3.511c-.055.121-.067.357-.081.555l-1.242-.022-.086.003.022.082c.15.55.71 2.371.936 3.047l.178.549c.336 1.032.69 2.123 1.063 3.176l.016.045h.115c.517-1.204.971-2.446 1.345-3.488.27-.764.9-2.551 1.096-3.274l.022-.085-.128-.054-1.158-.04c.056-.071.059-.224.062-.365l.003-.194 1.682.067h1.228c-.067.118-.067.344-.081.541l-.684-.022c-.473 1.165-1.007 2.525-1.474 3.699l-.344.882c-.455 1.168-.97 2.495-1.458 3.597z" fill="#a1a1a3"/><path d="M209.518 95.769c0 .113-.001.234-.006.351l-.626.034-.089.005-.031.083c-.344.932-.806 2.126-1.414 3.655l-.343.881c-.444 1.145-.946 2.438-1.424 3.523-.129.006-.362.007-.577.007a199.162 199.162 0 0 1-1.66-4.54c-.255-.738-.521-1.534-.779-2.307l-.391-1.164c-.015-.074-.081-.144-.204-.144h-.001l-.18-.009-.228.009c-.017 0-.162.005-.162.188l-.039 7.314-.001.131.131.005 1.018.035c-.001.116-.002.242-.007.361-.187 0-.394-.003-.607-.006-.288-.003-.588-.007-.866-.007-.266 0-.553.003-.834.007l-.632.006c0-.119.001-.243.006-.362l.833-.035a.184.184 0 0 0 .188-.189v-7.443l-.13-.005-.925-.035c.001-.115.002-.233.007-.349h4.906c.002.112-.004.236-.011.361l-1.186.036-.171.005.045.166c.152.555.713 2.379.937 3.049l.179.551c.339 1.043.689 2.123 1.063 3.176l.032.09h.254l.033-.086c.373-.955.793-2.082 1.283-3.448.271-.766.903-2.559 1.098-3.279l.004-.017v-.018c0-.107-.075-.188-.17-.188l-1.036-.036a5.99 5.99 0 0 1 .003-.3l.001-.062h2.709m.135-.135H206.676c0 .187-.013.427 0 .627l1.161.04.04.054c-.187.694-.773 2.362-1.094 3.27a138.129 138.129 0 0 1-1.281 3.444h-.067c-.44-1.241-.854-2.536-1.241-3.724a101.14 101.14 0 0 1-.934-3.043l1.308-.04c.014-.2.026-.441.014-.627h-5.164c-.014.2-.014.414-.014.614l1.055.04v7.313l-.054.054-.961.041c-.014.2-.014.427-.014.626.48 0 1.081-.013 1.602-.013.534 0 1.148.013 1.602.013.014-.2.014-.44.014-.626l-1.147-.041.04-7.314.026-.053.232-.009.168.009.08.04c.374 1.108.787 2.362 1.175 3.484a200.134 200.134 0 0 0 1.694 4.631c.308 0 .654 0 .761-.013.614-1.389 1.269-3.123 1.802-4.484a165.977 165.977 0 0 0 1.415-3.657l.747-.04c.012-.202.012-.43.012-.616z" fill="#79797d"/><path d="M228.163 94.089c-.05-.024-.361-.026-.652-.026a201.965 201.965 0 0 1-1.679-4.586c-.257-.744-.525-1.548-.786-2.327l-.403-1.201-.128-.04-.758-.04c.051-.135.064-.345.077-.542l1.294.063h2.002c-.054.121-.067.357-.08.556l-1.243-.023-.086.003.023.082c.152.555.712 2.377.936 3.047l.168.518c.338 1.041.695 2.144 1.073 3.207l.016.045h.114a61.15 61.15 0 0 0 1.345-3.488c.294-.831.904-2.56 1.096-3.274l.023-.085-.128-.054-1.159-.039c.057-.072.06-.225.063-.366l.003-.194 1.681.067h1.228c-.067.118-.067.344-.08.542l-.684-.022c-.474 1.164-1.007 2.525-1.474 3.698l-.354.909c-.453 1.16-.964 2.478-1.448 3.57z" fill="#a1a1a3"/><path d="M232.066 85.457c0 .113-.002.234-.006.351l-.627.034-.088.004-.031.083c-.342.926-.804 2.121-1.413 3.654l-.353.905c-.442 1.137-.941 2.422-1.415 3.5-.129.006-.362.007-.577.007a200.925 200.925 0 0 1-1.66-4.54c-.255-.738-.521-1.533-.779-2.307l-.391-1.164c-.015-.074-.082-.144-.205-.144l-.638-.034a4.541 4.541 0 0 1 .01-.351H227c.001.114-.004.239-.011.361l-1.186.036-.171.005.045.166c.152.554.713 2.378.937 3.049l.179.551c.339 1.043.689 2.123 1.063 3.176l.031.09h.255l.033-.086c.378-.966.797-2.093 1.283-3.448.293-.832.904-2.563 1.097-3.279l.005-.018v-.018c0-.107-.075-.189-.17-.189l-1.036-.035c-.002-.099 0-.202.002-.301l.002-.061h2.708m.136-.132H229.225c0 .187-.014.427 0 .627l1.161.04.04.054c-.187.694-.774 2.362-1.095 3.27a130.592 130.592 0 0 1-1.281 3.443h-.066c-.44-1.241-.854-2.536-1.241-3.724-.227-.681-.787-2.509-.935-3.043l1.309-.04c.013-.201.026-.441.013-.627H223.767c-.013.2-.026.414-.013.614l.761.04.08.04c.374 1.107.787 2.362 1.174 3.483a204.956 204.956 0 0 0 1.695 4.631c.307 0 .654 0 .761-.013.614-1.388 1.268-3.123 1.802-4.484a169.11 169.11 0 0 0 1.415-3.657l.747-.04c.013-.201.013-.428.013-.614z" fill="#79797d"/><path d="M251.849 86.043c-.05-.025-.361-.027-.653-.027a200.142 200.142 0 0 1-1.678-4.586c-.254-.738-.521-1.533-.779-2.306l-.41-1.222-.129-.04-.757-.04c.051-.134.063-.345.077-.542l1.294.063h2.002c-.054.121-.067.358-.081.556l-1.242-.023-.086.002.023.083c.149.547.709 2.37.935 3.047l.188.575a120.04 120.04 0 0 0 1.055 3.149l.016.045h.114a62.206 62.206 0 0 0 1.345-3.488c.271-.764.901-2.553 1.096-3.275l.023-.085-.128-.054-1.159-.04c.056-.072.06-.224.063-.366l.003-.194 1.414.067h3.217c-.054.121-.067.357-.081.542l-.989-.022-.064.002-.027.118-.039 7.314 1.212.107c-.064.118-.064.356-.078.555l-.669-.068-.865-.007-1.602.013c.067-.132.067-.356.081-.555l.896.022.064-.003.053-.118v-7.313l-.244-.074-.134.007c-.474 1.164-1.008 2.525-1.474 3.699l-.342.875c-.457 1.173-.974 2.503-1.461 3.607z" fill="#a1a1a3"/><path d="M257.48 77.409c.002.115-.003.239-.01.348l-.928.036c-.017 0-.162.005-.162.188l-.04 7.314v.131l.131.004 1.017.036c0 .116-.001.242-.006.361a70.4 70.4 0 0 1-.607-.006c-.288-.003-.588-.007-.866-.007-.266 0-.553.003-.834.007l-.632.006c0-.119.001-.243.006-.362l.833-.035a.184.184 0 0 0 .188-.188v-7.444l-.13-.005-.192-.007-.128.007-.089.005-.031.083c-.344.931-.807 2.126-1.414 3.654l-.343.881c-.444 1.145-.947 2.438-1.424 3.524-.129.006-.362.006-.577.006a197.429 197.429 0 0 1-1.66-4.54c-.255-.738-.521-1.534-.78-2.307l-.39-1.164c-.015-.074-.082-.144-.205-.144l-.638-.034a4.067 4.067 0 0 1 .01-.35h3.106c.002.112-.003.236-.011.361l-1.185.036-.172.005.046.166c.152.554.713 2.379.936 3.049l.18.55c.339 1.043.689 2.123 1.063 3.176l.031.09h.255l.033-.086c.373-.954.792-2.082 1.283-3.448.27-.766.903-2.559 1.097-3.279l.005-.017v-.018c0-.107-.075-.188-.17-.188h-.001l-1.035-.035c-.002-.099 0-.203.002-.301l.001-.061h4.437m.129-.133h-4.699c0 .187-.014.427 0 .627l1.161.04.04.054c-.188.694-.774 2.362-1.095 3.27a134.264 134.264 0 0 1-1.281 3.444h-.066c-.44-1.241-.854-2.536-1.241-3.724-.228-.681-.787-2.509-.935-3.043l1.308-.04c.014-.2.027-.44.014-.627H247.452a4.845 4.845 0 0 0-.013.614l.76.04.08.04c.374 1.108.788 2.362 1.175 3.484a204.956 204.956 0 0 0 1.695 4.631c.307 0 .653 0 .761-.013.614-1.388 1.268-3.123 1.802-4.484a171.146 171.146 0 0 0 1.415-3.657l.127-.007.181.007v7.314l-.054.054-.961.04c-.014.2-.014.427-.014.627.48 0 1.081-.013 1.602-.013.534 0 1.147.013 1.602.013.014-.2.014-.44.014-.627l-1.147-.04.039-7.314.027-.053 1.055-.04c.011-.19.025-.43.011-.617z" fill="#79797d"/><path d="M150.074 47.159c1.295.476 2.627 1.195 3.33 2.434.599 1.215-.027 2.685-.94 3.564l-.031.031c-.346-.56-.712-1.125-1.252-1.519-1.389-1.052-3.16-1.429-4.864-1.531-1.639-.003-3.356.21-4.787 1.067-.742.452-1.472 1.212-1.344 2.152.032.959.737 1.694 1.481 2.21-.058.855.415 1.597 1.086 2.081.001.236-.023.364.154.774.925 1.354 2.795 1.455 4.28 1.317.881-.281-.18.345-.124.592.159.458.687.185.931.113.64-.367 1.272-.774 1.669-1.484.219-.658.123-.308.637-.864.47-.485.509-1.244 1.059-1.67.589-.53.853-1.281 1.166-1.98 1.06-.981 2.03-2.271 1.993-3.786.058-1.147-.652-2.169-1.499-2.874-1.395-1.139-3.169-1.721-4.929-1.991-.408-.151-.814.333-.532.699.805.331 1.71.321 2.516.665zm-6.92 9.593c-.345-.2-.517-.526-.602-.747.405.099.771.187 1.201.239.18.008.271.019.331.023-.124.043-.254.129-.375.179-.186.098-.409.209-.555.306zm4.192-1.084s-.561.035-.756.027c-.194-.009-2.422-.135-3.324-.45-.402-.115-.097-.171-.002-.229.929-.524 2.029-.635 3.078-.631.959.056 1.95.205 2.778.723.109.084.235.136-.09.235-.242.086-1.063.238-1.684.325zm.76 1.655c-.95.162-1.926.182-2.88.119-.308-.063-.7-.053-.986-.223.937-.354 2.056-.487 3.027-.254.292.083.652.083.839.358zm-1.852 1.56c-.852-.041-1.835-.114-2.457-.776 1.7.426 3.494.413 5.18-.085-.736.654-1.771.839-2.723.861zm3.039-2.006c-.228-.283-.535-.432-.858-.521a60.205 60.205 0 0 0 1.525-.422c.285.526-.216.818-.667.943zm1.43-2.306c-.216.06-.471.336-.678.099-1.061-.82-2.416-1.119-3.729-1.202-1.465-.009-3.011.266-4.176 1.218-.872-.27-1.496-1.651-.651-2.328 1.332-1.106 3.169-1.329 4.844-1.292 1.621.025 3.354.409 4.579 1.534.403.344.614.838.748 1.339-.306.221-.62.43-.937.632z" fill="#dee1e5"/><path d="M150.074 47.159l-.023.063c1.289.473 2.605 1.187 3.295 2.404l.059-.033-.061.03c.158.322.228.662.229 1.005.001.914-.502 1.853-1.155 2.481l-.001.001-.031.031.047.048.057-.035c-.346-.561-.716-1.134-1.27-1.538l-.04.055.041-.054c-1.405-1.064-3.19-1.442-4.901-1.544h-.043c-1.633 0-3.347.217-4.783 1.077-.694.423-1.389 1.115-1.391 1.994l.015.225.067-.009-.067.002c.035.994.76 1.742 1.51 2.263l.038-.055-.067-.005-.005.145c0 .823.472 1.528 1.119 1.995l.039-.055h-.068v.015l-.001.118c-.001.171.016.337.161.668l.003.006.004.005c.759 1.11 2.125 1.392 3.399 1.392.323 0 .641-.018.943-.046l.007-.001.007-.002a1.2 1.2 0 0 1 .282-.068l.01.001.005-.029-.019.02.014.009.005-.029-.019.02.031-.033h-.046l.014.033.031-.033h-.046.015l-.015-.006v.006h.015l-.015-.006c-.009.03-.13.148-.242.259-.111.119-.228.229-.236.364l.004.036.001.003.004.001a.419.419 0 0 0 .424.305c.224-.001.459-.112.589-.149l.008-.002.007-.004c.641-.368 1.288-.782 1.694-1.51l.003-.005.002-.006c.11-.331.139-.396.19-.442.056-.054.174-.117.432-.397l-.05-.046.048.047c.489-.514.529-1.267 1.051-1.663l.002-.001.002-.002c.605-.546.87-1.308 1.182-2.003l-.062-.028.046.05c1.045-.968 2.015-2.242 2.016-3.751l-.001-.086-.067.001.067.003.003-.134c-.001-1.124-.703-2.109-1.527-2.795-1.408-1.149-3.194-1.734-4.961-2.005l-.01.067.023-.063-.18-.033a.546.546 0 0 0-.538.531.5.5 0 0 0 .108.306l.011.014.017.007c.823.336 1.727.326 2.516.665l.001.001.002.001.026-.067.026-.062c-.825-.35-1.729-.34-2.517-.665l-.026.062.053-.041-.08-.223c0-.203.188-.395.403-.396l.133.024.006.002.007.001c1.752.269 3.515.848 4.896 1.976.805.67 1.479 1.627 1.478 2.691l-.003.127v.004l.001.083c.001 1.448-.938 2.695-1.973 3.652l-.01.009-.006.013c-.315.703-.577 1.444-1.15 1.958l.045.05-.041-.053c-.577.455-.615 1.22-1.066 1.676l-.001.001c-.255.276-.346.316-.426.391-.084.082-.116.171-.225.498l.064.021-.059-.033c-.386.693-1.005 1.093-1.644 1.459l.034.059-.019-.065c-.147.044-.371.145-.552.144-.137-.004-.232-.042-.296-.214l-.064.022.066-.016v-.004c-.009-.037.099-.178.219-.292l.166-.167.093-.158-.046-.078-.07-.015a1.272 1.272 0 0 0-.323.074l.021.064-.006-.067c-.299.028-.613.046-.931.046-1.258 0-2.571-.282-3.287-1.333l-.056.038.062-.027c-.139-.324-.149-.452-.149-.614l.001-.118v-.05l-.028-.02c-.621-.448-1.063-1.116-1.063-1.885l.005-.136.003-.038-.031-.022c-.738-.511-1.423-1.232-1.452-2.157v-.007l-.014-.206c-.002-.801.65-1.468 1.326-1.879 1.402-.84 3.092-1.058 4.714-1.058h.038v-.067l-.004.067c1.697.101 3.455.477 4.828 1.517h.001c.527.384.889.94 1.234 1.5l.044.072.092-.09-.047-.048.047.049c.675-.65 1.196-1.614 1.197-2.578 0-.362-.074-.723-.242-1.065l-.001-.002-.001-.001c-.717-1.261-2.065-1.986-3.366-2.464l-.028.064.026-.062-.026.062zm-6.92 9.593l.034-.058c-.325-.188-.49-.499-.572-.713l-.063.024-.016.066c.405.099.774.187 1.209.24h.006c.178.008.266.018.329.023l.005-.067-.022-.064c-.135.048-.266.135-.378.18l-.003.001-.003.002c-.186.098-.41.209-.562.31l.036.056.034-.058-.034.058.037.056c.139-.093.363-.204.55-.303l-.031-.06.025.063c.13-.054.259-.139.372-.178l.307-.107-.324-.024c-.058-.004-.152-.015-.333-.023l-.003.067.008-.067a10.03 10.03 0 0 1-1.193-.237l-.125-.03.046.12c.088.227.266.569.631.781l.036.021.035-.023-.038-.056zm4.192-1.084l-.004-.067c-.001 0-.448.028-.679.028l-.07-.001c-.189-.008-2.423-.137-3.305-.446l-.002-.001h-.002l-.143-.053-.017-.011-.024.021h.031l-.006-.021-.024.021h.031-.035l.03.02.006-.02h-.035l.03.02.001-.001.173-.083-.035-.058.033.059c.898-.508 1.968-.623 2.999-.623h.046v-.067l-.004.067c.955.055 1.935.205 2.746.713l.036-.057-.041.054.078.059.016.016.016-.011h-.018l.002.011.016-.011h-.018.024l-.02-.016-.004.016h.024l-.02-.016a.464.464 0 0 1-.165.07l-.002.001-.001.001c-.228.083-1.054.237-1.671.322l.007.064-.004-.067.004.067.009.067c.625-.087 1.442-.237 1.698-.329l-.023-.064.02.065.177-.071.078-.113-.062-.107-.083-.062-.003-.002-.003-.002c-.844-.527-1.847-.677-2.81-.733H146.293c-1.04 0-2.133.114-3.065.64h-.001l-.001.001-.116.052c-.042.026-.103.034-.117.127l.079.108.173.065.019-.065-.022.064c.923.321 3.144.444 3.343.453l.076.001c.239 0 .686-.028.687-.028h.005l-.007-.067zm.76 1.655l-.011-.067c-.625.106-1.261.151-1.896.151-.324 0-.647-.012-.968-.033l-.004.067.014-.066c-.319-.063-.704-.058-.965-.215l-.034.058.024.063a5.686 5.686 0 0 1 1.971-.366c.348 0 .691.036 1.016.114l.016-.066-.018.065c.309.084.644.091.801.331l.054-.036-.011-.067.011.067.056-.038c-.216-.31-.601-.303-.876-.385h-.003a4.497 4.497 0 0 0-1.048-.118c-.69 0-1.394.139-2.019.375l-.131.05.121.072c.311.182.711.168 1.007.231l.004.001h.005c.324.021.65.033.977.033.641 0 1.285-.045 1.919-.153l.103-.018-.059-.087-.056.037zm-1.852 1.56l.003-.067c-.852-.04-1.815-.117-2.411-.755l-.049.046-.016.065c.81.203 1.641.307 2.472.307.925 0 1.849-.129 2.743-.393l-.019-.065-.045-.05c-.715.637-1.734.822-2.679.844l.001.068.003-.067-.003.067.002.067c.959-.023 2.01-.207 2.766-.878l.226-.201-.29.086a9.557 9.557 0 0 1-2.705.387c-.82 0-1.64-.103-2.439-.303l-.223-.056.157.167c.648.687 1.651.755 2.503.797h.004l-.001-.066zm3.039-2.006l.053-.042c-.239-.298-.562-.453-.893-.544l-.018.065.017.065a58.556 58.556 0 0 0 1.527-.423l-.019-.065-.059.032a.542.542 0 0 1 .075.26c.008.285-.347.489-.701.586l.018.066.053-.042-.053.042.018.065c.364-.103.792-.311.8-.716a.677.677 0 0 0-.092-.325l-.026-.048-.052.016c-.504.149-1.015.286-1.524.422l-.24.064.239.066c.316.087.608.23.824.498l.028.035.043-.012-.018-.065zm1.43-2.306l-.018-.065c-.175.053-.347.196-.469.191l-.14-.072-.004-.005-.005-.004c-1.077-.832-2.446-1.132-3.767-1.216H146.248c-1.453 0-2.986.282-4.151 1.234l.043.052.02-.064c-.547-.166-1.007-.821-1.004-1.418a.982.982 0 0 1 .375-.793l.001-.001c1.223-1.017 2.889-1.28 4.463-1.28.113 0 .225.001.336.004 1.612.025 3.328.407 4.535 1.516l.001.001.001.001c.388.33.595.81.727 1.305l.065-.017-.04-.055c-.304.22-.617.427-.933.629l.036.057-.018-.065.018.065.036.057c.318-.203.633-.412.94-.634l.038-.027-.012-.045c-.135-.506-.35-1.015-.769-1.373l-.044.051.046-.05c-1.244-1.142-2.993-1.526-4.624-1.552a12.672 12.672 0 0 0-.339-.004c-1.587 0-3.286.263-4.549 1.311l.043.052-.042-.053a1.121 1.121 0 0 0-.426.899c.003.662.484 1.353 1.099 1.547l.035.011.028-.023c1.129-.923 2.629-1.203 4.066-1.203h.067v-.067l-.004.067c1.307.082 2.648.38 3.692 1.188l.041-.053-.051.044.242.118c.201-.005.374-.164.505-.196l.01-.003.008-.005-.036-.057z" fill="#b3b3b3"/><circle cx="146.342" cy="46.065" r=".686" fill="#dee1e5"/><path d="M146.342 46.751v.067a.753.753 0 1 0 0-1.506.753.753 0 0 0 0 1.506v-.134a.62.62 0 0 1-.618-.618.619.619 0 1 1 .618.618v.067z" fill="#b3b3b3"/><path d="M146.342 61.777l-8.04-4.576v-5.575l7.684-4.142-.256-.475-7.968 4.294v9.943l8.58 4.892 8.499-4.838v-4.36l-8.499 4.837zm7.96-.789l-7.42 4.223v-3.119l7.42-4.223v3.119z" fill="#dee1e5"/><path d="M146.342 61.777l.033-.059-8.006-4.557v-5.495l7.708-4.154-.288-.534-.032-.059-8.063 4.346v10.023l8.648 4.93 8.567-4.876v-4.517l-8.6 4.895.033.057.033-.059-.033.059.033.059 8.398-4.78v4.206l-8.432 4.799-8.513-4.853v-9.864l7.873-4.243.192.356-7.66 4.129v5.654l8.107 4.615.033-.019-.031-.059zm7.96-.789l-.033-.059-7.319 4.165V62.13l7.285-4.146v3.003h.067l-.033-.059.033.06h.067v-3.235l-7.555 4.299v3.274l7.555-4.299v-.039h-.067z" fill="#b3b3b3"/><path d="M138.86 73.172h1.32c.302 0 .658.282.816.438l2.316 2.568v-3.005h.786v4.1h-1.377c-.245-.008-.486-.059-.767-.334l-2.313-2.573v2.907h-.783v-4.101zM155.263 77.3c-.942.129-1.896.142-2.851.061-.56-.049-1.106-.165-1.608-.426-.634-.329-.836-1.067-.828-1.736.008-.618.191-1.277.742-1.636.361-.237.747-.315 1.157-.39 1.119-.197 2.24-.153 3.332-.033v.584c-1.287-.25-2.647-.188-3.109.404-.289.368-.33.734-.33 1.042 0 .556.19 1.398 1.319 1.563.736.108 1.466.026 2.176-.104v.671zM147.199 76.663c.111.001 1.887.009 2.495 0v.613a44.75 44.75 0 0 1-3.646.016c-1.052-.043-1.232-.572-1.253-1.081v-3.039h4.84v.584h-3.131V74.8h2.854v.57h-2.854c0 .309.01.658.013.721.017.397.202.543.682.572" fill="#a7a6ae"/><path d="M31.829 107.886c0 15.461 12.534 27.995 27.995 27.995s27.995-12.534 27.995-27.995-12.534-27.995-27.995-27.995-27.995 12.533-27.995 27.995z" fill="#5b5d61"/><circle cx="59.824" cy="108.965" r="25.928" fill="#7e7f84"/><circle cx="59.824" cy="106.806" r="25.928" fill="#bdbec2"/><circle cx="59.824" cy="107.886" r="25.928" fill="#a9a9b0"/><path d="M70.15 85.143c.317-1.364-4.588-3.188-9.643-3.273-5.351-.09-10.869 1.638-10.536 3.071l1.526 11.021a2.675 2.675 0 0 1-2.074 3.068l-.132.028a2.697 2.697 0 0 1-.905.037l-11.238-1.6c-1.363-.317-3.188 4.588-3.273 9.643-.09 5.351 1.638 10.869 3.071 10.536l11.021-1.526a2.672 2.672 0 0 1 3.067 2.075l.028.132c.064.297.076.604.037.905l-1.6 11.238c-.317 1.364 4.589 3.188 9.643 3.273 5.351.09 10.869-1.637 10.536-3.07l-1.526-11.021a2.673 2.673 0 0 1 2.074-3.067l.132-.028c.297-.063.603-.076.905-.037l11.238 1.6c1.364.317 3.188-4.588 3.273-9.643.09-5.351-1.638-10.869-3.071-10.536l-11.021 1.526a2.673 2.673 0 0 1-3.067-2.074l-.028-.132a2.671 2.671 0 0 1-.037-.905l1.6-11.241z" fill="#96959d"/><defs><path id="a" d="M35.397 84.342h48.998v48.45H35.397z"/></defs><clipPath id="b"><use xlink:href="#a" overflow="visible"/></clipPath><path d="M84.221 106.42a12.929 12.929 0 0 1 0 4.228l-.189 1.188c-.448 2.327-3.758 3.871-6.096 3.472l-6.036-1.031a4.37 4.37 0 0 0-1.814.07l-1.096.281a4.373 4.373 0 0 0-3.142 3.148 4.328 4.328 0 0 0-.022 2.052l1.42 6.155c.561 2.446-1.053 5.944-3.531 6.354l-2.375.346c-.961.14-1.933.146-2.894.021l-2.43-.33c-2.457-.432-4.044-3.914-3.482-6.344l1.431-6.204c.07-.318.108-.648.108-.977a4.358 4.358 0 0 0-3.277-4.222l-1.096-.281a4.368 4.368 0 0 0-1.814-.07l-6.036 1.031c-2.338.399-5.642-1.145-6.09-3.472l-.184-1.112a13.548 13.548 0 0 1 0-4.384l.184-1.107c.448-2.333 3.752-3.871 6.09-3.472l6.036 1.031c.604.103 1.22.076 1.814-.076l1.096-.281a4.416 4.416 0 0 0 2.003-1.139 4.319 4.319 0 0 0 1.139-2.003 4.415 4.415 0 0 0 .027-2.057l-1.431-6.198c-.562-2.43 1.026-5.917 3.482-6.349l1.382-.184a17.743 17.743 0 0 1 4.989.027l1.328.194c2.478.416 4.092 3.909 3.531 6.36l-1.42 6.149a4.365 4.365 0 0 0 .022 2.057 4.352 4.352 0 0 0 3.142 3.142l1.096.281a4.386 4.386 0 0 0 1.814.076l6.036-1.031c2.338-.399 5.647 1.139 6.096 3.472l.189 1.189z" clip-path="url(#b)" fill="#7b7b7d"/><defs><path id="c" d="M35.397 83.262h48.998v48.45H35.397z"/></defs><clipPath id="d"><use xlink:href="#c" overflow="visible"/></clipPath><path d="M84.221 105.34a12.929 12.929 0 0 1 0 4.228l-.189 1.188c-.448 2.327-3.758 3.871-6.096 3.472l-6.036-1.031a4.37 4.37 0 0 0-1.814.07l-1.096.281c-.772.2-1.458.6-2.003 1.145a4.319 4.319 0 0 0-1.139 2.003 4.328 4.328 0 0 0-.022 2.052l1.42 6.155c.561 2.446-1.053 5.944-3.531 6.355l-2.375.345c-.961.141-1.933.146-2.894.021l-2.43-.329c-2.457-.432-4.044-3.915-3.482-6.344l1.431-6.204c.07-.319.108-.648.108-.978a4.361 4.361 0 0 0-3.277-4.222l-1.096-.281a4.385 4.385 0 0 0-1.814-.07l-6.036 1.031c-2.338.399-5.642-1.145-6.09-3.472l-.184-1.112a13.548 13.548 0 0 1 0-4.384l.184-1.107c.448-2.332 3.752-3.871 6.09-3.471l6.036 1.031a4.37 4.37 0 0 0 1.814-.076l1.096-.281c.772-.2 1.458-.6 2.003-1.139a4.319 4.319 0 0 0 1.139-2.003 4.415 4.415 0 0 0 .027-2.057l-1.431-6.198c-.562-2.43 1.026-5.917 3.482-6.35l1.382-.184a17.743 17.743 0 0 1 4.989.027l1.328.194c2.478.416 4.092 3.909 3.531 6.36l-1.42 6.149a4.365 4.365 0 0 0 .022 2.057 4.353 4.353 0 0 0 3.142 3.143l1.096.281a4.386 4.386 0 0 0 1.814.076l6.036-1.031c2.338-.4 5.647 1.139 6.096 3.471l.189 1.189z" clip-path="url(#d)" fill="#c1c2c5"/><defs><path id="e" d="M35.397 83.802h48.998v48.45H35.397z"/></defs><clipPath id="f"><use xlink:href="#e" overflow="visible"/></clipPath><path d="M84.221 105.88a12.929 12.929 0 0 1 0 4.228l-.189 1.188c-.448 2.327-3.758 3.872-6.096 3.472l-6.036-1.031a4.37 4.37 0 0 0-1.814.07l-1.096.281a4.373 4.373 0 0 0-3.142 3.148 4.324 4.324 0 0 0-.022 2.051l1.42 6.155c.561 2.446-1.053 5.944-3.531 6.354l-2.375.346c-.961.14-1.933.146-2.894.021l-2.43-.329c-2.457-.432-4.044-3.915-3.482-6.344l1.431-6.204c.07-.318.108-.648.108-.977a4.36 4.36 0 0 0-3.277-4.222l-1.096-.281a4.368 4.368 0 0 0-1.814-.07l-6.036 1.031c-2.338.4-5.642-1.145-6.09-3.472l-.184-1.112a13.548 13.548 0 0 1 0-4.384l.184-1.107c.448-2.333 3.752-3.871 6.09-3.472l6.036 1.031c.604.103 1.22.076 1.814-.076l1.096-.281a4.416 4.416 0 0 0 2.003-1.139 4.319 4.319 0 0 0 1.139-2.003 4.415 4.415 0 0 0 .027-2.057l-1.431-6.198c-.562-2.43 1.026-5.917 3.482-6.349l1.382-.184a17.743 17.743 0 0 1 4.989.027l1.328.194c2.478.416 4.092 3.909 3.531 6.36l-1.42 6.149a4.365 4.365 0 0 0 .022 2.057 4.352 4.352 0 0 0 3.142 3.142l1.096.281a4.386 4.386 0 0 0 1.814.076l6.036-1.031c2.338-.399 5.647 1.139 6.096 3.472l.189 1.189z" clip-path="url(#f)" fill="#a4a4ac"/><path d="M60.803 88.601a1.165 1.165 0 1 1-2.33 0 1.165 1.165 0 0 1 2.33 0z" fill="#98979f"/><path d="M59.639 89.956c-.747 0-1.355-.608-1.355-1.354s.608-1.354 1.355-1.354 1.354.608 1.354 1.354-.607 1.354-1.354 1.354zm0-2.329c-.537 0-.975.437-.975.974s.438.974.975.974a.975.975 0 0 0 0-1.948z" fill="#7a7b82"/><path d="M41.636 107.819a1.164 1.164 0 1 1-2.328 0 1.164 1.164 0 0 1 2.328 0z" fill="#98979f"/><path d="M40.472 109.173a1.356 1.356 0 0 1 0-2.709c.747 0 1.354.608 1.354 1.355 0 .746-.608 1.354-1.354 1.354zm0-2.329a.975.975 0 0 0 0 1.949.975.975 0 0 0 0-1.949z" fill="#7a7b82"/><path d="M80.037 107.819a1.164 1.164 0 1 1-2.328 0 1.164 1.164 0 0 1 2.328 0z" fill="#98979f"/><path d="M78.873 109.173a1.356 1.356 0 0 1 0-2.709 1.356 1.356 0 0 1 0 2.709zm0-2.329a.975.975 0 0 0 0 1.949.975.975 0 0 0 0-1.949z" fill="#7a7b82"/><path d="M60.803 126.986a1.164 1.164 0 1 1-2.328 0 1.164 1.164 0 0 1 2.328 0z" fill="#98979f"/><path d="M59.639 128.34c-.747 0-1.355-.607-1.355-1.354s.608-1.354 1.355-1.354 1.354.608 1.354 1.354-.607 1.354-1.354 1.354zm0-2.328c-.537 0-.975.437-.975.974s.438.974.975.974a.975.975 0 0 0 0-1.948z" fill="#7a7b82"/><path fill="#626463" d="M59.876 61.55l.042 47.433M59.521 61.55l.043 47.433h.709L60.23 61.55"/><path d="M59.897 107.442c.86 0 1.557.682 1.557 1.523 0 .842-.697 1.524-1.557 1.524s-1.557-.682-1.557-1.524c0-.841.697-1.523 1.557-1.523z" fill="#626463"/><path d="M59.897 107.442v.317c.69.001 1.238.545 1.239 1.206-.001.661-.55 1.206-1.239 1.207-.69-.001-1.239-.545-1.24-1.207.001-.661.549-1.206 1.24-1.206v-.634c-1.03.002-1.874.819-1.875 1.841.001 1.022.844 1.839 1.875 1.841 1.03-.002 1.873-.819 1.874-1.841-.001-1.022-.844-1.839-1.874-1.841v.317zM135.528 133.051l.043 48.863M135.168 133.051l.043 48.863h.72l-.043-48.863" fill="#626463"/><path d="M135.549 131.527c.86 0 1.557.682 1.557 1.523s-.697 1.524-1.557 1.524-1.557-.683-1.557-1.524.697-1.523 1.557-1.523z" fill="#626463"/><path d="M135.549 131.527v.317c.69 0 1.238.546 1.24 1.206-.001.661-.55 1.206-1.24 1.207-.69 0-1.239-.546-1.24-1.207.001-.66.55-1.206 1.24-1.206v-.634c-1.03.002-1.873.819-1.875 1.841.001 1.022.844 1.839 1.875 1.841 1.03-.002 1.873-.819 1.874-1.841-.001-1.022-.845-1.839-1.874-1.841v.317zM158.943 131.527c.859 0 1.557.682 1.557 1.523s-.697 1.524-1.557 1.524-1.558-.683-1.558-1.524.698-1.523 1.558-1.523z" fill="#626463"/><path d="M158.943 131.527v.317c.689 0 1.238.546 1.239 1.206-.001.661-.55 1.206-1.239 1.207-.69 0-1.239-.546-1.24-1.207.001-.66.55-1.206 1.24-1.206v-.634c-1.03.002-1.874.819-1.875 1.841.001 1.022.844 1.839 1.875 1.841 1.03-.002 1.873-.819 1.874-1.841-.001-1.022-.844-1.839-1.874-1.841v.317zM158.922 133.051l.043 48.863" fill="#626463"/><path fill="#626463" d="M158.562 133.051l.043 48.863h.72l-.043-48.863M207.568 124.396c.859 0 1.557.682 1.557 1.523 0 .842-.697 1.524-1.557 1.524s-1.558-.682-1.558-1.524c.001-.841.698-1.523 1.558-1.523z"/><path d="M207.568 124.396v.317c.689 0 1.238.546 1.239 1.206-.001.661-.55 1.206-1.239 1.207-.69-.001-1.239-.546-1.24-1.207.001-.66.55-1.206 1.24-1.206v-.634c-1.03.002-1.874.819-1.875 1.841.001 1.023.845 1.839 1.875 1.841 1.03-.002 1.873-.819 1.874-1.841-.001-1.022-.844-1.839-1.874-1.841v.317zM207.547 125.919l.043 24.556" fill="#626463"/><path fill="#626463" d="M207.292 125.919l.043 24.556.51-.001-.043-24.555M232.202 113.809c.859 0 1.557.682 1.557 1.523 0 .842-.697 1.524-1.557 1.524s-1.558-.682-1.558-1.524c.001-.841.698-1.523 1.558-1.523z"/><path d="M232.202 113.809v.317c.689 0 1.238.546 1.239 1.206-.001.661-.55 1.206-1.239 1.207-.69-.001-1.239-.546-1.24-1.207.001-.66.55-1.206 1.24-1.206v-.634c-1.03.002-1.874.819-1.875 1.841.001 1.023.845 1.839 1.875 1.841 1.03-.002 1.873-.819 1.874-1.841-.001-1.022-.844-1.839-1.874-1.841v.317zM232.181 115.332l.043 35.361" fill="#626463"/><path fill="#626463" d="M231.875 115.332l.043 35.362.612-.001-.043-35.361M268.39 105.397c.859 0 1.557.682 1.557 1.523 0 .842-.697 1.524-1.557 1.524s-1.558-.682-1.558-1.524c0-.841.697-1.523 1.558-1.523z"/><path d="M268.39 105.397v.317c.689 0 1.238.546 1.239 1.206-.001.661-.55 1.206-1.239 1.207-.69-.001-1.239-.546-1.24-1.207.001-.66.55-1.206 1.24-1.206v-.634c-1.03.002-1.874.819-1.875 1.841.001 1.023.845 1.839 1.875 1.841 1.03-.002 1.873-.819 1.874-1.841-.001-1.022-.844-1.839-1.874-1.841v.317zM268.368 106.92l.043 13.788" fill="#626463"/><path fill="#626463" d="M268.177 106.921l.043 13.787.382-.001-.043-13.788M143.925 108.777c.86 0 1.558.682 1.558 1.523s-.697 1.523-1.558 1.523c-.859 0-1.557-.682-1.557-1.523s.697-1.523 1.557-1.523z"/><path d="M143.925 108.777v.317c.69.001 1.239.546 1.24 1.206-.001.66-.55 1.206-1.24 1.206-.689 0-1.238-.546-1.239-1.206.001-.66.55-1.206 1.239-1.206v-.634c-1.03.002-1.873.819-1.874 1.841.001 1.022.844 1.839 1.874 1.841 1.03-.002 1.874-.819 1.875-1.841-.001-1.022-.845-1.839-1.875-1.841v.317zM143.925 88.735c.86 0 1.558.682 1.558 1.523 0 .842-.697 1.524-1.558 1.524-.859 0-1.557-.682-1.557-1.524 0-.84.697-1.523 1.557-1.523z" fill="#626463"/><path d="M143.925 88.735v.317c.69.001 1.239.546 1.24 1.206-.001.661-.55 1.206-1.24 1.207-.689 0-1.238-.545-1.239-1.207.001-.66.55-1.206 1.239-1.206v-.634c-1.03.002-1.873.819-1.874 1.841.001 1.023.844 1.839 1.874 1.841 1.03-.002 1.874-.819 1.875-1.841-.001-1.022-.845-1.839-1.875-1.841v.317z" fill="#626463"/><path fill="#626463" d="M144.085 89.899h-32.56v.72h32.56"/><path fill="#626463" d="M111.166 76.772v13.84h.719v-13.84M144.085 109.876h-32.437v.72h32.437"/><path fill="#626463" d="M112.008 135.1v-25.202h-.72V135.1M197.412 98.876c.859 0 1.557.682 1.557 1.523s-.697 1.523-1.557 1.523-1.558-.682-1.558-1.523.698-1.523 1.558-1.523z"/><path d="M197.412 98.876v.317c.689 0 1.238.546 1.239 1.206-.001.66-.55 1.206-1.239 1.206-.69-.001-1.239-.546-1.24-1.206.001-.66.55-1.206 1.24-1.206v-.634c-1.03.002-1.874.819-1.875 1.841.001 1.022.845 1.839 1.875 1.841 1.03-.002 1.873-.819 1.874-1.841-.001-1.022-.844-1.839-1.874-1.841v.317zM197.391 76.654l.043 23.745" fill="#626463"/><path fill="#626463" d="M197.14 76.655l.043 23.744h.501l-.043-23.745M221.841 88.909c.86 0 1.558.682 1.558 1.524 0 .841-.697 1.523-1.558 1.523-.859 0-1.557-.682-1.557-1.523 0-.842.697-1.524 1.557-1.524z"/><path d="M221.841 88.909v.317c.69.001 1.239.546 1.24 1.207-.001.66-.55 1.206-1.24 1.206-.689 0-1.238-.546-1.239-1.206.001-.661.55-1.206 1.239-1.207v-.634c-1.03.002-1.873.819-1.874 1.841.001 1.022.844 1.839 1.874 1.841 1.03-.002 1.874-.819 1.875-1.841-.001-1.023-.845-1.839-1.875-1.841v.317zM221.819 43.215l.043 47.218" fill="#626463"/><path fill="#626463" d="M221.466 43.216l.043 47.217h.707l-.043-47.218M259.822 80.914c.86 0 1.557.682 1.557 1.523s-.696 1.524-1.557 1.524-1.557-.683-1.557-1.524.697-1.523 1.557-1.523z"/><path d="M259.822 80.914v.317c.69.001 1.238.545 1.239 1.206-.001.661-.549 1.206-1.239 1.207-.69-.001-1.238-.546-1.239-1.207.001-.661.549-1.206 1.239-1.206v-.634c-1.03.002-1.873.819-1.874 1.841.001 1.022.843 1.839 1.874 1.841 1.031-.002 1.873-.819 1.874-1.841-.001-1.022-.844-1.839-1.874-1.841v.317zM259.801 62.978l.043 19.459" fill="#626463"/><path fill="#626463" d="M259.574 62.979l.043 19.459.454-.001-.043-19.459"/><path d="M75.817 35.175H3.178a2.39 2.39 0 0 0-2.39 2.39v21.901a2.39 2.39 0 0 0 2.39 2.39h72.64a2.39 2.39 0 0 0 2.39-2.39V37.565a2.391 2.391 0 0 0-2.391-2.39" fill="#f6f7f6"/><path d="M3.178 35.175v.788h72.64c.884.002 1.6.717 1.602 1.602v21.901a1.605 1.605 0 0 1-1.602 1.602H3.178a1.605 1.605 0 0 1-1.602-1.602V37.565c.002-.884.717-1.6 1.602-1.602v-1.576A3.178 3.178 0 0 0 0 37.565v21.901a3.178 3.178 0 0 0 3.178 3.178h72.64a3.178 3.178 0 0 0 3.178-3.178V37.565a3.178 3.178 0 0 0-3.178-3.178H3.178v.788z" fill="#2d475b"/><path d="M16.33 60.5h-4.571c-1.471 0-2.005-1.199-2.005-2.006v-5.613H4.14c-1.472 0-2.006-1.199-2.006-2.006v-4.57c0-1.471 1.2-2.005 2.006-2.005h5.614v-5.613c0-1.472 1.199-2.006 2.005-2.006h4.571c1.472 0 2.006 1.2 2.006 2.006V44.3h5.612c.772 0 1.385.337 1.725.952.133.241.293.714.276 1.053h.005v4.57c0 1.472-1.2 2.006-2.006 2.006h-5.612v5.613c-.001 1.471-1.2 2.006-2.006 2.006zM4.14 45.263c-.242.004-1.042.089-1.042 1.041v4.57c.004.242.089 1.042 1.042 1.042h6.577v6.577c.003.242.089 1.042 1.041 1.042h4.569c.247-.003 1.044-.091 1.044-1.042v-6.576h6.576c.242-.004 1.042-.09 1.042-1.042v-4.577c-.003-.185-.072-1.034-1.042-1.034h-6.575v-6.578c-.004-.241-.089-1.042-1.042-1.042h-4.571c-.242.004-1.041.089-1.041 1.042v6.577H4.14z" fill="#2d475b"/><path d="M14.045 50.938a2.349 2.349 0 0 1-2.345-2.347 2.348 2.348 0 0 1 2.345-2.346 2.349 2.349 0 0 1 2.346 2.346 2.35 2.35 0 0 1-2.346 2.347zm0-3.729a1.383 1.383 0 0 0 0 2.764 1.383 1.383 0 0 0 0-2.764zM14.044 38.726l-1.931 3.011h3.864z" fill="#2d475b"/><path d="M15.977 42.219h-3.864a.483.483 0 0 1-.406-.742l1.932-3.011c.177-.277.634-.276.811 0l1.933 3.011a.482.482 0 0 1-.406.742zm-2.982-.964h2.1l-1.05-1.636-1.05 1.636zM4.143 48.591l3.01 1.931v-3.864z" fill="#2d475b"/><path d="M7.153 51.003a.477.477 0 0 1-.26-.076l-3.011-1.931a.48.48 0 0 1 0-.811l3.011-1.932a.482.482 0 0 1 .742.405v3.863a.483.483 0 0 1-.25.423l-.232.059zm-2.117-2.412l1.636 1.049v-2.099l-1.636 1.05zM23.91 48.59l-3.011-1.932v3.864z" fill="#2d475b"/><path d="M20.899 51.003l-.231-.059a.482.482 0 0 1-.251-.423v-3.863a.482.482 0 0 1 .743-.405l3.012 1.932a.482.482 0 0 1 0 .811l-3.012 1.932-.261.075zm.482-3.462v2.099l1.637-1.05-1.637-1.049zM14.044 58.455l1.933-3.011h-3.864z" fill="#2d475b"/><path d="M14.044 58.937a.482.482 0 0 1-.406-.222l-1.932-3.011a.485.485 0 0 1 .406-.743h3.864a.482.482 0 0 1 .406.743l-1.933 3.011a.48.48 0 0 1-.405.222zm-1.049-3.011l1.05 1.636 1.05-1.636h-2.1zM33.753 53.26v-9.836h2.776c.856 0 1.612.189 2.27.568a3.818 3.818 0 0 1 1.52 1.614c.36.698.543 1.5.547 2.405v.628c0 .928-.18 1.741-.541 2.438a3.753 3.753 0 0 1-1.534 1.608c-.662.374-1.435.565-2.317.574h-2.721zm1.297-8.769v7.708h1.365c1 0 1.777-.311 2.331-.932.559-.622.838-1.507.838-2.655v-.574c0-1.117-.264-1.984-.791-2.601-.522-.621-1.266-.937-2.229-.946H35.05zM41.941 48.571h3.297v1.02h-3.297zM47.94 49.409v3.851h-1.297v-9.836h3.628c1.077 0 1.919.275 2.527.824.612.55.919 1.277.919 2.182 0 .955-.3 1.691-.899 2.209-.594.513-1.448.77-2.56.77H47.94zm0-1.06h2.331c.694 0 1.225-.162 1.595-.487.369-.329.554-.801.554-1.418 0-.585-.185-1.054-.554-1.405-.37-.351-.876-.534-1.521-.547H47.94v3.857zM59.884 50.693h-4.121l-.926 2.567H53.5l3.756-9.836h1.135l3.763 9.836h-1.331l-.939-2.567zm-3.729-1.067h3.344l-1.675-4.601-1.669 4.601zM63.478 53.26v-9.836h2.777c.855 0 1.612.189 2.27.568a3.824 3.824 0 0 1 1.52 1.614c.36.698.542 1.5.547 2.405v.628c0 .928-.18 1.741-.54 2.438a3.753 3.753 0 0 1-1.534 1.608c-.662.374-1.435.565-2.317.574h-2.723zm1.297-8.769v7.708h1.365c1 0 1.776-.311 2.331-.932.559-.622.838-1.507.838-2.655v-.574c0-1.117-.264-1.984-.791-2.601-.522-.621-1.266-.937-2.229-.946h-1.514z" fill="#2d475b"/><path d="M59.659 198.57v8.054h22.862v-8.054c-.246 1.086-1.192 1.896-2.322 1.896H61.982c-1.13 0-2.077-.81-2.323-1.896m4.102-5.226v-4.468h3.048v.701h-2.311v1.128h2.216v.7h-2.216v1.239h2.348v.7h-3.085m3.886 0v-4.468h.737v3.731h2.132v.737h-2.869m3.523 0v-4.468h3.043v.701h-2.308v1.128h2.216v.7h-2.216v1.239h2.348v.7H71.17m5.562.126c-1.267 0-1.874-1.103-1.874-2.359 0-1.26.581-2.36 1.961-2.36 1.207 0 1.836.813 1.915 1.776l-.793-.001c-.074-.676-.511-1.077-1.131-1.077-.679 0-1.183.578-1.183 1.742 0 .933.504 1.579 1.233 1.579.765 0 1.02-.665 1.081-1.134h.794c-.103.89-.559 1.834-2.003 1.834m5.789-9.708H59.659v8.134h.743c.021.59.402.873 1.007.873.448 0 .865-.169.865-.66 0-1.109-2.584-.143-2.584-1.976 0-.996.693-1.382 1.547-1.382.541 0 1.622.124 1.716 1.42h-.796c-.025-.346-.271-.722-.886-.722-.49 0-.814.195-.814.615 0 1.049 2.613.043 2.613 1.951 0 1.153-.937 1.453-1.685 1.453-1.04 0-1.567-.429-1.726-1.105v5.091c.246-1.086 1.193-1.896 2.323-1.896h18.217c1.13 0 2.076.81 2.322 1.896v-7.877H81.27v3.768h-.735v-3.769h-1.317v-.7h3.304v-5.114m-22.925 14.25V183.7h22.986v5.175h.004v.701h-.004v17.109H59.597v-8.673m81.762-15.11H60.628a1.56 1.56 0 0 0-1.559 1.559v21.881a1.56 1.56 0 0 0 1.559 1.559h80.731a1.562 1.562 0 0 0 1.559-1.559v-21.881a1.562 1.562 0 0 0-1.559-1.559" fill="#f6f7f6"/><path d="M60.628 182.074v.828h80.731c.86.001 1.557.698 1.559 1.559v21.881a1.56 1.56 0 0 1-1.559 1.559H60.628a1.56 1.56 0 0 1-1.559-1.559v-21.881a1.56 1.56 0 0 1 1.559-1.559v-1.656a3.214 3.214 0 0 0-3.215 3.215v21.881a3.214 3.214 0 0 0 3.215 3.215h80.731a3.215 3.215 0 0 0 3.215-3.215v-21.881a3.214 3.214 0 0 0-3.215-3.215H60.628v.828" fill="#2d475b"/><path d="M80.199 195.557H61.982c-1.316 0-2.385 1.099-2.385 2.455 0 1.355 1.068 2.454 2.385 2.454h18.217c1.316 0 2.384-1.099 2.384-2.454 0-1.356-1.067-2.455-2.384-2.455M80.534 193.344h.735v-3.768h1.317v-.701h-3.37v.7h1.317v3.769m-1.799-2.817c-.078-.964-.708-1.776-1.915-1.776-1.38 0-1.961 1.1-1.961 2.36 0 1.256.607 2.359 1.874 2.359 1.444 0 1.9-.943 2.003-1.834h-.794c-.062.469-.316 1.134-1.081 1.134-.729 0-1.233-.646-1.233-1.579 0-1.164.504-1.742 1.183-1.742.62 0 1.057.401 1.131 1.077l.793.001m-7.564 2.817h3.084v-.7h-2.348v-1.239h2.216v-.7h-2.216v-1.128h2.308v-.701H71.17v4.468m-3.523 0h2.869v-.737h-2.132v-3.731h-.737v4.468m-3.886 0h3.085v-.7h-2.348v-1.239h2.216v-.7h-2.216v-1.128h2.311v-.701h-3.048v4.468m-4.072-3.211c0 1.833 2.584.867 2.584 1.976 0 .491-.417.66-.865.66-.605 0-.987-.283-1.007-.873h-.795c.009.94.516 1.572 1.778 1.572.748 0 1.685-.3 1.685-1.453 0-1.908-2.613-.902-2.613-1.951 0-.42.325-.615.814-.615.614 0 .861.375.886.722h.796c-.094-1.297-1.176-1.42-1.716-1.42-.854 0-1.547.386-1.547 1.382" fill="#2d475b"/><path d="M82.583 189.576h-.062v7.877a2.507 2.507 0 0 1 0 1.117v8.054H59.659v-8.054a2.498 2.498 0 0 1-.062-.558v8.673h22.986v-17.109m0-5.876H59.597v14.312c0-.192.021-.379.062-.558v-5.091a2.16 2.16 0 0 1-.053-.467h.053v-8.134h22.862v5.113h.062V183.7" fill="#f6f7f6"/><path d="M59.659 197.454a2.498 2.498 0 0 0 0 1.116v-1.116m22.862-.001v1.117a2.498 2.498 0 0 0 0-1.117M59.659 191.896h-.053a2.1 2.1 0 0 0 .053.467v-.467m22.924-3.02h-.062v.701h.062v-.701" fill="#2d475a"/><path d="M94.091 195.762c-1.112-.32-1.923-.711-2.432-1.175a2.27 2.27 0 0 1-.756-1.729c0-.775.309-1.415.925-1.919.622-.509 1.428-.763 2.418-.763.676 0 1.277.13 1.804.392.531.261.941.622 1.229 1.081.292.459.439.961.439 1.506h-1.304c0-.594-.189-1.061-.567-1.398-.378-.342-.912-.513-1.602-.513-.639 0-1.139.142-1.5.425-.356.279-.534.669-.534 1.169 0 .401.169.741.507 1.02.342.275.921.527 1.736.757.82.229 1.459.484 1.919.763.464.275.806.597 1.027.966.225.369.338.804.338 1.304 0 .797-.311 1.437-.933 1.918-.622.478-1.452.716-2.493.716a4.656 4.656 0 0 1-1.892-.385c-.585-.261-1.038-.617-1.358-1.067a2.609 2.609 0 0 1-.473-1.533h1.304c0 .594.218 1.065.655 1.412.441.342 1.029.514 1.763.514.685 0 1.209-.14 1.574-.419.365-.279.547-.66.547-1.142s-.169-.854-.506-1.115c-.335-.267-.948-.528-1.835-.785zM104.968 195.6h-4.263v3.486h4.952v1.061h-6.249v-9.837h6.181v1.068h-4.884v3.162h4.263zM108.575 199.086h4.662v1.061h-5.965v-9.837h1.303zM120.29 195.6h-4.263v3.486h4.952v1.061h-6.249v-9.837h6.181v1.068h-4.884v3.162h4.263zM129.829 197.025c-.122 1.041-.507 1.844-1.155 2.412-.644.563-1.502.844-2.574.844-1.162 0-2.094-.417-2.797-1.25-.698-.833-1.047-1.948-1.047-3.344v-.946c0-.915.162-1.718.486-2.412.329-.693.792-1.225 1.392-1.594.599-.374 1.292-.561 2.081-.561 1.045 0 1.883.292 2.513.878.631.581.998 1.387 1.102 2.419h-1.304c-.112-.784-.358-1.352-.736-1.703-.374-.351-.898-.527-1.574-.527-.829 0-1.479.306-1.952.918-.468.613-.703 1.484-.703 2.615v.953c0 1.067.223 1.916.669 2.547.446.63 1.069.946 1.871.946.721 0 1.272-.162 1.655-.486.387-.329.644-.898.77-1.709h1.303zM138.199 191.378h-3.161v8.769h-1.291v-8.769h-3.155v-1.068h7.607z" fill="#2d475b"/><path d="M224.436 182.064H150.13a2.39 2.39 0 0 0-2.389 2.389v21.897a2.389 2.389 0 0 0 2.389 2.389h74.306a2.39 2.39 0 0 0 2.389-2.389v-21.897a2.39 2.39 0 0 0-2.389-2.389" fill="#f6f7f6"/><path d="M150.13 182.064v.796h74.306a1.594 1.594 0 0 1 1.592 1.593v21.897a1.594 1.594 0 0 1-1.592 1.592H150.13a1.594 1.594 0 0 1-1.592-1.592v-21.897a1.595 1.595 0 0 1 1.592-1.593v-1.593a3.187 3.187 0 0 0-3.186 3.186v21.897a3.187 3.187 0 0 0 3.186 3.186h74.306a3.186 3.186 0 0 0 3.186-3.186v-21.897a3.187 3.187 0 0 0-3.186-3.186H150.13v.797z" fill="#2d475b"/><path d="M170.191 193.344h.91v-3.849h1.623v-.716h-4.156v.716h1.623v3.849zm-5.518-2.518v-1.331h1.571c.479 0 .776.185.776.658 0 .512-.273.673-.776.673h-1.571zm-.908 2.518h.908v-1.802h1.547c.667 0 .752.46.752 1.111 0 .333.043.563.11.691h.983c-.179-.25-.184-.759-.184-.979 0-.646-.114-1.119-.63-1.232v-.013c.407-.134.714-.505.714-1.1 0-.709-.356-1.238-1.459-1.238h-2.741v4.562zm-5.628 0h.982l.448-1.131h2.038l.454 1.131h1.016l-1.929-4.564h-1.079l-1.93 4.564zm1.705-1.847l.751-1.927.74 1.927h-1.491zm-4.264 1.847h.908v-3.849h1.626v-.716h-4.159v.716h1.625v3.849zm-6.209-3.281c0 1.872 3.189.887 3.189 2.019 0 .502-.516.674-1.066.674-.747 0-1.218-.289-1.243-.891h-.982c.014.96.637 1.607 2.197 1.607.922 0 2.077-.308 2.077-1.485 0-1.95-3.226-.921-3.226-1.994 0-.428.4-.626 1.007-.626.757 0 1.062.383 1.093.735h.982c-.117-1.326-1.45-1.452-2.118-1.452-1.055.001-1.91.396-1.91 1.413M170.287 195.605h-18.602c-1.345 0-2.435 1.123-2.435 2.506s1.09 2.506 2.435 2.506h18.602c1.345 0 2.435-1.122 2.435-2.506 0-1.385-1.09-2.506-2.435-2.506zM183.601 195.762c-1.112-.32-1.923-.711-2.432-1.175a2.267 2.267 0 0 1-.757-1.729c0-.775.309-1.415.926-1.919.621-.509 1.428-.763 2.418-.763.676 0 1.277.13 1.804.392.532.261.941.622 1.23 1.081.292.459.438.961.438 1.506h-1.304c0-.594-.189-1.061-.567-1.398-.378-.342-.912-.513-1.602-.513-.64 0-1.139.142-1.499.425-.356.279-.534.669-.534 1.169 0 .401.169.741.507 1.02.342.275.921.527 1.736.757.819.229 1.459.484 1.919.763.464.275.806.597 1.026.966.226.369.338.804.338 1.304 0 .797-.311 1.437-.933 1.919-.621.477-1.452.716-2.492.716a4.652 4.652 0 0 1-1.892-.385c-.586-.261-1.038-.617-1.358-1.068a2.609 2.609 0 0 1-.473-1.533h1.304c0 .594.219 1.065.655 1.412.441.342 1.029.514 1.764.514.685 0 1.209-.14 1.573-.419.365-.279.548-.66.548-1.142s-.169-.854-.507-1.115c-.336-.267-.949-.528-1.836-.785zM195.714 191.378h-3.161v8.769h-1.291v-8.769h-3.155v-1.068h7.607zM202.078 197.58h-4.121l-.926 2.567h-1.338l3.757-9.836h1.135l3.763 9.836h-1.331l-.939-2.567zm-3.729-1.068h3.344l-1.675-4.601-1.669 4.601zM209.279 196.168h-2.311v3.979h-1.304v-9.836h3.257c1.107 0 1.959.252 2.554.757.599.504.898 1.239.898 2.203 0 .612-.167 1.146-.5 1.601-.329.455-.788.795-1.379 1.02l2.311 4.175v.081h-1.392l-2.134-3.98zm-2.31-1.061h1.993c.645 0 1.155-.167 1.533-.5.383-.333.574-.779.574-1.337 0-.608-.182-1.074-.547-1.398-.36-.325-.883-.489-1.567-.493h-1.986v3.728zM220.44 191.378h-3.162v8.769h-1.29v-8.769h-3.155v-1.068h7.607z" fill="#2d475b"/><path d="M214.871 150.475h-45.045a2.398 2.398 0 0 0-2.398 2.398v21.982a2.398 2.398 0 0 0 2.398 2.398h45.045a2.398 2.398 0 0 0 2.398-2.398v-21.982a2.397 2.397 0 0 0-2.398-2.398" fill="#f6f7f6"/><path d="M169.826 150.475v.634h45.045c.974.001 1.763.79 1.765 1.765v21.982a1.767 1.767 0 0 1-1.765 1.764h-45.045a1.768 1.768 0 0 1-1.765-1.764v-21.982a1.768 1.768 0 0 1 1.765-1.765v-1.268a3.032 3.032 0 0 0-3.032 3.032v21.982a3.033 3.033 0 0 0 3.032 3.032h45.045a3.032 3.032 0 0 0 3.032-3.032v-21.982a3.032 3.032 0 0 0-3.032-3.032h-45.045v.634z" fill="#2d475b"/><path fill="#2d475b" d="M203.65 162.543l2.359-3.77h1.526l-3.107 4.877 3.181 4.959h-1.54l-2.419-3.837-2.431 3.837h-1.533l3.188-4.959-3.114-4.877h1.519z"/><defs><path id="g" d="M168.539 151.988h24.191v24.19h-24.191v-24.19"/></defs><clipPath id="h"><use xlink:href="#g" overflow="visible"/></clipPath><path d="M188.271 166.966a3.341 3.341 0 1 1 .002-6.682 3.341 3.341 0 0 1-.002 6.682m-7.03-5.481a3.341 3.341 0 1 1 0-6.682 3.341 3.341 0 0 1 0 6.682m-1.203 11.954a3.34 3.34 0 1 1-.001-6.68 3.34 3.34 0 0 1 .001 6.68m-6.944-5.621a3.34 3.34 0 1 1 0-6.681 3.341 3.341 0 0 1 0 6.681m7.586-15.83c-6.668 0-12.073 5.405-12.073 12.074s5.405 12.074 12.073 12.074 12.074-5.406 12.074-12.074-5.406-12.074-12.074-12.074" clip-path="url(#h)" fill="#2d475b"/><path d="M190.656 163.625a2.385 2.385 0 1 1-4.77.001 2.385 2.385 0 0 1 4.77-.001M182.399 170.098a2.362 2.362 0 1 1-4.725 0 2.362 2.362 0 0 1 4.725 0M175.581 164.477a2.489 2.489 0 1 1 0 0" clip-path="url(#h)" fill="#2d475b"/><path d="M268.537 150.693h-45.045a2.398 2.398 0 0 0-2.398 2.398v21.982a2.398 2.398 0 0 0 2.398 2.398h45.045a2.398 2.398 0 0 0 2.398-2.398v-21.982a2.398 2.398 0 0 0-2.398-2.398" fill="#f6f7f6"/><path d="M223.492 150.693v.634h45.045c.974.001 1.763.79 1.765 1.765v21.982a1.769 1.769 0 0 1-1.765 1.765h-45.045a1.768 1.768 0 0 1-1.765-1.765v-21.982a1.768 1.768 0 0 1 1.765-1.765v-1.268a3.032 3.032 0 0 0-3.032 3.032v21.982a3.032 3.032 0 0 0 3.032 3.032h45.045a3.032 3.032 0 0 0 3.032-3.032v-21.982a3.032 3.032 0 0 0-3.032-3.032h-45.045v.634z" fill="#2d475b"/><path d="M254.107 168.828v-9.836h3.216c1.067 0 1.869.221 2.405.662.54.441.811 1.094.811 1.959 0 .459-.131.867-.392 1.223a2.556 2.556 0 0 1-1.067.818c.531.148.95.432 1.257.851.311.415.466.91.466 1.486 0 .883-.286 1.576-.858 2.081-.571.504-1.38.757-2.425.757h-3.413zm1.298-4.601v3.54h2.142c.604 0 1.078-.156 1.425-.466.352-.315.527-.748.527-1.297 0-1.184-.645-1.776-1.933-1.776h-2.161zm0-1.04h1.959c.567 0 1.02-.142 1.357-.426.343-.284.514-.668.514-1.155 0-.541-.157-.932-.473-1.175-.315-.248-.795-.372-1.439-.372h-1.918v3.128z" fill="#2d475b"/><defs><path id="i" d="M222.249 152.234h23.831v23.832h-23.831v-23.832"/></defs><clipPath id="j"><use xlink:href="#i" overflow="visible"/></clipPath><path d="M241.689 166.99a3.292 3.292 0 1 1 .002-6.584 3.292 3.292 0 0 1-.002 6.584m-6.926-5.399a3.292 3.292 0 1 1 .002-6.584 3.292 3.292 0 0 1-.002 6.584m-1.186 11.776a3.291 3.291 0 1 1 0-6.582 3.291 3.291 0 0 1 0 6.582m-6.842-5.537a3.291 3.291 0 1 1 0-6.583 3.291 3.291 0 0 1 0 6.583m7.475-15.596c-6.569 0-11.896 5.325-11.896 11.895 0 6.569 5.326 11.895 11.896 11.895s11.895-5.326 11.895-11.895-5.326-11.895-11.895-11.895" clip-path="url(#j)" fill="#2d475b"/><path d="M244.038 163.699a2.35 2.35 0 1 1-4.7 0 2.35 2.35 0 0 1 4.7 0M229.187 164.539a2.452 2.452 0 1 1-4.904 0 2.452 2.452 0 0 1 4.904 0M237.086 158.366a2.327 2.327 0 1 1-4.653 0 2.327 2.327 0 0 1 4.653 0" clip-path="url(#j)" fill="#2d475b"/><path d="M296.46 120.708h-45.045a2.398 2.398 0 0 0-2.398 2.398v21.982a2.398 2.398 0 0 0 2.398 2.398h45.045a2.398 2.398 0 0 0 2.398-2.398v-21.982a2.398 2.398 0 0 0-2.398-2.398" fill="#f6f7f6"/><path d="M251.415 120.708v.634h45.045c.974.001 1.763.79 1.765 1.765v21.982a1.767 1.767 0 0 1-1.765 1.764h-45.045a1.768 1.768 0 0 1-1.765-1.764v-21.982a1.768 1.768 0 0 1 1.765-1.765v-1.268a3.032 3.032 0 0 0-3.032 3.032v21.982a3.033 3.033 0 0 0 3.032 3.032h45.045a3.032 3.032 0 0 0 3.032-3.032v-21.982a3.032 3.032 0 0 0-3.032-3.032h-45.045v.634z" fill="#2d475b"/><path d="M287.462 136.274h-4.121l-.926 2.567h-1.337l3.756-9.836h1.135l3.763 9.836h-1.33l-.94-2.567zm-3.73-1.067h3.345l-1.676-4.601-1.669 4.601z" fill="#2d475b"/><defs><path id="k" d="M250.577 122.557h23.334v23.334h-23.334v-23.334"/></defs><clipPath id="l"><use xlink:href="#k" overflow="visible"/></clipPath><path d="M269.611 137.004a3.224 3.224 0 1 1 .001-6.447 3.224 3.224 0 0 1-.001 6.447m-6.781-5.286a3.223 3.223 0 1 1 0-6.446 3.223 3.223 0 0 1 0 6.446m-1.161 11.531a3.223 3.223 0 1 1 0-6.446 3.223 3.223 0 0 1 0 6.446m-6.698-5.422a3.222 3.222 0 1 1-.001-6.445 3.222 3.222 0 0 1 .001 6.445m7.317-15.27c-6.432 0-11.646 5.214-11.646 11.647 0 6.432 5.215 11.646 11.646 11.646 6.433 0 11.646-5.214 11.646-11.646.001-6.433-5.213-11.647-11.646-11.647" clip-path="url(#l)" fill="#2d475b"/><path d="M263.947 140.026a2.278 2.278 0 1 1-4.555.001 2.278 2.278 0 0 1 4.555-.001M257.37 134.604a2.4 2.4 0 1 1-4.8.002 2.4 2.4 0 0 1 4.8-.002M265.105 128.56a2.279 2.279 0 1 1-4.558 0 2.279 2.279 0 0 1 4.558 0" clip-path="url(#l)" fill="#2d475b"/><path d="M131.751 49.878H85.237a2.398 2.398 0 0 0-2.398 2.398v21.978a2.398 2.398 0 0 0 2.398 2.398h46.514a2.398 2.398 0 0 0 2.398-2.398V52.276a2.398 2.398 0 0 0-2.398-2.398" fill="#f6f7f6"/><path d="M85.237 49.878v.643h46.514a1.757 1.757 0 0 1 1.755 1.755v21.978a1.757 1.757 0 0 1-1.755 1.755H85.237a1.757 1.757 0 0 1-1.755-1.755V52.276a1.757 1.757 0 0 1 1.755-1.755v-1.286a3.041 3.041 0 0 0-3.041 3.041v21.978a3.041 3.041 0 0 0 3.041 3.041h46.514a3.04 3.04 0 0 0 3.041-3.041V52.276a3.04 3.04 0 0 0-3.041-3.041H85.237v.643z" fill="#2d475b"/><path fill="#2d475b" d="M117.154 66.949h4.661v1.06h-5.965v-9.836h1.304zM129.429 68.009h-6.445v-.898l3.405-3.783c.504-.572.851-1.036 1.04-1.392.194-.36.291-.732.291-1.115 0-.513-.155-.935-.466-1.263-.311-.329-.725-.493-1.243-.493-.622 0-1.106.178-1.453.534-.342.351-.513.842-.513 1.473h-1.25c0-.905.291-1.637.872-2.196.585-.558 1.367-.837 2.344-.837.914 0 1.637.241 2.168.723.531.478.797 1.115.797 1.912 0 .968-.617 2.121-1.851 3.459l-2.635 2.857h4.938v1.019zM102.448 58.954c2.087 0 3.785 1.884 3.785 4.199 0 2.32-1.697 4.207-3.785 4.207H89.55c-2.071-.018-3.756-1.906-3.756-4.207 0-2.297 1.685-4.18 3.749-4.199h12.905m0-.9H89.543c-2.569.022-4.648 2.292-4.648 5.099 0 2.807 2.08 5.084 4.648 5.107h12.905c2.588 0 4.685-2.287 4.685-5.107 0-2.82-2.098-5.099-4.685-5.099z"/><path fill="#2d475b" d="M92.647 60.939v4.427h3.132v-.817h-2.158v-3.61zM99.737 64.544v.764h-2.886c.031-.289.125-.563.282-.822.156-.259.464-.602.926-1.03.371-.346.599-.58.683-.703a.909.909 0 0 0 .17-.504c0-.184-.049-.324-.147-.423a.552.552 0 0 0-.409-.148.553.553 0 0 0-.411.155c-.102.104-.16.276-.176.516l-.82-.082c.049-.453.202-.778.46-.976.258-.198.58-.296.967-.296.423 0 .757.114.999.342.242.229.363.513.363.853 0 .193-.035.377-.104.552a2.254 2.254 0 0 1-.329.55c-.1.126-.28.31-.539.548-.26.238-.424.396-.493.475l-.168.229h1.632z"/><path d="M119.427 135.1H72.914a2.398 2.398 0 0 0-2.398 2.398v21.977a2.398 2.398 0 0 0 2.398 2.398h46.514a2.398 2.398 0 0 0 2.398-2.398v-21.977a2.399 2.399 0 0 0-2.399-2.398" fill="#f6f7f6"/><path d="M72.914 135.1v.643h46.514a1.757 1.757 0 0 1 1.755 1.755v21.977a1.757 1.757 0 0 1-1.755 1.755H72.914a1.757 1.757 0 0 1-1.755-1.755v-21.977a1.757 1.757 0 0 1 1.755-1.755v-1.286a3.041 3.041 0 0 0-3.041 3.041v21.977a3.041 3.041 0 0 0 3.041 3.041h46.514a3.041 3.041 0 0 0 3.041-3.041v-21.977a3.04 3.04 0 0 0-3.041-3.041H72.914v.643z" fill="#2d475b"/><path d="M107.134 149.253h-2.31v3.979h-1.304v-9.836h3.256c1.108 0 1.959.252 2.554.757.599.504.898 1.238.898 2.202 0 .612-.167 1.146-.5 1.601-.329.455-.788.795-1.378 1.02l2.311 4.175v.081h-1.392l-2.135-3.979zm-2.31-1.062h1.993c.644 0 1.155-.167 1.534-.5.383-.333.574-.779.574-1.337 0-.608-.183-1.074-.547-1.398-.36-.324-.883-.489-1.567-.493h-1.986v3.728zM118.159 153.232h-6.445v-.898l3.405-3.783c.504-.572.852-1.036 1.041-1.392a2.32 2.32 0 0 0 .291-1.114c0-.514-.155-.935-.466-1.264-.311-.329-.725-.493-1.243-.493-.621 0-1.105.178-1.452.534-.342.352-.514.842-.514 1.473h-1.25c0-.905.291-1.637.871-2.195.586-.559 1.367-.838 2.344-.838.915 0 1.637.241 2.169.723.531.477.797 1.115.797 1.912 0 .968-.617 2.122-1.851 3.459l-2.635 2.858h4.938v1.018zM80.955 146.824h1.081c.438 0 .678.189.678.621 0 .454-.241.644-.678.644h-1.081v-1.265zm-.984 3.72h.983v-1.752h.987c.496 0 .678.208.747.679.05.358.037.792.157 1.074h.984c-.175-.251-.169-.777-.19-1.062-.031-.452-.167-.923-.649-1.049 0 0 .708-.184.708-1.137 0-.679-.509-1.236-1.312-1.236H79.97l.001 4.483z" fill="#2d475b"/><path d="M90.233 144.055c2.112 0 3.83 1.907 3.83 4.248 0 2.348-1.718 4.258-3.83 4.258H77.182c-2.096-.018-3.801-1.929-3.801-4.258 0-2.324 1.705-4.23 3.793-4.248h13.059m0-.91H77.174c-2.6.022-4.704 2.319-4.704 5.159 0 2.841 2.104 5.145 4.704 5.168h13.059c2.619 0 4.741-2.314 4.741-5.168s-2.122-5.159-4.741-5.159z" fill="#2d475b"/><path d="M87.705 149.771v.773h-2.921c.032-.292.126-.569.285-.832.158-.262.47-.609.937-1.042.375-.35.606-.587.691-.711a.922.922 0 0 0 .172-.51c0-.186-.05-.328-.149-.429a.561.561 0 0 0-.414-.15c-.174 0-.313.052-.416.157s-.162.279-.178.522l-.83-.083c.049-.458.205-.788.465-.987.261-.2.587-.299.979-.299.429 0 .766.115 1.011.347.245.231.368.519.368.863 0 .196-.035.382-.106.559-.07.177-.181.363-.333.556a5.567 5.567 0 0 1-.545.555c-.263.24-.429.401-.499.48l-.171.231h1.654z" fill="#2d475b"/><path d="M202.624 49.875h-45.045a2.398 2.398 0 0 0-2.398 2.398v21.982a2.398 2.398 0 0 0 2.398 2.398h45.045a2.398 2.398 0 0 0 2.398-2.398V52.273a2.398 2.398 0 0 0-2.398-2.398" fill="#f6f7f6"/><path d="M157.579 49.875v.203h45.045a2.198 2.198 0 0 1 2.195 2.195v21.982a2.198 2.198 0 0 1-2.195 2.195h-45.045a2.198 2.198 0 0 1-2.195-2.195V52.273a2.198 2.198 0 0 1 2.195-2.195v-.406a2.602 2.602 0 0 0-2.602 2.602v21.982a2.602 2.602 0 0 0 2.602 2.602h45.045a2.602 2.602 0 0 0 2.602-2.602V52.273a2.602 2.602 0 0 0-2.602-2.602h-45.045v.204z" fill="#2d475b"/><path fill="#2d475b" d="M191.194 63.112l2.567-4.939h1.473l-3.391 6.168v3.668h-1.297v-3.668l-3.392-6.168h1.487z"/><g><defs><path id="m" d="M156.085 51.229h24.31v24.309h-24.31V51.229"/></defs><clipPath id="n"><use xlink:href="#m" overflow="visible"/></clipPath><path d="M175.914 66.281a3.357 3.357 0 1 1 0-6.714 3.357 3.357 0 0 1 0 6.714m-7.064-5.508a3.357 3.357 0 1 1 0-6.714 3.357 3.357 0 0 1 0 6.714m-1.21 12.013a3.356 3.356 0 1 1 0-6.712 3.356 3.356 0 0 1 0 6.712m-6.979-5.649a3.356 3.356 0 1 1 0-6.713 3.356 3.356 0 0 1 0 6.713m7.624-15.908c-6.701 0-12.134 5.432-12.134 12.133 0 6.701 5.433 12.133 12.134 12.133s12.134-5.432 12.134-12.133c0-6.701-5.433-12.133-12.134-12.133" clip-path="url(#n)" fill="#2d475b"/><path d="M178.311 62.923a2.396 2.396 0 1 1-4.792.002 2.396 2.396 0 0 1 4.792-.002M170.014 69.428a2.374 2.374 0 1 1-4.748 0 2.374 2.374 0 0 1 4.748 0M171.219 57.483a2.373 2.373 0 1 1-4.747.001 2.373 2.373 0 0 1 4.747-.001" clip-path="url(#n)" fill="#2d475b"/></g><path d="M231.697 16.442h-46.514a2.398 2.398 0 0 0-2.398 2.398v21.978a2.398 2.398 0 0 0 2.398 2.398h46.514a2.398 2.398 0 0 0 2.397-2.398V18.84a2.396 2.396 0 0 0-2.397-2.398" fill="#f6f7f6"/><path d="M185.184 16.442v.643h46.514a1.757 1.757 0 0 1 1.755 1.755v21.978a1.758 1.758 0 0 1-1.755 1.755h-46.514a1.757 1.757 0 0 1-1.756-1.755V18.84a1.758 1.758 0 0 1 1.756-1.755v-1.286a3.04 3.04 0 0 0-3.041 3.041v21.978a3.04 3.04 0 0 0 3.041 3.041h46.514a3.04 3.04 0 0 0 3.04-3.041V18.84a3.04 3.04 0 0 0-3.04-3.041h-46.514v.643z" fill="#2d475b"/><path fill="#2d475b" d="M217.1 33.513h4.662v1.061h-5.966v-9.837h1.304zM227.038 34.574h-1.257v-8.33l-2.52.925v-1.135l3.581-1.344h.196zM202.501 25.498c2.112 0 3.83 1.907 3.83 4.25 0 2.348-1.718 4.258-3.83 4.258h-13.054c-2.097-.018-3.802-1.929-3.802-4.258 0-2.325 1.705-4.23 3.794-4.25h13.062m0-.911h-13.062c-2.601.023-4.705 2.32-4.705 5.16 0 2.841 2.104 5.146 4.705 5.169h13.062c2.619 0 4.741-2.315 4.741-5.169 0-2.853-2.123-5.16-4.741-5.16z"/><path fill="#2d475b" d="M195.389 27.506h-.987v4.482h3.171v-.828h-2.184z"/><path d="M294.192 36.205h-46.514a2.398 2.398 0 0 0-2.398 2.397V60.58a2.398 2.398 0 0 0 2.398 2.398h46.514a2.397 2.397 0 0 0 2.397-2.398V38.603a2.396 2.396 0 0 0-2.397-2.398" fill="#f6f7f6"/><path d="M247.679 36.205v.643h46.514a1.756 1.756 0 0 1 1.755 1.754V60.58a1.757 1.757 0 0 1-1.755 1.755h-46.514a1.758 1.758 0 0 1-1.756-1.755V38.603a1.757 1.757 0 0 1 1.756-1.754v-1.287a3.04 3.04 0 0 0-3.041 3.041V60.58a3.04 3.04 0 0 0 3.041 3.041h46.514a3.04 3.04 0 0 0 3.04-3.041V38.603a3.04 3.04 0 0 0-3.04-3.041h-46.514v.643z" fill="#2d475b"/><path d="M281.779 50.415h-2.311v3.979h-1.304v-9.836h3.257c1.107 0 1.959.252 2.554.757.599.504.898 1.239.898 2.202 0 .613-.167 1.146-.5 1.602-.329.455-.788.795-1.378 1.02l2.31 4.175v.081h-1.392l-2.134-3.98zm-2.31-1.06h1.993c.645 0 1.155-.167 1.534-.5.383-.333.574-.779.574-1.338 0-.608-.183-1.074-.548-1.398-.36-.324-.883-.488-1.567-.493h-1.986v3.729zM290.468 54.394h-1.257v-8.329l-2.52.925v-1.135l3.581-1.344h.196zM257.392 48.026h1.073c.436 0 .674.188.674.617 0 .451-.238.64-.674.64h-1.073v-1.257zm-.978 3.697h.978v-1.741h.98c.492 0 .674.206.742.674.05.355.037.787.156 1.068h.978c-.174-.25-.168-.772-.188-1.055-.031-.449-.166-.918-.646-1.042 0 0 .703-.183.703-1.13 0-.675-.506-1.229-1.304-1.229h-2.4l.001 4.455z" fill="#2d475b"/><path d="M264.803 45.274c2.099 0 3.806 1.895 3.806 4.222 0 2.333-1.707 4.231-3.806 4.231h-12.971c-2.084-.018-3.778-1.917-3.778-4.231 0-2.31 1.694-4.204 3.771-4.222h12.978m0-.904h-12.979c-2.584.022-4.676 2.305-4.676 5.127 0 2.824 2.092 5.113 4.676 5.137h12.979c2.603 0 4.711-2.3 4.711-5.137 0-2.836-2.109-5.127-4.711-5.127z" fill="#2d475b"/></svg>