<svg baseProfile="tiny" xmlns="http://www.w3.org/2000/svg" viewBox="0 0 423.7 123.1"><path fill="#856125" d="M94.1 24.3c0-.7.2-1.3.5-1.8s.7-1 1.2-1.5L91 9.6c-.6.5-1 1-1.3 1.5-.3.6-.4 1.2-.5 1.9 0 .7 0 1.6.2 2.6s.5 2.2.9 3.5l4.8 11c-.4-1.3-.7-2.4-.8-3.4-.2-.9-.3-1.7-.2-2.4zM6.5 21.9c-.2-.3-.5-.6-.8-.9l-.9-.6c-.3-.2-.7-.3-1.1-.4H2.1c-.2 0-.4 0-.6.1-.2 0-.4.1-.6.1-.2 0-.4.1-.6.1l8.3 10.9c.2 0 .4-.1.6-.1.2 0 .4-.1.6-.1.2 0 .4 0 .5-.1h.5c.4 0 .8 0 1.2.1.4.1.7.2 1 .3.3.2.6.3.9.6.3.2.5.5.8.8-2.8-3.5-5.5-7.2-8.2-10.8zM68.7 17.6c-1.1-2.2-2.4-4-3.7-5.4-1.4-1.4-2.9-2.4-4.5-3.2-1.6-.8-3.3-1.2-5.2-1.5-1.8-.3-3.8-.4-5.8-.4H46c-.4 0-.8 0-1.2.1-5.5.3-9.5 1.6-12.4 3.5-2.9 1.9-4.8 4.5-5.9 7.4-1.2 2.9-1.6 6-1.8 9.1-.2 3.1 0 6.1 0 8.6L32 46.2c0-2.4-.2-5.3 0-8.3.2-3 .6-6 1.7-8.8 1.1-2.8 2.9-5.2 5.7-7.1 2.8-1.9 6.7-3.1 12-3.4.4 0 .8 0 1.2-.1H55.9c2 0 3.8.1 5.6.4 1.8.3 3.4.8 5 1.5 1.5.7 3 1.7 4.3 3.1 1.3 1.3 2.5 3 3.6 5.2-2-3.8-3.8-7.4-5.7-11.1z"/><path fill="#856125" d="M35.2 102.4c-.4-5.6-.8-13-1.3-20.5s-.9-15.2-1.3-21.7c-.4-6.4-.6-11.6-.6-14l-7.4-10.4c0 2.5.3 7.9.6 14.6.4 6.7.8 14.7 1.3 22.5.5 7.8.9 15.5 1.3 21.3.4 5.9.6 10 .7 10.7l7.3 7.7c0-.6-.3-4.6-.6-10.2z"/><path fill="#856125" d="M96.6 36.5c-.5-2.9-1.1-5.1-1.5-6.4l-4.8-11c.4 1.4 1 3.6 1.5 6.6.5 3 1 6.8 1 11.2 0 4.4-.3 9.4-1.5 14.9-1.1 5.5-3 11.5-5.9 17.9C82.5 76 78.3 81.8 73.2 87c-5.1 5.2-11.2 9.7-18.1 13.4-6.8 3.7-14.4 6.7-22.4 8.7-8 2-16.5 3.1-25.1 3.1H6l8.2 7.4h1.2c8.3 0 16.4-1 24.1-3 7.7-1.9 14.9-4.8 21.5-8.4 6.6-3.6 12.4-7.9 17.4-12.9 4.9-5 8.9-10.6 11.7-16.6 2.8-6.1 4.6-11.9 5.7-17.2 1.1-5.3 1.4-10.1 1.4-14.4.4-4.1-.1-7.7-.6-10.6z"/><path fill="#DEBA27" d="M90.4 19.1c.4 1.4 1 3.6 1.5 6.6.5 3 1 6.8 1 11.2 0 4.4-.3 9.4-1.5 14.9-1.1 5.5-3 11.5-5.9 17.9C82.6 76 78.4 81.8 73.3 87c-5.1 5.2-11.2 9.7-18.1 13.4-6.8 3.7-14.4 6.7-22.4 8.7-8 2-16.5 3.1-25.1 3.1H6.1c1.4-1 2.5-1.9 3.4-2.8.9-.9 1.6-2 2-3.4s.7-3.1.8-5.3c.1-2.3 0-5.1-.2-8.8-.2-3.6-.5-8.8-.7-14.7 0-5.7-.4-12.2-.7-18.5-.3-6.3-.6-12.4-.9-17.4-.3-5-.6-9-.8-11-.2-1.7-.5-3.3-.8-4.5s-.7-2.4-1.2-3.2c-.5-.9-1.1-1.5-1.8-1.9S3.6 20 2.6 20h-.5c-.2 0-.4 0-.6.1-.2 0-.4.1-.6.1-.2 0-.4.1-.6.1 5.8-4.5 10.9-8 15.6-10.8 4.6-2.7 8.8-4.7 12.6-6.1 3.9-1.4 7.4-2.3 11-2.8C42.9.1 46.4 0 50 0h3.4c1.2 0 2.3.1 3.6.1s2.4.1 3.7.1 2.6.1 3.9.1c5.6.1 10.1.6 13.6 1.5s6.1 2 8 3.1 3 2.2 3.8 3.1 1 1.5 1 1.6c-.6.5-1 1-1.3 1.5-.3.6-.4 1.2-.5 1.9 0 .7 0 1.6.2 2.6.3 1 .6 2.2 1 3.5zM68 73.5c2.4-4.4 4-9.1 5.1-13.8 1-4.7 1.5-9.5 1.5-14.1s-.5-9.2-1.3-13.4c-.8-4.2-1.9-8.1-3.2-11.5-1.1-2.9-2.4-5.2-3.8-7-1.4-1.8-3-3.2-4.7-4.1-1.7-1-3.6-1.6-5.6-2s-4.1-.5-6.4-.5h-3.5c-.4 0-.8 0-1.2.1-5.5.3-9.5 1.6-12.4 3.5-2.9 1.9-4.8 4.5-5.9 7.4-1.2 2.9-1.6 6-1.8 9.1-.2 3.1 0 6.1 0 8.6s.3 7.9.6 14.6c.4 6.7.8 14.7 1.3 22.5.5 7.8.9 15.5 1.3 21.3.4 5.9.6 10 .7 10.7 3.7-.3 7-.7 10.2-1.5 3.2-.8 6.2-2.1 9.3-4.3 3.1-2.1 6.1-5.1 9.4-9.3 3.2-4 6.6-9.4 10.4-16.3"/><path fill="#856125" d="M110.9 24c-.3-.7-.7-1.3-1.2-1.7-.5-.4-1-.7-1.6-.9-.5-.2-1-.3-1.4-.3h-.7l4.2 10.9h.7c.4 0 .9.1 1.4.3.5.2 1 .4 1.5.8s.9.9 1.1 1.6c-1.4-3.5-2.7-7.1-4-10.7zM143.4 28.1V28v-.1-.1-.1c-.2-.4-.4-.7-.7-1s-.6-.6-1-.9c-.4-.3-.8-.5-1.3-.6-.5-.1-1.1-.2-1.7-.2h-.8c-.3 0-.6.1-.9.1-.3.1-.6.1-1 .2-.3.1-.7.2-1 .3-1.3.4-2.5 1-3.8 1.7-1.2.7-2.5 1.7-3.8 3-1.3 1.3-2.8 2.9-4.4 4.9-1.6 2-3.4 4.4-5.4 7.4l3.7 10.1c1.9-2.8 3.6-5.2 5.2-7.1 1.5-1.9 2.9-3.5 4.2-4.7 1.3-1.2 2.5-2.1 3.7-2.9 1.2-.7 2.4-1.2 3.6-1.7.3-.1.7-.2 1-.3.3-.1.6-.2.9-.2.3-.1.6-.1.8-.1h.8c.6 0 1.2.1 1.7.2s.9.3 1.3.6.7.5.9.8c.3.3.5.6.6 1v.4c-.8-3.5-1.7-7.1-2.6-10.6z"/><path fill="#856125" d="M143.1 48.5h-3.6c-2.2 0-4.6 0-7 .1-2.4.1-4.8.1-7 .2s-4.3.2-6 .2c-1.7.1-3.1.1-3.9.2l3.8 9.9c.8 0 2.1-.1 3.7-.2s3.6-.2 5.7-.2c2.1-.1 4.4-.2 6.7-.2 2.3-.1 4.6-.1 6.7-.1h3.5l-2.6-9.9z"/><path fill="#856125" d="M115.7 49.2c-.1.3-.3.6-.4 1-.5 1.3-1.2 2.9-1.9 4.7l-.6 1.8c-1.1 3.2-2.2 7.1-2.8 11.5-.6 4.4-.8 9.3-.1 14.7.7 5.3 2.3 11.1 5.3 17.1l3.8 7.9c-2.2-4.6-3.7-9.1-4.5-13.3-.2-1-.4-2.1-.5-3.1-.3-2.6-.5-5-.5-7.4 0-2.4.2-4.6.5-6.7.6-4.2 1.6-8 2.7-11 1-3.1 2.1-5.5 2.8-7.3l-3.8-9.9z"/><path fill="none" d="M159 108.8c0 .1 0 .2.1.2"/><path fill="#856125" d="M162.3 30.1c-.7-3.7-1.3-7.3-2-11v.6c-.1.2-.2.5-.3.7-.2.2-.3.5-.6.7-.2.2-.5.4-.7.6-.2.1-.4.3-.6.5-.2.2-.3.3-.4.5-.2.4-.4.8-.4 1.3-.1.5-.1 1.1-.1 1.7v2.2c0 .8 0 5.2-.1 11.5s-.1 14.4-.2 22.6c-.1 8.2-.2 16.5-.2 23.1-.1 6.6-.1 11.4-.1 12.6v.9c0 .3 0 .6.1.9s.1.6.1.8c.1.3.1.5.2.8.4 1.3.7 2.7 1.1 4 .3 1.2.6 2.3 1 3.5v.1c0-.2-.1-.3-.1-.5-.1-.3-.1-.5-.1-.8 0-.3-.1-.6-.1-.9v-.9c0-1.2.1-5.8.1-12.1.1-6.3.1-14.3.2-22.2.1-7.9.1-15.7.2-21.8.1-6 .1-10.3.1-11.1v-2.1c0-.6 0-1.2.1-1.6.1-.5.2-.9.4-1.3s.5-.7 1-1c.3-.2.5-.3.7-.5.2-.2.4-.4.5-.6.1-.2.3-.4.3-.7 0-.1 0-.3-.1-.5z"/><path fill="#856125" d="M161.8 106.4H137.9l2.9 7.7h23l-2-7.7zM117.7 114.8c1.6 1.8 3.3 3.3 5 4.4 1.7 1.1 3.4 1.9 5 2.2l-3.5-7.4c-1.7-.3-3.5-1.1-5.2-2.3-1.7-1.2-3.5-2.8-5.2-4.6-1.7-1.8-3.3-3.9-4.8-6.2-1.5-2.2-2.9-4.5-4.1-6.9l4.2 8.1c1.2 2.3 2.5 4.5 3.9 6.6 1.6 2.4 3.1 4.4 4.7 6.1z"/><g><path fill="#DEBA27" d="M137.9 106.5c.1 0 .4-.2.9-.5s1.1-.8 1.8-1.5c.6-.7 1.3-1.6 1.8-2.7s.8-2.5.9-4.1c0-1.6.1-5.3.1-10.1v-16c0-5.6-.1-11-.1-15.3 0-4.2-.1-7.2-.1-7.9h-3.6c-2.2 0-4.6 0-7 .1-2.4.1-4.8.1-7 .2s-4.3.2-6 .2-3.1.1-3.9.2c-.8 2.1-2.2 5.3-3.5 9.4-1.3 4.1-2.4 9.1-2.6 14.8-.3 5.7.3 12.1 2.5 18.9 2.2 6.9 6 14.2 12.1 21.8-2.2-.4-4.6-1.6-6.8-3.5-2.3-1.8-4.5-4.3-6.6-7-2.1-2.7-4-5.8-5.6-8.9-1.6-3.1-3-6.1-3.9-8.9-1-2.8-1.8-5.8-2.3-8.9-.6-3.1-.9-6.4-1-9.8-.1-3.4.1-6.8.6-10.3.5-3.5 1.3-7 2.5-10.5s2.3-6 3.4-8 2.1-3.4 3-4.5 1.7-2 2.3-3 1.1-2.1 1.3-3.6c.2-1.5 0-2.7-.4-3.5s-1-1.4-1.7-1.8-1.4-.6-1.9-.7c-.6-.1-1-.1-1.1-.1 5.3-.3 11-.7 16.7-1s11.3-.6 16.3-.9 9.5-.5 12.9-.7c3.4-.2 5.7-.3 6.5-.3h.4c.6 0 1.1.1 1.3.4.3.2.3.6.3.9s-.3.8-.5 1.1c-.3.4-.7.7-1.1 1-.5.3-.8.6-1 1s-.4.8-.4 1.3c-.1.5-.1 1.1-.1 1.7v2.2c0 .8 0 5.2-.1 11.5s-.1 14.4-.2 22.6c-.1 8.2-.2 16.5-.2 23.1-.1 6.6-.1 11.4-.1 12.6 0 1.2.1 2.4.4 3.4.3 1 .7 1.9 1.2 2.7s1.1 1.4 1.7 1.8c.7.5 1.4.8 2.1.9h-21.3c-1.7.2-2.7.2-2.9.2zm5.5-69c0-.8.1-1.7.1-2.7s.1-2 .1-2.9v-2.6c-.1-.8-.2-1.3-.3-1.7-.2-.4-.4-.7-.7-1l-.9-.9c-.4-.3-.8-.5-1.3-.6-.5-.1-1.1-.2-1.7-.2h-.8c-.3 0-.6.1-.9.1-.3.1-.6.1-1 .2s-.7.2-1 .3c-1.3.4-2.5 1-3.8 1.7-1.2.7-2.5 1.7-3.8 3-1.3 1.3-2.8 2.9-4.4 4.9-1.6 2-3.4 4.4-5.4 7.4h12.5c1.6 0 3.1 0 4.4-.1 1.3 0 2.5-.1 3.5-.1s1.7-.1 2.1-.1c.6-.1 1.1-.2 1.5-.4s.7-.5.9-.9.4-.9.5-1.4c.3-.5.3-1.2.4-2"/></g><g><path fill="#856125" d="M301.3 33.5c.3-.4.6-.7 1-1 .4-.3.8-.7 1.2-1l3.7-10.9c-.3.2-.6.5-.8.7-.1.1-.3.2-.4.4-.4.3-.7.7-1 1.1-.3.4-.6.8-.8 1.2-.3.5-.5 1-.7 1.6-1.2 3.6-2.4 7.2-3.6 10.7.1-.3.2-.6.3-.8.1-.3.2-.5.3-.7.2-.6.5-1 .8-1.3z"/></g><g><path fill="#856125" d="M359.1 38.5c.2-.3.5-.5.8-.7.3-.2.7-.5 1.1-.8.4-.3.9-.6 1.4-1l6.2-10.8c-.6.4-1.1.7-1.5 1-.4.3-.8.6-1.2.8-.3.3-.6.5-.9.8-.2.3-.5.5-.6.8-2 3.5-4 7.1-6 10.6.1-.2.2-.4.4-.5.1 0 .2-.1.3-.2z"/></g><g><path fill="#8F6B25" d="M244.7 98.8l-1.3 7.9v1.2c.4-2.6.9-5.3 1.3-7.9 0-.2.1-.4.1-.6-.1-.3-.1-.4-.1-.6z"/><path fill="#8A6625" d="M246.6 35.6V35v-1.1-.7-.8-.8-.5-.8-.4-.7-.2l-1.4 10.6V66c0 .8 0 1.5-.1 2.3v.1c0 1.4-.1 2.9-.1 4.3 0 1.2-.1 2.3-.1 3.4v2.5c0 .5 0 1-.1 1.6v.9c0 .6 0 1.3-.1 1.9v.6c0 .6 0 1.3-.1 1.9v.7c0 .6 0 1.1-.1 1.7V90c0 .7 0 1.3-.1 1.9v.2c-.2 6.2-.4 11.1-.5 13.3v1.3l1.3-7.9c0-.2 0-.4.1-.6v-.7c.1-2.3.3-7.4.6-13.8.2-6.4.5-14.1.7-21.8.2-7.6.4-15.2.5-21.3v-1-.4-1.7-.5c-.5-.5-.5-1-.5-1.4z"/><path fill="#856125" d="M246.4 28.9c0-.4-.1-.8-.1-1-.2-1.8-.7-3.4-1.3-4.7-.6-1.3-1.3-2.4-2-3.3-.7-.9-1.5-1.5-2.1-2-.7-.5-1.3-.8-1.7-1L238.1 28c.4.2 1 .5 1.6.9.6.5 1.4 1.1 2.1 2 .7.8 1.4 1.9 1.9 3.2.6 1.3 1 2.8 1.2 4.6v1l1.5-10.8z"/></g><g><path fill="#856125" d="M170.3 36.1c-.3-1.8-.7-3.2-1.1-4.1-.4-1-.9-1.6-1.3-2.1-.5-.4-1-.6-1.5-.7-.5-.1-1.1-.1-1.7-.2l1.9 10.6c.6 0 1.1 0 1.6.2.5.1 1 .3 1.5.7.5.4.9 1 1.3 2s.7 2.2 1 4l-1.7-10.4zM226.5 39.8c-4.5 3-9 5.3-13.4 7.2-4.4 1.9-8.8 3.2-12.9 4.4-4.1 1.1-8 2-11.4 2.9l.9 9.7c3.3-.8 7-1.7 11-2.8 3.9-1.1 8.1-2.4 12.4-4.2 4.3-1.8 8.6-4 12.9-6.9 4.3-2.9 8.6-6.5 12.6-10.9l1.1-10.6c-4.3 4.5-8.7 8.2-13.2 11.2z"/><path fill="#856125" d="M186.6 106v-.4-.5-8.3-18.7-20-12.3c0-1.9.4-3.6 1.1-5.2.7-1.6 1.8-3 3.2-4.2 1.4-1.2 3-2.2 4.9-3.1 1.9-.8 4.1-1.5 6.5-1.9.4-.1.8-.1 1.1-.2.4 0 .7-.1 1.1-.1.3 0 .7-.1 1-.1h1c1.6 0 3 .2 4.3.6 1.3.4 2.3.9 3.3 1.6s1.8 1.5 2.6 2.4c.8.9 1.5 1.9 2.2 2.9l.3-10.6c-.7-1.1-1.5-2.1-2.3-3.1-.8-.9-1.7-1.8-2.7-2.5-.8-.5-1.6-1-2.5-1.3l-.9-.3c-.3-.1-.7-.2-1-.3-1-.2-2.2-.3-3.5-.3h-1c-.3 0-.7 0-1.1.1-.4 0-.7.1-1.1.1-.4.1-.8.1-1.2.2-.6.1-1.2.2-1.8.4-1.8.4-3.4.9-4.9 1.6-2 .9-3.7 1.9-5.1 3.2-1.4 1.3-2.5 2.7-3.3 4.3-.8 1.6-1.2 3.4-1.2 5.4V98.9c.3 2.7.7 5.3 1 8v-.4-.5z"/><path fill="#856125" d="M191.8 105.6h-25l1.8 7.7h24l-.8-7.7z"/><path fill="#DEBA27" d="M188.8 54.3c5-3.1 9.2-5.9 12.8-8.5 3.5-2.5 6.4-4.8 8.7-6.9 2.3-2.1 4.2-4 5.6-5.8 1.5-1.8 2.6-3.5 3.4-5.1-.7-1.1-1.5-2.1-2.3-3.1-.8-.9-1.7-1.8-2.7-2.5-1-.7-2.1-1.3-3.4-1.7s-2.8-.6-4.5-.6h-1c-.3 0-.7 0-1.1.1s-.7.1-1.1.1c-.4.1-.8.1-1.2.2-2.5.4-4.7 1.1-6.7 1.9-2 .9-3.7 1.9-5.1 3.2-1.4 1.3-2.5 2.7-3.3 4.3-.8 1.6-1.2 3.4-1.2 5.4V96.9c0 .9 0 1.6.2 2.3.1.7.4 1.3.8 1.9s1 1.2 1.9 1.9 2 1.5 3.4 2.4h-25c.4 0 .9-.1 1.4-.4.5-.2 1.1-.6 1.6-1.1.5-.5 1-1.3 1.3-2.3.3-1 .5-2.2.5-3.8V85.5c0-5.6-.1-12.5-.2-19.2-.1-6.7-.2-13.4-.4-18.9-.2-5.4-.4-9.7-.7-11.5-.3-1.8-.7-3.2-1.1-4.1-.4-1-.9-1.6-1.3-2.1-.5-.4-1-.6-1.5-.7-.5-.1-1.1-.1-1.7-.2 5.3-2.9 10-5.3 14.2-7.1 4.2-1.9 8-3.3 11.5-4.3s6.7-1.7 9.8-2.1 6-.6 9-.6h1.2c3.1 0 5.9.3 8.5.9 2.6.5 5 1.3 7.3 2.4s4.5 2.5 6.7 4.2c2.2 1.7 4.4 3.7 6.7 6.1-4.2 4.6-8.7 8.3-13.1 11.3-4.5 3-9 5.3-13.4 7.2-4.4 1.9-8.8 3.2-12.9 4.4-4.3 1.3-8.2 2.2-11.6 3.1z"/></g><g><path fill="#856125" d="M166.8 105.6h-.1-.1-.1-.1l1.8 7.7h.4l-1.8-7.7z"/></g><g><path fill="#E0BC27" d="M166.3 105.6H166h-.1H166.5h-.2z"/></g><g><path fill="#856125" d="M166.3 105.6H166h-.1l1.8 7.7h.4l-1.8-7.7z"/></g><g><path fill="#856125" d="M260.3 33.6c.3-.5.7-1 1.3-1.5.5-.5 1.2-1 2-1.4.8-.5 1.7-.9 2.7-1.3l2.2-11c-.5.2-1 .4-1.5.7-.3.1-.5.3-.8.4l-.6.3c-.8.5-1.5 1-2 1.5-.6.5-1 1.1-1.3 1.6-.3.5-.5 1.1-.6 1.7-.7 3.6-1.3 7.2-2 10.8.1-.4.2-.8.4-1.2.1-.4.2-.5.2-.6z"/><path fill="#8A6625" d="M287.9 38.9v-3.6-.1-1.9-.3c0-.7 0-1.4-.1-2.1 0-.9-.1-1.8-.2-2.6l-3 10.6V50.7l3-10.2v-.3c.3-.1.3-.6.3-1.3z"/><path fill="#856125" d="M287.5 27.9c0-.3-.1-.6-.1-.9-.1-1.1-.5-2-.9-2.8-.5-.8-1-1.5-1.7-2.1-.7-.6-1.4-1.1-2.2-1.5-.8-.4-1.5-.7-2.3-1l-2.7 11c.7.2 1.5.5 2.2.9.7.4 1.4.8 2.1 1.4.6.6 1.2 1.2 1.6 2 .4.8.7 1.7.9 2.7v1.2l3-10.6c.2 0 .2-.1.1-.3zM277.6 47.6c-3.1 0-5.9.1-8.3.1h-8.1l-1.9 9.9h7.8c2.3 0 5 0 7.9-.1 3 0 6.2-.1 9.6-.1l3-9.9c-3.5 0-6.9.1-10 .1z"/><path fill="#947026" d="M285.3 100.3l-2.9 7.8c0 .1 0 .2-.1.3 0 .1 0 .2-.1.2 0 .1-.1.2-.1.3 0 .1-.1.2-.1.3 1-2.6 1.9-5.2 2.9-7.9.1-.2.2-.5.3-.8.1 0 .1-.1.1-.2z"/><path fill="#8F6B25" d="M285.5 99.8v-.1c0-.3.1-.5.1-.8v-.1-.4l-2.9 7.9c0 .2 0 .3-.1.5 0 .2 0 .3-.1.5 0 .1 0 .2-.1.3v.1c0 .1-.1.3-.1.4l2.9-7.8c.2-.2.2-.3.3-.5z"/><path fill="#8A6625" d="M286.2 86.6c.2-5 .4-10.8.6-16.4.2-5.6.4-11 .5-15.2.1-4.1.2-7 .3-7.5l-3 9.9c0 .5-.1 3.3-.2 7.2-.1 4-.3 9.2-.5 14.6s-.4 11-.6 15.8c-.2 4.8-.4 8.7-.5 10.8v.4l2.9-8c0-.2 0-.4.1-.6 0-1.9.2-6 .4-11z"/><g><path fill="#856125" d="M254.7 106.9h-15.6l-1.1 7.6h23.6l2.1-7.6h-9z"/></g><g><path fill="#856125" d="M294 107c-2.9 0-5.6-.1-8-.1-2.3 0-4.3 0-5.7-.1h-2.4l-2.6 7.6h2.3c1.3 0 3.2 0 5.4.1s4.8 0 7.6.1c2.8 0 5.8.1 8.9.1l3.6-7.6c-3 0-6.2-.1-9.1-.1z"/></g><g><path fill="#DEBA27" d="M239.2 16.8l29.3 1.4c-1.3.5-2.3 1.1-3.2 1.6-.9.6-1.6 1.2-2.2 1.8-.6.6-.9 1.3-1.2 1.9-.2.7-.3 1.3-.3 2s.1 1.9.1 3.4V40.5h26.2v-1.7-3.6c0-1.4-.1-2.9-.1-4.4-.1-1.4-.2-2.8-.3-3.9-.1-1.1-.5-2-.9-2.8-.5-.8-1-1.5-1.7-2.1-.7-.6-1.4-1.1-2.2-1.5-.8-.4-1.5-.7-2.3-1 3.8 0 7.3.1 10.5.2s6 .2 8.3.3 4.3.2 5.6.2 2.1.1 2.3.1c-.8.7-1.5 1.3-2.1 2-.6.7-1.1 1.5-1.5 2.6-.4 1.1-.7 2.5-1 4.5-.3 1.9-.5 4.4-.7 7.6-.2 3.2-.5 8.3-.8 14.1-.3 5.8-.6 12.5-.9 18.9-.3 6.4-.5 12.6-.7 17.5-.2 4.9-.3 8.6-.3 10 0 1.4.1 2.5.3 3.6.2 1 .4 1.9.8 2.7.4.8.8 1.4 1.3 1.9s1.1.9 1.8 1.3c-3.2 0-6.4-.1-9.3-.1-2.9 0-5.6-.1-8-.1-2.3 0-4.3 0-5.7-.1h-2.4c.1 0 .6 0 1.3-.2.7-.2 1.6-.5 2.5-1.1s1.8-1.5 2.6-2.7 1.2-2.9 1.4-5c.1-2.1.3-6.2.5-11.2.2-5 .4-10.8.6-16.4.2-5.6.4-11 .5-15.2.1-4.1.2-7 .3-7.5-3.5.1-6.9.1-10 .1s-5.9.1-8.3.1h-8.1c0 .6-.2 3.8-.4 8.3-.2 4.5-.5 10.4-.7 16.4-.2 6-.5 12.1-.6 16.9-.2 4.9-.2 8.5-.2 9.6.1 1.1.2 2.1.4 3 .2.9.5 1.6.8 2.3s.8 1.2 1.3 1.6c.5.4 1.1.8 1.7 1H238.9c.1 0 .4 0 1-.2.5-.2 1.2-.5 1.9-1.1s1.4-1.5 1.9-2.8c.5-1.3.9-3.1 1-5.4s.3-7.4.6-13.8c.2-6.4.5-14.1.7-21.8.2-7.6.4-15.2.5-21.3.1-6.1 0-10.8-.2-12.6-.2-1.8-.7-3.4-1.3-4.7-.6-1.3-1.3-2.4-2-3.3-.7-.9-1.5-1.5-2.1-2-.7-.4-1.3-.7-1.7-.9z"/></g></g><g><path fill="#8A6625" d="M358 45.8v-1.6-.7-2-.5-1.4-.6c0-.5 0-.9-.1-1.4v-.4c0-.5-.1-1-.1-1.5l-5.7 10.4c0 .5.1.9.1 1.4v.3c0 .3 0 .6.1.9v7.7c0 .8-.1 1.5-.1 2.4l5.8-9.9c0-.8.1-1.6.1-2.4-.1-.2-.1-.4-.1-.7z"/><path fill="#856125" d="M357.8 35.7v-.2-.1c-.1-.5-.1-1.1-.2-1.6s-.2-1-.2-1.5v-.1c-.2-.9-.4-1.8-.6-2.5v-.1c-.1-.4-.3-.7-.4-1-.2-.4-.3-.7-.5-1-.1-.1-.1-.2-.2-.3-.1-.2-.3-.4-.4-.6-.1-.1-.2-.2-.2-.3-.1-.2-.3-.3-.5-.5-.1-.1-.2-.2-.3-.2-.2-.2-.4-.3-.7-.5l-.1-.1-5.6 10.8.1.1c.2.1.4.3.6.5.1.1.2.1.2.2.1.1.3.3.4.5l.1.1s.1.1.1.2c.1.2.3.4.4.6.1.1.1.2.2.3v.1c.2.3.3.6.5 1l.3.9c0 .1 0 .1.1.2.2.6.4 1.2.5 1.9 0 .1.1.3.1.4v.2c.1.4.2.9.2 1.3v.2c.1.4.1.9.2 1.4v.4l5.9-10.7z"/><path fill="#997526" d="M307.8 108.5c0 .1 0 .1-.1.2 0 .1 0 .1-.1.2 0 .1-.1.1-.1.2s-.1.1-.1.2c1.3-2.6 2.6-5.2 4-7.9.1-.1.1-.3.2-.4l-3.8 7.5z"/><path fill="#947026" d="M311.6 100.9c.1-.2.2-.4.3-.7v-.1l.3-1.2-4 7.9c0 .1-.1.3-.1.4 0 .1-.1.3-.1.4 0 .1-.1.2-.1.3 0 .1-.1.2-.1.4l3.8-7.4z"/><path fill="#8F6B25" d="M312.3 98.9v-.2c.1-.4.2-.8.2-1.3v-.3c.1-.4.1-.8.1-1.2l-4 8.1c0 .3-.1.5-.1.8 0 .2 0 .3-.1.5V105.6c0 .2-.1.5-.1.7 0 .2-.1.3-.1.5v.1l4.1-8z"/><path fill="#8A6625" d="M313.5 83.9c.3-5.5.7-12.3 1-18.9.3-6.6.7-13.1.9-18.2.2-5.1.4-8.8.4-9.8v-.7-.1c0-.3 0-.6-.1-.9l-4.1 10.4V47.7c0 1.2-.1 4.6-.4 9.2-.2 4.9-.5 11.2-.9 17.5-.3 6.4-.7 12.8-1 18.2-.3 5.3-.6 9.5-.7 11.3v.4l4-8.1v-.3c.3-2.1.6-6.5.9-12z"/><path fill="#856125" d="M309.4 42.2c.1 0 .2 0 .2.1.1 0 .1.1.2.1.1.1.3.1.4.2.1.1.2.1.3.2l.1.1.2.2.1.1v.1c.1.1.2.3.2.4 0 .1.1.2.1.2.1.2.1.5.2.8 0 .3.1.6.1.9l4.1-10.4v-.1c-.1-.7-.2-1.2-.3-1.7l-.3-.6v-.1c-.1-.2-.2-.3-.4-.5-.2-.1-.3-.3-.5-.4-.2-.1-.4-.2-.7-.3h-.1c-.3-.1-.5-.1-.8-.2h-.1c-.3 0-.7-.1-1.1-.1l-3.9 10.5c.4 0 .7 0 1 .1h.1c.3.3.6.3.9.4-.1 0-.1 0 0 0z"/><g><path fill="#856125" d="M316.9 107c-2-.1-4.1-.3-6-.5-1.9-.2-3.6-.3-4.8-.5-1.3-.1-2.1-.2-2.2-.2l-3.7 7.7c.1 0 .9.1 2.1.2 1.2.1 2.8.3 4.6.5 1.8.2 3.8.3 5.8.5 2 .1 3.9.3 5.5.3l4.4-7.6c-1.7-.1-3.7-.2-5.7-.4z"/></g><g><path fill="#856125" d="M349.1 108.2c-.6.7-1.1 1.4-1.7 2-.5.6-1.1 1.1-1.6 1.6s-1 .9-1.4 1.3l-5.3 7.4c.4-.4.9-.8 1.4-1.2s1-1 1.5-1.6c.5-.6 1.1-1.2 1.6-1.9s1.1-1.4 1.6-2.2c1.8-2.6 3.7-5.1 5.5-7.7-.5.9-1.1 1.6-1.6 2.3z"/></g><g><path fill="#997526" d="M344.9 108.3c-.1.3-.2.5-.3.8l-.9 2.1c-.1.1-.1.3-.2.5-1.2 2.8-2.7 5.8-4.3 8.9l5.3-7.4c.6-1.1 1.2-2.2 1.7-3.3.4-.9.8-1.7 1.2-2.5.1-.2.2-.5.4-.8.3-.6.6-1.3.9-1.9.2-.4.4-.9.6-1.3.3-.6.5-1.2.7-1.7.2-.4.3-.8.5-1.2l-5.6 7.8z"/><path fill="#947026" d="M347.8 99.9c0 .1 0 .2-.1.3-.1.2-.1.4-.2.6l-.6 1.8c0 .1 0 .1-.1.2-.1.2-.1.4-.2.6-.2.6-.4 1.3-.7 2v.1c-.1.2-.2.4-.2.6-.2.6-.4 1.1-.6 1.7 0 .1-.1.3-.2.4v.1l5.5-7.9c0-.1 0-.1.1-.2.2-.6.5-1.2.7-1.8.1-.4.3-.8.4-1.1.2-.6.4-1.1.6-1.7.1-.4.3-.8.4-1.2.2-.5.3-1.1.5-1.6l.3-1.2c.1-.5.3-1.1.4-1.6.1-.2.1-.5.2-.7l-5.6 8.3c0 .2-.1.4-.2.6-.1.5-.3 1.1-.4 1.7z"/><path fill="#8F6B25" d="M349.7 89.9c0 .3-.1.5-.1.8 0 .3-.1.7-.1 1v.1c-.1.6-.2 1.3-.3 1.9v.1c-.1.4-.1.7-.2 1.1-.1.3-.1.5-.2.8 0 .1-.1.3-.1.4 0 .2-.1.4-.1.6 0 .2-.1.4-.1.6 0 .1-.1.3-.1.4l5.6-8.3c0-.2.1-.4.1-.5.1-.4.2-.7.2-1.1l.3-1.5c.1-.3.1-.6.2-.9.1-.7.2-1.5.3-2.2 0-.3.1-.6.1-.8 0-.3.1-.6.1-1l-5.6 8.5z"/><path fill="#8A6625" d="M355.5 77.6c0-.7 0-1.4-.1-2.1 0-.2 0-.5-.1-.7 0-.3-.1-.6-.1-.9l-5.7 8.9v.7c0 .3.1.6.1 1v4.1c0 .3 0 .7-.1 1v.4l5.7-8.6c0-.2 0-.4.1-.6 0-.3 0-.6.1-.9 0-.5 0-1.1.1-1.6v-.7z"/><path fill="#856125" d="M336.9 59.6c2.6 2.6 5.2 5.5 7.3 8.6 2.1 3 3.7 6.1 4.5 9.1 0 .1 0 .2.1.3.1.3.2.7.2 1 0 .2.1.3.1.5s.1.4.1.7v.2c.1.5.1.9.2 1.4v.2c0 .2.1.5.1.7 0 .2 0 .4.1.5l5.7-8.9c0-.3 0-.5-.1-.8v-.4l-.3-2.1c0-.1-.1-.3-.1-.4-.1-.7-.3-1.4-.5-2.1-.8-3.1-2.5-6.3-4.7-9.5-2.2-3.1-4.9-6.2-7.6-8.9-2.8-2.7-5.6-5.1-8.1-7-2.5-1.8-4.6-3.1-6-3.7-.4-.2-.9-.3-1.2-.5s-.7-.3-1.1-.4c-.3-.1-.6-.2-.9-.2-.3-.1-.5-.1-.7-.1-.2 0-.4 0-.5.1s-.3.1-.4.2c-.1.1-.3.2-.4.4-.1.2-.2.3-.3.6l-4.3 10.2s0-.1.1-.1c.1-.2.2-.3.2-.4.1-.2.2-.3.4-.4.1-.1.3-.2.4-.2.2 0 .3-.1.5-.1s.5 0 .7.1c.3.1.5.1.9.2.3.1.7.2 1 .4.4.1.8.3 1.2.5 1.3.5 3.4 1.8 5.7 3.5 2.4 1.9 5.1 4.2 7.7 6.8z"/></g><g><path fill="#DEBA27" d="M321.7 20.5c.3 0 .6 0 .9.1.3.1.6.1.9.2.3.1.6.2 1 .4.3.2.7.3 1.1.6 1.5.9 3.9 2.2 6.7 3.9 2.8 1.7 6.1 3.8 9.4 6.2 3.3 2.4 6.6 5.1 9.4 8 2.9 2.9 5.3 5.9 6.9 9.1.2-3.7.2-6.9.1-9.7-.1-2.8-.3-5.1-.7-7-.4-1.9-.9-3.5-1.5-4.6-.6-1.2-1.4-2-2.4-2.5h15.2c-1.2.8-2.2 1.4-2.9 2-.7.6-1.2 1.1-1.5 1.8s-.5 1.7-.6 3c-.1 1.4-.1 3.1-.1 5.6 0 2.4-.1 5.6-.2 9.3-.1 3.7-.2 7.8-.5 12-.2 4.3-.5 8.6-.9 12.8-.4 4.2-.9 8.2-1.5 11.6-.6 3.5-1.6 6.8-2.8 9.9-1.2 3.1-2.7 6-4.2 8.6-1.6 2.6-3.2 4.9-4.7 6.8-1.6 1.9-3.1 3.4-4.3 4.4 2.5-4.7 4.5-9.1 6.2-13.2 1.6-4.1 2.9-8 3.7-11.7.8-3.7 1.2-7.1 1.3-10.5 0-3.3-.4-6.5-1.2-9.6-.8-3.1-2.5-6.3-4.7-9.5-2.2-3.1-4.9-6.2-7.6-8.9-2.8-2.7-5.6-5.1-8.1-7-2.5-1.8-4.6-3.1-6-3.7-.4-.2-.9-.3-1.2-.5-.4-.1-.7-.3-1.1-.4-.3-.1-.6-.2-.9-.2-.3-.1-.5-.1-.7-.1-.5 0-.8.1-1.1.4-.3.3-.5.8-.7 1.5s-.3 1.7-.5 2.9c-.1 1.2-.3 2.7-.4 4.5-.2 2.7-.5 7-.7 12-.3 5-.6 10.7-.9 16.2-.3 5.5-.6 10.8-.8 14.8-.2 4.1-.3 7-.4 7.7 0 .7.1 1.6.3 2.5.2.9.5 1.8.8 2.7s.8 1.7 1.3 2.4 1.1 1.3 1.7 1.6c-1.7-.1-3.7-.2-5.7-.3-2-.1-4.1-.3-6-.5-1.9-.2-3.6-.3-4.8-.5-1.3-.1-2.1-.2-2.2-.2 1.3-.2 2.5-.4 3.5-.8s1.9-1 2.7-1.7c.7-.8 1.4-1.7 1.8-3 .5-1.2.8-2.8.9-4.6.1-1.9.4-6.2.7-11.8.3-5.5.7-12.3 1-18.9.3-6.6.7-13.1.9-18.2.2-5.1.4-8.8.4-9.8s-.1-1.9-.2-2.6c-.1-.7-.3-1.3-.6-1.7-.3-.4-.8-.7-1.3-.9-.6-.2-1.3-.3-2.3-.3 1.2-1.8 2.3-3.4 3.2-4.7.9-1.4 1.8-2.5 2.6-3.4.8-.9 1.5-1.6 2.3-2.1.4-.2 1.2-.4 2-.4z"/></g></g><g><path fill="#8A6625" d="M415.7 44.3v-.2l-8 10v.1l8-9.9z"/><path fill="#856125" d="M415.7 44.2c0-.2-.1-.5-.1-.8 0-.2-.1-.4-.1-.6v-.1c0-.2-.1-.4-.2-.6 0-.1-.1-.2-.1-.2-.1-.2-.1-.3-.2-.5 0-.1-.1-.2-.1-.3-.1-.2-.1-.3-.2-.5-.1-.1-.1-.2-.2-.3-.1-.2-.2-.3-.3-.5-.1-.1-.2-.3-.2-.4-.1-.2-.2-.3-.3-.5-.1-.1-.2-.3-.3-.4-.1-.2-.3-.3-.4-.5-.1-.1-.2-.3-.3-.4l-.5-.5-.4-.4c-.2-.2-.4-.3-.6-.5-.2-.1-.4-.3-.6-.4l-.1-.1c-.3-.2-.7-.5-1.1-.7-.1 0-.1-.1-.2-.1l-1.2-.6c-.1 0-.1 0-.2-.1-.4-.2-.9-.4-1.4-.5h-.1c-.5-.2-1.1-.3-1.6-.5-.2-.1-.5-.1-.7-.2-.2 0-.5-.1-.7-.1-.2 0-.5 0-.7-.1h-.7c-1.4 0-2.7.3-3.9.7-1.2.5-2.3 1.1-3.3 1.9s-2 1.6-2.8 2.6c-.8.9-1.6 1.9-2.3 2.9l-7 10.1c.6-.9 1.3-1.8 2.1-2.7.8-.9 1.7-1.7 2.7-2.5 1-.7 2.1-1.4 3.2-1.8 1.2-.4 2.4-.7 3.8-.7h.7c.2 0 .4 0 .7.1.2 0 .5.1.7.1.2 0 .5.1.7.1.6.1 1.2.3 1.7.5.1 0 .2.1.4.1.4.1.8.3 1.2.5.2.1.3.2.5.2.3.2.6.3.9.5.2.1.3.2.4.3.2.1.4.2.6.4.1 0 .1.1.2.1 0 0 .1 0 .1.1.1.1.2.2.3.2.2.2.4.3.6.5l.3.3.5.5.3.3c.2.2.3.4.4.5.1.1.2.2.2.3.1.1.1.2.2.3.1.1.1.2.2.3 0 .1.1.1.1.2s.1.1.1.2c.1.2.2.4.3.5.1.1.1.2.2.3.1.2.2.4.2.5 0 .1.1.2.1.3.1.2.1.4.2.6 0 .1 0 .1.1.2v.1c0 .1.1.3.1.4v.1c.2.6.2 1.1.2 1.3l7.9-10z"/><path fill="#856125" d="M407.3 54.6l-1.1 1.1c-.4.4-.9.8-1.4 1.3-.5.5-1.1 1-1.8 1.5l-7.5 9.5c.6-.5 1.2-1 1.7-1.4.5-.4 1-.9 1.4-1.2l1-1c.3-.3.5-.6.8-.9 2.6-3.2 5.2-6.5 7.7-9.7l-.8.8zM377 64.8c.1-.1.2-.2.3-.2.3-.2.6-.3 1-.4.4-.1.9-.1 1.4-.2.5 0 1.2-.1 1.9-.1h1.2c1.2 0 2.5 0 3.6.2 1.2.1 2.3.3 3.4.6s2.1.7 3 1.2c.9.5 1.8 1.2 2.5 2.1l7.5-9.5c-.8-.9-1.6-1.6-2.6-2.1-1-.6-2-1-3.1-1.3-1.1-.3-2.3-.5-3.5-.6-1.2-.1-2.5-.2-3.8-.2h-1.4c-.7 0-1.4 0-2 .1-.6 0-1 .1-1.5.2-.4.1-.7.2-1 .4-.2.1-.4.3-.6.5l-.1.1c-2.3 3.2-4.5 6.4-6.8 9.6.4-.2.5-.3.6-.4zM405.6 114.5c-2.5-.8-5.3-1.9-8.5-3.7-3.1-1.8-6.5-4.2-9.8-7.4-3.4-3.3-6.7-7.4-9.9-12.6-.4-.6-.7-1.2-1-1.8-.1-.2-.2-.3-.3-.5-.2-.5-.5-.9-.7-1.4-.1-.1-.1-.3-.2-.4-.3-.5-.5-1.1-.8-1.6V85c-.4-.8-.7-1.7-1-2.5-.1-.2-.2-.5-.3-.7-.3-.7-.5-1.4-.7-2.1 0-.1-.1-.3-.1-.4 0-.1 0-.1-.1-.2-.3-.8-.5-1.7-.7-2.5-.1-.2-.1-.4-.2-.7-.1-.4-.2-.7-.3-1.1-.1-.3-.1-.6-.2-.9 0-.1-.1-.3-.1-.4v-.3c-.2-.8-.3-1.6-.4-2.5 0-.2 0-.4-.1-.5-.1-.7-.2-1.3-.2-2v-.4l-6.2 9.1v.4c.1.6.1 1.3.2 1.9 0 .2 0 .3.1.5.1.8.3 1.6.4 2.4 0 .2.1.4.1.7.1.7.3 1.3.4 2 0 .2.1.4.1.6.2.8.4 1.6.7 2.4.1.2.1.4.2.5.2.7.4 1.4.7 2 .1.2.1.4.2.6.3.8.6 1.6 1 2.5 0 .1.1.2.2.3.3.7.7 1.4 1 2.2.1.2.2.4.3.7.4.8.9 1.6 1.4 2.4 3.1 5 6.3 9 9.5 12.1 3.2 3.1 6.5 5.4 9.4 7.1 3 1.7 5.8 2.8 8.1 3.5 2.4.7 4.3 1.1 5.6 1.3l8-7.3c-1.3-.1-3.3-.4-5.8-1.2z"/><path fill="#8A6625" d="M369.9 67.6c-.1-.9-.1-1.7-.2-2.6v-.1-.4c0-.8 0-1.5-.1-2.2v-.4-.2-2.1-.4-.2-.3c0-.7.1-1.5.1-2.2v-.2l-6.2 9.6v.1c-.1.8-.1 1.5-.1 2.3v.4c0 .8-.1 1.6-.1 2.4v.5c0 .7 0 1.5.1 2.3v.4c0 .8.1 1.7.2 2.5v.3l6.2-9.1c.1-.2.1-.3.1-.4z"/><path fill="#8F6B25" d="M365.1 56.4v.1c-.1.6-.3 1.3-.4 1.9 0 .1 0 .2-.1.3-.1.6-.2 1.3-.4 2v.2c-.1.7-.2 1.4-.3 2.2 0 .1 0 .3-.1.4-.1.8-.2 1.5-.2 2.3l6.2-9.6v-.1c.1-.8.1-1.5.2-2.3v-.3-.3c.1-.7.2-1.5.3-2.2v-.1-.3c.1-.6.2-1.3.3-1.9v-.2-.1c.1-.5.2-1.1.3-1.6 0-.1.1-.2.1-.3v-.2l-5.9 10.1z"/><path fill="#947026" d="M367 50.4c-.1.3-.3.7-.4 1.1 0 .1-.1.2-.1.3-.1.3-.2.6-.3 1 0 .1-.1.2-.1.3-.1.4-.3.9-.4 1.4 0 .1-.1.2-.1.4l-.3 1.2c0 .1 0 .2-.1.2l6.3-9.9c0-.1.1-.2.1-.3.1-.4.2-.9.3-1.3 0-.1 0-.1.1-.2v-.1c.1-.5.3-1 .4-1.4V43c0-.1.1-.2.1-.3.1-.3.2-.7.3-1 0-.1.1-.2.1-.2v-.1c.1-.4.3-.7.4-1.1v-.1L367 50.4z"/><path fill="#997526" d="M375.1 36.3l-6.4 10.2s0 .1-.1.1v.1c-.1.1-.1.3-.2.4l-.3.6c0 .1-.1.2-.1.2-.1.1-.1.3-.2.4-.1.2-.2.4-.3.5 0 0 0 .1-.1.1-.2.4-.4.8-.6 1.3l6.4-10.2c.1-.1.1-.3.2-.4 0-.1.1-.1.1-.2s0-.1.1-.2.1-.2.2-.3c0-.1.1-.2.1-.2v-.1c.2-.4.4-.8.6-1.3.2-.4.3-.7.5-1.1 0 .2 0 .2.1.1z"/><path fill="#947026" d="M369.6 43.7v.2c0 .2-.1.3-.1.5 0 .1 0 .1-.1.2v.1c0 .1 0 .1-.1.2 0 .1 0 .1-.1.2 0 .1-.1.2-.1.4 0 .1-.1.2-.1.3-.1.3-.2.5-.3.8l6.4-10.3c.1-.3.2-.6.3-.8 0-.1.1-.3.1-.4.1-.2.1-.4.2-.5 0-.1.1-.2.1-.4.1-.2.1-.5.2-.7v-.1l-6.4 10.3z"/><path fill="#8F6B25" d="M376.3 32.4c.1-.3.1-.6.1-.8l-6.5 10.5v.4c0 .1 0 .2-.1.4v.1c0 .1 0 .2-.1.3 0 .1-.1.3-.1.4l6.5-10.5c.1-.3.1-.5.2-.8z"/><path fill="#8A6625" d="M376.4 30.7v-.4l-6.5 10.6v1.2l6.5-10.5v-.9c0 .1 0 .1 0 0z"/><path fill="#856125" d="M368.2 37.7c.1.1.2.1.2.2l.2.2c.1.1.2.1.2.2l.2.2c0 .1.1.1.1.2 0 0 0 .1.1.1 0 0 0 .1.1.1 0 0 .1.1.1.2s.1.2.1.3c0 .1.1.2.1.3 0 0 0 .1.1.1v.1c0 .1.1.2.1.3 0 .1 0 .2.1.3 0 .1 0 .2.1.3v.1l6.5-10.6v-.1-.3c0-.1 0-.2-.1-.3 0-.1-.1-.2-.1-.3 0-.1-.1-.2-.1-.3 0-.1-.1-.2-.1-.3 0-.1-.1-.2-.1-.3 0-.1-.1-.2-.2-.2-.1-.1-.1-.2-.2-.3l-.2-.2-.3-.3-.2-.2-.3-.3-.2-.2c-.1-.1-.3-.2-.4-.2-.1 0-.1-.1-.2-.1l-6.4 10.7c.1 0 .1.1.2.1.1.1.3.2.4.2 0 .2.1.3.2.3z"/><path fill="#DEBA27" d="M376.5 26.2c.7 0 1.5 0 2.4.1s2 .2 3.3.3c1.3.1 2.8.3 4.5.5 1.7.2 3.7.5 5.9.8 3 .4 5.9.8 8.5 1.1 2.6.3 5 .6 7.1.8 2.1.2 4 .4 5.6.5 1.6.1 2.9.2 3.9.2h.8c.6 0 1.1-.1 1.6-.2s.9-.2 1.3-.3c.4-.1.7-.2 1.1-.2.3-.1.6-.1.8-.1h.3c.1 0 .2.1.2.1.1.1.1.1.1.2s.1.2.1.4c0 .4-.2.9-.5 1.6-.4.7-.9 1.5-1.6 2.6-.7 1.1-1.6 2.4-2.5 4-1 1.6-2.1 3.6-3.3 5.9 0-.1-.1-.7-.3-1.6-.2-.9-.6-2-1.4-3.3-.7-1.2-1.8-2.5-3.3-3.7-1.5-1.1-3.5-2.1-6.1-2.8-.2-.1-.5-.1-.7-.2s-.5-.1-.7-.1-.5 0-.7-.1h-.7c-2.2 0-4.1.6-5.8 1.6s-3.2 2.4-4.5 3.8c-1.3 1.5-2.3 3-3.2 4.5-.8 1.4-1.5 2.7-1.9 3.5-.5.9-.7 1.6-.8 2.1 0 .5.2.8.6 1.1s1.2.4 2.1.4 2.3.1 3.8.1c1.6 0 3.4.1 5.3.3 1.9.2 3.8.4 5.5.6 1.7.2 3.3.4 4.4.7s1.8.4 1.8.6c0 .1-.1.4-.2.7s-.5.8-.9 1.3-1 1.2-1.9 1.9c-.8.8-1.8 1.7-3.1 2.7-.8-.9-1.6-1.6-2.6-2.1s-2-1-3.1-1.3c-1.1-.3-2.3-.5-3.5-.6-1.2-.1-2.5-.2-3.8-.2H389c-1.4 0-2.5.1-3.3.2s-1.3.4-1.7.9c-.4.5-.6 1.1-.7 2s-.2 2.1-.3 3.6c-.1 7.5.7 14.2 2.2 20 1.5 5.9 3.7 11 6.4 15.4s5.9 8.2 9.4 11.4c3.5 3.2 7.2 5.8 11 7.9-1.4-.2-3.4-.6-5.8-1.3-2.5-.8-5.3-1.9-8.5-3.7-3.1-1.8-6.5-4.2-9.8-7.4-3.4-3.3-6.7-7.4-9.9-12.6-3.2-5.2-5.2-10.6-6.4-15.9-1.2-5.3-1.5-10.5-1.4-15.3.2-4.8.8-9.1 1.6-12.7.8-3.6 1.8-6.4 2.7-8.1.8-1.7 1.5-3.2 1.9-4.6.4-1.3.6-2.5.6-3.5s-.3-1.8-.7-2.5c-.4-.7-1.1-1.3-2-1.8.2 0 .3-.1.5-.1s.4-.1.6-.1c.2 0 .5 0 .7-.1-.2.1.1.1.4.1z"/></g></svg>