<svg xmlns="http://www.w3.org/2000/svg" viewBox="0 0 414.937 75.053"><path d="M45.879 23.445l2.215-2.503V4.092L37.599 8.136 28.933 23.59l8.666-3.322 8.28 3.177z" fill="#253488"/><path d="M64.51 46.987V18.535l10.639-4.092v44.772L64.51 63.692 48.864 43.28v27.008l-11.265 4.766V28.885L48.864 24.6 64.51 46.987z" fill="#253287"/><path d="M20.653 59.263L10.688 39.91v23.83l9.965-4.477z" fill="#253488"/><path d="M21.327 14.443l5.007 10.206 2.6-1.011L37.6 8.184l-10.495-4.14-5.778 10.399zM45.879 23.445l7.992-9.003 10.639 4.092v28.452L48.864 24.601l-2.985-1.156z" fill="#238b41"/><path d="M37.599 75.053V28.885L26.334 24.6v23.397L10.639 18.535 0 14.443v44.772l10.639 4.477V39.91l15.646 30.378 11.314 4.765z" fill="#238b41"/><path d="M10.688 18.535l10.639-4.092 5.007 10.206v23.397L10.688 18.535zM48.864 54.401l3.177 4.477 12.421 4.814L48.816 43.28l.048 11.121z" fill="#c33937"/><path d="M26.382 24.601l11.265-4.285 11.265 4.285-11.265 4.285-11.265-4.285zM64.51 10.351l10.639 4.092-10.639 4.092-10.639-4.092 10.639-4.092zM10.688 10.351l10.639 4.092-10.639 4.092-10.64-4.092 10.64-4.092zM37.599 0L27.104 4.044l10.495 4.092 10.495-4.044L37.599 0z" fill="#e6b531"/><path d="M294.726 24.36h15.502c13.239 0 17.427 7.51 17.427 17.716 0 10.543-6.547 17.09-16.609 17.09h-16.272V24.36h-.048zm12.757 27.008h1.3c2.07 0 3.514-.626 4.333-2.07s.963-4.14.963-7.51-.144-6.066-.963-7.51c-.818-1.444-2.215-2.07-4.333-2.07h-1.3V51.368zM348.019 23.397c11.313 0 17.09 7.51 17.09 18.342s-5.584 18.342-17.09 18.342c-11.313 0-17.09-7.51-17.09-18.342s5.632-18.342 17.09-18.342zm0 27.778c2.07 0 3.514-.963 3.514-9.58 0-8.28-1.444-9.58-3.514-9.58s-3.514 1.107-3.514 9.58 1.444 9.58 3.514 9.58zM371.175 51.849c-2.215 0-4.14 1.926-4.14 4.14s1.926 4.14 4.14 4.14c2.215 0 4.14-1.926 4.14-4.14.001-2.262-1.877-4.14-4.14-4.14zm0 7.51c-1.926 0-3.37-1.589-3.37-3.37 0-1.926 1.589-3.37 3.37-3.37 1.926 0 3.37 1.589 3.37 3.37 0 1.926-1.588 3.37-3.37 3.37z" fill="#233387"/><path d="M370.55 58.204h-.963v-4.477h1.926c.818 0 1.589.337 1.589 1.107 0 .626-.337.963-.963 1.107.818.144.818.481.818 1.107 0 .337.144.818.337 1.107h-1.107c-.144-.481-.144-.818-.144-1.3 0-.337-.144-.626-.481-.626h-.963v1.733l-.049.242zm0-2.552h.818c.481 0 .626-.144.626-.626 0-.481-.337-.626-.626-.626h-.818v1.252zM117.611 24.36v19.979h-.144l-7.029-19.979H94.792v34.807h10.543V39.043h.144l7.029 20.123h15.646V24.36h-10.543zM176.73 24.36v19.979h-.144l-7.077-19.979h-15.646v34.807h10.543V39.043h.144l7.029 20.123h15.646V24.36H176.73zM278.406 24.36v19.979h-.144l-7.029-19.979h-15.646v34.807h10.543V39.043h.144l7.029 20.123h15.646V24.36h-10.543zM147.652 24.36v34.807h-13.095V24.36h13.095zM199.356 59.167V33.796h-8.28V24.36h29.704v9.436h-8.28v25.371h-13.144zM237.533 33.651v3.659h11.987v8.954h-11.987v3.851h13.432v9.099h-26.189V24.36h25.852v9.243l-13.095.048z" fill="#233387"/><path d="M388.603 19.738h-2.407c-5.584.337-7.655 2.552-8.473 5.247h.144c1.444-1.3 3.033-1.733 5.247-1.733 4.333 0 8.28 3.177 8.28 9.099 0 5.729-4.333 10.206-10.206 10.206-7.847 0-11.169-5.921-11.169-12.276 0-5.103 1.733-9.58 4.814-12.276 2.889-2.696 6.547-3.996 11.025-4.14h2.552v5.873h.193zm-7.366 17.235c1.733 0 2.889-1.733 2.889-4.14 0-1.926-.963-4.14-3.37-4.14-1.444 0-2.552.963-3.033 2.07-.144.337-.144.818-.144 1.589.144 2.214 1.251 4.621 3.658 4.621zM405.212 42.076v-6.21h-11.65v-4.959l9.243-16.609h9.243v15.983h2.889v5.729h-2.889v6.21h-7.029l.193-.144zm0-11.939v-4.814c0-1.733.144-3.659.144-5.584h-.144c-.818 1.926-1.589 3.659-2.552 5.584l-2.215 4.622v.144h4.766l.001.048z" fill="#c33d3a"/></svg>