<svg enable-background="new 0 0 523.406 301.559" viewBox="0 0 523.406 301.559" xmlns="http://www.w3.org/2000/svg"><path d="m522.961 244.458c-.897 18.048-16.502 27.826-32.795 34.667-25.978 10.914-44.631 16.614-72.538 19.667-64 7-105.333-.667-170.333-7.667-16.861-1.816-60.316 2-83.218 5.333-30.763 4.478-58.726 3.925-89.782 4.667-33.792.796-57.17-17.608-64.333-52.049-16.334-78.534-12.667-158.413 11.632-220.609 8.765-22.432 18.911-25.334 43.366-25.342l202.481-3.125h1.375c68.334 0 136.224.898 204.566.976 20.344.031 33.236 8.549 38.322 24.193l.309 8.17.24 6.377.07 1.94.24 6.292.062 1.731.232 6.021.1 2.713.201 5.503.124 3.169.178 4.746.131 3.494c.061 58.78 12.269 110.375 9.37 169.133z" fill="#002c4d"/><path d="m433.131 230.47c-2.9 13.69-2.27 16.54-16.75 18.16-15.94 1.77-51.81 7.38-67.75 8.5-5.08.35-36.12 5.38-43.84 4.58-5.75-.6-2-7.83-10-12.83-3.92-2.46-14.89-1.86-22.41-2.25-4.78-.25-8.28.72-10.7 2.19-.41.24-.79.5-1.14.76-2.02 1.57-3.06 3.47-3.32 5.04-.26 1.59-6.68 3.92-8.59.01-1.83-3.75-6.04-7.75-11.67-7.67-22.47.33-34.78-.03-57.25.08-5.96.03-12.51-1.34-17.5 3.17-5.05 4.57-3.82 9.24-5.6 12.58-1.2 2.25-10.52 2.74-16.21 1.53-7.62-1.63-8.99-8.19-10.94-16.19-7.67-31.47-12.45-64.16-13.33-96.13-.17-5.84-.01-16.02-.01-21.87-.15-33.56 5.46-61.52 13.51-94.26 6-24.41 6.75-26.64 31.93-26.63 85.07 0 156.98 2.14 237.57 12.55 19.59 2.53 24.75 3.69 28 15.34 5.16 18.5 9.32 40.74 11.5 59.33 5.33 45.5 4.16 88.33-5.5 134.01z" fill="#f6f0da"/><circle cx="64.96" cy="206.28" fill="#49587e" r="44.046"/><circle cx="70.249" cy="65.084" fill="#49587e" r="44.046"/><path d="m507.226 199.614c0 3.769.69 15.377-9.322 16.695-4.558.6-17.128-13.542-17.345-16.896-.263-4.127 12.637-17.012 17.074-16.394 10.018 1.383 9.593 12.825 9.593 16.595z" fill="#9da9b5"/><path d="m481.047 229.279c-1.637 9.45-11.527 9.291-17.004 9.291-5.478 0-15.369.455-16.827-9.19-.631-4.177 12.251-17.546 17.561-17.546 5.768 0 16.976 13.369 16.27 17.445z" fill="#9da9b5"/><path d="m41.253 184.972-4.122-5.926s-.773-2.448 0-2.19.773.258.773.258 2.576 1.417 3.349 2.19 11.207 10.112 12.818 11.465c1.61 1.353 7.697 7.109 11.16 7.15 3.8.044 6.714-2.641 8.775-4.058s19.033-14.686 19.033-14.686 1.932-1.159 2.834-.386-.515 2.963-.515 2.963-20.531 20.032-21.352 22.061-1.37 4.186.097 6.763c2.119 3.724 6.136 6.952 9.13 9.855 0 0 10.08 10.66 10.837 11.562s1.546 2.576.515 3.349-8.792-5.829-8.792-5.829-13.145-10.306-14.975-11.594-6.055-3.865-11.207-.386-22.823 17.876-22.823 17.876-1.975.711-2.491 0 20.289-21.773 20.289-21.773 3.053-3.231 2.963-6.699c-.097-3.725-.064-4.122-3.027-7.343-2.963-3.222-13.269-14.622-13.269-14.622z" fill="#00325d"/><path d="m46.732 43.776-4.122-5.926s-.773-2.448 0-2.19.773.258.773.258 2.576 1.417 3.349 2.19c.773.772 11.207 10.112 12.818 11.465 1.61 1.353 7.697 7.109 11.16 7.15 3.8.044 6.714-2.641 8.775-4.058s19.033-14.686 19.033-14.686 1.932-1.159 2.834-.386-.515 2.963-.515 2.963-20.531 20.031-21.352 22.06-1.37 4.186.097 6.763c2.119 3.724 6.136 6.952 9.13 9.855 0 0 10.08 10.66 10.837 11.562s1.546 2.576.515 3.349-8.792-5.829-8.792-5.829-13.145-10.306-14.976-11.594-6.055-3.865-11.207-.386-22.823 17.876-22.823 17.876-1.975.711-2.491 0c-.515-.711 20.289-21.773 20.289-21.773s3.053-3.231 2.963-6.699c-.097-3.725-.064-4.122-3.027-7.343-2.962-3.221-13.268-14.621-13.268-14.621z" fill="#00325d"/><path d="m189.638 265.809h-17.947c-3.386 0-6.157-2.771-6.157-6.157 0-3.386 2.771-6.157 6.157-6.157h17.947c3.386 0 6.157 2.771 6.157 6.157 0 3.386-2.771 6.157-6.157 6.157z" fill="#f6f0da"/><path d="m236.435 265.809h-17.947c-3.386 0-6.157-2.771-6.157-6.157 0-3.386 2.771-6.157 6.157-6.157h17.947c3.386 0 6.157 2.771 6.157 6.157 0 3.386-2.771 6.157-6.157 6.157z" fill="#f6f0da"/><path d="m287.435 265.809h-17.947c-3.386 0-6.157-2.771-6.157-6.157 0-3.386 2.771-6.157 6.157-6.157h17.947c3.386 0 6.157 2.771 6.157 6.157 0 3.386-2.771 6.157-6.157 6.157z" fill="#cf6f2e"/><path d="m71.078 192.903s3.568-3.347 9.538-9.547c5.024-5.217 2.898-11.787-.766-13.707-3.381-1.771-4.259-2.211-13.243-2.235-10.197-.027-11.904.438-15.362 2.512-3.907 2.344-4.992 8.502-1.449 12.56l9.984 10.016c2.902 3.161 8.099 3.261 11.298.401z" fill="#9da9b5"/><path d="m51.71 200.43s-3.347-3.568-9.547-9.538c-5.217-5.024-11.787-2.898-13.707.766-1.771 3.381-2.211 4.259-2.235 13.243-.027 10.197.438 11.904 2.512 15.362 2.344 3.907 8.502 4.992 12.56 1.449l10.016-9.984c3.161-2.902 3.261-8.099.401-11.298z" fill="#9da9b5"/><path d="m59.495 220.313s-3.568 3.347-9.538 9.547c-5.024 5.217-2.898 11.787.766 13.707 3.381 1.771 4.259 2.211 13.243 2.235 10.197.027 11.904-.438 15.362-2.512 3.907-2.344 4.992-8.502 1.449-12.56l-9.984-10.016c-2.902-3.16-8.099-3.261-11.298-.401z" fill="#9da9b5"/><path d="m78.863 212.786s3.347 3.568 9.547 9.538c5.217 5.024 11.787 2.898 13.707-.766 1.771-3.381 2.211-4.259 2.235-13.243.027-10.197-.438-11.904-2.512-15.362-2.344-3.907-8.502-4.992-12.56-1.449l-10.016 9.984c-3.161 2.902-3.261 8.099-.401 11.298z" fill="#9da9b5"/><path d="m76.648 51.538s3.568-3.347 9.538-9.547c5.024-5.217 2.898-11.787-.766-13.707-3.381-1.771-4.259-2.211-13.243-2.235-10.197-.027-11.904.438-15.362 2.512-3.907 2.344-4.992 8.502-1.449 12.56l9.984 10.016c2.902 3.161 8.099 3.261 11.298.401z" fill="#9da9b5"/><path d="m57.28 59.065s-3.347-3.568-9.547-9.538c-5.217-5.024-11.787-2.898-13.707.766-1.771 3.381-2.211 4.259-2.235 13.243-.027 10.197.438 11.904 2.512 15.362 2.344 3.907 8.502 4.992 12.56 1.449l10.016-9.984c3.161-2.902 3.261-8.098.401-11.298z" fill="#9da9b5"/><path d="m65.065 78.949s-3.568 3.347-9.538 9.547c-5.024 5.217-2.898 11.787.766 13.707 3.381 1.771 4.259 2.211 13.243 2.235 10.197.027 11.904-.438 15.362-2.512 3.907-2.344 4.992-8.502 1.449-12.56l-9.984-10.016c-2.902-3.161-8.099-3.261-11.298-.401z" fill="#9da9b5"/><path d="m84.433 71.421s3.347 3.568 9.547 9.538c5.217 5.024 11.787 2.898 13.707-.766 1.771-3.381 2.211-4.259 2.235-13.243.027-10.197-.438-11.904-2.512-15.362-2.344-3.907-8.502-4.992-12.56-1.449l-10.016 9.984c-3.161 2.903-3.261 8.099-.401 11.298z" fill="#9da9b5"/><path d="m512.608 38.03-36.629-2.381c-1.098 0-2.002-.904-2.002-2.002 0-.549.224-1.051.587-1.407.363-.363.866-.587 1.414-.587h36.389z" fill="#d1d2d2"/><path d="m512.918 46.262c-.093.046-.193.077-.294.077l-36.645-2.381c-1.098 0-2.002-.904-2.002-2.002 0-.549.224-1.043.587-1.407.363-.363.866-.587 1.414-.587h36.583c.039 0 .077 0 .116.008z" fill="#d1d2d2"/><path d="m513.211 54.014c-.185.193-.379.309-.587.309l-36.645-2.381c-1.098 0-2.002-.897-2.002-1.994 0-.549.224-1.051.587-1.414s.866-.587 1.414-.587h36.583c.139 0 .286.015.417.046z" fill="#d1d2d2"/><path d="m513.513 62.23c-.263.441-.564.727-.889.727l-36.645-2.381c-1.098 0-2.002-.904-2.002-2.002 0-.549.224-1.043.587-1.407.363-.363.866-.587 1.414-.587h36.583c.263 0 .518.054.75.147z" fill="#d1d2d2"/><path d="m513.814 70.145c-.325.75-.734 1.314-1.19 1.314l-36.645-2.381c-1.098 0-2.002-.904-2.002-2.002 0-.549.224-1.043.587-1.407.363-.363.866-.587 1.414-.587h36.583c.394 0 .765.116 1.074.317z" fill="#d1d2d2"/><path d="m504.253 33.071h7.472v3.221h-7.472z" fill="#00386b"/><path d="m504.253 41.541h7.472v3.221h-7.472z" fill="#00386b"/><path d="m504.253 49.528h7.472v3.221h-7.472z" fill="#00386b"/><path d="m504.253 58.159h7.472v3.221h-7.472z" fill="#00386b"/><path d="m504.253 66.661h7.472v3.221h-7.472z" fill="#00386b"/><path d="m475.331 108.189s9.275 16.489 20.611 26.28c11.336 9.79 14.686 19.839 14.686 29.371v40.965s.258 30.724-25.249 39.935c-29.612 10.693-176.485 22.93-176.485 22.93s132.686-8.502 178.031-20.611c25.686-6.859 30.24-32.774 30.531-56.166.223-17.903-1.316-34.569-2.19-38.646-1.546-7.214-13.14-16.489-19.323-21.9-6.184-5.411-17.005-15.975-20.612-22.158z" fill="#0a1f30"/><g fill="#a48850"><path d="m155.971 17.49c.942-.615 1.517-1.869 2.832-1.835.475.012.95.002 1.484.002-.65 2.877-1.275 5.646-1.908 8.445 1.466-.544 1.43-.585 1.897-2.135.466-1.546.853-3.11 1.217-4.683.158-.682 1.303-1.631 1.953-1.622.782.011 1.568-.07 2.361.057-.62 2.768-1.232 5.497-1.883 8.402 1.002-.614 1.725-1.168 1.906-2.325.207-1.321.539-2.62.813-3.93.195-.935 1.047-1.288 1.529-1.969.281-.396.692-.22 1.05-.234.576-.024 1.153-.006 1.754-.006-.635 2.7-1.256 5.296-1.85 7.899-.133.584-.078.483-.78 1.285-.852.778 0 0-.852.778-.55.503-1.104.822-1.887.813-3.848-.044-7.697-.02-11.545-.02.001-.219 1.868-8.895 1.909-8.922z"/><path d="m269.71 25.919c-1.22 0-2.478 0-3.762 0 .269-1.059.536-2.129.812-3.197.351-1.362.05-1.795-1.26-1.797-.308 0-.615 0-.986 0-.309 1.13-.601 2.27-.933 3.396-.372 1.262-1.169 1.895-2.378 1.862-.692-.019-1.416.18-2.088-.149.289-1.492 1.691-5.961 1.869-6.645h5.683c.684 0 1.369.032 2.05-.008.783-.046 1.371.311 1.881.886 0 .731-.603 4.453-.888 5.652z"/><path d="m212.847 21.631c.869-.87 1.817-1.321 2.679-1.913.377-.259.789-.346 1.247-.339 1.615.024 3.23.022 4.844.002.524-.007.976.104 1.432.405.791.52.99 1.136.469 1.926-.313.474-.734.832-1.284.996-1.015.303-2.01.336-3.004-.047.036-.195.043-.265.062-.332.114-.407.633-.749.194-1.245-.218-.247-1.141-.17-1.543.013-.926.422-1.198 1.305-1.359 2.208-.173.972-.554 1.872-.692 2.845-1.313 0-2.575 0-3.853 0 .287-1.448.565-2.85.857-4.322-.514.194-.751.582-1.035.868-1.175 1.181-2.553 1.487-4.102 1.314-.606-.068-1.223-.011-1.804-.011-.175.301-.135.538-.05.846h4.992c-.716.858-1.46 1.579-2.589 1.571-1.512-.011-3.024.005-4.535-.009-.294-.003-.574.013-.886-.138-1.008-.488-1.428-.751-1.006-2.209.314-1.085.405-2.248 1.29-3.035.59-.525 1.224-.994 1.822-1.508.252-.217.526-.12.786-.122 1.924-.012 3.848-.009 5.772-.006 1.047.001 1.269.244 1.297 1.405.003.219-.001.438-.001.837zm-3.112-.687c-2.754-.067-3.283.16-3.451 1.44 2.03.246 2.154.196 3.451-1.44z"/><path d="m218.817 26.319c.681-.725 1.338-1.401 1.965-2.106.229-.258.489-.22.754-.213 2.67.065 5.343-.137 8.012.1.57.051.813-.273 1.043-1.419-1.174 0-2.33-.081-3.472.021-1.325.119-2.223-.699-2.122-2.278.113-1.767.887-3.071 2.196-4.062.231-.175.517-.281.85-.278 2.74.022 5.48.012 8.393.012-.602.653-1.111 1.174-1.584 1.73-.25.294-.547.243-.848.244-1.1.003-2.2-.006-3.3.003-1.086.009-1.513.412-1.775 1.754 1.208 0 2.393.013 3.578-.004.8-.011 1.465.311 1.931.966s.362 1.493.24 2.209c-.235 1.378-.909 2.517-2.151 3.161-.298.155-.601.266-.959.264-4.159-.017-8.318-.011-12.477-.014-.056-.001-.112-.036-.274-.09z"/><path d="m243.9 24.391c.93-.457 1.577-1.109 1.819-2.259.298-1.421.799-1.746 1.451-2.501.386-.448.901-.187 1.357-.236.333-.036.673-.007 1.027-.007-.146 1.583-.697 2.973-.853 4.454-.075.719-2.2 1.949-2.59 2.397-.17.195-.363.171-.562.171-3.673.001-7.346-.001-11.019-.007-.062 0-.125-.051-.232-.098.239-1.554.605-3.096.917-4.641.184-.91 1.096-1.436 1.719-2.094.361-.38.845-.137 1.272-.176.372-.034.748-.007 1.248-.007-.145 1.796-.712 3.444-1.042 5.101.15.153.202.018.28-.008 1.463-.479 1.589-1.832 1.789-3.122.163-1.049 1.14-1.969 2.149-1.971.652-.001 1.304 0 1.957.007.064.001.127.048.191.073-.283 1.593-.961 5.004-.878 4.924z"/><path d="m204.103 16.975c-.561.837-.964 1.571-1.489 2.189-.625.737-.724 1.631-.911 2.522-.326 1.55-.682 3.093-1.044 4.726-1.372 0-2.739 0-4.106 0-1.167 0-2.334.004-3.501-.001-1.396-.007-2.066-.794-1.848-2.259.097-.655.302-1.299.522-1.923.21-.595.303-.855.818-1.314.374-.334 0 0 1.395-1.039.874-.57.779-.513 1.282-.496.857.028 1.716-.006 2.574.013.497.011.86-.066 1.226-.609.852-1.264.547-.833.852-1.264.17-.24.346-.55.716-.548 1.117.007 2.235.003 3.514.003zm-5.555 4.076c-.604-.193-1.015-.125-1.419-.12-.681.008-1.488.396-1.73 1.362-.18.719-.495 1.645-.222 2.51 1.499.144 2.378-.08 2.949-1.556.227-.59.422-1.444.422-2.196z"/><path d="m180.065 23.477c-.131.576-.418.999-.866 1.31-.695.483-1.412.932-2.098 1.43-.282.204-.568.194-.871.194-1.65 0-3.304.076-4.949-.023-1.456-.087-2.044-.994-1.675-2.347.129-.473.228-.973.39-1.412.239-.648.45-1.294 1.12-1.778 1.196-.976.779-.678 1.196-.976.44-.314.889-.533 1.484-.511 1.751.065 3.505.022 5.259.023 1.319.001 1.906.799 1.512 2.156-.095.329-.423 1.587-.502 1.934zm-6.349 1.364c2.219-.001 2.99-1.582 2.939-3.854-2.097-.359-3.394.715-2.939 3.854z"/><path d="m258.746 25.973c-2.683 0-5.388.011-8.092-.008-.688-.005-1.437-1.021-1.511-1.88-.164-1.902.694-3.146 2.169-4.071.722-.453 1.444-.658 2.285-.642 2.33.045 4.662.016 7.017.016-.101.622-1.421 5.136-1.868 6.585zm-2.422-4.889c-.92-.255-1.688-.363-2.355.496-.301.387-.6.79-.829 1.207-.206.375-.375.895-.022 1.357.4.524.946.79 1.533.938.386.097.591-.125.701-.572.273-1.113.62-2.207.972-3.426z"/><path d="m181.242 20.064c.191-.523.371-.683.842-.681 2.44.011 4.88-.03 7.319.022.953.02 1.641.588 1.608 1.706-.041 1.381-.489 2.644-.763 3.956-.057.271-.005.573-.173.864-1.103 0-2.224 0-3.457 0 .17-1.014.276-1.993.52-2.931.094-.364.13-.706.125-1.059-.01-.679-.292-.984-.916-1.012-.477-.021-.956-.004-1.461-.004-.273 1.119-.513 2.211-.809 3.285-.352 1.278-1.286 1.98-2.541 1.983-1.791.003-1.753.012-1.359-1.834.132-.615.771-3.491 1.065-4.295z"/><path d="m208.184 247.057-21.205-21.257.831-.829 22.095 22.127z"/><path d="m136.197 236.851h32.084v1.435h-32.084z" transform="matrix(.7062 .708 -.708 .7062 212.9111 -37.9939)"/></g><path d="m261.681 248.82c-.41.24-.79.5-1.14.76l-23.37-23.42.94-.93z" fill="#2a3163"/><path d="m147.276 230.118c-.655-.658-.754-1.576-.132-2.316l.72.723c-.272.331-.252.644.055.952.297.298.684.326.942.069.146-.145.222-.342.194-.536s-.054-.249-.367-.924c-.318-.68-.249-1.303.204-1.755.57-.568 1.507-.534 2.106.068s.678 1.46.08 2.127l-.715-.718c.223-.263.219-.54-.013-.773-.227-.228-.534-.234-.748-.02-.132.131-.173.314-.12.532.021.08.026.095.252.575.482 1.03.372 1.553-.115 2.039-.653.651-1.673.63-2.343-.043z" fill="#a48850"/><path d="m150.709 233.566c-1.093-1.097-1.136-2.787-.097-3.821 1.053-1.048 2.723-.999 3.831.114 1.063 1.067 1.08 2.752.052 3.776-1.053 1.047-2.703 1.018-3.786-.069zm3.08-3.077c-.715-.718-1.785-.74-2.482-.046-.682.68-.664 1.77.041 2.478s1.75.715 2.442.026c.692-.69.689-1.765-.001-2.458z" fill="#a48850"/><path d="m154.424 237.296c-.73-.733-.786-1.725.13-2.638l2.281-2.271.69.693-2.281 2.271c-.56.558-.524.955-.172 1.309.342.344.74.392 1.305-.171l2.281-2.271.69.693-2.281 2.271c-.921.917-1.908.852-2.643.114z" fill="#a48850"/><path d="m158.701 241.464 1.061-4.169-2.617 2.606-.69-.693 3.602-3.587.786.789-1.081 4.159 2.622-2.611.69.693-3.602 3.587z" fill="#a48850"/><path d="m162.449 244.829c-.448-.158-.839-.443-1.403-1.01l-.866-.87 3.602-3.587.851.855c.584.587.94 1.119 1.061 1.582.217.822-.057 1.678-.739 2.358-.726.723-1.658.977-2.506.672zm2.265-2.96c-.109-.324-.307-.601-.745-1.041l-.136-.137-2.325 2.315.151.152c.413.415.749.654 1.067.75.508.159 1.099-.017 1.533-.449.464-.461.632-1.062.455-1.59z" fill="#a48850"/><path d="m412.932 221.283-266.205.592c-2.778 0-4.563-.663-5.099-4.667-1.592-11.888-3.75-23.833-5.916-44.12-2.085-19.527-1.39-60.637 1.416-82.425s4.063-25.849 7.563-37.975c1.004-3.479 1.91-5.438 4.688-5.438h257.25c2.778 0 4.782.875 6.557 4.625 1.776 3.75 5.919 24.887 7.693 41.75 1.773 16.863 3.822 41.747 3.75 60.75 0 0-.625 38.636-6.667 61.879-1.387 5.333-2.252 5.029-5.03 5.029z" fill="#9e8a62"/><path d="m405.128 213.792h-251.722c-.642 0-1.167-.525-1.167-1.167v-158.71c0-.642.525-1.167 1.167-1.167h251.722c.642 0 1.167.525 1.167 1.167v158.71c0 .642-.525 1.167-1.167 1.167z" fill="#1a191f"/><path d="m220.538 40.991c.054.627-.244 1.02-.788 1.432-.984.746-2.082.689-3.205.658-1.01-.028-1.964-.304-2.809-.79-.509-.293-.774-.768-.795-1.385-.057-1.656.45-3.216.875-4.789.445-1.648.926-3.289 1.441-4.92.307-.972.886-1.808 1.694-2.522.615-.544 1.234-.429 1.882-.149.593.256.976.603.981 1.312.007 1.122-.441 2.124-.809 3.141-.759 2.098-1.402 4.224-2.012 6.359-.352 1.232.374 1.824 1.756 1.529.594-.127 1.26-.52 1.804.136z" fill="#638cb4"/><path d="m202.326 43.434c-.086-.225-.299-.162-.477-.174-1.759-.119-3.326-1.368-3.53-3.199-.119-1.062-.026-2.085.206-3.112.399-1.771 1.78-2.683 3.488-3.264.573-.195 1.17-.385 1.807-.365.733.023.934.23.695.851-.319.83-.725 1.631-1.042 2.461-.318.832-.564 1.676-.593 2.579-.039 1.21.582 1.921 1.609 2.254 1.123.364 2.481-.097 3.158-.995.386-.512.466-1.081.606-1.67.177-.745-.068-1.388-.194-2.075-.122-.665-.515-1.072-1.182-1.321-.273-.102-.618-.159-.753-.542 1.349-.863 2.872-1.167 4.48-.986.623.07 1.227.386 1.515 1.024.389.865.626 1.728.336 2.666-.092.299-.058.63-.139.934-.552 2.082-2.163 3.271-4.189 4.048-1.114.427-2.284.739-3.52.727-.107-.001-.156.079-.194.16-.695-.001-1.391-.001-2.087-.001z" fill="#638cb4"/><path d="m224.534 43.434c-.28-.35-.702-.112-1.049-.211-1.16-.328-2.068-.933-2.676-1.907-.073-.118-.079-.289-.271-.325l.013.012c-.186-.822-.236-1.654-.19-2.49.132-2.398 1.464-4.206 3.942-4.897.529-.148 1.074-.283 1.64-.297.479-.012.661.184.69.623.045.685-.418 1.203-.679 1.766-.505 1.092-.77 2.227-1.014 3.372-.191.895.585 2.004 1.564 2.286 1.882.543 3.642-.274 3.894-2.513.066-.585.04-1.187-.104-1.8-.234-.993-.79-1.591-1.835-1.846-.083-.02-.148-.099-.273-.186.129-.236.324-.372.576-.499 1.196-.602 2.484-.77 3.814-.663.931.075 1.944.942 1.988 1.814.045.882.09 1.767-.106 2.669-.386 1.773-1.639 2.858-3.199 3.727-1.354.754-2.842 1.157-4.435 1.192-.16.004-.317.008-.389.174-.636-.001-1.268-.001-1.901-.001z" fill="#638cb4"/><path d="m190.323 43.293c-2.648-.031-4.738-.59-6.343-2.175-1.082-1.069-1.632-2.366-1.804-3.856-.186-1.614.153-3.056 1.192-4.327.871-1.066 1.991-1.907 3.282-2.538 1.538-.752 3.137-1.367 4.849-1.688 1.57-.295 3.139-.393 4.747-.136.726.116 1.488.141 2.233.208.424.038.695.175.591.586-.294 1.162-.307 2.367-.7 3.52-.161.473-.388.902-.622 1.329-.269.488-1.009.489-1.286.006-.302-.527-.56-1.083-.759-1.65-.107-.305-.241-.607-.425-.85-.611-.81-1.288-1.128-2.371-.907-2.593.529-4.03 2.164-5.129 4.155-.476.862-.736 1.815-.643 2.822.129 1.411.891 2.734 2.454 3.107.597.142 1.148.061 1.744-.05 1.36-.254 2.536-.757 3.451-1.732.484-.516 1.199-.56 1.844-.724.312-.079.518.113.572.432.182 1.077-.26 1.963-1.15 2.583-1.363.951-3.983 2.052-5.727 1.885z" fill="#638cb4"/><path d="m246.271 38.957c-.4-.274-.451-.578-.63-.809-.582-.75-1.3-.996-2.27-.752-1.729.435-2.795 1.552-3.587 2.947-.276.485-.522.984-.809 1.462-.506.845-1.89 1.296-2.775.867-.344-.167-.661-.424-.664-.879-.005-.752.025-1.49.297-2.212.488-1.295.939-2.6 1.256-3.944.103-.437.366-.862.64-1.241.491-.68 2.438-.809 3-.21.457.486.349 1.084.266 1.657-.019.132-.164.249.028.452 2.06-1.605 4.158-3.196 7.272-2.937-.187 2.043-1.181 3.754-2.024 5.599z" fill="#638cb4"/><path d="m194.082 228.693c.101.399.343.887.729 1.27.572.568 1.197.605 1.62.18.391-.394.383-.848.016-1.648-.464-.945-.548-1.736.042-2.33.652-.657 1.695-.59 2.537.246.443.44.665.859.752 1.157l-.595.291c-.067-.215-.231-.627-.624-1.016-.591-.587-1.157-.466-1.443-.178-.391.394-.32.849.053 1.667.459 1.003.49 1.716-.125 2.335-.646.65-1.699.722-2.721-.292-.417-.414-.755-.986-.837-1.366z" fill="#a48850"/><path d="m201.216 229.643-1.317-1.308.46-.463 3.205 3.183-.46.463-1.323-1.314-3.725 3.752-.565-.561z" fill="#a48850"/><path d="m201.397 234.641-1.766.879-.578-.574 5.656-2.754.674.67-2.708 5.682-.597-.593.854-1.785zm1.842.984.781-1.634c.177-.371.361-.685.539-.992l-.013-.013c-.313.187-.638.373-.976.546l-1.635.799z" fill="#a48850"/><path d="m207.444 235.018c.338.224.774.595 1.16.978.597.593.877 1.082.911 1.587.032.404-.131.813-.454 1.139-.553.557-1.278.568-1.884.266l-.018.019c.222.444.123.942-.209 1.482-.442.728-.743 1.237-.814 1.489l-.578-.574c.047-.189.311-.647.711-1.294.449-.709.435-1.158-.054-1.68l-.527-.523-1.813 1.826-.559-.555zm-1.348 2.475.572.568c.597.593 1.293.65 1.771.169.54-.544.372-1.184-.213-1.777-.27-.268-.487-.434-.602-.498z" fill="#a48850"/><path d="m211.378 239.732-1.317-1.308.46-.463 3.205 3.183-.46.463-1.323-1.314-3.725 3.752-.565-.561z" fill="#a48850"/><path d="m248.477 223.744c.298.221.668.529 1.093.967.522.537.783 1.05.806 1.513.03.421-.136.849-.501 1.204-.372.361-.774.534-1.194.529-.578.003-1.186-.318-1.702-.849-.158-.163-.298-.318-.389-.473l-1.646 1.6-.528-.544zm-1.453 2.47c.085.148.218.31.394.491.638.656 1.337.754 1.904.202.543-.527.422-1.176-.161-1.776-.231-.238-.425-.401-.541-.471z" fill="#2a3163"/><path d="m253.244 232.578c-1.415 1.375-3.021 1.223-4.066.148-1.081-1.112-.999-2.711.245-3.92 1.305-1.269 2.966-1.267 4.06-.142 1.118 1.149.981 2.728-.239 3.914zm-3.243-3.203c-.878.854-1.191 2.105-.359 2.961.838.862 2.086.597 3.019-.31.817-.794 1.246-2.061.365-2.967-.874-.899-2.122-.561-3.025.316z" fill="#2a3163"/><path d="m252.504 236.013 3.071-5.064.559.575-1.594 2.521c-.391.623-.793 1.233-1.117 1.693l.012.012c.476-.328 1.091-.671 1.761-1.043l2.62-1.453.553.569-1.587 2.539c-.372.593-.751 1.18-1.123 1.663l.012.012c.536-.351 1.109-.677 1.749-1.044l2.614-1.459.54.556-5.27 2.802-.553-.569 1.624-2.611c.397-.641.714-1.12 1.074-1.579l-.012-.012c-.482.322-.975.62-1.657.979l-2.723 1.48z" fill="#2a3163"/><path d="m261.023 240.922-1.591-1.637-1.482 1.44 1.773 1.824-.445.433-2.302-2.368 4.11-3.995 2.21 2.274-.445.433-1.682-1.731-1.299 1.263 1.591 1.637z" fill="#2a3163"/><path d="m264.021 239.748c.322.222.735.586 1.1.96.565.581.825 1.057.849 1.544.024.391-.142.782-.459 1.09-.543.528-1.242.527-1.82.226l-.018.018c.206.432.101.91-.228 1.425-.439.695-.739 1.18-.812 1.422l-.547-.562c.049-.181.311-.619.709-1.235.445-.676.44-1.109-.021-1.62l-.498-.512-1.781 1.731-.528-.544zm-1.344 2.364.54.556c.565.581 1.234.647 1.704.191.531-.516.38-1.135-.173-1.715-.255-.263-.461-.426-.571-.49z" fill="#2a3163"/><path d="m499.511 202.94h-1.88l-.529-2.584h-3.158l-1.399 2.584h-1.784l5.065-9.03h1.6zm-2.683-4.013-.589-2.864-1.537 2.864z"/><path d="m469.018 228.045c-.127.902-.511 1.585-1.152 2.047-.642.462-1.536.694-2.685.694h-3.466l1.268-9.023h3.302c.483 0 .914.056 1.292.167s.692.272.941.482.428.465.538.766.139.64.086 1.019c-.054.383-.171.715-.352.998s-.435.533-.762.752c.204.105.375.231.514.379s.249.313.33.496c.081.182.134.377.157.584s.02.42-.011.639zm-4.853-2.728h1.613c.524 0 .921-.079 1.192-.236s.432-.42.484-.79c.023-.164.015-.308-.025-.431s-.119-.226-.237-.308-.278-.143-.48-.181c-.202-.039-.456-.058-.761-.058h-1.504zm-.55 3.917h1.777c1.153 0 1.785-.396 1.897-1.189.029-.205.024-.383-.014-.533s-.123-.274-.255-.373-.315-.171-.55-.219-.534-.072-.899-.072h-1.62z"/><path d="m74.389 36.682-5.332 1.007-2.299 2.299-1.023-1.023 2.299-2.299 1.003-5.336 1.235 1.235-.766 3.658 3.65-.775z"/><path d="m72.04 45.271-.982-.982 3.89-3.89c-.395-.185-.849-.534-1.363-1.048l.824-.824c.807.807 1.572.964 2.295.472l.804.804z"/><path d="m46.548 62.217-5.332 1.007-2.299 2.299-1.025-1.023 2.299-2.299 1.003-5.336 1.235 1.235-.766 3.658 3.65-.775z"/><path d="m46.411 70.616-.679-.679-1.202 1.202-.978-.978 1.202-1.202-2.15-2.15.775-.775 5.896-1.173.766.766-3.422 3.422.679.679zm-.771-2.544 1.699-1.699-2.776.621z"/><path d="m72.875 88.629-5.332 1.007-2.299 2.299-1.023-1.023 2.299-2.299 1.003-5.336 1.235 1.235-.766 3.658 3.65-.775z"/><path d="m75.294 93.791c-.097.097-.206.185-.327.265-.122.08-.251.147-.387.201s-.278.092-.425.114c-.146.022-.293.023-.439.004.058.185.085.374.081.566s-.035.38-.093.566c-.058.185-.139.363-.244.534s-.229.329-.373.472c-.254.254-.534.441-.841.559s-.617.173-.932.162-.626-.086-.934-.226c-.308-.139-.59-.338-.847-.595-.26-.26-.456-.539-.588-.837s-.203-.602-.211-.912c-.008-.309.048-.618.168-.926s.305-.6.553-.876l1.015 1.015c-.124.124-.224.259-.3.404s-.122.293-.137.443c-.015.151.003.3.054.447.051.148.142.287.271.416.124.124.26.215.406.273s.295.084.445.077.3-.046.447-.116.287-.171.416-.3c.133-.133.234-.274.305-.425.07-.151.106-.305.106-.462s-.035-.316-.106-.474c-.07-.159-.182-.314-.334-.466l-.414-.414.824-.824.315.315c.26.26.522.385.787.377s.515-.13.75-.365c.207-.207.31-.418.309-.632s-.102-.421-.3-.619c-.412-.412-.912-.381-1.5.091l-1.003-1.003c.296-.235.592-.405.891-.51.298-.105.59-.151.876-.139s.56.081.822.205.504.297.725.518c.249.249.437.509.566.781.128.272.199.544.211.816s-.032.536-.133.791c-.101.258-.259.494-.475.709z"/><path d="m64.004 182.169-1.251-1.251.621-3.489-3.489.621-1.264-1.264 4.972-.779.7-4.487 1.247 1.247-.53 3.008 3.016-.522 1.247 1.247-4.491.696z"/><path d="m67.123 185.289-.982-.982 3.89-3.89c-.395-.185-.849-.534-1.363-1.048l.825-.824c.807.807 1.572.964 2.295.472l.804.804z"/><path d="m91.27 210.543-1.251-1.251.621-3.489-3.489.621-1.264-1.264 4.972-.779.7-4.487 1.247 1.247-.53 3.008 3.016-.522 1.247 1.247-4.491.696z"/><path d="m95.326 214.599-3.663-3.663c.472-.472.954-.758 1.446-.858.265-.05.581-.079.949-.087s.791.012 1.272.062c.425.044.793.073 1.104.085s.581.002.81-.031.429-.092.599-.176.328-.2.474-.346c.232-.232.348-.476.348-.733s-.122-.507-.365-.75c-.099-.099-.215-.175-.346-.226s-.272-.072-.423-.062-.308.05-.472.12-.331.179-.499.325l-1.003-1.003c.29-.246.592-.432.905-.557.314-.126.625-.187.934-.184s.613.068.909.197c.297.128.574.321.831.578.276.276.483.563.619.86.137.297.208.589.213.876s-.048.565-.162.833c-.113.268-.282.514-.505.738-.207.207-.425.37-.655.489-.229.119-.478.202-.746.249-.249.039-.584.062-1.007.07s-.91-.012-1.463-.062c-.163-.014-.376-.027-.64-.039s-.554.008-.872.06l2.32 2.32z"/><path d="m64.004 238.4-1.251-1.251.621-3.489-3.489.621-1.264-1.264 4.972-.779.7-4.487 1.247 1.247-.53 3.008 3.016-.522 1.247 1.247-4.491.696z"/><path d="m71.892 238.093c-.097.097-.206.185-.327.265-.122.08-.251.147-.387.201-.137.054-.278.092-.425.114-.146.022-.293.023-.439.004.058.185.085.374.081.566s-.035.38-.093.566c-.058.185-.139.363-.244.534s-.229.329-.373.472c-.254.254-.534.441-.841.559-.307.119-.617.173-.932.162s-.626-.086-.934-.226c-.308-.139-.59-.338-.847-.595-.26-.26-.456-.539-.588-.837-.133-.298-.203-.602-.211-.912s.048-.618.168-.926.305-.6.553-.876l1.015 1.015c-.124.124-.224.259-.3.404s-.122.293-.137.443c-.015.151.003.3.054.447.051.148.142.287.271.416.124.124.26.215.406.273s.295.084.445.077c.151-.007.3-.046.447-.116s.287-.171.416-.3c.133-.133.234-.274.305-.425s.106-.305.106-.462-.035-.316-.106-.474c-.07-.159-.182-.314-.334-.466l-.414-.414.824-.824.315.315c.26.26.522.385.787.377s.515-.13.75-.365c.207-.207.31-.418.309-.632s-.102-.421-.3-.619c-.412-.412-.911-.381-1.5.091l-1.003-1.003c.296-.235.592-.405.891-.51s.59-.151.876-.139.56.081.822.205.504.297.725.518c.249.249.437.509.566.781.128.272.199.544.211.816s-.032.536-.133.791c-.101.258-.259.494-.475.709z"/><path d="m35.977 208.682-1.251-1.251.621-3.489-3.489.621-1.264-1.264 4.972-.779.7-4.487 1.247 1.247-.53 3.008 3.017-.521 1.247 1.247-4.491.696z"/><path d="m41.309 211.612-.679-.679-1.202 1.202-.978-.978 1.202-1.202-2.15-2.15.775-.775 5.896-1.173.766.766-3.422 3.422.679.679zm-.771-2.544 1.699-1.699-2.776.621z"/><path d="m100.399 62.775-5.332 1.007-2.299 2.299-1.023-1.023 2.299-2.299 1.003-5.336 1.235 1.235-.766 3.658 3.65-.775z"/><path d="m98.986 72.3-3.663-3.663c.472-.472.954-.758 1.446-.858.265-.05.581-.079.949-.087.367-.008.791.012 1.272.062.425.044.793.073 1.104.085s.581.002.81-.031.429-.092.599-.176.328-.2.474-.346c.232-.232.348-.476.348-.733s-.122-.507-.365-.75c-.099-.099-.215-.175-.346-.226s-.272-.072-.423-.062-.308.05-.472.12-.331.179-.499.325l-1.003-1.003c.29-.246.592-.432.905-.557s.625-.187.934-.184.613.068.909.197.574.321.831.578c.276.276.483.563.619.86s.208.589.213.876c.006.287-.048.565-.162.833-.113.268-.282.514-.505.737-.207.207-.425.37-.655.489-.229.119-.478.202-.746.249-.249.039-.584.062-1.007.07s-.91-.012-1.463-.062c-.163-.014-.376-.027-.64-.039s-.555.008-.872.06l2.32 2.32z"/></svg>