<svg enable-background="new 0 0 270.505 168.315" viewBox="0 0 270.505 168.315" xmlns="http://www.w3.org/2000/svg"><path d="m263.527 0h-256.568c-3.818 0-6.959 3.079-6.959 6.898v112.395c0 2.71 1.54 5.05 3.818 6.159.924.554 2.032.801 3.141.801h256.567c3.141 0 5.789-2.094 6.651-4.927.185-.616.308-1.355.308-2.032v-112.396c.001-3.819-3.078-6.898-6.958-6.898z" fill="#d2d2d2"/><path d="m265.682 156.49v-16.013h4.557l-.062-19.153c-.862 2.833-3.51 4.927-6.651 4.927h-256.567c-1.109 0-2.217-.246-3.141-.801v15.027h4.557v16.013s-6.159 1.047-4.557 6.035c1.601 5.05 4.557 5.789 4.557 5.789h257.307s2.956-.739 4.557-5.789c1.602-4.988-4.557-6.035-4.557-6.035z" fill="#d2d2d2"/><path d="m261.495 29.438v83.511c0 3.203-2.649 5.851-5.851 5.851h-241.541c-3.264 0-5.85-2.648-5.85-5.851v-83.511c0-3.203 2.587-5.851 5.85-5.851h241.541c3.202.001 5.851 2.649 5.851 5.851z" fill="#f4f4f4"/><path d="m195.844 11.886c0 3.88-3.203 7.083-7.082 7.083h-105.498c-3.88 0-7.021-3.203-7.021-7.083s3.141-7.021 7.021-7.021h105.497c3.88.001 7.083 3.141 7.083 7.021z" fill="#b6b6b6"/><path d="m12.625 131.609h248.869v8.745h-248.869z" fill="#929596"/><path d="m16.813 140.355v24.388h-4.188v-24.388zm4.003 0v24.388h4.249v-24.388zm8.191 0v24.388h4.003v-24.388zm8.191 0v24.388h3.757v-24.388zm7.76 0v24.388h4.188v-24.388zm8.191 0v24.388h3.942v-24.388zm8.191 0v24.388h4.249v-24.388zm8.191 0v24.388h4.249v-24.388zm8.252 0v24.388h3.942v-24.388zm15.89 0v24.388h4.249v-24.388zm8.19 0v24.388h4.003v-24.388zm20.693 0v24.388h3.941v-24.388zm7.945 0v24.388h4.249v-24.388zm7.944 0v24.388h4.003v-24.388zm8.253 0v24.388h3.942v-24.388zm7.945 0v24.388h4.188v-24.388zm8.437 0v24.388h4.003v-24.388zm8.252 0v24.388h3.942v-24.388zm7.945 0v24.388h4.188v-24.388zm7.945 0v24.388h3.941v-24.388zm8.19 0v24.388h4.003v-24.388zm7.945 0v24.388h4.249v-24.388zm8.622 0v24.388h4.003v-24.388zm8.191 0v24.388h4.003v-24.388zm7.945 0v24.388h4.249v-24.388zm8.006 0v24.388h3.941v-24.388zm8.191 0v24.388h4.003v-24.388zm7.945 0v24.388h4.249v-24.388zm-142.141 0v24.388h4.249v-24.388z" fill="#444645"/><path d="m20.816 140.355v24.388h-4.003v-24.388zm4.25 0v24.388h3.942v-24.388zm7.944 0v24.388h4.188v-24.388zm7.945 0v24.388h4.003v-24.388zm8.191 0v24.388h4.003v-24.388zm7.944 0v24.388h4.249v-24.388zm8.499 0v24.388h3.941v-24.388zm8.191 0v24.388h4.003v-24.388zm12.194 0v24.388h3.757v-24.388zm3.757 0v24.388h3.942v-24.388zm8.191 0v24.388h3.941v-24.388zm7.944 0v24.388h4.249v-24.388zm12.441 0v24.388h4.249v-24.388zm8.191 0v24.388h4.003v-24.388zm8.252 0v24.388h3.695v-24.388zm7.699 0v24.388h4.249v-24.388zm8.191 0v24.388h4.003v-24.388zm8.19 0v24.388h4.249v-24.388zm8.253 0v24.388h4.249v-24.388zm8.191 0v24.388h4.003v-24.388zm8.191 0v24.388h3.757v-24.388zm7.698 0v24.388h4.249v-24.388zm8.253 0v24.388h3.942v-24.388zm8.191 0v24.388h4.372v-24.388zm8.375 0v24.388h4.188v-24.388zm8.191 0v24.388h3.941v-24.388zm8.191 0v24.388h3.757v-24.388zm7.698 0v24.388h4.249v-24.388zm8.253 0v24.388h3.942v-24.388zm8.191 0v24.388h4.988v-24.388zm-174.781 0v24.388h4.249v-24.388zm32.64 0v24.388h3.942v-24.388z" fill="#414b47"/><path d="m39.278 28.708c.274.208.615.121.916.167 1.589.244 3.102.721 4.574 1.346 1.473.625 2.882 1.381 4.21 2.265.902.6 1.776 1.249 2.597 1.969.463.406.893.848 1.374 1.238.465.378.836.873 1.237 1.324.547.616 1.05 1.273 1.51 1.96.912 1.363 1.603 2.828 1.954 4.433.099.454.208.932.066 1.518-.064-.556-.102-1.014-.254-1.444-.276-.78-.695-1.485-1.189-2.146-.455-.608-.943-1.189-1.51-1.695-.754-.672-1.551-1.282-2.431-1.792-.862-.499-1.773-.859-2.726-1.111-.777-.206-1.574-.306-2.391-.224 0 .137.112.197.208.261.651.438 1.246.942 1.83 1.466.437.392.845.803 1.238 1.239.72.799 1.361 1.654 1.93 2.563.764 1.219 1.303 2.539 1.637 3.934.275 1.147.331 2.31.159 3.488-.183 1.258-.625 2.413-1.334 3.45-.683 1-1.584 1.773-2.653 2.376-1.071.604-2.209.999-3.394 1.263-.519.116-1.053.187-1.589.236-.768.071-1.535.147-2.305.166-.926.023-1.836-.126-2.752-.258-.926-.134-1.813-.386-2.69-.677-1.722-.571-3.339-1.368-4.899-2.296-1.011-.602-1.975-1.269-2.896-1.991-1.063-.834-2.061-1.754-2.959-2.765-1.178-1.326-2.248-2.737-2.982-4.371-.387-.861-.688-1.744-.835-2.686-.061-.389-.065-.763-.044-1.148.076.379.141.757.222 1.133.173.795.602 1.456 1.028 2.117.384.595.88 1.108 1.357 1.626.425.462.925.863 1.428 1.243.667.504 1.376.959 2.139 1.301 1.072.48 2.176.878 3.375.889.233.002.439.147.683.101.12-.022.247.002.315-.145-1.254-.83-2.366-1.835-3.372-2.946-.809-.893-1.49-1.889-2.109-2.93-.739-1.243-1.175-2.594-1.504-3.983-.154-.65-.119-1.323-.127-1.99-.022-1.749.562-3.312 1.559-4.697.891-1.238 2.123-2.085 3.546-2.673.833-.344 1.69-.597 2.559-.79.547-.121 1.113-.22 1.685-.227.109-.001.256.077.325-.09 1.094.003 2.189.003 3.284.003zm9.693 19.448c.386-.636.473-1.3.534-1.962.05-.54-.066-1.07-.181-1.597-.397-1.806-1.304-3.337-2.55-4.676-.433-.465-.884-.912-1.385-1.314-.681-.546-1.399-1.032-2.163-1.445-.965-.522-1.992-.899-3.068-1.109-.615-.12-1.252-.214-1.874-.19-.555.021-1.12.105-1.67.256-1.374.377-2.414 1.179-3.05 2.443-.549 1.092-.611 2.28-.373 3.459.211 1.045.616 2.04 1.187 2.943.716 1.135 1.556 2.166 2.614 3.02.68.549 1.382 1.055 2.143 1.476 1.703.941 3.511 1.493 5.479 1.399.54-.026 1.07-.125 1.572-.349-.159-.023-.315-.029-.47-.023-.925.035-1.78-.227-2.601-.622-1.382-.665-2.466-1.677-3.236-2.986-.592-1.006-.902-2.113-.595-3.298.165-.637.503-1.155 1.053-1.556.886-.645 1.896-.632 2.882-.524.805.088 1.579.401 2.294.822 1.035.61 1.925 1.38 2.572 2.395.62.974 1.041 2.019.865 3.216-.009.055.009.112.021.222z" fill="#ca3231"/><g fill="#121212"><path d="m15.286 59.419c.431-.264.694-.803 1.294-.788.217.005.434.001.678.001-.297 1.236-.583 2.425-.872 3.627.67-.234.653-.251.867-.917.213-.664.39-1.336.556-2.011.072-.293.596-.701.893-.697.357.005.717-.03 1.079.025-.284 1.189-.563 2.361-.861 3.609.458-.264.789-.502.871-.998.095-.568.246-1.125.371-1.688.089-.401.478-.553.699-.846.129-.17.316-.094.48-.101.263-.01.527-.003.802-.003-.29 1.16-.574 2.275-.846 3.393-.061.251-.036.207-.357.552-.389.334 0 0-.389.334-.252.216-.505.353-.862.349-1.759-.019-3.518-.009-5.277-.009.002-.095.855-3.821.874-3.832z"/><path d="m67.274 63.039c-.558 0-1.133 0-1.719 0 .123-.455.245-.914.371-1.373.161-.585.023-.771-.576-.772-.141 0-.281 0-.451 0-.141.485-.275.975-.426 1.459-.17.542-.534.814-1.087.8-.316-.008-.647.078-.954-.064.132-.641.773-2.56.854-2.854h2.598c.312 0 .626.014.937-.004.358-.02.626.134.86.381-.001.313-.277 1.912-.407 2.427z"/><path d="m41.282 61.197c.397-.374.83-.567 1.224-.822.172-.111.361-.149.57-.146.738.01 1.476.01 2.214.001.24-.003.446.045.655.174.361.223.453.488.214.827-.143.204-.336.357-.587.428-.464.13-.919.144-1.373-.02.016-.084.02-.114.028-.143.052-.175.289-.322.089-.535-.1-.106-.521-.073-.705.006-.423.181-.547.561-.621.948-.079.418-.253.804-.316 1.222-.6 0-1.177 0-1.761 0 .131-.622.258-1.224.392-1.856-.235.083-.343.25-.473.373-.537.507-1.167.639-1.875.564-.277-.029-.559-.005-.825-.005-.08.129-.062.231-.023.364h2.282c-.327.369-.667.678-1.183.675-.691-.005-1.382.002-2.073-.004-.134-.001-.262.006-.405-.059-.461-.21-.653-.323-.46-.949.144-.466.185-.965.59-1.303.27-.225.559-.427.833-.648.115-.093.24-.052.359-.052.879-.005 1.759-.004 2.638-.003.479.001.58.105.593.604.002.094-.001.188-.001.359zm-1.422-.295c-1.259-.029-1.5.069-1.577.618.928.106.984.085 1.577-.618z"/><path d="m44.012 63.211c.311-.312.611-.602.898-.904.105-.111.223-.094.345-.092 1.221.028 2.442-.059 3.662.043.261.022.372-.117.477-.609-.536 0-1.065-.035-1.587.009-.606.051-1.016-.3-.97-.978.052-.759.405-1.319 1.004-1.745.105-.075.236-.121.388-.12 1.252.009 2.505.005 3.836.005-.275.28-.508.504-.724.743-.114.126-.25.105-.387.105-.503.001-1.005-.003-1.508.001-.496.004-.692.177-.811.753.552 0 1.094.005 1.635-.002.366-.005.669.134.883.415.213.281.166.641.11.949-.107.592-.415 1.081-.983 1.357-.136.066-.275.114-.438.114-1.901-.007-3.802-.005-5.703-.006-.028 0-.054-.015-.127-.038z"/><path d="m55.476 62.383c.425-.196.721-.476.831-.97.136-.61.365-.75.663-1.074.176-.192.412-.08.62-.101.152-.015.307-.003.469-.003-.067.68-.319 1.277-.39 1.913-.034.309-1.005.837-1.184 1.029-.078.084-.166.074-.257.074-1.679 0-3.358-.001-5.037-.003-.028 0-.057-.022-.106-.042.109-.668.276-1.33.419-1.993.084-.391.501-.617.786-.899.165-.163.386-.059.581-.076.17-.015.342-.003.57-.003-.066.771-.325 1.479-.476 2.191.069.066.092.008.128-.003.669-.206.726-.787.818-1.341.075-.451.521-.846.982-.846.298-.001.596 0 .894.003.029 0 .058.02.087.032-.125.681-.436 2.146-.398 2.112z"/><path d="m37.286 59.197c-.256.359-.441.675-.681.94-.286.316-.331.701-.416 1.083-.149.666-.312 1.329-.477 2.03-.627 0-1.252 0-1.877 0-.533 0-1.067.002-1.6 0-.638-.003-.944-.341-.845-.97.044-.281.138-.558.238-.826.096-.256.139-.367.374-.564.171-.143 0 0 .638-.446.399-.245.356-.22.586-.213.392.012.785-.002 1.177.006.227.005.393-.028.56-.262.389-.543.25-.358.389-.543.077-.103.158-.236.327-.236.512.003 1.022.001 1.607.001zm-2.539 1.751c-.276-.083-.464-.054-.649-.051-.311.004-.68.17-.791.585-.082.309-.226.707-.102 1.078.685.062 1.087-.035 1.348-.668.105-.254.194-.621.194-.944z"/><path d="m26.299 61.99c-.06.247-.191.429-.396.563-.318.208-.646.4-.959.614-.129.088-.26.083-.398.083-.754 0-1.51.033-2.262-.01-.666-.038-.934-.427-.765-1.008.059-.203.104-.418.178-.607.109-.278.206-.556.512-.763.547-.419.356-.291.547-.419.201-.135.407-.229.678-.22.8.028 1.602.01 2.404.01.603 0 .871.343.691.926-.044.142-.194.682-.23.831zm-2.903.586c1.014 0 1.367-.679 1.343-1.655-.958-.155-1.551.307-1.343 1.655z"/><path d="m62.262 63.062c-1.226 0-2.463.005-3.699-.003-.314-.002-.657-.439-.691-.807-.075-.817.317-1.351.991-1.749.33-.195.66-.283 1.045-.276 1.065.019 2.131.007 3.208.007-.046.267-.649 2.206-.854 2.828zm-1.107-2.1c-.421-.109-.771-.156-1.077.213-.138.166-.274.339-.379.518-.094.161-.172.384-.01.583.183.225.432.339.701.403.176.042.27-.054.32-.246.126-.477.285-.947.445-1.471z"/><path d="m26.837 60.524c.087-.225.17-.293.385-.292 1.115.005 2.231-.013 3.346.01.435.009.75.252.735.733-.019.593-.223 1.136-.349 1.699-.026.117-.002.246-.079.371-.504 0-1.017 0-1.58 0 .078-.435.126-.856.238-1.259.043-.156.059-.303.057-.455-.004-.292-.133-.423-.419-.435-.218-.009-.437-.002-.668-.002-.125.481-.234.95-.37 1.411-.161.549-.588.851-1.161.852-.819.001-.801.005-.621-.788.059-.264.351-1.499.486-1.845z"/></g><path d="m33.753 74.017c-.05-.143-.174-.102-.277-.11-1.023-.075-1.933-.866-2.052-2.025-.069-.672-.015-1.32.12-1.969.232-1.121 1.035-1.698 2.028-2.066.333-.123.68-.243 1.051-.231.426.014.543.146.404.538-.185.525-.421 1.032-.606 1.558-.185.527-.328 1.061-.345 1.632-.022.766.338 1.216.935 1.426.653.23 1.442-.062 1.836-.63.224-.324.271-.684.352-1.057.103-.472-.04-.879-.113-1.313-.071-.421-.299-.679-.687-.836-.159-.064-.359-.101-.437-.343.784-.546 1.67-.739 2.604-.624.362.045.713.244.88.648.226.548.364 1.094.196 1.687-.054.189-.034.399-.081.591-.321 1.317-1.257 2.07-2.435 2.562-.648.27-1.328.468-2.046.46-.062-.001-.091.05-.113.101-.405.001-.81.001-1.214.001z" fill="#dda84d"/><path d="m46.663 74.017c-.163-.221-.408-.071-.61-.133-.674-.208-1.202-.591-1.556-1.207-.043-.074-.046-.183-.158-.206l.008.008c-.108-.52-.137-1.047-.111-1.576.077-1.518.851-2.662 2.291-3.099.308-.093.624-.179.953-.188.279-.008.384.116.401.394.026.433-.243.761-.395 1.117-.294.691-.448 1.409-.59 2.134-.111.567.34 1.268.909 1.447 1.094.344 2.117-.173 2.264-1.59.038-.37.023-.751-.061-1.139-.136-.628-.459-1.007-1.067-1.168-.048-.013-.086-.063-.159-.118.075-.149.188-.236.335-.316.695-.381 1.444-.487 2.217-.42.541.047 1.13.596 1.156 1.148.026.558.052 1.119-.062 1.689-.224 1.122-.953 1.809-1.86 2.359-.787.477-1.652.732-2.578.754-.093.002-.184.005-.226.11-.365 0-.733 0-1.101 0z" fill="#7f95c3"/><path d="m26.775 73.928c-1.539-.019-2.755-.373-3.688-1.376-.629-.676-.949-1.497-1.048-2.44-.108-1.021.089-1.934.693-2.738.507-.675 1.158-1.207 1.908-1.606.894-.476 1.823-.865 2.819-1.069.912-.187 1.825-.248 2.76-.086.422.073.865.089 1.298.132.247.024.404.111.344.371-.171.736-.178 1.498-.407 2.228-.094.299-.226.571-.362.841-.156.309-.586.31-.747.004-.176-.334-.325-.686-.441-1.044-.062-.193-.14-.384-.247-.538-.355-.513-.749-.714-1.379-.574-1.507.335-2.343 1.37-2.981 2.63-.276.545-.428 1.149-.374 1.786.075.893.518 1.73 1.426 1.966.347.09.668.039 1.014-.032.791-.161 1.474-.479 2.006-1.096.281-.327.697-.354 1.072-.458.181-.05.301.071.332.274.106.682-.151 1.242-.669 1.635-.792.599-2.315 1.296-3.329 1.19z" fill="#28a5e3"/><path d="m44.34 72.471c.032.397-.142.645-.458.907-.572.472-1.211.436-1.863.417-.587-.018-1.141-.193-1.633-.5-.296-.185-.45-.486-.462-.877-.033-1.048.262-2.035.508-3.031.259-1.043.538-2.082.838-3.114.179-.615.515-1.144.985-1.596.358-.345.718-.271 1.094-.094.345.162.568.382.57.83.004.71-.257 1.344-.47 1.988-.441 1.328-.815 2.673-1.17 4.025-.205.78.217 1.154 1.021.968.345-.08.733-.329 1.049.086z" fill="#c95d5d"/><path d="m59.3 71.183c-.233-.174-.262-.366-.366-.512-.338-.475-.756-.63-1.319-.476-1.005.276-1.625.982-2.086 1.865-.16.307-.304.622-.47.925-.294.535-1.099.82-1.613.549-.2-.105-.384-.269-.386-.556-.003-.476.015-.943.173-1.4.284-.82.546-1.645.73-2.496.06-.277.213-.545.372-.785.286-.43 1.417-.512 1.744-.133.266.308.203.686.154 1.048-.011.084-.096.158.016.286 1.197-1.016 2.417-2.023 4.228-1.859-.109 1.294-.687 2.377-1.177 3.544z" fill="#c389a7"/></svg>