<svg enable-background="new -180 262.786 250.161 268.214" viewBox="-180 262.786 250.161 268.214" xmlns="http://www.w3.org/2000/svg"><path d="m-141.355 362.665h-137.251c-1.949 0-3.544-1.595-3.544-3.544v-11.254c0-1.949 1.595-3.544 3.544-3.544h137.251c1.949 0 3.544 1.595 3.544 3.544v11.254c0 1.949-1.595 3.544-3.544 3.544" fill="#cac2b5" transform="translate(154.5794 74.8154)"/><path d="m-134.683 343.908h-202.643c-1.949 0-3.542-1.595-3.542-3.544v-157.187c0-1.949 1.594-3.542 3.542-3.542h202.643c1.949 0 3.544 1.594 3.544 3.542v157.188c-.001 1.948-1.596 3.543-3.544 3.543" fill="#efede1" transform="translate(181.2666 83.152)"/><path d="m-136.711 316.635h-182.262c-.974 0-1.771-.798-1.771-1.771v-130.429c0-.974.797-1.771 1.771-1.771h182.262c.975 0 1.771.798 1.771 1.771v130.429c.001.974-.796 1.771-1.771 1.771" fill="#d8d5cb" transform="translate(173.1577 95.2732)"/><path d="m-180 262.786h250.161v268.214h-250.161z" fill="none"/><path d="m-141.734 297.257h-132.031c-9.744 0-17.716-7.973-17.716-17.716v-77.008c0-9.744 7.972-17.716 17.716-17.716h132.031c9.744 0 17.716 7.972 17.716 17.716v77.007c.001 9.745-7.972 17.717-17.716 17.717z" fill="#4f4c4d" transform="translate(153.0653 103.8857)"/><path d="m-144.647 382.761h-104.329l5.658-11.164h93.073z" fill="#e4dccb" transform="translate(141.4103 65.884)"/><path d="m19.386 459.171h-146.956v-10.526h146.956z" fill="#efede0"/><path d="m-132.094 531h-228.901c-5.846 0-10.63-4.784-10.63-10.63v-50.569c0-5.846 4.784-10.63 10.63-10.63h228.901c5.846 0 10.63 4.784 10.63 10.63v50.569c0 5.846-4.784 10.63-10.63 10.63" fill="#e4dccb" transform="translate(191.6249)"/><g fill="#c0ba9f"><path d="m-176.474 496.448c-1.523 0-2.769-1.246-2.769-2.769v-27.9c0-1.522 1.246-2.769 2.769-2.769 1.522 0 2.769 1.246 2.769 2.769v27.9c0 1.523-1.247 2.769-2.769 2.769" transform="translate(14.1035 15.3564)"/><path d="m-174.443 496.448c-1.522 0-2.769-1.246-2.769-2.769v-27.9c0-1.522 1.246-2.769 2.769-2.769 1.523 0 2.769 1.246 2.769 2.769v27.9c0 1.523-1.246 2.769-2.769 2.769" transform="translate(22.2288 15.3564)"/><path d="m-172.449 496.448c-1.523 0-2.769-1.246-2.769-2.769v-27.9c0-1.522 1.246-2.769 2.769-2.769 1.522 0 2.769 1.246 2.769 2.769v27.9c0 1.523-1.246 2.769-2.769 2.769" transform="translate(30.2047 15.3564)"/><path d="m-170.418 496.448c-1.523 0-2.769-1.246-2.769-2.769v-27.9c0-1.522 1.246-2.769 2.769-2.769 1.522 0 2.769 1.246 2.769 2.769v27.9c0 1.523-1.246 2.769-2.769 2.769" transform="translate(38.3299 15.3564)"/><path d="m-168.518 496.448c-1.522 0-2.769-1.246-2.769-2.769v-27.9c0-1.522 1.246-2.769 2.769-2.769 1.523 0 2.769 1.246 2.769 2.769v27.9c0 1.523-1.247 2.769-2.769 2.769" transform="translate(45.9274 15.3564)"/><path d="m-166.487 496.448c-1.522 0-2.769-1.246-2.769-2.769v-27.9c0-1.522 1.246-2.769 2.769-2.769 1.523 0 2.769 1.246 2.769 2.769v27.9c0 1.523-1.246 2.769-2.769 2.769" transform="translate(54.0527 15.3564)"/></g><path d="m-132.864 512.588h-148.234c-1.949 0-3.544-1.595-3.544-3.544v-44.284c0-1.949 1.595-3.544 3.544-3.544h148.234c1.949 0 3.544 1.595 3.544 3.544v44.284c0 1.949-1.595 3.544-3.544 3.544" fill="#666870" transform="translate(188.5454 8.1831)"/><path d="m-132.864 512.588h-148.234c-1.949 0-3.544-1.595-3.544-3.544v-44.284c0-1.949 1.595-3.544 3.544-3.544h148.234c1.949 0 3.544 1.595 3.544 3.544v44.284c0 1.949-1.595 3.544-3.544 3.544z" fill="none" stroke="#4f4c4d" stroke-miterlimit="10" stroke-width=".5" transform="translate(188.5454 8.1831)"/><path d="m-149.407 472.882h-60.519c-.975 0-1.771-.798-1.771-1.771v-3.71c0-.974.796-1.771 1.771-1.771h60.519c.975 0 1.771.797 1.771 1.771v3.71c.001.973-.796 1.771-1.771 1.771" fill="#201d1d" transform="translate(122.3736 25.8304)"/><path d="m-53.434 503.245h-16.318v-16.318h16.318z" fill="#201d1d"/><path d="m-74.298 503.245h-5.795v-16.318h5.795z" fill="#525458"/><path d="m-135.229 472.882h-60.519c-.975 0-1.771-.798-1.771-1.771v-3.71c0-.974.796-1.771 1.771-1.771h60.519c.975 0 1.771.797 1.771 1.771v3.71c0 .973-.796 1.771-1.771 1.771" fill="#201d1d" transform="translate(179.0843 25.8304)"/><path d="m-133.269 473.215h-3.894c-.975 0-1.773-.798-1.773-1.771v-3.895c0-.974.798-1.771 1.773-1.771h3.894c.975 0 1.771.797 1.771 1.771v3.895c0 .973-.796 1.771-1.771 1.771" fill="#525458" transform="translate(186.9229 25.6823)"/><path d="m-133.659 459.661h1.948c.974 0 1.771.797 1.771 1.771v3.895c0 .974-.798 1.771-1.771 1.771l-1.948.092" fill="#201d1d" transform="translate(185.3652 31.7064)"/><path d="m55.425 517.703h-7.437v-7.438h7.437z" fill="#cac2b5"/><path d="m54.7 516.846h-2.269v-2.269h2.269z" fill="#1f70c1"/></svg>