<svg enable-background="new -180 262.786 326.671 268.214" viewBox="-180 262.786 326.671 268.214" xmlns="http://www.w3.org/2000/svg"><path d="m-141.355 362.665h-137.251c-1.949 0-3.544-1.595-3.544-3.544v-11.254c0-1.949 1.595-3.544 3.544-3.544h137.251c1.949 0 3.544 1.595 3.544 3.544v11.254c0 1.949-1.595 3.544-3.544 3.544" fill="#cac2b5" transform="translate(154.5794 74.8154)"/><path d="m-134.683 343.908h-202.643c-1.949 0-3.542-1.595-3.542-3.544v-157.187c0-1.949 1.594-3.542 3.542-3.542h202.643c1.949 0 3.544 1.594 3.544 3.542v157.188c-.001 1.948-1.596 3.543-3.544 3.543" fill="#efede1" transform="translate(181.2666 83.152)"/><path d="m-136.711 316.635h-182.262c-.974 0-1.771-.798-1.771-1.771v-130.429c0-.974.797-1.771 1.771-1.771h182.262c.975 0 1.771.798 1.771 1.771v130.429c.001.974-.796 1.771-1.771 1.771" fill="#d8d5cb" transform="translate(173.1577 95.2732)"/><path d="m-180 262.786h250.161v268.214h-250.161z" fill="none"/><path d="m-141.734 297.257h-132.031c-9.744 0-17.716-7.973-17.716-17.716v-77.008c0-9.744 7.972-17.716 17.716-17.716h132.031c9.744 0 17.716 7.972 17.716 17.716v77.007c.001 9.745-7.972 17.717-17.716 17.717z" fill="#4f4c4d" transform="translate(153.0653 103.8857)"/><path d="m-144.647 382.761h-104.329l5.658-11.164h93.073z" fill="#e4dccb" transform="translate(141.4103 65.884)"/><path d="m19.386 459.171h-146.956v-10.526h146.956z" fill="#efede0"/><path d="m-132.094 531h-228.901c-5.846 0-10.63-4.784-10.63-10.63v-50.569c0-5.846 4.784-10.63 10.63-10.63h228.901c5.846 0 10.63 4.784 10.63 10.63v50.569c0 5.846-4.784 10.63-10.63 10.63" fill="#e4dccb" transform="translate(191.6249)"/><g fill="#c0ba9f"><path d="m-176.474 496.448c-1.523 0-2.769-1.246-2.769-2.769v-27.9c0-1.522 1.246-2.769 2.769-2.769 1.522 0 2.769 1.246 2.769 2.769v27.9c0 1.523-1.247 2.769-2.769 2.769" transform="translate(14.1035 15.3564)"/><path d="m-174.443 496.448c-1.522 0-2.769-1.246-2.769-2.769v-27.9c0-1.522 1.246-2.769 2.769-2.769 1.523 0 2.769 1.246 2.769 2.769v27.9c0 1.523-1.246 2.769-2.769 2.769" transform="translate(22.2288 15.3564)"/><path d="m-172.449 496.448c-1.523 0-2.769-1.246-2.769-2.769v-27.9c0-1.522 1.246-2.769 2.769-2.769 1.522 0 2.769 1.246 2.769 2.769v27.9c0 1.523-1.246 2.769-2.769 2.769" transform="translate(30.2047 15.3564)"/><path d="m-170.418 496.448c-1.523 0-2.769-1.246-2.769-2.769v-27.9c0-1.522 1.246-2.769 2.769-2.769 1.522 0 2.769 1.246 2.769 2.769v27.9c0 1.523-1.246 2.769-2.769 2.769" transform="translate(38.3299 15.3564)"/><path d="m-168.518 496.448c-1.522 0-2.769-1.246-2.769-2.769v-27.9c0-1.522 1.246-2.769 2.769-2.769 1.523 0 2.769 1.246 2.769 2.769v27.9c0 1.523-1.247 2.769-2.769 2.769" transform="translate(45.9274 15.3564)"/><path d="m-166.487 496.448c-1.522 0-2.769-1.246-2.769-2.769v-27.9c0-1.522 1.246-2.769 2.769-2.769 1.523 0 2.769 1.246 2.769 2.769v27.9c0 1.523-1.246 2.769-2.769 2.769" transform="translate(54.0527 15.3564)"/></g><path d="m-132.864 512.588h-148.234c-1.949 0-3.544-1.595-3.544-3.544v-44.284c0-1.949 1.595-3.544 3.544-3.544h148.234c1.949 0 3.544 1.595 3.544 3.544v44.284c0 1.949-1.595 3.544-3.544 3.544" fill="#666870" transform="translate(188.5454 8.1831)"/><path d="m-132.864 512.588h-148.234c-1.949 0-3.544-1.595-3.544-3.544v-44.284c0-1.949 1.595-3.544 3.544-3.544h148.234c1.949 0 3.544 1.595 3.544 3.544v44.284c0 1.949-1.595 3.544-3.544 3.544z" fill="none" stroke="#4f4c4d" stroke-miterlimit="10" stroke-width=".5" transform="translate(188.5454 8.1831)"/><path d="m-149.407 472.882h-60.519c-.975 0-1.771-.798-1.771-1.771v-3.71c0-.974.796-1.771 1.771-1.771h60.519c.975 0 1.771.797 1.771 1.771v3.71c.001.973-.796 1.771-1.771 1.771" fill="#201d1d" transform="translate(122.3736 25.8304)"/><path d="m-53.434 503.245h-16.318v-16.318h16.318z" fill="#201d1d"/><path d="m-74.298 503.245h-5.795v-16.318h5.795z" fill="#525458"/><path d="m-135.229 472.882h-60.519c-.975 0-1.771-.798-1.771-1.771v-3.71c0-.974.796-1.771 1.771-1.771h60.519c.975 0 1.771.797 1.771 1.771v3.71c0 .973-.796 1.771-1.771 1.771" fill="#201d1d" transform="translate(179.0843 25.8304)"/><path d="m-133.269 473.215h-3.894c-.975 0-1.773-.798-1.773-1.771v-3.895c0-.974.798-1.771 1.773-1.771h3.894c.975 0 1.771.797 1.771 1.771v3.895c0 .973-.796 1.771-1.771 1.771" fill="#525458" transform="translate(186.9229 25.6823)"/><path d="m-133.659 459.661h1.948c.974 0 1.771.797 1.771 1.771v3.895c0 .974-.798 1.771-1.771 1.771l-1.948.092" fill="#201d1d" transform="translate(185.3652 31.7064)"/><path d="m55.425 517.703h-7.437v-7.438h7.437z" fill="#cac2b5"/><path d="m54.7 516.846h-2.269v-2.269h2.269z" fill="#1f70c1"/><path d="m-57.606 380.475c-17.815 0-32.257 14.442-32.257 32.257s14.442 32.257 32.257 32.257 32.257-14.442 32.257-32.257-14.442-32.257-32.257-32.257zm-.054 36.731c-2.65 0-4.612-2.166-4.727-4.727-.114-2.553 2.254-4.727 4.727-4.727 2.65 0 4.612 2.166 4.727 4.727.114 2.553-2.254 4.727-4.727 4.727z" fill="#231f20" transform="translate(172.0199 86.0099)"/><path d="m-11.708 480.382c-5.539 7.229-14.266 11.885-24.075 11.885s-18.529-4.656-24.075-11.885c-3.923-5.109-6.258-11.507-6.258-18.455 0-16.757 13.584-30.333 30.333-30.333 16.757 0 30.341 13.576 30.341 30.333 0 6.948-2.336 13.346-6.258 18.455zm-24.076-50.182c-17.52 0-31.727 14.206-31.727 31.727s14.207 31.727 31.727 31.727c17.528 0 31.727-14.206 31.727-31.727s-14.198-31.727-31.727-31.727" fill="#fff" transform="translate(150.1937 36.812)"/><path d="m28.41 448.521c-5.39 0-9.757-4.374-9.757-9.765s4.367-9.765 9.757-9.765 9.765 4.374 9.765 9.765-4.375 9.765-9.765 9.765m-24.075 8.69h48.158c3.923-5.109 6.258-11.508 6.258-18.455 0-16.757-13.583-30.333-30.34-30.333-16.75 0-30.333 13.576-30.333 30.333-.001 6.948 2.334 13.347 6.257 18.455" fill="#6e6f71" transform="translate(86.0001 59.9826)"/><path d="m28.41 445.884c-4.997 0-9.046-4.049-9.046-9.046s4.049-9.046 9.046-9.046 9.053 4.048 9.053 9.046-4.056 9.046-9.053 9.046m0-18.81c-5.39 0-9.757 4.375-9.757 9.765s4.367 9.765 9.757 9.765 9.765-4.375 9.765-9.765c0-5.391-4.375-9.765-9.765-9.765" fill="#1f70c1" transform="translate(86.0001 61.9003)"/><path d="m28.41 443.764c-4.671 0-8.46-3.796-8.46-8.467 0-4.672 3.789-8.46 8.46-8.46 4.679 0 8.467 3.789 8.467 8.46s-3.788 8.467-8.467 8.467m0-17.513c-4.997 0-9.046 4.049-9.046 9.046s4.049 9.046 9.046 9.046 9.053-4.048 9.053-9.046-4.056-9.046-9.053-9.046" fill="#918f90" transform="translate(86.0001 63.4424)"/><path d="m28.41 416.161c-4.671 0-8.46 3.789-8.46 8.46s3.789 8.468 8.46 8.468c4.679 0 8.467-3.797 8.467-8.468s-3.788-8.46-8.467-8.46zm.62 12.878c-.222.035-.445.059-.67.059-2.65 0-4.612-2.166-4.727-4.727-.063-1.41.633-2.702 1.683-3.578.829-.722 1.909-1.162 3.094-1.162 2.61 0 4.73 2.12 4.73 4.73 0 2.399-1.793 4.374-4.11 4.678z" fill="#4f4c4d" transform="translate(86.0001 74.1182)"/><path d="m28.41 416.161c-4.671 0-8.46 3.789-8.46 8.46s3.789 8.468 8.46 8.468c4.679 0 8.467-3.797 8.467-8.468s-3.788-8.46-8.467-8.46zm.62 12.878c-.222.035-.445.059-.67.059-2.65 0-4.612-2.166-4.727-4.727-.063-1.41.633-2.702 1.683-3.578.829-.722 1.909-1.162 3.094-1.162 2.61 0 4.73 2.12 4.73 4.73 0 2.399-1.793 4.374-4.11 4.678z" fill="none" stroke="#353132" stroke-miterlimit="10" stroke-width=".5932" transform="translate(86.0001 74.1182)"/><path d="m104.592 518.233v.537h3.822v-.537zm4.364 0v.537h5.447s-.556-.537-1.293-.537zm6.515 0v.537h3.295l-.196-.537zm5.657 0-.196.537h3.265v-.537zm-16.536 1.045v.537h3.822v-.537zm4.364.001v.537h6.079s-.071-.414-.195-.537zm6.515 0v.537h3.656l-.181-.537zm5.266 0-.181.537h3.642v-.537zm-15.047 1.044v.538h1.655v-.538zm4.364 0v.538h1.655v-.538zm3.265 0v.538h1.655s.105-.284.105-.538zm3.25 0v.538h2.935l-.196-.538zm3.808 0-.196.538h2.949v-.538zm-14.687 1.046v.537h1.655v-.537zm4.364 0v.537h4.228s.354-.276.466-.537zm6.515 0v.537h1.655v-.299l.105.299h3.032l.113-.299v.299h1.655v-.537h-3.107l-.165.455-.166-.455zm-10.879 1.045v.537h1.655v-.537zm4.364 0v.537h4.694c-.113-.261-.466-.537-.466-.537zm6.515 0v.537h1.655v-.537zm1.956 0 .2.537h2.274l.19-.537zm2.949 0v.537h1.655v-.537zm-15.784 1.045v.537h1.655v-.537zm4.364 0v.537h1.655v-.537zm3.265 0v.537h1.76c0-.254-.105-.537-.105-.537zm3.25 0v.537h1.655v-.537zm2.332 0 .194.537h1.524l.196-.537zm2.573 0v.537h1.655v-.537zm-16.852 1.045v.538h3.822v-.538zm4.334 0v.538h5.884c.124-.123.195-.538.195-.538zm6.545 0v.538h2.724v-.538zm3.777 0 .199.538h.775l.187-.538zm2.196 0v.538h2.754v-.538zm-16.852 1.046v.537h3.822v-.537zm4.334 0v.537h4.153c.737 0 1.293-.537 1.293-.537zm6.545 0v.537h2.724v-.537zm4.155 0 .192.536.033.001.195-.537zm1.818 0v.537h2.754v-.537z" fill="#1f70c1"/></svg>