<svg enable-background="new -52.788 415.283 98.737 222.163" viewBox="-52.788 415.283 98.737 222.163" xmlns="http://www.w3.org/2000/svg"><path d="m-81.911 539.638c2.899-.001 5.798-.004 8.696.001.932.002 1.01.128.589.957-1.517 2.988-2.625 6.131-3.255 9.41-.707 3.68-.863 7.393-.441 11.145.497 4.428 1.77 8.592 3.765 12.556.326.649.193.877-.559.878-5.721.007-11.445.106-17.163-.028-6.608-.154-12.155-4.763-13.687-11.156-.242-1.008-.408-2.036-.39-3.093.036-2.059.008-4.119.011-6.179.008-6.466 4.178-12.061 10.368-13.895 1.296-.384 2.622-.6 3.98-.598 2.695.005 5.391.002 8.086.002" fill="#666870" transform="translate(65.739 62.8189)"/><path d="m-95.941 580.581c-1.347 0-2.696.041-4.042-.012-1.252-.05-2.114.511-2.643 1.571-.286.571-.661.766-1.26.742-.736-.03-1.475-.032-2.211-.001-.689.03-.95-.25-.941-.942.041-2.919.587-5.754 1.374-8.55.664-2.359 1.662-4.583 2.793-6.752.198-.38.426-.692.908-.698 2.44-.032 4.89-.135 7.238.718 5.031 1.828 8.249 5.341 9.598 10.515.385 1.475.475 3.012.374 4.543-.04.594.184.827.773.817.915-.015 1.83.044 2.744.018 2.274-.065 4.186.778 5.748 2.368 1.3 1.323 2.86 1.88 4.659 1.908.966.016 1.932.023 2.898-.001.617-.015.784.286.779.846-.004.536-.114.892-.753.869-1.447-.052-2.899.109-4.341-.095-1.724-.244-3.184-1.037-4.384-2.275-1.281-1.322-2.818-1.939-4.642-1.909-.839.014-1.68.038-2.517-.008-.726-.04-1.007.221-.968.96.122 2.317-.185 4.585-1.142 6.704-2.249 4.98-6.053 7.974-11.499 8.817-1.469.227-2.942.118-4.414.154-.494.012-.779-.216-1.009-.65-2.055-3.876-3.481-7.943-3.955-12.33-.111-1.036-.267-2.061-.263-3.107.002-.621.254-.875.868-.859.838.022 1.678.017 2.517 0 .458-.009.767.143.962.58.551 1.231 1.527 1.745 2.864 1.731 2.618-.028 5.237-.026 7.856-.002 1.283.012 2.207-.499 2.733-1.674.204-.456.532-.641 1.02-.633.814.013 1.628.002 2.441-.001.345-.001.682-.016.702-.49.022-.506-.305-.576-.699-.576-.814.001-1.628-.013-2.441.001-.462.008-.751-.176-.961-.594-.589-1.173-1.502-1.784-2.874-1.717-1.295.063-2.594.014-3.89.014" fill="#d8d5cb" transform="translate(97.4094 36.5225)"/><path d="m-97.252 593.386c-.735.001-1.472.019-2.206-.004-1.096-.035-1.945-.841-1.913-1.781.033-.968.864-1.711 1.958-1.719 1.471-.012 2.942-.015 4.413.001 1.179.013 1.901.67 1.929 1.712.026.942-.809 1.746-1.899 1.785-.759.028-1.521.006-2.282.006" fill="#666870" transform="translate(100.3676 28.2979)"/><path d="m-97.252 593.386c-.735.001-1.472.019-2.206-.004-1.096-.035-1.945-.841-1.913-1.781.033-.968.864-1.711 1.958-1.719 1.471-.012 2.942-.015 4.413.001 1.179.013 1.901.67 1.929 1.712.026.942-.809 1.746-1.899 1.785-.759.028-1.521.006-2.282.006z" fill="none" stroke="#4f4c4d" stroke-miterlimit="10" stroke-width=".2228" transform="translate(100.3676 28.2979)"/><path d="m-100.816 16.422h12.953c4.342 0 7.894 3.553 7.894 7.894v157.578c0 4.342-3.553 7.894-7.894 7.894h-12.953" fill="#d8d5cb" transform="translate(108.413 398.8612)"/><path d="m-69.37 501.041h-12.953c-4.342 0-7.894-3.553-7.894-7.894v-157.578c0-4.342 3.553-7.894 7.894-7.894h12.953" fill="#cac2b5" transform="translate(37.4294 87.6082)"/><path d="m-57.731 478.973v-157.577c0-4.342 3.553-7.894 7.894-7.894h53.224c4.342 0 7.895 3.552 7.895 7.894v157.578c0 4.342-3.553 7.894-7.895 7.894h-53.224c-4.342-.001-7.894-3.553-7.894-7.895" fill="#efede1" transform="translate(11.1573 101.7814)"/><path d="m10.476 426.369h5.545v8.521h-5.545z" fill="#c0ba9f"/><path d="m10.476 438.036h5.545v8.521h-5.545z" fill="#c0ba9f"/><path d="m10.476 449.455h5.545v8.521h-5.545z" fill="#666870"/><path d="m10.476 461.215h5.545v8.521h-5.545z" fill="#666870"/><path d="m10.476 472.974h5.545v8.521h-5.545z" fill="#666870"/><path d="m10.476 484.535h5.545v8.521h-5.545z" fill="#666870"/><path d="m10.476 496.124h5.545v8.521h-5.545z" fill="#c0ba9f"/><path d="m10.476 507.883h5.545v8.521h-5.545z" fill="#c0ba9f"/><path d="m10.476 519.473h5.545v8.521h-5.545z" fill="#c0ba9f"/><path d="m-4.181 426.369h8.521v8.521h-8.521z" fill="#cac2b5"/><path d="m-15.973 426.369h8.521v8.521h-8.521z" fill="#cac2b5"/><g fill="#c0ba9f"><path d="m-4.181 438.036h8.521v8.521h-8.521z"/><path d="m-4.181 449.455h8.521v8.521h-8.521z"/><path d="m-4.181 461.215h8.521v8.521h-8.521z"/><path d="m-4.181 472.974h8.521v8.521h-8.521z"/><path d="m-4.181 484.535h8.521v8.521h-8.521z"/><path d="m-4.181 496.124h8.521v8.521h-8.521z"/><path d="m-4.181 507.883h8.521v8.521h-8.521z"/><path d="m-15.973 438.036h8.521v8.521h-8.521z"/><path d="m-15.973 449.455h8.521v8.521h-8.521z"/><path d="m-15.973 461.215h8.521v8.521h-8.521z"/><path d="m-15.973 472.974h8.521v8.521h-8.521z"/><path d="m-15.973 484.535h8.521v8.521h-8.521z"/><path d="m-15.973 496.124h8.521v8.521h-8.521z"/><path d="m-27.53 449.455h8.521v8.521h-8.521z"/><path d="m-27.53 461.215h8.521v8.521h-8.521z"/><path d="m-27.53 472.974h8.521v8.521h-8.521z"/><path d="m-27.53 484.535h8.521v8.521h-8.521z"/><path d="m-27.53 496.124h8.521v8.521h-8.521z"/><path d="m-39.322 426.369h8.521v8.521h-8.521z"/><path d="m-39.322 507.883h8.521v8.521h-8.521z"/><path d="m-39.322 519.473h8.521v8.521h-8.521z"/><path d="m-39.322 532.686h8.521v8.521h-8.521z"/><path d="m-39.322 544.445h8.521v8.521h-8.521z"/><path d="m-27.53 544.445h8.521v8.521h-8.521z"/></g><path d="m-27.53 567.624h8.521v8.521h-8.521z" fill="#cac2b5"/><path d="m-39.322 556.205h8.521v8.521h-8.521z" fill="#c0ba9f"/><path d="m-39.322 567.624h8.521v8.521h-8.521z" fill="#cac2b5"/><path d="m-15.973 567.624h8.521v8.521h-8.521z" fill="#cac2b5"/><path d="m-4.181 567.624h8.521v8.521h-8.521z" fill="#666870"/><path d="m-4.181 556.205h8.521v8.521h-8.521z" fill="#666870"/><path d="m-4.181 544.445h8.521v8.521h-8.521z" fill="#666870"/><path d="m-4.181 532.686h8.521v8.521h-8.521z" fill="#666870"/><path d="m-27.53 426.369h8.521v20.189h-8.521z" fill="#cac2b5"/><path d="m-27.53 507.883h8.521v20.189h-8.521z" fill="#cac2b5"/><path d="m-15.973 507.883h8.521v20.189h-8.521z" fill="#666870"/><path d="m-15.848 519.551h20.188v8.521h-20.189z" fill="#666870"/><path d="m-39.322 438.036h8.521v66.609h-8.521z" fill="#666870"/><path d="m-105.321 417.209c-2.374 0-4.299-1.925-4.299-4.299s1.925-4.299 4.299-4.299 4.299 1.925 4.299 4.299c.001 2.374-1.924 4.299-4.299 4.299" fill="#666870" transform="translate(118.5821 141.45)"/><path d="m-105.331 449.514c-2.374 0-4.299-1.925-4.299-4.299s1.925-4.299 4.299-4.299 4.299 1.925 4.299 4.299c.001 2.374-1.924 4.299-4.299 4.299" fill="#1f70c1" transform="translate(118.6046 120.702)"/><path d="m-117.397 239.841c3.925-.112 4.235 1.064 6.93 3.808 2.243 2.284 4.936 3.244 8.04 3.293 1.667.026-.478.057 1.189.016 1.064-.026 1.352.495 1.345 1.46-.007.925-.198 1.539-1.299 1.499-2.496-.091-1.19.17-3.677-.182-2.975-.421-5.495-1.79-7.565-3.926-2.21-2.281-1.814-2.791-4.962-2.738" fill="#d8d5cb" transform="translate(145.8423 255.367)"/><path d="m-52.788 415.283h98.737v222.163h-98.737z" fill="none"/></svg>