<svg enable-background="new -57.843 433.674 64.515 64.515" viewBox="-57.843 433.674 64.515 64.515" xmlns="http://www.w3.org/2000/svg"><path d="m-197.606 347.664c-17.815 0-32.257 14.442-32.257 32.257s14.442 32.257 32.257 32.257 32.257-14.442 32.257-32.257-14.442-32.257-32.257-32.257zm-.054 36.731c-2.65 0-4.612-2.166-4.727-4.727-.114-2.553 2.254-4.727 4.727-4.727 2.65 0 4.612 2.166 4.727 4.727.115 2.553-2.254 4.727-4.727 4.727z" fill="#231f20" transform="translate(172.0199 86.0099)"/><path d="m-151.708 447.571c-5.539 7.229-14.266 11.885-24.075 11.885s-18.529-4.656-24.075-11.885c-3.923-5.109-6.258-11.507-6.258-18.455 0-16.757 13.584-30.333 30.333-30.333 16.757 0 30.341 13.576 30.341 30.333 0 6.948-2.336 13.346-6.258 18.455zm-24.076-50.182c-17.52 0-31.727 14.206-31.727 31.727s14.207 31.727 31.727 31.727c17.528 0 31.727-14.206 31.727-31.727s-14.198-31.727-31.727-31.727" fill="#fff" transform="translate(150.1937 36.812)"/><path d="m-111.59 415.71c-5.39 0-9.757-4.374-9.757-9.765s4.367-9.765 9.757-9.765 9.765 4.374 9.765 9.765-4.374 9.765-9.765 9.765m-24.075 8.69h48.158c3.923-5.109 6.258-11.508 6.258-18.455 0-16.757-13.583-30.333-30.34-30.333-16.75 0-30.333 13.576-30.333 30.333-.001 6.947 2.334 13.346 6.257 18.455" fill="#6e6f71" transform="translate(86.0001 59.9826)"/><path d="m-111.59 413.073c-4.997 0-9.046-4.049-9.046-9.046s4.049-9.046 9.046-9.046 9.053 4.048 9.053 9.046-4.055 9.046-9.053 9.046m0-18.811c-5.39 0-9.757 4.375-9.757 9.765s4.367 9.765 9.757 9.765 9.765-4.375 9.765-9.765-4.374-9.765-9.765-9.765" fill="#1f70c1" transform="translate(86.0001 61.9003)"/><path d="m-111.59 410.953c-4.671 0-8.46-3.796-8.46-8.467 0-4.672 3.789-8.46 8.46-8.46 4.679 0 8.467 3.789 8.467 8.46s-3.788 8.467-8.467 8.467m0-17.514c-4.997 0-9.046 4.049-9.046 9.046s4.049 9.046 9.046 9.046 9.053-4.048 9.053-9.046c0-4.997-4.055-9.046-9.053-9.046" fill="#918f90" transform="translate(86.0001 63.4424)"/><path d="m-111.59 383.35c-4.671 0-8.46 3.789-8.46 8.46s3.789 8.468 8.46 8.468c4.679 0 8.467-3.797 8.467-8.468s-3.788-8.46-8.467-8.46zm.62 12.878c-.222.035-.445.059-.67.059-2.65 0-4.612-2.166-4.727-4.727-.063-1.41.633-2.701 1.683-3.578.829-.722 1.909-1.162 3.094-1.162 2.61 0 4.73 2.12 4.73 4.73 0 2.399-1.793 4.374-4.11 4.678z" fill="#4f4c4d" transform="translate(86.0001 74.1182)"/><path d="m-111.59 383.35c-4.671 0-8.46 3.789-8.46 8.46s3.789 8.468 8.46 8.468c4.679 0 8.467-3.797 8.467-8.468s-3.788-8.46-8.467-8.46zm.62 12.878c-.222.035-.445.059-.67.059-2.65 0-4.612-2.166-4.727-4.727-.063-1.41.633-2.701 1.683-3.578.829-.722 1.909-1.162 3.094-1.162 2.61 0 4.73 2.12 4.73 4.73 0 2.399-1.793 4.374-4.11 4.678z" fill="none" stroke="#353132" stroke-miterlimit="10" stroke-width=".5932" transform="translate(86.0001 74.1182)"/><path d="m-35.408 485.422v.537h3.822v-.537zm4.364 0v.537h5.447s-.556-.537-1.293-.537zm6.515 0v.537h3.295l-.196-.537zm5.658 0-.196.537h3.265v-.537zm-16.537 1.045v.537h3.822v-.537zm4.364.001v.537h6.079s-.071-.414-.195-.537zm6.515 0v.537h3.656l-.181-.537zm5.266 0-.181.537h3.642v-.537zm-15.046 1.044v.538h1.655v-.538zm4.363 0v.538h1.655v-.538zm3.265 0v.538h1.655s.105-.284.105-.538zm3.25 0v.538h2.935l-.196-.538zm3.808 0-.196.538h2.949v-.538zm-14.686 1.046v.537h1.655v-.537zm4.363 0v.537h4.228s.354-.276.466-.537zm6.515 0v.537h1.655v-.299l.105.299h3.032l.113-.299v.299h1.655v-.537h-3.107l-.165.455-.166-.455zm-10.878 1.045v.537h1.655v-.537zm4.363 0v.537h4.694c-.113-.261-.466-.537-.466-.537zm6.515 0v.537h1.655v-.537zm1.956 0 .2.537h2.274l.19-.537zm2.949 0v.537h1.655v-.537zm-15.783 1.045v.537h1.655v-.537zm4.363 0v.537h1.655v-.537zm3.265 0v.537h1.76c0-.254-.105-.537-.105-.537zm3.25 0v.537h1.655v-.537zm2.332 0 .194.537h1.524l.196-.537zm2.573 0v.537h1.655v-.537zm-16.852 1.045v.538h3.822v-.538zm4.334 0v.538h5.884c.124-.123.195-.538.195-.538zm6.545 0v.538h2.724v-.538zm3.777 0 .199.538h.775l.187-.538zm2.196 0v.538h2.754v-.538zm-16.852 1.046v.537h3.822v-.537zm4.334 0v.537h4.153c.737 0 1.293-.537 1.293-.537zm6.545 0v.537h2.724v-.537zm4.155 0 .192.536.033.001.195-.537zm1.818 0v.537h2.754v-.537z" fill="#1f70c1"/></svg>