<svg viewBox="-290 382 30 30" xmlns="http://www.w3.org/2000/svg"><path d="m-290 400.1v-13.8c0-1.3 1-2.3 2.3-2.3h21.5c1.3 0 2.3 1 2.3 2.3v13.8c0 1.3-1 2.3-2.3 2.3h-21.5c-1.3 0-2.3-1-2.3-2.3z" fill="#66798f"/><path d="m-266.1 401.7h-21.7c-.8 0-1.5-.7-1.5-1.5v-14c0-.8.7-1.5 1.5-1.5h21.7c.8 0 1.5.7 1.5 1.5v14c0 .8-.7 1.5-1.5 1.5z" fill="#e1ebf2"/><path d="m-287.2 386.7h20.5v13h-20.5z" fill="#4e7ab5"/><path d="m-286.5 387.4h19.1v11.6h-19.1z" fill="#8bb7f0"/><path d="m-290 407.7v-3.7c0-1.3 1-2.3 2.3-2.3h21.5c1.3 0 2.3 1 2.3 2.3v3.7c0 1.3-1 2.3-2.3 2.3h-21.5c-1.2 0-2.3-1-2.3-2.3z" fill="#66798f"/><path d="m-266.1 409.3h-21.7c-.8 0-1.5-.7-1.5-1.5v-3.9c0-.8.7-1.5 1.5-1.5h21.7c.8 0 1.5.7 1.5 1.5v3.9c0 .8-.7 1.5-1.5 1.5z" fill="#e1ebf2"/><circle cx="-268" cy="405.9" fill="#5e9c76" r="1.4"/><circle cx="-268" cy="405.9" fill="#bae0bd" r=".7"/><path d="m-287.3 405.2h11v.7h-11zm7.1.7h-3.1c.3.3.7.7 1.5.7s1.3-.4 1.6-.7z" fill="#66798f"/></svg>