<?xml version="1.0" encoding="utf-8"?>
<!-- Generator: Adobe Illustrator 16.0.0, SVG Export Plug-In . SVG Version: 6.00 Build 0)  -->
<!DOCTYPE svg PUBLIC "-//W3C//DTD SVG 1.1//EN" "http://www.w3.org/Graphics/SVG/1.1/DTD/svg11.dtd">
<svg version="1.1"
	 id="svg4173" xmlns:dc="http://purl.org/dc/elements/1.1/" xmlns:cc="http://creativecommons.org/ns#" xmlns:rdf="http://www.w3.org/1999/02/22-rdf-syntax-ns#" xmlns:svg="http://www.w3.org/2000/svg" xmlns:sodipodi="http://sodipodi.sourceforge.net/DTD/sodipodi-0.dtd" xmlns:inkscape="http://www.inkscape.org/namespaces/inkscape" inkscape:export-ydpi="90" inkscape:export-xdpi="90" inkscape:export-filename="D:\Users\xizor\Downloads\controls\psx\controls.png" sodipodi:docname="controls.svg" inkscape:version="0.91 r13725"
	 xmlns="http://www.w3.org/2000/svg" xmlns:xlink="http://www.w3.org/1999/xlink" x="0px" y="0px" width="400px" height="300px"
	 viewBox="0 0 400 300" enable-background="new 0 0 400 300" xml:space="preserve">
<sodipodi:namedview  id="base" units="px" borderlayer="false" inkscape:cy="138.58663" inkscape:cx="177.15709" inkscape:zoom="1.979899" borderopacity="1.0" bordercolor="#666666" pagecolor="#111110" showgrid="false" inkscape:window-maximized="1" inkscape:window-y="-8" inkscape:window-x="1912" inkscape:window-height="1057" inkscape:window-width="1920" inkscape:current-layer="layer1" inkscape:document-units="px" inkscape:pageshadow="2" inkscape:pageopacity="0">
	</sodipodi:namedview>
<g id="layer1" transform="translate(0,-752.36211)" inkscape:label="Calque 1" inkscape:groupmode="layer">
	<path id="path4177" d="M288.944,783.19c-5.636,0.012-11.432,0.63-17.414,1.848c-12.665,2.577-24.573,7.451-41.838,17.119
		l-10.256,5.742l-18.019,0.046c-8.778-0.372-19.778,0.135-23.833-0.25c0,0-3.493-3.186-7.492-5.488
		c-37.679-21.687-69.395-24.565-97.5-8.848c-13.389,7.487-28.724,22.897-39.965,40.158c-12.177,18.697-21.63,40.473-27.586,63.553
		c-4.658,18.051-4.574,17.063-4.861,58.203c-0.352,50.41,0.247,56.822,6.51,69.574c3.943,8.03,7.879,13.145,13.346,17.352
		c4.437,3.414,12.881,7.859,17.113,9.008c8.956,2.432,22.866-1.5,36.637-10.354c15.091-9.703,30.854-25.703,46.914-47.582
		c-3.083-4.651-4.73-10.107-4.736-15.688c-0.001-15.713,12.736-28.451,28.449-28.451s28.45,12.736,28.451,28.449
		c0,0.001,0,0.002,0,0.002c-0.004,1.83-0.184,3.656-0.537,5.451h27.465h16.992c-0.393-1.873-0.596-3.779-0.605-5.693
		c0-15.712,12.737-28.449,28.449-28.449s28.45,12.736,28.451,28.449c-0.013,2.304-0.305,4.598-0.869,6.83l0.455,0.703
		c3.758,5.814,17.149,22.967,22.924,29.361c16.785,18.587,38.871,34.365,52.305,37.365c17.176,3.837,37.507-9.418,46.098-30.053
		c5.255-12.623,6.431-25.162,5.844-62.262c-0.647-40.834-1.537-49.107-7.496-69.684c-8.126-28.056-20.843-52.433-37.354-71.605
		C334.738,794.489,313.362,783.138,288.944,783.19z M305.576,827.934c0.613-0.004,1.235,0.019,1.863,0.068
		c9.922,0.788,17.01,8.66,17.01,18.895c0,8.121-4.616,15.028-11.85,17.734c-3.735,1.397-9.02,1.65-12.631,0.604
		c-3.541-1.026-8.471-4.801-10.43-7.986c-2.657-4.318-3.582-9.382-2.582-14.135C288.873,834.005,296.369,827.993,305.576,827.934z
		 M113.385,836.78c4.035,0.059,8.056,1.949,10.289,5.32c1.751,2.644,1.784,2.898,1.988,15.617l0.207,12.93h12.125
		c10.924,0,12.41,0.138,15.008,1.395c8.835,4.277,8.947,17.565,0.186,22.035c-2.308,1.177-3.961,1.322-14.996,1.322h-12.402v12.402
		c0,14.244-0.567,16.288-5.406,19.49c-5.543,3.668-13.076,2.418-17.084-2.832l-1.928-2.527l-0.207-13.229l-0.205-13.227
		l-13.229-0.207l-13.229-0.205l-2.533-1.936c-7.158-5.464-6.269-17.11,1.613-21.131c2.375-1.212,3.928-1.352,15.051-1.352h12.402
		v-12.402c0-14.268,0.563-16.285,5.451-19.52C108.537,837.368,110.963,836.744,113.385,836.78z M263.446,845.329
		c4.877-0.062,9.499,1.823,13.25,5.559c9.535,9.499,6.794,25.22-5.387,30.893c-6.006,2.796-14.209,1.916-19.463-2.092
		c-11.118-8.48-9.65-26.096,2.676-32.127C257.5,846.104,260.519,845.366,263.446,845.329z M323.649,871.366
		c3.049,0.078,6.097,0.854,8.83,2.342c6.317,3.439,9.606,9.123,9.658,16.697c0.025,3.829-0.313,5.416-1.822,8.5
		c-1.996,4.078-4.372,6.438-8.734,8.674c-3.45,1.77-11.067,2.285-14.539,0.986c-8.046-3.01-12.731-9.469-12.809-17.656
		c-0.065-6.924,2.894-12.756,8.322-16.402C315.806,872.323,319.728,871.267,323.649,871.366z M284.026,890.151
		c9.949,0.224,18.601,8.275,18.533,19.33c-0.047,7.637-3.533,13.258-10.324,16.652c-3.386,1.691-4.859,2.04-8.504,1.994
		c-8.157-0.098-13.842-3.556-17.229-10.479c-4.685-9.574-0.521-21.448,9.023-25.738C278.352,890.64,281.24,890.089,284.026,890.151z
		"/>
	<path id="path4207" fill-opacity="0.9947" stroke="#000000" stroke-width="0.9388" d="M244.653,941.241
		c-10.085-0.014-18.643,3.82-25.912,11.605c-3.736,4.001-7.013,9.971-8.42,15.342c-1.106,4.223-1.085,12.929,0.043,17.043
		c3.757,13.713,14.48,23.746,28.148,26.338c10.306,1.953,22.083-1.379,29.787-8.43c4.845-4.436,5.734-5.878,9.061-14.678
		l3.094-8.182l-0.227-5.217c-0.171-3.966-0.53-6.123-1.5-9.008c-4.894-14.557-17.107-23.998-32.037-24.762
		C246.003,941.259,245.324,941.242,244.653,941.241z M245,948.911c15.713,0,28.45,12.736,28.451,28.449c0,0.001,0,0.002,0,0.002
		c0,15.713-12.737,28.451-28.45,28.451H245c-15.713,0-28.451-12.736-28.451-28.449c0-0.001,0-0.002,0-0.002
		c-0.001-15.713,12.736-28.451,28.449-28.451C244.999,948.911,244.999,948.911,245,948.911z"/>
	<path id="path4207-7" fill-opacity="0.9947" stroke="#000000" stroke-width="0.9388" d="M144.438,941.481
		c-10.085-0.014-18.641,3.822-25.91,11.607c-3.736,4.001-7.015,9.971-8.422,15.342c-1.106,4.223-1.085,12.929,0.043,17.043
		c3.757,13.713,14.482,23.747,28.15,26.338c10.306,1.954,22.081-1.381,29.785-8.432c4.845-4.436,5.734-5.875,9.061-14.676
		l3.094-8.184l-0.225-5.215c-0.171-3.966-0.53-6.125-1.5-9.01c-4.894-14.557-17.107-23.996-32.037-24.76
		C145.79,941.501,145.11,941.482,144.438,941.481z M145,949.268c15.713,0,28.45,12.736,28.451,28.449c0,0.001,0,0.002,0,0.002
		c-0.001,15.713-12.739,28.449-28.451,28.449c-15.713,0-28.451-12.736-28.451-28.449c-0.001-15.713,12.736-28.451,28.449-28.451
		C144.999,949.268,144.999,949.268,145,949.268z"/>
	<path id="path4358" inkscape:connector-curvature="0" fill="#FFFFFF" fill-opacity="0.9947" d="M350.254,1051.712
		c-6.289-0.914-14.185-4.566-23.841-11.029c-16.377-10.961-29.501-24.07-47.044-46.994l-2.46-3.216l-1.69,3.649
		c-2.128,4.594-3.951,6.897-8.024,10.139c-8.618,6.857-20.376,9.6-30.361,7.083c-6.907-1.741-11.961-4.603-16.889-9.56
		c-4.701-4.729-7.376-9.135-9.376-15.445l-1.121-3.535l-14.627-0.134c-11.326-0.104-14.737,0.011-15.118,0.505
		c-0.271,0.352-1.568,3.424-2.885,6.828c-1.316,3.403-3.134,7.268-4.038,8.586c-3.729,5.438-12.54,11.137-20.028,12.957
		c-4.227,1.026-12.46,1.048-16.321,0.042c-6.709-1.747-12.979-5.377-17.443-10.099c-1.474-1.558-2.727-2.764-2.784-2.678
		c-0.057,0.085-1.555,1.973-3.329,4.195c-6,7.515-12.458,14.618-19.513,21.466c-13.985,13.574-26.36,21.486-40.042,25.603
		c-3.44,1.035-5.469,1.313-9.884,1.352c-5.32,0.047-5.731-0.028-9.674-1.76c-12.816-5.625-20.168-12.197-25.813-23.074
		c-5.016-9.662-6.403-15.393-7.182-29.646c-1.05-19.227-0.232-77.641,1.195-85.451c1.099-6.012,4.488-19.106,6.905-26.676
		c13.649-42.757,39.685-78.931,66.673-92.635c26.723-13.569,55.398-10.942,90.941,8.33c5.252,2.848,11.103,7.182,11.103,7.182
		c4.763,0.911,13.083,0.324,26.917,0.5l15.065-0.05l7.646-4.3c18.325-10.305,32.74-16.243,45.779-18.854
		c4.861-0.974,7.415-1.165,15.657-1.172c10.648-0.008,15.038,0.589,22.582,3.072c34.461,11.344,66.069,51.631,80.942,103.167
		c5.834,20.214,6.783,29.246,7.385,70.269c0.628,42.831-1.329,55.704-10.645,70.016
		C379.55,1044.726,363.447,1053.628,350.254,1051.712z M151.953,1004.983c8.897-2.295,16.256-8.946,19.469-17.598
		c1.556-4.187,1.942-11.524,0.853-16.142c-2.251-9.536-9.437-17.354-18.634-20.272c-10.007-3.176-21.17-0.475-28.556,6.912
		c-6.851,6.85-9.667,16.959-7.401,26.566c2.286,9.697,10.72,18.217,20.342,20.551
		C141.971,1005.956,148.211,1005.95,151.953,1004.983L151.953,1004.983L151.953,1004.983z M252.788,1004.449
		c7.257-2.022,14.012-7.626,17.262-14.321c2.192-4.516,2.941-7.815,2.941-12.958c0-7.683-2.647-13.944-8.318-19.671
		c-11.029-11.139-28.323-11.139-39.462,0c-6.048,6.049-8.68,13.114-8.162,21.912C218.089,997.065,235.505,1009.266,252.788,1004.449
		L252.788,1004.449z M117.479,928.932c3.122-1.064,5.852-3.314,7.086-5.844c1.114-2.283,1.186-3.061,1.368-14.865l0.193-12.457
		l12.444-0.175c14.126-0.199,14.748-0.344,18.178-4.241c5.388-6.121,3.577-15.672-3.712-19.576
		c-1.878-1.005-2.901-1.095-14.447-1.261l-12.426-0.179l-0.271-12.5c-0.228-10.457-0.414-12.783-1.143-14.224
		c-1.212-2.399-3.178-4.405-5.554-5.667c-2.757-1.465-8.74-1.531-11.567-0.128c-2.729,1.354-5.188,3.946-5.891,6.209
		c-0.347,1.117-0.694,6.95-0.841,14.113l-0.249,12.21l-12.444,0.165c-10.901,0.144-12.678,0.281-14.331,1.103
		c-3.968,1.972-6.464,5.727-6.853,10.308c-0.347,4.085,0.682,6.896,3.72,10.16l2.64,2.837l5.23,0.325
		c2.877,0.179,9.038,0.35,13.691,0.379l8.46,0.054l0.05,8.712c0.028,4.792,0.198,10.952,0.379,13.69l0.328,4.978l2.825,2.629
		c1.554,1.446,3.599,2.876,4.546,3.179C111.226,929.612,115.392,929.644,117.479,928.932z M292.002,926.491
		c4.063-2,7.475-5.34,9.18-8.983c1.181-2.526,1.352-3.524,1.354-7.94c0.003-4.629-0.131-5.333-1.601-8.435
		c-3.195-6.744-8.766-10.528-16.065-10.911c-4.968-0.261-8.604,0.651-12.179,3.053c-9.695,6.516-11.017,21.425-2.642,29.789
		C275.486,928.493,284.937,929.969,292.002,926.491z M331.641,907.716c3.831-1.775,6.517-4.316,8.576-8.114
		c1.67-3.079,1.717-3.325,1.717-8.985c0-5.56-0.074-5.97-1.662-9.196c-6.776-13.764-27.905-13.519-34.276,0.398
		c-4.12,8.998-1.567,19.227,6.092,24.41c3.929,2.659,5.647,3.103,11.412,2.946C327.957,909.053,329.254,908.821,331.641,907.716
		L331.641,907.716z M269.271,882.807c3.486-1.036,7.749-4.227,9.92-7.426c6.662-9.819,3.091-23.035-7.652-28.321
		c-3.049-1.5-3.731-1.637-8.161-1.637c-4.573,0-5.041,0.103-8.694,1.908c-4.321,2.136-6.685,4.52-8.854,8.932
		c-1.235,2.513-1.373,3.334-1.361,8.1c0.012,4.715,0.165,5.613,1.375,8.1c3.55,7.292,9.35,10.936,17.587,11.048
		C265.254,883.535,267.883,883.219,269.271,882.807z M314.002,864.259c3.675-1.699,6.926-4.957,8.748-8.766
		c1.132-2.367,1.48-3.914,1.654-7.342c0.264-5.184-0.616-8.756-3.048-12.374c-7.405-11.019-25.263-10.517-32.086,0.901
		c-4.387,7.342-3.61,16.846,1.861,22.782c4.728,5.128,7.959,6.486,14.941,6.278C310.262,865.614,311.615,865.362,314.002,864.259
		L314.002,864.259z"/>
</g>
</svg>
