<svg enable-background="new 0 0 511.04 311.896" viewBox="0 0 511.04 311.896" xmlns="http://www.w3.org/2000/svg"><path d="m509.613 250.939c-.897 18.048-11.586 30.09-27.88 36.931-25.978 10.914-53.301 16.587-81.096 20.537-65.405 9.291-129.342-1.577-193.178-13.797-16.657-3.184-33.306-5.264-50.333-5.233-31.087.07-62.19-1.577-93.246-.835-33.792.796-53.842-14.377-58.024-49.305-8.254-68.837-10.249-137.357 10.644-204.78 7.134-23.002 21.611-34.449 46.066-34.457h202.252v.224c68.335 0 136.677-.046 205.019.031 20.343.031 33.236 8.549 38.322 24.193l.309 8.17.24 6.377.07 1.94.24 6.292.062 1.731.232 6.021.1 2.713.201 5.503.124 3.169.178 4.746.131 3.494c.061 58.78 2.465 117.577-.433 176.335z" fill="#dbe0e1"/><path d="m418.059 237.382c-1.523 13.913-5.859 17.406-20.39 18.473-15.946 1.167-31.891 2.365-47.837 3.478-22.4 1.554-44.807 2.937-67.191 4.607-7.381.549-12.529-.417-13.062-9.638-.348-5.928-5.009-8.935-11.03-8.95-22.469-.039-44.938-.085-67.407.031-5.959.031-10.094 2.589-10.164 9.314-.062 5.503-2.929 7.474-8.278 7.188-5.836-.309-11.741-.51-17.53.039-8.726.827-12.235-3.215-13.078-11.416-3.3-31.852-4.081-63.828-4.962-95.797-.162-5.843-.023-11.694-.023-17.545-.147-33.553.603-67.052 7.25-100.102 3.818-18.983 7.428-21.959 26.759-21.294 77.154 2.674 154.176 7.513 231.005 15.173 10.504 1.051 13.348 4.004 15.466 15.907 3.293 18.519 4.514 37.286 5.109 55.991 1.415 44.92.287 89.819-4.637 134.541z" fill="#48484a"/><path d="m493.451 206.055c0 3.769.69 15.377-9.322 16.695-4.558.6-17.128-13.542-17.345-16.896-.263-4.127 12.637-17.012 17.074-16.394 10.018 1.384 9.593 12.826 9.593 16.595z" fill="#8898a5"/><path d="m467.272 235.72c-1.637 9.45-11.527 9.291-17.004 9.291s-15.369.455-16.827-9.19c-.631-4.177 12.251-17.545 17.561-17.545 5.768-.001 16.976 13.369 16.27 17.444z" fill="#8898a5"/><path d="m281.948 217.412c-36.317.003-72.636-.188-108.95.163-7.313.071-10.043-1.326-9.973-9.429.408-47.086.341-94.178.046-141.265-.046-7.326 1.482-10.103 9.525-10.07 73.249.304 146.499.263 219.749.033 6.741-.021 8.914 1.538 8.866 8.64-.326 47.703-.361 95.41.019 143.112.061 7.655-2.5 9.015-9.407 8.957-36.624-.307-73.25-.144-109.875-.141z" fill="#505954"/><path d="m53.1 184.838-4.122-5.926s-.773-2.448 0-2.19.773.258.773.258 2.576 1.417 3.349 2.19 11.207 10.112 12.818 11.465 7.697 7.109 11.16 7.15c3.8.044 6.714-2.641 8.775-4.058s19.033-14.686 19.033-14.686 1.932-1.159 2.834-.386-.515 2.963-.515 2.963-20.531 20.032-21.352 22.061-1.37 4.186.097 6.763c2.119 3.724 6.136 6.952 9.13 9.855 0 0 10.08 10.66 10.837 11.562s1.546 2.576.515 3.349-8.792-5.829-8.792-5.829-13.145-10.306-14.975-11.594-6.055-3.865-11.207-.386c-5.153 3.478-22.823 17.876-22.823 17.876s-1.975.711-2.491 0 20.289-21.773 20.289-21.773 3.053-3.231 2.963-6.699c-.097-3.725-.064-4.122-3.027-7.343s-13.269-14.622-13.269-14.622z" fill="#c8c8c8"/><path d="m53.29 41.468-4.122-5.926s-.773-2.448 0-2.19.773.258.773.258 2.576 1.417 3.349 2.19 11.207 10.112 12.818 11.465c1.61 1.353 7.697 7.109 11.16 7.15 3.8.044 6.714-2.641 8.775-4.058s19.033-14.686 19.033-14.686 1.932-1.159 2.834-.386-.515 2.963-.515 2.963-20.531 20.031-21.352 22.06-1.37 4.186.097 6.763c2.119 3.724 6.136 6.952 9.13 9.855 0 0 10.08 10.66 10.837 11.562s1.546 2.576.515 3.349-8.792-5.829-8.792-5.829-13.144-10.306-14.975-11.594-6.055-3.865-11.207-.386c-5.153 3.478-22.823 17.876-22.823 17.876s-1.975.711-2.491 0 20.289-21.773 20.289-21.773 3.053-3.231 2.963-6.699c-.097-3.725-.064-4.122-3.027-7.343-2.963-3.22-13.269-14.621-13.269-14.621z" fill="#c8c8c8"/><path d="m210.439 261.445h-16.292c-3.074 0-5.589-2.515-5.589-5.589 0-3.074 2.515-5.589 5.589-5.589h16.292c3.074 0 5.589 2.515 5.589 5.589 0 3.074-2.515 5.589-5.589 5.589z" fill="#97989a"/><path d="m257.479 261.445h-16.292c-3.074 0-5.589-2.515-5.589-5.589 0-3.074 2.515-5.589 5.589-5.589h16.292c3.074 0 5.589 2.515 5.589 5.589 0 3.074-2.515 5.589-5.589 5.589z" fill="#97989a"/><path d="m82.925 192.77s3.568-3.347 9.538-9.547c5.024-5.217 2.898-11.787-.766-13.707-3.381-1.771-4.259-2.211-13.243-2.235-10.197-.027-11.904.438-15.362 2.512-3.907 2.344-4.992 8.502-1.449 12.56l9.984 10.016c2.902 3.16 8.099 3.261 11.298.401z" fill="#8898a5"/><path d="m63.557 200.297s-3.347-3.568-9.547-9.538c-5.217-5.024-11.787-2.898-13.707.766-1.771 3.381-2.211 4.259-2.235 13.243-.027 10.197.438 11.904 2.512 15.362 2.344 3.907 8.502 4.992 12.56 1.449l10.016-9.984c3.161-2.902 3.261-8.099.401-11.298z" fill="#8898a5"/><path d="m71.342 220.18s-3.568 3.347-9.538 9.547c-5.024 5.217-2.898 11.787.766 13.707 3.381 1.771 4.259 2.211 13.243 2.235 10.197.027 11.904-.438 15.362-2.512 3.907-2.344 4.992-8.502 1.449-12.56l-9.984-10.016c-2.902-3.16-8.099-3.261-11.298-.401z" fill="#8898a5"/><path d="m90.71 212.653s3.347 3.568 9.547 9.538c5.217 5.024 11.787 2.898 13.707-.766 1.771-3.381 2.211-4.259 2.235-13.243.027-10.197-.438-11.904-2.512-15.362-2.344-3.907-8.502-4.992-12.56-1.449l-10.016 9.984c-3.161 2.902-3.261 8.099-.401 11.298z" fill="#8898a5"/><path d="m83.206 49.23s3.568-3.347 9.538-9.547c5.024-5.217 2.898-11.787-.766-13.707-3.381-1.771-4.259-2.211-13.243-2.235-10.197-.027-11.904.438-15.362 2.512-3.907 2.344-4.992 8.502-1.449 12.56l9.984 10.016c2.903 3.161 8.099 3.261 11.298.401z" fill="#8898a5"/><path d="m63.838 56.758s-3.347-3.568-9.547-9.538c-5.217-5.024-11.787-2.898-13.707.766-1.771 3.381-2.211 4.259-2.235 13.243-.027 10.197.438 11.904 2.512 15.362 2.344 3.907 8.502 4.992 12.56 1.449l10.016-9.984c3.161-2.903 3.261-8.099.401-11.298z" fill="#8898a5"/><path d="m71.623 76.641s-3.568 3.347-9.538 9.547c-5.024 5.217-2.898 11.787.766 13.707 3.381 1.771 4.259 2.211 13.243 2.235 10.197.027 11.904-.438 15.362-2.512 3.907-2.344 4.992-8.502 1.449-12.56l-9.984-10.016c-2.902-3.161-8.099-3.261-11.298-.401z" fill="#8898a5"/><path d="m90.991 69.114s3.347 3.568 9.547 9.538c5.217 5.024 11.787 2.898 13.707-.766 1.771-3.381 2.211-4.259 2.235-13.243.027-10.197-.438-11.904-2.512-15.362-2.344-3.907-8.502-4.992-12.56-1.449l-10.016 9.984c-3.161 2.902-3.261 8.098-.401 11.298z" fill="#8898a5"/><g fill="#c8c8c8"><circle cx="78.257" cy="18.154" r="2.21"/><circle cx="123.56" cy="60.141" r="2.21"/><circle cx="123.56" cy="66.403" r="2.21"/><circle cx="81.94" cy="107.838" r="2.21"/><circle cx="76.047" cy="107.838" r="2.21"/><circle cx="69.878" cy="107.838" r="2.21"/><circle cx="30.929" cy="70.823" r="2.21"/><circle cx="30.376" cy="65.022" r="2.21"/><circle cx="30.376" cy="59.221" r="2.21"/><circle cx="31.666" cy="53.144" r="2.21"/><circle cx="78.257" cy="160.92" r="2.21"/><circle cx="123.56" cy="202.908" r="2.21"/><circle cx="123.56" cy="209.169" r="2.21"/><circle cx="81.94" cy="250.604" r="2.21"/><circle cx="76.047" cy="250.604" r="2.21"/><circle cx="69.878" cy="250.604" r="2.21"/><circle cx="30.929" cy="213.589" r="2.21"/><circle cx="30.376" cy="207.788" r="2.21"/><circle cx="30.376" cy="201.987" r="2.21"/><circle cx="31.666" cy="195.91" r="2.21"/><path d="m508.708 38.994-36.629-2.381c-1.098 0-2.002-.904-2.002-2.002 0-.549.224-1.051.587-1.407.363-.363.866-.587 1.414-.587h36.389z"/><path d="m509.018 47.226c-.093.046-.193.077-.294.077l-36.645-2.381c-1.098 0-2.002-.904-2.002-2.002 0-.549.224-1.043.587-1.407.363-.363.866-.587 1.414-.587h36.583c.039 0 .077 0 .116.008z"/><path d="m509.311 54.978c-.185.193-.379.309-.587.309l-36.645-2.381c-1.098 0-2.002-.897-2.002-1.994 0-.549.224-1.051.587-1.414s.866-.587 1.414-.587h36.583c.139 0 .286.015.417.046z"/><path d="m509.613 63.195c-.263.441-.564.727-.889.727l-36.645-2.381c-1.098 0-2.002-.904-2.002-2.002 0-.549.224-1.043.587-1.407.363-.363.866-.587 1.414-.587h36.583c.263 0 .518.054.75.147z"/><path d="m509.914 71.109c-.325.75-.734 1.314-1.19 1.314l-36.645-2.381c-1.098 0-2.002-.904-2.002-2.002 0-.549.224-1.043.587-1.407.363-.363.866-.587 1.414-.587h36.583c.394 0 .765.116 1.074.317z"/></g><path d="m500.353 34.035h7.472v3.221h-7.472z" fill="#a69d93"/><path d="m500.353 42.505h7.472v3.221h-7.472z" fill="#a69d93"/><path d="m500.353 50.492h7.472v3.221h-7.472z" fill="#a69d93"/><path d="m500.353 59.123h7.472v3.221h-7.472z" fill="#a69d93"/><path d="m500.353 67.625h7.472v3.221h-7.472z" fill="#a69d93"/><path d="m463.375 113.96s9.275 16.489 20.611 26.28c11.336 9.79 14.686 19.839 14.686 29.371v40.965s.258 30.724-25.249 39.935c-29.612 10.693-176.485 22.93-176.485 22.93s132.686-8.502 178.031-20.611c25.686-6.859 30.239-32.774 30.531-56.166.223-17.903-1.316-34.569-2.19-38.646-1.546-7.214-13.14-16.489-19.323-21.9-6.184-5.412-17.005-15.975-20.612-22.158z" fill="#c8c8c8"/><path d="m282.113 45.334c.942-.615 1.517-1.869 2.832-1.835.475.012.95.002 1.484.002-.65 2.877-1.276 5.646-1.908 8.445 1.466-.544 1.43-.585 1.897-2.135.466-1.546.853-3.11 1.217-4.683.158-.682 1.303-1.631 1.953-1.622.782.011 1.568-.07 2.361.057-.62 2.768-1.232 5.497-1.883 8.402 1.002-.614 1.725-1.168 1.906-2.325.207-1.321.539-2.62.813-3.93.195-.935 1.047-1.288 1.529-1.969.281-.396.692-.22 1.05-.234.576-.024 1.153-.006 1.754-.006-.635 2.7-1.256 5.296-1.85 7.899-.133.584-.078.483-.78 1.285-.852.778 0 0-.852.778-.55.503-1.104.822-1.887.813-3.848-.044-7.697-.02-11.546-.02.002-.219 1.869-8.895 1.91-8.922z" fill="#a78352"/><path d="m395.852 53.763c-1.22 0-2.478 0-3.762 0 .269-1.059.536-2.129.812-3.197.351-1.362.05-1.795-1.26-1.797-.308 0-.615 0-.986 0-.309 1.13-.601 2.27-.933 3.396-.372 1.262-1.169 1.895-2.378 1.862-.692-.019-1.416.18-2.088-.149.289-1.492 1.691-5.961 1.869-6.645h5.683c.683 0 1.369.032 2.05-.008.783-.046 1.371.311 1.881.886 0 .731-.603 4.453-.888 5.652z" fill="#a78352"/><path d="m338.988 49.475c.869-.87 1.817-1.321 2.679-1.913.377-.259.789-.346 1.247-.339 1.615.024 3.23.022 4.844.002.524-.007.976.104 1.432.405.791.52.99 1.136.469 1.926-.313.474-.734.832-1.284.996-1.015.303-2.01.336-3.004-.047.036-.195.043-.265.062-.332.114-.407.633-.749.194-1.245-.218-.247-1.141-.17-1.543.013-.926.422-1.198 1.305-1.359 2.208-.173.972-.554 1.872-.692 2.845-1.313 0-2.575 0-3.853 0 .287-1.448.565-2.85.857-4.322-.514.194-.751.582-1.035.868-1.175 1.181-2.553 1.487-4.102 1.314-.606-.068-1.223-.011-1.804-.011-.175.301-.135.538-.05.846h4.992c-.716.858-1.46 1.579-2.589 1.571-1.512-.011-3.024.005-4.535-.009-.294-.003-.574.013-.886-.138-1.008-.488-1.428-.751-1.006-2.209.314-1.085.405-2.248 1.29-3.035.59-.525 1.224-.994 1.822-1.508.252-.217.526-.12.786-.122 1.924-.012 3.848-.009 5.772-.006 1.047.001 1.269.244 1.297 1.405.004.219-.001.438-.001.837zm-3.112-.687c-2.754-.067-3.283.16-3.451 1.44 2.03.246 2.155.196 3.451-1.44z" fill="#a78352"/><path d="m344.959 54.163c.681-.725 1.338-1.401 1.965-2.106.229-.258.489-.22.754-.213 2.67.065 5.343-.137 8.012.1.57.051.813-.273 1.043-1.419-1.174 0-2.33-.081-3.472.021-1.325.119-2.223-.699-2.122-2.278.113-1.767.887-3.071 2.196-4.062.231-.175.517-.281.85-.278 2.74.022 5.48.012 8.393.012-.602.653-1.111 1.174-1.584 1.73-.25.294-.547.243-.848.244-1.1.003-2.2-.006-3.3.003-1.086.009-1.513.412-1.775 1.754 1.208 0 2.393.013 3.578-.004.8-.011 1.465.311 1.931.966s.362 1.493.24 2.209c-.235 1.378-.909 2.517-2.151 3.161-.298.155-.601.266-.959.264-4.159-.017-8.318-.011-12.477-.014-.056 0-.113-.036-.274-.09z" fill="#a78352"/><path d="m370.041 52.235c.93-.457 1.577-1.109 1.819-2.259.298-1.421.799-1.746 1.451-2.501.386-.448.901-.187 1.357-.236.333-.036.673-.007 1.027-.007-.146 1.583-.698 2.973-.853 4.454-.075.719-2.2 1.949-2.59 2.397-.17.195-.363.171-.562.171-3.673.001-7.346-.001-11.019-.007-.062 0-.125-.051-.232-.098.239-1.554.605-3.096.917-4.641.184-.91 1.096-1.436 1.719-2.094.361-.38.845-.137 1.272-.176.372-.034.748-.007 1.248-.007-.145 1.796-.712 3.444-1.042 5.101.15.153.202.018.28-.008 1.463-.479 1.589-1.832 1.789-3.122.163-1.049 1.14-1.969 2.149-1.971.652-.001 1.304 0 1.957.007.064.001.127.048.191.073-.282 1.593-.961 5.004-.878 4.924z" fill="#a78352"/><path d="m330.245 44.819c-.561.837-.964 1.571-1.489 2.189-.625.737-.724 1.631-.911 2.522-.326 1.55-.682 3.093-1.044 4.726-1.372 0-2.739 0-4.106 0-1.167 0-2.334.004-3.501-.001-1.396-.007-2.066-.794-1.848-2.259.097-.655.302-1.299.522-1.923.21-.595.303-.855.818-1.314.374-.334 0 0 1.395-1.039.874-.57.779-.513 1.282-.496.857.028 1.716-.006 2.574.013.497.011.86-.066 1.226-.609.852-1.264.547-.833.852-1.264.17-.24.346-.55.716-.548 1.117.007 2.235.003 3.514.003zm-5.555 4.076c-.604-.193-1.015-.125-1.419-.12-.681.008-1.488.396-1.73 1.362-.18.719-.495 1.645-.222 2.51 1.499.144 2.378-.08 2.949-1.556.227-.59.422-1.444.422-2.196z" fill="#a78352"/><path d="m306.207 51.322c-.131.576-.418.999-.866 1.31-.695.483-1.412.932-2.098 1.43-.282.204-.568.194-.871.194-1.65 0-3.304.076-4.949-.023-1.456-.087-2.044-.994-1.675-2.347.129-.473.228-.973.39-1.412.239-.648.45-1.294 1.12-1.778 1.196-.976.779-.678 1.196-.976.44-.314.889-.533 1.484-.511 1.751.065 3.505.022 5.259.023 1.319.001 1.906.799 1.512 2.156-.095.328-.423 1.586-.502 1.934zm-6.35 1.363c2.219-.001 2.99-1.582 2.939-3.854-2.097-.359-3.394.715-2.939 3.854z" fill="#a78352"/><path d="m384.888 53.817c-2.683 0-5.388.011-8.092-.008-.688-.005-1.437-1.021-1.511-1.88-.164-1.902.694-3.146 2.169-4.071.722-.453 1.444-.658 2.285-.642 2.33.045 4.662.016 7.017.016-.101.622-1.421 5.136-1.868 6.585zm-2.422-4.889c-.92-.255-1.688-.363-2.355.496-.301.387-.6.79-.829 1.207-.206.375-.375.895-.022 1.357.4.524.946.79 1.533.938.386.097.591-.125.701-.572.273-1.113.62-2.206.972-3.426z" fill="#a78352"/><path d="m307.384 47.908c.191-.523.371-.683.842-.681 2.44.011 4.88-.03 7.319.022.953.02 1.641.588 1.608 1.706-.041 1.381-.489 2.644-.763 3.956-.057.271-.005.573-.173.864-1.103 0-2.224 0-3.457 0 .17-1.014.276-1.993.52-2.931.094-.364.13-.706.125-1.059-.01-.679-.292-.984-.916-1.012-.477-.021-.956-.004-1.461-.004-.273 1.119-.513 2.211-.809 3.285-.352 1.278-1.286 1.98-2.541 1.983-1.791.003-1.753.012-1.359-1.834.131-.615.771-3.491 1.065-4.295z" fill="#a78352"/><path d="m438.41 215.973h-3.11l2.163-9.189h2.415c1.769 0 2.4.087 3.016.435.6.348.916.883.916 1.542 0 .945-.537 1.766-1.737 2.201 1.105.373 1.516.858 1.516 1.728-.001 1.829-1.816 3.283-5.179 3.283zm1.01-3.978h-1.026l-.553 2.337h1.074c1.8 0 2.463-.584 2.463-1.355 0-.696-.585-.982-1.958-.982zm.695-3.569h-.884l-.442 1.902h.695c1.626 0 2.115-.485 2.115-1.181 0-.473-.521-.721-1.484-.721z" fill="#c8c8c8"/><path d="m37.581 245.234 1.1-3.804-3.909.349-1.312-1.614 5.687-.446 1.629-5.5 1.312 1.614-1.17 3.779 3.978-.324 1.28 1.574-5.733.451-1.583 5.496z" fill="#c8c8c8"/><path d="m41.001 97.655-2.733 2.189-1.099-1.371 2.733-2.189 2.716-6.169 1.187 1.482-2.089 4.368 4.711-1.095 1.187 1.481z" fill="#c8c8c8"/><path d="m467.279 194.401-.591-2.565h-3.532l-1.571 2.565h-2.028l5.977-9.925h1.45l2.324 9.925zm-1.504-7.333-1.612 2.995h2.122z" fill="#c8c8c8"/><path d="m215.098 228.819c-.751-.758-.972-1.706-.436-2.376l.826.833c-.233.301-.172.621.18.977.341.344.738.424.967.197.13-.128.181-.318.128-.519-.054-.201-.087-.261-.493-.99-.412-.736-.423-1.36-.021-1.759.505-.501 1.462-.34 2.15.353.688.694.879 1.578.358 2.176l-.821-.828c.193-.238.152-.521-.114-.789-.26-.262-.573-.31-.763-.122-.117.116-.135.296-.053.526.032.084.039.1.331.619.625 1.114.581 1.631.149 2.06-.579.576-1.619.417-2.388-.358z" fill="#a78352"/><path d="m220.924 229.327-2.627 2.605-.792-.798 2.627-2.605-.792-.798.566-.561 2.375 2.395-.566.561z" fill="#a78352"/><path d="m222.23 235.9.369-1.279-1.52-1.533-1.299.34-.873-.88 4.973-1.371.624.629-1.402 4.973zm1.129-3.581-1.425.499.913.921z" fill="#a78352"/><path d="m225.446 239.143.102-2.343-1.223 1.213-.792-.798 3.193-3.166 1.231 1.241c.584.589.829.958.93 1.413.109.481-.011.913-.336 1.234-.497.493-1.194.49-2.105-.144l-.024 2.335zm1.859-3.38-.352-.355-.959.951.387.39c.613.618 1.02.734 1.357.4.284-.282.318-.628-.433-1.386z" fill="#a78352"/><path d="m230.799 239.287-2.627 2.605-.792-.798 2.627-2.605-.792-.798.566-.561 2.375 2.395-.566.561z" fill="#a78352"/><path d="m228.148 245.309-20.24-20.289.831-.829 21.09 21.119z" fill="#a78352"/><path d="m156.659 235.388h32.084v1.435h-32.084z" fill="#a78352" transform="matrix(.7062 .708 -.708 .7062 217.8865 -52.91)"/><path d="m167.738 228.656c-.655-.658-.754-1.576-.132-2.316l.72.723c-.272.331-.252.644.055.952.297.298.684.326.942.069.146-.145.222-.342.194-.536s-.054-.249-.367-.924c-.318-.68-.249-1.303.204-1.755.57-.568 1.507-.534 2.106.068s.678 1.46.08 2.127l-.715-.718c.223-.263.219-.54-.013-.773-.227-.228-.534-.234-.748-.02-.132.131-.173.314-.12.532.021.08.026.095.252.575.482 1.03.372 1.553-.115 2.039-.653.65-1.673.629-2.343-.043z" fill="#a78352"/><path d="m171.171 232.104c-1.093-1.097-1.136-2.787-.097-3.821 1.053-1.048 2.723-.999 3.831.114 1.063 1.067 1.08 2.752.052 3.776-1.053 1.047-2.703 1.018-3.786-.069zm3.08-3.078c-.715-.718-1.785-.74-2.482-.046-.682.68-.664 1.77.041 2.478s1.75.715 2.442.026.689-1.765-.001-2.458z" fill="#a78352"/><path d="m174.886 235.834c-.73-.733-.786-1.725.13-2.638l2.281-2.271.69.693-2.281 2.271c-.56.558-.524.955-.172 1.309.342.344.74.392 1.305-.171l2.281-2.271.69.693-2.281 2.271c-.921.917-1.908.852-2.643.114z" fill="#a78352"/><path d="m179.163 240.002 1.061-4.169-2.617 2.606-.69-.693 3.602-3.587.786.789-1.081 4.159 2.622-2.611.69.693-3.602 3.587z" fill="#a78352"/><path d="m182.911 243.366c-.448-.158-.839-.443-1.403-1.01l-.866-.87 3.602-3.587.851.855c.584.587.94 1.119 1.061 1.582.217.822-.057 1.678-.739 2.358-.726.724-1.658.977-2.506.672zm2.265-2.96c-.109-.324-.307-.601-.745-1.041l-.136-.137-2.325 2.315.151.152c.413.415.749.654 1.067.75.508.159 1.099-.017 1.533-.449.464-.46.632-1.061.455-1.59z" fill="#a78352"/></svg>