<svg enable-background="new 0 0 270.505 168.315" viewBox="0 0 270.505 168.315" xmlns="http://www.w3.org/2000/svg"><path d="m263.527 0h-256.568c-3.818 0-6.959 3.079-6.959 6.898v112.395c0 2.71 1.54 5.05 3.818 6.159.924.554 2.032.801 3.141.801h256.567c3.141 0 5.789-2.094 6.651-4.927.185-.616.308-1.355.308-2.032v-112.396c.001-3.819-3.078-6.898-6.958-6.898z" fill="#282827"/><path d="m265.682 156.49v-16.013h4.557l-.062-19.153c-.862 2.833-3.51 4.927-6.651 4.927h-256.567c-1.109 0-2.217-.246-3.141-.801v15.027h4.557v16.013s-6.159 1.047-4.557 6.035c1.601 5.05 4.557 5.789 4.557 5.789h257.307s2.956-.739 4.557-5.789c1.602-4.988-4.557-6.035-4.557-6.035z" fill="#30302f"/><path d="m261.864 29.438v83.511c0 3.203-2.649 5.851-5.851 5.851h-241.541c-3.264 0-5.85-2.648-5.85-5.851v-83.511c0-3.203 2.587-5.851 5.85-5.851h241.541c3.202.001 5.851 2.649 5.851 5.851z" fill="#42484c"/><path d="m195.844 11.886c0 3.88-3.203 7.083-7.082 7.083h-105.498c-3.88 0-7.021-3.203-7.021-7.083s3.141-7.021 7.021-7.021h105.497c3.88.001 7.083 3.141 7.083 7.021z" fill="#212120"/><path d="m12.625 131.609h248.869v8.745h-248.869z" fill="#919697"/><path d="m16.813 140.355v24.388h-4.188v-24.388zm4.003 0v24.388h4.249v-24.388zm8.191 0v24.388h4.003v-24.388zm8.191 0v24.388h3.757v-24.388zm7.76 0v24.388h4.188v-24.388zm8.191 0v24.388h3.942v-24.388zm8.191 0v24.388h4.249v-24.388zm8.191 0v24.388h4.249v-24.388zm8.252 0v24.388h3.942v-24.388zm15.89 0v24.388h4.249v-24.388zm8.19 0v24.388h4.003v-24.388zm20.693 0v24.388h3.941v-24.388zm7.945 0v24.388h4.249v-24.388zm7.944 0v24.388h4.003v-24.388zm8.253 0v24.388h3.942v-24.388zm7.945 0v24.388h4.188v-24.388zm8.437 0v24.388h4.003v-24.388zm8.252 0v24.388h3.942v-24.388zm7.945 0v24.388h4.188v-24.388zm7.945 0v24.388h3.941v-24.388zm8.19 0v24.388h4.003v-24.388zm7.945 0v24.388h4.249v-24.388zm8.622 0v24.388h4.003v-24.388zm8.191 0v24.388h4.003v-24.388zm7.945 0v24.388h4.249v-24.388zm8.006 0v24.388h3.941v-24.388zm8.191 0v24.388h4.003v-24.388zm7.945 0v24.388h4.249v-24.388zm-142.141 0v24.388h4.249v-24.388z" fill="#424443"/><path d="m20.816 140.355v24.388h-4.003v-24.388zm4.25 0v24.388h3.942v-24.388zm7.944 0v24.388h4.188v-24.388zm7.945 0v24.388h4.003v-24.388zm8.191 0v24.388h4.003v-24.388zm7.944 0v24.388h4.249v-24.388zm8.499 0v24.388h3.941v-24.388zm8.191 0v24.388h4.003v-24.388zm12.194 0v24.388h3.757v-24.388zm3.757 0v24.388h3.942v-24.388zm8.191 0v24.388h3.941v-24.388zm7.944 0v24.388h4.249v-24.388zm12.441 0v24.388h4.249v-24.388zm8.191 0v24.388h4.003v-24.388zm8.252 0v24.388h3.695v-24.388zm7.699 0v24.388h4.249v-24.388zm8.191 0v24.388h4.003v-24.388zm8.19 0v24.388h4.249v-24.388zm8.253 0v24.388h4.249v-24.388zm8.191 0v24.388h4.003v-24.388zm8.191 0v24.388h3.757v-24.388zm7.698 0v24.388h4.249v-24.388zm8.253 0v24.388h3.942v-24.388zm8.191 0v24.388h4.372v-24.388zm8.375 0v24.388h4.188v-24.388zm8.191 0v24.388h3.941v-24.388zm8.191 0v24.388h3.757v-24.388zm7.698 0v24.388h4.249v-24.388zm8.253 0v24.388h3.942v-24.388zm8.191 0v24.388h4.988v-24.388zm-174.781 0v24.388h4.249v-24.388zm32.64 0v24.388h3.942v-24.388z" fill="#3b4a45"/><path d="m39.278 28.708c.274.208.615.121.916.167 1.589.244 3.102.721 4.574 1.346 1.473.625 2.882 1.381 4.21 2.265.902.6 1.776 1.249 2.597 1.969.463.406.893.848 1.374 1.238.465.378.836.873 1.237 1.324.547.616 1.05 1.273 1.51 1.96.912 1.363 1.603 2.828 1.954 4.433.099.454.208.932.066 1.518-.064-.556-.102-1.014-.254-1.444-.276-.78-.695-1.485-1.189-2.146-.455-.608-.943-1.189-1.51-1.695-.754-.672-1.551-1.282-2.431-1.792-.862-.499-1.773-.859-2.726-1.111-.777-.206-1.574-.306-2.391-.224 0 .137.112.197.208.261.651.438 1.246.942 1.83 1.466.437.392.845.803 1.238 1.239.72.799 1.361 1.654 1.93 2.563.764 1.219 1.303 2.539 1.637 3.934.275 1.147.331 2.31.159 3.488-.183 1.258-.625 2.413-1.334 3.45-.683 1-1.584 1.773-2.653 2.376-1.071.604-2.209.999-3.394 1.263-.519.116-1.053.187-1.589.236-.768.071-1.535.147-2.305.166-.926.023-1.836-.126-2.752-.258-.926-.134-1.813-.386-2.69-.677-1.722-.571-3.339-1.368-4.899-2.296-1.011-.602-1.975-1.269-2.896-1.991-1.063-.834-2.061-1.754-2.959-2.765-1.178-1.326-2.248-2.737-2.982-4.371-.387-.861-.688-1.744-.835-2.686-.061-.389-.065-.763-.044-1.148.076.379.141.757.222 1.133.173.795.602 1.456 1.028 2.117.384.595.88 1.108 1.357 1.626.425.462.925.863 1.428 1.243.667.504 1.376.959 2.139 1.301 1.072.48 2.176.878 3.375.889.233.002.439.147.683.101.12-.022.247.002.315-.145-1.254-.83-2.366-1.835-3.372-2.946-.809-.893-1.49-1.889-2.109-2.93-.739-1.243-1.175-2.594-1.504-3.983-.154-.65-.119-1.323-.127-1.99-.022-1.749.562-3.312 1.559-4.697.891-1.238 2.123-2.085 3.546-2.673.833-.344 1.69-.597 2.559-.79.547-.121 1.113-.22 1.685-.227.109-.001.256.077.325-.09 1.094.003 2.189.003 3.284.003zm9.693 19.448c.386-.636.473-1.3.534-1.962.05-.54-.066-1.07-.181-1.597-.397-1.806-1.304-3.337-2.55-4.676-.433-.465-.884-.912-1.385-1.314-.681-.546-1.399-1.032-2.163-1.445-.965-.522-1.992-.899-3.068-1.109-.615-.12-1.252-.214-1.874-.19-.555.021-1.12.105-1.67.256-1.374.377-2.414 1.179-3.05 2.443-.549 1.092-.611 2.28-.373 3.459.211 1.045.616 2.04 1.187 2.943.716 1.135 1.556 2.166 2.614 3.02.68.549 1.382 1.055 2.143 1.476 1.703.941 3.511 1.493 5.479 1.399.54-.026 1.07-.125 1.572-.349-.159-.023-.315-.029-.47-.023-.925.035-1.78-.227-2.601-.622-1.382-.665-2.466-1.677-3.236-2.986-.592-1.006-.902-2.113-.595-3.298.165-.637.503-1.155 1.053-1.556.886-.645 1.896-.632 2.882-.524.805.088 1.579.401 2.294.822 1.035.61 1.925 1.38 2.572 2.395.62.974 1.041 2.019.865 3.216-.009.055.009.112.021.222z" fill="#e72835"/><g fill="#262223"><path d="m21.411 59.781c.328-.201.529-.612.987-.601.165.004.331.001.517.001-.226.942-.444 1.848-.665 2.764.511-.178.498-.191.661-.699.162-.506.297-1.018.424-1.533.055-.223.454-.534.681-.531.272.004.546-.023.823.019-.216.906-.429 1.799-.656 2.751.349-.201.601-.382.664-.761.072-.433.188-.858.283-1.287.068-.306.365-.422.533-.644.098-.13.241-.072.366-.077.201-.008.402-.002.611-.002-.221.884-.437 1.734-.645 2.586-.046.191-.027.158-.272.421-.297.255 0 0-.297.255-.192.165-.385.269-.657.266-1.341-.014-2.682-.007-4.022-.007 0-.072.65-2.912.664-2.921z"/><path d="m61.037 62.54c-.425 0-.863 0-1.311 0 .094-.347.187-.697.283-1.047.122-.446.017-.588-.439-.588-.107 0-.214 0-.344 0-.108.37-.209.743-.325 1.112-.13.413-.407.62-.828.61-.241-.006-.493.059-.727-.049.101-.488.589-1.951.651-2.175h1.98c.238 0 .477.01.714-.003.273-.015.477.102.655.29.001.239-.209 1.458-.309 1.85z"/><path d="m41.226 61.137c.303-.285.633-.432.933-.626.131-.085.275-.113.434-.111.562.008 1.125.007 1.688.001.183-.002.34.034.499.133.276.17.345.372.163.631-.109.155-.256.272-.447.326-.354.099-.7.11-1.047-.015.012-.064.015-.087.021-.109.04-.133.221-.245.068-.408-.076-.081-.397-.056-.538.004-.323.138-.417.427-.473.723-.06.318-.193.613-.241.931-.457 0-.897 0-1.342 0 .1-.474.197-.933.299-1.415-.179.063-.262.19-.361.284-.409.387-.889.487-1.429.43-.211-.022-.426-.004-.629-.004-.061.099-.047.176-.018.277h1.739c-.249.281-.508.517-.902.514-.527-.004-1.053.001-1.58-.003-.102-.001-.2.004-.309-.045-.351-.16-.498-.246-.351-.723.109-.355.141-.736.449-.993.206-.172.426-.325.635-.494.088-.071.183-.039.274-.04.67-.004 1.341-.003 2.011-.002.365 0 .442.08.452.46.004.071.002.143.002.274zm-1.084-.225c-.959-.022-1.144.052-1.202.471.707.081.751.064 1.202-.471z"/><path d="m43.307 62.671c.237-.237.466-.459.685-.689.08-.084.17-.072.263-.07.93.021 1.862-.045 2.791.033.199.017.283-.09.363-.465-.409 0-.812-.027-1.21.007-.462.039-.774-.229-.739-.746.039-.578.309-1.005.765-1.33.08-.057.18-.092.296-.091.955.007 1.909.004 2.924.004-.21.214-.387.384-.552.566-.087.096-.191.08-.295.08-.383.001-.766-.002-1.15.001-.378.003-.527.135-.619.574.421 0 .834.004 1.247-.001.279-.004.51.102.673.316.162.214.126.489.084.723-.082.451-.317.824-.749 1.035-.104.051-.209.087-.334.087-1.449-.005-2.898-.004-4.347-.005-.021.001-.04-.011-.096-.029z"/><path d="m52.045 62.04c.324-.15.55-.363.634-.74.104-.465.279-.572.505-.819.134-.147.314-.061.473-.077.116-.012.234-.002.358-.002-.051.518-.243.973-.297 1.458-.026.235-.766.638-.902.785-.059.064-.126.056-.196.056-1.28 0-2.559 0-3.839-.002-.022 0-.043-.017-.081-.032.083-.509.211-1.014.319-1.519.064-.298.382-.47.599-.685.126-.125.294-.045.443-.058.129-.011.261-.002.435-.002-.05.588-.248 1.127-.363 1.67.052.05.07.006.097-.002.51-.157.553-.6.623-1.022.057-.344.397-.645.749-.645.227 0 .454 0 .682.002.022 0 .044.016.066.024-.097.52-.334 1.636-.305 1.61z"/><path d="m38.18 59.612c-.195.274-.336.514-.519.717-.218.241-.252.534-.317.826-.113.508-.238 1.013-.364 1.547-.478 0-.954 0-1.431 0-.407 0-.813.001-1.22 0-.486-.002-.72-.26-.644-.739.034-.214.105-.425.182-.629.073-.195.106-.28.285-.43.13-.109 0 0 .486-.34.304-.187.271-.168.447-.162.299.009.598-.002.897.004.173.004.3-.022.427-.199.297-.414.191-.273.297-.414.059-.079.121-.18.249-.18.39.001.78-.001 1.225-.001zm-1.935 1.335c-.21-.063-.354-.041-.494-.039-.237.003-.518.13-.603.446-.063.235-.172.539-.077.822.522.047.829-.026 1.027-.509.079-.195.147-.474.147-.72z"/><path d="m29.806 61.741c-.046.188-.146.327-.302.429-.242.158-.492.305-.731.468-.098.067-.198.063-.303.063-.575 0-1.151.025-1.724-.007-.507-.029-.712-.325-.583-.768.045-.155.08-.319.136-.462.083-.212.157-.424.39-.582.417-.32.271-.222.417-.32.153-.103.31-.175.517-.167.61.021 1.221.007 1.832.008.46 0 .664.262.527.706-.034.107-.149.518-.176.632zm-2.212.446c.773 0 1.042-.518 1.024-1.262-.731-.117-1.183.235-1.024 1.262z"/><path d="m57.217 62.558c-.935 0-1.877.004-2.819-.003-.24-.002-.501-.334-.526-.615-.057-.623.242-1.03.756-1.333.252-.148.503-.215.796-.21.812.015 1.624.005 2.445.005-.036.204-.496 1.682-.652 2.156zm-.843-1.6c-.321-.083-.588-.119-.821.162-.105.127-.209.258-.289.395-.072.123-.131.293-.008.444.139.171.33.259.534.307.134.032.206-.041.244-.187.096-.364.217-.722.34-1.121z"/><path d="m30.216 60.624c.067-.171.129-.223.293-.223.85.004 1.7-.01 2.55.007.332.007.572.192.56.558-.014.452-.17.866-.266 1.295-.02.089-.002.187-.06.283-.384 0-.775 0-1.204 0 .059-.332.096-.652.181-.96.033-.119.045-.231.044-.347-.003-.222-.102-.322-.319-.331-.166-.007-.333-.001-.509-.001-.095.366-.179.724-.282 1.076-.123.418-.448.648-.885.649-.624.001-.611.004-.474-.6.045-.202.268-1.143.371-1.406z"/></g></svg>