<svg enable-background="new 0 0 481.186 93.812" viewBox="0 0 481.186 93.812" xmlns="http://www.w3.org/2000/svg"><path d="m54.472 0c.911.692 2.043.403 3.041.556 5.275.809 10.299 2.394 15.186 4.468 4.89 2.075 9.569 4.584 13.979 7.52 2.994 1.993 5.896 4.147 8.624 6.537 1.538 1.347 2.967 2.816 4.563 4.112 1.544 1.253 2.775 2.899 4.106 4.398 1.815 2.044 3.486 4.228 5.012 6.508 3.028 4.524 5.321 9.39 6.488 14.718.33 1.506.691 3.094.22 5.039-.212-1.845-.339-3.367-.844-4.794-.916-2.59-2.309-4.93-3.949-7.125-1.51-2.02-3.132-3.948-5.015-5.628-2.502-2.232-5.149-4.258-8.072-5.949-2.863-1.656-5.887-2.852-9.052-3.69-2.579-.683-5.225-1.015-7.94-.745.001.456.372.653.69.867 2.161 1.455 4.138 3.126 6.077 4.868 1.451 1.303 2.805 2.666 4.11 4.115 2.392 2.654 4.518 5.493 6.408 8.511 2.535 4.048 4.326 8.431 5.435 13.063.912 3.808 1.099 7.669.529 11.582-.608 4.176-2.077 8.011-4.43 11.454-2.269 3.32-5.261 5.888-8.808 7.89-3.557 2.007-7.333 3.317-11.269 4.193-1.723.384-3.495.619-5.277.784-2.549.236-5.097.489-7.653.553-3.073.076-6.097-.419-9.137-.858-3.074-.444-6.018-1.282-8.933-2.248-5.718-1.895-11.087-4.542-16.265-7.625-3.356-1.998-6.558-4.212-9.615-6.609-3.53-2.768-6.844-5.825-9.824-9.182-3.911-4.404-7.463-9.088-9.902-14.512-1.285-2.859-2.284-5.791-2.773-8.918-.202-1.291-.214-2.532-.146-3.812.254 1.257.467 2.514.738 3.763.573 2.64 1.998 4.834 3.414 7.03 1.274 1.975 2.923 3.677 4.505 5.398 1.411 1.534 3.072 2.865 4.742 4.128 2.214 1.675 4.569 3.183 7.103 4.319 3.56 1.595 7.225 2.915 11.206 2.953.775.007 1.459.488 2.267.336.397-.075.821.008 1.046-.48-4.163-2.757-7.855-6.092-11.196-9.781-2.686-2.967-4.949-6.272-7.004-9.728-2.454-4.129-3.9-8.611-4.995-13.225-.512-2.157-.394-4.394-.421-6.608-.072-5.806 1.868-10.998 5.176-15.596 2.958-4.111 7.05-6.924 11.772-8.875 2.766-1.143 5.61-1.981 8.498-2.622 1.818-.403 3.697-.732 5.594-.752.365-.007.852.252 1.082-.301zm32.182 64.573c1.282-2.112 1.571-4.315 1.774-6.515.165-1.791-.218-3.553-.602-5.301-1.318-5.996-4.328-11.081-8.466-15.525-1.436-1.542-2.936-3.029-4.598-4.362-2.261-1.814-4.646-3.426-7.183-4.798-3.204-1.732-6.616-2.985-10.187-3.682-2.043-.399-4.158-.71-6.223-.631-1.843.071-3.719.349-5.543.849-4.561 1.251-8.014 3.915-10.125 8.112-1.824 3.625-2.03 7.572-1.238 11.485.702 3.471 2.047 6.772 3.94 9.773 2.378 3.768 5.167 7.191 8.679 10.028 2.258 1.824 4.588 3.502 7.116 4.899 5.655 3.126 11.659 4.957 18.191 4.645 1.792-.086 3.554-.416 5.218-1.158-.527-.078-1.045-.095-1.561-.075-3.072.117-5.912-.754-8.635-2.064-4.587-2.207-8.189-5.568-10.745-9.914-1.966-3.342-2.993-7.015-1.977-10.951.546-2.115 1.67-3.835 3.497-5.166 2.941-2.143 6.295-2.099 9.57-1.741 2.673.292 5.244 1.331 7.616 2.728 3.438 2.024 6.392 4.583 8.538 7.954 2.06 3.235 3.456 6.703 2.872 10.678-.025.178.034.368.072.732z" fill="#e72835"/><g fill="#262223"><path d="m128.909 41.524c2.895-1.775 4.663-5.398 8.703-5.3 1.459.035 2.92.006 4.56.006-1.997 8.308-3.92 16.305-5.863 24.386 4.506-1.571 4.394-1.689 5.83-6.165 1.433-4.464 2.622-8.98 3.742-13.524.485-1.968 4.005-4.71 6.003-4.683 2.403.032 4.819-.203 7.256.166-1.906 7.992-3.786 15.873-5.788 24.263 3.078-1.773 5.302-3.373 5.859-6.713.636-3.816 1.657-7.567 2.498-11.349.6-2.699 3.216-3.721 4.699-5.685.864-1.144 2.128-.634 3.228-.677 1.769-.069 3.543-.018 5.391-.018-1.951 7.796-3.859 15.294-5.685 22.812-.41 1.685-.241 1.394-2.397 3.711-2.618 2.247 0 0-2.618 2.247-1.691 1.452-3.392 2.374-5.798 2.348-11.826-.127-23.655-.058-35.482-.058-.001-.636 5.737-25.691 5.862-25.767z"/><path d="m478.457 65.865c-3.75 0-7.616 0-11.561 0 .825-3.058 1.648-6.149 2.494-9.232 1.08-3.933.153-5.184-3.873-5.19-.946-.001-1.891 0-3.031 0-.948 3.262-1.846 6.554-2.867 9.806-1.144 3.643-3.592 5.473-7.308 5.377-2.127-.055-4.352.521-6.416-.43.887-4.308 5.197-17.213 5.744-19.19h17.465c2.101 0 4.206.092 6.3-.024 2.407-.133 4.212.898 5.78 2.56.002 2.111-1.852 12.861-2.727 16.323z"/><path d="m303.701 53.482c2.671-2.513 5.583-3.815 8.233-5.524 1.159-.748 2.426-.999 3.833-.98 4.962.069 9.925.065 14.887.005 1.61-.019 2.998.302 4.401 1.169 2.43 1.502 3.044 3.279 1.44 5.562-.961 1.369-2.257 2.401-3.947 2.875-3.12.875-6.178.969-9.233-.136.11-.563.132-.766.189-.959.35-1.177 1.946-2.164.598-3.595-.671-.713-3.505-.491-4.742.038-2.845 1.217-3.681 3.769-4.176 6.375-.533 2.808-1.702 5.407-2.127 8.216-4.035 0-7.912 0-11.841 0 .882-4.181 1.736-8.23 2.633-12.48-1.58.559-2.308 1.68-3.182 2.506-3.61 3.409-7.845 4.295-12.607 3.795-1.861-.196-3.76-.032-5.544-.032-.537.869-.416 1.553-.155 2.444h15.343c-2.199 2.479-4.485 4.561-7.957 4.536-4.646-.032-9.292.013-13.938-.026-.904-.008-1.764.038-2.723-.398-3.098-1.409-4.39-2.17-3.092-6.378.966-3.132 1.244-6.491 3.964-8.763 1.814-1.515 3.761-2.87 5.6-4.355.776-.626 1.615-.347 2.415-.352 5.913-.035 11.826-.025 17.739-.017 3.218.004 3.899.705 3.986 4.058.017.63.003 1.263.003 2.416zm-9.563-1.985c-8.463-.194-10.088.462-10.606 4.159 6.238.71 6.62.567 10.606-4.159z"/><path d="m322.051 67.02c2.093-2.095 4.111-4.046 6.039-6.081.704-.744 1.502-.634 2.318-.615 8.207.187 16.422-.395 24.624.288 1.753.146 2.498-.79 3.205-4.098-3.607 0-7.161-.234-10.67.061-4.073.343-6.831-2.018-6.52-6.578.348-5.102 2.726-8.867 6.748-11.731.709-.505 1.588-.812 2.612-.804 8.42.063 16.841.035 25.793.035-1.85 1.884-3.414 3.39-4.869 4.996-.77.85-1.682.703-2.605.705-3.38.009-6.761-.017-10.141.009-3.338.026-4.651 1.189-5.456 5.065 3.712 0 7.355.036 10.996-.013 2.459-.033 4.501.899 5.934 2.79 1.432 1.891 1.113 4.313.739 6.378-.721 3.981-2.792 7.267-6.611 9.127-.917.447-1.847.768-2.948.764-12.781-.048-25.563-.032-38.344-.04-.175 0-.349-.103-.844-.258z"/><path d="m399.135 61.453c2.857-1.321 4.848-3.201 5.59-6.525.916-4.103 2.457-5.042 4.458-7.223 1.186-1.293 2.77-.539 4.172-.68 1.024-.103 2.067-.02 3.156-.02-.447 4.572-2.144 8.586-2.621 12.862-.232 2.077-6.76 5.628-7.96 6.922-.523.564-1.115.495-1.726.495-11.288.002-22.576-.004-33.864-.019-.191 0-.383-.147-.714-.283.735-4.489 1.859-8.941 2.817-13.402.564-2.627 3.367-4.146 5.284-6.046 1.108-1.099 2.597-.396 3.909-.508 1.142-.098 2.299-.02 3.835-.02-.445 5.187-2.187 9.945-3.202 14.731.462.442.621.051.859-.022 4.496-1.383 4.883-5.291 5.499-9.016.501-3.031 3.505-5.686 6.604-5.691 2.004-.004 4.009 0 6.013.02.196.002.391.137.586.212-.865 4.593-2.95 14.442-2.695 14.213z"/><path d="m276.831 40.036c-1.723 2.417-2.964 4.537-4.576 6.322-1.921 2.127-2.224 4.71-2.799 7.283-1.001 4.477-2.095 8.933-3.21 13.648-4.215 0-8.417 0-12.619 0-3.587 0-7.174.013-10.761-.003-4.29-.019-6.348-2.293-5.68-6.523.299-1.89.928-3.752 1.603-5.553.644-1.719.933-2.468 2.514-3.795 1.149-.964 0 0 4.287-3.001 2.686-1.647 2.394-1.48 3.941-1.432 2.635.082 5.275-.017 7.911.038 1.527.032 2.644-.191 3.768-1.758 2.618-3.649 1.682-2.404 2.618-3.649.521-.693 1.064-1.589 2.2-1.584 3.437.018 6.872.007 10.803.007zm-17.072 11.771c-1.855-.557-3.12-.36-4.361-.346-2.094.025-4.573 1.143-5.318 3.933-.555 2.076-1.521 4.751-.684 7.249 4.605.415 7.309-.232 9.062-4.492.702-1.707 1.301-4.174 1.301-6.344z"/><path d="m202.956 58.814c-.402 1.663-1.286 2.886-2.661 3.784-2.137 1.395-4.34 2.692-6.448 4.13-.865.59-1.747.56-2.676.56-5.071 0-10.154.219-15.209-.066-4.475-.252-6.28-2.87-5.146-6.778.396-1.366.702-2.811 1.199-4.078.734-1.87 1.384-3.736 3.442-5.133 3.677-2.819 2.394-1.959 3.677-2.819 1.352-.906 2.734-1.539 4.559-1.476 5.381.187 10.773.064 16.161.067 4.054.002 5.857 2.307 4.646 6.226-.293.948-1.301 4.581-1.544 5.583zm-19.514 3.937c6.82-.003 9.19-4.567 9.031-11.13-6.442-1.036-10.429 2.065-9.031 11.13z"/><path d="m444.761 66.021c-8.245 0-16.557.032-24.869-.022-2.114-.014-4.416-2.949-4.644-5.428-.504-5.492 2.133-9.085 6.666-11.757 2.219-1.308 4.437-1.901 7.024-1.854 7.161.13 14.326.045 21.566.045-.311 1.796-4.369 14.83-5.743 19.016zm-7.443-14.119c-2.828-.735-5.187-1.048-7.239 1.433-.925 1.118-1.845 2.28-2.547 3.485-.632 1.084-1.153 2.584-.068 3.92 1.229 1.513 2.908 2.281 4.712 2.708 1.186.281 1.815-.362 2.153-1.652.841-3.215 1.908-6.372 2.989-9.894z"/><path d="m206.574 48.956c.588-1.51 1.14-1.972 2.589-1.966 7.498.031 14.999-.086 22.494.065 2.927.059 5.044 1.697 4.943 4.927-.125 3.989-1.503 7.637-2.346 11.424-.174.784-.015 1.654-.532 2.495-3.39 0-6.835 0-10.625 0 .522-2.927.849-5.754 1.597-8.465.29-1.051.399-2.04.384-3.059-.03-1.962-.896-2.842-2.815-2.922-1.466-.061-2.937-.012-4.491-.012-.84 3.231-1.576 6.385-2.487 9.487-1.083 3.69-3.951 5.719-7.808 5.725-5.504.009-5.389.035-4.178-5.295.405-1.776 2.371-10.081 3.275-12.404z"/></g></svg>