<svg xmlns="http://www.w3.org/2000/svg" viewBox="0 0 284.34 226.152"><path d="M203.465 136.5H14.987l22.942-30.983a.865.865 0 0 1 .695-.35h141.204c.274 0 .532.13.695.35l22.942 30.983z" fill="#b9ac90"/><path d="M203.934 176.667H14.518a.854.854 0 0 1-.854-.854V139.5h191.124v36.313a.854.854 0 0 1-.854.854z" fill="#caba95"/><path fill="#c9b285" d="M204.788 139.5l-1.323-3H14.987l-1.323 3z"/><path d="M203.091 140.62l-.365 5.105c0 .002-.002.003-.004.003H15.73c-.002 0-.003-.001-.004-.003l-.365-5.105a.132.132 0 0 1 .132-.141h187.466c.077 0 .137.065.132.141z" fill="#e4d3ae"/><path fill="#41372b" d="M192.755 140.479l1.03 5.25h-50.567l-.338-5.25z"/><path fill="#b6a781" d="M15.727 145.729h186.999V172H15.727z"/><path d="M202.726 172l.341 2.176a.136.136 0 0 1-.134.157H15.498a.136.136 0 0 1-.134-.157l.34-2.176h187.022z" fill="#928878"/><g fill="#968464"><path d="M15.727 145.729V172l-.364 2.176-.002-33.559.001.003zM203.066 174.176l-.34-2.176v-26.271h-.004l.369-5.109v33.556"/></g><path d="M53.43 153.261H25.711a.297.297 0 0 1-.297-.297v-3.656c0-.164.133-.297.297-.297H53.43c.164 0 .297.133.297.297v3.656a.297.297 0 0 1-.297.297z" fill="#2b2413"/><g fill="#908f8a"><path d="M35.4 149.535h.269v3.202H35.4zM30.143 149.744h1.891l-.125.718s-.056-.389-.288-.542c-.058-.027-.206-.025-.577-.025l-.145.857c.296.07.624-.381.624-.381l-.189.996s-.116-.451-.478-.436l-.161.886c.528 0 .518-.004.645-.082.123-.075.41-.445.421-.497l-.117.742h-1.911c.014-.099.2-.109.284-.166l.156-.862c-.013-.077-.164-.011-.194-.077.026-.071.178-.024.222-.076l.159-.874c-.03-.065-.217-.097-.217-.181zM33.71 149.677c.083.172.15.36.211.555-.116.045-.276.118-.276.118l-.304-.423c-.317-.025-.745.447-.778.742-.038.349.179.694.519.723.354.031.779-.269.779-.269l-.39.858c-.803.286-1.398-.239-1.428-.858-.047-.944.808-1.465 1.667-1.446z"/><path d="M29.316 150.916l.275-1.281.523.321-.418.246-.379 1.846-1.222-1.375-.167.851.297.245-.625.278.303-1.438c.033-.217-.117-.292-.249-.337l.535-.617 1.127 1.261z"/><g><path d="M36.4 151.005v-1.303h.492a.963.963 0 0 1 .287.042c.068.024.12.067.159.129a.414.414 0 0 1 .058.225.377.377 0 0 1-.099.267.384.384 0 0 1-.294.13h-.306v.51H36.4zm.297-1.126v.427h.15a.365.365 0 0 0 .168-.027c.065-.037.098-.098.098-.183 0-.074-.021-.129-.062-.164-.041-.035-.108-.052-.201-.052h-.153zM38.222 150.596h-.618v.037c0 .075.017.134.051.178a.167.167 0 0 0 .141.065c.087 0 .14-.053.161-.161h.249c-.035.209-.177.313-.427.313-.146 0-.257-.041-.333-.123-.077-.083-.115-.202-.115-.36 0-.15.04-.267.119-.35a.445.445 0 0 1 .336-.125c.143 0 .252.041.325.122.073.081.11.202.11.363v.041zm-.434-.375a.163.163 0 0 0-.135.064.293.293 0 0 0-.05.181h.363c.001-.163-.058-.245-.178-.245zM38.327 151.005v-.906h.268v.118a.353.353 0 0 1 .102-.105.233.233 0 0 1 .124-.031c.023 0 .051.004.083.013v.217a.522.522 0 0 0-.101-.009c-.073 0-.127.017-.159.051-.033.034-.049.09-.049.17v.483h-.268z"/><path d="M38.86 150.712h.267v.021a.14.14 0 0 0 .043.102c.028.03.063.044.105.044.038 0 .07-.013.096-.038s.04-.055.04-.089a.09.09 0 0 0-.034-.072.308.308 0 0 0-.116-.047l-.101-.025-.094-.023a.268.268 0 0 1-.136-.08.204.204 0 0 1-.05-.138.26.26 0 0 1 .108-.22.48.48 0 0 1 .294-.081c.119 0 .213.026.28.077a.256.256 0 0 1 .101.216h-.26c0-.097-.044-.144-.132-.144a.13.13 0 0 0-.091.031.101.101 0 0 0-.035.08c0 .052.049.088.148.108l.096.021.101.025c.13.04.195.12.195.24a.263.263 0 0 1-.107.227.504.504 0 0 1-.305.079c-.275 0-.412-.103-.412-.309v-.005zM39.73 150.545c0-.146.044-.263.134-.351.089-.088.208-.132.358-.132s.268.044.357.131a.472.472 0 0 1 .133.352.468.468 0 0 1-.134.351.485.485 0 0 1-.356.132.487.487 0 0 1-.358-.131.464.464 0 0 1-.134-.352zm.491-.326c-.139 0-.208.109-.208.325 0 .216.069.324.208.324.136 0 .204-.108.204-.324 0-.217-.068-.325-.204-.325zM40.814 151.005v-.906h.268v.143a.36.36 0 0 1 .125-.131.327.327 0 0 1 .168-.04c.092 0 .164.025.219.074.054.05.081.117.081.203V151.006h-.267v-.552a.394.394 0 0 0-.014-.121.116.116 0 0 0-.05-.065.141.141 0 0 0-.082-.027c-.119 0-.179.091-.179.273v.493h-.269zM42.35 150.441v-.099c0-.041-.011-.073-.034-.095-.022-.023-.054-.034-.094-.034a.161.161 0 0 0-.11.035.127.127 0 0 0-.039.099h-.257c0-.184.131-.277.394-.277a.87.87 0 0 1 .173.016.279.279 0 0 1 .193.139.348.348 0 0 1 .024.146v.538l.007.096h-.275v-.112a.313.313 0 0 1-.252.132c-.095 0-.17-.025-.225-.076s-.083-.12-.083-.207c0-.051.013-.098.038-.141a.258.258 0 0 1 .103-.099.557.557 0 0 1 .268-.062H42.35zm0 .191v-.063l-.061-.002c-.172 0-.259.055-.259.166 0 .039.013.07.038.094a.14.14 0 0 0 .101.036c.121.001.181-.076.181-.231zM42.739 151.005v-1.303h.268v1.303h-.268zM44.694 150.112h-.284a.2.2 0 0 0-.21-.208.26.26 0 0 0-.23.126.655.655 0 0 0-.081.355c0 .139.025.245.076.32s.123.112.217.112a.24.24 0 0 0 .173-.06c.042-.04.062-.097.062-.171h.284c0 .041-.002.07-.005.086a.424.424 0 0 1-.024.073.417.417 0 0 1-.053.11.34.34 0 0 1-.077.079.46.46 0 0 1-.157.071.798.798 0 0 1-.206.027.571.571 0 0 1-.442-.173c-.105-.115-.158-.276-.158-.483 0-.218.054-.39.164-.514a.57.57 0 0 1 .453-.187.55.55 0 0 1 .366.113c.088.075.132.183.132.324zM44.748 150.545c0-.146.044-.263.134-.351.089-.088.208-.132.358-.132s.268.044.357.131a.472.472 0 0 1 .133.352.468.468 0 0 1-.134.351.485.485 0 0 1-.356.132.487.487 0 0 1-.358-.131.468.468 0 0 1-.134-.352zm.492-.326c-.139 0-.208.109-.208.325 0 .216.069.324.208.324.136 0 .204-.108.204-.324 0-.217-.068-.325-.204-.325zM45.833 151.005v-.906h.267v.137a.427.427 0 0 1 .127-.122.298.298 0 0 1 .153-.039c.071 0 .131.016.181.047.05.031.084.078.103.139a.314.314 0 0 1 .302-.186c.078 0 .144.019.197.056a.23.23 0 0 1 .08.102.423.423 0 0 1 .025.16v.612H47V150.419c0-.111-.048-.166-.145-.166a.146.146 0 0 0-.124.06.274.274 0 0 0-.044.167v.525h-.267v-.54a.521.521 0 0 0-.004-.078c-.003-.018-.008-.037-.016-.057s-.025-.038-.051-.053-.052-.024-.081-.024a.142.142 0 0 0-.124.064.307.307 0 0 0-.044.178v.51h-.267zM47.42 151.359v-1.26h.264v.134c.058-.1.151-.15.278-.15.119 0 .213.044.284.131.07.087.105.204.105.353a.516.516 0 0 1-.102.339.342.342 0 0 1-.278.123.333.333 0 0 1-.287-.161v.492h-.264zm.456-1.124c-.128 0-.192.106-.192.317 0 .102.017.181.052.235a.173.173 0 0 0 .154.081.16.16 0 0 0 .14-.081.406.406 0 0 0 .052-.221.452.452 0 0 0-.055-.242.168.168 0 0 0-.151-.089zM49.048 150.862a.322.322 0 0 1-.29.17.335.335 0 0 1-.213-.067.21.21 0 0 1-.069-.102.52.52 0 0 1-.023-.167v-.597h.268v.551c0 .047.004.086.013.116.009.03.026.053.05.071a.143.143 0 0 0 .084.025c.12 0 .18-.09.18-.27v-.493h.268v.906h-.268v-.143zM49.35 150.278v-.179h.144v-.175l.268-.098v.273h.204v.179h-.204v.421c0 .051.009.086.027.105.018.019.051.029.099.029a.648.648 0 0 0 .083-.007v.175a.78.78 0 0 1-.177.02c-.159 0-.253-.044-.28-.134a.56.56 0 0 1-.02-.173v-.436h-.144z"/><path d="M50.859 150.596h-.618v.037c0 .075.017.134.051.178a.167.167 0 0 0 .141.065c.087 0 .14-.053.161-.161h.249c-.035.209-.177.313-.427.313-.146 0-.257-.041-.333-.123-.077-.083-.115-.202-.115-.36 0-.15.04-.267.119-.35a.445.445 0 0 1 .336-.125c.143 0 .252.041.325.122.073.081.11.202.11.363v.041zm-.434-.375a.163.163 0 0 0-.135.064.293.293 0 0 0-.05.181h.363c.001-.163-.058-.245-.178-.245zM50.964 151.005v-.906h.268v.118a.353.353 0 0 1 .102-.105.233.233 0 0 1 .124-.031c.023 0 .051.004.083.013v.217a.522.522 0 0 0-.101-.009c-.073 0-.127.017-.159.051-.033.034-.049.09-.049.17v.483h-.268z"/></g><g><path d="M36.4 152.259v-.941h.413c.046 0 .09.003.131.008a.736.736 0 0 1 .11.022.25.25 0 0 1 .133.094.27.27 0 0 1 .048.162.253.253 0 0 1-.083.193.346.346 0 0 1-.247.094h-.257v.368H36.4zm.249-.813v.308h.126a.353.353 0 0 0 .141-.019.137.137 0 0 0 .082-.132c0-.054-.017-.094-.051-.119-.034-.025-.091-.038-.169-.038h-.129zM38.183 151.614h-.238a.133.133 0 0 0-.05-.108.188.188 0 0 0-.126-.042.224.224 0 0 0-.192.091.416.416 0 0 0-.068.257c0 .1.021.177.064.231a.217.217 0 0 0 .182.081.22.22 0 0 0 .145-.044.15.15 0 0 0 .052-.123h.238c0 .03-.001.05-.004.062a.319.319 0 0 1-.02.053.28.28 0 0 1-.11.138.395.395 0 0 1-.132.051.772.772 0 0 1-.173.02.52.52 0 0 1-.371-.125.454.454 0 0 1-.133-.349c0-.158.046-.281.137-.372a.52.52 0 0 1 .38-.135c.13 0 .233.027.307.081a.27.27 0 0 1 .112.233zM38.323 151.859v-.138h.212v.138h-.212zM38.911 151.773l-.056-.023c-.087-.044-.13-.108-.13-.192 0-.081.035-.144.106-.19a.537.537 0 0 1 .294-.069.54.54 0 0 1 .293.069c.072.046.108.11.108.191 0 .05-.015.092-.044.126a.356.356 0 0 1-.144.089l.053.018c.035.016.061.03.077.043a.26.26 0 0 1 .061.079.226.226 0 0 1 .024.1c0 .082-.039.147-.118.195a.597.597 0 0 1-.313.073.58.58 0 0 1-.309-.074c-.078-.049-.118-.114-.118-.194 0-.033.008-.066.024-.099a.212.212 0 0 1 .064-.08.362.362 0 0 1 .128-.062zm.214.056a.226.226 0 0 0-.147.045.146.146 0 0 0-.056.119c0 .046.019.085.056.115.038.031.086.046.146.046s.109-.015.146-.044a.142.142 0 0 0 .056-.115.146.146 0 0 0-.056-.119.211.211 0 0 0-.145-.047zm0-.409a.207.207 0 0 0-.124.035.135.135 0 0 0-.056.095v.016c0 .042.017.076.051.104a.2.2 0 0 0 .131.042c.05 0 .092-.014.126-.043a.132.132 0 0 0 .051-.104.126.126 0 0 0-.049-.105.2.2 0 0 0-.13-.04zM39.856 151.773l-.056-.023c-.087-.044-.13-.108-.13-.192 0-.081.035-.144.106-.19a.537.537 0 0 1 .294-.069.54.54 0 0 1 .293.069c.072.046.108.11.108.191 0 .05-.015.092-.044.126a.356.356 0 0 1-.144.089l.053.018c.035.016.061.03.077.043a.26.26 0 0 1 .061.079.226.226 0 0 1 .024.1c0 .082-.039.147-.118.195a.597.597 0 0 1-.313.073.58.58 0 0 1-.309-.074c-.078-.049-.118-.114-.118-.194 0-.033.008-.066.024-.099a.212.212 0 0 1 .064-.08.362.362 0 0 1 .128-.062zm.215.056a.226.226 0 0 0-.147.045.146.146 0 0 0-.056.119c0 .046.019.085.056.115a.222.222 0 0 0 .146.046.23.23 0 0 0 .146-.044.142.142 0 0 0 .056-.115.146.146 0 0 0-.056-.119.214.214 0 0 0-.145-.047zm-.001-.409c-.051 0-.092.012-.124.035s-.051.055-.056.095v.016c0 .042.017.076.051.104a.2.2 0 0 0 .131.042c.05 0 .092-.014.126-.043a.132.132 0 0 0 .051-.104.126.126 0 0 0-.049-.105.2.2 0 0 0-.13-.04zM40.564 151.788c0-.157.039-.278.118-.364a.429.429 0 0 1 .332-.129c.143 0 .253.043.332.129.079.086.118.207.118.364a.521.521 0 0 1-.118.364.426.426 0 0 1-.332.131c-.143 0-.253-.043-.332-.129s-.118-.208-.118-.366zm.454-.351c-.068 0-.121.031-.161.094a.488.488 0 0 0-.059.258c0 .106.019.191.058.255.038.064.09.096.155.096a.183.183 0 0 0 .161-.093.479.479 0 0 0 .059-.255.519.519 0 0 0-.056-.261c-.038-.063-.09-.094-.157-.094zM41.514 151.622v-.162a.68.68 0 0 0 .246-.142h.197v.941h-.235v-.738a.826.826 0 0 1-.208.101z"/></g></g><g fill="#8c8164"><path d="M33.117 175.997v-.938h.383a.71.71 0 0 1 .175.015c.111.029.167.104.167.226 0 .118-.062.19-.186.217.095.014.148.07.16.17l.014.139.006.066.005.047.013.057h-.213a1.6 1.6 0 0 1-.02-.119l-.013-.139a.151.151 0 0 0-.008-.051.156.156 0 0 0-.02-.043c-.017-.029-.06-.044-.128-.044h-.125v.398h-.21zm.211-.809v.278h.137c.117 0 .175-.045.175-.135 0-.072-.03-.116-.089-.133a.326.326 0 0 0-.095-.01h-.128zM33.968 175.997v-.938h.631v.142h-.417v.243h.396v.145h-.396v.267h.428v.142h-.642zM34.678 175.709h.206v.027c0 .043.016.079.046.106a.18.18 0 0 0 .123.041.19.19 0 0 0 .12-.036.119.119 0 0 0 .045-.097c0-.06-.033-.101-.099-.122l-.062-.02-.08-.026-.1-.035a.506.506 0 0 1-.093-.045c-.058-.039-.086-.1-.086-.184 0-.089.03-.158.092-.207a.415.415 0 0 1 .262-.073c.102 0 .183.018.243.053a.239.239 0 0 1 .114.146.28.28 0 0 1 .007.07h-.204a.127.127 0 0 0-.043-.102.177.177 0 0 0-.118-.036.164.164 0 0 0-.109.035.12.12 0 0 0-.042.094c0 .037.015.068.045.092a.364.364 0 0 0 .109.049l.088.026.092.03c.128.04.192.119.192.238 0 .186-.123.279-.369.279-.254 0-.381-.097-.381-.292v-.011zM35.544 175.997v-.938h.631v.142h-.417v.243h.396v.145h-.396v.267h.428v.142h-.642zM36.209 175.209v-.15h.757v.15h-.271v.788h-.215v-.788h-.271z"/></g><g fill="#8c8164"><path d="M182.496 175.991v-.938h.214v.938h-.214zm.216-.504l.3-.433h.231l-.327.425.368.512h-.237l-.335-.504zM183.343 175.991v-.938h.631v.142h-.418v.243h.396v.145h-.396v.267h.428v.142h-.641zM183.989 175.054h.229l.236.431.229-.431h.208l-.334.602v.335h-.217v-.337l-.351-.6zM184.938 175.991v-.938h.396a.62.62 0 0 1 .16.017c.051.015.091.042.121.081s.046.085.046.139c0 .056-.016.103-.047.142s-.074.064-.129.076c.062.008.11.033.148.074a.22.22 0 0 1 .056.152.24.24 0 0 1-.063.17.274.274 0 0 1-.169.082c-.03.003-.076.005-.138.005h-.381zm.214-.811v.273h.145c.051 0 .091-.012.119-.037a.13.13 0 0 0 .043-.103c0-.057-.022-.097-.066-.12a.102.102 0 0 0-.042-.013l-.054-.001h-.145zm0 .393v.292H185.323a.165.165 0 0 0 .117-.04.14.14 0 0 0 .043-.105.133.133 0 0 0-.049-.109.223.223 0 0 0-.141-.039h-.141zM185.763 175.526c0-.134.032-.244.097-.328.082-.106.202-.159.36-.159s.278.053.361.159a.528.528 0 0 1 .098.328.52.52 0 0 1-.098.326c-.079.106-.2.16-.361.16-.081 0-.151-.013-.209-.039s-.107-.066-.151-.122a.51.51 0 0 1-.097-.325zm.457-.342a.199.199 0 0 0-.173.088.44.44 0 0 0-.062.253c0 .109.021.193.062.252a.199.199 0 0 0 .173.088c.075 0 .133-.029.173-.087s.06-.143.06-.253c0-.109-.02-.193-.06-.253s-.098-.088-.173-.088zM186.678 175.991l.33-.938h.275l.33.938h-.209l-.071-.208h-.389l-.073.208h-.193zm.463-.778l-.154.434h.304l-.15-.434zM187.674 175.991v-.938h.384c.082 0 .14.005.176.015.11.029.166.104.166.226 0 .118-.062.19-.186.217.095.014.147.07.16.17l.014.139.007.066.005.047.014.057h-.214a1.6 1.6 0 0 1-.02-.119l-.013-.139a.18.18 0 0 0-.028-.094c-.018-.029-.061-.044-.128-.044h-.126v.398h-.211zm.212-.808v.278h.137c.117 0 .176-.045.176-.135 0-.072-.03-.116-.09-.133a.326.326 0 0 0-.095-.01h-.128zM188.526 175.991v-.938h.349c.074 0 .133.005.178.015a.427.427 0 0 1 .131.052c.06.036.105.088.138.157.033.069.049.15.049.242 0 .1-.018.186-.053.258a.362.362 0 0 1-.156.163c-.038.02-.076.034-.115.041s-.099.01-.177.01h-.344zm.214-.81v.683h.129c.094 0 .164-.028.209-.083.045-.056.067-.142.067-.26 0-.137-.033-.233-.099-.289-.023-.018-.048-.031-.073-.039s-.059-.012-.1-.012h-.133z"/></g><path fill="#342b22" d="M193.785 145.729l-.871 28.604h-50.481l.785-28.604z"/><path fill="#39312b" d="M180.26 174.333h-37.827V172h37.95z"/><path fill="#27231a" stroke="#3c322a" stroke-width=".25" stroke-miterlimit="10" d="M191.397 174.26l-11.132-.016.537-10.244h11.133z"/><path fill="#41372b" stroke="#3c322a" stroke-width=".25" stroke-miterlimit="10" d="M192.208 158.771h-11.133l-.274 5.229h11.133zM192.404 155.135h-11.133l-.191 3.636h11.133z"/><g fill="#d2cbc8"><path d="M184.788 157.636v-.938h.396a.62.62 0 0 1 .16.017c.051.015.091.042.121.081s.046.085.046.139c0 .056-.016.103-.047.142s-.074.064-.129.076c.062.008.11.033.148.074a.22.22 0 0 1 .056.152.24.24 0 0 1-.063.17.274.274 0 0 1-.169.082c-.03.003-.076.005-.138.005h-.381zm.214-.811v.273h.145c.051 0 .091-.012.119-.037a.13.13 0 0 0 .043-.103c0-.057-.022-.097-.066-.12a.102.102 0 0 0-.042-.013l-.054-.001h-.145zm0 .392v.292H185.173a.165.165 0 0 0 .117-.04.14.14 0 0 0 .043-.105.133.133 0 0 0-.049-.109.223.223 0 0 0-.141-.039h-.141zM185.551 157.636l.33-.938h.275l.33.938h-.209l-.071-.208h-.389l-.073.208h-.193zm.463-.779l-.154.434h.304l-.15-.434zM186.506 157.349h.205v.027c0 .043.016.079.047.106.031.027.072.041.122.041s.089-.012.12-.036a.119.119 0 0 0 .045-.097c0-.06-.033-.101-.099-.122l-.063-.02-.079-.026-.101-.035a.506.506 0 0 1-.093-.045c-.058-.039-.086-.1-.086-.184 0-.089.03-.158.092-.207a.413.413 0 0 1 .262-.073c.102 0 .183.018.243.053a.246.246 0 0 1 .114.146.275.275 0 0 1 .008.07h-.204a.13.13 0 0 0-.043-.102.177.177 0 0 0-.118-.036c-.045 0-.082.012-.109.035s-.042.055-.042.094c0 .037.016.068.046.092a.353.353 0 0 0 .109.049l.088.026.093.03c.128.04.192.119.192.238 0 .186-.123.279-.369.279-.254 0-.381-.097-.381-.292v-.011zM187.371 157.636v-.938h.215v.938h-.215zM188.508 156.994h-.204a.147.147 0 0 0-.043-.108.148.148 0 0 0-.108-.042c-.07 0-.126.03-.165.09a.467.467 0 0 0-.059.255c0 .1.019.176.055.23s.089.081.156.081a.174.174 0 0 0 .124-.043.163.163 0 0 0 .045-.123h.204c0 .03-.001.05-.003.062a.555.555 0 0 1-.057.132.247.247 0 0 1-.055.057c-.027.021-.064.038-.113.051s-.098.02-.148.02a.409.409 0 0 1-.317-.124.496.496 0 0 1-.114-.348.54.54 0 0 1 .118-.37.408.408 0 0 1 .325-.135c.112 0 .2.027.264.082s.095.131.095.233z"/></g><radialGradient id="a" cx="183.101" cy="157.042" r=".836" gradientUnits="userSpaceOnUse"><stop offset="0" stop-color="#d0da9b"/><stop offset=".592" stop-color="#c9d596"/><stop offset="1" stop-color="#c1d191"/></radialGradient><path fill="url(#a)" d="M181.977 156.678h2.249v.729h-2.249z"/><path fill="#41372b" stroke="#3c322a" stroke-width=".25" stroke-miterlimit="10" d="M192.797 147.548h-11.133l-.191 3.636h11.133z"/><g fill="#d2cbc8"><path d="M185.483 149.681v-.938h.354a.787.787 0 0 1 .207.03.217.217 0 0 1 .114.093.307.307 0 0 1 .041.162.277.277 0 0 1-.283.286h-.219v.367h-.214zm.213-.81v.307h.108a.264.264 0 0 0 .121-.02c.046-.027.069-.071.069-.131 0-.054-.015-.093-.044-.118-.029-.025-.077-.038-.145-.038h-.109zM186.253 149.216c0-.134.032-.244.098-.328.081-.106.201-.159.36-.159.157 0 .277.053.361.159a.535.535 0 0 1 .098.328c0 .131-.033.24-.098.326-.08.106-.2.16-.361.16-.082 0-.151-.013-.209-.039s-.108-.066-.151-.122a.504.504 0 0 1-.098-.325zm.458-.342a.196.196 0 0 0-.173.088.44.44 0 0 0-.062.253c0 .109.021.193.062.252.04.059.098.088.173.088s.133-.029.173-.087a.454.454 0 0 0 .06-.253.461.461 0 0 0-.06-.253.198.198 0 0 0-.173-.088zM187.202 148.744h.208l.155.697.191-.697h.264l.192.697.159-.697h.186l-.213.938h-.263l-.203-.701-.192.701h-.271l-.213-.938zM188.639 149.681v-.938h.631v.142h-.418v.243h.396v.145h-.396v.267h.428v.142h-.641zM189.397 149.681v-.938h.384c.081 0 .14.005.175.015.111.029.167.104.167.226 0 .118-.063.19-.187.217.095.014.148.07.16.17l.015.139.006.066.006.047.013.057h-.213a.506.506 0 0 1-.012-.065l-.008-.054-.014-.139a.151.151 0 0 0-.008-.051.156.156 0 0 0-.02-.043c-.017-.029-.06-.044-.128-.044h-.125v.398h-.211zm.211-.808v.278h.137c.117 0 .175-.045.175-.135 0-.072-.029-.116-.089-.133a.329.329 0 0 0-.096-.01h-.127z"/></g><radialGradient id="b" cx="183.789" cy="149.094" r=".836" gradientUnits="userSpaceOnUse"><stop offset="0" stop-color="#f5e9d7"/><stop offset=".174" stop-color="#f2e2d3"/><stop offset=".458" stop-color="#e9cfc7"/><stop offset=".815" stop-color="#dcafb2"/><stop offset="1" stop-color="#d59da6"/></radialGradient><path fill="url(#b)" d="M182.664 148.73h2.249v.729h-2.249z"/><linearGradient id="c" gradientUnits="userSpaceOnUse" x1="186.931" y1="155.135" x2="186.931" y2="151.188"><stop offset="0" stop-color="#5c5346"/><stop offset="1" stop-color="#302521"/></linearGradient><path fill="url(#c)" stroke="#3c322a" stroke-width=".25" stroke-miterlimit="10" d="M192.601 151.188h-11.133l-.207 3.947h11.133z"/><path fill="#1d1a18" d="M184.114 152.05h5.75v1.792h-5.75z"/><path fill="#4b4239" d="M184.352 152.25h5.75v1.792h-5.75z"/><path d="M185.957 172.993a3.663 3.663 0 0 1-3.684-3.886c.108-2.077 1.888-3.767 3.966-3.767a3.663 3.663 0 0 1 3.684 3.886c-.109 2.077-1.888 3.767-3.966 3.767z" fill="#1c1918"/><ellipse transform="rotate(-44.25 186.093 169.163)" cx="186.098" cy="169.167" rx="2.764" ry="2.623" fill="#1f1c1c"/><path fill="#99896b" d="M32.975 172.155h3.875v2.024h-3.875z"/><path fill="#75736b" stroke="#1d1c19" stroke-width=".15" stroke-miterlimit="10" d="M33.64 172.479h2.544v1.375H33.64z"/><g fill="#56554d"><path d="M45.798 121.646h-9.376l-.265.426h9.375zM46.329 120.819h-9.376l-.265.426h9.375zM46.85 119.941h-9.375l-.266.426h9.375zM47.399 119.088h-9.376l-.265.426h9.375zM47.926 118.235h-9.375l-.266.427h9.376zM48.46 117.383h-9.375l-.266.426h9.375zM48.991 116.53h-9.376l-.265.426h9.375zM49.515 115.677h-9.376l-.265.427h9.375zM50.052 114.825h-9.375l-.266.426h9.375zM50.583 113.972h-9.376l-.265.426h9.375zM51.118 113.119h-9.375l-.266.427h9.375zM51.629 112.267h-9.376l-.265.426h9.375zM52.175 111.414h-9.376l-.265.426h9.375zM52.704 110.561h-9.375l-.266.427h9.375zM53.227 109.709h-9.375l-.266.426h9.376zM53.578 109.159h-9.376l-.076.123h9.375z"/><g><path d="M58.273 121.646h-8.621l-.244.426h8.621zM58.761 120.819h-8.62l-.245.426h8.621zM59.24 119.941h-8.62l-.244.426h8.62zM59.745 119.088h-8.62l-.245.426h8.621zM60.23 118.235h-8.62l-.244.427h8.62zM60.721 117.383H52.1l-.244.426h8.621zM61.209 116.53h-8.621l-.244.426h8.621zM61.691 115.677H53.07l-.244.427h8.62zM62.185 114.825h-8.621l-.244.426h8.62zM62.673 113.972h-8.621l-.244.426h8.62zM63.165 113.119h-8.621l-.244.427h8.62zM63.634 112.267h-8.62l-.244.426h8.62zM64.137 111.414h-8.621l-.244.426h8.62zM64.623 110.561h-8.62l-.245.427h8.621zM65.104 109.709h-8.62l-.244.426h8.62zM65.426 109.159h-8.62l-.07.123h8.62z"/></g><g><path d="M172.635 121.646h9.376l.265.426h-9.375zM172.104 120.819h9.376l.265.426h-9.375zM171.583 119.941h9.375l.266.426h-9.376zM171.034 119.088h9.376l.265.426H171.3zM170.506 118.235h9.376l.265.427h-9.375zM169.973 117.383h9.375l.266.426h-9.376zM169.442 116.53h9.375l.266.426h-9.375zM168.918 115.677h9.375l.266.427h-9.375zM168.381 114.825h9.375l.266.426h-9.376zM167.85 113.972h9.375l.266.426h-9.375zM167.315 113.119h9.375l.266.427h-9.375zM166.804 112.267h9.376l.265.426h-9.375zM166.258 111.414h9.375l.266.426h-9.375zM165.729 110.561h9.375l.266.427h-9.376zM165.206 109.709h9.375l.265.426h-9.375zM164.855 109.159h9.375l.077.123h-9.375z"/></g><g><path d="M160.16 121.646h8.62l.245.426h-8.621zM159.672 120.819h8.62l.244.426h-8.62zM159.192 119.941h8.621l.244.426h-8.62zM158.688 119.088h8.62l.244.426h-8.62zM158.203 118.235h8.62l.244.427h-8.62zM157.712 117.383h8.62l.245.426h-8.621zM157.224 116.53h8.62l.245.426h-8.621zM156.742 115.677h8.621l.244.427h-8.621zM156.248 114.825h8.62l.245.426h-8.621zM155.76 113.972h8.621l.244.426h-8.621zM155.268 113.119h8.62l.245.427h-8.621zM154.799 112.267h8.62l.244.426h-8.62zM154.296 111.414h8.621l.244.426h-8.62zM153.81 110.561h8.62l.244.427h-8.62zM153.329 109.709h8.62l.244.426h-8.62zM153.006 109.159h8.621l.07.123h-8.62z"/></g></g><g><path d="M176.221 121.667H42.231a3.598 3.598 0 0 1-3.588-3.588V3.588A3.6 3.6 0 0 1 42.231 0h133.99a3.598 3.598 0 0 1 3.588 3.588v114.49a3.598 3.598 0 0 1-3.588 3.589z" fill="#bdae89"/><path d="M173.625 113.667H44.828a3.372 3.372 0 0 1-3.362-3.362V5.795a3.372 3.372 0 0 1 3.362-3.362h128.797a3.372 3.372 0 0 1 3.362 3.362v104.51a3.373 3.373 0 0 1-3.362 3.362z" fill="#312d2a"/><linearGradient id="d" gradientUnits="userSpaceOnUse" x1="148.824" y1="126.636" x2="69.628" y2="-10.536"><stop offset="0" stop-color="#3f3c38"/><stop offset="1" stop-color="#31302e"/></linearGradient><path d="M172.337 112.554H46.116a3.303 3.303 0 0 1-3.294-3.294V6.84a3.303 3.303 0 0 1 3.294-3.294h126.221a3.303 3.303 0 0 1 3.294 3.294v102.42a3.303 3.303 0 0 1-3.294 3.294z" fill="url(#d)"/><radialGradient id="e" cx="109.226" cy="58.05" r="48.084" gradientTransform="matrix(0 -1 4 0 -122.974 167.276)" gradientUnits="userSpaceOnUse"><stop offset="0" stop-color="#798e9c"/><stop offset=".159" stop-color="#738694"/><stop offset=".417" stop-color="#63727e"/><stop offset=".742" stop-color="#4b5560"/><stop offset="1" stop-color="#363d47"/></radialGradient><path d="M109.226 15.404c7.181-.083 13.352-.023 21 .18 8.903.236 18.302.487 26.558 1.07 2.302 0 4.186 2.677 4.186 5.948l.016-.002c.762 11.079 1.177 23.013 1.177 35.451s-.415 24.372-1.177 35.451l-.016-.002c0 3.271-1.884 5.948-4.186 5.948-8.256.583-17.655.834-26.558 1.07-7.648.203-13.819.262-21 .18-7.181.083-13.352.023-21-.18-8.903-.236-18.302-.487-26.558-1.07-2.302 0-4.186-2.677-4.186-5.948l-.016.002c-.762-11.079-1.177-23.013-1.177-35.451s.415-24.372 1.177-35.451l.016.002c0-3.271 1.884-5.948 4.186-5.948 8.256-.583 17.655-.834 26.558-1.07 7.648-.203 13.82-.263 21-.18z" fill="url(#e)" stroke="#222" stroke-width=".5" stroke-miterlimit="10"/><path d="M159.25 17.811l8.86-7.952c.543.537.881 1.282.881 2.102v92.178a2.96 2.96 0 0 1-.89 2.113l-8.532-8.328.003.003c.857-1.091 1.398-2.674 1.398-4.427l.016.002c.762-11.079 1.177-23.013 1.177-35.451s-.415-24.372-1.177-35.451l-.016.002c0-1.961-.677-3.709-1.716-4.794" fill="#35312e"/><path d="M159.25 17.811l8.86-7.953a2.956 2.956 0 0 0-2.085-.862H52.427c-.811 0-1.548.33-2.084.863l8.86 7.952-.004-.004c.694-.725 1.548-1.154 2.47-1.154 8.256-.583 17.655-.834 26.558-1.07 7.648-.203 13.819-.262 21-.18 7.181-.083 13.352-.023 21 .18 8.903.236 18.302.487 26.558 1.07.922 0 1.776.429 2.47 1.154" fill="#2b2a28"/><path d="M59.202 17.811l-8.86-7.952a2.951 2.951 0 0 0-.881 2.102v92.178c0 .825.342 1.574.89 2.113l8.532-8.328-.003.003c-.857-1.091-1.398-2.674-1.398-4.427l-.016.002c-.762-11.079-1.177-23.013-1.177-35.451s.415-24.372 1.177-35.451l.016.002c0-1.961.677-3.709 1.716-4.794" fill="#4c4845"/><path d="M58.884 97.924l-8.531 8.328a2.948 2.948 0 0 0 2.074.852h113.599c.806 0 1.539-.326 2.075-.852l-8.532-8.328.003.003c-.742.944-1.72 1.52-2.788 1.52-8.256.583-17.655.834-26.558 1.07-7.648.203-13.819.262-21 .18-7.181.083-13.352.023-21-.18-8.903-.236-18.302-.487-26.558-1.07-1.068 0-2.046-.576-2.788-1.52" fill="#42413f"/><path d="M128.414 121.667h34.5l-3.794 7.798c-.292.599-.747.952-1.23.952H60.563c-.483 0-.938-.352-1.23-.952l-3.794-7.798h72.875z" fill="#a69373"/><path d="M151.799 116.594v-.721h.272a.57.57 0 0 1 .159.023c.037.014.066.038.088.072s.032.076.032.125a.209.209 0 0 1-.055.148.213.213 0 0 1-.163.072H151.963v.282h-.164zm.164-.623v.236h.083a.203.203 0 0 0 .093-.015c.036-.021.054-.055.054-.101 0-.042-.011-.072-.034-.091-.022-.019-.06-.029-.111-.029h-.085zM152.391 116.236c0-.104.025-.188.075-.252.063-.082.155-.122.277-.122.121 0 .214.041.278.122.05.066.075.15.075.252a.407.407 0 0 1-.075.251c-.062.082-.154.123-.278.123a.322.322 0 0 1-.278-.123.399.399 0 0 1-.074-.251zm.352-.263a.152.152 0 0 0-.133.068.342.342 0 0 0-.047.195c0 .084.016.148.047.194s.076.068.133.068.102-.022.133-.067a.338.338 0 0 0 .046-.195.347.347 0 0 0-.046-.195.152.152 0 0 0-.133-.068zM153.121 115.873h.16l.12.536.147-.536h.203l.148.536.122-.536h.143l-.164.721h-.202l-.156-.539-.148.539h-.208l-.165-.721zM154.226 116.594v-.721h.485v.109h-.321v.187h.305v.111h-.305v.205h.329v.109h-.493zM154.809 116.594v-.721h.295c.063 0 .108.004.135.011.085.022.128.081.128.174 0 .091-.048.146-.143.167.073.011.114.055.123.131l.011.107.005.051a.36.36 0 0 0 .004.036l.01.044h-.164a1.616 1.616 0 0 1-.015-.092l-.01-.107a.152.152 0 0 0-.021-.073c-.014-.022-.046-.034-.099-.034h-.096v.306h-.163zm.163-.622v.214h.105c.09 0 .135-.035.135-.104 0-.055-.023-.089-.069-.102a.263.263 0 0 0-.073-.008h-.098z"/><g fill="#151415"><path d="M60.085 117.607v-1.189h.422l.295.881.323-.881h.401v1.189h-.252v-.955l-.358.955h-.276l-.327-.952v.952h-.228zM61.679 117.187a.43.43 0 0 1 .122-.32.442.442 0 0 1 .327-.121c.136 0 .245.04.326.12a.43.43 0 0 1 .121.321c0 .133-.041.24-.122.321s-.189.121-.325.121a.449.449 0 0 1-.327-.119.433.433 0 0 1-.122-.323zm.449-.298c-.126 0-.19.099-.19.297 0 .197.063.295.19.295.124 0 .186-.098.186-.295 0-.198-.062-.297-.186-.297zM62.722 117.607v-.827h.244v.13a.348.348 0 0 1 .114-.12.294.294 0 0 1 .153-.037c.083 0 .15.023.2.068a.24.24 0 0 1 .074.185V117.606h-.244v-.504a.349.349 0 0 0-.013-.111.107.107 0 0 0-.045-.06.13.13 0 0 0-.075-.024c-.109 0-.163.083-.163.25v.45h-.245zM63.654 117.187a.43.43 0 0 1 .122-.32.442.442 0 0 1 .327-.121c.136 0 .245.04.326.12a.43.43 0 0 1 .121.321c0 .133-.041.24-.122.321s-.189.121-.325.121a.449.449 0 0 1-.327-.119.429.429 0 0 1-.122-.323zm.449-.298c-.126 0-.19.099-.19.297 0 .197.063.295.19.295.124 0 .186-.098.186-.295 0-.198-.062-.297-.186-.297zM65.456 117.071h-.228a.15.15 0 0 0-.041-.111.14.14 0 0 0-.106-.042.15.15 0 0 0-.132.072.347.347 0 0 0-.049.199c0 .186.059.279.178.279.091 0 .141-.058.15-.173h.228a.31.31 0 0 1-.103.25.41.41 0 0 1-.277.088c-.138 0-.243-.038-.316-.113-.073-.075-.109-.185-.109-.327 0-.141.036-.25.108-.326.072-.076.176-.114.311-.114.239-.002.367.105.386.318zM65.588 117.607v-1.189h.244v.488a.335.335 0 0 1 .115-.116.308.308 0 0 1 .154-.036c.064 0 .119.013.163.038s.073.061.088.105c.015.045.022.1.022.165v.545h-.244v-.504c0-.046-.003-.083-.011-.108s-.023-.047-.046-.063a.13.13 0 0 0-.076-.024c-.11 0-.166.083-.166.25v.45h-.243zM66.57 117.607v-.827h.244v.107c.031-.045.062-.077.093-.096s.069-.028.113-.028c.021 0 .046.004.076.011v.198l-.044-.006c-.013-.002-.029-.002-.049-.002-.067 0-.115.015-.145.046s-.044.083-.044.155v.44h-.244zM67.108 117.187a.43.43 0 0 1 .122-.32.442.442 0 0 1 .327-.121c.136 0 .245.04.326.12a.43.43 0 0 1 .121.321c0 .133-.041.24-.122.321s-.189.121-.325.121a.449.449 0 0 1-.327-.119.429.429 0 0 1-.122-.323zm.449-.298c-.126 0-.19.099-.19.297 0 .197.063.295.19.295.124 0 .186-.098.186-.295 0-.198-.062-.297-.186-.297zM68.15 117.607v-.827h.244v.125a.398.398 0 0 1 .115-.111.28.28 0 0 1 .141-.035c.064 0 .12.014.165.042a.223.223 0 0 1 .094.127.285.285 0 0 1 .275-.169c.072 0 .131.017.18.051a.216.216 0 0 1 .073.093.375.375 0 0 1 .023.146v.558h-.244v-.535c0-.101-.044-.151-.132-.151a.132.132 0 0 0-.113.055.252.252 0 0 0-.041.152v.479h-.244v-.493a.624.624 0 0 0-.003-.071.179.179 0 0 0-.015-.052.11.11 0 0 0-.046-.048.132.132 0 0 0-.074-.021.13.13 0 0 0-.113.059.281.281 0 0 0-.041.162v.465h-.244zM70.42 117.234h-.564v.035c0 .068.015.122.046.162.031.04.074.06.129.06.079 0 .128-.049.147-.147h.228c-.032.19-.162.286-.389.286-.133 0-.235-.038-.305-.113s-.104-.185-.104-.329c0-.137.036-.244.109-.319.072-.076.175-.114.307-.114.131 0 .23.037.297.111.067.074.101.184.101.331v.037zm-.396-.343a.15.15 0 0 0-.123.059.265.265 0 0 0-.045.165h.332c-.001-.149-.055-.224-.164-.224zM71.052 117.607v-1.189h.442c.094 0 .169.006.226.018a.544.544 0 0 1 .166.066.446.446 0 0 1 .176.199c.041.088.062.19.062.307 0 .126-.023.235-.068.327s-.111.161-.198.207c-.048.025-.098.042-.147.051s-.124.013-.224.013h-.435zm.27-1.028v.866h.164c.12 0 .208-.035.265-.105.058-.07.086-.181.086-.33 0-.174-.042-.296-.125-.366a.27.27 0 0 0-.093-.049.443.443 0 0 0-.126-.015h-.171zM72.272 116.664v-.246h.244v.246h-.244zm0 .943v-.827h.244v.827h-.244zM72.653 117.34h.244v.02c0 .035.013.066.039.093s.058.041.095.041c.035 0 .064-.012.088-.035s.036-.05.036-.081c0-.027-.01-.049-.031-.066s-.056-.031-.105-.043l-.092-.023-.086-.021a.251.251 0 0 1-.125-.073.183.183 0 0 1-.045-.125c0-.084.033-.152.098-.201s.155-.074.268-.074c.109 0 .194.023.256.07a.233.233 0 0 1 .092.197h-.237c0-.088-.041-.132-.121-.132a.115.115 0 0 0-.083.029.094.094 0 0 0-.032.073c0 .047.045.08.136.099l.087.02.092.023c.119.036.178.109.178.219 0 .09-.033.159-.098.208s-.158.072-.279.072c-.25 0-.376-.094-.376-.282v-.008zM73.544 117.93v-1.15h.241v.122c.053-.091.138-.137.254-.137.108 0 .194.04.259.119a.498.498 0 0 1 .096.322.47.47 0 0 1-.093.309.31.31 0 0 1-.254.112.303.303 0 0 1-.262-.147v.449h-.241zm.417-1.026c-.117 0-.176.096-.176.29 0 .094.016.165.048.214a.158.158 0 0 0 .141.074.145.145 0 0 0 .127-.074.37.37 0 0 0 .048-.202.41.41 0 0 0-.051-.221.153.153 0 0 0-.137-.081zM74.54 117.607v-1.189h.244v1.189h-.244zM75.456 117.092v-.09c0-.038-.01-.067-.031-.087s-.049-.031-.085-.031c-.043 0-.077.011-.101.032s-.036.051-.036.09h-.234c0-.168.12-.252.36-.252l.077.002c.017.002.044.006.081.013a.243.243 0 0 1 .105.045c.033.023.057.051.071.081s.021.075.021.133v.491l.006.087h-.25v-.102a.284.284 0 0 1-.23.12.297.297 0 0 1-.206-.069.243.243 0 0 1-.075-.188.24.24 0 0 1 .035-.128.24.24 0 0 1 .094-.09.59.59 0 0 1 .245-.057h.153zm0 .175v-.058l-.056-.002c-.157 0-.236.051-.236.152 0 .035.011.064.035.086a.128.128 0 0 0 .092.033c.11 0 .165-.07.165-.211zM75.731 116.78h.263l.196.561.191-.561h.221l-.406 1.15h-.224l.102-.297-.343-.853zM77.162 117.607v-1.189h.422l.295.881.323-.881h.401v1.189h-.252v-.955l-.358.955h-.277l-.327-.952v.952h-.227zM78.755 117.187a.43.43 0 0 1 .122-.32.442.442 0 0 1 .327-.121c.136 0 .245.04.326.12a.43.43 0 0 1 .121.321c0 .133-.041.24-.122.321s-.189.121-.325.121a.449.449 0 0 1-.327-.119.433.433 0 0 1-.122-.323zm.449-.298c-.126 0-.19.099-.19.297 0 .197.063.295.19.295.124 0 .186-.098.186-.295 0-.198-.062-.297-.186-.297zM79.798 117.607v-.827h.244v.13a.348.348 0 0 1 .114-.12.294.294 0 0 1 .153-.037c.083 0 .15.023.2.068a.24.24 0 0 1 .074.185V117.606h-.244v-.504a.349.349 0 0 0-.013-.111.107.107 0 0 0-.045-.06.13.13 0 0 0-.075-.024c-.109 0-.163.083-.163.25v.45h-.245zM80.774 116.664v-.246h.244v.246h-.244zm0 .943v-.827h.244v.827h-.244zM81.101 116.944v-.164h.132v-.16l.244-.089v.25h.187v.164h-.187v.384c0 .046.008.078.025.096.016.018.046.026.09.026a.538.538 0 0 0 .076-.006v.16l-.083.013a.653.653 0 0 1-.078.005c-.146 0-.23-.041-.256-.122a.507.507 0 0 1-.018-.158v-.397h-.132zM81.718 117.187a.43.43 0 0 1 .122-.32.442.442 0 0 1 .327-.121c.136 0 .245.04.326.12a.43.43 0 0 1 .121.321c0 .133-.041.24-.122.321s-.189.121-.325.121a.449.449 0 0 1-.327-.119.429.429 0 0 1-.122-.323zm.448-.298c-.126 0-.19.099-.19.297 0 .197.063.295.19.295.124 0 .186-.098.186-.295.001-.198-.062-.297-.186-.297zM82.76 117.607v-.827h.244v.107c.031-.045.062-.077.093-.096s.069-.028.113-.028c.021 0 .046.004.076.011v.198l-.044-.006c-.013-.002-.029-.002-.049-.002-.067 0-.115.015-.145.046s-.044.083-.044.155v.44h-.244z"/><g><path d="M60.085 119.088v-.915h.371a.738.738 0 0 1 .217.03.224.224 0 0 1 .12.091.28.28 0 0 1 .044.158.256.256 0 0 1-.075.188.3.3 0 0 1-.223.091h-.231v.358h-.223zm.224-.791v.3h.113a.291.291 0 0 0 .127-.019.135.135 0 0 0 .074-.128c0-.052-.015-.091-.046-.115s-.081-.037-.151-.037h-.117zM61.733 118.461h-.214a.135.135 0 0 0-.045-.105.164.164 0 0 0-.113-.041.197.197 0 0 0-.173.088.432.432 0 0 0-.061.249c0 .097.019.172.057.225a.19.19 0 0 0 .164.079.186.186 0 0 0 .13-.042.154.154 0 0 0 .047-.12h.214a.395.395 0 0 1-.003.06.244.244 0 0 1-.018.051.258.258 0 0 1-.098.133.341.341 0 0 1-.119.049.629.629 0 0 1-.156.019.447.447 0 0 1-.334-.121.462.462 0 0 1-.119-.34c0-.153.041-.273.124-.361a.444.444 0 0 1 .342-.131c.117 0 .21.026.276.079.066.054.099.13.099.229zM62.014 118.699v-.134h.327v.134h-.327zM62.872 118.615l-.05-.023c-.078-.043-.117-.105-.117-.186 0-.079.032-.14.096-.185a.454.454 0 0 1 .265-.067c.111 0 .199.022.264.067a.213.213 0 0 1 .097.185c0 .049-.013.09-.04.122a.32.32 0 0 1-.13.087l.048.018a.31.31 0 0 1 .07.042c.022.019.04.045.055.077a.225.225 0 0 1-.084.287.503.503 0 0 1-.282.07.486.486 0 0 1-.278-.072.219.219 0 0 1-.106-.189c0-.032.007-.064.022-.097s.034-.058.057-.077a.314.314 0 0 1 .113-.059zm.193.054a.193.193 0 0 0-.132.044.147.147 0 0 0-.05.115c0 .045.017.082.051.112.034.03.078.044.132.044a.196.196 0 0 0 .132-.043.14.14 0 0 0 .051-.112.147.147 0 0 0-.051-.116.201.201 0 0 0-.133-.044zm0-.397a.174.174 0 0 0-.112.034.131.131 0 0 0-.05.093v.015c0 .041.015.075.046.101.031.027.07.041.117.041a.161.161 0 0 0 .113-.042.131.131 0 0 0 .046-.101.13.13 0 0 0-.044-.102.168.168 0 0 0-.116-.039zM63.766 118.615l-.05-.023c-.078-.043-.117-.105-.117-.186 0-.079.032-.14.096-.185s.152-.067.265-.067c.111 0 .199.022.264.067a.213.213 0 0 1 .097.185c0 .049-.013.09-.039.122a.32.32 0 0 1-.13.087l.048.018a.31.31 0 0 1 .07.042c.022.019.04.045.055.077a.225.225 0 0 1-.084.287.501.501 0 0 1-.282.07.486.486 0 0 1-.278-.072.219.219 0 0 1-.106-.189c0-.032.007-.064.022-.097s.034-.058.057-.077a.308.308 0 0 1 .112-.059zm.194.054a.193.193 0 0 0-.132.044.147.147 0 0 0-.05.115c0 .045.017.082.051.112.034.03.078.044.132.044a.196.196 0 0 0 .132-.043.14.14 0 0 0 .051-.112.147.147 0 0 0-.051-.116.203.203 0 0 0-.133-.044zm-.001-.397a.174.174 0 0 0-.112.034.131.131 0 0 0-.05.093v.015c0 .041.015.075.046.101.031.027.07.041.117.041a.161.161 0 0 0 .113-.042.131.131 0 0 0 .046-.101.13.13 0 0 0-.044-.102.168.168 0 0 0-.116-.039zM64.482 118.841h.194c0 .038.015.07.044.096s.065.039.108.039a.16.16 0 0 0 .125-.053.2.2 0 0 0 .047-.138.214.214 0 0 0-.044-.143.149.149 0 0 0-.121-.052.163.163 0 0 0-.104.035.129.129 0 0 0-.05.091h-.183v-.543h.642v.131h-.46v.261c.049-.066.124-.099.224-.099.094 0 .17.028.228.085a.298.298 0 0 1 .087.222.293.293 0 0 1-.107.237.418.418 0 0 1-.279.09.433.433 0 0 1-.26-.068.223.223 0 0 1-.091-.191zM65.304 118.469v-.157a.557.557 0 0 0 .222-.139h.178v.915h-.212v-.717a.644.644 0 0 1-.188.098zM66.238 118.073h.164l-.027.074a1.547 1.547 0 0 0-.077.302 1.253 1.253 0 0 0 .044.561l.026.084.034.096h-.164a3.235 3.235 0 0 1-.038-.085 6.802 6.802 0 0 0-.027-.072 1.16 1.16 0 0 1-.094-.401c0-.104.031-.238.094-.402l.02-.055.045-.102zM66.403 118.837h.186c0 .039.011.07.032.093.021.023.05.035.087.035a.116.116 0 0 0 .094-.039c.022-.026.033-.065.033-.115v-.637h.227v.637c0 .1-.029.176-.085.228-.057.052-.14.078-.248.078-.218-.001-.326-.094-.326-.28zM67.226 119.088v-.915h.416a.69.69 0 0 1 .168.016.243.243 0 0 1 .127.079.204.204 0 0 1 .048.136c0 .054-.016.1-.049.138a.23.23 0 0 1-.135.074.262.262 0 0 1 .156.072c.039.04.059.089.059.148a.225.225 0 0 1-.066.166.292.292 0 0 1-.178.08c-.032.003-.08.005-.145.005h-.401zm.224-.792v.267h.152a.197.197 0 0 0 .126-.036.12.12 0 0 0 .045-.1c0-.056-.023-.095-.07-.117a.11.11 0 0 0-.044-.013l-.057-.001h-.152zm0 .383v.285h.18a.18.18 0 0 0 .122-.039.126.126 0 0 0 .046-.102.125.125 0 0 0-.052-.107.25.25 0 0 0-.147-.038h-.149zM68.133 118.698v-.134h.381v.134h-.381zM68.657 118.469v-.157a.557.557 0 0 0 .222-.139h.178v.915h-.212v-.717a.644.644 0 0 1-.188.098zM69.22 118.885v-.156l.396-.556h.279v.572h.113v.14h-.113v.203h-.206v-.203h-.469zm.468-.577l-.308.437h.308v-.437zM70.103 118.469v-.157a.557.557 0 0 0 .222-.139h.178v.915h-.213v-.717a.644.644 0 0 1-.187.098zM70.701 118.63c0-.152.035-.27.107-.354a.37.37 0 0 1 .299-.126.37.37 0 0 1 .299.126.532.532 0 0 1 .106.354.536.536 0 0 1-.106.354.368.368 0 0 1-.299.127.37.37 0 0 1-.299-.126c-.071-.083-.107-.202-.107-.355zm.409-.341c-.061 0-.109.031-.145.092a.496.496 0 0 0-.053.251c0 .103.017.186.052.248.035.062.081.093.139.093.061 0 .109-.03.145-.091a.497.497 0 0 0 .053-.248.538.538 0 0 0-.05-.253c-.034-.062-.081-.092-.141-.092zM71.637 119.088v-.915h.371a.738.738 0 0 1 .217.03.224.224 0 0 1 .12.091.28.28 0 0 1 .044.158.256.256 0 0 1-.075.188.3.3 0 0 1-.223.091h-.231v.358h-.223zm.224-.791v.3h.113a.291.291 0 0 0 .127-.019.135.135 0 0 0 .074-.128c0-.052-.015-.091-.046-.115-.031-.024-.081-.037-.151-.037h-.117zM72.476 119.088v-.154l.046-.031c.082-.057.166-.124.253-.203a.856.856 0 0 0 .145-.158.238.238 0 0 0 .046-.126.123.123 0 0 0-.037-.093.137.137 0 0 0-.1-.035.143.143 0 0 0-.114.051.132.132 0 0 0-.031.047.191.191 0 0 0-.009.065v.015h-.199c0-.102.032-.179.097-.231a.438.438 0 0 1 .28-.077c.099 0 .179.022.239.066.06.044.09.103.09.176a.336.336 0 0 1-.039.155.816.816 0 0 1-.128.173 1.24 1.24 0 0 1-.267.216h.464v.142h-.736zM73.294 119.189c.013-.034.024-.067.034-.098l.025-.082a1.324 1.324 0 0 0 .044-.562 1.54 1.54 0 0 0-.044-.195 1.83 1.83 0 0 0-.058-.179h.164l.037.084.03.072c.063.167.094.302.094.402 0 .097-.031.231-.094.401l-.036.09-.031.067h-.165z"/></g></g><path d="M68.614 123.441h-6.302a.245.245 0 0 0-.244.244v.636c0 .134.11.244.244.244h6.302c.134 0 .244-.11.244-.244v-.636a.245.245 0 0 0-.244-.244z" fill="#a59b8d"/><g fill="#3c3a3c"><path d="M62.616 123.592h.131l-.021.029-.027.04a.337.337 0 0 0-.035.076.243.243 0 0 0-.011.07c0 .023.004.046.011.07a.337.337 0 0 0 .035.076 1.1 1.1 0 0 0 .048.07h-.131a.672.672 0 0 1-.031-.033l-.022-.028c-.05-.063-.075-.114-.075-.154 0-.04.025-.092.075-.155l.016-.021a.603.603 0 0 0 .037-.04zM62.748 123.887h.148c0 .015.009.027.026.036s.04.013.069.013a.15.15 0 0 0 .075-.015.049.049 0 0 0 .026-.044v-.245h.181v.245c0 .038-.023.068-.068.088a.51.51 0 0 1-.198.03c-.172-.001-.259-.037-.259-.108zM63.406 123.983v-.352h.333c.056 0 .101.002.134.006a.295.295 0 0 1 .101.03c.025.015.038.032.038.052 0 .021-.013.039-.039.053a.265.265 0 0 1-.108.028.33.33 0 0 1 .124.028c.031.015.047.034.047.057 0 .026-.017.047-.052.064a.39.39 0 0 1-.142.031 2.97 2.97 0 0 1-.116.002h-.32zm.179-.305v.103h.121a.292.292 0 0 0 .1-.014c.024-.009.036-.022.036-.039 0-.021-.019-.037-.056-.045a.148.148 0 0 0-.035-.005H63.585zm0 .148v.11h.144a.265.265 0 0 0 .098-.015c.024-.01.036-.023.036-.039 0-.018-.014-.031-.041-.041a.364.364 0 0 0-.118-.015h-.119zM64.141 123.833v-.052h.304v.052h-.304zM64.549 123.745v-.061a.824.824 0 0 0 .177-.053h.142v.352h-.169v-.276a1.021 1.021 0 0 1-.15.038zM64.998 123.905v-.06l.316-.214h.222v.22h.091v.054h-.091v.078h-.165v-.078h-.373zm.374-.222l-.246.168h.246v-.168zM65.704 123.745v-.061a.824.824 0 0 0 .177-.053h.142v.352h-.169v-.276a1.021 1.021 0 0 1-.15.038zM66.182 123.807c0-.059.028-.104.085-.136a.49.49 0 0 1 .239-.048.49.49 0 0 1 .239.048c.057.032.085.078.085.136 0 .058-.028.104-.085.136a.479.479 0 0 1-.239.049.493.493 0 0 1-.239-.048c-.057-.033-.085-.078-.085-.137zm.326-.132a.18.18 0 0 0-.116.035.122.122 0 0 0-.043.097c0 .04.014.072.041.096a.165.165 0 0 0 .111.036.18.18 0 0 0 .116-.035.118.118 0 0 0 .043-.096.121.121 0 0 0-.04-.097.162.162 0 0 0-.112-.036zM66.929 123.983v-.352h.297a1.364 1.364 0 0 1 .173.011.224.224 0 0 1 .096.035c.023.017.035.037.035.061 0 .029-.02.053-.06.072a.409.409 0 0 1-.178.035h-.184v.138h-.179zm.179-.304v.115h.091a.456.456 0 0 0 .101-.007c.039-.01.059-.027.059-.049 0-.02-.012-.035-.037-.044a.385.385 0 0 0-.121-.014h-.093zM67.599 123.983v-.059l.037-.012c.065-.022.133-.048.202-.078a.617.617 0 0 0 .116-.061c.024-.018.036-.034.036-.049s-.01-.027-.03-.036a.195.195 0 0 0-.08-.014.186.186 0 0 0-.091.02c-.012.006-.02.012-.025.018s-.007.014-.007.025v.006h-.159c0-.039.026-.069.077-.089a.648.648 0 0 1 .224-.03.59.59 0 0 1 .191.025c.048.017.072.04.072.068 0 .02-.011.04-.032.06a.483.483 0 0 1-.102.067 1.403 1.403 0 0 1-.213.083h.371v.055h-.587zM68.253 124.022a.689.689 0 0 0 .047-.069.323.323 0 0 0 .034-.074.239.239 0 0 0 .001-.142.353.353 0 0 0-.035-.075c-.007-.013-.013-.024-.019-.032l-.028-.037h.131l.029.032.024.028c.05.064.075.116.075.155 0 .037-.025.089-.075.154a.858.858 0 0 0-.028.035l-.025.026h-.131z"/></g><path fill="#151415" d="M59.033 116.032h.297v3.544h-.297z"/><g fill="#151415"><path d="M53.691 116.264h2.092l-.139.795s-.062-.431-.319-.6c-.064-.03-.228-.028-.638-.028l-.161.948c.327.077.69-.422.69-.422l-.209 1.102s-.128-.499-.529-.483l-.178.981c.584 0 .573-.004.714-.09.136-.083.454-.493.466-.55l-.13.822h-2.115c.016-.109.222-.121.314-.184l.173-.954c-.014-.085-.181-.012-.215-.085.029-.078.197-.027.246-.084l.176-.968c-.03-.072-.238-.108-.238-.2zM57.639 116.189c.092.19.166.399.233.614-.128.05-.305.13-.305.13l-.337-.468c-.351-.027-.825.495-.861.821-.042.386.198.768.575.8.392.034.862-.298.862-.298l-.431.949c-.889.316-1.547-.264-1.581-.949-.051-1.044.895-1.62 1.845-1.599z"/><path d="M52.777 117.56l.304-1.417.578.355-.462.273-.419 2.043-1.352-1.521-.185.942.329.271-.691.308.336-1.591c.037-.24-.13-.323-.276-.373l.592-.682 1.246 1.392z"/></g><path d="M157.713 116.596c0-.083.02-.149.06-.201.05-.065.124-.098.221-.098s.171.032.223.098c.04.053.06.12.06.201 0 .081-.02.147-.06.201-.049.065-.123.098-.223.098a.325.325 0 0 1-.128-.023.253.253 0 0 1-.093-.075.316.316 0 0 1-.06-.201zm.281-.21a.121.121 0 0 0-.106.054c-.025.036-.038.088-.038.156s.012.119.038.155a.12.12 0 0 0 .106.055.12.12 0 0 0 .106-.054.273.273 0 0 0 .037-.156.271.271 0 0 0-.037-.155.119.119 0 0 0-.106-.055zM158.352 116.882v-.577h.182l.235.426v-.426h.109v.577h-.169l-.245-.435.001.435h-.113zM157.573 119.075c0-.083.02-.149.06-.201.05-.065.124-.098.221-.098s.171.032.223.098c.04.053.06.12.06.201 0 .081-.02.147-.06.201-.049.065-.123.098-.223.098a.325.325 0 0 1-.128-.023.253.253 0 0 1-.093-.075.316.316 0 0 1-.06-.201zm.282-.21a.121.121 0 0 0-.106.054c-.025.036-.038.088-.038.156s.012.119.038.155a.12.12 0 0 0 .106.055.12.12 0 0 0 .106-.054.273.273 0 0 0 .037-.156.271.271 0 0 0-.037-.155.119.119 0 0 0-.106-.055zM158.213 119.362v-.577h.377v.092h-.246v.148h.228v.092h-.228v.245h-.131zM158.64 119.362v-.577h.377v.092h-.246v.148H159v.092h-.228v.245h-.132z"/><radialGradient id="f" cx="145.643" cy="118.396" r=".792" gradientUnits="userSpaceOnUse"><stop offset="0" stop-color="#f5e9d7"/><stop offset=".136" stop-color="#f2e2cf"/><stop offset=".359" stop-color="#e9cebb"/><stop offset=".639" stop-color="#dcad9a"/><stop offset=".965" stop-color="#cc8476"/><stop offset="1" stop-color="#cb7f73"/></radialGradient><circle cx="145.643" cy="118.396" r=".792" fill="url(#f)"/><path d="M158.642 117.729h-.693a.096.096 0 0 1-.096-.096v-.214c0-.053.043-.096.096-.096h.693c.053 0 .096.043.096.096v.214a.096.096 0 0 1-.096.096zM158.655 120.746h-.72a.083.083 0 0 1-.083-.083v-.72c0-.045.037-.083.083-.083h.72c.045 0 .083.037.083.083v.72a.083.083 0 0 1-.083.083z" fill="#1c1914"/><path d="M156.671 119.622h-6.201a.118.118 0 0 1-.118-.118v-2.217c0-.065.053-.118.118-.118h6.201c.065 0 .118.053.118.118v2.217a.118.118 0 0 1-.118.118z" fill="#2c2927"/></g><g><path d="M218.452 218.993H0l8.544-50.486a3.285 3.285 0 0 1 3.276-3.276h194.796a3.285 3.285 0 0 1 3.276 3.276l8.56 50.486z" fill="#e1e1d6"/><path d="M212.573 211.294H6.825a1.184 1.184 0 0 1-1.152-1.455l6.859-41.411c0-1.263 1.441-2.296 3.202-2.296h187.607c1.761 0 3.202 1.033 3.202 2.296l7.182 41.41a1.184 1.184 0 0 1-1.152 1.456z" fill="#493f36"/><path d="M217.978 222.911H.475a.477.477 0 0 1-.475-.475v-3.442h218.452v3.442a.476.476 0 0 1-.474.475z" fill="#c7bba1"/><path d="M216.607 226.152H1.844a.663.663 0 0 1-.662-.661l-.707-2.581h217.503l-.709 2.581a.663.663 0 0 1-.662.661z" fill="#c7bba1"/><path d="M152.65 181.78l-134.617.1c-.125 0-.228.089-.228.199l-3.673 19.307c0 .109.103.199.228.199l140.341.07c.125 0 .228-.089.228-.199l-2.052-19.477c.001-.109-.102-.199-.227-.199z" fill="#0f0b0e"/><path d="M125.825 206.836H35.106a.23.23 0 0 1-.228-.228l.485-5.014 90.496.061.194 4.953a.23.23 0 0 1-.228.228zM36.255 174.687H19.353a.227.227 0 0 0-.226.226l-.973 5.069c0 .124.102.226.226.226h18.24a.227.227 0 0 0 .226-.226l-.365-5.069a.226.226 0 0 0-.226-.226zM127.097 174.687H43.521c-.372 0-.677.102-.677.226L42 179.982c0 .124.304.226.677.226h84.706c.372 0 .677-.102.677-.226l-.286-5.069c0-.125-.305-.226-.677-.226zM152.069 175.278h-17.255a.243.243 0 0 0-.243.243l.241 4.444c0 .134.109.243.243.243h17.306c.134 0 .243-.11.243-.243l-.291-4.444a.244.244 0 0 0-.244-.243zM206.233 206.836h-35.518a.226.226 0 0 1-.224-.198l-2.226-24.239a.225.225 0 0 1 .224-.253h34.836c.109 0 .203.079.222.186l2.908 24.239a.225.225 0 0 1-.222.265z" fill="#0f0b0e"/><path fill="#312e27" d="M26.572 175.404h-6.56l-.921 4.576H27.5z"/><path d="M26.356 173.675H20.23a.218.218 0 0 0-.217.217v1.512h6.56v-1.512a.218.218 0 0 0-.217-.217z" fill="#4e4735"/><path fill="#423d30" d="M26.572 173.888l.928 2.752v3.34l-.928-4.576zM20.018 173.888l-.927 2.752v3.34l.927-4.576z"/><path fill="#312e27" d="M35.437 175.404h-6.56l-.921 4.576h8.408z"/><path d="M35.22 173.675h-6.126a.218.218 0 0 0-.217.217v1.512h6.56v-1.512a.217.217 0 0 0-.217-.217z" fill="#4e4735"/><path fill="#423d30" d="M35.437 173.888l.927 2.752v3.34l-.927-4.576zM28.883 173.888l-.927 2.752v3.34l.927-4.576z"/><path fill="#312e27" d="M58.033 175.53H43.919l-1.172 4.576h16.466z"/><path d="M57.789 173.8H44.164a.245.245 0 0 0-.245.245v1.485h14.114v-1.485a.245.245 0 0 0-.244-.245z" fill="#4e4735"/><path fill="#423d30" d="M58.033 174.013l1.18 2.752v3.341l-1.18-4.576zM43.919 174.013l-1.18 2.752v3.341l1.18-4.576z"/><path fill="#312e27" d="M75.125 175.53H61.01l-1.172 4.576h16.467z"/><path d="M74.88 173.8H61.255a.245.245 0 0 0-.245.245v1.485h14.114v-1.485a.244.244 0 0 0-.244-.245z" fill="#4e4735"/><path fill="#423d30" d="M75.125 174.013l1.18 2.752v3.341l-1.18-4.576zM61.01 174.013l-1.18 2.752v3.341l1.18-4.576z"/><path fill="#312e27" d="M92.216 175.53H78.101l-1.172 4.576h16.467z"/><path d="M91.971 173.8H78.346a.245.245 0 0 0-.245.245v1.485h14.114v-1.485a.244.244 0 0 0-.244-.245z" fill="#4e4735"/><path fill="#423d30" d="M92.216 174.013l1.18 2.752v3.341l-1.18-4.576zM78.101 174.013l-1.18 2.752v3.341l1.18-4.576z"/><path fill="#312e27" d="M109.307 175.53H95.193l-1.173 4.576h16.467z"/><path d="M109.062 173.8H95.437a.245.245 0 0 0-.245.245v1.485h14.114v-1.485a.244.244 0 0 0-.244-.245z" fill="#4e4735"/><path fill="#423d30" d="M109.307 174.013l1.18 2.752v3.341l-1.18-4.576zM95.193 174.013l-1.18 2.752v3.341l1.18-4.576z"/><path fill="#312e27" d="M126.398 175.53h-14.114l-1.172 4.576h16.466z"/><path d="M126.154 173.8h-13.625a.245.245 0 0 0-.245.245v1.485h14.114v-1.485a.245.245 0 0 0-.244-.245z" fill="#4e4735"/><path fill="#423d30" d="M126.398 174.013l1.18 2.752v3.341l-1.18-4.576zM112.284 174.013l-1.18 2.752v3.341l1.18-4.576z"/><path fill="#312e27" d="M142.498 175.505h-6.188l-.869 4.576h7.931z"/><path d="M142.287 173.775h-5.767a.212.212 0 0 0-.211.211v1.519h6.188v-1.519a.21.21 0 0 0-.21-.211z" fill="#4e4735"/><path fill="#423d30" d="M142.498 173.989l.874 2.752v3.34l-.874-4.576zM136.316 173.989l-.875 2.752v3.34l.875-4.576z"/><path fill="#312e27" d="M150.859 175.505h-6.187l-.87 4.576h7.932z"/><path d="M150.649 173.775h-5.767a.212.212 0 0 0-.211.211v1.519h6.188v-1.519a.21.21 0 0 0-.21-.211z" fill="#4e4735"/><path fill="#423d30" d="M150.859 173.989l.875 2.752v3.34l-.875-4.576zM144.677 173.989l-.875 2.752v3.34l.875-4.576zM176.453 183.275h-6.414l-.901 5.307h8.222z"/><path d="M176.222 181.27h-5.952a.232.232 0 0 0-.231.231v1.774h6.414v-1.774a.232.232 0 0 0-.231-.231z" fill="#4e4735"/><path fill="#423d30" d="M176.453 181.517l.907 3.191v3.874l-.907-5.307zM170.045 181.517l-.907 3.191v3.874l.907-5.307z"/><path fill="#312e27" d="M185.121 183.275h-6.415l-.9 5.307h8.221z"/><path d="M184.89 181.27h-5.952a.232.232 0 0 0-.231.231v1.774h6.414v-1.774a.232.232 0 0 0-.231-.231z" fill="#4e4735"/><path fill="#423d30" d="M185.121 181.517l.906 3.191v3.874l-.906-5.307zM178.712 181.517l-.906 3.191v3.874l.906-5.307z"/><path fill="#312e27" d="M193.943 183.068h-6.414l-.901 5.307h8.222z"/><path d="M193.712 181.063h-5.952a.232.232 0 0 0-.231.231v1.774h6.414v-1.774a.232.232 0 0 0-.231-.231z" fill="#4e4735"/><path fill="#423d30" d="M193.943 181.31l.907 3.191v3.874l-.907-5.307zM187.534 181.31l-.906 3.191v3.874l.906-5.307z"/><path fill="#312e27" d="M202.61 183.068h-6.414l-.901 5.307h8.222z"/><path d="M202.38 181.063h-5.952a.232.232 0 0 0-.231.231v1.774h6.414v-1.774a.232.232 0 0 0-.231-.231z" fill="#4e4735"/><path fill="#423d30" d="M202.61 181.31l.907 3.191v3.874l-.907-5.307zM196.202 181.31l-.907 3.191v3.874l.907-5.307z"/><path fill="#9a9680" d="M176.937 187.767h-6.414l-.901 5.307h8.222z"/><path d="M176.706 185.762h-5.952a.232.232 0 0 0-.231.231v1.774h6.414v-1.774a.232.232 0 0 0-.231-.231z" fill="#c3bfae"/><path fill="#9d9a91" d="M176.937 186.009l.907 3.192v3.873l-.907-5.307zM170.528 186.009l-.906 3.192v3.873l.906-5.307z"/><path fill="#9a9680" d="M185.604 187.767h-6.414l-.901 5.307h8.222z"/><path d="M185.374 185.762h-5.952a.232.232 0 0 0-.231.231v1.774h6.414v-1.774a.232.232 0 0 0-.231-.231z" fill="#c3bfae"/><path fill="#9d9a91" d="M185.604 186.009l.907 3.192v3.873l-.907-5.307zM179.196 186.009l-.907 3.192v3.873l.907-5.307z"/><path fill="#9a9680" d="M194.427 187.561h-6.415l-.901 5.306h8.222z"/><path d="M194.196 185.555h-5.952a.232.232 0 0 0-.231.231v1.774h6.414v-1.774a.232.232 0 0 0-.231-.231z" fill="#c3bfae"/><path fill="#9d9a91" d="M194.427 185.802l.906 3.192v3.873l-.906-5.306zM188.018 185.802l-.907 3.192v3.873l.907-5.306z"/><path fill="#312e27" d="M203.094 187.561h-6.414l-.901 5.306h8.222z"/><path d="M202.863 185.555h-5.952a.232.232 0 0 0-.231.231v1.774h6.414v-1.774a.232.232 0 0 0-.231-.231z" fill="#4e4735"/><path fill="#423d30" d="M203.094 185.802l.907 3.192v3.873l-.907-5.306zM196.686 185.802l-.907 3.192v3.873l.907-5.306z"/><path fill="#9a9680" d="M177.421 192.238h-6.415l-.901 5.307h8.222z"/><path d="M177.19 190.233h-5.952a.232.232 0 0 0-.231.231v1.774h6.414v-1.774a.232.232 0 0 0-.231-.231z" fill="#c3bfae"/><path fill="#9d9a91" d="M177.421 190.48l.906 3.191v3.874l-.906-5.307zM171.012 190.48l-.907 3.191v3.874l.907-5.307z"/><path fill="#9a9680" d="M186.088 192.238h-6.414l-.901 5.307h8.222z"/><path d="M185.857 190.233h-5.952a.232.232 0 0 0-.231.231v1.774h6.414v-1.774a.232.232 0 0 0-.231-.231z" fill="#c3bfae"/><path fill="#9d9a91" d="M186.088 190.48l.907 3.191v3.874l-.907-5.307zM179.68 190.48l-.907 3.191v3.874l.907-5.307z"/><path fill="#9a9680" d="M194.91 192.031h-6.414l-.901 5.307h8.222z"/><path d="M194.679 190.026h-5.952a.232.232 0 0 0-.231.231v1.774h6.414v-1.774a.232.232 0 0 0-.231-.231z" fill="#c3bfae"/><path fill="#9d9a91" d="M194.91 190.273l.907 3.191v3.874l-.907-5.307zM188.502 190.273l-.907 3.191v3.874l.907-5.307z"/><path fill="#312e27" d="M203.578 192.031h-6.414l-.901 5.307h8.222z"/><path d="M203.347 190.026h-5.952a.232.232 0 0 0-.231.231v1.774h6.414v-1.774a.232.232 0 0 0-.231-.231z" fill="#4e4735"/><path fill="#423d30" d="M203.578 190.273l.907 3.191v3.874l-.907-5.307zM197.169 190.273l-.906 3.191v3.874l.906-5.307z"/><g><path fill="#9a9680" d="M177.904 196.702h-6.414l-.901 5.307h8.222z"/><path d="M177.673 194.697h-5.952a.232.232 0 0 0-.231.231v1.774h6.414v-1.774a.232.232 0 0 0-.231-.231z" fill="#c3bfae"/><path fill="#9d9a91" d="M177.904 194.944l.907 3.191v3.874l-.907-5.307zM171.496 194.944l-.907 3.191v3.874l.907-5.307z"/></g><g><path fill="#9a9680" d="M186.572 196.702h-6.414l-.901 5.307h8.221z"/><path d="M186.341 194.697h-5.952a.232.232 0 0 0-.231.231v1.774h6.414v-1.774a.232.232 0 0 0-.231-.231z" fill="#c3bfae"/><path fill="#9d9a91" d="M186.572 194.944l.906 3.191v3.874l-.906-5.307zM180.163 194.944l-.906 3.191v3.874l.906-5.307z"/></g><g><path fill="#9a9680" d="M195.394 196.495h-6.414l-.901 5.307h8.222z"/><path d="M195.163 194.49h-5.952a.232.232 0 0 0-.231.231v1.774h6.414v-1.774a.232.232 0 0 0-.231-.231z" fill="#c3bfae"/><path fill="#9d9a91" d="M195.394 194.737l.907 3.191v3.874l-.907-5.307zM188.986 194.737l-.907 3.191v3.874l.907-5.307z"/></g><g><path fill="#312e27" d="M204.062 196.495h-6.415l-.901 5.307h8.222z"/><path d="M203.831 194.49h-5.952a.232.232 0 0 0-.231.231v1.774h6.414v-1.774a.232.232 0 0 0-.231-.231z" fill="#4e4735"/><path fill="#423d30" d="M204.062 194.737l.906 3.191v3.874l-.906-5.307zM197.653 194.737l-.907 3.191v3.874l.907-5.307z"/></g><g><path fill="#9a9680" d="M178.375 201.195h-6.414l-.901 5.306h8.222z"/><path d="M178.144 199.189h-5.952a.232.232 0 0 0-.231.231v1.774h6.414v-1.774a.232.232 0 0 0-.231-.231z" fill="#c3bfae"/><path fill="#9d9a91" d="M178.375 199.436l.907 3.192v3.873l-.907-5.306zM171.967 199.436l-.907 3.192v3.873l.907-5.306z"/></g><g><path fill="#9a9680" d="M187.043 201.195h-6.415l-.9 5.306h8.221z"/><path d="M186.812 199.189h-5.952a.232.232 0 0 0-.231.231v1.774h6.414v-1.774a.232.232 0 0 0-.231-.231z" fill="#c3bfae"/><path fill="#9d9a91" d="M187.043 199.436l.906 3.192v3.873l-.906-5.306zM180.634 199.436l-.906 3.192v3.873l.906-5.306z"/></g><g><path fill="#9a9680" d="M195.865 200.988h-6.414l-.901 5.306h8.222z"/><path d="M195.634 198.982h-5.952a.232.232 0 0 0-.231.231v1.774h6.414v-1.774a.232.232 0 0 0-.231-.231z" fill="#c3bfae"/><path fill="#9d9a91" d="M195.865 199.23l.907 3.191v3.873l-.907-5.306zM189.456 199.23l-.906 3.191v3.873l.906-5.306z"/></g><g><path fill="#312e27" d="M204.532 200.988h-6.414l-.901 5.306h8.222z"/><path d="M204.302 198.982h-5.952a.232.232 0 0 0-.231.231v1.774h6.414v-1.774a.232.232 0 0 0-.231-.231z" fill="#4e4735"/><path fill="#423d30" d="M204.532 199.23l.907 3.191v3.873l-.907-5.306zM198.124 199.23l-.907 3.191v3.873l.907-5.306z"/></g><g><path fill="#312e27" d="M26.257 182.647h-7.28l-1.023 4.576h9.332z"/><path d="M26.028 180.917h-6.823a.229.229 0 0 0-.228.228v1.501h7.28v-1.501a.23.23 0 0 0-.229-.228z" fill="#4e4735"/><path fill="#423d30" d="M26.257 181.13l1.029 2.752v3.341l-1.029-4.576zM18.983 181.13l-1.029 2.752v3.341l1.029-4.576z"/></g><g><path fill="#9a9680" d="M35.266 182.647h-6.302l-.885 4.576h8.078z"/><path d="M35.053 180.917h-5.877a.214.214 0 0 0-.213.213v1.517h6.302v-1.517a.212.212 0 0 0-.212-.213z" fill="#c3bfae"/><path fill="#9d9a91" d="M35.266 181.13l.891 2.752v3.341l-.891-4.576zM28.969 181.13l-.89 2.752v3.341l.89-4.576z"/></g><g><path fill="#9a9680" d="M44.025 182.647h-6.302l-.885 4.576h8.078z"/><path d="M43.813 180.917h-5.877a.214.214 0 0 0-.213.213v1.517h6.302v-1.517a.213.213 0 0 0-.212-.213z" fill="#c3bfae"/><path fill="#9d9a91" d="M44.025 181.13l.891 2.752v3.341l-.891-4.576zM37.729 181.13l-.891 2.752v3.341l.891-4.576z"/></g><g><path fill="#9a9680" d="M52.785 182.647h-6.303l-.885 4.576h8.078z"/><path d="M52.572 180.917h-5.877a.214.214 0 0 0-.213.213v1.517h6.302v-1.517a.212.212 0 0 0-.212-.213z" fill="#c3bfae"/><path fill="#9d9a91" d="M52.785 181.13l.89 2.752v3.341l-.89-4.576zM46.488 181.13l-.891 2.752v3.341l.891-4.576z"/></g><g><path fill="#9a9680" d="M61.544 182.647h-6.302l-.885 4.576h8.078z"/><path d="M61.331 180.917h-5.877a.214.214 0 0 0-.213.213v1.517h6.302v-1.517a.212.212 0 0 0-.212-.213z" fill="#c3bfae"/><path fill="#9d9a91" d="M61.544 181.13l.891 2.752v3.341l-.891-4.576zM55.247 181.13l-.89 2.752v3.341l.89-4.576z"/></g><g><path fill="#9a9680" d="M70.303 182.753h-6.302l-.885 4.576h8.078z"/><path d="M70.091 181.024h-5.877a.214.214 0 0 0-.213.213v1.517h6.302v-1.517a.212.212 0 0 0-.212-.213z" fill="#c3bfae"/><path fill="#9d9a91" d="M70.303 181.237l.891 2.752v3.34l-.891-4.576zM64.007 181.237l-.891 2.752v3.34l.891-4.576z"/></g><g><path fill="#9a9680" d="M79.062 182.753H72.76l-.885 4.576h8.078z"/><path d="M78.85 181.024h-5.877a.214.214 0 0 0-.213.213v1.517h6.302v-1.517a.212.212 0 0 0-.212-.213z" fill="#c3bfae"/><path fill="#9d9a91" d="M79.062 181.237l.891 2.752v3.34l-.891-4.576zM72.766 181.237l-.891 2.752v3.34l.891-4.576z"/></g><g><path fill="#9a9680" d="M87.831 182.753h-6.302l-.885 4.576h8.078z"/><path d="M87.618 181.024h-5.877a.214.214 0 0 0-.213.213v1.517h6.302v-1.517a.212.212 0 0 0-.212-.213z" fill="#c3bfae"/><path fill="#9d9a91" d="M87.831 181.237l.891 2.752v3.34l-.891-4.576zM81.535 181.237l-.891 2.752v3.34l.891-4.576z"/></g><g><path fill="#9a9680" d="M96.59 182.753h-6.302l-.885 4.576h8.078z"/><path d="M96.378 181.024h-5.877a.214.214 0 0 0-.213.213v1.517h6.302v-1.517a.212.212 0 0 0-.212-.213z" fill="#c3bfae"/><path fill="#9d9a91" d="M96.59 181.237l.891 2.752v3.34l-.891-4.576zM90.294 181.237l-.891 2.752v3.34l.891-4.576z"/></g><g><path fill="#9a9680" d="M105.35 182.753h-6.303l-.885 4.576h8.078z"/><path d="M105.137 181.024H99.26a.214.214 0 0 0-.213.213v1.517h6.302v-1.517a.212.212 0 0 0-.212-.213z" fill="#c3bfae"/><path fill="#9d9a91" d="M105.35 181.237l.89 2.752v3.34l-.89-4.576zM99.053 181.237l-.891 2.752v3.34l.891-4.576z"/></g><g><path fill="#9a9680" d="M114.109 182.753h-6.302l-.885 4.576H115z"/><path d="M113.896 181.024h-5.877a.214.214 0 0 0-.213.213v1.517h6.302v-1.517a.212.212 0 0 0-.212-.213z" fill="#c3bfae"/><path fill="#9d9a91" d="M114.109 181.237l.891 2.752v3.34l-.891-4.576zM107.812 181.237l-.89 2.752v3.34l.89-4.576z"/></g><g><path fill="#9a9680" d="M122.868 182.753h-6.302l-.885 4.576h8.078z"/><path d="M122.656 181.024h-5.877a.214.214 0 0 0-.213.213v1.517h6.302v-1.517a.212.212 0 0 0-.212-.213z" fill="#c3bfae"/><path fill="#9d9a91" d="M122.868 181.237l.891 2.752v3.34l-.891-4.576zM116.572 181.237l-.891 2.752v3.34l.891-4.576z"/></g><g><path fill="#9a9680" d="M131.628 182.753h-6.303l-.885 4.576h8.078z"/><path d="M131.415 181.024h-5.877a.214.214 0 0 0-.213.213v1.517h6.302v-1.517a.212.212 0 0 0-.212-.213z" fill="#c3bfae"/><path fill="#9d9a91" d="M131.628 181.237l.89 2.752v3.34l-.89-4.576zM125.331 181.237l-.891 2.752v3.34l.891-4.576z"/></g><g><path fill="#9a9680" d="M140.387 182.753h-6.302l-.885 4.576h8.078z"/><path d="M140.174 181.024h-5.877a.214.214 0 0 0-.213.213v1.517h6.302v-1.517a.212.212 0 0 0-.212-.213z" fill="#c3bfae"/><path fill="#9d9a91" d="M140.387 181.237l.891 2.752v3.34l-.891-4.576zM134.09 181.237l-.89 2.752v3.34l.89-4.576z"/></g><g><path fill="#312e27" d="M151.314 182.753h-8.193l-1.151 4.576h10.502z"/><path d="M151.072 181.024h-7.709a.243.243 0 0 0-.242.242v1.487h8.194v-1.487a.244.244 0 0 0-.243-.242z" fill="#4e4735"/><path fill="#423d30" d="M151.314 181.237l1.158 2.752v3.34l-1.158-4.576zM143.128 181.237l-1.158 2.752v3.34l1.158-4.576z"/></g><g><path fill="#9a9680" d="M39.531 186.771h-6.302l-.886 4.576h8.078z"/><path d="M39.318 185.041h-5.877a.214.214 0 0 0-.213.213v1.517h6.302v-1.517a.212.212 0 0 0-.212-.213z" fill="#c3bfae"/><path fill="#9d9a91" d="M39.531 185.254l.89 2.752v3.341l-.89-4.576zM33.234 185.254l-.891 2.752v3.341l.891-4.576z"/></g><g><path fill="#9a9680" d="M48.29 186.771h-6.302l-.885 4.576h8.078z"/><path d="M48.077 185.041H42.2a.214.214 0 0 0-.213.213v1.517h6.302v-1.517a.212.212 0 0 0-.212-.213z" fill="#c3bfae"/><path fill="#9d9a91" d="M48.29 185.254l.891 2.752v3.341l-.891-4.576zM41.994 185.254l-.891 2.752v3.341l.891-4.576z"/></g><g><path fill="#9a9680" d="M57.049 186.771h-6.302l-.885 4.576h8.078z"/><path d="M56.837 185.041H50.96a.214.214 0 0 0-.213.213v1.517h6.302v-1.517a.213.213 0 0 0-.212-.213z" fill="#c3bfae"/><path fill="#9d9a91" d="M57.049 185.254l.891 2.752v3.341l-.891-4.576zM50.753 185.254l-.891 2.752v3.341l.891-4.576z"/></g><g><path fill="#9a9680" d="M65.809 186.771h-6.303l-.885 4.576h8.078z"/><path d="M65.596 185.041h-5.877a.214.214 0 0 0-.213.213v1.517h6.302v-1.517a.212.212 0 0 0-.212-.213z" fill="#c3bfae"/><path fill="#9d9a91" d="M65.809 185.254l.89 2.752v3.341l-.89-4.576zM59.512 185.254l-.891 2.752v3.341l.891-4.576z"/></g><g><path fill="#9a9680" d="M74.568 186.877h-6.302l-.885 4.576h8.078z"/><path d="M74.355 185.148h-5.877a.214.214 0 0 0-.213.213v1.517h6.302v-1.517a.212.212 0 0 0-.212-.213z" fill="#c3bfae"/><path fill="#9d9a91" d="M74.568 185.361l.891 2.752v3.34l-.891-4.576zM68.272 185.361l-.891 2.752v3.34l.891-4.576z"/></g><g><path fill="#9a9680" d="M83.327 186.877h-6.302l-.885 4.576h8.078z"/><path d="M83.115 185.148h-5.877a.214.214 0 0 0-.213.213v1.517h6.302v-1.517a.212.212 0 0 0-.212-.213z" fill="#c3bfae"/><path fill="#9d9a91" d="M83.327 185.361l.891 2.752v3.34l-.891-4.576zM77.031 185.361l-.891 2.752v3.34l.891-4.576z"/></g><g><path fill="#9a9680" d="M92.096 186.877h-6.302l-.886 4.576h8.078z"/><path d="M91.883 185.148h-5.877a.214.214 0 0 0-.213.213v1.517h6.302v-1.517a.212.212 0 0 0-.212-.213z" fill="#c3bfae"/><path fill="#9d9a91" d="M92.096 185.361l.89 2.752v3.34l-.89-4.576zM85.799 185.361l-.891 2.752v3.34l.891-4.576z"/></g><g><path fill="#9a9680" d="M100.855 186.877h-6.302l-.885 4.576h8.078z"/><path d="M100.642 185.148h-5.877a.214.214 0 0 0-.213.213v1.517h6.302v-1.517a.212.212 0 0 0-.212-.213z" fill="#c3bfae"/><path fill="#9d9a91" d="M100.855 185.361l.891 2.752v3.34l-.891-4.576zM94.559 185.361l-.891 2.752v3.34l.891-4.576z"/></g><g><path fill="#9a9680" d="M109.614 186.877h-6.302l-.885 4.576h8.078z"/><path d="M109.402 185.148h-5.877a.214.214 0 0 0-.213.213v1.517h6.302v-1.517a.212.212 0 0 0-.212-.213z" fill="#c3bfae"/><path fill="#9d9a91" d="M109.614 185.361l.891 2.752v3.34l-.891-4.576zM103.318 185.361l-.891 2.752v3.34l.891-4.576z"/></g><g><path fill="#9a9680" d="M118.374 186.877h-6.303l-.885 4.576h8.078z"/><path d="M118.161 185.148h-5.877a.214.214 0 0 0-.213.213v1.517h6.302v-1.517a.212.212 0 0 0-.212-.213z" fill="#c3bfae"/><path fill="#9d9a91" d="M118.374 185.361l.89 2.752v3.34l-.89-4.576zM112.077 185.361l-.891 2.752v3.34l.891-4.576z"/></g><g><path fill="#9a9680" d="M127.133 186.877h-6.302l-.885 4.576h8.078z"/><path d="M126.92 185.148h-5.877a.214.214 0 0 0-.213.213v1.517h6.302v-1.517a.212.212 0 0 0-.212-.213z" fill="#c3bfae"/><path fill="#9d9a91" d="M127.133 185.361l.891 2.752v3.34l-.891-4.576zM120.837 185.361l-.891 2.752v3.34l.891-4.576z"/></g><g><path fill="#9a9680" d="M135.892 186.877h-6.302l-.885 4.576h8.078z"/><path d="M135.68 185.148h-5.877a.214.214 0 0 0-.213.213v1.517h6.302v-1.517a.212.212 0 0 0-.212-.213z" fill="#c3bfae"/><path fill="#9d9a91" d="M135.892 185.361l.891 2.752v3.34l-.891-4.576z"/><path fill="#7a7874" d="M129.596 185.361l-.891 2.752v3.34l.891-4.576z"/></g><g><path fill="#9a9680" d="M41.762 192.097h-6.435l-.904 4.576h8.249z"/><path d="M41.547 190.368h-6.006a.216.216 0 0 0-.215.215v1.515h6.436v-1.515a.215.215 0 0 0-.215-.215z" fill="#c3bfae"/><path fill="#9d9a91" d="M41.762 190.581l.91 2.752v3.34l-.91-4.576zM35.332 190.581l-.909 2.752v3.34l.909-4.576z"/></g><g><path fill="#9a9680" d="M50.707 192.097h-6.436l-.903 4.576h8.249z"/><path d="M50.492 190.368h-6.006a.216.216 0 0 0-.215.215v1.515h6.436v-1.515a.215.215 0 0 0-.215-.215z" fill="#c3bfae"/><path fill="#9d9a91" d="M50.707 190.581l.91 2.752v3.34l-.91-4.576zM44.277 190.581l-.909 2.752v3.34l.909-4.576z"/></g><g><path fill="#9a9680" d="M59.652 192.097h-6.436l-.904 4.576h8.249z"/><path d="M59.437 190.368h-6.006a.216.216 0 0 0-.215.215v1.515h6.436v-1.515a.215.215 0 0 0-.215-.215z" fill="#c3bfae"/><path fill="#9d9a91" d="M59.652 190.581l.909 2.752v3.34l-.909-4.576zM53.222 190.581l-.91 2.752v3.34l.91-4.576z"/></g><g><path fill="#9a9680" d="M68.597 192.097h-6.436l-.904 4.576h8.249z"/><path d="M68.382 190.368h-6.006a.216.216 0 0 0-.215.215v1.515h6.436v-1.515a.215.215 0 0 0-.215-.215z" fill="#c3bfae"/><path fill="#9d9a91" d="M68.597 190.581l.909 2.752v3.34l-.909-4.576zM62.167 190.581l-.91 2.752v3.34l.91-4.576z"/></g><g><path fill="#9a9680" d="M77.541 192.204h-6.435l-.904 4.576h8.249z"/><path d="M77.327 190.474H71.32a.216.216 0 0 0-.215.215v1.515h6.436v-1.515a.215.215 0 0 0-.214-.215z" fill="#c3bfae"/><path fill="#9d9a91" d="M77.541 190.687l.91 2.752v3.341l-.91-4.576zM71.112 190.687l-.91 2.752v3.341l.91-4.576z"/></g><g><path fill="#9a9680" d="M86.486 192.204h-6.435l-.904 4.576h8.249z"/><path d="M86.271 190.474h-6.006a.216.216 0 0 0-.215.215v1.515h6.436v-1.515a.216.216 0 0 0-.215-.215z" fill="#c3bfae"/><path fill="#9d9a91" d="M86.486 190.687l.91 2.752v3.341l-.91-4.576zM80.056 190.687l-.909 2.752v3.341l.909-4.576z"/></g><g><path fill="#9a9680" d="M95.44 192.204h-6.435l-.904 4.576h8.249z"/><path d="M95.225 190.474h-6.006a.216.216 0 0 0-.215.215v1.515h6.436v-1.515a.215.215 0 0 0-.215-.215z" fill="#c3bfae"/><path fill="#9d9a91" d="M95.44 190.687l.91 2.752v3.341l-.91-4.576zM89.01 190.687l-.909 2.752v3.341l.909-4.576z"/></g><g><path fill="#9a9680" d="M104.385 192.204h-6.436l-.903 4.576h8.249z"/><path d="M104.17 190.474h-6.006a.216.216 0 0 0-.215.215v1.515h6.436v-1.515a.216.216 0 0 0-.215-.215z" fill="#c3bfae"/><path fill="#9d9a91" d="M104.385 190.687l.91 2.752v3.341l-.91-4.576zM97.955 190.687l-.909 2.752v3.341l.909-4.576z"/></g><g><path fill="#9a9680" d="M113.33 192.204h-6.436l-.904 4.576h8.249z"/><path d="M113.115 190.474h-6.006a.216.216 0 0 0-.215.215v1.515h6.436v-1.515a.216.216 0 0 0-.215-.215z" fill="#c3bfae"/><path fill="#9d9a91" d="M113.33 190.687l.909 2.752v3.341l-.909-4.576zM106.9 190.687l-.91 2.752v3.341l.91-4.576z"/></g><g><path fill="#9a9680" d="M122.274 192.204h-6.435l-.904 4.576h8.249z"/><path d="M122.06 190.474h-6.006a.216.216 0 0 0-.215.215v1.515h6.436v-1.515a.217.217 0 0 0-.215-.215z" fill="#c3bfae"/><path fill="#9d9a91" d="M122.274 190.687l.91 2.752v3.341l-.91-4.576zM115.845 190.687l-.91 2.752v3.341l.91-4.576z"/></g><g><path fill="#9a9680" d="M131.219 192.204h-6.435l-.904 4.576h8.249z"/><path d="M131.005 190.474h-6.006a.216.216 0 0 0-.215.215v1.515h6.436v-1.515a.217.217 0 0 0-.215-.215z" fill="#c3bfae"/><path fill="#9d9a91" d="M131.219 190.687l.91 2.752v3.341l-.91-4.576zM124.79 190.687l-.91 2.752v3.341l.91-4.576z"/></g><g><path fill="#9a9680" d="M43.639 196.565h-6.561l-.921 4.576h8.409z"/><path d="M43.422 194.835h-6.127a.218.218 0 0 0-.217.217v1.512h6.561v-1.512a.218.218 0 0 0-.217-.217z" fill="#c3bfae"/><path fill="#9d9a91" d="M43.639 195.048l.927 2.752v3.341l-.927-4.576zM37.084 195.048l-.927 2.752v3.341l.927-4.576z"/></g><g><path fill="#9a9680" d="M52.757 196.565h-6.56l-.922 4.576h8.41z"/><path d="M52.541 194.835h-6.127a.218.218 0 0 0-.217.217v1.512h6.561v-1.512a.219.219 0 0 0-.217-.217z" fill="#c3bfae"/><path fill="#9d9a91" d="M52.757 195.048l.928 2.752v3.341l-.928-4.576zM46.203 195.048l-.928 2.752v3.341l.928-4.576z"/></g><g><path fill="#9a9680" d="M61.876 196.565h-6.561l-.921 4.576h8.41z"/><path d="M61.659 194.835h-6.127a.218.218 0 0 0-.217.217v1.512h6.561v-1.512a.217.217 0 0 0-.217-.217z" fill="#c3bfae"/><path fill="#9d9a91" d="M61.876 195.048l.928 2.752v3.341l-.928-4.576zM55.321 195.048l-.927 2.752v3.341l.927-4.576z"/></g><g><path fill="#9a9680" d="M70.995 196.565h-6.561l-.921 4.576h8.409z"/><path d="M70.778 194.835h-6.127a.218.218 0 0 0-.217.217v1.512h6.561v-1.512a.218.218 0 0 0-.217-.217z" fill="#c3bfae"/><path fill="#9d9a91" d="M70.995 195.048l.927 2.752v3.341l-.927-4.576zM64.44 195.048l-.927 2.752v3.341l.927-4.576z"/></g><g><path fill="#9a9680" d="M80.114 196.671h-6.561l-.922 4.576h8.41z"/><path d="M79.897 194.942H73.77a.218.218 0 0 0-.217.217v1.512h6.561v-1.512a.217.217 0 0 0-.217-.217z" fill="#c3bfae"/><path fill="#9d9a91" d="M80.114 195.155l.927 2.752v3.34l-.927-4.576zM73.559 195.155l-.928 2.752v3.34l.928-4.576z"/></g><g><path fill="#9a9680" d="M89.232 196.671h-6.56l-.922 4.576h8.41z"/><path d="M89.015 194.942h-6.127a.218.218 0 0 0-.217.217v1.512h6.561v-1.512a.217.217 0 0 0-.217-.217z" fill="#c3bfae"/><path fill="#9d9a91" d="M89.232 195.155l.928 2.752v3.34l-.928-4.576zM82.678 195.155l-.928 2.752v3.34l.928-4.576z"/></g><g><path fill="#9a9680" d="M98.36 196.671H91.8l-.922 4.576h8.41z"/><path d="M98.144 194.942h-6.127a.218.218 0 0 0-.217.217v1.512h6.561v-1.512a.218.218 0 0 0-.217-.217z" fill="#c3bfae"/><path fill="#9d9a91" d="M98.36 195.155l.928 2.752v3.34l-.928-4.576zM91.806 195.155l-.928 2.752v3.34l.928-4.576z"/></g><g><path fill="#9a9680" d="M107.479 196.671h-6.561l-.921 4.576h8.41z"/><path d="M107.262 194.942h-6.127a.218.218 0 0 0-.217.217v1.512h6.561v-1.512a.217.217 0 0 0-.217-.217z" fill="#c3bfae"/><path fill="#9d9a91" d="M107.479 195.155l.928 2.752v3.34l-.928-4.576zM100.924 195.155l-.927 2.752v3.34l.927-4.576z"/></g><g><path fill="#9a9680" d="M116.598 196.671h-6.561l-.921 4.576h8.409z"/><path d="M116.381 194.942h-6.127a.218.218 0 0 0-.217.217v1.512h6.561v-1.512a.217.217 0 0 0-.217-.217z" fill="#c3bfae"/><path fill="#9d9a91" d="M116.598 195.155l.927 2.752v3.34l-.927-4.576zM110.043 195.155l-.927 2.752v3.34l.927-4.576z"/></g><g><path fill="#9a9680" d="M125.717 196.671h-6.561l-.922 4.576h8.41z"/><path d="M125.5 194.942h-6.127a.218.218 0 0 0-.217.217v1.512h6.561v-1.512a.217.217 0 0 0-.217-.217z" fill="#c3bfae"/><path fill="#9d9a91" d="M125.717 195.155l.927 2.752v3.34l-.927-4.576zM119.162 195.155l-.928 2.752v3.34l.928-4.576z"/></g><g><path d="M152.271 192.204h-9.123l.045-3.26h-4.267v-3.036c0-.123.108-.224.24-.224h12.865c.132 0 .24.1.24.224v6.296z" fill="#4e4735"/><path fill="#312e27" d="M152.271 192.204h-9.123l-1.204 4.484h11.567z"/><path fill="#423d30" d="M138.926 185.897l-1.212 2.752v2.804l1.212-2.51z"/><path fill="#312e27" d="M137.714 191.421h4.23l1.249-2.478h-4.267z"/><path fill="#423d30" d="M143.193 188.943l-1.249 2.478v5.267l1.204-4.484zM152.271 185.907l.828 2.5.412 8.281-1.24-4.484z"/></g><g><path fill="#9a9680" d="M140.164 192.204h-6.436l-.903 4.576h8.249z"/><path d="M139.949 190.474h-6.006a.216.216 0 0 0-.215.215v1.515h6.436v-1.515a.216.216 0 0 0-.215-.215z" fill="#c3bfae"/><path fill="#9d9a91" d="M140.164 190.687l.91 2.752v3.341l-.91-4.576zM133.734 190.687l-.909 2.752v3.341l.909-4.576z"/></g><g><path fill="#9a9680" d="M134.835 196.671h-6.56l-.922 4.576h8.41z"/><path d="M134.618 194.942h-6.127a.218.218 0 0 0-.217.217v1.512h6.561v-1.512a.217.217 0 0 0-.217-.217z" fill="#c3bfae"/><path fill="#9d9a91" d="M134.835 195.155l.928 2.752v3.34l-.928-4.576zM128.281 195.155l-.928 2.752v3.34l.928-4.576z"/></g><g><path fill="#312e27" d="M152.849 196.778h-14.84l-1.177 4.576h17.194z"/><path d="M152.523 195.048h-14.187a.327.327 0 0 0-.326.326v1.403h14.839v-1.403a.327.327 0 0 0-.326-.326z" fill="#4e4735"/><path fill="#423d30" d="M152.849 195.261l1.177 2.752v3.341l-1.177-4.576zM138.009 195.261l-1.177 2.752v3.341l1.177-4.576z"/></g><g><path fill="#312e27" d="M30.63 186.877H18.285l-.979 4.576h14.303z"/><path d="M30.332 185.148h-11.75a.298.298 0 0 0-.297.297v1.432H30.63v-1.432a.299.299 0 0 0-.298-.297z" fill="#4e4735"/><path fill="#423d30" d="M30.63 185.361l.979 2.752v3.34l-.979-4.576zM18.285 185.361l-.979 2.752v3.34l.979-4.576z"/></g><g><path fill="#312e27" d="M23.758 192.204H17.05l-.942 4.576h8.598z"/><path d="M23.539 190.474H17.27a.22.22 0 0 0-.219.219v1.51h6.708v-1.51a.222.222 0 0 0-.22-.219z" fill="#4e4735"/><path fill="#423d30" d="M23.758 190.687l.948 2.752v3.341l-.948-4.576zM17.057 190.687l-.949 2.752v3.341l.949-4.576z"/></g><g><path fill="#312e27" d="M32.822 192.204h-6.708l-.942 4.576h8.598z"/><path d="M32.603 190.474h-6.269a.22.22 0 0 0-.219.219v1.51h6.708v-1.51a.222.222 0 0 0-.22-.219z" fill="#4e4735"/><path fill="#423d30" d="M32.822 190.687l.948 2.752v3.341l-.948-4.576zM26.121 190.687l-.949 2.752v3.341l.949-4.576z"/></g><g><path fill="#312e27" d="M33.889 196.671H16.538l-1.377 4.576h20.105z"/><path d="M33.537 194.942H16.89a.354.354 0 0 0-.353.353v1.377h17.352v-1.377a.353.353 0 0 0-.352-.353z" fill="#4e4735"/><path fill="#423d30" d="M33.889 195.155l1.377 2.752v3.34l-1.377-4.576zM16.538 195.155l-1.377 2.752v3.34l1.377-4.576z"/></g><g><path fill="#312e27" d="M43.375 202.115h-6.561l-.921 4.576h8.409z"/><path d="M43.158 200.386h-6.126a.218.218 0 0 0-.217.217v1.512h6.56v-1.512a.217.217 0 0 0-.217-.217z" fill="#4e4735"/><path fill="#423d30" d="M43.375 200.599l.927 2.752v3.34l-.927-4.576zM36.82 200.599l-.927 2.752v3.34l.927-4.576z"/></g><g><path fill="#312e27" d="M52.239 202.115h-6.56l-.921 4.576h8.409z"/><path d="M52.022 200.386h-6.126a.218.218 0 0 0-.217.217v1.512h6.56v-1.512a.217.217 0 0 0-.217-.217z" fill="#4e4735"/><path fill="#423d30" d="M52.239 200.599l.928 2.752v3.34l-.928-4.576zM45.685 200.599l-.927 2.752v3.34l.927-4.576z"/></g><g><path fill="#9a9680" d="M124.365 202.115H54.558l-.885 4.576h71.583z"/><path d="M124.153 200.405l-69.382-.02a.214.214 0 0 0-.213.213v1.517h69.807v-1.497a.213.213 0 0 0-.212-.213z" fill="#c3bfae"/><path fill="#9d9a91" d="M124.365 200.599l.891 2.752v3.34l-.891-4.576zM54.564 200.599l-.891 2.752v3.34l.891-4.576z"/></g><path d="M164.147 206.27a.506.506 0 0 1-.502.566h-27.287a.474.474 0 0 1-.474-.474l.354-4.707h18.089v-4.984l8.318.03a.407.407 0 0 1 .401.357l1.101 9.212z" fill="#0f0b0e"/><g><path fill="#312e27" d="M162.095 196.884h-6.532l-.917 4.576h8.372z"/><path d="M161.879 195.155h-6.099a.216.216 0 0 0-.216.216v1.513h6.532v-1.513a.218.218 0 0 0-.217-.216z" fill="#4e4735"/><path fill="#423d30" d="M162.095 195.368l.923 2.752v3.34l-.923-4.576zM155.569 195.368l-.923 2.752v3.34l.923-4.576z"/></g><g><path fill="#312e27" d="M144.273 202.115h-6.775l-.952 4.576h8.685z"/><path d="M144.053 200.386h-6.335a.22.22 0 0 0-.22.22v1.509h6.775v-1.509a.22.22 0 0 0-.22-.22z" fill="#4e4735"/><path fill="#423d30" d="M144.273 200.599l.958 2.752v3.34l-.958-4.576zM137.504 200.599l-.958 2.752v3.34l.958-4.576z"/></g><g><path fill="#312e27" d="M153.428 202.115h-6.775l-.951 4.576h8.684z"/><path d="M153.208 200.386h-6.335a.22.22 0 0 0-.22.22v1.509h6.775v-1.509a.22.22 0 0 0-.22-.22z" fill="#4e4735"/><path fill="#423d30" d="M153.428 200.599l.958 2.752v3.34l-.958-4.576zM146.659 200.599l-.957 2.752v3.34l.957-4.576z"/></g><g><path fill="#312e27" d="M162.584 202.115h-6.776l-.951 4.576h8.684z"/><path d="M162.363 200.386h-6.335a.22.22 0 0 0-.22.22v1.509h6.775v-1.509a.22.22 0 0 0-.22-.22z" fill="#4e4735"/><path fill="#423d30" d="M162.584 200.599l.957 2.752v3.34l-.957-4.576zM155.815 200.599l-.958 2.752v3.34l.958-4.576z"/></g><path fill="#3c342c" d="M11.852 172.53h195.402l-.711-4.102H12.532z"/><path fill="none" stroke="#483e35" stroke-width=".37" stroke-miterlimit="10" d="M206.64 168.987H12.439M206.769 169.733H12.316M206.899 170.479H12.192M207.028 171.225H12.069M207.157 171.971H11.945"/><path d="M200.892 172.104H169.35a.313.313 0 0 1-.296-.252l-.484-2.746c-.025-.139.068-.252.207-.252h31.542c.139 0 .272.113.296.252l.484 2.746c.025.139-.068.252-.207.252z" fill="#493f36" stroke="#4c4138" stroke-width=".25" stroke-miterlimit="10"/><g fill="#908f8a"><path d="M180.812 172.08h-.318l-.817-3.202h.317zM173.515 169.087h2.235l.035.718s-.165-.389-.479-.542c-.075-.027-.25-.025-.688-.025l.047.857c.367.07.64-.381.64-.381l.031.996s-.252-.451-.677-.436l.036.886c.624 0 .611-.004.742-.082.126-.075.371-.445.371-.497l.051.742h-2.26c-.008-.099.209-.109.293-.166l-.035-.862c-.035-.077-.196-.011-.249-.077.013-.071.204-.024.243-.076l-.036-.874c-.049-.065-.278-.097-.3-.181zM177.715 169.02c.142.172.269.36.391.555-.125.045-.296.118-.296.118l-.468-.423c-.381-.025-.767.447-.73.742.044.349.389.694.799.723.427.031.852-.269.852-.269l-.242.858c-.877.286-1.714-.239-1.907-.858-.296-.944.581-1.465 1.601-1.446z"/><path d="M172.838 170.259l-.002-1.281.7.321-.431.246.024 1.846-1.795-1.375.02.851.414.245-.667.278-.008-1.438c-.016-.217-.213-.292-.381-.337l.475-.617 1.651 1.261z"/><g><path d="M181.235 170.348l-.333-1.303h.581a1.419 1.419 0 0 1 .351.042.489.489 0 0 1 .347.354c.027.107.011.196-.049.267-.072.087-.177.13-.315.13h-.362l.13.51h-.35zm.063-1.126l.109.427h.177a.451.451 0 0 0 .192-.027c.067-.037.09-.098.069-.183a.256.256 0 0 0-.115-.164.487.487 0 0 0-.251-.052h-.181zM183.284 169.94h-.731l.01.037a.336.336 0 0 0 .105.178.27.27 0 0 0 .183.065c.102 0 .152-.053.149-.161h.295c.012.209-.129.313-.424.313a.702.702 0 0 1-.426-.123.622.622 0 0 1-.228-.36c-.038-.15-.021-.267.052-.35.073-.083.195-.125.366-.125.169 0 .308.041.416.122a.628.628 0 0 1 .223.363l.01.041zm-.609-.376c-.067 0-.114.021-.143.064-.028.043-.032.104-.013.181h.43c-.041-.163-.132-.245-.274-.245zM183.512 170.348l-.231-.906h.316l.03.118a.264.264 0 0 1 .094-.105.268.268 0 0 1 .139-.031c.027 0 .061.004.101.013l.055.217a.765.765 0 0 0-.122-.009c-.087 0-.145.017-.175.051-.03.034-.035.09-.014.17l.123.483h-.316z"/><path d="M184.068 170.056h.316l.005.021c.01.039.035.073.077.102.041.03.086.044.135.044a.141.141 0 0 0 .104-.038c.025-.025.033-.055.025-.089a.115.115 0 0 0-.059-.072.512.512 0 0 0-.149-.047l-.126-.025-.117-.024a.453.453 0 0 1-.182-.08.252.252 0 0 1-.094-.138c-.024-.093 0-.166.071-.22.071-.054.18-.081.326-.081.141 0 .258.026.351.077a.337.337 0 0 1 .175.216h-.308c-.025-.097-.089-.144-.193-.144-.044 0-.077.01-.1.031-.022.021-.029.048-.021.08.013.052.081.088.203.108l.119.021.126.025c.164.04.261.12.292.24.025.099.003.174-.068.227-.071.053-.184.079-.341.079-.325 0-.513-.103-.566-.309l-.001-.004zM185.053 169.888c-.037-.146-.015-.263.068-.351.083-.088.213-.132.389-.132s.329.044.456.131a.597.597 0 0 1 .247.352c.037.146.015.263-.068.351-.083.088-.212.132-.387.132a.78.78 0 0 1-.456-.131.585.585 0 0 1-.249-.352zm.498-.326c-.164 0-.218.109-.163.325.055.216.165.324.328.324.161 0 .214-.108.159-.324-.055-.216-.163-.325-.324-.325zM186.452 170.348l-.231-.906h.316l.036.143a.28.28 0 0 1 .114-.131.378.378 0 0 1 .188-.04c.108 0 .201.025.278.074.077.05.126.117.148.203l.015.06.153.598h-.316l-.141-.552a.386.386 0 0 0-.048-.121.172.172 0 0 0-.076-.065.227.227 0 0 0-.104-.027c-.141 0-.188.091-.142.273l.126.493h-.316zM188.125 169.784l-.025-.099a.157.157 0 0 0-.064-.095.2.2 0 0 0-.119-.034c-.056 0-.096.012-.121.035-.025.024-.032.056-.021.099h-.303c-.047-.184.085-.277.395-.277a1.221 1.221 0 0 1 .208.016.455.455 0 0 1 .262.139.375.375 0 0 1 .065.146l.137.538.033.096h-.325l-.029-.112a.3.3 0 0 1-.264.132.515.515 0 0 1-.286-.076.342.342 0 0 1-.151-.207.211.211 0 0 1 .009-.141.199.199 0 0 1 .097-.099.76.76 0 0 1 .301-.061h.201zm.048.192l-.016-.063-.073-.002c-.204 0-.292.055-.263.166.01.039.033.07.069.094a.227.227 0 0 0 .129.036c.142 0 .194-.077.154-.231zM188.728 170.348l-.333-1.303h.316l.333 1.303h-.316zM190.811 169.455h-.335a.257.257 0 0 0-.109-.15.332.332 0 0 0-.192-.058c-.117 0-.197.042-.239.126-.043.084-.044.202-.005.355a.646.646 0 0 0 .171.32.399.399 0 0 0 .285.112c.087 0 .15-.02.189-.06.039-.04.049-.097.03-.171h.335c.01.041.016.07.017.086a.306.306 0 0 1-.01.073.31.31 0 0 1-.035.11.253.253 0 0 1-.071.079.459.459 0 0 1-.168.071 1.013 1.013 0 0 1-.237.027.918.918 0 0 1-.566-.173.84.84 0 0 1-.31-.483c-.056-.218-.035-.39.062-.514.097-.125.259-.187.487-.187.184 0 .337.038.461.113a.51.51 0 0 1 .24.324zM190.986 169.888c-.037-.146-.015-.263.068-.351.083-.088.213-.132.389-.132.177 0 .329.044.456.131a.597.597 0 0 1 .247.352c.037.146.015.263-.068.351-.083.088-.212.132-.387.132a.78.78 0 0 1-.456-.131.585.585 0 0 1-.249-.352zm.498-.326c-.164 0-.218.109-.163.325.055.216.165.324.328.324.161 0 .214-.108.159-.324-.055-.216-.163-.325-.324-.325zM192.386 170.348l-.231-.906h.316l.035.137a.325.325 0 0 1 .119-.122.343.343 0 0 1 .171-.039c.084 0 .159.016.226.047a.36.36 0 0 1 .157.139c.041-.124.144-.186.309-.186.093 0 .175.019.247.056.049.026.089.06.12.102.03.041.054.094.07.16l.006.024.15.588h-.316l-.139-.544-.011-.042c-.028-.111-.1-.166-.213-.166-.063 0-.106.02-.131.06-.025.04-.028.096-.01.167l.011.044.123.481h-.316l-.138-.54a.294.294 0 0 0-.058-.135.18.18 0 0 0-.073-.053.238.238 0 0 0-.102-.024c-.063 0-.106.021-.13.064-.024.043-.026.102-.007.178l.13.51h-.315zM194.352 170.702l-.322-1.26h.312l.034.134c.043-.1.14-.15.29-.15.14 0 .263.044.369.131a.653.653 0 0 1 .215.353c.037.144.025.257-.034.339-.059.082-.158.123-.297.123a.54.54 0 0 1-.38-.161l.126.492h-.313zm.252-1.124c-.152 0-.2.106-.146.317a.494.494 0 0 0 .122.235.28.28 0 0 0 .203.081c.068 0 .117-.027.144-.081.028-.055.029-.128.006-.221a.509.509 0 0 0-.127-.242.277.277 0 0 0-.202-.089zM196.15 170.205c-.052.113-.152.17-.3.17a.534.534 0 0 1-.269-.067.309.309 0 0 1-.108-.102.549.549 0 0 1-.069-.167l-.152-.597h.316l.141.551a.439.439 0 0 0 .045.116c.018.03.044.053.078.071a.226.226 0 0 0 .105.025c.142 0 .189-.09.144-.27l-.126-.493h.316l.231.906h-.316l-.036-.143zM196.358 169.621l-.046-.179h.171l-.045-.175.291-.098.07.273h.241l.046.179h-.241l.107.421c.013.051.033.086.059.105.026.019.068.029.125.029.03 0 .062-.003.097-.007l.045.175a1.045 1.045 0 0 1-.204.02c-.188 0-.31-.044-.365-.134a.577.577 0 0 1-.068-.173l-.111-.436h-.172z"/><path d="M198.223 169.94h-.731l.01.037a.336.336 0 0 0 .105.178.27.27 0 0 0 .183.065c.102 0 .152-.053.149-.161h.295c.012.209-.129.313-.424.313a.702.702 0 0 1-.426-.123.622.622 0 0 1-.228-.36c-.038-.15-.021-.267.052-.35.073-.083.195-.125.366-.125.169 0 .308.041.416.122a.628.628 0 0 1 .223.363l.01.041zm-.609-.376c-.067 0-.114.021-.143.064-.028.043-.032.104-.013.181h.43c-.041-.163-.132-.245-.274-.245zM198.451 170.348l-.231-.906h.316l.03.118a.264.264 0 0 1 .094-.105.27.27 0 0 1 .139-.031c.027 0 .061.004.101.013l.055.217a.765.765 0 0 0-.122-.009c-.087 0-.145.017-.175.051-.03.034-.035.09-.014.17l.123.483h-.316z"/></g><g><path d="M181.555 171.603l-.24-.941h.488a1.57 1.57 0 0 1 .293.03.416.416 0 0 1 .182.094.32.32 0 0 1 .099.162.188.188 0 0 1-.049.193c-.063.063-.152.094-.268.094h-.303l.094.368h-.296zm.086-.814l.079.308h.149c.08 0 .134-.006.162-.019.058-.027.079-.071.063-.132a.179.179 0 0 0-.091-.119.458.458 0 0 0-.209-.038h-.153zM183.498 170.958h-.282a.173.173 0 0 0-.087-.108.306.306 0 0 0-.16-.042c-.098 0-.166.03-.204.091-.038.06-.044.146-.015.256a.44.44 0 0 0 .134.231.354.354 0 0 0 .236.081c.073 0 .126-.015.16-.044.034-.029.044-.07.031-.123h.281c.008.03.011.05.011.062a.176.176 0 0 1-.011.053.213.213 0 0 1-.032.08.23.23 0 0 1-.062.058.416.416 0 0 1-.143.051.995.995 0 0 1-.199.02.833.833 0 0 1-.47-.125.573.573 0 0 1-.246-.349c-.04-.158-.018-.281.067-.372s.224-.135.415-.135c.154 0 .282.027.384.081a.362.362 0 0 1 .192.234zM183.726 171.202l-.035-.138h.25l.035.138h-.25zM184.399 171.116l-.072-.023c-.114-.044-.182-.108-.203-.192-.021-.081.005-.144.077-.19.072-.046.182-.069.33-.069.146 0 .267.023.364.069.097.046.156.11.176.191.013.05.006.092-.02.126a.318.318 0 0 1-.148.089l.067.018c.046.016.08.03.102.043.034.02.064.047.092.079a.253.253 0 0 1 .054.1c.021.082-.009.147-.089.195a.695.695 0 0 1-.352.073.904.904 0 0 1-.384-.074c-.105-.049-.168-.114-.188-.194a.185.185 0 0 1 .003-.099.163.163 0 0 1 .055-.08.353.353 0 0 1 .136-.062zm.268.056c-.072 0-.126.015-.162.045-.036.03-.048.07-.035.119a.19.19 0 0 0 .096.115c.052.031.114.046.184.046s.125-.015.162-.044c.037-.03.049-.068.037-.115a.19.19 0 0 0-.097-.119.351.351 0 0 0-.185-.047zm-.106-.409a.234.234 0 0 0-.138.035.098.098 0 0 0-.042.095l.004.016c.011.042.04.076.087.104a.321.321 0 0 0 .165.042.202.202 0 0 0 .138-.043c.033-.029.045-.063.034-.104a.168.168 0 0 0-.085-.105.31.31 0 0 0-.163-.04zM185.516 171.116l-.072-.023c-.114-.044-.182-.108-.203-.192-.021-.081.005-.144.077-.19.072-.046.182-.069.33-.069.146 0 .267.023.364.069.097.046.156.11.176.191.013.05.006.092-.02.126s-.075.063-.148.089l.067.018c.046.016.08.03.102.043.034.02.064.047.092.079a.253.253 0 0 1 .054.1c.021.082-.009.147-.089.195a.695.695 0 0 1-.352.073.904.904 0 0 1-.384-.074c-.105-.049-.168-.114-.188-.194a.185.185 0 0 1 .003-.099.163.163 0 0 1 .055-.08.353.353 0 0 1 .136-.062zm.268.056c-.072 0-.126.015-.162.045-.036.03-.048.07-.035.119a.19.19 0 0 0 .096.115.354.354 0 0 0 .184.046.258.258 0 0 0 .162-.044c.037-.03.049-.068.037-.115a.19.19 0 0 0-.097-.119.349.349 0 0 0-.185-.047zm-.105-.409a.234.234 0 0 0-.138.035.098.098 0 0 0-.042.095l.004.016c.011.042.04.076.087.104a.321.321 0 0 0 .165.042.202.202 0 0 0 .138-.043c.033-.029.045-.063.034-.104a.165.165 0 0 0-.085-.105.313.313 0 0 0-.163-.04zM186.357 171.131c-.04-.157-.024-.278.047-.364.071-.086.191-.129.36-.129.168 0 .31.043.426.129a.632.632 0 0 1 .233.364c.04.156.024.277-.047.364-.071.087-.191.131-.359.131a.691.691 0 0 1-.426-.129.635.635 0 0 1-.234-.366zm.447-.351c-.08 0-.135.031-.166.094-.03.063-.032.149-.004.258a.564.564 0 0 0 .133.255.283.283 0 0 0 .207.096c.08 0 .135-.031.166-.093.031-.063.032-.147.005-.255a.57.57 0 0 0-.133-.261.28.28 0 0 0-.208-.094zM187.438 170.965l-.041-.162a.564.564 0 0 0 .255-.142h.233l.24.941h-.278l-.188-.738a.798.798 0 0 1-.221.101z"/></g></g></g><g><path d="M284.34 185.172v-12.693h-53.673v53.673h20.971v-.153l.115-.268.211-.211.288-.115.153-.019.153.019.268.115.211.211.115.268.019.153h8.684l.019-.153.115-.268.192-.211.288-.115.153-.019.153.019.288.115.192.211.115.268.019.153h20.952v-38.418h-1.271v-2.563h1.27zm-26.827 19.262a5.11 5.11 0 1 1 0-10.218 5.11 5.11 0 0 1 0 10.218z" fill-rule="evenodd" clip-rule="evenodd" fill="#0a080b"/><path fill="#3b3b3b" d="M265.858 202.575v.153l-.115.287-.211.211-.288.115h-.306l-.269-.115-.211-.211-.115-.287-.019-.153.019-.154.115-.268.211-.211.269-.115.153-.019.153.019.288.115.211.211.115.268v.154zM257.503 208.268h.269l.498.115.671.306.709.691.307.67.096.499.019.268v10.217l-.019.269-.096.498-.307.69-.709.69-.671.307-.498.096-.269.019-.249-.019-.498-.096-.69-.307-.69-.69-.307-.69-.115-.498V210.549l.115-.499.307-.67.69-.691.69-.306.498-.115h.249z"/><path d="M262.621 199.316l-.019.537-.211.997-.383.92-.556.805-.69.69-.805.556-.92.383-.997.211-.537.019-.518-.019-.997-.211-.92-.383-.824-.556-.69-.69-.556-.805-.383-.92-.192-.997-.019-.537.019-.518.192-.997.383-.92.556-.824.69-.69.824-.556.92-.383.997-.192.518-.019.537.019.997.192.92.383.805.556.69.69.556.824.383.92.211.997.019.518zm1.285 0l-.019.671-.268 1.246-.479 1.131-.69 1.035-.863.863-1.035.69-1.131.479-1.246.249-.671.038-.652-.038-1.246-.249-1.15-.479-1.016-.69-.863-.863-.69-1.035-.498-1.131-.249-1.246-.019-.671.019-.652.249-1.246.498-1.15.69-1.016.863-.863 1.016-.69 1.15-.498 1.246-.249.652-.019.671.019 1.246.249 1.131.498 1.035.69.863.863.69 1.016.479 1.15.268 1.246.019.652z" fill-rule="evenodd" clip-rule="evenodd" fill="#3b3b3b"/><path d="M264.66 185.345h-32.59a.432.432 0 0 1-.431-.431v-9.32c0-.237.194-.431.431-.431h32.59c.237 0 .431.194.431.431v9.32a.432.432 0 0 1-.431.431z" fill="#dfdfde"/><path d="M238.156 175.163h26.504c.237 0 .431.194.431.431v2.886h-26.935v-3.317z" fill="#938caa"/><path d="M238.156 178.48v-3.316h-6.086a.432.432 0 0 0-.431.431v2.886h6.517z" fill="#070308"/><g fill="#dfdfde"><path d="M235.628 175.923c.259-.034.485.17.405.435a.64.64 0 0 1-.083.13s.108.1.12.165c.049.27-.154.429-.361.435-.219.006-.46-.142-.413-.42.006-.038.032-.073.044-.096.013-.023.073-.084.073-.084s-.08-.128-.088-.181c-.027-.197.09-.356.303-.384zm-.052.325c0 .142.214.14.214.007 0-.15-.214-.152-.214-.007zm.11.619c.167 0 .168-.251-.003-.251s-.166.251.003.251zM234.769 175.923c.259-.034.485.17.405.435a.64.64 0 0 1-.083.13s.108.1.12.165c.049.27-.154.429-.361.435-.219.006-.46-.142-.413-.42.006-.038.032-.073.044-.096.013-.023.073-.084.073-.084s-.08-.128-.088-.181c-.027-.197.091-.356.303-.384zm-.051.325c0 .142.214.14.214.007 0-.15-.214-.152-.214-.007zm.11.619c.167 0 .168-.251-.003-.251s-.167.251.003.251zM236.529 175.919a.401.401 0 0 1 .31.096c.192.184.223.786-.007.988a.438.438 0 0 1-.442.052c-.144-.071-.229-.26-.243-.479-.024-.344.074-.626.382-.657zm.044.943c.231-.005.221-.774-.037-.708-.183.048-.18.713.037.708zM234.009 175.936v.228c-.626-.168-.622.844-.008.676v.228c-.951.239-.955-1.351.008-1.132z"/><path d="M232.763 176.623l.001-.228c.111 0 .177-.038.177-.119 0-.066-.011-.132-.235-.132l.001.948h-.24l.003-1.178h.232c.446.002.499.181.499.354-.001.25-.176.355-.438.355zM237.329 175.915v1.177h-.236v-1.177zM234.048 176.416h.278v.177h-.278z"/></g><path fill="#938caa" d="M255.805 179.277h3.666v3.666h-3.666z"/><path fill="none" stroke="#070308" stroke-width=".122" stroke-miterlimit="10" d="M254.954 181.11h-22.488M260.303 181.11h4.021"/></g></svg>