<svg xmlns="http://www.w3.org/2000/svg" viewBox="0 0 65.89 65.89"><path d="M65.89 15.582V0H0v65.89h25.744v-.188l.141-.329.259-.259.353-.141.188-.024.188.024.329.141.259.259.141.329.023.188h10.66l.023-.188.141-.329.235-.259.353-.141.188-.024.188.024.353.141.235.259.141.329.024.188H65.89V18.728h-1.561v-3.146h1.561zM32.957 39.228a6.27 6.27 0 1 1 0-12.542 6.27 6.27 0 0 1 0 12.542z" fill-rule="evenodd" clip-rule="evenodd" fill="#040006"/><path fill="#3b3b3b" d="M43.201 36.945v.189l-.141.353-.259.259-.353.141h-.376l-.33-.141-.259-.259-.141-.353-.023-.189.023-.188.141-.329.259-.259.33-.141.188-.024.188.024.353.141.259.259.141.329v.188zM32.945 43.934h.329l.612.142.824.376.871.847.376.824.118.612.023.329v12.543l-.023.329-.118.612-.376.847-.871.847-.824.377-.612.118-.329.023-.306-.023-.612-.118-.847-.377-.847-.847-.377-.847-.141-.612V46.735l.141-.612.377-.824.847-.847.847-.376.612-.142h.306z"/><path d="M39.228 32.945l-.024.659-.259 1.224-.471 1.13-.682.988-.847.847-.988.682-1.13.471-1.224.259-.659.024-.635-.024-1.224-.259-1.13-.471-1.012-.682-.847-.847-.682-.988-.471-1.13-.235-1.224-.024-.659.024-.635.235-1.224.471-1.13.682-1.012.847-.847 1.012-.682 1.13-.471 1.224-.235.635-.024.659.024 1.224.235 1.13.471.988.682.847.847.682 1.012.471 1.13.259 1.224.024.635zm1.577 0l-.024.824-.329 1.53-.588 1.388-.847 1.271-1.059 1.059-1.271.847-1.388.588-1.53.306-.824.047-.8-.047-1.53-.306-1.412-.588-1.247-.847-1.059-1.059-.847-1.271-.612-1.388-.306-1.53-.024-.824.024-.8.306-1.53.612-1.412.847-1.247 1.059-1.059 1.247-.847 1.412-.612 1.53-.306.8-.024.824.024 1.53.306 1.388.612 1.271.847 1.059 1.059.847 1.247.588 1.412.329 1.53.024.8z" fill-rule="evenodd" clip-rule="evenodd" fill="#3b3b3b"/><path d="M41.731 15.794H1.723a.53.53 0 0 1-.529-.529V3.824a.53.53 0 0 1 .529-.529h40.008a.53.53 0 0 1 .529.529v11.442a.53.53 0 0 1-.529.528z" fill="#dfdfde"/><path d="M9.194 3.295h32.537a.53.53 0 0 1 .529.529v3.542H9.194V3.295z" fill="#968fae"/><path d="M9.194 7.366V3.295H1.723a.53.53 0 0 0-.529.529v3.542h8z"/><g fill="#dfdfde"><path d="M6.09 4.228c.318-.041.595.209.498.534-.016.051-.103.159-.103.159s.133.123.148.203c.061.331-.19.527-.443.534-.269.007-.565-.175-.507-.516.008-.046.039-.09.054-.118.016-.028.09-.103.09-.103s-.099-.156-.108-.222c-.034-.241.11-.437.371-.471zm-.063.399c0 .174.262.172.262.009 0-.185-.262-.187-.262-.009zm.135.759c.205 0 .206-.308-.004-.308-.21.001-.204.308.004.308zM5.037 4.228c.318-.041.595.209.498.534-.016.051-.103.159-.103.159s.133.123.148.203c.06.331-.19.527-.444.534-.269.007-.565-.175-.507-.516.008-.046.039-.09.054-.118.016-.028.09-.103.09-.103s-.098-.156-.107-.222c-.034-.241.109-.437.371-.471zm-.064.399c0 .174.262.172.262.009.001-.185-.262-.187-.262-.009zm.136.759c.205 0 .206-.308-.004-.308-.21.001-.205.308.004.308zM7.197 4.222a.488.488 0 0 1 .38.118c.236.226.274.965-.009 1.212a.538.538 0 0 1-.543.064c-.177-.087-.281-.32-.299-.588-.028-.421.093-.767.471-.806zm.054 1.158c.283-.006.272-.95-.045-.869-.225.059-.221.875.045.869zM4.103 4.243v.28c-.769-.207-.763 1.036-.01.83v.28c-1.167.293-1.172-1.659.01-1.39z"/><path d="M2.573 5.087l.001-.28c.136 0 .217-.047.217-.146 0-.081-.013-.161-.288-.161l.001 1.164h-.295l.003-1.446h.285c.548.002.612.222.612.434 0 .306-.213.435-.536.435zM8.179 4.218v1.444h-.29V4.218zM4.151 4.832h.341v.217h-.341z"/></g><path fill="#968fae" d="M30.861 8.345h4.5v4.5h-4.5z"/><path fill="none" stroke="#000" stroke-width=".15" stroke-miterlimit="10" d="M29.815 10.595H2.209M36.382 10.595h4.937"/></svg>