<svg xmlns="http://www.w3.org/2000/svg" viewBox="0 0 30 30"><path d="M11.95 28.381A3.68 3.68 0 0 0 15 30.002c1.236 0 2.374-.62 3.05-1.621.107-.164.202-.339.282-.522a.48.48 0 0 0-.245-.631h-.001l-1.895-.832 13.522-5.935a.479.479 0 0 0 .246-.631c-2.608-5.933-8.48-9.767-14.959-9.767S2.648 13.898.041 19.831a.48.48 0 0 0 .245.631h.001l8.707 3.821 4.815 2.113-1.895.832a.478.478 0 0 0-.246.63v.001c.081.184.175.358.282.522z" fill="#3a3a3a"/><path d="M15 11.021a15.386 15.386 0 0 0-13.883 8.76l7.84 3.441a6.823 6.823 0 0 1 2.3-2.533l.012-.009.016-.009a6.822 6.822 0 0 1 7.446.01l.01.006.017.012a6.821 6.821 0 0 1 2.286 2.523l7.84-3.441A15.39 15.39 0 0 0 15 11.021zm-4.255 8.858a.478.478 0 0 1-.662-.138l-.001-.001-3.108-4.75a.478.478 0 1 1 .802-.525l3.108 4.75a.479.479 0 0 1-.139.664zm4.253-1.266a.479.479 0 0 1-.479-.478l-.006-5.677a.479.479 0 0 1 .957-.001l.006 5.677a.478.478 0 0 1-.478.479zm8.042-3.622l-3.112 4.757a.479.479 0 0 1-.662.139h-.001a.48.48 0 0 1-.139-.663l3.112-4.757a.48.48 0 0 1 .802.524z" fill="#737373"/><path d="M15.479 20.548l.005 4.242 2.321-3.548a5.866 5.866 0 0 0-2.326-.694zm-5.643 3.059l3.895 1.709-2.327-3.557a5.87 5.87 0 0 0-1.568 1.848z" fill="#a7a7a7"/><path d="M12.777 27.895a2.684 2.684 0 0 0 4.446 0L15 26.919l-2.223.976zm1.75-3.11l-.005-4.237c-.812.066-1.6.301-2.316.689l2.321 3.548zm4.079-3.018l-2.316 3.541 3.875-1.701a5.888 5.888 0 0 0-1.559-1.84z" fill="#ccc"/><path d="M7.776 14.466a.48.48 0 0 0-.802.524l3.108 4.75a.479.479 0 0 0 .662.139l.001-.001a.48.48 0 0 0 .139-.663l-3.108-4.749zm15.125-.138a.479.479 0 0 0-.663.138l-3.112 4.757a.479.479 0 1 0 .801.524l3.112-4.757a.478.478 0 0 0-.138-.662zm-7.909-2.349a.48.48 0 0 0-.479.479l.006 5.677a.479.479 0 0 0 .957-.001l-.006-5.677a.478.478 0 0 0-.478-.478z" fill="#3a3a3a"/></svg>