<svg enable-background="new 0 0 437.543 289.901" viewBox="0 0 437.543 289.901" xmlns="http://www.w3.org/2000/svg" xmlns:xlink="http://www.w3.org/1999/xlink"><linearGradient id="a" gradientUnits="userSpaceOnUse" x1="380.6671" x2="380.6671" y1="274.1687" y2="175.3516"><stop offset="0" stop-color="#648a8e"/><stop offset="1" stop-color="#8dbcd2"/></linearGradient><path d="m223.145 4h-158.29c-1.104 0-2-.895-2-2s.896-2 2-2h158.289c1.104 0 2 .896 2 2s-.896 2-1.999 2z" fill="#c01e10"/><path d="m44.5 281.166v5.871c0 1.584-.918 2.864-2.5 2.864s-2.5-1.28-2.5-2.864v-5.871c0-1.583.918-2.864 2.5-2.864s2.5 1.281 2.5 2.864z" fill="#356631"/><path d="m285 285.022c1.65-.013 3-1.372 3-3.022v-260.5c0-11-9-20-20-20h-248c-11 0-20 9-20 20v260.5c0 1.65 1.35 3 3 3h13.5c1.65 0 4.191-.635 5.648-1.409l118.702-63.182c1.457-.774 3.854-.802 5.328-.06l125.892 63.398c1.474.742 4.029 1.34 5.68 1.327z" fill="#ccc"/><path d="m280 21.345c0-6.6-5.3-11.845-11.899-11.845h-248.202c-6.6 0-11.899 5.245-11.899 11.845l-.1 262.53c-.001 1.1.898 2 1.999 2h21.034c1.101 0 2-.9 2-2v-1.945c0-1.1.9-2 2-2h8.238c1.101 0 2 .9 2 2v1.945c0 1.1.9 2 2 2h14.782c1.101 0 2.767-.471 3.704-1.047l76.138-46.781c.938-.576 2.474-.58 3.414-.01l77.126 46.801c.941.57 2.609 1.037 3.71 1.037h14.881c1.101 0 2-.9 2-2v-1.945c0-1.1.9-2 2-2h8.239c1.1 0 2 .9 2 2v1.945c0 1.1.9 2 2 2h20.935c1.1 0 2-.9 2-2z" fill="#e6e6e6"/><path d="m223 287c1.1 0 2-.9 2-2v-180.343c0-44.889-36.111-81.33-81-81.33s-81 36.338-81 81.227v180.446c0 1.1.9 2 2 2h16.5c1.1 0 2-.9 2-2v-.459c0-1.1.9-2 2-2h23.012c1.1 0 2.854-.284 3.898-.632l29.192-9.72c1.044-.348 2.748-.337 3.787.023l29.222 10.132c1.039.36 2.79.655 3.89.655h24c1.1 0 2 .9 2 2 0 1.1.9 2 2 2h16.499z" fill="#d9d9d9"/><path d="m38.485 81c3.506 0 6.015 2.445 6.015 5.951v50.74c0 3.506-2.494 6.348-6 6.348s-6-2.842-6-6.348v-43.691h-24.601l-5.565-6.219 5.565-6.781z" fill="#ccc"/><path d="m249.682 81c-3.506 0-6.182 2.445-6.182 5.951v50.74c0 3.506 2.994 6.348 6.5 6.348s6.5-2.842 6.5-6.348v-43.691h23.768l5.566-6.219-5.566-6.781z" fill="#ccc"/><path d="m45.5 285v-23.372c0-3.506-2.994-6.348-6.5-6.348s-6.5 2.842-6.5 6.348v23.372" fill="#ccc"/><path d="m53.5 281c0 1.104-.896 2-2 2h-25c-1.104 0-2-.896-2-2v-15c0-1.104.896-2 2-2h25c1.104 0 2 .896 2 2z" fill="#ccc"/><path d="m255.5 285v-23.188c0-3.506-2.994-6.348-6.5-6.348s-6.5 2.842-6.5 6.348v23.188" fill="#ccc"/><path d="m7.5 209h55.5v4h-55.5z" fill="#b3b3b3"/><path d="m7.5 217h55.5v4h-55.5z" fill="#b3b3b3"/><path d="m7.5 225h55.5v4h-55.5z" fill="#b3b3b3"/><path d="m7.5 233h55.5v4h-55.5z" fill="#b3b3b3"/><path d="m7.5 241h55.5v4h-55.5z" fill="#b3b3b3"/><path d="m225 209h55.5v4h-55.5z" fill="#b3b3b3"/><path d="m225 217h55.5v4h-55.5z" fill="#b3b3b3"/><path d="m225 225h55.5v4h-55.5z" fill="#b3b3b3"/><path d="m225 233h55.5v4h-55.5z" fill="#b3b3b3"/><path d="m225 241h55.5v4h-55.5z" fill="#b3b3b3"/><path d="m204.5 285v-115.5c0-2.75-2.25-4.5-5-4.5h-111c-2.75 0-5 1.75-5 4.5v115.5h28l32.5-22.166 31.5 22.166z" fill="#bfbfbf"/><path d="m85.5 169h116v3h-116z" fill="#080a00"/><path d="m85.5 173h116v2h-116z" fill="#b3b3b3"/><path d="m90.5 174h2v70h-2z" fill="#b3b3b3"/><path d="m100.5 174h2v70h-2z" fill="#b3b3b3"/><path d="m111.5 174h2v43h-2z" fill="#b3b3b3"/><path d="m121.5 174h2v43h-2z" fill="#b3b3b3"/><path d="m132.5 174h2v43h-2z" fill="#b3b3b3"/><path d="m142.5 184h2v33h-2z" fill="#b3b3b3"/><path d="m137.365 188.597 1.099 1.023 5.034-5.418 5.037 5.418 1.098-1.023-6.135-6.597z" fill="#b3b3b3"/><path d="m153.5 174h2v43h-2z" fill="#b3b3b3"/><path d="m163.5 174h2v43h-2z" fill="#b3b3b3"/><path d="m174.5 174h2v43h-2z" fill="#b3b3b3"/><path d="m184.5 174h2v70h-2z" fill="#b3b3b3"/><path d="m195.5 174h2v70h-2z" fill="#b3b3b3"/><path d="m143.5 281.001c19.333 0 32 3.997 32 3.997v-29.439c0-17.734-14.266-32.131-32-32.131s-32 14.356-32 32.09v29.48s12.667-3.997 32-3.997z" fill="#a6a6a6"/><path d="m109.121 132.27c-.061 0-.122-.015-.18-.041-5.921-2.874-8.979-6.225-8.842-9.69.111-2.852 2.439-5.544 6.731-7.788 4.071-2.129 9.816-3.816 16.612-4.883.227-.037.438.118.473.345.037.228-.119.439-.346.474-13.764 2.163-22.439 6.716-22.641 11.885-.121 3.066 2.851 6.23 8.373 8.909.207.101.293.349.192.556-.069.147-.218.233-.372.233z" fill="#c01e10"/><path d="m160.734 110.992c-.023 0-.045-.002-.067-.006-4.373-.719-8.991-1.197-13.722-1.424-.23-.012-.406-.205-.395-.436.011-.228.21-.403.435-.393 4.764.228 9.412.709 13.816 1.434.227.036.381.25.344.477-.034.204-.21.348-.411.348z" fill="#c01e10"/><path d="m147.668 139c-.116 0-.232 0-.349 0-.229 0-.414 0-.414 0s.186 0 .415 0h.002c.114 0 .23-.242.346-.242 22.215 0 39.745-5.898 39.975-13.318.081-2.596-2.005-5.292-6.034-7.68-4.012-2.378-9.762-4.434-16.627-5.891-.225-.049-.368-.283-.32-.508.047-.225.268-.373.492-.326 6.953 1.475 12.789 3.53 16.879 5.953 4.305 2.551 6.531 5.44 6.439 8.357-.122 3.947-4.481 7.371-12.275 9.955-7.535 2.501-17.654 3.7-28.529 3.7z" fill="#c01e10"/><path d="m155.186 117.732 10.959-8.353-12.872 5.137-3.618-3.765 1.154 5.218-10.959 8.353 12.872-5.139 3.617 3.764z" fill="#c01e10"/><path d="m141.461 128.161c.156-.774.443-.661 1.228-.786l.73-.116-.227 1.218-.731.117c-.783.124-1.129.334-1-.433zm-1.583-1.114-.568 3.057c-.155.834.097 1.104.899.976l4.65-.737.997-5.361-4.651.736c-.803.127-1.174.494-1.327 1.329zm29.521-4.826-.055.297 4.798-.762c.378-.062.747-.444.824-.857.076-.414-.168-.701-.547-.641l-1.232.195-1.966.313-.497.077c-.576.093-1.208.749-1.325 1.378zm-33.655 13.824.039-.215c.164.014.386.076.578.047l4.986-.781c-.186.996-1.499 1.243-3.504 1.561l-2.282.363-1.224 6.578 2.998-.475c7.381-.729 10.19-4.541 11.09-9.09l8.993-1.427 1.449-7.798.731-.118c.802-.128.684-.272.529.562l-1.326 7.135 6.457-1.025.088-.473c.487.215 1.057.291 1.66.196l11.165-1.771 1.042-5.605-.725-.516c.628-.742 1.116-1.65 1.258-2.414l.176-.885c.558-3.305-2.49-4.183-3.881-3.961l-6.408 1.016c-1.135.181-2.385.971-3.294 2.018-.841-.831-2.138-1.155-2.894-1.035l-7.133 1.131.798 1.765 6.435-1.019c.928-.148 1.547.223 1.717.957-.068.195-1.717 8.977-1.717 8.977l-2.307.365 1.236-6.648c.154-.831-.099-1.102-.9-.973l-4.42.701-1.45 7.799-2.536.402 1.66-8.928-2.088-2.463-7.516 2.717 3.562-.566.058-.006-2.265 12.182c-.576 3.098-3.879 6.057-6.809 6.521l-2.998.475.455-2.438 2.28-.361c2.005-.318 4.262-2.326 4.65-4.424l.246-1.32-5.938.942c-1.273.202-1.965-.571-1.713-1.915l1.064-5.729c.188-1.018.823-1.863 1.674-2.303l.014-.151 2.979-2.294-1.74.294c-.926.146-2.643.84-3.734 2.231-.824-.983-2.268-1.37-3.08-1.241l-6.4 1.017 1.044-5.606 4.669-.741c2.485-.394 5.236-3.189 5.725-5.814l.701-3.778c.489-2.627-1.357-4.693-3.844-4.299l-10.204 1.619-2.175 11.698-9.396 1.491c-.795.127-1.568.91-1.725 1.751l-3.512 18.888c-.154.84.363 1.421 1.158 1.295l17.93-2.845 1.45-7.798.73-.118c.804-.126.685-.271.529.563l-1.326 7.133zm-13.305-4.277-5.996.952.227-1.217 4.842-.77 1.178-6.337-4.842.77.226-1.219 5.995-.951zm-.363 1.951-.498 2.68-10.607 1.684 3.307-17.791 8.762-1.391-.452 2.438-6.226.987-.951 5.118 5.072-.805-.453 2.437-5.072.805-.953 5.118zm12.185.67-2.537.4 1.235-6.646c.156-.833-.096-1.102-.898-.977l-4.421.703-1.449 7.799-2.537.402 1.901-10.235.059-.01 8.416-1.335c1.272-.202 1.964.57 1.714 1.916zm16.487-12.551 2.479-.392-1.903 10.235-2.535.4 1.902-10.233zm15.385 4.822.881-4.733c.278-1.497 1.888-2.968 3.259-3.187l5.932-.94c.999-.159 1.693.958 1.489 2.05l-.291 1.524c-.203 1.093-1.319 2.254-2.318 2.413l-6.158.977-.088.553c-.117.629.301 1.119.876 1.027l6.883-1.096-.464 2.496-7.764 1.231c-1.372.218-2.515-.814-2.237-2.315zm-36.697-13.267.861-4.631 3.226-.512c.424-.067.641.174.557.621l-.589 3.169c-.083.448-.404.773-.827.841z" fill="#c01e10"/><path d="m150.069 115.559-.685-2.714-.386.047-.125.669c-.085.465-.459.842-.896.912l-2.651.42c-.439.07-.689-.209-.603-.674l1.337-7.19c.086-.461.459-.84.896-.91l2.652-.42c.436-.07.688.21.601.672l-.171.915 5.362-.852.203-1.095c.514-2.767-1.365-4.869-3.984-4.455l-5.129.814c-2.617.414-5.419 3.261-5.933 6.025l-1.427 7.678c-.514 2.766 1.365 4.868 3.984 4.453l1.715-.271z" fill="#c01e10"/><path d="m153.871 113.922c.14-.377.236-.521.308-.906l.183-.976-2.135.339z" fill="#c01e10"/><path d="m83.546 280h17.11c1.313 0 2.373-1.19 2.373-2.5 0-1.311-1.061-2.5-2.373-2.5h-17.11" fill="#080a00"/><path clip-rule="evenodd" d="m26.85 29.623-4.471-5.355-2.031 2.322.975.891-1.164 6.445 2.337-1.025-1.206-1.117.669-3.409 4.709 5.428 1.626-7.401 1.646-.996-1.99-1.211zm3.937-4.458c.141.159.317.363.276.579l-.55 2.895c-.043.226-.244.391-.401.504s-.351.144-.544.174c.167.065.334.131.445.252.113.121.267.294.227.476l-.629 2.819c-.059.26-.324.423-.512.564-.189.142-.403.214-.618.286h7.523l.528-2.821c-.289.586-.579 1.171-1.071 1.547-.494.375-1.17.705-1.886.705h-1.378l.688-3.49c.25-.086.532-.077.787.047.256.123.482.362.688.622.203.26.383.54.525.837l.721-3.671c-.246.27-.521.514-.815.733-.296.22-.611.416-.907.513-.297.098-.572.098-.828.022l.713-3.436 1.109-.011c.502-.004 1.004-.065 1.408.267.406.332.717 1.028 1.025 1.725l.549-2.515h-7.647c.216.108.431.217.574.377zm9.012.881c-.563.479-1.07 1.117-1.408 1.812s-.509 1.449-.518 2.138c-.008.691.145 1.32.426 1.896.282.577.692 1.101 1.199 1.455.508.355 1.111.541 1.665.626s1.058.07 1.457.015c.399-.057.693-.152.962-.302l1.587-3.298c-.411.193-.829.369-1.263.548s-.883.361-1.359.419c-.477.057-.98-.01-1.428-.275-.447-.266-.838-.73-1.041-1.252-.203-.52-.217-1.097-.075-1.617.142-.521.441-.985.806-1.392.363-.406.791-.756 1.188-.986s.765-.342 1.14-.369l1.199 1.727 1.379-.515-.967-2.366c-.272-.01-.547.001-.871.037-.324.035-.699.095-1.088.194-.389.1-.792.24-1.302.471-.509.231-1.127.554-1.688 1.034z" fill="#d3d3d4" fill-rule="evenodd"/><path d="m72.934 9.845v-8.345c0-.718.782-1.3 1.5-1.3s1.5.582 1.5 1.3v8.345" fill="#e6e6e6"/><path d="m79.258 9.845v-8.345c0-.718.782-1.3 1.5-1.3s1.5.582 1.5 1.3v8.345" fill="#e6e6e6"/><path d="m85.582 9.845v-8.345c0-.718.782-1.3 1.5-1.3s1.5.582 1.5 1.3v8.345" fill="#e6e6e6"/><path d="m91.906 9.845v-8.345c0-.718.782-1.3 1.5-1.3s1.5.582 1.5 1.3v8.345" fill="#e6e6e6"/><path d="m98.23 9.845v-8.345c0-.718.782-1.3 1.5-1.3s1.5.582 1.5 1.3v8.345" fill="#e6e6e6"/><path d="m104.555 9.845v-8.345c0-.718.782-1.3 1.5-1.3s1.5.582 1.5 1.3v8.345" fill="#e6e6e6"/><path d="m110.879 9.845v-8.345c0-.718.782-1.3 1.5-1.3s1.5.582 1.5 1.3v8.345" fill="#e6e6e6"/><path d="m117.203 9.845v-8.345c0-.718.782-1.3 1.5-1.3s1.5.582 1.5 1.3v8.345" fill="#e6e6e6"/><path d="m123.527 9.845v-8.345c0-.718.782-1.3 1.5-1.3s1.5.582 1.5 1.3v8.345" fill="#e6e6e6"/><path d="m129.852 9.845v-8.345c0-.718.782-1.3 1.5-1.3s1.5.582 1.5 1.3v8.345" fill="#e6e6e6"/><path d="m136.176 9.845v-8.345c0-.718.782-1.3 1.5-1.3s1.5.582 1.5 1.3v8.345" fill="#e6e6e6"/><path d="m142.5 9.845v-8.345c0-.718.782-1.3 1.5-1.3s1.5.582 1.5 1.3v8.345" fill="#e6e6e6"/><path d="m148.824 9.845v-8.345c0-.718.782-1.3 1.5-1.3s1.5.582 1.5 1.3v8.345" fill="#e6e6e6"/><path d="m155.148 9.845v-8.345c0-.718.782-1.3 1.5-1.3s1.5.582 1.5 1.3v8.345" fill="#e6e6e6"/><path d="m161.473 9.845v-8.345c0-.718.782-1.3 1.5-1.3s1.5.582 1.5 1.3v8.345" fill="#e6e6e6"/><path d="m167.797 9.845v-8.345c0-.718.782-1.3 1.5-1.3s1.5.582 1.5 1.3v8.345" fill="#e6e6e6"/><path d="m174.121 9.845v-8.345c0-.718.782-1.3 1.5-1.3s1.5.582 1.5 1.3v8.345" fill="#e6e6e6"/><path d="m180.445 9.845v-8.345c0-.718.782-1.3 1.5-1.3s1.5.582 1.5 1.3v8.345" fill="#e6e6e6"/><path d="m186.77 9.845v-8.345c0-.718.782-1.3 1.5-1.3s1.5.582 1.5 1.3v8.345" fill="#e6e6e6"/><path d="m193.094 9.845v-8.345c0-.718.782-1.3 1.5-1.3s1.5.582 1.5 1.3v8.345" fill="#e6e6e6"/><path d="m199.418 9.845v-8.345c0-.718.782-1.3 1.5-1.3s1.5.582 1.5 1.3v8.345" fill="#e6e6e6"/><path d="m205.742 9.845v-8.345c0-.718.782-1.3 1.5-1.3s1.5.582 1.5 1.3v8.345" fill="#e6e6e6"/><path d="m212.066 9.845v-8.345c0-.718.782-1.3 1.5-1.3s1.5.582 1.5 1.3v8.345" fill="#e6e6e6"/><path d="m437.543 283.277c0 3.644-2.981 6.624-6.624 6.624h-100.505c-3.644 0-6.624-2.98-6.624-6.624v-162.293c0-3.644 2.98-6.624 6.624-6.624h100.505c3.643 0 6.624 2.98 6.624 6.624z" fill="#e6e6e6"/><path d="m328.413 175.352h104.508v98.817h-104.508z" fill="url(#a)"/><path d="m326.847 118.22v45.713c0 3.686 2.98 6.702 6.624 6.702h94.391c3.644 0 6.624-3.016 6.624-6.702v-45.713z" fill="#181d22"/><path d="m326.847 118.22h107.639v9.136h-107.639z"/><path d="m395.968 281.871-15.119-4.529c-.12-.036-.247-.036-.367 0l-15.118 4.529c-.271.081-.456.33-.456.613v3.951c0 .353.286.64.64.64h30.236c.353 0 .64-.286.64-.64v-3.951c0-.283-.185-.532-.456-.613z" fill="#d3d3d3"/><g fill="#c9a834"><path d="m329.72 120.465h1.54v6.085h-1.54z"/><path d="m332.432 119.513h1.539v7.037h-1.539z"/><path d="m335.145 119.513h1.539v7.037h-1.539z"/><path d="m337.857 119.513h1.539v7.037h-1.539z"/><path d="m340.569 119.513h1.54v7.037h-1.54z"/><path d="m343.281 119.513h1.539v7.037h-1.539z"/><path d="m345.994 119.513h1.539v7.037h-1.539z"/><path d="m348.706 119.513h1.539v7.037h-1.539z"/><path d="m351.418 119.513h1.54v7.037h-1.54z"/><path d="m354.131 119.513h1.539v7.037h-1.539z"/><path d="m356.843 119.513h1.539v7.037h-1.539z"/><path d="m359.555 119.513h1.54v7.037h-1.54z"/><path d="m362.267 119.513h1.539v7.037h-1.539z"/><path d="m364.98 119.513h1.539v7.037h-1.539z"/><path d="m367.691 119.513h1.54v7.037h-1.54z"/><path d="m370.404 119.513h1.539v7.037h-1.539z"/><path d="m373.116 119.513h1.539v7.037h-1.539z"/><path d="m375.829 118.22h1.539v9.136h-1.539z"/><path d="m378.54 119.513h1.54v7.037h-1.54z"/><path d="m381.253 119.513h1.539v7.037h-1.539z"/><path d="m383.965 119.513h1.539v7.037h-1.539z"/><path d="m386.678 119.513h1.539v7.037h-1.539z"/><path d="m389.389 119.513h1.54v7.037h-1.54z"/><path d="m392.102 119.513h1.539v7.037h-1.539z"/><path d="m394.814 119.513h1.539v7.037h-1.539z"/><path d="m397.526 119.513h1.54v7.037h-1.54z"/><path d="m400.239 119.513h1.539v7.037h-1.539z"/><path d="m402.951 119.513h1.539v7.037h-1.539z"/><path d="m405.663 119.513h1.539v7.037h-1.539z"/><path d="m408.375 119.513h1.54v7.037h-1.54z"/><path d="m411.088 119.513h1.539v7.037h-1.539z"/><path d="m413.8 119.513h1.539v7.037h-1.539z"/><path d="m416.512 119.513h1.54v7.037h-1.54z"/><path d="m419.224 119.513h1.54v7.037h-1.54z"/><path d="m421.937 119.513h1.539v7.037h-1.539z"/><path d="m424.649 119.513h1.539v7.037h-1.539z"/><path d="m427.361 119.513h1.54v7.037h-1.54z"/><path d="m430.073 118.22h1.539v9.136h-1.539z"/></g><circle cx="330.49" cy="125.868" fill="#1e1713" r=".372"/><circle cx="333.202" cy="125.868" fill="#1e1713" r=".372"/><circle cx="335.914" cy="125.868" fill="#1e1713" r=".372"/><circle cx="338.626" cy="125.868" fill="#1e1713" r=".372"/><circle cx="341.339" cy="125.868" fill="#1e1713" r=".372"/><circle cx="344.051" cy="125.868" fill="#1e1713" r=".372"/><circle cx="346.763" cy="125.868" fill="#1e1713" r=".372"/><circle cx="349.475" cy="125.868" fill="#1e1713" r=".372"/><circle cx="352.187" cy="125.868" fill="#1e1713" r=".372"/><circle cx="354.899" cy="125.868" fill="#1e1713" r=".372"/><circle cx="357.611" cy="125.868" fill="#1e1713" r=".372"/><circle cx="360.323" cy="125.868" fill="#1e1713" r=".372"/><circle cx="363.036" cy="125.868" fill="#1e1713" r=".372"/><circle cx="365.748" cy="125.868" fill="#1e1713" r=".372"/><circle cx="368.46" cy="125.868" fill="#1e1713" r=".372"/><circle cx="371.172" cy="125.868" fill="#1e1713" r=".372"/><circle cx="373.884" cy="125.868" fill="#1e1713" r=".372"/><circle cx="376.596" cy="125.868" fill="#1e1713" r=".372"/><circle cx="379.308" cy="125.868" fill="#1e1713" r=".372"/><circle cx="382.021" cy="125.868" fill="#1e1713" r=".372"/><circle cx="384.733" cy="125.868" fill="#1e1713" r=".372"/><circle cx="387.445" cy="125.868" fill="#1e1713" r=".372"/><circle cx="390.157" cy="125.868" fill="#1e1713" r=".372"/><circle cx="392.869" cy="125.868" fill="#1e1713" r=".372"/><circle cx="395.581" cy="125.868" fill="#1e1713" r=".372"/><circle cx="398.293" cy="125.868" fill="#1e1713" r=".372"/><circle cx="401.006" cy="125.868" fill="#1e1713" r=".372"/><circle cx="403.718" cy="125.868" fill="#1e1713" r=".372"/><circle cx="406.43" cy="125.868" fill="#1e1713" r=".372"/><circle cx="409.142" cy="125.868" fill="#1e1713" r=".372"/><circle cx="411.854" cy="125.868" fill="#1e1713" r=".372"/><circle cx="414.566" cy="125.868" fill="#1e1713" r=".372"/><circle cx="417.278" cy="125.868" fill="#1e1713" r=".372"/><circle cx="419.991" cy="125.868" fill="#1e1713" r=".372"/><circle cx="422.703" cy="125.868" fill="#1e1713" r=".372"/><circle cx="425.415" cy="125.868" fill="#1e1713" r=".372"/><circle cx="428.127" cy="125.868" fill="#1e1713" r=".372"/><circle cx="430.839" cy="125.868" fill="#1e1713" r=".372"/><path d="m396.424 282.483c0-.283-.185-.532-.456-.613l-.788-.236h-29.026l-.788.236c-.271.081-.456.33-.456.613z" fill="#c1c1c1"/><path d="m392.67 280.883h-24.007l2.834-.849h18.409z" fill="#c1c1c1"/><path d="m364.909 283.235h31.515v.849h-31.515z" fill="#c1c1c1"/><path d="m396.424 282.483c0-.283-.185-.532-.456-.613l-.788-.236h-29.026l-.788.236c-.271.081-.456.33-.456.613z" fill="#b7b7b7"/><path d="m392.67 280.883h-24.007l2.834-.849h18.409z" fill="#b7b7b7"/><path d="m387.326 279.282h-13.319l2.833-.849h7.652z" fill="#b7b7b7"/><path d="m364.909 283.235h31.515v.805h-31.515z" fill="#b7b7b7"/><path d="m364.909 284.753h31.515v.805h-31.515z" fill="#b7b7b7"/><path d="m396.424 286.27h-31.515v.165c0 .353.286.64.64.64h30.236c.353 0 .64-.286.64-.64v-.165z" fill="#b7b7b7"/><path d="m374.007 286.27h13.32v.805h-13.32z" fill="#d3d3d3"/><path d="m347.546 187.386c-1.313 0-2.626 0-3.939 0-.181 0-.255-.073-.255-.252 0-.643-.002-1.286.002-1.93 0-.095-.022-.114-.117-.093-.142.031-.288.052-.433.057-.275.011-.551.03-.824.054-.709.062-1.418.038-2.127.036-.388-.001-.776-.032-1.162-.068-.313-.03-.627-.049-.937-.11-.075-.015-.113.003-.113.098.005.651.003 1.302.003 1.952 0 .181-.073.255-.252.255-.799 0-1.598 0-2.398 0-.178 0-.251-.074-.251-.256 0-.807-.004-1.614.004-2.421.001-.13-.056-.186-.159-.222-.298-.103-.594-.215-.903-.283-.089-.02-.173-.066-.257-.107-.122-.059-.129-.116-.037-.213.316-.332.679-.61 1.092-.798.223-.101.271-.217.265-.435-.014-.567-.005-1.134-.005-1.701 0-.186.072-.257.261-.257h2.386c.179 0 .252.074.252.254 0 .872.002 1.743-.003 2.615-.001.102.031.147.128.17.171.041.341.078.517.091.322.024.643.059.964.088.023.002.046.001.068.001.265.008.531.003.794.027.163.015.325.024.487.016.536-.026 1.072-.055 1.608-.073.324-.011.65-.038.971-.106.166-.035.175-.035.175-.205 0-.875 0-1.751 0-2.626 0-.179.074-.253.253-.253h7.855c.173 0 .249.075.249.246v.651c0 .17-.076.245-.25.245-1.678 0-3.357 0-5.035 0-.152 0-.194.038-.195.191-.002.403 0 .807-.001 1.21 0 .069.014.1.09.073.093-.033.195-.026.29-.031.732-.041 1.466-.035 2.199-.025.38.005.761.029 1.139.069.494.052.993.072 1.477.2.052.014.118.016.121.076.003.056-.031.113-.08.153-.305.246-.632.462-.95.69-.061.043-.123.086-.181.131-.103.08-.219.084-.333.064-.064-.011-.127-.019-.19-.016-.269.011-.541-.003-.805-.032-.508-.056-1.015-.035-1.522-.033-.35.001-.699.042-1.048.065-.015.001-.029.008-.044.009-.135.009-.168.077-.165.211.01.426.004.852.004 1.279 0 .151.063.213.22.213h1.61 3.414c.182 0 .237.054.237.234v.605c0 .149-.063.212-.213.212-1.317.005-2.634.005-3.951.005z"/><path d="m344.474 189.578c-.301 0-.601 0-.902 0-.205 0-.39-.169-.429-.373-.029-.151-.025-.302-.018-.452.005-.111-.032-.18-.129-.224-.017-.007-.034-.017-.048-.028-.171-.143-.165-.23.03-.336.081-.044.114-.116.143-.193.015-.039.032-.074.057-.107.046-.061.108-.049.166-.043.055.006.063.059.074.102.059.229.099.261.332.261h1.689c.154 0 .213.036.218.133.007.131-.051.192-.205.209-.026.003-.053.001-.08.001-.544 0-1.088.001-1.632-.001-.066 0-.127.01-.185.037-.074.033-.124.081-.114.173.007.068.001.137.001.205 0 .236.057.294.294.294h1.712c.155 0 .23.083.183.221-.037.108-.147.119-.244.12-.304.003-.608.001-.913.001z"/><path d="m348.582 188.956c0-.197-.009-.353.003-.508.012-.153.104-.25.275-.258.303-.014.609-.012.912 0 .159.006.319.094.476.058.382-.09.767-.055 1.151-.063.281-.006.388.119.382.377-.006.247-.002.494-.001.742 0 .053-.014.103-.022.154-.02.134-.114.132-.209.118-.096-.015-.089-.096-.089-.168 0-.209.001-.418 0-.628-.001-.157-.094-.252-.248-.253-.202-.001-.403 0-.605 0-.203 0-.304.13-.292.289.014.193.004.388.003.582-.001.12-.047.18-.137.18s-.136-.06-.137-.18c-.001-.194-.01-.389.003-.582.011-.158-.087-.285-.281-.288-.209-.003-.418-.002-.628 0-.14.001-.235.1-.236.242-.001.217 0 .434 0 .65 0 .069.001.146-.089.156-.087.01-.178.025-.208-.106-.043-.185-.009-.37-.023-.514z"/><path d="m338.444 190.119c-.116 0-.18-.079-.129-.181.048-.097.105-.18.165-.278.036-.048.051-.114.011-.165-.083-.106-.16-.201-.253-.307-.239-.243-.472-.496-.71-.74-.054-.055-.097-.12-.056-.19.048-.082.139-.085.223-.068.039.008.081.028.108.056.208.21.429.408.615.639.086.107.179.209.271.311.058.064.12.059.174-.006.097-.117.19-.237.285-.356.165-.206.325-.434.516-.601.101-.083.197-.091.265-.002.037.049.057.072.029.139-.082.124-.19.227-.279.345-.185.249-.376.494-.577.73-.171.2-.326.414-.517.597-.045.041-.08.082-.141.077z"/><path d="m346.417 189.048c.045-.021.088-.018.133-.018.525-.001 1.049 0 1.574-.001.143 0 .205-.053.256-.188.029-.075.016-.149.017-.224.003-.293-.052-.362-.33-.427-.033-.008-.068-.006-.102-.006-.506 0-1.011.001-1.517-.001-.094 0-.189 0-.28.025-.171.048-.335.124-.328.401.004.163-.008.328.003.49.011.165.037.333.229.399.127.043.256.079.393.078.266-.001.532 0 .798 0 .281 0 .563.002.844-.001.094-.001.198-.014.241-.111.057-.13-.022-.229-.172-.229-.551-.001-1.103 0-1.654-.001-.037 0-.074.005-.111-.011-.056-.023-.087-.064-.087-.119 0-.058.059-.04.093-.056zm-.16-.44c0-.057.047-.104.104-.104h1.544c.057 0 .104.047.104.104s-.047.104-.104.104h-1.544c-.057 0-.104-.047-.104-.104z"/><path d="m342.026 189.03h.128c.056 0 .102.046.102.103s-.046.103-.102.103h-1.007s-.529-.001-.793-.001l-.033.001c-.094 0-.171.077-.171.171 0 .094.077.171.171.171h.174c.274-.002.548-.001.822-.001.289 0 .578.003.867-.002.115-.002.232-.023.324-.102.113-.097.161-.404.092-.557-.077-.17-.223-.227-.392-.229-.411-.005-.822-.001-1.232-.002h-.235c-.057 0-.105-.036-.105-.08s.047-.08.105-.08h.049 1.518c.049 0 .096-.005.143-.022.117-.043.152-.093.124-.215-.021-.09-.095-.106-.176-.106-.54 0-1.08.001-1.62-.001-.132 0-.26.015-.39.042-.135.028-.206.105-.226.227-.015.092-.016.192 0 .284.02.114.083.201.213.232.128.031.255.059.385.06.42.006.843.004 1.265.004"/><path d="m336.592 189.029h.128c.056 0 .102.046.102.103s-.046.103-.102.103h-1.007s-.529-.001-.793-.001l-.033.001c-.094 0-.171.077-.171.171 0 .094.077.171.171.171h.174c.274-.002.548-.001.822-.001.289 0 .578.003.867-.002.115-.002.232-.023.324-.102.113-.097.161-.404.092-.557-.077-.17-.223-.227-.392-.229-.411-.005-.822-.001-1.232-.002h-.235c-.057 0-.105-.036-.105-.08s.047-.08.105-.08h.049 1.518c.049 0 .096-.005.143-.022.117-.043.152-.093.124-.215-.021-.09-.095-.106-.176-.106-.54 0-1.08.001-1.62-.001-.132 0-.26.015-.39.042-.135.028-.206.105-.226.227-.015.092-.016.192 0 .284.02.115.083.201.213.232.128.031.255.059.385.06.42.007.843.005 1.265.004"/></svg>