<svg enable-background="new 0 0 154.673 330.522" viewBox="0 0 154.673 330.522" xmlns="http://www.w3.org/2000/svg"><path d="m7.386 330.522c-4.063 0-7.386-3.323-7.386-7.387v-315.749c0-4.063 3.323-7.386 7.386-7.386h119.56c4.063 0 7.758 3.303 8.211 7.34l17.277 153.812c.453 4.037.438 10.642-.033 14.676l-17.213 147.355c-.47 4.036-4.18 7.338-8.243 7.338h-119.559z" fill="#d9d9d9"/><path d="m8.976 324.519c-3.916 0-7.118-3.201-7.118-7.117v-304.283c0-3.915 3.203-7.118 7.118-7.118h115.219c3.915 0 7.475 3.183 7.911 7.073l.419 148.227c.436 3.892.422 10.256-.032 14.144l-.355 142.005c-.454 3.889-4.027 7.069-7.942 7.069z" fill="#e6e6e6"/><path d="m45.854 80.155c-16.933 0-30.659-13.726-30.659-30.66 0-16.933 13.726-30.659 30.659-30.659s30.659 13.727 30.659 30.659c0 16.934-13.726 30.66-30.659 30.66z" fill="#51514d"/><path d="m9.694 90.939v-14.771c0-5.061.422-6.769 2.721-6.769 2.218 0 3.042 2.145 6.501 5.385 7.185 6.734 16.314 11.663 26.938 11.663 20.408 0 36.952-16.545 36.952-36.953 0-9.715-4.433-17.518-4.433-17.518-1.821-3.532-.802-6.126 3.261-6.126h33.31c4.063 0 7.386 3.324 7.386 7.387v64.627c0 4.063-2.804 7.386-6.231 7.386-3.428 0-6.387 0-6.387 0-34.671 0-63.025 28.108-63.025 62.78 0 34.673 27.8 62.781 62.472 62.781h6.478c3.681 0 6.693 3.324 6.693 7.386v61.858c0 4.06-3.323 7.386-7.386 7.386h-67.003c-3.945 2.821-8.779 4.482-14.034 4.482-13.494 0-24.214-10.888-24.214-24.381v-196.603" fill="#51514d"/><path d="m17.971 287.861c0-8.66 7.019-15.707 15.647-15.707 8.595 0 15.588 7.047 15.588 15.707s-6.993 15.706-15.588 15.706c-8.628 0-15.647-7.046-15.647-15.706zm26.618 0c0-6.115-4.922-11.09-10.972-11.09-6.082 0-11.031 4.975-11.031 11.09 0 6.114 4.948 11.089 11.031 11.089 6.05 0 10.972-4.975 10.972-11.089z" fill="#d3d3d4"/><path d="m20.279 287.861c0 7.4 5.939 13.397 13.339 13.397s13.28-5.998 13.28-13.397c0-7.4-5.879-13.398-13.28-13.398-7.4-.001-13.339 5.997-13.339 13.398z" fill="#51514d"/><path d="m27.235 196.189v-15.695c0-3.824 3.1-6.924 6.924-6.924s6.924 3.1 6.924 6.924v15.695c0 3.824-3.1 6.924-6.924 6.924s-6.924-3.099-6.924-6.924z" fill="#d3d3d4"/><path d="m29.543 196.189v-15.695c0-2.549 2.067-4.616 4.616-4.616s4.616 2.067 4.616 4.616v15.695c0 2.549-2.067 4.616-4.616 4.616s-4.616-2.066-4.616-4.616z" fill="#51514d"/><path d="m27.235 155.655v-15.695c0-3.824 3.1-6.924 6.924-6.924s6.924 3.1 6.924 6.924v15.695c0 3.824-3.1 6.924-6.924 6.924s-6.924-3.1-6.924-6.924z" fill="#d3d3d4"/><path d="m29.543 155.655v-15.695c0-2.549 2.067-4.616 4.616-4.616s4.616 2.067 4.616 4.616v15.695c0 2.549-2.067 4.616-4.616 4.616s-4.616-2.066-4.616-4.616z" fill="#51514d"/><g fill="#c01e10"><path d="m60.803 257.895c-.508 0-.923-.416-.923-.923v-13.079c0-.508.416-.924.923-.924h14.584c.507 0 1.168.336 1.469.746l4.384 5.973c.3.409.3 1.079 0 1.489l-4.384 5.974c-.301.409-.962.744-1.469.744z"/><path d="m60.803 295.325c-.508 0-.923-.415-.923-.923v-13.077c0-.51.416-.926.923-.926h14.584c.507 0 1.168.337 1.469.747l4.384 5.972c.3.41.3 1.08 0 1.489l-4.384 5.975c-.301.408-.962.743-1.469.743z"/><path clip-rule="evenodd" d="m111.146 39.311 5.377-4.487-2.331-2.04-.894.979-6.471-1.169 1.03 2.346 1.121-1.21 3.422.671-5.45 4.729 7.431 1.632 1 1.653 1.216-1.998zm4.475 3.954c-.159.142-.363.317-.582.278l-2.905-.552c-.227-.043-.392-.245-.505-.403s-.144-.352-.175-.546c-.065.168-.131.335-.253.448-.122.114-.295.268-.478.227l-2.83-.631c-.261-.06-.425-.326-.568-.514-.142-.19-.213-.405-.286-.621v7.552l2.832.532c-.588-.291-1.175-.581-1.553-1.076-.377-.497-.708-1.174-.708-1.893v-1.386l3.504.691c.086.25.077.535-.048.79-.123.257-.363.484-.624.69-.261.205-.541.385-.841.528l3.686.723c-.271-.247-.516-.522-.737-.818-.22-.298-.417-.614-.515-.912-.098-.297-.098-.574-.021-.831l3.449.716.012 1.114c.004.503.065 1.007-.269 1.413-.333.408-1.032.721-1.731 1.03l2.525.55v-7.675c-.109.216-.218.432-.379.576zm-.885 9.047c-.482-.564-1.121-1.074-1.818-1.413-.698-.339-1.456-.512-2.147-.52-.694-.008-1.326.146-1.904.427-.58.284-1.106.695-1.461 1.204-.357.511-.543 1.116-.629 1.672-.085.557-.07 1.062-.014 1.463.057.401.152.695.302.966l3.311 1.593c-.194-.413-.371-.833-.55-1.268s-.361-.886-.42-1.365c-.056-.477.01-.983.277-1.434.266-.449.732-.841 1.257-1.044.521-.205 1.1-.218 1.624-.077.521.143.988.444 1.396.81.408.364.759.793.989 1.193.231.399.344.768.371 1.143l-1.733 1.205.517 1.385 2.375-.971c.009-.272 0-.548-.036-.874-.035-.325-.096-.701-.196-1.092-.099-.391-.24-.795-.473-1.307-.232-.512-.557-1.133-1.038-1.696z" fill-rule="evenodd"/><path d="m12.207 78.506 2.796-2.412c7.75 8.982 18.996 14.134 30.851 14.134 22.461 0 40.734-18.273 40.734-40.734 0-6.405-1.443-12.535-4.291-18.221l3.302-1.653c3.107 6.203 4.682 12.89 4.682 19.874 0 24.497-19.93 44.427-44.427 44.427-12.931.001-25.195-5.618-33.647-15.415z"/><path d="m13.259 287.581c0 11.356 9.02 20.559 20.375 20.559s20.376-9.202 20.376-20.559v-37.605c0-11.355-9.021-20.559-20.376-20.559s-20.466 9.204-20.466 20.559z"/></g><path d="m17.971 250.433c0-8.661 7.019-15.707 15.647-15.707 8.595 0 15.588 7.046 15.588 15.707 0 8.66-6.993 15.706-15.588 15.706-8.628 0-15.647-7.046-15.647-15.706zm26.618 0c0-6.116-4.922-11.092-10.972-11.092-6.082 0-11.031 4.976-11.031 11.092 0 6.114 4.948 11.089 11.031 11.089 6.05 0 10.972-4.975 10.972-11.089z" fill="#d3d3d4"/><path d="m20.279 250.433c0 7.399 5.939 13.398 13.339 13.398s13.28-5.998 13.28-13.398-5.879-13.399-13.28-13.399c-7.4 0-13.339 6-13.339 13.399z" fill="#51514d"/><path d="m17.767 287.865c0 8.796 7.06 15.926 15.857 15.926 8.796 0 15.786-7.13 15.786-15.926 0-8.798-6.989-15.93-15.786-15.93s-15.857 7.132-15.857 15.93z" fill="#d3d3d4"/><path d="m20.279 287.865c0 7.398 5.939 13.398 13.339 13.398s13.28-6 13.28-13.398c0-7.4-5.879-13.4-13.28-13.4-7.4 0-13.339 5.999-13.339 13.4z" fill="#51514d"/><path d="m154.673 124.176c0-1.524-1.247-2.77-2.77-2.77h-45.48c-26.195 0-47.499 20.89-47.499 47.085 0 26.197 21.165 47.086 47.361 47.086h45.619c1.523 0 2.77-1.246 2.77-2.77v-88.631z" fill="#d9d9d9"/><path d="m75.812 57.844c.531 0 1.052-.426 1.156-.945 0 0 .915-2.867.915-7.404 0-4.34-.914-7.402-.914-7.402-.105-.52-.626-.945-1.157-.945h-20.645c-.531 0-.965-.434-.965-.965v-20.646c0-.531-.425-1.052-.945-1.156 0 0-2.9-.916-7.403-.916-3.838 0-7.403.916-7.403.916-.52.104-.944.625-.944 1.156v20.646c0 .531-.435.965-.965.965h-20.646c-.531 0-1.052.425-1.157.945 0 0-.914 2.526-.914 7.402 0 4.964.916 7.404.916 7.404.103.52.624.945 1.155.945h20.645c.531 0 .965.434.965.964v20.645c0 .531.425 1.051.944 1.155 0 0 2.495.916 7.403.916 5.166 0 7.403-.916 7.403-.916.519-.104.945-.624.945-1.155v-20.645c0-.53.434-.964.965-.964z" fill="#6a6967"/><path d="m45.854 56.542c-3.893 0-7.047-3.155-7.047-7.048s3.154-7.048 7.047-7.048c3.894 0 7.048 3.155 7.048 7.048 0 3.894-3.155 7.048-7.048 7.048z" fill="#51514d"/></svg>