<svg enable-background="new 0 0 113.754 175.541" viewBox="0 0 113.754 175.541" xmlns="http://www.w3.org/2000/svg" xmlns:xlink="http://www.w3.org/1999/xlink"><linearGradient id="a" gradientUnits="userSpaceOnUse" x1="56.8772" x2="56.8772" y1="159.8087" y2="60.9916"><stop offset="0" stop-color="#648a8e"/><stop offset="1" stop-color="#8dbcd2"/></linearGradient><path d="m113.754 168.917c0 3.644-2.981 6.624-6.624 6.624h-100.506c-3.644 0-6.624-2.98-6.624-6.624v-162.293c0-3.644 2.98-6.624 6.624-6.624h100.506c3.643 0 6.624 2.98 6.624 6.624z" fill="#e6e6e6"/><path d="m4.623 60.992h104.508v98.817h-104.508z" fill="url(#a)"/><path d="m3.057 3.86v45.713c0 3.686 2.98 6.702 6.624 6.702h94.391c3.644 0 6.624-3.016 6.624-6.702v-45.713z" fill="#181d22"/><path d="m3.057 3.86h107.639v9.136h-107.639z"/><path d="m72.178 167.511-15.119-4.529c-.12-.036-.247-.036-.367 0l-15.118 4.529c-.271.081-.456.33-.456.613v3.951c0 .353.286.64.64.64h30.236c.353 0 .64-.286.64-.64v-3.951c.001-.283-.185-.532-.456-.613z" fill="#d3d3d3"/><g fill="#c9a834"><path d="m5.93 6.105h1.54v6.085h-1.54z"/><path d="m8.643 5.153h1.539v7.037h-1.539z"/><path d="m11.355 5.153h1.539v7.037h-1.539z"/><path d="m14.068 5.153h1.539v7.037h-1.539z"/><path d="m16.779 5.153h1.54v7.037h-1.54z"/><path d="m19.492 5.153h1.539v7.037h-1.539z"/><path d="m22.204 5.153h1.539v7.037h-1.539z"/><path d="m24.917 5.153h1.539v7.037h-1.539z"/><path d="m27.628 5.153h1.54v7.037h-1.54z"/><path d="m30.341 5.153h1.539v7.037h-1.539z"/><path d="m33.053 5.153h1.539v7.037h-1.539z"/><path d="m35.765 5.153h1.54v7.037h-1.54z"/><path d="m38.477 5.153h1.539v7.037h-1.539z"/><path d="m41.19 5.153h1.539v7.037h-1.539z"/><path d="m43.901 5.153h1.54v7.037h-1.54z"/><path d="m46.614 5.153h1.539v7.037h-1.539z"/><path d="m49.326 5.153h1.539v7.037h-1.539z"/><path d="m52.039 3.86h1.539v9.136h-1.539z"/><path d="m54.751 5.153h1.54v7.037h-1.54z"/><path d="m57.463 5.153h1.539v7.037h-1.539z"/><path d="m60.175 5.153h1.539v7.037h-1.539z"/><path d="m62.888 5.153h1.539v7.037h-1.539z"/><path d="m65.6 5.153h1.54v7.037h-1.54z"/><path d="m68.312 5.153h1.539v7.037h-1.539z"/><path d="m71.025 5.153h1.539v7.037h-1.539z"/><path d="m73.736 5.153h1.54v7.037h-1.54z"/><path d="m76.449 5.153h1.539v7.037h-1.539z"/><path d="m79.161 5.153h1.539v7.037h-1.539z"/><path d="m81.874 5.153h1.539v7.037h-1.539z"/><path d="m84.585 5.153h1.54v7.037h-1.54z"/><path d="m87.298 5.153h1.539v7.037h-1.539z"/><path d="m90.01 5.153h1.539v7.037h-1.539z"/><path d="m92.722 5.153h1.54v7.037h-1.54z"/><path d="m95.434 5.153h1.54v7.037h-1.54z"/><path d="m98.147 5.153h1.539v7.037h-1.539z"/><path d="m100.859 5.153h1.539v7.037h-1.539z"/><path d="m103.571 5.153h1.54v7.037h-1.54z"/><path d="m106.284 3.86h1.539v9.136h-1.539z"/></g><circle cx="6.7" cy="11.508" fill="#1e1713" r=".372"/><circle cx="9.412" cy="11.508" fill="#1e1713" r=".372"/><circle cx="12.124" cy="11.508" fill="#1e1713" r=".372"/><circle cx="14.837" cy="11.508" fill="#1e1713" r=".372"/><circle cx="17.549" cy="11.508" fill="#1e1713" r=".372"/><circle cx="20.261" cy="11.508" fill="#1e1713" r=".372"/><circle cx="22.973" cy="11.508" fill="#1e1713" r=".372"/><circle cx="25.685" cy="11.508" fill="#1e1713" r=".372"/><circle cx="28.397" cy="11.508" fill="#1e1713" r=".372"/><circle cx="31.109" cy="11.508" fill="#1e1713" r=".372"/><circle cx="33.822" cy="11.508" fill="#1e1713" r=".372"/><circle cx="36.534" cy="11.508" fill="#1e1713" r=".372"/><circle cx="39.246" cy="11.508" fill="#1e1713" r=".372"/><circle cx="41.958" cy="11.508" fill="#1e1713" r=".372"/><circle cx="44.67" cy="11.508" fill="#1e1713" r=".372"/><circle cx="47.382" cy="11.508" fill="#1e1713" r=".372"/><circle cx="50.094" cy="11.508" fill="#1e1713" r=".372"/><circle cx="52.806" cy="11.508" fill="#1e1713" r=".372"/><circle cx="55.519" cy="11.508" fill="#1e1713" r=".372"/><circle cx="58.231" cy="11.508" fill="#1e1713" r=".372"/><circle cx="60.943" cy="11.508" fill="#1e1713" r=".372"/><circle cx="63.655" cy="11.508" fill="#1e1713" r=".372"/><circle cx="66.367" cy="11.508" fill="#1e1713" r=".372"/><circle cx="69.079" cy="11.508" fill="#1e1713" r=".372"/><circle cx="71.791" cy="11.508" fill="#1e1713" r=".372"/><circle cx="74.504" cy="11.508" fill="#1e1713" r=".372"/><circle cx="77.216" cy="11.508" fill="#1e1713" r=".372"/><circle cx="79.928" cy="11.508" fill="#1e1713" r=".372"/><circle cx="82.64" cy="11.508" fill="#1e1713" r=".372"/><circle cx="85.352" cy="11.508" fill="#1e1713" r=".372"/><circle cx="88.064" cy="11.508" fill="#1e1713" r=".372"/><circle cx="90.776" cy="11.508" fill="#1e1713" r=".372"/><circle cx="93.489" cy="11.508" fill="#1e1713" r=".372"/><circle cx="96.201" cy="11.508" fill="#1e1713" r=".372"/><circle cx="98.913" cy="11.508" fill="#1e1713" r=".372"/><circle cx="101.625" cy="11.508" fill="#1e1713" r=".372"/><circle cx="104.337" cy="11.508" fill="#1e1713" r=".372"/><circle cx="107.049" cy="11.508" fill="#1e1713" r=".372"/><path d="m72.635 168.124c0-.283-.185-.532-.456-.613l-.788-.236h-29.026l-.788.236c-.271.081-.456.33-.456.613z" fill="#c1c1c1"/><path d="m68.88 166.523h-24.007l2.834-.849h18.409z" fill="#c1c1c1"/><path d="m41.119 168.875h31.515v.849h-31.515z" fill="#c1c1c1"/><path d="m72.635 168.124c0-.283-.185-.532-.456-.613l-.788-.236h-29.026l-.788.236c-.271.081-.456.33-.456.613z" fill="#b7b7b7"/><path d="m68.88 166.523h-24.007l2.834-.849h18.409z" fill="#b7b7b7"/><path d="m63.536 164.922h-13.319l2.834-.849h7.651z" fill="#b7b7b7"/><path d="m41.119 168.875h31.515v.805h-31.515z" fill="#b7b7b7"/><path d="m41.119 170.393h31.515v.805h-31.515z" fill="#b7b7b7"/><path d="m72.635 171.91h-31.516v.165c0 .353.286.64.64.64h30.236c.353 0 .64-.286.64-.64z" fill="#b7b7b7"/><path d="m50.217 171.91h13.32v.805h-13.32z" fill="#d3d3d3"/><path d="m23.756 73.026c-1.313 0-2.626 0-3.939 0-.181 0-.255-.073-.255-.252 0-.643-.002-1.286.002-1.93 0-.095-.022-.114-.117-.093-.142.031-.288.052-.433.057-.275.011-.551.03-.824.054-.709.062-1.418.038-2.127.036-.388-.001-.776-.032-1.162-.068-.313-.03-.627-.049-.937-.11-.075-.015-.113.003-.113.098.005.651.003 1.302.003 1.952 0 .181-.073.255-.252.255-.799 0-1.598 0-2.398 0-.178 0-.251-.074-.251-.256 0-.807-.004-1.614.004-2.421.001-.13-.056-.186-.159-.222-.298-.103-.594-.215-.903-.283-.089-.02-.173-.066-.257-.107-.122-.059-.129-.116-.037-.213.316-.332.679-.61 1.092-.798.223-.101.271-.217.265-.435-.014-.567-.005-1.134-.005-1.701 0-.186.072-.257.261-.257h2.386c.179 0 .252.074.252.254 0 .872.002 1.743-.003 2.615-.001.102.031.147.127.17.171.041.341.078.517.091.322.024.643.059.964.088.023.002.046.001.068.001.265.008.531.003.794.027.163.015.325.024.487.016.536-.026 1.071-.055 1.608-.073.324-.011.65-.038.971-.106.166-.035.175-.035.175-.205 0-.875 0-1.751 0-2.626 0-.179.074-.253.253-.253h7.855c.173 0 .249.075.249.246v.651c0 .17-.076.245-.25.245-1.678 0-3.357 0-5.035 0-.152 0-.194.038-.195.191-.002.403 0 .807-.001 1.21 0 .069.014.1.09.073.093-.033.195-.026.29-.031.732-.041 1.466-.035 2.199-.025.38.005.761.029 1.139.069.494.052.993.072 1.477.2.052.014.118.016.121.076.003.056-.031.113-.08.153-.305.246-.632.462-.95.69-.061.043-.123.086-.181.131-.103.08-.219.084-.333.064-.064-.011-.127-.019-.19-.016-.269.011-.541-.003-.805-.032-.508-.056-1.015-.035-1.522-.033-.35.001-.699.042-1.048.065-.015.001-.029.008-.044.009-.135.009-.168.077-.165.211.011.426.004.852.004 1.279 0 .151.063.213.22.213h1.61 3.414c.182 0 .237.054.237.234v.605c0 .149-.063.212-.213.212-1.316.005-2.633.005-3.95.005z"/><path d="m20.685 75.218c-.301 0-.601 0-.902 0-.205 0-.39-.169-.429-.373-.029-.151-.025-.302-.018-.452.005-.111-.032-.18-.129-.224-.017-.007-.034-.017-.048-.028-.171-.143-.165-.23.03-.336.081-.044.114-.116.143-.193.015-.039.032-.074.057-.107.046-.061.108-.049.166-.043.055.006.063.059.074.102.059.229.099.261.332.261h1.689c.154 0 .213.036.218.133.007.131-.052.192-.205.209-.026.003-.053.001-.08.001-.544 0-1.088.001-1.632-.001-.066 0-.127.01-.185.037-.074.033-.124.081-.114.173.007.068.001.137.001.205 0 .236.057.294.294.294h1.712c.155 0 .23.083.183.221-.037.108-.147.119-.244.12-.305.003-.609.001-.913.001z"/><path d="m24.792 74.596c0-.197-.009-.353.003-.508.012-.153.104-.25.275-.258.303-.014.609-.012.912 0 .159.006.319.094.476.058.382-.09.767-.055 1.151-.063.281-.006.388.119.382.377-.006.247-.002.494-.001.742 0 .053-.014.103-.022.154-.02.134-.114.132-.209.118-.096-.015-.089-.096-.089-.168 0-.209.001-.418 0-.628-.001-.157-.094-.252-.248-.253-.202-.001-.403 0-.605 0-.203 0-.304.13-.292.289.014.193.004.388.003.582-.001.12-.047.18-.137.18s-.136-.06-.137-.18c-.001-.194-.01-.389.003-.582.011-.158-.087-.285-.281-.288-.209-.003-.418-.002-.628 0-.14.001-.235.1-.236.242-.001.217 0 .434 0 .65 0 .069.001.146-.089.156-.087.01-.178.025-.208-.106-.043-.185-.009-.37-.023-.514z"/><path d="m14.655 75.759c-.116 0-.18-.079-.129-.181.048-.097.105-.18.165-.278.036-.048.051-.114.011-.165-.083-.106-.16-.201-.253-.307-.239-.243-.472-.496-.71-.74-.054-.055-.097-.12-.056-.19.048-.082.139-.085.223-.068.039.008.081.028.108.056.208.21.429.408.615.639.086.107.179.209.271.311.058.064.12.059.174-.006.097-.117.19-.237.285-.356.165-.206.325-.434.516-.601.101-.083.197-.091.265-.002.037.049.057.072.029.139-.082.124-.19.227-.279.345-.185.249-.376.494-.577.73-.171.2-.326.414-.517.597-.046.041-.081.082-.141.077z"/><path d="m22.627 74.688c.045-.021.088-.018.133-.018.525-.001 1.049 0 1.574-.001.143 0 .205-.053.256-.188.029-.075.016-.149.017-.224.003-.293-.052-.362-.33-.427-.033-.008-.068-.006-.102-.006-.506 0-1.011.001-1.517-.001-.094 0-.189 0-.28.025-.171.048-.335.124-.328.401.004.163-.008.328.003.49.011.165.037.333.229.399.127.043.256.079.393.078.266-.001.532 0 .799 0 .281 0 .563.002.844-.001.094-.001.198-.014.24-.111.057-.13-.022-.229-.172-.229-.551-.001-1.103 0-1.654-.001-.037 0-.074.005-.111-.011-.056-.023-.087-.064-.087-.119 0-.058.059-.04.093-.056zm-.16-.44c0-.057.047-.104.104-.104h1.544c.057 0 .104.047.104.104s-.047.104-.104.104h-1.544c-.057 0-.104-.047-.104-.104z"/><path d="m18.236 74.67h.128c.056 0 .102.046.102.103s-.046.103-.102.103h-1.007s-.529-.001-.793-.001l-.033.001c-.094 0-.171.077-.171.171 0 .094.077.171.171.171h.174c.274-.002.548-.001.822-.001.289 0 .578.003.867-.002.115-.002.232-.023.324-.102.113-.097.161-.404.092-.557-.077-.17-.223-.227-.392-.229-.411-.005-.822-.001-1.232-.002h-.236c-.057 0-.105-.036-.105-.08s.047-.08.105-.08h.049 1.518c.049 0 .096-.005.143-.022.117-.043.152-.093.124-.215-.021-.09-.095-.106-.176-.106-.54 0-1.08.001-1.62-.001-.132 0-.26.015-.39.042-.135.028-.206.105-.226.227-.015.092-.016.192 0 .284.02.115.083.201.213.232.128.031.255.059.385.06.421.006.844.004 1.266.004"/><path d="m12.802 74.67h.128c.056 0 .102.046.102.103s-.046.103-.102.103h-1.007s-.529-.001-.793-.001l-.033.001c-.094 0-.171.077-.171.171 0 .094.077.171.171.171h.174c.274-.002.548-.001.822-.001.289 0 .578.003.867-.002.115-.002.232-.023.324-.102.113-.097.161-.404.092-.557-.077-.17-.223-.227-.392-.229-.411-.005-.822-.001-1.232-.002h-.235c-.057 0-.105-.036-.105-.08s.047-.08.105-.08h.049 1.518c.049 0 .096-.005.143-.022.117-.043.152-.093.124-.215-.021-.09-.095-.106-.176-.106-.54 0-1.08.001-1.62-.001-.132 0-.26.015-.39.042-.135.028-.206.105-.226.227-.015.092-.016.192 0 .284.02.115.083.201.213.232.128.031.255.059.385.06.421.006.843.004 1.265.004"/></svg>