<svg enable-background="new 0 0 431.621 257.87" viewBox="0 0 431.621 257.87" xmlns="http://www.w3.org/2000/svg" xmlns:xlink="http://www.w3.org/1999/xlink"><linearGradient id="a" gradientUnits="userSpaceOnUse" x1="215.8105" x2="215.8105" y1="257.87" y2="205.52"><stop offset="0" stop-color="#444c4f"/><stop offset="1" stop-color="#566067"/></linearGradient><path d="m431.621 205.52v5.85 14.42s-1.459 10.79-6.585 15.92c-5.116 5.12-18.147 7.41-18.147 7.41l-52.803 4.34-93.265 4.41h-89.268l-74.448-3.16-68.952-5.17s-28.15-1.17-28.15-22.83v-20.98c16.968 1.87 59.619 5.83 115.06 5.7 1.029.29 1.859.28 1.859.28l62.287 1h73.289s54.123-1.09 61.867-1.09c1.059 0 1.949-.14 2.708-.4 57.308.14 99.459-3.98 114.548-5.7z" fill="url(#a)"/><path d="m431.621 8.87v196.65c-15.09 1.72-57.24 5.84-114.551 5.7-.759.26-1.649.4-2.708.4-7.745 0-61.867 1.09-61.867 1.09h-73.289l-62.287-1s-.829.01-1.859-.28c-55.442.13-98.092-3.83-115.06-5.7v-.86c0-54.65 0-184 0-184v-12.66s.33-5 11.822-6.17c11.492-1.17 24.823-2.04 24.823-2.04h358.412s25.233 2.12 29.569 3.37c4.327 1.25 6.995 1.42 6.995 5.5z" fill="#576169"/><path d="m317.141 211.22c-.76.26-1.65.4-2.71.4-7.75 0-61.91 1.09-61.91 1.09h-73.34l-62.33-1s-.83.01-1.86-.28c-1.68-.47-3.89-1.73-3.89-5.14 0-5.5 0-191.92 0-191.92s-.13-5.52 4.58-5.52 100.17.02 100.17.02h100.5s4.83-.58 4.83 4.71 0 190.29 0 190.29.75 5.78-4.04 7.35z" fill="#15191e"/><path d="m126.476 22.65h178.5v168.328h-178.5z" fill="#636668"/><path d="m89.351 30.46c0 4.32-3.5 7.82-7.81 7.82-3.86 0-7.06-2.79-7.69-6.47l-16.52-.02c-.05.57-.14 1.17-.25 1.82-.41 2.42-2.5 4.46-4.26 4.46-4.66 0-26.42 0-26.42 0s-3.86.28-5.03-5.04c-.55-2.52.01-5.75.01-5.75s1.16-3.96 5.02-4.43h25.4s4.32 0 5.38 5.53c.06.26.11.51.14.78l16.51.03c.61-3.71 3.82-6.54 7.71-6.54 4.31 0 7.81 3.5 7.81 7.81z" fill="#717175"/><path d="m28.663 25.373h20.938s3.562 0 4.435 3.696c.315 1.036.21 2.111-.081 3.5-.339 1.614-2.063 2.983-3.51 2.982-3.844 0-21.781 0-21.781 0s-3.187.186-4.146-3.373c-.454-1.684.004-3.844.004-3.844s.954-2.648 4.141-2.961z" fill="#4a4a48"/><circle cx="81.538" cy="30.463" fill="#c13639" r="5.75"/><circle cx="357.601" cy="114.54" fill="#2b3947" r="17.25"/><circle cx="400.726" cy="82.665" fill="#2b3947" r="17"/><path d="m344.851 161.665c0-2.071 1.679-3.75 3.75-3.75s3.75 1.679 3.75 3.75-1.679 3.75-3.75 3.75-3.75-1.679-3.75-3.75zm3.75 36c2.071 0 3.75-1.679 3.75-3.75s-1.679-3.75-3.75-3.75-3.75 1.679-3.75 3.75 1.678 3.75 3.75 3.75zm0 24.495c-2.07 0-3.75 1.68-3.75 3.76 0 2.07 1.68 3.74 3.75 3.74s3.75-1.67 3.75-3.74c0-2.08-1.68-3.76-3.75-3.76zm27.25-59.495c2.071 0 3.75-1.679 3.75-3.75s-1.679-3.75-3.75-3.75-3.75 1.679-3.75 3.75 1.678 3.75 3.75 3.75zm0 32.25c2.071 0 3.75-1.679 3.75-3.75s-1.679-3.75-3.75-3.75-3.75 1.679-3.75 3.75 1.678 3.75 3.75 3.75zm0 24.505c-2.07 0-3.75 1.67-3.75 3.74 0 2.08 1.68 3.76 3.75 3.76s3.75-1.68 3.75-3.76c0-2.07-1.68-3.74-3.75-3.74zm27.375-58.755c2.071 0 3.75-1.679 3.75-3.75s-1.679-3.75-3.75-3.75-3.75 1.679-3.75 3.75 1.678 3.75 3.75 3.75zm0 32.25c2.071 0 3.75-1.679 3.75-3.75s-1.679-3.75-3.75-3.75-3.75 1.679-3.75 3.75 1.678 3.75 3.75 3.75zm.005 24.505c-2.08 0-3.76 1.67-3.76 3.74 0 2.08 1.68 3.76 3.76 3.76 2.07 0 3.74-1.68 3.74-3.76 0-2.07-1.67-3.74-3.74-3.74z" fill="#727373"/><path d="m45.413 177.29c0-1.208.979-2.188 2.188-2.188s2.187.979 2.187 2.188-.979 2.188-2.187 2.188-2.188-.98-2.188-2.188zm2.188 9.75c1.208 0 2.187-.979 2.187-2.188s-.979-2.188-2.187-2.188-2.188.979-2.188 2.188.979 2.188 2.188 2.188zm0 7.438c1.208 0 2.187-.979 2.187-2.188s-.979-2.188-2.187-2.188-2.188.979-2.188 2.188.979 2.188 2.188 2.188zm0 7.437c1.208 0 2.187-.979 2.187-2.188s-.979-2.188-2.187-2.188-2.188.979-2.188 2.188.979 2.188 2.188 2.188zm8.125-22.437c1.208 0 2.187-.979 2.187-2.188s-.979-2.188-2.187-2.188-2.188.979-2.188 2.188.979 2.188 2.188 2.188zm0 7.562c1.208 0 2.187-.979 2.187-2.188s-.979-2.188-2.187-2.188-2.188.979-2.188 2.188.979 2.188 2.188 2.188zm0 7.438c1.208 0 2.187-.979 2.187-2.188s-.979-2.188-2.187-2.188-2.188.979-2.188 2.188.979 2.188 2.188 2.188zm0 7.437c1.208 0 2.187-.979 2.187-2.188s-.979-2.188-2.187-2.188-2.188.979-2.188 2.188.979 2.188 2.188 2.188zm8.25-22.437c1.208 0 2.187-.979 2.187-2.188s-.979-2.188-2.187-2.188-2.188.979-2.188 2.188.979 2.188 2.188 2.188zm0 7.562c1.208 0 2.187-.979 2.187-2.188s-.979-2.188-2.187-2.188-2.188.979-2.188 2.188.979 2.188 2.188 2.188zm0 7.438c1.208 0 2.187-.979 2.187-2.188s-.979-2.188-2.187-2.188-2.188.979-2.188 2.188.979 2.188 2.188 2.188zm0 7.437c1.208 0 2.187-.979 2.187-2.188s-.979-2.188-2.187-2.188-2.188.979-2.188 2.188.979 2.188 2.188 2.188zm8.25-22.437c1.208 0 2.187-.979 2.187-2.188s-.979-2.188-2.187-2.188-2.188.979-2.188 2.188.979 2.188 2.188 2.188zm0 7.562c1.208 0 2.187-.979 2.187-2.188s-.979-2.188-2.187-2.188-2.188.979-2.188 2.188.979 2.188 2.188 2.188zm0 7.438c1.208 0 2.187-.979 2.187-2.188s-.979-2.188-2.187-2.188-2.188.979-2.188 2.188.979 2.188 2.188 2.188zm0 7.437c1.208 0 2.187-.979 2.187-2.188s-.979-2.188-2.187-2.188-2.188.979-2.188 2.188.979 2.188 2.188 2.188zm8.437-22.437c1.208 0 2.188-.979 2.188-2.188s-.979-2.188-2.188-2.188c-1.208 0-2.187.979-2.187 2.188s.979 2.188 2.187 2.188zm0 7.562c1.208 0 2.188-.979 2.188-2.188s-.979-2.188-2.188-2.188c-1.208 0-2.187.979-2.187 2.188s.979 2.188 2.187 2.188zm0 7.438c1.208 0 2.188-.979 2.188-2.188s-.979-2.188-2.188-2.188c-1.208 0-2.187.979-2.187 2.188s.979 2.188 2.187 2.188zm0 7.437c1.208 0 2.188-.979 2.188-2.188s-.979-2.188-2.188-2.188c-1.208 0-2.187.979-2.187 2.188s.979 2.188 2.187 2.188z" fill="#15191e"/><circle cx="404.351" cy="30.623" fill="#717175" r="9.417"/><circle cx="404.351" cy="30.623" fill="#4a4a48" r="6.583"/><path d="m40.491 73.57c-.81.77-1.58 1.56-2.32 2.4l-4.94-4.79c.79-.88 1.62-1.72 2.47-2.52zm23.61-16.15c-1.03 0-2.05.04-3.06.11v6.89c1.01-.08 2.03-.13 3.06-.13 1.14 0 2.26.05 3.37.16v-6.89c-1.11-.09-2.23-.14-3.37-.14zm27.74 10.63-4.8 4.93c.83.74 1.64 1.52 2.41 2.33l4.9-4.79c-.8-.86-1.64-1.68-2.51-2.47zm13.65 27.8h-6.9c.09 1.01.14 2.03.14 3.07 0 1.14-.05 2.26-.16 3.37h6.89c.09-1.11.14-2.23.14-3.37 0-1.03-.04-2.06-.11-3.07zm-15.45 26.02c-.75.83-1.52 1.62-2.33 2.39l4.79 4.91c.86-.8 1.68-1.64 2.47-2.52zm-25.94 11.67c-1.14 0-2.26-.05-3.37-.16v6.9c1.11.09 2.23.14 3.37.14 1.03 0 2.05-.04 3.06-.12v-6.89c-1.01.08-2.03.13-3.06.13zm-25.35-11.02-4.91 4.8c.81.86 1.65 1.68 2.52 2.46l4.8-4.93c-.83-.74-1.64-1.52-2.41-2.33zm-9.11-26.98h-6.9c-.09 1.11-.14 2.24-.14 3.38 0 1.03.04 2.05.11 3.06h6.9c-.09-1.01-.14-2.03-.14-3.06 0-1.14.06-2.27.17-3.38z" fill="#4a4a48"/><path d="m29.641 95.54h-6.9c.75-9.34 4.59-17.8 10.49-24.36l4.94 4.79c-4.71 5.32-7.81 12.1-8.53 19.57zm-.03 6.44h-6.9c.72 9.78 4.82 18.61 11.13 25.34l4.91-4.8c-5.1-5.48-8.45-12.63-9.14-20.54zm6.75 27.8c6.57 5.91 15.03 9.75 24.37 10.5v-6.9c-7.47-.72-14.25-3.82-19.57-8.53zm24.68-65.36v-6.89c-9.77.71-18.6 4.81-25.34 11.13l4.79 4.91c5.49-5.11 12.64-8.46 20.55-9.15zm30.8 3.63c-6.57-5.91-15.03-9.74-24.37-10.49v6.89c7.47.72 14.25 3.82 19.57 8.53zm-24.68 65.36v6.89c9.78-.71 18.61-4.81 25.34-11.13l-4.79-4.91c-5.49 5.1-12.64 8.45-20.55 9.15zm22.88-11.54 4.93 4.78c5.9-6.57 9.74-15.02 10.49-24.36h-6.89c-.73 7.48-3.83 14.26-8.53 19.58zm8.55-26.02h6.9c-.72-9.78-4.82-18.61-11.14-25.33l-4.9 4.79c5.1 5.49 8.45 12.63 9.14 20.54z" fill="#717175"/><path d="m98.591 95.85c-.69-7.91-4.04-15.05-9.14-20.54-.77-.81-1.58-1.59-2.41-2.33-5.32-4.71-12.1-7.81-19.57-8.53-1.11-.11-2.23-.16-3.37-.16-1.03 0-2.05.05-3.06.13-7.91.69-15.06 4.04-20.55 9.15-.81.77-1.58 1.56-2.32 2.4-4.71 5.32-7.81 12.1-8.53 19.57-.11 1.11-.17 2.24-.17 3.38 0 1.03.05 2.05.14 3.06.69 7.91 4.04 15.06 9.14 20.54.77.81 1.58 1.59 2.41 2.33 5.32 4.71 12.1 7.81 19.57 8.53 1.11.11 2.23.16 3.37.16 1.03 0 2.05-.05 3.06-.13 7.91-.7 15.06-4.05 20.55-9.15.81-.77 1.58-1.56 2.33-2.39 4.7-5.32 7.8-12.1 8.53-19.58.11-1.11.16-2.23.16-3.37 0-1.04-.05-2.06-.14-3.07zm-1.4 6.3c-.7 7.19-3.68 13.69-8.19 18.8-.72.8-1.46 1.56-2.24 2.3-5.27 4.89-12.13 8.11-19.72 8.78-.97.08-1.95.12-2.94.12-1.09 0-2.17-.04-3.24-.15-7.17-.69-13.67-3.67-18.78-8.19-.8-.71-1.58-1.46-2.31-2.24-4.9-5.26-8.12-12.12-8.78-19.71-.09-.97-.13-1.95-.13-2.94 0-1.09.05-2.18.16-3.24.69-7.18 3.67-13.68 8.19-18.79.71-.81 1.45-1.57 2.23-2.31 5.27-4.9 12.13-8.12 19.72-8.78.97-.08 1.95-.12 2.94-.12 1.09 0 2.17.04 3.24.15 7.17.69 13.67 3.67 18.78 8.19.8.71 1.58 1.46 2.31 2.24 4.9 5.27 8.12 12.12 8.78 19.71.09.97.13 1.95.13 2.95 0 1.09-.04 2.17-.15 3.23z" fill="#908f90"/><path d="m97.341 98.92c0 1.09-.04 2.17-.15 3.23-.7 7.19-3.68 13.69-8.19 18.8-.72.8-1.46 1.56-2.24 2.3-5.27 4.89-12.13 8.11-19.72 8.78-.97.08-1.95.12-2.94.12-1.09 0-2.17-.04-3.24-.15-7.17-.69-13.67-3.67-18.78-8.19-.8-.71-1.58-1.46-2.31-2.24-4.9-5.26-8.12-12.12-8.78-19.71-.09-.97-.13-1.95-.13-2.94 0-1.09.05-2.18.16-3.24.69-7.18 3.67-13.68 8.19-18.79.71-.81 1.45-1.57 2.23-2.31 5.27-4.9 12.13-8.12 19.72-8.78.97-.08 1.95-.12 2.94-.12 1.09 0 2.17.04 3.24.15 7.17.69 13.67 3.67 18.78 8.19.8.71 1.58 1.46 2.31 2.24 4.9 5.27 8.12 12.12 8.78 19.71.09.97.13 1.95.13 2.95z" fill="#485155"/><circle cx="64.101" cy="98.915" fill="#4a4a48" r="21.417"/><circle cx="64.101" cy="98.915" fill="#2c2e2b" r="17.437"/><circle cx="64.101" cy="98.915" fill="#343532" r="8.75"/><path d="m245.471 245.1h-5.31l-4.81-4.81-3.28 3.28v1.53h-4.41v-15.12h4.57v7.68l7.4-7.4h5.66l-7.33 7.33zm-23.31-15.12v8.81l-8.78-8.78h-4.47v15.09h4v-9.18l9.22 9.21h4.1v-15.15zm-15.27 8.27c-.83-1.63-1.46-2.04-2.16-2.04-.71 0-11.67 0-11.67 0s-.51-.13-.81-.63c-.18-.3-.15-1.25.18-1.66.3-.37.8-.46 1.09-.46h13.58v-3.48h-15.71c-.51 0-1.01.17-1.42.49-.59.47-1.39 1.24-1.62 2.07-.38 1.38-.5 4.31 0 5.31s2 1.75 2.5 1.75 11.25 0 11.25 0 .58.06.83.56.13 1.38-.25 1.63c-.37.25-.54.21-1 .21-.45 0-13.66 0-13.66 0v3.13h16.87s2-.26 2.21-1.67c.21-1.42.63-3.59-.21-5.21z" fill="#6f7078"/><path d="m22.699 11.435c.469-.063 1.082-.117 1.863-.117.959 0 1.662.18 2.108.504.413.288.658.729.658 1.27 0 .549-.201.981-.58 1.296-.513.441-1.35.667-2.297.667-.29 0-.558-.009-.781-.054v2.431h-.971zm.97 2.925c.212.045.479.063.803.063 1.171 0 1.885-.459 1.885-1.296 0-.801-.703-1.188-1.773-1.188-.424 0-.748.027-.915.063z"/><path d="m35.055 14.333c0 2.089-1.573 3.196-3.491 3.196-1.985 0-3.38-1.243-3.38-3.079 0-1.926 1.484-3.187 3.491-3.187 2.052 0 3.38 1.27 3.38 3.07zm-5.834.099c0 1.296.87 2.458 2.398 2.458 1.54 0 2.409-1.144 2.409-2.521 0-1.206-.781-2.467-2.398-2.467-1.606 0-2.409 1.198-2.409 2.53z"/><path d="m37.539 17.43-1.907-6.068h1.026l.893 3.07c.223.756.424 1.513.558 2.098h.022c.123-.603.357-1.323.613-2.106l1.004-3.061h1.015l.915 3.079c.212.72.413 1.44.524 2.08h.022c.156-.667.368-1.341.603-2.098l.993-3.061h.993l-2.13 6.068h-1.015l-.948-3.16c-.234-.774-.39-1.368-.491-1.98h-.022c-.134.603-.301 1.197-.58 1.98l-1.071 3.16h-1.017z"/><path d="m49.637 14.585h-2.922v2.188h3.257v.657h-4.228v-6.068h4.06v.657h-3.089v1.917h2.922z"/><path d="m51.229 11.443c.491-.081 1.193-.126 1.863-.126 1.037 0 1.707.153 2.175.495.379.27.591.684.591 1.152 0 .801-.625 1.333-1.417 1.548v.027c.58.162.926.594 1.104 1.224.245.846.424 1.432.58 1.666h-1.004c-.123-.171-.29-.693-.502-1.449-.223-.837-.625-1.152-1.506-1.18h-.913v2.629h-.971zm.971 2.764h.993c1.037 0 1.695-.459 1.695-1.152 0-.783-.703-1.125-1.729-1.134-.468 0-.803.036-.959.072z"/><path d="m357.207 30.168c0 2.089-1.573 3.196-3.491 3.196-1.985 0-3.38-1.243-3.38-3.079 0-1.926 1.483-3.187 3.491-3.187 2.053 0 3.38 1.27 3.38 3.07zm-5.834.099c0 1.296.87 2.458 2.398 2.458 1.539 0 2.409-1.144 2.409-2.521 0-1.206-.781-2.467-2.398-2.467-1.605 0-2.409 1.198-2.409 2.53z"/><path d="m358.464 27.27c.469-.063 1.082-.117 1.862-.117.96 0 1.662.18 2.108.504.413.288.658.729.658 1.27 0 .549-.201.981-.58 1.296-.513.441-1.35.667-2.298.667-.29 0-.558-.009-.78-.054v2.431h-.971v-5.997zm.971 2.925c.212.045.479.063.803.063 1.171 0 1.885-.459 1.885-1.296 0-.801-.702-1.188-1.773-1.188-.424 0-.747.027-.914.063v2.358z"/><path d="m365.822 27.863h-2.286v-.666h5.565v.666h-2.298v5.402h-.981z"/><path d="m370.906 27.197v6.068h-.971v-6.068z"/><path d="m379.025 30.168c0 2.089-1.573 3.196-3.491 3.196-1.985 0-3.38-1.243-3.38-3.079 0-1.926 1.483-3.187 3.491-3.187 2.053 0 3.38 1.27 3.38 3.07zm-5.834.099c0 1.296.87 2.458 2.398 2.458 1.539 0 2.409-1.144 2.409-2.521 0-1.206-.781-2.467-2.398-2.467-1.605 0-2.409 1.198-2.409 2.53z"/><path d="m380.282 33.265v-6.068h1.06l2.409 3.07c.558.711.993 1.351 1.35 1.972l.022-.009c-.089-.811-.111-1.549-.111-2.494v-2.539h.914v6.068h-.981l-2.387-3.079c-.524-.675-1.026-1.368-1.405-2.025l-.034.009c.057.766.078 1.495.078 2.503v2.593h-.915z"/><path d="m354.602 85.826-1.302 3.18h-1.672l4.256-10.109h1.951l4.275 10.109h-1.729l-1.339-3.18zm4.106-1.02-1.227-2.91c-.278-.66-.464-1.26-.65-1.845h-.037c-.186.6-.39 1.215-.631 1.83l-1.227 2.925z"/><path d="m396.388 48.344c.706-.12 1.821-.21 2.955-.21 1.617 0 2.658.225 3.438.735.65.39 1.041.99 1.041 1.785 0 .975-.8 1.83-2.119 2.22v.03c1.189.24 2.583 1.035 2.583 2.535 0 .87-.427 1.53-1.059 2.025-.874.645-2.286.945-4.331.945-1.115 0-1.97-.06-2.509-.12v-9.945zm1.617 4.139h1.468c1.71 0 2.714-.72 2.714-1.695 0-1.185-1.115-1.65-2.751-1.65-.743 0-1.171.045-1.431.09zm0 4.846c.315.045.78.06 1.356.06 1.673 0 3.216-.495 3.216-1.965 0-1.38-1.469-1.95-3.234-1.95h-1.338z"/><path d="m243.104 206.621c0-.732-.009-1.465.006-2.197.004-.216-.066-.261-.265-.254-.403.014-.807-.006-1.21.008-.207.007-.177-.115-.184-.243-.008-.143.019-.215.191-.214 1.151.007 2.301.008 3.452-.001.195-.002.177.103.174.226-.002.117.032.238-.169.231-.425-.014-.852.003-1.278-.008-.172-.005-.212.056-.212.219.006 1.494.004 2.989.001 4.483 0 .076.047.191-.048.221-.133.041-.284.04-.419-.002-.07-.022-.039-.12-.039-.184-.001-.761 0-1.523 0-2.285z" fill="#61615e"/><path d="m241.245 208.88c-.006.157-.018.237-.215.236-1.039-.011-2.078-.009-3.117-.001-.183.001-.224-.055-.223-.229.009-.822.004-1.645.004-2.467 0-.83.004-1.66-.003-2.489-.001-.15.034-.209.197-.207 1.016.007 2.033.008 3.05-.001.192-.002.193.089.197.232.004.155-.022.227-.205.225-.837-.009-1.674 0-2.512-.008-.172-.002-.234.04-.23.224.013.5.012 1.002 0 1.502-.004.175.058.212.22.211.762-.008 1.525.003 2.287-.008.182-.002.227.053.225.227-.002.167-.032.234-.221.231-.762-.011-1.525.001-2.287-.009-.181-.003-.227.056-.224.23.01.553.011 1.106 0 1.659-.004.176.046.23.225.228.867-.009 1.734 0 2.602-.008.174-.002.238.04.23.222z" fill="#61615e"/><path d="m237.474 209.108c-.227 0-.41.004-.592-.001-.106-.003-.14-.104-.193-.172-.639-.838-1.279-1.675-1.91-2.518-.113-.151-.186-.171-.324-.032-.211.211-.436.409-.665.601-.109.092-.143.193-.141.331.006.538-.007 1.077.008 1.614.005.209-.114.189-.241.18-.117-.009-.271.069-.27-.172.008-1.682.007-3.364 0-5.045-.001-.223.141-.164.254-.164.112 0 .258-.061.255.163-.009.792-.005 1.585-.002 2.377 0 .068-.045.165.042.199.068.026.11-.061.157-.104.858-.79 1.73-1.566 2.562-2.381.28-.274.565-.267.955-.241-.503.457-.961.874-1.419 1.29-.276.251-.547.51-.833.75-.139.116-.126.194-.022.324.745.926 1.482 1.858 2.221 2.789.046.053.086.113.158.212z" fill="#61615e"/><path d="m232.055 207.68c-.386 1.012-1.104 1.52-2.146 1.52-1.126-.001-1.894-.533-2.242-1.61-.359-1.112-.288-2.177.451-3.145.828-1.087 3.166-1.26 3.883.567.034.086.114.206-.048.222-.132.013-.301.229-.411-.041-.232-.57-.588-1.014-1.232-1.122-.737-.123-1.365.08-1.822.695-.481.646-.549 1.389-.467 2.159.053.493.198.952.553 1.318.887.916 2.348.693 2.917-.446.057-.114.112-.231.143-.353.037-.151.116-.16.245-.124.284.079.285.074.176.36z" fill="#61615e"/><path d="m226.734 206.178c-.095-1.463-.86-2.369-2.191-2.521-1.328-.152-2.344.514-2.692 1.802-.157.58-.168 1.17-.039 1.755.201.908.686 1.607 1.615 1.867.927.26 1.818.164 2.547-.543.592-.575.753-1.321.762-2.113-.001-.083.003-.165-.002-.247zm-.931 1.779c-.719 1.119-2.356 1.145-3.112.05-.593-.859-.585-2.358.016-3.213.74-1.053 2.383-1.019 3.096.064.276.42.403.911.403 1.561.014.551-.101 1.07-.403 1.538z" fill="#61615e"/><path d="m223.706 197.559c-.054-.082-.069-.144.025-.226.799-.698 1.593-1.402 2.384-2.109.103-.092.142-.072.206.035.235.393.476.782.721 1.168.057.09.05.136-.044.186-.097.052-.186.119-.278.179-.781.483-1.565.962-2.342 1.451-.126.08-.182.06-.255-.06-.13-.213-.277-.416-.417-.624z" fill="#b81f14"/><path d="m221.045 192.08c.021.003.043.007.064.01.036.027.075.031.117.017.022.004.043.008.065.012.055.034.115.035.177.023.021.004.042.007.064.011.036.027.076.03.117.017.021.004.043.008.064.012.046.029.096.03.147.017.022.004.043.008.065.012.06.055.021.112.001.166-.07.194-.142.387-.213.58-.32.867-.639 1.734-.959 2.601-.028.076-.047.159-.161.134-.231-.049-.462-.097-.693-.142-.076-.015-.094-.053-.083-.128.105-.68.207-1.36.309-2.04.05-.337.097-.674.146-1.011.004-.022.008-.043.012-.065.027-.036.031-.075.017-.117.004-.022.007-.044.011-.066.02-.119.088-.146.197-.108.035.012.076.004.114.005.021.003.043.006.064.009.036.025.075.029.117.014.031.006.063.011.094.017.046.031.096.033.147.02z" fill="#b81f14"/><path d="m222.078 196.14c-.026-.073.021-.126.053-.181.549-.937 1.099-1.873 1.646-2.811.054-.093.093-.12.193-.049.339.243.684.478 1.03.712.081.055.1.095.028.174-.097.107-.183.225-.274.339-.04.044-.083.087-.121.133-.567.678-1.135 1.355-1.699 2.035-.069.083-.123.095-.213.037-.212-.133-.429-.259-.643-.389z" fill="#b81f14"/><path d="m216.45 202.199.001.01c.01.017.02.033.03.049v.011c.01.017.02.033.03.049l.001.011c.001.033.009.063.039.083.007.015.015.03.022.044l-.003.011.011.005c.007.013.013.026.02.039.001.047.023.084.062.11.226.459.45.919.679 1.377.803 1.598 1.605 3.197 2.414 4.792.07.139.063.205-.09.245-.057.015-.108.051-.162.077-.016.009-.031.019-.047.029-.013.004-.027.007-.04.011-.222.094-.444.187-.666.28-.187.079-.187.079-.276-.102-1.333-2.718-2.666-5.436-4.001-8.153-.281-.573-.567-1.144-.85-1.715-.005-.019-.008-.04-.016-.057-.125-.264-.126-.265.144-.393 1.221-.58 2.444-1.158 3.663-1.743.371-.178.721-.398 1.12-.518 2.171-.651 4.488.714 4.795 2.968.252 1.849-.71 3.027-.713 3.063-.015.012-.033.022-.045.038-.602.777-1.394 1.29-2.289 1.665-.115.048-.193.031-.281-.048-.161-.144-.331-.278-.497-.416-.84-.695-1.679-1.39-2.521-2.082-.086-.071-.112-.133-.07-.243.129-.338.249-.679.366-1.021.129-.375.281-.741.387-1.124.005-.008.208-.55.208-.55.011-.008.022-.017.033-.026.592 0 2.335-.018 2.614-.015.06.001.122-.011.164.046 0 .031.001 1.061 0 1.305-.17.007-.339.018-.509.019-.395.003-.79.001-1.185.001-.065 0-.132-.008-.153.081-.037.155-.079.309-.118.464-.02.017-.151.524-.191.632-.036.097-.008.155.076.214.49.342.976.69 1.464 1.034.345.243.35.247.663-.027.31-.271.959-1.194.956-1.201.019-.028.043-.055.058-.086.423-.854.298-1.668-.192-2.449-.422-.673-1.039-1.003-1.83-1-.563.002-1.093.152-1.593.405-.848.429-1.696.857-2.54 1.295-.405.21-.352.09-.156.512.004.009.014.014.021.021z" fill="#b81f14"/><g fill="#61615e"><path d="m214.46 206.11c-.09-1.288-.821-2.327-2.186-2.458-1.187-.114-2.203.379-2.636 1.613-.13.371-.178.756-.161 1.147 0 .127-.009.255.001.381.101 1.196.804 2.252 2.159 2.389 1.276.129 2.32-.448 2.697-1.739.128-.436.157-.883.126-1.333zm-1.019 1.979c-.756.985-2.273.958-2.996-.049-.625-.871-.599-2.413.018-3.289.686-.975 2.602-1.062 3.238.406.176.406.244.829.241 1.268.001.605-.126 1.174-.501 1.664z"/><path d="m209.329 208.884c-.003.171-.039.232-.224.23-1.039-.009-2.079-.008-3.118 0-.169.001-.215-.046-.213-.213.008-.83.004-1.66.004-2.491 0-.823.003-1.645-.003-2.468-.001-.154.021-.224.203-.222 1.01.009 2.019.01 3.029 0 .185-.002.202.072.203.223.002.162-.022.237-.215.235-.83-.012-1.66-.001-2.491-.009-.171-.002-.234.035-.229.221.014.508.01 1.017.002 1.525-.002.148.044.192.191.19.77-.006 1.541.004 2.311-.008.198-.003.212.08.214.237.002.158-.03.223-.208.22-.755-.01-1.511.001-2.266-.008-.178-.002-.248.034-.243.23.014.553.012 1.107.001 1.66-.004.175.04.23.223.228.867-.01 1.735 0 2.602-.009.178.001.23.051.227.229z"/><path d="m205.132 208.257c0 .092-.004.172-.095.233-.998.673-2.076.941-3.231.517-.99-.364-1.519-1.124-1.6-2.179-.038-.495-.01-.988.146-1.463.434-1.316 1.565-1.835 2.858-1.709.851.083 1.483.474 1.784 1.31.034.094.075.207-.079.214-.132.006-.295.23-.397-.018-.331-.812-.943-1.158-1.799-1.122-.824.035-1.418.422-1.769 1.167-.442.94-.276 2.29.356 2.959.612.648 1.373.725 2.192.563.363-.072.692-.23 1.003-.431.098-.064.14-.139.138-.258-.007-.329-.009-.658.001-.986.004-.152-.053-.191-.196-.189-.441.007-.883-.007-1.323.007-.189.006-.201-.08-.2-.228.002-.143.003-.241.197-.23.306.017.613.004.92.004.299 0 .598.009.897-.003.162-.006.201.053.199.206-.007.544-.003 1.09-.002 1.636z"/><path d="m199.566 206.172c-.098-1.455-.853-2.352-2.174-2.513-1.334-.162-2.364.51-2.711 1.804-.156.581-.167 1.171-.037 1.755.202.908.689 1.605 1.618 1.863.928.258 1.818.161 2.545-.549.591-.576.75-1.323.768-2.135-.001-.06-.003-.142-.009-.225zm-.903 1.742c-.739 1.206-2.508 1.212-3.2-.02-.547-.973-.543-2.006.008-2.978.668-1.178 2.414-1.196 3.161-.063.311.473.417 1.002.407 1.577.015.518-.094 1.024-.376 1.484z"/><path d="m194.648 208.891c-.003.177-.051.225-.228.223-1.031-.009-2.063-.009-3.094.001-.197.002-.232-.066-.23-.244.009-.822.004-1.644.004-2.466s.005-1.644-.003-2.466c-.002-.163.037-.219.21-.217 1.009.008 2.018.011 3.027-.001.207-.003.201.092.207.241.007.162-.031.219-.208.218-.837-.01-1.674.001-2.511-.009-.18-.002-.229.053-.225.227.01.493.013.987-.001 1.48-.005.196.066.233.244.231.754-.009 1.51.004 2.264-.009.194-.003.213.072.217.233.004.174-.042.228-.223.226-.762-.011-1.525 0-2.287-.009-.17-.002-.216.049-.214.215.009.561.011 1.121-.001 1.682-.004.185.064.221.232.22.859-.008 1.719.002 2.579-.008.184-.004.244.041.241.232z"/><path d="m190.471 208.907c0 .149-.03.203-.194.21-.238.01-.387-.057-.528-.268-.889-1.339-1.798-2.665-2.701-3.995-.054-.079-.093-.171-.177-.224-.071.03-.045.088-.044.137.009 1.361.016 2.721.033 4.082.002.198-.04.266-.254.271-.236.005-.243-.101-.242-.279.004-1.615.001-3.23.006-4.846 0-.089-.072-.249.08-.258.162-.009.356-.1.489.102.263.4.535.793.804 1.19.696 1.027 1.392 2.055 2.09 3.081.039.058.061.138.173.163 0-.385.003-.761-.001-1.138-.009-1.069-.014-2.138-.037-3.207-.005-.232.121-.202.265-.206.148-.004.245-.006.243.204-.012 1.661-.009 3.321-.005 4.981z"/></g></svg>