<svg enable-background="new 0 0 182.083 153.13" viewBox="0 0 182.083 153.13" xmlns="http://www.w3.org/2000/svg"><path d="m5.123 120.69v32.44l-3.38-1.38v-32z" fill="#35352f"/><path d="m180.337 119.68v32.43l-3.38 1.02.02-32.44z" fill="#35352f"/><path d="m176.957 153.13h-171.834v-32.44h171.854z" fill="#61615e"/><path d="m5.125 21.25h171.83v98.5h-171.83z" fill="#61615e"/><path d="m5.123 21.25v98.5l-3.38-1.04v-95.46z" fill="#35352f"/><path d="m176.957 21.25v98.5l3.38-1.04v-95.46z" fill="#35352f"/><path d="m79.207 127.063h25.982c.741 0 1.143.866.666 1.432l-12.451 14.772c-.578.685-1.628.704-2.229.038l-12.86-14.233c-.7-.774-.151-2.009.892-2.009z" fill="#44433e"/><path d="m65.3 127.063h-47.739c-1.105 0-2 .896-2 2v12.729c0 1.105.896 2 2 2h47.687c1.105 0 2-.896 2-2v-12.782c0-1.075-.872-1.947-1.948-1.947z" fill="#44433e"/><path d="m117.29 128.385v13.563c0 1.018.826 1.844 1.844 1.844h48.249c.961 0 1.74-.779 1.74-1.74v-12.896c0-1.156-.937-2.094-2.094-2.094h-48.417c-.73.001-1.322.593-1.322 1.323z" fill="#44433e"/><path d="m182.083 18-1.74 5.25h-.01l-3.37-2h-12.67l1.26-3.31 16.05.06z" fill="#44433e"/><path d="m178.48 2.5c-.29-.74-1.16-1.33-2-1.75-1.04-.5-2.16-.75-3.3-.75h-164.76c-1.14 0-2.27.25-3.3.75-.85.42-1.71 1.01-2 1.75-.63 1.63-3.12 15.5-3.12 15.5l13.54-.05 2.99-.01h19.45.899.071 128.6l16.53.06s-2.97-13.87-3.6-15.5z" fill="#61615e"/><path d="m18.775 5.08h144.53v1.08h-144.53z" fill="#747371"/><path d="m17.605 7.5h146.87v1.48h-146.87z" fill="#747371"/><path d="m17.065 10.02h147.95v2.13h-147.95z" fill="#747371"/><path d="m16.715 13.19h148.65v2.12h-148.65z" fill="#747371"/><path d="m17.79 30.917h146.5v79.167h-146.5z" fill="#4f4f4b"/><path d="m17.793 21.25h-12.67l-3.38 2-1.74-5.25 13.54-.05 2.99-.01.02.06z" fill="#44433e"/><path d="m17.79 26.375h146.5v2.125h-146.5z" fill="#747371"/><path d="m17.79 22.75h146.5v2.125h-146.5z" fill="#747371"/><path d="m165.55 17.94-1.26 3.31h-146.5l-1.24-3.25-.02-.06z" fill="#4f4f4b"/><path d="m1.743 118.71v1.04l3.38.94h171.854l3.36-1.01v-.97l-3.38 1.04h-171.834z" fill="#16170f"/><g fill="#61615e"><path d="m49.615 140.557h3.807v-4.864l5.729 4.864h4.53l-6.176-5.28 6.07-4.979h-4.53l-5.623 4.547v-4.547h-3.807z"/><path d="m34.702 140.557h3.808v-6.133l6.892 6.133h3.79v-10.259h-3.808v6.133l-6.892-6.133h-3.79z"/><path d="m34.068 133.154v-2.856h-11.105c-1.933-.034-3.173 1.468-3.173 3.279s1.189 3.314 3.173 3.279h7.033c.262 0 .476.189.476.423s-.214.423-.476.423h-10.1v2.856h11.105c1.933.034 3.173-1.468 3.173-3.279s-1.189-3.314-3.173-3.279h-7.033c-.262 0-.476-.189-.476-.423s.214-.423.476-.423z"/><path d="m162.911 139.909c0-.529-.007-1.057.004-1.586.003-.156-.048-.189-.191-.184-.291.01-.583-.004-.874.006-.149.005-.128-.083-.133-.175-.006-.103.014-.155.138-.154.831.005 1.662.006 2.492-.001.141-.001.127.075.126.163-.002.084.023.172-.122.167-.307-.01-.615.002-.922-.006-.124-.003-.153.04-.153.158.004 1.079.003 2.158.001 3.237 0 .055.034.138-.035.159-.096.03-.205.029-.302-.001-.051-.016-.028-.087-.028-.133-.001-.549-.001-1.099-.001-1.65z"/><path d="m161.569 141.54c-.005.113-.013.171-.155.17-.75-.008-1.5-.007-2.25-.001-.132.001-.162-.04-.161-.165.006-.594.003-1.187.003-1.781 0-.599.003-1.198-.002-1.797-.001-.109.024-.151.143-.15.734.005 1.468.006 2.202-.001.139-.001.14.064.142.167.003.112-.016.164-.148.162-.604-.007-1.209 0-1.813-.006-.124-.001-.169.029-.166.162.009.361.008.723 0 1.084-.003.126.042.153.159.152.55-.006 1.101.002 1.651-.006.131-.002.164.038.162.164-.002.121-.023.169-.159.167-.55-.008-1.101.001-1.651-.006-.131-.002-.164.04-.162.166.007.399.008.799 0 1.198-.003.127.033.166.163.165.626-.006 1.252 0 1.878-.006.124.001.17.031.164.162z"/><path d="m158.847 141.705c-.164 0-.296.003-.427-.001-.076-.002-.101-.075-.139-.124-.461-.605-.924-1.209-1.379-1.818-.081-.109-.134-.123-.234-.023-.152.153-.315.295-.48.434-.079.066-.103.139-.102.239.005.388-.005.777.006 1.165.004.151-.082.136-.174.13-.085-.006-.196.05-.195-.124.006-1.214.005-2.429 0-3.643-.001-.161.102-.119.183-.118.081 0 .186-.044.184.118-.007.572-.004 1.144-.001 1.716 0 .049-.032.119.03.144.049.019.08-.044.113-.075.619-.57 1.249-1.13 1.85-1.719.202-.198.408-.193.689-.174-.363.33-.694.631-1.024.931-.2.181-.395.368-.601.541-.1.084-.091.14-.016.234.537.669 1.07 1.341 1.603 2.013.033.039.062.083.114.154z"/><path d="m154.935 140.674c-.279.731-.797 1.098-1.549 1.097-.813-.001-1.368-.385-1.619-1.162-.259-.803-.208-1.572.325-2.271.598-.785 2.286-.91 2.803.41.024.062.083.148-.034.16-.096.009-.217.165-.296-.029-.167-.411-.424-.732-.89-.81-.532-.089-.985.058-1.315.502-.347.467-.397 1.003-.337 1.559.038.356.143.687.399.952.64.662 1.695.5 2.106-.322.041-.082.081-.167.103-.255.027-.109.084-.115.177-.089.204.055.205.052.127.258z"/><path d="m151.093 139.59c-.069-1.057-.621-1.71-1.582-1.82-.959-.11-1.693.371-1.944 1.301-.113.419-.122.845-.029 1.267.145.656.495 1.16 1.166 1.348.669.188 1.312.119 1.839-.392.427-.415.544-.954.55-1.525 0-.061.004-.12 0-.179zm-.672 1.284c-.519.808-1.701.827-2.247.036-.428-.62-.422-1.702.012-2.32.534-.76 1.721-.736 2.235.046.2.304.291.658.291 1.127.01.399-.073.773-.291 1.111z"/><path d="m148.789 133.412c-.043-.066-.055-.116.02-.182.641-.561 1.279-1.126 1.914-1.694.083-.074.114-.058.166.028.189.315.382.628.579.938.046.072.04.109-.035.15-.078.041-.149.095-.223.144-.627.388-1.256.773-1.88 1.165-.102.064-.146.048-.205-.048-.106-.172-.224-.335-.336-.501z"/><path d="m146.652 129.012c.017.003.035.005.052.008.029.021.06.025.094.014.017.003.035.006.052.01.045.027.092.028.142.018l.051.009c.029.022.061.024.094.013.017.003.034.006.052.01.037.023.077.024.118.014.017.003.035.006.052.009.048.044.017.09.001.133-.056.156-.114.31-.171.466-.257.696-.513 1.392-.77 2.089-.023.061-.038.127-.129.108-.185-.04-.371-.078-.557-.114-.061-.012-.076-.043-.066-.103.084-.546.166-1.092.248-1.638.04-.27.078-.541.117-.812.003-.017.006-.035.009-.052.022-.029.025-.06.014-.094.003-.018.006-.035.008-.053.016-.095.071-.117.158-.087.028.01.061.003.092.004.017.002.034.005.052.007.029.02.061.023.094.011.025.005.051.009.076.014.036.025.076.027.117.016z"/><path d="m147.481 132.272c-.021-.059.017-.101.043-.145.44-.753.883-1.504 1.322-2.257.043-.074.075-.096.155-.039.272.195.549.384.827.571.065.044.08.076.023.14-.078.086-.147.181-.22.272-.032.036-.066.07-.097.107-.455.544-.912 1.088-1.364 1.634-.055.067-.099.076-.171.03-.171-.108-.345-.209-.518-.313z"/><path d="m142.962 137.137.001.008c.008.013.016.026.024.04v.009c.008.013.016.026.024.04v.009c.001.027.007.051.031.066l.018.036-.003.008.009.004c.005.01.011.021.016.031.001.038.018.067.049.089.182.369.361.738.546 1.105.644 1.284 1.289 2.567 1.938 3.848.056.111.051.164-.072.197-.046.012-.087.041-.13.062-.013.008-.025.015-.038.023-.011.003-.021.006-.032.008-.178.075-.357.15-.535.225-.15.063-.15.064-.221-.082-1.071-2.182-2.141-4.365-3.212-6.547-.226-.46-.455-.918-.683-1.377-.004-.015-.006-.032-.013-.046-.101-.212-.101-.213.116-.316.981-.466 1.962-.93 2.941-1.399.298-.143.579-.319.899-.416 1.743-.523 3.604.573 3.851 2.383.202 1.484-.571 2.431-.573 2.46-.012.01-.027.018-.036.03-.483.624-1.119 1.036-1.838 1.337-.093.039-.155.025-.226-.039-.129-.116-.266-.223-.399-.334-.674-.558-1.348-1.116-2.024-1.672-.069-.057-.09-.107-.056-.195.103-.271.2-.545.294-.82.104-.301.225-.595.311-.902.004-.007.167-.442.167-.442.009-.007.018-.014.026-.021.475 0 1.875-.014 2.099-.012.048.001.098-.009.132.037 0 .025.001.852 0 1.048-.136.005-.272.015-.409.016-.317.002-.634.001-.951.001-.053 0-.106-.006-.123.065-.03.125-.063.248-.095.372-.016.014-.121.421-.153.507-.029.078-.006.125.061.172.394.275.784.554 1.176.831.277.195.281.198.533-.022.249-.218.77-.959.768-.964.016-.023.034-.044.046-.069.339-.686.239-1.339-.154-1.966-.339-.54-.834-.805-1.47-.803-.452.001-.878.122-1.279.325-.681.344-1.362.689-2.039 1.04-.325.168-.283.072-.125.411.003.007.011.011.017.017z"/><path d="m142.232 139.541c-.065-.93-.593-1.68-1.578-1.775-.857-.082-1.59.273-1.903 1.164-.094.268-.129.546-.116.828 0 .092-.007.184.001.275.073.863.58 1.626 1.559 1.725.921.093 1.675-.324 1.947-1.255.091-.315.112-.637.09-.962zm-.736 1.428c-.546.711-1.641.692-2.163-.036-.451-.629-.432-1.742.013-2.375.495-.704 1.878-.767 2.338.293.127.293.176.599.174.915 0 .439-.091.849-.362 1.203z"/><path d="m138.528 141.544c-.002.123-.028.167-.162.166-.75-.006-1.501-.006-2.251 0-.122.001-.155-.033-.154-.154.006-.599.003-1.199.003-1.798 0-.594.002-1.188-.002-1.782-.001-.111.015-.162.147-.16.729.007 1.458.007 2.187 0 .133-.001.146.052.147.161.001.117-.016.171-.156.169-.599-.008-1.199-.001-1.798-.006-.123-.001-.169.025-.166.159.01.367.007.734.001 1.101-.002.107.031.138.138.137.556-.005 1.112.003 1.668-.006.143-.002.153.058.155.171.002.114-.021.161-.15.159-.545-.007-1.091.001-1.636-.006-.128-.002-.179.024-.175.166.01.399.008.799.001 1.198-.003.126.029.166.161.164.626-.007 1.253 0 1.879-.006.127.002.164.038.163.167z"/><path d="m135.497 141.091c0 .067-.003.124-.068.168-.721.486-1.499.679-2.333.373-.714-.263-1.096-.811-1.155-1.573-.028-.357-.007-.713.106-1.057.313-.95 1.13-1.324 2.063-1.234.615.06 1.071.342 1.288.946.025.068.054.149-.057.155-.095.004-.213.166-.286-.013-.239-.586-.681-.836-1.299-.81-.595.025-1.023.305-1.277.842-.319.678-.199 1.653.257 2.136.442.468.991.523 1.582.406.262-.052.5-.166.724-.311.071-.046.101-.1.099-.186-.005-.237-.006-.475.001-.712.003-.11-.039-.138-.141-.136-.318.005-.637-.005-.955.005-.137.005-.145-.058-.144-.164.001-.103.002-.174.142-.166.221.012.443.003.664.003.216 0 .432.006.647-.002.117-.005.145.038.144.148-.005.394-.002.788-.002 1.182z"/><path d="m131.479 139.586c-.071-1.051-.616-1.698-1.569-1.814-.963-.117-1.707.368-1.957 1.302-.112.42-.121.846-.027 1.267.146.655.497 1.159 1.168 1.345.67.186 1.312.116 1.838-.397.426-.416.542-.955.554-1.541-.002-.044-.003-.103-.007-.162zm-.652 1.257c-.533.871-1.81.875-2.31-.014-.395-.703-.392-1.448.006-2.15.482-.85 1.743-.863 2.282-.046.225.341.301.723.294 1.139.01.374-.068.739-.272 1.071z"/><path d="m127.928 141.548c-.002.128-.037.163-.165.161-.745-.006-1.489-.007-2.234.001-.142.001-.168-.048-.166-.176.006-.594.003-1.187.003-1.781s.003-1.187-.002-1.781c-.001-.118.027-.158.152-.157.728.006 1.457.008 2.185-.001.149-.002.145.067.15.174.005.117-.023.158-.15.157-.604-.007-1.208.001-1.813-.006-.13-.002-.165.038-.162.164.007.356.009.712-.001 1.068-.004.141.047.168.176.167.545-.006 1.09.003 1.635-.006.14-.002.154.052.156.168.003.126-.03.165-.161.163-.55-.008-1.101 0-1.651-.006-.122-.001-.156.036-.154.156.007.405.008.81-.001 1.214-.003.134.046.16.168.159.62-.006 1.241.001 1.862-.006.132-.002.175.03.173.168z"/><path d="m124.913 141.56c0 .108-.022.146-.14.152-.172.007-.28-.041-.381-.194-.642-.966-1.298-1.924-1.95-2.884-.039-.057-.067-.123-.128-.162-.051.022-.032.064-.032.099.006.982.011 1.965.024 2.947.002.143-.029.192-.184.195-.17.004-.176-.073-.175-.202.003-1.166.001-2.332.004-3.498 0-.064-.052-.18.058-.186.117-.007.257-.072.353.074.19.289.387.573.58.859.503.742 1.005 1.484 1.509 2.225.029.042.044.099.125.118 0-.278.002-.549-.001-.821-.007-.772-.01-1.543-.027-2.315-.004-.168.087-.146.191-.148.107-.003.177-.005.176.147-.007 1.197-.005 2.396-.002 3.594z"/></g></svg>