<svg enable-background="new 0 0 499.969 148.364" viewBox="0 0 499.969 148.364" xmlns="http://www.w3.org/2000/svg"><path d="m481.598 124.076c0-6.214-.078-12.43.048-18.642.037-1.833-.564-2.218-2.246-2.159-3.42.121-6.85-.05-10.27.071-1.754.062-1.505-.973-1.565-2.059-.066-1.211.161-1.822 1.619-1.812 9.765.061 19.53.071 29.295-.007 1.656-.013 1.498.878 1.477 1.919-.021.991.275 2.017-1.433 1.961-3.61-.119-7.229.029-10.841-.068-1.462-.039-1.8.475-1.795 1.857.047 12.682.033 25.364.011 38.046-.001.643.395 1.624-.408 1.873-1.132.351-2.411.342-3.554-.014-.594-.185-.327-1.017-.328-1.563-.015-6.467-.01-12.935-.01-19.403z" fill="#61615e"/><path d="m465.823 143.247c-.053 1.333-.156 2.015-1.82 1.999-8.816-.091-17.636-.08-26.452-.008-1.55.011-1.904-.468-1.889-1.942.072-6.977.03-13.957.03-20.934 0-7.041.03-14.083-.023-21.124-.012-1.276.286-1.771 1.676-1.759 8.626.057 17.251.069 25.881-.008 1.63-.015 1.641.754 1.672 1.969.03 1.314-.19 1.927-1.737 1.908-7.102-.08-14.209 0-21.315-.065-1.462-.015-1.988.343-1.95 1.9.107 4.246.099 8.5.004 12.746-.034 1.481.495 1.801 1.866 1.79 6.47-.065 12.94.023 19.411-.069 1.542-.019 1.927.446 1.908 1.927-.019 1.417-.274 1.984-1.874 1.957-6.47-.095-12.94.008-19.411-.072-1.539-.023-1.927.472-1.9 1.95.088 4.692.091 9.387 0 14.079-.03 1.497.392 1.954 1.912 1.938 7.358-.072 14.719.004 22.076-.065 1.463-.014 2 .34 1.935 1.883z" fill="#61615e"/><path d="m433.82 145.181c-1.927 0-3.477.034-5.023-.011-.899-.027-1.192-.88-1.634-1.462-5.423-7.11-10.857-14.212-16.212-21.372-.956-1.28-1.577-1.447-2.746-.274-1.79 1.794-3.702 3.469-5.644 5.099-.925.781-1.215 1.638-1.2 2.807.053 4.566-.057 9.136.065 13.698.046 1.771-.963 1.603-2.041 1.527-.994-.072-2.3.583-2.293-1.459.065-14.273.061-28.547.004-42.816-.008-1.897 1.196-1.394 2.155-1.39.952.004 2.19-.522 2.163 1.382-.08 6.722-.042 13.447-.015 20.172.004.575-.381 1.401.358 1.687.575.221.937-.518 1.333-.884 7.281-6.703 14.677-13.287 21.741-20.207 2.376-2.327 4.791-2.27 8.104-2.049-4.265 3.881-8.153 7.415-12.042 10.945-2.346 2.133-4.642 4.33-7.068 6.364-1.177.986-1.07 1.649-.183 2.753 6.318 7.86 12.575 15.766 18.847 23.664.379.478.721.989 1.331 1.826z" fill="#61615e"/><path d="m387.838 133.067c-3.279 8.591-9.365 12.902-18.211 12.899-9.551-.008-16.075-4.52-19.03-13.664-3.047-9.441-2.441-18.474 3.823-26.692 7.03-9.224 26.871-10.694 32.953 4.814.286.731.971 1.744-.404 1.881-1.123.107-2.555 1.942-3.484-.347-1.965-4.836-4.989-8.607-10.458-9.521-6.253-1.043-11.581.682-15.461 5.895-4.082 5.484-4.661 11.79-3.964 18.325.446 4.181 1.679 8.077 4.696 11.189 7.525 7.776 19.925 5.88 24.75-3.785.48-.963.952-1.957 1.211-2.993.316-1.28.982-1.356 2.079-1.051 2.414.663 2.421.625 1.5 3.05z" fill="#61615e"/><path d="m342.679 120.317c-.807-12.419-7.3-20.1-18.592-21.391-11.269-1.291-19.894 4.364-22.846 15.29-1.333 4.924-1.428 9.932-.335 14.89 1.702 7.708 5.819 13.634 13.702 15.842 7.868 2.205 15.423 1.394 21.612-4.612 5.023-4.878 6.394-11.211 6.466-17.929.001-.696.039-1.393-.007-2.09zm-7.894 15.096c-6.105 9.498-19.993 9.715-26.406.427-5.031-7.289-4.966-20.009.137-27.267 6.28-8.938 20.226-8.649 26.273.545 2.346 3.568 3.42 7.731 3.42 13.245.113 4.68-.869 9.078-3.424 13.05z" fill="#61615e"/><path d="m316.986 47.179c-.456-.699-.583-1.225.214-1.922 6.777-5.927 13.518-11.895 20.227-17.898.873-.781 1.208-.608 1.75.298 1.994 3.331 4.038 6.633 6.117 9.911.482.76.426 1.157-.373 1.582-.823.438-1.576 1.007-2.36 1.519-6.63 4.096-13.277 8.164-19.873 12.315-1.073.675-1.542.508-2.162-.51-1.104-1.811-2.352-3.534-3.54-5.295z" fill="#b81f14"/><path d="m294.409.681c.182.028.365.056.547.085.304.225.635.263.989.143.184.034.369.068.553.102.471.286.977.296 1.498.194.18.03.36.061.541.091.305.231.641.252.995.142.182.034.364.067.546.101.392.246.812.253 1.245.147.183.033.367.066.55.099.509.464.179.949.013 1.409-.593 1.644-1.206 3.28-1.81 4.92-2.712 7.358-5.425 14.716-8.135 22.075-.238.647-.398 1.346-1.366 1.14-1.958-.418-3.919-.823-5.884-1.208-.649-.127-.798-.452-.7-1.086.889-5.768 1.757-11.539 2.618-17.311.426-2.858.826-5.72 1.238-8.58.033-.183.066-.366.099-.548.228-.303.266-.635.147-.99.03-.185.06-.371.089-.556.174-1.008.747-1.238 1.674-.916.293.102.645.034.97.044.182.026.363.052.545.079.309.214.64.248.99.119.267.048.535.095.802.143.387.257.808.277 1.246.162z" fill="#b81f14"/><path d="m303.169 35.139c-.222-.62.18-1.071.451-1.534 4.655-7.953 9.33-15.894 13.972-23.855.458-.786.789-1.019 1.634-.413 2.878 2.063 5.804 4.059 8.74 6.038.689.465.846.807.238 1.478-.826.912-1.554 1.914-2.324 2.877-.343.376-.701.739-1.027 1.129-4.814 5.751-9.636 11.495-14.418 17.272-.587.708-1.042.806-1.81.317-1.794-1.143-3.635-2.211-5.456-3.309z" fill="#b81f14"/><path d="m255.413 86.553.008.087c.085.141.166.279.251.42l.003.092c.085.141.169.279.254.42l.005.092c.008.282.074.538.33.702.061.128.126.254.187.377l-.028.09.092.038c.056.11.113.22.169.33.01.402.195.709.522.937 1.921 3.896 3.819 7.802 5.766 11.682 6.811 13.565 13.618 27.129 20.485 40.666.594 1.176.538 1.737-.766 2.082-.484.125-.917.43-1.375.656-.133.079-.266.161-.4.243-.113.031-.225.061-.338.09-1.885.794-3.77 1.585-5.653 2.379-1.583.669-1.585.671-2.338-.863-11.316-23.065-22.627-46.129-33.95-69.188-2.385-4.861-4.808-9.705-7.215-14.556-.044-.161-.067-.336-.138-.484-1.063-2.244-1.066-2.246 1.224-3.335 10.363-4.925 20.739-9.825 31.084-14.789 3.148-1.511 6.119-3.376 9.505-4.393 18.421-5.525 38.087 6.06 40.694 25.183 2.139 15.688-6.029 25.687-6.052 25.995l-.003.003c-.128.105-.284.19-.384.32-5.107 6.593-11.828 10.95-19.425 14.126-.978.407-1.634.266-2.387-.407-1.368-1.222-2.807-2.359-4.221-3.527-7.126-5.894-14.249-11.795-21.395-17.665-.73-.602-.948-1.13-.594-2.059 1.094-2.866 2.111-5.763 3.109-8.665 1.096-3.179 2.382-6.291 3.286-9.536.038-.072 1.765-4.667 1.765-4.667.095-.072.187-.146.279-.218 5.023 0 19.814-.151 22.186-.128.51.008 1.032-.095 1.396.394.003.264.01 9.003-.003 11.078-1.439.056-2.879.154-4.321.164-3.35.023-6.703.008-10.053.008-.556 0-1.117-.064-1.296.692-.312 1.316-.668 2.625-1.004 3.937-.166.143-1.281 4.446-1.621 5.361-.305.825-.067 1.319.643 1.813 4.16 2.905 8.283 5.855 12.425 8.778 2.925 2.064 2.966 2.095 5.63-.233 2.633-2.303 8.14-10.135 8.117-10.191v-.003c.164-.241.361-.466.489-.727 3.586-7.248 2.525-14.154-1.629-20.782-3.578-5.712-8.816-8.511-15.532-8.488-4.779.015-9.277 1.288-13.521 3.437-7.197 3.64-14.395 7.277-21.553 10.993-3.435 1.78-2.986.761-1.324 4.347.033.074.115.12.177.182z" fill="#b81f14"/><g fill="#61615e"><path d="m238.524 119.746c-.765-10.933-6.969-19.746-18.55-20.862-10.073-.967-18.691 3.214-22.37 13.687-1.104 3.146-1.512 6.413-1.363 9.738 0 1.078-.08 2.163.011 3.233.861 10.149 6.821 19.11 18.322 20.271 10.831 1.093 19.685-3.804 22.888-14.757 1.081-3.705 1.329-7.494 1.062-11.31zm-8.649 16.787c-6.413 8.359-19.285 8.131-25.42-.419-5.305-7.392-5.08-20.477.149-27.914 5.819-8.272 22.08-9.01 27.477 3.446 1.493 3.446 2.072 7.038 2.045 10.758.011 5.141-1.063 9.97-4.251 14.129z"/><path d="m194.986 143.285c-.023 1.447-.331 1.969-1.9 1.954-8.82-.076-17.644-.069-26.464-.004-1.436.011-1.82-.388-1.805-1.805.069-7.045.031-14.091.031-21.136 0-6.981.027-13.961-.023-20.942-.011-1.306.179-1.9 1.725-1.885 8.569.08 17.137.084 25.706 0 1.569-.015 1.714.613 1.725 1.896.015 1.371-.187 2.015-1.828 1.992-7.045-.099-14.091-.008-21.136-.072-1.451-.015-1.988.297-1.946 1.874.118 4.311.084 8.629.015 12.944-.019 1.257.369 1.626 1.618 1.615 6.535-.053 13.074.038 19.609-.069 1.68-.027 1.798.682 1.817 2.015.019 1.344-.251 1.893-1.767 1.87-6.409-.088-12.822.008-19.232-.069-1.508-.019-2.102.286-2.06 1.954.118 4.692.099 9.391.008 14.087-.03 1.481.343 1.95 1.893 1.931 7.358-.084 14.723.004 22.084-.072 1.511-.017 1.949.41 1.93 1.922z"/><path d="m159.369 137.961c.004.785-.038 1.462-.804 1.98-8.47 5.712-17.617 7.986-27.419 4.383-8.397-3.088-12.887-9.536-13.576-18.493-.324-4.201-.088-8.386 1.241-12.419 3.679-11.17 13.279-15.568 24.255-14.502 7.224.701 12.586 4.022 15.142 11.12.289.8.64 1.756-.67 1.817-1.12.05-2.506 1.954-3.367-.152-2.807-6.893-8.005-9.825-15.267-9.524-6.992.293-12.03 3.58-15.008 9.901-3.755 7.974-2.342 19.434 3.02 25.112 5.194 5.499 11.653 6.15 18.599 4.776 3.085-.613 5.876-1.954 8.511-3.656.834-.541 1.192-1.181 1.169-2.19-.057-2.788-.076-5.583.008-8.371.034-1.287-.453-1.622-1.66-1.603-3.744.061-7.491-.061-11.227.061-1.607.053-1.71-.678-1.695-1.931.015-1.215.027-2.041 1.668-1.954 2.593.141 5.202.038 7.803.038 2.536 0 5.076.072 7.609-.027 1.371-.053 1.706.446 1.687 1.744-.065 4.628-.03 9.259-.019 13.89z"/><path d="m112.134 120.272c-.83-12.35-7.236-19.963-18.447-21.322-11.322-1.375-20.062 4.326-23.002 15.309-1.321 4.932-1.417 9.94-.312 14.894 1.714 7.704 5.846 13.622 13.733 15.812 7.875 2.186 15.427 1.363 21.6-4.661 5.012-4.886 6.367-11.223 6.516-18.116-.023-.523-.039-1.219-.088-1.916zm-7.662 14.776c-6.268 10.237-21.281 10.286-27.157-.168-4.642-8.26-4.612-17.023.069-25.268 5.67-9.993 20.485-10.145 26.825-.537 2.643 4.01 3.538 8.5 3.458 13.382.118 4.395-.804 8.687-3.195 12.591z"/><path d="m70.4 143.342c-.023 1.504-.43 1.912-1.938 1.897-8.751-.072-17.503-.08-26.254.008-1.672.015-1.969-.564-1.954-2.072.072-6.977.03-13.953.03-20.93s.038-13.953-.027-20.93c-.015-1.386.316-1.855 1.786-1.843 8.561.069 17.126.091 25.687-.011 1.756-.023 1.706.785 1.759 2.045.057 1.371-.267 1.862-1.763 1.847-7.102-.084-14.205.008-21.307-.072-1.523-.019-1.942.446-1.908 1.923.088 4.185.107 8.374-.011 12.556-.046 1.66.556 1.98 2.072 1.961 6.402-.072 12.811.034 19.216-.076 1.645-.027 1.809.609 1.839 1.976.034 1.478-.358 1.938-1.897 1.916-6.47-.091-12.94.004-19.407-.072-1.44-.015-1.836.419-1.813 1.828.08 4.757.091 9.517-.008 14.27-.034 1.573.541 1.877 1.969 1.866 7.293-.065 14.589.015 21.882-.065 1.56-.021 2.07.356 2.047 1.978z"/><path d="m34.955 143.479c.004 1.264-.255 1.721-1.645 1.782-2.022.084-3.287-.48-4.482-2.277-7.548-11.36-15.256-22.617-22.918-33.901-.457-.67-.788-1.451-1.504-1.9-.602.255-.381.75-.377 1.165.076 11.547.133 23.093.282 34.64.019 1.679-.339 2.254-2.159 2.296-1.999.046-2.064-.853-2.056-2.369.038-13.706.011-27.412.05-41.121.004-.754-.613-2.114.678-2.186 1.371-.08 3.02-.849 4.147.864 2.232 3.393 4.543 6.733 6.821 10.096 5.91 8.717 11.813 17.438 17.735 26.147.335.491.514 1.169 1.466 1.386 0-3.267.023-6.459-.008-9.654-.08-9.071-.122-18.143-.316-27.214-.046-1.969 1.024-1.714 2.247-1.744 1.253-.03 2.075-.053 2.064 1.729-.086 14.088-.063 28.174-.025 42.261z"/></g></svg>