<?xml version="1.0" encoding="utf-8"?>
<!-- Generator: Adobe Illustrator 22.0.0, SVG Export Plug-In . SVG Version: 6.00 Build 0)  -->
<svg version="1.1" xmlns="http://www.w3.org/2000/svg" xmlns:xlink="http://www.w3.org/1999/xlink" x="0px" y="0px"
	 viewBox="0 0 123.717 529.862" style="enable-background:new 0 0 123.717 529.862;" xml:space="preserve">
<g>
	<g>
		<path d="M109.641,412.266c-0.964,5.785-30.152-0.344-36.521-2.264c-1.955-0.589-11.182,4.001-16.757,6.955
			c-10.113,5.358-19.763,11.607-29.972,16.759c-9.704,4.898-26.524-6.233-26.39-17.102c0.026-2.095,0.41-5.169,1.777-6.096
			c6.037-4.091,12.169-8.347,18.859-11.112c19.889-8.219,19.998-7.956,19.998-30.938c0-3.769,0.565-7.64-0.1-11.288
			c-2.633-14.453,3.045-23.442,17.042-27.457c9.856-2.827,12.611-9.701,12.604-19.514c-0.015-20.914-0.471-40.702-0.471-61.027
			c0-15.383,1.948-32.754-7.971-42.673c-0.632-0.632-0.397-1.636-0.115-1.734c1.835-0.635,6.658-0.06,9.292-0.349
			c0.507-0.056,0.893-0.484,0.893-0.995v-44.7c0-0.535-0.42-0.978-0.955-1.002c-9.285-0.412-18.69-0.161-18.713-12.968
			c-0.073-39.947-0.257-79.899,0.341-119.837c0.059-3.974,4.465-10.225,8.098-11.332c8.091-2.464,16.91-2.539,26.358-3.596
			c0.473-0.053,0.85-0.435,0.893-0.909l0.753-8.181C88.633,0.394,89.065,0,89.582,0l19.689,0c0.528,0,0.966,0.411,0.999,0.938
			l0.937,14.842c0.031,0.497,0.438,0.896,0.901,0.933l8.196,0.657c0.52,0.042,0.91,0.475,0.91,0.997v271.205
			c0,0.478-0.323,0.886-0.856,0.992l-6.619,1.317c-0.468,0.093-0.819,0.511-0.819,0.989c-0.001,17.878-0.019,38.278,0.03,55.702
			 M67.716,369.471c0.673-0.451,0.559-1.473-0.197-1.765l-10.045-3.88c-0.748-0.289-0.879-1.311-0.212-1.756
			c4.835-3.227,10.002-5.506,11.78-9.351c1.666-3.604-0.948-9.664-2.876-14.113c-0.477-1.101-6.532-1.369-8.458,0.072
			c-3.901,2.919-8.906,6.929-9.559,11.099c-1.415,9.041-0.471,18.45-0.446,27.716c-0.332,4.498,2.918,3.75,4.48,2.397
			L67.716,369.471z"/>
	</g>
	<path style="fill:#212121;" d="M71.083,213.222v194.105c0,1.365,0.952,2.544,2.287,2.832l18.623,4.014
		c6.623,0.984,11.184-3.145,11.184-9.03v-191.92c0-1.6-1.297-2.897-2.897-2.897h-26.3C72.38,210.325,71.083,211.622,71.083,213.222z
		"/>
	<path style="fill:#292828;" d="M11.624,414.205c-3.4,2.117-6.037,4.205-2.373,8.294c3.281,3.662,6.638,7.917,12.192,5.892
		c4.384-1.599,9.402-3.594,12.205-7.003c9.513-11.569,22.541-14.422,36.128-16.509c7.051-8.819,6.453-14.793-2.262-22.594
		L11.624,414.205z"/>
	<path style="fill:#3B3B3B;" d="M101.507,414.205h9.234c1.188,0,2.15-1.256,2.15-2.806V206.525c0-1.549-0.963-2.806-2.15-2.806
		h-9.234"/>
	<g>
		<path style="fill:#6E4428;" d="M89.109,455.444c-5.964,18.218-10.011,36.773-14.106,55.389c-1.651,7.504,1.829,14.138,8.7,12.324
			c12.949-3.418,21.724-5.349,37.459-8.929c0.127-23.666,0.255-47.905,0.376-71.571c0.006-1.127,0.406-2.589-0.142-3.331
			c-10.587-14.353-2.937-28.317,0.168-42.843c2.364-11.061,2.435-21.349,1.84-32.126c-8.023,0.054-8.095,6.768-9.401,11.871"/>
		<path style="fill:#4F2F1B;" d="M121.162,514.229c-11.04,2.068-22.074,4.172-33.122,6.192c-8.155,1.492-11.905-0.174-9.763-10.027
			c5.667-26.072,12.102-51.828,23.274-76.186c0.623-1.359,1.917-3.366,1.427-4.136c-7.248-11.394,3.531-17.918,6.806-26.494
			c3.331-8.72,7.452-17.158,7.839-26.921c0.164-4.144,1.335-9.074,5.78-11.726c-0.147-6.455,0.426-11.635-3.608-15.813
			c-1.633-1.692-4.292-2.197-6.309-0.987c-3.38,2.027-3.54,6.351-3.852,9.897c-0.444,5.053-0.444,9.43-0.558,14.157
			c-0.499,8.939-2.544,17.688-3.491,26.58c-0.516,7.184-1.957,13.611-11.187,13.658c-4.078,1.34-7.047,3.295-3.351,7.814
			c4.454,5.447,3.4,11.282,1.259,17.026c-3.604,9.67-5.211,19.98-9.588,29.386c-6.609,16.57-8.872,34.276-13.042,51.462
			c-2.926,12.061-0.381,13.399,12.123,10.372c11.354-2.749,22.761-5.539,34.307-7.115
			C121.695,520.606,122.114,518.482,121.162,514.229z"/>
		<path style="fill:#361E10;" d="M82.717,466.651c8.453-10.358,8.925-24.187,15.411-35.464c2.343-4.073-0.335-8.014-3.722-10.734
			c-3.55-2.85-3.137-5.35-0.009-8.028c-3.117,0.078-6.233,0.157-9.349,0.236c9.254,14.887,3.042,29.696-0.713,44.303
			C83.494,460.236,83.634,463.5,82.717,466.651z"/>
	</g>
	<path style="fill:#212121;" d="M61.345,205.616v-0.498c0-0.769,0.629-1.398,1.398-1.398h39.035c0.769,0,1.398,0.629,1.398,1.398
		v0.498c0,0.769-0.629,1.398-1.398,1.398H62.743C61.974,207.014,61.345,206.385,61.345,205.616z"/>
	<polygon points="99.013,278.514 99.013,396.861 101.507,392.333 101.507,273.987 	"/>
	<polygon points="79.208,210.325 79.208,342.321 81.701,337.794 81.701,210.325 	"/>
	<polygon style="fill:#383838;" points="73.679,210.325 73.679,357.176 78.323,352.102 78.323,210.325 	"/>
	<path d="M85.214,220.578v41.564c0,2.489,2.036,4.525,4.525,4.525h12.734c2.489,0,4.525-2.036,4.525-4.525v-41.564
		c0-2.489-2.036-4.525-4.525-4.525H89.739C87.25,216.053,85.214,218.089,85.214,220.578z"/>
	<path style="fill:#3D3D3D;" d="M101.622,218.048H90.654c-2.248,0-4.088,1.84-4.088,4.088v38.827c0,2.248,1.84,4.088,4.088,4.088
		h10.968"/>
	<path style="fill:#6C6C6C;" d="M101.622,265.051c2.248,0,4.088-1.84,4.088-4.088v-38.827c0-2.248-1.84-4.088-4.088-4.088"/>
	
		<rect x="80.694" y="232.01" transform="matrix(4.488505e-11 -1 1 4.488505e-11 -137.3538 328.5682)" width="29.827" height="1.903"/>
	<path style="fill:#3E3E3E;" d="M71.868,200.793h6.997c2.489,0,4.525-2.036,4.525-4.525v-39.53c0-2.489-2.036-4.525-4.525-4.525
		h-6.997"/>
	<path style="fill:#252525;" d="M112.891,24.822v171.446c0,2.489-2.036,4.525-4.525,4.525H91.655c-2.489,0-4.525-2.036-4.525-4.525
		V24.822c0-2.489,2.036-4.525,4.525-4.525h16.711C110.854,20.297,112.891,22.333,112.891,24.822z"/>
	
		<rect x="14.746" y="107.173" transform="matrix(4.490636e-11 -1 1 4.490636e-11 -5.5507 215.5387)" style="fill:#6C6C6C;" width="180.496" height="6.743"/>
	
		<rect x="8.842" y="108.013" transform="matrix(4.490636e-11 -1 1 4.490636e-11 -11.4543 209.6351)" style="fill:#3D3D3D;" width="180.496" height="5.064"/>
	<path style="fill:#5F3A22;" d="M96.528,25.291v129.606c0,4.978-4.073,9.05-9.05,9.05H61.467c-4.978,0-9.05-4.073-9.05-9.05V25.291
		c0-4.978,4.073-9.05,9.05-9.05h26.011C92.456,16.241,96.528,20.313,96.528,25.291z"/>
	<path style="fill:#361E10;" d="M57.047,146.831h25.341c1.876,0,3.411-1.535,3.411-3.411l0,0c0-1.876-1.535-3.411-3.411-3.411
		H57.047"/>
	<path style="fill:#361E10;" d="M57.047,128.774h25.341c1.876,0,3.411-1.535,3.411-3.411l0,0c0-1.876-1.535-3.411-3.411-3.411
		H57.047"/>
	<path style="fill:#361E10;" d="M57.047,110.665h25.341c1.876,0,3.411-1.535,3.411-3.411l0,0c0-1.876-1.535-3.411-3.411-3.411
		H57.047"/>
	<path style="fill:#361E10;" d="M57.047,90.12h25.341c1.876,0,3.411-1.535,3.411-3.411l0,0c0-1.876-1.535-3.411-3.411-3.411H57.047"
		/>
	<path style="fill:#361E10;" d="M57.047,72.063h25.341c1.876,0,3.411-1.535,3.411-3.411l0,0c0-1.876-1.535-3.411-3.411-3.411H57.047
		"/>
	<path style="fill:#361E10;" d="M57.047,53.953h25.341c1.876,0,3.411-1.535,3.411-3.411l0,0c0-1.876-1.535-3.411-3.411-3.411H57.047
		"/>
	<path style="fill:#361E10;" d="M54.732,154.81L54.732,154.81c1.273,0,2.315-1.042,2.315-2.315V25.251
		c0-1.273-1.042-2.315-2.315-2.315l0,0c-1.273,0-2.315,1.042-2.315,2.315v127.244C52.417,153.768,53.459,154.81,54.732,154.81z"/>
	<path style="fill:#361E10;" d="M57.047,36.274h25.341c1.876,0,3.411-1.535,3.411-3.411l0,0c0-1.876-1.535-3.411-3.411-3.411H57.047
		"/>
	<path d="M58.349,143.42L58.349,143.42c0,0.423,0.346,0.769,0.769,0.769h22.016c0.423,0,0.769-0.346,0.769-0.769l0,0
		c0-0.423-0.346-0.769-0.769-0.769H59.118C58.695,142.651,58.349,142.997,58.349,143.42z"/>
	<path d="M58.349,125.363L58.349,125.363c0,0.423,0.346,0.769,0.769,0.769h22.016c0.423,0,0.769-0.346,0.769-0.769l0,0
		c0-0.423-0.346-0.769-0.769-0.769H59.118C58.695,124.594,58.349,124.94,58.349,125.363z"/>
	<path d="M58.349,107.254L58.349,107.254c0,0.423,0.346,0.769,0.769,0.769h22.016c0.423,0,0.769-0.346,0.769-0.769l0,0
		c0-0.423-0.346-0.769-0.769-0.769H59.118C58.695,106.485,58.349,106.831,58.349,107.254z"/>
	<path d="M58.349,86.734L58.349,86.734c0,0.423,0.346,0.769,0.769,0.769h22.016c0.423,0,0.769-0.346,0.769-0.769l0,0
		c0-0.423-0.346-0.769-0.769-0.769H59.118C58.695,85.965,58.349,86.311,58.349,86.734z"/>
	<path d="M58.349,68.677L58.349,68.677c0,0.423,0.346,0.769,0.769,0.769h22.016c0.423,0,0.769-0.346,0.769-0.769l0,0
		c0-0.423-0.346-0.769-0.769-0.769H59.118C58.695,67.908,58.349,68.254,58.349,68.677z"/>
	<path d="M58.349,50.568L58.349,50.568c0,0.423,0.346,0.769,0.769,0.769h22.016c0.423,0,0.769-0.346,0.769-0.769l0,0
		c0-0.423-0.346-0.769-0.769-0.769H59.118C58.695,49.799,58.349,50.145,58.349,50.568z"/>
	<path d="M58.349,32.863L58.349,32.863c0,0.423,0.346,0.769,0.769,0.769h22.016c0.423,0,0.769-0.346,0.769-0.769l0,0
		c0-0.423-0.346-0.769-0.769-0.769H59.118C58.695,32.094,58.349,32.44,58.349,32.863z"/>
</g>
</svg>
