<svg enable-background="new 0 0 263.105 318.48" viewBox="0 0 263.105 318.48" xmlns="http://www.w3.org/2000/svg"><path d="m6.605 76.491h249.782v163.47h-249.782z" fill="#444343" stroke="#000" stroke-miterlimit="10"/><path d="m6.605 3.384h249.895v53.117h-249.895z" fill="#fff" stroke="#000" stroke-miterlimit="10"/><path d="m6.605 56.501h249.895v3.434h-249.895z" fill="#fccd0a" stroke="#000" stroke-miterlimit="10"/><path d="m6.605 59.935h249.895v16.556h-249.895z" fill="#fccd0a" stroke="#000" stroke-miterlimit="10"/><path d="m6.605 265.461h249.782v48.75h-249.782z" fill="#fccd0a" stroke="#000" stroke-miterlimit="10"/><path d="m17.847 314.211h15.358v3.769h-15.358z" fill="#1a1818"/><path d="m229.678 314.211h15.358v3.769h-15.358z" fill="#1a1818"/><path d="m6.605 258.961h249.782v6.5h-249.782z" fill="#fccd0a" stroke="#000" stroke-miterlimit="10"/><path d="m6.605 239.961h249.782v19h-249.782z" fill="#262323" stroke="#000" stroke-miterlimit="10"/><path d="m35.713 88.711h191.453v137h-191.453z" stroke="#000" stroke-miterlimit="10"/><path d="m131.457 53.077c-23.971 0-47.942 0-71.913 0-6.93 0-13.863-.112-20.788.055-2.818.068-6.33-2.23-6.914-5.52-.105-.59-.156-1.173-.155-1.77.004-10.395.002-20.79.003-31.185 0-3.385 2.548-6.284 5.891-6.759.792-.112 1.579-.154 2.374-.154 61.319.002 122.639.002 183.958.002 3.705 0 6.166 1.777 7.351 5.278.122.361.155.713.155 1.082-.001 10.594-.004 21.188.001 31.782.001 2.89-1.221 5.07-3.72 6.526-.883.514-1.858.658-2.859.659-15.11.004-30.219.004-45.329.004-16.018 0-32.037 0-48.055 0z" fill="#e20007"/><path d="m131.633 50.681c-30.698 0-61.396 0-92.094 0-1.779 0-3.334-.461-4.471-1.969-.886-1.176-.924-2.526-.927-3.882-.016-6.191-.021-12.381-.002-18.572.012-3.804-.082-7.609.066-11.412.103-2.64 1.952-4.486 4.607-4.556.255-.007.511-.003.767-.003 61.396-.001 122.791 0 184.187-.007 1.842 0 3.362.547 4.417 2.16.679 1.038.744 2.192.744 3.348.005 9.91-.014 19.82-.026 29.731-.001.882-.047 1.734-.489 2.555-.907 1.683-2.317 2.574-4.175 2.577-21.099.028-42.199.026-63.298.03-9.769.001-19.538 0-29.306 0z" fill="#0b0505"/><path d="m131.534 11.423c30.732 0 61.463.005 92.195-.015 1.369-.001 2.514.316 3.373 1.42.635.816.698 1.797.699 2.757.013 9.941.001 19.882-.001 29.823 0 1.628-.416 3.025-2.005 3.826-.447.226-.917.29-1.396.331-.395.034-.794.045-1.191.045-61.208.001-122.416 0-183.623-.001-.567 0-1.136.026-1.692-.133-1.552-.441-2.607-1.778-2.608-3.391-.006-10.339.01-20.677-.006-31.016-.003-2.12 1.703-3.673 3.805-3.669 22.182.045 44.365.025 66.547.023 8.634 0 17.268.001 25.903 0z" fill="#fa6e0d"/><path d="m114.847 32.971c.674.476.002.883-.139 1.226-.424 1.033-.476 1.011.565 1.469.234.103.455.246.698.314.853.239 1.218.641.634 1.501-.282.416.129.546.401.655 1.261.505 1.184.583.614 1.691-2.601 5.049-8.328 7.982-13.979 7.17-1.676-.241-3.252-.722-4.792-1.404-1.341-.594-2.818-.831-4.256-1.629.22.766.525 1.311.877 1.828.322.473.289.7-.352.687-.908-.018-1.817.006-2.726.006-9.57.001-19.14.001-28.71 0-.17 0-.341-.008-.511 0-.55.023-.759-.138-.428-.687.288-.477.527-.982.857-1.606-.997 0-1.866-.02-2.734.007-.527.017-.697-.168-.44-.634.259-.468.774-1.04.593-1.423-.225-.476-.971-.162-1.488-.196-.618-.041-.534-.332-.333-.715.436-.828.86-1.663 1.315-2.48.234-.42.261-.615-.329-.553-.534.056-1.08.061-1.617.029-.585-.035-.778.159-.766.77.041 2.101.023 4.202.019 6.304-.002 1.179-.009 1.18-1.147 1.181-3.521.002-7.043-.016-10.564.021-.753.008-1.051-.228-.957-.969.025-.196-.016-.399.008-.595.066-.541-.135-.741-.703-.754-1.46-.034-1.484-.06-1.531-1.508-.02-.62-.297-.749-.851-.748-1.483.004-1.48-.016-1.48-1.497.001-7.98-.001-15.96.003-23.94 0-.36-.096-.743.155-1.071.146-.121.322-.09.489-.09 4.369-.001 8.738-.001 13.107 0 .168 0 .343-.028.493.083 1.799.188 3.499.67 5.042 1.647.384.243.766.476 1.092.8 2.379 2.365 4.894 4.618 6.429 7.831 1.939-3.649 3.831-7.212 5.724-10.775.26-.313.52-.643.788-.007.316.389.406.931.875 1.291.157-.276.303-.531.466-.818.825.655 1.043 1.628 1.546 2.413.343.535.521.476.764-.041.216-.461.453-.914.708-1.354.106-.183.124-.476.406-.499.341-.028.384.302.498.505 1.34 2.399 2.688 4.794 3.991 7.213 1.004 1.862 2.152 3.647 3.001 5.593.113.259.355.463.628.671.085-1.67.317-3.276.902-4.811 1.851-4.855 5.306-7.926 10.339-9.18 3.685-.919 7.182-.291 10.561 1.367 1.507.74 3.075 1.342 4.384 2.441 1.228 1.031 2.241 2.235 3.118 3.569.296.45.307.785-.253.982-.628.221-.455.526-.166.936.874 1.243.855 1.241-.507 1.997-1.73.961-3.451 1.939-5.169 2.922-.175.1-.485.145-.426.447.045.227.305.224.481.303 1.082.484 2.166.964 3.249 1.446.507.239 1.006.486 1.534.668z" fill="#060507"/><path d="m181.868 16.581c.333.553.666 1.107 1.029 1.71.529-.632.786-1.354 1.154-2.01.103-.184.091-.516.386-.482.221.026.335.268.447.474.825 1.52 1.665 3.031 2.492 4.55 2.002 3.679 3.998 7.362 6 11.042.171.314.369.614.552.916.286-.133.193-.328.193-.476-.005-5.736-.018-11.472-.019-17.208 0-.29-.162-.731.175-.837.298-.094.479.326.693.543.355.361.968 1.07 1.036 1.021.709-.507.828.254 1.102.492.531.461.971 1.026 1.456 1.542.113.12.252.215.531.45 0-1.058 0-1.969 0-2.879.088-.043.175-.087.263-.13 1.98 2.158 3.96 4.315 5.981 6.517.276-.399.071-.789.192-1.121.164-1.468.065-2.942.053-4.412-.005-.665.225-.887.86-.955 2.941-.312 5.888-.105 8.832-.16.508-.009.993.192 1.507.208.424.013.623.278.663.726.128 1.437.142 1.437 1.494 1.693.45.085.773.311.649.804-.118.467-.503.375-.833.244-.329-.131-.668-.107-1.006-.124-.915-.047-1.177-.206-1.17-1.083.008-1.149-.138-1.328-1.579-1.453-2.605-.226-5.205.289-7.813.114-.398-.027-.566.25-.569.595-.018 1.985-.039 3.971.011 5.956.003.112.037.225.092.325.133.243.241.604.564.539.313-.062.198-.425.2-.661.013-1.39.022-2.78 0-4.17-.012-.747.29-1.159 1.028-1.314.704-.148 1.379-.273 2.073.067.389.19.839.078 1.262.082 1.163.011 2.326.002 3.489.005.283.001.568-.007.842.09.204.073.347.204.339.433-.008.23-.165.35-.369.411-.276.081-.562.064-.845.064-1.73.003-3.461-.003-5.191.005-.331.002-.69-.089-.959.205-.214.338-.151.717-.152 1.081-.005 2.865-.002 5.731-.003 8.596 0 .255.014.512-.007.766-.029.357.048.794-.397.943-.388.13-.624-.186-.851-.437-3.125-3.443-6.32-6.822-9.43-10.279-.164-.183-.307-.4-.578-.458-.244.295-.148.619-.149.916-.006 7.263-.005 14.526-.004 21.789 0 .368-.026.74.126 1.089.259.254.588.184.892.185 6.305.005 12.61.004 18.916.004.432 0 .86-.015 1.214-.299.34-.273.627-.273.807.155.18.426.225.859-.316 1.058-.315.116-.663.166-1.004.155-5.593-.175-11.187-.029-16.78-.075-.142-.001-.284-.002-.426.011-.305.028-.574.124-.588.484-.012.317.168.538.46.647.327.122.674.076 1.013.077 5.908.003 11.815.001 17.723.003.368 0 .741-.032 1.103.06.261.066.492.201.47.514-.022.305-.225.434-.525.429-.199-.004-.398.001-.596.001-24.71 0-49.419-.001-74.129.009-.548 0-1.067-.117-1.598-.191-.337-.047-.589-.196-.623-.58-.023-.259-.053-.549.169-.71.294-.213.598-.099.844.141.314.307.706.326 1.11.326 6.958.001 13.917.002 20.875-.002.283 0 .579.026.827-.142.338-.229.436-.464-.038-.654-.482-.064-.965-.047-1.446-.047-7.089.003-14.178-.009-21.266.009-.456.096-.86.101-1.26-.258-.438-.393-1.033-.172-1.558-.192-.995-.036-1.041-.065-1.05-1.076-.012-1.266-.011-1.29-1.353-1.307-.579-.007-.787-.194-.786-.793.016-8.448.009-16.897.016-25.345 0-.384-.126-1.052.631-.469.266.253.528.51.799.758.216.197.432.586.627-.05.062-.201.213-.178.568.174.658.652 1.294 1.326 1.999 2.052.431-1.013-.081-1.977.367-3.129 1.144 1.204 2.174 2.315 3.231 3.398 2.017 2.066 4.059 4.107 6.07 6.179.49.505.776.271 1.158-.124 3.304-3.419 6.622-6.823 9.935-10.233.155-.16.299-.331.526-.584.366 1.069.013 2.06.229 3.054.52-.228.716-.797 1.335-.924 0 .629-.009 1.215.005 1.8.004.182-.071.436.18.51.189.056.286-.147.4-.263.476-.484.947-.974 1.42-1.461.118-.122.237-.295.418-.248.272.07.163.328.164.503.009 2.385.007 4.769.008 7.154.001 2.981.001 5.962.005 8.942 0 .219.023.437.043.787.515-.382.637-.889.856-1.302 2.894-5.45 5.767-10.912 8.655-16.365.219-.413.354-1.101.826-1.078.439.022.652.669.906 1.091.135.225.203.804.637.219.793-.491.754.365 1.063.658z" fill="#060407"/><path d="m208.757 18.663c.242-.298.579-.174.875-.176 1.986-.011 3.972.003 5.957-.015.268-.002.765.188.749-.26-.015-.415-.506-.227-.783-.231-1.305-.021-2.61-.007-3.915-.01-.504-.001-.973-.042-1.475-.248-.733-.302-1.501.017-2.219.284-.317.118-.211.433-.212.672-.008 1.589.002 3.177-.011 4.766-.002.263.152.632-.178.766-.364.147-.529-.244-.745-.443-.304-.282-.441-.641-.44-1.066.007-1.986.021-3.972-.009-5.957-.008-.532.261-.799.684-.744 2.463.322 4.911-.254 7.372-.092.622.041 1.229.168 1.849.195.348.015.495.232.5.563.001.085 0 .17.004.255.066 1.459.066 1.461 1.536 1.559.201.013.394.023.563.151.158.119.34.27.519.08.077-.081.088-.264.066-.39-.038-.221-.212-.313-.431-.338-1.521-.175-1.566-.22-1.741-1.876-.029-.278-.063-.471-.409-.522-1.269-.185-2.524-.424-3.825-.352-1.273.07-2.559.097-3.827-.01-1.098-.092-2.079.463-3.159.384-.419-.031-.369.347-.37.622-.005 1.22.003 2.44-.006 3.659-.002.273.091.574-.15.806-.018-1.647-.027-3.293-.06-4.939-.009-.458.123-.664.624-.662 3.635.016 7.271.018 10.906.002.496-.002.666.194.636.651-.009.141-.003.284-.003.426-.003 1.306-.002 1.343 1.264 1.311.711-.018.995.219.895.927-.035.251.004.511-.007.766-.02.428.168.628.603.617.454-.011.91.025 1.363-.001.602-.035.778.237.777.813-.013 8.35-.016 16.7.002 25.05.001.685-.305.788-.883.787-7.612-.013-15.223-.01-22.835-.01-18.12 0-36.241-.002-54.361.017-.687.001-.931-.235-.882-.877.013-.169-.004-.342.017-.51.081-.641-.131-.988-.836-.865-.028.005-.057.001-.085 0-1.755-.015-1.772-.014-1.842-1.712-.019-.468-.146-.627-.635-.639-1.485-.037-1.489-.061-1.489-1.563-.002-8.293-.001-16.586-.001-24.88 0-.057-.007-.115.001-.17.035-.239-.101-.607.164-.68.302-.084.472.229.572.508-.293-.102-.573-.188-.553.298.009.227 0 .454 0 .682v24.028c0 1.416.585 1.816 1.973 1.351.167-.056.307-.346.504-.117.147.171.028.356-.087.536-.351.546-.134 1.156-.148 1.737-.006.252.228.288.437.295.859.026 1.75-.164 2.508.479.105.089.423-.072.642-.117.331.584.837.746 1.493.745 6.695-.015 13.39-.016 20.085.001.64.002 1.089-.19 1.376-.756.688.453.698.841.054 1.224-.296.176-.604.129-.91.129-7.014.004-14.028.001-21.042.006-.492 0-.973.033-1.265-.484-.116-.205-.319-.239-.516-.131-.216.118-.15.346-.154.537-.005.223.089.352.331.411.843.207 1.678.358 2.564.357 24.393-.018 48.785-.013 73.178-.027.396 0 1.131.281 1.117-.352-.013-.601-.739-.297-1.131-.298-6.077-.021-12.154-.015-18.231-.015-.227 0-.456.014-.681-.005-.637-.055-.891-.513-.888-1.051.003-.533.437-.652.913-.652 5.509.005 11.018.007 16.527-.006.362-.001.691.144 1.084.061 1.001-.209 1.009-.167.567-1.225-.344.553-.851.667-1.431.666-6.56-.007-13.119-.003-19.679-.01-.281 0-.665.141-.733-.346.44-.36.969-.263 1.468-.263 5.998-.007 11.997-.004 17.995-.006.423 0 .85.04 1.26-.103.358-.21.333-.559.333-.901.001-7.277 0-14.554 0-21.831 0-.312.026-.631-.267-.849-.348-.176-.723-.132-1.089-.132-2.355-.004-4.709.002-7.064-.005-.416-.003-.855.048-1.214-.26z" fill="#0b0509"/><path d="m130.195 36.177c-1.873-.001-3.747-.027-5.619.012-.698.015-1.018-.18-.895-.912.037-.221-.011-.455.013-.68.058-.559-.2-.728-.736-.751-1.576-.067-1.608-.087-1.603-1.678.002-.65-.219-.807-.835-.8-1.429.016-1.426-.015-1.422-1.454.004-1.561.026-3.122-.01-4.682-.013-.578.128-.79.746-.786 3.831.025 7.662.023 11.493.001.588-.003.86.157.757.766-.009.055-.005.113-.004.17.052 1.675-.318 1.534 1.545 1.517.548-.005.661.173.68.668.064 1.635.081 1.659 1.694 1.669.527.003.679.157.672.676-.026 1.873-.029 3.746.005 5.619.01.55-.195.662-.693.656-1.928-.024-3.858-.01-5.788-.011z" fill="#060406"/><path d="m181.868 16.581c-.354-.221-.456-.85-1.065-.66.016-.232.083-.461.332-.507.279-.051.354.216.453.402.127.241.291.473.28.765z" fill="#471907"/><path d="m114.847 32.971c-.606-.002-1.094-.278-1.531-.667.572.081 1.082.305 1.531.667z" fill="#4a1c05"/><path d="m73.919 14.912c-.266-.355-.526-.103-.788.007.071-.255.104-.611.432-.584.223.019.366.301.356.577z" fill="#060507"/><path d="m101.707 30.929c1.814.797 3.571 1.572 5.331 2.341 2.645 1.156 5.285 2.322 7.941 3.451.617.262.444.579.214.978-2.403 4.173-8.03 6.944-12.826 6.313-6.579-.866-11.149-5.204-11.984-11.777-.552-4.344.947-8.135 4.187-11.139 5.198-4.819 13.435-4.717 18.513.206.506.49.918 1.076 1.395 1.597.364.397.315.643-.168.9-1.546.825-3.073 1.685-4.612 2.525-2.411 1.316-4.825 2.626-7.236 3.939-.27.15-.543.3-.755.666z" fill="#fccd0a"/><path d="m44.005 30.857c0-3.718.018-7.436-.016-11.153-.007-.714.211-.898.907-.892 3.973.032 7.948-.049 11.919.037 3.734.082 7.726 2.358 8.225 6.684.637 5.529-2.78 9.172-8.015 9.433-.708.035-1.421.045-2.128.001-.648-.041-.884.147-.867.845.049 2.042.016 4.086.021 6.13.003 1.122.009 1.147-1.082 1.153-2.696.013-5.391-.017-8.087.013-.701.008-.941-.218-.922-.927.05-1.9.039-3.802.044-5.703.006-1.875.002-3.748.001-5.621z" fill="#fccd0a"/><path d="m75.46 17.625c2.949 5.317 5.863 10.572 8.778 15.828 1.607 2.898 3.217 5.794 4.822 8.694.526.95.507.975-.523.975-8.287-.002-16.574-.003-24.861-.005-1.711 0-1.73-.013-.923-1.545 4.132-7.849 8.275-15.692 12.417-23.536.062-.119.154-.222.29-.411z" fill="#fccd0a"/><path d="m79.737 19.683c.827 1.494 1.661 2.985 2.481 4.484.936 1.712 1.841 3.441 2.791 5.145 1.333 2.39 2.763 4.729 4.021 7.157.778 1.501 1.714 2.913 2.43 4.441.577 1.232 1.34 2.355 1.983 3.547.342.634.26.814-.478.807-2.697-.025-5.395-.003-8.093-.004-6.474-.001-12.948-.001-19.423-.016-.313-.001-.832.23-.845-.386-.012-.549.348-.655.859-.654 8.291.017 16.583.015 24.874.016 1.024 0 1.077-.072.605-.981-1.494-2.87-3.12-5.669-4.665-8.513-1.601-2.946-3.295-5.843-4.864-8.809-.99-1.871-2.069-3.695-3.111-5.538-.185-.327-.337-.657-.261-1.047.126-.121.183-.279.254-.434.231-.502.632-.55.919-.088.178.287.338.588.523.873z" fill="#2a0061"/><path d="m42.949 17.82c-.016.822-.045 1.645-.045 2.467-.002 6.559.004 13.119-.008 19.678-.001.305.235.767-.389.852-.655.09-.8-.17-.799-.792.018-7.099.008-14.197.006-21.296 0-2.164.001-2.164 2.148-2.164 3.379 0 6.758.017 10.137-.008 1.313-.01 2.567.188 3.764.732.092.098.302.062.314.237.015.211-.169.176-.294.184-.198.013-.396.004-.594.004-4.445 0-8.89-.002-13.335.005-.301-.001-.624-.105-.905.101z" fill="#fafafa"/><path d="m66.458 31.607c-.682 2.553-2.242 4.287-4.771 5.118-.403.335-.969-.009-1.371.33h-.083l-.083.004c-.847.353-1.734.113-2.6.16-.885.049-.842.018-.826.884.042 2.183.01 4.367.017 6.55.002.545-.248.757-.778.756-2.949-.004-5.898 0-8.847-.003-.327 0-.614-.046-.776-.39-.154-.325-.17-.597.18-.797 2.641-.003 5.282-.021 7.922.004.597.006.783-.185.775-.777-.029-2.101-.017-4.202-.007-6.304.005-1.039.089-1.154 1.126-1.092 2.026.121 3.9-.313 5.641-1.351 1.876-1.118 3.082-2.764 3.803-4.796.125-.287.21-.588.245-.897.028-.251-.027-.571.343-.561.433.012.341.38.335.644-.019.845-.176 1.677-.245 2.518z" fill="#2a0061"/><path d="m98.524 17.327c-2.779 1.205-5.165 2.905-6.869 5.463-2.397 3.597-3.025 7.5-2.026 11.685.046.191.1.379.141.571.01.048-.016.104-.027.157-1.513-1.662-1.848-3.672-1.745-5.823.273-5.698 4.023-10.546 9.468-12.215.107-.033.223-.037.334-.054.267-.015.622-.321.724.216z" fill="#fafafa"/><path d="m102.59 45.23c.79-.091 1.58.262 2.371 0 .525-.361 1.194.045 1.718-.322 1.255-.342 2.519-.664 3.672-1.293 1.906-1.039 3.601-2.331 4.925-4.081.228-.302.576-.68.99-.341.337.275.04.636-.128.913-1.488 2.462-3.671 4.05-6.304 5.133-2.029.835-4.122.707-6.223.667-.356-.274-.848-.043-1.202-.323-.055 0-.109-.003-.163-.008-.139-.369-.004-.465.344-.345z" fill="#290060"/><path d="m73.51 16.653c.562.537.612.996.269 1.635-1.852 3.443-3.652 6.914-5.479 10.37-.084.158-.138.373-.382.441-.246-1.037-.028-1.948.481-2.881 1.656-3.033 3.244-6.102 4.86-9.157.064-.122.145-.237.251-.408z" fill="#f8f8f8"/><path d="m104.796 30.24c2.564-1.201 4.947-2.733 7.456-4.035.511-.265.934-.738 1.57-.742.45-.304.621.122.873.335l.001.005c.141.271.009.457-.239.484-.377.041-.559.324-.805.532-1.7.917-3.399 1.833-5.099 2.75-.394.146-.669.475-1.029.673-.221.276-.634.062-.856.336-.165.121-.33.241-.495.362-.324.2-.663.248-1.042.17-.66-.137-.701-.219-.335-.87z" fill="#2a005f"/><path d="m106.897 31.98c.775-.857 1.506-.707 2.35-.283 1.286.645 2.626 1.184 3.953 1.744.366.154.506.338.29.697-.168.278-.262.642-.75.422-1.925-.866-3.861-1.708-5.843-2.58z" fill="#f4f4f4"/><path d="m46.519 44.218c-.237.81-.12 1.015.652 1.017 2.888.009 5.776-.013 8.664.015.631.006.758-.251.741-.807-.071-2.259.127-4.522-.102-6.78-.049-.48.264-.619.703-.612.991.015 1.982.007 2.973.008-.064.42-.394.33-.662.334-.708.009-1.416.019-2.123.001-.433-.011-.513.085-.498.574.066 2.263.039 4.529.041 6.793.001.562-.304.818-.854.818-3.058-.001-6.115-.008-9.173.005-.633.003-.709-.483-.84-.891-.121-.377.13-.505.478-.475z" fill="#120022"/><path d="m60.655 40.779c1.023-1.337 1.071-3.16 3.143-3.646-.658 1.264-1.202 2.383-1.821 3.46-.237.411-.715.166-1.322.186z" fill="#ececec"/><path d="m42.949 17.82c.145-.383.482-.229.731-.229 4.619-.001 9.238.013 13.856.009.112 0 .378.245.381-.122 0-.063-.101-.126-.155-.19.526-.039.86.314 1.335.59-.516.21-.899-.054-1.298-.06-4.95-.069-9.9-.065-14.85.002z" fill="#fafafa"/><path d="m66.458 31.607c-.108-.849.124-1.677.155-2.517.007-.183.063-.455-.198-.491-.363-.049-.282.273-.293.474-.018.322-.088.611-.343.83.113-.892.23-1.783.338-2.676.027-.222.09-.388.352-.373.205.011.307.139.308.33.01 1.482.135 2.974-.319 4.423z" fill="#2a0061"/><path d="m79.737 19.683c-.069-.046-.15-.081-.204-.141-.768-.857-.767-.858-1.492-.209.182-.469.043-1.236.699-1.291.678-.057.616.731.85 1.167.076.143.1.315.147.474z" fill="#140129"/><path d="m102.59 45.23c-.205.024-.347.113-.346.344-.658.117-1.202-.161-1.723-.576.693.04 1.425-.451 2.069.232z" fill="#1b0037"/><path d="m98.524 17.327c-.16-.343-.488-.126-.724-.217.897-.473 1.87-.489 2.888-.345-.721.188-1.443.375-2.164.562z" fill="#fafafa"/><path d="m104.796 30.24c-.191.467-.07.692.466.771.328.049.602-.169.911-.073-.346.332-1.545.507-1.8.208-.472-.553-.077-.77.423-.906z" fill="#14002d"/><path d="m92.697 40.297c.491.666.983 1.332 1.474 1.998-.908-.221-1.193-1.016-1.635-1.663-.14-.206-.121-.334.161-.335z" fill="#fafafa"/><path d="m113.652 26.818c.073-.371.192-.692.664-.674.231.009.348-.123.38-.342.229.245.271.491-.069.653-.312.149-.649.244-.975.363z" fill="#1b003c"/><path d="m92.697 40.297c-.054.111-.107.223-.161.334-.426-.426-.577-.998-.772-1.561.435.312.742.723.933 1.227z" fill="#fafafa"/><path d="m106.678 44.908c-.464.685-1.152.178-1.718.323.48-.607 1.142-.234 1.718-.323z" fill="#1b0037"/><path d="m60.316 37.055c.35-.554.903-.267 1.371-.33-.325.658-.915.214-1.371.33z" fill="#120022"/><path d="m107.524 30.24c.232-.394.459-.795 1.029-.673-.259.353-.503.728-1.029.673z" fill="#18002e"/><path d="m102.408 45.582c.42.034.907-.179 1.202.324-.424-.023-.91.188-1.202-.324z" fill="#1b0037"/><path d="m114.695 25.797c-.338.011-.5-.435-.873-.335.592-.673.725-.15.873.335z" fill="#1b003c"/><path d="m106.668 30.577c.12-.533.55-.275.856-.336-.115.544-.549.279-.856.336z" fill="#18002e"/><path d="m208.757 18.663c3.233.005 6.466.009 9.699.014.17.26.088.552.088.828.005 7.502.006 15.005-.001 22.507 0 .35.135.75-.232 1.025-2.179.019-4.357.051-6.536.055-4.447.008-8.894.004-13.34-.002-.366 0-.731-.05-1.097-.077-.006-7.323-.011-14.646-.017-21.968-.001-.838 0-1.676 0-2.66.909.599 1.429 1.348 2.031 1.997 2.924 3.154 5.819 6.336 8.724 9.508.131.143.244.388.454.336.304-.076.17-.382.171-.58.011-3.236.007-6.472.011-9.707.002-.426.03-.851.045-1.276z" fill="#fccd0a"/><path d="m141.993 18.386c1.532 1.471 3.06 2.894 4.537 4.367 2.165 2.159 4.307 4.343 6.429 6.545.429.445.67.512 1.136.033 3.261-3.35 6.552-6.671 9.833-10.002.353-.358.701-.721 1.229-1.266v2.654c0 7.184-.009 14.367.015 21.551.002.681-.212.876-.87.873-6.899-.028-13.797-.033-20.696-.044-.341-.001-.682-.022-1.022-.004-.457.023-.651-.131-.65-.63.016-7.922.015-15.844.02-23.765.001-.107.027-.215.039-.312z" fill="#fccd0a"/><path d="m181.319 43.116c-4.229 0-8.459-.001-12.688.001-.9 0-.928-.046-.497-.863 4.181-7.911 8.362-15.823 12.548-23.731.127-.24.173-.646.466-.654.333-.009.434.392.571.657 1.596 3.086 3.259 6.139 4.936 9.178 2.526 4.58 4.957 9.213 7.551 13.755.924 1.618.933 1.629-.883 1.634-4.002.011-8.003.003-12.005.003.001.006.001.013.001.02z" fill="#fccd0a"/><path d="m186.426 24.789c-.681-1.25-1.363-2.5-2.044-3.75-.583-.729-.857-1.502-.346-2.39v-.003c.184-.187.273-.573.666-.314 1.264 2.32 2.547 4.63 3.787 6.963.917 1.724 1.856 3.441 2.813 5.137 1.49 2.641 2.809 5.372 4.318 8 .723.81.58 1.786.501 2.738-.033.393-.273.547-.654.313-.123-.332-.245-.664-.368-.996-.705-1.126-1.373-2.273-2.015-3.436-.964-1.834-2.047-3.602-2.937-5.479-.669-1.411-1.495-2.748-2.247-4.119-.108-.196-.197-.402-.295-.604-.485-.635-.694-1.426-1.179-2.06z" fill="#2c0064"/><path d="m166.334 42.498c-.008-7.373 0-14.746-.044-22.118-.005-.857.609-1.159 1.071-1.582.293-.269.324.155.326.351.014.986.009 1.973.009 2.96.001 4.963-.016 9.925.02 14.887.005.73-.06 1.463-.005 2.186.078 1.036-.162 1.958-.709 2.819-.219.171-.143.738-.668.497z" fill="#2a0062"/><path d="m184.629 45.256c-4.483.001-8.966.007-13.45-.012-.326-.001-.915.255-.901-.405.011-.523.456-.632.932-.632 8.966.005 17.933.001 26.899.004.248 0 .521-.06.724.152.172.179.42.331.326.638-.09.293-.356.241-.571.242-1.788.009-3.575.01-5.363.011-2.864.002-5.73.001-8.596.002z" fill="#2a005d"/><path d="m179.262 16.559c.429.561.681.962.34 1.602-3.447 6.478-6.866 12.971-10.294 19.46-.064.121-.141.235-.303.338-.094-.754-.276-1.496.112-2.23 2.721-5.149 5.437-10.301 8.158-15.45.643-1.217 1.296-2.428 1.987-3.72z" fill="#fafafa"/><path d="m139.783 17.09c.69.446 1.046.853 1.045 1.569-.014 7.065-.003 14.13-.023 21.195-.001.311.264.866-.433.897-.357.016-.62-.042-.593-.493.02-.339.009-.681.008-1.021-.001-6.951-.003-13.903-.005-20.854.001-.386.001-.772.001-1.293z" fill="#f1f1f3"/><path d="m167.665 44.223c.198.851-.183 1.041-.989 1.038-6.992-.026-13.984-.025-20.977.002-.796.003-1.093-.27-.989-1.031 7.652-.003 15.303-.006 22.955-.009z" fill="#29005c"/><path d="m144.81 17.693c.261-.023.327.104.411.22 1.268 1.744 3.005 3.03 4.481 4.571 1.451 1.514 2.927 3.004 4.404 4.492.291.293.264.562.002.799-.248.225-.477.559-.9.128-.991-1.008-2.055-1.944-3.051-2.948-1.246-1.256-2.453-2.549-3.676-3.828-.505-.528-1.007-1.06-1.512-1.588-.486-.508-.258-1.12-.246-1.698.002-.07.081-.139.087-.148z" fill="#2a005c"/><path d="m196.026 36.619c-.398-.663-.822-1.237-.818-2.071.027-5.593.014-11.187.017-16.78 0-.247-.045-.505.131-.798.487.374.86.745.858 1.43-.015 5.82-.008 11.641-.018 17.461 0 .23.108.503-.17.758z" fill="#fbfafa"/><path d="m163.655 16.331c.186.971.074 1.654-.602 2.321-2.482 2.447-4.903 4.957-7.339 7.45-.259.265-.47.519-.816.113-.241-.283-.498-.475-.092-.886 2.846-2.885 5.663-5.798 8.492-8.7.076-.078.168-.141.357-.298z" fill="#f9f9f9"/><path d="m207.527 27.539c-2.211-2.393-4.284-4.673-6.406-6.906-.48-.505-.97-.935-.875-1.701.023-.183-.105-.435.142-.526.216-.079.381.135.502.255.677.673 1.35 1.352 1.975 2.072 1.414 1.63 2.856 3.234 4.363 4.779.574.586.269 1.242.299 2.027z" fill="#28005f"/><path d="m195.466 41.482c.728.019.608-.594.586-.952-.044-.709-.087-1.442-.433-2.099.521.26.686.717.689 1.259.004.736.01 1.472.003 2.208-.002.21.093.507-.211.569-.29.059-.345-.243-.442-.432-.088-.172-.13-.368-.192-.553z" fill="#170032"/><path d="m193.083 37.051c.054.014.143.012.156.043.5 1.197 1.562 2.086 1.859 3.393-1.032-.934-1.515-2.19-2.015-3.436z" fill="#1c0035"/><path d="m184.035 18.65c-.254.85.001 1.626.346 2.39-.99-.858-1.061-1.345-.346-2.39z" fill="#15002f"/><path d="m186.426 24.789c.696.513.905 1.305 1.179 2.06-.729-.495-.891-1.314-1.179-2.06z" fill="#1a0036"/><path d="m166.334 42.498c.36.019.368-.436.668-.497.052.457-.329.731-.446 1.128-.366-.132-.197-.414-.222-.631z" fill="#170032"/><path d="m184.701 18.332c-.288-.034-.37.366-.666.314-.127-.298-.078-.548.254-.643.246-.071.431.023.412.329z" fill="#15002f"/><path d="m221.361 33.227c.001 3.69-.016 7.379.016 11.068.006.722-.158.973-.938.969-6.272-.031-12.544-.014-18.816-.012-.199 0-.397-.004-.596-.009-.441-.01-.595-.305-.597-.675-.002-.442.367-.356.63-.356 2.356-.005 4.711.003 7.067.003 3.519 0 7.038-.001 10.558-.005 1.083-.001 1.137-.048 1.137-1.171.001-6.811-.004-13.623-.007-20.434 0-.255.024-.513-.004-.766-.069-.625.174-.846.816-.842.629.004.745.265.743.821-.018 3.803-.01 7.606-.009 11.409z" fill="#2a005f"/><path d="m207.562 24.075c-.827-.516-1.029-1.121-1.008-1.905.047-1.731.029-3.463.008-5.195-.006-.511.077-.767.688-.76 2.867.03 5.735.019 8.602.001.455-.003.679.088.671.602-.008.491-.132.695-.676.69-2.498-.027-4.997.012-7.495-.024-.642-.009-.82.171-.806.811.044 1.889.016 3.78.016 5.78z" fill="#f9f9f9"/><path d="m222.215 33.657v11.23c0 .198-.002.397-.005.595-.003.216-.056.399-.319.41-.26.012-.343-.151-.351-.376-.006-.17-.006-.34-.006-.51 0-7.515 0-15.029 0-22.544 0-.085.003-.17 0-.255-.012-.324-.02-.685.422-.678.502.008.244.432.245.644.018 3.828.013 7.656.014 11.484z" fill="#060407"/><path d="m218.312 43.036c.154-.316.152-.653.152-.994-.004-7.788-.006-15.577-.008-23.365.354.176.174.5.174.745.011 7.611.013 15.222-.007 22.833 0 .254.293.728-.311.781z" fill="#dac43f"/><path d="m127.842 32.77c-1.53 0-3.06-.019-4.589.01-.57.011-.82-.14-.796-.76.042-1.075.028-2.153.002-3.229-.013-.525.123-.759.71-.754 3.116.024 6.233.017 9.349.002.495-.002.72.133.707.67-.027 1.133-.025 2.267.007 3.399.015.544-.23.671-.715.665-1.558-.017-3.116-.006-4.675-.006z" fill="#fbcd0a"/><path d="m125.685 25.534c1.531 0 3.062.022 4.591-.012.565-.013.728.175.717.728-.012.562-.208.72-.762.714-2.721-.031-5.442-.005-8.162-.041-.6-.008-.793.171-.75.763.049.677.003 1.36.016 2.04.006.322-.032.548-.446.53-.364-.016-.689-.003-.686-.51.008-1.247-.001-2.494 0-3.741 0-.516.377-.474.72-.474 1.587-.001 3.174 0 4.762 0z" fill="#f5f5f5"/><path d="m129.51 35.02c-1.36 0-2.719.006-4.079-.005-.289-.002-.693.091-.67-.405.017-.37.194-.594.626-.652 1.861-.251 3.727-.183 5.585-.059.849.056 1.694.055 2.541.062.525.004.769-.297.772-.805.005-.651.01-1.303-.001-1.954-.008-.469.087-.909.632-.921.559-.012.691.536.673.911-.037.788-.112 1.574-.107 2.365.009 1.604-.092 1.621-1.727 1.506-1.409-.099-2.83-.021-4.246-.021.001-.008.001-.015.001-.022z" fill="#260055"/><path d="m110.579 37.736c-2.389-1.061-4.776-2.125-7.169-3.178-.393-.173-.79-.269-.49-.859.291-.573.619-.282.976-.126 2.673 1.167 5.351 2.324 8.023 3.494.969.424 1.002.556.316 1.386-2.171 2.626-5.059 3.702-8.373 3.851-.403.018-.551-.142-.565-.542-.016-.451.181-.591.601-.61 1.74-.076 3.414-.41 4.951-1.286.57-.325 1.109-.683 1.578-1.141.138-.317.848-.545.152-.989z" fill="#0a0707"/><path d="m103.374 28.299c-.325-.018-.408-.292-.519-.503-.134-.254-.082-.461.214-.62 2.658-1.429 5.309-2.872 7.963-4.31.265-.144.459-.127.626.174.198.356.219.646-.168.86-.693.382-1.395.749-2.09 1.127-1.859 1.013-3.716 2.029-5.574 3.043-.15.082-.304.154-.452.229z" fill="#0c0906"/><path d="m110.579 37.736c.709.284.709.284-.151.989-.006-.339.538-.593.151-.989z" fill="#bf9f20"/><path d="m52.508 37.606c0 1.106-.018 2.213.008 3.319.011.49-.104.709-.656.696-1.559-.035-3.12-.024-4.68-.007-.44.005-.677-.082-.683-.597-.006-.588.355-.529.731-.529 1.163.002 2.326-.024 3.489.002.556.013.736-.205.731-.744-.02-2.127.01-4.255-.022-6.383-.01-.669.135-.934.891-.927 1.727.014 3.469.175 5.18-.136 2.201-.4 4.053-1.316 4.749-3.681.095-.322.141-.661.186-.995.054-.405.155-.689.677-.649.543.041.454.4.454.727.002 2.18-1.636 4.315-4 5.21-1.675.634-3.42.725-5.189.681-1.86-.046-1.861-.022-1.865 1.799-.002.739-.001 1.476-.001 2.214z" fill="#090605"/><path d="m55.466 30.261c1.332.037 2.433-.569 3.067-1.912.23-.489.534-.501.952-.315.51.227.236.542.095.83-.855 1.752-2.591 2.717-4.584 2.511-.329-.034-.881.09-.827-.56.048-.58.425-.656.904-.557.082.017.169.003.393.003z" fill="#0d0b08"/><path d="m55.322 25.505c.585 0 1.127.537 1.139 1.13.012.597-.508 1.149-1.102 1.171-.623.023-1.196-.548-1.179-1.174.017-.607.543-1.127 1.142-1.127z" fill="#110d08"/><path d="m86.806 41.493c-2.329 0-4.476-.002-6.623.002-.321.001-.458-.119-.429-.458.031-.363.05-.659.553-.648 1.217.025 2.434.019 3.651.004.863-.01.914-.109.52-.865-.482-.928-.961-1.857-1.457-2.778-.182-.337-.283-.589.163-.826.387-.206.613-.161.813.223.901 1.725 1.81 3.445 2.809 5.346z" fill="#0b0806"/><path d="m75.512 34.32c-1.004.014-1.869-.802-1.898-1.79-.027-.942.795-1.78 1.779-1.812 1.02-.033 1.88.781 1.885 1.785.006.973-.802 1.803-1.766 1.817z" fill="#090707"/><path d="m75.523 37.175c-.127-.678-.016-1.087.83-1.195 1.028-.132 1.822-.745 2.188-1.763.172-.48.419-.607.886-.433.555.207.31.57.191.897-.247.68-.735 1.188-1.245 1.676-.408.323-.887.503-1.364.688l.004-.001c-.493.089-.966.397-1.49.131z" fill="#0f0b08"/><path d="m75.523 37.175c.496-.044.993-.087 1.489-.131-.474.286-.949.581-1.489.131z" fill="#947e17"/><path d="m77.009 37.045c.408-.322.885-.507 1.364-.688-.326.484-.796.683-1.364.688z" fill="#947e17"/><path d="m213.866 41.491c-.908 0-1.816-.01-2.724.005-.368.006-.589-.051-.558-.507.028-.405.114-.61.587-.6 1.361.029 2.724-.013 4.085.019.548.013.758-.147.741-.717-.032-1.077.015-2.155 0-3.233-.006-.404.057-.636.542-.64.466-.004.578.192.574.61-.014 1.504-.019 3.008.002 4.511.007.467-.195.572-.611.562-.879-.021-1.759-.006-2.638-.006 0 0 0-.002 0-.004z" fill="#0a0605"/><path d="m160.355 41.495c-.906-.001-1.811-.008-2.717.003-.317.004-.538-.015-.532-.436.006-.387.043-.662.523-.659 1.189.007 2.377-.002 3.566-.005 1.553-.004 1.325.083 1.352-1.384.016-.849.011-1.698.002-2.547-.004-.389.071-.641.553-.639.493.002.545.282.543.658-.009 1.47-.043 2.941-.004 4.41.014.543-.225.61-.653.603-.878-.013-1.756-.004-2.633-.004z" fill="#0a0605"/><path d="m188.786 41.455c-.88 0-1.761-.019-2.641.008-.433.013-.611-.127-.62-.571-.009-.46.194-.582.616-.575 1.107.019 2.215.004 3.322.01.959.005.96.009.579-.826-.423-.928-.835-1.862-1.278-2.78-.196-.406-.184-.671.266-.887.484-.232.617.119.759.414.7 1.456 1.378 2.923 2.073 4.382.27.567.263.889-.52.841-.849-.052-1.703-.012-2.555-.012-.001-.001-.001-.003-.001-.004z" fill="#0c0905"/><path d="m179.404 32.465c.012-1.073.757-1.793 1.841-1.779 1.019.013 1.768.764 1.763 1.769-.005.99-.802 1.817-1.755 1.82-1.029.004-1.86-.81-1.849-1.81z" fill="#080706"/><path d="m181.812 37.154c-.291.027-.52-.059-.536-.386-.015-.302-.07-.683.36-.739 1.345-.172 2.311-.803 2.796-2.118.146-.396.508-.235.809-.158.348.089.329.299.249.582-.407 1.441-2.182 2.809-3.678 2.819z" fill="#100e0a"/><path d="m143.81 205.708c-.771 1.535-2.641 2.155-4.176 1.384s-2.155-2.641-1.384-4.176 2.641-2.155 4.176-1.384c.604.303 1.093.795 1.392 1.4l-2.788 1.38z" fill="#fbff0b"/><path d="m92.368 213.152-2.788-1.38c.3-.606.788-1.097 1.392-1.4 1.535-.771 3.405-.151 4.176 1.384s.151 3.405-1.384 4.176-3.405.151-4.176-1.384z" fill="#fbff0b"/><path d="m92.368 213.152-2.788-1.38c.3-.606.788-1.097 1.392-1.4 1.535-.771 3.405-.151 4.176 1.384s.151 3.405-1.384 4.176-3.405.151-4.176-1.384z" fill="#fbff0b"/><path d="m100.768 213.152-2.788-1.38c.3-.606.788-1.097 1.392-1.4 1.535-.771 3.405-.151 4.176 1.384s.151 3.405-1.384 4.176-3.405.151-4.176-1.384z" fill="#fbff0b"/><path d="m109.168 213.152-2.788-1.38c.3-.606.788-1.097 1.392-1.4 1.535-.771 3.405-.151 4.176 1.384s.151 3.405-1.384 4.176-3.405.151-4.176-1.384z" fill="#fbff0b"/><ellipse cx="176.547" cy="200.627" fill="#dd948e" rx=".565" ry=".552"/><ellipse cx="176.547" cy="196.979" fill="#dd948e" rx=".565" ry=".552"/><ellipse cx="176.549" cy="193.421" fill="#dd948e" rx=".565" ry=".552"/><ellipse cx="172.903" cy="193.421" fill="#dd948e" rx=".565" ry=".552"/><ellipse cx="169.323" cy="193.421" fill="#dd948e" rx=".565" ry=".552"/><ellipse cx="169.292" cy="189.797" fill="#dd948e" rx=".565" ry=".552"/><ellipse cx="165.723" cy="193.421" fill="#dd948e" rx=".565" ry=".552"/><ellipse cx="162.091" cy="193.421" fill="#dd948e" rx=".565" ry=".552"/><ellipse cx="158.477" cy="193.399" fill="#dd948e" rx=".565" ry=".552"/><ellipse cx="158.486" cy="189.797" fill="#dd948e" rx=".565" ry=".552"/><ellipse cx="169.292" cy="186.189" fill="#dd948e" rx=".565" ry=".552"/><ellipse cx="169.326" cy="182.579" fill="#dd948e" rx=".565" ry=".552"/><ellipse cx="172.878" cy="182.538" fill="#dd948e" rx=".565" ry=".552"/><ellipse cx="176.542" cy="178.907" fill="#dd948e" rx=".565" ry=".552"/><ellipse cx="176.549" cy="175.363" fill="#dd948e" rx=".565" ry=".552"/><ellipse cx="158.479" cy="186.191" fill="#dd948e" rx=".565" ry=".552"/><ellipse cx="158.477" cy="182.538" fill="#dd948e" rx=".565" ry=".552"/><ellipse cx="154.878" cy="182.538" fill="#dd948e" rx=".565" ry=".552"/><ellipse cx="176.542" cy="171.729" fill="#dd948e" rx=".565" ry=".552"/><ellipse cx="172.941" cy="171.729" fill="#dd948e" rx=".565" ry=".552"/><ellipse cx="169.326" cy="171.791" fill="#dd948e" rx=".565" ry=".552"/><ellipse cx="165.746" cy="171.729" fill="#dd948e" rx=".565" ry=".552"/><ellipse cx="162.091" cy="171.791" fill="#dd948e" rx=".565" ry=".552"/><ellipse cx="158.501" cy="179.004" fill="#dd948e" rx=".565" ry=".552"/><ellipse cx="158.501" cy="175.414" fill="#dd948e" rx=".565" ry=".552"/><ellipse cx="154.878" cy="171.791" fill="#dd948e" rx=".565" ry=".552"/><ellipse cx="158.501" cy="171.729" fill="#dd948e" rx=".565" ry=".552"/><ellipse cx="151.295" cy="182.633" fill="#dd948e" rx=".565" ry=".552"/><ellipse cx="151.295" cy="171.791" fill="#dd948e" rx=".565" ry=".552"/><ellipse cx="147.594" cy="171.738" fill="#dd948e" rx=".565" ry=".552"/><ellipse cx="144.031" cy="171.738" fill="#dd948e" rx=".565" ry=".552"/><ellipse cx="140.414" cy="171.738" fill="#dd948e" rx=".565" ry=".552"/><ellipse cx="136.816" cy="171.697" fill="#dd948e" rx=".565" ry=".552"/><ellipse cx="136.745" cy="175.399" fill="#dd948e" rx=".565" ry=".552"/><ellipse cx="136.816" cy="179.004" fill="#dd948e" rx=".565" ry=".552"/><ellipse cx="158.418" cy="168.197" fill="#dd948e" rx=".565" ry=".552"/><ellipse cx="158.482" cy="164.573" fill="#dd948e" rx=".565" ry=".552"/><ellipse cx="158.482" cy="160.925" fill="#dd948e" rx=".565" ry=".552"/><ellipse cx="158.541" cy="157.346" fill="#dd948e" rx=".565" ry=".552"/><ellipse cx="158.474" cy="153.71" fill="#dd948e" rx=".565" ry=".552"/><ellipse cx="158.43" cy="150.061" fill="#dd948e" rx=".565" ry=".552"/><ellipse cx="158.43" cy="146.376" fill="#dd948e" rx=".565" ry=".552"/><ellipse cx="158.348" cy="142.844" fill="#dd948e" rx=".565" ry=".552"/><ellipse cx="158.412" cy="139.221" fill="#dd948e" rx=".565" ry=".552"/><ellipse cx="158.412" cy="135.573" fill="#dd948e" rx=".565" ry=".552"/><ellipse cx="158.47" cy="131.994" fill="#dd948e" rx=".565" ry=".552"/><ellipse cx="158.404" cy="128.357" fill="#dd948e" rx=".565" ry=".552"/><ellipse cx="158.433" cy="124.765" fill="#dd948e" rx=".565" ry=".552"/><ellipse cx="158.433" cy="121.08" fill="#dd948e" rx=".565" ry=".552"/><ellipse cx="158.35" cy="117.549" fill="#dd948e" rx=".565" ry=".552"/><ellipse cx="158.414" cy="113.925" fill="#dd948e" rx=".565" ry=".552"/><ellipse cx="158.414" cy="110.277" fill="#dd948e" rx=".565" ry=".552"/><ellipse cx="158.473" cy="106.698" fill="#dd948e" rx=".565" ry=".552"/><ellipse cx="158.407" cy="103.061" fill="#dd948e" rx=".565" ry=".552"/><ellipse cx="176.565" cy="103.198" fill="#dd948e" rx=".565" ry=".552"/><ellipse cx="169.352" cy="103.198" fill="#dd948e" rx=".565" ry=".552"/><ellipse cx="172.975" cy="103.135" fill="#dd948e" rx=".565" ry=".552"/><ellipse cx="165.769" cy="103.198" fill="#dd948e" rx=".565" ry=".552"/><ellipse cx="162.068" cy="103.145" fill="#dd948e" rx=".565" ry=".552"/><ellipse cx="154.894" cy="103.166" fill="#dd948e" rx=".565" ry=".552"/><ellipse cx="147.682" cy="103.166" fill="#dd948e" rx=".565" ry=".552"/><ellipse cx="151.304" cy="103.104" fill="#dd948e" rx=".565" ry=".552"/><ellipse cx="144.099" cy="103.166" fill="#dd948e" rx=".565" ry=".552"/><ellipse cx="140.398" cy="103.113" fill="#dd948e" rx=".565" ry=".552"/><ellipse cx="176.6" cy="117.609" fill="#dd948e" rx=".565" ry=".552"/><ellipse cx="169.387" cy="117.609" fill="#dd948e" rx=".565" ry=".552"/><ellipse cx="173.01" cy="117.546" fill="#dd948e" rx=".565" ry=".552"/><ellipse cx="165.805" cy="117.609" fill="#dd948e" rx=".565" ry=".552"/><ellipse cx="162.104" cy="117.556" fill="#dd948e" rx=".565" ry=".552"/><ellipse cx="176.565" cy="128.48" fill="#dd948e" rx=".565" ry=".552"/><ellipse cx="169.352" cy="128.48" fill="#dd948e" rx=".565" ry=".552"/><ellipse cx="172.975" cy="128.418" fill="#dd948e" rx=".565" ry=".552"/><ellipse cx="165.769" cy="128.48" fill="#dd948e" rx=".565" ry=".552"/><ellipse cx="162.068" cy="128.427" fill="#dd948e" rx=".565" ry=".552"/><ellipse cx="176.6" cy="124.882" fill="#dd948e" rx=".565" ry=".552"/><ellipse cx="176.513" cy="121.211" fill="#dd948e" rx=".565" ry=".552"/><ellipse cx="154.877" cy="117.617" fill="#dd948e" rx=".565" ry=".552"/><ellipse cx="151.27" cy="117.659" fill="#dd948e" rx=".565" ry=".552"/><ellipse cx="176.537" cy="113.999" fill="#dd948e" rx=".565" ry=".552"/><ellipse cx="176.6" cy="106.785" fill="#dd948e" rx=".565" ry=".552"/><ellipse cx="136.761" cy="103.236" fill="#dd948e" rx=".565" ry=".552"/><ellipse cx="136.761" cy="106.785" fill="#dd948e" rx=".565" ry=".552"/><ellipse cx="136.795" cy="110.415" fill="#dd948e" rx=".565" ry=".552"/><ellipse cx="136.761" cy="113.951" fill="#dd948e" rx=".565" ry=".552"/><ellipse cx="104.402" cy="113.894" fill="#dd948e" rx=".565" ry=".552"/><ellipse cx="104.402" cy="110.246" fill="#dd948e" rx=".565" ry=".552"/><ellipse cx="104.343" cy="106.667" fill="#dd948e" rx=".565" ry=".552"/><ellipse cx="104.409" cy="103.03" fill="#dd948e" rx=".565" ry=".552"/><ellipse cx="86.251" cy="103.167" fill="#dd948e" rx=".565" ry=".552"/><ellipse cx="93.464" cy="103.167" fill="#dd948e" rx=".565" ry=".552"/><ellipse cx="89.841" cy="103.104" fill="#dd948e" rx=".565" ry=".552"/><ellipse cx="97.047" cy="103.167" fill="#dd948e" rx=".565" ry=".552"/><ellipse cx="100.747" cy="103.114" fill="#dd948e" rx=".565" ry=".552"/><ellipse cx="107.921" cy="103.136" fill="#dd948e" rx=".565" ry=".552"/><ellipse cx="115.134" cy="103.136" fill="#dd948e" rx=".565" ry=".552"/><ellipse cx="111.511" cy="103.073" fill="#dd948e" rx=".565" ry=".552"/><ellipse cx="118.717" cy="103.136" fill="#dd948e" rx=".565" ry=".552"/><ellipse cx="122.418" cy="103.083" fill="#dd948e" rx=".565" ry=".552"/><ellipse cx="86.216" cy="117.578" fill="#dd948e" rx=".565" ry=".552"/><ellipse cx="93.429" cy="117.578" fill="#dd948e" rx=".565" ry=".552"/><ellipse cx="89.806" cy="117.515" fill="#dd948e" rx=".565" ry=".552"/><ellipse cx="97.011" cy="117.578" fill="#dd948e" rx=".565" ry=".552"/><ellipse cx="100.712" cy="117.525" fill="#dd948e" rx=".565" ry=".552"/><ellipse cx="86.251" cy="128.45" fill="#dd948e" rx=".565" ry=".552"/><ellipse cx="93.464" cy="128.45" fill="#dd948e" rx=".565" ry=".552"/><ellipse cx="89.841" cy="128.387" fill="#dd948e" rx=".565" ry=".552"/><ellipse cx="97.047" cy="128.45" fill="#dd948e" rx=".565" ry=".552"/><ellipse cx="100.747" cy="128.397" fill="#dd948e" rx=".565" ry=".552"/><ellipse cx="86.216" cy="124.851" fill="#dd948e" rx=".565" ry=".552"/><ellipse cx="86.303" cy="121.18" fill="#dd948e" rx=".565" ry=".552"/><ellipse cx="86.279" cy="113.969" fill="#dd948e" rx=".565" ry=".552"/><ellipse cx="86.216" cy="106.754" fill="#dd948e" rx=".565" ry=".552"/><ellipse cx="126.055" cy="103.205" fill="#dd948e" rx=".565" ry=".552"/><ellipse cx="126.055" cy="106.754" fill="#dd948e" rx=".565" ry=".552"/><ellipse cx="126.021" cy="110.384" fill="#dd948e" rx=".565" ry=".552"/><ellipse cx="126.055" cy="113.92" fill="#dd948e" rx=".565" ry=".552"/><ellipse cx="115.131" cy="121.236" fill="#dd948e" rx=".565" ry=".552"/><ellipse cx="115.131" cy="124.837" fill="#dd948e" rx=".565" ry=".552"/><ellipse cx="125.985" cy="128.449" fill="#dd948e" rx=".565" ry=".552"/><ellipse cx="122.367" cy="128.441" fill="#dd948e" rx=".565" ry=".552"/><ellipse cx="118.751" cy="128.449" fill="#dd948e" rx=".565" ry=".552"/><ellipse cx="115.17" cy="128.438" fill="#dd948e" rx=".565" ry=".552"/><ellipse cx="125.14" cy="181.967" fill="#d0cbf3" rx="1.025" ry="1.013"/><ellipse cx="125.629" cy="182.232" fill="#240ee1" rx=".42" ry=".483"/><ellipse cx="122.395" cy="181.967" fill="#d0cbf3" rx="1.025" ry="1.013"/><ellipse cx="122.884" cy="182.232" fill="#240ee1" rx=".42" ry=".483"/><path d="m161.131 212.406h-.302v-.683h-.602v-.539h-2.825v.539h-.714v.683l-.406.023.033 1.838.373.027v.92h.714v.651h2.825v-.651h.602v-.92h.302z" fill="#f6ab29"/><path d="m160.108 210.152h-1.072v-.031h-.666v1.571h.666v-.873h1.072z" fill="#4faf47"/><path d="m156.974 212.31h.666v1.698h-.666z" fill="#fbdc2c"/><path d="m168.441 212.142h-.573v-.649h-3.706v.649h-.611v1.452h.611v.764h.612v.764h.725v.726h1.146v-.726h.879v-.764h.344v-.764h.573z" fill="#e3001c"/><path d="m167.644 211.216h-1.347v-.745h-.43v.745h-1.375v.544h.702v.287h1.719v-.287h.731z" fill="#46ac38"/><path d="m165.402 213.004h.506v.542h-.506z" fill="#fff"/><path d="m166.82 213.577h.506v.542h-.506z" fill="#fff"/><path d="m166.333 214.465h.506v.542h-.506z" fill="#fff"/><path d="m167.264 212.646h.265v.284h-.265z" fill="#fff"/><path d="m165.516 214.107h.279v.299h-.279z" fill="#fff"/><path d="m164.471 212.646h.35v.375h-.35z" fill="#fff"/><path d="m173.137 213.185v-.265h-.139v-.174h-.172v-.112h-1.688v.112h-.172v.174h-.193v.265h-.259v1.695h.259v.285h.193v.194h.172v.113h1.688v-.113h.172v-.194h.139v-.285h.28v-1.695z" fill="#e3001c"/><path d="m173.137 213.185v-.265h-.139v-.174h-.172v-.112h-1.688v.112h-.172v.174h-.193v.265h-.259v1.695h.259v.285h.193v.194h.172v.113h1.688v-.113h.172v-.194h.139v-.285h.28v-1.695z" fill="none"/><path d="m170.805 214.052h.487v.487h-.487z" fill="#fff"/><path d="m171.277 214.554h.533v.533h-.533z" fill="#fff"/><path d="m174.737 214.085v-.265h-.14v-.174h-.172v-.112h-1.688v.112h-.172v.174h-.193v.265h-.258v1.695h.258v.286h.193v.194h.172v.112h1.688v-.112h.172v-.194h.14v-.286h.279v-1.695z" fill="#e3001c"/><path d="m174.737 214.085v-.265h-.14v-.174h-.172v-.112h-1.688v.112h-.172v.174h-.193v.265h-.258v1.695h.258v.286h.193v.194h.172v.112h1.688v-.112h.172v-.194h.14v-.286h.279v-1.695z" fill="none"/><path d="m172.404 214.952h.487v.487h-.487z" fill="#fff"/><path d="m172.876 215.455h.533v.533h-.533z" fill="#fff"/><path d="m173.222 213.269v-.511l.457-.013v-.511h.514l.005-.887h-.385v.511l-1.021-.014-.005.501-.506-.003v.416h-.497v-.524h.403l.006-.494.478-.003.014-.511 1.007-.027.014-.497h.994v-.524l1.129.014.002 1.155h-.988l-.005 1.053-.524-.005.005.494h-.489v.363l.005.474-.61-.005z" fill="#8a4d1d"/><path d="m114.531 174.452.002-.024v-3.168l.445.008.008-1.327h.387l.008-.426h.403v-.41l.815-.008.015-.201h1.645l.007.193.775.008v.41l.427-.008v.418h.443l.008 1.287.308-.009-.008 3.249h-.308l-.002-.337h-.433v-.459l-.438-.002v.428l-.411.006-.005.38-.764.006v-.82l-.801-.006.005.82-.922.006-.005-.413h-.374l.004-.413h-.38l-.004.41-.395-.008v.414z" fill="#e3001c"/><path d="m115.737 170.342h.458v-.395h.838v.395h.364v1.21h-.364v.426h-.838v-.426h-.458z" fill="#d0cbf3"/><path d="m118.203 170.37h.459v-.391h.838v.391h.363v1.197h-.363v.422h-.838v-.422h-.459z" fill="#d0cbf3"/><path d="m116.606 170.798h.79v.751h-.79z" fill="#244093"/><path d="m119.073 170.821h.79v.743h-.79z" fill="#244093"/><path d="m118.449 156.653-.001-.026v-3.33l-.468.008-.008-1.395h-.408l-.008-.448h-.424v-.431l-.856-.008-.016-.212h-1.729l-.008.203-.814.009v.431l-.449-.009v.44h-.465l-.009 1.352-.324-.008.009 3.415h.324l.002-.355h.455v-.482l.46-.003v.451l.432.006.005.4.803.006v-.863l.842-.005-.005.862.969.006.006-.434h.393l-.004-.434h.399l.004.431.416-.009v.436z" fill="#58bbaf"/><path d="m117.326 152.332h-.482v-.416h-.881v.416h-.382v1.271h.382v.449h.881v-.449h.482z" fill="#d0cbf3"/><path d="m114.986 152.361h-.482v-.411h-.881v.411h-.382v1.258h.382v.444h.881v-.444h.482z" fill="#d0cbf3"/><path d="m115.964 153.344h.831v.789h-.831z" fill="#244093"/><path d="m113.676 153.348h.831v.781h-.831z" fill="#244093"/><path d="m134.73 145.566-.001-.026v-3.33l-.469.008-.008-1.395h-.407l-.008-.448h-.424v-.431l-.856-.008-.017-.212h-1.728l-.008.203-.815.009v.431l-.448-.009v.44h-.466l-.008 1.352-.324-.008.008 3.415h.324l.002-.355h.455v-.482l.46-.002v.45l.432.006.006.4.803.006v-.862l.842-.006-.006.862.97.006.005-.434h.394l-.004-.434h.398l.005.431.415-.008v.435z" fill="#eb611a"/><path d="m133.421 140.425h-.482v-.416h-.881v.416h-.382v1.271h.382v.449h.881v-.449h.482z" fill="#d0cbf3"/><path d="m131.438 140.432h-.481v-.412h-.881v.412h-.383v1.258h.383v.444h.881v-.444h.481z" fill="#d0cbf3"/><path d="m132.034 140.016h.831v.789h-.831z" fill="#244093"/><path d="m130.15 140.02h.831v.781h-.831z" fill="#244093"/><ellipse cx="176.635" cy="110.372" fill="#dd948e" rx="1.525" ry="1.489"/><ellipse cx="86.279" cy="110.339" fill="#dd948e" rx="1.525" ry="1.489"/><ellipse cx="176.588" cy="182.494" fill="#dd948e" rx="1.525" ry="1.489"/><g fill="#0e00ea"><path d="m80.915 97.798h.717v34.529h-.717z"/><path d="m105.3 74.13h.717v48.052h-.717z" transform="matrix(0 -1 1 0 7.502 203.814)"/><path d="m129.326 97.798h.717v15.491h-.717z"/><path d="m131.194 111.172h.717v4.453h-.717z" transform="matrix(0 -1 1 0 18.1537 244.9516)"/><path d="m133.063 97.798h.717v15.491h-.717z"/><path d="m90.294 122.808h.717v19.474h-.717z" transform="matrix(0 -1 1 0 -41.8931 223.1979)"/><path d="m100.031 132.187h.717v13.393h-.717z"/><path d="m90.467 135.289h.73v19.833h-.73z" transform="matrix(0 -1 1 0 -54.3736 236.0367)"/><path d="m181.474 97.798h.717v34.529h-.717z" transform="matrix(-1 0 0 -1 363.6638 230.1241)"/><path d="m157.089 74.13h.717v48.052h-.717z" transform="matrix(0 -1 1 0 59.2913 255.6034)"/><path d="m172.095 122.808h.717v19.474h-.717z" transform="matrix(0 -1 1 0 39.9075 304.9984)"/><path d="m162.357 132.187h.717v13.393h-.717z" transform="matrix(-1 0 0 -1 325.4315 277.767)"/><path d="m171.909 135.289h.73v19.833h-.73z" transform="matrix(0 -1 1 0 27.0687 317.4789)"/><path d="m80.843 189.294h.86v19.861h-.86z"/><path d="m106.234 183.836h.717v49.921h-.717z" transform="matrix(0 1 -1 0 315.3885 102.204)"/><path d="m84.675 182.367h.717v8.38h-.717z" transform="matrix(0 1 -1 0 271.5905 101.5235)"/><path d="m88.507 186.376h.717v3.276h-.717z" transform="matrix(-1 0 0 -1 177.7306 376.0283)"/><path d="m90.294 157.978h.717v19.474h-.717z" transform="matrix(0 1 -1 0 258.3677 77.0629)"/><path d="m100.031 154.681h.717v13.393h-.717z"/><path d="m90.467 145.139h.73v19.833h-.73z" transform="matrix(0 1 -1 0 245.8872 64.2241)"/><path d="m80.856 167.357h.835v19.558h-.835z"/><path d="m84.675 185.104h.717v8.38h-.717z" transform="matrix(0 1 -1 0 274.3275 104.2604)"/><path d="m181.402 189.294h.86v19.861h-.86z" transform="matrix(-1 0 0 -1 363.6638 398.4485)"/><path d="m156.155 183.836h.717v49.921h-.717z" transform="matrix(0 1 -1 0 365.3094 52.2831)"/><path d="m177.714 182.367h.717v8.38h-.717z" transform="matrix(0 1 -1 0 364.6289 8.4852)"/><path d="m173.882 186.376h.717v3.276h-.717z"/><path d="m172.095 157.978h.717v19.474h-.717z" transform="matrix(0 1 -1 0 340.1682 -4.7376)"/><path d="m162.357 154.681h.717v13.393h-.717z" transform="matrix(-1 0 0 -1 325.4315 322.7546)"/><path d="m171.909 145.139h.73v19.833h-.73z" transform="matrix(0 1 -1 0 327.3295 -17.2181)"/><path d="m181.414 167.357h.835v19.558h-.835z" transform="matrix(-1 0 0 -1 363.6638 354.2723)"/><path d="m177.714 185.104h.717v8.38h-.717z" transform="matrix(0 1 -1 0 367.3658 11.2221)"/><path d="m100.389 106.309h.717v8.064h-.717z"/><path d="m94.833 100.753h.717v11.829h-.717z" transform="matrix(0 -1 1 0 -11.4764 201.8583)"/><path d="m89.276 106.309h.717v8.064h-.717z" transform="matrix(-1 0 0 -1 179.2692 220.6821)"/><path d="m94.833 108.1h.717v11.829h-.717z" transform="matrix(0 1 -1 0 209.2057 18.8238)"/><path d="m100.389 120.832h.717v4.604h-.717z"/><path d="m94.832 115.065h.717v11.829h-.717z" transform="matrix(0 -1 1 0 -25.7894 216.1702)"/><path d="m89.276 120.832h.717v4.604h-.717z"/><path d="m94.832 119.164h.717v11.829h-.717z" transform="matrix(0 -1 1 0 -29.888 220.2687)"/><path d="m121.882 106.309h.717v8.064h-.717z"/><path d="m114.635 99.063h.717v15.209h-.717z" transform="matrix(0 -1 1 0 8.3263 221.6609)"/><path d="m107.389 106.309h.717v8.064h-.717z" transform="matrix(-1 0 0 -1 215.4947 220.6821)"/><path d="m114.635 106.41h.717v15.209h-.717z" transform="matrix(0 1 -1 0 229.0084 -.9788)"/><path d="m108.989 119.384h.717v4.632h-.717z" transform="matrix(0 -1 1 0 -12.3532 231.0471)"/><path d="m121.645 131.829h.717v4.132h-.717z"/><path d="m107.031 121.342h.717v25.106h-.717z"/><path d="m110.947 121.342h.717v11.204h-.717z"/><path d="m116.298 126.477h.717v11.42h-.717z" transform="matrix(0 -1 1 0 -15.5304 248.844)"/><path d="m108.989 143.773h.717v4.632h-.717z" transform="matrix(0 1 -1 0 255.4363 36.7424)"/><path d="m110.947 135.244h.717v11.204h-.717z"/><path d="m116.298 129.892h.717v11.42h-.717z" transform="matrix(0 1 -1 0 252.2591 18.9456)"/><path d="m143.253 120.637h.717v4.632h-.717z"/><path d="m131.058 133.544h.717v4.132h-.717z" transform="matrix(0 1 -1 0 267.0266 4.1934)"/><path d="m131.058 108.443h.717v25.106h-.717z" transform="matrix(0 1 -1 0 252.4122 -10.4211)"/><path d="m138.009 119.31h.717v11.204h-.717z" transform="matrix(0 1 -1 0 263.2791 -13.4564)"/><path d="m132.766 124.553h.717v11.42h-.717z"/><path d="m118.864 120.637h.717v4.632h-.717z" transform="matrix(-1 0 0 -1 238.4441 245.9069)"/><path d="m124.107 119.31h.717v11.204h-.717z" transform="matrix(0 1 -1 0 249.3769 .4458)"/><path d="m129.351 124.553h.717v11.42h-.717z" transform="matrix(-1 0 0 -1 259.4181 260.5265)"/><path d="m109.191 151.335h.717v4.632h-.717z" transform="matrix(0 -1 1 0 -44.1024 263.2001)"/><path d="m107.233 153.293h.717v15.456h-.717z"/><path d="m111.148 153.293h.717v15.388h-.717z"/><path d="m109.191 166.007h.717v4.632h-.717z" transform="matrix(0 1 -1 0 277.8716 58.774)"/><path d="m107.173 175.154h.717v4.632h-.717z" transform="matrix(-1 0 0 -1 215.0621 354.9412)"/><path d="m114.542 171.701h.717v15.456h-.717z" transform="matrix(0 -1 1 0 -64.5278 294.3292)"/><path d="m114.509 167.819h.717v15.388h-.717z" transform="matrix(0 -1 1 0 -60.6459 290.3795)"/><path d="m121.844 175.154h.717v4.632h-.717z"/><path d="m89.135 195.883h.717v4.632h-.717z" transform="matrix(-1 0 0 -1 178.9856 396.3988)"/><path d="m109.191 183.477h.717v4.132h-.717z" transform="matrix(0 -1 1 0 -75.9941 295.0917)"/><path d="m105.304 183.718h.717v32.878h-.717z" transform="matrix(0 -1 1 0 -94.4947 305.82)"/><path d="m98.353 186.754h.717v18.976h-.717z" transform="matrix(0 -1 1 0 -97.53 294.9531)"/><path d="m107.483 185.179h.717v11.42h-.717z" transform="matrix(-1 0 0 -1 215.6825 381.7793)"/><path d="m121.385 195.883h.717v4.632h-.717z"/><path d="m116.142 190.64h.717v11.204h-.717z" transform="matrix(0 -1 1 0 -79.7416 312.7414)"/><path d="m110.898 185.179h.717v11.42h-.717z"/><path d="m143.573 164.31h.717v4.632h-.717z"/><path d="m131.378 177.217h.717v4.132h-.717z" transform="matrix(0 1 -1 0 311.0195 47.5467)"/><path d="m131.378 152.116h.717v25.106h-.717z" transform="matrix(0 1 -1 0 296.405 32.9322)"/><path d="m138.329 162.983h.717v11.204h-.717z" transform="matrix(0 1 -1 0 307.2719 29.897)"/><path d="m133.086 168.226h.717v11.42h-.717z"/><path d="m119.184 164.31h.717v4.632h-.717z" transform="matrix(-1 0 0 -1 239.0836 333.2531)"/><path d="m124.427 162.983h.717v11.204h-.717z" transform="matrix(0 1 -1 0 293.3698 43.7991)"/><path d="m129.671 168.226h.717v11.42h-.717z" transform="matrix(-1 0 0 -1 260.0576 347.8726)"/><path d="m143.573 184.582h.717v4.632h-.717z"/><path d="m131.378 197.489h.717v4.132h-.717z" transform="matrix(0 1 -1 0 331.291 67.8182)"/><path d="m131.378 172.387h.717v25.106h-.717z" transform="matrix(0 1 -1 0 316.6765 53.2038)"/><path d="m138.329 183.254h.717v11.204h-.717z" transform="matrix(0 1 -1 0 327.5435 50.1685)"/><path d="m133.086 188.498h.717v11.42h-.717z"/><path d="m119.184 184.582h.717v4.632h-.717z" transform="matrix(-1 0 0 -1 239.0836 373.7961)"/><path d="m124.427 183.254h.717v11.204h-.717z" transform="matrix(0 1 -1 0 313.6413 64.0707)"/><path d="m129.671 188.498h.717v11.42h-.717z" transform="matrix(-1 0 0 -1 260.0576 388.4157)"/><path d="m94.848 168.889h.717v11.644h-.717z" transform="matrix(0 -1 1 0 -79.5054 269.9172)"/><path d="m96.395 178.829h.717v10.98h-.717z"/><path d="m100.311 174.353h.717v15.388h-.717z"/><path d="m98.353 187.067h.717v4.632h-.717z" transform="matrix(0 1 -1 0 288.0944 90.6712)"/><path d="m89.384 174.353h.717v4.476h-.717z" transform="matrix(-1 0 0 -1 179.4846 353.1819)"/><path d="m92.89 174.607h.717v7.728h-.717z" transform="matrix(0 -1 1 0 -85.2226 271.7186)"/><path d="m122.918 139.296h.717v7.895h-.717z" transform="matrix(0 -1 1 0 -19.9668 266.5195)"/><path d="m119.222 142.885h.717v13.331h-.717z"/><path d="m131.058 143.663h.717v24.389h-.717z" transform="matrix(0 1 -1 0 287.2738 24.4405)"/><path d="m139.271 139.296h.717v7.895h-.717z" transform="matrix(0 -1 1 0 -3.6142 282.8722)"/><path d="m142.967 142.885h.717v13.331h-.717z" transform="matrix(-1 0 0 -1 286.6501 299.1003)"/><path d="m161.761 106.524h.717v8.064h-.717z" transform="matrix(-1 0 0 -1 324.239 221.1117)"/><path d="m167.318 100.968h.717v11.829h-.717z" transform="matrix(0 -1 1 0 60.7937 274.558)"/><path d="m172.874 106.524h.717v8.064h-.717z"/><path d="m167.318 108.315h.717v11.829h-.717z" transform="matrix(0 1 -1 0 281.9054 -53.4463)"/><path d="m161.761 121.047h.717v4.604h-.717z" transform="matrix(-1 0 0 -1 324.239 246.6987)"/><path d="m167.318 115.28h.717v11.829h-.717z" transform="matrix(0 -1 1 0 46.4818 288.8711)"/><path d="m172.875 121.047h.717v4.604h-.717z" transform="matrix(-1 0 0 -1 346.4656 246.6987)"/><path d="m167.318 119.379h.717v11.829h-.717z" transform="matrix(0 -1 1 0 42.3833 292.9696)"/><path d="m140.269 106.524h.717v8.064h-.717z" transform="matrix(-1 0 0 -1 281.2539 221.1117)"/><path d="m147.515 99.278h.717v15.209h-.717z" transform="matrix(0 -1 1 0 40.9911 254.7554)"/><path d="m154.761 106.524h.717v8.064h-.717z"/><path d="m147.515 106.625h.717v15.209h-.717z" transform="matrix(0 1 -1 0 262.1028 -33.6436)"/><path d="m153.162 119.599h.717v4.632h-.717z" transform="matrix(0 -1 1 0 31.6049 275.4348)"/><path d="m140.505 132.044h.717v4.132h-.717z" transform="matrix(-1 0 0 -1 281.7266 268.2192)"/><path d="m155.119 121.557h.717v25.106h-.717z" transform="matrix(-1 0 0 -1 310.9555 268.2192)"/><path d="m151.204 121.557h.717v11.204h-.717z" transform="matrix(-1 0 0 -1 303.1239 254.317)"/><path d="m145.852 126.692h.717v11.42h-.717z" transform="matrix(0 -1 1 0 13.808 278.6121)"/><path d="m153.162 143.988h.717v4.632h-.717z" transform="matrix(0 1 -1 0 299.824 -7.2157)"/><path d="m151.204 135.459h.717v11.204h-.717z" transform="matrix(-1 0 0 -1 303.1239 282.1214)"/><path d="m145.852 130.107h.717v11.42h-.717z" transform="matrix(0 1 -1 0 282.0272 -10.3929)"/><path d="m152.96 151.55h.717v4.632h-.717z" transform="matrix(0 -1 1 0 -.5481 307.1841)"/><path d="m154.918 153.508h.717v15.456h-.717z" transform="matrix(-1 0 0 -1 310.5518 322.4714)"/><path d="m151.002 153.508h.717v15.388h-.717z" transform="matrix(-1 0 0 -1 302.7202 322.4037)"/><path d="m152.96 166.221h.717v4.632h-.717z" transform="matrix(0 1 -1 0 321.8556 15.2196)"/><path d="m154.977 175.369h.717v4.632h-.717z"/><path d="m147.608 171.915h.717v15.456h-.717z" transform="matrix(0 -1 1 0 -31.6772 327.6095)"/><path d="m147.642 168.033h.717v15.388h-.717z" transform="matrix(0 -1 1 0 -27.7275 323.7275)"/><path d="m140.306 175.369h.717v4.632h-.717z" transform="matrix(-1 0 0 -1 281.3285 355.3708)"/><path d="m173.016 196.098h.717v4.632h-.717z"/><path d="m152.96 183.692h.717v4.132h-.717z" transform="matrix(0 -1 1 0 -32.4397 339.0757)"/><path d="m156.846 183.933h.717v32.878h-.717z" transform="matrix(0 -1 1 0 -43.168 357.5764)"/><path d="m163.797 186.968h.717v18.976h-.717z" transform="matrix(0 -1 1 0 -32.3011 360.6116)"/><path d="m154.667 185.394h.717v11.42h-.717z"/><path d="m140.765 196.098h.717v4.632h-.717z" transform="matrix(-1 0 0 -1 282.2468 396.8285)"/><path d="m146.009 190.855h.717v11.204h-.717z" transform="matrix(0 -1 1 0 -50.0894 342.8233)"/><path d="m151.252 185.394h.717v11.42h-.717z" transform="matrix(-1 0 0 -1 303.2209 382.2089)"/><path d="m167.303 169.104h.717v11.644h-.717z" transform="matrix(0 -1 1 0 -7.2652 342.587)"/><path d="m165.755 179.044h.717v10.98h-.717z" transform="matrix(-1 0 0 -1 332.2264 369.0673)"/><path d="m161.839 174.568h.717v15.388h-.717z" transform="matrix(-1 0 0 -1 324.3947 364.5237)"/><path d="m163.797 187.281h.717v4.632h-.717z" transform="matrix(0 1 -1 0 353.7529 25.4423)"/><path d="m172.766 174.568h.717v4.476h-.717z"/><path d="m169.261 174.821h.717v7.728h-.717z" transform="matrix(0 -1 1 0 -9.0666 348.3043)"/></g><path d="m.5.5h6.105v317.48h-6.105z" fill="#fccd0a" stroke="#000" stroke-miterlimit="10"/><path d="m256.5.5h6.105v317.48h-6.105z" fill="#fccd0a" stroke="#000" stroke-miterlimit="10"/><path d="m76.219 241.42h111.167v16.25h-111.167z" fill="#45627c"/><path d="m78.44 242.233h106.725v14.562h-106.725z" fill="#262323"/><path d="m81.026 243.045h101.193v12.938h-101.193z" fill="#45627c"/><path d="m83.104 243.648h97.398v11.649h-97.398z" fill="#262323"/><path d="m91.88 241.42h18.534v16.25h-18.534z" fill="#262323"/><path d="m86.916 269.42h89.273v38.5h-89.273z" fill="#171717"/><path d="m94.029 297.92h13.002v6h-13.002z"/><circle cx="113.886" cy="290.254" fill="#716f6d" r="2.5"/><path d="m123.551 297.92h13.002v6h-13.002z"/><circle cx="143.409" cy="290.254" fill="#716f6d" r="2.5"/><path d="m106.592 271.42h10.805v4.333h-10.805z" fill="#8b8881"/><path d="m106.592 278.087h41.002v5.667h-41.002z" fill="#abaaa5"/><path d="m136.817 271.42h10.805v4.333h-10.805z" fill="#8b8881"/><path d="m98.712 271.42h3.508v4.333h-3.508z" fill="#781715"/><path d="m151.971 271.42h3.508v4.333h-3.508z" fill="#781715"/><ellipse cx="161.375" cy="287.004" fill="#716f6d" rx="1.678" ry="3.25"/><path d="m157.95 250.584v-4.085c0 .721-2.728 1.306-6.094 1.306s-6.094-.585-6.094-1.306v4.085-.078c1.558.367 3.71.594 6.087.594 2.385 0 4.543-.228 6.102-.597" fill="#fff" stroke="#000" stroke-miterlimit="10"/><path d="m145.746 250.506v-2.568c-1.537.329-2.487.782-2.487 1.282 0 .502.956.957 2.502 1.286" fill="#fff" stroke="#000" stroke-miterlimit="10"/><path d="m157.951 250.502v-2.564c1.546.329 2.501.782 2.501 1.282s-.955.954-2.501 1.282z" fill="#fff" stroke="#000" stroke-miterlimit="10"/><ellipse cx="151.856" cy="246.449" fill="#fff" rx="6.094" ry="1.306" stroke="#000" stroke-miterlimit="10"/><path d="m111.814 246.663c0 2.679-4.776 4.85-10.667 4.85s-10.667-2.172-10.667-4.85" stroke="#0f0e0e" stroke-miterlimit="10"/><ellipse cx="101.147" cy="246.663" rx="10.667" ry="3.017" stroke="#0f0e0e" stroke-miterlimit="10"/><path d="m98.635 234.647h5.02v10.185h-5.02z"/><path d="m98.635 234.42v10.412" fill="none" stroke="#000" stroke-miterlimit="10"/><path d="m103.655 234.42v10.412" fill="none" stroke="#000" stroke-miterlimit="10"/><ellipse cx="101.147" cy="225.711" fill="#d6091d" rx="9.267" ry="9.25" stroke="#000" stroke-miterlimit="10"/><path d="m100.774 250.424h.52v5.147h-.52z" fill="#d6091d" transform="matrix(0 1 -1 0 354.0313 151.9632)"/><path d="m99.288 252.997-.828.26 2.574 2.426 2.574-2.426-.828-.26" fill="#d6091d"/><path d="m87.886 245.464h.52v2.364h-.52z" fill="#d6091d" transform="matrix(-1 0 0 -1 176.2921 493.2928)"/><path d="m88.146 245.845-.26-.381-2.426 1.182 2.426 1.183.26-.381" fill="#d6091d"/><path d="m114.147 245.703h.52v2.364h-.52z" fill="#d6091d"/><path d="m114.407 247.687.26.38 2.426-1.182-2.426-1.182-.26.38" fill="#d6091d"/><path d="m175.143 253.432v-4.085c0 .721-2.728 1.306-6.094 1.306s-6.094-.585-6.094-1.306v4.085-.078c1.558.367 3.71.594 6.087.594 2.385 0 4.543-.228 6.102-.597" fill="#fff" stroke="#000" stroke-miterlimit="10"/><path d="m162.939 253.354v-2.568c-1.537.329-2.487.782-2.487 1.282 0 .502.956.957 2.502 1.286" fill="#fff" stroke="#000" stroke-miterlimit="10"/><path d="m175.144 253.351v-2.564c1.546.329 2.501.782 2.501 1.282s-.956.953-2.501 1.282z" fill="#fff" stroke="#000" stroke-miterlimit="10"/><ellipse cx="169.049" cy="249.297" fill="#fff" rx="6.094" ry="1.306" stroke="#000" stroke-miterlimit="10"/><path d="m128.57 253.392v-4.085c0 .721 2.728 1.306 6.094 1.306s6.094-.585 6.094-1.306v4.085-.078c-1.558.367-3.71.594-6.087.594-2.385 0-4.543-.228-6.102-.597" fill="#fff" stroke="#000" stroke-miterlimit="10"/><path d="m140.773 253.315v-2.568c1.537.329 2.487.782 2.487 1.282 0 .502-.956.957-2.502 1.286" fill="#fff" stroke="#000" stroke-miterlimit="10"/><path d="m128.569 253.311v-2.564c-1.546.329-2.501.782-2.501 1.282-.001.5.955.953 2.501 1.282z" fill="#fff" stroke="#000" stroke-miterlimit="10"/><ellipse cx="134.664" cy="249.257" fill="#fff" rx="6.094" ry="1.306" stroke="#000" stroke-miterlimit="10"/><path d="m70.25 299.865h1.6v1.599h-1.6z" fill="#e5001c"/><path d="m68.651 298.266h1.599v1.6h-1.599z" fill="#e5001c"/><path d="m67.052 296.667h1.599v1.599h-1.599z" fill="#e5001c"/><path d="m70.25 298.266h1.6v1.6h-1.6z" fill="#e5001c"/><path d="m70.25 296.667h1.6v1.599h-1.6z" fill="#e5001c"/><path d="m68.651 296.667h1.599v1.599h-1.599z" fill="#e5001c"/><path d="m65.452 298.266h1.6v1.6h-1.6z" fill="#e5001c"/><path d="m54.258 298.266h1.599v1.6h-1.599z" fill="#e5001c"/><path d="m51.059 298.266h1.599v1.6h-1.599z" fill="#e5001c"/><path d="m49.46 299.865h1.599v1.599h-1.599z" fill="#e5001c"/><path d="m49.46 298.266h1.599v1.6h-1.599z" fill="#e5001c"/><path d="m49.46 296.667h1.599v1.599h-1.599z" fill="#e5001c"/><path d="m51.059 296.667h1.599v1.599h-1.599z" fill="#e5001c"/><path d="m63.853 299.865h1.599v1.599h-1.599z" fill="#e5001c"/><path d="m62.254 299.865h1.599v1.599h-1.599z" fill="#e5001c"/><path d="m62.254 298.266h1.599v1.6h-1.599z" fill="#e5001c"/><path d="m63.853 298.266h1.599v1.6h-1.599z" fill="#e5001c"/><path d="m57.456 299.865h1.6v1.599h-1.6z" fill="#e5001c"/><path d="m55.857 299.865h1.599v1.599h-1.599z" fill="#e5001c"/><path d="m55.857 298.266h1.599v1.6h-1.599z" fill="#e5001c"/><path d="m57.456 298.266h1.6v1.6h-1.6z" fill="#e5001c"/><path d="m60.654 296.667h1.6v1.599h-1.6z" fill="#e5001c"/><path d="m59.056 296.667h1.598v1.599h-1.598z" fill="#e5001c"/><path d="m63.853 296.667h1.599v1.599h-1.599z" fill="#e5001c"/><path d="m65.452 296.667h1.6v1.599h-1.6z" fill="#e5001c"/><path d="m62.254 296.667h1.599v1.599h-1.599z" fill="#e5001c"/><path d="m52.658 296.667h1.6v1.599h-1.6z" fill="#e5001c"/><path d="m55.857 296.667h1.599v1.599h-1.599z" fill="#e5001c"/><path d="m57.456 296.667h1.6v1.599h-1.6z" fill="#e5001c"/><path d="m54.258 296.667h1.599v1.599h-1.599z" fill="#e5001c"/><path d="m67.052 295.068h1.599v1.599h-1.599z" fill="#e5001c"/><path d="m70.25 295.068h1.6v1.599h-1.6z" fill="#e5001c"/><path d="m68.651 295.068h1.599v1.599h-1.599z" fill="#e5001c"/><path d="m49.46 295.068h1.599v1.599h-1.599z" fill="#e5001c"/><path d="m51.059 295.068h1.599v1.599h-1.599z" fill="#e5001c"/><path d="m60.654 295.068h1.6v1.599h-1.6z" fill="#e5001c"/><path d="m59.056 295.068h1.598v1.599h-1.598z" fill="#e5001c"/><path d="m63.853 295.068h1.599v1.599h-1.599z" fill="#e5001c"/><path d="m65.452 295.068h1.6v1.599h-1.6z" fill="#e5001c"/><path d="m62.254 295.068h1.599v1.599h-1.599z" fill="#e5001c"/><path d="m52.658 295.068h1.6v1.599h-1.6z" fill="#e5001c"/><path d="m55.857 295.068h1.599v1.599h-1.599z" fill="#e5001c"/><path d="m57.456 295.068h1.6v1.599h-1.6z" fill="#e5001c"/><path d="m54.258 295.068h1.599v1.599h-1.599z" fill="#e5001c"/><path d="m67.052 293.469h1.599v1.599h-1.599z" fill="#e5001c"/><path d="m70.25 293.469h1.6v1.599h-1.6z" fill="#e5001c"/><path d="m68.651 293.469h1.599v1.599h-1.599z" fill="#e5001c"/><path d="m49.46 293.469h1.599v1.599h-1.599z" fill="#e5001c"/><path d="m51.059 293.469h1.599v1.599h-1.599z" fill="#e5001c"/><path d="m60.654 293.469h1.6v1.599h-1.6z" fill="#e5001c"/><path d="m59.056 293.469h1.598v1.599h-1.598z" fill="#e5001c"/><path d="m63.853 293.469h1.599v1.599h-1.599z" fill="#e5001c"/><path d="m65.452 293.469h1.6v1.599h-1.6z" fill="#e5001c"/><path d="m62.254 293.469h1.599v1.599h-1.599z" fill="#e5001c"/><path d="m52.658 293.469h1.6v1.599h-1.6z" fill="#e5001c"/><path d="m55.857 293.469h1.599v1.599h-1.599z" fill="#e5001c"/><path d="m57.456 293.469h1.6v1.599h-1.6z" fill="#e5001c"/><path d="m54.258 293.469h1.599v1.599h-1.599z" fill="#e5001c"/><path d="m67.052 291.87h1.599v1.599h-1.599z" fill="#e5001c"/><path d="m70.25 291.87h1.6v1.599h-1.6z" fill="#e5001c"/><path d="m68.651 291.87h1.599v1.599h-1.599z" fill="#e5001c"/><path d="m49.46 291.87h1.599v1.599h-1.599z" fill="#e5001c"/><path d="m51.059 291.87h1.599v1.599h-1.599z" fill="#e5001c"/><path d="m60.654 291.87h1.6v1.599h-1.6z" fill="#e5001c"/><path d="m59.056 291.87h1.598v1.599h-1.598z" fill="#e5001c"/><path d="m63.853 291.87h1.599v1.599h-1.599z" fill="#e5001c"/><path d="m65.452 291.87h1.6v1.599h-1.6z" fill="#e5001c"/><path d="m62.254 291.87h1.599v1.599h-1.599z" fill="#e5001c"/><path d="m52.658 291.87h1.6v1.599h-1.6z" fill="#e5001c"/><path d="m55.857 291.87h1.599v1.599h-1.599z" fill="#e5001c"/><path d="m57.456 291.87h1.6v1.599h-1.6z" fill="#e5001c"/><path d="m54.258 291.87h1.599v1.599h-1.599z" fill="#e5001c"/><path d="m67.052 290.27h1.599v1.6h-1.599z" fill="#fff"/><path d="m70.25 290.27h1.6v1.6h-1.6z" fill="#e5001c"/><path d="m68.651 290.27h1.599v1.6h-1.599z" fill="#e5001c"/><path d="m49.46 290.27h1.599v1.6h-1.599z" fill="#e5001c"/><path d="m51.059 290.27h1.599v1.6h-1.599z" fill="#e5001c"/><path d="m60.654 290.27h1.6v1.6h-1.6z" fill="#e5001c"/><path d="m59.056 290.27h1.598v1.6h-1.598z" fill="#e5001c"/><path d="m63.853 290.27h1.599v1.6h-1.599z" fill="#e5001c"/><path d="m65.452 290.27h1.6v1.6h-1.6z" fill="#fff"/><path d="m62.254 290.27h1.599v1.6h-1.599z" fill="#e5001c"/><path d="m52.658 290.27h1.6v1.6h-1.6z" fill="#e5001c"/><path d="m55.857 290.27h1.599v1.6h-1.599z" fill="#fff"/><path d="m57.456 290.27h1.6v1.6h-1.6z" fill="#fff"/><path d="m54.258 290.27h1.599v1.6h-1.599z" fill="#e5001c"/><path d="m67.052 288.671h1.599v1.599h-1.599z" fill="#1a1818"/><path d="m70.25 288.671h1.6v1.599h-1.6z" fill="#e5001c"/><path d="m68.651 288.671h1.599v1.599h-1.599z" fill="#1a1818"/><path d="m49.46 288.671h1.599v1.599h-1.599z" fill="#e5001c"/><path d="m51.059 288.671h1.599v1.599h-1.599z" fill="#e5001c"/><path d="m60.654 288.671h1.6v1.599h-1.6z" fill="#e5001c"/><path d="m59.056 288.671h1.598v1.599h-1.598z" fill="#1a1818"/><path d="m63.853 288.671h1.599v1.599h-1.599z" fill="#fff"/><path d="m65.452 288.671h1.6v1.599h-1.6z" fill="#fff"/><path d="m62.254 288.671h1.599v1.599h-1.599z" fill="#e5001c"/><path d="m52.658 288.671h1.6v1.599h-1.6z" fill="#e5001c"/><path d="m55.857 288.671h1.599v1.599h-1.599z" fill="#fff"/><path d="m57.456 288.671h1.6v1.599h-1.6z" fill="#1a1818"/><path d="m54.258 288.671h1.599v1.599h-1.599z" fill="#fff"/><path d="m67.052 287.072h1.599v1.599h-1.599z" fill="#1a1818"/><path d="m68.651 287.072h1.599v1.599h-1.599z" fill="#1a1818"/><path d="m51.059 287.072h1.599v1.599h-1.599z" fill="#e5001c"/><path d="m60.654 287.072h1.6v1.599h-1.6z" fill="#e5001c"/><path d="m59.056 287.072h1.598v1.599h-1.598z" fill="#1a1818"/><path d="m63.853 287.072h1.599v1.599h-1.599z" fill="#fff"/><path d="m65.452 287.072h1.6v1.599h-1.6z" fill="#fff"/><path d="m62.254 287.072h1.599v1.599h-1.599z" fill="#e5001c"/><path d="m52.658 287.072h1.6v1.599h-1.6z" fill="#e5001c"/><path d="m55.857 287.072h1.599v1.599h-1.599z" fill="#fff"/><path d="m57.456 287.072h1.6v1.599h-1.6z" fill="#1a1818"/><path d="m54.258 287.072h1.599v1.599h-1.599z" fill="#fff"/><path d="m67.052 285.473h1.599v1.599h-1.599z" fill="#fff"/><path d="m68.651 285.473h1.599v1.599h-1.599z" fill="#fff"/><path d="m51.059 285.473h1.599v1.599h-1.599z" fill="#e5001c"/><path d="m60.654 285.473h1.6v1.599h-1.6z" fill="#e5001c"/><path d="m59.056 285.473h1.598v1.599h-1.598z" fill="#fff"/><path d="m63.853 285.473h1.599v1.599h-1.599z" fill="#fff"/><path d="m65.452 285.473h1.6v1.599h-1.6z" fill="#fff"/><path d="m62.254 285.473h1.599v1.599h-1.599z" fill="#e5001c"/><path d="m52.658 285.473h1.6v1.599h-1.6z" fill="#e5001c"/><path d="m55.857 285.473h1.599v1.599h-1.599z" fill="#fff"/><path d="m57.456 285.473h1.6v1.599h-1.6z" fill="#fff"/><path d="m54.258 285.473h1.599v1.599h-1.599z" fill="#fff"/><path d="m67.052 283.873h1.599v1.6h-1.599z" fill="#fff"/><path d="m68.651 283.873h1.599v1.6h-1.599z" fill="#e5001c"/><path d="m51.059 283.873h1.599v1.6h-1.599z" fill="#e5001c"/><path d="m60.654 283.873h1.6v1.6h-1.6z" fill="#e5001c"/><path d="m59.056 283.873h1.598v1.6h-1.598z" fill="#e5001c"/><path d="m63.853 283.873h1.599v1.6h-1.599z" fill="#e5001c"/><path d="m65.452 283.873h1.6v1.6h-1.6z" fill="#fff"/><path d="m62.254 283.873h1.599v1.6h-1.599z" fill="#e5001c"/><path d="m52.658 283.873h1.6v1.6h-1.6z" fill="#e5001c"/><path d="m55.857 283.873h1.599v1.6h-1.599z" fill="#fff"/><path d="m57.456 283.873h1.6v1.6h-1.6z" fill="#fff"/><path d="m54.258 283.873h1.599v1.6h-1.599z" fill="#e5001c"/><path d="m67.052 282.274h1.599v1.599h-1.599z" fill="#e5001c"/><path d="m60.654 282.274h1.6v1.599h-1.6z" fill="#e5001c"/><path d="m59.056 282.274h1.598v1.599h-1.598z" fill="#e5001c"/><path d="m63.853 282.274h1.599v1.599h-1.599z" fill="#e5001c"/><path d="m65.452 282.274h1.6v1.599h-1.6z" fill="#e5001c"/><path d="m62.254 282.274h1.599v1.599h-1.599z" fill="#e5001c"/><path d="m52.658 282.274h1.6v1.599h-1.6z" fill="#e5001c"/><path d="m55.857 282.274h1.599v1.599h-1.599z" fill="#e5001c"/><path d="m57.456 282.274h1.6v1.599h-1.6z" fill="#e5001c"/><path d="m54.258 282.274h1.599v1.599h-1.599z" fill="#e5001c"/><path d="m60.654 280.675h1.6v1.599h-1.6z" fill="#e5001c"/><path d="m59.056 280.675h1.598v1.599h-1.598z" fill="#e5001c"/><path d="m63.853 280.675h1.599v1.599h-1.599z" fill="#e5001c"/><path d="m65.452 280.675h1.6v1.599h-1.6z" fill="#e5001c"/><path d="m62.254 280.675h1.599v1.599h-1.599z" fill="#e5001c"/><path d="m55.857 280.675h1.599v1.599h-1.599z" fill="#e5001c"/><path d="m57.456 280.675h1.6v1.599h-1.6z" fill="#e5001c"/><path d="m54.258 280.675h1.599v1.599h-1.599z" fill="#e5001c"/><path d="m60.654 279.076h1.6v1.599h-1.6z" fill="#e5001c"/><path d="m59.056 279.076h1.598v1.599h-1.598z" fill="#e5001c"/><path d="m62.254 279.076h1.599v1.599h-1.599z" fill="#e5001c"/><path d="m57.456 279.076h1.6v1.599h-1.6z" fill="#e5001c"/><path d="m227.841 298.997h1.599v1.599h-1.599z" fill="#f3a8ca"/><path d="m229.44 297.398h1.6v1.6h-1.6z" fill="#f3a8ca"/><path d="m231.04 295.798h1.598v1.599h-1.598z" fill="#f3a8ca"/><path d="m227.841 297.398h1.599v1.6h-1.599z" fill="#f3a8ca"/><path d="m227.841 295.798h1.599v1.599h-1.599z" fill="#f3a8ca"/><path d="m229.44 295.798h1.6v1.599h-1.6z" fill="#f3a8ca"/><path d="m232.638 297.398h1.6v1.6h-1.6z" fill="#f3a8ca"/><path d="m243.833 297.398h1.598v1.6h-1.598z" fill="#f3a8ca"/><path d="m247.032 297.398h1.6v1.6h-1.6z" fill="#f3a8ca"/><path d="m248.631 298.997h1.598v1.599h-1.598z" fill="#f3a8ca"/><path d="m248.631 297.398h1.598v1.6h-1.598z" fill="#f3a8ca"/><path d="m248.631 295.798h1.598v1.599h-1.598z" fill="#f3a8ca"/><path d="m247.032 295.798h1.599v1.599h-1.599z" fill="#f3a8ca"/><path d="m234.238 298.997h1.6v1.599h-1.6z" fill="#f3a8ca"/><path d="m235.838 298.997h1.598v1.599h-1.598z" fill="#f3a8ca"/><path d="m235.838 297.398h1.598v1.6h-1.598z" fill="#f3a8ca"/><path d="m234.238 297.398h1.6v1.6h-1.6z" fill="#f3a8ca"/><path d="m240.635 298.997h1.599v1.599h-1.599z" fill="#f3a8ca"/><path d="m242.234 298.997h1.6v1.599h-1.6z" fill="#f3a8ca"/><path d="m242.234 297.398h1.6v1.6h-1.6z" fill="#f3a8ca"/><path d="m240.635 297.398h1.599v1.6h-1.599z" fill="#f3a8ca"/><path d="m237.436 295.798h1.6v1.599h-1.6z" fill="#f3a8ca"/><path d="m239.036 295.798h1.599v1.599h-1.599z" fill="#f3a8ca"/><path d="m234.238 295.798h1.6v1.599h-1.6z" fill="#f3a8ca"/><path d="m232.638 295.798h1.6v1.599h-1.6z" fill="#f3a8ca"/><path d="m235.838 295.798h1.598v1.599h-1.598z" fill="#f3a8ca"/><path d="m245.432 295.798h1.6v1.599h-1.6z" fill="#f3a8ca"/><path d="m242.234 295.798h1.6v1.599h-1.6z" fill="#f3a8ca"/><path d="m240.635 295.798h1.599v1.599h-1.599z" fill="#f3a8ca"/><path d="m243.833 295.798h1.598v1.599h-1.598z" fill="#f3a8ca"/><path d="m231.04 294.199h1.598v1.599h-1.598z" fill="#f3a8ca"/><path d="m227.841 294.199h1.599v1.599h-1.599z" fill="#f3a8ca"/><path d="m229.44 294.199h1.6v1.599h-1.6z" fill="#f3a8ca"/><path d="m248.631 294.199h1.598v1.599h-1.598z" fill="#f3a8ca"/><path d="m247.032 294.199h1.599v1.599h-1.599z" fill="#f3a8ca"/><path d="m237.436 294.199h1.6v1.599h-1.6z" fill="#f3a8ca"/><path d="m239.036 294.199h1.599v1.599h-1.599z" fill="#f3a8ca"/><path d="m234.238 294.199h1.6v1.599h-1.6z" fill="#f3a8ca"/><path d="m232.638 294.199h1.6v1.599h-1.6z" fill="#f3a8ca"/><path d="m235.838 294.199h1.598v1.599h-1.598z" fill="#f3a8ca"/><path d="m245.432 294.199h1.6v1.599h-1.6z" fill="#f3a8ca"/><path d="m242.234 294.199h1.6v1.599h-1.6z" fill="#f3a8ca"/><path d="m240.635 294.199h1.599v1.599h-1.599z" fill="#f3a8ca"/><path d="m243.833 294.199h1.598v1.599h-1.598z" fill="#f3a8ca"/><path d="m231.04 292.6h1.598v1.599h-1.598z" fill="#f3a8ca"/><path d="m227.841 292.6h1.599v1.599h-1.599z" fill="#f3a8ca"/><path d="m229.44 292.6h1.6v1.599h-1.6z" fill="#f3a8ca"/><path d="m248.631 292.6h1.598v1.599h-1.598z" fill="#f3a8ca"/><path d="m247.032 292.6h1.599v1.599h-1.599z" fill="#f3a8ca"/><path d="m237.436 292.6h1.6v1.599h-1.6z" fill="#f3a8ca"/><path d="m239.036 292.6h1.599v1.599h-1.599z" fill="#f3a8ca"/><path d="m234.238 292.6h1.6v1.599h-1.6z" fill="#f3a8ca"/><path d="m232.638 292.6h1.6v1.599h-1.6z" fill="#f3a8ca"/><path d="m235.838 292.6h1.598v1.599h-1.598z" fill="#f3a8ca"/><path d="m245.432 292.6h1.6v1.599h-1.6z" fill="#f3a8ca"/><path d="m242.234 292.6h1.6v1.599h-1.6z" fill="#f3a8ca"/><path d="m240.635 292.6h1.599v1.599h-1.599z" fill="#f3a8ca"/><path d="m243.833 292.6h1.598v1.599h-1.598z" fill="#f3a8ca"/><path d="m231.04 291.001h1.598v1.599h-1.598z" fill="#f3a8ca"/><path d="m227.841 291.001h1.599v1.599h-1.599z" fill="#f3a8ca"/><path d="m229.44 291.001h1.6v1.599h-1.6z" fill="#f3a8ca"/><path d="m248.631 291.001h1.598v1.599h-1.598z" fill="#f3a8ca"/><path d="m247.032 291.001h1.599v1.599h-1.599z" fill="#f3a8ca"/><path d="m237.436 291.001h1.6v1.599h-1.6z" fill="#f3a8ca"/><path d="m239.036 291.001h1.599v1.599h-1.599z" fill="#f3a8ca"/><path d="m234.238 291.001h1.6v1.599h-1.6z" fill="#f3a8ca"/><path d="m232.638 291.001h1.6v1.599h-1.6z" fill="#f3a8ca"/><path d="m235.838 291.001h1.598v1.599h-1.598z" fill="#f3a8ca"/><path d="m245.432 291.001h1.6v1.599h-1.6z" fill="#f3a8ca"/><path d="m242.234 291.001h1.6v1.599h-1.6z" fill="#f3a8ca"/><path d="m240.635 291.001h1.599v1.599h-1.599z" fill="#f3a8ca"/><path d="m243.833 291.001h1.598v1.599h-1.598z" fill="#f3a8ca"/><path d="m231.04 289.402h1.598v1.6h-1.598z" fill="#fff"/><path d="m227.841 289.402h1.599v1.6h-1.599z" fill="#f3a8ca"/><path d="m229.44 289.402h1.6v1.6h-1.6z" fill="#f3a8ca"/><path d="m248.631 289.402h1.598v1.6h-1.598z" fill="#f3a8ca"/><path d="m247.032 289.402h1.599v1.6h-1.599z" fill="#f3a8ca"/><path d="m237.436 289.402h1.6v1.6h-1.6z" fill="#f3a8ca"/><path d="m239.036 289.402h1.599v1.6h-1.599z" fill="#f3a8ca"/><path d="m234.238 289.402h1.6v1.6h-1.6z" fill="#f3a8ca"/><path d="m232.638 289.402h1.6v1.6h-1.6z" fill="#fff"/><path d="m235.838 289.402h1.598v1.6h-1.598z" fill="#f3a8ca"/><path d="m245.432 289.402h1.6v1.6h-1.6z" fill="#f3a8ca"/><path d="m242.234 289.402h1.6v1.6h-1.6z" fill="#fff"/><path d="m240.635 289.402h1.599v1.6h-1.599z" fill="#fff"/><path d="m243.833 289.402h1.598v1.6h-1.598z" fill="#f3a8ca"/><path d="m231.04 287.803h1.598v1.599h-1.598z" fill="#1a1818"/><path d="m227.841 287.803h1.599v1.599h-1.599z" fill="#f3a8ca"/><path d="m229.44 287.803h1.6v1.599h-1.6z" fill="#1a1818"/><path d="m248.631 287.803h1.598v1.599h-1.598z" fill="#f3a8ca"/><path d="m247.032 287.803h1.599v1.599h-1.599z" fill="#f3a8ca"/><path d="m237.436 287.803h1.6v1.599h-1.6z" fill="#f3a8ca"/><path d="m239.036 287.803h1.599v1.599h-1.599z" fill="#1a1818"/><path d="m234.238 287.803h1.6v1.599h-1.6z" fill="#fff"/><path d="m232.638 287.803h1.6v1.599h-1.6z" fill="#fff"/><path d="m235.838 287.803h1.598v1.599h-1.598z" fill="#f3a8ca"/><path d="m245.432 287.803h1.6v1.599h-1.6z" fill="#f3a8ca"/><path d="m242.234 287.803h1.6v1.599h-1.6z" fill="#fff"/><path d="m240.635 287.803h1.599v1.599h-1.599z" fill="#1a1818"/><path d="m243.833 287.803h1.598v1.599h-1.598z" fill="#fff"/><path d="m231.04 286.204h1.598v1.599h-1.598z" fill="#1a1818"/><path d="m229.44 286.204h1.6v1.599h-1.6z" fill="#1a1818"/><path d="m247.032 286.204h1.599v1.599h-1.599z" fill="#f3a8ca"/><path d="m237.436 286.204h1.6v1.599h-1.6z" fill="#f3a8ca"/><path d="m239.036 286.204h1.599v1.599h-1.599z" fill="#1a1818"/><path d="m234.238 286.204h1.6v1.599h-1.6z" fill="#fff"/><path d="m232.638 286.204h1.6v1.599h-1.6z" fill="#fff"/><path d="m235.838 286.204h1.598v1.599h-1.598z" fill="#f3a8ca"/><path d="m245.432 286.204h1.6v1.599h-1.6z" fill="#f3a8ca"/><path d="m242.234 286.204h1.6v1.599h-1.6z" fill="#fff"/><path d="m240.635 286.204h1.599v1.599h-1.599z" fill="#1a1818"/><path d="m243.833 286.204h1.598v1.599h-1.598z" fill="#fff"/><path d="m231.04 284.605h1.598v1.599h-1.598z" fill="#fff"/><path d="m229.44 284.605h1.6v1.599h-1.6z" fill="#fff"/><path d="m247.032 284.605h1.599v1.599h-1.599z" fill="#f3a8ca"/><path d="m237.436 284.605h1.6v1.599h-1.6z" fill="#f3a8ca"/><path d="m239.036 284.605h1.599v1.599h-1.599z" fill="#fff"/><path d="m234.238 284.605h1.6v1.599h-1.6z" fill="#fff"/><path d="m232.638 284.605h1.6v1.599h-1.6z" fill="#fff"/><path d="m235.838 284.605h1.598v1.599h-1.598z" fill="#f3a8ca"/><path d="m245.432 284.605h1.6v1.599h-1.6z" fill="#f3a8ca"/><path d="m242.234 284.605h1.6v1.599h-1.6z" fill="#fff"/><path d="m240.635 284.605h1.599v1.599h-1.599z" fill="#fff"/><path d="m243.833 284.605h1.598v1.599h-1.598z" fill="#fff"/><path d="m231.04 283.005h1.598v1.6h-1.598z" fill="#fff"/><path d="m229.44 283.005h1.6v1.6h-1.6z" fill="#f3a8ca"/><path d="m247.032 283.005h1.599v1.6h-1.599z" fill="#f3a8ca"/><path d="m237.436 283.005h1.6v1.6h-1.6z" fill="#f3a8ca"/><path d="m239.036 283.005h1.599v1.6h-1.599z" fill="#f3a8ca"/><path d="m234.238 283.005h1.6v1.6h-1.6z" fill="#f3a8ca"/><path d="m232.638 283.005h1.6v1.6h-1.6z" fill="#fff"/><path d="m235.838 283.005h1.598v1.6h-1.598z" fill="#f3a8ca"/><path d="m245.432 283.005h1.6v1.6h-1.6z" fill="#f3a8ca"/><path d="m242.234 283.005h1.6v1.6h-1.6z" fill="#fff"/><path d="m240.635 283.005h1.599v1.6h-1.599z" fill="#fff"/><path d="m243.833 283.005h1.598v1.6h-1.598z" fill="#f3a8ca"/><path d="m231.04 281.406h1.598v1.599h-1.598z" fill="#f3a8ca"/><path d="m237.436 281.406h1.6v1.599h-1.6z" fill="#f3a8ca"/><path d="m239.036 281.406h1.599v1.599h-1.599z" fill="#f3a8ca"/><path d="m234.238 281.406h1.6v1.599h-1.6z" fill="#f3a8ca"/><path d="m232.638 281.406h1.6v1.599h-1.6z" fill="#f3a8ca"/><path d="m235.838 281.406h1.598v1.599h-1.598z" fill="#f3a8ca"/><path d="m245.432 281.406h1.6v1.599h-1.6z" fill="#f3a8ca"/><path d="m242.234 281.406h1.6v1.599h-1.6z" fill="#f3a8ca"/><path d="m240.635 281.406h1.599v1.599h-1.599z" fill="#f3a8ca"/><path d="m243.833 281.406h1.598v1.599h-1.598z" fill="#f3a8ca"/><path d="m237.436 279.807h1.6v1.599h-1.6z" fill="#f3a8ca"/><path d="m239.036 279.807h1.599v1.599h-1.599z" fill="#f3a8ca"/><path d="m234.238 279.807h1.6v1.599h-1.6z" fill="#f3a8ca"/><path d="m232.638 279.807h1.6v1.599h-1.6z" fill="#f3a8ca"/><path d="m235.838 279.807h1.598v1.599h-1.598z" fill="#f3a8ca"/><path d="m242.234 279.807h1.6v1.599h-1.6z" fill="#f3a8ca"/><path d="m240.635 279.807h1.599v1.599h-1.599z" fill="#f3a8ca"/><path d="m243.833 279.807h1.598v1.599h-1.598z" fill="#f3a8ca"/><path d="m237.436 278.208h1.6v1.599h-1.6z" fill="#f3a8ca"/><path d="m239.036 278.208h1.599v1.599h-1.599z" fill="#f3a8ca"/><path d="m235.838 278.208h1.598v1.599h-1.598z" fill="#f3a8ca"/><path d="m240.635 278.208h1.599v1.599h-1.599z" fill="#f3a8ca"/><path d="m213.503 300.597h1.599v1.599h-1.599z" fill="#eb611a"/><path d="m211.904 298.997h1.599v1.6h-1.599z" fill="#eb611a"/><path d="m210.304 297.398h1.599v1.599h-1.599z" fill="#eb611a"/><path d="m213.503 298.997h1.599v1.6h-1.599z" fill="#eb611a"/><path d="m213.503 297.398h1.599v1.599h-1.599z" fill="#eb611a"/><path d="m211.904 297.398h1.599v1.599h-1.599z" fill="#eb611a"/><path d="m208.705 298.997h1.599v1.6h-1.599z" fill="#eb611a"/><path d="m197.51 298.997h1.6v1.6h-1.6z" fill="#eb611a"/><path d="m194.312 298.997h1.599v1.6h-1.599z" fill="#eb611a"/><path d="m192.713 300.597h1.599v1.599h-1.599z" fill="#eb611a"/><path d="m192.713 298.997h1.599v1.6h-1.599z" fill="#eb611a"/><path d="m192.713 297.398h1.599v1.599h-1.599z" fill="#eb611a"/><path d="m194.312 297.398h1.599v1.599h-1.599z" fill="#eb611a"/><path d="m207.106 300.597h1.6v1.599h-1.6z" fill="#eb611a"/><path d="m205.507 300.597h1.599v1.599h-1.599z" fill="#eb611a"/><path d="m205.507 298.997h1.599v1.6h-1.599z" fill="#eb611a"/><path d="m207.106 298.997h1.6v1.6h-1.6z" fill="#eb611a"/><path d="m200.709 300.597h1.599v1.599h-1.599z" fill="#eb611a"/><path d="m199.11 300.597h1.599v1.599h-1.599z" fill="#eb611a"/><path d="m199.11 298.997h1.599v1.6h-1.599z" fill="#eb611a"/><path d="m200.709 298.997h1.599v1.6h-1.599z" fill="#eb611a"/><path d="m203.908 297.398h1.599v1.599h-1.599z" fill="#eb611a"/><path d="m202.308 297.398h1.6v1.599h-1.6z" fill="#eb611a"/><path d="m207.106 297.398h1.6v1.599h-1.6z" fill="#eb611a"/><path d="m208.705 297.398h1.599v1.599h-1.599z" fill="#eb611a"/><path d="m205.507 297.398h1.599v1.599h-1.599z" fill="#eb611a"/><path d="m195.911 297.398h1.599v1.599h-1.599z" fill="#eb611a"/><path d="m199.11 297.398h1.599v1.599h-1.599z" fill="#eb611a"/><path d="m200.709 297.398h1.599v1.599h-1.599z" fill="#eb611a"/><path d="m197.51 297.398h1.6v1.599h-1.6z" fill="#eb611a"/><path d="m210.304 295.799h1.599v1.599h-1.599z" fill="#eb611a"/><path d="m213.503 295.799h1.599v1.599h-1.599z" fill="#eb611a"/><path d="m211.904 295.799h1.599v1.599h-1.599z" fill="#eb611a"/><path d="m192.713 295.799h1.599v1.599h-1.599z" fill="#eb611a"/><path d="m194.312 295.799h1.599v1.599h-1.599z" fill="#eb611a"/><path d="m203.908 295.799h1.599v1.599h-1.599z" fill="#eb611a"/><path d="m202.308 295.799h1.6v1.599h-1.6z" fill="#eb611a"/><path d="m207.106 295.799h1.6v1.599h-1.6z" fill="#eb611a"/><path d="m208.705 295.799h1.599v1.599h-1.599z" fill="#eb611a"/><path d="m205.507 295.799h1.599v1.599h-1.599z" fill="#eb611a"/><path d="m195.911 295.799h1.599v1.599h-1.599z" fill="#eb611a"/><path d="m199.11 295.799h1.599v1.599h-1.599z" fill="#eb611a"/><path d="m200.709 295.799h1.599v1.599h-1.599z" fill="#eb611a"/><path d="m197.51 295.799h1.6v1.599h-1.6z" fill="#eb611a"/><path d="m210.304 294.2h1.599v1.599h-1.599z" fill="#eb611a"/><path d="m213.503 294.2h1.599v1.599h-1.599z" fill="#eb611a"/><path d="m211.904 294.2h1.599v1.599h-1.599z" fill="#eb611a"/><path d="m192.713 294.2h1.599v1.599h-1.599z" fill="#eb611a"/><path d="m194.312 294.2h1.599v1.599h-1.599z" fill="#eb611a"/><path d="m203.908 294.2h1.599v1.599h-1.599z" fill="#eb611a"/><path d="m202.308 294.2h1.6v1.599h-1.6z" fill="#eb611a"/><path d="m207.106 294.2h1.6v1.599h-1.6z" fill="#eb611a"/><path d="m208.705 294.2h1.599v1.599h-1.599z" fill="#eb611a"/><path d="m205.507 294.2h1.599v1.599h-1.599z" fill="#eb611a"/><path d="m195.911 294.2h1.599v1.599h-1.599z" fill="#eb611a"/><path d="m199.11 294.2h1.599v1.599h-1.599z" fill="#eb611a"/><path d="m200.709 294.2h1.599v1.599h-1.599z" fill="#eb611a"/><path d="m197.51 294.2h1.6v1.599h-1.6z" fill="#eb611a"/><path d="m210.304 292.601h1.599v1.6h-1.599z" fill="#eb611a"/><path d="m213.503 292.601h1.599v1.6h-1.599z" fill="#eb611a"/><path d="m211.904 292.601h1.599v1.6h-1.599z" fill="#eb611a"/><path d="m192.713 292.601h1.599v1.6h-1.599z" fill="#eb611a"/><path d="m194.312 292.601h1.599v1.6h-1.599z" fill="#eb611a"/><path d="m203.908 292.601h1.599v1.6h-1.599z" fill="#eb611a"/><path d="m202.308 292.601h1.6v1.6h-1.6z" fill="#eb611a"/><path d="m207.106 292.601h1.6v1.6h-1.6z" fill="#eb611a"/><path d="m208.705 292.601h1.599v1.6h-1.599z" fill="#eb611a"/><path d="m205.507 292.601h1.599v1.6h-1.599z" fill="#eb611a"/><path d="m195.911 292.601h1.599v1.6h-1.599z" fill="#eb611a"/><path d="m199.11 292.601h1.599v1.6h-1.599z" fill="#eb611a"/><path d="m200.709 292.601h1.599v1.6h-1.599z" fill="#eb611a"/><path d="m197.51 292.601h1.6v1.6h-1.6z" fill="#eb611a"/><path d="m210.304 291.002h1.599v1.599h-1.599z" fill="#fff"/><path d="m213.503 291.002h1.599v1.599h-1.599z" fill="#eb611a"/><path d="m211.904 291.002h1.599v1.599h-1.599z" fill="#eb611a"/><path d="m192.713 291.002h1.599v1.599h-1.599z" fill="#eb611a"/><path d="m194.312 291.002h1.599v1.599h-1.599z" fill="#eb611a"/><path d="m203.908 291.002h1.599v1.599h-1.599z" fill="#eb611a"/><path d="m202.308 291.002h1.6v1.599h-1.6z" fill="#eb611a"/><path d="m207.106 291.002h1.6v1.599h-1.6z" fill="#eb611a"/><path d="m208.705 291.002h1.599v1.599h-1.599z" fill="#fff"/><path d="m205.507 291.002h1.599v1.599h-1.599z" fill="#eb611a"/><path d="m195.911 291.002h1.599v1.599h-1.599z" fill="#eb611a"/><path d="m199.11 291.002h1.599v1.599h-1.599z" fill="#fff"/><path d="m200.709 291.002h1.599v1.599h-1.599z" fill="#fff"/><path d="m197.51 291.002h1.6v1.599h-1.6z" fill="#eb611a"/><path d="m210.304 289.403h1.599v1.599h-1.599z" fill="#1a1818"/><path d="m213.503 289.403h1.599v1.599h-1.599z" fill="#eb611a"/><path d="m211.904 289.403h1.599v1.599h-1.599z" fill="#1a1818"/><path d="m192.713 289.403h1.599v1.599h-1.599z" fill="#eb611a"/><path d="m194.312 289.403h1.599v1.599h-1.599z" fill="#eb611a"/><path d="m203.908 289.403h1.599v1.599h-1.599z" fill="#eb611a"/><path d="m202.308 289.403h1.6v1.599h-1.6z" fill="#1a1818"/><path d="m207.106 289.403h1.6v1.599h-1.6z" fill="#fff"/><path d="m208.705 289.403h1.599v1.599h-1.599z" fill="#fff"/><path d="m205.507 289.403h1.599v1.599h-1.599z" fill="#eb611a"/><path d="m195.911 289.403h1.599v1.599h-1.599z" fill="#eb611a"/><path d="m199.11 289.403h1.599v1.599h-1.599z" fill="#fff"/><path d="m200.709 289.403h1.599v1.599h-1.599z" fill="#1a1818"/><path d="m197.51 289.403h1.6v1.599h-1.6z" fill="#fff"/><path d="m210.304 287.804h1.599v1.599h-1.599z" fill="#1a1818"/><path d="m211.904 287.804h1.599v1.599h-1.599z" fill="#1a1818"/><path d="m194.312 287.804h1.599v1.599h-1.599z" fill="#eb611a"/><path d="m203.908 287.804h1.599v1.599h-1.599z" fill="#eb611a"/><path d="m202.308 287.804h1.6v1.599h-1.6z" fill="#1a1818"/><path d="m207.106 287.804h1.6v1.599h-1.6z" fill="#fff"/><path d="m208.705 287.804h1.599v1.599h-1.599z" fill="#fff"/><path d="m205.507 287.804h1.599v1.599h-1.599z" fill="#eb611a"/><path d="m195.911 287.804h1.599v1.599h-1.599z" fill="#eb611a"/><path d="m199.11 287.804h1.599v1.599h-1.599z" fill="#fff"/><path d="m200.709 287.804h1.599v1.599h-1.599z" fill="#1a1818"/><path d="m197.51 287.804h1.6v1.599h-1.6z" fill="#fff"/><path d="m210.304 286.205h1.599v1.599h-1.599z" fill="#fff"/><path d="m211.904 286.205h1.599v1.599h-1.599z" fill="#fff"/><path d="m194.312 286.205h1.599v1.599h-1.599z" fill="#eb611a"/><path d="m203.908 286.205h1.599v1.599h-1.599z" fill="#eb611a"/><path d="m202.308 286.205h1.6v1.599h-1.6z" fill="#fff"/><path d="m207.106 286.205h1.6v1.599h-1.6z" fill="#fff"/><path d="m208.705 286.205h1.599v1.599h-1.599z" fill="#fff"/><path d="m205.507 286.205h1.599v1.599h-1.599z" fill="#eb611a"/><path d="m195.911 286.205h1.599v1.599h-1.599z" fill="#eb611a"/><path d="m199.11 286.205h1.599v1.599h-1.599z" fill="#fff"/><path d="m200.709 286.205h1.599v1.599h-1.599z" fill="#fff"/><path d="m197.51 286.205h1.6v1.599h-1.6z" fill="#fff"/><path d="m210.304 284.605h1.599v1.6h-1.599z" fill="#fff"/><path d="m211.904 284.605h1.599v1.6h-1.599z" fill="#eb611a"/><path d="m194.312 284.605h1.599v1.6h-1.599z" fill="#eb611a"/><path d="m203.908 284.605h1.599v1.6h-1.599z" fill="#eb611a"/><path d="m202.308 284.605h1.6v1.6h-1.6z" fill="#eb611a"/><path d="m207.106 284.605h1.6v1.6h-1.6z" fill="#eb611a"/><path d="m208.705 284.605h1.599v1.6h-1.599z" fill="#fff"/><path d="m205.507 284.605h1.599v1.6h-1.599z" fill="#eb611a"/><path d="m195.911 284.605h1.599v1.6h-1.599z" fill="#eb611a"/><path d="m199.11 284.605h1.599v1.6h-1.599z" fill="#fff"/><path d="m200.709 284.605h1.599v1.6h-1.599z" fill="#fff"/><path d="m197.51 284.605h1.6v1.6h-1.6z" fill="#eb611a"/><path d="m210.304 283.006h1.599v1.599h-1.599z" fill="#eb611a"/><path d="m203.908 283.006h1.599v1.599h-1.599z" fill="#eb611a"/><path d="m202.308 283.006h1.6v1.599h-1.6z" fill="#eb611a"/><path d="m207.106 283.006h1.6v1.599h-1.6z" fill="#eb611a"/><path d="m208.705 283.006h1.599v1.599h-1.599z" fill="#eb611a"/><path d="m205.507 283.006h1.599v1.599h-1.599z" fill="#eb611a"/><path d="m195.911 283.006h1.599v1.599h-1.599z" fill="#eb611a"/><path d="m199.11 283.006h1.599v1.599h-1.599z" fill="#eb611a"/><path d="m200.709 283.006h1.599v1.599h-1.599z" fill="#eb611a"/><path d="m197.51 283.006h1.6v1.599h-1.6z" fill="#eb611a"/><path d="m203.908 281.407h1.599v1.599h-1.599z" fill="#eb611a"/><path d="m202.308 281.407h1.6v1.599h-1.6z" fill="#eb611a"/><path d="m207.106 281.407h1.6v1.599h-1.6z" fill="#eb611a"/><path d="m208.705 281.407h1.599v1.599h-1.599z" fill="#eb611a"/><path d="m205.507 281.407h1.599v1.599h-1.599z" fill="#eb611a"/><path d="m199.11 281.407h1.599v1.599h-1.599z" fill="#eb611a"/><path d="m200.709 281.407h1.599v1.599h-1.599z" fill="#eb611a"/><path d="m197.51 281.407h1.6v1.599h-1.6z" fill="#eb611a"/><path d="m203.908 279.807h1.599v1.6h-1.599z" fill="#eb611a"/><path d="m202.308 279.807h1.6v1.6h-1.6z" fill="#eb611a"/><path d="m205.507 279.807h1.599v1.6h-1.599z" fill="#eb611a"/><path d="m200.709 279.807h1.599v1.6h-1.599z" fill="#eb611a"/><path d="m35.121 299.798h1.6v1.599h-1.6z" fill="#59a5cc"/><path d="m33.522 298.198h1.599v1.6h-1.599z" fill="#59a5cc"/><path d="m31.923 296.599h1.599v1.599h-1.599z" fill="#59a5cc"/><path d="m35.121 298.198h1.6v1.6h-1.6z" fill="#59a5cc"/><path d="m35.121 296.599h1.6v1.599h-1.6z" fill="#59a5cc"/><path d="m33.522 296.599h1.599v1.599h-1.599z" fill="#59a5cc"/><path d="m30.324 298.198h1.599v1.6h-1.599z" fill="#59a5cc"/><path d="m19.13 298.198h1.599v1.6h-1.599z" fill="#59a5cc"/><path d="m15.932 298.198h1.599v1.6h-1.599z" fill="#59a5cc"/><path d="m14.332 299.798h1.599v1.599h-1.599z" fill="#59a5cc"/><path d="m14.332 298.198h1.599v1.6h-1.599z" fill="#59a5cc"/><path d="m14.332 296.599h1.599v1.599h-1.599z" fill="#59a5cc"/><path d="m15.932 296.599h1.599v1.599h-1.599z" fill="#59a5cc"/><path d="m28.725 299.798h1.599v1.599h-1.599z" fill="#59a5cc"/><path d="m27.125 299.798h1.6v1.599h-1.6z" fill="#59a5cc"/><path d="m27.125 298.198h1.6v1.6h-1.6z" fill="#59a5cc"/><path d="m28.725 298.198h1.599v1.6h-1.599z" fill="#59a5cc"/><path d="m22.328 299.798h1.599v1.599h-1.599z" fill="#59a5cc"/><path d="m20.729 299.798h1.6v1.599h-1.6z" fill="#59a5cc"/><path d="m20.729 298.198h1.6v1.6h-1.6z" fill="#59a5cc"/><path d="m22.328 298.198h1.599v1.6h-1.599z" fill="#59a5cc"/><path d="m25.526 296.599h1.599v1.599h-1.599z" fill="#59a5cc"/><path d="m23.927 296.599h1.599v1.599h-1.599z" fill="#59a5cc"/><path d="m28.725 296.599h1.599v1.599h-1.599z" fill="#59a5cc"/><path d="m30.324 296.599h1.599v1.599h-1.599z" fill="#59a5cc"/><path d="m27.125 296.599h1.6v1.599h-1.6z" fill="#59a5cc"/><path d="m17.531 296.599h1.599v1.599h-1.599z" fill="#59a5cc"/><path d="m20.729 296.599h1.6v1.599h-1.6z" fill="#59a5cc"/><path d="m22.328 296.599h1.599v1.599h-1.599z" fill="#59a5cc"/><path d="m19.13 296.599h1.599v1.599h-1.599z" fill="#59a5cc"/><path d="m31.923 295h1.599v1.599h-1.599z" fill="#59a5cc"/><path d="m35.121 295h1.6v1.599h-1.6z" fill="#59a5cc"/><path d="m33.522 295h1.599v1.599h-1.599z" fill="#59a5cc"/><path d="m14.332 295h1.599v1.599h-1.599z" fill="#59a5cc"/><path d="m15.932 295h1.599v1.599h-1.599z" fill="#59a5cc"/><path d="m25.526 295h1.599v1.599h-1.599z" fill="#59a5cc"/><path d="m23.927 295h1.599v1.599h-1.599z" fill="#59a5cc"/><path d="m28.725 295h1.599v1.599h-1.599z" fill="#59a5cc"/><path d="m30.324 295h1.599v1.599h-1.599z" fill="#59a5cc"/><path d="m27.125 295h1.6v1.599h-1.6z" fill="#59a5cc"/><path d="m17.531 295h1.599v1.599h-1.599z" fill="#59a5cc"/><path d="m20.729 295h1.6v1.599h-1.6z" fill="#59a5cc"/><path d="m22.328 295h1.599v1.599h-1.599z" fill="#59a5cc"/><path d="m19.13 295h1.599v1.599h-1.599z" fill="#59a5cc"/><path d="m31.923 293.401h1.599v1.599h-1.599z" fill="#59a5cc"/><path d="m35.121 293.401h1.6v1.599h-1.6z" fill="#59a5cc"/><path d="m33.522 293.401h1.599v1.599h-1.599z" fill="#59a5cc"/><path d="m14.332 293.401h1.599v1.599h-1.599z" fill="#59a5cc"/><path d="m15.932 293.401h1.599v1.599h-1.599z" fill="#59a5cc"/><path d="m25.526 293.401h1.599v1.599h-1.599z" fill="#59a5cc"/><path d="m23.927 293.401h1.599v1.599h-1.599z" fill="#59a5cc"/><path d="m28.725 293.401h1.599v1.599h-1.599z" fill="#59a5cc"/><path d="m30.324 293.401h1.599v1.599h-1.599z" fill="#59a5cc"/><path d="m27.125 293.401h1.6v1.599h-1.6z" fill="#59a5cc"/><path d="m17.531 293.401h1.599v1.599h-1.599z" fill="#59a5cc"/><path d="m20.729 293.401h1.6v1.599h-1.6z" fill="#59a5cc"/><path d="m22.328 293.401h1.599v1.599h-1.599z" fill="#59a5cc"/><path d="m19.13 293.401h1.599v1.599h-1.599z" fill="#59a5cc"/><path d="m31.923 291.802h1.599v1.6h-1.599z" fill="#59a5cc"/><path d="m35.121 291.802h1.6v1.6h-1.6z" fill="#59a5cc"/><path d="m33.522 291.802h1.599v1.6h-1.599z" fill="#59a5cc"/><path d="m14.332 291.802h1.599v1.6h-1.599z" fill="#59a5cc"/><path d="m15.932 291.802h1.599v1.6h-1.599z" fill="#59a5cc"/><path d="m25.526 291.802h1.599v1.6h-1.599z" fill="#59a5cc"/><path d="m23.927 291.802h1.599v1.6h-1.599z" fill="#59a5cc"/><path d="m28.725 291.802h1.599v1.6h-1.599z" fill="#59a5cc"/><path d="m30.324 291.802h1.599v1.6h-1.599z" fill="#59a5cc"/><path d="m27.125 291.802h1.6v1.6h-1.6z" fill="#59a5cc"/><path d="m17.531 291.802h1.599v1.6h-1.599z" fill="#59a5cc"/><path d="m20.729 291.802h1.6v1.6h-1.6z" fill="#59a5cc"/><path d="m22.328 291.802h1.599v1.6h-1.599z" fill="#59a5cc"/><path d="m19.13 291.802h1.599v1.6h-1.599z" fill="#59a5cc"/><path d="m31.923 290.202h1.599v1.599h-1.599z" fill="#59a5cc"/><path d="m35.121 290.202h1.6v1.599h-1.6z" fill="#59a5cc"/><path d="m33.522 290.202h1.599v1.599h-1.599z" fill="#59a5cc"/><path d="m14.332 290.202h1.599v1.599h-1.599z" fill="#59a5cc"/><path d="m15.932 290.202h1.599v1.599h-1.599z" fill="#59a5cc"/><path d="m25.526 290.202h1.599v1.599h-1.599z" fill="#59a5cc"/><path d="m23.927 290.202h1.599v1.599h-1.599z" fill="#59a5cc"/><path d="m28.725 290.202h1.599v1.599h-1.599z" fill="#59a5cc"/><path d="m30.324 290.202h1.599v1.599h-1.599z" fill="#59a5cc"/><path d="m27.125 290.202h1.6v1.599h-1.6z" fill="#59a5cc"/><path d="m17.531 290.202h1.599v1.599h-1.599z" fill="#59a5cc"/><path d="m20.729 290.202h1.6v1.599h-1.6z" fill="#59a5cc"/><path d="m22.328 290.202h1.599v1.599h-1.599z" fill="#59a5cc"/><path d="m19.13 290.202h1.599v1.599h-1.599z" fill="#59a5cc"/><path d="m31.923 288.603h1.599v1.599h-1.599z" fill="#59a5cc"/><path d="m35.121 288.603h1.6v1.599h-1.6z" fill="#59a5cc"/><path d="m33.522 288.603h1.599v1.599h-1.599z" fill="#59a5cc"/><path d="m14.332 288.603h1.599v1.599h-1.599z" fill="#59a5cc"/><path d="m15.932 288.603h1.599v1.599h-1.599z" fill="#59a5cc"/><path d="m25.526 288.603h1.599v1.599h-1.599z" fill="#59a5cc"/><path d="m23.927 288.603h1.599v1.599h-1.599z" fill="#59a5cc"/><path d="m28.725 288.603h1.599v1.599h-1.599z" fill="#59a5cc"/><path d="m30.324 288.603h1.599v1.599h-1.599z" fill="#59a5cc"/><path d="m27.125 288.603h1.6v1.599h-1.6z" fill="#59a5cc"/><path d="m17.531 288.603h1.599v1.599h-1.599z" fill="#59a5cc"/><path d="m20.729 288.603h1.6v1.599h-1.6z" fill="#59a5cc"/><path d="m22.328 288.603h1.599v1.599h-1.599z" fill="#59a5cc"/><path d="m19.13 288.603h1.599v1.599h-1.599z" fill="#59a5cc"/><path d="m31.923 287.004h1.599v1.599h-1.599z" fill="#59a5cc"/><path d="m33.522 287.004h1.599v1.599h-1.599z" fill="#59a5cc"/><path d="m15.932 287.004h1.599v1.599h-1.599z" fill="#59a5cc"/><path d="m25.526 287.004h1.599v1.599h-1.599z" fill="#59a5cc"/><path d="m23.927 287.004h1.599v1.599h-1.599z" fill="#59a5cc"/><path d="m28.725 287.004h1.599v1.599h-1.599z" fill="#59a5cc"/><path d="m30.324 287.004h1.599v1.599h-1.599z" fill="#59a5cc"/><path d="m27.125 287.004h1.6v1.599h-1.6z" fill="#59a5cc"/><path d="m17.531 287.004h1.599v1.599h-1.599z" fill="#59a5cc"/><path d="m20.729 287.004h1.6v1.599h-1.6z" fill="#59a5cc"/><path d="m22.328 287.004h1.599v1.599h-1.599z" fill="#59a5cc"/><path d="m19.13 287.004h1.599v1.599h-1.599z" fill="#59a5cc"/><path d="m31.923 285.405h1.599v1.599h-1.599z" fill="#59a5cc"/><path d="m33.522 285.405h1.599v1.599h-1.599z" fill="#59a5cc"/><path d="m15.932 285.405h1.599v1.599h-1.599z" fill="#59a5cc"/><path d="m25.526 285.405h1.599v1.599h-1.599z" fill="#59a5cc"/><path d="m23.927 285.405h1.599v1.599h-1.599z" fill="#59a5cc"/><path d="m28.725 285.405h1.599v1.599h-1.599z" fill="#fff"/><path d="m30.324 285.405h1.599v1.599h-1.599z" fill="#fff"/><path d="m27.125 285.405h1.6v1.599h-1.6z" fill="#59a5cc"/><path d="m17.531 285.405h1.599v1.599h-1.599z" fill="#59a5cc"/><path d="m20.729 285.405h1.6v1.599h-1.6z" fill="#fff"/><path d="m22.328 285.405h1.599v1.599h-1.599z" fill="#59a5cc"/><path d="m19.13 285.405h1.599v1.599h-1.599z" fill="#fff"/><path d="m31.923 283.806h1.599v1.6h-1.599z" fill="#fff"/><path d="m33.522 283.806h1.599v1.6h-1.599z" fill="#59a5cc"/><path d="m15.932 283.806h1.599v1.6h-1.599z" fill="#59a5cc"/><path d="m25.526 283.806h1.599v1.6h-1.599z" fill="#59a5cc"/><path d="m23.927 283.806h1.599v1.6h-1.599z" fill="#59a5cc"/><path d="m28.725 283.806h1.599v1.6h-1.599z" fill="#fff"/><path d="m30.324 283.806h1.599v1.6h-1.599z" fill="#fff"/><path d="m27.125 283.806h1.6v1.6h-1.6z" fill="#fff"/><path d="m17.531 283.806h1.599v1.6h-1.599z" fill="#fff"/><path d="m20.729 283.806h1.6v1.6h-1.6z" fill="#fff"/><path d="m22.328 283.806h1.599v1.6h-1.599z" fill="#fff"/><path d="m19.13 283.806h1.599v1.6h-1.599z" fill="#fff"/><path d="m31.923 282.207h1.599v1.599h-1.599z" fill="#fff"/><path d="m25.526 282.207h1.599v1.599h-1.599z" fill="#59a5cc"/><path d="m23.927 282.207h1.599v1.599h-1.599z" fill="#59a5cc"/><path d="m28.725 282.207h1.599v1.599h-1.599z" fill="#1a1818"/><path d="m30.324 282.207h1.599v1.599h-1.599z" fill="#1a1818"/><path d="m27.125 282.207h1.6v1.599h-1.6z" fill="#fff"/><path d="m17.531 282.207h1.599v1.599h-1.599z" fill="#fff"/><path d="m20.729 282.207h1.6v1.599h-1.6z" fill="#1a1818"/><path d="m22.328 282.207h1.599v1.599h-1.599z" fill="#fff"/><path d="m19.13 282.207h1.599v1.599h-1.599z" fill="#1a1818"/><path d="m25.526 280.608h1.599v1.599h-1.599z" fill="#59a5cc"/><path d="m23.927 280.608h1.599v1.599h-1.599z" fill="#59a5cc"/><path d="m28.725 280.608h1.599v1.599h-1.599z" fill="#1a1818"/><path d="m30.324 280.608h1.599v1.599h-1.599z" fill="#1a1818"/><path d="m27.125 280.608h1.6v1.599h-1.6z" fill="#fff"/><path d="m20.729 280.608h1.6v1.599h-1.6z" fill="#1a1818"/><path d="m22.328 280.608h1.599v1.599h-1.599z" fill="#fff"/><path d="m19.13 280.608h1.599v1.599h-1.599z" fill="#1a1818"/><path d="m25.526 279.008h1.599v1.6h-1.599z" fill="#59a5cc"/><path d="m23.927 279.008h1.599v1.6h-1.599z" fill="#59a5cc"/><path d="m27.125 279.008h1.6v1.6h-1.6z" fill="#59a5cc"/><path d="m22.328 279.008h1.599v1.6h-1.599z" fill="#59a5cc"/><path d="m13.273 84.647h2.27v146.822h-2.27z" fill="#45627c"/><path d="m27.272 84.647h2.27v146.822h-2.27z" fill="#45627c"/><path d="m20.273 77.648h2.27v16.269h-2.27z" fill="#45627c" transform="matrix(0 -1 1 0 -64.3745 107.1904)"/><path d="m20.273 222.2h2.27v16.269h-2.27z" fill="#45627c" transform="matrix(0 -1 1 0 -208.9264 251.7423)"/><path d="m20.613 106.671h1.589v102.775h-1.589z" fill="#45627c"/><path d="m233.068 84.647h2.27v146.822h-2.27z" fill="#45627c"/><path d="m247.067 84.647h2.27v146.822h-2.27z" fill="#45627c"/><path d="m240.068 77.648h2.27v16.269h-2.27z" fill="#45627c" transform="matrix(0 -1 1 0 155.4202 326.9851)"/><path d="m240.068 222.2h2.27v16.269h-2.27z" fill="#45627c" transform="matrix(0 -1 1 0 10.8683 471.537)"/><path d="m240.408 106.671h1.589v102.775h-1.589z" fill="#45627c"/></svg>