<svg enable-background="new 0 0 88.59 228.619" viewBox="0 0 88.59 228.619" xmlns="http://www.w3.org/2000/svg" xmlns:xlink="http://www.w3.org/1999/xlink"><linearGradient id="a" gradientTransform="matrix(0 1 -1 0 1171.7968 -117.6376)" gradientUnits="userSpaceOnUse" x1="312.9354" x2="291.9762" y1="1137.5215" y2="1116.5623"><stop offset="0" stop-color="#a4a5a9"/><stop offset="1" stop-color="#e6e6e7"/></linearGradient><linearGradient id="b" gradientTransform="matrix(0 1 -1 0 1171.7968 -117.6376)" gradientUnits="userSpaceOnUse" x1="292.0519" x2="312.9278" y1="1137.5138" y2="1116.6379"><stop offset="0" stop-color="#211c1d" stop-opacity="0"/><stop offset=".0448" stop-color="#211c1d" stop-opacity=".0896"/><stop offset=".5" stop-color="#211c1d"/><stop offset=".9552" stop-color="#211c1d" stop-opacity=".0896"/><stop offset="1" stop-color="#211c1d" stop-opacity="0"/></linearGradient><linearGradient id="c" gradientTransform="matrix(0 -1 1 0 2471.6096 -3716.6284)" gradientUnits="userSpaceOnUse" x1="-3911.9182" x2="-3891.0425" y1="-2416.4507" y2="-2437.3264"><stop offset="0" stop-color="#fff" stop-opacity="0"/><stop offset=".5" stop-color="#fff"/><stop offset="1" stop-color="#fff" stop-opacity="0"/></linearGradient><radialGradient id="d" cx="55.7433" cy="184.6471" gradientTransform="matrix(.866 -.5 .35 .6062 -57.1583 100.5824)" gradientUnits="userSpaceOnUse" r="20.5107"><stop offset="0" stop-color="#c0c0bf"/><stop offset=".1883" stop-color="#beac9e"/><stop offset=".4238" stop-color="#bc977f"/><stop offset=".6448" stop-color="#ba896b"/><stop offset=".8432" stop-color="#b9815f"/><stop offset="1" stop-color="#b97e5b"/></radialGradient><ellipse cx="44.789" cy="184.818" fill="#211c1d" rx="43.801" ry="43.801" transform="matrix(.7071 -.7071 .7071 .7071 -117.5678 85.8025)"/><g fill="#808094" opacity=".1"><path d="m44.789 225.4 8.892-8.591h-4.343v-9.828h-9.098v9.828h-4.343z"/><path d="m73.485 213.514.213-12.362-3.071 3.071-6.95-6.95-6.433 6.433 6.95 6.95-3.072 3.071z"/><path d="m85.371 184.819-8.591-8.893v4.343h-9.828v9.098h9.828v4.344z"/><path d="m73.485 156.123-12.362-.213 3.071 3.07-6.95 6.95 6.433 6.434 6.95-6.95 3.071 3.071z"/><path d="m44.789 144.236-8.892 8.591h4.343v9.829h9.098v-9.829h4.343z"/><path d="m16.093 156.122-.213 12.362 3.071-3.07 6.95 6.949 6.433-6.433-6.949-6.95 3.071-3.071z"/><path d="m4.207 184.818 8.591 8.892v-4.343h9.828v-9.098h-9.828v-4.343z"/><path d="m16.093 213.514 12.362.213-3.071-3.071 6.95-6.95-6.433-6.433-6.95 6.95-3.071-3.071z"/></g><path d="m44.295 228.613c-23.963-.265-43.307-19.769-43.307-43.795 0-24.025 19.344-43.529 43.307-43.795-.165-.002-.329-.006-.494-.006-24.191 0-43.801 19.611-43.801 43.801 0 24.191 19.61 43.801 43.801 43.801.165 0 .329-.004.494-.006z" fill="#6d6e6f"/><circle cx="44.755" cy="184.818" fill="url(#a)" r="14.82"/><circle cx="44.755" cy="184.818" fill="#211c1d" opacity=".3" r="11.808"/><path d="m59.482 184.852c0-8.153-6.609-14.761-14.762-14.761-8.152 0-14.761 6.609-14.761 14.761s6.609 14.761 14.761 14.761c8.153.001 14.762-6.608 14.762-14.761zm-28.728-.182c0-7.814 6.335-14.149 14.149-14.149s14.149 6.335 14.149 14.149-6.335 14.149-14.149 14.149-14.149-6.335-14.149-14.149z" fill="url(#b)" opacity=".15"/><path d="m29.96 184.852c0 8.152 6.609 14.762 14.761 14.762 8.153 0 14.761-6.609 14.761-14.762s-6.609-14.761-14.761-14.761c-8.153 0-14.761 6.608-14.761 14.761zm28.728.182c0 7.814-6.335 14.149-14.149 14.149s-14.149-6.335-14.149-14.149 6.335-14.149 14.149-14.149 14.149 6.335 14.149 14.149z" fill="url(#c)" opacity=".4"/><circle cx="55.743" cy="184.647" fill="url(#d)" r="20.511"/><circle cx="44.694" cy="101.941" fill="#c0825d" r="17.455"/><circle cx="44.694" cy="101.941" fill="#a3775d" r="13.877"/><circle cx="44.694" cy="17.455" fill="#c0825d" r="17.455"/><circle cx="44.694" cy="17.455" fill="#9f755c" r="13.877"/><circle cx="57.895" cy="59.698" fill="#c0825d" r="17.455"/><circle cx="57.895" cy="59.698" fill="#9f755c" r="13.877"/></svg>