<svg viewBox="-290 382 30 30" xmlns="http://www.w3.org/2000/svg"><path d="m-263.7 395.5v-.3c-.2-7.1-6-12.8-13.2-12.8-7.3 0-13.2 5.9-13.2 13.2v16.1l5.1-3.1 4.2 3.1 3.8-2.9 4.1 2.9 4.1-3.1 4.9 3.3z" fill="#808080"/><circle cx="-279.5" cy="393.9" fill="#fff" r="3.5"/><path d="m-280.7 411.5 3.8-2.9 4.1 2.9 4.1-3.1 4.9 3.3v-16.4c-.1-2.8-1-5.3-2.5-7.4l-23.8 23.8 5.1-3.1z" fill="#666"/><circle cx="-277.6" cy="393.9" fill="#4d4d4d" r="1.5"/><circle cx="-269.9" cy="393.9" fill="#fff" r="3.5"/><circle cx="-268" cy="393.9" fill="#4d4d4d" r="1.5"/></svg>