<svg enable-background="new 0 0 174.961 141.641" viewBox="0 0 174.961 141.641" xmlns="http://www.w3.org/2000/svg"><path d="m174.346 56.386-55.174-.016-118.559-37.573s0-12.079 0-18.172c.53-.025 54.7-.003 81.294-.003 19.759 0 39.518.002 59.277-.001 7.497-.001 14.004 2.664 19.668 7.442 6.899 5.82 11.063 13.345 13.363 21.98.106.397.128.825.129 1.239.008 7.97.002 25.104.002 25.104z" fill="#cf8a61"/><path d="m174.959 56.999-55.882-.016-.09-.029-118.987-37.708v-19.206l.585-.027c.124-.006 2.271-.013 17.895-.013 9.342 0 21.236.002 32.899.005 11.216.002 22.218.004 30.528.004l34.233.001c8.349 0 16.696 0 25.044-.002 7.347 0 14.096 2.552 20.063 7.587 6.616 5.582 11.052 12.873 13.56 22.291.132.495.149 1.006.149 1.396.007 7.97.002 25.104.002 25.104zm-55.692-1.242 54.467.016c.001-3.126.004-17.417-.002-24.49 0-.316-.013-.724-.108-1.082-2.441-9.167-6.747-16.255-13.166-21.669-5.741-4.842-12.223-7.298-19.268-7.298-8.354.001-16.7.002-25.05.002l-34.233-.001c-8.31 0-19.312-.002-30.528-.004-11.663-.003-23.557-.005-32.899-.005-3.83 0-14.599 0-17.254.008v17.115z"/><path d="m105.755 55.237v45.673h15.317v40.118c-27.75 0-55.423 0-83.183 0 0-6.881 0-13.697 0-20.642 6.712-3.386 13.471-6.795 20.328-10.254 0-23.269 0-46.499 0-69.962 15.935 5.05 31.672 10.038 47.538 15.067z" fill="#cf8a61"/><path d="m121.685 141.641h-84.409v-21.632l20.328-10.254v-70.423l48.764 15.456v45.509h15.317zm-83.183-1.227h81.957v-38.892h-15.317v-45.836l-46.312-14.679v69.503l-20.328 10.254z"/><path d="m111.14 60.705h63.129v35.188c-21.07 0-42.059 0-63.129 0 0-11.757 0-23.432 0-35.188z" fill="#cf8a61"/><path d="m174.882 96.506h-64.354v-36.414h64.354zm-63.129-1.226h61.903v-33.962h-61.903z"/></svg>