<svg enable-background="new 0 0 751.023 465.672" viewBox="0 0 751.023 465.672" xmlns="http://www.w3.org/2000/svg"><path d="m739.527 465.672c12.421 0 11.481-1.63 11.481-7.078 0-3.453 0-450.933 0-450.933 0-5.998-10.819-7.66-22.961-7.66h-705.069c-12.143-.001-22.962 1.71-22.962 7.659v450.933c0 5.448-.94 7.078 11.481 7.078 9.908.001 718.122.001 728.03.001z" fill="#3a3742"/><path d="m652.384 458.698-10.94-.073c16.25-36.13 89.585-199.165 95.617-212.419 7.578-16.65 11.499-27.904 13.946-45.986v24.398c-2.447 18.082-6.368 29.336-13.946 45.986-5.867 12.892-56.039 124.421-84.677 188.094" fill="#f05953"/><path d="m663.405 458.843-11.017-.143c29.08-64.643 80.334-178.561 84.674-188.096 7.578-16.65 11.499-27.904 13.946-45.986v24.647c-2.447 18.083-6.368 29.336-13.946 45.986-5.17 11.359-44.732 99.288-73.657 163.592" fill="#fded0f"/><path d="m674.441 458.908-11.198.296c28.939-64.336 68.64-152.573 73.819-163.953 7.578-16.651 11.499-27.904 13.946-45.987l.016 24.478c-2.446 18.153-6.367 29.42-13.962 46.107-4.536 9.967-35.548 78.878-62.621 139.059" fill="#79c043"/><path d="m674.441 458.908c27.073-60.181 58.085-129.093 62.621-139.058 7.595-16.687 11.516-27.954 13.962-46.107v24.59c-2.446 18.153-6.367 29.42-13.962 46.107-3.933 8.642-27.773 61.604-51.691 114.764z" fill="#6cc1ec"/><g fill="#b3bbb9"><path d="m339.149 217.816h-44.884c-1.441 0-2.61-1.169-2.61-2.61v-30.229c0-1.441 1.169-2.61 2.61-2.61h44.884c1.442 0 2.61 1.169 2.61 2.61v30.229c0 1.442-1.168 2.61-2.61 2.61z"/><path d="m272.795 217.816h-44.884c-1.442 0-2.61-1.169-2.61-2.61v-30.229c0-1.441 1.168-2.61 2.61-2.61h44.884c1.441 0 2.61 1.169 2.61 2.61v30.229c0 1.442-1.168 2.61-2.61 2.61z"/><path d="m206.441 217.816h-44.884c-1.441 0-2.61-1.169-2.61-2.61v-30.229c0-1.441 1.169-2.61 2.61-2.61h44.884c1.442 0 2.61 1.169 2.61 2.61v30.229c0 1.442-1.168 2.61-2.61 2.61z"/><path d="m140.087 217.816h-44.884c-1.442 0-2.61-1.169-2.61-2.61v-30.229c0-1.441 1.168-2.61 2.61-2.61h44.884c1.441 0 2.61 1.169 2.61 2.61v30.229c0 1.442-1.168 2.61-2.61 2.61z"/><path d="m73.733 217.816h-44.884c-1.441 0-2.61-1.169-2.61-2.61v-30.229c0-1.441 1.169-2.61 2.61-2.61h44.884c1.442 0 2.61 1.169 2.61 2.61v30.229c0 1.442-1.168 2.61-2.61 2.61z"/><path d="m405.503 217.816h-44.884c-1.441 0-2.61-1.169-2.61-2.61v-30.229c0-1.441 1.169-2.61 2.61-2.61h44.884c1.441 0 2.61 1.169 2.61 2.61v30.229c.001 1.442-1.168 2.61-2.61 2.61z"/><path d="m471.858 217.816h-44.885c-1.441 0-2.61-1.169-2.61-2.61v-30.229c0-1.441 1.169-2.61 2.61-2.61h44.885c1.441 0 2.61 1.169 2.61 2.61v30.229c-.001 1.442-1.169 2.61-2.61 2.61z"/><path d="m538.212 217.816h-44.885c-1.441 0-2.61-1.169-2.61-2.61v-30.229c0-1.441 1.168-2.61 2.61-2.61h44.885c1.441 0 2.61 1.169 2.61 2.61v30.229c0 1.442-1.169 2.61-2.61 2.61z"/><path d="m604.566 217.816h-44.885c-1.441 0-2.61-1.169-2.61-2.61v-30.229c0-1.441 1.169-2.61 2.61-2.61h44.885c1.441 0 2.61 1.169 2.61 2.61v30.229c-.001 1.442-1.169 2.61-2.61 2.61z"/><path d="m670.919 217.816h-44.884c-1.441 0-2.61-1.169-2.61-2.61v-30.229c0-1.441 1.169-2.61 2.61-2.61h44.884c1.442 0 2.61 1.169 2.61 2.61v30.229c.001 1.442-1.168 2.61-2.61 2.61z"/><path d="m371.836 282.039h-44.884c-1.442 0-2.61-1.169-2.61-2.61v-30.229c0-1.441 1.169-2.61 2.61-2.61h44.884c1.441 0 2.61 1.168 2.61 2.61v30.229c0 1.441-1.168 2.61-2.61 2.61z"/><path d="m305.482 282.039h-44.884c-1.441 0-2.61-1.169-2.61-2.61v-30.229c0-1.441 1.169-2.61 2.61-2.61h44.884c1.442 0 2.61 1.168 2.61 2.61v30.229c0 1.441-1.168 2.61-2.61 2.61z"/><path d="m239.128 282.039h-44.884c-1.441 0-2.61-1.169-2.61-2.61v-30.229c0-1.441 1.169-2.61 2.61-2.61h44.884c1.442 0 2.61 1.168 2.61 2.61v30.229c0 1.441-1.168 2.61-2.61 2.61z"/><path d="m172.774 282.039h-44.884c-1.441 0-2.61-1.169-2.61-2.61v-30.229c0-1.441 1.169-2.61 2.61-2.61h44.884c1.441 0 2.61 1.168 2.61 2.61v30.229c0 1.441-1.168 2.61-2.61 2.61z"/><path d="m106.42 282.039h-44.884c-1.441 0-2.61-1.169-2.61-2.61v-30.229c0-1.441 1.169-2.61 2.61-2.61h44.884c1.442 0 2.61 1.168 2.61 2.61v30.229c0 1.441-1.168 2.61-2.61 2.61z"/><path d="m438.19 282.039h-44.884c-1.441 0-2.61-1.169-2.61-2.61v-30.229c0-1.441 1.169-2.61 2.61-2.61h44.884c1.442 0 2.61 1.168 2.61 2.61v30.229c0 1.441-1.168 2.61-2.61 2.61z"/><path d="m504.544 282.039h-44.884c-1.442 0-2.61-1.169-2.61-2.61v-30.229c0-1.441 1.168-2.61 2.61-2.61h44.884c1.441 0 2.61 1.168 2.61 2.61v30.229c0 1.441-1.168 2.61-2.61 2.61z"/><path d="m570.898 282.039h-44.884c-1.441 0-2.61-1.169-2.61-2.61v-30.229c0-1.441 1.169-2.61 2.61-2.61h44.884c1.441 0 2.61 1.168 2.61 2.61v30.229c0 1.441-1.168 2.61-2.61 2.61z"/><path d="m637.252 282.039h-44.884c-1.441 0-2.61-1.169-2.61-2.61v-30.229c0-1.441 1.169-2.61 2.61-2.61h44.884c1.442 0 2.61 1.168 2.61 2.61v30.229c0 1.441-1.168 2.61-2.61 2.61z"/><path d="m703.606 282.039h-44.884c-1.441 0-2.61-1.169-2.61-2.61v-30.229c0-1.441 1.169-2.61 2.61-2.61h44.884c1.442 0 2.61 1.168 2.61 2.61v30.229c0 1.441-1.168 2.61-2.61 2.61z"/><path d="m388.41 346.722h-44.884c-1.441 0-2.61-1.169-2.61-2.61v-30.229c0-1.441 1.169-2.61 2.61-2.61h44.884c1.441 0 2.61 1.169 2.61 2.61v30.229c0 1.441-1.169 2.61-2.61 2.61z"/><path d="m322.056 346.722h-44.884c-1.442 0-2.61-1.169-2.61-2.61v-30.229c0-1.441 1.168-2.61 2.61-2.61h44.884c1.441 0 2.61 1.169 2.61 2.61v30.229c0 1.441-1.169 2.61-2.61 2.61z"/><path d="m255.702 346.722h-44.884c-1.441 0-2.61-1.169-2.61-2.61v-30.229c0-1.441 1.169-2.61 2.61-2.61h44.884c1.441 0 2.61 1.169 2.61 2.61v30.229c0 1.441-1.169 2.61-2.61 2.61z"/><path d="m189.348 346.722h-44.885c-1.441 0-2.61-1.169-2.61-2.61v-30.229c0-1.441 1.169-2.61 2.61-2.61h44.885c1.441 0 2.61 1.169 2.61 2.61v30.229c0 1.441-1.169 2.61-2.61 2.61z"/><path d="m122.994 346.722h-44.885c-1.441 0-2.61-1.169-2.61-2.61v-30.229c0-1.441 1.169-2.61 2.61-2.61h44.884c1.442 0 2.61 1.169 2.61 2.61v30.229c.001 1.441-1.168 2.61-2.609 2.61z"/><path d="m454.764 346.722h-44.885c-1.441 0-2.61-1.169-2.61-2.61v-30.229c0-1.441 1.169-2.61 2.61-2.61h44.885c1.441 0 2.61 1.169 2.61 2.61v30.229c0 1.441-1.169 2.61-2.61 2.61z"/><path d="m521.118 346.722h-44.884c-1.441 0-2.61-1.169-2.61-2.61v-30.229c0-1.441 1.169-2.61 2.61-2.61h44.884c1.442 0 2.61 1.169 2.61 2.61v30.229c0 1.441-1.169 2.61-2.61 2.61z"/><path d="m587.472 346.722h-44.885c-1.441 0-2.61-1.169-2.61-2.61v-30.229c0-1.441 1.169-2.61 2.61-2.61h44.885c1.441 0 2.61 1.169 2.61 2.61v30.229c0 1.441-1.169 2.61-2.61 2.61z"/><path d="m653.826 346.722h-44.884c-1.441 0-2.61-1.169-2.61-2.61v-30.229c0-1.441 1.169-2.61 2.61-2.61h44.884c1.442 0 2.61 1.169 2.61 2.61v30.229c0 1.441-1.169 2.61-2.61 2.61z"/><path d="m720.18 346.722h-44.885c-1.441 0-2.61-1.169-2.61-2.61v-30.229c0-1.441 1.168-2.61 2.61-2.61h44.885c1.441 0 2.61 1.169 2.61 2.61v30.229c0 1.441-1.169 2.61-2.61 2.61z"/><path d="m421.587 411.174h-44.884c-1.441 0-2.61-1.168-2.61-2.61v-30.229c0-1.441 1.169-2.61 2.61-2.61h44.884c1.441 0 2.61 1.168 2.61 2.61v30.229c0 1.442-1.169 2.61-2.61 2.61z"/><path d="m355.233 411.174h-44.884c-1.442 0-2.61-1.168-2.61-2.61v-30.229c0-1.441 1.169-2.61 2.61-2.61h44.884c1.441 0 2.61 1.168 2.61 2.61v30.229c0 1.442-1.169 2.61-2.61 2.61z"/><path d="m288.879 411.174h-44.885c-1.441 0-2.61-1.168-2.61-2.61v-30.229c0-1.441 1.169-2.61 2.61-2.61h44.885c1.441 0 2.61 1.168 2.61 2.61v30.229c0 1.442-1.169 2.61-2.61 2.61z"/><path d="m222.525 411.174h-44.885c-1.441 0-2.61-1.168-2.61-2.61v-30.229c0-1.441 1.169-2.61 2.61-2.61h44.885c1.441 0 2.61 1.168 2.61 2.61v30.229c0 1.442-1.169 2.61-2.61 2.61z"/><path d="m156.171 411.174h-44.884c-1.441 0-2.61-1.168-2.61-2.61v-30.229c0-1.441 1.169-2.61 2.61-2.61h44.884c1.442 0 2.61 1.168 2.61 2.61v30.229c0 1.442-1.169 2.61-2.61 2.61z"/><path d="m487.941 411.174h-44.884c-1.441 0-2.61-1.168-2.61-2.61v-30.229c0-1.441 1.169-2.61 2.61-2.61h44.884c1.441 0 2.61 1.168 2.61 2.61v30.229c0 1.442-1.169 2.61-2.61 2.61z"/><path d="m554.295 411.174h-44.885c-1.441 0-2.61-1.168-2.61-2.61v-30.229c0-1.441 1.168-2.61 2.61-2.61h44.884c1.442 0 2.61 1.168 2.61 2.61v30.229c.001 1.442-1.168 2.61-2.609 2.61z"/><path d="m620.649 411.174h-44.884c-1.441 0-2.61-1.168-2.61-2.61v-30.229c0-1.441 1.168-2.61 2.61-2.61h44.884c1.442 0 2.61 1.168 2.61 2.61v30.229c0 1.442-1.169 2.61-2.61 2.61z"/><path d="m720.18 411.174h-78.062c-1.441 0-2.61-1.168-2.61-2.61v-30.229c0-1.441 1.168-2.61 2.61-2.61h78.062c1.441 0 2.61 1.168 2.61 2.61v30.229c0 1.442-1.169 2.61-2.61 2.61z"/><path d="m90.077 411.174h-61.343c-1.441 0-2.61-1.168-2.61-2.61v-30.229c0-1.441 1.169-2.61 2.61-2.61h61.343c1.441 0 2.61 1.168 2.61 2.61v30.229c0 1.442-1.169 2.61-2.61 2.61z"/></g><path d="m727.01 151.448c10.128 0 20.026 2.9 24.013 15.733v-.072c-3.066-16.113-13.885-18.415-24.013-18.415-5.524 0-697.472 0-702.997 0-10.128 0-20.947 2.302-24.013 18.415v.072c3.987-12.833 13.885-15.733 24.013-15.733z" fill="#181221"/><path d="m727.01 149.212c10.128 0 20.026 2.9 24.013 15.733v-.072c-3.066-16.113-13.885-18.415-24.013-18.415-5.524 0-697.472 0-702.997 0-10.128 0-20.947 2.302-24.013 18.415v.072c3.987-12.833 13.885-15.733 24.013-15.733z" fill="#3a3742"/><path d="m727.01 146.458c10.128 0 20.947 2.302 24.013 18.415 0-16.228-1.225-32.457-24.013-32.457-19.336 0-683.661 0-702.997 0-22.788 0-24.013 16.228-24.013 32.457 3.066-16.113 13.885-18.415 24.013-18.415z" fill="#181221"/><path d="m11.497 463.435c-12.42 0-11.481-1.63-11.481-7.078 0 0 1.746 1.765 11.682 1.765s717.69 0 727.627 0c9.936 0 11.682-1.765 11.682-1.765 0 5.448.94 7.078-11.481 7.078-9.907 0-718.121 0-728.029 0z" fill="#181221"/><path d="m11.497 465.672c-12.42 0-11.481-1.63-11.481-7.078 0 0 1.746 1.765 11.682 1.765s717.69 0 727.627 0c9.936 0 11.682-1.765 11.682-1.765 0 5.448.94 7.078-11.481 7.078-9.907 0-718.121 0-728.029 0z" fill="#3a3742"/><path d="m56.734 64.539c.594-.174 1.111-.427 1.553-.76.441-.332.787-.741 1.038-1.226.25-.485.376-1.043.376-1.675 0-.643-.117-1.177-.351-1.602s-.545-.779-.932-1.062-.833-.509-1.34-.678-1.032-.313-1.577-.433c-.48-.109-.902-.207-1.267-.294s-.673-.188-.923-.302c-.251-.114-.441-.248-.572-.401-.131-.152-.196-.348-.196-.588 0-.381.174-.687.523-.915.349-.229.812-.343 1.389-.343.61 0 1.095.131 1.455.392.359.261.577.632.654 1.111h2.729c-.044-.599-.191-1.125-.441-1.577-.251-.452-.583-.831-.997-1.136s-.905-.534-1.471-.686c-.567-.153-1.182-.229-1.847-.229-.676 0-1.302.073-1.88.221-.578.147-1.079.371-1.504.67-.425.3-.757.678-.997 1.136s-.36 1.002-.36 1.634.112 1.152.335 1.561.531.746.923 1.013.85.482 1.373.646c.523.163 1.079.31 1.667.441.436.098.828.194 1.177.286.349.093.643.199.883.319s.422.267.547.441.188.392.188.654c0 .251-.057.466-.172.646-.114.18-.27.327-.466.441s-.42.199-.67.253c-.251.055-.512.082-.785.082-.785 0-1.392-.153-1.822-.458-.431-.305-.684-.79-.76-1.455h-2.811c.022.654.161 1.24.417 1.757.256.518.618.951 1.087 1.299.468.349 1.03.616 1.683.801.654.185 1.389.278 2.206.278.699 0 1.344-.087 1.938-.262z" fill="#d3c5c5"/><path d="m61.122 67.399h2.566v-2.076c0-.468-.008-.861-.025-1.177-.016-.316-.035-.556-.057-.719h.033c.25.425.597.757 1.038.997.441.239.951.359 1.528.359s1.103-.109 1.577-.327.877-.526 1.209-.924.588-.882.768-1.454.27-1.212.27-1.92c0-.665-.087-1.277-.261-1.839-.175-.561-.423-1.046-.744-1.455s-.714-.727-1.177-.956-.983-.343-1.561-.343c-1.177 0-2.059.496-2.648 1.487h-.048v-1.242h-2.468zm2.991-5.319c-.338-.474-.507-1.087-.507-1.839 0-.37.041-.714.123-1.03s.204-.594.368-.833c.163-.239.368-.428.613-.564s.531-.204.858-.204c.632 0 1.1.243 1.406.727.305.485.458 1.12.458 1.904s-.158 1.405-.474 1.863-.768.686-1.357.686c-.654.001-1.15-.236-1.488-.71z" fill="#d3c5c5"/><path d="m77.025 64.564c.458-.136.858-.327 1.201-.572s.632-.534.866-.866.406-.689.515-1.07h-2.484c-.142.272-.341.482-.597.629s-.586.221-.989.221c-.621 0-1.106-.185-1.455-.556-.349-.37-.567-.883-.654-1.536h6.341c.011-.861-.098-1.645-.327-2.354-.229-.708-.588-1.302-1.079-1.781-.382-.349-.82-.621-1.316-.817s-1.054-.294-1.675-.294c-.665 0-1.269.117-1.814.351s-1.013.558-1.406.972c-.392.414-.697.902-.915 1.463s-.327 1.169-.327 1.822c0 .654.106 1.259.319 1.814.212.556.517 1.041.915 1.455s.88.738 1.446.972 1.204.351 1.912.351c.558 0 1.065-.068 1.523-.204zm-.409-6.668c.316.343.496.82.539 1.43h-3.71c.087-.599.283-1.073.588-1.422.305-.348.752-.523 1.34-.523.513 0 .927.172 1.243.515z" fill="#d3c5c5"/><path d="m86.871 64.515c.496-.18.918-.427 1.267-.744.349-.316.624-.689.825-1.119.202-.43.313-.891.335-1.381h-2.468c-.055.501-.221.888-.498 1.16-.278.272-.657.409-1.136.409-.654 0-1.141-.245-1.463-.735-.321-.49-.482-1.133-.482-1.929 0-.817.161-1.471.482-1.961s.809-.735 1.463-.735c.425 0 .768.117 1.03.351.261.235.436.553.523.956h2.484c-.076-.468-.224-.902-.441-1.299-.218-.398-.499-.738-.842-1.021s-.749-.504-1.218-.662-.992-.237-1.569-.237c-.687 0-1.307.117-1.863.351s-1.03.558-1.422.972-.695.902-.907 1.463c-.213.561-.319 1.169-.319 1.822 0 .654.109 1.261.327 1.822s.525 1.049.923 1.463.877.738 1.438.972 1.19.351 1.888.351c.6.001 1.147-.089 1.643-.269z" fill="#d3c5c5"/><path d="m89.985 57.446h1.307v4.87c0 .447.066.815.196 1.103.131.289.316.523.556.703s.526.305.858.376.7.106 1.103.106c.349 0 .648-.016.899-.049s.447-.06.588-.082v-1.912h-.131c-.087.011-.185.019-.294.025s-.207.008-.294.008c-.305 0-.542-.057-.711-.171s-.253-.335-.253-.662v-4.315h1.7v-1.634h-1.7v-2.778h-2.517v2.778h-1.307z" fill="#d3c5c5"/><path d="m99.317 55.812h-2.468v8.695h2.566v-4.037c0-.85.21-1.49.629-1.92s.978-.64 1.675-.629c.174 0 .354.016.539.049h.065v-2.24c-.098-.043-.278-.065-.539-.065-.545 0-1.013.131-1.406.392-.392.262-.73.697-1.013 1.307h-.049v-1.552z" fill="#d3c5c5"/><path d="m111.64 64.507v-8.695h-2.533v4.919c0 .545-.147.992-.441 1.34-.294.349-.703.523-1.226.523-.458 0-.804-.131-1.038-.392-.234-.262-.351-.637-.351-1.128v-5.263h-2.566v5.753c0 .959.261 1.73.785 2.313.523.583 1.28.874 2.272.874.599 0 1.106-.12 1.52-.359.414-.24.779-.616 1.095-1.128h.049v1.242h2.434z" fill="#d3c5c5"/><path d="m113.339 64.507h2.566v-4.952c0-.556.136-1.008.409-1.356.272-.349.637-.523 1.095-.523.425 0 .744.134.956.4.213.267.319.64.319 1.12v5.312h2.566v-4.952c0-.556.133-1.008.4-1.356.267-.349.629-.523 1.087-.523.414 0 .733.134.956.4.223.267.335.64.335 1.12v5.312h2.55v-5.739c0-.97-.245-1.746-.735-2.329s-1.22-.874-2.19-.874c-.556 0-1.065.128-1.528.384s-.874.678-1.234 1.267h-.033c-.447-1.1-1.242-1.651-2.386-1.651-.621 0-1.142.136-1.561.409-.42.272-.771.67-1.054 1.193h-.049v-1.356h-2.468v8.694z" fill="#d3c5c5"/><path d="m21.072 64.507h10.019v-2.387h-4.053c-.251 0-.531.006-.842.016-.311.011-.608.022-.891.033-.327.022-.654.038-.981.049v-.049l.801-.801c.229-.229.468-.479.719-.752.251-.272.479-.534.687-.785l4.331-5.295v-2.19h-9.349v2.354h3.498c.239 0 .507-.003.801-.008s.572-.014.834-.024c.305-.011.615-.027.932-.049v.049c-.251.24-.496.485-.735.736-.207.218-.425.449-.654.695-.229.245-.436.477-.621.695l-4.494 5.459v2.254z" fill="#d3c5c5"/><path d="m32.3 64.507h3.171l1.259-2.141c.141-.24.286-.504.433-.793s.28-.558.4-.809c.142-.294.278-.588.409-.883h.033c.131.294.262.588.392.883.12.251.248.52.384.809s.275.553.417.793l1.226 2.141h3.302l-4.053-6.374 3.677-5.786h-3.04l-.997 1.651c-.142.24-.286.499-.433.776-.147.278-.281.542-.401.793-.142.283-.278.578-.408.882h-.033c-.142-.305-.278-.599-.409-.882-.12-.25-.251-.515-.392-.793-.142-.278-.283-.536-.425-.776l-.981-1.651h-3.187l3.743 5.802z" fill="#d3c5c5"/><path d="m183.582 4.185h9.133v34.242h-9.133z" fill="#5b585b"/><path d="m197.281 13.318v6.844h31.96v2.283h-31.96v15.982h41.092v-25.109zm9.127 15.976h22.832v2.283h-22.832z" fill="#5b585b"/><path d="m242.939 13.318h9.127v25.109h-9.127z" fill="#5b585b"/><path d="m242.939 4.185h9.127v6.849h-9.127z" fill="#5b585b"/><path d="m256.633 13.318v25.109h9.133v-18.266h36.525v-6.844h-45.658z" fill="#5b585b"/><path d="m133.357 13.318v25.109h45.658v-6.85h-36.525v-11.416h36.526v-6.844h-45.659z" fill="#5b585b"/><path d="m83.132 13.318v25.109h9.133v-18.266h27.393v18.265h9.133v-25.108z" fill="#5b585b"/><path d="m69.433 13.318h9.133v25.109h-9.133z" fill="#5b585b"/><path d="m69.433 4.185h9.133v6.849h-9.133z" fill="#5b585b"/><path d="m19.214 13.318v15.976h36.526v2.283h-36.526v6.85h45.658v-15.982h-36.531v-2.283h36.531v-6.844z" fill="#5b585b"/><path d="m185.818 6.421h9.133v34.242h-9.133z" fill="#181221"/><path d="m199.517 15.554v6.844h31.96v2.283h-31.96v15.982h41.092v-25.109zm9.127 15.976h22.832v2.283h-22.832z" fill="#181221"/><path d="m245.176 15.554h9.127v25.109h-9.127z" fill="#181221"/><path d="m245.176 6.421h9.127v6.85h-9.127z" fill="#181221"/><path d="m258.869 15.554v25.109h9.133v-18.265h36.525v-6.844z" fill="#181221"/><path d="m135.593 15.554v25.109h45.658v-6.85h-36.526v-11.415h36.526v-6.844z" fill="#181221"/><path d="m85.368 15.554v25.109h9.133v-18.265h27.393v18.266h9.133v-25.11z" fill="#181221"/><path d="m71.669 15.554h9.133v25.109h-9.133z" fill="#181221"/><path d="m71.669 6.421h9.133v6.85h-9.133z" fill="#181221"/><path d="m21.45 15.554v15.976h36.526v2.283h-36.526v6.85h45.658v-15.982h-36.531v-2.283h36.531v-6.844z" fill="#181221"/><path d="m184.7 5.303h9.133v34.242h-9.133z" fill="#3a3742"/><path d="m198.399 14.436v6.844h31.959v2.283h-31.959v15.982h41.092v-25.109zm9.127 15.976h22.832v2.283h-22.832z" fill="#3a3742"/><path d="m244.057 14.436h9.127v25.109h-9.127z" fill="#3a3742"/><path d="m244.057 5.303h9.127v6.85h-9.127z" fill="#3a3742"/><path d="m257.751 14.436v25.109h9.133v-18.266h36.525v-6.844h-45.658z" fill="#3a3742"/><path d="m134.475 14.436v25.109h45.658v-6.85h-36.525v-11.416h36.525v-6.844h-45.658z" fill="#3a3742"/><path d="m84.25 14.436v25.109h9.133v-18.266h27.393v18.266h9.133v-25.109z" fill="#3a3742"/><path d="m70.551 14.436h9.133v25.109h-9.133z" fill="#3a3742"/><path d="m70.551 5.303h9.133v6.85h-9.133z" fill="#3a3742"/><path d="m20.332 14.436v15.976h36.526v2.283h-36.526v6.85h45.658v-15.982h-36.531v-2.283h36.531v-6.844z" fill="#3a3742"/></svg>