<svg enable-background="new 0 0 1231.747 465.672" viewBox="0 0 1231.747 465.672" xmlns="http://www.w3.org/2000/svg"><path d="m739.527 465.672c12.421 0 11.481-1.63 11.481-7.078 0-3.453 0-450.933 0-450.933 0-5.998-10.819-7.66-22.961-7.66h-705.069c-12.143-.001-22.962 1.71-22.962 7.659v450.933c0 5.448-.94 7.078 11.481 7.078 9.908.001 718.122.001 728.03.001z" fill="#3a3742"/><path d="m652.384 458.698-10.94-.073c16.25-36.13 89.585-199.165 95.617-212.419 7.578-16.65 11.499-27.904 13.946-45.986v24.398c-2.447 18.082-6.368 29.336-13.946 45.986-5.867 12.892-56.039 124.421-84.677 188.094" fill="#f05953"/><path d="m663.405 458.843-11.017-.143c29.08-64.643 80.334-178.561 84.674-188.096 7.578-16.65 11.499-27.904 13.946-45.986v24.647c-2.447 18.083-6.368 29.336-13.946 45.986-5.17 11.359-44.732 99.288-73.657 163.592" fill="#fded0f"/><path d="m674.441 458.908-11.198.296c28.939-64.336 68.64-152.573 73.819-163.953 7.578-16.651 11.499-27.904 13.946-45.987l.016 24.478c-2.446 18.153-6.367 29.42-13.962 46.107-4.536 9.967-35.548 78.878-62.621 139.059" fill="#79c043"/><path d="m674.441 458.908c27.073-60.181 58.085-129.093 62.621-139.058 7.595-16.687 11.516-27.954 13.962-46.107v24.59c-2.446 18.153-6.367 29.42-13.962 46.107-3.933 8.642-27.773 61.604-51.691 114.764z" fill="#6cc1ec"/><g fill="#b3bbb9"><path d="m339.149 217.816h-44.884c-1.441 0-2.61-1.169-2.61-2.61v-30.229c0-1.441 1.169-2.61 2.61-2.61h44.884c1.442 0 2.61 1.169 2.61 2.61v30.229c0 1.442-1.168 2.61-2.61 2.61z"/><path d="m272.795 217.816h-44.884c-1.442 0-2.61-1.169-2.61-2.61v-30.229c0-1.441 1.168-2.61 2.61-2.61h44.884c1.441 0 2.61 1.169 2.61 2.61v30.229c0 1.442-1.168 2.61-2.61 2.61z"/><path d="m206.441 217.816h-44.884c-1.441 0-2.61-1.169-2.61-2.61v-30.229c0-1.441 1.169-2.61 2.61-2.61h44.884c1.442 0 2.61 1.169 2.61 2.61v30.229c0 1.442-1.168 2.61-2.61 2.61z"/><path d="m140.087 217.816h-44.884c-1.442 0-2.61-1.169-2.61-2.61v-30.229c0-1.441 1.168-2.61 2.61-2.61h44.884c1.441 0 2.61 1.169 2.61 2.61v30.229c0 1.442-1.168 2.61-2.61 2.61z"/><path d="m73.733 217.816h-44.884c-1.441 0-2.61-1.169-2.61-2.61v-30.229c0-1.441 1.169-2.61 2.61-2.61h44.884c1.442 0 2.61 1.169 2.61 2.61v30.229c0 1.442-1.168 2.61-2.61 2.61z"/><path d="m405.503 217.816h-44.884c-1.441 0-2.61-1.169-2.61-2.61v-30.229c0-1.441 1.169-2.61 2.61-2.61h44.884c1.441 0 2.61 1.169 2.61 2.61v30.229c.001 1.442-1.168 2.61-2.61 2.61z"/><path d="m471.858 217.816h-44.885c-1.441 0-2.61-1.169-2.61-2.61v-30.229c0-1.441 1.169-2.61 2.61-2.61h44.885c1.441 0 2.61 1.169 2.61 2.61v30.229c-.001 1.442-1.169 2.61-2.61 2.61z"/><path d="m538.212 217.816h-44.885c-1.441 0-2.61-1.169-2.61-2.61v-30.229c0-1.441 1.168-2.61 2.61-2.61h44.885c1.441 0 2.61 1.169 2.61 2.61v30.229c0 1.442-1.169 2.61-2.61 2.61z"/><path d="m604.566 217.816h-44.885c-1.441 0-2.61-1.169-2.61-2.61v-30.229c0-1.441 1.169-2.61 2.61-2.61h44.885c1.441 0 2.61 1.169 2.61 2.61v30.229c-.001 1.442-1.169 2.61-2.61 2.61z"/><path d="m670.919 217.816h-44.884c-1.441 0-2.61-1.169-2.61-2.61v-30.229c0-1.441 1.169-2.61 2.61-2.61h44.884c1.442 0 2.61 1.169 2.61 2.61v30.229c.001 1.442-1.168 2.61-2.61 2.61z"/><path d="m371.836 282.039h-44.884c-1.442 0-2.61-1.169-2.61-2.61v-30.229c0-1.441 1.169-2.61 2.61-2.61h44.884c1.441 0 2.61 1.168 2.61 2.61v30.229c0 1.441-1.168 2.61-2.61 2.61z"/><path d="m305.482 282.039h-44.884c-1.441 0-2.61-1.169-2.61-2.61v-30.229c0-1.441 1.169-2.61 2.61-2.61h44.884c1.442 0 2.61 1.168 2.61 2.61v30.229c0 1.441-1.168 2.61-2.61 2.61z"/><path d="m239.128 282.039h-44.884c-1.441 0-2.61-1.169-2.61-2.61v-30.229c0-1.441 1.169-2.61 2.61-2.61h44.884c1.442 0 2.61 1.168 2.61 2.61v30.229c0 1.441-1.168 2.61-2.61 2.61z"/><path d="m172.774 282.039h-44.884c-1.441 0-2.61-1.169-2.61-2.61v-30.229c0-1.441 1.169-2.61 2.61-2.61h44.884c1.441 0 2.61 1.168 2.61 2.61v30.229c0 1.441-1.168 2.61-2.61 2.61z"/><path d="m106.42 282.039h-44.884c-1.441 0-2.61-1.169-2.61-2.61v-30.229c0-1.441 1.169-2.61 2.61-2.61h44.884c1.442 0 2.61 1.168 2.61 2.61v30.229c0 1.441-1.168 2.61-2.61 2.61z"/><path d="m438.19 282.039h-44.884c-1.441 0-2.61-1.169-2.61-2.61v-30.229c0-1.441 1.169-2.61 2.61-2.61h44.884c1.442 0 2.61 1.168 2.61 2.61v30.229c0 1.441-1.168 2.61-2.61 2.61z"/><path d="m504.544 282.039h-44.884c-1.442 0-2.61-1.169-2.61-2.61v-30.229c0-1.441 1.168-2.61 2.61-2.61h44.884c1.441 0 2.61 1.168 2.61 2.61v30.229c0 1.441-1.168 2.61-2.61 2.61z"/><path d="m570.898 282.039h-44.884c-1.441 0-2.61-1.169-2.61-2.61v-30.229c0-1.441 1.169-2.61 2.61-2.61h44.884c1.441 0 2.61 1.168 2.61 2.61v30.229c0 1.441-1.168 2.61-2.61 2.61z"/><path d="m637.252 282.039h-44.884c-1.441 0-2.61-1.169-2.61-2.61v-30.229c0-1.441 1.169-2.61 2.61-2.61h44.884c1.442 0 2.61 1.168 2.61 2.61v30.229c0 1.441-1.168 2.61-2.61 2.61z"/><path d="m703.606 282.039h-44.884c-1.441 0-2.61-1.169-2.61-2.61v-30.229c0-1.441 1.169-2.61 2.61-2.61h44.884c1.442 0 2.61 1.168 2.61 2.61v30.229c0 1.441-1.168 2.61-2.61 2.61z"/><path d="m388.41 346.722h-44.884c-1.441 0-2.61-1.169-2.61-2.61v-30.229c0-1.441 1.169-2.61 2.61-2.61h44.884c1.441 0 2.61 1.169 2.61 2.61v30.229c0 1.441-1.169 2.61-2.61 2.61z"/><path d="m322.056 346.722h-44.884c-1.442 0-2.61-1.169-2.61-2.61v-30.229c0-1.441 1.168-2.61 2.61-2.61h44.884c1.441 0 2.61 1.169 2.61 2.61v30.229c0 1.441-1.169 2.61-2.61 2.61z"/><path d="m255.702 346.722h-44.884c-1.441 0-2.61-1.169-2.61-2.61v-30.229c0-1.441 1.169-2.61 2.61-2.61h44.884c1.441 0 2.61 1.169 2.61 2.61v30.229c0 1.441-1.169 2.61-2.61 2.61z"/><path d="m189.348 346.722h-44.885c-1.441 0-2.61-1.169-2.61-2.61v-30.229c0-1.441 1.169-2.61 2.61-2.61h44.885c1.441 0 2.61 1.169 2.61 2.61v30.229c0 1.441-1.169 2.61-2.61 2.61z"/><path d="m122.994 346.722h-44.885c-1.441 0-2.61-1.169-2.61-2.61v-30.229c0-1.441 1.169-2.61 2.61-2.61h44.884c1.442 0 2.61 1.169 2.61 2.61v30.229c.001 1.441-1.168 2.61-2.609 2.61z"/><path d="m454.764 346.722h-44.885c-1.441 0-2.61-1.169-2.61-2.61v-30.229c0-1.441 1.169-2.61 2.61-2.61h44.885c1.441 0 2.61 1.169 2.61 2.61v30.229c0 1.441-1.169 2.61-2.61 2.61z"/><path d="m521.118 346.722h-44.884c-1.441 0-2.61-1.169-2.61-2.61v-30.229c0-1.441 1.169-2.61 2.61-2.61h44.884c1.442 0 2.61 1.169 2.61 2.61v30.229c0 1.441-1.169 2.61-2.61 2.61z"/><path d="m587.472 346.722h-44.885c-1.441 0-2.61-1.169-2.61-2.61v-30.229c0-1.441 1.169-2.61 2.61-2.61h44.885c1.441 0 2.61 1.169 2.61 2.61v30.229c0 1.441-1.169 2.61-2.61 2.61z"/><path d="m653.826 346.722h-44.884c-1.441 0-2.61-1.169-2.61-2.61v-30.229c0-1.441 1.169-2.61 2.61-2.61h44.884c1.442 0 2.61 1.169 2.61 2.61v30.229c0 1.441-1.169 2.61-2.61 2.61z"/><path d="m720.18 346.722h-44.885c-1.441 0-2.61-1.169-2.61-2.61v-30.229c0-1.441 1.168-2.61 2.61-2.61h44.885c1.441 0 2.61 1.169 2.61 2.61v30.229c0 1.441-1.169 2.61-2.61 2.61z"/><path d="m421.587 411.174h-44.884c-1.441 0-2.61-1.168-2.61-2.61v-30.229c0-1.441 1.169-2.61 2.61-2.61h44.884c1.441 0 2.61 1.168 2.61 2.61v30.229c0 1.442-1.169 2.61-2.61 2.61z"/><path d="m355.233 411.174h-44.884c-1.442 0-2.61-1.168-2.61-2.61v-30.229c0-1.441 1.169-2.61 2.61-2.61h44.884c1.441 0 2.61 1.168 2.61 2.61v30.229c0 1.442-1.169 2.61-2.61 2.61z"/><path d="m288.879 411.174h-44.885c-1.441 0-2.61-1.168-2.61-2.61v-30.229c0-1.441 1.169-2.61 2.61-2.61h44.885c1.441 0 2.61 1.168 2.61 2.61v30.229c0 1.442-1.169 2.61-2.61 2.61z"/><path d="m222.525 411.174h-44.885c-1.441 0-2.61-1.168-2.61-2.61v-30.229c0-1.441 1.169-2.61 2.61-2.61h44.885c1.441 0 2.61 1.168 2.61 2.61v30.229c0 1.442-1.169 2.61-2.61 2.61z"/><path d="m156.171 411.174h-44.884c-1.441 0-2.61-1.168-2.61-2.61v-30.229c0-1.441 1.169-2.61 2.61-2.61h44.884c1.442 0 2.61 1.168 2.61 2.61v30.229c0 1.442-1.169 2.61-2.61 2.61z"/><path d="m487.941 411.174h-44.884c-1.441 0-2.61-1.168-2.61-2.61v-30.229c0-1.441 1.169-2.61 2.61-2.61h44.884c1.441 0 2.61 1.168 2.61 2.61v30.229c0 1.442-1.169 2.61-2.61 2.61z"/><path d="m554.295 411.174h-44.885c-1.441 0-2.61-1.168-2.61-2.61v-30.229c0-1.441 1.168-2.61 2.61-2.61h44.884c1.442 0 2.61 1.168 2.61 2.61v30.229c.001 1.442-1.168 2.61-2.609 2.61z"/><path d="m620.649 411.174h-44.884c-1.441 0-2.61-1.168-2.61-2.61v-30.229c0-1.441 1.168-2.61 2.61-2.61h44.884c1.442 0 2.61 1.168 2.61 2.61v30.229c0 1.442-1.169 2.61-2.61 2.61z"/><path d="m720.18 411.174h-78.062c-1.441 0-2.61-1.168-2.61-2.61v-30.229c0-1.441 1.168-2.61 2.61-2.61h78.062c1.441 0 2.61 1.168 2.61 2.61v30.229c0 1.442-1.169 2.61-2.61 2.61z"/><path d="m90.077 411.174h-61.343c-1.441 0-2.61-1.168-2.61-2.61v-30.229c0-1.441 1.169-2.61 2.61-2.61h61.343c1.441 0 2.61 1.168 2.61 2.61v30.229c0 1.442-1.169 2.61-2.61 2.61z"/></g><path d="m727.01 151.448c10.128 0 20.026 2.9 24.013 15.733v-.072c-3.066-16.113-13.885-18.415-24.013-18.415-5.524 0-697.472 0-702.997 0-10.128 0-20.947 2.302-24.013 18.415v.072c3.987-12.833 13.885-15.733 24.013-15.733z" fill="#181221"/><path d="m727.01 149.212c10.128 0 20.026 2.9 24.013 15.733v-.072c-3.066-16.113-13.885-18.415-24.013-18.415-5.524 0-697.472 0-702.997 0-10.128 0-20.947 2.302-24.013 18.415v.072c3.987-12.833 13.885-15.733 24.013-15.733z" fill="#3a3742"/><path d="m727.01 146.458c10.128 0 20.947 2.302 24.013 18.415 0-16.228-1.225-32.457-24.013-32.457-19.336 0-683.661 0-702.997 0-22.788 0-24.013 16.228-24.013 32.457 3.066-16.113 13.885-18.415 24.013-18.415z" fill="#181221"/><path d="m11.497 463.435c-12.42 0-11.481-1.63-11.481-7.078 0 0 1.746 1.765 11.682 1.765s717.69 0 727.627 0c9.936 0 11.682-1.765 11.682-1.765 0 5.448.94 7.078-11.481 7.078-9.907 0-718.121 0-728.029 0z" fill="#181221"/><path d="m11.497 465.672c-12.42 0-11.481-1.63-11.481-7.078 0 0 1.746 1.765 11.682 1.765s717.69 0 727.627 0c9.936 0 11.682-1.765 11.682-1.765 0 5.448.94 7.078-11.481 7.078-9.907 0-718.121 0-728.029 0z" fill="#3a3742"/><path d="m56.734 64.539c.594-.174 1.111-.427 1.553-.76.441-.332.787-.741 1.038-1.226.25-.485.376-1.043.376-1.675 0-.643-.117-1.177-.351-1.602s-.545-.779-.932-1.062-.833-.509-1.34-.678-1.032-.313-1.577-.433c-.48-.109-.902-.207-1.267-.294s-.673-.188-.923-.302c-.251-.114-.441-.248-.572-.401-.131-.152-.196-.348-.196-.588 0-.381.174-.687.523-.915.349-.229.812-.343 1.389-.343.61 0 1.095.131 1.455.392.359.261.577.632.654 1.111h2.729c-.044-.599-.191-1.125-.441-1.577-.251-.452-.583-.831-.997-1.136s-.905-.534-1.471-.686c-.567-.153-1.182-.229-1.847-.229-.676 0-1.302.073-1.88.221-.578.147-1.079.371-1.504.67-.425.3-.757.678-.997 1.136s-.36 1.002-.36 1.634.112 1.152.335 1.561.531.746.923 1.013.85.482 1.373.646c.523.163 1.079.31 1.667.441.436.098.828.194 1.177.286.349.093.643.199.883.319s.422.267.547.441.188.392.188.654c0 .251-.057.466-.172.646-.114.18-.27.327-.466.441s-.42.199-.67.253c-.251.055-.512.082-.785.082-.785 0-1.392-.153-1.822-.458-.431-.305-.684-.79-.76-1.455h-2.811c.022.654.161 1.24.417 1.757.256.518.618.951 1.087 1.299.468.349 1.03.616 1.683.801.654.185 1.389.278 2.206.278.699 0 1.344-.087 1.938-.262z" fill="#d3c5c5"/><path d="m61.122 67.399h2.566v-2.076c0-.468-.008-.861-.025-1.177-.016-.316-.035-.556-.057-.719h.033c.25.425.597.757 1.038.997.441.239.951.359 1.528.359s1.103-.109 1.577-.327.877-.526 1.209-.924.588-.882.768-1.454.27-1.212.27-1.92c0-.665-.087-1.277-.261-1.839-.175-.561-.423-1.046-.744-1.455s-.714-.727-1.177-.956-.983-.343-1.561-.343c-1.177 0-2.059.496-2.648 1.487h-.048v-1.242h-2.468zm2.991-5.319c-.338-.474-.507-1.087-.507-1.839 0-.37.041-.714.123-1.03s.204-.594.368-.833c.163-.239.368-.428.613-.564s.531-.204.858-.204c.632 0 1.1.243 1.406.727.305.485.458 1.12.458 1.904s-.158 1.405-.474 1.863-.768.686-1.357.686c-.654.001-1.15-.236-1.488-.71z" fill="#d3c5c5"/><path d="m77.025 64.564c.458-.136.858-.327 1.201-.572s.632-.534.866-.866.406-.689.515-1.07h-2.484c-.142.272-.341.482-.597.629s-.586.221-.989.221c-.621 0-1.106-.185-1.455-.556-.349-.37-.567-.883-.654-1.536h6.341c.011-.861-.098-1.645-.327-2.354-.229-.708-.588-1.302-1.079-1.781-.382-.349-.82-.621-1.316-.817s-1.054-.294-1.675-.294c-.665 0-1.269.117-1.814.351s-1.013.558-1.406.972c-.392.414-.697.902-.915 1.463s-.327 1.169-.327 1.822c0 .654.106 1.259.319 1.814.212.556.517 1.041.915 1.455s.88.738 1.446.972 1.204.351 1.912.351c.558 0 1.065-.068 1.523-.204zm-.409-6.668c.316.343.496.82.539 1.43h-3.71c.087-.599.283-1.073.588-1.422.305-.348.752-.523 1.34-.523.513 0 .927.172 1.243.515z" fill="#d3c5c5"/><path d="m86.871 64.515c.496-.18.918-.427 1.267-.744.349-.316.624-.689.825-1.119.202-.43.313-.891.335-1.381h-2.468c-.055.501-.221.888-.498 1.16-.278.272-.657.409-1.136.409-.654 0-1.141-.245-1.463-.735-.321-.49-.482-1.133-.482-1.929 0-.817.161-1.471.482-1.961s.809-.735 1.463-.735c.425 0 .768.117 1.03.351.261.235.436.553.523.956h2.484c-.076-.468-.224-.902-.441-1.299-.218-.398-.499-.738-.842-1.021s-.749-.504-1.218-.662-.992-.237-1.569-.237c-.687 0-1.307.117-1.863.351s-1.03.558-1.422.972-.695.902-.907 1.463c-.213.561-.319 1.169-.319 1.822 0 .654.109 1.261.327 1.822s.525 1.049.923 1.463.877.738 1.438.972 1.19.351 1.888.351c.6.001 1.147-.089 1.643-.269z" fill="#d3c5c5"/><path d="m89.985 57.446h1.307v4.87c0 .447.066.815.196 1.103.131.289.316.523.556.703s.526.305.858.376.7.106 1.103.106c.349 0 .648-.016.899-.049s.447-.06.588-.082v-1.912h-.131c-.087.011-.185.019-.294.025s-.207.008-.294.008c-.305 0-.542-.057-.711-.171s-.253-.335-.253-.662v-4.315h1.7v-1.634h-1.7v-2.778h-2.517v2.778h-1.307z" fill="#d3c5c5"/><path d="m99.317 55.812h-2.468v8.695h2.566v-4.037c0-.85.21-1.49.629-1.92s.978-.64 1.675-.629c.174 0 .354.016.539.049h.065v-2.24c-.098-.043-.278-.065-.539-.065-.545 0-1.013.131-1.406.392-.392.262-.73.697-1.013 1.307h-.049v-1.552z" fill="#d3c5c5"/><path d="m111.64 64.507v-8.695h-2.533v4.919c0 .545-.147.992-.441 1.34-.294.349-.703.523-1.226.523-.458 0-.804-.131-1.038-.392-.234-.262-.351-.637-.351-1.128v-5.263h-2.566v5.753c0 .959.261 1.73.785 2.313.523.583 1.28.874 2.272.874.599 0 1.106-.12 1.52-.359.414-.24.779-.616 1.095-1.128h.049v1.242h2.434z" fill="#d3c5c5"/><path d="m113.339 64.507h2.566v-4.952c0-.556.136-1.008.409-1.356.272-.349.637-.523 1.095-.523.425 0 .744.134.956.4.213.267.319.64.319 1.12v5.312h2.566v-4.952c0-.556.133-1.008.4-1.356.267-.349.629-.523 1.087-.523.414 0 .733.134.956.4.223.267.335.64.335 1.12v5.312h2.55v-5.739c0-.97-.245-1.746-.735-2.329s-1.22-.874-2.19-.874c-.556 0-1.065.128-1.528.384s-.874.678-1.234 1.267h-.033c-.447-1.1-1.242-1.651-2.386-1.651-.621 0-1.142.136-1.561.409-.42.272-.771.67-1.054 1.193h-.049v-1.356h-2.468v8.694z" fill="#d3c5c5"/><path d="m21.072 64.507h10.019v-2.387h-4.053c-.251 0-.531.006-.842.016-.311.011-.608.022-.891.033-.327.022-.654.038-.981.049v-.049l.801-.801c.229-.229.468-.479.719-.752.251-.272.479-.534.687-.785l4.331-5.295v-2.19h-9.349v2.354h3.498c.239 0 .507-.003.801-.008s.572-.014.834-.024c.305-.011.615-.027.932-.049v.049c-.251.24-.496.485-.735.736-.207.218-.425.449-.654.695-.229.245-.436.477-.621.695l-4.494 5.459v2.254z" fill="#d3c5c5"/><path d="m32.3 64.507h3.171l1.259-2.141c.141-.24.286-.504.433-.793s.28-.558.4-.809c.142-.294.278-.588.409-.883h.033c.131.294.262.588.392.883.12.251.248.52.384.809s.275.553.417.793l1.226 2.141h3.302l-4.053-6.374 3.677-5.786h-3.04l-.997 1.651c-.142.24-.286.499-.433.776-.147.278-.281.542-.401.793-.142.283-.278.578-.408.882h-.033c-.142-.305-.278-.599-.409-.882-.12-.25-.251-.515-.392-.793-.142-.278-.283-.536-.425-.776l-.981-1.651h-3.187l3.743 5.802z" fill="#d3c5c5"/><path d="m183.582 4.185h9.133v34.242h-9.133z" fill="#5b585b"/><path d="m197.281 13.318v6.844h31.96v2.283h-31.96v15.982h41.092v-25.109zm9.127 15.976h22.832v2.283h-22.832z" fill="#5b585b"/><path d="m242.939 13.318h9.127v25.109h-9.127z" fill="#5b585b"/><path d="m242.939 4.185h9.127v6.849h-9.127z" fill="#5b585b"/><path d="m256.633 13.318v25.109h9.133v-18.266h36.525v-6.844h-45.658z" fill="#5b585b"/><path d="m133.357 13.318v25.109h45.658v-6.85h-36.525v-11.416h36.526v-6.844h-45.659z" fill="#5b585b"/><path d="m83.132 13.318v25.109h9.133v-18.266h27.393v18.265h9.133v-25.108z" fill="#5b585b"/><path d="m69.433 13.318h9.133v25.109h-9.133z" fill="#5b585b"/><path d="m69.433 4.185h9.133v6.849h-9.133z" fill="#5b585b"/><path d="m19.214 13.318v15.976h36.526v2.283h-36.526v6.85h45.658v-15.982h-36.531v-2.283h36.531v-6.844z" fill="#5b585b"/><path d="m185.818 6.421h9.133v34.242h-9.133z" fill="#181221"/><path d="m199.517 15.554v6.844h31.96v2.283h-31.96v15.982h41.092v-25.109zm9.127 15.976h22.832v2.283h-22.832z" fill="#181221"/><path d="m245.176 15.554h9.127v25.109h-9.127z" fill="#181221"/><path d="m245.176 6.421h9.127v6.85h-9.127z" fill="#181221"/><path d="m258.869 15.554v25.109h9.133v-18.265h36.525v-6.844z" fill="#181221"/><path d="m135.593 15.554v25.109h45.658v-6.85h-36.526v-11.415h36.526v-6.844z" fill="#181221"/><path d="m85.368 15.554v25.109h9.133v-18.265h27.393v18.266h9.133v-25.11z" fill="#181221"/><path d="m71.669 15.554h9.133v25.109h-9.133z" fill="#181221"/><path d="m71.669 6.421h9.133v6.85h-9.133z" fill="#181221"/><path d="m21.45 15.554v15.976h36.526v2.283h-36.526v6.85h45.658v-15.982h-36.531v-2.283h36.531v-6.844z" fill="#181221"/><path d="m184.7 5.303h9.133v34.242h-9.133z" fill="#3a3742"/><path d="m198.399 14.436v6.844h31.959v2.283h-31.959v15.982h41.092v-25.109zm9.127 15.976h22.832v2.283h-22.832z" fill="#3a3742"/><path d="m244.057 14.436h9.127v25.109h-9.127z" fill="#3a3742"/><path d="m244.057 5.303h9.127v6.85h-9.127z" fill="#3a3742"/><path d="m257.751 14.436v25.109h9.133v-18.266h36.525v-6.844h-45.658z" fill="#3a3742"/><path d="m134.475 14.436v25.109h45.658v-6.85h-36.525v-11.416h36.525v-6.844h-45.658z" fill="#3a3742"/><path d="m84.25 14.436v25.109h9.133v-18.266h27.393v18.266h9.133v-25.109z" fill="#3a3742"/><path d="m70.551 14.436h9.133v25.109h-9.133z" fill="#3a3742"/><path d="m70.551 5.303h9.133v6.85h-9.133z" fill="#3a3742"/><path d="m20.332 14.436v15.976h36.526v2.283h-36.526v6.85h45.658v-15.982h-36.531v-2.283h36.531v-6.844z" fill="#3a3742"/><path d="m857.533 352.399c-16.574 0-30.011 13.436-30.011 30.011 0 16.574 13.436 30.01 30.011 30.01 16.574 0 30.01-13.436 30.01-30.01 0-16.575-13.436-30.011-30.01-30.011zm0 49.473c-10.749 0-19.463-8.714-19.463-19.463s8.714-19.463 19.463-19.463 19.463 8.714 19.463 19.463-8.715 19.463-19.463 19.463z" fill="#311610"/><path d="m961.314 344.211c-21.096 0-38.198 17.102-38.198 38.198s17.102 38.198 38.198 38.198 38.198-17.102 38.198-38.198-17.101-38.198-38.198-38.198zm.001 57.655c-10.749 0-19.463-8.714-19.463-19.463s8.714-19.463 19.463-19.463 19.463 8.714 19.463 19.463-8.714 19.463-19.463 19.463z" fill="#311610"/><path d="m961.315 368.491c-7.685 0-13.914 6.23-13.914 13.914 0 7.685 6.23 13.914 13.914 13.914 7.685 0 13.914-6.23 13.914-13.914.001-7.685-6.229-13.914-13.914-13.914zm.851 25.516v-2.534h-1.653v2.537c-3.681-.251-6.893-2.211-8.844-5.096l2.199-1.269-.826-1.431-2.198 1.269c-.746-1.535-1.165-3.258-1.165-5.079 0-1.835.426-3.57 1.182-5.113l2.173 1.254.826-1.431-2.169-1.252c1.95-2.863 5.145-4.808 8.806-5.063v2.474h1.653v-2.473c3.654.26 6.842 2.203 8.789 5.062l-2.144 1.238.826 1.431 2.148-1.24c.756 1.543 1.182 3.278 1.182 5.112 0 1.81-.413 3.523-1.15 5.051l-2.172-1.254-.826 1.431 2.176 1.256c-1.941 2.889-5.141 4.855-8.813 5.12z" fill="#e4e4e3"/><path d="m857.531 368.491c-7.685 0-13.914 6.23-13.914 13.914 0 7.685 6.23 13.914 13.914 13.914s13.914-6.23 13.914-13.914c0-7.685-6.229-13.914-13.914-13.914zm.803 25.52v-2.537h-1.653v2.534c-3.672-.266-6.872-2.232-8.813-5.118l2.176-1.256-.826-1.431-2.172 1.254c-.737-1.528-1.15-3.241-1.15-5.051 0-1.835.426-3.569 1.182-5.112l2.148 1.24.826-1.431-2.144-1.238c1.947-2.859 5.135-4.803 8.789-5.062v2.473h1.653v-2.476c3.661.254 6.856 2.199 8.806 5.063l-2.169 1.252.826 1.431 2.173-1.254c.756 1.544 1.183 3.278 1.183 5.113 0 1.821-.419 3.544-1.165 5.079l-2.198-1.269-.826 1.431 2.199 1.269c-1.952 2.885-5.164 4.845-8.845 5.096z" fill="#e4e4e3"/><path d="m1029.915 411.02c2.188 2.25 2.875 3 2.875 3s.375.25.313 1.313c-.063 1.063 0 34.943 0 36.006s-.313 1.063-.625 1.438c-.313.375-2.563 3-2.563 3z" fill="#181221"/><path d="m788.931 411.02c-2.188 2.25-2.875 3-2.875 3s-.375.25-.313 1.313 0 34.943 0 36.006.313 1.063.625 1.438c.313.375 2.563 3 2.563 3z" fill="#181221"/><path d="m1026.291 313.683h-233.836c-2.442 0-4.44 1.998-4.44 4.44v143.108c0 2.442 1.998 4.44 4.44 4.44h233.836c2.442 0 4.441-1.998 4.441-4.44v-143.108c0-2.442-1.998-4.44-4.441-4.44zm-175.585 148.746c-2.904 0-5.259-2.355-5.259-5.259s2.355-5.259 5.259-5.259 5.259 2.355 5.259 5.259c0 2.905-2.355 5.259-5.259 5.259zm6.825-66.821c-7.292 0-13.203-5.911-13.203-13.203s5.911-13.203 13.203-13.203 13.203 5.911 13.203 13.203c.001 7.292-5.911 13.203-13.203 13.203zm22.603 60.443c0 1.047-.856 1.903-1.903 1.903h-5.817c-1.047 0-1.903-.856-1.903-1.903v-5.257c0-1.047.856-1.903 1.903-1.903h5.817c1.047 0 1.903.856 1.903 1.903zm57.311-62.966c0 .304-.285.554-.634.554h-55.275c-.349 0-.634-.249-.634-.554v-22.586c0-.304.285-.553.634-.553h55.275c.349 0 .634.249.634.553zm10.891 62.966c0 1.047-.856 1.903-1.903 1.903h-5.817c-1.047 0-1.903-.856-1.903-1.903v-5.257c0-1.047.856-1.903 1.903-1.903h5.817c1.047 0 1.903.856 1.903 1.903zm19.805 6.378c-2.904 0-5.259-2.355-5.259-5.259s2.354-5.259 5.259-5.259 5.259 2.355 5.259 5.259c0 2.905-2.355 5.259-5.259 5.259zm-6.826-66.821c-7.292 0-13.203-5.911-13.203-13.203s5.911-13.203 13.203-13.203 13.203 5.911 13.203 13.203c.001 7.292-5.911 13.203-13.203 13.203z" fill="#181221"/><path d="m937.687 369.151h-57.027c-.36 0-.654.266-.654.591v24.101c0 .325.294.591.654.591h57.027c.36 0 .654-.266.654-.591v-24.101c0-.325-.294-.591-.654-.591zm-.242 23.934c0 .304-.285.554-.634.554h-55.275c-.349 0-.634-.249-.634-.554v-22.586c0-.304.285-.553.634-.553h55.275c.349 0 .634.249.634.553z" fill="#3e3845"/><path d="m994.871 465.672c-1.52-6.919-6.605-31.174-7.149-33.565-.559-2.462-1.566-4.476-4.7-4.476-3.133 0-144.066 0-147.199 0s-4.14 2.014-4.7 4.476c-.544 2.392-5.629 26.646-7.149 33.565h2.33c1.839-8.475 6.039-28.341 6.731-31.653.773-3.702 1.566-4.476 4.699-4.476h143.375c3.133 0 3.926.773 4.699 4.476.692 3.312 4.892 23.177 6.731 31.653z" fill="#0f0c12"/><path clip-rule="evenodd" d="m1015.294 334.975c-.208-.239-7.694-8.051-8.015-8.396-.225-.242-.591-.248-.591-.248h-194.529s-.366.006-.591.248c-.321.345-7.808 8.157-8.015 8.396-.322.371-.257.605-.257.605v83.703c0 .349.285.634.634.634h210.986c.349 0 .634-.285.634-.634v-83.703c.001 0 .066-.234-.256-.605zm-53.979 63.495c-8.873 0-94.912 0-103.784 0-8.873 0-16.065-7.193-16.065-16.065s7.193-16.065 16.065-16.065h103.784c8.872 0 16.065 7.193 16.065 16.065.001 8.872-7.192 16.065-16.065 16.065z" fill="#d4d1d1" fill-rule="evenodd"/><path d="m910.729 326.331h93.728v31.306h-93.728z" fill="#060809"/><path d="m964.447 331.917h2.657v9.964h-2.657z" fill="#d4d1d1"/><path d="m968.433 334.574v1.991h9.299v.664h-9.299v4.65h11.957v-7.306h-11.957zm2.656 4.649h6.644v.664h-6.644z" fill="#d4d1d1"/><path d="m981.718 334.574h2.656v7.306h-2.656z" fill="#d4d1d1"/><path d="m981.718 331.917h2.656v1.993h-2.656z" fill="#d4d1d1"/><path d="m985.703 334.574v7.306h2.657v-5.315h10.628v-1.991z" fill="#d4d1d1"/><path d="m949.833 334.574v7.306h13.285v-1.993h-10.628v-3.322h10.628v-1.991z" fill="#d4d1d1"/><path d="m935.219 334.574v7.306h2.657v-5.315h7.971v5.315h2.657v-7.306z" fill="#d4d1d1"/><path d="m931.233 334.574h2.657v7.306h-2.657z" fill="#d4d1d1"/><path d="m931.233 331.917h2.657v1.993h-2.657z" fill="#d4d1d1"/><path d="m916.62 334.574v4.649h10.628v.664h-10.628v1.993h13.285v-4.65h-10.63v-.664h10.63v-1.991h-13.285z" fill="#d4d1d1"/><path d="m934.683 350.632c.301-.088.564-.217.788-.385s.399-.376.526-.622.191-.529.191-.85c0-.326-.059-.597-.178-.812-.119-.216-.276-.395-.473-.539-.196-.144-.423-.258-.68-.344s-.524-.159-.8-.22c-.243-.055-.457-.105-.642-.149s-.341-.095-.468-.153-.224-.126-.29-.203-.099-.177-.099-.298c0-.193.088-.348.265-.464s.412-.174.705-.174c.309 0 .555.066.738.199.182.133.293.321.332.564h1.384c-.022-.304-.097-.571-.224-.8s-.296-.421-.506-.576-.459-.271-.746-.348-.6-.116-.937-.116c-.343 0-.661.037-.953.112-.293.075-.547.188-.763.34s-.384.344-.506.576-.182.508-.182.829.057.584.17.792c.113.207.269.379.468.514s.431.245.696.327c.265.083.547.158.846.224.221.05.42.098.597.145s.326.101.448.162c.121.061.214.135.278.224.063.088.095.199.095.332 0 .127-.029.236-.087.327s-.137.166-.236.224-.213.101-.34.129-.26.041-.398.041c-.398 0-.706-.077-.924-.232s-.347-.401-.385-.738h-1.426c.011.332.081.629.211.891.13.263.314.482.551.659.238.177.522.312.854.406s.705.141 1.119.141c.352-.002.68-.046.981-.135z" fill="#d4d1d1"/><path d="m936.909 352.083h1.301v-1.053c0-.238-.004-.437-.012-.597s-.018-.282-.029-.365h.017c.127.216.303.384.526.506.224.121.482.182.775.182s.56-.055.8-.166c.24-.11.445-.267.613-.468.169-.202.299-.448.39-.738s.137-.615.137-.974c0-.337-.044-.648-.133-.933s-.214-.531-.377-.738-.362-.369-.597-.485-.499-.174-.792-.174c-.597 0-1.044.251-1.343.754h-.025v-.63h-1.252v5.879zm1.517-2.698c-.171-.24-.257-.551-.257-.933 0-.188.021-.362.062-.522.042-.16.104-.301.187-.423.083-.121.186-.217.311-.286.124-.069.269-.104.435-.104.32 0 .558.123.713.369s.232.568.232.966-.08.713-.24.945-.39.348-.688.348c-.333 0-.584-.12-.755-.36z" fill="#d4d1d1"/><path d="m944.974 350.645c.232-.069.435-.166.609-.29s.32-.271.439-.439c.119-.169.206-.349.261-.543h-1.26c-.072.138-.173.245-.303.319-.13.075-.297.112-.501.112-.315 0-.561-.094-.738-.282s-.287-.448-.332-.779h3.216c.005-.436-.05-.834-.166-1.194-.116-.359-.298-.66-.547-.904-.193-.177-.416-.315-.667-.414-.252-.099-.535-.149-.85-.149-.337 0-.644.059-.92.178s-.514.283-.713.493-.354.457-.464.742c-.111.285-.166.593-.166.924s.054.638.162.92.262.528.464.738.446.374.734.493c.287.119.611.178.97.178.283 0 .54-.034.772-.103zm-.207-3.383c.16.174.251.416.273.725h-1.882c.044-.304.144-.544.298-.721.155-.177.381-.265.68-.265.261 0 .471.087.631.261z" fill="#d4d1d1"/><path d="m949.969 350.62c.251-.091.466-.217.643-.377s.316-.349.419-.568c.102-.218.159-.452.17-.701h-1.252c-.028.254-.112.451-.253.589s-.333.207-.576.207c-.332 0-.579-.124-.742-.373s-.245-.575-.245-.978c0-.415.081-.746.245-.995.163-.249.41-.373.742-.373.216 0 .39.059.522.178.133.119.221.281.265.485h1.26c-.039-.238-.113-.457-.224-.659s-.253-.374-.427-.518-.38-.256-.618-.336-.503-.12-.796-.12c-.348 0-.663.059-.945.178s-.522.283-.721.493-.352.457-.46.742-.162.593-.162.924.055.64.166.924c.11.285.267.532.468.742.202.21.445.374.73.493s.604.178.957.178c.304.002.582-.044.834-.135z" fill="#d4d1d1"/><path d="m951.548 347.035h.663v2.47c0 .227.033.413.099.56.066.146.16.265.282.356.121.091.267.155.435.191s.355.054.56.054c.177 0 .329-.008.456-.025s.227-.03.298-.042v-.97h-.066c-.044.006-.094.01-.149.012-.055.003-.105.004-.149.004-.155 0-.275-.029-.361-.087s-.128-.17-.128-.336v-2.188h.862v-.829h-.862v-1.409h-1.277v1.409h-.663z" fill="#d4d1d1"/><path d="m956.281 346.206h-1.252v4.41h1.302v-2.048c0-.431.106-.756.319-.974s.496-.325.85-.319c.088 0 .18.008.273.025h.033v-1.136c-.05-.022-.141-.033-.274-.033-.276 0-.514.066-.713.199s-.37.354-.514.663h-.025v-.787z" fill="#d4d1d1"/><path d="m962.531 350.616v-4.41h-1.285v2.495c0 .276-.075.503-.224.68s-.356.265-.622.265c-.232 0-.408-.066-.526-.199-.119-.133-.178-.323-.178-.572v-2.669h-1.302v2.918c0 .486.133.877.398 1.173s.649.443 1.152.443c.304 0 .561-.061.771-.182s.395-.312.555-.572h.025v.63z" fill="#d4d1d1"/><path d="m963.393 350.616h1.301v-2.512c0-.282.069-.511.207-.688s.323-.265.555-.265c.216 0 .377.068.485.203s.162.325.162.568v2.694h1.302v-2.512c0-.282.068-.511.203-.688s.319-.265.551-.265c.21 0 .372.068.485.203s.17.325.17.568v2.694h1.293v-2.91c0-.492-.124-.886-.373-1.181-.249-.296-.619-.443-1.111-.443-.282 0-.54.065-.775.195s-.443.344-.626.642h-.017c-.227-.558-.63-.837-1.21-.837-.315 0-.579.069-.792.207s-.391.34-.535.605h-.025v-.688h-1.252v4.41z" fill="#d4d1d1"/><path d="m916.595 350.616h5.082v-1.21h-2.056c-.127 0-.269.003-.427.008-.158.006-.308.011-.452.017-.166.011-.332.019-.497.025v-.025l.406-.406c.116-.116.237-.243.365-.381.127-.138.243-.271.348-.398l2.197-2.686v-1.111h-4.742v1.194h1.774c.121 0 .257-.001.406-.004s.29-.007.423-.012c.155-.005.312-.014.473-.025v.025c-.127.122-.251.246-.373.373-.105.111-.216.228-.332.352s-.221.242-.315.352l-2.28 2.769z" fill="#d4d1d1"/><path d="m922.29 350.616h1.608l.638-1.086c.072-.121.145-.256.22-.402s.142-.283.203-.41c.072-.149.141-.298.207-.448h.017c.066.149.133.298.199.448.061.127.126.264.195.41s.139.281.211.402l.622 1.086h1.674l-2.056-3.233 1.865-2.934h-1.542l-.506.837c-.072.122-.145.253-.22.394s-.142.275-.203.402c-.072.144-.141.293-.207.448h-.017c-.072-.155-.141-.304-.207-.448-.061-.127-.127-.261-.199-.402s-.144-.272-.216-.394l-.497-.837h-1.616l1.898 2.943z" fill="#d4d1d1"/><path clip-rule="evenodd" d="m1067.656 465.672c-2.692 0-4.874-2.182-4.874-4.874v-27.979h156.599v27.979c0 2.692-2.182 4.874-4.874 4.874z" fill="#f05953" fill-rule="evenodd"/><path clip-rule="evenodd" d="m1063.024 438.489c-2.692 0-4.874-2.182-4.874-4.874v-21.749h165.865v21.749c0 2.692-2.182 4.874-4.874 4.874z" fill="#bb4243" fill-rule="evenodd"/><path clip-rule="evenodd" d="m1063.024 437.189c-2.692 0-4.874-2.182-4.874-4.874v-21.749h165.865v21.749c0 2.692-2.182 4.874-4.874 4.874z" fill="#f05953" fill-rule="evenodd"/><path clip-rule="evenodd" d="m1057.322 417.873c-3.883 0-6.905-.731-6.905-3.365s0-96.451 0-96.451c0-.897.727-1.625 1.625-1.625h178.08c.897 0 1.625.727 1.625 1.625v96.451c0 2.634-3.022 3.365-6.905 3.365z" fill="#3a3742" fill-rule="evenodd"/><path clip-rule="evenodd" d="m1064.561 381.72c-.359 0-.65-.291-.65-.65v-49.643c0-.359.291-.65.65-.65h153.042c.359 0 .65.291.65.65v49.643c0 .359-.291.65-.65.65z" fill="#4a4a51" fill-rule="evenodd"/><path clip-rule="evenodd" d="m1053.301 392.197c3.242 6.605 9.107 12.25 17.53 12.25h140.501c8.424 0 14.288-5.645 17.53-12.25-7.958 0-173.162 0-175.561 0z" fill="#71707c" fill-rule="evenodd"/><path d="m1097.733 344.416c.446-.131.834-.321 1.165-.57s.591-.556.779-.92.282-.783.282-1.257c0-.482-.088-.883-.264-1.202s-.409-.585-.699-.797c-.29-.213-.626-.382-1.006-.509s-.775-.235-1.183-.325c-.36-.082-.677-.155-.951-.221-.274-.065-.505-.141-.693-.227s-.331-.186-.429-.301c-.098-.114-.147-.262-.147-.442 0-.286.131-.515.392-.687.262-.172.609-.258 1.042-.258.458 0 .822.098 1.092.294s.433.474.491.834h2.048c-.033-.45-.143-.844-.331-1.184-.188-.339-.438-.623-.748-.852-.311-.229-.679-.401-1.104-.515s-.887-.172-1.386-.172c-.507 0-.977.055-1.41.166-.434.11-.81.278-1.128.503-.319.225-.568.509-.748.852s-.27.752-.27 1.226.084.865.251 1.171c.167.307.399.56.693.76s.638.362 1.03.484c.392.123.809.233 1.251.331.327.074.621.145.883.215s.482.149.662.239.317.2.411.331.141.294.141.491c0 .188-.043.35-.129.484-.086.135-.202.245-.349.331s-.315.149-.503.19-.385.061-.589.061c-.589 0-1.045-.114-1.367-.343-.323-.229-.513-.593-.57-1.092h-2.11c.016.491.121.93.313 1.318s.464.713.816.975.773.462 1.263.601c.491.139 1.043.208 1.656.208.523.005 1.007-.06 1.453-.191z" fill="#f05953"/><path d="m1101.026 346.563h1.926v-1.558c0-.352-.006-.646-.018-.883s-.027-.417-.043-.54h.025c.188.319.448.568.779.748s.713.27 1.147.27c.433 0 .828-.082 1.184-.245s.658-.394.907-.693c.249-.298.442-.662.577-1.092.135-.429.202-.91.202-1.441 0-.499-.066-.959-.196-1.38-.131-.421-.317-.785-.558-1.092s-.536-.546-.883-.717c-.348-.172-.738-.258-1.171-.258-.883 0-1.545.372-1.987 1.116h-.037v-.932h-1.852v8.697zm2.245-3.993c-.254-.356-.38-.816-.38-1.38 0-.278.031-.535.092-.773.061-.237.153-.446.276-.626s.276-.321.46-.423.399-.153.644-.153c.474 0 .826.182 1.055.546s.343.84.343 1.429-.119 1.055-.356 1.398-.576.515-1.018.515c-.491.001-.863-.177-1.116-.533z" fill="#f05953"/><path d="m1112.96 344.435c.343-.102.644-.245.901-.429.258-.184.474-.401.65-.65s.305-.517.386-.803h-1.864c-.106.204-.256.362-.448.472s-.44.166-.742.166c-.466 0-.83-.139-1.092-.417s-.425-.662-.491-1.153h4.759c.008-.646-.074-1.235-.245-1.766-.172-.531-.442-.977-.809-1.337-.286-.262-.615-.466-.987-.613s-.791-.221-1.257-.221c-.499 0-.953.088-1.361.264-.409.176-.76.419-1.055.73-.294.311-.523.677-.687 1.098s-.245.877-.245 1.368.08.944.239 1.361.388.781.687 1.092c.298.311.66.554 1.085.73s.903.264 1.435.264c.417-.003.798-.054 1.141-.156zm-.307-5.004c.237.258.372.615.405 1.073h-2.784c.065-.45.213-.805.442-1.067s.564-.392 1.006-.392c.383-.001.694.128.931.386z" fill="#f05953"/><path d="m1120.349 344.398c.372-.135.689-.321.951-.558s.468-.517.619-.84.235-.668.251-1.036h-1.852c-.041.376-.166.667-.374.871-.209.204-.493.307-.853.307-.49 0-.857-.184-1.098-.552s-.362-.85-.362-1.447c0-.613.121-1.104.362-1.472s.607-.552 1.098-.552c.319 0 .577.088.773.264s.327.415.393.717h1.864c-.057-.351-.168-.676-.331-.975-.164-.298-.374-.554-.632-.767-.257-.213-.562-.378-.914-.497-.352-.118-.744-.178-1.177-.178-.515 0-.981.088-1.398.264s-.773.419-1.067.73-.521.677-.681 1.098-.239.877-.239 1.368.082.947.245 1.368.394.787.693 1.098c.298.311.658.554 1.079.73s.893.264 1.417.264c.45-.003.861-.07 1.233-.205z" fill="#f05953"/><path d="m1122.686 339.093h.981v3.655c0 .335.049.611.147.828s.237.392.417.527.394.229.644.282c.249.053.525.08.828.08.262 0 .486-.012.675-.037.188-.025.335-.045.442-.061v-1.435h-.098c-.065.008-.139.014-.221.018s-.155.006-.221.006c-.229 0-.407-.043-.533-.129-.127-.086-.19-.251-.19-.497v-3.238h1.276v-1.226h-1.276v-2.085h-1.889v2.085h-.981v1.227z" fill="#f05953"/><path d="m1129.689 337.867h-1.852v6.525h1.926v-3.029c0-.638.157-1.118.472-1.441s.734-.48 1.257-.472c.131 0 .266.012.405.037h.049v-1.68c-.074-.033-.208-.049-.405-.049-.409 0-.76.098-1.055.294-.294.196-.548.523-.76.981h-.037z" fill="#f05953"/><path d="m1138.937 344.392v-6.525h-1.901v3.692c0 .409-.11.744-.331 1.006s-.527.392-.92.392c-.343 0-.603-.098-.779-.294s-.264-.478-.264-.846v-3.949h-1.926v4.317c0 .72.196 1.298.589 1.736.393.437.961.656 1.705.656.45 0 .83-.09 1.141-.27s.584-.462.822-.846h.037v.932h1.827z" fill="#f05953"/><path d="m1140.212 344.392h1.926v-3.716c0-.417.102-.756.307-1.018.204-.262.478-.393.822-.393.319 0 .558.1.718.301.159.2.239.48.239.84v3.986h1.926v-3.716c0-.417.1-.756.301-1.018.2-.262.472-.393.816-.393.311 0 .55.1.718.301.167.2.251.48.251.84v3.986h1.913v-4.305c0-.728-.184-1.31-.552-1.748-.368-.437-.916-.656-1.644-.656-.417 0-.799.096-1.147.288s-.656.509-.926.951h-.025c-.335-.826-.932-1.239-1.791-1.239-.466 0-.857.102-1.171.307-.315.205-.579.503-.791.895h-.037v-1.018h-1.852v6.525z" fill="#f05953"/><path d="m1073.408 344.392h7.518v-1.791h-3.042c-.188 0-.399.004-.632.012s-.456.017-.668.025c-.245.017-.491.029-.736.037v-.037l.601-.601c.172-.172.351-.36.54-.564.188-.204.36-.401.515-.589l3.25-3.974v-1.643h-7.016v1.766h2.625c.18 0 .38-.002.601-.006s.429-.01.626-.018c.229-.008.462-.02.699-.037v.037c-.188.18-.372.364-.552.552-.156.164-.319.337-.491.521s-.327.358-.466.521l-3.373 4.096v1.693z" fill="#f05953"/><path d="m1081.834 344.392h2.379l.944-1.607c.106-.18.215-.378.325-.595s.21-.419.3-.607c.106-.221.209-.442.307-.662h.025c.098.221.196.442.294.662.09.188.186.391.288.607.102.217.206.415.313.595l.92 1.607h2.477l-3.042-4.783 2.76-4.342h-2.281l-.748 1.239c-.106.18-.215.374-.325.583s-.211.407-.301.595c-.106.213-.208.434-.307.662h-.025c-.106-.229-.208-.45-.307-.662-.09-.188-.188-.386-.294-.595-.106-.208-.213-.403-.319-.583l-.736-1.239h-2.392l2.809 4.354z" fill="#f05953"/></svg>