<svg enable-background="new 0 0 765.363 260.816" viewBox="0 0 765.363 260.816" xmlns="http://www.w3.org/2000/svg"><path d="m123.204 66.438c-28.442 0-51.499 23.057-51.499 51.499s23.057 51.499 51.499 51.499 51.499-23.057 51.499-51.499c-.001-28.443-23.057-51.499-51.499-51.499zm0 84.897c-18.445 0-33.398-14.953-33.398-33.398s14.953-33.398 33.398-33.398 33.398 14.953 33.398 33.398-14.953 33.398-33.398 33.398z" fill="#311610"/><path d="m301.296 52.387c-36.201 0-65.549 29.347-65.549 65.549s29.347 65.549 65.549 65.549 65.549-29.347 65.549-65.549c-.001-36.202-29.348-65.549-65.549-65.549zm0 98.938c-18.445 0-33.398-14.953-33.398-33.398s14.953-33.398 33.398-33.398 33.398 14.953 33.398 33.398-14.952 33.398-33.398 33.398z" fill="#311610"/><path d="m301.297 94.051c-13.187 0-23.877 10.69-23.877 23.877s10.69 23.877 23.877 23.877 23.877-10.69 23.877-23.877-10.69-23.877-23.877-23.877zm1.46 43.787v-4.348h-2.836v4.354c-6.317-.431-11.828-3.794-15.176-8.744l3.773-2.178-1.418-2.456-3.772 2.178c-1.28-2.634-1.999-5.59-1.999-8.715 0-3.149.731-6.126 2.029-8.775l3.728 2.153 1.418-2.456-3.721-2.149c3.347-4.913 8.829-8.251 15.111-8.688v4.245h2.836v-4.243c6.27.445 11.741 3.781 15.083 8.687l-3.68 2.124 1.418 2.456 3.686-2.128c1.297 2.648 2.028 5.625 2.028 8.773 0 3.106-.709 6.046-1.974 8.667l-3.728-2.152-1.418 2.456 3.734 2.156c-3.329 4.953-8.821 8.328-15.122 8.783z" fill="#e4e4e3"/><path d="m123.201 94.051c-13.187 0-23.877 10.69-23.877 23.877s10.69 23.877 23.877 23.877 23.877-10.69 23.877-23.877-10.69-23.877-23.877-23.877zm1.377 43.794v-4.354h-2.836v4.348c-6.301-.456-11.793-3.83-15.124-8.783l3.734-2.156-1.418-2.456-3.727 2.152c-1.265-2.621-1.974-5.562-1.974-8.667 0-3.148.731-6.125 2.028-8.773l3.687 2.129 1.418-2.456-3.68-2.124c3.341-4.906 8.812-8.242 15.083-8.687v4.243h2.836v-4.245c6.282.437 11.765 3.774 15.112 8.688l-3.721 2.149 1.418 2.456 3.729-2.153c1.298 2.649 2.029 5.626 2.029 8.775 0 3.125-.719 6.082-1.999 8.715l-3.772-2.178-1.418 2.456 3.773 2.178c-3.349 4.949-8.861 8.312-15.178 8.743z" fill="#e4e4e3"/><path d="m419.016 167.032c3.754 3.862 4.934 5.149 4.934 5.149s.644.429.536 2.253c-.107 1.824 0 59.963 0 61.787s-.536 1.824-1.073 2.467c-.536.643-4.398 5.149-4.398 5.149v-76.805z" fill="#181221"/><path d="m5.483 167.032c-3.754 3.862-4.934 5.149-4.934 5.149s-.644.429-.536 2.253c.107 1.824 0 59.963 0 61.787s.536 1.824 1.073 2.467c.536.643 4.398 5.149 4.398 5.149v-76.805z" fill="#181221"/><path d="m412.797 0h-401.268c-4.191 0-7.62 3.429-7.62 7.62v245.576c0 4.191 3.429 7.62 7.62 7.62h401.268c4.191 0 7.62-3.429 7.62-7.62v-245.576c0-4.191-3.429-7.62-7.62-7.62zm-301.308 255.252c-4.984 0-9.025-4.04-9.025-9.025 0-4.984 4.041-9.024 9.025-9.024s9.024 4.04 9.024 9.024c0 4.985-4.04 9.025-9.024 9.025zm11.712-114.667c-12.513 0-22.657-10.144-22.657-22.657s10.144-22.657 22.657-22.657 22.657 10.144 22.657 22.657c.001 12.513-10.143 22.657-22.657 22.657zm38.787 103.721c0 1.796-1.47 3.266-3.266 3.266h-9.981c-1.796 0-3.266-1.47-3.266-3.266v-9.021c0-1.796 1.47-3.266 3.266-3.266h9.981c1.796 0 3.266 1.47 3.266 3.266zm98.347-108.05c0 .522-.49.95-1.089.95h-94.852c-.599 0-1.089-.427-1.089-.95v-38.758c0-.522.49-.95 1.089-.95h94.852c.599 0 1.089.428 1.089.95zm18.689 108.05c0 1.796-1.47 3.266-3.266 3.266h-9.981c-1.796 0-3.266-1.47-3.266-3.266v-9.021c0-1.796 1.469-3.266 3.266-3.266h9.981c1.796 0 3.266 1.47 3.266 3.266zm33.986 10.946c-4.984 0-9.024-4.04-9.024-9.025 0-4.984 4.04-9.024 9.024-9.024s9.024 4.04 9.024 9.024c0 4.985-4.04 9.025-9.024 9.025zm-11.713-114.667c-12.513 0-22.657-10.144-22.657-22.657s10.144-22.657 22.657-22.657 22.657 10.144 22.657 22.657-10.144 22.657-22.657 22.657z" fill="#181221"/><path d="m260.75 95.184h-97.859c-.618 0-1.123.456-1.123 1.014v41.358c0 .558.505 1.014 1.123 1.014h97.859c.618 0 1.123-.456 1.123-1.014v-41.358c0-.558-.505-1.014-1.123-1.014zm-.415 41.072c0 .522-.49.95-1.089.95h-94.852c-.599 0-1.089-.427-1.089-.95v-38.758c0-.522.49-.95 1.089-.95h94.852c.599 0 1.089.428 1.089.95z" fill="#3e3845"/><path d="m358.879 260.816c-2.609-11.873-11.335-53.495-12.268-57.599-.96-4.224-2.688-7.68-8.065-7.68-5.376 0-247.22 0-252.596 0s-7.104 3.456-8.064 7.68c-.933 4.104-9.659 45.725-12.268 57.598h3.998c3.155-14.544 10.364-48.633 11.551-54.317 1.327-6.353 2.688-7.68 8.064-7.68h246.034c5.376 0 6.737 1.327 8.064 7.68 1.187 5.684 8.396 39.773 11.551 54.317z" fill="#0f0c12"/><path clip-rule="evenodd" d="m393.926 36.538c-.356-.41-13.203-13.816-13.755-14.408-.386-.414-1.014-.425-1.014-.425h-333.816s-.628.01-1.014.425c-.552.592-13.399 13.998-13.755 14.408-.552.636-.44 1.038-.44 1.038v143.637c0 .599.49 1.089 1.089 1.089h362.057c.599 0 1.089-.49 1.089-1.089v-143.637c-.001 0 .111-.402-.441-1.038zm-92.629 108.958c-15.226 0-162.87 0-178.096 0s-27.568-12.343-27.568-27.568 12.343-27.568 27.568-27.568h178.096c15.225 0 27.568 12.343 27.568 27.568s-12.342 27.568-27.568 27.568z" fill="#d4d1d1" fill-rule="evenodd"/><path d="m214.49 21.705h160.839v53.721h-160.839z" fill="#060809"/><g fill="#d4d1d1"><path d="m306.671 31.289h4.56v17.098h-4.56z"/><path d="m313.511 35.85v3.417h15.958v1.14h-15.958v7.98h20.518v-12.537zm4.558 7.977h11.401v1.14h-11.401z"/><path d="m336.309 35.85h4.557v12.537h-4.557z"/><path d="m336.309 31.289h4.557v3.42h-4.557z"/><path d="m343.147 35.85v12.537h4.56v-9.12h18.238v-3.417z"/><path d="m281.593 35.85v12.537h22.798v-3.42h-18.238v-5.7h18.238v-3.417z"/><path d="m256.515 35.85v12.537h4.56v-9.12h13.678v9.12h4.56v-12.537z"/><path d="m249.675 35.85h4.56v12.537h-4.56z"/><path d="m249.675 31.289h4.56v3.42h-4.56z"/><path d="m224.599 35.85v7.977h18.238v1.14h-18.238v3.42h22.798v-7.98h-18.241v-1.14h18.241v-3.417z"/><path d="m255.595 63.406c.517-.152.967-.372 1.351-.662.384-.289.685-.645.903-1.067s.327-.908.327-1.458c0-.56-.102-1.024-.306-1.394s-.474-.678-.811-.925-.725-.443-1.166-.59-.899-.272-1.373-.377c-.417-.095-.785-.18-1.103-.256s-.586-.164-.804-.263c-.218-.1-.384-.216-.498-.349s-.171-.303-.171-.512c0-.332.152-.597.455-.797.303-.199.706-.299 1.209-.299.531 0 .953.114 1.266.341.313.228.503.55.569.967h2.376c-.038-.521-.166-.979-.384-1.373-.218-.393-.507-.723-.868-.989-.36-.265-.787-.465-1.28-.597-.493-.133-1.029-.199-1.607-.199-.588 0-1.133.064-1.636.192s-.939.323-1.309.583c-.37.261-.659.59-.868.989-.209.398-.313.873-.313 1.422 0 .55.097 1.003.292 1.358.194.356.462.65.804.882.341.233.74.42 1.195.562s.939.27 1.451.384c.379.085.721.169 1.024.249.303.081.559.173.768.277.208.104.367.232.476.384s.164.341.164.569c0 .218-.05.405-.149.562-.1.156-.235.285-.405.384-.171.1-.365.173-.583.221s-.446.071-.683.071c-.683 0-1.212-.133-1.586-.398-.375-.265-.595-.687-.661-1.266h-2.447c.019.569.14 1.079.363 1.529.223.451.538.827.946 1.131s.896.536 1.465.697 1.209.242 1.92.242c.609.002 1.17-.074 1.687-.225z"/><path d="m259.415 65.895h2.233v-1.807c0-.408-.007-.749-.021-1.024s-.031-.484-.05-.626h.028c.218.37.519.659.903.868.384.208.827.313 1.33.313s.96-.095 1.373-.285c.413-.189.763-.457 1.053-.804.289-.346.512-.768.669-1.266.156-.498.235-1.055.235-1.672 0-.578-.076-1.112-.228-1.6s-.368-.91-.647-1.266c-.28-.355-.621-.633-1.024-.832s-.856-.299-1.358-.299c-1.024 0-1.792.432-2.305 1.294h-.043v-1.081h-2.148zm2.603-4.63c-.294-.413-.441-.946-.441-1.6 0-.322.035-.621.107-.896.071-.275.178-.517.32-.725s.32-.372.534-.491c.213-.118.462-.178.747-.178.55 0 .958.211 1.223.633.266.422.398.974.398 1.657s-.138 1.223-.413 1.622c-.275.398-.669.597-1.181.597-.569-.001-1-.207-1.294-.619z"/><path d="m273.256 63.427c.398-.118.747-.285 1.046-.498s.55-.465.754-.754.353-.6.448-.932h-2.162c-.123.237-.297.42-.519.548-.223.128-.51.192-.861.192-.54 0-.963-.161-1.266-.484-.304-.322-.493-.768-.569-1.337h5.519c.009-.749-.085-1.432-.285-2.048-.199-.616-.512-1.133-.939-1.55-.332-.303-.714-.541-1.145-.711-.432-.171-.918-.256-1.458-.256-.579 0-1.105.102-1.579.306s-.882.486-1.223.847-.607.785-.797 1.273-.284 1.017-.284 1.586.092 1.095.277 1.579.45.906.797 1.266c.346.361.766.643 1.259.846.493.204 1.048.306 1.664.306.483-.001.924-.061 1.323-.179zm-.356-5.804c.275.299.431.714.469 1.245h-3.229c.076-.522.246-.934.512-1.238.265-.303.654-.455 1.166-.455.446 0 .807.149 1.082.448z"/><path d="m281.826 63.384c.431-.157.799-.372 1.103-.647.303-.275.543-.6.718-.974.175-.375.272-.775.292-1.202h-2.148c-.047.436-.192.773-.434 1.01s-.572.356-.989.356c-.569 0-.993-.213-1.273-.64s-.42-.986-.42-1.679c0-.711.14-1.28.42-1.707s.704-.64 1.273-.64c.37 0 .669.102.896.306.228.204.379.481.455.832h2.162c-.067-.408-.195-.785-.384-1.131-.19-.346-.434-.642-.733-.889s-.652-.439-1.06-.576-.863-.206-1.366-.206c-.597 0-1.138.102-1.622.306s-.896.486-1.238.847c-.341.361-.605.785-.79 1.273s-.277 1.017-.277 1.586.095 1.098.284 1.586c.19.489.457.913.804 1.273.346.361.763.643 1.252.846.488.204 1.036.306 1.643.306.524-.001 1-.079 1.432-.236z"/><path d="m284.536 57.232h1.138v4.239c0 .389.057.709.171.96s.275.455.484.612c.208.156.457.265.747.327.289.062.609.092.96.092.303 0 .564-.014.782-.043.218-.028.389-.052.512-.071v-1.664h-.114c-.076.01-.161.017-.256.021-.095.005-.18.007-.256.007-.266 0-.472-.05-.619-.149-.147-.1-.22-.292-.22-.576v-3.755h1.479v-1.423h-1.479v-2.418h-2.191v2.418h-1.138z"/><path d="m292.658 55.809h-2.148v7.568h2.233v-3.514c0-.74.182-1.297.548-1.671.365-.375.851-.557 1.458-.548.152 0 .308.014.469.043h.057v-1.949c-.085-.038-.242-.057-.469-.057-.474 0-.882.114-1.223.341-.341.228-.635.607-.882 1.138h-.043z"/><path d="m303.384 63.377v-7.568h-2.205v4.282c0 .474-.128.863-.384 1.166-.256.304-.612.455-1.067.455-.398 0-.7-.114-.903-.341-.204-.228-.306-.555-.306-.981v-4.581h-2.233v5.007c0 .835.228 1.506.683 2.013s1.114.761 1.977.761c.521 0 .962-.104 1.323-.313.36-.208.678-.536.953-.981h.043v1.081z"/><path d="m304.863 63.377h2.233v-4.31c0-.484.119-.877.356-1.181.237-.303.555-.455.953-.455.37 0 .647.116.832.348.185.233.277.557.277.975v4.623h2.233v-4.31c0-.484.116-.877.349-1.181.232-.303.548-.455.946-.455.36 0 .638.116.832.348.194.233.292.557.292.975v4.623h2.219v-4.993c0-.844-.213-1.52-.64-2.027s-1.062-.761-1.906-.761c-.484 0-.927.111-1.33.334s-.761.59-1.074 1.102h-.028c-.389-.958-1.081-1.437-2.077-1.437-.541 0-.994.119-1.359.356s-.671.583-.918 1.038h-.043v-1.181h-2.148v7.569z"/><path d="m224.556 63.377h8.72v-2.077h-3.528c-.218 0-.462.005-.733.014-.27.01-.529.019-.775.028-.285.019-.569.033-.854.043v-.043l.697-.697c.199-.199.408-.417.626-.654s.417-.465.598-.683l3.77-4.609v-1.906h-8.137v2.048h3.044c.208 0 .441-.002.697-.007s.498-.012.725-.021c.266-.009.536-.023.811-.043v.043c-.218.209-.432.422-.64.64-.18.19-.37.391-.569.605-.199.213-.379.415-.54.605l-3.912 4.751z"/><path d="m234.328 63.377h2.76l1.095-1.864c.123-.208.249-.438.377-.69.128-.251.244-.486.348-.704.123-.256.242-.512.356-.768h.028c.114.256.228.512.341.768.104.218.216.453.334.704s.239.481.363.69l1.067 1.864h2.874l-3.528-5.548 3.201-5.036h-2.646l-.868 1.437c-.123.209-.249.434-.377.676s-.244.472-.349.69c-.123.247-.242.503-.356.768h-.028c-.123-.265-.242-.521-.356-.768-.104-.218-.218-.448-.341-.69-.124-.242-.247-.467-.37-.676l-.854-1.437h-2.774l3.258 5.05z"/></g><path clip-rule="evenodd" d="m483.781 260.816c-4.619 0-8.364-3.745-8.364-8.364v-48.012h268.727v48.012c0 4.619-3.745 8.364-8.364 8.364z" fill="#f05953" fill-rule="evenodd"/><path clip-rule="evenodd" d="m475.831 214.169c-4.619 0-8.364-3.745-8.364-8.364v-37.322h284.627v37.322c0 4.619-3.745 8.364-8.364 8.364z" fill="#bb4243" fill-rule="evenodd"/><path clip-rule="evenodd" d="m475.831 211.939c-4.619 0-8.364-3.745-8.364-8.364v-37.322h284.627v37.322c0 4.619-3.745 8.364-8.364 8.364z" fill="#f05953" fill-rule="evenodd"/><path clip-rule="evenodd" d="m466.047 178.793c-6.663 0-11.849-1.254-11.849-5.774 0-4.521 0-165.512 0-165.512 0-1.54 1.248-2.788 2.788-2.788h305.589c1.54 0 2.788 1.248 2.788 2.788v165.512c0 4.521-5.186 5.774-11.849 5.774z" fill="#3a3742" fill-rule="evenodd"/><path clip-rule="evenodd" d="m478.469 116.753c-.616 0-1.115-.499-1.115-1.115v-85.19c0-.616.499-1.115 1.115-1.115h262.623c.616 0 1.115.499 1.115 1.115v85.189c0 .616-.499 1.115-1.115 1.115h-262.623z" fill="#4a4a51" fill-rule="evenodd"/><path clip-rule="evenodd" d="m459.147 134.731c5.564 11.334 15.627 21.021 30.082 21.021h241.102c14.455 0 24.519-9.687 30.083-21.021-13.658 0-297.151 0-301.267 0z" fill="#71707c" fill-rule="evenodd"/><path d="m535.393 52.739c.765-.224 1.431-.55 1.999-.979.568-.428 1.013-.954 1.336-1.578s.484-1.344.484-2.157c0-.828-.151-1.515-.453-2.063-.302-.547-.702-1.003-1.2-1.368s-1.073-.656-1.726-.874c-.653-.217-1.33-.403-2.031-.558-.618-.14-1.161-.266-1.631-.379-.47-.112-.866-.242-1.189-.389s-.568-.319-.737-.516c-.168-.196-.252-.449-.252-.758 0-.491.224-.884.673-1.179s1.045-.442 1.789-.442c.786 0 1.41.168 1.873.505s.744.814.842 1.431h3.515c-.056-.771-.246-1.449-.568-2.031-.323-.582-.751-1.07-1.284-1.463s-1.165-.687-1.894-.884c-.73-.196-1.523-.295-2.378-.295-.87 0-1.677.095-2.42.284-.744.189-1.389.477-1.936.863s-.975.874-1.284 1.463-.463 1.291-.463 2.105.144 1.484.432 2.01c.287.526.684.961 1.189 1.305s1.094.621 1.768.831c.673.21 1.389.4 2.147.568.561.126 1.066.249 1.515.368s.828.256 1.137.41c.308.155.544.344.705.568.161.225.242.505.242.842 0 .323-.074.6-.221.831s-.347.421-.6.568-.54.256-.863.326-.66.105-1.01.105c-1.01 0-1.793-.196-2.347-.589-.555-.393-.881-1.017-.979-1.873h-3.62c.028.842.207 1.596.537 2.263.329.667.796 1.224 1.4 1.673.603.449 1.326.793 2.168 1.031s1.789.358 2.841.358c.898.004 1.729-.109 2.494-.333z" fill="#f05953"/><path d="m541.044 56.422h3.304v-2.673c0-.604-.01-1.108-.031-1.515s-.046-.716-.074-.926h.042c.323.547.768.975 1.336 1.284s1.224.463 1.968.463 1.421-.14 2.031-.421c.61-.28 1.129-.677 1.557-1.189s.758-1.137.989-1.873c.232-.737.347-1.561.347-2.473 0-.856-.112-1.645-.337-2.368-.225-.722-.544-1.347-.958-1.873s-.919-.937-1.516-1.231c-.597-.295-1.266-.442-2.01-.442-1.516 0-2.652.639-3.41 1.915h-.063v-1.6h-3.178v14.922zm3.852-6.851c-.435-.61-.653-1.4-.653-2.368 0-.477.053-.919.158-1.326s.263-.765.474-1.073.474-.55.789-.726c.316-.175.684-.263 1.105-.263.814 0 1.417.312 1.81.937s.589 1.442.589 2.452-.204 1.81-.61 2.399c-.407.589-.989.884-1.747.884-.842 0-1.481-.305-1.915-.916z" fill="#f05953"/><path d="m561.522 52.771c.589-.175 1.105-.421 1.547-.737s.814-.687 1.115-1.115c.302-.428.523-.887.663-1.379h-3.199c-.182.351-.439.621-.768.81-.33.19-.754.284-1.273.284-.8 0-1.424-.238-1.873-.716-.449-.477-.73-1.137-.842-1.978h8.166c.014-1.108-.126-2.118-.421-3.031-.295-.912-.758-1.677-1.389-2.294-.491-.449-1.056-.8-1.694-1.052-.639-.253-1.358-.379-2.157-.379-.856 0-1.635.151-2.336.452-.702.302-1.305.719-1.81 1.252s-.898 1.161-1.179 1.884-.421 1.505-.421 2.347.137 1.621.41 2.336c.274.716.666 1.34 1.179 1.873.512.534 1.133.951 1.863 1.252.729.302 1.55.452 2.463.452.715.002 1.367-.086 1.956-.261zm-.526-8.588c.407.442.638 1.056.695 1.842h-4.778c.112-.772.365-1.382.758-1.831s.968-.674 1.726-.674c.659 0 1.192.221 1.599.663z" fill="#f05953"/><path d="m574.203 52.707c.638-.231 1.182-.55 1.631-.958.449-.407.803-.887 1.063-1.442.26-.554.403-1.147.432-1.778h-3.178c-.07.646-.284 1.144-.642 1.494-.358.351-.846.526-1.463.526-.842 0-1.47-.316-1.884-.947s-.621-1.459-.621-2.484c0-1.052.207-1.894.621-2.526.414-.631 1.042-.947 1.884-.947.547 0 .989.151 1.326.452.337.302.561.712.674 1.231h3.199c-.098-.603-.288-1.161-.568-1.673-.281-.512-.642-.95-1.084-1.315s-.965-.649-1.568-.852-1.277-.305-2.021-.305c-.884 0-1.684.151-2.399.452-.716.302-1.326.719-1.831 1.252s-.894 1.161-1.168 1.884-.411 1.505-.411 2.347.14 1.624.421 2.347.677 1.351 1.189 1.884 1.129.951 1.852 1.252c.722.302 1.533.452 2.431.452.771.002 1.476-.114 2.115-.346z" fill="#f05953"/><path d="m578.212 43.604h1.684v6.272c0 .576.084 1.049.253 1.421.168.372.407.673.716.905.308.231.677.393 1.105.484s.901.137 1.421.137c.449 0 .835-.021 1.158-.063s.575-.077.758-.105v-2.463h-.168c-.112.014-.239.025-.379.032s-.267.01-.379.01c-.393 0-.698-.074-.915-.221-.218-.147-.326-.432-.326-.852v-5.556h2.189v-2.105h-2.189v-3.578h-3.241v3.578h-1.684v2.104z" fill="#f05953"/><path d="m590.23 41.5h-3.178v11.197h3.304v-5.199c0-1.094.27-1.919.81-2.473s1.259-.824 2.157-.81c.224 0 .456.021.695.063h.084v-2.883c-.126-.056-.358-.084-.695-.084-.702 0-1.305.168-1.81.505s-.94.898-1.305 1.684h-.063v-2z" fill="#f05953"/><path d="m606.099 52.697v-11.197h-3.262v6.335c0 .702-.19 1.277-.568 1.726-.379.449-.905.674-1.578.674-.589 0-1.035-.168-1.336-.505-.302-.337-.453-.821-.453-1.452v-6.778h-3.304v7.408c0 1.235.337 2.228 1.01 2.978.673.751 1.649 1.126 2.926 1.126.771 0 1.424-.155 1.957-.463s1.003-.792 1.41-1.452h.063v1.6z" fill="#f05953"/><path d="m608.288 52.697h3.304v-6.377c0-.716.175-1.298.526-1.747s.821-.674 1.41-.674c.547 0 .958.172 1.231.516.274.344.411.824.411 1.442v6.84h3.304v-6.377c0-.716.172-1.298.516-1.747s.81-.674 1.4-.674c.533 0 .943.172 1.231.516.287.344.432.824.432 1.442v6.84h3.283v-7.388c0-1.249-.316-2.248-.947-2.999-.631-.75-1.572-1.126-2.82-1.126-.716 0-1.372.165-1.968.495s-1.126.873-1.589 1.631h-.042c-.576-1.417-1.6-2.126-3.073-2.126-.8 0-1.47.176-2.01.526-.54.351-.993.863-1.358 1.536h-.063v-1.746h-3.178z" fill="#f05953"/><path d="m493.65 52.697h12.902v-3.073h-5.22c-.323 0-.684.007-1.084.021s-.782.028-1.147.042c-.421.028-.842.049-1.263.063v-.063l1.031-1.031c.295-.295.603-.617.926-.968s.617-.687.884-1.01l5.577-6.819v-2.82h-12.039v3.031h4.504c.308 0 .652-.003 1.031-.01s.737-.017 1.073-.032c.393-.014.793-.035 1.2-.063v.063c-.323.309-.639.624-.947.947-.267.281-.547.579-.842.895s-.561.614-.8.895l-5.788 7.03v2.902z" fill="#f05953"/><path d="m508.109 52.697h4.083l1.621-2.757c.182-.309.368-.649.558-1.021.189-.372.361-.719.516-1.042.182-.379.358-.758.526-1.137h.042c.168.379.337.758.505 1.137.154.323.319.67.494 1.042s.354.712.537 1.021l1.579 2.757h4.251l-5.22-8.208 4.736-7.451h-3.915l-1.284 2.126c-.182.309-.368.642-.558 1-.189.358-.361.698-.516 1.021-.183.365-.358.744-.526 1.136h-.042c-.182-.393-.358-.771-.526-1.136-.154-.323-.323-.663-.505-1.021-.183-.358-.365-.691-.547-1l-1.263-2.126h-4.104l4.82 7.472z" fill="#f05953"/></svg>