<svg enable-background="new 0 0 400 62.064" viewBox="0 0 400 62.064" xmlns="http://www.w3.org/2000/svg"><path d="m.399 36.931v-5.457h42.732v-6.228h-42.732l-.268-16.807h48.549v5.443h-42.733l.269 5.922h42.731v17.128h-48.548zm52.064 0v-28.385h5.817v28.385zm8.939 0v-28.385h48.549v28.385h-5.817v-22.943h-36.916v22.945zm51.654 0v-28.385h48.585v5.443h-42.731v17.485h42.731v5.46h-48.585zm52.455 0v-36.931h5.818v36.932h-5.818zm60.968 0v-28.385h5.853v28.385zm9.368 0v-28.385h48.547v5.443h-42.731v22.945h-5.817v-.003zm-61.414-28.385v5.443h42.731v6.226h-42.731v16.717h48.585v-28.386zm42.731 22.928h-36.88v-6.228h36.88zm-164.701-26.014v-5.46h5.817v5.46zm174.016 0v-5.46h5.853v5.46zm-226.479 51.14 6.835-8.175h-6.299v-2.354h10.029v2.213l-6.835 8.175h7.014v2.355h-10.744zm15.512-4.462-4.106-6.068h3.248l2.499 4.07 2.588-4.07h3.07l-4.087 6.085 4.444 6.658h-3.337l-2.785-4.408-2.838 4.408h-3.16zm15.654 2.447c0 1.695 1.32 2.355 2.819 2.355.983 0 2.483-.285 2.483-1.589 0-1.374-1.91-1.605-3.784-2.105-1.892-.5-3.802-1.231-3.802-3.624 0-2.606 2.463-3.854 4.765-3.854 2.659 0 5.105 1.159 5.105 4.105h-2.712c-.089-1.535-1.178-1.926-2.516-1.926-.893 0-1.928.375-1.928 1.446 0 .983.607 1.106 3.802 1.927.928.232 3.783.821 3.783 3.712 0 2.338-1.838 4.087-5.301 4.087-2.82 0-5.462-1.393-5.426-4.532zm9.406-4.998h2.41v1.178h.037c.605-.981 1.605-1.427 2.748-1.427 2.892 0 4.194 2.338 4.194 4.961 0 2.464-1.356 4.765-4.051 4.765-1.107 0-2.16-.483-2.766-1.392h-.036v4.392h-2.535c-.001 0-.001-12.477-.001-12.477zm6.854 4.64c0-1.463-.589-2.981-2.214-2.981-1.66 0-2.194 1.482-2.194 2.981s.571 2.927 2.213 2.927c1.659 0 2.195-1.427 2.195-2.927zm6.141.588c.071 1.607.857 2.338 2.266 2.338 1.017 0 1.838-.624 1.999-1.195h2.23c-.714 2.177-2.23 3.104-4.319 3.104-2.91 0-4.712-1.998-4.712-4.855 0-2.767 1.911-4.873 4.712-4.873 3.14 0 4.659 2.643 4.48 5.48zm4.122-1.605c-.231-1.286-.785-1.962-2.016-1.962-1.607 0-2.071 1.248-2.106 1.962zm10.317-.375c-.162-1.035-.821-1.588-1.875-1.588-1.624 0-2.16 1.641-2.16 2.997 0 1.322.517 2.909 2.106 2.909 1.178 0 1.856-.749 2.016-1.872h2.444c-.321 2.444-2.016 3.782-4.444 3.782-2.784 0-4.659-1.962-4.659-4.729 0-2.873 1.713-4.998 4.712-4.998 2.179 0 4.177 1.142 4.337 3.5zm7.177-3.248h1.856v1.695h-1.856v4.569c0 .857.214 1.072 1.07 1.072.268 0 .518-.018.785-.073v1.98c-.428.073-.981.091-1.481.091-1.553 0-2.909-.358-2.909-2.196v-5.443h-1.536v-1.696h1.536v-2.767h2.534v2.768zm3.069 0h2.409v1.715h.036c.464-1.161 1.714-1.964 2.946-1.964.179 0 .392.035.553.091v2.354c-.233-.053-.606-.089-.91-.089-1.856 0-2.499 1.338-2.499 2.961v4.159h-2.534zm15.6 9.227h-2.41v-1.285h-.054c-.643 1.035-1.749 1.535-2.82 1.535-2.695 0-3.374-1.516-3.374-3.801v-5.676h2.536v5.212c0 1.516.446 2.267 1.623 2.267 1.375 0 1.964-.768 1.964-2.642v-4.837h2.534c0 .001.001 9.227.001 9.227zm1.999-9.227h2.393v1.25h.035c.661-.948 1.624-1.501 2.82-1.501 1.161 0 2.195.428 2.695 1.537.536-.805 1.499-1.537 2.784-1.537 1.964 0 3.374.909 3.374 3.303v6.175h-2.535v-5.23c0-1.23-.106-2.249-1.552-2.249-1.428 0-1.696 1.178-1.696 2.338v5.141h-2.534v-5.175c0-1.072.071-2.303-1.536-2.303-.5 0-1.713.321-1.713 2.124v5.354h-2.534v-9.227z"/><path d="m303.359 1.533-42.406 42.412h24.135l42.407-42.412" fill="#ca2825"/><path d="m327.55 1.533-42.408 42.412h24.136l42.407-42.412" fill="#fdc601"/><path d="m351.72 1.533-42.406 42.412h24.135l42.407-42.412" fill="#009c37"/><path d="m375.865 1.533-42.407 42.412h24.136l42.406-42.412" fill="#02559c"/></svg>