<svg xmlns="http://www.w3.org/2000/svg" viewBox="0 0 142.323 229.583"><path d="M134.731 168.144c4.175 0 7.591 3.417 7.591 7.592v12.369c0 4.175-3.416 7.591-7.591 7.591M134.592 32.692c4.176 0 7.592 3.416 7.592 7.591v12.369c0 4.175-3.416 7.592-7.592 7.592" fill="#666"/><path d="M114.719 66.344c10.445-1.616 15.667-2.363 19.522-3.109 3.854-.746 5.844-7.336 5.844-16.724s-1.99-15.978-5.844-16.724c-3.855-.747-9.077-1.492-19.522-3.109" fill="#d1d2d4"/><path d="M118.127 56.865c0-1.46-1.184-2.615-2.646-2.615H47.962a2.595 2.595 0 0 0-2.616 2.615v115.842c0 1.46 1.154 2.646 2.616 2.646h67.519a2.647 2.647 0 0 0 2.646-2.646v-50.233a1.499 1.499 0 0 1-.713-1.277v-13.615c0-.536.287-.989.713-1.248V56.865z" fill="#b2b2b2"/><path d="M114.212 60.652v108.279a.402.402 0 0 1-.396.408H49.464a.402.402 0 0 1-.396-.408V60.652c0-.226.177-.409.396-.409h64.352c.219 0 .396.183.396.409z" fill="#d1d2d4"/><path d="M98.805 11.508C70.206 6.286 39.614 2.881 26.189.318 5.131-3.7-12.57 31.49 11.765 44.832c18.475 10.13 42.028 21.636 42.028 21.636l45.012-54.96z" fill="#d1d2d4"/><path d="M56.034 57.863a25.518 25.518 0 0 0-1.301-.036c-12.99 0-23.519 10.53-23.519 23.519s10.529 23.518 23.519 23.518c12.989 0 23.519-10.529 23.519-23.518 0-.405-.011-.809-.031-1.209" fill="#999"/><path d="M77.37 80.81a36.595 36.595 0 0 0 12.562 2.208c20.254 0 36.675-16.419 36.675-36.674S110.186 9.67 89.932 9.67c-20.254 0-36.675 16.419-36.675 36.674 0 4.363.764 8.548 2.162 12.429a24.979 24.979 0 0 0-1.288-.036" fill="#999"/><path d="M98.805 218.053c-28.599 5.222-59.688 8.628-72.616 11.19-21.028 4.168-38.759-31.173-14.424-44.515 18.475-10.13 42.028-21.636 42.028-21.636l45.012 54.961z" fill="#d1d2d4"/><path d="M78.27 149.09c.022-.432.036-.864.036-1.302 0-12.989-10.53-23.519-23.519-23.519s-23.519 10.529-23.519 23.519 10.53 23.52 23.519 23.52c.406 0 .809-.011 1.209-.031" fill="#999"/><path d="M114.719 201.753c10.445-1.616 15.667-2.362 19.522-3.109 3.854-.745 5.844-7.335 5.844-16.724 0-9.388-1.99-15.978-5.844-16.725-3.855-.745-9.077-1.492-19.522-3.107" fill="#d1d2d4"/><path d="M55.324 170.426a36.61 36.61 0 0 0-2.208 12.562c0 20.254 16.419 36.675 36.674 36.675s36.674-16.421 36.674-36.675c0-20.255-16.419-36.676-36.674-36.676-4.364 0-8.548.765-12.429 2.162.022-.427.036-.855.036-1.287" fill="#999"/><path d="M77.658 80.516a35.982 35.982 0 0 0 12.194 2.117c19.915 0 36.059-16.144 36.059-36.06 0-19.915-16.144-36.059-36.059-36.059-19.916 0-36.059 16.144-36.059 36.059 0 4.099.685 8.038 1.945 11.71a23.087 23.087 0 0 0-.951-.022c-12.636 0-22.879 10.244-22.879 22.879 0 12.636 10.243 22.879 22.879 22.879s22.88-10.243 22.88-22.879c0-.208-.003-.416-.009-.624zM55.964 170.637a35.983 35.983 0 0 0-2.171 12.351c0 19.915 16.144 36.06 36.059 36.06s36.059-16.145 36.059-36.06c0-19.914-16.144-36.06-36.059-36.06-4.29 0-8.405.751-12.221 2.126.022-.42.035-.842.035-1.267 0-12.636-10.244-22.879-22.879-22.879s-22.879 10.243-22.879 22.879 10.243 22.88 22.879 22.88c.395.001.788-.01 1.177-.03z" fill="#d1d2d4"/><path d="M54.788 98.798c-9.751 0-17.656-7.906-17.656-17.658 0-9.751 7.905-17.656 17.656-17.656 9.752 0 17.657 7.905 17.657 17.656 0 9.751-7.906 17.658-17.657 17.658z" fill="#b2b2b2"/><path d="M54.788 96.559c-8.515 0-15.418-6.904-15.418-15.419s6.903-15.417 15.418-15.417c8.516 0 15.419 6.902 15.419 15.417-.001 8.515-6.904 15.419-15.419 15.419z" fill="#666"/><path d="M116.502 175.586a2.647 2.647 0 0 0-2.646-2.645H99.915v-13.972c0-1.46-1.186-2.616-2.646-2.616H82.435c-1.46 0-2.646 1.156-2.646 2.616v13.972h-13.94a2.646 2.646 0 0 0-2.646 2.645v14.834c0 1.461 1.185 2.615 2.646 2.615H79.79v13.972c0 1.461 1.186 2.615 2.646 2.615h14.833c1.46 0 2.646-1.154 2.646-2.615v-13.972h13.941c1.46 0 2.646-1.154 2.646-2.615v-14.834z" fill="#b2b2b2"/><path d="M106.639 190.822a7.834 7.834 0 1 1 .002-15.668 7.834 7.834 0 0 1-.002 15.668zM72.941 190.822a7.834 7.834 0 1 1 .002-15.668 7.834 7.834 0 0 1-.002 15.668zM89.79 192.003a7.834 7.834 0 1 1 0 15.666 7.834 7.834 0 0 1 0-15.666zM89.79 158.306a7.834 7.834 0 1 1 0 15.668 7.834 7.834 0 0 1 0-15.668z" fill="#666"/><path d="M116.96 39.002a2.646 2.646 0 0 0-2.646-2.646h-13.941V22.385c0-1.461-1.185-2.615-2.646-2.615H82.894c-1.461 0-2.646 1.154-2.646 2.615v13.972h-13.94a2.646 2.646 0 0 0-2.646 2.646v14.833c0 1.461 1.185 2.615 2.646 2.615h13.941v13.971c0 1.461 1.185 2.617 2.646 2.617h14.833c1.461 0 2.646-1.155 2.646-2.617V56.45h13.941c1.461 0 2.646-1.154 2.646-2.615V39.002zM54.788 165.445c-9.751 0-17.656-7.905-17.656-17.657 0-9.751 7.905-17.656 17.656-17.656 9.752 0 17.657 7.905 17.657 17.656 0 9.752-7.906 17.657-17.657 17.657z" fill="#b2b2b2"/><path d="M54.788 163.207c-8.515 0-15.418-6.903-15.418-15.419s6.903-15.418 15.418-15.418c8.516 0 15.419 6.902 15.419 15.418s-6.904 15.419-15.419 15.419z" fill="#666"/><path fill="#a0a0a0" d="M114.153 46.404l-3.418-3.6v7.199zM66.469 46.404l3.418-3.6v7.199zM90.311 70.245l3.599-3.419h-7.198zM90.311 22.561l3.599 3.419h-7.198z"/><path d="M95.649 55.269a1.121 1.121 0 0 0-.446-.803l-4.221-3.329a1.12 1.12 0 0 0-1.367 0l-4.251 3.329a1.123 1.123 0 0 0-.446.892l-.029 7.729a1.121 1.121 0 0 0 1.13 1.129h8.353a1.12 1.12 0 0 0 1.129-1.1l.149-7.729v-.118zM95.733 37.539c-.027.318-.19.61-.447.801l-4.221 3.33a1.118 1.118 0 0 1-1.367 0l-4.25-3.33a1.123 1.123 0 0 1-.447-.892l-.029-7.728a1.127 1.127 0 0 1 .328-.803c.213-.211.501-.33.801-.327h8.353a1.12 1.12 0 0 1 1.13 1.099l.148 7.729v.121zM81.446 51.741c.319-.028.611-.19.802-.446l3.33-4.222a1.12 1.12 0 0 0 0-1.367l-3.33-4.25a1.126 1.126 0 0 0-.891-.446l-7.729-.03a1.126 1.126 0 0 0-1.13 1.13v8.354a1.122 1.122 0 0 0 1.1 1.129l7.729.149h.119zM99.176 51.825a1.122 1.122 0 0 1-.803-.446l-3.329-4.22a1.12 1.12 0 0 1 0-1.368l3.329-4.25c.211-.28.542-.445.892-.446l7.729-.03a1.12 1.12 0 0 1 1.129 1.13v8.353a1.121 1.121 0 0 1-1.1 1.13l-7.728.148h-.119z" fill="#666"/><path d="M85.727 170.203v-8.126h8.125v8.126h-8.125zm-.529.758h9.184c.17 0 .31-.14.31-.31v-9.022c0-.17-.14-.31-.31-.31h-9.184c-.17 0-.31.14-.31.31v9.022c.001.17.14.31.31.31z" fill="#bc82a1"/><path d="M89.924 205.352a5.716 5.716 0 1 1 0-11.432 5.716 5.716 0 0 1 0 11.432zm4.895-5.79a4.995 4.995 0 1 0-9.99 0 4.995 4.995 0 0 0 9.99 0z" fill="#ca6869"/><path d="M103.127 188.216a.349.349 0 0 1 .127-.474l8.67-5.008a.348.348 0 0 1 .474.127.349.349 0 0 1-.127.474l-8.67 5.008a.349.349 0 0 1-.474-.127z" fill="#5e9d81"/><path d="M103.447 188.388a.347.347 0 0 1-.347-.347v-9.968c0-.19.156-.347.347-.347.19 0 .347.156.347.347v9.968a.347.347 0 0 1-.347.347z" fill="#5e9d81"/><path d="M103.108 177.901a.348.348 0 0 1 .473-.128l8.663 4.992a.347.347 0 0 1-.347.602l-8.663-4.992a.35.35 0 0 1-.126-.474z" fill="#5e9d81"/><path d="M68.575 187.354a.415.415 0 0 1 0-.585l8.19-8.19a.416.416 0 0 1 .586 0 .416.416 0 0 1 0 .586l-8.19 8.189a.416.416 0 0 1-.586 0z" fill="#5e9ec4"/><path d="M68.533 178.621a.416.416 0 0 1 .586 0l8.19 8.189a.416.416 0 0 1 0 .586.416.416 0 0 1-.586 0l-8.19-8.19a.415.415 0 0 1 0-.585z" fill="#5e9ec4"/><path fill="#c4c4c4" d="M136.229 45.225v.559h-3.86v1.85h-.469v-2.409zM136.156 181.636c.058.282.09.688.09 1.072 0 .598-.109.983-.354 1.253-.193.219-.488.34-.822.34-.572 0-.951-.359-1.105-.815h-.019c-.116.334-.424.533-.874.636-.604.142-1.021.244-1.188.334v-.577c.122-.071.495-.168 1.034-.29.597-.128.822-.359.841-.867v-.526h-1.875v-.559h4.272zm-1.973.559v.571c0 .598.328.977.822.977.559 0 .803-.404.81-.995 0-.271-.025-.463-.051-.553h-1.581z"/><path d="M68.221 110.525v10.602a.232.232 0 0 1-.231.233h-5.878a.231.231 0 0 1-.23-.233v-10.602a.23.23 0 0 1 .23-.232h5.878a.23.23 0 0 1 .231.232z" fill="#666"/><path d="M55.64 111.586v8.481c0 .103-.041.187-.093.187h-2.339c-.051 0-.092-.084-.092-.187v-8.481c0-.103.041-.186.092-.186h2.339c.052 0 .093.083.093.186z" fill="#ff507c"/><path d="M89.351 89.488v10.602a.232.232 0 0 1-.232.232h-5.877a.231.231 0 0 1-.231-.232V89.488a.23.23 0 0 1 .231-.231h5.877c.128 0 .232.103.232.231zM86.18 140.361c-1.382 0-3.17-8.082-3.17-8.082-.238-.895.175-1.492 1.491-1.492h3.358c1.332 0 1.71.653 1.492 1.492 0 0-1.87 8.082-3.171 8.082zM86.624 104.204h.349c0 .122-.002.24 0 .358.004.306.107.436.408.467.207.02.417.021.621-.005.277-.031.426-.223.429-.498v-.626h-3.186v-.554h3.548l.013.021c-.006.49-.005.979-.021 1.47a1.177 1.177 0 0 1-.105.391.546.546 0 0 1-.357.326 2.03 2.03 0 0 1-1.096.039c-.356-.086-.57-.307-.6-.671-.02-.237-.003-.475-.003-.718zM86.586 124.636c-.194-.023-.423-.034-.641-.082-.443-.1-.647-.319-.689-.771a4.21 4.21 0 0 1 .02-.862c.043-.346.267-.557.598-.64.475-.12.954-.118 1.431-.015.394.085.639.328.67.733.024.301.025.614-.017.912-.059.412-.364.597-.745.662-.196.035-.397.042-.627.063zm.043-1.873c-.199.026-.4.036-.593.082-.286.069-.415.255-.42.548-.003.316.117.503.411.579.397.105.802.105 1.2.002.28-.072.399-.263.392-.578-.006-.31-.13-.488-.408-.554-.188-.042-.385-.052-.582-.079zM83.872 110.008c.393.158.769.291 1.129.463.254.122.474.116.734.013.7-.277 1.412-.526 2.119-.786l.12-.039c0 .19.005.368-.004.545l-.105.099c-.526.195-1.053.391-1.58.585l-.117.045c.097.042.176.077.256.11.486.196.97.394 1.456.587l.097.139c-.006.139-.003.279-.003.438-.232-.095-.45-.18-.664-.27-1.098-.442-2.193-.887-3.29-1.327-.112-.044-.165-.097-.152-.22.014-.119.004-.24.004-.382zM86.971 117.894h-.356l-.003-.241a1.604 1.604 0 0 0-.072-.308.248.248 0 0 0-.237-.164c-.123-.005-.247-.017-.369-.003-.218.023-.307.118-.316.342-.009.229-.002.46-.002.709h.13l1.369-.001c.317 0 .492-.168.5-.485.006-.25.001-.502.001-.758h.375c-.022.422-.024.838-.077 1.25-.043.345-.251.522-.596.536-.575.022-1.151.017-1.726.022h-.357c0-.207-.003-.396.001-.587.011-.339 0-.684.045-1.019.051-.393.222-.545.611-.585.191-.021.389-.002.583.019.203.021.327.152.394.337.111.3.105.612.102.936zM85.616 108.765H87.123c.302-.003.48-.168.49-.471.007-.208.003-.417.003-.626v-.147h.343l.011.078c-.007.354-.006.708-.03 1.061-.017.246-.109.474-.354.582a1.002 1.002 0 0 1-.383.08c-.635.009-1.272.003-1.906.005l-.057-.014c0-.166-.004-.334.001-.503.008-.357-.006-.72.036-1.072.049-.399.214-.551.615-.597.203-.025.415-.001.619.027.216.029.34.188.378.387.054.281.075.571.112.87h-.387l-.003-.25c-.023-.116-.047-.245-.107-.345-.096-.162-.279-.118-.431-.132l-.127.013c-.224.026-.319.115-.328.343-.01.231-.002.461-.002.711zM85.257 112.608h.346c0 .22-.003.436.002.651.003.11.011.224.036.329.049.201.179.331.392.346.161.013.324.021.481.001.201-.022.279-.119.304-.319.011-.094.019-.187.025-.28.052-.7.349-.812.864-.854.186-.015.382.03.565.073.322.077.494.308.513.626.022.361.005.724.005 1.097h-.338c0-.175.001-.349-.002-.521a2.616 2.616 0 0 0-.022-.319c-.025-.181-.121-.312-.31-.345a1.622 1.622 0 0 0-.38-.031c-.208.013-.312.126-.333.334-.018.182-.03.366-.051.547a.562.562 0 0 1-.421.506c-.389.119-.778.146-1.169.019-.314-.105-.488-.333-.503-.655-.018-.398-.004-.796-.004-1.205zM85.243 127.385v-.551H87.117c.313-.002.485-.164.497-.474.007-.175.003-.35.003-.524l-.009-.068h-2.365v-.55h2.711l.011.014c-.006.503-.001 1.005-.028 1.508-.008.146-.09.3-.17.43-.089.146-.251.211-.418.213-.698.005-1.396.002-2.106.002zM88.476 119.437v.56h-.5v.629h-.354V120h-.134c-.495 0-.99-.003-1.484 0l-.202.023c-.143.036-.188.1-.188.246v.226h-.368c.009-.265-.041-.531.038-.792a.355.355 0 0 1 .357-.263c.942-.004 1.883-.003 2.835-.003zM88.478 115.106v.561h-.502v.634h-.355v-.63H86.035l-.19.01c-.17.033-.23.108-.229.28v.201h-.368c.009-.267-.043-.537.043-.803.05-.153.172-.227.328-.245l.19-.008H88.478zM88.803 106.612h-3.558v-.553h3.558v.553zM87.969 121.08v.547h-2.724v-.547h2.724zM88.315 121.079h.484v.548h-.484v-.548z" fill="#666"/><path d="M94.226 120.578a8.734 8.734 0 0 1-.096.523 4.971 4.971 0 0 1-.162.585 2.234 2.234 0 0 1-.333.652.927.927 0 0 1-.466.335.582.582 0 0 1-.488-.07c-.175-.105-.299-.262-.409-.429a3.365 3.365 0 0 1-.315-.661l-.014-.063.004-.051c.061-.202.123-.402.186-.604.101-.321.201-.643.299-.963.057-.187.117-.371.173-.557l.03-.045.025.041c.07.205.143.41.21.615.048.145.103.287.179.422l.126.173.047.037.146-.027.076-.167a1.67 1.67 0 0 0 .036-.307 3.516 3.516 0 0 0-.064-.711l-.072-.23c-.112-.32-.215-.644-.324-.966l-.021-.072c.027-.115.066-.228.102-.34l.328-1.063c.069-.221.138-.466.205-.687h.035c.074.216.147.441.215.661.097.322.185.646.255.976.041.188.041.178.104.563.067.385.089 1.756-.017 2.43zM91.174 111.367c.019-.368.098-.806.158-1.207.046-.303.095-.607.162-.908.06-.271.128-.539.25-.79l.148-.237a.506.506 0 0 1 .477-.187c.319.031.56.198.76.435.15.18.261.38.349.597l.05.146-.036.142-.33 1.037-.25.786-.027.088-.027-.081a41.95 41.95 0 0 0-.132-.366l-.105-.252-.069-.085c-.103-.093-.227-.071-.322.037a.71.71 0 0 0-.159.406c-.02.188.026.365.089.543.058.164.111.329.167.495.052.158.106.316.16.474l.013.054-.121.383c-.07.216-.139.47-.208.688h-.025c-.221.002-.444.006-.667 0h-.055c-.048-.184-.108-.527-.141-.705 0-.002-.129-.868-.109-1.493z" fill-rule="evenodd" clip-rule="evenodd" fill="#666"/><path d="M92.635 119.232l-.08.243c-.108.348-.214.694-.323 1.042-.052.17-.106.34-.16.509l-.129.424-.067-.178-.18-.515-.292-.836a177.93 177.93 0 0 1-.27-.758l-.308-.874c-.032-.09-.069-.179-.094-.271l.014-.078c.073-.226.145-.45.215-.677.138-.426.271-.89.406-1.314H91.535c.085.26.178.547.264.806l.406 1.184c.092.273.186.544.279.817.049.142.097.286.147.428l.004.048zM92.887 111.229c.088-.278.177-.557.268-.836l.374-1.178c.134.398.27.797.403 1.197l.63 1.866c.04.12.082.24.12.361l-.005.051c-.088.28-.175.592-.259.872H93.699c-.088-.248-.178-.522-.266-.771a286.56 286.56 0 0 0-.316-.879l-.226-.632-.004-.051z" fill-rule="evenodd" clip-rule="evenodd" fill="#666"/><path d="M91.394 115.949c-.22.691-.441 1.376-.662 2.069-.042-.1-.073-.206-.111-.312-.077-.216-.152-.435-.228-.653-.101-.288-.201-.575-.3-.863l-.074-.241H91.394zM93.721 113.563h.684c.062-.209.127-.441.193-.651l.083-.271c.056.158.111.317.165.478l.156.445h-1.281zM93.012 118.037a24.795 24.795 0 0 1-.125-.353c-.2-.583-.397-1.155-.598-1.735H93.659c-.082.264-.164.52-.245.783l-.21.676-.192.629zM92.49 112.492c.045.131.091.261.134.393.079.23.153.45.229.679h-.708c.066-.21.133-.41.2-.62.048-.15.096-.304.145-.452z" fill-rule="evenodd" clip-rule="evenodd" fill="#666"/><path d="M92.145 113.563c.237-.002.475-.002.711 0 .25-.003.501.001.75 0h.112c.405.002.809 0 1.214 0h.115c2.017.001 4.036.01 6.052.01h.038l.009.019-.083.302c-.077.284-.152.568-.226.854-.07.259-.137.521-.206.781-.081.307-.163.612-.242.917a9.397 9.397 0 0 1-.22.733 5.14 5.14 0 0 1-.583 1.188 3.183 3.183 0 0 1-.457.545 2.723 2.723 0 0 1-1.372.713c-.108.023-.22.034-.33.048l-.048.007-.057.002-.072.005h-.341l-.094-.005-.065-.002-.063-.007-.05-.002-.048-.004-.035-.002-.042-.007-.029-.001-.039-.007a4.613 4.613 0 0 1-.546-.105 2.278 2.278 0 0 1-.678-.305 1.485 1.485 0 0 1-.531-.63 1.837 1.837 0 0 1-.132-.543l-.004-.049-.003-.08v-.151l.003-.081.004-.063.002-.034.006-.041c.005-.098.021-.197.042-.293.023-.114.045-.23.083-.341l.015-.059.018-.016h4.032l.047-.003c.13-.012.218-.088.279-.196l.069-.233v-.119c-.013-.132-.052-.248-.172-.322l-.098-.031-.118-.003c-.114-.002-.232.003-.347-.002-.145 0-.291-.003-.436-.004l-4.309.004H92.289a49.28 49.28 0 0 1-.769 0h-.125c-.323.002-.642 0-.964 0h-.411c.054-.159.107-.374.16-.535l.171-.526c.066-.21.135-.419.204-.627.066-.204.131-.494.197-.697h1.393z" fill-rule="evenodd" clip-rule="evenodd" fill="#666"/><path fill="#d1d2d4" d="M89.883 116.245h3.953v-.295h-3.953M91.274 113.565h3.953v-.295h-3.953"/><path d="M81.147 89.435h-.425c.08-.166.138-.321.177-.468a1.65 1.65 0 0 0 .058-.425c0-.237-.046-.421-.138-.55a.455.455 0 0 0-.393-.192c-.143 0-.25.042-.324.128-.072.086-.13.249-.175.487l-.054.264c-.062.324-.171.564-.328.718-.155.155-.364.233-.625.233-.313 0-.549-.105-.71-.315-.161-.208-.241-.515-.241-.919 0-.152.017-.315.051-.487.035-.171.085-.349.153-.533h.449c-.099.177-.174.35-.225.52-.05.169-.076.337-.076.5 0 .249.049.441.147.577a.486.486 0 0 0 .418.203.48.48 0 0 0 .372-.147c.089-.097.156-.255.2-.477l.052-.265c.064-.325.166-.561.304-.706.138-.146.33-.218.576-.218.284 0 .509.1.673.3.164.201.246.478.246.831a3.03 3.03 0 0 1-.162.941m.105.874v2.037h-.367v-1.602h-.954v1.534h-.367v-1.534h-1.167v1.64h-.367v-2.075h3.222m0 2.796v.436h-2.854v1.569h-.367v-2.005h3.221m0 2.46v2.037h-.367V96h-.954v1.534h-.367V96h-1.167v1.64h-.367v-2.075h3.222m-.248 5.208h-.459c.137-.146.239-.303.307-.47.067-.165.102-.342.102-.529 0-.368-.113-.649-.339-.845-.225-.196-.55-.294-.976-.294-.424 0-.75.098-.975.294-.224.195-.337.477-.337.845 0 .188.034.364.102.529.068.167.17.323.306.47h-.455a1.748 1.748 0 0 1-.233-.485 1.83 1.83 0 0 1-.077-.539c0-.487.148-.872.446-1.152.299-.28.707-.421 1.223-.421.518 0 .926.141 1.224.421.299.28.449.665.449 1.152 0 .192-.026.374-.078.544a1.712 1.712 0 0 1-.23.48m.248.232v2.725h-.367v-1.144h-2.854v-.438h2.854v-1.144h.367M81.147 130.938h-.425c.08-.165.138-.321.177-.468s.058-.288.058-.425c0-.237-.046-.421-.138-.551a.457.457 0 0 0-.393-.191c-.143 0-.25.042-.324.127-.072.087-.13.249-.175.488l-.054.263c-.062.325-.171.565-.328.719-.155.155-.364.233-.625.233-.313 0-.549-.105-.71-.315-.161-.209-.241-.515-.241-.919 0-.152.017-.315.051-.488.035-.171.085-.349.153-.533h.449a2.63 2.63 0 0 0-.225.521 1.76 1.76 0 0 0-.076.5c0 .248.049.441.147.576a.485.485 0 0 0 .418.202.48.48 0 0 0 .372-.146c.089-.097.156-.255.2-.477l.052-.266c.064-.325.166-.561.304-.706.138-.145.33-.217.576-.217.284 0 .509.099.673.3s.246.478.246.83c0 .151-.014.306-.041.462s-.066.318-.121.481m.105.428v2.726h-.367v-1.144h-2.854v-.438h2.854v-1.144h.367m-.429 3.88l-1.603-.592v1.186l1.603-.594m.429-.246v.493l-3.221 1.229v-.453l.827-.294v-1.452l-.827-.293v-.46l3.221 1.23m-1.71 3.717a.634.634 0 0 1-.203.271 2.1 2.1 0 0 1-.427.268l-.88.442v-.469l.827-.412c.215-.105.359-.21.429-.311.07-.1.106-.234.106-.407v-.475h-1.362v-.436h3.221v.983c0 .368-.077.643-.23.824-.154.181-.386.271-.697.271a.846.846 0 0 1-.504-.142.694.694 0 0 1-.28-.407m1.352-1.091H79.75v.548c0 .21.048.368.145.475.098.107.241.162.429.162s.331-.055.425-.162c.096-.106.145-.265.145-.475v-.548m.358 1.87v2.726h-.367v-1.145h-2.854v-.438h2.854v-1.144h.367M73.606 108.289v.61l-3.282 1.264v-.615l.869-.308v-1.311l-.869-.308v-.593l3.282 1.261zm-1.976-.202v1.001l1.41-.491v-.014l-1.41-.496zM73.606 110.453v.583l-2.418 1.5v.009h2.418v.523h-3.282v-.582l2.413-1.497v-.014h-2.413v-.522zM73.606 114.673v.611l-3.282 1.263v-.614l.869-.308v-1.312l-.869-.308v-.592l3.282 1.26zm-1.976-.203v1.002l1.41-.492v-.014l-1.41-.496zM73.606 116.861v.575H70.82v1.668h-.496v-2.243zM73.684 120.895c0 .478-.166.858-.498 1.145-.333.285-.74.429-1.224.429-.485 0-.892-.143-1.221-.427-.328-.284-.492-.666-.494-1.145-.001-.479.163-.861.492-1.147.329-.284.736-.427 1.221-.427s.89.14 1.214.418c.156.135.28.299.373.494.093.194.138.415.137.66zm-2.602-.75c-.246.164-.368.415-.368.75 0 .334.124.585.371.749.247.166.54.25.88.25s.633-.084.88-.25.371-.415.371-.747c0-.334-.125-.584-.373-.752a1.526 1.526 0 0 0-.882-.25c-.34.002-.633.086-.879.25zM70.324 125.854v-.368l.386-.087a1.393 1.393 0 0 1-.364-.46 1.403 1.403 0 0 1-.101-.563 1.498 1.498 0 0 1 1.053-1.429 2.02 2.02 0 0 1 .665-.108c.484 0 .888.14 1.212.418.156.135.28.299.373.493s.138.397.137.61c0 .617-.212 1.051-.635 1.301-.14.082-.303.134-.487.154v-.574a.684.684 0 0 0 .48-.278.876.876 0 0 0 .173-.53c0-.351-.124-.608-.371-.772s-.54-.246-.88-.246-.633.082-.88.249c-.247.165-.371.415-.371.747-.006.289.071.513.229.672.159.158.382.241.671.249v-.876h.438v1.399h-1.728z" fill="#898888"/></svg>