<svg xmlns="http://www.w3.org/2000/svg" viewBox="0 0 30 30"><path d="M8.917 23.083c-.224.821-.238 1.936-.25 2.833-.016 1.218.097 1.713.333 2.167.1.192.43.806 1.125 1.208.658.381 1.326.388 2.083.333 1.706-.123 3.038-.501 3.75-.708 2.083-.608 3.153-.921 4.681-1.565 1.39-.586 2.239-.95 3.277-1.685.607-.43 1.512-1.07 2.25-2.042 1.153-1.519 2.306-4.388 1.333-6-1.768-2.928-10.011-.795-14.375 1.417-3.051 1.548-3.92 2.989-4.207 4.042z" fill="#fff"/><path d="M15.458 20.71s.753-1.561 2.556-2.657a6.985 6.985 0 0 1 3.775-1.033c3.364.047 4.265 2.478 4.265 2.478l.948-.443.59.062.062-1.212-.357-1.67-.326-.785.854-1.771.295-1.538.031-1.872.753-1.74.233-2.198-.528-2.097-.823-.917-1.018-.357-1.872.357-.621.233-.256-.994-.59-.886-.854-.295-1.71.265-1.732.878-1.74 1.903-.723 1.476-1.903-1.243-2.229-1.15-2.168-.357-2.462.194s-2.004.653-2.097.722c-.102.063-2.168 1.282-2.168 1.282L2.268 6.852 1.25 8.95l-.691 1.74-.233 2.595.163 1.841.753 1.771.722 1.476 1.375 1.639s1.538 1.375 1.639 1.344c.101-.031 2.525 1.243 2.525 1.243l1.934.59 2.361.233 2.097-.357 1.476-.233-.163-1.212.25-.91z" fill="#72be44"/><path d="M15.753 23.553l-.621 1.212-1.344 1.538-1.181.823-.823.295-.854-.163-.528-.854s-.163-.854-.132-.987c.031-.132.621-1.872.59-1.965-.031-.101 1.507-.132 1.507-.132l3.115-.722.271.955z" fill="#ec1c24"/><path fill="#fff" d="M20.445 12.694l2.261.163 1.382.458.459.194 1.406-1.344.66-1.67.489-2.858-.256-1.507-.955-1.181-1.243-.264-1.872.458-.529-.093-.194-1.414-.621-.955-1.119-.125-1.181.094-1.281 1.219-1.181 2.028 1.018 1.149 1.413 2.036.723 1.507z"/><path d="M27.988 13.121c.101.101-.458 1.243-.458 1.243l-.427 1.181.427 1.476.194 1.119 1.313-.987.653-1.282-.062-.854-.785-1.313-.855-.583zM26.714 22.699l-1.352 1.802 2.494-.031.07-.886zM24.974 24.928c.031-.101-.198 2.928-.198 2.928l-1.403.704-2.733-1.208 2.004-.917 2.33-1.507z" fill="#e66325"/><path d="M12.405 6.541c-.194-.544-.567-.854-1.359-.901-.559-.031-1.251.388-1.608.792-.148.164-.334.521-.163.412 0 0 .109-.062.381-.186.427-.202 1.08-.435 1.592-.311a1.687 1.687 0 0 1 1.096.862c.039.085.163-.078.14-.342a2.694 2.694 0 0 0-.079-.326z" fill="#0b0204"/><path d="M20.584999999999997 27.748c3.686 2.1 5.236.564 4.49-2.513.085-.078.341-.361.427-.438 2.721.346 4.038-1.078 1.664-2.306-.052-.027-.07-.094-.066-.152.036-.503.608-2.655.831-3.512.06-.23.191-.434.372-.588 1.043-.883 1.711-1.724 1.697-2.795-.016-1.025-1.297-2.167-1.724-2.517a14.42 14.42 0 0 0 .295-2.633c.878-1.39 1.088-3.496.831-4.871-.179-.963-.653-1.818-1.313-2.237-1.227-.777-2.509-.629-3.682.016-.031-.583-.218-1.445-1.056-1.919-1.212-.684-3.356.085-5.049 1.678a7.032 7.032 0 0 0-1.717 2.525C12.801 2.036 8.172 2.44 5.173 4.001 2.152 5.578-.606 9.928.116 14.379c.381 2.33 1.585 4.451 3.348 6.075-.024.014 1.546 1.235 2.128 1.569-.006.033 1.903.901 2.633 1.111.155.047.311.085.466.124-.171.598-.44 2.027-.334 3.511.032.451.223.979.427 1.445.372.72 1.244 1.517 1.652 1.634 1.966.562 5.278-.589 6.603-.932m-.273-.502c-.57.151-4.412 1.318-5.984.857-.387-.113-1.561-.87-1.787-2.61-.179-1.375.124-2.742.264-3.294.35.07.684.117 1.01.155-.101.458-.318 1.608-.155 2.556.14.831.489 1.375 1.002 1.577.575.225 1.305.008 2.183-.645 1.336-1.002 2.113-2.191 2.447-2.859.295.35.552.528.746.614.233.109.318.093.318.093.117.008-.101-.194-.179-.287-1.258-1.732-.955-4.583-.785-5.647.039-.264.054-.311.054-.311.031-.218-.179.093-.28.241-.264.396-.497 1.01-.637 1.818a5.314 5.314 0 0 0 0 1.857c-.901.272-3.449.862-6.51-.016-4.032-1.157-7.046-4.404-7.675-8.257-.684-4.187 1.849-8.219 4.684-9.702 2.913-1.523 7.317-1.849 10.93 1.787 3.356 3.371 3.682 6.23 3.682 6.261l.031.28.28-.016c.023 0 2.765-.078 4.381 1.243.171.14.233.21.202.047l-.008-.047a1.84 1.84 0 0 0-.078-.186 1.894 1.894 0 0 0-.163-.264c.777-.59 1.367-1.359 1.398-1.39l.031-.031.016-.039c1.864-3.868 1.359-6.75-.225-7.55-.948-.482-1.895-.233-2.595.07 1.321-1.196 2.905-1.825 4.366-.893.528.334.816.909.971 1.724.303 1.624-.202 3.868-1.266 5.523-.085.132-.443.575-.218.451l.062-.031c.14-.062.241-.132.365-.225.047-.039.101-.07.148-.109-.023.8-.186 2.556-1.072 4.257l-.07.14.07.14c.008.023.66 1.274.637 3.13-.194 1.341-.757 3.241-1.049 3.806-.039.07-.078.132-.117.202-2.056 3.492-7.8 5.173-9.425 5.58M11.908 23.6a12.244 12.244 0 0 0 3.255-.497c.054.155.117.311.194.451a7.89 7.89 0 0 1-2.393 2.991c-.691.513-1.243.715-1.608.567-.396-.155-.559-.699-.637-1.126a4.46 4.46 0 0 1-.039-.342c.148-.591.49-1.547 1.228-2.044zm7.287-14.961c.233-.109.52-.35.862-.854.73-1.08.738-1.926.412-2.136-.357-.233-1.088-.085-1.678.994a3.797 3.797 0 0 0-.365.878c-.396-.52-.87-1.072-1.422-1.624a7.467 7.467 0 0 1 1.701-2.509c.023-.023.047-.039.062-.062.699-.466 1.67-.823 2.447-.388.73.412.746 1.724.684 2.486a19.71 19.71 0 0 0-.52.699c-.994 1.445-1.507 2.563-1.763 3.247a15.728 15.728 0 0 0-.42-.731zm.194-2.074c.109-.241.326-.373.482-.303.155.07.186.326.078.567-.117.241-.326.373-.482.303-.156-.078-.187-.326-.078-.567zm6.199-1.383c.707.357 1.227 1.359 1.227 2.695 0 1.103-.287 2.571-1.033 4.133-.132.14-.73.753-1.406 1.251-.901-.73-2.501-1.056-3.713-1.002a9.255 9.255 0 0 0-.684-2.128c.101-.365.528-1.709 1.88-3.666.186-.272.388-.544.606-.8.497-.289 1.981-1.058 3.123-.483zm-1.795-1.6a8.942 8.942 0 0 0-1.328 1.181c.031-.777-.109-1.825-.948-2.33-.404-.241-.878-.249-1.344-.14 1.103-.621 2.222-.847 2.874-.482.731.404.762 1.398.746 1.771zm.688 24.208c-.368.486-.767.503-1.342.478-.691-.101-1.646-.559-1.933-.761 1.173-.489 2.393-1.142 3.457-1.981-.007.399.129 1.042.056 1.667a1.216 1.216 0 0 1-.238.597zm3.218-4.114c.129.165.135.244-.019.378a.493.493 0 0 1-.24.112 6.623 6.623 0 0 1-1.425.072c.295-.35.567-.722.792-1.119a.942.942 0 0 0 .078-.148c.365.279.713.58.814.705zm-.356-8.131c.35-.637.598-1.313.777-1.973.52.474 1.274 1.282 1.282 1.88.016.839-.528 1.523-1.437 2.299a7.18 7.18 0 0 0-.622-2.206z" fill="#0b0204"/><path d="M22.713 11.987c.295.163.87.233 1.624-.987.753-1.212.606-2.059.233-2.284-.412-.249-1.15-.117-1.787 1.15-.66 1.305-.365 1.95-.07 2.121zm.839-2.315c.124-.264.357-.412.528-.334.171.078.202.357.085.621-.124.264-.357.412-.528.334-.17-.077-.209-.357-.085-.621zM7.341 4.351c.171.186.016.8-.093 1.165a2.58 2.58 0 0 1-.07.21c-.085.171.186-.023.28-.117.295-.303.497-.917.342-1.165-.195-.334-.459-.093-.459-.093zM27.513 22.274c-.169 0-.339-.026-.504-.078l.707-3.586c.935.151 1.626 1.06 1.54 2.025-.081.904-.862 1.639-1.743 1.639z" fill="#0b0204"/><path d="M27.217 21.684l.628-2.601c.734.12 1.006.895.953 1.508-.06.704-.741 1.354-1.581 1.093z" fill="#e66325"/></svg>