<svg xmlns="http://www.w3.org/2000/svg" xmlns:xlink="http://www.w3.org/1999/xlink" viewBox="0 0 312.603 214.571"><path d="M154.579 139.756H44.778a2.844 2.844 0 0 1-2.835-2.835v-9.004a2.844 2.844 0 0 1 2.835-2.835h109.801a2.844 2.844 0 0 1 2.835 2.835v9.004a2.844 2.844 0 0 1-2.835 2.835z" fill="#d1ccc3"/><path d="M181.267 131.419H19.153a2.844 2.844 0 0 1-2.835-2.835V2.835A2.844 2.844 0 0 1 19.153 0h162.114a2.844 2.844 0 0 1 2.835 2.835v125.75a2.843 2.843 0 0 1-2.835 2.834z" fill="#f4f3ec"/><path d="M173.158 119.298H27.348c-.78 0-1.417-.638-1.417-1.417V13.539c0-.78.638-1.417 1.417-1.417h145.81c.78 0 1.417.638 1.417 1.417v104.342c0 .779-.638 1.417-1.417 1.417z" fill="#dfded8"/><path d="M153.065 110.686H47.44c-7.795 0-14.173-6.378-14.173-14.173V34.907c0-7.795 6.378-14.173 14.173-14.173h105.625c7.795 0 14.173 6.378 14.173 14.173v61.606c.001 7.795-6.377 14.173-14.173 14.173z" fill="#c26317"/><path fill="#e9e5da" d="M141.41 148.687H57.947l4.526-8.931h74.459z"/><path fill="#f4f3eb" d="M41.944 148.687h117.565v8.421H41.944z"/><path d="M191.625 214.571H8.504c-4.677 0-8.504-3.827-8.504-8.504v-40.455c0-4.677 3.827-8.504 8.504-8.504h183.121c4.677 0 8.504 3.827 8.504 8.504v40.455c0 4.678-3.827 8.504-8.504 8.504z" fill="#e9e5da"/><path d="M14.104 199.215A2.222 2.222 0 0 1 11.889 197v-22.32c0-1.218.997-2.215 2.215-2.215s2.215.997 2.215 2.215V197a2.222 2.222 0 0 1-2.215 2.215zM22.229 199.215A2.222 2.222 0 0 1 20.014 197v-22.32c0-1.218.997-2.215 2.215-2.215s2.215.997 2.215 2.215V197a2.222 2.222 0 0 1-2.215 2.215zM30.205 199.215A2.222 2.222 0 0 1 27.99 197v-22.32c0-1.218.997-2.215 2.215-2.215s2.215.997 2.215 2.215V197a2.222 2.222 0 0 1-2.215 2.215zM38.33 199.215A2.222 2.222 0 0 1 36.115 197v-22.32c0-1.218.997-2.215 2.215-2.215s2.215.997 2.215 2.215V197a2.222 2.222 0 0 1-2.215 2.215zM45.927 199.215A2.222 2.222 0 0 1 43.712 197v-22.32c0-1.218.997-2.215 2.215-2.215s2.215.997 2.215 2.215V197a2.221 2.221 0 0 1-2.215 2.215zM54.053 199.215A2.222 2.222 0 0 1 51.838 197v-22.32c0-1.218.997-2.215 2.215-2.215s2.215.997 2.215 2.215V197a2.222 2.222 0 0 1-2.215 2.215z" fill="#c8c2ae"/><path d="M188.545 206.388H69.958a2.844 2.844 0 0 1-2.835-2.835v-35.427a2.844 2.844 0 0 1 2.835-2.835h118.587a2.844 2.844 0 0 1 2.835 2.835v35.427a2.843 2.843 0 0 1-2.835 2.835z" fill="#717174" stroke="#5b5b5f" stroke-width=".5" stroke-miterlimit="10"/><path d="M122.374 188.741H73.958c-.78 0-1.417-.638-1.417-1.417v-2.967c0-.78.638-1.417 1.417-1.417h48.415c.78 0 1.417.638 1.417 1.417v2.967a1.42 1.42 0 0 1-1.416 1.417z" fill="#26241e"/><path fill="#26241e" d="M88.198 179.313h13.054v13.054H88.198z"/><path fill="#5d5d5d" d="M79.926 179.313h4.636v13.054h-4.636z"/><path d="M179.084 188.741h-48.415c-.78 0-1.417-.638-1.417-1.417v-2.967c0-.78.638-1.417 1.417-1.417h48.415c.78 0 1.417.638 1.417 1.417v2.967a1.42 1.42 0 0 1-1.417 1.417z" fill="#26241e"/><path d="M186.923 188.889h-3.115c-.78 0-1.417-.638-1.417-1.417v-3.115c0-.78.638-1.417 1.417-1.417h3.115c.78 0 1.417.638 1.417 1.417v3.115c0 .779-.638 1.417-1.417 1.417z" fill="#5d5d5d"/><path d="M185.365 182.865h1.558c.78 0 1.417.638 1.417 1.417v3.115c0 .78-.638 1.417-1.417 1.417l-1.558.074" fill="#26241e"/><path fill="#d1ccc3" d="M182.39 197.983h5.95v5.95h-5.95z"/><path fill="#54923c" d="M185.945 201.434h1.815v1.815h-1.815z"/><path d="M132.025 101.932H49.559c-.78 0-1.417-.638-1.417-1.417V55.947c0-.78.638-1.417 1.417-1.417h82.465c.78 0 1.417.638 1.417 1.417v44.567a1.42 1.42 0 0 1-1.416 1.418z" fill="#f9edcb"/><path d="M160.099 59.797h-17.271c-.78 0-1.417-.638-1.417-1.417v-2.432c0-.78.638-1.417 1.417-1.417h17.271c.78 0 1.417.638 1.417 1.417v2.432c0 .779-.638 1.417-1.417 1.417zM160.099 66.588h-17.271c-.78 0-1.417-.638-1.417-1.417v-2.432c0-.78.638-1.417 1.417-1.417h17.271c.78 0 1.417.638 1.417 1.417v2.432c0 .779-.638 1.417-1.417 1.417zM160.099 75.97h-17.271c-.78 0-1.417-.638-1.417-1.417v-2.432c0-.78.638-1.417 1.417-1.417h17.271c.78 0 1.417.638 1.417 1.417v2.432c0 .779-.638 1.417-1.417 1.417zM160.099 82.221h-17.271c-.78 0-1.417-.638-1.417-1.417v-2.432c0-.78.638-1.417 1.417-1.417h17.271c.78 0 1.417.638 1.417 1.417v2.432c0 .779-.638 1.417-1.417 1.417zM160.099 88.632h-17.271c-.78 0-1.417-.638-1.417-1.417v-2.432c0-.78.638-1.417 1.417-1.417h17.271c.78 0 1.417.638 1.417 1.417v2.432c0 .779-.638 1.417-1.417 1.417zM160.099 97.661h-17.271c-.78 0-1.417-.638-1.417-1.417v-2.432c0-.78.638-1.417 1.417-1.417h17.271c.78 0 1.417.638 1.417 1.417v2.432c0 .779-.638 1.417-1.417 1.417z" fill="#7d1f1d"/><path fill="#e5e5e2" d="M50.722 57.184H97.05v2.633H50.722z"/><path fill="#efe0a1" d="M51.788 50.184h21.119v2.633H51.788z"/><path d="M76.337 52.818h-1.492a.57.57 0 0 1-.571-.571v-1.492a.57.57 0 0 1 .571-.571h1.492a.57.57 0 0 1 .571.571v1.492a.572.572 0 0 1-.571.571z" fill="#7d1f1d"/><path fill="#e5e5e2" d="M50.722 61.342H97.05v2.633H50.722z"/><path fill="#369742" d="M50.721 65.28h80.139v2.633H50.721z"/><path fill="#e5e5e2" d="M50.722 69.407H97.05v2.633H50.722zM50.722 73.358H97.05v2.633H50.722z"/><g><path d="M135.381 30.745a1.386 1.386 0 0 0-.948-.494l-2.27-.197a1.606 1.606 0 0 0-1.508.808l-4.488 8.197-2.394-8.878a1.569 1.569 0 0 0-1.332-1.131l-2.502-.252a1.41 1.41 0 0 0-1.538 1.196l-2.178 14.618c-.056.375.046.761.28 1.057.234.296.585.485.963.518l2.017.176a1.412 1.412 0 0 0 1.522-1.213l.566-4.07 1.361 4.674a1.586 1.586 0 0 0 1.326 1.109l1.346.143a1.61 1.61 0 0 0 1.523-.775l2.399-4.161-.335 3.888a1.41 1.41 0 0 0 1.253 1.514l2.418.25c.373.039.739-.072 1.028-.31.29-.239.468-.576.501-.95l1.31-14.698a1.38 1.38 0 0 0-.32-1.019zm-2.409 15.906l-1.169-.121-.189-.02-1.06-.11a.324.324 0 0 1-.288-.349l.429-4.982.016-.19.279-3.238c.015-.174-.044-.192-.131-.041l-4.667 8.093a.53.53 0 0 1-.474.241l-1.346-.143a.51.51 0 0 1-.404-.338l-.969-3.328-.056-.19-1.658-5.693c-.049-.168-.108-.163-.132.01l-.708 5.096-.026.191-.183 1.318-.026.188-.272 1.956a.339.339 0 0 1-.36.287l-2.017-.176a.295.295 0 0 1-.269-.341l.303-2.037.028-.188.188-1.264.029-.19.988-6.634.028-.19.613-4.115a.336.336 0 0 1 .362-.282l2.502.252c.174.017.353.17.398.338l.691 2.562.051.19 1.389 5.152.051.19.827 3.069c.045.168.151.181.235.028l4.364-7.97.104-.19 1.157-2.112a.53.53 0 0 1 .469-.251l.747.065.195.017 1.327.115a.318.318 0 0 1 .288.344l-.368 4.125-.017.19-.735 8.238-.017.19-.174 1.954a.313.313 0 0 1-.339.284h-.004z" fill="#333"/><path d="M133.316 46.367l.174-1.954.017-.19.735-8.238.017-.19.368-4.125a.319.319 0 0 0-.288-.344l-1.327-.115-.195-.017-.747-.065a.53.53 0 0 0-.469.251l-1.157 2.112-.104.19-4.364 7.97c-.084.153-.19.14-.235-.028l-.827-3.069-.051-.19-1.389-5.152-.051-.19-.691-2.562a.495.495 0 0 0-.398-.338l-2.502-.252a.336.336 0 0 0-.362.282l-.613 4.115-.028.19-.988 6.634-.029.19-.188 1.264-.028.188-.303 2.037a.295.295 0 0 0 .269.341l2.017.176a.339.339 0 0 0 .36-.287l.272-1.956.026-.188.183-1.318.026-.191.708-5.096c.024-.173.084-.177.132-.01l1.658 5.693.056.19.969 3.328c.049.168.231.32.404.338l1.346.143a.533.533 0 0 0 .474-.241l4.667-8.093c.087-.151.146-.133.131.041l-.279 3.238-.016.19-.429 4.982a.325.325 0 0 0 .288.349l1.06.11.189.02 1.169.121h.005a.312.312 0 0 0 .338-.284z" fill="#b6b5b5"/><g fill="#333"><path d="M132.635 44.223l-.026.053-.158.319-.632.083-.077.01-.005.078-.122 1.744.189.02.117-1.673.605-.08.051-.006.022-.046.154-.312h.738l.017-.19zM117.594 42.735l2.615.311.026-.189-2.613-.311zM123.602 38.556h1.311l-.051-.191h-1.45v3.57h-.469l.056.19h.603zM132.209 33.617l.803-2.407-.195-.017-.766 2.299h-1.607l-.104.19h1.848zM132.507 35.787l-.019.07-.566 2.045-.003.012v.013l-.008 2.952h-1.2l-.016.191h1.406v-.095l.008-3.035.543-1.962 1.59.006.017-.19-1.679-.007zM120.215 34.392l.375-1.179h2.883l-.052-.19h-2.971l-.021.066-.375 1.179h-1.199l-.028.19h1.367zM118.698 41.109l-.021-.011h-.024l-.815-.006-.028.191.818.005.44.239.021.012h1.329l.027-.191h-1.307z"/></g><path d="M118.555 28.66a1.08 1.08 0 0 0-.964-.283l-2.945.593a1.08 1.08 0 0 0-.856.911l-.969 7.04-3.505-6.235a1.08 1.08 0 0 0-1.159-.528l-3.296.681a1.078 1.078 0 0 0-.709 1.608l8.087 13.625c.232.39.682.594 1.128.509l1.978-.374a1.08 1.08 0 0 0 .864-.88l2.659-15.713a1.079 1.079 0 0 0-.313-.954zm-3.357 16.175a.491.491 0 0 1-.365.372l-1.354.256a.49.49 0 0 1-.474-.214l-.958-1.614-.099-.167-2.11-3.555-.098-.166-3.283-5.531-.113-.19-1.102-1.856c-.089-.15-.022-.302.149-.337l2.675-.553a.463.463 0 0 1 .466.212l.561.998.107.19 2.877 5.118.095.169 1.126 2.004c.085.152.175.135.199-.038l.891-6.477.026-.19.402-2.923a.48.48 0 0 1 .354-.377l.882-.178.19-.038 1.251-.252c.171-.035.288.078.259.25l-1.023 6.043-.032.19-.446 2.635-.032.191-.347 2.052-.047.279-.627 3.697z" fill="#333"/><path d="M115.871 40.858l.347-2.052.032-.191.446-2.635.032-.19 1.023-6.043c.029-.172-.087-.285-.259-.25l-1.251.252-.19.038-.882.178a.478.478 0 0 0-.354.377l-.402 2.923-.026.19-.891 6.477c-.024.173-.113.19-.199.038l-1.126-2.004-.095-.169-2.877-5.118-.107-.19-.561-.998a.462.462 0 0 0-.466-.212l-2.675.553c-.171.035-.238.187-.149.337l1.102 1.856.113.19 3.283 5.531.098.166 2.11 3.555.099.167.958 1.614c.089.15.302.246.474.214l1.354-.256a.491.491 0 0 0 .365-.372l.626-3.697.048-.279z" fill="#b6b5b5"/><g fill="#333"><path d="M107.461 34.215v-1.267h.898l.029-.039.168-.229h.643l-.107-.191h-.633l-.028.039-.168.23h-.993v1.267h-.927l.113.19h.909zM115.346 33.433l.356-.298.034-.029v-1.541l.227-.243.026-.027v-.524l.221-.196.032-.028v-.797l-.19.038v.674l-.221.195-.032.029v.534l-.227.242-.026.028v1.527l-.295.248h-.837l-.027.191h.933zM115.571 36.392l-.25.245-.029.028v.04l-.006 2.006v.096h.932l.032-.191h-.773l.005-1.871.251-.245.028-.028v-.49h.935l.032-.191h-1.157zM114.475 41.42l-.032-.001-.026.02-.54.414-.038.028v.889l-1.891.698.099.167 1.921-.709.062-.023v-.927l.477-.366.674.006h.033l.026-.02.584-.458.047-.28-.722.567zM112.076 37.798l-2.336 1.949.098.166 2.333-1.946z"/></g><path d="M108.868 36.701c1.908.762 2.41 3.262 2.104 6.095-.133 1.228-.16 2.77-1.361 2.939-.409.057-.87-.041-1.299-.093-.385-.047-.826-.201-1.206-.155-.231.028-.407.217-.619.278-.47.138-1.054.062-1.701.062-.396 0-.797.006-1.145-.062-.209-.041-.424-.2-.65-.217-.206-.015-.415.099-.65.124-.63.067-1.475.088-2.135.031-.237-.021-.498-.158-.712-.155-.211.003-.447.16-.681.186-.827.092-1.696-.319-2.413-.247-.334.034-.672.33-1.114.371-.638.06-1.686.023-2.32-.093-.238-.043-.482-.201-.711-.217-.208-.014-.445.102-.681.124-.601.056-1.353.061-1.98.031-.18-.009-.362-.072-.526-.062-.285.018-.566.215-.835.247-.718.086-1.518.099-2.197.031-.241-.024-.486-.152-.742-.155-.347-.004-.67.16-.959.186-1.672.146-2.931-.657-3.774-1.578-.373.179-.612.511-.959.743-1.551 1.038-4.197.739-5.569-.34-.195-.153-.472-.623-.712-.619-.204.003-.559.478-.742.619-.73.56-1.714.969-2.939 1.052-1.843.124-3.316-.565-4.269-1.454-.489-.456-1.193-1.205-.866-2.134.168-.478.661-.968 1.021-1.392.133-.157.332-.309.34-.464.015-.278-.44-.693-.557-.897-.532-.927-.702-2.458-.186-3.62.616-1.384 2.242-2.386 4.455-2.227a5.82 5.82 0 0 1 2.444.743c1.049.603 2.137 1.16 1.794 2.753.442-.095.696-.409 1.083-.588 1.344-.621 3.496-.577 4.733.217.155.1.393.338.526.34.246.003.548-.493.773-.588.504-.213 2.124-.224 2.846-.155.287.028.582.229.804.216.242-.014.555-.314.742-.371.577-.177 2.352-.249 3.001-.062.213.061.441.312.681.34.228.027.525-.082.773-.093.461-.021.978-.053 1.423-.031.321.015.624.199.928.216.282.017.619-.126.928-.124.247.002.532.061.773.124.23.059.46.218.65.217.282-.002.585-.214.835-.278a4.626 4.626 0 0 1 2.722.155c.2.073.562.403.773.402.251-.001.546-.437.773-.526.633-.247 1.568-.215 2.32-.186.339.013.643.2.959.216.28.014.581-.119.866-.124.271-.004.531.061.773.124.244.063.501.214.681.217.24.003.476-.188.681-.247a4.783 4.783 0 0 1 3.005.155z" fill="#333"/><g><defs><path id="a" d="M99.964 38.938v.56c-.018-.523-.036-1.064-.072-1.64v-.56c.036.577.054 1.117.072 1.64z"/></defs><clipPath id="b"><use xlink:href="#a" overflow="visible"/></clipPath><g clip-path="url(#b)"><path d="M99.964 38.938v.56c-.018-.523-.036-1.064-.072-1.64v-.56c.036.577.054 1.117.072 1.64" fill="#23662c"/></g><defs><path id="c" d="M103.609 39.904v.56a.995.995 0 0 0-.171-.337.326.326 0 0 0-.27-.124c-.243 0-.405.071-.468.204a.932.932 0 0 0-.099.399v-.56c0-.133.036-.266.099-.399s.225-.204.468-.204c.117 0 .207.044.27.124.072.089.126.196.171.337z"/></defs><clipPath id="d"><use xlink:href="#c" overflow="visible"/></clipPath><g clip-path="url(#d)"><path d="M103.609 39.904v.56a.995.995 0 0 0-.171-.337.317.317 0 0 0-.112-.091v-.56a.317.317 0 0 1 .112.091c.072.089.126.196.171.337" fill="#23662c"/><path d="M103.327 39.477v.56a.36.36 0 0 0-.158-.034c-.18 0-.315.039-.399.113v-.56c.084-.074.219-.113.399-.113a.378.378 0 0 1 .158.034" fill="#24682d"/><path d="M102.769 39.556v.56a.278.278 0 0 0-.069.091.932.932 0 0 0-.099.399v-.56c0-.133.036-.266.099-.399a.305.305 0 0 1 .069-.091" fill="#23662c"/></g><defs><path id="e" d="M107.335 39.692v.56a.512.512 0 0 0-.459-.248c-.324 0-.522.222-.603.656v-.56c.081-.434.279-.656.603-.656a.51.51 0 0 1 .459.248z"/></defs><clipPath id="f"><use xlink:href="#e" overflow="visible"/></clipPath><g clip-path="url(#f)"><path d="M107.335 39.692v.56a.528.528 0 0 0-.214-.197v-.56a.522.522 0 0 1 .214.197" fill="#23662c"/><path d="M107.121 39.495v.56a.554.554 0 0 0-.245-.051.512.512 0 0 0-.352.125v-.56a.512.512 0 0 1 .352-.125.55.55 0 0 1 .245.051" fill="#24682d"/><path d="M106.525 39.568v.56c-.122.108-.205.285-.251.531v-.56c.045-.245.128-.423.251-.531" fill="#23662c"/></g><defs><path id="g" d="M103.69 40.383v.56a3.332 3.332 0 0 0-.081-.479v-.56c.036.142.063.302.081.479z"/></defs><clipPath id="h"><use xlink:href="#g" overflow="visible"/></clipPath><g clip-path="url(#h)"><path d="M103.69 40.383v.56a3.332 3.332 0 0 0-.081-.479v-.56c.036.142.063.302.081.479" fill="#23662c"/></g><defs><path id="i" d="M107.497 40.507v.56c0-.381-.054-.656-.162-.815v-.56c.108.159.162.434.162.815z"/></defs><clipPath id="j"><use xlink:href="#i" overflow="visible"/></clipPath><g clip-path="url(#j)"><path d="M107.497 40.507v.56c0-.381-.054-.656-.162-.815v-.56c.108.159.162.434.162.815" fill="#23662c"/></g><defs><path id="k" d="M99.991 40.525v.56l-.027-1.587v-.56l.027 1.587z"/></defs><clipPath id="l"><use xlink:href="#k" overflow="visible"/></clipPath><g clip-path="url(#l)"><path d="M99.991 40.525v.56l-.027-1.587v-.56l.027 1.587" fill="#23662c"/></g><defs><path id="m" d="M103.708 40.95v.56c0-.195 0-.381-.018-.567v-.56c.018.186.018.372.018.567z"/></defs><clipPath id="n"><use xlink:href="#m" overflow="visible"/></clipPath><g clip-path="url(#n)"><path d="M103.708 40.95v.56c0-.195 0-.381-.018-.567v-.56c.018.186.018.372.018.567" fill="#23662c"/></g><defs><path id="o" d="M106.273 40.099v.56c-.072.443-.108 1.108-.108 2.003v-.56c0-.895.036-1.559.108-2.003z"/></defs><clipPath id="p"><use xlink:href="#o" overflow="visible"/></clipPath><g clip-path="url(#p)"><path d="M106.273 40.099v.56c-.072.443-.108 1.108-.108 2.003v-.56c0-.895.036-1.559.108-2.003" fill="#23662c"/></g><defs><path id="q" d="M109.918 41.012v.56c0 .514-.036 1.037-.108 1.578v-.56c.072-.541.108-1.064.108-1.578z"/></defs><clipPath id="r"><use xlink:href="#q" overflow="visible"/></clipPath><g clip-path="url(#r)"><path d="M109.918 41.012v.56c0 .514-.036 1.037-.108 1.578v-.56c.072-.541.108-1.064.108-1.578" fill="#23662c"/></g><defs><path id="s" d="M109.81 42.59v.56c-.018.159-.036.31-.063.461v-.56a7.12 7.12 0 0 0 .063-.461z"/></defs><clipPath id="t"><use xlink:href="#s" overflow="visible"/></clipPath><g clip-path="url(#t)"><path d="M109.81 42.59v.56c-.018.159-.036.31-.063.461v-.56a7.12 7.12 0 0 0 .063-.461" fill="#23662c"/></g><g><defs><path id="u" d="M109.747 43.051v.56c-.027.186-.045.372-.063.558v-.56c.018-.186.036-.372.063-.558z"/></defs><clipPath id="v"><use xlink:href="#u" overflow="visible"/></clipPath><g clip-path="url(#v)"><path d="M109.747 43.051v.56c-.027.186-.045.372-.063.558v-.56c.018-.186.036-.372.063-.558" fill="#23662c"/></g></g><g><path fill="#22642b" d="M102.601 40.046v.56l-.081 3.838v-.56z"/></g><g><defs><path id="w" d="M109.684 43.609v.56a4.85 4.85 0 0 1-.045.355v-.56c.018-.115.036-.239.045-.355z"/></defs><clipPath id="x"><use xlink:href="#w" overflow="visible"/></clipPath><g clip-path="url(#x)"><path d="M109.684 43.609v.56a4.85 4.85 0 0 1-.045.355v-.56c.018-.115.036-.239.045-.355" fill="#23662c"/></g></g><g><defs><path id="y" d="M106.986 44.307v-.56a.24.24 0 0 0 .214.234v.56a.24.24 0 0 1-.214-.234z"/></defs><clipPath id="z"><use xlink:href="#y" overflow="visible"/></clipPath><g clip-path="url(#z)"><path d="M107.2 43.982v.56a.233.233 0 0 1-.079-.023v-.56a.29.29 0 0 0 .079.023" fill="#24682d"/><path d="M107.121 43.958v.56a.235.235 0 0 1-.135-.211v-.56c0 .092.054.172.135.211" fill="#23662c"/></g></g><g><path fill="#25692e" d="M107.389 44.008v.56l-.189-.027v-.559z"/></g><g><defs><path id="A" d="M102.52 43.884v.56a.278.278 0 0 1-.279.275v-.56a.278.278 0 0 0 .279-.275z"/></defs><clipPath id="B"><use xlink:href="#A" overflow="visible"/></clipPath><g clip-path="url(#B)"><path d="M102.52 43.884v.56a.27.27 0 0 1-.093.204v-.56a.27.27 0 0 0 .093-.204" fill="#23662c"/><path d="M102.427 44.088v.56a.278.278 0 0 1-.186.07v-.56a.273.273 0 0 0 .186-.07" fill="#24682d"/></g></g><g><defs><path id="C" d="M108.964 44.194v.56c-.198-.027-.405-.044-.612-.071-.315-.035-.639-.08-.963-.115v-.56c.324.035.648.08.963.115.207.027.414.045.612.071z"/></defs><clipPath id="D"><use xlink:href="#C" overflow="visible"/></clipPath><g clip-path="url(#D)"><path d="M108.964 44.194v.56c-.198-.027-.405-.044-.612-.071-.315-.035-.639-.08-.963-.115v-.56c.324.035.648.08.963.115.207.027.414.045.612.071" fill="#24682d"/></g></g><g><path fill="#256a2e" d="M102.241 44.159v.559l-1.989.036v-.56z"/></g><g><defs><path id="E" d="M100.252 44.194v.56a.263.263 0 0 1-.27-.266v-.56c0 .151.117.266.27.266z"/></defs><clipPath id="F"><use xlink:href="#E" overflow="visible"/></clipPath><g clip-path="url(#F)"><path d="M100.252 44.194v.56a.287.287 0 0 1-.122-.027v-.56a.276.276 0 0 0 .122.027" fill="#24682d"/><path d="M100.13 44.167v.56a.261.261 0 0 1-.148-.239v-.56c0 .107.059.196.148.239" fill="#23662c"/></g></g><g><path fill="#22642b" d="M109.639 43.964v.559l-.072.266v-.559z"/></g><g><defs><path id="G" d="M109.333 44.247v.56c-.117-.018-.243-.044-.369-.053v-.56c.126.009.252.036.369.053z"/></defs><clipPath id="H"><use xlink:href="#G" overflow="visible"/></clipPath><g clip-path="url(#H)"><path d="M109.333 44.247v.56c-.117-.018-.243-.044-.369-.053v-.56c.126.009.252.036.369.053" fill="#24682d"/></g></g><g><path fill="#256a2e" d="M109.567 44.23v.559l-.234.018v-.56z"/></g><g><defs><path id="I" d="M103.933 44.292v.56a.276.276 0 0 1-.27-.275v-.56c0 .142.108.266.27.275z"/></defs><clipPath id="J"><use xlink:href="#I" overflow="visible"/></clipPath><g clip-path="url(#J)"><path d="M103.933 44.292v.56a.305.305 0 0 1-.115-.029v-.56a.324.324 0 0 0 .115.029" fill="#24682d"/><path d="M103.818 44.263v.56a.271.271 0 0 1-.155-.246v-.56c0 .105.059.2.155.246" fill="#23662c"/></g></g><g><path fill="#256a2e" d="M103.933 44.292h.225v.56h-.225z"/></g><g><path fill="#256a2e" d="M104.644 44.301v.559l-.486-.009v-.559z"/></g><g><defs><path id="K" d="M105.247 44.318v.56c-.198-.009-.405-.009-.603-.018v-.56c.198.01.405.01.603.018z"/></defs><clipPath id="L"><use xlink:href="#K" overflow="visible"/></clipPath><g clip-path="url(#L)"><path d="M105.247 44.318v.56c-.198-.009-.405-.009-.603-.018v-.56c.198.01.405.01.603.018" fill="#24682d"/></g></g><g><defs><path id="M" d="M106.248 44.224v.56c0 .051-.009.091-.074.103v-.56c.065-.012.074-.052.074-.103z"/></defs><clipPath id="N"><use xlink:href="#M" overflow="visible"/></clipPath><g clip-path="url(#N)"><path d="M106.248 44.224v.56c0 .034-.004.063-.026.082v-.56c.022-.019.026-.048.026-.082" fill="#23662c"/><path d="M106.222 44.306v.56a.093.093 0 0 1-.047.021v-.56a.093.093 0 0 0 .047-.021" fill="#24682d"/></g></g><g><defs><path id="O" d="M105.805 44.327v.56c-.189 0-.369-.009-.558-.009v-.56c.189 0 .369.009.558.009z"/></defs><clipPath id="P"><use xlink:href="#O" overflow="visible"/></clipPath><g clip-path="url(#P)"><path d="M105.805 44.327v.56c-.189 0-.369-.009-.558-.009v-.56c.189 0 .369.009.558.009" fill="#24682d"/></g></g><g><defs><path id="Q" d="M106.174 44.327v.56a.683.683 0 0 1-.144.014c-.076 0-.154-.009-.225-.014v-.56c.071.005.149.014.225.014.05 0 .099-.003.144-.014z"/></defs><clipPath id="R"><use xlink:href="#Q" overflow="visible"/></clipPath><g clip-path="url(#R)"><path d="M106.174 44.327v.56a.683.683 0 0 1-.144.014c-.076 0-.154-.009-.225-.014v-.56c.071.005.149.014.225.014.05 0 .099-.003.144-.014" fill="#24682d"/></g></g><g><path d="M109.801 39.488c.081.47.117.975.117 1.524 0 .514-.036 1.037-.108 1.578-.018.159-.036.31-.063.461-.027.186-.045.372-.063.558a4.85 4.85 0 0 1-.045.355l-.072.266-.234.018c-.117-.018-.243-.044-.369-.053-.198-.027-.405-.044-.612-.071-.315-.035-.639-.08-.963-.115l-.189-.027a.237.237 0 0 1-.207-.292c.014-.061.279-1.223.369-1.79a9.21 9.21 0 0 0 .135-1.392c0-.381-.054-.656-.162-.815a.512.512 0 0 0-.459-.248c-.324 0-.522.222-.603.656-.072.443-.108 1.108-.108 2.003v.47c.009.204.009.408.018.62 0 .213.009.425.027.629.009.115.027.222.036.337 0 .08.018.151-.072.168a.683.683 0 0 1-.144.014c-.076 0-.154-.009-.225-.014-.189 0-.369-.009-.558-.009-.198-.009-.405-.009-.603-.018l-.486-.009h-.225a.276.276 0 0 1-.27-.275l.018-.425.027-.647V40.95c0-.195 0-.381-.018-.567a3.332 3.332 0 0 0-.081-.479.995.995 0 0 0-.171-.337.326.326 0 0 0-.27-.124c-.243 0-.405.071-.468.204a.932.932 0 0 0-.099.399l-.081 3.838a.278.278 0 0 1-.279.275l-1.989.035a.263.263 0 0 1-.27-.266c0-.055 0-1.108.009-1.702v-1.702l-.027-1.587c-.018-.523-.036-1.064-.072-1.64l2.052-.044c.162 0 .288.12.297.257l.027.222.018.168.072.097.081-.044.045-.044c.072-.097.18-.186.306-.284.135-.08.279-.16.441-.213a1.6 1.6 0 0 1 .513-.08c.36 0 .657.08.891.239.126.089.243.186.333.31l.153.142.216-.151.216-.177.243-.16c.333-.195.72-.292 1.179-.292.603 0 1.098.097 1.476.284.378.186.684.443.9.771.216.339.369.729.45 1.19z" fill="#369642"/></g><g><defs><path id="S" d="M89.209 38.938v.56c-.009-.523-.036-1.064-.063-1.64v-.56c.027.577.054 1.117.063 1.64z"/></defs><clipPath id="T"><use xlink:href="#S" overflow="visible"/></clipPath><g clip-path="url(#T)"><path d="M89.209 38.938v.56c-.009-.523-.036-1.064-.063-1.64v-.56c.027.577.054 1.117.063 1.64" fill="#23662c"/></g><defs><path id="U" d="M92.692 39.568v.56a.339.339 0 0 0-.27-.124c-.252 0-.405.071-.468.204v-.56c.063-.133.216-.204.468-.204.117 0 .198.044.27.124z"/></defs><clipPath id="V"><use xlink:href="#U" overflow="visible"/></clipPath><g clip-path="url(#V)"><path d="M92.692 39.568v.56a.378.378 0 0 0-.118-.092v-.56a.367.367 0 0 1 .118.092" fill="#23662c"/><path d="M92.575 39.476v.56a.344.344 0 0 0-.152-.032c-.184 0-.315.038-.397.11v-.56c.082-.072.213-.11.397-.11.058 0 .108.011.152.032" fill="#24682d"/><path d="M92.025 39.554v.56a.296.296 0 0 0-.071.094v-.56a.285.285 0 0 1 .071-.094" fill="#23662c"/></g><defs><path id="W" d="M92.854 39.904v.56a1.19 1.19 0 0 0-.162-.337v-.56c.063.089.117.196.162.337z"/></defs><clipPath id="X"><use xlink:href="#W" overflow="visible"/></clipPath><g clip-path="url(#X)"><path d="M92.854 39.904v.56a1.19 1.19 0 0 0-.162-.337v-.56c.063.089.117.196.162.337" fill="#23662c"/></g><defs><path id="Y" d="M91.954 39.647v.56a.818.818 0 0 0-.099.399v-.56c0-.133.027-.266.099-.399z"/></defs><clipPath id="Z"><use xlink:href="#Y" overflow="visible"/></clipPath><g clip-path="url(#Z)"><path d="M91.954 39.647v.56a.818.818 0 0 0-.099.399v-.56c0-.133.027-.266.099-.399" fill="#23662c"/></g><defs><path id="aa" d="M92.944 40.383v.56a2.4 2.4 0 0 0-.09-.479v-.56a2.4 2.4 0 0 1 .09.479z"/></defs><clipPath id="ab"><use xlink:href="#aa" overflow="visible"/></clipPath><g clip-path="url(#ab)"><path d="M92.944 40.383v.56a2.4 2.4 0 0 0-.09-.479v-.56a2.4 2.4 0 0 1 .09.479" fill="#23662c"/></g><defs><path id="ac" d="M89.236 40.525v.56c0-.532-.009-1.064-.027-1.587v-.56c.018.523.027 1.055.027 1.587z"/></defs><clipPath id="ad"><use xlink:href="#ac" overflow="visible"/></clipPath><g clip-path="url(#ad)"><path d="M89.236 40.525v.56c0-.532-.009-1.064-.027-1.587v-.56c.018.523.027 1.055.027 1.587" fill="#23662c"/></g><defs><path id="ae" d="M92.962 40.95v.56c0-.195-.009-.381-.018-.567v-.56c.009.186.018.372.018.567z"/></defs><clipPath id="af"><use xlink:href="#ae" overflow="visible"/></clipPath><g clip-path="url(#af)"><path d="M92.962 40.95v.56c0-.195-.009-.381-.018-.567v-.56c.009.186.018.372.018.567" fill="#23662c"/></g><g><defs><path id="ag" d="M89.243 41.356v.56c0-.284-.002-.561-.007-.831v-.56c.005.27.007.547.007.831z"/></defs><clipPath id="ah"><use xlink:href="#ag" overflow="visible"/></clipPath><g clip-path="url(#ah)"><path d="M89.243 41.356v.56c0-.284-.002-.561-.007-.831v-.56c.005.27.007.547.007.831" fill="#23662c"/></g></g><g><defs><path id="ai" d="M96.751 40.507v.56c0-.381-.054-.656-.162-.815a.537.537 0 0 0-.468-.248c-.324 0-.522.222-.594.656-.081.443-.117 1.108-.117 2.003v-.56c0-.895.036-1.56.117-2.003.072-.434.27-.656.594-.656.198 0 .351.08.468.248.108.159.162.434.162.815z"/></defs><clipPath id="aj"><use xlink:href="#ai" overflow="visible"/></clipPath><g clip-path="url(#aj)"><path d="M96.751 40.507v.56c0-.381-.054-.656-.162-.815a.58.58 0 0 0-.22-.196v-.56a.559.559 0 0 1 .22.196c.108.159.162.434.162.815" fill="#23662c"/><path d="M96.369 39.496v.56a.567.567 0 0 0-.248-.052.506.506 0 0 0-.35.124v-.56a.51.51 0 0 1 .35-.124c.092 0 .175.017.248.052" fill="#24682d"/><path d="M95.772 39.567v.56c-.122.108-.204.286-.244.532-.081.443-.117 1.108-.117 2.003v-.56c0-.895.036-1.56.117-2.003.04-.246.122-.424.244-.532" fill="#23662c"/></g></g><g><path fill="#22642b" d="M91.855 40.046v.56l-.081 3.838v-.56z"/></g><g><defs><path id="ak" d="M96.234 44.299v-.56c0 .122.086.227.221.243v.56a.243.243 0 0 1-.221-.243z"/></defs><clipPath id="al"><use xlink:href="#ak" overflow="visible"/></clipPath><g clip-path="url(#al)"><path d="M96.454 43.982v.56a.28.28 0 0 1-.085-.024v-.56c.026.012.054.02.085.024" fill="#24682d"/><path d="M96.369 43.957v.56a.24.24 0 0 1-.136-.218v-.56a.24.24 0 0 0 .136.218" fill="#23662c"/></g></g><g><defs><path id="am" d="M91.774 43.884v.56a.29.29 0 0 1-.279.275v-.56a.29.29 0 0 0 .279-.275z"/></defs><clipPath id="an"><use xlink:href="#am" overflow="visible"/></clipPath><g clip-path="url(#an)"><path d="M91.774 43.884v.56a.302.302 0 0 1-.101.205v-.56a.294.294 0 0 0 .101-.205" fill="#23662c"/><path d="M91.674 44.089v.56a.272.272 0 0 1-.178.07v-.56a.272.272 0 0 0 .178-.07" fill="#24682d"/></g></g><g><path fill="#256a2e" d="M91.495 44.159v.559l-1.989.036v-.56z"/></g><g><defs><path id="ao" d="M89.236 44.503v-.56c0 .143.123.251.27.251v.56c-.147 0-.27-.108-.27-.251z"/></defs><clipPath id="ap"><use xlink:href="#ao" overflow="visible"/></clipPath><g clip-path="url(#ap)"><path d="M89.506 44.194v.56a.294.294 0 0 1-.126-.028v-.56a.294.294 0 0 0 .126.028" fill="#24682d"/><path d="M89.38 44.166v.56a.247.247 0 0 1-.144-.223v-.56c0 .1.059.182.144.223" fill="#23662c"/></g></g><g><path fill="#25692e" d="M98.803 44.274v.56l-2.349-.293v-.559z"/></g><g><defs><path id="aq" d="M99.172 41.012v.56c0 .514-.036 1.037-.108 1.578a36.284 36.284 0 0 1-.261 1.684v-.56c.099-.558.189-1.126.261-1.684.072-.541.108-1.064.108-1.578z"/></defs><clipPath id="ar"><use xlink:href="#aq" overflow="visible"/></clipPath><g clip-path="url(#ar)"><path d="M99.172 41.012v.56c0 .514-.036 1.037-.108 1.578a36.284 36.284 0 0 1-.261 1.684v-.56c.099-.558.189-1.126.261-1.684.072-.541.108-1.064.108-1.578" fill="#23662c"/></g></g><g><defs><path id="as" d="M92.917 44.592v-.56c0 .135.114.251.261.259v.56c-.147-.008-.261-.124-.261-.259z"/></defs><clipPath id="at"><use xlink:href="#as" overflow="visible"/></clipPath><g clip-path="url(#at)"><path d="M93.178 44.292v.56a.283.283 0 0 1-.109-.028v-.56c.033.016.07.025.109.028" fill="#24682d"/><path d="M93.069 44.264v.56a.26.26 0 0 1-.152-.231v-.56a.26.26 0 0 0 .152.231" fill="#23662c"/></g></g><g><path d="M98.596 38.3c.225.337.369.727.45 1.196.081.461.126.966.126 1.516 0 .514-.036 1.037-.108 1.578a36.284 36.284 0 0 1-.261 1.684l-2.349-.293a.243.243 0 0 1-.216-.292c.014-.061.288-1.223.378-1.79a9.21 9.21 0 0 0 .135-1.392c0-.381-.054-.656-.162-.815a.537.537 0 0 0-.468-.248c-.324 0-.522.222-.594.656-.081.443-.117 1.108-.117 2.003 0 .124 0 .275.009.479 0 .195.009.399.009.612.009.213.018.425.036.629.009.204.027.381.045.514l-2.331-.044c-.153-.009-.27-.133-.261-.275l.018-.425c.009-.213.018-.425.018-.647.009-.222.009-.496.009-.798V40.95c0-.195-.009-.381-.018-.567a2.4 2.4 0 0 0-.09-.479 1.19 1.19 0 0 0-.162-.337.339.339 0 0 0-.27-.124c-.252 0-.405.071-.468.204a.818.818 0 0 0-.099.399l-.081 3.838a.29.29 0 0 1-.279.275l-1.989.035c-.153 0-.279-.115-.27-.266v-1.702c.009-.594.009-1.161 0-1.702 0-.532-.009-1.064-.027-1.587-.009-.523-.036-1.064-.063-1.64l2.043-.044c.162 0 .289.12.306.257l.018.133.018.177.063.142.144-.089c.099-.08.198-.168.306-.239a1.66 1.66 0 0 1 .432-.222 1.64 1.64 0 0 1 .513-.08c.36 0 .657.08.9.239.135.097.261.213.351.346l.117.097.063-.009.162-.124.207-.177.261-.168c.324-.195.72-.292 1.17-.292.612 0 1.107.097 1.485.284.378.187.675.444.891.772z" fill="#369642"/></g><g><path fill="#256a2e" d="M95.509 44.336v.56l-2.331-.045v-.559z"/></g></g><g><defs><path id="au" d="M83.94 37.459v.56a.209.209 0 0 1-.004.043v-.56a.299.299 0 0 0 .004-.043z"/></defs><clipPath id="av"><use xlink:href="#au" overflow="visible"/></clipPath><g clip-path="url(#av)"><path d="M83.94 37.459v.56a.209.209 0 0 1-.004.043v-.56a.299.299 0 0 0 .004-.043" fill="#23662c"/></g><defs><path id="aw" d="M85.555 38.167v.56a48.502 48.502 0 0 0-.081-1.17v-.56c.036.452.063.842.081 1.17z"/></defs><clipPath id="ax"><use xlink:href="#aw" overflow="visible"/></clipPath><g clip-path="url(#ax)"><path d="M85.555 38.167v.56a48.502 48.502 0 0 0-.081-1.17v-.56c.036.452.063.842.081 1.17" fill="#23662c"/></g><defs><path id="ay" d="M83.935 37.503v.56c-.005.029-.099.576-.153 1.028v-.56c.054-.452.148-1 .153-1.028z"/></defs><clipPath id="az"><use xlink:href="#ay" overflow="visible"/></clipPath><g clip-path="url(#az)"><path d="M83.935 37.503v.56c-.005.029-.099.576-.153 1.028v-.56c.054-.452.148-1 .153-1.028" fill="#23662c"/></g><defs><path id="aA" d="M85.618 39.107v.56c-.018-.301-.036-.612-.063-.939v-.56c.027.327.045.637.063.939z"/></defs><clipPath id="aB"><use xlink:href="#aA" overflow="visible"/></clipPath><g clip-path="url(#aB)"><path d="M85.618 39.107v.56c-.018-.301-.036-.612-.063-.939v-.56c.027.327.045.637.063.939" fill="#23662c"/></g><defs><path id="aC" d="M83.782 38.531v.56c-.054.39-.099.824-.144 1.294v-.56c.045-.47.09-.904.144-1.294z"/></defs><clipPath id="aD"><use xlink:href="#aC" overflow="visible"/></clipPath><g clip-path="url(#aD)"><path d="M83.782 38.531v.56c-.054.39-.099.824-.144 1.294v-.56c.045-.47.09-.904.144-1.294" fill="#23662c"/></g><defs><path id="aE" d="M85.645 40.029v.56l-.027-.922v-.56l.027.922z"/></defs><clipPath id="aF"><use xlink:href="#aE" overflow="visible"/></clipPath><g clip-path="url(#aF)"><path d="M85.645 40.029v.56l-.027-.922v-.56l.027.922" fill="#23662c"/></g><g><defs><path id="aG" d="M85.654 41.154v.56c0-.434-.009-.807-.009-1.126v-.56c0 .32.009.692.009 1.126z"/></defs><clipPath id="aH"><use xlink:href="#aG" overflow="visible"/></clipPath><g clip-path="url(#aH)"><path d="M85.654 41.154v.56c0-.434-.009-.807-.009-1.126v-.56c0 .32.009.692.009 1.126" fill="#23662c"/></g></g><g><defs><path id="aI" d="M83.638 39.825v.56c-.054.47-.072.931-.072 1.418v-.56c0-.488.018-.949.072-1.418z"/></defs><clipPath id="aJ"><use xlink:href="#aI" overflow="visible"/></clipPath><g clip-path="url(#aJ)"><path d="M83.638 39.825v.56c-.054.47-.072.931-.072 1.418v-.56c0-.488.018-.949.072-1.418" fill="#23662c"/></g></g><g><path fill="#25692e" d="M85.798 43.787v.559l-.252.151v-.56z"/></g><g><defs><path id="aK" d="M85.869 43.943v.56c0-.073-.015-.14-.071-.157v-.56c.057.018.071.084.071.157z"/></defs><clipPath id="aL"><use xlink:href="#aK" overflow="visible"/></clipPath><g clip-path="url(#aL)"><path d="M85.869 43.943v.56c0-.068-.013-.13-.059-.152v-.56c.047.022.059.084.059.152" fill="#23662c"/><path d="M85.81 43.791v.56a.049.049 0 0 0-.011-.004v-.56l.011.004" fill="#24682d"/></g></g><g><defs><path id="aM" d="M85.546 43.937v.56a2.723 2.723 0 0 1-.432.266v-.56c.153-.08.297-.159.432-.266z"/></defs><clipPath id="aN"><use xlink:href="#aM" overflow="visible"/></clipPath><g clip-path="url(#aN)"><path d="M85.546 43.937v.56a2.723 2.723 0 0 1-.432.266v-.56c.153-.08.297-.159.432-.266" fill="#24682d"/></g></g><g><defs><path id="aO" d="M82.675 44.212v.56c-.405-.16-.738-.372-.999-.656a2.768 2.768 0 0 1-.567-1.037 4.6 4.6 0 0 1-.189-1.365v-.56c0 .505.063.957.189 1.365.126.408.315.753.567 1.037.261.284.594.496.999.656z"/></defs><clipPath id="aP"><use xlink:href="#aO" overflow="visible"/></clipPath><g clip-path="url(#aP)"><path d="M82.675 44.212v.56a3.704 3.704 0 0 1-.23-.1v-.56c.074.035.151.069.23.1" fill="#24682d"/><path d="M82.446 44.112v.56a2.503 2.503 0 0 1-.769-.556 2.768 2.768 0 0 1-.567-1.037 4.6 4.6 0 0 1-.189-1.365v-.56c0 .505.063.957.189 1.365.126.408.315.753.567 1.037.209.228.466.41.769.556" fill="#23662c"/></g></g><g><defs><path id="aQ" d="M85.114 44.203v.56a2.47 2.47 0 0 1-.495.168v-.56a2.47 2.47 0 0 0 .495-.168z"/></defs><clipPath id="aR"><use xlink:href="#aQ" overflow="visible"/></clipPath><g clip-path="url(#aR)"><path d="M85.114 44.203v.56a2.47 2.47 0 0 1-.495.168v-.56a2.47 2.47 0 0 0 .495-.168" fill="#24682d"/></g></g><g><defs><path id="aS" d="M86.122 44.416v.56a.263.263 0 0 1-.27-.266v-.56c0 .151.117.266.27.266z"/></defs><clipPath id="aT"><use xlink:href="#aS" overflow="visible"/></clipPath><g clip-path="url(#aT)"><path d="M86.122 44.416v.56a.287.287 0 0 1-.122-.027v-.56a.29.29 0 0 0 .122.027" fill="#24682d"/><path d="M86 44.389v.56a.261.261 0 0 1-.148-.239v-.56c0 .107.059.196.148.239" fill="#23662c"/></g></g><g><path fill="#256a2e" d="M88.363 44.372v.559l-2.241.044v-.559z"/></g><g><path d="M88.228 40.667c.027.576.045 1.17.072 1.764.018.603.045 1.25.063 1.941l-2.241.044a.263.263 0 0 1-.27-.266c0-.08.063-.328-.054-.363l-.252.151a2.723 2.723 0 0 1-.432.266 2.47 2.47 0 0 1-.495.168 1.957 1.957 0 0 1-.495.062c-.567 0-1.044-.071-1.449-.222-.405-.16-.738-.372-.999-.656a2.768 2.768 0 0 1-.567-1.037 4.6 4.6 0 0 1-.189-1.365c0-.355.018-.753.054-1.205.027-.425.072-.851.117-1.276.054-.47.108-.94.171-1.4l2.439-.027c.16 0 .26.12.234.257a31.696 31.696 0 0 0-.297 2.322c-.054.47-.072.931-.072 1.418 0 .266.081.496.243.691.162.195.405.284.729.284.306 0 .567-.089.783-.284.216-.195.333-.452.333-.78 0-.434-.009-.807-.009-1.126l-.027-.922c-.018-.301-.036-.612-.063-.939a48.502 48.502 0 0 0-.081-1.17l2.34-.044c.161 0 .279.12.288.266.001.053.027 1.064.054 1.666.027.603.045 1.197.072 1.782z" fill="#369642"/></g><g><defs><path id="aU" d="M84.619 44.372v.56a1.957 1.957 0 0 1-.495.062c-.567 0-1.044-.071-1.449-.222v-.56c.405.151.882.222 1.449.222.162 0 .324-.018.495-.062z"/></defs><clipPath id="aV"><use xlink:href="#aU" overflow="visible"/></clipPath><g clip-path="url(#aV)"><path d="M84.619 44.372v.56a1.957 1.957 0 0 1-.495.062c-.567 0-1.044-.071-1.449-.222v-.56c.405.151.882.222 1.449.222.162 0 .324-.018.495-.062" fill="#24682d"/></g></g></g><g><defs><path id="aW" d="M78.022 39.417v.56c-.189-.195-.486-.292-.882-.292-.135 0-.27.027-.414.089v-.56c.144-.062.279-.089.414-.089.396 0 .693.097.882.292z"/></defs><clipPath id="aX"><use xlink:href="#aW" overflow="visible"/></clipPath><g clip-path="url(#aX)"><path d="M78.022 39.417v.56a.827.827 0 0 0-.238-.169v-.56a.813.813 0 0 1 .238.169" fill="#23662c"/><path d="M77.784 39.248v.56a1.491 1.491 0 0 0-.644-.123c-.135 0-.27.027-.414.089v-.56c.144-.062.279-.089.414-.089.258 0 .473.041.644.123" fill="#24682d"/></g><defs><path id="aY" d="M76.726 39.213v.56a1.184 1.184 0 0 0-.369.266v-.56c.108-.115.234-.204.369-.266z"/></defs><clipPath id="aZ"><use xlink:href="#aY" overflow="visible"/></clipPath><g clip-path="url(#aZ)"><path d="M76.726 39.213v.56c-.103.047-.201.11-.289.188v-.56c.089-.078.187-.141.289-.188" fill="#24682d"/><path d="M76.437 39.401v.56a.978.978 0 0 0-.08.078v-.56c.026-.027.053-.053.08-.078" fill="#23662c"/></g><defs><path id="ba" d="M78.31 39.807v.56a1.426 1.426 0 0 0-.288-.39v-.56c.198.195.284.38.288.39z"/></defs><clipPath id="bb"><use xlink:href="#ba" overflow="visible"/></clipPath><g clip-path="url(#bb)"><path d="M78.31 39.807v.56c-.005-.01-.09-.195-.288-.39v-.56c.198.195.284.38.288.39" fill="#23662c"/></g><path fill="#256a2e" d="M80.407 39.568v.559l-1.719.426v-.56z"/><defs><path id="bc" d="M78.688 39.993v.56a.333.333 0 0 1-.378-.187v-.56a.335.335 0 0 0 .378.187z"/></defs><clipPath id="bd"><use xlink:href="#bc" overflow="visible"/></clipPath><g clip-path="url(#bd)"><path d="M78.688 39.993v.56a.333.333 0 0 1-.22-.026v-.56a.333.333 0 0 0 .22.026" fill="#24682d"/><path d="M78.469 39.968v.56a.326.326 0 0 1-.158-.161v-.56a.322.322 0 0 0 .158.161" fill="#23662c"/></g><g><defs><path id="be" d="M76.357 39.479v.56a1.432 1.432 0 0 0-.27.443 1.644 1.644 0 0 0-.108.629v-.56c0-.248.036-.452.108-.629.072-.177.162-.328.27-.443z"/></defs><clipPath id="bf"><use xlink:href="#be" overflow="visible"/></clipPath><g clip-path="url(#bf)"><path d="M76.357 39.479v.56a1.432 1.432 0 0 0-.27.443 1.644 1.644 0 0 0-.108.629v-.56c0-.248.036-.452.108-.629.072-.177.162-.328.27-.443" fill="#23662c"/></g></g><g><defs><path id="bg" d="M80.312 41.792v.56a.282.282 0 0 1-.012.08v-.56a.272.272 0 0 0 .012-.08z"/></defs><clipPath id="bh"><use xlink:href="#bg" overflow="visible"/></clipPath><g clip-path="url(#bh)"><path d="M80.312 41.792v.56a.282.282 0 0 1-.012.08v-.56a.272.272 0 0 0 .012-.08" fill="#23662c"/></g></g><g><defs><path id="bi" d="M73.729 42.049v.56a4.736 4.736 0 0 1-.207-1.392v-.56c0 .488.072.949.207 1.392z"/></defs><clipPath id="bj"><use xlink:href="#bi" overflow="visible"/></clipPath><g clip-path="url(#bj)"><path d="M73.729 42.049v.56a4.736 4.736 0 0 1-.207-1.392v-.56c0 .488.072.949.207 1.392" fill="#23662c"/></g></g><g><defs><path id="bk" d="M80.299 41.872v.56c-.009.03-.18.594-.396.931v-.56c.216-.337.387-.901.396-.931z"/></defs><clipPath id="bl"><use xlink:href="#bk" overflow="visible"/></clipPath><g clip-path="url(#bl)"><path d="M80.299 41.872v.56c-.009.03-.18.594-.396.931v-.56c.216-.337.387-.901.396-.931" fill="#23662c"/></g></g><g><path d="M76.357 39.479a1.432 1.432 0 0 0-.27.443 1.644 1.644 0 0 0-.108.629c0 .452.117.824.351 1.099.234.284.54.425.909.425a.907.907 0 0 0 .342-.08 1.886 1.886 0 0 0 .684-.523.98.98 0 0 0 .18-.408l1.674.47a.268.268 0 0 1 .18.337c-.009.03-.18.594-.396.931a3.054 3.054 0 0 1-1.683 1.321c-.342.106-.702.16-1.053.16-.639 0-1.188-.097-1.638-.292a3.189 3.189 0 0 1-1.134-.789 3.295 3.295 0 0 1-.666-1.152 4.736 4.736 0 0 1-.207-1.392c0-.558.072-1.064.234-1.516a3.025 3.025 0 0 1 1.818-1.905 4.275 4.275 0 0 1 1.521-.257c.927 0 1.665.239 2.223.718.549.47.909 1.099 1.089 1.87l-1.719.425a.333.333 0 0 1-.378-.187c-.005-.01-.09-.195-.288-.39-.189-.195-.486-.292-.882-.292-.135 0-.27.027-.414.089a1.184 1.184 0 0 0-.369.266z" fill="#369642"/></g><g><defs><path id="bm" d="M79.903 42.803v.56a3.054 3.054 0 0 1-1.683 1.321c-.342.106-.702.16-1.053.16-.639 0-1.188-.097-1.638-.292a3.189 3.189 0 0 1-1.134-.789 3.295 3.295 0 0 1-.666-1.152v-.56c.144.434.369.815.666 1.152.297.328.675.594 1.134.789.45.195.999.292 1.638.292a3.55 3.55 0 0 0 1.053-.16c.342-.106.657-.275.936-.488.288-.222.54-.496.747-.833z"/></defs><clipPath id="bn"><use xlink:href="#bm" overflow="visible"/></clipPath><g clip-path="url(#bn)"><path d="M79.903 42.803v.56a3.106 3.106 0 0 1-.586.701v-.56c.222-.197.419-.429.586-.701" fill="#23662c"/><path d="M79.317 43.503v.56a3.04 3.04 0 0 1-1.097.62c-.342.106-.702.16-1.053.16-.639 0-1.188-.097-1.638-.292-.054-.023-.106-.047-.158-.071v-.56c.052.025.104.049.158.071.45.195.999.292 1.638.292a3.55 3.55 0 0 0 1.053-.16 3.018 3.018 0 0 0 1.097-.62" fill="#24682d"/><path d="M75.372 43.919v.56a3.134 3.134 0 0 1-.976-.717 3.295 3.295 0 0 1-.666-1.152v-.56c.144.434.369.815.666 1.152.262.289.587.53.976.717" fill="#23662c"/></g></g></g><g><defs><path id="bo" d="M70.561 36.767v.56a4.492 4.492 0 0 0-.612-.23 1.867 1.867 0 0 0-.504-.071c-.171 0-.297.035-.378.124v-.56c.081-.089.207-.124.378-.124.144 0 .315.018.504.071.189.053.396.132.612.23z"/></defs><clipPath id="bp"><use xlink:href="#bo" overflow="visible"/></clipPath><g clip-path="url(#bp)"><path d="M70.561 36.767v.56a4.492 4.492 0 0 0-.612-.23 1.867 1.867 0 0 0-.504-.071c-.155 0-.273.029-.354.101v-.56c.081-.072.199-.101.354-.101.144 0 .315.018.504.071.189.053.396.132.612.23" fill="#24682d"/><path d="M69.091 36.566v.56l-.024.023v-.56l.024-.023" fill="#23662c"/></g><defs><path id="bq" d="M69.067 36.59v.56a.425.425 0 0 0-.117.319v-.56c0-.133.036-.24.117-.319z"/></defs><clipPath id="br"><use xlink:href="#bq" overflow="visible"/></clipPath><g clip-path="url(#br)"><path d="M69.067 36.59v.56a.425.425 0 0 0-.117.319v-.56c0-.133.036-.24.117-.319" fill="#23662c"/></g><defs><path id="bs" d="M71.236 37.139v.56a7.284 7.284 0 0 0-.675-.372v-.56c.225.106.441.23.675.372z"/></defs><clipPath id="bt"><use xlink:href="#bs" overflow="visible"/></clipPath><g clip-path="url(#bt)"><path d="M71.236 37.139v.56a7.452 7.452 0 0 0-.647-.359v-.56c.215.103.423.223.647.359" fill="#23662c"/><path d="M70.589 36.78v.56l-.028-.013v-.56l.028.013" fill="#24682d"/></g><path fill="#23662c" d="M72.847 36.164v.56l-.819 1.249v-.559z"/><defs><path id="bu" d="M71.668 37.467v.56a5.068 5.068 0 0 0-.432-.328v-.56c.225.151.422.319.432.328z"/></defs><clipPath id="bv"><use xlink:href="#bu" overflow="visible"/></clipPath><g clip-path="url(#bv)"><path d="M71.668 37.467v.56a5.068 5.068 0 0 0-.432-.328v-.56c.225.151.422.319.432.328" fill="#23662c"/></g><g><defs><path id="bw" d="M72.028 37.414v.56a.241.241 0 0 1-.202.112.245.245 0 0 1-.158-.059v-.56a.239.239 0 0 0 .36-.053z"/></defs><clipPath id="bx"><use xlink:href="#bw" overflow="visible"/></clipPath><g clip-path="url(#bx)"><path d="M72.028 37.414v.56a.228.228 0 0 1-.045.052v-.56a.251.251 0 0 0 .045-.052" fill="#23662c"/><path d="M71.983 37.466v.56a.237.237 0 0 1-.261.036v-.56a.232.232 0 0 0 .261-.036" fill="#24682d"/><path d="M71.723 37.502v.56a.299.299 0 0 1-.055-.035v-.56a.254.254 0 0 0 .055.035" fill="#23662c"/></g></g><g><defs><path id="by" d="M68.815 40.667v.56c-.297-.168-.612-.363-.945-.558a5.689 5.689 0 0 1-.945-.709 3.963 3.963 0 0 1-.729-.939c-.198-.346-.288-.753-.288-1.214v-.56c0 .461.09.869.288 1.214.198.355.441.665.729.939.288.266.603.505.945.709.333.194.648.389.945.558z"/></defs><clipPath id="bz"><use xlink:href="#by" overflow="visible"/></clipPath><g clip-path="url(#bz)"><path d="M68.815 40.667v.56c-.297-.168-.612-.363-.945-.558a5.689 5.689 0 0 1-.945-.709 3.963 3.963 0 0 1-.729-.939c-.198-.346-.288-.753-.288-1.214v-.56c0 .461.09.869.288 1.214.198.355.441.665.729.939.288.266.603.505.945.709.333.194.648.389.945.558" fill="#23662c"/></g></g><g><defs><path id="bA" d="M69.544 41.163v.56a7.057 7.057 0 0 0-.729-.496v-.56c.288.177.531.336.729.496z"/></defs><clipPath id="bB"><use xlink:href="#bA" overflow="visible"/></clipPath><g clip-path="url(#bB)"><path d="M69.544 41.163v.56a7.057 7.057 0 0 0-.729-.496v-.56c.288.177.531.336.729.496" fill="#23662c"/></g></g><g><defs><path id="bC" d="M69.832 41.668v.56c0-.177-.099-.346-.288-.505v-.56c.189.16.288.328.288.505z"/></defs><clipPath id="bD"><use xlink:href="#bC" overflow="visible"/></clipPath><g clip-path="url(#bD)"><path d="M69.832 41.668v.56c0-.177-.099-.346-.288-.505v-.56c.189.16.288.328.288.505" fill="#23662c"/></g></g><g><path d="M71.875 39.045c.297.275.54.594.738.975.198.381.297.833.297 1.356 0 .505-.108.948-.324 1.312a2.832 2.832 0 0 1-.837.913 3.646 3.646 0 0 1-1.161.532 4.79 4.79 0 0 1-1.314.177c-.873 0-1.611-.16-2.205-.479-.594-.319-1.134-.798-1.611-1.445l1.017-1.259a.242.242 0 0 1 .184-.091c.062 0 .124.027.176.082.006.006.117.124.315.284.198.151.414.284.648.399.225.115.468.213.711.293.243.071.468.115.684.115.207 0 .369-.044.477-.115.108-.08.162-.213.162-.425 0-.177-.099-.346-.288-.505a7.057 7.057 0 0 0-.729-.496c-.297-.168-.612-.363-.945-.558a5.689 5.689 0 0 1-.945-.709 3.963 3.963 0 0 1-.729-.939c-.198-.346-.288-.753-.288-1.214 0-.443.081-.842.252-1.179.171-.337.405-.62.693-.851.288-.23.63-.399 1.008-.514a3.874 3.874 0 0 1 1.215-.177c.765 0 1.449.133 2.052.417a5.898 5.898 0 0 1 1.719 1.223l-.819 1.25a.241.241 0 0 1-.202.112.245.245 0 0 1-.158-.059 5.068 5.068 0 0 0-.432-.328 7.284 7.284 0 0 0-.675-.372 4.492 4.492 0 0 0-.612-.23 1.867 1.867 0 0 0-.504-.071c-.171 0-.297.035-.378.124a.425.425 0 0 0-.117.319c0 .168.099.328.288.47.198.151.441.301.738.452.324.168.639.337.954.523.333.182.648.413.945.688z" fill="#369642"/></g><g><defs><path id="bE" d="M72.91 41.376v.56c0 .505-.108.948-.324 1.312a2.832 2.832 0 0 1-.837.913 3.646 3.646 0 0 1-1.161.532 4.79 4.79 0 0 1-1.314.177c-.873 0-1.611-.16-2.205-.479-.594-.319-1.134-.798-1.611-1.445v-.56c.477.647 1.017 1.126 1.611 1.445.594.319 1.332.479 2.205.479a4.79 4.79 0 0 0 1.314-.177 3.624 3.624 0 0 0 1.161-.532c.342-.239.621-.541.837-.913.216-.364.324-.807.324-1.312z"/></defs><clipPath id="bF"><use xlink:href="#bE" overflow="visible"/></clipPath><g clip-path="url(#bF)"><path d="M72.91 41.376v.56c0 .505-.108.948-.324 1.312a2.849 2.849 0 0 1-.579.71v-.56c.227-.201.42-.436.579-.71.216-.364.324-.807.324-1.312" fill="#23662c"/><path d="M72.008 43.397v.56c-.082.072-.168.14-.258.203a3.646 3.646 0 0 1-1.161.532 4.79 4.79 0 0 1-1.314.177c-.809 0-1.501-.137-2.071-.411v-.56c.57.274 1.263.411 2.071.411a4.79 4.79 0 0 0 1.314-.177 3.624 3.624 0 0 0 1.161-.532c.09-.063.176-.131.258-.203" fill="#24682d"/><path d="M67.203 43.899v.56c-.045-.022-.09-.044-.134-.068-.594-.319-1.134-.798-1.611-1.445v-.56c.477.647 1.017 1.126 1.611 1.445a5.6 5.6 0 0 0 .134.068" fill="#23662c"/></g></g></g></g></g><g><path d="M74.731 51.97l.55-.585-.463-.52a.879.879 0 0 1-.098-.13.2.2 0 0 1-.033-.104c0-.034.021-.065.063-.092a.277.277 0 0 1 .153-.041c.069 0 .123.015.162.045s.092.085.16.165l.369.435.394-.435.083-.094a.486.486 0 0 1 .066-.064.214.214 0 0 1 .071-.039.282.282 0 0 1 .091-.013c.063 0 .114.014.153.041.04.027.06.06.06.097 0 .055-.043.128-.129.222l-.483.527.522.585a.965.965 0 0 1 .102.127.183.183 0 0 1 .032.096c0 .028-.009.055-.028.078s-.046.042-.081.056-.074.021-.117.021a.298.298 0 0 1-.119-.021c-.033-.014-.059-.032-.079-.053l-.112-.123-.433-.496-.459.511a3.429 3.429 0 0 1-.077.085.368.368 0 0 1-.054.048.234.234 0 0 1-.076.037.346.346 0 0 1-.102.013.26.26 0 0 1-.15-.04.133.133 0 0 1-.06-.117c-.001-.061.04-.135.122-.222z" fill="#9e9ea1"/></g><g><path d="M236.541 214.571c-13.547 0-24.541-10.995-24.541-24.541 0-13.547 10.995-24.541 24.541-24.541s24.541 10.995 24.541 24.541c.001 13.547-10.994 24.541-24.541 24.541zm3.608-24.541c0-1.988-1.62-3.608-3.608-3.608s-3.608 1.644-3.608 3.608c0 1.988 1.595 3.608 3.608 3.608s3.608-1.62 3.608-3.608z" fill="#070308"/><path d="M236.541 165.881c-13.326 0-24.149 10.823-24.149 24.149s10.823 24.149 24.149 24.149 24.149-10.823 24.149-24.149-10.823-24.149-24.149-24.149zm18.333 38.187c-4.221 5.497-10.847 9.056-18.332 9.056s-14.087-3.534-18.332-9.056c-2.994-3.878-4.761-8.761-4.761-14.038 0-12.761 10.332-23.093 23.093-23.093s23.093 10.332 23.093 23.093c0 5.277-1.767 10.16-4.761 14.038z" fill="#fff"/><path d="M236.541 166.937c-12.761 0-23.093 10.332-23.093 23.093 0 5.276 1.767 10.16 4.761 14.038h36.665c2.994-3.878 4.761-8.761 4.761-14.038 0-12.761-10.332-23.093-23.094-23.093zm0 30.505c-4.098 0-7.411-3.338-7.411-7.411s3.313-7.411 7.411-7.411 7.411 3.338 7.411 7.411-3.312 7.411-7.411 7.411z" fill="#598977"/><path d="M236.541 182.619c-4.098 0-7.411 3.338-7.411 7.411 0 4.074 3.313 7.411 7.411 7.411s7.411-3.338 7.411-7.411c.001-4.074-3.312-7.411-7.411-7.411zm0 14.283c-3.804 0-6.872-3.092-6.872-6.872 0-3.779 3.092-6.872 6.872-6.872s6.872 3.092 6.872 6.872c0 3.779-3.068 6.872-6.872 6.872z" fill="#369742"/><path d="M236.541 183.159c-3.804 0-6.872 3.092-6.872 6.872 0 3.779 3.092 6.872 6.872 6.872s6.872-3.092 6.872-6.872-3.068-6.872-6.872-6.872zm0 13.325a6.446 6.446 0 0 1-6.454-6.454c0-3.583 2.896-6.454 6.454-6.454s6.454 2.871 6.454 6.454a6.445 6.445 0 0 1-6.454 6.454z" fill="#939597"/><path d="M236.541 183.576a6.446 6.446 0 0 0-6.454 6.454c0 3.583 2.871 6.454 6.454 6.454s6.454-2.871 6.454-6.454a6.445 6.445 0 0 0-6.454-6.454zm0 9.841c-1.988 0-3.608-1.595-3.608-3.608s1.595-3.608 3.608-3.608 3.608 1.62 3.608 3.608a3.598 3.598 0 0 1-3.608 3.608z" fill="#58595b" stroke="#383839" stroke-width=".564" stroke-miterlimit="10"/><g><path d="M246.933 201.066a.408.408 0 0 0-.279-.145l-.668-.058a.473.473 0 0 0-.444.238l-1.321 2.412-.704-2.612a.462.462 0 0 0-.392-.333l-.736-.074a.414.414 0 0 0-.452.352l-.641 4.301a.412.412 0 0 0 .082.311.41.41 0 0 0 .283.153l.594.052a.416.416 0 0 0 .448-.357l.166-1.198.4 1.375c.05.173.211.307.39.326l.396.042a.472.472 0 0 0 .448-.228l.706-1.224-.098 1.144-.002.035c0 .208.159.389.37.41l.712.074a.41.41 0 0 0 .45-.371l.386-4.325a.402.402 0 0 0-.094-.3zm-.708 4.681l-.344-.036-.056-.006-.312-.032a.096.096 0 0 1-.085-.103l.126-1.466.005-.056.082-.953c.004-.051-.013-.057-.039-.012l-1.373 2.381a.158.158 0 0 1-.139.071l-.396-.042a.15.15 0 0 1-.119-.1l-.285-.979-.016-.056-.488-1.675c-.014-.049-.032-.048-.039.003l-.208 1.5-.008.056-.054.388-.008.055-.08.576a.099.099 0 0 1-.106.084l-.594-.052a.086.086 0 0 1-.079-.1l.089-.599.008-.055.055-.372.008-.056.291-1.952.008-.056.18-1.211a.1.1 0 0 1 .107-.083l.736.074c.051.005.104.05.117.1l.203.754.015.056.409 1.516.015.056.243.903c.013.05.045.053.069.008l1.284-2.345.031-.056.34-.622a.158.158 0 0 1 .138-.074l.22.019.057.005.391.034c.051.005.089.05.085.101l-.108 1.214-.005.056-.216 2.424-.005.056-.051.575a.093.093 0 0 1-.1.084h.001z" fill="#333"/><path d="M246.326 205.663l.051-.575.005-.056.216-2.424.005-.056.108-1.214a.093.093 0 0 0-.085-.101l-.391-.034-.057-.005-.22-.019a.158.158 0 0 0-.138.074l-.34.622-.031.056-1.284 2.345c-.025.045-.056.041-.069-.008l-.243-.903-.015-.056-.409-1.516-.015-.056-.203-.754a.147.147 0 0 0-.117-.1l-.736-.074a.1.1 0 0 0-.107.083l-.18 1.211-.008.056-.291 1.952-.008.056-.055.372-.008.055-.089.599a.086.086 0 0 0 .079.1l.594.052a.1.1 0 0 0 .106-.084l.08-.576.008-.055.054-.388.008-.056.208-1.5c.007-.051.025-.052.039-.003l.488 1.675.016.056.285.979a.153.153 0 0 0 .119.1l.396.042a.157.157 0 0 0 .139-.071l1.373-2.381c.026-.044.043-.039.039.012l-.082.953-.005.056-.126 1.466a.097.097 0 0 0 .085.103l.312.032.056.006.344.036h.001a.092.092 0 0 0 .098-.084z" fill="#b6b5b5"/><g fill="#333"><path d="M246.125 205.032l-.007.016-.047.094-.185.024-.023.003-.002.023-.036.513.056.006.034-.492.179-.023.014-.002.007-.014.045-.092h.217l.005-.056zM241.699 204.594l.77.092.008-.056-.769-.091zM243.468 203.365h.385l-.015-.056h-.427v1.05h-.137l.016.056h.178zM246 201.911l.236-.708-.057-.005-.225.677h-.473l-.031.056h.544zM246.088 202.55l-.006.021-.166.601-.001.004v.004l-.003.869h-.353l-.004.056h.413v-.028l.003-.893.16-.578.467.002.005-.056-.494-.002zM242.471 202.139l.11-.346h.848l-.015-.056h-.874l-.006.019-.11.347h-.353l-.009.056h.403zM242.024 204.116l-.006-.003h-.007l-.24-.002-.008.056.241.002.129.07.007.004h.391l.007-.057h-.384z"/></g><path d="M241.982 200.453a.316.316 0 0 0-.284-.083l-.867.175a.319.319 0 0 0-.252.268l-.285 2.072a2995.59 2995.59 0 0 1-1.031-1.835.318.318 0 0 0-.341-.155l-.97.2a.317.317 0 0 0-.209.473l2.38 4.009a.317.317 0 0 0 .332.15l.582-.11a.317.317 0 0 0 .254-.259l.782-4.624a.313.313 0 0 0-.091-.281zm-.988 4.759a.144.144 0 0 1-.107.109l-.399.075a.142.142 0 0 1-.139-.063l-.282-.475-.029-.049-.621-1.046-.029-.049-.966-1.628-.033-.056-.324-.546c-.026-.044-.006-.089.044-.099l.787-.163c.05-.01.112.018.137.063l.165.294.031.056.846 1.506.028.05.331.59c.025.045.051.04.058-.011l.262-1.906.008-.056.118-.86a.141.141 0 0 1 .104-.111l.259-.052.056-.011.368-.074c.05-.01.085.023.076.074l-.301 1.778-.01.056-.131.775-.01.056-.102.604-.014.082-.181 1.087z" fill="#333"/><path d="M241.192 204.042l.102-.604.01-.056.131-.775.01-.056.301-1.778c.009-.051-.026-.084-.076-.074l-.368.074-.056.011-.259.052a.141.141 0 0 0-.104.111l-.118.86-.008.056-.262 1.906c-.007.051-.033.056-.058.011l-.331-.59-.028-.05-.846-1.506-.031-.056-.165-.294a.137.137 0 0 0-.137-.063l-.787.163c-.05.01-.07.055-.044.099l.324.546.033.056.966 1.628.029.049.621 1.046.029.049.282.475a.144.144 0 0 0 .139.063l.399-.075a.145.145 0 0 0 .107-.109l.184-1.088.011-.081z" fill="#b6b5b5"/><g fill="#333"><path d="M238.718 202.088v-.373h.264l.008-.012.05-.067h.189l-.031-.056h-.186l-.009.011-.049.068h-.292v.373h-.273l.033.056h.268zM241.038 201.857l.105-.087.01-.009v-.453l.067-.072.007-.008v-.154l.065-.058.01-.008v-.235l-.056.012v.198l-.065.058-.01.008v.157l-.066.071-.008.009v.449l-.087.073h-.246l-.008.056h.274zM241.104 202.728l-.073.072-.009.008v.012l-.002.591v.028h.275l.009-.056h-.227l.001-.551.074-.072.008-.008v-.145h.275l.01-.056h-.341zM240.782 204.207h-.01l-.007.006-.159.122-.011.008v.262l-.557.205.029.049.565-.208.019-.007v-.273l.14-.107.198.001h.01l.008-.006.172-.134.013-.083-.212.167zM240.076 203.142l-.688.573.029.049.687-.573z"/></g><path d="M239.132 202.819c.562.224.709.96.619 1.793-.039.361-.047.815-.401.865-.12.017-.256-.012-.382-.027-.113-.014-.243-.059-.355-.046-.068.008-.12.064-.182.082-.138.041-.31.018-.501.018-.116 0-.235.002-.337-.018-.062-.012-.125-.059-.191-.064-.061-.005-.122.029-.191.036-.185.02-.434.026-.628.009-.07-.006-.146-.046-.209-.046-.062.001-.132.047-.2.055-.243.027-.499-.094-.71-.073-.098.01-.198.097-.328.109a3.005 3.005 0 0 1-.683-.027c-.07-.013-.142-.059-.209-.064-.061-.004-.131.03-.2.036a4.515 4.515 0 0 1-.583.009c-.053-.003-.106-.021-.155-.018-.084.005-.167.063-.246.073a3.111 3.111 0 0 1-.646.009c-.071-.007-.143-.045-.218-.045-.102-.001-.197.047-.282.055-.492.043-.862-.193-1.111-.464-.11.053-.18.15-.282.219-.456.306-1.235.218-1.639-.1-.057-.045-.139-.183-.209-.182-.06.001-.164.141-.218.182a1.58 1.58 0 0 1-.865.31 1.659 1.659 0 0 1-1.256-.428c-.144-.134-.351-.355-.255-.628.049-.141.194-.285.3-.41.039-.046.098-.091.1-.137.005-.082-.129-.204-.164-.264a1.275 1.275 0 0 1-.055-1.065c.181-.407.66-.702 1.311-.655.248.018.503.094.719.218.309.177.629.341.528.81.13-.028.205-.12.319-.173.396-.183 1.029-.17 1.393.064.046.029.116.1.155.1.072.001.161-.145.228-.173.148-.063.625-.066.838-.045.085.008.171.067.237.064.071-.004.163-.092.218-.109.17-.052.692-.073.883-.018.063.018.13.092.2.1.067.008.155-.024.228-.027.136-.006.288-.016.419-.009.094.005.184.058.273.064.083.005.182-.037.273-.036.073.001.156.018.228.036.068.017.135.064.191.064.083-.001.172-.063.246-.082a1.36 1.36 0 0 1 .801.046c.059.022.165.119.228.118.074 0 .161-.129.228-.155.186-.073.461-.063.683-.055.1.004.189.059.282.064.083.004.171-.035.255-.036.08-.001.156.018.228.036.072.019.148.063.2.064.071.001.14-.055.2-.073.272-.081.599-.068.88.044z" fill="#333"/><g><defs><path id="bG" d="M236.512 203.474v.165c-.009-.151-.009-.31-.018-.479v-.165c.009.169.009.328.018.479z"/></defs><clipPath id="bH"><use xlink:href="#bG" overflow="visible"/></clipPath><g clip-path="url(#bH)"><path d="M236.512 203.474v.165c-.009-.151-.009-.31-.018-.479v-.165c.009.169.009.328.018.479" fill="#23662c"/></g><path fill="#24682d" d="M237.538 203.66v.165l-.081-.036v-.164z"/><path fill="#25692e" d="M237.457 203.625v.164l-.144.062v-.164z"/><path fill="#24682d" d="M238.681 203.696v.164l-.135-.071v-.164z"/><path fill="#22642b" d="M237.583 203.758v.164l-.045-.097v-.165zM237.313 203.687v.164l-.027.116v-.165z"/><defs><path id="bI" d="M238.546 203.625v.165c-.099 0-.153.062-.18.195v-.165c.027-.133.081-.195.18-.195z"/></defs><clipPath id="bJ"><use xlink:href="#bI" overflow="visible"/></clipPath><g clip-path="url(#bJ)"><path d="M238.546 203.625v.165a.152.152 0 0 0-.105.036v-.165a.154.154 0 0 1 .105-.036" fill="#24682d"/><path d="M238.441 203.661v.165c-.036.031-.059.084-.075.159v-.165c.016-.075.039-.128.075-.159" fill="#23662c"/></g><path fill="#22642b" d="M237.61 203.899v.165l-.027-.142v-.164z"/><defs><path id="bK" d="M238.726 203.935v.165c0-.106-.009-.186-.045-.239v-.165c.036.053.045.133.045.239z"/></defs><clipPath id="bL"><use xlink:href="#bK" overflow="visible"/></clipPath><g clip-path="url(#bL)"><path d="M238.726 203.935v.165c0-.106-.009-.186-.045-.239v-.165c.036.053.045.133.045.239" fill="#23662c"/></g><defs><path id="bM" d="M236.521 203.944v.165c0-.16-.009-.31-.009-.47v-.165c0 .16.009.31.009.47z"/></defs><clipPath id="bN"><use xlink:href="#bM" overflow="visible"/></clipPath><g clip-path="url(#bN)"><path d="M236.521 203.944v.165c0-.16-.009-.31-.009-.47v-.165c0 .16.009.31.009.47" fill="#23662c"/></g><defs><path id="bO" d="M238.366 203.82v.165a4.61 4.61 0 0 0-.027.585v-.165c0-.257.009-.461.027-.585z"/></defs><clipPath id="bP"><use xlink:href="#bO" overflow="visible"/></clipPath><g clip-path="url(#bP)"><path d="M238.366 203.82v.165a4.61 4.61 0 0 0-.027.585v-.165c0-.257.009-.461.027-.585" fill="#23662c"/></g><defs><path id="bQ" d="M239.437 204.086v.165c0 .151-.009.31-.027.47v-.165c.018-.16.027-.32.027-.47z"/></defs><clipPath id="bR"><use xlink:href="#bQ" overflow="visible"/></clipPath><g clip-path="url(#bR)"><path d="M239.437 204.086v.165c0 .151-.009.31-.027.47v-.165c.018-.16.027-.32.027-.47" fill="#23662c"/></g><path fill="#22642b" d="M239.41 204.555v.165l-.018.133v-.165zM239.392 204.688v.165l-.018.16v-.165zM237.286 203.802v.165l-.018 1.134v-.165zM239.374 204.848v.165l-.018.106v-.165z"/><path fill="#23652c" d="M238.645 204.963v.165l-.063-.089v-.165z"/><path fill="#25692e" d="M238.699 204.972v.165l-.054-.009v-.165z"/><defs><path id="bS" d="M238.978 204.998v.165l-.279-.027v-.165c.09.01.189.019.279.027z"/></defs><clipPath id="bT"><use xlink:href="#bS" overflow="visible"/></clipPath><g clip-path="url(#bT)"><path d="M238.978 204.998v.165l-.279-.027v-.165c.09.01.189.019.279.027" fill="#24682d"/></g><path fill="#24682d" d="M237.268 204.936v.165l-.09.08v-.165z"/><path fill="#256a2e" d="M237.178 205.016v.165l-.576.009v-.165z"/><path fill="#25692e" d="M239.158 205.025v.165l-.18-.027v-.165z"/><g><path fill="#23662c" d="M236.593 205.025v.165l-.072-.08v-.165z"/></g><g><path fill="#256a2e" d="M236.593 205.025h.009v.165h-.009z"/></g><g><path fill="#22642b" d="M239.356 204.954v.165l-.018.08v-.165z"/></g><g><path fill="#25692e" d="M239.266 205.043v.165l-.108-.018v-.165z"/></g><g><path fill="#256a2e" d="M239.338 205.034v.165l-.072.009v-.165z"/></g><g><path fill="#256a2e" d="M237.682 205.052h.063v.165h-.063z"/></g><g><path fill="#256a2e" d="M237.673 205.052h.009v.165h-.009z"/></g><g><path fill="#23662c" d="M237.673 205.052v.164l-.072-.079v-.165z"/></g><g><path fill="#256a2e" d="M237.889 205.061h.18v.165h-.18z"/></g><g><path fill="#256a2e" d="M238.069 205.061h.162v.165h-.162z"/></g><g><path fill="#23652b" d="M238.357 205.016v.165l-.018.044v-.164z"/></g><g><path fill="#256a2e" d="M238.231 205.061h.108v.165h-.108z"/></g><g><path fill="#256a2e" d="M237.889 205.061v.164l-.144-.009v-.164z"/></g><g><path d="M239.401 203.642c.027.133.036.284.036.443 0 .151-.009.31-.027.47l-.018.133-.018.16-.018.106-.018.08-.072.009-.108-.018-.18-.027-.279-.027-.054-.009-.063-.089c.004-.018.081-.363.108-.523.027-.168.036-.301.036-.417 0-.106-.009-.186-.045-.239l-.135-.071c-.099 0-.153.062-.18.195a4.61 4.61 0 0 0-.027.585V204.731l.009.186.009.097-.018.044h-.45l-.144-.009h-.072l-.072-.08v-.124l.009-.195v-.753l-.027-.142-.045-.098-.081-.035-.144.062-.027.115-.018 1.134-.09.08-.576.009h-.009l-.072-.08v-.496-.505c0-.159-.009-.31-.009-.47-.009-.151-.009-.31-.018-.479l.603-.018.09.08v.062l.009.053.018.027.027-.009.009-.018.09-.08.135-.062.144-.027a.51.51 0 0 1 .27.071l.099.089.045.044.063-.044.063-.053.072-.044a.595.595 0 0 1 .342-.089c.18 0 .324.027.441.089a.629.629 0 0 1 .261.222.86.86 0 0 1 .126.357z" fill="#369642"/></g><g><defs><path id="bU" d="M233.344 203.474v.165c0-.151-.009-.31-.018-.479v-.165c.009.169.018.328.018.479z"/></defs><clipPath id="bV"><use xlink:href="#bU" overflow="visible"/></clipPath><g clip-path="url(#bV)"><path d="M233.344 203.474v.165c0-.151-.009-.31-.018-.479v-.165c.009.169.018.328.018.479" fill="#23662c"/></g><path fill="#24682d" d="M234.37 203.66v.165l-.081-.036v-.164z"/><path fill="#25692e" d="M234.289 203.625v.164l-.135.062v-.164z"/><path fill="#24682d" d="M235.513 203.696v.164l-.135-.071v-.164z"/><path fill="#22652b" d="M234.424 203.758v.164l-.054-.097v-.165z"/><path fill="#22642b" d="M234.154 203.687v.164l-.027.116v-.165z"/><defs><path id="bW" d="M235.378 203.625v.165c-.09 0-.153.062-.171.195v-.165c.018-.133.081-.195.171-.195z"/></defs><clipPath id="bX"><use xlink:href="#bW" overflow="visible"/></clipPath><g clip-path="url(#bX)"><path d="M235.378 203.625v.165a.15.15 0 0 0-.101.036v-.165a.146.146 0 0 1 .101-.036" fill="#24682d"/><path d="M235.278 203.661v.165c-.036.031-.06.084-.07.159v-.165c.01-.075.034-.128.07-.159" fill="#23662c"/></g><path fill="#22642b" d="M234.442 203.899v.165l-.018-.142v-.164z"/><defs><path id="bY" d="M235.567 203.935v.165a.43.43 0 0 0-.054-.239v-.165a.43.43 0 0 1 .054.239z"/></defs><clipPath id="bZ"><use xlink:href="#bY" overflow="visible"/></clipPath><g clip-path="url(#bZ)"><path d="M235.567 203.935v.165a.43.43 0 0 0-.054-.239v-.165a.43.43 0 0 1 .054.239" fill="#23662c"/></g><defs><path id="ca" d="M233.353 203.944v.165c0-.16 0-.31-.009-.47v-.165c.009.16.009.31.009.47z"/></defs><clipPath id="cb"><use xlink:href="#ca" overflow="visible"/></clipPath><g clip-path="url(#cb)"><path d="M233.353 203.944v.165c0-.16 0-.31-.009-.47v-.165c.009.16.009.31.009.47" fill="#23662c"/></g><path fill="#22642b" d="M234.451 204.068v.165l-.009-.169v-.165z"/><defs><path id="cc" d="M235.207 203.82v.165a3.239 3.239 0 0 0-.036.585v-.165c0-.257.009-.452.036-.585z"/></defs><clipPath id="cd"><use xlink:href="#cc" overflow="visible"/></clipPath><g clip-path="url(#cd)"><path d="M235.207 203.82v.165a3.239 3.239 0 0 0-.036.585v-.165c0-.257.009-.452.036-.585" fill="#23662c"/></g><defs><path id="ce" d="M236.278 204.086v.165c0 .151-.009.31-.036.47v-.165c.027-.16.036-.32.036-.47z"/></defs><clipPath id="cf"><use xlink:href="#ce" overflow="visible"/></clipPath><g clip-path="url(#cf)"><path d="M236.278 204.086v.165c0 .151-.009.31-.036.47v-.165c.027-.16.036-.32.036-.47" fill="#23662c"/></g><g><path fill="#22642b" d="M234.127 203.802v.165l-.027 1.134v-.165z"/></g><g><path fill="#23652c" d="M235.477 204.963v.165l-.063-.089v-.165z"/></g><g><path fill="#24672d" d="M234.1 204.936v.165l-.081.08v-.165z"/></g><g><path fill="#23662c" d="M233.434 205.025v.165l-.081-.08v-.165z"/></g><g><path fill="#256a2e" d="M234.019 205.016v.165l-.585.009v-.165z"/></g><g><path fill="#25692e" d="M236.17 205.043v.165l-.693-.08v-.165z"/></g><g><defs><path id="cg" d="M236.242 204.555v.165c-.018.16-.045.328-.072.487v-.165c.027-.159.054-.327.072-.487z"/></defs><clipPath id="ch"><use xlink:href="#cg" overflow="visible"/></clipPath><g clip-path="url(#ch)"><path d="M236.242 204.555v.165c-.018.16-.045.328-.072.487v-.165c.027-.159.054-.327.072-.487" fill="#23662c"/></g></g><g><path fill="#23662c" d="M234.514 205.052v.164l-.081-.079v-.165z"/></g><g><path d="M236.107 203.288a.842.842 0 0 1 .135.355c.027.133.036.284.036.443 0 .151-.009.31-.036.47-.018.16-.045.328-.072.488l-.693-.08-.063-.089c.004-.018.081-.363.108-.523.027-.168.045-.301.045-.417a.43.43 0 0 0-.054-.239l-.135-.071c-.09 0-.153.062-.171.195a3.239 3.239 0 0 0-.036.585v.142l.009.186.009.186.009.151-.684-.018-.081-.08.009-.124.009-.195v-.585l-.009-.168-.018-.142-.054-.098-.081-.035-.135.062-.027.115-.027 1.134-.081.08-.585.009-.081-.08v-.496-.505c0-.159 0-.31-.009-.47 0-.151-.009-.31-.018-.479l.603-.018.09.08v.035l.009.053.018.044.045-.027.09-.071.126-.062.153-.027c.108 0 .189.027.261.071l.108.106.036.027h.018l.045-.044.063-.044.072-.053a.646.646 0 0 1 .351-.089.89.89 0 0 1 .432.089.646.646 0 0 1 .261.223z" fill="#369642"/></g><g><path fill="#256a2e" d="M235.198 205.069v.165l-.684-.018v-.164z"/></g></g><g><defs><path id="ci" d="M232.273 203.252v.165a14.661 14.661 0 0 1-.027-.346v-.165c.009.134.018.249.027.346z"/></defs><clipPath id="cj"><use xlink:href="#ci" overflow="visible"/></clipPath><g clip-path="url(#cj)"><path d="M232.273 203.252v.165a14.661 14.661 0 0 1-.027-.346v-.165c.009.134.018.249.027.346" fill="#23662c"/></g><defs><path id="ck" d="M231.796 203.057v.165c-.001.008-.027.168-.045.301v-.165c.018-.132.044-.292.045-.301z"/></defs><clipPath id="cl"><use xlink:href="#ck" overflow="visible"/></clipPath><g clip-path="url(#cl)"><path d="M231.796 203.057v.165c-.001.008-.027.168-.045.301v-.165c.018-.132.044-.292.045-.301" fill="#23662c"/></g><defs><path id="cm" d="M232.291 203.527v.165c-.009-.089-.009-.177-.018-.275v-.165c.009.098.009.187.018.275z"/></defs><clipPath id="cn"><use xlink:href="#cm" overflow="visible"/></clipPath><g clip-path="url(#cn)"><path d="M232.291 203.527v.165c-.009-.089-.009-.177-.018-.275v-.165c.009.098.009.187.018.275" fill="#23662c"/></g><defs><path id="co" d="M231.751 203.359v.165c-.018.115-.027.239-.045.381v-.165c.018-.142.027-.266.045-.381z"/></defs><clipPath id="cp"><use xlink:href="#co" overflow="visible"/></clipPath><g clip-path="url(#cp)"><path d="M231.751 203.359v.165c-.018.115-.027.239-.045.381v-.165c.018-.142.027-.266.045-.381" fill="#23662c"/></g><defs><path id="cq" d="M232.3 203.802v.165c0-.097-.009-.186-.009-.275v-.165c0 .089.009.177.009.275z"/></defs><clipPath id="cr"><use xlink:href="#cq" overflow="visible"/></clipPath><g clip-path="url(#cr)"><path d="M232.3 203.802v.165c0-.097-.009-.186-.009-.275v-.165c0 .089.009.177.009.275" fill="#23662c"/></g><defs><path id="cs" d="M231.706 203.74v.165c-.018.142-.018.275-.018.417v-.165c0-.142 0-.275.018-.417z"/></defs><clipPath id="ct"><use xlink:href="#cs" overflow="visible"/></clipPath><g clip-path="url(#ct)"><path d="M231.706 203.74v.165c-.018.142-.018.275-.018.417v-.165c0-.142 0-.275.018-.417" fill="#23662c"/></g><g><defs><path id="cu" d="M230.959 204.529v.165a1.337 1.337 0 0 1-.054-.399v-.165c0 .151.018.283.054.399z"/></defs><clipPath id="cv"><use xlink:href="#cu" overflow="visible"/></clipPath><g clip-path="url(#cv)"><path d="M230.959 204.529v.165a1.337 1.337 0 0 1-.054-.399v-.165c0 .151.018.283.054.399" fill="#23662c"/></g></g><g><defs><path id="cw" d="M231.13 204.839v.165a1.037 1.037 0 0 1-.171-.31v-.165c.045.124.099.221.171.31z"/></defs><clipPath id="cx"><use xlink:href="#cw" overflow="visible"/></clipPath><g clip-path="url(#cx)"><path d="M231.13 204.839v.165a1.037 1.037 0 0 1-.171-.31v-.165c.045.124.099.221.171.31" fill="#23662c"/></g></g><g><path fill="#25692e" d="M232.345 204.901v.165l-.072.044v-.165z"/></g><g><path fill="#22642b" d="M232.354 205.007v.165l-.009-.106v-.165z"/></g><g><defs><path id="cy" d="M231.427 205.025v.165a.762.762 0 0 1-.297-.186v-.165c.081.08.171.142.297.186z"/></defs><clipPath id="cz"><use xlink:href="#cy" overflow="visible"/></clipPath><g clip-path="url(#cz)"><path d="M231.427 205.025v.165a1.18 1.18 0 0 1-.086-.035v-.165a.964.964 0 0 0 .086.035" fill="#24682d"/><path d="M231.342 204.99v.165a.756.756 0 0 1-.211-.151v-.165c.061.06.127.111.211.151" fill="#23662c"/></g></g><g><path fill="#25692e" d="M232.273 204.945v.165l-.135.08v-.165z"/></g><g><path fill="#25692e" d="M232.138 205.025v.165l-.144.053v-.165z"/></g><g><path fill="#23662c" d="M232.435 205.087v.165l-.081-.08v-.165z"/></g><g><path fill="#256a2e" d="M233.101 205.078v.165l-.666.009v-.165z"/></g><g><path fill="#256a2e" d="M231.994 205.078v.165l-.144.018v-.165z"/></g><g><path d="M233.056 203.988l.027.514c0 .177.009.372.018.576l-.666.009-.081-.08-.009-.106-.072.044-.135.08-.144.053-.144.018a1.21 1.21 0 0 1-.423-.071.762.762 0 0 1-.297-.186 1.037 1.037 0 0 1-.171-.31 1.337 1.337 0 0 1-.054-.399c0-.106.009-.222.018-.355.009-.124.018-.248.036-.372.018-.142.027-.284.054-.417l.711-.009.072.08c-.001.008-.027.168-.045.301-.018.115-.027.239-.045.381-.018.142-.018.275-.018.417l.072.204c.045.053.117.08.216.08l.225-.08a.305.305 0 0 0 .099-.23v-.328c0-.097-.009-.186-.009-.275-.009-.089-.009-.177-.018-.275a14.661 14.661 0 0 1-.027-.346l.693-.018.081.08c0 .016.009.319.018.496.009.178.009.347.018.524z" fill="#369642"/></g><g><defs><path id="cA" d="M231.85 205.096v.165a1.21 1.21 0 0 1-.423-.071v-.165c.117.044.261.071.423.071z"/></defs><clipPath id="cB"><use xlink:href="#cA" overflow="visible"/></clipPath><g clip-path="url(#cB)"><path d="M231.85 205.096v.165a1.21 1.21 0 0 1-.423-.071v-.165c.117.044.261.071.423.071" fill="#24682d"/></g></g></g><g><path fill="#256a2e" d="M229.798 203.527v.165l-.126.026v-.164z"/><defs><path id="cC" d="M230.059 203.616v.165a.385.385 0 0 0-.261-.089v-.165c.117 0 .198.036.261.089z"/></defs><clipPath id="cD"><use xlink:href="#cC" overflow="visible"/></clipPath><g clip-path="url(#cD)"><path d="M230.059 203.616v.165a.364.364 0 0 0-.077-.05v-.165a.31.31 0 0 1 .077.05" fill="#23662c"/><path d="M229.982 203.565v.165a.415.415 0 0 0-.184-.038v-.165c.075 0 .134.014.184.038" fill="#24682d"/></g><path fill="#24682d" d="M229.672 203.554v.164l-.108.08v-.164z"/><path fill="#23652c" d="M230.14 203.731v.165l-.081-.116v-.164z"/><path fill="#23662c" d="M229.564 203.634v.164l-.081.133v-.164z"/><path fill="#24682d" d="M230.248 203.784v.165l-.108-.053v-.165z"/><path fill="#256a2e" d="M230.761 203.66v.165l-.513.124v-.165z"/><path fill="#22642b" d="M229.483 203.767v.164l-.027.186v-.164z"/><defs><path id="cE" d="M228.79 204.387v.165a1.436 1.436 0 0 1-.063-.408v-.165c0 .151.027.284.063.408z"/></defs><clipPath id="cF"><use xlink:href="#cE" overflow="visible"/></clipPath><g clip-path="url(#cF)"><path d="M228.79 204.387v.165a1.436 1.436 0 0 1-.063-.408v-.165c0 .151.027.284.063.408" fill="#23662c"/></g><defs><path id="cG" d="M230.725 204.343v.165c-.003.008-.054.168-.117.275v-.165c.063-.107.115-.267.117-.275z"/></defs><clipPath id="cH"><use xlink:href="#cG" overflow="visible"/></clipPath><g clip-path="url(#cH)"><path d="M230.725 204.343v.165c-.003.008-.054.168-.117.275v-.165c.063-.107.115-.267.117-.275" fill="#23662c"/></g><g><defs><path id="cI" d="M228.988 204.733v.165a.949.949 0 0 1-.198-.346v-.165a.949.949 0 0 0 .198.346z"/></defs><clipPath id="cJ"><use xlink:href="#cI" overflow="visible"/></clipPath><g clip-path="url(#cJ)"><path d="M228.988 204.733v.165a.949.949 0 0 1-.198-.346v-.165a.949.949 0 0 0 .198.346" fill="#23662c"/></g></g><g><defs><path id="cK" d="M230.608 204.617v.165a.945.945 0 0 1-.216.239v-.165a.912.912 0 0 0 .216-.239z"/></defs><clipPath id="cL"><use xlink:href="#cK" overflow="visible"/></clipPath><g clip-path="url(#cL)"><path d="M230.608 204.617v.165a.986.986 0 0 1-.172.203v-.165a.932.932 0 0 0 .172-.203" fill="#23662c"/><path d="M230.437 204.82v.165a.494.494 0 0 1-.044.036v-.165a.696.696 0 0 0 .044-.036" fill="#24682d"/></g></g><g><defs><path id="cM" d="M229.321 204.963v.165a.895.895 0 0 1-.333-.23v-.165c.09.097.198.177.333.23z"/></defs><clipPath id="cN"><use xlink:href="#cM" overflow="visible"/></clipPath><g clip-path="url(#cN)"><path d="M229.321 204.963v.165a1.554 1.554 0 0 1-.06-.026v-.165l.06.026" fill="#24682d"/><path d="M229.262 204.937v.165a.904.904 0 0 1-.273-.204v-.165a.904.904 0 0 0 .273.204" fill="#23662c"/></g></g><g><defs><path id="cO" d="M230.392 204.857v.165a.837.837 0 0 1-.279.142v-.165a.837.837 0 0 0 .279-.142z"/></defs><clipPath id="cP"><use xlink:href="#cO" overflow="visible"/></clipPath><g clip-path="url(#cP)"><path d="M230.392 204.857v.165a.837.837 0 0 1-.279.142v-.165a.837.837 0 0 0 .279-.142" fill="#24682d"/></g></g><g><path d="M229.564 203.634l-.081.133-.027.186c0 .133.036.239.099.319a.325.325 0 0 0 .27.124l.099-.018.108-.062.09-.089.054-.124.495.142.054.097c-.003.008-.054.168-.117.275a.945.945 0 0 1-.216.239.837.837 0 0 1-.279.142 1.16 1.16 0 0 1-.792-.036.895.895 0 0 1-.531-.576 1.385 1.385 0 0 1 .009-.851.86.86 0 0 1 .207-.337.932.932 0 0 1 .324-.222c.135-.053.288-.08.45-.08.279 0 .495.071.657.213.162.142.27.328.324.55l-.513.124-.108-.053-.081-.115a.385.385 0 0 0-.261-.089l-.126.027-.108.081z" fill="#369642"/></g><g><defs><path id="cQ" d="M230.113 204.998v.165a1.16 1.16 0 0 1-.792-.036v-.165c.135.062.297.089.486.089a.888.888 0 0 0 .306-.053z"/></defs><clipPath id="cR"><use xlink:href="#cQ" overflow="visible"/></clipPath><g clip-path="url(#cR)"><path d="M230.113 204.998v.165a1.16 1.16 0 0 1-.792-.036v-.165c.135.062.297.089.486.089a.888.888 0 0 0 .306-.053" fill="#24682d"/></g></g></g><g><path fill="#25692e" d="M227.683 202.774v.164l-.153-.026v-.165zM227.53 202.747v.165l-.108.035v-.164zM227.863 202.836v.165l-.18-.063v-.164z"/><path fill="#23652b" d="M227.422 202.783v.164l-.036.098v-.165z"/><path fill="#24682d" d="M228.061 202.951v.165l-.198-.115v-.165z"/><path fill="#23662c" d="M228.529 202.659v.164l-.234.373v-.165z"/><path fill="#256a2e" d="M228.295 203.031v.165l-.108.008v-.164z"/><path fill="#24672d" d="M228.187 203.04v.164l-.126-.088v-.165z"/><defs><path id="cS" d="M226.576 203.341v.165a.682.682 0 0 1-.09-.363v-.165a.68.68 0 0 0 .09.363z"/></defs><clipPath id="cT"><use xlink:href="#cS" overflow="visible"/></clipPath><g clip-path="url(#cT)"><path d="M226.576 203.341v.165a.682.682 0 0 1-.09-.363v-.165a.68.68 0 0 0 .09.363" fill="#23662c"/></g><defs><path id="cU" d="M226.792 203.616v.165a1.04 1.04 0 0 1-.216-.275v-.165c.054.098.126.195.216.275z"/></defs><clipPath id="cV"><use xlink:href="#cU" overflow="visible"/></clipPath><g clip-path="url(#cV)"><path d="M226.792 203.616v.165a1.04 1.04 0 0 1-.216-.275v-.165c.054.098.126.195.216.275" fill="#23662c"/></g><defs><path id="cW" d="M227.071 203.82v.165a2.228 2.228 0 0 1-.279-.204v-.165c.081.071.18.142.279.204z"/></defs><clipPath id="cX"><use xlink:href="#cW" overflow="visible"/></clipPath><g clip-path="url(#cX)"><path d="M227.071 203.82v.165a2.228 2.228 0 0 1-.279-.204v-.165c.081.071.18.142.279.204" fill="#23662c"/></g><defs><path id="cY" d="M227.341 203.988v.165c-.081-.053-.171-.106-.27-.168v-.165c.099.062.189.115.27.168z"/></defs><clipPath id="cZ"><use xlink:href="#cY" overflow="visible"/></clipPath><g clip-path="url(#cZ)"><path d="M227.341 203.988v.165c-.081-.053-.171-.106-.27-.168v-.165c.099.062.189.115.27.168" fill="#23662c"/></g><g><path fill="#24672d" d="M227.557 204.13v.165l-.216-.142v-.165z"/></g><g><path fill="#22652b" d="M227.647 204.281v.164l-.09-.15v-.165z"/></g><g><defs><path id="da" d="M228.547 204.192v.165a.758.758 0 0 1-.09.39v-.165a.758.758 0 0 0 .09-.39z"/></defs><clipPath id="db"><use xlink:href="#da" overflow="visible"/></clipPath><g clip-path="url(#db)"><path d="M228.547 204.192v.165a.758.758 0 0 1-.09.39v-.165a.758.758 0 0 0 .09-.39" fill="#23662c"/></g></g><g><defs><path id="dc" d="M228.457 204.582v.165a.8.8 0 0 1-.252.266v-.165a.8.8 0 0 0 .252-.266z"/></defs><clipPath id="dd"><use xlink:href="#dc" overflow="visible"/></clipPath><g clip-path="url(#dd)"><path d="M228.457 204.582v.165a.78.78 0 0 1-.161.196v-.165a.777.777 0 0 0 .161-.196" fill="#23662c"/><path d="M228.297 204.778v.165a.701.701 0 0 1-.091.069v-.165a.777.777 0 0 0 .091-.069" fill="#24682d"/></g></g><g><defs><path id="de" d="M226.828 204.919v.165a1.506 1.506 0 0 1-.468-.425v-.165c.135.185.297.327.468.425z"/></defs><clipPath id="df"><use xlink:href="#de" overflow="visible"/></clipPath><g clip-path="url(#df)"><path d="M226.828 204.919v.165a1.506 1.506 0 0 1-.468-.425v-.165c.135.185.297.327.468.425" fill="#23662c"/></g></g><g><defs><path id="dg" d="M228.205 204.848v.165a1 1 0 0 1-.342.159v-.165a1 1 0 0 0 .342-.159z"/></defs><clipPath id="dh"><use xlink:href="#dg" overflow="visible"/></clipPath><g clip-path="url(#dh)"><path d="M228.205 204.848v.165a1.02 1.02 0 0 1-.342.16v-.165a1.02 1.02 0 0 0 .342-.16" fill="#24682d"/></g></g><g><defs><path id="di" d="M227.863 205.007v.165a1.407 1.407 0 0 1-.378.053 1.46 1.46 0 0 1-.657-.142v-.165c.18.089.396.142.657.142.126.001.252-.017.378-.053z"/></defs><clipPath id="dj"><use xlink:href="#di" overflow="visible"/></clipPath><g clip-path="url(#dj)"><path d="M227.863 205.007v.165a1.407 1.407 0 0 1-.378.053c-.256 0-.468-.051-.646-.137v-.165c.178.085.39.137.646.137.126.001.252-.017.378-.053" fill="#24682d"/><path fill="#23662c" d="M226.839 204.924v.165l-.011-.006v-.164l.011.005"/></g></g><g><path d="M228.25 203.509c.081.08.153.177.216.284.054.115.081.248.081.399s-.027.284-.09.39a.8.8 0 0 1-.252.266 1 1 0 0 1-.342.159 1.407 1.407 0 0 1-.378.053 1.46 1.46 0 0 1-.657-.142 1.506 1.506 0 0 1-.468-.425l.297-.372h.108l.09.08.189.124.216.08.198.035.144-.035.045-.124-.09-.151-.216-.142c-.081-.053-.171-.106-.27-.168a2.228 2.228 0 0 1-.279-.204 1.04 1.04 0 0 1-.216-.275.682.682 0 0 1-.09-.363c0-.133.027-.248.081-.346a.755.755 0 0 1 .495-.399c.117-.035.234-.053.36-.053.225 0 .423.035.603.124.18.08.351.195.504.355l-.234.372-.108.009-.126-.089-.198-.115-.18-.062-.153-.027-.108.035-.036.098.081.142.216.133c.099.044.189.098.288.151.099.053.189.124.279.203z" fill="#369642"/></g></g></g></g><g><path d="M288.062 214.571c-13.547 0-24.541-10.995-24.541-24.541 0-13.547 10.995-24.541 24.541-24.541 13.547 0 24.541 10.995 24.541 24.541 0 13.547-10.97 24.541-24.541 24.541zm3.608-24.541a3.614 3.614 0 0 0-3.608-3.608c-1.988 0-3.583 1.644-3.583 3.608 0 1.988 1.595 3.608 3.608 3.608s3.583-1.62 3.583-3.608z" fill="#070308"/><path d="M288.062 165.881c-13.326 0-24.149 10.823-24.149 24.149s10.823 24.149 24.149 24.149 24.149-10.823 24.149-24.149-10.823-24.149-24.149-24.149zm18.332 38.187c-4.221 5.497-10.847 9.056-18.332 9.056s-14.087-3.534-18.332-9.056c-2.994-3.878-4.761-8.761-4.761-14.038 0-12.761 10.332-23.093 23.093-23.093 12.762 0 23.093 10.332 23.093 23.093 0 5.277-1.767 10.16-4.761 14.038z" fill="#fff"/><path d="M288.062 166.937c-12.761 0-23.093 10.332-23.093 23.093 0 5.276 1.767 10.16 4.761 14.038h36.665c2.994-3.878 4.761-8.761 4.761-14.038-.001-12.761-10.332-23.093-23.094-23.093zm0 30.505c-4.098 0-7.411-3.338-7.411-7.411s3.313-7.411 7.411-7.411 7.411 3.338 7.411 7.411-3.288 7.411-7.411 7.411z" fill="#989d77"/><path d="M288.062 182.619c-4.098 0-7.411 3.338-7.411 7.411 0 4.074 3.313 7.411 7.411 7.411 4.098 0 7.411-3.338 7.411-7.411a7.403 7.403 0 0 0-7.411-7.411zm0 14.283c-3.804 0-6.872-3.092-6.872-6.872 0-3.779 3.092-6.872 6.872-6.872 3.779 0 6.872 3.092 6.872 6.872 0 3.779-3.068 6.872-6.872 6.872z" fill="#d2b741"/><path d="M288.062 183.159c-3.804 0-6.872 3.092-6.872 6.872 0 3.779 3.092 6.872 6.872 6.872 3.779 0 6.872-3.092 6.872-6.872s-3.068-6.872-6.872-6.872zm0 13.325a6.446 6.446 0 0 1-6.454-6.454 6.43 6.43 0 0 1 6.454-6.454 6.43 6.43 0 0 1 6.454 6.454 6.43 6.43 0 0 1-6.454 6.454z" fill="#939597"/><path d="M288.062 183.576a6.446 6.446 0 0 0-6.454 6.454 6.43 6.43 0 0 0 6.454 6.454 6.43 6.43 0 0 0 6.454-6.454 6.43 6.43 0 0 0-6.454-6.454zm0 9.841c-1.988 0-3.608-1.595-3.608-3.608s1.595-3.608 3.608-3.608 3.608 1.62 3.608 3.608a3.583 3.583 0 0 1-3.608 3.608z" fill="#58595b" stroke="#383839" stroke-width=".564" stroke-miterlimit="10"/><g><path d="M277.966 202.503c-.025-.417.098-.663.319-.761.221-.098.81-.147 1.301-.074.491.049 1.252.27 1.35 1.055.147-.074.589-.196.933-.172.344.025.712.172.834.368.319-.319 1.178-.417 1.497-.147a.675.675 0 0 1 .736-.785c.344.025.687.196.712.785.245-.245.564-.172.663-.172-.025-.564.196-.908.614-.908s.736.294.736.859c.221-.049.54-.025.614.123.221-.172.883-.27 1.104.172.466-.466 1.129-.319 1.325-.147-.025-.54.295-.957.933-.785-.025-.442.319-.687.663-.614.344.074.54.442 1.203 1.693 0-1.374-.025-1.571.098-1.767.123-.196.393-.294.614-.27.221.025.54.172.564.515.319-.368.81.172 1.374.834.27-1.055.614-1.35.957-1.325.319.025.466.245.564.687.098.442.442 2.233.491 2.552.049.319.025.638-.27.736-.294.074-.859.147-1.104-.368-.025.049-.294.147-.491.098 0 .417-.319.712-.564.712-.27.025-.687.025-.81-.54-.123-.589-.172-.859-.196-.883-.074.564-.098 1.153-.491 1.374-.393.196-.736.221-1.129-.368s-1.006-1.792-1.031-1.816c-.025.049-.025.123-.025.27s0 .736.049 1.203c.049.466-.147.712-.393.736-.221.025-.491 0-.638-.098-.147.098-.54.196-.687.049a.998.998 0 0 1-.982-.123c-.049-.049-.123-.049-.221.025-.074.098-.442.221-.712.049-.098.025-.393.172-.663 0s-.344-.172-.393-.123c-.049.049-.27.245-.54.221-.27-.025-.245-.049-.368 0s-.442.098-.834-.123c-.098-.049-.221-.123-.294-.025-.074.074-.221.172-.466.172s-.417-.074-.491-.123c-.049-.049-.147-.074-.319 0-.172.074-.663.172-1.006.025-.344-.147-.491-.245-.515-.27a2.657 2.657 0 0 1-.883.368c-.294.025-.687-.074-.81-.196-.172.147-.196.196-.491.196s-.761.049-.908-.245c-.025-.049-.098 0-.123.049-.025.049-.098.172-.368.196-.27.025-1.055.074-1.055-.442s.049-1.08.049-1.399c.047-.439-.002-.636-.026-1.053z" fill="#070308"/><path d="M280.223 203.975c-.123-.196.074-.319.294-.54.221-.196.245-.834-.147-1.153-.393-.319-1.325-.368-1.693-.319-.368.049-.368.294-.319.614.025.319.025.883 0 2.135 0 .368.221.294.491.294s.319-.074.319-.245c0-.172.049-.417.245-.442.172 0 .294.221.368.466.098.221.221.221.761.196.491.025-.171-.809-.319-1.006zm-.809-.515c-.319 0-.344-.27-.319-.368 0-.098.123-.368.295-.368s.294.049.368.245c.048.172-.025.516-.344.491z" fill="#d2b741"/><path d="M282.481 204.27c-.098-.147-.344-.074-.687.049-.172.049-.245.074-.294.025-.025-.074.147-.147.442-.221.27-.074.589-.245.614-.515.025-.27-.221-.614-.859-.638-.638-.025-.883.491-.982.785-.098.294.025.834.368 1.104.344.245.761.147 1.153-.049s.343-.393.245-.54zm-1.08-.466c-.098-.172 0-.319.123-.393s.344-.049.393.074 0 .27-.123.344c-.147.048-.343.048-.393-.025zm2.455-.172c.196.147.442.196.515.098.049-.098.123-.344-.098-.515-.221-.172-.663-.245-1.031-.123-.368.123-.54.442-.466.687.074.245.466.368.589.442.147.074.221.123.172.172-.025.049-.172 0-.319-.074-.123-.049-.344-.147-.442-.049-.074.123-.147.368.147.54s.712.245 1.08.098c.344-.147.393-.466.319-.663-.074-.196-.344-.344-.515-.442-.172-.098-.294-.147-.27-.221.049-.048.196-.024.319.05zm.76-.147a.294.294 0 0 1 .295-.344c.221-.025.368.123.368.294 0 .172-.074.54-.074.81 0 .245.074.466.074.589 0 .123-.147.221-.344.221s-.344 0-.344-.245.049-.614.074-.81c-.024-.196-.049-.393-.049-.515z" fill="#d2b741"/><ellipse cx="284.96" cy="202.65" rx=".368" ry=".344" fill="#d2b741"/><path d="M287.218 203.755c0-.368.098-.933.098-1.325 0-.393-.221-.466-.393-.442-.196.025-.245.221-.196.515 0 .417-.098.368-.221.368-.834.049-.982.491-1.08.908-.098.393.025.785.27 1.031.245.27.908.245.957.196.049-.049.098-.123.172-.049.074.074.221.098.344.025.098-.074.147-.245.123-.368-.074-.099-.074-.491-.074-.859zm-.933.589c-.172 0-.319-.172-.319-.393s.147-.393.319-.393.319.172.319.393-.147.393-.319.393zm1.154-.074v-1.006c0-.123.196-.344.368-.344.196-.025.368-.025.368.245v.933c0 .098.172.245.196 0 .025-.245.025-.81.025-.957s.172-.221.319-.221c.172 0 .393.049.368.344-.049.27-.049.54-.049.785 0 .221.074.54.074.761-.025.196-.147.294-.294.294s-.245-.074-.294-.098c-.049-.025-.393.196-.687 0-.321-.245-.394-.515-.394-.736zm3.46.196c-.074-.393-.025-.638 0-.933a.513.513 0 0 0-.344-.564c-.245-.098-.785 0-.982.221s-.319.687-.294.982.049.663.515.81c.466.147.515-.098.614-.098.098 0 .147.123.27.147.123 0 .245-.123.294-.245.05-.123-.049-.197-.073-.32zm-.785-.098c-.172 0-.294-.172-.294-.393s.123-.393.294-.393c.172 0 .295.172.295.393.024.197-.124.393-.295.393z" fill="#d2b741"/><path d="M292.003 201.988c-.123-.368.368-.736.589-.245.221.491.908 1.792 1.006 1.939.098.147.221.123.196-.196-.025-.319.025-1.841.025-1.988s.123-.319.368-.344c.245 0 .368.147.344.491s-.098 2.331-.123 2.822-.614 1.104-1.08.27c-.49-.86-1.227-2.504-1.325-2.749zm2.773.171c-.049-.417.098-.564.27-.589.147-.025.761.614 1.08 1.153.196.27.245.368.294-.074a4.666 4.666 0 0 1 .344-1.227c.098-.196.515-.442.614.123s.515 2.16.54 2.454c.049.27.098.564-.098.638-.196.074-.491.172-.589-.221-.098-.393-.196-1.399-.221-1.472s-.098-.025-.098.147c-.025.196-.074.883-.098 1.031-.025.123-.319.442-.564-.025-.245-.466-.466-.859-.515-.908-.049-.049-.074.025-.049.172s.147.687.27.982c.123.294.123.663-.147.736-.245.074-.442.098-.564-.589-.174-.637-.419-1.962-.469-2.331z" fill="#955e1e"/><path d="M291.071 202.405c0-.196.123-.319.319-.319s.491.025.466.294c-.025.27-.049 1.301-.049 1.693s.025.663.025.761c0 .098-.098.172-.294.172-.196 0-.393.049-.417-.196-.025-.27 0-1.031 0-1.325.023-.319-.05-.884-.05-1.08z" fill="#d2b741"/><path d="M278.407 202.896c-.025-.294-.025-.589.025-.687.074-.123.221-.245.712-.196.491.049.859.123 1.203.294-.491-.172-1.276-.221-1.546-.196-.271.048-.369.122-.394.785z" fill="#f9f2b4"/><path d="M279.782 203.141c-.025.196-.098.319-.221.344-.147.049-.344 0-.417-.074.098.123.344.147.466.098.147-.024.172-.319.172-.368z" fill="#efd052"/><path d="M280.788 203.632c.245-.417.393-.54.589-.589.172-.049.344-.049.663 0-.344-.025-.638 0-.785.098s-.418.417-.467.491zm1.178.024c-.025.123-.196.294-.515.221.269.148.515-.024.515-.221zm-.466.737c.049.025.147.025.27-.025s.368-.147.515-.147c-.123 0-.172.049-.27.098-.098.049-.368.196-.515.074zm1.3-.761c.074-.417.491-.589.908-.564-.294-.025-.785.196-.908.564zm-.024.883c.025-.196.098-.344.344-.221-.148-.049-.295-.024-.344.221zm2.282-1.325c-.147-.074-.466.025-.417.368.024-.319.27-.417.417-.368zm-.466-.491c0-.196.172-.466.491-.344-.221-.048-.467.099-.491.344zm.883.908c.27-.589.491-.687 1.08-.712-.54.074-.859.32-1.08.712zm.614.663c.196.196.466.049.515-.172-.024.344-.392.393-.515.172zm.932-2.233c-.098-.025-.27.025-.27.319.025-.246.172-.319.27-.319zm.467 1.448c.025-.466.221-.54.466-.54-.245 0-.442.172-.466.54zm.736.736c.074.074.196.049.196-.221.025.295-.122.368-.196.221zm.196-.957c0-.27.147-.344.294-.319-.122 0-.269.122-.294.319zm.957.442c.196-.491.368-.687.908-.712-.343.049-.613.147-.908.712zm.54.589c.147.147.393.147.491-.098-.024.22-.294.343-.491.098zm1.203-1.669c0-.319 0-.54.417-.491-.196-.025-.417.024-.417.491z" fill="#f9f2b4"/><path d="M292.028 201.84c.025-.221.196-.393.442-.27-.172-.049-.369 0-.442.27zm1.791-.122c.025-.368.123-.54.344-.54-.172.024-.295.27-.344.54zm.982.171c.074-.245.196-.368.417-.147-.172-.172-.294-.073-.417.147zm1.693.418c.245-.834.294-.933.442-1.006s.27.025.27.025c-.147-.074-.294-.025-.368.123-.074.146-.319.809-.344.858zm-.245.662c.074.049.147.025.196-.245-.024.245-.049.368-.196.245zm-2.651.761c.123.098.221.098.245-.27.05.393-.097.442-.245.27z" fill="#d68639"/></g></g></g></svg>