<svg xmlns="http://www.w3.org/2000/svg" xmlns:xlink="http://www.w3.org/1999/xlink" viewBox="0 0 200.129 214.571"><path d="M154.579 139.756H44.778a2.844 2.844 0 0 1-2.835-2.835v-9.004a2.844 2.844 0 0 1 2.835-2.835h109.801a2.844 2.844 0 0 1 2.835 2.835v9.004a2.844 2.844 0 0 1-2.835 2.835z" fill="#d1ccc3"/><path d="M181.267 131.419H19.153a2.844 2.844 0 0 1-2.835-2.835V2.835A2.844 2.844 0 0 1 19.153 0h162.114a2.844 2.844 0 0 1 2.835 2.835v125.75a2.843 2.843 0 0 1-2.835 2.834z" fill="#f4f3ec"/><path d="M173.158 119.298H27.348c-.78 0-1.417-.638-1.417-1.417V13.539c0-.78.638-1.417 1.417-1.417h145.81c.78 0 1.417.638 1.417 1.417v104.342c0 .779-.638 1.417-1.417 1.417z" fill="#dfded8"/><path d="M153.065 110.686H47.44c-7.795 0-14.173-6.378-14.173-14.173V34.907c0-7.795 6.378-14.173 14.173-14.173h105.625c7.795 0 14.173 6.378 14.173 14.173v61.606c.001 7.795-6.377 14.173-14.173 14.173z" fill="#c26317"/><path fill="#e9e5da" d="M141.41 148.687H57.947l4.526-8.931h74.459z"/><path fill="#f4f3eb" d="M41.944 148.687h117.565v8.421H41.944z"/><path d="M191.625 214.571H8.504c-4.677 0-8.504-3.827-8.504-8.504v-40.455c0-4.677 3.827-8.504 8.504-8.504h183.121c4.677 0 8.504 3.827 8.504 8.504v40.455c0 4.678-3.827 8.504-8.504 8.504z" fill="#e9e5da"/><path d="M14.104 199.215A2.222 2.222 0 0 1 11.889 197v-22.32c0-1.218.997-2.215 2.215-2.215s2.215.997 2.215 2.215V197a2.222 2.222 0 0 1-2.215 2.215zM22.229 199.215A2.222 2.222 0 0 1 20.014 197v-22.32c0-1.218.997-2.215 2.215-2.215s2.215.997 2.215 2.215V197a2.222 2.222 0 0 1-2.215 2.215zM30.205 199.215A2.222 2.222 0 0 1 27.99 197v-22.32c0-1.218.997-2.215 2.215-2.215s2.215.997 2.215 2.215V197a2.222 2.222 0 0 1-2.215 2.215zM38.33 199.215A2.222 2.222 0 0 1 36.115 197v-22.32c0-1.218.997-2.215 2.215-2.215s2.215.997 2.215 2.215V197a2.222 2.222 0 0 1-2.215 2.215zM45.927 199.215A2.222 2.222 0 0 1 43.712 197v-22.32c0-1.218.997-2.215 2.215-2.215s2.215.997 2.215 2.215V197a2.221 2.221 0 0 1-2.215 2.215zM54.053 199.215A2.222 2.222 0 0 1 51.838 197v-22.32c0-1.218.997-2.215 2.215-2.215s2.215.997 2.215 2.215V197a2.222 2.222 0 0 1-2.215 2.215z" fill="#c8c2ae"/><path d="M188.545 206.388H69.958a2.844 2.844 0 0 1-2.835-2.835v-35.427a2.844 2.844 0 0 1 2.835-2.835h118.587a2.844 2.844 0 0 1 2.835 2.835v35.427a2.843 2.843 0 0 1-2.835 2.835z" fill="#717174" stroke="#5b5b5f" stroke-width=".5" stroke-miterlimit="10"/><path d="M122.374 188.741H73.958c-.78 0-1.417-.638-1.417-1.417v-2.967c0-.78.638-1.417 1.417-1.417h48.415c.78 0 1.417.638 1.417 1.417v2.967a1.42 1.42 0 0 1-1.416 1.417z" fill="#26241e"/><path fill="#26241e" d="M88.198 179.313h13.054v13.054H88.198z"/><path fill="#5d5d5d" d="M79.926 179.313h4.636v13.054h-4.636z"/><path d="M179.084 188.741h-48.415c-.78 0-1.417-.638-1.417-1.417v-2.967c0-.78.638-1.417 1.417-1.417h48.415c.78 0 1.417.638 1.417 1.417v2.967a1.42 1.42 0 0 1-1.417 1.417z" fill="#26241e"/><path d="M186.923 188.889h-3.115c-.78 0-1.417-.638-1.417-1.417v-3.115c0-.78.638-1.417 1.417-1.417h3.115c.78 0 1.417.638 1.417 1.417v3.115c0 .779-.638 1.417-1.417 1.417z" fill="#5d5d5d"/><path d="M185.365 182.865h1.558c.78 0 1.417.638 1.417 1.417v3.115c0 .78-.638 1.417-1.417 1.417l-1.558.074" fill="#26241e"/><path fill="#d1ccc3" d="M182.39 197.983h5.95v5.95h-5.95z"/><path fill="#54923c" d="M185.945 201.434h1.815v1.815h-1.815z"/><path d="M132.025 101.932H49.559c-.78 0-1.417-.638-1.417-1.417V55.947c0-.78.638-1.417 1.417-1.417h82.465c.78 0 1.417.638 1.417 1.417v44.567a1.42 1.42 0 0 1-1.416 1.418z" fill="#f9edcb"/><path d="M160.099 59.797h-17.271c-.78 0-1.417-.638-1.417-1.417v-2.432c0-.78.638-1.417 1.417-1.417h17.271c.78 0 1.417.638 1.417 1.417v2.432c0 .779-.638 1.417-1.417 1.417zM160.099 66.588h-17.271c-.78 0-1.417-.638-1.417-1.417v-2.432c0-.78.638-1.417 1.417-1.417h17.271c.78 0 1.417.638 1.417 1.417v2.432c0 .779-.638 1.417-1.417 1.417zM160.099 75.97h-17.271c-.78 0-1.417-.638-1.417-1.417v-2.432c0-.78.638-1.417 1.417-1.417h17.271c.78 0 1.417.638 1.417 1.417v2.432c0 .779-.638 1.417-1.417 1.417zM160.099 82.221h-17.271c-.78 0-1.417-.638-1.417-1.417v-2.432c0-.78.638-1.417 1.417-1.417h17.271c.78 0 1.417.638 1.417 1.417v2.432c0 .779-.638 1.417-1.417 1.417zM160.099 88.632h-17.271c-.78 0-1.417-.638-1.417-1.417v-2.432c0-.78.638-1.417 1.417-1.417h17.271c.78 0 1.417.638 1.417 1.417v2.432c0 .779-.638 1.417-1.417 1.417zM160.099 97.661h-17.271c-.78 0-1.417-.638-1.417-1.417v-2.432c0-.78.638-1.417 1.417-1.417h17.271c.78 0 1.417.638 1.417 1.417v2.432c0 .779-.638 1.417-1.417 1.417z" fill="#7d1f1d"/><path fill="#e5e5e2" d="M50.722 57.184H97.05v2.633H50.722z"/><path fill="#efe0a1" d="M51.788 50.184h21.119v2.633H51.788z"/><path d="M76.337 52.818h-1.492a.57.57 0 0 1-.571-.571v-1.492a.57.57 0 0 1 .571-.571h1.492a.57.57 0 0 1 .571.571v1.492a.572.572 0 0 1-.571.571z" fill="#7d1f1d"/><path fill="#e5e5e2" d="M50.722 61.342H97.05v2.633H50.722z"/><path fill="#369742" d="M50.721 65.28h80.139v2.633H50.721z"/><path fill="#e5e5e2" d="M50.722 69.407H97.05v2.633H50.722zM50.722 73.358H97.05v2.633H50.722z"/><g><path d="M135.381 30.745a1.386 1.386 0 0 0-.948-.494l-2.27-.197a1.606 1.606 0 0 0-1.508.808l-4.488 8.197-2.394-8.878a1.569 1.569 0 0 0-1.332-1.131l-2.502-.252a1.41 1.41 0 0 0-1.538 1.196l-2.178 14.618c-.056.375.046.761.28 1.057.234.296.585.485.963.518l2.017.176a1.412 1.412 0 0 0 1.522-1.213l.566-4.07 1.361 4.674a1.586 1.586 0 0 0 1.326 1.109l1.346.143a1.61 1.61 0 0 0 1.523-.775l2.399-4.161-.335 3.888a1.41 1.41 0 0 0 1.253 1.514l2.418.25c.373.039.739-.072 1.028-.31.29-.239.468-.576.501-.95l1.31-14.698a1.38 1.38 0 0 0-.32-1.019zm-2.409 15.906l-1.169-.121-.189-.02-1.06-.11a.324.324 0 0 1-.288-.349l.429-4.982.016-.19.279-3.238c.015-.174-.044-.192-.131-.041l-4.667 8.093a.53.53 0 0 1-.474.241l-1.346-.143a.51.51 0 0 1-.404-.338l-.969-3.328-.056-.19-1.658-5.693c-.049-.168-.108-.163-.132.01l-.708 5.096-.026.191-.183 1.318-.026.188-.272 1.956a.339.339 0 0 1-.36.287l-2.017-.176a.295.295 0 0 1-.269-.341l.303-2.037.028-.188.188-1.264.029-.19.988-6.634.028-.19.613-4.115a.336.336 0 0 1 .362-.282l2.502.252c.174.017.353.17.398.338l.691 2.562.051.19 1.389 5.152.051.19.827 3.069c.045.168.151.181.235.028l4.364-7.97.104-.19 1.157-2.112a.53.53 0 0 1 .469-.251l.747.065.195.017 1.327.115a.318.318 0 0 1 .288.344l-.368 4.125-.017.19-.735 8.238-.017.19-.174 1.954a.313.313 0 0 1-.339.284h-.004z" fill="#333"/><path d="M133.316 46.367l.174-1.954.017-.19.735-8.238.017-.19.368-4.125a.319.319 0 0 0-.288-.344l-1.327-.115-.195-.017-.747-.065a.53.53 0 0 0-.469.251l-1.157 2.112-.104.19-4.364 7.97c-.084.153-.19.14-.235-.028l-.827-3.069-.051-.19-1.389-5.152-.051-.19-.691-2.562a.495.495 0 0 0-.398-.338l-2.502-.252a.336.336 0 0 0-.362.282l-.613 4.115-.028.19-.988 6.634-.029.19-.188 1.264-.028.188-.303 2.037a.295.295 0 0 0 .269.341l2.017.176a.339.339 0 0 0 .36-.287l.272-1.956.026-.188.183-1.318.026-.191.708-5.096c.024-.173.084-.177.132-.01l1.658 5.693.056.19.969 3.328c.049.168.231.32.404.338l1.346.143a.533.533 0 0 0 .474-.241l4.667-8.093c.087-.151.146-.133.131.041l-.279 3.238-.016.19-.429 4.982a.325.325 0 0 0 .288.349l1.06.11.189.02 1.169.121h.005a.312.312 0 0 0 .338-.284z" fill="#b6b5b5"/><g fill="#333"><path d="M132.635 44.223l-.026.053-.158.319-.632.083-.077.01-.005.078-.122 1.744.189.02.117-1.673.605-.08.051-.006.022-.046.154-.312h.738l.017-.19zM117.594 42.735l2.615.311.026-.189-2.613-.311zM123.602 38.556h1.311l-.051-.191h-1.45v3.57h-.469l.056.19h.603zM132.209 33.617l.803-2.407-.195-.017-.766 2.299h-1.607l-.104.19h1.848zM132.507 35.787l-.019.07-.566 2.045-.003.012v.013l-.008 2.952h-1.2l-.016.191h1.406v-.095l.008-3.035.543-1.962 1.59.006.017-.19-1.679-.007zM120.215 34.392l.375-1.179h2.883l-.052-.19h-2.971l-.021.066-.375 1.179h-1.199l-.028.19h1.367zM118.698 41.109l-.021-.011h-.024l-.815-.006-.028.191.818.005.44.239.021.012h1.329l.027-.191h-1.307z"/></g><path d="M118.555 28.66a1.08 1.08 0 0 0-.964-.283l-2.945.593a1.08 1.08 0 0 0-.856.911l-.969 7.04-3.505-6.235a1.08 1.08 0 0 0-1.159-.528l-3.296.681a1.078 1.078 0 0 0-.709 1.608l8.087 13.625c.232.39.682.594 1.128.509l1.978-.374a1.08 1.08 0 0 0 .864-.88l2.659-15.713a1.079 1.079 0 0 0-.313-.954zm-3.357 16.175a.491.491 0 0 1-.365.372l-1.354.256a.49.49 0 0 1-.474-.214l-.958-1.614-.099-.167-2.11-3.555-.098-.166-3.283-5.531-.113-.19-1.102-1.856c-.089-.15-.022-.302.149-.337l2.675-.553a.463.463 0 0 1 .466.212l.561.998.107.19 2.877 5.118.095.169 1.126 2.004c.085.152.175.135.199-.038l.891-6.477.026-.19.402-2.923a.48.48 0 0 1 .354-.377l.882-.178.19-.038 1.251-.252c.171-.035.288.078.259.25l-1.023 6.043-.032.19-.446 2.635-.032.191-.347 2.052-.047.279-.627 3.697z" fill="#333"/><path d="M115.871 40.858l.347-2.052.032-.191.446-2.635.032-.19 1.023-6.043c.029-.172-.087-.285-.259-.25l-1.251.252-.19.038-.882.178a.478.478 0 0 0-.354.377l-.402 2.923-.026.19-.891 6.477c-.024.173-.113.19-.199.038l-1.126-2.004-.095-.169-2.877-5.118-.107-.19-.561-.998a.462.462 0 0 0-.466-.212l-2.675.553c-.171.035-.238.187-.149.337l1.102 1.856.113.19 3.283 5.531.098.166 2.11 3.555.099.167.958 1.614c.089.15.302.246.474.214l1.354-.256a.491.491 0 0 0 .365-.372l.626-3.697.048-.279z" fill="#b6b5b5"/><g fill="#333"><path d="M107.461 34.215v-1.267h.898l.029-.039.168-.229h.643l-.107-.191h-.633l-.028.039-.168.23h-.993v1.267h-.927l.113.19h.909zM115.346 33.433l.356-.298.034-.029v-1.541l.227-.243.026-.027v-.524l.221-.196.032-.028v-.797l-.19.038v.674l-.221.195-.032.029v.534l-.227.242-.026.028v1.527l-.295.248h-.837l-.027.191h.933zM115.571 36.392l-.25.245-.029.028v.04l-.006 2.006v.096h.932l.032-.191h-.773l.005-1.871.251-.245.028-.028v-.49h.935l.032-.191h-1.157zM114.475 41.42l-.032-.001-.026.02-.54.414-.038.028v.889l-1.891.698.099.167 1.921-.709.062-.023v-.927l.477-.366.674.006h.033l.026-.02.584-.458.047-.28-.722.567zM112.076 37.798l-2.336 1.949.098.166 2.333-1.946z"/></g><path d="M108.868 36.701c1.908.762 2.41 3.262 2.104 6.095-.133 1.228-.16 2.77-1.361 2.939-.409.057-.87-.041-1.299-.093-.385-.047-.826-.201-1.206-.155-.231.028-.407.217-.619.278-.47.138-1.054.062-1.701.062-.396 0-.797.006-1.145-.062-.209-.041-.424-.2-.65-.217-.206-.015-.415.099-.65.124-.63.067-1.475.088-2.135.031-.237-.021-.498-.158-.712-.155-.211.003-.447.16-.681.186-.827.092-1.696-.319-2.413-.247-.334.034-.672.33-1.114.371-.638.06-1.686.023-2.32-.093-.238-.043-.482-.201-.711-.217-.208-.014-.445.102-.681.124-.601.056-1.353.061-1.98.031-.18-.009-.362-.072-.526-.062-.285.018-.566.215-.835.247-.718.086-1.518.099-2.197.031-.241-.024-.486-.152-.742-.155-.347-.004-.67.16-.959.186-1.672.146-2.931-.657-3.774-1.578-.373.179-.612.511-.959.743-1.551 1.038-4.197.739-5.569-.34-.195-.153-.472-.623-.712-.619-.204.003-.559.478-.742.619-.73.56-1.714.969-2.939 1.052-1.843.124-3.316-.565-4.269-1.454-.489-.456-1.193-1.205-.866-2.134.168-.478.661-.968 1.021-1.392.133-.157.332-.309.34-.464.015-.278-.44-.693-.557-.897-.532-.927-.702-2.458-.186-3.62.616-1.384 2.242-2.386 4.455-2.227a5.82 5.82 0 0 1 2.444.743c1.049.603 2.137 1.16 1.794 2.753.442-.095.696-.409 1.083-.588 1.344-.621 3.496-.577 4.733.217.155.1.393.338.526.34.246.003.548-.493.773-.588.504-.213 2.124-.224 2.846-.155.287.028.582.229.804.216.242-.014.555-.314.742-.371.577-.177 2.352-.249 3.001-.062.213.061.441.312.681.34.228.027.525-.082.773-.093.461-.021.978-.053 1.423-.031.321.015.624.199.928.216.282.017.619-.126.928-.124.247.002.532.061.773.124.23.059.46.218.65.217.282-.002.585-.214.835-.278a4.626 4.626 0 0 1 2.722.155c.2.073.562.403.773.402.251-.001.546-.437.773-.526.633-.247 1.568-.215 2.32-.186.339.013.643.2.959.216.28.014.581-.119.866-.124.271-.004.531.061.773.124.244.063.501.214.681.217.24.003.476-.188.681-.247a4.783 4.783 0 0 1 3.005.155z" fill="#333"/><g><defs><path id="a" d="M99.964 38.938v.56c-.018-.523-.036-1.064-.072-1.64v-.56c.036.577.054 1.117.072 1.64z"/></defs><clipPath id="b"><use xlink:href="#a" overflow="visible"/></clipPath><g clip-path="url(#b)"><path d="M99.964 38.938v.56c-.018-.523-.036-1.064-.072-1.64v-.56c.036.577.054 1.117.072 1.64" fill="#23662c"/></g><defs><path id="c" d="M103.609 39.904v.56a.995.995 0 0 0-.171-.337.326.326 0 0 0-.27-.124c-.243 0-.405.071-.468.204a.932.932 0 0 0-.099.399v-.56c0-.133.036-.266.099-.399s.225-.204.468-.204c.117 0 .207.044.27.124.072.089.126.196.171.337z"/></defs><clipPath id="d"><use xlink:href="#c" overflow="visible"/></clipPath><g clip-path="url(#d)"><path d="M103.609 39.904v.56a.995.995 0 0 0-.171-.337.317.317 0 0 0-.112-.091v-.56a.317.317 0 0 1 .112.091c.072.089.126.196.171.337" fill="#23662c"/><path d="M103.327 39.477v.56a.36.36 0 0 0-.158-.034c-.18 0-.315.039-.399.113v-.56c.084-.074.219-.113.399-.113a.378.378 0 0 1 .158.034" fill="#24682d"/><path d="M102.769 39.556v.56a.278.278 0 0 0-.069.091.932.932 0 0 0-.099.399v-.56c0-.133.036-.266.099-.399a.305.305 0 0 1 .069-.091" fill="#23662c"/></g><defs><path id="e" d="M107.335 39.692v.56a.512.512 0 0 0-.459-.248c-.324 0-.522.222-.603.656v-.56c.081-.434.279-.656.603-.656a.51.51 0 0 1 .459.248z"/></defs><clipPath id="f"><use xlink:href="#e" overflow="visible"/></clipPath><g clip-path="url(#f)"><path d="M107.335 39.692v.56a.528.528 0 0 0-.214-.197v-.56a.522.522 0 0 1 .214.197" fill="#23662c"/><path d="M107.121 39.495v.56a.554.554 0 0 0-.245-.051.512.512 0 0 0-.352.125v-.56a.512.512 0 0 1 .352-.125.55.55 0 0 1 .245.051" fill="#24682d"/><path d="M106.525 39.568v.56c-.122.108-.205.285-.251.531v-.56c.045-.245.128-.423.251-.531" fill="#23662c"/></g><defs><path id="g" d="M103.69 40.383v.56a3.332 3.332 0 0 0-.081-.479v-.56c.036.142.063.302.081.479z"/></defs><clipPath id="h"><use xlink:href="#g" overflow="visible"/></clipPath><g clip-path="url(#h)"><path d="M103.69 40.383v.56a3.332 3.332 0 0 0-.081-.479v-.56c.036.142.063.302.081.479" fill="#23662c"/></g><defs><path id="i" d="M107.497 40.507v.56c0-.381-.054-.656-.162-.815v-.56c.108.159.162.434.162.815z"/></defs><clipPath id="j"><use xlink:href="#i" overflow="visible"/></clipPath><g clip-path="url(#j)"><path d="M107.497 40.507v.56c0-.381-.054-.656-.162-.815v-.56c.108.159.162.434.162.815" fill="#23662c"/></g><defs><path id="k" d="M99.991 40.525v.56l-.027-1.587v-.56l.027 1.587z"/></defs><clipPath id="l"><use xlink:href="#k" overflow="visible"/></clipPath><g clip-path="url(#l)"><path d="M99.991 40.525v.56l-.027-1.587v-.56l.027 1.587" fill="#23662c"/></g><defs><path id="m" d="M103.708 40.95v.56c0-.195 0-.381-.018-.567v-.56c.018.186.018.372.018.567z"/></defs><clipPath id="n"><use xlink:href="#m" overflow="visible"/></clipPath><g clip-path="url(#n)"><path d="M103.708 40.95v.56c0-.195 0-.381-.018-.567v-.56c.018.186.018.372.018.567" fill="#23662c"/></g><defs><path id="o" d="M106.273 40.099v.56c-.072.443-.108 1.108-.108 2.003v-.56c0-.895.036-1.559.108-2.003z"/></defs><clipPath id="p"><use xlink:href="#o" overflow="visible"/></clipPath><g clip-path="url(#p)"><path d="M106.273 40.099v.56c-.072.443-.108 1.108-.108 2.003v-.56c0-.895.036-1.559.108-2.003" fill="#23662c"/></g><defs><path id="q" d="M109.918 41.012v.56c0 .514-.036 1.037-.108 1.578v-.56c.072-.541.108-1.064.108-1.578z"/></defs><clipPath id="r"><use xlink:href="#q" overflow="visible"/></clipPath><g clip-path="url(#r)"><path d="M109.918 41.012v.56c0 .514-.036 1.037-.108 1.578v-.56c.072-.541.108-1.064.108-1.578" fill="#23662c"/></g><defs><path id="s" d="M109.81 42.59v.56c-.018.159-.036.31-.063.461v-.56a7.12 7.12 0 0 0 .063-.461z"/></defs><clipPath id="t"><use xlink:href="#s" overflow="visible"/></clipPath><g clip-path="url(#t)"><path d="M109.81 42.59v.56c-.018.159-.036.31-.063.461v-.56a7.12 7.12 0 0 0 .063-.461" fill="#23662c"/></g><g><defs><path id="u" d="M109.747 43.051v.56c-.027.186-.045.372-.063.558v-.56c.018-.186.036-.372.063-.558z"/></defs><clipPath id="v"><use xlink:href="#u" overflow="visible"/></clipPath><g clip-path="url(#v)"><path d="M109.747 43.051v.56c-.027.186-.045.372-.063.558v-.56c.018-.186.036-.372.063-.558" fill="#23662c"/></g></g><g><path fill="#22642b" d="M102.601 40.046v.56l-.081 3.838v-.56z"/></g><g><defs><path id="w" d="M109.684 43.609v.56a4.85 4.85 0 0 1-.045.355v-.56c.018-.115.036-.239.045-.355z"/></defs><clipPath id="x"><use xlink:href="#w" overflow="visible"/></clipPath><g clip-path="url(#x)"><path d="M109.684 43.609v.56a4.85 4.85 0 0 1-.045.355v-.56c.018-.115.036-.239.045-.355" fill="#23662c"/></g></g><g><defs><path id="y" d="M106.986 44.307v-.56a.24.24 0 0 0 .214.234v.56a.24.24 0 0 1-.214-.234z"/></defs><clipPath id="z"><use xlink:href="#y" overflow="visible"/></clipPath><g clip-path="url(#z)"><path d="M107.2 43.982v.56a.233.233 0 0 1-.079-.023v-.56a.29.29 0 0 0 .079.023" fill="#24682d"/><path d="M107.121 43.958v.56a.235.235 0 0 1-.135-.211v-.56c0 .092.054.172.135.211" fill="#23662c"/></g></g><g><path fill="#25692e" d="M107.389 44.008v.56l-.189-.027v-.559z"/></g><g><defs><path id="A" d="M102.52 43.884v.56a.278.278 0 0 1-.279.275v-.56a.278.278 0 0 0 .279-.275z"/></defs><clipPath id="B"><use xlink:href="#A" overflow="visible"/></clipPath><g clip-path="url(#B)"><path d="M102.52 43.884v.56a.27.27 0 0 1-.093.204v-.56a.27.27 0 0 0 .093-.204" fill="#23662c"/><path d="M102.427 44.088v.56a.278.278 0 0 1-.186.07v-.56a.273.273 0 0 0 .186-.07" fill="#24682d"/></g></g><g><defs><path id="C" d="M108.964 44.194v.56c-.198-.027-.405-.044-.612-.071-.315-.035-.639-.08-.963-.115v-.56c.324.035.648.08.963.115.207.027.414.045.612.071z"/></defs><clipPath id="D"><use xlink:href="#C" overflow="visible"/></clipPath><g clip-path="url(#D)"><path d="M108.964 44.194v.56c-.198-.027-.405-.044-.612-.071-.315-.035-.639-.08-.963-.115v-.56c.324.035.648.08.963.115.207.027.414.045.612.071" fill="#24682d"/></g></g><g><path fill="#256a2e" d="M102.241 44.159v.559l-1.989.036v-.56z"/></g><g><defs><path id="E" d="M100.252 44.194v.56a.263.263 0 0 1-.27-.266v-.56c0 .151.117.266.27.266z"/></defs><clipPath id="F"><use xlink:href="#E" overflow="visible"/></clipPath><g clip-path="url(#F)"><path d="M100.252 44.194v.56a.287.287 0 0 1-.122-.027v-.56a.276.276 0 0 0 .122.027" fill="#24682d"/><path d="M100.13 44.167v.56a.261.261 0 0 1-.148-.239v-.56c0 .107.059.196.148.239" fill="#23662c"/></g></g><g><path fill="#22642b" d="M109.639 43.964v.559l-.072.266v-.559z"/></g><g><defs><path id="G" d="M109.333 44.247v.56c-.117-.018-.243-.044-.369-.053v-.56c.126.009.252.036.369.053z"/></defs><clipPath id="H"><use xlink:href="#G" overflow="visible"/></clipPath><g clip-path="url(#H)"><path d="M109.333 44.247v.56c-.117-.018-.243-.044-.369-.053v-.56c.126.009.252.036.369.053" fill="#24682d"/></g></g><g><path fill="#256a2e" d="M109.567 44.23v.559l-.234.018v-.56z"/></g><g><defs><path id="I" d="M103.933 44.292v.56a.276.276 0 0 1-.27-.275v-.56c0 .142.108.266.27.275z"/></defs><clipPath id="J"><use xlink:href="#I" overflow="visible"/></clipPath><g clip-path="url(#J)"><path d="M103.933 44.292v.56a.305.305 0 0 1-.115-.029v-.56a.324.324 0 0 0 .115.029" fill="#24682d"/><path d="M103.818 44.263v.56a.271.271 0 0 1-.155-.246v-.56c0 .105.059.2.155.246" fill="#23662c"/></g></g><g><path fill="#256a2e" d="M103.933 44.292h.225v.56h-.225z"/></g><g><path fill="#256a2e" d="M104.644 44.301v.559l-.486-.009v-.559z"/></g><g><defs><path id="K" d="M105.247 44.318v.56c-.198-.009-.405-.009-.603-.018v-.56c.198.01.405.01.603.018z"/></defs><clipPath id="L"><use xlink:href="#K" overflow="visible"/></clipPath><g clip-path="url(#L)"><path d="M105.247 44.318v.56c-.198-.009-.405-.009-.603-.018v-.56c.198.01.405.01.603.018" fill="#24682d"/></g></g><g><defs><path id="M" d="M106.248 44.224v.56c0 .051-.009.091-.074.103v-.56c.065-.012.074-.052.074-.103z"/></defs><clipPath id="N"><use xlink:href="#M" overflow="visible"/></clipPath><g clip-path="url(#N)"><path d="M106.248 44.224v.56c0 .034-.004.063-.026.082v-.56c.022-.019.026-.048.026-.082" fill="#23662c"/><path d="M106.222 44.306v.56a.093.093 0 0 1-.047.021v-.56a.093.093 0 0 0 .047-.021" fill="#24682d"/></g></g><g><defs><path id="O" d="M105.805 44.327v.56c-.189 0-.369-.009-.558-.009v-.56c.189 0 .369.009.558.009z"/></defs><clipPath id="P"><use xlink:href="#O" overflow="visible"/></clipPath><g clip-path="url(#P)"><path d="M105.805 44.327v.56c-.189 0-.369-.009-.558-.009v-.56c.189 0 .369.009.558.009" fill="#24682d"/></g></g><g><defs><path id="Q" d="M106.174 44.327v.56a.683.683 0 0 1-.144.014c-.076 0-.154-.009-.225-.014v-.56c.071.005.149.014.225.014.05 0 .099-.003.144-.014z"/></defs><clipPath id="R"><use xlink:href="#Q" overflow="visible"/></clipPath><g clip-path="url(#R)"><path d="M106.174 44.327v.56a.683.683 0 0 1-.144.014c-.076 0-.154-.009-.225-.014v-.56c.071.005.149.014.225.014.05 0 .099-.003.144-.014" fill="#24682d"/></g></g><g><path d="M109.801 39.488c.081.47.117.975.117 1.524 0 .514-.036 1.037-.108 1.578-.018.159-.036.31-.063.461-.027.186-.045.372-.063.558a4.85 4.85 0 0 1-.045.355l-.072.266-.234.018c-.117-.018-.243-.044-.369-.053-.198-.027-.405-.044-.612-.071-.315-.035-.639-.08-.963-.115l-.189-.027a.237.237 0 0 1-.207-.292c.014-.061.279-1.223.369-1.79a9.21 9.21 0 0 0 .135-1.392c0-.381-.054-.656-.162-.815a.512.512 0 0 0-.459-.248c-.324 0-.522.222-.603.656-.072.443-.108 1.108-.108 2.003v.47c.009.204.009.408.018.62 0 .213.009.425.027.629.009.115.027.222.036.337 0 .08.018.151-.072.168a.683.683 0 0 1-.144.014c-.076 0-.154-.009-.225-.014-.189 0-.369-.009-.558-.009-.198-.009-.405-.009-.603-.018l-.486-.009h-.225a.276.276 0 0 1-.27-.275l.018-.425.027-.647V40.95c0-.195 0-.381-.018-.567a3.332 3.332 0 0 0-.081-.479.995.995 0 0 0-.171-.337.326.326 0 0 0-.27-.124c-.243 0-.405.071-.468.204a.932.932 0 0 0-.099.399l-.081 3.838a.278.278 0 0 1-.279.275l-1.989.035a.263.263 0 0 1-.27-.266c0-.055 0-1.108.009-1.702v-1.702l-.027-1.587c-.018-.523-.036-1.064-.072-1.64l2.052-.044c.162 0 .288.12.297.257l.027.222.018.168.072.097.081-.044.045-.044c.072-.097.18-.186.306-.284.135-.08.279-.16.441-.213a1.6 1.6 0 0 1 .513-.08c.36 0 .657.08.891.239.126.089.243.186.333.31l.153.142.216-.151.216-.177.243-.16c.333-.195.72-.292 1.179-.292.603 0 1.098.097 1.476.284.378.186.684.443.9.771.216.339.369.729.45 1.19z" fill="#369642"/></g><g><defs><path id="S" d="M89.209 38.938v.56c-.009-.523-.036-1.064-.063-1.64v-.56c.027.577.054 1.117.063 1.64z"/></defs><clipPath id="T"><use xlink:href="#S" overflow="visible"/></clipPath><g clip-path="url(#T)"><path d="M89.209 38.938v.56c-.009-.523-.036-1.064-.063-1.64v-.56c.027.577.054 1.117.063 1.64" fill="#23662c"/></g><defs><path id="U" d="M92.692 39.568v.56a.339.339 0 0 0-.27-.124c-.252 0-.405.071-.468.204v-.56c.063-.133.216-.204.468-.204.117 0 .198.044.27.124z"/></defs><clipPath id="V"><use xlink:href="#U" overflow="visible"/></clipPath><g clip-path="url(#V)"><path d="M92.692 39.568v.56a.378.378 0 0 0-.118-.092v-.56a.367.367 0 0 1 .118.092" fill="#23662c"/><path d="M92.575 39.476v.56a.344.344 0 0 0-.152-.032c-.184 0-.315.038-.397.11v-.56c.082-.072.213-.11.397-.11.058 0 .108.011.152.032" fill="#24682d"/><path d="M92.025 39.554v.56a.296.296 0 0 0-.071.094v-.56a.285.285 0 0 1 .071-.094" fill="#23662c"/></g><defs><path id="W" d="M92.854 39.904v.56a1.19 1.19 0 0 0-.162-.337v-.56c.063.089.117.196.162.337z"/></defs><clipPath id="X"><use xlink:href="#W" overflow="visible"/></clipPath><g clip-path="url(#X)"><path d="M92.854 39.904v.56a1.19 1.19 0 0 0-.162-.337v-.56c.063.089.117.196.162.337" fill="#23662c"/></g><defs><path id="Y" d="M91.954 39.647v.56a.818.818 0 0 0-.099.399v-.56c0-.133.027-.266.099-.399z"/></defs><clipPath id="Z"><use xlink:href="#Y" overflow="visible"/></clipPath><g clip-path="url(#Z)"><path d="M91.954 39.647v.56a.818.818 0 0 0-.099.399v-.56c0-.133.027-.266.099-.399" fill="#23662c"/></g><defs><path id="aa" d="M92.944 40.383v.56a2.4 2.4 0 0 0-.09-.479v-.56a2.4 2.4 0 0 1 .09.479z"/></defs><clipPath id="ab"><use xlink:href="#aa" overflow="visible"/></clipPath><g clip-path="url(#ab)"><path d="M92.944 40.383v.56a2.4 2.4 0 0 0-.09-.479v-.56a2.4 2.4 0 0 1 .09.479" fill="#23662c"/></g><defs><path id="ac" d="M89.236 40.525v.56c0-.532-.009-1.064-.027-1.587v-.56c.018.523.027 1.055.027 1.587z"/></defs><clipPath id="ad"><use xlink:href="#ac" overflow="visible"/></clipPath><g clip-path="url(#ad)"><path d="M89.236 40.525v.56c0-.532-.009-1.064-.027-1.587v-.56c.018.523.027 1.055.027 1.587" fill="#23662c"/></g><defs><path id="ae" d="M92.962 40.95v.56c0-.195-.009-.381-.018-.567v-.56c.009.186.018.372.018.567z"/></defs><clipPath id="af"><use xlink:href="#ae" overflow="visible"/></clipPath><g clip-path="url(#af)"><path d="M92.962 40.95v.56c0-.195-.009-.381-.018-.567v-.56c.009.186.018.372.018.567" fill="#23662c"/></g><g><defs><path id="ag" d="M89.243 41.356v.56c0-.284-.002-.561-.007-.831v-.56c.005.27.007.547.007.831z"/></defs><clipPath id="ah"><use xlink:href="#ag" overflow="visible"/></clipPath><g clip-path="url(#ah)"><path d="M89.243 41.356v.56c0-.284-.002-.561-.007-.831v-.56c.005.27.007.547.007.831" fill="#23662c"/></g></g><g><defs><path id="ai" d="M96.751 40.507v.56c0-.381-.054-.656-.162-.815a.537.537 0 0 0-.468-.248c-.324 0-.522.222-.594.656-.081.443-.117 1.108-.117 2.003v-.56c0-.895.036-1.56.117-2.003.072-.434.27-.656.594-.656.198 0 .351.08.468.248.108.159.162.434.162.815z"/></defs><clipPath id="aj"><use xlink:href="#ai" overflow="visible"/></clipPath><g clip-path="url(#aj)"><path d="M96.751 40.507v.56c0-.381-.054-.656-.162-.815a.58.58 0 0 0-.22-.196v-.56a.559.559 0 0 1 .22.196c.108.159.162.434.162.815" fill="#23662c"/><path d="M96.369 39.496v.56a.567.567 0 0 0-.248-.052.506.506 0 0 0-.35.124v-.56a.51.51 0 0 1 .35-.124c.092 0 .175.017.248.052" fill="#24682d"/><path d="M95.772 39.567v.56c-.122.108-.204.286-.244.532-.081.443-.117 1.108-.117 2.003v-.56c0-.895.036-1.56.117-2.003.04-.246.122-.424.244-.532" fill="#23662c"/></g></g><g><path fill="#22642b" d="M91.855 40.046v.56l-.081 3.838v-.56z"/></g><g><defs><path id="ak" d="M96.234 44.299v-.56c0 .122.086.227.221.243v.56a.243.243 0 0 1-.221-.243z"/></defs><clipPath id="al"><use xlink:href="#ak" overflow="visible"/></clipPath><g clip-path="url(#al)"><path d="M96.454 43.982v.56a.28.28 0 0 1-.085-.024v-.56c.026.012.054.02.085.024" fill="#24682d"/><path d="M96.369 43.957v.56a.24.24 0 0 1-.136-.218v-.56a.24.24 0 0 0 .136.218" fill="#23662c"/></g></g><g><defs><path id="am" d="M91.774 43.884v.56a.29.29 0 0 1-.279.275v-.56a.29.29 0 0 0 .279-.275z"/></defs><clipPath id="an"><use xlink:href="#am" overflow="visible"/></clipPath><g clip-path="url(#an)"><path d="M91.774 43.884v.56a.302.302 0 0 1-.101.205v-.56a.294.294 0 0 0 .101-.205" fill="#23662c"/><path d="M91.674 44.089v.56a.272.272 0 0 1-.178.07v-.56a.272.272 0 0 0 .178-.07" fill="#24682d"/></g></g><g><path fill="#256a2e" d="M91.495 44.159v.559l-1.989.036v-.56z"/></g><g><defs><path id="ao" d="M89.236 44.503v-.56c0 .143.123.251.27.251v.56c-.147 0-.27-.108-.27-.251z"/></defs><clipPath id="ap"><use xlink:href="#ao" overflow="visible"/></clipPath><g clip-path="url(#ap)"><path d="M89.506 44.194v.56a.294.294 0 0 1-.126-.028v-.56a.294.294 0 0 0 .126.028" fill="#24682d"/><path d="M89.38 44.166v.56a.247.247 0 0 1-.144-.223v-.56c0 .1.059.182.144.223" fill="#23662c"/></g></g><g><path fill="#25692e" d="M98.803 44.274v.56l-2.349-.293v-.559z"/></g><g><defs><path id="aq" d="M99.172 41.012v.56c0 .514-.036 1.037-.108 1.578a36.284 36.284 0 0 1-.261 1.684v-.56c.099-.558.189-1.126.261-1.684.072-.541.108-1.064.108-1.578z"/></defs><clipPath id="ar"><use xlink:href="#aq" overflow="visible"/></clipPath><g clip-path="url(#ar)"><path d="M99.172 41.012v.56c0 .514-.036 1.037-.108 1.578a36.284 36.284 0 0 1-.261 1.684v-.56c.099-.558.189-1.126.261-1.684.072-.541.108-1.064.108-1.578" fill="#23662c"/></g></g><g><defs><path id="as" d="M92.917 44.592v-.56c0 .135.114.251.261.259v.56c-.147-.008-.261-.124-.261-.259z"/></defs><clipPath id="at"><use xlink:href="#as" overflow="visible"/></clipPath><g clip-path="url(#at)"><path d="M93.178 44.292v.56a.283.283 0 0 1-.109-.028v-.56c.033.016.07.025.109.028" fill="#24682d"/><path d="M93.069 44.264v.56a.26.26 0 0 1-.152-.231v-.56a.26.26 0 0 0 .152.231" fill="#23662c"/></g></g><g><path d="M98.596 38.3c.225.337.369.727.45 1.196.081.461.126.966.126 1.516 0 .514-.036 1.037-.108 1.578a36.284 36.284 0 0 1-.261 1.684l-2.349-.293a.243.243 0 0 1-.216-.292c.014-.061.288-1.223.378-1.79a9.21 9.21 0 0 0 .135-1.392c0-.381-.054-.656-.162-.815a.537.537 0 0 0-.468-.248c-.324 0-.522.222-.594.656-.081.443-.117 1.108-.117 2.003 0 .124 0 .275.009.479 0 .195.009.399.009.612.009.213.018.425.036.629.009.204.027.381.045.514l-2.331-.044c-.153-.009-.27-.133-.261-.275l.018-.425c.009-.213.018-.425.018-.647.009-.222.009-.496.009-.798V40.95c0-.195-.009-.381-.018-.567a2.4 2.4 0 0 0-.09-.479 1.19 1.19 0 0 0-.162-.337.339.339 0 0 0-.27-.124c-.252 0-.405.071-.468.204a.818.818 0 0 0-.099.399l-.081 3.838a.29.29 0 0 1-.279.275l-1.989.035c-.153 0-.279-.115-.27-.266v-1.702c.009-.594.009-1.161 0-1.702 0-.532-.009-1.064-.027-1.587-.009-.523-.036-1.064-.063-1.64l2.043-.044c.162 0 .289.12.306.257l.018.133.018.177.063.142.144-.089c.099-.08.198-.168.306-.239a1.66 1.66 0 0 1 .432-.222 1.64 1.64 0 0 1 .513-.08c.36 0 .657.08.9.239.135.097.261.213.351.346l.117.097.063-.009.162-.124.207-.177.261-.168c.324-.195.72-.292 1.17-.292.612 0 1.107.097 1.485.284.378.187.675.444.891.772z" fill="#369642"/></g><g><path fill="#256a2e" d="M95.509 44.336v.56l-2.331-.045v-.559z"/></g></g><g><defs><path id="au" d="M83.94 37.459v.56a.209.209 0 0 1-.004.043v-.56a.299.299 0 0 0 .004-.043z"/></defs><clipPath id="av"><use xlink:href="#au" overflow="visible"/></clipPath><g clip-path="url(#av)"><path d="M83.94 37.459v.56a.209.209 0 0 1-.004.043v-.56a.299.299 0 0 0 .004-.043" fill="#23662c"/></g><defs><path id="aw" d="M85.555 38.167v.56a48.502 48.502 0 0 0-.081-1.17v-.56c.036.452.063.842.081 1.17z"/></defs><clipPath id="ax"><use xlink:href="#aw" overflow="visible"/></clipPath><g clip-path="url(#ax)"><path d="M85.555 38.167v.56a48.502 48.502 0 0 0-.081-1.17v-.56c.036.452.063.842.081 1.17" fill="#23662c"/></g><defs><path id="ay" d="M83.935 37.503v.56c-.005.029-.099.576-.153 1.028v-.56c.054-.452.148-1 .153-1.028z"/></defs><clipPath id="az"><use xlink:href="#ay" overflow="visible"/></clipPath><g clip-path="url(#az)"><path d="M83.935 37.503v.56c-.005.029-.099.576-.153 1.028v-.56c.054-.452.148-1 .153-1.028" fill="#23662c"/></g><defs><path id="aA" d="M85.618 39.107v.56c-.018-.301-.036-.612-.063-.939v-.56c.027.327.045.637.063.939z"/></defs><clipPath id="aB"><use xlink:href="#aA" overflow="visible"/></clipPath><g clip-path="url(#aB)"><path d="M85.618 39.107v.56c-.018-.301-.036-.612-.063-.939v-.56c.027.327.045.637.063.939" fill="#23662c"/></g><defs><path id="aC" d="M83.782 38.531v.56c-.054.39-.099.824-.144 1.294v-.56c.045-.47.09-.904.144-1.294z"/></defs><clipPath id="aD"><use xlink:href="#aC" overflow="visible"/></clipPath><g clip-path="url(#aD)"><path d="M83.782 38.531v.56c-.054.39-.099.824-.144 1.294v-.56c.045-.47.09-.904.144-1.294" fill="#23662c"/></g><defs><path id="aE" d="M85.645 40.029v.56l-.027-.922v-.56l.027.922z"/></defs><clipPath id="aF"><use xlink:href="#aE" overflow="visible"/></clipPath><g clip-path="url(#aF)"><path d="M85.645 40.029v.56l-.027-.922v-.56l.027.922" fill="#23662c"/></g><g><defs><path id="aG" d="M85.654 41.154v.56c0-.434-.009-.807-.009-1.126v-.56c0 .32.009.692.009 1.126z"/></defs><clipPath id="aH"><use xlink:href="#aG" overflow="visible"/></clipPath><g clip-path="url(#aH)"><path d="M85.654 41.154v.56c0-.434-.009-.807-.009-1.126v-.56c0 .32.009.692.009 1.126" fill="#23662c"/></g></g><g><defs><path id="aI" d="M83.638 39.825v.56c-.054.47-.072.931-.072 1.418v-.56c0-.488.018-.949.072-1.418z"/></defs><clipPath id="aJ"><use xlink:href="#aI" overflow="visible"/></clipPath><g clip-path="url(#aJ)"><path d="M83.638 39.825v.56c-.054.47-.072.931-.072 1.418v-.56c0-.488.018-.949.072-1.418" fill="#23662c"/></g></g><g><path fill="#25692e" d="M85.798 43.787v.559l-.252.151v-.56z"/></g><g><defs><path id="aK" d="M85.869 43.943v.56c0-.073-.015-.14-.071-.157v-.56c.057.018.071.084.071.157z"/></defs><clipPath id="aL"><use xlink:href="#aK" overflow="visible"/></clipPath><g clip-path="url(#aL)"><path d="M85.869 43.943v.56c0-.068-.013-.13-.059-.152v-.56c.047.022.059.084.059.152" fill="#23662c"/><path d="M85.81 43.791v.56a.049.049 0 0 0-.011-.004v-.56l.011.004" fill="#24682d"/></g></g><g><defs><path id="aM" d="M85.546 43.937v.56a2.723 2.723 0 0 1-.432.266v-.56c.153-.08.297-.159.432-.266z"/></defs><clipPath id="aN"><use xlink:href="#aM" overflow="visible"/></clipPath><g clip-path="url(#aN)"><path d="M85.546 43.937v.56a2.723 2.723 0 0 1-.432.266v-.56c.153-.08.297-.159.432-.266" fill="#24682d"/></g></g><g><defs><path id="aO" d="M82.675 44.212v.56c-.405-.16-.738-.372-.999-.656a2.768 2.768 0 0 1-.567-1.037 4.6 4.6 0 0 1-.189-1.365v-.56c0 .505.063.957.189 1.365.126.408.315.753.567 1.037.261.284.594.496.999.656z"/></defs><clipPath id="aP"><use xlink:href="#aO" overflow="visible"/></clipPath><g clip-path="url(#aP)"><path d="M82.675 44.212v.56a3.704 3.704 0 0 1-.23-.1v-.56c.074.035.151.069.23.1" fill="#24682d"/><path d="M82.446 44.112v.56a2.503 2.503 0 0 1-.769-.556 2.768 2.768 0 0 1-.567-1.037 4.6 4.6 0 0 1-.189-1.365v-.56c0 .505.063.957.189 1.365.126.408.315.753.567 1.037.209.228.466.41.769.556" fill="#23662c"/></g></g><g><defs><path id="aQ" d="M85.114 44.203v.56a2.47 2.47 0 0 1-.495.168v-.56a2.47 2.47 0 0 0 .495-.168z"/></defs><clipPath id="aR"><use xlink:href="#aQ" overflow="visible"/></clipPath><g clip-path="url(#aR)"><path d="M85.114 44.203v.56a2.47 2.47 0 0 1-.495.168v-.56a2.47 2.47 0 0 0 .495-.168" fill="#24682d"/></g></g><g><defs><path id="aS" d="M86.122 44.416v.56a.263.263 0 0 1-.27-.266v-.56c0 .151.117.266.27.266z"/></defs><clipPath id="aT"><use xlink:href="#aS" overflow="visible"/></clipPath><g clip-path="url(#aT)"><path d="M86.122 44.416v.56a.287.287 0 0 1-.122-.027v-.56a.29.29 0 0 0 .122.027" fill="#24682d"/><path d="M86 44.389v.56a.261.261 0 0 1-.148-.239v-.56c0 .107.059.196.148.239" fill="#23662c"/></g></g><g><path fill="#256a2e" d="M88.363 44.372v.559l-2.241.044v-.559z"/></g><g><path d="M88.228 40.667c.027.576.045 1.17.072 1.764.018.603.045 1.25.063 1.941l-2.241.044a.263.263 0 0 1-.27-.266c0-.08.063-.328-.054-.363l-.252.151a2.723 2.723 0 0 1-.432.266 2.47 2.47 0 0 1-.495.168 1.957 1.957 0 0 1-.495.062c-.567 0-1.044-.071-1.449-.222-.405-.16-.738-.372-.999-.656a2.768 2.768 0 0 1-.567-1.037 4.6 4.6 0 0 1-.189-1.365c0-.355.018-.753.054-1.205.027-.425.072-.851.117-1.276.054-.47.108-.94.171-1.4l2.439-.027c.16 0 .26.12.234.257a31.696 31.696 0 0 0-.297 2.322c-.054.47-.072.931-.072 1.418 0 .266.081.496.243.691.162.195.405.284.729.284.306 0 .567-.089.783-.284.216-.195.333-.452.333-.78 0-.434-.009-.807-.009-1.126l-.027-.922c-.018-.301-.036-.612-.063-.939a48.502 48.502 0 0 0-.081-1.17l2.34-.044c.161 0 .279.12.288.266.001.053.027 1.064.054 1.666.027.603.045 1.197.072 1.782z" fill="#369642"/></g><g><defs><path id="aU" d="M84.619 44.372v.56a1.957 1.957 0 0 1-.495.062c-.567 0-1.044-.071-1.449-.222v-.56c.405.151.882.222 1.449.222.162 0 .324-.018.495-.062z"/></defs><clipPath id="aV"><use xlink:href="#aU" overflow="visible"/></clipPath><g clip-path="url(#aV)"><path d="M84.619 44.372v.56a1.957 1.957 0 0 1-.495.062c-.567 0-1.044-.071-1.449-.222v-.56c.405.151.882.222 1.449.222.162 0 .324-.018.495-.062" fill="#24682d"/></g></g></g><g><defs><path id="aW" d="M78.022 39.417v.56c-.189-.195-.486-.292-.882-.292-.135 0-.27.027-.414.089v-.56c.144-.062.279-.089.414-.089.396 0 .693.097.882.292z"/></defs><clipPath id="aX"><use xlink:href="#aW" overflow="visible"/></clipPath><g clip-path="url(#aX)"><path d="M78.022 39.417v.56a.827.827 0 0 0-.238-.169v-.56a.813.813 0 0 1 .238.169" fill="#23662c"/><path d="M77.784 39.248v.56a1.491 1.491 0 0 0-.644-.123c-.135 0-.27.027-.414.089v-.56c.144-.062.279-.089.414-.089.258 0 .473.041.644.123" fill="#24682d"/></g><defs><path id="aY" d="M76.726 39.213v.56a1.184 1.184 0 0 0-.369.266v-.56c.108-.115.234-.204.369-.266z"/></defs><clipPath id="aZ"><use xlink:href="#aY" overflow="visible"/></clipPath><g clip-path="url(#aZ)"><path d="M76.726 39.213v.56c-.103.047-.201.11-.289.188v-.56c.089-.078.187-.141.289-.188" fill="#24682d"/><path d="M76.437 39.401v.56a.978.978 0 0 0-.08.078v-.56c.026-.027.053-.053.08-.078" fill="#23662c"/></g><defs><path id="ba" d="M78.31 39.807v.56a1.426 1.426 0 0 0-.288-.39v-.56c.198.195.284.38.288.39z"/></defs><clipPath id="bb"><use xlink:href="#ba" overflow="visible"/></clipPath><g clip-path="url(#bb)"><path d="M78.31 39.807v.56c-.005-.01-.09-.195-.288-.39v-.56c.198.195.284.38.288.39" fill="#23662c"/></g><path fill="#256a2e" d="M80.407 39.568v.559l-1.719.426v-.56z"/><defs><path id="bc" d="M78.688 39.993v.56a.333.333 0 0 1-.378-.187v-.56a.335.335 0 0 0 .378.187z"/></defs><clipPath id="bd"><use xlink:href="#bc" overflow="visible"/></clipPath><g clip-path="url(#bd)"><path d="M78.688 39.993v.56a.333.333 0 0 1-.22-.026v-.56a.333.333 0 0 0 .22.026" fill="#24682d"/><path d="M78.469 39.968v.56a.326.326 0 0 1-.158-.161v-.56a.322.322 0 0 0 .158.161" fill="#23662c"/></g><g><defs><path id="be" d="M76.357 39.479v.56a1.432 1.432 0 0 0-.27.443 1.644 1.644 0 0 0-.108.629v-.56c0-.248.036-.452.108-.629.072-.177.162-.328.27-.443z"/></defs><clipPath id="bf"><use xlink:href="#be" overflow="visible"/></clipPath><g clip-path="url(#bf)"><path d="M76.357 39.479v.56a1.432 1.432 0 0 0-.27.443 1.644 1.644 0 0 0-.108.629v-.56c0-.248.036-.452.108-.629.072-.177.162-.328.27-.443" fill="#23662c"/></g></g><g><defs><path id="bg" d="M80.312 41.792v.56a.282.282 0 0 1-.012.08v-.56a.272.272 0 0 0 .012-.08z"/></defs><clipPath id="bh"><use xlink:href="#bg" overflow="visible"/></clipPath><g clip-path="url(#bh)"><path d="M80.312 41.792v.56a.282.282 0 0 1-.012.08v-.56a.272.272 0 0 0 .012-.08" fill="#23662c"/></g></g><g><defs><path id="bi" d="M73.729 42.049v.56a4.736 4.736 0 0 1-.207-1.392v-.56c0 .488.072.949.207 1.392z"/></defs><clipPath id="bj"><use xlink:href="#bi" overflow="visible"/></clipPath><g clip-path="url(#bj)"><path d="M73.729 42.049v.56a4.736 4.736 0 0 1-.207-1.392v-.56c0 .488.072.949.207 1.392" fill="#23662c"/></g></g><g><defs><path id="bk" d="M80.299 41.872v.56c-.009.03-.18.594-.396.931v-.56c.216-.337.387-.901.396-.931z"/></defs><clipPath id="bl"><use xlink:href="#bk" overflow="visible"/></clipPath><g clip-path="url(#bl)"><path d="M80.299 41.872v.56c-.009.03-.18.594-.396.931v-.56c.216-.337.387-.901.396-.931" fill="#23662c"/></g></g><g><path d="M76.357 39.479a1.432 1.432 0 0 0-.27.443 1.644 1.644 0 0 0-.108.629c0 .452.117.824.351 1.099.234.284.54.425.909.425a.907.907 0 0 0 .342-.08 1.886 1.886 0 0 0 .684-.523.98.98 0 0 0 .18-.408l1.674.47a.268.268 0 0 1 .18.337c-.009.03-.18.594-.396.931a3.054 3.054 0 0 1-1.683 1.321c-.342.106-.702.16-1.053.16-.639 0-1.188-.097-1.638-.292a3.189 3.189 0 0 1-1.134-.789 3.295 3.295 0 0 1-.666-1.152 4.736 4.736 0 0 1-.207-1.392c0-.558.072-1.064.234-1.516a3.025 3.025 0 0 1 1.818-1.905 4.275 4.275 0 0 1 1.521-.257c.927 0 1.665.239 2.223.718.549.47.909 1.099 1.089 1.87l-1.719.425a.333.333 0 0 1-.378-.187c-.005-.01-.09-.195-.288-.39-.189-.195-.486-.292-.882-.292-.135 0-.27.027-.414.089a1.184 1.184 0 0 0-.369.266z" fill="#369642"/></g><g><defs><path id="bm" d="M79.903 42.803v.56a3.054 3.054 0 0 1-1.683 1.321c-.342.106-.702.16-1.053.16-.639 0-1.188-.097-1.638-.292a3.189 3.189 0 0 1-1.134-.789 3.295 3.295 0 0 1-.666-1.152v-.56c.144.434.369.815.666 1.152.297.328.675.594 1.134.789.45.195.999.292 1.638.292a3.55 3.55 0 0 0 1.053-.16c.342-.106.657-.275.936-.488.288-.222.54-.496.747-.833z"/></defs><clipPath id="bn"><use xlink:href="#bm" overflow="visible"/></clipPath><g clip-path="url(#bn)"><path d="M79.903 42.803v.56a3.106 3.106 0 0 1-.586.701v-.56c.222-.197.419-.429.586-.701" fill="#23662c"/><path d="M79.317 43.503v.56a3.04 3.04 0 0 1-1.097.62c-.342.106-.702.16-1.053.16-.639 0-1.188-.097-1.638-.292-.054-.023-.106-.047-.158-.071v-.56c.052.025.104.049.158.071.45.195.999.292 1.638.292a3.55 3.55 0 0 0 1.053-.16 3.018 3.018 0 0 0 1.097-.62" fill="#24682d"/><path d="M75.372 43.919v.56a3.134 3.134 0 0 1-.976-.717 3.295 3.295 0 0 1-.666-1.152v-.56c.144.434.369.815.666 1.152.262.289.587.53.976.717" fill="#23662c"/></g></g></g><g><defs><path id="bo" d="M70.561 36.767v.56a4.492 4.492 0 0 0-.612-.23 1.867 1.867 0 0 0-.504-.071c-.171 0-.297.035-.378.124v-.56c.081-.089.207-.124.378-.124.144 0 .315.018.504.071.189.053.396.132.612.23z"/></defs><clipPath id="bp"><use xlink:href="#bo" overflow="visible"/></clipPath><g clip-path="url(#bp)"><path d="M70.561 36.767v.56a4.492 4.492 0 0 0-.612-.23 1.867 1.867 0 0 0-.504-.071c-.155 0-.273.029-.354.101v-.56c.081-.072.199-.101.354-.101.144 0 .315.018.504.071.189.053.396.132.612.23" fill="#24682d"/><path d="M69.091 36.566v.56l-.024.023v-.56l.024-.023" fill="#23662c"/></g><defs><path id="bq" d="M69.067 36.59v.56a.425.425 0 0 0-.117.319v-.56c0-.133.036-.24.117-.319z"/></defs><clipPath id="br"><use xlink:href="#bq" overflow="visible"/></clipPath><g clip-path="url(#br)"><path d="M69.067 36.59v.56a.425.425 0 0 0-.117.319v-.56c0-.133.036-.24.117-.319" fill="#23662c"/></g><defs><path id="bs" d="M71.236 37.139v.56a7.284 7.284 0 0 0-.675-.372v-.56c.225.106.441.23.675.372z"/></defs><clipPath id="bt"><use xlink:href="#bs" overflow="visible"/></clipPath><g clip-path="url(#bt)"><path d="M71.236 37.139v.56a7.452 7.452 0 0 0-.647-.359v-.56c.215.103.423.223.647.359" fill="#23662c"/><path d="M70.589 36.78v.56l-.028-.013v-.56l.028.013" fill="#24682d"/></g><path fill="#23662c" d="M72.847 36.164v.56l-.819 1.249v-.559z"/><defs><path id="bu" d="M71.668 37.467v.56a5.068 5.068 0 0 0-.432-.328v-.56c.225.151.422.319.432.328z"/></defs><clipPath id="bv"><use xlink:href="#bu" overflow="visible"/></clipPath><g clip-path="url(#bv)"><path d="M71.668 37.467v.56a5.068 5.068 0 0 0-.432-.328v-.56c.225.151.422.319.432.328" fill="#23662c"/></g><g><defs><path id="bw" d="M72.028 37.414v.56a.241.241 0 0 1-.202.112.245.245 0 0 1-.158-.059v-.56a.239.239 0 0 0 .36-.053z"/></defs><clipPath id="bx"><use xlink:href="#bw" overflow="visible"/></clipPath><g clip-path="url(#bx)"><path d="M72.028 37.414v.56a.228.228 0 0 1-.045.052v-.56a.251.251 0 0 0 .045-.052" fill="#23662c"/><path d="M71.983 37.466v.56a.237.237 0 0 1-.261.036v-.56a.232.232 0 0 0 .261-.036" fill="#24682d"/><path d="M71.723 37.502v.56a.299.299 0 0 1-.055-.035v-.56a.254.254 0 0 0 .055.035" fill="#23662c"/></g></g><g><defs><path id="by" d="M68.815 40.667v.56c-.297-.168-.612-.363-.945-.558a5.689 5.689 0 0 1-.945-.709 3.963 3.963 0 0 1-.729-.939c-.198-.346-.288-.753-.288-1.214v-.56c0 .461.09.869.288 1.214.198.355.441.665.729.939.288.266.603.505.945.709.333.194.648.389.945.558z"/></defs><clipPath id="bz"><use xlink:href="#by" overflow="visible"/></clipPath><g clip-path="url(#bz)"><path d="M68.815 40.667v.56c-.297-.168-.612-.363-.945-.558a5.689 5.689 0 0 1-.945-.709 3.963 3.963 0 0 1-.729-.939c-.198-.346-.288-.753-.288-1.214v-.56c0 .461.09.869.288 1.214.198.355.441.665.729.939.288.266.603.505.945.709.333.194.648.389.945.558" fill="#23662c"/></g></g><g><defs><path id="bA" d="M69.544 41.163v.56a7.057 7.057 0 0 0-.729-.496v-.56c.288.177.531.336.729.496z"/></defs><clipPath id="bB"><use xlink:href="#bA" overflow="visible"/></clipPath><g clip-path="url(#bB)"><path d="M69.544 41.163v.56a7.057 7.057 0 0 0-.729-.496v-.56c.288.177.531.336.729.496" fill="#23662c"/></g></g><g><defs><path id="bC" d="M69.832 41.668v.56c0-.177-.099-.346-.288-.505v-.56c.189.16.288.328.288.505z"/></defs><clipPath id="bD"><use xlink:href="#bC" overflow="visible"/></clipPath><g clip-path="url(#bD)"><path d="M69.832 41.668v.56c0-.177-.099-.346-.288-.505v-.56c.189.16.288.328.288.505" fill="#23662c"/></g></g><g><path d="M71.875 39.045c.297.275.54.594.738.975.198.381.297.833.297 1.356 0 .505-.108.948-.324 1.312a2.832 2.832 0 0 1-.837.913 3.646 3.646 0 0 1-1.161.532 4.79 4.79 0 0 1-1.314.177c-.873 0-1.611-.16-2.205-.479-.594-.319-1.134-.798-1.611-1.445l1.017-1.259a.242.242 0 0 1 .184-.091c.062 0 .124.027.176.082.006.006.117.124.315.284.198.151.414.284.648.399.225.115.468.213.711.293.243.071.468.115.684.115.207 0 .369-.044.477-.115.108-.08.162-.213.162-.425 0-.177-.099-.346-.288-.505a7.057 7.057 0 0 0-.729-.496c-.297-.168-.612-.363-.945-.558a5.689 5.689 0 0 1-.945-.709 3.963 3.963 0 0 1-.729-.939c-.198-.346-.288-.753-.288-1.214 0-.443.081-.842.252-1.179.171-.337.405-.62.693-.851.288-.23.63-.399 1.008-.514a3.874 3.874 0 0 1 1.215-.177c.765 0 1.449.133 2.052.417a5.898 5.898 0 0 1 1.719 1.223l-.819 1.25a.241.241 0 0 1-.202.112.245.245 0 0 1-.158-.059 5.068 5.068 0 0 0-.432-.328 7.284 7.284 0 0 0-.675-.372 4.492 4.492 0 0 0-.612-.23 1.867 1.867 0 0 0-.504-.071c-.171 0-.297.035-.378.124a.425.425 0 0 0-.117.319c0 .168.099.328.288.47.198.151.441.301.738.452.324.168.639.337.954.523.333.182.648.413.945.688z" fill="#369642"/></g><g><defs><path id="bE" d="M72.91 41.376v.56c0 .505-.108.948-.324 1.312a2.832 2.832 0 0 1-.837.913 3.646 3.646 0 0 1-1.161.532 4.79 4.79 0 0 1-1.314.177c-.873 0-1.611-.16-2.205-.479-.594-.319-1.134-.798-1.611-1.445v-.56c.477.647 1.017 1.126 1.611 1.445.594.319 1.332.479 2.205.479a4.79 4.79 0 0 0 1.314-.177 3.624 3.624 0 0 0 1.161-.532c.342-.239.621-.541.837-.913.216-.364.324-.807.324-1.312z"/></defs><clipPath id="bF"><use xlink:href="#bE" overflow="visible"/></clipPath><g clip-path="url(#bF)"><path d="M72.91 41.376v.56c0 .505-.108.948-.324 1.312a2.849 2.849 0 0 1-.579.71v-.56c.227-.201.42-.436.579-.71.216-.364.324-.807.324-1.312" fill="#23662c"/><path d="M72.008 43.397v.56c-.082.072-.168.14-.258.203a3.646 3.646 0 0 1-1.161.532 4.79 4.79 0 0 1-1.314.177c-.809 0-1.501-.137-2.071-.411v-.56c.57.274 1.263.411 2.071.411a4.79 4.79 0 0 0 1.314-.177 3.624 3.624 0 0 0 1.161-.532c.09-.063.176-.131.258-.203" fill="#24682d"/><path d="M67.203 43.899v.56c-.045-.022-.09-.044-.134-.068-.594-.319-1.134-.798-1.611-1.445v-.56c.477.647 1.017 1.126 1.611 1.445a5.6 5.6 0 0 0 .134.068" fill="#23662c"/></g></g></g></g></g><g><path d="M74.731 51.97l.55-.585-.463-.52a.879.879 0 0 1-.098-.13.2.2 0 0 1-.033-.104c0-.034.021-.065.063-.092a.277.277 0 0 1 .153-.041c.069 0 .123.015.162.045s.092.085.16.165l.369.435.394-.435.083-.094a.486.486 0 0 1 .066-.064.214.214 0 0 1 .071-.039.282.282 0 0 1 .091-.013c.063 0 .114.014.153.041.04.027.06.06.06.097 0 .055-.043.128-.129.222l-.483.527.522.585a.965.965 0 0 1 .102.127.183.183 0 0 1 .032.096c0 .028-.009.055-.028.078s-.046.042-.081.056-.074.021-.117.021a.298.298 0 0 1-.119-.021c-.033-.014-.059-.032-.079-.053l-.112-.123-.433-.496-.459.511a3.429 3.429 0 0 1-.077.085.368.368 0 0 1-.054.048.234.234 0 0 1-.076.037.346.346 0 0 1-.102.013.26.26 0 0 1-.15-.04.133.133 0 0 1-.06-.117c-.001-.061.04-.135.122-.222z" fill="#9e9ea1"/></g></svg>