<svg xmlns="http://www.w3.org/2000/svg" viewBox="0 0 177.267 398.861"><path d="M65.739 336.042c5.204-.001 10.409-.007 15.613.002 1.673.003 1.813.23 1.058 1.718-2.722 5.365-4.712 11.008-5.843 16.895a66.276 66.276 0 0 0-.792 20.01c.893 7.95 3.178 15.426 6.759 22.542.586 1.165.347 1.574-1.004 1.576-10.272.012-20.548.19-30.814-.05-11.864-.277-21.823-8.552-24.573-20.029-.434-1.81-.734-3.656-.701-5.553.064-3.697.014-7.395.019-11.093.015-11.608 7.501-21.654 18.615-24.947 2.326-.689 4.707-1.077 7.145-1.073 4.84.01 9.679.004 14.518.002z" fill="#717174"/><path d="M97.409 362.339c-2.419 0-4.841.074-7.257-.021-2.247-.089-3.796.918-4.746 2.82-.513 1.026-1.187 1.376-2.262 1.333a47.35 47.35 0 0 0-3.97 0c-1.237.054-1.707-.449-1.689-1.692.074-5.241 1.053-10.33 2.466-15.349 1.192-4.236 2.984-8.229 5.014-12.122.356-.682.765-1.242 1.63-1.254 4.381-.058 8.781-.242 12.995 1.289 9.032 3.281 14.81 9.589 17.231 18.878.69 2.649.853 5.409.672 8.156-.07 1.067.33 1.484 1.388 1.467 1.642-.027 3.287.079 4.927.032 4.083-.117 7.516 1.398 10.32 4.253 2.333 2.376 5.135 3.375 8.365 3.426 1.734.027 3.47.04 5.203-.002 1.107-.027 1.407.515 1.399 1.519-.007.963-.206 1.602-1.352 1.56-2.597-.095-5.204.196-7.793-.171-3.095-.438-5.717-1.863-7.87-4.085-2.299-2.373-5.059-3.482-8.334-3.427-1.506.025-3.016.068-4.518-.015-1.303-.072-1.808.396-1.738 1.722.219 4.159-.332 8.231-2.051 12.036-4.039 8.942-10.867 14.316-20.645 15.83-2.638.408-5.282.213-7.925.277-.887.022-1.397-.387-1.811-1.168-3.69-6.957-6.249-14.26-7.099-22.137-.201-1.859-.479-3.7-.473-5.579.004-1.115.456-1.572 1.558-1.543 1.505.04 3.013.031 4.519.001.821-.017 1.376.256 1.728 1.041.989 2.21 2.741 3.133 5.141 3.107 4.701-.049 9.403-.045 14.104-.002 2.303.021 3.961-.896 4.907-3.005.367-.818.955-1.151 1.831-1.137 1.46.023 2.921.004 4.382-.002.619-.003 1.225-.028 1.261-.881.038-.907-.547-1.035-1.256-1.034-1.461.002-2.922-.024-4.382.002-.829.015-1.349-.316-1.725-1.066-1.058-2.105-2.696-3.203-5.161-3.082-2.323.114-4.656.025-6.984.025z" fill="#dfded8"/><path d="M100.368 370.563c-1.32.001-2.642.035-3.961-.007-1.967-.062-3.492-1.509-3.434-3.197.06-1.737 1.552-3.071 3.515-3.087 2.641-.021 5.282-.026 7.923.002 2.116.023 3.413 1.203 3.465 3.074.047 1.691-1.454 3.134-3.41 3.205-1.365.049-2.733.009-4.098.01z" fill="#717174" stroke="#5b5b5f" stroke-width=".5" stroke-miterlimit="10"/><g><path d="M108.413 0h23.256c7.795 0 14.173 6.378 14.173 14.173V297.08c0 7.795-6.378 14.173-14.173 14.173h-23.256" fill="#dfded8"/><path d="M37.429 311.253H14.173C6.378 311.253 0 304.875 0 297.08V14.173C0 6.378 6.378 0 14.173 0h23.256" fill="#d1ccc3"/><path d="M11.157 297.08V14.173C11.157 6.378 17.535 0 25.331 0h95.555c7.795 0 14.173 6.378 14.173 14.173V297.08c0 7.795-6.378 14.173-14.173 14.173H25.331c-7.796 0-14.174-6.378-14.174-14.173z" fill="#f4f3ec"/><path fill="#c8c2ae" d="M123.537 19.904v15.299h-9.956v-15.3zM123.537 40.851V56.15h-9.956V40.851z"/><path fill="#717174" d="M123.537 61.352V76.65h-9.956v-15.3zM123.537 82.464v15.3h-9.956v-15.3zM123.537 103.577v15.299h-9.956v-15.3zM123.537 124.332v15.299h-9.956v-15.3z"/><path fill="#c8c2ae" d="M123.537 145.138v15.3h-9.956v-15.3zM123.537 166.25v15.3h-9.956v-15.3zM123.538 187.057v15.3h-9.956v-15.3z"/><path fill="#d1ccc3" d="M102.566 19.904v15.299H87.267v-15.3zM81.395 19.904v15.299H66.096v-15.3z"/><path fill="#c8c2ae" d="M102.565 40.85v15.3H87.266v-15.3zM102.566 61.351v15.3H87.267v-15.3zM102.566 82.464v15.299h-15.3V82.464zM102.566 103.576v15.3H87.267v-15.3zM102.566 124.331v15.3H87.267v-15.3zM102.566 145.138v15.3h-15.3v-15.3zM102.566 166.25v15.3H87.267v-15.3zM81.394 40.851V56.15H66.095V40.851zM81.395 61.352V76.65h-15.3v-15.3zM81.394 82.464v15.3H66.095v-15.3zM81.395 103.577v15.299h-15.3v-15.3zM81.395 124.332v15.299h-15.3v-15.3zM81.394 145.138v15.3H66.095v-15.3zM60.647 61.352V76.65h-15.3v-15.3zM60.646 82.464v15.3H45.347v-15.3zM60.647 103.577v15.299H45.348v-15.3zM60.647 124.332v15.299H45.348v-15.3zM60.647 145.138v15.3h-15.3v-15.3zM39.476 19.904v15.299h-15.3v-15.3zM39.476 166.25v15.3h-15.3v-15.3zM39.475 187.057v15.3H24.176v-15.3zM39.476 210.78v15.299h-15.3v-15.3zM39.475 231.892v15.3H24.176v-15.3zM60.646 231.892v15.299H45.347v-15.299z"/><path fill="#d1ccc3" d="M60.646 273.505v15.3H45.347v-15.3z"/><path fill="#c8c2ae" d="M39.476 253.005v15.299h-15.3v-15.3z"/><path fill="#d1ccc3" d="M39.475 273.505v15.3H24.176v-15.3zM81.394 273.505v15.3H66.095v-15.3z"/><path fill="#717174" d="M102.565 273.505v15.299H87.267v-15.299zM102.566 253.004v15.3h-15.3v-15.3zM102.565 231.892v15.299H87.266v-15.3zM102.566 210.78v15.298h-15.3V210.78z"/><path fill="#d1ccc3" d="M60.647 19.903V56.15h-15.3V19.903zM60.647 166.25v36.246h-15.3V166.25z"/><g fill="#717174"><path d="M81.395 166.25v36.246h-15.3V166.25z"/><path d="M102.565 202.496H66.32v-15.299h36.246z"/></g><path fill="#717174" d="M39.476 40.85v119.587h-15.3V40.85z"/><circle cx="118.582" cy="249.692" r="7.719" fill="#717174"/><circle cx="118.605" cy="270.44" r="7.719" fill="#54923c"/><g><path d="M145.842 143.494c7.046-.201 7.603 1.91 12.442 6.837 4.027 4.1 8.861 5.824 14.434 5.912 2.992.047-.857.102 2.134.029 1.911-.047 2.427.888 2.414 2.621-.013 1.662-.355 2.764-2.333 2.692-4.481-.163-2.136.306-6.602-.327-5.341-.756-9.866-3.214-13.581-7.049-3.967-4.095-3.257-5.01-8.908-4.915" fill="#dfded8"/></g></g></svg>