<svg xmlns="http://www.w3.org/2000/svg" xmlns:xlink="http://www.w3.org/1999/xlink" viewBox="0 0 100.603 49.083"><path d="M24.541 49.083C10.995 49.083 0 38.088 0 24.541S10.995 0 24.541 0s24.541 10.995 24.541 24.541-10.994 24.542-24.541 24.542zm3.608-24.542c0-1.988-1.62-3.608-3.608-3.608s-3.608 1.644-3.608 3.608c0 1.988 1.595 3.608 3.608 3.608s3.608-1.62 3.608-3.608z" fill="#070308"/><path d="M24.541.393C11.215.393.392 11.216.392 24.542S11.215 48.69 24.541 48.69 48.69 37.867 48.69 24.541 37.867.393 24.541.393zm18.333 38.186c-4.221 5.497-10.847 9.056-18.332 9.056S10.455 44.101 6.21 38.579c-2.994-3.878-4.761-8.761-4.761-14.038 0-12.761 10.332-23.093 23.093-23.093S47.635 11.78 47.635 24.541c0 5.277-1.767 10.16-4.761 14.038z" fill="#fff"/><path d="M24.541 1.448C11.78 1.448 1.448 11.78 1.448 24.541c0 5.276 1.767 10.16 4.761 14.038h36.665c2.994-3.878 4.761-8.761 4.761-14.038 0-12.761-10.332-23.093-23.094-23.093zm0 30.505c-4.098 0-7.411-3.338-7.411-7.411s3.313-7.411 7.411-7.411 7.411 3.338 7.411 7.411-3.312 7.411-7.411 7.411z" fill="#598977"/><path d="M24.541 17.13c-4.098 0-7.411 3.338-7.411 7.411s3.313 7.411 7.411 7.411 7.411-3.338 7.411-7.411-3.312-7.411-7.411-7.411zm0 14.283c-3.804 0-6.872-3.092-6.872-6.872s3.092-6.872 6.872-6.872 6.872 3.092 6.872 6.872-3.068 6.872-6.872 6.872z" fill="#369742"/><path d="M24.541 17.67c-3.804 0-6.872 3.092-6.872 6.872s3.092 6.872 6.872 6.872 6.872-3.092 6.872-6.872-3.068-6.872-6.872-6.872zm0 13.326c-3.558 0-6.454-2.871-6.454-6.454s2.896-6.454 6.454-6.454 6.454 2.871 6.454 6.454-2.895 6.454-6.454 6.454z" fill="#939597"/><path d="M24.541 18.087c-3.558 0-6.454 2.871-6.454 6.454s2.871 6.454 6.454 6.454 6.454-2.871 6.454-6.454-2.895-6.454-6.454-6.454zm0 9.841c-1.988 0-3.608-1.595-3.608-3.608s1.595-3.608 3.608-3.608 3.608 1.62 3.608 3.608a3.598 3.598 0 0 1-3.608 3.608z" fill="#58595b" stroke="#383839" stroke-width=".564" stroke-miterlimit="10"/><g><path d="M34.933 35.578a.408.408 0 0 0-.279-.145l-.668-.058a.473.473 0 0 0-.444.238l-1.321 2.412-.704-2.612a.463.463 0 0 0-.392-.333l-.736-.074a.414.414 0 0 0-.452.352l-.641 4.301a.412.412 0 0 0 .082.311.41.41 0 0 0 .283.153l.594.052a.416.416 0 0 0 .448-.357l.166-1.198.4 1.375c.05.173.211.307.39.326l.396.042a.472.472 0 0 0 .448-.228l.706-1.224-.098 1.144-.002.035c0 .208.159.389.37.41l.712.074a.41.41 0 0 0 .45-.371l.386-4.325a.4.4 0 0 0-.094-.3zm-.708 4.68l-.344-.036-.056-.006-.312-.032a.096.096 0 0 1-.085-.103l.126-1.466.005-.056.082-.953c.004-.051-.013-.057-.039-.012l-1.373 2.381a.158.158 0 0 1-.139.071l-.396-.042a.15.15 0 0 1-.119-.1l-.285-.979-.016-.056-.488-1.675c-.014-.049-.032-.048-.039.003l-.208 1.5-.008.056-.054.388-.008.055-.08.576a.099.099 0 0 1-.106.084l-.594-.052a.086.086 0 0 1-.079-.1l.089-.599.008-.055.055-.372.008-.056.291-1.952.008-.056.18-1.211a.1.1 0 0 1 .107-.083l.736.074c.051.005.104.05.117.1l.203.754.015.056.409 1.516.015.056.243.903c.013.05.045.053.069.008l1.284-2.345.031-.056.34-.622a.158.158 0 0 1 .138-.074l.22.019.057.005.391.034c.051.005.089.05.085.101l-.108 1.214-.005.056-.216 2.424-.003.057-.051.575a.093.093 0 0 1-.1.084l-.001-.001z" fill="#333"/><path d="M34.326 40.175l.051-.575.005-.056.216-2.424.005-.056.108-1.214a.093.093 0 0 0-.085-.101l-.391-.034-.057-.005-.22-.019a.158.158 0 0 0-.138.074l-.34.622-.031.056-1.284 2.345c-.025.045-.056.041-.069-.008l-.243-.903-.015-.056-.409-1.516-.015-.056-.203-.754a.147.147 0 0 0-.117-.1l-.736-.074a.1.1 0 0 0-.107.083l-.18 1.211-.008.056-.291 1.952-.008.056-.055.372-.008.055-.089.599a.086.086 0 0 0 .079.1l.594.052a.1.1 0 0 0 .106-.084l.08-.576.008-.055.054-.388.008-.056.208-1.5c.007-.051.025-.052.039-.003l.488 1.675.016.056.285.979a.153.153 0 0 0 .119.1l.396.042a.157.157 0 0 0 .139-.071l1.373-2.381c.026-.044.043-.039.039.012l-.082.953-.005.056-.126 1.466a.097.097 0 0 0 .085.103l.312.032.056.006.344.036h.001a.093.093 0 0 0 .098-.084z" fill="#b6b5b5"/><g fill="#333"><path d="M34.125 39.544l-.007.015-.047.094-.185.025-.023.003-.002.022-.036.514.056.005.034-.492.179-.023.014-.002.007-.014.045-.091h.217l.005-.056zM29.699 39.106l.77.091.008-.055-.769-.092zM31.468 37.876h.385l-.015-.056h-.427v1.05h-.137l.016.056h.178zM34 36.423l.236-.708-.057-.005-.225.676h-.473l-.031.056h.544zM34.088 37.061l-.006.021-.166.602-.001.003v.004l-.003.869h-.353l-.004.056h.413v-.028l.003-.893.16-.578.467.002.005-.056-.494-.002zM30.471 36.651l.11-.347h.848l-.015-.056h-.874l-.006.019-.11.347h-.353l-.009.056h.403zM30.024 38.627l-.006-.003h-.007l-.24-.002-.008.056.241.002.129.07.007.004h.391l.007-.056h-.384z"/></g><path d="M29.982 34.964a.316.316 0 0 0-.284-.083l-.867.175a.319.319 0 0 0-.252.268l-.285 2.072a2995.59 2995.59 0 0 1-1.031-1.835.318.318 0 0 0-.341-.155l-.97.2a.317.317 0 0 0-.209.473l2.38 4.009a.317.317 0 0 0 .332.15l.582-.11a.317.317 0 0 0 .254-.259l.782-4.624a.313.313 0 0 0-.091-.281zm-.988 4.76a.144.144 0 0 1-.107.109l-.399.075a.142.142 0 0 1-.139-.063l-.282-.475-.029-.049-.621-1.046-.029-.049-.966-1.628-.033-.056-.324-.546c-.026-.044-.006-.089.044-.099l.787-.163c.05-.01.112.018.137.062l.165.294.032.056.846 1.506.028.05.331.59c.025.045.051.04.058-.011l.262-1.906.008-.056.118-.86a.141.141 0 0 1 .104-.111l.259-.052.056-.011.368-.074c.05-.01.085.023.076.074l-.301 1.778-.01.056-.131.775-.01.056-.102.604-.014.082-.182 1.088z" fill="#333"/><path d="M29.192 38.553l.102-.604.01-.056.131-.775.01-.056.301-1.778c.009-.051-.026-.084-.076-.074l-.368.074-.056.011-.259.052a.141.141 0 0 0-.104.111l-.118.86-.008.056-.262 1.906c-.007.051-.033.056-.058.011l-.331-.59-.028-.05-.846-1.506-.032-.056-.165-.294a.134.134 0 0 0-.137-.062l-.787.163c-.05.01-.07.055-.044.099l.324.546.033.056.966 1.628.029.049.621 1.046.029.049.282.475a.144.144 0 0 0 .139.063l.399-.075a.145.145 0 0 0 .107-.109l.184-1.088.012-.082z" fill="#b6b5b5"/><g fill="#333"><path d="M26.718 36.599v-.373h.264l.009-.012.049-.067h.189l-.031-.056h-.186l-.009.011-.049.068h-.292v.373h-.273l.033.056h.268zM29.038 36.369l.105-.088.01-.009v-.453l.067-.072.007-.008v-.154l.065-.057.01-.009v-.234l-.056.011v.198l-.065.058-.01.008v.157l-.066.072-.008.008v.449l-.087.073h-.246l-.008.056h.274zM29.104 37.239l-.073.072-.009.009v.011l-.002.591v.028h.275l.009-.056h-.227l.001-.551.074-.072.008-.008v-.145h.275l.01-.056h-.341zM28.782 38.719h-.01l-.007.005-.159.122-.011.009v.261l-.557.205.029.049.565-.208.019-.007v-.273l.14-.107.198.001h.01l.008-.006.172-.134.013-.083-.212.167zM28.076 37.653l-.688.573.029.049.687-.572z"/></g><path d="M27.132 37.33c.562.224.709.96.619 1.793-.039.361-.047.815-.401.865-.12.017-.256-.012-.382-.027-.113-.014-.243-.059-.355-.046-.068.008-.12.064-.182.082-.138.041-.31.018-.501.018-.116 0-.235.002-.337-.018-.062-.012-.125-.059-.191-.064-.061-.005-.122.029-.191.036-.185.02-.434.026-.628.009-.07-.006-.146-.046-.209-.046-.062.001-.132.047-.2.055-.243.027-.499-.094-.71-.073-.098.01-.198.097-.328.109a3.005 3.005 0 0 1-.683-.027c-.07-.013-.142-.059-.209-.064-.061-.004-.131.03-.2.036a4.515 4.515 0 0 1-.583.009c-.053-.003-.106-.021-.155-.018-.084.005-.167.063-.246.073a3.111 3.111 0 0 1-.646.009c-.071-.007-.143-.045-.218-.045-.102-.001-.197.047-.282.055-.492.043-.862-.193-1.111-.464-.11.053-.18.15-.282.218-.456.306-1.235.218-1.639-.1-.057-.045-.139-.183-.209-.182-.06.001-.164.141-.218.182a1.58 1.58 0 0 1-.865.31 1.659 1.659 0 0 1-1.256-.428c-.144-.134-.351-.355-.255-.628.049-.141.194-.285.3-.41.039-.046.098-.091.1-.137.005-.082-.129-.204-.164-.264a1.275 1.275 0 0 1-.055-1.065c.181-.407.66-.702 1.311-.655.248.018.503.094.719.219.309.177.629.341.528.81.13-.028.205-.12.319-.173.396-.183 1.029-.17 1.393.064.046.029.116.1.155.1.072.001.161-.145.228-.173.148-.063.625-.066.838-.045.085.008.171.067.237.064.071-.004.163-.092.218-.109.17-.052.692-.073.883-.018.063.018.13.092.2.1.067.008.155-.024.228-.027.136-.006.288-.016.419-.009.094.005.184.058.273.064.083.005.182-.037.273-.036.073.001.156.018.228.036.068.017.135.064.191.064.083-.001.172-.063.246-.082a1.36 1.36 0 0 1 .801.046c.059.022.165.119.228.118.074 0 .161-.129.228-.155.186-.073.461-.063.683-.055.1.004.189.059.282.064.082.004.171-.035.255-.036.08-.001.156.018.228.036.072.019.148.063.2.064.071.001.14-.055.2-.073.272-.08.599-.068.88.044z" fill="#333"/><g><defs><path id="a" d="M24.509 37.989v.165c0-.151-.009-.319-.018-.479v-.165c.009.16.018.329.018.479z"/></defs><clipPath id="b"><use xlink:href="#a" overflow="visible"/></clipPath><g clip-path="url(#b)"><path d="M24.509 37.989v.165c0-.151-.009-.319-.018-.479v-.165c.009.16.018.329.018.479" fill="#23662c"/></g><path fill="#24682d" d="M25.535 38.176v.164l-.081-.035v-.165z"/><path fill="#25692e" d="M25.454 38.14v.165l-.135.053v-.165z"/><path fill="#24682d" d="M26.678 38.211v.165l-.135-.071v-.165z"/><path fill="#22642b" d="M25.58 38.273v.165l-.045-.098v-.164zM25.319 38.193v.165l-.027.124v-.165z"/><defs><path id="c" d="M26.543 38.14v.165c-.09 0-.153.062-.171.186v-.165c.018-.124.081-.186.171-.186z"/></defs><clipPath id="d"><use xlink:href="#c" overflow="visible"/></clipPath><g clip-path="url(#d)"><path d="M26.543 38.14v.165a.146.146 0 0 0-.102.037v-.165a.146.146 0 0 1 .102-.037" fill="#24682d"/><path d="M26.441 38.177v.165a.237.237 0 0 0-.069.149v-.165c.01-.069.034-.119.069-.149" fill="#23662c"/></g><path fill="#22642b" d="M25.607 38.415v.164l-.027-.141v-.165z"/><defs><path id="e" d="M26.732 38.45v.165c0-.115-.018-.195-.054-.239v-.165c.036.044.054.124.054.239z"/></defs><clipPath id="f"><use xlink:href="#e" overflow="visible"/></clipPath><g clip-path="url(#f)"><path d="M26.732 38.45v.165c0-.115-.018-.195-.054-.239v-.165c.036.044.054.124.054.239" fill="#23662c"/></g><defs><path id="g" d="M24.518 38.459v.165c0-.16 0-.319-.009-.47v-.165c.009.151.009.311.009.47z"/></defs><clipPath id="h"><use xlink:href="#g" overflow="visible"/></clipPath><g clip-path="url(#h)"><path d="M24.518 38.459v.165c0-.16 0-.319-.009-.47v-.165c.009.151.009.311.009.47" fill="#23662c"/></g><path fill="#22642b" d="M25.616 38.583v.165l-.009-.169v-.164z"/><defs><path id="i" d="M26.372 38.326v.165a3.288 3.288 0 0 0-.036.594v-.165c0-.266.009-.461.036-.594z"/></defs><clipPath id="j"><use xlink:href="#i" overflow="visible"/></clipPath><g clip-path="url(#j)"><path d="M26.372 38.326v.165a3.288 3.288 0 0 0-.036.594v-.165c0-.266.009-.461.036-.594" fill="#23662c"/></g><defs><path id="k" d="M27.443 38.601v.165c0 .151-.009.301-.036.461v-.165c.027-.16.036-.31.036-.461z"/></defs><clipPath id="l"><use xlink:href="#k" overflow="visible"/></clipPath><g clip-path="url(#l)"><path d="M27.443 38.601v.165c0 .151-.009.301-.036.461v-.165c.027-.16.036-.31.036-.461" fill="#23662c"/></g><path fill="#22642b" d="M27.407 39.062v.164l-.018.142v-.164zM27.389 39.204v.164l-.018.16v-.165zM25.292 38.317v.165l-.027 1.126v-.165z"/><path fill="#23652c" d="M26.642 39.47v.164l-.063-.088v-.165z"/><path fill="#22642b" d="M27.371 39.363v.165l-.009.106v-.164z"/><path fill="#25692e" d="M26.696 39.478v.165l-.054-.009v-.164z"/><defs><path id="m" d="M26.984 39.514v.165c-.099-.009-.189-.027-.288-.035v-.165c.099.008.189.026.288.035z"/></defs><clipPath id="n"><use xlink:href="#m" overflow="visible"/></clipPath><g clip-path="url(#n)"><path d="M26.984 39.514v.165c-.099-.009-.189-.027-.288-.035v-.165c.099.008.189.026.288.035" fill="#24682d"/></g><path fill="#24672d" d="M25.265 39.443v.165l-.081.079v-.164z"/><g><path fill="#256a2e" d="M25.184 39.523v.164l-.585.009v-.164z"/></g><g><path fill="#23662c" d="M24.599 39.532v.164l-.081-.071v-.164z"/></g><g><path fill="#25692e" d="M27.164 39.532v.164l-.18-.018v-.164z"/></g><g><path fill="#23652b" d="M27.362 39.47v.164l-.027.071v-.165z"/></g><g><path fill="#25692e" d="M27.272 39.549v.165l-.108-.018v-.164z"/></g><g><path fill="#256a2e" d="M27.335 39.54v.165l-.063.009v-.165z"/></g><g><path fill="#23662c" d="M25.679 39.567v.165l-.081-.089v-.165z"/></g><g><path fill="#256a2e" d="M25.679 39.567h.063v.165h-.063z"/></g><g><path fill="#256a2e" d="M25.886 39.567h.18v.165h-.18z"/></g><g><path fill="#256a2e" d="M25.742 39.567h.144v.165h-.144z"/></g><g><path fill="#23652c" d="M26.363 39.523v.164l-.027.054v-.165z"/></g><g><path fill="#256a2e" d="M26.228 39.576h.108v.165h-.108z"/></g><g><path fill="#256a2e" d="M26.228 39.576v.165l-.162-.009v-.165z"/></g><g><path d="M27.407 38.149c.027.142.036.284.036.452 0 .151-.009.301-.036.461l-.018.142-.018.16-.009.106-.027.071-.063.009-.108-.018-.18-.018c-.099-.009-.189-.027-.288-.035l-.054-.009-.063-.089c.004-.018.081-.355.108-.523.027-.168.045-.301.045-.408 0-.115-.018-.195-.054-.239l-.135-.071c-.09 0-.153.062-.171.186a3.288 3.288 0 0 0-.036.594v.142l.009.177.009.186.009.098-.027.053h-.108l-.162-.009H25.679l-.081-.089.009-.124.009-.186v-.585l-.009-.168-.027-.142-.045-.097-.081-.035-.135.053-.027.124-.027 1.126-.081.08-.585.009-.081-.071v-.505-.496c0-.16 0-.319-.009-.47 0-.151-.009-.319-.018-.479l.603-.018.09.08.009.062v.053l.027.027.018-.018.018-.009.09-.08.126-.071.153-.018c.108 0 .189.018.261.071l.099.089.045.035.063-.035.063-.053.072-.053a.722.722 0 0 1 .342-.08c.18 0 .324.027.441.08a.654.654 0 0 1 .261.23.988.988 0 0 1 .135.345z" fill="#369642"/></g><g><defs><path id="o" d="M21.35 37.989v.165c-.009-.151-.009-.319-.018-.479v-.165c.009.16.009.329.018.479z"/></defs><clipPath id="p"><use xlink:href="#o" overflow="visible"/></clipPath><g clip-path="url(#p)"><path d="M21.35 37.989v.165c-.009-.151-.009-.319-.018-.479v-.165c.009.16.009.329.018.479" fill="#23662c"/></g><path fill="#24682d" d="M22.376 38.176v.164l-.081-.035v-.165z"/><path fill="#25692e" d="M22.295 38.14v.165l-.144.053v-.165z"/><path fill="#24682d" d="M23.519 38.211v.165l-.135-.071v-.165z"/><path fill="#22642b" d="M22.421 38.273v.165l-.045-.098v-.164zM22.151 38.193v.165l-.027.124v-.165z"/><defs><path id="q" d="M23.384 38.14v.165c-.099 0-.153.062-.18.186v-.165c.027-.124.081-.186.18-.186z"/></defs><clipPath id="r"><use xlink:href="#q" overflow="visible"/></clipPath><g clip-path="url(#r)"><path d="M23.384 38.14v.165a.153.153 0 0 0-.107.037v-.165a.153.153 0 0 1 .107-.037" fill="#24682d"/><path d="M23.277 38.177v.165c-.035.031-.058.08-.073.149v-.165c.015-.069.038-.118.073-.149" fill="#23662c"/></g><path fill="#22642b" d="M22.448 38.415v.164l-.027-.141v-.165z"/><defs><path id="s" d="M23.564 38.45v.165a.485.485 0 0 0-.045-.239v-.165a.485.485 0 0 1 .045.239z"/></defs><clipPath id="t"><use xlink:href="#s" overflow="visible"/></clipPath><g clip-path="url(#t)"><path d="M23.564 38.45v.165a.485.485 0 0 0-.045-.239v-.165a.485.485 0 0 1 .045.239" fill="#23662c"/></g><defs><path id="u" d="M21.359 38.459v.165c-.009-.16-.009-.319-.009-.47v-.165c0 .151 0 .311.009.47z"/></defs><clipPath id="v"><use xlink:href="#u" overflow="visible"/></clipPath><g clip-path="url(#v)"><path d="M21.359 38.459v.165c-.009-.16-.009-.319-.009-.47v-.165c0 .151 0 .311.009.47" fill="#23662c"/></g><defs><path id="w" d="M23.204 38.326v.165a4.418 4.418 0 0 0-.036.594v-.165c0-.266.018-.461.036-.594z"/></defs><clipPath id="x"><use xlink:href="#w" overflow="visible"/></clipPath><g clip-path="url(#x)"><path d="M23.204 38.326v.165a4.418 4.418 0 0 0-.036.594v-.165c0-.266.018-.461.036-.594" fill="#23662c"/></g><defs><path id="y" d="M24.275 38.601v.165c0 .151-.009.301-.027.461v-.165c.018-.16.027-.31.027-.461z"/></defs><clipPath id="z"><use xlink:href="#y" overflow="visible"/></clipPath><g clip-path="url(#z)"><path d="M24.275 38.601v.165c0 .151-.009.301-.027.461v-.165c.018-.16.027-.31.027-.461" fill="#23662c"/></g><g><path fill="#22642b" d="M22.124 38.317v.165l-.027 1.126v-.165z"/></g><g><path fill="#22652b" d="M23.474 39.47v.164l-.054-.088v-.165z"/></g><g><path fill="#24672d" d="M22.097 39.443v.165l-.081.079v-.164z"/></g><g><path fill="#256a2e" d="M22.016 39.523v.164l-.585.009v-.164z"/></g><g><path fill="#23662c" d="M21.431 39.532v.164l-.081-.071v-.164z"/></g><g><path fill="#25692e" d="M24.167 39.558v.165l-.693-.089v-.164z"/></g><g><defs><path id="A" d="M24.248 39.062v.165c-.027.168-.045.328-.081.496v-.165c.036-.168.054-.328.081-.496z"/></defs><clipPath id="B"><use xlink:href="#A" overflow="visible"/></clipPath><g clip-path="url(#B)"><path d="M24.248 39.062v.165c-.027.168-.045.328-.081.496v-.165c.036-.168.054-.328.081-.496" fill="#23662c"/></g></g><g><path fill="#23652c" d="M22.511 39.567v.165l-.072-.089v-.165z"/></g><g><path d="M24.113 37.803a.842.842 0 0 1 .126.346c.027.142.036.284.036.452 0 .151-.009.301-.027.461-.027.168-.045.328-.081.496l-.693-.089-.054-.089c.004-.018.081-.355.108-.523.027-.168.036-.301.036-.408a.485.485 0 0 0-.045-.239l-.135-.071c-.099 0-.153.062-.18.186a4.418 4.418 0 0 0-.036.594l.009.142v.177l.009.186.018.151-.693-.009-.072-.089v-.124l.009-.186v-.753l-.027-.142-.045-.097-.081-.035-.144.053-.027.124-.027 1.126-.081.08-.585.009-.081-.071c0-.016 0-.328.009-.505v-.496c-.009-.16-.009-.319-.009-.47-.009-.151-.009-.319-.018-.479l.603-.018.081.08.009.035v.053l.027.044.036-.027.09-.071.126-.071.153-.018a.44.44 0 0 1 .27.071l.099.098.036.027h.018l.045-.035.063-.053.081-.053a.673.673 0 0 1 .342-.08c.18 0 .324.027.432.08a.624.624 0 0 1 .27.23z" fill="#369642"/></g><g><path fill="#256a2e" d="M23.204 39.576v.165l-.693-.009v-.165z"/></g></g><g><defs><path id="C" d="M20.27 37.759v.165c-.009-.098-.009-.213-.018-.337v-.165c.009.124.009.239.018.337z"/></defs><clipPath id="D"><use xlink:href="#C" overflow="visible"/></clipPath><g clip-path="url(#D)"><path d="M20.27 37.759v.165c-.009-.098-.009-.213-.018-.337v-.165c.009.124.009.239.018.337" fill="#23662c"/></g><defs><path id="E" d="M19.793 37.564v.165c-.001.008-.027.168-.045.301v-.165c.018-.133.044-.293.045-.301z"/></defs><clipPath id="F"><use xlink:href="#E" overflow="visible"/></clipPath><g clip-path="url(#F)"><path d="M19.793 37.564v.165c-.001.008-.027.168-.045.301v-.165c.018-.133.044-.293.045-.301" fill="#23662c"/></g><defs><path id="G" d="M20.288 38.034v.165c0-.08-.009-.177-.018-.275v-.165c.009.097.018.195.018.275z"/></defs><clipPath id="H"><use xlink:href="#G" overflow="visible"/></clipPath><g clip-path="url(#H)"><path d="M20.288 38.034v.165c0-.08-.009-.177-.018-.275v-.165c.009.097.018.195.018.275" fill="#23662c"/></g><defs><path id="I" d="M19.748 37.865v.165c-.009.115-.027.248-.045.381v-.165c.018-.133.036-.266.045-.381z"/></defs><clipPath id="J"><use xlink:href="#I" overflow="visible"/></clipPath><g clip-path="url(#J)"><path d="M19.748 37.865v.165c-.009.115-.027.248-.045.381v-.165c.018-.133.036-.266.045-.381" fill="#23662c"/></g><defs><path id="K" d="M20.297 38.308v.165c0-.089 0-.186-.009-.275v-.165c.009.089.009.187.009.275z"/></defs><clipPath id="L"><use xlink:href="#K" overflow="visible"/></clipPath><g clip-path="url(#L)"><path d="M20.297 38.308v.165c0-.089 0-.186-.009-.275v-.165c.009.089.009.187.009.275" fill="#23662c"/></g><defs><path id="M" d="M19.703 38.246v.165c-.009.142-.018.275-.018.417v-.165c0-.142.009-.275.018-.417z"/></defs><clipPath id="N"><use xlink:href="#M" overflow="visible"/></clipPath><g clip-path="url(#N)"><path d="M19.703 38.246v.165c-.009.142-.018.275-.018.417v-.165c0-.142.009-.275.018-.417" fill="#23662c"/></g><g><defs><path id="O" d="M18.965 39.044v.165a1.444 1.444 0 0 1-.054-.408v-.165c0 .151.018.284.054.408z"/></defs><clipPath id="P"><use xlink:href="#O" overflow="visible"/></clipPath><g clip-path="url(#P)"><path d="M18.965 39.044v.165a1.444 1.444 0 0 1-.054-.408v-.165c0 .151.018.284.054.408" fill="#23662c"/></g></g><g><defs><path id="Q" d="M19.136 39.345v.165a.718.718 0 0 1-.171-.301v-.165c.036.115.09.222.171.301z"/></defs><clipPath id="R"><use xlink:href="#Q" overflow="visible"/></clipPath><g clip-path="url(#R)"><path d="M19.136 39.345v.165a.718.718 0 0 1-.171-.301v-.165c.036.115.09.222.171.301" fill="#23662c"/></g></g><g><path fill="#25692e" d="M20.342 39.416v.165l-.072.044v-.164z"/></g><g><path fill="#22642b" d="M20.36 39.523v.164l-.018-.106v-.165z"/></g><g><defs><path id="S" d="M19.424 39.54v.165a.657.657 0 0 1-.288-.195v-.165a.657.657 0 0 0 .288.195z"/></defs><clipPath id="T"><use xlink:href="#S" overflow="visible"/></clipPath><g clip-path="url(#T)"><path d="M19.424 39.54v.165c-.025-.009-.049-.02-.073-.031v-.165a.666.666 0 0 0 .073.031" fill="#24682d"/><path d="M19.351 39.509v.165a.598.598 0 0 1-.215-.164v-.165c.057.07.13.123.215.164" fill="#23662c"/></g></g><g><path fill="#24682d" d="M20.27 39.461v.164l-.126.08v-.165z"/></g><g><path fill="#25692e" d="M20.144 39.54v.165l-.144.044v-.164z"/></g><g><path fill="#256a2e" d="M20 39.585v.164l-.153.018v-.165z"/></g><g><path fill="#23662c" d="M20.441 39.602v.165l-.081-.08v-.164z"/></g><g><path fill="#256a2e" d="M21.098 39.585v.164l-.657.018v-.165z"/></g><g><path d="M21.062 38.495c0 .168.009.346.018.523s.009.363.018.567l-.657.018-.081-.08-.018-.106-.072.044-.126.08-.144.044-.153.018c-.162 0-.306-.018-.423-.062a.657.657 0 0 1-.288-.195.718.718 0 0 1-.171-.301 1.444 1.444 0 0 1-.054-.408c0-.098 0-.222.009-.355.009-.124.027-.248.036-.372l.054-.417h.72l.063.071c-.001.008-.027.168-.045.301-.009.115-.027.248-.045.381-.009.142-.018.275-.018.417l.072.204c.045.062.117.089.216.089l.234-.089c.063-.053.09-.133.09-.23v-.328c0-.089 0-.186-.009-.275 0-.08-.009-.177-.018-.275-.009-.098-.009-.213-.018-.337l.684-.018.081.08c0 .016.009.31.018.487l.027.524z" fill="#369642"/></g><g><defs><path id="U" d="M19.847 39.602v.165c-.162 0-.306-.018-.423-.062v-.165c.117.045.261.062.423.062z"/></defs><clipPath id="V"><use xlink:href="#U" overflow="visible"/></clipPath><g clip-path="url(#V)"><path d="M19.847 39.602v.165c-.162 0-.306-.018-.423-.062v-.165c.117.045.261.062.423.062" fill="#24682d"/></g></g></g><g><path fill="#256a2e" d="M17.795 38.043v.164l-.117.027v-.165z"/><defs><path id="W" d="M18.056 38.131v.165c-.054-.062-.144-.089-.261-.089v-.165c.117.001.207.027.261.089z"/></defs><clipPath id="X"><use xlink:href="#W" overflow="visible"/></clipPath><g clip-path="url(#X)"><path d="M18.056 38.131v.165a.205.205 0 0 0-.072-.053v-.165a.205.205 0 0 1 .072.053" fill="#23662c"/><path d="M17.984 38.078v.165a.44.44 0 0 0-.189-.035v-.165c.075 0 .139.01.189.035" fill="#24682d"/></g><path fill="#24682d" d="M17.678 38.069v.165l-.108.08v-.165z"/><path fill="#23652c" d="M18.137 38.246v.165l-.081-.115v-.165z"/><path fill="#23662c" d="M17.57 38.149v.165l-.081.124v-.165z"/><path fill="#24682d" d="M18.254 38.3v.164l-.117-.053v-.165z"/><path fill="#256a2e" d="M18.758 38.176v.164l-.504.124V38.3z"/><path fill="#22642b" d="M17.489 38.273v.165l-.036.186v-.165z"/><defs><path id="Y" d="M16.796 38.902v.165a1.212 1.212 0 0 1-.063-.408v-.165c0 .142.018.284.063.408z"/></defs><clipPath id="Z"><use xlink:href="#Y" overflow="visible"/></clipPath><g clip-path="url(#Z)"><path d="M16.796 38.902v.165a1.212 1.212 0 0 1-.063-.408v-.165c0 .142.018.284.063.408" fill="#23662c"/></g><defs><path id="aa" d="M18.722 38.849v.165a.938.938 0 0 1-.117.275v-.165a.938.938 0 0 0 .117-.275z"/></defs><clipPath id="ab"><use xlink:href="#aa" overflow="visible"/></clipPath><g clip-path="url(#ab)"><path d="M18.722 38.849v.165a.938.938 0 0 1-.117.275v-.165a.938.938 0 0 0 .117-.275" fill="#23662c"/></g><g><defs><path id="ac" d="M16.985 39.239v.165a.893.893 0 0 1-.189-.337v-.165c.036.133.108.24.189.337z"/></defs><clipPath id="ad"><use xlink:href="#ac" overflow="visible"/></clipPath><g clip-path="url(#ad)"><path d="M16.985 39.239v.165a.893.893 0 0 1-.189-.337v-.165c.036.133.108.24.189.337" fill="#23662c"/></g></g><g><defs><path id="ae" d="M18.605 39.124v.165a.97.97 0 0 1-.216.248v-.165a.97.97 0 0 0 .216-.248z"/></defs><clipPath id="af"><use xlink:href="#ae" overflow="visible"/></clipPath><g clip-path="url(#af)"><path d="M18.605 39.124v.165a.926.926 0 0 1-.208.241v-.165a.926.926 0 0 0 .208-.241" fill="#23662c"/><path fill="#24682d" d="M18.397 39.365v.164l-.008.008v-.165l.008-.007"/></g></g><g><defs><path id="ag" d="M17.318 39.478v.165a1.034 1.034 0 0 1-.333-.239v-.165c.09.098.198.177.333.239z"/></defs><clipPath id="ah"><use xlink:href="#ag" overflow="visible"/></clipPath><g clip-path="url(#ah)"><path d="M17.318 39.478v.165l-.019-.009v-.164l.019.008" fill="#24682d"/><path d="M17.299 39.47v.165a1.032 1.032 0 0 1-.314-.231v-.165c.086.093.188.17.314.231" fill="#23662c"/></g></g><g><defs><path id="ai" d="M18.389 39.372v.165c-.081.062-.18.106-.279.142v-.165c.099-.036.198-.08.279-.142z"/></defs><clipPath id="aj"><use xlink:href="#ai" overflow="visible"/></clipPath><g clip-path="url(#aj)"><path d="M18.389 39.372v.165c-.081.062-.18.106-.279.142v-.165c.099-.036.198-.08.279-.142" fill="#24682d"/></g></g><g><path d="M17.57 38.149l-.081.124-.036.186c0 .142.036.248.108.328.063.08.153.124.261.124l.099-.027.108-.062.099-.089.054-.115.495.133.045.098a.938.938 0 0 1-.117.275.954.954 0 0 1-.216.248c-.081.062-.18.106-.279.142a.893.893 0 0 1-.306.044 1.33 1.33 0 0 1-.486-.08 1.034 1.034 0 0 1-.333-.239.893.893 0 0 1-.189-.337 1.212 1.212 0 0 1-.063-.408c0-.168.018-.31.063-.443.054-.133.117-.248.207-.346a.89.89 0 0 1 .333-.222c.126-.044.279-.071.45-.071.27 0 .486.071.648.213.162.133.27.319.324.55l-.504.125-.117-.053-.081-.115c-.054-.062-.144-.089-.261-.089l-.117.027-.108.079z" fill="#369642"/></g><g><defs><path id="ak" d="M18.11 39.514v.165a.893.893 0 0 1-.306.044 1.33 1.33 0 0 1-.486-.08v-.165c.135.053.297.08.486.08a.893.893 0 0 0 .306-.044z"/></defs><clipPath id="al"><use xlink:href="#ak" overflow="visible"/></clipPath><g clip-path="url(#al)"><path d="M18.11 39.514v.165a.893.893 0 0 1-.306.044 1.33 1.33 0 0 1-.486-.08v-.165c.135.053.297.08.486.08a.893.893 0 0 0 .306-.044" fill="#24682d"/></g></g></g><g><path fill="#25692e" d="M15.68 37.28v.165l-.144-.018v-.164zM15.536 37.263v.164l-.117.036v-.165z"/><path fill="#24682d" d="M15.86 37.351v.165l-.18-.071v-.165z"/><path fill="#23652b" d="M15.419 37.298v.165l-.036.097v-.164z"/><path fill="#24682d" d="M16.058 37.458v.164l-.198-.106v-.165z"/><path fill="#23662c" d="M16.535 37.174v.165l-.243.363v-.165z"/><path fill="#256a2e" d="M16.292 37.537v.165l-.108.018v-.165z"/><path fill="#24672d" d="M16.184 37.555v.165l-.126-.098v-.164z"/><defs><path id="am" d="M14.573 37.848v.165a.764.764 0 0 1-.081-.355v-.165c0 .133.027.248.081.355z"/></defs><clipPath id="an"><use xlink:href="#am" overflow="visible"/></clipPath><g clip-path="url(#an)"><path d="M14.573 37.848v.165a.764.764 0 0 1-.081-.355v-.165c0 .133.027.248.081.355" fill="#23662c"/></g><defs><path id="ao" d="M14.789 38.122v.165a1.327 1.327 0 0 1-.216-.275v-.165c.063.107.135.196.216.275z"/></defs><clipPath id="ap"><use xlink:href="#ao" overflow="visible"/></clipPath><g clip-path="url(#ap)"><path d="M14.789 38.122v.165a1.327 1.327 0 0 1-.216-.275v-.165c.063.107.135.196.216.275" fill="#23662c"/></g><defs><path id="aq" d="M15.068 38.335v.165a2.081 2.081 0 0 1-.279-.213v-.165c.09.08.18.151.279.213z"/></defs><clipPath id="ar"><use xlink:href="#aq" overflow="visible"/></clipPath><g clip-path="url(#ar)"><path d="M15.068 38.335v.165a2.081 2.081 0 0 1-.279-.213v-.165c.09.08.18.151.279.213" fill="#23662c"/></g><defs><path id="as" d="M15.347 38.495v.165c-.09-.044-.18-.106-.279-.16v-.165c.099.053.189.115.279.16z"/></defs><clipPath id="at"><use xlink:href="#as" overflow="visible"/></clipPath><g clip-path="url(#at)"><path d="M15.347 38.495v.165c-.09-.044-.18-.106-.279-.16v-.165c.099.053.189.115.279.16" fill="#23662c"/></g><g><path fill="#24672d" d="M15.563 38.645v.165l-.216-.151v-.164z"/></g><g><path fill="#22652b" d="M15.644 38.796v.165l-.081-.151v-.165z"/></g><g><defs><path id="au" d="M16.553 38.707v.165a.726.726 0 0 1-.099.381v-.165a.726.726 0 0 0 .099-.381z"/></defs><clipPath id="av"><use xlink:href="#au" overflow="visible"/></clipPath><g clip-path="url(#av)"><path d="M16.553 38.707v.165a.726.726 0 0 1-.099.381v-.165a.726.726 0 0 0 .099-.381" fill="#23662c"/></g></g><g><defs><path id="aw" d="M16.454 39.088v.165a.81.81 0 0 1-.243.275v-.165a.801.801 0 0 0 .243-.275z"/></defs><clipPath id="ax"><use xlink:href="#aw" overflow="visible"/></clipPath><g clip-path="url(#ax)"><path d="M16.454 39.088v.165a.803.803 0 0 1-.175.221v-.165a.803.803 0 0 0 .175-.221" fill="#23662c"/><path d="M16.279 39.309v.165a.895.895 0 0 1-.068.054v-.165a.895.895 0 0 0 .068-.054" fill="#24682d"/></g></g><g><defs><path id="ay" d="M14.834 39.425v.165a1.336 1.336 0 0 1-.477-.425V39c.144.195.297.337.477.425z"/></defs><clipPath id="az"><use xlink:href="#ay" overflow="visible"/></clipPath><g clip-path="url(#az)"><path d="M14.834 39.425v.165a1.336 1.336 0 0 1-.477-.425V39c.144.195.297.337.477.425" fill="#23662c"/></g></g><g><defs><path id="aA" d="M16.211 39.363v.165a.92.92 0 0 1-.342.151v-.165a.92.92 0 0 0 .342-.151z"/></defs><clipPath id="aB"><use xlink:href="#aA" overflow="visible"/></clipPath><g clip-path="url(#aB)"><path d="M16.211 39.363v.165a.92.92 0 0 1-.342.151v-.165a.92.92 0 0 0 .342-.151" fill="#24682d"/></g></g><g><defs><path id="aC" d="M15.869 39.514v.165a1.473 1.473 0 0 1-.387.053c-.261 0-.477-.044-.648-.142v-.165c.171.098.387.142.648.142.126 0 .261-.018.387-.053z"/></defs><clipPath id="aD"><use xlink:href="#aC" overflow="visible"/></clipPath><g clip-path="url(#aD)"><path d="M15.869 39.514v.165a1.473 1.473 0 0 1-.387.053c-.234 0-.432-.036-.594-.113v-.165c.162.078.36.113.594.113.126 0 .261-.018.387-.053" fill="#24682d"/><path d="M14.888 39.454v.165a.682.682 0 0 1-.054-.028v-.165l.054.028" fill="#23662c"/></g></g><g><path d="M16.247 38.016c.09.08.162.177.216.292.054.106.09.239.09.399a.726.726 0 0 1-.099.381.81.81 0 0 1-.243.275.92.92 0 0 1-.342.151 1.473 1.473 0 0 1-.387.053c-.261 0-.477-.044-.648-.142a1.336 1.336 0 0 1-.477-.425l.297-.363.108-.009.09.089.198.115.207.089.198.027.144-.027.045-.124-.081-.151-.216-.151c-.09-.044-.18-.106-.279-.16a2.081 2.081 0 0 1-.279-.213 1.327 1.327 0 0 1-.216-.275.764.764 0 0 1-.081-.355.735.735 0 0 1 .279-.603.942.942 0 0 1 .297-.151c.108-.035.225-.053.351-.053.225 0 .432.044.603.124.18.08.351.204.513.363l-.243.363-.108.018-.126-.098-.198-.106-.18-.071-.144-.018-.117.035-.036.098.09.133.216.133c.09.053.189.098.279.151.099.064.189.126.279.206z" fill="#369642"/></g></g></g></g><g><path d="M76.062 49.083c-13.547 0-24.541-10.995-24.541-24.541S62.515 0 76.062 0s24.541 10.995 24.541 24.541-10.97 24.542-24.541 24.542zm3.608-24.542a3.614 3.614 0 0 0-3.608-3.608c-1.988 0-3.583 1.644-3.583 3.608 0 1.988 1.595 3.608 3.608 3.608s3.583-1.62 3.583-3.608z" fill="#070308"/><path d="M76.062.393c-13.326 0-24.149 10.823-24.149 24.149S62.736 48.69 76.062 48.69s24.149-10.823 24.149-24.149S89.388.393 76.062.393zm18.332 38.186c-4.221 5.497-10.847 9.056-18.332 9.056-7.485 0-14.087-3.534-18.332-9.056-2.994-3.878-4.761-8.761-4.761-14.038 0-12.761 10.332-23.093 23.093-23.093S99.155 11.78 99.155 24.541c0 5.277-1.767 10.16-4.761 14.038z" fill="#fff"/><path d="M76.062 1.448c-12.761 0-23.093 10.332-23.093 23.093 0 5.276 1.767 10.16 4.761 14.038h36.665c2.994-3.878 4.761-8.761 4.761-14.038C99.155 11.78 88.824 1.448 76.062 1.448zm0 30.505c-4.098 0-7.411-3.338-7.411-7.411s3.313-7.411 7.411-7.411 7.411 3.338 7.411 7.411-3.288 7.411-7.411 7.411z" fill="#989d77"/><path d="M76.062 17.13c-4.098 0-7.411 3.338-7.411 7.411s3.313 7.411 7.411 7.411 7.411-3.338 7.411-7.411-3.288-7.411-7.411-7.411zm0 14.283c-3.804 0-6.872-3.092-6.872-6.872s3.092-6.872 6.872-6.872c3.779 0 6.872 3.092 6.872 6.872s-3.068 6.872-6.872 6.872z" fill="#d2b741"/><path d="M76.062 17.67c-3.804 0-6.872 3.092-6.872 6.872s3.092 6.872 6.872 6.872c3.779 0 6.872-3.092 6.872-6.872s-3.068-6.872-6.872-6.872zm0 13.326c-3.558 0-6.454-2.871-6.454-6.454s2.871-6.454 6.454-6.454c3.583 0 6.454 2.871 6.454 6.454s-2.871 6.454-6.454 6.454z" fill="#939597"/><path d="M76.062 18.087c-3.558 0-6.454 2.871-6.454 6.454s2.871 6.454 6.454 6.454c3.583 0 6.454-2.871 6.454-6.454s-2.871-6.454-6.454-6.454zm0 9.841c-1.988 0-3.608-1.595-3.608-3.608s1.595-3.608 3.608-3.608 3.608 1.62 3.608 3.608a3.583 3.583 0 0 1-3.608 3.608z" fill="#58595b" stroke="#383839" stroke-width=".564" stroke-miterlimit="10"/><g><path d="M65.966 37.014c-.025-.417.098-.663.319-.761.221-.098.81-.147 1.301-.074.491.049 1.252.27 1.35 1.055.147-.074.589-.196.933-.172s.712.172.834.368c.319-.319 1.178-.417 1.497-.147a.675.675 0 0 1 .736-.785c.344.025.687.196.712.785.245-.245.564-.172.663-.172-.025-.564.196-.908.614-.908s.736.294.736.859c.221-.049.54-.025.614.123.221-.172.883-.27 1.104.172.466-.466 1.129-.319 1.325-.147-.025-.54.295-.957.933-.785-.025-.442.319-.687.663-.614.344.074.54.442 1.203 1.693 0-1.374-.025-1.571.098-1.767.123-.196.393-.294.614-.27s.54.172.564.515c.319-.368.81.172 1.374.834.27-1.055.614-1.35.957-1.325.319.025.466.245.564.687.098.442.442 2.233.491 2.552.049.319.025.638-.27.736-.295.074-.859.147-1.104-.368-.025.049-.294.147-.491.098 0 .417-.319.712-.564.712-.27.025-.687.025-.81-.54-.123-.589-.172-.859-.196-.883-.074.564-.098 1.153-.491 1.374-.393.196-.736.221-1.129-.368s-1.006-1.792-1.031-1.816c-.025.049-.025.123-.025.27 0 .147 0 .736.049 1.203.049.466-.147.712-.393.736-.221.025-.491 0-.638-.098-.147.098-.54.196-.687.049a.998.998 0 0 1-.982-.123c-.049-.049-.123-.049-.221.025-.074.098-.442.221-.712.049-.098.025-.393.172-.663 0s-.344-.172-.393-.123c-.049.049-.27.245-.54.221-.27-.025-.245-.049-.368 0s-.442.098-.834-.123c-.098-.049-.221-.123-.295-.025a.639.639 0 0 1-.466.172.927.927 0 0 1-.491-.123c-.049-.049-.147-.074-.319 0-.172.074-.663.172-1.006.025-.344-.147-.491-.245-.515-.27a2.657 2.657 0 0 1-.883.368c-.295.025-.687-.074-.81-.196-.172.147-.196.196-.491.196-.294 0-.761.049-.908-.245-.025-.049-.098 0-.123.049-.025.049-.098.172-.368.196-.27.025-1.055.074-1.055-.442s.049-1.08.049-1.399c.048-.439-.001-.636-.025-1.053z" fill="#070308"/><path d="M68.223 38.487c-.123-.196.074-.319.295-.54.221-.196.245-.834-.147-1.153-.393-.319-1.325-.368-1.693-.319-.368.049-.368.294-.319.614.025.319.025.883 0 2.135 0 .368.221.294.491.294s.319-.074.319-.245c0-.172.049-.417.245-.442.172 0 .295.221.368.466.098.221.221.221.761.196.49.024-.172-.81-.32-1.006zm-.809-.516c-.319 0-.344-.27-.319-.368 0-.098.123-.368.294-.368s.295.049.368.245c.049.172-.024.516-.343.491z" fill="#d2b741"/><path d="M70.481 38.781c-.098-.147-.344-.074-.687.049-.172.049-.245.074-.295.025-.025-.074.147-.147.442-.221.27-.074.589-.245.614-.515.025-.27-.221-.614-.859-.638s-.883.491-.982.785c-.098.294.025.834.368 1.104.344.245.761.147 1.153-.049s.344-.393.246-.54zm-1.08-.466c-.098-.172 0-.319.123-.393.123-.074.344-.049.393.074s0 .27-.123.344c-.147.049-.343.049-.393-.025zm2.455-.172c.196.147.442.196.515.098.049-.098.123-.344-.098-.515s-.663-.245-1.031-.123c-.368.123-.54.442-.466.687.074.245.466.368.589.442.147.074.221.123.172.172-.025.049-.172 0-.319-.074-.123-.049-.344-.147-.442-.049-.074.123-.147.368.147.54s.712.245 1.08.098c.344-.147.393-.466.319-.663-.074-.196-.344-.344-.515-.442-.172-.098-.295-.147-.27-.221.049-.048.196-.024.319.05zm.76-.147a.294.294 0 0 1 .294-.344c.221-.025.368.123.368.294 0 .172-.074.54-.074.81 0 .245.074.466.074.589s-.147.221-.344.221-.344 0-.344-.245.049-.614.074-.81c-.023-.196-.048-.392-.048-.515z" fill="#d2b741"/><ellipse cx="72.96" cy="37.161" rx=".368" ry=".344" fill="#d2b741"/><path d="M75.218 38.266c0-.368.098-.933.098-1.325s-.221-.466-.393-.442c-.196.025-.245.221-.196.515 0 .417-.098.368-.221.368-.834.049-.982.491-1.08.908-.098.393.025.785.27 1.031.245.27.908.245.957.196.049-.049.098-.123.172-.049.074.074.221.098.344.025.098-.074.147-.245.123-.368-.074-.098-.074-.491-.074-.859zm-.933.589c-.172 0-.319-.172-.319-.393 0-.221.147-.393.319-.393s.319.172.319.393-.147.393-.319.393zm1.154-.074v-1.006c0-.123.196-.344.368-.344.196-.025.368-.025.368.245v.933c0 .098.172.245.196 0 .025-.245.025-.81.025-.957s.172-.221.319-.221c.172 0 .393.049.368.344-.049.27-.049.54-.049.785 0 .221.074.54.074.761-.025.196-.147.294-.295.294-.147 0-.245-.074-.294-.098-.049-.025-.393.196-.687 0-.32-.245-.393-.515-.393-.736zm3.46.196c-.074-.393-.025-.638 0-.933a.513.513 0 0 0-.344-.564c-.245-.098-.785 0-.982.221-.196.221-.319.687-.294.982.025.294.049.663.515.81.466.147.515-.098.614-.098.098 0 .147.123.27.147.123 0 .245-.123.295-.245.049-.123-.05-.197-.074-.32zm-.785-.098c-.172 0-.295-.172-.295-.393 0-.221.123-.393.295-.393s.294.172.294.393c.025.197-.123.393-.294.393z" fill="#d2b741"/><path d="M80.003 36.499c-.123-.368.368-.736.589-.245s.908 1.792 1.006 1.939c.098.147.221.123.196-.196s.025-1.841.025-1.988c0-.147.123-.319.368-.344.245 0 .368.147.344.491s-.098 2.331-.123 2.822c-.025.491-.614 1.104-1.08.27-.49-.859-1.227-2.504-1.325-2.749zm2.773.172c-.049-.417.098-.564.27-.589.147-.025.761.614 1.08 1.153.196.27.245.368.295-.074s.245-1.031.344-1.227c.098-.196.515-.442.614.123.098.564.515 2.16.54 2.454.049.27.098.564-.098.638-.196.074-.491.172-.589-.221-.098-.393-.196-1.399-.221-1.472s-.098-.025-.098.147c-.025.196-.074.883-.098 1.031-.025.123-.319.442-.564-.025s-.466-.859-.515-.908c-.049-.049-.074.025-.049.172.025.147.147.687.27.982.123.294.123.663-.147.736-.245.074-.442.098-.564-.589-.175-.638-.42-1.963-.47-2.331z" fill="#955e1e"/><path d="M79.071 36.916c0-.196.123-.319.319-.319s.491.025.466.294-.049 1.301-.049 1.693c0 .393.025.663.025.761 0 .098-.098.172-.294.172s-.393.049-.417-.196c-.025-.27 0-1.031 0-1.325.023-.319-.05-.884-.05-1.08z" fill="#d2b741"/><path d="M66.407 37.407c-.025-.294-.025-.589.025-.687.074-.123.221-.245.712-.196.491.049.859.123 1.203.294-.491-.172-1.276-.221-1.546-.196-.271.049-.369.122-.394.785z" fill="#f9f2b4"/><path d="M67.782 37.652c-.025.196-.098.319-.221.344-.147.049-.344 0-.417-.074.098.123.344.147.466.098.147-.024.172-.319.172-.368z" fill="#efd052"/><path d="M68.788 38.143c.245-.417.393-.54.589-.589.172-.049.344-.049.663 0-.344-.025-.638 0-.785.098s-.418.417-.467.491zm1.178.025c-.025.123-.196.294-.515.221.269.147.515-.025.515-.221zm-.466.736c.049.025.147.025.27-.025.123-.049.368-.147.515-.147-.123 0-.172.049-.27.098-.098.049-.368.197-.515.074zm1.3-.761c.074-.417.491-.589.908-.564-.294-.025-.785.196-.908.564zm-.024.884c.025-.196.098-.344.344-.221-.148-.049-.295-.025-.344.221zm2.282-1.326c-.147-.074-.466.025-.417.368.024-.319.27-.417.417-.368zm-.466-.49c0-.196.172-.466.491-.344-.221-.049-.467.098-.491.344zm.883.908c.27-.589.491-.687 1.08-.712-.54.073-.859.319-1.08.712zm.614.662c.196.196.466.049.515-.172-.024.344-.392.393-.515.172zm.932-2.233c-.098-.025-.27.025-.27.319.025-.245.172-.319.27-.319zm.467 1.448c.025-.466.221-.54.466-.54-.245 0-.442.172-.466.54zm.736.736c.074.074.196.049.196-.221.025.295-.122.368-.196.221zm.196-.957c0-.27.147-.344.295-.319-.123 0-.27.123-.295.319zm.957.442c.196-.491.368-.687.908-.712-.343.049-.613.147-.908.712zm.54.589c.147.147.393.147.491-.098-.024.22-.294.343-.491.098zm1.203-1.669c0-.319 0-.54.417-.491-.196-.024-.417.025-.417.491z" fill="#f9f2b4"/><path d="M80.028 36.352c.025-.221.196-.393.442-.27-.172-.049-.369 0-.442.27zm1.791-.123c.025-.368.123-.54.344-.54-.172.025-.295.27-.344.54zm.982.172c.074-.245.196-.368.417-.147-.172-.172-.294-.074-.417.147zm1.693.417c.245-.834.294-.933.442-1.006a.26.26 0 0 1 .27.025c-.147-.074-.294-.025-.368.123-.074.146-.319.809-.344.858zm-.245.662c.074.049.147.025.196-.245-.024.245-.049.368-.196.245zm-2.651.761c.123.098.221.098.245-.27.05.393-.097.442-.245.27z" fill="#d68639"/></g></g></svg>