<svg xmlns="http://www.w3.org/2000/svg" viewBox="0 0 30 30"><path d="M21.773 28.53H3.754a.75.75 0 0 1-.463-1.342c.227-.553.586-2.63.906-4.475.213-1.235.45-2.6.715-3.981-.303.062-.609.253-.911.323-.877.203-1.78.456-2.5.465-.405.005-.752-.066-1.005-.267C.27 19.074 0 18.734 0 18.139c0-1.42 2.005-2.694 3.753-3.845 1.068-.703 2.395-1.697 2.586-2.283.019-.058.039-.11.06-.155C8.401 3.547 10.292 0 12.716 0c2.197 0 3.99 3.011 5.786 9.737 1.523-.414 2.217-1.719 2.602-2.452.279-.532.714-1.279 1.42-1.279.27 0 1.502.247 1.502 2.252 0 2.309-2.085 5.869-4.163 7.244.435 2.058.82 4.165 1.162 6.04.429 2.351.912 4.999 1.196 5.633a.752.752 0 0 1-.448 1.355z" fill="#ab47bc"/><path d="M12.763 20.271c2.073 0 3.754 1.008 3.754 2.252s-1.681 2.252-3.754 2.252-3.754-1.008-3.754-2.252 1.681-2.252 3.754-2.252zm0-6.757c1.658 0 3.003.84 3.003 1.877s-1.345 1.877-3.003 1.877-3.003-.84-3.003-1.877 1.345-1.877 3.003-1.877zm0-6.006c1.244 0 2.252.672 2.252 1.502s-1.008 1.502-2.252 1.502-2.252-.672-2.252-1.502 1.008-1.502 2.252-1.502z" fill="#558b2f"/><path d="M24.025 8.259c0 2.309-2.085 5.869-4.163 7.244l-1.092-4.24c0-.001 3.636 1.172 5.255-3.004zM6.006 14.265S1.427 20.416.009 18.032c-.002.036-.009.071-.009.107 0 .595.27.935.497 1.115.252.2.599.272 1.005.267.72-.01 1.623-.261 2.5-.464.301-.071.607-.261.911-.323l1.093-4.469z" fill="#6a1b9a"/><path d="M12.763 25.527c-2.526 0-4.505-1.319-4.505-3.003s1.979-3.003 4.505-3.003 4.505 1.319 4.505 3.003-1.979 3.003-4.505 3.003zm0-4.505c-1.719 0-3.003.793-3.003 1.502s1.285 1.502 3.003 1.502 3.003-.793 3.003-1.502-1.284-1.502-3.003-1.502zm0-3.003c-2.105 0-3.754-1.154-3.754-2.628s1.649-2.628 3.754-2.628 3.754 1.154 3.754 2.628-1.649 2.628-3.754 2.628zm0-3.754c-1.289 0-2.252.595-2.252 1.126s.963 1.126 2.252 1.126 2.252-.595 2.252-1.126-.963-1.126-2.252-1.126zm0-3.003c-1.684 0-3.003-.989-3.003-2.252s1.319-2.252 3.003-2.252 3.003.989 3.003 2.252-1.319 2.252-3.003 2.252zm0-3.003c-.917 0-1.502.444-1.502.751 0 .306.585.751 1.502.751s1.502-.444 1.502-.751-.585-.751-1.502-.751zM24.025 28.53c0-.826-.676-1.502-1.502-1.502H3.003c-.826 0-1.502.676-1.502 1.502s.676 1.502 1.502 1.502h19.52a1.507 1.507 0 0 0 1.502-1.502z" fill="#8bc34a"/><path d="M16.517 7.508s-.853-1.502-1.502-1.502c-1.362 0-1.604.751-2.252.751-.649 0-.89-.751-2.252-.751-.649 0-1.502 1.502-1.502 1.502" fill="none" stroke="#000" stroke-width=".751" stroke-linecap="round" stroke-linejoin="round" stroke-miterlimit="10"/></svg>