<svg xmlns="http://www.w3.org/2000/svg" viewBox="0 0 30 30"><path d="M13.799 27.826h-2v-4.844a.565.565 0 1 0-1.132 0v5.176l-.352.352a.573.573 0 0 0 0 .8c.22.221.577.222.798.002l.002-.002.372-.376.888.896c.22.221.577.222.798.002l.002-.002a.573.573 0 0 0 0-.8l-.068-.068h.692a.567.567 0 1 0 0-1.136zM19.251 27.826h-2v-4.844a.565.565 0 1 0-1.132 0v5.176l-.352.356a.568.568 0 1 0 .8.804l.372-.376.86.892c.22.221.577.222.798.002l.002-.002a.573.573 0 0 0 0-.8l-.068-.068h.7a.567.567 0 1 0 0-1.136l.02-.004z" fill="#696969"/><path d="M8.852 9.694c4.483-13.891 20.215-11.963 19.271.132C24.543 29.402 1.956 23.766 0 15.61c.42-.796 7.308-.584 8.852-5.916z" fill="#cdcdcd"/><path d="M16.051 12.902l.092.16S7.467 22.318 2.38 8.778c11.959-1.748 13.671 4.124 13.671 4.124zM29.799 4.703s-2.904 1.632-3.2 2.096a.933.933 0 0 0 .048 1.256c.716.708 3.364 1.484 3.364 1.484L28.939 7.31l.86-2.607z" fill="#adadad"/><ellipse cx="22.419" cy="6.875" rx="1.008" ry="1.012" fill="#727272"/></svg>