<svg enable-background="new 0 0 464.017 369.507" viewBox="0 0 464.017 369.507" xmlns="http://www.w3.org/2000/svg"><path d="m285.968 2.727h-107.918c-.752 0-1.363-.611-1.363-1.363 0-.753.611-1.364 1.363-1.364h107.918c.754 0 1.365.611 1.365 1.364 0 .752-.611 1.363-1.365 1.363z" fill="#404040"/><path d="m464.017 325.46c0 2.256-1.846 4.104-4.104 4.104h-455.81c-2.256 0-4.103-1.848-4.103-4.104v-226.537c0-2.258 1.848-4.104 4.103-4.104h455.81c2.258 0 4.104 1.846 4.104 4.104v12.168c0 2.256-1.846 4.119-4.104 4.137l-17.429.141c-2.257.02-4.104 1.881-4.104 4.139v24.723c0 2.257 1.847 4.104 4.104 4.104h17.429c2.258 0 4.104 1.848 4.104 4.104z" fill="#333"/><path d="m459.641 90.989c0-3.612-2.955-6.567-6.568-6.567h-442.129c-3.611 0-6.565 2.954-6.565 6.567v242.405c0 3.611 2.954 6.566 6.565 6.566h383.092 8.931c1.301 0 2.373-1.109 2.381-2.464.01-1.355.885-2.464 1.945-2.464h8.494 5.334 8.518c1.069 0 1.945 1.109 1.939 2.464-.003 1.354 1.397 2.464 3.112 2.464h9.688 8.694c3.613 0 6.568-2.955 6.568-6.566v-242.405z" fill="#262626"/><path d="m337.342 152.411c0 3.161-2.585 5.745-5.744 5.745h-199.178c-3.159 0-5.746-2.584-5.746-5.745v-145.416c0-3.161 2.587-5.746 5.746-5.746h199.178c3.159 0 5.744 2.585 5.744 5.746z" fill="#262626"/><path d="m135.431 7.945h193.157v102.195h-193.157z" fill="#333"/><path d="m450.826 325.72c0 2.258-1.847 4.104-4.105 4.104h-429.015c-2.256 0-4.103-1.847-4.103-4.104v-187.775c0-2.258 1.848-4.104 4.103-4.104h429.015c2.259 0 4.105 1.846 4.105 4.104z" fill="#333"/><path d="m93.332 103.595h277.766v49.691h-277.766z" fill="#333"/><path d="m23.452 153.287h417.524v170.445h-417.524z" fill="#404040"/><path d="m31.387 286.263h120.108v20.654h-120.108z" fill="#333"/><path d="m49.159 296.589c0 11.502-9.325 20.826-20.825 20.826-11.503 0-20.826-9.324-20.826-20.826 0-11.501 9.323-20.826 20.826-20.826 11.5 0 20.825 9.325 20.825 20.826z" fill="#333"/><path d="m28.334 312.011c-8.505 0-15.424-6.918-15.424-15.422s6.919-15.422 15.424-15.422c8.504 0 15.423 6.918 15.423 15.422s-6.919 15.422-15.423 15.422zm0-30.101c-8.095 0-14.68 6.586-14.68 14.68s6.585 14.68 14.68 14.68c8.094 0 14.679-6.586 14.679-14.68s-6.585-14.68-14.679-14.68z"/><path d="m31.387 234.828h120.108v20.654h-120.108z" fill="#333"/><path d="m49.159 245.154c0 11.502-9.325 20.826-20.825 20.826-11.503 0-20.826-9.324-20.826-20.826 0-11.501 9.323-20.825 20.826-20.825 11.5 0 20.825 9.324 20.825 20.825z" fill="#333"/><path d="m28.334 260.577c-8.505 0-15.424-6.919-15.424-15.423s6.919-15.422 15.424-15.422c8.504 0 15.423 6.918 15.423 15.422s-6.919 15.423-15.423 15.423zm0-30.103c-8.095 0-14.68 6.586-14.68 14.68s6.585 14.68 14.68 14.68c8.094 0 14.679-6.586 14.679-14.68s-6.585-14.68-14.679-14.68z"/><path d="m31.387 183.392h120.108v20.654h-120.108z" fill="#333"/><path d="m49.159 193.718c0 11.502-9.325 20.827-20.825 20.827-11.503 0-20.826-9.325-20.826-20.827 0-11.5 9.323-20.825 20.826-20.825 11.5 0 20.825 9.325 20.825 20.825z" fill="#333"/><path d="m28.334 209.141c-8.505 0-15.424-6.919-15.424-15.423s6.919-15.422 15.424-15.422c8.504 0 15.423 6.918 15.423 15.422s-6.919 15.423-15.423 15.423zm0-30.101c-8.095 0-14.68 6.584-14.68 14.678 0 8.095 6.585 14.68 14.68 14.68 8.094 0 14.679-6.585 14.679-14.68 0-8.094-6.585-14.678-14.679-14.678z"/><path d="m312.613 286.263h120.107v20.654h-120.107z" fill="#333"/><ellipse cx="435.774" cy="296.589" fill="#333" rx="20.826" ry="20.825" transform="matrix(.0136 -.9999 .9999 .0136 133.2675 728.277)"/><path d="m435.774 312.011c-8.505 0-15.425-6.918-15.425-15.422s6.92-15.422 15.425-15.422 15.424 6.918 15.424 15.422-6.919 15.422-15.424 15.422zm0-30.101c-8.095 0-14.681 6.586-14.681 14.68s6.586 14.68 14.681 14.68 14.68-6.586 14.68-14.68-6.585-14.68-14.68-14.68z"/><path d="m312.613 234.828h120.107v20.654h-120.107z" fill="#333"/><path d="m414.949 245.154c0 11.502 9.322 20.826 20.825 20.826 11.502 0 20.825-9.324 20.825-20.826 0-11.501-9.323-20.825-20.825-20.825-11.503 0-20.825 9.324-20.825 20.825z" fill="#333"/><path d="m435.774 260.577c-8.505 0-15.425-6.919-15.425-15.423s6.92-15.422 15.425-15.422 15.424 6.918 15.424 15.422-6.919 15.423-15.424 15.423zm0-30.103c-8.095 0-14.681 6.586-14.681 14.68s6.586 14.68 14.681 14.68 14.68-6.586 14.68-14.68-6.585-14.68-14.68-14.68z"/><path d="m312.613 183.392h120.107v20.654h-120.107z" fill="#333"/><path d="m414.949 193.718c0 11.502 9.322 20.827 20.825 20.827 11.502 0 20.825-9.325 20.825-20.827 0-11.5-9.323-20.825-20.825-20.825-11.503 0-20.825 9.325-20.825 20.825z" fill="#333"/><path d="m435.774 209.141c-8.505 0-15.425-6.919-15.425-15.423s6.92-15.422 15.425-15.422 15.424 6.918 15.424 15.422-6.919 15.423-15.424 15.423zm0-30.101c-8.095 0-14.681 6.584-14.681 14.678 0 8.095 6.586 14.68 14.681 14.68s14.68-6.585 14.68-14.68c0-8.094-6.585-14.678-14.68-14.678z"/><path d="m328.588 364.583c0 2.707-2.215 4.924-4.925 4.924h-183.309c-2.708 0-4.924-2.217-4.924-4.924v-258.82c0-2.707 2.216-4.924 4.924-4.924h183.309c2.71 0 4.925 2.217 4.925 4.924z" fill="#404040"/><path d="m139.671 123.546h6.156v225.58h-6.156z" fill="#4d4d4d"/><path d="m151.571 123.546h6.156v225.58h-6.156z" fill="#4d4d4d"/><path d="m163.473 123.546h6.156v225.58h-6.156z" fill="#4d4d4d"/><path d="m175.375 123.546h6.155v225.58h-6.155z" fill="#4d4d4d"/><path d="m187.276 198.748h6.155v150.379h-6.155z" fill="#4d4d4d"/><path d="m270.586 198.748h6.155v150.379h-6.155z" fill="#4d4d4d"/><path d="m282.486 123.546h6.157v225.58h-6.157z" fill="#4d4d4d"/><path d="m294.389 123.546h6.155v225.58h-6.155z" fill="#4d4d4d"/><path d="m306.289 123.546h6.156v225.58h-6.156z" fill="#4d4d4d"/><path d="m318.191 123.546h6.155v225.58h-6.155z" fill="#4d4d4d"/><path d="m202.418 198.748h59.181v150.379h-59.181z" fill="#4d4d4d"/><path d="m180.858 302.866c0 7.866-6.379 14.243-14.245 14.243s-14.244-6.377-14.244-14.243 6.378-14.245 14.244-14.245 14.245 6.379 14.245 14.245z" fill="#333"/><ellipse cx="166.613" cy="302.866" fill="#4d4d4d" rx="10.298" ry="10.298" transform="matrix(.7071 -.7071 .7071 .7071 -165.3585 206.5207)"/><path d="m163.773 307.785-2.839-4.92 2.839-4.919h5.681l2.841 4.919-2.841 4.92z" fill="#262626"/><path d="m180.858 165.681c0 7.866-6.379 14.244-14.245 14.244s-14.244-6.378-14.244-14.244c0-7.867 6.378-14.245 14.244-14.245s14.245 6.378 14.245 14.245z" fill="#333"/><ellipse cx="166.613" cy="165.681" fill="#4d4d4d" rx="10.299" ry="10.298" transform="matrix(.0125 -.9999 .9999 .0125 -1.1365 330.2115)"/><path d="m163.773 170.6-2.839-4.921 2.839-4.918h5.681l2.841 4.918-2.841 4.921z" fill="#262626"/><path d="m311.783 302.866c0 7.866-6.377 14.243-14.243 14.243-7.867 0-14.244-6.377-14.244-14.243s6.377-14.245 14.244-14.245c7.866 0 14.243 6.379 14.243 14.245z" fill="#333"/><path d="m307.837 302.866c0 5.686-4.61 10.298-10.297 10.298-5.688 0-10.299-4.611-10.299-10.298 0-5.689 4.61-10.298 10.299-10.298 5.687 0 10.297 4.609 10.297 10.298z" fill="#4d4d4d"/><path d="m294.7 307.785-2.841-4.92 2.841-4.919h5.679l2.842 4.919-2.842 4.92z" fill="#262626"/><path d="m311.783 165.681c0 7.866-6.377 14.244-14.243 14.244-7.867 0-14.244-6.378-14.244-14.244 0-7.867 6.377-14.245 14.244-14.245 7.866 0 14.243 6.378 14.243 14.245z" fill="#333"/><path d="m307.837 165.681c0 5.686-4.61 10.299-10.297 10.299-5.688 0-10.299-4.613-10.299-10.299 0-5.688 4.61-10.299 10.299-10.299 5.687 0 10.297 4.611 10.297 10.299z" fill="#4d4d4d"/><path d="m294.7 170.6-2.841-4.921 2.841-4.918h5.679l2.842 4.918-2.842 4.921z" fill="#262626"/><path d="m205.82 296.998 5.455-4.876c2.186.009 4.371-.001 6.556.006 0 2.324-.001 4.649.003 6.974-1.575.001-3.148-.002-4.72.001-.002 1.839.002 3.678-.002 5.515 2.587.004 5.17.008 7.757-.002 0-.551.013-1.101.016-1.654 2.314.004 4.628-.006 6.941.006-.012 1.34.002 2.68-.005 4.021.007.15-.148.24-.236.344-1.67 1.598-3.306 3.239-4.993 4.818-3.703.029-7.409.002-11.116.014l-5.65-4.983z" fill="#0084a6"/><path d="m238.643 289.51c-10.942.008-21.883.001-32.823.003 0-2.494 0-4.987 0-7.482 10.438-.002 20.876.006 31.314-.004-.004-.695-.012-1.391.005-2.086 2.369.006 4.736.004 7.103 0 .025 1.272.008 2.543.013 3.815.023.15-.058.266-.163.357z" fill="#0084a6"/><path d="m205.82 276.066c0-2.494 0-4.988 0-7.481 10.949.007 21.901-.017 32.849.011 1.886 1.789 3.707 3.649 5.572 5.459.004 1.326.001 2.648.001 3.975-2.361.002-4.724.004-7.086-.002-.006-.652-.003-1.307-.001-1.961-10.445-.004-20.89-.001-31.335-.001z" fill="#0084a6"/><path d="m205.82 266.156c0-2.494 0-4.986 0-7.48h38.422v7.48c-12.808 0-25.613 0-38.422 0z" fill="#0084a6"/><path d="m205.822 251.311c1.804-1.81 3.586-3.646 5.393-5.451h14.59c1.807 1.806 3.588 3.64 5.392 5.451.004 1.78.002 3.562.003 5.343-2.427 0-4.854 0-7.281 0 0-1.08 0-2.158 0-3.238-3.605 0-7.211 0-10.817 0v3.238c-2.428 0-4.854 0-7.28 0z" fill="#0084a6"/><path d="m205.82 243.407c0-5.493 0-10.987 0-16.479h7.28v8.998h23.861c0-3.001 0-5.999 0-8.998h7.28v16.479c-12.807 0-25.612 0-38.421 0z" fill="#0084a6"/><path d="m205.82 224.4c0-2.496 0-4.988 0-7.483h38.422v7.483c-12.808 0-25.613 0-38.422 0z" fill="#0084a6"/><path d="m225.147 208.302c1.527-1.493 3.008-3.042 4.552-4.517 4.848-.032 9.696-.004 14.543-.014v7.582c-5.122 0-10.246 0-15.368 0v3.741c-2.427 0-4.854 0-7.28 0 0-1.246 0-2.492 0-3.741-2.831 0-5.663 0-8.493 0v3.741c-2.428 0-4.854 0-7.28 0l.002-5.846 5.561-5.477c3.001-.005 6.003.002 9.004-.002z" fill="#0084a6"/><path d="m220.38 233.903c0-1.82 0-3.64 0-5.46h7.281v5.46c-2.428 0-4.853 0-7.281 0z" fill="#0084a6"/><path d="m244.235 297.124.007 10.183-5.454 4.877c-2.187-.008-4.372.002-6.56-.006.002-2.324.003-4.649 0-6.973 1.574-.004 3.147 0 4.721-.004.001-1.837-.004-3.676.003-5.514l-9.074.002c0 .416-.002.834-.017 1.249-2.313-.001-4.625.007-6.939-.005.01-1.205-.003-2.41.007-3.614-.016-.13.111-.208.183-.296 1.645-1.59 3.282-3.185 4.925-4.776.081-.087.181-.121.301-.105 4.084 0 8.168.002 12.25 0z" fill="#0084a6"/><path d="m258.803 283.447v11.428c.007.749-.233 1.522-.761 2.068-.351.365-.849.578-1.355.559-2.264-.002-4.526.004-6.789-.004-.816.005-1.491-.631-1.776-1.358-.232-.525-.251-1.107-.24-1.671.003-3.674 0-7.349.002-11.021h2.021v11.527h6.875c0-3.001 0-6 0-9-.809 0-1.617 0-2.427 0v4.348c-.675 0-1.348 0-2.021 0 0-2.291 0-4.583 0-6.875h6.471z" fill="#0084a6"/><path d="m247.883 281.02c0-3.675 0-7.352 0-11.026-.01-.928.376-1.946 1.223-2.414.455-.27 1.001-.201 1.508-.209.636.012 1.274-.023 1.91.017.77.08 1.355.718 1.617 1.409.304.741.189 1.554.212 2.332l4.445-3.959.006 3.129c-1.482 1.324-2.962 2.648-4.451 3.966v4.229h4.45v2.527h-10.92zm2.021-2.527h2.428c0-2.864 0-5.729 0-8.595-.809 0-1.62 0-2.428 0z" fill="#0084a6"/><path d="m258.803 253.214c-2.964 1.461-5.921 2.932-8.89 4.381v1.148c2.969 1.447 5.926 2.92 8.89 4.381l-.001 2.93c-3.64-1.793-7.271-3.597-10.913-5.381v-5.006c3.643-1.785 7.273-3.59 10.913-5.383z" fill="#0084a6"/><path d="m247.883 249.07c0-4.281 0-8.561 0-12.842h2.021v10.314h2.428c0-3.001 0-6 0-9h2.021v9h4.45v2.527c-3.641.001-7.28.001-10.92.001z" fill="#0084a6"/><path d="m258.796 219.968-.007 3.711c-1.256 1.344-2.58 2.629-3.855 3.955 1.275 1.326 2.6 2.611 3.855 3.955l.007 3.709-5.795-5.692c-1.711 1.722-3.396 3.47-5.112 5.188l-.003-3.724 3.366-3.436c-1.107-1.162-2.268-2.274-3.358-3.452l-.005-3.706c1.736 1.73 3.431 3.508 5.171 5.234z" fill="#0084a6"/><path d="m214.049 335.755c-.032 0-.066-.008-.096-.023-3.135-1.521-4.754-3.295-4.682-5.129.059-1.509 1.293-2.935 3.563-4.123 2.157-1.127 5.198-2.022 8.796-2.586.118-.02.231.063.25.184.02.119-.063.232-.183.249-7.287 1.146-11.88 3.558-11.987 6.294-.063 1.621 1.51 3.299 4.434 4.715.109.055.153.186.102.295-.038.077-.116.124-.197.124z" fill="#0084a6"/><path d="m241.374 324.488c-.014 0-.024 0-.037 0-2.315-.381-4.761-.635-7.264-.756-.122-.004-.215-.107-.211-.229.007-.121.112-.214.231-.209 2.521.12 4.982.376 7.314.759.12.02.201.133.183.254-.018.106-.112.181-.216.181z" fill="#0084a6"/><path d="m234.455 339.317c-.062 0-.122 0-.185 0-.12 0-.219 0-.219 0s.1 0 .22 0h.001c.061 0 .122-.128.183-.128 11.762 0 21.042-3.121 21.164-7.05.042-1.376-1.063-2.804-3.194-4.065-2.125-1.261-5.169-2.348-8.803-3.121-.12-.024-.195-.148-.17-.268.024-.118.142-.197.26-.173 3.682.78 6.772 1.869 8.936 3.151 2.279 1.352 3.459 2.881 3.409 4.425-.064 2.09-2.372 3.903-6.498 5.27-3.989 1.323-9.346 1.959-15.104 1.959z" fill="#0084a6"/><path d="m238.435 328.058 5.8-4.423-6.811 2.72-1.916-1.993.609 2.762-5.8 4.422 6.814-2.72 1.914 1.994z" fill="#0084a6"/><path d="m231.169 333.579c.082-.409.235-.351.65-.416l.387-.061-.121.646-.386.061c-.416.065-.598.175-.53-.23zm-.839-.591-.301 1.619c-.081.441.052.585.479.518l2.461-.392.527-2.838-2.462.392c-.426.066-.621.259-.704.701zm15.631-2.553-.03.156 2.541-.404c.201-.031.395-.234.436-.453s-.088-.371-.29-.339l-.652.103-1.04.166-.263.041c-.306.049-.642.396-.702.73zm-17.818 7.316.02-.113c.088.008.204.041.307.025l2.639-.413c-.098.526-.794.657-1.855.825l-1.209.191-.646 3.484 1.588-.252c3.906-.385 5.395-2.404 5.871-4.813l4.76-.755.768-4.128.388-.063c.424-.066.362-.145.28.297l-.702 3.777 3.418-.543.046-.25c.259.113.56.154.88.105l5.911-.938.552-2.968-.385-.273c.333-.392.593-.872.667-1.276l.094-.469c.295-1.748-1.318-2.215-2.056-2.098l-3.393.538c-.601.097-1.262.515-1.744 1.068-.445-.44-1.131-.612-1.53-.55l-3.776.6.423.935 3.405-.538c.491-.079.818.118.91.506-.037.103-.91 4.752-.91 4.752l-1.222.193.655-3.52c.082-.439-.05-.582-.476-.515l-2.341.372-.768 4.129-1.343.211.88-4.727-1.105-1.303-3.98 1.438 1.888-.299.03-.004-1.199 6.45c-.306 1.64-2.054 3.206-3.606 3.452l-1.585.251.24-1.288 1.207-.192c1.063-.171 2.256-1.231 2.461-2.343l.133-.699-3.145.5c-.675.108-1.041-.303-.907-1.015l.564-3.034c.1-.538.436-.986.887-1.218l.007-.081 1.577-1.213-.922.156c-.488.076-1.398.444-1.977 1.18-.437-.52-1.2-.727-1.631-.657l-3.388.538.552-2.968 2.472-.392c1.317-.209 2.771-1.689 3.031-3.08l.37-1.998c.26-1.392-.718-2.485-2.033-2.276l-5.403.857-1.151 6.194-4.974.79c-.422.066-.83.48-.914.926l-1.859 10c-.081.444.192.752.613.685l9.492-1.506.768-4.13.388-.061c.426-.067.362-.145.279.297l-.701 3.777zm-7.043-2.262-3.175.504.12-.644 2.563-.408.625-3.354-2.564.407.119-.646 3.175-.502zm-.193 1.032-.264 1.419-5.616.89 1.749-9.418 4.64-.734-.238 1.291-3.296.521-.505 2.71 2.687-.427-.24 1.291-2.686.426-.505 2.709zm6.45.354-1.344.213.654-3.52c.083-.44-.052-.582-.475-.515l-2.341.37-.767 4.129-1.343.213 1.007-5.418.032-.006 4.455-.705c.674-.108 1.04.3.908 1.013zm8.73-6.643 1.311-.207-1.007 5.418-1.342.213 1.006-5.418zm8.144 2.552.465-2.507c.148-.792 1.001-1.569 1.727-1.686l3.141-.498c.527-.084.896.508.787 1.086l-.154.806c-.107.579-.698 1.194-1.226 1.277l-3.262.519-.046.293c-.062.332.159.592.464.542l3.645-.579-.246 1.324-4.11.649c-.727.116-1.332-.431-1.185-1.226zm-19.429-7.023.457-2.451 1.708-.273c.225-.035.34.092.293.329l-.311 1.679c-.044.236-.215.408-.436.445z" fill="#0084a6"/><path d="m235.726 326.908-.361-1.438-.205.024-.065.354c-.045.245-.244.446-.475.482l-1.404.224c-.232.036-.365-.11-.319-.357l.708-3.808c.044-.243.242-.443.475-.481l1.404-.223c.231-.038.363.111.318.355l-.091.485 2.84-.45.106-.581c.272-1.464-.724-2.577-2.109-2.359l-2.717.432c-1.384.221-2.867 1.728-3.139 3.191l-.755 4.064c-.274 1.467.723 2.577 2.108 2.359l.907-.147z" fill="#0084a6"/><path d="m237.739 326.04c.073-.199.124-.275.163-.48l.097-.516-1.131.179z" fill="#0084a6"/><path d="m186.319 100.839v90.568c0 1.65 1.35 3 3 3h85.38c1.65 0 3-1.35 3-3v-90.568z" fill="#262626"/><path d="m258.548 152.841c0 3.299-2.7 6-6 6h-41.077c-3.3 0-6-2.701-6-6v-58.588c0-3.3 2.7-6.001 6-6.001h41.077c3.3 0 6 2.7 6 6.001z" fill="#333"/><path d="m209.722 91.724c-1.1 0-2 .9-2 2v39.028c0 3.122 2.557 5.679 5.678 5.679h37.219c3.122 0 5.677-2.557 5.677-5.679v-39.028c0-1.101-.9-2-2-2z" fill="#262626"/><path d="m69.703 175.013h55.38v4.26h-55.38z"/><path d="m69.703 167.089h55.38v4.26h-55.38z"/><path d="m69.703 159.165h55.38v4.26h-55.38z"/><path d="m339.023 175.013h55.38v4.26h-55.38z"/><path d="m339.023 167.089h55.38v4.26h-55.38z"/><path d="m339.023 159.165h55.38v4.26h-55.38z"/><path d="m135.431 49.466h41.645c2.879 0 5.211 2.047 5.211 4.925 0 2.877-2.332 4.925-5.211 4.925h-41.645" fill="#262626"/><g fill="#333"><path d="m183.559 7.945v-6.922c0-.489.532-.887 1.021-.887.49 0 1.022.398 1.022.887v6.921"/><path d="m187.868 7.945v-6.922c0-.489.534-.887 1.024-.887s1.023.398 1.023.887v6.921"/><path d="m192.181 7.945v-6.922c0-.489.534-.887 1.022-.887.489 0 1.023.398 1.023.887v6.921"/><path d="m196.492 7.945v-6.922c0-.489.533-.887 1.022-.887.49 0 1.023.398 1.023.887v6.921"/><path d="m200.805 7.945v-6.922c0-.489.532-.887 1.022-.887.488 0 1.023.398 1.023.887v6.921"/><path d="m205.115 7.945v-6.922c0-.489.534-.887 1.023-.887s1.023.398 1.023.887v6.921"/><path d="m209.429 7.945v-6.922c0-.489.532-.887 1.022-.887.488 0 1.021.398 1.021.887v6.921"/><path d="m213.739 7.945v-6.922c0-.489.534-.887 1.022-.887.489 0 1.023.398 1.023.887v6.921"/><path d="m218.052 7.945v-6.922c0-.489.532-.887 1.022-.887s1.023.398 1.023.887v6.921"/><path d="m222.362 7.945v-6.922c0-.489.533-.887 1.022-.887.49 0 1.023.398 1.023.887v6.921"/><path d="m226.675 7.945v-6.922c0-.489.534-.887 1.023-.887.488 0 1.021.398 1.021.887v6.921"/><path d="m230.986 7.945v-6.922c0-.489.533-.887 1.023-.887.489 0 1.023.398 1.023.887v6.921"/><path d="m235.298 7.945v-6.922c0-.489.532-.887 1.023-.887.489 0 1.021.398 1.021.887v6.921"/><path d="m239.611 7.945v-6.922c0-.489.532-.887 1.021-.887.488 0 1.022.398 1.022.887v6.921"/><path d="m243.922 7.945v-6.922c0-.489.533-.887 1.022-.887s1.021.398 1.021.887v6.921"/><path d="m248.232 7.945v-6.922c0-.489.534-.887 1.023-.887.49 0 1.022.398 1.022.887v6.921"/><path d="m252.545 7.945v-6.922c0-.489.535-.887 1.023-.887.49 0 1.022.398 1.022.887v6.921"/><path d="m256.857 7.945v-6.922c0-.489.532-.887 1.022-.887.488 0 1.022.398 1.022.887v6.921"/><path d="m261.168 7.945v-6.922c0-.489.534-.887 1.024-.887s1.023.398 1.023.887v6.921"/><path d="m265.48 7.945v-6.922c0-.489.532-.887 1.024-.887.488 0 1.022.398 1.022.887v6.921"/><path d="m269.791 7.945v-6.922c0-.489.535-.887 1.024-.887s1.022.398 1.022.887v6.921"/><path d="m274.104 7.945v-6.922c0-.489.532-.887 1.022-.887.488 0 1.022.398 1.022.887v6.921"/><path d="m278.416 7.945v-6.922c0-.489.533-.887 1.022-.887.49 0 1.024.398 1.024.887v6.921"/></g><path d="m126.948 132.722c0 1.805-1.478 3.282-3.283 3.282h-116.005c-1.805 0-3.281-1.477-3.281-3.282v-48.701c0-1.806 1.477-3.283 3.281-3.283h116.005c1.806 0 3.283 1.477 3.283 3.283z" fill="#404040"/><path d="m459.64 132.722c0 1.805-1.478 3.282-3.283 3.282h-116.005c-1.805 0-3.281-1.477-3.281-3.282v-48.701c0-1.806 1.477-3.283 3.281-3.283h116.005c1.806 0 3.283 1.477 3.283 3.283z" fill="#404040"/><path d="m126.948 152.822c0 1.806-1.478 3.283-3.283 3.283h-116.005c-1.805 0-3.281-1.478-3.281-3.283v-48.701c0-1.805 1.477-3.282 3.281-3.282h116.005c1.806 0 3.283 1.478 3.283 3.282z" fill="#404040"/><path d="m117.426 113.349c-2.56 0-4.652-2.094-4.652-4.652v-6.336h-94.037v6.336c0 2.559-2.095 4.652-4.653 4.652h-7.148v30.434h7.148c2.559 0 4.653 2.094 4.653 4.654v6.146h94.036v-6.146c0-2.561 2.093-4.654 4.652-4.654h6.966v-30.434z" fill="#333"/><path d="m17.016 107.689c0 2.146-1.741 3.889-3.89 3.889-2.148 0-3.888-1.742-3.888-3.889 0-2.148 1.74-3.89 3.888-3.89s3.89 1.742 3.89 3.89z" fill="#333"/><path d="m17.016 149.398c0 2.147-1.741 3.889-3.89 3.889-2.148 0-3.888-1.741-3.888-3.889s1.74-3.889 3.888-3.889 3.89 1.74 3.89 3.889z" fill="#333"/><path d="m122.17 107.689c0 2.146-1.741 3.889-3.888 3.889-2.149 0-3.89-1.742-3.89-3.889 0-2.148 1.74-3.89 3.89-3.89 2.147 0 3.888 1.742 3.888 3.89z" fill="#333"/><path d="m122.17 149.398c0 2.147-1.741 3.889-3.888 3.889-2.149 0-3.89-1.741-3.89-3.889s1.74-3.889 3.89-3.889c2.147 0 3.888 1.74 3.888 3.889z" fill="#333"/><path d="m459.641 152.822c0 1.806-1.479 3.283-3.284 3.283h-116.005c-1.805 0-3.282-1.478-3.282-3.283v-48.701c0-1.805 1.478-3.282 3.282-3.282h116.005c1.806 0 3.284 1.478 3.284 3.282z" fill="#404040"/><path d="m450.117 113.349c-2.561 0-4.653-2.094-4.653-4.652v-6.336h-94.037v6.336c0 2.559-2.094 4.652-4.651 4.652h-7.149v30.434h7.149c2.558 0 4.651 2.094 4.651 4.654v6.146h94.037v-6.146c0-2.561 2.093-4.654 4.653-4.654h6.966v-30.434z" fill="#333"/><path d="m349.706 107.689c0 2.146-1.74 3.889-3.888 3.889s-3.889-1.742-3.889-3.889c0-2.148 1.74-3.89 3.889-3.89 2.148 0 3.888 1.742 3.888 3.89z" fill="#333"/><path d="m349.706 149.398c0 2.147-1.74 3.889-3.888 3.889s-3.889-1.741-3.889-3.889 1.74-3.889 3.889-3.889c2.148 0 3.888 1.74 3.888 3.889z" fill="#333"/><path d="m454.861 107.689c0 2.146-1.742 3.889-3.89 3.889-2.147 0-3.888-1.742-3.888-3.889 0-2.148 1.74-3.89 3.888-3.89s3.89 1.742 3.89 3.89z" fill="#333"/><path d="m454.861 149.398c0 2.147-1.742 3.889-3.89 3.889-2.147 0-3.888-1.741-3.888-3.889s1.74-3.889 3.888-3.889 3.89 1.74 3.89 3.889z" fill="#333"/><path d="m69.703 118.164h29.006v17.17h-29.006z" fill="#006434"/><path d="m71.735 118.164h9.435v17.17h-9.435z" fill="#007c3f"/><path d="m72.784 118.164h.985v17.17h-.985z" fill="#006434"/><path d="m74.758 118.164h.986v17.17h-.986z" fill="#006434"/><path d="m76.729 118.164h.986v17.17h-.986z" fill="#006434"/><path d="m78.703 118.164h.986v17.17h-.986z" fill="#006434"/><path d="m80.676 118.164h.986v17.17h-.986z" fill="#006434"/><path d="m186.319 111.923h12.702c1.447 0 2.618-1.313 2.618-2.758 0-1.448-1.171-2.76-2.618-2.76h-12.702z" fill="#080a00"/></svg>