<svg enable-background="new 0 0 585.792 369.507" viewBox="0 0 585.792 369.507" xmlns="http://www.w3.org/2000/svg" xmlns:xlink="http://www.w3.org/1999/xlink"><linearGradient id="a" gradientUnits="userSpaceOnUse" x1="542.7296" x2="542.7296" y1="357.5957" y2="282.7791"><stop offset="0" stop-color="#648a8e"/><stop offset="1" stop-color="#8368a3"/></linearGradient><path d="m285.968 2.727h-107.918c-.752 0-1.363-.611-1.363-1.363 0-.753.611-1.364 1.363-1.364h107.918c.754 0 1.365.611 1.365 1.364 0 .752-.611 1.363-1.365 1.363z" fill="#404040"/><path d="m464.017 325.46c0 2.256-1.846 4.104-4.104 4.104h-455.81c-2.256 0-4.103-1.848-4.103-4.104v-226.537c0-2.258 1.848-4.104 4.103-4.104h455.81c2.258 0 4.104 1.846 4.104 4.104v12.168c0 2.256-1.846 4.119-4.104 4.137l-17.429.141c-2.257.02-4.104 1.881-4.104 4.139v24.723c0 2.257 1.847 4.104 4.104 4.104h17.429c2.258 0 4.104 1.848 4.104 4.104z" fill="#333"/><path d="m459.641 90.989c0-3.612-2.955-6.567-6.568-6.567h-442.129c-3.611 0-6.565 2.954-6.565 6.567v242.405c0 3.611 2.954 6.566 6.565 6.566h383.092 8.931c1.301 0 2.373-1.109 2.381-2.464.01-1.355.885-2.464 1.945-2.464h8.494 5.334 8.518c1.069 0 1.945 1.109 1.939 2.464-.003 1.354 1.397 2.464 3.112 2.464h9.688 8.694c3.613 0 6.568-2.955 6.568-6.566v-242.405z" fill="#262626"/><path d="m337.342 152.411c0 3.161-2.585 5.745-5.744 5.745h-199.178c-3.159 0-5.746-2.584-5.746-5.745v-145.416c0-3.161 2.587-5.746 5.746-5.746h199.178c3.159 0 5.744 2.585 5.744 5.746z" fill="#262626"/><path d="m135.431 7.945h193.157v102.195h-193.157z" fill="#333"/><path d="m450.826 325.72c0 2.258-1.847 4.104-4.105 4.104h-429.015c-2.256 0-4.103-1.847-4.103-4.104v-187.775c0-2.258 1.848-4.104 4.103-4.104h429.015c2.259 0 4.105 1.846 4.105 4.104z" fill="#333"/><path d="m93.332 103.595h277.766v49.691h-277.766z" fill="#333"/><path d="m23.452 153.287h417.524v170.445h-417.524z" fill="#404040"/><path d="m31.387 286.263h120.108v20.654h-120.108z" fill="#333"/><path d="m49.159 296.589c0 11.502-9.325 20.826-20.825 20.826-11.503 0-20.826-9.324-20.826-20.826 0-11.501 9.323-20.826 20.826-20.826 11.5 0 20.825 9.325 20.825 20.826z" fill="#333"/><path d="m28.334 312.011c-8.505 0-15.424-6.918-15.424-15.422s6.919-15.422 15.424-15.422c8.504 0 15.423 6.918 15.423 15.422s-6.919 15.422-15.423 15.422zm0-30.101c-8.095 0-14.68 6.586-14.68 14.68s6.585 14.68 14.68 14.68c8.094 0 14.679-6.586 14.679-14.68s-6.585-14.68-14.679-14.68z"/><path d="m31.387 234.828h120.108v20.654h-120.108z" fill="#333"/><path d="m49.159 245.154c0 11.502-9.325 20.826-20.825 20.826-11.503 0-20.826-9.324-20.826-20.826 0-11.501 9.323-20.825 20.826-20.825 11.5 0 20.825 9.324 20.825 20.825z" fill="#333"/><path d="m28.334 260.577c-8.505 0-15.424-6.919-15.424-15.423s6.919-15.422 15.424-15.422c8.504 0 15.423 6.918 15.423 15.422s-6.919 15.423-15.423 15.423zm0-30.103c-8.095 0-14.68 6.586-14.68 14.68s6.585 14.68 14.68 14.68c8.094 0 14.679-6.586 14.679-14.68s-6.585-14.68-14.679-14.68z"/><path d="m31.387 183.392h120.108v20.654h-120.108z" fill="#333"/><path d="m49.159 193.718c0 11.502-9.325 20.827-20.825 20.827-11.503 0-20.826-9.325-20.826-20.827 0-11.5 9.323-20.825 20.826-20.825 11.5 0 20.825 9.325 20.825 20.825z" fill="#333"/><path d="m28.334 209.141c-8.505 0-15.424-6.919-15.424-15.423s6.919-15.422 15.424-15.422c8.504 0 15.423 6.918 15.423 15.422s-6.919 15.423-15.423 15.423zm0-30.101c-8.095 0-14.68 6.584-14.68 14.678 0 8.095 6.585 14.68 14.68 14.68 8.094 0 14.679-6.585 14.679-14.68 0-8.094-6.585-14.678-14.679-14.678z"/><path d="m312.613 286.263h120.107v20.654h-120.107z" fill="#333"/><ellipse cx="435.774" cy="296.589" fill="#333" rx="20.826" ry="20.825" transform="matrix(.0136 -.9999 .9999 .0136 133.2675 728.277)"/><path d="m435.774 312.011c-8.505 0-15.425-6.918-15.425-15.422s6.92-15.422 15.425-15.422 15.424 6.918 15.424 15.422-6.919 15.422-15.424 15.422zm0-30.101c-8.095 0-14.681 6.586-14.681 14.68s6.586 14.68 14.681 14.68 14.68-6.586 14.68-14.68-6.585-14.68-14.68-14.68z"/><path d="m312.613 234.828h120.107v20.654h-120.107z" fill="#333"/><path d="m414.949 245.154c0 11.502 9.322 20.826 20.825 20.826 11.502 0 20.825-9.324 20.825-20.826 0-11.501-9.323-20.825-20.825-20.825-11.503 0-20.825 9.324-20.825 20.825z" fill="#333"/><path d="m435.774 260.577c-8.505 0-15.425-6.919-15.425-15.423s6.92-15.422 15.425-15.422 15.424 6.918 15.424 15.422-6.919 15.423-15.424 15.423zm0-30.103c-8.095 0-14.681 6.586-14.681 14.68s6.586 14.68 14.681 14.68 14.68-6.586 14.68-14.68-6.585-14.68-14.68-14.68z"/><path d="m312.613 183.392h120.107v20.654h-120.107z" fill="#333"/><path d="m414.949 193.718c0 11.502 9.322 20.827 20.825 20.827 11.502 0 20.825-9.325 20.825-20.827 0-11.5-9.323-20.825-20.825-20.825-11.503 0-20.825 9.325-20.825 20.825z" fill="#333"/><path d="m435.774 209.141c-8.505 0-15.425-6.919-15.425-15.423s6.92-15.422 15.425-15.422 15.424 6.918 15.424 15.422-6.919 15.423-15.424 15.423zm0-30.101c-8.095 0-14.681 6.584-14.681 14.678 0 8.095 6.586 14.68 14.681 14.68s14.68-6.585 14.68-14.68c0-8.094-6.585-14.678-14.68-14.678z"/><path d="m328.588 364.583c0 2.707-2.215 4.924-4.925 4.924h-183.309c-2.708 0-4.924-2.217-4.924-4.924v-258.82c0-2.707 2.216-4.924 4.924-4.924h183.309c2.71 0 4.925 2.217 4.925 4.924z" fill="#404040"/><path d="m139.671 123.546h6.156v225.58h-6.156z" fill="#4d4d4d"/><path d="m151.571 123.546h6.156v225.58h-6.156z" fill="#4d4d4d"/><path d="m163.473 123.546h6.156v225.58h-6.156z" fill="#4d4d4d"/><path d="m175.375 123.546h6.155v225.58h-6.155z" fill="#4d4d4d"/><path d="m187.276 198.748h6.155v150.379h-6.155z" fill="#4d4d4d"/><path d="m270.586 198.748h6.155v150.379h-6.155z" fill="#4d4d4d"/><path d="m282.486 123.546h6.157v225.58h-6.157z" fill="#4d4d4d"/><path d="m294.389 123.546h6.155v225.58h-6.155z" fill="#4d4d4d"/><path d="m306.289 123.546h6.156v225.58h-6.156z" fill="#4d4d4d"/><path d="m318.191 123.546h6.155v225.58h-6.155z" fill="#4d4d4d"/><path d="m202.418 198.748h59.181v150.379h-59.181z" fill="#4d4d4d"/><path d="m180.858 302.866c0 7.866-6.379 14.243-14.245 14.243s-14.244-6.377-14.244-14.243 6.378-14.245 14.244-14.245 14.245 6.379 14.245 14.245z" fill="#333"/><ellipse cx="166.613" cy="302.866" fill="#4d4d4d" rx="10.298" ry="10.298" transform="matrix(.7071 -.7071 .7071 .7071 -165.3585 206.5207)"/><path d="m163.773 307.785-2.839-4.92 2.839-4.919h5.681l2.841 4.919-2.841 4.92z" fill="#262626"/><path d="m180.858 165.681c0 7.866-6.379 14.244-14.245 14.244s-14.244-6.378-14.244-14.244c0-7.867 6.378-14.245 14.244-14.245s14.245 6.378 14.245 14.245z" fill="#333"/><ellipse cx="166.613" cy="165.681" fill="#4d4d4d" rx="10.299" ry="10.298" transform="matrix(.0125 -.9999 .9999 .0125 -1.1365 330.2115)"/><path d="m163.773 170.6-2.839-4.921 2.839-4.918h5.681l2.841 4.918-2.841 4.921z" fill="#262626"/><path d="m311.783 302.866c0 7.866-6.377 14.243-14.243 14.243-7.867 0-14.244-6.377-14.244-14.243s6.377-14.245 14.244-14.245c7.866 0 14.243 6.379 14.243 14.245z" fill="#333"/><path d="m307.837 302.866c0 5.686-4.61 10.298-10.297 10.298-5.688 0-10.299-4.611-10.299-10.298 0-5.689 4.61-10.298 10.299-10.298 5.687 0 10.297 4.609 10.297 10.298z" fill="#4d4d4d"/><path d="m294.7 307.785-2.841-4.92 2.841-4.919h5.679l2.842 4.919-2.842 4.92z" fill="#262626"/><path d="m311.783 165.681c0 7.866-6.377 14.244-14.243 14.244-7.867 0-14.244-6.378-14.244-14.244 0-7.867 6.377-14.245 14.244-14.245 7.866 0 14.243 6.378 14.243 14.245z" fill="#333"/><path d="m307.837 165.681c0 5.686-4.61 10.299-10.297 10.299-5.688 0-10.299-4.613-10.299-10.299 0-5.688 4.61-10.299 10.299-10.299 5.687 0 10.297 4.611 10.297 10.299z" fill="#4d4d4d"/><path d="m294.7 170.6-2.841-4.921 2.841-4.918h5.679l2.842 4.918-2.842 4.921z" fill="#262626"/><path d="m205.82 296.998 5.455-4.876c2.186.009 4.371-.001 6.556.006 0 2.324-.001 4.649.003 6.974-1.575.001-3.148-.002-4.72.001-.002 1.839.002 3.678-.002 5.515 2.587.004 5.17.008 7.757-.002 0-.551.013-1.101.016-1.654 2.314.004 4.628-.006 6.941.006-.012 1.34.002 2.68-.005 4.021.007.15-.148.24-.236.344-1.67 1.598-3.306 3.239-4.993 4.818-3.703.029-7.409.002-11.116.014l-5.65-4.983z" fill="#0084a6"/><path d="m238.643 289.51c-10.942.008-21.883.001-32.823.003 0-2.494 0-4.987 0-7.482 10.438-.002 20.876.006 31.314-.004-.004-.695-.012-1.391.005-2.086 2.369.006 4.736.004 7.103 0 .025 1.272.008 2.543.013 3.815.023.15-.058.266-.163.357z" fill="#0084a6"/><path d="m205.82 276.066c0-2.494 0-4.988 0-7.481 10.949.007 21.901-.017 32.849.011 1.886 1.789 3.707 3.649 5.572 5.459.004 1.326.001 2.648.001 3.975-2.361.002-4.724.004-7.086-.002-.006-.652-.003-1.307-.001-1.961-10.445-.004-20.89-.001-31.335-.001z" fill="#0084a6"/><path d="m205.82 266.156c0-2.494 0-4.986 0-7.48h38.422v7.48c-12.808 0-25.613 0-38.422 0z" fill="#0084a6"/><path d="m205.822 251.311c1.804-1.81 3.586-3.646 5.393-5.451h14.59c1.807 1.806 3.588 3.64 5.392 5.451.004 1.78.002 3.562.003 5.343-2.427 0-4.854 0-7.281 0 0-1.08 0-2.158 0-3.238-3.605 0-7.211 0-10.817 0v3.238c-2.428 0-4.854 0-7.28 0z" fill="#0084a6"/><path d="m205.82 243.407c0-5.493 0-10.987 0-16.479h7.28v8.998h23.861c0-3.001 0-5.999 0-8.998h7.28v16.479c-12.807 0-25.612 0-38.421 0z" fill="#0084a6"/><path d="m205.82 224.4c0-2.496 0-4.988 0-7.483h38.422v7.483c-12.808 0-25.613 0-38.422 0z" fill="#0084a6"/><path d="m225.147 208.302c1.527-1.493 3.008-3.042 4.552-4.517 4.848-.032 9.696-.004 14.543-.014v7.582c-5.122 0-10.246 0-15.368 0v3.741c-2.427 0-4.854 0-7.28 0 0-1.246 0-2.492 0-3.741-2.831 0-5.663 0-8.493 0v3.741c-2.428 0-4.854 0-7.28 0l.002-5.846 5.561-5.477c3.001-.005 6.003.002 9.004-.002z" fill="#0084a6"/><path d="m220.38 233.903c0-1.82 0-3.64 0-5.46h7.281v5.46c-2.428 0-4.853 0-7.281 0z" fill="#0084a6"/><path d="m244.235 297.124.007 10.183-5.454 4.877c-2.187-.008-4.372.002-6.56-.006.002-2.324.003-4.649 0-6.973 1.574-.004 3.147 0 4.721-.004.001-1.837-.004-3.676.003-5.514l-9.074.002c0 .416-.002.834-.017 1.249-2.313-.001-4.625.007-6.939-.005.01-1.205-.003-2.41.007-3.614-.016-.13.111-.208.183-.296 1.645-1.59 3.282-3.185 4.925-4.776.081-.087.181-.121.301-.105 4.084 0 8.168.002 12.25 0z" fill="#0084a6"/><path d="m258.803 283.447v11.428c.007.749-.233 1.522-.761 2.068-.351.365-.849.578-1.355.559-2.264-.002-4.526.004-6.789-.004-.816.005-1.491-.631-1.776-1.358-.232-.525-.251-1.107-.24-1.671.003-3.674 0-7.349.002-11.021h2.021v11.527h6.875c0-3.001 0-6 0-9-.809 0-1.617 0-2.427 0v4.348c-.675 0-1.348 0-2.021 0 0-2.291 0-4.583 0-6.875h6.471z" fill="#0084a6"/><path d="m247.883 281.02c0-3.675 0-7.352 0-11.026-.01-.928.376-1.946 1.223-2.414.455-.27 1.001-.201 1.508-.209.636.012 1.274-.023 1.91.017.77.08 1.355.718 1.617 1.409.304.741.189 1.554.212 2.332l4.445-3.959.006 3.129c-1.482 1.324-2.962 2.648-4.451 3.966v4.229h4.45v2.527h-10.92zm2.021-2.527h2.428c0-2.864 0-5.729 0-8.595-.809 0-1.62 0-2.428 0z" fill="#0084a6"/><path d="m258.803 253.214c-2.964 1.461-5.921 2.932-8.89 4.381v1.148c2.969 1.447 5.926 2.92 8.89 4.381l-.001 2.93c-3.64-1.793-7.271-3.597-10.913-5.381v-5.006c3.643-1.785 7.273-3.59 10.913-5.383z" fill="#0084a6"/><path d="m247.883 249.07c0-4.281 0-8.561 0-12.842h2.021v10.314h2.428c0-3.001 0-6 0-9h2.021v9h4.45v2.527c-3.641.001-7.28.001-10.92.001z" fill="#0084a6"/><path d="m258.796 219.968-.007 3.711c-1.256 1.344-2.58 2.629-3.855 3.955 1.275 1.326 2.6 2.611 3.855 3.955l.007 3.709-5.795-5.692c-1.711 1.722-3.396 3.47-5.112 5.188l-.003-3.724 3.366-3.436c-1.107-1.162-2.268-2.274-3.358-3.452l-.005-3.706c1.736 1.73 3.431 3.508 5.171 5.234z" fill="#0084a6"/><path d="m214.049 335.755c-.032 0-.066-.008-.096-.023-3.135-1.521-4.754-3.295-4.682-5.129.059-1.509 1.293-2.935 3.563-4.123 2.157-1.127 5.198-2.022 8.796-2.586.118-.02.231.063.25.184.02.119-.063.232-.183.249-7.287 1.146-11.88 3.558-11.987 6.294-.063 1.621 1.51 3.299 4.434 4.715.109.055.153.186.102.295-.038.077-.116.124-.197.124z" fill="#0084a6"/><path d="m241.374 324.488c-.014 0-.024 0-.037 0-2.315-.381-4.761-.635-7.264-.756-.122-.004-.215-.107-.211-.229.007-.121.112-.214.231-.209 2.521.12 4.982.376 7.314.759.12.02.201.133.183.254-.018.106-.112.181-.216.181z" fill="#0084a6"/><path d="m234.455 339.317c-.062 0-.122 0-.185 0-.12 0-.219 0-.219 0s.1 0 .22 0h.001c.061 0 .122-.128.183-.128 11.762 0 21.042-3.121 21.164-7.05.042-1.376-1.063-2.804-3.194-4.065-2.125-1.261-5.169-2.348-8.803-3.121-.12-.024-.195-.148-.17-.268.024-.118.142-.197.26-.173 3.682.78 6.772 1.869 8.936 3.151 2.279 1.352 3.459 2.881 3.409 4.425-.064 2.09-2.372 3.903-6.498 5.27-3.989 1.323-9.346 1.959-15.104 1.959z" fill="#0084a6"/><path d="m238.435 328.058 5.8-4.423-6.811 2.72-1.916-1.993.609 2.762-5.8 4.422 6.814-2.72 1.914 1.994z" fill="#0084a6"/><path d="m231.169 333.579c.082-.409.235-.351.65-.416l.387-.061-.121.646-.386.061c-.416.065-.598.175-.53-.23zm-.839-.591-.301 1.619c-.081.441.052.585.479.518l2.461-.392.527-2.838-2.462.392c-.426.066-.621.259-.704.701zm15.631-2.553-.03.156 2.541-.404c.201-.031.395-.234.436-.453s-.088-.371-.29-.339l-.652.103-1.04.166-.263.041c-.306.049-.642.396-.702.73zm-17.818 7.316.02-.113c.088.008.204.041.307.025l2.639-.413c-.098.526-.794.657-1.855.825l-1.209.191-.646 3.484 1.588-.252c3.906-.385 5.395-2.404 5.871-4.813l4.76-.755.768-4.128.388-.063c.424-.066.362-.145.28.297l-.702 3.777 3.418-.543.046-.25c.259.113.56.154.88.105l5.911-.938.552-2.968-.385-.273c.333-.392.593-.872.667-1.276l.094-.469c.295-1.748-1.318-2.215-2.056-2.098l-3.393.538c-.601.097-1.262.515-1.744 1.068-.445-.44-1.131-.612-1.53-.55l-3.776.6.423.935 3.405-.538c.491-.079.818.118.91.506-.037.103-.91 4.752-.91 4.752l-1.222.193.655-3.52c.082-.439-.05-.582-.476-.515l-2.341.372-.768 4.129-1.343.211.88-4.727-1.105-1.303-3.98 1.438 1.888-.299.03-.004-1.199 6.45c-.306 1.64-2.054 3.206-3.606 3.452l-1.585.251.24-1.288 1.207-.192c1.063-.171 2.256-1.231 2.461-2.343l.133-.699-3.145.5c-.675.108-1.041-.303-.907-1.015l.564-3.034c.1-.538.436-.986.887-1.218l.007-.081 1.577-1.213-.922.156c-.488.076-1.398.444-1.977 1.18-.437-.52-1.2-.727-1.631-.657l-3.388.538.552-2.968 2.472-.392c1.317-.209 2.771-1.689 3.031-3.08l.37-1.998c.26-1.392-.718-2.485-2.033-2.276l-5.403.857-1.151 6.194-4.974.79c-.422.066-.83.48-.914.926l-1.859 10c-.081.444.192.752.613.685l9.492-1.506.768-4.13.388-.061c.426-.067.362-.145.279.297l-.701 3.777zm-7.043-2.262-3.175.504.12-.644 2.563-.408.625-3.354-2.564.407.119-.646 3.175-.502zm-.193 1.032-.264 1.419-5.616.89 1.749-9.418 4.64-.734-.238 1.291-3.296.521-.505 2.71 2.687-.427-.24 1.291-2.686.426-.505 2.709zm6.45.354-1.344.213.654-3.52c.083-.44-.052-.582-.475-.515l-2.341.37-.767 4.129-1.343.213 1.007-5.418.032-.006 4.455-.705c.674-.108 1.04.3.908 1.013zm8.73-6.643 1.311-.207-1.007 5.418-1.342.213 1.006-5.418zm8.144 2.552.465-2.507c.148-.792 1.001-1.569 1.727-1.686l3.141-.498c.527-.084.896.508.787 1.086l-.154.806c-.107.579-.698 1.194-1.226 1.277l-3.262.519-.046.293c-.062.332.159.592.464.542l3.645-.579-.246 1.324-4.11.649c-.727.116-1.332-.431-1.185-1.226zm-19.429-7.023.457-2.451 1.708-.273c.225-.035.34.092.293.329l-.311 1.679c-.044.236-.215.408-.436.445z" fill="#0084a6"/><path d="m235.726 326.908-.361-1.438-.205.024-.065.354c-.045.245-.244.446-.475.482l-1.404.224c-.232.036-.365-.11-.319-.357l.708-3.808c.044-.243.242-.443.475-.481l1.404-.223c.231-.038.363.111.318.355l-.091.485 2.84-.45.106-.581c.272-1.464-.724-2.577-2.109-2.359l-2.717.432c-1.384.221-2.867 1.728-3.139 3.191l-.755 4.064c-.274 1.467.723 2.577 2.108 2.359l.907-.147z" fill="#0084a6"/><path d="m237.739 326.04c.073-.199.124-.275.163-.48l.097-.516-1.131.179z" fill="#0084a6"/><path d="m186.319 100.839v90.568c0 1.65 1.35 3 3 3h85.38c1.65 0 3-1.35 3-3v-90.568z" fill="#262626"/><path d="m258.548 152.841c0 3.299-2.7 6-6 6h-41.077c-3.3 0-6-2.701-6-6v-58.588c0-3.3 2.7-6.001 6-6.001h41.077c3.3 0 6 2.7 6 6.001z" fill="#333"/><path d="m209.722 91.724c-1.1 0-2 .9-2 2v39.028c0 3.122 2.557 5.679 5.678 5.679h37.219c3.122 0 5.677-2.557 5.677-5.679v-39.028c0-1.101-.9-2-2-2z" fill="#262626"/><path d="m69.703 175.013h55.38v4.26h-55.38z"/><path d="m69.703 167.089h55.38v4.26h-55.38z"/><path d="m69.703 159.165h55.38v4.26h-55.38z"/><path d="m339.023 175.013h55.38v4.26h-55.38z"/><path d="m339.023 167.089h55.38v4.26h-55.38z"/><path d="m339.023 159.165h55.38v4.26h-55.38z"/><path d="m135.431 49.466h41.645c2.879 0 5.211 2.047 5.211 4.925 0 2.877-2.332 4.925-5.211 4.925h-41.645" fill="#262626"/><path d="m183.559 7.945v-6.922c0-.489.532-.887 1.021-.887.49 0 1.022.398 1.022.887v6.921" fill="#333"/><path d="m187.868 7.945v-6.922c0-.489.534-.887 1.024-.887s1.023.398 1.023.887v6.921" fill="#333"/><path d="m192.181 7.945v-6.922c0-.489.534-.887 1.022-.887.489 0 1.023.398 1.023.887v6.921" fill="#333"/><path d="m196.492 7.945v-6.922c0-.489.533-.887 1.022-.887.49 0 1.023.398 1.023.887v6.921" fill="#333"/><path d="m200.805 7.945v-6.922c0-.489.532-.887 1.022-.887.488 0 1.023.398 1.023.887v6.921" fill="#333"/><path d="m205.115 7.945v-6.922c0-.489.534-.887 1.023-.887s1.023.398 1.023.887v6.921" fill="#333"/><path d="m209.429 7.945v-6.922c0-.489.532-.887 1.022-.887.488 0 1.021.398 1.021.887v6.921" fill="#333"/><path d="m213.739 7.945v-6.922c0-.489.534-.887 1.022-.887.489 0 1.023.398 1.023.887v6.921" fill="#333"/><path d="m218.052 7.945v-6.922c0-.489.532-.887 1.022-.887s1.023.398 1.023.887v6.921" fill="#333"/><path d="m222.362 7.945v-6.922c0-.489.533-.887 1.022-.887.49 0 1.023.398 1.023.887v6.921" fill="#333"/><path d="m226.675 7.945v-6.922c0-.489.534-.887 1.023-.887.488 0 1.021.398 1.021.887v6.921" fill="#333"/><path d="m230.986 7.945v-6.922c0-.489.533-.887 1.023-.887.489 0 1.023.398 1.023.887v6.921" fill="#333"/><path d="m235.298 7.945v-6.922c0-.489.532-.887 1.023-.887.489 0 1.021.398 1.021.887v6.921" fill="#333"/><path d="m239.611 7.945v-6.922c0-.489.532-.887 1.021-.887.488 0 1.022.398 1.022.887v6.921" fill="#333"/><path d="m243.922 7.945v-6.922c0-.489.533-.887 1.022-.887s1.021.398 1.021.887v6.921" fill="#333"/><path d="m248.232 7.945v-6.922c0-.489.534-.887 1.023-.887.49 0 1.022.398 1.022.887v6.921" fill="#333"/><path d="m252.545 7.945v-6.922c0-.489.535-.887 1.023-.887.49 0 1.022.398 1.022.887v6.921" fill="#333"/><path d="m256.857 7.945v-6.922c0-.489.532-.887 1.022-.887.488 0 1.022.398 1.022.887v6.921" fill="#333"/><path d="m261.168 7.945v-6.922c0-.489.534-.887 1.024-.887s1.023.398 1.023.887v6.921" fill="#333"/><path d="m265.48 7.945v-6.922c0-.489.532-.887 1.024-.887.488 0 1.022.398 1.022.887v6.921" fill="#333"/><path d="m269.791 7.945v-6.922c0-.489.535-.887 1.024-.887s1.022.398 1.022.887v6.921" fill="#333"/><path d="m274.104 7.945v-6.922c0-.489.532-.887 1.022-.887.488 0 1.022.398 1.022.887v6.921" fill="#333"/><path d="m278.416 7.945v-6.922c0-.489.533-.887 1.022-.887.49 0 1.024.398 1.024.887v6.921" fill="#333"/><path d="m126.948 132.722c0 1.805-1.478 3.282-3.283 3.282h-116.005c-1.805 0-3.281-1.477-3.281-3.282v-48.701c0-1.806 1.477-3.283 3.281-3.283h116.005c1.806 0 3.283 1.477 3.283 3.283z" fill="#404040"/><path d="m459.64 132.722c0 1.805-1.478 3.282-3.283 3.282h-116.005c-1.805 0-3.281-1.477-3.281-3.282v-48.701c0-1.806 1.477-3.283 3.281-3.283h116.005c1.806 0 3.283 1.477 3.283 3.283z" fill="#404040"/><path d="m126.948 152.822c0 1.806-1.478 3.283-3.283 3.283h-116.005c-1.805 0-3.281-1.478-3.281-3.283v-48.701c0-1.805 1.477-3.282 3.281-3.282h116.005c1.806 0 3.283 1.478 3.283 3.282z" fill="#404040"/><path d="m117.426 113.349c-2.56 0-4.652-2.094-4.652-4.652v-6.336h-94.037v6.336c0 2.559-2.095 4.652-4.653 4.652h-7.148v30.434h7.148c2.559 0 4.653 2.094 4.653 4.654v6.146h94.036v-6.146c0-2.561 2.093-4.654 4.652-4.654h6.966v-30.434z" fill="#333"/><path d="m17.016 107.689c0 2.146-1.741 3.889-3.89 3.889-2.148 0-3.888-1.742-3.888-3.889 0-2.148 1.74-3.89 3.888-3.89s3.89 1.742 3.89 3.89z" fill="#333"/><path d="m17.016 149.398c0 2.147-1.741 3.889-3.89 3.889-2.148 0-3.888-1.741-3.888-3.889s1.74-3.889 3.888-3.889 3.89 1.74 3.89 3.889z" fill="#333"/><path d="m122.17 107.689c0 2.146-1.741 3.889-3.888 3.889-2.149 0-3.89-1.742-3.89-3.889 0-2.148 1.74-3.89 3.89-3.89 2.147 0 3.888 1.742 3.888 3.89z" fill="#333"/><path d="m122.17 149.398c0 2.147-1.741 3.889-3.888 3.889-2.149 0-3.89-1.741-3.89-3.889s1.74-3.889 3.89-3.889c2.147 0 3.888 1.74 3.888 3.889z" fill="#333"/><path d="m459.641 152.822c0 1.806-1.479 3.283-3.284 3.283h-116.005c-1.805 0-3.282-1.478-3.282-3.283v-48.701c0-1.805 1.478-3.282 3.282-3.282h116.005c1.806 0 3.284 1.478 3.284 3.282z" fill="#404040"/><path d="m450.117 113.349c-2.561 0-4.653-2.094-4.653-4.652v-6.336h-94.037v6.336c0 2.559-2.094 4.652-4.651 4.652h-7.149v30.434h7.149c2.558 0 4.651 2.094 4.651 4.654v6.146h94.037v-6.146c0-2.561 2.093-4.654 4.653-4.654h6.966v-30.434z" fill="#333"/><path d="m349.706 107.689c0 2.146-1.74 3.889-3.888 3.889s-3.889-1.742-3.889-3.889c0-2.148 1.74-3.89 3.889-3.89 2.148 0 3.888 1.742 3.888 3.89z" fill="#333"/><path d="m349.706 149.398c0 2.147-1.74 3.889-3.888 3.889s-3.889-1.741-3.889-3.889 1.74-3.889 3.889-3.889c2.148 0 3.888 1.74 3.888 3.889z" fill="#333"/><path d="m454.861 107.689c0 2.146-1.742 3.889-3.89 3.889-2.147 0-3.888-1.742-3.888-3.889 0-2.148 1.74-3.89 3.888-3.89s3.89 1.742 3.89 3.89z" fill="#333"/><path d="m454.861 149.398c0 2.147-1.742 3.889-3.89 3.889-2.147 0-3.888-1.741-3.888-3.889s1.74-3.889 3.888-3.889 3.89 1.74 3.89 3.889z" fill="#333"/><path d="m69.703 118.164h29.006v17.17h-29.006z" fill="#006434"/><path d="m71.735 118.164h9.435v17.17h-9.435z" fill="#007c3f"/><path d="m72.784 118.164h.985v17.17h-.985z" fill="#006434"/><path d="m74.758 118.164h.986v17.17h-.986z" fill="#006434"/><path d="m76.729 118.164h.986v17.17h-.986z" fill="#006434"/><path d="m78.703 118.164h.986v17.17h-.986z" fill="#006434"/><path d="m80.676 118.164h.986v17.17h-.986z" fill="#006434"/><path d="m186.319 111.923h12.702c1.447 0 2.618-1.313 2.618-2.758 0-1.448-1.171-2.76-2.618-2.76h-12.702z" fill="#080a00"/><path d="m585.792 364.492c0 2.759-2.257 5.015-5.015 5.015h-76.095c-2.759 0-5.015-2.257-5.015-5.015v-122.876c0-2.759 2.257-5.015 5.015-5.015h76.095c2.758 0 5.015 2.257 5.015 5.015z" fill="#e6e6e6"/><path d="m503.167 282.779h79.125v74.817h-79.125z" fill="url(#a)"/><path d="m501.981 239.524v34.61c0 2.79 2.257 5.074 5.015 5.074h71.466c2.759 0 5.015-2.283 5.015-5.074v-34.61z" fill="#181d22"/><path d="m501.981 239.524h81.496v6.917h-81.496z"/><path d="m554.315 363.427-11.447-3.429c-.091-.027-.187-.027-.278 0l-11.446 3.429c-.205.061-.345.25-.345.464v2.992c0 .267.217.484.484.484h22.892c.267 0 .484-.217.484-.484v-2.992c.001-.214-.14-.402-.344-.464z" fill="#d3d3d3"/><g fill="#c9a834"><path d="m504.156 241.223h1.166v4.607h-1.166z"/><path d="m506.21 240.503h1.165v5.328h-1.165z"/><path d="m508.264 240.503h1.165v5.328h-1.165z"/><path d="m510.317 240.503h1.165v5.328h-1.165z"/><path d="m512.371 240.503h1.166v5.328h-1.166z"/><path d="m514.424 240.503h1.165v5.328h-1.165z"/><path d="m516.478 240.503h1.165v5.328h-1.165z"/><path d="m518.531 240.503h1.165v5.328h-1.165z"/><path d="m520.585 240.503h1.166v5.328h-1.166z"/><path d="m522.638 240.503h1.165v5.328h-1.165z"/><path d="m524.692 240.503h1.165v5.328h-1.165z"/><path d="m526.745 240.503h1.166v5.328h-1.166z"/><path d="m528.799 240.503h1.165v5.328h-1.165z"/><path d="m530.852 240.503h1.165v5.328h-1.165z"/><path d="m532.905 240.503h1.166v5.328h-1.166z"/><path d="m534.959 240.503h1.165v5.328h-1.165z"/><path d="m537.013 240.503h1.165v5.328h-1.165z"/><path d="m539.066 239.524h1.165v6.917h-1.165z"/><path d="m541.119 240.503h1.166v5.328h-1.166z"/><path d="m543.173 240.503h1.165v5.328h-1.165z"/><path d="m545.227 240.503h1.165v5.328h-1.165z"/><path d="m547.28 240.503h1.165v5.328h-1.165z"/><path d="m549.334 240.503h1.166v5.328h-1.166z"/><path d="m551.387 240.503h1.165v5.328h-1.165z"/><path d="m553.441 240.503h1.165v5.328h-1.165z"/><path d="m555.494 240.503h1.166v5.328h-1.166z"/><path d="m557.548 240.503h1.165v5.328h-1.165z"/><path d="m559.601 240.503h1.165v5.328h-1.165z"/><path d="m561.655 240.503h1.165v5.328h-1.165z"/><path d="m563.708 240.503h1.166v5.328h-1.166z"/><path d="m565.762 240.503h1.166v5.328h-1.166z"/><path d="m567.815 240.503h1.165v5.328h-1.165z"/><path d="m569.868 240.503h1.166v5.328h-1.166z"/><path d="m571.922 240.503h1.166v5.328h-1.166z"/><path d="m573.976 240.503h1.166v5.328h-1.166z"/><path d="m576.029 240.503h1.166v5.328h-1.166z"/><path d="m578.083 240.503h1.166v5.328h-1.166z"/><path d="m580.136 239.524h1.165v6.917h-1.165z"/></g><circle cx="504.739" cy="245.314" fill="#1e1713" r=".282"/><circle cx="506.793" cy="245.314" fill="#1e1713" r=".282"/><circle cx="508.846" cy="245.314" fill="#1e1713" r=".282"/><circle cx="510.9" cy="245.314" fill="#1e1713" r=".282"/><circle cx="512.953" cy="245.314" fill="#1e1713" r=".282"/><circle cx="515.007" cy="245.314" fill="#1e1713" r=".282"/><circle cx="517.06" cy="245.314" fill="#1e1713" r=".282"/><circle cx="519.113" cy="245.314" fill="#1e1713" r=".282"/><circle cx="521.167" cy="245.314" fill="#1e1713" r=".282"/><circle cx="523.22" cy="245.314" fill="#1e1713" r=".282"/><circle cx="525.274" cy="245.314" fill="#1e1713" r=".282"/><circle cx="527.327" cy="245.314" fill="#1e1713" r=".282"/><circle cx="529.38" cy="245.314" fill="#1e1713" r=".282"/><circle cx="531.434" cy="245.314" fill="#1e1713" r=".282"/><circle cx="533.487" cy="245.314" fill="#1e1713" r=".282"/><circle cx="535.541" cy="245.314" fill="#1e1713" r=".282"/><circle cx="537.594" cy="245.314" fill="#1e1713" r=".282"/><circle cx="539.648" cy="245.314" fill="#1e1713" r=".282"/><circle cx="541.701" cy="245.314" fill="#1e1713" r=".282"/><circle cx="543.754" cy="245.314" fill="#1e1713" r=".282"/><circle cx="545.808" cy="245.314" fill="#1e1713" r=".282"/><circle cx="547.861" cy="245.314" fill="#1e1713" r=".282"/><circle cx="549.915" cy="245.314" fill="#1e1713" r=".282"/><circle cx="551.968" cy="245.314" fill="#1e1713" r=".282"/><circle cx="554.022" cy="245.314" fill="#1e1713" r=".282"/><circle cx="556.075" cy="245.314" fill="#1e1713" r=".282"/><circle cx="558.128" cy="245.314" fill="#1e1713" r=".282"/><circle cx="560.182" cy="245.314" fill="#1e1713" r=".282"/><circle cx="562.235" cy="245.314" fill="#1e1713" r=".282"/><circle cx="564.289" cy="245.314" fill="#1e1713" r=".282"/><circle cx="566.342" cy="245.314" fill="#1e1713" r=".282"/><circle cx="568.395" cy="245.314" fill="#1e1713" r=".282"/><circle cx="570.449" cy="245.314" fill="#1e1713" r=".282"/><circle cx="572.502" cy="245.314" fill="#1e1713" r=".282"/><circle cx="574.556" cy="245.314" fill="#1e1713" r=".282"/><circle cx="576.609" cy="245.314" fill="#1e1713" r=".282"/><circle cx="578.663" cy="245.314" fill="#1e1713" r=".282"/><circle cx="580.716" cy="245.314" fill="#1e1713" r=".282"/><path d="m554.66 363.891c0-.214-.14-.403-.345-.464l-.597-.179h-21.977l-.597.179c-.205.061-.345.25-.345.464z" fill="#c1c1c1"/><path d="m551.817 362.679h-18.176l2.146-.643h13.938z" fill="#c1c1c1"/><path d="m530.799 364.46h23.861v.643h-23.861z" fill="#c1c1c1"/><path d="m554.66 363.891c0-.214-.14-.403-.345-.464l-.597-.179h-21.977l-.597.179c-.205.061-.345.25-.345.464z" fill="#b7b7b7"/><path d="m551.817 362.679h-18.176l2.146-.643h13.938z" fill="#b7b7b7"/><path d="m547.771 361.467h-10.084l2.145-.642h5.794z" fill="#b7b7b7"/><path d="m530.799 364.46h23.861v.609h-23.861z" fill="#b7b7b7"/><path d="m530.799 365.609h23.861v.609h-23.861z" fill="#b7b7b7"/><path d="m554.66 366.758h-23.861v.125c0 .267.217.484.484.484h22.892c.267 0 .484-.217.484-.484v-.125z" fill="#b7b7b7"/><path d="m537.687 366.758h10.085v.609h-10.085z" fill="#d3d3d3"/><path d="m517.653 291.89c-.994 0-1.988 0-2.982 0-.137 0-.193-.055-.193-.191 0-.487-.001-.974.001-1.461 0-.072-.017-.087-.089-.071-.107.024-.218.039-.328.043-.208.008-.417.023-.624.041-.537.047-1.074.029-1.61.027-.293-.001-.588-.024-.88-.052-.237-.022-.475-.037-.709-.083-.056-.011-.086.002-.085.074.004.493.002.985.002 1.478 0 .137-.055.193-.191.193-.605 0-1.21 0-1.815 0-.135 0-.19-.056-.19-.194 0-.611-.003-1.222.003-1.833.001-.099-.043-.141-.121-.168-.226-.078-.449-.162-.684-.214-.068-.015-.131-.05-.194-.081-.092-.045-.098-.088-.028-.161.239-.252.514-.462.827-.604.169-.077.205-.164.201-.329-.01-.429-.003-.859-.003-1.288 0-.141.054-.194.198-.194h1.807c.135 0 .191.056.191.193 0 .66.001 1.32-.002 1.98 0 .077.024.111.097.129.129.031.258.059.391.069.244.018.487.044.73.067.017.002.035.001.052.001.201.006.402.002.601.021.123.011.246.018.369.012.406-.02.811-.041 1.217-.055.245-.008.492-.029.735-.08.126-.027.132-.027.132-.155 0-.663 0-1.326 0-1.988 0-.136.056-.192.192-.192h5.948c.131 0 .189.057.189.186v.493c0 .129-.058.186-.189.186-1.271 0-2.542 0-3.812 0-.115 0-.147.028-.147.145-.001.305 0 .611-.001.916 0 .052.01.076.068.055.07-.025.148-.019.219-.023.554-.031 1.11-.026 1.665-.019.288.004.576.022.863.052.374.039.752.054 1.118.152.039.01.09.012.092.058.002.043-.023.086-.061.116-.231.186-.478.35-.719.522-.046.033-.093.065-.137.1-.078.061-.166.063-.252.049-.049-.008-.096-.014-.144-.012-.204.008-.409-.002-.61-.024-.385-.042-.768-.027-1.152-.025-.265.001-.529.031-.794.049-.011.001-.022.006-.033.007-.102.007-.127.059-.125.16.008.323.003.645.003.968 0 .115.048.161.166.162h1.219 2.585c.138 0 .179.041.18.177v.458c0 .113-.048.16-.161.16-1.002-.002-1.999-.002-2.996-.002z"/><path d="m515.327 293.55c-.228 0-.455 0-.683 0-.155 0-.295-.128-.324-.282-.022-.114-.019-.228-.013-.342.004-.084-.024-.137-.098-.17-.013-.006-.025-.013-.036-.021-.129-.108-.125-.174.022-.255.061-.033.086-.088.108-.146.011-.03.024-.056.043-.081.035-.046.082-.037.126-.032.041.004.047.045.056.077.044.173.075.198.251.198h1.279c.117 0 .161.027.165.101.006.099-.039.145-.155.158-.02.002-.04 0-.06 0-.412 0-.824.001-1.236-.001-.05 0-.096.008-.14.028-.056.025-.094.061-.087.131.005.051.001.104.001.155 0 .179.043.222.223.222h1.296c.117 0 .174.063.138.167-.028.082-.112.09-.185.091-.23.004-.46.002-.691.002z"/><path d="m518.437 293.08c0-.149-.007-.267.002-.385.009-.116.078-.189.208-.195.23-.011.461-.009.691 0 .12.005.242.072.36.044.289-.068.581-.042.871-.048.213-.004.293.09.289.285-.004.187-.001.374 0 .561 0 .04-.011.078-.017.117-.016.101-.086.1-.158.089-.073-.011-.067-.073-.067-.127 0-.158 0-.317 0-.475 0-.119-.071-.191-.188-.192-.153-.001-.305 0-.458 0s-.23.098-.221.219c.011.146.003.294.002.44 0 .091-.036.136-.104.136s-.103-.046-.103-.136c-.001-.147-.008-.294.002-.44.008-.12-.066-.216-.213-.218-.158-.002-.317-.002-.475 0-.106.001-.178.075-.179.183-.001.164 0 .328 0 .492 0 .052.001.11-.068.118-.066.007-.135.019-.157-.08-.032-.14-.006-.28-.017-.388z"/><path d="m510.762 293.96c-.088 0-.136-.06-.098-.137.036-.073.079-.136.125-.21.027-.037.039-.086.008-.125-.063-.08-.121-.152-.191-.232-.181-.184-.357-.376-.538-.561-.041-.042-.074-.091-.043-.144.036-.062.105-.064.169-.051.029.006.061.021.082.042.158.159.324.309.465.484.065.081.135.158.205.235.044.048.091.044.131-.005.073-.089.144-.179.216-.269.125-.156.246-.328.39-.455.077-.063.149-.069.2-.002.028.037.043.055.022.105-.062.094-.144.172-.211.261-.14.188-.285.374-.437.553-.129.152-.247.314-.392.452-.031.032-.057.063-.103.059z"/><path d="m516.798 293.149c.034-.016.067-.013.1-.013h1.192c.108 0 .155-.04.194-.143.022-.057.012-.113.013-.169.002-.222-.039-.274-.25-.323-.025-.006-.051-.004-.077-.004-.383 0-.766 0-1.149-.001-.072 0-.143 0-.212.019-.13.036-.253.094-.248.304.003.124-.006.248.002.371.009.125.028.252.173.302.096.033.194.06.297.059.202-.001.403 0 .605 0 .213 0 .426.002.639-.001.071-.001.15-.011.182-.084.043-.099-.017-.174-.13-.174-.417-.001-.835 0-1.252-.001-.028 0-.056.004-.084-.008-.042-.018-.066-.048-.066-.09.001-.046.045-.032.071-.044zm-.121-.333c0-.043.036-.079.079-.079h1.169c.043 0 .079.036.079.079s-.036.079-.079.079h-1.169c-.044 0-.079-.036-.079-.079z"/><path d="m513.473 293.135h.097c.043 0 .078.035.078.078s-.035.078-.078.078h-.762s-.4 0-.601-.001l-.025.001c-.071 0-.13.058-.13.13 0 .071.058.13.13.13h.132c.207-.002.415-.001.622-.001.219 0 .438.003.657-.001.087-.001.175-.017.245-.077.086-.074.122-.306.07-.422-.058-.129-.169-.172-.297-.173-.311-.004-.622-.001-.933-.002h-.178c-.044 0-.079-.027-.079-.06s.036-.06.079-.06h.037 1.149c.037 0 .073-.004.108-.017.089-.033.115-.07.094-.163-.016-.068-.072-.08-.133-.08-.409 0-.818.001-1.227 0-.1 0-.197.011-.295.032-.102.021-.156.08-.171.172-.012.07-.012.145 0 .215.015.087.063.152.161.175.097.023.193.044.292.045.319.003.639.001.958.001"/><path d="m509.359 293.135h.097c.043 0 .078.035.078.078s-.035.078-.078.078h-.762s-.4 0-.601-.001l-.025.001c-.071 0-.13.058-.13.13 0 .071.058.13.13.13h.132c.207-.002.415-.001.622-.001.219 0 .438.003.657-.001.087-.001.175-.017.245-.077.086-.074.122-.306.07-.422-.058-.129-.169-.172-.297-.173-.311-.004-.622-.001-.933-.002h-.178c-.044 0-.079-.027-.079-.06s.036-.06.079-.06h.037 1.149c.037 0 .073-.004.108-.017.089-.033.115-.07.094-.163-.016-.068-.072-.08-.133-.08-.409 0-.818.001-1.227 0-.1 0-.197.011-.295.032-.103.021-.156.08-.171.172-.012.07-.012.145 0 .215.015.087.063.152.161.175.097.023.193.044.292.045.319.003.639.001.958.001"/></svg>