<svg enable-background="new 0 0 330.522 191.742" viewBox="0 0 330.522 191.742" xmlns="http://www.w3.org/2000/svg" xmlns:xlink="http://www.w3.org/1999/xlink"><clipPath id="a"><path d="m264.557 161.153h28.402v28.402h-28.402z"/></clipPath><clipPath id="b"><path d="m198.659 160.778h29.008v29.007h-29.008z"/></clipPath><path d="m330.522 158.233c0 4.063-3.324 7.386-7.387 7.386h-315.749c-4.063 0-7.386-3.323-7.386-7.386v-119.559c0-4.063 3.303-7.758 7.341-8.211l153.811-17.278c4.039-.453 10.643-.439 14.678.033l147.355 17.213c4.035.47 7.338 4.18 7.338 8.243v119.559z" fill="#262626"/><path d="m324.519 156.643c0 3.915-3.201 7.118-7.117 7.118h-304.284c-3.914 0-7.117-3.203-7.117-7.118v-115.219c0-3.914 3.183-7.475 7.072-7.91l148.227-.419c3.893-.437 10.256-.422 14.144.032l142.006.355c3.889.453 7.068 4.027 7.068 7.941v115.22z" fill="#333"/><path d="m80.155 119.766c0 16.933-13.727 30.658-30.66 30.658s-30.66-13.726-30.66-30.658c0-16.934 13.727-30.659 30.66-30.659s30.66 13.725 30.66 30.659z" fill="#404040"/><path d="m90.939 155.926h-14.772c-5.061 0-6.768-.422-6.768-2.722 0-2.218 2.145-3.042 5.385-6.501 6.734-7.185 11.663-16.313 11.663-26.938 0-20.408-16.544-36.951-36.952-36.951-9.716 0-17.518 4.432-17.518 4.432-3.533 1.822-6.127.803-6.127-3.261v-33.31c0-4.063 3.324-7.387 7.387-7.387h64.627c4.063 0 7.386 2.805 7.386 6.232v6.387c0 34.671 28.108 63.025 62.78 63.025s62.779-27.801 62.779-62.473c0 0 0-2.797 0-6.479 0-3.681 3.324-6.693 7.387-6.693h61.859c4.06 0 7.385 3.323 7.385 7.387v67.002c2.822 3.945 4.482 8.779 4.482 14.033 0 13.494-10.889 24.215-24.381 24.215h-196.602" fill="#080a00"/><path d="m287.86 147.648c-8.66 0-15.706-7.019-15.706-15.646 0-8.596 7.046-15.588 15.706-15.588s15.706 6.993 15.706 15.588c0 8.627-7.045 15.646-15.706 15.646zm0-26.618c-6.115 0-11.09 4.922-11.09 10.972 0 6.082 4.975 11.03 11.09 11.03s11.09-4.948 11.09-11.03c0-6.05-4.974-10.972-11.09-10.972z" fill="#333"/><path d="m287.86 145.34c7.4 0 13.398-5.939 13.398-13.338 0-7.4-5.998-13.28-13.398-13.28s-13.398 5.88-13.398 13.28c0 7.399 5.998 13.338 13.398 13.338z" fill="#4d4d4d"/><path d="m196.188 138.383h-15.695c-3.824 0-6.924-3.1-6.924-6.924s3.1-6.924 6.924-6.924h15.695c3.824 0 6.925 3.1 6.925 6.924s-3.1 6.924-6.925 6.924z" fill="#333"/><path d="m196.188 136.075h-15.695c-2.549 0-4.615-2.067-4.615-4.616s2.066-4.616 4.615-4.616h15.695c2.55 0 4.617 2.067 4.617 4.616.001 2.549-2.067 4.616-4.617 4.616z" fill="#4d4d4d"/><path d="m155.655 138.383h-15.695c-3.824 0-6.924-3.1-6.924-6.924s3.1-6.924 6.924-6.924h15.695c3.824 0 6.924 3.1 6.924 6.924s-3.1 6.924-6.924 6.924z" fill="#333"/><path d="m155.655 136.075h-15.695c-2.549 0-4.615-2.067-4.615-4.616s2.066-4.616 4.615-4.616h15.695c2.549 0 4.616 2.067 4.616 4.616s-2.067 4.616-4.616 4.616z" fill="#4d4d4d"/><path clip-rule="evenodd" d="m39.31 54.474-4.487-5.377-2.039 2.331.979.895-1.17 6.471 2.346-1.029-1.21-1.121.671-3.422 4.729 5.449 1.633-7.432 1.652-1-1.998-1.215zm3.955-4.476c.142.16.317.363.277.582l-.551 2.906c-.044.227-.246.391-.404.505-.158.113-.352.144-.546.175.168.064.335.131.448.252.113.123.267.295.226.479l-.631 2.83c-.061.261-.326.425-.514.568-.19.141-.406.213-.621.285h7.551l.532-2.832c-.29.588-.581 1.176-1.075 1.553-.498.377-1.175.708-1.894.708h-1.383l.691-3.504c.25-.087.535-.077.79.048.256.123.484.363.689.624s.385.542.528.841l.724-3.685c-.247.269-.523.516-.818.736-.298.221-.614.418-.912.516-.297.098-.574.098-.83.021l.715-3.449 1.114-.012c.503-.005 1.007-.065 1.413.268.408.334.721 1.032 1.029 1.731l.551-2.525h-7.676c.217.109.433.219.577.379zm9.047.885c-.563.482-1.074 1.121-1.412 1.818-.34.697-.512 1.455-.52 2.146-.008.695.145 1.326.427 1.904.285.58.695 1.106 1.204 1.461.511.357 1.116.543 1.672.629.557.085 1.062.07 1.464.014.4-.057.695-.152.965-.302l1.594-3.311c-.413.194-.833.37-1.269.55-.435.18-.886.361-1.364.42-.479.057-.983-.01-1.434-.277-.449-.266-.842-.732-1.045-1.257-.205-.521-.217-1.101-.076-1.624.143-.521.443-.987.811-1.396.361-.408.791-.758 1.191-.988.399-.232.768-.344 1.144-.371l1.204 1.732 1.385-.517-.973-2.374c-.271-.009-.547.001-.874.036-.325.035-.7.096-1.092.196-.391.099-.795.239-1.308.473-.51.231-1.13.557-1.694 1.038z" fill="#0084a6" fill-rule="evenodd"/><path d="m257.401 109.476c4.209 0 7.619-3.343 7.619-7.551 0-4.209-3.41-7.552-7.619-7.552h-13.938c-4.209 0-7.619 3.344-7.619 7.552s3.41 7.585 7.619 7.585z" fill="#0084a6"/><path d="m243.142 82.233c0 3.33 2.646 6.028 5.976 6.028 3.329 0 5.976-2.699 5.976-6.028v-17.029c0-3.329-2.646-6.028-5.976-6.028s-6.001 2.699-6.001 6.028z" fill="#333"/><path d="m237.802 63.891c-1.082 0-1.958.858-1.958 1.94s.876 1.941 1.958 1.941h5.533c1.082 0 1.959-.859 1.959-1.941s-.877-1.949-1.959-1.949z" fill="#333"/><path d="m237.802 79.673c-1.082 0-1.958.858-1.958 1.94s.876 1.941 1.958 1.941h5.533c1.082 0 1.959-.859 1.959-1.941s-.877-1.949-1.959-1.949z" fill="#333"/><path d="m237.802 71.782c-1.082 0-1.958.859-1.958 1.941 0 1.081.876 1.941 1.958 1.941h5.533c1.082 0 1.959-.86 1.959-1.941 0-1.082-.877-1.95-1.959-1.95z" fill="#333"/><path d="m295.152 82.233c0 3.33-2.645 6.028-5.975 6.028-3.328 0-5.975-2.699-5.975-6.028v-17.029c0-3.329 2.646-6.028 5.975-6.028 3.33 0 6.002 2.699 6.002 6.028z" fill="#333"/><path d="m300.492 63.891c1.082 0 1.958.858 1.958 1.94s-.876 1.941-1.958 1.941h-5.532c-1.082 0-1.959-.859-1.959-1.941s.877-1.949 1.959-1.949z" fill="#333"/><path d="m300.492 79.673c1.082 0 1.958.858 1.958 1.94s-.876 1.941-1.958 1.941h-5.532c-1.082 0-1.959-.859-1.959-1.941s.877-1.949 1.959-1.949z" fill="#333"/><path d="m300.492 71.782c1.082 0 1.958.859 1.958 1.941 0 1.081-.876 1.941-1.958 1.941h-5.532c-1.082 0-1.959-.86-1.959-1.941 0-1.082.877-1.95 1.959-1.95z" fill="#333"/><path d="m294.831 109.476c4.209 0 7.619-3.343 7.619-7.551 0-4.209-3.41-7.552-7.619-7.552h-13.938c-4.207 0-7.619 3.344-7.619 7.552s3.412 7.585 7.619 7.585z" fill="#0084a6"/><path d="m250.433 147.648c-8.66 0-15.707-7.019-15.707-15.646 0-8.596 7.047-15.588 15.707-15.588s15.706 6.993 15.706 15.588c0 8.627-7.046 15.646-15.706 15.646zm0-26.618c-6.115 0-11.091 4.922-11.091 10.972 0 6.082 4.976 11.03 11.091 11.03s11.09-4.948 11.09-11.03c-.001-6.05-4.975-10.972-11.09-10.972z" fill="#333"/><path d="m250.433 145.34c7.4 0 13.399-5.939 13.399-13.338 0-7.4-5.998-13.28-13.399-13.28-7.398 0-13.398 5.88-13.398 13.28-.001 7.399 5.999 13.338 13.398 13.338z" fill="#4d4d4d"/><path d="m124.177 10.946c-1.524 0-2.771 1.247-2.771 2.769v45.48c0 26.195 20.89 47.5 47.085 47.5 26.197 0 47.086-21.166 47.086-47.361v-45.619c0-1.523-1.246-2.769-2.77-2.769z" fill="#262626"/><path d="m57.844 89.808c0-.531-.426-1.052-.945-1.155 0 0-2.867-.916-7.403-.916-4.341 0-7.402.914-7.402.914-.52.105-.945.626-.945 1.157v20.646c0 .531-.434.965-.965.965h-20.647c-.531 0-1.052.425-1.155.944 0 0-.916 2.899-.916 7.403 0 3.838.916 7.402.916 7.402.104.52.624.945 1.155.945h20.645c.531 0 .965.434.965.965v20.645c0 .531.426 1.052.945 1.156 0 0 2.526.914 7.402.914 4.964 0 7.403-.915 7.403-.915.52-.104.945-.624.945-1.155v-20.645c0-.531.435-.965.964-.965h20.646c.53 0 1.051-.426 1.154-.945 0 0 .916-2.494.916-7.402 0-5.166-.916-7.403-.916-7.403-.104-.52-.624-.944-1.154-.944h-20.644c-.529 0-.964-.434-.964-.965z" fill="#4d4d4d"/><path d="m56.542 119.766c0 3.893-3.154 7.047-7.047 7.047s-7.049-3.154-7.049-7.047c0-3.894 3.156-7.049 7.049-7.049s7.047 3.155 7.047 7.049z" fill="#262626"/><path d="m98.495 96.272c.621 0 .864-.434.539-.965 0 0-.877-1.43-1.697-2.584-.605-.852-1.211-1.618-1.211-1.618-.386-.487-1.21-.886-1.832-.886h-14.789c-.622 0-.771.36-.332.8 0 0 .858.861 1.633 1.743.979 1.117 2.08 2.601 2.08 2.601.371.499 1.183.909 1.805.909zm-11.035-13.721c-.494-.378-1.408-.687-2.029-.687h-18.702c-.622 0-.667.211-.101.469 0 0 2.463 1.12 4.105 2.086 1.641.967 3.786 2.553 3.786 2.553.5.369 1.418.671 2.04.671h15.472c.622 0 .771-.36.333-.801 0 0-1.236-1.243-2.336-2.207-1.101-.964-2.568-2.084-2.568-2.084zm17.727 28.897c-.105-.613-.699-1.114-1.322-1.114h-12.876c-.621 0-1.029.499-.906 1.108 0 0 .486 2.42.666 4.239.131 1.311.197 2.639.197 3.984 0 1.145-.073 2.292-.073 2.292-.04.62.437 1.128 1.058 1.128h12.77c.621 0 1.154-.508 1.185-1.129 0 0 .056-1.154.056-2.291 0-1.172-.045-2.344-.133-3.512-.15-1.953-.622-4.705-.622-4.705zm-22.811 33.152c-.357.51-.141.926.48.929l14.425.036c.621.001 1.423-.413 1.78-.922 0 0 2.945-4.182 4.188-7.827 1.147-3.361 2.196-10.04 2.196-10.04.096-.615-.334-1.116-.956-1.116h-12.865c-.622 0-1.237.497-1.368 1.105 0 0-1.22 5.691-2.571 8.878-1.499 3.543-5.309 8.957-5.309 8.957zm6.358-38.151c.203.587.878 1.068 1.5 1.068h12.956c.621 0 .984-.487.805-1.083 0 0-.65-2.17-1.271-3.757-.51-1.298-1.223-2.811-1.223-2.811-.266-.562-.992-1.021-1.613-1.021h-13.53c-.623 0-.883.444-.581.987 0 0 .985 1.769 1.634 3.215.649 1.449 1.323 3.402 1.323 3.402z" fill="#0084a6"/><path d="m80.767 78.659c-4.322-2.463-7.03-3.848-12.461-5.178-5.19-1.272-10.897-1.977-17.092-1.977-.62-.037-1.646-.077-2.27-.077h-15.442c-.622 0-1.131.509-1.131 1.13v5.459c0 .622.509 1.13 1.131 1.13l47.153.002c.621 0 .672-.221.112-.489z" fill="#0084a6"/><path d="m263.26 65.828c0 1.214-.984 2.198-2.198 2.198-1.215 0-2.199-.984-2.199-2.198s.984-2.199 2.199-2.199c1.213 0 2.198.985 2.198 2.199z" fill="#0084a6"/><path d="m255.083 82.267c0 3.307-2.682 5.988-5.99 5.988-3.307 0-5.988-2.682-5.988-5.988 0-3.308 2.682-5.99 5.988-5.99 3.308.001 5.99 2.682 5.99 5.99z" fill="#4d4d4d"/><path d="m295.149 82.267c0 3.307-2.682 5.988-5.99 5.988-3.307 0-5.988-2.682-5.988-5.988 0-3.308 2.682-5.99 5.988-5.99 3.309.001 5.99 2.682 5.99 5.99z" fill="#4d4d4d"/><path d="m271.657 65.828c0 1.214-.984 2.198-2.199 2.198-1.214 0-2.198-.984-2.198-2.198s.984-2.199 2.198-2.199c1.215 0 2.199.985 2.199 2.199z" fill="#0084a6"/><path d="m280.054 65.828c0 1.214-.984 2.198-2.199 2.198-1.213 0-2.197-.984-2.197-2.198s.984-2.199 2.197-2.199c1.214 0 2.199.985 2.199 2.199z" fill="#0084a6"/><path d="m267.458 73.719c0 1.214-.984 2.198-2.198 2.198s-2.198-.984-2.198-2.198.984-2.199 2.198-2.199 2.198.985 2.198 2.199z" fill="#0084a6"/><path d="m275.855 73.719c0 1.214-.984 2.198-2.198 2.198-1.215 0-2.199-.984-2.199-2.198s.984-2.199 2.199-2.199c1.214 0 2.198.985 2.198 2.199z" fill="#0084a6"/><path d="m271.657 81.61c0 1.214-.984 2.198-2.199 2.198-1.214 0-2.198-.984-2.198-2.198s.984-2.199 2.198-2.199c1.215.001 2.199.985 2.199 2.199z" fill="#0084a6"/><path d="m98.081 158.963h-88.414c-1.606 0-2.908 1.302-2.908 2.908v26.658c0 1.605 1.302 2.908 2.908 2.908h88.414c1.606 0 2.909-1.303 2.909-2.908v-26.658c0-1.606-1.302-2.908-2.909-2.908" fill="#f5f5f4"/><g fill="#35485c"><path d="m9.667 158.963v.305h88.414c1.438.003 2.601 1.165 2.604 2.603v26.658c-.003 1.437-1.166 2.601-2.604 2.603h-88.414c-1.437-.003-2.601-1.166-2.603-2.603v-26.658c.003-1.438 1.166-2.601 2.603-2.603v-.305-.305c-1.774 0-3.213 1.438-3.213 3.213v26.658c0 1.774 1.439 3.213 3.213 3.213h88.414c1.775 0 3.213-1.439 3.214-3.213v-26.658c0-1.775-1.439-3.213-3.214-3.213h-88.414z"/><path d="m25.675 189.787h-5.563c-1.791 0-2.44-1.46-2.44-2.441v-6.832h-6.833c-1.792 0-2.442-1.46-2.442-2.441v-5.563c0-1.791 1.461-2.44 2.442-2.44h6.833v-6.833c0-1.791 1.459-2.441 2.44-2.441h5.563c1.792 0 2.441 1.461 2.441 2.441v6.833h6.831c.939 0 1.685.41 2.1 1.157.162.294.357.87.335 1.282h.006v5.563c0 1.792-1.46 2.442-2.441 2.442h-6.831v6.831c0 1.792-1.459 2.442-2.441 2.442zm-14.836-18.546c-.294.005-1.268.109-1.268 1.268v5.563c.004.294.108 1.269 1.268 1.269h8.006v8.005c.004.294.108 1.269 1.267 1.269h5.561c.301-.005 1.271-.111 1.271-1.269v-8.004h8.004c.294-.005 1.268-.11 1.268-1.269v-5.571c-.004-.225-.087-1.259-1.267-1.259h-8.003v-8.006c-.005-.294-.109-1.268-1.269-1.268h-5.563c-.294.005-1.267.108-1.267 1.268v8.005h-8.008z"/><path d="m22.894 178.148c-1.574 0-2.854-1.282-2.854-2.856 0-1.575 1.281-2.855 2.854-2.855 1.575 0 2.856 1.281 2.856 2.855 0 1.575-1.281 2.856-2.856 2.856zm0-4.539c-.927 0-1.681.755-1.681 1.683 0 .929.754 1.683 1.681 1.683.928 0 1.682-.755 1.682-1.683s-.754-1.683-1.682-1.683z"/><path d="m22.894 163.285-2.351 3.664h4.703z"/><path d="m25.245 167.536h-4.704c-.214 0-.411-.117-.515-.305-.103-.188-.095-.418.021-.599l2.351-3.664c.216-.338.772-.337.987 0l2.353 3.664c.116.181.125.41.021.599-.102.188-.298.305-.514.305zm-3.629-1.173h2.556l-1.278-1.991z"/><path d="m10.842 175.292 3.664 2.35v-4.702z"/><path d="m14.506 178.229c-.11 0-.221-.031-.317-.093l-3.665-2.351c-.168-.106-.27-.293-.27-.493s.102-.386.27-.494l3.665-2.352c.18-.115.41-.124.599-.021.188.102.305.3.305.515v4.701c0 .215-.117.412-.305.516-.089.048-.186.072-.282.072zm-2.578-2.937 1.991 1.276v-2.554z"/><path d="m34.902 175.291-3.665-2.351v4.702z"/><path d="m31.238 178.229c-.097 0-.193-.023-.281-.071-.188-.104-.306-.301-.306-.516v-4.701c0-.215.117-.412.306-.515.187-.104.417-.097.599.021l3.666 2.352c.168.107.27.294.27.493s-.102.386-.27.494l-3.666 2.351c-.098.06-.209.092-.318.092zm.586-4.215v2.555l1.992-1.277z"/><path d="m22.894 187.298 2.352-3.665h-4.703z"/><path d="m22.894 187.885c-.2 0-.386-.102-.494-.271l-2.351-3.664c-.116-.181-.124-.41-.021-.599.103-.188.3-.306.515-.306h4.704c.214 0 .411.116.515.306.103.188.095.418-.021.599l-2.353 3.664c-.108.169-.295.271-.494.271zm-1.278-3.665 1.278 1.991 1.278-1.991z"/><path d="m46.882 180.976v-11.973h3.379c1.042 0 1.963.229 2.763.69s1.417 1.115 1.85 1.965c.438.851.661 1.826.666 2.928v.765c0 1.129-.219 2.119-.658 2.969-.433.85-1.056 1.502-1.867 1.957-.806.455-1.746.688-2.82.699zm1.579-10.674v9.383h1.661c1.217 0 2.163-.379 2.837-1.135.68-.757 1.02-1.834 1.02-3.232v-.698c0-1.359-.321-2.415-.962-3.166-.636-.757-1.541-1.141-2.713-1.151h-1.843z"/><path d="m56.848 175.269h4.013v1.241h-4.013z"/><path d="m64.15 176.288v4.688h-1.579v-11.973h4.416c1.31 0 2.335.334 3.075 1.003.746.669 1.118 1.554 1.118 2.656 0 1.162-.364 2.059-1.093 2.688-.724.625-1.763.938-3.117.938zm0-1.291h2.837c.844 0 1.491-.197 1.94-.592.45-.4.674-.976.674-1.727 0-.713-.225-1.283-.674-1.711s-1.066-.649-1.85-.666h-2.927z"/><path d="m78.688 177.851h-5.016l-1.126 3.125h-1.628l4.572-11.973h1.381l4.58 11.973h-1.62zm-4.539-1.3h4.07l-2.04-5.6z"/><path d="m83.063 180.976v-11.973h3.379c1.042 0 1.962.229 2.763.69s1.417 1.115 1.851 1.965c.438.851.66 1.826.666 2.928v.765c0 1.129-.219 2.119-.658 2.969-.433.85-1.055 1.502-1.866 1.957-.806.455-1.746.688-2.821.699zm1.578-10.674v9.383h1.661c1.217 0 2.163-.379 2.837-1.135.68-.757 1.02-1.834 1.02-3.232v-.698c0-1.359-.321-2.415-.962-3.166-.636-.757-1.541-1.141-2.714-1.151h-1.842z"/></g><path d="m320.403 158.902h-54.826c-1.612 0-2.919 1.308-2.919 2.92v26.756c0 1.612 1.307 2.919 2.919 2.919h54.826c1.612 0 2.919-1.307 2.919-2.919v-26.756c0-1.612-1.307-2.92-2.919-2.92" fill="#f5f5f4"/><path d="m265.577 158.902v.245h54.826c1.477.003 2.671 1.198 2.674 2.675v26.756c-.003 1.477-1.197 2.671-2.674 2.674h-54.826c-1.477-.003-2.671-1.197-2.674-2.674v-26.756c.003-1.477 1.197-2.672 2.674-2.675v-.245-.245c-1.748 0-3.164 1.417-3.164 3.165v26.756c0 1.748 1.416 3.164 3.164 3.164h54.826c1.748 0 3.164-1.416 3.164-3.164v-26.756c0-1.748-1.416-3.165-3.164-3.165h-54.826z" fill="#35485c"/><path d="m309.452 177.851h-5.017l-1.126 3.125h-1.628l4.571-11.973h1.382l4.58 11.973h-1.62zm-4.539-1.3h4.07l-2.039-5.6z" fill="#35485c"/><path clip-path="url(#a)" d="m287.724 178.739c-2.166 0-3.923-1.757-3.923-3.923s1.757-3.922 3.923-3.922 3.922 1.756 3.922 3.922-1.756 3.923-3.922 3.923m-8.254-6.435c-2.166 0-3.922-1.756-3.922-3.923 0-2.165 1.756-3.922 3.922-3.922 2.167 0 3.922 1.757 3.922 3.922 0 2.167-1.755 3.923-3.922 3.923m-1.413 14.035c-2.166 0-3.922-1.757-3.922-3.923s1.756-3.922 3.922-3.922 3.922 1.756 3.922 3.922-1.756 3.923-3.922 3.923m-8.153-6.6c-2.166 0-3.922-1.755-3.922-3.923 0-2.165 1.756-3.921 3.922-3.921 2.167 0 3.923 1.756 3.923 3.921 0 2.168-1.756 3.923-3.923 3.923m8.907-18.586c-7.829 0-14.176 6.347-14.176 14.176s6.347 14.176 14.176 14.176 14.176-6.347 14.176-14.176-6.347-14.176-14.176-14.176" fill="#35485c"/><path clip-path="url(#a)" d="m280.831 182.416c0 1.531-1.242 2.773-2.773 2.773-1.532 0-2.773-1.242-2.773-2.773s1.241-2.773 2.773-2.773c1.531 0 2.773 1.242 2.773 2.773" fill="#35485c"/><path clip-path="url(#a)" d="m272.825 175.817c0 1.613-1.308 2.922-2.921 2.922s-2.921-1.309-2.921-2.922 1.308-2.922 2.921-2.922 2.921 1.309 2.921 2.922" fill="#35485c"/><path clip-path="url(#a)" d="m282.239 168.461c0 1.531-1.242 2.773-2.773 2.773-1.532 0-2.773-1.242-2.773-2.773 0-1.532 1.241-2.773 2.773-2.773 1.531 0 2.773 1.241 2.773 2.773" fill="#35485c"/><path d="m255 158.902h-54.827c-1.612 0-2.919 1.308-2.919 2.92v26.756c0 1.612 1.307 2.919 2.919 2.919h54.827c1.612 0 2.919-1.307 2.919-2.919v-26.756c0-1.612-1.307-2.92-2.919-2.92" fill="#f5f5f4"/><path d="m200.173 158.902v.245h54.827c1.477.003 2.671 1.198 2.674 2.675v26.756c-.003 1.477-1.197 2.671-2.674 2.674h-54.827c-1.477-.003-2.671-1.197-2.674-2.674v-26.756c.003-1.477 1.197-2.672 2.674-2.675v-.245-.245c-1.748 0-3.164 1.417-3.164 3.165v26.756c0 1.748 1.416 3.164 3.164 3.164h54.827c1.748 0 3.164-1.416 3.164-3.164v-26.756c0-1.748-1.416-3.165-3.164-3.165h-54.827z" fill="#35485c"/><path d="m237.436 180.976v-11.973h3.915c1.299 0 2.274.269 2.927.806.658.537.987 1.332.987 2.385 0 .559-.159 1.055-.478 1.488-.317.428-.751.759-1.299.995.646.181 1.156.526 1.529 1.036.378.504.567 1.107.567 1.809 0 1.074-.349 1.919-1.044 2.532-.696.614-1.681.922-2.952.922zm1.579-5.601v4.31h2.606c.735 0 1.313-.189 1.735-.567.428-.384.642-.91.642-1.579 0-1.441-.784-2.163-2.352-2.163h-2.631zm0-1.266h2.385c.69 0 1.241-.173 1.653-.519.416-.345.624-.813.624-1.406 0-.657-.191-1.135-.575-1.431-.384-.302-.968-.452-1.751-.452h-2.336z" fill="#35485c"/><path clip-path="url(#b)" d="m222.32 178.739c-2.212 0-4.006-1.794-4.006-4.007 0-2.212 1.794-4.005 4.006-4.005 2.213 0 4.006 1.793 4.006 4.005 0 2.213-1.793 4.007-4.006 4.007m-8.43-6.572c-2.212 0-4.006-1.794-4.006-4.007 0-2.212 1.794-4.006 4.006-4.006 2.213 0 4.006 1.794 4.006 4.006 0 2.213-1.793 4.007-4.006 4.007m-1.443 14.334c-2.212 0-4.005-1.794-4.005-4.006 0-2.213 1.793-4.006 4.005-4.006s4.006 1.793 4.006 4.006c0 2.212-1.794 4.006-4.006 4.006m-8.326-6.74c-2.213 0-4.006-1.793-4.006-4.006 0-2.212 1.793-4.005 4.006-4.005 2.212 0 4.006 1.793 4.006 4.005 0 2.213-1.794 4.006-4.006 4.006m9.097-18.983c-7.996 0-14.478 6.481-14.478 14.479 0 7.996 6.481 14.478 14.478 14.478s14.479-6.481 14.479-14.478c-.001-7.997-6.483-14.479-14.479-14.479" fill="#35485c"/><path clip-path="url(#b)" d="m225.18 174.732c0 1.58-1.28 2.86-2.86 2.86s-2.86-1.28-2.86-2.86c0-1.579 1.28-2.859 2.86-2.859s2.86 1.28 2.86 2.859" fill="#35485c"/><path clip-path="url(#b)" d="m207.104 175.755c0 1.647-1.337 2.984-2.984 2.984s-2.983-1.337-2.983-2.984 1.336-2.983 2.983-2.983 2.984 1.335 2.984 2.983" fill="#35485c"/><path clip-path="url(#b)" d="m216.719 168.241c0 1.564-1.269 2.833-2.833 2.833s-2.832-1.269-2.832-2.833 1.268-2.832 2.832-2.832 2.833 1.268 2.833 2.832" fill="#35485c"/><path d="m265.402.309h-90.441c-1.605 0-2.908 1.302-2.908 2.908v26.652c0 1.606 1.303 2.908 2.908 2.908h90.441c1.606 0 2.908-1.302 2.908-2.908v-26.653c0-1.606-1.301-2.907-2.908-2.907" fill="#f5f5f4"/><path d="m174.961.309v.308h90.441c1.436.003 2.597 1.164 2.6 2.6v26.652c-.003 1.436-1.164 2.597-2.6 2.6h-90.441c-1.435-.003-2.597-1.164-2.6-2.6v-26.653c.003-1.436 1.165-2.597 2.6-2.6v-.307-.309c-1.776 0-3.216 1.439-3.216 3.216v26.652c0 1.776 1.441 3.216 3.216 3.216h90.441c1.777 0 3.216-1.44 3.216-3.216v-26.652c0-1.776-1.44-3.216-3.216-3.216h-90.441z" fill="#35485c"/><path d="m199.379 14.038h1.108v-4.685h1.976v-.871h-5.059v.871h1.976zm-6.717-3.064v-1.621h1.913c.582 0 .944.225.944.801 0 .623-.333.82-.944.82zm-1.106 3.064h1.105v-2.194h1.883c.812 0 .916.561.916 1.353 0 .405.052.686.134.841h1.196c-.217-.305-.224-.924-.224-1.192 0-.785-.139-1.361-.766-1.499v-.017c.495-.163.869-.614.869-1.339 0-.862-.434-1.506-1.777-1.506h-3.335zm-6.849 0h1.196l.545-1.377h2.48l.553 1.377h1.236l-2.348-5.556h-1.313zm2.074-2.248.915-2.345.9 2.345zm-5.188 2.248h1.105v-4.685h1.979v-.871h-5.063v.871h1.979zm-7.558-3.994c0 2.279 3.882 1.079 3.882 2.458 0 .61-.627.82-1.298.82-.909 0-1.482-.352-1.514-1.084h-1.194c.016 1.168.774 1.956 2.674 1.956 1.121 0 2.528-.375 2.528-1.808 0-2.373-3.926-1.121-3.926-2.426 0-.521.487-.762 1.225-.762.922 0 1.292.465 1.33.895h1.196c-.143-1.614-1.766-1.767-2.579-1.767-1.284 0-2.324.481-2.324 1.718" fill="#35485c"/><path d="m199.496 16.79h-22.642c-1.637 0-2.964 1.366-2.964 3.05s1.327 3.05 2.964 3.05h22.642c1.637 0 2.963-1.365 2.963-3.05s-1.326-3.05-2.963-3.05z" fill="#35485c"/><path d="m215.7 16.981c-1.354-.389-2.34-.866-2.96-1.431-.613-.57-.921-1.271-.921-2.105 0-.943.376-1.721 1.127-2.335.756-.619 1.737-.929 2.943-.929.822 0 1.555.159 2.195.477.647.318 1.146.756 1.497 1.316.356.559.534 1.17.534 1.833h-1.587c0-.724-.23-1.291-.69-1.702-.461-.417-1.11-.625-1.949-.625-.778 0-1.387.173-1.825.518-.434.34-.649.814-.649 1.423 0 .488.205.901.616 1.241.417.334 1.121.642 2.113.921.998.279 1.776.589 2.336.929.564.334.98.726 1.249 1.176.274.449.411.979.411 1.587 0 .97-.378 1.749-1.135 2.335-.756.581-1.768.872-3.034.872-.822 0-1.59-.156-2.302-.469-.713-.318-1.264-.751-1.653-1.299-.384-.548-.575-1.17-.575-1.867h1.587c0 .724.266 1.296.798 1.719.537.417 1.252.625 2.146.625.834 0 1.473-.17 1.916-.51.444-.34.666-.803.666-1.39s-.205-1.039-.616-1.357c-.412-.322-1.158-.641-2.238-.953z" fill="#35485c"/><path d="m230.444 11.645h-3.849v10.673h-1.57v-10.673h-3.84v-1.3h9.259z" fill="#35485c"/><path d="m238.19 19.193h-5.017l-1.126 3.125h-1.628l4.571-11.973h1.382l4.58 11.973h-1.62zm-4.539-1.299h4.07l-2.039-5.6z" fill="#35485c"/><path d="m246.956 17.475h-2.813v4.843h-1.587v-11.973h3.963c1.349 0 2.385.307 3.108.921.729.614 1.094 1.508 1.094 2.681 0 .746-.203 1.396-.608 1.949-.4.553-.959.967-1.678 1.241l2.813 5.082v.099h-1.694zm-2.813-1.291h2.426c.784 0 1.406-.203 1.866-.608.466-.406.699-.949.699-1.628 0-.74-.222-1.307-.666-1.702-.438-.395-1.074-.595-1.907-.6h-2.418z" fill="#35485c"/><path d="m260.54 11.645h-3.849v10.673h-1.57v-10.673h-3.84v-1.3h9.259z" fill="#35485c"/><path d="m159.969.641h-98.262c-1.428.003-2.583 1.158-2.585 2.586v26.632c.002 1.428 1.157 2.583 2.585 2.585h98.262c1.428-.002 2.583-1.157 2.585-2.585v-26.632c-.002-1.428-1.157-2.584-2.585-2.586" fill="#f5f5f4"/><path d="m61.707.32v.32h98.262c1.428.003 2.583 1.158 2.585 2.586v26.632c-.003 1.428-1.158 2.583-2.585 2.585h-98.262c-1.428-.002-2.583-1.157-2.585-2.585v-26.631c.002-1.428 1.158-2.583 2.585-2.586v-.321-.32c-1.782 0-3.226 1.445-3.226 3.227v26.632c0 1.782 1.444 3.226 3.226 3.226h98.262c1.782 0 3.226-1.444 3.226-3.226v-26.632c0-1.782-1.444-3.226-3.226-3.227h-98.262z" fill="#35485c"/><path d="m85.528 16.732h-22.173c-1.602 0-2.903 1.337-2.903 2.987s1.3 2.987 2.903 2.987h22.173c1.603 0 2.902-1.337 2.902-2.987-.001-1.65-1.299-2.987-2.902-2.987" fill="#35485c"/><path d="m85.935 14.038h.896v-4.586h1.604v-.853h-4.102v.852h1.603v4.587m-2.191-3.429c-.095-1.173-.862-2.162-2.331-2.162-1.68 0-2.387 1.338-2.387 2.872 0 1.529.739 2.872 2.281 2.872 1.757 0 2.312-1.148 2.437-2.233h-.966c-.075.571-.385 1.38-1.316 1.38-.887 0-1.501-.787-1.501-1.922 0-1.417.614-2.12 1.441-2.12.754 0 1.286.487 1.376 1.311zm-9.207 3.429h3.754v-.853h-2.858v-1.508h2.697v-.852h-2.697v-1.373h2.809v-.853h-3.704zm-4.288 0h3.492v-.897h-2.595v-4.542h-.897zm-4.73 0h3.755v-.853h-2.858v-1.508h2.697v-.852h-2.697v-1.373h2.813v-.853h-3.71zm-4.955-3.909c0 2.231 3.145 1.055 3.145 2.405 0 .598-.508.803-1.053.803-.737 0-1.201-.344-1.226-1.063h-.968c.012 1.144.627 1.914 2.165 1.914.91 0 2.05-.366 2.05-1.769 0-2.323-3.18-1.098-3.18-2.375 0-.511.395-.748.991-.748.747 0 1.047.457 1.078.878h.969c-.115-1.578-1.431-1.728-2.089-1.728-1.039.001-1.882.472-1.882 1.683" fill="#35485c"/><path d="m88.354 19.04v1.357c.049-.218.075-.445.075-.678 0-.234-.026-.461-.075-.679m-27.826-.001c-.049.218-.076.446-.076.68 0 .234.026.462.076.68z" fill="#35485c"/><path d="m60.528 12.275h-.064c.002.202.023.392.064.569zm27.901-3.676h-.075v.852h.075z" fill="#35485c"/><path d="m102.436 16.981c-1.354-.389-2.341-.866-2.96-1.431-.614-.57-.921-1.271-.921-2.105 0-.943.375-1.721 1.126-2.335.756-.619 1.738-.929 2.944-.929.822 0 1.554.159 2.195.477.647.318 1.146.756 1.497 1.316.356.559.534 1.17.534 1.833h-1.587c0-.724-.23-1.291-.69-1.702-.46-.417-1.11-.625-1.949-.625-.779 0-1.387.173-1.826.518-.433.34-.649.814-.649 1.423 0 .488.206.901.617 1.241.417.334 1.121.642 2.113.921.998.28 1.776.589 2.335.929.565.334.981.727 1.25 1.176.274.449.411.979.411 1.587 0 .97-.378 1.749-1.135 2.335-.756.581-1.768.872-3.034.872-.822 0-1.59-.156-2.302-.469-.713-.318-1.264-.751-1.653-1.299-.384-.548-.576-1.17-.576-1.867h1.587c0 .724.266 1.296.798 1.719.537.417 1.252.625 2.146.625.833 0 1.472-.17 1.916-.51s.666-.803.666-1.39-.206-1.039-.617-1.357c-.41-.322-1.156-.641-2.236-.953z" fill="#35485c"/><path d="m115.675 16.784h-5.188v4.243h6.027v1.291h-7.606v-11.973h7.524v1.3h-5.945v3.848h5.188z" fill="#35485c"/><path d="m120.066 21.027h5.674v1.291h-7.261v-11.973h1.587z" fill="#35485c"/><path d="m134.324 16.784h-5.188v4.243h6.027v1.291h-7.606v-11.973h7.524v1.3h-5.945v3.848h5.188z" fill="#35485c"/><path d="m145.935 18.519c-.148 1.266-.617 2.245-1.406 2.936-.784.685-1.828 1.028-3.133 1.028-1.415 0-2.549-.507-3.404-1.521-.85-1.014-1.274-2.371-1.274-4.07v-1.151c0-1.113.197-2.091.592-2.936.4-.844.965-1.491 1.694-1.94.729-.455 1.574-.683 2.533-.683 1.272 0 2.292.356 3.059 1.069.768.707 1.214 1.688 1.34 2.944h-1.587c-.137-.954-.436-1.645-.896-2.072-.455-.428-1.094-.642-1.916-.642-1.008 0-1.801.373-2.376 1.118-.57.746-.855 1.807-.855 3.183v1.159c0 1.299.271 2.333.814 3.1.543.768 1.302 1.151 2.278 1.151.877 0 1.549-.198 2.015-.592.471-.4.784-1.094.938-2.08h1.584z" fill="#35485c"/><path d="m156.123 11.645h-3.848v10.673h-1.571v-10.673h-3.839v-1.3h9.258z" fill="#35485c"/><path d="m288.005 132.356.051 26.782" fill="#1a1919"/><path d="m250.028 132.356.053 26.727" fill="#1a1919"/><path d="m49.593 121.116.052 37.968" fill="#1a1919"/><path d="m147.478 33.024.053 98.869" fill="#1a1919"/><path d="m188.236 32.777.053 98.868" fill="#1a1919"/><path d="m250.054 130.502c1.047 0 1.896.83 1.896 1.854s-.849 1.854-1.896 1.854c-1.046 0-1.895-.83-1.895-1.854s.85-1.854 1.895-1.854z" fill="#b3bab7"/><path d="m288.03 130.584c1.047 0 1.896.83 1.896 1.854s-.849 1.854-1.896 1.854c-1.046 0-1.895-.83-1.895-1.854s.849-1.854 1.895-1.854z" fill="#b3bab7"/><ellipse cx="188.262" cy="132.029" fill="#b3bab7" rx="1.896" ry="1.854"/><path d="m147.586 130.093c1.047 0 1.896.83 1.896 1.854s-.849 1.854-1.896 1.854c-1.046 0-1.895-.83-1.895-1.854s.848-1.854 1.895-1.854z" fill="#b3bab7"/><ellipse cx="49.7" cy="120.571" fill="#b3bab7" rx="1.895" ry="1.854"/><path d="m287.71 132.357.052 26.781.589-.001-.052-26.781" fill="#b3bab7"/><path d="m249.734 132.357.053 26.727.588-.002-.053-26.726" fill="#b3bab7"/><path d="m49.243 121.117.052 37.967.7-.001-.053-37.967" fill="#b3bab7"/><path d="m146.912 33.025.053 98.868 1.131-.001-.053-98.868" fill="#b3bab7"/><path d="m187.671 32.777.052 98.868 1.131-.001-.052-98.867" fill="#b3bab7"/></svg>
