<svg enable-background="new 0 0 154.673 330.522" viewBox="0 0 154.673 330.522" xmlns="http://www.w3.org/2000/svg"><path d="m7.386 330.522c-4.063 0-7.386-3.324-7.386-7.387v-315.749c0-4.063 3.323-7.386 7.386-7.386h119.56c4.064 0 7.758 3.303 8.211 7.341l17.278 153.811c.453 4.039.439 10.643-.033 14.678l-17.213 147.355c-.47 4.035-4.18 7.338-8.243 7.338h-119.56z" fill="#262626"/><path d="m8.976 324.519c-3.915 0-7.118-3.201-7.118-7.117v-304.284c0-3.914 3.203-7.117 7.118-7.117h115.22c3.914 0 7.475 3.183 7.91 7.072l.419 148.227c.437 3.893.422 10.256-.032 14.144l-.355 142.006c-.453 3.889-4.027 7.068-7.941 7.068h-115.221z" fill="#333"/><path d="m45.854 80.155c-16.933 0-30.658-13.727-30.658-30.66s13.726-30.66 30.658-30.66c16.934 0 30.659 13.727 30.659 30.66s-13.726 30.66-30.659 30.66z" fill="#404040"/><path d="m9.693 90.939v-14.772c0-5.061.422-6.768 2.722-6.768 2.218 0 3.042 2.145 6.501 5.385 7.185 6.734 16.313 11.663 26.938 11.663 20.408 0 36.951-16.544 36.951-36.952 0-9.716-4.432-17.518-4.432-17.518-1.822-3.533-.803-6.127 3.261-6.127h33.31c4.063 0 7.387 3.324 7.387 7.387v64.627c0 4.063-2.805 7.386-6.232 7.386-3.428 0-6.387 0-6.387 0-34.671 0-63.025 28.108-63.025 62.78s27.801 62.779 62.473 62.779h6.479c3.681 0 6.693 3.324 6.693 7.387v61.859c0 4.06-3.323 7.385-7.387 7.385h-67.004c-3.945 2.822-8.779 4.482-14.033 4.482-13.494 0-24.215-10.889-24.215-24.381z" fill="#080a00"/><path d="m17.971 287.86c0-8.66 7.019-15.706 15.646-15.706 8.596 0 15.588 7.046 15.588 15.706s-6.993 15.706-15.588 15.706c-8.627 0-15.646-7.045-15.646-15.706zm26.618 0c0-6.115-4.922-11.09-10.972-11.09-6.082 0-11.03 4.975-11.03 11.09s4.948 11.09 11.03 11.09c6.05 0 10.972-4.974 10.972-11.09z" fill="#333"/><path d="m20.279 287.86c0 7.4 5.938 13.398 13.338 13.398s13.28-5.998 13.28-13.398-5.88-13.398-13.28-13.398c-7.399 0-13.338 5.998-13.338 13.398z" fill="#4d4d4d"/><path d="m27.236 196.188v-15.695c0-3.824 3.1-6.924 6.924-6.924s6.924 3.1 6.924 6.924v15.695c0 3.824-3.1 6.925-6.924 6.925s-6.924-3.1-6.924-6.925z" fill="#333"/><path d="m29.544 196.188v-15.695c0-2.549 2.067-4.615 4.616-4.615s4.616 2.066 4.616 4.615v15.695c0 2.55-2.067 4.617-4.616 4.617-2.549.001-4.616-2.067-4.616-4.617z" fill="#4d4d4d"/><path d="m27.236 155.655v-15.695c0-3.824 3.1-6.924 6.924-6.924s6.924 3.1 6.924 6.924v15.695c0 3.824-3.1 6.924-6.924 6.924s-6.924-3.1-6.924-6.924z" fill="#333"/><path d="m29.544 155.655v-15.695c0-2.549 2.067-4.615 4.616-4.615s4.616 2.066 4.616 4.615v15.695c0 2.549-2.067 4.616-4.616 4.616s-4.616-2.067-4.616-4.616z" fill="#4d4d4d"/><path clip-rule="evenodd" d="m111.146 39.31 5.377-4.487-2.331-2.039-.895.979-6.471-1.17 1.029 2.346 1.121-1.21 3.422.671-5.449 4.729 7.432 1.633 1 1.652 1.215-1.998zm4.475 3.955c-.16.142-.363.317-.582.277l-2.906-.551c-.226-.044-.391-.246-.505-.404-.113-.158-.144-.352-.175-.546-.064.168-.131.335-.252.448-.123.113-.295.267-.479.226l-2.83-.631c-.261-.061-.425-.326-.568-.514-.141-.19-.213-.406-.285-.621v7.551l2.832.532c-.588-.29-1.176-.581-1.553-1.075-.377-.498-.708-1.175-.708-1.894v-1.383l3.504.691c.087.25.077.535-.048.79-.123.256-.363.484-.624.689s-.542.385-.841.528l3.686.724c-.27-.247-.516-.523-.736-.818-.221-.298-.418-.614-.516-.912-.098-.297-.098-.574-.021-.83l3.449.715.012 1.114c.005.503.065 1.007-.268 1.413-.334.408-1.032.721-1.731 1.029l2.525.551v-7.676c-.11.217-.22.433-.38.577zm-.885 9.047c-.482-.563-1.121-1.074-1.818-1.412-.697-.34-1.455-.512-2.146-.52-.695-.008-1.326.145-1.904.427-.58.285-1.107.695-1.461 1.204-.358.511-.543 1.116-.629 1.672-.085.557-.07 1.062-.014 1.464.057.4.152.695.302.965l3.311 1.594c-.194-.413-.37-.833-.55-1.269-.18-.435-.361-.886-.42-1.364-.057-.479.01-.983.277-1.434.266-.449.732-.842 1.257-1.045.521-.205 1.101-.217 1.624-.076.521.143.987.443 1.396.811.408.363.758.793.988 1.192.232.399.344.768.371 1.144l-1.732 1.204.517 1.385 2.375-.972c.009-.271-.001-.547-.036-.874-.035-.325-.096-.7-.196-1.092-.099-.391-.239-.795-.473-1.308-.232-.512-.558-1.132-1.039-1.696z" fill="#0084a6" fill-rule="evenodd"/><path d="m56.143 257.401c0 4.209 3.343 7.619 7.551 7.619s7.552-3.41 7.552-7.619v-13.938c0-4.209-3.344-7.619-7.552-7.619s-7.585 3.41-7.585 7.619z" fill="#0084a6"/><g fill="#333"><path d="m83.386 243.142c-3.33 0-6.028 2.646-6.028 5.976 0 3.329 2.699 5.976 6.028 5.976h17.028c3.329 0 6.028-2.646 6.028-5.976s-2.699-6.001-6.028-6.001z"/><path d="m101.728 237.802c0-1.082-.858-1.958-1.94-1.958s-1.941.876-1.941 1.958v5.533c0 1.082.859 1.959 1.941 1.959s1.949-.877 1.949-1.959z"/><path d="m85.946 237.802c0-1.082-.858-1.958-1.94-1.958s-1.941.876-1.941 1.958v5.533c0 1.082.859 1.959 1.941 1.959s1.949-.877 1.949-1.959z"/><path d="m93.837 237.802c0-1.082-.859-1.958-1.941-1.958-1.081 0-1.941.876-1.941 1.958v5.533c0 1.082.86 1.959 1.941 1.959 1.082 0 1.95-.877 1.95-1.959z"/><path d="m83.386 295.152c-3.33 0-6.028-2.645-6.028-5.975 0-3.328 2.699-5.975 6.028-5.975h17.028c3.329 0 6.028 2.646 6.028 5.975 0 3.33-2.699 6.002-6.028 6.002z"/><path d="m101.728 300.492c0 1.082-.858 1.958-1.94 1.958s-1.941-.876-1.941-1.958v-5.532c0-1.082.859-1.959 1.941-1.959s1.949.877 1.949 1.959z"/><path d="m85.946 300.492c0 1.082-.858 1.958-1.94 1.958s-1.941-.876-1.941-1.958v-5.532c0-1.082.859-1.959 1.941-1.959s1.949.877 1.949 1.959z"/><path d="m93.837 300.492c0 1.082-.859 1.958-1.941 1.958-1.081 0-1.941-.876-1.941-1.958v-5.532c0-1.082.86-1.959 1.941-1.959 1.082 0 1.95.877 1.95 1.959z"/></g><path d="m56.143 294.831c0 4.209 3.343 7.619 7.551 7.619s7.552-3.41 7.552-7.619v-13.938c0-4.207-3.344-7.619-7.552-7.619s-7.585 3.412-7.585 7.619z" fill="#0084a6"/><path d="m17.971 250.433c0-8.66 7.019-15.707 15.646-15.707 8.596 0 15.588 7.047 15.588 15.707s-6.993 15.706-15.588 15.706c-8.627 0-15.646-7.046-15.646-15.706zm26.618 0c0-6.115-4.922-11.091-10.972-11.091-6.082 0-11.03 4.976-11.03 11.091s4.948 11.09 11.03 11.09c6.05-.001 10.972-4.975 10.972-11.09z" fill="#333"/><path d="m20.279 250.433c0 7.4 5.938 13.399 13.338 13.399s13.28-5.998 13.28-13.399c0-7.398-5.88-13.398-13.28-13.398-7.399-.001-13.338 5.999-13.338 13.398z" fill="#4d4d4d"/><path d="m154.673 124.177c0-1.524-1.246-2.771-2.77-2.771h-45.48c-26.195 0-47.5 20.89-47.5 47.085 0 26.197 21.166 47.086 47.361 47.086h45.619c1.523 0 2.77-1.246 2.77-2.77z" fill="#262626"/><path d="m75.812 57.844c.531 0 1.052-.426 1.155-.945 0 0 .916-2.867.916-7.403 0-4.341-.914-7.402-.914-7.402-.106-.52-.626-.945-1.157-.945h-20.646c-.531 0-.965-.434-.965-.965v-20.647c0-.531-.425-1.052-.944-1.155 0 0-2.899-.916-7.403-.916-3.838 0-7.402.916-7.402.916-.52.104-.945.624-.945 1.155v20.645c0 .531-.434.965-.965.965h-20.646c-.531 0-1.052.426-1.156.945 0 0-.914 2.526-.914 7.402 0 4.964.915 7.403.915 7.403.103.52.624.945 1.155.945h20.645c.531 0 .965.435.965.964v20.646c0 .53.426 1.051.945 1.154 0 0 2.494.916 7.402.916 5.166 0 7.403-.916 7.403-.916.52-.104.944-.624.944-1.154v-20.644c0-.529.434-.964.965-.964z" fill="#4d4d4d"/><path d="m45.854 56.542c-3.893 0-7.047-3.154-7.047-7.047s3.154-7.049 7.047-7.049c3.894 0 7.049 3.156 7.049 7.049s-3.156 7.047-7.049 7.047z" fill="#262626"/><path d="m69.347 98.495c0 .621.434.864.965.539 0 0 1.43-.877 2.584-1.697.852-.605 1.618-1.211 1.618-1.211.487-.386.886-1.21.886-1.832v-14.789c0-.622-.36-.771-.8-.332 0 0-.861.858-1.743 1.633-1.117.979-2.601 2.08-2.601 2.08-.499.371-.909 1.183-.909 1.805zm13.721-11.035c.378-.494.687-1.408.687-2.029v-18.702c0-.622-.211-.667-.469-.101 0 0-1.12 2.463-2.086 4.105-.967 1.641-2.553 3.786-2.553 3.786-.369.5-.671 1.418-.671 2.04v15.472c0 .622.36.771.801.333 0 0 1.243-1.236 2.207-2.336.964-1.101 2.084-2.568 2.084-2.568zm-28.897 17.727c.613-.105 1.114-.699 1.114-1.322v-12.876c0-.621-.499-1.029-1.108-.906 0 0-2.419.486-4.239.666-1.311.131-2.639.197-3.984.197-1.145 0-2.292-.073-2.292-.073-.62-.04-1.128.437-1.128 1.058v12.77c0 .621.508 1.154 1.129 1.185 0 0 1.154.056 2.291.056 1.172 0 2.344-.045 3.512-.133 1.953-.15 4.705-.622 4.705-.622zm-33.152-22.811c-.51-.357-.926-.141-.929.48l-.036 14.425c-.001.621.413 1.423.922 1.78 0 0 4.182 2.945 7.827 4.188 3.361 1.147 10.04 2.196 10.04 2.196.615.096 1.116-.334 1.116-.956v-12.865c0-.622-.497-1.237-1.105-1.368 0 0-5.691-1.22-8.878-2.571-3.543-1.499-8.957-5.309-8.957-5.309zm38.151 6.358c-.587.203-1.068.878-1.068 1.5v12.956c0 .621.487.984 1.083.805 0 0 2.17-.65 3.757-1.271 1.298-.51 2.811-1.223 2.811-1.223.562-.266 1.021-.992 1.021-1.613v-13.53c0-.623-.444-.883-.987-.581 0 0-1.769.985-3.215 1.634-1.448.649-3.402 1.323-3.402 1.323z" fill="#0084a6"/><path d="m86.961 80.767c2.463-4.322 3.848-7.03 5.178-12.461 1.272-5.19 1.977-10.897 1.977-17.092.037-.62.077-1.646.077-2.27v-15.442c0-.622-.509-1.131-1.13-1.131h-5.459c-.622 0-1.13.509-1.13 1.131l-.002 47.153c-.001.621.22.672.489.112z" fill="#0084a6"/><path d="m99.791 263.26c-1.214 0-2.198-.984-2.198-2.198 0-1.215.984-2.199 2.198-2.199s2.199.984 2.199 2.199c0 1.213-.985 2.198-2.199 2.198z" fill="#0084a6"/><path d="m83.352 255.083c-3.307 0-5.988-2.682-5.988-5.99 0-3.307 2.682-5.988 5.988-5.988 3.308 0 5.99 2.682 5.99 5.988-.001 3.308-2.682 5.99-5.99 5.99z" fill="#4d4d4d"/><path d="m83.352 295.149c-3.307 0-5.988-2.682-5.988-5.99 0-3.307 2.682-5.988 5.988-5.988 3.308 0 5.99 2.682 5.99 5.988-.001 3.309-2.682 5.99-5.99 5.99z" fill="#4d4d4d"/><path d="m99.791 271.657c-1.214 0-2.198-.984-2.198-2.199 0-1.214.984-2.198 2.198-2.198s2.199.984 2.199 2.198c0 1.215-.985 2.199-2.199 2.199z" fill="#0084a6"/><path d="m99.791 280.054c-1.214 0-2.198-.984-2.198-2.199 0-1.213.984-2.197 2.198-2.197s2.199.984 2.199 2.197c0 1.214-.985 2.199-2.199 2.199z" fill="#0084a6"/><path d="m91.9 267.458c-1.214 0-2.198-.984-2.198-2.198s.984-2.198 2.198-2.198 2.199.984 2.199 2.198-.985 2.198-2.199 2.198z" fill="#0084a6"/><path d="m91.9 275.855c-1.214 0-2.198-.984-2.198-2.198 0-1.215.984-2.199 2.198-2.199s2.199.984 2.199 2.199c0 1.214-.985 2.198-2.199 2.198z" fill="#0084a6"/><path d="m84.009 271.657c-1.214 0-2.198-.984-2.198-2.199 0-1.214.984-2.198 2.198-2.198s2.199.984 2.199 2.198c-.001 1.215-.985 2.199-2.199 2.199z" fill="#0084a6"/></svg>