<svg enable-background="new 0 0 138.008 53.128" viewBox="0 0 138.008 53.128" xmlns="http://www.w3.org/2000/svg"><g fill="#0084a6"><path d="m44.717.149 4.885 5.447c-.005 2.186.009 4.371.005 6.556-2.324.004-4.649.007-6.974.015-.004-1.575-.003-3.147-.009-4.72-1.839.001-3.678.008-5.515.008.001 2.587.001 5.17.015 7.757.551-.001 1.102.011 1.654.013 0 2.314.014 4.628.006 6.941-1.34-.009-2.68.007-4.022.002-.15.007-.24-.148-.344-.236-1.601-1.667-3.245-3.3-4.827-4.985-.036-3.703-.015-7.409-.033-11.116l4.973-5.658z"/><path d="m52.261 32.959c-.027-10.942-.039-21.883-.059-32.823 2.494-.004 4.987-.009 7.482-.013.02 10.437.03 20.876.058 31.314.695-.005 1.391-.014 2.086.001-.002 2.369.004 4.736.012 7.103-1.271.028-2.543.012-3.814.019-.15.024-.266-.057-.358-.162z"/><path d="m65.648.113c2.494-.004 4.988-.009 7.481-.013.012 10.949.054 21.901.046 32.849-1.786 1.889-3.643 3.713-5.449 5.582-1.326.006-2.648.006-3.975.008-.006-2.361-.012-4.724-.01-7.086.652-.007 1.307-.005 1.961-.004-.015-10.447-.036-20.892-.054-31.336z"/><path d="m75.559.096c2.494-.004 4.986-.009 7.48-.013.022 12.809.044 25.613.066 38.422-2.494.004-4.986.009-7.48.013-.022-12.809-.044-25.614-.066-38.422z"/><path d="m90.403.072c1.813 1.801 3.652 3.58 5.46 5.383l.025 14.59c-1.802 1.81-3.633 3.594-5.442 5.401-1.78.007-3.562.008-5.343.012-.004-2.427-.008-4.853-.013-7.281 1.08-.002 2.158-.004 3.238-.006-.006-3.605-.012-7.211-.019-10.817-1.08.002-2.158.004-3.238.006-.004-2.428-.008-4.854-.013-7.28z"/><path d="m98.308.057c5.493-.009 10.987-.019 16.479-.028.004 2.427.008 4.852.013 7.28-2.999.005-5.997.01-8.998.015.014 7.952.027 15.908.041 23.861 3.001-.005 5.999-.01 8.998-.015.004 2.428.008 4.853.013 7.28-5.492.009-10.986.019-16.479.028-.023-12.808-.045-25.613-.067-38.421z"/><path d="m117.314.024c2.496-.004 4.988-.009 7.483-.013.022 12.809.044 25.613.066 38.422-2.495.004-4.987.009-7.483.013-.022-12.809-.044-25.613-.066-38.422z"/><path d="m133.445 19.324c1.496 1.525 3.047 3.003 4.524 4.544.041 4.848.021 9.696.039 14.543-2.528.004-5.056.009-7.582.013-.009-5.122-.018-10.246-.026-15.368-1.249.002-2.495.004-3.741.006-.004-2.427-.008-4.853-.013-7.28 1.246-.002 2.492-.004 3.741-.006-.005-2.831-.01-5.663-.015-8.493-1.249.002-2.495.004-3.741.006-.004-2.428-.008-4.854-.013-7.28l5.847-.009 5.486 5.551c.01 3.001.008 6.003.017 9.004z"/><path d="m107.836 14.6 5.46-.009c.004 2.428.008 4.853.013 7.281-1.82.003-3.64.006-5.46.009-.004-2.427-.008-4.853-.013-7.281z"/><path d="m44.657 38.564-10.183.024-4.886-5.446c.004-2.188-.01-4.372-.005-6.56 2.324-.002 4.649-.005 6.973-.012.007 1.574.005 3.147.012 4.721 1.837-.002 3.676-.01 5.514-.007l-.018-9.074c-.416.001-.834 0-1.249-.014-.003-2.313-.015-4.625-.007-6.939 1.205.008 2.41-.007 3.614.001.13-.016.208.111.296.182 1.593 1.643 3.191 3.277 4.785 4.917.087.081.121.18.105.301.007 4.084.012 8.168.021 12.25z"/><path d="m58.359 53.108c-3.809.007-7.617.013-11.428.02-.749.008-1.523-.231-2.07-.757-.366-.35-.58-.848-.561-1.355-.002-2.264-.012-4.526-.008-6.789-.006-.816.628-1.492 1.355-1.779.524-.233 1.107-.253 1.67-.243 3.674-.003 7.349-.013 11.021-.017.001.672.002 1.348.003 2.021-3.843.007-7.684.013-11.527.02.004 2.291.008 4.584.012 6.875 3.001-.005 6-.01 9-.015-.001-.809-.003-1.617-.004-2.427-1.449.002-2.9.005-4.348.007-.001-.675-.002-1.348-.003-2.02 2.291-.004 4.583-.008 6.875-.012z"/><path d="m60.767 42.184c3.675-.006 7.351-.013 11.026-.019.928-.011 1.947.373 2.416 1.218.27.455.203 1.001.212 1.508-.011.636.026 1.274-.013 1.91-.079.77-.715 1.356-1.406 1.62-.741.305-1.553.192-2.332.216l3.967 4.438-3.129.011c-1.327-1.48-2.654-2.957-3.974-4.444l-4.228.007.008 4.45-2.527.004zm2.53 2.017c.001.808.003 1.619.004 2.428 2.864-.005 5.729-.01 8.595-.015-.001-.809-.003-1.62-.004-2.428-2.865.005-5.73.01-8.595.015z"/><path d="m88.591 53.056c-1.466-2.961-2.942-5.916-4.396-8.882l-1.148.002c-1.442 2.971-2.91 5.931-4.366 8.897l-2.93.004c1.787-3.643 3.584-7.277 5.362-10.922l5.006-.009c1.791 3.64 3.602 7.267 5.402 10.904z"/><path d="m92.717 42.129c4.281-.007 8.56-.015 12.842-.022.001.675.002 1.348.003 2.021-3.438.006-6.877.012-10.314.018.001.808.003 1.619.004 2.428 3.001-.005 6-.01 9-.015.001.673.002 1.346.003 2.02-3 .005-5.999.01-9 .015.003 1.483.005 2.965.008 4.45-.842.001-1.684.003-2.527.004-.007-3.64-.013-7.278-.019-10.919z"/><path d="m121.837 52.992-3.711-.001c-1.346-1.253-2.633-2.575-3.962-3.849-1.324 1.278-2.607 2.604-3.948 3.862l-3.709.013 5.682-5.805c-1.725-1.708-3.476-3.391-5.196-5.103l3.724-.009 3.441 3.36c1.16-1.109 2.271-2.272 3.446-3.364l3.706-.011c-1.727 1.739-3.502 3.437-5.225 5.18z"/><path d="m5.973 8.444c0-.032.008-.066.023-.096 1.515-3.137 3.287-4.76 5.121-4.69 1.509.057 2.938 1.288 4.129 3.556 1.131 2.155 2.03 5.195 2.601 8.791.02.118-.063.232-.183.25-.119.02-.233-.062-.249-.182-1.158-7.284-3.578-11.873-6.315-11.976-1.621-.06-3.296 1.516-4.707 4.442-.054.109-.185.154-.295.102-.078-.038-.125-.116-.125-.197z"/><path d="m17.288 35.75c0-.014 0-.024 0-.037.377-2.316.627-4.762.743-7.265.004-.122.107-.215.229-.211.121.007.214.112.209.231-.116 2.521-.367 4.983-.746 7.316-.019.12-.133.201-.254.183-.106-.019-.181-.113-.181-.217z"/><path d="m2.447 28.856c0-.062 0-.122 0-.185 0-.12 0-.219 0-.219s0 .1 0 .22v.001c0 .061.128.122.128.182.02 11.762 3.157 21.037 7.086 21.152 1.376.04 2.802-1.067 4.06-3.201 1.257-2.127 2.339-5.173 3.106-8.808.024-.12.148-.196.267-.17.118.024.198.141.173.26-.774 3.683-1.857 6.776-3.136 8.942-1.348 2.282-2.875 3.464-4.419 3.417-2.09-.061-3.907-2.365-5.282-6.489-1.328-3.988-1.973-9.344-1.983-15.102z"/><path d="m13.712 32.817 4.433 5.793-2.731-6.807 1.99-1.92-2.761.615-4.433-5.793 2.733 6.809-1.991 1.918z"/><path d="m8.179 25.56c.409.081.351.235.417.65l.062.387-.647-.12-.061-.386c-.065-.416-.176-.598.229-.531zm.59-.839-1.62-.298c-.442-.08-.585.053-.517.479l.396 2.46 2.839.523-.396-2.461c-.067-.426-.261-.621-.702-.703zm2.579 15.626-.156-.03.409 2.54c.032.201.235.394.454.435s.371-.089.338-.291l-.104-.652-.168-1.04-.041-.263c-.05-.304-.398-.639-.732-.699zm-7.347-17.805.113.019c-.008.088-.041.204-.025.307l.418 2.638c-.527-.097-.659-.793-.828-1.853l-.193-1.209-3.486-.64.255 1.587c.392 3.906 2.414 5.39 4.823 5.863l.763 4.758 4.129.76.063.388c.067.424.145.362-.296.281l-3.779-.696.549 3.417.25.045c-.113.259-.153.56-.103.88l.949 5.909 2.969.547.273-.385c.393.332.873.591 1.277.665l.469.093c1.749.292 2.213-1.322 2.094-2.059l-.544-3.393c-.098-.6-.517-1.261-1.071-1.742.44-.446.61-1.132.547-1.531l-.606-3.775-.934.424.544 3.404c.08.491-.117.819-.504.911-.103-.037-4.753-.902-4.753-.902l-.195-1.221 3.521.649c.44.081.582-.051.514-.476l-.376-2.34-4.13-.761-.213-1.342 4.728.872 1.301-1.108-1.444-3.978.302 1.887.004.03-6.456-1.187c-1.64-.303-3.21-2.048-3.458-3.6l-.254-1.585 1.289.238.194 1.207c.173 1.062 1.235 2.254 2.347 2.457l.7.132-.505-3.145c-.109-.675.301-1.042 1.013-.909l3.035.558c.538.099.987.435 1.219.885l.081.007 1.216 1.575-.158-.922c-.077-.488-.447-1.398-1.183-1.974.519-.437.724-1.201.654-1.632l-.544-3.387 2.969.547.396 2.471c.211 1.317 1.694 2.769 3.085 3.026l1.999.367c1.392.257 2.484-.722 2.273-2.037l-.866-5.402-6.196-1.141-.799-4.972c-.067-.422-.482-.829-.927-.913l-10.004-1.843c-.444-.08-.751.194-.683.614l1.522 9.49 4.131.761.061.388c.068.426.145.362-.296.28l-3.778-.695zm2.251-7.048-.509-3.174.644.119.413 2.562 3.356.619-.412-2.564.647.118.507 3.174zm-1.033-.19-1.419-.262-.899-5.614 9.421 1.733.742 4.638-1.292-.236-.527-3.295-2.711-.5.431 2.686-1.292-.238-.43-2.685-2.71-.5zm-.342 6.451-.215-1.343 3.521.648c.44.082.582-.053.514-.476l-.374-2.34-4.13-.76-.216-1.344 5.42.997.006.032.713 4.454c.11.674-.298 1.041-1.011.91zm6.658 8.718.209 1.311-5.42-.997-.215-1.341 5.42.996zm-2.538 8.148 2.508.461c.792.147 1.571.998 1.689 1.724l.503 3.14c.085.527-.506.897-1.085.789l-.806-.153c-.579-.107-1.195-.696-1.279-1.223l-.524-3.261-.293-.045c-.332-.062-.592.16-.541.465l.585 3.644-1.325-.244-.656-4.109c-.118-.727.429-1.334 1.224-1.188zm6.989-19.441 2.452.453.276 1.708c.035.225-.091.34-.329.293l-1.679-.308c-.236-.044-.409-.214-.446-.436z"/><path d="m14.858 30.106 1.437-.364-.025-.205-.355-.065c-.245-.044-.447-.243-.483-.474l-.226-1.404c-.036-.232.11-.365.356-.32l3.809.701c.243.043.444.241.482.474l.225 1.404c.038.231-.111.363-.355.319l-.485-.09.455 2.839.581.105c1.464.27 2.576-.728 2.356-2.113l-.436-2.716c-.223-1.383-1.733-2.864-3.197-3.133l-4.065-.748c-1.467-.271-2.576.727-2.356 2.112l.148.907z"/><path d="m15.729 32.118c.199.073.276.124.481.162l.516.096-.181-1.131z"/></g></svg>