<svg enable-background="new 0 0 462.318 337.457" viewBox="0 0 462.318 337.457" xmlns="http://www.w3.org/2000/svg"><path d="m439.931 12.731c0 1.878-1.521 3.4-3.4 3.4h-3.059c-1.877 0-3.4-1.522-3.4-3.4v-9.331c0-1.877 1.523-3.4 3.4-3.4h3.059c1.879 0 3.4 1.523 3.4 3.4z" fill="#333"/><path d="m32.246 12.731c0 1.878-1.522 3.4-3.399 3.4h-3.06c-1.877 0-3.399-1.522-3.399-3.4v-9.331c0-1.877 1.522-3.4 3.399-3.4h3.06c1.877 0 3.399 1.523 3.399 3.4z" fill="#333"/><path d="m452.222 271.067v48.634c0 3.116-2.549 5.666-5.666 5.666h-46.525-30.787-44.5c-1.871 0-4.594.957-6.053 2.127l-9.775 7.836c-1.461 1.17-4.184 2.127-6.053 2.127h-133.068c-1.869 0-4.611-.935-6.091-2.076l-10.292-7.938c-1.48-1.142-4.222-2.076-6.092-2.076h-45.14-32.219-53.477c-3.116 0-5.667-2.55-5.667-5.666v-46.74-179.15h441.404v177.256z" fill="#999"/><path d="m449.269 320.473c0 1.247-1.02 2.267-2.266 2.267h-76.625c-1.248 0-3.287 0-4.533 0h-42.236c-1.869 0-4.594.956-6.053 2.126l-9.775 7.837c-1.459 1.17-4.182 2.126-6.051 2.126h-130.801c-1.87 0-4.611-.934-6.092-2.076l-10.292-7.937c-1.48-1.142-4.222-2.076-6.091-2.076h-42.874c-1.247 0-3.286 0-4.534 0h-85.294c-1.247 0-2.266-1.02-2.266-2.267v-4.836c0-1.248 1.019-2.268 2.266-2.268h208.628c1.247 0 2.536.984 2.865 2.187l.21.768c.329 1.203 1.619 2.187 2.865 2.187h7.148c1.247 0 2.511-.99 2.809-2.201l.183-.738c.298-1.21 1.563-2.201 2.809-2.201h203.733c1.246 0 2.266 1.02 2.266 2.268v4.834z" fill="#ccc"/><path d="m174.878 317.043h112.774v18.067h-112.774z" fill="#737373"/><path d="m174.878 316.747h89.17v6.323h-89.17z" fill="#bfbfbf"/><path d="m264.048 316.747h23.604v6.323h-23.604z" fill="#8c8c8c"/><path d="m401.669 110.592h-116.296c-.811 0-1.469-.658-1.469-1.47s.658-1.469 1.469-1.469h116.297c.81 0 1.469.657 1.469 1.469-.001.812-.659 1.47-1.47 1.47z" fill="#f00"/><path d="m270.418 314.224v4.314c0 1.163-.674 2.104-1.837 2.104-1.162 0-1.836-.941-1.836-2.104v-4.314c0-1.163.675-2.104 1.836-2.104 1.162-.001 1.837.94 1.837 2.104z" fill="#006837"/><path d="m447.113 317.057c1.213-.009 2.205-1.009 2.205-2.221v-191.387c0-8.082-6.613-14.694-14.693-14.694h-182.208c-8.081 0-14.694 6.612-14.694 14.694v191.387c0 1.212.992 2.204 2.205 2.204h9.918c1.213 0 3.08-.466 4.15-1.035l87.211-46.42c1.07-.568 2.832-.589 3.916-.044l92.492 46.579c1.082.545 2.959.984 4.172.976z" fill="#ccc"/><path d="m443.441 123.335c0-4.849-3.895-8.702-8.742-8.702h-182.355c-4.85 0-8.743 3.854-8.743 8.702l-.073 192.879c0 .808.66 1.47 1.469 1.47h15.454c.809 0 1.469-.662 1.469-1.47v-1.43c0-.809.662-1.47 1.47-1.47h6.053c.809 0 1.47.661 1.47 1.47v1.43c0 .808.661 1.47 1.469 1.47h10.861c.809 0 2.031-.347 2.721-.77l55.939-34.37c.688-.423 1.816-.427 2.508-.008l56.664 34.386c.691.418 1.918.762 2.727.762h10.934c.807 0 1.469-.662 1.469-1.47v-1.43c0-.809.662-1.47 1.469-1.47h6.055c.807 0 1.469.661 1.469 1.47v1.43c0 .808.662 1.47 1.469 1.47h15.381c.809 0 1.469-.662 1.469-1.47z" fill="#e6e6e6"/><path d="m401.562 318.51c.809 0 1.471-.662 1.471-1.47v-132.498c0-32.98-26.533-59.751-59.512-59.751-32.98 0-59.512 26.695-59.512 59.675v132.574c0 .808.662 1.47 1.47 1.47h12.122c.809 0 1.471-.662 1.471-1.47v-.337c0-.808.66-1.47 1.469-1.47h16.906c.809 0 2.098-.209 2.865-.464l21.447-7.141c.766-.256 2.018-.248 2.781.017l21.471 7.444c.762.265 2.049.48 2.857.48h17.633c.807 0 1.469.662 1.469 1.47 0 .808.662 1.47 1.469 1.47h12.123z" fill="#d9d9d9"/><path d="m265.999 167.16c2.576 0 4.419 1.798 4.419 4.374v37.277c0 2.575-1.833 4.664-4.408 4.664-2.576 0-4.408-2.089-4.408-4.664v-32.099h-18.074l-4.089-4.57 4.089-4.982z" fill="#ccc"/><path d="m421.166 167.16c-2.576 0-4.541 1.798-4.541 4.374v37.277c0 2.575 2.199 4.664 4.775 4.664 2.574 0 4.775-2.089 4.775-4.664v-32.099h17.461l4.09-4.57-4.09-4.982z" fill="#ccc"/><path d="m271.153 317.04v-17.172c0-2.575-2.201-4.663-4.776-4.663-2.576 0-4.775 2.088-4.775 4.663v17.172" fill="#ccc"/><path d="m277.031 314.101c0 .812-.658 1.47-1.471 1.47h-18.367c-.811 0-1.47-.658-1.47-1.47v-11.02c0-.812.658-1.47 1.47-1.47h18.367c.813 0 1.471.658 1.471 1.47z" fill="#ccc"/><path d="m425.441 317.04v-17.036c0-2.575-2.201-4.663-4.777-4.663s-4.775 2.088-4.775 4.663v17.036" fill="#ccc"/><path d="m243.233 261.202h40.776v2.94h-40.776z" fill="#b3b3b3"/><path d="m243.233 267.081h40.776v2.938h-40.776z" fill="#b3b3b3"/><path d="m243.233 272.958h40.776v2.94h-40.776z" fill="#b3b3b3"/><path d="m243.233 278.836h40.776v2.938h-40.776z" fill="#b3b3b3"/><path d="m243.233 284.714h40.776v2.938h-40.776z" fill="#b3b3b3"/><path d="m403.033 261.202h40.775v2.94h-40.775z" fill="#b3b3b3"/><path d="m403.033 267.081h40.775v2.938h-40.775z" fill="#b3b3b3"/><path d="m403.033 272.958h40.775v2.94h-40.775z" fill="#b3b3b3"/><path d="m403.033 278.836h40.775v2.938h-40.775z" fill="#b3b3b3"/><path d="m403.033 284.714h40.775v2.938h-40.775z" fill="#b3b3b3"/><path d="m387.97 317.04v-84.858c0-2.02-1.652-3.306-3.674-3.306h-81.551c-2.021 0-3.674 1.285-3.674 3.306v84.858h20.57l23.879-16.285 23.143 16.285z" fill="#bfbfbf"/><path d="m300.541 231.814h85.227v2.204h-85.227z"/><path d="m300.541 234.754h85.227v1.469h-85.227z" fill="#b3b3b3"/><path d="m304.214 235.488h1.469v51.429h-1.469z" fill="#b3b3b3"/><path d="m311.562 235.488h1.469v51.429h-1.469z" fill="#b3b3b3"/><path d="m319.642 235.488h1.471v31.593h-1.471z" fill="#b3b3b3"/><path d="m326.99 235.488h1.469v31.593h-1.469z" fill="#b3b3b3"/><path d="m335.072 235.488h1.469v31.593h-1.469z" fill="#b3b3b3"/><path d="m342.419 242.835h1.469v24.246h-1.469z" fill="#b3b3b3"/><path d="m338.646 246.212.807.752 3.699-3.981 3.701 3.981.807-.752-4.508-4.847z" fill="#b3b3b3"/><path d="m350.5 235.488h1.471v31.593h-1.471z" fill="#b3b3b3"/><path d="m357.847 235.488h1.469v31.593h-1.469z" fill="#b3b3b3"/><path d="m365.929 235.488h1.469v31.593h-1.469z" fill="#b3b3b3"/><path d="m373.277 235.488h1.469v51.429h-1.469z" fill="#b3b3b3"/><path d="m381.357 235.488h1.471v51.429h-1.471z" fill="#b3b3b3"/><path d="m343.154 314.103c14.203 0 23.51 2.937 23.51 2.937v-21.63c0-13.03-10.48-23.607-23.51-23.607s-23.512 10.548-23.512 23.576v21.66s9.307-2.936 23.512-2.936z" fill="#a6a6a6"/><path d="m317.896 204.829c-.045 0-.09-.01-.133-.029-4.35-2.113-6.598-4.573-6.496-7.12.082-2.095 1.793-4.073 4.945-5.722 2.992-1.563 7.213-2.804 12.205-3.588.166-.027.322.088.348.254.027.167-.088.323-.254.347-10.113 1.591-16.486 4.936-16.635 8.733-.088 2.252 2.096 4.577 6.152 6.546.152.073.215.256.141.407-.052.11-.162.172-.273.172z" fill="#f00"/><path d="m355.816 189.195c-.018 0-.033-.001-.051-.003-3.213-.528-6.605-.88-10.08-1.047-.17-.007-.299-.151-.291-.319s.154-.297.32-.289c3.498.168 6.914.521 10.15 1.053.166.027.279.184.252.351-.023.148-.154.254-.3.254z" fill="#f00"/><path d="m346.214 209.773c-.084 0-.17 0-.256 0-.168 0-.303 0-.303 0s.137 0 .305 0c.084 0 .17-.178.254-.178 16.322 0 29.201-4.333 29.371-9.785.059-1.908-1.473-3.889-4.434-5.643-2.947-1.747-7.172-3.258-12.215-4.327-.166-.036-.271-.208-.236-.374.035-.163.197-.273.361-.239 5.109 1.083 9.396 2.595 12.402 4.373 3.162 1.875 4.799 3.997 4.73 6.141-.09 2.901-3.293 5.417-9.02 7.315-5.533 1.836-12.968 2.717-20.959 2.717z" fill="#f00"/><path d="m351.738 194.146 8.053-6.136-9.458 3.775-2.658-2.765.848 3.832-8.051 6.137 9.457-3.776 2.657 2.767z" fill="#f00"/><path d="m341.656 201.811c.113-.57.326-.486.9-.578l.537-.085-.166.895-.537.085c-.576.091-.83.244-.734-.317zm-1.164-.82-.418 2.245c-.113.613.072.812.662.718l3.416-.542.732-3.938-3.418.541c-.59.093-.861.363-.974.976zm21.689-3.545-.039.217 3.525-.56c.277-.045.549-.326.603-.63.057-.304-.123-.516-.4-.471l-.906.145-1.443.229-.365.058c-.424.067-.889.551-.975 1.012zm-24.726 10.156.029-.156c.121.009.283.056.426.034l3.662-.575c-.137.732-1.102.914-2.574 1.148l-1.676.266-.9 4.834 2.203-.349c5.424-.536 7.486-3.337 8.148-6.679l6.607-1.048 1.064-5.73.537-.086c.59-.093.502-.198.389.412l-.975 5.242 4.744-.753.064-.346c.357.156.777.213 1.221.143l8.201-1.301.768-4.119-.533-.379c.461-.545.82-1.212.924-1.773l.129-.647c.41-2.43-1.83-3.075-2.852-2.912l-4.707.746c-.834.134-1.752.714-2.42 1.483-.619-.612-1.57-.85-2.127-.761l-5.24.83.586 1.297 4.729-.748c.682-.109 1.137.163 1.262.702-.051.143-1.262 6.595-1.262 6.595l-1.695.27.908-4.884c.113-.612-.072-.811-.662-.716l-3.246.516-1.066 5.729-1.863.296 1.221-6.559-1.535-1.809-5.522 1.994 2.617-.414.043-.006-1.664 8.951c-.422 2.274-2.85 4.447-5.002 4.79l-2.203.349.334-1.789 1.676-.266c1.475-.234 3.131-1.71 3.416-3.251l.182-.97-4.363.691c-.936.149-1.443-.418-1.258-1.406l.781-4.21c.139-.747.605-1.368 1.23-1.69l.01-.112 2.188-1.685-1.277.215c-.682.109-1.941.618-2.744 1.64-.605-.722-1.666-1.006-2.262-.911l-4.703.748.768-4.12 3.43-.544c1.826-.29 3.848-2.343 4.205-4.271l.516-2.776c.359-1.931-.998-3.447-2.824-3.159l-7.498 1.189-1.596 8.596-6.904 1.097c-.584.092-1.152.667-1.268 1.285l-2.58 13.877c-.113.618.268 1.044.852.951l13.172-2.09 1.066-5.729.537-.086c.59-.093.502-.199.389.413l-.975 5.24zm-9.776-3.143-4.404.7.166-.895 3.557-.564.867-4.655-3.559.565.166-.896 4.404-.698zm-.265 1.434-.367 1.97-7.793 1.236 2.43-13.071 6.438-1.02-.332 1.79-4.574.726-.699 3.76 3.727-.591-.332 1.79-3.727.591-.701 3.761zm8.951.492-1.863.295.906-4.883c.115-.612-.068-.811-.66-.717l-3.248.516-1.064 5.729-1.863.295 1.396-7.519.045-.008 6.184-.979c.934-.15 1.441.417 1.258 1.405zm12.113-9.221 1.822-.288-1.398 7.52-1.863.294 1.398-7.518zm11.305 3.544.646-3.477c.205-1.101 1.387-2.182 2.395-2.342l4.357-.691c.734-.116 1.244.704 1.094 1.507l-.213 1.119c-.15.803-.971 1.656-1.703 1.773l-4.525.719-.064.406c-.086.461.221.821.645.753l5.055-.804-.34 1.834-5.703.904c-1.009.16-1.849-.598-1.644-1.701zm-26.963-9.748.633-3.401 2.371-.378c.311-.048.471.127.408.457l-.432 2.328c-.06.329-.297.568-.607.617z" fill="#f00"/><path d="m347.98 192.552-.502-1.995-.285.034-.092.491c-.063.342-.336.62-.658.67l-1.947.309c-.322.051-.508-.153-.443-.495l.982-5.28c.063-.342.338-.619.658-.671l1.949-.309c.32-.052.504.155.441.494l-.125.673 3.94-.626.15-.806c.377-2.031-1.004-3.576-2.928-3.273l-3.77.599c-1.922.305-3.98 2.396-4.359 4.428l-1.047 5.64c-.377 2.033 1.004 3.578 2.928 3.272l1.26-.2z" fill="#f00"/><path d="m350.773 191.348c.103-.277.174-.381.227-.664l.135-.718-1.57.249z" fill="#f00"/><path d="m299.105 313.367h12.57c.965 0 1.744-.874 1.744-1.837 0-.964-.779-1.837-1.744-1.837h-12.57"/><path clip-rule="evenodd" d="m257.45 129.416-3.285-3.934-1.492 1.706.716.654-.855 4.735 1.717-.754-.886-.819.491-2.505 3.46 3.987 1.195-5.438 1.209-.731-1.463-.89zm2.892-3.274c.104.117.234.268.204.426l-.404 2.127c-.032.166-.179.287-.294.371-.116.082-.258.105-.4.127.123.048.245.096.327.185.083.089.197.216.166.35l-.462 2.072c-.043.191-.237.31-.375.414-.139.104-.297.157-.454.21h5.527l.388-2.072c-.212.43-.425.859-.787 1.135-.363.276-.859.52-1.386.52h-1.011l.504-2.565c.184-.063.392-.056.579.034.188.092.354.268.504.458.15.191.282.396.386.614l.53-2.696c-.182.198-.383.377-.6.538-.217.162-.449.306-.666.377-.219.072-.421.072-.609.017l.524-2.524.815-.007c.368-.004.737-.049 1.034.194.298.244.526.756.753 1.268l.404-1.848h-5.618c.158.077.317.157.421.275zm6.622.647c-.413.353-.787.821-1.035 1.331-.249.511-.374 1.063-.38 1.571s.106.97.313 1.394c.208.424.509.809.881 1.069.374.26.816.396 1.223.459.407.064.777.053 1.071.011.293-.041.508-.112.706-.222l1.166-2.423c-.302.142-.609.271-.928.402-.318.132-.649.266-.998.308-.351.043-.721-.008-1.05-.202-.328-.196-.616-.537-.764-.919-.15-.383-.159-.806-.056-1.189.104-.383.324-.724.592-1.022.267-.299.582-.556.874-.725.292-.17.562-.251.837-.271l.881 1.269 1.013-.379-.71-1.738c-.2-.008-.402.001-.64.027-.238.025-.514.069-.799.143-.286.073-.582.176-.957.347-.374.169-.828.407-1.24.759z" fill="#cacaca" fill-rule="evenodd"/><g fill="#e6e6e6"><path d="m291.308 114.886v-6.13c0-.528.574-.956 1.102-.956s1.103.428 1.103.956v6.13"/><path d="m295.955 114.886v-6.13c0-.528.574-.956 1.102-.956.527 0 1.103.428 1.103.956v6.13"/><path d="m300.601 114.886v-6.13c0-.528.574-.956 1.102-.956.527 0 1.103.428 1.103.956v6.13"/><path d="m305.248 114.886v-6.13c0-.528.574-.956 1.102-.956.527 0 1.102.428 1.102.956v6.13"/><path d="m309.894 114.886v-6.13c0-.528.574-.956 1.102-.956.527 0 1.102.428 1.102.956v6.13"/><path d="m314.541 114.886v-6.13c0-.528.574-.956 1.102-.956.527 0 1.102.428 1.102.956v6.13"/><path d="m319.187 114.886v-6.13c0-.528.574-.956 1.102-.956.527 0 1.102.428 1.102.956v6.13"/><path d="m323.833 114.886v-6.13c0-.528.574-.956 1.102-.956.527 0 1.102.428 1.102.956v6.13"/><path d="m328.48 114.886v-6.13c0-.528.574-.956 1.102-.956.527 0 1.102.428 1.102.956v6.13"/><path d="m333.126 114.886v-6.13c0-.528.574-.956 1.102-.956.527 0 1.102.428 1.102.956v6.13"/><path d="m337.773 114.886v-6.13c0-.528.574-.956 1.102-.956.527 0 1.102.428 1.102.956v6.13"/><path d="m342.419 114.886v-6.13c0-.528.574-.956 1.102-.956.527 0 1.102.428 1.102.956v6.13"/><path d="m347.066 114.886v-6.13c0-.528.574-.956 1.102-.956.527 0 1.102.428 1.102.956v6.13"/><path d="m351.712 114.886v-6.13c0-.528.574-.956 1.102-.956.527 0 1.102.428 1.102.956v6.13"/><path d="m356.359 114.886v-6.13c0-.528.574-.956 1.102-.956.527 0 1.102.428 1.102.956v6.13"/><path d="m361.004 114.886v-6.13c0-.528.576-.956 1.103-.956s1.102.428 1.102.956v6.13"/><path d="m365.65 114.886v-6.13c0-.528.576-.956 1.104-.956.527 0 1.102.428 1.102.956v6.13"/><path d="m370.296 114.886v-6.13c0-.528.576-.956 1.104-.956.527 0 1.102.428 1.102.956v6.13"/><path d="m374.943 114.886v-6.13c0-.528.576-.956 1.103-.956s1.102.428 1.102.956v6.13"/><path d="m379.589 114.886v-6.13c0-.528.574-.956 1.104-.956.527 0 1.102.428 1.102.956v6.13"/><path d="m384.236 114.886v-6.13c0-.528.574-.956 1.103-.956.525 0 1.102.428 1.102.956v6.13"/><path d="m388.882 114.886v-6.13c0-.528.574-.956 1.102-.956.527 0 1.104.428 1.104.956v6.13"/><path d="m393.529 114.886v-6.13c0-.528.576-.956 1.104-.956.527 0 1.102.428 1.102.956v6.13"/></g><path d="m231.998 188.396v-89.342c0-1.062.861-1.924 1.924-1.924s1.924.862 1.924 1.924v89.343c0 1.061-.862 1.924-1.924 1.924-1.063-.001-1.924-.864-1.924-1.925z" fill="#ccc"/><path d="m232.054 174.554h3.675c3.58 0 6.509-4.08 6.509-9.066v-43.063c0-4.986 4.08-9.065 9.065-9.065h184.434c4.986 0 9.065 4.079 9.065 9.065v43.063c0 4.986 2.93 9.066 6.51 9.066h3.676v-74.794h-222.934z" fill="#e6e6e6"/><path d="m13.581 259.075 21.496-.021c16.768 30.704 49.783 51.954 87.746 51.9 37.962-.053 70.917-21.396 87.599-52.147l19.609-.033-.014 56.438c0 1.247-1.02 2.267-2.267 2.267h-211.893c-1.247 0-2.267-1.019-2.267-2.267z" fill="#e6e6e6"/><path d="m65.968 302.658c-1.787 0-3.3 1.175-3.809 2.794h-6.471c-1.434 0-2.597 1.163-2.597 2.597 0 1.435 1.163 2.598 2.597 2.598h10.248v-.004c.011 0 .021.002.032.002 2.205 0 3.993-1.787 3.993-3.993-.001-2.206-1.789-3.994-3.993-3.994z" fill="#ccc"/><path d="m224.02 286.648c0 5.946-4.819 10.766-10.765 10.766s-10.765-4.819-10.765-10.766c0-5.944 4.819-10.764 10.765-10.764 5.946.001 10.765 4.82 10.765 10.764z" fill="#ccc"/><path d="m48.651 293.165c0 7.823-6.341 14.165-14.164 14.165s-14.165-6.342-14.165-14.165 6.341-14.164 14.165-14.164c7.823 0 14.164 6.341 14.164 14.164z"/><path d="m57.258 308.012c0 .836-.678 1.513-1.513 1.513-.836 0-1.514-.677-1.514-1.513s.678-1.514 1.514-1.514c.835 0 1.513.678 1.513 1.514z"/><path d="m228.658 237.613v-27.551c0-.811.659-1.47 1.469-1.47.812 0 1.47.658 1.47 1.47v27.551c0 .811-.658 1.47-1.47 1.47-.81 0-1.469-.659-1.469-1.47z" fill="#ccc"/><path d="m7.677 188.396v-89.342c0-1.062.862-1.924 1.924-1.924 1.064 0 1.924.862 1.924 1.924v89.343c0 1.061-.861 1.924-1.924 1.924-1.062-.001-1.924-.864-1.924-1.925z" fill="#ccc"/><path d="m224.982 267.083c0 3.139-2.545 5.683-5.683 5.683s-5.683-2.544-5.683-5.683c0-3.138 2.545-5.683 5.683-5.683 3.139 0 5.683 2.545 5.683 5.683z" fill="#ccc"/><path d="m68.873 306.651c0 1.605-1.3 2.905-2.905 2.905-1.604 0-2.906-1.3-2.906-2.905 0-1.604 1.302-2.905 2.906-2.905s2.905 1.301 2.905 2.905z" fill="#b3b3b3"/><path d="m13.581 256.945.01-149.383c0-1.247 1.02-2.267 2.267-2.267h211.892c1.247 0 2.267 1.02 2.267 2.267l.005 149.353z" fill="#e6e6e6"/><path d="m208.887 257.085c7.249-13.63 11.357-29.186 11.357-45.7 0-53.825-43.633-97.459-97.458-97.459s-97.459 43.634-97.459 97.459c0 16.495 4.098 32.033 11.331 45.65z" fill="#d9d9d9"/><path d="m122.786 233.294c-32.925 0-63.023 8.975-86.087 23.804 16.381 30.783 48.784 51.745 86.087 51.745s69.705-20.962 86.086-51.745c-23.064-14.829-53.161-23.804-86.086-23.804z"/><path clip-rule="evenodd" d="m29.45 125.67-3.285-3.935-1.492 1.706.716.655-.855 4.734 1.717-.754-.886-.819.491-2.505 3.46 3.987 1.195-5.437 1.209-.732-1.462-.89zm2.893-3.274c.104.116.233.267.203.425l-.404 2.127c-.032.166-.18.288-.295.371-.116.082-.257.104-.4.127.123.048.245.096.327.185.083.089.197.216.167.35l-.463 2.072c-.043.19-.237.309-.375.414-.139.104-.297.156-.454.21h5.527l.388-2.073c-.212.431-.424.861-.787 1.137-.363.275-.859.518-1.385.518h-1.012l.504-2.564c.185-.063.392-.056.579.034.188.092.354.268.506.458.149.19.281.396.385.614l.53-2.696c-.182.198-.382.378-.6.538-.218.162-.449.306-.666.378-.219.071-.421.071-.609.017l.524-2.525.815-.007c.368-.004.738-.049 1.034.194.299.245.526.757.754 1.267l.403-1.848h-5.618c.158.078.317.158.422.277zm6.621.646c-.413.353-.787.82-1.034 1.332-.249.511-.374 1.063-.38 1.571-.006.507.106.969.312 1.394.208.423.509.808.881 1.069.373.259.817.395 1.223.459.407.063.777.051 1.071.01.293-.04.509-.112.706-.222l1.167-2.423c-.303.142-.61.271-.928.402-.318.133-.649.266-.998.308-.351.043-.721-.008-1.05-.202-.329-.195-.615-.537-.764-.919-.149-.383-.16-.806-.056-1.188.104-.383.325-.724.592-1.022.267-.299.581-.556.873-.725.291-.17.561-.251.836-.271l.881 1.269 1.013-.378-.71-1.739c-.2-.008-.402.001-.64.027-.239.026-.514.069-.8.143-.286.073-.581.176-.957.347-.372.168-.826.405-1.238.758z" fill="#cacaca" fill-rule="evenodd"/><path d="m208.066 306.538c0 1.435-1.163 2.597-2.597 2.597h-27.994c-1.434 0-2.597-1.162-2.597-2.597 0-1.435 1.162-2.597 2.597-2.597h27.994c1.434 0 2.597 1.162 2.597 2.597z" fill="#ccc"/><path d="m191.513 303.941v5.194" fill="none" stroke="#999" stroke-miterlimit="10" stroke-width=".5666"/><path clip-rule="evenodd" d="m168.615 200.446c-.759-.654-1.636-.976-2.635-.976h-11.032c-.427-.001-.838.045-1.258.168-.814.241-1.473.676-2.012 1.322-.548.654-.924 1.406-.935 2.248-.035 2.874-.011 5.748-.018 8.621-.001.205.06.257.259.256 1.165-.009 2.328-.013 3.492.001.265.005.344-.053.341-.332-.013-2.514-.012-5.027-.004-7.54.001-.591.246-1.061.804-1.311.289-.131.61-.146.922-.154.525-.013 1.051.015 1.576-.011.289-.014.35.082.348.356-.009 2.916-.003 5.829-.011 8.745 0 .236.053.311.302.309 1.102-.015 2.205-.015 3.306.001.256.003.298-.084.297-.314-.008-2.092-.005-4.183-.005-6.272 0-.857.001-1.711-.001-2.566 0-.137-.023-.268.193-.254.716.04 1.432-.002 2.151.044.77.049 1.313.702 1.308 1.491-.012 2.493 0 4.986-.009 7.477-.001.246.041.335.313.33 1.154-.017 2.306-.016 3.461 0 .261.004.318-.07.317-.323-.009-2.709-.009-5.419-.004-8.128.002-1.289-.49-2.346-1.466-3.188zm.243 10.777c-.556-.021-1.113-.018-1.668-.001-.224.006-.271-.067-.269-.278.007-2.226.016-4.451-.001-6.676-.006-.85-.353-1.557-1.09-2.021-.38-.24-.819-.352-1.265-.359-.947-.018-1.896.004-2.842-.012-.247-.004-.305.066-.305.308.009 2.915.002 5.83.012 8.745.001.273-.057.374-.348.357-.462-.027-.928-.025-1.39 0-.27.014-.313-.083-.313-.329.009-2.905 0-5.811.013-8.716.001-.302-.075-.373-.371-.366-.916.021-1.834-.015-2.75.013-.844.026-1.561.345-2.024 1.09-.248.4-.363.853-.363 1.325-.003 2.194-.006 4.389.006 6.583.001.271-.061.351-.337.338-.555-.023-1.111-.013-1.668-.003-.168.002-.231-.038-.231-.221.006-2.586-.016-5.172.014-7.758.013-1.25 1.038-2.364 2.148-2.675.453-.127.894-.171 1.353-.17 1.751.003 3.503.001 5.253.001 1.896 0 3.791-.024 5.687.009 1.151.02 2.04.573 2.652 1.554.287.458.389.97.391 1.501.003 2.483-.001 4.967.005 7.448 0 .229-.041.322-.299.313zm-83.499-11.697c-3.41.009-6.819.007-10.23.005-.817 0-1.635-.006-2.447.123-.907.143-1.736.475-2.479 1.004-.864.614-1.522 1.396-2.02 2.35-.693 1.326-.824 2.723-.572 4.142.239 1.349.894 2.51 1.954 3.431 1.163 1.01 2.492 1.551 4.027 1.561 1.905.012 3.811.002 5.717.002 2.04 0 4.079-.003 6.118.006.218 0 .277-.057.274-.273-.013-.866-.017-1.73.001-2.596.005-.271-.056-.359-.348-.357-3.606.011-7.21.002-10.815.01-1.034.002-1.858-.404-2.494-1.2-.469-.588-.669-1.289-.613-2.016.06-.794.365-1.51.997-2.054.542-.468 1.144-.788 1.87-.79 3.698-.005 7.396-.005 11.094.003.236.001.313-.051.31-.3-.017-.907-.021-1.813.001-2.72.008-.291-.088-.331-.345-.331zm-.585 2.127c.021.273-.054.359-.346.358-2.801-.012-5.604-.006-8.406-.006-.546 0-1.094.02-1.638-.005-1.509-.07-3.049 1.162-3.537 2.473-.524 1.406-.331 2.697.537 3.865.547.736 1.314 1.225 2.249 1.399.192.037.381.055.575.055 3.41 0 6.82.005 10.23-.005.269-.001.364.059.337.335-.027.275-.023.558-.001.834.021.251-.048.329-.314.328-1.865-.014-3.729-.008-5.594-.008-1.761 0-3.523.014-5.285-.004-1.265-.012-2.376-.446-3.352-1.267-.829-.695-1.391-1.558-1.654-2.589-.435-1.705-.204-3.301.851-4.762.833-1.154 1.971-1.791 3.315-2.11.313-.074.648-.082.973-.083 3.575-.006 7.15 0 10.725-.011.271 0 .363.062.337.338-.028.287-.024.579-.002.865zm43.941 7.213c-.119-.813-.428-1.552-.899-2.22-.116-.162-.072-.274.019-.376.252-.284.421-.618.563-.961.345-.839.507-1.694.273-2.605-.239-.934-.694-1.706-1.458-2.31-.76-.601-1.616-.915-2.572-.921-2.308-.014-4.616-.004-6.923-.004-2.411 0-4.822.002-7.232-.005-.224 0-.317.031-.317.293.01 4.038.009 8.077.002 12.116 0 .216.055.275.272.273 1.164-.011 2.329-.013 3.493.001.25.003.33-.051.327-.316-.016-1.215.002-2.43-.014-3.647-.003-.267.079-.314.328-.313 2.689.009 5.378.004 8.066.007.295.001.587.006.884.051.719.105 1.174.768 1.176 1.332.001.874.005 1.75-.004 2.625-.002.2.05.263.255.261 1.195-.009 2.39-.01 3.585.001.217.002.25-.079.248-.268-.01-.742.002-1.482-.007-2.226-.002-.261-.027-.528-.065-.788zm-1.152 2.416c-.566-.015-1.133-.015-1.7 0-.199.006-.239-.064-.236-.247.01-.65-.012-1.299.008-1.947.022-.712-.642-1.695-1.406-1.958-.362-.125-.72-.185-1.102-.184-3.173.008-6.346.009-9.519-.004-.294-.001-.35.089-.346.359.014 1.235 0 2.473.011 3.708.002.221-.06.279-.275.273-.525-.017-1.051-.021-1.576.001-.254.01-.325-.057-.325-.318.01-3.091.006-6.182.006-9.272 0-.298.021-.599-.005-.896-.028-.31.054-.411.39-.408 2.204.017 4.409.008 6.614.008 2.185 0 4.369-.019 6.554.007 1.413.017 2.715 1.021 3.076 2.442.325 1.285-.028 2.377-.958 3.295-.187.185-.284.302-.046.541.282.284.513.623.693.988.226.457.383.929.376 1.446-.009.639-.008 1.277.002 1.917.002.181-.034.255-.236.249zm-25.137-10.567c-.955-.68-2.01-1.162-3.188-1.171-4.099-.03-8.198-.01-12.296-.018-.251 0-.325.056-.325.317.01 3.995.01 7.991 0 11.986 0 .262.069.32.323.319 2.091-.011 4.182-.007 6.272-.007h6.024c.224 0 .443-.01.667-.055 1.672-.328 2.991-1.203 3.973-2.577.633-.884.964-1.89 1.118-2.969.144-1.004-.001-1.966-.339-2.897-.437-1.197-1.183-2.182-2.229-2.928zm1.197 7.491c-.232.46-.504.891-.835 1.292-.402.485-.88.864-1.425 1.162-.644.349-1.332.602-2.067.61-1.904.023-3.81.007-5.715.007-1.936 0-3.872-.004-5.808.006-.231.001-.29-.058-.29-.289.008-3.418.008-6.837 0-10.256-.001-.24.072-.283.294-.283 3.769.006 7.538-.024 11.307.021 1.195.015 2.276.495 3.177 1.311.725.658 1.304 1.419 1.604 2.366.126.401.245.806.258 1.237.032.977-.05 1.929-.5 2.816zm44.626-6.793c-.51-.545-1.111-.978-1.787-1.285-.756-.345-1.544-.597-2.391-.597-1.504.001-3.009.001-4.513.001-1.288 0-2.575-.006-3.863.003-.438.002-.876-.03-1.317.055-1.281.241-2.412.775-3.35 1.688-.625.607-1.102 1.318-1.435 2.125-.531 1.285-.628 2.618-.288 3.953.349 1.363 1.072 2.515 2.196 3.403 1.155.913 2.464 1.373 3.924 1.38 2.823.015 5.646.008 8.469.001.415 0 .827-.069 1.231-.167.86-.208 1.642-.566 2.361-1.105.895-.668 1.56-1.501 1.998-2.512.492-1.135.653-2.316.449-3.553-.216-1.31-.783-2.43-1.684-3.39zm.772 5.5c-.239 1.235-.854 2.25-1.792 3.061-.59.51-1.271.865-2.042 1.068-.592.156-1.185.173-1.785.173h-3.832c-1.391 0-2.783-.026-4.172.006-2.259.053-4.294-1.423-5.025-3.444-.686-1.896-.437-3.674.753-5.286.75-1.015 1.785-1.669 3.022-1.951.399-.092.812-.152 1.236-.15 2.905.015 5.811-.025 8.714.024 1.161.021 2.211.475 3.115 1.248.622.531 1.115 1.152 1.44 1.892.475 1.075.594 2.196.368 3.359zm28.768-6.023c-1.277.007-2.554.003-3.831.003h-.378c.121-.209.27-.186.407-.186.587 0 1.174-.003 1.761.003.226.002.442-.046.654-.11 1.289-.397 1.867-1.669 1.62-2.877-.253-1.242-1.144-1.909-2.369-1.951-1.369-.044-2.739-.006-4.109-.013-.27-.001-.361.114-.356.372.01.505.017 1.01-.003 1.514-.009.236.064.289.291.287 1.102-.013 2.204-.006 3.306-.006.365 0 .548.113.55.34.002.255-.136.341-.558.341-.598 0-1.195-.011-1.792.005-.251.006-.51.028-.749.101-1.105.332-1.581 1.223-1.655 2.329-.041.615-.002 1.234-.01 1.853-.003.171.043.229.222.229 2.328-.005 4.654-.006 6.982 0 .219.002.288-.075.283-.288-.01-.567-.014-1.134.002-1.699.009-.225-.083-.248-.268-.247zm-.164 1.619c.009.19-.051.27-.242.238-.009-.002-.02 0-.031 0h-3.059c-.999 0-1.997-.011-2.996.007-.295.005-.365-.093-.361-.372.011-.612.008-1.223.128-1.827.105-.531.617-1.273 1.272-1.406.333-.067.658-.114.994-.112.586.004 1.174.004 1.761.001.377-.002.714-.309.735-.661.026-.448-.216-.743-.632-.827-.285-.056-.568-.056-.853-.056-.813-.001-1.627-.012-2.44.006-.24.005-.304-.07-.283-.296.019-.214.021-.433-.001-.647-.029-.295.111-.366.375-.364 1.111.006 2.224.004 3.335.001.266 0 .519.04.779.106.776.196 1.245.695 1.442 1.441.291 1.111-.295 2.219-1.518 2.522-.079.019-.163.012-.245.012-.67.001-1.339-.002-2.009.001-.465.003-.896.389-.922.797-.012.199.047.267.253.258.401-.015.803-.005 1.205-.005 1.009 0 2.019.01 3.028-.005.239-.004.297.069.283.294-.016.296-.013.596.002.894zm-69.032 1.973c-.434-.274-.944-.25-1.444-.257-1.1-.017-2.069 1.195-1.7 2.292.278.823.906 1.257 2.025 1.301.145.05.33-.033.518-.069 1.023-.193 1.398-.857 1.485-1.501.095-.707-.123-1.285-.884-1.766zm-.087 1.874c-.109.333-.37.5-.698.526-.342.027-.691.023-1.031-.061-.288-.07-.593-.526-.556-.827.058-.462.351-.771.735-.776h.431c.315.021.673-.072.968.238.268.283.256.577.151.9zm15.302-4.404c-3.41-.023-6.821-.007-10.231-.014-.209 0-.252.069-.251.263.009.927.014 1.855-.001 2.781-.004.245.065.306.306.305 1.7-.011 3.399-.006 5.1-.006 1.535 0 3.069.001 4.605 0 .426-.001.837-.013 1.257-.168.702-.26 1.228-1.128.994-1.886-.28-.909-.902-1.268-1.779-1.275zm.614 2.23c-.21.123-.42.177-.664.177-3.039-.007-6.078-.01-9.117.005-.335.002-.419-.1-.39-.409.025-.265.023-.536 0-.803-.02-.237.065-.288.292-.286 1.597.01 3.193.005 4.79.005h4.759c.353 0 .591.172.673.483.106.4.006.623-.343.828zm-24.095-1.362c-.621-.499-1.34-.849-2.121-.861-2.73-.041-5.46-.013-8.19-.02-.238-.001-.309.053-.308.302.01 2.421.01 4.843-.001 7.263-.001.258.086.298.314.296 1.38-.01 2.761-.006 4.141-.006 1.359 0 2.721-.004 4.08.005.31.002.621-.04.894-.149 1.498-.608 2.446-1.705 2.615-3.326.145-1.385-.302-2.6-1.424-3.504zm-1.836 6.102c-.077.02-.163.007-.246.007h-3.616c-1.226 0-2.452-.005-3.677.005-.224 0-.319-.031-.317-.294.013-1.834.01-3.667.002-5.501 0-.216.057-.273.274-.273 2.359.009 4.718-.024 7.077.016 1.495.025 2.594.797 2.895 2.393.315 1.675-.538 3.149-2.392 3.647zm44.28-6.98c-1.071.006-2.142.001-3.213.001-.978 0-1.956.005-2.934-.002-.757-.006-1.491.068-2.176.432-.779.412-1.391.993-1.758 1.789-.32.696-.45 1.426-.335 2.214.118.814.43 1.514.969 2.109.822.909 1.883 1.302 3.092 1.307 1.884.008 3.769.005 5.653 0 .46-.001.919.022 1.378-.055.797-.134 1.513-.435 2.104-.986.711-.663 1.12-1.47 1.24-2.462.109-.894-.058-1.708-.512-2.438-.794-1.284-1.985-1.917-3.508-1.909zm2.201 6.186c-.642.587-1.429.777-2.262.795-1.05.022-2.101.006-3.152.006-.998 0-1.997.007-2.997-.002-.726-.008-1.427-.123-2.049-.537-.742-.495-1.183-1.177-1.342-2.056-.165-.908.086-1.71.63-2.415.516-.67 1.229-1.088 2.077-1.1 2.399-.03 4.799-.012 7.199-.01.681.001 1.269.23 1.809.66.561.445.898 1.011 1.049 1.687.258 1.168-.077 2.162-.962 2.972z" fill="#666" fill-rule="evenodd"/><path d="m462.318 96.36c0 1.878-1.522 3.399-3.398 3.399h-455.52c-1.877 0-3.4-1.522-3.4-3.399v-89.808c0-1.878 1.522-3.4 3.4-3.4h455.52c1.877 0 3.398 1.522 3.398 3.4z" fill="#262626"/><path d="m170.174 21.284h118.234v59.306h-118.234z" fill="#404040"/><path d="m175.592 94.863c0 1.252-1.015 2.267-2.266 2.267h-158.454c-1.252 0-2.267-1.015-2.267-2.267v-74.712c0-1.251 1.015-2.267 2.267-2.267h158.454c1.252 0 2.266 1.015 2.266 2.267z" fill="#333"/><path d="m171.919 82.762c0 .626-.507 1.134-1.133 1.134h-147.265c-.626 0-1.133-.508-1.133-1.134v-60.345c0-.625.507-1.133 1.133-1.133h147.264c.626 0 1.133.507 1.133 1.133v60.345z" fill="#404040"/><path d="m286.726 94.863c0 1.252 1.016 2.267 2.268 2.267h158.453c1.252 0 2.266-1.015 2.266-2.267v-74.712c0-1.251-1.014-2.267-2.266-2.267h-158.453c-1.252 0-2.268 1.015-2.268 2.267z" fill="#333"/><path d="m290.4 82.762c0 .626.508 1.134 1.133 1.134h147.266c.625 0 1.133-.508 1.133-1.134v-60.345c0-.625-.508-1.133-1.133-1.133h-147.266c-.625 0-1.133.507-1.133 1.133z" fill="#404040"/><path d="m57.983 8.063h34.091v6.044h-34.091z"/><path d="m190.931 8.063h80.456v9.821h-80.456z"/><path d="m369.394 8.063h34.092v6.044h-34.092z"/><path d="m384.357 30.9h8.586v3.156h-8.586z" fill="#006837"/><path d="m31.68 33.383h2.593v8.456h-2.593z" fill="#ccc"/><path d="m35.347 33.383h4.019l4.87 6.144h.024v-6.144h2.593v8.456h-4.018l-4.87-6.144h-.024v6.144h-2.593v-8.456z" fill="#ccc"/><path d="m47.166 33.383h9.881v2.102h-3.645v6.354h-2.592v-6.354h-3.644z" fill="#ccc"/><path d="m57.362 33.383h9.251v1.961h-6.658v1.356h6.307v1.752h-6.307v1.355h6.81v2.032h-9.403z" fill="#ccc"/><path d="m67.512 33.383h7.826c1.997 0 2.534.993 2.534 2.511v.538c0 1.133-.257 1.798-1.449 2.079v.023c.771.141 1.414.479 1.414 1.869v1.437h-2.593v-1.016c0-.888-.257-1.18-1.064-1.18h-4.076v2.196h-2.592zm2.592 4.158h4.287c.702 0 .958-.28.958-.888v-.28c0-.748-.374-.888-1.191-.888h-4.053v2.056z" fill="#ccc"/><path d="m78.805 33.383h8.831v2.032h-6.238v1.577h5.946v1.963h-5.946v2.885h-2.593z" fill="#ccc"/><path d="m91.489 33.383h3.377l4.648 8.456h-2.885l-.806-1.495h-5.256l-.76 1.495h-2.896zm.047 5.139h3.317l-1.682-3.178z" fill="#ccc"/><path d="m99.431 36.35c0-2.476 1.391-3.06 3.726-3.06h3.049c3.691 0 4.17.794 4.146 3.189h-2.593v-.234c0-.607-.444-.782-1.214-.782h-2.827c-1.367 0-1.623.643-1.623 1.694v.911c0 1.226.257 1.693 1.483 1.693h2.769c1.168 0 1.518-.117 1.518-1.167h2.594v.793c0 1.426-.514 2.547-3.119 2.547h-4.182c-2.335 0-3.726-.585-3.726-3.061v-2.523z" fill="#ccc"/><path d="m111.203 33.383h9.251v1.961h-6.658v1.356h6.307v1.752h-6.307v1.355h6.81v2.032h-9.403z" fill="#ccc"/><path d="m126.304 33.383h2.593v4.882c0 1.075.385 1.495 1.449 1.495h2.569c1.063 0 1.448-.42 1.448-1.495v-4.882h2.593v5.442c0 2.103-1.087 3.107-3.469 3.107h-3.715c-2.382 0-3.469-1.005-3.469-3.107v-5.442z" fill="#ccc"/><path d="m137.89 33.383h4.018l4.871 6.144h.022v-6.144h2.594v8.456h-4.018l-4.872-6.144h-.023v6.144h-2.593v-8.456z" fill="#ccc"/><path d="m150.469 33.383h2.593v8.456h-2.593z" fill="#ccc"/><path d="m153.517 33.383h9.881v2.102h-3.644v6.354h-2.593v-6.354h-3.644z" fill="#ccc"/></svg>