<svg enable-background="new 0 0 478.259 193.138" viewBox="0 0 478.259 193.138" xmlns="http://www.w3.org/2000/svg" xmlns:xlink="http://www.w3.org/1999/xlink"><linearGradient id="a" gradientUnits="userSpaceOnUse" x1="388.6123" x2="467.6123" y1="150.0899" y2="150.0899"><stop offset="0" stop-color="#141118"/><stop offset="1" stop-color="#0d0d19"/></linearGradient><radialGradient id="b" cx="429.263" cy="158.8912" gradientTransform="matrix(-.5 -.866 1.7321 -1 368.6868 689.535)" gradientUnits="userSpaceOnUse" r="16.5405"><stop offset="0" stop-color="#c9cdd0"/><stop offset=".3981" stop-color="#82848a"/><stop offset=".808" stop-color="#3f3f48"/><stop offset="1" stop-color="#24242e"/></radialGradient><radialGradient id="c" cx="457.2931" cy="74.3668" gradientTransform="matrix(.4932 -1.3704 -1.0426 -.7779 312.3565 827.2856)" gradientUnits="userSpaceOnUse" r="6.236"><stop offset="0" stop-color="#e3569b"/><stop offset=".1064" stop-color="#d95395"/><stop offset=".2884" stop-color="#bd4c86"/><stop offset=".5239" stop-color="#91416c"/><stop offset=".801" stop-color="#543149"/><stop offset="1" stop-color="#24242e"/></radialGradient><radialGradient id="d" cx="152.2326" cy="248.1138" gradientTransform="matrix(-.522 -.6888 .5145 -.6597 386.1918 411.6003)" gradientUnits="userSpaceOnUse" r="6.236"><stop offset="0" stop-color="#572e8c"/><stop offset=".2331" stop-color="#3d378f"/><stop offset=".4752" stop-color="#2b3d91"/><stop offset=".7267" stop-color="#204193"/><stop offset="1" stop-color="#1c4293"/></radialGradient><radialGradient id="e" cx="266.607" cy="102.7938" gradientTransform="matrix(1.1247 -.9438 -.3064 -.4177 154.9571 438.7426)" gradientUnits="userSpaceOnUse" r="6.236"><stop offset="0" stop-color="#f35fa9"/><stop offset=".069" stop-color="#d557a3"/><stop offset=".1957" stop-color="#a34b99"/><stop offset=".3254" stop-color="#784090"/><stop offset=".456" stop-color="#563789"/><stop offset=".5878" stop-color="#3b3184"/><stop offset=".7212" stop-color="#272c80"/><stop offset=".8572" stop-color="#1c297e"/><stop offset="1" stop-color="#18287d"/></radialGradient><radialGradient id="f" cx="397.275" cy="147.413" gradientTransform="matrix(-.3745 -1.0288 1.7985 -.6486 303.8264 673.5355)" gradientUnits="userSpaceOnUse" r="3.3569"><stop offset="0" stop-color="#f35fa9"/><stop offset=".0514" stop-color="#dd59a5"/><stop offset=".1855" stop-color="#a94d9a"/><stop offset=".3219" stop-color="#7d4191"/><stop offset=".458" stop-color="#58388a"/><stop offset=".5939" stop-color="#3c3184"/><stop offset=".7296" stop-color="#282c80"/><stop offset=".865" stop-color="#1c297e"/><stop offset="1" stop-color="#18287d"/></radialGradient><radialGradient id="g" cx="435.5043" cy="173.9752" gradientTransform="matrix(-.5 .866 -2.5981 -1.5 1105.2573 57.7803)" gradientUnits="userSpaceOnUse" r="5.3663"><stop offset="0" stop-color="#f35fa9"/><stop offset=".1088" stop-color="#cc55a1"/><stop offset=".2798" stop-color="#964896"/><stop offset=".4467" stop-color="#693c8d"/><stop offset=".6059" stop-color="#463386"/><stop offset=".7551" stop-color="#2d2d81"/><stop offset=".8906" stop-color="#1d297e"/><stop offset="1" stop-color="#18287d"/></radialGradient><radialGradient id="h" cx="446.4641" cy="161.5574" gradientTransform="matrix(-.5 .866 -2.5981 -1.5 1089.4347 17.2443)" gradientUnits="userSpaceOnUse" r="2.5244"><stop offset="0" stop-color="#f35fa9"/><stop offset=".0989" stop-color="#ec5da8"/><stop offset=".2394" stop-color="#da59a4"/><stop offset=".4048" stop-color="#bb519e"/><stop offset=".5894" stop-color="#904695"/><stop offset=".7897" stop-color="#5a388a"/><stop offset="1" stop-color="#18287d"/></radialGradient><radialGradient id="i" cx="462.1508" cy="157.3208" gradientTransform="matrix(-.5 .866 -2.5981 -1.5 1101.9576 -6.9323)" gradientUnits="userSpaceOnUse" r="7.7391"><stop offset="0" stop-color="#f35fa9"/><stop offset=".3022" stop-color="#a84c9a"/><stop offset=".6396" stop-color="#5b398a"/><stop offset=".8808" stop-color="#2b2d81"/><stop offset="1" stop-color="#18287d"/></radialGradient><radialGradient id="j" cx="413.34" cy="153.0956" gradientTransform="matrix(-.5 .866 -2.5981 -1.5 1017.764 24.776)" gradientUnits="userSpaceOnUse" r="3.8153"><stop offset="0" stop-color="#da2477"/><stop offset=".2254" stop-color="#a82579"/><stop offset=".6002" stop-color="#5b277b"/><stop offset=".8677" stop-color="#2b287c"/><stop offset="1" stop-color="#18287d"/></radialGradient><radialGradient id="k" cx="399.639" cy="143.3782" gradientTransform="matrix(-.5 -.866 1.7321 -1 351.1203 632.8539)" gradientUnits="userSpaceOnUse" r="4.1346"><stop offset="0" stop-color="#da2477"/><stop offset=".2236" stop-color="#ac2578"/><stop offset=".7605" stop-color="#42277c"/><stop offset="1" stop-color="#18287d"/></radialGradient><linearGradient id="l"><stop offset="0" stop-color="#208560"/><stop offset="1" stop-color="#1b8c65"/></linearGradient><linearGradient id="m" gradientTransform="matrix(.7544 -.547 .5738 .7914 -86.8152 66.8745)" gradientUnits="userSpaceOnUse" x1="231.2191" x2="324.5011" xlink:href="#l" y1="283.7855" y2="283.7855"/><linearGradient id="n" gradientUnits="userSpaceOnUse" x1="250.4046" x2="320.8563" xlink:href="#l" y1="139.4712" y2="139.4712"/><linearGradient id="o" gradientUnits="userSpaceOnUse" x1="251.0087" x2="320.2706" xlink:href="#l" y1="139.4712" y2="139.4712"/><linearGradient id="p"><stop offset="0" stop-color="#1e80a8"/><stop offset="1" stop-color="#1b8c65"/></linearGradient><linearGradient id="q" gradientUnits="userSpaceOnUse" x1="251.5991" x2="319.7086" xlink:href="#p" y1="139.4712" y2="139.4712"/><linearGradient id="r" gradientUnits="userSpaceOnUse" x1="252.1854" x2="319.1244" xlink:href="#p" y1="139.4712" y2="139.4712"/><linearGradient id="s" gradientUnits="userSpaceOnUse" x1="252.7489" x2="318.5944" xlink:href="#p" y1="139.4712" y2="139.4712"/><linearGradient id="t" gradientUnits="userSpaceOnUse" x1="253.3238" x2="318.0313" xlink:href="#p" y1="139.4712" y2="139.4712"/><linearGradient id="u" gradientUnits="userSpaceOnUse" x1="253.9905" x2="317.4207" xlink:href="#p" y1="139.4712" y2="139.4712"/><linearGradient id="v" gradientUnits="userSpaceOnUse" x1="254.7775" x2="316.6224" xlink:href="#p" y1="139.4705" y2="139.4705"/><linearGradient id="w" gradientUnits="userSpaceOnUse" x1="255.687" x2="315.6834" xlink:href="#p" y1="139.4666" y2="139.4666"/><linearGradient id="x" gradientUnits="userSpaceOnUse" x1="256.7286" x2="314.6075" xlink:href="#p" y1="139.4654" y2="139.4654"/><linearGradient id="y" gradientUnits="userSpaceOnUse" x1="257.9185" x2="313.3864" xlink:href="#p" y1="139.4666" y2="139.4666"/><linearGradient id="z" gradientUnits="userSpaceOnUse" x1="259.2813" x2="312.001" xlink:href="#p" y1="139.4688" y2="139.4688"/><linearGradient id="A" gradientUnits="userSpaceOnUse" x1="260.8517" x2="310.4236" xlink:href="#p" y1="139.4697" y2="139.4697"/><linearGradient id="B" gradientUnits="userSpaceOnUse" x1="262.6784" x2="308.6096" xlink:href="#p" y1="139.467" y2="139.467"/><linearGradient id="C" gradientUnits="userSpaceOnUse" x1="264.8322" x2="306.4796" xlink:href="#p" y1="139.4608" y2="139.4608"/><linearGradient id="D" gradientUnits="userSpaceOnUse" x1="267.4272" x2="303.9071" xlink:href="#l" y1="139.4542" y2="139.4542"/><linearGradient id="E" gradientUnits="userSpaceOnUse" x1="270.7006" x2="300.6495" xlink:href="#l" y1="139.4483" y2="139.4483"/><linearGradient id="F" gradientUnits="userSpaceOnUse" x1="277.125" x2="294.2336" xlink:href="#l" y1="139.4427" y2="139.4427"/><linearGradient id="G"><stop offset="0" stop-color="#a85b2c"/><stop offset=".0738" stop-color="#ae6c2f"/><stop offset=".2626" stop-color="#bd9135"/><stop offset=".4516" stop-color="#c8ae3a"/><stop offset=".6385" stop-color="#d0c23d"/><stop offset=".8225" stop-color="#d4cf3f"/><stop offset="1" stop-color="#d6d340"/></linearGradient><linearGradient id="H" gradientUnits="userSpaceOnUse" x1="264.3125" x2="306.7708" xlink:href="#G" y1="139.0105" y2="139.0105"/><linearGradient id="I" gradientUnits="userSpaceOnUse" x1="266.8778" x2="305.4509" xlink:href="#G" y1="137.1592" y2="137.1592"/><linearGradient id="J" gradientUnits="userSpaceOnUse" x1="269.3676" x2="305.5466" xlink:href="#G" y1="136.2005" y2="136.2005"/><linearGradient id="K" gradientUnits="userSpaceOnUse" x1="272.0877" x2="304.6483" xlink:href="#G" y1="134.7331" y2="134.7331"/><linearGradient id="L" gradientUnits="userSpaceOnUse" x1="274.8508" x2="303.8697" xlink:href="#G" y1="133.374" y2="133.374"/><linearGradient id="M" gradientUnits="userSpaceOnUse" x1="278.215" x2="303.1222" xlink:href="#G" y1="132.436" y2="132.436"/><linearGradient id="N" gradientUnits="userSpaceOnUse" x1="282.192" x2="302.8666" xlink:href="#G" y1="132.2337" y2="132.2337"/><linearGradient id="O" gradientUnits="userSpaceOnUse" x1="264.3485" x2="303.6284" xlink:href="#G" y1="139.7366" y2="139.7366"/><linearGradient id="P" gradientUnits="userSpaceOnUse" x1="264.4584" x2="301.0291" xlink:href="#G" y1="140.7594" y2="140.7594"/><linearGradient id="Q" gradientUnits="userSpaceOnUse" x1="264.5566" x2="297.3474" xlink:href="#G" y1="141.0536" y2="141.0536"/><linearGradient id="R" gradientUnits="userSpaceOnUse" x1="264.7484" x2="294.54" xlink:href="#G" y1="141.9924" y2="141.9924"/><linearGradient id="S" gradientTransform="matrix(.9697 -.0404 -.0404 .9462 6.9953 9.3168)" gradientUnits="userSpaceOnUse" x1="271.2307" x2="299.7991" xlink:href="#G" y1="152.4919" y2="152.4919"/><linearGradient id="T" gradientUnits="userSpaceOnUse" x1="265.2337" x2="287.6651" xlink:href="#G" y1="143.0984" y2="143.0984"/><path d="m190.311 96.569c0 51.772-41.97 93.742-93.742 93.742s-93.742-41.97-93.742-93.742 41.97-93.742 93.742-93.742 93.742 41.97 93.742 93.742zm-77.645-34.136c-4.885-2.313-10.343-3.607-16.097-3.607-20.812 0-37.743 16.931-37.743 37.743s16.931 37.743 37.743 37.743 37.744-16.931 37.744-37.743c0-15.058-8.863-28.084-21.647-34.136" fill="#56524f"/><path d="m96.569 193.138c-53.249 0-96.569-43.321-96.569-96.569s43.32-96.569 96.569-96.569 96.57 43.32 96.57 96.569-43.321 96.569-96.57 96.569zm0-192.973c-53.157 0-96.404 43.247-96.404 96.404 0 53.158 43.247 96.404 96.404 96.404 53.158 0 96.405-43.246 96.405-96.404 0-53.157-43.248-96.404-96.405-96.404z" fill="#0f1417"/><path d="m96.57 113.301c-9.226 0-16.733-7.507-16.733-16.733s7.507-16.732 16.733-16.732 16.732 7.506 16.732 16.732-7.506 16.733-16.732 16.733zm0-32.325c-8.598 0-15.593 6.995-15.593 15.592 0 8.598 6.995 15.593 15.593 15.593 8.597 0 15.592-6.995 15.592-15.593 0-8.597-6.995-15.592-15.592-15.592z" fill="#a198a0"/><path d="m96.57 110.069c-7.445 0-13.5-6.056-13.5-13.5s6.056-13.5 13.5-13.5c7.443 0 13.499 6.056 13.499 13.5s-6.056 13.5-13.499 13.5zm0-25.86c-6.815 0-12.36 5.545-12.36 12.36s5.545 12.36 12.36 12.36c6.814 0 12.359-5.545 12.359-12.36s-5.545-12.36-12.359-12.36z" fill="#a198a0"/><path d="m2.795 96.569c0 51.772 41.97 93.742 93.742 93.742s93.742-41.97 93.742-93.742l.255-.375h-56.221c0 20.812-16.356 37.743-37.168 37.743s-37.743-16.931-37.743-37.743h-56.797" fill="#1e1c1a"/><path clip-rule="evenodd" d="m153.725 108.412-5.929-6.471-2.694 2.806 1.293 1.076-1.544 7.788 3.099-1.239-1.599-1.35.887-4.119 6.245 6.559 2.156-8.943 2.183-1.204-2.639-1.463zm5.222-5.386c.186.192.421.438.367.7l-.729 3.498c-.057.274-.324.472-.532.609s-.465.173-.721.21c.221.079.443.158.591.305.15.146.355.355.3.575l-.834 3.407c-.078.314-.43.511-.679.682-.25.171-.535.258-.82.346h9.976l.701-3.409c-.383.708-.768 1.415-1.421 1.869-.655.453-1.551.852-2.501.852h-1.827l.912-4.217c.332-.104.706-.093 1.044.057.339.149.64.438.912.752.269.314.508.653.697 1.011l.956-4.436c-.326.326-.69.621-1.081.886-.392.266-.811.502-1.203.62-.394.118-.759.118-1.098.027l.945-4.152 1.471-.013c.666-.005 1.331-.078 1.867.322.539.401.951 1.243 1.36 2.084l.728-3.039h-10.14c.284.128.57.261.759.454zm11.95 1.064c-.746.579-1.419 1.35-1.867 2.19s-.675 1.751-.686 2.584c-.01.835.192 1.595.565 2.292.374.697.918 1.331 1.59 1.758.674.429 1.474.654 2.208.756.734.103 1.402.085 1.932.018.53-.069.92-.184 1.276-.365l2.104-3.985c-.545.234-1.099.446-1.674.662s-1.171.437-1.803.506c-.632.068-1.3-.012-1.893-.333s-1.111-.883-1.38-1.513c-.269-.628-.288-1.325-.1-1.954s.585-1.19 1.068-1.682c.482-.491 1.049-.913 1.576-1.191.527-.279 1.014-.414 1.511-.446l1.59 2.086 1.829-.622-1.282-2.859c-.361-.012-.725.002-1.155.044s-.927.114-1.443.235c-.515.12-1.05.29-1.726.569-.676.28-1.495.67-2.24 1.25z" fill="#56524f" fill-rule="evenodd"/><path d="m44.318 101.521c-.002.095-.006.172-.009.2-.024.213 0 .314-.615.314s-.591-.101-.615-.314c-.007-.069-.015-.449-.014-.627s.007-.557.014-.627c.024-.213 0-.314.615-.314s.591.101.615.314c.004.029.007.113.009.213h.841c-.005-.191-.014-.35-.024-.433-.048-.427.12-.835-1.441-.835s-1.392.408-1.441.835c-.016.139-.03.491-.029.847.001.355.013.708.029.847.048.427-.12.835 1.441.835s1.393-.408 1.441-.835c.01-.081.017-.235.022-.42z" fill="#56524f"/><path d="m34.336 99.498-.821 2.398-.822-2.398-1.229-.007v3.219h.822v-2.398l.821 2.398h.822l.814-2.398v2.398h.822v-3.219z" fill="#56524f"/><path d="m45.344 99.491h2.361v.821h-.769v2.398h-.823v-2.398h-.769z" fill="#56524f"/><path d="m39.012 102.71.942-3.222h1.225l.944 3.222h-.821l-.194-.666h-1.078l.152-.523h.771l-.382-1.312-.737 2.501z" fill="#56524f"/><path d="m29.486 100.153c.615 0 .591.101.615.314.008.069.013.449.014.627s-.006.557-.014.627c-.024.213 0 .314-.615.314s-.591-.101-.615-.314c-.008-.069-.015-.449-.014-.627s.006-.557.014-.627c.024-.213 0-.314.615-.314l.001-.741c-1.561 0-1.392.409-1.441.835-.016.139-.03.491-.029.847.001.355.013.708.029.847.048.427-.12.835 1.441.835s1.392-.408 1.441-.835c.016-.139.027-.491.029-.847.001-.355-.013-.708-.029-.847-.049-.427.12-.835-1.441-.835z" fill="#56524f"/><path d="m26.713 101.521c-.002.095-.005.172-.008.2-.024.213 0 .314-.615.314s-.591-.101-.615-.314c-.008-.069-.016-.449-.015-.627s.007-.557.015-.627c.024-.213 0-.314.615-.314s.591.101.615.314c.003.029.006.113.008.213h.842c-.005-.191-.015-.35-.024-.433-.049-.427.119-.835-1.441-.835-1.561 0-1.392.408-1.441.835-.016.139-.03.491-.029.847.001.355.013.708.029.847.049.427-.119.835 1.441.835 1.561 0 1.392-.408 1.441-.835.009-.081.017-.235.022-.42z" fill="#56524f"/><path d="m37.565 101.974h-.498v-.734l.498-.003c.615 0 .596-.101.62-.314.008-.069.007-.012.006-.19s.002-.117-.006-.186c-.024-.213-.005-.314-.62-.314l-.499.001.001 2.473h-.824v-3.215h1.321c1.561 0 1.389.41 1.446.835.007.05.007.283.007.408 0 .101 0 .333-.007.407-.038.428.116.832-1.445.832z" fill="#56524f"/><path d="m21.591 114.83-5.141-.006c-.744 0-1.347-.603-1.347-1.346v-7.821c0-.743.603-1.346 1.347-1.346l3.218-.004c.386 0 .7-.313.7-.699l.009-3.127c0-.162.131-.293.293-.293h1.886c.162 0 .293.131.293.293l.019 14.056c0 .162-.131.293-.293.293h-.984l-.024.698h1.287c.386 0 .699-.313.699-.699v-14.645c0-.386-.313-.7-.699-.7h-2.475c-.386 0-.7.313-.7.699l.003 3.135c0 .162-.131.293-.293.293l-2.94-.005c-1.134 0-2.053.919-2.053 2.052v7.821c0 1.133.919 2.052 2.053 2.052l5.117-.001z" fill="#56524f"/><path d="m19.679 111.951v-5.059c0-.424-.344-.768-.768-.768s-.768.344-.768.768v5.461c0 .424.344.768.768.768s.768-.344.768-.768v-.402l.698.024v.377c0 .81-.657 1.466-1.467 1.466s-1.467-.656-1.467-1.466v-5.461c0-.809.657-1.465 1.467-1.465s1.467.656 1.467 1.465v5.084z" fill="#56524f"/><path d="m26.478 114.83h-.963c-.161 0-.293-.132-.293-.293l.012-9.926c0-.162.132-.293.293-.293h1.886c.162 0 .294.131.294.293l.019 9.925c0 .162-.132.293-.293.293l-.955.001v.695l1.233.001c.387 0 .7-.313.7-.699v-10.515c0-.386-.313-.699-.7-.699h-2.475c-.386 0-.699.313-.699.699l-.001 10.512c0 .386.31.699.697.699l1.246.001z" fill="#56524f"/><path d="m35.365 106.27-2.072-.003c-.638 0-1.155.517-1.155 1.154s.517 1.154 1.155 1.154l2.84.008c.744 0 1.346.602 1.346 1.346l-.009 3.532c0 .744-.604 1.346-1.347 1.346l-5.636.01c-.162 0-.294-.132-.294-.293v-1.368c0-.162.132-.293.294-.293l3.841-.013c.638 0 1.155-.517 1.155-1.154s-.518-1.154-1.155-1.154l-2.781-.011c-.744 0-1.346-.602-1.346-1.346v-3.529c0-.743.603-1.346 1.346-1.346l5.225-.024c.161 0 .293.131.293.293v1.399c0 .162-.132.293-.293.293l-1.407-.001-.024.688 1.718.001c.387 0 .7-.311.7-.697l.002-1.96c0-.386-.313-.699-.699-.699l-5.516.002c-1.134 0-2.053.919-2.053 2.052v3.529c0 1.133.919 2.052 2.053 2.052l2.781-.005c.256 0 .464.208.464.464s-.208.464-.464.464l-4.14-.001c-.387 0-.7.313-.7.699v1.956c0 .386.313.699.7.699l5.935-.001c1.134 0 2.053-.918 2.053-2.052l.01-3.532c0-1.133-.919-2.052-2.053-2.052l-2.84.008c-.256 0-.464-.207-.464-.464 0-.256.208-.463.464-.463h2.049z" fill="#56524f"/><path d="m45.809 108.211h.89c.162 0 .293-.131.293-.293l-.004-2.261c0-.743-.603-1.346-1.347-1.346h-4.453c-.744 0-1.347.603-1.347 1.346v7.821c0 .743.603 1.346 1.347 1.346h4.453c.744 0 1.347-.603 1.347-1.346l.004-2.149c0-.162-.131-.293-.293-.293h-1.68c-.162 0-.293.131-.293.293l.009 1.024c0 .81-.51 1.466-1.32 1.466s-1.32-.656-1.32-1.466v-5.461c0-.809.51-1.465 1.32-1.465s1.32.656 1.32 1.465l-.009 1.027c0 .162.131.293.293.293l.79-.001-.024.705h-1.057c-.387 0-.7-.313-.7-.699l.008-1.325c0-.424-.197-.768-.621-.768s-.621.344-.621.768v5.461c0 .424.197.768.621.768s.621-.344.621-.768l-.008-1.323c0-.386.313-.699.7-.699h2.268c.387 0 .7.313.7.699l-.001 2.448c0 1.133-.92 2.052-2.054 2.052h-4.453c-1.134 0-2.054-.918-2.054-2.052v-7.821c0-1.133.92-2.052 2.054-2.052h4.453c1.134 0 2.054.919 2.054 2.052l.001 2.559c0 .386-.313.699-.7.699h-1.211z" fill="#56524f"/><path clip-rule="evenodd" d="m139.833 145.923c-.752-.648-1.62-.966-2.61-.966h-10.927c-.423-.001-.83.044-1.246.166-.806.239-1.459.669-1.993 1.31-.543.648-.916 1.393-.926 2.227-.035 2.847-.011 5.694-.017 8.54-.001.203.06.254.256.253 1.154-.009 2.306-.013 3.459.001.263.005.341-.052.338-.329-.013-2.49-.012-4.98-.004-7.469 0-.585.243-1.05.797-1.298.286-.13.605-.145.914-.153.52-.013 1.041.014 1.561-.011.287-.014.346.081.344.353-.009 2.888-.003 5.774-.011 8.662 0 .234.052.309.299.306 1.092-.014 2.184-.014 3.275.001.253.003.295-.083.295-.311-.008-2.072-.005-4.143-.005-6.213 0-.848.001-1.695-.001-2.541 0-.135-.023-.265.191-.252.709.04 1.419-.002 2.131.044.763.048 1.3.695 1.295 1.477-.012 2.47 0 4.939-.009 7.407-.001.244.041.332.31.327 1.143-.016 2.284-.015 3.429 0 .258.004.315-.07.314-.32-.009-2.683-.009-5.368-.004-8.051-.001-1.279-.489-2.326-1.455-3.16zm.241 10.675c-.55-.021-1.102-.017-1.652-.001-.222.006-.268-.067-.267-.276.007-2.205.016-4.409-.001-6.613-.006-.842-.349-1.542-1.08-2.002-.377-.238-.811-.348-1.253-.356-.938-.017-1.878.004-2.815-.012-.244-.004-.302.066-.302.305.009 2.888.002 5.775.012 8.662.001.271-.056.371-.345.354-.458-.027-.919-.024-1.377 0-.268.013-.31-.082-.31-.326.009-2.878 0-5.756.013-8.634.001-.299-.074-.369-.367-.363-.908.02-1.817-.014-2.724.013-.836.026-1.547.341-2.005 1.08-.246.397-.36.844-.36 1.313-.003 2.174-.006 4.347.006 6.521.001.268-.06.347-.334.335-.549-.023-1.101-.013-1.652-.003-.166.002-.229-.038-.229-.219.006-2.561-.016-5.123.013-7.684.013-1.238 1.028-2.342 2.128-2.65.448-.126.885-.169 1.34-.168 1.734.003 3.47.001 5.204.001 1.878 0 3.755-.023 5.633.009 1.14.019 2.02.568 2.627 1.539.284.454.386.961.387 1.487.003 2.46-.001 4.92.005 7.378 0 .227-.04.319-.295.31zm-82.71-11.586c-3.378.009-6.755.007-10.133.005-.81 0-1.62-.006-2.424.122-.898.141-1.719.47-2.456.994-.856.608-1.508 1.383-2.001 2.327-.687 1.314-.816 2.697-.567 4.102.236 1.336.885 2.486 1.935 3.398 1.152 1 2.468 1.536 3.989 1.546 1.887.012 3.775.002 5.663.002 2.021 0 4.04-.003 6.06.006.216 0 .274-.056.272-.271-.013-.858-.016-1.714.001-2.571.005-.269-.055-.356-.344-.354-3.571.011-7.142.002-10.713.01-1.024.002-1.84-.4-2.471-1.189-.465-.582-.663-1.277-.608-1.997.059-.786.362-1.495.988-2.034.537-.463 1.133-.781 1.852-.783 3.663-.005 7.326-.005 10.989.003.234.001.31-.05.307-.297-.016-.899-.021-1.796.001-2.694.009-.285-.086-.325-.34-.325zm-.58 2.107c.021.271-.053.356-.343.355-2.775-.012-5.551-.006-8.327-.006-.541 0-1.083.019-1.623-.005-1.495-.07-3.02 1.151-3.504 2.449-.519 1.393-.328 2.672.532 3.829.542.729 1.302 1.213 2.228 1.386.191.037.378.054.569.054 3.378 0 6.755.005 10.134-.005.267-.001.36.058.334.332-.027.273-.023.552-.001.826.02.249-.048.326-.312.325-1.848-.014-3.694-.008-5.541-.008-1.745 0-3.49.014-5.235-.004-1.253-.012-2.354-.442-3.32-1.255-.821-.689-1.377-1.543-1.639-2.564-.43-1.689-.202-3.27.842-4.717.825-1.143 1.952-1.774 3.284-2.09.31-.073.642-.081.964-.082 3.541-.006 7.082 0 10.623-.011.268 0 .359.061.334.335-.025.283-.021.572.001.856zm43.526 7.145c-.118-.805-.424-1.537-.89-2.199-.115-.161-.072-.272.018-.372.25-.282.417-.612.558-.952.341-.831.503-1.678.271-2.58-.237-.925-.688-1.69-1.444-2.288-.753-.595-1.6-.906-2.548-.912-2.286-.014-4.572-.004-6.857-.004-2.388 0-4.777.002-7.164-.005-.221 0-.314.031-.314.29.01 4 .009 8.001.002 12.002 0 .214.055.273.27.271 1.153-.011 2.307-.013 3.46.001.248.003.326-.05.324-.313-.015-1.203.002-2.407-.014-3.613-.003-.264.078-.311.325-.31 2.663.009 5.327.004 7.99.007.293.001.581.006.876.05.712.104 1.163.76 1.165 1.319.001.866.005 1.733-.004 2.6-.001.198.049.26.252.258 1.184-.009 2.368-.01 3.551.001.215.002.248-.078.246-.265-.01-.735.002-1.468-.007-2.205-.004-.26-.029-.524-.066-.781zm-1.141 2.393c-.561-.014-1.122-.014-1.684 0-.197.006-.237-.064-.234-.245.01-.643-.012-1.287.008-1.929.022-.705-.636-1.679-1.393-1.939-.359-.124-.713-.183-1.092-.182-3.143.008-6.286.009-9.43-.004-.291-.001-.346.088-.342.356.014 1.224 0 2.449.011 3.673.002.219-.059.277-.272.271-.52-.016-1.041-.02-1.561.001-.252.01-.322-.056-.322-.315.01-3.062.006-6.123.006-9.185 0-.295.021-.593-.005-.887-.028-.307.054-.407.386-.404 2.183.017 4.367.008 6.551.008 2.164 0 4.327-.018 6.492.007 1.399.016 2.69 1.012 3.047 2.419.322 1.273-.028 2.354-.949 3.264-.185.183-.281.299-.046.536.28.282.508.617.687.979.224.453.379.92.372 1.433-.009.633-.008 1.265.002 1.899.004.176-.033.25-.232.244zm-24.9-10.468c-.946-.673-1.991-1.151-3.158-1.16-4.06-.03-8.12-.01-12.18-.017-.249 0-.322.055-.322.314.01 3.957.01 7.916 0 11.873 0 .259.068.317.32.316 2.071-.011 4.142-.007 6.213-.007h5.968c.222 0 .439-.01.661-.054 1.656-.325 2.963-1.192 3.935-2.553.627-.875.955-1.872 1.107-2.941.142-.994-.001-1.947-.336-2.869-.433-1.187-1.172-2.163-2.208-2.902zm1.186 7.421c-.23.456-.499.882-.827 1.28-.398.481-.872.856-1.412 1.151-.638.345-1.32.596-2.048.605-1.886.022-3.773.007-5.661.007-1.918 0-3.836-.004-5.753.006-.229.001-.287-.057-.287-.286.008-3.386.008-6.772 0-10.159-.001-.238.072-.281.292-.281 3.733.006 7.466-.024 11.2.02 1.184.014 2.254.49 3.147 1.299.718.652 1.292 1.406 1.588 2.344.125.398.243.798.256 1.226.032.966-.05 1.909-.495 2.788zm44.205-6.729c-.505-.54-1.1-.968-1.77-1.273-.749-.341-1.53-.591-2.368-.591-1.49.001-2.98.001-4.471.001-1.275 0-2.551-.006-3.827.003-.434.002-.868-.03-1.304.054-1.269.239-2.389.767-3.318 1.672-.619.602-1.092 1.306-1.421 2.105-.526 1.273-.622 2.593-.285 3.916.346 1.35 1.062 2.491 2.175 3.371 1.144.904 2.441 1.36 3.887 1.367 2.796.014 5.593.008 8.389.001.411 0 .819-.069 1.22-.165.852-.206 1.626-.561 2.339-1.095.886-.662 1.545-1.487 1.979-2.488.487-1.124.647-2.295.444-3.519-.216-1.299-.777-2.408-1.669-3.359zm.764 5.448c-.237 1.224-.845 2.229-1.775 3.033-.584.505-1.259.857-2.022 1.058-.587.155-1.174.171-1.768.171h-3.795c-1.378 0-2.756-.026-4.132.006-2.237.052-4.254-1.409-4.978-3.412-.679-1.878-.432-3.639.746-5.236.743-1.005 1.768-1.653 2.993-1.933.396-.091.804-.151 1.224-.149 2.878.015 5.756-.025 8.632.024 1.15.02 2.19.47 3.085 1.236.616.526 1.104 1.142 1.427 1.874.469 1.065.587 2.176.363 3.328zm28.496-5.967c-1.265.007-2.53.003-3.794.003h-.374c.12-.207.267-.185.403-.185.581 0 1.163-.003 1.745.003.224.002.438-.045.648-.109 1.277-.394 1.849-1.653 1.604-2.85-.251-1.23-1.133-1.891-2.346-1.933-1.356-.043-2.713-.006-4.07-.013-.268-.001-.358.113-.353.369.01.5.016 1-.003 1.499-.009.234.064.286.289.284 1.091-.013 2.183-.006 3.274-.006.362 0 .543.112.545.337.002.252-.135.338-.552.338-.592 0-1.184-.011-1.775.005-.249.006-.505.028-.741.1-1.095.329-1.566 1.211-1.639 2.307-.041.609-.001 1.223-.01 1.835-.003.169.042.226.22.226 2.306-.005 4.61-.006 6.916 0 .217.002.285-.074.281-.285-.01-.562-.014-1.123.002-1.683.004-.219-.087-.243-.27-.242zm-.162 1.604c.009.189-.05.268-.239.236-.009-.002-.02 0-.03 0h-3.03c-.989 0-1.978-.011-2.967.007-.293.005-.362-.092-.357-.369.011-.607.008-1.211.127-1.81.104-.526.611-1.261 1.26-1.393.329-.067.651-.113.984-.111.581.004 1.163.004 1.745.001.373-.002.707-.306.728-.655.026-.444-.214-.736-.626-.819-.282-.055-.563-.055-.844-.055-.805-.001-1.612-.012-2.417.006-.238.005-.301-.07-.281-.293.019-.212.021-.429-.001-.641-.029-.292.11-.363.371-.361 1.101.006 2.203.004 3.303.001.264 0 .514.04.772.105.769.194 1.233.689 1.428 1.427.288 1.101-.293 2.198-1.503 2.499-.078.018-.162.012-.243.012-.664.001-1.326-.002-1.99.001-.461.003-.887.385-.913.789-.012.197.047.264.251.255.397-.014.795-.005 1.193-.005 1 0 2 .01 2.999-.005.237-.004.295.069.281.291-.02.295-.016.592-.001.887zm-68.38 1.955c-.43-.272-.935-.248-1.43-.254-1.089-.016-2.05 1.184-1.684 2.27.275.815.897 1.245 2.006 1.288.144.049.327-.033.514-.069 1.013-.191 1.385-.849 1.471-1.487.092-.699-.124-1.272-.877-1.748zm-.086 1.856c-.108.33-.366.495-.692.521-.339.027-.684.023-1.021-.06-.285-.07-.587-.521-.551-.819.057-.458.347-.764.728-.769h.427c.312.021.667-.072.959.236.266.28.254.571.15.891zm15.157-4.362c-3.378-.023-6.756-.007-10.135-.013-.208 0-.25.069-.249.26.009.918.014 1.838-.001 2.755-.004.243.064.303.303.302 1.684-.011 3.367-.006 5.052-.006 1.52 0 3.04.001 4.561 0 .422-.001.829-.013 1.245-.166.696-.257 1.216-1.117.985-1.868-.276-.901-.892-1.257-1.761-1.264zm.608 2.208c-.208.122-.416.175-.658.175-3.01-.007-6.021-.01-9.031.005-.332.002-.415-.099-.386-.405.025-.262.022-.531 0-.795-.02-.235.064-.285.289-.283 1.582.01 3.163.005 4.745.005h4.714c.35 0 .586.17.667.479.105.396.006.616-.34.819zm-23.867-1.348c-.615-.494-1.328-.841-2.101-.853-2.704-.041-5.408-.013-8.113-.02-.236-.001-.306.052-.305.299.01 2.398.01 4.797-.001 7.194-.001.255.085.295.311.293 1.367-.01 2.735-.006 4.102-.006 1.347 0 2.695-.004 4.042.005.307.002.615-.04.885-.148 1.484-.603 2.423-1.689 2.59-3.295.145-1.371-.298-2.574-1.41-3.469zm-1.818 6.044c-.076.02-.161.007-.244.007h-3.582c-1.214 0-2.429-.005-3.642.005-.222 0-.316-.031-.314-.291.013-1.817.01-3.632.001-5.449 0-.214.056-.271.271-.271 2.337.009 4.674-.024 7.01.016 1.481.025 2.57.789 2.868 2.37.313 1.66-.532 3.119-2.368 3.613zm43.861-6.914c-1.061.006-2.121.001-3.183.001-.969 0-1.938.005-2.906-.002-.75-.006-1.477.068-2.155.428-.771.408-1.378.984-1.741 1.772-.317.69-.446 1.412-.332 2.193.117.807.426 1.499.96 2.089.814.901 1.865 1.289 3.063 1.294 1.866.008 3.733.005 5.6 0 .455-.001.91.022 1.365-.054.789-.133 1.499-.43 2.084-.977.704-.657 1.11-1.456 1.228-2.439.108-.885-.058-1.692-.507-2.414-.787-1.272-1.967-1.9-3.476-1.891zm2.18 6.127c-.636.581-1.415.77-2.24.787-1.04.022-2.081.006-3.122.006-.989 0-1.979.007-2.969-.002-.719-.008-1.413-.122-2.03-.532-.735-.49-1.172-1.166-1.33-2.036-.163-.9.086-1.694.624-2.392.511-.664 1.217-1.078 2.057-1.089 2.377-.03 4.754-.012 7.131-.01.675.001 1.257.228 1.792.654.556.441.89 1.001 1.039 1.671.257 1.157-.075 2.141-.952 2.943z" fill="#56524f" fill-rule="evenodd"/><path d="m96.569 134.312c-20.812 0-37.743-16.931-37.743-37.743s16.931-37.743 37.743-37.743 37.744 16.931 37.744 37.743-16.932 37.743-37.744 37.743zm0-74.346c-20.183 0-36.603 16.42-36.603 36.603s16.42 36.603 36.603 36.603 36.604-16.42 36.604-36.603c0-20.184-16.421-36.603-36.604-36.603z"/><path d="m133.743 96.569c0 20.53-16.643 37.173-37.174 37.173s-37.173-16.643-37.173-37.173 16.643-37.174 37.173-37.174 37.174 16.643 37.174 37.174zm-37.174-32.325c-17.852 0-32.325 14.472-32.325 32.325s14.472 32.325 32.325 32.325 32.325-14.472 32.325-32.325-14.472-32.325-32.325-32.325z" fill="#706b67"/><path d="m478.259 187.298c0 3.213-2.628 5.84-5.84 5.84h-88.614c-3.213 0-5.84-2.628-5.84-5.84v-143.092c0-3.213 2.628-5.84 5.84-5.84h88.614c3.212 0 5.84 2.628 5.84 5.84z" fill="#e6e6e6"/><path d="m380.66 41.77v70.542c0 3.249 2.628 5.909 5.84 5.909h83.223c3.213 0 5.84-2.659 5.84-5.909v-70.542z" fill="#1c1714"/><path d="m380.66 41.77h94.904v8.055h-94.904z" fill="#22211d"/><path d="m441.603 186.058-13.33-3.993c-.106-.032-.218-.032-.324 0l-13.329 3.993c-.239.071-.402.291-.402.54v3.484c0 .311.252.564.564.564h26.659c.311 0 .564-.252.564-.564v-3.484c0-.249-.163-.469-.402-.54z" fill="#d3d3d3"/><g fill="#d1ad2d"><path d="m383.193 43.749h1.358v5.365h-1.358z"/><path d="m385.585 42.909h1.357v6.205h-1.357z"/><path d="m387.976 42.909h1.357v6.205h-1.357z"/><path d="m390.368 42.909h1.357v6.205h-1.357z"/><path d="m392.759 42.909h1.358v6.205h-1.358z"/><path d="m395.15 42.909h1.357v6.205h-1.357z"/><path d="m397.542 42.909h1.357v6.205h-1.357z"/><path d="m399.933 42.909h1.357v6.205h-1.357z"/><path d="m402.324 42.909h1.358v6.205h-1.358z"/><path d="m404.715 42.909h1.357v6.205h-1.357z"/><path d="m407.107 42.909h1.357v6.205h-1.357z"/><path d="m409.498 42.909h1.358v6.205h-1.358z"/><path d="m411.889 42.909h1.357v6.205h-1.357z"/><path d="m414.281 42.909h1.357v6.205h-1.357z"/><path d="m416.672 42.909h1.358v6.205h-1.358z"/><path d="m419.063 42.909h1.357v6.205h-1.357z"/><path d="m421.455 42.909h1.357v6.205h-1.357z"/><path d="m423.846 41.77h1.357v8.055h-1.357z"/><path d="m426.237 42.909h1.358v6.205h-1.358z"/><path d="m428.629 42.909h1.357v6.205h-1.357z"/><path d="m431.02 42.909h1.357v6.205h-1.357z"/><path d="m433.412 42.909h1.357v6.205h-1.357z"/><path d="m435.803 42.909h1.358v6.205h-1.358z"/><path d="m438.194 42.909h1.357v6.205h-1.357z"/><path d="m440.586 42.909h1.357v6.205h-1.357z"/><path d="m442.977 42.909h1.358v6.205h-1.358z"/><path d="m445.368 42.909h1.357v6.205h-1.357z"/><path d="m447.76 42.909h1.357v6.205h-1.357z"/><path d="m450.151 42.909h1.357v6.205h-1.357z"/><path d="m452.542 42.909h1.358v6.205h-1.358z"/><path d="m454.934 42.909h1.357v6.205h-1.357z"/><path d="m457.325 42.909h1.357v6.205h-1.357z"/><path d="m459.716 42.909h1.358v6.205h-1.358z"/><path d="m462.108 42.909h1.358v6.205h-1.358z"/><path d="m464.499 42.909h1.357v6.205h-1.357z"/><path d="m466.891 42.909h1.357v6.205h-1.357z"/><path d="m469.281 42.909h1.358v6.205h-1.358z"/><path d="m471.673 41.77h1.357v8.055h-1.357z"/></g><circle cx="383.872" cy="48.512" fill="#1f1713" r=".328"/><circle cx="386.263" cy="48.512" fill="#1f1713" r=".328"/><circle cx="388.654" cy="48.512" fill="#1f1713" r=".328"/><circle cx="391.046" cy="48.512" fill="#1f1713" r=".328"/><circle cx="393.437" cy="48.512" fill="#1f1713" r=".328"/><circle cx="395.828" cy="48.512" fill="#1f1713" r=".328"/><circle cx="398.219" cy="48.512" fill="#1f1713" r=".328"/><circle cx="400.611" cy="48.512" fill="#1f1713" r=".328"/><circle cx="403.002" cy="48.512" fill="#1f1713" r=".328"/><circle cx="405.393" cy="48.512" fill="#1f1713" r=".328"/><circle cx="407.784" cy="48.512" fill="#1f1713" r=".328"/><circle cx="410.176" cy="48.512" fill="#1f1713" r=".328"/><circle cx="412.567" cy="48.512" fill="#1f1713" r=".328"/><circle cx="414.958" cy="48.512" fill="#1f1713" r=".328"/><circle cx="417.349" cy="48.512" fill="#1f1713" r=".328"/><circle cx="419.741" cy="48.512" fill="#1f1713" r=".328"/><circle cx="422.132" cy="48.512" fill="#1f1713" r=".328"/><circle cx="424.523" cy="48.512" fill="#1f1713" r=".328"/><circle cx="426.914" cy="48.512" fill="#1f1713" r=".328"/><circle cx="429.306" cy="48.512" fill="#1f1713" r=".328"/><circle cx="431.697" cy="48.512" fill="#1f1713" r=".328"/><circle cx="434.088" cy="48.512" fill="#1f1713" r=".328"/><circle cx="436.479" cy="48.512" fill="#1f1713" r=".328"/><circle cx="438.871" cy="48.512" fill="#1f1713" r=".328"/><circle cx="441.262" cy="48.512" fill="#1f1713" r=".328"/><circle cx="443.653" cy="48.512" fill="#1f1713" r=".328"/><circle cx="446.044" cy="48.512" fill="#1f1713" r=".328"/><circle cx="448.436" cy="48.512" fill="#1f1713" r=".328"/><circle cx="450.827" cy="48.512" fill="#1f1713" r=".328"/><circle cx="453.218" cy="48.512" fill="#1f1713" r=".328"/><circle cx="455.609" cy="48.512" fill="#1f1713" r=".328"/><circle cx="458.001" cy="48.512" fill="#1f1713" r=".328"/><circle cx="460.392" cy="48.512" fill="#1f1713" r=".328"/><circle cx="462.783" cy="48.512" fill="#1f1713" r=".328"/><circle cx="465.174" cy="48.512" fill="#1f1713" r=".328"/><circle cx="467.566" cy="48.512" fill="#1f1713" r=".328"/><circle cx="469.957" cy="48.512" fill="#1f1713" r=".328"/><circle cx="472.348" cy="48.512" fill="#1f1713" r=".328"/><path d="m442.005 186.598c0-.249-.163-.469-.402-.54l-.695-.208h-25.592l-.695.208c-.239.071-.402.291-.402.54z" fill="#c1c1c1"/><path d="m438.695 185.186h-21.166l2.498-.748h16.231z" fill="#c1c1c1"/><path d="m414.219 187.261h27.787v.748h-27.787z" fill="#c1c1c1"/><path d="m422.24 189.936h11.744v.709h-11.744z" fill="#d3d3d3"/><path d="m460.987 187.274v1.032c0 1.716-1.391 3.107-3.107 3.107h-59.535c-1.716 0-3.107-1.391-3.107-3.107v-1.032c0-2.213-1.794-4.008-4.008-4.008h-3.76c-2.13 0-3.857-1.727-3.857-3.857v-60.639c0-2.13 1.727-3.857 3.857-3.857h81.285c2.13 0 3.857 1.727 3.857 3.857v60.639c0 2.13-1.727 3.857-3.857 3.857h-3.76c-2.213.001-4.008 1.795-4.008 4.008z" fill="#ddd" stroke="#999" stroke-miterlimit="10" stroke-width=".1"/><path d="m442.005 186.598c0-.249-.163-.469-.402-.54l-.695-.208h-25.592l-.695.208c-.239.071-.402.291-.402.54z" fill="#b7b7b7"/><path d="m438.695 185.186h-21.166l2.498-.748h16.231z" fill="#b7b7b7"/><path d="m433.984 183.775h-11.744l2.498-.748h6.747z" fill="#b7b7b7"/><path d="m414.219 187.261h27.787v.709h-27.787z" fill="#b7b7b7"/><path d="m414.219 188.598h27.787v.709h-27.787z" fill="#b7b7b7"/><path d="m442.005 189.936h-27.787v.146c0 .311.252.564.564.564h26.659c.311 0 .564-.252.564-.564z" fill="#b7b7b7"/><path d="m388.612 120.913h79v58.354h-79z" fill="url(#a)"/><path d="m395.657 133.07c0 .53.104.95.311 1.259s.486.464.837.464c.318 0 .574-.121.767-.362.191-.241.288-.562.288-.961 0-.541-.342-.949-1.024-1.226-.137-.055-.242-.098-.317-.128-.549-.232-.91-.49-1.085-.772-.176-.282-.264-.676-.264-1.182 0-.646.143-1.168.427-1.567.285-.398.657-.598 1.116-.598.526 0 .934.205 1.223.613.289.409.434.986.434 1.731v.021h-.635c-.025-.486-.124-.857-.296-1.116s-.406-.387-.705-.387c-.275 0-.495.105-.66.315s-.248.49-.248.838c0 .349.063.605.187.77s.451.338.981.523c.616.215 1.022.472 1.217.769.194.298.292.727.292 1.288 0 .708-.155 1.271-.466 1.688s-.73.626-1.258.626c-.54 0-.961-.226-1.265-.677s-.469-1.094-.493-1.929z" fill="#ededed"/><path d="m399.005 132.701v-4.514h.642v4.57c0 .691.084 1.203.253 1.537.168.333.427.5.774.5.344 0 .6-.169.769-.508.168-.338.252-.848.252-1.529v-4.57h.652v4.514c0 1.012-.137 1.761-.409 2.247-.273.486-.694.729-1.264.729-.564 0-.983-.243-1.258-.729-.274-.486-.411-1.235-.411-2.247z" fill="#ededed"/><path d="m403.116 135.476v-7.289h1.68c.482 0 .848.178 1.096.533.248.356.372.877.372 1.564 0 .366-.041.691-.124.975-.084.284-.207.523-.371.718-.132.154-.282.262-.45.326-.169.063-.449.095-.844.095h-.713v3.078zm1.506-6.396h-.86v2.426h.809c.38 0 .646-.094.796-.282s.226-.501.226-.939c0-.431-.074-.739-.221-.926s-.398-.279-.75-.279z" fill="#ededed"/><path d="m407.038 135.476v-7.289h3.021v.882h-2.376v2.185h2.168v.872h-2.168v2.467h2.431v.882h-3.076z" fill="#ededed"/><path d="m410.865 135.476v-7.289h1.622c.478 0 .842.177 1.092.531.251.354.376.87.376 1.546 0 .4-.055.739-.162 1.016-.108.277-.269.489-.479.636.177.082.305.213.382.392.077.18.126.495.146.946l.052 1.185c.012.256.033.445.064.564.032.12.082.21.15.271v.2h-.733c-.032-.079-.059-.197-.079-.354s-.036-.369-.048-.636l-.034-.944c-.018-.476-.083-.785-.194-.929s-.392-.215-.84-.215h-.666v3.078h-.649zm1.44-6.396h-.792v2.426h.748c.38 0 .646-.094.795-.282.15-.188.226-.501.226-.939 0-.431-.074-.739-.222-.926-.148-.186-.399-.279-.755-.279z" fill="#ededed"/><path d="m419.149 133.07c0 .53.104.95.311 1.259s.486.464.837.464c.318 0 .574-.121.767-.362.191-.241.288-.562.288-.961 0-.541-.342-.949-1.024-1.226-.137-.055-.242-.098-.317-.128-.549-.232-.91-.49-1.085-.772-.176-.282-.264-.676-.264-1.182 0-.646.143-1.168.427-1.567.285-.398.657-.598 1.116-.598.526 0 .934.205 1.223.613.289.409.434.986.434 1.731v.021h-.635c-.025-.486-.124-.857-.296-1.116s-.406-.387-.705-.387c-.275 0-.495.105-.66.315s-.248.49-.248.838c0 .349.063.605.187.77s.451.338.981.523c.616.215 1.022.472 1.217.769.194.298.292.727.292 1.288 0 .708-.155 1.271-.466 1.688s-.73.626-1.258.626c-.54 0-.961-.226-1.265-.677s-.469-1.094-.493-1.929z" fill="#ededed"/><path d="m424.533 135.476h-.651v-2.888l-1.663-4.411h.775l1.212 3.452 1.194-3.452h.728l-1.595 4.35z" fill="#ededed"/><path d="m426.98 133.07c0 .53.104.95.311 1.259s.486.464.837.464c.318 0 .574-.121.767-.362.191-.241.288-.562.288-.961 0-.541-.342-.949-1.024-1.226-.137-.055-.242-.098-.317-.128-.549-.232-.91-.49-1.085-.772-.176-.282-.264-.676-.264-1.182 0-.646.143-1.168.427-1.567.285-.398.657-.598 1.116-.598.526 0 .934.205 1.223.613.289.409.434.986.434 1.731v.021h-.635c-.025-.486-.124-.857-.296-1.116s-.406-.387-.705-.387c-.275 0-.495.105-.66.315s-.248.49-.248.838c0 .349.063.605.187.77s.451.338.981.523c.616.215 1.022.472 1.217.769.194.298.292.727.292 1.288 0 .708-.155 1.271-.466 1.688s-.73.626-1.258.626c-.54 0-.961-.226-1.265-.677s-.469-1.094-.493-1.929z" fill="#ededed"/><path d="m431.678 135.476v-6.406h-1.475v-.882h3.587v.882h-1.468v6.406z" fill="#ededed"/><path d="m434.446 135.476v-7.289h3.021v.882h-2.376v2.185h2.168v.872h-2.168v2.467h2.431v.882h-3.076z" fill="#ededed"/><path d="m438.082 135.476v-7.289h.859l.888 6.427.898-6.427h.85v7.289h-.543v-6.617l-.901 6.617h-.604l-.908-6.617v6.617z" fill="#ededed"/><path d="m448.794 132.768h.672c-.061.906-.246 1.617-.556 2.133-.31.517-.705.775-1.185.775-.561 0-.999-.341-1.318-1.023-.318-.682-.478-1.624-.478-2.824 0-1.204.159-2.145.478-2.824s.758-1.018 1.318-1.018c.437 0 .804.215 1.103.644.298.429.484 1.013.56 1.752h-.662c-.073-.482-.197-.856-.372-1.124-.176-.267-.385-.4-.628-.4-.349 0-.623.263-.824.79-.202.526-.303 1.253-.303 2.18 0 .92.102 1.644.304 2.172.203.528.477.792.823.792.284 0 .521-.179.71-.536.188-.357.308-.853.358-1.489z" fill="#ededed"/><path d="m449.453 135.476 1.769-7.299h.713l1.775 7.299h-.655l-.512-2.144h-1.936l-.513 2.144zm1.376-3.037h1.498l-.751-3.216z" fill="#ededed"/><path d="m453.934 135.476v-7.289h1.622c.478 0 .842.177 1.092.531.251.354.376.87.376 1.546 0 .4-.055.739-.162 1.016-.108.277-.269.489-.479.636.177.082.305.213.382.392.077.18.126.495.146.946l.052 1.185c.012.256.033.445.064.564.032.12.082.21.15.271v.2h-.733c-.032-.079-.059-.197-.079-.354s-.036-.369-.048-.636l-.034-.944c-.018-.476-.083-.785-.194-.929s-.392-.215-.84-.215h-.666v3.078h-.649zm1.441-6.396h-.792v2.426h.748c.38 0 .646-.094.795-.282.15-.188.226-.501.226-.939 0-.431-.074-.739-.222-.926-.149-.186-.4-.279-.755-.279z" fill="#ededed"/><path d="m459.399 128.187c.608 0 1.061.301 1.359.903s.446 1.515.446 2.739c0 1.166-.156 2.065-.471 2.698-.314.632-.759.949-1.335.949h-1.614v-7.289zm-.048.872h-.914v5.544h.914c.4 0 .698-.227.892-.682.193-.455.29-1.152.29-2.093 0-.981-.093-1.688-.276-2.121-.185-.431-.487-.648-.906-.648z" fill="#ededed"/><path d="m418.018 125.635.56.115c-.118.375-.328.662-.633.859s-.678.296-1.117.296c-.456 0-.826-.076-1.111-.228s-.503-.371-.651-.659c-.149-.288-.224-.596-.224-.926 0-.36.084-.674.252-.941.169-.268.408-.472.718-.61.311-.139.652-.208 1.025-.208.423 0 .778.088 1.066.264s.489.423.603.742l-.551.106c-.098-.251-.24-.434-.427-.549s-.421-.172-.703-.172c-.325 0-.597.063-.814.191-.218.127-.371.298-.46.512-.088.214-.133.436-.133.664 0 .293.053.55.157.769.105.219.268.383.489.492.221.108.46.163.718.163.313 0 .578-.074.795-.222.217-.149.364-.368.441-.658z" fill="#ededed"/><path d="m419.307 126.846v-3.455h1.456c.329 0 .579.017.752.05.242.045.449.128.62.247.223.154.39.351.5.59.11.24.166.514.166.821 0 .262-.037.495-.112.697-.075.203-.171.371-.288.503s-.246.237-.385.313c-.14.076-.308.134-.505.173-.197.04-.423.059-.679.059h-1.525zm.559-.408h.902c.278 0 .497-.021.655-.063.159-.042.285-.102.38-.179.132-.108.235-.254.31-.437s.111-.405.111-.666c0-.361-.073-.639-.218-.833-.146-.194-.321-.324-.529-.39-.149-.047-.391-.071-.724-.071h-.888v2.639z" fill="#ededed"/><path d="m423.344 125.809v-.427h1.594v.427z" fill="#ededed"/><path d="m425.627 126.846v-3.455h1.874c.377 0 .663.031.858.093.196.062.354.171.471.329s.176.331.176.521c0 .245-.098.452-.291.62-.194.168-.494.275-.899.32.147.058.26.116.337.172.163.123.318.276.464.459l.735.94h-.703l-.56-.719c-.163-.208-.298-.366-.403-.476s-.2-.187-.284-.231-.169-.074-.255-.092c-.063-.011-.167-.017-.312-.017h-.648v1.534h-.56zm.56-1.93h1.202c.255 0 .455-.022.6-.065.144-.043.253-.112.328-.208.075-.095.112-.198.112-.31 0-.164-.072-.298-.218-.403-.145-.105-.374-.158-.688-.158h-1.337v1.144z" fill="#ededed"/><path d="m429.753 125.163c0-.573.188-1.022.565-1.347.376-.324.862-.486 1.458-.486.391 0 .742.076 1.056.229.313.152.552.365.716.637.164.273.247.582.247.927 0 .351-.087.664-.26.94s-.418.486-.735.628c-.316.142-.659.213-1.026.213-.397 0-.753-.079-1.066-.236s-.551-.372-.712-.643c-.162-.271-.243-.559-.243-.862zm.577.007c0 .416.137.744.41.984.274.239.617.359 1.03.359.421 0 .768-.121 1.04-.363.271-.242.407-.585.407-1.03 0-.281-.058-.526-.174-.736-.116-.209-.287-.372-.511-.488-.224-.115-.475-.173-.754-.173-.396 0-.736.111-1.021.333-.284.223-.427.594-.427 1.114z" fill="#ededed"/><path d="m434.54 126.846v-3.455h.842l1 2.446c.092.228.159.398.201.511.049-.126.123-.311.226-.554l1.012-2.404h.752v3.455h-.539v-2.891l-1.228 2.891h-.505l-1.222-2.941v2.941h-.539z" fill="#ededed"/><path d="m439.151 124.698c.014-.111.07-.223.168-.334.15-.168.398-.354.742-.558s.548-.335.612-.394c.089-.08.133-.162.133-.246 0-.094-.042-.171-.125-.231-.084-.061-.207-.091-.369-.091-.158 0-.275.023-.354.069-.077.046-.142.134-.191.265l-.541-.047c.069-.217.189-.376.36-.479s.416-.154.736-.154c.36 0 .625.058.794.173.168.115.252.256.252.422 0 .164-.07.319-.211.466-.107.109-.353.276-.734.501-.199.119-.34.214-.423.284h1.383v.354z" fill="#ededed"/><path d="m457.905 172.263c-1.158 0-2.315 0-3.473 0-.159 0-.225-.065-.225-.222 0-.567-.001-1.134.001-1.701 0-.083-.019-.101-.104-.082-.125.028-.254.045-.382.05-.243.009-.486.026-.726.047-.625.054-1.25.034-1.875.032-.342-.001-.684-.028-1.025-.06-.276-.026-.553-.043-.826-.097-.066-.013-.1.002-.099.087.004.574.002 1.148.002 1.721 0 .159-.065.225-.222.225-.705 0-1.409 0-2.114 0-.157 0-.221-.066-.221-.226 0-.711-.003-1.423.003-2.134.001-.115-.05-.164-.141-.195-.263-.091-.523-.189-.796-.249-.079-.017-.153-.059-.226-.094-.108-.052-.114-.103-.033-.188.278-.293.599-.538.963-.703.197-.089.239-.191.234-.384-.012-.5-.004-1-.004-1.5 0-.164.063-.226.231-.226h2.104c.158 0 .222.065.223.224 0 .768.002 1.537-.002 2.305 0 .09.028.129.112.15.151.036.3.069.456.081.284.022.567.052.85.078.02.002.04.001.06.001.234.007.468.003.7.024.144.013.287.021.429.014.473-.023.945-.048 1.418-.064.285-.01.573-.033.856-.093.146-.031.154-.031.154-.181 0-.772 0-1.544 0-2.315 0-.158.065-.223.223-.223h6.926c.153 0 .22.066.22.217v.574c0 .15-.067.216-.221.216-1.48 0-2.96 0-4.439 0-.134 0-.171.033-.172.169-.002.356 0 .711-.001 1.067 0 .06.012.088.08.064.082-.029.172-.023.256-.027.646-.036 1.292-.031 1.939-.022.335.005.671.026 1.005.061.435.046.875.063 1.302.177.046.012.104.014.107.067.002.05-.027.1-.07.135-.269.217-.557.408-.837.608-.053.038-.108.076-.16.116-.091.071-.193.074-.294.057-.056-.009-.112-.017-.168-.014-.238.01-.477-.003-.71-.028-.448-.049-.895-.031-1.342-.03-.308.001-.616.037-.924.057-.013.001-.026.007-.039.008-.119.008-.148.068-.146.186.009.376.003.752.003 1.127 0 .133.056.188.194.188h1.419 3.01c.16 0 .209.048.209.206v.534c0 .132-.055.187-.188.187-1.162-.001-2.323-.002-3.484-.002z" fill="#ededed"/><path d="m455.197 174.196c-.265 0-.53 0-.795 0-.18 0-.344-.149-.378-.328-.025-.133-.022-.266-.016-.398.004-.098-.028-.159-.114-.198-.015-.007-.03-.015-.042-.025-.151-.126-.145-.203.026-.296.071-.039.1-.102.126-.17.013-.034.028-.065.051-.095.041-.054.095-.043.147-.037.048.005.055.052.065.09.052.202.087.23.292.23h1.489c.136 0 .187.031.192.118.007.116-.045.169-.181.184-.023.003-.047.001-.07.001-.48 0-.959.001-1.439-.001-.058 0-.112.009-.163.032-.065.029-.109.071-.101.153.006.06.001.121.001.181 0 .208.051.259.259.259h1.509c.137 0 .203.073.161.195-.033.095-.13.105-.215.106-.267.002-.535-.001-.804-.001z" fill="#ededed"/><path d="m458.819 173.648c0-.173-.008-.311.002-.448.01-.135.091-.22.242-.227.268-.013.537-.01.804 0 .14.006.282.083.419.051.337-.079.676-.049 1.015-.056.248-.005.342.105.336.332-.005.218-.002.436-.001.654 0 .047-.013.091-.02.136-.018.118-.1.117-.184.104-.085-.013-.078-.085-.078-.148 0-.184 0-.369 0-.553-.001-.138-.083-.222-.219-.223-.178-.001-.355 0-.533 0-.179 0-.268.115-.258.255.012.17.003.342.003.513 0 .106-.042.159-.121.159s-.12-.053-.12-.159c-.001-.171-.009-.343.003-.513.01-.139-.076-.251-.248-.254-.184-.003-.369-.002-.553 0-.123.001-.207.088-.208.213-.001.191 0 .382 0 .573 0 .061.001.128-.079.137-.077.009-.157.022-.183-.094-.037-.162-.007-.325-.019-.452z" fill="#ededed"/><path d="m449.881 174.673c-.102 0-.158-.07-.114-.159.042-.085.092-.159.146-.245.032-.043.045-.1.01-.146-.073-.094-.141-.177-.223-.271-.211-.215-.416-.437-.626-.653-.047-.049-.086-.105-.05-.168.042-.072.122-.075.197-.06.034.007.071.025.095.049.184.185.378.359.542.563.076.094.157.184.239.274.051.056.106.052.153-.005.085-.103.168-.209.251-.314.145-.182.286-.382.454-.53.089-.073.173-.081.233-.002.033.043.05.064.025.122-.072.11-.168.2-.246.304-.163.219-.331.436-.508.644-.15.177-.287.365-.456.526-.038.04-.069.076-.122.071z" fill="#ededed"/><path d="m456.91 173.729c.039-.019.078-.016.117-.016.463-.001.925 0 1.388-.001.126 0 .181-.047.226-.166.025-.066.014-.132.015-.197.002-.258-.046-.319-.291-.376-.029-.007-.06-.005-.09-.005-.446 0-.892 0-1.338-.001-.083 0-.167 0-.247.022-.151.042-.295.109-.289.354.004.144-.007.289.003.432.01.146.033.294.201.351.112.038.226.069.346.069.235-.001.469 0 .704 0 .248 0 .496.002.744-.001.083-.001.175-.013.212-.098.05-.115-.02-.202-.152-.202-.486-.001-.972 0-1.458-.001-.033 0-.065.005-.098-.009-.049-.021-.077-.056-.076-.105.001-.052.053-.035.083-.05zm-.141-.388c0-.051.041-.092.092-.092h1.361c.051 0 .092.041.092.092s-.041.092-.092.092h-1.361c-.051 0-.092-.041-.092-.092z" fill="#ededed"/><path d="m453.038 173.713h.112c.05 0 .09.041.09.091s-.041.091-.09.091h-.888s-.466-.001-.699-.001l-.029.001c-.083 0-.151.068-.151.151 0 .083.068.151.151.151h.153c.241-.002.483-.001.724-.001.255 0 .51.003.765-.001.102-.002.204-.02.285-.09.1-.086.142-.356.081-.491-.068-.15-.197-.2-.346-.202-.362-.004-.724-.001-1.087-.002h-.207c-.051 0-.092-.032-.092-.07s.041-.07.092-.07h.044 1.338c.043 0 .085-.004.126-.02.103-.038.134-.082.109-.189-.018-.08-.084-.093-.155-.093-.476 0-.952.001-1.429-.001-.116 0-.229.013-.344.037-.119.025-.182.093-.2.2-.014.081-.014.169 0 .25.018.101.073.177.187.204.113.027.225.052.34.053.376.004.748.002 1.12.002" fill="#ededed"/><path d="m448.247 173.713h.112c.05 0 .09.041.09.091s-.041.091-.09.091h-.888s-.466-.001-.699-.001l-.029.001c-.083 0-.151.068-.151.151 0 .083.068.151.151.151h.153c.241-.002.483-.001.724-.001.255 0 .51.003.765-.001.102-.002.204-.02.285-.09.1-.086.142-.356.081-.491-.067-.15-.197-.2-.346-.202-.362-.004-.724-.001-1.087-.002h-.207c-.051 0-.092-.032-.092-.07s.041-.07.092-.07h.044 1.338c.043 0 .085-.004.126-.02.104-.038.134-.082.109-.189-.018-.08-.084-.093-.155-.093-.476 0-.953.001-1.429-.001-.116 0-.229.013-.344.037-.119.025-.182.093-.2.2-.014.081-.014.169 0 .25.018.101.073.177.187.204.113.027.225.052.34.053.376.004.748.002 1.12.002" fill="#ededed"/><path d="m396.128 174.725-1.543-4.295h.57l1.035 3.12c.083.25.153.484.209.703.062-.234.133-.469.215-.703l1.075-3.12h.538l-1.56 4.295z" fill="#ededed"/><path d="m400.345 173.723.505.067c-.08.318-.228.565-.442.741-.216.176-.491.264-.826.264-.422 0-.757-.14-1.004-.42s-.37-.673-.37-1.179c0-.523.125-.93.374-1.219.25-.289.574-.434.973-.434.386 0 .701.142.945.425s.367.682.367 1.195c0 .031-.001.078-.003.141h-2.151c.018.342.107.604.269.785s.362.272.604.272c.179 0 .332-.051.459-.152s.226-.263.3-.486zm-1.605-.853h1.61c-.021-.262-.083-.458-.185-.589-.156-.203-.357-.305-.605-.305-.225 0-.414.081-.566.243-.154.163-.239.38-.254.651z" fill="#ededed"/><path d="m401.498 174.725v-3.111h.44v.472c.111-.221.216-.366.311-.437s.199-.105.313-.105c.165 0 .332.057.503.17l-.169.489c-.119-.076-.238-.114-.358-.114-.106 0-.202.035-.288.104-.085.069-.146.166-.182.289-.055.188-.081.393-.081.615v1.629h-.489z" fill="#ededed"/><path d="m404.539 173.591.489-.07c.056.299.151.514.286.646s.3.198.493.198c.23 0 .424-.086.583-.258.158-.172.237-.385.237-.639 0-.242-.073-.442-.22-.599s-.333-.236-.56-.236c-.093 0-.208.02-.345.059l.054-.463c.033.004.059.006.079.006.208 0 .396-.059.563-.176.166-.117.25-.298.25-.542 0-.193-.062-.354-.183-.48s-.277-.19-.47-.19c-.19 0-.349.064-.476.193s-.208.322-.244.58l-.489-.094c.06-.354.196-.627.407-.822.212-.194.476-.292.791-.292.217 0 .417.05.601.151.183.101.322.238.419.412s.146.358.146.554c0 .186-.046.354-.139.507-.092.152-.229.273-.41.363.235.059.419.18.549.365.131.185.195.416.195.693 0 .375-.126.693-.38.954s-.574.391-.962.391c-.35 0-.64-.112-.87-.337s-.361-.516-.394-.874z" fill="#ededed"/><path d="m410.035 170.357c.263 0 .478.098.643.293.166.195.249.465.249.809 0 .342-.084.61-.25.806-.167.195-.38.293-.639.293-.263 0-.477-.096-.644-.287s-.25-.458-.25-.8c0-.352.083-.625.249-.82.165-.197.38-.294.642-.294zm0 .389c-.146 0-.265.056-.354.167s-.134.293-.134.545c0 .246.046.426.137.541.092.114.209.171.352.171.146 0 .263-.057.354-.171s.136-.299.136-.555c0-.238-.046-.414-.137-.527-.094-.114-.211-.171-.354-.171z" fill="#ededed"/><circle cx="403.504" cy="174.425" fill="#ededed" r=".3"/><circle cx="408.219" cy="172.611" fill="#ededed" r=".3"/><path d="m407.585 167.212c.558 1.454 10.716-1.092 22.688-5.688s21.225-9.5 20.667-10.954-10.716 1.092-22.688 5.688-21.225 9.5-20.667 10.954z" fill="url(#b)"/><path d="m465.533 144.257c-.238.831-2.752.839-5.614.018s-4.99-2.159-4.752-2.99 2.752-.839 5.614-.018 4.99 2.16 4.752 2.99z" fill="url(#c)"/><path d="m431.437 144.986c.279.43 1.821-.076 3.444-1.13s2.713-2.257 2.434-2.687-1.821.076-3.444 1.13-2.713 2.257-2.434 2.687z" fill="url(#d)"/><path d="m427.196 148.637c-.651.566-2.912-.968-5.049-3.427s-3.342-4.911-2.691-5.477 2.912.968 5.049 3.427 3.342 4.911 2.691 5.477z" fill="url(#e)"/><path d="m415.721 170.907c.124.323 2.22-.181 4.68-1.125 2.461-.945 4.355-1.972 4.231-2.296s-2.22.181-4.68 1.125c-2.46.945-4.355 1.973-4.231 2.296z" fill="url(#f)"/><path d="m440.944 179.267h-3.441c-.532-.574-1.079-1.181-1.63-1.816-3.744-4.307-6.308-8.208-5.727-8.713s4.087 2.577 7.831 6.884c1.11 1.277 2.116 2.517 2.967 3.645z" fill="url(#g)"/><path d="m448.476 161.738c.348.987 1.409 1.979.417 1.979-.48 0-2.338.06-3.5-.729-1.24-.842-1.771-2.55-1.771-3.063 0-.992 1.784-.281 2.776-.281s1.748 1.158 2.078 2.094z" fill="url(#h)"/><path d="m460.205 147.352c-.363.048-.443 1.651-.438 2.375.009 1.146.25 2.026.5 2.938.845 3.084.875 3.187.875 3.188.168.572.223.741.125.938-.346.697-1.87.242-3.188 1.25-.118.09-.504.385-.438.563.04.108.25.171.875.125 1.741-.129 2.563-.797 3.063-.438.198.142.224.358.313.813.224 1.146 1.502 5.646 1.625 6 .269.777.774 2.232 1.25 2.188.079-.007.251-.065.438-.563.92-2.455-1.435-7.342-1.625-8.25-.136-.65-.056-.866 0-.938.154-.198.351-.22 1.188-.375 1.046-.194 1.317-.266 1.563-.5.192-.183.409-.502.313-.688-.105-.202-.541-.162-.938-.125-.873.081-1.619.407-1.688.438-.528.235-.706.168-.896.083-.297-.133-.364-1.104-.411-1.393-.175-1.087-.386-1.369-.568-2.378-.38-2.107-1.411-5.321-1.938-5.251z" fill="url(#i)"/><path d="m408.83 150.383c-.219.297.211.942.25 1 .482.71 1.024.54 1.583 1.292.142.191.261.419.5.875.323.618.277.645.417.833.458.619 1.273.754 1.5.792.728.12.761-.076 1.5.052.592.102 1.518.594 2.5.719.576.073.711-.126.792-.229.158-.202-.202-.724-.25-.792-.513-.732-1.06-.589-1.708-1.292-.167-.181-.334-.468-.667-1.042-.586-1.01-.456-1.046-.667-1.208-.623-.478-1.285.205-2.625-.208-.184-.057-.517-.176-.875-.333-.612-.269-.724-.395-1.125-.5-.235-.062-.917-.24-1.125.041z" fill="url(#j)"/><path d="m394.955 145.665c-.269-.173-.387-.648-.25-1 .226-.58.962-.357 1.5-1 .445-.532.15-.935.563-1.625.355-.593.903-.848 1.5-1.125.236-.109 2.323-1.08 3.25-.25.299.268.333.593.75.75.224.084.347.04 1 0 .753-.046 1.133-.066 1.25.063.26.285.042 1.048-.375 1.5-.333.36-.559.269-.813.625-.302.425-.099.722-.313 1.188-.206.449-.613.645-1.375 1-.955.444-2.12.671-2.75.63-1.244-.082-.909-.921-2-.786-.793.096-1.765.14-1.937.03z" fill="url(#k)"/><path d="m337.52 187.298c0 3.213-2.628 5.84-5.84 5.84h-88.614c-3.213 0-5.84-2.628-5.84-5.84v-143.092c0-3.213 2.628-5.84 5.84-5.84h88.614c3.212 0 5.84 2.628 5.84 5.84z" fill="#e6e6e6"/><path d="m241.302 92.141h92.143v87.125h-92.143z" fill="#0d0e12"/><path d="m239.921 41.77v40.304c0 3.249 2.628 5.909 5.84 5.909h83.223c3.213 0 5.84-2.659 5.84-5.909v-40.304z" fill="#191e23"/><path d="m239.921 41.77h94.904v8.055h-94.904z"/><path d="m300.864 186.058-13.33-3.993c-.106-.032-.218-.032-.324 0l-13.329 3.993c-.239.071-.402.291-.402.54v3.484c0 .311.252.564.564.564h26.659c.311 0 .564-.252.564-.564v-3.484c0-.249-.163-.469-.402-.54z" fill="#d3d3d3"/><path d="m242.454 43.749h1.358v5.365h-1.358z" fill="#d1ad2d"/><path d="m244.846 42.909h1.357v6.205h-1.357z" fill="#d1ad2d"/><path d="m247.237 42.909h1.357v6.205h-1.357z" fill="#d1ad2d"/><path d="m249.629 42.909h1.357v6.205h-1.357z" fill="#d1ad2d"/><path d="m252.02 42.909h1.358v6.205h-1.358z" fill="#d1ad2d"/><path d="m254.411 42.909h1.357v6.205h-1.357z" fill="#d1ad2d"/><path d="m256.803 42.909h1.357v6.205h-1.357z" fill="#d1ad2d"/><path d="m259.194 42.909h1.357v6.205h-1.357z" fill="#d1ad2d"/><path d="m261.585 42.909h1.358v6.205h-1.358z" fill="#d1ad2d"/><path d="m263.977 42.909h1.357v6.205h-1.357z" fill="#d1ad2d"/><path d="m266.368 42.909h1.357v6.205h-1.357z" fill="#d1ad2d"/><path d="m268.759 42.909h1.358v6.205h-1.358z" fill="#d1ad2d"/><path d="m271.151 42.909h1.357v6.205h-1.357z" fill="#d1ad2d"/><path d="m273.542 42.909h1.357v6.205h-1.357z" fill="#d1ad2d"/><path d="m275.933 42.909h1.358v6.205h-1.358z" fill="#d1ad2d"/><path d="m278.324 42.909h1.357v6.205h-1.357z" fill="#d1ad2d"/><path d="m280.716 42.909h1.357v6.205h-1.357z" fill="#d1ad2d"/><path d="m283.107 41.77h1.357v8.055h-1.357z" fill="#d1ad2d"/><path d="m285.498 42.909h1.358v6.205h-1.358z" fill="#d1ad2d"/><path d="m287.89 42.909h1.357v6.205h-1.357z" fill="#d1ad2d"/><path d="m290.281 42.909h1.357v6.205h-1.357z" fill="#d1ad2d"/><path d="m292.673 42.909h1.357v6.205h-1.357z" fill="#d1ad2d"/><path d="m295.064 42.909h1.358v6.205h-1.358z" fill="#d1ad2d"/><path d="m297.455 42.909h1.357v6.205h-1.357z" fill="#d1ad2d"/><path d="m299.847 42.909h1.357v6.205h-1.357z" fill="#d1ad2d"/><path d="m302.238 42.909h1.358v6.205h-1.358z" fill="#d1ad2d"/><path d="m304.629 42.909h1.357v6.205h-1.357z" fill="#d1ad2d"/><path d="m307.021 42.909h1.357v6.205h-1.357z" fill="#d1ad2d"/><path d="m309.412 42.909h1.357v6.205h-1.357z" fill="#d1ad2d"/><path d="m311.803 42.909h1.358v6.205h-1.358z" fill="#d1ad2d"/><path d="m314.195 42.909h1.357v6.205h-1.357z" fill="#d1ad2d"/><path d="m316.586 42.909h1.357v6.205h-1.357z" fill="#d1ad2d"/><path d="m318.977 42.909h1.358v6.205h-1.358z" fill="#d1ad2d"/><path d="m321.369 42.909h1.358v6.205h-1.358z" fill="#d1ad2d"/><path d="m323.76 42.909h1.357v6.205h-1.357z" fill="#d1ad2d"/><path d="m326.152 42.909h1.357v6.205h-1.357z" fill="#d1ad2d"/><path d="m328.543 42.909h1.358v6.205h-1.358z" fill="#d1ad2d"/><path d="m330.934 41.77h1.357v8.055h-1.357z" fill="#d1ad2d"/><circle cx="243.133" cy="48.512" fill="#1f1713" r=".328"/><circle cx="245.524" cy="48.512" fill="#1f1713" r=".328"/><circle cx="247.916" cy="48.512" fill="#1f1713" r=".328"/><circle cx="250.307" cy="48.512" fill="#1f1713" r=".328"/><circle cx="252.698" cy="48.512" fill="#1f1713" r=".328"/><circle cx="255.089" cy="48.512" fill="#1f1713" r=".328"/><circle cx="257.481" cy="48.512" fill="#1f1713" r=".328"/><circle cx="259.872" cy="48.512" fill="#1f1713" r=".328"/><circle cx="262.263" cy="48.512" fill="#1f1713" r=".328"/><circle cx="264.654" cy="48.512" fill="#1f1713" r=".328"/><circle cx="267.046" cy="48.512" fill="#1f1713" r=".328"/><circle cx="269.437" cy="48.512" fill="#1f1713" r=".328"/><circle cx="271.828" cy="48.512" fill="#1f1713" r=".328"/><circle cx="274.219" cy="48.512" fill="#1f1713" r=".328"/><circle cx="276.611" cy="48.512" fill="#1f1713" r=".328"/><circle cx="279.002" cy="48.512" fill="#1f1713" r=".328"/><circle cx="281.393" cy="48.512" fill="#1f1713" r=".328"/><circle cx="283.784" cy="48.512" fill="#1f1713" r=".328"/><circle cx="286.176" cy="48.512" fill="#1f1713" r=".328"/><circle cx="288.567" cy="48.512" fill="#1f1713" r=".328"/><circle cx="290.958" cy="48.512" fill="#1f1713" r=".328"/><circle cx="293.349" cy="48.512" fill="#1f1713" r=".328"/><circle cx="295.741" cy="48.512" fill="#1f1713" r=".328"/><circle cx="298.132" cy="48.512" fill="#1f1713" r=".328"/><circle cx="300.523" cy="48.512" fill="#1f1713" r=".328"/><circle cx="302.914" cy="48.512" fill="#1f1713" r=".328"/><circle cx="305.306" cy="48.512" fill="#1f1713" r=".328"/><circle cx="307.697" cy="48.512" fill="#1f1713" r=".328"/><circle cx="310.088" cy="48.512" fill="#1f1713" r=".328"/><circle cx="312.479" cy="48.512" fill="#1f1713" r=".328"/><circle cx="314.871" cy="48.512" fill="#1f1713" r=".328"/><circle cx="317.262" cy="48.512" fill="#1f1713" r=".328"/><circle cx="319.653" cy="48.512" fill="#1f1713" r=".328"/><circle cx="322.044" cy="48.512" fill="#1f1713" r=".328"/><circle cx="324.436" cy="48.512" fill="#1f1713" r=".328"/><circle cx="326.827" cy="48.512" fill="#1f1713" r=".328"/><circle cx="329.218" cy="48.512" fill="#1f1713" r=".328"/><circle cx="331.609" cy="48.512" fill="#1f1713" r=".328"/><path d="m301.266 186.598c0-.249-.163-.469-.402-.54l-.695-.208h-25.592l-.695.208c-.239.071-.402.291-.402.54z" fill="#c1c1c1"/><path d="m297.956 185.186h-21.166l2.498-.748h16.231z" fill="#c1c1c1"/><path d="m273.48 187.261h27.787v.748h-27.787z" fill="#c1c1c1"/><path d="m301.266 186.598c0-.249-.163-.469-.402-.54l-.695-.208h-25.592l-.695.208c-.239.071-.402.291-.402.54z" fill="#b7b7b7"/><path d="m297.956 185.186h-21.166l2.498-.748h16.231z" fill="#b7b7b7"/><path d="m293.245 183.775h-11.744l2.498-.748h6.747z" fill="#b7b7b7"/><path d="m273.48 187.261h27.787v.709h-27.787z" fill="#b7b7b7"/><path d="m273.48 188.598h27.787v.709h-27.787z" fill="#b7b7b7"/><path d="m301.266 189.936h-27.786v.146c0 .311.252.564.564.564h26.659c.311 0 .564-.252.564-.564v-.146z" fill="#b7b7b7"/><path d="m281.501 189.936h11.744v.709h-11.744z" fill="#d3d3d3"/><path d="m241.302 92.141h92.143v13.985h-92.143z" fill="#e9e33b"/><path d="m253.237 103.616c0 .812-.352 1.327-1.533 1.327h-3.535c-1.045 0-1.523-.507-1.523-1.276v-.483l1.602.019v.524h3.174c.186 0 .215-.068.215-.195v-.6c0-.144-.059-.203-.244-.203h-3.105c-1.094 0-1.494-.541-1.494-1.234v-.862c0-1.022.527-1.327 1.533-1.327h3.34c1.24 0 1.572.49 1.572 1.26v.449h-1.602v-.49h-2.998c-.156 0-.244.033-.244.211v.583c0 .127.039.187.225.187h3.105c1.084 0 1.514.524 1.514 1.268v.842z" fill="#0d0e12"/><path d="m258.425 102.416v2.527h-1.602v-2.477l-3.086-3.162h1.914l1.973 2.071 1.982-2.071h1.826z" fill="#0d0e12"/><path d="m273.222 100.522v4.421h-1.602v-4.421h-2.686v-1.218h6.973v1.218z" fill="#0d0e12"/><path d="m276.589 104.943v-5.639h5.996v1.218h-4.395v.972h4.099v1.192h-4.099v1.04h4.463v1.217z" fill="#0d0e12"/><path d="m303.567 103.625c0 .803-.684 1.318-1.533 1.318h-3.633c-.879 0-1.533-.55-1.533-1.318v-2.984c0-.82.566-1.336 1.533-1.336h3.623c.938 0 1.543.524 1.543 1.336v.761h-1.602v-.879h-3.252c-.186 0-.244.051-.244.228v2.773c0 .16.039.203.234.203h3.262v-.964h1.602z" fill="#0d0e12"/><path d="m310.478 104.943-.566-.972h-3.545l-.566.972h-1.709l3.389-5.639h1.416l3.33 5.639zm-2.344-4.235-1.191 2.097h2.373z" fill="#0d0e12"/><path d="m328.102 103.616c0 .786-.635 1.327-1.533 1.327h-5.41v-5.639h5.41c.898 0 1.533.516 1.533 1.327zm-5.342.11h3.516c.186 0 .225-.051.225-.195v-2.789c0-.169-.059-.22-.254-.22h-3.486v3.204z" fill="#0d0e12"/><path d="m268.207 103.616c0 .812-.352 1.327-1.533 1.327h-3.535c-1.045 0-1.523-.507-1.523-1.276v-.483l1.602.019v.524h3.174c.186 0 .215-.068.215-.195v-.6c0-.144-.059-.203-.244-.203h-3.105c-1.094 0-1.494-.541-1.494-1.234v-.862c0-1.022.527-1.327 1.533-1.327h3.34c1.24 0 1.572.49 1.572 1.26v.449h-1.602v-.49h-2.998c-.156 0-.244.033-.244.211v.583c0 .127.039.187.225.187h3.105c1.084 0 1.514.524 1.514 1.268v.842z" fill="#0d0e12"/><path d="m288.071 103.075 2.124-3.637c.049-.083.138-.135.235-.135h2.313v5.639h-1.234v-4.166c0-.194-.257-.264-.354-.096l-2.489 4.262h-.593-.593l-2.489-4.262c-.098-.168-.354-.098-.354.096v4.166h-1.237v-5.639h2.313c.097 0 .186.051.235.135z" fill="#0d0e12"/><path d="m319.068 102.89c.688-.254 1.18-.937 1.18-1.74 0-1.019-.793-1.846-1.771-1.846h-5.123v5.639h1.268v-.885c0-.309.253-.563.563-.563h2.854c.309 0 .563.253.563.563v.885h1.646v-.944c0-.612-.528-1.109-1.18-1.109zm-.298-1.014c0 .331-.271.601-.601.601h-2.944c-.331 0-.601-.271-.601-.601v-.492c0-.331.271-.601.601-.601h2.944c.331 0 .601.27.601.601z" fill="#0d0e12"/><path d="m283.111 96.417v-.681h2.272v.681z" fill="#0d0e12"/><path d="m295.095 96.707c0 .466-.375.786-.905.786h-2.29c-.537 0-.906-.32-.906-.786v-1.767c0-.48.352-.785.906-.785h2.29c.53 0 .905.305.905.785zm-3.005-1.832c-.115 0-.15.029-.15.13v1.651c0 .085.023.115.132.115h1.944c.11 0 .133-.03.133-.115v-1.651c0-.101-.035-.13-.15-.13z" fill="#0d0e12"/><path d="m277.52 96.771c0 .486-.414.799-.929.799h-2.2c-.532 0-.929-.333-.929-.799v-1.808c0-.497.343-.809.929-.809h2.195c.568 0 .935.318.935.809v.461h-.97v-.532h-1.97c-.112 0-.148.031-.148.138v1.68c0 .097.024.123.142.123h1.976v-.584h.97v.522z" fill="#0d0e12"/><path d="m282.511 96.766c0 .476-.384.804-.929.804h-3.277v-3.415h3.277c.544 0 .929.312.929.804zm-3.236.067h2.129c.112 0 .136-.031.136-.118v-1.689c0-.102-.035-.133-.154-.133h-2.112v1.94z" fill="#0d0e12"/><path d="m298.759 96.439 1.286-2.203c.03-.051.084-.082.142-.082h1.401v3.415h-.748v-2.524c0-.118-.155-.16-.215-.058l-1.508 2.582h-.359-.358l-1.508-2.582c-.059-.102-.215-.059-.215.058v2.524h-.748v-3.415h1.401c.059 0 .113.031.142.082z" fill="#0d0e12"/><path d="m289.444 96.327c.416-.154.715-.568.715-1.054 0-.617-.48-1.118-1.073-1.118h-3.103v3.415h.768v-.536c0-.187.153-.341.341-.341h1.729c.187 0 .341.153.341.341v.536h.997v-.572c0-.371-.32-.671-.715-.671zm-.181-.615c0 .2-.164.364-.364.364h-1.783c-.2 0-.364-.164-.364-.364v-.298c0-.2.164-.364.364-.364h1.783c.2 0 .364.164.364.364z" fill="#0d0e12"/><path d="m304.681 94.864v.27h-2.52v-.365c0-.189.063-.315.189-.377.126-.063.426-.116.899-.162.392-.038.625-.072.697-.103s.108-.112.108-.242c0-.124-.036-.203-.108-.236-.073-.033-.245-.05-.517-.05-.28 0-.457.017-.53.051s-.11.116-.11.246v.077h-.62v-.076c0-.225.086-.377.259-.454.172-.078.507-.117 1.003-.117.485 0 .814.04.988.118.173.079.26.229.26.449 0 .209-.066.349-.198.419s-.436.13-.911.177c-.392.039-.62.071-.684.098-.063.027-.095.104-.095.229v.049h1.89z" fill="#0d0e12"/><path d="m246.245 175.628-1.5-4.312h.919l1.061 3.191 1.028-3.191h.898l-1.502 4.312z" fill="#ebe7e7"/><path d="m250.515 174.634.801.139c-.103.302-.265.531-.488.689-.222.157-.5.236-.834.236-.529 0-.92-.177-1.174-.532-.2-.284-.3-.643-.3-1.076 0-.518.132-.923.395-1.217.263-.293.597-.439.999-.439.452 0 .809.153 1.07.461.261.307.386.776.375 1.41h-2.015c.006.245.071.436.195.571.124.137.278.205.463.205.126 0 .232-.035.318-.106.086-.07.151-.184.195-.341zm.045-.835c-.006-.239-.066-.421-.18-.546s-.254-.187-.418-.187c-.175 0-.32.065-.435.197-.114.131-.171.31-.169.535h1.202z" fill="#ebe7e7"/><path d="m252.784 175.628h-.804v-3.124h.747v.444c.128-.21.243-.348.345-.414.102-.067.218-.101.347-.101.183 0 .36.052.529.156l-.249.721c-.136-.091-.261-.136-.378-.136-.113 0-.208.032-.286.096s-.14.179-.184.346c-.045.167-.067.516-.067 1.047z" fill="#ebe7e7"/><path d="m256.208 175.345c.051-.216.133-.424.244-.623.172-.307.523-.726 1.044-1.247.61-.614.774-.833.844-.943.163-.262.244-.527.244-.792 0-.307-.084-.554-.25-.732-.172-.185-.403-.277-.689-.277-.279 0-.519.1-.692.289-.119.132-.2.309-.245.536l-.396-.043c.071-.353.205-.611.4-.771.253-.21.565-.312.958-.312.425 0 .744.115.976.351.233.237.347.526.347.885 0 .214-.035.417-.105.603-.072.198-.189.41-.352.632-.076.104-.244.305-.605.661-.316.313-.517.523-.601.626-.092.11-.17.224-.23.337l-.224.417h2.117v.405h-2.785z" fill="#ebe7e7"/><path d="m262.676 173.946h-.467v-2.734c-.246.248-.535.43-.868.549v-.375c.175-.062.366-.179.572-.352s.347-.375.423-.605h.34z" fill="#ebe7e7"/><circle cx="253.949" cy="175.215" fill="#ebe7e7" r=".413"/><circle cx="260.282" cy="173.533" fill="#ebe7e7" r=".413"/><path d="m281.645 96.747h.846" fill="none"/><path d="m260.083 130.412-7.346 18.529" fill="none" stroke="#306c6b" stroke-miterlimit="10" stroke-width=".3121"/><circle cx="252.737" cy="148.941" fill="#51342e" r=".482"/><path d="m324.767 123.407-9.146 24.109" fill="none" stroke="#306c6b" stroke-miterlimit="10" stroke-width=".3121"/><circle cx="315.621" cy="147.516" fill="#51342e" r=".482"/><path d="m311.309 137.905-11.838 30.121" fill="none" stroke="#678d36" stroke-miterlimit="10" stroke-width=".3121"/><ellipse cx="299.223" cy="168.026" fill="#a94b26" rx=".731" ry=".482"/><path d="m291.18 143.905-11.837 30.121" fill="none" stroke="#678d36" stroke-miterlimit="10" stroke-width=".3121"/><circle cx="279.343" cy="174.026" fill="#a94b26" r=".482"/><path d="m276.449 142.738-13.141 29.555" fill="none" stroke="#678d36" stroke-miterlimit="10" stroke-width=".3121"/><circle cx="263.308" cy="172.293" fill="#a94b26" r=".482"/><path d="m298.492 111.618-3.545 9.015" fill="none" stroke="#2f2f41" stroke-miterlimit="10" stroke-width=".3121"/><ellipse cx="285.635" cy="139.471" fill="none" rx="43.315" ry="10.936" stroke="url(#m)" stroke-miterlimit="10" stroke-width=".3121" transform="matrix(.8096 -.587 .587 .8096 -27.4794 194.2331)"/><path d="m254.623 165.813c-1.767 0-2.97-.425-3.577-1.262-1.519-2.094.561-6.825 5.707-12.982 5.38-6.438 13.481-13.709 22.809-20.473 14.819-10.746 29.723-17.965 37.086-17.965 1.766 0 2.969.424 3.576 1.261 2.933 4.045-7.826 18.454-28.516 33.457-14.818 10.744-29.722 17.964-37.085 17.964z" fill="none" stroke="url(#n)" stroke-miterlimit="10" stroke-width=".3121"/><path d="m254.623 165.222c-1.567 0-2.61-.342-3.099-1.018-1.025-1.413-.071-5.375 5.682-12.258 5.349-6.401 13.412-13.637 22.703-20.374 14.726-10.679 29.491-17.852 36.74-17.852 1.567 0 2.609.341 3.098 1.017 2.341 3.228-6.421 16.707-28.385 32.633-14.725 10.678-29.49 17.852-36.739 17.852z" fill="none" stroke="url(#o)" stroke-miterlimit="10" stroke-width=".3121"/><path d="m254.623 164.632c-1.348 0-2.255-.267-2.622-.774-.687-.947-.269-4.442 5.657-11.534 5.32-6.366 13.346-13.567 22.597-20.274 14.633-10.61 29.258-17.74 36.394-17.74 1.349 0 2.255.267 2.621.772 1.931 2.665-5.859 15.572-28.254 31.81-14.632 10.611-29.257 17.74-36.393 17.74z" fill="none" stroke="url(#q)" stroke-miterlimit="10" stroke-width=".3121"/><path d="m254.623 164.042c-1.633 0-2.054-.405-2.144-.53-.41-.565-.256-3.764 5.632-10.81 5.29-6.33 13.278-13.494 22.491-20.175 14.54-10.543 29.026-17.627 36.047-17.627 1.633 0 2.054.404 2.143.528 1.386 1.913-5.161 14.338-28.123 30.986-14.539 10.544-29.025 17.628-36.046 17.628z" fill="none" stroke="url(#r)" stroke-miterlimit="10" stroke-width=".3121"/><path d="m254.623 163.452c-1.363 0-1.676-.299-1.679-.302-.192-.427.124-3.493 5.619-10.07 5.259-6.292 13.209-13.422 22.385-20.075 14.447-10.476 28.794-17.514 35.701-17.514 1.362 0 1.676.298 1.679.3 1.079 1.491-5.512 13.839-28.004 30.147-14.448 10.476-28.794 17.514-35.701 17.514z" fill="none" stroke="url(#s)" stroke-miterlimit="10" stroke-width=".3121"/><path d="m254.623 162.861c-.59 0-.94-.06-1.131-.111.068-.658.626-3.433 5.523-9.293 5.23-6.257 13.141-13.351 22.278-19.976 14.353-10.408 28.561-17.401 35.354-17.401.698 0 1.061.084 1.221.137.224 1.605-5.703 13.153-27.893 29.242-14.351 10.409-28.559 17.402-35.352 17.402z" fill="none" stroke="url(#t)" stroke-miterlimit="10" stroke-width=".3121"/><path d="m254.623 162.271c-.167 0-.31-.005-.432-.013.303-1.115 1.389-3.769 5.277-8.422 5.201-6.221 13.074-13.28 22.172-19.876 14.26-10.341 28.329-17.289 35.008-17.289.233 0 .421.01.57.024-.667 2.306-6.454 12.963-27.588 28.287-14.26 10.342-28.328 17.289-35.007 17.289z" fill="none" stroke="url(#u)" stroke-miterlimit="10" stroke-width=".3121"/><path d="m255.01 161.674c.502-1.275 1.764-3.695 4.911-7.46 5.172-6.186 13.008-13.21 22.066-19.776 13.98-10.138 27.727-16.993 34.396-17.173-1.564 3.668-8.522 13.772-27.1 27.241-13.893 10.075-27.558 16.909-34.273 17.168z" fill="none" stroke="url(#v)" stroke-miterlimit="10" stroke-width=".3121"/><path d="m255.954 161.007c.639-1.298 1.914-3.416 4.419-6.415 5.141-6.15 12.94-13.138 21.959-19.677 13.164-9.546 26.203-16.218 33.074-16.989-1.575 2.972-7.643 12.452-26.47 26.102-13.077 9.485-26.088 16.157-32.982 16.979z" fill="none" stroke="url(#w)" stroke-miterlimit="10" stroke-width=".3121"/><path d="m257.034 160.241c.718-1.245 1.892-2.996 3.792-5.271 5.11-6.112 12.871-13.065 21.853-19.577 12.365-8.967 24.542-15.377 31.615-16.701-2.178 3.607-8.742 12.563-25.703 24.86-12.309 8.926-24.47 15.335-31.557 16.689z" fill="none" stroke="url(#x)" stroke-miterlimit="10" stroke-width=".3121"/><path d="m258.268 159.36c.803-1.232 1.811-2.576 3.011-4.013 5.08-6.076 12.803-12.994 21.747-19.478 11.532-8.362 22.824-14.477 30.005-16.295-2.669 3.987-9.455 12.384-24.786 23.498-11.501 8.342-22.787 14.456-29.977 16.288z" fill="none" stroke="url(#y)" stroke-miterlimit="10" stroke-width=".3121"/><path d="m259.683 158.344c.602-.832 1.288-1.709 2.048-2.619 5.05-6.04 12.736-12.923 21.641-19.378 10.671-7.739 21.049-13.516 28.225-15.753-3.179 4.353-10.012 12.079-23.698 22.001-10.656 7.729-21.032 13.506-28.216 15.749z" fill="none" stroke="url(#z)" stroke-miterlimit="10" stroke-width=".3121"/><path d="m261.318 157.167c.277-.349.566-.705.866-1.064 5.021-6.005 12.668-12.851 21.534-19.279 9.775-7.089 19.2-12.485 26.243-15.053-3.705 4.693-10.44 11.67-22.407 20.346-9.766 7.082-19.189 12.478-26.236 15.05z" fill="none" stroke="url(#A)" stroke-miterlimit="10" stroke-width=".3121"/><path d="m263.226 155.786c4.991-5.799 12.352-12.332 20.837-18.484 8.692-6.302 17.292-11.365 24.005-14.157-3.736 4.379-10.167 10.742-20.862 18.495-8.675 6.293-17.266 11.351-23.98 14.146z" fill="none" stroke="url(#B)" stroke-miterlimit="10" stroke-width=".3121"/><path d="m265.488 154.143c4.858-5.235 11.478-10.966 18.922-16.363 7.642-5.541 15.139-10.086 21.421-13.004-3.695 4.006-9.689 9.658-18.971 16.388-7.616 5.523-15.095 10.059-21.372 12.979z" fill="none" stroke="url(#C)" stroke-miterlimit="10" stroke-width=".3121"/><path d="m268.242 152.136c4.548-4.549 10.197-9.299 16.515-13.879 6.463-4.687 12.738-8.613 18.34-11.487-3.538 3.543-8.901 8.346-16.583 13.916-6.432 4.664-12.683 8.578-18.272 11.45z" fill="none" stroke="url(#D)" stroke-miterlimit="10" stroke-width=".3121"/><path d="m271.809 149.534c3.897-3.589 8.426-7.27 13.293-10.799 4.964-3.6 9.886-6.793 14.446-9.376-3.875 3.573-8.359 7.209-13.381 10.85-4.931 3.576-9.823 6.75-14.358 9.325z" fill="none" stroke="url(#E)" stroke-miterlimit="10" stroke-width=".3121"/><path d="m277.225 145.585c2.577-2.142 5.328-4.274 8.224-6.373 2.949-2.138 5.854-4.115 8.685-5.911-2.576 2.135-5.356 4.286-8.313 6.43-2.916 2.115-5.79 4.072-8.596 5.854z" fill="none" stroke="url(#F)" stroke-miterlimit="10" stroke-width=".3121"/><path d="m264.52 111.011 42.043 55.999" fill="none" stroke="url(#H)" stroke-miterlimit="10" stroke-width=".5201"/><path d="m267.086 111.747 38.157 50.824" fill="none" stroke="url(#I)" stroke-miterlimit="10" stroke-width=".5201"/><path d="m269.576 112.383 35.763 47.635" fill="none" stroke="url(#J)" stroke-miterlimit="10" stroke-width=".5201"/><path d="m272.296 113.325 32.144 42.816" fill="none" stroke="url(#K)" stroke-miterlimit="10" stroke-width=".5201"/><path d="m275.059 114.325 28.603 38.098" fill="none" stroke="url(#L)" stroke-miterlimit="10" stroke-width=".5201"/><path d="m278.423 116.125 24.491 32.622" fill="none" stroke="url(#M)" stroke-miterlimit="10" stroke-width=".5201"/><path d="m282.4 118.742 20.259 26.984" fill="none" stroke="url(#N)" stroke-miterlimit="10" stroke-width=".5201"/><path d="m303.42 165.618-38.864-51.762" fill="none" stroke="url(#O)" stroke-miterlimit="10" stroke-width=".5201"/><path d="m300.821 164.836-36.155-48.153" fill="none" stroke="url(#P)" stroke-miterlimit="10" stroke-width=".5201"/><path d="m297.139 162.613-32.374-43.119" fill="none" stroke="url(#Q)" stroke-miterlimit="10" stroke-width=".5201"/><path d="m294.332 161.555-29.376-39.125" fill="none" stroke="url(#R)" stroke-miterlimit="10" stroke-width=".5201"/><path d="m290.576 159.233-25.783-34.34" fill="none" stroke="url(#S)" stroke-miterlimit="10" stroke-width=".5201"/><path d="m287.457 157.759-22.015-29.321" fill="none" stroke="url(#T)" stroke-miterlimit="10" stroke-width=".5201"/><path d="m325.642 173.469c-1.158 0-2.315 0-3.473 0-.159 0-.225-.065-.225-.222 0-.567-.001-1.134.001-1.701 0-.084-.019-.101-.104-.082-.125.028-.254.045-.382.05-.243.009-.486.026-.727.047-.625.054-1.25.034-1.875.032-.342-.001-.684-.028-1.025-.06-.276-.026-.553-.043-.826-.097-.066-.013-.1.002-.099.087.004.574.002 1.148.002 1.721 0 .159-.065.225-.222.225-.705 0-1.409 0-2.114 0-.157 0-.221-.066-.221-.226 0-.711-.003-1.423.003-2.134.001-.115-.05-.164-.141-.195-.263-.091-.523-.189-.796-.249-.079-.017-.153-.059-.226-.094-.108-.052-.114-.103-.033-.188.278-.293.599-.538.963-.703.197-.089.239-.191.234-.384-.012-.5-.004-1-.004-1.5 0-.164.063-.226.231-.226h2.104c.158 0 .222.065.222.224 0 .768.002 1.537-.002 2.305 0 .09.028.129.112.15.151.036.3.069.456.081.284.022.567.052.85.078.02.002.04.001.06.001.234.007.468.003.7.024.144.013.287.021.429.014.473-.023.945-.048 1.418-.064.285-.01.573-.033.856-.093.146-.031.154-.031.154-.181 0-.772 0-1.544 0-2.315 0-.158.065-.223.223-.223h6.926c.153 0 .22.066.22.217v.574c0 .15-.067.216-.22.216-1.48 0-2.96 0-4.439 0-.134 0-.171.033-.172.169-.002.356 0 .711-.001 1.067 0 .06.012.088.08.064.082-.029.172-.023.256-.027.646-.036 1.292-.031 1.939-.022.335.005.671.026 1.005.061.435.046.875.063 1.302.177.046.012.104.014.107.067.002.049-.027.1-.07.135-.269.217-.557.408-.837.608-.053.038-.108.076-.16.116-.091.071-.193.074-.294.057-.056-.009-.112-.017-.168-.014-.238.01-.477-.003-.71-.028-.448-.049-.895-.031-1.342-.03-.308.001-.616.037-.924.057-.013.001-.026.007-.039.008-.119.008-.148.068-.146.186.009.376.003.752.003 1.127 0 .133.056.188.194.188h1.419 3.01c.16 0 .209.048.209.206v.534c0 .132-.055.187-.188.187-1.161-.002-2.322-.002-3.483-.002z" fill="#ededed"/><path d="m322.934 175.402c-.265 0-.53 0-.795 0-.18 0-.344-.149-.378-.329-.025-.133-.022-.266-.016-.398.004-.098-.028-.159-.114-.198-.015-.007-.03-.015-.042-.025-.151-.126-.145-.203.026-.296.071-.039.1-.102.126-.17.013-.034.028-.065.051-.095.041-.054.096-.043.147-.037.048.005.055.052.065.09.052.202.087.23.292.23h1.489c.136 0 .187.031.192.118.007.116-.045.169-.181.184-.023.003-.047.001-.07.001-.48 0-.959.001-1.439-.001-.058 0-.112.009-.163.032-.065.029-.109.071-.101.153.006.06.001.121.001.181 0 .208.051.259.259.259h1.509c.137 0 .203.073.161.195-.033.095-.13.105-.215.106-.267.002-.536 0-.804 0z" fill="#ededed"/><path d="m326.556 174.854c0-.173-.008-.311.002-.448.01-.135.091-.22.242-.227.268-.013.537-.01.804 0 .14.006.282.083.419.051.337-.079.676-.049 1.015-.056.248-.005.342.105.336.332-.005.218-.002.436-.001.654 0 .047-.013.091-.02.136-.018.118-.1.117-.184.104-.085-.013-.078-.085-.079-.148 0-.184 0-.369 0-.553-.001-.138-.082-.222-.219-.223-.178-.001-.355 0-.533 0-.179 0-.268.115-.258.255.012.17.003.342.003.513 0 .106-.042.159-.121.159s-.12-.053-.12-.159c-.001-.171-.009-.343.003-.513.01-.14-.076-.251-.248-.254-.184-.003-.369-.002-.553 0-.123.001-.207.088-.208.213-.001.191 0 .382 0 .573 0 .061.001.128-.079.137-.077.009-.157.022-.183-.094-.036-.162-.006-.325-.018-.452z" fill="#ededed"/><path d="m317.618 175.879c-.102 0-.158-.07-.114-.159.042-.085.092-.159.146-.245.032-.043.045-.1.01-.146-.073-.094-.141-.177-.223-.271-.211-.214-.416-.437-.626-.653-.047-.049-.086-.106-.05-.168.042-.072.122-.075.197-.06.034.007.071.025.095.049.184.185.378.359.542.563.076.094.157.184.239.274.051.056.106.052.153-.005.085-.103.168-.209.251-.314.145-.182.286-.382.454-.53.089-.073.173-.081.233-.002.033.043.05.064.025.122-.072.11-.168.2-.246.304-.163.219-.331.436-.508.644-.15.177-.287.365-.456.526-.038.04-.069.076-.122.071z" fill="#ededed"/><path d="m324.647 174.935c.039-.019.078-.016.117-.016.463-.001.925 0 1.388-.001.126 0 .181-.047.226-.166.025-.067.014-.132.015-.197.002-.258-.046-.319-.291-.376-.029-.007-.06-.005-.09-.005-.446 0-.892 0-1.338-.001-.083 0-.167 0-.247.022-.151.042-.295.109-.289.354.004.144-.007.289.003.432.01.146.033.294.201.351.112.038.226.069.346.069.235-.001.469 0 .704 0 .248 0 .496.002.744-.001.083-.001.175-.013.212-.098.05-.115-.019-.202-.152-.202-.486-.001-.972 0-1.458-.001-.033 0-.065.005-.098-.009-.049-.021-.077-.057-.077-.105.002-.052.054-.036.084-.05zm-.141-.388c0-.051.041-.092.092-.092h1.361c.051 0 .092.041.092.092s-.041.092-.092.092h-1.361c-.051 0-.092-.041-.092-.092z" fill="#ededed"/><path d="m320.775 174.919h.112c.05 0 .09.041.09.091s-.041.091-.09.091h-.887s-.466-.001-.699-.001l-.029.001c-.083 0-.151.068-.151.151 0 .083.068.151.151.151h.153c.241-.002.483-.001.724-.001.255 0 .51.003.765-.001.102-.002.204-.02.285-.09.1-.086.142-.356.081-.491-.068-.15-.197-.2-.346-.202-.362-.004-.724-.001-1.087-.002h-.207c-.051 0-.092-.032-.092-.07 0-.039.041-.07.092-.07h.044 1.338c.043 0 .085-.004.126-.02.103-.038.134-.082.109-.189-.018-.08-.084-.093-.155-.093-.476 0-.953.001-1.429-.001-.116 0-.229.013-.344.037-.119.025-.182.093-.2.2-.014.081-.014.169 0 .25.018.101.073.177.187.204.113.027.225.052.34.053.375.004.747.002 1.119.002" fill="#ededed"/><path d="m315.984 174.919h.112c.05 0 .09.041.09.091s-.041.091-.09.091h-.888s-.466-.001-.699-.001l-.029.001c-.083 0-.151.068-.151.151 0 .083.068.151.151.151h.153c.241-.002.483-.001.724-.001.255 0 .51.003.765-.001.102-.002.204-.02.285-.09.1-.086.142-.356.081-.491-.068-.15-.197-.2-.346-.202-.362-.004-.724-.001-1.087-.002h-.207c-.051 0-.092-.032-.092-.07s.041-.07.092-.07h.044 1.338c.043 0 .085-.004.126-.02.104-.038.134-.082.109-.189-.018-.08-.084-.093-.155-.093-.476 0-.953.001-1.429-.001-.116 0-.229.013-.344.037-.119.025-.182.093-.2.2-.014.081-.014.169 0 .25.018.101.073.177.187.204.113.027.225.052.34.053.376.004.748.002 1.12.002" fill="#ededed"/></svg>