<svg enable-background="new 0 0 65.856 40.007" viewBox="0 0 65.856 40.007" xmlns="http://www.w3.org/2000/svg"><path d="m7.555 23.098c-.045 0-.09-.01-.133-.029-4.35-2.113-6.598-4.573-6.496-7.12.082-2.095 1.793-4.073 4.945-5.722 2.992-1.563 7.213-2.804 12.205-3.588.166-.027.322.088.348.254.027.167-.088.323-.254.347-10.113 1.59-16.486 4.936-16.634 8.733-.088 2.252 2.096 4.577 6.152 6.546.152.073.215.256.141.407-.053.109-.162.172-.274.172z"/><path d="m45.475 7.464c-.018 0-.033-.001-.051-.003-3.213-.528-6.605-.88-10.08-1.047-.17-.007-.299-.151-.291-.319s.154-.297.32-.289c3.498.168 6.914.522 10.15 1.053.166.027.279.184.252.351-.022.148-.153.254-.3.254z"/><path d="m35.874 28.042c-.084 0-.17 0-.256 0-.168 0-.303 0-.303 0s.137 0 .305 0c.084 0 .17-.178.254-.178 16.322 0 29.201-4.333 29.371-9.785.059-1.908-1.473-3.889-4.434-5.642-2.947-1.747-7.172-3.258-12.215-4.327-.166-.036-.271-.208-.236-.374.035-.163.197-.273.361-.239 5.109 1.083 9.396 2.595 12.402 4.373 3.162 1.875 4.799 3.997 4.731 6.141-.09 2.901-3.293 5.417-9.02 7.315-5.534 1.834-12.97 2.716-20.96 2.716z"/><path d="m41.397 12.415 8.053-6.136-9.457 3.775-2.658-2.766.847 3.832-8.05 6.138 9.457-3.776 2.656 2.767z"/><path d="m31.315 20.079c.113-.57.326-.486.9-.578l.537-.085-.166.895-.537.085c-.576.092-.83.245-.734-.317zm-1.164-.819-.418 2.245c-.113.613.072.812.662.718l3.416-.542.732-3.938-3.418.541c-.589.093-.861.363-.974.976zm21.69-3.545-.039.217 3.525-.56c.277-.045.549-.326.604-.63.057-.304-.123-.516-.4-.471l-.906.145-1.443.228-.365.058c-.426.068-.891.552-.976 1.013zm-24.727 10.155.029-.156c.121.009.283.056.426.034l3.662-.575c-.137.732-1.102.914-2.574 1.148l-1.676.266-.9 4.834 2.203-.349c5.424-.536 7.486-3.337 8.149-6.679l6.607-1.048 1.064-5.73.537-.086c.59-.093.502-.198.389.412l-.975 5.242 4.745-.753.064-.346c.357.156.777.213 1.221.143l8.201-1.301.768-4.119-.533-.379c.461-.545.82-1.212.924-1.773l.129-.647c.41-2.43-1.83-3.075-2.852-2.912l-4.707.746c-.834.134-1.752.714-2.42 1.483-.619-.612-1.57-.85-2.127-.761l-5.24.83.586 1.297 4.729-.748c.682-.109 1.137.163 1.262.702-.051.143-1.262 6.595-1.262 6.595l-1.695.269.908-4.884c.113-.612-.072-.811-.662-.716l-3.246.516-1.066 5.728-1.863.296 1.221-6.559-1.535-1.809-5.521 1.994 2.617-.414.043-.006-1.664 8.951c-.422 2.274-2.85 4.447-5.002 4.79l-2.203.349.334-1.789 1.676-.266c1.475-.234 3.131-1.71 3.416-3.251l.182-.97-4.363.691c-.936.149-1.443-.418-1.258-1.406l.781-4.21c.139-.747.606-1.368 1.231-1.69l.01-.112 2.188-1.685-1.277.215c-.682.109-1.941.618-2.744 1.64-.605-.722-1.666-1.006-2.262-.911l-4.703.748.768-4.12 3.43-.544c1.826-.29 3.848-2.343 4.205-4.272l.516-2.776c.359-1.931-.998-3.447-2.824-3.159l-7.498 1.189-1.596 8.596-6.904 1.097c-.584.092-1.152.667-1.268 1.285l-2.58 13.877c-.113.618.268 1.044.852.951l13.172-2.09 1.066-5.729.537-.086c.59-.093.502-.199.389.413l-.975 5.24zm-9.775-3.142-4.404.7.166-.895 3.557-.564.867-4.655-3.559.566.166-.896 4.404-.698zm-.266 1.433-.367 1.97-7.793 1.236 2.43-13.071 6.437-1.019-.332 1.79-4.574.726-.699 3.76 3.727-.591-.332 1.79-3.727.591-.701 3.761zm8.951.493-1.863.295.906-4.883c.115-.612-.068-.811-.66-.717l-3.248.516-1.064 5.729-1.863.295 1.396-7.518.045-.008 6.184-.979c.934-.15 1.441.417 1.258 1.405zm12.113-9.221 1.822-.288-1.398 7.521-1.863.294 1.398-7.519zm11.305 3.544.646-3.477c.205-1.101 1.387-2.182 2.395-2.342l4.357-.691c.734-.116 1.244.704 1.094 1.507l-.213 1.119c-.15.803-.971 1.656-1.703 1.773l-4.525.719-.064.406c-.086.461.221.821.645.753l5.055-.804-.34 1.834-5.703.904c-1.009.16-1.849-.599-1.644-1.701zm-26.963-9.748.633-3.401 2.371-.378c.31-.048.471.127.408.457l-.431 2.328c-.061.329-.297.568-.607.617z"/><path d="m37.639 10.821-.502-1.995-.285.034-.092.491c-.063.342-.336.62-.658.67l-1.947.309c-.322.051-.508-.153-.443-.495l.982-5.28c.062-.342.338-.619.658-.671l1.949-.309c.32-.052.504.155.441.494l-.125.673 3.94-.626.15-.806c.377-2.031-1.004-3.576-2.928-3.273l-3.77.599c-1.922.305-3.98 2.396-4.359 4.428l-1.047 5.64c-.377 2.033 1.004 3.578 2.928 3.273l1.26-.2z"/><path d="m40.432 9.616c.104-.277.174-.381.226-.664l.135-.718-1.57.249z"/><path clip-rule="evenodd" d="m59.9 33.074c-.449-.388-.969-.578-1.561-.578h-6.535c-.253-.001-.496.027-.745.1-.482.143-.872.4-1.192.783-.325.388-.548.833-.554 1.332-.021 1.702-.006 3.405-.01 5.107-.001.121.036.152.153.152.69-.005 1.379-.008 2.068.001.157.003.204-.031.202-.197-.008-1.489-.007-2.978-.003-4.466 0-.35.145-.628.476-.776.171-.078.362-.087.546-.091.311-.008.622.009.933-.006.171-.008.207.049.206.211-.005 1.727-.002 3.453-.007 5.18 0 .14.031.185.179.183.653-.009 1.306-.009 1.958.001.152.002.176-.05.176-.186-.005-1.239-.003-2.478-.003-3.715 0-.507.001-1.014 0-1.52 0-.081-.014-.159.114-.15.424.024.848-.001 1.274.026.456.029.777.416.775.883-.007 1.477 0 2.954-.006 4.429-.001.146.024.198.185.196.683-.01 1.366-.009 2.05 0 .154.002.189-.042.188-.192-.005-1.605-.005-3.21-.002-4.815.004-.768-.287-1.394-.865-1.892zm.144 6.383c-.329-.013-.659-.01-.988-.001-.133.003-.16-.04-.159-.165.004-1.318.01-2.637-.001-3.954-.004-.503-.209-.922-.646-1.197-.225-.142-.485-.208-.749-.213-.561-.01-1.123.002-1.684-.007-.146-.002-.18.039-.18.182.005 1.727.001 3.453.007 5.18.001.162-.034.222-.206.212-.274-.016-.55-.015-.823 0-.16.008-.186-.049-.186-.195.005-1.721 0-3.442.008-5.163.001-.179-.045-.221-.22-.217-.543.012-1.087-.009-1.629.008-.5.016-.925.204-1.199.646-.147.237-.215.505-.215.785-.002 1.3-.004 2.6.003 3.899.001.16-.036.208-.2.2-.329-.014-.658-.008-.988-.002-.099.001-.137-.023-.137-.131.004-1.532-.01-3.064.008-4.595.008-.74.615-1.4 1.273-1.584.268-.075.529-.101.801-.101 1.037.002 2.075.001 3.112.001 1.123 0 2.246-.014 3.369.005.682.012 1.208.34 1.571.92.17.271.231.574.231.889.002 1.471-.001 2.942.003 4.412.001.136-.024.192-.176.186zm-49.461-6.928c-2.02.005-4.039.004-6.059.003-.484 0-.969-.003-1.449.073-.537.084-1.028.281-1.469.595-.512.364-.901.827-1.197 1.392-.411.786-.488 1.613-.339 2.453.141.799.529 1.487 1.157 2.032.689.598 1.476.919 2.386.924 1.129.007 2.258.001 3.386.001 1.208 0 2.416-.002 3.624.003.129 0 .164-.034.163-.162-.008-.513-.01-1.025.001-1.538.003-.161-.033-.213-.206-.212-2.136.008-4.271.002-6.407.007-.612.001-1.101-.239-1.477-.711-.278-.348-.396-.764-.363-1.194.035-.47.216-.894.591-1.217.321-.277.677-.467 1.108-.468 2.191-.003 4.381-.003 6.571.002.14.001.185-.03.183-.178-.01-.537-.012-1.074.001-1.611.004-.171-.053-.194-.205-.194zm-.347 1.26c.013.162-.032.213-.205.212-1.659-.007-3.32-.003-4.979-.003-.324 0-.648.012-.97-.003-.894-.042-1.806.688-2.095 1.465-.311.833-.196 1.598.318 2.29.324.436.778.725 1.332.829.114.022.226.032.34.032 2.02 0 4.04.003 6.06-.003.159-.001.215.035.2.198-.016.163-.014.33-.001.494.012.149-.029.195-.186.194-1.105-.008-2.209-.005-3.314-.005-1.043 0-2.087.008-3.131-.002-.749-.007-1.407-.264-1.985-.75-.491-.412-.824-.923-.98-1.533-.257-1.01-.121-1.955.504-2.821.493-.684 1.167-1.061 1.964-1.25.186-.044.384-.049.576-.049 2.117-.003 4.235 0 6.353-.006.16 0 .215.036.2.2-.016.168-.014.341-.001.511zm26.029 4.272c-.07-.481-.254-.919-.532-1.315-.069-.096-.043-.163.011-.223.15-.168.25-.366.334-.569.204-.497.3-1.004.162-1.543-.141-.553-.411-1.011-.864-1.368-.45-.356-.957-.542-1.524-.545-1.367-.008-2.734-.002-4.101-.002-1.428 0-2.856.001-4.284-.003-.132 0-.188.019-.188.174.006 2.392.005 4.784.001 7.177 0 .128.033.163.161.162.689-.006 1.38-.008 2.069.001.148.002.195-.03.193-.187-.009-.72.001-1.439-.008-2.161-.002-.158.047-.186.194-.186 1.593.005 3.186.002 4.778.004.175.001.348.003.524.03.426.062.695.455.696.789.001.518.003 1.037-.003 1.555-.001.119.029.156.151.154.708-.005 1.416-.006 2.124.001.129.001.148-.047.147-.158-.006-.44.001-.878-.004-1.318 0-.157-.015-.315-.037-.469zm-.683 1.431c-.335-.009-.671-.009-1.007 0-.118.003-.141-.038-.14-.146.006-.385-.007-.769.005-1.153.013-.422-.38-1.004-.833-1.16-.215-.074-.426-.109-.653-.109-1.879.005-3.759.005-5.639-.002-.174-.001-.207.053-.205.213.008.732 0 1.465.006 2.196.001.131-.035.165-.163.162-.311-.01-.623-.012-.933.001-.151.006-.193-.034-.192-.189.006-1.831.004-3.662.004-5.493 0-.176.012-.355-.003-.53-.017-.183.032-.244.231-.242 1.306.01 2.611.005 3.918.005 1.294 0 2.588-.011 3.882.004.837.01 1.608.605 1.822 1.447.192.761-.017 1.408-.567 1.952-.111.109-.168.179-.027.32.167.168.304.369.411.585.134.271.227.55.223.857-.005.378-.005.757.001 1.136.001.106-.021.15-.141.146zm-14.89-6.259c-.566-.403-1.191-.688-1.888-.694-2.428-.018-4.856-.006-7.284-.01-.149 0-.192.033-.192.188.006 2.366.006 4.734 0 7.1 0 .155.041.19.191.189 1.238-.006 2.477-.004 3.715-.004h3.569c.133 0 .263-.006.395-.032.99-.194 1.772-.713 2.353-1.527.375-.523.571-1.119.662-1.759.085-.595-.001-1.164-.201-1.716-.258-.71-.7-1.293-1.32-1.735zm.71 4.437c-.138.272-.298.528-.495.765-.238.288-.522.512-.844.688-.381.206-.789.356-1.225.362-1.128.013-2.257.004-3.385.004-1.147 0-2.294-.002-3.44.003-.137.001-.172-.034-.172-.171.005-2.025.005-4.05 0-6.075-.001-.142.043-.168.174-.168 2.233.003 4.465-.014 6.697.012.708.009 1.348.293 1.882.777.429.39.773.841.95 1.402.075.238.145.477.153.733.02.579-.029 1.143-.295 1.668zm26.434-4.024c-.302-.323-.658-.579-1.058-.761-.448-.204-.915-.353-1.416-.353-.891.001-1.782.001-2.673.001-.763 0-1.525-.003-2.288.002-.26.001-.519-.018-.78.032-.759.143-1.429.459-1.984 1-.37.36-.653.781-.85 1.259-.314.761-.372 1.551-.17 2.342.207.808.635 1.49 1.301 2.016.684.541 1.46.813 2.324.817 1.672.009 3.344.005 5.016.001.246 0 .49-.041.729-.099.509-.123.972-.336 1.399-.655.53-.396.924-.889 1.183-1.488.291-.672.387-1.372.266-2.104-.13-.777-.465-1.441-.999-2.01zm.457 3.258c-.142.732-.506 1.333-1.061 1.813-.349.302-.753.513-1.209.633-.351.093-.702.102-1.057.102h-2.27c-.824 0-1.648-.016-2.471.003-1.338.031-2.544-.843-2.977-2.04-.406-1.123-.259-2.176.446-3.131.444-.601 1.057-.989 1.79-1.156.237-.054.481-.09.732-.089 1.721.009 3.442-.015 5.162.015.688.012 1.31.281 1.845.739.368.315.66.683.853 1.12.28.638.351 1.302.217 1.991zm17.041-3.568c-.757.004-1.513.002-2.269.002h-.224c.072-.124.16-.11.241-.11.348 0 .696-.002 1.043.002.134.001.262-.027.388-.065.764-.235 1.106-.989.959-1.704-.15-.736-.677-1.131-1.403-1.156-.811-.026-1.623-.003-2.434-.008-.16-.001-.214.068-.211.22.006.299.01.598-.002.897-.006.14.038.171.173.17.652-.008 1.306-.003 1.958-.003.216 0 .325.067.326.201.001.151-.081.202-.33.202-.354 0-.708-.006-1.061.003-.149.003-.302.017-.443.06-.655.197-.937.724-.98 1.38-.024.364-.001.731-.006 1.097-.002.101.025.135.131.135 1.379-.003 2.757-.003 4.136 0 .13.001.17-.045.168-.171-.006-.336-.008-.672.001-1.007.003-.131-.051-.145-.161-.145zm-.097.959c.006.113-.03.16-.143.141-.005-.001-.012 0-.018 0h-1.812c-.592 0-1.183-.006-1.774.004-.175.003-.216-.055-.214-.22.006-.363.005-.724.076-1.082.062-.315.365-.754.754-.833.197-.04.39-.068.589-.067.347.002.696.002 1.043.001.223-.001.423-.183.435-.392.015-.266-.128-.44-.374-.49-.169-.033-.337-.033-.505-.033-.482-.001-.964-.007-1.446.003-.142.003-.18-.042-.168-.175.011-.127.013-.256-.001-.383-.017-.175.066-.217.222-.216.658.003 1.317.002 1.975.001.158 0 .307.024.462.063.46.116.738.412.854.853.172.658-.175 1.314-.899 1.494-.047.011-.097.007-.145.007-.397.001-.793-.001-1.19.001-.275.002-.531.23-.546.472-.007.118.028.158.15.153.237-.009.475-.003.714-.003.598 0 1.196.006 1.794-.003.141-.002.176.041.168.174-.012.176-.01.354-.001.53zm-40.892 1.169c-.257-.163-.559-.148-.855-.152-.651-.01-1.226.708-1.007 1.358.165.488.536.744 1.199.771.086.029.196-.02.307-.041.606-.115.828-.508.88-.889.056-.419-.073-.762-.524-1.047zm-.051 1.111c-.065.197-.219.296-.414.312-.203.016-.409.014-.611-.036-.171-.042-.351-.312-.329-.49.034-.274.208-.457.436-.46h.255c.187.013.399-.043.574.141.158.167.151.341.089.533zm9.064-2.609c-2.02-.014-4.04-.004-6.061-.008-.124 0-.15.041-.149.156.006.549.008 1.099-.001 1.647-.002.145.038.181.181.18 1.007-.006 2.014-.003 3.021-.003.909 0 1.818.001 2.728 0 .252-.001.496-.008.745-.1.416-.154.727-.668.589-1.117-.165-.538-.533-.751-1.053-.755zm.364 1.32c-.124.073-.249.105-.393.105-1.8-.004-3.6-.006-5.4.003-.199.001-.248-.059-.231-.242.015-.157.013-.318 0-.475-.012-.141.038-.171.173-.17.946.006 1.892.003 2.837.003h2.819c.209 0 .35.102.399.286.062.237.002.369-.204.49zm-14.273-.806c-.368-.296-.794-.503-1.256-.51-1.617-.024-3.234-.008-4.851-.012-.141-.001-.183.031-.183.179.006 1.434.006 2.869-.001 4.302-.001.153.051.176.186.175.817-.006 1.636-.003 2.453-.003.805 0 1.612-.002 2.417.003.183.001.368-.024.529-.089.887-.36 1.449-1.01 1.549-1.97.087-.82-.178-1.54-.843-2.075zm-1.087 3.614c-.046.012-.097.004-.146.004h-2.142c-.726 0-1.453-.003-2.178.003-.133 0-.189-.019-.188-.174.008-1.086.006-2.172.001-3.258 0-.128.034-.162.162-.162 1.397.005 2.795-.014 4.192.009.886.015 1.537.472 1.715 1.417.187.993-.318 1.866-1.416 2.161zm26.229-4.134c-.634.003-1.269.001-1.903.001-.579 0-1.159.003-1.738-.001-.448-.003-.883.041-1.289.256-.461.244-.824.588-1.041 1.06-.189.412-.267.845-.198 1.311.07.482.255.897.574 1.25.487.539 1.115.771 1.832.774 1.116.005 2.233.003 3.349 0 .272-.001.544.013.816-.032.472-.079.896-.257 1.246-.584.421-.393.663-.871.735-1.458.065-.529-.034-1.012-.303-1.444-.472-.763-1.178-1.138-2.08-1.133zm1.304 3.664c-.38.348-.846.46-1.34.471-.622.013-1.244.003-1.867.003-.591 0-1.183.004-1.775-.001-.43-.005-.845-.073-1.214-.318-.44-.293-.701-.697-.795-1.218-.097-.538.051-1.013.373-1.431.306-.397.728-.644 1.23-.651 1.421-.018 2.843-.007 4.264-.006.404.001.752.136 1.071.391.332.264.532.599.621.999.155.692-.044 1.281-.568 1.761z" fill="#0f0f0f" fill-rule="evenodd"/></svg>