<svg enable-background="new 0 0 171.16 105.162" viewBox="0 0 171.16 105.162" xmlns="http://www.w3.org/2000/svg"><path d="m121.484 21.123c-14.597 0-26.43 11.833-26.43 26.429s11.833 26.43 26.43 26.43 26.43-11.833 26.43-26.43-11.833-26.429-26.43-26.429zm0 39.892c-7.438 0-13.466-6.029-13.466-13.466s6.028-13.466 13.466-13.466 13.467 6.029 13.467 13.466-6.03 13.466-13.467 13.466z"/><path d="m168.949 67.349c1.515 1.557 1.99 2.076 1.99 2.076s.259.173.216.908 0 24.178 0 24.912c0 .735-.216.735-.433.995-.216.26-1.773 2.076-1.773 2.076z" fill="#d9dadb"/><path d="m2.21 67.349c-1.514 1.557-1.99 2.076-1.99 2.076s-.259.173-.216.908 0 24.178 0 24.912c0 .735.216.735.432.995s1.773 2.076 1.773 2.076v-30.967z" fill="#d9dadb"/><path d="m166.442 0h-161.794c-1.69 0-3.072 1.383-3.072 3.073v99.017c0 1.689 1.382 3.072 3.072 3.072h161.793c1.689 0 3.072-1.383 3.072-3.072v-99.017c.001-1.69-1.382-3.073-3.071-3.073zm-121.489 102.919c-2.01 0-3.639-1.629-3.639-3.639s1.629-3.639 3.639-3.639 3.639 1.629 3.639 3.639-1.63 3.639-3.639 3.639zm4.722-46.234c-5.046 0-9.136-4.09-9.136-9.136s4.09-9.135 9.136-9.135c5.045 0 9.136 4.09 9.136 9.135s-4.091 9.136-9.136 9.136zm15.639 41.821c0 .724-.593 1.316-1.316 1.316h-4.024c-.725 0-1.317-.593-1.317-1.316v-3.638c0-.725.593-1.316 1.317-1.316h4.024c.724 0 1.316.592 1.316 1.316zm33.959-51.216c0 .07-.139.127-.308.127h-26.771c-.169 0-.307-.057-.307-.127v-5.187c0-.07.138-.127.307-.127h26.771c.169 0 .308.057.308.127zm13.23 51.216c0 .724-.592 1.316-1.316 1.316h-4.024c-.725 0-1.317-.593-1.317-1.316v-3.638c0-.725.593-1.316 1.317-1.316h4.024c.725 0 1.316.592 1.316 1.316zm13.704 4.413c-2.009 0-3.639-1.629-3.639-3.639s1.63-3.639 3.639-3.639c2.01 0 3.64 1.629 3.64 3.639s-1.631 3.639-3.64 3.639zm-4.723-46.234c-5.045 0-9.135-4.09-9.135-9.136s4.09-9.135 9.135-9.135c5.046 0 9.136 4.09 9.136 9.135s-4.09 9.136-9.136 9.136z" fill="#e9e8e4"/><path d="m49.676 26.788c-11.468 0-20.765 9.297-20.765 20.765s9.297 20.765 20.765 20.765 20.765-9.296 20.765-20.765c0-11.468-9.297-20.765-20.765-20.765zm0 34.231c-7.438 0-13.467-6.029-13.467-13.466s6.029-13.466 13.467-13.466 13.466 6.029 13.466 13.466-6.028 13.466-13.466 13.466z"/><path d="m121.484 37.922c-5.316 0-9.627 4.31-9.627 9.627s4.311 9.627 9.627 9.627c5.317 0 9.628-4.31 9.628-9.627s-4.311-9.627-9.628-9.627zm.589 17.655v-1.753h-1.144v1.756c-2.547-.174-4.77-1.53-6.119-3.526l1.521-.878-.572-.99-1.521.878c-.516-1.062-.806-2.254-.806-3.514 0-1.27.294-2.47.817-3.538l1.504.868.571-.99-1.5-.866c1.35-1.981 3.56-3.327 6.093-3.503v1.711h1.144v-1.711c2.528.18 4.734 1.524 6.082 3.503l-1.484.856.572.991 1.486-.858c.523 1.068.817 2.268.817 3.537 0 1.252-.285 2.438-.796 3.495l-1.503-.868-.571.99 1.505.87c-1.341 1.996-3.555 3.357-6.096 3.54z" fill="#e2e2df"/><path d="m49.675 37.922c-5.317 0-9.628 4.31-9.628 9.627s4.311 9.627 9.628 9.627 9.627-4.31 9.627-9.627-4.309-9.627-9.627-9.627zm.555 17.658v-1.756h-1.144v1.753c-2.54-.184-4.755-1.544-6.098-3.541l1.506-.87-.572-.99-1.503.868c-.51-1.057-.796-2.242-.796-3.495 0-1.269.295-2.469.818-3.537l1.486.858.573-.99-1.483-.856c1.347-1.979 3.553-3.323 6.081-3.503v1.711h1.144v-1.712c2.533.176 4.744 1.521 6.094 3.503l-1.501.866.572.99 1.503-.868c.523 1.068.818 2.268.818 3.538 0 1.26-.29 2.452-.806 3.514l-1.522-.877-.571.99 1.521.878c-1.35 1.996-3.572 3.352-6.12 3.526z" fill="#e2e2df"/><path d="m144.702 105.162c-1.052-4.787-4.57-21.569-4.946-23.224-.387-1.703-1.084-3.097-3.252-3.097-2.167 0-99.68 0-101.848 0s-2.864 1.394-3.252 3.097c-.376 1.654-3.895 18.437-4.946 23.224h1.612c1.272-5.864 4.179-19.609 4.657-21.9.535-2.563 1.084-3.097 3.252-3.097s97.034 0 99.202 0c2.167 0 2.716.534 3.251 3.097.479 2.291 3.386 16.036 4.658 21.9z" fill="#d9dadb"/><path clip-rule="evenodd" d="m158.833 14.732c-.144-.165-5.323-5.571-5.546-5.809-.155-.167-.408-.171-.408-.171h-134.597s-.253.004-.409.171c-.223.238-5.402 5.644-5.546 5.809-.223.256-.178.418-.178.418v57.916c0 .241.198.438.439.438h145.983c.241 0 .438-.197.438-.438v-57.915c.001 0 .046-.162-.176-.419zm-26.233 32.817c0 6.114-5.002 11.116-11.116 11.116h-71.809c-6.113 0-11.115-5.002-11.115-11.116s5.002-11.116 11.115-11.116h71.809c6.114.001 11.116 5.003 11.116 11.116z" fill="#7a9ca5" fill-rule="evenodd"/><path d="m99.39 41.635h-27.62c-.175 0-.317.064-.317.143v5.836c0 .079.143.143.317.143h27.62c.174 0 .316-.064.316-.143v-5.836c.001-.079-.142-.143-.316-.143zm-.117 5.655c0 .07-.139.127-.308.127h-26.771c-.169 0-.307-.057-.307-.127v-5.187c0-.07.138-.127.307-.127h26.771c.169 0 .308.057.308.127z" fill="#b4b4b5"/><path clip-rule="evenodd" d="m121.484 36.434c-6.139 0-65.67 0-71.809 0s-11.115 4.976-11.115 11.115 4.977 11.116 11.115 11.116 65.67 0 71.809 0c6.14 0 11.116-4.977 11.116-11.116s-4.976-11.115-11.116-11.115zm-71.826 20.251c-5.055 0-9.153-4.098-9.153-9.153s4.099-9.153 9.153-9.153 9.153 4.098 9.153 9.153-4.099 9.153-9.153 9.153zm50.049-9.071c0 .079-.143.143-.316.143h-27.621c-.175 0-.317-.064-.317-.143v-5.836c0-.079.143-.143.317-.143h27.62c.174 0 .316.064.316.143v5.836zm21.777 9.071c-5.056 0-9.153-4.098-9.153-9.153s4.098-9.153 9.153-9.153 9.153 4.098 9.153 9.153-4.098 9.153-9.153 9.153z" fill="#e9e8e4" fill-rule="evenodd"/><circle cx="7.261" cy="5.726" fill="#dbdbdb" r="3.025"/><path d="m7.505 8.021h-.487c-.153 0-.278-.125-.278-.278v-4.034c0-.153.125-.278.278-.278h.487c.153 0 .278.125.278.278v4.034c0 .153-.125.278-.278.278z" fill="#8e8e8e"/><path d="m9.556 5.483v.487c0 .153-.125.278-.278.278h-4.034c-.153 0-.278-.125-.278-.278v-.487c0-.153.125-.278.278-.278h4.034c.153 0 .278.125.278.278z" fill="#8e8e8e"/><circle cx="163.788" cy="5.726" fill="#dbdbdb" r="3.025"/><path d="m164.032 8.021h-.487c-.153 0-.278-.125-.278-.278v-4.034c0-.153.125-.278.278-.278h.487c.153 0 .278.125.278.278v4.034c0 .153-.125.278-.278.278z" fill="#8e8e8e"/><path d="m166.083 5.483v.487c0 .153-.125.278-.278.278h-4.034c-.153 0-.278-.125-.278-.278v-.487c0-.153.125-.278.278-.278h4.034c.153 0 .278.125.278.278z" fill="#8e8e8e"/><circle cx="163.788" cy="99.437" fill="#dbdbdb" r="3.025"/><path d="m164.032 101.732h-.487c-.153 0-.278-.125-.278-.278v-4.034c0-.153.125-.278.278-.278h.487c.153 0 .278.125.278.278v4.034c0 .152-.125.278-.278.278z" fill="#8e8e8e"/><path d="m166.083 99.193v.487c0 .153-.125.278-.278.278h-4.034c-.153 0-.278-.125-.278-.278v-.487c0-.153.125-.278.278-.278h4.034c.153 0 .278.125.278.278z" fill="#8e8e8e"/><circle cx="7.261" cy="99.437" fill="#dbdbdb" r="3.025"/><path d="m7.505 101.732h-.487c-.153 0-.278-.125-.278-.278v-4.034c0-.153.125-.278.278-.278h.487c.153 0 .278.125.278.278v4.034c0 .152-.125.278-.278.278z" fill="#8e8e8e"/><path d="m9.556 99.193v.487c0 .153-.125.278-.278.278h-4.034c-.153 0-.278-.125-.278-.278v-.487c0-.153.125-.278.278-.278h4.034c.153 0 .278.125.278.278z" fill="#8e8e8e"/><circle cx="85.545" cy="87" fill="#dbdbdb" r="3.025"/><path d="m85.789 89.295h-.487c-.153 0-.278-.125-.278-.278v-4.034c0-.153.125-.278.278-.278h.487c.153 0 .278.125.278.278v4.034c0 .153-.125.278-.278.278z" fill="#8e8e8e"/><path d="m87.84 86.757v.487c0 .153-.125.278-.278.278h-4.034c-.153 0-.278-.125-.278-.278v-.487c0-.153.125-.278.278-.278h4.034c.153-.001.278.125.278.278z" fill="#8e8e8e"/><path d="m68.186 11.256v2.809h-.324v-2.809h-.887v-.297h2.098v.297z"/><path d="m69.401 13.317-.262.747h-.347l1.13-3.106h.274l1.13 3.106h-.346l-.261-.747zm.657-1.9-.563 1.621h1.13z"/><path d="m73.982 14.064h-.328l-1.607-2.503v2.503h-.328v-3.106h.328l1.607 2.494v-2.494h.328z"/><path d="m74.638 12.912v-.806c0-.411.098-.712.293-.903.195-.19.457-.286.787-.286.327 0 .588.095.781.286s.291.492.291.903v.806c0 .411-.098.712-.293.902-.195.191-.456.286-.783.286-.33 0-.592-.095-.785-.286-.194-.19-.291-.491-.291-.902zm1.823-.792c0-.604-.247-.905-.743-.905-.249 0-.437.071-.563.213s-.188.373-.188.691v.81c0 .303.063.523.191.662.127.138.313.207.56.207.496 0 .743-.29.743-.869z"/><path d="m81.092 14.064h-.328v-2.431l-.878 1.81h-.252l-.883-1.81v2.431h-.328v-3.106h.328l1.009 2.093 1.004-2.093h.328z"/><path d="m82.091 13.317-.262.747h-.347l1.13-3.106h.274l1.13 3.106h-.346l-.261-.747zm.657-1.9-.563 1.621h1.13z"/><path d="m84.196 13.187h.324c.042.411.288.617.738.617.234 0 .412-.049.533-.148.122-.099.183-.243.183-.432 0-.171-.048-.3-.145-.387-.096-.087-.241-.147-.437-.18l-.351-.059c-.252-.042-.446-.128-.581-.259s-.202-.314-.202-.552c0-.273.091-.486.274-.639s.425-.229.725-.229c.276 0 .502.071.678.214.175.143.279.359.313.65h-.324c-.036-.387-.26-.581-.671-.581-.213 0-.379.05-.497.151s-.178.238-.178.412c0 .153.046.272.138.358.091.085.229.145.416.178l.36.063c.261.045.46.135.599.27.138.135.207.326.207.572 0 .282-.095.5-.284.655-.188.154-.448.231-.778.231-.313 0-.557-.076-.733-.229-.178-.154-.28-.379-.307-.676z"/><path d="m87.751 11.256v2.809h-.324v-2.809h-.887v-.297h2.098v.297z"/><path d="m89.362 12.336h1.333v.297h-1.333v1.135h1.558v.297h-1.886v-3.106h1.886v.297h-1.558z"/><path d="m91.824 12.701v1.364h-.328v-3.106h1.152c.291 0 .52.076.687.228.166.151.249.367.249.646 0 .222-.058.405-.175.549s-.281.24-.491.288l.734 1.396h-.379l-.702-1.364h-.747zm.797-.284c.201 0 .357-.05.468-.151s.167-.244.167-.43c0-.192-.055-.337-.164-.435s-.267-.146-.471-.146h-.797v1.161h.797z"/><path d="m96.284 11.886c0 .279-.088.498-.264.657-.175.159-.413.239-.713.239h-.788v1.283h-.328v-3.106h1.116c.303 0 .542.08.716.241s.261.389.261.686zm-.328 0c0-.213-.059-.371-.176-.475s-.284-.155-.5-.155h-.761v1.229h.761c.216 0 .383-.049.5-.148s.176-.25.176-.451z"/><path d="m96.869 13.317-.262.747h-.347l1.13-3.106h.274l1.13 3.106h-.347l-.261-.747zm.656-1.9-.563 1.621h1.13z"/><path d="m99.083 12.912v-.806c0-.411.1-.712.297-.903.198-.19.464-.286.797-.286.21 0 .396.039.557.117.16.078.284.189.371.333s.13.311.13.5v.014h-.328v-.014c0-.201-.065-.36-.195-.477-.131-.117-.309-.175-.534-.175-.249 0-.438.07-.569.211-.13.141-.195.372-.195.693v.81c0 .579.256.869.77.869.225 0 .402-.058.531-.173s.193-.274.193-.475v-.018h.319v.018c0 .291-.095.522-.283.693-.189.171-.444.257-.766.257-.333 0-.599-.095-.797-.286-.199-.19-.298-.491-.298-.902z"/><path d="m102.218 13.209v.855h-.328v-3.106h.328v1.81l1.437-1.81h.392l-.981 1.211 1.121 1.895h-.383l-.95-1.639z"/><path d="m52.626 16.655v2.809h-.324v-2.809h-.887v-.297h2.098v.297z"/><path d="m53.71 18.312v-.806c0-.411.098-.712.293-.903.195-.19.457-.286.787-.286.327 0 .588.095.781.286s.291.492.291.903v.806c0 .411-.098.712-.293.902-.195.191-.456.286-.783.286-.33 0-.592-.095-.785-.286-.194-.19-.291-.491-.291-.902zm1.824-.792c0-.603-.247-.904-.743-.904-.249 0-.437.071-.563.213-.126.143-.188.373-.188.691v.811c0 .303.063.523.191.662.127.138.313.207.56.207.496 0 .743-.29.743-.869z"/><path d="m57.824 16.358v2.809h1.549v.297h-1.877v-3.106z"/><path d="m59.637 18.312v-.806c0-.411.098-.712.293-.903.195-.19.457-.286.787-.286.327 0 .588.095.781.286s.29.492.29.903v.806c0 .411-.097.712-.292.902-.195.191-.456.286-.783.286-.33 0-.592-.095-.785-.286-.194-.19-.291-.491-.291-.902zm1.823-.792c0-.603-.248-.904-.743-.904-.249 0-.437.071-.563.213-.126.143-.188.373-.188.691v.811c0 .303.063.523.191.662.127.138.313.207.56.207.495 0 .743-.29.743-.869z"/><path d="m62.725 18.717-.262.747h-.347l1.13-3.106h.274l1.13 3.106h-.347l-.261-.747zm.657-1.9-.563 1.621h1.13z"/><path d="m66.105 16.358c.33 0 .592.095.785.286s.29.492.29.903v.729c0 .411-.097.712-.29.903-.193.19-.455.286-.785.286h-1.063v-3.106h1.063zm.742 1.936v-.734c0-.315-.063-.544-.191-.688-.127-.144-.31-.216-.547-.216h-.733v2.512h.733c.492-.001.738-.292.738-.874z"/><path d="m69.7 16.655v2.809h-.324v-2.809h-.887v-.297h2.098v.297z"/><path d="m71.909 19.464h-.328v-1.305l-.928-1.801h.355l.734 1.49.738-1.49h.355l-.928 1.805v1.301z"/><path d="m75.32 17.286c0 .279-.088.498-.264.657-.175.159-.413.239-.713.239h-.788v1.283h-.328v-3.106h1.116c.303 0 .542.08.716.241s.261.389.261.686zm-.328 0c0-.213-.059-.371-.176-.475s-.284-.156-.5-.156h-.761v1.229h.761c.216 0 .383-.049.5-.148s.176-.249.176-.45z"/><path d="m76.152 17.736h1.333v.297h-1.333v1.135h1.558v.297h-1.886v-3.106h1.886v.297h-1.558z"/><path d="m80.406 17.754v.297h-1.238v-.297z"/><path d="m81.943 18.312v-.806c0-.411.1-.712.297-.903.198-.19.464-.286.797-.286.21 0 .396.039.557.117.16.078.284.189.371.333s.131.311.131.5v.014h-.329v-.014c0-.201-.065-.36-.195-.477-.131-.117-.309-.175-.534-.175-.249 0-.438.07-.569.211-.13.141-.195.372-.195.693v.811c0 .579.256.869.77.869.225 0 .402-.058.531-.173s.193-.274.193-.475v-.018h.319v.018c0 .291-.095.522-.283.693-.189.171-.444.257-.766.257-.333 0-.599-.095-.797-.286s-.298-.492-.298-.903z"/><path d="m85.08 16.358v2.809h1.549v.297h-1.877v-3.106z"/><path d="m86.893 18.312v-.806c0-.411.098-.712.293-.903.195-.19.457-.286.787-.286.327 0 .588.095.781.286s.29.492.29.903v.806c0 .411-.097.712-.292.902-.195.191-.456.286-.783.286-.33 0-.592-.095-.785-.286-.194-.19-.291-.491-.291-.902zm1.823-.792c0-.603-.248-.904-.743-.904-.249 0-.437.071-.563.213-.126.143-.188.373-.188.691v.811c0 .303.063.523.191.662.127.138.313.207.56.207.495 0 .743-.29.743-.869z"/><path d="m89.981 18.717-.262.747h-.347l1.13-3.106h.274l1.13 3.106h-.346l-.261-.747zm.657-1.9-.563 1.621h1.13z"/><path d="m93.361 16.358c.33 0 .592.095.785.286s.29.492.29.903v.729c0 .411-.097.712-.29.903-.193.19-.455.286-.785.286h-1.063v-3.106h1.063zm.742 1.936v-.734c0-.315-.063-.544-.191-.688-.127-.144-.31-.216-.547-.216h-.733v2.512h.733c.492-.001.738-.292.738-.874z"/><path d="m94.966 17.236v-.756l.297-.279v1.036h-.297zm.617 0v-.756l.297-.279v1.036h-.297z"/><path d="m96.807 17.745h1.333v.297h-1.333v1.422h-.328v-3.106h1.886v.297h-1.558z"/><path d="m99.268 16.358v3.106h-.328v-3.106z"/><path d="m100.353 16.358v2.809h1.549v.297h-1.877v-3.106z"/><path d="m102.733 17.736h1.333v.297h-1.333v1.135h1.558v.297h-1.886v-3.106h1.886v.297h-1.558z"/><path d="m107.13 19.464h-.328l-1.607-2.503v2.503h-.328v-3.106h.328l1.607 2.494v-2.494h.328z"/><path d="m108.129 18.717-.262.747h-.347l1.13-3.106h.274l1.13 3.106h-.347l-.261-.747zm.658-1.9-.563 1.621h1.13z"/><path d="m113.116 19.464h-.328v-2.431l-.878 1.81h-.252l-.883-1.81v2.431h-.328v-3.106h.328l1.009 2.093 1.004-2.093h.328z"/><path d="m114.163 17.736h1.333v.297h-1.333v1.135h1.558v.297h-1.886v-3.106h1.886v.297h-1.558z"/><path d="m116.085 18.586h.324c.042.411.288.617.738.617.234 0 .412-.049.533-.148.122-.099.183-.243.183-.432 0-.171-.048-.3-.145-.387-.096-.087-.241-.147-.437-.18l-.351-.059c-.252-.042-.446-.128-.581-.259s-.202-.314-.202-.552c0-.273.091-.486.274-.639s.425-.229.725-.229c.276 0 .502.071.678.214.175.143.279.359.313.65h-.324c-.036-.387-.26-.581-.671-.581-.213 0-.379.05-.497.151s-.178.238-.178.412c0 .153.046.272.138.358.091.085.229.145.416.178l.36.063c.261.045.46.135.599.27.138.135.207.326.207.572 0 .282-.095.5-.284.655-.188.154-.448.231-.778.231-.313 0-.557-.076-.733-.229-.179-.153-.28-.378-.307-.676z"/><path d="m118.929 16.354v.756l-.298.279v-1.035zm.616 0v.756l-.297.279v-1.035z"/><path d="m33.5 23.145h1.332v.297h-1.332v1.422h-.328v-3.106h1.886v.297h-1.558z"/><path d="m35.96 21.758v3.106h-.328v-3.106z"/><path d="m37.045 21.758v2.809h1.549v.297h-1.877v-3.106z"/><path d="m39.425 23.136h1.333v.297h-1.333v1.135h1.558v.297h-1.886v-3.106h1.886v.297h-1.558z"/><path d="m43.823 24.864h-.328l-1.607-2.503v2.503h-.328v-3.106h.328l1.607 2.494v-2.494h.328z"/><path d="m44.821 24.117-.261.747h-.347l1.13-3.106h.274l1.13 3.106h-.347l-.261-.747zm.657-1.9-.563 1.621h1.13z"/><path d="m49.808 24.864h-.329v-2.431l-.877 1.81h-.253l-.882-1.81v2.431h-.328v-3.106h.328l1.008 2.093 1.004-2.093h.329z"/><path d="m50.856 23.136h1.332v.297h-1.332v1.135h1.558v.297h-1.886v-3.106h1.886v.297h-1.558z"/><path d="m52.777 23.986h.324c.043.411.288.617.738.617.234 0 .412-.049.534-.148.121-.099.182-.243.182-.432 0-.171-.048-.3-.144-.387-.097-.087-.242-.147-.437-.18l-.352-.059c-.252-.042-.445-.128-.581-.259-.135-.131-.202-.314-.202-.552 0-.273.092-.486.274-.639.184-.153.425-.229.725-.229.276 0 .502.071.678.214s.28.359.313.65h-.323c-.036-.387-.26-.581-.671-.581-.213 0-.379.05-.498.151-.118.101-.178.238-.178.412 0 .153.046.272.138.358s.23.145.416.178l.36.063c.261.045.461.135.599.27.139.135.207.326.207.572 0 .282-.095.5-.283.655-.189.154-.449.231-.779.231-.312 0-.557-.076-.733-.229-.177-.153-.28-.378-.307-.676z"/><path d="m55.72 22.929v.414h-.396v-.414zm0 1.521v.414h-.396v-.414z"/><path d="m57.232 23.712v-.806c0-.411.1-.712.297-.903.198-.19.464-.286.797-.286.21 0 .396.039.557.117.16.078.284.189.371.333s.131.311.131.5v.014h-.329v-.014c0-.201-.065-.36-.195-.477-.131-.117-.309-.175-.534-.175-.249 0-.438.07-.569.211-.13.141-.195.372-.195.693v.81c0 .579.256.869.77.869.225 0 .402-.058.531-.173s.193-.274.193-.475v-.018h.319v.018c0 .291-.095.522-.283.693-.189.171-.444.257-.766.257-.333 0-.599-.095-.797-.286-.198-.19-.298-.491-.298-.902z"/><path d="m59.977 23.712v-.806c0-.411.1-.712.297-.903.198-.19.464-.286.797-.286.21 0 .396.039.557.117.16.078.284.189.371.333s.13.311.13.5v.014h-.329v-.014c0-.201-.065-.36-.195-.477-.131-.117-.309-.175-.534-.175-.249 0-.438.07-.569.211-.13.141-.195.372-.195.693v.81c0 .579.256.869.77.869.225 0 .402-.058.531-.173s.193-.274.193-.475v-.018h.319v.018c0 .291-.095.522-.283.693-.189.171-.444.257-.766.257-.333 0-.599-.095-.797-.286-.197-.19-.297-.491-.297-.902z"/><path d="m65.198 24.864h-.292l-.688-2.696-.671 2.696h-.293l-.797-3.106h.32l.63 2.575.607-2.575h.419l.63 2.575.607-2.575h.307z"/><path d="m66.696 23.5v1.364h-.328v-3.106h1.152c.291 0 .52.076.687.228.166.151.25.367.25.646 0 .222-.059.405-.176.549s-.281.24-.491.288l.734 1.396h-.379l-.702-1.365zm.797-.283c.201 0 .357-.05.468-.151s.167-.244.167-.43c0-.192-.055-.337-.164-.435s-.267-.146-.471-.146h-.797v1.161h.797z"/><path d="m69.427 21.758v3.106h-.328v-3.106z"/><path d="m71.07 22.056v2.809h-.324v-2.809h-.887v-.297h2.098v.297z"/><path d="m72.68 23.136h1.333v.297h-1.333v1.135h1.558v.297h-1.886v-3.106h1.886v.297h-1.558z"/><path d="m75.142 23.5v1.364h-.328v-3.106h1.152c.291 0 .52.076.687.228.166.151.249.367.249.646 0 .222-.058.405-.175.549s-.281.24-.491.288l.734 1.396h-.379l-.702-1.365zm.797-.283c.201 0 .357-.05.468-.151s.167-.244.167-.43c0-.192-.055-.337-.164-.435s-.267-.146-.471-.146h-.797v1.161h.797z"/><path d="m77.685 24.446v.756l-.298.279v-1.035z"/><path d="m79.196 23.712v-.806c0-.411.1-.712.297-.903.198-.19.464-.286.797-.286.21 0 .396.039.557.117.16.078.284.189.371.333s.13.311.13.5v.014h-.328v-.014c0-.201-.065-.36-.195-.477-.131-.117-.309-.175-.534-.175-.249 0-.438.07-.569.211-.13.141-.195.372-.195.693v.81c0 .579.256.869.77.869.225 0 .402-.058.531-.173s.193-.274.193-.475v-.018h.319v.018c0 .291-.095.522-.283.693-.189.171-.444.257-.766.257-.333 0-.599-.095-.797-.286-.199-.19-.298-.491-.298-.902z"/><path d="m81.941 23.712v-.806c0-.411.1-.712.297-.903.198-.19.464-.286.797-.286.21 0 .396.039.557.117.16.078.284.189.371.333s.131.311.131.5v.014h-.329v-.014c0-.201-.065-.36-.195-.477-.131-.117-.309-.175-.534-.175-.249 0-.438.07-.569.211-.13.141-.195.372-.195.693v.81c0 .579.256.869.77.869.225 0 .402-.058.531-.173s.193-.274.193-.475v-.018h.319v.018c0 .291-.095.522-.283.693-.189.171-.444.257-.766.257-.333 0-.599-.095-.797-.286-.198-.19-.298-.491-.298-.902z"/><path d="m87.418 24.864h-.328v-2.431l-.878 1.81h-.252l-.883-1.81v2.431h-.327v-3.106h.328l1.009 2.093 1.004-2.093h.328v3.106z"/><path d="m88.418 24.117-.262.747h-.347l1.13-3.106h.274l1.13 3.106h-.347l-.261-.747zm.656-1.9-.563 1.621h1.13z"/><path d="m91.099 21.758v3.106h-.328v-3.106z"/><path d="m92.183 21.758v2.809h1.549v.297h-1.877v-3.106z"/><path d="m94.564 23.136h1.333v.297h-1.333v1.135h1.558v.297h-1.886v-3.106h1.886v.297h-1.558z"/><path d="m97.025 23.5v1.364h-.328v-3.106h1.152c.291 0 .52.076.687.228.166.151.249.367.249.646 0 .222-.058.405-.175.549s-.281.24-.491.288l.734 1.396h-.379l-.702-1.365zm.797-.283c.201 0 .357-.05.468-.151s.167-.244.167-.43c0-.192-.055-.337-.164-.435s-.267-.146-.471-.146h-.797v1.161h.797z"/><path d="m99.568 24.446v.756l-.298.279v-1.035z"/><path d="m101.08 23.712v-.806c0-.411.1-.712.297-.903.198-.19.464-.286.797-.286.21 0 .396.039.557.117.16.078.284.189.371.333s.131.311.131.5v.014h-.329v-.014c0-.201-.065-.36-.195-.477-.131-.117-.309-.175-.534-.175-.249 0-.438.07-.569.211-.13.141-.195.372-.195.693v.81c0 .579.256.869.77.869.225 0 .402-.058.531-.173s.193-.274.193-.475v-.018h.319v.018c0 .291-.095.522-.283.693-.189.171-.444.257-.766.257-.333 0-.599-.095-.797-.286-.199-.19-.298-.491-.298-.902z"/><path d="m103.825 23.712v-.806c0-.411.1-.712.297-.903.198-.19.464-.286.797-.286.21 0 .396.039.557.117.16.078.284.189.371.333s.13.311.13.5v.014h-.328v-.014c0-.201-.065-.36-.195-.477-.131-.117-.309-.175-.534-.175-.249 0-.438.07-.569.211-.13.141-.195.372-.195.693v.81c0 .579.256.869.77.869.225 0 .402-.058.531-.173s.193-.274.193-.475v-.018h.319v.018c0 .291-.095.522-.283.693-.189.171-.444.257-.766.257-.333 0-.599-.095-.797-.286-.199-.19-.298-.491-.298-.902z"/><path d="m109.301 24.864h-.328v-2.431l-.878 1.81h-.252l-.883-1.81v2.431h-.328v-3.106h.328l1.009 2.093 1.004-2.093h.328z"/><path d="m110.349 23.136h1.333v.297h-1.333v1.135h1.558v.297h-1.886v-3.106h1.886v.297h-1.558z"/><path d="m112.811 23.5v1.364h-.328v-3.106h1.152c.291 0 .52.076.687.228.166.151.25.367.25.646 0 .222-.059.405-.176.549s-.281.24-.491.288l.734 1.396h-.379l-.702-1.364h-.747zm.797-.283c.201 0 .357-.05.468-.151s.167-.244.167-.43c0-.192-.055-.337-.164-.435s-.267-.146-.471-.146h-.797v1.161h.797z"/><path d="m115.115 23.712v-.806c0-.411.099-.712.295-.903.196-.19.46-.286.79-.286.213 0 .399.039.559.117s.282.188.369.331.13.307.13.493v.018h-.328v-.018c0-.198-.065-.355-.196-.471-.13-.115-.307-.173-.528-.173-.249 0-.438.071-.567.213s-.193.373-.193.691v.81c0 .579.255.869.765.869.237 0 .418-.064.543-.193.124-.129.187-.335.187-.617v-.237h-.743v-.284h1.072v.464c0 .408-.097.705-.289.891-.191.186-.451.279-.778.279-.33 0-.594-.095-.79-.286-.2-.19-.298-.491-.298-.902z"/><path d="m118.251 23.136h1.333v.297h-1.333v1.135h1.558v.297h-1.886v-3.106h1.886v.297h-1.558z"/><path d="m120.712 23.5v1.364h-.328v-3.106h1.152c.291 0 .52.076.687.228.166.151.249.367.249.646 0 .222-.058.405-.175.549s-.281.24-.491.288l.734 1.396h-.379l-.701-1.365zm.797-.283c.201 0 .357-.05.468-.151s.167-.244.167-.43c0-.192-.055-.337-.164-.435s-.267-.146-.471-.146h-.797v1.161h.797z"/><path d="m123.256 24.446v.756l-.298.279v-1.035z"/><path d="m124.767 23.712v-.806c0-.411.1-.712.297-.903.198-.19.464-.286.797-.286.21 0 .396.039.557.117.16.078.284.189.371.333s.131.311.131.5v.014h-.329v-.014c0-.201-.065-.36-.195-.477-.131-.117-.309-.175-.534-.175-.249 0-.438.07-.569.211-.13.141-.195.372-.195.693v.81c0 .579.256.869.77.869.225 0 .402-.058.531-.173s.193-.274.193-.475v-.018h.319v.018c0 .291-.095.522-.283.693-.189.171-.444.257-.766.257-.333 0-.599-.095-.797-.286-.198-.19-.298-.491-.298-.902z"/><path d="m127.512 23.712v-.806c0-.411.1-.712.297-.903.198-.19.464-.286.797-.286.21 0 .396.039.557.117.16.078.284.189.371.333s.13.311.13.5v.014h-.328v-.014c0-.201-.065-.36-.195-.477-.131-.117-.309-.175-.534-.175-.249 0-.438.07-.569.211-.13.141-.195.372-.195.693v.81c0 .579.256.869.77.869.225 0 .402-.058.531-.173s.193-.274.193-.475v-.018h.319v.018c0 .291-.095.522-.283.693-.189.171-.444.257-.766.257-.333 0-.599-.095-.797-.286-.198-.19-.298-.491-.298-.902z"/><path d="m130.649 23.145h1.333v.297h-1.333v1.422h-.328v-3.106h1.886v.297h-1.558z"/><path d="m133.11 21.758v3.106h-.328v-3.106z"/><path d="m134.195 21.758v2.809h1.549v.297h-1.877v-3.106z"/><path d="m136.575 23.136h1.333v.297h-1.333v1.135h1.558v.297h-1.886v-3.106h1.886v.297h-1.558z"/><path d="m31.369 29.112v-.806c0-.411.099-.712.297-.903.198-.19.464-.286.797-.286.21 0 .396.039.556.117.161.078.284.189.372.333.087.144.13.311.13.5v.014h-.328v-.014c0-.201-.065-.36-.196-.477-.13-.117-.308-.175-.533-.175-.249 0-.438.07-.569.211s-.196.372-.196.693v.81c0 .579.257.869.771.869.225 0 .401-.058.531-.173.129-.115.193-.274.193-.475v-.018h.319v.018c0 .291-.095.522-.283.693-.189.171-.444.257-.766.257-.333 0-.599-.095-.797-.286-.2-.19-.298-.491-.298-.902z"/><path d="m34.114 29.112v-.806c0-.411.099-.712.297-.903.198-.19.464-.286.797-.286.21 0 .396.039.556.117.161.078.284.189.372.333.087.144.13.311.13.5v.014h-.328v-.014c0-.201-.065-.36-.196-.477-.13-.117-.308-.175-.533-.175-.249 0-.438.07-.569.211s-.196.372-.196.693v.81c0 .579.257.869.771.869.225 0 .401-.058.531-.173.129-.115.193-.274.193-.475v-.018h.319v.018c0 .291-.095.522-.283.693-.189.171-.444.257-.766.257-.333 0-.599-.095-.797-.286-.2-.19-.298-.491-.298-.902z"/><path d="m36.858 29.112v-.806c0-.411.1-.712.298-.903.198-.19.463-.286.797-.286.21 0 .395.039.556.117.16.078.284.189.371.333s.131.311.131.5v.014h-.329v-.014c0-.201-.065-.36-.195-.477-.131-.117-.309-.175-.533-.175-.249 0-.439.07-.57.211-.13.141-.195.372-.195.693v.81c0 .579.257.869.77.869.226 0 .402-.058.531-.173s.193-.274.193-.475v-.018h.32v.018c0 .291-.095.522-.284.693-.188.171-.444.257-.765.257-.334 0-.599-.095-.797-.286-.199-.19-.299-.491-.299-.902z"/><path d="m39.946 29.518-.262.747h-.346l1.129-3.106h.275l1.13 3.106h-.347l-.262-.747zm.657-1.9-.563 1.621h1.13z"/><path d="m42.591 27.159v2.809h1.549v.297h-1.877v-3.106z"/><path d="m44.405 29.112v-.806c0-.411.099-.712.297-.903.198-.19.464-.286.797-.286.21 0 .396.039.556.117.161.078.284.189.372.333.087.144.13.311.13.5v.014h-.328v-.014c0-.201-.065-.36-.196-.477-.13-.117-.308-.175-.533-.175-.249 0-.438.07-.569.211s-.196.372-.196.693v.81c0 .579.257.869.771.869.225 0 .401-.058.531-.173.129-.115.193-.274.193-.475v-.018h.319v.018c0 .291-.095.522-.283.693-.189.171-.444.257-.766.257-.333 0-.599-.095-.797-.286-.2-.19-.298-.491-.298-.902z"/><path d="m47.388 29.846v.756l-.297.279v-1.035z"/><path d="m50.026 27.159c.33 0 .592.095.785.286s.29.492.29.903v.729c0 .411-.097.712-.29.903-.193.19-.455.286-.785.286h-1.063v-3.106h1.063zm.742 1.935v-.734c0-.315-.063-.544-.191-.688-.127-.144-.31-.216-.547-.216h-.733v2.512h.733c.492 0 .738-.292.738-.874z"/><path d="m52.086 28.901v1.364h-.328v-3.106h1.152c.291 0 .52.076.687.228.166.151.25.367.25.646 0 .222-.059.405-.176.549s-.281.24-.491.288l.734 1.396h-.379l-.702-1.364h-.747zm.797-.284c.201 0 .357-.05.468-.151s.167-.244.167-.43c0-.192-.055-.337-.164-.435s-.267-.146-.471-.146h-.797v1.161h.797z"/><path d="m54.733 29.518-.262.747h-.347l1.13-3.106h.274l1.13 3.106h-.347l-.261-.747zm.657-1.9-.563 1.621h1.13z"/><path d="m57.415 27.159v3.106h-.328v-3.106z"/><path d="m60.434 30.265h-.328l-1.607-2.503v2.503h-.329v-3.106h.328l1.607 2.494v-2.494h.328v3.106z"/><path d="m62.041 27.456v2.809h-.324v-2.809h-.887v-.297h2.098v.297z"/><path d="m63.651 28.901v1.364h-.328v-3.106h1.152c.291 0 .52.076.687.228.166.151.25.367.25.646 0 .222-.059.405-.176.549s-.281.24-.491.288l.734 1.396h-.379l-.702-1.364h-.747zm.797-.284c.201 0 .357-.05.468-.151s.167-.244.167-.43c0-.192-.055-.337-.164-.435s-.267-.146-.471-.146h-.797v1.161h.797z"/><path d="m65.956 29.112v-.806c0-.411.098-.712.293-.903.195-.19.457-.286.787-.286.327 0 .588.095.781.286s.29.492.29.903v.806c0 .411-.097.712-.292.902-.195.191-.456.286-.783.286-.33 0-.592-.095-.785-.286-.195-.19-.291-.491-.291-.902zm1.823-.792c0-.604-.248-.905-.743-.905-.249 0-.437.071-.563.213s-.188.373-.188.691v.81c0 .303.063.523.191.662.127.138.313.207.56.207.495 0 .743-.29.743-.869z"/><path d="m68.939 29.846v.756l-.298.279v-1.035z"/><path d="m71.577 27.159c.33 0 .592.095.785.286s.29.492.29.903v.729c0 .411-.097.712-.29.903-.193.19-.455.286-.785.286h-1.063v-3.106h1.063zm.742 1.935v-.734c0-.315-.063-.544-.191-.688-.127-.144-.31-.216-.547-.216h-.733v2.512h.733c.492 0 .738-.292.738-.874z"/><path d="m73.636 28.901v1.364h-.328v-3.106h1.152c.291 0 .52.076.687.228.166.151.249.367.249.646 0 .222-.058.405-.175.549s-.281.24-.491.288l.734 1.396h-.379l-.702-1.364h-.747zm.797-.284c.201 0 .357-.05.468-.151s.167-.244.167-.43c0-.192-.055-.337-.164-.435s-.267-.146-.471-.146h-.797v1.161h.797z"/><path d="m76.284 29.518-.262.747h-.347l1.13-3.106h.274l1.13 3.106h-.347l-.261-.747zm.657-1.9-.563 1.621h1.13z"/><path d="m78.497 29.112v-.806c0-.411.099-.712.295-.903.196-.19.46-.286.79-.286.213 0 .399.039.559.117.158.078.281.188.369.331.087.143.13.307.13.493v.018h-.328v-.018c0-.198-.065-.355-.196-.471-.13-.115-.307-.173-.528-.173-.249 0-.438.071-.567.213s-.193.373-.193.691v.81c0 .579.255.869.765.869.237 0 .418-.064.543-.193.124-.129.187-.335.187-.617v-.237h-.743v-.284h1.071v.464c0 .408-.096.705-.287.891-.192.186-.452.279-.779.279-.33 0-.594-.095-.79-.286-.2-.19-.298-.491-.298-.902z"/><path d="m81.242 29.112v-.806c0-.411.098-.712.293-.903.195-.19.457-.286.787-.286.327 0 .588.095.781.286s.291.492.291.903v.806c0 .411-.098.712-.293.902-.195.191-.456.286-.783.286-.33 0-.592-.095-.785-.286-.195-.19-.291-.491-.291-.902zm1.823-.792c0-.604-.247-.905-.743-.905-.249 0-.437.071-.563.213s-.188.373-.188.691v.81c0 .303.063.523.191.662.127.138.313.207.56.207.496 0 .743-.29.743-.869z"/><path d="m86.314 30.265h-.328l-1.607-2.503v2.503h-.329v-3.106h.328l1.607 2.494v-2.494h.328v3.106z"/><path d="m87.21 29.846v.756l-.298.279v-1.035z"/><path d="m88.72 29.112v-.806c0-.411.1-.712.297-.903.198-.19.464-.286.797-.286.21 0 .396.039.557.117.16.078.284.189.371.333s.131.311.131.5v.014h-.329v-.014c0-.201-.065-.36-.195-.477-.131-.117-.309-.175-.534-.175-.249 0-.438.07-.569.211-.13.141-.195.372-.195.693v.81c0 .579.256.869.77.869.225 0 .402-.058.531-.173s.193-.274.193-.475v-.018h.319v.018c0 .291-.095.522-.283.693-.189.171-.444.257-.766.257-.333 0-.599-.095-.797-.286-.198-.19-.298-.491-.298-.902z"/><path d="m91.465 29.112v-.806c0-.411.098-.712.293-.903.195-.19.457-.286.787-.286.327 0 .588.095.781.286s.29.492.29.903v.806c0 .411-.097.712-.292.902-.195.191-.456.286-.783.286-.33 0-.592-.095-.785-.286-.194-.19-.291-.491-.291-.902zm1.824-.792c0-.604-.248-.905-.743-.905-.249 0-.437.071-.563.213s-.188.373-.188.691v.81c0 .303.063.523.191.662.127.138.313.207.56.207.495 0 .743-.29.743-.869z"/><path d="m94.414 29.792c-.094-.159-.14-.339-.14-.54v-2.093h.333v2.066c0 .237.066.426.2.565.134.14.313.209.538.209.222 0 .4-.07.535-.209.136-.139.203-.328.203-.565v-2.066h.328v2.093c0 .204-.046.385-.137.542-.092.157-.219.28-.381.367s-.345.13-.549.13-.388-.043-.55-.13c-.16-.087-.288-.21-.38-.369z"/><path d="m97.46 28.901v1.364h-.328v-3.106h1.152c.291 0 .52.076.687.228.166.151.25.367.25.646 0 .222-.059.405-.176.549s-.281.24-.491.288l.734 1.396h-.379l-.702-1.364h-.747zm.796-.284c.201 0 .357-.05.468-.151s.167-.244.167-.43c0-.192-.055-.337-.164-.435s-.267-.146-.471-.146h-.796v1.161h.796z"/><path d="m100.191 27.159v3.106h-.328v-3.106z"/><path d="m101.275 28.536h1.333v.297h-1.333v1.135h1.558v.297h-1.886v-3.106h1.886v.297h-1.558z"/><path d="m103.737 28.901v1.364h-.328v-3.106h1.152c.291 0 .52.076.687.228.166.151.25.367.25.646 0 .222-.059.405-.176.549s-.281.24-.491.288l.734 1.396h-.379l-.702-1.364h-.747zm.797-.284c.201 0 .357-.05.468-.151s.167-.244.167-.43c0-.192-.055-.337-.164-.435s-.267-.146-.471-.146h-.797v1.161h.797z"/><path d="m106.28 29.846v.756l-.298.279v-1.035z"/><path d="m108.742 27.456v2.809h-.324v-2.809h-.887v-.297h2.098v.297z"/><path d="m109.825 29.112v-.806c0-.411.098-.712.293-.903.195-.19.457-.286.787-.286.327 0 .588.095.781.286s.29.492.29.903v.806c0 .411-.097.712-.292.902-.195.191-.456.286-.783.286-.33 0-.592-.095-.785-.286-.195-.19-.291-.491-.291-.902zm1.823-.792c0-.604-.248-.905-.743-.905-.249 0-.437.071-.563.213s-.188.373-.188.691v.81c0 .303.063.523.191.662.127.138.313.207.56.207.495 0 .743-.29.743-.869z"/><path d="m115.045 30.265h-.292l-.688-2.696-.671 2.696h-.293l-.797-3.106h.32l.63 2.575.607-2.575h.419l.63 2.575.607-2.575h.307z"/><path d="m116.543 28.536h1.333v.297h-1.333v1.135h1.558v.297h-1.886v-3.106h1.886v.297h-1.558z"/><path d="m119.005 28.901v1.364h-.328v-3.106h1.152c.291 0 .52.076.687.228.166.151.249.367.249.646 0 .222-.058.405-.175.549s-.281.24-.491.288l.734 1.396h-.379l-.702-1.364h-.747zm.797-.284c.201 0 .357-.05.468-.151s.167-.244.167-.43c0-.192-.055-.337-.164-.435s-.267-.146-.471-.146h-.797v1.161h.797z"/><path d="m121.548 29.846v.756l-.298.279v-1.035z"/><path d="m123.059 29.112v-.806c0-.411.099-.712.295-.903.196-.19.46-.286.79-.286.213 0 .399.039.559.117.158.078.281.188.369.331.087.143.13.307.13.493v.018h-.328v-.018c0-.198-.065-.355-.196-.471-.13-.115-.307-.173-.528-.173-.249 0-.438.071-.567.213s-.193.373-.193.691v.81c0 .579.255.869.765.869.237 0 .418-.064.543-.193.124-.129.187-.335.187-.617v-.237h-.743v-.284h1.071v.464c0 .408-.096.705-.287.891-.192.186-.452.279-.779.279-.33 0-.594-.095-.79-.286-.199-.19-.298-.491-.298-.902z"/><path d="m125.804 29.112v-.806c0-.411.098-.712.293-.903.195-.19.457-.286.787-.286.327 0 .588.095.781.286s.291.492.291.903v.806c0 .411-.098.712-.293.902-.195.191-.456.286-.783.286-.33 0-.592-.095-.785-.286-.194-.19-.291-.491-.291-.902zm1.823-.792c0-.604-.247-.905-.743-.905-.249 0-.437.071-.563.213s-.188.373-.188.691v.81c0 .303.063.523.191.662.127.138.313.207.56.207.496 0 .743-.29.743-.869z"/><path d="m128.941 27.159v2.809h1.549v.297h-1.877v-3.106z"/><path d="m132.056 27.159c.33 0 .592.095.785.286s.29.492.29.903v.729c0 .411-.097.712-.29.903-.193.19-.455.286-.785.286h-1.063v-3.106h1.063zm.742 1.935v-.734c0-.315-.063-.544-.191-.688-.127-.144-.31-.216-.547-.216h-.733v2.512h.733c.492 0 .738-.292.738-.874z"/><path d="m134.85 27.159c.33 0 .592.095.785.286s.29.492.29.903v.729c0 .411-.097.712-.29.903-.193.19-.455.286-.785.286h-1.063v-3.106h1.063zm.742 1.935v-.734c0-.315-.063-.544-.191-.688-.127-.144-.31-.216-.547-.216h-.733v2.512h.733c.492 0 .738-.292.738-.874z"/><path d="m136.947 27.159v3.106h-.328v-3.106z"/><path d="m137.639 29.112v-.806c0-.411.099-.712.295-.903.196-.19.46-.286.79-.286.213 0 .399.039.559.117.158.078.281.188.369.331.087.143.13.307.13.493v.018h-.328v-.018c0-.198-.065-.355-.196-.471-.13-.115-.307-.173-.528-.173-.249 0-.438.071-.567.213s-.193.373-.193.691v.81c0 .579.255.869.765.869.237 0 .418-.064.543-.193.124-.129.187-.335.187-.617v-.237h-.743v-.284h1.071v.464c0 .408-.096.705-.287.891-.192.186-.452.279-.779.279-.33 0-.594-.095-.79-.286-.199-.19-.298-.491-.298-.902z"/><path d="m33.457 66.36v2.81h1.549v.297h-1.877v-3.107z"/><path d="m35.873 66.36v3.106h-.328v-3.106z"/><path d="m36.566 68.314v-.806c0-.411.099-.712.297-.903.198-.19.464-.285.797-.285.21 0 .396.039.556.117.161.078.284.188.372.333.087.144.13.311.13.499v.014h-.328v-.013c0-.201-.065-.359-.196-.477-.13-.117-.308-.176-.533-.176-.249 0-.438.07-.569.212-.131.141-.196.372-.196.693v.81c0 .579.257.869.771.869.225 0 .401-.058.531-.174.129-.115.193-.273.193-.475v-.018h.319v.018c0 .291-.095.522-.283.693-.189.171-.444.257-.766.257-.333 0-.599-.096-.797-.286s-.298-.49-.298-.902z"/><path d="m39.703 67.738h1.332v.297h-1.332v1.135h1.558v.297h-1.886v-3.107h1.886v.298h-1.558z"/><path d="m44.1 69.467h-.329l-1.607-2.503v2.503h-.328v-3.107h.328l1.607 2.494v-2.494h.329z"/><path d="m44.607 68.589h.324c.042.411.288.616.738.616.234 0 .412-.049.533-.148.122-.099.183-.243.183-.432 0-.171-.048-.3-.144-.388-.097-.087-.242-.146-.438-.18l-.351-.059c-.252-.042-.445-.128-.581-.259-.135-.131-.202-.314-.202-.552 0-.272.092-.485.274-.639.184-.153.425-.229.725-.229.276 0 .502.071.678.214s.279.359.313.65h-.324c-.036-.388-.259-.581-.67-.581-.214 0-.379.051-.498.151-.118.101-.178.237-.178.411 0 .153.046.272.138.358.091.085.23.145.416.178l.36.063c.261.046.461.136.599.271s.207.325.207.571c0 .282-.095.501-.283.655-.189.154-.449.231-.779.231-.312 0-.557-.076-.733-.229-.177-.151-.28-.376-.307-.673z"/><path d="m47.604 67.738h1.333v.297h-1.333v1.135h1.558v.297h-1.886v-3.107h1.886v.298h-1.558z"/><path d="m50.799 66.36c.33 0 .592.096.786.286.193.19.29.491.29.902v.729c0 .411-.097.712-.29.902-.194.19-.456.286-.786.286h-1.062v-3.105zm.744 1.936v-.733c0-.315-.063-.545-.191-.688-.128-.145-.31-.216-.547-.216h-.733v2.512h.733c.491-.001.738-.293.738-.875z"/><path d="m54.395 66.658v2.809h-.324v-2.809h-.887v-.298h2.098v.298z"/><path d="m55.479 68.314v-.806c0-.411.098-.712.293-.903.195-.19.457-.285.787-.285.327 0 .588.095.781.285.193.191.291.492.291.903v.806c0 .411-.098.712-.293.902s-.456.286-.783.286c-.33 0-.592-.096-.785-.286-.194-.19-.291-.49-.291-.902zm1.823-.792c0-.604-.247-.905-.743-.905-.249 0-.437.071-.563.214s-.188.373-.188.691v.81c0 .304.063.523.191.662.127.138.313.207.56.207.496 0 .743-.29.743-.869z"/><path d="m60.151 66.658v2.809h-.324v-2.809h-.887v-.298h2.098v.298z"/><path d="m61.366 68.72-.262.747h-.347l1.13-3.106h.274l1.13 3.106h-.347l-.261-.747zm.656-1.901-.563 1.621h1.13z"/><path d="m65.947 69.467h-.328l-1.607-2.503v2.503h-.328v-3.107h.328l1.607 2.494v-2.494h.328z"/><path d="m66.603 68.314v-.806c0-.411.098-.712.293-.903.195-.19.457-.285.787-.285.327 0 .588.095.781.285.193.191.29.492.29.903v.806c0 .411-.097.712-.292.902s-.456.286-.783.286c-.33 0-.592-.096-.785-.286-.194-.19-.291-.49-.291-.902zm1.823-.792c0-.604-.248-.905-.743-.905-.249 0-.437.071-.563.214s-.188.373-.188.691v.81c0 .304.063.523.191.662.127.138.313.207.56.207.495 0 .743-.29.743-.869z"/><path d="m73.057 69.467h-.328v-2.431l-.878 1.81h-.252l-.883-1.81v2.431h-.328v-3.107h.328l1.009 2.094 1.004-2.094h.328z"/><path d="m74.14 66.36v3.106h-.328v-3.106z"/><path d="m74.834 68.314v-.806c0-.411.1-.712.297-.903.198-.19.464-.285.797-.285.21 0 .396.039.557.117.16.078.284.188.371.333.087.144.13.311.13.499v.014h-.328v-.013c0-.201-.065-.359-.195-.477-.131-.117-.309-.176-.534-.176-.249 0-.438.07-.569.212-.13.141-.195.372-.195.693v.81c0 .579.256.869.77.869.225 0 .402-.058.531-.174.129-.115.193-.273.193-.475v-.018h.319v.018c0 .291-.095.522-.283.693-.189.171-.444.257-.766.257-.333 0-.599-.096-.797-.286-.199-.19-.298-.49-.298-.902z"/><path d="m77.97 68.103v1.364h-.328v-3.107h1.152c.291 0 .52.076.687.228.166.151.25.367.25.646 0 .222-.059.404-.176.549-.117.144-.281.24-.491.288l.734 1.396h-.379l-.702-1.364zm.797-.284c.201 0 .357-.051.468-.151.111-.101.167-.243.167-.43 0-.192-.055-.337-.164-.435s-.267-.146-.471-.146h-.797v1.161h.797z"/><path d="m80.274 68.314v-.806c0-.411.098-.712.293-.903.195-.19.457-.285.787-.285.327 0 .588.095.781.285.193.191.291.492.291.903v.806c0 .411-.098.712-.293.902s-.456.286-.783.286c-.33 0-.592-.096-.785-.286-.194-.19-.291-.49-.291-.902zm1.823-.792c0-.604-.247-.905-.743-.905-.249 0-.437.071-.563.214s-.188.373-.188.691v.81c0 .304.063.523.191.662.127.138.313.207.56.207.496 0 .743-.29.743-.869z"/><path d="m83.019 68.314v-.806c0-.411.1-.712.297-.903.198-.19.464-.285.797-.285.21 0 .396.039.557.117.16.078.284.188.371.333.087.144.13.311.13.499v.014h-.328v-.013c0-.201-.065-.359-.195-.477-.131-.117-.309-.176-.534-.176-.249 0-.438.07-.569.212-.13.141-.195.372-.195.693v.81c0 .579.256.869.77.869.225 0 .402-.058.531-.174.129-.115.193-.273.193-.475v-.018h.319v.018c0 .291-.095.522-.283.693-.189.171-.444.257-.766.257-.333 0-.599-.096-.797-.286s-.298-.49-.298-.902z"/><path d="m85.763 68.314v-.806c0-.411.098-.712.293-.903.195-.19.457-.285.787-.285.327 0 .588.095.781.285.193.191.29.492.29.903v.806c0 .411-.097.712-.292.902s-.456.286-.783.286c-.33 0-.592-.096-.785-.286-.194-.19-.291-.49-.291-.902zm1.823-.792c0-.604-.248-.905-.743-.905-.249 0-.437.071-.563.214s-.188.373-.188.691v.81c0 .304.063.523.191.662.127.138.313.207.56.207.495 0 .743-.29.743-.869z"/><path d="m91.241 69.467h-.328v-2.431l-.878 1.81h-.252l-.883-1.81v2.431h-.328v-3.107h.328l1.009 2.094 1.004-2.094h.328z"/><path d="m94.053 67.288c0 .279-.088.498-.264.657-.175.159-.413.238-.713.238h-.788v1.283h-.328v-3.106h1.116c.303 0 .542.08.716.241s.261.39.261.687zm-.328 0c0-.213-.059-.371-.176-.475s-.284-.155-.5-.155h-.761v1.229h.761c.216 0 .383-.05.5-.148.118-.1.176-.25.176-.451z"/><path d="m94.697 68.994c-.094-.159-.14-.339-.14-.54v-2.094h.333v2.066c0 .237.066.426.2.564.134.14.313.21.538.21.222 0 .4-.07.535-.21.136-.139.203-.327.203-.564v-2.066h.328v2.094c0 .204-.046.385-.137.542-.092.157-.219.28-.381.367s-.345.13-.549.13-.388-.043-.55-.13-.287-.21-.38-.369z"/><path d="m98.301 66.658v2.809h-.324v-2.809h-.887v-.298h2.098v.298z"/><path d="m99.912 67.738h1.333v.297h-1.333v1.135h1.558v.297h-1.886v-3.107h1.886v.298h-1.558z"/><path d="m102.373 68.103v1.364h-.328v-3.107h1.152c.291 0 .52.076.687.228.166.151.25.367.25.646 0 .222-.059.404-.176.549-.117.144-.281.24-.491.288l.734 1.396h-.379l-.702-1.364zm.796-.284c.201 0 .357-.051.468-.151.111-.101.167-.243.167-.43 0-.192-.055-.337-.164-.435s-.267-.146-.471-.146h-.797v1.161h.797z"/><path d="m107.81 67.288c0 .279-.088.498-.264.657-.175.159-.413.238-.713.238h-.788v1.283h-.328v-3.106h1.116c.303 0 .542.08.716.241s.261.39.261.687zm-.328 0c0-.213-.059-.371-.176-.475s-.284-.155-.5-.155h-.761v1.229h.761c.216 0 .383-.05.5-.148.117-.1.176-.25.176-.451z"/><path d="m108.641 68.103v1.364h-.328v-3.107h1.152c.291 0 .52.076.687.228.166.151.249.367.249.646 0 .222-.058.404-.175.549-.117.144-.281.24-.491.288l.734 1.396h-.379l-.702-1.364zm.797-.284c.201 0 .357-.051.468-.151.111-.101.167-.243.167-.43 0-.192-.055-.337-.164-.435s-.267-.146-.471-.146h-.797v1.161h.797z"/><path d="m110.946 68.314v-.806c0-.411.098-.712.293-.903.195-.19.457-.285.787-.285.327 0 .588.095.781.285.193.191.291.492.291.903v.806c0 .411-.098.712-.293.902s-.456.286-.783.286c-.33 0-.592-.096-.785-.286-.194-.19-.291-.49-.291-.902zm1.823-.792c0-.604-.247-.905-.743-.905-.249 0-.437.071-.563.214s-.188.373-.188.691v.81c0 .304.063.523.191.662.127.138.313.207.56.207.496 0 .743-.29.743-.869z"/><path d="m114.816 66.36c.33 0 .592.096.785.286s.29.491.29.902v.729c0 .411-.097.712-.29.902s-.455.286-.785.286h-1.063v-3.105zm.742 1.936v-.733c0-.315-.063-.545-.191-.688-.127-.145-.31-.216-.547-.216h-.733v2.512h.733c.492-.001.738-.293.738-.875z"/><path d="m116.688 68.994c-.094-.159-.14-.339-.14-.54v-2.094h.333v2.066c0 .237.066.426.2.564.134.14.313.21.538.21.222 0 .4-.07.535-.21.136-.139.203-.327.203-.564v-2.066h.328v2.094c0 .204-.046.385-.137.542-.092.157-.219.28-.381.367s-.345.13-.549.13-.388-.043-.55-.13c-.159-.087-.287-.21-.38-.369z"/><path d="m119.342 68.314v-.806c0-.411.1-.712.297-.903.198-.19.464-.285.797-.285.21 0 .396.039.557.117.16.078.284.188.371.333.087.144.131.311.131.499v.014h-.329v-.013c0-.201-.065-.359-.195-.477-.131-.117-.309-.176-.534-.176-.249 0-.438.07-.569.212-.13.141-.195.372-.195.693v.81c0 .579.256.869.77.869.225 0 .402-.058.531-.174.129-.115.193-.273.193-.475v-.018h.319v.018c0 .291-.095.522-.283.693-.189.171-.444.257-.766.257-.333 0-.599-.096-.797-.286s-.298-.49-.298-.902z"/><path d="m123.038 66.658v2.809h-.324v-2.809h-.887v-.298h2.098v.298z"/><path d="m124.108 68.589h.324c.042.411.288.616.738.616.234 0 .412-.049.533-.148.122-.099.183-.243.183-.432 0-.171-.048-.3-.145-.388-.096-.087-.241-.146-.437-.18l-.351-.059c-.252-.042-.446-.128-.581-.259s-.202-.314-.202-.552c0-.272.091-.485.274-.639.183-.153.425-.229.725-.229.276 0 .502.071.678.214.175.143.279.359.313.65h-.324c-.036-.388-.26-.581-.671-.581-.213 0-.379.051-.497.151s-.178.237-.178.411c0 .153.046.272.137.358.092.085.23.145.417.178l.36.063c.261.046.46.136.599.271.138.135.207.325.207.571 0 .282-.095.501-.284.655-.188.154-.448.231-.778.231-.313 0-.557-.076-.733-.229-.178-.151-.28-.376-.307-.673z"/><path d="m127.69 68.314v-.806c0-.411.1-.712.297-.903.198-.19.464-.285.797-.285.21 0 .396.039.557.117.16.078.284.188.371.333.087.144.131.311.131.499v.014h-.329v-.013c0-.201-.065-.359-.195-.477-.131-.117-.309-.176-.534-.176-.249 0-.438.07-.569.212-.13.141-.195.372-.195.693v.81c0 .579.256.869.77.869.225 0 .402-.058.531-.174.129-.115.193-.273.193-.475v-.018h.319v.018c0 .291-.095.522-.283.693-.189.171-.444.257-.766.257-.333 0-.599-.096-.797-.286s-.298-.49-.298-.902z"/><path d="m130.434 68.314v-.806c0-.411.098-.712.293-.903.195-.19.457-.285.787-.285.327 0 .588.095.781.285.193.191.291.492.291.903v.806c0 .411-.098.712-.293.902s-.456.286-.783.286c-.33 0-.592-.096-.785-.286-.194-.19-.291-.49-.291-.902zm1.823-.792c0-.604-.247-.905-.743-.905-.249 0-.437.071-.563.214s-.188.373-.188.691v.81c0 .304.063.523.191.662.127.138.313.207.56.207.496 0 .743-.29.743-.869z"/><path d="m133.571 68.103v1.364h-.328v-3.107h1.152c.291 0 .52.076.687.228.166.151.249.367.249.646 0 .222-.058.404-.175.549-.117.144-.281.24-.491.288l.734 1.396h-.379l-.702-1.364zm.797-.284c.201 0 .357-.051.468-.151.111-.101.167-.243.167-.43 0-.192-.055-.337-.164-.435s-.267-.146-.471-.146h-.797v1.161h.797z"/><path d="m138.031 67.288c0 .279-.088.498-.264.657-.175.159-.413.238-.713.238h-.788v1.283h-.328v-3.106h1.116c.303 0 .542.08.716.241s.261.39.261.687zm-.328 0c0-.213-.059-.371-.176-.475s-.284-.155-.5-.155h-.761v1.229h.761c.216 0 .383-.05.5-.148.117-.1.176-.25.176-.451z"/><path d="m23.415 43.817h.324c.042.411.288.617.738.617.234 0 .412-.049.533-.148.122-.099.183-.243.183-.432 0-.171-.048-.3-.145-.387-.096-.087-.241-.147-.437-.18l-.351-.059c-.252-.042-.446-.128-.581-.259s-.202-.314-.202-.552c0-.273.091-.486.274-.639s.425-.229.725-.229c.276 0 .502.071.678.214.175.143.279.359.313.65h-.324c-.036-.387-.26-.581-.671-.581-.213 0-.379.05-.497.151s-.178.238-.178.412c0 .153.046.272.138.358.091.085.229.145.416.178l.36.063c.261.045.46.135.599.27.138.135.207.326.207.572 0 .282-.095.5-.284.655-.188.154-.448.231-.778.231-.313 0-.557-.076-.733-.229-.179-.153-.28-.378-.307-.676z"/><path d="m26.448 41.589v3.106h-.328v-3.106z"/><path d="m28.266 41.589c.33 0 .592.095.785.286s.29.492.29.903v.729c0 .411-.097.712-.29.903-.193.19-.455.286-.785.286h-1.063v-3.106h1.063zm.742 1.936v-.734c0-.315-.063-.544-.191-.688-.127-.144-.31-.216-.547-.216h-.733v2.512h.733c.492-.001.738-.292.738-.874z"/><path d="m30.327 42.967h1.333v.297h-1.333v1.135h1.558v.297h-1.886v-3.106h1.886v.297h-1.558z"/><path d="m33.3 42.368v-.369l.531-.41h.329v3.106h-.324v-2.728z"/><path d="m135.415 43.817h.324c.042.411.288.617.738.617.234 0 .412-.049.533-.148.122-.099.183-.243.183-.432 0-.171-.048-.3-.145-.387-.096-.087-.241-.147-.437-.18l-.351-.059c-.252-.042-.446-.128-.581-.259s-.202-.314-.202-.552c0-.273.091-.486.274-.639s.425-.229.725-.229c.276 0 .502.071.678.214.175.143.279.359.313.65h-.324c-.036-.387-.26-.581-.671-.581-.213 0-.379.05-.497.151s-.178.238-.178.412c0 .153.046.272.138.358.091.085.229.145.416.178l.36.063c.261.045.46.135.599.27.138.135.207.326.207.572 0 .282-.095.5-.284.655-.188.154-.448.231-.778.231-.313 0-.557-.076-.733-.229-.179-.153-.28-.378-.307-.676z"/><path d="m138.448 41.589v3.106h-.328v-3.106z"/><path d="m140.266 41.589c.33 0 .592.095.785.286s.29.492.29.903v.729c0 .411-.097.712-.29.903-.193.19-.455.286-.785.286h-1.063v-3.106h1.063zm.742 1.936v-.734c0-.315-.063-.544-.191-.688-.127-.144-.31-.216-.547-.216h-.733v2.512h.733c.492-.001.738-.292.738-.874z"/><path d="m142.327 42.967h1.333v.297h-1.333v1.135h1.558v.297h-1.886v-3.106h1.886v.297h-1.558z"/><path d="m145.3 42.368v-.369l.531-.41h.329v3.106h-.324v-2.728z"/></svg>