<svg xmlns="http://www.w3.org/2000/svg" viewBox="0 0 179 179"><g fill="#f4f4f4"><path d="M0 22.375h11.187v145.438H0zM11.187 156.625h55.937V179H11.187zM67.125 156.625h11.188v11.188H67.125zM78.313 156.625h55.937V179H78.313zM134.25 156.625h11.187v11.188H134.25z"/><path d="M134.25 145.438h22.375v11.188H134.25zM145.438 100.688h11.187v44.75h-11.187zM156.625 100.688h11.188v11.188h-11.188zM145.438 44.75h33.563v55.938h-33.563zM0 11.188h22.375v11.188H0zM145.438 22.375h11.187V44.75h-11.187z"/><path d="M134.25 11.188h22.375v11.188H134.25zM11.187 0h134.25v11.188H11.187z"/></g><path fill="#4695d0" d="M11.187 22.375h123.062v123.063H11.187z"/><path fill="#f4f4f4" d="M22.375 44.75h100.688v55.938H22.375z"/><g fill="#f4f4f4"><path d="M44.75 111.875h11.188v11.188H44.75zM89.5 111.875h11.188v11.188H89.5zM55.938 123.063H89.5v11.188H55.938z"/></g><g fill="#26356b"><path d="M11.187 145.438h123.062v11.188H11.187zM22.375 33.563h100.688v11.188H22.375zM22.375 11.188H134.25v11.188H22.375z"/></g><g fill="#181a2b"><path d="M44.75 55.938h11.188v33.563H44.75zM89.5 55.938h11.188v33.563H89.5z"/></g><g fill="#181a2b"><path d="M156.625 55.938h11.188v33.563h-11.188zM145.438 89.5h11.187v11.188h-11.187zM134.25 22.375h11.188v123.063H134.25z"/></g><g><g fill="#181a2b"><path d="M22.375 156.625h33.563v11.188H22.375zM89.5 156.625h33.563v11.188H89.5z"/></g></g></svg>
