<?xml version="1.0" encoding="utf-8"?>
<!-- Generator: Adobe Illustrator 22.0.0, SVG Export Plug-In . SVG Version: 6.00 Build 0)  -->
<svg version="1.1" id="Capa_1" xmlns="http://www.w3.org/2000/svg" xmlns:xlink="http://www.w3.org/1999/xlink" x="0px" y="0px"
	 viewBox="0 0 279.773 137.28" style="enable-background:new 0 0 279.773 137.28;" xml:space="preserve">
<g>
	<path style="fill:#4E494D;" d="M220.663,137.28H21.51c-8.64,0-15.71-7.069-15.71-15.71V49.426
		c0-13.049,10.677-23.726,23.726-23.726h183.121c13.049,0,23.726,10.677,23.726,23.726v72.145
		C236.373,130.211,229.304,137.28,220.663,137.28z"/>
	<path style="fill:#82929D;" d="M214.863,131.479H15.71c-8.64,0-15.71-7.069-15.71-15.71V43.625
		c0-13.049,10.677-23.726,23.726-23.726h183.121c13.049,0,23.726,10.677,23.726,23.726v72.145
		C230.573,124.41,223.503,131.479,214.863,131.479z"/>
	<g>
		<path style="fill:#824A30;" d="M95.545,117.344v-3.063h-3.059v-9.184h3.059v-3.063h9.184v3.063h-6.122v9.184h6.122v3.063H95.545z
			 M104.73,114.281v-9.184h3.063v9.184H104.73z"/>
		<path style="fill:#824A30;" d="M110.855,117.344v-15.31h6.122v3.063h3.063v3.063h3.059v-6.126h3.063v15.31h-3.063v-3.063h-3.059
			v-3.063h-3.063v6.126H110.855z"/>
		<path style="fill:#824A30;" d="M129.223,117.344v-15.31h15.306v3.063h-9.184v3.063h6.122v3.058h-6.122v3.063h9.184v3.063H129.223z
			"/>
	</g>
	<g>
		<g>
			<g>
				<rect x="164.873" y="47.777" style="fill:#824A30;" width="24.048" height="15.301"/>
				<rect x="167.894" y="44.833" style="fill:#824A30;" width="18.046" height="20.987"/>
			</g>
		</g>
		<g>
			<g>
				<rect x="164.873" y="44.998" style="fill:#C87A31;" width="24.048" height="15.301"/>
				<rect x="167.894" y="42.054" style="fill:#C87A31;" width="18.046" height="20.987"/>
			</g>
		</g>
	</g>
	<g>
		<g>
			<g>
				<rect x="164.873" y="96.115" style="fill:#356231;" width="24.048" height="15.301"/>
				<rect x="167.894" y="93.172" style="fill:#356231;" width="18.046" height="20.987"/>
			</g>
		</g>
		<g>
			<g>
				<rect x="164.873" y="93.336" style="fill:#6BA13B;" width="24.048" height="15.301"/>
				<rect x="167.894" y="90.392" style="fill:#6BA13B;" width="18.046" height="20.987"/>
			</g>
		</g>
	</g>
	<g>
		<g>
			<path style="fill:#824A30;" d="M170.774,51.018v-6.121h3.063v6.121H170.774z M179.958,57.14v-3.058h-6.122v-3.063h6.122v-6.121
				h3.063V57.14H179.958z M173.836,60.198V57.14h6.122v3.058H173.836z"/>
		</g>
	</g>
	<g>
		<g>
			<g>
				<rect x="188.925" y="71.801" style="fill:#432333;" width="24.048" height="15.301"/>
				<rect x="191.946" y="68.857" style="fill:#432333;" width="18.046" height="20.987"/>
			</g>
		</g>
		<g>
			<rect x="188.925" y="69.021" style="fill:#C44747;" width="24.048" height="15.301"/>
			<rect x="191.946" y="66.078" style="fill:#C44747;" width="18.046" height="20.987"/>
		</g>
	</g>
	<g>
		<g>
			<g>
				<rect x="140.829" y="71.801" style="fill:#2E3268;" width="24.048" height="15.301"/>
				<rect x="143.85" y="68.857" style="fill:#2E3268;" width="18.046" height="20.987"/>
			</g>
		</g>
		<g>
			<g>
				<rect x="140.829" y="69.021" style="fill:#5472B1;" width="24.048" height="15.301"/>
				<rect x="143.85" y="66.078" style="fill:#5472B1;" width="18.046" height="20.987"/>
			</g>
		</g>
	</g>
	<g>
		<g>
			<g>
				<rect x="44.995" y="47.777" style="fill:#4E494D;" width="24.048" height="15.301"/>
				<rect x="48.016" y="44.833" style="fill:#4E494D;" width="18.046" height="20.987"/>
			</g>
		</g>
		<g>
			<g>
				<rect x="44.995" y="44.998" style="fill:#747060;" width="24.048" height="15.301"/>
				<rect x="48.016" y="42.054" style="fill:#747060;" width="18.046" height="20.987"/>
			</g>
		</g>
	</g>
	<g>
		<g>
			<g>
				<rect x="44.995" y="96.115" style="fill:#4E494D;" width="24.048" height="15.301"/>
				<rect x="48.016" y="93.172" style="fill:#4E494D;" width="18.046" height="20.987"/>
			</g>
		</g>
		<g>
			<rect x="44.995" y="93.336" style="fill:#747060;" width="24.048" height="15.301"/>
			<rect x="48.016" y="90.392" style="fill:#747060;" width="18.046" height="20.987"/>
		</g>
	</g>
	<g>
		<g>
			<g>
				<rect x="69.046" y="71.801" style="fill:#4E494D;" width="24.048" height="15.301"/>
				<rect x="72.067" y="68.857" style="fill:#4E494D;" width="18.046" height="20.987"/>
			</g>
		</g>
		<g>
			<g>
				<rect x="69.046" y="69.021" style="fill:#747060;" width="24.048" height="15.301"/>
				<rect x="72.067" y="66.078" style="fill:#747060;" width="18.046" height="20.987"/>
			</g>
		</g>
	</g>
	<g>
		<g>
			<g>
				<rect x="20.951" y="71.801" style="fill:#4E494D;" width="24.048" height="15.301"/>
				<rect x="23.972" y="68.857" style="fill:#4E494D;" width="18.046" height="20.987"/>
			</g>
		</g>
		<g>
			<rect x="20.951" y="69.021" style="fill:#747060;" width="24.048" height="15.301"/>
			<rect x="23.972" y="66.078" style="fill:#747060;" width="18.046" height="20.987"/>
		</g>
	</g>
	<g>
		<g>
			<path style="fill:#432333;" d="M194.826,84.224V68.918h9.182v3.063h-6.123v3.058h6.123v3.063h-6.123v3.063h6.123v3.058H194.826z
				 M204.009,75.04v-3.058h3.063v3.058H204.009z M204.009,81.166v-3.063h3.063v3.063H204.009z"/>
		</g>
	</g>
	<g>
		<g>
			<path style="fill:#2E3268;" d="M146.731,84.338v-6.126h3.059v-3.058h-3.059v-6.126h3.061v6.126h6.122v3.058h-6.122v6.126H146.731
				z M155.913,75.154v-6.126h3.063v6.126H155.913z M155.913,84.338v-6.126h3.063v6.126H155.913z"/>
		</g>
	</g>
	<g>
		<g>
			<path style="fill:#356231;" d="M170.789,108.343V96.1h3.059v6.121h6.123V96.1h3.063v12.243h-3.063v-3.058h-6.123v3.058H170.789z
				 M173.849,96.1v-3.063h6.122V96.1H173.849z"/>
		</g>
	</g>
	<g>
		<rect x="47.864" y="54.068" style="fill:#4E494D;" width="17.986" height="3.021"/>
		<rect x="50.891" y="51.037" style="fill:#4E494D;" width="11.933" height="3.021"/>
		<rect x="53.851" y="48.006" style="fill:#4E494D;" width="6.012" height="3.021"/>
	</g>
	<g>
		
			<rect x="48.207" y="96.344" transform="matrix(-1 -8.980473e-11 8.980473e-11 -1 114.4007 195.7086)" style="fill:#4E494D;" width="17.986" height="3.021"/>
		
			<rect x="51.234" y="99.375" transform="matrix(-1 -8.977986e-11 8.977986e-11 -1 114.4007 201.771)" style="fill:#4E494D;" width="11.933" height="3.021"/>
		
			<rect x="54.194" y="102.406" transform="matrix(-1 -8.970837e-11 8.970837e-11 -1 114.4007 207.8334)" style="fill:#4E494D;" width="6.012" height="3.021"/>
	</g>
	<g>
		
			<rect x="28.307" y="75.061" transform="matrix(5.355544e-11 -1 1 5.355544e-11 -40.7406 112.4018)" style="fill:#4E494D;" width="15.046" height="3.021"/>
		
			<rect x="28.298" y="75.061" transform="matrix(5.960305e-11 -1 1 5.960305e-11 -43.7718 109.3706)" style="fill:#4E494D;" width="9.003" height="3.021"/>
		
			<rect x="28.258" y="75.061" transform="matrix(8.971141e-11 -1 1 8.971141e-11 -46.803 106.3394)" style="fill:#4E494D;" width="3.021" height="3.021"/>
	</g>
	<g>
		
			<rect x="70.712" y="75.061" transform="matrix(-8.704087e-12 -1 1 -8.704087e-12 1.6638 154.8062)" style="fill:#4E494D;" width="15.046" height="3.021"/>
		
			<rect x="76.765" y="75.061" transform="matrix(-1.454652e-11 -1 1 -1.454652e-11 4.695 157.8374)" style="fill:#4E494D;" width="9.003" height="3.021"/>
		
			<rect x="82.787" y="75.061" transform="matrix(-4.515670e-11 -1 1 -4.515670e-11 7.7262 160.8686)" style="fill:#4E494D;" width="3.021" height="3.021"/>
	</g>
	<rect x="20.951" y="27.065" style="fill:#747060;" width="192.022" height="3.003"/>
	<rect x="17.845" y="126.111" style="fill:#4E494D;" width="195.128" height="3.003"/>
	<g>
		<g>
			<rect x="11.833" y="123.108" style="fill:#4E494D;" width="3.003" height="3.003"/>
			<rect x="8.83" y="120.106" style="fill:#4E494D;" width="3.003" height="3.003"/>
		</g>
	</g>
	<g>
		<g>
			<rect x="14.854" y="30.068" style="fill:#747060;" width="3.003" height="3.003"/>
			<rect x="11.851" y="33.071" style="fill:#747060;" width="3.003" height="3.003"/>
		</g>
	</g>
	<g>
		<g>
			<rect x="8.849" y="36.073" style="fill:#4E494D;" width="3.003" height="3.003"/>
		</g>
	</g>
	<g>
		<g>
			<rect x="5.846" y="42.054" style="fill:#4E494D;" width="3.003" height="75.045"/>
		</g>
	</g>
	
		<rect x="215.902" y="123.108" transform="matrix(-1 -4.452628e-11 4.452628e-11 -1 434.8069 249.2196)" style="fill:#4E494D;" width="3.003" height="3.003"/>
	<g>
		<g>
			<rect x="215.909" y="30.068" style="fill:#747060;" width="3.003" height="3.003"/>
			<rect x="218.911" y="33.071" style="fill:#747060;" width="3.003" height="3.003"/>
		</g>
	</g>
	<g>
		<g>
			<rect x="221.914" y="39.093" style="fill:#4E494D;" width="3.003" height="75.045"/>
		</g>
	</g>
	<g>
		<g>
			<rect x="218.916" y="120.118" style="fill:#747060;" width="3.003" height="3.003"/>
			<g>
				<g>
					<rect x="221.92" y="117.115" style="fill:#747060;" width="3.003" height="3.003"/>
				</g>
			</g>
		</g>
	</g>
</g>
<ellipse style="fill:#434547;" cx="209.74" cy="76.571" rx="1.769" ry="1.808"/>
<polyline style="fill:#434547;" points="221.71,76.301 209.74,76.267 209.74,76.841 221.71,76.875 "/>
<g>
	<path style="fill:#F5F4F4;" d="M276.252,61.021h-52.313c-1.538,0-2.786,1.247-2.786,2.786v25.529c0,1.539,1.248,2.786,2.786,2.786
		h52.313c1.538,0,2.786-1.247,2.786-2.786V63.807C279.037,62.268,277.79,61.021,276.252,61.021"/>
	<path style="fill:#35485C;" d="M223.938,61.021v0.736h52.313c1.131,0.002,2.048,0.918,2.05,2.05v25.529
		c-0.002,1.132-0.918,2.048-2.05,2.05h-52.313c-1.131-0.002-2.048-0.918-2.05-2.05V63.807c0.002-1.131,0.918-2.048,2.05-2.05V61.021
		v-0.736c-1.945,0.001-3.521,1.576-3.521,3.521v25.529c0.001,1.945,1.577,3.521,3.521,3.521h52.313c1.945,0,3.521-1.576,3.521-3.521
		V63.807c-0.001-1.945-1.576-3.521-3.521-3.521h-52.313V61.021z"/>
	<path style="fill:#35485C;" d="M265.802,79.101h-4.787l-1.074,2.981h-1.553l4.362-11.424h1.318l4.371,11.424h-1.546L265.802,79.101
		z M261.471,77.861h3.884l-1.945-5.343L261.471,77.861z"/>
	<g>
		<defs>
			<polyline id="SVGID_1_" points="222.965,63.169 250.065,63.169 250.065,90.268 222.965,90.268 222.965,63.169 			"/>
		</defs>
		<clipPath id="SVGID_2_">
			<use xlink:href="#SVGID_1_"  style="overflow:visible;"/>
		</clipPath>
		<path style="clip-path:url(#SVGID_2_);fill:#35485C;" d="M245.071,79.948c-2.067,0-3.742-1.676-3.742-3.743
			c0-2.067,1.676-3.742,3.742-3.742c2.067,0,3.742,1.675,3.742,3.742C248.813,78.272,247.137,79.948,245.071,79.948 M237.195,73.808
			c-2.067,0-3.742-1.676-3.742-3.743c0-2.066,1.675-3.742,3.742-3.742c2.068,0,3.742,1.676,3.742,3.742
			C240.938,72.132,239.263,73.808,237.195,73.808 M235.847,87.2c-2.067,0-3.742-1.676-3.742-3.742c0-2.067,1.676-3.743,3.742-3.743
			c2.067,0,3.742,1.675,3.742,3.743C239.589,85.523,237.913,87.2,235.847,87.2 M228.068,80.903c-2.068,0-3.742-1.675-3.742-3.743
			c0-2.067,1.675-3.742,3.742-3.742c2.067,0,3.742,1.675,3.742,3.742C231.81,79.228,230.135,80.903,228.068,80.903 M236.567,63.169
			c-7.47,0-13.526,6.055-13.526,13.526c0,7.47,6.056,13.526,13.526,13.526s13.525-6.056,13.525-13.526
			C250.092,69.224,244.037,63.169,236.567,63.169"/>
		<path style="clip-path:url(#SVGID_2_);fill:#35485C;" d="M238.493,83.457c0,1.461-1.185,2.646-2.646,2.646
			s-2.646-1.185-2.646-2.646c0-1.462,1.185-2.646,2.646-2.646S238.493,81.995,238.493,83.457"/>
		<path style="clip-path:url(#SVGID_2_);fill:#35485C;" d="M230.855,77.161c0,1.539-1.248,2.788-2.787,2.788
			s-2.787-1.249-2.787-2.788c0-1.54,1.248-2.787,2.787-2.787S230.855,75.621,230.855,77.161"/>
		<path style="clip-path:url(#SVGID_2_);fill:#35485C;" d="M239.837,70.141c0,1.462-1.186,2.646-2.647,2.646
			c-1.461,0-2.646-1.184-2.646-2.646c0-1.462,1.185-2.646,2.646-2.646C238.652,67.495,239.837,68.679,239.837,70.141"/>
	</g>
</g>
<ellipse style="fill:#434547;" cx="57.2" cy="76.83" rx="1.808" ry="1.769"/>
<polyline style="fill:#434547;" points="56.93,32.207 56.896,76.828 57.471,76.83 57.505,32.208 "/>
<ellipse style="fill:#434547;" cx="152.853" cy="72.413" rx="1.808" ry="1.769"/>
<polyline style="fill:#434547;" points="152.583,32.207 152.549,72.412 153.124,72.413 153.158,32.208 "/>
<g>
	<path style="fill:#F5F4F4;" d="M100.51,0.915H16.149c-1.533,0-2.775,1.243-2.775,2.776v25.436c0,1.532,1.243,2.775,2.775,2.775
		h84.361c1.532,0,2.775-1.243,2.775-2.775V3.691C103.285,2.158,102.043,0.915,100.51,0.915"/>
	<path style="fill:#35485C;" d="M16.149,0.915v0.915h84.361c1.026,0.002,1.858,0.833,1.859,1.86v25.436
		c-0.002,1.026-0.833,1.858-1.859,1.859H16.149c-1.027-0.002-1.858-0.833-1.86-1.859V3.691c0.002-1.027,0.833-1.859,1.86-1.86V0.915
		V0c-2.039,0.001-3.69,1.652-3.691,3.691v25.436c0.001,2.038,1.652,3.69,3.691,3.69h84.361c2.038-0.001,3.69-1.652,3.69-3.69V3.691
		C104.2,1.652,102.549,0.001,100.51,0H16.149V0.915z"/>
	<path style="fill:#35485C;" d="M31.423,30.327h-5.308c-1.709,0-2.328-1.393-2.328-2.329V21.48h-6.52c-1.709,0-2.33-1.394-2.33-2.33
		v-5.307c0-1.708,1.394-2.329,2.33-2.329h6.52V4.994c0-1.709,1.392-2.329,2.328-2.329h5.308c1.709,0,2.33,1.394,2.33,2.329v6.519
		h6.517c0.897,0,1.608,0.392,2.003,1.105c0.154,0.28,0.341,0.83,0.321,1.223H42.6v5.307c0,1.709-1.393,2.33-2.33,2.33h-6.517v6.518
		C33.753,29.707,32.359,30.327,31.423,30.327z M17.267,12.632c-0.281,0.004-1.21,0.104-1.21,1.209v5.307
		c0.005,0.281,0.104,1.21,1.21,1.21h7.639v7.639c0.004,0.28,0.104,1.21,1.208,1.21h5.306c0.287-0.005,1.212-0.106,1.212-1.21v-7.638
		h7.638c0.281-0.004,1.21-0.104,1.21-1.21v-5.316c-0.004-0.214-0.084-1.2-1.209-1.2h-7.637v-7.64c-0.004-0.28-0.103-1.21-1.21-1.21
		h-5.308c-0.281,0.005-1.208,0.104-1.208,1.21v7.639H17.267z"/>
	<path style="fill:#35485C;" d="M28.77,19.222c-1.502,0-2.724-1.222-2.724-2.725s1.222-2.725,2.724-2.725
		c1.502,0,2.725,1.222,2.725,2.725C31.495,18,30.272,19.222,28.77,19.222z M28.77,14.891c-0.885,0-1.604,0.721-1.604,1.605
		c0,0.886,0.719,1.605,1.604,1.605c0.886,0,1.605-0.72,1.605-1.605C30.375,15.611,29.654,14.891,28.77,14.891z"/>
	<polygon style="fill:#35485C;" points="28.769,5.04 26.526,8.537 31.014,8.537 	"/>
	<path style="fill:#35485C;" d="M31.013,9.097h-4.488c-0.205,0-0.393-0.113-0.491-0.292c-0.098-0.18-0.09-0.398,0.02-0.571
		l2.243-3.497c0.206-0.321,0.737-0.321,0.942,0l2.245,3.497c0.11,0.172,0.118,0.391,0.02,0.571
		C31.406,8.984,31.218,9.097,31.013,9.097z M27.55,7.977h2.439l-1.22-1.899L27.55,7.977z"/>
	<polygon style="fill:#35485C;" points="17.269,16.497 20.766,18.739 20.766,14.252 	"/>
	<path style="fill:#35485C;" d="M20.766,19.299c-0.105,0-0.21-0.03-0.302-0.089l-3.496-2.243c-0.161-0.102-0.257-0.28-0.257-0.471
		c0-0.192,0.097-0.369,0.257-0.472l3.496-2.244c0.172-0.11,0.391-0.118,0.571-0.02c0.179,0.098,0.291,0.287,0.291,0.491v4.487
		c0,0.204-0.111,0.392-0.291,0.491C20.95,19.277,20.858,19.299,20.766,19.299z M18.306,16.497l1.9,1.218v-2.437L18.306,16.497z"/>
	<polygon style="fill:#35485C;" points="40.227,16.496 36.729,14.252 36.729,18.739 	"/>
	<path style="fill:#35485C;" d="M36.73,19.299c-0.092,0-0.184-0.022-0.268-0.068c-0.18-0.099-0.292-0.287-0.292-0.491v-4.487
		c0-0.204,0.111-0.392,0.292-0.491c0.179-0.098,0.397-0.091,0.571,0.02l3.497,2.244c0.16,0.103,0.257,0.28,0.257,0.471
		s-0.097,0.368-0.257,0.471l-3.498,2.244C36.94,19.269,36.835,19.299,36.73,19.299z M37.29,15.277v2.437l1.9-1.219L37.29,15.277z"/>
	<polygon style="fill:#35485C;" points="28.769,27.952 31.014,24.456 26.526,24.456 	"/>
	<path style="fill:#35485C;" d="M28.769,28.512L28.769,28.512c-0.19,0-0.368-0.097-0.471-0.258l-2.243-3.496
		c-0.111-0.172-0.118-0.392-0.02-0.572c0.099-0.179,0.286-0.292,0.491-0.292h4.488c0.205,0,0.392,0.112,0.491,0.292
		c0.099,0.18,0.09,0.399-0.02,0.572l-2.245,3.496C29.137,28.415,28.959,28.512,28.769,28.512z M27.55,25.015l1.219,1.9l1.22-1.9
		H27.55z"/>
	<path style="fill:#35485C;" d="M51.657,21.92V10.495h3.225c0.994,0,1.873,0.219,2.636,0.659c0.763,0.439,1.352,1.065,1.765,1.875
		c0.418,0.81,0.63,1.742,0.635,2.793v0.73c0,1.078-0.209,2.021-0.628,2.833c-0.413,0.81-1.007,1.433-1.781,1.867
		c-0.769,0.434-1.666,0.656-2.691,0.667H51.657z M53.164,11.735v8.952h1.585c1.161,0,2.063-0.361,2.707-1.083
		c0.649-0.722,0.973-1.75,0.973-3.083v-0.667c0-1.297-0.306-2.304-0.918-3.021c-0.607-0.722-1.47-1.088-2.589-1.098H53.164z"/>
	<rect x="61.167" y="16.475" style="fill:#35485C;" width="3.829" height="1.184"/>
	<path style="fill:#35485C;" d="M68.134,17.447v4.473h-1.506V10.495h4.213c1.25,0,2.228,0.32,2.934,0.958
		c0.711,0.638,1.067,1.482,1.067,2.534c0,1.109-0.348,1.964-1.043,2.565c-0.691,0.597-1.682,0.894-2.974,0.894H68.134z
		 M68.134,16.216h2.707c0.806,0,1.423-0.189,1.851-0.565c0.429-0.382,0.643-0.932,0.643-1.648c0-0.681-0.215-1.224-0.643-1.632
		c-0.429-0.407-1.017-0.62-1.765-0.635h-2.793V16.216z"/>
	<path style="fill:#35485C;" d="M82.006,18.938H77.22l-1.075,2.982h-1.553l4.362-11.424h1.318l4.37,11.424h-1.545L82.006,18.938z
		 M77.675,17.698h3.883l-1.946-5.343L77.675,17.698z"/>
	<path style="fill:#35485C;" d="M86.18,21.92V10.495h3.224c0.994,0,1.873,0.219,2.636,0.659c0.764,0.439,1.352,1.065,1.765,1.875
		c0.419,0.81,0.63,1.742,0.636,2.793v0.73c0,1.078-0.209,2.021-0.628,2.833c-0.413,0.81-1.007,1.433-1.781,1.867
		c-0.769,0.434-1.666,0.656-2.691,0.667H86.18z M87.686,11.735v8.952h1.585c1.161,0,2.064-0.361,2.707-1.083
		c0.648-0.722,0.973-1.75,0.973-3.083v-0.667c0-1.297-0.306-2.304-0.918-3.021c-0.607-0.722-1.47-1.088-2.589-1.098H87.686z"/>
</g>
<g>
	<path style="fill:#F5F4F4;" d="M179.03,0.858h-52.313c-1.539,0-2.786,1.247-2.786,2.786v25.529c0,1.539,1.246,2.786,2.786,2.786
		h52.313c1.538,0,2.786-1.247,2.786-2.786V3.644C181.816,2.106,180.568,0.858,179.03,0.858"/>
	<path style="fill:#35485C;" d="M126.717,0.858v0.736h52.313c1.131,0.002,2.048,0.918,2.05,2.05v25.529
		c-0.002,1.132-0.918,2.048-2.05,2.05h-52.313c-1.132-0.002-2.048-0.918-2.05-2.05V3.644c0.002-1.132,0.917-2.048,2.05-2.05V0.858
		V0.123c-1.946,0-3.521,1.577-3.521,3.521v25.529c0,1.945,1.576,3.521,3.521,3.521h52.313c1.945,0,3.521-1.576,3.521-3.521V3.644
		c-0.001-1.945-1.576-3.521-3.521-3.521h-52.313V0.858z"/>
	<polygon style="fill:#35485C;" points="166.055,15.899 169.037,10.163 170.747,10.163 166.809,17.327 166.809,21.587 
		165.302,21.587 165.302,17.327 161.364,10.163 163.089,10.163 	"/>
	<g>
		<defs>
			<polyline id="SVGID_3_" points="125.281,2.098 153.512,2.098 153.512,30.33 125.281,30.33 125.281,2.098 			"/>
		</defs>
		<clipPath id="SVGID_4_">
			<use xlink:href="#SVGID_3_"  style="overflow:visible;"/>
		</clipPath>
		<path style="clip-path:url(#SVGID_4_);fill:#35485C;" d="M148.309,19.579c-2.153,0-3.899-1.746-3.899-3.9
			c0-2.153,1.746-3.898,3.899-3.898c2.154,0,3.899,1.745,3.899,3.898C152.208,17.833,150.463,19.579,148.309,19.579 M140.105,13.182
			c-2.154,0-3.899-1.746-3.899-3.9c0-2.153,1.745-3.899,3.899-3.899c2.154,0,3.899,1.746,3.899,3.899
			C144.004,11.436,142.258,13.182,140.105,13.182 M138.7,27.134c-2.153,0-3.899-1.746-3.899-3.899s1.746-3.899,3.899-3.899
			c2.153,0,3.899,1.746,3.899,3.899S140.853,27.134,138.7,27.134 M130.596,20.574c-2.154,0-3.899-1.745-3.899-3.899
			c0-2.153,1.745-3.898,3.899-3.898s3.899,1.745,3.899,3.898C134.494,18.829,132.749,20.574,130.596,20.574 M139.45,2.099
			c-7.782,0-14.091,6.308-14.091,14.091c0,7.782,6.309,14.091,14.091,14.091s14.091-6.309,14.091-14.091
			C153.541,8.407,147.232,2.099,139.45,2.099"/>
		<path style="clip-path:url(#SVGID_4_);fill:#35485C;" d="M151.093,15.68c0,1.538-1.246,2.784-2.784,2.784
			s-2.784-1.246-2.784-2.784c0-1.537,1.246-2.784,2.784-2.784S151.093,14.143,151.093,15.68"/>
		<path style="clip-path:url(#SVGID_4_);fill:#35485C;" d="M141.457,23.235c0,1.522-1.235,2.757-2.757,2.757
			c-1.523,0-2.757-1.234-2.757-2.757c0-1.523,1.234-2.757,2.757-2.757C140.222,20.478,141.457,21.712,141.457,23.235"/>
		<path style="clip-path:url(#SVGID_4_);fill:#35485C;" d="M142.857,9.362c0,1.523-1.235,2.757-2.757,2.757
			c-1.523,0-2.757-1.234-2.757-2.757s1.234-2.757,2.757-2.757C141.622,6.605,142.857,7.839,142.857,9.362"/>
	</g>
</g>
<ellipse style="fill:#434547;" cx="186.427" cy="48.384" rx="1.769" ry="1.808"/>
<polyline style="fill:#434547;" points="201.083,48.114 186.428,48.08 186.427,48.654 201.083,48.688 "/>
<g>
	<path style="fill:#F5F4F4;" d="M256.107,22.024h-52.313c-1.539,0-2.786,1.247-2.786,2.786v25.529c0,1.539,1.246,2.786,2.786,2.786
		h52.313c1.538,0,2.786-1.247,2.786-2.786V24.81C258.892,23.272,257.645,22.024,256.107,22.024"/>
	<path style="fill:#35485C;" d="M203.793,22.024v0.736h52.313c1.131,0.002,2.048,0.918,2.05,2.05v25.529
		c-0.002,1.132-0.918,2.048-2.05,2.05h-52.313c-1.133-0.002-2.048-0.917-2.05-2.05V24.81c0.002-1.132,0.917-2.048,2.05-2.05V22.024
		v-0.736c-1.946,0-3.521,1.577-3.521,3.521v25.529c0,1.945,1.576,3.521,3.521,3.521h52.313c1.945,0,3.521-1.576,3.521-3.521V24.81
		c-0.001-1.945-1.576-3.521-3.521-3.521h-52.313V22.024z"/>
	<polygon style="fill:#35485C;" points="243.076,36.04 245.813,31.662 247.587,31.662 243.978,37.326 247.673,43.085 
		245.885,43.085 243.076,38.629 240.251,43.085 238.47,43.085 242.173,37.326 238.556,31.662 240.321,31.662 	"/>
	<g>
		<defs>
			<polyline id="SVGID_5_" points="202.299,23.782 230.392,23.782 230.392,51.876 202.299,51.876 202.299,23.782 			"/>
		</defs>
		<clipPath id="SVGID_6_">
			<use xlink:href="#SVGID_5_"  style="overflow:visible;"/>
		</clipPath>
		<path style="clip-path:url(#SVGID_6_);fill:#35485C;" d="M225.214,41.177c-2.143,0-3.88-1.737-3.88-3.88
			c0-2.142,1.737-3.879,3.88-3.879c2.143,0,3.879,1.737,3.879,3.879C229.093,39.439,227.357,41.177,225.214,41.177 M217.05,34.812
			c-2.144,0-3.88-1.737-3.88-3.88c0-2.142,1.736-3.879,3.88-3.879c2.143,0,3.879,1.737,3.879,3.879
			C220.929,33.074,219.193,34.812,217.05,34.812 M215.652,48.694c-2.143,0-3.879-1.737-3.879-3.879c0-2.143,1.736-3.879,3.879-3.879
			c2.143,0,3.88,1.736,3.88,3.879C219.532,46.957,217.794,48.694,215.652,48.694 M207.588,42.167c-2.144,0-3.88-1.736-3.88-3.88
			c0-2.142,1.736-3.879,3.88-3.879c2.143,0,3.879,1.737,3.879,3.879C211.467,40.43,209.73,42.167,207.588,42.167 M216.398,23.782
			c-7.743,0-14.022,6.278-14.022,14.022s6.279,14.022,14.022,14.022c7.744,0,14.023-6.278,14.023-14.022
			S224.142,23.782,216.398,23.782"/>
		<path style="clip-path:url(#SVGID_6_);fill:#35485C;" d="M227.985,37.297c0,1.53-1.241,2.771-2.77,2.771
			c-1.53,0-2.771-1.24-2.771-2.771c0-1.53,1.241-2.77,2.771-2.77C226.744,34.527,227.985,35.767,227.985,37.297"/>
		<path style="clip-path:url(#SVGID_6_);fill:#35485C;" d="M218.396,44.815c0,1.515-1.229,2.743-2.744,2.743
			c-1.515,0-2.743-1.229-2.743-2.743c0-1.515,1.228-2.744,2.743-2.744C217.167,42.071,218.396,43.299,218.396,44.815"/>
		<path style="clip-path:url(#SVGID_6_);fill:#35485C;" d="M210.477,38.287c0,1.596-1.295,2.89-2.89,2.89
			c-1.595,0-2.889-1.295-2.889-2.89c0-1.596,1.295-2.889,2.889-2.889C209.183,35.397,210.477,36.691,210.477,38.287"/>
	</g>
</g>
<ellipse style="fill:#434547;" cx="186.448" cy="104.696" rx="1.769" ry="1.808"/>
<polyline style="fill:#434547;" points="201.125,104.426 186.448,104.392 186.448,104.966 201.124,105 "/>
<g>
	<path style="fill:#F5F4F4;" d="M256.107,101.548h-52.313c-1.538,0-2.786,1.247-2.786,2.786v25.53c0,1.538,1.247,2.786,2.786,2.786
		h52.313c1.538,0,2.786-1.247,2.786-2.786v-25.53C258.892,102.796,257.645,101.548,256.107,101.548"/>
	<path style="fill:#35485C;" d="M203.793,101.548v0.736h52.313c1.131,0.002,2.048,0.918,2.05,2.05v25.53
		c-0.002,1.131-0.918,2.048-2.05,2.05h-52.313c-1.131-0.002-2.048-0.918-2.05-2.05v-25.53c0.002-1.131,0.918-2.048,2.05-2.05
		V101.548v-0.736c-1.945,0.001-3.521,1.576-3.521,3.521v25.53c0.001,1.945,1.576,3.521,3.521,3.521h52.313
		c1.945-0.001,3.521-1.576,3.521-3.521v-25.53c-0.001-1.945-1.576-3.521-3.521-3.521h-52.313V101.548z"/>
	<path style="fill:#35485C;" d="M239.349,122.609v-11.424h3.735c1.24,0,2.17,0.257,2.793,0.769c0.628,0.513,0.941,1.271,0.941,2.275
		c0,0.533-0.151,1.007-0.455,1.421c-0.303,0.407-0.716,0.724-1.239,0.949c0.617,0.172,1.103,0.502,1.459,0.989
		c0.361,0.481,0.541,1.057,0.541,1.726c0,1.025-0.332,1.831-0.996,2.417s-1.604,0.879-2.816,0.879H239.349z M240.855,117.266v4.111
		h2.487c0.701,0,1.253-0.18,1.656-0.541c0.408-0.367,0.612-0.868,0.612-1.506c0-1.376-0.748-2.064-2.244-2.064H240.855z
		 M240.855,116.057h2.275c0.659,0,1.185-0.165,1.577-0.494c0.398-0.329,0.597-0.777,0.597-1.342c0-0.628-0.183-1.083-0.55-1.365
		c-0.366-0.288-0.923-0.432-1.671-0.432h-2.228V116.057z"/>
	<g>
		<defs>
			<polyline id="SVGID_7_" points="202.35,103.339 230.026,103.339 230.026,131.016 202.35,131.016 202.35,103.339 			"/>
		</defs>
		<clipPath id="SVGID_8_">
			<use xlink:href="#SVGID_7_"  style="overflow:visible;"/>
		</clipPath>
		<path style="clip-path:url(#SVGID_8_);fill:#35485C;" d="M224.926,120.475c-2.111,0-3.822-1.711-3.822-3.823
			c0-2.11,1.711-3.821,3.822-3.821s3.822,1.711,3.822,3.821C228.748,118.764,227.036,120.475,224.926,120.475 M216.883,114.205
			c-2.112,0-3.822-1.711-3.822-3.823c0-2.11,1.71-3.822,3.822-3.822c2.111,0,3.822,1.712,3.822,3.822
			C220.705,112.493,218.994,114.205,216.883,114.205 M215.505,127.881c-2.112,0-3.822-1.711-3.822-3.821
			c0-2.112,1.71-3.822,3.822-3.822c2.111,0,3.822,1.71,3.822,3.822C219.328,126.17,217.616,127.881,215.505,127.881 M207.56,121.45
			c-2.111,0-3.822-1.71-3.822-3.822c0-2.111,1.711-3.822,3.822-3.822c2.112,0,3.822,1.711,3.822,3.822
			C211.382,119.74,209.672,121.45,207.56,121.45 M216.24,103.339c-7.629,0-13.814,6.184-13.814,13.814s6.185,13.814,13.814,13.814
			c7.63,0,13.815-6.184,13.815-13.814S223.87,103.339,216.24,103.339"/>
		<path style="clip-path:url(#SVGID_8_);fill:#35485C;" d="M227.654,116.653c0,1.507-1.221,2.729-2.729,2.729
			s-2.73-1.221-2.73-2.729s1.222-2.729,2.73-2.729S227.654,115.146,227.654,116.653"/>
		<path style="clip-path:url(#SVGID_8_);fill:#35485C;" d="M210.407,117.628c0,1.572-1.275,2.847-2.847,2.847
			s-2.847-1.275-2.847-2.847c0-1.572,1.275-2.847,2.847-2.847S210.407,116.056,210.407,117.628"/>
		<path style="clip-path:url(#SVGID_8_);fill:#35485C;" d="M219.581,110.459c0,1.493-1.211,2.703-2.703,2.703
			c-1.493,0-2.703-1.21-2.703-2.703c0-1.493,1.21-2.703,2.703-2.703C218.37,107.757,219.581,108.967,219.581,110.459"/>
	</g>
</g>
</svg>
