<svg xmlns="http://www.w3.org/2000/svg" viewBox="0 0 117.381 236.373"><path d="M0 220.663V21.51C0 12.87 7.069 5.8 15.71 5.8h72.145c13.049 0 23.726 10.677 23.726 23.726v183.121c0 13.049-10.677 23.726-23.726 23.726H15.71c-8.641 0-15.71-7.069-15.71-15.71z" fill="#4e494d"/><path d="M5.801 214.863V15.71C5.801 7.069 12.87 0 21.51 0h72.145c13.049 0 23.726 10.677 23.726 23.726v183.121c0 13.049-10.677 23.726-23.726 23.726H21.51c-8.64 0-15.709-7.07-15.709-15.71z" fill="#82929d"/><g fill="#824a30"><path d="M19.936 95.545h3.063v-3.059h9.184v3.059h3.063v9.184h-3.063v-6.122h-9.184v6.122h-3.063v-9.184zm3.063 9.185h9.184v3.063h-9.184v-3.063zM19.936 110.855h15.31v6.122h-3.063v3.063H29.12v3.059h6.126v3.063h-15.31v-3.063h3.063v-3.059h3.063v-3.063h-6.126v-6.122zM19.936 129.223h15.31v15.306h-3.063v-9.184H29.12v6.122h-3.058v-6.122h-3.063v9.184h-3.063v-15.306z"/></g><g fill="#824a30"><path d="M74.202 164.873h15.301v24.048H74.202z"/><path d="M71.46 167.894h20.987v18.046H71.46z"/></g><g fill="#c87a31"><path d="M76.981 164.873h15.301v24.048H76.981z"/><path d="M74.239 167.894h20.987v18.046H74.239z"/></g><g fill="#356231"><path d="M25.864 164.873h15.301v24.048H25.864z"/><path d="M23.122 167.894h20.987v18.046H23.122z"/></g><g fill="#6ba13b"><path d="M28.643 164.873h15.301v24.048H28.643z"/><path d="M25.901 167.894h20.987v18.046H25.901z"/></g><path d="M86.262 170.774h6.121v3.063h-6.121v-3.063zm-6.122 9.184h3.058v-6.122h3.063v6.122h6.121v3.063H80.14v-3.063zm-3.058-6.122h3.058v6.122h-3.058v-6.122z" fill="#824a30"/><g fill="#432333"><path d="M50.178 188.925h15.301v24.048H50.178z"/><path d="M47.436 191.946h20.987v18.046H47.436z"/></g><g fill="#c44747"><path d="M68.259 188.925v24.048H52.958v-24.048z"/><path d="M71.202 191.946v18.046H50.215v-18.046z"/></g><g fill="#2e3268"><path d="M50.178 140.829h15.301v24.048H50.178z"/><path d="M47.436 143.85h20.987v18.046H47.436z"/></g><g fill="#5472b1"><path d="M52.958 140.829h15.301v24.048H52.958z"/><path d="M50.215 143.85h20.987v18.046H50.215z"/></g><g fill="#4e494d"><path d="M74.202 44.995h15.301v24.048H74.202z"/><path d="M71.46 48.016h20.987v18.046H71.46z"/></g><g fill="#747060"><path d="M76.981 44.995h15.301v24.048H76.981z"/><path d="M74.239 48.016h20.987v18.046H74.239z"/></g><g fill="#4e494d"><path d="M25.864 44.995h15.301v24.048H25.864z"/><path d="M23.122 48.016h20.987v18.046H23.122z"/></g><g fill="#747060"><path d="M43.945 44.995v24.048H28.644V44.995z"/><path d="M46.887 48.015v18.046H25.9V48.015z"/></g><g fill="#4e494d"><path d="M50.178 69.046h15.301v24.048H50.178z"/><path d="M47.436 72.067h20.987v18.046H47.436z"/></g><g fill="#747060"><path d="M52.958 69.046h15.301v24.048H52.958z"/><path d="M50.215 72.067h20.987v18.046H50.215z"/></g><g fill="#4e494d"><path d="M50.178 20.951h15.301v24.048H50.178z"/><path d="M47.436 23.972h20.987v18.046H47.436z"/></g><g fill="#747060"><path d="M68.26 20.95V45H52.957V20.95z"/><path d="M71.202 23.972v18.046H50.215V23.972z"/></g><path d="M53.056 194.826h15.306v9.182h-3.063v-6.123H62.24v6.123h-3.063v-6.123h-3.063v6.123h-3.058v-9.182zm9.184 9.183h3.058v3.063H62.24v-3.063zm-6.126 0h3.063v3.063h-3.063v-3.063z" fill="#432333"/><path d="M52.942 146.731h6.126v3.059h3.058v-3.059h6.126v3.061h-6.126v6.122h-3.058v-6.122h-6.126v-3.061zm9.184 9.182h6.126v3.063h-6.126v-3.063zm-9.184 0h6.126v3.063h-6.126v-3.063z" fill="#2e3268"/><path d="M28.937 170.789H41.18v3.059h-6.121v6.123h6.121v3.063H28.937v-3.063h3.058v-6.123h-3.058v-3.059zm12.243 3.06h3.063v6.122H41.18v-6.122z" fill="#356231"/><g fill="#4e494d"><path d="M83.212 47.864V65.85H80.19V47.864zM86.243 50.89v11.934h-3.021V50.89zM89.274 53.851v6.012h-3.02v-6.012z"/></g><g fill="#4e494d"><path d="M37.915 66.193V48.207h3.021v17.986zM34.884 63.167V51.234h3.021v11.933zM31.853 60.207v-6.012h3.021v6.012z"/></g><g fill="#4e494d"><path d="M53.186 34.32h15.046v3.021H53.186zM56.207 31.289h9.003v3.021h-9.003zM59.198 28.258h3.021v3.021h-3.021z"/></g><g fill="#4e494d"><path d="M53.186 76.724h15.046v3.021H53.186zM56.207 79.756h9.003v3.021h-9.003zM59.198 82.787h3.021v3.021h-3.021z"/></g><path fill="#747060" d="M110.214 20.95v192.023h-3.003V20.95z"/><path fill="#4e494d" d="M11.169 17.845v195.128H8.164V17.845z"/><g><g fill="#4e494d"><path d="M11.169 11.833h3.003v3.003h-3.003zM14.172 8.83h3.003v3.003h-3.003z"/></g></g><g><g fill="#747060"><path d="M104.209 14.854h3.003v3.003h-3.003z"/><path d="M101.207 11.851h3.003v3.003h-3.003z"/></g></g><g><path fill="#4e494d" d="M98.204 8.849h3.003v3.003h-3.003z"/></g><g><path fill="#4e494d" d="M20.181 5.846h75.045v3.003H20.181z"/></g><path fill="#4e494d" d="M11.169 218.905v-3.003h3.003v3.003z"/><g><g fill="#747060"><path d="M104.209 215.909h3.003v3.003h-3.003z"/><path d="M101.207 218.911h3.003v3.003h-3.003z"/></g></g><g><path fill="#4e494d" d="M23.142 221.914h75.045v3.003H23.142z"/></g><g><path fill="#747060" d="M14.159 218.916h3.003v3.003h-3.003zM17.162 221.92h3.003v3.003h-3.003z"/></g></svg>