<svg xmlns="http://www.w3.org/2000/svg" viewBox="0 0 30 30"><path fill="#d04648" d="M-.006 2.143h23.571v23.571H-.006z"/><path fill="#442434" d="M-.006 25.714h23.571v2.143H-.006zM2.137 4.286h19.286v2.143H2.137zM2.137 0h21.429v2.143H2.137z"/><path fill="#140c1c" d="M27.851 8.571h2.143V15h-2.143zM25.708 15h2.143v2.143h-2.143z"/><path fill="#140c1c" d="M23.565 2.143h2.143v23.571h-2.143z"/><g><g fill="#140c1c"><path d="M2.137 27.857h6.429V30H2.137zM14.994 27.857h6.429V30h-6.429z"/></g></g><g><path fill="#d6e5cf" d="M2.137 6.429h19.286v10.714H2.137zM6.423 19.286h10.714v2.143H6.423z"/><path fill="#d6e5cf" d="M8.565 21.429h6.429v2.143H8.565z"/></g><g fill="#d04648"><path d="M6.423 12.857h2.143V15H6.423zM4.28 10.714h6.429v2.143H4.28zM8.565 8.571h2.143v2.143H8.565zM4.28 8.571h2.143v2.143H4.28z"/></g><g fill="#d04648"><path d="M14.994 12.857h2.143V15h-2.143zM12.851 10.714h6.429v2.143h-6.429zM17.137 8.571h2.143v2.143h-2.143zM12.851 8.571h2.143v2.143h-2.143z"/></g></svg>