<svg xmlns="http://www.w3.org/2000/svg" viewBox="0 0 153.533 157.625"><path d="M153.533 12.487v-2.444L141.659.11h-3.186v.503H125.65l-.602.446-1.033.741v.014H19.99V.11H1.787l.001.003C.798.113 0 .911 0 1.901v153.935c0 .99.798 1.788 1.788 1.788h149.957c.991 0 1.788-.798 1.788-1.788V18.397h-1.467v-5.91h1.467zM13.832 146.97H4.835v-6.412h8.997v6.412z" fill="#174090"/><path fill="#143795" d="M9.199 23.39v-3.464h1.858l-3.716-8.825-3.716 8.825h1.858v3.464h3.754"/><path d="M19.99 1.814v49.199c0 1.436 1.196 2.592 2.682 2.592h96.845c1.486 0 2.682-1.156 2.682-2.592V1.814" fill="#163e7f"/><path d="M39.076 0v50.923a2.677 2.677 0 0 0 2.683 2.683h77.759a2.677 2.677 0 0 0 2.683-2.683V0H39.076zm48.143 7.726h22.715v42.231H87.219V7.726z" fill="#8a8e8c"/><path d="M22.992 64.522h96.206a3.002 3.002 0 0 1 3.002 3.002v60.496a3.002 3.002 0 0 1-3.002 3.002H22.992a3.002 3.002 0 0 1-3.002-3.002V67.524a3.002 3.002 0 0 1 3.002-3.002z" fill="#163e7f"/><path d="M33.47 130.022h75.25a4.375 4.375 0 0 0 4.375-4.375v-55.75a4.375 4.375 0 0 0-4.375-4.375H33.47a4.375 4.375 0 0 0-4.375 4.375v55.75a4.375 4.375 0 0 0 4.375 4.375z" fill="#357bb7"/><path fill="#fff" d="M29.095 72.397h84v38.5h-84z"/><path fill="none" stroke="#357bb7" stroke-miterlimit="10" d="M111.096 74.397v34.5h-80v-34.5z"/><path d="M84.232 97.859h2.28l.668-1.271h.983l-2.788 5.136-2.787-5.136h.99l.654 1.271zm.331.671l.588 1.127c.064.131.138.311.218.56.072-.249.145-.429.209-.56l.589-1.127h-1.604zM80.27 96.587h.935v4.258h1.53v.685h-3.987v-.685h1.522v-4.258zM75.106 97.859h2.279l.669-1.271h.983l-2.788 5.136-2.787-5.136h.991l.653 1.271zm.331.671l.588 1.127c.064.131.137.311.218.56.072-.249.146-.429.21-.56l.588-1.127h-1.604zM71.675 96.587h.879v4.942h-1.306c-.62 0-1.079-.042-1.435-.276a1.28 1.28 0 0 1-.556-1.086c0-.795.451-1.244 1.321-1.334l-1.981-2.246h1.056l1.917 2.212h.104v-2.212zm-.226 2.834c-.821 0-1.232.083-1.232.678 0 .608.395.739 1.232.739h.169v-1.417h-.169zM67.656 101.53h-.935v-4.942h.935v4.942zM61.784 97.873c-.137-.442-.523-.678-1.111-.678-.564 0-.91.29-.91.732 0 .484.427.602 1.023.851 1.022.429 1.587.76 1.587 1.507 0 .795-.685 1.354-1.732 1.354-.854 0-1.442-.297-1.659-.815l.732-.325c.226.305.492.449.854.449.507 0 .821-.249.821-.622 0-.477-.451-.622-1.096-.878-1.015-.4-1.49-.753-1.49-1.465 0-.92.717-1.527 1.909-1.527.983 0 1.628.4 1.821 1.119l-.749.298zM55.55 96.587h.935v4.258h1.53v.685h-3.988v-.685h1.523v-4.258z"/><g><path d="M101.613 91.29h-.677v-3.578h.677v3.578zM99.826 91.431l-2.646-2.188a4.73 4.73 0 0 1-.455-.436v2.482h-.623V87.57l2.698 2.228c.151.125.286.261.402.4v-2.487h.624v3.72zM94.707 88.643c-.099-.32-.379-.49-.804-.49-.408 0-.659.21-.659.53 0 .351.309.436.74.616.74.31 1.148.55 1.148 1.091 0 .575-.495.98-1.253.98-.618 0-1.044-.215-1.201-.59l.53-.235c.163.22.355.325.618.325.367 0 .595-.181.595-.45 0-.346-.327-.451-.793-.636-.734-.291-1.078-.546-1.078-1.062 0-.665.519-1.105 1.381-1.105.712 0 1.178.29 1.317.811l-.541.215zM91.673 91.29h-2.326v-.495h1.649V89.9h-1.649v-.511h1.649v-1.156h-1.649v-.521h2.326v3.578zM87.8 87.712h.636v3.578h-.944c-.449 0-.781-.029-1.038-.2a.926.926 0 0 1-.402-.785c0-.576.327-.901.956-.966l-1.434-1.627h.764l1.387 1.602h.075v-1.602zm-.163 2.052c-.595 0-.892.061-.892.491 0 .439.285.535.892.535h.122v-1.026h-.122zM83.689 87.712h.676v3.083h1.107v.495h-2.885v-.495h1.102v-3.083zM80.035 91.29h-.916c-.78 0-1.381 0-1.888-.335-.479-.315-.734-.815-.734-1.456s.256-1.137.734-1.452c.483-.32 1.031-.335 1.707-.335h1.097v3.578zm-1.248-3.052c-.46 0-.815.021-1.113.235-.314.23-.472.575-.472 1.031 0 .455.157.801.472 1.03.31.221.694.235 1.195.235h.489v-2.532h-.571zM75.575 91.29h-.677v-3.578h.677v3.578zM73.483 88.643c-.099-.32-.379-.49-.805-.49-.407 0-.658.21-.658.53 0 .351.309.436.74.616.74.31 1.148.55 1.148 1.091 0 .575-.495.98-1.253.98-.618 0-1.044-.215-1.201-.59l.53-.235c.163.22.355.325.618.325.367 0 .595-.181.595-.45 0-.346-.327-.451-.793-.636-.734-.291-1.078-.546-1.078-1.062 0-.665.519-1.105 1.381-1.105.712 0 1.178.29 1.317.811l-.541.215zM70.451 91.29h-.677v-1.481l-1.498 1.481h-.827l1.649-1.591-1.848-1.987h.874l1.649 1.827v-1.827h.677v3.578zM64.792 91.29h-.677v-3.578h.677v3.578zM63.003 91.431l-2.646-2.188a4.73 4.73 0 0 1-.455-.436v2.482h-.623V87.57l2.698 2.228c.151.125.286.261.402.4v-2.487h.624v3.72zM56.291 91.29h-.916c-.78 0-1.381 0-1.888-.335-.479-.315-.734-.815-.734-1.456s.256-1.137.734-1.452c.483-.32 1.031-.335 1.707-.335h1.097v3.578zm-1.248-3.052c-.46 0-.815.021-1.113.235-.314.23-.472.575-.472 1.031 0 .455.157.801.472 1.03.31.221.694.235 1.195.235h.489v-2.532h-.571zM51.207 87.712h.636v3.578h-.944c-.449 0-.781-.029-1.038-.2a.926.926 0 0 1-.402-.785c0-.576.327-.901.956-.966l-1.434-1.627h.764l1.387 1.602h.076v-1.602zm-.163 2.052c-.595 0-.892.061-.892.491 0 .439.285.535.892.535h.122v-1.026h-.122zM48.43 91.29h-.677v-3.578h.677v3.578zM47.178 91.29h-.706l-.933-1.906a2.77 2.77 0 0 1-.221-.576 3.403 3.403 0 0 1-.228.576l-.933 1.906h-.697l1.859-3.719 1.859 3.719zM42.904 91.29h-2.326v-.495h1.649V89.9h-1.649v-.511h1.649v-1.156h-1.649v-.521h2.326v3.578zM91.062 82.633h1.649l.483-.921h.712l-2.018 3.719-2.017-3.719h.717l.474.921zm.239.486l.425.816c.047.095.1.225.157.405.053-.181.105-.311.152-.405l.425-.816h-1.159zM89.347 85.431l-2.646-2.188a4.73 4.73 0 0 1-.455-.436v2.482h-.623V81.57l2.698 2.228c.151.125.286.261.402.4v-2.487h.624v3.72zM84.532 85.29h-.916c-.78 0-1.381 0-1.888-.335-.479-.315-.734-.815-.734-1.456s.256-1.137.734-1.452c.483-.32 1.031-.335 1.707-.335h1.097v3.578zm-1.248-3.052c-.46 0-.815.021-1.113.235-.314.23-.472.575-.472 1.031 0 .455.157.801.472 1.03.31.221.693.235 1.195.235h.489v-2.532h-.571zM77.881 82.643c-.099-.32-.379-.49-.805-.49-.407 0-.658.21-.658.53 0 .351.309.436.74.616.74.31 1.148.55 1.148 1.091 0 .575-.495.98-1.253.98-.618 0-1.044-.215-1.201-.59l.53-.235c.163.22.355.325.618.325.367 0 .595-.181.595-.45 0-.346-.327-.451-.793-.636-.734-.291-1.078-.546-1.078-1.062 0-.665.519-1.105 1.381-1.105.712 0 1.178.29 1.317.811l-.541.215zM74.674 85.29l-.787-1.807a7.59 7.59 0 0 1-.222-.565c-.122.346-.204.541-.228.601l-.839 1.912-.881-1.947a6.506 6.506 0 0 1-.221-.57c-.047.17-.117.351-.204.556l-.781 1.821h-.677l1.615-3.719.95 2.043c.081.175.151.345.204.5.058-.175.122-.346.198-.511l.933-2.032 1.608 3.719h-.668zM69.23 85.29h-.677v-3.578h.677v3.578zM66.096 81.712h.676v3.083h1.107v.495h-2.885v-.495h1.102v-3.083zM64.339 85.29h-.677v-1.321H61.61v1.321h-.676v-3.578h.676v1.736h2.052v-1.736h.677v3.578zM54.326 82.167c.426-.355.979-.55 1.574-.55.594 0 1.159.194 1.579.55.426.355.647.816.647 1.326 0 .511-.222.972-.647 1.332-.426.355-.979.545-1.579.545-.601 0-1.148-.189-1.574-.545-.426-.36-.653-.826-.653-1.332-.001-.509.227-.97.653-1.326zm.501 2.278c.286.256.671.391 1.073.391a1.63 1.63 0 0 0 1.078-.391 1.236 1.236 0 0 0 0-1.896 1.618 1.618 0 0 0-1.078-.391c-.408 0-.781.135-1.073.391a1.243 1.243 0 0 0-.448.945c-.001.361.157.696.448.951zM52.764 85.431l-2.646-2.188a4.73 4.73 0 0 1-.455-.436v2.482h-.623V81.57l2.698 2.228c.151.125.286.261.402.4v-2.487h.624v3.72z"/></g></svg>