<svg xmlns="http://www.w3.org/2000/svg" viewBox="0 0 745.869 124.395"><g fill="#949494"><path d="M62.714.844h14.529v123.285H62.714zM0 124.377l2.418.018c30.811-.796 55.593-31.908 55.593-70.15V1.022h-9.67V37.31c0 35.195-20.98 64.335-48.34 69.379v17.688zM140.184 124.377l-2.418.018c-30.811-.796-55.592-31.908-55.592-70.15V1.022h9.67V37.31c0 35.195 20.979 64.335 48.339 69.379v17.688z"/></g><g fill="#5479b6"><path d="M219.994 77.855L209.118 24.9l-11.969 52.955h22.845zm41.158 45.946h-27.193l-6.712-23.32h-36.626l-7.068 23.32h-27.2l33.906-108.542c1.33-4.211 3.445-7.716 6.35-10.526C199.988 1.579 203.861 0 208.209 0c4.835 0 9.189 1.698 13.056 5.084 3.386 3.041 5.804 6.896 7.253 11.577l32.634 107.14zM323.386 23.89h-23.749v100.505h-26.653V23.89h-23.938V.742h74.34zM375.622 77.855L364.746 24.9l-11.969 52.955h22.845zm41.159 45.946h-27.193l-6.713-23.32h-36.626l-7.068 23.32h-27.2l33.906-108.542c1.331-4.211 3.445-7.716 6.35-10.526C355.616 1.579 359.489 0 363.837 0c4.835 0 9.189 1.698 13.056 5.084 3.386 3.041 5.804 6.896 7.253 11.577l32.635 107.14zM510.181 124.139h-30.822l-27.33-50.169c-1.213-2.334-2.21-4.443-2.994-6.314-.785-1.865-1.176-3.326-1.176-4.384 0-5.376 4.317-9.789 12.96-13.234 8.644-3.451 12.968-7.746 12.968-12.89 0-3.161-1.242-6.255-3.719-9.296-2.477-3.036-5.168-4.557-8.072-4.557h-15.23V123.8h-25.744V16.632c0-3.743 1.753-7.366 5.258-10.871 3.504-3.511 7.009-5.263 10.519-5.263h25.929c10.033 0 18.795 3.505 26.291 10.519 7.489 7.015 11.238 15.142 11.238 24.378 0 7.366-2.293 13.792-6.891 19.287-3.986 4.793-9.73 8.887-17.227 12.271l34.042 57.186zM513.554.498h26.831v123.831h-26.831z"/></g><g fill="#949494"><path d="M745.869 33.139l-24.663-.006v91.262h-37.049V33.133H659.5V4.841h86.363zM648.505 63.355c4.829 6.921 7.242 16.039 7.242 24.759 0 10.217-4.385 18.818-13.158 25.803-8.773 6.986-19.862 10.479-33.281 10.479-6.475 0-12.261-.374-17.346-1.117-5.09-.749-10.59-2.371-16.506-4.871v-27.84c6.504 2.88 8.321 5.072 13.06 6.575 4.729 1.503 9.463 2.257 14.21 2.257 4.496 0 8.529-1.04 12.099-3.119 3.57-2.079 5.358-4.865 5.358-8.357 0-5.091-4.122-8.839-12.379-11.245-15.165-4.407-20.06-7.33-22.287-8.761-2.193-1.34-4.144-2.861-5.854-4.562l-.002-.008c-4.829-6.921-7.242-16.039-7.242-24.759 0-10.217 4.385-18.818 13.158-25.803C594.351 5.8 605.44 2.307 618.859 2.307c6.475 0 12.261.374 17.346 1.117 5.09.749 10.59 2.371 16.506 4.871v27.84c-6.504-2.88-8.321-5.072-13.06-6.575-4.729-1.503-9.463-2.257-14.21-2.257-4.496 0-8.529 1.04-12.099 3.119-3.57 2.079-5.358 4.865-5.358 8.357 0 5.091 4.122 8.839 12.379 11.245 15.165 4.407 20.06 7.33 22.287 8.761 2.193 1.34 4.144 2.861 5.854 4.562"/></g></svg>