<svg xmlns="http://www.w3.org/2000/svg" xmlns:xlink="http://www.w3.org/1999/xlink" viewBox="0 0 160.209 240.065"><linearGradient id="a" gradientUnits="userSpaceOnUse" y1="112.374" x2="160.222" y2="112.374"><stop offset="0" stop-color="#251b1a"/><stop offset=".05" stop-color="#666465"/><stop offset=".95" stop-color="#666465"/><stop offset="1" stop-color="#251b1a"/></linearGradient><path d="M61.173.286v.522c0 1.01.826 1.836 1.836 1.836h34.202c1.01 0 1.836-.826 1.836-1.836V.27c0-.152.127-.274.279-.27 22.334.592 42.621 2.201 59.083 4.53a1.4 1.4 0 0 1 1.202 1.51c-1.937 23.618-3.169 59.108-3.169 98.791 0 43.657 1.491 82.238 3.771 105.52a1.401 1.401 0 0 1-.898 1.453c-21.194 8.062-48.895 12.944-79.206 12.944S22.097 219.866.903 211.804a1.401 1.401 0 0 1-.898-1.453c2.28-23.282 3.771-61.864 3.771-105.52 0-39.683-1.232-75.174-3.168-98.791A1.4 1.4 0 0 1 1.81 4.53C18.268 2.201 38.55.593 60.878.001a.286.286 0 0 1 .295.285z" fill="url(#a)"/><path d="M80.111 180.081c37.583 0 50.642-3.078 54.803-4.042.296-.068 1.267-.295 2.025-1.186.668-.785.79-1.63.82-1.945V26.085c0-1.514-1.256-2.753-2.792-2.753H25.254c-1.535 0-2.792 1.239-2.792 2.753v146.824c.03.315.152 1.16.82 1.945.759.891 1.729 1.117 2.025 1.186 4.162.963 17.221 4.041 54.804 4.041z" fill="#dcdee5"/><radialGradient id="b" cx="125.434" cy="4.172" r="6.704" gradientTransform="matrix(.5 -.866 1.7321 1 55.492 108.63)" gradientUnits="userSpaceOnUse"><stop offset="0" stop-color="#7eab4e"/><stop offset="1" stop-color="#b7d65e"/></radialGradient><path d="M116.621.679c.221 3.889 4.124 6.986 8.907 6.986 4.283 0 7.861-2.484 8.72-5.796A575.21 575.21 0 0 0 116.621.68" fill="url(#b)"/><path d="M80.111 180.081c36.875 0 49.687-3.037 53.771-3.987.29-.068 1.243-.291 1.987-1.17a3.49 3.49 0 0 0 .805-1.918V28.172c0-1.494-1.233-2.716-2.739-2.716H26.288c-1.507 0-2.739 1.222-2.739 2.716v144.834c.029.311.149 1.144.805 1.918.744.879 1.697 1.102 1.987 1.17 4.082.95 16.895 3.987 53.77 3.987z" fill="#d3d5e1"/><g fill="#e0dedf"><path d="M31.811 10.743h-1.329v.806h.283c.045 0 .095.028.095.07v7.424h.974v-8.3h-.023zM35.084 13.144c-.209-.426-.557-.485-.839-.485a.92.92 0 0 0-.736.356c-.01-.071-.04-.198-.124-.258-.08-.061-.126-.061-.234-.061l-.538.001v6.348h.97v-4.862c0-.634.167-.761.437-.761.163 0 .381.054.381.518v5.105h.953v-4.862c0-.634.166-.761.437-.761.163 0 .38.054.38.518v5.105h.954v-4.843c0-1.023-.406-1.542-1.204-1.542a.989.989 0 0 0-.837.484zM28.771 12.659c-.814 0-1.245.469-1.245 1.355v.647h.462c.163.003.264-.023.324-.082.046-.046.067-.11.067-.208v-.45c0-.428.151-.511.41-.511.231 0 .343.185.343.566v.87c-.899.337-1.641.707-1.641 1.772v1.148c0 .909.298 1.298.999 1.298.293 0 .495-.097.691-.322a.537.537 0 0 0 .085.179c.102.124.189.124.252.124h.531v-5.123c0-.862-.406-1.263-1.278-1.263zm.409 4.757c0 .689-.12.945-.445.945-.344 0-.373-.347-.373-.767l-.001-.891c0-.698.24-.886.785-1.152l.034-.016v1.881zM25.742 12.678c-.457 0-.649.12-.813.374 0 0-.048-.336-.302-.336h-.531v9.132h.911v-3.139c.183.243.375.346.793.346.582 0 1.005-.56 1.005-1.237v-3.847c0-.943-.507-1.293-1.063-1.293zm.131 4.894c0 .46-.052.725-.379.725-.352 0-.486-.299-.486-.69v-3.591c0-.506.173-.69.499-.69.327 0 .366.23.366.668v3.578z"/></g><path d="M136.738 138.581H23.613l-.065 34.425c.029.311.149 1.144.805 1.918.744.879 1.697 1.102 1.987 1.17 4.083.95 16.896 3.987 53.771 3.987s49.687-3.037 53.771-3.987c.29-.068 1.243-.291 1.987-1.17a3.49 3.49 0 0 0 .805-1.918l.064-34.425z" fill="#88887c"/><circle cx="128.111" cy="147.077" r="7.563" fill="#dad9d8"/><path d="M126.717 146.571h-2.154a.979.979 0 0 1-.976-.976v-1.936c0-.537.439-.976.976-.976h2.154c.537 0 .976.439.976.976v1.936a.979.979 0 0 1-.976.976z" fill="#88887c"/><g fill="#dad9d8"><path d="M126.491 144.917h-1.702a.29.29 0 0 1-.29-.29c0-.16.131-.29.29-.29h1.702c.16 0 .29.131.29.29a.29.29 0 0 1-.29.29z"/><path d="M125.93 143.776v1.702a.29.29 0 0 1-.29.29.29.29 0 0 1-.29-.29v-1.702c0-.16.131-.29.29-.29.16 0 .29.131.29.29z"/></g><path d="M131.659 146.571h-2.154a.979.979 0 0 1-.976-.976v-1.936c0-.537.439-.976.976-.976h2.154c.537 0 .976.439.976.976v1.936a.979.979 0 0 1-.976.976z" fill="#88887c"/><g fill="#dad9d8"><path d="M131.437 144.917h-1.71a.29.29 0 0 1-.29-.29c0-.16.131-.29.29-.29h1.71a.29.29 0 0 1 0 .58z"/><circle cx="130.582" cy="143.508" r=".371"/><circle cx="130.582" cy="145.747" r=".371"/></g><path d="M126.717 151.447h-2.154a.979.979 0 0 1-.976-.976v-1.936c0-.537.439-.976.976-.976h2.154c.537 0 .976.439.976.976v1.936a.979.979 0 0 1-.976.976z" fill="#88887c"/><g fill="#dad9d8"><path d="M126.447 149.107l-1.203 1.203a.29.29 0 0 1-.41-.41l1.203-1.203a.29.29 0 0 1 .41.41z"/><path d="M125.243 148.697l1.203 1.203a.29.29 0 0 1-.41.41l-1.203-1.203a.29.29 0 0 1 .41-.41z"/></g><path d="M131.659 151.471h-2.154a.979.979 0 0 1-.976-.976v-1.936c0-.537.439-.976.976-.976h2.154c.537 0 .976.439.976.976v1.936a.979.979 0 0 1-.976.976z" fill="#88887c"/><g fill="#dad9d8"><path d="M131.437 150.411h-1.71a.29.29 0 0 1-.29-.29c0-.16.131-.29.29-.29h1.71a.29.29 0 0 1 0 .58zM131.437 149.223h-1.71a.29.29 0 0 1-.29-.29c0-.16.131-.29.29-.29h1.71a.29.29 0 0 1 0 .58z"/></g><circle cx="128.111" cy="166.483" r="7.562" fill="#dad9d8"/><ellipse transform="rotate(-36.148 130.085 164.573)" cx="130.074" cy="164.574" rx="3.913" ry="3.228" fill="#88887c"/><ellipse transform="rotate(-36.148 129.638 163.842)" cx="129.626" cy="163.842" rx="3.913" ry="3.228" fill="#dad9d8"/><ellipse transform="rotate(-36.148 129.756 163.957)" cx="129.744" cy="163.957" rx="3.205" ry="2.532" fill="#88887c"/><path d="M127.6 164.769c0 .083.097.213.238.213s.237-.055.258-.151c.052-.373.208-.92.655-1.407.903-.985 2.264-.934 2.53-.914.114 0 .246-.098.246-.231s-.092-.24-.206-.24c-.309-.026-1.888-.081-2.948 1.076a3.064 3.064 0 0 0-.773 1.654z" fill="#dad9d8"/><path d="M126.602 166.321c.024.078.094.339.074.42-.043.18-.346.25-.453.281-.186.054-.293.141-1.047.969-.122.134-.719.793-1.469 1.781-.145.191-.368.494-.344.875.005.074.022.349.219.484.17.117.387.07.484.047.717-.167 1.161-.907 2.133-1.974.446-.49.658-.7.952-1.261.027-.052.084-.239.165-.313.148-.135.514.025.794.177" fill="#88887c"/><circle cx="32.111" cy="166.483" r="7.562" fill="#dad9d8"/><circle cx="32.111" cy="147.077" r="7.563" fill="#dad9d8"/><g fill="#88887c"><path d="M31.158 152.241v-2.184c0-.31.254-.249.564-.249h.778c.31 0 .564-.061.564.249v2.184c0 .132.09.252.217.286.899.242 1.752.311 2.154.259.575-.074.806-.218.933-.4.102-.146.125-.336.196-.706.061-.318.072-.565.078-.729.03-.789-.018-1.899-.03-2.259a.298.298 0 0 0-.051-.155c-1.312-1.976-2.766-3.445-4.186-4.551-.088-.069-.155-.133-.266-.133-.111 0-.177.064-.266.133-1.419 1.106-2.874 2.575-4.186 4.551a.295.295 0 0 0-.051.155c-.012.36-.06 1.47-.03 2.259.006.164.018.412.078.729.071.37.094.56.196.706.127.182.358.326.933.4.403.052 1.255-.017 2.154-.259a.296.296 0 0 0 .221-.286z"/><path d="M35.947 145.28v-3.364a.566.566 0 0 0-.565-.565h-.776a.566.566 0 0 0-.565.565v1.547a34.755 34.755 0 0 0-.681-.577c-.302-.249-.777-.58-1.118-.83a.215.215 0 0 0-.263 0c-.341.25-.816.581-1.118.83-1.681 1.391-3.002 2.706-4.346 4.473a.37.37 0 0 0-.073.214.379.379 0 1 0 .669.24c1.31-1.721 2.591-2.995 4.228-4.349 0 0 .519-.505.771-.505s.771.505.771.505c1.637 1.354 2.918 2.628 4.228 4.349a.379.379 0 0 0 .669-.24.366.366 0 0 0-.073-.214 24.794 24.794 0 0 0-1.758-2.079z"/></g><path d="M37.386 164.528h-10.55a.539.539 0 0 1-.537-.537v-.587c0-.295.242-.537.537-.537h10.55c.295 0 .537.242.537.537v.587a.539.539 0 0 1-.537.537z" fill="#88887c"/><path d="M31.355 164.174h-3.484a.478.478 0 0 1-.477-.477c0-.262.214-.477.477-.477h3.484c.262 0 .477.214.477.477a.478.478 0 0 1-.477.477z" fill="#dad9d8"/><path d="M31.315 171.335h-4.13a.523.523 0 0 1-.521-.521v-5.047c0-.286.234-.521.521-.521h4.13c.286 0 .521.234.521.521v5.047a.523.523 0 0 1-.521.521z" fill="#88887c"/><path d="M30.55 167.157h-2.6a.426.426 0 0 1-.424-.424c0-.233.191-.424.424-.424h2.6c.233 0 .424.191.424.424a.426.426 0 0 1-.424.424zM30.55 168.715h-2.6a.426.426 0 0 1-.424-.424c0-.233.191-.424.424-.424h2.6c.233 0 .424.191.424.424a.426.426 0 0 1-.424.424zM30.55 170.273h-2.6a.426.426 0 0 1-.424-.424c0-.233.191-.424.424-.424h2.6c.233 0 .424.191.424.424a.426.426 0 0 1-.424.424z" fill="#dad9d8"/><path d="M33.757 167.747h-.912c-.284 0-.514.2-.514.447a.4.4 0 0 0 .067.221l2.115 2.109a.61.61 0 0 0 .863 0l2.115-2.109a.4.4 0 0 0 .067-.221c0-.247-.23-.447-.514-.447h-.912v-2.091a.41.41 0 0 0-.409-.409h-1.557a.41.41 0 0 0-.409.409v2.091z" fill="#88887c"/><path d="M41.613 178.148V142.29a2.783 2.783 0 0 1 2.775-2.775h74.35v38.633" fill="none" stroke="#dad9d8" stroke-width=".5" stroke-miterlimit="10"/><path fill="#dad9d8" d="M85.706 139.515h1.505l-.753 1.303-.752 1.303-.753-1.303-.752-1.303zM85.706 177.881h1.505l-.753-1.304-.752-1.303-.753 1.303-.752 1.304z"/><circle cx="43.772" cy="141.673" r="1.914" fill="none" stroke="#dad9d8" stroke-width=".5" stroke-miterlimit="10"/><path d="M44.66 141.023a.172.172 0 0 0 .048-.138c-.014-.093-.106-.156-.207-.141a.196.196 0 0 0-.1.045l-.771.855-.682-.574a.186.186 0 0 0-.105-.031c-.102 0-.184.076-.184.17 0 .051.024.097.063.129l.941.792.997-1.107z" fill="#dad9d8"/><circle cx="43.42" cy="174.556" r=".904" fill="#dad9d8"/><circle cx="117.091" cy="174.556" r=".904" fill="#dad9d8"/><path d="M116.201 142.611l-.651.651a.272.272 0 0 1-.384 0l-.026-.026a.272.272 0 0 1 0-.384l.651-.651a.272.272 0 0 1 .384 0l.026.026a.272.272 0 0 1 0 .384zM115.143 141.228l-.889.238a.271.271 0 0 1-.332-.192l-.01-.036a.271.271 0 0 1 .192-.332l.889-.238a.271.271 0 0 1 .332.192l.01.036a.272.272 0 0 1-.192.332z" fill="#dad9d8"/><path d="M115.143 142.849l.651-.651a.272.272 0 0 1 .384 0l.026.026a.272.272 0 0 1 0 .384l-.651.651a.272.272 0 0 1-.384 0l-.026-.026a.273.273 0 0 1 0-.384zM117.156 143.278l-.238.889a.271.271 0 0 0 .192.332l.036.01a.271.271 0 0 0 .332-.192l.238-.889a.271.271 0 0 0-.192-.332l-.036-.01a.271.271 0 0 0-.332.192z" fill="#dad9d8"/><path d="M118.738 142.397a2.71 2.71 0 0 1-.181.007c-1.338 0-2.424-1.075-2.424-2.4 0-.166.017-.327.049-.484" fill="none" stroke="#dad9d8" stroke-width=".5" stroke-miterlimit="10"/><g fill="#dad9d8"><path d="M44.009 172.348a.37.37 0 0 1-.207-.147.467.467 0 0 1-.064-.247c-.226.084-.508.207-.659.17a.614.614 0 0 1-.449-.741c.058-.239.227-.362.516-.39.322-.03.717-.069.845-.131l.023-.098c.083-.345-.043-.587-.296-.647a.29.29 0 0 0-.255.056c-.07.056-.13.155-.208.285-.042.072-.095.096-.167.078-.093-.022-.191-.149-.162-.266.016-.068.093-.111.207-.155.166-.068.491-.18.783-.171a.693.693 0 0 1 .376.229c.136.188.173.372.112.624l-.227.939c-.054.224.012.312.1.333a.402.402 0 0 0 .188-.011l.015.148-.471.142zm-.059-1.315c-.12.027-.378.073-.501.094-.206.038-.339.104-.383.284a.364.364 0 0 0 .26.459.661.661 0 0 0 .441-.079c.055-.228.129-.53.183-.758zM46.617 171.299a.59.59 0 0 1 .203.101c.416.337.471.983.096 1.445-.426.524-1.243.608-1.752.194a1.83 1.83 0 0 1-.483-.625l.253-.311 1.521-1.872c.116-.121.352.195.352.195l-.612.753.422.12zm-1.337 1.002a.428.428 0 0 0-.091.152.523.523 0 0 0 .194.506c.322.262.751.14 1.107-.299.36-.443.304-.921-.019-1.183a.977.977 0 0 0-.374-.182l-.817 1.006zM47.228 175.561c-.348-.107-.669-.347-.771-.63-.217-.598.141-1.125.644-1.309.372-.135.74-.087 1.095.141.283.18.461.435.527.619.076.212.066.391.031.483-.027.085-.058.106-.108.124-.113.042-.255-.04-.273-.092-.009-.023-.006-.046.015-.106a.738.738 0 0 0 .025-.546c-.113-.312-.475-.489-.964-.312-.656.232-.711.758-.611 1.03.071.198.181.34.466.48l-.076.118z"/></g><g fill="#dad9d8"><path d="M114.104 175.607l-.136-.034c.102-.547.084-.583-.279-.674l-1.863-.469c-.248-.063-.266-.031-.339.178l-.084.231-.121-.03c.027-.334.03-.674-.015-.948l2.523.635c.369.093.396.069.566-.466l.136.034-.388 1.543zM115.581 171.738c.12.201.249.438.35.602l-1.289 1.38-.088-.082a14.79 14.79 0 0 0-.062-1.182c-.056-.483-.144-.977-.462-1.274-.304-.283-.63-.286-.879-.019-.236.253-.185.595-.131.823l-.155.012-.102-.485a.908.908 0 0 1 .248-.706c.325-.349.819-.4 1.215-.031.312.29.425.608.456 1.288.018.312.026.751.029 1.048.021-.021.622-.666.653-.699.185-.197.217-.27.103-.609l.114-.066zM115.378 169.647l.096-.382a.879.879 0 0 1 .487-.512c.421-.175.808-.027.954.324a.542.542 0 0 1-.001.402 2.136 2.136 0 0 1-.224.386c.468-.086.84.09.98.428.313.754-.441 1.441-.77 1.578-.217.091-.455.08-.548.038-.081-.037-.112-.073-.133-.124-.026-.075.005-.17.033-.22.025-.043.065-.064.122-.045.171.059.412.116.675.006.333-.138.465-.485.278-.935-.181-.423-.561-.461-.856-.338a1.318 1.318 0 0 0-.289.18l-.09-.125c.355-.305.612-.629.469-.971-.113-.272-.354-.356-.623-.245-.259.107-.379.38-.426.605l-.134-.05z"/></g><path d="M61.173.313V.5c0 .629.826.362 1.836.362h34.202c1.01 0 1.836.08 1.836-.549V.27v.537c0 1.01-.826 1.836-1.836 1.836H63.01A1.841 1.841 0 0 1 61.174.807V.313z" fill="#3a383a"/><g fill="#e0dedf"><path d="M119.339 14.495h.47v4.507h-.47v-4.507zm1.427 1.777c0-.319-.042-.565-.124-.738-.083-.174-.2-.261-.352-.261-.154 0-.272.077-.356.23-.083.153-.125.369-.125.647l-.048-.869c.073-.272.17-.482.289-.629.119-.148.25-.222.395-.222.167 0 .31.072.428.215.118.144.208.353.271.627.062.275.093.606.093.995v2.735h-.47v-2.73zm1.427 0c0-.319-.043-.565-.131-.738-.088-.174-.21-.261-.368-.261-.146 0-.259.084-.338.252-.08.168-.12.405-.12.712l-.095-.868c.075-.298.175-.529.298-.693.124-.163.259-.245.408-.245.172 0 .319.072.441.215.122.144.215.353.278.627s.096.606.096.995v2.735h-.47v-2.731zM123.879 18.903a1.11 1.11 0 0 1-.262-.444 2.918 2.918 0 0 1-.135-.7v-.003h.384v.003c.014.19.054.337.121.442.066.105.153.158.26.158.123 0 .218-.078.285-.232.067-.155.101-.374.101-.656v-.434c0-.279-.034-.497-.101-.652-.067-.155-.162-.232-.285-.232-.066 0-.13.036-.192.106a.929.929 0 0 0-.162.298h-.35v-2.721h1.395v.689h-1.011v1.162a.602.602 0 0 1 .16-.171.318.318 0 0 1 .181-.06c.158 0 .293.062.406.185.112.123.198.303.256.54.058.237.087.522.087.856v.434c0 .334-.03.62-.09.856s-.148.417-.264.542a.545.545 0 0 1-.416.187.52.52 0 0 1-.368-.153zM126.402 19.003h-.384v-4.377l-.39.451v-.75l.39-.49h.384v5.166zM127.577 18.903a1.11 1.11 0 0 1-.262-.444 2.918 2.918 0 0 1-.135-.7v-.003h.384v.003c.014.19.054.337.121.442.066.105.153.158.26.158.123 0 .218-.078.285-.232.067-.155.101-.374.101-.656v-.434c0-.279-.034-.497-.101-.652-.067-.155-.162-.232-.285-.232-.066 0-.13.036-.192.106a.929.929 0 0 0-.162.298h-.35v-2.721h1.395v.689h-1.011v1.162a.602.602 0 0 1 .16-.171.318.318 0 0 1 .181-.06c.158 0 .293.062.406.185.112.123.198.303.256.54.058.237.087.522.087.856v.434c0 .334-.03.62-.09.856s-.148.417-.264.542a.545.545 0 0 1-.416.187.52.52 0 0 1-.368-.153z"/></g><linearGradient id="c" gradientUnits="userSpaceOnUse" x1="70.069" y1="204.665" x2="90.153" y2="204.665"><stop offset="0" stop-color="#a8a3ab"/><stop offset=".19" stop-color="#a39ea6"/><stop offset=".417" stop-color="#959098"/><stop offset=".661" stop-color="#7d7a80"/><stop offset=".917" stop-color="#5c5a5e"/><stop offset="1" stop-color="#504e52"/></linearGradient><path d="M80.59 219.831h-.958c-5.259 0-9.563-4.303-9.563-9.563V199.06c0-5.259 4.303-9.563 9.563-9.563h.958c5.259 0 9.563 4.303 9.563 9.563v11.208c0 5.26-4.303 9.563-9.563 9.563z" fill="url(#c)"/><radialGradient id="d" cx="80.111" cy="198.081" r="5.587" gradientUnits="userSpaceOnUse"><stop offset="0" stop-color="#9a949c"/><stop offset="1" stop-color="#c7c6cc"/></radialGradient><ellipse cx="80.111" cy="198.081" rx="6.25" ry="4.833" fill="url(#d)"/><radialGradient id="e" cx="80.111" cy="212.081" r="5.587" gradientUnits="userSpaceOnUse"><stop offset="0" stop-color="#9a949c"/><stop offset="1" stop-color="#c7c6cc"/></radialGradient><ellipse cx="80.111" cy="212.081" rx="6.25" ry="4.833" fill="url(#e)"/><radialGradient id="f" cx="80.111" cy="198.081" r="2.583" gradientTransform="matrix(1 0 0 4 0 -594.244)" gradientUnits="userSpaceOnUse"><stop offset="0" stop-color="#a3a2a7"/><stop offset="1" stop-color="#bdb5bf"/></radialGradient><circle cx="80.111" cy="198.081" r="2.583" fill="url(#f)"/><radialGradient id="g" cx="80.111" cy="212.081" r="2.583" gradientTransform="matrix(1 0 0 4 0 -636.244)" gradientUnits="userSpaceOnUse"><stop offset="0" stop-color="#a3a2a7"/><stop offset="1" stop-color="#bdb5bf"/></radialGradient><circle cx="80.111" cy="212.081" r="2.583" fill="url(#g)"/><linearGradient id="h" gradientUnits="userSpaceOnUse" x1="106.51" y1="211.248" x2="106.51" y2="195.758"><stop offset="0" stop-color="#a8a3ab"/><stop offset="1" stop-color="#504e52"/></linearGradient><ellipse cx="106.51" cy="203.503" rx="9.399" ry="7.745" fill="url(#h)"/><radialGradient id="i" cx="106.51" cy="203.503" r="7.203" gradientUnits="userSpaceOnUse"><stop offset="0" stop-color="#c7c6cc"/><stop offset=".33" stop-color="#c4c3c9"/><stop offset=".581" stop-color="#bcb9c0"/><stop offset=".805" stop-color="#ada9b0"/><stop offset="1" stop-color="#9a949c"/></radialGradient><ellipse cx="106.509" cy="203.503" rx="7.982" ry="6.328" fill="url(#i)" stroke="#848484" stroke-width=".1" stroke-miterlimit="10"/><g fill="#170b06"><path d="M108.294 200.391l-2.666 1.017a.344.344 0 0 1-.442-.198.344.344 0 0 1 .198-.442l2.666-1.017a.344.344 0 0 1 .442.198.344.344 0 0 1-.198.442zM109.228 202.296l-2.666 1.017a.344.344 0 0 1-.442-.198.344.344 0 0 1 .198-.442l2.666-1.017a.344.344 0 0 1 .442.198.344.344 0 0 1-.198.442zM110.375 204.431l-2.666 1.017a.344.344 0 0 1-.442-.198.344.344 0 0 1 .198-.442l2.666-1.017a.344.344 0 0 1 .442.198.344.344 0 0 1-.198.442zM105.684 204.015l-.503-.987a.385.385 0 0 0-.518-.168l-.987.503a.385.385 0 0 0-.168.518l.503.987a.385.385 0 0 0 .518.168l.987-.503a.387.387 0 0 0 .168-.518zm-.72.167l-.395.201a.155.155 0 0 1-.207-.067l-.201-.395a.155.155 0 0 1 .067-.207l.395-.201a.155.155 0 0 1 .207.067l.201.395a.155.155 0 0 1-.067.207zM106.813 206.215l-.503-.987a.385.385 0 0 0-.518-.168l-.987.503a.385.385 0 0 0-.168.518l.503.987a.385.385 0 0 0 .518.168l.987-.503a.385.385 0 0 0 .168-.518zm-.72.167l-.395.201a.155.155 0 0 1-.207-.067l-.201-.395a.155.155 0 0 1 .067-.207l.395-.201a.155.155 0 0 1 .207.067l.201.395a.154.154 0 0 1-.067.207zM103.438 201.661l-.693-.21a.162.162 0 0 0-.203.106l-.111.354a.162.162 0 0 0 .106.203l1.18.362c.1.031.208-.025.239-.125l.547-1.748a.192.192 0 0 0-.125-.239l-.305-.095a.192.192 0 0 0-.239.125l-.396 1.267z"/></g><linearGradient id="j" gradientUnits="userSpaceOnUse" x1="135.072" y1="206.811" x2="135.072" y2="191.321"><stop offset="0" stop-color="#a8a3ab"/><stop offset="1" stop-color="#504e52"/></linearGradient><ellipse cx="135.072" cy="199.066" rx="9.399" ry="7.745" fill="url(#j)"/><radialGradient id="k" cx="135.072" cy="199.066" r="7.203" gradientUnits="userSpaceOnUse"><stop offset="0" stop-color="#c7c6cc"/><stop offset=".33" stop-color="#c4c3c9"/><stop offset=".581" stop-color="#bcb9c0"/><stop offset=".805" stop-color="#ada9b0"/><stop offset="1" stop-color="#9a949c"/></radialGradient><ellipse cx="135.072" cy="199.066" rx="7.982" ry="6.328" fill="url(#k)" stroke="#848484" stroke-width=".1" stroke-miterlimit="10"/><g><path d="M131.643 197.527c-.456.873-.519 1.362-.54 1.695-.024.374-.159.997.457 2.263.134.275.356.504.581.575.324.102.59-.123.761-.277.736-.662 1.04-1.247 1.39-2.541.114-.42.186-.958-.016-1.201a.63.63 0 0 0-.547-.215c-.502.069-.784.725-.838 1.239-.181 1.73 1.685 2.605 1.827 2.694" fill="none" stroke="#170b06" stroke-width=".596" stroke-miterlimit="10"/><path d="M136.457 200.691c-.084.136-.813 1.069-1.022.965-.158-.078.153-1.319.324-1.58l2.632-4.031.68.411-2.614 4.235z" fill="#170b06"/></g><linearGradient id="l" gradientUnits="userSpaceOnUse" x1="160.953" y1="211.248" x2="160.953" y2="195.758" gradientTransform="matrix(-1 0 0 1 214.54 0)"><stop offset="0" stop-color="#a8a3ab"/><stop offset="1" stop-color="#504e52"/></linearGradient><ellipse cx="53.587" cy="203.503" rx="9.399" ry="7.745" fill="url(#l)"/><radialGradient id="m" cx="160.953" cy="203.503" r="7.203" gradientTransform="matrix(-1 0 0 1 214.54 0)" gradientUnits="userSpaceOnUse"><stop offset="0" stop-color="#c7c6cc"/><stop offset=".33" stop-color="#c4c3c9"/><stop offset=".581" stop-color="#bcb9c0"/><stop offset=".805" stop-color="#ada9b0"/><stop offset="1" stop-color="#9a949c"/></radialGradient><ellipse cx="53.587" cy="203.503" rx="7.982" ry="6.328" fill="url(#m)" stroke="#848484" stroke-width=".1" stroke-miterlimit="10"/><linearGradient id="n" gradientUnits="userSpaceOnUse" x1="189.516" y1="206.811" x2="189.516" y2="191.321" gradientTransform="matrix(-1 0 0 1 214.54 0)"><stop offset="0" stop-color="#a8a3ab"/><stop offset="1" stop-color="#504e52"/></linearGradient><ellipse cx="25.025" cy="199.066" rx="9.399" ry="7.745" fill="url(#n)"/><radialGradient id="o" cx="189.516" cy="199.066" r="7.203" gradientTransform="matrix(-1 0 0 1 214.54 0)" gradientUnits="userSpaceOnUse"><stop offset="0" stop-color="#c7c6cc"/><stop offset=".33" stop-color="#c4c3c9"/><stop offset=".581" stop-color="#bcb9c0"/><stop offset=".805" stop-color="#ada9b0"/><stop offset="1" stop-color="#9a949c"/></radialGradient><ellipse cx="25.025" cy="199.066" rx="7.982" ry="6.328" fill="url(#o)" stroke="#848484" stroke-width=".1" stroke-miterlimit="10"/><g fill="#170b06"><path d="M24.215 199.514a2.43 2.43 0 1 0 0 4.86 2.43 2.43 0 0 0 0-4.86zm.151 2.576l-1.551.017c-.112.001-.204-.07-.205-.156l-.002-.36c-.001-.087.091-.158.203-.159l1.072-.013-.008-1.29c-.001-.102.107-.186.238-.187l.239-.003c.132-.001.24.082.241.184l.011 1.78c.002.102-.106.186-.238.187zM26.574 194.607l-5.839 3.371a.295.295 0 0 1-.403-.108l-.172-.298a.295.295 0 0 1 .108-.403l5.839-3.371a.295.295 0 0 1 .403.108l.172.298a.295.295 0 0 1-.108.403zM22.494 199.193l-.627.362a.252.252 0 0 1-.345-.093l-.336-.581a.252.252 0 0 1 .093-.345l.627-.362a.252.252 0 0 1 .345.093l.336.581a.253.253 0 0 1-.093.345zM24.257 198.175l-.627.362a.252.252 0 0 1-.345-.093l-.336-.581a.252.252 0 0 1 .093-.345l.627-.362a.252.252 0 0 1 .345.093l.336.581a.254.254 0 0 1-.093.345zM26.019 197.157l-.627.362a.252.252 0 0 1-.345-.093l-.336-.581a.252.252 0 0 1 .093-.345l.627-.362a.252.252 0 0 1 .345.093l.336.581c.07.12.028.276-.093.345zM27.782 196.14l-.627.362a.252.252 0 0 1-.345-.093l-.336-.581a.252.252 0 0 1 .093-.345l.627-.362a.252.252 0 0 1 .345.093l.336.581a.253.253 0 0 1-.093.345zM26.901 198.899l-.627.362a.252.252 0 0 1-.345-.093l-.336-.581a.252.252 0 0 1 .093-.345l.627-.362a.252.252 0 0 1 .345.093l.336.581a.254.254 0 0 1-.093.345zM28.663 197.881l-.627.362a.252.252 0 0 1-.345-.093l-.336-.581a.252.252 0 0 1 .093-.345l.627-.362a.252.252 0 0 1 .345.093l.336.581a.253.253 0 0 1-.093.345zM28.04 200.684l-.627.362a.252.252 0 0 1-.345-.093l-.336-.581a.252.252 0 0 1 .093-.345l.627-.362a.252.252 0 0 1 .345.093l.336.581a.253.253 0 0 1-.093.345zM29.803 199.666l-.627.362a.252.252 0 0 1-.345-.093l-.336-.581a.252.252 0 0 1 .093-.345l.627-.362a.252.252 0 0 1 .345.093l.336.581a.254.254 0 0 1-.093.345z"/></g><g fill="#170b06"><path d="M52.815 201.359c-.782-1.079-1.173-1.618-1.215-1.711-.02-.045-.076-.179-.188-.205-.095-.023-.186.043-.222.068-.101.072-.525.435-.582 1.198-.04.545.132.969.291 1.334a19.782 19.782 0 0 0 1.591 2.96c.661 1.005 1.035 1.439 1.42 1.642.314.166 1.078.412 1.198.411.006 0 .034-.001.066.011.079.029.116.109.129.135.066.135.168.249.251.374.176.263.458.42.702.444.147.015.184-.026.193-.039.049-.067-.022-.191-.032-.209-.057-.1-.131-.129-.348-.262-.153-.093-.229-.14-.251-.167-.147-.187-.098-.467-.09-.509.011-.063.027-.106.032-.122.182-.549-.938-1.901-1.037-2.254-.004-.013-.009-.035-.029-.052-.112-.09-.406.247-.602.174-.127-.047-.159-.245-.178-.344-.177-.951-.723-1.716-.885-1.912-.155-.187-.341-.411-.517-.445-.021-.004-.089-.014-.106-.058-.019-.048.028-.128.092-.155.065-.027.097.024.179.01.092-.016.175-.101.184-.184.006-.062-.032-.114-.046-.133zM51.658 199.21l1.604 2.29c.03.017.08.039.135.029.147-.027.214-.259.227-.31.082-.327-.215-.657-.694-1.309-.021-.029-.609-.851-.697-.897-.181-.096-.393.055-.575.197zM56.483 206.543l-.053.029a.174.174 0 0 1-.235-.068l-1.296-2.36a.174.174 0 0 1 .068-.235l.053-.029a.174.174 0 0 1 .235.068l1.296 2.36a.173.173 0 0 1-.068.235z"/></g><g><path d="M49.628 62.805h3.951c.463 0 .817.494.747 1.041 0 0-1.109 19.746-1.164 20.618-.245 3.929-2.726 4.474-3.594 4.474-.868 0-3.349-.546-3.594-4.474-.054-.872-1.164-20.618-1.164-20.618-.07-.547.284-1.041.747-1.041h3.951" fill="#232322"/><path d="M45.556 62.559a.633.633 0 0 1-.632-.633V-90.775c0-.682.555-1.237 1.237-1.237h6.817c.682 0 1.237.555 1.237 1.237V61.926a.634.634 0 0 1-.632.633h-8.027z" fill="#919191"/><path d="M52.977-91.766c.546 0 .991.445.991.991V61.926a.387.387 0 0 1-.387.387h-8.025a.387.387 0 0 1-.387-.387V-90.775c0-.546.445-.991.991-.991h6.817m0-.492H46.16c-.819 0-1.483.664-1.483 1.483V61.926c0 .485.393.878.878.878h8.025a.878.878 0 0 0 .878-.878V-90.775a1.48 1.48 0 0 0-1.481-1.483z" fill="#8a8a8a"/><g fill="#353434"><path d="M49.569 88.938c-.574-.212-.958-.559-1.111-1.07l.495-.592-1.132-24.458-2.263-.014c-.463 0-.817.494-.747 1.041l3.009 23.45c.111.865.881 1.643 1.749 1.643zM51.318 87.296l3.009-23.45c.07-.547-.284-1.041-.747-1.041l-2.263.014-1.132 24.458.495.592c-.153.511-.537.858-1.111 1.07.868-.001 1.638-.779 1.749-1.643z"/></g><path d="M48.302 62.75l.055-154.303c0-.358.292-.65.651-.65h1.123c.359 0 .651.292.651.65V62.75h-2.48z" fill="#535353"/><path d="M50.13-92.149c.328 0 .596.267.596.596V62.695h-2.314V-91.553c0-.328.267-.596.596-.596h1.122m0-.109h-1.123a.705.705 0 0 0-.705.705V62.805h2.533V-91.553a.705.705 0 0 0-.705-.705z" fill="#363636"/><path d="M50.126 87.276l1.132-24.458H47.88l1.132 24.458-.495.592s.446.451.993.512v.012c.02 0 .039-.005.059-.006.02.001.039.006.059.006v-.012c.548-.061.993-.512.993-.512l-.495-.592z" fill="#040101"/><path d="M56.785-101.894c-.405-1.473-.648-3.371-.648-5.443 0-2.075.241-4.061.647-5.535 0-.999-.81-1.81-1.81-1.81h-8.721c-.815 0-1.475.66-1.475 1.475V-93.159a.9.9 0 0 0 .9.9h7.686c.66 0 1.195-.535 1.195-1.195v-6.453a1.47 1.47 0 0 1 1.471-1.471h.235a.517.517 0 0 0 .517-.517" fill="#454746"/><path d="M49.056-111.813a1.232 1.232 0 0 0-1.231-1.245h-1.077a1.23 1.23 0 0 0-1.231 1.223v18.213c0 .08.152.189.189.308a.389.389 0 0 1-.034.266.296.296 0 0 0 .254.451l2.219-.017a.203.203 0 0 0 .164-.321l-.115-.161a.551.551 0 0 1 .046-.696l.436-.468a.73.73 0 0 0 .196-.49l.184-17.063zm-2.19 16.941a.486.486 0 1 1-.972 0v-16.58a.486.486 0 1 1 .972 0v16.58z" fill="#5c5d5f"/><path d="M48.189-112.577v-.416h-1.461a.833.833 0 0 0-.833.833v.708a.486.486 0 1 1 .972 0v16.58a.486.486 0 1 1-.972 0v.321c0 .187.149.34.336.346l.189.005a.908.908 0 0 0 .934-.909l-.039-16.593a.874.874 0 0 1 .874-.875z" fill="#a4a6a5"/><path d="M46.866-94.872a.486.486 0 1 1-.972 0v-16.58a.486.486 0 1 1 .972 0v16.58z" fill="#c6ccc9"/><path d="M53.147-105.024a.89.89 0 0 1-.888-.888v-1.495a.89.89 0 0 1 .888-.888.89.89 0 0 1 .888.888v1.495c0 .488-.4.888-.888.888z" fill="#252525"/></g><ellipse cx="58.864" cy="205.018" rx="1.182" ry="1.156" fill="#434546"/><ellipse cx="100.778" cy="205.018" rx="1.182" ry="1.156" fill="#434546"/><path fill="none" stroke="#434546" stroke-width=".5" stroke-miterlimit="10" d="M72.18 205.018v-19.386M80.111 198.081v14M71.903 205.018h8.24"/><ellipse cx="80.111" cy="198.081" rx="1.182" ry="1.156" fill="#434546"/><ellipse cx="80.111" cy="212.081" rx="1.182" ry="1.156" fill="#434546"/><ellipse cx="29.195" cy="202.179" rx="1.182" ry="1.156" fill="#434546"/><ellipse cx="139.465" cy="199.806" rx="1.182" ry="1.156" fill="#434546"/><path fill="none" stroke="#434546" stroke-width=".5" stroke-miterlimit="10" d="M49.569 88.938h12.587M52.569 53.081h9.587"/><g><path d="M144.1 42.992H64.187c-.998 0-1.807.809-1.807 1.807v16.563c0 .998.809 1.807 1.807 1.807H144.1c.998 0 1.807-.809 1.807-1.807V44.8c0-.998-.809-1.808-1.807-1.808" fill="#f4f4f3"/><path d="M64.187 42.993v.712H144.1a1.097 1.097 0 0 1 1.095 1.095v16.563a1.097 1.097 0 0 1-1.095 1.095H64.187a1.097 1.097 0 0 1-1.095-1.095V44.8a1.097 1.097 0 0 1 1.095-1.095V42.28a2.519 2.519 0 0 0-2.519 2.519v16.563a2.519 2.519 0 0 0 2.519 2.519H144.1a2.519 2.519 0 0 0 2.519-2.519V44.8a2.519 2.519 0 0 0-2.519-2.519H64.187v.712z" fill="#34475c"/><path fill="#34475c" d="M88.353 55.878h3.538v.804h-4.528v-7.465h.99zM97.244 53.232h-3.236v2.646h3.759v.804h-4.743v-7.465h4.692v.81h-3.708v2.4h3.236zM103.11 53.386h-3.133v3.296h-.985v-7.465h4.625v.81h-3.64v2.553h3.133zM110.058 50.027h-2.4v6.655h-.98v-6.655h-2.394v-.81h5.774zM115.775 53.355c-.844-.243-1.459-.54-1.846-.892a1.72 1.72 0 0 1-.574-1.313c0-.588.234-1.074.702-1.457.472-.386 1.084-.579 1.836-.579.513 0 .969.099 1.369.297.403.198.714.472.933.82.222.349.333.729.333 1.144h-.989c0-.452-.144-.805-.431-1.062-.287-.26-.692-.39-1.215-.39-.485 0-.865.107-1.138.323-.27.212-.405.508-.405.887 0 .304.128.563.385.774.26.208.699.4 1.317.574.623.174 1.108.367 1.457.579.352.208.612.453.779.733.171.28.256.61.256.99 0 .605-.236 1.09-.708 1.456-.472.362-1.103.543-1.892.543-.513 0-.991-.097-1.436-.292-.445-.198-.788-.468-1.031-.81a1.983 1.983 0 0 1-.359-1.164h.989c0 .451.166.808.498 1.071.335.26.781.39 1.338.39.52 0 .918-.106 1.195-.318.277-.212.415-.501.415-.867s-.128-.648-.384-.846c-.256-.198-.721-.396-1.394-.591zM124.968 50.027h-2.399v6.655h-.979v-6.655h-2.395v-.81h5.773zM126.158 49.217h.984v7.465h-.984zM134.428 54.314c-.092.79-.384 1.4-.876 1.831-.489.427-1.14.641-1.954.641-.882 0-1.59-.316-2.123-.948-.53-.633-.794-1.479-.794-2.539v-.719c0-.694.123-1.304.369-1.831.25-.526.602-.93 1.056-1.21.455-.284.981-.425 1.579-.425.793 0 1.429.222 1.908.667.479.441.757 1.053.835 1.835h-.989c-.085-.595-.272-1.025-.559-1.292-.284-.267-.682-.4-1.195-.4-.629 0-1.123.232-1.482.697-.355.465-.533 1.126-.533 1.984v.723c0 .81.169 1.454.508 1.933.338.479.812.718 1.42.718.547 0 .965-.123 1.256-.369.294-.25.489-.682.584-1.297h.99zM137.664 53.211l-.913.949v2.522h-.984v-7.465h.984v3.692l3.318-3.692h1.189l-2.938 3.297 3.169 4.168h-1.179zM72.317 44.354a6.333 6.333 0 1 0 0 12.666 6.333 6.333 0 1 0 0-12.666zm-1.954 3.44h1.213v4.496h2.688v1.018h-3.901v-5.514z"/><path fill="#34475c" d="M71.403 56.1h1.828v6.007h-1.828z"/></g><g><path d="M99.279 78.778H63.976a1.82 1.82 0 0 0-1.82 1.82v16.681a1.82 1.82 0 0 0 1.82 1.82h35.303c1.006 0 1.82-.814 1.82-1.82V80.598a1.82 1.82 0 0 0-1.82-1.82" fill="#f4f4f3"/><path d="M63.976 78.778v.488h35.303a1.333 1.333 0 0 1 1.332 1.332v16.681a1.333 1.333 0 0 1-1.332 1.332H63.976a1.333 1.333 0 0 1-1.332-1.332V80.598a1.334 1.334 0 0 1 1.332-1.332v-.976a2.308 2.308 0 0 0-2.308 2.308v16.681a2.308 2.308 0 0 0 2.308 2.308h35.303a2.308 2.308 0 0 0 2.308-2.308V80.598a2.309 2.309 0 0 0-2.308-2.308H63.976v.488z" fill="#34475c"/><path d="M89.858 89.563h-1.754v3.021h-.989v-7.466h2.472c.841 0 1.487.191 1.938.574.454.383.682.94.682 1.671a2 2 0 0 1-.38 1.215c-.249.345-.598.604-1.046.774l1.754 3.169v.062h-1.057l-1.62-3.02zm-1.754-.804h1.513c.489 0 .877-.126 1.164-.379.291-.253.437-.591.437-1.016 0-.461-.139-.815-.416-1.061-.273-.246-.67-.371-1.189-.375h-1.508v2.831zM96.452 92.584h-.953v-6.322l-1.913.702v-.862l2.717-1.02h.149zM71.348 87.751h.814c.331 0 .512.143.512.468 0 .342-.181.486-.512.486h-.814v-.954zm-.742 2.805h.742v-1.322h.744c.374 0 .512.157.563.512.038.27.028.597.118.81h.742c-.132-.189-.127-.586-.143-.801-.023-.341-.126-.696-.49-.792 0 0 .534-.139.534-.858 0-.512-.384-.932-.989-.932h-1.823l.002 3.383z" fill="#34475c"/><path d="M76.973 85.662c1.593 0 2.889 1.438 2.889 3.205 0 1.771-1.296 3.211-2.889 3.211h-9.845c-1.581-.014-2.867-1.455-2.867-3.211 0-1.753 1.286-3.191 2.861-3.205h9.851m0-.687h-9.851c-1.96.017-3.548 1.75-3.548 3.892 0 2.143 1.588 3.881 3.548 3.898h9.851c1.975 0 3.576-1.746 3.576-3.898s-1.601-3.892-3.576-3.892z" fill="#34475c"/></g><ellipse cx="49.569" cy="88.87" rx="1.182" ry="1.156" fill="#434546"/><ellipse cx="52.569" cy="53.081" rx="1.182" ry="1.156" fill="#434546"/><ellipse cx="125.017" cy="3.557" rx="1.182" ry="1.156" fill="#434546"/><path fill="none" stroke="#434546" stroke-width=".5" stroke-miterlimit="10" d="M125.017 11.671V3.658"/><g><path d="M148.007 11.602H91.611a1.813 1.813 0 0 0-1.813 1.813v16.62c0 1.001.812 1.813 1.813 1.813h56.396a1.813 1.813 0 0 0 1.813-1.813v-16.62a1.813 1.813 0 0 0-1.813-1.813" fill="#f4f4f3"/><path d="M91.611 11.602v.605h56.396a1.21 1.21 0 0 1 1.208 1.209v16.62a1.21 1.21 0 0 1-1.208 1.209H91.611a1.211 1.211 0 0 1-1.209-1.209v-16.62a1.211 1.211 0 0 1 1.209-1.209v-1.21a2.417 2.417 0 0 0-2.418 2.418v16.62a2.417 2.417 0 0 0 2.418 2.418h56.396a2.419 2.419 0 0 0 2.418-2.418v-16.62a2.418 2.418 0 0 0-2.418-2.418H91.611v.605z" fill="#34475c"/><path d="M106.837 20.163h.691v-2.921h1.232V16.7h-3.155v.543h1.232v2.92zm-4.189-1.91v-1.01h1.193c.363 0 .589.14.589.5 0 .388-.208.511-.589.511h-1.193zm-.689 1.91h.689v-1.368h1.174c.506 0 .571.349.571.843 0 .253.033.428.084.524h.746c-.135-.19-.139-.576-.139-.743 0-.49-.086-.849-.478-.935v-.01c.309-.102.542-.383.542-.835 0-.538-.271-.939-1.108-.939h-2.08l-.001 3.463zm-4.27 0h.745l.34-.858h1.546l.345.858h.771L99.973 16.7h-.819l-1.465 3.463zm1.293-1.401l.57-1.462.562 1.462h-1.132zm-3.236 1.401h.689v-2.921h1.234V16.7h-3.157v.543h1.234v2.92zm-4.713-2.489c0 1.421 2.421.673 2.421 1.532 0 .381-.391.512-.81.512-.567 0-.924-.219-.943-.676h-.745c.01.729.483 1.22 1.667 1.22.699 0 1.577-.233 1.577-1.127 0-1.48-2.448-.699-2.448-1.513 0-.325.304-.475.764-.475.575 0 .806.291.83.558h.746c-.089-1.006-1.101-1.102-1.608-1.102-.802-.001-1.451.299-1.451 1.071M106.91 21.88H92.792c-1.021 0-1.848.852-1.848 1.902s.828 1.902 1.848 1.902h14.119c1.021 0 1.848-.851 1.848-1.902s-.828-1.902-1.849-1.902zM117.015 21.999c-.844-.243-1.459-.541-1.846-.893a1.72 1.72 0 0 1-.574-1.313c0-.588.234-1.073.702-1.456.472-.386 1.083-.58 1.836-.58.513 0 .969.099 1.369.297.404.198.715.472.934.82.222.349.333.73.333 1.144h-.989c0-.451-.144-.805-.431-1.062-.287-.26-.692-.39-1.215-.39-.485 0-.865.108-1.139.323-.27.212-.405.507-.405.887 0 .304.128.562.384.774.26.208.699.4 1.318.574.622.174 1.107.368 1.457.58.352.208.612.453.779.733.171.28.256.61.256.989 0 .605-.236 1.091-.708 1.457-.472.362-1.103.543-1.892.543-.513 0-.992-.098-1.436-.292-.444-.198-.788-.468-1.03-.81a1.983 1.983 0 0 1-.359-1.164h.989c0 .451.166.809.498 1.072.335.26.781.39 1.338.39.52 0 .917-.106 1.194-.318.277-.212.416-.501.416-.867s-.128-.647-.385-.846c-.256-.199-.721-.397-1.394-.592zM126.209 18.671h-2.4v6.656h-.98v-6.656h-2.394v-.81h5.774zM131.039 23.378h-3.128l-.703 1.949h-1.015l2.851-7.466h.861l2.856 7.466h-1.01l-.712-1.949zm-2.831-.81h2.538l-1.271-3.492-1.267 3.492zM136.504 22.307h-1.753v3.02h-.99v-7.466h2.471c.841 0 1.487.191 1.938.574.455.383.682.94.682 1.672 0 .465-.126.87-.379 1.215-.25.345-.598.604-1.046.774l1.753 3.169v.062h-1.056l-1.62-3.02zm-1.753-.805h1.512c.489 0 .877-.126 1.164-.379.291-.253.436-.591.436-1.015 0-.462-.139-.815-.416-1.062-.273-.246-.67-.371-1.189-.375h-1.507v2.831zM144.975 18.671h-2.4v6.656h-.979v-6.656h-2.395v-.81h5.774z" fill="#34475c"/></g><g><path d="M117.377 219.778H84.178c-.976 0-1.768.792-1.768 1.768v16.202c0 .976.792 1.768 1.768 1.768h33.199c.976 0 1.768-.792 1.768-1.768v-16.202c0-.976-.792-1.768-1.768-1.768" fill="#f4f3f3"/><path d="M84.178 219.778v.467h33.199a1.304 1.304 0 0 1 1.301 1.301v16.202a1.304 1.304 0 0 1-1.301 1.301H84.178a1.304 1.304 0 0 1-1.301-1.301v-16.202a1.304 1.304 0 0 1 1.301-1.301v-.934c-1.234 0-2.234 1-2.235 2.235v16.202c0 1.234 1 2.234 2.235 2.235h33.199c1.234 0 2.234-1 2.235-2.235v-16.202c0-1.234-1-2.234-2.235-2.235H84.178v.467z" fill="#34475c"/><path d="M106.742 233.144v-7.25h2.37c.787 0 1.377.163 1.773.488.398.326.597.807.597 1.444 0 .338-.096.639-.289.902a1.883 1.883 0 0 1-.786.602c.392.109.7.319.926.627.229.305.343.671.343 1.095 0 .651-.211 1.162-.632 1.534-.421.372-1.018.558-1.787.558h-2.515zm.956-3.391v2.609h1.578c.445 0 .795-.114 1.051-.343.259-.233.388-.551.388-.956 0-.873-.475-1.31-1.424-1.31h-1.593zm0-.767h1.444c.418 0 .752-.104 1.001-.313.252-.209.379-.493.379-.852 0-.398-.116-.687-.349-.866-.232-.183-.586-.274-1.06-.274h-1.414v2.305z" fill="#34475c"/><defs><path id="p" d="M83.262 220.914h17.564v17.565H83.262v-17.565"/></defs><clipPath id="q"><use xlink:href="#p" overflow="visible"/></clipPath><path d="M97.589 231.789a2.426 2.426 0 1 1 0-4.852 2.426 2.426 0 0 1 0 4.852m-5.104-3.979a2.426 2.426 0 1 1 0-4.852 2.426 2.426 0 0 1 0 4.852m-.874 8.679a2.426 2.426 0 1 1 0-4.851 2.426 2.426 0 0 1 0 4.851m-5.043-4.081a2.425 2.425 0 1 1 0-4.852 2.426 2.426 0 1 1 0 4.852m5.509-11.494a8.767 8.767 0 1 0 .001 17.535 8.767 8.767 0 0 0-.001-17.535" clip-path="url(#q)" fill="#34475c"/><path d="M99.321 229.364a1.731 1.731 0 1 1-3.463.001 1.731 1.731 0 0 1 3.463-.001M88.375 229.982a1.808 1.808 0 1 1-3.615-.001 1.808 1.808 0 0 1 3.615.001M94.197 225.433a1.715 1.715 0 1 1-3.43 0 1.715 1.715 0 0 1 3.43 0" clip-path="url(#q)" fill="#34475c"/></g><g><path d="M75.463 219.778H42.264c-.977 0-1.768.792-1.768 1.768v16.201c0 .976.791 1.768 1.768 1.768h33.199c.976 0 1.768-.791 1.768-1.768v-16.201c0-.976-.792-1.768-1.768-1.768" fill="#f4f3f3"/><path d="M42.264 219.778v.467h33.199a1.304 1.304 0 0 1 1.301 1.301v16.201a1.304 1.304 0 0 1-1.301 1.301H42.264a1.302 1.302 0 0 1-1.301-1.301v-16.201a1.303 1.303 0 0 1 1.301-1.301v-.934a2.235 2.235 0 0 0-2.235 2.235v16.201c0 1.234 1 2.235 2.235 2.235h33.199c1.234 0 2.234-1 2.235-2.235v-16.201c0-1.234-1-2.234-2.235-2.235H42.264v.467z" fill="#34475c"/><path fill="#34475c" d="M67.193 228.672l1.738-2.778h1.125l-2.29 3.595 2.345 3.655h-1.135l-1.783-2.828-1.792 2.828h-1.13l2.349-3.655-2.295-3.595h1.12z"/><defs><path id="r" d="M41.316 220.893h17.828v17.829H41.316v-17.829"/></defs><clipPath id="s"><use xlink:href="#r" overflow="visible"/></clipPath><path d="M55.858 231.932a2.463 2.463 0 1 1 .001-4.925 2.463 2.463 0 0 1-.001 4.925m-5.181-4.039a2.463 2.463 0 1 1 .001-4.925 2.463 2.463 0 0 1-.001 4.925m-.887 8.81a2.462 2.462 0 1 1 0-4.925 2.462 2.462 0 0 1 0 4.925m-5.118-4.142a2.462 2.462 0 1 1 0-4.924 2.462 2.462 0 0 1 0 4.924m5.591-11.668a8.9 8.9 0 1 0 0 17.799 8.9 8.9 0 0 0 0-17.799" clip-path="url(#s)" fill="#34475c"/><path d="M57.616 229.47a1.758 1.758 0 1 1-3.516 0 1.758 1.758 0 0 1 3.516 0M51.531 234.241a1.742 1.742 0 1 1-3.483-.001 1.742 1.742 0 0 1 3.483.001M46.506 230.098a1.834 1.834 0 1 1-3.669-.001 1.834 1.834 0 0 1 3.669.001" clip-path="url(#s)" fill="#34475c"/></g><path fill="none" stroke="#434546" stroke-width=".5" stroke-miterlimit="10" d="M58.864 204.665v15.113M100.778 205.018v14.76M29.25 201.944v-16.569M139.465 199.806v-14.431"/><g><path d="M41.624 165.638H8.426c-.977 0-1.768.792-1.768 1.768v16.201c0 .976.791 1.768 1.768 1.768h33.199c.976 0 1.768-.791 1.768-1.768v-16.201a1.77 1.77 0 0 0-1.769-1.768" fill="#f4f3f3"/><path d="M8.426 165.638v.467h33.199a1.304 1.304 0 0 1 1.301 1.301v16.201a1.304 1.304 0 0 1-1.301 1.301H8.426a1.302 1.302 0 0 1-1.301-1.301v-16.201a1.303 1.303 0 0 1 1.301-1.301v-.934a2.235 2.235 0 0 0-2.235 2.235v16.201c0 1.234 1 2.235 2.235 2.235h33.199c1.234 0 2.234-1 2.235-2.235v-16.201c0-1.234-1-2.234-2.235-2.235H8.426v.467z" fill="#34475c"/><path fill="#34475c" d="M33.39 175.183l1.892-3.64h1.086l-2.5 4.546v2.704h-.956v-2.704l-2.499-4.546h1.095z"/><defs><path id="t" d="M7.514 166.425H25.43v17.916H7.514v-17.916"/></defs><clipPath id="u"><use xlink:href="#t" overflow="visible"/></clipPath><path d="M22.128 177.518a2.475 2.475 0 1 1 .001-4.95 2.475 2.475 0 0 1-.001 4.95m-5.206-4.059a2.474 2.474 0 1 1 0-4.948 2.474 2.474 0 0 1 0 4.948m-.892 8.854a2.474 2.474 0 1 1 0-4.949 2.474 2.474 0 0 1 0 4.949m-5.143-4.163a2.473 2.473 0 1 1 0-4.948 2.473 2.473 0 1 1 0 4.948m5.619-11.725a8.943 8.943 0 1 0 0 17.886 8.943 8.943 0 0 0 0-17.886" clip-path="url(#u)" fill="#34475c"/><path d="M23.895 175.044a1.767 1.767 0 1 1-3.534 0 1.767 1.767 0 0 1 3.534 0M17.78 179.838a1.75 1.75 0 1 1-3.5-.002 1.75 1.75 0 0 1 3.5.002M18.668 171.035a1.75 1.75 0 0 1-3.499 0 1.749 1.749 0 1 1 3.499 0" clip-path="url(#u)" fill="#34475c"/></g><g><path d="M151.515 165.638h-33.199c-.976 0-1.768.792-1.768 1.768v16.201c0 .976.792 1.768 1.768 1.768h33.199c.976 0 1.768-.791 1.768-1.768v-16.201c0-.976-.791-1.768-1.768-1.768" fill="#f4f3f3"/><path d="M118.317 165.638v.467h33.199a1.304 1.304 0 0 1 1.301 1.301v16.201a1.304 1.304 0 0 1-1.301 1.301h-33.199a1.303 1.303 0 0 1-1.301-1.301v-16.201a1.304 1.304 0 0 1 1.301-1.301v-.934c-1.234 0-2.234 1-2.235 2.235v16.201a2.235 2.235 0 0 0 2.235 2.235h33.199c1.234 0 2.234-1 2.235-2.235v-16.201c0-1.234-1-2.234-2.235-2.235h-33.199v.467z" fill="#34475c"/><path d="M144.884 177.112h-3.038l-.682 1.892h-.986l2.768-7.25h.836l2.774 7.25h-.981l-.691-1.892zm-2.749-.787h2.465l-1.234-3.391-1.231 3.391z" fill="#34475c"/><defs><path id="v" d="M117.699 167.001h17.198v17.198h-17.198v-17.198"/></defs><clipPath id="w"><use xlink:href="#v" overflow="visible"/></clipPath><path d="M131.727 177.65a2.375 2.375 0 1 1 0-4.75 2.375 2.375 0 0 1 0 4.75m-4.997-3.897a2.375 2.375 0 1 1 0-4.75 2.375 2.375 0 0 1 0 4.75m-.856 8.499a2.376 2.376 0 1 1 .002-4.752 2.376 2.376 0 0 1-.002 4.752m-4.937-3.996a2.375 2.375 0 1 1 0-4.75 2.375 2.375 0 0 1 0 4.75m5.394-11.255a8.584 8.584 0 1 0 0 17.167 8.584 8.584 0 0 0 0-17.167" clip-path="url(#w)" fill="#34475c"/><path d="M127.553 179.876a1.68 1.68 0 1 1-3.359 0 1.68 1.68 0 0 1 3.359 0M122.706 175.881a1.769 1.769 0 1 1-3.538 0 1.769 1.769 0 0 1 3.538 0M128.406 171.426a1.68 1.68 0 1 1-3.36-.001 1.68 1.68 0 0 1 3.36.001" clip-path="url(#w)" fill="#34475c"/></g><g><path d="M107.677 165.382H52.545a1.813 1.813 0 0 0-1.813 1.813v16.623c0 1.001.812 1.813 1.813 1.813h55.132a1.813 1.813 0 0 0 1.813-1.813v-16.623a1.812 1.812 0 0 0-1.813-1.813" fill="#f4f4f3"/><path d="M52.545 165.382v.598h55.132a1.216 1.216 0 0 1 1.215 1.215v16.623a1.216 1.216 0 0 1-1.215 1.215H52.545a1.216 1.216 0 0 1-1.215-1.215v-16.623a1.216 1.216 0 0 1 1.215-1.215v-1.196a2.413 2.413 0 0 0-2.412 2.412v16.623a2.413 2.413 0 0 0 2.412 2.412h55.132a2.413 2.413 0 0 0 2.412-2.412v-16.623a2.413 2.413 0 0 0-2.412-2.412H52.545v.598z" fill="#34475c"/><path d="M62.527 184.603h-3.469c-1.117 0-1.521-.911-1.521-1.523v-4.26h-4.261c-1.117 0-1.522-.91-1.522-1.522v-3.469c0-1.117.911-1.522 1.522-1.522h4.261v-4.26c0-1.117.91-1.522 1.521-1.522h3.469c1.117 0 1.522.911 1.522 1.522v4.26h4.259c.586 0 1.051.256 1.31.722.101.183.222.542.209.799h.004v3.469c0 1.117-.91 1.522-1.522 1.522H64.05v4.26c-.001 1.118-.911 1.524-1.523 1.524zm-9.252-11.565c-.184.003-.791.068-.791.79v3.469c.003.184.068.791.791.791h4.992v4.992c.002.184.068.791.79.791h3.468c.188-.003.792-.069.792-.791v-4.991h4.991c.184-.003.791-.068.791-.791v-3.474c-.002-.14-.055-.785-.791-.785h-4.991v-4.992c-.003-.184-.067-.791-.791-.791h-3.469c-.183.003-.79.068-.79.791v4.992h-4.992z" fill="#34475c"/><path d="M60.793 177.345c-.981 0-1.78-.799-1.78-1.781s.799-1.781 1.78-1.781c.982 0 1.781.799 1.781 1.781 0 .982-.8 1.781-1.781 1.781zm0-2.83a1.05 1.05 0 0 0 0 2.098 1.05 1.05 0 0 0 0-2.098zM60.792 168.077l-1.465 2.285h2.932z" fill="#34475c"/><path d="M62.259 170.728h-2.933a.366.366 0 0 1-.308-.563l1.466-2.285c.134-.21.481-.209.615 0l1.467 2.285a.364.364 0 0 1-.307.563zm-2.263-.732h1.594l-.797-1.241-.797 1.241zM53.277 175.564l2.285 1.465v-2.932z" fill="#34475c"/><path d="M55.562 177.395l-.198-.058-2.285-1.465a.365.365 0 0 1 0-.616l2.285-1.467a.367.367 0 0 1 .563.308v2.932a.366.366 0 0 1-.19.321l-.175.045zm-1.607-1.831l1.241.796v-1.593l-1.241.797zM68.28 175.563l-2.285-1.466v2.932z" fill="#34475c"/><path d="M65.995 177.395l-.175-.045a.366.366 0 0 1-.191-.321v-2.932c0-.134.073-.257.191-.321a.365.365 0 0 1 .373.013l2.286 1.466a.365.365 0 0 1 0 .616l-2.286 1.466-.198.058zm.366-2.628v1.593l1.242-.797-1.242-.796zM60.792 183.05l1.467-2.285h-2.932z" fill="#34475c"/><path d="M60.792 183.416a.365.365 0 0 1-.308-.168l-1.466-2.285a.367.367 0 0 1 .308-.564h2.933a.367.367 0 1 1 .308.564l-1.467 2.285a.365.365 0 0 1-.308.168zm-.796-2.285l.797 1.242.797-1.242h-1.594zM75.751 179.108v-7.466h2.107c.649 0 1.224.144 1.723.431.499.287.884.695 1.154 1.225.273.53.412 1.139.415 1.826v.477c0 .704-.137 1.321-.41 1.851-.27.53-.658.937-1.164 1.22-.503.284-1.089.429-1.759.436h-2.066zm.984-6.656v5.85h1.036c.759 0 1.349-.236 1.769-.708.424-.472.636-1.143.636-2.015v-.436c0-.848-.2-1.506-.6-1.974-.397-.472-.961-.711-1.692-.718h-1.149zM81.965 175.549h2.502v.774h-2.502zM86.518 176.185v2.923h-.984v-7.466h2.753c.817 0 1.456.209 1.917.626.465.417.698.969.698 1.656 0 .725-.228 1.284-.682 1.677-.451.39-1.099.584-1.943.584h-1.759zm0-.805h1.769c.526 0 .93-.123 1.21-.369.28-.25.42-.608.42-1.077 0-.444-.14-.8-.42-1.066s-.665-.405-1.154-.415h-1.825v2.927zM95.584 177.16h-3.128l-.702 1.948h-1.016l2.851-7.466h.861l2.856 7.466h-1.01l-.712-1.948zm-2.831-.811h2.538l-1.271-3.492-1.267 3.492zM98.312 179.108v-7.466h2.107c.649 0 1.224.144 1.723.431.499.287.884.695 1.154 1.225.273.53.412 1.139.415 1.826v.477c0 .704-.137 1.321-.41 1.851-.27.53-.658.937-1.164 1.22-.502.284-1.088.429-1.758.436h-2.067zm.984-6.656v5.85h1.036c.759 0 1.349-.236 1.769-.708.424-.472.636-1.143.636-2.015v-.436c0-.848-.2-1.506-.6-1.974-.396-.472-.96-.711-1.692-.718h-1.149z" fill="#34475c"/></g></svg>