<svg xmlns="http://www.w3.org/2000/svg" viewBox="0 0 12.108 203.62"><path d="M4.95 177.486h3.951c.463 0 .817.494.747 1.041 0 0-1.109 19.746-1.164 20.618-.245 3.929-2.726 4.474-3.594 4.474-.868 0-3.349-.546-3.594-4.474-.054-.872-1.164-20.618-1.164-20.618-.07-.547.284-1.041.747-1.041H4.83" fill="#232322"/><path d="M.878 177.24a.633.633 0 0 1-.632-.632V23.906c0-.682.555-1.237 1.237-1.237h6.816c.682 0 1.237.555 1.237 1.237v152.702a.633.633 0 0 1-.632.632H.878z" fill="#919191"/><path d="M8.299 22.915c.546 0 .991.445.991.991v152.702a.387.387 0 0 1-.387.387H.878a.387.387 0 0 1-.387-.387V23.906c0-.546.445-.991.991-.991h6.817m0-.492H1.483c-.819 0-1.483.664-1.483 1.483v152.702c0 .485.393.878.878.878h8.025a.878.878 0 0 0 .878-.878V23.906a1.482 1.482 0 0 0-1.482-1.483z" fill="#8a8a8a"/><g fill="#353434"><path d="M4.891 203.62c-.574-.212-.958-.559-1.111-1.07l.495-.592L3.144 177.5l-2.263-.014c-.463 0-.817.494-.747 1.041l3.009 23.45c.11.865.88 1.643 1.748 1.643zM6.64 201.977l3.009-23.45c.07-.547-.284-1.041-.747-1.041l-2.263.014-1.132 24.458.495.592c-.153.511-.537.858-1.111 1.07.868 0 1.638-.778 1.749-1.643z"/></g><path d="M3.625 177.432l.054-154.303c0-.359.292-.651.65-.651h1.123c.358 0 .65.292.65.651v154.303H3.625z" fill="#535353"/><path d="M5.453 22.533c.328 0 .596.267.596.596v154.248H3.734V23.129c0-.328.267-.596.596-.596h1.123m0-.11H4.33a.705.705 0 0 0-.705.705v154.358h2.533V23.129a.706.706 0 0 0-.705-.706z" fill="#363636"/><path d="M5.448 201.958L6.58 177.5H3.203l1.132 24.458-.495.592s.446.451.993.512v.012c.02 0 .039-.005.059-.006.02.001.039.006.059.006v-.012c.548-.061.993-.512.993-.512l-.496-.592z" fill="#040101"/><path d="M12.108 12.788c-.405-1.473-.648-3.371-.648-5.443 0-2.075.241-4.061.647-5.535 0-.999-.81-1.81-1.81-1.81h-8.72C.762 0 .102.66.102 1.475V21.523a.9.9 0 0 0 .9.9h7.686c.66 0 1.195-.535 1.195-1.195v-6.453a1.47 1.47 0 0 1 1.471-1.471h.235a.517.517 0 0 0 .517-.517" fill="#454746"/><path d="M4.379 2.868a1.232 1.232 0 0 0-1.231-1.245H2.071A1.23 1.23 0 0 0 .84 2.846v18.213c0 .08.152.189.189.308a.389.389 0 0 1-.034.266.296.296 0 0 0 .254.451l2.219-.017a.203.203 0 0 0 .164-.321l-.115-.161a.551.551 0 0 1 .046-.696l.436-.468a.73.73 0 0 0 .196-.49l.184-17.063zM2.189 19.81a.486.486 0 1 1-.972 0V3.229a.486.486 0 1 1 .972 0V19.81z" fill="#5c5d5f"/><path d="M3.511 2.105v-.417H2.05a.833.833 0 0 0-.833.833v.708a.486.486 0 1 1 .972 0v16.58a.486.486 0 1 1-.972 0v.321c0 .187.149.34.336.346l.189.005a.908.908 0 0 0 .934-.909L2.637 2.979c0-.483.391-.874.874-.874z" fill="#a4a6a5"/><path d="M2.189 19.81a.486.486 0 1 1-.972 0V3.229a.486.486 0 1 1 .972 0V19.81z" fill="#c6ccc9"/><path d="M8.469 9.657a.89.89 0 0 1-.888-.888V7.275a.89.89 0 0 1 .888-.888.89.89 0 0 1 .888.888V8.77a.89.89 0 0 1-.888.887z" fill="#252525"/></svg>