<svg xmlns="http://www.w3.org/2000/svg" viewBox="0 0 456.605 168.731"><g fill="#00007f"><path d="M53.227 168.73c-29.1.169-53.061-23.59-53.226-52.779-.166-29.387 23.363-53.187 52.854-53.465 29.098-.273 53.217 23.506 53.376 52.625.163 29.622-23.389 53.447-53.004 53.619zm21.972-59.545c8.758-.029 15.777-7.073 15.681-15.737-.097-8.715-7.126-15.554-15.924-15.492-8.578.061-15.444 6.966-15.495 15.585-.051 8.672 6.992 15.673 15.738 15.644zm-6.228 16.157c1.9-.524 4.022-.533 4.336-1.291 1.706-4.128 5.039-3.38 8.152-3.044 2.037.22 3.315 1.503 3.226 3.817-.086 2.24-1.659 2.569-3.354 2.883-2.934.543-5.951.85-8.766 1.769-3.376 1.102-4.808 3.732-4.615 7.226.183 3.322 2.149 5.601 5.56 6.578 4.16 1.191 7.656-.352 9.896-1.951 2.78.936 4.718 1.681 6.717 2.182.398.1 1.363-.666 1.473-1.163.153-.694-.133-2.121-.437-2.18-2.642-.518-2.002-2.517-2.023-4.166-.047-3.718-.008-7.436-.016-11.154-.01-4.85-1.67-6.9-6.211-7.697-6.672-1.171-12.023.755-13.395 4.867-.254.751-.27 1.581-.543 3.324zm-25.778-7.569c0 6.755-.107 13.334.051 19.907.066 2.736 1.864 4.535 4.436 5.378 4.532 1.485 8.506.371 12.272-3.366-.191 3.682 1.78 2.848 3.547 2.67v-24.519H59.26c0 4.536.108 8.858-.052 13.171-.067 1.805-.412 3.72-1.145 5.355-1.217 2.713-4.182 3.889-6.995 3.247-3.121-.713-3.512-3.025-3.489-5.692.046-5.336.014-10.672.014-16.151h-4.4zm-4.28 20.785H21.481v-30.692h-4.212v34.658h21.643l.001-3.966zM90.868 62.305c.026-8.699 6.794-15.358 15.573-15.323 8.647.035 15.481 6.937 15.417 15.573-.063 8.525-7.117 15.454-15.676 15.4-8.628-.055-15.34-6.914-15.314-15.65z"/><path d="M84.39 130.461c.882 6.759-2.713 10.603-8.58 9.065-1.308-.343-3.138-1.962-3.175-3.048-.046-1.33 1.256-3.469 2.476-3.93 2.934-1.106 6.16-1.439 9.279-2.087z"/></g><g fill="#00007f"><path d="M113.317 130.397c.472-8.475 4.649-13.004 12.532-13.586 8.025.395 12.395 3.93 13.108 10.605l-8.613-.033c-.494-3.184-1.328-5.286-2.503-6.307-1.175-1.043-2.371-.867-3.59.527-1.208 1.394-1.844 4.254-1.91 8.58-.121 5.72.472 8.958 1.779 9.716 1.306.747 2.624.653 3.952-.28 1.328-.933 2.042-2.882 2.141-5.846l-4.496-.016-.049-3.623h13.24c-.637 7.454-3.145 11.736-7.526 12.845-4.38 1.109-8.382.801-12.005-.922-3.623-1.725-5.643-5.611-6.06-11.66zM155.244 125.16l7.723.016V143.685h-7.74l-.016-.626c-.604.472-2.443.653-5.517.543-3.14-.066-5.445-1.065-6.916-2.997-1.471-1.943-2.113-4.051-1.927-6.324.033-2.086.62-3.98 1.762-5.681 1.142-1.702 3.326-2.959 6.554-3.771 3.063-.209 5.089.104 6.077.939v-.608zm-2.882 1.746c-2.064.088-3.134 1.685-3.211 4.792v4.973c.165 3.052 1.257 4.649 3.277 4.792 1.976-.209 2.948-1.092 2.915-2.651v-8.679c.154-1.965-.84-3.041-2.981-3.227zM176.356 124.732c3.93-.626 6.4.593 7.41 3.656.527-1.383 2.267-2.684 5.22-3.903 5.16-.758 7.937 1.153 8.333 5.731v13.355l-6.472-.033.049-11c.066-2.514-.972-3.716-3.112-3.606-1.855-.274-3.195.609-4.018 2.651v12.071H177.113h1.334-1.334v-12.631c0-1.669-.977-2.591-2.931-2.767-1.372-.121-2.404.538-3.096 1.976v13.421h-6.768V125.49H170.428h-1.334 2.026l-.016 2.207c1.481-1.713 3.232-2.702 5.252-2.965zM209.11 124.897c6.488.198 9.886 3.299 10.194 9.304H206.26c-.099 3.985.384 6.241 1.449 6.768 1.065.516 2.119.45 3.162-.198 1.065-.648 1.488-2.124 1.268-4.43h7-1.433 1.433c-.977 3.941-3.03 6.247-6.159 6.916-3.129.67-6.066.472-8.81-.593-2.734-1.076-4.512-3.535-5.336-7.378l-.016-1.285c.812-5.794 4.243-8.83 10.292-9.104zm.099 2.009c-1.91.099-2.893 1.575-2.948 4.43h5.715c-.022-2.723-.944-4.2-2.767-4.43zM226.928 117.272H248.6v5.22l-14.212-.016v5.945h11.28v4.035h-11.28v11.149h-7.46v-26.333zM262.021 125.391c5.105-.428 7.652 1.449 7.641 5.632h-5.928c.044-1.888-1.125-2.794-3.508-2.717-1.295.285-1.949.928-1.96 1.927v13.421h-8.02V125.49H257.475h-1.564 2.388l-.016 2.207c.834-1.186 2.081-1.955 3.738-2.306zM285.307 125.16l7.723.016V143.685h-7.74l-.016-.626c-.604.472-2.443.653-5.517.543-3.14-.066-5.445-1.065-6.916-2.997-1.471-1.943-2.113-4.051-1.927-6.324.033-2.086.62-3.98 1.762-5.681 1.142-1.702 3.327-2.959 6.554-3.771 3.063-.209 5.089.104 6.077.939v-.608zm-2.882 1.746c-2.064.088-3.134 1.685-3.211 4.792v4.973c.165 3.052 1.257 4.649 3.277 4.792 1.976-.209 2.948-1.092 2.915-2.651v-8.679c.153-1.965-.84-3.041-2.981-3.227zM306.418 124.732c3.93-.626 6.4.593 7.41 3.656.527-1.383 2.267-2.684 5.22-3.903 5.16-.758 7.937 1.153 8.333 5.731v13.355l-6.472-.033.049-11c.066-2.514-.972-3.716-3.112-3.606-1.855-.274-3.195.609-4.018 2.651v12.071H307.175h1.334-1.334v-12.631c0-1.669-.977-2.591-2.931-2.767-1.372-.121-2.404.538-3.096 1.976v13.421H294.379V125.49H300.489h-1.334 2.026l-.016 2.207c1.482-1.713 3.233-2.702 5.253-2.965zM339.173 124.897c6.488.198 9.886 3.299 10.194 9.304h-13.043c-.099 3.985.384 6.241 1.449 6.768 1.065.516 2.119.45 3.162-.198 1.065-.648 1.488-2.124 1.268-4.43h7-1.433 1.433c-.977 3.941-3.03 6.247-6.159 6.916s-6.066.472-8.81-.593c-2.734-1.076-4.512-3.535-5.336-7.378l-.016-1.285c.811-5.794 4.242-8.83 10.291-9.104zm.099 2.009c-1.91.099-2.893 1.575-2.948 4.43h5.715c-.023-2.723-.945-4.2-2.767-4.43zM350.684 124.534h7.509l3.261 12.005 4.1-12.005h6.999l4.265 12.005 3.261-12.005h7.443l-7.443 19.07h-6.9l-4.1-11.478-3.952 11.478h-6.933l-7.51-19.07zM388.971 133.592c.285-3.283 1.411-5.577 3.376-6.884 1.965-1.306 4.326-1.916 7.081-1.828h1.219c3.008.154 5.358.952 7.048 2.396 1.691 1.444 2.651 3.532 2.882 6.266.077 3.392-.867 5.852-2.832 7.378-1.954 1.504-4.337 2.399-7.147 2.684h-1.268c-3.612-.274-6.219-1.219-7.822-2.832-1.592-1.592-2.438-3.986-2.537-7.18zm10.82-6.423c-2.185.066-3.305 1.493-3.359 4.282v5.5c.154 2.723 1.295 4.155 3.425 4.298 2.108-.198 3.14-1.663 3.096-4.397v-5.336c-.055-2.876-1.109-4.325-3.162-4.347zM423.867 125.391c5.105-.428 7.652 1.449 7.641 5.632h-5.928c.044-1.888-1.125-2.794-3.508-2.717-1.295.285-1.949.928-1.96 1.927v13.421h-8.02V125.49H419.321h-1.564 2.388l-.016 2.207c.834-1.186 2.08-1.955 3.738-2.306zM440.812 143.653h-8.02V125.49l.033-8.152h8.003l-.016 11.116 6.867-8.629h4.15l-5.303 7.048 10.078 16.83h-8.711l-6.406-10.259-.576.692-.099 9.517z"/></g><g fill="#7a7777"><path d="M263.183.683c-1.922.838-3.45 2.564-4.437 4.832-.592 1.528-.74 4.19-.74 14.692v12.82h-3.796c-5.127 0-7.543 1.182-9.515 4.634-1.923 3.254-1.923 5.719-.099 9.22 1.874 3.648 4.339 4.88 9.516 4.88h3.845l.148 21.3c.197 20.41.247 21.495 1.282 24.601 2.07 6.163 7.1 12.277 12.276 14.89 5.522 2.81 14.594 3.845 21.004 2.416 5.226-1.233 7.987-4.881 7.642-10.206-.247-3.747-1.726-6.015-5.079-7.642-2.415-1.183-3.993-1.183-9.269-.05-3.056.691-6.902-.542-8.43-2.563-.987-1.38-1.036-2.021-1.184-22.088l-.148-20.658h6.804c9.27-.049 11.192-.887 13.51-6.113.739-1.676.985-3.008.788-4.29-.345-2.76-2.662-5.916-5.275-7.247-1.923-.986-2.91-1.085-8.974-1.085h-6.754l-.148-13.706-.148-13.755-1.43-1.825C272.058.437 266.881-.944 263.183.683zM137.954 2.409c-2.367 1.085-3.402 2.17-4.438 4.634-.64 1.578-.74 7.889-.74 51.473 0 46.345.05 49.796.888 51.373 3.057 6.114 11.98 6.656 15.728.987l1.38-2.12V58.96c0-27.413-.147-50.437-.345-51.177-.936-3.205-5.176-6.31-8.628-6.31-1.035 0-2.76.443-3.845.936zM336.645 33.223c-11.586 2.712-19.919 9.22-23.764 18.637-2.81 6.951-3.106 9.91-3.106 33.87 0 21.398 0 21.99 1.035 24.11 2.17 4.437 7.79 6.31 12.276 4.043 2.318-1.183 3.747-3.106 4.388-5.966.296-1.282.543-10.846.543-23.419 0-20.066.049-21.348 1.035-24.207 1.233-3.698 3.698-6.656 6.459-7.79 2.81-1.134 8.825-1.48 12.375-.74 3.352.69 5.817 2.564 7.346 5.62 2.07 4.191 4.88 6.213 8.53 6.213 2.958 0 5.078-.937 7-3.106 3.5-3.994 3.304-7.938-.64-13.756-6.065-8.973-14.397-13.558-25.293-14.002-3.402-.098-6.261.05-8.184.493zM172.466 33.864c-2.268 1.183-3.254 2.219-4.24 4.339-.838 1.824-.937 3.698-.937 24.306 0 18.538.148 22.975.789 26.13 1.43 6.953 3.895 11.587 9.022 17.06 3.6 3.796 7.691 6.41 12.572 8.036 3.5 1.134 4.783 1.282 10.65 1.331 5.916 0 7.1-.148 10.6-1.33 10.994-3.65 18.34-11.587 21.545-23.272 1.036-3.747 1.085-5.078 1.282-26.377.197-23.912.099-24.898-2.218-27.61-4.586-5.472-12.869-4.092-15.679 2.564-.64 1.578-.74 5.078-.74 23.764 0 20.658-.049 22.088-1.035 25.145-2.021 6.655-6.804 9.564-14.988 9.071-6.163-.394-9.318-2.514-11.783-7.79-.986-2.12-1.036-3.204-1.282-26.18l-.247-23.96-1.33-1.973c-2.416-3.648-8.284-5.226-11.981-3.254zM414.642 33.815c-11.142 2.465-20.51 10.65-24.356 21.25-2.268 6.31-2.81 9.712-2.81 18.882-.05 12.622 1.775 19.968 6.804 27.56 4.19 6.262 10.255 10.552 18.045 12.672 4.437 1.232 14.347 1.232 18.735.049 9.318-2.564 16.763-8.628 20.904-17.108 2.761-5.769 4.142-11.537 4.536-19.524 1.233-22.088-8.53-38.85-25.194-43.288-4.338-1.183-12.572-1.43-16.664-.493zm14.347 18.932c2.81 1.184 5.424 3.797 7.001 6.853 3.747 7.346 3.254 23.863-.887 30.618-2.663 4.338-7.692 6.902-13.41 6.902-8.284 0-13.658-4.536-15.58-13.213-1.085-4.832-.79-17.404.493-21.053 1.922-5.472 4.831-8.578 9.959-10.649 3.205-1.282 8.776-1.035 12.424.542z"/></g></svg>