<svg xmlns="http://www.w3.org/2000/svg" viewBox="0 0 575.4 78.3"><g fill="#1d1d1b"><path d="M53.1 57.4L41.9 78.3 0 0h22.4l30.7 57.4zM44.7 31.3L61.5 0h22.4l-28 52.2-11.2-20.9zM89.6 0h19.6l-.1 78.3H89.6V0zM117.5 0h19.6l-.1 78.3h-19.6V0zM142.7 19.6V0h8.4c10.8 0 20 3.8 27.7 11.5 7.6 7.6 11.5 16.9 11.5 27.7s-3.8 20-11.5 27.7c-7.6 7.6-16.9 11.5-27.7 11.5h-8.4V58.7h8.4c5.4 0 10-1.9 13.8-5.7 3.8-3.8 5.7-8.4 5.7-13.8s-1.9-10-5.7-13.8c-3.8-3.8-8.4-5.7-13.8-5.7l-8.4-.1zM198.7 0h19.6l-.1 78.3h-19.6V0zM223.8 0h30.7v19.6h-30.7V0zM223.8 58.7h30.7v19.6h-30.7V58.7zM223.8 29.3h30.7v19.6h-30.7V29.3zM321.6 41.9h19.7c-.6 9.6-4.4 17.9-11.4 24.9-7.6 7.6-16.9 11.5-27.7 11.5s-20-3.8-27.7-11.5c-7-7-10.8-15.3-11.3-24.9h19.7c.6 4.2 2.4 7.9 5.5 11 3.8 3.8 8.4 5.8 13.8 5.8s10-1.9 13.9-5.8c3.1-3.1 4.9-6.8 5.5-11zM282.9 36.3h-19.7c.6-9.6 4.4-17.9 11.3-24.9C282.2 3.8 291.4 0 302.2 0s20 3.8 27.7 11.5c7 7 10.8 15.3 11.4 24.9h-19.7c-.6-4.2-2.4-7.9-5.5-11.1-3.8-3.8-8.5-5.7-13.9-5.7s-10 1.9-13.8 5.7c-3.1 3.1-5 6.8-5.5 11zM349.8 0h19.6v78.3h-19.6V0zM375 19.6V0h10.5c6.7 0 12.5 2.4 17.3 7.2 4.8 4.8 7.2 10.5 7.2 17.3 0 6.8-2.4 12.6-7.2 17.3-4.8 4.8-10.5 7.2-17.3 7.2H375V29.3h10.5c1.3 0 2.5-.5 3.4-1.4 1-.9 1.4-2.1 1.4-3.5 0-1.3-.5-2.5-1.4-3.4-1-.9-2.1-1.4-3.4-1.4H375zM453.2 47l-16.8 31.3H414l28-52.2L453.2 47z"/><path d="M461.4 51.7l-16.5-30.9L456 0l42 78.3h-22.4l-3.7-7h-26l10.5-19.6h5zM540 58.5v19.6c-9.6-.6-17.9-4.4-24.9-11.3-7.6-7.6-11.5-16.9-11.5-27.7s3.8-20 11.5-27.7c7-7 15.3-10.8 24.9-11.3v19.6c-4.2.6-7.9 2.4-11 5.5-3.8 3.8-5.8 8.5-5.8 13.9s1.9 10 5.8 13.8c3.1 3.2 6.8 5.1 11 5.6zM559.1 28.2c-.7-1-1.5-2-2.5-3-3.2-3.1-6.9-5-11.1-5.5V.1c9.6.6 17.9 4.4 24.9 11.3 1.9 1.9 3.5 3.8 4.9 5.9l-16.2 10.9zM575.4 60.9c-1.4 2.1-3.1 4.1-4.9 5.9-7 7-15.3 10.8-24.9 11.3V58.5c4.2-.6 7.9-2.4 11.1-5.6.9-.9 1.8-1.9 2.5-2.9l16.2 10.9z"/></g></svg>