<svg height="30" width="30" xmlns="http://www.w3.org/2000/svg"><path d="m10.251244 9.0301c-.11208.069-6.5894403 3.137-6.5894403 3.137l8.1215483 16.5699 2.043789-.8908-7.2976671-14.5213 4.5804191-2.341s4.377038-2.3534 5.941628 1.9911c1.08541 3.0146-2.33422 5.3312-2.33422 5.3312l-3.027838-2.1471.579909-2.083h2.920299l-.0214-2.2118-4.471258.04-1.6269691 4.5772 5.2178171 4.3163c4.92283-1.8869 6.12551-6.0534 4.57911-9.3607-1.3112-2.8053-5.22302-4.5115-8.615687-2.4066zm7.0124239-7.905154-2.6526042-.3879007-.85539582 5.67394153 1.4502419.2972606" fill="#f00"/><path d="m22.23847848 3.78404772-3.62820378 4.34000486-1.2852054-.7959437 2.89723506-4.9380997" fill="#0f0"/><path d="m25.42550204 8.02171696-4.60542772 2.85565107-.96033044-1.44309466 4.1616485-3.6876559" fill="#09f"/></svg>