<svg enable-background="new 0 0 357.084 183.311" viewBox="0 0 357.084 183.311" xmlns="http://www.w3.org/2000/svg"><path d="m185.395 89.325.008.09c.087.145.172.288.259.434l.003.095c.087.145.174.288.262.434 0 0 .003.095.005.095.008.291.077.555.341.724.063.132.13.262.193.389-.003 0-.029.093-.029.093l.095.04c.058.114.116.227.174.341.011.415.201.732.539.967 1.983 4.021 3.941 8.052 5.95 12.056 7.029 13.999 14.055 27.998 21.141 41.968.613 1.213.555 1.792-.79 2.149-.5.13-.946.444-1.419.677-.137.082-.275.167-.412.251-.116.032-.233.063-.349.093-1.945.819-3.891 1.636-5.834 2.456-1.634.69-1.636.693-2.413-.891-11.678-23.803-23.351-47.606-35.037-71.404-2.461-5.017-4.962-10.016-7.446-15.022-.045-.167-.069-.346-.143-.5-1.097-2.316-1.1-2.318 1.264-3.442 10.695-5.083 21.403-10.14 32.079-15.263 3.249-1.56 6.315-3.484 9.809-4.533 19.011-5.702 39.307 6.254 41.997 25.989 2.207 16.191-6.222 26.51-6.246 26.827l-.003.003c-.132.108-.293.196-.396.33-5.271 6.804-12.207 11.3-20.047 14.578-1.01.42-1.686.275-2.464-.42-1.412-1.261-2.897-2.435-4.356-3.64-7.354-6.082-14.705-12.173-22.08-18.231-.753-.621-.978-1.166-.613-2.125 1.129-2.958 2.178-5.948 3.209-8.942 1.131-3.28 2.458-6.492 3.391-9.841.04-.074 1.821-4.816 1.821-4.816.098-.074.193-.151.288-.225 5.184 0 20.449-.156 22.897-.132.526.008 1.065-.098 1.441.407.003.272.011 9.291-.003 11.432-1.486.058-2.971.159-4.459.169-3.457.024-6.918.008-10.375.008-.574 0-1.152-.066-1.338.714-.322 1.359-.69 2.709-1.036 4.063-.172.148-1.322 4.589-1.673 5.533-.315.851-.069 1.361.663 1.871 4.293 2.998 8.549 6.043 12.823 9.059 3.019 2.131 3.061 2.162 5.81-.241 2.717-2.376 8.401-10.46 8.377-10.518v-.004c.169-.248.373-.481.505-.751 3.701-7.481 2.606-14.607-1.681-21.448-3.693-5.895-9.098-8.784-16.029-8.76-4.932.016-9.574 1.33-13.954 3.547-7.428 3.756-14.856 7.51-22.244 11.345-3.545 1.837-3.082.785-1.367 4.486.034.077.119.124.182.188z" fill="#c03027"/><path d="m160.636 65.358c2.483 5.006 4.984 10.004 7.446 15.021 11.684 23.799 23.358 47.603 35.036 71.405.778 1.585.781 1.581 2.414.893 1.944-.82 3.889-1.638 5.834-2.456-.021.799.469 1.407.793 2.071.332.681.299 1.071-.513 1.409-3.04 1.268-6.057 2.593-9.057 3.954-.909.412-1.251.019-1.607-.718-3.004-6.214-6.016-12.424-9.053-18.622-1.76-3.592-3.594-7.149-5.352-10.742-2.858-5.843-5.662-11.713-8.526-17.553-2.071-4.224-4.223-8.409-6.301-12.63-4.483-9.106-8.944-18.223-13.407-27.339-1.302-2.66-1.29-2.663 1.287-4.069.345-.19.671-.415 1.006-.624z" fill="#2e251f"/><path d="m248.94 48.691c-.471-.721-.602-1.264.22-1.983 6.994-6.116 13.951-12.276 20.875-18.471.901-.806 1.247-.627 1.806.307 2.058 3.438 4.167 6.845 6.313 10.229.497.784.439 1.194-.385 1.633-.849.452-1.627 1.04-2.436 1.568-6.842 4.227-13.702 8.426-20.509 12.71-1.108.697-1.591.525-2.231-.526-1.139-1.872-2.427-3.651-3.653-5.467z" fill="#6a9dd2"/><path d="m225.64.703c.188.029.377.058.565.087.313.233.655.271 1.02.148.19.035.381.07.571.105.486.295 1.008.305 1.546.201.186.031.372.063.558.094.315.239.661.26 1.027.147.188.035.376.07.564.104.404.253.838.261 1.285.152.189.034.378.068.567.102.525.479.184.979.013 1.454-.612 1.697-1.245 3.385-1.868 5.077-2.799 7.594-5.599 15.188-8.396 22.782-.246.667-.411 1.389-1.41 1.176-2.021-.431-4.045-.849-6.073-1.247-.67-.131-.824-.466-.723-1.12.917-5.953 1.813-11.909 2.702-17.865.44-2.949.852-5.903 1.277-8.854.034-.189.068-.377.102-.566.236-.313.274-.655.152-1.021.031-.191.061-.383.092-.574.179-1.041.771-1.277 1.727-.946.303.105.666.035 1.002.046.187.027.375.054.562.081.319.221.66.256 1.022.123.276.049.552.098.827.147.403.265.837.285 1.289.167z" fill="#c03027"/><path d="m234.681 36.264c-.229-.639.186-1.105.465-1.583 4.804-8.208 9.629-16.404 14.419-24.619.473-.811.814-1.051 1.687-.426 2.97 2.129 5.99 4.189 9.02 6.232.711.48.873.833.246 1.525-.853.941-1.604 1.975-2.398 2.969-.354.388-.723.763-1.06 1.165-4.968 5.935-9.944 11.863-14.88 17.825-.605.731-1.075.832-1.868.327-1.852-1.179-3.752-2.281-5.631-3.415z" fill="#5e9e44"/><path d="m24.263 142.932c.003.878-.177 1.195-1.142 1.237-1.404.058-2.281-.333-3.111-1.581-5.239-7.885-10.589-15.699-15.908-23.531-.317-.465-.547-1.007-1.044-1.319-.418.177-.264.521-.262.809.053 8.015.093 16.029.196 24.044.013 1.166-.235 1.565-1.499 1.594-1.388.032-1.433-.592-1.427-1.644.026-9.513.008-19.027.034-28.543.003-.523-.426-1.467.471-1.517.952-.056 2.096-.589 2.879.6 1.549 2.355 3.154 4.673 4.734 7.007 4.102 6.051 8.2 12.104 12.31 18.149.233.341.357.812 1.018.962 0-2.268.016-4.483-.005-6.701-.056-6.296-.085-12.593-.219-18.889-.032-1.367.711-1.189 1.56-1.211.87-.021 1.441-.037 1.433 1.2-.061 9.778-.045 19.556-.018 29.334z" fill="#f5f6f5"/><path d="m231.778 82.719c-.132.27-.336.502-.505.751-.008-.394-.09-.801-.016-1.176.452-2.294.661-4.578.214-6.91-1.039-5.421-3.378-10.124-7.462-13.899-.042-.04-.085-.077-.127-.114-.011-.011-.021-.021-.032-.029-.135-.116-.272-.222-.412-.288l-1.435-1.02c-.021-.037-.053-.071-.09-.098-.003-.005-.005-.005-.008-.005-.061-.05-.135-.087-.211-.119-.005-.005-.008-.005-.011-.005l-.003-.003c-.095-.042-.19-.082-.27-.127-2.701-1.594-5.649-2.387-8.76-2.501-4.837-.177-9.373 1.145-13.796 2.958-.455.185-1.504.79-1.956 1.02-6.318 3.251-12.651 6.471-18.982 9.696-.545.278-1.168.471-1.232 1.227-.063-.063-.148-.111-.182-.188-1.716-3.701-2.178-2.649 1.367-4.486 7.388-3.835 14.816-7.589 22.244-11.345 4.38-2.218 9.022-3.531 13.954-3.547 6.931-.024 12.336 2.865 16.029 8.76 4.288 6.841 5.382 13.968 1.682 21.448z" fill="#2e251f"/><path d="m121.448 139.102c.003.545-.026 1.015-.558 1.375-5.879 3.965-12.228 5.543-19.032 3.042-5.829-2.144-8.945-6.619-9.423-12.836-.225-2.916-.061-5.821.862-8.62 2.553-7.753 9.217-10.806 16.835-10.066 5.014.486 8.736 2.791 10.51 7.719.201.555.444 1.219-.465 1.261-.777.034-1.739 1.356-2.337-.106-1.948-4.784-5.556-6.82-10.597-6.611-4.853.204-8.35 2.485-10.417 6.873-2.606 5.535-1.626 13.489 2.096 17.43 3.605 3.817 8.089 4.269 12.91 3.315 2.141-.426 4.079-1.356 5.908-2.538.579-.375.827-.819.811-1.52-.04-1.935-.053-3.875.005-5.81.024-.893-.315-1.126-1.152-1.113-2.598.042-5.199-.042-7.793.042-1.115.037-1.187-.471-1.176-1.34.011-.843.018-1.417 1.158-1.356 1.8.098 3.611.026 5.416.026 1.76 0 3.524.05 5.281-.019.952-.037 1.184.309 1.171 1.211-.045 3.212-.021 6.426-.013 9.641z" fill="#f5f6f5"/><path d="m183.344 126.458c-.531-7.589-4.837-13.706-12.876-14.48-6.992-.671-12.974 2.231-15.527 9.5-.767 2.183-1.049 4.451-.946 6.759 0 .748-.055 1.501.008 2.244.597 7.045 4.734 13.264 12.717 14.07 7.518.759 13.663-2.641 15.886-10.243.751-2.571.923-5.201.738-7.85zm-6.003 11.652c-4.451 5.802-13.386 5.644-17.644-.291-3.682-5.131-3.526-14.213.103-19.376 4.039-5.741 15.326-6.254 19.072 2.392 1.036 2.392 1.438 4.885 1.419 7.467.008 3.57-.738 6.922-2.95 9.808z" fill="#f5f6f5"/><path d="m242.494 126.855c-.56-8.62-5.067-13.952-12.905-14.848-7.822-.896-13.809 3.029-15.857 10.613-.925 3.418-.991 6.894-.233 10.335 1.182 5.35 4.039 9.463 9.511 10.996 5.461 1.53 10.706.967 15.001-3.201 3.487-3.386 4.438-7.782 4.488-12.445 0-.483.027-.966-.005-1.45zm-5.48 10.478c-4.237 6.592-13.878 6.743-18.329.296-3.492-5.059-3.447-13.888.095-18.926 4.359-6.204 14.039-6.003 18.236.378 1.628 2.477 2.374 5.366 2.374 9.194.08 3.248-.602 6.301-2.376 9.058z" fill="#f5f6f5"/><path d="m87.33 126.823c-.576-8.572-5.022-13.856-12.804-14.8-7.859-.954-13.925 3.003-15.966 10.626-.917 3.423-.983 6.899-.217 10.338 1.189 5.347 4.057 9.455 9.532 10.975 5.466 1.517 10.708.946 14.993-3.235 3.479-3.391 4.42-7.79 4.523-12.574-.016-.362-.027-.846-.061-1.33zm-5.318 10.256c-4.351 7.105-14.771 7.14-18.85-.116-3.222-5.733-3.201-11.816.048-17.539 3.936-6.936 14.219-7.042 18.62-.373 1.834 2.783 2.456 5.9 2.4 9.289.081 3.051-.558 6.03-2.218 8.739z" fill="#f5f6f5"/><path d="m196.038 66.149c-.934 3.348-2.26 6.561-3.391 9.84-1.033 2.994-2.083 5.983-3.209 8.942-.365.959-.141 1.504.614 2.124 7.375 6.059 14.724 12.15 22.08 18.233 1.458 1.205 2.944 2.379 4.354 3.638.779.695 1.455.842 2.465.42 7.841-3.277 14.777-7.774 20.046-14.577.103-.133.264-.222.398-.331.062.648-.197 1.178-.527 1.723-4.096 6.766-9.899 11.652-16.842 15.263-1.829.951-3.624 1.99-5.613 2.617-.774.244-1.372.253-2.055-.318-3.929-3.29-7.898-6.532-11.855-9.787-3.213-2.643-6.432-5.28-9.644-7.925-1.792-1.476-3.567-2.972-5.368-4.438-.645-.525-.739-1.077-.426-1.845 2.714-6.67 4.926-13.525 7.44-20.27.29-.777.514-1.579.758-2.372.128-.423.219-.869.775-.937z" fill="#2e251f"/><g fill="#f5f6f5"><path d="m53.165 142.837c-.016 1.044-.299 1.327-1.345 1.316-6.074-.05-12.149-.056-18.223.005-1.16.011-1.367-.391-1.356-1.438.05-4.843.021-9.685.021-14.528s.026-9.685-.018-14.528c-.011-.962.219-1.287 1.24-1.279 5.942.048 11.887.063 17.829-.008 1.219-.016 1.184.545 1.221 1.419.04.952-.185 1.293-1.224 1.282-4.93-.058-9.86.005-14.789-.05-1.057-.013-1.348.309-1.324 1.335.061 2.905.074 5.813-.008 8.715-.032 1.152.386 1.375 1.438 1.361 4.443-.05 8.892.024 13.338-.053 1.142-.019 1.256.423 1.277 1.372.024 1.026-.248 1.345-1.316 1.33-4.491-.063-8.982.003-13.47-.05-.999-.011-1.274.291-1.258 1.269.056 3.302.063 6.606-.005 9.905-.024 1.092.375 1.303 1.367 1.295 5.062-.045 10.127.011 15.189-.045 1.078-.013 1.432.249 1.416 1.375z"/><path d="m306.336 144.113c-1.338 0-2.413.024-3.487-.008-.624-.018-.827-.611-1.134-1.015-3.764-4.935-7.536-9.865-11.253-14.834-.663-.888-1.094-1.004-1.906-.19-1.242 1.245-2.569 2.408-3.917 3.539-.642.542-.843 1.137-.833 1.948.037 3.169-.04 6.341.045 9.508.032 1.229-.669 1.113-1.417 1.06-.69-.05-1.597.404-1.591-1.012.045-9.907.042-19.814.003-29.719-.005-1.316.83-.967 1.496-.965.661.003 1.52-.362 1.501.96-.056 4.665-.029 9.334-.011 14.002.003.399-.264.973.249 1.171.399.153.65-.36.925-.613 5.054-4.652 10.187-9.223 15.091-14.026 1.649-1.615 3.325-1.575 5.625-1.422-2.961 2.694-5.659 5.147-8.358 7.597-1.628 1.48-3.222 3.005-4.906 4.417-.817.685-.743 1.145-.127 1.911 4.385 5.456 8.728 10.943 13.082 16.426.262.33.5.684.923 1.265z"/><path d="m149.237 142.797c-.016 1.004-.23 1.367-1.319 1.356-6.122-.053-12.247-.048-18.369-.003-.997.008-1.264-.27-1.253-1.253.048-4.89.021-9.78.021-14.671 0-4.845.018-9.69-.016-14.536-.008-.907.124-1.319 1.197-1.308 5.948.055 11.895.058 17.843 0 1.089-.011 1.189.426 1.197 1.316.011.952-.13 1.398-1.269 1.382-4.89-.069-9.78-.005-14.671-.05-1.007-.011-1.38.206-1.351 1.301.082 2.992.058 5.99.011 8.985-.013.872.256 1.129 1.123 1.121 4.536-.037 9.075.026 13.611-.048 1.166-.019 1.248.473 1.261 1.398.013.933-.174 1.314-1.226 1.298-4.449-.061-8.9.005-13.349-.048-1.047-.013-1.459.198-1.43 1.356.082 3.257.069 6.518.005 9.778-.021 1.028.238 1.353 1.314 1.34 5.107-.058 10.219.003 15.329-.05 1.05-.01 1.354.287 1.341 1.336z"/><path d="m331.463 142.771c-.037.925-.108 1.398-1.264 1.388-6.119-.063-12.241-.055-18.361-.005-1.076.008-1.322-.325-1.311-1.348.05-4.843.021-9.688.021-14.53 0-4.888.021-9.775-.016-14.663-.008-.886.198-1.229 1.163-1.221 5.987.04 11.974.048 17.964-.005 1.131-.011 1.139.523 1.16 1.367.021.912-.132 1.338-1.205 1.324-4.93-.056-9.862 0-14.795-.045-1.015-.011-1.38.238-1.353 1.319.074 2.947.069 5.9.003 8.847-.024 1.028.344 1.25 1.295 1.242 4.491-.045 8.982.016 13.473-.048 1.07-.013 1.337.309 1.324 1.338-.013.983-.19 1.377-1.301 1.359-4.491-.066-8.982.005-13.473-.05-1.068-.016-1.338.328-1.319 1.353.061 3.257.063 6.516 0 9.772-.021 1.039.272 1.356 1.327 1.345 5.107-.05 10.216.003 15.323-.045 1.018-.011 1.39.235 1.345 1.306z"/><path d="m274.42 135.705c-2.276 5.963-6.5 8.956-12.64 8.953-6.629-.005-11.158-3.138-13.209-9.484-2.115-6.553-1.694-12.823 2.654-18.527 4.88-6.402 18.651-7.422 22.873 3.341.198.508.674 1.211-.28 1.306-.78.074-1.774 1.348-2.419-.241-1.364-3.357-3.463-5.974-7.259-6.608-4.34-.724-8.038.473-10.732 4.092-2.834 3.806-3.235 8.184-2.752 12.72.309 2.902 1.166 5.607 3.259 7.766 5.223 5.398 13.83 4.081 17.179-2.627.333-.669.661-1.359.841-2.078.219-.888.682-.941 1.443-.73 1.677.459 1.682.433 1.042 2.117z"/><path d="m344.332 129.464c0-4.313-.054-8.628.033-12.939.026-1.272-.391-1.54-1.559-1.498-2.374.084-4.755-.034-7.128.05-1.217.043-1.045-.676-1.086-1.429-.046-.841.112-1.264 1.124-1.258 6.778.042 13.556.049 20.334-.005 1.149-.009 1.04.61 1.025 1.332-.014.688.191 1.4-.995 1.361-2.506-.083-5.018.02-7.525-.047-1.015-.027-1.25.33-1.246 1.289.032 8.803.023 17.605.008 26.408-.001.446.274 1.127-.284 1.3-.786.243-1.673.237-2.467-.01-.412-.128-.227-.706-.228-1.085-.009-4.49-.006-8.98-.006-13.469z"/></g><path d="m263.82 182.117c-1.179-2.702-1.449-5.871-4.216-7.917.288-.185.423-.291.574-.365 2.522-1.237 3.534-3.021 3.172-5.593-.338-2.403-1.71-3.711-4.607-4.092-3.148-.415-6.325-.09-9.49-.177-.907-.024-.801.597-.804 1.168 0 5.453.019 10.909-.016 16.365-.008.907.246 1.213 1.184 1.229 1.002.013 1.338-.309 1.25-1.29-.074-.83-.048-1.671-.008-2.506.066-1.351-.582-3.077.27-3.952.915-.944 2.672-.285 4.058-.312 2.281-.042 3.706.991 4.51 3.143.478 1.277.904 2.572 1.361 3.857.312.872 1.782 1.427 2.569.986.236-.132.294-.32.193-.544zm-6.093-9.717c-1.007.074-2.025.013-3.037.013v.021c-.925 0-1.853-.032-2.775.008-.761.034-1.139-.198-1.115-1.036.045-1.451.034-2.908.003-4.359-.016-.738.27-1.02 1.01-1.007 1.938.032 3.878-.037 5.813.032 2.064.071 3.209 1.208 3.246 3.066.038 2.043-.951 3.103-3.145 3.262z" fill="#c03027"/><path d="m229.721 163.698c-5.429-.005-9.077 3.872-9.077 9.643 0 5.694 3.672 9.635 8.971 9.635 5.363 0 8.966-3.851 8.979-9.593.014-5.797-3.544-9.677-8.873-9.685zm-.568 17.226c-3.027-.111-5.379-2.424-5.866-5.792-.087-.608-.103-1.226-.127-1.528.005-1.832.222-3.307.962-4.652 1.311-2.379 3.376-3.354 6.037-3.201 2.442.14 4.121 1.396 5.133 3.566.933 1.993.989 4.108.582 6.212-.689 3.579-3.171 5.522-6.721 5.395z" fill="#c03027"/><path d="m200.269 173.042c0-2.728.039-5.456-.021-8.183-.021-.971.355-1.162 1.23-1.177.938-.016 1.195.307 1.188 1.217-.038 4.619.019 9.239-.043 13.858-.016 1.184.376 1.519 1.516 1.48 2.197-.077 4.399.012 6.598-.038.905-.02 1.111.359 1.112 1.179.001.794-.246 1.082-1.062 1.073-3.167-.036-6.335-.038-9.503.001-.844.01-1.037-.331-1.028-1.096.033-2.771.013-5.543.013-8.314z" fill="#c03027"/><path d="m189.548 170.629c-1.205-4.882-5.715-7.602-10.624-6.503-4.343.97-6.941 4.523-6.926 9.495 0 .307-.016.616 0 .923.209 3.941 2.585 7.182 6.085 8.305 3.627 1.166 7.563.087 9.783-2.805 2.168-2.823 2.509-6.056 1.682-9.415zm-2.979 7.039c-1.118 2.234-2.876 3.479-5.437 3.531-2.59.053-4.552-.994-5.691-3.315-1.38-2.813-1.375-5.72-.048-8.543 1.2-2.556 3.904-3.772 6.875-3.265 2.59.441 4.634 2.778 5.028 5.776.074.566.079 1.139.116 1.71.019 1.433-.201 2.819-.843 4.106z" fill="#c03027"/><path d="m153.923 182.966c-4.376.011-7.508-2.424-8.359-6.731-.816-4.129-.442-8.055 3.131-10.923 2.823-2.265 7.473-2.207 10.389-.052.909.672 1.61 1.521 2.003 2.566.204.541.852 1.218.051 1.737-.741.48-1.975-.057-2.303-.902-.72-1.853-2.15-2.709-4.053-2.892-2.472-.237-4.652.412-5.866 2.687-1.73 3.241-1.721 6.636.061 9.858 1.469 2.656 5.423 3.514 8.036 1.933.904-.547 1.501-1.331 1.821-2.341.312-.988 1.402-1.488 2.303-1.087.611.272.319.749.234 1.136-.609 2.789-3.219 4.825-6.392 5.006-.351.022-.704.005-1.056.005z" fill="#c03027"/><path d="m248.94 48.691c1.226 1.817 2.514 3.596 3.652 5.465.64 1.051 1.124 1.224 2.231.526 6.807-4.284 13.667-8.483 20.509-12.71.04.389-.11.836.17 1.153 1.056 1.193.37 1.69-.704 2.351-7.364 4.527-14.684 9.125-22.02 13.696-1.432.892-1.685.833-2.639-.579-1.179-1.747-2.323-3.519-3.541-5.238-.514-.726-.648-1.277.163-1.858.568-.406 1.069-.906 1.62-1.338.492-.385.754-.834.559-1.468z" fill="#2e251f"/><path d="m218.865 3.246c-.425 2.952-.837 5.905-1.277 8.854-.889 5.957-1.785 11.913-2.702 17.865-.101.654.053.989.723 1.12 2.028.398 4.052.816 6.073 1.247.998.213 1.164-.509 1.41-1.176 2.797-7.595 5.597-15.188 8.396-22.782.624-1.692 1.257-3.381 1.868-5.077.171-.475.512-.976-.013-1.454 1.023-.166.681.456.514.926-.855 2.401-1.711 4.801-2.592 7.192-2.581 7.008-5.173 14.013-7.765 21.017-.297.802-.494 1.557-1.431 2.063-.758.409-.905 1.565-1.12 2.444-.321 1.313-.849 1.838-2.308 1.391-1.624-.498-3.333-.735-5.016-1.024-.91-.156-1.178-.417-1.011-1.475 1.07-6.783 2.013-13.586 3.011-20.381.419-2.856.872-5.707 1.302-8.561.04-.266.118-.711.303-.662 1.405.368 1.122-.996 1.635-1.527z" fill="#2e251f"/><path d="m234.681 36.264c1.88 1.133 3.779 2.236 5.63 3.414.793.505 1.263.404 1.868-.327 4.936-5.962 9.912-11.89 14.88-17.825.337-.402.706-.778 1.06-1.165.492.839.357 1.413-.341 2.231-4.839 5.666-9.568 11.426-14.347 17.144-1.266 1.515-2.605 2.969-3.865 4.488-.417.502-.772.63-1.336.277-1.711-1.074-3.433-2.132-5.16-3.181-.714-.434-.991-.855-.426-1.689.733-1.084 1.223-2.325 2.037-3.367z" fill="#2e251f"/><path d="m222.481 72.814c-.241.739-.873.468-1.34.455-.808-.024-1.137.295-1.049 1.084.015.13.003.263.001.394-.038 3.459.452 3.012-3.118 3.027-3.901.016-7.803-.003-11.704-.007.348-1.354.714-2.703 1.037-4.063.185-.78.763-.714 1.336-.714 3.459.001 6.918.018 10.377-.008 1.488-.01 2.974-.109 4.46-.168z" fill="#2e251f"/><path d="m230.977 84.011c.08-.14.161-.281.241-.421-.08.14-.161.281-.241.421z" fill="#2e251f"/></svg>