<?xml version="1.0" encoding="utf-8"?>
<!-- Generator: Adobe Illustrator 22.0.0, SVG Export Plug-In . SVG Version: 6.00 Build 0)  -->
<svg version="1.1" id="Capa_1" xmlns="http://www.w3.org/2000/svg" xmlns:xlink="http://www.w3.org/1999/xlink" x="0px" y="0px"
	 viewBox="0 0 30 30" style="enable-background:new 0 0 30 30;" xml:space="preserve">
<g id="apple_2_" transform="translate(1.836943, 0.458938)">
	<path id="Shape_13_" style="fill:#009DDD;" d="M1.415,25.859c1.638,2.317,3.496,3.66,4.541,3.681
		c2.15,0.048,4.021-1.405,5.562-1.366c0.016,0.003,0.033,0.006,0.049,0.003h0.019h0.019c0.016,0.003,0.032,0,0.048-0.003
		c1.543-0.039,3.412,1.415,5.565,1.366c1.046-0.023,2.902-1.365,4.541-3.681H1.415"/>
	<path id="Shape_12_" style="fill:#944D85;" d="M-0.579,22.208c0.556,1.37,1.252,2.603,1.993,3.651h20.343
		c0.739-1.048,1.437-2.279,1.993-3.651H-0.579"/>
	<path id="Shape_11_" style="fill:#C45152;" d="M-1.674,18.192c0.206,1.43,0.596,2.778,1.097,4.015h24.329
		c0.083-0.205,0.163-0.412,0.24-0.623c-1.602-0.502-2.92-1.754-3.631-3.392H-1.674"/>
	<path id="Shape_10_" style="fill:#F2BD2F;" d="M-0.386,10.162c-0.646,1.029-1.145,2.341-1.349,4.015h21.629
		c0.302-1.701,1.23-3.106,2.509-4.015H-0.386"/>
	<path id="Shape_9_" style="fill:#E19433;" d="M-1.735,14.177c-0.074,0.604-0.109,1.254-0.1,1.955
		c0.009,0.701,0.065,1.389,0.161,2.061H20.36c-0.367-0.845-0.572-1.79-0.572-2.793c0-0.421,0.036-0.829,0.106-1.224H-1.735"/>
	<path id="Shape_8_" style="fill:#76B845;" d="M11.605,7.809h-0.038c-1.47-0.025-4.176-1.513-6.098-1.314
		c-0.957,0.099-4.013,0.733-5.855,3.667h22.788c0.228-0.161,0.469-0.309,0.718-0.44c-1.726-2.717-4.533-3.137-5.417-3.228
		C15.781,6.296,13.075,7.786,11.605,7.809"/>
	<path id="stalk_1_" style="fill:#76B845;" d="M16.802-0.441c-0.15-0.126-2.879,0.376-4.573,2.266
		c-1.692,1.89-1.586,4.767-1.438,4.892c0.15,0.126,2.921-0.309,4.573-2.266C17.014,2.496,16.95-0.317,16.802-0.441"/>
</g>
</svg>
