<svg xmlns="http://www.w3.org/2000/svg" viewBox="0 0 394.987 126.305"><path d="M137.296 45.136l-1.222 40.002c0 6.717 6.412 5.396 6.412 6.717 0 .917-.916 1.119-2.646 1.119h-10.483c-1.426 0-2.138-.406-2.138-1.018 0-1.935 6.24.05 6.444-6.362l1.324-44.277c0-4.275-6.748-2.493-6.748-4.53 0-.611.611-.916 1.934-.916h10.892l12.873 43.872L166.37 35.66l8.895.209c1.426 0 2.138.305 2.138 1.119 0 1.832-5.09 0-5.191 4.682l1.832 44.074c.102 2.342.508 3.969 1.222 4.478 1.629 1.222 4.174.611 4.174 1.832 0 .713-.61.916-1.934.916h-13.437c-1.324 0-1.935-.203-1.935-.916 0-1.832 5.701 0 5.701-4.886v-1.221l-1.629-40.818-12.621 44.582c-.713 2.648-.814 2.951-1.629 2.951-1.018 0-1.222-1.018-1.73-3.156l-12.93-44.37zM235.217 54.194v6.515c0 1.73-.408 2.951-1.832 2.951-3.562 0-3.053-10.382-9.161-10.382-4.986 0-9.873 7.533-9.873 18.729 0 11.706 4.581 18.423 11.095 18.423 7.736 0 7.634-8.754 9.365-8.754.713 0 1.018.611 1.018 1.426 0 6.31-6.82 11.705-12.418 11.705-8.347 0-15.37-9.058-15.37-22.089 0-13.638 8.041-21.985 17.61-21.985 4.374.001 7.327 1.222 9.566 3.461zM245.563 35.365c2.035 0 3.461 2.137 3.461 5.09s-1.222 4.785-3.359 4.785c-1.832 0-3.562-1.832-3.562-4.682-.001-3.056 1.628-5.193 3.46-5.193zM262.257 52.364l.205 4.07c4.783-4.174 7.836-6.004 12.315-6.004 6.617 0 10.485 4.478 10.485 12.011v22.902c0 2.343.1 3.665 1.121 4.682 1.322 1.324 4.171.408 4.171 1.935 0 .713-.61 1.018-1.831 1.018H277.12c-1.526 0-2.443-.203-2.443-1.119 0-1.018 4.682 0 4.682-4.682V62.34c0-5.293-3.053-8.447-7.226-8.447-5.396 0-9.362 3.969-9.362 8.652l-.003 23.309c0 2.442.305 3.969 1.526 4.58 1.526.813 4.581.102 4.581 1.424 0 .917-.816 1.119-2.343 1.119h-25.854c-1.73 0-2.646-.203-2.646-1.018 0-1.322 2.545-.713 3.766-1.832.814-.813.814-1.934.814-4.274V61.322c0-5.09-4.58-3.461-4.58-5.09 0-.611 9.263-5.802 9.466-5.802.611 0 1.018.611 1.018 2.035l-.102 33.488c0 3.359.611 4.682 4.072 4.682 4.174 0 4.377-1.527 4.377-4.886V61.116c0-3.766-.408-3.766-3.156-3.766-.916 0-1.629-.306-1.629-.917 0-.61 9.363-6.82 9.568-6.82.611.001.611.816.611 2.751zM357.835 52.566l.103 8.142c0 1.018-.308 1.526-1.121 1.526-3.053 0-1.526-9.465-9.16-9.465-3.461 0-6.312 2.646-6.312 6.717 0 2.037 1.121 4.275 4.073 6.21l7.226 4.885c4.174 2.85 6.004 6.107 6.004 10.689 0 6.82-5.596 12.926-13.638 12.926-7.126 0-10.282-1.934-10.282-4.072v-6.411c0-2.545.408-4.073 1.529-4.073 2.848 0 2.238 11.909 10.075 11.909 3.665 0 7.025-3.562 7.025-8.245 0-2.951-1.526-5.293-4.174-7.126l-7.634-5.291c-3.361-2.342-5.496-5.396-5.496-9.466 0-6.21 5.596-10.993 13.03-10.993 2.848.001 4.681.407 8.752 2.138z"/><path d="M367.937 37.297v18.729c4.073-3.461 7.305-5.191 11.374-5.191 7.534 0 11.195 5.293 11.195 13.538V87.48c0 4.377 4.481 3.256 4.481 4.377 0 .814-.917 1.119-3.564 1.119h-9.974c-1.325 0-1.63-.203-1.63-.916 0-1.526 4.581 0 4.581-4.58V64.272c0-6.209-2.851-9.771-7.634-9.771-5.091 0-8.831 4.172-8.831 9.771v22.19c0 5.496 5.37 4.174 5.37 5.496 0 .814-.713 1.018-2.546 1.018h-12.315c-1.121 0-1.63-.305-1.63-.813 0-1.324 4.986 0 4.986-5.699V41.982c0-4.58-4.986-3.154-4.986-4.58 0-.611 9.773-5.904 9.974-5.904 1.124-.003 1.149 1.424 1.149 5.799zM209.464 85.037c-1.73 0-1.629 4.58-4.174 4.58-1.629 0-2.342-1.526-2.342-3.867V59.182c0-6.109-1.018-8.142-7.228-8.142-6.615 0-17.609 5.699-17.609 13.334 0 1.934.814 2.543 1.934 2.543 7.431 0 4.683-13.741 13.538-13.741 2.238 0 3.054 1.119 3.054 3.461v10.586l-8.958 6.717c-6.717 5.091-9.365 8.449-9.365 12.825 0 3.665 3.359 7.634 6.922 7.634 3.482.016 6.986-2.125 11.808-7.126.916 4.58 2.545 7.126 5.802 7.126 2.443 0 7.43-3.665 7.43-8.347.002-.608-.302-1.016-.812-1.015zm-20.765 4.986c-2.342 0-3.969-1.831-3.969-5.291 0-4.275 3.558-8.958 11.905-14.759l.009 14.251c-1.019 1.525-4.281 5.799-7.945 5.799zM318.441 50.327c-8.549 0-16.183 8.652-16.183 21.171 0 3.869.813 7.839 2.648 12.419l.202.508c-1.018 2.951-2.645 4.886-4.68 4.886-2.038 0-2.951-2.037-2.951-5.293V55.417h5.496c1.73 0 2.543-.406 2.543-1.73 0-1.426-1.018-1.73-2.543-1.73h-5.496V41.675c0-.814-.103-1.527-.511-1.527-.71 0-2.951 4.581-4.579 7.126-1.935 2.951-5.091 6.006-5.091 6.922 0 .814.816 1.222 2.238 1.222h1.935V84.02c0 6.412 2.238 9.873 6.617 9.873 3.361 0 6.617-2.342 8.552-6.718l.1-.305c3.665 4.174 7.025 6.922 12.113 6.922 8.347 0 16.186-9.771 16.186-21.679-.002-12.626-7.739-21.786-16.596-21.786zm.512 41.223c-5.499 0-10.181-7.634-10.181-20.46 0-11.806 3.259-18.118 9.265-18.118s10.483 6.922 10.483 19.95c-.001 11.81-3.665 18.628-9.567 18.628z"/><g><path d="M13.692 110.8c6.898 9.755 14.72 15.408 19.117 15.5 9.05.202 16.928-5.916 23.417-5.751a.608.608 0 0 0 .208.012h.16c.067.012.135 0 .202-.012 6.495-.165 14.365 5.959 23.429 5.75 4.403-.097 12.219-5.744 19.117-15.498h-85.65" fill="#009ddd"/><path d="M5.296 95.43a76.918 76.918 0 0 0 8.39 15.37h85.65a77.076 77.076 0 0 0 8.39-15.37H5.297" fill="#944d85"/><path d="M.684 78.526C1.552 84.546 3.19 90.224 5.3 95.43h102.43c.349-.862.685-1.736 1.009-2.622-6.745-2.115-12.292-7.383-15.29-14.283H.685" fill="#c45152"/><path d="M6.109 44.716C3.387 49.049 1.289 54.574.428 61.62h91.06c1.273-7.163 5.18-13.08 10.563-16.905H6.109" fill="#f2bd2f"/><path d="M.428 61.62c-.312 2.543-.46 5.28-.422 8.233a67.33 67.33 0 0 0 .679 8.678h92.767c-1.547-3.557-2.41-7.536-2.41-11.76 0-1.771.153-3.49.446-5.151H.428" fill="#e19433"/><path d="M56.593 34.809h-.16c-6.188-.104-17.581-6.368-25.672-5.531-4.03.416-16.897 3.086-24.652 15.438h95.94a27.194 27.194 0 0 1 3.022-1.852c-7.265-11.441-19.087-13.207-22.805-13.592-8.091-.831-19.484 5.44-25.673 5.537" fill="#76b845"/><path d="M78.474.077c-.63-.532-12.121 1.583-19.252 9.54-7.125 7.957-6.678 20.07-6.054 20.596.63.532 12.298-1.302 19.252-9.54C79.367 12.44 79.098.597 78.474.077" fill="#76b845"/></g></svg>