<svg xmlns="http://www.w3.org/2000/svg" viewBox="0 0 151.728 257.874"><path d="M43.364 130.934a45.084 45.084 0 0 0 0-3.994s-.421-7.81-1.276-12.76c-1.346-7.816-3.565-15.48-6.999-22.671-4.427-9.283-12.056-15.142-21.375-18.939-3.943-1.609-7.533-3.535-9.898-7.246-4.745-7.458-4.982-15.148-1.175-23.019 3.242-6.711 8.083-12.208 13.499-17.195C29.341 12.942 44.665 4.759 62.339 1.365c13.675-2.627 27.022-1.689 39.654 4.811 8.572 4.407 14.85 11.204 20.049 19.126 8.96 13.66 15.213 28.565 20.145 44.061 4.069 12.778 6.959 25.832 8.421 39.16.671 6.132.731 12.334 1.099 18.501l.017.296c.006.89.006 2.347 0 3.237l-.017.296c-.368 6.167-.429 12.369-1.099 18.501-1.462 13.327-4.352 26.382-8.421 39.16-4.932 15.495-11.184 30.401-20.145 44.061-5.199 7.922-11.477 14.719-20.049 19.126-12.631 6.5-25.979 7.438-39.654 4.811-17.674-3.394-32.998-11.577-46.199-23.745-5.416-4.987-10.256-10.483-13.499-17.195-3.807-7.871-3.57-15.561 1.175-23.019 2.365-3.711 5.955-5.637 9.898-7.246 9.318-3.797 16.948-9.656 21.375-18.939 3.434-7.191 5.653-14.855 6.999-22.671.856-4.953 1.276-12.763 1.276-12.763z" fill="#20211d"/><path d="M112.264 228.67c.761-4.851.333-9.636-.338-14.447-3.015-21.617-13.267-39.538-28.207-55.013-6.006-6.222-13.221-9.041-22.066-7.665-11.714 1.815-20.008 12.767-17.739 24.38.63 3.227 2.143 6.338 3.595 9.339 2.214 4.594 5.012 8.925 7.054 13.589 4.821 11.013 9.434 22.121 13.947 33.26 3.999 9.858 10.811 14.714 21.476 14.915 11.487.219 20.534-7.269 22.278-18.358zm-41.988 5.335a13.053 13.053 0 0 1-.731-1.563c-2.521-6.404-4.785-12.914-7.609-19.176-4.049-8.996-8.466-17.825-12.878-26.654-2.259-4.518-4.705-8.865-4.664-14.174.086-10.675 7.977-19.076 18.622-20.24 9.263-1.014 16.171 2.92 21.99 9.445 9.091 10.191 16.882 21.229 21.531 34.243 2.309 6.48 5.365 18.783 5.214 27.159.313 5.91-1.583 11.109-5.733 16.338-3.373 4.251-9.893 6.132-14.835 6.631-.368.035-.736.05-1.104.05-5.488-.028-13.51-.759-19.803-12.059z" fill="#1a1b13"/><path d="M90.077 246.062c-5.486-.025-13.509-.756-19.802-12.056a13.053 13.053 0 0 1-.731-1.563c-2.521-6.404-4.785-12.914-7.609-19.176-4.049-8.996-8.466-17.825-12.878-26.654-2.259-4.518-4.705-8.865-4.664-14.174.086-10.675 7.977-19.076 18.622-20.24 9.263-1.014 16.171 2.92 21.99 9.445 9.091 10.191 16.882 21.229 21.531 34.243 2.309 6.48 5.365 18.783 5.214 27.159.313 5.91-1.583 11.109-5.733 16.338-3.373 4.251-9.893 6.132-14.835 6.631-.368.031-.736.047-1.105.047z" fill="#1e1f1a"/><path d="M114.135 194.488c-2.657-5.718-5.169-11.507-7.685-17.291-.338-.777-.363-1.689-.434-2.027.035-3.807 2.163-6.364 5.456-7.09 3.232-.711 5.794.514 7.216 3.651 2.441 5.375 4.861 10.766 7.16 16.206 2.083 4.926-.081 9.258-4.836 9.999-2.863.449-5.652-.801-6.877-3.448z" fill="#1e1e18"/><path d="M121.59 193.731c-1.544.835-3.372.457-4.389-1.892-2.428-5.075-4.786-10.185-7.153-15.29-.223-.482-.419-.997-.506-1.517-.25-1.496.65-3.079 2.031-3.547 1.472-.499 2.623.07 3.506 1.253.277.371 5.064 11.155 7.236 16.127 1.324 2.77.319 4.301-.725 4.866z" fill="#b7b7b7"/><g fill="#acaaa8"><path d="M122.017 175.175a1.501 1.501 0 0 1-.124-.48.956.956 0 0 1 .052-.402.84.84 0 0 1 .203-.32c.092-.092.204-.168.337-.229l.185.436a.619.619 0 0 0-.197.156.605.605 0 0 0-.101.197.609.609 0 0 0-.015.222c.01.076.032.153.064.229a.882.882 0 0 0 .106.191.652.652 0 0 0 .128.129.36.36 0 0 0 .142.057.29.29 0 0 0 .147-.021c.05-.021.087-.051.112-.088s.041-.088.046-.15a.938.938 0 0 0-.009-.231 4.679 4.679 0 0 0-.059-.335 2.41 2.41 0 0 1-.043-.4.957.957 0 0 1 .04-.307.573.573 0 0 1 .132-.223.66.66 0 0 1 .23-.152.652.652 0 0 1 .306-.056.695.695 0 0 1 .298.086.978.978 0 0 1 .263.217c.081.093.148.206.205.339.058.137.094.271.104.4a.945.945 0 0 1-.036.363.823.823 0 0 1-.176.303.933.933 0 0 1-.316.224l-.183-.432c.261-.147.328-.372.201-.671-.062-.146-.135-.247-.216-.304s-.166-.066-.252-.03a.183.183 0 0 0-.08.064.259.259 0 0 0-.036.111.67.67 0 0 0 0 .168c.007.065.019.144.038.232.016.079.029.16.044.242.015.084.024.167.03.25.005.084.003.166-.006.244a.789.789 0 0 1-.062.226.618.618 0 0 1-.134.192.705.705 0 0 1-.229.146.761.761 0 0 1-.333.063.8.8 0 0 1-.318-.09.98.98 0 0 1-.278-.223 1.346 1.346 0 0 1-.21-.343zM125.384 177.458l-.318-.748-1.993.846-.191-.451 1.993-.846-.316-.746.415-.176.826 1.945-.416.176zM124.415 180.718l-.213-.501.577-.557-.358-.842-.795.041-.202-.476 2.801-.097.182.428-1.992 2.004zm.687-1.358l.64-.616-.881.048.241.568zM125.411 183.065l-.205-.484.558-.508a.526.526 0 0 0 .155-.258.487.487 0 0 0-.023-.299l-.205-.482-.968.411-.191-.449 2.408-1.022.458 1.079c.027.064.053.126.074.186a.868.868 0 0 1 .066.351.648.648 0 0 1-.1.33.676.676 0 0 1-.101.13.9.9 0 0 1-.27.185.71.71 0 0 1-.79-.136.896.896 0 0 1-.264.408l-.602.558zm.694-2.208l.253.598c.034.081.068.147.104.2a.382.382 0 0 0 .115.118.251.251 0 0 0 .134.038.454.454 0 0 0 .161-.039c.107-.045.172-.111.194-.2.021-.088.003-.201-.056-.339l-.273-.645-.632.269zM128.332 184.405l-.317-.749-1.993.847-.191-.451 1.993-.846-.316-.746.415-.176.825 1.945-.416.176z"/></g><path d="M81.609 97.437c-21.988 0-39.813-17.795-39.813-39.746s17.825-39.746 39.813-39.746 39.813 17.795 39.813 39.746-17.825 39.746-39.813 39.746zm32.263-39.747c0-17.79-14.451-32.211-32.278-32.211S49.317 39.901 49.317 57.69s14.451 32.211 32.278 32.211 32.277-14.421 32.277-32.211z" fill="#1e1e18"/><g fill="#aaa7a6"><path d="M120.797 57.69l-6.193-2.846v5.693z"/><circle cx="106.058" cy="31.572" r="1.333"/><circle cx="106.058" cy="83.809" r="1.333"/><circle cx="57.161" cy="83.809" r="1.333"/><circle cx="57.161" cy="31.572" r="1.333"/><path d="M81.609 18.503l-2.846 6.193h5.693zM42.422 57.69l6.193 2.847v-5.693zM81.789 96.878l2.846-6.193h-5.692z"/></g><path fill="#afacad" d="M105.452 95.267l-2.651 4.139v59.061l2.651 4.14h5.847l2.516-3.913v-19.449l5.485-3.504v-13.956l-5.485-3.464v-19.16l-2.493-3.894z"/><g fill="#20211d"><path d="M115.147 126.193c-.287 0-.515.212-.512.465v1.901h.64v-1.785h.179v1.407h.637v-1.985l-.944-.003zM117.257 126.196c.265 0 .51.206.509.463v1.901h-.637v-1.785h-.179v1.407h-.646v-1.988l.953.002zM109.056 138.897v6.025h-2.652l-1.609-2.152v-6.65l1.632 2.203v3.893h.997v-6.025h2.595l1.666 2.224v6.64l-1.632-2.193v-3.965zM111.685 145.762v2.705h-6.89v-2.705zM109.056 152.217v6.025h-2.652l-1.609-2.152v-6.65l1.632 2.204v3.893h.997v-6.025h2.595l1.666 2.224v6.64l-1.632-2.193v-3.966z"/><path d="M106.427 130.331h.997v2.592l1.632 2.203v-4.795h.997v3.903l1.632 2.193v-6.445l-1.598-2.356h-5.292v6.558l1.632 2.213zM106.427 111.395h.997v2.592l1.632 2.203v-4.795h.997v3.904l1.632 2.193v-6.446l-1.598-2.356h-5.292v6.558l1.632 2.213zM107.084 124.162l2.312-3.361h-4.601v-2.705h6.89v2.746l-2.017 3.32h2.017v2.705h-6.89v-2.705zM110.053 101.927h-3.626v3.361h.997v-2.746l1.632 2.193v3.258h-2.72l-1.541-2.07v-6.701h5.212l1.678 2.244v7.337l-1.632-2.183zM118.625 126.591c0-.645-.579-1.169-1.292-1.169h-2.262c-.713 0-1.292.524-1.292 1.169v1.969h.637v-1.92c0-.339.355-.639.73-.639h2.113c.375 0 .721.3.721.639v1.92h.646l-.001-1.969zM115.257 130.32h1.872v1.878h.637v-1.983c.001-.257-.245-.463-.509-.463l-2.111-.002c-.287 0-.515.211-.512.465v1.21l1.468-.003v-.91h-.631v.336h-.214v-.528zM118.632 124.866v-1.887c0-.795-.713-1.44-1.592-1.44-.879 0-1.575.645-1.568 1.44v.575h-.215v-2.002h-.623v1.937c0 .364.327.659.729.659.403 0 .724-.295.724-.659l.002-.502c0-.472.424-.855.946-.855s.946.383.946.855v1.88l.651-.001z"/><path d="M117.146 124.866v-1.961h-.214l-.001.588c0 .795-.696 1.44-1.575 1.44s-1.577-.644-1.577-1.44l.004-1.941h.634v1.937c0 .472.423.855.945.855s.94-.383.94-.855l.002-.502c0-.364.327-.659.729-.659.403 0 .729.295.729.659v1.88l-.616-.001zM117.876 134.392c.061-.023.075-.032.075-.095s-.036-.079-.097-.103l-4.074-1.196-.001.629 2.259.676-.763.223v-.447h-.643v1.271l3.244-.958z"/><path d="M113.779 130.146c0-.645.579-1.169 1.292-1.169h2.262c.713 0 1.292.524 1.292 1.169v2.051h-.646v-2.002c0-.339-.346-.64-.721-.64h-2.113c-.375 0-.73.3-.73.64v1.418h1.9v-1.103h.634v1.689h-3.022l4.117 1.203c.408.13.7.481.7.894 0 .422-.305.78-.727.901l-4.239 1.249v-2.367h.637v1.538l3.536-1.043c.194-.061.217-.17.217-.278 0-.113-.052-.218-.229-.278l-4.161-1.224.001-2.648z"/></g><path d="M74.416 231.454c-3.187-7.982-6.066-16.101-9.581-23.931-3.736-8.325-7.992-16.423-12.162-24.547-3.187-6.308-3.041-8.391-2.204-13.221.61-3.51 4.009-9.021 8.618-11.204 2.541-1.205 5.36-1.745 8.159-1.477 6.369.615 10.095 3.913 12.818 8.073 10.009 15.284 17.25 31.868 23.473 48.952 1.074 2.95 2.284 5.95 2.718 9.026 1.422 10.06-5.718 18.294-15.909 18.712-7.832.317-12.996-3.026-15.93-10.383z" fill="#1a1b15"/><path d="M83.968 169.855l-.367-.769.806-1.24-1.393-2.918-1.455-.119-.383-.803 5.1.439.541 1.133-2.849 4.277zm.927-2.615l1.144-1.691-.237-.496-2-.103 1.093 2.29zM99.445 193.157c.203.216.506.247.91.102l.348-.155c.679-.32.828-.877.457-1.664l-1.68-3.557-.671.308-2.71 1.28-.675.328 1.68 3.557c.372.787.9 1.023 1.575.705l.341-.17c.297-.188.44-.43.425-.734zm-1.645-.067l-.218-.461-1.162-2.481 1.016-.48 1.184 2.508.196.435c.142.3.044.529-.29.687-.342.161-.585.092-.726-.208zm1.701-.803l-1.388-2.939 1.016-.48 1.388 2.939c.142.3.04.531-.301.692-.337.16-.573.088-.715-.212zM110.048 217.95l-.712-1.727c-.472-1.158-.893-.867-1.817-.489-.924.378-1.426.464-.953 1.619l1.252 3.056-.693.284-1.253-3.051c-.664-1.614-.026-2.024 1.36-2.591 1.386-.568 2.133-.732 2.794.869l1.257 3.07-.687.281-.548-1.321z" fill="#b1afae"/><circle cx="79.164" cy="200.262" r="11.48" fill="#181811"/><circle cx="79.164" cy="200.262" r="9.95" fill="#2c2b25"/><path d="M80.334 202.615c.225.24.563.274 1.011.113l.387-.173c.754-.356.92-.974.507-1.849l-1.866-3.953-.745.342-3.011 1.422-.75.364 1.866 3.953c.413.875 1 1.137 1.75.783l.379-.189c.331-.207.489-.475.472-.813zm-1.828-.075l-.242-.512-1.292-2.757 1.129-.533 1.316 2.786.218.483c.157.333.049.588-.322.763-.379.18-.649.104-.807-.23zm1.891-.892l-1.542-3.265 1.129-.533 1.542 3.265c.157.333.044.59-.335.769-.374.177-.636.097-.794-.236z" fill="#1a1a13"/><circle cx="73.862" cy="202.865" r="1.063" fill="#1e1e18"/><circle cx="66.129" cy="174.029" r="11.48" fill="#181811"/><circle cx="66.129" cy="174.029" r="9.95" fill="#2c2b25"/><path d="M66.599 178.207l-.408-.855.896-1.378-1.547-3.242-1.617-.133-.426-.892 5.667.488.601 1.259-3.166 4.753zm1.029-2.906l1.272-1.879-.263-.552-2.223-.114 1.214 2.545z" fill="#1a1a13"/><circle cx="90.01" cy="226.394" r="11.48" fill="#181811"/><circle cx="90.01" cy="226.394" r="9.95" fill="#2c2b25"/><path d="M91.791 227.639L91 225.72c-.524-1.287-.992-.964-2.018-.543s-1.585.515-1.059 1.799l1.391 3.395-.77.315-1.393-3.39c-.737-1.793-.029-2.249 1.511-2.879 1.54-.631 2.37-.813 3.104.966l1.397 3.411-.764.313-.608-1.468z" fill="#1a1a13"/><g fill="#acaaa8"><path d="M53.843 204.896l-.431-.934-2.486 1.146-.26-.563 2.487-1.146-.428-.93.516-.238 1.118 2.427-.516.238zM52.759 209.087l-.278-.604.686-.662a.665.665 0 0 0 .196-.52.536.536 0 0 0-.05-.189l-.277-.602-1.208.556-.258-.56 3.004-1.384.619 1.346c.037.08.071.157.101.232a1.245 1.245 0 0 1 .097.441.761.761 0 0 1-.031.227.938.938 0 0 1-.205.362c-.047.05-.099.096-.156.138a.997.997 0 0 1-.178.104.904.904 0 0 1-.533.086.937.937 0 0 1-.47-.228c-.038.173-.146.349-.319.526l-.74.731zm.792-2.814l.344.745c.047.101.092.184.14.249.047.065.097.113.149.145s.109.045.171.042a.545.545 0 0 0 .202-.054c.133-.063.212-.148.236-.261.023-.112-.003-.255-.082-.428l-.37-.803-.79.365zM53.273 210.205l-.257-.557 3.003-1.384.258.558-3.004 1.383zM54.15 212.235a1.71 1.71 0 0 1-.163-.647 1.436 1.436 0 0 1 .104-.604c.077-.19.193-.364.352-.522s.354-.291.587-.398c.238-.109.468-.174.691-.19s.432.007.624.073c.191.064.365.17.52.313.153.145.28.323.378.537a1.7 1.7 0 0 1 .154.538c.021.18.011.349-.028.51a1.224 1.224 0 0 1-.596.782l-.266-.575c.089-.051.161-.11.216-.182s.091-.15.111-.238.023-.182.009-.282a1.124 1.124 0 0 0-.098-.316c-.06-.13-.138-.239-.233-.325s-.205-.147-.331-.184a1.045 1.045 0 0 0-.411-.029 1.569 1.569 0 0 0-.476.143 1.535 1.535 0 0 0-.412.267c-.11.103-.193.214-.248.333s-.081.243-.079.373.033.261.093.392c.087.187.187.334.303.442.116.106.253.18.411.217l.314-.145-.343-.744.517-.238.598 1.298-1.621.746-.198-.431.183-.17a1.159 1.159 0 0 1-.367-.28 1.894 1.894 0 0 1-.295-.464zM55.695 215.589c-.101-.218-.154-.434-.162-.647s.026-.415.103-.604c.077-.19.194-.363.353-.522a1.97 1.97 0 0 1 .587-.398c.237-.109.468-.173.69-.19a1.458 1.458 0 0 1 1.145.386c.153.145.279.323.378.537.082.179.134.358.154.538.021.179.011.35-.029.511-.04.162-.11.31-.209.444-.1.134-.229.247-.387.337l-.265-.575a.715.715 0 0 0 .215-.182c.055-.07.091-.149.111-.237s.023-.183.009-.283a1.164 1.164 0 0 0-.097-.316c-.061-.13-.139-.239-.234-.325s-.205-.147-.33-.184-.263-.046-.412-.028a1.556 1.556 0 0 0-.475.141 1.529 1.529 0 0 0-.412.268 1.064 1.064 0 0 0-.248.333c-.055.118-.082.243-.08.373s.033.261.094.392c.086.188.186.334.302.442a.918.918 0 0 0 .411.217l.314-.145-.342-.744.516-.238.598 1.298-1.621.746-.198-.432.184-.17a1.159 1.159 0 0 1-.368-.279 1.857 1.857 0 0 1-.295-.464zM57.731 219.883l-1.058-2.295 3.004-1.384 1.027 2.23-.517.238-.769-1.67-.68.313.721 1.563-.513.235-.72-1.563-.779.359.799 1.735-.515.239zM59.197 223.065l-.278-.604.685-.662a.685.685 0 0 0 .186-.332.623.623 0 0 0-.04-.378l-.277-.601-1.207.556-.258-.56 3.004-1.383.619 1.344c.037.081.07.158.101.232a1.255 1.255 0 0 1 .097.442.759.759 0 0 1-.031.226 1.034 1.034 0 0 1-.081.193.993.993 0 0 1-.279.308 1.041 1.041 0 0 1-.179.104.911.911 0 0 1-.533.085.943.943 0 0 1-.47-.227c-.039.173-.146.348-.319.525l-.74.732zm.792-2.816l.344.746c.046.101.092.184.14.248a.518.518 0 0 0 .148.145c.054.031.11.045.172.043a.525.525 0 0 0 .201-.055c.135-.062.213-.148.237-.261.023-.111-.003-.254-.083-.427l-.369-.803-.79.364z"/></g><ellipse cx="81.609" cy="57.69" rx="32.278" ry="32.211" fill="#20211d"/><path d="M81.724 32.587c13.954.017 25.032 11.18 25.002 25.194-.029 13.743-11.35 25.041-25.065 25.013-13.858-.028-25.189-11.363-25.168-25.177.021-13.878 11.279-25.048 25.231-25.03zm23.638 25.125c.013-13.322-10.287-23.708-23.563-23.759-13.363-.051-23.908 10.37-23.931 23.648-.022 13.283 10.505 23.811 23.815 23.819 13.153.008 23.666-10.517 23.679-23.708z" fill="#0a0a0a"/><path d="M105.356 57.716c.013-13.322-10.287-23.708-23.563-23.759-13.363-.051-23.908 10.37-23.931 23.648-.022 13.283 10.505 23.811 23.815 23.819 13.153.008 23.666-10.518 23.679-23.708z" fill="#373735"/><g fill="#292b27"><path d="M96.614 42.661l-3.682 1.763 1.919 1.919zM66.738 42.661l1.764 3.682 1.919-1.919zM66.604 72.452l3.683-1.764-1.919-1.919zM96.442 72.72l-1.764-3.683-1.919 1.919z"/></g><path d="M81.609 79.805a104.175 104.175 0 0 1-3.214-.04c-1.624-.05-2.355-.892-2.476-2.541-.156-2.133-.358-4.286-.832-6.364-.817-3.6-3.167-5.89-6.762-6.691-1.956-.439-3.973-.64-5.97-.812-2.173-.187-2.788-.645-2.859-2.763a87.736 87.736 0 0 1-.052-2.903c.001-.969.018-1.937.052-2.903.071-2.118.686-2.577 2.859-2.763 1.997-.171 4.014-.373 5.97-.812 3.595-.802 5.945-3.091 6.762-6.691.474-2.077.676-4.231.832-6.364.121-1.649.852-2.491 2.476-2.541 1.067-.034 2.141-.039 3.214-.04 1.072.001 2.147.006 3.214.04 1.624.05 2.355.892 2.476 2.541.156 2.133.358 4.286.832 6.364.817 3.6 3.167 5.89 6.762 6.691 1.956.439 3.973.64 5.97.812 2.173.187 2.788.645 2.859 2.763.034.966.05 1.935.052 2.903a85.034 85.034 0 0 1-.052 2.903c-.071 2.118-.686 2.577-2.859 2.763-1.997.171-4.014.373-5.97.812-3.595.802-5.945 3.091-6.762 6.691-.474 2.077-.676 4.231-.832 6.364-.121 1.649-.852 2.491-2.476 2.541-1.067.034-2.141.039-3.214.04z" fill="#1d1d17"/><g fill="#26261f"><path d="M86.284 36.716v41.948H76.85V36.716z"/><path d="M60.635 52.973h41.948v9.434H60.635z"/></g><path d="M81.612 62.337a4.645 4.645 0 1 1 0-9.293 4.646 4.646 0 0 1 4.644 4.649 4.642 4.642 0 0 1-4.644 4.644z" fill="#1a1b15"/></svg>