<?xml version="1.0" encoding="utf-8"?>
<!-- Generator: Adobe Illustrator 22.0.0, SVG Export Plug-In . SVG Version: 6.00 Build 0)  -->
<svg version="1.1" id="Capa_1" xmlns="http://www.w3.org/2000/svg" xmlns:xlink="http://www.w3.org/1999/xlink" x="0px" y="0px"
	 viewBox="0 0 376.213 376.213" style="enable-background:new 0 0 376.213 376.213;" xml:space="preserve">
<g>
	<path style="fill:#A8A18C;" d="M188.106,0.25C84.356,0.25,0.25,84.356,0.25,188.107c0,103.75,84.106,187.856,187.856,187.856
		s187.856-84.106,187.856-187.856C375.963,84.356,291.856,0.25,188.106,0.25z M188.106,225.19c-20.48,0-37.083-16.603-37.083-37.083
		s16.603-37.083,37.083-37.083s37.083,16.603,37.083,37.083S208.587,225.19,188.106,225.19z"/>
	<path style="fill:#232220;" d="M188.106,0.25V0C84.218,0,0,84.218,0,188.107c0,103.888,84.218,188.106,188.106,188.106
		c103.888,0,188.106-84.218,188.106-188.106C376.213,84.218,291.995,0,188.106,0V0.25V0.5c51.807,0,98.707,20.998,132.658,54.949
		c33.95,33.951,54.949,80.851,54.949,132.658c0,51.807-20.998,98.707-54.949,132.658c-33.951,33.95-80.851,54.949-132.658,54.949
		c-51.807,0-98.707-20.998-132.658-54.949C21.498,286.814,0.5,239.914,0.5,188.107C0.5,136.3,21.498,89.4,55.449,55.449
		C89.4,21.498,136.299,0.5,188.106,0.5V0.25z M188.106,225.19v-0.25c-10.172,0-19.379-4.122-26.045-10.788
		c-6.666-6.666-10.788-15.873-10.788-26.045c0-10.172,4.122-19.379,10.788-26.045c6.666-6.666,15.873-10.788,26.045-10.788
		c10.172,0,19.379,4.122,26.045,10.788c6.666,6.666,10.788,15.873,10.788,26.045c0,10.172-4.122,19.379-10.788,26.045
		c-6.666,6.666-15.873,10.788-26.045,10.788V225.19v0.25c20.619,0,37.333-16.714,37.333-37.333
		c0-20.619-16.714-37.333-37.333-37.333c-20.619,0-37.333,16.714-37.333,37.333c0,20.619,16.714,37.333,37.333,37.333V225.19z"/>
	<path style="fill:#C75433;" d="M188.106,11.521c-97.525,0-176.585,79.06-176.585,176.585s79.06,176.585,176.585,176.585
		s176.585-79.06,176.585-176.585S285.632,11.521,188.106,11.521z M188.106,225.19c-20.48,0-37.083-16.603-37.083-37.083
		s16.603-37.083,37.083-37.083s37.083,16.603,37.083,37.083S208.587,225.19,188.106,225.19z"/>
	<path style="fill:#A39B7C;" d="M306.744,59.705H69.469c-0.509,0.47-1.015,0.942-1.518,1.419h240.311
		C307.759,60.648,307.253,60.174,306.744,59.705z"/>
	<path style="fill:#A39B7C;" d="M354.96,135.782H21.252c-0.147,0.472-0.294,0.945-0.438,1.419h334.584
		C355.254,136.727,355.108,136.253,354.96,135.782z"/>
	<path style="fill:#A39B7C;" d="M352.954,246.448H23.259c0.168,0.475,0.337,0.947,0.509,1.42h328.678
		C352.616,247.395,352.786,246.922,352.954,246.448z"/>
	<path style="fill:#A39B7C;" d="M327.24,293.969H48.973c0.361,0.475,0.726,0.947,1.093,1.419h276.082
		C326.514,294.917,326.879,294.444,327.24,293.969z"/>
	<path style="fill:#A39B7C;" d="M273.331,340.782H102.882c0.858,0.479,1.721,0.953,2.588,1.419h165.273
		C271.61,341.735,272.473,341.261,273.331,340.782z"/>
	<path style="fill:#A39B7C;" d="M265.413,344.948H110.8c0.977,0.482,1.957,0.955,2.943,1.42H262.47
		C263.456,345.903,264.437,345.43,265.413,344.948z"/>
	<path style="fill:#A39B7C;" d="M256.327,349.115H119.886c1.144,0.485,2.292,0.958,3.448,1.419h129.545
		C254.034,350.073,255.184,349.6,256.327,349.115z"/>
	<path style="fill:#A39B7C;" d="M245.516,353.282H130.697c1.412,0.49,2.832,0.964,4.261,1.419h106.297
		C242.683,354.246,244.104,353.772,245.516,353.282z"/>
	<path style="fill:#A39B7C;" d="M225.643,358.868h-75.161c-2.001-0.439-3.99-0.913-5.965-1.42h87.18
		c-2.003,0.515-4.02,0.994-6.05,1.438"/>
	<path style="fill:#A39B7C;" d="M331.043,288.784H45.169c0.603,0.854,1.211,1.7,1.828,2.542h282.219
		C329.832,290.484,330.441,289.637,331.043,288.784z"/>
	<path style="fill:#A39B7C;" d="M311.704,64.473c19.07,19.064,33.758,42.514,42.419,68.707H22.09
		c8.661-26.193,23.348-49.643,42.419-68.707H311.704z"/>
	<polyline style="fill:#040006;" points="127.19,104.445 127.19,71.323 121.521,71.323 121.613,92.622 95.407,71.593 95.5,104.805 
		100.426,104.805 100.426,83.327 127.19,104.445 	"/>
	<path style="fill:#040006;" d="M130.814,104.986l4.366-7.22h-3.996v-5.054h6.599l11.988-21.119l19.145,33.393h-6.784l-3.902-7.22
		h-17.007l-4.09,7.22H130.814 M143.546,92.622h12.266l-6.132-10.92L143.546,92.622"/>
	<polyline style="fill:#040006;" points="217.427,104.986 211.85,104.986 211.85,71.684 230.809,93.073 249.952,71.233 
		249.952,104.986 244.005,104.986 243.912,86.845 230.715,102.278 217.427,86.936 217.427,104.986 	"/>
	<rect x="260.825" y="70.871" style="fill:#040006;" width="5.576" height="34.115"/>
	<path style="fill:#C75433;" d="M168.729,88.65c0-10.017,8.365-18.14,18.681-18.14s18.679,8.123,18.679,18.14
		c0,10.019-8.363,18.141-18.679,18.141S168.729,98.668,168.729,88.65 M187.41,101.375c7.248,0,13.103-5.686,13.103-12.726
		c0-6.948-5.854-12.635-13.103-12.635c-7.156,0-13.012,5.687-13.012,12.635C174.398,95.69,180.254,101.375,187.41,101.375"/>
	<polygon style="fill:#040006;" points="271.698,76.556 271.698,71.773 270.117,71.773 270.117,70.871 274.486,70.871 
		274.486,71.773 272.813,71.773 272.813,76.556 	"/>
	<polygon style="fill:#040006;" points="278.018,76.529 276.344,72.857 276.344,76.556 275.229,76.556 275.229,70.871 
		276.438,70.871 278.018,74.392 279.597,70.904 280.806,70.904 280.806,76.589 279.69,76.589 279.69,72.89 	"/>
	<path style="fill:#C75433;" d="M95.407,110.419v14.377h170.994v-14.377H95.407z M109.857,119.915c0,0.86-0.328,1.471-0.983,1.834
		c-0.655,0.361-1.797,0.543-3.425,0.543h-3.2c-0.982,0-1.707-0.052-2.176-0.154c-0.468-0.102-0.864-0.275-1.188-0.521
		c-0.38-0.291-0.656-0.648-0.829-1.071c-0.173-0.425-0.259-0.96-0.259-1.606v-2.494c0-1.311,0.319-2.225,0.958-2.742
		c0.639-0.519,1.799-0.777,3.481-0.777h3.213c1.038,0,1.803,0.046,2.296,0.136s0.882,0.241,1.164,0.454
		c0.295,0.221,0.514,0.52,0.655,0.894c0.141,0.375,0.211,0.845,0.211,1.41c0,0.135-0.001,0.239-0.003,0.313l-0.01,0.202h-2.884
		v-0.024c0-0.422-0.131-0.71-0.392-0.866c-0.262-0.155-0.853-0.233-1.771-0.233h-1.676c-0.982,0-1.612,0.115-1.889,0.344
		c-0.276,0.229-0.414,0.715-0.414,1.456v1.271c0,0.659,0.156,1.111,0.469,1.357c0.312,0.245,0.927,0.368,1.847,0.368h1.663
		c0.826,0,1.396-0.072,1.708-0.218c0.312-0.146,0.468-0.396,0.468-0.753c0-0.049-0.009-0.131-0.025-0.245v-0.03h-3.384v-1.85h6.375
		V119.915z M123.981,119.251c0,1.016-0.262,1.757-0.785,2.227c-0.522,0.468-1.353,0.703-2.491,0.703h-9.102v-9.146h8.26
		c1.438,0,2.483,0.244,3.138,0.733c0.653,0.489,0.98,1.269,0.98,2.338V119.251z M129.983,120.068h-4.264v-2.34h4.264V120.068z
		 M142.465,119.177c0.249,0.291,0.373,0.668,0.373,1.131v1.873h-2.878v-1.395c0-0.36-0.087-0.608-0.262-0.743
		c-0.176-0.135-0.521-0.202-1.034-0.202h-4.289v2.34h-2.884v-9.146h7.564c1.492,0,2.509,0.215,3.049,0.645
		c0.539,0.43,0.81,1.214,0.81,2.353c0,0.79-0.12,1.378-0.36,1.763s-0.644,0.643-1.208,0.773
		C141.843,118.684,142.216,118.887,142.465,119.177z M157.265,118.883c0,0.704-0.081,1.276-0.243,1.716
		c-0.163,0.44-0.419,0.791-0.769,1.054c-0.316,0.233-0.733,0.398-1.253,0.494c-0.519,0.097-1.321,0.145-2.409,0.145h-3.371
		c-1.101,0-1.906-0.048-2.416-0.145c-0.51-0.096-0.926-0.261-1.246-0.494c-0.362-0.263-0.624-0.604-0.784-1.029
		c-0.16-0.424-0.24-0.985-0.24-1.686v-2.494c0-0.766,0.08-1.371,0.24-1.817s0.422-0.801,0.784-1.063
		c0.316-0.229,0.737-0.393,1.262-0.491c0.525-0.099,1.321-0.147,2.388-0.147h3.384c1.07,0,1.871,0.049,2.4,0.147
		s0.949,0.263,1.262,0.491c0.35,0.259,0.605,0.611,0.769,1.057c0.162,0.447,0.243,1.018,0.243,1.714V118.883z M174.209,122.181
		h-2.783v-6.517l-3.89,6.517h-1.879l-3.857-6.517v6.517h-2.796v-9.146h4.244l3.358,5.712l3.415-5.712h4.188V122.181z
		 M195.676,120.964c-0.163,0.349-0.436,0.646-0.819,0.892c-0.253,0.155-0.597,0.267-1.031,0.334
		c-0.434,0.067-1.063,0.102-1.885,0.102h-3.833c-1.572,0-2.624-0.171-3.156-0.513c-0.53-0.342-0.796-0.979-0.796-1.913
		c0-0.054,0.003-0.143,0.009-0.268c0.007-0.125,0.016-0.277,0.028-0.458l2.84-0.006v0.166c0,0.344,0.087,0.576,0.26,0.697
		s0.535,0.181,1.088,0.181h3.611c0.354,0,0.607-0.059,0.759-0.175c0.152-0.117,0.229-0.31,0.229-0.58
		c0-0.274-0.089-0.471-0.263-0.59c-0.176-0.118-0.552-0.198-1.129-0.239l-4.517-0.099c-1.13-0.032-1.895-0.241-2.292-0.626
		c-0.399-0.386-0.599-1.086-0.599-2.102c0-0.523,0.053-0.955,0.158-1.296c0.105-0.339,0.274-0.622,0.507-0.847
		c0.273-0.254,0.632-0.435,1.074-0.541c0.443-0.106,1.164-0.16,2.163-0.16h4.39c1.088,0,1.871,0.193,2.35,0.578
		s0.718,1.009,0.718,1.873l-0.003,0.185c-0.002,0.065-0.01,0.172-0.022,0.319h-2.77v-0.037c0-0.303-0.079-0.53-0.237-0.683
		c-0.159-0.15-0.396-0.227-0.712-0.227h-3.313c-0.553,0-0.918,0.054-1.095,0.16s-0.266,0.293-0.266,0.559
		c0,0.263,0.08,0.451,0.24,0.568c0.16,0.116,0.455,0.191,0.886,0.224l4.731,0.074c1.079,0.028,1.839,0.264,2.279,0.706
		s0.661,1.197,0.661,2.267C195.919,120.125,195.837,120.617,195.676,120.964z M204.646,118.895v3.286h-2.878v-3.286l-5.191-5.859
		h3.535l3.093,3.636l3.238-3.636h3.409L204.646,118.895z M222.239,120.964c-0.163,0.349-0.436,0.646-0.819,0.892
		c-0.253,0.155-0.597,0.267-1.031,0.334c-0.434,0.067-1.063,0.102-1.884,0.102h-3.834c-1.571,0-2.624-0.171-3.155-0.513
		s-0.797-0.979-0.797-1.913c0-0.054,0.004-0.143,0.01-0.268s0.016-0.277,0.028-0.458l2.84-0.006v0.166
		c0,0.344,0.086,0.576,0.259,0.697s0.536,0.181,1.088,0.181h3.612c0.354,0,0.606-0.059,0.759-0.175
		c0.151-0.117,0.228-0.31,0.228-0.58c0-0.274-0.088-0.471-0.263-0.59c-0.175-0.118-0.552-0.198-1.129-0.239l-4.517-0.099
		c-1.13-0.032-1.894-0.241-2.292-0.626c-0.398-0.386-0.598-1.086-0.598-2.102c0-0.523,0.053-0.955,0.157-1.296
		c0.106-0.339,0.275-0.622,0.507-0.847c0.274-0.254,0.632-0.435,1.075-0.541c0.442-0.106,1.164-0.16,2.163-0.16h4.39
		c1.088,0,1.871,0.193,2.349,0.578c0.479,0.385,0.719,1.009,0.719,1.873l-0.004,0.185c-0.002,0.065-0.009,0.172-0.021,0.319h-2.771
		v-0.037c0-0.303-0.079-0.53-0.236-0.683c-0.159-0.15-0.396-0.227-0.712-0.227h-3.314c-0.553,0-0.917,0.054-1.094,0.16
		c-0.178,0.106-0.267,0.293-0.267,0.559c0,0.263,0.081,0.451,0.241,0.568c0.16,0.116,0.455,0.191,0.886,0.224l4.73,0.074
		c1.079,0.028,1.839,0.264,2.279,0.706c0.441,0.442,0.661,1.197,0.661,2.267C222.482,120.125,222.401,120.617,222.239,120.964z
		 M234.549,115.277h-3.94v6.904h-2.871v-6.904h-3.94v-2.241h10.752V115.277z M246.891,122.181h-10.405v-9.146h10.291v2.229h-7.419
		v1.382h6.988v1.923h-6.988v1.4h7.533V122.181z M264.012,122.181h-2.783v-6.517l-3.89,6.517h-1.879l-3.858-6.517v6.517h-2.795
		v-9.146h4.243l3.358,5.712l3.416-5.712h4.188V122.181z"/>
	<path style="fill:#C75433;" d="M138.948,115.314h-4.573v2.235h4.573c0.384,0,0.652-0.087,0.807-0.261
		c0.153-0.174,0.23-0.488,0.23-0.942c0-0.36-0.082-0.623-0.246-0.786C139.574,115.396,139.311,115.314,138.948,115.314z"/>
	<path style="fill:#C75433;" d="M151.825,115.209h-1.84c-1.037,0-1.718,0.125-2.04,0.375c-0.322,0.249-0.484,0.725-0.484,1.425
		v1.271c0,0.659,0.17,1.111,0.51,1.357c0.339,0.245,1.015,0.368,2.027,0.368h1.827c1.017,0,1.691-0.124,2.024-0.371
		c0.333-0.248,0.499-0.707,0.499-1.38v-1.295c0-0.672-0.166-1.132-0.499-1.379C153.517,115.333,152.842,115.209,151.825,115.209z"/>
	<path style="fill:#C75433;" d="M120.595,115.667c-0.345-0.252-0.881-0.378-1.61-0.378h-4.51v4.668h4.87
		c0.611,0,1.059-0.12,1.341-0.362c0.282-0.241,0.424-0.62,0.424-1.137v-1.609C121.109,116.313,120.938,115.918,120.595,115.667z"/>
	<path style="fill:#191918;" d="M154.775,318.497l8.525-0.008c3.486,0,6.314-2.825,6.314-6.304c0-3.486-2.828-6.309-6.314-6.309
		l-2.214,0.012c-0.176,0-0.317-0.144-0.317-0.32c0-0.178,0.142-0.32,0.317-0.32l8.509,0.002l0.003-2.674h-8.513
		c-1.648,0-2.988,1.338-2.988,2.984c0,1.648,1.34,2.983,2.988,2.983l2.224,0.028c1.997,0,3.617,1.616,3.617,3.607
		c0,1.993-1.62,3.612-3.617,3.612h-8.531L154.775,318.497z"/>
	<path style="fill:#191918;" d="M154.778,315.164h8.531c1.652,0,2.986-1.334,2.986-2.984c0-1.647-1.334-2.98-2.986-2.98
		l-2.224-0.023c-1.998,0-3.615-1.618-3.615-3.615c0-1.991,1.617-3.607,3.615-3.607l8.513-0.002l-0.003-2.686h-8.509
		c-3.485,0-6.315,2.819-6.315,6.303c0,3.482,2.83,6.306,6.315,6.306l2.201,0.003l0.309,0.309l-0.309,0.306l-8.513,0.007
		L154.778,315.164z"/>
	<path style="fill:#191918;" d="M176.226,315.808c-1.479,0-2.69-1.182-2.69-2.687v-8.535c0-1.449,1.212-2.645,2.69-2.645
		l9.102,0.003v-2.68h-9.102c-2.962,0-5.36,2.396-5.36,5.352v8.505c0,2.956,2.398,5.354,5.36,5.354l9.063,0.004l-0.003-2.674
		L176.226,315.808z"/>
	<path style="fill:#191918;" d="M174.466,304.664c0-1.074,0.862-1.945,1.936-1.945h8.926v2.549h-7.729
		c-0.597,0-0.604,0.596-0.604,0.596h6.213v2.537h-8.745L174.466,304.664z"/>
	<path style="fill:#191918;" d="M176.4,315.009c-1.07,0-1.939-0.865-1.939-1.935v-3.741h8.745v2.544h-6.213
		c0.008,0.598,0.604,0.602,0.604,0.602h7.73l-0.003,2.527L176.4,315.009z"/>
	<path style="fill:#191918;" d="M191.703,315.802c-1.474,0-2.678-1.204-2.678-2.681v-8.505c0-1.479,1.195-2.675,2.671-2.675h8.813
		v-2.677h-8.835c-2.959,0-5.358,2.396-5.358,5.352v8.505c0,2.956,2.419,5.354,5.38,5.354l8.813,0.004v-12.601h-7.575v2.671h4.899
		v7.253H191.703z"/>
	<path style="fill:#191918;" d="M189.925,312.91c0,1.073,0.867,1.95,1.941,1.95h5.229v-5.693h-4.047v2.546h1.503l0.005,0.598h-1.495
		c-0.326,0-0.596-0.271-0.596-0.598l-0.012-5.687c0,0-0.001-0.593,0.6-0.607h7.458l-0.004-2.536l-8.642,0.002
		c-1.074,0-1.941,0.87-1.941,1.945V312.91z"/>
	<path style="fill:#191918;" d="M215.795,299.351c0-0.693,0.269-1.349,0.768-1.843c0.49-0.493,1.148-0.763,1.84-0.763
		c0.702,0,1.358,0.27,1.852,0.763c0.491,0.494,0.766,1.149,0.766,1.843c0,1.439-1.175,2.61-2.617,2.61
		c-0.691,0-1.35-0.269-1.84-0.762C216.063,300.706,215.795,300.05,215.795,299.351 M218.402,302.39c0.813,0,1.577-0.318,2.15-0.891
		c0.57-0.573,0.889-1.337,0.889-2.148c0-0.807-0.318-1.566-0.889-2.143c-0.573-0.567-1.338-0.883-2.15-0.883
		c-1.672,0-3.033,1.354-3.033,3.025c0,0.812,0.316,1.575,0.894,2.148C216.831,302.072,217.594,302.39,218.402,302.39z"/>
	<path style="fill:#191918;" d="M217.627,299.237h0.889l0.411-0.033c0.31-0.075,0.42-0.297,0.42-0.541l-0.197-0.472l-0.658-0.145
		h-0.864V299.237 M217.627,299.606v1.433h-0.441v-3.363h1.248c0.469,0.005,0.746,0.005,1.006,0.205
		c0.252,0.184,0.357,0.465,0.357,0.777c0,0.786-0.637,0.891-0.799,0.921l0.945,1.46h-0.531l-0.921-1.433H217.627z"/>
	<path style="fill:#191918;" d="M215.582,315.802h-7.119v2.675h10.832l-5.633-16.699c-0.496-1.629-2.121-2.826-4.048-2.826
		c-1.93,0-3.553,1.194-4.048,2.819l-5.686,16.706h2.835l5.518-16.239c0.227-0.538,0.754-0.914,1.376-0.914
		c0.617,0,1.148,0.376,1.374,0.911L215.582,315.802z"/>
	<path style="fill:#191918;" d="M203.665,318.064l5.14-15.15c0.113-0.324,0.42-0.559,0.783-0.559c0.362,0,0.672,0.234,0.783,0.559
		l4.062,12.032h-5.949l0.004-2.261l-1.82,5.379H203.665z M208.487,312.685L208.487,312.685L208.487,312.685z M210.478,312.115
		l-0.895-2.667l-0.902,2.667H210.478z"/>
	<path style="fill:#A39B7C;" d="M329.872,199.451H307.31c-1.324,0-2.406-1.083-2.406-2.406v-22.563c0-1.323,1.082-2.406,2.406-2.406
		h22.563c1.323,0,2.406,1.083,2.406,2.406v22.563C332.278,198.368,331.195,199.451,329.872,199.451z"/>
	<path style="fill:#191918;" d="M299.494,199.451h-49.31c-1.896,0-3.448-1.552-3.448-3.448v-20.479c0-1.896,1.552-3.448,3.448-3.448
		h49.31c1.896,0,3.448,1.552,3.448,3.448v20.479C302.942,197.899,301.391,199.451,299.494,199.451z"/>
	<path d="M318.299,177.165c-0.063,0.172-0.118,0.306-0.164,0.401c-0.047,0.096-0.128,0.144-0.242,0.144
		c-0.229,0-0.328-0.187-0.295-0.56l0.015-0.172c0.021-0.239-0.03-0.35-0.079-0.446l-0.197-0.192
		c-0.078-0.038-0.193-0.057-0.347-0.057c-0.134,0-0.301,0.028-0.502,0.086c-0.201,0.057-0.424,0.143-0.667,0.258
		c-0.245,0.114-0.498,0.256-0.762,0.423c-0.263,0.168-0.52,0.365-0.769,0.595c-0.624,0.573-1.115,1.219-1.474,1.936
		c-0.359,0.717-0.573,1.463-0.641,2.236c-0.039,0.45-0.029,0.852,0.031,1.205c0.06,0.354,0.159,0.657,0.3,0.91
		s0.31,0.447,0.509,0.58c0.198,0.135,0.422,0.201,0.67,0.201c0.191,0,0.411-0.052,0.659-0.158c0.276-0.649,0.471-1.201,0.582-1.655
		s0.176-0.781,0.193-0.982c0.022-0.258-0.06-0.41-0.246-0.458l-0.19-0.036l-0.17-0.029l-0.115-0.071l-0.028-0.165
		c0.015-0.172,0.151-0.258,0.409-0.258c0.058,0,0.209,0.014,0.455,0.043c0.246,0.028,0.599,0.043,1.058,0.043
		c0.438,0,0.787-0.02,1.044-0.058s0.428-0.058,0.515-0.058c0.238,0,0.351,0.086,0.335,0.259l-0.073,0.187l-0.158,0.085l-0.205,0.051
		l-0.214,0.064c-0.269,0.124-0.456,0.33-0.563,0.616c-0.106,0.287-0.222,0.65-0.347,1.09l-0.435,1.534
		c-0.515,0.2-1.013,0.347-1.494,0.438c-0.48,0.091-0.903,0.136-1.266,0.136c-1.09,0-1.911-0.317-2.462-0.953
		c-0.552-0.636-0.777-1.518-0.679-2.646c0.171-1.949,1.159-3.531,2.967-4.745c1.239-0.841,2.639-1.262,4.196-1.262
		c0.832,0,1.237,0.124,1.215,0.373c-0.005,0.057-0.028,0.157-0.069,0.301L318.299,177.165z"/>
	<path d="M316.457,195.715v-3.511h1.314c0.269,0,0.474,0.034,0.614,0.102c0.141,0.066,0.251,0.169,0.333,0.306
		c0.081,0.137,0.122,0.291,0.122,0.464c0,0.205-0.059,0.399-0.178,0.582c-0.118,0.183-0.286,0.322-0.503,0.419l1.149,1.639h-0.89
		l-0.873-1.436h-0.402v1.436H316.457z M317.145,193.798h0.169c0.302,0,0.51-0.065,0.624-0.196c0.115-0.131,0.173-0.28,0.173-0.446
		c0-0.144-0.047-0.258-0.141-0.343c-0.093-0.084-0.283-0.127-0.57-0.127h-0.255V193.798z"/>
	<path d="M321.371,195.803c-0.365,0-0.683-0.076-0.953-0.227c-0.271-0.151-0.476-0.368-0.616-0.652
		c-0.142-0.284-0.211-0.605-0.211-0.964c0-0.357,0.069-0.679,0.211-0.963c0.141-0.285,0.347-0.503,0.618-0.654
		c0.272-0.15,0.59-0.227,0.951-0.227s0.677,0.076,0.949,0.227c0.271,0.151,0.479,0.369,0.619,0.654
		c0.141,0.284,0.211,0.605,0.211,0.963c0,0.358-0.07,0.68-0.211,0.964s-0.346,0.501-0.616,0.652
		C322.054,195.727,321.736,195.803,321.371,195.803z M321.371,195.322c0.339,0,0.591-0.139,0.756-0.414
		c0.165-0.276,0.248-0.593,0.248-0.949c0-0.357-0.083-0.673-0.249-0.948c-0.166-0.274-0.418-0.411-0.755-0.411
		c-0.338,0-0.59,0.137-0.756,0.411c-0.167,0.275-0.249,0.591-0.249,0.948c0,0.356,0.082,0.673,0.247,0.949
		C320.778,195.183,321.031,195.322,321.371,195.322z"/>
	<polygon points="323.808,195.715 323.808,192.205 324.773,192.205 325.621,194.674 326.493,192.205 327.342,192.205 
		327.342,195.715 326.668,195.715 326.668,193.066 325.81,195.481 325.223,195.481 324.382,193.031 324.382,195.715 	"/>
	<path d="M311.833,193.122c0.012-0.191-0.69-0.156-1.3-0.831c-0.11-0.123-0.569-0.631-0.532-1.278
		c0.026-0.477,0.312-0.822,0.469-1.001c1.672-1.905,5.803-4.284,6.351-4.537c0.037-0.018,0.435-0.216,0.527-0.308l0.088-0.269
		c-0.217-0.276-2.649,1.27-4.814,2.685c0,0-1.794,1.227-3.718,3.073c0,0-0.383,0.309-0.761,0.956
		c-0.294,0.506-0.29,0.686-0.272,0.785c0.073,0.416,0.585,0.644,0.873,0.767C310.141,193.763,311.813,193.415,311.833,193.122z"/>
	<path d="M325.425,188.083c0.666-0.1,1.646-1.414,2.813-2.685c0.362-0.394,0.727-0.635,1.022-1.214
		c0.045-0.089,0.11-0.458-0.016-0.767c-0.608-1.489-5.159-0.588-6.392-0.447c0,0-1.095,0.154-1.061,0.367
		c0.038,0.234,1.135,0.179,1.177,0.176c0.715-0.054,1.258-0.075,2.328-0.128c0.163-0.008,0.462-0.059,0.823,0.04
		c0.095,0.025,0.941,0.271,1.158,0.967c0.134,0.429-0.036,0.819-0.151,1.086c-0.404,0.932-1.139,1.494-1.374,1.706
		c-0.018,0.016-0.739,0.635-0.655,0.843C325.141,188.133,325.358,188.093,325.425,188.083z"/>
	<path d="M325.913,184.245c-0.02-0.354-1.738-0.688-1.875-0.342c-0.02,0.091-0.04,0.183-0.063,0.273
		c-0.104,0.431-0.229,0.84-0.372,1.228c-0.145,0.388-0.308,0.747-0.489,1.077s-0.368,0.61-0.561,0.84
		c-0.524,0.642-1.212,0.963-2.063,0.963c-0.335,0-0.581-0.028-0.738-0.086s-0.223-0.239-0.196-0.546
		c0.01-0.105,0.024-0.193,0.045-0.266l0.068-0.209l1.793-5.745c0.054-0.182,0.108-0.337,0.163-0.467
		c0.054-0.129,0.118-0.229,0.191-0.302c0.073-0.071,0.163-0.124,0.271-0.157c0.108-0.034,0.248-0.051,0.42-0.051
		c0.603,0,1.05,0.211,1.343,0.632c0.156,0.225,0.262,0.499,0.315,0.821c0.024,0.145,0.131,0.261,0.268,0.313
		c0.233,0.089,0.525,0.161,0.862,0.172c0.178,0.006,0.345-0.007,0.501-0.032c0.121-0.021,0.208-0.136,0.185-0.257
		c-0.101-0.525-0.306-0.965-0.613-1.317c-0.543-0.623-1.388-0.935-2.535-0.935c-0.248,0-0.521,0.01-0.819,0.029
		s-0.624,0.028-0.978,0.028c-0.469,0-0.835-0.012-1.101-0.035c-0.266-0.024-0.437-0.036-0.513-0.036c-0.115,0-0.2,0.017-0.256,0.05
		c-0.056,0.034-0.088,0.104-0.097,0.209c-0.012,0.134,0.021,0.22,0.099,0.258c0.078,0.039,0.166,0.072,0.264,0.101
		c0.098,0.029,0.186,0.067,0.263,0.115c0.076,0.048,0.109,0.144,0.097,0.287l-0.023,0.187c-0.013,0.086-0.039,0.196-0.079,0.33
		l-1.839,5.773c-0.091,0.277-0.173,0.502-0.245,0.675c-0.072,0.172-0.202,0.292-0.39,0.358c-0.227,0.077-0.408,0.132-0.545,0.165
		c-0.137,0.034-0.213,0.137-0.228,0.309c-0.01,0.105-0.001,0.173,0.025,0.201l0.153,0.043c0.077,0,0.25-0.014,0.521-0.043
		c0.27-0.028,0.648-0.043,1.136-0.043c0.316,0,0.638,0.013,0.965,0.036c0.328,0.023,0.673,0.036,1.036,0.036
		c0.804,0,1.503-0.082,2.101-0.244c0.597-0.163,1.155-0.483,1.676-0.962c0.249-0.23,0.485-0.503,0.709-0.819
		c0.224-0.315,0.424-0.655,0.599-1.02c0.175-0.363,0.321-0.749,0.438-1.155C325.845,184.54,325.881,184.392,325.913,184.245z"/>
	<polygon points="321.502,202.759 321.502,200.468 322.194,200.468 322.609,202.031 323.021,200.468 323.715,200.468 
		323.715,202.759 323.285,202.759 323.285,200.957 322.83,202.759 322.385,202.759 321.932,200.957 321.932,202.759 	"/>
	<path d="M326.24,202.759h-0.504l-0.199-0.521h-0.916l-0.189,0.521h-0.49l0.893-2.291h0.488L326.24,202.759z M325.389,201.853
		l-0.316-0.85l-0.309,0.85H325.389z"/>
	<path d="M326.483,200.468h0.845c0.191,0,0.336,0.015,0.437,0.044c0.134,0.04,0.249,0.11,0.345,0.211
		c0.097,0.102,0.169,0.225,0.219,0.371c0.051,0.146,0.075,0.327,0.075,0.542c0,0.188-0.023,0.351-0.07,0.487
		c-0.057,0.166-0.139,0.302-0.245,0.404c-0.08,0.078-0.188,0.14-0.325,0.183c-0.102,0.032-0.238,0.049-0.409,0.049h-0.87V200.468z
		 M326.945,200.856v1.518h0.346c0.129,0,0.223-0.008,0.279-0.022l0.188-0.095c0.049-0.045,0.09-0.119,0.121-0.222
		s0.047-0.242,0.047-0.419c0-0.178-0.016-0.313-0.047-0.408s-0.075-0.169-0.132-0.222l-0.214-0.107
		c-0.064-0.015-0.191-0.022-0.38-0.022H326.945z"/>
	<polygon points="328.795,202.759 328.795,200.468 330.494,200.468 330.494,200.856 329.258,200.856 329.258,201.364 
		330.408,201.364 330.408,201.75 329.258,201.75 329.258,202.374 330.537,202.374 330.537,202.759 	"/>
	<rect x="324.605" y="203.468" width="0.463" height="2.291"/>
	<polygon points="325.513,205.759 325.513,203.468 325.963,203.468 326.9,204.999 326.9,203.468 327.33,203.468 327.33,205.759 
		326.866,205.759 325.942,204.265 325.942,205.759 	"/>
	<path d="M321.741,206.468h0.461v1.45c0,0.189-0.017,0.336-0.05,0.438c-0.045,0.134-0.126,0.24-0.244,0.321
		s-0.272,0.121-0.466,0.121c-0.226,0-0.399-0.063-0.521-0.189c-0.122-0.127-0.184-0.313-0.185-0.558l0.436-0.05
		c0.006,0.131,0.024,0.224,0.059,0.278c0.05,0.082,0.126,0.123,0.228,0.123c0.104,0,0.176-0.029,0.219-0.088
		s0.064-0.182,0.064-0.366V206.468z"/>
	<path d="M324.76,208.759h-0.504l-0.199-0.521h-0.916l-0.189,0.521h-0.49l0.893-2.291h0.488L324.76,208.759z M323.908,207.853
		l-0.316-0.85l-0.309,0.85H323.908z"/>
	<path d="M325.005,208.759v-2.291h0.742c0.281,0,0.465,0.012,0.551,0.035c0.131,0.034,0.241,0.108,0.329,0.224
		c0.089,0.115,0.133,0.264,0.133,0.446c0,0.141-0.025,0.259-0.076,0.354s-0.116,0.171-0.194,0.226l-0.24,0.109
		c-0.11,0.021-0.271,0.032-0.479,0.032h-0.302v0.864H325.005z M325.468,206.856v0.65h0.253c0.183,0,0.305-0.012,0.366-0.036
		l0.145-0.112l0.052-0.179l-0.073-0.206l-0.186-0.102c-0.056-0.01-0.167-0.016-0.333-0.016H325.468z"/>
	<path d="M328.968,208.759h-0.504l-0.199-0.521h-0.916l-0.189,0.521h-0.49l0.893-2.291h0.488L328.968,208.759z M328.116,207.853
		l-0.316-0.85l-0.309,0.85H328.116z"/>
	<polygon points="329.218,208.759 329.218,206.468 329.668,206.468 330.605,207.999 330.605,206.468 331.035,206.468 
		331.035,208.759 330.571,208.759 329.647,207.265 329.647,208.759 	"/>
	<path d="M248.929,212.682c0.225,0,0.396-0.066,0.514-0.199s0.188-0.305,0.211-0.515h0.478c-0.021,0.332-0.138,0.598-0.353,0.797
		c-0.215,0.205-0.488,0.308-0.821,0.308c-0.397,0-0.714-0.137-0.952-0.411c-0.236-0.273-0.354-0.611-0.354-1.015
		s0.116-0.74,0.349-1.01c0.112-0.13,0.25-0.232,0.412-0.31c0.163-0.077,0.334-0.115,0.515-0.114c0.342,0,0.62,0.083,0.834,0.25
		s0.336,0.395,0.367,0.684h-0.489c-0.065-0.258-0.205-0.426-0.418-0.504c-0.074-0.026-0.173-0.04-0.297-0.04
		s-0.238,0.029-0.343,0.088s-0.19,0.137-0.258,0.235c-0.133,0.195-0.198,0.435-0.194,0.717c0,0.13,0.016,0.257,0.047,0.383
		c0.068,0.269,0.203,0.458,0.405,0.569C248.687,212.654,248.803,212.682,248.929,212.682z"/>
	<path d="M250.401,212.021c0-0.311,0.09-0.562,0.269-0.755c0.18-0.194,0.423-0.291,0.731-0.289c0.308,0.001,0.551,0.098,0.727,0.289
		c0.178,0.19,0.267,0.441,0.267,0.753c0,0.31-0.089,0.561-0.268,0.753c-0.179,0.193-0.422,0.289-0.729,0.289
		c-0.158,0-0.299-0.025-0.422-0.078c-0.25-0.105-0.419-0.287-0.508-0.544C250.424,212.312,250.401,212.172,250.401,212.021z
		 M251.96,212.019c0-0.306-0.104-0.517-0.31-0.634c-0.071-0.041-0.155-0.062-0.252-0.062s-0.181,0.021-0.252,0.062
		c-0.201,0.117-0.305,0.328-0.31,0.634c0,0.19,0.048,0.354,0.144,0.49c0.096,0.138,0.234,0.207,0.416,0.207s0.321-0.068,0.418-0.205
		C251.912,212.375,251.96,212.21,251.96,212.019z"/>
	<path d="M252.771,211.031h0.412v0.269h0.008c0.114-0.218,0.325-0.325,0.634-0.322c0.142,0,0.27,0.027,0.384,0.084
		c0.228,0.106,0.381,0.293,0.46,0.56c0.039,0.126,0.058,0.258,0.058,0.397c0,0.294-0.072,0.541-0.218,0.741
		c-0.145,0.201-0.356,0.302-0.633,0.302c-0.217,0-0.396-0.057-0.537-0.169l-0.124-0.141h-0.009v0.985h-0.435V211.031z
		 M254.291,212.02c0-0.198-0.046-0.358-0.138-0.481c-0.104-0.145-0.243-0.217-0.418-0.217c-0.177,0-0.313,0.063-0.405,0.19
		c-0.094,0.127-0.14,0.297-0.14,0.51c0,0.313,0.105,0.527,0.318,0.642c0.067,0.035,0.148,0.053,0.243,0.053s0.176-0.02,0.244-0.06
		C254.192,212.539,254.291,212.326,254.291,212.02z"/>
	<path d="M255.298,213.427c0.108,0,0.187-0.054,0.233-0.16l0.043-0.114l0.051-0.153l-0.751-1.969h0.479l0.517,1.477h0.008l0.5-1.477
		h0.455l-0.769,2.083l-0.106,0.258l-0.125,0.214c-0.109,0.136-0.266,0.204-0.469,0.206c-0.102,0-0.203-0.008-0.302-0.022v-0.368
		C255.188,213.418,255.267,213.427,255.298,213.427z"/>
	<path d="M257.087,210.279h0.435v0.412h-0.435V210.279z M257.087,211.031h0.435v1.977h-0.435V211.031z"/>
	<path d="M257.995,211.031h0.412v0.293l0.008,0.008c0.066-0.11,0.152-0.196,0.26-0.259c0.106-0.063,0.226-0.094,0.356-0.094
		c0.216,0,0.386,0.056,0.51,0.168c0.124,0.111,0.187,0.279,0.188,0.504v1.356h-0.435v-1.241c-0.005-0.155-0.038-0.269-0.099-0.338
		c-0.062-0.069-0.16-0.104-0.297-0.104s-0.249,0.05-0.336,0.149c-0.086,0.1-0.13,0.223-0.133,0.369v1.165h-0.435V211.031z"/>
	<path d="M261.579,211.305v-0.274h0.435v1.874c0,0.297-0.083,0.52-0.25,0.666c-0.166,0.146-0.406,0.221-0.72,0.221
		c-0.37,0-0.632-0.108-0.783-0.325c-0.056-0.078-0.089-0.176-0.099-0.291h0.434c0.033,0.15,0.138,0.237,0.313,0.262l0.161,0.009
		c0.342,0,0.511-0.164,0.509-0.492v-0.293h-0.008c-0.061,0.109-0.145,0.194-0.25,0.256c-0.107,0.061-0.23,0.091-0.37,0.091
		c-0.277,0-0.49-0.099-0.638-0.295c-0.149-0.196-0.224-0.438-0.222-0.726c0.001-0.289,0.082-0.529,0.244-0.721
		c0.161-0.191,0.38-0.287,0.656-0.287c0.277,0,0.471,0.108,0.579,0.326H261.579z M260.643,211.543
		c-0.077,0.122-0.116,0.273-0.116,0.456s0.045,0.338,0.135,0.467c0.09,0.131,0.222,0.195,0.396,0.195
		c0.174,0,0.305-0.066,0.391-0.198c0.087-0.133,0.131-0.293,0.131-0.48s-0.044-0.344-0.131-0.469c-0.088-0.127-0.22-0.19-0.398-0.19
		C260.872,211.324,260.735,211.397,260.643,211.543z"/>
	<path d="M264.734,211.59c0-0.178-0.13-0.267-0.388-0.267c-0.119,0-0.218,0.025-0.297,0.076c-0.078,0.051-0.123,0.129-0.135,0.235
		h-0.435c0.014-0.232,0.112-0.406,0.297-0.521c0.147-0.091,0.349-0.136,0.603-0.136c0.35,0,0.59,0.102,0.721,0.307
		c0.046,0.072,0.068,0.161,0.068,0.268v1.014l0.021,0.116l0.082,0.033h0.047l0.06-0.008v0.303c-0.101,0.033-0.193,0.05-0.278,0.05
		c-0.205,0-0.324-0.08-0.357-0.24c-0.083,0.085-0.186,0.146-0.306,0.183c-0.119,0.037-0.229,0.057-0.329,0.058
		c-0.203,0-0.371-0.05-0.504-0.15c-0.132-0.101-0.196-0.243-0.194-0.427c0-0.221,0.081-0.38,0.243-0.478
		c0.106-0.064,0.279-0.11,0.517-0.137l0.226-0.033l0.18-0.031C264.681,211.773,264.734,211.701,264.734,211.59z M263.844,212.458
		c0,0.093,0.042,0.158,0.125,0.198l0.237,0.06c0.223,0,0.383-0.066,0.479-0.199l0.049-0.174v-0.324
		c-0.066,0.044-0.171,0.071-0.313,0.084c-0.144,0.013-0.262,0.034-0.354,0.065C263.918,212.214,263.844,212.311,263.844,212.458z"/>
	<path d="M265.64,211.031h0.412v0.293l0.008,0.008c0.066-0.11,0.152-0.196,0.26-0.259c0.106-0.063,0.226-0.094,0.356-0.094
		c0.216,0,0.386,0.056,0.51,0.168c0.124,0.111,0.187,0.279,0.188,0.504v1.356h-0.435v-1.241c-0.005-0.155-0.038-0.269-0.099-0.338
		c-0.062-0.069-0.16-0.104-0.297-0.104s-0.249,0.05-0.336,0.149c-0.086,0.1-0.13,0.223-0.133,0.369v1.165h-0.435V211.031z"/>
	<path d="M269.273,212.739c-0.109,0.215-0.32,0.322-0.634,0.322c-0.141,0-0.27-0.027-0.385-0.082
		c-0.226-0.105-0.379-0.291-0.461-0.558c-0.037-0.127-0.056-0.272-0.056-0.437c0.001-0.32,0.085-0.568,0.252-0.745
		c0.166-0.177,0.363-0.265,0.591-0.263c0.227,0.001,0.408,0.059,0.545,0.172l0.126,0.138h0.007v-1.008h0.435v2.729h-0.412v-0.269
		H269.273z M268.314,212.519c0.095,0.133,0.23,0.198,0.409,0.197s0.315-0.071,0.408-0.209c0.095-0.138,0.142-0.309,0.142-0.513
		c0-0.203-0.049-0.366-0.147-0.488c-0.098-0.121-0.235-0.183-0.412-0.185c-0.177,0-0.315,0.076-0.416,0.228
		c-0.083,0.124-0.125,0.283-0.125,0.478S268.22,212.385,268.314,212.519z"/>
	<polygon points="270.951,210.213 271.367,210.213 270.27,213.073 269.854,213.073 	"/>
	<path d="M271.419,212.021c0-0.311,0.09-0.562,0.269-0.755c0.18-0.194,0.423-0.291,0.731-0.289c0.308,0.001,0.551,0.098,0.727,0.289
		c0.178,0.19,0.267,0.441,0.267,0.753c0,0.31-0.089,0.561-0.268,0.753c-0.179,0.193-0.422,0.289-0.729,0.289
		c-0.158,0-0.299-0.025-0.422-0.078c-0.25-0.105-0.419-0.287-0.508-0.544C271.441,212.312,271.419,212.172,271.419,212.021z
		 M272.978,212.019c0-0.306-0.104-0.517-0.31-0.634c-0.071-0.041-0.155-0.062-0.252-0.062s-0.181,0.021-0.252,0.062
		c-0.201,0.117-0.305,0.328-0.31,0.634c0,0.19,0.048,0.354,0.144,0.49c0.096,0.138,0.234,0.207,0.416,0.207s0.321-0.068,0.418-0.205
		C272.93,212.375,272.978,212.21,272.978,212.019z"/>
	<path d="M274.728,211.391l-0.187,0.045c-0.136,0.061-0.231,0.175-0.286,0.342c-0.028,0.084-0.043,0.181-0.043,0.289v0.94h-0.435
		v-1.977h0.409v0.383h0.007c0.025-0.104,0.094-0.203,0.207-0.297c0.115-0.092,0.238-0.138,0.37-0.138l0.164,0.011v0.42
		L274.728,211.391z"/>
	<polygon points="275.983,210.279 278.192,210.279 278.192,210.691 277.325,210.691 277.325,213.007 276.847,213.007 
		276.847,210.691 275.983,210.691 	"/>
	<path d="M279.048,211.391l-0.187,0.045c-0.136,0.061-0.231,0.175-0.286,0.342c-0.028,0.084-0.043,0.181-0.043,0.289v0.94h-0.435
		v-1.977h0.409v0.383h0.007c0.025-0.104,0.094-0.203,0.207-0.297c0.115-0.092,0.238-0.138,0.37-0.138l0.164,0.011v0.42
		L279.048,211.391z"/>
	<path d="M280.66,211.59c0-0.178-0.13-0.267-0.388-0.267c-0.119,0-0.218,0.025-0.297,0.076c-0.078,0.051-0.123,0.129-0.135,0.235
		h-0.435c0.014-0.232,0.112-0.406,0.297-0.521c0.147-0.091,0.349-0.136,0.603-0.136c0.35,0,0.59,0.102,0.721,0.307
		c0.046,0.072,0.068,0.161,0.068,0.268v1.014l0.021,0.116l0.082,0.033h0.047l0.06-0.008v0.303c-0.101,0.033-0.193,0.05-0.278,0.05
		c-0.205,0-0.324-0.08-0.357-0.24c-0.083,0.085-0.186,0.146-0.306,0.183c-0.119,0.037-0.229,0.057-0.329,0.058
		c-0.203,0-0.371-0.05-0.504-0.15c-0.132-0.101-0.196-0.243-0.194-0.427c0-0.221,0.081-0.38,0.243-0.478
		c0.106-0.064,0.279-0.11,0.517-0.137l0.226-0.033l0.18-0.031C280.606,211.773,280.66,211.701,280.66,211.59z M279.77,212.458
		c0,0.093,0.042,0.158,0.125,0.198l0.237,0.06c0.223,0,0.383-0.066,0.479-0.199l0.049-0.174v-0.324
		c-0.066,0.044-0.171,0.071-0.313,0.084c-0.144,0.013-0.262,0.034-0.354,0.065C279.844,212.214,279.77,212.311,279.77,212.458z"/>
	<path d="M281.565,211.031h0.412v0.293l0.008,0.008c0.066-0.11,0.152-0.196,0.26-0.259c0.106-0.063,0.226-0.094,0.356-0.094
		c0.216,0,0.386,0.056,0.51,0.168c0.124,0.111,0.187,0.279,0.188,0.504v1.356h-0.435v-1.241c-0.005-0.155-0.038-0.269-0.099-0.338
		c-0.062-0.069-0.16-0.104-0.297-0.104s-0.249,0.05-0.336,0.149c-0.086,0.1-0.13,0.223-0.133,0.369v1.165h-0.435V211.031z"/>
	<path d="M284.535,211.324c-0.271,0-0.408,0.067-0.408,0.202c0,0.094,0.067,0.165,0.201,0.212c0.061,0.021,0.164,0.047,0.313,0.076
		c0.147,0.029,0.265,0.059,0.351,0.087c0.277,0.093,0.416,0.267,0.416,0.519c0,0.217-0.096,0.382-0.288,0.496
		c-0.158,0.095-0.355,0.144-0.594,0.146c-0.399,0-0.668-0.128-0.805-0.384c-0.045-0.086-0.068-0.188-0.069-0.305h0.435
		c0.013,0.127,0.062,0.216,0.146,0.268c0.085,0.051,0.186,0.076,0.302,0.076c0.196,0,0.329-0.041,0.4-0.124l0.039-0.136
		c-0.005-0.102-0.074-0.177-0.207-0.225c-0.06-0.021-0.161-0.045-0.304-0.072c-0.271-0.053-0.468-0.124-0.588-0.212
		c-0.121-0.088-0.182-0.226-0.182-0.411c0-0.188,0.093-0.335,0.278-0.438c0.144-0.079,0.326-0.119,0.546-0.119
		c0.347,0,0.591,0.108,0.732,0.326c0.05,0.077,0.081,0.171,0.094,0.28h-0.454c-0.021-0.104-0.069-0.173-0.144-0.208L284.535,211.324
		z"/>
	<path d="M287.812,211.324c-0.281,0-0.422,0.176-0.422,0.526v1.157h-0.435v-1.268c0-0.138-0.024-0.242-0.074-0.312
		s-0.139-0.104-0.266-0.104s-0.231,0.046-0.313,0.138c-0.083,0.093-0.125,0.217-0.127,0.373v1.173h-0.435v-1.977h0.412v0.278h0.012
		c0.076-0.111,0.159-0.194,0.25-0.248c0.091-0.055,0.203-0.082,0.336-0.082c0.134,0,0.253,0.026,0.355,0.08s0.176,0.138,0.22,0.25
		c0.073-0.103,0.158-0.184,0.256-0.242c0.097-0.059,0.218-0.088,0.363-0.088c0.209-0.002,0.371,0.049,0.487,0.15
		c0.115,0.103,0.174,0.273,0.174,0.514v1.364h-0.436v-1.152c0-0.188-0.014-0.312-0.043-0.369l-0.116-0.123L287.812,211.324z"/>
	<path d="M289.075,210.279h0.435v0.412h-0.435V210.279z M289.075,211.031h0.435v1.977h-0.435V211.031z"/>
	<path d="M290.762,211.324c-0.271,0-0.408,0.067-0.408,0.202c0,0.094,0.067,0.165,0.201,0.212c0.061,0.021,0.164,0.047,0.313,0.076
		c0.147,0.029,0.265,0.059,0.351,0.087c0.277,0.093,0.416,0.267,0.416,0.519c0,0.217-0.096,0.382-0.288,0.496
		c-0.158,0.095-0.355,0.144-0.594,0.146c-0.399,0-0.668-0.128-0.805-0.384c-0.045-0.086-0.068-0.188-0.069-0.305h0.435
		c0.013,0.127,0.062,0.216,0.146,0.268c0.085,0.051,0.186,0.076,0.302,0.076c0.196,0,0.329-0.041,0.4-0.124l0.039-0.136
		c-0.005-0.102-0.074-0.177-0.207-0.225c-0.06-0.021-0.161-0.045-0.304-0.072c-0.271-0.053-0.468-0.124-0.588-0.212
		c-0.121-0.088-0.182-0.226-0.182-0.411c0-0.188,0.093-0.335,0.278-0.438c0.144-0.079,0.326-0.119,0.546-0.119
		c0.347,0,0.591,0.108,0.732,0.326c0.05,0.077,0.081,0.171,0.094,0.28h-0.454c-0.021-0.104-0.069-0.173-0.144-0.208L290.762,211.324
		z"/>
	<path d="M292.743,211.324c-0.271,0-0.408,0.067-0.408,0.202c0,0.094,0.067,0.165,0.201,0.212c0.061,0.021,0.164,0.047,0.313,0.076
		c0.147,0.029,0.265,0.059,0.351,0.087c0.277,0.093,0.416,0.267,0.416,0.519c0,0.217-0.096,0.382-0.288,0.496
		c-0.158,0.095-0.355,0.144-0.594,0.146c-0.399,0-0.668-0.128-0.805-0.384c-0.045-0.086-0.068-0.188-0.069-0.305h0.435
		c0.013,0.127,0.062,0.216,0.146,0.268c0.085,0.051,0.186,0.076,0.302,0.076c0.196,0,0.329-0.041,0.4-0.124l0.039-0.136
		c-0.005-0.102-0.074-0.177-0.207-0.225c-0.06-0.021-0.161-0.045-0.304-0.072c-0.271-0.053-0.468-0.124-0.588-0.212
		c-0.121-0.088-0.182-0.226-0.182-0.411c0-0.188,0.093-0.335,0.278-0.438c0.144-0.079,0.326-0.119,0.546-0.119
		c0.347,0,0.591,0.108,0.732,0.326c0.05,0.077,0.081,0.171,0.094,0.28h-0.454c-0.021-0.104-0.069-0.173-0.144-0.208L292.743,211.324
		z"/>
	<path d="M293.96,210.279h0.435v0.412h-0.435V210.279z M293.96,211.031h0.435v1.977h-0.435V211.031z"/>
	<path d="M294.776,212.021c0-0.311,0.09-0.562,0.269-0.755c0.18-0.194,0.423-0.291,0.731-0.289c0.308,0.001,0.551,0.098,0.727,0.289
		c0.178,0.19,0.267,0.441,0.267,0.753c0,0.31-0.089,0.561-0.268,0.753c-0.179,0.193-0.422,0.289-0.729,0.289
		c-0.158,0-0.299-0.025-0.422-0.078c-0.25-0.105-0.419-0.287-0.508-0.544C294.799,212.312,294.776,212.172,294.776,212.021z
		 M296.335,212.019c0-0.306-0.104-0.517-0.31-0.634c-0.071-0.041-0.155-0.062-0.252-0.062s-0.181,0.021-0.252,0.062
		c-0.201,0.117-0.305,0.328-0.31,0.634c0,0.19,0.048,0.354,0.144,0.49c0.096,0.138,0.234,0.207,0.416,0.207s0.321-0.068,0.418-0.205
		C296.287,212.375,296.335,212.21,296.335,212.019z"/>
	<path d="M297.134,211.031h0.412v0.293l0.008,0.008c0.066-0.11,0.152-0.196,0.26-0.259c0.106-0.063,0.226-0.094,0.356-0.094
		c0.216,0,0.386,0.056,0.51,0.168c0.124,0.111,0.187,0.279,0.188,0.504v1.356h-0.435v-1.241c-0.005-0.155-0.038-0.269-0.099-0.338
		c-0.062-0.069-0.16-0.104-0.297-0.104s-0.249,0.05-0.336,0.149c-0.086,0.1-0.13,0.223-0.133,0.369v1.165h-0.435V211.031z"/>
	<path d="M300.766,212.098c0,0.199,0.064,0.347,0.192,0.44c0.128,0.096,0.291,0.144,0.49,0.144c0.198,0,0.345-0.039,0.439-0.117
		c0.095-0.079,0.143-0.174,0.144-0.286c0.001-0.111-0.021-0.191-0.069-0.241l-0.188-0.109c-0.078-0.021-0.181-0.05-0.309-0.085
		c-0.128-0.036-0.269-0.074-0.42-0.116c-0.152-0.042-0.268-0.089-0.345-0.14c-0.208-0.135-0.312-0.327-0.312-0.579
		c0-0.251,0.099-0.446,0.297-0.586s0.438-0.209,0.72-0.209s0.524,0.076,0.727,0.229s0.303,0.367,0.303,0.643h-0.479
		c-0.022-0.321-0.218-0.482-0.588-0.482c-0.214,0-0.365,0.063-0.453,0.186l-0.049,0.196l0.091,0.208
		c0.059,0.056,0.136,0.098,0.231,0.127c0.299,0.074,0.562,0.144,0.788,0.208c0.171,0.055,0.303,0.145,0.394,0.27
		s0.138,0.265,0.139,0.419c0.003,0.285-0.11,0.504-0.34,0.657c-0.198,0.133-0.455,0.199-0.77,0.199s-0.571-0.078-0.771-0.233
		c-0.222-0.171-0.335-0.417-0.34-0.741H300.766z"/>
	<path d="M303.486,213.026c-0.179,0-0.304-0.037-0.375-0.112c-0.072-0.075-0.11-0.203-0.115-0.386v-1.151h-0.33v-0.346h0.33v-0.571
		h0.435v0.571h0.394v0.346h-0.394v1.038c0,0.098,0.009,0.161,0.026,0.189l0.177,0.077l0.19-0.016v0.338
		C303.679,213.018,303.566,213.026,303.486,213.026z"/>
	<path d="M305.086,211.391l-0.187,0.045c-0.136,0.061-0.231,0.175-0.286,0.342c-0.028,0.084-0.043,0.181-0.043,0.289v0.94h-0.435
		v-1.977h0.409v0.383h0.007c0.025-0.104,0.094-0.203,0.207-0.297c0.115-0.092,0.238-0.138,0.37-0.138l0.164,0.011v0.42
		L305.086,211.391z"/>
	<path d="M305.491,210.279h0.435v0.412h-0.435V210.279z M305.491,211.031h0.435v1.977h-0.435V211.031z"/>
	<path d="M307.282,211.324c-0.234,0-0.397,0.117-0.49,0.353c-0.036,0.092-0.054,0.196-0.054,0.313c0,0.221,0.044,0.397,0.133,0.53
		c0.089,0.134,0.22,0.198,0.393,0.196c0.127,0,0.232-0.039,0.316-0.118c0.083-0.078,0.135-0.188,0.155-0.332h0.435
		c-0.041,0.258-0.139,0.455-0.293,0.592s-0.37,0.205-0.646,0.203c-0.276,0-0.501-0.095-0.672-0.285
		c-0.174-0.19-0.259-0.438-0.256-0.745c0.001-0.305,0.086-0.557,0.255-0.756c0.169-0.197,0.409-0.296,0.72-0.296
		c0.242,0,0.446,0.06,0.613,0.181s0.26,0.298,0.278,0.532h-0.435c-0.018-0.122-0.067-0.213-0.148-0.275
		C307.506,211.355,307.404,211.324,307.282,211.324z"/>
	<path d="M309.145,213.026c-0.179,0-0.304-0.037-0.375-0.112c-0.072-0.075-0.11-0.203-0.115-0.386v-1.151h-0.33v-0.346h0.33v-0.571
		h0.435v0.571h0.394v0.346h-0.394v1.038c0,0.098,0.009,0.161,0.026,0.189l0.177,0.077l0.19-0.016v0.338
		C309.337,213.018,309.225,213.026,309.145,213.026z"/>
	<rect x="309.807" y="210.279" width="0.435" height="2.729"/>
	<path d="M310.92,213.427c0.108,0,0.187-0.054,0.233-0.16l0.043-0.114l0.051-0.153l-0.751-1.969h0.479l0.517,1.477h0.008l0.5-1.477
		h0.455l-0.769,2.083l-0.106,0.258l-0.125,0.214c-0.109,0.136-0.266,0.204-0.469,0.206c-0.102,0-0.203-0.008-0.302-0.022v-0.368
		C310.811,213.418,310.889,213.427,310.92,213.427z"/>
	<path d="M313.82,210.279h1.204c0.35,0,0.602,0.098,0.756,0.293c0.114,0.146,0.172,0.331,0.172,0.553
		c0,0.221-0.058,0.402-0.172,0.545c-0.152,0.193-0.404,0.291-0.756,0.291h-0.727v1.047h-0.478V210.279z M314.298,211.57h0.698
		c0.208,0,0.353-0.078,0.435-0.234l0.043-0.219c-0.001-0.164-0.043-0.28-0.127-0.347c-0.083-0.067-0.197-0.102-0.341-0.102h-0.708
		V211.57z"/>
	<path d="M317.259,211.391l-0.187,0.045c-0.136,0.061-0.231,0.175-0.286,0.342c-0.028,0.084-0.043,0.181-0.043,0.289v0.94h-0.435
		v-1.977h0.409v0.383h0.007c0.025-0.104,0.094-0.203,0.207-0.297c0.115-0.092,0.238-0.138,0.37-0.138l0.164,0.011v0.42
		L317.259,211.391z"/>
	<path d="M317.491,212.021c0-0.311,0.09-0.562,0.269-0.755c0.18-0.194,0.423-0.291,0.731-0.289c0.308,0.001,0.551,0.098,0.727,0.289
		c0.178,0.19,0.267,0.441,0.267,0.753c0,0.31-0.089,0.561-0.268,0.753c-0.179,0.193-0.422,0.289-0.729,0.289
		c-0.158,0-0.299-0.025-0.422-0.078c-0.25-0.105-0.419-0.287-0.508-0.544C317.514,212.312,317.491,212.172,317.491,212.021z
		 M319.05,212.019c0-0.306-0.104-0.517-0.31-0.634c-0.071-0.041-0.155-0.062-0.252-0.062s-0.181,0.021-0.252,0.062
		c-0.201,0.117-0.305,0.328-0.31,0.634c0,0.19,0.048,0.354,0.144,0.49c0.096,0.138,0.234,0.207,0.416,0.207s0.321-0.068,0.418-0.205
		C319.002,212.375,319.05,212.21,319.05,212.019z"/>
	<path d="M319.849,210.279h0.435v1.014h0.008c0.054-0.091,0.133-0.166,0.238-0.226c0.105-0.061,0.224-0.09,0.354-0.088
		c0.216,0,0.387,0.056,0.511,0.168c0.124,0.111,0.187,0.279,0.188,0.504v1.356h-0.435v-1.241c-0.005-0.155-0.038-0.269-0.099-0.338
		c-0.062-0.069-0.16-0.104-0.297-0.104s-0.249,0.05-0.336,0.149c-0.086,0.1-0.13,0.223-0.133,0.369v1.165h-0.435V210.279z"/>
	<path d="M322.053,210.279h0.435v0.412h-0.435V210.279z M322.053,211.031h0.435v1.977h-0.435V211.031z"/>
	<path d="M323.386,212.737v0.271h-0.412v-2.729h0.435v1.01h0.009c0.095-0.149,0.234-0.245,0.418-0.289l0.17-0.021
		c0.297,0,0.525,0.1,0.686,0.299c0.159,0.199,0.238,0.445,0.238,0.739c0,0.295-0.072,0.542-0.218,0.742
		c-0.145,0.201-0.356,0.302-0.633,0.302c-0.346,0-0.574-0.107-0.685-0.324H323.386z M324.494,212.021
		c0-0.197-0.046-0.357-0.138-0.48c-0.104-0.145-0.243-0.217-0.418-0.217c-0.177,0-0.313,0.063-0.405,0.19
		c-0.094,0.127-0.14,0.296-0.14,0.509c0,0.313,0.105,0.526,0.318,0.641c0.067,0.035,0.148,0.053,0.243,0.053s0.176-0.02,0.244-0.06
		C324.396,212.539,324.494,212.327,324.494,212.021z"/>
	<path d="M325.308,210.279h0.435v0.412h-0.435V210.279z M325.308,211.031h0.435v1.977h-0.435V211.031z"/>
	<path d="M326.838,213.026c-0.179,0-0.304-0.037-0.375-0.112c-0.072-0.075-0.11-0.203-0.115-0.386v-1.151h-0.33v-0.346h0.33v-0.571
		h0.435v0.571h0.394v0.346h-0.394v1.038c0,0.098,0.009,0.161,0.026,0.189l0.177,0.077l0.19-0.016v0.338
		C327.03,213.018,326.918,213.026,326.838,213.026z"/>
	<path d="M328.346,210.979c0.155,0,0.295,0.032,0.418,0.097c0.249,0.131,0.411,0.34,0.485,0.627c0.037,0.14,0.047,0.282,0.028,0.43
		h-1.452c0,0.165,0.046,0.305,0.138,0.418c0.093,0.113,0.224,0.168,0.395,0.166c0.243,0,0.404-0.109,0.481-0.328h0.412
		c-0.045,0.212-0.151,0.378-0.321,0.498c-0.16,0.117-0.352,0.175-0.572,0.175c-0.303,0-0.539-0.095-0.711-0.285
		s-0.258-0.436-0.256-0.735c0.001-0.299,0.089-0.55,0.264-0.754C327.829,211.082,328.06,210.979,328.346,210.979z M328.843,211.844
		c-0.017-0.227-0.115-0.386-0.297-0.476l-0.202-0.045l-0.207,0.041c-0.124,0.053-0.213,0.146-0.267,0.276l-0.045,0.203H328.843z"/>
	<path d="M331.052,212.739c-0.109,0.215-0.32,0.322-0.634,0.322c-0.141,0-0.27-0.027-0.385-0.082
		c-0.226-0.105-0.379-0.291-0.461-0.558c-0.037-0.127-0.056-0.272-0.056-0.437c0.001-0.32,0.085-0.568,0.252-0.745
		c0.166-0.177,0.363-0.265,0.591-0.263c0.227,0.001,0.408,0.059,0.545,0.172l0.126,0.138h0.007v-1.008h0.435v2.729h-0.412v-0.269
		H331.052z M330.093,212.519c0.095,0.133,0.23,0.198,0.409,0.197s0.315-0.071,0.408-0.209c0.095-0.138,0.142-0.309,0.142-0.513
		c0-0.203-0.049-0.366-0.147-0.488c-0.098-0.121-0.235-0.183-0.412-0.185c-0.177,0-0.315,0.076-0.416,0.228
		c-0.083,0.124-0.125,0.283-0.125,0.478S329.998,212.385,330.093,212.519z"/>
	<rect x="331.979" y="212.493" width="0.532" height="0.515"/>
	<path d="M253.717,209.273h-0.801l-0.188-0.84c-0.335,0.381-0.669,0.645-1.001,0.791s-0.74,0.22-1.225,0.22
		c-0.485-0.003-0.939-0.103-1.362-0.298c-0.846-0.397-1.429-1.062-1.747-1.992c-0.156-0.452-0.234-0.935-0.234-1.445
		c0-1.052,0.303-1.931,0.907-2.637c0.293-0.339,0.65-0.608,1.073-0.811s0.865-0.301,1.327-0.298c1.344,0,2.287,0.461,2.83,1.382
		c0.179,0.306,0.291,0.659,0.337,1.06h-1.25c-0.062-0.446-0.263-0.794-0.605-1.045c-0.342-0.251-0.726-0.376-1.152-0.376
		c-0.765,0-1.324,0.269-1.68,0.806c-0.358,0.537-0.537,1.175-0.537,1.914s0.181,1.377,0.542,1.914s0.903,0.806,1.626,0.806
		c0.628,0.013,1.115-0.153,1.46-0.498s0.525-0.832,0.542-1.46h-1.904v-0.952h3.042V209.273z"/>
	<path d="M255.079,202.134h2.959c1.062,0,1.86,0.349,2.397,1.045c0.501,0.635,0.752,1.477,0.752,2.524s-0.251,1.89-0.752,2.524
		c-0.55,0.696-1.35,1.045-2.397,1.045h-2.959V202.134z M256.329,208.252h1.23c0.898,0,1.54-0.244,1.924-0.732
		c0.303-0.397,0.454-1.004,0.454-1.821s-0.151-1.421-0.454-1.812c-0.371-0.488-1.013-0.732-1.924-0.732h-1.23V208.252z"/>
	<polygon points="262.296,202.134 263.546,202.134 263.546,208.194 267.174,208.194 267.174,209.273 262.296,209.273 	"/>
	<rect x="267.76" y="206.016" width="2.91" height="1.079"/>
	<path d="M273.937,202.134c0.903,0,1.558,0.409,1.964,1.227c0.302,0.615,0.453,1.42,0.453,2.414c0,1.626-0.397,2.724-1.192,3.293
		c-0.315,0.231-0.724,0.347-1.225,0.347s-0.91-0.115-1.226-0.347c-0.794-0.582-1.191-1.68-1.191-3.293
		c0-1.01,0.151-1.814,0.454-2.414c0.176-0.361,0.422-0.656,0.737-0.885C273.026,202.249,273.436,202.134,273.937,202.134z
		 M275.216,205.775c0-1.793-0.427-2.688-1.279-2.688s-1.279,0.896-1.279,2.688c0,1.265,0.218,2.089,0.654,2.473
		c0.163,0.144,0.371,0.215,0.625,0.215C274.789,208.462,275.216,207.566,275.216,205.775z"/>
	<path d="M279.493,202.134c0.903,0,1.558,0.409,1.964,1.227c0.302,0.615,0.453,1.42,0.453,2.414c0,1.626-0.397,2.724-1.192,3.293
		c-0.315,0.231-0.724,0.347-1.225,0.347s-0.91-0.115-1.226-0.347c-0.794-0.582-1.191-1.68-1.191-3.293
		c0-1.01,0.151-1.814,0.454-2.414c0.176-0.361,0.422-0.656,0.737-0.885C278.583,202.249,278.992,202.134,279.493,202.134z
		 M280.772,205.775c0-1.793-0.427-2.688-1.279-2.688s-1.279,0.896-1.279,2.688c0,1.265,0.218,2.089,0.654,2.473
		c0.163,0.144,0.371,0.215,0.625,0.215C280.346,208.462,280.772,207.566,280.772,205.775z"/>
	<path d="M285.05,202.134c0.903,0,1.558,0.409,1.964,1.227c0.302,0.615,0.453,1.42,0.453,2.414c0,1.626-0.397,2.724-1.192,3.293
		c-0.315,0.231-0.724,0.347-1.225,0.347s-0.91-0.115-1.226-0.347c-0.794-0.582-1.191-1.68-1.191-3.293
		c0-1.01,0.151-1.814,0.454-2.414c0.176-0.361,0.422-0.656,0.737-0.885C284.14,202.249,284.549,202.134,285.05,202.134z
		 M286.329,205.775c0-1.793-0.427-2.688-1.279-2.688s-1.279,0.896-1.279,2.688c0,1.265,0.218,2.089,0.654,2.473
		c0.163,0.144,0.371,0.215,0.625,0.215C285.902,208.462,286.329,207.566,286.329,205.775z"/>
	<path d="M290.606,202.134c0.903,0,1.558,0.409,1.964,1.227c0.302,0.615,0.453,1.42,0.453,2.414c0,1.626-0.397,2.724-1.192,3.293
		c-0.315,0.231-0.724,0.347-1.225,0.347s-0.91-0.115-1.226-0.347c-0.794-0.582-1.191-1.68-1.191-3.293
		c0-1.01,0.151-1.814,0.454-2.414c0.176-0.361,0.422-0.656,0.737-0.885C289.696,202.249,290.105,202.134,290.606,202.134z
		 M291.886,205.775c0-1.793-0.427-2.688-1.279-2.688s-1.279,0.896-1.279,2.688c0,1.265,0.218,2.089,0.654,2.473
		c0.163,0.144,0.371,0.215,0.625,0.215C291.459,208.462,291.886,207.566,291.886,205.775z"/>
	<path d="M296.056,202.134h1.328l2.749,7.139h-1.338l-0.669-1.89h-2.852l-0.669,1.89h-1.289L296.056,202.134z M295.616,206.431
		h2.178l-1.069-3.066h-0.029L295.616,206.431z"/>
	<path style="fill:#A39B7C;" d="M251.118,182.907h-0.355l-0.083-0.373c-0.149,0.169-0.297,0.286-0.444,0.352
		c-0.147,0.064-0.329,0.098-0.544,0.098c-0.216-0.002-0.417-0.046-0.605-0.133c-0.375-0.176-0.634-0.471-0.775-0.885
		c-0.069-0.2-0.104-0.414-0.104-0.642c0-0.467,0.135-0.856,0.403-1.171c0.13-0.149,0.289-0.27,0.477-0.359s0.384-0.134,0.589-0.133
		c0.597,0,1.016,0.205,1.257,0.614c0.08,0.136,0.13,0.292,0.149,0.471h-0.555c-0.027-0.198-0.117-0.354-0.269-0.465
		c-0.152-0.111-0.322-0.167-0.512-0.167c-0.34,0-0.589,0.12-0.746,0.358c-0.159,0.238-0.238,0.521-0.238,0.85s0.08,0.611,0.24,0.85
		c0.16,0.239,0.401,0.358,0.722,0.358c0.279,0.006,0.495-0.068,0.648-0.222s0.233-0.369,0.241-0.648h-0.846v-0.422h1.351V182.907z"
		/>
	<path style="fill:#A39B7C;" d="M251.723,179.737h1.314c0.471,0,0.826,0.155,1.064,0.464c0.223,0.282,0.334,0.656,0.334,1.121
		c0,0.466-0.111,0.839-0.334,1.121c-0.244,0.31-0.6,0.464-1.064,0.464h-1.314V179.737z M252.278,182.454h0.546
		c0.399,0,0.684-0.108,0.854-0.325c0.135-0.177,0.201-0.446,0.201-0.809c0-0.363-0.066-0.631-0.201-0.805
		c-0.165-0.217-0.449-0.325-0.854-0.325h-0.546V182.454z"/>
	<rect x="254.806" y="181.46" style="fill:#A39B7C;" width="1.292" height="0.479"/>
	<path style="fill:#A39B7C;" d="M259.16,182.072c0,0.43,0.058,0.708,0.173,0.835h-0.594l-0.073-0.226
		c-0.008-0.082-0.011-0.179-0.011-0.29c0-0.272-0.045-0.473-0.133-0.601c-0.088-0.129-0.254-0.191-0.499-0.189h-0.814v1.306h-0.556
		v-3.17h1.51c0.349,0,0.61,0.075,0.785,0.226s0.262,0.357,0.262,0.622s-0.073,0.473-0.221,0.625l-0.174,0.13l-0.124,0.054v0.009
		c0.203,0.024,0.344,0.145,0.421,0.36C259.145,181.844,259.16,181.948,259.16,182.072z M258.117,181.179
		c0.361,0,0.542-0.169,0.542-0.506c0-0.271-0.114-0.427-0.343-0.466l-0.208-0.018h-0.899v0.989H258.117z"/>
	<path style="fill:#A39B7C;" d="M261.126,179.661c0.461,0,0.83,0.161,1.106,0.481c0.275,0.321,0.414,0.715,0.414,1.182
		c0,0.469-0.138,0.861-0.412,1.18c-0.274,0.316-0.644,0.476-1.106,0.477c-0.462,0.002-0.831-0.156-1.107-0.475
		c-0.274-0.317-0.412-0.711-0.412-1.179c0-0.469,0.135-0.859,0.403-1.174c0.13-0.149,0.289-0.27,0.478-0.359
		C260.677,179.704,260.89,179.66,261.126,179.661z M260.402,182.174c0.159,0.236,0.4,0.355,0.724,0.355
		c0.324,0,0.565-0.119,0.725-0.358c0.16-0.238,0.24-0.521,0.24-0.85s-0.08-0.611-0.24-0.85c-0.161-0.238-0.401-0.358-0.723-0.358
		c-0.322,0-0.564,0.12-0.726,0.36c-0.162,0.24-0.242,0.524-0.241,0.853C260.163,181.655,260.243,181.937,260.402,182.174z"/>
	<polygon style="fill:#A39B7C;" points="263.142,179.737 263.901,179.737 264.775,182.219 264.786,182.219 265.64,179.737 
		266.388,179.737 266.388,182.907 265.883,182.907 265.883,180.461 265.874,180.461 264.995,182.907 264.537,182.907 
		263.656,180.461 263.647,180.461 263.647,182.907 263.142,182.907 	"/>
	<path style="fill:#A39B7C;" d="M268.697,181.851c0,0.231,0.074,0.401,0.223,0.512c0.148,0.111,0.338,0.167,0.569,0.167
		c0.23,0,0.401-0.046,0.511-0.137c0.109-0.092,0.165-0.202,0.167-0.333c0.001-0.129-0.025-0.222-0.08-0.28s-0.128-0.102-0.219-0.127
		c-0.092-0.024-0.211-0.058-0.358-0.099c-0.149-0.041-0.313-0.086-0.489-0.135s-0.31-0.104-0.399-0.163
		c-0.241-0.155-0.362-0.38-0.362-0.672s0.115-0.519,0.345-0.681c0.23-0.162,0.509-0.243,0.836-0.243
		c0.328,0,0.609,0.089,0.845,0.268c0.234,0.178,0.351,0.426,0.351,0.745h-0.555c-0.026-0.373-0.254-0.56-0.684-0.56
		c-0.249,0-0.424,0.072-0.526,0.216c-0.037,0.056-0.057,0.132-0.057,0.228c0,0.097,0.035,0.178,0.105,0.242
		c0.068,0.063,0.158,0.113,0.27,0.146c0.347,0.087,0.652,0.167,0.915,0.242c0.199,0.063,0.352,0.167,0.457,0.313
		c0.106,0.146,0.16,0.308,0.161,0.487c0.003,0.331-0.129,0.586-0.395,0.764c-0.231,0.154-0.529,0.231-0.895,0.231
		s-0.664-0.091-0.896-0.271c-0.257-0.198-0.389-0.484-0.395-0.86H268.697z"/>
	<polygon style="fill:#A39B7C;" points="272.589,182.907 272.033,182.907 272.033,181.665 270.843,179.737 271.487,179.737 
		272.326,181.157 273.152,179.737 273.772,179.737 272.589,181.665 	"/>
	<path style="fill:#A39B7C;" d="M274.451,181.851c0,0.231,0.074,0.401,0.223,0.512c0.148,0.111,0.338,0.167,0.569,0.167
		c0.23,0,0.401-0.046,0.511-0.137c0.109-0.092,0.165-0.202,0.167-0.333c0.001-0.129-0.025-0.222-0.08-0.28s-0.128-0.102-0.219-0.127
		c-0.092-0.024-0.211-0.058-0.358-0.099c-0.149-0.041-0.313-0.086-0.489-0.135s-0.31-0.104-0.399-0.163
		c-0.241-0.155-0.362-0.38-0.362-0.672s0.115-0.519,0.345-0.681c0.23-0.162,0.509-0.243,0.836-0.243
		c0.328,0,0.609,0.089,0.845,0.268c0.234,0.178,0.351,0.426,0.351,0.745h-0.555c-0.026-0.373-0.254-0.56-0.684-0.56
		c-0.249,0-0.424,0.072-0.526,0.216c-0.037,0.056-0.057,0.132-0.057,0.228c0,0.097,0.035,0.178,0.105,0.242
		c0.068,0.063,0.158,0.113,0.27,0.146c0.347,0.087,0.652,0.167,0.915,0.242c0.199,0.063,0.352,0.167,0.457,0.313
		c0.106,0.146,0.16,0.308,0.161,0.487c0.003,0.331-0.129,0.586-0.395,0.764c-0.231,0.154-0.529,0.231-0.895,0.231
		s-0.664-0.091-0.896-0.271c-0.257-0.198-0.389-0.484-0.395-0.86H274.451z"/>
	<polygon style="fill:#A39B7C;" points="276.659,179.737 279.226,179.737 279.226,180.216 278.218,180.216 278.218,182.907 
		277.662,182.907 277.662,180.216 276.659,180.216 	"/>
	<polygon style="fill:#A39B7C;" points="279.594,179.737 281.875,179.737 281.875,180.216 280.149,180.216 280.149,181.046 
		281.747,181.046 281.747,181.5 280.149,181.5 280.149,182.427 281.907,182.427 281.907,182.907 279.594,182.907 	"/>
	<polygon style="fill:#A39B7C;" points="282.382,179.737 283.142,179.737 284.016,182.219 284.026,182.219 284.88,179.737 
		285.628,179.737 285.628,182.907 285.123,182.907 285.123,180.461 285.114,180.461 284.235,182.907 283.777,182.907 
		282.896,180.461 282.888,180.461 282.888,182.907 282.382,182.907 	"/>
	<polygon style="fill:#A39B7C;" points="249.233,188.911 251.8,188.911 251.8,189.39 250.792,189.39 250.792,192.081 
		250.236,192.081 250.236,189.39 249.233,189.39 	"/>
	<path style="fill:#A39B7C;" d="M252.243,188.911h0.505v1.177h0.009c0.063-0.104,0.154-0.191,0.277-0.261
		c0.123-0.07,0.26-0.104,0.411-0.103c0.251,0,0.449,0.064,0.594,0.195c0.144,0.13,0.217,0.325,0.219,0.585v1.576h-0.506v-1.442
		c-0.006-0.181-0.044-0.312-0.114-0.392c-0.071-0.081-0.187-0.122-0.345-0.122c-0.159,0-0.289,0.059-0.391,0.174
		c-0.1,0.115-0.151,0.259-0.154,0.429v1.354h-0.505V188.911z"/>
	<path style="fill:#A39B7C;" d="M254.95,188.911h0.506v0.479h-0.506V188.911z M254.95,189.785h0.506v2.296h-0.506V189.785z"/>
	<path style="fill:#A39B7C;" d="M257.057,190.125c-0.316,0-0.474,0.078-0.474,0.234c0,0.11,0.077,0.192,0.233,0.247
		c0.069,0.024,0.19,0.054,0.362,0.088s0.308,0.068,0.408,0.102c0.322,0.108,0.483,0.31,0.483,0.603c0,0.252-0.112,0.443-0.336,0.576
		c-0.184,0.11-0.413,0.166-0.688,0.169c-0.465,0-0.777-0.148-0.936-0.446c-0.053-0.1-0.079-0.218-0.08-0.354h0.505
		c0.015,0.147,0.07,0.251,0.169,0.311c0.098,0.059,0.215,0.089,0.351,0.089c0.227,0,0.382-0.048,0.465-0.144l0.045-0.159
		c-0.006-0.117-0.086-0.204-0.24-0.261c-0.069-0.024-0.188-0.052-0.354-0.083c-0.315-0.062-0.543-0.145-0.683-0.246
		c-0.141-0.103-0.211-0.262-0.211-0.479c0-0.219,0.107-0.389,0.323-0.509c0.167-0.093,0.379-0.139,0.634-0.139
		c0.403,0,0.688,0.126,0.852,0.379c0.059,0.09,0.094,0.198,0.108,0.325h-0.527c-0.024-0.12-0.08-0.2-0.167-0.241L257.057,190.125z"
		/>
	<path style="fill:#A39B7C;" d="M261.656,191.768c-0.127,0.25-0.373,0.375-0.737,0.375c-0.163,0-0.313-0.031-0.446-0.095
		c-0.262-0.123-0.44-0.339-0.536-0.648c-0.043-0.147-0.064-0.316-0.064-0.508c0.001-0.371,0.099-0.659,0.293-0.864
		c0.193-0.206,0.422-0.308,0.687-0.306c0.264,0.001,0.475,0.067,0.634,0.199l0.145,0.16h0.009v-1.171h0.506v3.17h-0.479v-0.313
		H261.656z M260.542,191.513c0.109,0.154,0.268,0.23,0.475,0.229c0.208-0.002,0.366-0.083,0.475-0.243
		c0.11-0.16,0.165-0.358,0.165-0.595c0-0.237-0.057-0.426-0.171-0.567s-0.274-0.213-0.479-0.215c-0.205,0-0.366,0.088-0.483,0.265
		c-0.097,0.145-0.146,0.329-0.146,0.554C260.377,191.167,260.432,191.358,260.542,191.513z"/>
	<path style="fill:#A39B7C;" d="M262.854,188.911h0.506v0.479h-0.506V188.911z M262.854,189.785h0.506v2.296h-0.506V189.785z"/>
	<path style="fill:#A39B7C;" d="M264.96,190.125c-0.316,0-0.474,0.078-0.474,0.234c0,0.11,0.077,0.192,0.233,0.247
		c0.069,0.024,0.19,0.054,0.362,0.088s0.308,0.068,0.408,0.102c0.322,0.108,0.483,0.31,0.483,0.603c0,0.252-0.112,0.443-0.336,0.576
		c-0.184,0.11-0.413,0.166-0.688,0.169c-0.465,0-0.777-0.148-0.936-0.446c-0.053-0.1-0.079-0.218-0.08-0.354h0.505
		c0.015,0.147,0.07,0.251,0.169,0.311c0.098,0.059,0.215,0.089,0.351,0.089c0.227,0,0.382-0.048,0.465-0.144l0.045-0.159
		c-0.006-0.117-0.086-0.204-0.24-0.261c-0.069-0.024-0.188-0.052-0.354-0.083c-0.315-0.062-0.543-0.145-0.683-0.246
		c-0.141-0.103-0.211-0.262-0.211-0.479c0-0.219,0.107-0.389,0.323-0.509c0.167-0.093,0.379-0.139,0.634-0.139
		c0.403,0,0.688,0.126,0.852,0.379c0.059,0.09,0.094,0.198,0.108,0.325h-0.527c-0.024-0.12-0.08-0.2-0.167-0.241L264.96,190.125z"/>
	<path style="fill:#A39B7C;" d="M267.529,190.125c-0.272,0-0.462,0.137-0.569,0.409c-0.042,0.107-0.063,0.229-0.063,0.364
		c0,0.257,0.052,0.463,0.154,0.617s0.255,0.23,0.456,0.228c0.147,0,0.27-0.046,0.367-0.137c0.097-0.091,0.157-0.22,0.18-0.386h0.506
		c-0.048,0.299-0.161,0.528-0.341,0.687c-0.179,0.159-0.429,0.238-0.75,0.236c-0.321,0-0.581-0.11-0.78-0.331
		c-0.201-0.222-0.3-0.51-0.297-0.865c0.001-0.354,0.1-0.646,0.297-0.878c0.196-0.23,0.475-0.345,0.836-0.345
		c0.28,0,0.518,0.07,0.712,0.21c0.193,0.141,0.302,0.347,0.323,0.618h-0.506c-0.02-0.141-0.077-0.247-0.171-0.319
		C267.789,190.161,267.672,190.125,267.529,190.125z"/>
	<path style="fill:#A39B7C;" d="M270.512,188.911h0.506v0.479h-0.506V188.911z M270.512,189.785h0.506v2.296h-0.506V189.785z"/>
	<path style="fill:#A39B7C;" d="M272.618,190.125c-0.316,0-0.474,0.078-0.474,0.234c0,0.11,0.077,0.192,0.233,0.247
		c0.069,0.024,0.19,0.054,0.362,0.088s0.308,0.068,0.408,0.102c0.322,0.108,0.483,0.31,0.483,0.603c0,0.252-0.112,0.443-0.336,0.576
		c-0.184,0.11-0.413,0.166-0.688,0.169c-0.465,0-0.777-0.148-0.936-0.446c-0.053-0.1-0.079-0.218-0.08-0.354h0.505
		c0.015,0.147,0.07,0.251,0.169,0.311c0.098,0.059,0.215,0.089,0.351,0.089c0.227,0,0.382-0.048,0.465-0.144l0.045-0.159
		c-0.006-0.117-0.086-0.204-0.24-0.261c-0.069-0.024-0.188-0.052-0.354-0.083c-0.315-0.062-0.543-0.145-0.683-0.246
		c-0.141-0.103-0.211-0.262-0.211-0.479c0-0.219,0.107-0.389,0.323-0.509c0.167-0.093,0.379-0.139,0.634-0.139
		c0.403,0,0.688,0.126,0.852,0.379c0.059,0.09,0.094,0.198,0.108,0.325h-0.527c-0.024-0.12-0.08-0.2-0.167-0.241L272.618,190.125z"
		/>
	<path style="fill:#A39B7C;" d="M275.438,190.935c0-0.36,0.104-0.652,0.313-0.877c0.208-0.226,0.49-0.338,0.849-0.336
		c0.358,0.001,0.64,0.113,0.845,0.336c0.207,0.222,0.31,0.513,0.31,0.874c0,0.36-0.104,0.651-0.312,0.876
		c-0.207,0.224-0.489,0.335-0.846,0.335c-0.184,0-0.347-0.03-0.49-0.091c-0.29-0.122-0.487-0.333-0.59-0.632
		C275.464,191.273,275.438,191.111,275.438,190.935z M277.248,190.932c0-0.354-0.12-0.6-0.359-0.735
		c-0.083-0.048-0.181-0.072-0.293-0.072c-0.113,0-0.211,0.024-0.293,0.072c-0.234,0.136-0.354,0.381-0.359,0.735
		c0,0.222,0.056,0.411,0.167,0.57c0.11,0.16,0.272,0.24,0.483,0.24s0.372-0.08,0.485-0.238
		C277.191,191.345,277.248,191.155,277.248,190.932z"/>
	<path style="fill:#A39B7C;" d="M278.322,189.785h0.479v0.34l0.009,0.009c0.076-0.128,0.177-0.228,0.301-0.301
		c0.124-0.072,0.263-0.108,0.414-0.108c0.251,0,0.448,0.064,0.593,0.195c0.145,0.13,0.217,0.325,0.219,0.585v1.576h-0.506v-1.442
		c-0.006-0.181-0.044-0.312-0.114-0.392c-0.071-0.081-0.187-0.122-0.345-0.122c-0.159,0-0.289,0.059-0.391,0.174
		c-0.1,0.115-0.151,0.259-0.154,0.429v1.354h-0.505V189.785z"/>
	<rect x="281.029" y="188.911" style="fill:#A39B7C;" width="0.506" height="3.17"/>
	<path style="fill:#A39B7C;" d="M282.47,192.569c0.126,0,0.217-0.063,0.271-0.187l0.05-0.133l0.059-0.178l-0.872-2.287h0.556
		l0.601,1.715h0.009l0.581-1.715h0.528l-0.893,2.42c-0.042,0.104-0.084,0.203-0.124,0.299c-0.04,0.094-0.089,0.177-0.146,0.249
		c-0.127,0.158-0.309,0.237-0.544,0.238c-0.118,0-0.235-0.008-0.352-0.025v-0.428C282.342,192.558,282.434,192.569,282.47,192.569z"
		/>
	<path style="fill:#A39B7C;" d="M288.076,192.081h-0.497v-0.318h-0.009c-0.062,0.115-0.154,0.208-0.277,0.277
		s-0.248,0.104-0.375,0.104c-0.302,0.002-0.521-0.072-0.654-0.223c-0.135-0.15-0.202-0.377-0.202-0.679v-1.457h0.505v1.407
		c0,0.199,0.039,0.341,0.117,0.425s0.178,0.126,0.3,0.126c0.211,0,0.361-0.056,0.453-0.165c0.089-0.11,0.134-0.263,0.134-0.46
		v-1.333h0.506V192.081z"/>
	<path style="fill:#A39B7C;" d="M289.658,190.125c-0.316,0-0.474,0.078-0.474,0.234c0,0.11,0.077,0.192,0.233,0.247
		c0.069,0.024,0.19,0.054,0.362,0.088s0.308,0.068,0.408,0.102c0.322,0.108,0.483,0.31,0.483,0.603c0,0.252-0.112,0.443-0.336,0.576
		c-0.184,0.11-0.413,0.166-0.688,0.169c-0.465,0-0.777-0.148-0.936-0.446c-0.053-0.1-0.079-0.218-0.08-0.354h0.505
		c0.015,0.147,0.07,0.251,0.169,0.311c0.098,0.059,0.215,0.089,0.351,0.089c0.227,0,0.382-0.048,0.465-0.144l0.045-0.159
		c-0.006-0.117-0.086-0.204-0.24-0.261c-0.069-0.024-0.188-0.052-0.354-0.083c-0.315-0.062-0.543-0.145-0.683-0.246
		c-0.141-0.103-0.211-0.262-0.211-0.479c0-0.219,0.107-0.389,0.323-0.509c0.167-0.093,0.379-0.139,0.634-0.139
		c0.403,0,0.688,0.126,0.852,0.379c0.059,0.09,0.094,0.198,0.108,0.325h-0.527c-0.024-0.12-0.08-0.2-0.167-0.241L289.658,190.125z"
		/>
	<path style="fill:#A39B7C;" d="M292.201,189.724c0.181,0,0.343,0.037,0.486,0.112c0.289,0.152,0.477,0.395,0.563,0.729
		c0.043,0.162,0.054,0.328,0.032,0.499h-1.687c0,0.192,0.054,0.354,0.16,0.485c0.107,0.132,0.26,0.196,0.458,0.193
		c0.283,0,0.47-0.128,0.559-0.382h0.479c-0.052,0.247-0.176,0.44-0.373,0.579c-0.187,0.136-0.408,0.203-0.665,0.203
		c-0.352,0-0.627-0.11-0.825-0.331c-0.2-0.222-0.3-0.506-0.298-0.854c0.001-0.347,0.104-0.639,0.307-0.876
		C291.602,189.843,291.869,189.724,292.201,189.724z M292.778,190.73c-0.019-0.265-0.134-0.448-0.345-0.554l-0.234-0.052
		l-0.24,0.048c-0.145,0.062-0.248,0.169-0.311,0.32l-0.052,0.237H292.778z"/>
	<path style="fill:#A39B7C;" d="M296.12,189.312l-0.191,0.05c-0.049,0.033-0.073,0.096-0.073,0.189v0.233h0.432v0.401h-0.432v1.895
		h-0.506v-1.895h-0.379v-0.401h0.379v-0.19c0-0.267,0.065-0.453,0.195-0.562c0.099-0.081,0.236-0.122,0.414-0.122
		c0.18,0,0.306,0.011,0.38,0.03v0.397L296.12,189.312z"/>
	<path style="fill:#A39B7C;" d="M296.637,190.935c0-0.36,0.104-0.652,0.313-0.877c0.208-0.226,0.49-0.338,0.849-0.336
		c0.358,0.001,0.64,0.113,0.845,0.336c0.207,0.222,0.31,0.513,0.31,0.874c0,0.36-0.104,0.651-0.312,0.876
		c-0.207,0.224-0.489,0.335-0.846,0.335c-0.184,0-0.347-0.03-0.49-0.091c-0.29-0.122-0.487-0.333-0.59-0.632
		C296.663,191.273,296.637,191.111,296.637,190.935z M298.447,190.932c0-0.354-0.12-0.6-0.359-0.735
		c-0.083-0.048-0.181-0.072-0.293-0.072c-0.113,0-0.211,0.024-0.293,0.072c-0.234,0.136-0.354,0.381-0.359,0.735
		c0,0.222,0.056,0.411,0.167,0.57c0.11,0.16,0.272,0.24,0.483,0.24s0.372-0.08,0.485-0.238
		C298.391,191.345,298.447,191.155,298.447,190.932z"/>
	<path style="fill:#A39B7C;" d="M300.625,190.203l-0.217,0.053c-0.157,0.07-0.268,0.203-0.332,0.396
		c-0.033,0.099-0.05,0.21-0.05,0.336v1.093h-0.505v-2.296h0.475v0.444h0.009c0.029-0.121,0.109-0.236,0.241-0.345
		c0.133-0.107,0.275-0.16,0.429-0.16l0.191,0.013v0.488C300.774,190.21,300.694,190.203,300.625,190.203z"/>
	<polygon style="fill:#A39B7C;" points="247.736,193.498 248.3,193.498 249.748,195.833 249.757,195.833 249.757,193.498 
		250.262,193.498 250.262,196.667 249.7,196.667 248.255,194.336 248.241,194.336 248.241,196.667 247.736,196.667 	"/>
	<path style="fill:#A39B7C;" d="M251.812,193.498h0.59l1.221,3.17h-0.594l-0.297-0.839h-1.267l-0.297,0.839h-0.572L251.812,193.498z
		 M251.617,195.406h0.967l-0.475-1.361h-0.014L251.617,195.406z"/>
	<path style="fill:#A39B7C;" d="M255.274,193.421c0.461,0,0.83,0.161,1.106,0.481c0.275,0.321,0.414,0.715,0.414,1.182
		c0,0.469-0.138,0.861-0.412,1.18c-0.274,0.316-0.644,0.476-1.106,0.477c-0.462,0.002-0.831-0.156-1.107-0.475
		c-0.274-0.317-0.412-0.711-0.412-1.179c0-0.469,0.135-0.859,0.403-1.174c0.13-0.149,0.289-0.27,0.478-0.359
		C254.825,193.464,255.038,193.42,255.274,193.421z M254.551,195.935c0.159,0.236,0.4,0.355,0.724,0.355
		c0.324,0,0.565-0.119,0.725-0.358c0.16-0.238,0.24-0.521,0.24-0.85s-0.08-0.611-0.24-0.85c-0.161-0.238-0.401-0.358-0.723-0.358
		c-0.322,0-0.564,0.12-0.726,0.36c-0.162,0.24-0.242,0.524-0.241,0.853C254.312,195.416,254.392,195.698,254.551,195.935z"/>
	<polygon style="fill:#A39B7C;" points="257.291,193.498 258.051,193.498 258.925,195.98 258.936,195.98 259.789,193.498 
		260.537,193.498 260.537,196.667 260.032,196.667 260.032,194.222 260.023,194.222 259.145,196.667 258.687,196.667 
		257.806,194.222 257.797,194.222 257.797,196.667 257.291,196.667 	"/>
	<rect x="261.245" y="193.498" style="fill:#A39B7C;" width="0.556" height="3.17"/>
	<path style="fill:#A39B7C;" d="M266.478,196.667h-0.355l-0.083-0.373c-0.149,0.169-0.297,0.286-0.444,0.352
		c-0.147,0.064-0.329,0.098-0.544,0.098c-0.216-0.002-0.417-0.046-0.605-0.133c-0.375-0.176-0.634-0.471-0.775-0.885
		c-0.069-0.2-0.104-0.414-0.104-0.642c0-0.467,0.135-0.856,0.403-1.171c0.13-0.149,0.289-0.27,0.477-0.359s0.384-0.134,0.589-0.133
		c0.597,0,1.016,0.205,1.257,0.614c0.08,0.136,0.13,0.292,0.149,0.471h-0.555c-0.027-0.198-0.117-0.354-0.269-0.465
		c-0.152-0.111-0.322-0.167-0.512-0.167c-0.34,0-0.589,0.12-0.746,0.358c-0.159,0.238-0.238,0.521-0.238,0.85s0.08,0.611,0.24,0.85
		c0.16,0.239,0.401,0.358,0.722,0.358c0.279,0.006,0.495-0.068,0.648-0.222s0.233-0.369,0.241-0.648h-0.846v-0.422h1.351V196.667z"
		/>
	<path style="fill:#A39B7C;" d="M267.082,193.498h1.314c0.471,0,0.826,0.155,1.064,0.464c0.223,0.282,0.334,0.656,0.334,1.121
		c0,0.466-0.111,0.839-0.334,1.121c-0.244,0.31-0.6,0.464-1.064,0.464h-1.314V193.498z M267.638,196.214h0.546
		c0.399,0,0.684-0.108,0.854-0.325c0.135-0.177,0.201-0.446,0.201-0.809c0-0.363-0.066-0.631-0.201-0.805
		c-0.165-0.217-0.449-0.325-0.854-0.325h-0.546V196.214z"/>
	<rect x="270.165" y="195.221" style="fill:#A39B7C;" width="1.292" height="0.479"/>
	<path style="fill:#A39B7C;" d="M274.519,195.833c0,0.43,0.058,0.708,0.173,0.835h-0.594l-0.073-0.226
		c-0.008-0.082-0.011-0.179-0.011-0.29c0-0.272-0.045-0.473-0.133-0.601c-0.088-0.129-0.254-0.191-0.499-0.189h-0.814v1.306h-0.556
		v-3.17h1.51c0.349,0,0.61,0.075,0.785,0.226s0.262,0.357,0.262,0.622s-0.073,0.473-0.221,0.625l-0.174,0.13l-0.124,0.054v0.009
		c0.203,0.024,0.344,0.145,0.421,0.36C274.503,195.605,274.519,195.708,274.519,195.833z M273.476,194.94
		c0.361,0,0.542-0.169,0.542-0.506c0-0.271-0.114-0.427-0.343-0.466l-0.208-0.018h-0.899v0.989H273.476z"/>
	<path style="fill:#A39B7C;" d="M276.485,193.421c0.461,0,0.83,0.161,1.106,0.481c0.275,0.321,0.414,0.715,0.414,1.182
		c0,0.469-0.138,0.861-0.412,1.18c-0.274,0.316-0.644,0.476-1.106,0.477c-0.462,0.002-0.831-0.156-1.107-0.475
		c-0.274-0.317-0.412-0.711-0.412-1.179c0-0.469,0.135-0.859,0.403-1.174c0.13-0.149,0.289-0.27,0.478-0.359
		C276.036,193.464,276.249,193.42,276.485,193.421z M275.762,195.935c0.159,0.236,0.4,0.355,0.724,0.355
		c0.324,0,0.565-0.119,0.725-0.358c0.16-0.238,0.24-0.521,0.24-0.85s-0.08-0.611-0.24-0.85c-0.161-0.238-0.401-0.358-0.723-0.358
		c-0.322,0-0.564,0.12-0.726,0.36c-0.162,0.24-0.242,0.524-0.241,0.853C275.522,195.416,275.603,195.698,275.762,195.935z"/>
	<polygon style="fill:#A39B7C;" points="278.501,193.498 279.261,193.498 280.135,195.98 280.146,195.98 280.999,193.498 
		281.747,193.498 281.747,196.667 281.242,196.667 281.242,194.222 281.233,194.222 280.354,196.667 279.896,196.667 
		279.016,194.222 279.007,194.222 279.007,196.667 278.501,196.667 	"/>
	<path style="fill:#A39B7C;" d="M284.057,195.612c0,0.231,0.074,0.401,0.223,0.512c0.148,0.111,0.338,0.167,0.569,0.167
		c0.23,0,0.401-0.046,0.511-0.137c0.109-0.092,0.165-0.202,0.167-0.333c0.001-0.129-0.025-0.222-0.08-0.28s-0.128-0.102-0.219-0.127
		c-0.092-0.024-0.211-0.058-0.358-0.099c-0.149-0.041-0.313-0.086-0.489-0.135s-0.31-0.104-0.399-0.163
		c-0.241-0.155-0.362-0.38-0.362-0.672s0.115-0.519,0.345-0.681c0.23-0.162,0.509-0.243,0.836-0.243
		c0.328,0,0.609,0.089,0.845,0.268c0.234,0.178,0.351,0.426,0.351,0.745h-0.555c-0.026-0.373-0.254-0.56-0.684-0.56
		c-0.249,0-0.424,0.072-0.526,0.216c-0.037,0.056-0.057,0.132-0.057,0.228c0,0.097,0.035,0.178,0.105,0.242
		c0.068,0.063,0.158,0.113,0.27,0.146c0.347,0.087,0.652,0.167,0.915,0.242c0.199,0.063,0.352,0.167,0.457,0.313
		c0.106,0.146,0.16,0.308,0.161,0.487c0.003,0.331-0.129,0.586-0.395,0.764c-0.231,0.154-0.529,0.231-0.895,0.231
		s-0.664-0.091-0.896-0.271c-0.257-0.198-0.389-0.484-0.395-0.86H284.057z"/>
	<polygon style="fill:#A39B7C;" points="287.948,196.667 287.393,196.667 287.393,195.425 286.202,193.498 286.847,193.498 
		287.686,194.917 288.512,193.498 289.132,193.498 287.948,195.425 	"/>
	<path style="fill:#A39B7C;" d="M289.811,195.612c0,0.231,0.074,0.401,0.223,0.512c0.148,0.111,0.338,0.167,0.569,0.167
		c0.23,0,0.401-0.046,0.511-0.137c0.109-0.092,0.165-0.202,0.167-0.333c0.001-0.129-0.025-0.222-0.08-0.28s-0.128-0.102-0.219-0.127
		c-0.092-0.024-0.211-0.058-0.358-0.099c-0.149-0.041-0.313-0.086-0.489-0.135s-0.31-0.104-0.399-0.163
		c-0.241-0.155-0.362-0.38-0.362-0.672s0.115-0.519,0.345-0.681c0.23-0.162,0.509-0.243,0.836-0.243
		c0.328,0,0.609,0.089,0.845,0.268c0.234,0.178,0.351,0.426,0.351,0.745h-0.555c-0.026-0.373-0.254-0.56-0.684-0.56
		c-0.249,0-0.424,0.072-0.526,0.216c-0.037,0.056-0.057,0.132-0.057,0.228c0,0.097,0.035,0.178,0.105,0.242
		c0.068,0.063,0.158,0.113,0.27,0.146c0.347,0.087,0.652,0.167,0.915,0.242c0.199,0.063,0.352,0.167,0.457,0.313
		c0.106,0.146,0.16,0.308,0.161,0.487c0.003,0.331-0.129,0.586-0.395,0.764c-0.231,0.154-0.529,0.231-0.895,0.231
		s-0.664-0.091-0.896-0.271c-0.257-0.198-0.389-0.484-0.395-0.86H289.811z"/>
	<polygon style="fill:#A39B7C;" points="292.018,193.498 294.584,193.498 294.584,193.977 293.576,193.977 293.576,196.667 
		293.021,196.667 293.021,193.977 292.018,193.977 	"/>
	<polygon style="fill:#A39B7C;" points="294.952,193.498 297.233,193.498 297.233,193.977 295.508,193.977 295.508,194.807 
		297.105,194.807 297.105,195.26 295.508,195.26 295.508,196.188 297.266,196.188 297.266,196.667 294.952,196.667 	"/>
	<polygon style="fill:#A39B7C;" points="297.74,193.498 298.5,193.498 299.374,195.98 299.385,195.98 300.238,193.498 
		300.986,193.498 300.986,196.667 300.481,196.667 300.481,194.222 300.473,194.222 299.594,196.667 299.136,196.667 
		298.255,194.222 298.246,194.222 298.246,196.667 297.74,196.667 	"/>
	<rect x="301.663" y="196.069" style="fill:#A39B7C;" width="0.618" height="0.599"/>
</g>
</svg>
