<?xml version="1.0" encoding="utf-8"?>
<!-- Generator: Adobe Illustrator 22.0.0, SVG Export Plug-In . SVG Version: 6.00 Build 0)  -->
<svg version="1.1" id="Capa_1" xmlns="http://www.w3.org/2000/svg" xmlns:xlink="http://www.w3.org/1999/xlink" x="0px" y="0px"
	 viewBox="0 0 30 30" style="enable-background:new 0 0 30 30;" xml:space="preserve">
<style type="text/css">
	.st0{fill:#C75043;}
	.st1{fill:#C89368;}
</style>
<g>
	<path id="Shape" class="st0" d="M29.7,15.3c-6.1,7.3-16.9-2-22.9,6l-0.3-1.2v0c-1.2-4.2-2.4-8.5-3.5-12.7C2.8,7,2.7,6.6,2.6,6.2
		c5.9-8,16.7,1.3,22.9-6C25.8-0.2,26,0,26,0.5c0,0.2-0.1,0.5-0.1,0.7c-0.4,2.6-0.8,4.9-1.3,7c-0.1,0.6-0.3,1.1-0.4,1.7
		c0,0,0,0.1,0,0.1c0,0.1,0.1,0.3,0.2,0.4c1.5,1.4,3.2,2.6,5.1,3.6c0.1,0.1,0.3,0.1,0.4,0.2C30,14.3,30,15,29.7,15.3L29.7,15.3z"/>
	<path id="Shape_2_" class="st1" d="M0.9,5.2L0.9,5.2c0.4-0.1,0.7-0.1,1,0.1S2.4,5.7,2.5,6l6.3,22.6c0.1,0.5-0.2,1.1-0.7,1.2L7.6,30
		c-0.5,0.1-1.1-0.2-1.2-0.7L0,6.7C-0.1,6,0.2,5.4,0.9,5.2L0.9,5.2z"/>
</g>
</svg>
