<?xml version="1.0" encoding="utf-8"?>
<!-- Generator: Adobe Illustrator 22.0.0, SVG Export Plug-In . SVG Version: 6.00 Build 0)  -->
<svg version="1.1" id="Capa_1" xmlns="http://www.w3.org/2000/svg" xmlns:xlink="http://www.w3.org/1999/xlink" x="0px" y="0px"
	 viewBox="0 0 30 30" style="enable-background:new 0 0 30 30;" xml:space="preserve">
<g>
	<path style="fill:#FFE000;" d="M9.019,3.21C4.038,3.21,0,7.248,0,12.229v11.236L5.771,30V18.369H2.93v-2.395h5.049v6.42
		l1.041,1.529l1.04-1.529l-0.001-6.42h5.049v2.395h-2.84V30l5.771-6.535V12.229C18.038,7.248,14,3.21,9.019,3.21z"/>
	<path style="fill:#FFC200;" d="M9.019,23.924l1.04-1.529l-0.001-6.42h5.049v2.395h-2.84V30l5.771-6.535V12.229
		c0-4.981-4.038-9.019-9.019-9.019c-0.005,0-0.01,0-0.015,0L9.019,23.924z"/>
	<path style="fill:#FD095D;" d="M6.039,0H12v11.416H6.039V0z"/>
	<path style="fill:#BC1742;" d="M9.004,0H12v11.416H9.004V0z"/>
</g>
</svg>
