<?xml version="1.0" encoding="utf-8"?>
<!-- Generator: Adobe Illustrator 22.0.0, SVG Export Plug-In . SVG Version: 6.00 Build 0)  -->
<svg version="1.1" id="Capa_1" xmlns="http://www.w3.org/2000/svg" xmlns:xlink="http://www.w3.org/1999/xlink" x="0px" y="0px"
	 viewBox="0 0 727.484 350.562" style="enable-background:new 0 0 727.484 350.562;" xml:space="preserve">
<g>
	<rect x="60.843" y="338.353" style="fill:#A5A5A7;" width="28.618" height="12.209"/>
	<rect x="95.757" y="338.353" style="fill:#A5A5A7;" width="28.618" height="12.209"/>
	<rect x="0" y="0" style="fill:#E0E0E1;" width="432.949" height="343.417"/>
	<polygon style="fill:#A3A3A4;" points="45.337,343.417 45.337,302.288 326.609,302.288 326.609,343.417 327.753,343.417 
		327.753,301.145 44.194,301.145 44.194,343.417 45.337,343.417 	"/>
	<rect x="327.779" y="0" style="fill:#A3A3A4;" width="67.301" height="343.417"/>
	<rect x="327.779" y="0" style="fill:#09070A;" width="67.301" height="41.699"/>
	<rect x="327.779" y="301.716" style="fill:#09070A;" width="67.301" height="41.7"/>
	<path style="fill:#202020;" d="M330.069,343.273c-1.184,0-2.146-0.963-2.146-2.146v-16.271c0-1.184,0.963-2.146,2.146-2.146h62.722
		c1.184,0,2.146,0.963,2.146,2.146v16.271c0,1.184-0.962,2.146-2.146,2.146H330.069z"/>
	<path style="fill:#070308;" d="M392.79,322.853c1.104,0,2.003,0.898,2.003,2.003v16.271c0,1.104-0.898,2.004-2.003,2.004h-62.722
		c-1.105,0-2.004-0.899-2.004-2.004v-16.271c0-1.104,0.898-2.003,2.004-2.003H392.79 M392.79,322.566h-62.722
		c-1.266,0-2.29,1.025-2.29,2.29v16.271c0,1.265,1.024,2.29,2.29,2.29h62.722c1.265,0,2.289-1.025,2.289-2.29v-16.271
		C395.079,323.591,394.055,322.566,392.79,322.566z"/>
	<path style="fill:#202020;" d="M330.069,322.423c-1.184,0-2.146-0.962-2.146-2.146v-16.271c0-1.184,0.963-2.146,2.146-2.146h62.722
		c1.184,0,2.146,0.962,2.146,2.146v16.271c0,1.184-0.962,2.146-2.146,2.146H330.069z"/>
	<path style="fill:#070308;" d="M392.79,302.003c1.104,0,2.003,0.898,2.003,2.003v16.271c0,1.104-0.898,2.003-2.003,2.003h-62.722
		c-1.105,0-2.004-0.898-2.004-2.003v-16.271c0-1.104,0.898-2.003,2.004-2.003H392.79 M392.79,301.716h-62.722
		c-1.266,0-2.29,1.024-2.29,2.289v16.271c0,1.264,1.024,2.289,2.29,2.289h62.722c1.265,0,2.289-1.025,2.289-2.289v-16.271
		C395.079,302.741,394.055,301.716,392.79,301.716z"/>
	<path style="fill:#202020;" d="M330.069,41.556c-1.184,0-2.146-0.963-2.146-2.146V23.139c0-1.183,0.963-2.146,2.146-2.146h62.722
		c1.184,0,2.146,0.963,2.146,2.146V39.41c0,1.183-0.962,2.146-2.146,2.146H330.069z"/>
	<path style="fill:#070308;" d="M392.79,21.136c1.104,0,2.003,0.899,2.003,2.003V39.41c0,1.104-0.898,2.003-2.003,2.003h-62.722
		c-1.105,0-2.004-0.898-2.004-2.003V23.139c0-1.104,0.898-2.003,2.004-2.003H392.79 M392.79,20.85h-62.722
		c-1.266,0-2.29,1.025-2.29,2.289V39.41c0,1.264,1.024,2.289,2.29,2.289h62.722c1.265,0,2.289-1.025,2.289-2.289V23.139
		C395.079,21.875,394.055,20.85,392.79,20.85z"/>
	<path style="fill:#202020;" d="M330.069,20.707c-1.184,0-2.146-0.963-2.146-2.147V2.289c0-1.183,0.963-2.146,2.146-2.146h62.722
		c1.184,0,2.146,0.963,2.146,2.146V18.56c0,1.184-0.962,2.147-2.146,2.147H330.069z"/>
	<path style="fill:#070308;" d="M392.79,0.286c1.104,0,2.003,0.898,2.003,2.003V18.56c0,1.105-0.898,2.004-2.003,2.004h-62.722
		c-1.105,0-2.004-0.899-2.004-2.004V2.289c0-1.104,0.898-2.003,2.004-2.003H392.79 M392.79,0h-62.722
		c-1.266,0-2.29,1.024-2.29,2.289V18.56c0,1.265,1.024,2.291,2.29,2.291h62.722c1.265,0,2.289-1.025,2.289-2.291V2.289
		C395.079,1.025,394.055,0,392.79,0z"/>
	<rect x="327.779" y="296.795" style="fill:#E0E0E1;" width="67.301" height="4.922"/>
	<rect x="327.779" y="287.685" style="fill:#E0E0E1;" width="67.301" height="4.92"/>
	<rect x="327.779" y="278.573" style="fill:#E0E0E1;" width="67.301" height="4.921"/>
	<rect x="327.779" y="269.464" style="fill:#E0E0E1;" width="67.301" height="4.921"/>
	<rect x="327.779" y="260.354" style="fill:#E0E0E1;" width="67.301" height="4.921"/>
	<rect x="327.779" y="251.243" style="fill:#E0E0E1;" width="67.301" height="4.92"/>
	<rect x="327.779" y="242.131" style="fill:#E0E0E1;" width="67.301" height="4.921"/>
	<rect x="327.779" y="233.021" style="fill:#E0E0E1;" width="67.301" height="4.921"/>
	<rect x="327.779" y="223.911" style="fill:#E0E0E1;" width="67.301" height="4.92"/>
	<rect x="327.779" y="214.8" style="fill:#E0E0E1;" width="67.301" height="4.921"/>
	<rect x="327.779" y="205.69" style="fill:#E0E0E1;" width="67.301" height="4.92"/>
	<rect x="327.779" y="196.579" style="fill:#E0E0E1;" width="67.301" height="4.921"/>
	<rect x="327.779" y="187.467" style="fill:#E0E0E1;" width="67.301" height="4.924"/>
	<rect x="327.779" y="178.359" style="fill:#E0E0E1;" width="67.301" height="4.921"/>
	<rect x="327.779" y="169.247" style="fill:#E0E0E1;" width="67.301" height="4.921"/>
	<rect x="327.779" y="160.137" style="fill:#E0E0E1;" width="67.301" height="4.92"/>
	<rect x="327.779" y="151.026" style="fill:#E0E0E1;" width="67.301" height="4.922"/>
	<rect x="327.779" y="141.916" style="fill:#E0E0E1;" width="67.301" height="4.921"/>
	<rect x="327.779" y="132.806" style="fill:#E0E0E1;" width="67.301" height="4.921"/>
	<rect x="327.779" y="123.694" style="fill:#E0E0E1;" width="67.301" height="4.921"/>
	<rect x="327.779" y="114.584" style="fill:#E0E0E1;" width="67.301" height="4.92"/>
	<rect x="327.779" y="105.473" style="fill:#E0E0E1;" width="67.301" height="4.921"/>
	<rect x="327.779" y="96.363" style="fill:#E0E0E1;" width="67.301" height="4.921"/>
	<rect x="327.779" y="87.253" style="fill:#E0E0E1;" width="67.301" height="4.92"/>
	<rect x="327.779" y="78.142" style="fill:#E0E0E1;" width="67.301" height="4.921"/>
	<rect x="327.779" y="69.031" style="fill:#E0E0E1;" width="67.301" height="4.922"/>
	<rect x="327.779" y="59.922" style="fill:#E0E0E1;" width="67.301" height="4.921"/>
	<rect x="327.779" y="50.81" style="fill:#E0E0E1;" width="67.301" height="4.92"/>
	<rect x="327.779" y="41.699" style="fill:#E0E0E1;" width="67.301" height="4.921"/>
	<polygon style="fill:#BCBCBC;" points="719.066,90.761 719.066,94.047 706.335,94.047 706.335,90.761 583.144,90.761 
		583.144,94.047 532.338,94.047 532.338,90.761 518.011,90.761 518.011,94.047 505.371,94.047 505.371,90.761 496.977,90.761 
		496.977,302.79 508.953,302.79 508.953,350.562 714.138,350.562 714.138,303.406 727.484,303.406 727.484,90.761 	"/>
	<path style="fill:#A3A3A4;" d="M505.371,94.047h12.638v-1.3h-12.638V94.047z M706.335,94.047h12.73v-1.3h-12.73V94.047z
		 M532.338,350.561h50.805V94.047h-50.805V350.561z"/>
	<path style="fill:#858484;" d="M583.144,94.047h-50.806v28.836c0,1.21,0.98,2.19,2.19,2.19h46.424c1.211,0,2.191-0.98,2.191-2.19
		V94.047z"/>
	<path style="fill:#BCBCBC;" d="M532.748,350.561h49.983v-24.73c0-1.208-0.965-2.189-2.153-2.189h-45.676
		c-1.19,0-2.154,0.981-2.154,2.189V350.561z M581.98,319.078h-48.593v-4.654h48.593V319.078z M581.98,309.314h-48.593v-4.654h48.593
		V309.314z M581.98,299.55h-48.593v-4.654h48.593V299.55z M581.98,289.786h-48.593v-4.654h48.593V289.786z M581.98,280.022h-48.593
		v-4.654h48.593V280.022z M581.98,270.257h-48.593v-4.654h48.593V270.257z M581.98,260.493h-48.593v-4.654h48.593V260.493z
		 M581.98,250.729h-48.593v-4.654h48.593V250.729z M581.98,240.965h-48.593v-4.654h48.593V240.965z M581.98,231.201h-48.593v-4.655
		h48.593V231.201z M581.98,221.436h-48.593v-4.654h48.593V221.436z M581.98,211.671h-48.593v-4.654h48.593V211.671z M581.98,201.907
		h-48.593v-4.654h48.593V201.907z M581.98,192.144h-48.593v-4.654h48.593V192.144z M581.98,182.38h-48.593v-4.654h48.593V182.38z
		 M581.98,172.615h-48.593v-4.655h48.593V172.615z M581.98,162.851h-48.593v-4.654h48.593V162.851z M581.98,153.086h-48.593v-4.654
		h48.593V153.086z M581.98,143.321h-48.593v-4.654h48.593V143.321z M581.98,133.557h-48.593v-4.654h48.593V133.557z"/>
	<path style="fill:#1A1919;" d="M587.865,90.762V265.74c0,1.21,0.981,2.19,2.191,2.19h106.767c1.21,0,2.191-0.98,2.191-2.19V90.762
		H587.865z"/>
	<path style="fill:#A3A3A4;" d="M600.87,283.261h20.854l-10.428,18.069L600.87,283.261z M581.98,123.794h-48.593v-4.654h48.593
		V123.794z M581.98,114.03h-48.593v-4.654h48.593V114.03z M581.98,104.265h-48.593v-4.654h48.593V104.265z"/>
	<path style="fill:#FFFFFF;" d="M674.929,238.826c6.932,0,12.552,3.915,12.552,8.742c0,4.828-5.62,8.743-12.552,8.743
		c-6.933,0-12.552-3.915-12.552-8.743C662.377,242.741,667.996,238.826,674.929,238.826z"/>
	<path style="fill:#A18051;" d="M672.228,252.732h0.388v0.021c0,0.121,0.038,0.214,0.113,0.277s0.186,0.095,0.33,0.095
		c0.111,0,0.197-0.023,0.258-0.069l0.091-0.196l-0.06-0.156c-0.04-0.034-0.12-0.059-0.24-0.077l-0.27-0.038
		c-0.197-0.029-0.342-0.092-0.435-0.19s-0.139-0.235-0.139-0.413c0-0.211,0.066-0.383,0.2-0.515s0.311-0.199,0.531-0.199
		c0.236,0,0.422,0.063,0.556,0.188s0.2,0.296,0.2,0.513v0.017h-0.379c-0.009-0.107-0.044-0.188-0.106-0.242
		c-0.062-0.053-0.149-0.08-0.265-0.08c-0.106,0-0.189,0.021-0.248,0.065l-0.088,0.182l0.052,0.138
		c0.034,0.029,0.119,0.054,0.254,0.076l0.281,0.042c0.195,0.03,0.338,0.096,0.43,0.198c0.092,0.102,0.138,0.246,0.138,0.431
		c0,0.239-0.068,0.42-0.206,0.545s-0.338,0.187-0.603,0.187c-0.252,0-0.445-0.065-0.581-0.196s-0.203-0.317-0.203-0.56V252.732z
		 M675.338,252.954c-0.047,0.185-0.128,0.327-0.242,0.428c-0.115,0.101-0.255,0.151-0.42,0.151c-0.209,0-0.375-0.078-0.497-0.231
		c-0.122-0.154-0.184-0.364-0.184-0.628s0.062-0.473,0.183-0.626c0.122-0.153,0.288-0.229,0.498-0.229
		c0.219,0,0.387,0.079,0.505,0.238s0.177,0.386,0.177,0.679v0.068h-0.969c0.003,0.117,0.029,0.211,0.081,0.28l0.205,0.104
		l0.172-0.061l0.104-0.173H675.338z M674.401,252.47l0.566,0.001c-0.006-0.1-0.034-0.178-0.085-0.235l-0.198-0.085l-0.197,0.086
		C674.435,252.295,674.407,252.372,674.401,252.47z M676.845,253.218l0.013,0.144l0.042,0.078v0.036h-0.388l-0.018-0.175
		l-0.206,0.175c-0.076,0.038-0.165,0.057-0.266,0.057c-0.156,0-0.278-0.048-0.368-0.144c-0.09-0.096-0.135-0.226-0.135-0.389
		c0-0.152,0.041-0.265,0.121-0.34c0.081-0.075,0.22-0.124,0.416-0.147l0.108-0.01c0.226-0.022,0.339-0.084,0.339-0.186l-0.065-0.136
		l-0.195-0.045l-0.192,0.064c-0.041,0.043-0.063,0.11-0.063,0.201l-0.368,0.001v-0.005c0-0.188,0.056-0.333,0.166-0.432
		c0.109-0.099,0.27-0.148,0.478-0.148c0.103,0,0.193,0.014,0.272,0.043l0.199,0.127l0.085,0.165
		c0.017,0.066,0.025,0.167,0.025,0.301V253.218z M676.502,252.704c-0.044,0.034-0.127,0.059-0.251,0.077l-0.033,0.005
		c-0.132,0.019-0.215,0.043-0.25,0.071l-0.053,0.131l0.052,0.149l0.138,0.056c0.119,0,0.216-0.04,0.29-0.121
		c0.073-0.081,0.11-0.185,0.11-0.314v-0.035L676.502,252.704L676.502,252.704z M677.157,253.476v-2.146h0.348v2.146H677.157z"/>
	<path style="fill:#A18051;" d="M688.976,247.574l1.501,1.607l-2.145,1.288l0.603,2.49l-2.308,0.063l-0.159,2.711l-2.572-0.708
		l-0.434,2.559l-2.381-0.945l-1.241,2.256l-1.859-1.608l-1.621,2.286l-1.786-1.94l-1.951,1.812l-1.273-2.134l-2.301,1.354
		l-0.795-2.389l-2.664,1.05l-0.392-2.355l-2.383,0.149l0.356-2.398l-2.438-0.01l0.57-2.619l-1.891-1.063l1.505-1.709l-1.351-2.376
		l2.196-0.695l-0.578-2.542l2.409-0.032l0.279-2.521l2.18,0.723l0.721-2.458l2.201,1.191l0.911-2.174l1.906,1.325l1.34-2.066
		l1.801,1.8l1.592-1.646l1.395,2.075l2.18-1.401l0.864,2.29l2.19-1.037l0.563,2.389l2.597-0.462l-0.08,2.338l2.624,0.283
		l-0.743,2.259l2.285,0.979L688.976,247.574L688.976,247.574z M687.481,247.569c0-4.827-5.62-8.742-12.552-8.742
		c-6.933,0-12.552,3.915-12.552,8.742c0,4.829,5.619,8.743,12.552,8.743C681.861,256.312,687.481,252.398,687.481,247.569z"/>
	<path style="fill:#A18051;" d="M670.773,243.069c0-0.58,0.329-0.725,0.563-0.725c0.233,0,0.563,0.145,0.563,0.725
		c0,0.581-0.329,0.725-0.563,0.725C671.102,243.794,670.773,243.65,670.773,243.069z M670.341,243.069
		c0,0.972,0.721,1.09,0.995,1.09s0.995-0.118,0.995-1.09c0-0.972-0.721-1.09-0.995-1.09S670.341,242.097,670.341,243.069z
		 M673.056,244.105h-0.404v-1.244h-0.223v-0.29h0.223v-0.125c0-0.319,0.173-0.44,0.45-0.44c0.118,0,0.173,0.002,0.208,0.005v0.326
		h-0.113c-0.138,0-0.141,0.044-0.141,0.172v0.061h0.263v0.29h-0.263V244.105L673.056,244.105z M673.959,244.105h-0.404v-1.244
		h-0.223v-0.29h0.223v-0.125c0-0.319,0.173-0.44,0.45-0.44c0.118,0,0.173,0.002,0.207,0.005v0.326H674.1
		c-0.139,0-0.141,0.044-0.141,0.172v0.061h0.262v0.29h-0.262V244.105L673.959,244.105z M674.81,242.571v1.534h-0.403v-1.534H674.81z
		 M674.81,242.386h-0.403v-0.374h0.403V242.386z M676.461,243.545c-0.015,0.158-0.139,0.599-0.702,0.599
		c-0.578,0-0.711-0.441-0.711-0.763c0-0.495,0.217-0.85,0.736-0.85c0.243,0,0.642,0.11,0.679,0.588h-0.409
		c-0.018-0.101-0.081-0.259-0.27-0.248c-0.254,0-0.32,0.253-0.32,0.443c0,0.167,0.005,0.497,0.312,0.497
		c0.206,0,0.275-0.195,0.275-0.267H676.461z M677.101,242.571v1.534h-0.404v-1.534H677.101z M677.101,242.386h-0.404v-0.374h0.404
		V242.386z M678.278,243.555c0,0.185-0.182,0.3-0.36,0.3c-0.077,0-0.187-0.043-0.187-0.184c0-0.167,0.124-0.204,0.273-0.229
		c0.167-0.026,0.233-0.052,0.273-0.083V243.555z M678.673,242.976c0-0.378-0.396-0.444-0.611-0.444
		c-0.314,0-0.641,0.066-0.687,0.537h0.39c0.012-0.089,0.046-0.213,0.248-0.213c0.104,0,0.265,0.009,0.265,0.179l-0.142,0.121
		l-0.362,0.055c-0.257,0.038-0.447,0.19-0.447,0.49c0,0.315,0.236,0.445,0.468,0.445c0.273,0,0.402-0.127,0.495-0.223l0.037,0.184
		h0.436v-0.06c-0.049-0.018-0.089-0.058-0.089-0.24V242.976L678.673,242.976L678.673,242.976z M679.391,244.105h-0.403v-2.071h0.403
		"/>
	<path style="fill:#A18051;" d="M674.928,255.587c6.486,0,11.763-3.597,11.763-8.019c0-4.422-5.276-8.019-11.763-8.019
		c-6.485,0-11.762,3.597-11.762,8.019C663.166,251.99,668.443,255.587,674.928,255.587z M663.456,247.569
		c0-4.262,5.146-7.729,11.473-7.729c6.325,0,11.473,3.467,11.473,7.729s-5.146,7.729-11.473,7.729
		C668.603,255.298,663.456,251.831,663.456,247.569z"/>
	<path style="fill:#A18051;" d="M682.327,250.267c1.373,0,2.491-1.118,2.491-2.492s-1.118-2.492-2.491-2.492h-14.921
		c-1.373,0-2.491,1.118-2.491,2.492s1.118,2.492,2.491,2.492H682.327z M667.406,249.619c-1.017,0-1.844-0.828-1.844-1.844
		c0-1.017,0.827-1.845,1.844-1.845h14.921c1.017,0,1.845,0.828,1.845,1.845c0,1.017-0.828,1.844-1.845,1.844H667.406z"/>
	<path style="fill:#A18051;" d="M666.767,248.964v-2.346l0.733,0l0.979,1.521l0.004-1.521h0.761v2.346h-0.761
		c-0.066-0.144-0.942-1.513-0.942-1.513v1.514L666.767,248.964z M671.395,247.397l0.083,0.077l0.204-0.116
		c0.579-0.198,0.879,0.135,0.938,0.189c0.264,0.245,0.184,0.908,0.199,1.418h-0.769c0,0,0.013-0.956,0.002-1.085
		c-0.009-0.113-0.171-0.25-0.266-0.254c-0.159-0.005-0.355,0.076-0.364,0.255c-0.018,0.365,0.006,1.083,0.006,1.083h-0.753v-1.57
		L671.395,247.397L671.395,247.397z M673.183,248.964l0.001-1.538h-0.341v-0.21l0.34,0v-0.224h0.753l-0.001,0.223l0.359,0
		l-0.002,0.21h-0.356v1.537 M674.233,248.176c-0.014-0.515,0.464-0.838,0.869-0.859c0.191-0.009,0.388-0.025,0.561,0.056
		c0.109,0.052,0.235,0.069,0.325,0.154c0.18,0.17,0.295,0.385,0.295,0.661l-1.286-0.005c0,0.202-0.113,0.664,0.239,0.671
		c0.135,0.003,0.211-0.021,0.261-0.137c0.036-0.086,0.037-0.188,0.029-0.287c0.13,0.008,0.676-0.008,0.742-0.006
		c-0.147,0.41-0.592,0.588-1.021,0.588C675.069,249.012,674.253,248.931,674.233,248.176L674.233,248.176z M674.995,247.93
		l0.519-0.002l-0.01-0.21c-0.014-0.097-0.091-0.235-0.254-0.228c-0.222,0.009-0.254,0.135-0.254,0.272L674.995,247.93
		L674.995,247.93z M681.236,248.51c-0.135-0.177-0.155-0.525-0.029-0.784c0.109-0.226,0.394-0.392,0.542-0.44
		c0.202-0.065,0.53-0.083,0.807-0.017c0.204,0.049,0.459,0.17,0.616,0.457c0.124,0.225,0.102,0.595-0.037,0.786
		c-0.089,0.123-0.288,0.334-0.51,0.394c-0.192,0.051-0.589,0.08-0.799,0.014C681.596,248.847,681.419,248.754,681.236,248.51z
		 M682.195,248.78c0.213,0.001,0.262-0.165,0.266-0.269c0.009-0.239-0.005-0.535-0.005-0.786c0.001-0.129-0.072-0.299-0.266-0.299
		c-0.277,0-0.268,0.217-0.271,0.299c-0.006,0.138-0.006,0.607-0.003,0.785C681.917,248.57,681.946,248.779,682.195,248.78z
		 M680.87,248.964h-0.678l-0.015-0.091c-0.189,0.147-0.95,0.22-1.244-0.399c-0.026-0.055-0.103-0.457,0.008-0.704
		c0.18-0.401,0.594-0.489,0.888-0.472c0.118,0.007,0.346,0.128,0.346,0.128l0.001-0.858h0.693L680.87,248.964L680.87,248.964z
		 M680.163,248.569c0.022-0.069,0.011-0.519,0.011-0.738l-0.061-0.176c-0.057-0.07-0.102-0.107-0.217-0.102
		c-0.147,0.005-0.232,0.136-0.239,0.219c-0.018,0.22-0.029,0.446,0.005,0.728l0.1,0.173
		C679.927,248.79,680.12,248.701,680.163,248.569z M670.335,248.964v-1.586h-0.776v1.586 M670.335,247.111v-0.493h-0.776v0.493
		 M677.27,247.384l0.083,0.077l0.204-0.116c0.579-0.198,0.879,0.135,0.938,0.189c0.264,0.245,0.183,0.908,0.199,1.417h-0.769
		c0,0,0.013-0.955,0.002-1.085c-0.009-0.113-0.172-0.25-0.266-0.254c-0.159-0.007-0.355,0.076-0.364,0.256
		c-0.018,0.365-0.011,1.095-0.011,1.095h-0.728v-1.582L677.27,247.384L677.27,247.384z M682.808,247.13h-0.05v-0.237h0.088
		l0.098,0.072l-0.058,0.062l0.061,0.104h-0.06l-0.055-0.1h-0.024V247.13z M682.853,246.99l0.036-0.031l-0.045-0.026h-0.036v0.057
		H682.853z M682.845,247.232c-0.117,0-0.221-0.081-0.221-0.22s0.104-0.22,0.221-0.22s0.221,0.081,0.221,0.22
		S682.962,247.232,682.845,247.232z M682.845,246.842c-0.087,0-0.157,0.068-0.157,0.169s0.07,0.169,0.157,0.169v0
		c0.085,0,0.157-0.068,0.157-0.169C683.002,246.91,682.93,246.842,682.845,246.842z"/>
	<path style="fill:#C23435;" d="M622.407,252.353h-24.589c-2.22,0-4.026-1.806-4.026-4.026c0-2.22,1.807-4.025,4.026-4.025h24.588
		c2.221,0,4.026,1.806,4.026,4.026C626.432,250.547,624.626,252.353,622.407,252.353z M597.818,245.254
		c-1.695,0-3.074,1.379-3.074,3.074s1.379,3.074,3.074,3.074h24.588c1.695,0,3.074-1.379,3.074-3.074s-1.379-3.074-3.074-3.074
		H597.818z"/>
	<path style="fill:#C23435;" d="M600.976,250.194v-3.716h-1.118v2.598l-1.648-2.598h-1.201v3.716h1.117v-2.682l1.732,2.682H600.976z
		 M602.791,250.194v-2.515h-1.117v2.515H602.791z M602.791,247.149v-0.67h-1.117v0.67H602.791z M606.703,250.194v-1.732
		c0-0.363-0.699-0.866-1.062-0.866h-0.336c-0.251,0-0.531,0.224-0.782,0.335v-0.251h-1.117v2.515h1.117v-1.732
		c0-0.167,0.391-0.363,0.559-0.363s0.476,0.196,0.476,0.363v1.732H606.703z M616.054,250.28v-1.732c0-0.363-0.698-0.866-1.062-0.866
		h-0.336c-0.251,0-0.53,0.224-0.782,0.335v-0.251h-1.117v2.515h1.117v-1.732c0-0.167,0.392-0.363,0.559-0.363
		c0.168,0,0.476,0.196,0.476,0.363v1.732H616.054z M608.519,250.194v-2.515h0.587v-0.335h-0.587v-0.531h-1.145v0.531h-0.587v0.335
		h0.587v2.515H608.519z M610.67,247.596c-0.894,0-1.648,0.614-1.648,1.369c0,0.783,0.755,1.397,1.648,1.397
		c0.782,0,1.426-0.447,1.593-1.034h-1.146v0.335c0,0.279-0.195,0.363-0.446,0.363c-0.252,0-0.42-0.084-0.42-0.363v-0.698h2.068
		C612.32,248.211,611.593,247.596,610.67,247.596z M610.67,247.847c0.252,0,0.447,0.167,0.447,0.447v0.251h-0.866v-0.251
		C610.251,248.015,610.419,247.847,610.67,247.847z M621.679,247.596c-0.922,0-1.648,0.614-1.648,1.369
		c0,0.783,0.727,1.397,1.648,1.397c0.894,0,1.648-0.614,1.648-1.397C623.328,248.211,622.573,247.596,621.679,247.596z
		 M621.679,247.847c0.251,0,0.419,0.167,0.419,0.447v1.369c0,0.279-0.168,0.363-0.419,0.363c-0.279,0-0.447-0.084-0.447-0.363
		v-1.369C621.232,248.015,621.4,247.847,621.679,247.847z M618.466,246.478v1.369c0,0-0.336-0.251-0.783-0.251
		c-0.698,0-1.285,0.614-1.285,1.285c0,0.698,0.587,1.397,1.285,1.397c0.447,0,0.783-0.167,0.783-0.167v0.083h1.117v-3.716H618.466z
		 M618.047,248.015c0.251,0,0.419,0.196,0.419,0.447v1.034c0,0.251-0.168,0.335-0.419,0.335c-0.279,0-0.447-0.083-0.447-0.335
		v-1.034C617.6,248.211,617.768,248.015,618.047,248.015z M623.467,247.64c-0.317,0-0.575-0.258-0.575-0.576
		c0-0.338,0.253-0.603,0.575-0.603c0.312,0,0.575,0.276,0.575,0.603C624.042,247.371,623.774,247.64,623.467,247.64z
		 M623.467,246.551c-0.277,0-0.486,0.221-0.486,0.514c0,0.268,0.219,0.486,0.486,0.486c0.255,0,0.486-0.232,0.486-0.486
		C623.953,246.791,623.727,246.551,623.467,246.551z M623.568,247.31l-0.099-0.173h-0.125v0.151h-0.089v-0.52h0.24
		c0.112,0,0.17,0.093,0.17,0.184l-0.101,0.171l0.081,0.143L623.568,247.31L623.568,247.31z M623.344,247.048h0.151l0.06-0.027
		l0.021-0.068l-0.081-0.095h-0.151V247.048z M596.589,255.642v-1.621c0-0.307-0.308-0.615-0.615-0.615h-2.347v2.235h0.727v-1.509
		c0-0.112,0.084-0.224,0.195-0.224h1.118c0.111,0,0.224,0.112,0.224,0.224v1.509H596.589z M615.977,255.642v-1.621
		c0-0.307-0.308-0.615-0.614-0.615h-2.347v2.235h0.726v-1.509c0-0.112,0.084-0.224,0.196-0.224h1.117
		c0.112,0,0.224,0.112,0.224,0.224v1.509H615.977z M626.589,255.642v-1.621c0-0.307-0.307-0.615-0.614-0.615h-2.347v2.235h0.726
		v-1.509c0-0.112,0.084-0.224,0.196-0.224h1.117c0.111,0,0.224,0.112,0.224,0.224v1.509H626.589z M620.254,255.642v-1.621
		c0-0.307-0.308-0.615-0.615-0.615h-3.157v2.235h0.727v-1.509c0-0.112,0.084-0.224,0.195-0.224h0.419
		c0.084,0,0.196,0.112,0.196,0.224v1.509h0.727v-1.509c0-0.112,0.083-0.224,0.195-0.224h0.419c0.084,0,0.195,0.112,0.195,0.224
		v1.509H620.254z M593.124,255.642h-1.844c-0.308,0-0.615-0.196-0.615-0.503v-1.76h2.459v0.531h-1.648
		c-0.084,0-0.195,0.084-0.195,0.196s0.111,0.195,0.195,0.195h1.537v0.447h-1.537l-0.195,0.195c0,0.112,0.111,0.224,0.195,0.224
		h1.648V255.642z M602.206,255.671h-1.844c-0.308,0-0.615-0.196-0.615-0.503v-1.76h2.459v0.531h-1.648
		c-0.084,0-0.195,0.084-0.195,0.196c0,0.112,0.111,0.196,0.195,0.196h1.536v0.447h-1.536l-0.195,0.196
		c0,0.112,0.111,0.223,0.195,0.223h1.648V255.671z M623.227,255.642h-1.844c-0.308,0-0.615-0.196-0.615-0.503v-1.76h2.459v0.531
		h-1.648c-0.084,0-0.196,0.084-0.196,0.196s0.112,0.195,0.196,0.195h1.536v0.447h-1.536l-0.196,0.195
		c0,0.112,0.112,0.224,0.196,0.224h1.648V255.642z M596.897,253.407v0.503h0.726c0.196,0,0.196,0,0.196,0.224v1.509h0.698v-1.509
		c0-0.224,0-0.224,0.224-0.224h0.698v-0.503H596.897z M605.774,253.407v0.503h0.727c0.195,0,0.195,0,0.195,0.224v1.509h0.699v-1.509
		c0-0.224,0-0.224,0.224-0.224h0.698v-0.503H605.774z M626.998,253.407v0.503h0.727c0.196,0,0.196,0,0.196,0.224v1.509h0.698v-1.509
		c0-0.224,0-0.224,0.224-0.224h0.698v-0.503H626.998z M602.707,253.407v2.235h0.727v-0.391c0-0.112,0.084-0.224,0.196-0.224h0.922
		c0.111,0,0.195,0.112,0.195,0.224v0.391h0.614v-0.615c0-0.083-0.083-0.195-0.083-0.307c0-0.083,0.195-0.279,0.195-0.502v-0.196
		c0-0.196-0.308-0.615-0.503-0.615L602.707,253.407z M603.63,253.91h0.922c0.111,0,0.195,0.112,0.195,0.224v0.196
		c0,0.112-0.084,0.195-0.195,0.195h-0.922c-0.112,0-0.196-0.083-0.196-0.195v-0.196C603.434,254.022,603.518,253.91,603.63,253.91z
		 M609.134,253.407c-0.196,0-0.503,0.419-0.503,0.615v1.62h0.727v-0.615h1.313v0.615h0.727v-1.62c0-0.196-0.308-0.615-0.531-0.615
		H609.134z M609.553,253.91h0.922c0.084,0,0.195,0.112,0.195,0.224v0.391h-1.313v-0.391
		C609.358,254.022,609.442,253.91,609.553,253.91z M612.598,255.642v-2.235H611.9v2.235H612.598z M619.336,258.704v-1.621
		c0-0.307-0.308-0.615-0.615-0.615h-3.157v2.235h0.727v-1.509c0-0.112,0.084-0.224,0.195-0.224h0.419
		c0.084,0,0.196,0.112,0.196,0.224v1.509h0.726v-1.509c0-0.112,0.084-0.224,0.195-0.224h0.42c0.083,0,0.195,0.112,0.195,0.224v1.509
		H619.336L619.336,258.704z M615.064,258.704h-1.844c-0.308,0-0.615-0.196-0.615-0.502v-1.76h2.459v0.531h-1.648
		c-0.084,0-0.195,0.084-0.195,0.195c0,0.112,0.111,0.196,0.195,0.196h1.536v0.447h-1.536l-0.195,0.196
		c0,0.112,0.111,0.223,0.195,0.223h1.648V258.704z M609.753,256.468v0.503h0.727c0.195,0,0.195,0,0.195,0.224v1.508h0.699v-1.508
		c0-0.224,0-0.224,0.224-0.224h0.698v-0.503H609.753z M601.479,256.48c-0.196,0-0.615,0.308-0.615,0.503v0.307
		c0,0.196,0.419,0.503,0.615,0.503h1.229c0.111,0,0.223,0.112,0.223,0.196c0,0.112-0.111,0.223-0.223,0.223h-1.845v0.503h2.067
		c0.196,0,0.587-0.307,0.587-0.503v-0.307c0-0.224-0.391-0.531-0.587-0.531h-1.229c-0.112,0-0.224-0.084-0.224-0.196
		s0.111-0.196,0.224-0.196h1.815v-0.502H601.479z M607.397,256.48c-0.195,0-0.614,0.308-0.614,0.503v0.307
		c0,0.196,0.419,0.503,0.614,0.503h1.229c0.112,0,0.224,0.112,0.224,0.196c0,0.112-0.112,0.223-0.224,0.223h-1.844v0.503h2.067
		c0.195,0,0.587-0.307,0.587-0.503v-0.307c0-0.224-0.392-0.531-0.587-0.531h-1.229c-0.111,0-0.224-0.084-0.224-0.196
		s0.112-0.196,0.224-0.196h1.816v-0.502H607.397z M603.742,256.48v1.006c0,0.195,0.308,0.503,0.503,0.503h0.503v0.726h0.727v-0.726
		h0.503c0.195,0,0.503-0.308,0.503-0.503v-1.006h-0.699v0.811c0,0.084-0.111,0.196-0.224,0.196h-0.894
		c-0.112,0-0.224-0.112-0.224-0.196v-0.811H603.742z"/>
</g>
</svg>
