<?xml version="1.0" encoding="utf-8"?>
<!-- Generator: Adobe Illustrator 22.0.0, SVG Export Plug-In . SVG Version: 6.00 Build 0)  -->
<svg version="1.1" id="Capa_1" xmlns="http://www.w3.org/2000/svg" xmlns:xlink="http://www.w3.org/1999/xlink" x="0px" y="0px"
	 viewBox="0 0 432.949 350.562" style="enable-background:new 0 0 432.949 350.562;" xml:space="preserve">
<g>
	<rect x="60.843" y="338.353" style="fill:#A5A5A7;" width="28.618" height="12.209"/>
	<rect x="95.757" y="338.353" style="fill:#A5A5A7;" width="28.618" height="12.209"/>
	<rect style="fill:#E0E0E1;" width="432.949" height="343.417"/>
	<polygon style="fill:#A3A3A4;" points="45.337,343.417 45.337,302.288 326.609,302.288 326.609,343.417 327.753,343.417 
		327.753,301.145 44.194,301.145 44.194,343.417 45.337,343.417 	"/>
	<rect x="327.779" style="fill:#A3A3A4;" width="67.301" height="343.417"/>
	<rect x="327.779" style="fill:#09070A;" width="67.301" height="41.699"/>
	<rect x="327.779" y="301.716" style="fill:#09070A;" width="67.301" height="41.7"/>
	<path style="fill:#202020;" d="M330.069,343.273c-1.184,0-2.146-0.963-2.146-2.146v-16.271c0-1.184,0.963-2.146,2.146-2.146h62.722
		c1.184,0,2.146,0.963,2.146,2.146v16.271c0,1.184-0.962,2.146-2.146,2.146H330.069z"/>
	<path style="fill:#070308;" d="M392.791,322.853c1.104,0,2.003,0.898,2.003,2.003v16.271c0,1.104-0.898,2.004-2.003,2.004h-62.722
		c-1.105,0-2.004-0.899-2.004-2.004v-16.271c0-1.104,0.898-2.003,2.004-2.003H392.791 M392.791,322.566h-62.722
		c-1.266,0-2.29,1.025-2.29,2.29v16.271c0,1.265,1.024,2.29,2.29,2.29h62.722c1.265,0,2.289-1.025,2.289-2.29v-16.271
		C395.08,323.591,394.055,322.566,392.791,322.566z"/>
	<path style="fill:#202020;" d="M330.069,322.422c-1.184,0-2.146-0.962-2.146-2.146v-16.271c0-1.184,0.963-2.146,2.146-2.146h62.722
		c1.184,0,2.146,0.962,2.146,2.146v16.271c0,1.184-0.962,2.146-2.146,2.146H330.069z"/>
	<path style="fill:#070308;" d="M392.791,302.002c1.104,0,2.003,0.898,2.003,2.003v16.271c0,1.104-0.898,2.003-2.003,2.003h-62.722
		c-1.105,0-2.004-0.898-2.004-2.003v-16.271c0-1.104,0.898-2.003,2.004-2.003H392.791 M392.791,301.716h-62.722
		c-1.266,0-2.29,1.024-2.29,2.289v16.271c0,1.264,1.024,2.289,2.29,2.289h62.722c1.265,0,2.289-1.025,2.289-2.289v-16.271
		C395.08,302.741,394.055,301.716,392.791,301.716z"/>
	<path style="fill:#202020;" d="M330.069,41.556c-1.184,0-2.146-0.963-2.146-2.146V23.139c0-1.183,0.963-2.146,2.146-2.146h62.722
		c1.184,0,2.146,0.963,2.146,2.146V39.41c0,1.183-0.962,2.146-2.146,2.146H330.069z"/>
	<path style="fill:#070308;" d="M392.791,21.136c1.104,0,2.003,0.899,2.003,2.003V39.41c0,1.104-0.898,2.003-2.003,2.003h-62.722
		c-1.105,0-2.004-0.898-2.004-2.003V23.139c0-1.104,0.898-2.003,2.004-2.003H392.791 M392.791,20.85h-62.722
		c-1.266,0-2.29,1.025-2.29,2.289V39.41c0,1.264,1.024,2.289,2.29,2.289h62.722c1.265,0,2.289-1.025,2.289-2.289V23.139
		C395.08,21.875,394.055,20.85,392.791,20.85z"/>
	<path style="fill:#202020;" d="M330.069,20.707c-1.184,0-2.146-0.963-2.146-2.147V2.289c0-1.183,0.963-2.146,2.146-2.146h62.722
		c1.184,0,2.146,0.963,2.146,2.146V18.56c0,1.184-0.962,2.147-2.146,2.147H330.069z"/>
	<path style="fill:#070308;" d="M392.791,0.286c1.104,0,2.003,0.898,2.003,2.003V18.56c0,1.105-0.898,2.004-2.003,2.004h-62.722
		c-1.105,0-2.004-0.899-2.004-2.004V2.289c0-1.104,0.898-2.003,2.004-2.003H392.791 M392.791,0h-62.722
		c-1.266,0-2.29,1.024-2.29,2.289V18.56c0,1.265,1.024,2.291,2.29,2.291h62.722c1.265,0,2.289-1.025,2.289-2.291V2.289
		C395.08,1.024,394.055,0,392.791,0z"/>
	<rect x="327.779" y="296.794" style="fill:#E0E0E1;" width="67.301" height="4.922"/>
	<rect x="327.779" y="287.685" style="fill:#E0E0E1;" width="67.301" height="4.92"/>
	<rect x="327.779" y="278.573" style="fill:#E0E0E1;" width="67.301" height="4.921"/>
	<rect x="327.779" y="269.463" style="fill:#E0E0E1;" width="67.301" height="4.921"/>
	<rect x="327.779" y="260.354" style="fill:#E0E0E1;" width="67.301" height="4.921"/>
	<rect x="327.779" y="251.243" style="fill:#E0E0E1;" width="67.301" height="4.92"/>
	<rect x="327.779" y="242.131" style="fill:#E0E0E1;" width="67.301" height="4.921"/>
	<rect x="327.779" y="233.021" style="fill:#E0E0E1;" width="67.301" height="4.921"/>
	<rect x="327.779" y="223.911" style="fill:#E0E0E1;" width="67.301" height="4.92"/>
	<rect x="327.779" y="214.8" style="fill:#E0E0E1;" width="67.301" height="4.921"/>
	<rect x="327.779" y="205.69" style="fill:#E0E0E1;" width="67.301" height="4.92"/>
	<rect x="327.779" y="196.579" style="fill:#E0E0E1;" width="67.301" height="4.921"/>
	<rect x="327.779" y="187.467" style="fill:#E0E0E1;" width="67.301" height="4.924"/>
	<rect x="327.779" y="178.359" style="fill:#E0E0E1;" width="67.301" height="4.921"/>
	<rect x="327.779" y="169.247" style="fill:#E0E0E1;" width="67.301" height="4.921"/>
	<rect x="327.779" y="160.137" style="fill:#E0E0E1;" width="67.301" height="4.92"/>
	<rect x="327.779" y="151.026" style="fill:#E0E0E1;" width="67.301" height="4.922"/>
	<rect x="327.779" y="141.916" style="fill:#E0E0E1;" width="67.301" height="4.921"/>
	<rect x="327.779" y="132.806" style="fill:#E0E0E1;" width="67.301" height="4.921"/>
	<rect x="327.779" y="123.694" style="fill:#E0E0E1;" width="67.301" height="4.921"/>
	<rect x="327.779" y="114.583" style="fill:#E0E0E1;" width="67.301" height="4.92"/>
	<rect x="327.779" y="105.473" style="fill:#E0E0E1;" width="67.301" height="4.921"/>
	<rect x="327.779" y="96.363" style="fill:#E0E0E1;" width="67.301" height="4.921"/>
	<rect x="327.779" y="87.252" style="fill:#E0E0E1;" width="67.301" height="4.92"/>
	<rect x="327.779" y="78.142" style="fill:#E0E0E1;" width="67.301" height="4.921"/>
	<rect x="327.779" y="69.031" style="fill:#E0E0E1;" width="67.301" height="4.922"/>
	<rect x="327.779" y="59.921" style="fill:#E0E0E1;" width="67.301" height="4.921"/>
	<rect x="327.779" y="50.81" style="fill:#E0E0E1;" width="67.301" height="4.92"/>
	<rect x="327.779" y="41.699" style="fill:#E0E0E1;" width="67.301" height="4.921"/>
</g>
</svg>
