<?xml version="1.0" encoding="utf-8"?>
<!-- Generator: Adobe Illustrator 22.0.0, SVG Export Plug-In . SVG Version: 6.00 Build 0)  -->
<svg version="1.1" id="Capa_1" xmlns="http://www.w3.org/2000/svg" xmlns:xlink="http://www.w3.org/1999/xlink" x="0px" y="0px"
	 viewBox="0 0 126.982 308.48" style="enable-background:new 0 0 126.982 308.48;" xml:space="preserve">
<g>
	<rect x="7.403" y="8.04" style="fill:#1A1919;" width="98.433" height="293.273"/>
	<path style="fill:#818080;" d="M109.336,103.815v77.262c0,2.702-2.191,4.894-4.894,4.894h-5.339c-2.703,0-4.894-2.191-4.894-4.894
		v-77.262c0-2.702,2.191-4.894,4.894-4.894h5.339C107.146,98.922,109.336,101.113,109.336,103.815z"/>
	<path style="fill:#818080;" d="M17.085,103.815v77.262c0,2.702-2.19,4.894-4.894,4.894h-5.34c-2.703,0-4.894-2.191-4.894-4.894
		v-77.262c0-2.702,2.19-4.894,4.894-4.894h5.34C14.895,98.922,17.085,101.113,17.085,103.815z"/>
	<path style="fill:#DDDCDC;" d="M126.982,4.108c0-2.271-1.836-4.108-4.109-4.108H4.108C1.837,0,0,1.837,0,4.108v300.363
		c0,2.271,1.837,4.009,4.108,4.009h118.765c2.272,0,4.109-1.737,4.109-4.009V4.108z M105.836,8.018v293.351H7.42V8.018H105.836z"/>
	<path style="fill:#070308;" d="M80.625,44.128c0-1.354-1.117-2.376-2.471-2.376h-17.01v-17.01c0-1.354-1.118-2.472-2.471-2.472
		H44.989c-1.354,0-2.471,1.117-2.471,2.472v17.01h-17.01c-1.354,0-2.376,1.021-2.376,2.376v13.778c0,1.354,1.021,2.376,2.376,2.376
		h17.01v17.011c0,1.354,1.117,2.471,2.471,2.471h13.684c1.354,0,2.471-1.117,2.471-2.471V60.282h17.01
		c1.354,0,2.471-1.021,2.471-2.376V44.128z"/>
	<path style="fill:#FFFFFF;" d="M80.625,44.128h0.417c0.001-0.793-0.331-1.501-0.858-1.998c-0.526-0.499-1.247-0.795-2.029-0.794
		H61.561V24.742c-0.003-1.588-1.301-2.886-2.888-2.888H44.989c-1.587,0.002-2.885,1.3-2.887,2.888v16.593l-16.594,0.001
		c-0.782-0.001-1.488,0.298-1.99,0.802c-0.504,0.502-0.803,1.208-0.802,1.99v13.778c-0.001,0.782,0.298,1.488,0.802,1.99
		c0.502,0.504,1.208,0.803,1.99,0.802h16.594v16.595c0.003,1.587,1.3,2.884,2.887,2.887h13.684c1.587-0.003,2.885-1.3,2.888-2.887
		V60.698h16.593c0.782,0,1.503-0.295,2.029-0.794c0.527-0.497,0.859-1.205,0.858-1.998V44.128H80.625h-0.417v13.778
		c0,1.112-0.909,1.954-2.054,1.96H60.728v17.427c0,0.561-0.231,1.073-0.606,1.448c-0.375,0.375-0.888,0.606-1.449,0.606H44.989
		c-0.561,0-1.073-0.231-1.448-0.606s-0.606-0.888-0.606-1.448V59.866H25.509c-1.138-0.011-1.949-0.822-1.96-1.96V44.128
		c0.011-1.138,0.822-1.949,1.96-1.96h17.426V24.742c0-0.562,0.231-1.074,0.606-1.449s0.888-0.606,1.448-0.606h13.684
		c0.561,0,1.073,0.231,1.449,0.606c0.375,0.375,0.606,0.888,0.606,1.449v17.426h17.426c1.146,0.006,2.054,0.848,2.054,1.96H80.625z"
		/>
	<path style="fill:#1A1919;" d="M78.483,44.603c0-0.429-0.331-0.76-0.759-0.76H59.159V25.278c0-0.429-0.331-0.76-0.759-0.76H45.32
		c-0.428,0-0.793,0.331-0.793,0.76v18.564H25.996c-0.428,0-0.794,0.331-0.794,0.76v13.113c0,0.428,0.366,0.759,0.794,0.759h18.531
		V77.04c0,0.428,0.365,0.759,0.793,0.759h13.079c0.429,0,0.759-0.331,0.759-0.759V58.475h18.565c0.428,0,0.759-0.331,0.759-0.759
		V44.603z"/>
	<path style="fill:#818080;" d="M89.868,103.815v77.262c0,2.702-2.191,4.894-4.894,4.894h-5.34c-2.703,0-4.894-2.191-4.894-4.894
		v-77.262c0-2.702,2.191-4.894,4.894-4.894h5.34C87.677,98.922,89.868,101.113,89.868,103.815z"/>
	<path style="fill:#DDDDDD;" d="M54.56,201.736v30.124c0,1.328-1.077,2.404-2.405,2.404H22.03c-1.328,0-2.405-1.076-2.405-2.404
		v-30.124c0-1.329,1.077-2.406,2.405-2.406h30.124C53.483,199.33,54.56,200.407,54.56,201.736z"/>
	<path style="fill:#B52220;" d="M36.945,231.113c-7.907,0-14.317-6.41-14.317-14.317s6.41-14.317,14.317-14.317
		s14.317,6.41,14.317,14.317S44.853,231.113,36.945,231.113z"/>
	<path style="fill:#DDDDDD;" d="M54.56,241.407v30.124c0,1.328-1.077,2.405-2.405,2.405H22.03c-1.328,0-2.405-1.077-2.405-2.405
		v-30.124c0-1.328,1.077-2.405,2.405-2.405h30.124C53.483,239.002,54.56,240.079,54.56,241.407z"/>
	<path style="fill:#B52220;" d="M36.945,270.799c-7.907,0-14.317-6.41-14.317-14.317c0-7.908,6.41-14.317,14.317-14.317
		s14.317,6.409,14.317,14.317C51.262,264.389,44.853,270.799,36.945,270.799z"/>
	<path style="fill:#818080;" d="M70.389,103.815v77.262c0,2.702-2.191,4.894-4.894,4.894h-5.34c-2.703,0-4.894-2.191-4.894-4.894
		v-77.262c0-2.702,2.191-4.894,4.894-4.894h5.34C68.198,98.922,70.389,101.113,70.389,103.815z"/>
	<path style="fill:#DDDDDD;" d="M51.163,104.376v76.156c0,3.012-2.441,5.454-5.454,5.454H27.895c-3.013,0-5.455-2.442-5.455-5.454
		v-76.156c0-3.013,2.442-5.454,5.455-5.454h17.814C48.722,98.922,51.163,101.363,51.163,104.376z"/>
	<path style="fill:#818080;" d="M48.425,106.956h-0.367v71.01c-0.001,1.133-0.459,2.155-1.201,2.898
		c-0.744,0.743-1.767,1.201-2.9,1.201H29.363c-1.134,0-2.156-0.458-2.898-1.2c-0.743-0.743-1.2-1.767-1.201-2.899v-71.01
		c0.001-1.133,0.458-2.156,1.201-2.899c0.742-0.742,1.765-1.2,2.898-1.201h14.593c1.134,0.001,2.156,0.459,2.9,1.201
		c0.742,0.743,1.2,1.767,1.201,2.899H48.425h0.367c0-2.67-2.165-4.835-4.836-4.835H29.363c-2.671,0-4.834,2.165-4.834,4.835v71.01
		c0,2.67,2.163,4.835,4.834,4.835h14.593c2.671,0,4.836-2.165,4.836-4.835v-71.01H48.425z"/>
	<path style="fill:#070308;" d="M41.104,113.756v14.817c0,2.661-2.157,4.818-4.819,4.818c-2.661,0-4.818-2.157-4.818-4.818v-14.817
		c0-2.661,2.157-4.818,4.818-4.818C38.946,108.938,41.104,111.095,41.104,113.756z"/>
	<path style="fill:#070308;" d="M41.104,156.095v14.816c0,2.661-2.157,4.818-4.819,4.818c-2.661,0-4.818-2.157-4.818-4.818v-14.816
		c0-2.662,2.157-4.819,4.818-4.819C38.946,151.275,41.104,153.433,41.104,156.095z"/>
	<path style="fill:#C23637;" d="M88.244,216.53h-7.926v-2.524l5.37-3.227c0.353-0.179,0.007-0.179,0.007-0.179h-5.376v-2.583h7.926
		v2.583c0,0-5.076,3.078-5.315,3.246c-0.239,0.159,0,0.159,0,0.159h5.315V216.53"/>
	<rect x="86.801" y="217.816" style="fill:#C23637;" width="1.444" height="2.365"/>
	<polyline style="fill:#C23637;" points="87.077,232.752 86.217,232.752 86.217,233.811 85.695,233.851 85.695,232.752 
		80.318,232.752 80.318,230.287 85.695,230.287 85.695,229.179 86.217,229.209 86.217,230.287 87.077,230.287 87.077,232.752 	"/>
	<path style="fill:#C23637;" d="M85.43,228.069c-0.473,0.594-1.386,0.802-1.386,0.802h-3.726v-2.484h3.663
		c0,0,0.865-0.188,0.859-1.157c-0.006-0.96-0.796-1.148-0.796-1.148h-3.726v-2.425h5.376v2.425
		c-0.461,0.247,0.092,0.832,0.178,1.336C86.168,226.338,85.873,227.337,85.43,228.069"/>
	<rect x="80.319" y="217.816" style="fill:#C23637;" width="5.376" height="2.365"/>
	<path style="fill:#C23637;" d="M81.209,238.463c0,0-0.738-0.218-0.738-1s0.83-0.96,0.83-0.96l1.629,0.03v4.503
		c1.505-0.01,2.088-0.644,2.458-1.158c0.829-1.514,0.816-3.662-0.362-5.137c-0.442-0.515-1.254-0.881-2.028-0.842
		c-0.701,0-1.4,0.287-1.88,0.772c-0.811,0.96-1.179,2.396-0.885,3.801c0.295,0.921,0.737,2.099,1.77,2.355v-2.355L81.209,238.463z
		 M84.615,236.582c0,0,0.711,0.158,0.711,0.96c0,0.792-0.781,0.891-0.781,0.891l-0.725,0.02v-1.87H84.615"/>
	<path style="fill:#C23637;" d="M88.245,254.497h-2.758c0.443-0.812,0.718-2.168,0.165-3.019c-0.516-1.069-1.733-1.436-2.802-1.475
		c-0.811,0.039-1.732,0.515-2.212,1.217c-0.539,0.881-0.616,2.059-0.204,3.049l0.13,0.267c-0.062,0.079-0.11,0.179-0.148,0.287
		c-0.244,0.703-0.098,1.95-0.098,1.95h7.927V254.497z M81.278,254.497c0,0-0.524-0.248-0.53-0.95
		c0.006-0.555,0.399-0.931,0.399-0.931h3.534c0,0,0.498,0.158,0.491,0.871c-0.005,0.713-0.491,1.01-0.491,1.01H81.278"/>
	<path style="fill:#C23637;" d="M85.41,248.459c-0.473,0.584-1.387,0.802-1.387,0.802h-3.726v-2.494h3.663
		c0,0,0.865-0.188,0.859-1.148c-0.007-0.97-0.796-1.148-0.796-1.148h-3.726v-2.435h5.376v2.435
		c-0.461,0.237,0.092,0.822,0.177,1.326C86.147,246.717,85.851,247.717,85.41,248.459"/>
	<path style="fill:#C23637;" d="M86.032,261.415c0-1.999-1.313-3.612-2.934-3.612c-1.619,0-2.933,1.613-2.933,3.612
		c0.001,1.989,1.313,3.604,2.933,3.604C84.719,265.019,86.032,263.405,86.032,261.415z M81.353,262.385c0,0-0.523-0.247-0.529-0.959
		c0.006-0.545,0.399-0.921,0.399-0.921h3.533c0,0,0.498,0.148,0.491,0.861c-0.006,0.712-0.491,1.019-0.491,1.019H81.353"/>
	<path style="fill:#C23637;" d="M85.564,266.07c0,0.523,0.208,1.019,0.579,1.394c0.373,0.373,0.867,0.584,1.394,0.584
		c0.525,0,1.02-0.211,1.393-0.584c0.372-0.375,0.579-0.87,0.579-1.394c0-1.094-0.884-1.979-1.972-1.979
		c-0.526,0-1.021,0.211-1.394,0.585C85.771,265.051,85.564,265.545,85.564,266.07z M87.536,264.481c0.422,0,0.819,0.166,1.118,0.465
		c0.298,0.3,0.462,0.704,0.462,1.124c0,0.419-0.165,0.824-0.462,1.124c-0.298,0.284-0.695,0.449-1.118,0.449
		c-0.872,0-1.581-0.705-1.581-1.573c0-0.42,0.165-0.824,0.463-1.124C86.716,264.647,87.114,264.481,87.536,264.481"/>
	<path style="fill:#C23637;" d="M88.34,265.649v0.675l-0.039,0.224c-0.053,0.091-0.15,0.15-0.292,0.15
		c-0.132,0-0.225-0.044-0.276-0.119c-0.049-0.075-0.077-0.165-0.077-0.301v-0.629H88.34z M86.573,265.649h0.858v0.629
		c0,0.105-0.011,0.196-0.036,0.24c-0.045,0.091-0.133,0.136-0.264,0.149l-0.333,0.016l-0.159,0.015l-0.067,0.016v0.329h0.046
		l0.121-0.075l0.171-0.029l0.269-0.016c0.115,0,0.2-0.015,0.251-0.06l0.126-0.18l0.183,0.21c0.078,0.06,0.177,0.074,0.295,0.074
		c0.231,0,0.388-0.09,0.474-0.284c0.045-0.09,0.066-0.225,0.066-0.374v-0.929h-2.001V265.649"/>
	<path style="fill:#C23435;" d="M59.947,103.76v3.944c0,1.127,0.517,1.69,1.55,1.69c1.033,0,1.549-0.563,1.549-1.69v-2.817h0.845
		v4.508h1.127v-3.944c0-1.128-0.524-1.69-1.572-1.69c-1.018,0-1.527,0.563-1.527,1.69v2.816h-0.845v-4.507H59.947z"/>
	<path style="fill:#C23435;" d="M59.947,115.593v-3.944c0-1.127,0.563-1.69,1.691-1.69h3.38v5.635h-1.127v-4.508h-0.845v4.508
		h-1.127v-4.508h-0.282c-0.375,0-0.563,0.188-0.563,0.563v3.944H59.947z"/>
	<path style="fill:#C23435;" d="M65.025,116.149h-3.381c-1.127,0-1.69,0.563-1.69,1.689v3.944h1.127v-3.944
		c0-0.375,0.188-0.563,0.563-0.563h3.381V116.149z"/>
	<path style="fill:#C23435;" d="M59.947,127.982v-3.944c0-1.127,0.563-1.69,1.691-1.69h3.38v5.635h-1.127v-4.508h-0.845v4.508
		h-1.127v-4.508h-0.282c-0.375,0-0.563,0.188-0.563,0.563v3.944H59.947z"/>
	<path style="fill:#C23435;" d="M59.947,134.183v-3.944c0-1.127,0.563-1.69,1.691-1.69h1.69c1.126,0,1.69,0.563,1.69,1.69v3.944
		h-1.127v-3.944c0-0.376-0.188-0.563-0.563-0.563h-1.69c-0.375,0-0.563,0.188-0.563,0.563v3.944H59.947z"/>
	<polygon style="fill:#C23435;" points="65.025,134.749 65.025,140.384 63.898,140.384 63.898,138.13 59.954,138.13 59.954,137.003 
		63.898,137.003 63.898,134.749 	"/>
	<path style="fill:#C23435;" d="M59.947,150.541v3.944c0,1.127,0.517,1.689,1.55,1.689c1.033,0,1.549-0.563,1.549-1.689v-2.817
		h0.845v4.507h1.127v-3.943c0-1.127-0.524-1.69-1.572-1.69c-1.018,0-1.527,0.563-1.527,1.69v2.817h-0.845v-4.508H59.947z"/>
	<polygon style="fill:#C23435;" points="65.025,156.73 65.025,162.365 63.898,162.365 63.898,160.111 59.954,160.111 
		59.954,158.984 63.898,158.984 63.898,156.73 	"/>
	<path style="fill:#C23435;" d="M62.486,167.441h0.845c0.376,0,0.563-0.188,0.563-0.563v-2.254c0-0.376-0.188-0.563-0.563-0.563
		h-0.845V167.441z M61.359,164.061H59.95v-1.127h3.381c1.127,0,1.69,0.564,1.69,1.69v2.254c0,1.127-0.563,1.69-1.69,1.69H59.95
		v-1.127h1.409V164.061z"/>
	<path style="fill:#C23435;" d="M63.052,170.253v3.381h0.845v-3.381H63.052z M61.926,170.253h-1.972v-1.127h5.071v3.944
		c0,1.127-0.515,1.69-1.544,1.69c-0.488,0-0.847-0.081-1.076-0.242c-0.267,0.161-0.615,0.242-1.043,0.242h-1.408v-1.127h1.408
		c0.375,0,0.564-0.188,0.564-0.563V170.253z"/>
	<polygon style="fill:#C23435;" points="65.025,175.33 65.025,180.965 63.898,180.965 63.898,178.711 59.954,178.711 
		59.954,177.584 63.898,177.584 63.898,175.33 	"/>
	<path style="fill:#C23435;" d="M14.523,230.385v4.044h1.011v-4.044H14.523z M12.164,230.385v4.044h1.012v-4.044H12.164z
		 M10.816,229.037h6.066v4.718c0,1.348-0.611,2.021-1.834,2.021c-0.499,0-0.898-0.107-1.199-0.323
		c-0.297,0.216-0.694,0.323-1.193,0.323c-1.227,0-1.84-0.674-1.84-2.021V229.037z"/>
	<path style="fill:#C23435;" d="M13.596,274.114h1.011c0.45,0,0.674-0.225,0.674-0.674v-2.696c0-0.449-0.224-0.674-0.674-0.674
		h-1.011V274.114z M12.248,270.07h-1.686v-1.348h4.044c1.348,0,2.021,0.674,2.021,2.021v2.696c0,1.348-0.674,2.021-2.021,2.021
		h-4.044v-1.348h1.686V270.07z"/>
	<polygon style="fill:#070308;" points="57.27,31.849 57.359,31.76 54.598,28.999 51.749,26.148 48.898,28.999 45.923,31.975 
		47.758,31.975 47.758,37.495 55.74,37.495 55.74,31.975 57.574,31.975 57.359,31.76 57.27,31.849 57.27,31.723 55.488,31.723 
		55.488,37.243 48.01,37.243 48.01,31.723 46.531,31.723 49.076,29.177 51.749,26.505 54.42,29.177 57.181,31.938 57.27,31.849 
		57.27,31.723 	"/>
	<polygon style="fill:#070308;" points="57.27,70.409 57.181,70.32 54.42,73.081 51.749,75.753 49.076,73.081 46.531,70.535 
		48.01,70.535 48.01,65.014 55.488,65.014 55.488,70.535 57.27,70.535 57.27,70.409 57.181,70.32 57.27,70.409 57.27,70.283 
		55.74,70.283 55.74,64.762 47.758,64.762 47.758,70.283 45.924,70.283 48.898,73.259 51.749,76.108 54.598,73.259 57.574,70.283 
		57.27,70.283 	"/>
	<polygon style="fill:#070308;" points="71.217,56.595 71.306,56.684 74.066,53.923 76.917,51.073 74.066,48.224 71.091,45.247 
		71.091,47.082 65.569,47.082 65.569,55.064 71.091,55.064 71.091,56.899 71.306,56.684 71.217,56.595 71.343,56.595 71.343,54.813 
		65.821,54.813 65.821,47.334 71.343,47.334 71.343,45.855 73.889,48.401 76.56,51.073 73.889,53.745 71.128,56.506 71.217,56.595 
		71.343,56.595 	"/>
	<polygon style="fill:#070308;" points="32.07,56.595 32.159,56.506 29.398,53.745 26.727,51.073 29.398,48.401 31.944,45.855 
		31.944,47.334 37.466,47.334 37.466,54.813 31.944,54.813 31.944,56.595 32.07,56.595 32.159,56.506 32.07,56.595 32.196,56.595 
		32.196,55.064 37.718,55.064 37.718,47.082 32.196,47.082 32.196,45.247 29.221,48.224 26.371,51.073 29.221,53.923 32.196,56.898 
		32.196,56.595 	"/>
	<path style="fill:#070308;" d="M51.84,57.789v-0.186h-0.005c-3.555,0-6.437-2.881-6.439-6.436v-0.004
		c0-3.555,2.882-6.438,6.436-6.44h0.009h0.006L51.846,44.7v0.023h0.001L51.846,44.7v0.023c3.554,0,6.437,2.881,6.439,6.436v0.002
		v0.002c0,3.555-2.88,6.438-6.436,6.44H51.84V57.789v0.186h0.009c3.76-0.002,6.807-3.052,6.807-6.812v-0.008l-0.186,0.004h0.186
		c-0.002-3.76-3.051-6.807-6.81-6.807h-0.012l0.006,0.186v-0.186h-0.009c-3.76,0.002-6.807,3.052-6.807,6.812v0.004
		c0.003,3.76,3.051,6.807,6.811,6.807h0.005V57.789z"/>
	<path style="fill:#1A1919;" d="M40.165,115.026v12.294c0,2.662-1.738,4.819-3.883,4.819c-2.144,0-3.882-2.157-3.882-4.819v-12.294
		c0-2.661,1.738-4.819,3.882-4.819C38.427,110.207,40.165,112.365,40.165,115.026z"/>
	<path style="fill:#1A1919;" d="M40.165,157.353v12.295c0,2.661-1.738,4.818-3.883,4.818c-2.144,0-3.882-2.157-3.882-4.818v-12.295
		c0-2.66,1.738-4.818,3.882-4.818C38.427,152.534,40.165,154.692,40.165,157.353z"/>
</g>
</svg>
