<svg viewBox="0 0 460.56 312.361" xmlns="http://www.w3.org/2000/svg" xmlns:xlink="http://www.w3.org/1999/xlink"><clipPath id="a"><path d="m266.551 3.72h37.543v37.544h-37.543z"/></clipPath><clipPath id="b"><path d="m266.551 3.72h37.543v37.544h-37.543z"/></clipPath><clipPath id="c"><path d="m357.359 4.206h36.76v36.76h-36.76z"/></clipPath><clipPath id="d"><path d="m357.359 4.206h36.76v36.76h-36.76z"/></clipPath><path d="m12.004 94.448h437.856v146.959h-437.856z" fill="#1a1919"/><path d="m154.996 89.221h115.352a7.307 7.307 0 0 1 7.306 7.307v7.972a7.306 7.306 0 0 1 -7.305 7.307h-115.353a7.307 7.307 0 0 1 -7.306-7.307v-7.972a7.307 7.307 0 0 1 7.306-7.307zm0 137.732h115.352a7.306 7.306 0 0 1 7.306 7.306v7.973a7.306 7.306 0 0 1 -7.304 7.306h-115.354a7.307 7.307 0 0 1 -7.306-7.306v-7.973a7.306 7.306 0 0 1 7.306-7.306z" fill="#818080"/><path d="m6.133 62.876a6.13 6.13 0 0 0 -6.133 6.127v177.323a6.13 6.13 0 0 0 6.126 6.134h448.449c3.392 0 5.985-2.742 5.985-6.134v-177.315c0-3.393-2.594-6.135-5.985-6.135zm5.837 31.572h437.971v146.935h-437.971z" fill="#dddcdc"/><path d="m65.882 132.088c-2.021 0-3.547 1.667-3.547 3.689v25.396h-25.395c-2.022 0-3.69 1.668-3.69 3.689v20.43c0 2.021 1.668 3.688 3.69 3.688h25.396v25.396c0 2.022 1.525 3.547 3.547 3.547h20.571c2.022 0 3.547-1.525 3.547-3.547v-25.396h25.397c2.021 0 3.688-1.668 3.688-3.688v-20.43c0-2.021-1.668-3.689-3.688-3.689h-25.397v-25.396c0-2.021-1.524-3.689-3.547-3.689z" fill="#070308"/><path d="m65.882 132.088v-.622a4.08 4.08 0 0 0 -2.983 1.28 4.395 4.395 0 0 0 -1.186 3.03v24.773h-24.773a4.333 4.333 0 0 0 -4.313 4.312v20.43a4.333 4.333 0 0 0 4.313 4.311h24.773v24.773c-.001 1.168.445 2.222 1.197 2.972.751.752 1.804 1.199 2.972 1.198h20.571c1.168.001 2.222-.446 2.972-1.198.752-.75 1.198-1.804 1.197-2.972v-24.773h24.775a4.329 4.329 0 0 0 4.311-4.311v-20.43a4.333 4.333 0 0 0 -4.311-4.312h-24.774v-24.773a4.39 4.39 0 0 0 -1.186-3.03 4.071 4.071 0 0 0 -2.983-1.28h-20.572v1.244h20.571c1.66.001 2.917 1.357 2.926 3.067v26.017h26.019c.837 0 1.602.345 2.162.905.56.561.905 1.326.905 2.163v20.43c0 .837-.346 1.602-.905 2.163-.56.56-1.325.904-2.162.904h-26.018v26.017c-.015 1.698-1.228 2.911-2.926 2.926h-20.572c-1.697-.015-2.91-1.228-2.926-2.926v-26.017h-26.016a3.06 3.06 0 0 1 -2.164-.904 3.055 3.055 0 0 1 -.904-2.163v-20.43c0-.837.345-1.603.904-2.163a3.058 3.058 0 0 1 2.164-.905h26.017v-26.017c.009-1.71 1.266-3.066 2.926-3.067z" fill="#fff"/><path d="m66.591 135.286c-.64 0-1.135.494-1.135 1.133v27.718h-27.715c-.641 0-1.135.493-1.135 1.133v19.527c0 .638.494 1.184 1.135 1.184h27.716v27.667c0 .639.495 1.186 1.135 1.186h19.578c.639 0 1.133-.547 1.133-1.186v-27.667h27.718c.639 0 1.133-.545 1.133-1.184v-19.527c0-.64-.494-1.133-1.133-1.133h-27.719v-27.718c0-.639-.494-1.133-1.133-1.133z" fill="#1a1919"/><path d="m154.996 118.288h115.352a7.307 7.307 0 0 1 7.306 7.307v7.972a7.306 7.306 0 0 1 -7.306 7.306h-115.352a7.307 7.307 0 0 1 -7.306-7.306v-7.972a7.307 7.307 0 0 1 7.306-7.307z" fill="#818080"/><path d="m301.191 171.003h44.976a3.59 3.59 0 0 1 3.589 3.591v44.975a3.59 3.59 0 0 1 -3.589 3.591h-44.976a3.593 3.593 0 0 1 -3.592-3.591v-44.975a3.593 3.593 0 0 1 3.592-3.591z" fill="#ddd"/><path d="m345.051 197.301c0 11.806-9.57 21.376-21.376 21.376s-21.376-9.57-21.376-21.376c0-11.805 9.57-21.375 21.376-21.375s21.376 9.57 21.376 21.375z" fill="#b52220"/><path d="m360.42 171.003h44.976a3.591 3.591 0 0 1 3.591 3.591v44.975a3.591 3.591 0 0 1 -3.591 3.591h-44.976a3.593 3.593 0 0 1 -3.591-3.591v-44.975a3.591 3.591 0 0 1 3.591-3.591z" fill="#ddd"/><path d="m404.301 197.301c0 11.806-9.57 21.376-21.376 21.376-11.807 0-21.376-9.57-21.376-21.376 0-11.805 9.569-21.375 21.376-21.375 11.806 0 21.376 9.57 21.376 21.375z" fill="#b52220"/><path d="m154.996 147.37h115.352a7.307 7.307 0 0 1 7.306 7.307v7.972a7.306 7.306 0 0 1 -7.306 7.306h-115.352a7.307 7.307 0 0 1 -7.306-7.306v-7.972a7.307 7.307 0 0 1 7.306-7.307z" fill="#818080"/><path d="m155.833 176.074h113.701a8.143 8.143 0 0 1 8.143 8.143v26.597a8.145 8.145 0 0 1 -8.143 8.144h-113.701a8.143 8.143 0 0 1 -8.143-8.143v-26.598a8.142 8.142 0 0 1 8.141-8.143z" fill="#ddd"/><path d="m159.685 180.162v.549h106.017c1.691 0 3.219.685 4.328 1.793a6.105 6.105 0 0 1 1.794 4.33v21.787a6.1 6.1 0 0 1 -1.794 4.328 6.096 6.096 0 0 1 -4.328 1.792h-106.017a6.106 6.106 0 0 1 -4.329-1.792 6.1 6.1 0 0 1 -1.793-4.328v-21.787c0-1.692.685-3.22 1.794-4.33a6.095 6.095 0 0 1 4.328-1.793v-1.098a7.223 7.223 0 0 0 -7.22 7.221v21.787a7.219 7.219 0 0 0 7.219 7.217h106.018a7.218 7.218 0 0 0 7.22-7.217v-21.787a7.223 7.223 0 0 0 -7.22-7.221h-106.017z" fill="#818080"/><path d="m169.837 191.093h22.123a7.194 7.194 0 0 1 7.193 7.195 7.194 7.194 0 0 1 -7.193 7.194h-22.123a7.192 7.192 0 0 1 -7.193-7.193v-.001a7.192 7.192 0 0 1 7.193-7.195zm63.211 0h22.121a7.194 7.194 0 0 1 7.193 7.195 7.194 7.194 0 0 1 -7.193 7.194h-22.121a7.195 7.195 0 0 1 0-14.389z" fill="#070308"/><path d="m323.279 120.712v11.834h-3.77l-4.817-8.017c-.267-.526-.267-.01-.267-.01v8.027h-3.856v-11.834h3.856s4.596 7.579 4.847 7.936c.237.356.237 0 .237 0v-7.936zm1.92 0h3.531v2.156h-3.531zm22.299 1.743v1.283h1.58l.059.78h-1.639v8.028h-3.68v-8.028h-1.655l.045-.78h1.61v-1.283zm-6.992 2.459c.887.706 1.197 2.069 1.197 2.069v5.563h-3.71v-5.469s-.279-1.291-1.728-1.282c-1.433.009-1.714 1.189-1.714 1.189v5.563h-3.621v-8.026h3.621c.368.688 1.242-.138 1.994-.266 1.377-.443 2.868-.002 3.961.659m-15.307-.396h3.531v8.027h-3.531zm30.825 6.697s-.325 1.102-1.493 1.102-1.434-1.239-1.434-1.239l.046-2.432h6.723c-.015-2.247-.961-3.118-1.729-3.67-2.26-1.238-5.468-1.219-7.669.541-.769.66-1.315 1.873-1.257 3.028 0 1.046.429 2.091 1.153 2.807 1.434 1.21 3.576 1.76 5.675 1.321 1.375-.44 3.133-1.101 3.517-2.642h-3.517zm-2.809-5.085s.236-1.062 1.434-1.062c1.183 0 1.33 1.167 1.33 1.167l.028 1.082h-2.792zm26.748-5.419v4.118c-1.211-.661-3.236-1.072-4.507-.246-1.596.77-2.143 2.587-2.201 4.183.059 1.21.769 2.586 1.816 3.303 1.315.804 3.074.919 4.552.304l.398-.195c.118.092.267.164.429.222 1.05.364 2.912.146 2.912.146v-11.835zm0 10.401s-.37.782-1.418.791c-.828-.009-1.39-.595-1.39-.595v-5.276s.236-.743 1.301-.733c1.063.007 1.507.733 1.507.733zm-9.015-6.168c.872.707 1.197 2.07 1.197 2.07v5.563h-3.724v-5.469s-.281-1.292-1.715-1.282c-1.448.01-1.715 1.189-1.715 1.189v5.563h-3.635v-8.027h3.635c.354.688 1.228-.137 1.98-.265 1.376-.443 2.868-.001 3.977.658m19.344-.929c-2.984 0-5.394 1.961-5.394 4.38 0 2.417 2.409 4.378 5.394 4.378 2.97-.001 5.38-1.961 5.38-4.378 0-2.419-2.41-4.38-5.38-4.38zm1.447 6.987s-.368.781-1.432.79c-.813-.009-1.375-.596-1.375-.596v-5.275s.222-.744 1.286-.733c1.063.009 1.521.733 1.521.733zm5.503-6.288c.781 0 1.521-.31 2.08-.864a2.928 2.928 0 0 0 .872-2.081c0-.784-.314-1.523-.872-2.08a2.949 2.949 0 0 0 -5.034 2.079c0 .786.315 1.524.873 2.081.551.553 1.3.865 2.081.865zm-2.372-2.945c0-.63.248-1.223.693-1.668a2.385 2.385 0 0 1 3.357 0c.425.445.671 1.038.671 1.668a2.356 2.356 0 0 1 -2.349 2.36c-.627 0-1.23-.246-1.679-.691a2.35 2.35 0 0 1 -.693-1.669" fill="#c23637"/><path d="m396.613 120.569h1.008l.334.058c.136.079.225.224.225.436 0 .197-.065.336-.178.412a.78.78 0 0 1 -.449.114h-.939v-1.02zm0 2.639v-1.282h.939c.157 0 .293.016.358.054.136.067.203.199.224.394l.022.497.022.237.023.101h.491v-.069l-.112-.181-.044-.255-.023-.401c0-.172-.021-.299-.089-.375l-.269-.188.313-.272c.089-.117.111-.264.111-.44 0-.345-.134-.58-.425-.707-.134-.067-.335-.099-.558-.099h-1.387v2.988h.404" fill="#c23637"/><path d="m154.913 162.96h5.889c1.683 0 2.524-.772 2.524-2.314s-.842-2.313-2.524-2.313h-4.206v-1.261h6.73v-1.683h-5.89c-1.684 0-2.523.782-2.523 2.347 0 1.52.84 2.279 2.523 2.279h4.205v1.262h-6.729zm17.667 0h-5.889c-1.683 0-2.524-.841-2.524-2.524v-5.047h8.413v1.683h-6.73v1.261h6.73v1.683h-6.73v.421c0 .561.28.841.842.841h5.889zm.831-7.581v5.047c0 1.683.84 2.524 2.522 2.524h5.889v-1.683h-5.889c-.561 0-.842-.281-.842-.841v-5.047zm17.666 7.581h-5.889c-1.683 0-2.523-.841-2.523-2.524v-5.047h8.412v1.683h-6.729v1.261h6.729v1.683h-6.729v.421c0 .561.279.841.841.841h5.889v1.682zm9.257 0h-5.889c-1.683 0-2.523-.841-2.523-2.524v-2.524c0-1.682.841-2.523 2.523-2.523h5.889v1.683h-5.889c-.562 0-.841.28-.841.84v2.524c0 .561.279.841.841.841h5.889zm.845-7.581h8.413v1.682h-3.365v5.889h-1.682v-5.889h-3.366zm23.578 7.581h5.889c1.683 0 2.522-.772 2.522-2.314s-.84-2.313-2.522-2.313h-4.207v-1.261h6.729v-1.683h-5.888c-1.683 0-2.523.782-2.523 2.347 0 1.52.841 2.279 2.523 2.279h4.206v1.262h-6.729zm9.241-7.581h8.413v1.682h-3.365v5.889h-1.683v-5.889h-3.365zm15.991 3.79v-1.262c0-.562-.281-.841-.841-.841h-3.365c-.562 0-.841.28-.841.841v1.262zm-5.047 1.683v2.103h-1.683v-5.047c0-1.683.843-2.524 2.523-2.524h3.365c1.683 0 2.523.841 2.523 2.524v5.047h-1.683v-2.103zm9.245-2.529h5.047v-1.262h-5.047zm0 1.683v2.944h-1.683v-7.571h5.889c1.683 0 2.523.769 2.523 2.305 0 .729-.121 1.265-.361 1.606.24.399.361.918.361 1.557v2.103h-1.683v-2.103c0-.561-.281-.842-.841-.842zm7.58-4.627h8.412v1.682h-3.365v5.889h-1.682v-5.889h-3.365zm82.197 75.398h6.037v-1.509h-6.037zm0 3.523h6.037v-1.511h-6.037zm-2.013 2.012v-9.057h7.044c2.012 0 3.019.913 3.019 2.738 0 .745-.161 1.341-.483 1.791.322.443.483 1.037.483 1.782 0 1.831-1.007 2.747-3.019 2.747zm67.301-4.15v-1.509c0-.672-.336-1.006-1.007-1.006h-4.025c-.67 0-1.006.333-1.006 1.006v1.509zm-6.038 2.012v2.517h-2.012v-6.038c0-2.012 1.006-3.018 3.018-3.018h4.025c2.013 0 3.019 1.006 3.019 3.018v6.038h-2.012v-2.517z" fill="#c23435"/><path d="m47.549 166.957-.132-.134-4.122 4.123-4.255 4.254 4.255 4.256 4.443 4.441v-2.739h8.242v-11.917h-8.242v-2.739l-.321.321.132.134h-.187v2.66h8.242v11.165h-8.242v2.207l-3.801-3.799-3.989-3.99 3.989-3.988 4.122-4.122-.134-.133h-.187zm57.572 0-.133.133 4.121 4.122 3.989 3.988-3.989 3.99-3.801 3.799v-2.207h-8.243v-11.165h8.243v-2.66h-.187l-.133.133.133-.133h-.189v2.284h-8.243v11.917h8.243v2.739l4.444-4.441 4.254-4.256-4.254-4.254-4.444-4.444v.455zm-20.625-20.823.133-.133-4.123-4.122-4.254-4.254-4.254 4.254-4.444 4.443h2.74v8.244h11.917v-8.244h2.739l-.321-.321-.133.133v-.188h-2.661v8.244h-11.165v-8.244h-2.207l3.8-3.801 3.989-3.989 3.989 3.989 4.122 4.122.133-.133v-.188zm0 58.446-.133-.134-4.122 4.122-3.989 3.989-3.989-3.989-3.8-3.8h2.207v-8.244h11.165v8.244h2.661v-.188l-.133-.134.133.134v-.189h-2.285v-8.243h-11.917v8.243h-2.74l4.444 4.443 4.254 4.255 4.254-4.255 4.444-4.443h-.454zm1.783-29.517h-.277v.008c0 5.307-4.301 9.61-9.608 9.614h-.005c-5.308 0-9.613-4.301-9.616-9.608v-.023l-.035.001h.035v-.001l-.035.001h.035c0-5.306 4.301-9.61 9.608-9.613h.007c5.307 0 9.611 4.301 9.614 9.608v.013h.554v-.013c-.004-5.614-4.557-10.163-10.169-10.163h-.013l.006.277v-.277c-5.614.004-10.162 4.555-10.163 10.167l.001.017.276-.009h-.276v.014c.003 5.613 4.556 10.162 10.17 10.162h.005c5.613-.005 10.162-4.555 10.163-10.168v-.008z" fill="#070308"/><path d="m171.734 192.494h18.354c3.975 0 7.195 2.595 7.195 5.797 0 3.2-3.221 5.795-7.195 5.795h-18.354c-3.974 0-7.195-2.595-7.195-5.795 0-3.201 3.221-5.797 7.195-5.797zm63.192 0h18.356c3.973 0 7.193 2.595 7.193 5.797 0 3.2-3.221 5.795-7.193 5.795h-18.356c-3.972 0-7.193-2.595-7.193-5.795 0-3.201 3.222-5.797 7.193-5.797z" fill="#1a1919"/><ellipse cx="384.204" cy="198.004" fill="#434547" rx="2.453" ry="2.4"/><ellipse cx="323.716" cy="198.004" fill="#434547" rx="2.453" ry="2.4"/><ellipse cx="244.146" cy="198.385" fill="#434547" rx="2.453" ry="2.4"/><ellipse cx="180.071" cy="198.385" fill="#434547" rx="2.453" ry="2.4"/><ellipse cx="76.334" cy="175.208" fill="#434547" rx="2.453" ry="2.4"/><path d="m384.212 43.423.066 154.205zm-.801 0 .067 154.205h1.6l-.066-154.206zm-59.793.155.067 155.955zm-.807 0 .068 155.955 1.613-.001-.068-155.955zm-78.723 153.639.067 71.661zm-.548 0 .067 71.661 1.095-.001-.067-71.661zm-63.496.859.067 70.971zm-.545.001.067 70.97 1.09-.001-.068-70.97zm-103.265-154.288.067 131.675zm-.741 0 .067 131.676 1.483-.001-.068-131.675z" fill="#434547"/><path d="m343.85 269.047h-117.06a3.764 3.764 0 0 0 -3.764 3.764v34.497a3.764 3.764 0 0 0 3.764 3.764h117.06a3.764 3.764 0 0 0 3.764-3.764v-34.498a3.765 3.765 0 0 0 -3.764-3.763" fill="#f5f5f4"/><path d="m226.791 269.047v1.255h117.06a2.512 2.512 0 0 1 2.509 2.509v34.497a2.512 2.512 0 0 1 -2.509 2.509h-117.06a2.512 2.512 0 0 1 -2.509-2.509v-34.498a2.512 2.512 0 0 1 2.509-2.509v-2.509a5.02 5.02 0 0 0 -5.019 5.019v34.497a5.02 5.02 0 0 0 5.019 5.019h117.06a5.02 5.02 0 0 0 5.019-5.019v-34.498a5.02 5.02 0 0 0 -5.019-5.019h-117.06z" fill="#35485c"/><path d="m258.395 286.817h1.435v-6.063h2.557v-1.127h-6.548v1.127h2.558zm-8.694-3.966v-2.098h2.477c.753 0 1.223.292 1.223 1.037 0 .806-.431 1.061-1.223 1.061zm-1.431 3.966h1.431v-2.84h2.438c1.05 0 1.185.726 1.185 1.751 0 .525.068.888.174 1.089h1.549c-.28-.394-.289-1.196-.289-1.542 0-1.017-.18-1.762-.992-1.941v-.021c.642-.211 1.125-.795 1.125-1.733 0-1.116-.562-1.949-2.3-1.949h-4.316zm-8.865 0h1.548l.706-1.782h3.21l.716 1.782h1.6l-3.038-7.191h-1.7zm2.684-2.91 1.185-3.035 1.165 3.035zm-6.714 2.91h1.431v-6.063h2.561v-1.127h-6.553v1.127h2.562v6.063zm-9.784-5.169c0 2.949 5.024 1.397 5.024 3.181 0 .791-.811 1.062-1.68 1.062-1.177 0-1.919-.455-1.959-1.404h-1.546c.021 1.512 1.002 2.532 3.461 2.532 1.451 0 3.272-.485 3.272-2.34 0-3.072-5.081-1.451-5.081-3.141 0-.675.63-.986 1.585-.986 1.193 0 1.672.603 1.722 1.158h1.548c-.185-2.088-2.285-2.287-3.337-2.287-1.663.001-3.009.623-3.009 2.225m32.956 8.73h-29.306c-2.118 0-3.836 1.768-3.836 3.948s1.718 3.948 3.836 3.948h29.306c2.118 0 3.835-1.767 3.835-3.948s-1.717-3.948-3.835-3.948zm20.973.249c-1.752-.504-3.029-1.121-3.831-1.852-.795-.738-1.192-1.646-1.192-2.725 0-1.22.486-2.228 1.458-3.022.979-.802 2.249-1.203 3.811-1.203 1.064 0 2.012.206 2.842.617.837.412 1.482.979 1.937 1.703.462.724.692 1.515.692 2.374h-2.055c0-.937-.298-1.671-.894-2.203-.597-.539-1.437-.809-2.522-.809-1.008 0-1.795.223-2.363.67-.561.44-.841 1.054-.841 1.841 0 .631.267 1.167.799 1.607.539.433 1.451.83 2.735 1.192 1.291.362 2.299.763 3.022 1.203.73.433 1.27.94 1.617 1.522.355.582.532 1.267.532 2.054 0 1.256-.489 2.263-1.469 3.022-.979.752-2.288 1.128-3.927 1.128a7.34 7.34 0 0 1 -2.98-.607c-.922-.411-1.635-.972-2.139-1.682-.497-.709-.745-1.515-.745-2.416h2.054c0 .937.345 1.678 1.032 2.224.695.539 1.622.809 2.778.809 1.078 0 1.905-.22 2.479-.66.575-.44.862-1.04.862-1.798 0-.759-.266-1.345-.798-1.756-.531-.417-1.495-.829-2.894-1.233zm19.083-6.908h-4.98v13.815h-2.034v-13.815h-4.97v-1.681h11.984zm10.026 9.77h-6.492l-1.458 4.044h-2.107l5.918-15.496h1.788l5.928 15.496h-2.097zm-5.875-1.681h5.269l-2.64-7.248zm17.22-.543h-3.64v6.269h-2.055v-15.496h5.13c1.746 0 3.087.397 4.023 1.192.943.794 1.416 1.951 1.416 3.47 0 .965-.263 1.806-.788 2.522-.518.717-1.241 1.252-2.171 1.607l3.64 6.577v.128h-2.192zm-3.639-1.671h3.14c1.015 0 1.819-.262 2.416-.788.603-.525.904-1.228.904-2.107 0-.958-.287-1.692-.862-2.203-.567-.511-1.391-.77-2.469-.777h-3.129zm21.221-5.875h-4.98v13.815h-2.033v-13.815h-4.97v-1.681h11.983z" fill="#35485c"/><path d="m77.898 295.049v12.689h36.016v-12.684c-.388 1.71-1.879 2.982-3.658 2.982h-28.699c-1.78 0-3.272-1.275-3.659-2.987m6.462-8.232v-7.039h4.802v1.103h-3.641v1.777h3.49v1.103h-3.49v1.953h3.699v1.103zm6.122 0v-7.039h1.16v5.878h3.358v1.161zm5.55 0 .001-7.039h4.794v1.103h-3.636v1.777h3.491v1.103h-3.491v1.953h3.699v1.103zm8.761.198c-1.995 0-2.951-1.737-2.951-3.717 0-1.986.915-3.718 3.09-3.718 1.902 0 2.893 1.28 3.016 2.798l-1.25-.001c-.116-1.066-.805-1.697-1.78-1.697-1.07 0-1.865.91-1.865 2.744 0 1.47.795 2.488 1.944 2.488 1.204 0 1.605-1.047 1.702-1.787h1.251c-.163 1.403-.881 2.89-3.157 2.89m9.121-15.294h-36.016v12.814h1.169c.032.929.634 1.375 1.587 1.375.706 0 1.363-.266 1.363-1.04 0-1.747-4.071-.226-4.071-3.113 0-1.568 1.091-2.178 2.436-2.178.851 0 2.555.194 2.704 2.237h-1.255c-.039-.545-.428-1.136-1.395-1.136-.771 0-1.283.307-1.283.968 0 1.652 4.117.067 4.117 3.074 0 1.816-1.477 2.29-2.654 2.29-1.638 0-2.468-.676-2.718-1.742v8.02c.387-1.711 1.879-2.987 3.659-2.987h28.698c1.78 0 3.27 1.273 3.658 2.982v-12.406h-1.972v5.936h-1.158v-5.937h-2.074v-1.102h5.204zm-36.113 22.449v-22.546h36.212v8.154h.006v1.103h-.006v26.954h-36.212zm128.806-23.803h-127.183a2.46 2.46 0 0 0 -2.457 2.457v34.471a2.462 2.462 0 0 0 2.457 2.457h127.183a2.46 2.46 0 0 0 2.456-2.457v-34.471a2.46 2.46 0 0 0 -2.456-2.457" fill="#f5f5f4"/><path d="m79.424 269.062v1.305h127.183a2.46 2.46 0 0 1 2.456 2.457v34.471a2.46 2.46 0 0 1 -2.456 2.457h-127.183a2.46 2.46 0 0 1 -2.457-2.457v-34.471a2.462 2.462 0 0 1 2.457-2.457v-2.609a5.066 5.066 0 0 0 -5.066 5.066v34.471a5.067 5.067 0 0 0 5.066 5.066h127.183a5.067 5.067 0 0 0 5.065-5.066v-34.471a5.067 5.067 0 0 0 -5.065-5.066h-127.183z" fill="#35485c"/><path d="m110.256 290.304h-28.699c-2.074 0-3.757 1.731-3.757 3.866s1.683 3.866 3.757 3.866h28.698c2.075 0 3.757-1.731 3.757-3.866 0-2.136-1.681-3.866-3.756-3.866m.528-3.487h1.158v-5.936h2.076v-1.103h-5.309v1.102h2.074v5.937m-2.835-4.438c-.123-1.518-1.114-2.798-3.016-2.798-2.175 0-3.09 1.732-3.09 3.718 0 1.979.956 3.717 2.951 3.717 2.276 0 2.993-1.486 3.155-2.89h-1.251c-.097.74-.498 1.787-1.702 1.787-1.149 0-1.944-1.018-1.944-2.488 0-1.834.795-2.744 1.865-2.744.976 0 1.664.631 1.78 1.697zm-11.916 4.438h4.858v-1.103h-3.699v-1.953h3.491v-1.103h-3.491v-1.777h3.636v-1.103h-4.794zm-5.55 0h4.519v-1.161h-3.358v-5.878h-1.16zm-6.122 0h4.86v-1.103h-3.699v-1.953h3.49v-1.103h-3.49v-1.777h3.641v-1.103h-4.802zm-6.414-5.059c0 2.887 4.071 1.366 4.071 3.113 0 .773-.657 1.04-1.363 1.04-.953 0-1.555-.446-1.587-1.375h-1.252c.015 1.48.811 2.477 2.801 2.477 1.178 0 2.654-.473 2.654-2.29 0-3.006-4.117-1.421-4.117-3.074 0-.662.512-.968 1.283-.968.968 0 1.356.591 1.395 1.136h1.255c-.15-2.043-1.853-2.237-2.704-2.237-1.345 0-2.436.61-2.436 2.178" fill="#35485c"/><path d="m114.012 280.881h-.099v12.406a4.026 4.026 0 0 1 0 1.768v12.684h-36.015v-12.689a3.994 3.994 0 0 1 -.098-.879v13.665h36.212zm0-9.257h-36.211v22.546c0-.302.034-.597.098-.879v-8.02a3.309 3.309 0 0 1 -.083-.736h.083v-12.814h36.016v8.056h.099v-8.153" fill="#f5f5f4"/><path d="m77.898 293.291a3.981 3.981 0 0 0 0 1.758zm36.016-.005v1.768a4.026 4.026 0 0 0 0-1.768m-36.016-8.75h-.083c.003.261.029.507.083.736zm36.114-4.758h-.099v1.103h.099zm18.129 10.849c-1.753-.504-3.03-1.121-3.832-1.852-.794-.738-1.191-1.646-1.191-2.725 0-1.22.485-2.228 1.458-3.022.979-.802 2.249-1.203 3.81-1.203 1.064 0 2.012.206 2.842.617.838.412 1.483.979 1.938 1.703.461.724.691 1.515.691 2.374h-2.054c0-.937-.298-1.671-.895-2.203-.596-.539-1.437-.809-2.522-.809-1.007 0-1.795.224-2.362.671-.561.44-.841 1.054-.841 1.841 0 .631.267 1.167.798 1.607.54.433 1.451.83 2.735 1.192 1.292.362 2.299.763 3.022 1.203.731.433 1.271.94 1.618 1.522.354.582.532 1.267.532 2.054 0 1.256-.489 2.263-1.469 3.022-.979.752-2.288 1.128-3.928 1.128a7.336 7.336 0 0 1 -2.979-.607c-.923-.412-1.636-.972-2.14-1.682a4.114 4.114 0 0 1 -.745-2.416h2.055c0 .937.344 1.678 1.032 2.225.695.539 1.621.809 2.777.809 1.079 0 1.905-.22 2.48-.66.574-.44.862-1.04.862-1.798 0-.759-.267-1.345-.799-1.756-.53-.419-1.495-.831-2.893-1.235zm17.135-.256h-6.716v5.492h7.802v1.671h-9.845v-15.496h9.738v1.681h-7.695v4.981h6.716zm5.684 5.492h7.343v1.671h-9.397v-15.496h2.054zm18.455-5.492h-6.716v5.492h7.802v1.671h-9.846v-15.496h9.739v1.681h-7.695v4.981h6.716zm15.027 2.246c-.191 1.639-.798 2.905-1.819 3.799-1.015.887-2.366 1.331-4.055 1.331-1.831 0-3.3-.656-4.406-1.969-1.101-1.313-1.65-3.069-1.65-5.268v-1.49c0-1.44.256-2.707.767-3.799.518-1.093 1.249-1.93 2.192-2.512.943-.589 2.036-.883 3.278-.883 1.646 0 2.966.461 3.959 1.383.993.916 1.571 2.186 1.734 3.81h-2.054c-.178-1.234-.564-2.128-1.16-2.682-.589-.554-1.415-.831-2.479-.831-1.306 0-2.331.483-3.076 1.448-.737.965-1.106 2.338-1.106 4.119v1.501c0 1.681.351 3.019 1.054 4.012.702.993 1.685 1.49 2.948 1.49 1.135 0 2.004-.256 2.607-.767.609-.518 1.015-1.416 1.213-2.693zm13.188-8.898h-4.982v13.815h-2.032v-13.815h-4.971v-1.681h11.985z" fill="#35485c"/><path d="m385.012 43.422-1.601.001v.057h1.601z" fill="#c7c4c6"/><path d="m339.472 1.293h-70.963a3.777 3.777 0 0 0 -3.778 3.776v34.633a3.777 3.777 0 0 0 3.777 3.779h24.903v-.057l1.601-.001v.058h44.461a3.779 3.779 0 0 0 3.778-3.779v-34.631a3.779 3.779 0 0 0 -3.779-3.778" fill="#f5f5f4"/><path d="m268.509 1.293v.998h70.963a2.786 2.786 0 0 1 2.78 2.78v34.63a2.786 2.786 0 0 1 -2.78 2.781h-70.963a2.785 2.785 0 0 1 -2.78-2.781v-34.63a2.784 2.784 0 0 1 2.78-2.78v-1.997a4.777 4.777 0 0 0 -4.777 4.777v34.63a4.779 4.779 0 0 0 4.777 4.777h70.963a4.776 4.776 0 0 0 4.776-4.776v-34.631a4.778 4.778 0 0 0 -4.776-4.777h-70.963z" fill="#35485c"/><path d="m316.74 29.861v-15.496h5.066c1.682 0 2.944.348 3.789 1.043.852.695 1.277 1.724 1.277 3.086 0 .724-.206 1.366-.617 1.927-.412.553-.973.982-1.682 1.288.837.234 1.497.681 1.979 1.341.489.653.734 1.434.734 2.342 0 1.391-.451 2.483-1.352 3.278s-2.175 1.192-3.821 1.192zm2.044-7.248v5.577h3.374c.95 0 1.699-.245 2.245-.734.554-.497.83-1.178.83-2.043 0-1.866-1.015-2.799-3.044-2.799h-3.405zm0-1.639h3.086c.895 0 1.607-.224 2.14-.67.539-.447.809-1.054.809-1.82 0-.851-.248-1.468-.745-1.852-.496-.39-1.252-.585-2.267-.585h-3.022v4.927z" fill="#35485c"/><path clip-path="url(#a)" d="m297.174 26.967a5.184 5.184 0 1 1 -.004-10.37h.004a5.185 5.185 0 0 1 0 10.37m-10.91-8.507a5.184 5.184 0 1 1 0-10.37 5.184 5.184 0 1 1 0 10.37m-1.868 18.553a5.186 5.186 0 0 1 -.002-10.372h.004a5.186 5.186 0 0 1 -.002 10.372m-10.777-8.723a5.184 5.184 0 1 1 -.004-10.37h.004a5.185 5.185 0 0 1 0 10.37m11.774-24.57c-10.35 0-18.739 8.389-18.739 18.739 0 10.349 8.39 18.739 18.739 18.739s18.739-8.39 18.739-18.739-8.39-18.739-18.739-18.739" fill="#35485c"/><path clip-path="url(#b)" d="m300.877 21.781a3.7 3.7 0 0 1 -3.696 3.708 3.7 3.7 0 0 1 -3.708-3.696v-.011a3.702 3.702 0 0 1 7.404-.001m-23.397 1.324a3.863 3.863 0 1 1 -7.72.304 3.863 3.863 0 0 1 7.72-.304m12.444-9.725a3.666 3.666 0 1 1 -7.333.001 3.666 3.666 0 0 1 7.333-.001" fill="#35485c"/><path d="m131.58 1.242h-114.437a3.765 3.765 0 0 0 -3.765 3.765v34.503a3.765 3.765 0 0 0 3.765 3.765h114.437a3.764 3.764 0 0 0 3.764-3.764v-34.504a3.765 3.765 0 0 0 -3.764-3.765" fill="#f5f5f4"/><g fill="#35485c"><path d="m17.143 1.242v1.242h114.437a2.527 2.527 0 0 1 2.522 2.523v34.503a2.527 2.527 0 0 1 -2.522 2.523h-114.437a2.526 2.526 0 0 1 -2.523-2.523v-34.503a2.526 2.526 0 0 1 2.523-2.523v-2.484a5.007 5.007 0 0 0 -5.007 5.007v34.503a5.009 5.009 0 0 0 5.007 5.007h114.437a5.006 5.006 0 0 0 5.005-5.007v-34.503a5.006 5.006 0 0 0 -5.005-5.007h-114.437z"/><path d="m37.862 41.139h-7.2c-2.318 0-3.158-1.89-3.158-3.161v-8.842h-8.845c-2.318 0-3.16-1.89-3.16-3.161v-7.199c0-2.318 1.891-3.16 3.16-3.16h8.845v-8.842c0-2.319 1.888-3.161 3.158-3.161h7.2c2.319 0 3.16 1.891 3.16 3.161v8.843h8.842c1.216 0 2.181.532 2.718 1.499.209.379.461 1.126.434 1.66h.009v7.199c0 2.319-1.89 3.161-3.16 3.161h-8.842v8.842c-.001 2.319-1.89 3.161-3.161 3.161zm-19.203-24.004c-.381.006-1.641.141-1.641 1.641v7.199c.006.381.141 1.642 1.641 1.642h10.362v10.361c.005.381.141 1.642 1.64 1.642h7.197c.389-.006 1.645-.144 1.645-1.642v-10.36h10.36c.38-.006 1.641-.142 1.641-1.642v-7.21c-.005-.291-.113-1.629-1.64-1.629h-10.359v-10.363c-.006-.381-.141-1.642-1.642-1.642h-7.2c-.381.006-1.64.141-1.64 1.642v10.361z"/><path d="m34.263 26.074c-2.037 0-3.695-1.659-3.695-3.697s1.658-3.696 3.695-3.696a3.7 3.7 0 0 1 3.696 3.696 3.7 3.7 0 0 1 -3.696 3.697zm0-5.874a2.18 2.18 0 0 0 0 4.355 2.18 2.18 0 0 0 2.177-2.178 2.18 2.18 0 0 0 -2.177-2.177zm-.001-13.363-3.043 4.743h6.088z"/><path d="m37.306 12.339h-6.088a.762.762 0 0 1 -.639-1.17l3.043-4.743c.279-.436.999-.435 1.277 0l3.045 4.743a.76.76 0 0 1 -.638 1.17zm-4.697-1.518h3.308l-1.654-2.577zm-13.946 11.556 4.743 3.042v-6.086z"/><path d="m23.406 26.178a.756.756 0 0 1 -.41-.121l-4.742-3.042a.758.758 0 0 1 0-1.278l4.742-3.043a.761.761 0 0 1 1.17.639v6.086a.757.757 0 0 1 -.755.759zm-3.336-3.801 2.577 1.653v-3.306zm29.734-.001-4.743-3.043v6.086z"/><path d="m45.062 26.178a.76.76 0 0 1 -.76-.759v-6.086c0-.277.15-.533.396-.666a.754.754 0 0 1 .775.027l4.743 3.042a.76.76 0 0 1 0 1.278l-4.744 3.042a.746.746 0 0 1 -.41.122zm.759-5.456v3.308l2.578-1.654zm-11.559 17.195 3.045-4.743h-6.088z"/><path d="m34.262 38.676a.762.762 0 0 1 -.639-.349l-3.043-4.743a.761.761 0 0 1 .639-1.171h6.088a.76.76 0 0 1 .639 1.171l-3.045 4.743a.762.762 0 0 1 -.639.349zm-1.653-4.743 1.653 2.577 1.654-2.577zm32.702-4.2v-15.496h4.374c1.348 0 2.54.298 3.576.894s1.834 1.444 2.395 2.543c.567 1.1.854 2.363.862 3.789v.99c0 1.462-.284 2.742-.852 3.842a5.907 5.907 0 0 1 -2.416 2.533c-1.043.589-2.26.891-3.65.905zm2.043-13.814v12.144h2.15c1.575 0 2.799-.49 3.672-1.469.88-.979 1.319-2.374 1.319-4.183v-.905c0-1.76-.415-3.125-1.245-4.098-.823-.979-1.994-1.476-3.513-1.49h-2.383zm10.857 6.428h5.193v1.607h-5.193zm9.45 1.32v6.066h-2.043v-15.496h5.715c1.696 0 3.022.433 3.98 1.298.965.866 1.448 2.012 1.448 3.438 0 1.504-.473 2.664-1.416 3.48-.937.809-2.281 1.213-4.033 1.213zm0-1.671h3.672c1.093 0 1.931-.255 2.512-.766.582-.518.873-1.263.873-2.235 0-.922-.291-1.66-.873-2.214-.581-.553-1.38-.841-2.395-.862h-3.789zm18.817 3.693h-6.492l-1.458 4.044h-2.107l5.917-15.496h1.788l5.929 15.496h-2.097zm-5.875-1.682h5.269l-2.64-7.248zm11.537 5.726v-15.496h4.374c1.348 0 2.54.298 3.576.894s1.834 1.444 2.395 2.543c.567 1.1.854 2.363.862 3.789v.99c0 1.462-.284 2.742-.852 3.842a5.907 5.907 0 0 1 -2.416 2.533c-1.043.589-2.26.891-3.65.905zm2.043-13.814v12.144h2.15c1.575 0 2.799-.49 3.672-1.469.88-.979 1.319-2.374 1.319-4.183v-.905c0-1.76-.415-3.125-1.245-4.098-.823-.979-1.994-1.476-3.513-1.49h-2.383z"/></g><path d="m429.641 1.293h-70.963a3.777 3.777 0 0 0 -3.778 3.776v34.633a3.777 3.777 0 0 0 3.777 3.779h70.964a3.777 3.777 0 0 0 3.778-3.778v-34.632a3.777 3.777 0 0 0 -3.776-3.778z" fill="#f5f5f4"/><path d="m358.678 1.293v.998h70.963a2.784 2.784 0 0 1 2.78 2.78v34.63a2.785 2.785 0 0 1 -2.78 2.781h-70.963a2.785 2.785 0 0 1 -2.78-2.781v-34.63a2.784 2.784 0 0 1 2.78-2.78v-1.997a4.777 4.777 0 0 0 -4.777 4.777v34.63a4.779 4.779 0 0 0 4.777 4.777h70.963a4.776 4.776 0 0 0 4.776-4.776v-34.631a4.777 4.777 0 0 0 -4.776-4.777h-70.963z" fill="#35485c"/><path clip-path="url(#c)" d="m387.344 26.967a5.077 5.077 0 1 1 -.004-10.154h.004a5.077 5.077 0 0 1 0 10.154m-10.682-8.329a5.076 5.076 0 0 1 -5.148-5.005 5.076 5.076 0 0 1 5.147-5.148 5.077 5.077 0 0 1 .001 10.153m-1.829 18.165a5.077 5.077 0 0 1 -5.076-5.076v-.001a5.077 5.077 0 1 1 5.076 5.077m-10.553-8.541a5.075 5.075 0 0 1 -5.076-5.074v-.003a5.077 5.077 0 1 1 5.079 5.077zm11.528-24.056c-10.133 0-18.348 8.214-18.348 18.348 0 10.133 8.215 18.348 18.348 18.348 10.134 0 18.349-8.215 18.349-18.348 0-10.134-8.215-18.348-18.349-18.348" fill="#35485c"/><path clip-path="url(#d)" d="m378.422 31.727a3.59 3.59 0 1 1 -7.18-.003 3.59 3.59 0 0 1 7.18.003m-10.362-8.542a3.781 3.781 0 0 1 -7.562.002 3.781 3.781 0 0 1 7.562-.002m12.185-9.522a3.59 3.59 0 1 1 -7.18.01v-.01a3.59 3.59 0 0 1 7.18 0" fill="#35485c"/><path d="m415.466 25.817h-6.492l-1.458 4.044h-2.107l5.918-15.496h1.788l5.928 15.496h-2.097zm-5.875-1.682h5.269l-2.64-7.248z" fill="#35485c"/></svg>