<?xml version="1.0" encoding="utf-8"?>
<!-- Generator: Adobe Illustrator 22.0.0, SVG Export Plug-In . SVG Version: 6.00 Build 0)  -->
<svg version="1.1" id="Capa_1" xmlns="http://www.w3.org/2000/svg" xmlns:xlink="http://www.w3.org/1999/xlink" x="0px" y="0px"
	 viewBox="0 0 230.507 259.801" style="enable-background:new 0 0 230.507 259.801;" xml:space="preserve">
<g>
	<polygon style="fill:#BCBCBC;" points="222.089,0 222.089,3.286 209.358,3.286 209.358,0 86.166,0 86.166,3.286 35.361,3.286 
		35.361,0 21.034,0 21.034,3.286 8.395,3.286 8.395,0 0,0 0,212.028 11.977,212.028 11.977,259.801 217.161,259.801 
		217.161,212.645 230.507,212.645 230.507,0 	"/>
	<path style="fill:#A3A3A4;" d="M8.394,3.285h12.639v-1.3H8.394V3.285z M209.358,3.285h12.73v-1.3h-12.73V3.285z M35.361,259.8
		h50.805V3.285H35.361V259.8z"/>
	<path style="fill:#858484;" d="M86.167,3.286H35.361v28.836c0,1.21,0.98,2.19,2.19,2.19h46.424c1.211,0,2.191-0.98,2.191-2.19
		V3.286z"/>
	<path style="fill:#BCBCBC;" d="M35.771,259.8h49.983v-24.73c0-1.208-0.965-2.189-2.153-2.189H37.926
		c-1.19,0-2.154,0.981-2.154,2.189V259.8z M85.003,228.316H36.41v-4.654h48.593V228.316z M85.003,218.553H36.41v-4.654h48.593
		V218.553z M85.003,208.789H36.41v-4.654h48.593V208.789z M85.003,199.025H36.41v-4.654h48.593V199.025z M85.003,189.26H36.41
		v-4.654h48.593V189.26z M85.003,179.496H36.41v-4.654h48.593V179.496z M85.003,169.731H36.41v-4.654h48.593V169.731z
		 M85.003,159.967H36.41v-4.654h48.593V159.967z M85.003,150.204H36.41v-4.654h48.593V150.204z M85.003,140.44H36.41v-4.655h48.593
		V140.44z M85.003,130.675H36.41v-4.654h48.593V130.675z M85.003,120.91H36.41v-4.654h48.593V120.91z M85.003,111.146H36.41v-4.654
		h48.593V111.146z M85.003,101.382H36.41v-4.654h48.593V101.382z M85.003,91.619H36.41v-4.654h48.593V91.619z M85.003,81.854H36.41
		v-4.655h48.593V81.854z M85.003,72.09H36.41v-4.654h48.593V72.09z M85.003,62.325H36.41v-4.654h48.593V62.325z M85.003,52.56H36.41
		v-4.654h48.593V52.56z M85.003,42.796H36.41v-4.654h48.593V42.796z"/>
	<path style="fill:#1A1919;" d="M90.888,0v174.979c0,1.21,0.981,2.19,2.191,2.19h106.767c1.21,0,2.191-0.98,2.191-2.19V0H90.888z"/>
	<path style="fill:#A3A3A4;" d="M103.893,192.5h20.854l-10.428,18.069L103.893,192.5z M85.003,33.032H36.41v-4.654h48.593V33.032z
		 M85.003,23.269H36.41v-4.654h48.593V23.269z M85.003,13.503H36.41V8.85h48.593V13.503z"/>
	<path style="fill:#FFFFFF;" d="M177.952,148.064c6.932,0,12.552,3.915,12.552,8.742c0,4.828-5.62,8.743-12.552,8.743
		c-6.933,0-12.552-3.915-12.552-8.743C165.4,151.979,171.02,148.064,177.952,148.064z"/>
	<path style="fill:#A18051;" d="M175.251,161.971h0.388v0.021c0,0.121,0.037,0.214,0.113,0.277c0.075,0.063,0.186,0.095,0.33,0.095
		c0.111,0,0.197-0.023,0.258-0.069l0.091-0.196l-0.06-0.156c-0.04-0.034-0.12-0.059-0.24-0.077l-0.27-0.038
		c-0.197-0.029-0.342-0.092-0.435-0.19s-0.139-0.235-0.139-0.413c0-0.211,0.066-0.383,0.2-0.515s0.311-0.199,0.531-0.199
		c0.236,0,0.422,0.063,0.555,0.188c0.134,0.125,0.201,0.296,0.201,0.513v0.017h-0.379c-0.009-0.107-0.044-0.188-0.106-0.242
		c-0.062-0.053-0.149-0.08-0.265-0.08c-0.106,0-0.189,0.021-0.248,0.065l-0.088,0.182l0.052,0.138
		c0.034,0.029,0.119,0.054,0.254,0.076l0.281,0.042c0.195,0.03,0.338,0.096,0.43,0.198c0.092,0.102,0.138,0.246,0.138,0.431
		c0,0.239-0.069,0.42-0.206,0.545c-0.138,0.125-0.338,0.187-0.603,0.187c-0.252,0-0.445-0.065-0.581-0.196s-0.203-0.317-0.203-0.56
		V161.971z M178.361,162.193c-0.047,0.185-0.128,0.327-0.242,0.428c-0.115,0.101-0.255,0.151-0.42,0.151
		c-0.21,0-0.375-0.078-0.497-0.231c-0.122-0.154-0.184-0.364-0.184-0.628s0.062-0.473,0.183-0.626
		c0.122-0.153,0.288-0.229,0.498-0.229c0.219,0,0.387,0.079,0.505,0.238s0.177,0.386,0.177,0.679v0.068h-0.969
		c0.002,0.117,0.028,0.211,0.081,0.28l0.205,0.104l0.172-0.061l0.104-0.173H178.361z M177.423,161.708l0.567,0.001
		c-0.006-0.1-0.034-0.178-0.085-0.235l-0.198-0.085l-0.198,0.086C177.458,161.533,177.43,161.611,177.423,161.708z M179.867,162.457
		l0.014,0.144l0.041,0.078v0.036h-0.387l-0.018-0.175l-0.206,0.175c-0.076,0.038-0.165,0.057-0.266,0.057
		c-0.156,0-0.278-0.048-0.368-0.144c-0.09-0.096-0.135-0.226-0.135-0.389c0-0.152,0.041-0.265,0.121-0.34
		c0.081-0.075,0.22-0.124,0.416-0.147l0.108-0.01c0.226-0.022,0.339-0.084,0.339-0.186l-0.065-0.136l-0.195-0.045l-0.192,0.064
		c-0.041,0.043-0.063,0.11-0.063,0.201l-0.368,0.001v-0.005c0-0.188,0.056-0.333,0.166-0.432c0.109-0.099,0.269-0.148,0.478-0.148
		c0.103,0,0.193,0.014,0.272,0.043l0.198,0.127l0.086,0.165c0.017,0.066,0.025,0.167,0.025,0.301L179.867,162.457L179.867,162.457z
		 M179.525,161.942c-0.044,0.034-0.127,0.059-0.251,0.077l-0.033,0.005c-0.132,0.019-0.216,0.043-0.25,0.071l-0.053,0.131
		l0.052,0.149l0.138,0.056c0.119,0,0.215-0.04,0.289-0.121s0.111-0.185,0.111-0.314v-0.035L179.525,161.942L179.525,161.942z
		 M180.18,162.714v-2.146h0.348v2.146H180.18z"/>
	<path style="fill:#A18051;" d="M191.999,156.813l1.501,1.607l-2.145,1.288l0.603,2.49l-2.308,0.063l-0.159,2.711l-2.572-0.708
		l-0.434,2.559l-2.381-0.945l-1.241,2.256l-1.859-1.608l-1.621,2.286l-1.786-1.94l-1.951,1.812l-1.273-2.134l-2.301,1.354
		l-0.795-2.389l-2.664,1.05l-0.392-2.355l-2.383,0.149l0.356-2.398l-2.438-0.01l0.569-2.619l-1.89-1.063l1.505-1.709l-1.351-2.376
		l2.196-0.695l-0.578-2.542l2.409-0.032l0.279-2.521l2.179,0.723l0.722-2.458l2.201,1.191l0.911-2.174l1.906,1.325l1.34-2.066
		l1.801,1.8l1.592-1.646l1.395,2.075l2.18-1.401l0.864,2.29l2.19-1.037l0.563,2.389l2.596-0.462l-0.079,2.338l2.624,0.283
		l-0.743,2.259l2.285,0.979L191.999,156.813L191.999,156.813z M190.504,156.808c0-4.827-5.62-8.742-12.552-8.742
		c-6.933,0-12.552,3.915-12.552,8.742c0,4.829,5.619,8.743,12.552,8.743C184.884,165.551,190.504,161.636,190.504,156.808z"/>
	<path style="fill:#A18051;" d="M173.796,152.308c0-0.58,0.329-0.725,0.563-0.725c0.233,0,0.563,0.145,0.563,0.725
		c0,0.581-0.329,0.725-0.563,0.725C174.125,153.033,173.796,152.888,173.796,152.308z M173.364,152.308
		c0,0.972,0.721,1.09,0.995,1.09s0.995-0.118,0.995-1.09c0-0.972-0.721-1.09-0.995-1.09S173.364,151.336,173.364,152.308z
		 M176.079,153.343h-0.404v-1.244h-0.223v-0.29h0.223v-0.125c0-0.319,0.173-0.44,0.45-0.44c0.118,0,0.173,0.002,0.208,0.005v0.326
		h-0.113c-0.138,0-0.141,0.044-0.141,0.172v0.061h0.263v0.29h-0.263V153.343L176.079,153.343z M176.981,153.343h-0.403v-1.244
		h-0.223v-0.29h0.223v-0.125c0-0.319,0.173-0.44,0.45-0.44c0.118,0,0.173,0.002,0.207,0.005v0.326h-0.112
		c-0.139,0-0.142,0.044-0.142,0.172v0.061h0.263v0.29h-0.263V153.343L176.981,153.343z M177.833,151.81v1.534h-0.403v-1.534H177.833
		z M177.833,151.625h-0.403v-0.374h0.403V151.625z M179.484,152.784c-0.015,0.158-0.139,0.599-0.702,0.599
		c-0.578,0-0.711-0.441-0.711-0.763c0-0.495,0.217-0.85,0.736-0.85c0.243,0,0.642,0.11,0.679,0.588h-0.41
		c-0.017-0.101-0.081-0.259-0.269-0.248c-0.254,0-0.32,0.253-0.32,0.443c0,0.167,0.005,0.497,0.312,0.497
		c0.205,0,0.274-0.195,0.274-0.267H179.484z M180.124,151.81v1.534h-0.404v-1.534H180.124z M180.124,151.625h-0.404v-0.374h0.404
		V151.625z M181.301,152.793c0,0.185-0.182,0.3-0.36,0.3c-0.078,0-0.187-0.043-0.187-0.184c0-0.167,0.123-0.204,0.273-0.229
		c0.167-0.026,0.232-0.052,0.273-0.083V152.793z M181.695,152.214c0-0.378-0.395-0.444-0.611-0.444c-0.313,0-0.64,0.066-0.686,0.537
		h0.39c0.012-0.089,0.046-0.213,0.248-0.213c0.104,0,0.265,0.009,0.265,0.179l-0.142,0.121l-0.363,0.055
		c-0.256,0.038-0.446,0.19-0.446,0.49c0,0.315,0.236,0.445,0.468,0.445c0.272,0,0.402-0.127,0.495-0.223l0.037,0.184h0.436v-0.06
		c-0.049-0.018-0.09-0.058-0.09-0.24V152.214z M182.414,153.343h-0.403v-2.071h0.403"/>
	<path style="fill:#A18051;" d="M177.951,164.826c6.486,0,11.762-3.597,11.762-8.019c0-4.422-5.275-8.019-11.762-8.019
		c-6.485,0-11.762,3.597-11.762,8.019C166.189,161.229,171.466,164.826,177.951,164.826z M166.479,156.807
		c0-4.262,5.146-7.729,11.472-7.729c6.326,0,11.473,3.467,11.473,7.729s-5.146,7.729-11.473,7.729
		C171.626,164.536,166.479,161.069,166.479,156.807z"/>
	<path style="fill:#A18051;" d="M185.349,159.505c1.374,0,2.492-1.118,2.492-2.492s-1.118-2.492-2.492-2.492h-14.92
		c-1.374,0-2.491,1.118-2.491,2.492s1.117,2.492,2.491,2.492H185.349z M170.429,158.858c-1.017,0-1.845-0.828-1.845-1.844
		c0-1.017,0.828-1.845,1.845-1.845h14.921c1.017,0,1.844,0.828,1.844,1.845c0,1.017-0.827,1.844-1.844,1.844H170.429z"/>
	<path style="fill:#A18051;" d="M169.79,158.203v-2.346l0.733,0l0.979,1.521l0.004-1.521h0.761l-0.001,2.346h-0.76
		c-0.066-0.144-0.943-1.513-0.943-1.513v1.514L169.79,158.203z M174.418,156.635l0.083,0.077l0.204-0.116
		c0.578-0.198,0.879,0.135,0.938,0.189c0.264,0.245,0.184,0.908,0.199,1.418h-0.769c0,0,0.013-0.956,0.002-1.085
		c-0.009-0.113-0.171-0.25-0.266-0.254c-0.159-0.005-0.355,0.076-0.364,0.255c-0.018,0.365,0.006,1.083,0.006,1.083h-0.753v-1.57
		L174.418,156.635z M176.206,158.203l0.001-1.538h-0.341v-0.21l0.34,0v-0.224h0.753l-0.001,0.223l0.359,0l-0.002,0.21h-0.356v1.537
		 M177.256,157.415c-0.014-0.515,0.464-0.838,0.868-0.859c0.192-0.009,0.389-0.025,0.562,0.056c0.109,0.052,0.235,0.069,0.325,0.154
		c0.179,0.17,0.295,0.385,0.295,0.661l-1.287-0.005c0,0.202-0.112,0.664,0.24,0.671c0.135,0.003,0.211-0.021,0.261-0.137
		c0.036-0.086,0.037-0.188,0.029-0.287c0.13,0.008,0.676-0.008,0.742-0.006c-0.147,0.41-0.593,0.588-1.021,0.588
		C178.092,158.251,177.276,158.17,177.256,157.415L177.256,157.415z M178.019,157.168l0.519-0.002l-0.01-0.21
		c-0.014-0.097-0.091-0.235-0.254-0.228c-0.222,0.009-0.254,0.135-0.254,0.272L178.019,157.168z M184.258,157.749
		c-0.134-0.177-0.154-0.525-0.028-0.784c0.109-0.226,0.393-0.392,0.542-0.44c0.202-0.065,0.53-0.083,0.807-0.017
		c0.204,0.049,0.459,0.17,0.616,0.457c0.124,0.225,0.102,0.595-0.037,0.786c-0.09,0.123-0.288,0.334-0.51,0.394
		c-0.192,0.051-0.59,0.08-0.799,0.014C184.619,158.086,184.442,157.992,184.258,157.749z M185.218,158.019
		c0.213,0.001,0.262-0.165,0.266-0.269c0.009-0.239-0.005-0.535-0.005-0.786c0-0.129-0.072-0.299-0.266-0.299
		c-0.277,0-0.268,0.217-0.271,0.299c-0.006,0.138-0.006,0.607-0.004,0.785C184.94,157.809,184.969,158.018,185.218,158.019z
		 M183.893,158.203h-0.677l-0.016-0.091c-0.189,0.147-0.949,0.22-1.243-0.399c-0.026-0.055-0.103-0.457,0.008-0.704
		c0.179-0.401,0.593-0.489,0.888-0.472c0.118,0.007,0.345,0.128,0.345,0.128l0.002-0.858h0.693V158.203z M183.187,157.808
		c0.021-0.069,0.01-0.519,0.01-0.738l-0.06-0.176c-0.058-0.07-0.102-0.107-0.217-0.102c-0.147,0.005-0.232,0.136-0.239,0.219
		c-0.018,0.22-0.03,0.446,0.005,0.728l0.1,0.173C182.95,158.029,183.144,157.939,183.187,157.808L183.187,157.808z M173.358,158.203
		v-1.586h-0.776v1.586 M173.358,156.35v-0.493h-0.776v0.493 M180.293,156.623l0.082,0.077l0.205-0.116
		c0.578-0.198,0.879,0.135,0.938,0.189c0.264,0.245,0.183,0.908,0.199,1.417h-0.769c0,0,0.012-0.955,0.002-1.085
		c-0.009-0.113-0.172-0.25-0.266-0.254c-0.159-0.007-0.356,0.076-0.365,0.256c-0.017,0.365-0.01,1.095-0.01,1.095h-0.729v-1.582
		L180.293,156.623L180.293,156.623z M185.831,156.368h-0.051v-0.237h0.089l0.098,0.072l-0.058,0.062l0.061,0.104h-0.06l-0.055-0.1
		h-0.024V156.368z M185.876,156.229l0.036-0.031l-0.045-0.026h-0.036v0.057H185.876z M185.868,156.47
		c-0.117,0-0.222-0.081-0.222-0.22s0.104-0.22,0.222-0.22s0.221,0.081,0.221,0.22S185.985,156.47,185.868,156.47z M185.868,156.081
		c-0.087,0-0.157,0.068-0.157,0.169s0.07,0.169,0.157,0.169v0c0.085,0,0.157-0.068,0.157-0.169
		C186.025,156.149,185.953,156.081,185.868,156.081z"/>
	<path style="fill:#C23435;" d="M125.43,161.592h-24.589c-2.22,0-4.026-1.806-4.026-4.026c0-2.22,1.807-4.025,4.026-4.025h24.588
		c2.221,0,4.026,1.806,4.026,4.026C129.455,159.786,127.649,161.592,125.43,161.592z M100.841,154.492
		c-1.695,0-3.074,1.379-3.074,3.074s1.379,3.074,3.074,3.074h24.588c1.695,0,3.074-1.379,3.074-3.074s-1.379-3.074-3.074-3.074
		H100.841z"/>
	<path style="fill:#C23435;" d="M103.998,159.433v-3.716h-1.117v2.598l-1.648-2.598h-1.201v3.716h1.117v-2.682l1.732,2.682H103.998z
		 M105.814,159.433v-2.515h-1.117v2.515H105.814z M105.814,156.387v-0.67h-1.117v0.67H105.814z M109.727,159.433V157.7
		c0-0.363-0.699-0.866-1.063-0.866h-0.335c-0.251,0-0.531,0.224-0.782,0.335v-0.251h-1.118v2.515h1.118V157.7
		c0-0.167,0.391-0.363,0.559-0.363s0.475,0.196,0.475,0.363v1.732H109.727L109.727,159.433z M119.077,159.519v-1.732
		c0-0.363-0.698-0.866-1.063-0.866h-0.335c-0.251,0-0.53,0.224-0.782,0.335v-0.251h-1.117v2.515h1.117v-1.732
		c0-0.167,0.392-0.363,0.559-0.363c0.168,0,0.475,0.196,0.475,0.363v1.732H119.077z M111.542,159.433v-2.515h0.587v-0.335h-0.587
		v-0.531h-1.146v0.531h-0.586v0.335h0.586v2.515H111.542z M113.693,156.834c-0.894,0-1.648,0.614-1.648,1.369
		c0,0.783,0.755,1.397,1.648,1.397c0.782,0,1.425-0.447,1.593-1.034h-1.146v0.335c0,0.279-0.195,0.363-0.446,0.363
		c-0.252,0-0.42-0.084-0.42-0.363v-0.698h2.068C115.342,157.449,114.616,156.834,113.693,156.834z M113.693,157.086
		c0.252,0,0.447,0.167,0.447,0.447v0.251h-0.866v-0.251C113.274,157.253,113.442,157.086,113.693,157.086z M124.702,156.834
		c-0.922,0-1.648,0.614-1.648,1.369c0,0.783,0.727,1.397,1.648,1.397c0.894,0,1.648-0.614,1.648-1.397
		C126.351,157.449,125.596,156.834,124.702,156.834z M124.702,157.086c0.251,0,0.419,0.167,0.419,0.447v1.369
		c0,0.279-0.168,0.363-0.419,0.363c-0.279,0-0.447-0.084-0.447-0.363v-1.369C124.255,157.253,124.423,157.086,124.702,157.086z
		 M121.489,155.717v1.369c0,0-0.336-0.251-0.783-0.251c-0.698,0-1.285,0.614-1.285,1.285c0,0.698,0.587,1.397,1.285,1.397
		c0.447,0,0.783-0.167,0.783-0.167v0.083h1.117v-3.716H121.489z M121.069,157.253c0.252,0,0.42,0.196,0.42,0.447v1.034
		c0,0.251-0.168,0.335-0.42,0.335c-0.279,0-0.446-0.083-0.446-0.335v-1.034C120.623,157.449,120.79,157.253,121.069,157.253z
		 M126.49,156.879c-0.317,0-0.576-0.258-0.576-0.576c0-0.338,0.253-0.603,0.576-0.603c0.312,0,0.575,0.276,0.575,0.603
		C127.065,156.61,126.797,156.879,126.49,156.879z M126.49,155.79c-0.277,0-0.486,0.221-0.486,0.514
		c0,0.268,0.218,0.486,0.486,0.486c0.255,0,0.486-0.232,0.486-0.486C126.977,156.029,126.749,155.79,126.49,155.79z
		 M126.591,156.549l-0.099-0.173h-0.125v0.151h-0.089v-0.52h0.24c0.112,0,0.17,0.093,0.17,0.184l-0.101,0.171l0.081,0.143
		L126.591,156.549L126.591,156.549z M126.367,156.287h0.151l0.059-0.027l0.021-0.068l-0.08-0.095h-0.151V156.287z M99.612,164.881
		v-1.621c0-0.307-0.308-0.615-0.615-0.615H96.65v2.235h0.727v-1.509c0-0.112,0.084-0.224,0.195-0.224h1.117
		c0.112,0,0.224,0.112,0.224,0.224v1.509H99.612z M119,164.881v-1.621c0-0.307-0.308-0.615-0.614-0.615h-2.348v2.235h0.727v-1.509
		c0-0.112,0.084-0.224,0.195-0.224h1.118c0.112,0,0.224,0.112,0.224,0.224v1.509H119z M129.612,164.881v-1.621
		c0-0.307-0.307-0.615-0.614-0.615h-2.348v2.235h0.727v-1.509c0-0.112,0.084-0.224,0.196-0.224h1.117
		c0.111,0,0.223,0.112,0.223,0.224v1.509H129.612z M123.277,164.881v-1.621c0-0.307-0.308-0.615-0.615-0.615h-3.157v2.235h0.727
		v-1.509c0-0.112,0.084-0.224,0.195-0.224h0.419c0.084,0,0.196,0.112,0.196,0.224v1.509h0.727v-1.509
		c0-0.112,0.083-0.224,0.195-0.224h0.419c0.084,0,0.195,0.112,0.195,0.224v1.509H123.277z M96.147,164.881h-1.844
		c-0.308,0-0.615-0.196-0.615-0.503v-1.76h2.459v0.531h-1.648c-0.084,0-0.195,0.084-0.195,0.196s0.111,0.195,0.195,0.195h1.536
		v0.447h-1.536l-0.195,0.195c0,0.112,0.111,0.224,0.195,0.224h1.648V164.881z M105.229,164.909h-1.845
		c-0.307,0-0.614-0.196-0.614-0.503v-1.76h2.459v0.531h-1.648c-0.084,0-0.196,0.084-0.196,0.196c0,0.112,0.112,0.196,0.196,0.196
		h1.536v0.447h-1.536l-0.196,0.196c0,0.112,0.112,0.223,0.196,0.223h1.648V164.909z M126.25,164.881h-1.844
		c-0.308,0-0.615-0.196-0.615-0.503v-1.76h2.459v0.531h-1.648c-0.084,0-0.196,0.084-0.196,0.196s0.112,0.195,0.196,0.195h1.536
		v0.447h-1.536l-0.196,0.195c0,0.112,0.112,0.224,0.196,0.224h1.648V164.881z M99.919,162.646v0.503h0.727
		c0.195,0,0.195,0,0.195,0.224v1.509h0.699v-1.509c0-0.224,0-0.224,0.224-0.224h0.698v-0.503H99.919z M108.797,162.646v0.503h0.727
		c0.195,0,0.195,0,0.195,0.224v1.509h0.698v-1.509c0-0.224,0-0.224,0.225-0.224h0.698v-0.503H108.797z M130.021,162.646v0.503h0.727
		c0.196,0,0.196,0,0.196,0.224v1.509h0.698v-1.509c0-0.224,0-0.224,0.223-0.224h0.699v-0.503H130.021z M105.73,162.646v2.235h0.727
		v-0.391c0-0.112,0.084-0.224,0.195-0.224h0.923c0.111,0,0.195,0.112,0.195,0.224v0.391h0.614v-0.615
		c0-0.083-0.083-0.195-0.083-0.307c0-0.083,0.195-0.279,0.195-0.502v-0.196c0-0.196-0.308-0.615-0.503-0.615L105.73,162.646z
		 M106.652,163.148h0.923c0.111,0,0.195,0.112,0.195,0.224v0.196c0,0.112-0.084,0.195-0.195,0.195h-0.923
		c-0.111,0-0.195-0.083-0.195-0.195v-0.196C106.457,163.261,106.541,163.148,106.652,163.148z M112.157,162.646
		c-0.196,0-0.503,0.419-0.503,0.615v1.62h0.726v-0.615h1.313v0.615h0.727v-1.62c0-0.196-0.308-0.615-0.531-0.615H112.157z
		 M112.576,163.148h0.922c0.083,0,0.195,0.112,0.195,0.224v0.391h-1.313v-0.391C112.38,163.261,112.464,163.148,112.576,163.148z
		 M115.621,164.881v-2.235h-0.698v2.235H115.621z M122.359,167.942v-1.621c0-0.307-0.308-0.615-0.615-0.615h-3.157v2.235h0.727
		v-1.509c0-0.112,0.083-0.224,0.195-0.224h0.419c0.084,0,0.196,0.112,0.196,0.224v1.509h0.726v-1.509
		c0-0.112,0.084-0.224,0.195-0.224h0.419c0.084,0,0.196,0.112,0.196,0.224v1.509H122.359L122.359,167.942z M118.087,167.942h-1.845
		c-0.307,0-0.614-0.196-0.614-0.502v-1.76h2.459v0.531h-1.648c-0.084,0-0.196,0.084-0.196,0.195c0,0.112,0.112,0.196,0.196,0.196
		h1.536v0.447h-1.536l-0.196,0.196c0,0.112,0.112,0.223,0.196,0.223h1.648V167.942z M112.776,165.707v0.503h0.727
		c0.195,0,0.195,0,0.195,0.224v1.508h0.698v-1.508c0-0.224,0-0.224,0.225-0.224h0.698v-0.503H112.776z M104.502,165.719
		c-0.196,0-0.615,0.308-0.615,0.503v0.307c0,0.196,0.419,0.503,0.615,0.503h1.229c0.112,0,0.224,0.112,0.224,0.196
		c0,0.112-0.111,0.223-0.224,0.223h-1.844v0.503h2.067c0.196,0,0.587-0.307,0.587-0.503v-0.307c0-0.224-0.391-0.531-0.587-0.531
		h-1.229c-0.111,0-0.223-0.084-0.223-0.196s0.111-0.196,0.223-0.196h1.816v-0.502H104.502z M110.42,165.719
		c-0.195,0-0.614,0.308-0.614,0.503v0.307c0,0.196,0.419,0.503,0.614,0.503h1.229c0.111,0,0.224,0.112,0.224,0.196
		c0,0.112-0.112,0.223-0.224,0.223h-1.844v0.503h2.067c0.195,0,0.587-0.307,0.587-0.503v-0.307c0-0.224-0.392-0.531-0.587-0.531
		h-1.229c-0.112,0-0.224-0.084-0.224-0.196s0.112-0.196,0.224-0.196h1.816v-0.502H110.42z M106.765,165.719v1.006
		c0,0.195,0.308,0.503,0.503,0.503h0.503v0.726h0.727v-0.726h0.502c0.196,0,0.503-0.308,0.503-0.503v-1.006h-0.698v0.811
		c0,0.084-0.111,0.196-0.224,0.196h-0.894c-0.112,0-0.224-0.112-0.224-0.196v-0.811H106.765z"/>
</g>
</svg>
