<?xml version="1.0" encoding="utf-8"?>
<!-- Generator: Adobe Illustrator 22.0.0, SVG Export Plug-In . SVG Version: 6.00 Build 0)  -->
<svg version="1.1" id="Capa_1" xmlns="http://www.w3.org/2000/svg" xmlns:xlink="http://www.w3.org/1999/xlink" x="0px" y="0px"
	 viewBox="0 0 859.907 131.676" style="enable-background:new 0 0 859.907 131.676;" xml:space="preserve">
<g>
	<path style="fill:#C12C2D;" d="M68.137,63.819V0H48.94v44.625L20.633,0H0v63.819h19.195V17.757l29.744,46.063H68.137z
		 M99.328,63.819V20.634H80.134v43.188L99.328,63.819z M99.328,11.519V0H80.134v11.519H99.328z M166.507,63.819V34.072
		c0-6.239-11.995-14.876-18.233-14.876h-5.759c-4.316,0-9.116,3.836-13.434,5.756v-4.318h-19.195v43.188h19.193V34.072
		c0-2.88,6.719-6.239,9.6-6.239c2.877,0,8.156,3.357,8.156,6.239v29.749L166.507,63.819z M325.82,63.821v-29.75
		c0-6.235-11.994-14.875-18.238-14.875h-5.757c-4.318,0-9.114,3.837-13.436,5.756v-4.318h-19.193v43.188h19.193v-29.75
		c0-2.878,6.723-6.235,9.594-6.235c2.876,0,8.162,3.357,8.162,6.235v29.75H325.82z M197.693,63.819V20.634h10.081v-5.759h-10.08
		V5.759h-19.668v9.116h-10.081v5.759h10.081v43.188L197.693,63.819z M234.645,19.194c-15.353,0-28.308,10.556-28.308,23.51
		c0,13.439,12.957,23.993,28.308,23.993c13.435,0,24.474-7.679,27.353-17.751h-19.675v5.756c0,4.798-3.356,6.237-7.679,6.237
		c-4.321,0-7.196-1.439-7.196-6.237V42.706h35.511C262.96,29.751,250.479,19.194,234.645,19.194z M234.645,23.515
		c4.323,0,7.68,2.879,7.68,7.678v4.319H227.45V31.19C227.448,26.394,230.324,23.515,234.645,23.515z M423.71,19.194
		c-15.839,0-28.313,10.556-28.313,23.51c0,13.439,12.474,23.993,28.313,23.993c15.347,0,28.308-10.554,28.308-23.993
		C452.018,29.751,439.057,19.194,423.71,19.194z M423.71,23.515c4.316,0,7.198,2.879,7.198,7.678v23.515
		c0,4.798-2.882,6.236-7.198,6.236c-4.8,0-7.68-1.438-7.68-6.236V31.189C416.032,26.394,418.911,23.515,423.71,23.515z M368.528,0
		v23.513c0,0-5.765-4.318-13.439-4.318c-11.996,0-22.074,10.556-22.074,22.071c0,11.997,10.078,23.993,22.074,23.993
		c7.678,0,13.439-2.879,13.439-2.879v1.439h19.189V0H368.528z M361.325,26.394c4.32,0,7.203,3.357,7.203,7.679v17.754
		c0,4.321-2.883,5.757-7.203,5.757c-4.799,0-7.679-1.437-7.679-5.757V34.072C353.648,29.751,356.526,26.394,361.325,26.394z
		 M454.413,19.438c-5.155,0-9.353-4.198-9.353-9.36c0-5.517,4.109-9.838,9.353-9.838c5.077,0,9.364,4.507,9.364,9.838
		C463.777,14.977,459.315,19.438,454.413,19.438z M454.413,0.725c-4.972,0-8.867,4.107-8.867,9.354c0,4.895,3.978,8.876,8.867,8.876
		c4.646,0,8.879-4.23,8.879-8.876C463.293,5.008,459.225,0.725,454.413,0.725z M456.604,14.037l-1.846-3.236h-2.979v3.117h-0.484
		V5.517h3.604c1.575,0,2.399,1.328,2.399,2.642c0,1.198-0.685,2.407-1.999,2.612l1.726,3.025L456.604,14.037z M451.78,10.316h3.12
		c1.314,0,1.915-1.117,1.915-2.158c0-1.04-0.601-2.158-1.915-2.158h-3.12V10.316z"/>
	<path style="fill:#070308;" d="M86.256,131.589v-23.598c0-4.473-4.478-8.949-8.955-8.949H43.128v32.549H53.71v-21.968
		c0-1.629,1.215-3.258,2.844-3.258h16.273c1.629,0,3.258,1.629,3.258,3.258v21.966H86.256z M369.386,131.589v-23.598
		c0-4.473-4.473-8.949-8.944-8.949h-34.177v32.549h10.576v-21.968c0-1.629,1.226-3.258,2.844-3.258h16.273
		c1.628,0,3.257,1.629,3.257,3.258v21.966H369.386L369.386,131.589z M523.092,131.589v-23.598c0-4.473-4.473-8.949-8.946-8.949
		h-34.177v32.549h10.578v-21.968c0-1.629,1.224-3.258,2.853-3.258h16.273c1.628,0,3.252,1.629,3.252,3.258v21.966H523.092z
		 M430.837,131.589v-23.598c0-4.473-4.475-8.949-8.947-8.949h-45.976v32.549h10.584v-21.968c0-1.629,1.219-3.258,2.845-3.258h6.102
		c1.226,0,2.846,1.629,2.846,3.258v21.966h10.586v-21.966c0-1.629,1.216-3.258,2.845-3.258h6.101c1.225,0,2.844,1.629,2.844,3.258
		v21.966H430.837z M35.805,131.589H8.957c-4.478,0-8.957-2.85-8.957-7.322V98.636h35.803v7.729H11.802
		c-1.221,0-2.844,1.224-2.844,2.85s1.623,2.848,2.844,2.848h22.375v6.508H11.802c-1.221,0-2.844,1.63-2.844,2.851
		c0,1.626,1.623,3.253,2.844,3.253h24.003V131.589z M168.047,131.589H141.19c-4.473,0-8.946-2.85-8.946-7.322V98.636h35.802v7.729
		h-24.006c-1.219,0-2.848,1.224-2.848,2.85s1.629,2.848,2.848,2.848h22.375v6.508h-22.375c-1.219,0-2.848,1.63-2.848,2.851
		c0,1.626,1.629,3.253,2.848,3.253h24.005v6.915H168.047z M474.135,131.589h-26.857c-4.473,0-8.946-2.85-8.946-7.322V98.636h35.804
		v7.729H450.13c-1.224,0-2.853,1.224-2.853,2.85s1.629,2.848,2.853,2.848h22.376v6.508H450.13c-1.224,0-2.853,1.63-2.853,2.851
		c0,1.626,1.629,3.253,2.853,3.253h24.005V131.589z M90.728,99.041v7.319h10.578c2.848,0,2.848,0,2.848,3.259v21.966h10.172v-21.963
		c0-3.259,0-3.259,3.255-3.259h10.171v-7.319H90.728V99.041z M219.998,99.041v7.319h10.577c2.844,0,2.844,0,2.844,3.259v21.966
		h10.171v-21.963c0-3.259,0-3.259,3.259-3.259h10.171v-7.319h-37.021V99.041z M529.058,99.041v7.319h10.578
		c2.844,0,2.844,0,2.844,3.259v21.966h10.17v-21.963c0-3.259,0-3.259,3.256-3.259h10.172v-7.319h-37.02V99.041z M175.349,99.041
		v32.548h10.581v-5.693c0-1.629,1.216-3.259,2.844-3.259H202.2c1.629,0,2.844,1.63,2.844,3.259v5.693h8.955v-8.952
		c0-1.221-1.224-2.844-1.224-4.473c0-1.221,2.844-4.067,2.844-7.323v-2.85c0-2.847-4.473-8.949-7.318-8.949L175.349,99.041
		L175.349,99.041z M188.773,106.36H202.2c1.629,0,2.844,1.629,2.844,3.259v2.844c0,1.629-1.215,2.85-2.844,2.85h-13.426
		c-1.629,0-2.844-1.221-2.844-2.85v-2.844C185.93,107.991,187.145,106.36,188.773,106.36z M268.921,99.041
		c-2.853,0-7.326,6.102-7.326,8.948v23.6h10.577v-8.952h19.126v8.952h10.576v-23.598c0-2.847-4.471-8.949-7.73-8.949L268.921,99.041
		L268.921,99.041z M275.027,106.36h13.42c1.225,0,2.854,1.629,2.854,3.259v5.693h-19.127v-5.693
		C272.172,107.991,273.396,106.36,275.027,106.36z M319.371,131.589V99.041H309.2v32.548H319.371z M859.907,131.501v-23.597
		c0-4.473-4.482-8.948-8.955-8.948h-45.97v32.545h10.577v-21.967c0-1.63,1.218-3.259,2.844-3.259h6.102
		c1.225,0,2.854,1.629,2.854,3.259V131.5h10.576v-21.966c0-1.63,1.218-3.259,2.847-3.259h6.103c1.224,0,2.85,1.629,2.85,3.259V131.5
		L859.907,131.501L859.907,131.501z M797.699,131.501h-26.852c-4.473,0-8.946-2.85-8.946-7.322v-25.63h35.8v7.727h-24.008
		c-1.215,0-2.844,1.225-2.844,2.851c0,1.629,1.629,2.847,2.844,2.847h22.375v6.509h-22.375c-1.215,0-2.844,1.629-2.844,2.85
		c0,1.629,1.629,3.255,2.844,3.255h24.004v6.915H797.699z M720.381,98.953v7.322h10.579c2.844,0,2.844,0,2.844,3.259v21.963h10.17
		v-21.963c0-3.259,0-3.259,3.259-3.259h10.17v-7.321L720.381,98.953L720.381,98.953z M599.88,99.13c-2.844,0-8.945,4.477-8.945,7.32
		v4.479c0,2.847,6.102,7.319,8.945,7.319h17.902c1.63,0,3.251,1.629,3.251,2.851c0,1.622-1.618,3.253-3.251,3.253h-26.848v7.323
		h30.099c2.854,0,8.553-4.473,8.553-7.323v-4.473c0-3.255-5.698-7.729-8.553-7.729H603.14c-1.627,0-3.257-1.221-3.257-2.851
		c0-1.626,1.63-2.85,3.257-2.85h26.446v-7.32H599.88z M686.064,99.13c-2.854,0-8.953,4.477-8.953,7.32v4.479
		c0,2.847,6.1,7.319,8.953,7.319h17.902c1.62,0,3.251,1.629,3.251,2.851c0,1.622-1.626,3.253-3.251,3.253h-26.857v7.323h30.108
		c2.853,0,8.54-4.473,8.54-7.323v-4.473c0-3.255-5.688-7.729-8.54-7.729h-17.903c-1.619,0-3.253-1.221-3.253-2.851
		c0-1.626,1.629-2.85,3.253-2.85h26.443v-7.32H686.064z M632.833,99.13v14.646c0,2.847,4.473,7.323,7.326,7.323h7.316v10.576h10.586
		V121.1h7.318c2.854,0,7.326-4.477,7.326-7.323V99.13h-10.17v11.8c0,1.221-1.631,2.847-3.257,2.847h-13.015
		c-1.63,0-3.259-1.626-3.259-2.847v-11.8H632.833z"/>
</g>
</svg>
