<svg enable-background="new 0 0 516.67 254.265" viewBox="0 0 516.67 254.265" xmlns="http://www.w3.org/2000/svg" xmlns:xlink="http://www.w3.org/1999/xlink"><clipPath id="a"><path d="m430.37 125.594h41.168v41.169h-41.168z"/></clipPath><clipPath id="b"><path d="m363.662 179.565h42.047v42.047h-42.047z"/></clipPath><clipPath id="c"><path d="m259.868 207.42h42.89v42.89h-42.89z"/></clipPath><clipPath id="d"><path d="m288.951 3.788h42.678v42.679h-42.678z"/></clipPath><path d="m235.147 203.552c45.704-.462 75.846 4.417 99.096 21.167 18.935 13.641 39.395 30.17 67.75 29.5 5.105-.121 17.511-.694 30.663-8.045 6.882-3.847 13.765-9.7 20.17-18.788 44.167-62.667-8.846-123.648-13.013-129.479-64.177-89.792-158.57-91.347-204.666-91.331-46.096-.016-140.489 1.539-204.666 91.33-4.167 5.83-57.18 66.812-13.013 129.479 6.405 9.088 13.288 14.941 20.17 18.788 13.152 7.352 25.559 7.925 30.663 8.045 28.355.67 48.815-15.859 67.75-29.5 23.25-16.75 53.392-21.629 99.096-21.166z" fill="#1b1d1f"/><path d="m317.767 14.952c-32.454-8.083-62.252-8.383-82.62-8.376-20.368-.007-50.166.293-82.62 8.376l.001.002c4.086 9.577 6.212 13.996 10.274 18.431.928 1.013 3.506.857 6.5.167 20.647-6.859 51.016-6.977 65.846-6.976 14.83-.001 45.199.118 65.846 6.976 2.994.69 5.572.847 6.5-.167 4.062-4.435 6.188-8.855 10.274-18.431" fill="#111"/><ellipse cx="346.951" cy="130.475" fill="#111" rx="73.344" ry="94.698" transform="matrix(.5623 -.8269 .8269 .5623 43.97 344.0196)"/><ellipse cx="341.636" cy="128.685" fill="#090909" rx="59.909" ry="74.877" transform="matrix(.5623 -.8269 .8269 .5623 43.1244 338.8411)"/><circle cx="294.06" cy="114.91" fill="#6a6a6d" r="14.5"/><circle cx="332.267" cy="98.52" fill="#6a6a6d" r="14.5"/><circle cx="371.925" cy="85.91" fill="#6a6a6d" r="14.5"/><circle cx="309.18" cy="160.505" fill="#262626" r="19"/><circle cx="355.096" cy="141.131" fill="#262626" r="19"/><circle cx="401.014" cy="124.759" fill="#262626" r="19"/><ellipse cx="116.592" cy="124.254" fill="#191818" rx="84.953" ry="69.286" transform="matrix(.8269 -.5623 .5623 .8269 -49.6892 87.061)"/><ellipse cx="118.467" cy="119.936" fill="#0f0f0f" rx="63.708" ry="54.784" transform="matrix(.8269 -.5623 .5623 .8269 -46.9368 87.3678)"/><circle cx="119.218" cy="117.724" r="47.5"/><circle cx="119.218" cy="117.724" fill="#373737" r="41.75"/><path d="m95.782 92.905 3.329 6.937 3.623-3.615z" fill="#1f1f1f"/><path d="m95.782 141.181 6.952-3.322-3.623-3.615z" fill="#1f1f1f"/><path d="m144.024 141.433-3.33-6.937-3.623 3.615z" fill="#1f1f1f"/><path d="m144.53 93.23-6.953 3.322 3.623 3.614z" fill="#1f1f1f"/><path d="m160.968 117.724c-.002 2.02-.012 4.044-.076 6.054-.095 3.058-1.685 4.436-4.798 4.664-4.027.294-8.092.674-12.014 1.567-6.797 1.539-11.119 5.965-12.632 12.737-.828 3.685-1.209 7.484-1.533 11.246-.352 4.094-1.219 5.252-5.217 5.385-1.824.064-3.652.095-5.481.097-1.829-.002-3.657-.033-5.481-.097-3.998-.133-4.864-1.292-5.217-5.385-.324-3.761-.704-7.561-1.533-11.246-1.514-6.772-5.835-11.198-12.632-12.737-3.922-.893-7.987-1.273-12.014-1.567-3.113-.228-4.703-1.605-4.798-4.664-.064-2.01-.074-4.034-.076-6.054.002-2.02.012-4.044.076-6.054.095-3.058 1.685-4.436 4.798-4.664 4.027-.294 8.092-.674 12.014-1.567 6.797-1.539 11.119-5.965 12.632-12.737.828-3.685 1.209-7.484 1.533-11.246.352-4.094 1.219-5.252 5.217-5.385 1.824-.064 3.652-.095 5.481-.097 1.829.002 3.657.033 5.481.097 3.998.133 4.864 1.292 5.217 5.385.324 3.761.704 7.561 1.533 11.246 1.514 6.772 5.835 11.198 12.632 12.737 3.922.893 7.987 1.273 12.014 1.567 3.113.228 4.703 1.605 4.798 4.664.064 2.01.074 4.033.076 6.054z" fill="#181818"/><path d="m103.956 126.266h-24.335v-17.811h24.335l6.356-5.904v-24.335h17.811v24.335l6.489 6.368h24.335v17.811h-24.335l-6.356 5.903v24.335h-17.811v-24.335z" fill="#2c2c2c"/><path d="m127.99 117.719c0 4.835-3.922 8.757-8.767 8.757s-8.777-3.923-8.777-8.757c0-4.835 3.932-8.748 8.777-8.748s8.767 3.913 8.767 8.748z" fill="#242424"/><path d="m119.218 126.476c-3.343 0-6.246-1.867-7.725-4.612v-.017c1.485-2.674 4.382-4.487 7.716-4.487h-.005c3.334 0 6.231 1.813 7.716 4.487v.017c-1.479 2.745-4.382 4.612-7.725 4.612" fill="#404040"/><path d="m362.096 138.354c.851-.438 1.23-.939 1.166-1.508l-.148-.476c-.343-.917-1.904-.864-4.66.143l-12.455 4.552.311.911 1.37 3.662.369.907 12.455-4.552c2.756-1.007 3.975-1.977 3.634-2.888l-.201-.456c-.29-.378-.895-.48-1.841-.295zm-1.748 2.665-1.614.59-8.679 3.16-.513-1.373 8.78-3.209 1.513-.541c1.05-.384 1.66-.348 1.829.103.172.461-.266.886-1.316 1.27zm-.86-2.299-10.289 3.76-.513-1.372 10.289-3.76c1.05-.384 1.662-.343 1.835.118.17.455-.272.87-1.322 1.254z" fill="#141415"/><circle cx="357.796" cy="151.72" fill="#191818" r="1.069"/><path d="m317.499 158.945-2.188.808-2.589-.846-8.299 3.063-1.277 2.273-2.284.843 4.53-7.973 3.222-1.189zm-5.979-.595-3.499-1.223-1.412.521-1.601 3.105z" fill="#141415"/><path d="m403.751 122.099-6 2.111c-4.02 1.407-3.452 1.894-3.024 3.114s.284 1.953 4.293.546l10.609-3.723.321.915-10.594 3.723c-5.606 1.97-6.366 1.214-7.008-.616s-.544-2.898 5.019-4.857l10.657-3.74.318.907z" fill="#141415"/><path d="m300.315 116.464-3.253-.51c-1.311-.17-2.139-.29-2.943-.44l-.062.023c-.457.609-.924 1.188-1.81 2.181l-2.011 2.415-3.15 1.147 5.244-5.785-7.454-1.072 3.182-1.158 3.381.565c.948.156 1.672.278 2.37.433l.094-.034c.453-.619.875-1.125 1.506-1.844l2.321-2.641 3.15-1.147-5.26 5.643 7.879 1.065z" fill="#484849"/><path d="m331.907 102.482-1.045-2.87-8.128-1.452 3.119-1.135 3.672.777c1.005.214 1.785.397 2.619.628l.063-.023c.438-.659 1.001-1.365 1.634-2.175l2.376-2.979 3.118-1.135-5.705 6.476 1.048 2.881z" fill="#484849"/><path d="m365.22 91.601 9.784-9.779-.011-.029-10.774 3.922-.267-.733 14.334-5.217.194.532-9.728 9.735.011.03 11.876-4.322.267.732-15.499 5.641z" fill="#484849"/><path d="m215.603 131.682c-.429 0-.801-.069-1.118-.213-.319-.144-.585-.345-.801-.603-.212-.253-.375-.563-.487-.919s-.172-.747-.183-1.172h1.083c.018.276.069.511.154.712s.192.368.324.5.281.23.449.293c.17.063.35.092.542.092.181-.006.346-.029.493-.075.15-.046.279-.115.384-.201.107-.086.188-.19.246-.316s.087-.264.087-.419c0-.161-.027-.293-.083-.408-.058-.109-.147-.207-.275-.299-.125-.086-.29-.167-.493-.241-.205-.069-.455-.144-.755-.218-.342-.098-.634-.213-.882-.345-.246-.126-.449-.281-.607-.46-.156-.178-.275-.385-.35-.615-.076-.23-.114-.494-.112-.798 0-.322.051-.62.156-.89.107-.276.254-.511.446-.707.194-.195.424-.35.69-.465.268-.109.565-.167.893-.167.342 0 .652.057.933.178s.525.293.73.517c.203.224.364.5.48.827.116.322.179.695.185 1.103h-1.069c-.076-.873-.487-1.31-1.228-1.31-.362 0-.638.08-.83.236-.19.161-.286.373-.286.649 0 .109.02.207.06.293.042.08.109.155.201.224s.21.132.355.19c.143.057.317.115.522.172.179.046.359.092.547.149s.371.126.551.213c.179.08.348.178.507.293.158.115.297.258.417.425s.217.362.284.586c.069.224.105.483.105.787 0 .356-.058.678-.17.971-.114.293-.27.546-.471.758-.201.213-.44.373-.719.494-.275.121-.579.179-.905.179z" fill="#d5d5d5"/><path d="m223.403 125.185h-1.855l-.007 6.37h-1.116l.007-6.365h-1.848l.002-1.327h4.817z" fill="#d5d5d5"/><path d="m229.379 131.55h-1.241l-.652-2.2h-2.087l-.623 2.2-1.179.006 2.297-7.697h1.063zm-2.237-3.424-.721-2.43-.685 2.436z" fill="#d5d5d5"/><path d="m235.192 131.544h-1.199l-.567-2.097c-.042-.144-.098-.276-.165-.396-.069-.121-.147-.23-.239-.316-.089-.086-.19-.155-.299-.207-.112-.046-.225-.075-.35-.075h-1.194l-.002 3.09h-1.114l.007-7.692h2.674c.159 0 .31.006.455.011s.281.029.415.063c.132.04.259.092.382.161.121.069.237.161.346.287.098.103.183.224.257.362.074.132.132.27.181.419s.085.304.109.465c.027.161.038.322.038.477 0 .471-.089.873-.266 1.212-.174.333-.417.592-.728.77.254.253.462.649.621 1.189zm-4.012-4.412h1.482c.199-.006.368-.023.511-.057s.259-.092.35-.172c.089-.08.156-.19.199-.322s.063-.293.063-.483c.002-.339-.08-.592-.246-.753-.165-.155-.42-.236-.763-.236h-1.596z" fill="#d5d5d5"/><path d="m240.614 125.168h-1.855l-.007 6.37h-1.116l.007-6.365h-1.848l.002-1.327h4.817z" fill="#d5d5d5"/><circle cx="329.733" cy="107.857" fill="#484849" r="1.069"/><circle cx="339.659" cy="104.595" fill="#484849" r="1.069"/><path d="m252.918 72.522c-2.537 0-5.08 0-7.71 0 0-.64 0-1.225 0-1.993h5.285c-.384-1.285-.702-2.33-1.01-3.38-.767-2.616-1.483-5.254-2.325-7.837-.204-.626-.754-1.4-1.257-1.529-.847-.218-1.122.754-1.357 1.558-1.172 4.008-2.378 8.004-3.513 12.027-.266.945-.656 1.264-1.516 1.238-2.365-.071-4.734-.006-7.1-.03-2.398-.024-3.966-1.758-4.018-4.502-.047-2.471-.051-4.946.001-7.417.058-2.787 1.576-4.483 3.999-4.521 2.133-.034 4.267-.007 6.476-.007v2.099c-1.834 0-3.657 0-5.48 0-2.572-.001-3.162.686-3.163 3.683 0 1.865-.008 3.731.002 5.596.01 1.995.833 2.968 2.531 2.988 1.379.016 2.758.003 4.208.003 0-2.215 0-4.273 0-6.506-1.173 0-2.313 0-3.51 0 0-.761 0-1.347 0-2.024h5.469v8.572c.1.013.199.026.299.039 1.157-3.941 2.316-7.881 3.47-11.823.66-2.253 1.874-3.169 3.833-2.837 1.09.185 1.897.888 2.254 2.081 1.417 4.732 2.791 9.482 4.176 14.227.021.07-.023.166-.044.295z" fill="#d5d5d5"/><path d="m204.598 72.566c0-.727 0-1.316 0-2.075 2.057 0 4.074.025 6.091-.008 1.688-.027 2.949-1.381 3.01-3.153.059-1.732-1.189-3.215-2.848-3.343-.674-.052-1.357.02-2.027-.06-1.031-.123-1.784-1.198-1.783-2.441.001-1.26.745-2.385 1.786-2.419 2.206-.071 4.414-.022 6.68-.022v2.053c-1.128 0-2.242 0-3.356 0-1.043 0-2.086 0-3.129 0-.002.23-.004.46-.006.69.618.03 1.236.073 1.855.089 2.331.059 4.015 1.561 4.597 4.112.71 3.114-1.312 6.428-4.097 6.556-2.21.102-4.425.021-6.773.021z" fill="#d5d5d5"/><path d="m204.579 69.677c0-.745 0-1.302 0-2.143h6.508c.001-.201.001-.402.002-.602-.664-.03-1.327-.074-1.991-.086-1.863-.036-3.249-1.021-4.066-2.918-.832-1.931-.704-3.866.392-5.641.752-1.218 1.79-2.043 3.098-2.09 2.286-.081 4.576-.023 6.954-.023v2.056c-2.054 0-4.109-.038-6.163.011-2.04.049-3.363 2.153-2.747 4.273.371 1.276 1.428 2.131 2.784 2.22.637.042 1.281-.011 1.914.061 1.028.116 1.807 1.187 1.819 2.412s-.766 2.418-1.77 2.45c-2.206.067-4.416.02-6.734.02z" fill="#d5d5d5"/><path d="m227.446 56.2v2.028c-2.034 0-4.048-.002-6.063 0-2.118.002-2.856.83-2.87 3.253-.011 1.95-.005 3.901.009 5.851.015 2.252.797 3.158 2.718 3.164 2.019.006 4.039.001 6.135.001v2.082c-1.507 0-2.991.003-4.475-.001-.938-.003-1.88.034-2.814-.039-1.722-.134-3.288-1.915-3.333-3.905-.064-2.858-.059-5.721-.001-8.58.038-1.831 1.437-3.715 3.02-3.814 2.533-.155 5.079-.04 7.674-.04z" fill="#d5d5d5"/><path d="m241.32 72.476c1.308-4.467 2.58-8.837 3.882-13.195.092-.309.38-.637.642-.741.143-.057.545.284.62.531 1.062 3.493 2.089 7.001 3.153 10.604-1.543 0-2.955 0-4.417 0-.049-.518-.093-.979-.137-1.44-.063-.025-.126-.051-.19-.076-.252.809-.51 1.615-.754 2.426-.647 2.153-.644 2.154-2.799 1.891zm3.775-5.16h1.549c-.241-.826-.446-1.527-.65-2.228-.089.006-.178.012-.267.019-.193.678-.387 1.355-.632 2.209z" fill="#d5d5d5"/><path d="m234.754 67.106c-.565-.183-.901-.291-1.303-.421 0-.567 0-1.157 0-1.843h2.864v4.828c-1.465 0-2.921.092-4.358-.063-.373-.04-.961-.836-.979-1.308-.098-2.598-.069-5.203-.042-7.806.01-.913.493-1.447 1.29-1.456 2.176-.023 4.352-.008 6.625-.008v2.063c-1.637 0-3.243.051-4.845-.019-.983-.043-1.362.354-1.3 1.5.066 1.21.004 2.429.018 3.643.017 1.45.623 1.799 2.03.89z" fill="#d5d5d5"/><path d="m221.168 67.456c2.021.417 4.116-.02 6.212.242v1.968c-2.397 0-4.748.064-7.091-.066-.374-.021-.934-.865-1.019-1.409-.163-1.044-.047-2.147-.047-3.336h6.67v1.946c-1.555 0-3.109 0-4.663 0-.02.219-.041.437-.062.655z" fill="#d5d5d5"/><path d="m227.446 59.049v1.955c-2.08.327-4.213-.209-6.257.29.007.179.014.358.021.538h4.686v2.043c-2.17 0-4.331 0-6.653 0 0-1.198-.093-2.449.05-3.663.051-.434.663-1.096 1.036-1.112 2.352-.101 4.709-.051 7.117-.051z" fill="#d5d5d5"/><path d="m243.676 121.656h-35.312c-3.713 0-6.75-3.038-6.75-6.75v-4.812c0-3.713 3.038-6.75 6.75-6.75h35.312c3.713 0 6.75 3.038 6.75 6.75v4.812c0 3.712-3.037 6.75-6.75 6.75z" fill="#191818"/><path d="m241.319 116.769h-31.488c-1.715 0-3.119-1.404-3.119-3.119v-2.223c0-1.715 1.404-3.119 3.119-3.119h31.488c1.715 0 3.119 1.404 3.119 3.119v2.223c0 1.715-1.404 3.119-3.119 3.119z" fill="#b7b7b7"/><path d="m511.321 122.331h-79.474c-2.337 0-4.232 1.895-4.232 4.232v38.784c0 2.337 1.894 4.232 4.232 4.232h79.474c2.337 0 4.231-1.895 4.231-4.232v-38.784c0-2.338-1.894-4.232-4.231-4.232" fill="#f4f4f4"/><path d="m431.847 122.331v1.118h79.474c1.719.003 3.11 1.395 3.113 3.114v38.784c-.003 1.72-1.394 3.111-3.113 3.114h-79.474c-1.719-.003-3.11-1.395-3.114-3.114v-38.784c.003-1.72 1.394-3.111 3.114-3.114v-1.118-1.118c-2.955.001-5.349 2.395-5.349 5.35v38.784c.001 2.955 2.394 5.349 5.349 5.35h79.474c2.955-.001 5.349-2.395 5.349-5.35v-38.784c-.001-2.955-2.394-5.349-5.349-5.35h-79.474z" fill="#35495e"/><path d="m495.446 149.796h-7.271l-1.633 4.53h-2.36l6.628-17.355h2.003l6.639 17.355h-2.348zm-6.58-1.882h5.9l-2.956-8.117z" fill="#35495e"/><path clip-path="url(#a)" d="m463.951 151.084c-3.14 0-5.686-2.546-5.686-5.686 0-3.139 2.546-5.684 5.686-5.684s5.685 2.545 5.685 5.684c0 3.14-2.545 5.686-5.685 5.686m-11.964-9.327c-3.141 0-5.686-2.546-5.686-5.687 0-3.139 2.545-5.685 5.686-5.685 3.14 0 5.685 2.546 5.685 5.685 0 3.141-2.545 5.687-5.685 5.687m-2.048 20.344c-3.141 0-5.685-2.546-5.685-5.686 0-3.141 2.544-5.686 5.685-5.686 3.139 0 5.685 2.545 5.685 5.686 0 3.14-2.546 5.686-5.685 5.686m-11.818-9.566c-3.14 0-5.685-2.544-5.685-5.686 0-3.139 2.545-5.684 5.685-5.684s5.685 2.545 5.685 5.684c-.001 3.141-2.546 5.686-5.685 5.686m12.91-26.941c-11.348 0-20.548 9.199-20.548 20.549 0 11.348 9.2 20.548 20.548 20.548 11.349 0 20.548-9.2 20.548-20.548.001-11.35-9.198-20.549-20.548-20.549" fill="#35495e"/><path clip-path="url(#a)" d="m453.959 156.415c0 2.219-1.801 4.02-4.02 4.02-2.221 0-4.02-1.801-4.02-4.02 0-2.221 1.799-4.02 4.02-4.02 2.219 0 4.02 1.8 4.02 4.02" fill="#35495e"/><path clip-path="url(#a)" d="m442.354 146.849c0 2.338-1.895 4.235-4.234 4.235s-4.235-1.897-4.235-4.235 1.895-4.235 4.235-4.235c2.339.001 4.234 1.897 4.234 4.235" fill="#35495e"/><path clip-path="url(#a)" d="m456 136.185c0 2.221-1.8 4.02-4.02 4.02s-4.019-1.8-4.019-4.02 1.799-4.02 4.019-4.02 4.02 1.8 4.02 4.02" fill="#35495e"/><path d="m445.33 176.845h-79.474c-2.336 0-4.232 1.895-4.232 4.232v38.784c0 2.337 1.895 4.232 4.232 4.232h79.474c2.337 0 4.232-1.894 4.232-4.232v-38.784c0-2.337-1.895-4.232-4.232-4.232" fill="#f4f4f4"/><path d="m365.856 176.845v1.118h79.474c1.719.003 3.11 1.395 3.113 3.114v38.784c-.003 1.719-1.394 3.11-3.113 3.113h-79.474c-1.718-.003-3.11-1.394-3.114-3.113v-38.784c.003-1.718 1.395-3.11 3.114-3.114v-1.118-1.118c-2.954.001-5.348 2.395-5.349 5.349v38.784c.001 2.955 2.395 5.349 5.349 5.349h79.474c2.955-.001 5.349-2.394 5.349-5.349v-38.784c-.001-2.954-2.394-5.349-5.349-5.349h-79.474z" fill="#35495e"/><path d="m419.872 208.841v-17.355h5.674c1.883 0 3.297.389 4.243 1.168.953.779 1.429 1.931 1.429 3.457 0 .81-.23 1.53-.691 2.157-.46.62-1.088 1.101-1.883 1.443.938.262 1.677.763 2.217 1.502.549.731.822 1.605.822 2.622 0 1.557-.504 2.781-1.514 3.672-1.008.89-2.436 1.335-4.279 1.335h-6.018zm2.289-8.118v6.246h3.778c1.065 0 1.903-.274 2.515-.822.62-.556.93-1.319.93-2.289 0-2.09-1.136-3.135-3.409-3.135zm0-1.835h3.456c1.002 0 1.8-.25 2.396-.751.604-.5.906-1.18.906-2.038 0-.954-.278-1.645-.835-2.074-.557-.437-1.402-.655-2.538-.655h-3.385z" fill="#35495e"/><path clip-path="url(#b)" d="m397.96 205.599c-3.207 0-5.806-2.6-5.806-5.807 0-3.206 2.6-5.805 5.806-5.805 3.207 0 5.806 2.599 5.806 5.805.001 3.207-2.599 5.807-5.806 5.807m-12.218-9.527c-3.208 0-5.807-2.6-5.807-5.807s2.6-5.807 5.807-5.807 5.806 2.6 5.806 5.807-2.6 5.807-5.806 5.807m-2.092 20.778c-3.208 0-5.806-2.6-5.806-5.806 0-3.208 2.599-5.807 5.806-5.807 3.206 0 5.806 2.599 5.806 5.807 0 3.206-2.601 5.806-5.806 5.806m-12.072-9.769c-3.207 0-5.806-2.599-5.806-5.808 0-3.206 2.6-5.805 5.806-5.805 3.208 0 5.807 2.599 5.807 5.805.001 3.209-2.599 5.808-5.807 5.808m13.188-27.516c-11.591 0-20.987 9.395-20.987 20.987 0 11.59 9.396 20.987 20.987 20.987 11.59 0 20.986-9.396 20.986-20.987 0-11.592-9.396-20.987-20.986-20.987" fill="#35495e"/><path clip-path="url(#b)" d="m402.107 199.791c0 2.291-1.856 4.147-4.146 4.147s-4.146-1.856-4.146-4.147c0-2.289 1.856-4.146 4.146-4.146 2.29.001 4.146 1.857 4.146 4.146" fill="#35495e"/><path clip-path="url(#b)" d="m375.903 201.273c0 2.389-1.936 4.326-4.324 4.326s-4.324-1.937-4.324-4.326c0-2.388 1.936-4.324 4.324-4.324s4.324 1.936 4.324 4.324" fill="#35495e"/><path clip-path="url(#b)" d="m389.84 190.382c0 2.268-1.838 4.106-4.106 4.106s-4.106-1.838-4.106-4.106 1.837-4.106 4.106-4.106c2.267.001 4.106 1.839 4.106 4.106" fill="#35495e"/><path d="m341.979 205.032h-79.474c-2.337 0-4.231 1.894-4.231 4.232v38.784c0 2.337 1.895 4.232 4.231 4.232h79.474c2.337 0 4.231-1.895 4.231-4.232v-38.784c0-2.337-1.894-4.232-4.231-4.232" fill="#f4f4f4"/><path d="m262.505 205.032v.358h79.474c2.139.004 3.869 1.734 3.873 3.873v38.784c-.004 2.139-1.734 3.869-3.873 3.873h-79.474c-2.139-.004-3.869-1.735-3.873-3.873v-38.784c.004-2.139 1.735-3.869 3.873-3.873v-.358-.358c-2.535 0-4.589 2.054-4.59 4.59v38.784c0 2.535 2.055 4.589 4.59 4.59h79.474c2.535 0 4.589-2.055 4.59-4.59v-38.784c0-2.535-2.055-4.59-4.59-4.59h-79.474z" fill="#35495e"/><path d="m321.814 228.386 4.529-8.714h2.598l-5.983 10.883v6.473h-2.289v-6.473l-5.984-10.883h2.623z" fill="#35495e"/><path clip-path="url(#c)" d="m294.854 233.977c-3.271 0-5.923-2.652-5.923-5.924 0-3.271 2.652-5.922 5.923-5.922s5.922 2.651 5.922 5.922c.001 3.272-2.651 5.924-5.922 5.924m-12.464-9.718c-3.271 0-5.922-2.652-5.922-5.924 0-3.271 2.651-5.923 5.922-5.923 3.272 0 5.923 2.652 5.923 5.923 0 3.272-2.651 5.924-5.923 5.924m-2.134 21.195c-3.271 0-5.922-2.653-5.922-5.923 0-3.272 2.651-5.923 5.922-5.923 3.27 0 5.923 2.651 5.923 5.923 0 3.27-2.653 5.923-5.923 5.923m-12.312-9.966c-3.272 0-5.923-2.651-5.923-5.924 0-3.271 2.651-5.922 5.923-5.922s5.923 2.652 5.923 5.922c-.001 3.273-2.652 5.924-5.923 5.924m13.45-28.068c-11.823 0-21.407 9.583-21.407 21.408 0 11.823 9.585 21.407 21.407 21.407 11.823 0 21.408-9.585 21.408-21.407 0-11.824-9.585-21.408-21.408-21.408" fill="#35495e"/><path clip-path="url(#c)" d="m299.084 228.053c0 2.337-1.894 4.23-4.229 4.23-2.336 0-4.23-1.893-4.23-4.23 0-2.335 1.894-4.229 4.23-4.229 2.334 0 4.229 1.894 4.229 4.229" fill="#35495e"/><path clip-path="url(#c)" d="m284.445 239.531c0 2.312-1.877 4.188-4.189 4.188-2.313 0-4.188-1.876-4.188-4.188 0-2.314 1.875-4.188 4.188-4.188 2.312-.001 4.189 1.874 4.189 4.188" fill="#35495e"/><path clip-path="url(#c)" d="m286.571 218.455c0 2.313-1.876 4.188-4.188 4.188-2.314 0-4.189-1.875-4.189-4.188 0-2.314 1.875-4.188 4.189-4.188 2.312 0 4.188 1.875 4.188 4.188" fill="#35495e"/><path d="m370.695 1.118h-79.474c-2.337 0-4.231 1.895-4.231 4.232v38.784c0 2.337 1.894 4.232 4.231 4.232h79.474c2.337 0 4.232-1.894 4.232-4.232v-38.784c-.001-2.337-1.895-4.232-4.232-4.232" fill="#f4f4f4"/><path d="m291.221 1.118v1.118h79.474c1.719.003 3.11 1.395 3.113 3.114v38.784c-.003 1.719-1.394 3.11-3.113 3.113h-79.474c-1.719-.003-3.11-1.394-3.113-3.113v-38.785c.003-1.719 1.394-3.11 3.113-3.114v-1.117-1.118c-2.955.001-5.349 2.395-5.349 5.349v38.784c.001 2.955 2.394 5.349 5.349 5.349h79.474c2.955-.001 5.349-2.394 5.349-5.349v-38.784c-.001-2.954-2.394-5.349-5.349-5.349h-79.474z" fill="#35495e"/><path d="m350.898 22.409 4.16-6.65h2.694l-5.483 8.605 5.614 8.749h-2.717l-4.268-6.77-4.291 6.77h-2.705l5.626-8.749-5.495-8.605h2.682z" fill="#35495e"/><path clip-path="url(#d)" d="m323.764 30.214c-3.255 0-5.894-2.64-5.894-5.895s2.639-5.893 5.894-5.893c3.256 0 5.894 2.638 5.894 5.893s-2.638 5.895-5.894 5.895m-12.403-9.67c-3.256 0-5.894-2.64-5.894-5.896 0-3.254 2.638-5.894 5.894-5.894 3.255 0 5.894 2.64 5.894 5.894 0 3.256-2.639 5.896-5.894 5.896m-2.124 21.09c-3.256 0-5.894-2.64-5.894-5.894 0-3.255 2.638-5.894 5.894-5.894 3.255 0 5.894 2.639 5.894 5.894s-2.639 5.894-5.894 5.894m-12.251-9.916c-3.256 0-5.894-2.639-5.894-5.895 0-3.254 2.638-5.893 5.894-5.893 3.255 0 5.894 2.639 5.894 5.893 0 3.256-2.639 5.895-5.894 5.895m13.384-27.93c-11.765 0-21.303 9.536-21.303 21.302 0 11.765 9.538 21.302 21.303 21.302s21.303-9.537 21.303-21.302-9.538-21.302-21.303-21.302" fill="#35495e"/><path clip-path="url(#d)" d="m327.972 24.319c0 2.325-1.884 4.209-4.208 4.209-2.325 0-4.208-1.884-4.208-4.209 0-2.324 1.883-4.208 4.208-4.208 2.324 0 4.208 1.884 4.208 4.208" fill="#35495e"/><path clip-path="url(#d)" d="m313.404 35.74c0 2.301-1.866 4.167-4.167 4.167-2.302 0-4.168-1.867-4.168-4.167 0-2.302 1.866-4.168 4.168-4.168 2.301 0 4.167 1.866 4.167 4.168" fill="#35495e"/><path clip-path="url(#d)" d="m301.375 25.823c0 2.424-1.965 4.391-4.39 4.391-2.424 0-4.39-1.967-4.39-4.391s1.966-4.39 4.39-4.39 4.39 1.966 4.39 4.39" fill="#35495e"/><path d="m270.431 32.143h-82.065c-2.337 0-4.231 1.894-4.231 4.23v38.776c0 2.336 1.894 4.23 4.231 4.23h82.065c2.337 0 4.232-1.894 4.232-4.23v-38.776c0-2.336-1.895-4.23-4.232-4.23" fill="#f4f4f4"/><path d="m188.366 32.143v1.134h82.065c1.711.003 3.094 1.387 3.097 3.096v38.776c-.003 1.709-1.387 3.093-3.097 3.096h-82.065c-1.71-.003-3.094-1.387-3.097-3.096v-38.776c.003-1.709 1.387-3.093 3.097-3.096v-1.134-1.134c-2.964.001-5.364 2.401-5.365 5.365v38.776c.001 2.963 2.402 5.364 5.365 5.365h82.065c2.964-.001 5.365-2.401 5.366-5.365v-38.777c-.001-2.963-2.402-5.364-5.366-5.365h-82.065z" fill="#35495e"/><path d="m244.678 62.261h8.224v1.871h-10.525v-17.354h2.301z" fill="#35495e"/><path d="m262.211 64.132h-2.217v-14.696l-4.446 1.633v-2.003l6.317-2.372h.346z" fill="#35495e"/><path d="m218.92 48.12c3.727 0 6.758 3.365 6.758 7.497 0 4.143-3.031 7.513-6.758 7.513h-23.031c-3.699-.032-6.708-3.404-6.708-7.513 0-4.102 3.009-7.464 6.694-7.497zm0-1.607h-23.045c-4.587.04-8.301 4.093-8.301 9.104 0 5.013 3.714 9.079 8.301 9.12h23.045c4.621 0 8.365-4.084 8.365-9.12 0-5.035-3.745-9.104-8.365-9.104z" fill="#35495e"/><path d="m210.227 59.57v-1.46h-3.856v-6.447h-1.739v7.907z" fill="#35495e"/><path d="m470.115 19.81h-82.066c-2.336 0-4.23 1.894-4.23 4.231v38.776c0 2.337 1.894 4.231 4.23 4.231h82.066c2.337 0 4.231-1.894 4.231-4.231v-38.776c.001-2.337-1.894-4.231-4.231-4.231" fill="#f4f4f4"/><path d="m388.049 19.81v1.134h82.066c1.71.003 3.094 1.387 3.097 3.097v38.776c-.003 1.71-1.387 3.094-3.097 3.097h-82.066c-1.709-.003-3.093-1.387-3.096-3.097v-38.776c.003-1.71 1.387-3.094 3.096-3.097v-1.134-1.134c-2.963.001-5.364 2.402-5.365 5.365v38.776c.001 2.963 2.401 5.364 5.365 5.365h82.066c2.964-.001 5.365-2.402 5.366-5.365v-38.776c-.001-2.964-2.402-5.364-5.366-5.365h-82.066z" fill="#35495e"/><path d="m448.215 44.882h-4.076v7.02h-2.3v-17.354h5.745c1.954 0 3.456.445 4.505 1.335 1.057.89 1.586 2.185 1.586 3.886 0 1.081-.294 2.022-.883 2.825-.58.803-1.39 1.403-2.431 1.8l4.076 7.367v.143h-2.455zm-4.076-1.871h3.516c1.136 0 2.039-.294 2.706-.882.675-.588 1.013-1.375 1.013-2.36 0-1.073-.322-1.895-.966-2.467-.635-.572-1.557-.862-2.765-.87h-3.504z" fill="#35495e"/><path d="m463.544 51.902h-2.218v-14.696l-4.446 1.633v-2.003l6.318-2.372h.346z" fill="#35495e"/><path d="m405.186 40.667h1.894c.769 0 1.189.332 1.189 1.088 0 .796-.421 1.129-1.189 1.129h-1.894zm-1.724 6.523h1.725v-3.073h1.73c.869 0 1.19.364 1.31 1.19.086.627.065 1.388.275 1.883h1.726c-.308-.441-.297-1.363-.334-1.861-.055-.792-.293-1.62-1.14-1.84 0 0 1.242-.323 1.242-1.994 0-1.19-.892-2.168-2.3-2.168h-4.237z" fill="#35495e"/><path d="m418.262 35.812c3.703 0 6.715 3.343 6.715 7.449 0 4.117-3.012 7.466-6.715 7.466h-22.885c-3.676-.032-6.665-3.383-6.665-7.466 0-4.075 2.989-7.417 6.651-7.449zm0-1.597h-22.9c-4.557.039-8.249 4.067-8.249 9.046 0 4.982 3.691 9.022 8.249 9.063h22.9c4.592 0 8.312-4.059 8.312-9.063 0-5.003-3.72-9.046-8.312-9.046z" fill="#35495e"/><path d="m244.978 205.795h-131.099c-2.328 0-4.215 1.887-4.215 4.215v38.634c0 2.328 1.887 4.215 4.215 4.215h131.099c2.328 0 4.215-1.887 4.215-4.215v-38.634c0-2.328-1.887-4.215-4.215-4.215" fill="#f4f4f4"/><path d="m113.879 205.795v1.406h131.1c1.551.003 2.807 1.258 2.81 2.81v38.634c-.003 1.551-1.258 2.807-2.81 2.81h-131.1c-1.551-.003-2.807-1.258-2.81-2.81v-38.635c.003-1.551 1.258-2.807 2.81-2.81v-1.405-1.406c-3.105.001-5.62 2.516-5.621 5.621v38.634c.001 3.105 2.516 5.62 5.621 5.621h131.1c3.105-.001 5.62-2.516 5.621-5.621v-38.634c-.001-3.105-2.516-5.62-5.621-5.621h-131.1z" fill="#35495e"/><path d="m149.274 225.696h1.607v-6.791h2.864v-1.263h-7.333v1.263h2.864zm-9.737-4.442v-2.349h2.773c.844 0 1.37.326 1.37 1.161 0 .903-.483 1.188-1.37 1.188zm-1.603 4.442h1.602v-3.18h2.73c1.176 0 1.327.813 1.327 1.961 0 .588.076.995.195 1.219h1.734c-.314-.441-.324-1.34-.324-1.727 0-1.139-.201-1.974-1.111-2.174v-.023c.719-.236 1.26-.891 1.26-1.941 0-1.25-.629-2.183-2.576-2.183h-4.835zm-9.927 0h1.733l.791-1.996h3.594l.802 1.996h1.791l-3.402-8.053h-1.904zm3.006-3.259 1.327-3.399 1.305 3.399zm-7.521 3.259h1.602v-6.791h2.868v-1.263h-7.339v1.263h2.869zm-10.956-5.788c0 3.303 5.627 1.565 5.627 3.562 0 .885-.908 1.189-1.882 1.189-1.317 0-2.149-.51-2.193-1.572h-1.732c.024 1.694 1.123 2.836 3.876 2.836 1.626 0 3.665-.543 3.665-2.62 0-3.44-5.69-1.625-5.69-3.517 0-.756.706-1.104 1.775-1.104 1.336 0 1.873.675 1.929 1.297h1.733c-.207-2.339-2.559-2.561-3.737-2.561-1.864-.001-3.371.695-3.371 2.49" fill="#35495e"/><path d="m149.443 229.685h-32.82c-2.372 0-4.296 1.98-4.296 4.422s1.924 4.421 4.296 4.421h32.82c2.372 0 4.295-1.978 4.295-4.421s-1.923-4.422-4.295-4.422z" fill="#35495e"/><path d="m172.933 229.963c-1.963-.564-3.393-1.256-4.291-2.074-.89-.826-1.335-1.843-1.335-3.051 0-1.367.544-2.495 1.633-3.385 1.096-.898 2.519-1.347 4.267-1.347 1.192 0 2.253.23 3.183.691.938.461 1.661 1.096 2.169 1.907.517.811.775 1.697.775 2.658h-2.301c0-1.049-.334-1.871-1.001-2.467-.668-.604-1.609-.906-2.825-.906-1.128 0-2.01.25-2.646.751-.628.493-.942 1.18-.942 2.062 0 .707.298 1.307.894 1.8.604.484 1.625.93 3.063 1.335 1.446.405 2.575.854 3.385 1.347.819.485 1.422 1.053 1.812 1.704.398.652.596 1.419.596 2.301 0 1.406-.548 2.535-1.645 3.385-1.096.843-2.563 1.264-4.398 1.264-1.192 0-2.304-.226-3.337-.68-1.033-.46-1.831-1.088-2.396-1.883-.556-.795-.834-1.697-.834-2.706h2.301c0 1.049.386 1.879 1.156 2.491.779.604 1.816.906 3.111.906 1.208 0 2.134-.247 2.777-.739s.965-1.164.965-2.014-.298-1.506-.894-1.967c-.596-.469-1.676-.93-3.242-1.383z" fill="#35495e"/><path d="m194.305 222.227h-5.579v15.472h-2.277v-15.472h-5.566v-1.883h13.422z" fill="#35495e"/><path d="m205.532 233.169h-7.271l-1.633 4.529h-2.36l6.627-17.355h2.003l6.639 17.355h-2.348zm-6.579-1.883h5.9l-2.956-8.117z" fill="#35495e"/><path d="m218.239 230.678h-4.077v7.021h-2.301v-17.355h5.745c1.955 0 3.457.445 4.506 1.335 1.056.89 1.585 2.185 1.585 3.886 0 1.081-.294 2.022-.882 2.824-.58.803-1.391 1.403-2.432 1.8l4.077 7.366v.143h-2.456zm-4.077-1.872h3.516c1.136 0 2.038-.294 2.706-.882.675-.588 1.013-1.375 1.013-2.36 0-1.073-.322-1.895-.966-2.467-.635-.573-1.557-.862-2.765-.87h-3.504z" fill="#35495e"/><path d="m237.93 222.227h-5.579v15.472h-2.276v-15.472h-5.567v-1.883h13.422z" fill="#35495e"/><path d="m162.014 31.561h-128.161c-2.328 0-4.216 1.888-4.216 4.216v38.641c0 2.328 1.888 4.216 4.216 4.216h128.161c2.328 0 4.216-1.888 4.216-4.216v-38.64c0-2.329-1.888-4.217-4.216-4.217" fill="#f4f4f4"/><path d="m33.853 31.561v1.391h128.161c1.56.003 2.823 1.266 2.825 2.825v38.642c-.003 1.56-1.266 2.823-2.825 2.825h-128.161c-1.56-.003-2.823-1.266-2.825-2.825v-38.642c.003-1.56 1.266-2.823 2.825-2.825v-1.391-1.391c-3.097.001-5.606 2.51-5.607 5.607v38.642c.001 3.097 2.51 5.606 5.607 5.607h128.161c3.097-.001 5.606-2.51 5.607-5.607v-38.642c-.001-3.097-2.51-5.606-5.607-5.607h-128.161z" fill="#35495e"/><path d="m57.056 76.243h-8.064c-2.595 0-3.537-2.116-3.537-3.539v-9.903h-9.904c-2.597 0-3.54-2.116-3.54-3.539v-8.063c0-2.596 2.117-3.538 3.54-3.538h9.904v-9.904c0-2.597 2.115-3.539 3.537-3.539h8.064c2.597 0 3.54 2.117 3.54 3.539v9.904h9.901c1.362 0 2.443.595 3.044 1.678.235.425.517 1.261.487 1.859h.009v8.063c0 2.597-2.116 3.539-3.539 3.539h-9.901v9.902c-.001 2.599-2.117 3.541-3.541 3.541zm-21.505-26.883c-.427.007-1.838.157-1.838 1.837v8.063c.007.426.157 1.838 1.838 1.838h11.605v11.603c.005.427.157 1.838 1.836 1.838h8.061c.435-.007 1.842-.161 1.842-1.838v-11.601h11.602c.427-.007 1.838-.159 1.838-1.838v-8.076c-.006-.325-.127-1.825-1.837-1.825h-11.602v-11.604c-.007-.427-.157-1.838-1.838-1.838h-8.064c-.427.007-1.836.158-1.836 1.838v11.603z" fill="#35495e"/><path d="m53.026 59.372c-2.281 0-4.138-1.858-4.138-4.141s1.857-4.139 4.138-4.139c2.283 0 4.139 1.858 4.139 4.139 0 2.285-1.857 4.141-4.139 4.141zm0-6.578c-1.344 0-2.437 1.094-2.437 2.438 0 1.346 1.094 2.439 2.437 2.439 1.345 0 2.438-1.094 2.438-2.439.001-1.345-1.094-2.438-2.438-2.438z" fill="#35495e"/><path d="m53.025 37.828-3.408 5.311h6.818z" fill="#35495e"/><path d="m56.434 43.99h-6.818c-.311 0-.597-.17-.746-.442-.149-.273-.137-.606.031-.868l3.407-5.311c.313-.489 1.119-.488 1.431 0l3.41 5.311c.168.262.18.594.031.868-.148.272-.434.442-.746.442zm-5.261-1.701h3.705l-1.853-2.886z" fill="#35495e"/><path d="m35.555 55.231 5.312 3.407v-6.816z" fill="#35495e"/><path d="m40.867 59.489c-.16 0-.32-.045-.459-.135l-5.312-3.407c-.244-.155-.391-.425-.391-.716 0-.29.147-.559.391-.715l5.312-3.409c.261-.167.594-.18.867-.031.272.149.442.435.442.746v6.816c0 .311-.169.597-.442.746-.128.071-.268.105-.408.105zm-3.737-4.258 2.886 1.851v-3.702z" fill="#35495e"/><path d="m70.432 55.23-5.314-3.408v6.816z" fill="#35495e"/><path d="m65.12 59.489c-.141 0-.28-.034-.407-.104-.273-.15-.443-.436-.443-.746v-6.816c0-.311.169-.596.443-.746.271-.15.603-.139.867.031l5.313 3.408c.244.156.391.426.391.715s-.147.559-.391.716l-5.314 3.408c-.14.088-.301.134-.459.134zm.85-6.11v3.704l2.887-1.852z" fill="#35495e"/><path d="m53.025 72.635 3.41-5.312h-6.818z" fill="#35495e"/><path d="m53.025 73.485c-.289 0-.559-.147-.716-.391l-3.407-5.312c-.168-.262-.179-.594-.031-.867.149-.273.435-.443.746-.443h6.818c.311 0 .597.169.746.443.15.272.137.605-.031.867l-3.41 5.312c-.156.244-.426.391-.715.391zm-1.852-5.312 1.852 2.886 1.853-2.886z" fill="#35495e"/><path d="m87.797 63.47v-17.355h4.899c1.51 0 2.845.334 4.005 1.001 1.16.668 2.054 1.617 2.682 2.849.635 1.231.958 2.646.965 4.243v1.108c0 1.637-.318 3.072-.953 4.303-.628 1.231-1.53 2.178-2.706 2.837-1.168.659-2.531.997-4.089 1.013h-4.803zm2.289-15.472v13.6h2.408c1.764 0 3.135-.548 4.112-1.645.985-1.096 1.478-2.658 1.478-4.684v-1.013c0-1.97-.465-3.5-1.394-4.589-.922-1.097-2.233-1.653-3.933-1.669z" fill="#35495e"/><path d="m102.244 55.197h5.817v1.8h-5.817z" fill="#35495e"/><path d="m112.828 56.676v6.794h-2.289v-17.355h6.401c1.899 0 3.385.485 4.458 1.454 1.081.97 1.621 2.253 1.621 3.85 0 1.684-.528 2.984-1.585 3.897-1.049.906-2.555 1.359-4.517 1.359h-4.089zm0-1.872h4.112c1.223 0 2.161-.286 2.813-.858.651-.58.977-1.415.977-2.503 0-1.033-.326-1.859-.977-2.479-.652-.62-1.546-.942-2.682-.966h-4.243z" fill="#35495e"/><path d="m133.901 58.941h-7.271l-1.633 4.529h-2.36l6.628-17.355h2.002l6.639 17.355h-2.348zm-6.579-1.884h5.9l-2.956-8.117z" fill="#35495e"/><path d="m140.243 63.47v-17.355h4.899c1.51 0 2.845.334 4.005 1.001 1.16.668 2.054 1.617 2.682 2.849.635 1.231.958 2.646.965 4.243v1.108c0 1.637-.318 3.072-.953 4.303-.628 1.231-1.53 2.178-2.706 2.837-1.168.659-2.531.997-4.089 1.013h-4.803zm2.288-15.472v13.6h2.408c1.764 0 3.135-.548 4.112-1.645.985-1.096 1.478-2.658 1.478-4.684v-1.013c0-1.97-.465-3.5-1.394-4.589-.922-1.097-2.233-1.653-3.933-1.669z" fill="#35495e"/><g fill="#ccc" stroke="#ccc"><ellipse cx="117.844" cy="120.076" rx="2.747" ry="2.688" stroke-width="1.1199"/><ellipse cx="225.567" cy="112.246" rx="2.747" ry="2.688" stroke-width="1.1199"/><ellipse cx="310.189" cy="168.413" rx="2.747" ry="2.688" stroke-width="1.1199"/><ellipse cx="347.345" cy="151.72" rx="2.747" ry="2.688" stroke-width="1.1199"/><ellipse cx="387.541" cy="123.161" rx="2.747" ry="2.688" stroke-width="1.1199"/><ellipse cx="372.428" cy="94.257" rx="2.747" ry="2.688" stroke-width="1.1199"/><ellipse cx="330.802" cy="91.569" rx="2.747" ry="2.688" stroke-width="1.1199"/><ellipse cx="292.397" cy="106.788" rx="2.747" ry="2.688" stroke-width="1.1199"/><path d="m225.292 113.747.076 91.432" stroke-width="1.3066"/><path d="m117.925 79.198.076 41.512" stroke-width=".8808"/><path d="m292.322 63.179.076 44.039" stroke-width=".9072"/><path d="m330.764 48.662.076 43.451" stroke-width=".9018"/><path d="m404.789 67.291.077 26.995" stroke-width=".7155"/><path d="m347.307 151.72.076 41.789" stroke-width=".883"/><path d="m310.033 168.413.076 36.009" stroke-width=".8217"/><path d="m387.503 122.693.076 35.458" stroke-width=".8167"/><path d="m427.287 157.646-39.708.076" stroke-width=".865"/><path d="m361.379 193.474-14.202.077" stroke-width=".5192"/><path d="m405.22 94.228-32.792.058" stroke-width=".6844"/><path d="m292.796 63.446-17.522.077" stroke-width=".5757"/></g></svg>