<svg xmlns="http://www.w3.org/2000/svg" viewBox="0 0 140.041 145.289"><path d="M116.624 130.86h4.961s10.319-15.479 10.319-58.641-10.319-58.641-10.319-58.641h-4.961" fill="#787777"/><path d="M94.464 3.326C85.204 1.342 69.176-1.039 50.277.945 34.983 2.551 29.873 9.291 29.804 13.083c-.125 6.85 17.124 11.749 27.088 13.792 15.479 3.175 19.448 2.91 19.448 2.91L94.464 3.326zM94.465 141.963c-9.261 1.984-25.288 4.365-44.187 2.381-15.295-1.606-20.404-8.346-20.473-12.138-.125-6.85 17.125-11.749 27.088-13.792 15.479-3.175 19.448-2.91 19.448-2.91l18.124 26.459z" fill="#a3a3a4" stroke="#a3a3a4" stroke-width=".397" stroke-linecap="round" stroke-linejoin="round" stroke-miterlimit="10"/><path d="M.004 72.596c-.397 10.716 26.592 15.954 50.274 19.79 22.606 3.662 21.035 5.556 23.813 19.315 1.511 7.484-.794 30.428 24.739 30.561 25.534.132 28.311-37.837 28.311-37.837l6.946-3.572s5.953-15.16 5.953-28.258-5.953-28.257-5.953-28.257l-6.946-3.572S124.363 2.797 98.829 2.929 75.602 26.006 74.091 33.49c-2.778 13.759-1.207 15.653-23.813 19.315C26.596 56.642-.393 61.88.004 72.596z" fill="#b2b2b2"/><circle cx="97.772" cy="26.118" r="14.349" fill="#a3a3a4" stroke="#a3a3a4" stroke-width=".397" stroke-linecap="round" stroke-linejoin="round" stroke-miterlimit="10"/><path d="M86.66 28.758v-4.955c0-.547.445-.992.991-.992h6.732v-6.57c0-.546.446-.991.992-.991h4.955c.547 0 .991.444.991.991v6.57h6.57c.548 0 .992.445.992.992v4.955a.992.992 0 0 1-.992.991h-6.57v6.247a.991.991 0 0 1-.991.991h-4.955a.992.992 0 0 1-.991-.991v-6.247h-6.732a.993.993 0 0 1-.992-.991z" fill="#525151"/><path d="M95.195 79.273a7.09 7.09 0 1 1 0-14.178 7.09 7.09 0 0 1 0 14.178z" fill="#a3a3a4" stroke="#a3a3a4" stroke-width=".397" stroke-linecap="round" stroke-linejoin="round" stroke-miterlimit="10"/><ellipse transform="rotate(-76.714 65.242 72.188)" cx="65.235" cy="72.184" rx="15.622" ry="15.622" fill="#525151"/><path d="M104.982 130.295c-5.589 0-10.12-4.531-10.12-10.121 0-5.589 4.531-10.121 10.12-10.121 5.59 0 10.121 4.531 10.121 10.121-.001 5.589-4.531 10.121-10.121 10.121z" fill="#afafaf" stroke="#a3a3a4" stroke-width=".397" stroke-miterlimit="10"/><path fill="#a3a3a4" stroke="#a3a3a4" stroke-width="1.191" stroke-miterlimit="10" d="M92.315 101.788l-3.275 3.274"/><circle cx="97.772" cy="26.118" r="2.31" fill="#3d3d3d"/><path fill="#3d3d3d" stroke="#3d3d3d" stroke-width=".397" stroke-linejoin="round" stroke-miterlimit="10" d="M92.522 24.357v3.523l-3.788-1.762zM103.022 27.88v-3.523l3.788 1.761zM99.533 20.868h-3.522l1.761-3.787zM96.011 31.369h3.522l-1.761 3.787z"/><path d="M95.195 77.741a5.557 5.557 0 1 1 0-11.114 5.557 5.557 0 0 1 0 11.114z" fill="#bd3439"/><path d="M96.492 104.264a5.887 5.887 0 1 1 0-11.775 5.887 5.887 0 0 1 0 11.775z" fill="#1b8b58"/><path fill="#202020" d="M58.68 65.492l6.652-2.674 6.595 2.812 2.675 6.651-2.812 6.595-6.652 2.675-6.595-2.812-2.674-6.652z"/><ellipse transform="rotate(-80.828 85.877 109.058)" cx="85.882" cy="109.058" rx="5.887" ry="5.887" fill="#1a3e8e"/><ellipse transform="rotate(-76.714 65.242 72.188)" cx="65.235" cy="72.184" rx="7.486" ry="7.486" fill="#b2b2b2"/><ellipse transform="rotate(-76.714 65.242 72.188)" cx="65.235" cy="72.184" rx="5.501" ry="5.501" fill="none" stroke="#a3a3a4" stroke-width=".397" stroke-linecap="round" stroke-linejoin="round" stroke-miterlimit="10"/><ellipse transform="rotate(-76.714 65.242 72.188)" cx="65.235" cy="72.184" rx="3.941" ry="3.941" fill="none" stroke="#a3a3a4" stroke-width=".397" stroke-linecap="round" stroke-linejoin="round" stroke-miterlimit="10"/><path d="M65.235 74.256a2.072 2.072 0 1 1 0-4.144 2.072 2.072 0 0 1 0 4.144z" fill="none" stroke="#a3a3a4" stroke-width=".397" stroke-linecap="round" stroke-linejoin="round" stroke-miterlimit="10"/><g fill-rule="evenodd" clip-rule="evenodd" fill="#a3a3a4"><path d="M126.257 72.598c0 4.174-.002 8.348.002 12.521.001.773-.165 1.501-.564 2.164-.682 1.132-1.678 1.82-2.991 2.004a4.106 4.106 0 0 1-4.502-2.808A4.31 4.31 0 0 1 118 85.13V62.893c0-.994-.008-1.988.003-2.981.019-1.864 1.351-3.513 3.165-3.937a4.13 4.13 0 0 1 4.885 2.732c.148.445.205.902.205 1.369-.002 4.174-.001 8.348-.001 12.522zm-7.283 0v12.511c0 .22.016.439.054.657.309 1.747 2.042 2.909 3.764 2.522a3.147 3.147 0 0 0 2.489-3.102c.002-8.392.001-16.784 0-25.176 0-.741-.229-1.402-.688-1.984-1.061-1.348-3.064-1.586-4.405-.516-.822.655-1.215 1.52-1.215 2.568l.001 12.52z"/><path d="M121.398 62.082h.109c.805 0 1.608.002 2.413-.002.087 0 .108.023.106.108-.005.319-.004.639-.001.959.001.067-.016.086-.084.086-1.214-.002-2.427-.002-3.64 0-.073 0-.092-.019-.091-.091.004-.323.004-.646 0-.97-.002-.069.025-.103.078-.138.852-.548 1.702-1.097 2.553-1.647a.313.313 0 0 0 .094-.081h-.105c-.832 0-1.664-.003-2.495.003-.109.001-.128-.031-.126-.131.006-.306.005-.612.001-.917-.001-.073.012-.101.095-.1 1.209.003 2.419.003 3.629 0 .083 0 .093.028.092.099-.003.347-.004.695.001 1.042.001.072-.025.109-.083.146-.85.537-1.699 1.076-2.548 1.614a.123.123 0 0 1 .002.02zM122.629 81.164c.374 0 .731-.001 1.088.001.099 0 .227-.042.289.016.063.059.018.188.019.287.003.251-.001.502.002.753.001.067-.01.094-.087.094a1104.74 1104.74 0 0 0-3.641 0c-.065 0-.089-.014-.088-.084.004-.327.001-.653.002-.98 0-.037-.018-.081.051-.09.061-.007.01-.051.003-.069a2.014 2.014 0 0 1-.136-.632c-.025-.519.222-.899.641-1.169.951-.612 1.87.013 2.065.753.094.357.028.694-.148 1.013a4.646 4.646 0 0 0-.06.107zm-1.169-.001c.182 0 .365.003.547-.001.26-.007.436-.176.443-.419.008-.25-.157-.452-.413-.461a20.741 20.741 0 0 0-1.143-.002c-.164.003-.261.102-.291.269a1.036 1.036 0 0 0-.004.338c.03.177.133.272.315.276.183.002.365-.001.546 0zM122.452 76.457c.05.129.117.236.18.345.382.664.078 1.429-.501 1.815a.458.458 0 0 1-.264.073 226.6 226.6 0 0 0-1.649 0c-.067 0-.095-.009-.095-.087.005-.333.005-.667.001-1-.001-.073.02-.091.091-.091.536.003 1.073.002 1.608.002.262 0 .504-.319.438-.576a1.188 1.188 0 0 0-.091-.229c-.088-.174-.206-.265-.421-.259-.512.015-1.024.003-1.536.007-.074.001-.09-.02-.089-.091.004-.323.004-.646 0-.969-.002-.073.02-.09.091-.09.801.002 1.602.003 2.402 0 .076 0 .088.026.088.094-.003.319-.005.639.001.959.002.086-.028.105-.103.097-.046-.005-.094 0-.151 0zM122.533 66.866c.056.105.098.198.153.284.35.547.223 1.209-.199 1.655-.189.199-.396.315-.687.303-.491-.019-.983-.008-1.474-.003-.098.001-.118-.03-.115-.121.005-.316.005-.633 0-.949-.002-.085.019-.11.106-.109.526.005 1.052.002 1.577.002.289 0 .529-.32.45-.602a1.146 1.146 0 0 0-.091-.217c-.087-.164-.201-.255-.407-.249-.505.015-1.011.002-1.515.008-.104.002-.123-.029-.121-.126.006-.309.005-.619.001-.928-.001-.069.014-.095.089-.094.805.003 1.609.002 2.413 0 .062 0 .081.015.081.08-.003.326-.003.653 0 .979.001.065-.013.095-.084.087-.052-.004-.104 0-.177 0zM122.878 84.464a1.844 1.844 0 0 1-.372 1.135c-.549.721-1.481.738-2.058.038-.536-.651-.542-1.694-.012-2.35.573-.709 1.55-.687 2.09.049.244.333.349.71.352 1.128zm-1.414-.46c-.247 0-.494-.003-.741.002-.178.003-.278.089-.317.264a.919.919 0 0 0-.013.277c.014.224.13.342.353.343.477.004.954.005 1.432 0 .277-.002.445-.172.445-.433-.001-.279-.164-.448-.447-.452-.239-.004-.475-.001-.712-.001zM121.474 73.802c0-.323-.002-.646.001-.969.001-.069-.012-.095-.088-.094-.213.006-.426.001-.639.003-.223.002-.341.117-.356.341a.913.913 0 0 0 .012.266c.043.186.152.274.343.279.096.002.192.003.288 0 .049-.002.066.012.065.062-.002.347-.002.694 0 1.041.001.082-.042.059-.084.043a1.425 1.425 0 0 1-.715-.624c-.404-.674-.331-1.602.172-2.188.552-.641 1.42-.643 1.973-.005.582.672.574 1.801-.019 2.455a1.303 1.303 0 0 1-.857.445c-.075.008-.102-.005-.101-.088.007-.321.005-.644.005-.967zm.429-.616v.165c0 .298 0 .298.301.278a.435.435 0 0 0 .417-.439c.007-.245-.136-.417-.377-.443-.095-.01-.192-.002-.288-.005-.051-.002-.054.026-.053.064v.38zM121.507 69.791c.399 0 .798-.002 1.196.002.074.001.093-.022.09-.092-.005-.144.001-.289-.002-.433-.002-.055.01-.078.072-.079.274-.009.274-.011.274.266 0 .089.003.179-.001.268-.002.054.013.071.069.07.133-.004.267.002.402-.002.058-.002.075.016.074.075-.002.34-.002.681 0 1.021.001.062-.015.084-.08.082-.13-.005-.261.002-.391-.003-.059-.002-.076.017-.074.075.004.151-.002.303.002.454.002.058-.015.074-.074.075-.274.004-.272.006-.274-.268-.002-.109.046-.253-.021-.315-.059-.054-.202-.018-.308-.018-.715-.001-1.43-.002-2.146.002-.085 0-.109-.021-.108-.107.005-.326.005-.653.001-.98-.001-.071.016-.093.091-.092.403.001.806-.001 1.208-.001zM121.502 65.09c-.398 0-.798-.002-1.196.002-.078.001-.098-.019-.096-.097.004-.32.004-.639 0-.959-.001-.071.019-.093.091-.093.801.003 1.602.003 2.402 0 .075 0 .09.023.089.093-.003.323-.003.646 0 .97.001.066-.015.086-.084.086-.402-.003-.803-.002-1.206-.002zM123.34 64.514c0-.165.002-.33-.002-.495-.002-.059.018-.076.075-.074.182.003.365.002.547 0 .047 0 .065.012.065.063-.002.34-.002.681 0 1.021 0 .05-.016.064-.064.063a17.237 17.237 0 0 0-.557 0c-.059.002-.067-.022-.066-.072.003-.169.002-.337.002-.506zM124.043 86.289c.001.317-.284.593-.616.593a.615.615 0 0 1-.595-.591c0-.32.27-.588.593-.589.341-.001.618.262.618.587zm-1.115-.002a.512.512 0 0 0 .495.504c.284.001.526-.227.526-.498.001-.282-.222-.495-.52-.495a.487.487 0 0 0-.501.489z"/><path d="M123.462 86.075c.017 0 .035-.002.052 0 .07.007.177-.034.202.02a.425.425 0 0 1-.003.292c-.039.114-.209.152-.301.06-.05-.049-.081-.04-.128-.01-.028.018-.06.054-.091-.004-.032-.061.028-.057.051-.077a.228.228 0 0 1 .062-.036c.058-.025.037-.075.036-.116 0-.06-.049-.03-.077-.035-.033-.004-.07.007-.069-.049.001-.055.037-.046.071-.046l.195.001zm-.014.194c-.007.071-.003.132.087.133.102.002.096-.069.102-.141.008-.081-.022-.093-.096-.096-.091-.003-.109.033-.093.104z"/></g><path fill="#a3a3a4" d="M134.087 100.853l-30.064-2.476 23.119 6.048zM134.087 44.333l-30.064 2.477 23.119-6.049z"/><g fill="#ad353d"><path d="M94.845 68.152v.642h-.803c-.08 0-.12.045-.12.134 0 .086.04.128.12.128h.415c.127 0 .276-.077.447-.233.317-.3.531-.487.64-.56a.625.625 0 0 1 .359-.11h.393c.454 0 .681.273.681.817 0 .488-.207.732-.62.732h-.605v-.641h.645c.07 0 .105-.036.105-.108 0-.084-.067-.126-.203-.126l-.227.013c-.13 0-.282.079-.454.238-.308.295-.522.484-.645.564a.74.74 0 0 1-.415.12h-.447c-.465 0-.698-.274-.698-.82 0-.527.211-.791.635-.791h.797zM96.489 71.259v-.395h-3.044v-.707h3.044v-.395h.457v1.497h-.457zM93.444 72.991v-.7l.94-.119v-.314l-.94-.12v-.7l3.501.528v.896l-3.501.529zm1.426-.876l1.045-.101-1.045-.096v.197zM93.439 74.747v-.706c.099-.076.381-.114.845-.114h.005l.21.004.447.007c.119 0 .178-.074.178-.22h-1.68v-.706h3.501v.872c0 .199-.05.372-.149.52-.099.147-.256.221-.471.221h-.42c-.272 0-.456-.146-.552-.437-.075.293-.268.44-.579.44l-.383-.012c-.56-.001-.877.043-.952.131zm2.296-.811h.578c.123 0 .184-.073.184-.218h-.947c-.001.145.061.218.185.218zM96.489 76.217v-.395h-3.044v-.707h3.044v-.395h.457v1.497h-.457z"/></g><path d="M93.596 95.574h4.498v1.367c0 .798-.258 1.422-1.164 1.422-.396 0-.75-.145-.947-.51h-.012c-.276.479-.516.581-1.073.581-.912 0-1.301-.516-1.301-1.373v-1.487zm2.729 1.055c.03.462 0 .678.534.678.444 0 .426-.306.426-.678h-.96zm-1.919 0c.012.527-.024.75.582.75.522 0 .51-.301.528-.75h-1.11z" fill="#197649"/><path d="M83.334 106.26l4.498.983v1.271l-4.498.978v-1.067l.875-.149v-.828l-.875-.126v-1.062zm3.682 1.619v-.012l-2.015-.306v.611l2.015-.293z" fill="#143266"/><path d="M105.708 120.537h.309c.411 0 .623-.139.623-.336.006-.33-.187-.408-.501-.408l-2.383-.006c-.27 0-.431.102-.431.378 0 .359.398.39.694.39h.437v1.056h-.591c-.829 0-1.407-.444-1.407-1.523 0-.972.553-1.35 1.536-1.35h1.979c1.047 0 1.535.45 1.535 1.416 0 .899-.411 1.438-1.394 1.438h-.405v-1.055z" fill="#a3a3a4"/><ellipse transform="rotate(-42.362 112.892 120.175)" cx="112.897" cy="120.174" rx="3.847" ry="3.847" fill="#eabf3a"/><path fill="#e7b730" d="M115.006 120.174l-3.343-1.93v3.86z"/><ellipse transform="rotate(-42.362 104.977 112.26)" cx="104.982" cy="112.259" rx="3.847" ry="3.847" fill="#eabf3a"/><path fill="#e7b730" d="M104.982 110.151l-1.93 3.342h3.859z"/><g><ellipse transform="rotate(-42.362 97.063 120.174)" cx="97.067" cy="120.174" rx="3.847" ry="3.847" fill="#eabf3a"/><path fill="#e7b730" d="M94.958 120.174l3.343 1.93v-3.86z"/></g><g><ellipse transform="rotate(-42.362 104.977 128.089)" cx="104.982" cy="128.089" rx="3.847" ry="3.847" fill="#eabf3a"/><path fill="#e7b730" d="M104.982 130.197l1.929-3.342h-3.859z"/></g></svg>