<svg xmlns="http://www.w3.org/2000/svg" viewBox="0 0 30 30"><path d="M25.549 10.939c.091 0 .164-.03.182-.042l.055-.036c.097-.091.959-.935 1.159-1.529.055-.17.012-.279-.03-.346a.342.342 0 0 0-.291-.134c-.449 0-1.493.686-1.517 1.335-.012.303.042.51.164.631a.356.356 0 0 0 .278.121z" fill="#fff"/><path d="M26.617 9.07c.103 0 .158.055.109.188-.188.564-1.098 1.438-1.098 1.438s-.036.018-.085.018c-.097 0-.237-.073-.225-.522.024-.509.953-1.122 1.299-1.122m0-.449c-.528 0-1.711.752-1.742 1.553-.012.364.061.625.225.795a.606.606 0 0 0 .443.188c.14 0 .243-.049.285-.067a.364.364 0 0 0 .109-.079c.012-.012.243-.237.51-.54.376-.437.607-.789.704-1.08.091-.273 0-.461-.067-.546a.557.557 0 0 0-.467-.224z"/><path d="M24.875 10.339a.256.256 0 0 0 .127-.036c.03-.024.789-.54.631-1.748-.14-1.086-.789-1.632-1.11-1.632a.365.365 0 0 0-.158.042c-.146.097-.146.273-.152.546 0 .212-.006.504-.091.655-.2.376-.37 1.062-.358 1.323.006.091.018.328 1.007.825.037.013.068.025.104.025z" fill="#fff"/><path d="M24.517 7.147c.17 0 .759.431.886 1.432.14 1.086-.528 1.535-.528 1.535s-.874-.437-.886-.637c-.012-.2.14-.85.328-1.202s.061-1.05.164-1.123c.012-.005.024-.005.036-.005m0-.449c-.103 0-.2.03-.279.085-.243.164-.243.425-.249.728 0 .17-.006.449-.061.552-.206.382-.401 1.123-.382 1.438.012.158.024.461 1.129 1.013a.455.455 0 0 0 .449-.024c.334-.225.868-.892.728-1.966-.158-1.177-.886-1.826-1.335-1.826z" fill="#fff"/><path d="M21.883 15.715c2.324 0 4.211-1.651 4.211-3.677 0-.498-.109-.983-.334-1.432.012-.055.024-.109.024-.164 0-.303-.231-.564-.546-.625-.794-.91-2.038-1.457-3.355-1.457-2.324 0-4.211 1.651-4.211 3.677.006 2.034 1.893 3.678 4.211 3.678z" fill="#fff"/><path d="M21.883 8.591c1.335 0 2.518.57 3.24 1.444.243.012.437.194.437.413a.446.446 0 0 1-.042.176c.225.431.352.916.352 1.42 0 1.905-1.784 3.453-3.987 3.453s-3.981-1.547-3.981-3.453 1.785-3.453 3.981-3.453m0-.449c-2.446 0-4.436 1.748-4.436 3.902 0 2.148 1.99 3.902 4.436 3.902s4.436-1.748 4.436-3.902a3.5 3.5 0 0 0-.322-1.462.996.996 0 0 0 .012-.134c0-.388-.273-.716-.649-.825-.837-.929-2.124-1.481-3.477-1.481z" fill="#fff"/><path d="M22.8 12.772c.674 0 1.226-.686 1.226-1.523 0-.837-.546-1.523-1.226-1.523-.674 0-1.226.686-1.226 1.523 0 .843.552 1.523 1.226 1.523z" fill="#fff"/><path d="M22.8 9.95c.552 0 1.001.583 1.001 1.299s-.449 1.299-1.001 1.299-1.001-.583-1.001-1.299c-.001-.716.448-1.299 1.001-1.299m0-.449c-.801 0-1.45.783-1.45 1.748s.649 1.748 1.45 1.748 1.45-.783 1.45-1.748-.649-1.748-1.45-1.748z" fill="#fff"/><path d="M24.396 11.219h.024a.226.226 0 0 0 .2-.249c-.042-.394.267-.661.279-.674a.222.222 0 0 0 .024-.316.223.223 0 0 0-.316-.03c-.018.018-.504.425-.437 1.068a.235.235 0 0 0 .226.201z" fill="#fff"/><path d="M24.226 11.14a.329.329 0 0 0 .273-.152c.127-.182.121-.485-.006-.837-.182-.492-.655-1.802-1.778-1.875-.055-.006-.109-.006-.158-.006-.364 0-.631.091-.783.273a.539.539 0 0 0-.121.425c.006.042.03.085.061.121a.807.807 0 0 0-.291.595.223.223 0 0 0 .079.188.22.22 0 0 0 .146.055c.018 0 .03 0 .049-.006 0 0 .14-.03.352-.03.231 0 .576.036.91.206.316.212.801.589.898.783.12.223.284.26.369.26z" fill="#fff"/><path d="M22.557 8.494c.042 0 .091 0 .146.006.91.055 1.353 1.098 1.584 1.729.158.437.067.686-.061.686-.055 0-.115-.049-.17-.146-.17-.328-.983-.868-.983-.868a2.297 2.297 0 0 0-1.026-.237c-.243 0-.401.036-.401.036.055-.728.983-.601.716-.716a.924.924 0 0 0-.346-.073c-.085 0-.14.012-.14.012s-.078-.429.681-.429m0-.449c-.437 0-.759.121-.953.352-.17.2-.2.449-.17.607 0 .012.006.024.006.036-.14.164-.225.37-.243.619a.448.448 0 0 0 .449.485c.03 0 .061-.006.097-.012 0 0 .127-.024.309-.024.206 0 .51.03.801.176.364.249.752.57.813.692.182.352.455.388.564.388a.569.569 0 0 0 .461-.243c.17-.243.176-.613.024-1.044-.194-.534-.704-1.942-1.978-2.021-.065-.011-.126-.011-.18-.011z" fill="#fff"/><path d="M23.886 11.352c0 .346-.146.631-.328.631s-.328-.279-.328-.631c0-.346.146-.625.328-.625.182-.006.328.279.328.625z" fill="#fff"/><path d="M23.006 11.352c0-.485.237-.85.552-.85s.552.364.552.85c0 .485-.237.85-.552.85s-.552-.364-.552-.85zm.449 0c0 .206.061.346.103.394.042-.049.103-.182.103-.394 0-.206-.061-.346-.103-.388-.042.042-.103.176-.103.388zM21.835 13.682s-2.324-.152-2.591 1.469c-.261 1.626.546 1.887.831 2.348.285.461 1.82 1.645 1.82 1.645s1.887-.771 2.919-4.017l-2.979-1.445z" fill="#fff"/><path d="M21.762 19.32c-.158-.121-1.578-1.226-1.875-1.705a1.732 1.732 0 0 0-.231-.267c-.358-.37-.856-.874-.631-2.233.249-1.541 2.094-1.663 2.652-1.663.109 0 .176.006.176.006h.042l3.198 1.553-.061.182c-1.05 3.313-2.967 4.126-3.046 4.157l-.121.049-.103-.079zm.018-5.419h-.103c-.467 0-2.015.091-2.209 1.286-.182 1.141.188 1.517.51 1.851.109.109.212.218.291.346.2.322 1.177 1.123 1.657 1.499.17-.091.51-.303.91-.704.504-.51 1.202-1.42 1.711-2.931l-2.767-1.347z" fill="#fff"/><path d="M21.434 19.32c1.05 0 1.905-.558 2.136-1.384.146-.528.024-1.092-.346-1.59-.358-.479-.904-.843-1.541-1.019a3.212 3.212 0 0 0-.825-.115c-1.05 0-1.905.558-2.136 1.384-.297 1.068.552 2.239 1.887 2.609.273.078.546.115.825.115z" fill="#fff"/><path d="M20.852 15.436c.249 0 .51.036.765.103 1.22.34 1.996 1.384 1.736 2.336-.206.752-.995 1.22-1.918 1.22a3.04 3.04 0 0 1-.765-.103c-1.22-.34-1.996-1.384-1.736-2.336.206-.753.995-1.22 1.918-1.22m0-.449c-1.153 0-2.1.619-2.354 1.547-.328 1.189.589 2.482 2.045 2.889.291.079.589.121.886.121 1.153 0 2.1-.619 2.354-1.547.164-.595.03-1.232-.382-1.784-.388-.522-.977-.91-1.663-1.104a3.392 3.392 0 0 0-.886-.122zM26.428 17.062c.267 0 .479-.273.71-.564.042-.055.079-.103.115-.146.473-.57.595-1.195.601-1.22a.22.22 0 0 0-.115-.237l-1.402-.728a.2.2 0 0 0-.103-.024.249.249 0 0 0-.109.03.22.22 0 0 0-.115.176c-.164 1.96-.024 2.403.152 2.597.072.08.163.116.266.116z" fill="#fff"/><path d="M26.234 14.368l1.402.728s-.109.583-.552 1.117c-.206.243-.461.631-.655.631-.225-.006-.359-.54-.195-2.476m0-.449a.446.446 0 0 0-.449.413c-.164 1.936-.042 2.494.206 2.767a.586.586 0 0 0 .437.194c.37 0 .631-.328.886-.649.042-.049.079-.097.115-.14.516-.613.643-1.299.649-1.323a.448.448 0 0 0-.237-.479l-1.402-.728a.353.353 0 0 0-.205-.055z"/><path d="M23.734 17.008c.231 0 .401-.218.564-.425.261-.34.637-1.22.649-1.256a.236.236 0 0 0-.061-.261l-1.42-1.189a.22.22 0 0 0-.146-.055.277.277 0 0 0-.097.018.221.221 0 0 0-.127.206c0 .055 0 1.341.146 2.215.037.225.122.747.492.747z" fill="#fff"/><path d="M23.321 14.046l1.42 1.189s-.37.886-.619 1.208c-.134.17-.267.34-.388.34-.109 0-.2-.14-.273-.552-.14-.874-.14-2.185-.14-2.185m0-.449a.449.449 0 0 0-.449.449c0 .055 0 1.359.146 2.251.042.255.152.928.716.928.34 0 .564-.285.74-.516.279-.358.637-1.214.68-1.305a.44.44 0 0 0-.127-.516l-1.42-1.189a.442.442 0 0 0-.286-.102zM21.604 15.521a.264.264 0 0 0 .134-.036c.225-.134.819-.801.995-1.001a.229.229 0 0 0 0-.297c-.953-1.098-1.147-1.098-1.238-1.098a.255.255 0 0 0-.249.194c-.036.14-.042.631-.03 1.026.024.91.127 1.038.176 1.104a.273.273 0 0 0 .212.108z" fill="#fff"/><path d="M21.495 13.312c.182 0 1.068 1.019 1.068 1.019s-.728.831-.941.959c-.006.006-.012.006-.018.006-.194 0-.194-1.754-.14-1.954.001-.024.013-.03.031-.03m0-.449a.486.486 0 0 0-.467.364c-.061.243-.036 1.05-.036 1.086.024.91.127 1.11.225 1.232a.499.499 0 0 0 .388.194c.085 0 .17-.024.249-.067.243-.14.765-.716 1.05-1.05a.45.45 0 0 0 0-.589c-1.021-1.17-1.239-1.17-1.409-1.17zM23.831 18.804c.346 0 .862-.316.959-.382a.225.225 0 0 0 .103-.206c-.006-.109-.079-1.05-.206-1.438-.073-.225-.231-.249-.297-.249-.243 0-.419.212-.904 1.541-.036.091-.14.376 0 .576a.415.415 0 0 0 .345.158z" fill="#fff"/><path d="M24.389 16.753c.036 0 .061.03.085.097.121.37.194 1.384.194 1.384s-.546.346-.843.346c-.164 0-.255-.103-.134-.437.28-.753.547-1.39.698-1.39m0-.449c-.358 0-.552.346-.71.668-.109.237-.243.558-.407 1.019-.042.121-.176.485.03.783a.614.614 0 0 0 .528.255c.394 0 .928-.316 1.08-.413a.453.453 0 0 0 .206-.413c-.006-.109-.079-1.08-.218-1.493-.12-.376-.418-.406-.509-.406z"/><path d="M21.313 19.15c.461 0 1.141-.461 1.371-.837a.233.233 0 0 0 .03-.152c-.018-.127-.2-1.238-.316-1.517-.042-.115-.121-.297-.316-.297-.225 0-.352.152-1.032 1.523-.249.504-.303.843-.164 1.068.051.078.172.212.427.212z" fill="#fff"/><path d="M22.077 16.571c.049 0 .073.067.109.158.109.267.303 1.475.303 1.475-.206.334-.819.728-1.177.728-.285 0-.413-.249-.061-.959.541-1.099.729-1.402.826-1.402m0-.449c-.401 0-.601.37-1.232 1.645-.182.364-.394.898-.152 1.286a.699.699 0 0 0 .613.322c.552 0 1.293-.504 1.56-.941a.454.454 0 0 0 .061-.309c-.049-.297-.212-1.28-.328-1.572-.042-.116-.17-.431-.522-.431z" fill="#fff"/><path d="M21.477 20.643c1.08 0 1.723-.273 2.112-.564a.99.99 0 0 0 .68.243c.394 0 .801-.182 1.074-.473.255-.273.37-.619.34-1.001-.091-1.104-1.026-1.123-1.705-1.141-.109 0-.218-.006-.328-.012-.042 0-.085-.006-.134-.006-.407 0-.916.097-1.329.17-.261.049-.51.097-.637.097a9.19 9.19 0 0 1-.316-.661 9.53 9.53 0 0 0-.303-.631c-.134-.237-.534-.674-.935-1.104-.049-.055-.091-.097-.121-.134.127-.231.71-.85 1.08-1.098.091-.061.152-.121.206-.17.03-.024.067-.067.085-.073.146 0 .722.413.971.589 1.038.74 2.464 1.22 3.623 1.22.352 0 .674-.049.947-.134.158-.055.297-.109.419-.17a.216.216 0 0 0 .109.097c.127.055.267.079.425.079.607 0 1.408-.437 1.82-1.408.485-1.141.049-2.555.03-2.615l-.018-.036c-.619-1.141-1.469-1.723-2.524-1.723-1.371 0-2.67 1.032-3.016 1.39-.134.14-.243.261-.334.37-.225.261-.34.388-.461.388-.018 0-.042 0-.067-.006-.097-.024-.279-.152-.498-.309-.443-.322-1.117-.807-2.179-1.177a2.75 2.75 0 0 0-.898-.158c-.947 0-1.905.516-2.767 1.493-.564.637-.947 2.282-.237 3.307.54.783 1.402 1.056 1.76 1.135.158.765.995 1.954 1.238 2.288-.115 1.147.783 1.748 1.286 1.912.018.006.03.006.049.012.189.008.377.014.553.014z" fill="#fff"/><path d="M27.035 10.205c.825 0 1.669.394 2.324 1.608 0 0 .437 1.384-.024 2.458-.376.874-1.08 1.268-1.614 1.268a.832.832 0 0 1-.334-.061s.661-.637.461-.746c-.018-.012-.03-.012-.042-.012-.127 0-.055.485-1.098.825a2.83 2.83 0 0 1-.88.121c-1.104 0-2.488-.461-3.489-1.177-.668-.473-.935-.631-1.098-.631-.152 0-.212.14-.413.279-.419.285-1.317 1.208-1.183 1.359s.922.965 1.098 1.274c.176.309.546 1.25.68 1.384.018.018.061.024.115.024.346 0 1.317-.273 1.978-.273.042 0 .079 0 .121.006.771.042 1.736-.109 1.82.947.067.771-.619 1.232-1.189 1.232a.779.779 0 0 1-.546-.2s.37-.437.285-.613c-.006-.012-.012-.012-.018-.012-.091 0-.322 1.153-2.512 1.153-.17 0-.352-.006-.546-.024 0 0-1.317-.419-1.123-1.754 0 0-1.232-1.645-1.274-2.415 0 0-1.141-.152-1.778-1.074s-.285-2.458.218-3.028c.419-.467 1.365-1.414 2.597-1.414.261 0 .54.042.825.146 1.626.57 2.306 1.402 2.7 1.493.042.006.079.012.115.012.316 0 .485-.334.959-.825.335-.341 1.573-1.33 2.865-1.33m0-.443c-1.456 0-2.785 1.056-3.18 1.456-.134.14-.249.267-.34.376-.109.127-.243.279-.297.309h-.012c-.067-.018-.261-.158-.413-.273-.455-.328-1.141-.825-2.239-1.208a2.888 2.888 0 0 0-.977-.17c-1.013 0-2.027.54-2.937 1.566-.607.692-1.019 2.47-.255 3.58.522.759 1.317 1.074 1.76 1.195.212.759.892 1.754 1.195 2.166-.079 1.232.892 1.881 1.45 2.057.03.012.067.018.103.018.2.018.394.024.576.024.886 0 1.584-.17 2.106-.516.194.121.431.188.686.188a1.72 1.72 0 0 0 1.238-.546 1.53 1.53 0 0 0 .401-1.171c-.109-1.311-1.244-1.329-1.924-1.347-.109 0-.218-.006-.316-.012-.049 0-.097-.006-.146-.006-.431 0-.953.097-1.371.176-.164.03-.34.061-.467.079-.073-.146-.17-.37-.243-.516a7.757 7.757 0 0 0-.309-.649c-.146-.255-.54-.686-.965-1.147.2-.261.643-.704.916-.892a1.77 1.77 0 0 0 .212-.17c.14.067.401.243.789.516 1.074.765 2.549 1.262 3.75 1.262.376 0 .722-.049 1.019-.146.109-.036.212-.073.303-.115a.58.58 0 0 0 .067.036c.152.067.328.097.51.097.947 0 1.699-.777 2.027-1.541.522-1.214.055-2.706.036-2.773a.232.232 0 0 0-.036-.079c-.447-.829-1.291-1.824-2.717-1.824z"/><path d="M27.066 11.637c-.134-.055-.34-.085-.552-.042s-.188-.237.115-.358c.309-.115.686.079.789.364.097.285.188.407.067.467-.128.061-.201-.34-.419-.431z" fill="#fff"/><path d="M27.454 12.299a.327.327 0 0 0 .127-.03c.279-.14.17-.413.103-.576-.018-.049-.042-.103-.061-.164-.109-.316-.449-.546-.807-.546a.792.792 0 0 0-.273.049c-.267.103-.437.328-.394.54.03.176.2.285.407.249a.77.77 0 0 1 .425.03c.042.018.103.121.14.182.066.114.157.266.333.266zM19.523 10.557c.467 0 .916-.309 1.11-.765.006-.006.006-.012.006-.024.279-.904.109-1.026.024-1.086-.024-.018-.067-.042-.121-.079-.2-.121-.813-.492-.898-.801-.042-.152-.055-.322-.073-.473-.024-.279-.061-.625-.37-.625a.318.318 0 0 0-.127.024c-.243.091-1.208.728-1.123 1.918.079 1.086.922 1.851 1.469 1.899.042.006.072.012.103.012z" fill="#fff"/><path d="M19.213 6.928c.176 0 .109.51.225.935.127.461.983.91 1.104 1.001.127.091-.109.837-.109.837-.17.382-.54.625-.904.625-.024 0-.049 0-.073-.006-.394-.036-1.195-.68-1.268-1.693-.073-1.019.746-1.608.983-1.693.012 0 .024-.006.042-.006"/><path d="M19.213 6.479a.617.617 0 0 0-.206.036c-.431.164-1.353.935-1.268 2.142.085 1.22 1.032 2.051 1.675 2.112a.739.739 0 0 0 .115.006c.552 0 1.086-.358 1.317-.898l.018-.049c.194-.637.261-1.104-.061-1.335-.036-.023-.073-.048-.133-.084-.668-.407-.777-.601-.795-.661-.036-.134-.049-.297-.067-.437a2.235 2.235 0 0 0-.055-.376c-.097-.334-.34-.456-.54-.456zM21.082 18.998l2.561.061s-.328 1.444-.158 1.808l-.249-.03s.127.364-.328.862h.018c.079 0 .382-.036.546-.583l1.274.158-.552 1.462-.473-.346s-1.001-.425-2.391-.425h-.073l-.175-2.967"/><path d="M21.082 18.549a.438.438 0 0 0-.322.14.462.462 0 0 0-.127.34l.17 2.967a.451.451 0 0 0 .449.425h.073c1.117 0 1.972.297 2.172.37l.425.309a.463.463 0 0 0 .394.067.447.447 0 0 0 .291-.273l.552-1.462c.049-.127.036-.273-.036-.388s-.194-.194-.328-.212l-.886-.109c-.006-.012-.006-.024-.012-.036-.049-.176.036-.886.182-1.523a.443.443 0 0 0-.085-.376.452.452 0 0 0-.346-.176l-2.566-.063z"/><path d="M23.722 22.39s-1.038-.437-2.464-.425l-.176-2.967 2.561.061s-.328 1.444-.158 1.808l-.249-.03s.127.364-.328.862c0 0 .376.049.564-.583l1.274.158-.552 1.462-.472-.346z" fill="#fff"/><path d="M23.613 22.591a6.534 6.534 0 0 0-2.282-.401h-.285l-.2-3.423 3.077.073-.061.267c-.152.661-.255 1.487-.176 1.657l.073.158 1.286.158-.752 2.003-.68-.492zm.006-1.226c-.206.479-.534.552-.668.558.516.115.837.249.856.261l.024.012.255.188.346-.916-.813-.103zm-.407-.759c-.018-.401.079-.965.152-1.329l-2.045-.049.146 2.512c.37.006.71.042 1.013.091l.261-.285c.346-.382.285-.637.285-.637l-.121-.34.309.037z" fill="#fff"/><path d="M24.723 22.366a.224.224 0 0 0 .121-.412l-.643-.407a.224.224 0 0 0-.309.067.224.224 0 0 0 .067.309l.643.407a.252.252 0 0 0 .121.036z" fill="#fff"/><path d="M24.808 23.355a.287.287 0 0 0 .225-.103c.225-.243-.042-.813-.097-.928-.212-.431-.467-.522-.649-.522a.578.578 0 0 0-.565.467c-.03.158-.006.467.431.777.388.273.552.309.655.309z" fill="#fff"/><path d="M24.286 22.026c.212 0 .358.212.449.394.103.2.231.607.127.686 0 0-.006.024-.049.024-.067 0-.206-.049-.528-.273-.546-.382-.34-.752-.085-.825.032 0 .056-.006.086-.006m0-.449c-.067 0-.134.012-.2.024a.809.809 0 0 0-.583.625c-.036.206-.018.619.522.995.358.249.583.352.783.352a.5.5 0 0 0 .388-.176c.146-.158.188-.388.115-.698a2.158 2.158 0 0 0-.176-.485c-.266-.528-.606-.637-.849-.637z"/><path d="M25.457 22.706a.277.277 0 0 0 .231-.109c.237-.261-.049-.88-.115-1.007-.231-.467-.504-.564-.698-.564a.614.614 0 0 0-.601.497c-.03.17-.006.504.467.837.437.303.613.346.716.346z" fill="#fff"/><path d="M24.881 21.25c.237 0 .401.237.498.437.109.225.255.68.14.765 0 0-.006.024-.055.024-.073 0-.231-.055-.583-.303-.607-.425-.376-.837-.091-.916.03-.001.061-.007.091-.007m0-.443a.854.854 0 0 0-.825.685c-.036.218-.018.649.558 1.062.382.267.631.382.843.382a.499.499 0 0 0 .394-.182c.152-.158.188-.407.115-.728a3.222 3.222 0 0 0-.188-.534c-.278-.57-.642-.685-.897-.685z"/><path d="M25.84 21.547c.152 0 .243-.067.291-.152.231-.334-.249-1.056-.309-1.135-.249-.358-.516-.54-.801-.54a.693.693 0 0 0-.686.662c-.006.194.073.57.68.88.509.255.716.285.825.285z" fill="#fff"/><path d="M25.021 19.939c.255 0 .473.237.613.443.17.249.425.771.297.898 0 0-.006.042-.097.042-.097 0-.303-.049-.722-.261-.801-.407-.595-.941-.267-1.086a.507.507 0 0 1 .176-.036m0-.449a.928.928 0 0 0-.91.88c-.006.249.085.722.801 1.086.54.279.777.309.922.309a.536.536 0 0 0 .473-.249c.206-.291.055-.674 0-.807a3.06 3.06 0 0 0-.309-.589c-.286-.418-.613-.63-.977-.63z"/><path d="M24.687 21.195c.17 0 .261-.067.303-.146.218-.309-.279-.843-.34-.91-.225-.231-.455-.352-.686-.352a.593.593 0 0 0-.273.061c-.231.103-.37.316-.358.54.012.194.14.467.674.649.31.109.534.158.68.158z" fill="#fff"/><path d="M23.965 20.018c.206 0 .394.152.522.279.164.17.413.534.316.631 0 0 0 .042-.109.042-.097 0-.273-.03-.607-.14-.716-.243-.576-.643-.297-.771a.364.364 0 0 1 .175-.041m0-.449a.877.877 0 0 0-.37.079c-.316.146-.504.443-.485.759.012.218.134.619.831.85.334.109.576.164.752.164.237 0 .401-.103.485-.243.243-.34-.018-.831-.364-1.189-.273-.281-.558-.42-.849-.42zM13.545 21.887c.176 0 .328-.024.467-.067.886-.285 1.851-1.772 1.96-1.954.146-.17 1.013-1.214.862-1.972-.158-.801-1.147-1.966-2.33-1.966-.055 0-.109 0-.164.006-1.28.115-2.797.989-3.216 3.107-.146.728 0 1.39.431 1.905.522.649 1.378.941 1.99.941z" fill="#fff"/><path d="M14.498 16.152c1.092 0 1.978 1.123 2.112 1.79.14.692-.819 1.79-.819 1.79s-.995 1.596-1.851 1.875a1.33 1.33 0 0 1-.394.055c-.983 0-2.561-.807-2.209-2.579.407-2.033 1.863-2.822 3.016-2.925.054 0 .097-.006.145-.006m0-.443c-.061 0-.121 0-.182.006-1.359.121-2.973 1.05-3.416 3.283-.2 1.007.146 1.693.473 2.094.619.752 1.553 1.019 2.172 1.019.194 0 .376-.024.534-.079.941-.303 1.899-1.754 2.075-2.033.231-.267 1.068-1.317.898-2.148-.175-.874-1.255-2.142-2.554-2.142z" fill="#fff"/><path d="M12.702 18.61a.8.8 0 1 0 .002-1.6.8.8 0 0 0-.002 1.6z" fill="#fff"/><path d="M12.702 17.232a.576.576 0 1 1 .001 1.151.576.576 0 0 1-.001-1.151m0-.449c-.564 0-1.026.461-1.026 1.026s.461 1.026 1.026 1.026 1.026-.461 1.026-1.026-.456-1.026-1.026-1.026zM15.973 17.518a.5.5 0 0 0 .431-.206c.097-.14.103-.328.018-.516a.99.99 0 0 0-.358-.407 1.009 1.009 0 0 0-.552-.188.5.5 0 0 0-.431.206c-.097.14-.103.328-.018.516a.99.99 0 0 0 .358.407c.176.121.37.188.552.188z" fill="#fff"/><path d="M15.512 16.425c.127 0 .285.049.425.152.261.182.388.455.279.613-.049.073-.14.109-.243.109a.746.746 0 0 1-.425-.152c-.261-.182-.388-.455-.279-.613.048-.072.133-.109.243-.109m0-.449c-.261 0-.485.109-.613.297-.146.206-.158.479-.036.74.085.188.237.364.431.498.212.146.455.231.68.231.261 0 .485-.109.613-.303.146-.206.158-.479.036-.74a1.249 1.249 0 0 0-.431-.498 1.278 1.278 0 0 0-.68-.225zM12.21 21.601c.261 0 .467-.121.564-.322.146-.309-.049-.692-.437-.874a.864.864 0 0 0-.388-.091c-.261 0-.467.121-.564.322-.146.309.049.692.437.874a.902.902 0 0 0 .388.091z" fill="#fff"/><path d="M11.949 20.546a.74.74 0 0 1 .291.067c.267.127.413.382.328.576-.055.121-.194.188-.358.188a.74.74 0 0 1-.291-.067c-.267-.127-.413-.382-.328-.576.061-.122.195-.188.358-.188m0-.449c-.34 0-.637.17-.765.449-.194.425.042.941.54 1.171.152.073.322.109.479.109.346 0 .637-.17.765-.449.194-.425-.042-.941-.546-1.171a1.056 1.056 0 0 0-.473-.109zM15.979 22.797c.17 0 .364 0 1.717-3.429l.061-.152-.127-.103c-.425-.346-1.147-.953-1.256-1.086-.158-.188-.492-.309-.856-.309-.267 0-.534.067-.783.182-.643.316-2.003 1.638-1.56 3.034.461 1.462 2.743 1.857 2.761 1.857l.018.006h.025z" fill="#fff"/><path d="M15.518 17.936c.322 0 .583.109.686.231.17.206 1.286 1.117 1.286 1.117s-1.299 3.289-1.511 3.289h-.006c-.2-.036-2.191-.449-2.585-1.705-.394-1.256.85-2.476 1.444-2.767.237-.116.473-.165.686-.165m0-.449c-.297 0-.607.073-.88.206-.328.164-.862.564-1.268 1.177-.479.71-.619 1.45-.407 2.13.504 1.59 2.919 2.009 2.943 2.015l.042.006h.036c.334 0 .498-.291.728-.765.14-.279.309-.668.522-1.153.352-.819.674-1.645.68-1.657l.121-.303-.255-.206c-.516-.425-1.135-.947-1.226-1.056-.211-.242-.606-.394-1.036-.394z" fill="#fff"/><path d="M17.411 23.92c.358 0 .686-.085.904-.231.625-.419 1.038-1.723 1.098-1.942.085-.176.522-1.171.231-1.736-.231-.455-1.001-1.086-1.845-1.086-.194 0-.376.03-.546.097-.971.37-1.96 1.384-1.827 3.119.092 1.232 1.063 1.779 1.985 1.779z" fill="#fff"/><path d="M17.799 19.156c.728 0 1.432.552 1.645.965.255.504-.243 1.553-.243 1.553s-.419 1.438-1.013 1.833c-.176.115-.461.188-.777.188-.746 0-1.669-.407-1.76-1.56-.127-1.651.819-2.567 1.681-2.895.152-.06.31-.084.467-.084m0-.449a1.71 1.71 0 0 0-.631.115c-1.05.401-2.118 1.487-1.972 3.35.109 1.365 1.183 1.978 2.209 1.978.407 0 .771-.097 1.026-.267.322-.218.619-.631.892-1.262.158-.358.261-.686.291-.789.127-.267.546-1.28.225-1.918-.292-.582-1.16-1.207-2.04-1.207z" fill="#fff"/><path d="M16.416 21.547a.674.674 0 0 0 .601-.346.683.683 0 0 0 .061-.522.69.69 0 0 0-1.262-.152.683.683 0 0 0-.061.522.693.693 0 0 0 .661.498z" fill="#fff"/><path d="M16.416 20.4c.2 0 .388.134.443.334a.465.465 0 0 1-.449.588.462.462 0 0 1-.443-.334.465.465 0 0 1 .449-.588m0-.449a.893.893 0 0 0-.249.036.917.917 0 0 0-.631 1.123.91.91 0 0 0 1.669.194.906.906 0 0 0-.789-1.353zM18.679 19.999c.249 0 .443-.115.51-.303a.454.454 0 0 0-.103-.443.866.866 0 0 0-.382-.249.866.866 0 0 0-.297-.055c-.249 0-.443.115-.51.303a.454.454 0 0 0 .103.443.866.866 0 0 0 .382.249c.097.037.2.055.297.055z" fill="#fff"/><path d="M18.406 19.174c.073 0 .152.012.225.042.243.085.394.267.346.413-.03.097-.152.152-.297.152a.65.65 0 0 1-.231-.042c-.243-.085-.394-.267-.346-.413.036-.097.157-.152.303-.152m0-.449c-.352 0-.625.176-.722.455-.079.225-.024.461.146.661.115.14.285.249.479.316.121.042.249.067.37.067.352 0 .625-.176.722-.455.079-.225.024-.461-.146-.661a1.07 1.07 0 0 0-.479-.316 1.122 1.122 0 0 0-.37-.067zM16.665 23.944c.309 0 .558-.176.601-.431.049-.291-.2-.57-.558-.631a.996.996 0 0 0-.134-.012c-.309 0-.558.176-.601.431-.049.291.2.57.558.631.049.006.091.012.134.012z" fill="#fff"/><path d="M16.573 23.1c.03 0 .061 0 .097.006.231.036.401.206.376.37-.024.146-.182.243-.376.243-.03 0-.061 0-.097-.006-.231-.036-.401-.206-.376-.37.025-.146.182-.243.376-.243m0-.449c-.425 0-.759.255-.819.619-.067.419.261.807.746.886.055.006.109.012.17.012.425 0 .759-.255.819-.619.067-.419-.261-.807-.746-.886a1.6 1.6 0 0 0-.17-.012z" fill="#fff"/><path d="M22.138 20.885l-.37-.71-.061-.03a3.471 3.471 0 0 0-1.584-.376c-.328 0-.655.049-.965.146-.164.024-1.11.182-1.56.88-.443.692-.631 2.154-.03 2.664.297.249.516.297.71.334.14.03.261.055.431.164.479.322 1.141.437 1.165.443l.152.024 2.112-3.539z" fill="#fff"/><path d="M20.13 19.993c.85 0 1.469.346 1.469.346l.279.54-1.96 3.301s-.631-.109-1.08-.413c-.449-.297-.655-.091-1.117-.485-.467-.394-.352-1.699.073-2.367.431-.674 1.42-.783 1.42-.783.321-.102.63-.139.916-.139m0-.449a3.36 3.36 0 0 0-1.013.152c-.231.036-1.214.225-1.699.983-.249.388-.413.953-.443 1.511-.03.655.127 1.171.455 1.444.34.285.601.34.807.382a.754.754 0 0 1 .352.134c.51.34 1.177.467 1.25.479l.303.055.158-.267 1.96-3.301.127-.212-.115-.218-.279-.54-.061-.121-.115-.067c-.025-.031-.729-.414-1.687-.414z"/><path d="M21.962 21.359c.255 0 .401-.049.485-.152a.319.319 0 0 0 .049-.121c.085-.34-.461-.752-.583-.831-.218-.152-.419-.231-.601-.231a.571.571 0 0 0-.407.164.604.604 0 0 0-.164.631c.055.164.231.443.813.51.159.018.299.03.408.03z" fill="#fff"/><path d="M21.319 20.248c.164 0 .34.097.473.188.206.146.546.473.485.607 0 0 .024.091-.309.091-.097 0-.218-.006-.382-.024-.734-.085-.734-.558-.516-.759a.343.343 0 0 1 .249-.103m0-.449a.792.792 0 0 0-.558.225.845.845 0 0 0-.225.868c.073.212.297.583 1.001.661.164.018.309.03.431.03.225 0 .498-.03.661-.243a.635.635 0 0 0 .091-.194c.055-.212-.024-.449-.249-.698a2.664 2.664 0 0 0-.419-.376c-.26-.182-.509-.273-.733-.273z" fill="#fff"/><path d="M22.205 22.615c.14 0 .237-.036.303-.109a.401.401 0 0 0 .055-.091c.188-.37-.413-1.038-.485-1.117-.273-.297-.54-.443-.801-.443a.717.717 0 0 0-.698.783c.024.2.158.57.825.801.364.115.619.176.801.176z" fill="#fff"/><path d="M21.276 21.074c.243 0 .473.194.637.37.212.231.552.728.443.88 0 0 .006.061-.152.061-.121 0-.334-.036-.722-.17-.886-.303-.752-.88-.437-1.074a.5.5 0 0 1 .231-.067m0-.443a.857.857 0 0 0-.467.134.926.926 0 0 0-.449.898c.03.255.194.722.977.989.382.134.661.194.868.194.2 0 .358-.061.467-.176a.493.493 0 0 0 .097-.152c.237-.479-.334-1.159-.522-1.365-.315-.353-.643-.522-.971-.522z"/><path d="M21.543 23.81c.152 0 .249-.067.291-.152.243-.34-.255-1.092-.316-1.177-.255-.376-.534-.564-.825-.564a.722.722 0 0 0-.704.68c-.006.2.073.589.698.91.529.273.741.303.856.303z" fill="#fff"/><path d="M20.694 22.142c.267 0 .492.249.637.467.176.261.437.801.303.935 0 0-.006.042-.097.042-.103 0-.316-.055-.752-.279-.831-.431-.619-.983-.273-1.129a.542.542 0 0 1 .182-.036m0-.449a.936.936 0 0 0-.928.892c-.012.255.085.74.819 1.123.564.291.807.328.959.328a.529.529 0 0 0 .473-.249c.309-.443-.152-1.202-.309-1.432-.304-.438-.644-.662-1.014-.662z"/><path d="M20.409 24.702c.146 0 .237-.067.285-.152.218-.322-.225-1.001-.279-1.08-.231-.346-.485-.522-.759-.522a.655.655 0 0 0-.65.632c-.006.188.067.546.637.843.468.249.662.279.766.279z" fill="#fff"/><path d="M19.656 23.173c.237 0 .437.225.57.419.158.237.388.722.273.843 0 0-.006.042-.085.042-.091 0-.279-.049-.668-.249-.74-.388-.552-.886-.243-1.019a.363.363 0 0 1 .153-.036m0-.449a.9.9 0 0 0-.334.067.895.895 0 0 0-.546.777c-.012.243.079.698.752 1.05.51.267.74.303.88.303a.522.522 0 0 0 .467-.243c.2-.279.061-.649.012-.783a3.259 3.259 0 0 0-.285-.558c-.278-.4-.594-.613-.946-.613z"/><path d="M20.117 19.022c.425-.461.589-.983.504-1.553-.297-1.912-3.459-3.72-3.592-3.793l-.006-.006-.006-.006c-.024-.012-.655-.297-1.147-.297-.382 0-.552.17-.631.316-.2.376.018 1.013.686 2.003 2.039 3.016 3.914 3.392 3.993 3.41l.121.024.078-.098z" fill="#fff"/><path d="M15.864 13.591c.449 0 1.056.273 1.056.273s5.025 2.84 3.034 5c0 0-1.839-.34-3.847-3.313-1.081-1.59-.765-1.96-.243-1.96m0-.449c-.522 0-.746.273-.831.431-.249.467-.042 1.135.704 2.233 2.087 3.089 4.054 3.489 4.139 3.501l.243.042.17-.182c.467-.504.655-1.104.558-1.742-.14-.868-.813-1.808-2.009-2.779-.856-.698-1.663-1.153-1.693-1.177l-.018-.012-.018-.006c-.074-.024-.718-.309-1.245-.309z" fill="#fff"/><path d="M17.805 17.214c.388 0 .704-.328.704-.74 0-.407-.316-.734-.704-.734s-.704.328-.704.734.316.74.704.74z" fill="#fff"/><path d="M17.805 15.964c.267 0 .479.231.479.516s-.212.516-.479.516-.479-.231-.479-.516.212-.516.479-.516m0-.449c-.51 0-.928.431-.928.959s.419.959.928.959c.51 0 .928-.431.928-.959s-.418-.959-.928-.959z" fill="#fff"/><path d="M12.769 27.415c.091 0 .194-.012.303-.036.17-.03 4.43-.837 6.287-4.654l2.227-3.228c.036-.049.049-.115.036-.176a.216.216 0 0 0-.103-.146l-3.289-2.021a.207.207 0 0 0-.115-.03h-.024c-.061.006-1.438.17-2.506 1.038-1.001.813-1.481 2.53-1.56 2.84-.158.218-.947 1.365-1.541 2.992-.091.225-.91 2.288-.37 3.089.096.15.291.332.655.332z" fill="#fff"/><path d="M18.109 17.348l3.283 2.021-2.233 3.247c-1.827 3.768-6.141 4.545-6.141 4.545-.091.018-.176.03-.249.03-1.353 0-.079-3.119-.079-3.119.643-1.766 1.535-2.973 1.535-2.973s.467-1.924 1.499-2.761c1.025-.839 2.385-.99 2.385-.99m0-.449h-.049c-.061.006-1.505.182-2.622 1.086-1.013.825-1.517 2.506-1.626 2.913a13.672 13.672 0 0 0-1.541 3.004c-.03.079-.243.607-.394 1.226-.249.983-.231 1.663.049 2.075.188.279.485.431.85.431.109 0 .218-.012.34-.036.121-.024 1.202-.237 2.5-.898 1.784-.91 3.149-2.245 3.938-3.859l2.215-3.216a.438.438 0 0 0 .067-.346.438.438 0 0 0-.206-.291l-3.283-2.021a.41.41 0 0 0-.238-.068z"/><path d="M7.932 28.022h.328l.049-.03c2.003-1.171 2.197-2.251 2.009-2.955-.353-1.306-2.283-2.137-3.454-2.137-.194 0-.364.018-.516.061-1.469.407-2.828 2.027-3.162 2.446a11.482 11.482 0 0 0-.522-.012c-2.306 0-2.397.437-2.433.595-.067.316.243.589 1.026.928 2.355 1.025 5.704 1.104 6.675 1.104z" fill="#e98624"/><path d="M6.864 23.125c1.875 0 5.565 2.191 1.329 4.673h-.261c-.947 0-4.266-.073-6.584-1.08-2.166-.935.115-1.098 1.317-1.098.316 0 .552.012.625.024 0 0 1.523-2.021 3.119-2.464.134-.037.285-.055.455-.055m0-.449c-.212 0-.407.024-.576.073-1.438.401-2.767 1.893-3.204 2.433-.134-.006-.291-.006-.419-.006-.316 0-.922.012-1.45.085-.54.073-1.104.218-1.202.692-.127.625.704.989 1.159 1.183 2.391 1.032 5.783 1.117 6.76 1.117h.273l.115-.006.097-.061c1.171-.686 2.494-1.802 2.112-3.204-.382-1.433-2.39-2.306-3.665-2.306z"/><path d="M19.189 26.978l-.134-.225c-.237-.401-1.038-.813-1.274-.928-.231-.297-.74-.516-1.086-.631.765-1.305 1.183-2.452.006-3.823-1.129-1.317-3.192-1.414-3.459-1.42a.54.54 0 0 0-.103-.012c-.57 0-1.663.813-2.354 1.56-.528.576-.777 1.056-.746 1.438.073.819.722 1.359 1.032 1.62.024.018.049.042.073.061-.018.073-.067.2-.115.316-.103.261-.237.619-.376 1.117-.279.989.012 1.602.898 1.869.619.188 4.667.285 5.128.297h.061l2.449-1.239z" fill="#fff"/><path d="M13.133 20.181c.03 0 .055 0 .079.006 0 0 2.179.024 3.307 1.335 1.129 1.311.71 2.336-.182 3.805 0 0 1.05.291 1.286.68 0 0 .995.473 1.232.868l-2.179 1.104s-4.46-.103-5.061-.291c-.601-.182-1.026-.552-.734-1.572.291-1.026.576-1.469.498-1.602-.079-.134-1.026-.68-1.104-1.602-.079-.874 2.154-2.731 2.858-2.731m0-.479c-.71 0-1.905.959-2.53 1.638-.576.625-.85 1.171-.807 1.62.073.868.728 1.456 1.062 1.742-.018.049-.036.103-.061.152-.097.249-.243.631-.388 1.135-.316 1.11.055 1.857 1.056 2.166.637.194 4.436.291 5.194.309h.121l.109-.055 2.179-1.104.461-.231-.267-.443c-.255-.431-.989-.831-1.335-1.001-.212-.243-.57-.431-.886-.564.698-1.256 1.038-2.458-.164-3.853-1.171-1.365-3.265-1.493-3.617-1.505-.036 0-.085-.006-.127-.006z"/><path d="M18.782 27.755c.34-.006.583-.006.686-.225.103-.218-.079-.437-.176-.552-.255-.309-.51-.589-.825-.589a.6.6 0 0 0-.37.14.77.77 0 0 0-.297.564.65.65 0 0 0 .115.437c.012.024.024.049.042.067.103.109.291.164.613.164.024-.006.212-.006.212-.006z" fill="#fff"/><path d="M18.467 26.632c.194 0 .394.2.637.498.34.413.073.376-.461.388h-.073c-.461 0-.449-.109-.449-.109-.109-.109-.158-.473.121-.692.079-.061.152-.091.225-.085m0-.485a.812.812 0 0 0-.516.188.987.987 0 0 0-.388.74.932.932 0 0 0 .152.583.354.354 0 0 0 .073.097c.152.17.388.243.795.243h.218c.364-.006.734-.012.898-.364.164-.352-.097-.674-.212-.807-.292-.347-.601-.68-1.02-.68z"/><path d="M18.078 28.01c.34-.006.583-.006.686-.225.103-.218-.079-.437-.176-.552-.255-.309-.51-.589-.825-.589a.6.6 0 0 0-.37.14.77.77 0 0 0-.297.564.65.65 0 0 0 .115.437c.012.024.024.049.042.067.103.109.291.164.613.164l.212-.006z" fill="#fff"/><path d="M17.763 26.887c.194 0 .394.2.637.498.34.413.073.376-.461.388h-.073c-.461 0-.449-.109-.449-.109-.109-.109-.158-.473.121-.692a.359.359 0 0 1 .225-.085m0-.479a.812.812 0 0 0-.516.188c-.231.182-.37.443-.388.74a.932.932 0 0 0 .152.583.354.354 0 0 0 .073.097c.152.17.388.243.795.243h.218c.364-.006.734-.012.898-.364.164-.352-.097-.674-.212-.807-.304-.365-.601-.68-1.02-.68z"/><path d="M16.895 28.264c.34-.006.583-.006.686-.225.103-.218-.079-.437-.176-.552-.255-.309-.51-.589-.825-.589a.6.6 0 0 0-.37.14.77.77 0 0 0-.297.564.65.65 0 0 0 .115.437c.012.024.024.049.049.067.103.109.291.164.613.164.017.001.205-.006.205-.006z" fill="#fff"/><path d="M16.573 27.142c.194 0 .394.2.637.498.34.413.073.376-.461.388h-.073c-.461 0-.449-.109-.449-.109-.109-.109-.158-.473.121-.692a.363.363 0 0 1 .225-.085m0-.48a.812.812 0 0 0-.516.188c-.231.182-.37.443-.388.74a.932.932 0 0 0 .152.583.354.354 0 0 0 .073.097c.152.17.388.243.795.243h.218c.364-.006.734-.012.898-.364.164-.352-.097-.674-.206-.807-.291-.346-.601-.68-1.026-.68z"/><path d="M16.088 26.741s.413-.012.825.401m0 .243a.238.238 0 0 0 .17-.073.246.246 0 0 0 0-.34c-.479-.479-.983-.467-1.001-.467-.134.006-.237.115-.231.249s.115.237.243.231c.018 0 .328.006.649.328.043.047.11.072.17.072zm.304-.977s.413-.012.825.401m-.006.236a.238.238 0 0 0 .17-.073.246.246 0 0 0 0-.34c-.479-.479-.983-.473-1.001-.473a.238.238 0 0 0-.231.249.242.242 0 0 0 .243.231h.006c.018 0 .328.006.649.328a.208.208 0 0 0 .164.078zm-2.628 1.426l-.134-.225c-.237-.401-1.038-.813-1.28-.928-.231-.297-.74-.516-1.086-.631.765-1.305 1.183-2.452.006-3.823-1.129-1.317-3.192-1.414-3.459-1.42a.54.54 0 0 0-.103-.012c-.57 0-1.663.813-2.354 1.56-.528.576-.777 1.056-.746 1.438.073.819.722 1.359 1.032 1.62.024.018.049.042.073.061-.018.073-.067.194-.115.316-.103.261-.237.619-.376 1.117-.279.989.012 1.602.898 1.869.619.188 4.667.285 5.128.297h.061l2.455-1.239z" fill="#fff"/><path d="M9.352 21.674c.03 0 .055 0 .079.006 0 0 2.179.024 3.307 1.335s.71 2.336-.182 3.805c0 0 1.05.291 1.286.68 0 0 .995.473 1.232.868l-2.185 1.104s-4.46-.103-5.061-.291c-.601-.182-1.026-.552-.734-1.572.291-1.026.576-1.469.498-1.602-.079-.134-1.026-.68-1.104-1.602-.073-.88 2.154-2.731 2.864-2.731m0-.479c-.71 0-1.905.959-2.53 1.638-.576.625-.85 1.171-.807 1.62.073.868.728 1.456 1.062 1.742-.018.049-.036.103-.061.152-.097.249-.243.631-.388 1.135-.316 1.11.055 1.857 1.056 2.166.637.194 4.436.291 5.194.309h.121l.109-.055 2.179-1.104.461-.231-.267-.443c-.255-.431-.989-.831-1.335-1.001-.212-.243-.57-.431-.886-.564.698-1.256 1.038-2.458-.164-3.853-1.171-1.365-3.265-1.493-3.617-1.505-.042-.006-.084-.006-.127-.006z"/><path d="M15.002 29.241c.34-.006.583-.006.686-.225.103-.218-.079-.437-.176-.552-.255-.309-.51-.589-.825-.589a.6.6 0 0 0-.37.14.77.77 0 0 0-.297.564.65.65 0 0 0 .115.437c.012.024.024.049.042.067.103.109.291.164.613.164.024.001.212-.006.212-.006z"/><path d="M14.686 28.119c.194 0 .394.2.637.498.34.413.073.376-.461.388h-.073c-.461 0-.449-.109-.449-.109-.109-.109-.158-.473.121-.692a.4.4 0 0 1 .225-.085m0-.48a.812.812 0 0 0-.516.188c-.231.182-.37.443-.388.74a.932.932 0 0 0 .152.583.354.354 0 0 0 .073.097c.152.17.388.243.795.243h.218c.364-.006.734-.012.898-.364.164-.352-.097-.674-.206-.807-.31-.364-.607-.68-1.026-.68z"/><path d="M14.298 29.502c.34-.006.583-.006.686-.225.103-.218-.079-.437-.176-.552-.255-.309-.51-.589-.825-.589a.6.6 0 0 0-.37.14.77.77 0 0 0-.297.564.65.65 0 0 0 .115.437c.012.024.024.049.042.067.103.109.291.164.613.164.024-.006.212-.006.212-.006z"/><path d="M13.976 28.374c.194 0 .394.2.637.498.34.413.073.376-.461.388h-.073c-.461 0-.449-.109-.449-.109-.109-.109-.158-.473.121-.692a.4.4 0 0 1 .225-.085m0-.48a.812.812 0 0 0-.516.188c-.231.182-.37.449-.388.74a.9.9 0 0 0 .152.576.354.354 0 0 0 .073.097c.152.17.388.243.795.243h.218c.364-.006.734-.012.898-.364.164-.352-.097-.674-.212-.807-.298-.351-.595-.673-1.02-.673z"/><path d="M13.109 29.757c.34-.006.583-.006.686-.225.103-.218-.079-.437-.176-.552-.255-.309-.51-.589-.825-.589a.6.6 0 0 0-.37.14.77.77 0 0 0-.297.564.65.65 0 0 0 .115.437c.012.024.024.049.049.067.103.109.291.164.613.164.022-.006.205-.006.205-.006z"/><path d="M12.793 28.635c.194 0 .394.2.637.498.34.413.073.376-.461.388h-.073c-.461 0-.449-.109-.449-.109-.109-.109-.158-.473.121-.692a.359.359 0 0 1 .225-.085m0-.486a.812.812 0 0 0-.516.188.987.987 0 0 0-.388.74.932.932 0 0 0 .152.583.354.354 0 0 0 .073.097c.151.17.388.243.794.243h.218c.364-.006.734-.012.898-.364.164-.352-.097-.674-.206-.807-.309-.358-.606-.68-1.025-.68zm-.486.085s.413-.012.825.401"/><path d="M13.127 28.871a.238.238 0 0 0 .17-.073.246.246 0 0 0 0-.34c-.479-.479-.983-.473-1.001-.473a.238.238 0 0 0-.231.249.242.242 0 0 0 .243.231h.006c.018 0 .328.006.649.328.042.06.103.078.164.078zm.303-.977s.413-.012.825.401"/><path d="M14.255 28.538a.238.238 0 0 0 .17-.073.246.246 0 0 0 0-.34c-.479-.479-.983-.473-1.001-.473-.134.006-.237.115-.231.249s.115.237.243.231c.018 0 .328.006.649.328a.23.23 0 0 0 .17.078z"/><path d="M18.2 14.738l-.206-.249c-1.469-1.772-3.568-2.785-5.759-2.785-.237 0-.473.012-.71.036-2.464.243-4.393 1.384-5.571 3.295-.947 1.535-1.384 3.556-1.183 5.54a8.602 8.602 0 0 0 1.572 4.175l.218.297L18.2 14.738z" fill="#fff"/><path d="M12.229 12.038c2.154 0 4.139 1.019 5.498 2.664L6.609 24.545a8.164 8.164 0 0 1-1.511-4.005c-.34-3.435 1.22-7.949 6.457-8.465a6.09 6.09 0 0 1 .674-.037m0-.674a7.53 7.53 0 0 0-.74.036c-2.573.255-4.588 1.45-5.826 3.453-.989 1.602-1.438 3.696-1.232 5.753a8.867 8.867 0 0 0 1.638 4.339l.437.601.552-.492 11.117-9.843.485-.431-.413-.504c-1.534-1.85-3.725-2.912-6.018-2.912z"/><path d="M11.865 14.077c.534 0 1.244-.218 1.566-.692.401-.607.073-1.183-.127-1.529-.024-.042-.049-.085-.067-.121-.182-.34-.874-1.462-.904-1.511-.03-.049-.303-.51-.461-.68-.127-.14-.273-.212-.413-.212-.115 0-.322.049-.437.37-.121.34-.376 1.784-.425 2.537-.012.146-.024.267-.036.382-.055.473-.091.819.443 1.22.211.151.515.236.861.236z" fill="#fff"/><path d="M11.452 9.574c.079 0 .164.055.237.134.146.158.437.643.437.643s.716 1.159.898 1.499c.182.34.57.862.206 1.402-.237.358-.831.583-1.365.583-.273 0-.534-.061-.716-.2-.534-.401-.364-.643-.316-1.39.049-.752.303-2.166.413-2.47.054-.146.127-.201.206-.201m0-.479c-.437 0-.619.401-.661.528-.134.364-.388 1.82-.437 2.597-.006.14-.024.261-.036.37-.055.492-.109.953.54 1.438.255.194.607.291 1.007.291.85 0 1.499-.401 1.766-.801.485-.728.091-1.414-.115-1.784-.024-.042-.042-.079-.067-.115-.188-.346-.88-1.475-.904-1.523-.073-.121-.328-.54-.498-.722-.225-.231-.443-.279-.595-.279z"/><path d="M8.29 16.547c.777 0 1.699-.819 1.766-1.56.067-.722-.504-1.074-.837-1.286-.042-.024-.079-.049-.115-.073a45.728 45.728 0 0 0-1.517-.898c-.049-.03-.51-.297-.734-.376a.715.715 0 0 0-.243-.042.413.413 0 0 0-.334.146c-.091.109-.121.255-.097.443.055.358.522 1.748.837 2.427.061.127.109.249.152.352.182.443.309.759.971.862.048-.001.103.005.151.005z" fill="#fff"/><path d="M6.615 12.548a.56.56 0 0 1 .164.03c.2.067.686.358.686.358s1.183.68 1.505.892c.322.212.91.485.85 1.135-.055.613-.88 1.341-1.529 1.341-.036 0-.079 0-.115-.006-.655-.097-.625-.388-.941-1.074-.316-.68-.765-2.045-.819-2.367-.031-.231.066-.309.199-.309m0-.48a.669.669 0 0 0-.522.231c-.097.109-.2.316-.152.631.061.382.528 1.784.856 2.494.061.127.103.237.146.34.188.455.364.886 1.159 1.007.061.006.121.012.188.012.898 0 1.93-.916 2.009-1.778.079-.868-.595-1.286-.953-1.511a.858.858 0 0 1-.109-.073c-.328-.218-1.481-.88-1.523-.904-.121-.073-.546-.316-.777-.394a1.062 1.062 0 0 0-.322-.055z"/><path d="M6.755 20.91c.158 0 .328-.042.534-.14.334-.158.613-.516.777-.995.17-.504.158-1.007-.024-1.353-.328-.613-.977-.613-1.22-.613-.067 0-.127 0-.188.006h-.14c-.388 0-1.705.079-1.76.079-.061 0-.595.03-.819.091-.218.055-.364.176-.413.34-.03.109-.036.279.146.485.243.267 1.396 1.177 2.033 1.572.121.073.225.146.316.212.266.176.473.316.758.316z" fill="#fff"/><path d="M6.822 18.045c.358 0 .777.055 1.007.485.309.576-.036 1.736-.643 2.015a1.06 1.06 0 0 1-.431.115c-.291 0-.492-.212-.947-.498-.637-.394-1.766-1.293-1.978-1.529s-.061-.376.146-.431c.206-.055.771-.079.771-.079s1.359-.079 1.748-.079c.096.008.205.001.327.001m0-.479c-.067 0-.134 0-.194.006h-.134c-.394 0-1.717.079-1.766.079-.146.006-.631.036-.868.097-.407.103-.54.358-.583.504-.042.14-.073.413.2.716.255.285 1.42 1.202 2.087 1.614.115.073.218.146.309.206.273.188.528.364.892.364.194 0 .394-.049.631-.164.394-.182.722-.601.904-1.141.188-.564.176-1.141-.036-1.541-.405-.74-1.187-.74-1.442-.74z"/><path d="M14.929 13.142l5.025-.303a.185.185 0 0 0 .097-.03l3.611-2.197a.213.213 0 0 0 .097-.134c.049-.206.443-2.021.273-2.567-.146-.473-.498-1.584-1.827-1.984-.595-.182-1.026-.212-1.378-.243-.37-.03-.643-.049-.959-.225a6.141 6.141 0 0 1-.473-.291c-.212-.14-.358-.237-.504-.237-.115 0-.273.055-.346.322a2.41 2.41 0 0 0-.012 1.123c-.346.024-.874.14-1.305.595l-.243.261c-.394.443-.546.607-1.547.619a.208.208 0 0 0-.206.206c0 .024.006.492.504.819a2.66 2.66 0 0 0-.546.352c-.437.37-.601.801-.467 1.244 0 .006.006.012.006.018a.86.86 0 0 0-.255.291 2.329 2.329 0 0 0-.194.655c-.049.255-.085.473-.267.668a.207.207 0 0 0-.055.152c0 .055.024.109.067.146l.759.686c.036.036.09.054.145.054z" fill="#f36c35"/><path d="M18.892 5.138c.146 0 .407.243.88.504.686.376 1.177.115 2.373.479 1.195.364 1.529 1.341 1.687 1.851.158.51-.279 2.464-.279 2.464l-3.611 2.197-5.025.303-.759-.686c.376-.407.249-.886.498-1.371.212-.407.825-.437 1.007-.437h.055c-.085-.121-.212-.158-.34-.158-.231 0-.461.127-.461.127-.261-.874 1.007-1.396 1.007-1.396.146.055.261.073.358.073.243 0 .328-.127.328-.127-1.165-.158-1.165-.904-1.165-.904 1.28-.012 1.323-.303 1.936-.947.449-.467 1.026-.534 1.299-.534.097 0 .158.006.158.006-.176-.322-.188-.904-.085-1.28.029-.115.072-.164.139-.164m0-.419c-.127 0-.431.049-.546.473a2.668 2.668 0 0 0-.055.995 2.11 2.11 0 0 0-1.214.631l-.249.267c-.382.425-.485.54-1.396.552a.414.414 0 0 0-.413.419c0 .03.006.425.346.783-.103.061-.212.14-.316.231-.461.394-.661.868-.564 1.347a.943.943 0 0 0-.206.273c-.134.255-.176.498-.218.716-.049.267-.085.419-.212.558a.416.416 0 0 0 .031.594l.759.686a.434.434 0 0 0 .279.109h.024l5.025-.303a.441.441 0 0 0 .194-.061l3.611-2.197a.409.409 0 0 0 .188-.267c.109-.485.449-2.106.267-2.676-.146-.461-.528-1.687-1.966-2.124-.613-.188-1.062-.218-1.42-.249-.358-.024-.595-.042-.874-.2-.182-.103-.328-.2-.461-.285-.232-.156-.402-.272-.614-.272z"/><path d="M6.039 17.985c.134 0 .279-.03.455-.091.34-.121.643-.455.843-.91.206-.479.243-.971.097-1.323-.279-.649-.928-.692-1.323-.71-.049 0-.097-.006-.14-.012a44.778 44.778 0 0 0-1.76-.073c-.006 0-.176-.006-.37-.006-.206 0-.352.006-.443.024-.212.036-.358.134-.419.279-.036.097-.055.261.103.467.218.291 1.28 1.286 1.881 1.736.115.085.212.17.297.237.263.212.463.382.779.382z" fill="#fae152"/><path d="M3.842 15.066c.188 0 .364.006.364.006s1.365.036 1.748.073c.382.036 1.032-.006 1.286.595.255.601-.188 1.729-.813 1.954a1.148 1.148 0 0 1-.382.079c-.328 0-.498-.237-.953-.583-.601-.449-1.645-1.438-1.839-1.699-.194-.255-.024-.376.182-.413.092-.012.256-.012.407-.012m0-.419c-.291 0-.413.012-.479.024-.388.067-.528.285-.576.407s-.097.37.127.668c.231.303 1.299 1.311 1.924 1.778.109.085.206.164.291.231.279.231.522.431.91.431.158 0 .328-.036.522-.109.388-.14.74-.516.959-1.019.231-.528.267-1.086.097-1.487-.328-.771-1.092-.813-1.499-.837-.049 0-.091-.006-.134-.012a46.42 46.42 0 0 0-1.766-.073c0 .004-.176-.002-.376-.002z"/><path d="M9.207 14.465c.728 0 1.602-.607 1.772-1.226.188-.68-.303-1.117-.595-1.378-.036-.03-.073-.067-.103-.097-.279-.267-1.293-1.11-1.335-1.147-.042-.036-.449-.382-.649-.492a.632.632 0 0 0-.303-.091c-.188 0-.394.127-.407.479-.006.364.206 1.808.401 2.53.036.14.061.261.085.37.103.473.17.783.789.989a.846.846 0 0 0 .345.063z" fill="#fae152"/><path d="M7.987 10.248a.48.48 0 0 1 .206.061c.188.103.619.467.619.467s1.044.874 1.323 1.141c.279.261.813.637.643 1.268-.146.546-.947 1.068-1.572 1.068a.85.85 0 0 1-.279-.042c-.631-.212-.546-.492-.74-1.22s-.401-2.148-.394-2.47c.006-.2.085-.273.194-.273m0-.413c-.297 0-.601.212-.613.68-.006.382.206 1.832.407 2.585.036.134.061.255.085.364.103.485.194.904.928 1.147.127.042.267.061.413.061.819 0 1.778-.668 1.972-1.378.218-.807-.352-1.317-.655-1.59-.036-.03-.067-.061-.097-.091-.285-.267-1.299-1.117-1.341-1.153-.08-.067-.474-.4-.686-.516a.914.914 0 0 0-.413-.109z"/><path d="M6.706 21.62c.267 0 .485-.109.734-.37s.37-.692.346-1.189c-.03-.522-.218-.977-.51-1.226-.2-.17-.437-.261-.698-.261-.303 0-.583.115-.807.212-.042.018-.091.036-.127.055-.358.14-1.553.698-1.602.722-.055.024-.54.243-.722.376-.176.127-.261.279-.249.437.006.103.067.255.297.37.322.158 1.723.576 2.458.71.14.024.267.055.376.079.201.054.353.085.504.085z" fill="#fae152"/><path d="M6.585 18.786c.188 0 .376.055.558.212.498.425.601 1.626.146 2.112-.218.231-.388.309-.583.309-.212 0-.455-.085-.837-.158-.74-.134-2.118-.552-2.403-.692-.285-.146-.194-.328-.018-.455.176-.127.686-.358.686-.358s1.238-.576 1.596-.716c.224-.09.527-.254.855-.254m0-.419c-.346 0-.661.134-.886.231-.042.018-.085.036-.121.055-.364.146-1.566.704-1.614.722-.091.042-.564.255-.759.401-.316.231-.346.492-.334.625.012.127.079.37.413.54.34.17 1.748.589 2.512.728.14.024.261.055.364.079.2.049.37.085.546.085.322 0 .595-.134.886-.437.285-.303.431-.789.401-1.341-.03-.576-.249-1.092-.583-1.371a1.193 1.193 0 0 0-.825-.317z"/><path d="M17.909 14.72l-.079-.097c-1.426-1.723-3.471-2.713-5.601-2.713-.231 0-.461.012-.692.036-2.397.237-4.272 1.347-5.419 3.198-.928 1.499-1.347 3.471-1.153 5.407A8.313 8.313 0 0 0 6.5 24.623l.085.115L17.909 14.72z" fill="#3da448"/><path d="M12.229 12.038c2.154 0 4.139 1.019 5.498 2.664L6.609 24.545a8.164 8.164 0 0 1-1.511-4.005c-.34-3.435 1.22-7.949 6.457-8.465a6.09 6.09 0 0 1 .674-.037m0-.255c-.231 0-.467.012-.704.036-2.439.243-4.345 1.371-5.51 3.259-.941 1.523-1.365 3.526-1.171 5.486a8.438 8.438 0 0 0 1.56 4.133l.164.231.212-.188 11.123-9.843.188-.164-.158-.194c-1.457-1.749-3.532-2.756-5.704-2.756z"/><path d="M16.058 17.936a.122.122 0 0 0 .061-.018c.012-.006.977-.595 1.632-.637.042 0 .079-.03.097-.067a.113.113 0 0 0-.012-.115l-1.311-1.645a.117.117 0 0 0-.085-.042h-1.359a.122.122 0 0 0-.103.067l-.473 1.141a.117.117 0 0 0 .036.134l1.462 1.153c.006.017.03.029.055.029z" fill="#e98624"/><path d="M15.069 15.527h1.359l1.311 1.645c-.686.042-1.681.649-1.681.649l-1.462-1.153.473-1.141m0-.218a.223.223 0 0 0-.206.14l-.473 1.141a.226.226 0 0 0 .067.261l1.462 1.153c.042.03.091.049.14.049a.2.2 0 0 0 .115-.036c.261-.164 1.056-.589 1.578-.619a.227.227 0 0 0 .194-.134.216.216 0 0 0-.03-.231l-1.311-1.645a.222.222 0 0 0-.176-.085H15.07l-.001.006z" fill="#fff"/><path d="M11.865 13.949c.516 0 1.177-.218 1.456-.637.358-.54.067-1.056-.134-1.396-.024-.042-.049-.085-.067-.121-.182-.34-.868-1.456-.898-1.505-.012-.018-.297-.498-.449-.661-.103-.115-.212-.17-.322-.17-.097 0-.231.049-.316.285-.109.303-.37 1.729-.419 2.5a17.61 17.61 0 0 1-.036.388c-.055.461-.085.746.394 1.104.196.141.469.213.791.213z" fill="#fae152"/><path d="M11.452 9.574c.079 0 .164.055.237.134.146.158.437.643.437.643s.716 1.159.898 1.499c.182.34.57.862.206 1.402-.237.358-.831.583-1.365.583-.273 0-.534-.061-.716-.2-.534-.401-.364-.643-.316-1.39.049-.752.303-2.166.413-2.47.054-.146.127-.201.206-.201m0-.224c-.109 0-.309.049-.419.358-.121.34-.376 1.784-.425 2.53-.012.146-.024.267-.036.382-.055.467-.091.807.437 1.208.212.158.504.243.85.243.528 0 1.238-.212 1.553-.686.394-.595.067-1.171-.127-1.511-.024-.042-.049-.085-.067-.121-.182-.34-.874-1.462-.898-1.511-.03-.055-.309-.51-.461-.68-.128-.14-.268-.212-.407-.212z"/><path d="M8.29 16.419c.704 0 1.578-.771 1.638-1.444.061-.643-.443-.959-.783-1.165-.042-.024-.085-.055-.121-.079a43.523 43.523 0 0 0-1.511-.892c-.018-.012-.498-.291-.71-.364a.647.647 0 0 0-.2-.036c-.127 0-.2.055-.237.097-.066.078-.09.194-.066.339.049.316.504 1.699.825 2.397.061.134.109.249.152.358.176.431.279.692.874.783.048 0 .097.006.139.006z" fill="#fae152"/><path d="M6.615 12.548a.56.56 0 0 1 .164.03c.2.067.686.358.686.358s1.183.68 1.505.892c.322.212.91.485.85 1.135-.055.613-.88 1.341-1.529 1.341-.036 0-.079 0-.115-.006-.655-.097-.625-.388-.941-1.074-.316-.68-.765-2.045-.819-2.367-.031-.231.066-.309.199-.309m0-.225c-.17 0-.273.073-.322.14-.091.103-.121.249-.091.431.055.358.522 1.748.831 2.427.061.134.109.249.152.352.176.437.303.752.959.85.049.006.097.012.146.012.771 0 1.687-.807 1.754-1.547.067-.71-.498-1.062-.831-1.268-.042-.024-.079-.049-.115-.073-.322-.212-1.469-.868-1.511-.898-.055-.03-.51-.303-.728-.376a.752.752 0 0 0-.244-.05z"/><path d="M6.755 20.782c.14 0 .291-.042.479-.127.303-.14.558-.473.71-.922.158-.467.152-.947-.012-1.25-.261-.485-.728-.546-1.11-.546-.061 0-.127 0-.182.006H6.5c-.388 0-1.699.079-1.754.079-.024 0-.576.03-.795.085-.176.042-.291.133-.321.248-.036.115.006.237.121.364.212.237 1.353 1.141 2.003 1.547l.322.212c.254.177.436.304.679.304z" fill="#fae152"/><path d="M6.822 18.045c.358 0 .777.055 1.007.485.309.576-.036 1.736-.643 2.015a1.06 1.06 0 0 1-.431.115c-.291 0-.492-.212-.947-.498-.637-.394-1.766-1.293-1.978-1.529s-.061-.376.146-.431c.206-.055.771-.079.771-.079s1.359-.079 1.748-.079c.096.008.205.001.327.001m0-.224c-.067 0-.127 0-.188.006h-.14c-.388 0-1.699.079-1.754.079-.061 0-.595.03-.819.085-.212.055-.358.17-.401.328-.03.103-.03.273.146.467.243.267 1.396 1.171 2.027 1.572.121.073.225.146.316.212.261.176.461.322.746.322.158 0 .322-.042.522-.14.328-.152.607-.516.765-.989.17-.498.158-1.001-.024-1.341-.316-.601-.954-.601-1.196-.601z"/><path d="M4.212 25.303c.37 0 .874-.218 1.038-.576.182-.401-.073-.704-.225-.892-.018-.024-.036-.042-.049-.061-.14-.182-.643-.765-.668-.789-.024-.024-.225-.267-.334-.352a.384.384 0 0 0-.231-.091c-.055 0-.231.018-.279.273-.036.212-.049 1.068 0 1.511l.018.225c.018.285.024.492.382.68.1.048.221.072.348.072z" fill="#fae152"/><path d="M3.745 22.706c.042 0 .091.024.134.055.097.079.316.328.316.328s.522.601.661.777c.14.176.413.443.255.789-.121.267-.546.479-.886.479a.56.56 0 0 1-.273-.061c-.346-.182-.273-.334-.316-.771-.042-.437-.03-1.28 0-1.462.012-.098.055-.134.109-.134m0-.322c-.164 0-.382.103-.431.407-.042.225-.049 1.092-.006 1.553l.018.212c.018.285.03.583.473.813a.928.928 0 0 0 .425.097c.431 0 .989-.249 1.183-.674.218-.485-.091-.874-.243-1.056-.018-.018-.03-.042-.049-.061-.14-.182-.649-.771-.668-.789a3.32 3.32 0 0 0-.358-.376.611.611 0 0 0-.344-.126z"/><path d="M1.882 26.074c.261 0 .613-.109.771-.352.2-.309.024-.601-.067-.759-.012-.018-.024-.036-.03-.055-.085-.158-.413-.674-.425-.698-.024-.036-.146-.237-.225-.322a.305.305 0 0 0-.224-.108c-.055 0-.182.018-.249.206-.055.164-.17.837-.188 1.189-.006.067-.012.121-.012.176-.024.225-.042.407.231.607a.751.751 0 0 0 .418.116z" fill="#fae152"/><path d="M1.682 23.938c.036 0 .079.024.109.061.067.073.206.297.206.297s.34.534.425.692.267.394.103.649c-.109.17-.388.279-.637.279a.542.542 0 0 1-.322-.085c-.249-.182-.17-.297-.152-.643.018-.346.127-1.001.176-1.147.019-.073.055-.103.092-.103m0-.316c-.067 0-.297.024-.401.316-.067.188-.176.892-.194 1.232-.006.061-.006.115-.012.164-.024.231-.049.498.297.752a.861.861 0 0 0 .51.152c.316 0 .716-.134.91-.425.255-.388.042-.752-.061-.928-.012-.018-.018-.036-.03-.049a25.067 25.067 0 0 0-.431-.704c-.049-.073-.164-.261-.243-.346a.454.454 0 0 0-.345-.164z"/><path d="M18.989 26.917l-.055-.091c-.231-.382-1.086-.813-1.25-.892-.225-.328-.922-.576-1.208-.661.819-1.365 1.28-2.452.109-3.811-.601-.698-1.487-1.032-2.124-1.189-.643-.158-1.159-.176-1.238-.182-.03-.006-.055-.012-.091-.012-.504 0-1.59.801-2.245 1.517-.346.376-.746.91-.71 1.323.067.759.686 1.274.983 1.523.055.049.121.103.134.121.012.042-.061.237-.134.419-.097.261-.237.613-.376 1.104-.34 1.195.297 1.541.801 1.693.607.188 4.903.291 5.091.291h.024l2.289-1.153z" fill="#e98624"/><path d="M13.133 20.181c.03 0 .055 0 .079.006 0 0 2.179.024 3.307 1.335 1.129 1.311.71 2.336-.182 3.805 0 0 1.05.291 1.286.68 0 0 .995.473 1.232.868l-2.179 1.104s-4.46-.103-5.061-.291c-.601-.182-1.026-.552-.734-1.572.291-1.026.576-1.469.498-1.602-.079-.134-1.026-.68-1.104-1.602-.079-.874 2.154-2.731 2.858-2.731m0-.194c-.54 0-1.632.801-2.318 1.547-.358.388-.771.947-.734 1.402.067.801.71 1.329 1.013 1.59.03.03.073.061.097.079a2.812 2.812 0 0 1-.121.352c-.103.261-.237.619-.376 1.11-.273.959.012 1.553.862 1.808.613.188 4.654.285 5.116.297h.049l.042-.024 2.179-1.104.182-.091-.109-.176c-.237-.394-1.044-.807-1.268-.916-.231-.303-.795-.534-1.123-.643.801-1.347 1.22-2.446.036-3.817-1.123-1.305-3.186-1.396-3.429-1.402a.496.496 0 0 0-.098-.012z"/><path d="M18.782 27.639c.322-.006.516-.006.583-.158.061-.134-.042-.291-.164-.437-.285-.346-.498-.546-.74-.546a.447.447 0 0 0-.297.115.663.663 0 0 0-.255.485.58.58 0 0 0 .097.37.144.144 0 0 0 .03.049c.079.085.249.127.528.127.03.002.218-.005.218-.005z" fill="#fff"/><path d="M18.467 26.632c.194 0 .394.2.637.498.34.413.073.376-.461.388h-.073c-.461 0-.449-.109-.449-.109-.109-.109-.158-.473.121-.692.079-.061.152-.091.225-.085m0-.261a.6.6 0 0 0-.376.14.78.78 0 0 0-.188 1.025c.012.024.03.049.049.067.103.115.291.17.625.17h.212c.346-.006.595-.006.698-.231.103-.225-.079-.449-.176-.57-.262-.322-.523-.601-.844-.601z"/><path d="M18.078 27.9c.322-.006.516-.006.583-.158.061-.134-.042-.291-.164-.437-.237-.285-.473-.546-.74-.546a.447.447 0 0 0-.297.115.663.663 0 0 0-.255.485.58.58 0 0 0 .097.37.144.144 0 0 0 .03.049c.079.085.243.127.528.127.03-.005.218-.005.218-.005z" fill="#fff"/><path d="M17.763 26.887c.194 0 .394.2.637.498.34.413.073.376-.461.388h-.073c-.461 0-.449-.109-.449-.109-.109-.109-.158-.473.121-.692a.359.359 0 0 1 .225-.085m0-.261a.6.6 0 0 0-.376.14.77.77 0 0 0-.303.576.72.72 0 0 0 .164.516c.109.115.291.17.625.17h.212c.346-.006.595-.012.698-.237.103-.225-.079-.449-.176-.57-.268-.31-.522-.595-.844-.595z"/><path d="M16.889 28.155c.322-.006.516-.006.583-.158.061-.134-.042-.291-.164-.437-.285-.346-.498-.546-.74-.546a.447.447 0 0 0-.297.115.663.663 0 0 0-.255.485.58.58 0 0 0 .097.37.144.144 0 0 0 .03.049c.079.085.249.127.534.127.03-.005.212-.005.212-.005z" fill="#fff"/><path d="M16.573 27.142c.194 0 .394.2.637.498.34.413.073.376-.461.388h-.073c-.461 0-.449-.109-.449-.109-.109-.109-.158-.473.121-.692a.363.363 0 0 1 .225-.085m0-.255a.6.6 0 0 0-.376.14.78.78 0 0 0-.188 1.025c.012.024.03.049.049.067.103.115.291.17.625.17h.212c.346-.006.595-.006.698-.231s-.079-.449-.176-.57c-.261-.322-.516-.601-.844-.601z"/><path d="M16.913 27.269c.03 0 .067-.012.091-.036a.131.131 0 0 0 0-.182c-.449-.449-.898-.437-.916-.437a.121.121 0 0 0-.121.134c0 .073.061.121.134.127.018 0 .37 0 .728.364.018.018.048.03.084.03zm1.123-.333c.03 0 .067-.012.091-.036a.131.131 0 0 0 0-.182c-.449-.449-.898-.437-.916-.437a.121.121 0 0 0-.121.134c0 .073.061.121.134.127.012 0 .37 0 .728.364.023.017.054.03.084.03z"/><path d="M6.476 24.599c1.371 0 3.781-.765 4.703-1.705 1.153-1.177 1.645-3.465 1.645-3.744.042-.2 1.153-1.396 2.203-2.433.152-.103 1.657-1.159 1.808-2.567.085-.777.279-1.056.425-1.056.018 0 .03.006.03.006l.152.079.03-.17c.006-.024.115-.601-.225-1.056-.218-.297-.57-.473-1.038-.528a1.625 1.625 0 0 0-.164-.012c-1.147 0-1.572 1.323-1.851 2.203-.061.182-.109.346-.158.473-.134.334-.704.613-1.311.91-.649.322-1.39.68-1.772 1.214-.346.485-.485 1.384-.637 2.336-.164 1.05-.328 2.13-.777 2.524-.595.528-2.087 1.286-3.234 1.286-.431 0-.759-.109-.989-.316l-.06-.053-.073.03c-.018.006-.504.212-.649.71-.109.376.006.801.334 1.274.285.395.825.595 1.608.595z" fill="#fff"/><path d="M16.052 11.546c.049 0 .103 0 .152.006 1.408.152 1.153 1.432 1.153 1.432s-.036-.018-.091-.018c-.146 0-.437.14-.552 1.171-.152 1.408-1.766 2.482-1.766 2.482s-2.251 2.227-2.251 2.53c0 .309-.51 2.53-1.608 3.653-.771.789-3.022 1.669-4.612 1.669-.674 0-1.226-.158-1.499-.546-.922-1.305.255-1.79.255-1.79.267.249.649.352 1.074.352 1.159 0 2.67-.74 3.319-1.323.892-.795.716-3.884 1.432-4.885.716-.995 2.785-1.378 3.095-2.148.297-.734.618-2.585 1.899-2.585m0-.255c-1.238 0-1.681 1.378-1.972 2.288-.061.182-.109.34-.158.461-.115.285-.692.57-1.244.843-.668.328-1.42.698-1.82 1.25-.364.51-.51 1.42-.655 2.391-.152.977-.322 2.081-.734 2.452-.583.516-2.039 1.256-3.149 1.256-.394 0-.698-.097-.904-.279l-.121-.109-.152.061c-.024.012-.558.237-.722.795-.121.413 0 .88.352 1.384.303.431.88.655 1.711.655 1.59 0 3.914-.85 4.794-1.748 1.092-1.123 1.657-3.319 1.681-3.805.121-.261 1.177-1.396 2.16-2.367.206-.14 1.699-1.22 1.857-2.652.085-.771.261-.916.291-.935l.279.146.067-.334c.006-.024.127-.655-.243-1.159-.243-.328-.619-.522-1.129-.576-.074-.018-.135-.018-.189-.018z"/><path d="M12.769 27.3c.085 0 .176-.012.273-.03.036-.006 4.381-.831 6.214-4.6l2.227-3.24a.106.106 0 0 0 .018-.085.119.119 0 0 0-.049-.073l-3.283-2.021a.102.102 0 0 0-.061-.018h-.012c-.055.006-1.408.17-2.446 1.013-1.001.813-1.469 2.573-1.529 2.797a12.957 12.957 0 0 0-1.535 2.986c-.036.085-.898 2.227-.382 2.992.122.188.31.279.565.279z" fill="#ffd191"/><path d="M18.109 17.348l3.283 2.021-2.233 3.247c-1.827 3.768-6.141 4.545-6.141 4.545-.091.018-.176.03-.249.03-1.353 0-.079-3.119-.079-3.119.643-1.766 1.535-2.973 1.535-2.973s.467-1.924 1.499-2.761c1.025-.839 2.385-.99 2.385-.99m0-.225h-.024c-.061.006-1.438.17-2.506 1.038-1.001.813-1.481 2.53-1.56 2.84-.158.218-.947 1.365-1.535 2.992-.103.255-.91 2.3-.376 3.095.103.152.297.334.661.334.091 0 .194-.012.297-.036.091-.018 1.153-.225 2.446-.88 2.203-1.123 3.307-2.67 3.847-3.774l2.227-3.228c.036-.049.049-.115.036-.176a.216.216 0 0 0-.103-.146l-3.289-2.027a.2.2 0 0 0-.121-.032z"/><path d="M18.091 24.472h.103l-.012-.225c-.024 0-2.409.103-4.636-2.106l-.158.158c2.063 2.051 4.211 2.173 4.703 2.173zM16.671 25.698h.103l-.012-.225c-.024 0-2.409.103-4.636-2.106l-.158.158c2.057 2.051 4.205 2.173 4.703 2.173zM15.026 26.729h.103l-.012-.225c-.024 0-2.409.103-4.636-2.106l-.164.158c2.069 2.052 4.211 2.173 4.709 2.173z"/><path d="M15.202 28.41l-.055-.091c-.231-.382-1.086-.813-1.25-.892-.225-.328-.922-.576-1.208-.661.819-1.365 1.28-2.452.109-3.811-.601-.698-1.487-1.032-2.124-1.189-.643-.158-1.159-.176-1.238-.182-.03-.006-.055-.012-.091-.012-.504 0-1.59.801-2.245 1.517-.346.376-.746.91-.71 1.323.067.759.686 1.274.977 1.523.061.049.121.103.134.121.012.042-.061.237-.134.419-.097.261-.237.613-.376 1.104-.34 1.195.297 1.541.801 1.693.607.188 4.903.291 5.091.291h.024l2.295-1.153z" fill="#e98624"/><path d="M9.352 21.674c.03 0 .055 0 .079.006 0 0 2.179.024 3.307 1.335s.71 2.336-.182 3.805c0 0 1.05.291 1.286.68 0 0 .995.473 1.232.868l-2.185 1.104s-4.46-.103-5.061-.291c-.601-.182-1.026-.552-.734-1.572.291-1.026.576-1.469.498-1.602-.079-.134-1.026-.68-1.104-1.602-.073-.88 2.154-2.731 2.864-2.731m0-.194c-.54 0-1.632.801-2.318 1.547-.358.388-.771.947-.734 1.402.067.801.71 1.329 1.013 1.59.03.03.073.061.097.079a2.812 2.812 0 0 1-.121.352c-.103.261-.237.619-.376 1.11-.273.959.012 1.553.862 1.808.613.188 4.654.285 5.116.297h.049l.042-.024 2.179-1.104.182-.091-.109-.176c-.237-.394-1.044-.807-1.268-.916-.231-.303-.795-.534-1.123-.643.801-1.347 1.22-2.446.036-3.817-1.123-1.305-3.186-1.396-3.429-1.402-.031-.006-.061-.012-.098-.012z"/><path d="M15.002 29.132c.322-.006.516-.006.583-.158.061-.134-.042-.291-.164-.437-.237-.285-.473-.546-.74-.546a.447.447 0 0 0-.297.115.663.663 0 0 0-.255.485.58.58 0 0 0 .097.37.144.144 0 0 0 .03.049c.079.085.249.127.534.127.024-.005.212-.005.212-.005z" fill="#fff"/><path d="M14.686 28.119c.194 0 .394.2.637.498.34.413.073.376-.461.388h-.073c-.461 0-.449-.109-.449-.109-.109-.109-.158-.473.121-.692a.4.4 0 0 1 .225-.085m0-.255a.6.6 0 0 0-.376.14.77.77 0 0 0-.303.576.72.72 0 0 0 .164.516c.103.115.291.17.625.17h.212c.346-.006.595-.012.698-.237.103-.225-.079-.449-.176-.57-.267-.316-.522-.595-.844-.595z"/><path d="M14.292 29.387c.322-.006.516-.006.583-.158.061-.127-.024-.267-.164-.437-.285-.346-.498-.546-.74-.546a.447.447 0 0 0-.297.115.663.663 0 0 0-.255.485.58.58 0 0 0 .097.37.144.144 0 0 0 .03.049c.079.085.249.127.534.127.03.001.212-.005.212-.005z" fill="#fff"/><path d="M13.976 28.374c.194 0 .394.2.637.498.34.413.073.376-.461.388h-.073c-.461 0-.449-.109-.449-.109-.109-.109-.158-.473.121-.692a.4.4 0 0 1 .225-.085m0-.255a.6.6 0 0 0-.376.14.78.78 0 0 0-.188 1.025c.012.024.03.049.049.067.103.115.291.17.625.17h.212c.346-.006.595-.012.698-.231.103-.225-.079-.449-.176-.57-.261-.322-.516-.601-.844-.601z"/><path d="M13.109 29.642c.322-.006.516-.006.583-.158.061-.127-.024-.267-.164-.437-.237-.285-.473-.546-.74-.546a.447.447 0 0 0-.297.115.663.663 0 0 0-.255.485.58.58 0 0 0 .097.37.144.144 0 0 0 .03.049c.079.085.249.127.528.127.029.001.218-.005.218-.005z" fill="#fff"/><path d="M12.793 28.635c.194 0 .394.2.637.498.34.413.073.376-.461.388h-.073c-.461 0-.449-.109-.449-.109-.109-.109-.158-.473.121-.692a.359.359 0 0 1 .225-.085m0-.261a.6.6 0 0 0-.376.14.77.77 0 0 0-.303.576.72.72 0 0 0 .164.516c.103.115.291.17.625.17h.212c.346-.006.595-.012.698-.237.103-.225-.079-.449-.176-.57-.261-.31-.522-.595-.844-.595z"/><path d="M13.127 28.762c.03 0 .067-.012.091-.036a.131.131 0 0 0 0-.182c-.449-.449-.898-.437-.916-.437-.073 0-.127.061-.127.134 0 .073.061.121.134.121.012 0 .37 0 .728.364a.14.14 0 0 0 .09.036zm1.128-.34c.03 0 .067-.012.091-.036a.131.131 0 0 0 0-.182c-.449-.449-.898-.437-.916-.437-.073 0-.127.061-.127.134 0 .073.061.127.134.127.018 0 .37 0 .728.364.024.018.06.03.09.03zm-1.79-2.658c.164 0 .279-.194.346-.37.03.097.079.2.158.261.073.055.158.073.261.055.036-.006.055-.042.049-.079s-.042-.055-.079-.049c-.061.012-.109.006-.152-.03-.115-.091-.146-.346-.152-.431 0-.03-.024-.061-.055-.061-.03-.006-.061.018-.067.049-.055.218-.188.528-.309.528h-.006c-.14-.018-.261-.316-.303-.504a.06.06 0 0 0-.061-.049.06.06 0 0 0-.061.049c-.036.115-.164.419-.358.437-.188.012-.328-.303-.364-.431-.012-.036-.049-.055-.079-.042-.036.012-.055.049-.042.079.006.024.164.522.473.522h.024c.2-.012.328-.206.401-.352.061.17.176.401.358.425 0-.007.006-.007.018-.007z"/><path d="M11.968 26.323h.006c.176-.006.334-.194.431-.34.036.14.109.316.279.322h.012c.249 0 .504-.455.534-.504.018-.03.006-.073-.024-.085-.03-.018-.073-.006-.085.024-.103.182-.297.437-.419.437h-.006c-.134-.006-.182-.285-.182-.382a.066.066 0 0 0-.049-.061c-.03-.006-.055.006-.073.03-.085.164-.273.419-.419.425-.115.006-.212-.34-.237-.57-.006-.036-.036-.061-.073-.055-.036.006-.061.036-.055.073.014.109.087.686.36.686zM21.082 18.998l2.561.061s-.328 1.444-.158 1.808l-.249-.03s.127.364-.328.862h.018c.079 0 .382-.036.546-.583l1.274.158-.552 1.462-.473-.346s-1.001-.425-2.391-.425h-.073l-.175-2.967m0-.352a.34.34 0 0 0-.255.109.365.365 0 0 0-.097.267l.17 2.967a.353.353 0 0 0 .352.334h.079c1.159 0 2.039.316 2.221.382l.437.322a.369.369 0 0 0 .206.067c.036 0 .067-.006.103-.012a.365.365 0 0 0 .231-.212l.552-1.462a.352.352 0 0 0-.03-.309.374.374 0 0 0-.261-.17l-.953-.115c-.006-.03-.012-.061-.03-.091-.061-.158.024-.898.182-1.578a.35.35 0 0 0-.067-.297.34.34 0 0 0-.267-.134l-2.561-.061c-.006-.007-.012-.007-.012-.007z"/><path d="M23.722 22.39s-1.038-.437-2.464-.425l-.176-2.967 2.561.061s-.328 1.444-.158 1.808l-.249-.03s.127.364-.328.862c0 0 .376.049.564-.583l1.274.158-.552 1.462-.472-.346z" fill="#e98624"/><path d="M24.723 22.245a.114.114 0 0 0 .091-.049.108.108 0 0 0-.03-.146l-.643-.407a.108.108 0 0 0-.146.03.108.108 0 0 0 .03.146l.643.407a.096.096 0 0 0 .055.019z"/><path d="M24.808 23.216c.055 0 .097-.024.115-.055.176-.176-.115-.771-.115-.777-.146-.291-.322-.443-.522-.443a.424.424 0 0 0-.425.346c-.024.121 0 .37.37.637.274.201.462.292.577.292z" fill="#fff"/><path d="M24.286 22.026c.212 0 .358.212.449.394.103.2.231.607.127.686 0 0-.006.024-.049.024-.067 0-.206-.049-.528-.273-.546-.382-.34-.752-.085-.825.032 0 .056-.006.086-.006m0-.164a.516.516 0 0 0-.503.419c-.024.146-.006.425.407.716.382.267.54.303.619.303a.217.217 0 0 0 .182-.085c.206-.218-.073-.801-.103-.868-.207-.4-.438-.485-.602-.485z"/><path d="M25.457 22.572c.061 0 .109-.024.127-.061.194-.194-.127-.856-.127-.862-.164-.322-.358-.492-.576-.492a.422.422 0 0 0-.121.018.476.476 0 0 0-.352.376c-.024.14 0 .413.413.704.303.214.515.317.636.317z" fill="#fff"/><path d="M24.881 21.25c.237 0 .401.237.498.437.109.225.255.68.14.765 0 0-.006.024-.055.024-.073 0-.231-.055-.583-.303-.607-.425-.376-.837-.091-.916.03-.001.061-.007.091-.007m0-.183a.57.57 0 0 0-.565.467c-.03.158-.006.473.449.795.425.297.595.334.692.334a.24.24 0 0 0 .2-.091c.225-.243-.079-.886-.115-.965-.218-.449-.479-.54-.661-.54z"/><path d="M25.84 21.432c.115 0 .17-.049.194-.097.2-.267-.297-1.007-.303-1.019-.225-.328-.461-.492-.704-.492a.552.552 0 0 0-.218.049.58.58 0 0 0-.358.51c-.006.17.067.498.619.777.363.181.612.272.77.272z" fill="#fff"/><path d="M25.021 19.939c.255 0 .473.237.613.443.17.249.425.771.297.898 0 0-.006.042-.097.042-.097 0-.303-.049-.722-.261-.801-.407-.595-.941-.267-1.086a.507.507 0 0 1 .176-.036m0-.225a.693.693 0 0 0-.686.662c-.006.194.073.57.68.88.504.261.71.285.825.285.152 0 .243-.067.291-.152.231-.334-.249-1.056-.309-1.141-.249-.352-.516-.534-.801-.534z"/><path d="M24.687 21.061c.127 0 .17-.049.188-.085.164-.218-.322-.734-.328-.74-.2-.206-.394-.309-.589-.309a.53.53 0 0 0-.218.049c-.176.079-.285.243-.279.407.006.158.115.37.583.528.297.102.509.15.643.15z" fill="#fff"/><path d="M23.965 20.018c.206 0 .394.152.522.279.164.17.413.534.316.631 0 0 0 .042-.109.042-.097 0-.273-.03-.607-.14-.716-.243-.576-.643-.297-.771a.364.364 0 0 1 .175-.041m0-.176a.613.613 0 0 0-.255.055c-.212.097-.34.291-.328.498.012.182.127.437.643.607.303.103.522.152.668.152.164 0 .231-.067.267-.121.2-.279-.279-.795-.34-.85-.218-.232-.437-.341-.655-.341z"/><path d="M13.545 21.79c.164 0 .309-.018.437-.061.868-.279 1.827-1.778 1.912-1.918.097-.109.989-1.171.843-1.893-.152-.752-1.123-1.893-2.239-1.893-.049 0-.103 0-.152.006-1.244.109-2.725.965-3.131 3.028-.14.698 0 1.329.407 1.827.51.624 1.335.904 1.923.904z" fill="#858485"/><path d="M14.498 16.152c1.092 0 1.978 1.123 2.112 1.79.14.692-.819 1.79-.819 1.79s-.995 1.596-1.851 1.875a1.33 1.33 0 0 1-.394.055c-.983 0-2.561-.807-2.209-2.579.407-2.033 1.863-2.822 3.016-2.925.054 0 .097-.006.145-.006m0-.255c-.055 0-.109 0-.164.006-1.293.115-2.822 1.001-3.247 3.131-.146.74.006 1.408.437 1.936.54.655 1.402.953 2.021.953.176 0 .34-.024.473-.067.401-.134.862-.51 1.365-1.123.322-.394.558-.759.613-.843.055-.067.273-.322.473-.655.328-.534.461-.989.394-1.341-.162-.813-1.163-1.997-2.365-1.997v.255-.255z"/><path d="M12.702 18.482c.37 0 .674-.303.674-.674s-.303-.674-.674-.674c-.37 0-.674.303-.674.674s.304.674.674.674z" fill="#fff"/><path d="M12.702 17.232a.576.576 0 1 1 .001 1.151.576.576 0 0 1-.001-1.151m0-.194a.772.772 0 0 0 0 1.542.772.772 0 0 0 0-1.542z"/><path d="M15.973 17.378c.14 0 .249-.049.309-.14.067-.097.073-.237.006-.376a.919.919 0 0 0-.303-.346.877.877 0 0 0-.473-.164c-.14 0-.249.049-.309.14-.067.103-.073.237-.006.376.061.127.17.255.309.346a.838.838 0 0 0 .467.164z" fill="#fff"/><path d="M15.512 16.425c.127 0 .285.049.425.152.261.182.388.455.279.613-.049.073-.14.109-.243.109a.746.746 0 0 1-.425-.152c-.261-.182-.388-.455-.279-.613.048-.072.133-.109.243-.109m0-.158c-.164 0-.297.061-.376.176-.085.121-.091.291-.012.455.067.14.182.279.334.382a.928.928 0 0 0 .516.176c.164 0 .297-.061.376-.176.085-.121.091-.291.012-.455a.986.986 0 0 0-.334-.382.916.916 0 0 0-.516-.176z"/><path d="M12.21 21.462c.2 0 .364-.091.437-.237.109-.237-.055-.54-.364-.686a.772.772 0 0 0-.328-.073c-.2 0-.364.091-.437.237-.109.237.055.54.364.686a.882.882 0 0 0 .328.073z" fill="#fff"/><path d="M11.949 20.546a.74.74 0 0 1 .291.067c.267.127.413.382.328.576-.055.121-.194.188-.358.188a.74.74 0 0 1-.291-.067c-.267-.127-.413-.382-.328-.576.061-.122.195-.188.358-.188m0-.17c-.237 0-.425.109-.51.285-.134.279.049.631.407.801a.858.858 0 0 0 .364.085c.237 0 .425-.109.51-.285.134-.279-.049-.631-.407-.801a.855.855 0 0 0-.364-.085z"/><path d="M15.979 22.688c.085 0 .291 0 1.614-3.356l.03-.079-.061-.055c-.309-.255-1.141-.941-1.274-1.104-.14-.164-.437-.267-.771-.267-.249 0-.504.061-.734.176-.619.303-1.924 1.566-1.505 2.901.176.558.655 1.019 1.426 1.378.54.249 1.086.376 1.25.407l.025-.001z" fill="#e98624"/><path d="M15.518 17.936c.322 0 .583.109.686.231.17.206 1.286 1.117 1.286 1.117s-1.299 3.289-1.511 3.289h-.006c-.2-.036-2.191-.449-2.585-1.705-.394-1.256.85-2.476 1.444-2.767.237-.116.473-.165.686-.165m0-.224c-.267 0-.534.067-.783.182-.643.316-2.003 1.638-1.56 3.034.461 1.462 2.743 1.857 2.761 1.857l.024.006h.018c.17 0 .279-.134.528-.637.134-.279.309-.661.516-1.141.346-.813.674-1.638.68-1.651l.061-.152-.127-.103c-.425-.346-1.147-.953-1.256-1.086-.165-.188-.498-.309-.862-.309z"/><path d="M17.411 23.798c.334 0 .637-.073.837-.206.601-.401 1.013-1.754 1.056-1.887.049-.103.504-1.11.237-1.632-.218-.425-.941-1.019-1.736-1.019-.176 0-.346.03-.504.091-.928.352-1.881 1.329-1.748 2.998.086 1.218 1.057 1.655 1.858 1.655z" fill="#858485"/><path d="M17.799 19.156c.728 0 1.432.552 1.645.965.255.504-.243 1.553-.243 1.553s-.419 1.438-1.013 1.833c-.176.115-.461.188-.777.188-.746 0-1.669-.407-1.76-1.56-.127-1.651.819-2.567 1.681-2.895.152-.06.31-.084.467-.084m0-.206c-.188 0-.37.03-.54.097-.965.37-1.948 1.378-1.814 3.101.097 1.208 1.056 1.748 1.966 1.748.352 0 .68-.085.892-.225.625-.413 1.032-1.717 1.092-1.93.079-.17.516-1.159.231-1.717-.231-.449-.995-1.074-1.827-1.074z"/><path d="M16.416 21.395a.608.608 0 0 0 .146-.018.5.5 0 0 0 .322-.255.534.534 0 0 0 .049-.407.544.544 0 0 0-.662-.376.5.5 0 0 0-.322.255.538.538 0 0 0 .467.801z" fill="#fff"/><path d="M16.416 20.4c.2 0 .388.134.443.334a.465.465 0 0 1-.449.588.462.462 0 0 1-.443-.334.465.465 0 0 1 .449-.588m0-.152a.517.517 0 0 0-.164.024.593.593 0 0 0-.37.291.618.618 0 0 0 .534.916.517.517 0 0 0 .164-.024.593.593 0 0 0 .37-.291.629.629 0 0 0 .055-.467.6.6 0 0 0-.589-.449z"/><path d="M18.679 19.842c.182 0 .316-.073.358-.194.03-.091.006-.194-.079-.291a.701.701 0 0 0-.309-.2.748.748 0 0 0-.249-.042c-.182 0-.316.073-.358.194-.03.091-.006.194.079.291a.701.701 0 0 0 .309.2c.085.023.17.042.249.042z" fill="#fff"/><path d="M18.406 19.174c.073 0 .152.012.225.042.243.085.394.267.346.413-.03.097-.152.152-.297.152a.65.65 0 0 1-.231-.042c-.243-.085-.394-.267-.346-.413.036-.097.157-.152.303-.152m0-.127c-.206 0-.37.091-.419.237a.376.376 0 0 0 .085.352.7.7 0 0 0 .34.218c.091.03.182.049.267.049.206 0 .37-.091.419-.237a.376.376 0 0 0-.085-.352.7.7 0 0 0-.34-.218.84.84 0 0 0-.267-.049z"/><path d="M16.665 23.786c.231 0 .413-.121.443-.297.03-.2-.158-.407-.431-.449-.036-.006-.073-.006-.109-.006-.231 0-.413.121-.443.297-.03.2.158.407.431.449.042.006.078.006.109.006z" fill="#fff"/><path d="M16.573 23.1c.03 0 .061 0 .097.006.231.036.401.206.376.37-.024.146-.182.243-.376.243-.03 0-.061 0-.097-.006-.231-.036-.401-.206-.376-.37.025-.146.182-.243.376-.243m0-.133c-.267 0-.473.146-.51.352-.036.243.176.473.485.522a.748.748 0 0 0 .115.012c.267 0 .473-.146.51-.352.042-.243-.176-.473-.485-.528-.036-.006-.078-.006-.115-.006z"/><path d="M22.011 20.879l-.322-.625-.03-.018c-.024-.012-.655-.358-1.529-.358-.322 0-.637.049-.941.146-.121.018-1.056.158-1.487.831-.455.71-.564 2.087-.055 2.512.273.231.473.273.661.309.146.03.285.061.467.182.461.309 1.098.425 1.123.425l.079.012 2.034-3.416z" fill="#e98624"/><path d="M20.13 19.993c.85 0 1.469.346 1.469.346l.279.54-1.96 3.301s-.631-.109-1.08-.413c-.449-.297-.655-.091-1.117-.485-.467-.394-.352-1.699.073-2.367.431-.674 1.42-.783 1.42-.783.321-.102.63-.139.916-.139m0-.224c-.328 0-.655.049-.965.146-.164.024-1.11.182-1.56.88-.443.692-.631 2.154-.03 2.664.297.249.516.297.71.334.14.03.261.055.431.164.479.322 1.141.437 1.165.443l.152.024.079-.134 1.96-3.301.061-.109-.055-.109-.279-.54-.03-.061-.061-.03c-.025-.013-.68-.371-1.578-.371z"/><path d="M21.962 21.225c.206 0 .328-.03.376-.103a.091.091 0 0 0 .024-.067c.079-.261-.522-.692-.528-.698-.194-.134-.37-.206-.528-.206a.446.446 0 0 0-.316.127.479.479 0 0 0-.127.498c.042.134.194.364.698.419.164.024.298.03.401.03z" fill="#fff"/><path d="M21.319 20.248c.164 0 .34.097.473.188.206.146.546.473.485.607 0 0 .024.091-.309.091-.097 0-.218-.006-.382-.024-.734-.085-.734-.558-.516-.759a.343.343 0 0 1 .249-.103m0-.182a.537.537 0 0 0-.376.152.562.562 0 0 0-.152.595c.055.152.218.419.777.485.158.018.291.024.401.024.243 0 .376-.042.449-.14a.221.221 0 0 0 .042-.103c.085-.322-.498-.74-.564-.789-.213-.151-.407-.224-.577-.224z"/><path d="M22.205 22.506c.103 0 .182-.024.225-.073a.156.156 0 0 0 .036-.061c.164-.303-.455-.995-.467-1.001-.249-.273-.492-.407-.722-.407-.103 0-.2.03-.291.085a.586.586 0 0 0-.291.576c.018.176.146.504.752.71.339.11.594.171.758.171z" fill="#fff"/><path d="M21.276 21.074c.243 0 .473.194.637.37.212.231.552.728.443.88 0 0 .006.061-.152.061-.121 0-.334-.036-.722-.17-.886-.303-.752-.88-.437-1.074a.5.5 0 0 1 .231-.067m0-.231a.72.72 0 0 0-.704.795c.024.2.158.576.831.807.358.121.619.182.795.182.14 0 .243-.036.309-.109.024-.03.049-.061.061-.097.188-.376-.413-1.05-.485-1.129-.266-.297-.54-.449-.807-.449z"/><path d="M21.543 23.701c.115 0 .176-.049.2-.103.212-.279-.303-1.05-.309-1.062-.231-.346-.479-.516-.734-.516a.589.589 0 0 0-.225.049.6.6 0 0 0-.376.528c-.006.176.067.516.637.813.383.194.644.291.807.291z" fill="#fff"/><path d="M20.694 22.142c.267 0 .492.249.637.467.176.261.437.801.303.935 0 0-.006.042-.097.042-.103 0-.316-.055-.752-.279-.831-.431-.619-.983-.273-1.129a.542.542 0 0 1 .182-.036m0-.237a.727.727 0 0 0-.716.686c-.006.206.073.595.704.922.528.273.74.303.856.303.152 0 .255-.073.297-.158.243-.346-.255-1.098-.316-1.189-.249-.37-.528-.564-.825-.564z"/><path d="M20.409 24.581c.103 0 .158-.049.182-.091.188-.249-.273-.947-.279-.953-.206-.309-.431-.467-.655-.467a.55.55 0 0 0-.534.515c-.006.158.061.467.57.734.339.177.576.262.716.262z" fill="#fff"/><path d="M19.656 23.173c.237 0 .437.225.57.419.158.237.388.722.273.843 0 0-.006.042-.085.042-.091 0-.279-.049-.668-.249-.74-.388-.552-.886-.243-1.019a.363.363 0 0 1 .153-.036m0-.206a.68.68 0 0 0-.243.049.66.66 0 0 0-.401.57c-.006.182.067.534.625.831.473.249.661.273.765.273.14 0 .231-.067.267-.14.212-.309-.225-.989-.279-1.068-.218-.345-.467-.515-.734-.515z"/><path d="M20.026 18.937c.394-.431.552-.916.473-1.45-.121-.783-.759-1.645-1.881-2.567-.831-.68-1.638-1.135-1.645-1.141-.036-.018-.637-.291-1.104-.291-.261 0-.437.085-.522.249-.176.328.049.941.68 1.875 2.009 2.973 3.835 3.344 3.914 3.356l.055.012.03-.043z" fill="#858485"/><path d="M15.864 13.591c.449 0 1.056.273 1.056.273s5.025 2.84 3.034 5c0 0-1.839-.34-3.847-3.313-1.081-1.59-.765-1.96-.243-1.96m0-.2c-.376 0-.54.164-.613.303-.194.37.024.995.686 1.978 2.033 3.004 3.902 3.386 3.981 3.398l.109.018.079-.085c.419-.455.583-.971.498-1.535-.297-1.899-3.447-3.702-3.58-3.781l-.006-.006-.006-.006c-.038-.005-.663-.284-1.148-.284z"/><path d="M17.805 17.087c.316 0 .576-.273.576-.607 0-.334-.261-.607-.576-.607s-.576.273-.576.607c0 .334.255.607.576.607z" fill="#fff"/><path d="M17.805 15.964c.267 0 .479.231.479.516s-.212.516-.479.516-.479-.231-.479-.516.212-.516.479-.516m0-.194c-.37 0-.674.316-.674.704s.303.704.674.704c.37 0 .674-.316.674-.704 0-.389-.303-.704-.674-.704z"/><path d="M25.549 10.921c.091 0 .158-.03.176-.042a.416.416 0 0 0 .049-.036c.036-.036.953-.922 1.153-1.523.055-.164.012-.273-.03-.334-.036-.049-.115-.127-.279-.127-.443 0-1.475.68-1.499 1.323-.012.297.042.498.158.619.071.078.168.12.272.12z" fill="#f36c35"/><path d="M26.617 9.07c.103 0 .158.055.109.188-.188.564-1.098 1.438-1.098 1.438s-.036.018-.085.018c-.097 0-.237-.073-.225-.522.024-.509.953-1.122 1.299-1.122m0-.412c-.516 0-1.681.734-1.705 1.523-.012.358.061.607.218.771a.58.58 0 0 0 .789.048c.103-.097.995-.965 1.208-1.608.085-.261 0-.437-.061-.522a.541.541 0 0 0-.449-.212z"/><path d="M24.875 10.351a.222.222 0 0 0 .134-.042c.03-.024.795-.546.637-1.766-.146-1.093-.801-1.645-1.129-1.645a.3.3 0 0 0-.164.049c-.152.103-.152.285-.158.558 0 .212-.006.498-.085.649-.2.382-.376 1.074-.358 1.329.006.091.018.34 1.019.837a.16.16 0 0 0 .104.031z" fill="#fae152"/><path d="M24.517 7.147c.17 0 .759.431.886 1.432.14 1.086-.528 1.535-.528 1.535s-.874-.437-.886-.637c-.012-.2.14-.85.328-1.202s.061-1.05.164-1.123c.012-.005.024-.005.036-.005m0-.486a.504.504 0 0 0-.297.091c-.255.17-.261.455-.267.752 0 .152-.006.443-.061.54-.212.394-.407 1.129-.388 1.456.012.17.03.479 1.147 1.038.067.036.14.049.212.049a.47.47 0 0 0 .267-.079c.036-.024.916-.631.74-1.996-.085-.655-.334-1.086-.528-1.329-.249-.321-.564-.522-.825-.522z"/><path d="M21.883 15.618c2.27 0 4.114-1.608 4.114-3.58 0-.498-.115-.977-.34-1.426a.533.533 0 0 0 .03-.17c0-.267-.212-.492-.498-.534-.777-.91-2.009-1.45-3.307-1.45-2.27 0-4.114 1.608-4.114 3.58.007 1.978 1.852 3.58 4.115 3.58z" fill="#3da448"/><path d="M21.883 8.591c1.335 0 2.518.57 3.24 1.444.243.012.437.194.437.413a.446.446 0 0 1-.042.176c.225.431.352.916.352 1.42 0 1.905-1.784 3.453-3.987 3.453s-3.981-1.547-3.981-3.453 1.785-3.453 3.981-3.453m0-.255c-2.336 0-4.242 1.663-4.242 3.708s1.905 3.708 4.242 3.708 4.242-1.663 4.242-3.708c0-.498-.109-.983-.328-1.438a.71.71 0 0 0 .018-.158c0-.316-.237-.583-.558-.655-.801-.917-2.051-1.457-3.374-1.457z"/><path d="M22.8 12.663c.613 0 1.11-.631 1.11-1.408s-.498-1.408-1.11-1.408c-.613 0-1.11.631-1.11 1.408s.497 1.408 1.11 1.408z" fill="#fff"/><path d="M22.8 9.95c.552 0 1.001.583 1.001 1.299s-.449 1.299-1.001 1.299-1.001-.583-1.001-1.299c-.001-.716.448-1.299 1.001-1.299m0-.224c-.674 0-1.226.686-1.226 1.523 0 .837.546 1.523 1.226 1.523.674 0 1.226-.686 1.226-1.523-.001-.837-.553-1.523-1.226-1.523zm1.596 1.396h.012a.128.128 0 0 0 .115-.14c-.049-.449.309-.752.309-.759.055-.042.061-.127.018-.182a.132.132 0 0 0-.182-.018c-.018.018-.467.394-.401.983.013.067.068.116.129.116z"/><path d="M24.226 11.043a.224.224 0 0 0 .194-.109c.109-.152.103-.425-.018-.752-.273-.746-.746-1.754-1.699-1.808-.055-.006-.103-.006-.152-.006-.334 0-.576.079-.71.237s-.103.328-.103.346a.117.117 0 0 0 .055.085.122.122 0 0 0 .067.018c.012 0 .024 0 .03-.006 0 0 .018-.006.055-.006-.2.103-.413.285-.443.643-.006.042.012.079.042.109.024.018.055.03.085.03h.024s.152-.03.376-.03c.243 0 .607.036.959.218.225.152.807.576.935.819.114.181.236.212.303.212z" fill="#f36c35"/><path d="M22.557 8.494c.042 0 .091 0 .146.006.91.055 1.353 1.098 1.584 1.729.158.437.067.686-.061.686-.055 0-.115-.049-.17-.146-.17-.328-.983-.868-.983-.868a2.297 2.297 0 0 0-1.026-.237c-.243 0-.401.036-.401.036.055-.728.983-.601.716-.716a.924.924 0 0 0-.346-.073c-.085 0-.14.012-.14.012s-.078-.429.681-.429m0-.255c-.376 0-.649.097-.807.285a.58.58 0 0 0-.134.449.266.266 0 0 0 .049.115.848.848 0 0 0-.279.595.257.257 0 0 0 .085.212.264.264 0 0 0 .17.067c.018 0 .036 0 .055-.006 0 0 .14-.03.346-.03.225 0 .564.036.898.2.316.212.789.583.886.765s.237.285.394.285a.369.369 0 0 0 .303-.164c.134-.188.134-.504 0-.868-.182-.498-.661-1.82-1.808-1.893-.055-.012-.11-.012-.158-.012z"/><path d="M23.886 11.352c0 .346-.146.631-.328.631s-.328-.279-.328-.631c0-.346.146-.625.328-.625.182-.006.328.279.328.625z"/><path d="M21.835 13.682s-2.324-.152-2.591 1.469c-.261 1.626.546 1.887.831 2.348.285.461 1.82 1.645 1.82 1.645s1.887-.771 2.919-4.017l-2.979-1.445z" fill="#7c1517"/><path d="M21.434 19.211c1.001 0 1.814-.522 2.027-1.299.14-.492.018-1.026-.328-1.493-.34-.461-.868-.807-1.487-.977a2.981 2.981 0 0 0-.795-.109c-.995 0-1.814.522-2.027 1.299-.279 1.007.534 2.118 1.808 2.476.268.066.535.103.802.103z" fill="#ec2127"/><path d="M20.852 15.436c.249 0 .51.036.765.103 1.22.34 1.996 1.384 1.736 2.336-.206.752-.995 1.22-1.918 1.22a3.04 3.04 0 0 1-.765-.103c-1.22-.34-1.996-1.384-1.736-2.336.206-.753.995-1.22 1.918-1.22m0-.224c-1.05 0-1.905.558-2.136 1.384-.297 1.068.552 2.239 1.887 2.609.273.073.552.115.825.115 1.05 0 1.905-.558 2.136-1.384.146-.528.024-1.092-.346-1.59-.358-.479-.904-.843-1.541-1.019a3.141 3.141 0 0 0-.825-.115z"/><path d="M26.428 16.953c.212 0 .413-.255.619-.522.042-.055.079-.103.121-.152.455-.546.57-1.147.576-1.171.006-.049-.012-.097-.061-.121l-1.402-.728c-.018-.006-.036-.012-.055-.012-.018 0-.036.006-.055.012a.14.14 0 0 0-.061.091c-.164 1.936-.024 2.354.121 2.512.064.061.125.091.197.091z" fill="#fff"/><path d="M26.234 14.368l1.402.728s-.109.583-.552 1.117c-.206.243-.461.631-.655.631-.225-.006-.359-.54-.195-2.476m0-.224a.249.249 0 0 0-.109.03.22.22 0 0 0-.115.176c-.164 1.96-.024 2.403.152 2.597.073.079.17.121.273.121.267 0 .479-.273.71-.564.042-.055.079-.103.115-.146.473-.57.595-1.195.601-1.22a.22.22 0 0 0-.115-.237l-1.402-.728a.198.198 0 0 0-.11-.029z"/><path d="M23.734 16.892c.176 0 .328-.194.473-.382.255-.328.619-1.195.637-1.232a.113.113 0 0 0-.03-.127l-1.42-1.189c-.018-.018-.049-.024-.073-.024-.018 0-.03.006-.049.012a.124.124 0 0 0-.067.103c0 .055 0 1.329.146 2.197.055.297.14.642.383.642z" fill="#fff"/><path d="M23.321 14.046l1.42 1.189s-.37.886-.619 1.208c-.134.17-.267.34-.388.34-.109 0-.2-.14-.273-.552-.14-.874-.14-2.185-.14-2.185m0-.224a.277.277 0 0 0-.097.018.221.221 0 0 0-.127.206c0 .055 0 1.341.146 2.215.036.225.121.74.492.74.231 0 .401-.218.564-.425.261-.34.637-1.22.649-1.256a.236.236 0 0 0-.061-.261l-1.42-1.183a.218.218 0 0 0-.146-.054z"/><path d="M21.604 15.406a.19.19 0 0 0 .079-.018c.225-.127.892-.892.971-.983a.112.112 0 0 0 0-.146c-.419-.479-.959-1.056-1.153-1.056a.143.143 0 0 0-.14.109c-.042.164-.079 1.772.127 2.033.031.055.086.061.116.061z" fill="#fff"/><path d="M21.495 13.312c.182 0 1.068 1.019 1.068 1.019s-.728.831-.941.959c-.006.006-.012.006-.018.006-.194 0-.194-1.754-.14-1.954.001-.024.013-.03.031-.03m0-.224a.255.255 0 0 0-.249.194c-.036.14-.042.631-.03 1.026.024.91.127 1.038.176 1.104a.272.272 0 0 0 .212.109.264.264 0 0 0 .134-.036c.225-.134.819-.801.995-1.001a.229.229 0 0 0 0-.297c-.953-1.099-1.147-1.099-1.238-1.099z"/><path d="M23.831 18.689c.322 0 .843-.328.904-.364.036-.024.055-.061.055-.103s-.073-1.032-.2-1.414c-.049-.146-.134-.176-.194-.176-.176 0-.346.225-.801 1.469-.079.212-.085.37-.012.473.036.054.109.115.248.115z" fill="#fff"/><path d="M24.389 16.753c.036 0 .061.03.085.097.121.37.194 1.384.194 1.384s-.546.346-.843.346c-.164 0-.255-.103-.134-.437.28-.753.547-1.39.698-1.39m0-.225c-.243 0-.419.212-.904 1.541-.036.091-.14.376 0 .576a.39.39 0 0 0 .34.164c.346 0 .862-.316.959-.382a.225.225 0 0 0 .103-.206c-.006-.109-.079-1.05-.206-1.438-.067-.23-.225-.255-.292-.255z"/><path d="M21.313 19.035c.419 0 1.062-.437 1.274-.783a.17.17 0 0 0 .018-.079c-.006-.049-.2-1.22-.309-1.499-.042-.109-.091-.225-.212-.225-.152 0-.273.127-.935 1.456-.225.461-.279.777-.164.959.043.086.134.171.328.171z" fill="#fff"/><path d="M22.077 16.571c.049 0 .073.067.109.158.109.267.303 1.475.303 1.475-.206.334-.819.728-1.177.728-.285 0-.413-.249-.061-.959.541-1.099.729-1.402.826-1.402m0-.225c-.225 0-.352.152-1.032 1.523-.249.504-.303.843-.164 1.068.049.079.17.212.425.212.461 0 1.141-.461 1.371-.837a.233.233 0 0 0 .03-.152c-.018-.127-.2-1.238-.316-1.523-.04-.109-.113-.291-.314-.291z"/><path d="M21.477 20.564c1.117 0 1.754-.297 2.118-.595a.105.105 0 0 0 .024.03c.158.158.388.243.649.243.37 0 .759-.17 1.013-.449.237-.261.346-.583.322-.941-.085-1.032-.941-1.05-1.626-1.068-.109 0-.225-.006-.328-.012-.042 0-.085-.006-.127-.006-.401 0-.904.097-1.311.17-.273.049-.534.097-.668.097h-.03c-.073-.097-.237-.461-.346-.71-.115-.255-.218-.492-.297-.625-.14-.249-.631-.777-.922-1.092-.067-.073-.127-.134-.164-.176.073-.212.746-.916 1.129-1.177.085-.061.146-.115.194-.164.079-.073.103-.091.14-.091.14 0 .51.243 1.013.601 1.026.734 2.427 1.202 3.574 1.202.346 0 .655-.042.922-.134.2-.067.358-.134.492-.206v.03c.006.049.042.085.085.109.115.049.249.073.394.073.583 0 1.347-.419 1.748-1.359.479-1.11.042-2.5.024-2.561a.045.045 0 0 0-.012-.024c-.607-1.117-1.432-1.681-2.452-1.681-1.347 0-2.615 1.013-2.955 1.365-.134.134-.237.261-.334.37-.249.285-.364.413-.522.413a.48.48 0 0 1-.085-.012c-.115-.024-.297-.158-.522-.322-.443-.316-1.104-.795-2.16-1.165a2.578 2.578 0 0 0-.874-.152c-.922 0-1.857.51-2.706 1.462-.552.625-.892 2.245-.231 3.204.552.801 1.45 1.05 1.766 1.117.127.759 1.056 2.063 1.25 2.33-.164 1.396 1.214 1.851 1.226 1.857.012.006.024.006.03.006.195.031.383.043.559.043z" fill="#ffd191"/><path d="M27.035 10.205c.825 0 1.669.394 2.324 1.608 0 0 .437 1.384-.024 2.458-.376.874-1.08 1.268-1.614 1.268a.832.832 0 0 1-.334-.061s.661-.637.461-.746c-.018-.012-.03-.012-.042-.012-.127 0-.055.485-1.098.825a2.83 2.83 0 0 1-.88.121c-1.104 0-2.488-.461-3.489-1.177-.668-.473-.935-.631-1.098-.631-.152 0-.212.14-.413.279-.419.285-1.317 1.208-1.183 1.359s.922.965 1.098 1.274c.176.309.546 1.25.68 1.384.018.018.061.024.115.024.346 0 1.317-.273 1.978-.273.042 0 .079 0 .121.006.771.042 1.736-.109 1.82.947.067.771-.619 1.232-1.189 1.232a.779.779 0 0 1-.546-.2s.37-.437.285-.613c-.006-.012-.012-.012-.018-.012-.091 0-.322 1.153-2.512 1.153-.17 0-.352-.006-.546-.024 0 0-1.317-.419-1.123-1.754 0 0-1.232-1.645-1.274-2.415 0 0-1.141-.152-1.778-1.074s-.285-2.458.218-3.028c.419-.467 1.365-1.414 2.597-1.414.261 0 .54.042.825.146 1.626.57 2.306 1.402 2.7 1.493.042.006.079.012.115.012.316 0 .485-.334.959-.825.335-.341 1.573-1.33 2.865-1.33m0-.285c-1.396 0-2.713 1.044-3.064 1.408-.134.14-.243.261-.34.37-.206.237-.322.364-.413.364-.018 0-.03 0-.055-.006-.085-.018-.273-.152-.473-.297-.449-.322-1.123-.807-2.197-1.189a2.71 2.71 0 0 0-.922-.158c-.965 0-1.936.522-2.816 1.517-.576.649-.965 2.336-.243 3.386.534.771 1.371 1.056 1.76 1.153.176.765.971 1.899 1.226 2.251-.109 1.171.813 1.79 1.335 1.954a.217.217 0 0 0 .067.012c.194.012.388.024.564.024.831 0 1.511-.164 2.003-.479a1.53 1.53 0 0 0 .103-.073c.176.146.419.225.68.225.407 0 .837-.188 1.123-.498.267-.291.388-.649.358-1.05-.097-1.165-1.104-1.183-1.772-1.195-.115 0-.218-.006-.322-.012-.042 0-.091-.006-.14-.006-.413 0-.928.097-1.341.176-.237.042-.455.085-.589.097-.079-.14-.206-.425-.297-.625a9.941 9.941 0 0 0-.303-.637c-.14-.243-.54-.686-.941-1.117-.03-.036-.067-.067-.091-.097.158-.249.704-.813 1.038-1.038.091-.067.164-.127.212-.176.018-.018.042-.036.055-.049.164.036.728.437.916.57 1.05.746 2.488 1.232 3.659 1.232.364 0 .686-.049.965-.14.14-.049.267-.097.376-.146a.32.32 0 0 0 .103.073c.134.055.285.085.449.085.631 0 1.456-.449 1.881-1.444.498-1.159.049-2.597.03-2.658-.006-.018-.012-.036-.024-.049-.612-1.169-1.48-1.758-2.56-1.758z"/><path d="M27.066 11.637c-.134-.055-.34-.085-.552-.042s-.188-.237.115-.358c.309-.115.686.079.789.364.097.285.188.407.067.467-.128.061-.201-.34-.419-.431z"/><path d="M19.523 10.442c.425 0 .831-.279 1.007-.698 0-.006.006-.006.006-.012.255-.825.109-.928.067-.965-.018-.012-.061-.042-.115-.073-.237-.14-.856-.516-.947-.868a2.958 2.958 0 0 1-.073-.492c-.024-.285-.049-.528-.255-.528a.216.216 0 0 0-.085.018c-.309.116-1.128.766-1.05 1.81.073 1.013.868 1.754 1.365 1.796.025.012.055.012.08.012z" fill="#fae152"/><path d="M19.213 6.928c.176 0 .109.51.225.935.127.461.983.91 1.104 1.001.127.091-.109.837-.109.837-.17.382-.54.625-.904.625-.024 0-.049 0-.073-.006-.394-.036-1.195-.68-1.268-1.693-.073-1.019.746-1.608.983-1.693.012 0 .024-.006.042-.006m0-.224a.318.318 0 0 0-.127.024c-.243.091-1.208.728-1.123 1.918.079 1.086.922 1.851 1.469 1.899.03 0 .061.006.097.006.467 0 .916-.309 1.11-.765.006-.006.006-.012.006-.024.279-.904.109-1.026.024-1.086-.024-.018-.067-.042-.121-.079-.2-.121-.813-.492-.898-.801-.042-.152-.055-.322-.073-.473-.024-.267-.054-.619-.364-.619z"/></svg>