<svg xmlns="http://www.w3.org/2000/svg" viewBox="0 0 510.107 355.159"><path d="M287.093 24.208C287.093 5.516 275.755 0 266.562 0c-2.422 0-10.812.021-22.176.053v4.312h-4.434v-4.3l-4.871.014v4.286h-4.434V.091l-4.871.014v4.26h-4.434V.117l-4.871.014v4.233h-4.434V.144l-4.871.014v4.207h-4.434V.17l-4.871.014v4.181h-4.434V.196l-4.871.013v4.155h-4.434V.221l-4.871.013v4.13h-4.434V.246l-4.871.012v4.107h-4.434V.269l-4.871.011v4.084h-4.434V.29l-4.871.009v4.066h-4.434V.305l-2.435.001-2.436-.001v4.06H137.6V.299L132.729.29v4.075h-4.434V.28l-4.871-.011v4.096h-4.434V.258l-4.871-.012v4.119h-4.434V.235l-4.871-.013v4.143h-4.434V.209L95.509.196v4.169h-4.434V.184L86.204.17v4.195H81.77V.158L76.899.144v4.221h-4.434V.131L67.594.117v4.247H63.16V.104L58.289.09v4.274h-4.434V.079L48.984.065v4.3H44.55V.053C33.189.021 24.799 0 22.377 0 13.184 0 1.846 5.516 1.846 24.208c0 18.693-3.411 288.662-.959 304.904 2.451 18.999 11.644 26.047 27.886 26.047s115.698-.667 115.698-.667 99.456.667 115.697.667 25.434-7.048 27.886-26.047c2.45-16.241-.961-286.211-.961-304.904z" fill="#d9d9d9"/><path d="M267.927 348.159H22.053c-8.301 0-15.092-6.792-15.092-15.092V21.164c0-8.301 6.792-15.092 15.092-15.092h245.874c8.301 0 15.092 6.791 15.092 15.092v311.902c0 8.301-6.791 15.093-15.092 15.093z" fill="#4c4c4c"/><path d="M266.912 347.158H22.857c-8.255.359-15.515-6.858-14.998-14.998V21.859C7.342 13.524 15.04 6.35 22.857 6.861h244.055c8.246-.467 15.551 6.575 14.998 14.998v310.302c.596 8.008-6.796 15.444-14.998 14.997z" fill="#c3c2c7"/><path d="M254.942 289.469H34c-7.19 0-13.072-5.883-13.072-13.072V53.476c0-7.19 5.883-13.072 13.072-13.072h220.942c7.19 0 13.072 5.883 13.072 13.072v222.921c.001 7.19-5.882 13.072-13.072 13.072z" fill="#86878b"/><path d="M216.273 332.904a3.128 3.128 0 0 1-3.125-3.124 3.129 3.129 0 0 1 3.125-3.125h8.903a3.128 3.128 0 0 1 3.124 3.125 3.128 3.128 0 0 1-3.124 3.124h-8.903z" fill="#c95b5b"/><linearGradient id="a" gradientUnits="userSpaceOnUse" x1="220.724" y1="332.061" x2="220.724" y2="327.496"><stop offset="0"/><stop offset="1" stop-color="#fff"/></linearGradient><path d="M225.254 332.061h-9.059a2.21 2.21 0 0 1-2.204-2.204v-.157a2.21 2.21 0 0 1 2.204-2.204h9.059a2.21 2.21 0 0 1 2.204 2.204v.157a2.21 2.21 0 0 1-2.204 2.204z" fill="url(#a)"/><path d="M225.254 332.061h-9.059a2.21 2.21 0 0 1-2.204-2.204v-.157a2.21 2.21 0 0 1 2.204-2.204h9.059a2.21 2.21 0 0 1 2.204 2.204v.157a2.21 2.21 0 0 1-2.204 2.204z" fill="#c11b25"/><path d="M179.519 270.126h-70.88c-3.268 0-5.942-2.674-5.942-5.942v-31.898c0-3.268 2.674-5.942 5.942-5.942h70.88c3.268 0 5.942 2.674 5.942 5.942v31.898c0 3.269-2.674 5.942-5.942 5.942z" fill="gray" stroke="#2d2828" stroke-miterlimit="10"/><path d="M144.468 164.937c13.34 0 71.377-2.497 81.42-3.324 10.043-.827 14.002-3.935 16.187-7.207 2.367-3.545 2.599-10.279 2.127-14.888-.473-4.608-5.908-5.317-7.916-5.317h-91.818.003-91.818c-2.009 0-7.444.709-7.916 5.317-.473 4.608-.24 11.343 2.127 14.888 2.185 3.272 6.144 6.38 16.187 7.207 10.043.827 68.08 3.324 81.42 3.324" fill="#464749"/><path d="M200.973 265.595v-31.857a8.32 8.32 0 0 1 8.319-8.319h25.139a8.319 8.319 0 0 1 8.319 8.319v31.857a8.319 8.319 0 0 1-8.319 8.319h-25.139a8.319 8.319 0 0 1-8.319-8.319z" fill="#bfc0c5"/><path d="M234.346 271.453h-24.969c-3.268 0-5.942-2.674-5.942-5.942v-31.688c0-3.268 2.674-5.942 5.942-5.942h24.969c3.268 0 5.942 2.674 5.942 5.942v31.688c0 3.268-2.674 5.942-5.942 5.942z" fill="#444245"/><path d="M45.799 265.534v-31.857a8.32 8.32 0 0 1 8.319-8.319h25.138a8.319 8.319 0 0 1 8.319 8.319v31.857a8.319 8.319 0 0 1-8.319 8.319H54.118a8.319 8.319 0 0 1-8.319-8.319z" fill="#bfc0c5"/><path d="M63.183 158.538h-.7a1.191 1.191 0 0 1-1.188-1.188v-19.327c0-.654.535-1.188 1.188-1.188h.7c.654 0 1.189.535 1.189 1.188v19.327c0 .653-.535 1.188-1.189 1.188zM225.756 158.538h.701c.654 0 1.188-.535 1.188-1.188v-19.327c0-.654-.535-1.188-1.188-1.188h-.701c-.654 0-1.188.535-1.188 1.188v19.327c0 .653.534 1.188 1.188 1.188zM147.425 158.592a4.137 4.137 0 0 1-5.908 0l-5.908-6.016c-1.625-1.654-.296-3.008 2.954-3.008h11.817c3.25 0 4.579 1.354 2.954 3.008l-5.909 6.016z" fill="#444343"/><path d="M51.031 316.548c-.65 0-1.282.534-1.398 1.197V317.781l-.012.012V317.829l-.012.024v.024l-.012.024v.035l-.012.024v.036l-.012.035-.012.036-.012.071-.024.083-.012.083-.024.083-.012.095-.024.095-.024.107-.024.095-.035.201-.024.107-.024.095-.012.095-.024.095-.024.095-.012.095-.012.083-.024.071-.012.083v.036l-.012.024V319.918l-.012.036v.048l-.012.024v.024c-.012.29.028.685.118.758.115.638 2.241 3.591 2.18 4.04-.057.451-.308 1.777-.308 1.777-.077.447-.382.806-.829.806-.447 0-.752-.357-.675-.806l.403-2.204h-1.588l-.533 3.057c-.109.621.312 1.114.936 1.114h2.263c.627 0 1.224-.493 1.339-1.114 0 0 .583-2.855.58-3.057-.002-.203-.059-.225-.059-.225 0-.232-1.892-3.355-2.085-3.472-.083-.049-.152-.358-.154-.545-.004-.186.249-1.434.249-1.434a.998.998 0 0 1 .948-.806c.447 0 .634.358.557.806l-.344 1.979h1.6l.557-2.974c.126-.662-.298-1.197-.948-1.197h-2.342zm4.36 0l-1.896 10.924c-.109.621.312 1.114.936 1.114h2.263c.627 0 1.235-.493 1.351-1.114l2.026-10.924h-1.422l-1.931 10.616a.357.357 0 0 1-.332.284H55.26c-.158 0-.263-.129-.237-.284l1.884-10.616h-1.516zm5.45 0l-2.287 12.038h1.517l1.043-5.45h1.931c.628 0 1.224-.497 1.339-1.114l.829-4.277c.125-.664-.298-1.197-.948-1.197h-3.424zm5.415 0l-2.37 12.038h3.412l.237-1.493h-1.682l.687-4.064h1.683l.237-1.256h-1.683l.747-3.732h1.682l.237-1.493h-3.187zm4.076 0l-2.275 12.038h1.517l1.031-5.45h1.078c.142.132.158.375.178.498.028.177.058.403.035.581-.019.176-.829 4.372-.829 4.372h1.517s.853-4.571.853-4.645c.002-.075 0-.309-.083-.438-.055-.083-.151-.274-.261-.344-.211-.136-.45-.225-.45-.225h-.107c.434-.171 1.252-.453 1.339-.912l.829-4.277c.126-.664-.298-1.197-.948-1.197h-3.424zm8.116 0l-2.287 12.038h1.742l1.41-6.979.557 6.979h1.517l2.287-12.038h-1.742l-1.185 6.292-.782-6.292h-1.517zm6.019 0l-2.287 12.038h1.517l2.287-12.038h-1.517zm2.31 0l-2.287 12.038h1.754l1.41-6.979.557 6.979h1.517l2.287-12.038h-1.754l-1.173 6.292-.782-6.292h-1.529zm5.877 0l-.284 1.493h.948l-1.872 10.545h1.73l1.908-10.545h.912l.237-1.493h-3.579zm4.171 0l-2.37 12.038h3.412l.237-1.493h-1.682l.699-4.064h1.683l.237-1.256h-1.683l.735-3.732h1.683l.237-1.493h-3.188zm3.85 0l-2.287 12.038h1.754l1.41-6.979.557 6.979h1.517l2.287-12.038h-1.753l-1.173 6.292-.782-6.292h-1.53zm6.031 0l-2.287 12.038h3.46c.628 0 1.235-.493 1.351-1.114l1.837-9.728c.125-.664-.298-1.197-.948-1.197h-3.413zm6.505 0c-.65 0-1.27.534-1.386 1.197l-1.694 9.728c-.11.621.301 1.114.924 1.114h2.5c.627 0 1.235-.493 1.351-1.114l1.837-9.728c.126-.662-.299-1.197-.948-1.197h-2.584zm-5.213 1.387h.699c.447 0 .752.358.675.806l-1.493 7.879c-.078.447-.513.818-.96.818h-.687l1.766-9.503zm6.102 0h.047c.447 0 .741.358.663.806l-1.422 7.879c-.077.446-.489.818-.936.818-.447 0-.634-.37-.557-.818l1.41-7.879.012-.035.012-.036.012-.047.012-.035.012-.047.012-.036.012-.035.024-.036.012-.036.024-.035.012-.036.024-.035.024-.024.024-.036.024-.036.036-.024.024-.024.024-.024.035-.024.036-.024.024-.024.035-.024.036-.012.035-.024.024-.012.047-.012.036-.012h.036l.035-.012h.047l.033-.009zm-51.802.047h.735c.161 0 .503.369.474.533l-.628 2.974c-.029.154-.237.509-.391.509h-.913l-.012-.012h-.047v-.012h-.024l-.012-.012h-.012l-.012-.012-.012-.012h-.012v-.012l-.012-.012-.012-.012v-.012l-.012-.012-.012-.012v-.024l-.012-.012v-.024l-.012-.012v-.012c0-.02-.003-.049 0-.071l.711-3.638a.398.398 0 0 1 .227-.091zm9.444 0H72.477c.161 0 .506.369.474.533l-.628 2.962c-.028.155-.414.521-.569.521h-.652a.226.226 0 0 1-.237-.213c0-.02-.002-.048 0-.071l.699-3.638.012-.012.012-.012.024-.012h.012l.012-.012.012-.012h.012l.012-.012h.012l.024-.012H71.744v-.01zm-24.076 11.647v3.945h69.376v-3.945H47.666zm50.661.415h.591c.143 0 .246.113.217.261l-.133.664h-.326l.072-.438c.016-.099-.043-.178-.145-.178-.101 0-.2.078-.217.178l-.06.32c-.01.019.02.109.036.118.045.025.471.719.471.77.01.026.016.038.012.047-.013.087-.133.675-.133.675a.32.32 0 0 1-.302.249h-.507a.202.202 0 0 1-.205-.249l.121-.675h.35l-.085.486c-.016.099.043.19.145.19.097 0 .201-.09.217-.19l.072-.391c-.065-.164-.492-.759-.519-.9-.019-.016-.027-.101-.024-.166.004-.071.097-.509.097-.509h.012V330.27l.012-.024v-.012l.012-.012v-.012l.012-.012v-.012l.012-.012.012-.012v-.012h.012l.012-.012.012-.012.012-.012v-.012h.012l.012-.012.012-.012h.012l.012-.012h.012l.012-.012H98.312l.015-.01zm2.778 0h.435l.06 1.007.556-1.007h.435l-.894 1.54-.217 1.126h-.386l.193-1.208-.182-1.458zm3.949 0h.591c.143 0 .244.113.217.261l-.133.664h-.326l.072-.438c.016-.099-.043-.178-.145-.178-.101 0-.201.078-.217.178l-.06.32c-.012.019.016.109.036.118.042.025.471.719.471.77.012.026.012.038.012.047l-.121.675a.321.321 0 0 1-.302.249h-.519a.202.202 0 0 1-.205-.249l.121-.675h.35l-.084.486c-.016.099.046.19.145.19.101 0 .198-.09.217-.19l.072-.391c-.066-.164-.492-.759-.519-.9-.019-.016-.027-.101-.024-.166.004-.071.097-.509.097-.509l.012-.012v-.024l.012-.024v-.012l.012-.012v-.012l.012-.012v-.012l.012-.012.012-.012v-.012h.012l.012-.012.012-.012.012-.012.012-.012.012-.012.012-.012h.012l.012-.012h.012l.012-.012H105.04l.014-.01zm2.814 0h.809l-.06.32h-.205l-.423 2.346h-.399l.423-2.346h-.205l.06-.32zm3.165 0h.725l-.06.32h-.374l-.169.841h.386l-.06.273h-.374l-.157.9h.374l-.048.332h-.773l.53-2.666zm2.983 0h.447l.072 1.54.688-1.528.435-.012-.459 2.666h-.338l.217-1.41-.604 1.41h-.242l-.072-1.445-.266 1.445h-.399l.521-2.666zm-64.871.094h.713l-.048.332h-.387l-.157.829h.374l-.048.284h-.386l-.145.901h.374l-.06.332h-.773l.543-2.678zm3.334 0h.338l.181 1.398.266-1.398h.399l-.519 2.678h-.338l-.133-1.552-.314 1.552h-.399l.519-2.678zm3.623 0h.797l-.048.332h-.205l-.435 2.346h-.386l.423-2.346h-.218l.072-.332zm3.515 0h.725l-.06.332h-.374l-.169.829h.374l-.048.284h-.374l-.157.901h.374l-.048.332h-.773l.53-2.678zm3.406 0h.773c.143 0 .234.125.205.273l-.181.948c-.02.103-.203.186-.302.225h.048v.012h.048l.012.012H63.662v.012h.024v.012h.012a.435.435 0 0 1 .024.13c0 .016-.193 1.055-.193 1.055h-.35s.187-.933.193-.971a.504.504 0 0 0-.012-.13c-.002-.029-.004-.077-.036-.107h-.242l-.229 1.208h-.35l.52-2.679zm3.454 0h.809l-.048.332h-.205l-.435 2.346h-.387l.423-2.346h-.217l.06-.332zm4.022 0h.459l-.145 2.678h-.459l.06-.616h-.278l-.23.616h-.411l1.004-2.678zm3.213 0h.35l-.519 2.678h-.338l.507-2.678zm3.116 0h.338l.181 1.398.266-1.398H78l-.507 2.678h-.35l-.121-1.552-.314 1.552h-.399l.519-2.678zm3.998 0h.447l.072 1.552.688-1.54h.435l-.459 2.666h-.338l.217-1.41-.604 1.41h-.242l-.072-1.445-.266 1.445h-.386l.508-2.678zm4.384 0h.713l-.048.332h-.387l-.157.829h.374l-.048.284h-.387l-.157.901h.387l-.06.332h-.761l.531-2.678zm3.503 0h.338l.181 1.398.266-1.398h.386l-.507 2.678h-.338l-.133-1.552-.314 1.552h-.399l.52-2.678zm3.587 0h.809l-.06.332h-.205l-.423 2.346h-.387l.423-2.346h-.217l.06-.332zm-28.951.32c-.019 0-.035.011-.048.024l-.157.806v.012c0 .026.018.047.048.047h.145c.036 0 .127-.071.133-.107l.133-.663c.006-.038-.061-.118-.097-.118h-.157zm7.15.806l-.254.675h.193l.061-.675z" fill="#444245"/><ellipse transform="rotate(-80.729 232.274 75.939)" cx="232.27" cy="75.934" rx="18.909" ry="18.909" fill="#4c4c4c"/><ellipse transform="rotate(-45.001 232.27 75.937)" cx="232.27" cy="75.934" rx="18.249" ry="18.249" fill="#b2b2b2"/><path d="M230.28 78.166c0 1.776-3.22 3.215-7.191 3.215-3.972 0-7.191-1.44-7.191-3.215 0-1.776 3.22-3.215 7.191-3.215 3.972 0 7.191 1.439 7.191 3.215z" fill="#7cb832"/><path d="M243.154 83.491c0 1.776-3.22 3.215-7.191 3.215s-7.191-1.44-7.191-3.215c0-1.776 3.22-3.215 7.191-3.215s7.191 1.44 7.191 3.215z" fill="#e5dc1d"/><path d="M244.019 81.381c-.866-3.601-4.004-7.58-8.057-5.85 3.3-7.612 9.527-6.401 11.69-3.806 1.684 2.021 1.644 8.933-3.633 9.656z" fill="#c21e27"/><path d="M231.345 75.559c-.866-3.601-4.004-7.58-8.057-5.85 3.3-7.612 9.527-6.401 11.69-3.806 1.684 2.021 1.644 8.933-3.633 9.656z" fill="#1d54b8"/><path fill="#4c4c4c" d="M40.446 6.648h.616v33.756h-.616zM247.877 6.648h.616v33.756h-.616zM252.153 289.466h.616v57.705h-.616zM36.167 289.469h.616v57.702h-.616z"/><g fill="#444245"><path d="M52.692 312.836c-2.794-.001-4.662-1.981-4.662-4.383 0-2.401 1.872-4.405 4.658-4.397h26.328c2.785-.008 4.657 1.996 4.657 4.397 0 2.402-1.867 4.382-4.661 4.383h-26.32zm.009-7.701c-2.213.004-3.57 1.484-3.57 3.312 0 1.829 1.35 3.319 3.57 3.312h26.302c2.222.008 3.571-1.482 3.571-3.312 0-1.829-1.358-3.309-3.571-3.312H52.701z"/><path d="M51.566 306.371h1.289l1.782 2.883-.001-2.883h1.277v4.134h-1.276l-1.791-2.883v2.883h-1.281l.001-4.134zM62.86 306.796h1.244v.556h.673v.409h-.673l.001 2.743H62.86l.001-2.743h-.675v-.408l.675-.001-.001-.556zM56.624 307.756h1.243v2.75h-1.243v-2.75zM56.621 306.37h1.246v.846h-1.246v-.846zM78.408 307.569c-1.003 0-1.817.69-1.817 1.543 0 .852.813 1.543 1.817 1.543s1.816-.691 1.816-1.543c0-.853-.812-1.543-1.816-1.543m.499 1.539l-.001.582c0 .438-.258.618-.508.618-.249 0-.51-.18-.51-.618l.001-.593.001-.572c0-.437.261-.616.508-.616.248 0 .508.179.508.616 0 .166-.001.475.001.584v-.001zM74.968 309.117v-.492c0-.425-.294-.533-.487-.533-.198 0-.487.108-.487.533v.978c0 .426.289.535.487.535.193 0 .487-.109.487-.535v-.486zm-.008-2.746h1.226v4.133h-1.229l-.001-.158a1.498 1.498 0 0 1-1.431.104 1.47 1.47 0 0 1-.849-1.364c0-.725.684-1.518 1.58-1.439.295.026.505.134.704.246v-1.522zM60.778 307.629c.465-.013 1.407.291 1.401 1.379l-.001 1.496h-1.234v-1.805c0-.24-.229-.506-.568-.506-.339 0-.59.266-.59.506l.001 1.805h-1.234l-.001-2.748 1.235-.001v.289c.237-.227.58-.403.991-.415M70.879 307.629c.465-.013 1.408.291 1.401 1.379v1.496h-1.236v-1.805c0-.24-.229-.506-.568-.506-.339 0-.589.266-.589.506l.001 1.805h-1.234v-2.748l1.234-.001v.289c.238-.227.58-.403.991-.415M66.968 309.543l.001.167c0 .503-.33.615-.514.615-.183 0-.52-.112-.52-.615l.001-.567s2.341.001 2.341-.001c0-.852-.823-1.558-1.834-1.558s-1.83.69-1.83 1.543.819 1.543 1.83 1.543c.839 0 1.548-.479 1.764-1.128l-1.239.001zm-1.032-.829c-.003-.241.003-.401.082-.539a.506.506 0 0 1 .873 0c.079.137.084.298.082.539h-1.037zM80.48 306.825c.121 0 .229-.008.229-.153 0-.116-.106-.137-.205-.137h-.194v.291h.17zm-.169.529h-.142v-.941h.357c.223 0 .333.082.333.268 0 .168-.106.241-.244.259l.267.414h-.16l-.249-.408h-.163l.001.408z"/><path d="M80.482 307.564c.37 0 .661-.289.661-.682a.658.658 0 0 0-.661-.677.66.66 0 0 0-.665.677.66.66 0 0 0 .665.682m-.828-.682c0-.468.379-.813.828-.813a.815.815 0 1 1 0 1.631.815.815 0 0 1-.828-.818"/></g><g fill="#707175"><path d="M214.238 319.677c.003.003.006.004.01.004h.162c.05 0 .102.003.152.008.09.006.181.019.27.038.09.021.173.053.25.099a.688.688 0 0 1 .302.34c.061.144.092.295.095.452.002.144-.022.282-.074.416a.745.745 0 0 1-.258.332.863.863 0 0 1-.33.142 2.555 2.555 0 0 1-.362.042h-.193l-.731-.004v1.004h-.604v-2.872h1.311zm-.008.511h-.7v.849h.736a.801.801 0 0 0 .38-.086c.106-.058.159-.169.159-.334.006-.185-.051-.301-.17-.351a1.052 1.052 0 0 0-.405-.074v-.004zM215.79 320.477c.069-.21.171-.382.306-.514s.312-.226.53-.282a2.37 2.37 0 0 1 .78-.048c.093.011.183.028.268.052.214.054.388.146.524.28.136.134.235.306.3.516a2.49 2.49 0 0 1 .084.624c0 .115-.007.227-.021.336a1.927 1.927 0 0 1-.063.313c-.064.216-.165.39-.304.521a1.114 1.114 0 0 1-.536.274 1.904 1.904 0 0 1-.265.046 2.52 2.52 0 0 1-.275.014c-.083 0-.166-.005-.248-.016a2.44 2.44 0 0 1-.244-.044 1.127 1.127 0 0 1-.532-.274 1.156 1.156 0 0 1-.304-.521 2.292 2.292 0 0 1-.084-.636c0-.112.007-.224.02-.334a1.7 1.7 0 0 1 .064-.303v-.004zm.624.204a1.49 1.49 0 0 0-.04.218 2.023 2.023 0 0 0 .002.441c.009.073.021.145.038.214a.854.854 0 0 0 .146.32.59.59 0 0 0 .286.2.83.83 0 0 0 .145.035.856.856 0 0 0 .303 0 .892.892 0 0 0 .144-.035c.123-.043.219-.109.288-.2s.117-.197.145-.32a1.813 1.813 0 0 0 0-.869.812.812 0 0 0-.145-.321.562.562 0 0 0-.288-.198.983.983 0 0 0-.447-.036.831.831 0 0 0-.145.036.573.573 0 0 0-.284.2.936.936 0 0 0-.147.319v-.004zM219.311 319.677l.664 2.208.56-2.208h.712l.645 2.208.619-2.208h.62l-.888 2.872h-.74l-.611-2.144-.536 2.144h-.736l-.952-2.872h.643zM224.098 320.354c-.109.116-.17.281-.184.494l1.672-.004v.5h-1.676c0 .102.011.199.034.292a.57.57 0 0 0 .138.256.385.385 0 0 0 .218.134c.084.018.17.026.258.026h.037l.992-.004v.5h-1.02a2.5 2.5 0 0 1-.471-.044 1.05 1.05 0 0 1-.762-.682 1.938 1.938 0 0 1-.104-.578c-.003-.043-.004-.084-.003-.124l.007-.12c.029-.453.152-.787.37-1 .217-.214.543-.32.978-.32l1.004-.004v.5h-.992c-.221.004-.387.063-.496.178zM227.602 319.677a.838.838 0 0 0 .086.004c.027 0 .057.002.086.004.109.006.217.022.321.053a.631.631 0 0 1 .278.163.669.669 0 0 1 .162.244 1.03 1.03 0 0 1 .068.345l.002.056a.907.907 0 0 1-.139.518.69.69 0 0 1-.441.29l.716 1.196h-.68l-.633-1.128h-.712v1.128h-.604v-2.872h1.49zm-.144.511h-.74v.725h.74c.006.002.011.004.016.004h.017c.128 0 .244-.02.35-.059.105-.038.157-.141.154-.306 0-.171-.056-.273-.166-.308a1.22 1.22 0 0 0-.37-.053v-.003z"/></g><g fill="#dcdbe1"><path d="M134.555 260.16c-.191.203-.299.491-.322.865l2.926-.008v.875h-2.933c0 .178.02.348.06.512.04.163.12.313.241.447.107.126.235.205.382.235s.297.045.451.045h.063l1.736-.007V264h-1.785c-.285 0-.559-.025-.823-.077a1.705 1.705 0 0 1-.745-.356 1.825 1.825 0 0 1-.588-.837 3.428 3.428 0 0 1-.182-1.012 1.974 1.974 0 0 1-.003-.217c.002-.07.005-.14.01-.21.051-.793.267-1.377.647-1.75s.951-.56 1.711-.56l1.757-.008v.875h-1.736c-.387.006-.677.109-.867.312zM138.782 263.167c.527.005.851-.119.97-.371s.179-.604.179-1.057v-2.766h1.099v2.989c0 .056-.001.108-.003.157-.002.05-.003.1-.003.151-.014.219-.054.434-.119.644s-.172.399-.322.567a1.3 1.3 0 0 1-.731.438 4.48 4.48 0 0 1-.857.08h-1.45v-.833h1.237zM143.193 260.16c-.191.203-.299.491-.322.865l2.926-.008v.875h-2.933c0 .178.02.348.06.512.04.163.12.313.241.447.107.126.235.205.382.235s.297.045.451.045h.063l1.736-.007V264h-1.785c-.285 0-.559-.025-.823-.077a1.705 1.705 0 0 1-.745-.356 1.825 1.825 0 0 1-.588-.837 3.428 3.428 0 0 1-.182-1.012 1.974 1.974 0 0 1-.003-.217c.002-.07.005-.14.01-.21.051-.793.267-1.377.647-1.75s.951-.56 1.711-.56l1.757-.008v.875h-1.736c-.387.006-.676.109-.867.312zM147.805 260.339c-.148.331-.23.717-.244 1.155v.228a2.356 2.356 0 0 0 .098.713c.047.156.123.295.23.416a.705.705 0 0 0 .389.235c.147.03.298.045.451.045h.063l1.736-.007V264h-1.785c-.284 0-.56-.025-.823-.077a1.697 1.697 0 0 1-.744-.356c-.281-.229-.477-.508-.589-.837s-.173-.666-.182-1.012a1.974 1.974 0 0 1-.003-.217c.002-.07.005-.14.01-.21.051-.793.268-1.377.647-1.75s.95-.56 1.712-.56l1.757-.008v.861h-1.736c-.508.006-.837.174-.987.505zM150.787 259.856v-.875h4.34v.875h-1.631V264h-1.092v-4.144h-1.617z"/></g><g fill="#dcdbe1"><path d="M212.555 258.912c.052.005.102.008.15.008s.099.002.15.007c.191.009.38.039.563.091.185.052.347.146.486.287.127.121.221.264.283.427.063.163.102.331.116.504 0 .033.001.065.003.098.003.033.004.065.004.099.005.35-.076.652-.241.906-.166.255-.424.424-.774.508l1.254 2.093h-1.19l-1.106-1.974h-1.245v1.974h-1.058v-5.026h2.605zm-.252.897h-1.295v1.267h1.295a.058.058 0 0 0 .028.007h.027c.225 0 .428-.033.613-.101.184-.068.273-.246.27-.536 0-.299-.098-.479-.291-.539s-.41-.091-.647-.091v-.007zM216.405 260.099c-.191.203-.299.491-.322.865l2.926-.008v.875h-2.934c0 .178.02.348.061.512.039.163.119.313.24.447a.67.67 0 0 0 .383.235c.146.03.297.045.451.045h.062l1.736-.007v.875h-1.785a4.23 4.23 0 0 1-.822-.077 1.833 1.833 0 0 1-1.334-1.193 3.46 3.46 0 0 1-.182-1.012c-.005-.074-.006-.146-.004-.217s.006-.14.011-.21c.052-.793.267-1.377.647-1.75s.951-.56 1.711-.56l1.758-.008v.875h-1.736c-.386.006-.676.11-.867.313zM221.57 259.809c-.229.005-.421.053-.577.144s-.234.265-.234.521c0 .196.066.336.199.42s.288.126.465.126l1.4-.007c.052.005.105.007.161.007s.112.002.168.007c.163.01.325.036.483.081a.972.972 0 0 1 .42.241c.111.103.195.227.252.371s.091.294.105.447c.004.047.008.093.01.137.002.045.004.09.004.137-.01.583-.17.979-.483 1.187-.313.208-.737.312-1.274.312h-2.813v-.896h2.646a1.35 1.35 0 0 0 .605-.111c.171-.079.24-.259.207-.539-.023-.22-.105-.354-.245-.406a1.576 1.576 0 0 0-.497-.084l-1.246-.007c-.518.005-.928-.1-1.229-.312s-.449-.596-.444-1.151c.009-.583.172-.981.487-1.193.314-.213.74-.318 1.277-.318l2.765-.008v.896h-2.612zM226.422 260.099c-.191.203-.299.491-.322.865l2.927-.008v.875h-2.934c0 .178.02.348.06.512.04.163.12.313.241.447.107.126.234.205.382.235s.298.045.451.045h.063l1.736-.007v.875h-1.785a4.24 4.24 0 0 1-.823-.077 1.7 1.7 0 0 1-.745-.356 1.818 1.818 0 0 1-.588-.837 3.396 3.396 0 0 1-.182-1.012c-.006-.074-.006-.146-.004-.217s.006-.14.01-.21c.052-.793.268-1.377.648-1.75s.95-.56 1.711-.56l1.758-.008v.875h-1.736c-.388.006-.678.11-.868.313zM229.432 259.795v-.875h4.34v.875h-1.631v4.144h-1.092v-4.144h-1.617z"/></g><g fill="#616666"><path d="M24.37 242.681c.104-.315.257-.572.459-.771s.467-.339.795-.423c.12-.028.244-.05.372-.066s.256-.023.384-.023a2.887 2.887 0 0 1 .816.096c.32.08.582.22.786.42s.354.458.45.774a3.66 3.66 0 0 1 .096 1.439c-.021.164-.052.32-.096.468-.097.324-.248.585-.456.783s-.477.335-.805.411c-.128.032-.26.055-.396.069a4.04 4.04 0 0 1-.414.021 3.096 3.096 0 0 1-.738-.089c-.324-.076-.59-.213-.798-.411s-.36-.459-.456-.783a3.22 3.22 0 0 1-.093-.456c-.022-.164-.033-.33-.033-.498s.01-.335.03-.501c.02-.165.052-.316.096-.452v-.008zm.937.306a2.269 2.269 0 0 0-.061.327 2.995 2.995 0 0 0-.018.326c0 .112.007.224.021.333.015.11.033.218.058.321.044.185.116.344.219.48a.887.887 0 0 0 .429.3 1.338 1.338 0 0 0 .445.073 1.461 1.461 0 0 0 .444-.073.902.902 0 0 0 .433-.3c.104-.137.176-.296.216-.48.024-.104.043-.211.057-.321a2.45 2.45 0 0 0 0-.659 2.941 2.941 0 0 0-.057-.321 1.223 1.223 0 0 0-.216-.483.86.86 0 0 0-.433-.297 1.451 1.451 0 0 0-.673-.054c-.075.012-.147.03-.216.054a.863.863 0 0 0-.426.3c-.1.137-.174.297-.222.48v-.006zM30.311 241.481l1.764 3.096-.042-3.096h.924v4.308h-1.05l-1.854-3.258.042 3.258h-.931v-4.308h1.147z"/></g><g fill="#616666"><path d="M24.37 254.681c.104-.315.257-.572.459-.771s.467-.339.795-.423c.12-.028.244-.05.372-.066s.256-.023.384-.023a2.887 2.887 0 0 1 .816.096c.32.08.582.22.786.42s.354.458.45.774a3.66 3.66 0 0 1 .096 1.439c-.021.164-.052.32-.096.468-.097.324-.248.585-.456.783s-.477.335-.805.411c-.128.032-.26.055-.396.069a4.04 4.04 0 0 1-.414.021 3.096 3.096 0 0 1-.738-.089c-.324-.076-.59-.213-.798-.411s-.36-.459-.456-.783a3.22 3.22 0 0 1-.093-.456c-.022-.164-.033-.33-.033-.498s.01-.335.03-.501c.02-.165.052-.316.096-.452v-.008zm.937.306a2.269 2.269 0 0 0-.061.327 2.995 2.995 0 0 0-.018.326c0 .112.007.224.021.333.015.11.033.218.058.321.044.185.116.344.219.48a.887.887 0 0 0 .429.3 1.338 1.338 0 0 0 .445.073 1.461 1.461 0 0 0 .444-.073.902.902 0 0 0 .433-.3c.104-.137.176-.296.216-.48.024-.104.043-.211.057-.321a2.45 2.45 0 0 0 0-.659 2.941 2.941 0 0 0-.057-.321 1.223 1.223 0 0 0-.216-.483.86.86 0 0 0-.433-.297 1.451 1.451 0 0 0-.673-.054c-.075.012-.147.03-.216.054a.863.863 0 0 0-.426.3c-.1.137-.174.297-.222.48v-.006zM29.527 254.027c.262-.36.837-.54 1.726-.54l1.38-.006v.75h-1.458c-.381.008-.659.09-.837.246-.179.155-.277.426-.298.81l2.593-.006v.744H30.04v1.764h-.905v-1.98c0-.828.131-1.422.392-1.782zM33.596 254.027c.262-.36.837-.54 1.725-.54l1.38-.006v.75h-1.458c-.38.008-.659.09-.837.246-.178.155-.277.426-.297.81l2.592-.006v.744h-2.592v1.764h-.906v-1.98c-.001-.828.13-1.422.393-1.782z"/></g><circle cx="42.077" cy="243.644" r="1.327" fill="#616666"/><circle cx="42.077" cy="255.644" r="1.327" fill="#616666"/><path d="M79.215 271.391H54.246c-3.268 0-5.942-2.674-5.942-5.942v-31.687c0-3.268 2.674-5.942 5.942-5.942h24.969c3.268 0 5.942 2.674 5.942 5.942v31.687c0 3.268-2.674 5.942-5.942 5.942z" fill="#7c7d7f"/><path d="M79.774 265.391H53.85c-3.006 0-5.465-2.459-5.465-5.465v-25.924c0-3.006 2.459-5.465 5.465-5.465h25.924c3.006 0 5.465 2.459 5.465 5.465v25.924c0 3.006-2.459 5.465-5.465 5.465z" fill="#444245"/><path d="M84.001 245.83H49.46a1.16 1.16 0 0 1-1.156-1.156v-2.137c0-.636.52-1.156 1.156-1.156h34.541c.636 0 1.156.52 1.156 1.156v2.137a1.16 1.16 0 0 1-1.156 1.156z" fill="#494747"/><path d="M49.468 241.38c-.601 0-1.083.493-1.142 1.112.059.619.541 1.113 1.142 1.113h34.524c.601 0 1.083-.493 1.142-1.113-.059-.619-.541-1.112-1.142-1.112H49.468z" fill="#666"/><g fill="#dcdbe1"><path d="M55.187 256.132c.005.005.011.008.018.008H55.49c.088 0 .177.004.266.014.158.01.316.031.473.066s.302.092.438.172c.247.145.423.343.528.595.104.252.16.516.164.791.005.252-.038.494-.129.728s-.242.428-.452.581a1.46 1.46 0 0 1-.577.249 4.59 4.59 0 0 1-.634.073h-.336l-1.28-.007v1.757h-1.058v-5.026h2.294zm-.013.896h-1.225v1.483h1.287c.257 0 .479-.05.665-.15.187-.1.28-.295.28-.584.01-.322-.09-.526-.297-.612a1.828 1.828 0 0 0-.711-.13v-.007zM57.903 257.532c.122-.368.3-.669.536-.899.235-.231.545-.396.927-.493a3.984 3.984 0 0 1 .883-.105 3.27 3.27 0 0 1 .951.112c.374.093.68.257.917.489.238.233.413.535.525.903a4.205 4.205 0 0 1 .147 1.092c0 .201-.012.397-.035.588a3.353 3.353 0 0 1-.112.547c-.112.378-.289.682-.532.913-.242.231-.555.391-.938.479a3.3 3.3 0 0 1-.462.08 4.54 4.54 0 0 1-.483.025c-.145 0-.289-.01-.434-.028a4.61 4.61 0 0 1-.428-.077c-.378-.089-.688-.248-.931-.479s-.42-.535-.532-.913c-.047-.164-.083-.341-.108-.532s-.038-.385-.038-.581.012-.391.035-.585c.022-.193.061-.369.111-.528v-.008zm1.093.357a2.5 2.5 0 0 0-.07.381 3.357 3.357 0 0 0 .07 1.145c.051.215.136.401.255.561.119.158.286.275.501.35.079.028.163.049.252.063a1.694 1.694 0 0 0 .785-.063c.214-.074.382-.191.504-.35a1.41 1.41 0 0 0 .252-.561c.027-.121.05-.246.066-.374a3.15 3.15 0 0 0-.066-1.145 1.431 1.431 0 0 0-.252-.563 1.011 1.011 0 0 0-.504-.347 1.694 1.694 0 0 0-.785-.063 1.498 1.498 0 0 0-.252.063.996.996 0 0 0-.497.35 1.627 1.627 0 0 0-.259.561v-.008zM64.063 256.132l1.162 3.864.98-3.864h1.246l1.127 3.864 1.085-3.864h1.085l-1.555 5.026h-1.295l-1.07-3.752-.938 3.752h-1.288l-1.666-5.026h1.127zM72.442 257.318c-.191.203-.299.491-.322.865l2.927-.008v.875h-2.934c0 .178.02.348.06.512.04.163.12.313.241.447a.672.672 0 0 0 .382.235c.147.03.298.045.451.045h.063l1.736-.007v.875h-1.785a4.24 4.24 0 0 1-.823-.077 1.705 1.705 0 0 1-.745-.356c-.28-.229-.476-.508-.588-.837s-.173-.666-.182-1.012c-.005-.074-.006-.146-.004-.217s.006-.14.011-.21c.051-.793.267-1.377.647-1.75s.95-.56 1.711-.56l1.758-.008v.875H73.31c-.387.006-.676.11-.868.313zM78.574 256.132c.052.005.102.008.15.008s.1.002.15.007c.191.009.38.039.563.091.185.052.347.146.487.287.126.121.22.264.283.427a1.757 1.757 0 0 1 .119.602c.002.033.003.065.003.099.005.35-.075.652-.241.906-.166.255-.424.424-.773.508l1.253 2.093h-1.19l-1.105-1.974h-1.246v1.974H75.97v-5.026h2.604zm-.252.896h-1.295v1.267h1.295a.06.06 0 0 0 .028.007h.027c.225 0 .429-.033.613-.101s.273-.246.27-.536c0-.299-.098-.479-.291-.539s-.409-.091-.647-.091v-.007z"/></g><g fill="#85898a"><path d="M116.089 141.348a1.555 1.555 0 0 1-.479.842c-.246.225-.499.338-.759.338h-1.044l-.276 1.3h-.751l.775-3.645h1.715c.577 0 .865.265.865.795a1.762 1.762 0 0 1-.046.37zm-.7-.19c0-.233-.122-.35-.366-.35h-.856l-.228 1.095h.875c.15 0 .285-.088.405-.265a.843.843 0 0 0 .17-.48zM121.999 143.828h-.767l-.1-.73h-1.346l-.41.73h-.763l2.045-3.645h.865l.476 3.645zm-.908-1.355l-.181-1.423-.752 1.423h.933zM127.873 143.203l-.135.625h-2.495l.775-3.645h.747l-.637 3.02h1.745zM138.804 140.183l-2.015 3.645h-.645l-.46-3.645h.755l.22 2.745 1.385-2.745h.76zM144.684 140.183l-.135.625h-1.892l-.171.83h1.743l-.13.625h-1.746l-.2.94h1.976l-.135.625h-2.725l.775-3.645h2.64zM150.863 141.193c-.083.39-.323.683-.72.88.229.14.33.296.3.47l-.15.89c-.02.11.007.195.08.255l-.03.14h-.81a1.138 1.138 0 0 1-.01-.42l.115-.55a.962.962 0 0 0 .024-.195c0-.183-.119-.275-.359-.275h-.888l-.307 1.44h-.751l.774-3.645h2.051c.187 0 .347.057.479.17.153.13.23.317.23.56.003.087-.008.18-.028.28zm-.71-.08c0-.204-.118-.305-.355-.305h-1.051l-.198.955h1.034c.141 0 .271-.072.391-.215a.68.68 0 0 0 .179-.435zM156.909 141.293h-.695v-.09c0-.153-.06-.272-.178-.357s-.281-.127-.487-.127c-.427 0-.674.157-.74.47a.434.434 0 0 0-.01.09c0 .15.12.252.359.305l.74.16c.283.06.488.138.615.235.153.12.229.289.229.505 0 .08-.01.17-.029.27-.08.38-.276.673-.588.88-.312.207-.711.31-1.197.31-.4 0-.705-.089-.915-.268s-.315-.429-.315-.752c0-.057.004-.115.011-.175h.725c-.03.394.2.59.69.59.227 0 .415-.042.567-.128a.528.528 0 0 0 .277-.35.494.494 0 0 0 .01-.101c0-.214-.136-.349-.408-.402l-.851-.168a.832.832 0 0 1-.476-.257.693.693 0 0 1-.176-.477 1.33 1.33 0 0 1 .568-1.028c.289-.203.646-.305 1.073-.305.396 0 .701.076.915.228.213.152.319.369.319.652.001.09-.01.187-.033.29zM161.243 140.183l-.774 3.645h-.751l.774-3.645h.751zM167.633 142.038c-.119.573-.38 1.033-.779 1.38-.4.347-.86.52-1.38.52-.46 0-.813-.131-1.061-.395-.229-.243-.345-.573-.345-.99 0-.167.02-.342.06-.525.113-.53.347-.967.7-1.31a2.05 2.05 0 0 1 1.49-.595c.45 0 .795.133 1.035.4.227.244.34.574.34.99 0 .17-.02.345-.06.525zm-.72 0c.03-.146.045-.283.045-.41 0-.27-.07-.479-.212-.627-.143-.148-.345-.222-.607-.222-.317 0-.592.111-.823.333s-.388.524-.467.907c-.03.144-.046.277-.046.4 0 .28.074.496.221.647.146.152.356.228.63.228.297 0 .561-.116.792-.347.232-.233.387-.535.467-.909zM174.264 140.183l-.775 3.645h-.74l-.934-2.54-.54 2.54h-.751l.774-3.645h.74l.943 2.495.53-2.495h.753z"/></g><g fill="#444245"><path d="M117.453 327.169h-.639v1.418h-.45v-1.418h-.663v-.294h1.752v.294zM119.82 328.587h-.45v-1.391l-.39 1.391h-.45l-.39-1.383v1.383h-.45v-1.712h.658l.406 1.311.411-1.311h.655v1.712z"/></g><g><path d="M414.043 355.159c12.198 0 85.597-.953 87.251-.953 7.991 0 8.813-5.634 8.813-8.058 0-2.424-.661-110.48-.881-116.869-.22-6.39-4.847-7.051-8.593-7.271-3.746-.22-75.133-1.322-86.59-1.322s-82.844 1.102-86.59 1.322-8.373.881-8.593 7.271c-.22 6.39-.881 114.446-.881 116.869 0 2.424.823 8.058 8.813 8.058 1.654 0 75.053.953 87.251.953z" fill="#ccc"/><path fill="#666" d="M481.514 221.607h.44V354.44h-.44zM346.108 221.617h.44V354.45h-.44z"/><path d="M483.583 285.21H340.976c-4.874 0-8.863-3.988-8.863-8.863v-38.775c0-4.874 3.988-8.863 8.863-8.863h142.607c4.874 0 8.863 3.988 8.863 8.863v38.775c0 4.874-3.989 8.863-8.863 8.863z"/><ellipse cx="338.942" cy="275.572" rx="4.152" ry="1.857" fill="#7cb832"/><path d="M350.527 278.646c0 1.025-1.859 1.857-4.152 1.857s-4.152-.831-4.152-1.857c0-1.025 1.859-1.857 4.152-1.857 2.293.001 4.152.832 4.152 1.857z" fill="#e5dc1d"/><path d="M351.027 277.428c-.5-2.079-2.312-4.377-4.652-3.378 1.905-4.395 5.501-3.696 6.75-2.197.972 1.167.949 5.157-2.098 5.575z" fill="#c21e27"/><path d="M343.709 274.066c-.5-2.079-2.312-4.377-4.652-3.378 1.905-4.395 5.501-3.696 6.75-2.197.972 1.167.948 5.158-2.098 5.575z" fill="#1d54b8"/><path d="M329.673 345.408a3.55 3.55 0 1 1-7.1 0 3.55 3.55 0 0 1 7.1 0zM498.413 345.408a3.55 3.55 0 1 0 7.1 0 3.55 3.55 0 0 0-7.1 0z" fill="#666"/><path d="M466.192 314.184H361.894a4.24 4.24 0 0 1-4.228-4.228v-1.66a4.24 4.24 0 0 1 4.228-4.228h104.298a4.24 4.24 0 0 1 4.228 4.228v1.66a4.24 4.24 0 0 1-4.228 4.228z" fill="#b2b2b2"/><path fill="#999" d="M395.879 305.595h36.152v7.062h-36.152z"/><path d="M357.72 310.396h112.647c.011-.074.024-.148.032-.223H357.688c.007.076.021.149.032.223zm.338 1.159h111.971a4.35 4.35 0 0 0 .092-.223H357.966c.029.075.059.15.092.223zm.76 1.158h110.451c.066-.073.13-.146.191-.223H358.627c.061.077.125.151.191.223zm-1.152-3.698v.223H470.42v-.223H357.666zm111.603-3.476H358.818c-.066.073-.13.146-.191.223H469.46a5 5 0 0 0-.191-.223zm1.098 2.317H357.72c-.011.074-.024.148-.032.223h112.711c-.008-.075-.021-.149-.032-.223zm-.338-1.158H358.058a4.35 4.35 0 0 0-.092.223h112.155a4.35 4.35 0 0 0-.092-.223z" fill="#666"/><path d="M469.051 242.561c-1.678 0-2.8-1.19-2.8-2.632 0-1.442 1.124-2.645 2.798-2.642h15.812c1.673-.004 2.798 1.199 2.798 2.642 0 1.442-1.122 2.632-2.8 2.632h-15.808z" fill-rule="evenodd" clip-rule="evenodd" fill="#e10025"/><path d="M469.056 237.937c-1.329.002-2.145.891-2.145 1.989s.811 1.994 2.145 1.989h15.797c1.334.005 2.145-.891 2.145-1.989 0-1.099-.816-1.987-2.145-1.989h-15.797z" fill-rule="evenodd" clip-rule="evenodd" fill="#fff"/><path fill-rule="evenodd" clip-rule="evenodd" fill="#e10025" d="M468.375 238.679h.773l1.07 1.731v-1.731h.767v2.483h-.766l-1.076-1.732v1.732h-.769l.001-2.483zM475.158 238.934h.747v.334h.404v.246h-.404v1.648h-.747v-1.648h-.406v-.245h.406v-.335zM471.412 239.511h.747v1.651h-.747v-1.651zM471.411 238.678h.748v.508h-.748v-.508zM484.795 240.323l-.001.35c0 .263-.155.372-.305.372-.149 0-.306-.109-.306-.372l.001-.356v-.344c0-.262.156-.37.305-.37s.305.108.305.37l.001.352v-.002zm-.3-.925c-.603 0-1.091.415-1.091.927s.488.927 1.091.927 1.091-.415 1.091-.927-.488-.927-1.091-.927zM482.424 238.679h.737v2.482h-.738l-.001-.095a.9.9 0 0 1-.86.062.881.881 0 0 1-.511-.819c0-.436.411-.912.949-.864.177.016.303.08.423.147l.001-.913zm.006 1.649v-.295c0-.255-.176-.32-.292-.32-.119 0-.293.065-.293.32v.588c0 .255.174.322.293.322.116 0 .292-.067.292-.322v-.293zM473.907 239.434c.279-.008.846.175.841.829v.898h-.742v-1.084c0-.144-.138-.304-.341-.304-.204 0-.355.16-.355.304l.001 1.084h-.741l-.001-1.651.742-.001v.173a.91.91 0 0 1 .596-.248zM479.974 239.434c.279-.008.845.175.841.829l-.001.898h-.742v-1.084c0-.144-.138-.304-.341-.304s-.355.16-.355.304l.001 1.084h-.741l.001-1.651.741-.001v.173a.913.913 0 0 1 .596-.248zM477.004 240.086c-.001-.145.002-.241.049-.324a.304.304 0 0 1 .263-.15c.098 0 .204.049.262.15.048.083.05.179.049.324h-.623zm.621.498l.001.1c0 .302-.199.369-.308.369-.111 0-.313-.067-.313-.369l.001-.341h1.406c0-.512-.494-.936-1.101-.936s-1.099.415-1.099.927.492.927 1.099.927c.504 0 .929-.288 1.059-.678l-.745.001zM485.638 239.27h-.086v-.565h.216c.133 0 .2.049.2.161 0 .101-.063.145-.147.156l.161.249h-.095l-.15-.245h-.098v.244h-.001zm.102-.318c.073 0 .137-.005.137-.092 0-.07-.063-.083-.123-.083h-.117v.175h.103z"/><path d="M485.244 238.985a.49.49 0 0 1 .498-.489.49.49 0 1 1 0 .981.49.49 0 0 1-.498-.492zm.497.41a.396.396 0 0 0 .397-.41.395.395 0 0 0-.397-.407.396.396 0 0 0-.399.407c0 .236.175.41.399.41z" fill-rule="evenodd" clip-rule="evenodd" fill="#e10025"/><g><g fill="#e60012"><path d="M337.697 234.885c-.508 0-1.003.421-1.093.943V235.855l-.009.009V235.892l-.009.019v.019l-.009.019v.028l-.009.019v.028l-.009.028-.009.028-.009.056-.019.065-.009.065-.019.065-.009.075-.019.075-.019.084-.019.075-.028.159-.019.084-.019.075-.009.075-.019.075-.018.075-.009.075-.009.065-.019.056-.009.065v.028l-.009.019v.047l-.009.028v.038l-.009.019v.018c-.01.228.022.54.093.597.09.503 1.753 2.829 1.705 3.183-.045.355-.241 1.4-.241 1.4-.06.352-.299.635-.649.635-.35 0-.588-.281-.528-.635l.315-1.736h-1.241l-.417 2.409c-.085.489.244.878.732.878h1.77c.49 0 .957-.388 1.047-.878 0 0 .456-2.25.454-2.409-.002-.16-.046-.177-.046-.177 0-.183-1.48-2.644-1.631-2.735-.065-.039-.119-.282-.12-.429-.003-.146.195-1.13.195-1.13a.782.782 0 0 1 .741-.635c.35 0 .496.282.435.635l-.269 1.559h1.251l.435-2.343c.098-.522-.233-.943-.741-.943h-1.836zm3.41 0l-1.482 8.607c-.085.489.244.878.732.878h1.77c.49 0 .965-.388 1.056-.878l1.584-8.607h-1.112l-1.51 8.365a.28.28 0 0 1-.259.224h-.88c-.123 0-.205-.102-.185-.224l1.473-8.365h-1.187zm4.262 0l-1.788 9.485h1.186l.815-4.294h1.51c.491 0 .957-.391 1.047-.878l.649-3.37c.098-.523-.233-.943-.741-.943h-2.678zm4.234 0l-1.853 9.485h2.668l.185-1.176h-1.316l.537-3.202h1.316l.185-.99h-1.316l.584-2.941h1.316l.185-1.176h-2.491zm3.187 0l-1.779 9.485h1.186l.806-4.294h.843c.111.104.124.296.139.392.022.14.045.318.028.457-.015.139-.649 3.445-.649 3.445h1.186s.667-3.602.667-3.66c.002-.059 0-.243-.065-.345-.043-.065-.118-.216-.204-.271a2.082 2.082 0 0 0-.352-.177h-.083c.339-.135.979-.357 1.047-.719l.649-3.37c.098-.523-.233-.943-.741-.943h-2.678zm6.346 0l-1.788 9.485h1.362l1.102-5.499.435 5.499h1.186l1.788-9.485h-1.362l-.926 4.957-.611-4.957h-1.186zm4.707 0l-1.788 9.485h1.186l1.788-9.485h-1.186zm1.806 0l-1.788 9.485h1.371l1.102-5.499.435 5.499h1.186l1.788-9.485h-1.371l-.917 4.957-.611-4.957h-1.195zm4.596 0l-.222 1.176h.741l-1.464 8.309h1.353l1.492-8.309h.713l.185-1.176h-2.798zm3.261 0l-1.853 9.485h2.668l.185-1.176h-1.316l.547-3.202h1.316l.185-.99h-1.316l.574-2.941h1.316l.185-1.176h-2.491zm3.011 0l-1.788 9.485h1.371l1.102-5.499.435 5.499h1.186l1.788-9.485h-1.371l-.917 4.957-.611-4.957h-1.195zm4.716 0l-1.788 9.485h2.705c.491 0 .965-.388 1.056-.878l1.436-7.665c.097-.523-.233-.943-.741-.943h-2.668zm5.086 0c-.508 0-.993.421-1.084.943l-1.325 7.665c-.086.489.235.878.723.878h1.955c.49 0 .965-.388 1.056-.878l1.436-7.665c.098-.522-.234-.943-.741-.943h-2.02zm-4.076 1.093h.547c.35 0 .588.282.528.635l-1.167 6.208c-.061.352-.401.644-.75.644h-.537l1.379-7.487zm4.771 0h.037c.35 0 .579.282.519.635l-1.112 6.208c-.06.351-.382.644-.732.644s-.496-.292-.435-.644l1.102-6.208.009-.028.009-.028.009-.037.009-.028.009-.037.009-.028.009-.028.019-.028.009-.028.019-.028.009-.028.019-.028.019-.019.019-.028.019-.028.028-.019.019-.019.019-.019.028-.019.028-.019.019-.019.028-.019.028-.009.028-.019.019-.009.037-.009.028-.009h.028l.028-.009h.037l.024-.009zm-40.506.037h.574c.126 0 .394.291.371.42l-.491 2.343c-.023.121-.185.401-.306.401h-.713l-.009-.009h-.036v-.009h-.018l-.009-.009h-.009l-.009-.009-.009-.009h-.009v-.009l-.009-.009-.009-.009v-.009l-.009-.009-.009-.009v-.018l-.009-.009v-.018l-.009-.009v-.009c0-.015-.002-.039 0-.056l.556-2.866a.244.244 0 0 1 .171-.08zm7.384 0H354.465c.126 0 .395.291.371.42l-.491 2.334c-.022.122-.323.411-.445.411h-.51a.176.176 0 0 1-.185-.168c0-.015-.002-.038 0-.056l.547-2.866.009-.009.009-.009.019-.009h.009l.009-.009.009-.009h.009l.009-.009h.009l.019-.009H353.889v-.012zm-18.826 9.177v3.109h54.248v-3.109h-54.248zm39.614.327H375.141c.112 0 .192.089.17.205l-.104.523h-.255l.057-.345c.013-.078-.033-.14-.113-.14a.177.177 0 0 0-.17.14l-.047.252c-.008.015.016.086.028.093.035.02.368.566.368.607.008.02.012.03.009.037-.01.068-.104.532-.104.532a.25.25 0 0 1-.236.196h-.397c-.11 0-.181-.09-.161-.196l.094-.532h.274l-.066.383c-.013.078.033.149.113.149.076 0 .157-.071.17-.149l.057-.308c-.051-.129-.385-.598-.406-.71-.015-.012-.021-.08-.019-.131.003-.056.076-.401.076-.401h.009V245.697l.009-.019v-.009l.009-.009v-.009l.009-.009v-.009l.009-.009.009-.009v-.009h.009l.009-.009.009-.009.009-.009v-.009h.009l.009-.009.009-.009h.009l.009-.009h.009l.009-.009H374.66l.02-.015zm2.172 0h.34l.047.794.434-.794h.34l-.699 1.214-.17.887h-.302l.151-.952-.141-1.149zm3.089 0H380.402c.112 0 .19.089.17.205l-.104.523h-.255l.057-.345c.013-.078-.033-.14-.113-.14a.176.176 0 0 0-.17.14l-.047.252c-.01.015.013.086.028.093.033.02.368.566.368.607.01.02.009.03.009.037l-.094.532a.252.252 0 0 1-.236.196h-.406c-.11 0-.181-.09-.161-.196l.094-.532h.274l-.066.383c-.013.078.036.149.113.149.079 0 .154-.071.17-.149l.057-.308c-.052-.129-.385-.598-.406-.71-.015-.012-.021-.08-.019-.131.003-.056.076-.401.076-.401l.009-.009v-.018l.009-.019v-.009l.009-.009v-.009l.009-.009v-.009l.009-.009.009-.009v-.009h.009l.009-.009.009-.009.009-.009.009-.009.009-.009.009-.009h.009l.009-.009h.009l.009-.009H379.922l.019-.015zm2.2 0h.633l-.047.252h-.161l-.331 1.848h-.312l.331-1.848h-.161l.048-.252zm2.475 0h.567l-.047.252h-.293l-.132.663h.302l-.047.215h-.293l-.123.709h.293l-.038.261h-.605l.416-2.1zm2.332 0h.349l.057 1.214.538-1.204.34-.009-.359 2.101h-.264l.17-1.111-.472 1.111h-.189l-.057-1.139-.208 1.139h-.312l.407-2.102zm-50.725.074h.557l-.038.261h-.302l-.123.654h.293l-.038.224h-.302l-.113.71h.293l-.047.261h-.604l.424-2.11zm2.607 0h.264l.142 1.102.208-1.102h.312l-.406 2.11h-.264l-.104-1.223-.246 1.223h-.312l.406-2.11zm2.833 0h.623l-.038.261h-.161l-.34 1.848h-.302l.331-1.848h-.17l.057-.261zm2.748 0h.567l-.047.261h-.293l-.132.654h.293l-.038.224h-.293l-.123.71h.293l-.038.261h-.604l.415-2.11zm2.664 0h.604c.112 0 .183.098.161.215l-.142.747c-.016.081-.159.147-.236.177h.037v.009h.036l.009.009H347.571v.009h.018v.009h.009c.013.023.019.09.019.103 0 .012-.151.831-.151.831h-.274l.151-.765c.003-.033-.004-.072-.009-.103-.002-.023-.003-.061-.028-.084h-.189l-.179.952h-.274l.411-2.109zm2.701 0h.633l-.038.261h-.161l-.34 1.848h-.302l.331-1.848h-.17l.047-.261zm3.145 0h.359l-.113 2.11h-.359l.047-.485h-.217l-.18.485h-.321l.784-2.11zm2.512 0h.274l-.406 2.11h-.264l.396-2.11zm2.436 0h.264l.142 1.102.208-1.102h.302l-.397 2.11h-.274l-.094-1.223-.246 1.223h-.312l.407-2.11zm3.126 0h.349l.057 1.223.538-1.214h.34l-.359 2.101h-.264l.17-1.111-.472 1.111h-.189l-.057-1.139-.208 1.139h-.302l.397-2.11zm3.429 0h.557l-.038.261h-.302l-.123.654h.293l-.038.224h-.302l-.123.71h.302l-.047.261h-.595l.416-2.11zm2.739 0h.264l.142 1.102.208-1.102h.302l-.397 2.11h-.264l-.104-1.223-.246 1.223h-.312l.407-2.11zm2.805 0h.633l-.047.261h-.161l-.331 1.848h-.302l.331-1.848h-.17l.047-.261zm-22.638.252c-.015 0-.027.009-.038.019l-.123.635v.009c0 .02.014.037.038.037h.113c.028 0 .099-.056.104-.084l.104-.523c.005-.03-.047-.093-.076-.093h-.122zm5.591.635l-.198.532h.151l.047-.532zM388.951 243.812h-.25v.559h-.176v-.559h-.259v-.116h.685v.116zM389.876 244.371h-.176v-.548l-.152.548h-.176l-.153-.545v.545h-.176v-.674h.257l.159.516.161-.516h.256v.674z"/></g><g fill="#aab3b2"><path d="M377.952 249.439h11.362v3.271h-11.362zM335.066 249.439h11.362v3.271h-11.362z"/></g><g fill="#aab3b2"><path d="M347.314 252.628l.72-3.105h1.23c.422 0 .727.079.913.237.187.158.265.401.237.73-.033.381-.167.665-.4.854-.234.188-.57.282-1.008.282h-.524l-.224 1.001h-.944zm1.323-1.735h.333c.183 0 .314-.027.394-.081.08-.054.125-.144.136-.269.009-.101-.017-.175-.078-.22-.061-.046-.163-.068-.305-.068h-.325l-.155.638zM349.86 252.628l1.735-3.105h.956l.327 3.105h-.901l-.014-.371h-.952l-.183.371h-.968zm1.443-.997h.615l-.058-1.149-.557 1.149zM353.1 252.628l.728-3.105h.956l-.542 2.297h1.356l-.182.807H353.1zM357.63 252.628l-.281-3.105h.918l.037 1.804v.111c-.001.037-.002.074-.006.111l-.007.06a4.56 4.56 0 0 1-.015.102c.021-.086.04-.157.058-.214.018-.057.034-.103.05-.138l.847-1.836h.991l-1.644 3.105h-.948zM359.76 252.628l.728-3.105h2.312l-.174.74h-1.378l-.104.426h1.226l-.168.691h-1.222l-.107.497h1.468l-.169.75h-2.412zM362.569 252.628l.716-3.105h1.384c.386 0 .662.067.829.201.167.134.238.345.213.633a1.026 1.026 0 0 1-.192.533c-.11.149-.262.265-.456.348a.53.53 0 0 1 .266.205.56.56 0 0 1 .056.334c-.003.03-.006.061-.011.094a2.544 2.544 0 0 1-.018.104l-.06.314a.799.799 0 0 0-.017.103.173.173 0 0 0 .014.098.123.123 0 0 0 .064.056l-.007.08h-1.009a.326.326 0 0 1-.005-.064 1.02 1.02 0 0 1 .03-.246l.07-.312a.825.825 0 0 0 .02-.137c.011-.132-.017-.225-.084-.278-.068-.053-.193-.08-.376-.08h-.246l-.26 1.117h-.921zm1.331-1.779h.455c.143 0 .251-.026.323-.077.072-.051.113-.132.122-.241.008-.094-.015-.162-.071-.204-.056-.042-.152-.063-.287-.063h-.404l-.138.585zM365.711 251.639h.928l-.001.009c-.01.114.021.201.092.263.071.061.178.092.322.092.106 0 .188-.021.247-.064s.092-.105.099-.187c.009-.101-.106-.207-.346-.316l-.137-.063c-.336-.16-.561-.312-.674-.456a.725.725 0 0 1-.141-.532c.026-.295.151-.525.376-.691s.526-.249.904-.249.669.088.874.264c.205.176.305.423.3.742h-.893c-.004-.105-.036-.184-.095-.235-.059-.051-.148-.077-.265-.077a.319.319 0 0 0-.199.061.207.207 0 0 0-.089.152c-.008.092.132.202.422.331l.275.126c.231.11.397.238.498.385a.777.777 0 0 1 .125.522.964.964 0 0 1-.401.734c-.24.175-.563.263-.971.263-.424 0-.745-.094-.965-.282-.22-.192-.315-.455-.285-.792zM368.598 252.628l.724-3.105h.96l-.724 3.105h-.96zM370.351 251.26c.022-.259.081-.498.176-.717a1.91 1.91 0 0 1 .381-.575 1.75 1.75 0 0 1 .576-.395c.214-.089.443-.134.688-.134.451 0 .793.13 1.028.389s.332.616.292 1.07a2.293 2.293 0 0 1-.17.703 1.828 1.828 0 0 1-.952.97c-.216.093-.45.139-.7.139-.445 0-.786-.13-1.022-.391-.237-.261-.336-.614-.297-1.059zm1.739-1.054c-.207 0-.384.099-.53.296-.147.197-.234.456-.262.775-.019.214.011.376.089.488.078.112.201.168.369.168.208 0 .386-.102.532-.308.147-.205.235-.478.264-.818.016-.187-.017-.334-.1-.441-.081-.107-.202-.16-.362-.16zM373.561 252.628l.72-3.105h.873l.556 1.585a.906.906 0 0 1 .04.177c.007.06.01.124.007.19a3.31 3.31 0 0 1 .053-.369l.368-1.583h.889l-.728 3.105h-.881l-.566-1.612a.887.887 0 0 1-.024-.136 2.368 2.368 0 0 1-.01-.201l-.007.084a2.393 2.393 0 0 1-.04.267l-.365 1.598h-.885z"/></g></g></g></svg>