<svg xmlns="http://www.w3.org/2000/svg" viewBox="0 0 192.128 134.474"><path d="M96.064 134.474c12.198 0 85.597-.953 87.251-.953 7.99 0 8.813-5.634 8.813-8.058 0-2.424-.661-110.48-.881-116.869-.22-6.39-4.847-7.051-8.593-7.271C178.908 1.102 107.521 0 96.064 0S13.22 1.102 9.474 1.322c-3.746.22-8.373.881-8.593 7.271C.661 14.982 0 123.039 0 125.462c0 2.424.823 8.058 8.813 8.058 1.654 0 75.053.954 87.251.954z" fill="#ccc"/><path fill="#666" d="M163.534.922h.44v132.833h-.44zM28.129.931h.44v132.833h-.44z"/><path d="M165.604 64.524H22.997c-4.874 0-8.863-3.988-8.863-8.863V16.886c0-4.874 3.988-8.863 8.863-8.863h142.607c4.874 0 8.863 3.988 8.863 8.863v38.775c0 4.875-3.989 8.863-8.863 8.863z"/><ellipse cx="20.963" cy="54.886" rx="4.152" ry="1.857" fill="#7cb832"/><path d="M32.548 57.961c0 1.025-1.859 1.857-4.152 1.857s-4.152-.831-4.152-1.857c0-1.025 1.859-1.857 4.152-1.857s4.152.832 4.152 1.857z" fill="#e5dc1d"/><path d="M33.048 56.743c-.5-2.079-2.312-4.377-4.652-3.378 1.905-4.395 5.501-3.696 6.75-2.197.972 1.166.948 5.157-2.098 5.575z" fill="#c21e27"/><path d="M25.73 53.381c-.5-2.079-2.312-4.377-4.652-3.378 1.905-4.395 5.501-3.696 6.75-2.197.972 1.167.948 5.157-2.098 5.575z" fill="#1d54b8"/><path d="M11.694 124.723a3.55 3.55 0 1 1-7.1 0 3.55 3.55 0 0 1 7.1 0zM180.434 124.723a3.55 3.55 0 1 0 7.1 0 3.55 3.55 0 0 0-7.1 0z" fill="#666"/><path d="M148.213 93.499H43.915a4.24 4.24 0 0 1-4.228-4.228v-1.66a4.24 4.24 0 0 1 4.228-4.228h104.298a4.24 4.24 0 0 1 4.228 4.228v1.66a4.24 4.24 0 0 1-4.228 4.228z" fill="#b2b2b2"/><path fill="#999" d="M77.9 84.91h36.152v7.062H77.9z"/><path d="M39.741 89.711h112.647c.011-.074.024-.148.032-.223H39.709c.007.075.021.149.032.223zm.338 1.158H152.05a4.35 4.35 0 0 0 .092-.223H39.987c.029.076.059.15.092.223zm.76 1.159H151.29c.066-.073.13-.146.191-.223H40.648c.061.077.125.15.191.223zm-1.152-3.699v.223h112.754v-.223H39.687zm111.603-3.475H40.838c-.066.073-.13.146-.191.223H151.48a3.996 3.996 0 0 0-.19-.223zm1.098 2.317H39.741c-.011.074-.024.148-.032.223H152.42c-.008-.075-.021-.149-.032-.223zm-.338-1.159H40.078a4.35 4.35 0 0 0-.092.223h112.155a3.863 3.863 0 0 0-.091-.223z" fill="#666"/><path d="M151.072 21.876c-1.678 0-2.8-1.19-2.8-2.632 0-1.442 1.124-2.645 2.798-2.642h15.812c1.673-.004 2.798 1.199 2.798 2.642 0 1.442-1.122 2.632-2.8 2.632h-15.808z" fill-rule="evenodd" clip-rule="evenodd" fill="#e10025"/><path d="M151.077 17.251c-1.329.002-2.145.891-2.145 1.989s.811 1.994 2.145 1.989h15.797c1.334.005 2.145-.891 2.145-1.989 0-1.099-.816-1.987-2.145-1.989h-15.797z" fill-rule="evenodd" clip-rule="evenodd" fill="#fff"/><path fill-rule="evenodd" clip-rule="evenodd" fill="#e10025" d="M150.395 17.993h.774l1.07 1.731-.001-1.731h.768v2.483h-.766l-1.076-1.731v1.731h-.769v-2.483zM157.178 18.249h.748v.334h.404v.245h-.404v1.648h-.748l.001-1.648h-.406v-.245h.406l-.001-.334zM153.433 18.825h.747v1.651h-.747v-1.651zM153.432 17.993h.748v.508h-.748v-.508zM166.816 19.638l-.001.35c0 .263-.155.372-.305.372-.149 0-.306-.109-.306-.372l.001-.356v-.344c0-.262.156-.37.305-.37s.305.108.305.37l.001.352v-.002zm-.3-.926c-.603 0-1.091.415-1.091.927s.488.927 1.091.927 1.091-.415 1.091-.927c0-.511-.488-.927-1.091-.927zM164.445 17.993h.737v2.482h-.738l-.001-.095a.9.9 0 0 1-.86.062.881.881 0 0 1-.511-.819c0-.436.411-.912.949-.864.177.016.303.08.423.147l.001-.913zm.005 1.649v-.295c0-.255-.176-.32-.292-.32-.119 0-.293.065-.293.32v.588c0 .255.174.322.293.322.116 0 .292-.067.292-.322v-.293zM155.928 18.749c.279-.008.846.175.841.829v.898h-.742v-1.084c0-.144-.138-.304-.341-.304-.204 0-.355.16-.355.304l.001 1.084h-.741l-.001-1.651.742-.001v.173a.906.906 0 0 1 .596-.248zM161.995 18.749c.279-.008.845.175.841.829l-.001.898h-.742v-1.084c0-.144-.138-.304-.341-.304s-.355.16-.355.304l.001 1.084h-.741l.001-1.651.741-.001v.173a.906.906 0 0 1 .596-.248zM159.025 19.401c-.001-.145.002-.241.049-.324a.304.304 0 0 1 .263-.15c.098 0 .204.049.262.15.048.083.05.179.049.324h-.623zm.62.498l.001.1c0 .302-.199.369-.308.369-.111 0-.313-.067-.313-.369l.001-.341h1.406c0-.512-.494-.936-1.101-.936s-1.099.415-1.099.927.492.927 1.099.927c.504 0 .929-.288 1.059-.678l-.745.001zM167.659 18.584h-.086v-.565h.216c.133 0 .2.049.2.161 0 .101-.063.145-.147.156l.161.249h-.095l-.15-.245h-.098v.244h-.001zm.102-.318c.073 0 .137-.005.137-.092 0-.07-.063-.083-.123-.083h-.117v.175h.103z"/><path d="M167.265 18.3a.49.49 0 0 1 .498-.489.49.49 0 1 1 0 .981.491.491 0 0 1-.498-.492zm.497.41a.395.395 0 0 0 .396-.41.395.395 0 0 0-.396-.407.396.396 0 0 0-.399.407c0 .236.175.41.399.41z" fill-rule="evenodd" clip-rule="evenodd" fill="#e10025"/><g><g fill="#e60012"><path d="M19.718 14.2c-.508 0-1.003.421-1.093.943V15.17l-.009.009V15.207l-.009.019v.019l-.009.019v.028l-.009.019v.028l-.009.028-.009.028-.009.056-.019.065-.009.065-.019.065-.009.075-.019.075-.019.084-.019.075-.028.159-.019.084-.019.075-.009.075-.019.075-.018.075-.009.075-.009.065-.019.056-.009.065v.028l-.009.019v.047l-.009.028v.038l-.009.019v.018c-.01.228.022.54.093.597.09.503 1.753 2.829 1.705 3.183-.045.355-.241 1.4-.241 1.4-.06.352-.299.635-.649.635-.35 0-.588-.281-.528-.635l.315-1.736h-1.241l-.418 2.408c-.085.489.244.878.732.878h1.77c.49 0 .957-.388 1.047-.878 0 0 .456-2.25.454-2.409-.002-.16-.046-.177-.046-.177 0-.183-1.48-2.644-1.631-2.735-.065-.039-.119-.282-.12-.429-.003-.146.195-1.13.195-1.13a.782.782 0 0 1 .741-.635c.35 0 .496.282.435.635l-.269 1.559h1.251l.435-2.343c.098-.522-.233-.943-.741-.943h-1.835zm3.41 0l-1.482 8.607c-.085.489.244.878.732.878h1.77c.49 0 .965-.388 1.056-.878l1.584-8.607h-1.112l-1.51 8.365a.28.28 0 0 1-.259.224h-.88c-.123 0-.205-.102-.185-.224l1.473-8.365h-1.187zm4.262 0l-1.788 9.485h1.186l.815-4.294h1.51c.491 0 .957-.391 1.047-.878l.649-3.37c.098-.523-.233-.943-.741-.943H27.39zm4.234 0l-1.853 9.485h2.668l.185-1.176h-1.316l.537-3.202h1.316l.185-.99H32.03l.584-2.941h1.316l.185-1.176h-2.491zm3.187 0l-1.779 9.485h1.186l.806-4.294h.843c.111.104.124.296.139.392.022.14.045.318.028.457-.015.139-.649 3.445-.649 3.445h1.186s.667-3.602.667-3.66c.002-.059 0-.243-.065-.345-.043-.065-.118-.216-.204-.271a2.082 2.082 0 0 0-.352-.177h-.083c.339-.135.979-.357 1.047-.719l.649-3.37c.098-.523-.233-.943-.741-.943h-2.678zm6.346 0l-1.788 9.485h1.362l1.102-5.499.435 5.499h1.186l1.788-9.485H43.88l-.926 4.957-.611-4.957h-1.186zm4.707 0l-1.788 9.485h1.186L47.05 14.2h-1.186zm1.806 0l-1.788 9.485h1.371l1.102-5.499.435 5.499h1.186l1.788-9.485h-1.371l-.917 4.957-.611-4.957H47.67zm4.596 0l-.222 1.176h.741l-1.464 8.309h1.353l1.492-8.309h.713l.185-1.176h-2.798zm3.261 0l-1.853 9.485h2.668l.185-1.176h-1.316l.547-3.202h1.316l.185-.99h-1.316l.574-2.941h1.316l.185-1.176h-2.491zm3.011 0l-1.788 9.485h1.371l1.102-5.499.435 5.499h1.186l1.788-9.485h-1.371l-.917 4.957-.611-4.957h-1.195zm4.716 0l-1.788 9.485h2.705c.491 0 .965-.388 1.056-.878l1.436-7.665c.097-.522-.233-.942-.741-.942h-2.668zm5.086 0c-.508 0-.993.421-1.084.943l-1.325 7.665c-.086.489.235.878.723.878h1.955c.49 0 .965-.388 1.056-.878l1.436-7.665c.098-.522-.234-.943-.741-.943h-2.02zm-4.077 1.092h.547c.35 0 .588.282.528.635l-1.167 6.208c-.061.352-.401.644-.751.644h-.537l1.38-7.487zm4.772 0h.037c.35 0 .579.282.519.635l-1.112 6.208c-.06.351-.382.644-.732.644s-.496-.292-.435-.644l1.102-6.208.009-.028.009-.028.009-.037.009-.028.009-.037.009-.028.009-.028.019-.028.009-.028.019-.028.009-.028.019-.028.019-.019.019-.028.019-.028.028-.019.019-.019.019-.019.028-.019.028-.019.019-.019.028-.019.028-.009.028-.019.019-.009.037-.009.028-.009h.028l.028-.009h.037l.024-.009zm-40.506.038h.574c.126 0 .394.291.371.42l-.491 2.343c-.023.121-.185.401-.306.401h-.713l-.009-.009h-.036v-.009h-.018l-.009-.009h-.009l-.009-.009-.009-.009h-.009v-.009l-.009-.009-.009-.009v-.012l-.009-.009-.009-.009v-.018l-.009-.009v-.018l-.009-.009v-.009c0-.015-.002-.039 0-.056l.556-2.866a.253.253 0 0 1 .171-.077zm7.384 0H36.486c.126 0 .395.291.371.42l-.491 2.334c-.022.122-.323.411-.445.411h-.51a.176.176 0 0 1-.185-.168c0-.015-.002-.038 0-.056l.547-2.866.009-.009.009-.009.019-.009h.009l.009-.009.009-.009h.009l.009-.009h.009l.019-.009H35.91v-.012zm-18.826 9.177v3.109h54.248v-3.109H17.087zm39.614.326H57.162c.112 0 .192.089.17.205l-.104.523h-.255l.057-.345c.013-.078-.033-.14-.113-.14a.177.177 0 0 0-.17.14l-.047.252c-.008.015.016.086.028.093.035.02.368.566.368.607.008.02.012.03.009.037-.01.068-.104.532-.104.532a.25.25 0 0 1-.236.196h-.397c-.11 0-.181-.09-.161-.196l.094-.532h.274l-.066.383c-.013.078.033.149.113.149.076 0 .157-.071.17-.149l.057-.308c-.051-.129-.385-.598-.406-.71-.015-.012-.021-.08-.019-.131.003-.056.076-.401.076-.401h.009V25.011l.009-.019v-.009l.009-.009v-.009l.009-.009v-.009l.009-.009.009-.009v-.009h.009l.009-.009.009-.009.009-.009v-.013h.009l.009-.009.009-.009h.009l.009-.009h.009l.009-.009H56.681l.02-.011zm2.172 0h.34l.047.794.434-.794h.34l-.699 1.214-.17.887h-.302l.151-.952-.141-1.149zm3.089 0H62.423c.112 0 .19.089.17.205l-.104.523h-.255l.057-.345c.013-.078-.033-.14-.113-.14a.176.176 0 0 0-.17.14l-.047.252c-.01.015.013.086.028.093.033.02.368.566.368.607.01.02.009.03.009.037l-.094.532a.252.252 0 0 1-.236.196h-.406c-.11 0-.181-.09-.161-.196l.094-.532h.274l-.066.383c-.013.078.036.149.113.149.079 0 .154-.071.17-.149l.057-.308c-.052-.129-.385-.598-.406-.71-.015-.012-.021-.08-.019-.131.003-.056.076-.401.076-.401l.009-.009v-.018l.009-.019v-.009l.009-.009v-.009l.009-.009v-.009l.009-.009.009-.009v-.009h.009l.009-.009.009-.009.009-.009.009-.009.009-.009.009-.009h.009l.009-.009h.009l.009-.009H61.943l.019-.015zm2.2 0h.633l-.047.252h-.161l-.331 1.848h-.312l.331-1.848h-.161l.048-.252zm2.475 0h.567l-.047.252h-.293l-.132.663h.302l-.047.215h-.293l-.123.709h.293l-.038.261h-.604l.415-2.1zm2.332 0h.349l.057 1.214.538-1.204.34-.009-.359 2.101h-.264l.17-1.111-.472 1.111h-.189l-.057-1.139-.208 1.139h-.312l.407-2.102zm-50.725.075h.557l-.038.261h-.302l-.123.654h.293l-.038.224h-.302l-.113.71h.293l-.047.261h-.604l.424-2.11zm2.607 0h.264l.142 1.102.208-1.102h.312l-.406 2.11h-.264l-.104-1.223-.246 1.223h-.312l.406-2.11zm2.833 0h.623l-.038.261h-.161l-.34 1.848h-.302l.331-1.848h-.17l.057-.261zm2.748 0h.567l-.047.261h-.293l-.132.654h.293l-.038.224h-.293l-.123.71h.293l-.038.261h-.604l.415-2.11zm2.664 0h.604c.112 0 .183.098.161.215l-.142.747c-.016.081-.159.147-.236.177h.037v.009h.036l.009.009H29.592v.009h.018v.009h.009c.013.023.019.09.019.103 0 .012-.151.831-.151.831h-.274l.151-.765c.003-.033-.004-.072-.009-.103-.002-.023-.003-.061-.028-.084h-.189l-.179.952h-.274l.411-2.109zm2.701 0h.633l-.038.261h-.161l-.34 1.848h-.302l.331-1.848h-.17l.047-.261zm3.145 0h.358l-.113 2.11h-.359l.047-.485h-.217l-.179.485h-.321l.784-2.11zm2.512 0h.274l-.406 2.11h-.264l.396-2.11zm2.436 0h.264l.142 1.102.208-1.102h.302l-.397 2.11h-.274l-.094-1.223-.246 1.223h-.312l.407-2.11zm3.126 0h.349l.057 1.223.538-1.214h.34l-.359 2.101h-.264l.17-1.111-.472 1.111h-.189l-.057-1.139-.208 1.139h-.301l.396-2.11zm3.429 0h.557l-.038.261h-.302l-.123.654h.293l-.038.224h-.302l-.123.71h.302l-.047.261h-.595l.416-2.11zm2.739 0h.264l.142 1.102.208-1.102h.302l-.397 2.11h-.264l-.104-1.223-.246 1.223h-.312l.407-2.11zm2.805 0h.633l-.047.261h-.161l-.331 1.848h-.302l.331-1.848h-.17l.047-.261zm-22.638.252c-.015 0-.027.009-.038.019l-.123.635v.009c0 .02.014.037.038.037h.113c.028 0 .099-.056.104-.084l.104-.523c.005-.03-.047-.093-.076-.093h-.122zm5.591.635l-.198.532h.151l.047-.532zM70.972 23.127h-.25v.559h-.176v-.559h-.259v-.116h.685v.116zM71.897 23.686h-.176v-.548l-.152.548h-.176l-.153-.545v.545h-.176v-.674h.257l.159.516.161-.516h.256v.674z"/></g><g fill="#aab3b2"><path d="M59.973 28.753h11.362v3.271H59.973zM17.087 28.753h11.362v3.271H17.087z"/></g><g fill="#aab3b2"><path d="M29.335 31.942l.72-3.105h1.23c.422 0 .726.079.913.237.187.158.265.401.237.73-.033.381-.167.665-.4.854-.234.188-.57.282-1.008.282h-.524l-.224 1.001h-.944zm1.323-1.734h.333c.183 0 .314-.027.394-.081.08-.054.125-.144.136-.269.009-.101-.017-.175-.078-.22s-.163-.068-.305-.068h-.325l-.155.638zM31.881 31.942l1.735-3.105h.956l.327 3.105h-.901l-.014-.371h-.952l-.183.371h-.968zm1.443-.997h.615l-.058-1.149-.557 1.149zM35.121 31.942l.728-3.105h.956l-.542 2.297h1.356l-.182.807h-2.316zM39.651 31.942l-.281-3.105h.918l.037 1.804v.111c-.001.037-.002.074-.006.111l-.007.06a4.56 4.56 0 0 1-.015.102c.021-.086.04-.157.058-.214.018-.057.034-.103.05-.138l.847-1.836h.991l-1.644 3.105h-.948zM41.781 31.942l.728-3.105h2.312l-.174.74h-1.378l-.104.426h1.226l-.168.691H43l-.106.497h1.468l-.169.75h-2.412zM44.59 31.942l.716-3.105h1.384c.386 0 .662.067.829.201.167.134.238.345.213.633a1.026 1.026 0 0 1-.192.533c-.11.149-.262.265-.456.348a.53.53 0 0 1 .266.205.56.56 0 0 1 .056.334c-.003.03-.006.061-.011.094a2.544 2.544 0 0 1-.018.104l-.06.314a.799.799 0 0 0-.017.103.173.173 0 0 0 .014.098.123.123 0 0 0 .064.056l-.007.08h-1.009a.326.326 0 0 1-.005-.064 1.02 1.02 0 0 1 .03-.246l.07-.312a.825.825 0 0 0 .02-.137c.011-.132-.017-.225-.084-.278-.068-.053-.193-.08-.376-.08h-.246l-.26 1.117h-.921zm1.331-1.779h.455c.143 0 .251-.026.323-.077.072-.051.113-.132.122-.241.008-.094-.015-.162-.071-.204-.056-.042-.152-.063-.287-.063h-.404l-.138.585zM47.731 30.954h.928l-.001.009c-.01.114.021.201.092.263.071.061.178.092.322.092a.412.412 0 0 0 .247-.064.244.244 0 0 0 .099-.187c.009-.101-.106-.207-.346-.316l-.137-.063c-.336-.16-.561-.312-.674-.456a.725.725 0 0 1-.141-.532.917.917 0 0 1 .376-.691c.225-.166.526-.249.904-.249s.669.088.874.264c.205.176.305.423.3.742h-.893c-.004-.105-.036-.184-.095-.235-.059-.051-.148-.077-.265-.077a.319.319 0 0 0-.199.061.207.207 0 0 0-.089.152c-.008.092.132.202.422.331l.275.126c.231.11.397.238.498.385a.777.777 0 0 1 .125.522.964.964 0 0 1-.401.734c-.24.175-.563.263-.971.263-.424 0-.745-.094-.965-.282-.219-.192-.314-.455-.285-.792zM50.619 31.942l.724-3.105h.96l-.724 3.105h-.96zM52.372 30.574c.022-.259.081-.498.176-.717a1.91 1.91 0 0 1 .381-.575 1.75 1.75 0 0 1 .576-.395c.214-.089.443-.134.688-.134.451 0 .793.13 1.028.389s.332.616.292 1.07a2.293 2.293 0 0 1-.17.703 1.828 1.828 0 0 1-.952.97c-.216.093-.45.139-.7.139-.445 0-.786-.13-1.022-.391-.237-.26-.336-.613-.297-1.059zm1.739-1.054c-.207 0-.384.099-.53.296-.147.197-.234.456-.262.775-.019.214.011.376.089.488.078.112.201.167.369.167.208 0 .386-.102.532-.308.147-.205.235-.478.264-.818.016-.187-.017-.334-.1-.441-.081-.105-.203-.159-.362-.159zM55.582 31.942l.72-3.105h.873l.556 1.585a.906.906 0 0 1 .04.177c.007.06.01.124.007.19a3.31 3.31 0 0 1 .053-.369l.368-1.583h.889l-.728 3.105h-.881l-.566-1.612c-.009-.031-.017-.076-.024-.136s-.009-.127-.01-.201l-.007.084a2.393 2.393 0 0 1-.04.267l-.365 1.598h-.885z"/></g></g></svg>