<svg enable-background="new 0 0 330.522 191.742" viewBox="0 0 330.522 191.742" xmlns="http://www.w3.org/2000/svg" xmlns:xlink="http://www.w3.org/1999/xlink"><clipPath id="a"><path d="m264.557 161.153h28.402v28.402h-28.402z"/></clipPath><clipPath id="b"><path d="m198.659 160.778h29.008v29.007h-29.008z"/></clipPath><path d="m330.522 158.233c0 4.063-3.323 7.386-7.387 7.386h-315.749c-4.063 0-7.386-3.323-7.386-7.386v-119.56c0-4.063 3.303-7.758 7.34-8.211l153.812-17.277c4.037-.453 10.642-.439 14.676.033l147.355 17.213c4.036.47 7.338 4.18 7.338 8.243v119.559z" fill="#d9d9d9"/><path d="m324.519 156.644c0 3.915-3.201 7.118-7.117 7.118h-304.283c-3.915 0-7.118-3.203-7.118-7.118v-115.22c0-3.915 3.183-7.475 7.073-7.911l148.227-.419c3.892-.436 10.256-.422 14.144.032l142.005.355c3.889.454 7.069 4.027 7.069 7.942z" fill="#e6e6e6"/><path d="m80.155 119.766c0 16.933-13.726 30.659-30.66 30.659-16.933 0-30.659-13.726-30.659-30.659s13.727-30.659 30.659-30.659c16.934-.001 30.66 13.725 30.66 30.659z" fill="#51514d"/><path d="m90.939 155.925h-14.771c-5.061 0-6.769-.422-6.769-2.721 0-2.218 2.145-3.042 5.385-6.501 6.734-7.185 11.663-16.314 11.663-26.938 0-20.408-16.545-36.952-36.953-36.952-9.715 0-17.518 4.433-17.518 4.433-3.532 1.821-6.126.802-6.126-3.261v-33.31c0-4.063 3.324-7.386 7.387-7.386h64.627c4.063 0 7.386 2.804 7.386 6.231v6.387c0 34.671 28.108 63.025 62.78 63.025 34.673 0 62.781-27.8 62.781-62.472 0 0 0-2.797 0-6.478s3.324-6.693 7.386-6.693h61.858c4.06 0 7.386 3.323 7.386 7.386v67.002c2.821 3.945 4.482 8.779 4.482 14.034 0 13.494-10.888 24.214-24.381 24.214z" fill="#51514d"/><path d="m287.861 147.648c-8.66 0-15.707-7.019-15.707-15.647 0-8.595 7.047-15.588 15.707-15.588s15.706 6.993 15.706 15.588c0 8.628-7.046 15.647-15.706 15.647zm0-26.618c-6.115 0-11.09 4.922-11.09 10.972 0 6.083 4.975 11.031 11.09 11.031 6.114 0 11.089-4.948 11.089-11.031 0-6.05-4.975-10.972-11.089-10.972z" fill="#d3d3d4"/><path d="m287.861 145.34c7.4 0 13.397-5.939 13.397-13.339s-5.998-13.28-13.397-13.28c-7.4 0-13.398 5.879-13.398 13.28-.001 7.4 5.997 13.339 13.398 13.339z" fill="#51514d"/><path d="m196.189 138.384h-15.695c-3.824 0-6.924-3.1-6.924-6.924s3.1-6.924 6.924-6.924h15.695c3.824 0 6.924 3.1 6.924 6.924.001 3.824-3.099 6.924-6.924 6.924z" fill="#d3d3d4"/><path d="m196.189 136.076h-15.695c-2.549 0-4.616-2.067-4.616-4.616s2.067-4.616 4.616-4.616h15.695c2.549 0 4.616 2.067 4.616 4.616.001 2.549-2.066 4.616-4.616 4.616z" fill="#51514d"/><path d="m155.655 138.384h-15.695c-3.824 0-6.924-3.1-6.924-6.924s3.1-6.924 6.924-6.924h15.695c3.824 0 6.924 3.1 6.924 6.924.001 3.824-3.1 6.924-6.924 6.924z" fill="#d3d3d4"/><path d="m155.655 136.076h-15.695c-2.549 0-4.616-2.067-4.616-4.616s2.067-4.616 4.616-4.616h15.695c2.549 0 4.616 2.067 4.616 4.616s-2.066 4.616-4.616 4.616z" fill="#51514d"/><path d="m257.895 104.816c0 .508-.416.923-.923.923h-13.079c-.508 0-.924-.416-.924-.923v-14.584c0-.507.336-1.168.746-1.469l5.973-4.384c.409-.3 1.079-.3 1.489 0l5.974 4.384c.409.301.744.962.744 1.469z" fill="#c01e10"/><path d="m295.325 104.816c0 .508-.415.923-.923.923h-13.077c-.51 0-.926-.416-.926-.923v-14.584c0-.507.337-1.168.747-1.469l5.972-4.384c.41-.3 1.08-.3 1.489 0l5.975 4.384c.408.301.743.962.743 1.469z" fill="#c01e10"/><path clip-rule="evenodd" d="m39.311 54.474-4.487-5.377-2.04 2.332.979.894-1.169 6.471 2.346-1.03-1.21-1.121.67-3.423 4.729 5.45 1.632-7.431 1.653-1-1.998-1.216zm3.954-4.476c.142.159.317.363.278.582l-.552 2.905c-.043.227-.245.392-.403.505s-.352.144-.546.175c.168.065.335.131.448.252.114.122.268.295.227.478l-.631 2.83c-.06.261-.326.425-.514.568-.19.142-.405.213-.621.286h7.552l.532-2.832c-.291.588-.581 1.175-1.076 1.553-.497.377-1.174.708-1.893.708h-1.386l.691-3.504c.25-.086.535-.077.79.048.257.123.484.363.69.624.205.261.385.542.528.841l.723-3.686c-.247.271-.522.516-.818.737-.298.22-.614.417-.912.515-.297.098-.574.098-.831.021l.716-3.449 1.114-.012c.503-.004 1.007-.065 1.413.269.408.333.721 1.032 1.03 1.731l.55-2.525h-7.675c.216.11.432.219.576.38zm9.047.885c-.564.482-1.074 1.121-1.413 1.818-.339.698-.512 1.456-.52 2.147-.008.694.146 1.326.427 1.904.284.58.695 1.106 1.204 1.461.511.357 1.116.543 1.672.629.557.084 1.062.07 1.463.014.401-.057.695-.152.966-.302l1.593-3.311c-.413.194-.833.371-1.268.55s-.886.361-1.365.42c-.477.056-.983-.01-1.434-.277-.449-.266-.841-.732-1.044-1.257-.205-.521-.218-1.1-.077-1.624.143-.521.444-.988.81-1.396.364-.408.793-.759 1.193-.989.399-.231.768-.344 1.143-.371l1.205 1.733 1.385-.517-.971-2.375c-.272-.009-.548 0-.874.036-.325.035-.701.096-1.092.196-.391.099-.795.24-1.307.473-.512.232-1.133.557-1.696 1.038z" fill="#c01e10" fill-rule="evenodd"/><path d="m78.506 153.413-2.412-2.796c8.982-7.751 14.134-18.996 14.134-30.851 0-22.461-18.273-40.734-40.734-40.734-6.405 0-12.535 1.443-18.221 4.291l-1.653-3.302c6.203-3.107 12.89-4.682 19.874-4.682 24.497 0 44.427 19.93 44.427 44.427.001 12.93-5.618 25.194-15.415 33.647z" fill="#c01e10"/><path d="m287.581 152.36c11.356 0 20.559-9.02 20.559-20.375s-9.202-20.376-20.559-20.376h-37.605c-11.355 0-20.559 9.021-20.559 20.376s9.204 20.466 20.559 20.466z" fill="#c01e10"/><path d="m250.433 147.648c-8.661 0-15.707-7.019-15.707-15.647 0-8.595 7.046-15.588 15.707-15.588 8.66 0 15.706 6.993 15.706 15.588 0 8.628-7.046 15.647-15.706 15.647zm0-26.618c-6.116 0-11.092 4.922-11.092 10.972 0 6.083 4.976 11.031 11.092 11.031 6.114 0 11.089-4.948 11.089-11.031 0-6.05-4.975-10.972-11.089-10.972z" fill="#d3d3d4"/><path d="m250.433 145.34c7.399 0 13.398-5.939 13.398-13.339s-5.998-13.28-13.398-13.28-13.399 5.879-13.399 13.28c0 7.4 6 13.339 13.399 13.339z" fill="#51514d"/><path d="m287.865 147.852c8.796 0 15.926-7.06 15.926-15.857 0-8.796-7.13-15.786-15.926-15.786-8.798 0-15.93 6.989-15.93 15.786s7.132 15.857 15.93 15.857z" fill="#d3d3d4"/><path d="m287.865 145.34c7.398 0 13.398-5.939 13.398-13.339s-6-13.28-13.398-13.28c-7.4 0-13.4 5.879-13.4 13.28 0 7.4 5.999 13.339 13.4 13.339z" fill="#51514d"/><path d="m124.176 10.946c-1.524 0-2.77 1.247-2.77 2.769v45.48c0 26.195 20.89 47.5 47.085 47.5 26.197 0 47.086-21.165 47.086-47.361v-45.619c0-1.523-1.246-2.769-2.77-2.769z" fill="#d9d9d9"/><path d="m57.844 89.808c0-.531-.426-1.052-.945-1.156 0 0-2.867-.915-7.404-.915-4.34 0-7.402.914-7.402.914-.52.105-.945.626-.945 1.157v20.645c0 .531-.434.965-.965.965h-20.646c-.531 0-1.052.425-1.156.945 0 0-.916 2.9-.916 7.403 0 3.838.916 7.403.916 7.403.104.52.625.944 1.156.944h20.646c.531 0 .965.435.965.965v20.645c0 .531.425 1.052.945 1.157 0 0 2.526.914 7.402.914 4.964 0 7.404-.916 7.404-.916.52-.104.945-.624.945-1.155v-20.645c0-.531.434-.965.964-.965h20.645c.531 0 1.051-.425 1.155-.944 0 0 .916-2.495.916-7.403 0-5.166-.916-7.403-.916-7.403-.104-.52-.624-.945-1.155-.945h-20.645c-.53 0-.964-.434-.964-.965z" fill="#6a6967"/><path d="m56.542 119.766c0 3.893-3.155 7.047-7.048 7.047s-7.048-3.154-7.048-7.047c0-3.894 3.155-7.048 7.048-7.048 3.894-.001 7.048 3.154 7.048 7.048z" fill="#51514d"/><path d="m98.081 158.963h-88.414c-1.606 0-2.908 1.302-2.908 2.908v26.658c0 1.605 1.302 2.908 2.908 2.908h88.414c1.606 0 2.909-1.303 2.909-2.908v-26.658c0-1.606-1.303-2.908-2.909-2.908" fill="#f5f5f4"/><g fill="#35485c"><path d="m9.667 158.963v.305h88.414c1.438.003 2.601 1.165 2.604 2.603v26.658c-.003 1.437-1.166 2.601-2.604 2.603h-88.414c-1.437-.003-2.601-1.166-2.603-2.603v-26.658c.003-1.438 1.166-2.601 2.603-2.603v-.305-.305c-1.774 0-3.213 1.438-3.213 3.213v26.658c0 1.774 1.439 3.213 3.213 3.213h88.414c1.775 0 3.213-1.439 3.214-3.213v-26.658c0-1.775-1.439-3.213-3.214-3.213h-88.414z"/><path d="m25.675 189.787h-5.563c-1.791 0-2.44-1.46-2.44-2.441v-6.832h-6.833c-1.792 0-2.442-1.46-2.442-2.441v-5.563c0-1.791 1.461-2.44 2.442-2.44h6.833v-6.833c0-1.791 1.459-2.441 2.44-2.441h5.563c1.792 0 2.441 1.461 2.441 2.441v6.833h6.831c.939 0 1.685.41 2.1 1.157.162.294.357.87.335 1.282h.006v5.563c0 1.792-1.46 2.442-2.441 2.442h-6.831v6.831c0 1.792-1.459 2.442-2.441 2.442zm-14.837-18.546c-.294.005-1.268.109-1.268 1.268v5.563c.004.294.108 1.269 1.268 1.269h8.006v8.005c.004.294.108 1.269 1.267 1.269h5.561c.301-.005 1.271-.111 1.271-1.269v-8.004h8.004c.294-.005 1.268-.11 1.268-1.269v-5.571c-.004-.225-.087-1.259-1.267-1.259h-8.003v-8.006c-.005-.294-.109-1.268-1.269-1.268h-5.563c-.294.005-1.267.108-1.267 1.268v8.005h-8.008z"/><path d="m22.894 178.148c-1.574 0-2.854-1.282-2.854-2.856 0-1.575 1.281-2.855 2.854-2.855 1.575 0 2.856 1.281 2.856 2.855 0 1.575-1.282 2.856-2.856 2.856zm0-4.539c-.927 0-1.681.755-1.681 1.683 0 .929.754 1.683 1.681 1.683.928 0 1.682-.755 1.682-1.683s-.755-1.683-1.682-1.683z"/><path d="m22.894 163.285-2.352 3.664h4.704z"/><path d="m25.245 167.536h-4.704c-.214 0-.411-.117-.515-.305-.103-.188-.095-.418.021-.599l2.351-3.664c.216-.338.772-.337.987 0l2.353 3.664c.116.181.125.41.021.599-.102.188-.299.305-.514.305zm-3.629-1.173h2.556l-1.278-1.991z"/><path d="m10.841 175.292 3.665 2.35v-4.702z"/><path d="m14.506 178.229c-.11 0-.221-.031-.317-.093l-3.665-2.351c-.168-.106-.27-.293-.27-.493s.102-.386.27-.494l3.665-2.352c.18-.115.41-.124.599-.021.188.102.305.3.305.515v4.701c0 .215-.117.412-.305.516-.089.048-.186.072-.282.072zm-2.578-2.937 1.991 1.276v-2.554z"/><path d="m34.902 175.291-3.666-2.351v4.702z"/><path d="m31.237 178.229c-.097 0-.193-.023-.281-.071-.188-.104-.306-.301-.306-.516v-4.701c0-.215.117-.412.306-.515.187-.104.417-.097.599.021l3.666 2.352c.168.107.27.294.27.493s-.102.386-.27.494l-3.666 2.351c-.097.06-.208.092-.318.092zm.587-4.215v2.555l1.992-1.277z"/><path d="m22.894 187.298 2.352-3.665h-4.704z"/><path d="m22.894 187.885c-.2 0-.386-.102-.494-.271l-2.351-3.664c-.116-.181-.124-.41-.021-.599.103-.188.3-.306.515-.306h4.704c.214 0 .411.116.515.306.103.188.095.418-.021.599l-2.353 3.664c-.109.169-.295.271-.494.271zm-1.278-3.665 1.278 1.991 1.278-1.991z"/><path d="m46.882 180.976v-11.973h3.379c1.042 0 1.963.229 2.763.69s1.417 1.115 1.85 1.965c.438.851.661 1.826.666 2.928v.765c0 1.129-.219 2.119-.658 2.969-.433.85-1.056 1.502-1.867 1.957-.806.455-1.746.688-2.82.699zm1.578-10.674v9.383h1.661c1.217 0 2.163-.379 2.837-1.135.68-.757 1.02-1.834 1.02-3.232v-.698c0-1.359-.321-2.415-.962-3.166-.636-.757-1.541-1.141-2.713-1.151h-1.843z"/><path d="m56.848 175.269h4.013v1.241h-4.013z"/><path d="m64.15 176.288v4.688h-1.579v-11.973h4.416c1.31 0 2.335.334 3.075 1.003.746.669 1.118 1.554 1.118 2.656 0 1.162-.364 2.059-1.093 2.688-.724.625-1.763.938-3.117.938zm0-1.291h2.837c.844 0 1.491-.197 1.94-.592.45-.4.674-.976.674-1.727 0-.713-.225-1.283-.674-1.711s-1.066-.649-1.85-.666h-2.927z"/><path d="m78.688 177.851h-5.016l-1.126 3.125h-1.628l4.572-11.973h1.381l4.58 11.973h-1.62zm-4.539-1.3h4.07l-2.04-5.6z"/><path d="m83.063 180.976v-11.973h3.379c1.042 0 1.962.229 2.763.69s1.417 1.115 1.851 1.965c.438.851.66 1.826.666 2.928v.765c0 1.129-.219 2.119-.658 2.969-.433.85-1.055 1.502-1.866 1.957-.806.455-1.746.688-2.821.699zm1.578-10.674v9.383h1.661c1.217 0 2.163-.379 2.837-1.135.68-.757 1.02-1.834 1.02-3.232v-.698c0-1.359-.321-2.415-.962-3.166-.636-.757-1.541-1.141-2.714-1.151h-1.842z"/></g><path d="m320.403 158.902h-54.826c-1.612 0-2.919 1.308-2.919 2.92v26.756c0 1.612 1.307 2.919 2.919 2.919h54.826c1.612 0 2.919-1.307 2.919-2.919v-26.756c0-1.612-1.307-2.92-2.919-2.92" fill="#f5f5f4"/><path d="m265.577 158.902v.245h54.826c1.477.003 2.671 1.198 2.674 2.675v26.756c-.003 1.477-1.197 2.671-2.674 2.674h-54.826c-1.477-.003-2.671-1.197-2.674-2.674v-26.756c.003-1.477 1.197-2.672 2.674-2.675v-.245-.245c-1.748 0-3.164 1.417-3.164 3.165v26.756c0 1.748 1.416 3.164 3.164 3.164h54.826c1.748 0 3.164-1.416 3.164-3.164v-26.756c0-1.748-1.416-3.165-3.164-3.165h-54.826z" fill="#35485c"/><path d="m309.452 177.851h-5.017l-1.126 3.125h-1.628l4.571-11.973h1.382l4.58 11.973h-1.62zm-4.539-1.3h4.07l-2.039-5.6z" fill="#35485c"/><path clip-path="url(#a)" d="m287.724 178.739c-2.166 0-3.923-1.757-3.923-3.923s1.757-3.922 3.923-3.922 3.922 1.756 3.922 3.922-1.756 3.923-3.922 3.923m-8.254-6.435c-2.166 0-3.922-1.756-3.922-3.923 0-2.165 1.756-3.922 3.922-3.922 2.167 0 3.922 1.757 3.922 3.922 0 2.167-1.755 3.923-3.922 3.923m-1.413 14.035c-2.166 0-3.922-1.757-3.922-3.923s1.756-3.922 3.922-3.922 3.922 1.756 3.922 3.922-1.756 3.923-3.922 3.923m-8.153-6.6c-2.166 0-3.922-1.755-3.922-3.923 0-2.165 1.756-3.921 3.922-3.921 2.167 0 3.923 1.756 3.923 3.921 0 2.168-1.756 3.923-3.923 3.923m8.907-18.586c-7.829 0-14.176 6.347-14.176 14.176s6.347 14.176 14.176 14.176 14.176-6.347 14.176-14.176-6.347-14.176-14.176-14.176" fill="#35485c"/><path clip-path="url(#a)" d="m280.831 182.416c0 1.531-1.242 2.773-2.773 2.773-1.532 0-2.773-1.242-2.773-2.773s1.241-2.773 2.773-2.773c1.53 0 2.773 1.242 2.773 2.773" fill="#35485c"/><path clip-path="url(#a)" d="m272.825 175.817c0 1.613-1.308 2.922-2.921 2.922s-2.921-1.309-2.921-2.922 1.308-2.922 2.921-2.922 2.921 1.309 2.921 2.922" fill="#35485c"/><path clip-path="url(#a)" d="m282.239 168.461c0 1.531-1.242 2.773-2.773 2.773-1.532 0-2.773-1.242-2.773-2.773 0-1.532 1.241-2.773 2.773-2.773 1.531 0 2.773 1.241 2.773 2.773" fill="#35485c"/><path d="m254.999 158.902h-54.827c-1.612 0-2.919 1.308-2.919 2.92v26.756c0 1.612 1.307 2.919 2.919 2.919h54.827c1.612 0 2.919-1.307 2.919-2.919v-26.756c0-1.612-1.306-2.92-2.919-2.92" fill="#f5f5f4"/><path d="m200.172 158.902v.245h54.828c1.477.003 2.671 1.198 2.674 2.675v26.756c-.003 1.477-1.197 2.671-2.674 2.674h-54.827c-1.477-.003-2.671-1.197-2.674-2.674v-26.756c.003-1.477 1.197-2.672 2.674-2.675v-.245-.245c-1.748 0-3.164 1.417-3.164 3.165v26.756c0 1.748 1.416 3.164 3.164 3.164h54.827c1.748 0 3.164-1.416 3.164-3.164v-26.756c0-1.748-1.416-3.165-3.164-3.165h-54.827v.245z" fill="#35485c"/><path d="m237.436 180.976v-11.973h3.915c1.299 0 2.274.269 2.927.806.658.537.987 1.332.987 2.385 0 .559-.159 1.055-.478 1.488-.317.428-.751.759-1.299.995.646.181 1.156.526 1.529 1.036.378.504.567 1.107.567 1.809 0 1.074-.349 1.919-1.044 2.532-.696.614-1.681.922-2.952.922zm1.579-5.601v4.31h2.606c.735 0 1.313-.189 1.735-.567.428-.384.642-.91.642-1.579 0-1.441-.784-2.163-2.352-2.163h-2.631zm0-1.266h2.385c.69 0 1.241-.173 1.653-.519.416-.345.624-.813.624-1.406 0-.657-.191-1.135-.575-1.431-.384-.302-.968-.452-1.751-.452h-2.336z" fill="#35485c"/><path clip-path="url(#b)" d="m222.32 178.739c-2.212 0-4.006-1.794-4.006-4.007 0-2.212 1.794-4.005 4.006-4.005 2.213 0 4.006 1.793 4.006 4.005 0 2.213-1.793 4.007-4.006 4.007m-8.43-6.572c-2.212 0-4.006-1.794-4.006-4.007 0-2.212 1.794-4.006 4.006-4.006 2.213 0 4.006 1.794 4.006 4.006 0 2.213-1.793 4.007-4.006 4.007m-1.443 14.334c-2.212 0-4.005-1.794-4.005-4.006 0-2.213 1.793-4.006 4.005-4.006s4.006 1.793 4.006 4.006c0 2.212-1.794 4.006-4.006 4.006m-8.326-6.74c-2.213 0-4.006-1.793-4.006-4.006 0-2.212 1.793-4.005 4.006-4.005 2.212 0 4.006 1.793 4.006 4.005-.001 2.213-1.794 4.006-4.006 4.006m9.096-18.983c-7.996 0-14.478 6.481-14.478 14.479 0 7.996 6.481 14.478 14.478 14.478s14.479-6.481 14.479-14.478-6.483-14.479-14.479-14.479" fill="#35485c"/><path clip-path="url(#b)" d="m225.18 174.732c0 1.58-1.28 2.86-2.86 2.86s-2.86-1.28-2.86-2.86c0-1.579 1.28-2.859 2.86-2.859s2.86 1.28 2.86 2.859" fill="#35485c"/><path clip-path="url(#b)" d="m207.104 175.755c0 1.647-1.337 2.984-2.984 2.984s-2.983-1.337-2.983-2.984 1.336-2.983 2.983-2.983 2.984 1.335 2.984 2.983" fill="#35485c"/><path clip-path="url(#b)" d="m216.718 168.241c0 1.564-1.269 2.833-2.833 2.833s-2.832-1.269-2.832-2.833 1.268-2.832 2.832-2.832 2.833 1.268 2.833 2.832" fill="#35485c"/><path d="m265.402.309h-90.442c-1.605 0-2.908 1.302-2.908 2.908v26.652c0 1.606 1.303 2.908 2.908 2.908h90.441c1.606 0 2.908-1.302 2.908-2.908v-26.653c.001-1.606-1.301-2.907-2.907-2.907" fill="#f5f5f4"/><path d="m174.96.309v.308h90.441c1.436.003 2.597 1.164 2.6 2.6v26.652c-.003 1.436-1.164 2.597-2.6 2.6h-90.441c-1.435-.003-2.597-1.164-2.6-2.6v-26.653c.003-1.436 1.165-2.597 2.6-2.6v-.307-.309c-1.776 0-3.216 1.439-3.216 3.216v26.652c0 1.776 1.441 3.216 3.216 3.216h90.441c1.777 0 3.216-1.44 3.216-3.216v-26.652c0-1.776-1.44-3.216-3.216-3.216h-90.441z" fill="#35485c"/><path d="m199.378 14.038h1.108v-4.685h1.976v-.871h-5.059v.871h1.976zm-6.716-3.064v-1.621h1.913c.582 0 .944.225.944.801 0 .623-.333.82-.944.82zm-1.106 3.064h1.105v-2.194h1.883c.812 0 .916.561.916 1.353 0 .405.052.686.134.841h1.196c-.217-.305-.224-.924-.224-1.192 0-.785-.139-1.361-.766-1.499v-.017c.495-.163.869-.614.869-1.339 0-.862-.434-1.506-1.777-1.506h-3.335zm-6.849 0h1.196l.545-1.377h2.48l.553 1.377h1.236l-2.348-5.556h-1.313zm2.074-2.248.915-2.345.9 2.345zm-5.189 2.248h1.105v-4.685h1.979v-.871h-5.063v.871h1.979zm-7.557-3.994c0 2.279 3.882 1.079 3.882 2.458 0 .61-.627.82-1.298.82-.909 0-1.482-.352-1.514-1.084h-1.194c.016 1.168.774 1.956 2.674 1.956 1.121 0 2.528-.375 2.528-1.808 0-2.373-3.926-1.121-3.926-2.426 0-.521.487-.762 1.225-.762.922 0 1.292.465 1.33.895h1.196c-.143-1.614-1.766-1.767-2.579-1.767-1.284 0-2.324.481-2.324 1.718" fill="#35485c"/><path d="m199.496 16.79h-22.642c-1.637 0-2.964 1.366-2.964 3.05s1.327 3.05 2.964 3.05h22.642c1.637 0 2.963-1.365 2.963-3.05s-1.327-3.05-2.963-3.05z" fill="#35485c"/><path d="m215.7 16.981c-1.354-.389-2.34-.866-2.96-1.431-.613-.57-.921-1.271-.921-2.105 0-.943.376-1.721 1.127-2.335.756-.619 1.737-.929 2.943-.929.822 0 1.555.159 2.195.477.647.318 1.146.756 1.497 1.316.356.559.534 1.17.534 1.833h-1.587c0-.724-.23-1.291-.69-1.702-.461-.417-1.11-.625-1.949-.625-.778 0-1.387.173-1.825.518-.434.34-.649.814-.649 1.423 0 .488.205.901.616 1.241.417.334 1.121.642 2.113.921.998.279 1.776.589 2.336.929.564.334.98.726 1.249 1.176.274.449.411.979.411 1.587 0 .97-.378 1.749-1.135 2.335-.756.581-1.768.872-3.034.872-.822 0-1.59-.156-2.302-.469-.713-.318-1.264-.751-1.653-1.299-.384-.548-.575-1.17-.575-1.867h1.587c0 .724.266 1.296.798 1.719.537.417 1.252.625 2.146.625.834 0 1.473-.17 1.916-.51.444-.34.666-.803.666-1.39s-.205-1.039-.616-1.357c-.412-.322-1.158-.641-2.238-.953z" fill="#35485c"/><path d="m230.444 11.645h-3.849v10.673h-1.57v-10.673h-3.84v-1.3h9.259z" fill="#35485c"/><path d="m238.19 19.193h-5.017l-1.126 3.125h-1.628l4.571-11.973h1.382l4.58 11.973h-1.62zm-4.539-1.299h4.07l-2.039-5.6z" fill="#35485c"/><path d="m246.956 17.475h-2.813v4.843h-1.587v-11.973h3.963c1.349 0 2.385.307 3.108.921.729.614 1.094 1.508 1.094 2.681 0 .746-.203 1.396-.608 1.949-.4.553-.959.967-1.678 1.241l2.813 5.082v.099h-1.694zm-2.813-1.291h2.426c.784 0 1.406-.203 1.866-.608.466-.406.699-.949.699-1.628 0-.74-.222-1.307-.666-1.702-.438-.395-1.074-.595-1.907-.6h-2.418z" fill="#35485c"/><path d="m260.54 11.645h-3.849v10.673h-1.57v-10.673h-3.84v-1.3h9.259z" fill="#35485c"/><path d="m88.354 20.397c-.298 1.323-1.45 2.309-2.827 2.309h-22.173c-1.375 0-2.528-.985-2.827-2.307v9.803h27.827zm-22.834-6.359v-5.439h3.71v.852h-2.813v1.373h2.697v.852h-2.697v1.508h2.858v.853h-3.755m4.729.001v-5.439h.897v4.542h2.595v.897zm4.289 0 .001-5.438h3.704v.852h-2.809v1.373h2.697v.852h-2.697v1.508h2.858v.853zm6.77.153c-1.542 0-2.281-1.342-2.281-2.872 0-1.534.707-2.872 2.387-2.872 1.469 0 2.235.989 2.331 2.162l-.966-.001c-.09-.824-.622-1.311-1.376-1.311-.827 0-1.441.703-1.441 2.12 0 1.135.614 1.922 1.501 1.922.931 0 1.241-.809 1.316-1.38h.966c-.125 1.083-.68 2.232-2.437 2.232m7.046-11.816h-27.827v9.9h.904c.025.718.489 1.063 1.226 1.063.545 0 1.053-.206 1.053-.803 0-1.35-3.145-.174-3.145-2.405 0-1.212.843-1.683 1.882-1.683.658 0 1.974.15 2.089 1.728h-.969c-.03-.421-.331-.878-1.078-.878-.597 0-.991.237-.991.748 0 1.277 3.18.052 3.18 2.375 0 1.403-1.141 1.769-2.05 1.769-1.266 0-1.907-.522-2.1-1.345v6.194c.299-1.322 1.452-2.307 2.827-2.307h22.173c1.376 0 2.528.986 2.827 2.309v-9.588h-1.523v4.586h-.896v-4.587h-1.603v-.852h4.022v-6.224m-27.903 17.344v-17.42h27.977v6.3h.005v.852h-.005v20.825h-27.977zm99.517-19.078h-98.262c-1.428.003-2.583 1.158-2.585 2.586v26.632c.002 1.428 1.157 2.583 2.585 2.585h98.262c1.428-.002 2.583-1.157 2.585-2.585v-26.632c-.002-1.428-1.157-2.584-2.585-2.586" fill="#f5f5f4"/><path d="m61.707.32v.32h98.262c1.428.003 2.583 1.158 2.585 2.586v26.632c-.003 1.428-1.158 2.583-2.585 2.585h-98.262c-1.428-.002-2.583-1.157-2.585-2.585v-26.631c.002-1.428 1.158-2.583 2.585-2.586v-.321-.32c-1.782 0-3.226 1.445-3.226 3.227v26.632c0 1.782 1.444 3.226 3.226 3.226h98.262c1.782 0 3.226-1.444 3.226-3.226v-26.632c0-1.782-1.444-3.226-3.226-3.227h-98.262z" fill="#35485c"/><path d="m85.527 16.732h-22.173c-1.602 0-2.903 1.337-2.903 2.987s1.3 2.987 2.903 2.987h22.173c1.603 0 2.902-1.337 2.902-2.987s-1.299-2.987-2.902-2.987" fill="#35485c"/><path d="m85.935 14.038h.896v-4.586h1.604v-.853h-4.102v.852h1.603v4.587m-2.191-3.429c-.095-1.173-.862-2.162-2.331-2.162-1.68 0-2.387 1.338-2.387 2.872 0 1.529.739 2.872 2.281 2.872 1.757 0 2.312-1.148 2.437-2.233h-.966c-.075.571-.385 1.38-1.316 1.38-.887 0-1.501-.787-1.501-1.922 0-1.417.614-2.12 1.441-2.12.754 0 1.286.487 1.376 1.311zm-9.207 3.429h3.754v-.853h-2.858v-1.508h2.697v-.852h-2.697v-1.373h2.809v-.853h-3.704zm-4.289 0h3.492v-.897h-2.595v-4.542h-.897zm-4.729 0h3.755v-.853h-2.858v-1.508h2.697v-.852h-2.697v-1.373h2.813v-.853h-3.71zm-4.956-3.909c0 2.231 3.145 1.055 3.145 2.405 0 .598-.508.803-1.053.803-.737 0-1.201-.344-1.226-1.063h-.968c.012 1.144.627 1.914 2.165 1.914.91 0 2.05-.366 2.05-1.769 0-2.323-3.18-1.098-3.18-2.375 0-.511.395-.748.991-.748.747 0 1.047.457 1.078.878h.969c-.115-1.578-1.431-1.728-2.089-1.728-1.038.001-1.882.472-1.882 1.683" fill="#35485c"/><path d="m88.429 9.452h-.075v9.589c.049.218.075.445.075.678s-.026.461-.075.678v9.804h-27.827v-9.803c-.049-.219-.076-.446-.076-.68v10.558h27.977v-20.824m.001-7.153h-27.977v17.419c0-.234.026-.462.076-.68v-6.194c-.041-.177-.062-.367-.064-.569h.064v-9.9h27.827v6.224h.075v-6.3" fill="#f5f5f4"/><path d="m88.354 19.04v1.357c.049-.218.075-.445.075-.678 0-.234-.026-.461-.075-.679m-27.827-.001c-.049.218-.076.446-.076.68 0 .234.026.462.076.68z" fill="#35485c"/><path d="m60.527 12.275h-.064c.002.202.023.392.064.569zm27.902-3.676h-.075v.852h.075z" fill="#35485c"/><path d="m102.436 16.981c-1.354-.389-2.341-.866-2.96-1.431-.614-.57-.921-1.271-.921-2.105 0-.943.375-1.721 1.126-2.335.756-.619 1.738-.929 2.944-.929.822 0 1.554.159 2.195.477.647.318 1.146.756 1.497 1.316.356.559.534 1.17.534 1.833h-1.587c0-.724-.23-1.291-.69-1.702-.46-.417-1.11-.625-1.949-.625-.779 0-1.387.173-1.826.518-.433.34-.649.814-.649 1.423 0 .488.206.901.617 1.241.417.334 1.121.642 2.113.921.998.28 1.776.589 2.335.929.565.334.981.727 1.25 1.176.274.449.411.979.411 1.587 0 .97-.378 1.749-1.135 2.335-.756.581-1.768.872-3.034.872-.822 0-1.59-.156-2.302-.469-.713-.318-1.264-.751-1.653-1.299-.384-.548-.576-1.17-.576-1.867h1.587c0 .724.266 1.296.798 1.719.537.417 1.252.625 2.146.625.833 0 1.472-.17 1.916-.51s.666-.803.666-1.39-.206-1.039-.617-1.357c-.41-.322-1.156-.641-2.236-.953z" fill="#35485c"/><path d="m115.675 16.784h-5.189v4.243h6.028v1.291h-7.606v-11.973h7.524v1.3h-5.946v3.848h5.189z" fill="#35485c"/><path d="m120.066 21.027h5.674v1.291h-7.261v-11.973h1.587z" fill="#35485c"/><path d="m134.324 16.784h-5.188v4.243h6.027v1.291h-7.606v-11.973h7.524v1.3h-5.945v3.848h5.188z" fill="#35485c"/><path d="m145.935 18.519c-.148 1.266-.617 2.245-1.406 2.936-.784.685-1.828 1.028-3.133 1.028-1.415 0-2.549-.507-3.404-1.521-.85-1.014-1.274-2.371-1.274-4.07v-1.151c0-1.113.197-2.091.592-2.936.4-.844.965-1.491 1.694-1.94.729-.455 1.574-.683 2.533-.683 1.272 0 2.292.356 3.059 1.069.768.707 1.214 1.688 1.34 2.944h-1.587c-.137-.954-.436-1.645-.896-2.072-.455-.428-1.094-.642-1.916-.642-1.008 0-1.801.373-2.376 1.118-.57.746-.855 1.807-.855 3.183v1.159c0 1.299.271 2.333.814 3.1.543.768 1.302 1.151 2.278 1.151.877 0 1.549-.198 2.015-.592.471-.4.784-1.094.938-2.08h1.584z" fill="#35485c"/><path d="m156.123 11.645h-3.848v10.673h-1.571v-10.673h-3.84v-1.3h9.259z" fill="#35485c"/><path d="m250.054 130.502c1.047 0 1.896.83 1.896 1.854s-.849 1.854-1.896 1.854c-1.046 0-1.895-.83-1.895-1.854s.849-1.854 1.895-1.854z" fill="#1a1919"/><path d="m288.03 130.584c1.047 0 1.896.83 1.896 1.854s-.849 1.854-1.896 1.854c-1.046 0-1.895-.83-1.895-1.854s.849-1.854 1.895-1.854z" fill="#1a1919"/><ellipse cx="188.262" cy="132.029" fill="#1a1919" rx="1.896" ry="1.854"/><path d="m147.585 130.093c1.047 0 1.896.83 1.896 1.854s-.849 1.854-1.896 1.854c-1.046 0-1.895-.83-1.895-1.854s.849-1.854 1.895-1.854z" fill="#1a1919"/><ellipse cx="49.7" cy="120.571" fill="#1a1919" rx="1.895" ry="1.854"/><path d="m288.004 132.356.052 26.782" fill="#1a1919"/><path d="m287.71 132.357.052 26.781.588-.001-.051-26.781" fill="#1a1919"/><path d="m250.028 132.356.053 26.727" fill="#1a1919"/><path d="m249.734 132.357.053 26.727.588-.002-.053-26.726" fill="#1a1919"/><path d="m49.592 121.116.053 37.968" fill="#1a1919"/><path d="m49.242 121.117.053 37.967.699-.001-.052-37.967" fill="#1a1919"/><path d="m147.478 33.024.052 98.869" fill="#1a1919"/><path d="m146.912 33.025.053 98.868 1.131-.001-.053-98.868" fill="#1a1919"/><path d="m188.236 32.777.053 98.868" fill="#1a1919"/><path d="m187.67 32.777.053 98.868 1.131-.001-.053-98.867" fill="#1a1919"/></svg>