<svg xmlns="http://www.w3.org/2000/svg" viewBox="0 0 30 30"><path fill="#bfbfbf" d="M11.999 1.5h3V3h3v1.5h1.5v2.999h1.499v4.5h1.5v3h-1.5v-1.5h-1.499v3h-3v1.499h1.5v1.5h1.5v3h-3v4.5h1.5V28.5h-4.5v-3h-3v3h-4.5v-1.502h1.5v-4.5H4.5v-3h1.499v-1.5h1.5v-1.499H4.5v-3H3v1.5H1.5v-3H3v-4.5h1.5V4.5h1.499V3h3V1.5z"/><g fill="#676767"><path d="M4.5 11.999v-4.5H6v4.5zM5.999 11.999h1.5v1.5h-1.5zM5.999 5.999h3v1.5h-3zM8.999 7.499h1.5v1.5h-1.5zM17.998 11.999v-4.5h1.5v4.5zM17.998 13.499h-1.5v-1.5h1.5zM17.998 7.5h-3V6h3zM14.999 9h-1.5V7.5h1.5z"/></g><path fill="#dcdcdc" d="M8.999 3h3v1.5h-3z"/><g fill="#5d5d5d"><path d="M7.499 17.997h1.5v9.001h-1.5zM8.999 22.498h1.5v4.5h-1.5zM10.499 20.998h5.999V25.5h-5.999zM14.999 25.5h1.5V27h-1.5zM12.02 19.498h4.478v1.5H12.02zM14.999 17.998h1.5v1.5h-1.5z"/></g><g fill="#707070"><path d="M4.5 3H6v1.5H4.5zM5.999 1.5h3V3h-3zM3 7.5v-3h1.5v3zM1.5 11.999v-4.5H3v4.5zM0 14.999v-3h1.5v3zM1.5 14.999H3v1.5H1.5zM3 16.498v-3h1.5v3zM4.5 19.498v-1.5H6v1.5z"/><path d="M4.5 16.499h3v1.5h-3zM3 22.498v-3h1.5v3zM4.5 22.498h3v1.5h-3z"/><path d="M6 26.997v-3h1.5v3zM4.5 29.997v-3H6v3zM10.5 30H6v-1.5h4.5zM8.999 0h5.999v1.5H8.999zM10.499 28.5v-3h3v3zM19.499 4.499h-1.5v-1.5h1.5zM17.998 2.998h-3v-1.5h3z"/><path d="M19.498 7.498v-3h1.5v3zM20.998 11.998v-4.5h1.5v4.5zM22.498 14.997v-3h1.5v3zM22.498 16.498h-1.5v-1.5h1.5zM19.498 16.498v-3h1.5v3zM17.998 19.498v-1.5h1.5v1.5zM19.498 17.997h-3v-1.5h3zM19.498 22.497v-3h1.5v3zM19.498 23.996h-3v-1.5h3zM16.499 26.996v-3h1.5v3zM17.998 29.996v-3h1.5v3z"/><path d="M13.499 28.499h4.5v1.5h-4.5zM9 13.5v-3h1.5v3zM13.499 13.499v-3h1.5v3zM10.499 16.499h3v1.5h-3zM8.999 14.999h1.5v1.5h-1.5z"/></g></svg>