<svg xmlns="http://www.w3.org/2000/svg" viewBox="0 0 214.591 69.476"><linearGradient id="a" gradientUnits="userSpaceOnUse" x1="96.838" y1="69.477" x2="96.838" y2="5.135"><stop offset=".3" stop-color="#f2e500"/><stop offset=".6" stop-color="#f39519"/><stop offset="1" stop-color="#e6680b"/></linearGradient><path d="M16.7 13.447c-1.273-1.029-1.444-1.866-.385-1.866h4.761l9.654 7.941c1.273 1.033.774 1.869-.285 1.869h-2.754L16.7 13.447zM1.635 11.652L96.507 69.47 58.425 12.302s-1.374-2.608-3.853-5.017c-2.476-2.409-4.835-2.129-4.835-2.129H27.688l6.983 6.542h13.882l6.102 7.182c.901 1.032.784 1.868-.261 1.868h-1.37l-6.873-6.596h-8.923L96.507 69.47 23.013 5.155H2.969S0 5.982 0 8.262c0 2.284 1.635 3.39 1.635 3.39zM97.173 69.47L80.041 20.748h1.709c1.658-.035 2.181-.675 1.93-1.746L79.803 5.155h-9.208l2.764 6.802c.409.897-.007 1.624-.928 1.624s-2.004-.727-2.413-1.624l-3.435-6.802h-9.5l8.31 13.601c.633 1.029 1.092 1.955 3.106 1.991h2.406L97.173 69.47zm2.681 0l69.07-48.993h3.753c1.062 0 2.63-.962 4.145-1.991l16.855-13.341h-8.86l-9.664 7.899c-1.494 1.032-2.882.974-3.806.974s-2.282-.952-1.106-1.849l7.493-6.941-7.513-.084-12.173 11.257c-1.166 1.068-3.318 4.133-1.34 4.075h3.056L99.854 69.47zm-2.352.006l11.822-55.325H95.163a.914.914 0 0 1-.838-.643l-.218-1.438c-.094-.357.134-.643.503-.643h15.38l1.257-6.281H87.121s-1.418-.177-2.272.917-.409 3.585-.409 3.585l2.027 9.459h13.474c.278 0 .429.215.335.483l-.255 1.154a.761.761 0 0 1-.67.482H86.97l10.532 48.25zm.422-.041l36.092-55.274h-12.76c-.365 0-.61-.29-.536-.643l.372-1.437c.07-.357.425-.643.794-.643h13.977l4.199-6.281h-21.345s-1.327-.177-2.677.917c-1.354 1.093-2.054 3.586-2.054 3.586l-2.402 9.456h12.076c.275 0 .325.215.111.482l-.694 1.155c-.214.267-.613.482-.891.482h-10.987l-13.275 48.2zm.59.035l51.267-48.243h-7.874c-.278 0-.429-.215-.335-.482l.255-1.154c.094-.267.392-.483.67-.483h9.255l6.232-5.599h-9.375c-.278 0-.429-.215-.335-.482l.452-1.116a.761.761 0 0 1 .67-.482h10.756l6.718-6.281h-22.785L98.514 69.47z" fill="url(#a)"/><path d="M203.381 10.292h-10.314s6.032-5.056 6.534-5.539c.493-.473 1.652-.91 2.161-.91l5.562-.019s1.726-.296 2.168-.904c.439-.605-.797-.946-.797-.946l-6.705.013c-.292 0 1.38-1 1.608-1.219.221-.212.503-.392.855-.543.349-.151.67-.225.965-.225h7.848c.509 0 1.163.145 1.236.421.074.28.221.605-.174.984 0 0-.66.836-1.873 2.039-1.213 1.2-3.243 1.596-3.897 1.875-.657.28-2.932.334-3.441.334l-2.831.158-2.265 1.962h5.043c.278 0 .439.077.482.228.044.148-.043.331-.265.54-.225.22-1.625 1.751-1.9 1.751z" fill="#e6680b"/></svg>