<svg enable-background="new 0 0 570.791 192.118" viewBox="0 0 570.791 192.118" xmlns="http://www.w3.org/2000/svg" xmlns:xlink="http://www.w3.org/1999/xlink"><linearGradient id="a" gradientUnits="userSpaceOnUse" x1="167.8232" x2="167.8232" y1="192.1181" y2="0"><stop offset="0" stop-color="#493575"/><stop offset="1" stop-color="#4d407b"/></linearGradient><path d="m13.023 31.787-3.828-1.856s6.487-14.734 19.021-17.75 51.166-6.613 51.166-6.613z" fill="#c4c4c3"/><path d="m12.878 38.632-5.308.957s-9.223 66.736-7.309 100.67c.348 17.576 16.619 25.58 17.664 25.668 1.043.087 4.35-.521 7.308-2.697-1.305-1.219-12.355-124.598-12.355-124.598z" fill="#c4c4c3"/><path d="m323.026 31.787 3.829-1.856s-6.488-14.734-19.022-17.75-51.166-6.613-51.166-6.613z" fill="#c4c4c3"/><path d="m323.171 38.632 5.307.957s9.225 66.736 7.31 100.67c-.349 17.576-16.618 25.58-17.663 25.668-1.044.087-4.351-.521-7.309-2.697 1.304-1.219 12.355-124.598 12.355-124.598z" fill="#c4c4c3"/><path d="m169.857 192.118c27.321 0 69.259-5.744 77.787-7.137 8.527-1.392 21.23-10.094 29.409-11.137 8.179-1.045 29.757-6.787 39.153-10.615 9.397-3.828 16.248-13.139 16.184-24.189-.079-13.922.283-46.158-7.918-106.107-.496-3.629-3.621-9.562-11.397-10.427-9.136-1.015-20.766-3.479-33.063-8.004-15.546-6.033-24.016-14.502-36.545-14.502h-151.288c-12.529 0-20.997 8.469-36.543 14.501-12.297 4.525-23.928 6.99-33.064 8.004-7.777.865-10.902 6.798-11.398 10.427-8.2 59.949-7.838 92.186-7.918 106.107-.064 11.051 6.787 20.361 16.184 24.189s30.975 9.57 39.154 10.615c8.179 1.043 20.882 9.744 29.409 11.137s50.465 7.137 77.787 7.137h4.067z" fill="url(#a)"/><path d="m167.823 20.186c39.1 0 66.476 3.307 71.522 4.176 5.047.871 10.093 3.481 11.485 11.66 1.392 8.178 7.135 97.449 5.568 108.413-1.565 10.963-8.178 16.88-19.489 19.489-11.311 2.61-48.029 9.224-69.086 9.398-21.056-.175-57.773-6.788-69.085-9.398-11.311-2.609-17.923-8.526-19.49-19.489-1.566-10.963 4.176-100.235 5.568-108.413 1.392-8.179 6.439-10.789 11.485-11.66 5.046-.869 32.422-4.176 71.522-4.176z" fill="#111115"/><path d="m50.152 100.589h-9.544c-1.054 0-1.91-.854-1.91-1.908v-12.967h-12.655c-1.053 0-1.91-.858-1.91-1.91v-9.544c0-1.054.856-1.91 1.91-1.91h12.654v-12.654c0-1.055.856-1.911 1.91-1.911h9.544c1.052 0 1.91.856 1.91 1.911v12.654h12.031c1.053 0 1.91.856 1.91 1.91v9.544c0 1.053-.857 1.908-1.91 1.908h-12.031v12.967c0 1.056-.856 1.91-1.909 1.91z" fill="#c4c4c3"/><path d="m71.645 120.958c1.817 1.496 2.743 3.936 2.193 6.389-.781 3.471-4.228 5.65-7.695 4.869l-24.642-5.939c-3.472-.78-5.653-4.226-4.875-7.696.781-3.47 4.227-5.651 7.696-4.87l24.644 5.939c1.017.23 1.926.687 2.679 1.308z" fill="#514281"/><path d="m70.769 140.193c1.816 1.495 2.742 3.938 2.192 6.387-.781 3.473-4.227 5.651-7.695 4.872l-24.642-5.939c-3.471-.782-5.652-4.227-4.874-7.697.781-3.469 4.228-5.652 7.696-4.87l24.644 5.938c1.016.23 1.925.688 2.679 1.309z" fill="#514281"/><path d="m73.119 125.966c0 2.981-2.415 5.396-5.396 5.396-2.98 0-5.397-2.416-5.397-5.396 0-2.981 2.417-5.397 5.397-5.397 2.981-.001 5.396 2.415 5.396 5.397z" fill="#c4c4c3"/><path d="m72.33 145.27c0 2.981-2.416 5.397-5.397 5.397s-5.397-2.416-5.397-5.397c0-2.98 2.416-5.396 5.397-5.396s5.397 2.416 5.397 5.396z" fill="#c4c4c3"/><path d="m288.976 84.134c0 5.929-4.807 10.733-10.734 10.733-5.928 0-10.733-4.805-10.733-10.733s4.804-10.732 10.733-10.732c5.928-.001 10.734 4.804 10.734 10.732z" fill="#c4c4c3"/><path d="m319.59 73.401c0 5.928-4.807 10.732-10.735 10.732-5.927 0-10.732-4.805-10.732-10.732 0-5.93 4.805-10.734 10.732-10.734 5.928 0 10.735 4.805 10.735 10.734z" fill="#c4c4c3"/><path d="m281.494 33.12c0 1.795-1.456 3.251-3.252 3.251-1.795 0-3.25-1.456-3.25-3.251 0-1.796 1.455-3.25 3.25-3.25 1.796 0 3.252 1.454 3.252 3.25z" fill="#93b857" stroke="#93b857" stroke-miterlimit="10" stroke-width=".1048"/><path d="m267.988 128.512c-.132-.536.195-1.078.731-1.21l33.299-8.222c.536-.132 1.078.195 1.21.731.132.536-.195 1.078-.731 1.21l-33.299 8.222c-.535.133-1.077-.194-1.21-.731z" fill="#160f26"/><path d="m267.988 135.932c-.132-.536.195-1.078.731-1.21l33.299-8.222c.536-.132 1.078.195 1.21.731.132.536-.195 1.078-.731 1.21l-33.299 8.222c-.535.133-1.077-.195-1.21-.731z" fill="#160f26"/><path d="m267.988 143.352c-.132-.536.195-1.078.731-1.21l33.299-8.221c.536-.132 1.078.195 1.21.731.132.536-.195 1.078-.731 1.21l-33.299 8.221c-.535.133-1.077-.195-1.21-.731z" fill="#160f26"/><path d="m267.988 150.772c-.132-.536.195-1.078.731-1.21l33.299-8.22c.536-.132 1.078.195 1.21.731.132.536-.195 1.078-.731 1.21l-33.299 8.22c-.535.133-1.077-.195-1.21-.731z" fill="#160f26"/><path d="m41.37 67.606h7.396l-3.839-7.222z" fill="#9b999a"/><path d="m48.766 90.663h-7.396l3.838 7.223z" fill="#9b999a"/><path d="m56.597 75.438v7.395l7.222-3.838z" fill="#9b999a"/><path d="m33.539 82.833v-7.395l-7.222 3.837z" fill="#9b999a"/><path d="m155.08 146.415c1.211 0 1.959.521 2.67 1.354.26-.242.539-.459.838-.643.751-.461 1.582-.696 2.41-.699l11.238-.001-.748 1.155 14.133-.011 1.286 2.182 1.163-2.159 9.38.006 2.329 1.795v-1.795h17.658v8.296h-16.295l-2.369-1.81v1.811l-13.2-.001v.005l-.898-1.432c-.724.802-2.02 1.428-4.145 1.428l-12.929.006-.185 1.168h-4.531l.104-.643c-.045.027-.089.06-.135.086-1.044.643-2.243.854-3.374.598-.867-.197-1.618-.651-2.204-1.279-.761.738-1.786 1.223-2.763 1.223l-22.245.016-.356-1.996-.914 1.996h-3.709c-1.169.195-2.345.024-3.391-.502-1.451-.728-2.406-2.051-2.557-3.534-.252-2.47.71-4.439 2.78-5.698 1.988-1.213 4.1-1.449 6.278-.707l.4.139.153-.341h4.156l.314 1.854.614-1.854z" fill="#080a00"/><path d="m190.65 148.964h-1.714l-.047.083-1.964 3.509-2.083-3.512-.047-.08h-1.842l.15.244.355.574c-.568-.53-1.439-.818-2.572-.818h-3.706v4.561l-2.746-4.479-.046-.077h-1.42l-.046.078-3.125 5.176-.146.242h1.229v.002h2.73v-1.216h-1.607l1.607-2.851 2.27 3.982.046.082h1.83l-.002-.006h2.808c2.422 0 3.654-.932 3.654-2.766 0-.318-.044-.613-.124-.881l2.197 3.57.048.076h1.071l.048-.08 3.051-5.174zm-10.361 4.217h-1.492v-2.971h2.102c1.136 0 1.666.453 1.666 1.423 0 1.154-.575 1.548-2.276 1.548z" fill="#fff"/><path d="m201.349 148.964h-.164v3.269l-4.203-3.236-.044-.033h-1.101v4.564l-2.751-4.484-.048-.077h-1.417l-.048.079-3.124 5.175-.145.243h1.664l.004-.006h2.293v-1.216h-1.607l1.605-2.843 2.27 3.983.046.082h1.83l-.002-.004h.926v-3.315l4.186 3.282.044.033h1.1v-5.496z" fill="#fff"/><path d="m207.961 148.966h-3.275c-1.151 0-1.539.349-1.539 1.387v2.724c0 1.032.387 1.384 1.539 1.384h3.275c1.152 0 1.541-.352 1.541-1.384v-.773h-.164l-1.289-.004h-.165v.846h-3.123v-2.901h3.123v.763h.165l1.289.008h.165v-.662c-.001-1.052-.375-1.388-1.542-1.388" fill="#fff"/><path d="m215.898 153.181h-4.254v-.965h2.538v-1.213h-2.538v-.794h4.357v-1.243h-5.974v5.494h6.037v-1.279z" fill="#fff"/><path d="m141.329 147.792-1.856 4.297-.802-4.297h-1.621l-2.094 6.34-1.073-6.34h-2.023l-3.06 6.83.457-2.855h-3.041l-.232 1.471h1.271l-.145.787c-.729.283-1.968.178-2.495-.752-.335-.592-.646-1.909.764-3.117 1.147-.986 3.132-1.163 4.279-.645 0 0 .146-.824.255-1.593-2.203-.754-3.915-.126-5.061.572-1.562.95-2.313 2.399-2.113 4.368.232 2.285 3.242 3.726 5.79 2.275.023-.014.042-.023.059-.034l-.24.536h1.711l1.075-2.348h1.893l.419 2.348h2.787l1.42-4.389.91 4.389h1.093l2.131-4.855.216 4.855h1.64l-.346-7.844h-1.968m-9.542 3.976.692-1.523.301 1.523z" fill="#fff"/><path d="m143.769 155.636h4.571l.273-1.686h-2.86l.228-1.396h2.486l.273-1.682h-2.512l.218-1.396h2.858l.273-1.684h-4.533z" fill="#fff"/><path d="m166.093 150.352-1.02-2.56h-1.877l1.931 4.135-.593 3.709h1.639l.502-3.278 2.95-4.566h-1.912z" fill="#fff"/><path d="m161.625 147.86c-1.816-.412-3.702 1.01-4.21 3.178-.509 2.168.55 4.26 2.367 4.673 1.815.413 3.7-1.01 4.209-3.179.509-2.168-.552-4.26-2.366-4.672m.641 4.608c-.444 1.307-1.505 2.055-2.373 1.673-.865-.38-1.21-1.747-.767-3.052.441-1.305 1.503-2.053 2.37-1.671.868.38 1.212 1.747.77 3.05z" fill="#fff"/><path d="m155.125 147.837c-.885-.015-3.072 0-3.072 0h.018l-1.264 7.781h3.686c1.518 0 3.738-2.2 1.717-3.996 2.077-2.115.019-3.768-1.085-3.785m-.957 6.271c-.904 0-1.445 0-1.445 0l.254-1.563h1.373c1.3 0 1.264 1.563-.182 1.563zm.199-3.162c-.904 0-1.138 0-1.138 0l.252-1.457h1.065c1.157 0 .923 1.457-.179 1.457z" fill="#fff"/><path d="m93.692 36.429h148.264v100.002h-148.264z" fill="#262620"/><path d="m153.715 15.263c-3.291-.001-5.49-2.333-5.49-5.161 0-2.828 2.204-5.187 5.485-5.179h31.004c3.281-.007 5.485 2.352 5.485 5.179 0 2.828-2.199 5.16-5.49 5.161zm.01-9.068c-2.605.005-4.204 1.746-4.204 3.901 0 2.154 1.589 3.91 4.204 3.9h30.974c2.615.009 4.205-1.746 4.205-3.9 0-2.154-1.599-3.895-4.204-3.9zm32.64 1.818c.237 0 .355.08.355.239 0 .109-.068.192-.181.22l.186.371h-.225l-.159-.34h-.099v.34h-.202v-.83zm-.019-.324c-.414 0-.749.336-.749.749 0 .414.336.749.749.749.414 0 .749-.336.749-.749 0-.414-.335-.749-.749-.749zm.606.75c0 .334-.271.606-.606.606s-.606-.271-.606-.606c0-.334.271-.606.606-.606s.606.271.606.606zm-.711-.057h.099c.115 0 .171-.035.171-.118 0-.086-.06-.124-.181-.124h-.089zm-16.931 2.028c-.002-.284.004-.473.097-.635.114-.2.324-.294.515-.295h-.001c.191.001.401.096.515.295.093.162.097.352.095.635zm1.216.976s.001.014.001.196c0 .592-.39.724-.606.724s-.613-.132-.613-.724c0-.177.001-.668.001-.668s2.757.001 2.757-.001c0-1.004-.969-1.836-2.16-1.836s-2.155.814-2.155 1.818.965 1.817 2.155 1.817c.988 0 1.822-.564 2.077-1.328zm4.606-2.254c.547-.016 1.658.343 1.65 1.624-.001.227-.001 1.761-.001 1.761h-1.454s0-1.924 0-2.126c0-.282-.27-.596-.669-.596s-.695.314-.695.596c0 .138.002 2.126.002 2.126h-1.453l.001-3.237 1.453-.001s-.002.26 0 .341c.279-.267.683-.474 1.166-.488zm-11.896 0c.547-.016 1.658.343 1.65 1.624-.001.227-.001 1.761-.001 1.761h-1.454s0-1.924 0-2.126c0-.282-.27-.596-.669-.596s-.695.314-.695.596c0 .138.002 2.126.002 2.126h-1.453l-.001-3.237 1.454-.001s-.002.26 0 .341c.28-.267.683-.474 1.167-.488zm16.701-1.481h1.445v4.868h-1.447s-.001-.157-.001-.187c-.56.352-1.192.351-1.684.122-.132-.061-1.001-.478-1.001-1.605 0-.854.806-1.788 1.861-1.695.347.031.594.157.828.289-.001-.75-.001-1.792-.001-1.792zm.01 3.233s0-.406 0-.579c0-.501-.346-.628-.573-.628-.233 0-.574.128-.574.628 0 .166.001.577.001.577s-.001.404-.001.576c0 .5.341.631.574.631.228 0 .574-.131.574-.631 0-.208-.001-.574-.001-.574zm4.638-.01s-.001.489-.001.686c0 .516-.305.729-.598.729-.294 0-.6-.213-.6-.729 0-.196.001-.698.001-.698s.001-.479.001-.675c0-.514.307-.725.598-.725.292 0 .598.211.598.725 0 .196-.001.559.001.689zm-.588-1.813c-1.182 0-2.139.814-2.139 1.818s.958 1.818 2.139 1.818c1.182 0 2.139-.814 2.139-1.818.001-1.005-.957-1.818-2.139-1.818zm-25.655-.416v-.995h1.467v.995zm.003 3.874v-3.238l1.464.001v3.237zm7.344 0 .001-3.231h-.796v-.48l.797-.001-.001-.656h1.465v.655h.793v.482h-.793l.001 3.231zm-13.301 0 .001-4.868h1.517l2.098 3.395-.001-3.395h1.505v4.868h-1.503l-2.109-3.395v3.395z" fill="#342060"/><path d="m284.026 35.025v-5.253h1.464c.477 0 1.163.042 1.506.435.287.322.343.714.343 1.142 0 .567-.133 1.205-.693 1.463-.427.21-.924.147-1.387.168v2.045zm1.232-2.991c.231-.007.498.021.693-.133.126-.14.154-.35.154-.532 0-.203-.021-.512-.231-.609-.118-.042-.287-.042-.482-.042h-.134z" fill="#3d2f7d"/><path d="m291.167 33.351c0 1.184-.413 1.8-1.66 1.8-1.246 0-1.681-.616-1.681-1.8v-2.136c0-1.008.603-1.569 1.681-1.569 1.079 0 1.66.561 1.66 1.569zm-1.232-2.052c0-.322-.028-.708-.435-.708-.393 0-.441.385-.441.708v2.157c0 .301.049.75.448.75s.428-.448.428-.75z" fill="#3d2f7d"/><path d="m295.248 33.456h.015l.385-3.684h1.17l-.875 5.253h-1.388l-.378-3.698h-.014l-.406 3.698h-1.366l-.882-5.253h1.19l.371 3.691.014-.014.498-3.677h1.19z" fill="#3d2f7d"/><path d="m297.207 35.025v-5.253h2.822v1.051h-1.59v.966h1.541v1.051h-1.541v1.134h1.674v1.051z" fill="#3d2f7d"/><path d="m301.912 35.025h-1.232v-5.253h1.8c1.009 0 1.514.406 1.514 1.45 0 .561-.134.959-.651 1.198v.014c.343.077.588.315.608.679.035.42.043 1.324.112 1.66.028.07.063.133.119.182v.07h-1.345c-.035-.098-.063-.196-.07-.301-.021-.462.008-.896-.027-1.219-.035-.322-.134-.532-.421-.553h-.406v2.073zm0-3.019h.421c.357 0 .441-.329.441-.651 0-.624-.26-.651-.862-.637z" fill="#3d2f7d"/><path d="m284.132 35.151v-5.253h1.464c.477 0 1.163.042 1.506.435.287.322.343.714.343 1.142 0 .567-.133 1.205-.693 1.463-.427.21-.924.147-1.387.168v2.045zm1.233-2.991c.231-.007.498.021.693-.133.126-.14.154-.35.154-.532 0-.203-.021-.512-.231-.609-.118-.042-.287-.042-.482-.042h-.134z" fill="#514281"/><path d="m291.274 33.477c0 1.184-.413 1.8-1.66 1.8-1.246 0-1.681-.616-1.681-1.8v-2.136c0-1.008.603-1.569 1.681-1.569 1.079 0 1.66.561 1.66 1.569zm-1.233-2.052c0-.322-.028-.708-.435-.708-.393 0-.441.385-.441.708v2.157c0 .301.049.75.448.75s.428-.448.428-.75z" fill="#514281"/><path d="m295.355 33.582h.015l.385-3.684h1.17l-.875 5.253h-1.388l-.378-3.698h-.014l-.406 3.698h-1.366l-.882-5.253h1.19l.371 3.691.014-.014.498-3.677h1.19z" fill="#514281"/><path d="m297.314 35.151v-5.253h2.822v1.051h-1.59v.966h1.541v1.051h-1.541v1.134h1.674v1.051z" fill="#514281"/><path d="m302.018 35.151h-1.232v-5.253h1.8c1.009 0 1.514.406 1.514 1.45 0 .561-.134.959-.651 1.198v.014c.343.077.588.315.608.679.035.42.043 1.324.112 1.66.028.07.063.133.119.182v.07h-1.345c-.035-.098-.063-.196-.07-.301-.021-.462.008-.896-.027-1.219-.035-.322-.134-.532-.421-.553h-.406v2.073zm0-3.019h.421c.357 0 .441-.329.441-.651 0-.624-.26-.651-.862-.637z" fill="#514281"/><path d="m44.576 121.355-.086.361c-.07.293-.042.573.319.659.263.063.439-.162.5-.421.103-.43-.192-.673-.443-.934-.297-.294-.545-.562-.695-.872-.145-.308-.192-.65-.084-1.1.229-.961.892-1.321 1.766-1.112.983.234 1.32 1.049 1.039 1.997l-1.041-.248c.058-.303.169-.709-.198-.825-.227-.075-.394.029-.473.248-.105.298.005.49.19.707.356.388.679.652.882.975.201.321.275.698.127 1.318-.234.981-.878 1.403-1.816 1.18-1.036-.247-1.327-.964-1.166-1.639l.13-.545z" fill="#453370"/><path d="m47.59 118.48 2.93.699-.243 1.022-.912-.218-.975 4.087-1.131-.27.975-4.087-.887-.212z" fill="#453370"/><path d="m49.145 124.251 2.271-4.858 1.363.325-.17 5.359-1.146-.273.077-1.032-.888-.212-.372.963zm2.733-3.769-.013-.003-.874 2.211.655.156z" fill="#453370"/><path d="m54.06 125.423-1.132-.27 1.218-5.11 1.652.395c.925.22 1.294.726 1.052 1.74-.13.546-.344.905-.875 1.023l-.003.014c.298.15.467.435.402.794-.065.417-.269 1.297-.283 1.64.01.073.028.143.067.203l-.016.067-1.233-.294c-.011-.104-.013-.205.004-.309.089-.453.215-.87.258-1.191.042-.32.002-.547-.258-.63l-.372-.089zm.7-2.936.386.093c.327.078.481-.225.555-.538.145-.606-.086-.69-.642-.809z" fill="#453370"/><path d="m57.473 120.836 2.931.699-.243 1.022-.913-.218-.975 4.088-1.132-.271.975-4.087-.886-.212z" fill="#453370"/><path d="m42.69 139.713-.086.361c-.07.293-.05.571.28.649.24.058.406-.17.468-.429.102-.429-.165-.665-.389-.921-.268-.286-.491-.548-.623-.854-.127-.304-.163-.644-.056-1.094.229-.96.845-1.331 1.644-1.141.899.214 1.193 1.019.917 1.968l-.952-.227c.059-.304.169-.709-.165-.818-.207-.07-.363.036-.44.256-.102.3-.004.488.162.7.32.38.612.637.792.953s.239.69.091 1.311c-.234.981-.834 1.413-1.691 1.209-.946-.226-1.2-.935-1.04-1.608l.13-.545z" fill="#4c377b"/><path d="m44.442 141.938 1.218-5.109 2.368.564-.244 1.022-1.334-.318-.224.94 1.293.308-.244 1.022-1.293-.309-.263 1.104 1.404.335-.244 1.021z" fill="#4c377b"/><path d="m47.33 142.626 1.218-5.109 1.034.247-.975 4.087 1.264.302-.244 1.021z" fill="#4c377b"/><path d="m49.995 143.262 1.218-5.109 2.368.564-.244 1.022-1.333-.318-.224.939 1.293.309-.244 1.022-1.293-.309-.263 1.104 1.403.335-.244 1.021z" fill="#4c377b"/><path d="m55.452 141.049.078-.326c.104-.437.022-.694-.171-.74-.322-.084-.447.102-.527.436l-.607 2.527c-.068.286-.009.479.262.545.353.084.482-.332.557-.646l.11-.463 1.034.246-.149.627c-.209.879-.791 1.389-1.849 1.136-.952-.227-1.183-.9-.934-1.943l.5-2.099c.265-1.11.829-1.522 1.776-1.297.882.21 1.307.772 1.059 1.815l-.102.429z" fill="#4c377b"/><path d="m57.284 139.6 2.681.639-.244 1.022-.835-.199-.975 4.088-1.034-.247.975-4.087-.812-.193z" fill="#4c377b"/><g fill="#4b3e78"><path d="m44.701 121.527-.086.361c-.07.293-.042.573.319.659.263.063.439-.162.5-.421.103-.43-.192-.673-.443-.934-.297-.294-.545-.562-.695-.872-.145-.308-.192-.65-.084-1.1.229-.961.892-1.321 1.766-1.112.983.234 1.32 1.049 1.039 1.997l-1.041-.248c.058-.303.169-.709-.198-.825-.227-.075-.394.029-.473.248-.105.298.005.49.19.707.356.388.679.652.882.975.201.321.275.698.127 1.318-.234.981-.878 1.403-1.816 1.18-1.036-.247-1.327-.964-1.166-1.639l.13-.545z"/><path d="m47.715 118.652 2.93.699-.243 1.022-.912-.218-.975 4.087-1.131-.27.975-4.087-.887-.212z"/><path d="m49.27 124.424 2.271-4.858 1.363.325-.17 5.359-1.146-.273.077-1.032-.888-.212-.372.963zm2.733-3.77-.013-.003-.874 2.211.655.156z"/><path d="m54.185 125.596-1.132-.27 1.218-5.11 1.652.395c.925.22 1.294.726 1.052 1.74-.13.546-.344.905-.875 1.023l-.003.014c.298.15.467.435.402.794-.065.417-.269 1.297-.283 1.64.01.073.028.143.067.203l-.016.067-1.233-.294c-.011-.104-.013-.205.004-.309.089-.453.215-.87.258-1.191.042-.32.002-.547-.258-.63l-.372-.089zm.7-2.937.386.093c.327.078.481-.225.555-.538.145-.606-.086-.69-.642-.809z"/><path d="m57.598 121.009 2.931.699-.243 1.022-.913-.218-.975 4.088-1.132-.271.975-4.087-.886-.212z"/><path d="m42.831 139.826-.086.361c-.07.293-.05.571.28.649.24.058.406-.17.468-.429.102-.429-.165-.665-.389-.921-.268-.286-.491-.548-.623-.854-.127-.304-.163-.644-.056-1.094.229-.96.845-1.331 1.644-1.141.899.214 1.193 1.019.917 1.968l-.952-.227c.059-.304.169-.709-.165-.818-.207-.07-.363.036-.44.256-.102.3-.004.488.162.7.32.38.612.637.792.953s.239.69.091 1.311c-.234.981-.834 1.413-1.691 1.209-.946-.226-1.2-.935-1.04-1.608l.13-.545z"/><path d="m44.583 142.051 1.218-5.109 2.368.564-.244 1.022-1.334-.318-.224.94 1.293.308-.244 1.022-1.293-.309-.263 1.104 1.404.335-.244 1.021z"/><path d="m47.471 142.739 1.218-5.109 1.034.247-.975 4.087 1.264.302-.244 1.021z"/><path d="m50.136 143.375 1.218-5.109 2.368.564-.244 1.022-1.333-.318-.224.939 1.293.309-.244 1.022-1.293-.309-.263 1.104 1.403.335-.244 1.021z"/><path d="m55.593 141.162.078-.326c.104-.437.022-.694-.171-.74-.322-.084-.447.102-.527.436l-.607 2.527c-.068.286-.009.479.262.545.353.084.482-.332.557-.646l.11-.463 1.034.246-.149.627c-.209.879-.791 1.389-1.849 1.136-.952-.227-1.183-.9-.934-1.943l.5-2.099c.265-1.11.829-1.522 1.776-1.297.882.21 1.307.772 1.059 1.815l-.102.429z"/><path d="m57.426 139.713 2.681.639-.244 1.022-.835-.199-.975 4.088-1.034-.247.975-4.087-.812-.193z"/></g><path d="m272.871 91.664v-10.334h2.735c1.595 0 2.842.592 2.842 2.673 0 .91-.288 1.723-1.02 2.177v.027c.96.634 1.164 1.185 1.164 2.467 0 2.094-1.032 2.99-2.747 2.99zm2.112-6.269c.924-.069 1.355 0 1.355-1.226 0-1.02-.612-.979-1.355-.979zm0 4.409c1.056-.027 1.499.055 1.499-1.336 0-1.199-.6-1.171-1.499-1.212z" fill="#a8a7a7"/><path d="m303.035 81.081 1.967-10.334h2.542l1.955 10.334h-2.135l-.3-2.012h-1.655l-.252 2.012zm3.238-8.46h-.023l-.611 4.629h1.223z" fill="#a8a7a7"/><path d="m376.874 187.952v-88.507h5.475v92.673h-1.308c-2.301 0-4.167-1.866-4.167-4.166v-88.507" fill="#a9a7a5"/><path d="m565.853 187.952v-88.507h-5.474v92.673h1.308c2.302 0 4.166-1.866 4.166-4.166v-88.507" fill="#a9a7a5"/><path d="m471.364 192.118h89.015v-92.673h5.474 4.939v-17.165c0-2.95-2.393-5.343-5.345-5.343h-94.082-94.085c-2.951 0-5.344 2.393-5.344 5.343v17.165h4.938 5.475v92.673z" fill="#c4c4c3"/><path d="m456.334 182.629h30.06l-15.714 6.641z" fill="#a9a7a5"/><path d="m471.364 76.937h94.082c2.952 0 5.345 2.393 5.345 5.343v17.165h-4.939-.506v-16.526h-93.982-93.982v16.526h-.508-4.938v-17.165c0-2.95 2.393-5.343 5.344-5.343z" fill="#a9a7a5"/><path d="m546.033 176.395c0 1.512-1.226 2.736-2.737 2.736h-143.863c-1.512 0-2.737-1.225-2.737-2.736v-72.387c0-1.513 1.226-2.738 2.737-2.738h143.863c1.512 0 2.737 1.225 2.737 2.738z" fill="#a9a7a5"/><path d="m532.267 93.073c-18.02-6.388-41.191-8.212-61.491-8.212-20.302 0-43.472 1.824-61.491 8.212 0 0 24.215-.312 61.491-.312 37.275.001 61.491.312 61.491.312z" fill="#a9a7a5"/><path d="m458.327 89.697c1.141 0 1.846.47 2.515 1.221.245-.219.509-.413.791-.58.708-.416 1.489-.628 2.271-.631l10.59-.001-.705 1.043 13.318-.01 1.211 1.968 1.097-1.947 8.84.005 2.194 1.62v-1.62h16.639v7.487h-15.355l-2.232-1.633v1.635l-12.438-.002v.004l-.846-1.291c-.684.723-1.904 1.289-3.908 1.289l-12.182.004-.174 1.055h-4.27l.098-.582c-.043.026-.084.055-.127.08-.984.579-2.115.769-3.181.538-.817-.178-1.524-.587-2.077-1.154-.716.667-1.684 1.104-2.603 1.104l-20.963.014-.336-1.803-.86 1.803h-3.495c-1.102.176-2.211.021-3.195-.453-1.367-.657-2.268-1.852-2.41-3.191-.236-2.227.67-4.006 2.62-5.142 1.874-1.094 3.864-1.308 5.915-.638l.378.125.143-.308h3.916l.297 1.675.578-1.675z" fill="#a9a7a5"/><path d="m491.845 91.996h-1.615l-.044.075-1.851 3.167-1.963-3.169-.045-.073h-1.736l.142.222.335.519c-.535-.48-1.357-.74-2.424-.74h-3.491v4.117l-2.588-4.042-.044-.069h-1.337l-.044.07-2.944 4.672-.138.219h1.156v.002h2.572v-1.098h-1.513l1.515-2.572 2.14 3.594.044.074h1.724l-.003-.005h2.646c2.281 0 3.443-.841 3.443-2.497 0-.287-.041-.553-.116-.795l2.07 3.221.046.071h1.008l.047-.073 2.874-4.67zm-9.764 3.806h-1.406v-2.681h1.98c1.072 0 1.57.409 1.57 1.285.001 1.041-.54 1.396-2.144 1.396z" fill="#c4c4c3"/><path d="m501.928 91.996h-.155v2.951l-3.961-2.92-.041-.031h-1.037v4.121l-2.592-4.048-.047-.071h-1.334l-.045.072-2.944 4.671-.138.218h1.569l.003-.004h2.16v-1.098h-1.512l1.512-2.566 2.139 3.596.043.072h1.725l-.002-.001h.873v-2.992l3.944 2.961.042.031h1.035v-4.962z" fill="#c4c4c3"/><path d="m508.157 91.998h-3.086c-1.084 0-1.449.314-1.449 1.252v2.459c0 .931.365 1.248 1.449 1.248h3.086c1.087 0 1.453-.317 1.453-1.248v-.698h-.154l-1.215-.003h-.155v.764h-2.943v-2.619h2.943v.687h.155l1.214.008h.155v-.598c0-.947-.353-1.252-1.453-1.252" fill="#c4c4c3"/><path d="m515.638 95.802h-4.009v-.87h2.392v-1.094h-2.392v-.717h4.106v-1.123h-5.629v4.96h5.688v-1.156z" fill="#c4c4c3"/><path d="m445.368 90.939-1.749 3.877-.755-3.877h-1.528l-1.973 5.721-1.011-5.721h-1.906l-2.883 6.164.43-2.577h-2.865l-.22 1.327h1.196l-.135.709c-.689.258-1.856.162-2.352-.678-.315-.533-.608-1.723.721-2.813 1.08-.889 2.949-1.048 4.031-.581 0 0 .137-.744.24-1.438-2.076-.681-3.689-.113-4.77.517-1.471.858-2.18 2.165-1.99 3.942.218 2.063 3.055 3.361 5.455 2.053.023-.012.039-.021.056-.03l-.226.483h1.611l1.014-2.117h1.783l.395 2.117h2.626l1.338-3.959.858 3.959h1.029l2.009-4.38.204 4.38h1.545l-.326-7.078zm-8.99 3.587.651-1.374.283 1.374z" fill="#c4c4c3"/><path d="m447.668 98.017h4.308l.258-1.519h-2.696l.213-1.262h2.344l.258-1.517h-2.368l.206-1.261h2.693l.258-1.519h-4.273z" fill="#c4c4c3"/><path d="m468.704 93.25-.961-2.311h-1.767l1.818 3.733-.559 3.345h1.544l.474-2.956 2.78-4.122h-1.801z" fill="#c4c4c3"/><path d="m464.493 91c-1.71-.371-3.487.911-3.967 2.869-.479 1.957.52 3.844 2.232 4.217 1.71.373 3.487-.912 3.967-2.868.478-1.957-.521-3.845-2.232-4.218m.605 4.16c-.417 1.18-1.417 1.854-2.235 1.51-.814-.346-1.14-1.578-.723-2.756.416-1.177 1.416-1.853 2.233-1.508.818.343 1.142 1.576.725 2.754z" fill="#c4c4c3"/><path d="m458.369 90.98c-.834-.015-2.896 0-2.896 0h.018l-1.192 7.023h3.473c1.432 0 3.523-1.986 1.619-3.609 1.959-1.908.018-3.398-1.022-3.414m-.902 5.66c-.852 0-1.362 0-1.362 0l.239-1.411h1.294c1.225-.001 1.191 1.411-.171 1.411zm.187-2.854c-.853 0-1.073 0-1.073 0l.238-1.315h1.005c1.09 0 .869 1.315-.17 1.315z" fill="#c4c4c3"/></svg>