<svg enable-background="new 0 0 547.903 231.141" viewBox="0 0 547.903 231.141" xmlns="http://www.w3.org/2000/svg" xmlns:xlink="http://www.w3.org/1999/xlink"><linearGradient id="a" gradientUnits="userSpaceOnUse" x1="294.8526" x2="294.8526" y1="231.1412" y2="39.0231"><stop offset="0" stop-color="#493575"/><stop offset="1" stop-color="#4d407b"/></linearGradient><clipPath id="b"><path d="m482.135 97.235h31.374v31.374h-31.374z"/></clipPath><clipPath id="c"><path d="m481.463 152.652h32.043v32.044h-32.043z"/></clipPath><path d="m140.052 70.81-3.828-1.855s6.487-14.734 19.021-17.75 51.166-6.613 51.166-6.613z" fill="#c4c4c3"/><path d="m139.908 77.655-5.308.957s-9.223 66.736-7.309 100.67c.348 17.576 16.619 25.58 17.664 25.668 1.043.087 4.35-.521 7.308-2.697-1.306-1.219-12.355-124.598-12.355-124.598z" fill="#c4c4c3"/><path d="m450.055 70.81 3.829-1.855s-6.488-14.734-19.022-17.75-51.166-6.613-51.166-6.613z" fill="#c4c4c3"/><path d="m450.201 77.655 5.307.957s9.225 66.736 7.31 100.67c-.349 17.576-16.618 25.58-17.663 25.668-1.044.087-4.351-.521-7.309-2.697 1.304-1.219 12.355-124.598 12.355-124.598z" fill="#c4c4c3"/><path d="m296.887 231.141c27.321 0 69.259-5.744 77.787-7.137 8.527-1.392 21.23-10.094 29.409-11.137 8.179-1.045 29.757-6.787 39.153-10.615 9.397-3.828 16.248-13.139 16.184-24.189-.079-13.922.283-46.158-7.918-106.107-.496-3.629-3.621-9.562-11.397-10.427-9.136-1.015-20.766-3.479-33.063-8.004-15.545-6.032-24.015-14.501-36.544-14.501h-151.289c-12.529 0-20.998 8.469-36.544 14.501-12.297 4.525-23.928 6.99-33.064 8.004-7.777.865-10.902 6.798-11.398 10.427-8.2 59.949-7.838 92.185-7.918 106.107-.064 11.051 6.787 20.361 16.184 24.189s30.975 9.57 39.154 10.615c8.179 1.043 20.882 9.744 29.409 11.137s50.465 7.137 77.787 7.137z" fill="url(#a)"/><path d="m294.852 59.21c39.1 0 66.476 3.307 71.522 4.176 5.047.871 10.093 3.481 11.485 11.66 1.392 8.178 7.135 97.449 5.568 108.413-1.565 10.963-8.178 16.88-19.489 19.489-11.312 2.61-48.029 9.224-69.086 9.398-21.056-.175-57.773-6.788-69.085-9.398-11.311-2.609-17.923-8.526-19.49-19.489-1.566-10.964 4.176-100.235 5.568-108.413 1.392-8.179 6.439-10.789 11.485-11.66 5.047-.87 32.423-4.176 71.522-4.176z" fill="#111115"/><path d="m177.181 139.612h-9.544c-1.054 0-1.91-.854-1.91-1.908v-12.967h-12.654c-1.053 0-1.91-.858-1.91-1.91v-9.544c0-1.054.856-1.91 1.91-1.91h12.654v-12.654c0-1.055.856-1.911 1.91-1.911h9.544c1.052 0 1.91.856 1.91 1.911v12.653h12.031c1.053 0 1.91.856 1.91 1.91v9.544c0 1.053-.857 1.908-1.91 1.908h-12.031v12.967c0 1.057-.856 1.911-1.91 1.911z" fill="#c4c4c3"/><path d="m198.675 159.981c1.817 1.496 2.743 3.937 2.193 6.389-.781 3.471-4.227 5.65-7.695 4.869l-24.642-5.939c-3.472-.78-5.653-4.226-4.874-7.696.781-3.47 4.227-5.651 7.696-4.87l24.645 5.939c1.014.23 1.923.687 2.677 1.308z" fill="#514281"/><path d="m197.799 179.216c1.816 1.495 2.742 3.938 2.192 6.387-.781 3.473-4.227 5.651-7.695 4.872l-24.642-5.939c-3.471-.782-5.652-4.227-4.874-7.697.781-3.469 4.228-5.652 7.696-4.87l24.644 5.938c1.015.23 1.924.688 2.679 1.309z" fill="#514281"/><path d="m200.149 164.989c0 2.98-2.415 5.396-5.396 5.396-2.98 0-5.397-2.416-5.397-5.396 0-2.981 2.417-5.397 5.397-5.397 2.98-.001 5.396 2.415 5.396 5.397z" fill="#c4c4c3"/><path d="m199.36 184.293c0 2.981-2.416 5.397-5.397 5.397s-5.396-2.416-5.396-5.397c0-2.98 2.415-5.396 5.396-5.396 2.98 0 5.397 2.416 5.397 5.396z" fill="#c4c4c3"/><path d="m416.006 123.157c0 5.929-4.807 10.733-10.734 10.733-5.928 0-10.733-4.805-10.733-10.733s4.804-10.732 10.733-10.732c5.927-.001 10.734 4.804 10.734 10.732z" fill="#c4c4c3"/><path d="m446.619 112.424c0 5.928-4.807 10.732-10.735 10.732-5.927 0-10.732-4.805-10.732-10.732 0-5.93 4.805-10.734 10.732-10.734 5.929 0 10.735 4.805 10.735 10.734z" fill="#c4c4c3"/><path d="m408.523 72.143c0 1.795-1.456 3.251-3.252 3.251-1.795 0-3.25-1.456-3.25-3.251 0-1.796 1.455-3.25 3.25-3.25 1.797 0 3.252 1.454 3.252 3.25z" fill="#93b857" stroke="#93b857" stroke-miterlimit="10" stroke-width=".1048"/><path d="m395.018 167.535c-.132-.536.195-1.078.731-1.21l33.299-8.222c.536-.132 1.078.195 1.21.731.132.536-.195 1.078-.731 1.21l-33.299 8.222c-.536.133-1.078-.194-1.21-.731z" fill="#160f26"/><path d="m395.018 174.955c-.132-.536.195-1.078.731-1.21l33.299-8.222c.536-.132 1.078.195 1.21.731.132.536-.195 1.078-.731 1.21l-33.299 8.222c-.536.133-1.078-.194-1.21-.731z" fill="#160f26"/><path d="m395.018 182.375c-.132-.536.195-1.078.731-1.21l33.299-8.221c.536-.132 1.078.195 1.21.731.132.536-.195 1.078-.731 1.21l-33.299 8.221c-.536.133-1.078-.195-1.21-.731z" fill="#160f26"/><path d="m395.018 189.795c-.132-.536.195-1.078.731-1.21l33.299-8.22c.536-.132 1.078.195 1.21.731.132.536-.195 1.078-.731 1.21l-33.299 8.22c-.536.133-1.078-.195-1.21-.731z" fill="#160f26"/><path d="m168.4 106.629h7.395l-3.838-7.222z" fill="#9b999a"/><path d="m175.795 129.686h-7.395l3.838 7.223z" fill="#9b999a"/><path d="m183.626 114.461v7.395l7.222-3.838z" fill="#9b999a"/><path d="m160.569 121.856v-7.395l-7.222 3.837z" fill="#9b999a"/><path d="m282.11 185.438c1.211 0 1.958.521 2.669 1.354.26-.242.54-.459.838-.643.751-.461 1.582-.696 2.41-.699l11.238-.001-.748 1.155 14.133-.011 1.286 2.182 1.163-2.159 9.38.006 2.329 1.795v-1.795h17.658v8.296h-16.295l-2.369-1.81v1.811l-13.2-.001v.005l-.898-1.432c-.724.802-2.02 1.428-4.145 1.428l-12.929.006-.184 1.168h-4.531l.104-.643c-.045.027-.089.06-.135.086-1.044.643-2.243.854-3.375.598-.867-.197-1.618-.651-2.204-1.279-.761.738-1.786 1.223-2.763 1.223l-22.245.016-.356-1.996-.914 1.996h-3.709c-1.169.195-2.345.024-3.391-.502-1.451-.728-2.406-2.051-2.557-3.534-.251-2.47.71-4.438 2.78-5.698 1.988-1.213 4.1-1.449 6.278-.707l.4.139.153-.341h4.156l.314 1.854.614-1.854z" fill="#080a00"/><path d="m317.679 187.987h-1.714l-.047.083-1.964 3.509-2.083-3.512-.047-.08h-1.842l.15.244.355.574c-.568-.53-1.44-.818-2.572-.818h-3.706v4.561l-2.746-4.479-.046-.077h-1.42l-.046.078-3.125 5.176-.146.242h1.229v.002h2.73v-1.216h-1.607l1.607-2.851 2.271 3.982.046.082h1.83l-.002-.006h2.808c2.422 0 3.654-.932 3.654-2.766 0-.318-.043-.613-.124-.881l2.197 3.57.048.076h1.071l.048-.08 3.051-5.174zm-10.361 4.217h-1.492v-2.971h2.102c1.136 0 1.666.453 1.666 1.423 0 1.154-.575 1.548-2.276 1.548z" fill="#fff"/><path d="m328.378 187.987h-.164v3.269l-4.203-3.236-.044-.033h-1.1v4.564l-2.751-4.484-.049-.077h-1.416l-.048.079-3.124 5.175-.146.243h1.664l.005-.006h2.292v-1.216h-1.606l1.605-2.843 2.269 3.983.047.082h1.829l-.001-.004h.925v-3.314l4.186 3.281.045.033h1.099v-5.496z" fill="#fff"/><path d="m334.991 187.989h-3.275c-1.151 0-1.539.349-1.539 1.387v2.724c0 1.032.387 1.384 1.539 1.384h3.275c1.152 0 1.541-.352 1.541-1.384v-.772h-.164l-1.289-.004h-.165v.846h-3.123v-2.901h3.123v.763h.165l1.289.008h.164v-.662c0-1.053-.375-1.389-1.541-1.389" fill="#fff"/><path d="m342.927 192.204h-4.253v-.965h2.538v-1.213h-2.538v-.794h4.356v-1.243h-5.974v5.494h6.037v-1.279z" fill="#fff"/><path d="m268.358 186.815-1.856 4.297-.802-4.297h-1.621l-2.094 6.34-1.073-6.34h-2.023l-3.06 6.83.457-2.855h-3.041l-.232 1.471h1.271l-.145.787c-.729.283-1.968.178-2.495-.752-.335-.592-.646-1.909.764-3.117 1.147-.986 3.132-1.163 4.279-.645 0 0 .146-.824.255-1.593-2.203-.754-3.915-.126-5.061.572-1.562.95-2.313 2.399-2.113 4.368.232 2.285 3.242 3.726 5.79 2.275.023-.014.042-.023.059-.034l-.24.536h1.711l1.075-2.348h1.893l.419 2.348h2.787l1.42-4.389.91 4.389h1.093l2.131-4.855.216 4.855h1.64l-.346-7.844h-1.968m-9.541 3.976.692-1.522.301 1.522z" fill="#fff"/><path d="m270.799 194.659h4.57l.274-1.686h-2.86l.227-1.396h2.486l.273-1.682h-2.512l.219-1.396h2.858l.273-1.684h-4.533z" fill="#fff"/><path d="m293.122 189.376-1.02-2.561h-1.876l1.931 4.135-.594 3.709h1.639l.502-3.278 2.951-4.566h-1.913z" fill="#fff"/><path d="m288.654 186.883c-1.815-.412-3.702 1.01-4.21 3.178-.509 2.168.55 4.26 2.367 4.673 1.815.413 3.7-1.01 4.209-3.179.51-2.168-.551-4.26-2.366-4.672m.642 4.608c-.444 1.307-1.505 2.055-2.373 1.673-.865-.38-1.21-1.747-.767-3.052.441-1.305 1.503-2.053 2.37-1.671.867.38 1.211 1.747.77 3.05z" fill="#fff"/><path d="m282.155 186.86c-.885-.015-3.072 0-3.072 0h.018l-1.264 7.781h3.685c1.518 0 3.738-2.2 1.717-3.996 2.078-2.115.019-3.767-1.084-3.785m-.958 6.271c-.904 0-1.445 0-1.445 0l.254-1.563h1.373c1.301 0 1.265 1.563-.182 1.563zm.199-3.162c-.904 0-1.138 0-1.138 0l.252-1.457h1.065c1.158 0 .924 1.457-.179 1.457z" fill="#fff"/><path d="m220.721 75.452h148.264v100.002h-148.264z" fill="#262620"/><path d="m280.744 54.287c-3.291-.001-5.49-2.333-5.49-5.161 0-2.828 2.204-5.187 5.485-5.179h31.004c3.281-.007 5.485 2.352 5.485 5.179 0 2.828-2.199 5.16-5.49 5.161zm.01-9.069c-2.605.005-4.204 1.746-4.204 3.901 0 2.154 1.589 3.91 4.204 3.9h30.974c2.615.009 4.205-1.746 4.205-3.9 0-2.154-1.599-3.895-4.204-3.9zm32.64 1.818c.237 0 .355.08.355.239 0 .109-.068.192-.181.22l.186.371h-.225l-.159-.34h-.099v.34h-.202v-.83zm-.018-.324c-.414 0-.749.336-.749.749 0 .414.336.749.749.749.414 0 .749-.336.749-.749s-.336-.749-.749-.749zm.606.75c0 .334-.271.606-.606.606-.334 0-.606-.271-.606-.606 0-.334.271-.606.606-.606.334 0 .606.271.606.606zm-.711-.057h.099c.115 0 .171-.035.171-.118 0-.086-.06-.124-.181-.124h-.089zm-16.932 2.028c-.002-.284.004-.473.097-.635.114-.2.324-.294.515-.295h-.001c.191.001.401.096.515.295.093.162.097.352.095.635zm1.216.976s.001.014.001.196c0 .592-.39.724-.606.724s-.613-.132-.613-.724c0-.177.001-.668.001-.668s2.757.001 2.757-.001c0-1.004-.969-1.836-2.16-1.836s-2.155.814-2.155 1.818.965 1.817 2.155 1.817c.988 0 1.822-.564 2.077-1.328zm4.606-2.254c.547-.016 1.658.343 1.65 1.624-.001.227-.001 1.761-.001 1.761h-1.454s0-1.924 0-2.126c0-.282-.27-.596-.669-.596s-.695.314-.695.596c0 .138.002 2.126.002 2.126h-1.453l.001-3.237 1.453-.001s-.002.26 0 .341c.279-.267.683-.474 1.166-.488zm-11.896 0c.547-.016 1.658.343 1.65 1.624-.001.227-.001 1.761-.001 1.761h-1.454s0-1.924 0-2.126c0-.282-.27-.596-.669-.596s-.695.314-.695.596c0 .138.002 2.126.002 2.126h-1.453l-.001-3.237 1.454-.001s-.002.26 0 .341c.28-.267.683-.474 1.167-.488zm16.701-1.481h1.445v4.868h-1.447s-.001-.157-.001-.187c-.56.352-1.192.351-1.684.122-.132-.061-1.001-.478-1.001-1.605 0-.854.806-1.788 1.861-1.695.347.031.594.157.828.289-.001-.75-.001-1.792-.001-1.792zm.011 3.233s0-.406 0-.579c0-.501-.346-.628-.573-.628-.233 0-.574.128-.574.628 0 .166.001.577.001.577s-.001.404-.001.576c0 .5.341.631.574.631.228 0 .574-.131.574-.631-.001-.208-.001-.574-.001-.574zm4.638-.009s-.001.489-.001.686c0 .516-.305.729-.598.729-.294 0-.6-.213-.6-.729 0-.196.001-.698.001-.698s.001-.479.001-.675c0-.514.307-.725.598-.725.292 0 .598.211.598.725 0 .196-.001.559.001.689zm-.588-1.814c-1.182 0-2.139.814-2.139 1.818s.958 1.818 2.139 1.818c1.182 0 2.139-.814 2.139-1.818s-.958-1.818-2.139-1.818zm-25.656-.416v-.995h1.467v.995zm.004 3.874v-3.237l1.464.001v3.237zm7.343 0 .001-3.231h-.796v-.48l.797-.001-.001-.656h1.465v.655h.793v.482h-.793l.001 3.231zm-13.3 0 .001-4.868h1.517l2.098 3.395-.001-3.395h1.505v4.868h-1.503l-2.109-3.395v3.395z" fill="#342060"/><path d="m411.055 74.048v-5.253h1.464c.477 0 1.163.042 1.506.435.287.322.343.714.343 1.142 0 .567-.133 1.205-.693 1.463-.427.21-.924.147-1.387.168v2.045zm1.233-2.991c.231-.007.498.021.693-.133.126-.14.154-.35.154-.532 0-.203-.021-.512-.231-.609-.118-.042-.287-.042-.482-.042h-.134z" fill="#3d2f7d"/><path d="m418.197 72.374c0 1.184-.413 1.8-1.66 1.8-1.246 0-1.681-.616-1.681-1.8v-2.136c0-1.008.603-1.569 1.681-1.569 1.079 0 1.66.561 1.66 1.569zm-1.233-2.052c0-.322-.028-.708-.435-.708-.393 0-.441.385-.441.708v2.157c0 .301.049.75.448.75s.428-.448.428-.75z" fill="#3d2f7d"/><path d="m422.278 72.479h.015l.385-3.684h1.17l-.875 5.253h-1.388l-.378-3.698h-.014l-.406 3.698h-1.366l-.882-5.253h1.19l.371 3.691.014-.014.498-3.677h1.19z" fill="#3d2f7d"/><path d="m424.237 74.048v-5.253h2.822v1.051h-1.59v.966h1.541v1.051h-1.541v1.134h1.674v1.051z" fill="#3d2f7d"/><path d="m428.941 74.048h-1.232v-5.253h1.8c1.009 0 1.514.406 1.514 1.45 0 .561-.134.959-.651 1.198v.014c.343.077.588.315.608.679.035.42.043 1.324.112 1.66.028.07.063.133.119.182v.07h-1.345c-.035-.098-.063-.196-.07-.301-.021-.462.008-.896-.027-1.219-.035-.322-.134-.532-.421-.553h-.406v2.073zm0-3.019h.421c.357 0 .441-.329.441-.651 0-.624-.26-.651-.862-.637z" fill="#3d2f7d"/><path d="m411.161 74.174v-5.253h1.464c.477 0 1.163.042 1.506.435.287.322.343.714.343 1.142 0 .567-.133 1.205-.693 1.463-.427.21-.924.147-1.387.168v2.045zm1.233-2.991c.231-.007.498.021.693-.133.126-.14.154-.35.154-.532 0-.203-.021-.512-.231-.609-.118-.042-.287-.042-.482-.042h-.134z" fill="#514281"/><path d="m418.303 72.5c0 1.184-.413 1.8-1.66 1.8-1.246 0-1.681-.616-1.681-1.8v-2.136c0-1.008.603-1.569 1.681-1.569 1.079 0 1.66.561 1.66 1.569zm-1.232-2.052c0-.322-.028-.708-.435-.708-.393 0-.441.385-.441.708v2.157c0 .301.049.75.448.75s.428-.448.428-.75z" fill="#514281"/><path d="m422.384 72.605h.015l.385-3.684h1.17l-.875 5.253h-1.388l-.378-3.698h-.014l-.406 3.698h-1.366l-.882-5.253h1.19l.371 3.691.014-.014.498-3.677h1.19z" fill="#514281"/><path d="m424.343 74.174v-5.253h2.822v1.051h-1.59v.966h1.541v1.051h-1.541v1.134h1.674v1.051z" fill="#514281"/><path d="m429.047 74.174h-1.232v-5.253h1.8c1.009 0 1.514.406 1.514 1.45 0 .561-.134.959-.651 1.198v.014c.343.077.588.315.608.679.035.42.043 1.324.112 1.66.028.07.063.133.119.182v.07h-1.345c-.035-.098-.063-.196-.07-.301-.021-.462.008-.896-.027-1.219-.035-.322-.134-.532-.421-.553h-.406v2.073zm0-3.019h.421c.357 0 .441-.329.441-.651 0-.624-.26-.651-.862-.637z" fill="#514281"/><path d="m171.605 160.378-.086.361c-.07.293-.042.573.319.659.263.063.439-.162.5-.421.103-.43-.192-.673-.443-.934-.297-.294-.545-.562-.695-.872-.145-.308-.192-.65-.084-1.1.229-.961.892-1.321 1.766-1.112.983.234 1.32 1.049 1.039 1.997l-1.041-.248c.058-.303.169-.709-.198-.825-.227-.075-.394.029-.473.248-.105.298.005.49.19.707.356.388.679.652.882.975.201.321.275.698.127 1.318-.234.981-.878 1.403-1.816 1.18-1.036-.247-1.327-.964-1.166-1.639l.13-.545z" fill="#453370"/><path d="m174.619 157.503 2.93.699-.243 1.022-.912-.218-.975 4.087-1.131-.27.975-4.087-.887-.212z" fill="#453370"/><path d="m176.175 163.274 2.271-4.858 1.363.325-.17 5.359-1.146-.273.077-1.032-.888-.212-.372.963zm2.732-3.769-.013-.003-.874 2.211.655.156z" fill="#453370"/><path d="m181.09 164.446-1.132-.27 1.218-5.11 1.652.395c.925.22 1.294.726 1.052 1.74-.13.546-.344.905-.875 1.023l-.003.014c.298.15.467.435.402.794-.065.417-.269 1.297-.283 1.64.01.073.028.143.067.203l-.016.067-1.233-.294c-.011-.104-.013-.205.004-.309.089-.453.215-.87.258-1.191.042-.32.002-.547-.258-.63l-.372-.089zm.699-2.936.386.093c.327.078.481-.225.555-.538.145-.606-.086-.69-.642-.809z" fill="#453370"/><path d="m184.503 159.859 2.931.699-.243 1.022-.913-.218-.975 4.088-1.132-.271.975-4.087-.886-.212z" fill="#453370"/><path d="m169.719 178.736-.086.361c-.07.293-.05.571.28.649.24.058.406-.17.468-.429.102-.429-.165-.665-.389-.921-.268-.286-.491-.548-.623-.854-.127-.304-.163-.644-.056-1.094.229-.96.845-1.331 1.644-1.141.899.214 1.193 1.019.917 1.968l-.952-.227c.059-.304.169-.709-.165-.818-.207-.07-.363.036-.44.256-.102.3-.004.488.162.7.32.38.612.637.792.953s.239.69.091 1.311c-.234.981-.834 1.413-1.691 1.209-.946-.226-1.2-.935-1.04-1.608l.13-.545z" fill="#4c377b"/><path d="m171.471 180.961 1.218-5.109 2.368.564-.244 1.022-1.334-.318-.224.94 1.293.308-.244 1.022-1.293-.309-.263 1.104 1.404.335-.244 1.021z" fill="#4c377b"/><path d="m174.359 181.649 1.218-5.109 1.034.247-.975 4.087 1.264.302-.244 1.021z" fill="#4c377b"/><path d="m177.024 182.285 1.218-5.109 2.368.564-.244 1.022-1.333-.318-.224.939 1.293.309-.244 1.022-1.293-.309-.263 1.104 1.403.335-.244 1.021z" fill="#4c377b"/><path d="m182.481 180.072.078-.326c.104-.437.022-.694-.171-.74-.322-.084-.447.102-.527.436l-.607 2.527c-.068.286-.009.479.262.545.353.084.482-.332.557-.646l.11-.463 1.034.246-.149.627c-.209.879-.791 1.389-1.849 1.136-.952-.227-1.183-.9-.934-1.943l.5-2.099c.265-1.11.829-1.522 1.776-1.297.882.21 1.307.772 1.059 1.815l-.102.429z" fill="#4c377b"/><path d="m184.314 178.623 2.681.639-.244 1.022-.835-.199-.975 4.088-1.034-.247.975-4.087-.812-.193z" fill="#4c377b"/><path d="m171.73 160.55-.086.361c-.07.293-.042.573.319.659.263.063.439-.162.5-.421.103-.43-.192-.673-.443-.934-.297-.294-.545-.562-.695-.872-.145-.308-.192-.65-.084-1.1.229-.961.892-1.321 1.766-1.112.983.234 1.32 1.049 1.039 1.997l-1.041-.248c.058-.303.169-.709-.198-.825-.227-.075-.394.029-.473.248-.105.298.005.49.19.707.356.388.679.652.882.975.201.321.275.698.127 1.318-.234.981-.878 1.403-1.816 1.18-1.036-.247-1.327-.964-1.166-1.639l.13-.545z" fill="#4b3e78"/><path d="m174.744 157.675 2.93.699-.243 1.022-.912-.218-.975 4.087-1.131-.27.975-4.087-.887-.212z" fill="#4b3e78"/><path d="m176.3 163.447 2.271-4.858 1.363.325-.17 5.359-1.145-.273.077-1.032-.888-.212-.372.963zm2.732-3.77-.013-.003-.874 2.211.655.156z" fill="#4b3e78"/><path d="m181.215 164.619-1.132-.27 1.218-5.11 1.652.395c.925.22 1.294.726 1.052 1.74-.13.546-.344.905-.875 1.023l-.003.014c.298.15.467.435.402.794-.065.417-.269 1.297-.283 1.64.01.073.028.143.067.203l-.016.067-1.233-.294c-.011-.104-.013-.205.004-.309.089-.453.215-.87.258-1.191.042-.32.002-.547-.258-.63l-.372-.089zm.699-2.937.386.093c.327.078.481-.225.555-.538.145-.606-.086-.69-.642-.809z" fill="#4b3e78"/><path d="m184.628 160.032 2.931.699-.243 1.022-.913-.218-.975 4.088-1.132-.271.975-4.087-.886-.212z" fill="#4b3e78"/><path d="m169.86 178.849-.086.361c-.07.293-.05.571.28.649.24.058.406-.17.468-.429.102-.429-.165-.665-.389-.921-.268-.286-.491-.548-.623-.854-.127-.304-.163-.644-.056-1.094.229-.96.845-1.331 1.644-1.141.899.214 1.193 1.019.917 1.968l-.952-.227c.059-.304.169-.709-.165-.818-.207-.07-.363.036-.44.256-.102.3-.004.488.162.7.32.38.612.637.792.953s.239.69.091 1.311c-.234.981-.834 1.413-1.691 1.209-.946-.226-1.2-.935-1.04-1.608l.13-.545z" fill="#4b3e78"/><path d="m171.613 181.074 1.218-5.109 2.368.564-.244 1.022-1.334-.318-.224.94 1.293.308-.244 1.022-1.293-.309-.263 1.104 1.404.335-.244 1.021z" fill="#4b3e78"/><path d="m174.5 181.762 1.218-5.109 1.034.247-.975 4.087 1.264.302-.244 1.021z" fill="#4b3e78"/><path d="m177.165 182.398 1.218-5.109 2.368.564-.244 1.022-1.333-.318-.224.939 1.293.309-.243 1.023-1.293-.309-.263 1.104 1.403.335-.244 1.021z" fill="#4b3e78"/><path d="m182.622 180.185.078-.326c.104-.437.022-.694-.171-.74-.322-.084-.447.102-.527.436l-.607 2.527c-.068.286-.009.479.262.545.353.084.482-.332.557-.646l.11-.463 1.034.246-.149.627c-.209.879-.791 1.389-1.849 1.136-.952-.227-1.183-.9-.934-1.943l.5-2.099c.265-1.11.829-1.522 1.776-1.297.882.21 1.307.772 1.059 1.815l-.102.429z" fill="#4b3e78"/><path d="m184.455 178.736 2.681.639-.244 1.022-.835-.199-.975 4.088-1.034-.247.975-4.087-.812-.193z" fill="#4b3e78"/><path d="m399.901 130.687v-10.334h2.735c1.595 0 2.842.592 2.842 2.673 0 .91-.288 1.723-1.02 2.177v.027c.96.634 1.164 1.185 1.164 2.467 0 2.094-1.032 2.99-2.747 2.99zm2.111-6.269c.924-.069 1.355 0 1.355-1.226 0-1.02-.612-.979-1.355-.979zm0 4.409c1.056-.027 1.499.055 1.499-1.336 0-1.199-.6-1.171-1.499-1.212z" fill="#a8a7a7"/><path d="m430.065 120.104 1.967-10.334h2.542l1.955 10.334h-2.135l-.3-2.012h-1.655l-.252 2.012zm3.237-8.46h-.023l-.611 4.629h1.223z" fill="#a8a7a7"/><path d="m543.827 94.748h-60.566c-1.781 0-3.225 1.444-3.225 3.225v29.557c0 1.781 1.443 3.225 3.225 3.225h60.566c1.781 0 3.225-1.444 3.225-3.225v-29.557c-.001-1.781-1.444-3.225-3.225-3.225" fill="#f5f5f4"/><path d="m483.261 94.748v.852h60.565c1.31.002 2.37 1.062 2.373 2.373v29.557c-.002 1.31-1.062 2.37-2.373 2.373h-60.565c-1.31-.002-2.37-1.063-2.373-2.373v-29.557c.002-1.311 1.062-2.371 2.373-2.373v-.852-.852c-2.252.001-4.076 1.825-4.077 4.077v29.557c.001 2.252 1.824 4.076 4.077 4.077h60.565c2.252-.001 4.076-1.825 4.077-4.077v-29.557c0-2.252-1.824-4.077-4.077-4.077h-60.565z" fill="#35485c"/><path d="m531.729 115.679h-5.541l-1.244 3.452h-1.799l5.051-13.226h1.525l5.06 13.226h-1.789zm-5.014-1.435h4.496l-2.253-6.186z" fill="#35485c"/><path clip-path="url(#b)" d="m507.727 116.661c-2.393 0-4.333-1.94-4.333-4.333 0-2.392 1.94-4.332 4.333-4.332s4.332 1.939 4.332 4.332c0 2.392-1.94 4.333-4.332 4.333m-9.118-7.109c-2.393 0-4.332-1.94-4.332-4.333s1.939-4.333 4.332-4.333c2.394 0 4.333 1.94 4.333 4.333s-1.94 4.333-4.333 4.333m-1.561 15.504c-2.394 0-4.333-1.94-4.333-4.333s1.939-4.333 4.333-4.333c2.393 0 4.333 1.939 4.333 4.333 0 2.393-1.94 4.333-4.333 4.333m-9.007-7.29c-2.393 0-4.332-1.939-4.332-4.333 0-2.392 1.939-4.332 4.332-4.332 2.394 0 4.333 1.939 4.333 4.332 0 2.394-1.939 4.333-4.333 4.333m9.84-20.531c-8.648 0-15.659 7.01-15.659 15.66 0 8.648 7.011 15.66 15.659 15.66s15.659-7.011 15.659-15.66c0-8.65-7.01-15.66-15.659-15.66" fill="#35485c"/><path clip-path="url(#b)" d="m500.112 120.723c0 1.691-1.372 3.064-3.063 3.064-1.692 0-3.063-1.373-3.063-3.064 0-1.692 1.371-3.063 3.063-3.063 1.691 0 3.063 1.371 3.063 3.063" fill="#35485c"/><path clip-path="url(#b)" d="m491.268 113.433c0 1.782-1.444 3.228-3.227 3.228s-3.228-1.446-3.228-3.228 1.445-3.227 3.228-3.227 3.227 1.445 3.227 3.227" fill="#35485c"/><path clip-path="url(#b)" d="m501.667 105.307c0 1.692-1.372 3.063-3.063 3.063-1.692 0-3.063-1.371-3.063-3.063s1.371-3.064 3.063-3.064c1.691 0 3.063 1.371 3.063 3.064" fill="#35485c"/><path d="m543.701 150.58h-60.565c-1.781 0-3.225 1.444-3.225 3.226v29.557c0 1.781 1.443 3.225 3.225 3.225h60.565c1.781 0 3.226-1.443 3.226-3.225v-29.557c-.001-1.782-1.445-3.226-3.226-3.226" fill="#f5f5f4"/><path d="m483.135 150.58v.852h60.565c1.31.002 2.371 1.063 2.374 2.374v29.557c-.002 1.31-1.063 2.37-2.374 2.373h-60.565c-1.311-.002-2.37-1.062-2.373-2.373v-29.557c.002-1.311 1.062-2.371 2.373-2.374v-.852-.852c-2.252.001-4.076 1.826-4.077 4.078v29.557c0 2.252 1.825 4.076 4.077 4.077h60.565c2.252 0 4.077-1.824 4.078-4.077v-29.557c-.001-2.252-1.825-4.077-4.078-4.078h-60.565z" fill="#35485c"/><path d="m524.3 174.964v-13.227h4.323c1.436 0 2.514.297 3.234.891.727.594 1.09 1.472 1.09 2.635 0 .617-.176 1.165-.527 1.644-.351.473-.829.839-1.435 1.1.714.199 1.277.581 1.689 1.145.418.557.627 1.223.627 1.998 0 1.187-.385 2.119-1.154 2.798-.769.678-1.855 1.018-3.261 1.018h-4.586zm1.744-6.187v4.76h2.879c.812 0 1.45-.209 1.917-.626.473-.425.708-1.006.708-1.744 0-1.593-.865-2.39-2.598-2.39zm0-1.398h2.634c.763 0 1.372-.191 1.826-.572.46-.382.69-.899.69-1.554 0-.727-.212-1.253-.637-1.58-.424-.333-1.068-.5-1.935-.5h-2.579v4.206z" fill="#35485c"/><path clip-path="url(#c)" d="m507.601 172.493c-2.443 0-4.425-1.981-4.425-4.426 0-2.443 1.981-4.425 4.425-4.425s4.425 1.981 4.425 4.425-1.981 4.426-4.425 4.426m-9.312-7.26c-2.444 0-4.426-1.982-4.426-4.427 0-2.443 1.981-4.425 4.426-4.425 2.443 0 4.425 1.981 4.425 4.425 0 2.445-1.981 4.427-4.425 4.427m-1.594 15.834c-2.444 0-4.425-1.981-4.425-4.425s1.98-4.425 4.425-4.425c2.443 0 4.425 1.98 4.425 4.425-.001 2.444-1.982 4.425-4.425 4.425m-9.199-7.445c-2.444 0-4.426-1.98-4.426-4.426 0-2.443 1.981-4.424 4.426-4.424s4.425 1.98 4.425 4.424c0 2.445-1.98 4.426-4.425 4.426m10.049-20.969c-8.833 0-15.993 7.159-15.993 15.993 0 8.833 7.16 15.993 15.993 15.993s15.994-7.16 15.994-15.993c0-8.834-7.161-15.993-15.994-15.993" fill="#35485c"/><path clip-path="url(#c)" d="m510.76 168.067c0 1.746-1.414 3.16-3.159 3.16s-3.16-1.414-3.16-3.16c0-1.745 1.415-3.159 3.16-3.159s3.159 1.414 3.159 3.159" fill="#35485c"/><path clip-path="url(#c)" d="m490.791 169.197c0 1.819-1.476 3.296-3.296 3.296-1.819 0-3.296-1.477-3.296-3.296 0-1.82 1.477-3.296 3.296-3.296 1.821 0 3.296 1.476 3.296 3.296" fill="#35485c"/><path clip-path="url(#c)" d="m501.412 160.896c0 1.729-1.401 3.13-3.129 3.13-1.729 0-3.129-1.401-3.129-3.13 0-1.728 1.4-3.129 3.129-3.129 1.728 0 3.129 1.402 3.129 3.129" fill="#35485c"/><path d="m33.001 207.916c-.33 1.462-1.603 2.55-3.123 2.55h-24.494c-1.519 0-2.793-1.088-3.123-2.549v10.829h30.74zm-25.224-7.026v-6.008h4.098v.941h-3.108v1.517h2.979v.941h-2.979v1.666h3.157v.941h-4.147m5.224.002v-6.008h.991v5.017h2.866v.99h-3.857m4.737.001.001-6.008h4.092v.941h-3.103v1.517h2.979v.941h-2.979v1.666h3.157v.941h-4.147m7.479.171c-1.703 0-2.519-1.483-2.519-3.172 0-1.694.781-3.173 2.637-3.173 1.623 0 2.469 1.092 2.574 2.389l-1.066-.001c-.099-.91-.687-1.449-1.521-1.449-.913 0-1.591.776-1.591 2.342 0 1.255.678 2.123 1.658 2.123 1.028 0 1.371-.894 1.454-1.525h1.067c-.139 1.199-.752 2.466-2.693 2.466m7.784-13.052h-30.74v10.937h.998c.028.793.541 1.174 1.354 1.174.602 0 1.164-.228 1.164-.888 0-1.491-3.475-.192-3.475-2.657 0-1.338.932-1.858 2.08-1.858.727 0 2.181.166 2.308 1.909h-1.072c-.033-.465-.365-.97-1.191-.97-.659 0-1.095.262-1.095.826 0 1.41 3.513.058 3.513 2.624 0 1.55-1.26 1.954-2.265 1.954-1.399 0-2.107-.577-2.32-1.487v6.845c.33-1.46 1.604-2.549 3.123-2.549h24.494c1.52 0 2.793 1.088 3.123 2.55v-10.593h-1.683v5.066h-.989v-5.066h-1.771v-.941h4.442v-6.876m-30.821 19.16v-19.243h30.906v6.959h.005v.941h-.005v23.005h-30.906zm109.934-21.075h-108.548c-1.578.003-2.853 1.278-2.856 2.856v29.42c.003 1.577 1.279 2.853 2.856 2.856h108.548c1.577-.003 2.853-1.279 2.856-2.856v-29.42c-.003-1.578-1.278-2.853-2.856-2.856" fill="#f5f5f4"/><path d="m3.564 185.738v.354h108.548c1.578.003 2.853 1.278 2.856 2.856v29.42c-.003 1.577-1.279 2.853-2.856 2.856h-108.548c-1.577-.003-2.853-1.279-2.856-2.856v-29.42c.003-1.578 1.279-2.853 2.856-2.856v-.354-.354c-1.968 0-3.564 1.595-3.564 3.564v29.42c0 1.968 1.595 3.564 3.564 3.564h108.548c1.969 0 3.564-1.596 3.564-3.564v-29.42c0-1.969-1.595-3.564-3.564-3.564h-108.548z" fill="#35485c"/><path d="m29.878 203.867h-24.494c-1.77 0-3.207 1.478-3.207 3.3s1.436 3.3 3.207 3.3h24.494c1.77 0 3.206-1.477 3.206-3.3s-1.435-3.3-3.206-3.3" fill="#35485c"/><path d="m30.329 200.89h.989v-5.066h1.771v-.941h-4.531v.941h1.771zm-2.421-3.787c-.105-1.297-.951-2.389-2.574-2.389-1.855 0-2.637 1.479-2.637 3.173 0 1.689.816 3.172 2.519 3.172 1.942 0 2.554-1.268 2.693-2.467h-1.067c-.083.632-.425 1.525-1.454 1.525-.98 0-1.658-.868-1.658-2.123 0-1.565.678-2.342 1.591-2.342.833 0 1.421.539 1.521 1.449zm-10.17 3.787h4.147v-.941h-3.157v-1.666h2.979v-.941h-2.979v-1.517h3.103v-.941h-4.092zm-4.737 0h3.857v-.99h-2.866v-5.017h-.991zm-5.224 0h4.148v-.941h-3.158v-1.666h2.979v-.941h-2.979v-1.517h3.108v-.941h-4.098zm-5.475-4.317c0 2.465 3.475 1.166 3.475 2.657 0 .66-.561.888-1.164.888-.814 0-1.327-.381-1.354-1.174h-1.069c.013 1.264.693 2.114 2.391 2.114 1.005 0 2.265-.404 2.265-1.954 0-2.566-3.513-1.214-3.513-2.624 0-.564.436-.826 1.095-.826.826 0 1.158.505 1.191.97h1.071c-.127-1.743-1.581-1.909-2.308-1.909-1.148-.001-2.08.52-2.08 1.858" fill="#35485c"/><path d="m33.084 195.824h-.083v10.593c.054.241.083.492.083.75s-.029.509-.083.75v10.83h-30.74v-10.829c-.055-.241-.083-.493-.083-.751v11.662h30.906zm0-7.901h-30.906v19.243c0-.258.029-.51.083-.751v-6.845c-.046-.195-.069-.404-.071-.627h.071v-10.937h30.74v6.875h.083z" fill="#f5f5f4"/><path d="m33.001 206.417v1.499c.054-.241.083-.492.083-.75 0-.257-.029-.508-.083-.749m-30.74-.001c-.055.241-.083.493-.083.751 0 .258.029.51.083.751z" fill="#35485c"/><path d="m2.261 198.944h-.071c.002.223.025.432.071.627zm30.823-4.062h-.083v.941h.083z" fill="#35485c"/><path d="m48.557 204.142c-1.496-.43-2.586-.957-3.27-1.581-.678-.629-1.018-1.404-1.018-2.325 0-1.041.415-1.901 1.245-2.579.836-.685 1.92-1.027 3.252-1.027.908 0 1.717.176 2.425.527.715.352 1.266.836 1.653 1.453.394.618.59 1.293.59 2.025h-1.753c0-.799-.254-1.426-.763-1.88-.509-.46-1.226-.69-2.153-.69-.86 0-1.532.19-2.017.572-.479.376-.718.899-.718 1.571 0 .539.228.996.682 1.372.46.369 1.238.708 2.334 1.018 1.102.309 1.962.65 2.58 1.026.624.369 1.084.802 1.381 1.299.303.496.454 1.081.454 1.753 0 1.072-.418 1.932-1.253 2.58-.836.642-1.953.963-3.352.963-.908 0-1.756-.173-2.543-.518-.787-.352-1.396-.83-1.826-1.436-.424-.605-.636-1.293-.636-2.063h1.753c0 .8.294 1.433.881 1.898.593.461 1.383.69 2.371.69.92 0 1.626-.188 2.117-.563.49-.376.735-.888.735-1.535 0-.648-.227-1.147-.681-1.499-.453-.354-1.277-.706-2.47-1.051z" fill="#35485c"/><path d="m63.181 203.924h-5.731v4.687h6.658v1.427h-8.402v-13.226h8.311v1.435h-6.567v4.251h5.731z" fill="#35485c"/><path d="m68.033 208.611h6.267v1.427h-8.021v-13.226h1.754z" fill="#35485c"/><path d="m83.784 203.924h-5.732v4.687h6.658v1.427h-8.403v-13.226h8.312v1.435h-6.567v4.251h5.732z" fill="#35485c"/><path d="m96.609 205.84c-.163 1.399-.681 2.48-1.553 3.243-.866.757-2.02 1.136-3.461 1.136-1.562 0-2.816-.561-3.76-1.681-.939-1.12-1.408-2.619-1.408-4.496v-1.272c0-1.229.218-2.31.654-3.242.442-.933 1.065-1.647 1.871-2.145.805-.502 1.738-.754 2.798-.754 1.405 0 2.531.395 3.379 1.182.848.781 1.341 1.865 1.48 3.252h-1.753c-.151-1.054-.481-1.817-.99-2.289-.502-.473-1.208-.709-2.116-.709-1.114 0-1.989.412-2.625 1.235-.629.823-.944 1.995-.944 3.516v1.28c0 1.436.3 2.577.899 3.425.6.848 1.438 1.271 2.516 1.271.969 0 1.711-.218 2.226-.653.521-.442.866-1.208 1.036-2.299z" fill="#35485c"/><path d="m107.864 198.247h-4.251v11.791h-1.735v-11.791h-4.242v-1.435h10.228z" fill="#35485c"/><path d="m111.755 142.691h-99.909c-1.774 0-3.212 1.437-3.212 3.212v29.443c0 1.774 1.438 3.213 3.212 3.213h99.909c1.774 0 3.212-1.439 3.212-3.213v-29.443c.001-1.774-1.438-3.212-3.212-3.212" fill="#f5f5f4"/><path d="m11.846 142.691v.34h99.909c1.586.003 2.869 1.285 2.872 2.871v29.442c-.003 1.586-1.286 2.87-2.872 2.872h-99.909c-1.586-.003-2.869-1.286-2.872-2.872v-29.442c.003-1.586 1.286-2.869 2.872-2.871v-.34-.34c-1.962 0-3.553 1.59-3.553 3.552v29.442c0 1.962 1.59 3.553 3.553 3.553h99.909c1.962 0 3.553-1.591 3.553-3.553v-29.442c0-1.963-1.591-3.552-3.553-3.552h-99.909z" fill="#35485c"/><path d="m38.82 157.857h1.225v-5.175h2.183v-.962h-5.589v.962h2.183zm-7.421-3.385v-1.79h2.114c.643 0 1.044.249 1.044.885 0 .688-.368.905-1.044.905zm-1.221 3.385h1.221v-2.424h2.081c.896 0 1.012.619 1.012 1.495 0 .447.058.758.148.929h1.322c-.239-.336-.247-1.021-.247-1.316 0-.868-.153-1.504-.847-1.656v-.018c.548-.18.961-.679.961-1.479 0-.953-.479-1.664-1.963-1.664h-3.685zm-7.566 0h1.321l.603-1.521h2.739l.612 1.521h1.365l-2.593-6.137h-1.451zm2.292-2.483 1.011-2.59.994 2.59zm-5.732 2.483h1.221v-5.175h2.186v-.962h-5.593v.962h2.186zm-8.349-4.411c0 2.518 4.289 1.192 4.289 2.715 0 .675-.692.906-1.434.906-1.004 0-1.637-.389-1.671-1.198h-1.32c.018 1.291.855 2.161 2.954 2.161 1.239 0 2.793-.414 2.793-1.997 0-2.622-4.337-1.238-4.337-2.681 0-.575.538-.841 1.353-.841 1.019 0 1.427.514 1.47.988h1.321c-.158-1.782-1.95-1.952-2.849-1.952-1.42 0-2.569.532-2.569 1.899" fill="#35485c"/><path d="m38.949 160.897h-25.011c-1.808 0-3.274 1.509-3.274 3.369 0 1.861 1.466 3.37 3.274 3.37h25.011c1.808 0 3.273-1.509 3.273-3.37s-1.465-3.369-3.273-3.369z" fill="#35485c"/><path d="m56.85 161.109c-1.496-.43-2.586-.957-3.271-1.581-.678-.63-1.017-1.404-1.017-2.325 0-1.041.415-1.901 1.244-2.58.836-.684 1.92-1.026 3.252-1.026.909 0 1.717.176 2.425.527.715.352 1.266.836 1.653 1.453.394.618.59 1.293.59 2.025h-1.753c0-.799-.254-1.426-.763-1.88-.508-.46-1.226-.69-2.153-.69-.86 0-1.532.19-2.017.572-.478.376-.717.899-.717 1.571 0 .539.227.996.681 1.372.46.369 1.238.708 2.334 1.018 1.102.309 1.962.65 2.58 1.026.624.369 1.084.802 1.381 1.299.303.496.454 1.081.454 1.753 0 1.072-.417 1.932-1.253 2.58-.835.642-1.953.963-3.352.963-.908 0-1.756-.173-2.543-.519-.788-.351-1.396-.829-1.826-1.435-.424-.605-.636-1.293-.636-2.063h1.753c0 .8.294 1.433.881 1.898.593.461 1.384.69 2.371.69.921 0 1.626-.188 2.117-.563.491-.376.736-.888.736-1.535 0-.648-.227-1.147-.681-1.499-.453-.355-1.277-.706-2.47-1.051z" fill="#35485c"/><path d="m73.137 155.214h-4.251v11.791h-1.735v-11.791h-4.242v-1.436h10.228z" fill="#35485c"/><path d="m81.694 163.552h-5.541l-1.244 3.452h-1.799l5.051-13.227h1.526l5.06 13.227h-1.79zm-5.014-1.435h4.497l-2.253-6.186z" fill="#35485c"/><path d="m91.377 161.654h-3.107v5.351h-1.753v-13.227h4.378c1.49 0 2.634.34 3.434 1.018.805.679 1.208 1.665 1.208 2.962 0 .823-.224 1.541-.672 2.152-.442.611-1.06 1.069-1.853 1.372l3.106 5.613v.109h-1.871zm-3.107-1.426h2.68c.866 0 1.553-.225 2.062-.673.515-.448.772-1.048.772-1.799 0-.817-.245-1.443-.735-1.88-.485-.436-1.187-.657-2.107-.663h-2.672z" fill="#35485c"/><path d="m106.383 155.214h-4.251v11.791h-1.735v-11.791h-4.242v-1.436h10.228z" fill="#35485c"/><path d="m202.414.864h-62.542c-1.78 0-3.224 1.443-3.224 3.224v29.55c0 1.781 1.444 3.224 3.224 3.224h62.542c1.781 0 3.224-1.443 3.224-3.224v-29.549c0-1.781-1.443-3.225-3.224-3.225" fill="#f5f5f4"/><path d="m139.873.864v.864h62.542c1.303.002 2.357 1.057 2.36 2.36v29.55c-.002 1.303-1.057 2.357-2.36 2.36h-62.542c-1.303-.002-2.357-1.057-2.36-2.36v-29.549c.002-1.303 1.057-2.357 2.36-2.36v-.865-.864c-2.258.001-4.088 1.83-4.088 4.089v29.55c.001 2.259 1.831 4.088 4.088 4.088h62.542c2.258-.001 4.088-1.83 4.088-4.088v-29.55c-.001-2.258-1.83-4.088-4.088-4.089h-62.542z" fill="#35485c"/><path d="m182.787 23.818h6.268v1.425h-8.02v-13.225h1.752z" fill="#35485c"/><path d="m196.15 25.243h-1.69v-11.2l-3.388 1.245v-1.526l4.814-1.808h.264z" fill="#35485c"/><path d="m163.158 13.04c2.84 0 5.15 2.564 5.15 5.714 0 3.157-2.31 5.725-5.15 5.725h-17.552c-2.819-.024-5.112-2.594-5.112-5.725 0-3.126 2.293-5.688 5.102-5.714zm0-1.224h-17.562c-3.496.031-6.326 3.119-6.326 6.938 0 3.82 2.83 6.919 6.326 6.95h17.562c3.522 0 6.375-3.113 6.375-6.95s-2.854-6.938-6.375-6.938z" fill="#35485c"/><path d="m152.269 21.766h4.264v-1.112h-2.938v-4.913h-1.326z" fill="#35485c"/><path d="m452.706.864h-62.541c-1.781 0-3.225 1.443-3.225 3.224v29.55c0 1.781 1.443 3.224 3.225 3.224h62.541c1.78 0 3.224-1.443 3.224-3.224v-29.549c0-1.781-1.443-3.225-3.224-3.225" fill="#f5f5f4"/><path d="m390.165.864v.275h62.541c1.628.003 2.946 1.32 2.949 2.949v29.55c-.003 1.629-1.32 2.946-2.949 2.949h-62.541c-1.629-.003-2.947-1.32-2.95-2.949v-29.549c.003-1.629 1.32-2.946 2.95-2.949v-.276-.274c-1.933 0-3.499 1.566-3.499 3.499v29.55c0 1.933 1.566 3.499 3.499 3.499h62.541c1.932 0 3.498-1.566 3.498-3.499v-29.55c0-1.933-1.566-3.499-3.498-3.499h-62.541z" fill="#35485c"/><path d="m436.017 19.971h-3.107v5.351h-1.753v-13.227h4.379c1.489 0 2.634.339 3.434 1.018.805.678 1.208 1.665 1.208 2.961 0 .824-.225 1.542-.673 2.153-.441.612-1.06 1.069-1.853 1.372l3.106 5.613v.109h-1.871zm-3.107-1.426h2.68c.866 0 1.554-.224 2.063-.672.515-.448.771-1.048.771-1.799 0-.817-.245-1.444-.735-1.88-.484-.436-1.187-.657-2.107-.663h-2.671v5.014z" fill="#35485c"/><path d="m447.698 25.321h-1.69v-11.2l-3.388 1.244v-1.526l4.815-1.807h.263z" fill="#35485c"/><path d="m403.225 16.759h1.443c.586 0 .906.253.906.829 0 .606-.321.86-.906.86h-1.443zm-1.315 4.971h1.314v-2.342h1.318c.662 0 .906.277.998.907.066.478.05 1.058.209 1.436h1.315c-.234-.336-.227-1.039-.254-1.418-.041-.604-.223-1.234-.868-1.402 0 0 .946-.246.946-1.52 0-.907-.68-1.652-1.753-1.652h-3.229z" fill="#35485c"/><path d="m413.19 13.059c2.822 0 5.117 2.548 5.117 5.677 0 3.137-2.295 5.689-5.117 5.689h-17.44c-2.801-.024-5.08-2.578-5.08-5.689 0-3.105 2.279-5.652 5.069-5.677zm0-1.217h-17.451c-3.474.03-6.286 3.1-6.286 6.894 0 3.796 2.813 6.875 6.286 6.907h17.451c3.5 0 6.335-3.093 6.335-6.907 0-3.813-2.836-6.894-6.335-6.894z" fill="#35485c"/><path d="m111.068 100.479h-97.67c-1.774 0-3.213 1.438-3.213 3.213v29.448c0 1.774 1.438 3.213 3.213 3.213h97.669c1.774 0 3.213-1.439 3.213-3.213v-29.448c.001-1.774-1.438-3.213-3.212-3.213" fill="#f5f5f4"/><path d="m13.398 100.479v.337h97.669c1.588.003 2.874 1.288 2.877 2.876v29.448c-.003 1.588-1.288 2.873-2.877 2.876h-97.669c-1.588-.003-2.873-1.288-2.876-2.876v-29.448c.003-1.588 1.288-2.873 2.876-2.876v-.337-.337c-1.961 0-3.55 1.589-3.55 3.55v29.448c0 1.961 1.589 3.55 3.55 3.55h97.669c1.961 0 3.55-1.589 3.55-3.55v-29.448c0-1.961-1.59-3.55-3.55-3.55h-97.669z" fill="#35485c"/><path d="m31.082 134.53h-6.146c-1.978 0-2.695-1.613-2.695-2.697v-7.546h-7.548c-1.979 0-2.697-1.613-2.697-2.697v-6.145c0-1.978 1.613-2.696 2.697-2.696h7.548v-7.547c0-1.979 1.612-2.697 2.695-2.697h6.146c1.979 0 2.697 1.613 2.697 2.697v7.547h7.545c1.038 0 1.862.454 2.32 1.279.179.324.394.961.371 1.417h.007v6.145c0 1.979-1.613 2.697-2.697 2.697h-7.545v7.546c-.001 1.979-1.614 2.697-2.698 2.697zm-16.39-20.486c-.325.005-1.401.12-1.401 1.4v6.145c.005.325.12 1.401 1.401 1.401h8.844v8.843c.004.325.12 1.401 1.399 1.401h6.143c.332-.005 1.404-.123 1.404-1.401v-8.842h8.842c.325-.005 1.401-.121 1.401-1.401v-6.154c-.004-.248-.097-1.391-1.4-1.391h-8.841v-8.844c-.005-.325-.12-1.401-1.401-1.401h-6.146c-.325.005-1.399.12-1.399 1.401v8.843z" fill="#35485c"/><path d="m28.01 121.673c-1.739 0-3.154-1.416-3.154-3.155s1.415-3.154 3.154-3.154c1.74 0 3.154 1.416 3.154 3.154 0 1.74-1.415 3.155-3.154 3.155zm0-5.013c-1.024 0-1.857.834-1.857 1.858 0 1.026.833 1.859 1.857 1.859 1.025 0 1.858-.834 1.858-1.859s-.834-1.858-1.858-1.858z" fill="#35485c"/><path d="m28.009 105.254-2.597 4.048h5.196z" fill="#35485c"/><path d="m30.607 109.95h-5.196c-.237 0-.455-.129-.569-.337-.113-.208-.104-.461.023-.661l2.597-4.048c.238-.373.853-.372 1.09 0l2.599 4.048c.128.2.137.453.023.661-.111.208-.329.337-.567.337zm-4.009-1.296h2.823l-1.412-2.199z" fill="#35485c"/><path d="m14.696 118.518 4.048 2.596v-5.194z" fill="#35485c"/><path d="m18.744 121.762c-.122 0-.244-.035-.35-.103l-4.048-2.596c-.186-.119-.298-.324-.298-.545s.112-.426.298-.545l4.048-2.598c.199-.127.453-.138.661-.023.207.113.337.332.337.569v5.194c0 .237-.129.455-.337.569-.098.052-.205.078-.311.078zm-2.848-3.244 2.2 1.411v-2.822z" fill="#35485c"/><path d="m41.275 118.517-4.05-2.597v5.194z" fill="#35485c"/><path d="m37.226 121.762c-.107 0-.213-.026-.31-.08-.208-.114-.338-.332-.338-.569v-5.194c0-.237.128-.455.338-.569.207-.114.459-.106.661.023l4.049 2.597c.186.12.298.325.298.545 0 .221-.113.426-.298.545l-4.05 2.597c-.106.071-.229.105-.35.105zm.648-4.656v2.823l2.201-1.412z" fill="#35485c"/><path d="m28.009 131.78 2.599-4.048h-5.196z" fill="#35485c"/><path d="m28.009 132.428c-.22 0-.426-.112-.545-.298l-2.597-4.048c-.128-.2-.137-.453-.023-.661s.332-.338.569-.338h5.196c.237 0 .455.129.568.338.114.208.104.461-.023.661l-2.599 4.048c-.12.186-.325.298-.546.298zm-1.411-4.048 1.411 2.2 1.412-2.2z" fill="#35485c"/><path d="m54.509 124.796v-13.226h3.733c1.151 0 2.168.254 3.052.763s1.565 1.232 2.044 2.171c.484.939.729 2.017.735 3.234v.845c0 1.248-.242 2.341-.727 3.279-.479.938-1.166 1.659-2.062 2.162-.89.502-1.929.76-3.116.772zm1.744-11.791v10.364h1.835c1.344 0 2.389-.418 3.134-1.253.751-.836 1.126-2.026 1.126-3.57v-.772c0-1.502-.354-2.668-1.063-3.498-.702-.835-1.702-1.259-2.998-1.271z" fill="#35485c"/><path d="m65.518 118.492h4.433v1.372h-4.433z" fill="#35485c"/><path d="m73.584 119.618v5.178h-1.744v-13.226h4.878c1.447 0 2.58.369 3.397 1.108.824.739 1.235 1.717 1.235 2.934 0 1.284-.403 2.274-1.208 2.97-.799.69-1.947 1.036-3.443 1.036zm0-1.426h3.134c.933 0 1.647-.218 2.144-.654.497-.442.745-1.078.745-1.908 0-.787-.248-1.417-.745-1.889-.497-.473-1.178-.718-2.044-.736h-3.234z" fill="#35485c"/><path d="m89.644 121.344h-5.541l-1.245 3.452h-1.798l5.05-13.226h1.526l5.06 13.226h-1.789zm-5.014-1.435h4.496l-2.252-6.186z" fill="#35485c"/><path d="m94.477 124.796v-13.226h3.733c1.15 0 2.168.254 3.052.763s1.565 1.232 2.044 2.171c.484.939.73 2.017.736 3.234v.845c0 1.248-.242 2.341-.727 3.279-.479.938-1.166 1.659-2.062 2.162-.89.502-1.929.76-3.116.772zm1.744-11.791v10.364h1.835c1.345 0 2.389-.418 3.134-1.253.751-.836 1.126-2.026 1.126-3.57v-.772c0-1.502-.354-2.668-1.063-3.498-.703-.835-1.702-1.259-2.998-1.271z" fill="#35485c"/><g fill="#434547"><path d="m407.73 121.729c1.155 0 2.093.917 2.093 2.049s-.938 2.048-2.093 2.048c-1.156 0-2.094-.917-2.094-2.048s.938-2.049 2.094-2.049z"/><path d="m439.007 110.788c1.156 0 2.094.917 2.094 2.049s-.938 2.048-2.094 2.048-2.094-.917-2.094-2.048.938-2.049 2.094-2.049z"/><path d="m424.822 45.83c1.156 0 2.093.917 2.093 2.048s-.937 2.049-2.093 2.049-2.094-.917-2.094-2.049.937-2.048 2.094-2.048z"/><path d="m169.255 45.83c1.156 0 2.093.917 2.093 2.048s-.937 2.049-2.093 2.049-2.094-.917-2.094-2.049.938-2.048 2.094-2.048z"/><path d="m171.343 116.455c1.156 0 2.093.917 2.093 2.048s-.937 2.049-2.093 2.049-2.094-.917-2.094-2.049.937-2.048 2.094-2.048z"/><path d="m194.218 164.403c1.156 0 2.093.917 2.093 2.049 0 1.131-.937 2.049-2.093 2.049s-2.094-.918-2.094-2.049c0-1.132.937-2.049 2.094-2.049z"/><ellipse cx="193.428" cy="185.97" rx="2.093" ry="2.049"/><path d="m479.742 112.762-41.276.057"/><path d="m479.741 112.378-41.275.058.001.767 41.275-.058"/><path d="m479.749 168.144-71.803.058"/><path d="m479.749 167.639-71.804.057.001 1.011 71.804-.058"/><path d="m171.215 118.304-56.714.057"/><path d="m171.214 117.854-56.714.058.001.899 56.714-.057"/><path d="m194.442 166.449-79.265.057"/><path d="m194.441 165.918-79.265.058.001 1.061 79.265-.058"/><path d="m193.645 208.66-78.128.057"/><path d="m193.645 208.132-78.128.058v1.055l78.129-.058"/><path d="m407.727 122.425.058 46.287"/><path d="m407.32 122.426.058 46.286.813-.001-.057-46.286"/><path d="m424.672 37.115.229 11.274"/><path d="m424.274 37.123.228 11.274.797-.016-.228-11.274"/><path d="m168.999 37.108.252 9.615"/><path d="m168.612 37.118.252 9.615.773-.02-.252-9.616"/><path d="m193.32 185.189.059 23.979"/><path d="m193.026 185.19.059 23.978.588-.001-.059-23.979"/></g></svg>