<svg enable-background="new 0 0 198.854 115.181" viewBox="0 0 198.854 115.181" xmlns="http://www.w3.org/2000/svg"><path d="m4.938 111.015v-88.507h5.475v92.673h-1.309c-2.3 0-4.166-1.867-4.166-4.166v-88.507" fill="#a9a7a5"/><path d="m193.916 111.015v-88.507h-5.474v92.673h1.308c2.303 0 4.166-1.867 4.166-4.166v-88.507" fill="#a9a7a5"/><path d="m99.428 115.181h89.015v-92.673h5.474 4.938v-17.165c0-2.95-2.393-5.343-5.345-5.343h-94.082-94.084c-2.951 0-5.344 2.393-5.344 5.343v17.165h4.938 5.475v92.673z" fill="#c4c4c3"/><path d="m84.397 105.691h30.06l-15.714 6.641z" fill="#a9a7a5"/><path d="m99.428 0h94.082c2.952 0 5.345 2.393 5.345 5.343v17.165h-4.938-.506v-16.527h-93.983-93.983v16.526h-.507-4.938v-17.164c0-2.95 2.393-5.343 5.344-5.343z" fill="#a9a7a5"/><path d="m174.097 99.457c0 1.512-1.226 2.736-2.737 2.736h-143.864c-1.512 0-2.737-1.225-2.737-2.736v-72.387c0-1.513 1.226-2.738 2.737-2.738h143.863c1.512 0 2.737 1.226 2.737 2.738v72.387z" fill="#a9a7a5"/><path d="m160.33 16.136c-18.02-6.388-41.191-8.212-61.491-8.212-20.302 0-43.472 1.824-61.491 8.212 0 0 24.215-.312 61.491-.312 37.275 0 61.491.312 61.491.312z" fill="#a9a7a5"/><path d="m86.391 12.76c1.141 0 1.846.47 2.515 1.221.245-.219.509-.413.791-.58.708-.416 1.489-.628 2.271-.631l10.59-.001-.705 1.043 13.318-.01 1.211 1.968 1.097-1.947 8.84.005 2.194 1.62v-1.62h16.639v7.487h-15.355l-2.232-1.633v1.635l-12.438-.002v.004l-.846-1.291c-.684.723-1.904 1.289-3.908 1.289l-12.184.003-.174 1.055h-4.269l.098-.582c-.043.026-.084.055-.127.08-.984.579-2.115.769-3.181.538-.817-.178-1.524-.587-2.077-1.154-.716.667-1.684 1.104-2.604 1.104l-20.963.014-.336-1.803-.86 1.803h-3.495c-1.102.176-2.211.021-3.195-.453-1.367-.657-2.267-1.852-2.41-3.191-.236-2.227.67-4.006 2.62-5.142 1.874-1.094 3.864-1.308 5.915-.638l.378.125.144-.308h3.916l.297 1.675.578-1.675z" fill="#a9a7a5"/><g fill="#c4c4c3"><path d="m119.908 15.059h-1.615l-.044.075-1.851 3.167-1.963-3.169-.045-.073h-1.736l.142.222.335.519c-.535-.48-1.357-.74-2.424-.74h-3.491v4.117l-2.588-4.042-.044-.069h-1.337l-.044.07-2.944 4.672-.138.219h1.156v.002h2.572v-1.099h-1.513l1.515-2.572 2.14 3.594.044.074h1.724l-.003-.005h2.646c2.281 0 3.443-.841 3.443-2.497 0-.287-.041-.553-.116-.795l2.07 3.221.046.071h1.008l.047-.073 2.874-4.67zm-9.763 3.805h-1.406v-2.681h1.98c1.072 0 1.57.409 1.57 1.285 0 1.042-.541 1.396-2.144 1.396z"/><path d="m129.991 15.059h-.155v2.951l-3.961-2.92-.041-.031h-1.037v4.121l-2.592-4.048-.047-.071h-1.334l-.045.072-2.944 4.671-.138.217h1.57l.003-.003h2.16v-1.098h-1.513l1.513-2.566 2.138 3.595.043.072h1.725-.002.873v-2.993l3.944 2.961.042.032h1.036v-4.962z"/><path d="m136.221 15.061h-3.086c-1.084 0-1.449.314-1.449 1.252v2.459c0 .931.365 1.248 1.449 1.248h3.086c1.087 0 1.453-.317 1.453-1.248v-.698h-.154l-1.215-.003h-.155v.764h-2.943v-2.619h2.943v.687h.155l1.214.008h.155v-.598c0-.948-.354-1.252-1.453-1.252"/><path d="m143.701 18.864h-4.009v-.87h2.392v-1.094h-2.392v-.716h4.107v-1.123h-5.63v4.96h5.688v-1.157z"/><path d="m73.432 14.002-1.749 3.877-.755-3.877h-1.528l-1.973 5.721-1.011-5.721h-1.906l-2.883 6.164.43-2.577h-2.865l-.22 1.327h1.196l-.135.709c-.689.258-1.856.162-2.352-.678-.315-.533-.608-1.723.721-2.813 1.08-.889 2.949-1.048 4.031-.581 0 0 .137-.744.24-1.438-2.076-.681-3.689-.113-4.77.517-1.471.858-2.18 2.165-1.99 3.942.218 2.063 3.055 3.361 5.455 2.053.022-.012.039-.021.056-.03l-.226.483h1.611l1.014-2.117h1.783l.395 2.117h2.626l1.338-3.959.858 3.959h1.029l2.009-4.38.204 4.38h1.545l-.326-7.078zm-8.991 3.587.651-1.374.283 1.374z"/><path d="m75.731 21.08h4.308l.258-1.519h-2.695l.212-1.262h2.344l.258-1.518h-2.367l.205-1.261h2.693l.258-1.518h-4.272z"/><path d="m96.768 16.313-.961-2.311h-1.768l1.818 3.732-.558 3.346h1.544l.473-2.956 2.781-4.122h-1.802z"/><path d="m92.557 14.063c-1.71-.371-3.487.911-3.967 2.869-.479 1.957.52 3.844 2.231 4.217 1.71.373 3.487-.912 3.967-2.868.479-1.958-.52-3.845-2.231-4.218m.604 4.16c-.417 1.18-1.417 1.854-2.235 1.51-.814-.346-1.14-1.578-.723-2.756.416-1.177 1.416-1.853 2.233-1.508.818.342 1.142 1.576.725 2.754z"/><path d="m86.433 14.043c-.834-.015-2.896 0-2.896 0h.019l-1.192 7.023h3.473c1.432 0 3.523-1.986 1.619-3.609 1.957-1.908.017-3.398-1.023-3.414m-.903 5.659c-.852 0-1.362 0-1.362 0l.239-1.411h1.294c1.226 0 1.192 1.411-.171 1.411zm.188-2.853c-.853 0-1.073 0-1.073 0l.238-1.316h1.005c1.09 0 .869 1.316-.17 1.316z"/></g></svg>