<svg xmlns="http://www.w3.org/2000/svg" viewBox="0 0 559.587 232.479"><path d="M384.495 232.479H12.339c-3.132 0-5.672-2.555-5.672-5.707L0 83.313h396.833l-6.667 143.46c.001 3.151-2.539 5.706-5.671 5.706z" fill="#efebe1"/><path d="M363.05 0h-3.568c-.076 0-.138.204-.138.457h-3.875c0-.252-.062-.457-.138-.457h-3.568c-.076 0-.138.204-.138.457h-3.875c0-.252-.062-.457-.138-.457h-3.568c-.076 0-.138.204-.138.457h-3.875c0-.252-.062-.457-.138-.457h-3.568c-.076 0-.138.204-.138.457h-3.875c0-.252-.062-.457-.138-.457h-3.568c-.076 0-.138.204-.138.457h-3.875c0-.252-.062-.457-.138-.457h-3.568c-.076 0-.138.204-.138.457h-3.875c0-.252-.062-.457-.138-.457h-3.568c-.076 0-.138.204-.138.457h-3.875c0-.252-.062-.457-.138-.457h-3.568c-.076 0-.138.204-.138.457h-3.875c0-.252-.062-.457-.138-.457h-3.568c-.076 0-.138.204-.138.457h-3.875c0-.252-.062-.457-.138-.457h-3.568c-.076 0-.138.204-.138.457H286c0-.253-.062-.457-.138-.457H5.618A5.618 5.618 0 0 0 0 5.618v77.694h396.833V5.618A5.618 5.618 0 0 0 391.215 0h-16.296c-.076 0-.138.204-.138.457h-3.875c0-.252-.062-.457-.138-.457H367.2c-.076 0-.138.204-.138.457h-3.875c0-.253-.061-.457-.137-.457z" fill="#e9e5dd"/><g fill="#81776d"><path d="M282.515 215.486h-1.469a.125.125 0 0 1-.125-.125v-1.481c0-.069.056-.125.125-.125h5.503c.069 0 .125.056.125.125v1.481a.125.125 0 0 1-.125.125h-1.31a.125.125 0 0 0-.125.125l.011 4.149a.125.125 0 0 1-.125.125h-2.236a.125.125 0 0 1-.125-.125v-4.15a.123.123 0 0 0-.124-.124z"/><path d="M288.039 215.084h2.471c.069 0 .125.056.125.125v1.054a.125.125 0 0 1-.125.125h-1.935c-.122.016-.187.081-.195.195.008.122.073.187.195.195h.597s.421-.015.911.174a1.5 1.5 0 0 1 .6.447c.179.219.272.532.28.938-.008.414-.102.731-.28.951a1.396 1.396 0 0 1-.6.448c-.006.003-.406.15-.645.15h-2.895a.125.125 0 0 1-.125-.125v-1.054c0-.069.056-.125.125-.125h2.105c.124 0 .195-.066.195-.195 0-.124-.067-.195-.195-.195h-.609l-.258-.012c-.007 0-.315-.029-.642-.138-.226-.076-.423-.231-.599-.448-.179-.227-.273-.548-.281-.962.008-.415.102-.732.281-.951.177-.217.377-.366.601-.448.006-.002.319-.149.633-.149h.265zm7.59 0c.069 0 .125.056.125.125v2.959c-.016.52-.195.951-.536 1.292-.349.341-.78.52-1.292.536h-.963c-.52-.016-.951-.195-1.292-.536-.341-.341-.52-.772-.536-1.292v-2.959c0-.069.056-.125.125-.125h1.81c.069 0 .125.056.125.125v3.117c.016.154.102.24.256.256.154-.016.24-.102.256-.256v-3.117c0-.069.056-.125.125-.125h1.797zm10.006 0c.069 0 .125.056.125.125v2.959c-.016.52-.195.951-.536 1.292-.349.341-.78.52-1.292.536h-.963c-.52-.016-.951-.195-1.292-.536-.341-.341-.52-.772-.536-1.292v-2.959c0-.069.056-.125.125-.125h1.81c.069 0 .125.056.125.125v3.117c.016.154.102.24.256.256.154-.016.24-.102.256-.256l-.012-3.117c0-.069.056-.125.125-.125h1.809z"/><path d="M298.51 216.201l.141-1.033a.123.123 0 0 1 .124-.108h1.986c.097 0 .157.106.107.189l-1.255 2.101a.124.124 0 0 0 .009.141l1.725 2.192a.124.124 0 0 1-.021.175.133.133 0 0 1-.077.027h-2.042a.127.127 0 0 1-.112-.069l-.718-1.425c-.014-.027-.12-.202-.286-.144-.179.063-.068.337-.066.345l.42 1.123a.125.125 0 0 1-.118.169l-2.096-.01a.125.125 0 0 1-.124-.124v-5.955c0-.069.056-.125.125-.125h1.664c.069 0 .125.056.125.125v2.617c0 .079.07.123.149.123.306-.001.337-.324.34-.334zm10.199 2.125l-.012-4.506c0-.069.056-.125.125-.125h1.736c.069 0 .125.056.125.125v5.929a.125.125 0 0 1-.125.125h-2.885c-.553-.016-.975-.207-1.268-.573-.301-.374-.451-.837-.451-1.389v-.708c.008-.561.171-1.024.488-1.389.317-.374.752-.569 1.304-.585h.326c.069 0 .125.056.125.125v2.971c.016.154.102.24.256.256.155-.017.24-.102.256-.256zm4.802-1.804h-2.057a.125.125 0 0 1-.125-.125v-1.066c0-.069.056-.125.125-.125h2.884c.283 0 .48.099.487.102.174.066.325.182.452.349.138.163.211.41.219.743l-.012 3.349a.125.125 0 0 1-.125.125h-2.983a1.48 1.48 0 0 1-1.487-1.487c.008-.423.154-.772.439-1.048.276-.276.626-.423 1.048-.439h.521c.069 0 .125.056.125.125v1.374c0 .156.102.256.256.256.158 0 .256-.099.256-.256v-1.865l-.023-.012z"/></g><path d="M329.899 213.926v1.073h-1.938v-1.073h1.938zm7.166 0v1.073h-1.938v-1.073h1.938zm-4.436 2.706c-.224 0-.256.183-.256.256v3.12h-.451c-.553-.008-.987-.199-1.304-.573-.317-.366-.479-.829-.488-1.389v-.744c0-.553.15-1.016.451-1.389.301-.366.723-.557 1.268-.573h3.01v4.57s.024.434-.171.841c-.099.207-.24.402-.451.573-.219.163-.528.248-.926.256h-1.584v-1.219l.305-.024c.187-.016.374-.069.561-.158a.47.47 0 0 0 .293-.414v-2.877c-.001 0 .006-.256-.257-.256zm-4.814.804h-1.938v-.658s.001-.244-.244-.244c-.212 0-.244.171-.244.244v3.242h-1.938v-4.68h2.998c.358.008.63.118.817.329.195.203.329.443.402.719l.134.719.013.329zm9.628-2.096h2.998c.358.008.63.118.817.329.195.203.321.445.402.719.148.498.146 1.048.146 1.048v2.572h-1.938v-3.23s.016-.244-.244-.244c-.173 0-.244.088-.244.244v3.23h-1.938l.001-4.668zm-7.544 0v4.668h-1.938v-4.668h1.938zm7.166 0v4.668h-1.938v-4.668h1.938zm11.75-1.414v6.082h-1.938v-6.082h1.938zm-4.181 2.73h-2.057a.125.125 0 0 1-.125-.125v-1.066c0-.069.056-.125.125-.125h2.884c.282 0 .48.099.487.102.174.066.325.182.452.349.138.163.211.41.219.743l-.012 3.349a.125.125 0 0 1-.125.125h-2.981a1.48 1.48 0 0 1-1.487-1.487c.008-.423.154-.772.439-1.048.276-.276.626-.423 1.048-.439h.521c.069 0 .125.056.125.125v1.374c0 .156.102.256.256.256.158 0 .256-.099.256-.256v-1.865l-.025-.012zm-24.397-2.986h-.226a2.94 2.94 0 0 0-2.934 2.934v.482a2.94 2.94 0 0 0 2.934 2.934h.226a2.94 2.94 0 0 0 2.934-2.934v-.482a2.94 2.94 0 0 0-2.934-2.934zm.131 4.674c-.008.146-.089.228-.244.244-.146-.016-.228-.098-.244-.244v-2.998c.016-.154.098-.236.244-.244a.209.209 0 0 1 .171.073c.05.043.077.106.073.171v2.998z" fill="#81776d"/><g fill="#cbc8c2"><path d="M282.438 215.408h-1.469a.125.125 0 0 1-.125-.125v-1.481c0-.069.056-.125.125-.125h5.503c.069 0 .125.056.125.125v1.481a.125.125 0 0 1-.125.125h-1.31a.125.125 0 0 0-.125.125l.011 4.149a.125.125 0 0 1-.125.125h-2.236a.125.125 0 0 1-.125-.125v-4.15a.125.125 0 0 0-.124-.124z"/><path d="M287.962 215.006h2.471c.069 0 .125.056.125.125v1.054a.125.125 0 0 1-.125.125h-1.935c-.122.016-.187.081-.195.195.008.122.073.187.195.195h.597s.421-.015.911.174a1.5 1.5 0 0 1 .6.447c.179.219.272.532.28.938-.008.414-.102.731-.28.951a1.396 1.396 0 0 1-.6.448c-.006.003-.406.15-.645.15h-2.895a.125.125 0 0 1-.125-.125v-1.054c0-.069.056-.125.125-.125h2.105c.124 0 .195-.066.195-.195 0-.124-.067-.195-.195-.195h-.609l-.258-.012c-.007 0-.315-.029-.642-.138-.226-.076-.423-.231-.599-.448-.179-.227-.273-.548-.281-.962.008-.415.102-.732.281-.951.177-.217.377-.366.601-.448.006-.002.319-.149.633-.149h.265zm7.59 0c.069 0 .125.056.125.125v2.959c-.016.52-.195.951-.536 1.292-.349.341-.78.52-1.292.536h-.963c-.52-.016-.951-.195-1.292-.536s-.52-.772-.536-1.292v-2.959c0-.069.056-.125.125-.125h1.81c.069 0 .125.056.125.125v3.117c.016.154.102.24.256.256.154-.016.24-.102.256-.256v-3.117c0-.069.056-.125.125-.125h1.797zm10.006 0c.069 0 .125.056.125.125v2.959c-.016.52-.195.951-.536 1.292-.349.341-.78.52-1.292.536h-.963c-.52-.016-.951-.195-1.292-.536s-.52-.772-.536-1.292v-2.959c0-.069.056-.125.125-.125h1.81c.069 0 .125.056.125.125v3.117c.016.154.102.24.256.256.154-.016.24-.102.256-.256l-.012-3.117c0-.069.056-.125.125-.125h1.809z"/><path d="M298.433 216.123l.141-1.033a.123.123 0 0 1 .124-.108h1.986c.097 0 .157.106.107.189l-1.255 2.101a.124.124 0 0 0 .009.141l1.725 2.192a.124.124 0 0 1-.021.175.133.133 0 0 1-.077.027h-2.042a.127.127 0 0 1-.112-.069l-.718-1.425c-.014-.027-.12-.202-.286-.144-.179.063-.068.337-.066.345l.42 1.123a.125.125 0 0 1-.118.169l-2.096-.01a.125.125 0 0 1-.124-.124v-5.955c0-.069.056-.125.125-.125h1.664c.069 0 .125.056.125.125v2.617c0 .079.07.123.149.123.306-.001.337-.324.34-.334zm10.199 2.125l-.012-4.506c0-.069.056-.125.125-.125h1.736c.069 0 .125.056.125.125v5.929a.125.125 0 0 1-.125.125h-2.885c-.553-.016-.975-.207-1.268-.573-.301-.374-.451-.837-.451-1.389v-.708c.008-.561.171-1.024.488-1.389.317-.374.752-.569 1.304-.585h.326c.069 0 .125.056.125.125v2.971c.016.154.102.24.256.256.155-.017.24-.102.256-.256zm4.802-1.804h-2.057a.125.125 0 0 1-.125-.125v-1.066c0-.069.056-.125.125-.125h2.884c.283 0 .48.099.487.102.174.066.325.182.452.349.138.163.211.41.219.743l-.012 3.349a.125.125 0 0 1-.125.125h-2.983a1.48 1.48 0 0 1-1.487-1.487c.008-.423.154-.772.439-1.048.276-.276.626-.423 1.048-.439h.521c.069 0 .125.056.125.125v1.374c0 .156.102.256.256.256.158 0 .256-.099.256-.256v-1.865l-.023-.012z"/></g><path d="M329.822 213.848v1.073h-1.938v-1.073h1.938zm7.166 0v1.073h-1.938v-1.073h1.938zm-4.436 2.706c-.224 0-.256.183-.256.256v3.12h-.451c-.553-.008-.987-.199-1.304-.573-.317-.366-.479-.829-.488-1.389v-.744c0-.553.15-1.016.451-1.389.301-.366.723-.557 1.268-.573h3.01v4.57s.024.434-.171.841c-.099.207-.24.402-.451.573-.219.163-.528.248-.926.256h-1.584v-1.219l.305-.024c.187-.016.374-.069.561-.158a.47.47 0 0 0 .293-.414v-2.877c-.001 0 .006-.256-.257-.256zm-4.814.804H325.8v-.658s.001-.244-.244-.244c-.212 0-.244.171-.244.244v3.242h-1.938v-4.68h2.998c.358.008.63.118.817.329.195.203.329.443.402.719l.134.719.013.329zm9.628-2.096h2.998c.358.008.63.118.817.329.195.203.321.445.402.719.148.498.146 1.048.146 1.048v2.572h-1.938v-3.23s.016-.244-.244-.244c-.173 0-.244.088-.244.244v3.23h-1.938l.001-4.668zm-7.544 0v4.668h-1.938v-4.668h1.938zm7.166 0v4.668h-1.938v-4.668h1.938zm11.75-1.414v6.082H346.8v-6.082h1.938zm-4.181 2.73H342.5a.125.125 0 0 1-.125-.125v-1.066c0-.069.056-.125.125-.125h2.884c.282 0 .48.099.487.102.174.066.325.182.452.349.138.163.211.41.219.743l-.012 3.349a.125.125 0 0 1-.125.125h-2.981a1.48 1.48 0 0 1-1.487-1.487c.008-.423.154-.772.439-1.048.276-.276.626-.423 1.048-.439h.521c.069 0 .125.056.125.125v1.374c0 .156.102.256.256.256.158 0 .256-.099.256-.256v-1.865l-.025-.012zm-24.397-2.986h-.226a2.94 2.94 0 0 0-2.934 2.934v.482a2.94 2.94 0 0 0 2.934 2.934h.226a2.94 2.94 0 0 0 2.934-2.934v-.482a2.944 2.944 0 0 0-2.934-2.934zm.131 4.674c-.008.146-.089.228-.244.244-.146-.016-.228-.098-.244-.244v-2.998c.016-.154.098-.236.244-.244a.209.209 0 0 1 .171.073c.05.043.077.106.073.171v2.998z" fill="#cbc8c2"/><g fill="#183b67"><path d="M63.89 32.615h-2.253a.431.431 0 0 1-.43-.43V18.04c0-.236.193-.43.43-.43h2.253c.236 0 .43.193.43.43v14.146a.431.431 0 0 1-.43.429zM67.373 32.615H65.12a.431.431 0 0 1-.43-.43V18.04c0-.236.193-.43.43-.43h2.253c.236 0 .43.193.43.43v14.146a.432.432 0 0 1-.43.429zM38.859 30.337c-.778 0-.815-.611-.815-1.204v-5.131h1.219c.236 0 .43-.193.43-.43v-1.364a.431.431 0 0 0-.43-.43h-1.219v-3.072a.431.431 0 0 0-.43-.43h-2.253a.431.431 0 0 0-.43.43v3.072h-2.368a.431.431 0 0 0-.43.43v1.364c0 .236.193.43.43.43h2.368V30.059c0 1.652 1.13 2.556 2.482 2.556h3.446v-2.279c.001.001-1.222.001-2 .001z"/><path d="M46.371 21.343c-1.255 0-2.374.55-3.177 1.556V18.04a.431.431 0 0 0-.43-.43h-2.253a.431.431 0 0 0-.43.43v14.146c0 .236.193.43.43.43h2.253c.236 0 .43-.193.43-.43V25.998c0-1.125.926-1.996 2.052-1.996 1.125 0 1.807.894 1.807 1.723v6.463c0 .236.193.43.43.43h2.253c.236 0 .43-.193.43-.43v-6.033-1.041c-.001-1.534-1.294-3.771-3.795-3.771z"/><path d="M59.987 28.068h1.401c.046-.311.071-.631.071-.959 0-3.323-2.477-6.016-5.669-6.016-3.192 0-5.669 2.693-5.669 6.016s2.477 5.905 5.669 5.905c2.437 0 4.455-1.506 5.274-3.696h-2.988c-.476.699-1.286 1.139-2.384 1.139-1.165 0-2.151-1.005-2.481-2.39h6.776zm-4.294-4.419c1.061 0 1.973.834 2.377 2.028h-4.753c.403-1.194 1.315-2.028 2.376-2.028zM73.561 21.093c-3.341 0-5.933 2.693-5.933 6.016s2.592 5.905 5.933 5.905c3.341 0 5.933-2.582 5.933-5.905s-2.592-6.016-5.933-6.016zm0 9.477c-2.098 0-2.67-1.524-2.67-3.484s.738-3.549 2.67-3.549c1.931 0 2.67 1.589 2.67 3.549s-.572 3.484-2.67 3.484zM26.683 17.064c-4.243 0-7.683 3.614-7.683 8.072s3.44 8.072 7.683 8.072 7.683-3.614 7.683-8.072-3.439-8.072-7.683-8.072zm.145 13.4c-2.798 0-4.072-2.385-4.072-5.328s1.413-5.328 4.072-5.328 4.072 2.385 4.072 5.328-1.274 5.328-4.072 5.328z"/><g><path d="M83.991 37.603h-2.537a.289.289 0 0 1-.288-.288v-1.537c0-.158.129-.288.288-.288h2.537c.158 0 .288.129.288.288v1.537c0 .159-.13.288-.288.288zM70.33 37.603h-2.545a.285.285 0 0 1-.284-.284v-1.544c0-.156.128-.284.284-.284h2.545c.156 0 .284.128.284.284v1.544a.285.285 0 0 1-.284.284zM57.336 37.603h-2.572a.27.27 0 0 1-.27-.27v-1.571a.27.27 0 0 1 .27-.27h2.572a.27.27 0 0 1 .27.27v1.571a.27.27 0 0 1-.27.27zM47.634 49.83h-2.253a.431.431 0 0 1-.43-.43V35.254c0-.236.193-.43.43-.43h2.253c.236 0 .43.193.43.43V49.4c0 .236-.193.43-.43.43zM83.849 49.83h-2.253a.431.431 0 0 1-.43-.43V38.922c0-.236.193-.43.43-.43h2.253c.236 0 .43.193.43.43V49.4c0 .236-.194.43-.43.43zM70.184 49.83h-2.253a.431.431 0 0 1-.43-.43V38.922c0-.236.193-.43.43-.43h2.253c.236 0 .43.193.43.43V49.4c0 .236-.193.43-.43.43zM57.177 49.83h-2.253a.431.431 0 0 1-.43-.43V38.922c0-.236.193-.43.43-.43h2.253c.236 0 .43.193.43.43V49.4c0 .236-.194.43-.43.43z"/><path d="M53.232 47.551c-.778 0-.815-.611-.815-1.204v-5.131h1.362a.288.288 0 0 0 .287-.287v-1.65a.288.288 0 0 0-.287-.287h-1.362v-3.218a.283.283 0 0 0-.283-.283h-2.546a.283.283 0 0 0-.283.283v3.218h-2.511a.288.288 0 0 0-.287.287v1.65c0 .158.129.287.287.287h2.511V47.273c0 1.652 1.13 2.556 2.482 2.556h3.446V47.55l-2.001.001zM102.027 38.557c-1.255 0-2.374.55-3.177 1.556V38.7a.431.431 0 0 0-.43-.43h-2.253a.431.431 0 0 0-.43.43v10.7c0 .236.193.43.43.43h2.253c.236 0 .43-.193.43-.43V43.212c0-1.125.926-1.996 2.052-1.996 1.125 0 1.807.894 1.807 1.723v6.463c0 .236.193.43.43.43h2.253c.236 0 .43-.193.43-.43v-6.033-1.041c-.001-1.534-1.294-3.771-3.795-3.771zM37.841 49.542c1.255 0 2.374-.55 3.177-1.556V49.4c0 .236.193.43.43.43h2.253c.236 0 .43-.193.43-.43V38.7a.431.431 0 0 0-.43-.43h-2.253a.431.431 0 0 0-.43.43V44.888c0 1.125-.926 1.996-2.052 1.996s-1.807-.894-1.807-1.723V38.7a.431.431 0 0 0-.43-.43h-2.253a.431.431 0 0 0-.43.43v7.074c.001 1.532 1.294 3.768 3.795 3.768z"/><path d="M90.045 38.307c-3.341 0-5.933 2.693-5.933 6.016s2.592 5.905 5.933 5.905c3.341 0 5.933-2.582 5.933-5.905s-2.593-6.016-5.933-6.016zm0 9.477c-2.098 0-2.67-1.524-2.67-3.484s.738-3.549 2.67-3.549c1.931 0 2.67 1.589 2.67 3.549s-.572 3.484-2.67 3.484zM67.481 38.492h-2.253a.604.604 0 0 0-.545.43l-2.02 7.538-2.415-7.538c-.076-.236-.331-.43-.567-.43h-2.253c-.236 0-.368.193-.292.43l2.435 7.6c.021.087.044.177.069.27.862 3.215 3.023 3.038 3.023 3.038s2.162.177 3.023-3.038l2.109-7.87c.064-.236-.078-.43-.314-.43zM75.702 40.826h6.762v-2.334h-7.429a3.306 3.306 0 0 0-3.297 3.297 3.306 3.306 0 0 0 3.297 3.297h.76a1.22 1.22 0 0 1 1.204 1.204 1.22 1.22 0 0 1-1.204 1.204h-5.798v2.334h6.688a3.548 3.548 0 0 0 3.538-3.538 3.548 3.548 0 0 0-3.538-3.538h-.982a.976.976 0 0 1-.963-.963.975.975 0 0 1 .962-.963zM33.036 36.223l-.001-.006a1.543 1.543 0 0 0-1.383-1.384l-.006-.001a1.65 1.65 0 0 0-.157-.008h-.001l-.026.001c-.042.001-.084.002-.126.006-.022.002-.043.006-.065.009-.029.004-.059.008-.088.014l-.051.012c-.034.008-.068.016-.101.026l-.025.009a1.546 1.546 0 0 0-.617.376l-1.09 1.09-1.373 1.373-1.552 1.552-1.552-1.552-1.373-1.373-1.09-1.09a1.54 1.54 0 0 0-.617-.376l-.025-.009c-.033-.01-.067-.018-.101-.026l-.051-.012c-.029-.006-.059-.009-.088-.014-.022-.003-.043-.007-.065-.009a1.328 1.328 0 0 0-.126-.006l-.026-.001h-.001a1.65 1.65 0 0 0-.157.008l-.006.001a1.548 1.548 0 0 0-1.383 1.383l-.001.006a1.65 1.65 0 0 0-.008.157V49.4c0 .236.193.43.43.43h2.253c.236 0 .43-.193.43-.43v-9.257l3.085 3.085c.26.26.683.26.943 0l3.085-3.085V49.4c0 .236.193.43.43.43h2.253c.236 0 .43-.193.43-.43V36.38v-.001a1.164 1.164 0 0 0-.007-.156z"/></g></g><path d="M84.927 18.292a2.719 2.719 0 1 0 0 5.437 2.719 2.719 0 0 0 0-5.437zm0 5.043a2.325 2.325 0 1 1 0-4.65 2.325 2.325 0 0 1 0 4.65z"/><path d="M86.137 22.351h-.49l-.845-1.065h-.67v1.065h-.415V19.67h1.34c.31 0 .563.074.757.221a.699.699 0 0 1 .292.587c0 .23-.084.414-.252.55a1.06 1.06 0 0 1-.617.229l.9 1.094zm-1.13-1.359c.196 0 .357-.048.482-.145s.188-.22.188-.37c0-.153-.063-.276-.188-.37s-.286-.141-.482-.141h-.875v1.025h.875z"/><path d="M35 232.479L27.133 88.704c-.207-2.33 1.082-5.079 4.866-5.329h331.686c3.784.25 5.073 2.999 4.866 5.329l-7.867 143.775 8.209-143.836c.208-2.331-1.084-5.081-4.876-5.331H31.667c-3.792.25-5.083 3-4.876 5.331L35 232.479z" fill="#cbc8c2"/><path d="M281.519 198.896H50a4.415 4.415 0 0 1-4.403-4.403L41 98.299a4.415 4.415 0 0 1 4.403-4.403h237.569a4.415 4.415 0 0 1 4.403 4.403l-1.453 96.194a4.416 4.416 0 0 1-4.403 4.403z" fill="#e8e5df" stroke="#b8aea5" stroke-width=".25" stroke-miterlimit="10"/><path d="M350.25 135.729h-57.125c-1.902 0-3.458-1.607-3.458-3.572l.833-33.219c0-2.773 2.197-5.042 4.881-5.042h54.07c2.685 0 4.881 2.269 4.881 5.042l-1.125 33.735c.001 1.681-1.33 3.056-2.957 3.056z" fill="#e8e5df" stroke="#b8aea5" stroke-width=".254" stroke-miterlimit="10"/><path d="M346.988 198.896h-55.571a3.51 3.51 0 0 1-3.5-3.5l1.562-53.855c0-1.925 1.763-3.312 3.688-3.312h55.667a3.51 3.51 0 0 1 3.5 3.5l-1.846 53.667a3.51 3.51 0 0 1-3.5 3.5z" fill="#e8e5df" stroke="#b8aea5" stroke-width=".25" stroke-miterlimit="10"/><linearGradient id="a" gradientUnits="userSpaceOnUse" x1="303.675" y1="185.013" x2="336.575" y2="152.112"><stop offset="0" stop-color="#e2dfd8"/><stop offset="1" stop-color="#ccc9c3"/></linearGradient><circle cx="320.125" cy="168.563" r="23.264" fill="url(#a)"/><radialGradient id="b" cx="320.125" cy="168.563" r="18.611" gradientUnits="userSpaceOnUse"><stop offset="0" stop-color="#0d2f53"/><stop offset=".481" stop-color="#0d2e53"/><stop offset=".654" stop-color="#0d2d4f"/><stop offset=".777" stop-color="#0e2a4a"/><stop offset=".877" stop-color="#0d2542"/><stop offset=".962" stop-color="#0a1f39"/><stop offset="1" stop-color="#081b33"/></radialGradient><circle cx="320.125" cy="168.563" r="18.611" fill="url(#b)"/><path d="M313.087 168.563c0 .624.082 1.23.237 1.806l-.208.056c.165.614.409 1.196.721 1.734l.187-.108a7.07 7.07 0 0 0 1.11 1.444l-.153.153c.443.443.943.828 1.488 1.144l.108-.187a6.93 6.93 0 0 0 1.688.701l-.062.207a7.197 7.197 0 0 0 1.862.244v-.216h.059c.624 0 1.23-.082 1.806-.237l.056.209a7.159 7.159 0 0 0 1.734-.721l-.108-.187a7.07 7.07 0 0 0 1.444-1.11l.153.153a7.281 7.281 0 0 0 1.145-1.488l-.187-.108a6.93 6.93 0 0 0 .701-1.688l.207.062a7.197 7.197 0 0 0 .244-1.862h-.216c0-.624-.082-1.23-.237-1.806l.208-.056a7.159 7.159 0 0 0-.721-1.734l-.187.108a7.07 7.07 0 0 0-1.11-1.444l.153-.153a7.241 7.241 0 0 0-1.488-1.144l-.108.187a6.93 6.93 0 0 0-1.688-.701l.062-.207a7.197 7.197 0 0 0-1.862-.244v.216h-.059c-.624 0-1.23.082-1.806.237l-.056-.209a7.159 7.159 0 0 0-1.734.721l.108.187a7.07 7.07 0 0 0-1.444 1.11l-.153-.153a7.241 7.241 0 0 0-1.144 1.488l.187.108a6.93 6.93 0 0 0-.701 1.688l-.207-.062a7.197 7.197 0 0 0-.244 1.862h.215z" fill="#0e223b"/><radialGradient id="c" cx="320.125" cy="168.563" r="6.344" gradientUnits="userSpaceOnUse"><stop offset="0" stop-color="#0d2f53"/><stop offset=".424" stop-color="#0d2e53"/><stop offset=".61" stop-color="#0d2c4f"/><stop offset=".75" stop-color="#0e2949"/><stop offset=".867" stop-color="#0c2441"/><stop offset=".968" stop-color="#091e37"/><stop offset="1" stop-color="#081b33"/></radialGradient><circle cx="320.125" cy="168.563" r="6.344" fill="url(#c)"/><circle cx="320.125" cy="168.563" r="1.249" fill="#00264f"/><path fill="#0e0b0d" d="M127.167 17.396h138v6h-138z"/><linearGradient id="d" gradientUnits="userSpaceOnUse" x1="127.167" y1="43.063" x2="265.167" y2="43.063"><stop offset="0" stop-color="#100f19"/><stop offset=".483" stop-color="#100f18"/><stop offset=".774" stop-color="#0f0e13"/><stop offset="1" stop-color="#040006"/></linearGradient><path fill="url(#d)" d="M127.167 23.396h138v39.333h-138z"/><path fill="#0f0e14" d="M141.25 33.313h111.375v19.625H141.25z"/><path fill="#20181e" d="M146.625 51.563h21v5.125h-21zM247.25 56.687h-21v-5.125h21z"/><g fill="#cbc4bd"><path d="M286 .451h3.875v49.674H286zM293.719.451h3.875v49.674h-3.875zM301.437.451h3.875v49.674h-3.875zM309.156.451h3.875v49.674h-3.875zM316.875.451h3.875v49.674h-3.875zM324.594.451h3.875v49.674h-3.875zM332.312.451h3.875v49.674h-3.875zM340.031.451h3.875v49.674h-3.875zM347.75.451h3.875v49.674h-3.875zM355.469.451h3.875v49.674h-3.875zM363.187.451h3.875v49.674h-3.875zM370.906.451h3.875v49.674h-3.875z"/></g><g fill="#220f10"><path d="M55.563 145.363a1.24 1.24 0 0 1-1.238-1.238v-29.832a1.24 1.24 0 0 1 1.238-1.239h12.874a1.24 1.24 0 0 1 1.238 1.239v29.832a1.24 1.24 0 0 1-1.238 1.238H55.563zM259.041 145.363a1.24 1.24 0 0 1-1.238-1.238v-29.832a1.24 1.24 0 0 1 1.238-1.239h12.874a1.24 1.24 0 0 1 1.238 1.239v29.832a1.24 1.24 0 0 1-1.238 1.238h-12.874zM76.658 129.976v-16.002a.92.92 0 0 1 .92-.92h13.51a.92.92 0 0 1 .92.92v16.002a.92.92 0 0 1-.92.92h-13.51a.92.92 0 0 1-.92-.92zM99.346 129.976v-16.002a.92.92 0 0 1 .92-.92h13.51a.92.92 0 0 1 .92.92v16.002a.92.92 0 0 1-.92.92h-13.51a.92.92 0 0 1-.92-.92zM122.033 129.976v-16.002a.92.92 0 0 1 .92-.92h13.51a.92.92 0 0 1 .92.92v16.002a.92.92 0 0 1-.92.92h-13.51a.92.92 0 0 1-.92-.92zM144.72 129.976v-16.002a.92.92 0 0 1 .92-.92h13.51a.92.92 0 0 1 .92.92v16.002a.92.92 0 0 1-.92.92h-13.51a.92.92 0 0 1-.92-.92zM167.408 129.976v-16.002a.92.92 0 0 1 .92-.92h13.51a.92.92 0 0 1 .92.92v16.002a.92.92 0 0 1-.92.92h-13.51a.92.92 0 0 1-.92-.92zM190.095 129.976v-16.002a.92.92 0 0 1 .92-.92h13.51a.92.92 0 0 1 .92.92v16.002a.92.92 0 0 1-.92.92h-13.51a.92.92 0 0 1-.92-.92zM212.782 129.976v-16.002a.92.92 0 0 1 .92-.92h13.51a.92.92 0 0 1 .92.92v16.002a.92.92 0 0 1-.92.92h-13.51a.92.92 0 0 1-.92-.92zM235.47 129.976v-16.002a.92.92 0 0 1 .92-.92h13.51a.92.92 0 0 1 .92.92v16.002a.92.92 0 0 1-.92.92h-13.51a.92.92 0 0 1-.92-.92zM76.658 153.364v-16.002a.92.92 0 0 1 .92-.92h13.51a.92.92 0 0 1 .92.92v16.002a.92.92 0 0 1-.92.92h-13.51a.92.92 0 0 1-.92-.92zM99.346 153.364v-16.002a.92.92 0 0 1 .92-.92h13.51a.92.92 0 0 1 .92.92v16.002a.92.92 0 0 1-.92.92h-13.51a.92.92 0 0 1-.92-.92zM122.033 153.364v-16.002a.92.92 0 0 1 .92-.92h13.51a.92.92 0 0 1 .92.92v16.002a.92.92 0 0 1-.92.92h-13.51a.92.92 0 0 1-.92-.92zM144.72 153.364v-16.002a.92.92 0 0 1 .92-.92h13.51a.92.92 0 0 1 .92.92v16.002a.92.92 0 0 1-.92.92h-13.51a.92.92 0 0 1-.92-.92zM167.408 153.364v-16.002a.92.92 0 0 1 .92-.92h13.51a.92.92 0 0 1 .92.92v16.002a.92.92 0 0 1-.92.92h-13.51a.92.92 0 0 1-.92-.92zM190.095 153.364v-16.002a.92.92 0 0 1 .92-.92h13.51a.92.92 0 0 1 .92.92v16.002a.92.92 0 0 1-.92.92h-13.51a.92.92 0 0 1-.92-.92zM212.782 153.364v-16.002a.92.92 0 0 1 .92-.92h13.51a.92.92 0 0 1 .92.92v16.002a.92.92 0 0 1-.92.92h-13.51a.92.92 0 0 1-.92-.92zM235.47 153.364v-16.002a.92.92 0 0 1 .92-.92h13.51a.92.92 0 0 1 .92.92v16.002a.92.92 0 0 1-.92.92h-13.51a.92.92 0 0 1-.92-.92zM300.738 125.067V114.08c0-.723.586-1.309 1.309-1.309h39.907c.722 0 1.307.585 1.307 1.307v10.989c0 .722-.585 1.307-1.307 1.307h-39.908a1.307 1.307 0 0 1-1.308-1.307zM178.338 183.988c-.835 0-1.516-.68-1.516-1.516v-11.695c0-.835.68-1.515 1.516-1.515h56.898c.835 0 1.515.68 1.515 1.515v11.695c0 .835-.68 1.516-1.515 1.516h-56.898zM88.588 183.988c-.835 0-1.516-.68-1.516-1.516v-11.695c0-.835.68-1.515 1.516-1.515h56.898c.835 0 1.515.68 1.515 1.515v11.695c0 .835-.68 1.516-1.515 1.516H88.588z"/></g><g fill="#571229"><path d="M68.437 144.938H55.563a.816.816 0 0 1-.813-.813v-29.832c0-.447.366-.813.813-.813h12.874c.447 0 .813.366.813.813v29.832a.816.816 0 0 1-.813.813zM271.915 144.938h-12.874a.816.816 0 0 1-.813-.813v-29.832c0-.447.366-.813.813-.813h12.874c.447 0 .813.366.813.813v29.832a.816.816 0 0 1-.813.813zM90.979 130.661H77.688a.606.606 0 0 1-.604-.604v-16.164c0-.332.272-.604.604-.604h13.291c.332 0 .604.272.604.604v16.164a.606.606 0 0 1-.604.604zM113.667 130.661h-13.291a.606.606 0 0 1-.604-.604v-16.164c0-.332.272-.604.604-.604h13.291c.332 0 .604.272.604.604v16.164a.606.606 0 0 1-.604.604zM136.354 130.661h-13.291a.606.606 0 0 1-.604-.604v-16.164c0-.332.272-.604.604-.604h13.291c.332 0 .604.272.604.604v16.164a.606.606 0 0 1-.604.604zM159.041 130.661H145.75a.606.606 0 0 1-.604-.604v-16.164c0-.332.272-.604.604-.604h13.291c.332 0 .604.272.604.604v16.164a.605.605 0 0 1-.604.604zM181.729 130.661h-13.291a.606.606 0 0 1-.604-.604v-16.164c0-.332.272-.604.604-.604h13.291c.332 0 .604.272.604.604v16.164a.606.606 0 0 1-.604.604zM204.416 130.661h-13.291a.606.606 0 0 1-.604-.604v-16.164c0-.332.272-.604.604-.604h13.291c.332 0 .604.272.604.604v16.164a.606.606 0 0 1-.604.604zM227.103 130.661h-13.291a.606.606 0 0 1-.604-.604v-16.164c0-.332.272-.604.604-.604h13.291c.332 0 .604.272.604.604v16.164a.605.605 0 0 1-.604.604zM249.791 130.661H236.5a.606.606 0 0 1-.604-.604v-16.164c0-.332.272-.604.604-.604h13.291c.332 0 .604.272.604.604v16.164a.606.606 0 0 1-.604.604zM90.979 154.049H77.688a.606.606 0 0 1-.604-.604v-16.164c0-.332.272-.604.604-.604h13.291c.332 0 .604.272.604.604v16.164a.606.606 0 0 1-.604.604zM113.667 154.049h-13.291a.606.606 0 0 1-.604-.604v-16.164c0-.332.272-.604.604-.604h13.291c.332 0 .604.272.604.604v16.164a.606.606 0 0 1-.604.604zM136.354 154.049h-13.291a.606.606 0 0 1-.604-.604v-16.164c0-.332.272-.604.604-.604h13.291c.332 0 .604.272.604.604v16.164a.606.606 0 0 1-.604.604zM159.041 154.049H145.75a.606.606 0 0 1-.604-.604v-16.164c0-.332.272-.604.604-.604h13.291c.332 0 .604.272.604.604v16.164a.605.605 0 0 1-.604.604zM181.729 154.049h-13.291a.606.606 0 0 1-.604-.604v-16.164c0-.332.272-.604.604-.604h13.291c.332 0 .604.272.604.604v16.164a.606.606 0 0 1-.604.604zM204.416 154.049h-13.291a.606.606 0 0 1-.604-.604v-16.164c0-.332.272-.604.604-.604h13.291c.332 0 .604.272.604.604v16.164a.606.606 0 0 1-.604.604zM227.103 154.049h-13.291a.606.606 0 0 1-.604-.604v-16.164c0-.332.272-.604.604-.604h13.291c.332 0 .604.272.604.604v16.164a.605.605 0 0 1-.604.604zM249.791 154.049H236.5a.606.606 0 0 1-.604-.604v-16.164c0-.332.272-.604.604-.604h13.291c.332 0 .604.272.604.604v16.164a.606.606 0 0 1-.604.604zM342.837 114.269v10.607a.865.865 0 0 1-.863.863h-39.947a.865.865 0 0 1-.863-.863v-10.607c0-.475.388-.863.863-.863h39.947c.474 0 .863.389.863.863zM236.326 170.778v11.695c0 .6-.491 1.09-1.09 1.09h-56.898c-.6 0-1.09-.491-1.09-1.09v-11.695c0-.6.491-1.09 1.09-1.09h56.898c.6-.001 1.09.49 1.09 1.09zM146.576 170.778v11.695c0 .6-.491 1.09-1.09 1.09H88.588c-.6 0-1.09-.491-1.09-1.09v-11.695c0-.6.491-1.09 1.09-1.09h56.898c.6-.001 1.09.49 1.09 1.09z"/></g><g><path d="M83.162 123.621l-.54 1.998h-1.46l2.206-7.288h1.893l2.245 7.288H85.97l-.544-1.998h-2.264zm1.995-.988c-.417-1.53-.721-2.59-.861-3.247h-.038c-.119.658-.446 1.827-.831 3.247h1.73zM104.301 118.331h2.719c1.552 0 2.437.684 2.437 1.822 0 .939-.579 1.378-1.108 1.529.68.206 1.392.69 1.392 1.796 0 1.36-1.113 2.141-2.769 2.141h-2.671v-7.288zm2.333 2.952c1.09 0 1.417-.345 1.417-1.027 0-.668-.453-1.016-1.334-1.016h-.984v2.043h.901zm-.902 3.441h1.091c.929 0 1.453-.396 1.453-1.262 0-.828-.483-1.284-1.641-1.284h-.903v2.546zM132.513 123.529c-.042.387-.241 2.206-2.733 2.206-2.611 0-2.877-1.899-2.877-3.788 0-2.278.833-3.732 2.982-3.732 2.412 0 2.582 1.653 2.615 2.189h-1.449c-.023-.248-.058-1.217-1.189-1.217-1.2 0-1.447 1.196-1.447 2.779 0 1.431.191 2.811 1.393 2.811 1.087 0 1.205-.938 1.246-1.248h1.459zM149.595 118.331h2.323c2.33 0 3.279 1.192 3.279 3.48 0 2.466-.893 3.808-3.416 3.808h-2.186v-7.288zm1.47 6.352h.689c1.451 0 1.935-.867 1.935-2.859 0-1.765-.483-2.542-1.921-2.542h-.703v5.401zM177.149 122.291h-3.053v2.347h3.415l-.185.981h-4.671v-7.288h4.641v.996h-3.2v1.976h3.053v.988zM195.443 118.331h4.655v.996h-3.204v2.064h3.012v.981h-3.012v3.247h-1.451v-7.288zM223.307 125.615h-1.12a4.45 4.45 0 0 1-.075-.677c-.381.553-.97.797-1.869.797-1.985 0-2.634-1.449-2.634-3.731 0-2.609 1.101-3.789 3.079-3.789 2.443 0 2.586 1.644 2.614 2.078h-1.445c-.028-.282-.107-1.112-1.212-1.112-1.166 0-1.524 1.152-1.524 2.816 0 1.741.289 2.779 1.446 2.779 1.019 0 1.294-.63 1.294-1.858v-.391h-1.389v-.973h2.835v4.061zM240.42 118.331h1.46v2.948h2.53v-2.948h1.46v7.288h-1.46v-3.352h-2.53v3.352h-1.46v-7.288zM84.164 148.919v-5.794c-.241.061-.812.112-1.098.11v-.858c.647-.083 1.284-.337 1.575-.571h.959v7.113h-1.436zM104.445 148.948v-.065c.01-1.094.662-1.982 2.059-3.193 1.092-.953 1.375-1.251 1.375-1.997 0-.567-.174-1.012-.945-1.012-.761 0-1.007.472-1.043 1.227h-1.392c.014-1.088.632-2.129 2.474-2.129 1.721 0 2.381.817 2.381 1.945 0 .884-.323 1.352-1.507 2.325-.935.775-1.554 1.439-1.742 1.937h3.492l-.194.962h-4.958zM127.311 143.655c.004-.862.509-1.925 2.384-1.925 1.596 0 2.277.735 2.277 1.8 0 .883-.497 1.315-1.103 1.492v.018c.771.196 1.38.678 1.38 1.732 0 1.174-.59 2.225-2.614 2.225-1.715 0-2.426-.824-2.468-1.911h1.384c.037.508.302 1.016 1.117 1.016.888 0 1.126-.553 1.126-1.301 0-.92-.444-1.241-1.496-1.241h-.407v-.921h.382c.866 0 1.267-.228 1.267-1.038 0-.572-.191-.969-.932-.969-.828 0-.948.629-.976 1.023h-1.321zM152.922 148.905v-1.751h-3.242v-.921l2.74-4.411h1.836v4.416h.854l-.132.917h-.723v1.751h-1.333zm0-4.295c0-.711.015-1.33.047-1.903-.343.784-1.339 2.487-1.943 3.53h1.896v-1.627zM177.161 142.735h-2.842c-.05.531-.181 1.449-.227 1.792.253-.228.686-.392 1.357-.392 1.494 0 2.192.918 2.192 2.198 0 1.429-.585 2.62-2.654 2.62-1.715 0-2.414-.841-2.464-1.927h1.426c.045.476.23 1.025 1.082 1.025.929 0 1.132-.681 1.132-1.576 0-.877-.226-1.43-1.105-1.43-.681 0-.936.348-1.104.778l-1.316-.153c.164-.846.41-2.913.498-3.898h4.189l-.164.963zM198.799 143.383c-.033-.185-.112-.768-.945-.768-1.146 0-1.188 1.333-1.22 2.234.255-.33.737-.639 1.55-.639 1.327 0 2.146.779 2.146 2.24 0 1.38-.661 2.547-2.566 2.547-2.083 0-2.555-1.4-2.555-3.41 0-2.362.597-3.86 2.712-3.86 1.803 0 2.189 1.053 2.223 1.655h-1.345zm.097 3.187c0-1-.309-1.442-1.116-1.442-.829 0-1.155.5-1.155 1.232 0 .958.273 1.75 1.144 1.75.757.001 1.127-.537 1.127-1.54zM222.828 141.821v.88c-1.188 1.618-2.161 3.937-2.541 6.203h-1.517c.403-2.301 1.585-4.744 2.617-6.115h-3.3v-.969h4.741zM240.587 146.867c0-1.06.672-1.55 1.132-1.739-.539-.264-.906-.723-.906-1.497 0-1.094.816-1.897 2.388-1.897 1.437 0 2.301.685 2.301 1.811 0 .922-.45 1.378-.934 1.569.6.211 1.136.709 1.136 1.769 0 1.245-.868 2.11-2.615 2.11-1.636-.001-2.502-.833-2.502-2.126zm3.685-.016c0-.873-.37-1.256-1.137-1.256-.806 0-1.118.448-1.118 1.25 0 .757.331 1.268 1.133 1.268.781 0 1.122-.463 1.122-1.262zm-2.092-3.236c0 .704.28 1.082.983 1.082.655 0 .969-.342.969-1.059 0-.614-.273-1.032-.983-1.032-.699 0-.969.442-.969 1.009zM64.575 123.111c0 2.68-.739 3.709-2.58 3.709-1.855 0-2.571-1.104-2.571-3.712 0-2.808 1.04-3.558 2.612-3.558 1.669 0 2.539.865 2.539 3.561zm-3.706-.041c0 1.858.161 2.817 1.135 2.817.961 0 1.126-.917 1.126-2.796 0-1.938-.195-2.602-1.118-2.602-.874.001-1.143.705-1.143 2.581zM265.176 125.198c.064.284.2.724.96.724 1.172 0 1.17-1.631 1.196-2.507-.297.421-.81.593-1.463.593-1.314 0-2.168-.724-2.168-2.108 0-1.473.889-2.35 2.521-2.35 1.716 0 2.532.821 2.532 3.037 0 3.095-.656 4.237-2.69 4.237-2.125 0-2.239-1.362-2.27-1.626h1.382zm-.044-3.404c0 .825.325 1.316 1.104 1.316.729 0 1.08-.423 1.08-1.204 0-.793-.159-1.446-1.093-1.446-.734-.001-1.091.471-1.091 1.334z" fill="#470923"/><g fill="#470923"><path d="M210.539 176.976v.973h-7.503v-.973h7.503zM191.478 178.267c.079.654.443 1.209 1.36 1.209.881 0 1.251-.408 1.251-1.052 0-.656-.386-1.024-1.604-1.478-1.561-.577-2.196-1.094-2.196-2.167 0-1.112.919-1.911 2.56-1.911 2.01 0 2.52 1.075 2.547 1.992h-1.431c-.051-.395-.19-1.086-1.148-1.086-.747 0-1.073.385-1.073.91 0 .583.335.858 1.461 1.268 1.669.605 2.373 1.199 2.373 2.373 0 1.147-.887 2.057-2.783 2.057-2.064 0-2.708-1.033-2.772-2.114h1.455zM218.398 180.265v-.065c.01-1.094.662-1.982 2.059-3.193 1.092-.953 1.375-1.251 1.375-1.997 0-.567-.174-1.012-.945-1.012-.761 0-1.007.472-1.043 1.227h-1.392c.014-1.088.632-2.129 2.474-2.129 1.721 0 2.381.817 2.381 1.945 0 .884-.323 1.352-1.507 2.325-.935.775-1.554 1.439-1.742 1.937h3.492l-.194.962h-4.958z"/></g><g fill="#470923"><path d="M120.789 176.976v.973h-7.503v-.973h7.503zM103.065 178.267c.079.654.443 1.209 1.36 1.209.881 0 1.251-.408 1.251-1.052 0-.656-.386-1.024-1.604-1.478-1.561-.577-2.196-1.094-2.196-2.167 0-1.112.919-1.911 2.56-1.911 2.01 0 2.52 1.075 2.547 1.992h-1.431c-.051-.395-.19-1.086-1.148-1.086-.747 0-1.073.385-1.073.91 0 .583.335.858 1.461 1.268 1.669.605 2.373 1.199 2.373 2.373 0 1.147-.887 2.057-2.783 2.057-2.064 0-2.708-1.033-2.772-2.114h1.455zM131.027 180.265v-5.794c-.241.061-.812.112-1.098.11v-.858c.647-.083 1.284-.337 1.575-.571h.959v7.113h-1.436z"/></g><g fill="#470923"><path d="M306.731 115.922h2.686c1.524 0 2.638.721 2.638 2.121 0 1.37-1.007 2.14-2.774 2.14h-1.089v3.028h-1.46v-7.289zm1.46 3.34h.927c.998 0 1.468-.395 1.468-1.234 0-.755-.505-1.177-1.368-1.177h-1.026v2.411zM313.851 121.213l-.54 1.998h-1.46l2.205-7.288h1.893l2.245 7.288h-1.535l-.544-1.998h-2.264zm1.994-.989c-.417-1.53-.722-2.59-.861-3.247h-.037c-.119.658-.446 1.827-.831 3.247h1.729zM320.442 115.922v5.048c0 .667.229 1.404 1.332 1.404 1.083 0 1.327-.62 1.327-1.4v-5.053h1.46v5.071c0 1.314-.645 2.34-2.814 2.34-2.122 0-2.769-.964-2.769-2.325v-5.086h1.464zM327.084 121.212c.079.654.443 1.209 1.36 1.209.881 0 1.252-.408 1.252-1.052 0-.656-.387-1.024-1.604-1.478-1.561-.577-2.196-1.094-2.196-2.167 0-1.112.919-1.911 2.56-1.911 2.01 0 2.52 1.075 2.548 1.992h-1.432c-.051-.395-.189-1.086-1.147-1.086-.747 0-1.073.385-1.073.91 0 .583.335.858 1.461 1.268 1.67.605 2.373 1.199 2.373 2.373 0 1.147-.888 2.057-2.783 2.057-2.063 0-2.708-1.033-2.771-2.114h1.452zM336.907 119.882h-3.054v2.347h3.415l-.185.981h-4.671v-7.288h4.641v.996h-3.2v1.976h3.054v.988z"/></g><path d="M65.234 141.674l-2.824-1.902v3.062h-.82v-3.062l-2.824 1.902v-.982l2.698-1.814-2.698-1.805v-.982l2.824 1.903v-3.062h.82v3.062l2.824-1.903v.982l-2.697 1.805 2.697 1.814v.982zM263.317 141.243l.36-2.108h-1.137v-.635h1.261l.264-1.56h-1.191v-.635h1.315l.36-2.055h.804l-.346 2.055h1.44l.36-2.055h.817l-.347 2.055h1.137v.635h-1.261l-.25 1.56h1.191v.635h-1.315l-.36 2.108h-.832l.36-2.108h-1.44l-.36 2.108h-.83zm2.757-2.743l.264-1.56h-1.441l-.264 1.56h1.441z" fill="#470923"/></g><g fill="#b6b4b2"><path d="M323.3 144.272h-5.917l2.958-2.958zM338.378 150.86l-.262-.262a.596.596 0 0 1 0-.84l2.423-2.423a.596.596 0 0 1 .84 0l.262.262a.596.596 0 0 1 0 .84l-2.423 2.423a.596.596 0 0 1-.84 0zM302.568 150.597l-.262.262a.596.596 0 0 1-.84 0l-2.423-2.423a.596.596 0 0 1 0-.84l.262-.262a.596.596 0 0 1 .84 0l2.423 2.423a.596.596 0 0 1 0 .84zM295.98 165.675v5.917l-2.958-2.958zM302.305 186.407l.262.262a.596.596 0 0 1 0 .84l-2.423 2.423a.596.596 0 0 1-.84 0l-.262-.262a.596.596 0 0 1 0-.84l2.423-2.423a.596.596 0 0 1 .84 0zM317.383 192.995h5.917l-2.959 2.958zM338.115 186.67l.262-.262a.596.596 0 0 1 .84 0l2.423 2.423a.596.596 0 0 1 0 .84l-.262.262a.596.596 0 0 1-.84 0l-2.423-2.423a.596.596 0 0 1 0-.84zM344.703 171.592v-5.917l2.958 2.959z"/></g><g fill="#cbc8c2"><path d="M323.083 144.201h-5.916l2.958-2.958zM338.161 150.789l-.262-.262a.596.596 0 0 1 0-.84l2.423-2.423a.596.596 0 0 1 .84 0l.262.262a.596.596 0 0 1 0 .84l-2.423 2.423a.596.596 0 0 1-.84 0zM302.351 150.526l-.262.262a.596.596 0 0 1-.84 0l-2.423-2.423a.596.596 0 0 1 0-.84l.262-.262a.596.596 0 0 1 .84 0l2.423 2.423a.596.596 0 0 1 0 .84zM295.763 165.604v5.917l-2.958-2.958zM302.089 186.336l.262.262a.596.596 0 0 1 0 .84l-2.423 2.423a.596.596 0 0 1-.84 0l-.262-.262a.596.596 0 0 1 0-.84l2.423-2.423a.596.596 0 0 1 .84 0zM317.167 192.924h5.916l-2.958 2.958zM337.899 186.599l.262-.262a.596.596 0 0 1 .84 0l2.423 2.423a.596.596 0 0 1 0 .84l-.262.262a.596.596 0 0 1-.84 0l-2.423-2.423a.596.596 0 0 1 0-.84zM344.487 171.521v-5.917l2.958 2.959z"/></g><g><path d="M555.122 232.479H428.864a2.44 2.44 0 0 1-2.44-2.44V66.09a2.44 2.44 0 0 1 2.44-2.44h6.282l1.557 1.246h110.113l1.869-1.246h6.438a2.44 2.44 0 0 1 2.44 2.44v163.949a2.44 2.44 0 0 1-2.441 2.44z" fill="#20221f"/><linearGradient id="e" gradientUnits="userSpaceOnUse" x1="439.32" y1="167.252" x2="544.245" y2="62.326"><stop offset="0" stop-color="#594992"/><stop offset="1" stop-color="#2a4086"/></linearGradient><path d="M436.703 64.896v98.498c0 1.61 1.255 2.916 2.803 2.916h104.662c1.462 0 2.648-1.233 2.648-2.754v-98.66" fill="url(#e)"/><path d="M424.399 128.596h2.025v3.426h-2.025v-3.426zm0-2.842h2.025v-3.426h-2.025v3.426zm0-6.347h2.025v-3.426h-2.025v3.426zm0-6.23h2.025v-3.426h-2.025v3.426zm0-6.308h2.025v-3.426h-2.025v3.426zm0-12.42h2.025v-3.426h-2.025v3.426zm0 6.229h2.025v-3.426h-2.025v3.426zm0-11.836h2.025v-3.426h-2.025v3.426zm0-6.775h2.025V78.64h-2.025v3.427zm0-6.464h2.025v-3.426h-2.025v3.426zm133.163 56.42h2.025v-3.426h-2.025v3.426zm0-6.269h2.025v-3.426h-2.025v3.426zm0-6.347h2.025v-3.426h-2.025v3.426zm0-6.23h2.025v-3.426h-2.025v3.426zm0-6.308h2.025v-3.426h-2.025v3.426zm0-12.42h2.025v-3.426h-2.025v3.426zm0 6.229h2.025v-3.426h-2.025v3.426zm0-11.836h2.025v-3.426h-2.025v3.426zm0-6.775h2.025V78.64h-2.025v3.427zm0-6.464h2.025v-3.426h-2.025v3.426z" fill="#20221f"/><g fill="#b04449"><path d="M491.72 158.732h-1.159a.1.1 0 0 1-.099-.099v-1.168a.1.1 0 0 1 .099-.099h4.341a.1.1 0 0 1 .099.099v1.168a.1.1 0 0 1-.099.099h-1.033a.1.1 0 0 0-.099.099l.009 3.273a.1.1 0 0 1-.099.099h-1.764a.1.1 0 0 1-.099-.099v-3.274a.097.097 0 0 0-.097-.098z"/><path d="M496.078 158.415h1.949a.1.1 0 0 1 .099.099v.831a.1.1 0 0 1-.099.099h-1.526c-.096.013-.147.064-.154.154.006.096.058.148.154.154h.471s.332-.012.719.137c.185.076.348.197.473.353.141.173.215.42.221.74-.006.327-.08.577-.221.75a1.09 1.09 0 0 1-.473.353c-.005.002-.32.118-.509.118h-2.284a.1.1 0 0 1-.099-.099v-.831a.1.1 0 0 1 .099-.099h1.661c.098 0 .154-.052.154-.154 0-.098-.053-.154-.154-.154h-.48l-.204-.009c-.006 0-.249-.023-.506-.109a1.053 1.053 0 0 1-.473-.353c-.141-.179-.215-.432-.222-.759.006-.327.08-.577.222-.75.14-.171.297-.289.474-.353.005-.002.252-.118.499-.118h.209zm5.987 0a.1.1 0 0 1 .099.099v2.334c-.013.41-.154.75-.423 1.019-.275.269-.615.41-1.019.423h-.76c-.41-.013-.75-.154-1.019-.423-.269-.269-.41-.609-.423-1.019v-2.334a.1.1 0 0 1 .099-.099h1.428a.1.1 0 0 1 .099.099v2.459c.013.121.08.189.202.202.121-.013.189-.08.202-.202v-2.459a.1.1 0 0 1 .099-.099h1.416zm7.894 0a.1.1 0 0 1 .099.099v2.334c-.013.41-.154.75-.423 1.019-.275.269-.615.41-1.019.423h-.76c-.41-.013-.75-.154-1.019-.423-.269-.269-.41-.609-.423-1.019v-2.334a.1.1 0 0 1 .099-.099h1.428a.1.1 0 0 1 .099.099v2.459c.013.121.08.189.202.202.121-.013.189-.08.202-.202l-.009-2.459a.1.1 0 0 1 .099-.099h1.425z"/><path d="M504.338 159.296l.111-.815a.097.097 0 0 1 .098-.085h1.567c.077 0 .124.084.084.149l-.99 1.657a.098.098 0 0 0 .007.111l1.361 1.729a.098.098 0 0 1-.017.138.1.1 0 0 1-.06.021h-1.611a.1.1 0 0 1-.088-.054l-.566-1.124c-.011-.021-.095-.159-.226-.114-.141.05-.054.266-.052.272l.331.886a.099.099 0 0 1-.094.133l-1.653-.008a.098.098 0 0 1-.098-.098v-4.698a.1.1 0 0 1 .099-.099h1.313a.1.1 0 0 1 .099.099v2.064c0 .062.055.097.118.097.24.002.265-.253.267-.261zm8.046 1.676l-.009-3.555a.1.1 0 0 1 .099-.099h1.369a.1.1 0 0 1 .099.099v4.677a.1.1 0 0 1-.099.099h-2.276c-.436-.013-.769-.163-1-.452-.237-.295-.356-.66-.356-1.096v-.559c.006-.443.135-.808.385-1.096.25-.295.593-.449 1.029-.462h.257a.1.1 0 0 1 .099.099v2.344c.013.121.08.189.202.202.121-.012.188-.079.201-.201zm3.788-1.423h-1.623a.1.1 0 0 1-.099-.099v-.841a.1.1 0 0 1 .099-.099h2.275c.223 0 .379.078.384.08a.816.816 0 0 1 .357.275c.109.129.166.323.173.586l-.009 2.642a.1.1 0 0 1-.099.099h-2.353a1.166 1.166 0 0 1-1.173-1.173c.006-.334.121-.609.346-.827.218-.218.494-.334.827-.346h.411a.1.1 0 0 1 .099.099v1.084c0 .123.081.202.202.202.125 0 .202-.078.202-.202v-1.471l-.019-.009z"/></g><path d="M529.1 157.501v.846h-1.529v-.846h1.529zm5.653 0v.846h-1.529v-.846h1.529zm-3.499 2.135c-.177 0-.202.144-.202.202v2.461h-.356c-.436-.006-.779-.157-1.029-.452-.25-.289-.378-.654-.385-1.096v-.587c0-.436.118-.801.356-1.096.237-.289.57-.439 1-.452h2.375v3.605s.019.342-.135.663a1.279 1.279 0 0 1-.356.452c-.173.129-.417.196-.731.202h-1.25v-.962l.241-.019c.148-.013.295-.054.443-.125a.371.371 0 0 0 .231-.327v-2.27c0 .003.005-.199-.202-.199zm-3.798.634h-1.529v-.519s.001-.192-.192-.192c-.167 0-.193.135-.193.192v2.558h-1.529v-3.692h2.365c.282.006.497.093.645.26.154.16.26.349.317.567l.106.567.01.259zm7.595-1.653h2.365c.282.006.497.093.645.26.154.16.253.351.317.567.117.393.115.827.115.827v2.029h-1.529v-2.548s.013-.192-.193-.192c-.136 0-.192.069-.192.192v2.548h-1.529l.001-3.683zm-5.951 0v3.682h-1.529v-3.682h1.529zm5.653 0v3.682h-1.529v-3.682h1.529zm9.269-1.116v4.798h-1.529v-4.798h1.529zm-3.298 2.154h-1.623a.099.099 0 0 1-.099-.099v-.841a.1.1 0 0 1 .099-.099h2.275c.222 0 .379.078.384.08a.816.816 0 0 1 .357.275c.109.129.166.323.173.586l-.009 2.642a.1.1 0 0 1-.099.099h-2.352a1.166 1.166 0 0 1-1.173-1.173c.006-.334.121-.609.346-.827.218-.218.494-.334.827-.346h.411a.1.1 0 0 1 .099.099v1.084c0 .123.08.202.202.202.125 0 .202-.078.202-.202v-1.471l-.02-.009zm-19.246-2.356h-.178a2.321 2.321 0 0 0-2.315 2.315v.38a2.321 2.321 0 0 0 2.315 2.315h.178a2.321 2.321 0 0 0 2.315-2.315v-.38a2.322 2.322 0 0 0-2.315-2.315zm.103 3.688c-.006.115-.07.18-.193.192-.115-.013-.18-.077-.192-.192v-2.365c.013-.121.077-.186.192-.192a.163.163 0 0 1 .135.058.17.17 0 0 1 .058.135v2.364z" fill="#b04449"/></g></svg>