<svg xmlns="http://www.w3.org/2000/svg" viewBox="0 0 66.5 170.986"><path d="M0 161.214V9.771C0 4.397 4.397 0 9.771 0h46.957C62.103 0 66.5 4.397 66.5 9.771v151.443c0 5.374-4.397 9.771-9.771 9.771H9.771C4.397 170.986 0 166.588 0 161.214z" fill="#a4a79e"/><path d="M11.125 110.036v-.225c0-4.097 3.352-7.45 7.45-7.45h7.663c4.097 0 7.45 3.352 7.45 7.45v.225c0 4.097-3.352 7.45-7.45 7.45h-7.663c-4.098 0-7.45-3.353-7.45-7.45z" fill="#040006"/><path d="M11.915 110.028v-.21c0-3.811 3.118-6.928 6.928-6.928h7.126c3.811 0 6.928 3.118 6.928 6.928v.21c0 3.811-3.118 6.928-6.928 6.928h-7.126c-3.811 0-6.928-3.118-6.928-6.928z" fill="#333"/><path d="M11.125 140.889v-.225c0-4.097 3.352-7.45 7.45-7.45h7.663c4.097 0 7.45 3.352 7.45 7.45v.225c0 4.097-3.352 7.45-7.45 7.45h-7.663c-4.098 0-7.45-3.352-7.45-7.45z" fill="#040006"/><path d="M11.915 140.881v-.21c0-3.811 3.118-6.928 6.928-6.928h7.126c3.811 0 6.928 3.118 6.928 6.928v.21c0 3.811-3.118 6.928-6.928 6.928h-7.126c-3.811.001-6.928-3.117-6.928-6.928z" fill="#333"/><path fill="#dee1e7" d="M58.916 97.07v55.916H43.333V97.07z"/><circle cx="33.75" cy="39.402" r="21.667" fill="#040006"/><linearGradient id="a" gradientUnits="userSpaceOnUse" x1="-27.395" y1="99.547" x2="1.714" y2="70.438" gradientTransform="rotate(90 33.25 85.493)"><stop offset="0" stop-color="#373738"/><stop offset=".044" stop-color="#333334"/><stop offset=".173" stop-color="#2a292b"/><stop offset=".316" stop-color="#212122"/><stop offset=".478" stop-color="#1b1a1c"/><stop offset=".674" stop-color="#161618"/><stop offset="1" stop-color="#151517"/></linearGradient><circle cx="33.75" cy="39.402" r="20.583" fill="url(#a)"/><path d="M32.146 28.84v-7.542c0-.309.253-.563.563-.563h2.083c.309 0 .563.253.563.563v7.542a.565.565 0 0 1-.563.563h-2.083a.565.565 0 0 1-.563-.563zM23.188 41.006h-7.542a.565.565 0 0 1-.563-.563V38.36c0-.309.253-.563.563-.563h7.542c.309 0 .563.253.563.563v2.083a.565.565 0 0 1-.563.563zM35.354 49.965v7.542a.565.565 0 0 1-.563.563h-2.083a.565.565 0 0 1-.563-.563v-7.542c0-.309.253-.563.563-.563h2.083c.31 0 .563.253.563.563zM44.313 37.798h7.542c.309 0 .563.253.563.563v2.083a.565.565 0 0 1-.563.563h-7.542a.565.565 0 0 1-.563-.563v-2.083c0-.31.253-.563.563-.563z" fill="#242422" stroke="#000" stroke-width=".25" stroke-miterlimit="10"/><circle cx="33.75" cy="39.402" r="7.563" fill="#222124"/><g fill="#5f82ac"><path d="M49.493 133.27v-.994c0-.059.048-.107.107-.107h.537c.059 0 .107.048.107.107v.994a.107.107 0 0 1-.107.107H49.6a.107.107 0 0 1-.107-.107zM49.493 127.969v-.997c0-.058.047-.105.105-.105h.54c.058 0 .105.047.105.105v.997a.105.105 0 0 1-.105.105h-.54a.105.105 0 0 1-.105-.105zM49.493 122.926v-1.007a.1.1 0 0 1 .1-.1h.55a.1.1 0 0 1 .1.1v1.007a.1.1 0 0 1-.1.1h-.55a.1.1 0 0 1-.1-.1zM45.148 119.163v-.889a.16.16 0 0 1 .16-.16h5.013a.16.16 0 0 1 .16.16v.889a.16.16 0 0 1-.16.16h-5.013a.16.16 0 0 1-.16-.16zM45.148 133.218v-.889a.16.16 0 0 1 .16-.16h3.709a.16.16 0 0 1 .16.16v.889a.16.16 0 0 1-.16.16h-3.709a.162.162 0 0 1-.16-.16zM45.148 127.914v-.889a.16.16 0 0 1 .16-.16h3.709a.16.16 0 0 1 .16.16v.889a.16.16 0 0 1-.16.159h-3.709a.159.159 0 0 1-.16-.159zM45.148 122.867v-.889a.16.16 0 0 1 .16-.16h3.709a.16.16 0 0 1 .16.16v.889a.16.16 0 0 1-.16.16h-3.709a.162.162 0 0 1-.16-.16z"/><path d="M45.958 121.328c0-.302.217-.316.428-.316h1.823v.529c0 .061.046.111.102.111h.586c.056 0 .102-.05.102-.111v-.529h1.143c.055 0 .101-.049.101-.11v-.988c0-.06-.045-.11-.101-.11h-1.143v-.974c0-.061-.046-.111-.102-.111h-.586c-.056 0-.102.05-.102.111v.974h-2.152c-.587 0-.908.439-.908.963v1.337h.81c-.001.001-.001-.474-.001-.776zM49.154 140.265c0-.487-.195-.921-.553-1.233h.502c.084 0 .153-.075.153-.167v-.874c0-.092-.069-.167-.153-.167h-3.802c-.084 0-.153.075-.153.167v.874c0 .092.069.167.153.167H47.5c.4 0 .709.359.709.796 0 .437-.318.701-.612.701H45.3c-.084 0-.153.075-.153.167v.874c0 .092.069.167.153.167H47.814c.545 0 1.34-.502 1.34-1.472zM45.25 115.355c0 .487.195.921.553 1.233h-.502c-.084 0-.153.075-.153.167v.874c0 .092.069.167.153.167h3.802c.084 0 .153-.075.153-.167v-.874c0-.092-.069-.167-.153-.167h-2.199c-.4 0-.709-.359-.709-.796 0-.437.318-.701.612-.701h2.297c.084 0 .153-.075.153-.167v-.874c0-.092-.069-.167-.153-.167H46.59c-.545 0-1.34.502-1.34 1.472z"/><path d="M49.242 135.615c0-1.296-.957-2.302-2.138-2.302s-2.098 1.006-2.098 2.302c0 1.297.918 2.302 2.098 2.302 1.181 0 2.138-1.006 2.138-2.302zm-3.367 0c0-.814.541-1.036 1.238-1.036s1.261.287 1.261 1.036-.565 1.036-1.261 1.036-1.238-.222-1.238-1.036zM49.177 126.858v-.874a.23.23 0 0 0-.153-.211l-2.678-.784 2.678-.937a.248.248 0 0 0 .153-.22v-.874c0-.092-.069-.143-.153-.113l-2.7.945a2.395 2.395 0 0 0-.096.027c-1.142.334-1.079 1.173-1.079 1.173s-.063.839 1.079 1.173l2.796.818c.084.024.153-.031.153-.123zM48.347 130.049v2.624h.829v-2.883c0-.704-.527-1.28-1.172-1.28-.644 0-1.172.576-1.172 1.28v.295c0 .253-.196.467-.428.467-.232 0-.428-.214-.428-.467v-2.25h-.829v2.595c0 .755.566 1.373 1.257 1.373s1.257-.618 1.257-1.373v-.381c0-.203.157-.374.342-.374.188 0 .344.171.344.374zM49.983 113.491h.002a.53.53 0 0 0 .333-.173.626.626 0 0 0 .158-.364v-.002a.623.623 0 0 0 .003-.061v-.01a.803.803 0 0 0-.002-.049l-.003-.025a.398.398 0 0 0-.005-.034l-.004-.02-.009-.039a.598.598 0 0 0-.137-.249l-.387-.423-.488-.533-.551-.602.551-.602.488-.533.387-.423a.617.617 0 0 0 .137-.249l.009-.039.004-.02.005-.034.003-.025a.803.803 0 0 0 .002-.049v-.01a.623.623 0 0 0-.003-.061v-.002a.626.626 0 0 0-.158-.364.535.535 0 0 0-.333-.173h-.002a.525.525 0 0 0-.056-.003H45.3c-.084 0-.153.075-.153.167v.874c0 .092.069.167.153.167h3.289l-1.096 1.197a.275.275 0 0 0 0 .366l1.096 1.197H45.3c-.084 0-.153.075-.153.167v.874c0 .092.069.167.153.167h4.627l.056-.005z"/></g><g fill="#5f82ac"><path d="M51.717 130.717v-.889a.16.16 0 0 1 .16-.16h5.013a.16.16 0 0 1 .16.16v.889a.16.16 0 0 1-.16.16h-5.013a.16.16 0 0 1-.16-.16zM51.717 132.069v-.889a.16.16 0 0 1 .16-.16h5.013a.16.16 0 0 1 .16.16v.889a.16.16 0 0 1-.16.16h-5.013a.161.161 0 0 1-.16-.16zM52.527 120.996c0-.302.217-.316.428-.316h1.823v.473c0 .092.069.167.153.167h.485c.084 0 .153-.075.153-.167v-.473h1.091c.084 0 .153-.075.153-.167v-.874c0-.092-.069-.167-.153-.167h-1.091v-.919c0-.092-.069-.167-.153-.167h-.485c-.084 0-.153.075-.153.167v.919h-2.152c-.587 0-.908.439-.908.963v1.337h.81l-.001-.776z"/><path d="M55.723 123.911c0-.487-.195-.921-.553-1.233h1.727c.084 0 .153-.075.153-.167v-.874c0-.092-.069-.167-.153-.167H51.87c-.084 0-.153.075-.153.167v.874c0 .092.069.167.153.167h2.199c.4 0 .709.359.709.796 0 .437-.318.701-.612.701H51.87c-.084 0-.153.075-.153.167v.874c0 .092.069.167.153.167H54.384c.544.001 1.339-.501 1.339-1.472z"/><path d="M53.333 129.195v.544c.111.018.224.028.341.028 1.181 0 2.138-.961 2.138-2.2 0-1.239-.957-2.2-2.138-2.2s-2.098.961-2.098 2.2c0 .946.535 1.729 1.313 2.047v-1.16c-.248-.185-.405-.499-.405-.925 0-.452.357-.835.849-.963v2.629zm1.57-1.666c0 .412-.296.766-.721.922v-1.845c.425.157.721.511.721.923zM55.812 134.463c0-1.297-.957-2.302-2.138-2.302s-2.098 1.006-2.098 2.302.918 2.302 2.098 2.302c1.181.001 2.138-1.005 2.138-2.302zm-3.368 0c0-.814.541-1.036 1.238-1.036s1.261.287 1.261 1.036c0 .749-.565 1.036-1.261 1.036s-1.238-.222-1.238-1.036zM57.243 116.271c0-1.647-1.284-2.982-2.868-2.982s-2.868 1.335-2.868 2.982c0 1.647 1.284 2.982 2.868 2.982s2.868-1.335 2.868-2.982zm-4.761.056c0-1.086.848-1.58 1.893-1.58s1.893.548 1.893 1.58-.848 1.58-1.893 1.58-1.893-.494-1.893-1.58z"/></g><path d="M56.659 137.03a.56.56 0 1 0-1.119 0 .56.56 0 0 0 1.119 0zm-1.036 0a.478.478 0 1 1 .956 0 .478.478 0 0 1-.956 0z"/><path d="M55.749 137.347v-.129l.279-.222v-.176h-.279v-.109h.703v.351a.32.32 0 0 1-.058.199.185.185 0 0 1-.154.077.175.175 0 0 1-.144-.066.276.276 0 0 1-.06-.162l-.287.237zm.357-.296c0 .051.013.094.038.127a.117.117 0 0 0 .097.049c.04 0 .072-.016.097-.049s.037-.075.037-.127v-.229h-.269v.229z"/><circle cx="33.75" cy="39.402" r="3.281" fill="#1b191e"/></svg>