<svg xmlns="http://www.w3.org/2000/svg" xmlns:xlink="http://www.w3.org/1999/xlink" viewBox="0 0 170.986 85.636"><path d="M161.214 85.636H9.771C4.397 85.636 0 81.239 0 75.865V28.907c0-5.374 4.397-9.771 9.771-9.771h151.443c5.374 0 9.771 4.397 9.771 9.771v46.957c.001 5.375-4.397 9.772-9.771 9.772z" fill="#a4a79e"/><path d="M110.036 74.511h-.225c-4.097 0-7.45-3.352-7.45-7.45v-7.663c0-4.097 3.352-7.45 7.45-7.45h.225c4.097 0 7.45 3.352 7.45 7.45v7.663c0 4.098-3.353 7.45-7.45 7.45z" fill="#040006"/><path d="M110.028 73.721h-.21c-3.811 0-6.928-3.118-6.928-6.928v-7.126c0-3.811 3.118-6.928 6.928-6.928h.21c3.811 0 6.928 3.118 6.928 6.928v7.126c0 3.811-3.118 6.928-6.928 6.928z" fill="#333"/><path d="M140.889 74.511h-.225c-4.097 0-7.45-3.352-7.45-7.45v-7.663c0-4.097 3.352-7.45 7.45-7.45h.225c4.097 0 7.45 3.352 7.45 7.45v7.663c0 4.098-3.352 7.45-7.45 7.45z" fill="#040006"/><path d="M140.881 73.721h-.21c-3.811 0-6.928-3.118-6.928-6.928v-7.126c0-3.811 3.118-6.928 6.928-6.928h.21c3.811 0 6.928 3.118 6.928 6.928v7.126c.001 3.811-3.117 6.928-6.928 6.928z" fill="#333"/><path fill="#dee1e7" d="M97.069 26.719h55.917v15.583H97.069z"/><circle cx="39.402" cy="51.886" r="21.667" fill="#040006"/><linearGradient id="a" gradientUnits="userSpaceOnUse" x1="24.848" y1="66.441" x2="53.957" y2="37.331"><stop offset="0" stop-color="#373738"/><stop offset=".044" stop-color="#333334"/><stop offset=".173" stop-color="#2a292b"/><stop offset=".316" stop-color="#212122"/><stop offset=".478" stop-color="#1b1a1c"/><stop offset=".674" stop-color="#161618"/><stop offset="1" stop-color="#151517"/></linearGradient><circle cx="39.402" cy="51.886" r="20.583" fill="url(#a)"/><path d="M28.84 53.49h-7.542a.565.565 0 0 1-.563-.563v-2.083c0-.309.253-.563.563-.563h7.542c.309 0 .563.253.563.563v2.083a.565.565 0 0 1-.563.563zM41.006 62.449v7.542a.565.565 0 0 1-.563.563H38.36a.565.565 0 0 1-.563-.563v-7.542c0-.309.253-.563.563-.563h2.083c.31 0 .563.253.563.563zM49.965 50.282h7.542c.309 0 .563.253.563.563v2.083a.565.565 0 0 1-.563.563h-7.542a.565.565 0 0 1-.563-.563v-2.083c0-.31.253-.563.563-.563zM37.798 41.324v-7.542c0-.309.253-.563.563-.563h2.083c.309 0 .563.253.563.563v7.542a.565.565 0 0 1-.563.563h-2.083a.565.565 0 0 1-.563-.563z" fill="#242422" stroke="#000" stroke-width=".25" stroke-miterlimit="10"/><circle cx="39.402" cy="51.886" r="7.563" fill="#222124"/><g fill="#5f82ac"><path d="M133.27 36.143h-.994a.107.107 0 0 1-.107-.107V35.5c0-.059.048-.107.107-.107h.994c.059 0 .107.048.107.107v.537a.107.107 0 0 1-.107.106zM127.969 36.143h-.997a.105.105 0 0 1-.105-.105v-.54c0-.058.047-.105.105-.105h.997c.058 0 .105.047.105.105v.54a.105.105 0 0 1-.105.105zM122.926 36.143h-1.007a.1.1 0 0 1-.1-.1v-.55a.1.1 0 0 1 .1-.1h1.007a.1.1 0 0 1 .1.1v.55a.1.1 0 0 1-.1.1zM119.163 40.488h-.889a.16.16 0 0 1-.16-.16v-5.013a.16.16 0 0 1 .16-.16h.889a.16.16 0 0 1 .16.16v5.013a.16.16 0 0 1-.16.16zM133.218 40.488h-.889a.16.16 0 0 1-.16-.159V36.62a.16.16 0 0 1 .16-.16h.889a.16.16 0 0 1 .16.16v3.709a.162.162 0 0 1-.16.159zM127.914 40.488h-.889a.16.16 0 0 1-.16-.159V36.62a.16.16 0 0 1 .16-.16h.889a.16.16 0 0 1 .159.16v3.709a.159.159 0 0 1-.159.159zM122.867 40.488h-.889a.16.16 0 0 1-.16-.159V36.62a.16.16 0 0 1 .16-.16h.889a.16.16 0 0 1 .16.16v3.709a.162.162 0 0 1-.16.159z"/><path d="M121.328 39.678c-.302 0-.316-.217-.316-.428v-1.823h.529c.061 0 .111-.046.111-.102v-.586c0-.056-.05-.102-.111-.102h-.529v-1.143c0-.055-.049-.101-.11-.101h-.988c-.06 0-.11.045-.11.101v1.143h-.974c-.061 0-.111.046-.111.102v.586c0 .056.05.102.111.102h.974v2.152c0 .587.439.908.963.908h1.337v-.81c.001.001-.474.001-.776.001zM140.265 36.482c-.487 0-.921.195-1.233.553v-.502c0-.084-.075-.153-.167-.153h-.874c-.092 0-.167.069-.167.153v3.802c0 .084.075.153.167.153h.874c.092 0 .167-.069.167-.153v-2.199c0-.4.359-.709.796-.709.437 0 .701.318.701.612v2.297c0 .084.075.153.167.153h.874c.092 0 .167-.069.167-.153v-2.144-.37c0-.545-.502-1.34-1.472-1.34zM115.355 40.386c.487 0 .921-.195 1.233-.553v.502c0 .084.075.153.167.153h.874c.092 0 .167-.069.167-.153v-3.802c0-.084-.075-.153-.167-.153h-.874c-.092 0-.167.069-.167.153v2.199c0 .4-.359.709-.796.709-.437 0-.701-.318-.701-.612v-2.297c0-.084-.075-.153-.167-.153h-.874c-.092 0-.167.069-.167.153V39.046c0 .545.502 1.34 1.472 1.34z"/><path d="M135.615 36.394c-1.296 0-2.302.957-2.302 2.138s1.006 2.098 2.302 2.098c1.297 0 2.302-.918 2.302-2.098s-1.006-2.138-2.302-2.138zm0 3.367c-.814 0-1.036-.541-1.036-1.238s.287-1.261 1.036-1.261 1.036.565 1.036 1.261-.222 1.238-1.036 1.238zM126.858 36.459h-.874a.23.23 0 0 0-.211.153l-.784 2.678-.937-2.678a.248.248 0 0 0-.22-.153h-.874c-.092 0-.143.069-.113.153l.945 2.7.027.096c.334 1.142 1.173 1.079 1.173 1.079s.839.063 1.173-1.079l.818-2.796c.024-.084-.031-.153-.123-.153zM130.049 37.289h2.624v-.829h-2.883c-.704 0-1.28.527-1.28 1.172 0 .644.576 1.172 1.28 1.172h.295c.253 0 .467.196.467.428 0 .232-.214.428-.467.428h-2.25v.829h2.595c.755 0 1.373-.566 1.373-1.257s-.618-1.257-1.373-1.257h-.381c-.203 0-.374-.157-.374-.342 0-.187.171-.344.374-.344zM113.491 35.653v-.002a.53.53 0 0 0-.173-.333.626.626 0 0 0-.364-.158h-.002a.623.623 0 0 0-.061-.003h-.01a.803.803 0 0 0-.049.002l-.025.003a.398.398 0 0 0-.034.005l-.02.004-.039.009a.598.598 0 0 0-.249.137l-.423.387-.533.488-.602.551-.602-.551-.533-.488-.423-.387a.617.617 0 0 0-.249-.137l-.039-.009-.02-.004-.034-.005-.025-.003a.803.803 0 0 0-.049-.002h-.01a.623.623 0 0 0-.061.003h-.002a.626.626 0 0 0-.364.158.535.535 0 0 0-.173.333v.002a.525.525 0 0 0-.003.056v4.627c0 .084.075.153.167.153h.874c.092 0 .167-.069.167-.153v-3.289l1.197 1.096a.275.275 0 0 0 .366 0l1.197-1.096v3.289c0 .084.075.153.167.153h.874c.092 0 .167-.069.167-.153v-4.627l-.005-.056z"/></g><g fill="#5f82ac"><path d="M130.717 33.919h-.889a.16.16 0 0 1-.16-.16v-5.013a.16.16 0 0 1 .16-.16h.889a.16.16 0 0 1 .16.16v5.013a.16.16 0 0 1-.16.16zM132.069 33.919h-.889a.16.16 0 0 1-.16-.16v-5.013a.16.16 0 0 1 .16-.16h.889a.16.16 0 0 1 .16.16v5.013a.161.161 0 0 1-.16.16zM120.996 33.109c-.302 0-.316-.217-.316-.428v-1.823h.473c.092 0 .167-.069.167-.153v-.485c0-.084-.075-.153-.167-.153h-.473v-1.091c0-.084-.075-.153-.167-.153h-.874c-.092 0-.167.069-.167.153v1.091h-.919c-.092 0-.167.069-.167.153v.485c0 .084.075.153.167.153h.919v2.152c0 .587.439.908.963.908h1.337v-.81l-.776.001z"/><path d="M123.911 29.913c-.487 0-.921.195-1.233.553V28.74c0-.084-.075-.153-.167-.153h-.874c-.092 0-.167.069-.167.153v5.026c0 .084.075.153.167.153h.874c.092 0 .167-.069.167-.153v-2.199c0-.4.359-.709.796-.709.437 0 .701.318.701.612v2.297c0 .084.075.153.167.153h.874c.092 0 .167-.069.167-.153v-2.144-.37c.001-.545-.501-1.34-1.472-1.34z"/><path d="M129.195 32.303h.544a2.12 2.12 0 0 0 .028-.341c0-1.181-.961-2.138-2.2-2.138-1.239 0-2.2.957-2.2 2.138s.961 2.098 2.2 2.098c.946 0 1.729-.535 2.047-1.313h-1.16c-.185.248-.499.405-.925.405-.452 0-.835-.357-.963-.849h2.629zm-1.666-1.57c.412 0 .766.296.922.721h-1.845c.157-.425.511-.721.923-.721zM134.463 29.824c-1.297 0-2.302.957-2.302 2.138s1.006 2.098 2.302 2.098 2.302-.918 2.302-2.098c.001-1.18-1.005-2.138-2.302-2.138zm0 3.368c-.814 0-1.036-.541-1.036-1.238s.287-1.261 1.036-1.261c.749 0 1.036.565 1.036 1.261 0 .697-.222 1.238-1.036 1.238zM116.271 28.393c-1.647 0-2.982 1.284-2.982 2.868 0 1.584 1.335 2.868 2.982 2.868 1.647 0 2.982-1.284 2.982-2.868-.001-1.584-1.335-2.868-2.982-2.868zm.056 4.761c-1.086 0-1.58-.848-1.58-1.893s.548-1.893 1.58-1.893 1.58.848 1.58 1.893-.494 1.893-1.58 1.893z"/></g><path d="M137.03 28.977a.56.56 0 1 0 0 1.119.56.56 0 0 0 0-1.119zm0 1.036a.478.478 0 1 1 0-.956.478.478 0 0 1 0 .956z"/><path d="M137.347 29.887h-.129l-.222-.279h-.176v.279h-.109v-.703h.351a.32.32 0 0 1 .199.058c.051.039.077.09.077.154 0 .06-.022.109-.066.144a.276.276 0 0 1-.162.06l.237.287zm-.296-.356a.206.206 0 0 0 .127-.038.117.117 0 0 0 .049-.097c0-.04-.016-.072-.049-.097s-.075-.037-.127-.037h-.229v.269h.229z"/><circle cx="39.402" cy="51.886" r="3.281" fill="#1b191e"/><ellipse cx="39.402" cy="51.886" rx="1.035" ry="1.012" fill="#434547"/><ellipse cx="140.777" cy="63.23" rx="1.035" ry="1.012" fill="#434547"/><ellipse cx="109.923" cy="63.23" rx="1.035" ry="1.012" fill="#434547"/><path fill="#434547" stroke="#434547" stroke-width=".567" d="M140.762 17.593l.029 45.637M109.909 17.615l.028 45.615"/><path d="M39.388 17.178l.029 34.708" fill="#434547" stroke="#434547" stroke-width=".495"/><path d="M127.483.134h29.933c.88 0 1.594.713 1.594 1.594v14.607c0 .88-.713 1.594-1.593 1.594h-29.934c-.88 0-1.594-.713-1.594-1.594V1.728a1.594 1.594 0 0 1 1.594-1.594z" fill="#f2f1f1" fill-opacity=".8" stroke="#35485c" stroke-width=".268"/><path d="M151.436 10.479h-2.738l-.615 1.706h-.889l2.496-6.537h.754l2.5 6.537h-.884l-.624-1.706zm-2.478-.71h2.223l-1.114-3.057-1.109 3.057z" fill="#35485c"/><g transform="matrix(.99188 0 0 -.99188 305.372 39.99)"><defs><path id="b" d="M-179.781 23.437h15.38v15.38h-15.38z"/></defs><clipPath id="c"><use xlink:href="#b" overflow="visible"/></clipPath><g clip-path="url(#c)" fill="#35485c"><path d="M-167.156 29.264a2.16 2.16 0 1 0 0 4.318 2.16 2.16 0 0 0 0-4.318m-4.542 3.542a2.16 2.16 0 1 0 .001 4.319 2.16 2.16 0 0 0-.001-4.319m-.779-7.725a2.16 2.16 0 1 0 .001 4.319 2.16 2.16 0 0 0-.001-4.319m-4.487 3.632a2.16 2.16 0 0 0-.002 4.318h.002a2.159 2.159 0 0 0 0-4.318m4.903 10.23a7.803 7.803 0 1 1 7.803-7.802 7.802 7.802 0 0 1-7.803 7.802"/><path d="M-170.95 27.24a1.527 1.527 0 1 0-3.055 0 1.527 1.527 0 0 0 3.055 0m-4.406 3.632a1.609 1.609 0 1 0-1.609 1.608h.001c.888 0 1.608-.72 1.608-1.608m5.182 4.05a1.526 1.526 0 1 0-3.052-.072 1.526 1.526 0 0 0 3.052.072"/></g></g><g><path d="M92.937.134h29.933c.88 0 1.594.713 1.594 1.594v14.607c0 .88-.713 1.594-1.593 1.594H92.937c-.88 0-1.594-.713-1.594-1.594V1.728c0-.88.714-1.593 1.594-1.594z" fill="#f2f1f1" fill-opacity=".8" stroke="#35485c" stroke-width=".268"/><path d="M113.281 12.184V5.648h2.137c.709 0 1.242.147 1.598.44.359.294.539.728.539 1.302.004.292-.087.577-.26.812-.174.234-.41.415-.709.543.353.099.631.287.835.566.207.275.31.604.31.987 0 .587-.19 1.048-.57 1.383-.38.335-.917.502-1.611.502h-2.269v.001zm.862-3.056v2.352h1.423c.401 0 .717-.103.947-.31.233-.21.35-.497.35-.862 0-.787-.428-1.181-1.284-1.181l-1.436.001zm0-.692h1.302c.377 0 .678-.094.903-.283.227-.189.341-.445.341-.768 0-.359-.105-.62-.314-.781-.21-.165-.528-.247-.956-.247h-1.275l-.001 2.079z" fill="#35485c"/><g transform="matrix(1.01304 0 0 -1.01304 222.833 40.29)"><defs><path id="d" d="M-129.245 22.79h16.043v16.043h-16.043z"/></defs><clipPath id="e"><use xlink:href="#d" overflow="visible"/></clipPath><g clip-path="url(#e)" fill="#35485c"><path d="M-116.289 28.949a2.16 2.16 0 1 0 0 4.318 2.16 2.16 0 0 0 0-4.318m-4.543 3.541a2.16 2.16 0 1 0 .001 4.319 2.16 2.16 0 0 0-.001-4.319m-.778-7.724a2.16 2.16 0 1 0 .001 4.319 2.16 2.16 0 0 0-.001-4.319m-4.487 3.631a2.16 2.16 0 0 0-.002 4.318h.002a2.159 2.159 0 0 0 0-4.318m4.903 10.231a7.803 7.803 0 1 1 0-15.606 7.803 7.803 0 0 1 0 15.606"/><path d="M-114.747 31.108a1.542 1.542 0 1 0-3.084 0 1.542 1.542 0 0 0 3.084 0m-9.742-.551a1.609 1.609 0 1 0-1.609 1.608h.001a1.609 1.609 0 0 0 1.608-1.608m5.181 4.049a1.526 1.526 0 1 0-3.052-.072 1.526 1.526 0 0 0 3.052.072"/></g></g></g><g><path d="M15.251.167h48.27c.877 0 1.588.711 1.588 1.588v14.554c0 .877-.711 1.588-1.588 1.588h-48.27a1.588 1.588 0 0 1-1.588-1.588V1.754A1.59 1.59 0 0 1 15.251.167z" fill="#f2f1f1" fill-opacity=".8" stroke="#35485c" stroke-width=".333"/><path d="M23.991 16.996h-3.037c-.978 0-1.332-.797-1.332-1.333v-3.73h-3.73c-.978 0-1.333-.797-1.333-1.333V7.563c0-.978.797-1.333 1.333-1.333h3.73V2.501c0-.978.797-1.333 1.332-1.333h3.037c.978 0 1.333.797 1.333 1.333v3.73h3.729c.513 0 .92.224 1.146.632.089.16.195.475.183.7h.003V10.6c0 .978-.797 1.333-1.333 1.333h-3.73v3.73c.002.978-.796 1.333-1.331 1.333zm-8.1-10.125c-.16.003-.692.059-.692.692V10.6c.003.16.059.692.692.692h4.371v4.37c.002.16.059.693.692.693h3.036c.164-.003.693-.061.693-.693v-4.37h4.37c.161-.003.693-.06.693-.692V7.558c-.002-.123-.048-.688-.692-.688h-4.37V2.5c-.003-.16-.059-.693-.692-.693h-3.037c-.162.003-.693.06-.693.693v4.37l-4.371.001z" fill="#35485c"/><path d="M22.473 10.641c-.859 0-1.559-.7-1.559-1.559 0-.86.699-1.559 1.559-1.559a1.56 1.56 0 0 1 1.559 1.559 1.562 1.562 0 0 1-1.559 1.559zm0-2.478a.92.92 0 0 0 0 1.837.919.919 0 0 0 0-1.837z" fill="#35485c"/><g fill="#35485c"><path d="M22.473 2.527l-1.284 2.001h2.568l-1.284-2.001z"/><path d="M23.756 4.848h-2.568a.322.322 0 0 1-.27-.493l1.284-2c.118-.184.422-.184.539 0l1.284 2.001a.32.32 0 0 1-.269.492zm-1.981-.641h1.395l-.698-1.087-.697 1.087z"/></g><g fill="#35485c"><path d="M15.892 9.082l2.001 1.283V7.798l-2.001 1.284z"/><path d="M17.893 10.685a.323.323 0 0 1-.173-.051l-2.001-1.283a.32.32 0 0 1 0-.539l2.001-1.284a.321.321 0 0 1 .493.27v2.567a.319.319 0 0 1-.32.32zm-1.407-1.603l1.087.697V8.384l-1.087.698z"/></g><g fill="#35485c"><path d="M29.028 9.081l-2.001-1.284v2.567l2.001-1.283z"/><path d="M27.028 10.685a.321.321 0 0 1-.321-.321V7.798a.32.32 0 0 1 .494-.27l2.001 1.284a.32.32 0 0 1 0 .539l-2.001 1.284a.331.331 0 0 1-.173.05zm.32-2.301v1.395l1.087-.698-1.087-.697z"/></g><g fill="#35485c"><path d="M22.473 15.637l1.284-2.001h-2.568l1.284 2.001z"/><path d="M22.473 15.957a.321.321 0 0 1-.27-.148l-1.284-2a.32.32 0 0 1 .269-.494h2.568a.32.32 0 0 1 .27.494l-1.284 2.001a.322.322 0 0 1-.269.147zm-.698-2.001l.697 1.087.698-1.087h-1.395z"/></g><path d="M35.569 12.184V5.648h1.845c.569 0 1.071.126 1.508.377a2.53 2.53 0 0 1 1.01 1.073c.239.464.361.996.364 1.598v.418c0 .616-.12 1.157-.359 1.62a2.49 2.49 0 0 1-1.019 1.068c-.44.249-.953.376-1.54.382h-1.809zm.862-5.827v5.122h.907c.664 0 1.181-.207 1.549-.62.371-.413.557-1.001.557-1.764v-.381c0-.742-.175-1.318-.525-1.728-.348-.413-.841-.623-1.482-.628l-1.006-.001zm6.77 3.39H41.01v-.678h2.191v.678zm1.795-.121v2.559h-.862V5.648h2.411c.715 0 1.275.183 1.679.548.407.365.611.849.611 1.45 0 .634-.199 1.124-.597 1.468-.395.342-.962.512-1.701.512h-1.541zm0-.705h1.549c.461 0 .814-.108 1.06-.324.245-.218.368-.533.368-.943 0-.389-.123-.7-.368-.933-.245-.234-.582-.355-1.01-.364h-1.598l-.001 2.564zm7.938 1.558h-2.739l-.615 1.706h-.889l2.496-6.536h.755l2.5 6.536h-.885l-.623-1.706zm-2.479-.71h2.222l-1.114-3.057-1.108 3.057zm4.867 2.415V5.648h1.845c.569 0 1.071.126 1.508.377a2.53 2.53 0 0 1 1.01 1.073c.24.464.361.996.364 1.598v.418c0 .616-.12 1.157-.359 1.62a2.49 2.49 0 0 1-1.019 1.068c-.44.249-.953.376-1.54.382h-1.809zm.862-5.827v5.122h.907c.664 0 1.181-.207 1.549-.62.371-.413.557-1.001.557-1.764v-.381c0-.742-.175-1.318-.526-1.728-.347-.413-.841-.623-1.481-.628l-1.006-.001z" fill="#35485c"/></g></svg>