<svg xmlns="http://www.w3.org/2000/svg" viewBox="0 0 135.188 168.829"><path d="M130.723 168.829H4.465a2.44 2.44 0 0 1-2.44-2.44V2.44A2.44 2.44 0 0 1 4.465 0h6.282l1.557 1.246h110.113L124.286 0h6.438a2.44 2.44 0 0 1 2.44 2.44v163.949a2.44 2.44 0 0 1-2.441 2.44z" fill="#20221f"/><linearGradient id="a" gradientUnits="userSpaceOnUse" x1="14.921" y1="103.602" x2="119.847" y2="-1.324"><stop offset="0" stop-color="#594992"/><stop offset="1" stop-color="#2a4086"/></linearGradient><path d="M12.304 1.246v98.498c0 1.61 1.255 2.916 2.803 2.916h104.662c1.462 0 2.648-1.233 2.648-2.754V1.246" fill="url(#a)"/><path d="M0 64.946h2.025v3.426H0v-3.426zm0-2.842h2.025v-3.426H0v3.426zm0-6.347h2.025v-3.426H0v3.426zm0-6.23h2.025v-3.426H0v3.426zm0-6.307h2.025v-3.426H0v3.426zm0-12.421h2.025v-3.426H0v3.426zm0 6.23h2.025v-3.426H0v3.426zm0-11.837h2.025v-3.426H0v3.426zm0-6.775h2.025v-3.426H0v3.426zm0-6.463h2.025V8.527H0v3.427zm133.163 56.419h2.025v-3.426h-2.025v3.426zm0-6.269h2.025v-3.426h-2.025v3.426zm0-6.347h2.025v-3.426h-2.025v3.426zm0-6.23h2.025v-3.426h-2.025v3.426zm0-6.307h2.025v-3.426h-2.025v3.426zm0-12.421h2.025v-3.426h-2.025v3.426zm0 6.23h2.025v-3.426h-2.025v3.426zm0-11.837h2.025v-3.426h-2.025v3.426zm0-6.775h2.025v-3.426h-2.025v3.426zm0-6.463h2.025V8.527h-2.025v3.427z" fill="#20221f"/><g fill="#b04449"><path d="M67.321 95.082h-1.159a.1.1 0 0 1-.099-.099v-1.168a.1.1 0 0 1 .099-.099h4.341a.1.1 0 0 1 .099.099v1.168a.1.1 0 0 1-.099.099H69.47a.1.1 0 0 0-.099.099l.009 3.273a.1.1 0 0 1-.099.099h-1.764a.1.1 0 0 1-.099-.099V95.18a.097.097 0 0 0-.097-.098z"/><path d="M71.679 94.765h1.949a.1.1 0 0 1 .099.099v.831a.1.1 0 0 1-.099.099h-1.526c-.096.013-.148.064-.154.154.006.096.058.148.154.154h.471s.332-.012.719.137c.185.076.348.197.473.353.141.173.215.42.221.74-.006.327-.08.577-.221.75a1.09 1.09 0 0 1-.473.353c-.005.002-.32.118-.509.118h-2.284a.1.1 0 0 1-.099-.099v-.831a.1.1 0 0 1 .099-.099h1.661c.098 0 .154-.052.154-.154 0-.098-.053-.154-.154-.154h-.48l-.204-.009c-.006 0-.248-.023-.506-.109a1.053 1.053 0 0 1-.473-.353c-.141-.179-.215-.432-.222-.759.006-.327.08-.577.222-.75.14-.171.297-.289.474-.353.005-.002.252-.118.499-.118h.209zm5.988 0a.1.1 0 0 1 .099.099v2.334c-.013.41-.154.75-.423 1.019-.275.269-.615.41-1.019.423h-.76c-.41-.013-.75-.154-1.019-.423s-.41-.609-.423-1.019v-2.334a.1.1 0 0 1 .099-.099h1.428a.1.1 0 0 1 .099.099v2.459c.013.121.08.189.202.202.121-.013.189-.08.202-.202v-2.459a.1.1 0 0 1 .099-.099h1.416zm7.893 0a.1.1 0 0 1 .099.099v2.334c-.013.41-.154.75-.423 1.019-.275.269-.615.41-1.019.423h-.76c-.41-.013-.75-.154-1.019-.423s-.41-.609-.423-1.019v-2.334a.1.1 0 0 1 .099-.099h1.428a.1.1 0 0 1 .099.099v2.459c.013.121.08.189.202.202.121-.013.189-.08.202-.202l-.009-2.459a.1.1 0 0 1 .099-.099h1.425z"/><path d="M79.939 95.646l.111-.815a.097.097 0 0 1 .098-.085h1.567c.077 0 .124.084.084.149l-.99 1.657a.098.098 0 0 0 .007.111l1.361 1.729a.098.098 0 0 1-.017.138.1.1 0 0 1-.06.021h-1.611a.1.1 0 0 1-.088-.054l-.566-1.124c-.011-.021-.095-.159-.226-.114-.141.05-.054.266-.052.272l.331.886a.099.099 0 0 1-.093.133l-1.653-.008a.098.098 0 0 1-.098-.098v-4.698a.1.1 0 0 1 .099-.099h1.313a.1.1 0 0 1 .099.099v2.064c0 .062.055.097.118.097.24.002.264-.253.266-.261zm8.046 1.677l-.009-3.555a.1.1 0 0 1 .099-.099h1.369a.1.1 0 0 1 .099.099v4.677a.1.1 0 0 1-.099.099h-2.276c-.436-.013-.769-.163-1-.452-.237-.295-.356-.66-.356-1.096v-.559c.006-.443.135-.808.385-1.096.25-.295.593-.449 1.029-.461h.257a.1.1 0 0 1 .099.099v2.344c.013.121.08.189.202.202.121-.014.188-.081.201-.202zm3.788-1.423H90.15a.1.1 0 0 1-.099-.099v-.841a.1.1 0 0 1 .099-.099h2.275c.223 0 .379.078.384.08a.816.816 0 0 1 .357.275c.109.129.166.323.173.586l-.009 2.642a.1.1 0 0 1-.099.099h-2.353a1.166 1.166 0 0 1-1.173-1.173c.006-.334.121-.609.346-.827.218-.218.494-.334.827-.346h.411a.1.1 0 0 1 .099.099v1.084c0 .123.08.202.202.202.125 0 .202-.078.202-.202v-1.471l-.019-.009z"/></g><path d="M104.701 93.852v.846h-1.529v-.846h1.529zm5.653 0v.846h-1.529v-.846h1.529zm-3.499 2.134c-.177 0-.202.144-.202.202v2.461h-.356c-.436-.006-.779-.157-1.029-.452-.25-.289-.378-.654-.385-1.096v-.587c0-.436.118-.801.356-1.096.237-.289.57-.439 1-.452h2.375v3.605s.019.342-.135.663a1.279 1.279 0 0 1-.356.452c-.173.129-.417.196-.73.202h-1.25v-.962l.241-.019c.148-.013.295-.054.443-.125a.371.371 0 0 0 .231-.327v-2.27c-.001.003.004-.199-.203-.199zm-3.798.635h-1.529v-.519s.001-.192-.192-.192c-.167 0-.192.135-.192.192v2.558h-1.529v-3.692h2.365c.282.006.497.093.645.26.154.16.26.349.317.567l.106.567.009.259zm7.596-1.654h2.365c.282.006.497.093.645.26.154.16.253.351.317.567.117.393.115.827.115.827v2.029h-1.529v-2.548s.013-.192-.192-.192c-.136 0-.192.069-.192.192v2.548h-1.529v-3.683zm-5.952 0v3.682h-1.529v-3.682h1.529zm5.653 0v3.682h-1.529v-3.682h1.529zm9.27-1.115v4.798h-1.529v-4.798h1.529zm-3.299 2.153h-1.623a.1.1 0 0 1-.099-.099v-.841a.1.1 0 0 1 .099-.099h2.275c.222 0 .379.078.384.08a.816.816 0 0 1 .357.275c.109.129.166.323.173.586l-.009 2.642a.1.1 0 0 1-.099.099h-2.352a1.166 1.166 0 0 1-1.173-1.173c.006-.334.121-.609.346-.827.218-.218.494-.334.827-.346h.411a.1.1 0 0 1 .099.099v1.084c0 .123.08.202.202.202.125 0 .202-.078.202-.202v-1.471l-.02-.009zM97.079 93.65h-.178a2.321 2.321 0 0 0-2.315 2.315v.38a2.321 2.321 0 0 0 2.315 2.315h.178a2.321 2.321 0 0 0 2.315-2.315v-.38a2.32 2.32 0 0 0-2.315-2.315zm.104 3.687c-.006.115-.07.18-.192.192-.115-.013-.18-.077-.192-.192v-2.365c.013-.121.077-.186.192-.192a.164.164 0 0 1 .135.058.17.17 0 0 1 .058.135c-.001-.001-.001 2.364-.001 2.364z" fill="#b04449"/></svg>