<svg xmlns="http://www.w3.org/2000/svg" viewBox="0 0 30 30"><path d="M19.369 19.256c-.028.024-.083.085-.089.123-.013.074.069.043.105.027.031-.014.074-.024.101-.043.025-.019.047-.054.065-.079.022-.03.035-.062.055-.092.016-.024.04-.034.04-.066 0-.07-.102-.047-.138-.02-.059.045-.083.102-.139.15z" fill="#211915"/><path d="M12.95 20.227c.035.072.132.036.179-.004.077-.066.158-.127.235-.197.04-.036.081-.063.122-.096.022-.018.065-.074.1-.064.013.004.014.027.032.033.019.007.048-.004.064-.015a.67.67 0 0 0 .168-.18c.038-.058.04-.122.088-.174a2.24 2.24 0 0 1 .105-.111c.086-.086.174-.193.192-.32a.665.665 0 0 1 .074-.227c.034-.067.072-.162.125-.217.051-.053.129-.079.18-.13.049-.048.105-.077.155-.016.023.028.024.053.071.046.041-.007.061-.045.083-.076.112-.153.209-.331.255-.513.015-.06.042-.14.091-.182.053-.045.117-.085.175-.125.108-.076.267-.026.378.022.138.059.27.186.374.296.064.067.138.135.191.21.062.088.103.187.156.279.079.136.148.279.198.428.023.068.038.136.05.205.011.064.051.115.068.178.022.084.038.174.077.256.034.073.059.152.091.227.035.084.092.168.142.243.06.09.118.174.196.247.04.038.097.083.142.114.066.045.147.048.223.072.112.034.208.033.324.043.113.01.201.02.281.021.147.001.299.003.437-.043a.739.739 0 0 1 .305-.057.344.344 0 0 0 .196-.025c.028-.012.044-.028.074-.034.051-.01.099-.011.148-.033.136-.059.274-.116.403-.185.052-.028.081-.068.133-.091.045-.021.095-.043.13-.076.054-.05.108-.074.175-.104.032-.014.053-.037.082-.054.039-.022.084-.026.123-.051.085-.054.149-.13.235-.185a.736.736 0 0 0 .204-.197c.042-.057.078-.117.128-.164.044-.041.065-.098.096-.148a.307.307 0 0 1 .105-.098c.049-.033.088-.097.123-.142.064-.083.146-.165.188-.26a.945.945 0 0 0 .081-.374c.001-.141.041-.279.027-.424-.004-.039-.013-.066.001-.105.012-.031.035-.057.047-.088.011-.03.015-.067.022-.099a.671.671 0 0 0 .013-.232c-.014-.088-.046-.171-.058-.259-.017-.124-.011-.252-.01-.378a.74.74 0 0 0-.026-.211c-.016-.052-.029-.113-.055-.16-.053-.096-.142-.135-.2-.228a1.14 1.14 0 0 1-.06-.108c-.02-.04-.045-.077-.067-.115-.057-.099-.132-.185-.204-.274l-.091-.115c-.034-.043-.064-.091-.103-.131a1.516 1.516 0 0 0-.139-.127c-.047-.037-.102-.063-.148-.101a.802.802 0 0 1-.138-.154c-.071-.105-.164-.163-.265-.234-.093-.065-.169-.155-.259-.227-.083-.066-.175-.117-.25-.192-.048-.048-.124-.084-.139-.148a.544.544 0 0 0-.134-.266c-.027-.026-.065-.043-.094-.068-.032-.027-.057-.062-.088-.089-.055-.049-.118-.095-.175-.141a4.025 4.025 0 0 1-.099-.085c-.079-.067-.218-.122-.261-.223-.03-.071-.06-.144-.101-.21-.041-.068-.095-.111-.155-.163-.076-.065-.179-.076-.257-.138-.032-.026-.056-.055-.089-.081-.047-.036-.099-.067-.146-.103a.208.208 0 0 1-.084-.109c-.02-.058-.073-.095-.122-.126-.05-.033-.091-.073-.138-.11-.05-.04-.102-.066-.147-.111a1.08 1.08 0 0 1-.164-.21.35.35 0 0 0-.088-.103c-.139-.108-.209-.259-.295-.407-.052-.089-.023-.214-.023-.312 0-.148 0-.301.004-.45.002-.072.007-.141.007-.212 0-.123-.014-.245-.014-.368a1.69 1.69 0 0 0-.019-.257c-.005-.031-.021-.057-.027-.087-.005-.024.001-.048-.002-.072-.006-.061-.036-.118-.057-.175-.043-.118-.045-.243-.061-.366-.015-.118-.059-.23-.081-.347-.009-.051-.02-.12-.036-.169a.607.607 0 0 0-.076-.153c-.038-.058-.031-.113-.031-.18 0-.041-.016-.104.023-.131.025-.018.043-.009.065.011.044.04.08.103.106.155a.557.557 0 0 0 .057.083c.012.016.025.046.039.057.02.015.037.01.045-.014.01-.029-.014-.054-.021-.079-.008-.028-.005-.065-.009-.093a1.422 1.422 0 0 0-.038-.203c-.029-.109-.079-.214-.103-.323-.012-.052-.01-.107-.021-.158a.936.936 0 0 0-.024-.091c-.009-.031-.028-.05-.041-.079-.015-.034-.024-.071-.036-.104a2.742 2.742 0 0 0-.136-.338c-.035-.07-.059-.138-.103-.202-.028-.04-.062-.076-.088-.116a.687.687 0 0 1-.102-.305c-.003-.039.01-.085-.004-.121-.012-.032-.043-.053-.043-.091 0-.026.008-.06.018-.082.015-.034.041-.031.078-.027.029.003.049.018.068-.013.023-.037-.016-.102-.032-.138-.031-.07-.075-.132-.119-.195-.018-.026-.033-.06-.054-.083-.022-.025-.044-.041-.06-.072-.025-.048-.044-.106-.078-.149-.033-.041-.063-.077-.075-.12a.345.345 0 0 0-.048-.107c-.029-.043-.067-.079-.097-.122s-.053-.091-.081-.135c-.025-.039-.046-.084-.074-.121-.036-.047-.072-.094-.096-.147-.032-.068-.063-.134-.11-.192-.072-.091-.126-.192-.197-.285-.048-.063-.094-.119-.135-.187-.026-.044-.064-.06-.099-.096-.029-.029-.045-.038-.075-.067-.017-.017-.043-.035-.063-.049-.038-.027-.061-.076-.088-.113a.227.227 0 0 1-.042-.145c.002-.06.035-.095.096-.072a.43.43 0 0 1 .134.089c.038.037.058.087.096.12.035.031.084.075.129.041.044-.033.021-.095.005-.134a.535.535 0 0 0-.11-.17c-.024-.023-.049-.041-.069-.069-.022-.032-.037-.066-.065-.093-.054-.054-.124-.085-.186-.128a1.274 1.274 0 0 1-.178-.15c-.027-.028-.059-.052-.085-.081-.022-.025-.036-.056-.056-.083a1.021 1.021 0 0 0-.205-.22 7.837 7.837 0 0 0-.299-.203c-.061-.04-.128-.072-.182-.12-.022-.019-.044-.035-.063-.056-.019-.021-.029-.046-.048-.067-.016-.018-.037-.03-.053-.047-.04-.044-.071-.097-.115-.14-.029-.029-.065-.052-.094-.08-.076-.073-.183-.11-.267-.176-.077-.06-.175-.099-.26-.145-.074-.04-.162-.072-.23-.116-.052-.034-.082-.1-.134-.14-.053-.04-.098-.096-.155-.128-.076-.042-.147-.079-.22-.126-.076-.05-.142-.103-.228-.138a1.76 1.76 0 0 1-.18-.088c-.085-.046-.164-.109-.251-.153-.063-.031-.134-.045-.196-.078-.025-.014-.042-.034-.068-.046-.029-.013-.062-.018-.093-.028-.067-.021-.133-.052-.198-.076-.041-.015-.088-.016-.127-.037-.029-.015-.053-.035-.086-.047a.992.992 0 0 0-.366-.061c-.084 0-.157-.027-.238-.042A1.33 1.33 0 0 0 9.837.08C9.751.074 9.675.061 9.59.069c-.153.013-.303-.007-.455-.007-.128 0-.254-.002-.381-.013-.047-.005-.101-.022-.147-.018-.02.001-.042.015-.065.017-.043.003-.074-.034-.117-.039-.063-.007-.132 0-.196-.001C8.088.005 7.947 0 7.806 0a.433.433 0 0 0-.163.027c-.057.021-.109.017-.171.017-.134 0-.259.015-.391.038-.113.02-.247.012-.353.055-.037.015-.065.03-.106.037-.046.009-.095.007-.141.019-.028.008-.054.023-.082.031-.1.03-.204.062-.307.081-.08.016-.162.052-.24.078-.106.034-.198.086-.301.127l-.157.066a1.395 1.395 0 0 0-.177.089c-.088.05-.16.118-.244.174-.081.053-.152.114-.234.166-.058.037-.107.077-.16.119-.063.051-.118.111-.174.169-.039.041-.087.077-.128.116-.039.037-.068.081-.105.121-.07.076-.152.14-.233.202l-.268.202a1.995 1.995 0 0 0-.236.196c-.156.156-.282.338-.414.513-.07.093-.14.184-.189.29a1.274 1.274 0 0 1-.208.342c-.041.046-.091.086-.135.13a4.093 4.093 0 0 0-.169.182c-.037.043-.08.08-.105.134-.024.05-.02.11-.032.165a.317.317 0 0 1-.064.13c-.073.096-.147.194-.224.286-.076.09-.17.161-.26.236-.027.021-.046.048-.069.075-.037.043-.08.083-.116.128-.062.076-.102.172-.154.256-.058.093-.087.196-.14.289-.031.055-.054.112-.085.165-.036.062-.09.112-.12.179-.027.06-.053.132-.069.196-.019.072-.025.139.06.153.03.005.064.001.095.001.021 0 .081-.013.099.001.05.039-.051.185-.076.226-.042.07-.081.142-.113.217-.046.104-.069.215-.105.322-.018.053-.037.106-.052.157-.016.056-.05.107-.076.158-.078.155-.12.315-.15.486-.006.038-.005.082-.015.119-.011.04-.039.077-.06.112-.035.062-.075.124-.103.189-.034.076-.013.161-.03.237-.012.054-.051.099-.07.152-.028.077-.03.166-.063.242-.025.054-.053.106-.067.165-.016.067-.026.131-.05.195-.029.08-.04.156-.056.238-.015.079-.062.146-.047.23.011.06.083.032.119.006.04-.029.064-.079.124-.064.078.018.055.145.042.201-.014.06-.02.123-.038.182a1.174 1.174 0 0 0-.066.326c-.001.076.01.16-.008.234-.012.049-.027.097-.039.146-.015.061-.013.125-.023.186-.016.102-.038.208-.047.31-.007.075-.018.151-.027.226-.004.032-.011.078-.006.111.003.021.018.039.023.059.008.039 0 .084.001.125.004.079.049.146.133.157.041.005.037-.017.065-.04.026-.022.047-.029.06.004.01.026.006.064.006.092.001.047.01.091.014.138.021.269-.031.539.009.809.021.14-.018.301.046.43.03.06.028.124.043.186.004.015.008.033.016.047.014.022.04.024.057.042.051.056.015.161.1.192.063.023.078-.053.097-.096.098-.032.041.218.044.263.004.057.042.099.063.149.022.052.042.11.06.164.03.091.028.205.028.3 0 .147.051.294.054.441.003.113.034.225.064.333.011.041.004.089.009.131.007.068.017.135.017.203 0 .075.015.125.039.194.028.081.027.166.067.244.033.064.057.149.116.194.037.028.076.043.107.08a.678.678 0 0 1 .095.148c.032.07.036.151.054.225.019.078.048.151.07.227.026.091.067.177.09.27.013.052.034.098.044.15.01.051.035.087.057.132.05.103.112.204.156.31.02.049.042.098.067.147.015.029.018.068.036.095.044.069.089.006.092-.047.004-.085.01-.169.003-.253a2.83 2.83 0 0 0-.015-.161c-.004-.032-.006-.049.019-.071.052-.045.148.018.188.059.054.055.083.138.122.204.055.092.106.189.133.293.023.088.075.165.114.247.024.052.047.106.075.156.045.079.089.157.124.241.027.064.093.079.14.127.032.032.055.075.079.113.033.052.076.093.102.15.031.069.061.136.1.201.032.055.049.126.087.176.041.054.168.12.235.079.021-.013.018-.028.049-.031.037-.004.071.019.092.049.031.045.008.115.052.152.025.022.064.014.095.017a.153.153 0 0 1 .122.067c.07.093.146.162.17.279a.289.289 0 0 0 .052.109c.038.049.095.055.143.086.065.041.09.118.147.165.061.05.133.095.189.15.034.034.057.078.095.109.045.037.124.092.137 0 .01-.067-.01-.133 0-.199.004-.026-.006-.078.008-.102.023-.038.055-.002.074.023.029.039.025.076.037.12.014.048.05.113.083.151.076.087.228.08.317.147.147.11.317.187.475.282.071.043.138.06.19.121.053.062.119.105.184.151.037.027.042.05.068.082.042.051.091.011.125-.031.047-.058.066-.1.137-.028.039.039.044.083.055.139.009.046.011.095.028.14.016.041.043.078.052.121.015.069.042.138.054.207.02.122.058.241.083.361.006.028.023.053.031.081.02.071.022.153.024.226.002.11.001.217.007.326.009.158.001.32 0 .479 0 .05-.015.097-.023.144-.01.057-.003.113-.022.166-.044.12-.028.253-.03.378 0 .041-.016.077-.022.117-.011.067-.01.137-.017.206-.01.089-.022.173-.022.263 0 .13.022.258.028.386.001.033.004.066.003.099-.002.083-.053.16-.07.24-.019.089-.028.186-.038.276-.012.1-.032.201-.039.302-.004.065.004.132-.007.195-.01.056-.033.107-.04.165a.5.5 0 0 1-.033.145c-.027.063-.047.131-.074.195-.024.056-.068.105-.102.151-.111.144-.286.174-.445.22-.055.016-.107.044-.161.066-.075.03-.147.047-.225.062-.076.014-.135.048-.202.08-.071.033-.12.087-.182.131-.05.036-.11.071-.155.115-.043.043-.095.095-.109.154-.018.077.041.144.087.2a.415.415 0 0 0 .146.12c.066.034.147.053.206.095.047.034.08.088.128.118.054.034.131.036.191.053l.254.073c.069.02.128.054.195.078.063.022.122.058.188.075a.84.84 0 0 1 .114.037c.045.019.091.027.132.054.041.027.084.041.13.056a.92.92 0 0 1 .112.048c.041.02.084.025.126.043.034.015.06.034.087.059.059.055.106.12.167.176.029.027.06.044.094.064.028.016.043.035.068.056.037.03.084.048.125.071.085.047.261.12.261.12s.134.073.186.095c.11.047.21.111.325.15.149.05.292.075.429.156.035.021.073.036.107.058.037.02.085.039.115.066.04.037.067.055.114.088.03.021.062.042.09.066.029.025.08.05.114.067.068.034.109.062.183.075.04.007.077.022.12.024.1.005.197.013.289-.025.084-.035.181-.102.213-.191.038-.108.029-.222.035-.334.006-.11-.058-.179-.137-.246a1.04 1.04 0 0 0-.144-.102c-.034-.02-.106-.067-.057-.11.083-.074.259.113.308.165.043.046.064.104.103.153a.646.646 0 0 1 .102.205c.015.05.022.114.051.158.044.066.143.048.213.051.195.008.371-.149.453-.315a.502.502 0 0 0 .059-.248.691.691 0 0 0-.017-.144c-.012-.055-.067-.115-.107-.151a.798.798 0 0 0-.194-.126c-.033-.016-.11-.072-.037-.096.041-.013.102.013.136.03.035.017.057.041.091.059.071.038.102.096.156.153.049.05.068.101.081.172.005.025.006.047.03.062.038.024.129.011.166-.015.017-.012.03-.032.046-.044.02-.016.045-.026.062-.045a.25.25 0 0 0 .062-.131c.012-.089.017-.2.004-.289-.012-.081-.068-.146-.114-.208a.827.827 0 0 0-.18-.17c-.039-.029-.072-.058-.117-.074-.048-.017-.1-.027-.146-.046a.925.925 0 0 0-.61-.014c-.105.037-.208.066-.31.116-.093.046-.198.101-.303.104-.032.001-.056-.013-.085-.025-.057-.023-.111-.053-.169-.076-.059-.023-.119-.034-.18-.048-.08-.019-.159-.031-.24-.049-.091-.02-.18-.051-.272-.066-.092-.015-.188-.029-.274-.062-.074-.029-.144-.069-.214-.107-.084-.045-.161-.078-.235-.139-.034-.028-.056-.063-.082-.098-.037-.05-.088-.09-.122-.142-.026-.04-.046-.083-.068-.125-.009-.017-.018-.039-.029-.055-.02-.031-.052-.048-.072-.079-.021-.032-.027-.068-.039-.103-.018-.052-.051-.091-.076-.139a.981.981 0 0 1-.066-.179.887.887 0 0 1-.033-.153c-.005-.063-.001-.126-.017-.188-.025-.101-.022-.21-.022-.314 0-.1.013-.187.05-.28.031-.08.026-.17.053-.252.026-.079.052-.156.052-.241 0-.075.009-.146.03-.217.017-.058.038-.117.045-.177.011-.096.036-.185.053-.281.014-.08.012-.161.012-.243 0-.092 0-.183-.003-.274a.562.562 0 0 1 .042-.257c.044-.105.096-.198.114-.313.009-.055.032-.102.043-.156.014-.068.03-.135.046-.203a.65.65 0 0 0 .015-.159c0-.088.003-.179.012-.267.015-.141.009-.285.019-.426.005-.077.014-.149.014-.227 0-.075.005-.145.017-.219.008-.048.001-.097.007-.145.005-.038.023-.073.03-.109.005-.027-.013-.056-.004-.082.011-.033.058-.058.087-.075.042-.025.098-.022.146-.025.061-.003.124-.003.184-.013.07-.012.133-.044.199-.059.047-.011.1-.007.147-.021.038-.011.075-.031.111-.047.1-.044.206-.078.311-.111.098-.031.203-.075.307-.078.101-.003.201-.021.303-.02h.443c.154 0 .288-.05.437-.08.078-.016.152-.047.23-.063.081-.016.158-.025.237-.051.056-.019.133-.026.182-.06a.49.49 0 0 1 .153-.077l.059-.012c.025-.005.046-.021.069-.027.035-.01.044.011.076-.017.016-.014.04-.055.065-.055.04.001.022.043.009.061a.114.114 0 0 0-.026.079c0 .027.003.052-.016.073-.014.015-.038.024-.055.04-.02.019-.042.041-.073.038-.012-.001-.023-.012-.037-.014-.024-.004-.053-.005-.072.01-.031.025-.014.047.006.065.029.026.022.042.025.082.036.018.045-.003.074-.021.026-.016.055-.014.086-.012-.009.018-.033.024-.05.038a.156.156 0 0 0-.038.054c-.03.06-.055.124-.1.175a.32.32 0 0 1-.064.058c-.027.016-.06.017-.086.038-.037.03-.027.092-.027.137a.35.35 0 0 0 .025.137c.015.037.027.073.044.11.037.08.028.165.046.25.014.064.025.131.032.196.013.111.021.224.037.335.015.103.025.211.048.311.014.062.038.117.045.182.005.044.012.088.015.131.01.105.015.211.024.315.006.076.018.148.021.224.004.106.014.212.016.319.002.122.005.244.005.365 0 .119.002.242-.015.36-.009.057-.03.11-.038.167-.008.051-.005.104-.008.155-.004.093-.003.221-.08.288a.827.827 0 0 1-.177.109c-.055.028-.12.065-.179.082a.666.666 0 0 0-.19.096 1.313 1.313 0 0 0-.2.154c-.044.043-.101.066-.15.1-.056.04-.118.078-.155.139-.028.045-.029.113-.022.167.019.147.166.22.291.257.08.024.164.024.243.05.059.019.124.024.181.045.04.015.08.031.121.045.071.025.142.03.214.048.059.015.114.042.172.059.053.016.109.016.16.032.062.019.116.031.17.067a.544.544 0 0 0 .156.063c.059.016.103.039.157.065.076.037.151.093.23.12.11.037.204.14.284.22.076.076.088.18.163.257a.27.27 0 0 0 .126.078c.061.021.116.057.179.077.084.026.16.026.246.035.093.01.183.024.278.024.117 0 .233-.018.333.053.063.045.13.084.181.143.045.052.092.111.158.138.06.024.142.043.206.046.08.004.166.011.245.007a.42.42 0 0 0 .29-.164c.038-.048.1-.098.12-.158.012-.036.014-.08.018-.116.005-.048.012-.095.01-.145-.003-.067-.023-.136-.034-.202a.617.617 0 0 0-.065-.215c-.038-.071-.069-.125-.141-.165-.057-.033-.116-.05-.172-.08-.058-.03-.029-.086.025-.094a.514.514 0 0 1 .262.052.475.475 0 0 1 .188.145.882.882 0 0 1 .166.32c.017.06.02.125.02.186 0 .048.005.101.005.15 0 .062-.016.104.031.148.073.069.266.082.359.051.055-.018.108-.02.158-.048.05-.029.071-.058.111-.099a.397.397 0 0 0 .115-.257.503.503 0 0 0-.048-.274.354.354 0 0 0-.184-.185c-.081-.039-.165-.071-.247-.106-.045-.019-.106-.054-.076-.11.024-.045.094-.041.138-.044a.389.389 0 0 1 .26.086c.057.041.101.098.143.15.033.041.058.088.09.13.049.063.074.152.134.205.115.101.164-.176.174-.236.018-.104.017-.322-.008-.362a.57.57 0 0 0-.147-.172c-.06-.047-.111-.092-.187-.107s-.164-.01-.243-.007a1.866 1.866 0 0 0-.374.056c-.109.027-.218.081-.331.085-.168.006-.338 0-.506 0-.179 0-.348-.04-.523-.069a2.824 2.824 0 0 1-.243-.049c-.076-.019-.149-.051-.224-.072-.078-.022-.149-.068-.228-.09-.119-.033-.248-.068-.358-.132-.06-.035-.109-.086-.173-.119-.065-.033-.132-.063-.193-.104-.095-.064-.181-.141-.266-.217-.066-.058-.098-.148-.151-.216a.877.877 0 0 1-.194-.521c0-.081 0-.157-.023-.234-.035-.12-.033-.26-.035-.384-.002-.098-.002-.202-.012-.3-.005-.05.001-.101-.003-.151-.005-.062-.012-.124-.012-.187 0-.058 0-.116.003-.173.003-.082.027-.16.032-.242.003-.047-.002-.096 0-.143.001-.047.016-.092.029-.137.017-.062.008-.123.021-.185.014-.069.055-.129.075-.196.024-.081.006-.181.008-.264.002-.099-.016-.197-.016-.297 0-.111-.002-.221.014-.331.02-.138.011-.277.031-.414.016-.112.007-.231.007-.345 0-.168-.007-.335-.014-.503-.003-.076-.004-.17.036-.238.035-.071.124-.14.208-.133z" fill="#da9500"/><path d="M18.509 18.931c.024-.274.174-.452.087-.539-.087-.087-.221.334-.236.404-.019.089-.082.241-.057.307a.514.514 0 0 1 .031.117c.056-.009.119-.038.181-.06-.003-.076-.013-.146-.006-.229zM20.719 18.703c-.146.226-.086-.102-.074-.169.023-.119-.065-.207-.163-.108-.058.058-.079.173-.104.245-.017.049-.016.082-.056.122-.04.04-.052.063-.022.114.047.081-.075.144-.149.201-.083.063-.132.158-.212.218-.057.043-.181.097-.235.059-.017-.012-.014-.035-.002-.063-.016-.001-.03-.011-.035-.036-.005-.024-.007-.046-.013-.069a.117.117 0 0 1 .006-.078c.02-.047.034-.097.071-.135.033-.034.075-.064.111-.097.045-.043.042-.075.055-.131.007-.03.052-.145.078-.062.01.032-.006.071-.01.103a.388.388 0 0 0-.002.034c.044-.035.09-.071.126-.127.045-.068.055-.204.077-.281.048-.168.177-.312.204-.458.01-.054 0-.118.024-.167.019-.039.098-.097.058-.137-.036-.035-.196-.011-.223.052-.018.043-.036.087-.059.13-.021.041-.043.076-.064.117-.041.082-.057.15-.097.232-.072.149-.347.415-.383.379-.032-.032.092-.054.12-.177.017-.078.012-.138.008-.21-.002-.038.035-.121.007-.151-.048-.052-.067.032-.087.056-.069.083-.173.05-.269.074-.087.021-.132.099-.19.166a6.545 6.545 0 0 1-.161.181c-.029.031-.039.05-.068.075-.029.025-.075.05-.092.085-.04.083.001.237-.023.327-.024.091-.101.096-.162.138l.022.016c.03.026.029.063.071.079a.11.11 0 0 0 .117-.02c.069-.053.094-.121.145-.185.006-.007.028-.034.039-.034.031-.001.012.019.03.028.043.021.046-.001.079-.029.03-.025.067-.04.092-.073.021-.028.04-.081.086-.078.051.004.077.126.077.169 0 .045-.01.039-.05.055a.149.149 0 0 0-.07.045c-.083.102-.16.242-.309.251a.319.319 0 0 0-.202.082c-.062.049-.146.029-.218.063-.062.029-.107.086-.036.133a.197.197 0 0 0 .101.037c.039.003.096-.015.124.017.02.023.01.061.026.088.018.029.047.041.078.05.057.018.148.05.2.008.033-.026.037-.04.085-.054.071-.02.148-.034.222-.041.08-.008.175-.03.232-.096.049-.056.06-.12.151-.114.043.003.082.026.128.027.056.002.088-.017.132-.044.065-.041.145-.055.196-.115.051-.059.108-.079.168-.129.148-.124.225-.314.338-.466a.458.458 0 0 0 .069-.29c-.042.051-.081.118-.113.168zM19.249 14.666c-.066.015-.131.005-.181.059-.037.04-.074.102-.042.157a.2.2 0 0 0 .155.099c.039.002.088.006.127 0 .032-.005.053-.019.085-.021.054-.003.153.022.191-.01a.51.51 0 0 0 .092-.1c.03-.043.071-.087.027-.135-.04-.045-.097-.04-.15-.035-.081.008-.183-.062-.267-.031l-.037.017zM15.207 4.622a.624.624 0 0 0 .085.099.21.21 0 0 1 .055.074.2.2 0 0 0 .048.063c.019.015.044.024.063.036.019.012.035.028.055.038-.005-.017-.024-.027-.034-.041-.015-.02-.019-.041-.026-.065a.27.27 0 0 0-.079-.123c-.047-.047-.071-.11-.127-.149-.051-.036-.115-.048-.168-.079.014.059.094.1.128.147zM11.802 15.729c.02.032.038.037.074.039.061.003.082-.014.111-.06.035-.055.059-.132.028-.195-.031-.065-.147-.107-.197-.04-.024.032-.019.078-.021.116-.001.044-.021.098.005.14zM12.429 17.655c-.006.063.008.118.084.101.061-.013.124-.08.167-.124.049-.051.149-.078.169-.156.016-.063-.066-.149-.123-.158-.067-.011-.145.054-.194.096-.082.071-.094.139-.103.241zM11.589 17.787a1.829 1.829 0 0 1-.196.091c-.094.036-.164.093-.183.194-.005.027-.014.071.006.094.019.022.05.017.078.017.066 0 .107-.033.164-.059.056-.026.116-.048.173-.073.126-.056.265-.121.372-.21.03-.025.058-.051.088-.075.025-.02.07-.064.079-.099.015-.062-.023-.093-.075-.106a.26.26 0 0 0-.205.032c-.105.058-.195.14-.301.194zM9.847 18.685c-.028.008-.053.022-.079.033-.033.014-.074.016-.104.033-.054.029-.09.113-.081.174.036.238.406.082.538.024.047-.021.082-.039.133-.045.044-.005.081-.009.121-.029.056-.029.131-.085.129-.156-.001-.048-.044-.101-.086-.116a.458.458 0 0 0-.279-.001c-.097.034-.193.054-.292.083zM10.504 17.558a.803.803 0 0 0-.253.041c-.077.023-.161.033-.24.052-.103.025-.208.036-.212.163-.003.124.175.134.266.147a.638.638 0 0 0 .285-.014c.073-.024.146-.045.22-.07.06-.02.116-.051.177-.071a.915.915 0 0 0 .205-.085c.047-.027.182-.129.094-.174a.573.573 0 0 0-.261-.033c-.055.003-.113.003-.166.016-.024.006-.047.013-.071.015l-.044.013zM9.203 18.061c-.057 0-.109-.008-.158.024-.042.028-.053.067-.048.115.014.135.174.186.289.186.077 0 .145 0 .218.021.05.014.117.025.169.027.044.002.087-.022.121-.045.042-.029.066-.026.117-.033.11-.015.206-.125.298-.178.039-.022.081-.026.102-.068.019-.037.016-.068-.024-.082-.038-.012-.087-.01-.126-.011-.063-.002-.131-.006-.191.007-.254.054-.508.037-.767.037zM8.12 18.202c.037 0 .102.004.131-.025.065-.064-.005-.156-.068-.181a.63.63 0 0 0-.301-.047c-.114.016-.165.151-.062.223.032.023.067.017.105.016.065 0 .13.014.195.014zM8.727 18.961c-.19 0-.38-.005-.567-.021-.028-.002-.056-.001-.083-.009-.021-.006-.039-.023-.059-.028a.194.194 0 0 0-.133.022c-.074.04-.098.148-.024.201a.52.52 0 0 0 .189.092c.093.016.19.01.285.01.077 0 .144.007.219.015.066.007.131.019.198.019.056 0 .107-.009.161-.014.107-.011.214-.014.321-.025.059-.006.158-.014.194-.07.038-.058-.02-.162-.079-.187-.048-.02-.124-.018-.173-.019-.092-.001-.184.005-.274.01-.037.002-.086-.006-.12.007l-.055-.003zM6.959 18.729a.673.673 0 0 1 .177.054c.051.025.077.058.137.062a.229.229 0 0 0 .18-.073c.034-.041.063-.124.028-.171-.035-.047-.129-.066-.181-.088-.087-.036-.163-.097-.25-.132a.87.87 0 0 0-.212-.054c-.062-.007-.127.011-.162.068-.043.071-.031.168.042.209.082.046.146.11.241.125zM6.21 17.529c-.081-.076-.139-.157-.234-.217-.041-.026-.09-.042-.134-.062a.467.467 0 0 0-.137-.044c-.049-.005-.087.015-.099.065-.014.059.012.115.038.167.044.087.122.139.195.199.163.137.327.282.502.406.086.061.185.101.267.165a.422.422 0 0 0 .311.056c.072-.018.112-.07.099-.145-.01-.064-.074-.112-.127-.144-.128-.076-.273-.084-.378-.198-.088-.098-.207-.158-.303-.248z" fill="#ac5d4d"/><path d="M5.976 16.898a.344.344 0 0 0-.216-.065c-.07.003-.089.043-.089.11 0 .092.071.202.166.279.099.079.212.142.321.199.086.045.134.137.232.171.102.035.26.06.273-.086.007-.084-.027-.142-.086-.197-.044-.041-.105-.051-.155-.082-.045-.028-.08-.07-.124-.1-.108-.076-.212-.156-.322-.229zM4.769 17.365c-.024-.017-.041-.035-.072-.037-.037-.002-.054.018-.073.044-.018.024-.042.046-.05.076a.266.266 0 0 0 .017.16c.03.067.095.114.112.186.008.035.014.074.048.093.061.034.135.018.168-.046.076-.147-.025-.388-.15-.476zM5.906 17.852c-.055-.04-.117-.068-.17-.113-.048-.041-.071-.099-.119-.142-.068-.06-.134-.118-.2-.182-.122-.117-.232-.247-.346-.37-.08-.086-.135-.216-.267-.214-.061.001-.106.046-.127.1-.029.075.002.155.046.219.076.11.185.196.266.303a.967.967 0 0 1 .079.121c.033.062.081.107.125.161.051.063.116.114.159.181.037.059.066.122.105.18.035.054.077.091.105.15.049.102.118.134.212.19.104.062.099.17.142.276a.73.73 0 0 0 .123.203c.049.054.108.053.163.092.053.038.088.108.138.146.056.042.128.031.19.057.062.026.126.055.188.084.054.025.111.047.164.072.117.056.221.126.356.137a.387.387 0 0 1 .174.041.559.559 0 0 0 .215.072c.096.011.204.036.264-.052.072-.107-.026-.193-.113-.239a5.214 5.214 0 0 1-.381-.216c-.109-.07-.251-.094-.369-.133-.111-.036-.228-.049-.339-.087-.118-.041-.255-.044-.363-.106a.376.376 0 0 1-.165-.223c-.016-.078-.015-.156-.072-.22-.029-.033-.06-.04-.061-.086 0-.037.024-.051.047-.077.043-.049.074-.153.021-.205-.02-.02-.054-.028-.079-.041-.04-.021-.074-.052-.111-.079z" fill="#ac5d4d"/><path d="M8.319 19.519c.119 0 .242.01.36.001.081-.006.147-.051.227-.051.093 0 .181-.014.272-.014.081 0 .135.019.208.052.07.031.138.102.085.181a.352.352 0 0 1-.239.146 1.153 1.153 0 0 1-.196.013c-.098 0-.184.036-.283.036-.073 0-.137.015-.206.027-.073.012-.143-.015-.216-.023-.172-.017-.337.001-.423-.169-.02-.039-.058-.086-.05-.133.007-.041.037-.057.076-.075.103-.048.214.015.321.011l.064-.002zM.633 9.91c.1.077.204-.07.216-.159.021-.157.006-.326.013-.484a.535.535 0 0 1 .03-.174c.026-.069.052-.131.052-.207.001-.056-.001-.112.001-.167.002-.042.02-.113-.016-.146-.063-.058-.133.026-.162.076-.117.202-.14.437-.152.666a2.852 2.852 0 0 1-.028.306c-.012.078-.027.233.046.289zM.292 9.119c-.008-.136.045-.258.055-.39.008-.099.021-.193.043-.292.019-.085.008-.236.134-.222.07.008.114.034.119.1.003.051-.011.142-.018.192-.01.079-.018.16-.037.237-.029.116-.043.236-.068.352-.036.164-.016.315-.014.479.001.09-.007.163-.061.235-.037.049-.126.064-.176.024C.176 9.76.247 9.61.26 9.512c.015-.112.027-.224.027-.338l.005-.055zM1.288 7.125c-.022.064-.059.12-.078.186-.045.16-.044.326-.079.488-.025.116-.069.234-.074.354-.002.055-.027.172.025.212.031.024.059.003.08-.022.056-.065.049-.169.061-.251a.69.69 0 0 1 .059-.178c.02-.046.052-.078.081-.12.017-.024.042-.059.033-.09-.008-.027-.039-.035-.05-.064-.044-.11.049-.249.068-.355.017-.097.054-.18.06-.281.003-.053.001-.118.014-.168.01-.04.038-.07.041-.113.006-.09-.086-.043-.109.014-.053.128-.088.259-.132.388zM1.975 10.442c.007.135 0 .258-.011.392a2.32 2.32 0 0 0-.006.289c.003.078.022.141.022.217 0 .066.002.131.023.192.014.04.02.101.044.137.024.037.092.053.126.023.035-.031.032-.132.035-.175.009-.101-.009-.202-.009-.303 0-.104.003-.204.013-.306.011-.117.02-.232.04-.348.019-.11.005-.221.027-.332.047-.231.114-.465.089-.704-.006-.056-.002-.178-.068-.205-.079-.033-.098.074-.124.12-.016.029-.046.047-.069.071-.036.039-.041.08-.046.133-.005.066.005.134-.013.199-.015.055-.036.099-.043.158a2.422 2.422 0 0 0-.03.442zM2.811 11.681a.782.782 0 0 0 .05.231c.019.054.041.11.045.167.006.093.024.182.042.273.016.084.051.122.097.188.039.056.078.232.163.225.097-.007.081-.273.078-.337-.005-.107-.028-.214-.033-.322-.004-.092-.033-.177-.045-.267a.417.417 0 0 0-.078-.209.296.296 0 0 1-.063-.199c0-.168.021-.324-.025-.488-.028-.1.012-.216-.011-.313-.016-.065-.079-.179-.155-.11-.043.039-.077.131-.096.182-.052.145-.021.282-.002.428.021.18.024.37.033.551zM3.521 13.293c.021.103.083.19.13.283.026.051.084.115.15.102.077-.015.097-.146.087-.205a.947.947 0 0 0-.059-.215c-.032-.081-.072-.171-.096-.255-.025-.087-.036-.289-.146-.316-.187-.045-.081.534-.066.606z" fill="#ac5d4d"/><path d="M3.81 13.126c.007.065.038.154.051.219.011.052.051.165.109.182.058.017.073-.057.084-.104.028-.125-.008-.255-.045-.373-.031-.099-.049-.206-.087-.304a3.97 3.97 0 0 1-.102-.283c-.03-.099-.006-.244-.124-.294-.07-.029-.116.004-.141.071-.023.061-.032.135.006.189.04.058.056.089.081.158.026.073.044.157.07.233.026.077.048.16.076.232l.022.074zM4.578 15.376c-.029-.076-.072-.15-.106-.224-.026-.056-.037-.126-.069-.177-.027-.041-.067-.101-.113-.123-.05-.023-.105-.021-.15-.059l-.052-.047a.147.147 0 0 0-.027-.053c-.067-.078-.221-.033-.304-.089-.04-.027-.075-.096-.096-.136-.025-.048-.057-.09-.087-.136-.049-.075-.05-.163-.087-.241a1.768 1.768 0 0 1-.072-.174c-.017-.049-.038-.094-.053-.144-.016-.055-.007-.111-.024-.165-.015-.049-.028-.099-.044-.148-.014-.043-.009-.079-.058-.087-.104-.017-.093.184-.087.251.004.043.012.083.014.127.001.029.042.126.023.151-.047.062-.169-.218-.191-.247-.033-.042-.068-.075-.087-.127-.029-.082-.001-.167-.021-.25-.019-.077-.064-.144-.087-.219-.031-.099-.023-.204-.037-.306-.017-.124-.069-.226-.102-.343-.022-.078.005-.163-.018-.241-.008-.027-.022-.052-.029-.079-.012-.043-.004-.087-.008-.131-.01-.106-.013-.209-.019-.316-.004-.073-.043-.237-.151-.218-.118.02-.077.258-.092.344a3.274 3.274 0 0 0-.059.605c.001.136.045.256.078.384.02.079.045.136.096.199.057.07.097.145.11.236.01.07.026.136.026.207 0 .059-.002.116.02.169.03.077.099.12.107.209.007.07.007.14.01.21.001.024-.003.055.004.077.009.027.034.046.042.074.018.06.017.131.018.194.001.091.025.18.036.27.011.089.019.176.037.265.031.151.121.299.187.439.053.114.063.245.15.335.044.046.093.117.165.109.101-.012.093-.126.064-.201-.033-.086-.141-.193-.123-.294.017-.096.081.059.095.095.018.044.026.104.065.136.067.054.111-.007.119-.074.011-.101-.053-.214-.064-.315-.004-.037-.007-.07-.019-.106-.006-.018-.031-.056-.026-.076.012-.057.079-.012.117-.001.116.032.214.012.325-.001a.918.918 0 0 0 .072.155c.055.102.037.228.144.297a1.1 1.1 0 0 1 .122.094c.053.045.116.072.156.131.027.039.099.218.172.146.078-.077.019-.28-.012-.361z" fill="#ac5d4d"/><path d="M4.13 16.398c.003-.04-.051-.085-.036-.118.019-.04.07-.008.094-.065.052-.127-.047-.31-.101-.423-.045-.094-.098-.175-.134-.276-.025-.071-.036-.135-.083-.195-.06-.076-.179-.109-.225 0-.032.076-.003.164.031.234.036.074.064.149.096.224.058.137.057.275.057.422 0 .131.043.253.119.362.043.062.109.24.211.173.091-.06.06-.226.008-.297l-.037-.041zM9.844 29.803a.262.262 0 0 1-.182.046c-.135-.01-.267-.1-.381-.17-.069-.042-.129-.092-.204-.126-.083-.038-.167-.071-.234-.136-.125-.12-.219-.248-.405-.282-.068-.012-.126-.003-.192-.005-.087-.003-.194-.054-.271-.082a1.781 1.781 0 0 1-.363-.192 1.355 1.355 0 0 0-.387-.195c-.033-.008-.074-.007-.113-.011l.012.011c.059.055.106.12.167.176.029.027.06.044.094.064.028.016.043.035.068.056.037.03.084.048.125.071.085.047.261.12.261.12s.134.073.186.095c.11.047.21.111.325.15.149.05.292.075.429.156.035.021.073.036.107.058.036.022.084.041.114.068.04.037.067.055.114.088.03.021.062.042.09.066.029.025.08.05.114.067.068.034.109.062.183.075.04.007.077.022.12.024.1.005.197.013.289-.025.081-.033.174-.097.209-.182a.64.64 0 0 0-.15-.028c-.056-.005-.082.014-.125.043zM15.792 27.866a.099.099 0 0 0 .03.05c.046.044.141.065.227.067a.186.186 0 0 0-.03-.037c-.058-.054-.152-.062-.227-.08zM17.253 11.73c-.139-.108-.209-.259-.295-.407-.052-.089-.023-.214-.023-.312 0-.148 0-.301.004-.45.002-.072.007-.141.007-.212 0-.123-.014-.245-.014-.368a1.69 1.69 0 0 0-.019-.257c-.005-.031-.021-.057-.027-.087-.005-.024.001-.048-.002-.072-.006-.061-.036-.118-.057-.175-.043-.118-.045-.243-.061-.366-.015-.118-.059-.23-.081-.347-.009-.051-.02-.12-.036-.169a.607.607 0 0 0-.076-.153c-.038-.058-.031-.113-.031-.18 0-.041-.016-.104.023-.131.025-.018.043-.009.065.011.044.04.08.103.106.155a.557.557 0 0 0 .057.083c.012.016.025.046.039.057.02.015.037.01.045-.014.01-.029-.014-.054-.021-.079-.008-.028-.005-.065-.009-.093a1.422 1.422 0 0 0-.038-.203c-.029-.109-.079-.214-.103-.323-.012-.052-.01-.107-.021-.158a.936.936 0 0 0-.024-.091c-.009-.031-.028-.05-.041-.079-.015-.034-.024-.071-.036-.104a2.742 2.742 0 0 0-.136-.338c-.035-.07-.059-.138-.103-.202-.028-.04-.062-.076-.088-.116a.687.687 0 0 1-.102-.305c-.003-.039.01-.085-.004-.121-.012-.032-.043-.053-.043-.091 0-.026.008-.06.018-.082.015-.034.041-.031.078-.027.029.003.049.018.068-.013.023-.037-.016-.102-.032-.138-.031-.07-.075-.132-.119-.195-.018-.026-.033-.06-.054-.083-.022-.025-.044-.041-.06-.072-.025-.048-.044-.106-.078-.149-.029-.038-.059-.074-.071-.117a.345.345 0 0 0-.048-.107c-.029-.043-.067-.079-.097-.122s-.053-.091-.081-.135c-.025-.039-.046-.084-.074-.121-.036-.047-.072-.094-.096-.147-.032-.068-.063-.134-.11-.192-.072-.091-.126-.192-.197-.285-.048-.063-.094-.119-.135-.187-.026-.044-.064-.06-.099-.096-.029-.029-.045-.038-.075-.067-.017-.017-.043-.035-.063-.049-.038-.027-.061-.076-.088-.113a.227.227 0 0 1-.042-.145c.002-.06.035-.095.096-.072a.43.43 0 0 1 .134.089c.038.037.058.087.096.12.035.031.084.075.129.041.044-.033.021-.095.005-.134a.535.535 0 0 0-.11-.17c-.024-.023-.049-.041-.069-.069-.022-.032-.037-.066-.065-.093-.054-.054-.124-.085-.186-.128a1.274 1.274 0 0 1-.178-.15c-.027-.028-.059-.052-.085-.081-.022-.025-.036-.056-.056-.083a1.021 1.021 0 0 0-.205-.22 7.837 7.837 0 0 0-.299-.203c-.049-.032-.101-.059-.147-.093l-.017-.003c-.052-.013-.078-.043-.135-.019a.122.122 0 0 0-.067.07c-.011.033.035.085.036.083.047.032.073.091.121.121.017.01.051.015.065.028.011.01.008.024.014.038.013.036.043.068.064.1.038.056.061.1.111.142.022.019.145.111.125.144a.396.396 0 0 1-.096-.044c-.036-.024-.048-.057-.079-.084a.281.281 0 0 1-.056-.067c-.025-.04-.065-.085-.117-.081-.149.012.016.236.069.28a.39.39 0 0 1 .116.158c.031.083-.056.046-.082-.002-.016-.029-.034-.04-.052-.066-.013-.019-.018-.055-.047-.058-.036-.004-.027.034-.044.055-.02.023-.047.011-.069.028-.006.034.014.069.027.099.016.038.027.041.064.052.045.013.053.049.09.077.032.025.063.027.099.038.032.01.053.046.081.056.038.013.05-.015.079-.026.052-.02.086.096.115.13.047.055.095.107.144.16.043.047.068.102.102.155.047.074.122.128.181.192.041.045.075.094.119.138.047.047.106.084.145.139.022.03.034.066.053.097.011.018.031.031.028.054-.034-.003-.055-.023-.081-.045-.035-.03-.078-.05-.114-.081-.063-.053-.073-.137-.129-.193-.036-.04-.061-.09-.123-.081-.045.007-.091.071-.127.059-.043-.014-.074-.081-.112-.107-.026-.018-.098-.056-.13-.045-.075.027.036.154.069.177.044.032.084.059.126.094.027.022.058.037.083.06.041.038.079.083.119.123.04.04.09.065.123.113.028.041.014.072.008.116-.006.044.013.088.029.127.039.101.095.227.184.293.056.042.097.095.147.145.035.035.078.064.109.103.06.075.108.17.177.236.065.062.135.116.189.189.04.054.068.113.092.175.014.037.073.108.066.149-.01.061-.11-.081-.126-.099-.035-.039-.076-.138-.134-.141-.036-.002-.036.027-.062.037-.034.013-.049-.016-.062-.04-.031-.057-.08-.061-.118-.108-.025-.031-.08-.083-.116-.029-.035.051.007.154.037.198.049.073.087.149.144.215a.491.491 0 0 0 .212.139c.087.033.119.076.162.161.038.075.046.156.076.233.015.038.031.085.06.116.018.019.037.028.048.053.012.027.008.058.016.086.007.024.024.048.037.069.019.029.047.054.065.086.039.071.046.154.093.219.051.07.094.145.133.222.058.115.141.214.127.348-.004.036-.01.07-.01.108a.3.3 0 0 0 .049.18c.022.041.048.071.057.117.012.059.019.119.031.178.011.058.037.121.057.177.018.048.029.097.05.143.015.033.035.063.04.1.004.032-.006.061-.004.092-.057-.001-.105-.155-.12-.201a.526.526 0 0 0-.06-.124c-.025-.041-.032-.087-.053-.131-.03-.063-.053-.134-.098-.188-.016-.02-.042-.039-.052-.064-.013-.035-.011-.079-.023-.114-.021-.062-.067-.11-.104-.162-.021-.03-.057-.085-.095-.097-.068-.021-.098.07-.13.11-.049.061-.095.088-.053.167.02.038.038.074.063.108.021.03.053.059.072.091.036.059.027.14.041.206.021.097.092.193.111.292.018.089.029.181.057.268.029.091.069.179.106.266.02.048.06.077.081.123.022.048.016.1.03.151.022.082.059.166.09.242.035.085.053.186.073.273.006.024.012.09-.028.092-.042.001-.044-.074-.05-.096-.011-.037-.032-.07-.046-.104-.022-.056-.029-.11-.044-.168-.027-.099-.082-.185-.124-.276-.029-.064-.057-.131-.089-.191-.028-.052-.083-.143-.14-.155-.075-.016-.114.075-.101.137.015.075.058.131.094.197.033.059.033.128.056.191.031.084.054.167.08.256.019.066.037.12.067.182.03.061.035.121.054.184.028.094.083.18.106.273.016.066.009.152-.073.164-.055.008-.102-.031-.145-.056s-.094-.059-.143-.076a2.058 2.058 0 0 1-.269-.116c-.07-.036-.14 0-.216-.023-.073-.022-.133-.051-.208-.058-.061-.006-.119-.063-.177-.045-.094.029-.076.115-.069.195.006.074.037.13.106.162.113.052.234.028.345.076a.17.17 0 0 0 .119.014c.035-.01.052-.034.091-.032.081.005.079.083.082.146.005.107.074.105.154.161.062.043.145.058.187.123.019.03.036.068.061.094.029.031.076.048.108.079.09.084.201.1.312.154.037.018.074.025.113.038.029.01.049.033.074.044.025.011.055.012.082.022.039.016.075.041.114.057.1.043.177.109.293.108a.586.586 0 0 0 .105-.011c-.011-.007-.021-.016-.031-.024zM18.745 13.195c-.03-.071-.06-.144-.101-.21-.041-.068-.095-.111-.155-.163-.076-.065-.179-.076-.257-.138-.032-.026-.056-.055-.089-.081-.047-.036-.099-.067-.146-.103a.208.208 0 0 1-.084-.109c-.02-.058-.073-.095-.122-.126a.707.707 0 0 1-.086-.067.54.54 0 0 0-.117.019c-.073.023-.094.122-.078.188.014.058.091.093.142.114.082.033.209.022.277.083a.253.253 0 0 1 .056.076c.014.044-.012.057-.041.073a.19.19 0 0 0-.091.164c-.001.035.018.077.028.109.011.04.023.048.064.065.07.028.121.081.191.109.09.037.196.059.246.15.047.083.086.162.193.183.101.019.141-.03.182-.111.031-.061.087-.072.152-.073-.068-.041-.136-.087-.164-.152zM21.128 15.495l-.091-.115c-.034-.043-.064-.091-.103-.131a1.516 1.516 0 0 0-.139-.127c-.047-.037-.102-.063-.148-.101a.802.802 0 0 1-.138-.154c-.071-.105-.164-.163-.265-.234-.093-.065-.169-.155-.259-.227-.083-.066-.175-.117-.25-.192-.048-.048-.124-.084-.139-.148a.544.544 0 0 0-.134-.266c-.027-.026-.065-.043-.094-.068-.032-.027-.057-.062-.088-.089-.028-.025-.058-.049-.088-.073a.302.302 0 0 1-.049-.003c-.056-.01-.113.02-.153.066-.092.105-.011.313.094.383.043.029.135.058.119.13-.015.065-.066.099-.054.179.007.045.053.123.097.145.042.022.056-.004.09-.008.035-.004.057.015.079.04.035.04.043.111.096.132.059.024.144.005.194-.023.063-.036.095-.005.139.046.046.053.07.087.041.153-.048.107.009.116.091.19.018.016.043.033.053.061.005.015.003.035.009.05.011.028.051.039.051.067-.074.004-.148-.01-.214.022-.058.029-.104.035-.152.079-.033.03-.095.119-.053.16.04.039.161.022.204.013.088-.017.149.01.237.014.094.004.187 0 .28.005.077.004.146.035.217.056.049.014.097.021.141.055.037.028.072.067.115.091.048.028.105.054.149.086.045.033.055.083.119.08.054-.002.079-.049.129-.063.022-.006.045-.009.067-.014-.056-.095-.13-.18-.2-.267z" fill="#ac5d4d"/><path d="M18.153 20.402c-.073-.053-.232-.033-.321-.055-.134-.032-.249-.097-.372-.156-.103-.049-.138-.1-.19-.2a.865.865 0 0 1-.11-.385.39.39 0 0 0-.046-.192.265.265 0 0 1-.029-.142c-.001-.117-.042-.226-.048-.341-.005-.103.032-.188.042-.29.006-.068.001-.143-.002-.211-.003-.069.011-.181-.014-.247-.019-.051-.071-.117-.134-.102-.024.038-.023.09-.061.118-.058.044-.113-.004-.126-.065-.011-.054.018-.107.029-.156.019-.086.019-.18.019-.268 0-.087.036-.268-.089-.26-.086.006-.152.105-.234.128-.209.061-.066-.263-.075-.36-.113-.056-.16.059-.192.142-.044.113-.091.17-.223.163-.036-.002-.008-.124-.005-.14.009-.052.03-.084.046-.133.014-.043.004-.092.008-.138.004-.04.023-.072.027-.114.005-.051-.008-.079.017-.125.017-.032.032-.079.051-.104.012-.015.034-.012.045-.033.006-.011.005-.045.007-.058.005-.032.024-.093-.01-.115-.04-.026-.07.024-.087.05-.08.124-.163.247-.257.361-.055.067-.037.163-.127.183-.036.008-.058.03-.091.04-.064.02-.05-.031-.05-.082a.15.15 0 0 0-.096-.138c-.082-.03-.152.047-.232.041-.025-.048.063-.071.072-.113.015-.067-.035-.082-.066-.127-.03-.043-.025-.105-.025-.154 0-.043-.007-.063-.048-.079-.037-.015-.091-.021-.119.011-.024.026-.021.066-.059.071-.042.005-.082-.014-.106.031-.013.023-.014.048-.017.073-.002.015-.017.052-.034.056-.041.007-.03-.092-.032-.114-.004-.036-.021-.062-.021-.101 0-.034.007-.069-.01-.099-.028-.05-.139-.116-.19-.067-.031.03-.057.066-.098.087-.025.013-.073.011-.093-.012-.011-.013-.008-.035-.01-.051-.004-.026-.007-.064-.029-.083-.041-.036-.098-.035-.146-.054a.519.519 0 0 0-.17-.038c-.074-.004-.12-.013-.124-.092-.004-.075.066-.159-.035-.189-.053-.016-.096-.017-.149-.02-.055-.003-.101-.021-.107-.078-.008-.083.012-.16-.08-.192-.022-.008-.037-.009-.061-.011-.037-.003-.068-.019-.104-.015-.054.006-.107.044-.157.056-.02.005-.086.007-.104-.004-.015-.01-.019-.032-.031-.047a.213.213 0 0 0-.132-.079c-.027-.005-.054-.001-.08-.003-.024-.002-.019-.004-.04-.021-.034-.027-.04-.013-.076-.01-.031.002-.05-.014-.072-.034-.076-.071-.162-.123-.27-.113-.061.005-.144.07-.175.123-.019.032-.003.075-.033.099-.026.02-.066.003-.094.017-.073.037-.128.178-.115.252.031.173.274.095.389.101.001.027-.006.057.013.079.024.027.072.022.097.047.046.046-.024.107-.041.15-.022.059-.053.186.02.223a.247.247 0 0 0 .127.015c.015-.003.028-.012.044-.015.045-.009.092-.012.137-.02.098-.018.073.079.133.123a.2.2 0 0 0 .136.021c.039-.01.048-.047.079-.065.052-.03.089.025.093.072.005.061-.022.138-.073.174-.047.033-.111.032-.164.046-.151.04-.25.133-.211.296.02.087.06.119.147.102.07-.014.129-.028.202-.02.121.015.094.137.073.23a.675.675 0 0 1-.075.207c-.019.03-.043.055-.06.087-.023.044-.057.086-.086.127-.031.043-.051.091-.081.134-.061.085-.144.133-.216.209-.026.028-.048.059-.076.085-.024.022-.048.042-.068.068-.024.032-.049.061-.088.072-.014-.076.084-.156.122-.212a.692.692 0 0 0 .073-.134c.014-.033.023-.07.05-.096.045-.042.095-.071.103-.138.008-.071-.017-.117-.082-.145-.082-.035-.159.076-.215.121-.039.031-.085.054-.103.104a.487.487 0 0 1-.08.155.617.617 0 0 0-.088.146c-.016.039-.019.08-.056.106-.048.034-.108 0-.161.032a.837.837 0 0 0-.119.086c-.022.02-.093.086-.127.064-.018-.012-.004-.053-.014-.068-.013-.02-.049-.015-.071-.014-.039.002-.053.016-.086.028-.031.011-.074.008-.106.006-.01-.042.06-.056.087-.068.053-.025.1-.068.15-.098.088-.054.191-.08.272-.147.036-.03.091-.06.112-.098.015-.027.012-.056.008-.085-.011-.073-.083-.077-.139-.048-.069.036-.128.084-.199.115-.035.015-.062.045-.092.067-.041.03-.09.044-.135.068-.072.039-.144.071-.2.129-.022.023-.05.035-.076.051-.025.015-.043.036-.067.051-.046.028-.099.028-.119.088-.015.044-.001.089-.034.128-.021.025-.054.037-.083.049-.107.045-.202.118-.307.166-.08.036-.188.042-.189.157-.001.054.041.112.089.138.071.038.16.012.225-.027.099-.059.212-.099.317-.147.088-.04.172-.092.26-.124.048-.018.086-.053.142-.046.01.026.014.053.035.073.021.02.052.023.069.047.041.059-.089.091-.111.133-.021.042-.047.167.004.192.027.013.063-.001.089-.01.028-.01.088-.041.116-.027.022.011.031.057.014.074-.018.018-.065.005-.088.008-.048.005-.086.032-.129.051-.042.018-.079.024-.121.048-.042.023-.091.052-.114.096-.024.045-.025.149.005.193.022.032.066.044.099.062.004.016-.002.02-.014.027-.024.015-.057.004-.084.028-.027.024-.03.036-.067.03-.033-.005-.074-.025-.11-.01-.026.011-.041.044-.075.038-.083-.015.017-.124.041-.151.059-.066.122-.121.13-.216.007-.083-.012-.142-.096-.154-.036-.005-.057-.004-.089.014-.048.027-.1.045-.148.073-.068.04-.121.094-.197.122-.061.023-.12.036-.18.065-.027.013-.054.029-.082.039-.07.025-.142.047-.211.075-.07.029-.139.067-.209.093-.077.029-.162.051-.24.073-.05.015-.102.024-.147.052-.027.016-.055.062-.085.073-.046.015-.096.003-.144.009-.05.006-.098.024-.148.032-.115.019-.232.016-.348.016-.113 0-.222.015-.336.015-.035 0-.071-.002-.105 0-.011.001-.035.01-.045.004-.033-.018-.009-.052.004-.068.02-.025.045-.048.038-.087-.012-.071-.119-.107-.177-.123a.478.478 0 0 0-.278.003c-.059.021-.127.009-.19.01-.056.001-.111.008-.168.008-.033 0-.078.008-.108-.005-.022-.01-.036-.037-.058-.047-.047-.021-.111-.02-.16-.025-.045-.005-.111.001-.134-.043-.025-.049-.008-.108-.039-.158a.197.197 0 0 0-.143-.088c-.078-.013-.191-.05-.267-.014-.092.043-.086.183-.086.27 0 .045.019.106-.031.118-.043.01-.081-.016-.122-.021-.033-.004-.058-.004-.091-.013-.015-.053.032-.097-.004-.15-.03-.044-.09-.05-.135-.072-.047-.023-.088-.061-.132-.088a.936.936 0 0 0-.164-.076c-.053-.02-.099-.056-.149-.079-.052-.024-.214-.017-.196-.109.096-.011.206.062.267-.037.079-.129-.091-.293-.181-.357-.065-.047-.118-.107-.183-.155a2.421 2.421 0 0 1-.219-.174c-.093-.084-.161-.177-.296-.158-.045.006-.062.022-.101-.014-.041-.038-.077-.09-.119-.129-.059-.055-.143-.141-.232-.122-.077.016-.094.096-.088.168.009.098.075.165.138.232a.567.567 0 0 1 .112.165c-.04-.002-.063-.055-.086-.086a.574.574 0 0 0-.099-.098 1.012 1.012 0 0 1-.199-.219c-.021-.03-.046-.045-.075-.068a.145.145 0 0 1-.022-.021c.02-.006.037-.015.063-.024.048-.016.082-.014.124-.045.057-.042.114-.133.081-.205-.014-.031-.046-.048-.062-.077-.024-.045.001-.084.006-.131.012-.11-.043-.211-.086-.308-.058-.129-.13-.246-.178-.38-.031-.086-.058-.174-.104-.253-.048-.081-.108-.157-.159-.236-.02-.031-.043-.046-.068-.072-.03-.032-.044-.076-.068-.114-.037-.058-.055-.114-.086-.175-.025-.051-.073-.094-.11-.135-.052-.057-.172-.194-.216-.064a.486.486 0 0 0 .013.33c.035.079.06.161.094.239.021.049.084.128.076.183-.035-.003-.046-.056-.073-.076a.089.089 0 0 0-.109.007c-.066.055-.081.145-.11.219-.111.024-.125-.191-.143-.26a.832.832 0 0 0-.189-.341c-.057-.067-.104-.092-.134-.172-.031-.083-.053-.166-.084-.25-.041-.112-.092-.2-.102-.321.004.026.035.058.049.081.033.054.06.112.093.165a.627.627 0 0 1 .074.146c.016.047.032.092.073.121.039.027.079.049.116.081.024.02.057.062.084.075.104.049.121-.179.107-.236-.011-.048-.041-.093-.054-.141-.015-.056-.027-.114-.04-.17-.017-.07-.029-.137-.055-.203-.027-.068-.05-.138-.094-.194-.044-.056-.072-.117-.102-.181-.029-.062-.029-.134-.049-.199-.029-.094-.075-.175-.114-.266-.031-.07-.065-.139-.095-.21-.041-.097-.027-.195-.042-.295a.881.881 0 0 0-.066-.232c-.015-.033-.033-.063-.041-.098-.019-.079-.026-.16-.04-.24-.012-.069-.06-.122-.072-.19a1.95 1.95 0 0 1-.04-.325c-.002-.102-.027-.213-.046-.313-.028-.151-.024-.303-.051-.455-.011-.063-.042-.251-.144-.166-.048.04-.068.128-.079.182-.022.11-.011.24-.005.355.009.163.068.308.068.471 0 .155-.004.311-.005.467 0 .064.021.121.036.182.015.059.05.152.041.213-.026-.025-.036-.082-.05-.117a.64.64 0 0 1-.049-.169c-.021-.182 0-.377 0-.56 0-.083-.027-.141-.046-.219-.023-.096-.006-.194-.014-.292-.014-.176.009-.365-.028-.537-.02-.094-.011-.192-.029-.287-.013-.069-.034-.134-.053-.201-.033-.119-.078-.243-.082-.368-.003-.112-.023-.216-.023-.329 0-.148-.009-.297-.009-.447 0-.177.037-.348.037-.526A.696.696 0 0 0 1.7 9.57c-.024-.061-.012-.109-.012-.176v-.193c0-.045.01-.04.029-.073.02-.035.013-.071.017-.11.007-.076.038-.236-.047-.282-.09-.048-.13.09-.141.145a.833.833 0 0 1-.067.189 1.149 1.149 0 0 0-.092.304c-.011.062-.008.119-.024.181-.019.071-.041.147-.05.221-.028-.085.022-.212.033-.301.007-.06.019-.12.028-.179.009-.062.037-.12.048-.182.017-.098.031-.256-.025-.337-.048-.07-.097-.104-.16-.032-.077.088-.102.219-.123.332-.026.136-.068.264-.069.404-.001.11-.01.214-.041.318-.021.067-.008.133-.006.201.002.066-.013.13-.002.196.009.055.035.103.039.16.005.072.006.144.006.216 0 .077.021.195-.031.259-.06-.111-.029-.256-.029-.378 0-.09.004-.171-.014-.256-.011-.05.011-.192-.081-.123-.099.075-.101.214-.136.321-.031.093-.038.181-.048.277-.005.054-.008.113-.018.165-.035.182-.004.363-.027.546-.02.155.054.303.079.458.017.106.051.231.091.329.039.096.054.191.107.28.02.033.048.058.071.088.033.043.038.044.073.007.026-.027.062-.085.098-.033.033.048-.005.167-.008.222a.965.965 0 0 0 .012.289c.04.163.034.34.056.506.016.123.022.241.052.363.013.052.027.101.037.153.006.033.044.128.023.16-.024.037-.055.002-.071-.018-.061-.08-.108-.032-.111.06-.001.037.032.103-.017.115-.043.011-.039-.041-.038-.074.004-.079.021-.15-.013-.224-.044-.098-.034-.203-.029-.311a1.456 1.456 0 0 0-.049-.445c-.011-.043-.028-.095-.024-.139.003-.04.037-.077.028-.121-.01-.048-.063-.098-.086-.142-.032-.06-.039-.114-.05-.181-.014-.082-.028-.167-.059-.245-.036-.091-.047-.179-.067-.273-.011-.053-.039-.163-.115-.122-.054.029-.047.128-.051.179-.004.045-.016.065-.028.106-.009.028-.004.092-.031.109-.016-.104.026-.18.037-.277.01-.09-.027-.159-.027-.252 0-.071-.004-.142.02-.21.018-.051.045-.093.049-.151.008-.11-.041-.202-.046-.305-.006-.118.014-.229.025-.339.005-.051.048-.25-.068-.201-.024.01-.041.053-.073.034-.034-.02-.022-.118-.022-.149 0-.08.002-.149.021-.224.028-.113.04-.222.043-.34.001-.051.007-.217-.088-.176-.083.037-.093.18-.119.257-.027.08-.028.162-.041.243-.01.064-.023.127-.031.189-.031.002-.062-.072-.082-.117-.014.059-.012.122-.022.182-.016.102-.038.208-.047.31-.007.075-.018.151-.027.226-.004.032-.011.078-.006.111.003.021.018.039.023.059.008.039 0 .084.001.125.004.079.049.146.133.157.041.005.037-.017.065-.04.026-.022.047-.029.06.004.01.026.006.064.006.092.001.047.01.091.014.138.021.269-.031.539.009.809.021.14-.018.301.046.43.03.06.028.124.043.186.004.015.008.033.016.047.014.022.04.024.057.042.051.056.015.161.1.192.063.023.078-.053.097-.096.098-.032.041.218.044.263.004.057.042.099.063.149.022.052.042.11.06.164.03.091.028.205.028.3 0 .147.051.294.054.441.003.113.034.225.064.333.011.041.004.089.009.131.007.068.017.135.017.203 0 .075.015.125.039.194.028.081.027.166.067.244.033.064.057.149.116.194.037.028.076.043.107.08a.678.678 0 0 1 .095.148c.032.07.036.151.054.225.019.078.048.151.07.227.026.091.067.177.09.27.013.052.034.098.044.15.01.051.035.087.057.132.05.103.112.204.156.31.02.049.042.098.067.147.015.029.018.068.036.095.044.069.089.006.092-.047.004-.085.01-.169.003-.253a2.83 2.83 0 0 0-.015-.161c-.004-.032-.006-.049.019-.071.052-.045.148.018.188.059.054.055.083.138.122.204.055.092.106.189.133.293.023.088.075.165.114.247.024.052.047.106.075.156.045.079.089.157.124.241.027.064.093.079.14.127.032.032.055.075.079.113.033.052.076.093.102.15.031.069.061.136.1.201.032.055.049.126.087.176.041.054.168.12.235.079.021-.013.018-.028.049-.031.037-.004.071.019.092.049.031.045.008.115.052.152.025.022.064.014.095.017a.153.153 0 0 1 .122.067c.07.093.146.162.17.279a.289.289 0 0 0 .052.109c.038.049.095.055.143.086.065.041.09.118.147.165.061.05.133.095.189.15.034.034.057.078.095.109.045.037.124.092.137 0 .01-.067-.01-.133 0-.199.004-.026-.006-.078.008-.102.023-.038.055-.002.074.023.029.039.025.076.037.12.014.048.05.113.083.151.076.087.228.08.317.147.147.11.317.187.475.282.071.043.138.06.19.121.053.062.119.105.184.151.037.027.042.05.068.082.042.051.091.011.125-.031.047-.058.066-.1.137-.028.039.039.044.083.055.139.009.046.011.095.028.14.016.041.043.078.052.121.015.069.042.138.054.207.02.122.058.241.083.361.006.028.023.053.031.081.02.071.022.153.024.226.002.11.001.217.007.326.009.158.001.32 0 .479 0 .05-.015.097-.023.144-.01.057-.003.113-.022.166-.044.12-.028.253-.03.378 0 .041-.016.077-.022.117-.011.067-.01.137-.017.206-.01.089-.022.173-.022.263 0 .13.022.258.028.386.001.033.004.066.003.099-.002.083-.053.16-.07.24-.019.089-.028.186-.038.276-.012.1-.032.201-.039.302-.004.065.004.132-.007.195-.01.056-.033.107-.04.165a.5.5 0 0 1-.033.145c-.027.063-.047.131-.074.195-.024.056-.068.105-.102.151-.11.144-.285.174-.444.22-.055.016-.107.044-.161.066-.075.03-.147.047-.225.062-.076.014-.135.048-.202.08-.071.033-.12.087-.182.131-.05.036-.11.071-.155.115-.043.043-.095.095-.109.154-.018.077.041.144.087.2a.415.415 0 0 0 .146.12c.066.034.147.053.206.095.047.034.08.088.128.118.054.034.131.036.191.053l.254.073c.069.02.128.054.195.078.063.022.122.058.188.075a.84.84 0 0 1 .114.037c.045.019.091.027.132.054.041.027.084.041.13.056a.92.92 0 0 1 .112.048c.033.016.066.022.1.033-.019-.047-.006-.117-.044-.164a.536.536 0 0 0-.277-.179c-.082-.023-.238.004-.302-.056-.073-.068-.101-.119-.196-.162-.057-.026-.097-.069-.154-.09-.047-.017-.107-.02-.148-.052-.032-.025-.06-.071-.089-.101-.07-.074-.181-.158-.215-.258-.033-.093-.021-.294.119-.27.077.013.143.05.233.036.113-.018.155-.094.244-.147.071-.043.135-.06.198-.116.058-.052.104-.118.161-.169.052-.047.069-.097.107-.156.035-.056.072-.109.102-.167.091-.176.126-.384.147-.582.025-.24.051-.478.143-.702.023-.057.015-.119.016-.182.002-.113.009-.234.016-.348.006-.092-.004-.184.006-.275.009-.085.034-.165.044-.251.01-.088.038-.182.028-.271-.007-.059-.048-.105-.044-.167a.42.42 0 0 1 .07-.167c.033-.047.084-.071.101-.129a.341.341 0 0 0-.021-.207c-.041-.111-.097-.214-.052-.335.052-.141.149-.101.266-.155.066-.03.156-.265.215-.227.073.047-.061.188-.072.241-.03.141-.048.336.083.423.078.052.172.067.255.117a.878.878 0 0 0 .073.04l.025-.103a.65.65 0 0 0 .015-.159c0-.088.003-.179.012-.267.015-.141.009-.285.019-.426.005-.077.014-.149.014-.227 0-.075.005-.145.017-.219.008-.048.001-.097.007-.145.005-.038.023-.073.03-.109.005-.027-.013-.056-.004-.082.011-.033.058-.058.087-.075.042-.025.098-.022.146-.025.061-.003.124-.003.184-.013.07-.012.133-.044.199-.059.047-.011.1-.007.147-.021.038-.011.075-.031.111-.047.1-.044.206-.078.311-.111.098-.031.203-.075.307-.078.101-.003.201-.021.303-.02h.443c.154 0 .288-.05.437-.08.078-.016.152-.047.23-.063.081-.016.158-.025.237-.051.056-.019.133-.026.182-.06a.49.49 0 0 1 .153-.077l.059-.012c.025-.005.046-.021.069-.027.035-.01.044.011.076-.017.016-.014.04-.055.065-.055.04.001.022.043.009.061a.114.114 0 0 0-.026.079c0 .027.003.052-.016.073-.014.015-.038.024-.055.04-.02.019-.042.041-.073.038-.012-.001-.023-.012-.037-.014-.024-.004-.053-.005-.072.01-.031.025-.014.047.006.065.029.026.022.042.025.082.036.018.045-.003.074-.021.026-.016.055-.014.086-.012-.009.018-.033.024-.05.038a.156.156 0 0 0-.038.054c-.03.06-.055.124-.1.175a.32.32 0 0 1-.064.058c-.027.016-.06.017-.086.038-.037.03-.027.092-.027.137a.35.35 0 0 0 .025.137c.015.037.027.073.044.11.037.08.028.165.046.25.014.064.025.131.032.196.013.111.021.224.037.335.015.103.025.211.048.311.014.062.038.117.045.182.005.044.012.088.015.131.01.105.015.211.024.315.006.076.018.148.021.224.004.106.014.212.016.319.002.122.005.244.005.365 0 .119.002.242-.015.36-.009.057-.03.11-.038.167-.008.051-.005.104-.008.155-.004.093-.003.221-.08.288a.827.827 0 0 1-.177.109c-.055.028-.12.065-.179.082a.666.666 0 0 0-.19.096 1.313 1.313 0 0 0-.2.154c-.044.043-.101.066-.15.1-.056.04-.118.078-.155.139-.028.045-.029.113-.022.167.019.147.166.22.291.257.08.024.164.024.243.05.059.019.124.024.181.045.04.015.08.031.121.045.071.025.142.03.214.048.059.015.114.042.172.059.053.016.109.016.16.032.062.019.116.031.17.067a.544.544 0 0 0 .156.063c.059.016.103.039.157.065.076.037.151.093.23.12.11.037.204.14.284.22.076.076.088.18.163.257a.27.27 0 0 0 .126.078c.061.021.116.057.179.077.084.026.16.026.246.035.093.01.183.024.278.024.117 0 .233-.018.333.053.063.045.13.084.181.143.045.052.092.111.158.138.06.024.142.043.206.046.08.004.166.011.245.007a.42.42 0 0 0 .29-.164c.038-.048.1-.098.12-.158.012-.036.014-.08.018-.116.003-.032.008-.064.009-.096-.058-.016-.116-.001-.177.047-.048.038-.071.11-.114.141-.046.032-.125.004-.18.012-.123.018-.242.114-.37.117-.149.003-.204-.183-.321-.247a1.111 1.111 0 0 0-.284-.111c-.077-.014-.156.016-.237.016-.095 0-.202.013-.287-.032-.069-.037-.091-.109-.159-.148-.072-.041-.168-.062-.232-.108-.038-.027-.04-.04-.066-.082-.059-.094-.134-.117-.229-.156-.079-.032-.173-.054-.245-.091-.103-.053-.193-.132-.309-.159-.064-.015-.128-.009-.15-.085-.009-.031.001-.056-.02-.085-.018-.025-.056-.047-.082-.064-.095-.061-.218-.095-.321-.14-.067-.029-.167-.001-.227-.038a.115.115 0 0 1-.027-.027c-.03-.038-.021-.047-.079-.074-.079-.036-.198-.049-.24-.131-.013-.025-.027-.072-.016-.1.013-.034.051-.039.07-.066.035-.049.001-.117.025-.17.031-.068.089-.041.145-.053.045-.01.077-.037.128-.046a.51.51 0 0 0 .228-.088c.081-.07.114-.21.123-.309.006-.073.007-.15.014-.224.007-.073.036-.14.061-.208.022-.06.054-.117.075-.177.033-.098.01-.235.012-.337.001-.121.002-.242-.011-.362a.513.513 0 0 1 .058-.303c.05-.087.097-.151.097-.255 0-.062.004-.103-.038-.151-.026-.029-.06-.043-.084-.076-.104-.142.067-.3.033-.449-.015-.066-.074-.074-.052-.149.019-.062.06-.091.041-.164-.01-.038-.042-.062-.058-.098-.025-.055-.026-.146.026-.185.23-.171.347.683.357.778.013.122.017.266-.007.385a.249.249 0 0 0 0 .138c.015.041.044.065.036.114-.006.038-.033.057-.054.087a.281.281 0 0 0-.043.2c.02.104.093.141.18.158v-.003c-.005-.05.001-.101-.003-.151-.005-.062-.012-.124-.012-.187 0-.058 0-.116.003-.173.003-.082.027-.16.032-.242.003-.047-.002-.096 0-.143.001-.047.016-.092.029-.137.017-.062.008-.123.021-.185.014-.069.055-.129.075-.196.024-.081.006-.181.008-.264.002-.099-.016-.197-.016-.297 0-.111-.002-.221.014-.331.02-.138.011-.277.031-.414.016-.112.007-.231.007-.345 0-.168-.007-.335-.014-.503-.003-.076-.004-.17.036-.238.04-.069.129-.139.213-.131.035.072.132.036.179-.004.077-.066.158-.127.235-.197.04-.036.081-.063.122-.096.022-.018.065-.074.1-.064.013.004.014.027.032.033.019.007.048-.004.064-.015a.67.67 0 0 0 .168-.18c.038-.058.04-.122.088-.174a2.24 2.24 0 0 1 .105-.111c.086-.086.174-.193.192-.32a.665.665 0 0 1 .074-.227c.034-.067.072-.162.125-.217.051-.053.129-.079.18-.13.049-.048.105-.077.155-.016.023.028.024.053.071.046.041-.007.061-.045.083-.076.112-.153.209-.331.255-.513.015-.06.042-.14.091-.182.053-.045.117-.085.175-.125.108-.076.267-.026.378.022.138.059.27.186.374.296.064.067.138.135.191.21.062.088.103.187.156.279.079.136.148.279.198.428.023.068.038.136.05.205.011.064.051.115.068.178.022.084.038.174.077.256.034.073.059.152.091.227.035.084.092.168.142.243.06.09.118.174.196.247.04.038.097.083.142.114.066.045.147.048.223.072.112.034.208.033.324.043l.162.015a.261.261 0 0 0-.062-.096zM1.566 12.878c-.044-.085-.046-.214-.061-.31a.985.985 0 0 0-.057-.229c-.028-.065-.05-.115-.052-.186-.003-.107.028-.244-.064-.324-.042-.037-.109-.068-.133-.015-.017.037.007.094-.045.112-.012.004-.013.008-.027.007-.023-.085.029-.132.031-.214.002-.085-.024-.155-.038-.237-.022-.134-.038-.273-.067-.401l-.003-.128c.005.089.066.303.172.251.076-.037.1-.202.115-.271.041.084.036.217.032.313-.007.186.042.356.069.537.011.077-.006.164.013.24.011.041.038.083.055.122a.86.86 0 0 1 .078.28c.006.144.013.311-.018.453zm.744 2.716c-.006.051-.041.044-.072.069-.035.028-.022.093-.02.131.001.034.003.066-.002.1-.003.017-.003.069-.019.08-.038.024-.047-.056-.054-.074-.019-.052-.055-.096-.07-.15-.014-.051-.007-.103-.016-.154-.014-.075-.06-.149-.094-.217-.034-.067-.011-.152.027-.213.014-.022.052-.083.086-.058.024.018.009.057.012.082a.219.219 0 0 0 .055.108c.018.023.042.042.059.065.024.031.035.071.058.104.034.049.058.063.05.127zm.524 2.02a.128.128 0 0 1-.079-.048c-.018-.029-.013-.064-.034-.093-.022-.029-.041-.049-.051-.085-.007-.026-.011-.053-.015-.08a.577.577 0 0 0-.016-.072c-.005-.016-.011-.032-.011-.05 0-.004.009-.044.01-.043.038.042.061.106.087.156.011.021.026.034.039.052.012.017.016.038.023.058.011.029.137.217.047.205zm1.379 1.229a.093.093 0 0 1-.019-.04c-.017-.046-.024-.082-.055-.124-.069-.092-.14-.188-.22-.27-.039-.039-.076-.087-.127-.112-.054-.026-.092-.024-.136.013-.02.017-.053.074-.087.058-.021-.01-.032-.075-.041-.096-.016-.037-.042-.076-.052-.113-.004-.014-.018-.035.002-.045.022-.011.024.014.039.019.034.011.073.009.11.008.059-.002.081-.021.105-.074.015-.032.007-.094.028-.118.046-.051.126.069.154.097.026.026.05.05.076.07a.123.123 0 0 0-.034.043c-.044.095.024.197.081.266.074.09.133.182.196.279.041.063.107.092.133.164l.014.041c-.061-.015-.13-.029-.167-.066zm1.947 1.443c-.025.043-.067.012-.09-.009a.719.719 0 0 0-.412-.173c-.149-.015-.234-.142-.372-.193-.069-.025-.097-.068-.138-.128-.036-.052-.091-.091-.128-.143-.057-.081-.143-.159-.177-.251a.332.332 0 0 1-.01-.029c.031.032.061.066.091.102.042.05.088.095.132.141.046.049.086.101.151.128.047.019.102.028.146.053.041.024.065.067.097.101s.053.065.104.065c.064 0 .074-.031.105-.073.023-.032.046-.062.087-.064.04-.002.07.019.115.008.087-.022.197-.013.256.078.019.03.008.066.002.096a.304.304 0 0 0 .015.178c.012.029.045.08.026.113zm1.897-.041c.116-.016.216.111.154.219-.037.064-.163.045-.21.001-.062-.06-.035-.207.056-.22zm5.069-2.015a.93.93 0 0 1 .128-.159c.028-.029.073-.072.105-.025.036.054-.035.072-.07.094a.461.461 0 0 0-.103.094c-.033.039-.06.111-.111.127-.008-.038.032-.098.051-.131zm-.074.587c.079-.021.056.041.002.064-.077.033-.064-.047-.002-.064z" fill="#ac5d4d"/><path d="M18.959 16.923c-.034.016-.066.052-.092.079-.058.058-.136.114-.166.19-.062.155-.203.282-.306.42a.279.279 0 0 1-.084.08c-.062.032-.057.011-.09-.04-.223-.02-.191.344-.19.492a.76.76 0 0 1-.2.484c-.071.082-.103.121-.115.228-.012.108.004.224-.007.335-.007.078-.089.212-.048.295.028.056.079.052.096.007.019-.048.004-.119.015-.17.009-.042.042-.085.065-.119.032-.047.012-.078.03-.128.024-.069.054-.041.08.012.016.033.036.073.043.111.018.091-.064.252.049.266.051.006.109-.023.162-.018.053.005.106.017.125-.042a.466.466 0 0 0-.021-.301c-.025-.065.038-.217.057-.307.015-.07.149-.491.236-.404.087.087-.063.265-.087.539-.01.111.012.199.007.308-.002.044-.043.307.091.214.072-.049.016-.204.073-.269.062-.069.164-.058.192-.164.023-.09-.017-.243.023-.327.017-.035.063-.061.092-.085.03-.025.04-.044.068-.075.055-.059.11-.122.161-.181.058-.067.102-.145.19-.166.096-.024.2.01.269-.074.02-.024.04-.108.087-.056.027.03-.009.113-.007.151.003.073.009.132-.008.21-.027.123-.151.145-.12.177.036.036.311-.23.383-.379.04-.082.055-.15.097-.232.021-.041.043-.076.064-.117.022-.043.04-.087.059-.13.027-.063.187-.088.223-.052.04.04-.04.099-.058.137-.023.049-.013.113-.024.167-.027.146-.157.29-.204.458-.022.077-.031.213-.077.281-.054.081-.126.121-.184.175-.053.049-.042.078-.039.134.002.042-.017.075-.043.114-.034.052-.173.198-.12.236.054.038.178-.017.235-.059.081-.06.13-.155.212-.218.074-.057.196-.12.149-.201-.029-.051-.018-.074.022-.114.04-.04.039-.073.056-.122.025-.072.047-.186.104-.245.098-.099.185-.011.163.108-.013.067-.073.396.074.169.045-.069.101-.169.161-.208.088-.057.123-.078.149-.18.013-.05.013-.106.02-.158.004-.028.021-.07.021-.096 0-.026-.018-.045-.014-.075.009-.083.145-.145.118-.247-.01-.038-.07-.076-.092-.107a.279.279 0 0 1-.053-.152c-.011-.133.006-.189-.094-.276-.077-.067-.06-.2-.027-.291.033-.092.085-.186.025-.283a.332.332 0 0 0-.187-.14c-.112-.025-.184-.004-.252.076-.058.067-.111.125-.171.191-.053.059-.113.182-.183.218-.149.076-.07-.158-.063-.218.021-.191-.138-.138-.205-.021-.023.039-.013.091-.033.138-.028.065-.125.121-.178.128-.031-.107.205-.381-.006-.381-.101 0-.197.297-.268.227-.057-.056-.099-.091-.164.052a.194.194 0 0 1-.195.116c-.008-.048.028-.141-.071-.095z" fill="#211915"/><path d="M5.096 5.847c-.02.096-.069.186-.096.278-.049.168-.06.361-.044.536.005.053.026.124.095.108.074-.018.117-.128.14-.19.019-.05.035-.101.046-.154.011-.056.001-.112.007-.17.012-.129.103-.237.105-.368.001-.07-.006-.143.002-.212.005-.048.017-.098.023-.147.007-.058-.004-.122.007-.179.007-.034.029-.06.045-.091.034-.065.018-.114.013-.187-.003-.052-.013-.082-.068-.077-.036.003-.059.022-.082.048a.69.69 0 0 1-.072.071c-.057.048-.061.21-.076.324-.017.138-.018.272-.045.41zM5.321 7.879c.021.101.014.209.033.311.015.079.027.152.044.231.027.12.023.252.086.361.015.026.04.094.073.077.022-.012.037-.126.039-.145.013-.129.039-.25-.001-.379-.029-.093-.011-.202-.014-.3-.004-.099-.024-.193-.032-.29-.019-.23.014-.46.014-.69 0-.124-.008-.243-.019-.366-.006-.066.008-.139-.055-.184-.102-.073-.164.058-.164.141.001.186 0 .376-.009.562-.012.223-.04.45.005.671zM5.709 7.868c.002.105.016.195.037.297.014.07.044.142.061.212.021.089.033.332.144.363.101.029.124-.124.123-.195-.001-.072-.028-.124-.046-.193-.02-.074-.011-.152-.034-.227-.013-.041-.028-.078-.038-.12-.013-.056-.007-.111-.012-.168-.008-.09-.033-.169-.052-.255-.02-.09-.01-.19-.01-.283 0-.051.005-.103-.041-.134-.13-.089-.144.135-.149.212-.01.162.013.328.017.491z" fill="#ac5d4d"/><path d="M13.957 6.313c-.022-.068-.046-.116-.055-.188-.006-.045-.002-.096-.012-.141-.009-.04-.037-.073-.049-.11a1.421 1.421 0 0 1-.064-.259c-.012-.09.001-.195-.034-.28-.033-.079-.083-.14-.091-.23-.009-.09-.046-.16-.074-.242-.01-.031-.025-.144.039-.105.024.015.023.068.067.041.036-.022.032-.108.027-.141-.013-.101-.057-.185-.102-.274-.032-.063-.059-.141-.084-.209-.027-.076-.033-.153-.084-.219-.047-.06-.066-.104-.101-.176-.053-.107-.095-.211-.148-.318-.024-.049-.07-.092-.086-.143-.015-.049.005-.108-.003-.158-.008-.051-.039-.088-.068-.128-.042-.058-.095-.098-.14-.151-.047-.055-.095-.115-.151-.16-.078-.063-.176-.095-.261-.151a4.612 4.612 0 0 0-.406-.241 1.505 1.505 0 0 0-.431-.164c-.046-.006-.21-.055-.15.047.014.024.05.043.03.082-.015.029-.063.035-.09.033-.022-.001-.087.014-.108.009a.512.512 0 0 0-.254.023c-.053.018-.076.039-.116.072-.049.041-.115.064-.159.111-.053.057.014.065.041.113.032.058-.028.125-.065.167-.055.064-.113.121-.149.2-.071.155-.191.286-.245.447-.018.055-.04.096-.066.148-.015.03-.027.072-.017.106.009.033.036.036.054.059.019.024.02.072.014.102-.007.041-.033.086-.05.123a.729.729 0 0 0-.046.172c-.01.058-.027.116-.039.174-.014.071-.017.145-.031.214a2.288 2.288 0 0 0-.041.495c.002.056.01.112.014.168.003.056.019.165-.033.206-.057-.043-.062-.144-.085-.211-.025-.072-.06-.133-.093-.198a1.51 1.51 0 0 1-.141-.538c-.01-.109-.057-.176-.064-.284a.683.683 0 0 0-.13-.364c-.049-.065-.111-.131-.1-.215.003-.028.046-.031.039-.08-.005-.033-.045-.06-.063-.085a1.73 1.73 0 0 0-.324-.327c-.106-.086-.112-.228-.217-.309-.137-.106-.344-.106-.501-.185-.061-.03-.121-.07-.183-.089-.062-.02-.139-.004-.2-.029-.019-.065.047-.073.045-.126-.003-.069-.093-.029-.146-.032-.227-.013-.439.156-.61.282a1.337 1.337 0 0 0-.253.233 2.327 2.327 0 0 1-.262.272c-.086.075-.115.187-.194.272-.065.071-.16.172-.177.268-.011.059.018.069.041.119.042.094-.009.211-.039.3-.029.081-.043.163-.061.247-.047.214-.065.448-.118.656-.034.133-.138.265-.137.404.001.119.122.097.159.19.048.121.019.305.019.433 0 .106-.022.211-.014.317.004.05.02.094.02.144a.792.792 0 0 1-.022.212c-.009.036-.024.069-.001.106.03.051.062.014.103.03.108.043.05.274.058.355.019.182.008.382.079.554.031.076.021.162.046.238.02.062.082.091.127.135.051.05.027.176.027.243 0 .111.03.188.071.291.025.064.013.148.049.207.021.035.042.04.075.013.012-.009.019-.031.03-.038.018-.009.058-.004.078-.003.012.055.042.11.057.164.025.088.031.179.063.265.037.1.111.205.161.306.024.048.053.088.065.141.011.054.013.083.057.115.044.033.08.029.13.045.053.017.074.041.113.077.06.054.127.106.196.157.246.221.517.346.794.346 1.224 0 1.623-1.393 1.666-3.114.003-.108.034-.093.039-.026.09 1.076.891 2.752 1.84 2.752.468 0 .885-.376 1.164-.964.038-.048.079-.072.102-.138.025-.074.027-.154.055-.227.048-.127.061-.321.158-.396.033-.026.081-.033.103-.08.032-.067.009-.208-.003-.281a2.016 2.016 0 0 1-.03-.472c.065-.019.083-.097.088-.158.006-.071 0-.146 0-.217 0-.066.019-.152.007-.215-.012-.066-.071-.134-.008-.199.055-.057.098-.022.112-.111a.601.601 0 0 0-.043-.302z" fill="#211915"/><path d="M7.24 8.366c-.028-1.161.377-2.064 1.174-2.201.819-.14 1.269.38 1.51 1.161.024.079.077.076.08-.009a7.01 7.01 0 0 0-.085-1.298c-.35-2.244-1.203-3.298-2.099-3.243-.906.055-1.385 1.78-1.092 3.757.102.69.232 1.335.427 1.859.031.084.087.062.085-.026zM10.74 6.889c.199-.655.718-1.115 1.316-1.115.667 0 1.226.575 1.375 1.348.026.132.079.141.091-.001a7.019 7.019 0 0 0-.009-1.294c-.194-2.024-1.208-3.445-1.901-3.352-.771.104-1.354 1.759-1.16 3.627.028.275.071.541.125.793.027.118.106.184.163-.006z" fill="#fff"/><path d="M9.382 7.202c0 .36-.186.653-.415.653-.229 0-.415-.292-.415-.653 0-.36.186-.653.415-.653.229.001.415.293.415.653zM12.577 6.817c.068.295-.033.569-.225.613-.192.044-.402-.16-.469-.454-.067-.295.033-.569.225-.613.191-.044.401.159.469.454z" fill="#fff"/><path d="M8.606 10.455c-.242-.026-.477-.146-.694-.341a2.64 2.64 0 0 1-.196-.157c-.039-.035-.059-.06-.113-.077-.051-.016-.087-.012-.13-.045-.039-.028-.044-.054-.053-.098-.163.001-.126-.118-.144-.247a.66.66 0 0 0-.017-.077.926.926 0 0 1-.085-.192c-.034-.065-.069-.129-.092-.197a4.398 4.398 0 0 0-.068-.18.04.04 0 0 0-.02.005c-.012.006-.019.029-.03.038-.034.026-.055.021-.077-.014-.036-.059-.024-.142-.049-.207-.04-.103-.071-.18-.071-.291 0-.068.024-.194-.027-.243-.044-.043-.106-.073-.127-.135-.025-.076-.014-.162-.045-.238-.062-.148-.062-.317-.073-.477-.04-.051-.079-.1-.087-.177a1 1 0 0 1 .013-.258c-.036-.008-.065.02-.093-.027-.023-.037-.008-.07.001-.106a.753.753 0 0 0 .022-.212c-.001-.049-.017-.094-.02-.144-.007-.106.014-.211.014-.317 0-.128.029-.311-.019-.433-.037-.093-.158-.071-.159-.19-.001-.139.103-.271.137-.404.053-.208.071-.442.118-.656.018-.084.032-.166.06-.248.03-.089.082-.206.039-.3-.02-.044-.045-.057-.043-.101l-.063.038c-.122.069-.21.135-.227.282-.015.127-.094.218-.166.327a1.897 1.897 0 0 0-.229.451c-.028.085-.132.254-.059.339.036.042.121.004.154-.021.038-.029.06-.096.114-.083.004.052-.02.078-.032.124-.016.06 0 .129-.017.191-.033.12-.145.174-.205.271-.042.068-.032.132-.039.208-.006.054-.029.099-.021.157.014.098.114.188.163.062.012-.031.012-.161.082-.129.055.025.004.095.001.129-.007.093.096.143.104.236.01.115-.038.256-.059.369-.033.179-.007.41.004.593.004.062.02.134.063.185.038.045.069.057.082.116.038.17-.022.375-.029.546-.008.175 0 .41.062.576.034.092.042.044.118.083.128.065.081.334.125.465.044.127.143.231.183.356.029.09.034.183.084.266.034.057.114.173.128.159.127-.097.112.021.203.122.051.056.109.115.146.181.034.06.04.126.082.182.121.161.238.041.178-.123-.013-.036-.106-.11-.065-.151.063-.063.124.074.13.112.012.069-.021.154.011.217.031.059.141.105.199.147.112.081.182.265.356.194.176-.072-.08-.261.092-.302.134-.032.283.147.427.063.062-.036.078-.118.054-.178a.03.03 0 0 0-.006-.014zM12.59 10.006a.897.897 0 0 1-.338.067c-.95 0-1.751-1.676-1.84-2.752-.006-.066-.036-.081-.039.026-.038 1.544-.364 2.825-1.316 3.071a.434.434 0 0 1-.14.157c-.048.029-.202.021-.176.094.01.029.128.082.159.105.114.085.308.027.418-.055.047-.035.096-.111.148-.133.069-.028.126-.005.192-.054.269-.199.244-.55.452-.781.212-.236.176-.518.296-.79.159-.029.307.362.361.455.107.185.208.378.308.567.034.064.129.007.129.111 0 .053.08.09.118.128.023.024.019.048.055.055a.124.124 0 0 0 .075-.021c.048-.041.015-.103.035-.155.069-.017.091.052.123.094.041.055.082.07.137.101.058.033.083.08.156.077.086-.003.131-.029.192-.088.091-.088.236-.031.35-.085.058-.028.26-.076.212-.156-.011-.017-.046-.022-.067-.038zM14.12 7.71c-.027-.24-.159-.462-.136-.711.009-.1.061-.179.071-.275.01-.104-.015-.161-.048-.253-.043-.12-.034-.251-.069-.373a.729.729 0 0 0-.057-.145l-.005-.009a.156.156 0 0 1 .015.041c.01.045.006.096.012.141.009.072.032.12.055.188a.598.598 0 0 1 .042.301c-.014.089-.057.055-.112.111-.062.064-.004.132.008.199.012.062-.007.149-.007.215 0 .071.006.146 0 .217-.005.061-.023.139-.088.158-.009.161.002.314.03.472.013.073.035.214.003.281-.022.047-.07.055-.103.08-.097.076-.111.27-.158.396-.024.065-.029.135-.047.202.016.077.021.161.016.259-.004.091-.026.312.128.267.072-.021.123-.172.13-.238.01-.103.032-.121.071-.213a.495.495 0 0 0 .013-.254.286.286 0 0 1 .013-.174.592.592 0 0 0 .03-.217c-.003-.066-.029-.132-.039-.189-.006-.033-.034-.059.002-.085.041-.029.048.027.082.028.19.007.163-.288.148-.42zM13.443 3.959c.051.066.057.143.084.219.024.067.052.145.084.209.045.089.089.172.102.274.004.033.009.119-.027.141-.044.027-.043-.027-.067-.041-.065-.04-.05.074-.039.105.027.082.065.152.074.242.009.09.059.151.091.23.035.085.022.19.034.28.009.07.03.154.052.225 0-.008 0-.016.002-.025.007-.028.023-.035.035-.061.016-.033.017-.073.019-.108a.483.483 0 0 0-.034-.25c-.055-.116-.071-.257-.139-.364a.29.29 0 0 1-.055-.198c.039-.002.08.004.117-.006.102-.027-.188-.682-.222-.743-.034-.061-.079-.114-.119-.17-.016-.023-.065-.125-.093-.13.036.068.055.111.101.171zM9.756 4.206c.007.108.055.175.065.284.016.179.059.375.142.539.033.064.068.126.093.198.023.066.027.168.085.211.052-.041.037-.15.033-.206-.003-.056-.012-.112-.014-.168-.004-.16.009-.339.041-.495.014-.07.018-.143.031-.214.011-.058.029-.115.039-.174a.667.667 0 0 1 .047-.171c.017-.037.042-.083.05-.123.006-.031.004-.078-.014-.102-.018-.023-.045-.026-.054-.059-.01-.034.002-.076.017-.106.026-.052.048-.093.066-.148.008-.024.018-.047.028-.07-.074.013-.137.083-.181.171-.035.069-.081.133-.103.208a1.589 1.589 0 0 1-.069.201.514.514 0 0 1-.095.152c-.04.049-.042.103-.07.15-.045-.031-.043-.111-.063-.158a.744.744 0 0 0-.098-.171.153.153 0 0 0-.06-.041.685.685 0 0 1 .084.292z" fill="#ac5d4d"/></svg>