<svg xmlns="http://www.w3.org/2000/svg" viewBox="0 0 426.7 95.2"><g fill="#A92D38"><path d="M177.7 10.1C175.6 3.4 171.5 0 165.6 0c-6 0-10 3.4-12.1 10.1l-26.2 85.1h18.5l6.5-20.8h26.6l6.4 20.8H204l-26.3-85.1zm-20.4 48l8.3-26.8 8.3 26.8h-16.6zM186.3 0v16.3h20.5v78.9h17.9V16.3h20.5V0h-58.9zM278.1 10.1C275.9 3.4 271.9 0 265.9 0c-6 0-10 3.4-12.1 10.1l-26.2 85.1h18.5l6.5-20.8h26.6l6.4 20.8h18.7l-26.2-85.1zm-20.5 48l8.3-26.8 8.3 26.8h-16.6zM341.4 54.7c7.1-2.3 12.9-6.1 17.5-11.4 4.7-5.4 7-11.3 7-17.8 0-7-3-13-8.9-18S344.2-.1 336.5-.1H316c-3.1 0-5.8 1-8.1 3.1s-3.4 4.5-3.4 7.3v84.8h17.9V16.3h14.1c3 0 5.7 1.1 8 3.2s3.5 4.5 3.5 7.2c0 3.9-2.2 7.2-6.6 9.9-2.1 1-4.1 2.1-6.1 3.1s-4 2.1-6.1 3.1c-4.4 3-6.7 6.8-6.7 11.4 0 2.5 1.6 6 4.7 10.4l21.5 30.5h20.9l-28.2-40.4zM375.5 0v95.2h17.9V0h-17.9z"/></g><g fill="#A92D38"><path d="M404.5 76.5c-.5-.3-1-.4-1.4-.4-.8 0-1.5.4-2 1.3-.6.8-.9 1.8-.9 2.9v14.9h4.5V82.9l22 11.5v-6.3l-22.2-11.6zM424.5 55.9c-1.5-2.1-3.2-3.1-5.2-3.1-2.4 0-4.3 1-5.9 3.1-1.5-2.1-3.2-3.1-5.2-3.1h-.6c-2 0-3.7 1-5.2 3.1s-2.2 4.5-2.2 7.3.7 5.2 2.2 7.3c1.5 2.1 3.2 3.1 5.2 3.1 2.4 0 4.3-1 5.8-3.1 1.5 2.1 3.2 3.1 5.2 3.1h.7c2 0 3.7-1 5.2-3.1s2.2-4.5 2.2-7.3c0-2.7-.7-5.2-2.2-7.3zm-13.8 10.6c-.7 1-1.5 1.5-2.4 1.5-1 0-2-.4-2.8-1.2-.9-.9-1.4-2.1-1.4-3.6s.4-2.7 1.4-3.5c.8-.8 1.8-1.2 2.8-1.2.9 0 1.7.5 2.4 1.5s1.1 2.1 1.1 3.3c-.1 1.1-.4 2.2-1.1 3.2zm10.9.5c-.9.9-1.9 1.3-3 1.3-.9 0-1.8-.5-2.5-1.6-.7-1-1.1-2.2-1.1-3.5 0-1.3.4-2.5 1.1-3.5.8-1 1.6-1.6 2.5-1.6 1.1 0 2.1.4 3 1.3 1 .9 1.5 2.2 1.5 3.8-.1 1.5-.6 2.8-1.5 3.8zM413.4 26c-6.6 0-12 5.4-12 12.1 0 6.7 5.4 12.1 12 12.1s12-5.4 12-12.1c0-6.7-5.3-12.1-12-12.1zm0 19.6c-4.1 0-7.5-3.4-7.5-7.5 0-4.2 3.4-7.5 7.5-7.5s7.5 3.4 7.5 7.5-3.3 7.5-7.5 7.5zM413.4 0c-6.6 0-12 5.4-12 12.1 0 6.7 5.4 12.1 12 12.1s12-5.4 12-12.1c0-6.7-5.3-12.1-12-12.1zm0 19.6c-4.1 0-7.5-3.4-7.5-7.5 0-4.2 3.4-7.5 7.5-7.5s7.5 3.4 7.5 7.5-3.3 7.5-7.5 7.5z"/></g><linearGradient id="a" gradientUnits="userSpaceOnUse" x1="24.777" y1="95.128" x2="24.777" y2=".002"><stop offset="0" stop-color="#6c4d9d"/><stop offset=".043" stop-color="#6855a2"/><stop offset=".11" stop-color="#5b6bb1"/><stop offset=".191" stop-color="#488ec9"/><stop offset=".256" stop-color="#35afdf"/><stop offset=".485" stop-color="#9ecf81"/><stop offset=".652" stop-color="#fdd255"/><stop offset=".698" stop-color="#fccc55"/><stop offset=".759" stop-color="#fbbb55"/><stop offset=".828" stop-color="#f8a056"/><stop offset=".903" stop-color="#f47a56"/><stop offset=".982" stop-color="#ef4957"/><stop offset="1" stop-color="#ee3d57"/></linearGradient><path fill="url(#a)" d="M42.3 0h7.2v17c0 4.7-.1 9.4-.3 14.2-.3 6.8-.7 13.6-1.9 20.4-.8 4.6-2.4 9.1-4.4 13.4-3.2 6.8-8.4 12.6-14.1 17.5-5.1 4.5-11.3 7.8-17.7 10-3.5 1.1-7.3 2.1-11.1 2.6V80.9c4.6-.7 9-2.3 13.1-4.5 4.9-2.6 9.3-6 12.9-10.1 3.8-4.2 6.8-9.1 9.2-14.3 2.7-6 4.2-12.4 5.2-18.8 1.2-8.2 1.8-16.5 1.9-24.8.1-2.8 0-5.6 0-8.4z"/><linearGradient id="b" gradientUnits="userSpaceOnUse" x1="59.088" y1="95.147" x2="59.088"><stop offset="0" stop-color="#6c4d9d"/><stop offset=".043" stop-color="#6855a2"/><stop offset=".11" stop-color="#5b6bb1"/><stop offset=".191" stop-color="#488ec9"/><stop offset=".256" stop-color="#35afdf"/><stop offset=".485" stop-color="#9ecf81"/><stop offset=".652" stop-color="#fdd255"/><stop offset=".698" stop-color="#fccc55"/><stop offset=".759" stop-color="#fbbb55"/><stop offset=".828" stop-color="#f8a056"/><stop offset=".903" stop-color="#f47a56"/><stop offset=".982" stop-color="#ef4957"/><stop offset="1" stop-color="#ee3d57"/></linearGradient><path fill="url(#b)" d="M52.4 0h13.3v95.1H52.5c-.1-10.1 0-20.2 0-30.3-.1-21.6 0-43.2-.1-64.8z"/><linearGradient id="c" gradientUnits="userSpaceOnUse" x1="93.429" y1="95.117" x2="93.429"><stop offset="0" stop-color="#6c4d9d"/><stop offset=".043" stop-color="#6855a2"/><stop offset=".11" stop-color="#5b6bb1"/><stop offset=".191" stop-color="#488ec9"/><stop offset=".256" stop-color="#35afdf"/><stop offset=".485" stop-color="#9ecf81"/><stop offset=".652" stop-color="#fdd255"/><stop offset=".698" stop-color="#fccc55"/><stop offset=".759" stop-color="#fbbb55"/><stop offset=".828" stop-color="#f8a056"/><stop offset=".903" stop-color="#f47a56"/><stop offset=".982" stop-color="#ef4957"/><stop offset="1" stop-color="#ee3d57"/></linearGradient><path fill="url(#c)" d="M68.7 0h7.2c-.1 9.7.3 19.4 1.4 29 .9 7.5 2.3 15 5.2 21.9 2.8 6.7 6.9 13 12.2 18 5.1 4.8 11.2 8.5 17.8 10.7 1.9.6 3.8 1.1 5.7 1.3v14.2c-3.8-.5-7.5-1.5-11.1-2.7-4.3-1.5-8.5-3.4-12.3-5.9-2.8-1.8-5.3-3.9-7.8-6.2-4-3.7-7.6-7.9-10.3-12.7-2.1-3.7-3.7-7.7-4.9-11.8-1.1-4.1-1.6-8.4-2-12.6-.8-9.2-1.1-18.3-1.1-27.5V0z"/><linearGradient id="d" gradientUnits="userSpaceOnUse" x1="59.088" y1="95.145" x2="59.088" y2=".001"><stop offset="0" stop-color="#6c4d9d"/><stop offset=".043" stop-color="#6855a2"/><stop offset=".11" stop-color="#5b6bb1"/><stop offset=".191" stop-color="#488ec9"/><stop offset=".256" stop-color="#35afdf"/><stop offset=".485" stop-color="#9ecf81"/><stop offset=".652" stop-color="#fdd255"/><stop offset=".698" stop-color="#fccc55"/><stop offset=".759" stop-color="#fbbb55"/><stop offset=".828" stop-color="#f8a056"/><stop offset=".903" stop-color="#f47a56"/><stop offset=".982" stop-color="#ef4957"/><stop offset="1" stop-color="#ee3d57"/></linearGradient><path fill="url(#d)" d="M52.4 0v95.1h13.2V0H52.4"/><linearGradient id="e" gradientUnits="userSpaceOnUse" x1="93.429" y1="95.117" x2="93.429" y2=".001"><stop offset="0" stop-color="#6c4d9d"/><stop offset=".043" stop-color="#6855a2"/><stop offset=".11" stop-color="#5b6bb1"/><stop offset=".191" stop-color="#488ec9"/><stop offset=".256" stop-color="#35afdf"/><stop offset=".485" stop-color="#9ecf81"/><stop offset=".652" stop-color="#fdd255"/><stop offset=".698" stop-color="#fccc55"/><stop offset=".759" stop-color="#fbbb55"/><stop offset=".828" stop-color="#f8a056"/><stop offset=".903" stop-color="#f47a56"/><stop offset=".982" stop-color="#ef4957"/><stop offset="1" stop-color="#ee3d57"/></linearGradient><path fill="url(#e)" d="M68.7 0v15.6c-.1 9.2.3 18.4 1.1 27.5.4 4.2.9 8.5 2 12.6 1.2 4.1 2.8 8.1 4.9 11.8 2.7 4.8 6.3 9 10.3 12.7 2.4 2.2 5 4.4 7.8 6.2 3.8 2.5 8 4.4 12.3 5.9 3.6 1.2 7.3 2.2 11.1 2.7V80.8c-1.9-.3-3.8-.7-5.7-1.3-6.7-2.1-12.8-5.8-17.8-10.7-5.3-5-9.4-11.3-12.2-18-3-6.9-4.3-14.5-5.2-21.9-1.2-9.6-1.5-19.3-1.4-29-2.4.1-4.8.1-7.2.1"/></svg>