<svg enable-background="new 0 0 470.93 254.213" viewBox="0 0 470.93 254.213" xmlns="http://www.w3.org/2000/svg"><path d="m313.61 254.213h-79.37v-.02h7.5c.05-.1.11-.26.16-.47 2.99-2.63 17.86-15.75 21.69-19.75 1.99-2.07 1.72-6.29 1.72-6.29v-212.58s-1.87-14.42-18.44-15.08l45.95.19h-11.26v-.01c-2.11 0-4.12.44-5.95 1.23-5.32 2.31-9.05 7.61-9.05 13.78v198.94c0 5.77-.17 10.31.25 14.22.02.17.04.33.06.5.06.46.12.91.2 1.36 1.31 7.44 5.83 12.19 19.47 19.83 3.37 1.89 7.08 3.09 10.91 3.5 4.84.52 10.69.65 16.16.65z" fill="#39383a"/><path d="m263.59 233.973c-3.83 4-18.7 17.12-21.69 19.75-.34.31-.53.47-.53.47h-221.69s-15.95-15.23-17.58-15.95c-1.1-1.5-2.1-3.98-2.1-10.14v-214.09c0-14.6 11.77-14.01 11.77-14.01s4.51 0 12.29 0v1.43h213.02v-1.43h8.61c.4 0 .8.01 1.18.02 16.57.66 18.44 15.08 18.44 15.08v212.58s.27 4.22-1.72 6.29z" fill="#4d4d4f"/><path d="m241.9 253.723c-.05.21-.11.37-.16.47h-222.06s-6.08-102.39 30.99-107.42c6.85-.81 15.4 1 34.79 5.63s71.11 4.63 90.5 0 27.9-5.63 34.79-5.63c12.85 0 20.78 12.53 25.57 29.04 8.63 29.73 7.04 72.36 5.58 77.91z" fill="#58595b"/><path d="m237.079 1.437v8.864s-.074 1.125-1.568 1.125c-1.5 0-104.943 0-104.943 0s-103.443 0-104.943 0-1.568-1.125-1.568-1.125v-8.864l106.511.052z" fill="#333332"/><path d="m130.71 156.289c-26.236 0-31.464-1.291-35.932-1.887s-3.137 3.475-3.137 3.475 2.281 15.092 2.567 20.851c.285 5.759 6.464 4.964 6.464 4.964h60.076s6.179.794 6.464-4.964 2.567-20.851 2.567-20.851 1.331-4.071-3.137-3.475-9.696 1.887-35.932 1.887z" fill="#3f3f3f" stroke="#424243" stroke-miterlimit="10" stroke-width="3"/><ellipse cx="130.568" cy="78.595" fill="#333332" rx="112.785" ry="64.787"/><ellipse cx="130.52" cy="78.446" fill="#424243" rx="111.597" ry="63.545"/><ellipse cx="130.853" cy="76.957" fill="#4d4d4d" rx="91.683" ry="51.531"/><path d="m130.853 98.105-5.68 5.933h11.526z" fill="#363635"/><path d="m130.936 56.106c-30.454 0-63.272 3.872-63.272 3.872s-7.723.223-11.502 4.17-4.135 8.44-4.135 12.808.988 8.339 1.854 10.425c1.236 2.979 4.385 4.766 6.06 4.766s5.632 0 5.632 0h65.364 65.363 5.632c1.675 0 4.824-1.787 6.06-4.766.866-2.087 1.854-6.057 1.854-10.425s-.356-8.862-4.135-12.808-11.502-4.17-11.502-4.17-32.819-3.872-63.273-3.872z" fill="#5b5c5c" stroke="#4d4d4f" stroke-miterlimit="10" stroke-width="2"/><path d="m69.256 64.148h124.62v7h7.414s.642.397.642 2.855c0 2.457-.642 2.954-.642 2.954h-138.878s-.903-.695-.903-3.078.903-3.326.903-3.326h6.702z" fill="#373737"/><path d="m50.862 232.172v-1.424c1.428-.351 2.36-.821 2.795-1.408h1.404v5.755l-.012 1.266h-1.871l-.016-1.266v-3.956c-.985.5-1.751.844-2.3 1.033z" fill="#f1f1f2"/><path d="m62.541 231.189-1.664.375c-.157-.709-.569-1.064-1.234-1.064-.968 0-1.452.771-1.452 2.314.391-.529 1.008-.794 1.851-.794.77 0 1.4.21 1.888.631.488.42.732.918.732 1.492 0 .611-.269 1.152-.808 1.621-.538.469-1.257.704-2.157.704-.887 0-1.588-.191-2.102-.572-.514-.382-.863-.836-1.047-1.363s-.275-1.039-.275-1.535c0-1.06.285-1.935.856-2.624s1.417-1.033 2.538-1.033c.811 0 1.462.178 1.954.534s.799.794.92 1.314zm-3.013 4.119c.351 0 .643-.098.877-.296.234-.197.351-.476.351-.837 0-.32-.126-.574-.378-.761s-.533-.28-.844-.28c-.327 0-.616.101-.868.303s-.378.467-.378.794c0 .306.117.563.351.768.233.206.53.309.889.309z" fill="#f1f1f2"/><path d="m63.2 232.648h2.892v1.218h-2.892z" fill="#f1f1f2"/><path d="m67.072 229.447h3.848c.69 0 1.208.071 1.555.213.347.141.633.344.859.607s.339.584.339.962c0 .766-.496 1.277-1.488 1.534.573.108 1.002.323 1.289.644.286.321.43.671.43 1.049 0 .517-.234.964-.702 1.341s-1.228.565-2.281.565h-3.848v-6.915zm1.93 1.221v1.515h1.464c.536 0 .874-.089 1.013-.266s.209-.347.209-.509c0-.176-.057-.327-.172-.453s-.241-.206-.378-.238-.407-.048-.811-.048h-1.325zm0 2.745v1.667h1.485c.507 0 .865-.074 1.075-.223.209-.149.314-.356.314-.623 0-.223-.101-.415-.302-.578-.201-.162-.535-.243-1.002-.243z" fill="#f1f1f2"/><path d="m76.299 229.447v6.915h-1.93v-6.915z" fill="#f1f1f2"/><path d="m82.835 229.447v1.368h-2.045v5.547h-1.96v-5.547h-2.057v-1.368z" fill="#f1f1f2"/><path d="m148.673 175.577c-1.848 0-3.7 0-5.615 0 0-.422 0-.807 0-1.313h3.849c-.28-.846-.511-1.535-.735-2.227-.558-1.723-1.08-3.461-1.693-5.163-.149-.412-.549-.922-.915-1.007-.617-.143-.817.497-.988 1.026-.854 2.641-1.732 5.273-2.558 7.923-.194.622-.477.833-1.104.815-1.723-.047-3.447-.004-5.171-.02-1.746-.016-2.888-1.158-2.926-2.966-.034-1.628-.037-3.258 0-4.886.042-1.836 1.148-2.953 2.912-2.978 1.554-.022 3.108-.005 4.716-.005v1.383c-1.335 0-2.663 0-3.991 0-1.873 0-2.303.452-2.303 2.427 0 1.229-.006 2.458.002 3.687.008 1.314.606 1.955 1.844 1.968 1.004.011 2.009.002 3.065.002 0-1.459 0-2.815 0-4.287-.854 0-1.684 0-2.556 0 0-.501 0-.887 0-1.334h3.983v5.647c.072.008.145.017.217.025.843-2.596 1.687-5.192 2.527-7.789.48-1.485 1.365-2.088 2.792-1.869.794.122 1.382.585 1.642 1.371 1.032 3.118 2.032 6.247 3.041 9.373.012.049-.02.112-.035.197z" fill="#f2f9fb"/><path d="m113.483 175.606c0-.479 0-.867 0-1.367 1.498 0 2.967.016 4.436-.005 1.229-.018 2.148-.91 2.192-2.077.043-1.141-.866-2.118-2.074-2.203-.491-.034-.988.013-1.476-.04-.751-.081-1.299-.79-1.298-1.608.001-.83.543-1.572 1.301-1.594 1.606-.047 3.215-.014 4.865-.014v1.352c-.822 0-1.633 0-2.444 0-.76 0-1.519 0-2.279 0-.001.152-.003.303-.004.455.45.02.9.048 1.351.059 1.698.039 2.924 1.029 3.348 2.709.517 2.052-.956 4.235-2.984 4.319-1.61.067-3.224.014-4.934.014z" fill="#f2f9fb"/><path d="m113.47 173.703c0-.491 0-.858 0-1.412h4.739c.001-.132.001-.265.001-.397-.483-.02-.966-.048-1.45-.057-1.357-.023-2.366-.673-2.961-1.923-.606-1.272-.513-2.547.286-3.717.548-.802 1.303-1.346 2.256-1.377 1.665-.053 3.333-.015 5.064-.015v1.354c-1.496 0-2.993-.025-4.488.007-1.485.032-2.449 1.418-2.001 2.815.27.84 1.04 1.404 2.027 1.462.464.027.933-.007 1.394.04.748.077 1.316.782 1.325 1.589.008.807-.558 1.593-1.289 1.614-1.606.048-3.215.017-4.903.017z" fill="#f2f9fb"/><path d="m130.123 164.824v1.336c-1.481 0-2.948-.001-4.415 0-1.542.002-2.08.547-2.09 2.143-.008 1.285-.003 2.57.006 3.855.011 1.483.581 2.081 1.98 2.085 1.471.004 2.941.001 4.468.001v1.372c-1.097 0-2.178.002-3.259-.001-.683-.002-1.369.023-2.049-.026-1.254-.089-2.395-1.261-2.427-2.573-.047-1.883-.043-3.769-.001-5.653.027-1.206 1.046-2.448 2.199-2.512 1.844-.103 3.698-.027 5.588-.027z" fill="#f2f9fb"/><path d="m140.226 175.547c.953-2.943 1.879-5.822 2.827-8.693.067-.203.277-.419.468-.488.104-.038.397.187.451.35.774 2.301 1.521 4.613 2.296 6.986-1.124 0-2.152 0-3.217 0-.036-.342-.068-.645-.099-.949-.046-.017-.092-.033-.138-.05-.183.533-.371 1.064-.549 1.599-.471 1.417-.469 1.418-2.039 1.245zm2.75-3.4h1.128c-.176-.544-.325-1.006-.474-1.468-.065.004-.13.008-.194.012-.141.447-.282.894-.46 1.456z" fill="#f2f9fb"/><path d="m135.445 172.009c-.412-.12-.656-.192-.949-.278 0-.374 0-.762 0-1.214h2.086v3.181c-1.067 0-2.127.061-3.173-.041-.272-.026-.7-.551-.713-.862-.071-1.712-.051-3.428-.03-5.143.007-.601.359-.953.939-.959 1.585-.015 3.169-.005 4.825-.005v1.359c-1.192 0-2.362.034-3.529-.012-.716-.028-.992.233-.947.988.048.797.003 1.6.013 2.4.012.955.453 1.184 1.478.586z" fill="#f2f9fb"/><path d="m125.551 172.239c1.472.275 2.997-.013 4.524.16v1.297c-1.746 0-3.458.042-5.164-.043-.272-.014-.68-.57-.742-.928-.119-.688-.035-1.414-.035-2.198h4.857v1.282c-1.133 0-2.264 0-3.396 0-.014.143-.029.287-.044.43z" fill="#f2f9fb"/><path d="m130.123 166.701v1.288c-1.515.215-3.068-.138-4.556.191.005.118.01.236.015.354h3.413v1.346c-1.58 0-3.154 0-4.845 0 0-.789-.068-1.613.036-2.413.037-.286.483-.722.755-.732 1.712-.068 3.428-.034 5.182-.034z" fill="#f2f9fb"/><path d="m131.956 78.148h-65.875-2.671s1.147 1.428 1.738 2.05c5.509 5.802 11.76 6.439 11.76 6.439h5.976v.745h48.931 48.931v-.745h5.976s6.251-.638 11.76-6.439c.591-.622 1.738-2.05 1.738-2.05h-2.672z" fill="#373737"/><path d="m210.558 205.487c0 9.806-11.264 11.468-11.264 11.468h-68.584s-66.588 0-68.584 0-11.264-1.662-11.264-11.468 11.264-11.468 11.264-11.468h68.584 68.584s11.264 1.662 11.264 11.468z" fill="#414141"/><path d="m199.23 214.309h-136.755c-4.819 0-8.761-3.943-8.761-8.761 0-4.819 3.943-8.761 8.761-8.761h136.755c4.819 0 8.761 3.943 8.761 8.761.001 4.819-3.942 8.761-8.761 8.761z" fill="#353535"/><path d="m127.376 210.551h-1.602c-.345 0-.625-.28-.625-.625v-8.224c0-.345.28-.625.625-.625h1.602c.345 0 .625.28.625.625v8.224c0 .345-.28.625-.625.625z" fill="#d36061"/><path d="m131.511 210.551h-1.602c-.345 0-.625-.28-.625-.625v-8.224c0-.345.28-.625.625-.625h1.602c.345 0 .625.28.625.625v8.224c0 .345-.28.625-.625.625z" fill="#d36061"/><path d="m135.598 210.551h-1.602c-.345 0-.625-.28-.625-.625v-8.224c0-.345.28-.625.625-.625h1.602c.345 0 .625.28.625.625v8.224c0 .345-.279.625-.625.625z" fill="#d36061"/><path d="m198.249 211.594h-23.291c-3.358 0-6.106-2.748-6.106-6.106 0-3.358 2.748-6.106 6.106-6.106h23.291c3.358 0 6.106 2.748 6.106 6.106.001 3.358-2.747 6.106-6.106 6.106z" fill="#b6242e"/><path d="m194.067 207.572h-13.685c-.968 0-1.76-.792-1.76-1.76v-.649c0-.968.792-1.76 1.76-1.76h13.685c.968 0 1.76.792 1.76 1.76v.649c.001.968-.792 1.76-1.76 1.76z" fill="#9d2432"/><path d="m86.985 211.594h-23.291c-3.358 0-6.106-2.748-6.106-6.106 0-3.358 2.748-6.106 6.106-6.106h23.291c3.358 0 6.106 2.748 6.106 6.106 0 3.358-2.748 6.106-6.106 6.106z" fill="#b6242e"/><path d="m82.182 207.572h-13.685c-.968 0-1.76-.792-1.76-1.76v-.649c0-.968.792-1.76 1.76-1.76h13.685c.968 0 1.76.792 1.76 1.76v.649c0 .968-.792 1.76-1.76 1.76z" fill="#9d2432"/><path d="m163.55 233.332c0-.328 0-.594 0-.858.019-.017.037-.045.053-.045 1.041 0 2.083-.032 3.122.016.568.026 1.009.698.972 1.328-.037.648-.54 1.178-1.168 1.188-.925.015-1.85.006-2.775.006-.692.001-1.382.007-2.073-.002-.743-.009-1.178-.47-1.18-1.235-.001-.56 0-1.12 0-1.736h.853.858c0 .472-.001.919 0 1.365.002.561.053.614.577.615.867.001 1.733.001 2.6 0 .07 0 .141.002.211-.003.201-.015.37-.118.317-.337-.03-.12-.205-.28-.321-.287-.525-.032-1.054-.015-1.581-.016-.139.001-.277.001-.465.001z" fill="#fff"/><path d="m207.984 233.317c-.076.494.042.652.458.655 1.113.006 2.226.002 3.339.003h.492v.967c-.107.007-.229.024-.352.024-1.476.001-2.952.004-4.428-.001-.88-.003-1.274-.432-1.27-1.359.002-.522 0-1.043 0-1.571.067-.016.111-.037.155-.037.492-.002.984-.001 1.525-.001.074.434.406.401.727.4.973-.002 1.945-.001 2.917.001.149 0 .298.016.459.026v.894c-1.358-.001-2.696-.001-4.022-.001z" fill="#fff"/><path d="m159.319 232.396v.924c-1.358 0-2.697 0-4.028 0-.061.494.058.65.473.652 1.126.005 2.25.001 3.376.002h.45v.968c-.122.007-.246.023-.371.023-1.465.001-2.931.004-4.396 0-.888-.003-1.289-.428-1.285-1.345.001-.524 0-1.047 0-1.599h1.684c.089.341.35.381.653.378.985-.008 1.97-.003 2.955-.003z" fill="#fff"/><path d="m198.793 232.021h1.926c.312.493.644 1.018 1.011 1.599.355-.565.68-1.081 1.01-1.607h1.928c-.644 1.008-1.257 1.966-1.877 2.935-.705 0-1.403 0-2.121 0-.615-.959-1.229-1.917-1.877-2.927z" fill="#fff"/><path d="m152.543 231.692c-3.062 0-6.125 0-9.225 0 0-.333 0-.652 0-.989.11-.011.201-.029.291-.029 2.659-.001 5.319-.004 7.978.001.612 0 .983.396.956 1.017z" fill="#fff"/><path d="m173.651 232.894c0-.327 0-.589 0-.876h1.702v2.918c-.556 0-1.097 0-1.675 0-.012-.27-.023-.533-.037-.848-1.007 0-2.006 0-3.041 0 0-.418 0-.786 0-1.194z" fill="#fff"/><path d="m194.87 234.964c-.606 0-1.214.025-1.817-.017-.162-.012-.345-.199-.458-.354-.313-.43-.699-.58-1.214-.535-.534.046-1.074.01-1.644.01 0-.401 0-.769 0-1.187h1.726c.305 0 .609.001.914-.001.397-.004.471-.081.483-.487.003-.119.012-.238.019-.377h1.676c.13.733-.041 1.316-.766 1.758.422.362.806.692 1.191 1.022-.037.056-.073.112-.11.168z" fill="#fff"/><path d="m181.34 234.955c0-.338 0-.627 0-.956.153-.009.289-.023.425-.024.844-.002 1.688.001 2.532-.002.392-.002.48-.093.483-.493.005-.475.001-.951.001-1.456h1.725c0 .245.001.495-.001.745-.003.342-.009.686-.014 1.028-.008.62-.386 1.132-.967 1.147-1.378.035-2.76.011-4.184.011z" fill="#fff"/><path d="m160.536 231.683c-.062-.578.312-.998.905-1.008.68-.011 1.36-.003 2.039-.003h3.763.439v1.011c-2.383 0-4.765 0-7.146 0z" fill="#fff"/><path d="m186.465 231.69c-2.368 0-4.715 0-7.084 0-.008-.134-.02-.24-.023-.348-.003-.205-.001-.41-.001-.63.115-.017.193-.037.272-.037 1.968-.002 3.936-.006 5.904.001.594.001.961.397.932 1.014z" fill="#fff"/><path d="m194.544 231.694c-2.296 0-4.594 0-6.89 0-.046-.556.302-1.008.829-1.013 1.743-.017 3.486-.017 5.229 0 .538.005.889.457.832 1.013z" fill="#fff"/><path d="m168.566 231.685c.011-.608.336-1.002.872-1.006 1.685-.013 3.37-.013 5.054.001.53.004.883.441.85 1.005-2.257 0-4.516 0-6.776 0z" fill="#fff"/><path d="m206.228 231.688c0-.332 0-.654 0-.996h6.051v.996c-2.009 0-4.014 0-6.051 0z" fill="#fff"/><path d="m153.548 231.689c0-.339 0-.65 0-.989h6.047v.989c-2.003 0-4 0-6.047 0z" fill="#fff"/><path d="m150.841 234.939c0-.989 0-1.937 0-2.915h1.71v2.915c-.572 0-1.116 0-1.71 0z" fill="#fff"/><path d="m187.628 232.015h1.695v2.922c-.575 0-1.117 0-1.695 0 0-.968 0-1.924 0-2.922z" fill="#fff"/><path d="m143.317 232.012h1.669v2.929c-.568 0-1.1 0-1.669 0 0-.969 0-1.926 0-2.929z" fill="#fff"/><path d="m168.547 234.939c0-.996 0-1.944 0-2.919h1.694v2.919c-.572 0-1.113 0-1.694 0z" fill="#fff"/><path d="m197.289 234.943c-.573 0-1.106 0-1.671 0 0-.981 0-1.938 0-2.922h1.671z" fill="#fff"/><path d="m148.755 234.946c-.561 0-1.094 0-1.66 0 0-.974 0-1.932 0-2.922h1.66z" fill="#fff"/><path d="m179.378 234.937c0-.993 0-1.944 0-2.919h1.684v2.919c-.562 0-1.106 0-1.684 0z" fill="#fff"/><path d="m199.828 230.619c.211.33.428.669.684 1.068-.681 0-1.28 0-1.933 0-.201-.317-.422-.666-.676-1.068z" fill="#fff"/><path d="m203.629 230.616h1.93c-.248.392-.464.731-.68 1.074-.627 0-1.236 0-1.924 0 .249-.397.462-.736.674-1.074z" fill="#fff"/><path d="m197.299 230.697v.993c-.563 0-1.104 0-1.677 0 0-.333 0-.65 0-.993z" fill="#fff"/><path d="m219.041 233.657v-2.955h1.228v-1.125h-6.886v1.318h1.232v2.824h-1.232v1.252h7.162v-1.314zm-1.631 0h-1.106v-2.858h1.106z" fill="#fff"/><path d="m111.625 107.419-.989.073c-.014-.673-.236-1.009-.666-1.009-.493 0-.739.518-.739 1.553 0 .598.067 1.004.201 1.216.134.213.321.319.562.319.39 0 .629-.3.716-.901l.915.066c-.059.57-.239 1.004-.539 1.3-.3.297-.668.445-1.102.445-.533 0-.967-.218-1.3-.653-.334-.435-.5-1.037-.5-1.805 0-.719.161-1.308.484-1.766s.764-.688 1.322-.688c.968.003 1.513.619 1.635 1.85z" fill="#363635"/><path d="m113.785 105.645 1.261 4.765h-1.014l-.248-.981h-1.303l-.253.981h-.827l1.291-4.765zm-1.077 2.905h.854l-.423-1.672z" fill="#363635"/><path d="m116.217 108.522v1.888h-.95v-4.765h1.771c.327 0 .589.045.787.134s.362.254.491.494c.13.239.195.506.195.799 0 .572-.233.983-.7 1.231l.744 2.107h-1.043l-.619-1.888zm0-2.028v1.215h.579c.189 0 .326-.016.412-.047s.162-.101.229-.209.1-.232.1-.372c0-.133-.033-.251-.1-.356s-.14-.169-.218-.194c-.079-.024-.226-.037-.443-.037z" fill="#363635"/><path d="m121.615 105.645v.942h-.998v3.822h-.956v-3.822h-1.004v-.942z" fill="#363635"/><path d="m122.88 108.522v1.888h-.95v-4.765h1.771c.327 0 .589.045.787.134.198.09.362.254.491.494.13.239.195.506.195.799 0 .572-.233.983-.7 1.231l.744 2.107h-1.043l-.619-1.888zm0-2.028v1.215h.579c.189 0 .326-.016.412-.047s.162-.101.229-.209.1-.232.1-.372c0-.133-.033-.251-.1-.356s-.14-.169-.218-.194c-.079-.024-.226-.037-.443-.037z" fill="#363635"/><path d="m126.381 105.645v4.765h-.942v-4.765z" fill="#363635"/><path d="m126.673 105.645h1.23c.501 0 .875.082 1.12.246s.466.424.661.778c.195.355.292.803.292 1.346 0 .682-.17 1.251-.51 1.709-.34.457-.809.686-1.407.686h-1.386zm.927.876v2.991h.389c.344 0 .599-.152.766-.456s.25-.66.25-1.07c0-.289-.048-.556-.143-.801-.095-.246-.214-.418-.355-.517s-.311-.148-.509-.148h-.398z" fill="#363635"/><path d="m133.481 107.862s-.006 1.501-.548 2.049-.671.573-1.116.573c-.526 0-.935-.222-1.227-.667-.292-.444-.439-1.019-.439-1.724 0-.759.156-1.368.468-1.829s.735-.691 1.271-.691c.449 0 .811.149 1.086.447s.444.695.505 1.19l-.897.14c-.073-.577-.304-.866-.694-.866-.256 0-.449.137-.58.41s-.196.664-.196 1.171c0 .489.071.862.213 1.12s.343.387.605.387c.169 0 .32-.065.453-.195s.199-.339.199-.625h-.759v-.89z" fill="#363635"/><path d="m136.568 106.553h-1.919v.977h1.508v.897h-1.508v1.04h1.919v.942h-2.878v-4.765h2.878z" fill="#363635"/><path d="m140.318 105.645v4.765h-.942v-4.765z" fill="#363635"/><path d="m143.62 105.645v4.765h-.805l-1.577-3.218c.002.081.004.135.006.161.008.081.012.15.012.206v2.852h-.735v-4.765h1.017l1.371 2.81c-.012-.14-.018-.246-.018-.318v-2.492h.729z" fill="#363635"/><path d="m144.764 108.64v1.77h-.959v-4.765h1.588c.354 0 .625.045.813.134s.356.25.503.48.221.513.221.848c0 .235-.039.464-.118.688-.079.223-.19.399-.334.527s-.283.213-.418.255-.346.063-.633.063zm-.032-.865h.614c.234 0 .398-.064.493-.192s.142-.275.142-.44c0-.193-.053-.347-.158-.461s-.265-.171-.48-.171h-.611z" fill="#363635"/><path d="m150.344 105.645v2.967c0 .479-.046.836-.139 1.07-.092.234-.263.426-.512.576s-.567.225-.955.225-.696-.067-.925-.202-.401-.327-.515-.576-.171-.613-.171-1.093v-2.967h1.024v2.967c0 .256.018.444.055.565s.109.217.218.288.244.106.403.106c.177 0 .321-.035.432-.105s.185-.162.221-.278c.036-.115.055-.308.055-.578v-2.967h.809z" fill="#363635"/><path d="m153.522 105.645v.942h-.998v3.822h-.956v-3.822h-1.004v-.942z" fill="#363635"/><g fill="#464747"><path d="m24.953.002h1.96v10.139h-1.96z"/><path d="m27.922.002h1.96v10.139h-1.96z"/><path d="m30.941.002h1.96v10.139h-1.96z"/><path d="m33.91.002h1.96v10.139h-1.96z"/><path d="m36.83.002h1.96v10.139h-1.96z"/><path d="m39.799.002h1.96v10.139h-1.96z"/><path d="m42.818.002h1.96v10.139h-1.96z"/><path d="m45.787.002h1.96v10.139h-1.96z"/><path d="m48.831.002h1.96v10.139h-1.96z"/><path d="m51.8.002h1.96v10.139h-1.96z"/><path d="m54.819.002h1.96v10.139h-1.96z"/><path d="m57.788.002h1.96v10.139h-1.96z"/><path d="m60.707.002h1.96v10.139h-1.96z"/><path d="m63.676.002h1.96v10.139h-1.96z"/><path d="m66.695.002h1.96v10.139h-1.96z"/><path d="m69.664.002h1.96v10.139h-1.96z"/><path d="m72.683.002h1.96v10.139h-1.96z"/><path d="m75.652.002h1.96v10.139h-1.96z"/><path d="m78.671.002h1.96v10.139h-1.96z"/><path d="m81.64.002h1.96v10.139h-1.96z"/><path d="m84.56.002h1.96v10.139h-1.96z"/><path d="m87.529.002h1.96v10.139h-1.96z"/><path d="m90.548.002h1.96v10.139h-1.96z"/><path d="m93.517.002h1.96v10.139h-1.96z"/><path d="m96.536.002h1.96v10.139h-1.96z"/><path d="m99.505.002h1.96v10.139h-1.96z"/><path d="m102.524.002h1.96v10.139h-1.96z"/><path d="m105.493.002h1.96v10.139h-1.96z"/><path d="m108.412.002h1.96v10.139h-1.96z"/><path d="m111.381.002h1.96v10.139h-1.96z"/><path d="m114.4.002h1.96v10.139h-1.96z"/><path d="m117.369.002h1.96v10.139h-1.96z"/><path d="m120.546.002h1.96v10.139h-1.96z"/><path d="m123.565.002h1.96v10.139h-1.96z"/><path d="m126.534.002h1.96v10.139h-1.96z"/><path d="m129.454.002h1.96v10.139h-1.96z"/><path d="m132.423.002h1.96v10.139h-1.96z"/><path d="m135.442.002h1.96v10.139h-1.96z"/><path d="m138.411.002h1.96v10.139h-1.96z"/><path d="m141.43.002h1.96v10.139h-1.96z"/><path d="m144.399.002h1.96v10.139h-1.96z"/><path d="m147.418.002h1.96v10.139h-1.96z"/><path d="m150.387.002h1.96v10.139h-1.96z"/><path d="m153.306.002h1.96v10.139h-1.96z"/><path d="m156.275.002h1.96v10.139h-1.96z"/><path d="m159.294.002h1.96v10.139h-1.96z"/><path d="m162.263.002h1.96v10.139h-1.96z"/><path d="m165.532.002h1.96v10.139h-1.96z"/><path d="m168.551.002h1.96v10.139h-1.96z"/><path d="m171.52.002h1.96v10.139h-1.96z"/><path d="m174.439.002h1.96v10.139h-1.96z"/><path d="m177.408.002h1.96v10.139h-1.96z"/><path d="m180.427.002h1.96v10.139h-1.96z"/><path d="m183.396.002h1.96v10.139h-1.96z"/><path d="m186.415.002h1.96v10.139h-1.96z"/><path d="m189.384.002h1.96v10.139h-1.96z"/><path d="m192.403.002h1.96v10.139h-1.96z"/><path d="m195.372.002h1.96v10.139h-1.96z"/><path d="m198.292.002h1.96v10.139h-1.96z"/><path d="m201.261.002h1.96v10.139h-1.96z"/><path d="m204.28.002h1.96v10.139h-1.96z"/><path d="m207.249.002h1.96v10.139h-1.96z"/><path d="m210.392.002h1.96v10.139h-1.96z"/><path d="m213.411.002h1.96v10.139h-1.96z"/><path d="m216.38.002h1.96v10.139h-1.96z"/><path d="m219.3.002h1.96v10.139h-1.96z"/><path d="m222.269.002h1.96v10.139h-1.96z"/><path d="m225.288.002h1.96v10.139h-1.96z"/><path d="m228.257.002h1.96v10.139h-1.96z"/><path d="m231.276.002h1.96v10.139h-1.96z"/><path d="m234.245.002h1.96v10.139h-1.96z"/></g><path d="m470.54 137.253-.78 4.38v-.04c-.11.68-.23 1.35-.36 2.02-.02.12-.04.25-.07.37-.09.47-.18.94-.28 1.4-.01.04-.02.08-.03.12-.16.77-.33 1.53-.51 2.29-.01.06-.03.12-.04.18-.18.71-.36 1.42-.55 2.13-.37 1.36-.76 2.72-1.19 4.05 0 .01-.01.02-.01.03-.15.49-.31.98-.48 1.46-.18.54-.37 1.07-.56 1.6-.18.52-.37 1.03-.56 1.54-.02.06-.05.12-.07.18-.04.09-.07.17-.1.25-.2.53-.4 1.05-.62 1.57-.11.29-.23.58-.35.87-.22.51-.44 1.03-.67 1.54-.03.09-.08.18-.12.28-.24.56-.49 1.12-.76 1.68-.01.04-.03.08-.05.12-.05.11-.1.21-.15.32-.19.42-.39.83-.6 1.24-.46.97-.95 1.92-1.44 2.87-.66 1.24-1.34 2.46-2.03 3.67-.35.6-.7 1.21-1.07 1.8-.2.34-.4.67-.61 1-.03.05-.06.09-.09.14-.28.46-.56.92-.86 1.37-.33.52-.67 1.04-1.01 1.55-.16.25-.33.5-.49.74-.29.42-.57.84-.87 1.26-.06.1-.13.2-.2.3-.85 1.22-1.72 2.42-2.61 3.6-.17.23-.34.47-.52.69-.18.23-.36.46-.54.69-.16.23-.34.45-.52.68-.83 1.07-1.68 2.12-2.55 3.16-.48.57-.95 1.14-1.44 1.69-.48.56-.97 1.12-1.45 1.67-.5.55-.99 1.09-1.49 1.64-.04.05-.08.1-.12.14-.03.04-.07.07-.1.11-.05.06-.11.11-.16.17-.57.61-1.13 1.22-1.71 1.82-.66.69-1.32 1.37-1.99 2.05-19.63 19.86-49.74 22.67-69.68 22.67-.17 0-.34 0-.52-.01h-.14c-.1.01-.2.01-.3 0-.55-.01-1.13-.03-1.73-.04-.29-.02-.59-.03-.89-.04-.31-.01-.62-.02-.94-.04-.56-.02-1.14-.05-1.74-.09-.06 0-.12-.01-.18-.01-.79-.05-1.61-.09-2.47-.16-.43-.02-.86-.05-1.29-.09-.31-.02-.63-.04-.95-.07-.28-.02-.56-.04-.85-.06-.58-.05-1.18-.09-1.78-.14-.63-.05-1.26-.1-1.9-.15-.28-.02-.57-.04-.85-.07-.47-.03-.94-.07-1.41-.11-2.18-.17-4.44-.35-6.77-.53-.72-.05-1.44-.1-2.17-.16-.33-.02-.66-.05-1-.07-.98-.07-1.97-.13-2.96-.19-.1-.01-.19-.01-.28-.02-.57-.04-1.15-.07-1.73-.1-.68-.04-1.35-.08-2.03-.12-.5-.02-1-.05-1.5-.07-.66-.04-1.32-.07-1.97-.09-.92-.04-1.84-.07-2.76-.1-.41-.02-.82-.03-1.22-.04-.64-.02-1.28-.03-1.92-.04s-1.29-.02-1.93-.03c-1.61-.02-3.29-.02-5.02-.01h-.54c-.37 0-.74 0-1.12.01-.56.01-1.12.01-1.69.02-.42 0-.84.01-1.26.02-.11.01-.23.01-.35.01-1.62.04-3.26.09-4.92.16-.33.01-.67.02-1 .04-.39.01-.79.03-1.18.06-.59.03-1.18.06-1.77.1-.72.04-1.44.09-2.16.14s-1.44.11-2.15.17c-.61.05-1.21.1-1.81.16-1.56.15-3.11.32-4.64.52-.05.01-.09.01-.14.02-.78.1-1.55.21-2.3.33-.29.04-.58.09-.87.13-.5.08-1.01.17-1.51.26-.06.01-.13.02-.19.03-.48.08-.96.17-1.44.27-.27.05-.53.1-.8.16-.27.05-.53.11-.8.17-.26.05-.52.11-.78.17-.26.05-.52.11-.78.18-.1.02-.2.05-.3.07-.41.1-.82.2-1.22.31-.37.09-.73.19-1.09.29-.38.11-.75.22-1.11.33-.24.07-.47.14-.71.22-.47.15-.93.31-1.38.47-.23.08-.45.16-.67.24-.27.1-.52.2-.77.3-.18.07-.36.14-.54.22-.8.33-1.56.68-2.29 1.05-.29.15-.56.3-.84.45-.29.16-.58.33-.86.5-.03.02-.05.03-.08.05-.29.18-.58.36-.85.55-.04.03-.07.05-.11.08-.17.11-.33.23-.49.35-.15.1-.29.21-.43.33-.13.1-.25.2-.38.31-.19.16-.37.32-.55.48l-.94.84c1.31 7.44 5.83 12.19 19.47 19.83 3.37 1.89 7.08 3.09 10.91 3.5 4.84.52 10.69.65 16.16.65 2.24 0 4.42-.02 6.43-.05 2.91-.03 5.48-.08 7.42-.08h56.03c50.1 0 87.44-40.65 87.44-90.72v-28.28c-.12.72-.25 1.44-.39 2.17zm-7.51 56.5c-.99 2.5-2.61 6.76-3.92 9.03-1.92 3.32-3.5 7.21-5.36 6.83-1.09-.22-2.89-1.04-4.69-2.18 0 0-.01 0-.01-.01-1.53-.97-3.07-2.18-4.14-3.45 0 0-.01-.01-.02-.02-.27-.31-.5-.63-.71-.95-1.6-2.56-3.22-3.82-2.55-4.67 1.28-1.61 6.77-7.07 11.97-15.22 1.09-1.7 2.07-1.8 3.44-1.69 1.26.11 1.71.47 2.32.73 1.85.9 2.13 1.1 4.03 2.4.02.01.02.02.02.03.85.75 1.08 1.46 1.24 2.35.22 1.3-.66 4.33-1.62 6.82z" fill="#58595b"/><path d="m455.92.213h-9.9c-.42 0-.8.26-.97.53-.13.2-.19.39-.21.57-.01.04-.01.08-.01.12v8.65c0 1.49-1.19 2.68-2.68 2.68l-146.21-1.01c-1.49 0-1.69-.18-1.69-1.67v-8.63c0-.01 0-.01 0-.02 0-.04 0-.08-.01-.12 0-.24-.05-.48-.22-.72-.21-.27-.58-.38-.87-.38h-11.59v-.01c-2.11 0-4.12.44-5.95 1.23-5.32 2.31-9.05 7.61-9.05 13.78v198.94c0 5.77-.17 10.31.25 14.22.02.17.04.33.06.5.06.46.12.91.2 1.36l.94-.84c.18-.16.36-.32.55-.48.13-.11.25-.21.38-.31.14-.12.28-.23.43-.33.16-.12.32-.24.49-.35.04-.03.07-.05.11-.08.27-.19.56-.37.85-.55.03-.02.05-.03.08-.05.28-.17.57-.34.86-.5.27-.16.56-.31.84-.45.73-.37 1.49-.72 2.29-1.05.18-.08.36-.15.54-.22.25-.1.5-.2.77-.3.22-.08.44-.16.67-.24.45-.16.91-.32 1.38-.47.24-.08.47-.15.71-.22.36-.11.73-.22 1.11-.33.36-.1.72-.2 1.09-.29.4-.11.81-.21 1.22-.31.1-.02.2-.05.3-.07.26-.07.52-.13.78-.18.26-.06.52-.12.78-.17.27-.06.53-.12.8-.17.27-.06.53-.11.8-.16.48-.1.96-.19 1.44-.27.06-.01.13-.02.19-.03.5-.09 1.01-.18 1.51-.26.29-.04.58-.09.87-.13.75-.12 1.52-.23 2.3-.33.05-.01.09-.01.14-.02 1.53-.2 3.08-.37 4.64-.52.6-.06 1.2-.11 1.81-.16.71-.07 1.43-.12 2.15-.17s1.44-.1 2.16-.14c.59-.04 1.18-.08 1.77-.1.39-.03.79-.05 1.18-.06.33-.02.67-.03 1-.04 1.65-.08 3.3-.13 4.92-.16.12 0 .24 0 .35-.01.42-.01.84-.02 1.26-.02.57-.01 1.13-.01 1.69-.02.38-.01.75-.01 1.12-.01h.54c1.73-.01 3.41-.01 5.02.01.64.01 1.29.02 1.93.03s1.28.02 1.92.04c.4.01.81.02 1.22.04.92.03 1.84.06 2.76.1.65.02 1.31.05 1.97.09.5.02 1 .05 1.5.07.68.04 1.35.08 2.03.12.58.03 1.16.06 1.73.1.09.01.18.01.28.02.99.06 1.98.12 2.96.19.34.02.67.05 1 .07.73.06 1.45.11 2.17.16 2.33.18 4.59.36 6.77.53.47.04.94.08 1.41.11.28.03.57.05.85.07.64.05 1.27.1 1.9.15.6.05 1.2.09 1.78.14.29.02.57.04.85.06.32.03.64.05.95.07.43.04.86.07 1.29.09.86.07 1.68.11 2.47.16.06 0 .12.01.18.01.6.04 1.18.07 1.74.09.32.02.63.03.94.04.3.01.6.02.89.04.6.01 1.18.03 1.73.04.1 0 .2.01.3 0h.14c.18.01.35.01.52.01 19.94 0 50.05-2.81 69.68-22.67.67-.68 1.33-1.36 1.99-2.05.58-.6 1.14-1.21 1.71-1.82.05-.06.11-.11.16-.17.03-.04.07-.07.1-.11.04-.04.08-.09.12-.14.5-.55.99-1.09 1.49-1.64.48-.55.97-1.11 1.45-1.67.49-.55.96-1.12 1.44-1.69.87-1.04 1.72-2.09 2.55-3.16.18-.23.36-.45.52-.68.18-.23.36-.46.54-.69.18-.22.35-.46.52-.69.89-1.18 1.76-2.38 2.61-3.6.07-.1.14-.2.2-.3.3-.42.58-.84.87-1.26.16-.24.33-.49.49-.74.34-.51.68-1.03 1.01-1.55.29-.45.58-.91.86-1.37.03-.05.06-.09.09-.14.21-.33.41-.66.61-1 .37-.59.72-1.2 1.07-1.8.69-1.21 1.37-2.43 2.03-3.67.49-.95.97-1.91 1.44-2.87.21-.41.41-.82.6-1.24.05-.11.1-.21.15-.32.02-.04.04-.08.05-.12.27-.56.52-1.12.76-1.68.04-.1.09-.19.12-.28.23-.51.45-1.03.67-1.54.12-.29.24-.58.35-.87.21-.52.42-1.04.62-1.57.03-.08.06-.16.1-.25.02-.06.05-.12.07-.18.19-.51.38-1.02.56-1.54.19-.53.38-1.06.56-1.6.17-.48.33-.97.48-1.46 0-.01.01-.02.01-.03.43-1.33.82-2.69 1.19-4.05.19-.71.37-1.42.55-2.13.01-.06.03-.12.04-.18.18-.76.35-1.52.51-2.29.01-.04.02-.08.03-.12.1-.46.19-.93.28-1.4.03-.12.05-.25.07-.37.13-.67.25-1.34.36-2.02v.04l.78-4.38c.14-.73.27-1.45.39-2.17v-119.87c0-8.28-6.73-15-15.01-15zm.08 136.12c.06 13.81-13.06 37.04-27.26 49.41-14.15 12.4-32.42 21.16-48.44 21.13h-26.32c-2.79 0-5.61-.04-8.41-.13-.86-.03-1.72-.06-2.57-.1-1.55-.07-3.09-.16-4.62-.26-1.02-.07-2.04-.15-3.05-.24-2.53-.22-5.04-.5-7.5-.84-.98-.14-1.96-.29-2.92-.45-.97-.16-1.93-.33-2.87-.51-.53-.1-1.06-.21-1.59-.32-1.05-.22-2.09-.46-3.11-.71-.96-.23-1.91-.49-2.84-.76-.06-.02-.12-.03-.18-.05-.99-.29-1.96-.59-2.91-.91-.48-.16-.95-.33-1.42-.5-.84-.3-1.65-.62-2.45-.95-.49-.2-.97-.41-1.45-.63-.4-.18-.8-.36-1.2-.55-.33-.16-.67-.33-.99-.5-.25-.12-.5-.25-.74-.39-.54-.28-1.06-.57-1.58-.88-.47-.28-.94-.56-1.39-.86-.46-.29-.9-.59-1.34-.9-.02-.01-.03-.02-.05-.03-.39-.28-.78-.57-1.16-.86-.08-.06-.15-.12-.23-.18-.34-.27-.68-.55-1.01-.83-.03-.02-.06-.04-.08-.06-.36-.31-.71-.63-1.05-.95-.04-.04-.08-.07-.11-.1-.33-.31-.65-.63-.96-.95-.12-.12-.23-.25-.34-.37-.2-.21-.39-.42-.57-.63-.42-.47-.82-.95-1.2-1.45-3.7-4.84-5.86-10.93-5.87-18.8v-132.87c.01-2.42 1.12-4.62 2.99-6.28.2-.17.4-.34.62-.49.05-.04.11-.08.16-.12.45-.32.93-.61 1.45-.86.25-.13.51-.24.77-.34.01-.01.02-.02.04-.02.23-.09.46-.18.7-.25.07-.03.15-.06.23-.08.21-.06.41-.12.63-.17.25-.06.51-.12.77-.16.14-.02.28-.05.42-.06.24-.04.48-.07.73-.08.04 0 .07-.01.11-.01.28-.02.56-.03.84-.03h148.95c2.94 0 5.58 1.03 7.46 2.68s2.99 3.86 2.99 6.27z" fill="#4d4d4f"/><path d="m318.01 240.502h-11.482c-.812 0-1.477-.665-1.477-1.477v-.545c0-.812.665-1.477 1.477-1.477h11.482c.812 0 1.477.665 1.477 1.477v.545c0 .812-.665 1.477-1.477 1.477z" fill="#d36061"/><path d="m295.28.003h1.96v10.14h-1.96z" fill="#464747"/><path d="m298.25.003h1.96v10.14h-1.96z" fill="#464747"/><path d="m301.27.003h1.96v10.14h-1.96z" fill="#464747"/><path d="m304.24.003h1.96v10.14h-1.96z" fill="#464747"/><path d="m307.16.003h1.96v10.14h-1.96z" fill="#464747"/><path d="m310.13.003h1.96v10.14h-1.96z" fill="#464747"/><path d="m313.15.003h1.96v10.14h-1.96z" fill="#464747"/><path d="m316.12.003h1.96v10.14h-1.96z" fill="#464747"/><path d="m319.16.003h1.96v10.14h-1.96z" fill="#464747"/><path d="m322.13.003h1.96v10.14h-1.96z" fill="#464747"/><path d="m325.15.003h1.96v10.14h-1.96z" fill="#464747"/><path d="m328.12.003h1.96v10.14h-1.96z" fill="#464747"/><path d="m331.04.003h1.96v10.14h-1.96z" fill="#464747"/><path d="m334.01.003h1.96v10.14h-1.96z" fill="#464747"/><path d="m337.02.003h1.96v10.14h-1.96z" fill="#464747"/><path d="m339.99.003h1.96v10.14h-1.96z" fill="#464747"/><path d="m343.01.003h1.96v10.14h-1.96z" fill="#464747"/><path d="m345.98.003h1.96v10.14h-1.96z" fill="#464747"/><path d="m349 .003h1.96v10.14h-1.96z" fill="#464747"/><path d="m351.97.003h1.96v10.14h-1.96z" fill="#464747"/><path d="m354.89.003h1.96v10.14h-1.96z" fill="#464747"/><path d="m357.86.003h1.96v10.14h-1.96z" fill="#464747"/><path d="m360.88.003h1.96v10.14h-1.96z" fill="#464747"/><path d="m363.85.003h1.96v10.14h-1.96z" fill="#464747"/><path d="m366.87.003h1.95v10.14h-1.95z" fill="#464747"/><path d="m369.83.003h1.96v10.14h-1.96z" fill="#464747"/><path d="m372.85.003h1.96v10.14h-1.96z" fill="#464747"/><path d="m375.82.003h1.96v10.14h-1.96z" fill="#464747"/><path d="m378.74.003h1.96v10.14h-1.96z" fill="#464747"/><path d="m381.71.003h1.96v10.14h-1.96z" fill="#464747"/><path d="m384.73.003h1.96v10.14h-1.96z" fill="#464747"/><path d="m387.7.003h1.96v10.14h-1.96z" fill="#464747"/><path d="m390.88.003h1.96v10.14h-1.96z" fill="#464747"/><path d="m393.89.003h1.96v10.14h-1.96z" fill="#464747"/><path d="m396.86.003h1.96v10.14h-1.96z" fill="#464747"/><path d="m399.78.003h1.96v10.14h-1.96z" fill="#464747"/><path d="m402.75.003h1.96v10.14h-1.96z" fill="#464747"/><path d="m405.77.003h1.96v10.14h-1.96z" fill="#464747"/><path d="m408.74.003h1.96v10.14h-1.96z" fill="#464747"/><path d="m411.76.003h1.96v10.14h-1.96z" fill="#464747"/><path d="m414.73.003h1.96v10.14h-1.96z" fill="#464747"/><path d="m417.75.003h1.96v10.14h-1.96z" fill="#464747"/><path d="m420.72.003h1.96v10.14h-1.96z" fill="#464747"/><path d="m423.64.003h1.96v10.14h-1.96z" fill="#464747"/><path d="m426.6.003h1.96v10.14h-1.96z" fill="#464747"/><path d="m429.62.003h1.96v10.14h-1.96z" fill="#464747"/><path d="m432.59.003h1.96v10.14h-1.96z" fill="#464747"/><path d="m435.86.003h1.96v10.14h-1.96z" fill="#464747"/><path d="m438.88.003h1.96v10.14h-1.96z" fill="#464747"/><path d="m441.85.003h1.96v10.14h-1.96z" fill="#464747"/><path d="m453.09 31.083c-1.88-1.65-4.52-2.68-7.46-2.68h-148.95c-.32 0-.63.01-.95.04-.25.01-.49.04-.73.08-.14.01-.28.04-.42.06-.26.04-.52.1-.77.16-.22.05-.42.11-.63.17-.08.02-.16.05-.23.08-.24.07-.47.16-.7.25-.02 0-.03.01-.04.02-.26.1-.52.21-.77.34-.52.25-1 .54-1.45.86-.05.04-.11.08-.16.12-.22.15-.42.32-.62.49-1.87 1.66-2.98 3.86-2.99 6.28v132.87c.01 7.87 2.17 13.96 5.87 18.8.38.5.78.98 1.2 1.45.18.21.37.42.57.63.11.12.22.25.34.37.31.32.63.64.96.95.03.03.07.06.11.1.34.32.69.64 1.05.95.02.02.05.04.08.06.33.28.67.56 1.01.83.08.06.15.12.23.18.38.29.77.58 1.16.86.02.01.03.02.05.03.44.31.88.61 1.34.9.45.3.92.58 1.39.86.52.31 1.04.6 1.58.88.24.14.49.27.74.39.32.17.66.34.99.5.4.19.8.37 1.2.55.48.22.96.43 1.45.63.8.33 1.61.65 2.45.95.47.17.94.34 1.42.5.95.32 1.92.62 2.91.91.99.28 2 .55 3.02.81 1.02.25 2.06.49 3.11.71.53.11 1.06.22 1.59.32.95.18 1.91.35 2.87.51.97.16 1.94.31 2.92.45 2.46.34 4.97.62 7.5.84 1.01.09 2.03.17 3.05.24 1.53.1 3.07.19 4.62.26.85.04 1.71.07 2.57.1 2.8.09 5.62.13 8.41.13h26.32c16.02.03 34.29-8.73 48.44-21.13 14.2-12.37 27.32-35.6 27.26-49.41l.08-98.98c0-2.41-1.11-4.62-2.99-6.27zm1.8 31.01v.99l-.06 73.46c0 .41-.01.84-.04 1.27-.71 13.36-13.23 35.31-26.82 47.11-9.4 8.21-20.68 14.79-31.79 18.2-.74.23-1.48.44-2.22.64-1.03.28-2.06.53-3.08.75s-2.04.41-3.05.57c-1.51.24-3.02.41-4.5.51-1 .07-1.98.1-2.95.1h-26.4c-8.23.01-16.62-.35-24.53-1.37-.98-.12-1.95-.26-2.92-.41-.96-.14-1.92-.3-2.86-.47-1.42-.26-2.82-.54-4.19-.84-4.11-.91-7.98-2.07-11.5-3.53-6.29-2.59-11.41-6.09-14.95-10.72-3.35-4.35-5.39-9.73-5.61-16.72-.01-.43-.02-.86-.02-1.3v-132.98c0-2.06.94-3.93 2.6-5.4 1.65-1.44 4.02-2.38 6.68-2.38h148.95c2.66 0 5.04.94 6.69 2.39 1.66 1.46 2.58 3.33 2.59 5.39z" fill="#353535"/><path d="m454.91 37.353-.02 24.74h-167.49v-24.74c0-2.06.94-3.93 2.6-5.4 1.65-1.44 4.02-2.38 6.68-2.38h148.95c2.66 0 5.04.94 6.69 2.39 1.66 1.46 2.58 3.33 2.59 5.39z" fill="#4d4d4f"/><path d="m287.4 63.083v107.25c0 .44.01.87.02 1.3.22 6.99 2.26 12.37 5.61 16.72 3.54 4.63 8.66 8.13 14.95 10.72 3.52 1.46 7.39 2.62 11.5 3.53 1.37.3 2.77.58 4.19.84.94.17 1.9.32 2.86.47.97.15 1.94.28 2.92.41 7.91 1.02 16.3 1.38 24.53 1.37h26.4c.97 0 1.95-.03 2.95-.1 1.48-.1 2.99-.27 4.5-.51 1.01-.16 2.03-.35 3.05-.57s2.05-.47 3.08-.75c.74-.2 1.48-.41 2.22-.64 11.11-3.41 22.39-9.99 31.79-18.2 13.59-11.8 26.11-33.75 26.82-47.11.03-.43.04-.86.04-1.27l.06-73.46h-167.49zm75.17 134.89c-3.48-.42-5.96-2.15-7.97-3.16-2-1.02-3.33-2.35-3.99-3.95-.06-.15-.12-.29-.15-.44-.03-.04-.04-.08-.05-.12-.05-.13-.08-.25-.1-.38-.03-.05-.04-.1-.04-.16-.04-.13-.06-.26-.08-.39-.02-.08-.03-.16-.04-.24-.02-.12-.03-.24-.04-.37-.02-.24-.03-.49-.03-.73.01-.14.01-.27.01-.4v-.08c.01-.14.02-.28.04-.41.03-.33.09-.67.16-1.01.04-.17.08-.34.12-.51.01-.02.02-.05.02-.07.05-.18.1-.36.15-.54.06-.18.11-.37.18-.55.06-.19.12-.37.2-.56.14-.37.3-.75.47-1.13.08-.19.17-.38.26-.58.47-.97 1.02-1.97 1.65-2.99.43-.71.96-1.49 1.56-2.35.36-.51.75-1.05 1.18-1.61v-.01c.28-.37.57-.75.88-1.14v-.01c.83-1.08 1.76-2.24 2.75-3.45 2.99-3.63 6.64-7.76 10.56-11.96 7.61-8.15 16.26-16.56 23.18-22.08h.02l.02-.02c20.85-14.77 34.3-20.82 42.65-21.52 4.17-.34 7.12.69 8.91 2.74 1.47 1.68 2.13 3.97 2.17 6.57.02.36.01.72 0 1.09-.01.22-.02.44-.04.66-.91 11.94-5.3 33.59-19.28 48.99-.49.53-.98 1.05-1.49 1.57-1.01 1.03-2.06 2.03-3.17 2.99-17.71 15.38-46.71 19.97-60.67 18.31z" fill="#4d4d4f"/><path d="m447.22 124.363c.02.36.01.72 0 1.09-.01.22-.02.44-.04.66-.91 11.94-5.3 33.59-19.28 48.99-.49.53-.98 1.05-1.49 1.57-1.01 1.03-2.06 2.03-3.17 2.99-17.71 15.38-46.71 19.97-60.67 18.31-3.48-.42-5.96-2.15-7.97-3.16-2-1.02-3.33-2.35-3.99-3.95-.06-.15-.12-.29-.15-.44-.03-.04-.04-.08-.05-.12-.04-.13-.07-.25-.1-.38-.03-.05-.04-.1-.04-.16-.04-.13-.06-.26-.08-.39-.02-.08-.03-.16-.04-.24-.02-.12-.03-.24-.04-.37-.02-.24-.03-.49-.03-.73.01-.14.01-.27.01-.4.04-.65.15-1.32.32-2.01.01-.02.02-.05.02-.07.05-.18.1-.36.15-.54.06-.18.11-.37.18-.55.06-.18.13-.37.2-.56.14-.37.3-.75.47-1.13.08-.19.17-.38.26-.58.47-.97 1.02-1.97 1.65-2.99.43-.71.96-1.49 1.56-2.35.37-.51.76-1.05 1.18-1.61v-.01c.28-.37.57-.75.88-1.14v-.01c.83-1.08 1.76-2.24 2.75-3.45 2.99-3.63 6.64-7.76 10.56-11.96 7.61-8.15 16.26-16.56 23.18-22.08h.02l.02-.02c20.85-14.77 34.3-20.82 42.65-21.52 4.17-.34 7.12.69 8.91 2.74 1.47 1.68 2.13 3.97 2.17 6.57z" fill="#353535"/><path d="m434.6 142.843c-.25 2.8-1.31 5.93-3.03 9.25-3.44 6.65-9.58 14.03-17.64 20.62s-16.5 11.14-23.7 13.2c-3.6 1.03-6.89 1.45-9.69 1.14-2.79-.31-5.12-1.36-6.65-3.23-1.52-1.87-2.09-4.35-1.83-7.15.25-2.8 1.3-5.95 3.02-9.27 3.45-6.65 9.6-14.02 17.66-20.6 8.05-6.59 16.49-11.16 23.69-13.22 3.6-1.03 6.88-1.42 9.68-1.12 2.8.31 5.12 1.34 6.65 3.21s2.09 4.37 1.84 7.17z" fill="#424243"/><path d="m407.03 159.343c0 .94-.77 1.71-1.71 1.71-.93 0-1.7-.77-1.7-1.71 0-.93.77-1.7 1.7-1.7.94 0 1.71.77 1.71 1.7zm-6.46 2.05c-.94 0-1.71.77-1.71 1.71s.77 1.71 1.71 1.71c.93 0 1.7-.77 1.7-1.71s-.77-1.71-1.7-1.71zm-4.7 3.78c-.93 0-1.7.77-1.7 1.71s.77 1.71 1.7 1.71c.94 0 1.71-.77 1.71-1.71s-.77-1.71-1.71-1.71zm14.15-11.31c-.94 0-1.71.77-1.71 1.7 0 .94.77 1.71 1.71 1.71.93 0 1.7-.77 1.7-1.71 0-.93-.77-1.7-1.7-1.7z" fill="#353535"/><path d="m463.03 193.753c-.99 2.5-2.61 6.76-3.92 9.03-1.92 3.32-3.5 7.21-5.36 6.83-1.09-.22-2.89-1.04-4.69-2.18 0 0-.01 0-.01-.01.4-.83 3.62-7.57 6.04-12.07 2.32-4.34 7.34-9.79 8.3-10.8.02.01.02.02.02.03.85.75 1.08 1.46 1.24 2.35.22 1.3-.66 4.33-1.62 6.82z" fill="#414141"/><path d="m463.39 184.553c-.508 1.718-3.984 7.814-6.523 12.03-1.957 3.25-7.417 10.01-7.817 10.84-1.53-.97-3.07-2.18-4.14-3.45 0 0-.01-.01-.02-.02.58-1.21 3.52-7.14 6.64-12.05 3.13-4.94 7-8.92 7.83-9.75 1.85.9 2.13 1.1 4.03 2.4z" fill="#b6242e"/><path d="m459.36 182.153c-.54 1.367-3.66 5.579-6.79 10.519-3.12 4.91-7.1 10.071-7.68 11.281-.27-.31-.5-.63-.71-.95-1.6-2.56-3.22-3.82-2.55-4.67 1.28-1.61 6.77-7.07 11.97-15.22 1.09-1.7 2.07-1.8 3.44-1.69 1.26.11 1.71.47 2.32.73z" fill="#9d2432"/><path d="m444.83 1.433v8.65c0 1.49-1.19 2.68-2.68 2.68l-146.21-1.01c-1.49 0-1.69-.18-1.69-1.67v-8.63c0-.01 0-.01 0-.02h1.03v8.71h1.96v-8.71h1.01v8.71h1.96v-8.71h1.06v8.71h1.96v-8.71h1.01v8.71h1.96v-8.71h.96v8.71h1.96v-8.71h1.01v8.71h1.96v-8.71h1.06v8.71h1.96v-8.71h1.01v8.71h1.96v-8.71h1.08v8.71h1.96v-8.71h1.01v8.71h1.96v-8.71h1.06v8.71h1.96v-8.71h1.01v8.71h1.96v-8.71h.96v8.71h1.96v-8.71h1.01v8.71h1.96v-8.71h1.05v8.71h1.96v-8.71h1.01v8.71h1.96v-8.71h1.06v8.71h1.96v-8.71h1.01v8.71h1.96v-8.71h1.06v8.71h1.96v-8.71h1.01v8.71h1.96v-8.71h.96v8.71h1.96v-8.71h1.01v8.71h1.96v-8.71h1.06v8.71h1.96v-8.71h1.01v8.71h1.96v-8.71h1.06v8.71h1.95v-8.71h1.01v8.71h1.96v-8.71h1.06v8.71h1.96v-8.71h1.01v8.71h1.96v-8.71h.96v8.71h1.96v-8.71h1.01v8.71h1.96v-8.71h1.06v8.71h1.96v-8.71h1.01v8.71h1.96v-8.71h1.22v8.71h1.96v-8.71h1.05v8.71h1.96v-8.71h1.01v8.71h1.96v-8.71h.96v8.71h1.96v-8.71h1.01v8.71h1.96v-8.71h1.06v8.71h1.96v-8.71h1.01v8.71h1.96v-8.71h1.06v8.71h1.96v-8.71h1.01v8.71h1.96v-8.71h1.06v8.71h1.96v-8.71h1.01v8.71h1.96v-8.71h.96v8.71h1.96v-8.71h1v8.71h1.96v-8.71h1.06v8.71h1.96v-8.71h1.01v8.71h1.96v-8.71h1.31v8.71h1.96v-8.71h1.06v8.71h1.96v-8.71h1.01v8.71h1.96v-8.71z" fill="#333332"/><path d="m287.4 62.093h167.49v.99h-167.49z" fill="#58595b"/><path d="m370.21 91.136c0-.328 0-.594 0-.858.019-.017.037-.045.053-.045 1.041 0 2.083-.032 3.122.016.568.026 1.009.698.972 1.328-.037.648-.54 1.178-1.168 1.188-.925.015-1.85.006-2.775.006-.691.001-1.382.007-2.073-.002-.743-.009-1.178-.47-1.18-1.235-.001-.56 0-1.12 0-1.736h.853.858c0 .472-.001.919 0 1.365.002.561.053.614.577.615.867.001 1.733.001 2.6 0 .07 0 .141.002.211-.003.201-.015.37-.118.317-.337-.03-.121-.205-.28-.321-.287-.525-.032-1.054-.015-1.581-.016-.139.001-.277.001-.465.001z" fill="#fff"/><path d="m365.979 90.201v.924c-1.358 0-2.697 0-4.028 0-.061.494.058.65.473.653 1.126.005 2.25.001 3.376.002h.45v.968c-.122.007-.246.023-.371.023-1.465.001-2.931.004-4.396 0-.888-.003-1.289-.428-1.285-1.345.001-.524 0-1.047 0-1.599h1.684c.089.341.35.381.653.378.985-.008 1.97-.003 2.955-.003.15-.001.3-.001.489-.001z" fill="#fff"/><path d="m359.203 89.497c-3.062 0-6.125 0-9.225 0 0-.333 0-.652 0-.989.11-.011.201-.029.291-.029 2.659-.001 5.319-.004 7.978.001.612 0 .983.396.956 1.017z" fill="#fff"/><path d="m380.311 90.698c0-.327 0-.589 0-.876h1.702v2.918c-.556 0-1.097 0-1.675 0-.012-.27-.023-.533-.037-.848-1.007 0-2.006 0-3.041 0 0-.418 0-.786 0-1.194z" fill="#fff"/><path d="m394.006 92.757c0-.338 0-.627 0-.956.153-.009.289-.023.425-.024.844-.002 1.688.001 2.532-.002.392-.002.48-.093.483-.493.005-.475.001-.951.001-1.456h1.725c0 .245.001.495-.001.745-.003.342-.009.686-.014 1.028-.008.62-.386 1.132-.967 1.147-1.378.035-2.76.011-4.184.011z" fill="#fff"/><path d="m367.196 89.488c-.062-.578.312-.998.905-1.008.68-.011 1.36-.003 2.039-.003h3.763.439v1.011c-2.383 0-4.765 0-7.146 0z" fill="#fff"/><path d="m399.131 89.492c-2.368 0-4.715 0-7.084 0-.008-.134-.02-.24-.023-.348-.003-.205-.001-.41-.001-.63.115-.017.193-.037.272-.037 1.968-.002 3.936-.006 5.904.001.595.001.961.398.932 1.014z" fill="#fff"/><path d="m375.226 89.49c.011-.608.336-1.002.872-1.006 1.685-.013 3.37-.013 5.054.001.53.004.883.441.85 1.005-2.257 0-4.516 0-6.776 0z" fill="#fff"/><path d="m360.208 89.493c0-.339 0-.65 0-.989h6.047v.989c-2.004 0-4 0-6.047 0z" fill="#fff"/><path d="m357.501 92.743c0-.989 0-1.937 0-2.915h1.71v2.915c-.572 0-1.116 0-1.71 0z" fill="#fff"/><path d="m349.977 89.816h1.669v2.929c-.568 0-1.1 0-1.669 0 0-.969 0-1.926 0-2.929z" fill="#fff"/><path d="m375.207 92.744c0-.996 0-1.944 0-2.919h1.694v2.919c-.572 0-1.113 0-1.694 0z" fill="#fff"/><path d="m355.415 92.751c-.561 0-1.094 0-1.66 0 0-.974 0-1.932 0-2.922h1.66z" fill="#fff"/><path d="m392.044 92.739c0-.993 0-1.944 0-2.919h1.684v2.919c-.562 0-1.105 0-1.684 0z" fill="#fff"/><path d="m405.998 91.462v-2.955h1.228v-1.125h-6.886v1.318h1.232v2.824h-1.232v1.252h7.162v-1.314zm-1.63 0h-1.106v-2.858h1.106z" fill="#fff"/><path d="m391.119 89.336v.15h-5.858v-.15c0-.45.37-.82.82-.82h4.218c.45 0 .82.37.82.82z" fill="#fff"/><path d="m391.119 91.776v.15c0 .45-.37.81-.82.81h-4.218c-.45 0-.82-.36-.82-.81v-2.12h1.28v1.66c0 .17.14.31.31.31z" fill="#fff"/><path d="m361.666 48.169c0-.762 0-1.377 0-1.99.044-.039.085-.104.124-.104 2.415 0 4.831-.073 7.241.037 1.317.061 2.34 1.619 2.255 3.079-.085 1.503-1.251 2.732-2.71 2.756-2.145.036-4.291.014-6.436.014-1.604.002-3.206.015-4.808-.005-1.723-.02-2.731-1.091-2.736-2.865-.003-1.299 0-2.597 0-4.025h1.979 1.989c0 1.096-.003 2.132 0 3.166.005 1.3.122 1.425 1.338 1.426 2.01.002 4.02.002 6.03 0 .163 0 .326.005.489-.007.467-.036.858-.273.734-.781-.07-.279-.475-.649-.744-.665-1.219-.073-2.444-.036-3.666-.037-.322.001-.642.001-1.079.001z" fill="#58595b"/><path d="m351.854 46v2.142c-3.15 0-6.255 0-9.342 0-.142 1.145.135 1.508 1.096 1.513 2.61.012 5.219.003 7.83.005h1.044v2.246c-.284.017-.571.053-.86.053-3.398.003-6.797.009-10.195 0-2.059-.007-2.989-.994-2.981-3.12.003-1.215 0-2.428 0-3.708h3.906c.207.791.813.883 1.514.876 2.284-.019 4.568-.007 6.852-.007z" fill="#58595b"/><path d="m336.139 44.367c-7.102 0-14.206 0-21.396 0 0-.772 0-1.512 0-2.294.256-.026.465-.068.675-.068 6.167-.003 12.336-.009 18.503.002 1.42.002 2.28.92 2.218 2.36z" fill="#58595b"/><path d="m385.092 47.154c0-.758 0-1.367 0-2.031h3.947v6.767c-1.289 0-2.545 0-3.885 0-.028-.627-.054-1.237-.085-1.967-2.336 0-4.653 0-7.053 0 0-.97 0-1.823 0-2.769z" fill="#58595b"/><path d="m416.855 51.928c0-.784 0-1.454 0-2.217.356-.02.671-.053.985-.055 1.958-.005 3.914.003 5.872-.005.909-.005 1.113-.215 1.121-1.143.011-1.103.003-2.205.003-3.378h4c0 .569.003 1.149-.002 1.728-.007.794-.021 1.59-.033 2.384-.02 1.438-.896 2.626-2.242 2.66-3.197.082-6.402.026-9.704.026z" fill="#58595b"/><path d="m354.676 44.347c-.144-1.339.723-2.314 2.098-2.338 1.576-.026 3.154-.007 4.73-.007h8.727 1.018v2.345c-5.527 0-11.052 0-16.573 0z" fill="#58595b"/><path d="m428.741 44.357c-5.492 0-10.936 0-16.429 0-.02-.31-.047-.557-.052-.806-.007-.475-.002-.951-.002-1.462.268-.039.449-.087.63-.087 4.565-.005 9.128-.014 13.693.002 1.377.003 2.227.923 2.16 2.353z" fill="#58595b"/><path d="m373.3 44.35c.024-1.409.78-2.323 2.021-2.333 3.907-.031 7.815-.031 11.722.002 1.23.01 2.048 1.022 1.971 2.331-5.235 0-10.474 0-15.714 0z" fill="#58595b"/><path d="m338.469 44.359c0-.786 0-1.508 0-2.294h14.024v2.294c-4.646 0-9.276 0-14.024 0z" fill="#58595b"/><path d="m332.191 51.896c0-2.294 0-4.492 0-6.76h3.966v6.76c-1.326 0-2.588 0-3.966 0z" fill="#58595b"/><path d="m314.742 45.109h3.872v6.793c-1.317 0-2.55 0-3.872 0 0-2.248 0-4.467 0-6.793z" fill="#58595b"/><path d="m373.256 51.898c0-2.311 0-4.507 0-6.769h3.929v6.769c-1.328 0-2.583 0-3.929 0z" fill="#58595b"/><path d="m327.353 51.913c-1.3 0-2.537 0-3.85 0 0-2.258 0-4.48 0-6.776h3.85z" fill="#58595b"/><path d="m412.305 51.887c0-2.304 0-4.507 0-6.769h3.906v6.769c-1.305 0-2.565 0-3.906 0z" fill="#58595b"/><path d="m410.159 43.994v.348h-13.586v-.348c0-1.044.858-1.902 1.902-1.902h9.783c1.043.001 1.901.859 1.901 1.902z" fill="#58595b"/><path d="m410.159 49.653v.348c0 1.044-.858 1.879-1.902 1.879h-9.783c-1.044 0-1.902-.835-1.902-1.879v-4.917h2.969v3.85c0 .394.325.719.719.719z" fill="#58595b"/><path d="m446.175 92.846c-1.848 0-3.7 0-5.615 0 0-.422 0-.807 0-1.313h3.849c-.28-.846-.511-1.535-.735-2.227-.558-1.723-1.08-3.461-1.693-5.163-.149-.412-.549-.922-.915-1.007-.617-.143-.817.497-.988 1.026-.854 2.641-1.732 5.273-2.558 7.923-.194.622-.477.833-1.104.815-1.723-.047-3.447-.004-5.171-.02-1.746-.016-2.888-1.158-2.926-2.966-.034-1.628-.037-3.258 0-4.886.042-1.836 1.148-2.953 2.912-2.978 1.554-.022 3.108-.005 4.716-.005v1.383c-1.335 0-2.663 0-3.991 0-1.873 0-2.303.452-2.303 2.427 0 1.229-.006 2.458.002 3.687.008 1.314.606 1.955 1.844 1.968 1.004.011 2.009.002 3.065.002 0-1.459 0-2.815 0-4.287-.854 0-1.684 0-2.556 0 0-.501 0-.887 0-1.334h3.983v5.647c.072.008.145.017.217.025.842-2.596 1.687-5.192 2.527-7.789.48-1.485 1.365-2.088 2.792-1.869.794.122 1.382.585 1.642 1.371 1.032 3.118 2.032 6.247 3.041 9.373.012.048-.02.111-.035.197z" fill="#f2f9fb"/><path d="m410.985 92.874c0-.479 0-.867 0-1.367 1.498 0 2.967.016 4.436-.005 1.229-.018 2.148-.91 2.192-2.077.043-1.141-.866-2.118-2.074-2.203-.491-.034-.988.013-1.476-.04-.751-.081-1.299-.79-1.298-1.608.001-.83.543-1.572 1.301-1.594 1.606-.047 3.215-.014 4.865-.014v1.352c-.822 0-1.633 0-2.444 0-.76 0-1.519 0-2.279 0-.001.152-.003.303-.004.455.45.02.9.048 1.351.059 1.698.039 2.924 1.029 3.348 2.709.517 2.052-.956 4.235-2.984 4.319-1.61.068-3.224.014-4.934.014z" fill="#f2f9fb"/><path d="m410.972 90.971c0-.491 0-.858 0-1.412h4.739c0-.132.001-.265.001-.397-.483-.02-.966-.048-1.45-.057-1.357-.023-2.366-.673-2.961-1.923-.606-1.272-.513-2.547.286-3.717.548-.802 1.303-1.346 2.256-1.377 1.665-.053 3.333-.015 5.064-.015v1.354c-1.496 0-2.993-.025-4.488.007-1.485.032-2.449 1.418-2.001 2.815.27.84 1.04 1.404 2.027 1.462.464.027.933-.007 1.394.04.748.077 1.316.782 1.325 1.589.008.807-.558 1.593-1.289 1.614-1.606.048-3.215.017-4.903.017z" fill="#f2f9fb"/><path d="m427.625 82.092v1.336c-1.481 0-2.948-.001-4.415 0-1.542.002-2.08.547-2.09 2.143-.008 1.285-.003 2.57.006 3.855.011 1.483.581 2.081 1.979 2.085 1.471.004 2.941.001 4.468.001v1.372c-1.097 0-2.178.002-3.259-.001-.683-.002-1.369.023-2.049-.026-1.254-.089-2.395-1.261-2.427-2.573-.047-1.883-.043-3.769-.001-5.653.027-1.206 1.046-2.448 2.199-2.512 1.845-.102 3.699-.027 5.589-.027z" fill="#f2f9fb"/><path d="m437.728 92.815c.953-2.943 1.879-5.822 2.827-8.693.067-.203.277-.419.467-.488.104-.038.397.187.451.35.774 2.301 1.521 4.613 2.296 6.986-1.124 0-2.152 0-3.217 0-.036-.342-.068-.645-.099-.949-.046-.017-.092-.033-.138-.05-.183.533-.371 1.064-.549 1.599-.47 1.418-.468 1.418-2.038 1.245zm2.75-3.4h1.128c-.176-.544-.325-1.006-.474-1.468-.065.004-.13.008-.194.012-.141.448-.282.894-.46 1.456z" fill="#f2f9fb"/><path d="m432.947 89.277c-.412-.12-.656-.192-.949-.278 0-.374 0-.762 0-1.214h2.086v3.181c-1.067 0-2.127.061-3.173-.041-.272-.026-.7-.551-.713-.862-.071-1.712-.051-3.428-.03-5.143.007-.601.359-.953.939-.959 1.585-.015 3.169-.005 4.825-.005v1.359c-1.192 0-2.362.034-3.529-.012-.716-.028-.992.233-.947.988.048.797.003 1.6.013 2.4.012.955.453 1.185 1.478.586z" fill="#f2f9fb"/><path d="m423.053 89.508c1.472.275 2.997-.013 4.524.16v1.297c-1.746 0-3.458.042-5.164-.043-.272-.014-.68-.57-.742-.928-.119-.688-.035-1.414-.035-2.198h4.858v1.282c-1.133 0-2.264 0-3.396 0-.015.143-.03.286-.045.43z" fill="#f2f9fb"/><path d="m427.625 83.969v1.288c-1.515.215-3.068-.138-4.556.191.005.118.01.236.015.354h3.413v1.346c-1.58 0-3.154 0-4.845 0 0-.789-.068-1.614.036-2.413.037-.286.483-.722.755-.732 1.712-.067 3.428-.034 5.182-.034z" fill="#f2f9fb"/><path d="m332.207 170.356h3.201v.098c0 .904.009 1.809-.003 2.713-.01.756-.311 1.373-.95 1.801-.249.167-.532.241-.832.241-1.291 0-2.582.001-3.874 0-.765-.001-1.454-.516-1.632-1.224-.028-.111-.042-.229-.042-.344-.002-2.373-.001-4.746-.003-7.119 0-.521.193-.961.536-1.341.245-.271.539-.467.903-.541.079-.016.161-.026.242-.026 1.344-.002 2.687.003 4.031-.004.316-.002.595.084.848.264.396.282.671.647.758 1.135.013.074.017.15.017.225.001.8.001 1.599 0 2.399 0 .342-.188.601-.489.678-.044.011-.092.013-.138.013-.654.001-1.309.001-1.963 0-.069 0-.14-.007-.207-.021-.225-.047-.364-.195-.369-.422-.01-.456-.006-.913-.01-1.369-.001-.066-.007-.134-.024-.198-.066-.235-.336-.394-.574-.343-.172.036-.287.188-.297.392-.001.023 0 .047 0 .07 0 1.669 0 3.339.001 5.008 0 .061.005.122.016.182.034.184.168.295.355.294.055 0 .11-.005.164-.015.233-.039.335-.162.335-.401 0-.678 0-1.355 0-2.033 0-.036 0-.07 0-.112zm.697-1.864h1.78c0-.039 0-.07 0-.102 0-.616 0-1.233 0-1.849 0-.685-.528-1.215-1.213-1.216-1.125-.001-2.251 0-3.376 0-.049 0-.099.001-.148.009-.622.102-1.099.664-1.101 1.295-.001.372 0 .744 0 1.117 0 1.899.006 3.798-.003 5.696-.003.655.499 1.019 1.009 1.014 1.201-.013 2.402-.004 3.603-.005.046 0 .093-.001.139-.009.588-.108 1.038-.65 1.038-1.248 0-.637 0-1.274 0-1.91 0-.031 0-.062 0-.09-.583 0-1.154 0-1.728 0 0 .437.001.868 0 1.298-.001.249-.062.482-.204.69-.296.434-.859.564-1.317.457-.486-.114-.918-.618-.912-1.171.019-1.683.007-3.367.007-5.051 0-.047-.001-.093.003-.139.027-.328.14-.617.405-.827.265-.209.576-.275.907-.272.596.004 1.151.52 1.116 1.139-.022.388-.005.778-.005 1.174z" fill="#f2f9fb"/><path d="m323.342 175.21c-.875 0-1.75 0-2.626 0-.026 0-.052.001-.079 0-.192-.007-.259-.075-.259-.27-.001-.715.005-1.431-.003-2.146-.003-.315.187-.497.459-.555.065-.014.133-.018.199-.018 1.058-.001 2.117 0 3.175-.002.078 0 .157-.005.233-.02.175-.035.27-.175.254-.36-.017-.2-.124-.312-.311-.32-.096-.004-.192-.001-.288-.001-.736 0-1.472-.012-2.207.004-.518.011-.897-.219-1.198-.609-.24-.311-.353-.667-.353-1.062.002-1.114.008-2.227-.003-3.341-.004-.421.121-.788.371-1.116.284-.373.635-.652 1.105-.754.079-.017.161-.027.242-.027 1.585-.002 3.169-.001 4.754-.001.049 0 .099.005.147.013.235.039.363.185.363.426.002.709.004 1.419-.002 2.128-.001.184-.119.307-.28.376-.082.036-.179.054-.269.055-1.044.004-2.088.002-3.132.002-.272 0-.33.059-.33.334 0 .189.053.249.24.27.049.005.099.004.148.004.704 0 1.407-.001 2.111.001.683.002 1.438.534 1.657 1.177.049.143.077.3.078.451.006 1.218-.001 2.437.006 3.655.002.308-.079.583-.244.838-.227.352-.515.638-.912.791-.119.046-.253.071-.381.072-.885.008-1.775.005-2.665.005zm-2.18-.789c.028.002.048.005.068.005 1.512 0 3.024-.001 4.536.001.501 0 .991-.462.983-.996-.015-1.044-.004-2.088-.005-3.132 0-.104-.005-.209-.016-.313-.061-.564-.44-1.017-1.107-1.007-.706.01-1.413.002-2.12.003-.278 0-.537-.055-.746-.255-.281-.269-.364-.605-.311-.979.039-.275.142-.52.368-.699.196-.155.426-.204.669-.205.971-.001 1.942 0 2.914 0h.099c0-.514 0-1.012 0-1.515-.028-.002-.051-.004-.073-.004-1.375 0-2.751-.001-4.126.002-.103 0-.209.019-.308.047-.466.134-.832.641-.839 1.199-.012 1.047-.008 2.094-.001 3.14.002.331.145.606.415.807.223.166.481.223.754.223h2.294c.341 0 .589.154.735.463.106.223.138.461.124.705-.036.652-.58 1.104-1.133 1.097-1.023-.012-2.047-.003-3.071-.003-.034 0-.067 0-.104 0 .001.477.001.942.001 1.416z" fill="#f2f9fb"/><path d="m319.785 169.785c0 1.564.002 3.129-.003 4.693 0 .13-.026.266-.07.389-.058.162-.196.244-.368.244-.843.002-1.686.004-2.53 0-.298-.001-.499-.165-.547-.425-.006-.031-.006-.063-.006-.095 0-3.111-.001-6.223.001-9.334 0-.238.064-.458.235-.637.118-.123.264-.18.429-.18.753-.002 1.506-.004 2.259 0 .323.002.604.198.602.618-.005 1.575-.002 3.151-.002 4.727zm-.757 4.56c0-3.04 0-6.071 0-9.102-.645 0-1.283 0-1.925 0v9.102z" fill="#f2f9fb"/><path d="m310.52 169.842c0-.878.009-1.756-.003-2.634-.008-.564.278-.926.756-1.143.884-.402 1.66.271 1.788.975.009.051.006.104.006.157 0 1.689-.004 3.379.004 5.068.002.364-.119.664-.365.919-.261.27-.57.457-.954.488-.287.023-.538-.075-.759-.248-.239-.187-.425-.413-.466-.728-.005-.037-.006-.075-.006-.113-.001-.916-.001-1.828-.001-2.741zm.78.011v1.378c0 .395-.001.791.001 1.186.001.213.119.372.314.431.34.104.667-.133.667-.488.001-1.666.001-3.332 0-4.998 0-.066-.008-.134-.021-.199-.048-.238-.222-.385-.457-.389-.252-.004-.424.124-.48.367-.017.073-.022.149-.023.224-.001.831-.001 1.66-.001 2.488z" fill="#f2f9fb"/><path d="m307.865 165.971c.047-.266.139-.514.298-.734.27-.372.606-.656 1.062-.772.072-.018.149-.026.224-.026.902-.002 1.803-.001 2.705-.001h.118c0-.042 0-.078 0-.115 0-.986 0-1.972 0-2.958 0-.357.29-.649.644-.649h2.129c.271 0 .47.132.617.348.035.051.054.124.054.187.002 4.409.002 8.817.002 13.226 0 .258-.243.615-.485.705-.05.019-.108.026-.162.026-1.855.001-3.711.003-5.566 0-.425-.001-.769-.201-1.066-.486-.282-.271-.488-.589-.56-.981-.001-.008-.008-.015-.013-.023-.001-2.582-.001-5.165-.001-7.747zm6.982 8.378c0-4.266 0-8.518 0-12.77-.595 0-1.184 0-1.78 0v.109c0 1-.001 2 .001 3.001 0 .111-.032.206-.105.286-.123.134-.274.209-.461.209-.945-.001-1.89.003-2.835-.003-.181-.001-.342.041-.48.149-.135.105-.264.219-.38.344-.098.105-.175.228-.175.387.002 2.408.001 4.815.002 7.222 0 .035.001.07.009.104.085.352.286.63.556.863.087.075.187.102.305.102 1.742-.003 3.483-.002 5.225-.002.038-.001.076-.001.118-.001z" fill="#f2f9fb"/><path d="m333.876 161.345c-.273 0-.531 0-.794 0 0-.211 0-.416 0-.628h2.251v.626c-.26 0-.518 0-.787 0v2.299c-.228 0-.444 0-.67 0 0-.764 0-1.524 0-2.297z" fill="#f2f9fb"/><path d="m332.015 160.684c.1.017.201.029.299.054.261.066.433.231.471.499.032.222.031.449.045.679-.23 0-.437 0-.658 0 0-.09 0-.179 0-.268 0-.049.001-.099-.001-.148-.005-.132-.035-.166-.167-.17-.203-.005-.406-.007-.609.001-.172.007-.211.052-.22.224-.005.09-.008.18-.008.27.001.325.001.651.008.976.003.172.036.211.211.22.211.011.423.007.634-.002.123-.005.147-.039.149-.166.003-.145.001-.289.001-.438h.646c-.012.276.036.555-.066.824-.096.251-.3.364-.547.401-.358.054-.719.058-1.074-.015-.368-.076-.596-.331-.611-.715-.018-.487-.02-.976 0-1.463.019-.439.325-.712.782-.747.046-.003.092-.012.138-.018.193.002.385.002.577.002z" fill="#f2f9fb"/><path d="m327.612 163.648c.083-.231.161-.451.24-.671.26-.725.521-1.45.778-2.176.025-.07.058-.093.131-.091.168.006.337.003.506.001.047-.001.072.013.089.06.336.941.674 1.882 1.011 2.822.005.013.006.027.013.056-.083 0-.159 0-.236 0-.131 0-.262-.003-.392.001-.057.002-.08-.018-.097-.071-.043-.135-.095-.267-.139-.402-.016-.048-.036-.069-.091-.068-.285.003-.57.002-.855.001-.045 0-.066.014-.08.057-.046.14-.095.28-.147.418-.009.025-.037.061-.057.061-.222.003-.442.002-.674.002zm1.654-1.173c-.088-.256-.173-.505-.258-.754-.006 0-.012 0-.018 0-.086.25-.171.499-.258.754z" fill="#f2f9fb"/><path d="m325.579 160.715c.032-.002.061-.005.089-.005.439 0 .878-.002 1.317.001.092.001.187.01.276.033.258.066.414.24.477.492.069.28.074.563.004.845-.081.328-.307.529-.643.554-.249.018-.499.014-.749.019-.034.001-.068 0-.11 0v.987c-.224 0-.44 0-.661 0 0-.975 0-1.947 0-2.926zm.664 1.296c.254 0 .503.003.751-.004.034-.001.094-.055.096-.087.01-.166.008-.334.001-.501-.001-.025-.052-.067-.081-.067-.254-.005-.509-.003-.767-.003z" fill="#f2f9fb"/><path d="m325.243 160.711v2.932c-.22 0-.436 0-.662 0 0-.479 0-.956 0-1.433-.007-.001-.013-.003-.02-.004-.051.124-.103.248-.153.373-.133.331-.266.661-.395.993-.022.057-.048.081-.112.079-.136-.005-.273-.005-.41 0-.063.002-.091-.021-.114-.078-.172-.437-.348-.872-.522-1.308-.007-.018-.015-.037-.037-.054v1.432c-.229 0-.446 0-.67 0 0-.972 0-1.944 0-2.925.026-.002.054-.006.082-.006.209-.001.419.003.628-.002.067-.001.095.024.119.084.23.594.464 1.187.697 1.78.004.011.009.021.022.054.016-.039.025-.061.034-.084.23-.585.461-1.17.689-1.756.022-.058.049-.08.112-.079.234.004.469.002.712.002z" fill="#f2f9fb"/><path d="m320.865 160.684c.117.019.237.029.351.059.341.09.555.336.569.706.018.487.019.976 0 1.463-.017.415-.278.676-.704.734-.349.048-.701.052-1.049-.013-.387-.071-.628-.322-.644-.714-.02-.481-.024-.964-.002-1.445.022-.473.317-.741.792-.773.043-.003.086-.011.129-.017zm-.821 1.543c0 .201-.004.401.002.601.004.139.046.187.184.192.229.009.458.013.687.002.177-.009.208-.049.211-.23.006-.378.007-.756.007-1.134 0-.063-.012-.127-.019-.19-.008-.075-.051-.112-.123-.124-.26-.043-.521-.042-.781-.006-.135.019-.164.057-.166.199-.005.231-.002.461-.002.69z" fill="#f2f9fb"/><path d="m318.247 160.684c.086.015.172.025.257.045.291.066.475.244.511.542.026.211.024.426.035.645-.226 0-.431 0-.647 0-.002-.031-.006-.061-.007-.091-.003-.119-.007-.238-.006-.357.001-.087-.044-.131-.125-.135-.162-.008-.325-.015-.487-.014-.084 0-.167.018-.25.028-.07.009-.108.052-.118.12-.008.06-.017.121-.018.182-.002.355-.002.709 0 1.064.001.264.035.309.294.322.188.009.377-.002.565-.013.114-.007.133-.03.138-.146.006-.15.001-.301.001-.457h.649c0 .159.004.318-.001.476-.003.084-.013.168-.032.25-.062.269-.241.43-.503.482-.391.078-.786.081-1.175-.008-.344-.079-.544-.304-.577-.656-.027-.288-.027-.58-.027-.87-.001-.232.001-.465.027-.695.042-.379.287-.617.664-.676.08-.012.16-.024.241-.035.196-.003.394-.003.591-.003z" fill="#f2f9fb"/><circle cx="442.238" cy="46.981" fill="#58595b" r="4.987"/><circle cx="301.27" cy="46.981" fill="#58595b" r="4.987"/></svg>