<svg enable-background="new 0 0 172.02 172.02" viewBox="0 0 172.02 172.02" xmlns="http://www.w3.org/2000/svg"><path d="m86.01 172.02c-47.502 0-86.01-38.508-86.01-86.01s38.508-86.01 86.01-86.01 86.01 38.508 86.01 86.01-38.508 86.01-86.01 86.01zm12.603-86.712c0-6.959-5.654-12.613-12.613-12.613s-12.594 5.654-12.594 12.613 5.634 12.594 12.594 12.594 12.613-5.635 12.613-12.594z"/><path d="m86 1.404c-46.717 0-84.596 37.879-84.596 84.596s37.879 84.596 84.596 84.596c46.737 0 84.596-37.88 84.596-84.596s-37.859-84.596-84.596-84.596zm64.194 133.804c-14.768 19.276-38.038 31.691-64.194 31.691s-49.406-12.416-64.194-31.691c-10.458-13.622-16.685-30.683-16.685-49.208 0-44.68 36.219-80.88 80.88-80.88 44.681 0 80.899 36.199 80.899 80.88 0 18.525-6.228 35.586-16.686 49.208z" fill="#fff"/><path d="m150.194 135.208c-14.768 19.276-38.038 31.691-64.194 31.691s-49.406-12.416-64.194-31.691h43.336l5.812-8.64h27.658l5.694 8.64z"/><path d="m86 5.121c-44.661 0-80.879 36.199-80.879 80.879 0 18.525 6.228 35.586 16.686 49.208h43.336l5.812-8.64h27.658l5.694 8.64h45.906c10.458-13.622 16.686-30.683 16.686-49.208 0-44.68-36.218-80.879-80.899-80.879zm0 106.916c-14.373 0-26.017-11.664-26.017-26.037s11.644-26.037 26.017-26.037 26.037 11.664 26.037 26.037-11.664 26.037-26.037 26.037z" fill="#9a999e"/><path d="m86 59.963c-14.373 0-26.017 11.664-26.017 26.037s11.644 26.037 26.017 26.037 26.037-11.664 26.037-26.037-11.664-26.037-26.037-26.037zm0 50.157c-13.325 0-24.12-10.795-24.12-24.12s10.795-24.12 24.12-24.12 24.139 10.795 24.139 24.12-10.814 24.12-24.139 24.12z" fill="#c2c3c9"/><path d="m86 61.88c-13.325 0-24.12 10.795-24.12 24.12s10.795 24.12 24.12 24.12 24.139-10.795 24.139-24.12-10.814-24.12-24.139-24.12zm0 46.698c-12.455 0-22.558-10.122-22.558-22.577s10.103-22.559 22.558-22.559c12.475 0 22.577 10.103 22.577 22.558s-10.102 22.578-22.577 22.578z" fill="#9a999e"/><path d="m86 63.442c-12.455 0-22.558 10.103-22.558 22.558s10.103 22.578 22.558 22.578c12.475 0 22.577-10.122 22.577-22.577s-10.102-22.559-22.577-22.559zm0 34.46c-6.959 0-12.594-5.635-12.594-12.594s5.634-12.613 12.594-12.613 12.613 5.654 12.613 12.613-5.654 12.594-12.613 12.594z" fill="#5b5b5f" stroke="#3e3c3c" stroke-miterlimit="10" stroke-width="1.977"/><g fill="#fff"><path d="m77.766 145.025c0-.589 0-1.065 0-1.539.036-.03.069-.08.101-.08 1.964 0 3.929-.057 5.889.029 1.071.047 1.903 1.252 1.834 2.382-.069 1.162-1.018 2.113-2.204 2.131-1.745.028-3.49.011-5.235.011-1.304.001-2.608.012-3.911-.004-1.401-.016-2.221-.843-2.225-2.215-.003-1.004 0-2.009 0-3.113h1.61 1.618c0 .847-.003 1.649 0 2.449.004 1.006.1 1.102 1.088 1.103 1.635.001 3.27.001 4.905 0 .133 0 .265.004.398-.005.38-.028.698-.211.597-.604-.057-.216-.386-.502-.605-.514-.991-.057-1.988-.028-2.982-.029-.263-.002-.523-.002-.878-.002z"/><path d="m69.785 143.347v1.657c-2.562 0-5.088 0-7.598 0-.115.886.11 1.166.892 1.17 2.123.009 4.245.003 6.368.004h.849v1.737c-.231.013-.464.041-.699.041-2.764.003-5.528.007-8.292 0-1.675-.005-2.431-.768-2.424-2.413.003-.94 0-1.878 0-2.868h3.177c.169.612.661.683 1.231.677 1.858-.014 3.716-.005 5.573-.005z"/><path d="m57.004 142.085c-5.776 0-11.554 0-17.402 0 0-.597 0-1.169 0-1.774.208-.02.378-.053.549-.053 5.016-.003 10.033-.007 15.049.001 1.155.001 1.854.712 1.804 1.826z"/><path d="m96.82 144.239c0-.586 0-1.057 0-1.571h3.21v5.234c-1.048 0-2.07 0-3.16 0-.023-.485-.044-.957-.069-1.521-1.9 0-3.785 0-5.737 0 0-.75 0-1.41 0-2.142z"/><path d="m122.654 147.932c0-.606 0-1.124 0-1.715.289-.016.545-.041.801-.042 1.592-.004 3.183.003 4.776-.004.739-.004.905-.166.912-.884.009-.853.003-1.705.003-2.612h3.254c0 .44.003.888-.001 1.336-.005.614-.017 1.23-.027 1.844-.016 1.112-.729 2.031-1.823 2.057-2.603.063-5.21.02-7.895.02z"/><path d="m72.081 142.069c-.117-1.036.588-1.79 1.706-1.808 1.282-.02 2.565-.005 3.847-.005h7.098.828v1.813c-4.496 0-8.989 0-13.479 0z"/><path d="m132.321 142.076c-4.467 0-8.895 0-13.363 0-.016-.24-.038-.431-.042-.623-.005-.368-.001-.735-.001-1.131.218-.03.365-.067.512-.067 3.713-.004 7.424-.011 11.137.001 1.12.003 1.811.715 1.757 1.82z"/><path d="m87.228 142.071c.02-1.09.634-1.796 1.644-1.804 3.178-.024 6.356-.024 9.534.001 1.001.008 1.665.791 1.603 1.803-4.258 0-8.519 0-12.781 0z"/><path d="m58.899 142.078c0-.608 0-1.166 0-1.774h11.407v1.774c-3.78 0-7.546 0-11.407 0z"/><path d="m53.792 147.907c0-1.774 0-3.474 0-5.228h3.226v5.228c-1.078 0-2.104 0-3.226 0z"/><path d="m39.6 142.658h3.149v5.253c-1.071 0-2.074 0-3.149 0 0-1.738 0-3.454 0-5.253z"/><path d="m87.192 147.908c0-1.787 0-3.486 0-5.235h3.195v5.235c-1.079 0-2.1 0-3.195 0z"/><path d="m49.858 147.92c-1.058 0-2.063 0-3.132 0 0-1.746 0-3.465 0-5.24h3.132z"/><path d="m118.953 147.9c0-1.782 0-3.486 0-5.235h3.177v5.235c-1.062 0-2.087 0-3.177 0z"/><path d="m117.207 141.796v.269h-11.05v-.269c0-.807.698-1.471 1.547-1.471h7.957c.848 0 1.546.664 1.546 1.471z"/><path d="m117.207 146.173v.269c0 .807-.698 1.453-1.547 1.453h-7.957c-.849 0-1.547-.646-1.547-1.453v-3.802h2.415v2.977c0 .305.264.556.585.556z"/><path d="m101.421 138.055-.039.198-.079.297-.316.079h-5.279v-1.127c-.257.751-.475 1.167-1.246 1.167-.218 0-.494-.04-.85-.079l-.455-.059h-.039c-.178.099-.316.138-.554.138h-.059c-.573-.02-1.147-.02-1.72-.02h-2.768c-1.384-.02-2.412-.771-2.788-1.977v1.977h-4.112c-.297 0-.613 0-.929-.02-1.305-.099-2.432-1.285-2.471-2.61v-.158c-.099.534-.316 1.048-.633 1.483-.593.791-1.443 1.246-2.353 1.285-.553.02-1.087.04-1.641.04l-3.064-.02v-3.677h1.661c-.554-.316-1.028-.811-1.344-1.503-.593-1.226-.494-2.471.277-3.618.593-.85 1.384-1.325 2.273-1.364.613-.02 1.206-.02 1.819-.02h2.985v1.661h.02v.949c.02-1.265 1.107-2.491 2.293-2.55.652-.04 1.305-.059 1.977-.059l3.282.02v1.858c.376-1.166 1.364-1.858 2.728-1.898h2.847 1.661v1.997h-.02v1.344h.039v3.4l1.621-4.962c.415-1.285 1.206-1.937 2.333-1.937.158 0 .336.02.534.04.85.138 1.463.652 1.74 1.463.692 2.115 1.364 4.231 2.056 6.346z"/></g><path d="m100.98 138.224c-1.604 0-3.212 0-4.875 0 0-.366 0-.701 0-1.14h3.342c-.243-.735-.444-1.333-.639-1.933-.485-1.496-.938-3.005-1.47-4.483-.129-.358-.477-.801-.795-.875-.535-.124-.709.431-.858.891-.741 2.293-1.504 4.578-2.221 6.88-.168.54-.415.723-.958.708-1.496-.041-2.993-.004-4.49-.017-1.516-.014-2.508-1.006-2.541-2.575-.03-1.414-.032-2.829 0-4.242.037-1.594.997-2.564 2.528-2.586 1.349-.019 2.698-.004 4.095-.004v1.2c-1.159 0-2.312 0-3.465 0-1.626 0-1.999.392-2 2.107 0 1.067-.005 2.134.001 3.201.007 1.141.526 1.698 1.601 1.709.872.009 1.744.002 2.661.002 0-1.267 0-2.444 0-3.722-.741 0-1.463 0-2.219 0 0-.435 0-.77 0-1.158h3.458v4.903c.063.007.126.015.189.022.732-2.254 1.464-4.508 2.194-6.763.417-1.289 1.185-1.813 2.424-1.623.689.106 1.2.508 1.425 1.19.896 2.707 1.765 5.424 2.64 8.138.015.041-.013.096-.027.17z"/><path d="m70.427 138.249c0-.416 0-.753 0-1.187 1.301 0 2.576.014 3.851-.004 1.067-.016 1.865-.79 1.903-1.803.037-.991-.752-1.839-1.801-1.913-.426-.03-.858.011-1.282-.035-.652-.07-1.128-.686-1.127-1.396.001-.721.471-1.365 1.129-1.384 1.395-.041 2.791-.012 4.224-.012v1.174c-.713 0-1.418 0-2.122 0-.66 0-1.319 0-1.979 0-.001.132-.003.263-.004.395.391.017.782.042 1.173.051 1.474.034 2.539.893 2.907 2.352.449 1.781-.83 3.677-2.591 3.75-1.395.058-2.796.012-4.281.012z"/><path d="m70.415 136.596c0-.426 0-.745 0-1.226h4.115c0-.115.001-.23.001-.345-.42-.017-.839-.042-1.259-.049-1.178-.02-2.054-.584-2.571-1.669-.526-1.105-.445-2.212.248-3.227.475-.697 1.132-1.169 1.959-1.195 1.446-.046 2.893-.013 4.397-.013v1.176c-1.299 0-2.598-.022-3.897.006-1.29.028-2.127 1.232-1.737 2.444.234.73.903 1.219 1.76 1.27.403.024.81-.006 1.21.035.65.066 1.143.679 1.15 1.38s-.484 1.383-1.119 1.401c-1.394.04-2.791.012-4.257.012z"/><path d="m84.874 128.887v1.16c-1.286 0-2.56-.001-3.834 0-1.339.001-1.806.475-1.815 1.861-.007 1.116-.003 2.231.005 3.347.01 1.288.504 1.807 1.719 1.81 1.277.003 2.554.001 3.879.001v1.191c-.953 0-1.891.002-2.83-.001-.593-.002-1.189.02-1.779-.022-1.089-.077-2.079-1.095-2.107-2.234-.04-1.635-.038-3.273-.001-4.908.024-1.047.908-2.125 1.91-2.181 1.603-.089 3.212-.024 4.853-.024z"/><path d="m93.647 138.197c.827-2.555 1.631-5.055 2.455-7.548.058-.177.241-.364.406-.424.09-.033.344.162.392.304.672 1.998 1.321 4.005 1.994 6.066-.976 0-1.868 0-2.793 0-.031-.297-.059-.56-.086-.824-.04-.015-.08-.029-.12-.044-.159.463-.322.924-.477 1.388-.41 1.232-.408 1.233-1.771 1.082zm2.387-2.951h.98c-.152-.473-.282-.873-.411-1.274-.056.004-.113.007-.169.011-.123.387-.245.775-.4 1.263z"/><path d="m89.495 135.126c-.357-.105-.57-.167-.824-.241 0-.325 0-.662 0-1.054h1.811v2.762c-.926 0-1.847.053-2.755-.036-.236-.023-.607-.478-.619-.748-.062-1.486-.044-2.976-.026-4.465.006-.522.312-.828.815-.833 1.376-.013 2.752-.005 4.189-.005v1.18c-1.035 0-2.051.029-3.064-.011-.621-.024-.861.203-.822.858.042.692.003 1.389.011 2.084.012.829.395 1.029 1.284.509z"/><path d="m80.905 135.326c1.278.238 2.603-.011 3.928.139v1.126c-1.516 0-3.002.037-4.484-.037-.236-.012-.59-.495-.644-.806-.103-.597-.03-1.228-.03-1.908h4.218v1.113c-.983 0-1.966 0-2.949 0-.013.124-.026.248-.039.373z"/><path d="m84.875 130.517v1.118c-1.315.187-2.664-.12-3.956.166.004.103.009.205.013.308h2.963v1.169c-1.372 0-2.738 0-4.207 0 0-.685-.059-1.401.031-2.095.032-.248.419-.627.655-.636 1.488-.059 2.978-.03 4.501-.03z"/></svg>