<svg xmlns="http://www.w3.org/2000/svg" viewBox="0 0 480.179 237.422"><path d="M346.87 237.422H20.739c-5.008 0-9.105-4.097-9.105-9.105V104.39c0-5.008 4.097-9.105 9.105-9.105H346.87c5.008 0 9.105 4.097 9.105 9.105v123.927c0 5.008-4.097 9.105-9.105 9.105z" fill="#202223"/><path d="M197.304 118.426h-44.067a1.333 1.333 0 0 1-1.329-1.329v-7.205c0-.731.598-1.329 1.329-1.329h44.067c.731 0 1.329.598 1.329 1.329v7.205c0 .731-.598 1.329-1.329 1.329zM269.92 118.426h-67.443a1.333 1.333 0 0 1-1.329-1.329v-7.205c0-.731.598-1.329 1.329-1.329h67.443c.731 0 1.329.598 1.329 1.329v7.205c0 .731-.598 1.329-1.329 1.329zM148.433 118.426H35.412a1.333 1.333 0 0 1-1.329-1.329v-7.205c0-.731.598-1.329 1.329-1.329h113.02c.731 0 1.329.598 1.329 1.329v7.205a1.331 1.331 0 0 1-1.328 1.329zM277.592 127.172c0-.676-.527-1.221-1.183-1.221H31.446c-.657 0-1.184.544-1.183 1.221v16.275h-2.826c-.657 0-1.184.544-1.183 1.221v16.275h-.461c-.657 0-1.184.544-1.183 1.221v29.89c0 .675.527 1.221 1.183 1.221H61.64v16.941c0 .677.527 1.221 1.183 1.221H276.409c.656 0 1.183-.545 1.183-1.221v.011-83.055zM342.958 169.63h-62.165a1.79 1.79 0 0 1-1.785-1.785V105.68a1.79 1.79 0 0 1 1.785-1.785h62.165a1.79 1.79 0 0 1 1.785 1.785v62.165a1.79 1.79 0 0 1-1.785 1.785z" fill="#221d1f"/><path d="M273.369 124.876H28.832a2.536 2.536 0 0 1-2.529-2.529v-17.704a2.536 2.536 0 0 1 2.529-2.529h244.537a2.536 2.536 0 0 1 2.529 2.529v17.704a2.536 2.536 0 0 1-2.529 2.529z" fill="none" stroke="#5d5d5d" stroke-width=".759" stroke-miterlimit="10"/><path d="M55.191 144.476h11.78c.644 0 1.16.519 1.16 1.161v11.78c0 .642-.517 1.16-1.16 1.16h-11.78c-.643 0-1.16-.519-1.16-1.16v-11.78a1.156 1.156 0 0 1 1.16-1.161zM71.504 144.476h11.78c.644 0 1.16.519 1.16 1.161v11.78c0 .642-.517 1.16-1.16 1.16h-11.78c-.643 0-1.16-.519-1.16-1.16v-11.78a1.156 1.156 0 0 1 1.16-1.161zM87.816 144.476h11.78c.644 0 1.16.519 1.16 1.161v11.78c0 .642-.517 1.16-1.16 1.16h-11.78c-.643 0-1.16-.519-1.16-1.16v-11.78c0-.644.517-1.161 1.16-1.161zM104.129 144.476h11.78c.644 0 1.16.519 1.16 1.161v11.78c0 .642-.517 1.16-1.16 1.16h-11.78c-.643 0-1.16-.519-1.16-1.16v-11.78c0-.644.517-1.161 1.16-1.161zM120.442 144.476h11.78c.644 0 1.16.519 1.16 1.161v11.78c0 .642-.517 1.16-1.16 1.16h-11.78c-.643 0-1.16-.519-1.16-1.16v-11.78a1.156 1.156 0 0 1 1.16-1.161zM136.755 144.476h11.78c.644 0 1.16.519 1.16 1.161v11.78c0 .642-.517 1.16-1.16 1.16h-11.78c-.643 0-1.16-.519-1.16-1.16v-11.78a1.156 1.156 0 0 1 1.16-1.161zM153.068 144.476h11.78c.644 0 1.16.519 1.16 1.161v11.78c0 .642-.517 1.16-1.16 1.16h-11.78c-.643 0-1.16-.519-1.16-1.16v-11.78a1.156 1.156 0 0 1 1.16-1.161zM169.381 144.476h11.78c.644 0 1.16.519 1.16 1.161v11.78c0 .642-.517 1.16-1.16 1.16h-11.78c-.643 0-1.16-.519-1.16-1.16v-11.78a1.156 1.156 0 0 1 1.16-1.161zM185.694 144.476h11.78c.644 0 1.16.519 1.16 1.161v11.78c0 .642-.517 1.16-1.16 1.16h-11.78c-.643 0-1.16-.519-1.16-1.16v-11.78a1.156 1.156 0 0 1 1.16-1.161zM202.007 144.476h11.78c.644 0 1.16.519 1.16 1.161v11.78c0 .642-.517 1.16-1.16 1.16h-11.78c-.643 0-1.16-.519-1.16-1.16v-11.78a1.156 1.156 0 0 1 1.16-1.161zM218.319 144.476h11.78c.644 0 1.16.519 1.16 1.161v11.78c0 .642-.517 1.16-1.16 1.16h-11.78c-.643 0-1.16-.519-1.16-1.16v-11.78c0-.644.517-1.161 1.16-1.161zM234.632 144.476h11.78c.644 0 1.16.519 1.16 1.161v11.78c0 .642-.517 1.16-1.16 1.16h-11.78c-.643 0-1.16-.519-1.16-1.16v-11.78c0-.644.517-1.161 1.16-1.161zM60.755 161.105h11.78c.644 0 1.16.519 1.16 1.161v11.78c0 .642-.517 1.16-1.16 1.16h-11.78c-.643 0-1.16-.519-1.16-1.16v-11.78a1.156 1.156 0 0 1 1.16-1.161zM77.068 161.105h11.78c.644 0 1.16.519 1.16 1.161v11.78c0 .642-.517 1.16-1.16 1.16h-11.78c-.643 0-1.16-.519-1.16-1.16v-11.78a1.156 1.156 0 0 1 1.16-1.161zM93.381 161.105h11.78c.644 0 1.16.519 1.16 1.161v11.78c0 .642-.517 1.16-1.16 1.16h-11.78c-.643 0-1.16-.519-1.16-1.16v-11.78a1.156 1.156 0 0 1 1.16-1.161zM109.693 161.105h11.78c.644 0 1.16.519 1.16 1.161v11.78c0 .642-.517 1.16-1.16 1.16h-11.78c-.643 0-1.16-.519-1.16-1.16v-11.78c0-.644.517-1.161 1.16-1.161zM126.006 161.105h11.78c.644 0 1.16.519 1.16 1.161v11.78c0 .642-.517 1.16-1.16 1.16h-11.78c-.643 0-1.16-.519-1.16-1.16v-11.78c0-.644.517-1.161 1.16-1.161zM142.319 161.105h11.78c.644 0 1.16.519 1.16 1.161v11.78c0 .642-.517 1.16-1.16 1.16h-11.78c-.643 0-1.16-.519-1.16-1.16v-11.78a1.156 1.156 0 0 1 1.16-1.161zM158.632 161.105h11.78c.644 0 1.16.519 1.16 1.161v11.78c0 .642-.517 1.16-1.16 1.16h-11.78c-.643 0-1.16-.519-1.16-1.16v-11.78a1.156 1.156 0 0 1 1.16-1.161zM174.945 161.105h11.78c.644 0 1.16.519 1.16 1.161v11.78c0 .642-.517 1.16-1.16 1.16h-11.78c-.643 0-1.16-.519-1.16-1.16v-11.78a1.156 1.156 0 0 1 1.16-1.161zM191.258 161.105h11.78c.644 0 1.16.519 1.16 1.161v11.78c0 .642-.517 1.16-1.16 1.16h-11.78c-.643 0-1.16-.519-1.16-1.16v-11.78a1.156 1.156 0 0 1 1.16-1.161zM207.571 161.105h11.78c.644 0 1.16.519 1.16 1.161v11.78c0 .642-.517 1.16-1.16 1.16h-11.78c-.643 0-1.16-.519-1.16-1.16v-11.78a1.156 1.156 0 0 1 1.16-1.161zM223.884 161.105h11.78c.644 0 1.16.519 1.16 1.161v11.78c0 .642-.517 1.16-1.16 1.16h-11.78c-.643 0-1.16-.519-1.16-1.16v-11.78a1.156 1.156 0 0 1 1.16-1.161zM240.196 161.105h11.78c.644 0 1.16.519 1.16 1.161v11.78c0 .642-.517 1.16-1.16 1.16h-11.78c-.643 0-1.16-.519-1.16-1.16v-11.78c0-.644.517-1.161 1.16-1.161z" fill="#5d5d5d"/><g fill="#5d5d5d"><path d="M66.161 177.734h11.78c.644 0 1.16.519 1.16 1.161v11.78c0 .642-.517 1.16-1.16 1.16h-11.78c-.643 0-1.16-.519-1.16-1.16v-11.78a1.156 1.156 0 0 1 1.16-1.161zM82.474 177.734h11.78c.644 0 1.16.519 1.16 1.161v11.78c0 .642-.517 1.16-1.16 1.16h-11.78c-.643 0-1.16-.519-1.16-1.16v-11.78a1.156 1.156 0 0 1 1.16-1.161zM98.786 177.734h11.78c.644 0 1.16.519 1.16 1.161v11.78c0 .642-.517 1.16-1.16 1.16h-11.78c-.643 0-1.16-.519-1.16-1.16v-11.78c0-.644.517-1.161 1.16-1.161zM115.099 177.734h11.78c.644 0 1.16.519 1.16 1.161v11.78c0 .642-.517 1.16-1.16 1.16h-11.78c-.643 0-1.16-.519-1.16-1.16v-11.78c0-.644.517-1.161 1.16-1.161zM131.412 177.734h11.78c.644 0 1.16.519 1.16 1.161v11.78c0 .642-.517 1.16-1.16 1.16h-11.78c-.643 0-1.16-.519-1.16-1.16v-11.78a1.156 1.156 0 0 1 1.16-1.161zM147.725 177.734h11.78c.644 0 1.16.519 1.16 1.161v11.78c0 .642-.517 1.16-1.16 1.16h-11.78c-.643 0-1.16-.519-1.16-1.16v-11.78a1.156 1.156 0 0 1 1.16-1.161zM164.038 177.734h11.78c.644 0 1.16.519 1.16 1.161v11.78c0 .642-.517 1.16-1.16 1.16h-11.78c-.643 0-1.16-.519-1.16-1.16v-11.78a1.156 1.156 0 0 1 1.16-1.161zM180.351 177.734h11.78c.644 0 1.16.519 1.16 1.161v11.78c0 .642-.517 1.16-1.16 1.16h-11.78c-.643 0-1.16-.519-1.16-1.16v-11.78a1.156 1.156 0 0 1 1.16-1.161zM196.664 177.734h11.78c.644 0 1.16.519 1.16 1.161v11.78c0 .642-.517 1.16-1.16 1.16h-11.78c-.643 0-1.16-.519-1.16-1.16v-11.78a1.156 1.156 0 0 1 1.16-1.161zM212.977 177.734h11.78c.644 0 1.16.519 1.16 1.161v11.78c0 .642-.517 1.16-1.16 1.16h-11.78c-.643 0-1.16-.519-1.16-1.16v-11.78a1.156 1.156 0 0 1 1.16-1.161zM229.289 177.734h11.78c.644 0 1.16.519 1.16 1.161v11.78c0 .642-.517 1.16-1.16 1.16h-11.78c-.643 0-1.16-.519-1.16-1.16v-11.78c0-.644.517-1.161 1.16-1.161z"/></g><path d="M273.888 177.734c.624 0 1.125.519 1.125 1.161v11.78c0 .642-.501 1.16-1.125 1.16h-25.772c-.623 0-1.125-.519-1.125-1.16v-11.78c-.001-.644.501-1.161 1.125-1.161h25.772zM50.006 127.847h11.78c.644 0 1.16.519 1.16 1.161v11.78c0 .642-.517 1.16-1.16 1.16h-11.78c-.643 0-1.16-.519-1.16-1.16v-11.78a1.156 1.156 0 0 1 1.16-1.161zM66.319 127.847h11.78c.644 0 1.16.519 1.16 1.161v11.78c0 .642-.517 1.16-1.16 1.16h-11.78c-.643 0-1.16-.519-1.16-1.16v-11.78a1.156 1.156 0 0 1 1.16-1.161zM82.632 127.847h11.78c.644 0 1.16.519 1.16 1.161v11.78c0 .642-.517 1.16-1.16 1.16h-11.78c-.643 0-1.16-.519-1.16-1.16v-11.78a1.156 1.156 0 0 1 1.16-1.161zM98.945 127.847h11.78c.644 0 1.16.519 1.16 1.161v11.78c0 .642-.517 1.16-1.16 1.16h-11.78c-.643 0-1.16-.519-1.16-1.16v-11.78a1.156 1.156 0 0 1 1.16-1.161zM115.258 127.847h11.78c.644 0 1.16.519 1.16 1.161v11.78c0 .642-.517 1.16-1.16 1.16h-11.78c-.643 0-1.16-.519-1.16-1.16v-11.78a1.156 1.156 0 0 1 1.16-1.161zM131.57 127.847h11.78c.644 0 1.16.519 1.16 1.161v11.78c0 .642-.517 1.16-1.16 1.16h-11.78c-.643 0-1.16-.519-1.16-1.16v-11.78c0-.644.517-1.161 1.16-1.161zM147.883 127.847h11.78c.644 0 1.16.519 1.16 1.161v11.78c0 .642-.517 1.16-1.16 1.16h-11.78c-.643 0-1.16-.519-1.16-1.16v-11.78a1.157 1.157 0 0 1 1.16-1.161zM164.196 127.847h11.78c.644 0 1.16.519 1.16 1.161v11.78c0 .642-.517 1.16-1.16 1.16h-11.78c-.643 0-1.16-.519-1.16-1.16v-11.78a1.156 1.156 0 0 1 1.16-1.161zM180.509 127.847h11.78c.644 0 1.16.519 1.16 1.161v11.78c0 .642-.517 1.16-1.16 1.16h-11.78c-.643 0-1.16-.519-1.16-1.16v-11.78a1.156 1.156 0 0 1 1.16-1.161zM196.822 127.847h11.78c.644 0 1.16.519 1.16 1.161v11.78c0 .642-.517 1.16-1.16 1.16h-11.78c-.643 0-1.16-.519-1.16-1.16v-11.78a1.156 1.156 0 0 1 1.16-1.161zM213.135 127.847h11.78c.644 0 1.16.519 1.16 1.161v11.78c0 .642-.517 1.16-1.16 1.16h-11.78c-.643 0-1.16-.519-1.16-1.16v-11.78a1.156 1.156 0 0 1 1.16-1.161zM229.448 127.847h11.78c.644 0 1.16.519 1.16 1.161v11.78c0 .642-.517 1.16-1.16 1.16h-11.78c-.643 0-1.16-.519-1.16-1.16v-11.78a1.156 1.156 0 0 1 1.16-1.161zM33.693 127.847h11.78c.644 0 1.16.519 1.16 1.161v11.78c0 .642-.517 1.16-1.16 1.16h-11.78c-.643 0-1.16-.519-1.16-1.16v-11.78a1.156 1.156 0 0 1 1.16-1.161zM245.761 127.847h11.78c.644 0 1.16.519 1.16 1.161v11.78c0 .642-.517 1.16-1.16 1.16h-11.78c-.643 0-1.16-.519-1.16-1.16v-11.78a1.156 1.156 0 0 1 1.16-1.161zM262.073 127.847h11.78c.644 0 1.16.519 1.16 1.161v11.78c0 .642-.517 1.16-1.16 1.16h-11.78c-.643 0-1.16-.519-1.16-1.16v-11.78c0-.644.517-1.161 1.16-1.161zM56.162 161.105c.677 0 1.22.519 1.22 1.161v11.78c0 .642-.544 1.16-1.22 1.16H28.209c-.676 0-1.22-.519-1.22-1.16v-11.78c-.001-.644.543-1.161 1.22-1.161h27.953zM64.454 194.995h11.78c.644 0 1.16.519 1.16 1.161v11.78c0 .642-.517 1.16-1.16 1.16h-11.78c-.643 0-1.16-.519-1.16-1.16v-11.78a1.156 1.156 0 0 1 1.16-1.161zM80.767 194.995h11.78c.644 0 1.16.519 1.16 1.161v11.78c0 .642-.517 1.16-1.16 1.16h-11.78c-.643 0-1.16-.519-1.16-1.16v-11.78a1.156 1.156 0 0 1 1.16-1.161zM97.08 194.995h11.78c.644 0 1.16.519 1.16 1.161v11.78c0 .642-.517 1.16-1.16 1.16H97.08c-.643 0-1.16-.519-1.16-1.16v-11.78a1.156 1.156 0 0 1 1.16-1.161zM230.063 194.995c.664 0 1.196.519 1.196 1.161v11.78c0 .642-.533 1.16-1.196 1.16h-27.421c-.663 0-1.196-.519-1.196-1.16v-11.78c-.001-.644.533-1.161 1.196-1.161h27.421zM234.632 194.995h11.78c.644 0 1.16.519 1.16 1.161v11.78c0 .642-.517 1.16-1.16 1.16h-11.78c-.643 0-1.16-.519-1.16-1.16v-11.78c0-.644.517-1.161 1.16-1.161zM61.08 177.734c.644 0 1.16.519 1.16 1.161v11.78c0 .642-.517 1.16-1.16 1.16H28.15c-.643 0-1.16-.519-1.16-1.16v-11.78a1.156 1.156 0 0 1 1.16-1.161h32.93zM50.614 158.576c.643 0 1.16-.518 1.16-1.16v-11.78c0-.642-.516-1.161-1.16-1.161H29.762c-.644 0-1.161.517-1.16 1.161v11.78c0 .642.517 1.16 1.16 1.16h20.852zM274.001 194.995c.562 0 1.012.519 1.012 1.161v11.78c0 .642-.451 1.16-1.012 1.16h-23.203c-.561 0-1.012-.519-1.012-1.16v-11.78c-.001-.644.451-1.161 1.012-1.161h23.203zM112.886 194.869h85.167c.644 0 1.16.519 1.16 1.161v11.78c0 .642-.517 1.16-1.16 1.16v.126h-85.167c-.643 0-1.16-.519-1.16-1.16v-11.78a1.156 1.156 0 0 1 1.16-1.161M254.769 158.576h-3.824c-.643 0-1.16-.519-1.16-1.16v-11.78a1.156 1.156 0 0 1 1.16-1.161h22.908c.644 0 1.16.519 1.16 1.161v28.409c0 .642-.517 1.16-1.16 1.16h-16.764c-.642 0-1.16-.517-1.16-1.16v-14.239c0-.642-.517-1.23-1.16-1.23zM281.421 121.335h11.78c.644 0 1.16.519 1.16 1.161v11.78c0 .642-.517 1.16-1.16 1.16h-11.78c-.643 0-1.16-.519-1.16-1.16v-11.78a1.157 1.157 0 0 1 1.16-1.161zM297.734 121.335h11.78c.644 0 1.16.519 1.16 1.161v11.78c0 .642-.517 1.16-1.16 1.16h-11.78c-.643 0-1.16-.519-1.16-1.16v-11.78a1.156 1.156 0 0 1 1.16-1.161zM314.047 121.335h11.78c.644 0 1.16.519 1.16 1.161v11.78c0 .642-.517 1.16-1.16 1.16h-11.78c-.643 0-1.16-.519-1.16-1.16v-11.78a1.156 1.156 0 0 1 1.16-1.161zM330.36 121.335h11.78c.644 0 1.16.519 1.16 1.161v11.78c0 .642-.517 1.16-1.16 1.16h-11.78c-.643 0-1.16-.519-1.16-1.16v-11.78a1.156 1.156 0 0 1 1.16-1.161zM281.421 104.706h11.78c.644 0 1.16.519 1.16 1.161v11.78c0 .642-.517 1.16-1.16 1.16h-11.78c-.643 0-1.16-.519-1.16-1.16v-11.78a1.157 1.157 0 0 1 1.16-1.161zM297.734 104.706h11.78c.644 0 1.16.519 1.16 1.161v11.78c0 .642-.517 1.16-1.16 1.16h-11.78c-.643 0-1.16-.519-1.16-1.16v-11.78a1.156 1.156 0 0 1 1.16-1.161zM314.047 104.706h11.78c.644 0 1.16.519 1.16 1.161v11.78c0 .642-.517 1.16-1.16 1.16h-11.78c-.643 0-1.16-.519-1.16-1.16v-11.78a1.156 1.156 0 0 1 1.16-1.161zM330.36 104.706h11.78c.644 0 1.16.519 1.16 1.161v11.78c0 .642-.517 1.16-1.16 1.16h-11.78c-.643 0-1.16-.519-1.16-1.16v-11.78a1.156 1.156 0 0 1 1.16-1.161zM281.421 154.593h11.78c.644 0 1.16.519 1.16 1.161v11.78c0 .642-.517 1.16-1.16 1.16h-11.78c-.643 0-1.16-.519-1.16-1.16v-11.78a1.157 1.157 0 0 1 1.16-1.161zM297.734 154.593h11.78c.644 0 1.16.519 1.16 1.161v11.78c0 .642-.517 1.16-1.16 1.16h-11.78c-.643 0-1.16-.519-1.16-1.16v-11.78a1.156 1.156 0 0 1 1.16-1.161zM314.047 154.593h11.78c.644 0 1.16.519 1.16 1.161v11.78c0 .642-.517 1.16-1.16 1.16h-11.78c-.643 0-1.16-.519-1.16-1.16v-11.78a1.156 1.156 0 0 1 1.16-1.161zM330.36 154.593h11.78c.644 0 1.16.519 1.16 1.161v11.78c0 .642-.517 1.16-1.16 1.16h-11.78c-.643 0-1.16-.519-1.16-1.16v-11.78a1.156 1.156 0 0 1 1.16-1.161zM281.421 137.964h11.78c.644 0 1.16.519 1.16 1.161v11.78c0 .642-.517 1.16-1.16 1.16h-11.78c-.643 0-1.16-.519-1.16-1.16v-11.78a1.157 1.157 0 0 1 1.16-1.161zM297.734 137.964h11.78c.644 0 1.16.519 1.16 1.161v11.78c0 .642-.517 1.16-1.16 1.16h-11.78c-.643 0-1.16-.519-1.16-1.16v-11.78a1.156 1.156 0 0 1 1.16-1.161zM314.047 137.964h11.78c.644 0 1.16.519 1.16 1.161v11.78c0 .642-.517 1.16-1.16 1.16h-11.78c-.643 0-1.16-.519-1.16-1.16v-11.78a1.156 1.156 0 0 1 1.16-1.161zM330.36 137.964h11.78c.644 0 1.16.519 1.16 1.161v11.78c0 .642-.517 1.16-1.16 1.16h-11.78c-.643 0-1.16-.519-1.16-1.16v-11.78a1.156 1.156 0 0 1 1.16-1.161zM36.928 117.31c-.643 0-1.16-.519-1.16-1.16v-5.31a1.156 1.156 0 0 1 1.16-1.161h18.44c.644 0 1.16.519 1.16 1.161v5.31c0 .642-.517 1.16-1.16 1.16h-18.44zM59.658 117.31c-.643 0-1.16-.519-1.16-1.16v-5.31a1.156 1.156 0 0 1 1.16-1.161h18.44c.644 0 1.16.519 1.16 1.161v5.31c0 .642-.517 1.16-1.16 1.16h-18.44zM82.384 117.31c-.643 0-1.16-.519-1.16-1.16v-5.31a1.156 1.156 0 0 1 1.16-1.161h18.44c.644 0 1.16.519 1.16 1.161v5.31c0 .642-.517 1.16-1.16 1.16h-18.44zM105.115 117.31c-.643 0-1.16-.519-1.16-1.16v-5.31a1.156 1.156 0 0 1 1.16-1.161h18.44c.644 0 1.16.519 1.16 1.161v5.31c0 .642-.517 1.16-1.16 1.16h-18.44zM128.477 117.31c-.643 0-1.16-.519-1.16-1.16v-5.31a1.156 1.156 0 0 1 1.16-1.161h18.44c.644 0 1.16.519 1.16 1.161v5.31c0 .642-.517 1.16-1.16 1.16h-18.44zM154.369 117.31c-.643 0-1.16-.519-1.16-1.16v-5.31a1.156 1.156 0 0 1 1.16-1.161h18.44c.644 0 1.16.519 1.16 1.161v5.31c0 .642-.517 1.16-1.16 1.16h-18.44zM177.732 117.31c-.643 0-1.16-.519-1.16-1.16v-5.31a1.156 1.156 0 0 1 1.16-1.161h18.44c.644 0 1.16.519 1.16 1.161v5.31c0 .642-.517 1.16-1.16 1.16h-18.44zM203.624 117.31c-.643 0-1.16-.519-1.16-1.16v-5.31a1.156 1.156 0 0 1 1.16-1.161h18.44c.644 0 1.16.519 1.16 1.161v5.31c0 .642-.517 1.16-1.16 1.16h-18.44zM226.355 117.31c-.643 0-1.16-.519-1.16-1.16v-5.31a1.156 1.156 0 0 1 1.16-1.161h18.44c.644 0 1.16.519 1.16 1.161v5.31c0 .642-.517 1.16-1.16 1.16h-18.44zM249.717 117.31c-.643 0-1.16-.519-1.16-1.16v-5.31a1.156 1.156 0 0 1 1.16-1.161h18.44c.644 0 1.16.519 1.16 1.161v5.31c0 .642-.517 1.16-1.16 1.16h-18.44z" fill="#5d5d5d"/><path d="M177.732 117.31c-.643 0-1.16-.519-1.16-1.16v-5.31a1.156 1.156 0 0 1 1.16-1.161h18.44c.644 0 1.16.519 1.16 1.161v5.31c0 .642-.517 1.16-1.16 1.16h-18.44z" fill="#5d5d5d"/><path fill="none" stroke="#fff" stroke-width=".759" stroke-miterlimit="10" d="M311.404 202.852h7.459"/><path d="M342.958 210.107h-60.912a1.79 1.79 0 0 1-1.785-1.785v-19.413a1.79 1.79 0 0 1 1.785-1.785h60.912a1.79 1.79 0 0 1 1.785 1.785v19.413a1.79 1.79 0 0 1-1.785 1.785z" fill="#221d1f"/><path d="M322.259 217.505h-19.798a1.79 1.79 0 0 1-1.785-1.785v-34.556a1.79 1.79 0 0 1 1.785-1.785h19.798a1.79 1.79 0 0 1 1.785 1.785v34.556a1.79 1.79 0 0 1-1.785 1.785z" fill="#221d1f"/><path d="M298.381 209.24h-16.193a1.04 1.04 0 0 1-1.037-1.037v-19.158a1.04 1.04 0 0 1 1.037-1.037h16.193a1.04 1.04 0 0 1 1.037 1.037v19.158a1.04 1.04 0 0 1-1.037 1.037z" fill="#5d5d5d"/><path fill="none" stroke="#fff" stroke-width=".759" stroke-miterlimit="10" d="M290.089 193.572l-5.051 5.051 5.051 5.051"/><path d="M308.731 198.623h-18.624c0-4.945 4.169-8.953 9.312-8.953l9.312 8.953z" fill="#181718"/><path d="M308.731 198.623h-18.624c0 4.945 4.169 8.953 9.312 8.953l9.312-8.953z" fill="#272727"/><path fill="none" stroke="#fff" stroke-width=".759" stroke-miterlimit="10" d="M294.147 198.623h7.335"/><path d="M326.428 209.24h16.193a1.04 1.04 0 0 0 1.037-1.037v-19.158a1.04 1.04 0 0 0-1.037-1.037h-16.193a1.04 1.04 0 0 0-1.037 1.037v19.158a1.04 1.04 0 0 0 1.037 1.037z" fill="#5d5d5d"/><path fill="none" stroke="#fff" stroke-width=".759" stroke-miterlimit="10" d="M334.72 193.572l5.05 5.051-5.05 5.051"/><path d="M316.078 198.623h18.624c0-4.945-4.169-8.953-9.312-8.953l-9.312 8.953z" fill="#181718"/><path d="M316.078 198.623h18.624c0 4.945-4.169 8.953-9.312 8.953l-9.312-8.953z" fill="#272727"/><path fill="none" stroke="#fff" stroke-width=".759" stroke-miterlimit="10" d="M330.662 198.623h-7.335"/><path d="M323.269 190.432h-21.787v-8.75c0-.71.581-1.291 1.291-1.291h19.263c.71 0 1.291.581 1.291 1.291v8.692a.059.059 0 0 1-.058.058z" fill="#5d5d5d"/><path fill="none" stroke="#fff" stroke-width=".759" stroke-miterlimit="10" d="M317.455 187.936l-5.051-5.051-5.05 5.051"/><path fill="#181718" d="M323.27 190.432l-8.275 7.445h-5.36l-8.153-7.445z"/><path fill="none" stroke="#fff" stroke-width=".759" stroke-miterlimit="10" d="M308.731 194.147h7.334"/><path d="M301.54 206.784h21.787v8.75c0 .71-.581 1.291-1.291 1.291h-19.263c-.71 0-1.291-.581-1.291-1.291v-8.692c0-.032.026-.058.058-.058z" fill="#5d5d5d"/><path fill="none" stroke="#fff" stroke-width=".759" stroke-miterlimit="10" d="M307.354 209.279l5.05 5.051 5.051-5.051"/><path fill="#272727" d="M301.539 206.784l8.275-7.446h5.36l8.153 7.446z"/><path fill="none" stroke="#fff" stroke-width=".759" stroke-miterlimit="10" d="M316.078 203.069h-7.334"/><path fill="#202223" d="M183.79 2.213h159.823l5.23 43.754H18.712l5.229-43.754h159.823"/><path fill="#eddeae" d="M294.216 30.843h1.675v-.852h-1.675v-1.883h-.794v1.883h-1.675v.852h1.675v1.884h.794z"/><path fill="#e3cf94" d="M271.759 26.018h16.119v6.708h-16.119z"/><path d="M286.603 26.962l-1.532 2.3 1.667 2.513h-1.539l-.916-1.345-.923 1.348h-1.529c.042-.089 1.674-2.516 1.674-2.516l-.696-.995-2.951.003c-.138.011-.306-.032-.375.128-.024.053-.035.131-.007.184a.23.23 0 0 0 .141.134l.093.007h1.181c.547.014 1.054.364 1.291.87.21.425.179 1.005-.055 1.409-.296.513-.823.8-1.395.779h-3.285s-.503-1.865-.506-1.869l-.506 1.869h-1.198l-.482-1.876-.527 1.872H272.9s1.219-4.508 1.298-4.806h1.12l.527 2.01.537-2.01h1.099l.94 3.501h2.19c.151-.007.361.035.423-.156a.239.239 0 0 0-.055-.234.278.278 0 0 0-.196-.064h-1.178a1.494 1.494 0 0 1-1.319-.945 1.564 1.564 0 0 1 .317-1.642 1.476 1.476 0 0 1 1.037-.464l3.864-.003.779 1.153.805-1.157 1.515.002z" fill="#202223"/><path d="M289.786 31.784c.079-.57 1.505-.919 1.505-2.164 0-1.186-.803-1.488-1.505-1.488-.702 0-1.45.546-1.45 1.442v.337h1.053v-.244c0-.308.147-.501.408-.501s.384.157.384.477c0 .721-1.189 1.012-1.686 1.92-.213.387-.227 1.163-.227 1.163h2.955v-.943h-1.437z" fill="#eddeae"/><path d="M152.475 40.106h-9.247a2.768 2.768 0 0 1-2.76-2.76 2.768 2.768 0 0 1 2.76-2.76h9.247a2.768 2.768 0 0 1 2.76 2.76 2.768 2.768 0 0 1-2.76 2.76z" fill="none" stroke="#131314" stroke-width=".759" stroke-miterlimit="10"/><path fill="#131314" d="M99.989 14.226h95.726v3.794H99.989z"/><path d="M195.383 34.586H100.32a2.768 2.768 0 0 1-2.76-2.76V15.564a2.768 2.768 0 0 1 2.76-2.76h95.062a2.768 2.768 0 0 1 2.76 2.76v16.262a2.767 2.767 0 0 1-2.759 2.76z" fill="none" stroke="#131314" stroke-width=".759" stroke-miterlimit="10"/><path fill="#131314" d="M29.848 2.213H183.79v10.591H29.848z"/><path d="M42.55 12.804h-9.283a.713.713 0 0 1-.711-.711V.711a.712.712 0 0 1 .71-.711h9.283c.391 0 .711.32.711.711v11.381a.712.712 0 0 1-.71.712zM55.862 12.804H49.14a.713.713 0 0 1-.711-.711V.711c0-.391.32-.711.711-.711h6.721c.391 0 .711.32.711.711v11.381a.712.712 0 0 1-.71.712zM68.989 12.804h-6.721a.713.713 0 0 1-.711-.711V.711c0-.391.32-.711.711-.711h6.721c.391 0 .711.32.711.711v11.381a.712.712 0 0 1-.711.712zM82.117 12.804h-6.721a.713.713 0 0 1-.711-.711V.711A.712.712 0 0 1 75.396 0h6.721c.391 0 .711.32.711.711v11.381c0 .392-.32.712-.711.712zM95.245 12.804h-6.721a.713.713 0 0 1-.711-.711V.711a.712.712 0 0 1 .71-.711h6.721c.391 0 .711.32.711.711v11.381a.712.712 0 0 1-.71.712zM108.372 12.804h-6.721a.713.713 0 0 1-.711-.711V.711c0-.391.32-.711.711-.711h6.721c.391 0 .711.32.711.711v11.381a.713.713 0 0 1-.711.712zM121.5 12.804h-6.721a.713.713 0 0 1-.711-.711V.711c0-.391.32-.711.711-.711h6.721c.391 0 .711.32.711.711v11.381c0 .392-.32.712-.711.712zM134.627 12.804h-6.721a.713.713 0 0 1-.711-.711V.711c0-.391.32-.711.711-.711h6.721c.391 0 .711.32.711.711v11.381a.712.712 0 0 1-.711.712zM147.755 12.804h-6.721a.713.713 0 0 1-.711-.711V.711c0-.391.32-.711.711-.711h6.721c.391 0 .711.32.711.711v11.381c0 .392-.32.712-.711.712zM160.883 12.804h-6.721a.713.713 0 0 1-.711-.711V.711c0-.391.32-.711.711-.711h6.721c.391 0 .711.32.711.711v11.381c0 .392-.32.712-.711.712zM174.01 12.804h-6.721a.713.713 0 0 1-.711-.711V.711c0-.391.32-.711.711-.711h6.721c.391 0 .711.32.711.711v11.381a.712.712 0 0 1-.711.712z" fill="#202223"/><path fill="#131314" d="M337.707 12.804H183.765V2.213h153.942z"/><path d="M325.005 12.804h9.283c.391 0 .711-.32.711-.711V.711a.713.713 0 0 0-.711-.711h-9.283a.713.713 0 0 0-.711.711v11.381c0 .392.32.712.711.712zM311.693 12.804h6.721c.391 0 .711-.32.711-.711V.711a.713.713 0 0 0-.711-.711h-6.721a.713.713 0 0 0-.711.711v11.381a.712.712 0 0 0 .711.712zM298.565 12.804h6.721c.391 0 .711-.32.711-.711V.711a.713.713 0 0 0-.711-.711h-6.721a.713.713 0 0 0-.711.711v11.381c0 .392.32.712.711.712zM285.437 12.804h6.721c.391 0 .711-.32.711-.711V.711a.713.713 0 0 0-.711-.711h-6.721a.713.713 0 0 0-.711.711v11.381c0 .392.32.712.711.712zM272.31 12.804h6.721c.391 0 .711-.32.711-.711V.711a.713.713 0 0 0-.711-.711h-6.721a.713.713 0 0 0-.711.711v11.381c0 .392.32.712.711.712zM259.182 12.804h6.721c.391 0 .711-.32.711-.711V.711a.713.713 0 0 0-.711-.711h-6.721a.713.713 0 0 0-.711.711v11.381c0 .392.32.712.711.712zM246.055 12.804h6.721c.391 0 .711-.32.711-.711V.711a.713.713 0 0 0-.711-.711h-6.721a.713.713 0 0 0-.711.711v11.381a.712.712 0 0 0 .711.712zM232.927 12.804h6.721c.391 0 .711-.32.711-.711V.711a.713.713 0 0 0-.711-.711h-6.721a.713.713 0 0 0-.711.711v11.381c0 .392.32.712.711.712zM219.799 12.804h6.721c.391 0 .711-.32.711-.711V.711A.713.713 0 0 0 226.52 0h-6.721a.713.713 0 0 0-.711.711v11.381c0 .392.32.712.711.712zM206.672 12.804h6.721c.391 0 .711-.32.711-.711V.711a.713.713 0 0 0-.711-.711h-6.721a.713.713 0 0 0-.711.711v11.381a.713.713 0 0 0 .711.712zM193.544 12.804h6.721c.391 0 .711-.32.711-.711V.711a.713.713 0 0 0-.711-.711h-6.721a.713.713 0 0 0-.711.711v11.381c0 .392.32.712.711.712zM187.138 12.804h-6.721a.713.713 0 0 1-.711-.711V.711c0-.391.32-.711.711-.711h6.721c.391 0 .711.32.711.711v11.381c0 .392-.32.712-.711.712z" fill="#202223"/><path fill="none" stroke="#e3cf94" stroke-width=".759" stroke-miterlimit="10" d="M28.002 16.123h67.954M334.999 16.123H200.977"/><path fill="#202223" d="M29.848 0h-5.646l-.132 1.106-.133 1.107h5.911zM337.706 0h5.646l.133 1.106.132 1.107h-5.911z"/><path fill="#272727" d="M16.755 70.247h334.044v18.905H16.755z"/><path fill="#656265" d="M16.755 45.967h334.044v24.28H16.755z"/><path fill="#202223" d="M16.755 51.784h334.044V64.43H16.755z"/><path d="M6.955 89.152L0 76.756c.448-2.306 3.618-4.291 7.201-5.031l9.554-1.479v18.905h-9.8z" fill="#272727"/><path d="M16.755 64.43V51.785L8.15 53.363c-3.227.79-6.082 2.909-6.486 5.372v.044l-.616 5.761-.763 6.84c.463-2.462 2.896-4.582 6.598-5.372l9.872-1.578z" fill="#202223"/><path d="M1.665 58.735l1.005-6.258c.377-2.306 3.042-4.291 6.054-5.031l8.032-1.479v5.817L8.15 53.363c-3.227.79-6.082 2.909-6.485 5.372zM0 76.756l.285-5.376c.463-2.462 2.896-4.582 6.598-5.372l9.873-1.579v5.817l-9.554 1.479C3.618 72.465.448 74.45 0 76.756l.142.253" fill="#656265"/><ellipse cx="322.078" cy="57.727" rx="4.909" ry="4.679" fill="#5e5e5e"/><path fill="none" stroke="#131314" stroke-width=".759" stroke-miterlimit="10" d="M207.262 65.568v4.678l-.847 2.403"/><g><path fill="#dddfde" stroke="#221d1f" stroke-width=".759" stroke-miterlimit="10" d="M233.603 84.22h-27.864l3.172-8.156h27.865z"/><g fill="#040006"><path d="M219.058 81.375h-5.185l.558-3.162h5.184zM224.93 81.375h-3.706l.557-3.162h3.707zM231.783 81.375h-4.489l.557-3.162h4.489zM211.711 79.027h-2.229l.255-1.446h2.229z"/></g></g><g><path fill="#dddfde" stroke="#221d1f" stroke-width=".759" stroke-miterlimit="10" d="M261.339 84.22h-27.865l3.173-8.156h27.864z"/><g fill="#040006"><path d="M246.793 81.375h-5.184l.557-3.162h5.185zM252.666 81.375h-3.707l.557-3.162h3.707zM259.518 81.375h-4.489l.557-3.162h4.49zM239.446 79.027h-2.229l.255-1.446h2.229z"/></g></g><g><path fill="#dddfde" stroke="#221d1f" stroke-width=".759" stroke-miterlimit="10" d="M289.181 84.22h-27.864l3.172-8.156h27.864z"/><g fill="#040006"><path d="M274.636 81.375h-5.185l.557-3.162h5.185zM280.508 81.375h-3.707l.558-3.162h3.706zM287.36 81.375h-4.489l.558-3.162h4.489zM267.288 79.027h-2.229l.256-1.446h2.228z"/></g></g><g><path fill="#dddfde" stroke="#221d1f" stroke-width=".759" stroke-miterlimit="10" d="M317.088 84.22h-27.864l3.173-8.156h27.864z"/><g fill="#040006"><path d="M302.543 81.375h-5.185l.558-3.162h5.185zM308.415 81.375h-3.706l.557-3.162h3.707zM315.268 81.375h-4.489l.557-3.162h4.489zM295.196 79.027h-2.229l.255-1.446h2.229z"/></g></g><g><path fill="#7c3036" stroke="#221d1f" stroke-width=".759" stroke-miterlimit="10" d="M345.037 84.22h-27.864l3.172-8.156h27.864z"/><g fill="#8e9092"><path d="M330.492 81.375h-5.185l.557-3.162h5.185zM336.364 81.375h-3.707l.558-3.162h3.706zM343.216 81.375h-4.489l.557-3.162h4.49zM323.144 79.027h-2.229l.255-1.446h2.229z"/></g></g><path fill="#dddfde" stroke="#221d1f" stroke-width=".759" stroke-miterlimit="10" d="M183.804 76.064h4.805v8.156h-4.805z"/><path fill="none" stroke="#131314" stroke-width=".759" stroke-miterlimit="10" d="M181.692 89.152H78.15l-3.73-16.503h107.272z"/><path fill="#5e5e5e" d="M120.892 80.142h2.023v5.532h-2.023zM123.595 80.142h2.023v5.532h-2.023zM126.298 80.142h2.023v5.532h-2.023zM129.001 80.142h2.023v5.532h-2.023zM131.704 80.142h2.023v5.532h-2.023z"/><path fill="none" stroke="#131314" stroke-width=".759" stroke-miterlimit="10" d="M120.892 82.908h12.836"/><path fill="#5e5e5e" d="M164.931 80.142h2.023v5.532h-2.023zM167.634 80.142h2.023v5.532h-2.023zM170.337 80.142h2.023v5.532h-2.023z"/><path fill="none" stroke="#131314" stroke-width=".759" stroke-miterlimit="10" d="M164.931 82.908h7.429M89.405 80.142h65.378v5.532H89.405z"/><path d="M117.242 77.436h-.192a1.045 1.045 0 0 1-1.042-1.042c0-.573.469-1.042 1.042-1.042h.192c.573 0 1.042.469 1.042 1.042 0 .573-.469 1.042-1.042 1.042zM120.182 77.436h-.192a1.045 1.045 0 0 1-1.042-1.042c0-.573.469-1.042 1.042-1.042h.192c.573 0 1.042.469 1.042 1.042 0 .573-.469 1.042-1.042 1.042zM123.122 77.436h-.192a1.045 1.045 0 0 1-1.042-1.042c0-.573.469-1.042 1.042-1.042h.192c.573 0 1.042.469 1.042 1.042 0 .573-.468 1.042-1.042 1.042zM126.063 77.436h-.192a1.045 1.045 0 0 1-1.042-1.042c0-.573.469-1.042 1.042-1.042h.192c.573 0 1.042.469 1.042 1.042 0 .573-.469 1.042-1.042 1.042z" fill="#eddeae"/><path d="M360.599 89.144l6.955-12.396c-.448-2.306-3.618-4.291-7.201-5.031l-9.555-1.479v18.905h9.801z" fill="#272727"/><path d="M350.799 64.422V51.776l8.605 1.579c3.227.79 6.082 2.909 6.486 5.372v.044l.617 5.761.763 6.84c-.463-2.462-2.896-4.582-6.598-5.372l-9.873-1.578z" fill="#202223"/><path d="M365.89 58.727l-1.005-6.258c-.377-2.306-3.042-4.291-6.054-5.031l-8.032-1.479v5.817l8.605 1.579c3.227.79 6.082 2.91 6.486 5.372zM367.554 76.748l-.285-5.376c-.463-2.462-2.896-4.582-6.598-5.372l-9.873-1.579v5.817l9.555 1.479c3.583.74 6.754 2.725 7.201 5.031l-.142.253" fill="#656265"/><path fill="#181718" d="M133.728 80.142h21.055v5.532h-21.055z"/><path fill="none" stroke="#131314" stroke-width=".759" stroke-miterlimit="10" d="M221.647 65.568v4.678l-.847 2.403M236.198 65.568v4.678l-.847 2.403M250.903 65.568v4.678l-.847 2.403M265.288 65.568v4.678l-.847 2.403M279.839 65.568v4.678l-.847 2.403M292.243 65.757v4.679l-.847 2.403M306.514 65.757v4.679l-.848 2.403M320.297 65.757v4.679l-.847 2.403M333.657 65.757v4.679l-.847 2.403M346.887 65.757v4.679l-.848 2.403"/><path d="M346.887 95.285H20.662c-3.282.028-6.164 1.815-7.745 4.459l-.004-.002-5.942-10.59h-.016H360.6v-.008l-5.94 10.559.006-.004c-1.599-2.64-4.5-4.414-7.795-4.414" fill="#656265"/><g><path d="M480.179 176.917c0-.769-.618-1.387-1.387-1.387H382.77c-.769 0-1.387.618-1.387 1.387v4.204c0 .769.618 1.387 1.387 1.387h4.75c.769 0 1.387.619 1.387 1.387v18.703h-6.147c-.769 0-1.387.618-1.387 1.387v32.049c0 .769.618 1.387 1.387 1.387h96.032c.769 0 1.387-.618 1.387-1.387v-59.117" fill="#222"/><path d="M471.057 233.415h-70.541c-2.849 0-5.18-2.331-5.18-5.18V180.71c0-2.849 2.331-5.18 5.18-5.18h70.541c2.849 0 5.18 2.331 5.18 5.18v47.526c0 2.848-2.331 5.179-5.18 5.179z" fill="#e0e0e0"/><circle cx="388.711" cy="221.537" r="3.306" fill="#1b1913"/><path d="M382.77 202.599v-20.09h4.75c.769 0 1.387.619 1.387 1.387v18.703h-6.147" fill="#1b1913"/><path d="M389.687 186.351h-8.081a.223.223 0 0 1-.223-.223v-1.506c0-.123.1-.223.223-.223h8.081c.123 0 .223.1.223.223v1.506c0 .123-.1.223-.223.223zM389.687 189.846h-8.081a.223.223 0 0 1-.223-.223v-1.506c0-.123.1-.223.223-.223h8.081c.123 0 .223.1.223.223v1.506c0 .123-.1.223-.223.223zM389.687 193.341h-8.081a.223.223 0 0 1-.223-.223v-1.506c0-.123.1-.223.223-.223h8.081c.123 0 .223.1.223.223v1.506c0 .123-.1.223-.223.223zM389.687 196.742h-8.081a.223.223 0 0 1-.223-.223v-1.506c0-.123.1-.223.223-.223h8.081c.123 0 .223.1.223.223v1.506c0 .123-.1.223-.223.223zM389.687 200.143h-8.081a.223.223 0 0 1-.223-.223v-1.506c0-.123.1-.223.223-.223h8.081c.123 0 .223.1.223.223v1.506c0 .122-.1.223-.223.223z" fill="#333"/><path fill="#26241e" d="M472.488 189.408h1.175v-.582h-1.175v-1.287h-.558v1.287h-1.176v.582h1.176v1.287h.558zM456.722 186.112h11.317v4.583h-11.317z"/><path d="M467.143 186.757l-1.076 1.571 1.17 1.717h-1.081l-.643-.919-.648.921h-1.073c.029-.061 1.175-1.719 1.175-1.719l-.488-.68-2.072.002c-.097.008-.215-.022-.264.087-.017.036-.024.089-.005.126.017.041.056.08.099.092l.065.005h.829c.384.01.74.249.907.595.148.29.126.687-.039.962-.208.35-.578.546-.979.532h-2.307s-.353-1.274-.355-1.277l-.355 1.277h-.841l-.339-1.282-.37 1.279h-.931s.856-3.08.911-3.283h.786l.37 1.373.377-1.373h.771l.66 2.392h1.538c.106-.005.254.024.297-.106a.159.159 0 0 0-.039-.16.2.2 0 0 0-.138-.043h-.827a1.046 1.046 0 0 1-.926-.645 1.05 1.05 0 0 1 .95-1.439l2.713-.002.547.788.565-.79 1.066-.001z" fill="#fff"/><path d="M469.377 190.051c.055-.39 1.057-.628 1.057-1.479 0-.81-.564-1.017-1.057-1.017s-1.018.373-1.018.985v.23h.74v-.167c0-.211.103-.342.286-.342s.27.108.27.326c0 .493-.835.692-1.184 1.312-.15.265-.159.795-.159.795h2.075v-.644h-1.01z" fill="#26241e"/><g><path fill="#26241e" d="M456.722 180.069h11.317v4.583h-11.317z"/><path d="M467.143 180.714l-1.076 1.571 1.17 1.717h-1.081l-.643-.919-.648.921h-1.073c.029-.061 1.175-1.719 1.175-1.719l-.488-.68-2.072.002c-.097.008-.215-.022-.264.087-.017.036-.024.089-.005.126.017.041.056.08.099.092l.065.005h.829c.384.01.74.249.907.595.148.29.126.687-.039.962-.208.35-.578.546-.979.532h-2.307s-.353-1.274-.355-1.277l-.355 1.277h-.841l-.339-1.282-.37 1.279h-.931s.856-3.08.911-3.283h.786l.37 1.373.377-1.373h.771l.66 2.392h1.538c.106-.005.254.024.297-.106a.159.159 0 0 0-.039-.16.2.2 0 0 0-.138-.043h-.827a1.046 1.046 0 0 1-.926-.645 1.05 1.05 0 0 1 .95-1.439l2.713-.002.547.788.565-.79 1.066-.001z" fill="#fff"/><path d="M469.377 184.008c.055-.39 1.057-.628 1.057-1.479 0-.81-.564-1.017-1.057-1.017s-1.018.373-1.018.985v.23h.74v-.167c0-.211.103-.342.286-.342s.27.108.27.326c0 .493-.835.692-1.184 1.312-.15.265-.159.795-.159.795h2.075v-.644h-1.01z" fill="#26241e"/></g></g></svg>