<svg xmlns="http://www.w3.org/2000/svg" viewBox="-545.077 571.505 98.807 61.892"><path d="M-446.271 572.893c0-.769-.618-1.387-1.387-1.387h-96.022c-.769 0-1.387.618-1.387 1.387v4.204c0 .768.618 1.387 1.387 1.387h4.75c.769 0 1.387.619 1.387 1.387v18.703h-6.147c-.769 0-1.387.618-1.387 1.387v32.049c0 .768.618 1.387 1.387 1.387h96.032c.769 0 1.387-.618 1.387-1.387v-59.117" fill="#222"/><path d="M-455.393 629.391h-70.541c-2.849 0-5.18-2.331-5.18-5.18v-47.526c0-2.849 2.331-5.18 5.18-5.18h70.541c2.849 0 5.18 2.331 5.18 5.18v47.526c0 2.849-2.331 5.18-5.18 5.18z" fill="#e0e0e0"/><circle cx="-537.738" cy="617.512" r="3.306" fill="#1a1813"/><path d="M-543.679 598.574v-20.09h4.75c.769 0 1.387.619 1.387 1.387v18.703h-6.147" fill="#1a1813"/><path d="M-536.762 582.327h-8.081a.223.223 0 0 1-.223-.223v-1.506c0-.123.1-.223.223-.223h8.081c.123 0 .223.1.223.223v1.506a.225.225 0 0 1-.223.223zM-536.762 585.822h-8.081a.223.223 0 0 1-.223-.223v-1.506c0-.123.1-.223.223-.223h8.081c.123 0 .223.1.223.223v1.506a.225.225 0 0 1-.223.223zM-536.762 589.317h-8.081a.223.223 0 0 1-.223-.223v-1.506c0-.123.1-.223.223-.223h8.081c.123 0 .223.1.223.223v1.506a.225.225 0 0 1-.223.223zM-536.762 592.717h-8.081a.223.223 0 0 1-.223-.223v-1.506c0-.123.1-.223.223-.223h8.081c.123 0 .223.1.223.223v1.506a.224.224 0 0 1-.223.223zM-536.762 596.118h-8.081a.223.223 0 0 1-.223-.223v-1.506c0-.123.1-.223.223-.223h8.081c.123 0 .223.1.223.223v1.506a.224.224 0 0 1-.223.223z" fill="#333"/><path fill="#25231d" d="M-453.962 585.384h1.176v-.582h-1.176v-1.287h-.557v1.287h-1.176v.582h1.176v1.287h.557zM-469.728 582.087h11.317v4.583h-11.317z"/><path d="M-459.307 582.733l-1.076 1.571 1.17 1.717h-1.081l-.643-.919-.648.921h-1.073a145.65 145.65 0 0 1 1.175-1.719l-.488-.68-2.072.002c-.097.008-.215-.022-.264.087-.017.036-.024.089-.005.126.017.041.056.08.099.092l.065.005h.829c.384.01.74.249.907.595.148.29.126.687-.039.962-.208.35-.578.546-.979.532h-2.307s-.353-1.274-.355-1.277l-.355 1.277h-.841l-.339-1.282-.37 1.279h-.931s.856-3.08.911-3.283h.786l.37 1.373.377-1.373h.771l.66 2.392h1.538c.106-.005.254.024.297-.107a.159.159 0 0 0-.039-.16.2.2 0 0 0-.138-.043h-.827a1.046 1.046 0 0 1-.926-.645 1.05 1.05 0 0 1 .95-1.439l2.713-.002.547.788.565-.79h1.066z" fill="#fff"/><path d="M-457.072 586.027c.055-.39 1.057-.628 1.057-1.479 0-.81-.564-1.017-1.057-1.017s-1.018.373-1.018.985v.23h.74v-.167c0-.211.103-.342.286-.342s.27.108.27.326c0 .493-.835.692-1.184 1.312-.15.265-.159.795-.159.795h2.075v-.644h-1.01z" fill="#25231d"/><g><path fill="#25231d" d="M-469.728 576.045h11.317v4.583h-11.317z"/><path d="M-459.307 576.69l-1.076 1.571 1.17 1.717h-1.081l-.643-.919-.648.921h-1.073a145.65 145.65 0 0 1 1.175-1.719l-.488-.68-2.072.002c-.097.008-.215-.022-.264.087-.017.036-.024.089-.005.126.017.041.056.08.099.092l.065.005h.829c.384.01.74.249.907.595.148.29.126.687-.039.962-.208.35-.578.546-.979.532h-2.307s-.353-1.274-.355-1.277l-.355 1.277h-.841l-.339-1.282-.37 1.279h-.931s.856-3.08.911-3.283h.786l.37 1.373.377-1.373h.771l.66 2.392h1.538c.106-.005.254.024.297-.107a.159.159 0 0 0-.039-.16.2.2 0 0 0-.138-.043h-.827a1.046 1.046 0 0 1-.926-.645 1.05 1.05 0 0 1 .95-1.439l2.713-.002.547.788.565-.79h1.066z" fill="#fff"/><path d="M-457.072 579.984c.055-.39 1.057-.628 1.057-1.479 0-.81-.564-1.017-1.057-1.017s-1.018.373-1.018.985v.23h.74v-.167c0-.211.103-.342.286-.342s.27.108.27.326c0 .493-.835.692-1.184 1.312-.15.265-.159.795-.159.795h2.075v-.644h-1.01z" fill="#25231d"/></g></svg>