<svg enable-background="new 0 0 785.854 232.524" viewBox="0 0 785.854 232.524" xmlns="http://www.w3.org/2000/svg"><path d="m95.747 0s-14.697 15.715-19.391 19.635c-2.149 1.792-16.151.574-28.183 1.502h-18.227c10.403-12.967 17.108-17.515 20.715-19.199 3.636-1.694 7.759-1.938 7.759-1.938z" fill="#dbdde2"/><path d="m435.322.015 13.388 14.805c5.338 5.814 5.338 5.814 13.064 6.087 4.898.174 11.373.156 17.151.229h21.816c-5.585-6.861-10.625-11.453-13.515-14.228-6.061-5.817-14.787-6.908-14.787-6.908z" fill="#dbdde2"/><path d="m95.627 227.131s-6.698-7.352-12.29-12.388c-1.982-1.785-4.549-2.818-7.218-2.84-33.397-.287 0 0-33.397-.287-.506.029-.971.029-1.403 0h-10.133c6.77 8.003 13.115 13.293 16.446 15.879 5.938 4.603 11.515 4.89 11.515 4.89h2.258l39.473-.004zm-14.271-1.225c-3.938.12-20.845.004-21.969-.004-1.284-.007-1.876.196-5.272-2.105-3.393-2.302-3.778-3.636-4.141-4.363-.364-.727-.204-2.32.316-2.771.523-.458 1.229-1.065 2.545-1.171 1.32-.102 9.403.004 9.403.004h11.875s3.123-.076 6.334 2.636c2.145 1.811 3.105 2.487 3.545 3.545.287.687 1.302 4.105-2.636 4.229z" fill="#dbdde2"/><path d="m520.678 171.74c-10.424 35.393-22.06 40.723-22.06 40.723s-.818.364-1.785.396c-.971.029-37.484 0-37.484 0s-2.909-.516-4.727 1.24c-1.818 1.76-18.118 18.242-18.118 18.242l-335.626.04-5.25-5.25s-6.698-7.352-12.29-12.388c-1.982-1.785-4.549-2.818-7.218-2.84-33.397-.287 0 0-33.397-.287-.506.029-.971.029-1.403 0h-10.134c-5.298-6.261-10.857-14.177-15.431-23.754-10.421-21.816-15.755-49.468-15.755-71.669s5.272-47.654 9.272-57.471 9.879-24.059 20.424-37.269c.084-.105.171-.211.251-.316h18.227c12.032-.927 26.034.291 28.183-1.502 4.694-3.92 19.39-19.635 19.39-19.635h166.773l172.802.015 13.388 14.805c5.338 5.814 5.338 5.814 13.064 6.087 4.898.174 11.373.156 17.151.229h21.816c6.127 7.523 12.911 17.773 18.238 31.343 10.181 25.939 10.668 45.33 11.395 53.813.728 8.486.728 30.059-9.696 65.448z" fill="#2d2d2d"/><path d="m515.467 167.74c-10.156 33.891-19.515 38.422-19.515 38.422s-.796.349-1.742.378c-.945.029-36.556.229-36.556.229s-2.836-.494-4.607 1.189c-1.771 1.684-18.06 19.173-18.06 19.173h-339.36s-6.698-7.352-12.29-12.388c-1.982-1.785-4.549-2.818-7.218-2.84-33.397-.287 0 0-33.397-.287-.506.029-.971.029-1.403 0-3.211-.196-4.64-1.847-6.25-3.781-5.141-6.174-11.664-16.827-15.315-24.336-10.155-20.893-13.816-48.065-13.816-69.328s6.025-45.545 9.919-54.948c3.56-8.588 8.647-20.707 17.329-32.382 1.8-2.422 4.432-4.101 7.388-4.709 2.334-.476 4.916-.789 7.599-.996 12.032-.927 26.034.291 28.183-1.502 4.695-3.919 19.391-19.634 19.391-19.634h166.773l172.802.015 13.388 14.805c5.338 5.814 5.338 5.814 13.064 6.087 4.898.174 11.373.156 17.151.229 4.432.055 8.454.16 11.032.44 1.604.178 3.094.916 4.203 2.091 5.6 5.948 12.326 16.173 18.296 29.579 9.919 24.838 10.875 43.345 11.584 51.472.71 8.126 1.583 29.131-8.573 63.022z" fill="#313131"/><path d="m42.723 211.616h-1.403" fill="none" stroke="#ec1c24" stroke-miterlimit="10" stroke-width=".3636"/><path d="m100.892 232.396-.014-.014" fill="none" stroke="#ec1c24" stroke-miterlimit="10" stroke-width=".3636"/><path d="m48.359 21.136h-.185" fill="none" stroke="#ec1c24" stroke-miterlimit="10" stroke-width=".3512"/><path d="m408.108 188.709h-284.146c-.852 0-1.55-.697-1.55-1.55v-156.642c0-.852.697-1.55 1.55-1.55h284.146c.852 0 1.55.697 1.55 1.55v156.643c0 .852-.697 1.549-1.55 1.549z" fill="#0f0f12"/><path d="m469.773 71.811c-18.875 0-34.179 15.304-34.179 34.178 0 18.875 15.304 34.179 34.179 34.179s34.179-15.304 34.179-34.179c0-18.874-15.304-34.178-34.179-34.178zm0 67.267c-18.275 0-33.088-14.813-33.088-33.088s14.813-33.088 33.088-33.088 33.088 14.813 33.088 33.088-14.813 33.088-33.088 33.088z" fill="#0f0f12"/><circle cx="436.686" cy="104.717" fill="#0f0f12" r="15.756"/><circle cx="436.686" cy="104.717" fill="#232323" r="14.786"/><circle cx="502.861" cy="104.717" fill="#0f0f12" r="15.756"/><circle cx="502.861" cy="104.717" fill="#232323" r="14.665"/><ellipse cx="469.864" cy="71.72" fill="#0f0f12" rx="15.756" ry="15.756" transform="matrix(.3481 -.9375 .9375 .3481 239.0655 487.2301)"/><ellipse cx="469.864" cy="71.72" fill="#232323" rx="14.574" ry="14.574" transform="matrix(.3861 -.9225 .9225 .3861 222.2876 477.457)"/><circle cx="469.864" cy="138.169" fill="#0f0f12" r="15.756"/><circle cx="469.864" cy="138.169" fill="#232323" r="14.574"/><path d="m364.344 207.631v.894c0 7.01 6.599 12.712 14.711 12.712s14.711-5.701 14.711-12.712v-.894zm14.711 11.817c-6.73 0-12.337-4.436-12.879-10.028h25.758c-.542 5.592-6.149 10.028-12.879 10.028z" fill="#231f20"/><path d="m391.934 209.42c-.542 5.592-6.148 10.028-12.879 10.028-6.73 0-12.337-4.436-12.879-10.028z" fill="#232323"/><path d="m398.886 207.631v.894c0 7.01 6.599 12.712 14.711 12.712s14.711-5.701 14.711-12.712v-.894zm14.711 11.817c-6.73 0-12.337-4.436-12.879-10.028h25.758c-.542 5.592-6.149 10.028-12.879 10.028z" fill="#231f20"/><path d="m426.476 209.42c-.542 5.592-6.148 10.028-12.879 10.028-6.73 0-12.337-4.436-12.879-10.028z" fill="#232323"/><path d="m105.459 207.631v.894c0 7.01 6.599 12.712 14.711 12.712s14.711-5.701 14.711-12.712v-.894zm14.711 11.817c-6.73 0-12.337-4.436-12.879-10.028h25.758c-.542 5.592-6.148 10.028-12.879 10.028z" fill="#231f20"/><path d="m133.049 209.42c-.542 5.592-6.149 10.028-12.879 10.028s-12.337-4.436-12.879-10.028z" fill="#232323"/><path d="m160.923 205.631h-4.909c-3.916 0-7.105 3.189-7.105 7.105v1.396c0 3.916 3.189 7.105 7.105 7.105h4.909c3.92 0 7.108-3.189 7.108-7.105v-1.396c0-3.916-3.189-7.105-7.108-7.105zm5.319 8.501c0 2.931-2.385 5.316-5.319 5.316h-4.909c-2.931 0-5.316-2.385-5.316-5.316v-1.396c0-2.931 2.385-5.316 5.316-5.316h4.909c2.934 0 5.319 2.385 5.319 5.316z" fill="#231f20"/><path d="m166.242 212.736v1.396c0 2.931-2.385 5.316-5.319 5.316h-4.909c-2.931 0-5.316-2.385-5.316-5.316v-1.396c0-2.931 2.385-5.316 5.316-5.316h4.909c2.934 0 5.319 2.385 5.319 5.316z" fill="#232323"/><path d="m195.436 205.631h-4.909c-3.92 0-7.105 3.189-7.105 7.105v1.396c0 3.916 3.185 7.105 7.105 7.105h4.909c3.92 0 7.105-3.189 7.105-7.105v-1.396c0-3.916-3.185-7.105-7.105-7.105zm5.316 8.501c0 2.931-2.385 5.316-5.316 5.316h-4.909c-2.931 0-5.316-2.385-5.316-5.316v-1.396c0-2.931 2.385-5.316 5.316-5.316h4.909c2.931 0 5.316 2.385 5.316 5.316z" fill="#231f20"/><path d="m200.752 212.736v1.396c0 2.931-2.385 5.316-5.316 5.316h-4.909c-2.931 0-5.316-2.385-5.316-5.316v-1.396c0-2.931 2.385-5.316 5.316-5.316h4.909c2.931 0 5.316 2.385 5.316 5.316z" fill="#232323"/><path d="m326.318 206.631h-5.061c-3.876 0-7.028 3.152-7.028 7.028v1.549c0 3.876 3.152 7.028 7.028 7.028h5.061c3.876 0 7.029-3.152 7.029-7.028v-1.549c-.001-3.875-3.153-7.028-7.029-7.028zm5.24 8.578c0 2.887-2.349 5.24-5.24 5.24h-5.061c-2.891 0-5.24-2.352-5.24-5.24v-1.549c0-2.887 2.349-5.24 5.24-5.24h5.061c2.891 0 5.24 2.353 5.24 5.24z" fill="#231f20"/><path d="m331.558 213.66v1.549c0 2.887-2.349 5.24-5.24 5.24h-5.061c-2.891 0-5.24-2.352-5.24-5.24v-1.549c0-2.887 2.349-5.24 5.24-5.24h5.061c2.891 0 5.24 2.353 5.24 5.24z" fill="#232323"/><path d="m348.556 206.631h-4.814c-3.945 0-7.152 3.207-7.152 7.152v1.302c0 3.945 3.207 7.152 7.152 7.152h4.814c3.945 0 7.152-3.207 7.152-7.152v-1.302c0-3.945-3.207-7.152-7.152-7.152zm5.363 8.454c0 2.956-2.403 5.363-5.363 5.363h-4.814c-2.96 0-5.363-2.407-5.363-5.363v-1.302c0-2.956 2.403-5.363 5.363-5.363h4.814c2.96 0 5.363 2.407 5.363 5.363z" fill="#231f20"/><path d="m353.919 213.783v1.302c0 2.956-2.403 5.363-5.363 5.363h-4.814c-2.96 0-5.363-2.407-5.363-5.363v-1.302c0-2.956 2.403-5.363 5.363-5.363h4.814c2.96 0 5.363 2.407 5.363 5.363z" fill="#232323"/><path d="m348.558 221.515h-4.818c-3.545 0-6.43-2.884-6.43-6.43v-1.303c0-3.546 2.885-6.43 6.43-6.43h4.818c3.545 0 6.43 2.884 6.43 6.43v1.303c0 3.546-2.885 6.43-6.43 6.43zm-4.818-13.816c-3.355 0-6.084 2.729-6.084 6.084v1.303c0 3.355 2.729 6.084 6.084 6.084h4.818c3.355 0 6.084-2.729 6.084-6.084v-1.303c0-3.355-2.729-6.084-6.084-6.084z" fill="#231f20"/><path d="m154.849 212.98h6.954v1.636h-6.954z" fill="#d0d2d3"/><path d="m192.3 210.48v2.682h-2.636v1.454h2.636v2.545h1.318v-2.545h2.681v-1.363h-2.681v-2.773z" fill="#d0d2d3"/><path d="m325.893 211.525h-3.789c-1.156 0-2.105.949-2.105 2.105v2.062c0 1.156.949 2.105 2.109 2.105h3.785c1.16 0 2.105-.949 2.105-2.105v-2.062c0-1.156-.946-2.105-2.105-2.105zm1.014 3.887c0 .84-.687 1.531-1.531 1.531h-2.752c-.844 0-1.534-.691-1.534-1.531v-1.502c0-.84.691-1.531 1.534-1.531h2.752c.844 0 1.531.691 1.531 1.531z" fill="#d0d2d3"/><path d="m440.913 201.708h-3.727c-2.925 0-5.318-2.393-5.318-5.318 0-2.925 2.393-5.318 5.318-5.318h3.727c2.925 0 5.318 2.393 5.318 5.318-.001 2.925-2.394 5.318-5.318 5.318z" fill="#0f0f12"/><path d="m95.747 201.708h-3.727c-2.925 0-5.318-2.393-5.318-5.318 0-2.925 2.393-5.318 5.318-5.318h3.727c2.925 0 5.318 2.393 5.318 5.318 0 2.925-2.393 5.318-5.318 5.318z" fill="#0f0f12"/><path d="m502.225 184.71c0-1.28 1.038-2.318 2.318-2.318s2.318 1.038 2.318 2.318-1.038 2.318-2.318 2.318-2.318-1.038-2.318-2.318z" fill="#ba8d5e"/><path d="m510.633 160.348c0-1.28 1.038-2.318 2.318-2.318s2.318 1.038 2.318 2.318-1.038 2.318-2.318 2.318-2.318-1.037-2.318-2.318z" fill="#55bfa2"/><path d="m503.087 99.536c-3.062 0-5.541 2.483-5.541 5.545s2.48 5.545 5.541 5.545c3.065 0 5.549-2.483 5.549-5.545s-2.484-5.545-5.549-5.545zm0 9.635c-2.258 0-4.087-1.833-4.087-4.09 0-2.258 1.829-4.09 4.087-4.09 2.262 0 4.094 1.833 4.094 4.09 0 2.258-1.833 4.09-4.094 4.09z" fill="#d0d2d3"/><path d="m469.773 64.219-5.454 9.185h10.683zm0 2.727 2.803 4.978h-5.607z" fill="#d0d2d3"/><path d="m432.261 100.383v9.061h8.788v-9.061zm7.304 7.425h-5.88v-5.879h5.88z" fill="#d0d2d3"/><path d="m469.773 136.957 3.273-3.273 1.091 1.091-3.348 3.348 3.136 3.136-.97.97-3.136-3.136-3.182 3.181-1.045-1.045 3.216-3.216-3.242-3.242 1.041-1.041z" fill="#d0d2d3"/><path d="m65.357 159.712c-9.188 0-16.635 7.447-16.635 16.635s7.447 16.635 16.635 16.635 16.635-7.447 16.635-16.635-7.446-16.635-16.635-16.635zm0 31.633c-8.283 0-14.999-6.716-14.999-14.999s6.716-14.999 14.999-14.999 14.999 6.716 14.999 14.999c0 8.284-6.716 14.999-14.999 14.999z" fill="#0f0f12"/><ellipse cx="65.357" cy="176.347" fill="#232323" rx="14.999" ry="14.999" transform="matrix(.1609 -.987 .987 .1609 -119.209 212.4722)"/><path d="m25.316 184.801c0-1.431 1.16-2.591 2.591-2.591s2.591 1.16 2.591 2.591-1.16 2.591-2.591 2.591c-1.431-.001-2.591-1.161-2.591-2.591z" fill="#55bfa2"/><circle cx="19.453" cy="160.348" fill="#f6921e" r="2.545"/><path d="m63.387 64.721c-22.623 0-40.963 18.34-40.963 40.967 0 22.623 18.34 40.963 40.963 40.963 22.627 0 40.967-18.34 40.967-40.963 0-22.627-18.34-40.967-40.967-40.967zm-11.959 6.203c0-1.873 1.52-3.392 3.392-3.392h17.758c1.873 0 3.392 1.52 3.392 3.392v14.053c0 .585-.236 1.149-.651 1.563l-9.225 9.126c-1.32 1.331-3.469 1.335-4.796.015l-9.206-9.166c-.425-.425-.665-1-.665-1.6v-13.991zm-25.976 25.612c0-1.872 1.52-3.393 3.392-3.393h14.053c.585 0 1.149.236 1.564.651l9.126 9.225c1.331 1.32 1.334 3.469.015 4.796l-9.166 9.206c-.425.425-1 .665-1.6.665h-13.991c-1.873 0-3.392-1.52-3.392-3.392v-17.758zm47.127 46.763h-17.759c-1.872 0-3.392-1.52-3.392-3.392v-14.053c0-.585.236-1.149.651-1.563l9.225-9.126c1.32-1.331 3.469-1.334 4.796-.015l9.206 9.166c.425.425.665 1 .665 1.6v13.991c0 1.872-1.52 3.392-3.392 3.392zm3.297.073c.658-.662 1.065-1.574 1.065-2.582v-15.097c0-.651-.258-1.269-.716-1.727l-9.934-9.89c-1.436-1.425-3.752-1.422-5.181.011l-9.948 9.854c-.451.444-.705 1.054-.705 1.687v15.162c0 1.174.553 2.218 1.411 2.887-12.471-3.771-22.343-13.515-26.296-25.907.64.553 1.476.887 2.389.887h15.097c.651 0 1.269-.258 1.727-.716l9.89-9.934c1.425-1.436 1.422-3.752-.011-5.181l-9.854-9.948c-.444-.451-1.055-.705-1.687-.705h-15.162c-.803 0-1.545.258-2.149.694 4.021-11.795 13.442-21.092 25.318-24.939-.426.596-.673 1.327-.673 2.113v15.097c0 .651.258 1.269.716 1.727l9.934 9.89c1.436 1.425 3.752 1.422 5.181-.011l9.948-9.854c.451-.444.705-1.054.705-1.687v-15.162c0-.673-.182-1.305-.502-1.847 11.537 4.011 20.649 13.202 24.561 24.783-.629-.502-1.425-.803-2.291-.803h-15.095c-.651 0-1.269.258-1.727.716l-9.89 9.934c-1.425 1.436-1.422 3.752.011 5.181l9.854 9.948c.444.451 1.054.705 1.687.705h15.162c.985 0 1.88-.389 2.538-1.025-3.822 12.133-13.315 21.75-25.373 25.739zm25.343-46.836v17.758c0 1.872-1.52 3.392-3.392 3.392h-14.053c-.585 0-1.149-.236-1.563-.651l-9.126-9.225c-1.331-1.32-1.334-3.469-.015-4.796l9.166-9.206c.425-.425 1-.666 1.6-.666h13.991c1.873.002 3.392 1.522 3.392 3.394z" fill="#0f0f12"/><path d="m53.602 107.815-9.166 9.206c-.425.425-1 .665-1.6.665h-13.991c-1.873 0-3.392-1.52-3.392-3.392v-17.758c0-1.872 1.52-3.393 3.392-3.393h14.053c.585 0 1.149.236 1.564.651l9.126 9.225c1.33 1.32 1.334 3.469.014 4.796z" fill="#232323"/><path d="m30.815 105.172v.454l5.181 5.181v-10.635zm4.007 2.847-2.341-2.531 2.341-2.338z" fill="#d0d2d3"/><path d="m101.219 96.536v17.758c0 1.872-1.52 3.392-3.392 3.392h-14.053c-.585 0-1.149-.236-1.563-.651l-9.126-9.225c-1.331-1.32-1.334-3.469-.015-4.796l9.166-9.206c.425-.425 1-.666 1.6-.666h13.991c1.873.002 3.392 1.522 3.392 3.394z" fill="#232323"/><path d="m95.856 105.659v-.455l-5.181-5.181v10.635zm-4.007-2.847 2.342 2.531-2.342 2.338z" fill="#d0d2d3"/><path d="m75.971 70.924v14.053c0 .585-.236 1.149-.651 1.563l-9.225 9.126c-1.32 1.331-3.469 1.335-4.796.015l-9.206-9.166c-.425-.425-.665-1-.665-1.6v-13.991c0-1.873 1.52-3.392 3.392-3.392h17.758c1.873 0 3.393 1.52 3.393 3.392z" fill="#232323"/><path d="m63.943 72.895h-.454l-5.181 5.181h10.635zm-2.847 4.007 2.531-2.342 2.338 2.342z" fill="#d0d2d3"/><path d="m75.971 125.915v13.991c0 1.873-1.52 3.392-3.392 3.392h-17.759c-1.872 0-3.392-1.52-3.392-3.392v-14.053c0-.585.236-1.149.651-1.563l9.225-9.126c1.32-1.331 3.469-1.334 4.796-.015l9.206 9.166c.425.426.665 1 .665 1.6z" fill="#232323"/><path d="m63.456 137.936h.455l5.181-5.181h-10.636zm2.847-4.007-2.531 2.342-2.338-2.342z" fill="#d0d2d3"/><g fill="#0f0f12"><circle cx="91.385" cy="15.09" r="1.515"/><path d="m93.143 10.863c0-.837.678-1.515 1.515-1.515s1.515.678 1.515 1.515-.678 1.515-1.515 1.515-1.515-.679-1.515-1.515z"/><circle cx="99.566" cy="10.863" r="1.515"/><circle cx="104.596" cy="10.863" r="1.515"/><circle cx="109.353" cy="10.863" r="1.515"/><circle cx="114.11" cy="10.863" r="1.515"/><circle cx="118.898" cy="10.863" r="1.515"/><circle cx="123.806" cy="10.863" r="1.515"/><circle cx="128.351" cy="10.863" r="1.515"/><circle cx="133.306" cy="10.863" r="1.515"/><circle cx="137.896" cy="10.863" r="1.515"/><circle cx="142.896" cy="10.863" r="1.515"/><circle cx="147.804" cy="10.863" r="1.515"/><circle cx="152.622" cy="10.863" r="1.515"/><circle cx="157.212" cy="10.863" r="1.515"/><circle cx="162.303" cy="10.863" r="1.515"/><circle cx="166.893" cy="10.863" r="1.515"/><circle cx="171.681" cy="10.863" r="1.515"/><path d="m175.074 10.863c0-.837.678-1.515 1.515-1.515s1.515.678 1.515 1.515-.678 1.515-1.515 1.515c-.836 0-1.515-.679-1.515-1.515z"/><circle cx="181.134" cy="10.863" r="1.515"/><circle cx="186.164" cy="10.863" r="1.515"/><circle cx="191.133" cy="10.863" r="1.515"/><circle cx="195.663" cy="10.863" r="1.515"/><circle cx="200.481" cy="10.863" r="1.515"/><circle cx="205.344" cy="10.863" r="1.515"/><circle cx="209.98" cy="10.863" r="1.515"/><path d="m213.374 10.863c0-.837.678-1.515 1.515-1.515s1.515.678 1.515 1.515-.678 1.515-1.515 1.515-1.515-.679-1.515-1.515z"/><circle cx="219.706" cy="10.863" r="1.515"/><circle cx="224.524" cy="10.863" r="1.515"/><circle cx="229.342" cy="10.863" r="1.515"/><circle cx="233.978" cy="10.863" r="1.515"/><circle cx="238.841" cy="10.863" r="1.515"/><circle cx="243.795" cy="10.863" r="1.515"/><circle cx="248.431" cy="10.863" r="1.515"/><circle cx="253.112" cy="10.863" r="1.515"/><circle cx="258.112" cy="10.863" r="1.515"/><circle cx="431.33" cy="10.863" r="1.515"/><circle cx="435.837" cy="10.863" r="1.515"/><circle cx="426.422" cy="10.863" r="1.515"/><path d="m422.907 10.863c0 .837-.678 1.515-1.515 1.515s-1.515-.678-1.515-1.515.678-1.515 1.515-1.515 1.515.678 1.515 1.515z"/><circle cx="416.635" cy="10.863" r="1.515"/><circle cx="411.878" cy="10.863" r="1.515"/><circle cx="407.09" cy="10.863" r="1.515"/><path d="m403.697 10.863c0 .837-.678 1.515-1.515 1.515s-1.515-.678-1.515-1.515.678-1.515 1.515-1.515c.836 0 1.515.678 1.515 1.515z"/><circle cx="397.636" cy="10.863" r="1.515"/><path d="m394.197 10.863c0 .837-.678 1.515-1.515 1.515s-1.515-.678-1.515-1.515.678-1.515 1.515-1.515 1.515.678 1.515 1.515z"/><circle cx="388.092" cy="10.863" r="1.515"/><path d="m384.607 10.863c0 .837-.678 1.515-1.515 1.515s-1.515-.678-1.515-1.515.678-1.515 1.515-1.515 1.515.678 1.515 1.515z"/><circle cx="378.184" cy="10.863" r="1.515"/><circle cx="373.366" cy="10.863" r="1.515"/><circle cx="368.776" cy="10.863" r="1.515"/><circle cx="363.685" cy="10.863" r="1.515"/><circle cx="359.095" cy="10.863" r="1.515"/><circle cx="354.307" cy="10.863" r="1.515"/><circle cx="349.399" cy="10.863" r="1.515"/><circle cx="344.854" cy="10.863" r="1.515"/><circle cx="339.824" cy="10.863" r="1.515"/><circle cx="334.854" cy="10.863" r="1.515"/><path d="m331.84 10.863c0 .837-.678 1.515-1.515 1.515s-1.515-.678-1.515-1.515.678-1.515 1.515-1.515c.836 0 1.515.678 1.515 1.515z"/><circle cx="325.507" cy="10.863" r="1.515"/><path d="m322.159 10.863c0 .837-.678 1.515-1.515 1.515s-1.515-.678-1.515-1.515.678-1.515 1.515-1.515c.836 0 1.515.678 1.515 1.515z"/><circle cx="316.008" cy="10.863" r="1.515"/><circle cx="311.099" cy="10.863" r="1.515"/><circle cx="306.281" cy="10.863" r="1.515"/><path d="m302.979 10.863c0 .837-.678 1.515-1.515 1.515s-1.515-.678-1.515-1.515.678-1.515 1.515-1.515 1.515.678 1.515 1.515z"/><circle cx="296.646" cy="10.863" r="1.515"/><circle cx="292.01" cy="10.863" r="1.515"/><circle cx="287.147" cy="10.863" r="1.515"/><path d="m283.708 10.863c0 .837-.678 1.515-1.515 1.515s-1.515-.678-1.515-1.515.678-1.515 1.515-1.515 1.515.678 1.515 1.515z"/><circle cx="277.557" cy="10.863" r="1.515"/><circle cx="272.876" cy="10.863" r="1.515"/><circle cx="267.876" cy="10.863" r="1.515"/><path d="m261.323 10.863c0-.837.678-1.515 1.515-1.515s1.515.678 1.515 1.515-.678 1.515-1.515 1.515c-.836 0-1.515-.679-1.515-1.515z"/><circle cx="244.053" cy="6.969" r="1.515"/><circle cx="248.689" cy="6.969" r="1.515"/><circle cx="253.37" cy="6.969" r="1.515"/><circle cx="258.369" cy="6.969" r="1.515"/><circle cx="429.043" cy="6.969" r="1.515"/><circle cx="433.55" cy="6.969" r="1.515"/><circle cx="424.134" cy="6.969" r="1.515"/><circle cx="419.104" cy="6.969" r="1.515"/><circle cx="414.347" cy="6.969" r="1.515"/><circle cx="409.953" cy="6.969" r="1.515"/><circle cx="405.166" cy="6.969" r="1.515"/><circle cx="400.257" cy="6.969" r="1.515"/><circle cx="395.712" cy="6.969" r="1.515"/><circle cx="390.758" cy="6.969" r="1.515"/><circle cx="386.168" cy="6.969" r="1.515"/><circle cx="381.532" cy="6.969" r="1.515"/><circle cx="376.623" cy="6.969" r="1.515"/><path d="m373.321 6.969c0 .837-.678 1.515-1.515 1.515s-1.515-.678-1.515-1.515.678-1.515 1.515-1.515c.836 0 1.515.678 1.515 1.515z"/><circle cx="367.215" cy="6.969" r="1.515"/><path d="m364.003 6.969c0 .837-.678 1.515-1.515 1.515s-1.515-.678-1.515-1.515.678-1.515 1.515-1.515 1.515.678 1.515 1.515z"/><circle cx="357.898" cy="6.969" r="1.515"/><path d="m354.625 6.969c0 .837-.678 1.515-1.515 1.515s-1.515-.678-1.515-1.515.678-1.515 1.515-1.515 1.515.678 1.515 1.515z"/><circle cx="348.202" cy="6.969" r="1.515"/><circle cx="343.657" cy="6.969" r="1.515"/><circle cx="338.991" cy="6.969" r="1.515"/><circle cx="334.021" cy="6.969" r="1.515"/><circle cx="329.491" cy="6.969" r="1.515"/><circle cx="324.674" cy="6.969" r="1.515"/><circle cx="319.811" cy="6.969" r="1.515"/><circle cx="315.175" cy="6.969" r="1.515"/><path d="m311.781 6.969c0 .837-.678 1.515-1.515 1.515s-1.515-.678-1.515-1.515.678-1.515 1.515-1.515 1.515.678 1.515 1.515z"/><circle cx="305.812" cy="6.969" r="1.515"/><circle cx="300.994" cy="6.969" r="1.515"/><circle cx="296.176" cy="6.969" r="1.515"/><path d="m293.056 6.969c0 .837-.678 1.515-1.515 1.515s-1.515-.678-1.515-1.515.678-1.515 1.515-1.515c.836 0 1.515.678 1.515 1.515z"/><circle cx="286.677" cy="6.969" r="1.515"/><circle cx="282.087" cy="6.969" r="1.515"/><circle cx="277.087" cy="6.969" r="1.515"/><circle cx="272.595" cy="6.969" r="1.515"/><circle cx="267.77" cy="6.969" r="1.515"/><circle cx="263.096" cy="6.969" r="1.515"/><circle cx="101.911" cy="6.908" r="1.515"/><circle cx="97.404" cy="6.908" r="1.515"/><circle cx="106.819" cy="6.908" r="1.515"/><circle cx="111.849" cy="6.908" r="1.515"/><circle cx="116.606" cy="6.908" r="1.515"/><circle cx="121" cy="6.908" r="1.515"/><circle cx="125.787" cy="6.908" r="1.515"/><circle cx="130.696" cy="6.908" r="1.515"/><circle cx="135.241" cy="6.908" r="1.515"/><circle cx="140.195" cy="6.908" r="1.515"/><path d="m143.27 6.908c0-.837.678-1.515 1.515-1.515s1.515.678 1.515 1.515-.678 1.515-1.515 1.515c-.836 0-1.515-.678-1.515-1.515z"/><circle cx="149.421" cy="6.908" r="1.515"/><circle cx="154.33" cy="6.908" r="1.515"/><circle cx="159.148" cy="6.908" r="1.515"/><circle cx="163.738" cy="6.908" r="1.515"/><circle cx="168.465" cy="6.908" r="1.515"/><circle cx="173.056" cy="6.908" r="1.515"/><circle cx="177.843" cy="6.908" r="1.515"/><path d="m181.237 6.908c0-.837.678-1.515 1.515-1.515s1.515.678 1.515 1.515-.678 1.515-1.515 1.515-1.515-.678-1.515-1.515z"/><circle cx="187.297" cy="6.908" r="1.515"/><circle cx="191.963" cy="6.908" r="1.515"/><circle cx="196.932" cy="6.908" r="1.515"/><circle cx="201.462" cy="6.908" r="1.515"/><circle cx="206.28" cy="6.908" r="1.515"/><circle cx="211.143" cy="6.908" r="1.515"/><circle cx="215.779" cy="6.908" r="1.515"/><circle cx="220.687" cy="6.908" r="1.515"/><path d="m223.626 6.908c0-.837.678-1.515 1.515-1.515s1.515.678 1.515 1.515-.678 1.515-1.515 1.515c-.836 0-1.515-.678-1.515-1.515z"/><circle cx="229.959" cy="6.908" r="1.515"/><circle cx="234.777" cy="6.908" r="1.515"/><circle cx="239.413" cy="6.908" r="1.515"/><path d="m94.658 15.09c0-.837.678-1.515 1.515-1.515s1.515.678 1.515 1.515-.678 1.515-1.515 1.515c-.837-.001-1.515-.679-1.515-1.515z"/><circle cx="101.081" cy="15.09" r="1.515"/><circle cx="106.111" cy="15.09" r="1.515"/><circle cx="111.08" cy="15.09" r="1.515"/><path d="m114.353 15.09c0-.837.678-1.515 1.515-1.515s1.515.678 1.515 1.515-.678 1.515-1.515 1.515c-.837-.001-1.515-.679-1.515-1.515z"/><circle cx="120.776" cy="15.09" r="1.515"/><circle cx="125.806" cy="15.09" r="1.515"/><circle cx="130.533" cy="15.09" r="1.515"/><path d="m133.805 15.09c0-.837.678-1.515 1.515-1.515s1.515.678 1.515 1.515-.678 1.515-1.515 1.515c-.836-.001-1.515-.679-1.515-1.515z"/><circle cx="140.229" cy="15.09" r="1.515"/><circle cx="145.259" cy="15.09" r="1.515"/><circle cx="150.228" cy="15.09" r="1.515"/><path d="m153.501 15.09c0-.837.678-1.515 1.515-1.515s1.515.678 1.515 1.515-.678 1.515-1.515 1.515c-.837-.001-1.515-.679-1.515-1.515z"/><circle cx="159.924" cy="15.09" r="1.515"/><circle cx="164.954" cy="15.09" r="1.515"/><circle cx="169.923" cy="15.09" r="1.515"/><path d="m173.196 15.09c0-.837.678-1.515 1.515-1.515s1.515.678 1.515 1.515-.678 1.515-1.515 1.515c-.837-.001-1.515-.679-1.515-1.515z"/><circle cx="179.619" cy="15.09" r="1.515"/><circle cx="184.649" cy="15.09" r="1.515"/><circle cx="189.618" cy="15.09" r="1.515"/><circle cx="194.406" cy="15.09" r="1.515"/><circle cx="199.314" cy="15.09" r="1.515"/><circle cx="204.344" cy="15.09" r="1.515"/><circle cx="209.071" cy="15.09" r="1.515"/><circle cx="213.858" cy="15.09" r="1.515"/><circle cx="218.767" cy="15.09" r="1.515"/><circle cx="223.797" cy="15.09" r="1.515"/><circle cx="228.766" cy="15.09" r="1.515"/><circle cx="233.554" cy="15.09" r="1.515"/><circle cx="238.462" cy="15.09" r="1.515"/><circle cx="243.492" cy="15.09" r="1.515"/><circle cx="248.113" cy="15.09" r="1.515"/><circle cx="252.9" cy="15.09" r="1.515"/><circle cx="257.809" cy="15.09" r="1.515"/><path d="m261.323 15.09c0-.837.678-1.515 1.515-1.515s1.515.678 1.515 1.515-.678 1.515-1.515 1.515c-.836-.001-1.515-.679-1.515-1.515z"/><circle cx="267.808" cy="15.09" r="1.515"/><circle cx="272.595" cy="15.09" r="1.515"/><circle cx="277.504" cy="15.09" r="1.515"/><path d="m281.018 15.09c0-.837.678-1.515 1.515-1.515s1.515.678 1.515 1.515-.678 1.515-1.515 1.515c-.836-.001-1.515-.679-1.515-1.515z"/><circle cx="287.367" cy="15.09" r="1.515"/><circle cx="292.154" cy="15.09" r="1.515"/><path d="m295.548 15.09c0-.837.678-1.515 1.515-1.515s1.515.678 1.515 1.515-.678 1.515-1.515 1.515c-.837-.001-1.515-.679-1.515-1.515z"/><circle cx="302.092" cy="15.09" r="1.515"/><circle cx="307.062" cy="15.09" r="1.515"/><circle cx="311.849" cy="15.09" r="1.515"/><path d="m315.243 15.09c0-.837.678-1.515 1.515-1.515s1.515.678 1.515 1.515-.678 1.515-1.515 1.515c-.837-.001-1.515-.679-1.515-1.515z"/><circle cx="321.788" cy="15.09" r="1.515"/><circle cx="326.636" cy="15.09" r="1.515"/><circle cx="331.423" cy="15.09" r="1.515"/><path d="m334.817 15.09c0-.837.678-1.515 1.515-1.515s1.515.678 1.515 1.515-.678 1.515-1.515 1.515c-.837-.001-1.515-.679-1.515-1.515z"/><circle cx="341.362" cy="15.09" r="1.515"/><circle cx="346.331" cy="15.09" r="1.515"/><circle cx="351.118" cy="15.09" r="1.515"/><path d="m354.512 15.09c0-.837.678-1.515 1.515-1.515s1.515.678 1.515 1.515-.678 1.515-1.515 1.515c-.837-.001-1.515-.679-1.515-1.515z"/><circle cx="361.057" cy="15.09" r="1.515"/><circle cx="365.844" cy="15.09" r="1.515"/><circle cx="370.631" cy="15.09" r="1.515"/><circle cx="375.54" cy="15.09" r="1.515"/><circle cx="380.57" cy="15.09" r="1.515"/><circle cx="385.539" cy="15.09" r="1.515"/><circle cx="390.327" cy="15.09" r="1.515"/><circle cx="395.235" cy="15.09" r="1.515"/><circle cx="400.265" cy="15.09" r="1.515"/><circle cx="404.81" cy="15.09" r="1.515"/><circle cx="409.597" cy="15.09" r="1.515"/><circle cx="414.506" cy="15.09" r="1.515"/><path d="m418.021 15.09c0-.837.678-1.515 1.515-1.515s1.515.678 1.515 1.515-.678 1.515-1.515 1.515c-.837-.001-1.515-.679-1.515-1.515z"/><circle cx="424.505" cy="15.09" r="1.515"/><circle cx="429.293" cy="15.09" r="1.515"/><circle cx="434.201" cy="15.09" r="1.515"/><path d="m437.716 15.09c0-.837.678-1.515 1.515-1.515s1.515.678 1.515 1.515-.678 1.515-1.515 1.515c-.837-.001-1.515-.679-1.515-1.515z"/></g><path d="m115.458 214.972h-.863v-1.555h-1.582v1.555h-.86v-3.819h.86v1.523h1.582v-1.523h.863z" fill="#d0d2d3"/><path d="m117.946 215.038c-.547 0-.992-.178-1.337-.534-.344-.356-.517-.82-.517-1.392 0-.604.175-1.092.525-1.465s.813-.559 1.39-.559c.545 0 .986.178 1.322.535s.505.827.505 1.411c0 .6-.175 1.084-.523 1.451-.349.37-.804.553-1.365.553zm.037-3.209c-.302 0-.541.113-.719.339-.178.227-.266.526-.266.899 0 .378.089.677.266.898.177.22.41.33.698.33.297 0 .532-.107.706-.321s.261-.511.261-.891c0-.396-.084-.704-.253-.924s-.4-.33-.693-.33z" fill="#d0d2d3"/><path d="m124.819 214.972h-.85v-2.285c0-.247.011-.519.032-.818h-.021c-.044.234-.084.403-.12.506l-.895 2.597h-.703l-.911-2.57c-.025-.069-.065-.247-.12-.533h-.024c.023.376.035.707.035.991v2.112h-.775v-3.819h1.26l.78 2.264c.062.181.107.363.136.546h.016c.048-.211.099-.395.152-.551l.78-2.258h1.228z" fill="#d0d2d3"/><path d="m127.978 214.972h-2.29v-3.819h2.202v.7h-1.342v.85h1.249v.698h-1.249v.874h1.43z" fill="#d0d2d3"/><path d="m174.115 212.335-1.316 3.819h-.975l-1.3-3.819h.927l.796 2.658c.043.144.068.271.077.381h.016c.013-.119.04-.249.083-.391l.791-2.647h.901z" fill="#d0d2d3"/><path d="m176.187 216.22c-.547 0-.992-.178-1.337-.534s-.517-.82-.517-1.392c0-.604.175-1.092.525-1.465s.813-.559 1.39-.559c.545 0 .986.178 1.322.535s.505.827.505 1.412c0 .6-.174 1.084-.523 1.451-.349.368-.804.552-1.365.552zm.038-3.209c-.302 0-.542.113-.719.339-.178.227-.266.526-.266.899 0 .378.089.677.266.898.177.22.41.33.698.33.296 0 .532-.107.706-.321s.261-.511.261-.891c0-.396-.084-.704-.253-.924-.17-.22-.4-.33-.693-.33z" fill="#d0d2d3"/><path d="m180.984 216.154h-2.274v-3.819h.86v3.121h1.414z" fill="#d0d2d3"/><path d="m370.213 214.842v-.909c.165.138.344.242.537.311s.388.104.585.104c.115 0 .216-.01.302-.031s.158-.05.216-.087.101-.08.129-.131c.028-.05.043-.105.043-.163 0-.08-.023-.151-.068-.213-.046-.063-.108-.12-.186-.173-.079-.053-.172-.104-.28-.153s-.224-.099-.349-.15c-.318-.132-.555-.294-.712-.486-.156-.191-.234-.422-.234-.693 0-.212.043-.394.128-.547.085-.152.201-.278.348-.376s.317-.171.51-.217.398-.07.614-.07c.212 0 .4.013.564.038.164.026.315.065.453.118v.849c-.068-.047-.142-.089-.223-.125s-.163-.066-.248-.09-.17-.041-.254-.052-.164-.017-.24-.017c-.104 0-.199.01-.284.03s-.157.048-.216.084-.104.079-.136.129-.048.106-.048.169c0 .068.018.129.054.183s.087.105.153.153.147.096.241.142c.095.047.202.094.321.143.163.068.309.141.439.217.13.077.241.163.334.26.093.096.164.207.213.331s.074.268.074.433c0 .227-.043.418-.129.572s-.203.279-.351.375-.32.164-.516.206-.403.063-.621.063c-.224 0-.436-.019-.638-.057-.203-.037-.377-.094-.525-.17z" fill="#d0d2d3"/><path d="m376.104 214.999h-2.443v-4.074h2.349v.747h-1.432v.906h1.332v.744h-1.332v.932h1.525v.745z" fill="#d0d2d3"/><path d="m379.184 214.999h-2.426v-4.074h.918v3.329h1.508z" fill="#d0d2d3"/><path d="m382.175 214.999h-2.443v-4.074h2.349v.747h-1.432v.906h1.332v.744h-1.332v.932h1.526z" fill="#d0d2d3"/><path d="m385.748 214.854c-.297.144-.686.216-1.165.216-.625 0-1.116-.184-1.474-.551s-.537-.857-.537-1.469c0-.651.201-1.18.604-1.585.402-.405.925-.608 1.567-.608.398 0 .733.05 1.006.151v.883c-.273-.163-.583-.244-.932-.244-.383 0-.691.12-.926.361-.235.24-.352.566-.352.977 0 .394.111.708.332.942.222.234.52.351.895.351.358 0 .686-.087.983-.261v.837z" fill="#d0d2d3"/><path d="m389.319 211.672h-1.162v3.326h-.92v-3.326h-1.156v-.747h3.238z" fill="#d0d2d3"/><path d="m405.119 214.842v-.909c.165.138.344.242.537.311s.388.104.585.104c.115 0 .216-.01.302-.031s.158-.05.216-.087.101-.08.129-.131c.028-.05.043-.105.043-.163 0-.08-.023-.151-.068-.213-.046-.063-.108-.12-.186-.173-.079-.053-.172-.104-.28-.153s-.224-.099-.349-.15c-.318-.132-.555-.294-.712-.486-.156-.191-.234-.422-.234-.693 0-.212.043-.394.128-.547.085-.152.201-.278.348-.376s.317-.171.51-.217.398-.07.613-.07c.212 0 .4.013.564.038.164.026.315.065.453.118v.849c-.068-.047-.143-.089-.223-.125-.081-.036-.163-.066-.249-.09-.085-.024-.17-.041-.254-.052s-.164-.017-.24-.017c-.104 0-.199.01-.284.03s-.157.048-.216.084-.104.079-.136.129-.048.106-.048.169c0 .068.018.129.054.183s.087.105.153.153.147.096.242.142c.095.047.202.094.321.143.163.068.309.141.439.217.13.077.241.163.334.26.093.096.164.207.213.331s.074.268.074.433c0 .227-.043.418-.129.572s-.203.279-.351.375-.32.164-.516.206-.403.063-.621.063c-.224 0-.436-.019-.638-.057-.202-.037-.377-.094-.524-.17z" fill="#d0d2d3"/><path d="m411.428 211.672h-1.162v3.326h-.92v-3.326h-1.156v-.747h3.238z" fill="#d0d2d3"/><path d="m415.558 214.999h-1l-.29-.906h-1.449l-.287.906h-.994l1.483-4.074h1.088zm-1.5-1.611-.438-1.369c-.032-.102-.055-.224-.068-.366h-.023c-.009.119-.033.238-.071.355l-.443 1.38z" fill="#d0d2d3"/><path d="m419.484 214.999h-1.054l-.633-1.048c-.047-.08-.093-.151-.136-.213-.044-.063-.088-.116-.132-.161-.044-.044-.091-.078-.139-.102s-.101-.036-.158-.036h-.247v1.56h-.918v-4.074h1.454c.989 0 1.483.369 1.483 1.108 0 .142-.022.273-.065.394-.044.12-.105.229-.185.325-.08.097-.176.18-.288.25-.113.07-.238.125-.376.165v.011c.061.019.119.05.176.092.057.043.112.092.165.149s.104.118.152.183.092.129.132.192zm-2.5-3.386v1.133h.398c.197 0 .355-.057.474-.17.121-.115.182-.258.182-.429 0-.356-.213-.534-.639-.534z" fill="#d0d2d3"/><path d="m422.725 211.672h-1.162v3.326h-.92v-3.326h-1.156v-.747h3.238z" fill="#d0d2d3"/><path d="m487.004 160.934v1.403h-.918v-4.073h1.437c1.026 0 1.54.433 1.54 1.298 0 .409-.147.74-.442.993-.294.253-.688.379-1.18.379zm0-1.966v1.27h.361c.489 0 .733-.214.733-.642 0-.418-.244-.628-.733-.628z" fill="#d0d2d3"/><path d="m491.381 162.408c-.583 0-1.059-.19-1.426-.57-.368-.38-.551-.874-.551-1.484 0-.644.186-1.165.56-1.562.373-.398.867-.596 1.483-.596.581 0 1.051.19 1.41.571s.538.882.538 1.505c0 .64-.186 1.156-.558 1.548s-.858.588-1.456.588zm.04-3.423c-.322 0-.578.121-.767.362s-.284.561-.284.959c0 .403.095.723.284.957.189.235.437.352.744.352.316 0 .567-.114.753-.342s.278-.545.278-.95c0-.422-.09-.751-.27-.986s-.426-.352-.738-.352z" fill="#d0d2d3"/><path d="m499.4 158.263-1.077 4.073h-1.017l-.676-2.613c-.036-.136-.058-.289-.065-.457h-.011c-.017.186-.042.338-.074.457l-.693 2.613h-1.059l-1.071-4.073h1.003l.574 2.713c.025.116.043.271.054.466h.017c.008-.146.035-.305.082-.477l.738-2.701h.983l.668 2.736c.024.1.046.246.065.438h.011c.007-.15.027-.301.06-.454l.563-2.719h.925z" fill="#d0d2d3"/><path d="m502.36 162.337h-2.443v-4.073h2.349v.747h-1.432v.906h1.332v.744h-1.332v.932h1.526z" fill="#d0d2d3"/><path d="m506.431 162.337h-1.054l-.633-1.048c-.047-.079-.093-.15-.136-.213-.044-.063-.088-.116-.132-.161-.044-.044-.091-.079-.139-.102-.048-.024-.101-.036-.158-.036h-.247v1.56h-.918v-4.073h1.454c.989 0 1.483.369 1.483 1.108 0 .142-.022.273-.065.393-.044.12-.105.229-.185.325-.079.097-.176.18-.288.25-.113.07-.238.125-.376.165v.011c.061.019.119.05.176.092.057.043.112.092.165.149s.104.118.152.183.092.129.132.192zm-2.5-3.386v1.133h.398c.197 0 .355-.057.474-.17.121-.115.182-.258.182-.429 0-.356-.213-.534-.639-.534z" fill="#d0d2d3"/><path d="m485.339 186.244h-.92v-1.659h-1.687v1.659h-.918v-4.074h.918v1.625h1.687v-1.625h.92z" fill="#d0d2d3"/><path d="m487.992 186.315c-.583 0-1.059-.19-1.426-.57s-.551-.874-.551-1.484c0-.644.186-1.165.56-1.562.373-.398.867-.596 1.483-.596.581 0 1.051.19 1.41.571s.538.882.538 1.505c0 .64-.186 1.156-.558 1.548s-.857.588-1.456.588zm.04-3.423c-.322 0-.578.121-.767.362s-.284.561-.284.959c0 .403.095.723.284.957.189.235.438.352.744.352.316 0 .567-.114.753-.342s.278-.545.278-.95c0-.422-.09-.751-.27-.986-.179-.235-.425-.352-.738-.352z" fill="#d0d2d3"/><path d="m493.108 186.244h-2.426v-4.074h.918v3.329h1.508z" fill="#d0d2d3"/><path d="m493.656 186.244v-4.074h1.443c1.447 0 2.17.662 2.17 1.986 0 .634-.197 1.141-.592 1.52s-.921.568-1.578.568zm.918-3.327v2.582h.454c.398 0 .71-.119.936-.358s.339-.563.339-.974c0-.388-.112-.694-.337-.916-.224-.222-.539-.334-.944-.334z" fill="#d0d2d3"/><path d="m299.974 207.886c0-1.25 0-2.382 0-3.633-6.397 0-12.779 0-19.197 0 0-.403 0-.688 0-1.037h20.65v6.099c-6.267 0-12.528 0-18.849 0v5.038c-.63 0-1.2 0-1.804 0 0-2.146 0-4.247 0-6.466 6.401-.001 12.783-.001 19.2-.001z" fill="#d0d2d3"/><path d="m237.144 204.296c0-.467 0-.752 0-1.091h20.305c.042.94.013 1.948.018 2.954.005 1.02.001 2.04.001 3.116-6.283 0-12.499 0-18.812 0-.186.859-.07 1.693-.091 2.514-.021.838-.005 1.678-.005 2.574-.468 0-.875 0-1.368 0 0-2.09 0-4.235 0-6.434h19.094c0-1.225 0-2.401 0-3.633-6.32 0-12.658 0-19.142 0z" fill="#d0d2d3"/><path d="m257.138 214.361c0-.465 0-.871 0-1.335h9.782c.006-3.288 0-6.522.004-9.815h11.602v.972c-3.342 0-6.653 0-9.917 0-.093.098-.142.137-.174.187-.029.046-.055.104-.055.157-.003 3.258-.002 6.516-.002 9.835-3.733-.001-7.406-.001-11.24-.001z" fill="#d0d2d3"/><path d="m47.554 45.276c-.917-.293-1.814-.58-2.723-.87 0-3.916 0-7.846 0-11.803.457.105.907.189 1.346.313.79.223 1.578.453 2.357.711.644.213 1.264.483 1.811.904.526.404.849.93 1.036 1.553.156.517.171 1.053.161 1.583-.011.573-.103 1.138-.453 1.625-.417.58-.964.761-1.652.651-.242-.038-.475-.125-.715-.177-.161-.035-.203-.12-.203-.279.006-1.332.005-2.664.002-3.996-.001-.335-.134-.59-.457-.737-.21-.096-.415-.021-.507.362-.014.06-.003.126-.003.189v9.107z" fill="#d0d2d3"/><path d="m47.977 42.562c0-.549-.003-1.06.005-1.57.001-.045.069-.118.118-.129.606-.146 1.207-.337 1.822-.408.61-.07 1.235-.024 1.853-.018.568.006 1.12.125 1.659.297.467.149.954.268 1.341.588.425.351.438.821-.119 1.22-.494.354-1.066.528-1.628.729-1.444.518-2.887 1.037-4.33 1.555-.23.083-.461.166-.722.26 0-.521-.005-1.009.007-1.497.001-.056.091-.136.156-.159 1.075-.385 2.153-.762 3.229-1.144.348-.124.694-.252 1.038-.386.074-.029.161-.082.192-.148.026-.057.002-.196-.037-.213-.148-.064-.309-.109-.469-.134-.72-.113-1.356.194-2.007.417-.691.238-1.379.484-2.108.74z" fill="#d0d2d3"/><path d="m44.357 39.701c0 .527.004 1.017-.006 1.507-.001.051-.073.127-.128.147-.874.315-1.752.621-2.627.934-.095.034-.188.087-.268.149-.051.04-.114.118-.105.168.01.056.086.118.147.143.384.154.786.175 1.176.06.562-.165 1.113-.369 1.669-.553.037-.012.082-.002.131-.002v1.463c-.756.028-1.506.106-2.25.067-.604-.032-1.207-.179-1.799-.324-.374-.091-.743-.24-1.083-.422-.185-.099-.371-.3-.436-.495-.146-.437.01-.595.37-.836.316-.211.672-.372 1.028-.508.829-.319 1.668-.613 2.505-.912.457-.164.918-.319 1.377-.478.092-.032.182-.066.299-.108z" fill="#d0d2d3"/><path d="m429.922 39.479c.169-1.448 1.209-2.006 2.439-2.306 1.324-.323 2.669-.346 4.002-.019.352.086.694.231 1.022.388.515.247.552.241.66-.337h1.188v2.707c-.37 0-.732 0-1.095 0-.378-.936-1.161-1.402-2.056-1.709-1.038-.357-2.092-.374-3.138-.019-.191.065-.382.157-.542.278-.424.319-.403.79.083.996.459.194.958.314 1.451.406 1.268.236 2.547.413 3.812.666.399.08.79.287 1.141.505 1.184.734.898 2.169.307 2.814-.61.665-1.418.905-2.262 1.071-.071.014-.139.043-.208.066-.928 0-1.857 0-2.785 0-.058-.022-.115-.047-.175-.065-.626-.188-1.261-.349-1.876-.569-.443-.158-.465-.174-.609.27-.024.075-.104.184-.163.187-.37.017-.742.009-1.106.009 0-.973 0-1.895 0-2.841.332 0 .644-.009.954.007.076.004.182.071.216.139.457.903 1.24 1.367 2.173 1.633.852.243 1.723.281 2.593.175.408-.049.824-.174 1.19-.358.175-.088.328-.392.33-.6.001-.167-.22-.359-.38-.496-.106-.091-.275-.122-.421-.149-1.089-.198-2.184-.369-3.269-.589-.776-.157-1.55-.342-2.305-.578-.485-.152-.847-.509-1.03-1.006-.057-.157-.093-.321-.139-.482-.002-.065-.002-.13-.002-.194z" fill="#d0d2d3"/><path d="m445.728 44.985c-.584-.133-1.181-.227-1.749-.409-.989-.317-1.837-.858-2.38-1.778-1.044-1.77-.397-4.028 1.456-5.064 1.21-.677 2.536-.857 3.899-.852 1.243.004 2.446.201 3.56.784 1.008.527 1.768 1.284 2.01 2.432.385 1.819-.466 3.45-2.179 4.236-.709.326-1.458.512-2.234.59-.083.008-.164.04-.245.061-.713 0-1.426 0-2.138 0zm4.223-4c-.001-.787-.173-1.514-.676-2.144-.974-1.22-3.293-1.221-4.422-.392-.999.734-1.215 1.783-1.1 2.935.104 1.042.548 1.888 1.558 2.313 1.043.438 2.111.423 3.137-.039 1.138-.512 1.488-1.508 1.503-2.673z" fill="#d0d2d3"/><path d="m452.945 38.199c0-.348 0-.644 0-.979h.721c.982 0 1.965.008 2.947-.006.237-.003.404.074.571.231 1.483 1.399 2.971 2.792 4.458 4.186.023.021.051.036.107.074.014-.084.034-.15.034-.215.005-.896.008-1.792.009-2.688 0-.406-.083-.524-.488-.578-.317-.043-.641-.036-.982-.051 0-.305 0-.603 0-.927h4.411v.954c-.256 0-.514-.019-.767.004-.48.045-.589.18-.589.664v5.603.39c-.571 0-1.118.006-1.665-.006-.081-.002-.173-.077-.239-.139-1.201-1.132-2.399-2.267-3.598-3.401-.602-.569-1.206-1.137-1.842-1.736-.019.113-.039.181-.04.249-.001 1.144-.003 2.289.002 3.433.002.489.143.635.632.656.301.013.603.002.928.002v.925c-1.53 0-3.057 0-4.607 0 0-.291 0-.576 0-.924.263 0 .526.002.789 0 .644-.007.768-.133.768-.78 0-1.425.001-2.85.001-4.275 0-.483-.106-.617-.593-.66-.309-.028-.623-.006-.968-.006z" fill="#d0d2d3"/><path d="m473.899 43.854v.942c-1.851 0-3.689 0-5.545 0 0-.302 0-.599 0-.944.309 0 .618.009.926-.002.573-.019.674-.129.675-.694 0-.022-.003-.044.001-.065.162-.919-.189-1.609-.852-2.247-.751-.724-1.391-1.562-2.116-2.313-.181-.187-.5-.259-.769-.334-.178-.049-.381-.009-.593-.009 0-.339 0-.646 0-.98h5.02v.977c-.187 0-.378-.013-.566.003-.296.026-.368.179-.175.398.471.534.953 1.057 1.44 1.575.155.165.339.175.508-.004.495-.526.993-1.049 1.481-1.582.065-.07.124-.211.095-.282-.026-.063-.175-.093-.274-.106-.138-.017-.279-.004-.445-.004 0-.328 0-.642 0-.979h3.962v.979c-.173 0-.352.011-.529-.002-.363-.027-.648.108-.887.374-.755.843-1.481 1.717-2.283 2.512-.513.509-.742 1.028-.695 1.758.065 1 .042 1.029 1.044 1.031.181-.002.363-.002.577-.002z" fill="#d0d2d3"/><path d="m347.108 211.998v.091c0 1.792 0 3.585-.001 5.377 0 .109-.001.219-.012.328-.025.239-.121.452-.259.647-.152.214-.343.387-.557.536-.282.196-.585.346-.919.428-.285.07-.57.08-.855-.005-.143-.043-.274-.108-.386-.207-.176-.154-.265-.351-.276-.582-.017-.37.114-.69.346-.972.23-.28.518-.487.838-.652.206-.106.42-.189.649-.232.286-.054.57-.054.846.052.074.028.142.07.213.106.014.007.026.016.048.029 0-.034 0-.059 0-.084 0-2.428 0-4.855 0-7.283 0-.024-.001-.048.001-.072.005-.055.042-.091.097-.094.042-.002.084-.002.125 0 .063.002.097.038.101.102.003.046.004.091.006.137.013.325.088.638.199.942.123.338.286.657.47.964.204.34.414.675.62 1.014.192.316.372.64.514.983.115.279.201.566.241.865.024.18.031.361.023.542-.026.641-.169 1.256-.4 1.852-.029.074-.076.127-.151.149-.091.026-.17-.003-.232-.072-.058-.064-.071-.14-.037-.222.11-.263.201-.532.269-.809.08-.324.124-.653.134-.986.01-.335-.07-.651-.205-.955-.146-.33-.342-.629-.56-.914-.264-.346-.558-.664-.859-.978-.006-.005-.014-.011-.031-.025z" fill="#d0d2d3"/><path d="m33.814 177.842c-.012-.343-.023-.683-.035-1.022 3.612-.218 7.624 2.757 7.534 7.518-.344-.011-.689-.023-1.037-.034.036-1.802-.56-3.362-1.835-4.63-1.272-1.265-2.832-1.856-4.627-1.832z" fill="#d0d2d3"/><path d="m39.222 184.347c-.345-.017-.683-.033-1.029-.05.027-1.222-.36-2.283-1.225-3.148-.864-.863-1.922-1.25-3.147-1.221-.017-.343-.034-.684-.051-1.024 2.801-.213 5.614 2.18 5.452 5.443z" fill="#d0d2d3"/><path d="m33.841 182.017c-.03-.344-.06-.687-.091-1.029 1.929-.176 3.559 1.446 3.381 3.385-.34-.03-.68-.061-1.028-.092.039-.643-.182-1.187-.626-1.632s-.987-.67-1.636-.632z" fill="#d0d2d3"/><path d="m34.762 183.362c.403.407.401 1.067-.004 1.468-.406.402-1.07.4-1.47-.003-.403-.406-.398-1.07.013-1.477.399-.395 1.063-.39 1.461.012z" fill="#d0d2d3"/><path d="m30.732 157.885c3.398 0 7.132-.215 7.132-.585 0-.12-3.234-.154-7.132-.154s-7.132.034-7.132.154c0 .369 3.734.585 7.132.585" fill="#d0d2d3"/><path d="m30.732 159.05c1.627 0 5.313-.213 5.313-.505 0-.087-2.477-.108-5.313-.108s-5.313.021-5.313.108c0 .292 3.686.505 5.313.505" fill="#d0d2d3"/><path d="m30.732 160.06c1.799 0 3.841-.199 3.841-.425 0-.095-1.742-.076-3.841-.076s-3.842-.019-3.842.076c0 .226 2.042.425 3.842.425" fill="#d0d2d3"/><path d="m30.734 156.492c.212 0 .457-.006.695-.051.269-.051.383-.169.42-.421.034-.232-.086-.601-.149-.928-.089-.461.126-.681.715-.681.708 0 .868.34 1.189 1.189.193.51.395.709 1.131.782.661.065 1.491.113 2.515.113.843 0 .93-.242-.333-.448-.8-.13-1.276-.322-1.556-.655-.308-.367-.38-.595-.584-.84-.229-.275-.531-.4-.908-.447-.919-.115-1.976-.18-3.135-.18s-2.216.065-3.135.18c-.378.048-.679.172-.908.447-.204.245-.275.472-.584.84-.28.333-.755.525-1.555.655-1.263.206-1.176.448-.333.448 1.024 0 1.854-.048 2.515-.113.735-.073.938-.272 1.13-.782.321-.849.481-1.189 1.19-1.189.589 0 .803.219.715.681-.063.327-.184.696-.149.928.037.252.152.37.42.421.237.045.482.051.694.051" fill="#d0d2d3"/><path d="m785.854 196.302c.003 3.426-.732 6.673-1.97 9.814-1.662 4.2-4.999 6.314-9.202 7.62-7.049 2.191-14.002 4.688-21.01 7.008-4.938 1.635-9.943 3.032-14.972 4.364-5.567 1.476-11.196 2.661-16.857 3.65-3.311.579-6.664 1-10.002 1.456-4.414.6-8.846 1.065-13.272 1.376-4.979.35-9.964.794-14.969.768-9.505-.053-19.016.247-28.518-.276-6.255-.347-12.511-.759-18.722-1.526-5.423-.673-10.828-1.488-16.204-2.529-4.641-.897-9.252-1.906-13.819-3.082-5.367-1.376-10.678-2.979-15.931-4.753-6.952-2.344-13.878-4.77-20.863-7.023-4.617-1.488-6.982-4.852-8.376-9.205-1.059-3.303-1.2-6.688-1.185-10.123.047-12.94.018-25.88.018-38.82h.015c0-13.281.003-26.565 0-39.849-.003-3.87.568-7.682 1.029-11.514.521-4.314 1.412-8.54 2.45-12.734 1.047-4.235 2.42-8.393 4.029-12.455 3.044-7.693 6.805-15.019 11.44-21.88 5.361-7.934 11.552-15.14 18.728-21.507 6.629-5.882 13.805-10.964 21.61-15.154 5.835-3.135 11.893-5.735 18.189-7.84 4.558-1.523 9.193-2.744 13.881-3.661 3.217-.632 6.52-.979 9.793-1.397 6.267-.797 12.519-.362 18.778-.415 2.961-.024 5.902.579 8.849.95 2.753.35 5.485.803 8.179 1.373 3.497.744 6.964 1.688 10.37 2.782 5.197 1.668 10.255 3.703 15.163 6.111 12.749 6.258 23.968 14.587 33.573 25.033 8.74 9.511 15.681 20.207 20.771 32.106 2.503 5.855 4.55 11.858 6.008 18.034 1.173 4.964 1.944 10.011 2.511 15.104.488 4.364.453 8.705.459 13.055.032 25.047-.001 50.095.029 75.139z" fill="#f9f8f7"/><circle cx="672.917" cy="119.47" fill="#d1dbe0" r="99.402"/><path d="m672.917 16.539c-56.847 0-102.931 46.084-102.931 102.931s46.084 102.931 102.931 102.931 102.931-46.084 102.931-102.931-46.084-102.931-102.931-102.931zm0 202.333c-54.898 0-99.402-44.505-99.402-99.402 0-54.898 44.504-99.402 99.402-99.402s99.402 44.504 99.402 99.402c0 54.897-44.504 99.402-99.402 99.402z" fill="#95a8b9"/><circle cx="672.917" cy="119.47" fill="#fff" r="43.231"/><path d="m672.917 20.068-22.057 11.566h44.21zm0 2.352 12.843 7.155h-26.174z" fill="#f9f8f7"/><path d="m776.534 203.471c-.017.586-.208 1.106-.601 1.545-.265.296-.581.523-.964.641-.352.108-.714.125-1.08.085-.238-.025-.471-.068-.692-.162-.224-.096-.4-.258-.558-.436-.262-.294-.461-.636-.685-.958-.315-.453-.607-.923-.898-1.392-.033-.053-.048-.056-.092-.008-.519.56-1.162.793-1.921.73-.331-.027-.651-.096-.944-.249-.478-.25-.854-.607-1.076-1.108-.031-.071-.073-.093-.148-.092-.626.003-1.253.002-1.879-.001-.078 0-.119.024-.155.094-.373.724-.979 1.149-1.763 1.311-.824.17-1.527-.091-2.118-.675-.03-.03-.062-.059-.087-.093-.032-.044-.052-.035-.078.006-.132.206-.264.412-.4.616-.299.448-.56.92-.865 1.364-.254.37-.585.649-.99.837-.21.098-.437.134-.666.153-.231.019-.461.024-.691-.018-.383-.071-.716-.246-1.012-.493-.423-.352-.705-.793-.812-1.337-.061-.31-.05-.622-.002-.931.059-.377.094-.757.131-1.136.039-.406.086-.812.129-1.218.033-.319.067-.638.097-.957.067-.722.166-1.439.29-2.154.1-.579.334-1.096.685-1.563.219-.293.492-.527.79-.735.041-.028.06-.061.068-.108.068-.364.134-.729.209-1.091.048-.232.173-.417.387-.532.03-.016.049-.034.052-.071.017-.176.124-.282.283-.333.39-.125.79-.179 1.201-.153.274.018.544.055.809.127.052.014.103.032.153.051.105.04.182.105.196.226.008.074.048.118.12.145.264.097.374.318.43.57.061.276.109.555.159.833.017.095.017.099.115.099h3.374c.056 0 .11.002.163.031.041.023.091.022.138.022.415.001.833.03 1.245-.006.606-.054 1.21-.018 1.815-.028.606-.01 1.212-.003 1.818-.003.111 0 .108-.001.13-.111.051-.264.101-.529.159-.792.063-.282.218-.495.493-.605.034-.014.049-.037.054-.07.034-.19.157-.284.337-.33.347-.089.698-.151 1.057-.139.35.012.694.062 1.023.184.135.05.24.144.246.306.001.031.015.049.041.063.257.136.395.35.442.637.055.336.128.67.192 1.005.01.05.035.082.076.112.675.487 1.136 1.121 1.365 1.928.116.409.171.825.227 1.243.058.432.097.865.123 1.299.026.437.078.871.128 1.305.043.379.069.759.1 1.139.025.311.059.621.098.93.02.149.03.299.029.451z" fill="#29426a"/><path d="m599.075 198.842c0-.693 0-1.321 0-2.015-3.547 0-7.086 0-10.645 0 0-.223 0-.381 0-.575h11.451v3.382c-3.475 0-6.947 0-10.453 0v2.794c-.35 0-.665 0-1.001 0 0-1.19 0-2.355 0-3.586z" fill="#29426a"/><path d="m564.234 196.851c0-.259 0-.417 0-.605h11.26c.023.521.007 1.08.01 1.638.003.566.001 1.131.001 1.728-3.484 0-6.931 0-10.432 0-.103.476-.039.939-.05 1.394-.012.465-.003.93-.003 1.428-.26 0-.485 0-.758 0 0-1.159 0-2.348 0-3.568h10.588c0-.679 0-1.331 0-2.015-3.506 0-7.021 0-10.616 0z" fill="#29426a"/><path d="m575.321 202.433c0-.258 0-.483 0-.74h5.424c.003-1.823 0-3.617.002-5.443h6.433v.539c-1.853 0-3.689 0-5.499 0-.052.054-.079.076-.096.103-.016.026-.03.058-.031.087-.001 1.807-.001 3.613-.001 5.454-2.069 0-4.106 0-6.232 0z" fill="#29426a"/><path d="m658.279 118.423c0 5.552-3.166 8.327-9.497 8.327-6.064 0-9.097-2.67-9.097-8.01v-12.091h2.928v11.94c0 4.053 2.161 6.08 6.483 6.08 4.171 0 6.256-1.958 6.256-5.873v-12.146h2.928v11.773z" fill="#29426a"/><path d="m683.853 126.419h-2.555v-13.263c0-1.048.071-2.33.214-3.847h-.061c-.245.892-.464 1.53-.658 1.916l-7.497 15.193h-1.255l-7.481-15.083c-.214-.441-.434-1.117-.658-2.027h-.061c.082.791.122 2.082.122 3.874v13.236h-2.478v-19.771h3.396l6.732 13.787c.52 1.057.857 1.848 1.01 2.371h.092c.438-1.084.79-1.893 1.056-2.427l6.869-13.732h3.213z" fill="#29426a"/><path d="m688.364 126.419v-19.771h6.058c7.731 0 11.597 3.212 11.597 9.637 0 3.052-1.073 5.503-3.221 7.355-2.147 1.852-5.021 2.778-8.621 2.778h-5.813zm2.571-17.675v15.579h3.274c2.876 0 5.115-.694 6.716-2.082s2.402-3.355 2.402-5.901c0-5.064-2.989-7.597-8.965-7.597h-3.427z" fill="#29426a"/><path d="m641.851 133.531c0 1.268-.591 1.902-1.773 1.902-1.146 0-1.72-.619-1.72-1.858v-2.438h.954v2.45c0 .683.267 1.025.801 1.025.524 0 .786-.33.786-.989v-2.485h.951v2.393z" fill="#29426a"/><path d="m646.568 135.36h-.96l-1.74-2.653c-.102-.155-.173-.272-.212-.35h-.012c.016.149.023.377.023.683v2.32h-.898v-4.222h1.025l1.675 2.571c.077.116.147.231.212.345h.012c-.016-.098-.024-.291-.024-.58v-2.335h.898v4.221z" fill="#29426a"/><path d="m648.838 131.137v.736h-.353v2.75h.353v.736h-1.658v-.736h.353v-2.75h-.353v-.736z" fill="#29426a"/><path d="m652.961 131.137-1.455 4.222h-1.078l-1.437-4.222h1.025l.88 2.939c.047.159.076.299.085.421h.019c.014-.132.044-.276.091-.433l.875-2.927z" fill="#29426a"/><path d="m655.999 135.36h-2.532v-4.222h2.435v.774h-1.484v.939h1.381v.771h-1.381v.966h1.581z" fill="#29426a"/><path d="m660.219 135.36h-1.092l-.657-1.087c-.049-.082-.096-.156-.141-.221s-.091-.12-.137-.166-.094-.081-.144-.106-.105-.037-.163-.037h-.256v1.617h-.951v-4.222h1.508c1.025 0 1.537.383 1.537 1.148 0 .147-.023.283-.068.408s-.109.237-.191.337-.182.187-.299.259c-.117.073-.247.13-.39.171v.012c.063.02.124.052.183.096s.116.096.171.155.108.122.158.19.096.134.137.199zm-2.591-3.51v1.175h.412c.204 0 .368-.059.492-.177.126-.12.188-.268.188-.445 0-.369-.221-.554-.663-.554h-.429z" fill="#29426a"/><path d="m660.419 135.198v-.942c.171.143.356.251.557.322.2.072.402.107.607.107.12 0 .224-.011.314-.032.089-.022.164-.052.224-.09s.104-.083.134-.135c.029-.052.044-.109.044-.169 0-.082-.023-.156-.071-.221-.047-.065-.111-.125-.193-.18-.081-.055-.178-.108-.29-.159s-.233-.103-.362-.156c-.33-.137-.576-.305-.738-.503s-.243-.438-.243-.718c0-.22.044-.409.133-.567.088-.158.209-.288.361-.39s.328-.177.529-.225c.2-.048.412-.072.636-.072.22 0 .415.013.584.04.17.027.326.067.47.122v.88c-.071-.049-.148-.092-.231-.13-.083-.037-.169-.068-.258-.093-.088-.025-.176-.043-.264-.055s-.17-.018-.249-.018c-.108 0-.206.01-.294.031s-.163.05-.224.087-.108.082-.141.134-.05.11-.05.175c0 .071.019.134.056.19s.09.109.159.159.152.099.25.147.209.098.333.149c.169.071.32.146.455.225s.25.169.346.269.17.214.221.343.077.278.077.449c0 .236-.045.433-.134.593s-.211.29-.364.389-.331.17-.534.213-.418.065-.643.065c-.232 0-.452-.02-.661-.059-.212-.038-.393-.097-.546-.175z" fill="#29426a"/><path d="m667.707 135.36h-1.036l-.3-.939h-1.502l-.297.939h-1.031l1.537-4.222h1.128zm-1.555-1.67-.453-1.419c-.033-.106-.057-.233-.071-.38h-.024c-.01.124-.034.246-.074.368l-.459 1.431z" fill="#29426a"/><path d="m670.749 135.36h-2.515v-4.222h.951v3.451h1.564z" fill="#29426a"/><path d="m677.792 135.36h-.939v-2.526c0-.273.012-.574.035-.904h-.024c-.049.259-.093.446-.133.559l-.989 2.871h-.777l-1.007-2.841c-.027-.077-.072-.273-.133-.589h-.026c.025.416.038.781.038 1.095v2.335h-.857v-4.222h1.393l.863 2.503c.069.2.119.401.15.604h.018c.053-.234.109-.437.168-.61l.863-2.497h1.357z" fill="#29426a"/><path d="m681.284 135.36h-2.532v-4.222h2.435v.774h-1.484v.939h1.381v.771h-1.381v.966h1.581z" fill="#29426a"/><path d="m681.961 135.36v-4.222h1.496c1.5 0 2.25.686 2.25 2.058 0 .658-.205 1.183-.614 1.575-.409.393-.954.589-1.636.589zm.952-3.448v2.677h.471c.412 0 .736-.124.97-.371.235-.247.352-.584.352-1.01 0-.402-.116-.719-.349-.95s-.559-.346-.979-.346z" fill="#29426a"/><path d="m687.712 131.137v.736h-.353v2.75h.353v.736h-1.658v-.736h.353v-2.75h-.353v-.736z" fill="#29426a"/><path d="m692.032 135.36h-1.036l-.3-.939h-1.502l-.297.939h-1.031l1.537-4.222h1.128zm-1.555-1.67-.453-1.419c-.033-.106-.057-.233-.071-.38h-.024c-.01.124-.034.246-.074.368l-.459 1.431z" fill="#29426a"/><path d="m694.223 135.36v-4.222h1.496c1.5 0 2.25.686 2.25 2.058 0 .658-.205 1.183-.614 1.575-.409.393-.955.589-1.636.589zm.951-3.448v2.677h.471c.412 0 .736-.124.97-.371.235-.247.352-.584.352-1.01 0-.402-.116-.719-.349-.95s-.559-.346-.979-.346z" fill="#29426a"/><path d="m699.973 131.137v.736h-.353v2.75h.353v.736h-1.658v-.736h.353v-2.75h-.353v-.736z" fill="#29426a"/><path d="m700.385 135.198v-.942c.171.143.356.251.557.322.2.072.402.107.607.107.12 0 .224-.011.314-.032.089-.022.164-.052.224-.09s.105-.083.134-.135.044-.109.044-.169c0-.082-.024-.156-.071-.221s-.111-.125-.193-.18c-.081-.055-.178-.108-.29-.159s-.233-.103-.362-.156c-.33-.137-.576-.305-.738-.503s-.243-.438-.243-.718c0-.22.044-.409.133-.567.088-.158.209-.288.361-.39s.328-.177.529-.225c.2-.048.412-.072.636-.072.22 0 .415.013.584.04.17.027.326.067.47.122v.88c-.071-.049-.148-.092-.231-.13-.083-.037-.169-.068-.258-.093-.088-.025-.176-.043-.264-.055s-.17-.018-.249-.018c-.108 0-.206.01-.294.031s-.163.05-.224.087-.108.082-.141.134-.05.11-.05.175c0 .071.019.134.056.19s.09.109.159.159.152.099.25.147.209.098.333.149c.169.071.32.146.455.225.134.079.25.169.346.269s.17.214.221.343.077.278.077.449c0 .236-.045.433-.134.593s-.211.29-.364.389-.331.17-.534.213-.418.065-.643.065c-.232 0-.452-.02-.661-.059-.211-.038-.392-.097-.546-.175z" fill="#29426a"/><path d="m706.987 135.21c-.308.149-.711.224-1.207.224-.648 0-1.157-.19-1.528-.571s-.557-.888-.557-1.522c0-.675.209-1.223.626-1.643s.958-.63 1.624-.63c.412 0 .76.052 1.042.156v.916c-.283-.169-.605-.253-.966-.253-.396 0-.716.125-.96.374-.243.249-.365.587-.365 1.013 0 .408.115.734.344.976.23.242.539.364.928.364.371 0 .711-.09 1.019-.271z" fill="#29426a"/></svg>