<svg enable-background="new 0 0 615.011 337.834" viewBox="0 0 615.011 337.834" xmlns="http://www.w3.org/2000/svg" xmlns:xlink="http://www.w3.org/1999/xlink"><clipPath id="a"><path d="m527.927 138.674h41.543v41.543h-41.543z"/></clipPath><clipPath id="b"><path d="m527.197 202.323h42.429v42.428h-42.429z"/></clipPath><clipPath id="c"><path d="m305.348 100.366h43.066v43.066h-43.066z"/></clipPath><clipPath id="d"><path d="m306.325 166.523h43.28v43.28h-43.28z"/></clipPath><path d="m95.747 51.055s-14.697 15.715-19.391 19.635c-2.149 1.792-16.151.575-28.183 1.502h-18.227c10.403-12.966 17.108-17.515 20.714-19.198 3.636-1.694 7.759-1.938 7.759-1.938h37.328z" fill="#dbdde2"/><path d="m435.322 51.069 13.388 14.806c5.338 5.814 5.338 5.814 13.064 6.087 4.898.174 11.373.156 17.151.229h21.816c-5.585-6.861-10.625-11.453-13.515-14.228-6.061-5.818-14.788-6.908-14.788-6.908z" fill="#dbdde2"/><path d="m95.627 278.186s-6.698-7.352-12.29-12.388c-1.982-1.785-4.549-2.818-7.218-2.84-33.397-.287 0 0-33.397-.287-.506.029-.971.029-1.403 0h-10.133c6.77 8.003 13.115 13.293 16.446 15.879 5.938 4.603 11.515 4.891 11.515 4.891h2.258l39.473-.004zm-14.271-1.226c-3.938.12-20.845.004-21.969-.004-1.284-.007-1.876.196-5.272-2.105-3.393-2.302-3.778-3.636-4.141-4.363-.364-.727-.204-2.32.316-2.771.523-.458 1.229-1.065 2.545-1.171 1.32-.102 9.403.004 9.403.004h11.875s3.123-.076 6.334 2.636c2.145 1.811 3.105 2.487 3.545 3.545.287.688 1.302 4.106-2.636 4.229z" fill="#dbdde2"/><path d="m520.678 222.795c-10.424 35.393-22.06 40.723-22.06 40.723s-.818.364-1.785.396c-.971.029-37.484 0-37.484 0s-2.909-.516-4.727 1.24c-1.818 1.76-18.118 18.242-18.118 18.242l-335.626.04-5.25-5.25s-6.698-7.352-12.29-12.388c-1.982-1.785-4.549-2.818-7.218-2.84-33.397-.287 0 0-33.397-.287-.506.029-.971.029-1.403 0h-10.134c-5.298-6.261-10.857-14.177-15.431-23.754-10.421-21.816-15.755-49.468-15.755-71.67s5.272-47.654 9.272-57.471 9.879-24.059 20.424-37.269c.084-.105.171-.211.251-.316h18.227c12.032-.927 26.034.291 28.183-1.502 4.694-3.92 19.391-19.635 19.391-19.635h166.773l172.802.015 13.388 14.806c5.338 5.814 5.338 5.814 13.064 6.087 4.898.174 11.373.156 17.151.229h21.816c6.127 7.523 12.911 17.773 18.238 31.343 10.181 25.939 10.668 45.33 11.395 53.813.727 8.486.727 30.058-9.697 65.448z" fill="#2d2d2d"/><path d="m515.467 218.795c-10.156 33.891-19.515 38.422-19.515 38.422s-.796.349-1.742.378c-.945.029-36.556.229-36.556.229s-2.836-.494-4.607 1.189-18.06 19.173-18.06 19.173h-339.36s-6.698-7.352-12.29-12.388c-1.982-1.785-4.549-2.818-7.218-2.84-33.397-.287 0 0-33.397-.287-.506.029-.971.029-1.403 0-3.211-.196-4.64-1.847-6.25-3.781-5.141-6.174-11.664-16.827-15.315-24.336-10.155-20.893-13.816-48.065-13.816-69.328 0-21.264 6.025-45.545 9.919-54.948 3.56-8.588 8.647-20.707 17.329-32.382 1.8-2.422 4.432-4.101 7.388-4.709 2.334-.476 4.916-.789 7.599-.996 12.032-.927 26.034.291 28.183-1.502 4.694-3.92 19.391-19.635 19.391-19.635h166.773l172.802.015 13.388 14.806c5.338 5.814 5.338 5.814 13.064 6.087 4.898.174 11.373.156 17.151.229 4.432.055 8.454.16 11.032.44 1.604.178 3.094.916 4.203 2.091 5.6 5.948 12.326 16.173 18.296 29.579 9.919 24.838 10.875 43.345 11.584 51.471.71 8.127 1.583 29.132-8.573 63.023z" fill="#313131"/><path d="m42.723 262.671h-1.403" fill="none" stroke="#ec1c24" stroke-miterlimit="10" stroke-width=".3636"/><path d="m100.892 283.451-.014-.015" fill="none" stroke="#ec1c24" stroke-miterlimit="10" stroke-width=".3636"/><path d="m48.359 72.191h-.185" fill="none" stroke="#ec1c24" stroke-miterlimit="10" stroke-width=".3512"/><path d="m408.108 239.764h-284.146c-.852 0-1.55-.697-1.55-1.55v-156.643c0-.852.697-1.55 1.55-1.55h284.146c.852 0 1.55.697 1.55 1.55v156.643c0 .853-.697 1.55-1.55 1.55z" fill="#0f0f12"/><path d="m469.773 122.866c-18.875 0-34.179 15.304-34.179 34.178 0 18.875 15.304 34.179 34.179 34.179s34.179-15.304 34.179-34.179c0-18.874-15.304-34.178-34.179-34.178zm0 67.266c-18.275 0-33.088-14.813-33.088-33.088s14.813-33.088 33.088-33.088 33.088 14.813 33.088 33.088-14.813 33.088-33.088 33.088z" fill="#0f0f12"/><circle cx="436.686" cy="155.772" fill="#0f0f12" r="15.756"/><circle cx="436.686" cy="155.772" fill="#232323" r="14.786"/><circle cx="502.861" cy="155.772" fill="#0f0f12" r="15.756"/><circle cx="502.861" cy="155.772" fill="#232323" r="14.665"/><ellipse cx="469.864" cy="122.775" fill="#0f0f12" rx="15.756" ry="15.756" transform="matrix(.3481 -.9375 .9375 .3481 191.2041 520.5121)"/><ellipse cx="469.864" cy="122.775" fill="#232323" rx="14.574" ry="14.574" transform="matrix(.3861 -.9225 .9225 .3861 175.192 508.799)"/><circle cx="469.864" cy="189.223" fill="#0f0f12" r="15.756"/><circle cx="469.864" cy="189.223" fill="#232323" r="14.574"/><path d="m364.344 258.686v.894c0 7.01 6.599 12.711 14.711 12.711s14.711-5.701 14.711-12.711v-.894zm14.711 11.817c-6.73 0-12.337-4.436-12.879-10.028h25.758c-.542 5.592-6.149 10.028-12.879 10.028z" fill="#231f20"/><path d="m391.934 260.475c-.542 5.592-6.148 10.028-12.879 10.028-6.73 0-12.337-4.436-12.879-10.028z" fill="#232323"/><path d="m398.886 258.686v.894c0 7.01 6.599 12.711 14.711 12.711s14.711-5.701 14.711-12.711v-.894zm14.711 11.817c-6.73 0-12.337-4.436-12.879-10.028h25.758c-.542 5.592-6.149 10.028-12.879 10.028z" fill="#231f20"/><path d="m426.476 260.475c-.542 5.592-6.148 10.028-12.879 10.028-6.73 0-12.337-4.436-12.879-10.028z" fill="#232323"/><path d="m105.459 258.686v.894c0 7.01 6.599 12.711 14.711 12.711s14.711-5.701 14.711-12.711v-.894zm14.711 11.817c-6.73 0-12.337-4.436-12.879-10.028h25.758c-.542 5.592-6.148 10.028-12.879 10.028z" fill="#231f20"/><path d="m133.049 260.475c-.542 5.592-6.149 10.028-12.879 10.028s-12.337-4.436-12.879-10.028z" fill="#232323"/><path d="m160.923 256.686h-4.909c-3.916 0-7.105 3.189-7.105 7.105v1.396c0 3.916 3.189 7.105 7.105 7.105h4.909c3.92 0 7.108-3.189 7.108-7.105v-1.396c0-3.916-3.189-7.105-7.108-7.105zm5.319 8.501c0 2.931-2.385 5.316-5.319 5.316h-4.909c-2.931 0-5.316-2.385-5.316-5.316v-1.396c0-2.931 2.385-5.316 5.316-5.316h4.909c2.934 0 5.319 2.385 5.319 5.316z" fill="#231f20"/><path d="m166.242 263.791v1.396c0 2.931-2.385 5.316-5.319 5.316h-4.909c-2.931 0-5.316-2.385-5.316-5.316v-1.396c0-2.931 2.385-5.316 5.316-5.316h4.909c2.934 0 5.319 2.385 5.319 5.316z" fill="#232323"/><path d="m195.436 256.686h-4.909c-3.92 0-7.105 3.189-7.105 7.105v1.396c0 3.916 3.185 7.105 7.105 7.105h4.909c3.92 0 7.105-3.189 7.105-7.105v-1.396c0-3.916-3.185-7.105-7.105-7.105zm5.316 8.501c0 2.931-2.385 5.316-5.316 5.316h-4.909c-2.931 0-5.316-2.385-5.316-5.316v-1.396c0-2.931 2.385-5.316 5.316-5.316h4.909c2.931 0 5.316 2.385 5.316 5.316z" fill="#231f20"/><path d="m200.752 263.791v1.396c0 2.931-2.385 5.316-5.316 5.316h-4.909c-2.931 0-5.316-2.385-5.316-5.316v-1.396c0-2.931 2.385-5.316 5.316-5.316h4.909c2.931 0 5.316 2.385 5.316 5.316z" fill="#232323"/><path d="m326.318 257.686h-5.061c-3.876 0-7.028 3.152-7.028 7.028v1.549c0 3.876 3.152 7.028 7.028 7.028h5.061c3.876 0 7.029-3.152 7.029-7.028v-1.549c-.001-3.876-3.153-7.028-7.029-7.028zm5.24 8.577c0 2.887-2.349 5.24-5.24 5.24h-5.061c-2.891 0-5.24-2.352-5.24-5.24v-1.549c0-2.887 2.349-5.24 5.24-5.24h5.061c2.891 0 5.24 2.353 5.24 5.24z" fill="#231f20"/><path d="m331.558 264.714v1.549c0 2.887-2.349 5.24-5.24 5.24h-5.061c-2.891 0-5.24-2.352-5.24-5.24v-1.549c0-2.887 2.349-5.24 5.24-5.24h5.061c2.891.001 5.24 2.353 5.24 5.24z" fill="#232323"/><path d="m348.556 257.686h-4.814c-3.945 0-7.152 3.207-7.152 7.152v1.302c0 3.945 3.207 7.152 7.152 7.152h4.814c3.945 0 7.152-3.207 7.152-7.152v-1.302c0-3.945-3.207-7.152-7.152-7.152zm5.363 8.454c0 2.956-2.403 5.363-5.363 5.363h-4.814c-2.96 0-5.363-2.407-5.363-5.363v-1.302c0-2.956 2.403-5.363 5.363-5.363h4.814c2.96 0 5.363 2.407 5.363 5.363z" fill="#231f20"/><path d="m353.919 264.838v1.302c0 2.956-2.403 5.363-5.363 5.363h-4.814c-2.96 0-5.363-2.407-5.363-5.363v-1.302c0-2.956 2.403-5.363 5.363-5.363h4.814c2.96 0 5.363 2.407 5.363 5.363z" fill="#232323"/><path d="m348.558 272.57h-4.818c-3.545 0-6.43-2.884-6.43-6.43v-1.303c0-3.545 2.885-6.43 6.43-6.43h4.818c3.545 0 6.43 2.884 6.43 6.43v1.303c0 3.546-2.885 6.43-6.43 6.43zm-4.818-13.817c-3.355 0-6.084 2.729-6.084 6.084v1.303c0 3.355 2.729 6.084 6.084 6.084h4.818c3.355 0 6.084-2.729 6.084-6.084v-1.303c0-3.355-2.729-6.084-6.084-6.084z" fill="#231f20"/><path d="m154.849 264.034h6.954v1.636h-6.954z" fill="#d0d2d3"/><path d="m192.3 261.535v2.681h-2.636v1.455h2.636v2.545h1.318v-2.545h2.681v-1.364h-2.681v-2.772z" fill="#d0d2d3"/><path d="m325.893 262.58h-3.789c-1.156 0-2.105.949-2.105 2.105v2.062c0 1.156.949 2.105 2.109 2.105h3.785c1.16 0 2.105-.949 2.105-2.105v-2.062c0-1.156-.946-2.105-2.105-2.105zm1.014 3.887c0 .84-.687 1.531-1.531 1.531h-2.752c-.844 0-1.534-.691-1.534-1.531v-1.502c0-.84.691-1.531 1.534-1.531h2.752c.844 0 1.531.691 1.531 1.531z" fill="#d0d2d3"/><path d="m440.913 252.763h-3.727c-2.925 0-5.318-2.393-5.318-5.318 0-2.925 2.393-5.318 5.318-5.318h3.727c2.925 0 5.318 2.393 5.318 5.318-.001 2.925-2.394 5.318-5.318 5.318z" fill="#0f0f12"/><path d="m95.747 252.763h-3.727c-2.925 0-5.318-2.393-5.318-5.318 0-2.925 2.393-5.318 5.318-5.318h3.727c2.925 0 5.318 2.393 5.318 5.318 0 2.925-2.393 5.318-5.318 5.318z" fill="#0f0f12"/><path d="m502.225 235.764c0-1.28 1.038-2.318 2.318-2.318s2.318 1.038 2.318 2.318-1.038 2.318-2.318 2.318-2.318-1.037-2.318-2.318z" fill="#ba8d5e"/><path d="m510.633 211.403c0-1.28 1.038-2.318 2.318-2.318s2.318 1.038 2.318 2.318-1.038 2.318-2.318 2.318-2.318-1.038-2.318-2.318z" fill="#55bfa2"/><path d="m503.087 150.591c-3.062 0-5.541 2.483-5.541 5.545s2.48 5.545 5.541 5.545c3.065 0 5.549-2.483 5.549-5.545-.001-3.062-2.484-5.545-5.549-5.545zm0 9.635c-2.258 0-4.087-1.833-4.087-4.09 0-2.258 1.829-4.09 4.087-4.09 2.262 0 4.094 1.833 4.094 4.09 0 2.258-1.833 4.09-4.094 4.09z" fill="#d0d2d3"/><path d="m469.773 115.274-5.454 9.185h10.683zm0 2.727 2.803 4.978h-5.607z" fill="#d0d2d3"/><path d="m432.261 151.438v9.061h8.788v-9.061zm7.304 7.425h-5.88v-5.879h5.88z" fill="#d0d2d3"/><path d="m469.773 188.011 3.273-3.272 1.091 1.091-3.348 3.348 3.136 3.136-.97.97-3.136-3.137-3.182 3.182-1.045-1.045 3.216-3.216-3.242-3.242 1.041-1.042z" fill="#d0d2d3"/><path d="m65.357 210.767c-9.188 0-16.635 7.446-16.635 16.635 0 9.188 7.447 16.635 16.635 16.635s16.635-7.447 16.635-16.635c0-9.189-7.446-16.635-16.635-16.635zm0 31.633c-8.283 0-14.999-6.716-14.999-14.998 0-8.283 6.716-14.999 14.999-14.999s14.999 6.716 14.999 14.999c0 8.282-6.716 14.998-14.999 14.998z" fill="#0f0f12"/><ellipse cx="65.357" cy="227.402" fill="#232323" rx="14.999" ry="14.999" transform="matrix(.1609 -.987 .987 .1609 -169.5982 255.3104)"/><path d="m25.316 235.855c0-1.431 1.16-2.591 2.591-2.591s2.591 1.16 2.591 2.591-1.16 2.591-2.591 2.591-2.591-1.16-2.591-2.591z" fill="#55bfa2"/><circle cx="19.453" cy="211.403" fill="#f6921e" r="2.545"/><path d="m63.387 115.776c-22.623 0-40.963 18.34-40.963 40.967 0 22.623 18.34 40.963 40.963 40.963 22.627 0 40.967-18.34 40.967-40.963 0-22.627-18.34-40.967-40.967-40.967zm-11.959 6.203c0-1.873 1.52-3.392 3.392-3.392h17.758c1.873 0 3.392 1.52 3.392 3.392v14.053c0 .585-.236 1.149-.651 1.564l-9.225 9.126c-1.32 1.331-3.469 1.335-4.796.015l-9.206-9.166c-.425-.425-.665-1-.665-1.6v-13.992zm-25.976 25.612c0-1.872 1.52-3.393 3.392-3.393h14.053c.585 0 1.149.236 1.564.651l9.126 9.225c1.331 1.32 1.334 3.469.015 4.796l-9.166 9.206c-.425.425-1 .665-1.6.665h-13.991c-1.873 0-3.392-1.52-3.392-3.392v-17.758zm47.127 46.763h-17.759c-1.872 0-3.392-1.52-3.392-3.392v-14.053c0-.585.236-1.149.651-1.563l9.225-9.126c1.32-1.331 3.469-1.334 4.796-.015l9.206 9.166c.425.426.665 1 .665 1.6v13.991c0 1.872-1.52 3.392-3.392 3.392zm3.297.072c.658-.662 1.065-1.574 1.065-2.582v-15.097c0-.651-.258-1.269-.716-1.727l-9.934-9.89c-1.436-1.425-3.752-1.422-5.181.011l-9.948 9.854c-.451.444-.705 1.054-.705 1.687v15.162c0 1.174.553 2.218 1.411 2.887-12.471-3.77-22.343-13.515-26.296-25.907.64.553 1.476.887 2.389.887h15.097c.651 0 1.269-.258 1.727-.716l9.89-9.934c1.425-1.436 1.422-3.752-.011-5.181l-9.854-9.948c-.444-.451-1.055-.705-1.687-.705h-15.162c-.803 0-1.545.258-2.149.694 4.021-11.795 13.442-21.093 25.318-24.939-.426.596-.673 1.327-.673 2.112v15.097c0 .651.258 1.269.716 1.727l9.934 9.89c1.436 1.425 3.752 1.422 5.181-.011l9.948-9.854c.451-.444.705-1.054.705-1.687v-15.162c0-.673-.182-1.305-.502-1.847 11.537 4.011 20.649 13.202 24.561 24.783-.629-.502-1.425-.803-2.291-.803h-15.095c-.651 0-1.269.258-1.727.716l-9.89 9.934c-1.425 1.436-1.422 3.752.011 5.181l9.854 9.948c.444.451 1.054.705 1.687.705h15.162c.985 0 1.88-.389 2.538-1.025-3.822 12.135-13.315 21.752-25.373 25.74zm25.343-46.835v17.758c0 1.872-1.52 3.392-3.392 3.392h-14.053c-.585 0-1.149-.236-1.563-.651l-9.126-9.225c-1.331-1.32-1.334-3.469-.015-4.796l9.166-9.206c.425-.425 1-.666 1.6-.666h13.991c1.873.001 3.392 1.521 3.392 3.394z" fill="#0f0f12"/><path d="m53.602 158.87-9.166 9.206c-.425.425-1 .665-1.6.665h-13.991c-1.873 0-3.392-1.52-3.392-3.392v-17.758c0-1.872 1.52-3.393 3.392-3.393h14.053c.585 0 1.149.236 1.564.651l9.126 9.225c1.33 1.32 1.334 3.469.014 4.796z" fill="#232323"/><path d="m30.815 156.226v.455l5.181 5.181v-10.635zm4.007 2.847-2.341-2.531 2.341-2.338z" fill="#d0d2d3"/><path d="m101.219 147.591v17.758c0 1.872-1.52 3.392-3.392 3.392h-14.053c-.585 0-1.149-.236-1.563-.651l-9.126-9.225c-1.331-1.32-1.334-3.469-.015-4.796l9.166-9.206c.425-.425 1-.666 1.6-.666h13.991c1.873.001 3.392 1.521 3.392 3.394z" fill="#232323"/><path d="m95.856 156.714v-.454l-5.181-5.181v10.635zm-4.007-2.847 2.342 2.531-2.342 2.338z" fill="#d0d2d3"/><path d="m75.971 121.979v14.053c0 .585-.236 1.149-.651 1.564l-9.225 9.126c-1.32 1.331-3.469 1.335-4.796.015l-9.206-9.166c-.425-.425-.665-1-.665-1.6v-13.991c0-1.873 1.52-3.392 3.392-3.392h17.758c1.873-.002 3.393 1.518 3.393 3.391z" fill="#232323"/><path d="m63.943 123.95h-.454l-5.181 5.181h10.635zm-2.847 4.007 2.531-2.342 2.338 2.342z" fill="#d0d2d3"/><path d="m75.971 176.97v13.991c0 1.872-1.52 3.392-3.392 3.392h-17.759c-1.872 0-3.392-1.52-3.392-3.392v-14.053c0-.585.236-1.149.651-1.563l9.225-9.126c1.32-1.331 3.469-1.334 4.796-.015l9.206 9.166c.425.426.665 1 .665 1.6z" fill="#232323"/><path d="m63.456 188.991h.455l5.181-5.181h-10.636zm2.847-4.007-2.531 2.342-2.338-2.342z" fill="#d0d2d3"/><g fill="#0f0f12"><circle cx="91.385" cy="66.144" r="1.515"/><path d="m93.143 61.917c0-.837.678-1.515 1.515-1.515s1.515.678 1.515 1.515-.678 1.515-1.515 1.515-1.515-.678-1.515-1.515z"/><circle cx="99.566" cy="61.917" r="1.515"/><circle cx="104.596" cy="61.917" r="1.515"/><circle cx="109.353" cy="61.917" r="1.515"/><circle cx="114.11" cy="61.917" r="1.515"/><circle cx="118.898" cy="61.917" r="1.515"/><circle cx="123.806" cy="61.917" r="1.515"/><circle cx="128.351" cy="61.917" r="1.515"/><circle cx="133.306" cy="61.917" r="1.515"/><circle cx="137.896" cy="61.917" r="1.515"/><circle cx="142.896" cy="61.917" r="1.515"/><circle cx="147.804" cy="61.917" r="1.515"/><circle cx="152.622" cy="61.917" r="1.515"/><circle cx="157.212" cy="61.917" r="1.515"/><circle cx="162.303" cy="61.917" r="1.515"/><circle cx="166.893" cy="61.917" r="1.515"/><circle cx="171.681" cy="61.917" r="1.515"/><path d="m175.074 61.917c0-.837.678-1.515 1.515-1.515s1.515.678 1.515 1.515-.678 1.515-1.515 1.515c-.836 0-1.515-.678-1.515-1.515z"/><circle cx="181.134" cy="61.917" r="1.515"/><circle cx="186.164" cy="61.917" r="1.515"/><circle cx="191.133" cy="61.917" r="1.515"/><circle cx="195.663" cy="61.917" r="1.515"/><circle cx="200.481" cy="61.917" r="1.515"/><circle cx="205.344" cy="61.917" r="1.515"/><circle cx="209.98" cy="61.917" r="1.515"/><path d="m213.374 61.917c0-.837.678-1.515 1.515-1.515s1.515.678 1.515 1.515-.678 1.515-1.515 1.515-1.515-.678-1.515-1.515z"/><circle cx="219.706" cy="61.917" r="1.515"/><circle cx="224.524" cy="61.917" r="1.515"/><circle cx="229.342" cy="61.917" r="1.515"/><circle cx="233.978" cy="61.917" r="1.515"/><circle cx="238.841" cy="61.917" r="1.515"/><circle cx="243.795" cy="61.917" r="1.515"/><circle cx="248.431" cy="61.917" r="1.515"/><circle cx="253.112" cy="61.917" r="1.515"/><circle cx="258.112" cy="61.917" r="1.515"/><circle cx="431.33" cy="61.917" r="1.515"/><circle cx="435.837" cy="61.917" r="1.515"/><circle cx="426.422" cy="61.917" r="1.515"/><path d="m422.907 61.917c0 .837-.678 1.515-1.515 1.515s-1.515-.678-1.515-1.515.678-1.515 1.515-1.515 1.515.679 1.515 1.515z"/><circle cx="416.635" cy="61.917" r="1.515"/><circle cx="411.878" cy="61.917" r="1.515"/><circle cx="407.09" cy="61.917" r="1.515"/><path d="m403.697 61.917c0 .837-.678 1.515-1.515 1.515s-1.515-.678-1.515-1.515.678-1.515 1.515-1.515c.836 0 1.515.679 1.515 1.515z"/><circle cx="397.636" cy="61.917" r="1.515"/><path d="m394.197 61.917c0 .837-.678 1.515-1.515 1.515s-1.515-.678-1.515-1.515.678-1.515 1.515-1.515 1.515.679 1.515 1.515z"/><circle cx="388.092" cy="61.917" r="1.515"/><path d="m384.607 61.917c0 .837-.678 1.515-1.515 1.515s-1.515-.678-1.515-1.515.678-1.515 1.515-1.515 1.515.679 1.515 1.515z"/><circle cx="378.184" cy="61.917" r="1.515"/><circle cx="373.366" cy="61.917" r="1.515"/><circle cx="368.776" cy="61.917" r="1.515"/><circle cx="363.685" cy="61.917" r="1.515"/><circle cx="359.095" cy="61.917" r="1.515"/><circle cx="354.307" cy="61.917" r="1.515"/><circle cx="349.399" cy="61.917" r="1.515"/><circle cx="344.854" cy="61.917" r="1.515"/><circle cx="339.824" cy="61.917" r="1.515"/><circle cx="334.854" cy="61.917" r="1.515"/><path d="m331.84 61.917c0 .837-.678 1.515-1.515 1.515s-1.515-.678-1.515-1.515.678-1.515 1.515-1.515c.836 0 1.515.679 1.515 1.515z"/><circle cx="325.507" cy="61.917" r="1.515"/><path d="m322.159 61.917c0 .837-.678 1.515-1.515 1.515s-1.515-.678-1.515-1.515.678-1.515 1.515-1.515c.836 0 1.515.679 1.515 1.515z"/><circle cx="316.008" cy="61.917" r="1.515"/><circle cx="311.099" cy="61.917" r="1.515"/><circle cx="306.281" cy="61.917" r="1.515"/><path d="m302.979 61.917c0 .837-.678 1.515-1.515 1.515s-1.515-.678-1.515-1.515.678-1.515 1.515-1.515 1.515.679 1.515 1.515z"/><circle cx="296.646" cy="61.917" r="1.515"/><circle cx="292.01" cy="61.917" r="1.515"/><circle cx="287.147" cy="61.917" r="1.515"/><path d="m283.708 61.917c0 .837-.678 1.515-1.515 1.515s-1.515-.678-1.515-1.515.678-1.515 1.515-1.515 1.515.679 1.515 1.515z"/><circle cx="277.557" cy="61.917" r="1.515"/><circle cx="272.876" cy="61.917" r="1.515"/><circle cx="267.876" cy="61.917" r="1.515"/><path d="m261.323 61.917c0-.837.678-1.515 1.515-1.515s1.515.678 1.515 1.515-.678 1.515-1.515 1.515c-.836 0-1.515-.678-1.515-1.515z"/><circle cx="244.053" cy="58.024" r="1.515"/><circle cx="248.689" cy="58.024" r="1.515"/><circle cx="253.37" cy="58.024" r="1.515"/><circle cx="258.369" cy="58.024" r="1.515"/><circle cx="429.043" cy="58.024" r="1.515"/><circle cx="433.55" cy="58.024" r="1.515"/><circle cx="424.134" cy="58.024" r="1.515"/><circle cx="419.104" cy="58.024" r="1.515"/><circle cx="414.347" cy="58.024" r="1.515"/><circle cx="409.953" cy="58.024" r="1.515"/><circle cx="405.166" cy="58.024" r="1.515"/><circle cx="400.257" cy="58.024" r="1.515"/><circle cx="395.712" cy="58.024" r="1.515"/><circle cx="390.758" cy="58.024" r="1.515"/><circle cx="386.168" cy="58.024" r="1.515"/><circle cx="381.532" cy="58.024" r="1.515"/><circle cx="376.623" cy="58.024" r="1.515"/><path d="m373.321 58.024c0 .837-.678 1.515-1.515 1.515s-1.515-.678-1.515-1.515.678-1.515 1.515-1.515c.836 0 1.515.678 1.515 1.515z"/><circle cx="367.215" cy="58.024" r="1.515"/><path d="m364.003 58.024c0 .837-.678 1.515-1.515 1.515s-1.515-.678-1.515-1.515.678-1.515 1.515-1.515 1.515.678 1.515 1.515z"/><circle cx="357.898" cy="58.024" r="1.515"/><path d="m354.625 58.024c0 .837-.678 1.515-1.515 1.515s-1.515-.678-1.515-1.515.678-1.515 1.515-1.515 1.515.678 1.515 1.515z"/><circle cx="348.202" cy="58.024" r="1.515"/><circle cx="343.657" cy="58.024" r="1.515"/><circle cx="338.991" cy="58.024" r="1.515"/><circle cx="334.021" cy="58.024" r="1.515"/><circle cx="329.491" cy="58.024" r="1.515"/><circle cx="324.674" cy="58.024" r="1.515"/><circle cx="319.811" cy="58.024" r="1.515"/><circle cx="315.175" cy="58.024" r="1.515"/><path d="m311.781 58.024c0 .837-.678 1.515-1.515 1.515s-1.515-.678-1.515-1.515.678-1.515 1.515-1.515 1.515.678 1.515 1.515z"/><circle cx="305.812" cy="58.024" r="1.515"/><circle cx="300.994" cy="58.024" r="1.515"/><circle cx="296.176" cy="58.024" r="1.515"/><path d="m293.056 58.024c0 .837-.678 1.515-1.515 1.515s-1.515-.678-1.515-1.515.678-1.515 1.515-1.515c.836 0 1.515.678 1.515 1.515z"/><circle cx="286.677" cy="58.024" r="1.515"/><circle cx="282.087" cy="58.024" r="1.515"/><circle cx="277.087" cy="58.024" r="1.515"/><circle cx="272.595" cy="58.024" r="1.515"/><circle cx="267.77" cy="58.024" r="1.515"/><circle cx="263.096" cy="58.024" r="1.515"/><circle cx="101.911" cy="57.963" r="1.515"/><circle cx="97.404" cy="57.963" r="1.515"/><circle cx="106.819" cy="57.963" r="1.515"/><circle cx="111.849" cy="57.963" r="1.515"/><circle cx="116.606" cy="57.963" r="1.515"/><circle cx="121" cy="57.963" r="1.515"/><circle cx="125.787" cy="57.963" r="1.515"/><circle cx="130.696" cy="57.963" r="1.515"/><circle cx="135.241" cy="57.963" r="1.515"/><circle cx="140.195" cy="57.963" r="1.515"/><path d="m143.27 57.963c0-.837.678-1.515 1.515-1.515s1.515.678 1.515 1.515-.678 1.515-1.515 1.515c-.836 0-1.515-.678-1.515-1.515z"/><circle cx="149.421" cy="57.963" r="1.515"/><circle cx="154.33" cy="57.963" r="1.515"/><circle cx="159.148" cy="57.963" r="1.515"/><circle cx="163.738" cy="57.963" r="1.515"/><circle cx="168.465" cy="57.963" r="1.515"/><circle cx="173.056" cy="57.963" r="1.515"/><circle cx="177.843" cy="57.963" r="1.515"/><path d="m181.237 57.963c0-.837.678-1.515 1.515-1.515s1.515.678 1.515 1.515-.678 1.515-1.515 1.515-1.515-.678-1.515-1.515z"/><circle cx="187.297" cy="57.963" r="1.515"/><circle cx="191.963" cy="57.963" r="1.515"/><circle cx="196.932" cy="57.963" r="1.515"/><circle cx="201.462" cy="57.963" r="1.515"/><circle cx="206.28" cy="57.963" r="1.515"/><circle cx="211.143" cy="57.963" r="1.515"/><circle cx="215.779" cy="57.963" r="1.515"/><circle cx="220.687" cy="57.963" r="1.515"/><path d="m223.626 57.963c0-.837.678-1.515 1.515-1.515s1.515.678 1.515 1.515-.678 1.515-1.515 1.515c-.836 0-1.515-.678-1.515-1.515z"/><circle cx="229.959" cy="57.963" r="1.515"/><circle cx="234.777" cy="57.963" r="1.515"/><circle cx="239.413" cy="57.963" r="1.515"/><path d="m94.658 66.144c0-.837.678-1.515 1.515-1.515s1.515.678 1.515 1.515-.678 1.515-1.515 1.515-1.515-.678-1.515-1.515z"/><circle cx="101.081" cy="66.144" r="1.515"/><circle cx="106.111" cy="66.144" r="1.515"/><circle cx="111.08" cy="66.144" r="1.515"/><path d="m114.353 66.144c0-.837.678-1.515 1.515-1.515s1.515.678 1.515 1.515-.678 1.515-1.515 1.515-1.515-.678-1.515-1.515z"/><circle cx="120.776" cy="66.144" r="1.515"/><circle cx="125.806" cy="66.144" r="1.515"/><circle cx="130.533" cy="66.144" r="1.515"/><path d="m133.805 66.144c0-.837.678-1.515 1.515-1.515s1.515.678 1.515 1.515-.678 1.515-1.515 1.515c-.836 0-1.515-.678-1.515-1.515z"/><circle cx="140.229" cy="66.144" r="1.515"/><circle cx="145.259" cy="66.144" r="1.515"/><circle cx="150.228" cy="66.144" r="1.515"/><path d="m153.501 66.144c0-.837.678-1.515 1.515-1.515s1.515.678 1.515 1.515-.678 1.515-1.515 1.515-1.515-.678-1.515-1.515z"/><circle cx="159.924" cy="66.144" r="1.515"/><circle cx="164.954" cy="66.144" r="1.515"/><circle cx="169.923" cy="66.144" r="1.515"/><path d="m173.196 66.144c0-.837.678-1.515 1.515-1.515s1.515.678 1.515 1.515-.678 1.515-1.515 1.515-1.515-.678-1.515-1.515z"/><circle cx="179.619" cy="66.144" r="1.515"/><circle cx="184.649" cy="66.144" r="1.515"/><circle cx="189.618" cy="66.144" r="1.515"/><circle cx="194.406" cy="66.144" r="1.515"/><circle cx="199.314" cy="66.144" r="1.515"/><circle cx="204.344" cy="66.144" r="1.515"/><circle cx="209.071" cy="66.144" r="1.515"/><circle cx="213.858" cy="66.144" r="1.515"/><circle cx="218.767" cy="66.144" r="1.515"/><circle cx="223.797" cy="66.144" r="1.515"/><circle cx="228.766" cy="66.144" r="1.515"/><circle cx="233.554" cy="66.144" r="1.515"/><circle cx="238.462" cy="66.144" r="1.515"/><circle cx="243.492" cy="66.144" r="1.515"/><circle cx="248.113" cy="66.144" r="1.515"/><circle cx="252.9" cy="66.144" r="1.515"/><circle cx="257.809" cy="66.144" r="1.515"/><path d="m261.323 66.144c0-.837.678-1.515 1.515-1.515s1.515.678 1.515 1.515-.678 1.515-1.515 1.515c-.836 0-1.515-.678-1.515-1.515z"/><circle cx="267.808" cy="66.144" r="1.515"/><circle cx="272.595" cy="66.144" r="1.515"/><circle cx="277.504" cy="66.144" r="1.515"/><path d="m281.018 66.144c0-.837.678-1.515 1.515-1.515s1.515.678 1.515 1.515-.678 1.515-1.515 1.515c-.836 0-1.515-.678-1.515-1.515z"/><circle cx="287.367" cy="66.144" r="1.515"/><circle cx="292.154" cy="66.144" r="1.515"/><path d="m295.548 66.144c0-.837.678-1.515 1.515-1.515s1.515.678 1.515 1.515-.678 1.515-1.515 1.515-1.515-.678-1.515-1.515z"/><circle cx="302.092" cy="66.144" r="1.515"/><circle cx="307.062" cy="66.144" r="1.515"/><circle cx="311.849" cy="66.144" r="1.515"/><path d="m315.243 66.144c0-.837.678-1.515 1.515-1.515s1.515.678 1.515 1.515-.678 1.515-1.515 1.515-1.515-.678-1.515-1.515z"/><circle cx="321.788" cy="66.144" r="1.515"/><circle cx="326.636" cy="66.144" r="1.515"/><circle cx="331.423" cy="66.144" r="1.515"/><path d="m334.817 66.144c0-.837.678-1.515 1.515-1.515s1.515.678 1.515 1.515-.678 1.515-1.515 1.515-1.515-.678-1.515-1.515z"/><circle cx="341.362" cy="66.144" r="1.515"/><circle cx="346.331" cy="66.144" r="1.515"/><circle cx="351.118" cy="66.144" r="1.515"/><path d="m354.512 66.144c0-.837.678-1.515 1.515-1.515s1.515.678 1.515 1.515-.678 1.515-1.515 1.515-1.515-.678-1.515-1.515z"/><circle cx="361.057" cy="66.144" r="1.515"/><circle cx="365.844" cy="66.144" r="1.515"/><circle cx="370.631" cy="66.144" r="1.515"/><circle cx="375.54" cy="66.144" r="1.515"/><circle cx="380.57" cy="66.144" r="1.515"/><circle cx="385.539" cy="66.144" r="1.515"/><circle cx="390.327" cy="66.144" r="1.515"/><circle cx="395.235" cy="66.144" r="1.515"/><circle cx="400.265" cy="66.144" r="1.515"/><circle cx="404.81" cy="66.144" r="1.515"/><circle cx="409.597" cy="66.144" r="1.515"/><circle cx="414.506" cy="66.144" r="1.515"/><path d="m418.021 66.144c0-.837.678-1.515 1.515-1.515s1.515.678 1.515 1.515-.678 1.515-1.515 1.515-1.515-.678-1.515-1.515z"/><circle cx="424.505" cy="66.144" r="1.515"/><circle cx="429.293" cy="66.144" r="1.515"/><circle cx="434.201" cy="66.144" r="1.515"/><path d="m437.716 66.144c0-.837.678-1.515 1.515-1.515s1.515.678 1.515 1.515-.678 1.515-1.515 1.515-1.515-.678-1.515-1.515z"/></g><path d="m115.458 266.026h-.863v-1.555h-1.582v1.555h-.86v-3.819h.86v1.523h1.582v-1.523h.863z" fill="#d0d2d3"/><path d="m117.946 266.093c-.547 0-.992-.178-1.337-.534-.344-.356-.517-.82-.517-1.392 0-.604.175-1.092.525-1.465s.813-.559 1.39-.559c.545 0 .986.178 1.322.535s.505.827.505 1.411c0 .6-.175 1.084-.523 1.451-.349.369-.804.553-1.365.553zm.037-3.209c-.302 0-.541.113-.719.34s-.266.526-.266.899c0 .378.089.677.266.897s.41.33.698.33c.297 0 .532-.107.706-.321s.261-.511.261-.891c0-.396-.084-.704-.253-.924s-.4-.33-.693-.33z" fill="#d0d2d3"/><path d="m124.819 266.026h-.85v-2.285c0-.247.011-.519.032-.818h-.021c-.044.234-.084.403-.12.506l-.895 2.597h-.703l-.911-2.57c-.025-.069-.065-.247-.12-.533h-.024c.023.376.035.707.035.991v2.112h-.775v-3.819h1.26l.78 2.264c.062.181.107.363.136.546h.016c.048-.211.099-.395.152-.551l.78-2.258h1.228z" fill="#d0d2d3"/><path d="m127.978 266.026h-2.29v-3.819h2.202v.7h-1.342v.849h1.249v.698h-1.249v.874h1.43z" fill="#d0d2d3"/><path d="m174.115 263.389-1.316 3.819h-.975l-1.3-3.819h.927l.796 2.658c.043.144.068.271.077.381h.016c.013-.119.04-.25.083-.392l.791-2.647z" fill="#d0d2d3"/><path d="m176.187 267.275c-.547 0-.992-.178-1.337-.534s-.517-.82-.517-1.392c0-.604.175-1.092.525-1.465s.813-.559 1.39-.559c.545 0 .986.178 1.322.535s.505.827.505 1.411c0 .6-.174 1.084-.523 1.451-.349.369-.804.553-1.365.553zm.038-3.209c-.302 0-.542.113-.719.34-.178.227-.266.526-.266.899 0 .378.089.677.266.897s.41.33.698.33c.296 0 .532-.107.706-.321s.261-.511.261-.891c0-.396-.084-.704-.253-.924-.17-.22-.4-.33-.693-.33z" fill="#d0d2d3"/><path d="m180.984 267.208h-2.274v-3.819h.86v3.121h1.414z" fill="#d0d2d3"/><path d="m370.213 265.897v-.909c.165.138.344.242.537.311s.388.104.585.104c.115 0 .216-.01.302-.031s.158-.05.216-.087.101-.081.129-.131.043-.105.043-.163c0-.08-.023-.151-.068-.213-.046-.063-.108-.12-.186-.173-.079-.053-.172-.104-.28-.153s-.224-.099-.349-.151c-.318-.132-.555-.294-.712-.486-.156-.191-.234-.422-.234-.693 0-.212.043-.394.128-.547.085-.152.201-.278.348-.376s.317-.171.51-.217.398-.07.614-.07c.212 0 .4.013.564.038s.315.065.453.118v.849c-.068-.047-.142-.089-.223-.125s-.163-.066-.248-.09-.17-.041-.254-.052-.164-.017-.24-.017c-.104 0-.199.01-.284.03s-.157.048-.216.084-.104.079-.136.129-.048.107-.048.169c0 .068.018.129.054.183s.087.105.153.153.147.096.241.142c.095.047.202.094.321.143.163.068.309.141.439.217.13.077.241.163.334.26.093.096.164.207.213.331s.074.268.074.433c0 .227-.043.418-.129.572s-.203.279-.351.375-.32.164-.516.206-.403.063-.621.063c-.224 0-.436-.019-.638-.057-.203-.036-.377-.093-.525-.169z" fill="#d0d2d3"/><path d="m376.104 266.053h-2.443v-4.074h2.349v.747h-1.432v.906h1.332v.744h-1.332v.932h1.525v.745z" fill="#d0d2d3"/><path d="m379.184 266.053h-2.426v-4.074h.918v3.329h1.508z" fill="#d0d2d3"/><path d="m382.175 266.053h-2.443v-4.074h2.349v.747h-1.432v.906h1.332v.744h-1.332v.932h1.526z" fill="#d0d2d3"/><path d="m385.748 265.908c-.297.144-.686.216-1.165.216-.625 0-1.116-.184-1.474-.551s-.537-.857-.537-1.469c0-.651.201-1.18.604-1.585.402-.405.925-.608 1.567-.608.398 0 .733.05 1.006.151v.883c-.273-.163-.583-.244-.932-.244-.383 0-.691.12-.926.361s-.352.566-.352.977c0 .394.111.708.332.942.222.234.52.351.895.351.358 0 .686-.087.983-.261v.837z" fill="#d0d2d3"/><path d="m389.319 262.727h-1.162v3.326h-.92v-3.326h-1.156v-.747h3.238z" fill="#d0d2d3"/><path d="m405.119 265.897v-.909c.165.138.344.242.537.311s.388.104.585.104c.115 0 .216-.01.302-.031s.158-.05.216-.087.101-.081.129-.131.043-.105.043-.163c0-.08-.023-.151-.068-.213-.046-.063-.108-.12-.186-.173-.079-.053-.172-.104-.28-.153s-.224-.099-.349-.151c-.318-.132-.555-.294-.712-.486-.156-.191-.234-.422-.234-.693 0-.212.043-.394.128-.547.085-.152.201-.278.348-.376s.317-.171.51-.217.398-.07.613-.07c.212 0 .4.013.564.038s.315.065.453.118v.849c-.068-.047-.143-.089-.223-.125-.081-.036-.163-.066-.249-.09-.085-.024-.17-.041-.254-.052s-.164-.017-.24-.017c-.104 0-.199.01-.284.03s-.157.048-.216.084-.104.079-.136.129-.048.107-.048.169c0 .068.018.129.054.183s.087.105.153.153.147.096.242.142c.095.047.202.094.321.143.163.068.309.141.439.217.13.077.241.163.334.26.093.096.164.207.213.331s.074.268.074.433c0 .227-.043.418-.129.572s-.203.279-.351.375-.32.164-.516.206-.403.063-.621.063c-.224 0-.436-.019-.638-.057-.202-.036-.377-.093-.524-.169z" fill="#d0d2d3"/><path d="m411.428 262.727h-1.162v3.326h-.92v-3.326h-1.156v-.747h3.238z" fill="#d0d2d3"/><path d="m415.558 266.053h-1l-.29-.906h-1.449l-.287.906h-.994l1.483-4.074h1.088zm-1.5-1.61-.438-1.369c-.032-.102-.055-.224-.068-.366h-.023c-.009.119-.033.238-.071.355l-.443 1.38z" fill="#d0d2d3"/><path d="m419.484 266.053h-1.054l-.633-1.048c-.047-.08-.093-.151-.136-.213-.044-.063-.088-.116-.132-.161-.044-.044-.091-.078-.139-.102s-.101-.036-.158-.036h-.247v1.56h-.918v-4.074h1.454c.989 0 1.483.369 1.483 1.108 0 .142-.022.273-.065.393-.044.12-.105.229-.185.325-.08.097-.176.18-.288.25-.113.07-.238.125-.376.165v.011c.061.019.119.05.176.092.057.043.112.092.165.149s.104.118.152.183.092.129.132.192zm-2.5-3.386v1.133h.398c.197 0 .355-.057.474-.17.121-.115.182-.259.182-.429 0-.356-.213-.534-.639-.534z" fill="#d0d2d3"/><path d="m422.725 262.727h-1.162v3.326h-.92v-3.326h-1.156v-.747h3.238z" fill="#d0d2d3"/><path d="m487.004 211.988v1.403h-.918v-4.073h1.437c1.026 0 1.54.433 1.54 1.298 0 .409-.147.74-.442.993-.294.253-.688.379-1.18.379zm0-1.966v1.27h.361c.489 0 .733-.214.733-.642 0-.418-.244-.628-.733-.628z" fill="#d0d2d3"/><path d="m491.381 213.463c-.583 0-1.059-.19-1.426-.57-.368-.38-.551-.874-.551-1.484 0-.644.186-1.165.56-1.562.373-.398.867-.596 1.483-.596.581 0 1.051.19 1.41.571s.538.883.538 1.505c0 .64-.186 1.156-.558 1.548s-.858.588-1.456.588zm.04-3.423c-.322 0-.578.121-.767.362s-.284.561-.284.959c0 .403.095.723.284.957.189.235.437.352.744.352.316 0 .567-.114.753-.342s.278-.545.278-.95c0-.422-.09-.751-.27-.986s-.426-.352-.738-.352z" fill="#d0d2d3"/><path d="m499.4 209.318-1.077 4.073h-1.017l-.676-2.613c-.036-.136-.058-.289-.065-.457h-.011c-.017.186-.042.338-.074.457l-.693 2.613h-1.059l-1.071-4.073h1.003l.574 2.713c.025.116.043.271.054.466h.017c.008-.146.035-.305.082-.477l.738-2.701h.983l.668 2.735c.024.101.046.246.065.438h.011c.007-.149.027-.301.06-.454l.563-2.718h.925z" fill="#d0d2d3"/><path d="m502.36 213.391h-2.443v-4.073h2.349v.747h-1.432v.906h1.332v.744h-1.332v.932h1.526z" fill="#d0d2d3"/><path d="m506.431 213.391h-1.054l-.633-1.048c-.047-.079-.093-.15-.136-.213-.044-.063-.088-.116-.132-.161-.044-.044-.091-.078-.139-.102s-.101-.036-.158-.036h-.247v1.56h-.918v-4.073h1.454c.989 0 1.483.369 1.483 1.108 0 .142-.022.273-.065.393-.044.12-.105.229-.185.325-.079.097-.176.18-.288.25-.113.07-.238.125-.376.165v.011c.061.019.119.05.176.092.057.043.112.092.165.149s.104.118.152.183.092.129.132.192zm-2.5-3.386v1.133h.398c.197 0 .355-.057.474-.17.121-.115.182-.258.182-.429 0-.356-.213-.534-.639-.534z" fill="#d0d2d3"/><path d="m485.339 237.298h-.92v-1.659h-1.687v1.659h-.918v-4.073h.918v1.625h1.687v-1.625h.92z" fill="#d0d2d3"/><path d="m487.992 237.369c-.583 0-1.059-.19-1.426-.57s-.551-.874-.551-1.484c0-.644.186-1.165.56-1.562.373-.398.867-.596 1.483-.596.581 0 1.051.19 1.41.571s.538.883.538 1.506c0 .64-.186 1.156-.558 1.548-.372.391-.857.587-1.456.587zm.04-3.423c-.322 0-.578.121-.767.362s-.284.561-.284.959c0 .403.095.723.284.957.189.235.438.352.744.352.316 0 .567-.114.753-.342s.278-.545.278-.95c0-.422-.09-.751-.27-.986-.179-.234-.425-.352-.738-.352z" fill="#d0d2d3"/><path d="m493.108 237.298h-2.426v-4.073h.918v3.329h1.508z" fill="#d0d2d3"/><path d="m493.656 237.298v-4.073h1.443c1.447 0 2.17.662 2.17 1.986 0 .634-.197 1.141-.592 1.52s-.921.568-1.578.568h-1.443zm.918-3.326v2.582h.454c.398 0 .71-.119.936-.358s.339-.563.339-.974c0-.388-.112-.693-.337-.916-.224-.222-.539-.334-.944-.334z" fill="#d0d2d3"/><path d="m299.974 258.941c0-1.25 0-2.382 0-3.633-6.397 0-12.779 0-19.197 0 0-.403 0-.688 0-1.037h20.65v6.099c-6.267 0-12.528 0-18.849 0v5.038c-.63 0-1.2 0-1.804 0 0-2.146 0-4.247 0-6.466 6.401-.001 12.783-.001 19.2-.001z" fill="#d0d2d3"/><path d="m237.144 255.35c0-.467 0-.752 0-1.091h20.305c.042.94.013 1.948.018 2.954.005 1.02.001 2.04.001 3.116-6.283 0-12.499 0-18.812 0-.186.859-.07 1.693-.091 2.514-.021.838-.005 1.678-.005 2.574-.468 0-.875 0-1.368 0 0-2.09 0-4.235 0-6.434h19.094c0-1.225 0-2.401 0-3.633-6.32 0-12.658 0-19.142 0z" fill="#d0d2d3"/><path d="m257.138 265.416c0-.465 0-.871 0-1.335h9.782c.006-3.288 0-6.522.004-9.815h11.602v.972c-3.342 0-6.653 0-9.917 0-.093.098-.142.136-.174.186-.029.046-.055.104-.055.157-.003 3.258-.002 6.516-.002 9.835-3.733 0-7.406 0-11.24 0z" fill="#d0d2d3"/><path d="m47.554 96.331c-.917-.293-1.814-.58-2.723-.87 0-3.916 0-7.846 0-11.803.457.105.907.189 1.346.313.79.223 1.578.453 2.357.711.644.213 1.264.483 1.811.904.526.404.849.93 1.036 1.553.156.517.171 1.053.161 1.583-.011.573-.103 1.138-.453 1.624-.417.58-.964.761-1.652.651-.242-.038-.475-.125-.715-.177-.161-.035-.203-.12-.203-.279.006-1.332.005-2.664.002-3.996-.001-.335-.134-.59-.457-.737-.21-.096-.415-.021-.507.362-.014.06-.003.126-.003.189v9.107z" fill="#d0d2d3"/><path d="m47.977 93.617c0-.549-.003-1.06.005-1.57.001-.045.069-.118.118-.129.606-.146 1.207-.337 1.822-.408.61-.07 1.235-.024 1.853-.018.568.006 1.12.125 1.659.297.467.149.954.268 1.341.588.425.351.438.821-.119 1.22-.494.354-1.066.528-1.628.729-1.444.518-2.887 1.037-4.33 1.555-.23.083-.461.166-.722.26 0-.521-.005-1.009.007-1.497.001-.056.091-.136.156-.159 1.075-.385 2.153-.762 3.229-1.144.348-.124.694-.252 1.038-.386.074-.029.161-.082.192-.148.026-.057.002-.196-.037-.213-.148-.064-.309-.109-.469-.134-.72-.112-1.356.194-2.007.417-.691.238-1.379.484-2.108.74z" fill="#d0d2d3"/><path d="m44.357 90.756c0 .527.004 1.017-.006 1.507-.001.051-.073.127-.128.147-.874.315-1.752.621-2.627.934-.095.034-.188.087-.268.149-.051.04-.114.118-.105.168.01.055.086.118.147.143.384.154.786.175 1.176.06.562-.165 1.113-.369 1.669-.553.037-.012.082-.002.131-.002v1.463c-.756.028-1.506.106-2.25.067-.604-.032-1.207-.179-1.799-.324-.374-.091-.743-.24-1.083-.423-.185-.099-.371-.3-.436-.495-.146-.437.01-.595.37-.836.316-.211.672-.372 1.028-.508.829-.319 1.668-.613 2.505-.912.457-.164.918-.319 1.377-.478.092-.031.182-.065.299-.107z" fill="#d0d2d3"/><path d="m429.922 90.533c.169-1.448 1.209-2.006 2.439-2.306 1.324-.323 2.669-.346 4.002-.019.352.086.694.231 1.022.388.515.247.552.241.66-.337h1.188v2.707c-.37 0-.732 0-1.095 0-.378-.936-1.161-1.402-2.056-1.709-1.038-.357-2.092-.374-3.138-.019-.191.065-.382.157-.542.278-.424.319-.403.791.083.996.459.194.958.314 1.451.406 1.268.235 2.547.413 3.812.666.399.08.79.287 1.141.505 1.184.734.898 2.169.307 2.814-.61.665-1.418.905-2.262 1.071-.071.014-.139.043-.208.066-.928 0-1.857 0-2.785 0-.058-.022-.115-.047-.175-.065-.626-.188-1.261-.349-1.876-.569-.443-.158-.465-.174-.609.27-.024.075-.104.184-.163.187-.37.017-.742.009-1.106.009 0-.973 0-1.895 0-2.841.332 0 .644-.009.954.007.076.004.182.071.216.139.457.903 1.24 1.367 2.173 1.633.852.243 1.723.281 2.593.175.408-.049.824-.174 1.19-.358.175-.088.328-.392.33-.6.001-.167-.22-.359-.38-.496-.106-.091-.275-.122-.421-.149-1.089-.198-2.184-.369-3.269-.589-.776-.157-1.55-.342-2.305-.578-.485-.152-.847-.509-1.03-1.006-.057-.157-.093-.321-.139-.482-.002-.064-.002-.129-.002-.194z" fill="#d0d2d3"/><path d="m445.728 96.039c-.584-.133-1.181-.227-1.749-.409-.989-.317-1.837-.858-2.38-1.779-1.044-1.77-.397-4.028 1.456-5.064 1.21-.677 2.536-.857 3.899-.852 1.243.004 2.446.201 3.56.784 1.008.527 1.768 1.284 2.01 2.432.385 1.819-.466 3.45-2.179 4.236-.709.326-1.458.512-2.234.59-.083.008-.164.04-.245.061-.713.001-1.426.001-2.138.001zm4.223-4c-.001-.787-.173-1.513-.676-2.144-.974-1.22-3.293-1.221-4.422-.392-.999.734-1.215 1.783-1.1 2.935.104 1.042.548 1.888 1.558 2.313 1.043.438 2.111.423 3.137-.039 1.138-.511 1.488-1.508 1.503-2.673z" fill="#d0d2d3"/><path d="m452.945 89.254c0-.348 0-.644 0-.979h.721c.982 0 1.965.008 2.947-.006.237-.003.404.074.571.231 1.483 1.399 2.971 2.792 4.458 4.186.023.021.051.036.107.074.014-.084.034-.15.034-.215.005-.896.008-1.792.009-2.688 0-.406-.083-.524-.488-.578-.317-.043-.641-.036-.982-.051 0-.305 0-.603 0-.927h4.411v.954c-.256 0-.514-.019-.767.004-.48.045-.589.18-.589.664v5.603.39c-.571 0-1.118.006-1.665-.006-.081-.002-.173-.077-.239-.139-1.201-1.132-2.399-2.267-3.598-3.401-.602-.569-1.206-1.137-1.842-1.736-.019.113-.039.181-.04.249-.001 1.144-.003 2.288.002 3.433.002.489.143.635.632.656.301.013.603.002.928.002v.925c-1.53 0-3.057 0-4.607 0 0-.291 0-.576 0-.924.263 0 .526.002.789 0 .644-.007.768-.133.768-.78 0-1.425.001-2.85.001-4.275 0-.483-.106-.617-.593-.66-.309-.029-.623-.006-.968-.006z" fill="#d0d2d3"/><path d="m473.899 94.908v.942c-1.851 0-3.689 0-5.545 0 0-.302 0-.599 0-.944.309 0 .618.009.926-.002.573-.02.674-.129.675-.695 0-.022-.003-.044.001-.065.162-.919-.189-1.609-.852-2.247-.751-.724-1.391-1.562-2.116-2.313-.181-.187-.5-.259-.769-.334-.178-.049-.381-.009-.593-.009 0-.339 0-.646 0-.98h5.02v.977c-.187 0-.378-.013-.566.003-.296.026-.368.179-.175.398.471.534.953 1.057 1.44 1.575.155.165.339.175.508-.004.495-.526.993-1.049 1.481-1.582.065-.071.124-.211.095-.282-.026-.063-.175-.093-.274-.106-.138-.017-.279-.004-.445-.004 0-.328 0-.643 0-.979h3.962v.979c-.173 0-.352.011-.529-.002-.363-.027-.648.107-.887.374-.755.843-1.481 1.717-2.283 2.512-.513.509-.742 1.028-.695 1.758.065 1 .042 1.029 1.044 1.031.181 0 .363-.001.577-.001z" fill="#d0d2d3"/><path d="m347.108 263.053v.091c0 1.792 0 3.585-.001 5.377 0 .109-.001.219-.012.328-.025.239-.121.452-.259.647-.152.214-.343.387-.557.536-.282.196-.585.346-.919.428-.285.07-.57.08-.855-.005-.143-.043-.274-.108-.386-.207-.176-.154-.265-.351-.276-.582-.017-.37.114-.69.346-.972.23-.28.518-.487.838-.651.206-.106.42-.189.649-.232.286-.054.57-.054.846.052.074.028.142.07.213.106.014.007.026.016.048.029 0-.034 0-.059 0-.084 0-2.427 0-4.855 0-7.283 0-.024-.001-.048.001-.072.005-.055.042-.091.097-.094.042-.002.084-.002.125 0 .063.002.097.038.101.102.003.046.004.091.006.137.013.325.088.638.199.942.123.338.286.657.47.964.204.34.414.675.62 1.014.192.317.372.64.514.983.115.279.201.566.241.866.024.18.031.361.023.542-.026.641-.169 1.256-.4 1.852-.029.074-.076.127-.151.149-.091.026-.17-.003-.232-.072-.058-.064-.071-.14-.037-.222.11-.263.201-.532.269-.809.08-.324.124-.653.134-.986.01-.335-.07-.651-.205-.955-.146-.33-.342-.629-.56-.914-.264-.346-.558-.664-.859-.978-.006-.008-.014-.013-.031-.027z" fill="#d0d2d3"/><path d="m33.814 228.897c-.012-.343-.023-.683-.035-1.022 3.612-.218 7.624 2.757 7.534 7.518-.344-.011-.689-.023-1.037-.034.036-1.802-.56-3.362-1.835-4.63-1.272-1.265-2.832-1.856-4.627-1.832z" fill="#d0d2d3"/><path d="m39.222 235.402c-.345-.017-.683-.033-1.029-.05.027-1.222-.36-2.283-1.225-3.148-.864-.863-1.922-1.25-3.147-1.221-.017-.343-.034-.684-.051-1.024 2.801-.214 5.614 2.179 5.452 5.443z" fill="#d0d2d3"/><path d="m33.841 233.072c-.03-.344-.06-.687-.091-1.029 1.929-.176 3.559 1.446 3.381 3.385-.34-.03-.68-.061-1.028-.092.039-.643-.182-1.187-.626-1.632s-.987-.67-1.636-.632z" fill="#d0d2d3"/><path d="m34.762 234.417c.403.407.401 1.067-.004 1.468-.406.402-1.07.4-1.47-.003-.403-.406-.398-1.07.013-1.477.399-.396 1.063-.39 1.461.012z" fill="#d0d2d3"/><path d="m30.732 208.939c3.398 0 7.132-.215 7.132-.585 0-.12-3.234-.154-7.132-.154s-7.132.034-7.132.154c0 .37 3.734.585 7.132.585" fill="#d0d2d3"/><path d="m30.732 210.104c1.627 0 5.313-.213 5.313-.504 0-.087-2.477-.108-5.313-.108s-5.313.021-5.313.108c0 .291 3.686.504 5.313.504" fill="#d0d2d3"/><path d="m30.732 211.115c1.799 0 3.841-.199 3.841-.425 0-.095-1.742-.076-3.841-.076s-3.842-.02-3.842.076c0 .226 2.042.425 3.842.425" fill="#d0d2d3"/><path d="m30.734 207.547c.212 0 .457-.006.695-.051.269-.051.383-.169.42-.421.034-.233-.086-.601-.149-.928-.089-.461.126-.68.715-.68.708 0 .868.34 1.189 1.189.193.51.395.71 1.131.782.661.065 1.491.113 2.515.113.843 0 .93-.242-.333-.448-.8-.13-1.276-.322-1.556-.655-.308-.367-.38-.595-.584-.84-.229-.275-.531-.4-.908-.447-.919-.115-1.976-.18-3.135-.18s-2.216.065-3.135.18c-.378.048-.679.172-.908.447-.204.245-.275.472-.584.84-.28.333-.755.525-1.555.655-1.263.206-1.176.448-.333.448 1.024 0 1.854-.048 2.515-.113.735-.072.938-.272 1.13-.782.321-.849.481-1.189 1.19-1.189.589 0 .803.219.715.68-.063.327-.184.696-.149.928.037.252.152.37.42.421.237.044.482.051.694.051" fill="#d0d2d3"/><path d="m136.754 289.887h-129.323c-2.35 0-4.254 1.905-4.254 4.255v38.992c0 2.35 1.905 4.254 4.254 4.254h129.323c2.35 0 4.254-1.904 4.254-4.254v-38.992c.001-2.35-1.904-4.255-4.254-4.255" fill="#f4f4f4"/><path d="m7.431 289.887v.446h129.323c1.053 0 2.002.426 2.693 1.116.69.691 1.115 1.64 1.115 2.693v38.992c0 1.053-.426 2.002-1.115 2.693-.691.69-1.64 1.115-2.693 1.115h-129.323c-1.053 0-2.002-.425-2.693-1.115-.69-.69-1.115-1.64-1.115-2.693v-38.992c0-1.053.426-2.002 1.115-2.693.691-.69 1.64-1.115 2.693-1.116v-.446-.446c-2.596 0-4.7 2.105-4.7 4.701v38.992c0 2.596 2.104 4.7 4.7 4.7h129.323c2.596 0 4.7-2.104 4.7-4.7v-38.992c0-2.596-2.104-4.701-4.7-4.701h-129.323z" fill="#35495e"/><path d="m30.845 334.975h-8.137c-2.62 0-3.569-2.136-3.569-3.572v-9.992h-9.995c-2.621 0-3.571-2.135-3.571-3.571v-8.136c0-2.62 2.136-3.57 3.571-3.57h9.995v-9.994c0-2.62 2.134-3.571 3.569-3.571h8.137c2.621 0 3.572 2.137 3.572 3.571v9.994h9.991c1.374 0 2.465.601 3.071 1.693.237.429.522 1.272.491 1.875h.009v8.137c0 2.62-2.135 3.571-3.571 3.571h-9.991v9.992c0 2.621-2.135 3.573-3.572 3.573zm-21.701-27.127c-.43.007-1.855.159-1.855 1.854v8.137c.007.431.159 1.854 1.855 1.854h11.71v11.709c.006.431.159 1.855 1.853 1.855h8.134c.439-.007 1.858-.163 1.858-1.855v-11.707h11.708c.431-.007 1.855-.16 1.855-1.855v-8.148c-.005-.329-.128-1.842-1.854-1.842h-11.706v-11.71c-.007-.43-.159-1.854-1.855-1.854h-8.138c-.43.007-1.853.159-1.853 1.854v11.709h-11.712z" fill="#35495e"/><path d="m26.778 317.95c-2.302 0-4.176-1.875-4.176-4.178 0-2.304 1.874-4.178 4.176-4.178 2.304 0 4.177 1.875 4.177 4.178 0 2.305-1.874 4.178-4.177 4.178zm0-6.639c-1.356 0-2.459 1.104-2.459 2.461s1.103 2.461 2.459 2.461c1.357 0 2.46-1.104 2.46-2.461.001-1.357-1.104-2.461-2.46-2.461z" fill="#35495e"/><path d="m26.777 296.21-3.439 5.36h6.88z" fill="#35495e"/><path d="m30.217 302.428h-6.88c-.313 0-.602-.171-.753-.446-.15-.275-.139-.61.031-.875l3.439-5.36c.315-.493 1.129-.492 1.444 0l3.441 5.36c.169.265.182.6.031.875-.15.275-.438.446-.753.446zm-5.308-1.716h3.738l-1.87-2.912z" fill="#35495e"/><path d="m9.149 313.772 5.36 3.438v-6.878z" fill="#35495e"/><path d="m14.509 318.067c-.161 0-.323-.045-.463-.136l-5.36-3.438c-.246-.157-.395-.43-.395-.722 0-.293.149-.564.395-.723l5.36-3.439c.263-.169.6-.183.875-.031.274.15.446.439.446.753v6.878c0 .313-.17.602-.446.753-.13.071-.272.105-.412.105zm-3.771-4.295 2.912 1.867v-3.736z" fill="#35495e"/><path d="m44.342 313.77-5.362-3.438v6.878z" fill="#35495e"/><path d="m38.981 318.067c-.142 0-.283-.034-.411-.104-.276-.151-.447-.439-.447-.753v-6.878c0-.313.17-.602.447-.753.273-.151.609-.141.875.031l5.361 3.438c.246.158.395.431.395.722 0 .292-.149.564-.395.723l-5.363 3.438c-.139.091-.301.136-.462.136zm.859-6.165v3.737l2.914-1.869z" fill="#35495e"/><path d="m26.777 331.333 3.441-5.36h-6.88z" fill="#35495e"/><path d="m26.777 332.191c-.292 0-.564-.149-.722-.395l-3.439-5.36c-.169-.265-.181-.6-.031-.876.151-.275.439-.447.753-.447h6.88c.313 0 .602.171.753.447.151.275.139.611-.031.876l-3.441 5.36c-.158.246-.43.395-.722.395zm-1.868-5.36 1.869 2.912 1.87-2.912z" fill="#35495e"/><path d="m61.865 322.085v-17.512h4.943c1.523 0 2.871.336 4.041 1.01 1.171.674 2.073 1.632 2.706 2.875.642 1.242.966 2.67.975 4.281v1.119c0 1.651-.321 3.099-.962 4.342-.633 1.243-1.543 2.197-2.73 2.862-1.179.666-2.554 1.007-4.125 1.022h-4.848zm2.309-15.611v13.723h2.43c1.78 0 3.163-.553 4.149-1.659.994-1.106 1.491-2.683 1.491-4.728v-1.021c0-1.989-.469-3.532-1.407-4.631-.93-1.106-2.253-1.668-3.969-1.684z" fill="#35495e"/><path d="m76.442 313.738h5.87v1.815h-5.87z" fill="#35495e"/><path d="m87.123 315.229v6.855h-2.31v-17.512h6.459c1.917 0 3.416.488 4.499 1.467 1.09.979 1.636 2.273 1.636 3.885 0 1.7-.533 3.011-1.6 3.934-1.058.914-2.578 1.371-4.558 1.371zm0-1.888h4.149c1.235 0 2.181-.289 2.838-.866.658-.585.986-1.427.986-2.525 0-1.043-.329-1.876-.986-2.502-.657-.625-1.56-.95-2.706-.974h-4.282v6.867z" fill="#35495e"/><path d="m108.388 317.515h-7.337l-1.647 4.57h-2.382l6.688-17.512h2.021l6.7 17.512h-2.37zm-6.639-1.901h5.954l-2.983-8.191z" fill="#35495e"/><path d="m114.787 322.085v-17.512h4.943c1.524 0 2.871.336 4.042 1.01s2.073 1.632 2.706 2.875c.642 1.242.966 2.67.975 4.281v1.119c0 1.651-.321 3.099-.962 4.342-.633 1.243-1.543 2.197-2.73 2.862-1.179.666-2.554 1.007-4.125 1.022h-4.849zm2.309-15.611v13.723h2.43c1.78 0 3.163-.553 4.149-1.659.994-1.106 1.491-2.683 1.491-4.728v-1.021c0-1.989-.469-3.532-1.407-4.631-.93-1.106-2.253-1.668-3.969-1.684z" fill="#35495e"/><path d="m235.602 319.276v14.34h40.702v-14.338c-.437 1.935-2.122 3.376-4.134 3.376h-32.433c-2.012-.001-3.698-1.443-4.135-3.378m7.303-9.302v-7.955h5.426v1.247h-4.114v2.008h3.944v1.247h-3.944v2.206h4.18v1.247zm6.918 0v-7.955h1.312v6.643h3.795v1.313h-5.107m6.272-.001.001-7.955h5.418v1.247h-4.109v2.008h3.945v1.247h-3.945v2.206h4.181v1.247zm9.902.223c-2.255 0-3.336-1.963-3.336-4.2 0-2.243 1.035-4.201 3.491-4.201 2.149 0 3.27 1.446 3.409 3.162l-1.412-.001c-.132-1.205-.91-1.918-2.014-1.918-1.209 0-2.106 1.028-2.106 3.101 0 1.661.898 2.812 2.195 2.812 1.361 0 1.816-1.184 1.925-2.02h1.413c-.183 1.586-.995 3.265-3.565 3.265m10.307-17.282h-40.702v14.481h1.322c.037 1.05.716 1.554 1.794 1.554.797 0 1.54-.301 1.54-1.175 0-1.975-4.601-.256-4.601-3.519 0-1.772 1.233-2.461 2.754-2.461.962 0 2.888.22 3.055 2.528h-1.417c-.044-.616-.484-1.284-1.577-1.284-.872 0-1.45.347-1.45 1.095 0 1.867 4.652.076 4.652 3.474 0 2.053-1.669 2.587-2.999 2.587-1.852 0-2.79-.764-3.072-1.969v9.064c.437-1.934 2.123-3.376 4.135-3.376h32.433c2.012 0 3.697 1.441 4.134 3.375v-14.023h-2.229v6.708h-1.31v-6.709h-2.344v-1.246h5.882zm-40.813 25.368v-25.479h40.923v9.215h.007v1.247h-.007v30.46h-40.923zm145.564-27.905h-143.728c-1.046 0-1.988.423-2.674 1.108-.685.686-1.107 1.629-1.108 2.675v38.955c0 1.046.422 1.988 1.107 2.674.686.685 1.628 1.107 2.674 1.107h143.728c1.046 0 1.989-.423 2.675-1.107.685-.686 1.108-1.628 1.108-2.674v-38.956c0-1.046-.423-1.989-1.108-2.675-.686-.685-1.629-1.107-2.674-1.107" fill="#f4f4f4"/><path d="m237.327 289.909v.468h143.728c1.046 0 1.988.423 2.675 1.108.685.686 1.108 1.629 1.108 2.675v38.955c0 1.046-.423 1.988-1.108 2.674-.686.685-1.629 1.107-2.675 1.107h-143.728c-1.046 0-1.988-.423-2.674-1.107-.685-.686-1.107-1.628-1.107-2.674v-38.955c0-1.046.423-1.989 1.108-2.675.686-.685 1.628-1.107 2.674-1.108v-.468-.469c-2.606 0-4.719 2.113-4.719 4.72v38.955c0 2.606 2.113 4.718 4.719 4.718h143.728c2.607 0 4.719-2.112 4.719-4.718v-38.955c0-2.607-2.113-4.719-4.719-4.72h-143.729z" fill="#35495e"/><path d="m272.17 313.914h-32.433c-2.344 0-4.245 1.957-4.245 4.369 0 2.413 1.901 4.37 4.245 4.37h32.433c2.344 0 4.244-1.956 4.244-4.37 0-2.413-1.9-4.369-4.244-4.369" fill="#35495e"/><path d="m272.766 309.974h1.31v-6.708h2.346v-1.247h-5.999v1.246h2.344v6.709m-3.205-5.016c-.14-1.716-1.26-3.162-3.409-3.162-2.456 0-3.491 1.958-3.491 4.201 0 2.237 1.081 4.2 3.336 4.2 2.57 0 3.382-1.68 3.566-3.266h-1.413c-.109.836-.563 2.02-1.925 2.02-1.297 0-2.195-1.15-2.195-2.812 0-2.072.898-3.101 2.106-3.101 1.103 0 1.882.713 2.014 1.918zm-13.467 5.016h5.491v-1.247h-4.181v-2.206h3.945v-1.247h-3.945v-2.008h4.109v-1.247h-5.418zm-6.272 0h5.107v-1.313h-3.795v-6.643h-1.312zm-6.918 0h5.492v-1.247h-4.18v-2.206h3.944v-1.247h-3.944v-2.008h4.114v-1.247h-5.426zm-7.249-5.717c0 3.263 4.601 1.544 4.601 3.519 0 .874-.743 1.175-1.54 1.175-1.078 0-1.757-.504-1.794-1.554h-1.415c.017 1.673.917 2.799 3.165 2.799 1.331 0 2.999-.534 2.999-2.587 0-3.397-4.652-1.606-4.652-3.474 0-.748.578-1.095 1.45-1.095 1.093 0 1.533.668 1.577 1.284h1.417c-.167-2.309-2.093-2.528-3.055-2.528-1.52 0-2.753.688-2.753 2.461" fill="#35495e"/><path d="m276.414 303.266h-.11v14.023c.072.319.11.652.11.994s-.038.675-.11.995v14.338h-40.702v-14.34c-.072-.319-.11-.652-.11-.993v15.442h40.923v-30.459m-.001-10.462h-40.923v25.479c0-.342.038-.674.11-.993v-9.064c-.06-.258-.091-.535-.094-.83h.094v-14.481h40.702v9.103h.11v-9.214" fill="#f4f4f4"/><path d="m235.602 317.29c-.072.319-.11.651-.11.993 0 .342.038.674.11.993zm40.702-.001v1.989c.072-.319.11-.652.11-.995 0-.342-.038-.675-.11-.994" fill="#35495e"/><path d="m235.602 307.396h-.094c.003.295.033.572.094.83zm40.812-5.378h-.11v1.247h.11z" fill="#35495e"/><path d="m296.901 314.279c-1.98-.569-3.424-1.268-4.329-2.093-.898-.834-1.348-1.86-1.348-3.079 0-1.38.55-2.518 1.647-3.416 1.107-.906 2.542-1.359 4.307-1.359 1.202 0 2.272.232 3.211.698.946.465 1.676 1.106 2.189 1.924.521.818.781 1.712.781 2.683h-2.321c0-1.059-.337-1.889-1.01-2.49-.674-.609-1.624-.914-2.851-.914-1.139 0-2.029.253-2.671.758-.633.497-.949 1.19-.949 2.081 0 .714.3 1.318.901 1.816.609.488 1.64.938 3.091 1.347 1.46.409 2.599.862 3.416 1.359.826.489 1.436 1.063 1.828 1.72.401.657.602 1.432.602 2.321 0 1.419-.553 2.558-1.659 3.416-1.107.85-2.586 1.274-4.438 1.274-1.203 0-2.325-.229-3.368-.686-1.042-.465-1.848-1.099-2.417-1.9-.562-.802-.842-1.712-.842-2.729h2.321c0 1.058.389 1.896 1.166 2.514.786.609 1.832.914 3.14.914 1.219 0 2.152-.249 2.803-.746.649-.497.974-1.175.974-2.032 0-.858-.301-1.52-.902-1.985-.601-.474-1.692-.939-3.272-1.396z" fill="#35495e"/><path d="m316.267 313.99h-7.59v6.206h8.816v1.889h-11.126v-17.512h11.006v1.901h-8.696v5.629h7.59z" fill="#35495e"/><path d="m322.688 320.196h8.3v1.889h-10.621v-17.512h2.321z" fill="#35495e"/><path d="m343.545 313.99h-7.59v6.206h8.816v1.889h-11.125v-17.512h11.005v1.901h-8.696v5.629h7.59z" fill="#35495e"/><path d="m360.527 316.528c-.216 1.853-.901 3.283-2.057 4.294-1.146 1.002-2.674 1.503-4.582 1.503-2.069 0-3.729-.741-4.979-2.225-1.243-1.483-1.864-3.468-1.864-5.954v-1.684c0-1.628.288-3.059.866-4.294.585-1.234 1.411-2.181 2.478-2.839 1.066-.665 2.301-.998 3.704-.998 1.86 0 3.352.521 4.475 1.563 1.122 1.034 1.775 2.47 1.96 4.307h-2.321c-.2-1.396-.637-2.406-1.311-3.031-.666-.626-1.6-.938-2.803-.938-1.476 0-2.634.545-3.476 1.636-.834 1.091-1.251 2.643-1.251 4.655v1.695c0 1.9.396 3.412 1.19 4.534.794 1.123 1.904 1.685 3.332 1.685 1.283 0 2.265-.289 2.946-.866.689-.586 1.146-1.6 1.371-3.043z" fill="#35495e"/><path d="m375.43 306.474h-5.629v15.611h-2.297v-15.611h-5.617v-1.901h13.543z" fill="#35495e"/><path d="m529.783 289.892h-132.289c-2.349 0-4.254 1.904-4.254 4.254v38.984c0 2.349 1.905 4.253 4.254 4.253h132.289c2.35 0 4.254-1.904 4.254-4.253v-38.984c0-2.35-1.904-4.254-4.254-4.254" fill="#f4f4f4"/><path d="m397.494 289.892v.451h132.289c1.052 0 2 .425 2.689 1.114.689.69 1.114 1.638 1.114 2.689v38.984c0 1.051-.425 1.999-1.114 2.688-.69.689-1.638 1.113-2.689 1.114h-132.289c-1.051 0-1.999-.425-2.689-1.114-.689-.69-1.114-1.637-1.114-2.688v-38.984c0-1.052.425-2 1.114-2.689.69-.689 1.638-1.114 2.689-1.114v-.451-.451c-2.598 0-4.704 2.106-4.705 4.705v38.984c0 2.598 2.107 4.703 4.705 4.704h132.289c2.599 0 4.704-2.106 4.705-4.704v-38.984c0-2.599-2.106-4.704-4.705-4.705h-132.289z" fill="#35495e"/><path d="m433.21 309.974h1.621v-6.853h2.891v-1.273h-7.4v1.273h2.89zm-9.825-4.483v-2.37h2.799c.851 0 1.382.329 1.382 1.172 0 .911-.487 1.198-1.382 1.198zm-1.617 4.483h1.617v-3.209h2.755c1.187 0 1.339.819 1.339 1.979 0 .593.077 1.004.196 1.23h1.75c-.316-.445-.327-1.353-.327-1.743 0-1.149-.203-1.991-1.12-2.193v-.023c.725-.238 1.271-.898 1.271-1.959 0-1.262-.635-2.203-2.599-2.203h-4.879zm-10.018 0h1.749l.798-2.014h3.627l.81 2.014h1.808l-3.433-8.126h-1.922zm3.034-3.288 1.338-3.43 1.317 3.43zm-7.59 3.288h1.617v-6.853h2.895v-1.273h-7.405v1.273h2.894v6.853zm-11.054-5.841c0 3.333 5.678 1.578 5.678 3.595 0 .893-.916 1.199-1.898 1.199-1.329 0-2.168-.514-2.214-1.586h-1.747c.023 1.709 1.133 2.861 3.911 2.861 1.641 0 3.698-.548 3.698-2.644 0-3.472-5.742-1.64-5.742-3.55 0-.762.713-1.114 1.792-1.114 1.348 0 1.89.682 1.945 1.31h1.749c-.209-2.36-2.582-2.585-3.771-2.585-1.881 0-3.401.703-3.401 2.514" fill="#35495e"/><path d="m433.382 313.999h-33.118c-2.394 0-4.335 1.998-4.335 4.461 0 2.464 1.941 4.462 4.335 4.462h33.118c2.394 0 4.334-1.997 4.334-4.462s-1.941-4.461-4.334-4.461z" fill="#35495e"/><path d="m457.084 314.279c-1.98-.569-3.424-1.268-4.33-2.093-.897-.834-1.347-1.86-1.347-3.079 0-1.379.549-2.518 1.647-3.416 1.106-.906 2.542-1.359 4.306-1.359 1.203 0 2.273.232 3.212.698.946.465 1.676 1.106 2.188 1.924.521.818.782 1.712.782 2.683h-2.321c0-1.059-.337-1.889-1.011-2.49-.673-.609-1.623-.914-2.851-.914-1.139 0-2.028.253-2.67.758-.634.497-.95 1.19-.95 2.081 0 .714.301 1.319.902 1.816.609.488 1.64.938 3.091 1.347 1.459.409 2.598.862 3.416 1.359.826.489 1.436 1.063 1.828 1.72.401.657.602 1.432.602 2.321 0 1.419-.554 2.558-1.66 3.416-1.106.85-2.586 1.274-4.438 1.274-1.202 0-2.325-.229-3.367-.686-1.042-.465-1.849-1.099-2.418-1.9-.561-.802-.842-1.712-.842-2.729h2.321c0 1.058.39 1.896 1.167 2.514.786.609 1.832.914 3.139.914 1.22 0 2.153-.249 2.803-.746s.975-1.175.975-2.032c0-.858-.301-1.52-.902-1.984-.602-.475-1.692-.94-3.272-1.397z" fill="#35495e"/><path d="m478.649 306.474h-5.629v15.611h-2.296v-15.611h-5.618v-1.901h13.543z" fill="#35495e"/><path d="m489.979 317.515h-7.337l-1.647 4.57h-2.382l6.688-17.512h2.021l6.699 17.512h-2.369zm-6.639-1.901h5.954l-2.982-8.19z" fill="#35495e"/><path d="m502.801 315.001h-4.113v7.084h-2.321v-17.512h5.797c1.973 0 3.488.448 4.547 1.347 1.066.898 1.6 2.205 1.6 3.921 0 1.091-.297 2.041-.89 2.851-.586.81-1.403 1.415-2.454 1.816l4.113 7.433v.145h-2.478zm-4.114-1.889h3.548c1.146 0 2.057-.297 2.73-.89.682-.594 1.022-1.388 1.022-2.382 0-1.082-.325-1.912-.975-2.489-.642-.578-1.571-.87-2.79-.878h-3.536v6.639z" fill="#35495e"/><path d="m522.671 306.474h-5.629v15.611h-2.298v-15.611h-5.617v-1.901h13.544z" fill="#35495e"/><path d="m104.071 1.144h-82.811c-2.358 0-4.269 1.911-4.269 4.269v39.127c0 2.358 1.911 4.269 4.269 4.269h82.81c2.357 0 4.269-1.911 4.269-4.269v-39.126c.001-2.358-1.911-4.27-4.268-4.27" fill="#f4f4f4"/><path d="m21.26 1.144v1.144h82.811c1.725.003 3.121 1.399 3.125 3.125v39.127c-.003 1.725-1.4 3.121-3.125 3.125h-82.811c-1.725-.003-3.121-1.399-3.125-3.125v-39.126c.003-1.725 1.399-3.121 3.125-3.125v-1.145-1.144c-2.99.001-5.413 2.423-5.414 5.414v39.127c.001 2.99 2.423 5.413 5.414 5.414h82.811c2.99-.001 5.413-2.423 5.414-5.414v-39.127c-.001-2.991-2.424-5.413-5.414-5.414h-82.811z" fill="#35495e"/><path d="m78.083 31.537h8.299v1.888h-10.621v-17.512h2.322z" fill="#35495e"/><path d="m95.775 33.425h-2.237v-14.83l-4.486 1.648v-2.021l6.375-2.393h.348z" fill="#35495e"/><path d="m52.091 17.267c3.76 0 6.819 3.395 6.819 7.565 0 4.18-3.059 7.581-6.819 7.581h-23.24c-3.732-.032-6.769-3.435-6.769-7.581 0-4.139 3.036-7.532 6.754-7.565zm0-1.622h-23.254c-4.629.041-8.376 4.13-8.376 9.187 0 5.058 3.748 9.161 8.376 9.203h23.254c4.663 0 8.441-4.122 8.441-9.203s-3.779-9.187-8.441-9.187z" fill="#35495e"/><path d="m37.674 20.842v7.979h5.645v-1.473h-3.89v-6.506z" fill="#35495e"/><path d="m498.727 1.141h-82.811c-2.357 0-4.268 1.912-4.268 4.269v39.127c0 2.358 1.911 4.269 4.268 4.269h82.811c2.359 0 4.27-1.911 4.27-4.269v-39.127c0-2.357-1.911-4.269-4.27-4.269" fill="#f4f4f4"/><path d="m415.917 1.141v.364h82.811c1.08 0 2.054.437 2.762 1.144.707.708 1.144 1.682 1.144 2.761v39.127c0 1.08-.437 2.054-1.144 2.762-.708.707-1.682 1.144-2.762 1.144h-82.811c-1.079 0-2.053-.436-2.761-1.144-.707-.708-1.144-1.682-1.144-2.762v-39.127c0-1.079.437-2.053 1.144-2.761.708-.707 1.682-1.144 2.761-1.144v-.364-.364c-2.559 0-4.632 2.074-4.632 4.633v39.127c0 2.559 2.074 4.633 4.632 4.633h82.811c2.559 0 4.633-2.074 4.633-4.633v-39.127c0-2.558-2.074-4.633-4.633-4.633h-82.811z" fill="#35495e"/><path d="m476.629 26.44h-4.113v7.084h-2.321v-17.512h5.797c1.973 0 3.488.449 4.547 1.347 1.066.898 1.6 2.205 1.6 3.921 0 1.09-.297 2.041-.89 2.851-.586.81-1.403 1.415-2.454 1.816l4.113 7.433v.145h-2.478zm-4.113-1.888h3.548c1.146 0 2.057-.296 2.73-.89.682-.593 1.022-1.387 1.022-2.381 0-1.083-.325-1.912-.975-2.49-.641-.577-1.571-.87-2.79-.878h-3.536v6.639z" fill="#35495e"/><path d="m492.097 33.524h-2.238v-14.83l-4.486 1.648v-2.02l6.375-2.394h.349z" fill="#35495e"/><path d="m433.21 22.187h1.911c.775 0 1.2.335 1.2 1.098 0 .803-.426 1.139-1.2 1.139h-1.911zm-1.74 6.582h1.74v-3.101h1.746c.876 0 1.2.368 1.321 1.201.088.633.065 1.401.277 1.901h1.741c-.311-.445-.3-1.375-.336-1.878-.055-.799-.296-1.634-1.149-1.857 0 0 1.252-.325 1.252-2.012 0-1.201-.9-2.188-2.32-2.188h-4.275z" fill="#35495e"/><path d="m446.404 17.289c3.737 0 6.776 3.374 6.776 7.516 0 4.154-3.039 7.534-6.776 7.534h-23.093c-3.709-.032-6.726-3.413-6.726-7.534 0-4.111 3.017-7.484 6.712-7.516zm0-1.612h-23.106c-4.6.04-8.323 4.104-8.323 9.128 0 5.027 3.724 9.104 8.323 9.146h23.106c4.634 0 8.388-4.096 8.388-9.146 0-5.049-3.755-9.128-8.388-9.128z" fill="#35495e"/><path d="m609.612 135.382h-80.194c-2.358 0-4.269 1.912-4.269 4.27v39.136c0 2.358 1.911 4.27 4.269 4.27h80.194c2.358 0 4.271-1.911 4.271-4.27v-39.136c0-2.358-1.912-4.27-4.271-4.27" fill="#f4f4f4"/><path d="m529.418 135.382v1.128h80.194c1.735.003 3.139 1.408 3.142 3.142v39.136c-.003 1.735-1.407 3.138-3.142 3.141h-80.194c-1.735-.003-3.138-1.406-3.141-3.141v-39.136c.003-1.735 1.407-3.139 3.141-3.142v-1.128-1.128c-2.982.001-5.397 2.417-5.398 5.398v39.136c.001 2.982 2.416 5.397 5.398 5.398h80.194c2.982-.001 5.398-2.416 5.399-5.398v-39.136c-.001-2.982-2.417-5.397-5.399-5.398h-80.194z" fill="#35495e"/><path d="m593.594 163.097h-7.337l-1.647 4.57h-2.382l6.688-17.512h2.021l6.699 17.512h-2.369zm-6.639-1.9h5.953l-2.982-8.191z" fill="#35495e"/><path clip-path="url(#a)" d="m561.813 164.396c-3.167 0-5.736-2.569-5.736-5.738 0-3.167 2.569-5.735 5.736-5.735 3.169 0 5.737 2.568 5.737 5.735 0 3.169-2.569 5.738-5.737 5.738m-12.073-9.412c-3.169 0-5.736-2.569-5.736-5.738 0-3.168 2.567-5.737 5.736-5.737s5.737 2.569 5.737 5.737c.001 3.169-2.568 5.738-5.737 5.738m-2.066 20.529c-3.169 0-5.737-2.569-5.737-5.737s2.568-5.737 5.737-5.737c3.167 0 5.736 2.568 5.736 5.737 0 3.167-2.569 5.737-5.736 5.737m-11.926-9.653c-3.169 0-5.737-2.568-5.737-5.738 0-3.167 2.568-5.735 5.737-5.735s5.737 2.568 5.737 5.735c0 3.17-2.568 5.738-5.737 5.738m13.028-27.186c-11.451 0-20.734 9.283-20.734 20.735 0 11.451 9.283 20.735 20.734 20.735s20.735-9.284 20.735-20.735c.001-11.452-9.283-20.735-20.735-20.735" fill="#35495e"/><path clip-path="url(#a)" d="m551.73 169.775c0 2.239-1.817 4.057-4.057 4.057-2.241 0-4.057-1.817-4.057-4.057 0-2.241 1.815-4.057 4.057-4.057 2.24.001 4.057 1.817 4.057 4.057" fill="#35495e"/><path clip-path="url(#a)" d="m540.021 160.123c0 2.359-1.913 4.274-4.273 4.274-2.359 0-4.272-1.915-4.272-4.274 0-2.36 1.913-4.273 4.272-4.273s4.273 1.913 4.273 4.273" fill="#35495e"/><path clip-path="url(#a)" d="m553.79 149.362c0 2.241-1.817 4.057-4.057 4.057s-4.057-1.816-4.057-4.057 1.816-4.057 4.057-4.057c2.24.001 4.057 1.817 4.057 4.057" fill="#35495e"/><path d="m609.607 199.579h-80.195c-2.357 0-4.27 1.912-4.27 4.271v39.136c0 2.358 1.912 4.27 4.27 4.27h80.195c2.358 0 4.269-1.911 4.269-4.27v-39.136c0-2.359-1.911-4.271-4.269-4.271" fill="#f4f4f4"/><path d="m529.411 199.579v1.128h80.195c1.735.003 3.138 1.407 3.141 3.142v39.136c-.003 1.735-1.406 3.138-3.141 3.141h-80.195c-1.734-.003-3.138-1.407-3.141-3.141v-39.135c.003-1.735 1.408-3.139 3.141-3.142v-1.129-1.128c-2.981.001-5.397 2.417-5.398 5.399v39.136c.001 2.982 2.417 5.397 5.398 5.398h80.195c2.982-.001 5.397-2.416 5.398-5.398v-39.136c-.001-2.982-2.416-5.398-5.398-5.399h-80.195z" fill="#35495e"/><path d="m583.917 231.864v-17.512h5.726c1.9 0 3.327.393 4.281 1.179.963.786 1.443 1.948 1.443 3.488 0 .817-.232 1.543-.697 2.177-.465.625-1.099 1.11-1.9 1.455.946.265 1.692.77 2.237 1.516.553.737.83 1.62.83 2.646 0 1.571-.51 2.806-1.528 3.704s-2.457 1.347-4.317 1.347zm2.31-8.19v6.303h3.813c1.074 0 1.921-.277 2.538-.83.625-.562.938-1.331.938-2.31 0-2.108-1.147-3.163-3.44-3.163zm0-1.853h3.488c1.01 0 1.815-.252 2.417-.758.609-.505.914-1.19.914-2.057 0-.962-.28-1.659-.842-2.093-.562-.44-1.415-.661-2.562-.661h-3.416v5.569z" fill="#35495e"/><path clip-path="url(#b)" d="m561.807 228.594c-3.235 0-5.859-2.624-5.859-5.86 0-3.235 2.624-5.858 5.859-5.858 3.236 0 5.858 2.623 5.858 5.858 0 3.236-2.622 5.86-5.858 5.86m-12.33-9.614c-3.236 0-5.859-2.624-5.859-5.86 0-3.235 2.623-5.859 5.859-5.859s5.859 2.624 5.859 5.859c0 3.236-2.623 5.86-5.859 5.86m-2.112 20.967c-3.236 0-5.859-2.624-5.859-5.859 0-3.236 2.623-5.859 5.859-5.859 3.235 0 5.859 2.623 5.859 5.859.001 3.235-2.623 5.859-5.859 5.859m-12.179-9.858c-3.236 0-5.859-2.623-5.859-5.86 0-3.235 2.623-5.858 5.859-5.858s5.859 2.623 5.859 5.858c0 3.237-2.623 5.86-5.859 5.86m13.306-27.766c-11.696 0-21.178 9.48-21.178 21.177 0 11.695 9.481 21.177 21.178 21.177 11.695 0 21.177-9.481 21.177-21.177s-9.481-21.177-21.177-21.177" fill="#35495e"/><path clip-path="url(#b)" d="m565.99 222.733c0 2.312-1.873 4.185-4.184 4.185-2.312 0-4.185-1.873-4.185-4.185 0-2.311 1.873-4.183 4.185-4.183 2.311.001 4.184 1.873 4.184 4.183" fill="#35495e"/><path clip-path="url(#b)" d="m539.549 224.228c0 2.41-1.954 4.365-4.363 4.365-2.41 0-4.364-1.955-4.364-4.365 0-2.409 1.954-4.363 4.364-4.363 2.409 0 4.363 1.954 4.363 4.363" fill="#35495e"/><path clip-path="url(#b)" d="m553.612 213.239c0 2.288-1.855 4.143-4.143 4.143-2.289 0-4.144-1.854-4.144-4.143s1.854-4.144 4.144-4.144c2.288.001 4.143 1.855 4.143 4.144" fill="#35495e"/><path d="m387.834 97.672h-80.194c-2.358 0-4.271 1.912-4.271 4.27v39.136c0 2.358 1.912 4.27 4.271 4.27h80.194c2.358 0 4.269-1.912 4.269-4.27v-39.136c0-2.359-1.911-4.27-4.269-4.27" fill="#f4f4f4"/><path d="m307.64 97.672v.359h80.194c1.081 0 2.057.437 2.766 1.146.708.709 1.145 1.685 1.145 2.766v39.136c0 1.081-.437 2.057-1.145 2.766-.709.708-1.684 1.145-2.766 1.146h-80.194c-1.081 0-2.057-.437-2.766-1.146-.708-.709-1.146-1.685-1.146-2.766v-39.136c0-1.081.437-2.057 1.146-2.766.709-.708 1.685-1.145 2.766-1.146v-.359-.359c-2.557 0-4.629 2.072-4.629 4.629v39.136c0 2.557 2.073 4.628 4.629 4.629h80.194c2.557 0 4.628-2.072 4.628-4.629v-39.136c0-2.556-2.072-4.628-4.628-4.629h-80.194z" fill="#35495e"/><path d="m367.858 119.156 4.198-6.711h2.718l-5.533 8.684 5.665 8.828h-2.742l-4.306-6.832-4.33 6.832h-2.73l5.677-8.828-5.544-8.684h2.706z" fill="#35495e"/><path clip-path="url(#c)" d="m340.477 127.032c-3.283 0-5.947-2.664-5.947-5.949 0-3.284 2.664-5.946 5.947-5.946 3.285 0 5.948 2.662 5.948 5.946 0 3.285-2.663 5.949-5.948 5.949m-12.515-9.758c-3.285 0-5.947-2.664-5.947-5.949 0-3.284 2.662-5.947 5.947-5.947s5.947 2.664 5.947 5.947c0 3.285-2.662 5.949-5.947 5.949m-2.143 21.282c-3.285 0-5.948-2.664-5.948-5.947 0-3.285 2.663-5.948 5.948-5.948 3.283 0 5.947 2.663 5.947 5.948.001 3.283-2.663 5.947-5.947 5.947m-12.363-10.007c-3.285 0-5.947-2.663-5.947-5.949 0-3.284 2.662-5.946 5.947-5.946s5.947 2.663 5.947 5.946c0 3.287-2.662 5.949-5.947 5.949m13.506-28.183c-11.871 0-21.495 9.623-21.495 21.495s9.624 21.496 21.495 21.496c11.872 0 21.496-9.624 21.496-21.496s-9.624-21.495-21.496-21.495" fill="#35495e"/><path clip-path="url(#c)" d="m344.724 121.083c0 2.346-1.901 4.247-4.246 4.247-2.347 0-4.247-1.901-4.247-4.247 0-2.345 1.9-4.246 4.247-4.246 2.344 0 4.246 1.901 4.246 4.246" fill="#35495e"/><path clip-path="url(#c)" d="m330.024 132.608c0 2.322-1.884 4.206-4.206 4.206s-4.205-1.884-4.205-4.206c0-2.323 1.883-4.206 4.205-4.206s4.206 1.883 4.206 4.206" fill="#35495e"/><path clip-path="url(#c)" d="m317.885 122.601c0 2.446-1.983 4.431-4.43 4.431-2.445 0-4.43-1.985-4.43-4.431s1.984-4.43 4.43-4.43 4.43 1.984 4.43 4.43" fill="#35495e"/><path d="m389.181 164.114h-80.194c-2.358 0-4.271 1.912-4.271 4.27v39.136c0 2.358 1.912 4.271 4.271 4.271h80.194c2.358 0 4.27-1.912 4.27-4.271v-39.136c0-2.359-1.912-4.27-4.27-4.27" fill="#f4f4f4"/><path d="m308.986 164.114v.361h80.194c1.081 0 2.055.437 2.764 1.145.708.708 1.145 1.683 1.145 2.764v39.136c0 1.081-.437 2.055-1.145 2.764-.709.708-1.684 1.145-2.764 1.145h-80.194c-1.081 0-2.056-.437-2.764-1.145-.708-.709-1.145-1.684-1.145-2.764v-39.136c0-1.081.437-2.055 1.145-2.764.709-.708 1.684-1.145 2.764-1.145v-.361-.362c-2.558 0-4.632 2.073-4.632 4.632v39.136c0 2.558 2.074 4.632 4.632 4.632h80.194c2.558 0 4.632-2.074 4.632-4.632v-39.136c0-2.558-2.074-4.631-4.632-4.632h-80.194z" fill="#35495e"/><path d="m368.832 187.679 4.57-8.792h2.622l-6.037 10.981v6.531h-2.309v-6.531l-6.038-10.981h2.646z" fill="#35495e"/><path clip-path="url(#d)" d="m341.628 193.321c-3.3 0-5.977-2.677-5.977-5.979 0-3.3 2.677-5.976 5.977-5.976 3.302 0 5.977 2.676 5.977 5.976-.001 3.303-2.675 5.979-5.977 5.979m-12.577-9.806c-3.301 0-5.977-2.677-5.977-5.978 0-3.3 2.676-5.977 5.977-5.977 3.302 0 5.978 2.677 5.978 5.977-.001 3.301-2.676 5.978-5.978 5.978m-2.154 21.386c-3.301 0-5.977-2.676-5.977-5.977s2.676-5.977 5.977-5.977 5.977 2.676 5.977 5.977-2.676 5.977-5.977 5.977m-12.423-10.055c-3.302 0-5.977-2.675-5.977-5.978 0-3.3 2.675-5.976 5.977-5.976s5.977 2.676 5.977 5.976c-.001 3.303-2.676 5.978-5.977 5.978m13.573-28.323c-11.93 0-21.602 9.671-21.602 21.602s9.672 21.603 21.602 21.603 21.602-9.672 21.602-21.603-9.672-21.602-21.602-21.602" fill="#35495e"/><path clip-path="url(#d)" d="m345.895 187.344c0 2.357-1.91 4.268-4.267 4.268-2.358 0-4.269-1.91-4.269-4.268s1.91-4.268 4.269-4.268c2.357 0 4.267 1.91 4.267 4.268" fill="#35495e"/><path clip-path="url(#d)" d="m331.124 198.925c0 2.333-1.894 4.227-4.227 4.227-2.334 0-4.226-1.894-4.226-4.227 0-2.334 1.892-4.227 4.226-4.227 2.333 0 4.227 1.893 4.227 4.227" fill="#35495e"/><path clip-path="url(#d)" d="m333.27 177.658c0 2.335-1.893 4.227-4.226 4.227-2.335 0-4.227-1.892-4.227-4.227 0-2.334 1.892-4.227 4.227-4.227 2.333.001 4.226 1.893 4.226 4.227" fill="#35495e"/><ellipse cx="458.847" cy="124.652" fill="#9b9a9a" rx="2.772" ry="2.713" stroke="#9b9a9a" stroke-width="1.1301"/><ellipse cx="491.17" cy="157.649" fill="#9b9a9a" rx="2.772" ry="2.713" stroke="#9b9a9a" stroke-width="1.1301"/><ellipse cx="458.623" cy="189.972" fill="#9b9a9a" rx="2.772" ry="2.713" stroke="#9b9a9a" stroke-width="1.1301"/><ellipse cx="426.3" cy="156.975" fill="#9b9a9a" rx="2.772" ry="2.713" stroke="#9b9a9a" stroke-width="1.1301"/><ellipse cx="459.97" cy="55.068" fill="#9b9a9a" rx="2.772" ry="2.713" stroke="#9b9a9a" stroke-width="1.1301"/><ellipse cx="414.058" cy="269.512" fill="#9b9a9a" rx="2.772" ry="2.713" stroke="#9b9a9a" stroke-width="1.1301"/><ellipse cx="379.184" cy="269.512" fill="#9b9a9a" rx="2.772" ry="2.713" stroke="#9b9a9a" stroke-width="1.1301"/><ellipse cx="62.89" cy="157.873" fill="#9b9a9a" rx="2.772" ry="2.713" stroke="#9b9a9a" stroke-width="1.1301"/><ellipse cx="56.605" cy="55.068" fill="#9b9a9a" rx="2.772" ry="2.713" stroke="#9b9a9a" stroke-width="1.1301"/><path d="m458.684 124.389-66.452.077" fill="#9b9a9a" stroke="#9b9a9a" stroke-width="1.1209"/><path d="m524.847 157.102-34.242.167" fill="#9b9a9a" stroke="#9b9a9a" stroke-width="1.1898"/><path d="m524.845 221.92-66.452.077" fill="#9b9a9a" stroke="#9b9a9a" stroke-width="1.1209"/><path d="m458.689 188.437.077 33.929" fill="#9b9a9a" stroke="#9b9a9a" stroke-width=".8017"/><path d="m426.261 155.458.077 38.389" fill="#9b9a9a" stroke="#9b9a9a" stroke-width=".8549"/><path d="m426.481 193.525-32.679.076" fill="#9b9a9a" stroke="#9b9a9a" stroke-width=".785"/><path d="m414.019 269.512.078 20.075" fill="#9b9a9a" stroke="#9b9a9a" stroke-width=".62"/><path d="m379.016 269.512.078 19.904" fill="#9b9a9a" stroke="#9b9a9a" stroke-width=".6174"/><path d="m62.852 157.942.076 131.387" fill="#9b9a9a" stroke="#9b9a9a" stroke-width="1.5736"/><path d="m56.825 49.083.057 5.932" fill="#9b9a9a" stroke="#9b9a9a" stroke-width=".8564"/><path d="m460.221 49.072.057 5.932" fill="#9b9a9a" stroke="#9b9a9a" stroke-width=".8564"/></svg>