<svg enable-background="new 0 0 225.873 225.853" viewBox="0 0 225.873 225.853" xmlns="http://www.w3.org/2000/svg"><path d="m225.873 189.759c.003 3.426-.732 6.673-1.97 9.814-1.662 4.2-4.999 6.314-9.202 7.62-7.049 2.191-14.002 4.688-21.01 7.008-4.938 1.635-9.943 3.032-14.972 4.364-5.567 1.476-11.196 2.661-16.857 3.65-3.311.579-6.664 1-10.002 1.456-4.414.6-8.846 1.065-13.272 1.376-4.979.35-9.964.794-14.969.768-9.505-.053-19.016.247-28.518-.276-6.255-.347-12.511-.759-18.722-1.526-5.423-.673-10.828-1.488-16.204-2.529-4.641-.897-9.252-1.906-13.819-3.082-5.367-1.376-10.678-2.979-15.931-4.753-6.952-2.344-13.878-4.77-20.863-7.023-4.617-1.488-6.982-4.852-8.376-9.205-1.059-3.303-1.2-6.688-1.185-10.123.047-12.94.018-25.88.018-38.82h.015c0-13.281.003-26.565 0-39.849-.003-3.87.568-7.682 1.029-11.514.521-4.314 1.412-8.54 2.45-12.734 1.047-4.235 2.42-8.393 4.029-12.455 3.044-7.693 6.805-15.019 11.44-21.88 5.361-7.934 11.552-15.14 18.728-21.507 6.629-5.882 13.805-10.964 21.61-15.154 5.835-3.135 11.893-5.735 18.189-7.84 4.558-1.523 9.193-2.744 13.881-3.661 3.217-.632 6.52-.979 9.793-1.397 6.267-.797 12.519-.362 18.778-.415 2.961-.024 5.902.579 8.849.95 2.753.35 5.485.803 8.179 1.373 3.497.744 6.964 1.688 10.37 2.782 5.197 1.668 10.255 3.703 15.163 6.111 12.749 6.258 23.968 14.587 33.573 25.033 8.74 9.511 15.681 20.207 20.771 32.106 2.503 5.855 4.55 11.858 6.008 18.034 1.173 4.964 1.944 10.011 2.511 15.104.488 4.364.453 8.705.459 13.055.032 25.047 0 50.095.029 75.139z" fill="#f9f8f7"/><circle cx="112.937" cy="112.926" fill="#d1dbe0" r="99.402"/><path d="m112.937 9.995c-56.847 0-102.931 46.084-102.931 102.931s46.084 102.931 102.931 102.931 102.931-46.084 102.931-102.931-46.084-102.931-102.931-102.931zm0 202.333c-54.898 0-99.402-44.505-99.402-99.402 0-54.898 44.504-99.402 99.402-99.402s99.402 44.504 99.402 99.402-44.505 99.402-99.402 99.402z" fill="#95a8b9"/><circle cx="112.937" cy="112.926" fill="#fff" r="43.231"/><path d="m112.937 13.524-22.057 11.567h44.21zm0 2.353 12.843 7.155h-26.175z" fill="#f9f8f7"/><g fill="#29426a"><path d="m216.554 196.928c-.017.586-.208 1.106-.601 1.545-.265.296-.581.523-.964.641-.352.108-.714.125-1.08.085-.238-.025-.471-.068-.692-.162-.224-.096-.4-.258-.558-.436-.262-.294-.461-.636-.685-.958-.315-.453-.607-.923-.898-1.392-.033-.053-.048-.056-.092-.008-.519.56-1.162.793-1.921.73-.331-.027-.651-.096-.944-.249-.478-.25-.854-.607-1.076-1.108-.031-.071-.073-.093-.148-.092-.626.003-1.253.002-1.879-.001-.078 0-.119.024-.155.094-.373.724-.979 1.149-1.763 1.311-.824.17-1.527-.091-2.118-.675-.03-.03-.062-.059-.087-.093-.032-.044-.053-.035-.079.006-.132.206-.264.412-.4.616-.299.448-.56.92-.865 1.364-.254.37-.585.649-.99.837-.21.098-.437.134-.666.153-.231.019-.461.024-.691-.018-.383-.071-.716-.246-1.012-.493-.423-.352-.705-.793-.812-1.337-.061-.31-.05-.622-.001-.931.059-.377.094-.757.131-1.136.039-.406.086-.812.129-1.218.033-.319.067-.638.097-.957.067-.722.166-1.439.29-2.154.1-.579.334-1.096.685-1.563.219-.293.493-.527.79-.735.041-.028.06-.061.068-.108.068-.364.134-.729.209-1.091.048-.232.173-.417.387-.532.03-.016.049-.034.052-.071.017-.176.124-.282.283-.333.39-.125.79-.179 1.201-.153.274.018.544.055.809.127.052.014.103.032.153.051.105.04.182.105.196.226.008.074.048.118.12.145.264.097.374.318.43.57.061.276.109.555.159.833.017.095.017.099.114.099h3.374c.056 0 .11.002.163.031.041.023.091.022.138.022.415.001.833.03 1.245-.006.606-.054 1.21-.018 1.815-.028.606-.01 1.212-.003 1.818-.003.111 0 .108-.001.13-.111.051-.264.101-.529.159-.792.063-.282.218-.495.493-.605.034-.014.048-.037.054-.07.034-.19.157-.284.337-.33.347-.089.697-.151 1.057-.139.35.012.694.062 1.023.184.135.05.24.144.246.306.001.031.015.049.041.063.257.136.395.35.442.637.055.336.128.67.192 1.005.01.05.035.082.076.112.675.487 1.136 1.121 1.365 1.928.116.409.171.825.227 1.243.058.432.097.865.123 1.299.026.437.078.871.128 1.305.043.379.069.759.1 1.139.025.311.059.621.098.93.021.148.03.299.03.451z"/><path d="m39.094 192.299c0-.693 0-1.321 0-2.015-3.547 0-7.086 0-10.645 0 0-.223 0-.381 0-.575h11.451v3.382c-3.475 0-6.947 0-10.453 0v2.794c-.35 0-.665 0-1.001 0 0-1.19 0-2.355 0-3.586z"/><path d="m4.253 190.308c0-.259 0-.417 0-.605h11.26c.023.521.007 1.08.01 1.638.003.566.001 1.131.001 1.728-3.484 0-6.931 0-10.432 0-.103.476-.039.939-.05 1.394-.012.465-.003.93-.003 1.428-.26 0-.485 0-.758 0 0-1.159 0-2.348 0-3.568h10.588c0-.679 0-1.331 0-2.015-3.505 0-7.02 0-10.616 0z"/><path d="m15.34 195.89c0-.258 0-.483 0-.74h5.425c.003-1.823 0-3.617.002-5.443h6.433v.539c-1.853 0-3.689 0-5.499 0-.052.054-.079.076-.096.103-.016.026-.03.058-.031.087-.001 1.807-.001 3.613-.001 5.454-2.07 0-4.107 0-6.233 0z"/><path d="m98.298 111.879c0 5.552-3.166 8.327-9.497 8.327-6.064 0-9.097-2.67-9.097-8.01v-12.091h2.928v11.94c0 4.053 2.161 6.08 6.483 6.08 4.171 0 6.256-1.958 6.256-5.873v-12.146h2.928v11.773z"/><path d="m123.872 119.876h-2.555v-13.263c0-1.048.071-2.33.214-3.847h-.061c-.245.892-.464 1.53-.658 1.916l-7.497 15.193h-1.255l-7.481-15.083c-.214-.441-.434-1.117-.658-2.027h-.061c.082.791.122 2.082.122 3.874v13.236h-2.478v-19.771h3.396l6.732 13.787c.52 1.057.857 1.848 1.01 2.371h.092c.438-1.084.79-1.893 1.056-2.427l6.869-13.732h3.213z"/><path d="m128.384 119.876v-19.771h6.058c7.731 0 11.597 3.212 11.597 9.637 0 3.052-1.073 5.503-3.22 7.355s-5.021 2.778-8.621 2.778h-5.814zm2.57-17.675v15.579h3.274c2.876 0 5.115-.694 6.716-2.082s2.402-3.355 2.402-5.901c0-5.064-2.989-7.597-8.965-7.597h-3.427z"/><path d="m81.87 126.988c0 1.268-.591 1.902-1.773 1.902-1.146 0-1.72-.619-1.72-1.858v-2.438h.954v2.45c0 .683.267 1.025.801 1.025.524 0 .786-.33.786-.989v-2.485h.951v2.393z"/><path d="m86.588 128.816h-.96l-1.74-2.653c-.102-.155-.173-.272-.212-.35h-.012c.016.149.023.377.023.683v2.32h-.898v-4.222h1.025l1.675 2.571c.077.116.147.231.212.345h.012c-.016-.098-.024-.291-.024-.58v-2.335h.898v4.221z"/><path d="m88.858 124.594v.736h-.353v2.75h.353v.736h-1.658v-.736h.353v-2.75h-.353v-.736z"/><path d="m92.98 124.594-1.455 4.222h-1.078l-1.437-4.222h1.025l.88 2.939c.047.159.076.299.085.421h.018c.014-.132.044-.276.091-.433l.874-2.927z"/><path d="m96.019 128.816h-2.532v-4.222h2.435v.774h-1.484v.939h1.381v.771h-1.381v.966h1.581z"/><path d="m100.238 128.816h-1.092l-.657-1.087c-.049-.082-.096-.156-.141-.221s-.091-.12-.137-.166-.094-.081-.144-.106-.105-.037-.163-.037h-.256v1.617h-.951v-4.222h1.508c1.025 0 1.537.383 1.537 1.148 0 .147-.023.283-.068.408s-.109.237-.191.337-.182.187-.299.259-.247.13-.39.171v.012c.063.02.124.052.183.096s.116.096.171.155.108.122.158.19.096.134.137.199zm-2.591-3.509v1.175h.412c.204 0 .368-.059.492-.177.126-.12.188-.268.188-.445 0-.369-.221-.554-.663-.554h-.429z"/><path d="m100.439 128.655v-.942c.171.143.356.251.557.322.2.072.402.107.607.107.12 0 .224-.011.314-.032s.164-.052.224-.09.104-.083.134-.135c.029-.052.044-.109.044-.169 0-.082-.023-.156-.071-.221-.047-.065-.111-.125-.193-.18-.081-.055-.178-.108-.29-.159s-.233-.103-.362-.156c-.33-.137-.576-.305-.738-.504s-.243-.438-.243-.718c0-.22.044-.409.133-.567.088-.158.209-.288.361-.39s.328-.177.529-.225c.2-.048.412-.072.636-.072.22 0 .415.013.584.04.17.027.326.067.47.122v.88c-.071-.049-.148-.092-.231-.13-.083-.037-.169-.068-.258-.093-.088-.025-.176-.043-.264-.055-.087-.012-.17-.018-.249-.018-.108 0-.206.01-.294.031s-.163.05-.224.087-.108.082-.141.134-.05.11-.05.175c0 .071.019.134.056.19s.09.109.159.159.152.099.25.147.209.098.333.149c.169.071.32.146.455.225.134.079.25.169.346.269s.17.214.221.343.077.278.077.449c0 .236-.045.433-.134.593s-.211.29-.364.389-.331.17-.534.213-.418.065-.643.065c-.232 0-.452-.02-.661-.059-.212-.037-.393-.096-.546-.174z"/><path d="m107.726 128.816h-1.037l-.3-.939h-1.502l-.297.939h-1.031l1.537-4.222h1.128zm-1.554-1.669-.453-1.419c-.033-.106-.057-.233-.071-.38h-.024c-.01.124-.034.246-.074.368l-.459 1.431z"/><path d="m110.768 128.816h-2.515v-4.222h.951v3.451h1.564z"/><path d="m117.812 128.816h-.939v-2.526c0-.273.012-.574.035-.904h-.024c-.049.259-.093.446-.133.559l-.989 2.871h-.777l-1.007-2.841c-.027-.077-.072-.273-.133-.589h-.026c.025.416.038.781.038 1.095v2.335h-.857v-4.222h1.393l.863 2.503c.069.2.119.401.15.604h.018c.053-.234.109-.437.168-.61l.863-2.497h1.357z"/><path d="m121.304 128.816h-2.532v-4.222h2.435v.774h-1.484v.939h1.381v.771h-1.381v.966h1.581z"/><path d="m121.981 128.816v-4.222h1.496c1.5 0 2.25.686 2.25 2.058 0 .658-.205 1.183-.614 1.575-.409.393-.954.589-1.636.589zm.951-3.448v2.677h.471c.412 0 .736-.124.97-.371.235-.247.352-.584.352-1.01 0-.402-.116-.719-.349-.95s-.559-.346-.979-.346z"/><path d="m127.732 124.594v.736h-.353v2.75h.353v.736h-1.658v-.736h.353v-2.75h-.353v-.736z"/><path d="m132.051 128.816h-1.037l-.3-.939h-1.502l-.297.939h-1.031l1.537-4.222h1.128zm-1.554-1.669-.453-1.419c-.033-.106-.057-.233-.071-.38h-.024c-.01.124-.034.246-.074.368l-.459 1.431z"/><path d="m134.242 128.816v-4.222h1.496c1.5 0 2.25.686 2.25 2.058 0 .658-.205 1.183-.614 1.575-.409.393-.955.589-1.636.589zm.951-3.448v2.677h.471c.412 0 .736-.124.97-.371.235-.247.352-.584.352-1.01 0-.402-.116-.719-.349-.95s-.559-.346-.979-.346z"/><path d="m139.993 124.594v.736h-.353v2.75h.353v.736h-1.658v-.736h.353v-2.75h-.353v-.736z"/><path d="m140.405 128.655v-.942c.171.143.356.251.557.322.2.072.402.107.607.107.12 0 .224-.011.314-.032.089-.022.164-.052.224-.09s.105-.083.134-.135.044-.109.044-.169c0-.082-.024-.156-.071-.221s-.111-.125-.193-.18c-.081-.055-.178-.108-.29-.159s-.233-.103-.362-.156c-.33-.137-.576-.305-.738-.504s-.243-.438-.243-.718c0-.22.044-.409.133-.567.088-.158.209-.288.361-.39s.328-.177.529-.225c.2-.048.412-.072.636-.072.22 0 .415.013.584.04.17.027.326.067.47.122v.88c-.071-.049-.148-.092-.231-.13-.083-.037-.169-.068-.258-.093-.088-.025-.176-.043-.264-.055-.087-.012-.17-.018-.249-.018-.108 0-.206.01-.294.031s-.163.05-.224.087-.108.082-.141.134-.05.11-.05.175c0 .071.019.134.056.19s.09.109.159.159.152.099.25.147.209.098.333.149c.169.071.32.146.455.225.134.079.25.169.346.269s.17.214.221.343.077.278.077.449c0 .236-.045.433-.134.593s-.211.29-.364.389-.331.17-.534.213-.418.065-.643.065c-.232 0-.452-.02-.661-.059-.212-.037-.393-.096-.546-.174z"/><path d="m147.007 128.666c-.308.149-.711.224-1.207.224-.648 0-1.157-.19-1.528-.571s-.557-.888-.557-1.522c0-.675.209-1.223.626-1.643s.958-.63 1.624-.63c.412 0 .76.052 1.042.156v.916c-.283-.169-.605-.253-.966-.253-.396 0-.717.125-.96.374s-.365.587-.365 1.013c0 .408.115.734.345.976s.539.364.928.364c.371 0 .711-.09 1.019-.271v.867z"/></g></svg>