<svg viewBox="-290 382 30 30" xmlns="http://www.w3.org/2000/svg"><path d="m-273 404.9 4.1-4.1-14.7-14.7-6.3-2.2 2.2 6.3" fill="#ceccc0"/><path d="m-269.3 402.1 5.7 5.7-2.4 2.4-5.7-5.7z" fill="#2b3347"/><path d="m-271 402.8 2-2-14.7-14.7-6.3-2.2z" fill="#d8d6ce"/><path d="m-274.9 406.1 7.1-7.1 1.1 1.1-7.1 7.1z" fill="#f4b056"/><path d="m-263.6 383.8-2.2 6.3-14.7 14.7-4.1-4.1 14.7-14.7z" fill="#a08d8d"/><path d="m-263.6 383.8-2.2 6.3-14.7 14.7-4.1-4.1 14.7-14.7z" fill="#e8e7e6"/><path d="m-290 407.7 5.7-5.7 2.4 2.4-5.7 5.7z" fill="#353d4f"/><path d="m-282.6 402.8-2-2 14.7-14.7 6.3-2.2z" fill="#d6d5d4"/><path d="m-285.9 398.9 7.1 7.1-1.1 1.1-7.1-7.1z" fill="#ffd67b"/></svg>