<svg enable-background="new 0 0 30 30" viewBox="0 0 30 30" xmlns="http://www.w3.org/2000/svg"><g fill="#595959"><path d="m.005 30 13.325-.014c5.452 0 9.87-4.405 9.87-9.832 0-5.438-4.418-9.843-9.87-9.843l-3.46.02c-.273 0-.494-.224-.494-.499s.221-.499.494-.499l13.301.003.005-4.173h-13.309c-2.573 0-4.667 2.09-4.667 4.658 0 2.571 2.093 4.653 4.667 4.653l3.477.046c3.124 0 5.651 2.519 5.651 5.627 0 3.11-2.527 5.635-5.651 5.635h-13.333z"/><path d="m.011 24.802h13.333c2.581 0 4.669-2.082 4.669-4.656 0-2.571-2.088-4.65-4.669-4.65l-3.477-.038c-3.118 0-5.648-2.522-5.648-5.638 0-3.107 2.53-5.629 5.648-5.629l13.309-.003-.005-4.188h-13.301c-5.446 0-9.87 4.4-9.87 9.832s4.424 9.835 9.87 9.835l3.442.005c.262 0 .483.213.483.483 0 .265-.221.478-.483.478l-13.307.01z"/></g></svg>