<svg enable-background="new 0 0 527.634 359.794" viewBox="0 0 527.634 359.794" xmlns="http://www.w3.org/2000/svg" xmlns:xlink="http://www.w3.org/1999/xlink"><linearGradient id="a" gradientUnits="userSpaceOnUse" x1="3.0221" x2="524.6119" y1="270.7813" y2="270.7813"><stop offset="0" stop-color="#236ebc"/><stop offset="1" stop-color="#fff"/></linearGradient><linearGradient id="b" gradientUnits="userSpaceOnUse" x1="175.8168" x2="175.8168" y1="297.0884" y2="162.8758"><stop offset="0" stop-color="#eb2f48"/><stop offset="1" stop-color="#f3b327"/></linearGradient><linearGradient id="c" gradientUnits="userSpaceOnUse" x1="298.9891" x2="298.9891" y1="322.0155" y2="125.4525"><stop offset="0" stop-color="#ea194e"/><stop offset="1" stop-color="#f7ed18"/></linearGradient><path d="m20.741 356.193c-2.171 0-5.851-.966-7.085-3.628-4.32-9.314-12.816-43.366-13.652-75.245-.052-.926.519-26.652 2.395-30.751 3.185-6.957 6.491-8.821 9.604-10.134 81.489-34.362 169.272-51.066 268.368-51.066 31.609 0 64.048 1.64 99.169 5.011 44.417 4.265 75.192 10.54 106.225 21.662 43.579 15.618 42.236 22.885 41.73 25.62-1.13 6.105-11.625 7.472-28.192 7.697l-.508.007c-43.579.611-118.698 5.94-186.98 18.947-97.085 18.492-149.141 32.331-206.295 54.844-26.044 10.259-69.73 29.022-81.712 36.275-.836.506-1.867.761-3.067.761z"/><path d="m3.032 277.241c-.107-1.942.687-26.285 2.124-29.423 2.892-6.315 5.672-7.619 8.043-8.619 119.352-50.328 241.083-57.833 366.083-45.833 41.073 3.943 72.554 9.692 105.5 21.5 10.106 3.622 41.065 15.362 39.792 22.25-.932 5.037-19.285 5.158-25.792 5.25-50.71.712-124.5 7-187.5 19-102.124 19.452-152.25 33.5-206.834 55-24.891 9.805-69.5 28.833-82.167 36.5-1.41.854-5.181-.066-5.875-1.563-3.999-8.624-12.536-42.114-13.374-74.062z" fill="url(#a)"/><text fill="#f00" font-family="ArialMT" font-size="2" transform="translate(314.2599 321.6999)">I don’t like bugs!</text><path d="m489.784 185.594v1.688h6v12.5h2.375v-12.5h6v-1.688zm16.531 0v14.188h2.313v-8.375c0-.415-.031-2.228-.031-3.531h.031l5 11.906h2.375l4.969-11.906h.063c0 1.323-.063 3.116-.063 3.531v8.375h2.313v-14.188h-3.406l-5.031 12h-.031l-5.063-12z"/><path d="m216.758.724c-22.451 2.664-26.4 15.387-27.129 24.591-11.151-6.254-23.084-6.853-35.58-1.706-9.095 3.745-14.674 11.818-14.772 21.002-14.07 10.517-22.197 21.82-28.454 39.627-2.071 5.896-3.069 12.137-3.069 18.359 0 14.411 5.351 28.722 15.094 38.413l5.499 5.469 5.76-22.608-.815-1.518c-.987-1.838-1.719-3.45-2.29-4.891l4.296 3.306 10.871-20.784-.656-1.828c-.49-1.366-.817-2.598-1.082-3.763.6.43 4.704 3.359 4.704 3.359l2.635-2.278c.911-.788 1.816-1.479 2.708-2.101-3.157 6.837-6.171 16.176-6.171 27.001 0 1.29.043 2.602.133 3.932 1.435 21.106 13.898 34.491 25.467 36.805l5.116 1.023.679-20.045-1.175-1.322c-1.071-1.204-1.857-2.632-2.452-4.086 1.664.92 3.854 2.13 3.854 2.13l1.957-13.816-1.406-1.54c-.987-1.081-1.737-2.778-2.296-4.654l3.794 2.227 9.887-15.887-.356-1.731c-.203-.986-.29-1.916-.409-2.863l2.218 2.154 2.736-1.215c.279-.124.681-.28 1.003-.416-.289.734-.629 1.454-.85 2.205-.556 1.885-.828 3.835-.828 5.79 0 3.815 1.041 7.645 3.063 11.034 3.182 5.331 8.405 9.004 14.71 10.341 10.384 2.203 18.645-2.682 22.664-13.402.607-1.619 1.003-3.357 1.27-5.15 16.632 23.629 36.427 57.984 41.847 82.372 3.583 16.128 4.629 40.814 4.629 64.159 0 25.815-1.277 49.933-1.824 59.071-58.939 2.373-112.195 13.702-158.269 33.82l-19.433 8.485h308.437l-9.997-7.902c-17.468-13.804-46.58-30.562-73.014-34.147-1.411-18.215-8.362-98.197-24.359-140.191-4.708-12.355-10.856-26.479-19.947-41.331l5.221-7.179c5.566-7.653 7.532-15.932 7.532-25.092 0-7.522-1.336-15.662-3.083-24.518 1.83 1.202 3.629 2.421 4.979 3.42l3.387 2.503s3.128-3.816 3.234-3.946c.006.156.042.311.042.466 0 .564-.04 1.123-.13 1.663l-.314 1.89 17.04 22.342 2.479-8.356c1.801-6.069 2.696-11.872 2.696-17.329 0-9.245-2.571-17.497-7.667-24.367-8.608-11.6-19.694-17.288-31.484-22.995-4.36-14.527-16.887-22.825-34.391-22.643-.961-2.342-2.478-4.491-4.596-6.222-6.453-5.269-17.67-6.997-33.343-5.137zm40.695 91.332s.867-1.058 1.211-1.476c.007.216.044.43.044.645 0 .808-.057 1.604-.186 2.361l-.379 2.197 8.933 9.359s4.545-3.488 5.287-4.058c-.25 1.356-.599 2.677-1.15 3.781l-1.307 2.611 8.504 10.049s.939-.854 1.861-1.692c-.089.945-.168 1.863-.22 2.692l-.05.799s5.104 16.77 5.132 16.861c-8.712-14.225-20.18-29.113-35.756-43.796 1.143.306 2.171.628 2.985.959l3.021 1.227z"/><path d="m223.065 87.047c15.342 15.807 52.218 70.387 60.189 106.25 8.818 39.688 2.656 128.403 2.656 128.403l20.285 6.222 19.121-6.222s-6.642-96.081-24.352-142.571c-8.987-23.588-24.796-58.888-64.175-92.082-11.089-11.401-12.831-6.444-13.724 0z" fill="#a28f48"/><path d="m251.374 16.633c11.956-.886 29.666 2.214 34.094 21.253 12.84 6.199 23.351 11.424 31.547 22.471 10.183 13.727 6.531 30.219 4.283 37.798l-10.593-13.888c.995-5.978-2.225-12.346-2.225-12.346s-4.085 5.039-6.044 7.372c-4.583-3.388-13.848-9.107-13.981-8.975 4.981 24.242 8.967 41.51-1.66 56.121l-2.324-7.637c.332-5.313 1.661-14.28 1.661-14.28l-7.306 6.642-3.654-4.317c2.989-5.977 1.882-14.943 1.882-14.943l-9.521 7.307-4.649-4.871c1.107-6.42-1.771-13.727-1.771-13.727l-7.084 8.635c-7.083-2.878-17.932-3.542-31.657-.886-7.225 1.398-22.139 6.421-28.116 9.076l-7.748-7.526s-.886 6.863.664 14.39l-6.674 10.724-8.037-4.717s.101 11.04 4.749 16.132l-.763 5.388-6.542-3.616s0 9.52 5.313 15.497l-.442 13.062c-9.962-1.992-20.664-14.325-21.918-32.765-1.55-22.803 12.176-39.85 12.176-39.85s-7.969.885-16.161 7.97l-9.298-6.642s-1.329 5.534 1.771 14.168l-7.527 14.392-8.634-6.643s-2.214 5.092 4.206 17.047l-3.42 13.423c-12.486-12.419-17.485-33.624-10.97-52.165 5.756-16.383 13.283-27.895 28.78-38.964-.885-8.855 4.428-15.939 11.954-19.039 16.727-6.888 29.223-1.328 38.079 5.757.443-7.971-2.656-25.239 23.466-28.338 28.309-3.36 33.651 6.196 34.094 11.51z" fill="#16a252"/><path d="m399.73 355.366h-274.49c51.75-22.597 107.095-31.895 160.67-33.666h39.406c25.239 2.214 55.346 18.597 74.414 33.666z" fill="#bfb07b"/><path d="m224.697 88.251c5.313 2.324 10.958 16.604 6.973 27.23-2.346 6.257-7.327 12.806-17.599 10.626-10.959-2.324-16.194-12.82-13.616-21.585 3.321-11.289 15.966-19.892 24.242-16.271z" fill="#eb1758"/><path d="m97.778 301.075c-2.167.181-4.082-1.404-4.309-3.567-1.208-11.486.729-14.731 5.528-17.66 1.348-.822 2.321-1.417 3.366-3.297 7.174-12.911 72.193-98.827 90.438-113.423 4.33-3.466 8.06-4.791 11.403-4.058 2.684.59 4.802 2.404 6.295 5.392v.001c.991 1.982 1.364 4.039 1.693 5.854.304 1.673.565 3.117 1.215 4.286 1.722 3.1.502 7.982-4.908 24.386-1.481 4.49-2.879 8.73-3.689 11.788-.588 2.223-1.234 4.628-1.893 7.058 4.208-5.523 8.568-11.198 11.497-14.887 2.387-3.004 23.638-29.279 34.706-27.354 3.161.554 5.683 2.216 7.294 4.808 4.692 7.547.569 21.614-3.069 34.026-1.088 3.714-2.116 7.222-2.697 9.923l-.068.317-.996 2.521c-1.445 3.644-5.241 13.212-6.394 18.542.177-.193.368-.407.575-.643 1.372-1.562 3.08-3.505 5.823-3.669 1.157-.06 2.909.188 4.708 1.8 1.829 1.638 5.381 6.355-1.124 14.751-3.964 5.117-16.465 16.18-22.741 12.33-.361.011-1.141.195-1.674.322-2.815.669-8.054 1.911-12.438-4.037-5.783-7.85-3.047-18.352 4.023-34.986 1.963-4.619 3.783-9.212 5.396-13.466-2.666 3.482-5.564 7.417-8.561 11.725-14.553 20.921-23.337 33.548-34.237 36.144-7.185 1.705-12.956-6.683-14.039-8.383l-.795-1.249.209-1.466c.11-.768 2.721-18.945 5.834-31.399 1.436-5.744 3.018-11.896 4.736-17.969-25.395 30.693-47.99 66.114-60.977 86.474l-3.754 5.876-1.486.406c-5.026 1.371-9.271 2.316-14.89 2.783z" fill="#010001"/><path d="m206.913 166.251c1.557 3.113 1.15 6.984 2.989 10.295 1.661 2.988-6.403 23.528-8.966 33.207-2.989 11.291-7.417 27.119-7.417 27.119s16.571-22.056 24.02-31.437c8.967-11.29 24.533-27.013 30.883-25.901 13.283 2.324 1.162 30.692-1.694 43.976-3.254 8.302-11.175 27.143-6.317 27.711 6.019.706 7.32-8.504 11.208-5.021 6.766 6.06-15.273 23.246-19.136 20.671-3.486-2.325-8.302 3.652-12.951-2.657-4.098-5.563-3.044-13.338 4.484-31.049 7.527-17.71 12.895-34.813 12.895-34.813s-10.611 11.38-23.024 29.223c-14.168 20.367-22.581 32.322-31.88 34.536-4.782 1.139-9.739-6.641-9.739-6.641s2.656-18.598 5.755-30.995c3.1-12.397 6.642-25.681 10.627-36.307-32.765 35.864-62.874 84.127-77.042 106.265-4.871 1.329-8.855 2.214-14.169 2.656-1.771-16.825 3.984-10.626 8.412-18.596 7.158-12.883 71.729-98.073 89.44-112.242 6.233-4.987 9.63-3.986 11.622 0" fill="url(#b)"/><path d="m231.652 326.016c-.605 0-1.155-.052-1.811-.12-3.7-.384-6.65-1.993-9.504-3.55-5.427-2.961-8.038-7.93-9.292-10.318-.694-1.32-2.768-5.444-3.267-8.435-3.628-1.883-6.007-6.862-6.032-6.917-2.679-5.803 1.763-13.209 3.903-15.045 13.266-11.377 36.121-12.605 45.331-12.605 1.983 0 3.407.058 4.251.106 4.196.24 5.828.525 10.19 1.288 3.108.543 7.805 1.363 16.1 2.626 20.288 3.086 31.259 4.696 39.513 4.696 1.741 0 3.318-.072 4.822-.223 10.335-1.029 30.64-5.439 33.512-14.76.373-1.211 1.448-5.354-.376-7.869-.768-1.059-1.964-1.731-4.413-2.483-3.601-1.104-7.641-1.688-11.682-1.688-3.259 0-5.404.379-5.426.383l-.176.028-5.958.817c-24.256 3.331-34.296 4.71-42.124 4.71-2.426 0-4.773-.134-7.389-.419-4.71-.517-11.847-4.844-16.392-13.127-3.794-6.916-4.948-16.899.188-22.599 2.25-2.497 5.009-3.347 6.187-3.71l.215-.067c17.741-6.7 54.647-26.06 55.232-43.04.158-4.572-2.151-10.928-6.158-13.225-1.667-.956-3.609-1.21-5.857-1.504-1.129-.147-2.265-.222-3.38-.222-3.655 0-6.739.779-9.46 1.466-.083.021-8.851 2.296-16.572 7.52-.304.205-3.063 2.087-5.834 4.415-1.313 1.104-1.995 1.678-2.367 2.047l-.42.427c-.652.667-1.392 1.424-2.561 2.296-.07.053-.712.529-1.461.99-4.243 2.615-8.144 3.164-10.668 3.165-1.825 0-3.038-.283-3.366-.369-1.683-.453-5.847-1.941-8.573-6.086-.642-.979-2.137-3.256-2.239-6.315-.298-8.962 11.624-16.395 16.57-17.46l-.001.001c-.016 0 .477-.163.934-.579.347-.315.708-.81.833-1.022l.053-.121c5.905-13.217 28.746-26.895 46.111-27.614.823-.034 1.641-.052 2.445-.052 19.805 0 35.438 10.55 40.802 27.533 5.884 18.63-9.339 45.046-29.834 64.603 6.299-1.239 12.545-1.876 18.566-1.876 20.94 0 38.17 7.639 46.088 20.434 4.465 7.214 8.122 19.738 4.996 33.256-3.622 15.66-14.797 24.492-20.167 28.737-22.633 17.89-50.545 18.039-63.959 18.111l-.844.002c-5.045 0-11.036-.229-17.379-.472-7.021-.27-14.281-.548-21.021-.548-10.422 0-17.302.685-21.032 2.093-5.467 2.063-11.303 5.489-12.007 7.05-1.031 2.373-2.523 4.008-4.458 4.914-1.046.488-2.151.726-3.382.726z"/><path d="m308.768 222.833c34.771-13.479 67.48-6.793 78.75 11.417 4.477 7.232 7.143 18.825 4.5 30.25-3.239 14.006-13.142 22.067-18.75 26.5-21.12 16.694-47.294 17.174-61.5 17.25-17.904.097-49.969-3.082-61.667 1.333-1.555.587-12.371 4.94-14.25 9.167-.195.438-.86 2.148-2.5 2.917-.977.457-1.864.376-3.083.25-2.84-.295-5.237-1.576-8-3.083v-.001c-4.276-2.332-6.455-6.36-7.667-8.666-.987-1.878-2.914-6.056-2.917-7.75 0-.141.012-.713-.333-1.25-.441-.688-1.206-.914-1.411-.983-1.871-.633-4.015-4.03-4.547-5.184-1.757-3.806 1.784-9.397 2.875-10.333 13.75-11.792 40.094-11.923 46.75-11.542 6.897.396 6.308.892 25.917 3.875 23.874 3.632 36.001 5.43 45.333 4.5 3.029-.302 32.613-3.525 36.937-17.563.308-.998 2.178-7.069-.96-11.396-1.536-2.117-3.773-3.129-6.478-3.959-10.037-3.078-19-1.416-19-1.416-37.083 5.083-44.237 6.216-54.493 5.095-3.129-.343-9.292-3.734-13.319-11.074-2.914-5.311-4.255-13.661-.348-17.997 1.782-1.978 4.144-2.449 4.803-2.698 11.029-4.165 57.109-24.974 57.857-46.659.192-5.572-2.482-13.574-8.167-16.833-2.354-1.35-4.861-1.677-7.333-2-5.85-.764-10.394.338-14.333 1.333 0 0-9.393 2.373-17.834 8.084-1.095.741-3.672 2.57-6.166 4.666-1.41 1.186-2.116 1.777-2.615 2.274-.769.766-1.397 1.49-2.552 2.353 0 0-.548.409-1.166.79-5.951 3.668-10.917 2.333-10.917 2.333-.962-.259-4.18-1.269-6.25-4.416-.526-.802-1.519-2.311-1.583-4.25-.213-6.4 9.834-12.647 13.417-13.417.381-.082 1.627-.479 2.781-1.531.809-.736 1.615-1.861 1.844-2.469 5.25-11.75 26.703-24.59 42.625-25.25 20.083-.833 34.417 9.333 39.267 24.689 6.444 20.405-16.184 53.478-43.517 72.644z" fill="url(#c)"/></svg>