<svg xmlns="http://www.w3.org/2000/svg" viewBox="0 0 1118.607 722.309"><path d="M599.885 717.835H12.833C5.746 717.835 0 712.089 0 705.002V12.833C0 5.746 5.746 0 12.833 0h587.052c7.088 0 12.833 5.746 12.833 12.833v692.168c.001 7.088-5.745 12.834-12.833 12.834z" fill="#ccc"/><g fill="#999"><path d="M482.48 54.747c-8.787-.004-14.662-6.413-14.662-14.19 0-7.773 5.887-14.262 14.65-14.237h82.801c8.759-.025 14.646 6.464 14.646 14.237 0 7.778-5.873 14.186-14.66 14.19H482.48zm.026-24.933c-6.96.012-11.228 4.804-11.228 10.725 0 5.923 4.246 10.747 11.228 10.723h82.72c6.988.025 11.23-4.8 11.23-10.723 0-5.921-4.27-10.712-11.23-10.725h-82.72z"/><path d="M478.937 33.817h4.053l5.604 9.333-.002-9.333h4.017v13.385h-4.013l-5.632-9.333v9.333h-4.027V33.817zM514.459 35.194h3.914v1.801h2.116v1.324h-2.116l.004 8.882h-3.918l.002-8.882h-2.124v-1.32l2.124-.004-.002-1.801zM494.847 38.301h3.91v8.903h-3.91v-8.903zM494.837 33.813h3.92v2.738h-3.92v-2.738zM563.357 37.696c-3.155 0-5.714 2.234-5.714 4.994 0 2.759 2.558 4.997 5.714 4.997 3.157 0 5.712-2.238 5.712-4.997-.001-2.76-2.555-4.994-5.712-4.994m1.57 4.982s-.004 1.344-.004 1.885c0 1.418-.812 2.002-1.599 2.002-.784 0-1.603-.584-1.603-2.002l.002-1.92.002-1.853c0-1.414.822-1.994 1.599-1.994.78 0 1.599.58 1.599 1.994 0 .539-.002 1.537.004 1.892v-.004zM552.539 42.707v-1.592c0-1.377-.924-1.726-1.531-1.726-.623 0-1.533.348-1.533 1.726v3.168c0 1.379.91 1.734 1.533 1.734.607 0 1.531-.355 1.531-1.734v-1.576zm-.026-8.89h3.856V47.2h-3.864l-.002-.512c-1.495.963-3.183.963-4.501.336-.352-.172-2.672-1.318-2.672-4.417 0-2.349 2.15-4.915 4.969-4.658.928.084 1.587.432 2.214.797v-4.929zM507.909 37.891c1.463-.043 4.426.941 4.406 4.464-.004.629-.002 4.845-.002 4.845h-3.882v-5.845c0-.777-.721-1.637-1.788-1.637-1.065 0-1.855.861-1.855 1.637l.004 5.845h-3.88l-.004-8.899 3.884-.004s-.004.715 0 .937a4.643 4.643 0 0 1 3.117-1.343M539.678 37.891c1.461-.043 4.428.941 4.408 4.464-.004.629 0 4.845 0 4.845H540.2v-5.845c0-.777-.721-1.637-1.788-1.637-1.065 0-1.853.861-1.853 1.637l.004 5.845h-3.88v-8.899l3.88-.004s-.004.715 0 .937a4.63 4.63 0 0 1 3.115-1.343M527.379 44.086s.002.041.002.541c0 1.627-1.039 1.99-1.617 1.99-.575 0-1.636-.363-1.636-1.99 0-.488.004-1.836.004-1.836s7.364.004 7.364-.004c0-2.759-2.588-5.044-5.767-5.044s-5.755 2.234-5.755 4.997 2.576 4.994 5.755 4.994c2.638 0 4.867-1.549 5.546-3.652l-3.896.004zm-3.247-2.684c-.008-.779.008-1.299.257-1.744a1.59 1.59 0 0 1 1.376-.814 1.582 1.582 0 0 1 1.372.814c.249.445.263.965.257 1.744h-3.262zM569.875 35.286c.38 0 .721-.025.721-.496 0-.377-.332-.445-.645-.445h-.609v.941h.533zm-.534 1.713h-.448v-3.045h1.123c.701 0 1.047.264 1.047.867 0 .545-.333.781-.766.838l.84 1.34h-.502l-.782-1.322h-.512v1.322z"/><path d="M569.88 37.68c1.163 0 2.078-.937 2.078-2.209 0-1.252-.916-2.193-2.078-2.193-1.173 0-2.09.941-2.09 2.193 0 1.272.918 2.209 2.09 2.209m-2.603-2.209a2.596 2.596 0 0 1 2.604-2.634c1.4 0 2.594 1.117 2.594 2.634 0 1.529-1.194 2.65-2.594 2.65-1.412-.001-2.604-1.122-2.604-2.65"/></g><ellipse cx="77.288" cy="524.93" rx="3.269" ry="3.365" fill="#737477"/><ellipse cx="77.288" cy="537.019" rx="3.269" ry="3.365" fill="#737477"/><g fill="#737477"><path d="M63.54 527.738c-.096.372-.344.557-.743.557h-2.141c-.391 0-.538-.185-.442-.557l1.296-4.977c.097-.374.342-.561.732-.561h2.141c.399 0 .55.187.453.561l-1.296 4.977zm-.927-.225l1.179-4.528h-1.353l-1.179 4.528h1.353zM67.531 528.295h-.864l-.583-3.836a2.207 2.207 0 0 1-.051.44l-.884 3.396h-.961l1.587-6.095h.864l.602 3.758c.007-.186.025-.333.052-.44l.864-3.318h.961l-1.587 6.095z"/></g><g fill="#737477"><path d="M60.938 539.827c-.097.372-.345.557-.744.557h-2.141c-.391 0-.538-.185-.441-.557l1.295-4.977c.097-.374.342-.561.733-.561h2.141c.399 0 .55.187.453.561l-1.296 4.977zm-.928-.226l1.179-4.528h-1.353l-1.179 4.528h1.353zM65.656 535.095h-1.707l-.47 1.803h1.458l-.205.791h-1.458l-.702 2.695h-.986l1.587-6.095h2.694l-.211.806zM68.91 535.095h-1.707l-.47 1.803h1.458l-.205.791h-1.458l-.702 2.695h-.986l1.587-6.095h2.694l-.211.806z"/></g><path fill="#ccc" d="M.448 194.746h611.75v247.919H.448z"/><path d="M122.949 378.062c-1.51 0-2.978 1.318-3.248 2.951V381.1l-.027.029v.088l-.028.058v.059l-.028.058v.088l-.027.058v.088l-.028.087-.028.088-.027.175-.055.204-.027.204-.055.204-.028.233-.055.234-.055.263-.055.234-.082.497-.055.263-.055.233-.027.234-.055.233-.055.234-.028.234-.028.204-.055.175-.028.204v.088l-.027.058v.146l-.027.088V386.56l-.028.058v.058c-.028.715.065 1.689.275 1.871.267 1.573 5.207 8.855 5.065 9.964-.133 1.112-.716 4.383-.716 4.383-.179 1.103-.888 1.986-1.926 1.986-1.039 0-1.748-.88-1.569-1.986l.936-5.435h-3.688l-1.239 7.539c-.252 1.531.724 2.746 2.174 2.746h5.258c1.456 0 2.843-1.216 3.11-2.746 0 0 1.355-7.042 1.349-7.539-.005-.501-.137-.555-.137-.555 0-.573-4.396-8.276-4.844-8.562-.193-.12-.352-.883-.358-1.344-.008-.458.578-3.536.578-3.536.178-1.103 1.163-1.987 2.202-1.987s1.472.884 1.293 1.987l-.798 4.88h3.716l1.294-7.335c.293-1.632-.692-2.95-2.202-2.95h-5.452zm10.128 0l-4.404 26.942c-.252 1.531.724 2.746 2.175 2.746h5.257c1.456 0 2.868-1.216 3.138-2.746l4.706-26.942h-3.303l-4.487 26.182c-.066.381-.413.702-.77.702h-2.615c-.366 0-.61-.319-.551-.702l4.377-26.182h-3.523zm12.662 0l-5.312 29.688h3.523l2.423-13.442h4.487c1.459 0 2.842-1.225 3.11-2.746l1.927-10.549c.291-1.636-.691-2.951-2.201-2.951H145.739zm12.58 0l-5.505 29.689h7.927l.55-3.682h-3.909l1.597-10.022h3.909l.55-3.098h-3.908l1.734-9.205h3.909l.549-3.682h-7.403zm9.468 0l-5.284 29.688h3.524l2.395-13.442h2.505c.329.326.368.926.412 1.227.065.437.134.995.083 1.432-.045.434-1.928 10.782-1.928 10.782h3.524S175 396.475 175 396.294c.006-.184 0-.761-.192-1.081-.129-.204-.351-.675-.607-.847-.491-.335-1.046-.556-1.046-.556h-.249c1.009-.421 2.909-1.116 3.112-2.249l1.926-10.549c.293-1.635-.691-2.951-2.201-2.951h-7.956zm18.856 0l-5.313 29.689h4.046l3.275-17.211 1.294 17.211h3.524l5.312-29.689h-4.046l-2.752 15.517-1.817-15.517h-3.523zm13.982 0l-5.312 29.689h3.523l5.311-29.689h-3.522zm5.366 0l-5.312 29.689h4.074l3.276-17.211 1.293 17.211h3.524l5.312-29.689h-4.074l-2.725 15.517-1.817-15.517h-3.551zm13.654 0l-.661 3.682h2.202l-4.349 26.007h4.02l4.431-26.007h2.119l.551-3.682h-8.313zm9.689 0l-5.505 29.689h7.927l.551-3.682h-3.909l1.625-10.022h3.908l.551-3.098h-3.909l1.705-9.205h3.909l.551-3.682h-7.404zm8.946 0l-5.313 29.689h4.073l3.276-17.211 1.293 17.211h3.523l5.313-29.689h-4.074l-2.726 15.517-1.817-15.517h-3.548zm14.011 0l-5.314 29.689h8.038c1.46 0 2.868-1.216 3.139-2.746l4.265-23.991c.289-1.636-.692-2.951-2.202-2.951h-7.926zm15.111 0c-1.511 0-2.951 1.318-3.221 2.951l-3.937 23.991c-.255 1.531.699 2.746 2.148 2.746h5.808c1.456 0 2.868-1.216 3.139-2.746l4.265-23.991c.293-1.633-.694-2.951-2.201-2.951h-6.001zm-12.111 3.419h1.625c1.038 0 1.747.884 1.568 1.987l-3.468 19.433c-.181 1.103-1.191 2.016-2.23 2.016h-1.596l4.101-23.436zm14.175 0h.111c1.038 0 1.72.884 1.541 1.987l-3.302 19.433c-.18 1.099-1.137 2.016-2.175 2.016-1.04 0-1.473-.914-1.295-2.016l3.276-19.433.027-.088.028-.088.027-.116.027-.088.028-.117.027-.088.028-.088.054-.087.027-.088.056-.088.027-.087.055-.088.056-.058.054-.087.056-.088.082-.059.055-.059.056-.058.082-.059.083-.058.056-.058.082-.059.083-.029.082-.058.056-.029.109-.029.082-.029h.082l.082-.029h.111l.084-.03zm-120.342.117h1.707c.375 0 1.17.911 1.101 1.315l-1.459 7.335c-.068.38-.551 1.256-.907 1.256h-2.119l-.028-.029h-.111v-.029h-.055l-.028-.029h-.027l-.027-.029-.027-.029h-.027v-.03l-.028-.029-.028-.029v-.029l-.027-.029-.028-.029v-.059l-.027-.029v-.058l-.028-.029v-.029c0-.049-.005-.122 0-.176l1.652-8.971c.15-.133.335-.235.521-.235zm21.938 0h1.706c.375 0 1.174.911 1.1 1.315l-1.46 7.305c-.063.383-.96 1.286-1.32 1.286h-1.514c-.312 0-.528-.218-.55-.525 0-.049-.007-.119 0-.176l1.624-8.971.027-.029.028-.029.054-.029h.027l.028-.029.027-.029h.027l.027-.029h.028l.054-.029h.081v-.029h.004v-.002zm-55.931 28.724v9.731h157.114v-9.731H115.131zm115.498 1.023H231.977c.327 0 .561.277.495.643l-.303 1.637h-.743l.164-1.081c.038-.244-.098-.439-.33-.439a.527.527 0 0 0-.495.439l-.137.79c-.024.047.045.268.082.293.102.062 1.074 1.772 1.074 1.899.023.063.036.094.027.117-.027.214-.303 1.664-.303 1.664-.059.333-.364.613-.688.613h-1.156c-.321 0-.528-.28-.469-.613l.276-1.664h.798l-.191 1.198c-.037.244.096.467.329.467.223 0 .46-.222.497-.467l.165-.964c-.147-.403-1.121-1.872-1.184-2.221-.042-.04-.06-.25-.054-.409.008-.174.22-1.257.22-1.257h.029V411.904l.027-.059v-.029l.027-.03v-.029l.027-.029v-.03l.027-.029.028-.03v-.028h.027l.028-.029.027-.03.027-.028v-.03h.027l.027-.028.027-.029h.028l.027-.029h.027l.027-.029h.082l.032-.034zm6.329 0h.991l.137 2.484 1.266-2.484h.992l-2.037 3.799-.495 2.776h-.88l.441-2.981-.415-3.594zm9.002 0h1.348c.327 0 .555.277.495.643l-.303 1.637h-.743l.166-1.081c.037-.244-.097-.439-.33-.439a.525.525 0 0 0-.495.439l-.137.79c-.029.047.037.268.082.293.097.062 1.074 1.772 1.074 1.899.029.063.028.094.028.117-.038.214-.276 1.664-.276 1.664-.059.333-.368.613-.689.613h-1.183c-.321 0-.528-.28-.469-.613l.276-1.664h.799l-.192 1.198c-.038.244.106.467.33.467.229 0 .45-.222.495-.467l.165-.964c-.151-.403-1.12-1.872-1.183-2.221-.042-.04-.059-.25-.055-.409.008-.174.221-1.257.221-1.257l.027-.029v-.057l.027-.059v-.029l.027-.03v-.029l.027-.029v-.03l.027-.029.027-.03v-.028h.028l.026-.029.027-.03.027-.028.027-.03.027-.028.027-.029h.027l.028-.029h.027l.027-.029h.082l.034-.034zm6.413 0h1.845l-.138.79h-.469l-.963 5.786h-.908l.963-5.786h-.468l.138-.79zm7.211 0h1.651l-.138.79h-.853l-.385 2.075h.88l-.138.671h-.854l-.357 2.221h.852l-.109.818h-1.762l1.213-6.575zm6.799 0h1.019l.164 3.799 1.57-3.77.99-.029-1.045 6.575h-.771l.494-3.477-1.377 3.477h-.551l-.164-3.565-.606 3.565h-.909l1.186-6.575zm-147.839.234h1.624l-.11.817h-.88l-.358 2.046h.853l-.111.702h-.881l-.33 2.221h.853l-.138.818h-1.762l1.24-6.604zm7.597 0h.771l.413 3.448.605-3.448h.909l-1.184 6.603h-.77l-.303-3.829-.715 3.829h-.909l1.183-6.603zm8.258 0h1.817l-.11.817h-.468l-.991 5.786h-.88l.963-5.786h-.495l.164-.817zm8.01 0h1.651l-.138.817h-.853l-.385 2.046h.853l-.11.702h-.853l-.358 2.221h.853l-.11.818h-1.762l1.212-6.604zm7.762 0h1.761c.327 0 .533.307.468.671l-.413 2.337c-.046.253-.465.46-.689.556h.11v.029h.11l.027.029h.082v.029h.055v.03h.027c.037.07.055.281.055.321 0 .039-.441 2.601-.441 2.601h-.798s.426-2.301.441-2.396a1.31 1.31 0 0 0-.027-.321c-.006-.071-.01-.192-.083-.264h-.551l-.523 2.98h-.798l1.187-6.602zm7.872 0h1.844l-.11.817h-.467l-.991 5.786h-.881l.963-5.786h-.495l.137-.817zm9.166 0h1.046l-.33 6.603h-1.046l.137-1.52h-.632l-.524 1.52h-.935l2.284-6.603zm7.322 0h.798l-1.184 6.603h-.771l1.157-6.603zm7.101 0h.771l.412 3.448.607-3.448h.88l-1.156 6.603h-.798l-.276-3.829-.716 3.829h-.907l1.183-6.603zm9.112 0h1.019l.164 3.828 1.57-3.798h.99l-1.046 6.574h-.771l.495-3.477-1.377 3.477h-.55l-.165-3.564-.605 3.564h-.881l1.157-6.604zm9.991 0h1.624l-.111.817h-.88l-.357 2.046h.853l-.11.702h-.88l-.358 2.221h.88l-.137.818h-1.733l1.209-6.604zm7.982 0h.771l.413 3.448.605-3.448h.88l-1.155 6.603h-.771l-.303-3.829-.716 3.829h-.908l1.184-6.603zm8.175 0h1.844l-.137.817h-.468l-.964 5.786h-.881l.964-5.786h-.495l.137-.817zm-65.977.788c-.043 0-.08.027-.111.059l-.358 1.986v.03c0 .064.042.116.11.116h.33c.082 0 .288-.175.303-.263l.302-1.636c.014-.094-.137-.293-.22-.293l-.356.001zm16.294 1.987l-.578 1.666h.44l.138-1.666z" fill="#6c6c6c"/><path d="M172.029 353.933h-5.165v-68.294h5.165v68.294zm-4.197-.997h3.228v-66.3h-3.228v66.3zM443.2 352.852h-5.165v-68.294h5.165v68.294zm-4.196-.997h3.228v-66.3h-3.228v66.3z" fill="#808084"/><path fill="#555251" d="M88.095 284.143h436.53v3.988H88.095zM88.095 351.44h436.53v3.988H88.095z"/><path fill="#555251" d="M87.611 194.746h.968v247.919h-.968zM524.141 194.746h.968v247.919h-.968z"/><path d="M612.719 444.243H0V195.327h612.719v248.916zM.968 443.246H611.75V196.324H.968v246.922z" fill="#555251"/><path d="M250.615 721.81H98.88a3.128 3.128 0 0 1-3.119-3.119v-275.03h157.972v275.03a3.127 3.127 0 0 1-3.118 3.119z" fill="#ccc"/><path d="M250.718 722.309H98.788c-1.932 0-3.505-1.618-3.505-3.607V443.163h158.94v275.538c0 1.99-1.572 3.608-3.505 3.608zM96.252 444.16v274.541c0 1.439 1.138 2.61 2.536 2.61h151.931c1.398 0 2.536-1.171 2.536-2.61V444.16H96.252z" fill="#555251"/><path d="M514.131 721.567H362.396a3.128 3.128 0 0 1-3.119-3.119v-275.03H517.25v275.03a3.128 3.128 0 0 1-3.119 3.119z" fill="#ccc"/><path d="M514.234 722.066h-151.93c-1.932 0-3.505-1.618-3.505-3.607V442.921h158.94v275.538c0 1.989-1.572 3.607-3.505 3.607zM359.768 443.917v274.541c0 1.439 1.138 2.61 2.536 2.61h151.931c1.398 0 2.536-1.171 2.536-2.61V443.917H359.768z" fill="#555251"/><path fill="#686665" d="M254.517 488.859H358.13v182.782H254.517z"/><path fill="none" stroke="#5b5959" stroke-width="4" stroke-miterlimit="10" d="M254.702 488.9h102.143v182.741H254.702z"/><path d="M524.168 561.064H352.37c-3.025 0-5.5-2.475-5.5-5.5v-61.033c0-3.025 2.475-5.5 5.5-5.5h171.799c3.025 0 5.5 2.475 5.5 5.5v61.033c-.001 3.025-2.476 5.5-5.501 5.5z" fill="#32215f"/><path d="M514.657 526.917H358.976c0-12.886 10.242-23.429 22.759-23.429h110.164c12.517 0 22.758 10.543 22.758 23.429z" fill="#2a1c4f"/><path d="M514.657 526.917H358.975c0 12.886 10.242 23.429 22.759 23.429h110.164c12.518 0 22.759-10.543 22.759-23.429z" fill="#46386b"/><g fill="#fcfcfc"><path d="M423.257 531.105h-2.386l-.619-6.369.37-1.237h2.25l1.3-4.346h-2.886l-3.575 11.952h-2.289l4.102-13.714h6.075c.919 0 1.253.421 1.002 1.262l-1.491 4.987c-.173.577-.503.951-.991 1.121-.26.088-.769.131-1.526.131l.664 6.213zM431.004 531.105h-6.348l4.102-13.714h6.289l-.543 1.815h-4.001l-1.197 4.004h3.444l-.532 1.779h-3.444l-1.287 4.303h4.059l-.542 1.813zM440.28 529.852c-.25.835-.838 1.253-1.764 1.253h-4.607c-.919 0-1.254-.418-1.004-1.253l.978-3.268h2.289l-.836 2.795h2.798l.804-2.69-3.424-3.891c-.247-.287-.304-.651-.171-1.095l.913-3.05c.252-.841.837-1.262 1.756-1.262h4.607c.926 0 1.265.415 1.017 1.245l-.917 3.067h-2.289l.773-2.585h-2.798l-.741 2.48 3.429 3.873c.249.279.305.651.166 1.113l-.979 3.268zM448.072 531.105h-6.348l4.102-13.714h6.289l-.543 1.815h-4.001l-1.197 4.004h3.444l-.532 1.779h-3.444l-1.287 4.303h4.059l-.542 1.813zM459.847 519.207h-2.524l-3.559 11.899h-2.278l3.559-11.899h-2.523l.543-1.815h7.326l-.544 1.815z"/></g><path fill="#fcfcfc" d="M462.166 531.105h6.941l-3.47-13.713z"/><path fill="#544679" d="M351.914 492.479h172.711v1.163H351.914z"/><g><path d="M260.47 561.064H88.672c-3.025 0-5.5-2.475-5.5-5.5v-61.033c0-3.025 2.475-5.5 5.5-5.5H260.47c3.025 0 5.5 2.475 5.5 5.5v61.033c0 3.025-2.475 5.5-5.5 5.5z" fill="#32215f"/><path fill="#544679" d="M88.095 493.185h172.711v1.163H88.095z"/><path d="M250.959 526.917H95.278c0-12.886 10.242-23.429 22.759-23.429H228.2c12.518 0 22.759 10.543 22.759 23.429z" fill="#2a1c4f"/><path d="M250.959 526.917H95.277c0 12.886 10.242 23.429 22.759 23.429H228.2c12.518 0 22.759-10.543 22.759-23.429z" fill="#46386b"/><g fill="#fcfcfc"><path d="M156.904 526.728c-.255.852-.849 1.279-1.781 1.279h-3.707l-1.486 4.967h-2.289l4.102-13.714h5.996c.933 0 1.273.421 1.021 1.262l-1.856 6.206zm-2.165-.482l1.562-5.224h-2.798l-1.562 5.224h2.798zM164.75 531.722c-.25.835-.838 1.253-1.764 1.253h-4.968c-.907 0-1.235-.418-.986-1.253l3.35-11.199c.252-.841.83-1.262 1.737-1.262h4.968c.926 0 1.264.421 1.012 1.262l-3.349 11.199zm-2.136-.509l3.048-10.191h-3.14l-3.048 10.191h3.14zM181.614 519.261l-6.347 13.732h-2.24l.955-7.773c.071-.279.169-.697.297-1.253-.084.281-.236.699-.454 1.253l-3.684 7.773h-2.25l1.868-13.732h2.318l-1.249 8.132c-.064.281-.164.699-.296 1.253.09-.279.244-.697.462-1.253l3.753-8.132h1.878l-1.112 8.132-.287 1.253c.09-.279.241-.697.453-1.253l3.616-8.132h2.319zM185.141 532.975h-6.348l4.102-13.714h6.289l-.543 1.815h-4.001l-1.197 4.004h3.444l-.532 1.779h-3.444l-1.287 4.303h4.059l-.542 1.813zM194.541 532.975h-2.386l-.619-6.369.37-1.237h2.25l1.3-4.346h-2.886l-3.575 11.952h-2.289l4.102-13.714h6.075c.919 0 1.253.421 1.002 1.262l-1.491 4.987c-.173.577-.503.951-.991 1.121-.261.088-.769.131-1.526.131l.664 6.213z"/></g></g><g fill="#4e4e51"><path d="M295.233 661.255h-4.116l3.358-12.532h4.068l-.264.985h-2.955l-1.253 4.677h2.691l-.268 1h-2.691l-1.309 4.885h3.003l-.264.985zM301.62 660.366c-.07.262-.21.476-.42.641-.21.165-.445.248-.707.248h-2.915c-.262 0-.453-.083-.574-.248-.121-.165-.147-.379-.077-.641l.852-3.179h1.113l-.827 3.083h2.466l3.095-11.547h1.113l-3.119 11.643zM307.501 661.255h-4.116l3.358-12.532h4.068l-.264.985h-2.955l-1.253 4.677h2.691l-.268 1h-2.691l-1.309 4.885h3.003l-.264.985zM314.497 660.366c-.07.262-.213.476-.428.641a1.147 1.147 0 0 1-.715.248h-3.227c-.262 0-.453-.083-.574-.248-.121-.165-.147-.379-.077-.641l2.882-10.754c.07-.262.21-.474.42-.641.21-.165.446-.248.707-.248h3.227c.262 0 .456.084.582.248.126.166.155.379.085.641l-.781 2.915h-1.121l.755-2.819h-2.787l-2.83 10.562h2.787l.827-3.083h1.121l-.853 3.179zM323.615 649.708h-1.938l-3.094 11.547h-1.113l3.094-11.547h-1.954l.264-.985h5.005l-.264.985z"/></g><g><path d="M1116.867 498.606H695.672c-.957 0-1.74-.783-1.74-1.74v-34.195a3.8 3.8 0 0 1 3.788-3.788h419.148c.957 0 1.74.783 1.74 1.74v36.243a1.747 1.747 0 0 1-1.741 1.74zM1113.921 543.291H696.57a3.673 3.673 0 0 1-3.662-3.663V507.23a3.674 3.674 0 0 1 3.662-3.663h417.351a3.673 3.673 0 0 1 3.662 3.663v32.399a3.673 3.673 0 0 1-3.662 3.662z" fill="#807887"/><path fill="#48434b" d="M697.958 498.606h416.622v1.979H697.958z"/><path fill="#746c7a" d="M697.958 500.586h416.622v2.981H697.958z"/><path fill="#48434b" d="M696.934 543.291h416.622v1.979H696.934z"/><path fill="#746c7a" d="M696.934 545.27h416.622v2.981H696.934z"/><path d="M1113.921 587.975H696.57a3.673 3.673 0 0 1-3.662-3.663v-32.399a3.674 3.674 0 0 1 3.662-3.663h417.351a3.673 3.673 0 0 1 3.662 3.663v32.399a3.673 3.673 0 0 1-3.662 3.663z" fill="#807887"/><path fill="#48434b" d="M696.934 587.975h416.622v1.979H696.934z"/><path fill="#746c7a" d="M696.934 589.955h416.622v2.981H696.934z"/><path d="M1113.921 632.66H696.57a3.673 3.673 0 0 1-3.662-3.662v-32.399a3.674 3.674 0 0 1 3.662-3.663h417.351a3.673 3.673 0 0 1 3.662 3.663v32.399a3.673 3.673 0 0 1-3.662 3.662z" fill="#807887"/><path fill="#48434b" d="M696.934 632.66h416.622v1.979H696.934z"/><path fill="#746c7a" d="M696.934 634.639h416.622v2.981H696.934z"/><path d="M1113.921 675.854H696.57a3.673 3.673 0 0 1-3.662-3.662v-32.399a3.674 3.674 0 0 1 3.662-3.663h417.351a3.673 3.673 0 0 1 3.662 3.663v32.399a3.673 3.673 0 0 1-3.662 3.662z" fill="#807887"/><path fill="#48434b" d="M696.934 675.854h416.622v1.979H696.934z"/><path fill="#746c7a" d="M696.934 677.833h416.622v2.981H696.934z"/><path d="M1113.921 721.899H696.57a3.673 3.673 0 0 1-3.662-3.663v-33.76a3.674 3.674 0 0 1 3.662-3.663h417.351a3.673 3.673 0 0 1 3.662 3.663v33.76a3.673 3.673 0 0 1-3.662 3.663z" fill="#807887"/><path d="M1053.971 721.797H758.568V456.425c0-5.406 4.423-9.829 9.829-9.829h275.746c5.406 0 9.829 4.423 9.829 9.829v265.372z" fill="#807886"/><circle cx="731.098" cy="703.439" r="7.986" fill="#201c24"/><path fill="none" stroke="#000" stroke-width=".819" stroke-miterlimit="10" d="M726.121 705.499l.915-4.931 4.728-1.673 3.813 3.258-.915 4.931-4.728 1.673z"/><path fill="#5e585e" d="M734.963 705.499h-8.842l.915-4.931 4.728-1.673 3.813 3.258-.62 3.344"/><path fill="#2a2727" d="M734.963 705.501h-8.842l3.813 3.258 4.728-1.673.295-1.587"/><circle cx="1081.44" cy="703.439" r="7.986" fill="#201c24"/><path fill="none" stroke="#000" stroke-width=".819" stroke-miterlimit="10" d="M1086.417 705.499l-.915-4.931-4.728-1.673-3.813 3.258.915 4.931 4.728 1.673z"/><path fill="#5e585e" d="M1077.575 705.499h8.842l-.915-4.931-4.728-1.673-3.813 3.258.621 3.344"/><path fill="#2a2727" d="M1077.575 705.501h8.842l-3.813 3.258-4.728-1.673-.294-1.587"/><path d="M772.218 621.975c0-5.406 4.423-9.829 9.829-9.829h248.445c5.406 0 9.828 4.423 9.828 9.829" fill="none" stroke="#665f6b" stroke-width=".819" stroke-miterlimit="10"/><path d="M1054.381 722.206H758.158V456.425c0-5.645 4.593-10.238 10.238-10.238h275.746c5.645 0 10.238 4.593 10.238 10.238v265.781zm-295.404-.819h294.584V456.425c0-5.194-4.226-9.419-9.419-9.419H768.396c-5.194 0-9.419 4.225-9.419 9.419v264.962z" fill="#4b474f"/><path d="M1028.785 569.864H783.753c-5.406 0-9.829-4.423-9.829-9.829V446.597h264.689v113.438c.001 5.406-4.422 9.829-9.828 9.829z"/><path d="M791.902 532.835c5.823 0 10.544 3.288 10.544 7.344 0 4.056-4.721 7.344-10.544 7.344s-10.544-3.288-10.544-7.344c0-4.056 4.721-7.344 10.544-7.344z" fill="#fff"/><g fill="#a58252"><path d="M789.633 544.516h.326v.017c0 .102.032.18.095.233.063.053.156.08.277.08a.35.35 0 0 0 .217-.058.195.195 0 0 0 .076-.164c0-.059-.017-.103-.05-.131-.033-.028-.101-.049-.202-.064l-.226-.032c-.165-.024-.287-.078-.365-.16a.484.484 0 0 1-.117-.347c0-.177.056-.321.168-.433a.607.607 0 0 1 .446-.167c.199 0 .354.053.466.158a.563.563 0 0 1 .169.431v.015h-.318c-.008-.091-.037-.158-.089-.203-.052-.045-.126-.067-.223-.067a.348.348 0 0 0-.208.054.179.179 0 0 0-.074.153c0 .053.014.092.043.116.029.024.1.046.213.064l.236.035c.164.025.284.081.361.166s.116.207.116.362c0 .201-.058.353-.173.458s-.284.157-.506.157c-.212 0-.375-.055-.488-.165-.114-.11-.171-.266-.171-.47l.001-.038zM792.246 544.703a.684.684 0 0 1-.203.359.518.518 0 0 1-.352.127.507.507 0 0 1-.418-.194c-.102-.13-.154-.305-.154-.527 0-.222.051-.397.154-.526a.505.505 0 0 1 .418-.193c.183 0 .325.067.424.2.099.134.149.324.149.571v.057h-.814a.398.398 0 0 0 .068.236.207.207 0 0 0 .172.088.215.215 0 0 0 .144-.051.287.287 0 0 0 .087-.145l.325-.002zm-.788-.407l.476.001a.318.318 0 0 0-.072-.198.213.213 0 0 0-.167-.072.21.21 0 0 0-.166.073.328.328 0 0 0-.071.196zM793.511 544.925c0 .053.003.093.01.121a.13.13 0 0 0 .035.065v.03h-.325l-.015-.147a.485.485 0 0 1-.173.147.494.494 0 0 1-.223.047.4.4 0 0 1-.309-.121.46.46 0 0 1-.113-.327c0-.128.034-.223.102-.286.068-.063.184-.104.349-.124l.091-.008c.19-.019.284-.07.284-.155 0-.051-.018-.089-.055-.114a.29.29 0 0 0-.164-.038c-.073 0-.127.018-.162.054-.034.036-.052.092-.053.169l-.309.001v-.005c0-.158.046-.279.139-.362.092-.083.226-.125.402-.125.086 0 .162.012.229.036a.422.422 0 0 1 .167.107.314.314 0 0 1 .072.138c.014.056.021.14.021.253v.644zm-.287-.432a.49.49 0 0 1-.211.065l-.028.005c-.111.016-.181.036-.21.06-.029.024-.044.06-.044.11 0 .052.014.094.043.125a.152.152 0 0 0 .116.047c.1 0 .181-.034.243-.101a.377.377 0 0 0 .093-.264v-.029a.074.074 0 0 0-.002-.018zM793.774 545.141v-1.802h.292v1.802h-.292z"/></g><path d="M803.702 540.184l1.261 1.35-1.802 1.082.506 2.091-1.939.054-.133 2.277-2.161-.595-.365 2.149-2-.794-1.043 1.895-1.562-1.351-1.362 1.92-1.5-1.63-1.639 1.522-1.07-1.792-1.933 1.138-.668-2.007-2.237.882-.329-1.979-2.002.125.299-2.015-2.048-.008.479-2.2-1.588-.892 1.264-1.435-1.134-1.996 1.845-.584-.486-2.136 2.024-.027.234-2.118 1.831.607.606-2.064 1.849 1 .765-1.826 1.602 1.113 1.125-1.736 1.513 1.512 1.337-1.383 1.172 1.743 1.831-1.177.726 1.923 1.84-.871.473 2.007 2.181-.388-.067 1.964 2.204.237-.624 1.897 1.92.823-1.195 1.693zm-1.256-.005c0-4.055-4.721-7.344-10.544-7.344s-10.544 3.288-10.544 7.344c0 4.056 4.721 7.344 10.544 7.344s10.544-3.289 10.544-7.344z" fill="#a58252"/><g fill="#a58252"><path d="M788.411 536.399c0-.487.277-.609.473-.609.197 0 .473.121.473.609s-.276.609-.473.609c-.196 0-.473-.121-.473-.609zm-.363 0c0 .817.605.916.836.916s.836-.099.836-.916c0-.816-.605-.916-.836-.916s-.836.1-.836.916zM790.329 537.269h-.34v-1.045h-.187v-.243h.187v-.105c0-.268.146-.369.378-.369.099 0 .145.003.174.005v.274h-.094c-.116 0-.119.037-.119.144v.051h.221v.243h-.221l.001 1.045zM791.087 537.269h-.339v-1.045h-.187v-.243h.187v-.105c0-.268.145-.369.378-.369.099 0 .145.003.174.005v.274h-.095c-.116 0-.119.037-.119.144v.051h.22v.243h-.22l.001 1.045zM791.803 535.981v1.289h-.339v-1.289h.339zm0-.155h-.339v-.314h.339v.314zM793.189 536.799a.552.552 0 0 1-.59.503c-.485 0-.597-.371-.597-.641 0-.415.182-.714.619-.714.204 0 .539.092.57.494h-.344c-.015-.085-.068-.217-.226-.208-.214 0-.269.213-.269.372 0 .14.005.418.262.418.172 0 .231-.164.231-.225l.344.001zM793.727 535.981v1.289h-.34v-1.289h.34zm0-.155h-.34v-.314h.34v.314zM794.715 536.807c0 .155-.152.252-.302.252-.065 0-.157-.036-.157-.155 0-.14.104-.171.23-.193.14-.022.196-.043.23-.07v.166h-.001zm.332-.486c0-.318-.332-.373-.513-.373-.263 0-.538.056-.576.451h.327c.01-.075.039-.179.208-.179.087 0 .222.007.222.15 0 .072-.065.094-.119.102l-.305.046c-.215.031-.376.16-.376.411 0 .265.199.374.393.374.23 0 .339-.107.416-.187a.53.53 0 0 0 .032.154h.366v-.05c-.041-.015-.075-.048-.075-.201v-.698zM795.651 537.269h-.339v-1.74h.339z"/></g><path d="M791.902 546.915c5.448 0 9.88-3.022 9.88-6.736s-4.432-6.736-9.88-6.736-9.88 3.022-9.88 6.736 4.432 6.736 9.88 6.736zm-9.637-6.736c0-3.58 4.323-6.493 9.637-6.493s9.637 2.913 9.637 6.493-4.323 6.493-9.637 6.493-9.637-2.913-9.637-6.493z" fill="#a58252"/><g fill="#a58252"><path d="M798.116 542.445a2.095 2.095 0 0 0 2.093-2.093 2.095 2.095 0 0 0-2.093-2.093h-12.533a2.095 2.095 0 0 0-2.093 2.093c0 1.154.939 2.093 2.093 2.093h12.533zm-12.533-.543c-.854 0-1.55-.695-1.55-1.55s.695-1.55 1.55-1.55h12.533c.854 0 1.55.695 1.55 1.55s-.695 1.55-1.55 1.55h-12.533z"/><path d="M785.046 541.351v-1.971h.616l.822 1.278.003-1.278h.639v1.971h-.639c-.055-.121-.792-1.271-.792-1.271v1.271h-.649zM788.934 540.035c.02.025.054.052.07.065.06-.039.107-.076.172-.097.486-.166.738.113.787.159.222.205.154.762.168 1.191h-.646s.011-.802.001-.911c-.008-.095-.144-.21-.223-.214-.134-.005-.299.064-.306.215-.015.307.005.91.005.91h-.632v-1.319l.604.001zM790.436 539.883l-.001-.187h.633l-.001.187h.302l-.002.177h-.299v1.291h-.632v-1.291h-.286v-.177zM791.317 540.689c-.012-.432.39-.704.73-.722.161-.008.326-.021.471.047.092.043.197.058.273.13a.74.74 0 0 1 .247.555l-1.081-.003c0 .17-.095.557.201.564.113.003.177-.018.219-.115a.523.523 0 0 0 .025-.241c.109.007.568-.007.623-.005-.124.345-.497.494-.858.494-.148-.001-.833-.069-.85-.704zm.641-.206l.436-.002c0-.075 0-.115-.009-.176-.011-.082-.077-.197-.214-.192-.186.008-.213.113-.213.229v.141zM797.199 540.97c-.113-.149-.13-.442-.024-.659.092-.19.33-.329.455-.37.17-.055.446-.07.678-.014a.779.779 0 0 1 .518.384c.104.189.085.5-.031.66-.075.103-.242.281-.428.33-.162.043-.495.067-.672.012a.884.884 0 0 1-.496-.343zm.807.227c.179.001.219-.138.223-.226.007-.201-.004-.45-.004-.66 0-.108-.061-.251-.223-.251-.233 0-.225.183-.227.251-.005.116-.005.51-.002.659 0 .05.024.226.233.227zM796.893 541.351h-.569c-.002 0-.013-.076-.013-.076-.159.124-.798.185-1.045-.335-.022-.046-.086-.384.007-.592.151-.337.498-.411.746-.396.099.006.29.108.29.108l.001-.721h.583c-.001 0 .007 2.012 0 2.012zm-.594-.331c.018-.058.009-.436.009-.62a.381.381 0 0 0-.05-.148c-.048-.059-.085-.09-.182-.086a.217.217 0 0 0-.201.184c-.015.185-.025.375.004.611a.2.2 0 0 0 .084.145c.138.099.301.024.336-.086zM788.043 541.351v-1.332h-.652v1.332zM788.043 539.795v-.415h-.652v.415zM793.868 540.024c.02.025.054.053.07.065.059-.04.107-.075.172-.098.486-.166.738.114.787.159.222.205.154.763.168 1.191h-.646s.011-.802.001-.911c-.008-.095-.144-.21-.223-.213-.134-.005-.299.064-.306.215-.015.307-.009.92-.009.92h-.612v-1.329l.598.001zM798.521 539.81h-.043v-.199h.075c.051 0 .082.015.082.06 0 .037-.022.05-.048.052l.051.087h-.05l-.046-.083h-.02l-.001.083zm.038-.117c.019 0 .03-.004.03-.026 0-.02-.022-.022-.038-.022h-.03v.048h.038zm-.007.203a.18.18 0 0 1-.186-.185.18.18 0 0 1 .186-.185c.098 0 .185.068.185.185a.178.178 0 0 1-.185.185zm0-.327c-.073 0-.133.057-.133.142 0 .085.059.142.133.142v.001c.071 0 .132-.057.132-.142 0-.086-.061-.143-.132-.143z"/></g><g><path d="M781.514 479.397c-2.4-.001-4.004-1.701-4.004-3.764 0-2.062 1.608-3.783 4.001-3.777h22.611c2.392-.007 4 1.715 4 3.777 0 2.063-1.604 3.763-4.003 3.764h-22.605z" fill="#ed1c24"/><path d="M781.521 472.783c-1.901.003-3.066 1.274-3.066 2.845 0 1.571 1.16 2.851 3.066 2.844h22.589c1.908.007 3.067-1.273 3.067-2.844s-1.166-2.842-3.067-2.845h-22.589z" fill="#fff"/><path d="M780.547 473.845h1.107l1.53 2.476-.001-2.476h1.097v3.551h-1.096l-1.538-2.476v2.476h-1.1v-3.551h.001zM790.247 474.21h1.069v.478h.578v.351h-.578l.001 2.356h-1.07v-2.356h-.58v-.35l.58-.001v-.478zM784.891 475.034h1.068v2.362h-1.068v-2.362zM784.889 473.844h1.07v.726h-1.07v-.726zM803.6 474.874c-.862 0-1.56.593-1.56 1.325s.699 1.325 1.56 1.325c.862 0 1.56-.594 1.56-1.325-.001-.732-.698-1.325-1.56-1.325m.429 1.322l-.001.5c0 .376-.222.531-.437.531-.214 0-.438-.155-.438-.531l.001-.509.001-.491c0-.375.224-.529.437-.529s.437.154.437.529l.001.502-.001-.002zM800.646 476.203v-.422c0-.365-.252-.458-.418-.458-.17 0-.419.092-.419.458v.84c0 .366.248.46.419.46.166 0 .418-.094.418-.46v-.418zm-.007-2.358h1.053v3.55h-1.055l-.001-.136a1.291 1.291 0 0 1-1.229.089 1.264 1.264 0 0 1-.73-1.172c0-.623.587-1.304 1.357-1.236.253.022.433.115.605.211v-1.306zM788.458 474.926c.4-.011 1.208.25 1.203 1.184l-.001 1.285h-1.06v-1.55c0-.206-.197-.434-.488-.434s-.507.228-.507.434l.001 1.55h-1.06l-.001-2.36 1.061-.001v.248c.205-.195.5-.346.852-.356M797.134 474.926c.399-.011 1.209.25 1.204 1.184v1.285h-1.061v-1.55c0-.206-.197-.434-.488-.434s-.506.228-.506.434l.001 1.55h-1.06v-2.36l1.06-.001v.248c.203-.195.497-.346.85-.356M793.775 476.569l.001.144c0 .432-.284.528-.441.528-.157 0-.447-.096-.447-.528l.001-.487s2.011.001 2.011-.001c0-.732-.707-1.338-1.575-1.338s-1.572.593-1.572 1.325.703 1.325 1.572 1.325c.72 0 1.329-.411 1.515-.969l-1.065.001zm-.887-.712c-.002-.207.002-.345.07-.463a.435.435 0 0 1 .751 0c.068.118.072.256.07.463h-.891zM805.38 474.235c.104 0 .197-.007.197-.132 0-.1-.091-.118-.176-.118h-.166v.25h.145zm-.146.454h-.122v-.808h.307c.191 0 .286.07.286.23 0 .145-.091.207-.209.222l.229.356h-.137l-.214-.351h-.14v.351z" fill="#ed1c24"/><path d="M805.381 474.87a.566.566 0 0 0 .568-.586.566.566 0 0 0-.568-.582c-.32 0-.571.25-.571.582 0 .337.251.586.571.586m-.711-.586a.7.7 0 0 1 .711-.699.7.7 0 1 1 0 1.402.701.701 0 0 1-.711-.703" fill="#ed1c24"/></g><g fill="#fff"><path d="M779.175 463.858v-3.879h.795v3.22h1.978v.659h-2.773zM782.491 463.858v-3.911h.795v3.911h-.795zM786.564 462.42l.771.243c-.118.427-.315.744-.59.951-.275.207-.624.311-1.046.311-.523 0-.953-.178-1.29-.532s-.505-.84-.505-1.455c0-.651.169-1.156.508-1.517.339-.36.784-.54 1.335-.54.482 0 .873.141 1.174.424.179.167.314.408.403.72l-.787.187a.827.827 0 0 0-.292-.48.843.843 0 0 0-.539-.176.9.9 0 0 0-.711.312c-.182.208-.273.545-.273 1.011 0 .494.09.846.269 1.056.179.21.412.315.698.315a.8.8 0 0 0 .545-.2c.154-.134.263-.343.33-.63zM788.018 463.858v-3.911h2.921v.662h-2.125v.867h1.977v.659h-1.977v1.064h2.2v.659h-2.996zM791.696 463.858v-3.911h.774l1.612 2.612v-2.612h.739v3.911h-.798l-1.588-2.55v2.55h-.739zM798.182 462.42l.771.243c-.118.427-.315.744-.59.951-.275.207-.623.311-1.046.311-.523 0-.953-.178-1.29-.532s-.505-.84-.505-1.455c0-.651.169-1.156.508-1.517.339-.36.784-.54 1.335-.54.482 0 .873.141 1.174.424.179.167.314.408.403.72l-.787.187a.827.827 0 0 0-.292-.48.843.843 0 0 0-.539-.176.9.9 0 0 0-.711.312c-.182.208-.273.545-.273 1.011 0 .494.09.846.269 1.056.179.21.412.315.698.315a.803.803 0 0 0 .546-.2c.153-.134.263-.343.329-.63zM799.635 463.858v-3.911h2.921v.662h-2.125v.867h1.977v.659h-1.977v1.064h2.2v.659h-2.996zM803.303 459.947h1.454c.328 0 .578.025.749.075.231.068.429.188.594.36.165.172.29.384.376.633.086.25.129.558.129.924 0 .322-.04.599-.121.832a1.721 1.721 0 0 1-.422.691 1.408 1.408 0 0 1-.559.312c-.176.055-.41.083-.704.083h-1.497v-3.91zm.795.662v2.59h.594c.222 0 .382-.012.481-.037a.73.73 0 0 0 .321-.163c.085-.076.154-.202.208-.378.054-.175.08-.414.08-.716s-.027-.534-.08-.696a.896.896 0 0 0-.226-.379.751.751 0 0 0-.368-.184c-.111-.025-.329-.037-.653-.037h-.357zM789.447 466.503h1.575c.312 0 .544.013.697.039a1.001 1.001 0 0 1 .713.489c.08.136.121.288.121.458a.91.91 0 0 1-.149.504.916.916 0 0 1-.404.344c.24.069.425.188.553.355a.938.938 0 0 1 .194.59 1.16 1.16 0 0 1-.466.922c-.144.1-.322.162-.533.185a13.68 13.68 0 0 1-.959.027h-1.341v-3.913zm.795.651v.904h.521c.31 0 .502-.004.578-.013a.53.53 0 0 0 .321-.14.412.412 0 0 0 .117-.306c0-.121-.034-.219-.101-.295s-.167-.122-.3-.138a9.388 9.388 0 0 0-.679-.013h-.457zm0 1.556v1.045h.736c.287 0 .468-.008.545-.024.118-.021.214-.073.289-.156s.112-.193.112-.332a.51.51 0 0 0-.086-.299.482.482 0 0 0-.248-.179c-.108-.038-.344-.056-.705-.056h-.643zM794.452 470.414v-1.646l-1.443-2.265h.932l.927 1.547.908-1.547h.916l-1.448 2.27v1.641h-.792z"/></g><g><g fill="#e60012"><path d="M959.91 548.046c-.67 0-1.321.555-1.44 1.242V549.324l-.012.012V549.373l-.012.025v.025l-.012.025v.037l-.012.025v.037l-.012.037-.012.037-.012.074-.024.086-.012.086-.024.086-.012.098-.024.098-.024.111-.024.098-.037.209-.024.111-.024.098-.012.098-.024.098-.024.098-.012.098-.012.086-.024.074-.012.086v.037l-.012.025v.062l-.012.037v.049l-.012.025v.024c-.013.301.029.711.122.787.118.662 2.309 3.727 2.246 4.194-.059.468-.317 1.845-.317 1.845-.079.464-.394.836-.854.836-.461 0-.775-.371-.696-.836l.415-2.288h-1.636l-.549 3.173c-.112.644.321 1.156.964 1.156h2.331c.646 0 1.261-.512 1.379-1.156 0 0 .601-2.964.598-3.173-.002-.211-.061-.234-.061-.234 0-.241-1.949-3.483-2.148-3.603-.086-.051-.156-.372-.159-.566-.004-.193.256-1.488.256-1.488.079-.464.516-.836.976-.836.461 0 .653.372.574.836l-.354 2.054h1.648l.574-3.087c.13-.688-.307-1.242-.976-1.242h-2.424zm4.491 0l-1.953 11.339c-.112.644.321 1.156.964 1.156h2.331c.646 0 1.272-.512 1.391-1.156l2.087-11.339h-1.465l-1.989 11.019a.369.369 0 0 1-.342.295h-1.159c-.162 0-.271-.134-.244-.295l1.941-11.019h-1.562zm5.615 0l-2.356 12.495h1.562l1.074-5.657h1.989c.647 0 1.261-.516 1.379-1.156l.854-4.44c.128-.689-.307-1.242-.976-1.242h-3.526zm5.578 0l-2.441 12.495h3.515l.244-1.55h-1.733l.708-4.218h1.733l.244-1.304h-1.733l.769-3.874h1.733l.244-1.55h-3.283zm4.198 0l-2.343 12.495h1.562l1.062-5.657h1.111c.146.137.163.39.183.516.029.184.059.419.037.603-.02.183-.854 4.538-.854 4.538h1.562s.879-4.745.879-4.821c.003-.077 0-.321-.085-.455-.057-.086-.155-.284-.269-.357-.218-.141-.464-.234-.464-.234h-.11c.447-.178 1.29-.47 1.379-.947l.854-4.44c.13-.689-.307-1.242-.976-1.242h-3.528zm8.361 0l-2.356 12.495h1.794l1.452-7.244.574 7.244h1.562l2.356-12.495h-1.794l-1.22 6.531-.806-6.531h-1.562zm6.2 0l-2.356 12.495h1.562l2.356-12.495h-1.562zm2.38 0l-2.356 12.495h1.806l1.452-7.244.574 7.244h1.562l2.356-12.495h-1.806l-1.208 6.531-.806-6.531h-1.574zm6.054 0l-.293 1.55h.976l-1.928 10.946h1.782l1.965-10.946h.94l.244-1.55h-3.686zm4.296 0l-2.441 12.495h3.515l.244-1.55h-1.733l.72-4.218h1.733l.244-1.304h-1.733l.757-3.874h1.733l.244-1.55h-3.283zm3.966 0l-2.356 12.495h1.806l1.452-7.244.574 7.244h1.562l2.356-12.495h-1.806l-1.208 6.531-.806-6.531h-1.574zm6.213 0l-2.356 12.495h3.564c.647 0 1.272-.512 1.391-1.156l1.892-10.097c.128-.689-.307-1.242-.976-1.242h-3.515zm6.701 0c-.67 0-1.308.555-1.428 1.242l-1.745 10.097c-.113.644.31 1.156.952 1.156h2.575c.646 0 1.272-.512 1.391-1.156l1.892-10.097c.13-.688-.308-1.242-.976-1.242h-2.661zm-5.371 1.439h.72c.461 0 .775.372.696.836l-1.538 8.179c-.081.464-.528.849-.989.849h-.708l1.819-9.864zm6.286 0h.049c.461 0 .763.372.683.836l-1.465 8.179c-.079.463-.504.849-.964.849-.461 0-.653-.384-.574-.849l1.452-8.179.012-.037.012-.037.012-.049.012-.037.012-.049.012-.037.012-.037.024-.037.012-.037.024-.037.012-.037.024-.037.024-.025.024-.037.024-.037.036-.025.024-.025.024-.025.037-.025.037-.025.024-.025.037-.025.037-.012.037-.025.024-.012.049-.012.037-.012h.037l.036-.012h.049l.042-.009zm-53.361.049h.757c.166 0 .518.383.488.553l-.647 3.087c-.03.16-.244.529-.403.529H970.773l-.012-.012h-.048v-.012h-.024l-.012-.012h-.012l-.012-.012-.012-.012h-.012v-.012l-.012-.012-.012-.012v-.012l-.012-.012-.012-.012v-.024l-.012-.012v-.024l-.012-.012v-.012c0-.02-.003-.051 0-.074l.732-3.776a.343.343 0 0 1 .228-.103zm9.728 0h.756c.166 0 .521.383.488.553l-.647 3.075c-.029.161-.426.541-.586.541h-.671a.233.233 0 0 1-.244-.221c0-.02-.003-.05 0-.074l.72-3.776.012-.012.012-.012.024-.012h.012l.012-.012.012-.012h.012l.012-.012h.012l.024-.012H981.241v-.014zm-24.801 12.09v4.095h71.465v-4.095h-71.465zm52.186.43h.609a.22.22 0 0 1 .224.271l-.137.689h-.336l.075-.455c.017-.103-.044-.184-.149-.184a.234.234 0 0 0-.224.184l-.062.332c-.01.02.021.113.037.123.046.026.485.746.485.799.01.027.016.039.013.049-.013.09-.137.701-.137.701a.33.33 0 0 1-.311.258h-.522a.208.208 0 0 1-.211-.258l.124-.701h.361l-.087.504c-.017.103.044.197.149.197.1 0 .207-.093.224-.197l.075-.406c-.067-.17-.507-.788-.535-.935-.019-.016-.028-.105-.025-.172.004-.073.1-.529.1-.529h.012V562.288l.013-.025v-.012l.012-.012v-.012l.012-.012v-.012l.012-.012.012-.012v-.012h.013l.012-.012.013-.012.012-.012v-.012h.012l.012-.012.013-.012h.012l.013-.012h.012l.013-.012H1008.617l.013-.017zm2.862 0h.448l.062 1.045.572-1.045h.448l-.921 1.599-.224 1.168h-.398l.199-1.254-.186-1.513zm4.068 0h.609c.148 0 .251.117.224.271l-.137.689h-.336l.075-.455c.017-.103-.044-.184-.149-.184a.233.233 0 0 0-.224.184l-.062.332c-.013.02.017.113.037.123.044.026.485.746.485.799.013.027.012.039.012.049-.017.09-.124.701-.124.701a.332.332 0 0 1-.311.258h-.535c-.145 0-.238-.118-.211-.258l.124-.701h.361l-.087.504c-.017.103.048.197.149.197.104 0 .203-.093.224-.197l.075-.406c-.068-.17-.507-.788-.535-.935-.019-.016-.027-.105-.025-.172.004-.073.1-.529.1-.529l.012-.012v-.024l.012-.025v-.012l.013-.012v-.012l.012-.012v-.012l.013-.012.012-.012v-.012h.012l.012-.012.013-.012.012-.012.013-.012.012-.012.012-.012h.013l.012-.012h.012l.012-.012h.038l.014-.017zm2.899 0h.834l-.062.332h-.211l-.435 2.435h-.411l.435-2.435h-.211l.061-.332zm3.26 0h.747l-.062.332h-.386l-.174.873h.398l-.062.283h-.386l-.162.935h.386l-.05.344h-.796l.547-2.767zm3.073 0h.46l.075 1.599.709-1.586.448-.012-.473 2.767h-.348l.224-1.464-.622 1.464h-.249l-.075-1.5-.274 1.5h-.411l.536-2.768zm-66.824.099h.734l-.05.344h-.398l-.162.861h.386l-.05.295h-.398l-.149.935h.386l-.062.344h-.796l.559-2.779zm3.434 0h.348l.187 1.451.274-1.451h.411l-.535 2.779h-.348l-.137-1.611-.323 1.611h-.411l.534-2.779zm3.732 0h.821l-.05.344h-.211l-.448 2.435h-.398l.435-2.435h-.224l.075-.344zm3.621 0h.746l-.062.344h-.386l-.174.861h.386l-.05.295h-.386l-.162.935h.386l-.05.344h-.796l.548-2.779zm3.508 0h.796c.148 0 .241.129.211.283l-.187.984c-.021.107-.21.193-.311.234h.05v.012h.05l.012.012H972.921v.012h.025v.012h.013c.017.03.025.118.025.135 0 .016-.199 1.095-.199 1.095h-.361s.193-.968.199-1.008a.503.503 0 0 0-.013-.135c-.003-.03-.004-.08-.037-.111h-.249l-.236 1.254h-.361l.536-2.779zm3.558 0h.834l-.05.344h-.211l-.448 2.435h-.398l.435-2.435h-.224l.062-.344zm4.144 0h.473l-.149 2.779h-.473l.062-.64h-.286l-.236.64h-.423l1.032-2.779zm3.309 0h.361l-.535 2.779h-.348l.522-2.779zm3.21 0h.348l.187 1.451.274-1.451h.398l-.523 2.779h-.361l-.124-1.611-.324 1.611h-.411l.536-2.779zm4.118 0h.46l.075 1.611.709-1.599h.448l-.473 2.767h-.348l.224-1.464-.622 1.464h-.249l-.075-1.5-.274 1.5h-.398l.523-2.779zm4.516 0h.734l-.05.344h-.398l-.162.861h.386l-.05.295h-.398l-.162.935h.398l-.062.344h-.784l.548-2.779zm3.609 0h.348l.187 1.451.274-1.451h.398l-.522 2.779h-.348l-.137-1.611-.323 1.611h-.411l.534-2.779zm3.695 0h.834l-.062.344h-.211l-.435 2.435h-.398l.435-2.435h-.224l.061-.344zm-29.823.332c-.019 0-.036.011-.05.025l-.162.836v.012c0 .027.019.049.05.049h.149c.037 0 .13-.074.137-.111l.137-.689c.006-.04-.062-.123-.1-.123h-.161zm7.366.836l-.261.701h.199l.062-.701zM1027.429 559.806h-.329v.736h-.232v-.736h-.342v-.152h.902v.152zM1028.649 560.542h-.232v-.722l-.201.722h-.232l-.201-.718v.718h-.232v-.888h.339l.209.68.211-.68h.337v.888z"/></g></g><g><path d="M992.194 497.976h36.455v45.315h-36.455z"/><g fill="#7f7f7f"><path d="M992.194 497.976h36.455v.962h-36.455zM992.194 499.824h36.455v.962h-36.455zM992.194 501.672h36.455v.962h-36.455zM992.194 503.52h36.455v.962h-36.455zM992.194 505.368h36.455v.962h-36.455zM992.194 507.216h36.455v.962h-36.455zM992.194 509.064h36.455v.962h-36.455zM992.194 510.912h36.455v.962h-36.455zM992.194 512.76h36.455v.962h-36.455zM992.194 514.608h36.455v.962h-36.455zM992.194 516.456h36.455v.962h-36.455zM992.194 518.304h36.455v.962h-36.455zM992.194 520.152h36.455v.962h-36.455zM992.194 522h36.455v.962h-36.455zM992.194 523.848h36.455v.962h-36.455zM992.194 525.696h36.455v.962h-36.455zM992.194 527.544h36.455v.962h-36.455zM992.194 529.393h36.455v.962h-36.455zM992.194 531.241h36.455v.962h-36.455zM992.194 533.089h36.455v.962h-36.455zM992.194 534.937h36.455v.962h-36.455zM992.194 536.785h36.455v.962h-36.455zM992.194 538.633h36.455v.962h-36.455zM992.194 540.481h36.455v.962h-36.455zM992.194 542.329h36.455v.962h-36.455z"/></g><ellipse transform="rotate(-42.998 1015.977 533.396)" cx="1015.965" cy="533.409" rx="10.238" ry="3.743"/><ellipse transform="rotate(-42.998 1002.002 533.396)" cx="1001.991" cy="533.409" rx="10.238" ry="3.743"/><ellipse transform="rotate(-42.998 1018.508 517.852)" cx="1018.497" cy="517.866" rx="10.238" ry="3.743"/><ellipse transform="rotate(-42.998 1005.648 517.852)" cx="1005.637" cy="517.866" rx="10.238" ry="3.743"/><path d="M1028.649 499.571c-7.634 1.287-21.245 4.876-31.746 16.253a47.976 47.976 0 0 0-4.709 6v-5.316a49.16 49.16 0 0 1 6.456-6.076c11.01-8.625 23.116-10.42 29.999-10.861z"/></g><linearGradient id="a" gradientUnits="userSpaceOnUse" x1="906.269" y1="686.578" x2="906.269" y2="613.136"><stop offset="0" stop-color="#847d8b"/><stop offset="1" stop-color="#6a626e"/></linearGradient><path fill="url(#a)" d="M866.136 613.137h80.267v73.441h-80.267z"/><path d="M869.276 612.044h-3.14v74.533c2.38-23.681 5.158-48.635 3.14-74.533z" fill="#4b474f"/><g><path fill="#4b474f" d="M1040.73 722.309H771.809V621.975h.819v99.515h267.283v-99.515h.819z"/></g><path d="M943.263 612.044h3.14v74.533c-2.381-23.681-5.158-48.635-3.14-74.533z" fill="#4b474f"/><path d="M1040.32 621.873c0-5.406-4.423-8.737-9.828-8.737H782.047c-5.406 0-9.829 3.331-9.829 8.737 0-5.406 4.423-9.829 9.829-9.829h248.445c5.405 0 9.828 4.423 9.828 9.829z"/></g></svg>