<svg xmlns="http://www.w3.org/2000/svg" viewBox="0 0 226.677 528.462"><path d="M226.677 359.573c0-1.359-.113-2.929-.71-4.269-.595-1.34-1.87-2.466-3.672-2.466v.884c-.348-.019-.865.027-.878.456l.168 61.06c-.664 21.81-7.004 40.758-17.119 57.372-.355.705.383 1.006.671.999a39.897 39.897 0 0 0 2.835-.208v.087c1.167 0 2.064.101 2.929 0 .858-.1 1.73-.59 2.219-1.481.007-.007.027.007.034 0 0-.007-.007-.021 0-.027 9.216-16.393 13.524-35.288 13.524-55.368v-57.039zm0 0M226.677 169.023c0 1.361-.113 2.929-.71 4.269-.595 1.347-1.87 2.467-3.672 2.467v-.879c-.348.014-.865-.034-.878-.456l.168-61.066c-.664-21.803-7.004-40.751-17.119-57.365-.355-.703.383-1.012.671-.999 1.172.046 2.097.12 2.835.208v-.087c1.167 0 2.064-.101 2.929 0 .858.094 1.73.583 2.219 1.474.007.007.027-.005.034 0 0 .007-.007.021 0 .027 9.216 16.402 13.524 35.288 13.524 55.377v57.03zm0 0" fill="#bdbdbd"/><path d="M222.408 111.213v144.881h-2.025v16.515h2.025v144.633c0 61.435-49.759 111.22-111.188 111.22C49.787 528.462 0 478.677 0 417.242c0-24.236 7.761-46.643 20.925-64.92v-.027l1.776-2.299a23.477 23.477 0 0 0 5.142-14.712V193.165a23.477 23.477 0 0 0-5.142-14.712l-1.776-2.299v-.021C7.756 157.87 0 135.463 0 111.213 0 49.787 49.78 0 111.213 0c61.428 0 111.188 49.787 111.188 111.213h.007zm0 0" fill="#ccc"/><path d="M59.304 199.652c.462.074.824-.12 1.078-.577l.436-.77c.643-1.079 1.522-1.589 2.629-1.534.508.026.957.16 1.347.395.402.242.717.577.932 1.005.221.422.321.885.307 1.388-.007.676-.268 1.22-.777 1.635-.503.408-1.179.609-2.03.602v-1.594c.342.014.623-.048.844-.161.201-.12.314-.323.328-.597 0-.275-.088-.51-.261-.71a1.012 1.012 0 0 0-.71-.369c-.415-.06-.752.175-1.019.698-.268.522-.496.904-.676 1.139-.597.75-1.395 1.105-2.407 1.059-.522-.027-.985-.154-1.386-.39a2.417 2.417 0 0 1-.913-.944c-.221-.403-.321-.858-.307-1.374.014-.362.086-.704.214-1.012.148-.323.362-.597.643-.825.556-.448 1.301-.662 2.225-.643l-.021 1.603c-.463-.014-.818.053-1.059.208-.228.148-.348.401-.348.77 0 .262.079.489.24.671.168.18.403.295.691.327zm0 0M64.23 233.178v-1.977l-7.387-.978v-1.603l7.387.973v-1.965l1.695.235v5.549l-1.695-.234zm0 0M59.948 225.886c-.643-.046-1.215-.208-1.704-.482a3.046 3.046 0 0 1-1.146-1.066 2.659 2.659 0 0 1-.381-1.455c.019-.717.328-1.273.911-1.675.597-.415 1.4-.637 2.406-.678.671-.026 1.409.027 2.205.168.791.134 1.483.362 2.066.671.595.321 1.038.69 1.333 1.112.288.429.429.899.415 1.4-.021.752-.321 1.342-.89 1.771-.583.429-1.381.669-2.394.717v-1.609c.563.007.959-.06 1.186-.221.242-.16.369-.408.383-.736.041-.851-.831-1.368-2.606-1.556-.812-.081-1.388-.12-1.73-.12-1.026-.021-1.555.261-1.589.851-.014.376.113.678.383.904.268.228.637.376 1.112.443l.04 1.561zm0 0M60.691 218.822v-2.507l-2.172-.275v2.963l-1.675-.221v-4.571l9.082 1.179v4.585l-1.695-.214v-2.982l-1.918-.249v2.514l-1.622-.222zm0 0M58.518 210.249v2.775l-1.675-.221v-4.375l9.082 1.179v1.609l-7.407-.967zm0 0M60.691 207.085v-2.507l-2.172-.275v2.963l-1.675-.221v-4.571l9.082 1.179v4.585l-1.695-.214v-2.982l-1.918-.249v2.514l-1.622-.222zm0 0M59.304 259.554c.462.072.824-.122 1.078-.577l.436-.772c.643-1.079 1.522-1.587 2.629-1.534.508.026.957.161 1.347.395.402.242.717.577.932 1.005.221.422.321.879.307 1.381-.007.676-.268 1.227-.777 1.635-.503.415-1.179.616-2.03.604v-1.589c.342.007.623-.048.844-.168.201-.12.314-.314.328-.59 0-.274-.088-.508-.261-.71-.168-.214-.401-.335-.71-.374-.415-.055-.752.18-1.019.703-.268.522-.496.897-.676 1.139-.597.75-1.395 1.098-2.407 1.052a3.064 3.064 0 0 1-1.386-.383 2.417 2.417 0 0 1-.913-.944c-.221-.403-.321-.865-.307-1.374.014-.369.086-.703.214-1.019.148-.314.362-.59.643-.817.556-.45 1.301-.664 2.225-.65l-.021 1.608c-.463-.021-.818.048-1.059.208-.228.148-.348.403-.348.765 0 .268.079.489.24.676.168.182.403.289.691.33zm0 0M64.23 288.474v-1.977l-7.387-.973v-1.608l7.387.978v-1.963l1.695.233v5.544l-1.695-.234zm0 0M61.731 277.736v.932c0 .256.079.482.24.678.168.187.396.328.691.408.281.081.563.106.837.067.462-.06.703-.288.731-.671v-1.084l-2.499-.33zm-1.677-.221l-3.21-.408v-1.609l9.082 1.181-.021 2.419c0 .764-.235 1.361-.71 1.783-.482.41-1.139.597-1.97.551-.657-.027-1.194-.168-1.623-.429a2.523 2.523 0 0 1-1.017-1.04l-3.634.918h-.106v-1.716l3.21-.757v-.893zm0 0M58.539 270.806l-1.695-.602v-1.771l9.082 3.62v1.515l-9.082 1.259v-1.676l1.695-.16v-2.185zm1.695.604v1.414l3.118-.302-3.118-1.112zm0 0M64.23 268.534v-1.971l-7.387-.978v-1.608l7.387.978v-1.965l1.695.235v5.544l-1.695-.235zm0 0" fill="#4c4c4c"/><path d="M112.488 174.975c-34.867 0-63.131-28.225-63.131-63.038s28.263-63.029 63.131-63.029c34.873 0 63.136 28.217 63.136 63.029s-28.263 63.038-63.136 63.038" fill="#999"/><path d="M112.487 174.975c-34.866 0-63.131-28.225-63.131-63.038s28.265-63.029 63.131-63.029c34.873 0 63.138 28.217 63.138 63.029s-28.265 63.038-63.138 63.038" fill="none" stroke="#999" stroke-width="1.373"/><path d="M112.495 173.024c-33.761 0-61.126-27.347-61.126-61.087 0-33.733 27.366-61.078 61.126-61.078 33.752 0 61.12 27.345 61.12 61.078 0 33.74-27.368 61.087-61.12 61.087" fill="#ccc"/><path d="M112.366 517.639c-55.361 0-100.242-44.881-100.242-100.242 0-55.363 44.881-100.249 100.242-100.249 55.363 0 100.249 44.886 100.249 100.249.001 55.361-44.886 100.242-100.249 100.242" fill="#666"/><path d="M128.312 155.846v-28.083h28.083a2.188 2.188 0 0 0 2.179-2.184v-27.28a2.182 2.182 0 0 0-2.179-2.177h-28.083V68.036a2.193 2.193 0 0 0-2.184-2.184H98.854a2.193 2.193 0 0 0-2.184 2.184v28.085H68.587a2.182 2.182 0 0 0-2.179 2.177v27.28c0 1.199.978 2.184 2.179 2.184H96.67v28.083c0 1.199.985 2.179 2.184 2.179h27.273a2.188 2.188 0 0 0 2.185-2.178" fill="#4c4c4c"/><path d="M115.355 72.427c-1.573-2.775-4.154-2.775-5.722 0l-6.1 10.757c-1.575 2.776-.844 5.048 1.628 5.048h14.658c2.473 0 3.203-2.272 1.628-5.048l-6.092-10.757c-1.573-2.775-4.154-2.775-5.722 0l-6.1 10.757c-1.575 2.776-.844 5.048 1.628 5.048h14.658c2.473 0 3.203-2.272 1.628-5.048l-6.092-10.757zm0 0M115.355 151.316c-1.573 2.775-4.154 2.775-5.722 0l-6.1-10.751c-1.575-2.781-.844-5.048 1.628-5.048h14.658c2.473 0 3.203 2.267 1.628 5.048l-6.092 10.751c-1.573 2.775-4.154 2.775-5.722 0l-6.1-10.751c-1.575-2.781-.844-5.048 1.628-5.048h14.658c2.473 0 3.203 2.267 1.628 5.048l-6.092 10.751zm0 0M151.831 114.799c2.775-1.575 2.775-4.149 0-5.724l-10.75-6.098c-2.776-1.575-5.048-.839-5.048 1.635v14.652c0 2.472 2.272 3.203 5.048 1.635l10.75-6.1c2.775-1.575 2.775-4.149 0-5.724l-10.75-6.098c-2.776-1.575-5.048-.839-5.048 1.635v14.652c0 2.472 2.272 3.203 5.048 1.635l10.75-6.1zm0 0M72.943 114.732c-2.774-1.575-2.774-4.149 0-5.724L83.7 102.91c2.775-1.57 5.048-.839 5.048 1.635v14.651c0 2.473-2.273 3.21-5.048 1.635l-10.757-6.099c-2.774-1.575-2.774-4.149 0-5.724L83.7 102.91c2.775-1.57 5.048-.839 5.048 1.635v14.651c0 2.473-2.273 3.21-5.048 1.635l-10.757-6.099zm0 0" fill="#666"/><path d="M180.384 228.729l-1.287-.47v.355l1.287.115zm1.534-13.238c0-.041-.019-.067-.039-.094l-1.541-.295h-.007c-.06 0-.108.041-.108.094v.268c0 .067.141.235.208.249l1.268.24c.074.014.22-.106.22-.173v-.289zm.61 53.606v1.494l-.63-.113v-.376l-4.478-.784v-.717l4.478.784v-.401l.63.113zm0-6.649v.63l-2.668.336 2.668.489v.717l-5.108-.939v-.63l2.963-.242-2.963-.583v-.738l5.108.96zm0-6.48v1.32l-.63-.088v-.717l-1.582-.293v.697l-.544-.094v-.71l-1.721-.295v.724l-.631-.12v-1.409l5.108.985zm0-8.125v.832l-2.963.134 2.95 1.273v.805l-5.094-.844v-.631l2.696.41-2.696-1.127v-.441l2.756-.136-2.756-.496v-.717l5.107.938zm0-7.398v.63l-2.668.328 2.668.496v.717l-5.108-.937v-.65l2.963-.228-2.963-.577v-.738l5.108.959zm0-5.771v.649l-5.108-.957v-.63l5.108.938zm0-5.945v.851l-5.108-.275v-.846l1.174.108v-.516l-1.174-.422v-.757l5.108 1.857zm0-7.447v1.494l-.63-.094v-.376l-4.478-.803v-.717l4.478.784v-.403l.63.115zm0-6.395v1.421c0 .269-.235.443-.516.39l-1.81-.341c-.194-.034-.355-.376-.429-.556v.093h-.019v.087l-.027.021v.067h-.021v.046h-.026v.021c-.053.033-.214.046-.249.046-.026 0-2.011-.362-2.011-.362v-.643s1.783.348 1.85.355a.835.835 0 0 0 .256-.026c.053 0 .148-.007.201-.062v-.448l-2.306-.429v-.643l5.107.963zm0-6.312v1.34l-.63-.108v-.697l-1.582-.309v.691l-.544-.088v-.697l-1.721-.288v.69l-.631-.088v-1.428l5.108.982zm0-6.502v1.474l-.63-.094v-.376l-4.478-.81v-.717l4.478.784v-.402l.63.141zm0-6.717v.625l-2.668.341 2.668.489v.738l-5.108-.959v-.63l2.963-.242-2.963-.589v-.731l5.108.958zm0-6.172v1.319l-.63-.086v-.717l-1.582-.288v.69l-.544-.088v-.717l-1.721-.268v.69l-.631-.113v-1.428l5.108 1.006zm.187 120.122v.83l-2.943.134 2.917 1.273.026.805-5.093-.851v-.623l2.694.402-2.694-1.112v-.456l2.761-.134-2.761-.489v-.738l5.093.959zm0-5.523v1.34l-.609-.106v-.698l-1.609-.307v.71l-.522-.108v-.697l-1.716-.288v.69l-.637-.093v-1.421l5.093.978zm0-5.858v1.495l-.609-.108v-.381l-4.483-.777v-.745l4.483.784v-.383l.609.115zm0-5.214v1.098c0 .263-.221.45-.496.403l-1.273-.249v-.602l.837.134c.196.033.343-.081.343-.268a.416.416 0 0 0-.343-.403l-.609-.113c-.034-.021-.208.033-.228.067-.046.081-1.368.879-1.467.879-.048.019-.074.019-.094.019a106.77 106.77 0 0 0-1.287-.221c-.261-.053-.475-.3-.475-.556v-.964c0-.263.214-.429.475-.383l1.287.221v.65l-.925-.154c-.189-.034-.362.088-.362.268 0 .189.173.362.362.403l.743.134c.316-.129 1.455-.913 1.723-.966.034-.026.196-.046.316-.046.134.007.978.18.978.18l.021.027h.039l.048.021h.026l.021.019h.027l.019.027h.021l.021.021.026.019h.027v.021l.014.027.027.021.019.026.021.021.027.021.019.026v.021l.027.021v.026l.021.021v.074l.024.009zm0-7.313v.805l-1.923.113 1.923 1.033v.805l-2.943-1.656-2.15-.403v-.717l2.311.362 2.782-.342zm0-5.141v1.093c0 .268-.221.455-.496.401l-1.273-.249v-.595l.837.134c.196.027.343-.088.343-.275a.428.428 0 0 0-.343-.403l-.609-.106c-.034-.021-.208.033-.228.06-.046.088-1.368.878-1.467.878-.048.021-.074.026-.094.021a56.991 56.991 0 0 1-1.287-.249.584.584 0 0 1-.475-.556v-.939c0-.261.214-.429.475-.383l1.287.228v.643l-.925-.154c-.189-.033-.362.081-.362.268 0 .182.173.376.362.403l.743.134c.316-.12 1.455-.911 1.723-.966.034-.026.196-.046.316-.039.134.007.978.18.978.18v.021h.06l.048.027h.026l.021.014h.027l.019.026h.021l.046.048h.027v.019l.014.021.046.046h.021v.027l.027.014.019.026v.021l.027.027v.021l.021.019v.074l.025.02zm-6.741-93.841V314.07h7.533V186.416h-7.533zm29.764 45.443v1.388c0 .3-.703.951-1.018.891l-5.657-1.186c-.288-.055-.987-.779-.987-1.072v-1.227c0-.256.161-.436.403-.45.039 0 .093-.007.134 0l6.944 1.321.026.019.021.021.021.046v.027l.021.021.026.019v.021l.021.021v.026l.027.048v.067h.018zm0-17.83v1.388c0 .309-.703.952-1.018.89l-5.678-1.179c-.288-.06-.966-.45-.966-.738v-1.723l.021-.026v-.088h.021v-.041l.021-.026v-.021l.019-.027.027-.019v-.027h.021l.026-.014.021-.026h.027l.039-.041h.046l.021-.026h.046l.027-.021h.021c.039 0 .093-.007.134 0l6.944 1.34c.107.123.18.278.18.425m.095 97.784v.086c0 .846-.69 1.402-1.536 1.254l-15.046-2.689c-.851-.141-1.561-.918-1.561-1.762s.71-1.193 1.561-1.052l15.046 2.666.067.021.062.027.093.014.067.026.087.021.067.021.074.019.067.048.067.026.067.041.067.026.069.041.046.046.134.094.046.06.048.046.039.048.094.134.046.039.041.067.026.074.048.067.019.041.021.087.027.074v.067l.019.067v.087l.028.068zm0-11.522v1.319c0 .851-.69 1.421-1.536 1.28l-15.046-2.821c-.851-.148-1.561-.966-1.561-1.81v-1.301l18.143 3.333zm2.647 9.846c0-1.227-1.019-2.399-2.285-2.62l-18.572-3.198c-1.187-.208-2.126.57-2.126 1.75v4.719c0 1.179.939 2.332 2.126 2.546l18.572 3.466c1.266.235 2.285-.563 2.285-1.783v-4.88zm0-12.279l-22.984-4.324v6.536c0 1.186.939 2.325 2.126 2.553l18.572 3.466c1.266.233 2.285-.565 2.285-1.79v-6.441zm0-11.388l-22.984-4.317v3.312l13.318 2.661-13.318 1.052v2.862l22.984 4.317v-3.305l-12.018-2.219 12.018-1.481v-2.882zm0-7.265l-22.984-4.478v6.441l2.85.45v-3.178l7.754 1.321v3.176l2.4.45v-3.176l7.124 1.386v3.178l2.855.443v-6.013zm0-7.875l-2.855-.537v1.79l-20.129-3.531v3.264l20.129 3.6v1.723l2.855.448v-6.757zm0-11.086l-22.984-4.324v3.312l13.318 2.661-13.318 1.052v2.862l22.984 4.317v-3.312l-12.018-2.212 12.018-1.474v-2.882zm0-4.364l-22.984-4.317v2.855l22.984 4.324v-2.862zm0-11.367l-22.984-4.317v3.291l13.318 2.661-13.318 1.052v2.862l22.984 4.317v-3.291l-12.018-2.232 12.018-1.474v-2.869zm0-15.323l-22.984-4.29v2.862l10.403 1.944v2.037c-.256.269-.717.295-.952.343-.335.046-.77.106-1.105.06-.336-.034-8.346-1.561-8.346-1.561v2.862s8.727 1.608 8.867 1.608c.141.007.583 0 .832-.154.16-.106.522-.288.657-.496.261-.395.434-.844.434-.844v-.201c.323.812.858 2.359 1.743 2.521l8.164 1.568c1.266.24 2.285-.563 2.285-1.79v-6.469zm0-7.686l-22.984-4.478v6.448l2.85.45v-3.178l7.754 1.294v3.178l2.4.443v-3.171l7.124 1.407v3.178l2.855.443v-6.014zm0-10.222l-22.984-4.317v2.862l10.403 1.971v3.644c0 1.187.945 2.306 2.131 2.527l8.164 1.561c1.266.235 2.285-.563 2.285-1.79v-6.458zm0-10.288l-20.858-3.579c-1.187-.208-2.126.589-2.126 1.769v4.269c0 1.181.939 2.334 2.126 2.553l20.858 3.821v-2.687l-20.274-3.639c-.288-.055-.544-.343-.544-.631v-2.117c0-.302.256-.496.544-.456l20.274 3.56v-2.863zm0-8.231c0-1.227-1.019-2.419-2.285-2.641h-.074l-.021-.021h-.067l-.046-.021h-.041l-.046-.019h-.067l-.046-.027h-.067l-.074-.021-.062-.026-.141-.027-.153-.039-.161-.021-.161-.048-.18-.019-.175-.048-.208-.039-.182-.046-.381-.067-.201-.048-.189-.039-.18-.027-.182-.039-.18-.048-.182-.019-.153-.021-.142-.046-.153-.027h-.067l-.048-.021h-.106l-.074-.026h-.088l-.046-.021h-.048c-.556-.021-1.306.053-1.446.228-1.213.214-6.858 4.23-7.716 4.115-.863-.113-3.391-.583-3.391-.583-.851-.148-1.536-.724-1.536-1.568 0-.837.678-1.414 1.536-1.273l4.202.757v-2.996l-5.83-1.005c-1.187-.201-2.126.59-2.126 1.771v4.269c0 1.186.939 2.313 2.126 2.527 0 0 5.448 1.105 5.83 1.098.396-.007.436-.113.436-.113.443 0 6.407-3.572 6.628-3.934.094-.161.685-.288 1.04-.295.355-.007 2.74.468 2.74.468.846.148 1.536.952 1.536 1.796 0 .844-.69 1.194-1.536 1.047l-3.78-.643v3.015l5.678 1.054c1.266.233 2.285-.563 2.285-1.79v-4.433zm0 0" fill="#4c4c4c"/><path d="M99.036 231.497l-17.702-22.573c-6.146-7.802 4.988-17.548 11.63-9.116l17.694 22.574c6.212 8.07-5.328 17.299-11.622 9.115M99.036 288.239l-17.702-22.573c-6.146-7.802 4.988-17.548 11.63-9.115l17.694 22.573c6.212 8.07-5.328 17.3-11.622 9.115" fill="#666"/><path d="M184.835 451.806l.039-3.686-5.535 4.652-6.033-4.96.027 3.466 3.886 3.27-3.886 3.27-.027 3.466 6.033-4.96 5.535 4.652-.039-3.686-3.332-2.742 3.332-2.742zm0 0M143.929 497.196l-.014 1.721.014 1.723-11.409 5.208-.012-2.8 2.862-1.301.033-5.643-2.895-1.314.012-2.802 11.409 5.208zm-6.234 3.492l3.9-1.771-3.84-1.742-.06 3.513zm0 0M88.271 334.474v-3.118l-6.414 5.161H76.59v2.721h5.295l6.386 5.141v-3.116l-4.248-3.399 4.248-3.39zm0 0" fill="#d8d8d8"/><path d="M48.359 377.691v7.601h-.007c-.309 4.744-5.383 5.053-5.611.328-.221 5.758-5.918 5.369-6.16-.328v-.027l-.007-.127h.007v-7.447h11.778zm-9.605 7.559c.302 1.817 2.359 1.93 2.728.041v-4.571h-2.728v4.53zm4.898-.039c.738 1.951 2.347 1.126 2.534.081v-4.571h-2.534v4.49zm0 0" fill="#ccc"/><path d="M132.092 367.027c0-11.434-9.296-20.731-20.731-20.731s-20.731 9.296-20.731 20.731c0 11.434 9.296 20.731 20.731 20.731s20.731-9.297 20.731-20.731zm-1.756 0c0 10.491-8.485 18.975-18.975 18.975-10.489 0-18.98-8.485-18.98-18.975 0-10.489 8.492-18.974 18.98-18.974 10.491 0 18.975 8.485 18.975 18.974zm0 0M171.302 417.362c0-11.441-9.29-20.703-20.731-20.703-11.434 0-20.724 9.262-20.724 20.703 0 11.434 9.29 20.731 20.724 20.731 11.441 0 20.731-9.296 20.731-20.731zm-1.75 0c0 10.489-8.492 18.975-18.981 18.975-10.482 0-18.975-8.487-18.975-18.975s8.493-18.955 18.975-18.955c10.489.001 18.981 8.466 18.981 18.955zm0 0M93.808 419.025c0-11.434-9.296-20.731-20.731-20.731-11.441 0-20.705 9.296-20.705 20.731 0 11.434 9.264 20.703 20.705 20.703 11.435 0 20.731-9.269 20.731-20.703zm-1.757 0c0 10.489-8.485 18.948-18.974 18.948s-18.948-8.459-18.948-18.948 8.459-18.975 18.948-18.975c10.489-.001 18.974 8.486 18.974 18.975zm0 0M133.016 469.36c0-11.434-9.296-20.731-20.731-20.731s-20.724 9.296-20.724 20.731c0 11.434 9.29 20.731 20.724 20.731s20.731-9.296 20.731-20.731zm-1.748 0c0 10.489-8.492 18.974-18.975 18.974-10.489 0-18.981-8.485-18.981-18.974s8.492-18.975 18.981-18.975c10.483 0 18.975 8.487 18.975 18.975zm0 0" fill="#f4f4f4"/><path d="M127.34 488.449c-10.636 8.291-25.966 6.4-34.257-4.243l-39.21-50.329c-8.291-10.643-6.373-25.973 4.271-34.257 10.643-8.291 25.966-6.4 34.257 4.243l39.188 50.363c3.111 3.988 4.799 8.612 5.122 13.303.528 7.816-2.715 15.745-9.371 20.92zm0 0" fill="#d8d8d8"/><path d="M133.004 469.36c0 11.448-9.264 20.717-20.719 20.717-11.446 0-20.71-9.269-20.71-20.717 0-11.455 9.264-20.717 20.71-20.717 11.456.001 20.719 9.263 20.719 20.717zm0 0" fill="#47449e"/><path d="M165.511 436.633c-10.643 8.284-25.966 6.393-34.257-4.25l-39.215-50.329c-8.284-10.643-6.367-25.973 4.276-34.257 10.643-8.291 25.966-6.4 34.257 4.243l39.183 50.361c3.109 3.989 4.804 8.613 5.127 13.305.527 7.816-2.715 15.745-9.371 20.927zm0 0" fill="#d8d8d8"/><path d="M171.288 417.376c0 11.448-9.262 20.717-20.717 20.717-11.448 0-20.717-9.269-20.717-20.717s9.269-20.717 20.717-20.717c11.455 0 20.717 9.269 20.717 20.717zm0 0" fill="#a59ef7"/><path d="M93.808 419.011c0 11.448-9.269 20.717-20.717 20.717-11.455 0-20.719-9.269-20.719-20.717s9.264-20.717 20.719-20.717c11.448 0 20.717 9.269 20.717 20.717zm0 0" fill="#47449e"/><path d="M132.08 367.027c0 11.448-9.271 20.717-20.719 20.717-11.453 0-20.717-9.269-20.717-20.717s9.264-20.717 20.717-20.717c11.448 0 20.719 9.269 20.719 20.717zm0 0" fill="#a59ef7"/><circle cx="112.439" cy="111.942" r="11.582" fill="#595959"/></svg>