<svg xmlns="http://www.w3.org/2000/svg" viewBox="0 0 519.75 337.125"><path d="M517.625 64H3.375a2.13 2.13 0 0 1-2.125-2.125v-41.75A4.638 4.638 0 0 1 5.875 15.5h511.75a2.13 2.13 0 0 1 2.125 2.125v44.25A2.13 2.13 0 0 1 517.625 64zM514.028 118.557H4.472A4.485 4.485 0 0 1 0 114.085V74.528a4.485 4.485 0 0 1 4.472-4.472h509.557a4.485 4.485 0 0 1 4.472 4.472v39.557a4.487 4.487 0 0 1-4.473 4.472z" fill="#807887"/><path fill="#48434b" d="M6.167 64h508.667v2.417H6.167z"/><path fill="#746c7a" d="M6.167 66.417h508.667v3.64H6.167z"/><path fill="#48434b" d="M4.917 118.557h508.667v2.417H4.917z"/><path fill="#746c7a" d="M4.917 120.973h508.667v3.64H4.917z"/><path d="M514.028 173.113H4.472A4.485 4.485 0 0 1 0 168.641v-39.557a4.485 4.485 0 0 1 4.472-4.472h509.557a4.485 4.485 0 0 1 4.472 4.472v39.557a4.486 4.486 0 0 1-4.473 4.472z" fill="#807887"/><path fill="#48434b" d="M4.917 173.113h508.667v2.417H4.917z"/><path fill="#746c7a" d="M4.917 175.53h508.667v3.64H4.917z"/><path d="M514.028 227.67H4.472A4.485 4.485 0 0 1 0 223.198v-39.557a4.485 4.485 0 0 1 4.472-4.472h509.557a4.485 4.485 0 0 1 4.472 4.472v39.557a4.486 4.486 0 0 1-4.473 4.472z" fill="#807887"/><path fill="#48434b" d="M4.917 227.67h508.667v2.417H4.917z"/><path fill="#746c7a" d="M4.917 230.087h508.667v3.64H4.917z"/><path d="M514.028 280.407H4.472A4.485 4.485 0 0 1 0 275.935v-39.557a4.485 4.485 0 0 1 4.472-4.472h509.557a4.485 4.485 0 0 1 4.472 4.472v39.557a4.487 4.487 0 0 1-4.473 4.472z" fill="#807887"/><path fill="#48434b" d="M4.917 280.407h508.667v2.417H4.917z"/><path fill="#746c7a" d="M4.917 282.823h508.667v3.64H4.917z"/><path d="M514.028 336.625H4.472A4.485 4.485 0 0 1 0 332.153v-41.218a4.485 4.485 0 0 1 4.472-4.472h509.557a4.485 4.485 0 0 1 4.472 4.472v41.218a4.486 4.486 0 0 1-4.473 4.472z" fill="#807887"/><path d="M440.833 336.5H80.167v-324c0-6.6 5.4-12 12-12h336.667c6.6 0 12 5.4 12 12v324z" fill="#807886"/><circle cx="46.628" cy="314.086" r="9.75" fill="#201c24"/><path fill="none" stroke="#000" stroke-miterlimit="10" d="M40.552 316.602l1.117-6.021 5.773-2.043 4.655 3.978-1.117 6.02-5.772 2.043z"/><path fill="#5e585e" d="M51.347 316.602H40.552l1.117-6.021 5.773-2.043 4.655 3.978-.758 4.083"/><path fill="#2a2727" d="M51.347 316.604H40.552l4.656 3.978 5.772-2.043.359-1.937"/><circle cx="474.372" cy="314.086" r="9.75" fill="#201c24"/><path fill="none" stroke="#000" stroke-miterlimit="10" d="M480.448 316.602l-1.117-6.021-5.773-2.043-4.655 3.978 1.117 6.02 5.772 2.043z"/><path fill="#5e585e" d="M469.653 316.602h10.795l-1.117-6.021-5.773-2.043-4.655 3.978.758 4.083"/><path fill="#2a2727" d="M469.653 316.604h10.795l-4.656 3.978-5.772-2.043-.359-1.937"/><path d="M96.833 214.625c0-6.6 5.4-12 12-12h303.333c6.6 0 12 5.4 12 12" fill="none" stroke="#665f6b" stroke-miterlimit="10"/><path d="M441.334 337H79.667V12.5c0-6.893 5.607-12.5 12.5-12.5h336.667c6.893 0 12.5 5.607 12.5 12.5V337zm-360.667-1h359.667V12.5c0-6.341-5.159-11.5-11.5-11.5H92.167c-6.341 0-11.5 5.159-11.5 11.5V336z" fill="#4b474f"/><path d="M410.083 151H110.917c-6.6 0-12-5.4-12-12V.5h323.167V139c-.001 6.6-5.401 12-12.001 12z"/><path d="M120.866 105.791c7.11 0 12.873 4.015 12.873 8.966 0 4.952-5.764 8.967-12.873 8.967s-12.873-4.015-12.873-8.967c-.001-4.951 5.763-8.966 12.873-8.966z" fill="#fff"/><g fill="#a58252"><path d="M118.096 120.053h.397v.021c0 .124.039.219.116.285.077.065.19.098.338.098a.43.43 0 0 0 .264-.071.237.237 0 0 0 .093-.201c0-.072-.02-.126-.061-.16-.041-.034-.123-.06-.247-.078l-.276-.039c-.202-.03-.351-.095-.446-.195-.095-.1-.142-.241-.142-.424 0-.216.068-.392.206-.528a.74.74 0 0 1 .544-.204c.243 0 .433.064.57.192.137.128.206.304.206.526v.018h-.389c-.009-.111-.045-.193-.109-.248-.063-.055-.154-.082-.272-.082a.424.424 0 0 0-.254.066.219.219 0 0 0-.09.187c0 .065.018.112.053.142.035.03.122.056.261.078l.288.043c.2.031.347.098.441.203s.141.252.141.443c0 .245-.071.431-.211.559-.141.128-.347.191-.618.191-.258 0-.457-.067-.596-.201-.139-.134-.208-.325-.208-.574l.001-.047zM121.286 120.281a.848.848 0 0 1-.248.439.631.631 0 0 1-.43.155.616.616 0 0 1-.51-.237c-.125-.158-.188-.373-.188-.644s.062-.485.187-.642a.618.618 0 0 1 .511-.236c.224 0 .396.082.517.245.121.163.182.395.182.697v.07h-.994a.49.49 0 0 0 .083.288.25.25 0 0 0 .211.107.262.262 0 0 0 .176-.063.357.357 0 0 0 .107-.177l.396-.002zm-.962-.497l.582.002a.382.382 0 0 0-.088-.241.261.261 0 0 0-.203-.088.26.26 0 0 0-.203.088.386.386 0 0 0-.088.239zM122.831 120.552c0 .064.004.113.013.148a.158.158 0 0 0 .043.079v.037h-.397l-.018-.18a.607.607 0 0 1-.212.18.609.609 0 0 1-.273.058.493.493 0 0 1-.378-.147.56.56 0 0 1-.138-.399c0-.156.041-.272.124-.349.083-.077.225-.127.426-.151l.112-.01c.231-.023.347-.086.347-.19 0-.062-.022-.109-.067-.14a.352.352 0 0 0-.2-.046c-.09 0-.156.022-.198.066-.042.044-.064.113-.065.206l-.377.002v-.006c0-.193.056-.341.17-.442.113-.102.276-.152.49-.152.105 0 .198.015.279.044a.515.515 0 0 1 .204.13.385.385 0 0 1 .088.169c.017.068.026.171.026.309l.001.784zm-.351-.528c-.045.035-.131.061-.257.079a.52.52 0 0 1-.035.006c-.135.02-.22.044-.256.073-.036.029-.053.074-.053.134 0 .064.018.115.053.153a.184.184 0 0 0 .141.057.384.384 0 0 0 .297-.124.458.458 0 0 0 .114-.322l-.001-.036-.003-.02zM123.151 120.816v-2.201h.357v2.201h-.357z"/></g><path d="M135.273 114.763l1.539 1.649-2.2 1.321.618 2.553-2.367.065-.163 2.78-2.638-.727-.445 2.624-2.442-.97-1.273 2.314-1.907-1.65-1.663 2.345-1.831-1.99-2.001 1.858-1.307-2.188-2.36 1.389-.816-2.45-2.732 1.077-.402-2.416-2.444.152.366-2.46-2.5-.01.585-2.686-1.939-1.09 1.543-1.753-1.385-2.437 2.253-.713-.593-2.607 2.471-.033.286-2.586 2.235.742.74-2.52 2.258 1.221.934-2.23 1.956 1.359 1.374-2.119 1.847 1.846 1.632-1.688 1.431 2.128 2.235-1.437.887 2.348 2.247-1.063.578 2.45 2.663-.474-.081 2.398 2.691.29-.762 2.317 2.344 1.004-1.462 2.067zm-1.534-.006c0-4.951-5.764-8.966-12.873-8.966s-12.873 4.015-12.873 8.966c0 4.952 5.764 8.967 12.873 8.967s12.873-4.015 12.873-8.967z" fill="#a58252"/><g fill="#a58252"><path d="M116.603 110.142c0-.595.338-.743.578-.743.24 0 .577.148.577.743s-.337.744-.577.744c-.24 0-.578-.148-.578-.744zm-.443 0c0 .997.739 1.118 1.021 1.118.282 0 1.021-.121 1.021-1.118 0-.997-.739-1.118-1.021-1.118-.281 0-1.021.122-1.021 1.118zM118.945 111.205h-.415v-1.276h-.228v-.297h.228v-.128c0-.327.178-.451.462-.451.121 0 .178.003.213.006v.334h-.115c-.142 0-.145.045-.145.176v.063h.269v.297h-.269v1.276zM119.871 111.205h-.414v-1.276h-.228v-.297h.228v-.128c0-.327.178-.451.462-.451.121 0 .178.003.213.006v.334h-.115c-.142 0-.145.045-.145.176v.063h.269v.297h-.269l-.001 1.276zM120.744 109.631v1.573h-.414v-1.573h.414zm0-.189h-.414v-.384h.414v.384zM122.437 110.631a.673.673 0 0 1-.72.614c-.593 0-.729-.453-.729-.782 0-.507.222-.871.756-.871.249 0 .658.113.696.603h-.42c-.018-.103-.083-.266-.276-.254-.261 0-.329.26-.329.454 0 .171.006.51.32.51.211 0 .282-.201.282-.274h.42zM123.094 109.631v1.573h-.415v-1.573h.415zm0-.189h-.415v-.384h.415v.384zM124.301 110.641c0 .189-.186.307-.369.307-.08 0-.192-.044-.192-.189 0-.171.127-.209.281-.236.171-.027.239-.053.28-.085v.203zm.405-.594c0-.388-.405-.456-.627-.456-.322 0-.657.068-.703.551h.4c.012-.092.047-.219.254-.219.106 0 .271.009.271.183 0 .088-.08.115-.145.124l-.372.056c-.263.038-.459.195-.459.502 0 .323.243.457.48.457a.64.64 0 0 0 .508-.229.671.671 0 0 0 .039.188h.447v-.062c-.05-.018-.092-.059-.092-.245l-.001-.85zM125.443 111.205h-.414v-2.125h.414z"/></g><path d="M120.866 122.981c6.652 0 12.063-3.689 12.063-8.224s-5.411-8.224-12.063-8.224c-6.652 0-12.063 3.689-12.063 8.224s5.411 8.224 12.063 8.224zm-11.767-8.224c0-4.371 5.278-7.928 11.766-7.928s11.767 3.556 11.767 7.928-5.278 7.927-11.767 7.927c-6.487 0-11.766-3.556-11.766-7.927z" fill="#a58252"/><g fill="#a58252"><path d="M128.453 117.524a2.56 2.56 0 0 0 2.556-2.556 2.56 2.56 0 0 0-2.556-2.556H113.15a2.56 2.56 0 0 0-2.556 2.556 2.56 2.56 0 0 0 2.556 2.556h15.303zm-15.303-.663a1.894 1.894 0 0 1-1.892-1.892c0-1.043.849-1.892 1.892-1.892h15.302c1.043 0 1.892.849 1.892 1.892a1.894 1.894 0 0 1-1.892 1.892H113.15z"/><path d="M112.495 116.189v-2.407h.752l1.004 1.56.003-1.56h.78v2.407h-.78c-.068-.148-.967-1.552-.967-1.552v1.552h-.792zM117.241 114.581a.584.584 0 0 0 .085.079c.073-.048.131-.092.21-.119.593-.203.901.138.961.194.271.25.188.931.205 1.454h-.788s.013-.98.002-1.113c-.01-.116-.176-.257-.273-.261-.163-.006-.365.078-.374.262-.018.374.006 1.111.006 1.111h-.772v-1.61l.738.003zM119.076 114.396l-.001-.229h.772v.229h.369l-.003.216h-.366v1.577h-.771v-1.578h-.349v-.215zM120.152 115.38c-.014-.527.476-.859.891-.881.196-.01.398-.025.576.057.112.053.241.07.333.158a.903.903 0 0 1 .302.677l-1.319-.004c0 .207-.116.68.246.688.138.003.216-.022.267-.141a.63.63 0 0 0 .03-.295c.133.008.693-.008.761-.006-.151.421-.607.603-1.047.603-.183.002-1.02-.081-1.04-.856zm.782-.252l.532-.002c0-.091 0-.141-.011-.215-.014-.1-.094-.241-.261-.234-.227.01-.26.138-.26.279v.172zM127.333 115.723c-.138-.182-.159-.539-.03-.804.113-.231.403-.402.556-.452.207-.067.544-.086.827-.018a.95.95 0 0 1 .632.469c.127.231.104.61-.038.806-.092.126-.295.343-.523.403-.198.053-.605.082-.82.015a1.08 1.08 0 0 1-.604-.419zm.985.277c.218.002.268-.169.272-.276.009-.245-.005-.549-.005-.806.001-.132-.074-.307-.272-.307-.285 0-.274.223-.277.307-.006.141-.006.623-.003.805 0 .061.029.276.285.277zM126.959 116.188h-.694c-.003 0-.016-.093-.016-.093-.194.151-.974.226-1.276-.409-.027-.056-.105-.469.008-.722.184-.411.609-.502.911-.484.121.007.354.132.354.132l.001-.88h.712s.008 2.457 0 2.456zm-.725-.404c.022-.071.011-.532.011-.758a.459.459 0 0 0-.061-.18c-.059-.072-.104-.11-.223-.105a.263.263 0 0 0-.245.225c-.018.226-.031.458.005.746.008.068.04.133.102.178.169.12.368.029.411-.106zM116.154 116.189v-1.627h-.796v1.627zM116.154 114.288v-.506h-.796v.506zM123.266 114.568a.584.584 0 0 0 .085.079c.073-.048.131-.092.21-.119.593-.203.901.139.961.194.271.251.188.931.205 1.454h-.788s.013-.98.002-1.113c-.01-.116-.176-.257-.273-.261-.163-.006-.365.078-.374.262-.018.374-.011 1.123-.011 1.123h-.747v-1.623l.73.004zM128.947 114.307h-.052v-.243h.091c.062 0 .1.018.1.073 0 .045-.026.061-.059.063l.062.106h-.061l-.056-.102h-.025v.103zm.046-.143c.023 0 .037-.005.037-.032 0-.025-.027-.027-.047-.027h-.037v.059h.047zm-.009.248a.219.219 0 0 1-.227-.226c0-.143.107-.226.227-.226.12 0 .226.083.226.226a.218.218 0 0 1-.226.226zm0-.4c-.089 0-.162.069-.162.173s.072.174.162.173v.001c.087 0 .161-.07.161-.174s-.073-.173-.161-.173z"/></g><g><path d="M108.183 40.547c-2.93-.001-4.888-2.077-4.888-4.596 0-2.518 1.963-4.619 4.885-4.611h27.607c2.92-.008 4.883 2.093 4.883 4.611 0 2.519-1.958 4.594-4.888 4.596h-27.599z" fill="#ed1c24"/><path d="M108.192 32.472c-2.32.004-3.744 1.556-3.744 3.473 0 1.918 1.416 3.481 3.744 3.473h27.579c2.33.008 3.744-1.554 3.744-3.473 0-1.918-1.424-3.469-3.744-3.473h-27.579z" fill="#fff"/><path d="M107.002 33.768h1.351l1.868 3.023-.001-3.023h1.339v4.335h-1.338l-1.878-3.023v3.023H107l.002-4.335zM118.845 34.214h1.305v.583h.706v.429h-.706l.001 2.877h-1.306l.001-2.877h-.708v-.427l.708-.001-.001-.584zM112.306 35.22h1.304v2.883h-1.304V35.22zM112.303 33.767h1.307v.887h-1.307v-.887zM135.148 35.025c-1.052 0-1.905.723-1.905 1.618 0 .893.853 1.618 1.905 1.618 1.053 0 1.904-.725 1.904-1.618 0-.895-.851-1.618-1.904-1.618m.524 1.613l-.001.611c0 .459-.271.648-.533.648s-.534-.189-.534-.648l.001-.622.001-.6c0-.458.274-.646.533-.646.26 0 .533.188.533.646 0 .175-.001.498.001.613l-.001-.002zM131.541 36.647v-.516c0-.446-.308-.559-.51-.559-.208 0-.511.113-.511.559v1.026c0 .447.303.562.511.562.202 0 .51-.115.51-.562v-.51zm-.009-2.879h1.286v4.334h-1.288l-.001-.166a1.575 1.575 0 0 1-1.501.109 1.543 1.543 0 0 1-.891-1.43c0-.761.717-1.592 1.657-1.509.309.027.529.14.738.258v-1.596zM116.661 35.088c.488-.014 1.476.305 1.469 1.446l-.001 1.569h-1.294V36.21c0-.252-.24-.53-.596-.53-.355 0-.619.279-.619.53l.001 1.893h-1.294l-.001-2.882 1.295-.001v.303c.25-.238.61-.423 1.04-.435M127.253 35.088c.487-.014 1.476.305 1.47 1.446-.001.204 0 1.569 0 1.569h-1.296V36.21c0-.252-.24-.53-.596-.53-.355 0-.618.279-.618.53l.001 1.893h-1.294V35.22l1.294-.001v.303a1.57 1.57 0 0 1 1.039-.434M123.153 37.094l.001.175c0 .527-.346.644-.539.644-.192 0-.546-.117-.546-.644l.001-.595s2.455.001 2.455-.001c0-.893-.863-1.633-1.923-1.633s-1.919.723-1.919 1.618c0 .895.859 1.618 1.919 1.618.879 0 1.623-.502 1.849-1.183l-1.298.001zm-1.083-.869c-.003-.252.003-.421.086-.565a.53.53 0 0 1 .916 0c.083.144.088.313.086.565h-1.088zM137.321 34.244c.127 0 .24-.008.24-.161 0-.122-.111-.144-.215-.144h-.203v.305h.178zm-.178.555h-.149v-.986h.374c.234 0 .349.086.349.281 0 .177-.111.253-.256.271l.28.434h-.167l-.261-.428h-.171l.001.428z" fill="#ed1c24"/><path d="M137.323 35.019c.388 0 .693-.303.693-.716a.69.69 0 0 0-.693-.71.692.692 0 0 0-.697.71c0 .413.306.716.697.716m-.868-.715c0-.491.398-.853.868-.853a.855.855 0 1 1 0 1.711.855.855 0 0 1-.868-.858" fill="#ed1c24"/></g><g fill="#fff"><path d="M105.327 21.575v-4.736h.971v3.931h2.415v.805h-3.386zM109.375 21.575V16.8h.971v4.775h-.971zM114.348 19.819l.941.296c-.145.521-.384.908-.72 1.161-.335.253-.761.379-1.277.379-.639 0-1.164-.217-1.575-.65s-.617-1.025-.617-1.777c0-.794.207-1.412.62-1.852.414-.439.957-.659 1.63-.659.588 0 1.066.172 1.434.518.219.204.383.498.492.879l-.961.228a1.01 1.01 0 0 0-.356-.586 1.028 1.028 0 0 0-.658-.215 1.1 1.1 0 0 0-.868.381c-.222.254-.333.666-.333 1.234 0 .604.109 1.033.328 1.29.218.256.503.384.853.384.258 0 .48-.082.666-.244.187-.161.32-.417.401-.767zM116.123 21.575V16.8h3.566v.808h-2.595v1.058h2.414v.805h-2.414v1.299h2.687v.805h-3.658zM120.614 21.575V16.8h.945l1.968 3.189V16.8h.902v4.775h-.975l-1.938-3.114v3.114h-.902zM128.533 19.819l.941.296c-.145.521-.384.908-.72 1.161-.335.253-.761.379-1.277.379-.639 0-1.164-.217-1.575-.65s-.617-1.025-.617-1.777c0-.794.207-1.412.62-1.852.414-.439.957-.659 1.63-.659.588 0 1.066.172 1.434.518.219.204.383.498.492.879l-.961.228a1.01 1.01 0 0 0-.356-.586 1.028 1.028 0 0 0-.658-.215 1.1 1.1 0 0 0-.868.381c-.222.254-.333.666-.333 1.234 0 .604.109 1.033.328 1.29.218.256.503.384.853.384.258 0 .48-.082.666-.244.187-.161.32-.417.401-.767zM130.308 21.575V16.8h3.566v.808h-2.595v1.058h2.414v.805h-2.414v1.299h2.687v.805h-3.658zM134.785 16.8h1.775c.4 0 .705.031.915.091.282.083.524.229.725.44.201.21.354.468.459.773s.157.681.157 1.128c0 .393-.049.732-.147 1.016a2.11 2.11 0 0 1-.515.844c-.168.163-.396.29-.682.381-.214.067-.501.101-.86.101h-1.827V16.8zm.971.808v3.162h.725c.271 0 .467-.015.587-.045.158-.039.288-.105.392-.199s.188-.247.254-.461c.065-.214.098-.505.098-.875s-.033-.652-.098-.85a1.094 1.094 0 0 0-.276-.462.924.924 0 0 0-.449-.225c-.136-.03-.401-.045-.797-.045h-.436zM117.868 24.804h1.922c.38 0 .664.016.851.047.187.032.354.097.502.197.147.1.271.233.369.399.098.166.147.352.147.559 0 .224-.061.429-.182.615a1.12 1.12 0 0 1-.494.42c.293.084.519.229.676.433.158.204.236.444.236.72 0 .217-.051.428-.152.633-.102.206-.241.37-.417.492a1.376 1.376 0 0 1-.651.226c-.162.018-.552.028-1.171.033h-1.637v-4.774zm.971.795v1.104h.637c.378 0 .613-.005.705-.016a.647.647 0 0 0 .392-.171.504.504 0 0 0 .143-.373c0-.148-.041-.268-.123-.36s-.204-.148-.366-.168a11.439 11.439 0 0 0-.83-.016h-.558zm0 1.899v1.276h.899c.35 0 .572-.01.666-.029.145-.026.262-.089.353-.19s.136-.236.136-.405a.619.619 0 0 0-.105-.365.589.589 0 0 0-.303-.218c-.132-.046-.419-.068-.861-.068h-.785zM123.979 29.579v-2.01l-1.762-2.765h1.138l1.132 1.889 1.109-1.889h1.119l-1.768 2.772v2.003h-.968z"/></g><g><g fill="#e60012"><path d="M325.992 124.363c-.818 0-1.612.677-1.758 1.516v.045l-.015.015v.045l-.015.03v.03l-.015.03v.045l-.015.03v.045l-.015.045-.015.045-.015.09-.03.105-.015.105-.03.105-.015.12-.03.12-.03.135-.03.12-.045.255-.03.135-.03.12-.015.12-.03.12-.03.12-.015.12-.015.105-.03.09-.015.105v.045l-.015.03v.075l-.015.045v.06l-.015.03v.03c-.015.367.035.868.149.961.145.808 2.819 4.551 2.742 5.12-.072.572-.388 2.252-.388 2.252-.097.567-.481 1.021-1.043 1.021-.562 0-.946-.453-.849-1.021l.507-2.793h-1.997l-.671 3.874c-.137.787.392 1.411 1.177 1.411h2.846c.788 0 1.539-.625 1.684-1.411 0 0 .733-3.619.73-3.874-.003-.257-.074-.285-.074-.285 0-.294-2.38-4.252-2.623-4.4-.105-.062-.191-.454-.194-.691-.005-.235.313-1.817.313-1.817.097-.567.63-1.021 1.192-1.021.563 0 .797.454.7 1.021l-.432 2.508h2.012l.7-3.769c.158-.839-.375-1.516-1.192-1.516h-2.946zm5.483 0l-2.384 13.844c-.137.787.392 1.411 1.177 1.411h2.846c.788 0 1.553-.625 1.699-1.411l2.548-13.844h-1.788l-2.429 13.454a.45.45 0 0 1-.417.36h-1.416c-.198 0-.33-.164-.298-.36l2.369-13.454h-1.907zm6.855 0l-2.876 15.256h1.907l1.311-6.907h2.429c.79 0 1.539-.629 1.684-1.412l1.043-5.421c.157-.841-.375-1.516-1.192-1.516h-4.306zm6.81 0l-2.98 15.256h4.292l.298-1.892h-2.116l.864-5.15h2.116l.298-1.592h-2.116l.939-4.73h2.116l.298-1.892h-4.009zm5.126 0l-2.861 15.256h1.907l1.297-6.907h1.356c.178.167.199.476.223.631.035.225.072.511.045.736-.025.223-1.043 5.541-1.043 5.541h1.907s1.073-5.793 1.073-5.886c.003-.095 0-.391-.104-.556-.069-.105-.19-.347-.328-.435a3.4 3.4 0 0 0-.566-.285h-.134c.546-.217 1.575-.574 1.684-1.156l1.043-5.421c.158-.841-.375-1.516-1.192-1.516h-4.307zm10.208 0l-2.876 15.256h2.191l1.773-8.844.7 8.844h1.907l2.876-15.256h-2.191l-1.49 7.973-.984-7.973h-1.906zm7.57 0l-2.876 15.256h1.907l2.876-15.256h-1.907zm2.906 0l-2.876 15.256h2.205l1.773-8.844.7 8.844h1.907l2.876-15.256h-2.205l-1.475 7.973-.983-7.973h-1.922zm7.391 0l-.358 1.892h1.192l-2.355 13.364h2.176l2.399-13.364h1.147l.298-1.892h-4.499zm5.245 0l-2.98 15.256h4.292l.298-1.892h-2.116l.879-5.15h2.116l.298-1.592h-2.116l.924-4.73h2.116l.298-1.892h-4.009zm4.843 0l-2.876 15.256h2.205l1.773-8.844.7 8.844h1.907l2.876-15.256h-2.205l-1.475 7.973-.983-7.973h-1.922zm7.585 0l-2.876 15.256h4.351c.79 0 1.553-.625 1.699-1.411l2.31-12.328c.157-.841-.375-1.516-1.192-1.516h-4.292zm8.181 0c-.818 0-1.598.677-1.744 1.516l-2.131 12.328c-.138.787.378 1.411 1.162 1.411h3.144c.788 0 1.553-.625 1.699-1.411l2.31-12.328c.158-.839-.376-1.516-1.192-1.516h-3.248zm-6.556 1.757h.879c.563 0 .946.454.849 1.021l-1.878 9.985c-.098.567-.645 1.036-1.207 1.036h-.864l2.221-12.042zm7.674 0h.06c.562 0 .931.454.834 1.021l-1.788 9.985c-.097.565-.615 1.036-1.177 1.036-.563 0-.797-.469-.7-1.036l1.773-9.985.015-.045.015-.045.015-.06.015-.045.015-.06.015-.045.015-.045.03-.045.015-.045.03-.045.015-.045.03-.045.03-.03.03-.045.03-.045.045-.03.03-.03.03-.03.045-.03.045-.03.03-.03.045-.03.045-.015.045-.03.03-.015.06-.015.045-.015h.045l.045-.015h.06l.038-.016zm-65.15.06h.924c.203 0 .633.468.596.676l-.79 3.769c-.037.195-.298.646-.492.646h-1.148l-.015-.015h-.06v-.015h-.03l-.015-.015h-.015l-.015-.015-.015-.015h-.015v-.015l-.015-.015-.015-.015v-.015l-.015-.015-.015-.015v-.03l-.015-.015v-.03l-.015-.015V131c0-.025-.003-.062 0-.09l.894-4.61a.476.476 0 0 1 .286-.12zm11.877 0H352.964c.203 0 .636.468.596.676l-.79 3.754c-.035.197-.52.661-.715.661h-.82a.284.284 0 0 1-.298-.27c0-.025-.003-.061 0-.09l.879-4.61.015-.015.015-.015.03-.015h.015l.015-.015.015-.015h.015l.015-.015h.015l.03-.015h.045v-.016zm-30.281 14.76v5h87.253v-5h-87.253zm63.716.526h.743c.18 0 .309.143.273.33l-.167.841h-.41l.091-.556c.02-.126-.054-.225-.182-.225a.284.284 0 0 0-.273.225l-.076.405c-.013.024.025.138.046.15.056.032.592.911.592.976.013.033.02.048.015.06-.016.11-.167.856-.167.856a.403.403 0 0 1-.38.315h-.638c-.177 0-.291-.144-.258-.315l.152-.856h.441l-.106.616c-.02.126.054.24.182.24.122 0 .253-.114.273-.24l.091-.496c-.081-.207-.619-.962-.653-1.141-.024-.02-.034-.128-.03-.21.005-.089.122-.646.122-.646h.015v-.045l.015-.03v-.015l.015-.015v-.015l.015-.015v-.015l.015-.015.015-.015v-.015h.015l.015-.015.015-.015.015-.015v-.015h.015l.015-.015.015-.015h.015l.015-.015h.015l.015-.015h.045l.019-.014zm3.494 0h.547l.076 1.276.699-1.276h.547l-1.124 1.952-.273 1.426h-.486l.243-1.532-.229-1.846zm4.967 0h.743c.18 0 .306.143.273.33l-.167.841h-.41l.091-.556c.02-.126-.054-.225-.182-.225a.283.283 0 0 0-.273.225l-.076.405c-.016.024.021.138.046.15.053.032.592.911.592.976.016.033.015.048.015.06l-.152.856a.405.405 0 0 1-.38.315h-.653c-.177 0-.291-.144-.258-.315l.152-.856h.44l-.106.616c-.02.126.058.24.182.24.127 0 .248-.114.273-.24l.091-.496c-.083-.207-.619-.962-.653-1.141-.023-.02-.033-.128-.03-.21.005-.089.122-.646.122-.646l.015-.015v-.03l.015-.03v-.015l.015-.015v-.015l.015-.015v-.015l.015-.015.015-.015v-.015h.015l.015-.015.015-.015.015-.015.015-.015.015-.015.015-.015h.015l.015-.015h.015l.015-.015h.045l.02-.014zm3.54 0h1.018l-.076.405h-.258l-.532 2.973h-.501l.532-2.973h-.259l.076-.405zm3.98 0h.911l-.076.405h-.471l-.213 1.066h.486l-.076.345h-.471l-.197 1.141h.471l-.061.42h-.972l.669-3.377zm3.752 0h.562l.091 1.952.866-1.937.547-.015-.577 3.379h-.425l.273-1.787-.759 1.787h-.304l-.091-1.832-.334 1.832h-.501l.652-3.379zm-81.588.12h.896l-.061.42h-.486l-.197 1.051h.471l-.061.36h-.486l-.182 1.141h.471l-.076.42h-.972l.683-3.392zm4.193 0h.425l.228 1.772.334-1.772h.501l-.653 3.393h-.425l-.167-1.967-.395 1.967h-.501l.653-3.393zm4.557 0h1.003l-.061.42h-.258l-.547 2.973h-.486l.532-2.973h-.273l.09-.42zm4.42 0h.911l-.076.42h-.471l-.213 1.051h.471l-.061.36h-.471l-.197 1.141h.471l-.061.42h-.972l.669-3.392zm4.284 0h.972c.18 0 .294.158.258.345l-.228 1.201c-.025.13-.256.236-.38.285h.06v.015h.06l.015.015h.045v.015h.03v.015h.015c.02.036.03.145.03.165 0 .02-.243 1.336-.243 1.336h-.441s.235-1.182.243-1.231a.642.642 0 0 0-.015-.165c-.003-.036-.005-.098-.046-.135h-.304l-.289 1.532h-.441l.659-3.393zm4.344 0h1.018l-.061.42h-.258l-.547 2.973h-.486l.532-2.973h-.273l.075-.42zm5.059 0h.577l-.182 3.393h-.577l.076-.781h-.349l-.289.781h-.516l1.26-3.393zm4.041 0h.44l-.653 3.393h-.425l.638-3.393zm3.919 0h.425l.228 1.772.334-1.772h.486l-.638 3.393h-.441l-.152-1.967-.395 1.967h-.501l.654-3.393zm5.028 0h.562l.091 1.967.866-1.952h.547l-.577 3.379h-.425l.273-1.787-.759 1.787h-.304l-.091-1.832-.334 1.832h-.486l.637-3.394zm5.514 0h.896l-.061.42h-.486l-.197 1.051h.471l-.061.36h-.486l-.197 1.141h.486l-.076.42h-.957l.668-3.392zm4.405 0h.425l.228 1.772.334-1.772h.486l-.638 3.393h-.425l-.167-1.967-.395 1.967h-.501l.653-3.393zm4.511 0h1.018l-.076.42h-.258l-.532 2.973h-.486l.532-2.973h-.273l.075-.42zm-36.411.405c-.024 0-.044.014-.061.03l-.198 1.021v.015c0 .033.023.06.061.06h.182c.045 0 .159-.09.167-.135l.167-.841c.008-.048-.076-.15-.122-.15h-.196zm8.993 1.021l-.319.856h.243l.076-.856zM408.428 138.721h-.402v.899h-.283v-.899h-.417v-.186h1.102v.186zM409.917 139.619h-.283v-.881l-.245.881h-.283l-.245-.876v.876h-.283v-1.085h.414l.255.83.258-.83h.412v1.085z"/></g></g><g><path d="M365.408 63.23h44.509v55.327h-44.509z"/><g fill="#7f7f7f"><path d="M365.408 63.23h44.509v1.175h-44.509zM365.408 65.486h44.509v1.175h-44.509zM365.408 67.743h44.509v1.175h-44.509zM365.408 69.999h44.509v1.175h-44.509zM365.408 72.255h44.509v1.175h-44.509zM365.408 74.512h44.509v1.175h-44.509zM365.408 76.768h44.509v1.175h-44.509zM365.408 79.024h44.509v1.175h-44.509zM365.408 81.281h44.509v1.175h-44.509zM365.408 83.537h44.509v1.175h-44.509zM365.408 85.793h44.509v1.175h-44.509zM365.408 88.05h44.509v1.175h-44.509zM365.408 90.306h44.509v1.175h-44.509zM365.408 92.562h44.509v1.175h-44.509zM365.408 94.819h44.509v1.175h-44.509zM365.408 97.075h44.509v1.175h-44.509zM365.408 99.331h44.509v1.175h-44.509zM365.408 101.588h44.509v1.175h-44.509zM365.408 103.844h44.509v1.175h-44.509zM365.408 106.1h44.509v1.175h-44.509zM365.408 108.357h44.509v1.175h-44.509zM365.408 110.613h44.509v1.175h-44.509zM365.408 112.869h44.509v1.175h-44.509zM365.408 115.126h44.509v1.175h-44.509zM365.408 117.382h44.509v1.175h-44.509z"/></g><ellipse transform="rotate(-42.998 394.434 106.486)" cx="394.431" cy="106.492" rx="12.5" ry="4.57"/><ellipse transform="rotate(-42.998 377.373 106.487)" cx="377.37" cy="106.492" rx="12.5" ry="4.57"/><ellipse transform="rotate(-42.998 397.525 87.508)" cx="397.522" cy="87.514" rx="12.5" ry="4.57"/><ellipse transform="rotate(-42.998 381.823 87.509)" cx="381.821" cy="87.514" rx="12.5" ry="4.57"/><path d="M409.917 65.177c-9.32 1.571-25.939 5.953-38.76 19.843a58.529 58.529 0 0 0-5.749 7.325v-6.491a60.029 60.029 0 0 1 7.882-7.418c13.443-10.528 28.224-12.72 36.627-13.259z"/></g><linearGradient id="a" gradientUnits="userSpaceOnUse" x1="260.5" y1="293.5" x2="260.5" y2="203.833"><stop offset="0" stop-color="#847d8b"/><stop offset="1" stop-color="#6a626e"/></linearGradient><path fill="url(#a)" d="M211.5 203.833h98V293.5h-98z"/><path d="M215.333 202.5H211.5v91c2.906-28.914 6.297-59.381 3.833-91z" fill="#4b474f"/><g><path fill="#4b474f" d="M424.667 337.125H96.333v-122.5h1v121.5h326.334v-121.5h1z"/></g><path d="M305.667 202.5h3.833v91c-2.906-28.914-6.297-59.381-3.833-91z" fill="#4b474f"/><path d="M424.167 214.5c0-6.6-5.4-10.667-12-10.667H108.833c-6.6 0-12 4.067-12 10.667 0-6.6 5.4-12 12-12h303.333c6.601 0 12.001 5.4 12.001 12z"/></svg>