<svg xmlns="http://www.w3.org/2000/svg" viewBox="0 0 151.728 257.874"><path d="M43.364 130.934a45.084 45.084 0 0 0 0-3.994s-.421-7.81-1.276-12.76c-1.346-7.816-3.565-15.48-6.999-22.671-4.427-9.283-12.056-15.142-21.375-18.939-3.943-1.609-7.533-3.535-9.898-7.246-4.745-7.458-4.982-15.148-1.175-23.019 3.242-6.711 8.083-12.208 13.499-17.195C29.341 12.942 44.665 4.759 62.339 1.365c13.675-2.627 27.022-1.689 39.654 4.811 8.572 4.407 14.85 11.204 20.049 19.126 8.96 13.66 15.213 28.565 20.145 44.061 4.069 12.778 6.959 25.832 8.421 39.16.671 6.132.731 12.334 1.099 18.501l.017.296c.006.89.006 2.347 0 3.237l-.017.296c-.368 6.167-.429 12.369-1.099 18.501-1.462 13.327-4.352 26.382-8.421 39.16-4.932 15.495-11.184 30.401-20.145 44.061-5.199 7.922-11.477 14.719-20.049 19.126-12.631 6.5-25.979 7.438-39.654 4.811-17.674-3.394-32.998-11.577-46.199-23.745-5.416-4.987-10.256-10.483-13.499-17.195-3.807-7.871-3.57-15.561 1.175-23.019 2.365-3.711 5.955-5.637 9.898-7.246 9.318-3.797 16.948-9.656 21.375-18.939 3.434-7.191 5.653-14.855 6.999-22.671.856-4.953 1.276-12.763 1.276-12.763z" fill="#20211d"/><path d="M112.264 228.67c.761-4.851.333-9.636-.338-14.447-3.015-21.617-13.267-39.538-28.207-55.013-6.006-6.222-13.221-9.041-22.066-7.665-11.714 1.815-20.008 12.767-17.739 24.38.63 3.227 2.143 6.338 3.595 9.339 2.214 4.594 5.012 8.925 7.054 13.589 4.821 11.013 9.434 22.121 13.947 33.26 3.999 9.858 10.811 14.714 21.476 14.915 11.487.219 20.534-7.269 22.278-18.358zm-41.988 5.335a13.053 13.053 0 0 1-.731-1.563c-2.521-6.404-4.785-12.914-7.609-19.176-4.049-8.996-8.466-17.825-12.878-26.654-2.259-4.518-4.705-8.865-4.664-14.174.086-10.675 7.977-19.076 18.622-20.24 9.263-1.014 16.171 2.92 21.99 9.445 9.091 10.191 16.882 21.229 21.531 34.243 2.309 6.48 5.365 18.783 5.214 27.159.313 5.91-1.583 11.109-5.733 16.338-3.373 4.251-9.893 6.132-14.835 6.631-.368.035-.736.05-1.104.05-5.488-.028-13.51-.759-19.803-12.059z" fill="#1a1b13"/><path d="M90.077 246.062c-5.486-.025-13.509-.756-19.802-12.056a13.053 13.053 0 0 1-.731-1.563c-2.521-6.404-4.785-12.914-7.609-19.176-4.049-8.996-8.466-17.825-12.878-26.654-2.259-4.518-4.705-8.865-4.664-14.174.086-10.675 7.977-19.076 18.622-20.24 9.263-1.014 16.171 2.92 21.99 9.445 9.091 10.191 16.882 21.229 21.531 34.243 2.309 6.48 5.365 18.783 5.214 27.159.313 5.91-1.583 11.109-5.733 16.338-3.373 4.251-9.893 6.132-14.835 6.631-.368.031-.736.047-1.105.047z" fill="#1e1f1a"/><path d="M114.135 194.488c-2.657-5.718-5.169-11.507-7.685-17.291-.338-.777-.363-1.689-.434-2.027.035-3.807 2.163-6.364 5.456-7.09 3.232-.711 5.794.514 7.216 3.651 2.441 5.375 4.861 10.766 7.16 16.206 2.083 4.926-.081 9.258-4.836 9.999-2.863.449-5.652-.801-6.877-3.448z" fill="#1e1e18"/><path d="M121.59 193.731c-1.544.835-3.372.457-4.389-1.892-2.428-5.075-4.786-10.185-7.153-15.29-.223-.482-.419-.997-.506-1.517-.25-1.496.65-3.079 2.031-3.547 1.472-.499 2.623.07 3.506 1.253.277.371 5.064 11.155 7.236 16.127 1.324 2.77.319 4.301-.725 4.866z" fill="#005fa6"/><g fill="#acaaa8"><path d="M122.017 175.175a1.501 1.501 0 0 1-.124-.48.956.956 0 0 1 .052-.402.84.84 0 0 1 .203-.32c.092-.092.204-.168.337-.229l.185.436a.619.619 0 0 0-.197.156.605.605 0 0 0-.101.197.609.609 0 0 0-.015.222c.01.076.032.153.064.229a.882.882 0 0 0 .106.191.652.652 0 0 0 .128.129.36.36 0 0 0 .142.057.29.29 0 0 0 .147-.021c.05-.021.087-.051.112-.088s.041-.088.046-.15a.938.938 0 0 0-.009-.231 4.679 4.679 0 0 0-.059-.335 2.41 2.41 0 0 1-.043-.4.957.957 0 0 1 .04-.307.573.573 0 0 1 .132-.223.66.66 0 0 1 .23-.152.652.652 0 0 1 .306-.056.695.695 0 0 1 .298.086.978.978 0 0 1 .263.217c.081.093.148.206.205.339.058.137.094.271.104.4a.945.945 0 0 1-.036.363.823.823 0 0 1-.176.303.933.933 0 0 1-.316.224l-.183-.432c.261-.147.328-.372.201-.671-.062-.146-.135-.247-.216-.304s-.166-.066-.252-.03a.183.183 0 0 0-.08.064.259.259 0 0 0-.036.111.67.67 0 0 0 0 .168c.007.065.019.144.038.232.016.079.029.16.044.242.015.084.024.167.03.25.005.084.003.166-.006.244a.789.789 0 0 1-.062.226.618.618 0 0 1-.134.192.705.705 0 0 1-.229.146.761.761 0 0 1-.333.063.8.8 0 0 1-.318-.09.98.98 0 0 1-.278-.223 1.346 1.346 0 0 1-.21-.343zM125.384 177.458l-.318-.748-1.993.846-.191-.451 1.993-.846-.316-.746.415-.176.826 1.945-.416.176zM124.415 180.718l-.213-.501.577-.557-.358-.842-.795.041-.202-.476 2.801-.097.182.428-1.992 2.004zm.687-1.358l.64-.616-.881.048.241.568zM125.411 183.065l-.205-.484.558-.508a.526.526 0 0 0 .155-.258.487.487 0 0 0-.023-.299l-.205-.482-.968.411-.191-.449 2.408-1.022.458 1.079c.027.064.053.126.074.186a.868.868 0 0 1 .066.351.648.648 0 0 1-.1.33.676.676 0 0 1-.101.13.9.9 0 0 1-.27.185.71.71 0 0 1-.79-.136.896.896 0 0 1-.264.408l-.602.558zm.694-2.208l.253.598c.034.081.068.147.104.2a.382.382 0 0 0 .115.118.251.251 0 0 0 .134.038.454.454 0 0 0 .161-.039c.107-.045.172-.111.194-.2.021-.088.003-.201-.056-.339l-.273-.645-.632.269zM128.332 184.405l-.317-.749-1.993.847-.191-.451 1.993-.846-.316-.746.415-.176.825 1.945-.416.176z"/></g><path d="M81.609 97.437c-21.988 0-39.813-17.795-39.813-39.746s17.825-39.746 39.813-39.746 39.813 17.795 39.813 39.746-17.825 39.746-39.813 39.746zm32.263-39.747c0-17.79-14.451-32.211-32.278-32.211S49.317 39.901 49.317 57.69s14.451 32.211 32.278 32.211 32.277-14.421 32.277-32.211z" fill="#1e1e18"/><g fill="#aaa7a6"><path d="M120.797 57.69l-6.193-2.846v5.693z"/><circle cx="106.058" cy="31.572" r="1.333"/><circle cx="106.058" cy="83.809" r="1.333"/><circle cx="57.161" cy="83.809" r="1.333"/><circle cx="57.161" cy="31.572" r="1.333"/><path d="M81.609 18.503l-2.846 6.193h5.693zM42.422 57.69l6.193 2.847v-5.693zM81.789 96.878l2.846-6.193h-5.692z"/></g><path d="M74.416 231.454c-3.187-7.982-6.066-16.101-9.581-23.931-3.736-8.325-7.992-16.423-12.162-24.547-3.187-6.308-3.041-8.391-2.204-13.221.61-3.51 4.009-9.021 8.618-11.204 2.541-1.205 5.36-1.745 8.159-1.477 6.369.615 10.095 3.913 12.818 8.073 10.009 15.284 17.25 31.868 23.473 48.952 1.074 2.95 2.284 5.95 2.718 9.026 1.422 10.06-5.718 18.294-15.909 18.712-7.832.317-12.996-3.026-15.93-10.383z" fill="#1a1b15"/><circle cx="79.164" cy="200.262" r="11.48" fill="#181811"/><circle cx="79.164" cy="200.262" r="9.95" fill="#2c2b25"/><path d="M80.334 202.615c.225.24.563.274 1.011.113l.387-.173c.754-.356.92-.974.507-1.849l-1.866-3.953-.745.342-3.011 1.422-.75.364 1.866 3.953c.413.875 1 1.137 1.75.783l.379-.189c.331-.207.489-.475.472-.813zm-1.828-.075l-.242-.512-1.292-2.757 1.129-.533 1.316 2.786.218.483c.157.333.049.588-.322.763-.379.18-.649.104-.807-.23zm1.891-.892l-1.542-3.265 1.129-.533 1.542 3.265c.157.333.044.59-.335.769-.374.177-.636.097-.794-.236z" fill="#c43c0d"/><circle cx="73.862" cy="202.865" r="1.063" fill="#1e1e18"/><circle cx="66.129" cy="174.029" r="11.48" fill="#181811"/><circle cx="66.129" cy="174.029" r="9.95" fill="#2c2b25"/><path d="M66.599 178.207l-.408-.855.896-1.378-1.547-3.242-1.617-.133-.426-.892 5.667.488.601 1.259-3.166 4.753zm1.029-2.906l1.272-1.879-.263-.552-2.223-.114 1.214 2.545z" fill="#c43c0d"/><circle cx="90.01" cy="226.394" r="11.48" fill="#181811"/><circle cx="90.01" cy="226.394" r="9.95" fill="#2c2b25"/><path d="M91.791 227.639L91 225.72c-.524-1.287-.992-.964-2.018-.543s-1.585.515-1.059 1.799l1.391 3.395-.77.315-1.393-3.39c-.737-1.793-.029-2.249 1.511-2.879 1.54-.631 2.37-.813 3.104.966l1.397 3.411-.764.313-.608-1.468z" fill="#c43c0d"/><g fill="#acaaa8"><path d="M96.664 183.864l-.431-.934-2.486 1.146-.26-.563 2.487-1.146-.428-.93.516-.238 1.118 2.427-.516.238zM95.58 188.055l-.278-.604.686-.662a.665.665 0 0 0 .196-.52.536.536 0 0 0-.05-.189l-.277-.602-1.208.556-.258-.56 3.004-1.384.619 1.346c.037.08.071.157.101.232a1.245 1.245 0 0 1 .097.441.761.761 0 0 1-.031.227.938.938 0 0 1-.205.362c-.047.05-.099.096-.156.138a.997.997 0 0 1-.178.104.904.904 0 0 1-.533.086.937.937 0 0 1-.47-.228c-.038.173-.146.349-.319.526l-.74.731zm.792-2.814l.344.745c.047.101.092.184.14.249.047.065.097.113.149.145s.109.045.171.042a.545.545 0 0 0 .202-.054c.133-.063.212-.148.236-.261.023-.112-.003-.255-.082-.428l-.37-.803-.79.365zM96.094 189.173l-.257-.557 3.003-1.384.258.558-3.004 1.383zM96.971 191.203a1.71 1.71 0 0 1-.163-.647 1.436 1.436 0 0 1 .104-.604c.077-.19.193-.364.352-.522s.354-.291.587-.398c.238-.109.468-.174.691-.19s.432.007.624.073c.191.064.365.17.52.313.153.145.28.323.378.537a1.7 1.7 0 0 1 .154.538c.021.18.011.349-.028.51a1.224 1.224 0 0 1-.596.782l-.266-.575c.089-.051.161-.11.216-.182s.091-.15.111-.238.023-.182.009-.282a1.124 1.124 0 0 0-.098-.316c-.06-.13-.138-.239-.233-.325s-.205-.147-.331-.184a1.045 1.045 0 0 0-.411-.029 1.569 1.569 0 0 0-.476.143 1.535 1.535 0 0 0-.412.267c-.11.103-.193.214-.248.333s-.081.243-.079.373.033.261.093.392c.087.187.187.334.303.442.116.106.253.18.411.217l.314-.145-.343-.744.517-.238.598 1.298-1.621.746-.198-.431.183-.17a1.159 1.159 0 0 1-.367-.28 1.894 1.894 0 0 1-.295-.464zM98.516 194.557c-.101-.218-.154-.434-.162-.647s.026-.415.103-.604c.077-.19.194-.363.353-.522a1.97 1.97 0 0 1 .587-.398c.237-.109.468-.173.69-.19a1.458 1.458 0 0 1 1.145.386c.153.145.279.323.378.537.082.179.134.358.154.538.021.179.011.35-.029.511-.04.162-.11.31-.209.444-.1.134-.229.247-.387.337l-.265-.575a.715.715 0 0 0 .215-.182c.055-.07.091-.149.111-.237s.023-.183.009-.283a1.164 1.164 0 0 0-.097-.316c-.061-.13-.139-.239-.234-.325s-.205-.147-.33-.184-.263-.046-.412-.028a1.556 1.556 0 0 0-.475.141 1.529 1.529 0 0 0-.412.268 1.064 1.064 0 0 0-.248.333c-.055.118-.082.243-.08.373s.033.261.094.392c.086.188.186.334.302.442a.918.918 0 0 0 .411.217l.314-.145-.342-.744.516-.238.598 1.298-1.621.746-.198-.432.184-.17a1.159 1.159 0 0 1-.368-.279 1.857 1.857 0 0 1-.295-.464zM100.552 198.851l-1.058-2.295 3.004-1.384 1.027 2.23-.517.238-.769-1.67-.68.313.721 1.563-.513.235-.72-1.563-.779.359.799 1.735-.515.239zM102.018 202.033l-.278-.604.685-.662a.685.685 0 0 0 .186-.332.623.623 0 0 0-.04-.378l-.277-.601-1.207.556-.258-.56 3.004-1.383.619 1.344c.037.081.07.158.101.232a1.255 1.255 0 0 1 .097.442.759.759 0 0 1-.031.226 1.034 1.034 0 0 1-.081.193.993.993 0 0 1-.279.308 1.041 1.041 0 0 1-.179.104.911.911 0 0 1-.533.085.943.943 0 0 1-.47-.227c-.039.173-.146.348-.319.525l-.74.732zm.792-2.815l.344.746c.046.101.092.184.14.248a.518.518 0 0 0 .148.145c.054.031.11.045.172.043a.525.525 0 0 0 .201-.055c.135-.062.213-.148.237-.261.023-.111-.003-.254-.083-.427l-.369-.803-.79.364z"/></g><ellipse cx="81.609" cy="57.69" rx="32.278" ry="32.211" fill="#20211d"/><path d="M81.724 32.587c13.954.017 25.032 11.18 25.002 25.194-.029 13.743-11.35 25.041-25.065 25.013-13.858-.028-25.189-11.363-25.168-25.177.021-13.878 11.279-25.048 25.231-25.03zm23.638 25.125c.013-13.322-10.287-23.708-23.563-23.759-13.363-.051-23.908 10.37-23.931 23.648-.022 13.283 10.505 23.811 23.815 23.819 13.153.008 23.666-10.517 23.679-23.708z" fill="#0a0a0a"/><path d="M105.356 57.716c.013-13.322-10.287-23.708-23.563-23.759-13.363-.051-23.908 10.37-23.931 23.648-.022 13.283 10.505 23.811 23.815 23.819 13.153.008 23.666-10.518 23.679-23.708z" fill="#373735"/><g fill="#292b27"><path d="M96.614 42.661l-3.682 1.763 1.919 1.919zM66.738 42.661l1.764 3.682 1.919-1.919zM66.604 72.452l3.683-1.764-1.919-1.919zM96.442 72.72l-1.764-3.683-1.919 1.919z"/></g><path d="M81.609 79.805a104.175 104.175 0 0 1-3.214-.04c-1.624-.05-2.355-.892-2.476-2.541-.156-2.133-.358-4.286-.832-6.364-.817-3.6-3.167-5.89-6.762-6.691-1.956-.439-3.973-.64-5.97-.812-2.173-.187-2.788-.645-2.859-2.763a87.736 87.736 0 0 1-.052-2.903c.001-.969.018-1.937.052-2.903.071-2.118.686-2.577 2.859-2.763 1.997-.171 4.014-.373 5.97-.812 3.595-.802 5.945-3.091 6.762-6.691.474-2.077.676-4.231.832-6.364.121-1.649.852-2.491 2.476-2.541 1.067-.034 2.141-.039 3.214-.04 1.072.001 2.147.006 3.214.04 1.624.05 2.355.892 2.476 2.541.156 2.133.358 4.286.832 6.364.817 3.6 3.167 5.89 6.762 6.691 1.956.439 3.973.64 5.97.812 2.173.187 2.788.645 2.859 2.763.034.966.05 1.935.052 2.903a85.034 85.034 0 0 1-.052 2.903c-.071 2.118-.686 2.577-2.859 2.763-1.997.171-4.014.373-5.97.812-3.595.802-5.945 3.091-6.762 6.691-.474 2.077-.676 4.231-.832 6.364-.121 1.649-.852 2.491-2.476 2.541-1.067.034-2.141.039-3.214.04z" fill="#1d1d17"/><g fill="#26261f"><path d="M86.284 36.716v41.948H76.85V36.716z"/><path d="M60.635 52.973h41.948v9.434H60.635z"/></g><path d="M81.612 62.337a4.645 4.645 0 1 1 0-9.293 4.646 4.646 0 0 1 4.644 4.649 4.642 4.642 0 0 1-4.644 4.644z" fill="#1a1b15"/><g fill="#acaaa8"><path d="M83.422 143.941v-4.783h1.119v3.278c.721-.238 1.308-.436 1.897-.626 1.468-.475 2.948-.92 4.398-1.442.351-.127.786-.468.858-.78.122-.525-.423-.696-.874-.842-2.249-.727-4.492-1.475-6.749-2.179-.53-.165-.709-.407-.695-.94.04-1.467.004-2.936.017-4.404.013-1.487.987-2.46 2.526-2.493a94.669 94.669 0 0 1 4.162 0c1.564.036 2.515.978 2.537 2.48.019 1.323.004 2.647.004 4.017h-1.178v-3.399c0-1.595-.385-1.962-2.067-1.962-1.047 0-2.094-.005-3.14.001-1.12.006-1.665.516-1.677 1.57-.009.855-.002 1.711-.002 2.611h3.651v-2.177h1.136v3.393h-4.81l-.022.185c2.211.718 4.423 1.437 6.635 2.152 1.265.409 1.779 1.163 1.592 2.378-.104.676-.498 1.177-1.168 1.398-2.656.879-5.321 1.731-7.984 2.59-.039.014-.093-.013-.166-.026zM83.398 113.967h1.164c0 1.276-.014 2.527.004 3.778.015 1.047.775 1.83 1.769 1.867.972.037 1.804-.738 1.876-1.767.029-.418-.011-.842.034-1.257.069-.64.673-1.107 1.37-1.106.707.001 1.339.462 1.357 1.108.04 1.368.012 2.738.012 4.144h-1.152v-2.082-1.941l-.387-.004c-.017.384-.041.767-.05 1.151-.033 1.446-.876 2.491-2.307 2.851-1.748.44-3.607-.814-3.679-2.541-.056-1.37-.011-2.744-.011-4.201z"/><path d="M85.019 113.956h1.203v4.037l.338.001c.017-.412.041-.823.048-1.235.02-1.156.573-2.015 1.638-2.522 1.084-.516 2.17-.437 3.166.243.683.466 1.147 1.11 1.173 1.922.046 1.418.013 2.839.013 4.314h-1.154c0-1.274.021-2.549-.006-3.823-.027-1.265-1.208-2.086-2.398-1.704-.716.23-1.196.886-1.246 1.727-.023.395.006.794-.034 1.187-.065.637-.666 1.121-1.354 1.128-.688.007-1.357-.475-1.375-1.098-.038-1.369-.012-2.74-.012-4.177zM92.582 128.14h-1.138v-3.761c-.001-1.314-.466-1.772-1.826-1.78a239.687 239.687 0 0 0-3.284.005c-1.264.009-1.772.495-1.776 1.686-.003 1.253-.001 2.505-.001 3.805h-1.169c0-.935-.002-1.855.001-2.776.002-.582-.019-1.166.022-1.746.075-1.068 1.074-2.04 2.192-2.067a101.7 101.7 0 0 1 4.815-.001c1.027.023 2.085.891 2.14 1.873.088 1.573.024 3.153.024 4.762zM83.449 136.746c2.507.811 4.959 1.6 7.404 2.408a.743.743 0 0 1 .416.398c.032.089-.159.338-.298.384-1.96.659-3.929 1.296-5.951 1.956v-2.74l.808-.085.043-.118c-.454-.156-.906-.316-1.362-.468-1.207-.399-1.208-.398-1.06-1.735zm2.895 2.342v.961l1.25-.403-.01-.166-1.24-.392zM86.462 132.674l.236-.808h1.034v1.777h-2.709c0-.908-.052-1.812.035-2.703.023-.232.469-.596.734-.607 1.458-.061 2.92-.043 4.38-.026.512.006.812.306.817.8.013 1.35.004 2.7.004 4.11h-1.158c0-1.015-.029-2.012.011-3.006.024-.61-.199-.845-.842-.806-.679.041-1.363.003-2.044.011-.812.009-1.008.385-.498 1.258z"/><path d="M86.266 124.246c-.234 1.254.011 2.553-.136 3.853h-1.105c0-1.487-.036-2.945.037-4.398.012-.232.485-.579.791-.632.586-.101 1.205-.029 1.872-.029v4.138h-1.092v-2.893l-.367-.039zM90.983 128.141h-1.097c-.183-1.29.117-2.613-.163-3.881l-.302.013v2.907h-1.146v-4.127c.672 0 1.374-.058 2.055.031.244.032.615.411.624.643.058 1.458.029 2.92.029 4.414z"/></g><g fill="#acaaa8"><path d="M138.317 88.427a.606.606 0 0 0 .364-.299.63.63 0 0 0 .065-.232.812.812 0 0 0-.02-.262c-.03-.128-.078-.237-.146-.329s-.153-.163-.255-.215c-.103-.052-.221-.082-.356-.091s-.283.006-.445.045a1.518 1.518 0 0 0-.418.16.951.951 0 0 0-.278.238.722.722 0 0 0-.136.301.822.822 0 0 0 .011.351c.022.094.055.177.099.249s.098.131.163.178.138.078.22.096.173.02.273.007l.127.561a1.312 1.312 0 0 1-.488-.02 1.078 1.078 0 0 1-.398-.185 1.175 1.175 0 0 1-.296-.326c-.08-.13-.14-.279-.179-.444a1.53 1.53 0 0 1-.028-.594c.031-.186.096-.353.197-.503.101-.15.235-.279.404-.387s.366-.19.592-.245c.227-.054.439-.071.639-.049.2.022.379.078.537.168.159.09.293.213.404.368.111.155.191.339.24.551.037.161.047.318.03.472s-.059.297-.126.428a1.155 1.155 0 0 1-.67.574 41.342 41.342 0 0 0-.126-.566zM139.903 90.658c.044.208.049.408.015.599a1.335 1.335 0 0 1-.619.912c-.17.109-.367.187-.591.233a1.752 1.752 0 0 1-.63.021 1.42 1.42 0 0 1-.534-.195 1.345 1.345 0 0 1-.401-.384 1.51 1.51 0 0 1-.231-.548c-.044-.207-.049-.406-.014-.594a1.357 1.357 0 0 1 .616-.91c.168-.11.364-.19.586-.239.225-.05.437-.06.637-.029a1.35 1.35 0 0 1 .938.583c.108.159.184.344.228.551zm-2.51.533a.877.877 0 0 0 .143.331.802.802 0 0 0 .258.23.966.966 0 0 0 .356.11c.135.016.281.007.441-.026.161-.033.299-.085.416-.154.117-.069.21-.151.28-.246s.116-.199.139-.314.021-.234-.005-.357a.893.893 0 0 0-.143-.333.811.811 0 0 0-.258-.233c-.103-.059-.222-.096-.357-.112s-.281-.006-.439.028a1.372 1.372 0 0 0-.413.157c-.116.07-.209.152-.28.247s-.118.199-.142.313a.87.87 0 0 0 .004.359zM137.913 96.076l-.1-.534 1.866-.351c-.795-.116-1.192-.173-1.986-.283l-.089-.462c.696-.397 1.044-.597 1.738-1l-1.862.37-.106-.531 2.906-.586.145.725c-.775.44-1.163.659-1.94 1.093.883.115 1.325.174 2.208.295l.136.724-2.916.54zM140.962 96.269c.083.46.124.69.204 1.15.018.103.03.204.036.304.006.1.003.196-.009.289s-.033.179-.065.259a.701.701 0 0 1-.346.38 1.013 1.013 0 0 1-.305.097c-.311.052-.56-.005-.749-.17s-.315-.437-.381-.815l-.108-.611-1.098.195-.099-.55 2.92-.528zm-1.22.794l.11.622c.018.102.042.187.073.256a.47.47 0 0 0 .112.162.325.325 0 0 0 .15.076.494.494 0 0 0 .188 0 .39.39 0 0 0 .194-.082.34.34 0 0 0 .099-.148.549.549 0 0 0 .026-.195 1.799 1.799 0 0 0-.024-.224l-.108-.613-.82.146zM138.681 100.834a1.866 1.866 0 0 1-.021-.484c.016-.137.048-.255.096-.353s.111-.179.188-.244.16-.118.252-.16a1.49 1.49 0 0 1 .289-.098c.101-.023.201-.043.3-.059l1.677-.276.091.56-1.672.27a1.633 1.633 0 0 0-.399.108.58.58 0 0 0-.225.163.42.42 0 0 0-.088.219c-.009.082-.005.174.011.276.016.103.042.192.076.268s.085.136.152.18a.592.592 0 0 0 .263.083c.108.011.246.004.412-.021l1.674-.258.086.565-1.68.254c-.203.031-.389.04-.555.029a.985.985 0 0 1-.437-.127.855.855 0 0 1-.311-.325 1.71 1.71 0 0 1-.179-.57zM141.753 104.551c-.05-.374-.076-.561-.128-.935l-2.432.34-.078-.555 2.43-.348-.135-.93.504-.075c.144.973.213 1.459.344 2.433l-.505.07zM139.665 107.602c-.108-.908-.165-1.362-.285-2.269l2.939-.388c.118.896.174 1.344.282 2.24l-.506.06c-.08-.67-.122-1.004-.208-1.673l-.664.086c.08.624.119.936.194 1.561l-.502.06c-.075-.623-.113-.934-.194-1.556l-.763.098c.089.688.131 1.032.213 1.72l-.506.061zM140.012 110.751l-.062-.598.772-.369a.64.64 0 0 0 .145-.099.568.568 0 0 0 .171-.291.533.533 0 0 0 .01-.179l-.066-.599-1.184.133-.063-.554 2.945-.341c.063.541.093.812.152 1.353.009.081.016.158.02.231.004.074.004.144-.003.213s-.02.135-.04.199a.74.74 0 0 1-.217.332.94.94 0 0 1-.507.221.808.808 0 0 1-.477-.085.847.847 0 0 1-.334-.335c-.082.138-.223.257-.422.359l-.84.409zm1.476-2.192c.034.298.05.447.082.745.011.1.027.186.048.256s.05.127.086.169c.036.042.08.071.133.087.053.016.116.02.188.012.131-.014.222-.066.275-.155s.07-.222.051-.395l-.089-.806-.774.087zM143.343 114.717c-1.219-.38-1.829-.566-3.05-.93l-.044-.512c1.141-.566 1.711-.853 2.847-1.434l.056.606c-.852.411-1.278.615-2.132 1.018.91.255 1.365.384 2.275.647.02.242.03.363.048.605zM140.459 115.895l-.041-.554 2.956-.223.042.563a2739.3 2739.3 0 0 0-2.957.214zM142.157 118.989c-.997.055-1.521-.426-1.586-1.441-.025-.393-.038-.589-.065-.982l2.958-.203c.027.399.041.599.066.998.065 1.032-.397 1.575-1.373 1.628zm-.033-.572a1.65 1.65 0 0 0 .399-.068.687.687 0 0 0 .291-.174.7.7 0 0 0 .17-.31c.036-.128.048-.286.036-.476l-.028-.428-1.941.127.027.423c.012.187.044.34.096.461a.693.693 0 0 0 .212.284.727.727 0 0 0 .319.138c.125.024.265.031.419.023zM140.795 121.941c-.035-.912-.056-1.368-.103-2.28l2.961-.152c.046.901.067 1.351.102 2.252l-.509.02c-.026-.673-.041-1.009-.074-1.682l-.669.032c.03.627.044.941.069 1.568l-.505.02a162.12 162.12 0 0 0-.069-1.564l-.769.037c.033.691.049 1.037.075 1.729l-.509.02zM143.869 123.761c.006.212-.025.408-.094.589a1.33 1.33 0 0 1-.775.781 1.72 1.72 0 0 1-.624.121 1.734 1.734 0 0 1-.623-.093 1.355 1.355 0 0 1-.815-.734c-.079-.173-.122-.366-.128-.577s.025-.406.094-.584c.069-.178.168-.333.297-.465.13-.132.287-.236.473-.314.185-.077.392-.12.62-.128.23-.008.441.02.631.086s.355.161.493.286c.138.125.246.276.323.452.08.176.122.37.128.58zm-2.565.071a.873.873 0 0 0 .081.35c.05.106.121.196.212.271a.958.958 0 0 0 .33.172c.129.04.275.058.438.054.164-.004.309-.029.437-.076s.234-.11.32-.19.15-.174.194-.282.063-.225.06-.35c-.004-.128-.03-.245-.081-.352s-.121-.198-.212-.275a.94.94 0 0 0-.331-.174 1.31 1.31 0 0 0-.436-.051 1.336 1.336 0 0 0-.434.08.973.973 0 0 0-.32.191.787.787 0 0 0-.197.281.849.849 0 0 0-.061.351zM140.883 128.367a1.557 1.557 0 0 1 .107-.593 1.332 1.332 0 0 1 .786-.761c.187-.073.396-.11.627-.113.234-.003.446.03.635.099s.35.167.483.294c.133.127.236.28.309.459.073.179.11.376.11.592.001.181-.025.351-.075.508a1.336 1.336 0 0 1-.216.414 1.101 1.101 0 0 1-.78.419l.001-.579c.091-.008.172-.031.243-.068s.131-.089.181-.154a.717.717 0 0 0 .113-.232c.026-.09.039-.19.038-.3 0-.132-.024-.252-.07-.36s-.113-.201-.202-.278a.923.923 0 0 0-.326-.179 1.391 1.391 0 0 0-.441-.061 1.362 1.362 0 0 0-.436.068.974.974 0 0 0-.325.182c-.089.078-.157.17-.203.279s-.07.227-.07.357c.001.187.028.346.082.478s.138.244.253.335h.311l-.001-.744.51-.001c.001.521.001.781-.001 1.302l-1.6-.007.001-.429.213-.07a1.05 1.05 0 0 1-.194-.369 1.794 1.794 0 0 1-.063-.488zM140.887 132.913l.013-.622.853-.312.015-1.049-.844-.32.005-.59c1.183.466 1.774.703 2.954 1.184l-.007.54a245.79 245.79 0 0 1-2.989 1.169zm1.339-1.1c.378-.14.567-.21.945-.352l-.935-.358-.01.71zM140.788 136.089l.021-.541 1.897.07c-.749-.288-1.124-.43-1.875-.713l.015-.468c.767-.232 1.15-.35 1.916-.588l-1.898-.051.014-.539 2.964.071-.019.736c-.853.257-1.279.384-2.133.634.836.306 1.254.461 2.088.773-.01.293-.016.44-.028.733l-2.962-.117zM140.644 139.098c.051-.912.074-1.368.114-2.28l2.962.13c-.039.901-.062 1.351-.112 2.251l-.509-.029c.038-.672.055-1.009.087-1.681l-.669-.031c-.029.627-.045.941-.08 1.568l-.505-.028c.035-.625.051-.938.08-1.564l-.769-.036c-.032.691-.05 1.037-.089 1.728a41.28 41.28 0 0 1-.51-.028zM142.334 142.952a.588.588 0 0 0 .567-.377.813.813 0 0 0 .059-.255c.01-.13-.004-.249-.042-.355s-.097-.2-.18-.28a.894.894 0 0 0-.313-.191 1.477 1.477 0 0 0-.438-.089 1.511 1.511 0 0 0-.446.029.952.952 0 0 0-.336.144.709.709 0 0 0-.219.246.826.826 0 0 0-.094.337.855.855 0 0 0 .02.266.605.605 0 0 0 .103.217.603.603 0 0 0 .182.157c.073.041.16.07.259.087l-.045.571a1.334 1.334 0 0 1-.46-.163 1.122 1.122 0 0 1-.326-.293 1.169 1.169 0 0 1-.186-.397 1.477 1.477 0 0 1-.039-.475c.016-.215.066-.406.15-.572.084-.168.197-.307.337-.419.141-.113.307-.196.5-.249.193-.054.406-.072.638-.057.232.015.441.062.625.142.184.079.339.185.463.318.125.133.217.288.277.469.06.18.082.378.066.594a1.38 1.38 0 0 1-.111.457 1.174 1.174 0 0 1-.607.619 1.151 1.151 0 0 1-.45.097l.046-.578zM143.189 145.54a1.536 1.536 0 0 1-.163.574 1.331 1.331 0 0 1-.861.684 1.734 1.734 0 0 1-.634.046 1.744 1.744 0 0 1-.608-.167 1.368 1.368 0 0 1-.722-.826 1.487 1.487 0 0 1-.058-.589c.019-.211.073-.401.163-.569.089-.169.206-.311.351-.427.145-.116.313-.201.507-.256.193-.055.403-.073.631-.054.23.019.436.072.617.16a1.337 1.337 0 0 1 .723.831c.054.185.073.382.054.593zm-2.556-.235a.868.868 0 0 0 .039.358.792.792 0 0 0 .178.295.964.964 0 0 0 .308.21c.124.055.267.09.428.106.163.016.311.008.443-.024a.935.935 0 0 0 .34-.151.774.774 0 0 0 .226-.257.863.863 0 0 0 .101-.341.87.87 0 0 0-.038-.359.783.783 0 0 0-.178-.298c-.081-.087-.184-.157-.308-.212s-.266-.089-.427-.103a1.34 1.34 0 0 0-.441.028c-.132.032-.245.083-.341.152s-.172.154-.228.256a.829.829 0 0 0-.102.34zM139.735 149.667l.06-.523c.848-.441 1.271-.664 2.116-1.117l-1.972-.208.056-.535 2.95.302-.055.534c-.847.453-1.271.677-2.12 1.118l1.974.222-.063.547-2.946-.34zM141.813 152.857c.049-.374.074-.561.121-.935l-2.436-.309.07-.555 2.437.301c.046-.373.069-.559.113-.932l.506.06c-.116.975-.177 1.463-.305 2.437l-.506-.067zM138.956 155.544l.088-.595.839-.168a.575.575 0 0 0 .403-.301.535.535 0 0 0 .054-.171l.083-.598-1.18-.163.075-.553 2.938.396c-.073.54-.11.81-.187 1.35-.011.08-.024.158-.038.23a1.445 1.445 0 0 1-.055.206c-.023.065-.052.126-.088.184s-.08.111-.135.159c-.048.043-.101.079-.157.108a.869.869 0 0 1-.36.097.874.874 0 0 1-.185-.008.812.812 0 0 1-.441-.2.852.852 0 0 1-.241-.407c-.114.113-.28.195-.498.244l-.915.19zm1.972-1.763l-.104.743c-.014.1-.02.186-.016.26s.017.135.041.185.06.089.107.117a.477.477 0 0 0 .179.058c.13.019.232-.009.305-.083.073-.074.122-.198.147-.371l.113-.804-.772-.105zM141.648 157.847c-.034.21-.101.397-.202.563a1.347 1.347 0 0 1-.38.407c-.153.106-.328.179-.526.22s-.41.042-.635.004a1.776 1.776 0 0 1-.595-.207 1.436 1.436 0 0 1-.428-.373 1.345 1.345 0 0 1-.236-.501c-.045-.186-.052-.383-.018-.593s.1-.395.201-.558a1.353 1.353 0 0 1 .902-.624 1.76 1.76 0 0 1 .633-.011c.228.035.43.101.605.202s.319.224.431.373.19.317.234.506c.042.185.047.383.014.592zm-2.534-.406a.884.884 0 0 0 .014.36c.03.114.082.216.158.307s.173.168.293.231.26.108.42.135c.162.027.31.029.443.006a.92.92 0 0 0 .349-.128.79.79 0 0 0 .243-.242.866.866 0 0 0 .124-.334.877.877 0 0 0-.014-.362.792.792 0 0 0-.157-.31.927.927 0 0 0-.293-.232 1.348 1.348 0 0 0-.419-.132c-.161-.025-.308-.025-.441-.002s-.25.067-.35.129-.182.143-.245.24a.855.855 0 0 0-.125.334zM138.007 161.272c.139-.761.206-1.142.337-1.904l2.922.5-.097.56-2.419-.422c-.095.543-.143.814-.242 1.357l-.501-.091zM140.612 163.472c-.088.459-.133.689-.224 1.148-.02.102-.046.202-.076.297-.031.095-.068.184-.112.266s-.096.155-.154.219c-.058.064-.126.116-.202.154s-.162.064-.258.075a1.015 1.015 0 0 1-.319-.019c-.309-.063-.521-.207-.637-.429-.116-.222-.136-.521-.061-.899l.12-.609-1.095-.213.106-.549 2.912.559zm-1.425.301l-.122.62c-.02.102-.028.191-.024.266a.467.467 0 0 0 .046.191.322.322 0 0 0 .112.125.51.51 0 0 0 .176.068.334.334 0 0 0 .356-.11c.039-.047.071-.105.094-.173s.043-.141.058-.218l.12-.611c-.326-.062-.489-.094-.816-.158zM136.595 168.238c.055-.244.082-.366.135-.611l.898-.141c.09-.413.134-.619.222-1.032l-.765-.481.121-.581c1.068.691 1.601 1.041 2.663 1.746l-.114.531c-1.264.236-1.896.35-3.16.569zm1.531-.822l.996-.161-.846-.536-.15.697zM137.404 171.383c-.971-.233-1.335-.847-1.105-1.844l.22-.965 2.892.652c-.088.393-.133.589-.224.981-.233 1.013-.832 1.404-1.783 1.176zm.134-.562c.146.035.28.051.402.049.122-.002.232-.03.329-.084s.181-.138.252-.25c.071-.112.128-.262.171-.448l.097-.421-1.897-.433-.096.416c-.042.183-.056.341-.04.472s.056.243.121.335c.065.092.154.166.266.224s.244.105.395.14z"/></g></svg>