<svg xmlns="http://www.w3.org/2000/svg" viewBox="0 0 30 30"><path d="M7.592.002H4.734C2.348 1.055.581 4.679.581 8.99v9.296h11.164l-.003-9.299c0-4.311-1.767-7.936-4.153-8.988" fill="#777"/><path d="M7.592.002H6.163v8.086h5.555C11.491 4.181 9.808.984 7.592.004" fill="#8c8c8c"/><path d="M6.868.002h-.063c1.044 2.575 1.283 8.084 1.283 8.084h2.502C9.851 1.957 7.347.272 6.868.002" fill="#a4a4a4"/><path d="M1.232 10.691h9.711v17.217H1.232V10.691z" fill="#777"/><g fill="#9d9d9d"><path d="M.001 8.978h12.174v17.217H.001V8.978zM0 27.183h12.174V30H0v-2.817z"/></g><g fill="#bababa"><path d="M6.085 27.183h6.089V30H6.089l-.004-2.817zM12.097 26.191H6.009V9.072h6.085l.003 17.119zM3.233 27.182H4.88v2.817H3.233v-2.817zM4.681 26.192H3.159V9.073h1.522v17.119z"/></g><g fill="#d8d8d8"><path d="M8.03 27.182h2.699v2.817H8.03v-2.817zM10.387 26.191H7.914V9.072h2.473v17.119z"/></g></svg>