<svg id="Capa_1" xmlns="http://www.w3.org/2000/svg" viewBox="0 0 30 30"><style>.st0{fill:#b2662d}.st3{fill:#d39439}.st4{fill:#f4b056}.st5{fill:#ffd67b}</style><path class="st0" d="M7.6 0H4.7C2.3 1.1.6 4.7.6 9v9.3h11.2V9c-.1-4.3-1.8-7.9-4.2-9"/><path d="M7.6 0H6.2v8.1h5.6C11.5 4.2 9.8 1 7.6 0" fill="#cc7940"/><path d="M6.9 0c1 2.6 1.2 8.1 1.2 8.1h2.5C9.9 2 7.3.3 6.9 0" fill="#e89054"/><path class="st0" d="M1.2 10.7h9.7v17.2H1.2V10.7z"/><path class="st3" d="M0 9h12.2v17.2H0V9zM0 27.2h12.2V30H0v-2.8z"/><path class="st4" d="M6.1 27.2h6.1V30H6.1v-2.8zM12.1 26.2H6V9.1h6.1v17.1zM3.2 27.2h1.6V30H3.2v-2.8zM4.7 26.2H3.2V9.1h1.5v17.1z"/><g><path class="st5" d="M8 27.2h2.7V30H8v-2.8zM10.4 26.2H7.9V9.1h2.5v17.1z"/></g></svg>