<svg enable-background="new 0 0 724.945 236.681" viewBox="0 0 724.945 236.681" xmlns="http://www.w3.org/2000/svg" xmlns:xlink="http://www.w3.org/1999/xlink"><linearGradient id="a" gradientUnits="userSpaceOnUse" x1="641.4471" x2="641.4471" y1="236.6812" y2="58.9639"><stop offset="0" stop-color="#12171b"/><stop offset=".5851" stop-color="#111519"/><stop offset=".7955" stop-color="#0c1012"/><stop offset=".9453" stop-color="#040607"/><stop offset="1"/></linearGradient><linearGradient id="b" gradientUnits="userSpaceOnUse" x1="641.4471" x2="641.4471" y1="196.5479" y2="123.0479"><stop offset="0" stop-color="#156636"/><stop offset="1" stop-color="#005779"/></linearGradient><linearGradient id="c"><stop offset="0" stop-color="#e9d03b"/><stop offset=".1352" stop-color="#e8cd3b"/><stop offset=".2754" stop-color="#e5c43b"/><stop offset=".4179" stop-color="#dfb63a"/><stop offset=".5621" stop-color="#d8a138"/><stop offset=".7074" stop-color="#d18735"/><stop offset=".8517" stop-color="#c96932"/><stop offset=".95" stop-color="#c2482e"/></linearGradient><linearGradient id="d" gradientUnits="userSpaceOnUse" x1="574.7911" x2="584.8559" xlink:href="#c" y1="105.7321" y2="114.1775"/><linearGradient id="e" gradientUnits="userSpaceOnUse" x1="585.7041" x2="588.963" y1="114.4656" y2="123.9301"><stop offset=".299" stop-color="#e9d03b"/><stop offset=".3988" stop-color="#e8cd3b"/><stop offset=".5022" stop-color="#e5c43b"/><stop offset=".6074" stop-color="#dfb63a"/><stop offset=".7137" stop-color="#d8a138"/><stop offset=".821" stop-color="#d18735"/><stop offset=".9275" stop-color="#c96932"/><stop offset="1" stop-color="#c2482e"/></linearGradient><linearGradient id="f" gradientUnits="userSpaceOnUse" x1="615.817" x2="620.8155" xlink:href="#c" y1="109.2256" y2="116.1054"/><linearGradient id="g" gradientUnits="userSpaceOnUse" x1="592.2126" x2="610.1793" y1="109.2194" y2="109.2194"><stop offset=".2165" stop-color="#e9d03b"/><stop offset=".3209" stop-color="#e8cd3b"/><stop offset=".4291" stop-color="#e5c43b"/><stop offset=".5392" stop-color="#dfb63a"/><stop offset=".6505" stop-color="#d8a138"/><stop offset=".7627" stop-color="#d18735"/><stop offset=".8741" stop-color="#c96932"/><stop offset=".95" stop-color="#c2482e"/></linearGradient><linearGradient id="h" gradientUnits="userSpaceOnUse" x1="631.7505" x2="643.3675" xlink:href="#c" y1="110.402" y2="120.1498"/><linearGradient id="i" gradientUnits="userSpaceOnUse" x1="642.6028" x2="666.6531" y1="97.9269" y2="118.1075"><stop offset=".5" stop-color="#e9d03b"/><stop offset=".5712" stop-color="#e8cd3b"/><stop offset=".645" stop-color="#e5c43b"/><stop offset=".72" stop-color="#dfb63a"/><stop offset=".7958" stop-color="#d8a138"/><stop offset=".8723" stop-color="#d18735"/><stop offset=".9483" stop-color="#c96932"/><stop offset="1" stop-color="#c2482e"/></linearGradient><linearGradient id="j"><stop offset="0" stop-color="#e9d03b"/><stop offset=".1423" stop-color="#e8cd3b"/><stop offset=".2899" stop-color="#e5c43b"/><stop offset=".4399" stop-color="#dfb63a"/><stop offset=".5916" stop-color="#d8a138"/><stop offset=".7447" stop-color="#d18735"/><stop offset=".8966" stop-color="#c96932"/><stop offset="1" stop-color="#c2482e"/></linearGradient><linearGradient id="k" gradientUnits="userSpaceOnUse" x1="680.6125" x2="701.0529" xlink:href="#j" y1="107.7983" y2="124.9498"/><linearGradient id="l" gradientUnits="userSpaceOnUse" x1="696.0333" x2="703.213" xlink:href="#j" y1="102.6557" y2="108.6802"/><path d="m107.066 8.21h295.718v220.033h-295.718z" fill="#262626"/><path d="m289.316 30.792-9.475 3.438h9.536l3.627-2.003z" fill="#d78b00"/><path d="m280.468 20.876h11.257l14.988 7.599h-5.878l-4.132-1.9-2.549 1.036z" fill="#d78b00"/><path d="m301.434 24.357 9.476-3.434h-9.536l-3.627 2z" fill="#d78b00"/><path d="m310.283 34.274h-11.257l-14.988-7.599h5.878l4.132 1.901 2.548-1.037z" fill="#d78b00"/><path d="m209.422 20.785h7.461v9.117h-7.461z" fill="#d78b00"/><path d="m209.422 31.018h19.119v2.791h-19.119z" fill="#d78b00"/><path d="m221.547 20.785h8.861l6.062 5.115-4.382 3.216z" fill="#d78b00"/><path d="m232.739 29.623v4.186h6.995v-4.186l13.525-8.838h-6.53l-13.523 8.838z" fill="#d78b00"/><path d="m254.191 22.179 7.462 4.653v6.977h-7.462z" fill="#d78b00"/><path d="m255.124 20.785 19.121 13.024h4.196v-13.026h-3.637v9.16l-13.616-9.158z" fill="#d78b00"/><path d="m339.499 192.61c9.165 0 16.596-33.251 16.596-74.269 0-41.017-7.431-74.269-16.596-74.269h-171.148c-9.166 0-16.596 33.252-16.596 74.269 0 41.019 7.43 74.269 16.596 74.269z" fill="#333"/><path d="m170.693 65.144h165.107v106.427h-165.107z" fill="#1a1a1a"/><path d="m331.856 66.902c1.122 0 2.039.917 2.039 2.039v98.572c0 1.122-.917 2.039-2.039 2.039h-156.809c-1.12 0-2.038-.917-2.038-2.039v-98.572c0-1.122.918-2.039 2.038-2.039zm0-5.44h-156.809c-4.123 0-7.477 3.356-7.477 7.479v98.572c0 4.123 3.354 7.479 7.477 7.479h156.809c4.124 0 7.479-3.355 7.479-7.479v-98.572c0-4.123-3.355-7.479-7.479-7.479z" fill="#262626"/><path d="m133.934 228.515-25.039 8.055c-.231.072-.473.111-.714.111h-82.647c-.924 0-1.76-.546-2.134-1.391-15.308-34.759-23.4-75.199-23.4-116.949 0-41.752 8.092-82.191 23.4-116.949.374-.846 1.21-1.392 2.134-1.392h82.646c.241 0 .482.038.714.112l25.039 8.053c-13.945 31.662-22.058 69.447-22.058 110.174.001 40.729 8.113 78.515 22.059 110.176z" fill="#262626"/><path d="m131.866 224.291-24.08 7.745c-.222.07-.452.107-.686.107h-79.475c-.89 0-1.694-.524-2.053-1.339-14.721-33.426-22.504-72.314-22.504-112.463 0-40.15 7.782-79.039 22.504-112.464.358-.813 1.163-1.338 2.053-1.338h79.476c.233 0 .464.037.686.107l24.08 7.745c-13.409 30.446-21.213 66.783-21.213 105.948-.001 39.166 7.803 75.504 21.212 105.952z" fill="#333"/><path d="m372.985 228.515 25.04 8.055c.231.072.472.111.714.111h82.646c.924 0 1.761-.546 2.134-1.391 15.31-34.76 23.4-75.199 23.4-116.949 0-41.752-8.091-82.191-23.4-116.949-.373-.846-1.209-1.392-2.133-1.392h-82.646c-.242 0-.483.038-.714.112l-25.04 8.053c13.946 31.662 22.059 69.447 22.059 110.174-.001 40.729-8.113 78.515-22.06 110.176z" fill="#262626"/><path d="m374.932 224.291 24.079 7.745c.222.07.454.107.687.107h79.477c.889 0 1.693-.524 2.051-1.339 14.723-33.426 22.505-72.314 22.505-112.463 0-40.15-7.782-79.039-22.505-112.464-.357-.813-1.162-1.338-2.051-1.338h-79.477c-.233 0-.465.037-.687.107l-24.079 7.745c13.41 30.446 21.212 66.783 21.212 105.948 0 39.166-7.802 75.504-21.212 105.952z" fill="#333"/><path d="m99.33 166.863c-.656 0-1.233-.475-1.341-1.142-2.491-15.434-3.755-31.375-3.755-47.381 0-15.88 1.246-31.711 3.703-47.053.119-.741.813-1.248 1.557-1.127.742.119 1.247.816 1.128 1.557-2.434 15.2-3.668 30.887-3.668 46.623 0 15.861 1.251 31.656 3.72 46.947.12.741-.384 1.439-1.125 1.559-.074.011-.148.017-.219.017z" fill="#262626"/><path d="m106.159 164.904c-.66 0-1.239-.48-1.342-1.152-2.285-14.811-3.443-30.09-3.443-45.412 0-15.216 1.141-30.385 3.392-45.084.113-.742.81-1.25 1.549-1.139.743.113 1.252.807 1.138 1.549-2.229 14.564-3.36 29.596-3.36 44.674 0 15.184 1.147 30.322 3.412 44.998.114.742-.395 1.436-1.136 1.551-.072.01-.142.015-.21.015z" fill="#262626"/><path d="m384.882 128.083c0 1.502-1.219 2.72-2.72 2.72h-6.798c-1.502 0-2.72-1.218-2.72-2.72v-19.941c0-1.501 1.218-2.719 2.72-2.719h6.798c1.501 0 2.72 1.218 2.72 2.719z" fill="#404040"/><path d="m382.176 164.181c-.157 1.492-1.496 2.576-2.989 2.42l-6.761-.711c-1.493-.157-2.577-1.496-2.42-2.989l2.083-19.831c.157-1.493 1.496-2.576 2.989-2.42l6.761.711c1.493.156 2.577 1.494 2.42 2.988z" fill="#404040"/><path d="m382.176 71.82c-.157-1.493-1.496-2.576-2.989-2.42l-6.761.71c-1.493.157-2.577 1.495-2.42 2.989l2.083 19.832c.157 1.492 1.496 2.576 2.989 2.419l6.761-.71c1.493-.157 2.577-1.496 2.42-2.988z" fill="#404040"/><path d="m123.56 128.083c0 1.502 1.218 2.72 2.719 2.72h6.799c1.501 0 2.719-1.218 2.719-2.72v-19.941c0-1.501-1.218-2.719-2.719-2.719h-6.799c-1.501 0-2.719 1.218-2.719 2.719z" fill="#404040"/><path d="m126.266 164.181c.157 1.492 1.495 2.576 2.988 2.42l6.762-.711c1.493-.157 2.577-1.496 2.42-2.989l-2.084-19.831c-.157-1.493-1.495-2.576-2.99-2.42l-6.76.711c-1.493.156-2.576 1.494-2.42 2.988z" fill="#404040"/><path d="m126.266 71.82c.157-1.493 1.495-2.576 2.988-2.42l6.762.71c1.493.157 2.577 1.495 2.42 2.989l-2.084 19.832c-.157 1.492-1.495 2.576-2.99 2.419l-6.76-.71c-1.493-.157-2.576-1.496-2.42-2.988z" fill="#404040"/><path d="m150.007 25.886c0 1.877-1.521 3.398-3.399 3.398-1.877 0-3.398-1.521-3.398-3.398 0-1.878 1.521-3.399 3.398-3.399s3.399 1.521 3.399 3.399z" fill="#ce6d30"/><path d="m428.584 48.452c.385 1.415-.451 2.878-1.868 3.262l-25.968 7.059c-1.416.386-2.876-.45-3.262-1.868l-7.06-25.967c-.384-1.418.451-2.877 1.868-3.263l25.968-7.058c1.416-.386 2.876.449 3.261 1.867z" fill="#1a1a1a"/><path d="m422.329 36.208c1.926 7.083-2.255 14.385-9.338 16.311-7.082 1.925-14.385-2.256-16.31-9.339-1.926-7.082 2.257-14.385 9.339-16.309 7.082-1.926 14.384 2.254 16.309 9.337z" fill="#404040"/><path d="m470.732 36.555c.385 1.415-.452 2.878-1.869 3.262l-25.967 7.059c-1.416.385-2.877-.45-3.263-1.868l-7.058-25.968c-.385-1.417.451-2.876 1.867-3.262l25.968-7.059c1.416-.385 2.875.451 3.262 1.868z" fill="#1a1a1a"/><path d="m464.477 24.311c1.926 7.083-2.254 14.385-9.337 16.31s-14.385-2.256-16.31-9.338c-1.926-7.083 2.257-14.385 9.338-16.308 7.082-1.927 14.384 2.253 16.309 9.336z" fill="#404040"/><path d="m432.575 218.064c-.386 1.416.452 2.878 1.868 3.262l25.968 7.059c1.416.385 2.875-.45 3.262-1.867l7.059-25.969c.385-1.416-.451-2.876-1.868-3.262l-25.967-7.059c-1.416-.385-2.877.451-3.262 1.867z" fill="#1a1a1a"/><path d="m438.83 205.82c-1.926 7.084 2.254 14.385 9.338 16.311 7.081 1.924 14.385-2.256 16.309-9.339 1.926-7.082-2.256-14.384-9.339-16.308-7.081-1.926-14.382 2.254-16.308 9.336z" fill="#404040"/><path d="m390.427 206.167c-.386 1.416.451 2.877 1.868 3.262l25.968 7.059c1.416.385 2.876-.451 3.262-1.867l7.06-25.969c.384-1.416-.451-2.876-1.868-3.262l-25.968-7.059c-1.416-.385-2.876.451-3.261 1.867z" fill="#1a1a1a"/><path d="m396.682 193.923c-1.926 7.084 2.255 14.385 9.338 16.311 7.082 1.924 14.385-2.256 16.31-9.339s-2.258-14.384-9.339-16.308c-7.083-1.925-14.385 2.254-16.309 9.336z" fill="#404040"/><path d="m89.887 108.056c0-2.243-1.836-4.078-4.079-4.078h-11.729c-2.244 0-4.08-1.836-4.08-4.079v-11.729c0-2.244-1.835-4.078-4.078-4.078h-21.291c-2.244 0-4.08 1.834-4.08 4.078v11.729c0 2.243-1.836 4.079-4.078 4.079h-11.73c-2.243 0-4.08 1.835-4.08 4.078v21.292c0 2.243 1.837 4.079 4.08 4.079h11.729c2.242 0 4.078 1.836 4.078 4.079v11.729c0 2.243 1.836 4.079 4.08 4.079h21.291c2.243 0 4.078-1.836 4.078-4.079v-11.729c0-2.243 1.836-4.079 4.08-4.079h11.729c2.243 0 4.079-1.836 4.079-4.079v-21.292z" fill="#1a1a1a"/><path d="m86.656 118.683c0 6.523-5.287 11.792-11.81 11.792l-4.614-.038c-1.751 0-3.184 1.434-3.184 3.184v4.575c0 6.524-5.289 11.811-11.811 11.811s-11.753-5.287-11.753-11.811l.018-4.575c0-1.751-1.433-3.184-3.185-3.184l-4.614.038c-6.521 0-11.809-5.269-11.809-11.792 0-6.521 5.287-11.791 11.809-11.791l4.614.037c1.752 0 3.185-1.433 3.185-3.184l-.018-4.576c0-6.522 5.23-11.811 11.753-11.811s11.811 5.288 11.811 11.811v4.576c0 1.751 1.433 3.184 3.184 3.184l4.614-.037c6.523 0 11.81 5.27 11.81 11.791z" fill="#404040"/><path clip-rule="evenodd" d="m243.26 201.501h.934v2.625c0 2.204 1.511 4.056 3.556 4.573l.002 1.491c-2.551-.423-4.497-2.644-4.495-5.31zm-1.777 0h-.934v2.625c0 2.204-1.513 4.056-3.556 4.573l-.004 1.491c2.552-.423 4.498-2.644 4.496-5.31zm.219 0h1.335v8.693h-1.335zm21.166 5.316-.827-2.701-.74 2.696zm-1.94 1.349-.554 2.016h-1.53l2.138-7.746c.133-.447.55-.775 1.043-.775s.911.328 1.045.775l2.344 7.759-1.519-.013-.614-2.012zm-7.432-1.349-.828-2.701-.739 2.696zm-1.941 1.349-.553 2.016h-1.529l2.136-7.746c.134-.447.55-.775 1.044-.775.492 0 .911.328 1.046.775l2.343 7.759-1.518-.013-.615-2.012zm17.656-1.471c.968-.37 1.652-1.306 1.652-2.402 0-1.421-1.151-2.572-2.573-2.572l-.996-.006c-.923-.004-1.457.483-1.457 1.458v6.972h1.457v-7.017h.898c.684 0 1.237.555 1.237 1.239 0 .609-.439 1.114-1.018 1.219-.102.024-.205.055-.301.111-.507.307-.671.967-.365 1.473l1.831 3.024h1.539l-1.99-3.273c-.044-.071-.021-.163.051-.206.013-.008.028-.012.041-.016zm-14.342-3.526v-1.442h5.085v1.442h-1.809l-.006 7.024h-1.456v-7.018zm16.674-1.449h1.457v8.474h-1.457z" fill="#666" fill-rule="evenodd"/><path d="m462.782 182.578c-.097 0-.195-.01-.295-.031-.732-.162-1.195-.889-1.033-1.621 4.449-20.128 6.705-41.184 6.705-62.586 0-21.284-2.232-42.234-6.635-62.267-.161-.733.303-1.459 1.036-1.62.738-.158 1.459.303 1.62 1.036 4.444 20.224 6.697 41.37 6.697 62.851 0 21.598-2.277 42.852-6.77 63.172-.138.634-.701 1.066-1.325 1.066z" fill="#262626"/><path d="m449.011 178.628c-.091 0-.183-.009-.274-.028-.736-.15-1.21-.869-1.059-1.605 3.892-18.928 5.865-38.662 5.865-58.654 0-19.889-1.951-39.516-5.798-58.334-.15-.736.324-1.454 1.06-1.604.737-.155 1.454.325 1.604 1.06 3.884 18.997 5.853 38.807 5.853 58.879 0 20.176-1.991 40.095-5.92 59.202-.133.641-.699 1.084-1.331 1.084z" fill="#262626"/><path d="m434.538 174.476c-.085 0-.17-.008-.256-.024-.737-.14-1.222-.852-1.082-1.589 3.349-17.649 5.047-35.993 5.047-54.523 0-18.41-1.678-36.646-4.987-54.201-.14-.738.346-1.449 1.084-1.588.734-.141 1.448.346 1.588 1.084 3.341 17.721 5.034 36.127 5.034 54.705 0 18.699-1.714 37.215-5.094 55.029-.124.652-.694 1.107-1.334 1.107z" fill="#262626"/><path d="m424.206 171.512c-.08 0-.16-.007-.241-.021-.739-.132-1.231-.839-1.1-1.577 2.989-16.73 4.505-34.082 4.505-51.574 0-17.386-1.496-34.629-4.445-51.252-.131-.738.362-1.444 1.102-1.576.732-.131 1.444.362 1.576 1.102 2.977 16.779 4.486 34.182 4.486 51.727 0 17.651-1.529 35.164-4.546 52.053-.118.656-.691 1.118-1.337 1.118z" fill="#262626"/><path d="m413.842 168.54c-.075 0-.15-.007-.227-.019-.74-.125-1.24-.826-1.116-1.566 2.65-15.812 3.994-32.168 3.994-48.615 0-16.334-1.326-32.582-3.94-48.292-.124-.741.377-1.44 1.117-1.564.748-.116 1.441.378 1.564 1.118 2.639 15.857 3.977 32.254 3.977 48.738 0 16.598-1.356 33.105-4.031 49.064-.111.665-.687 1.136-1.338 1.136z" fill="#262626"/><path d="m407.999 166.863c-.072 0-.146-.006-.219-.017-.741-.119-1.245-.817-1.125-1.559 2.468-15.291 3.72-31.086 3.72-46.947 0-15.749-1.234-31.436-3.669-46.622-.118-.741.386-1.438 1.128-1.558.731-.115 1.439.385 1.558 1.127 2.457 15.329 3.702 31.16 3.702 47.053 0 16.006-1.263 31.947-3.755 47.381-.108.667-.685 1.142-1.34 1.142z" fill="#262626"/><path d="m401.17 164.904c-.069 0-.139-.005-.209-.016-.742-.115-1.251-.809-1.137-1.551 2.265-14.674 3.413-29.813 3.413-44.998 0-15.08-1.131-30.111-3.361-44.673-.114-.743.396-1.436 1.138-1.55.751-.111 1.436.396 1.55 1.138 2.251 14.698 3.393 29.867 3.393 45.085 0 15.324-1.159 30.604-3.444 45.412-.105.672-.684 1.153-1.343 1.153z" fill="#262626"/><path d="m453.42 109.902c.049 1.717.085 3.438.103 5.16l2.719-.059c-.02-1.757-.055-3.512-.104-5.265z" fill="#1a1a1a"/><path d="m427.072 104.996 2.707-.291c-.058-1.285-.134-2.567-.208-3.85l-2.699.438c.07 1.233.146 2.466.2 3.703z" fill="#1a1a1a"/><path d="m416.247 106.158 2.708-.29c-.045-1.091-.108-2.177-.166-3.267l-2.7.438c.054 1.04.116 2.078.158 3.119z" fill="#1a1a1a"/><path d="m429.765 132.246-2.707-.291c-.056 1.236-.13 2.469-.202 3.703l2.7.438c.076-1.284.15-2.565.209-3.85z" fill="#1a1a1a"/><path d="m453.521 121.89c-.021 1.723-.06 3.442-.109 5.16l2.716.162c.052-1.752.091-3.507.112-5.264z" fill="#1a1a1a"/><path d="m440.59 133.408-2.708-.291c-.07 1.432-.151 2.859-.242 4.287l2.696.436c.096-1.475.18-2.952.254-4.432z" fill="#1a1a1a"/><path d="m455.799 135.041-2.707-.29c-.094 1.704-.2 3.405-.321 5.104l2.695.436c.127-1.747.236-3.497.333-5.25z" fill="#1a1a1a"/><path d="m465.862 81.362c.254 2.021.488 4.045.7 6.077l2.676-.572c-.218-2.076-.463-4.145-.724-6.209z" fill="#1a1a1a"/><path d="m437.656 99.546c.089 1.427.17 2.856.239 4.288l2.708-.291c-.072-1.479-.156-2.958-.251-4.434z" fill="#1a1a1a"/><path d="m430.004 111.302-2.715.163c.031 1.382.039 2.767.052 4.149l2.719-.058c-.013-1.418-.023-2.837-.056-4.254z" fill="#1a1a1a"/><path d="m419.185 121.166-2.721-.059c-.011 1.244-.018 2.486-.043 3.729l2.715.163c.027-1.278.036-2.556.049-3.833z" fill="#1a1a1a"/><path d="m416.468 115.844 2.719-.058c-.01-1.277-.017-2.557-.043-3.833l-2.715.163c.024 1.241.029 2.485.039 3.728z" fill="#1a1a1a"/><path d="m438.15 110.816c.038 1.521.064 3.044.081 4.568l2.717-.057c-.015-1.561-.043-3.118-.083-4.675z" fill="#1a1a1a"/><path d="m440.947 121.625-2.719-.057c-.016 1.523-.047 3.047-.085 4.568l2.716.162c.04-1.556.072-3.113.088-4.673z" fill="#1a1a1a"/><path d="m430.056 121.395-2.718-.058c-.015 1.383-.025 2.768-.059 4.148l2.716.162c.034-1.415.047-2.834.061-4.252z" fill="#1a1a1a"/><path d="m418.943 131.083-2.709-.291c-.043 1.041-.105 2.079-.159 3.118l2.699.438c.059-1.089.121-2.175.169-3.265z" fill="#1a1a1a"/><path d="m469.211 150.08-2.676-.572c-.215 2.031-.451 4.056-.706 6.074l2.65.703c.265-2.063.511-4.129.732-6.205z" fill="#1a1a1a"/><path d="m454.899 147.017-2.678-.573c-.169 1.797-.351 3.592-.553 5.38l2.654.705c.211-1.833.401-3.67.577-5.512z" fill="#1a1a1a"/><path d="m439.894 143.804-2.681-.572c-.129 1.551-.272 3.098-.425 4.643l2.663.707c.16-1.59.307-3.182.443-4.778z" fill="#1a1a1a"/><path d="m467.617 136.31c-.117 1.965-.247 3.928-.403 5.884l2.691.437c.162-2.005.298-4.016.419-6.029z" fill="#1a1a1a"/><path d="m452.79 97.094c.12 1.698.226 3.4.317 5.106l2.706-.291c-.094-1.754-.203-3.505-.327-5.252z" fill="#1a1a1a"/><path d="m468.011 109.029c.058 1.904.103 3.813.125 5.725l2.718-.059c-.022-1.946-.067-3.889-.128-5.829z" fill="#1a1a1a"/><path d="m468.134 122.199c-.024 1.912-.073 3.82-.133 5.725l2.715.162c.063-1.939.112-3.883.136-5.828z" fill="#1a1a1a"/><path d="m467.234 94.755c.154 1.956.283 3.92.399 5.885l2.706-.291c-.119-2.014-.251-4.025-.411-6.031z" fill="#1a1a1a"/><path d="m426.524 96.009 2.685-.575c-.109-1.42-.217-2.839-.345-4.254l-2.664.706c.121 1.371.223 2.748.324 4.123z" fill="#1a1a1a"/><path d="m437.235 93.716 2.68-.574c-.134-1.596-.279-3.188-.438-4.777l-2.664.706c.153 1.546.294 3.094.422 4.645z" fill="#1a1a1a"/><path d="m429.186 141.513-2.684-.574c-.103 1.374-.206 2.749-.327 4.119l2.662.707c.131-1.414.24-2.832.349-4.252z" fill="#1a1a1a"/><path d="m451.7 85.121c.201 1.789.379 3.584.548 5.383l2.677-.573c-.174-1.843-.361-3.681-.57-5.515z" fill="#1a1a1a"/><path d="m415.813 98.302 2.686-.576c-.086-1.242-.167-2.484-.267-3.725l-2.676.709c.094 1.196.176 2.394.257 3.592z" fill="#1a1a1a"/><path d="m418.478 139.221-2.685-.574c-.08 1.196-.162 2.395-.258 3.588l2.675.71c.103-1.238.184-2.483.268-3.724z" fill="#1a1a1a"/><path d="m724.945 63.176v166.136c0 4.053-3.316 7.369-7.369 7.369h-152.257c-4.053 0-7.369-3.316-7.369-7.369v-166.136c0-2.326 1.886-4.212 4.212-4.212h158.57c2.327 0 4.213 1.886 4.213 4.212z" fill="url(#a)"/><path d="m722.8 212.363v-110.276c0-1.013-.828-1.842-1.842-1.842h-159.022c-1.013 0-1.842.829-1.842 1.842v110.277h162.706z"/><path d="m560.094 212.363h162.705v16.786h-162.705z" fill="#595959"/><path d="m564.674 212.301h2.96v15.911h-2.96z" fill="#d78b00"/><path d="m569.238 212.301h2.96v15.911h-2.96z" fill="#d78b00"/><path d="m573.8 212.301h2.96v15.911h-2.96z" fill="#d78b00"/><path d="m578.364 212.301h2.96v13.479h-2.96z" fill="#d78b00"/><path d="m582.927 212.301h2.96v13.479h-2.96z" fill="#d78b00"/><path d="m587.49 212.301h2.961v13.479h-2.961z" fill="#d78b00"/><path d="m592.053 212.301h2.96v13.479h-2.96z" fill="#d78b00"/><path d="m596.617 212.301h2.96v13.479h-2.96z" fill="#d78b00"/><path d="m601.18 212.301h2.96v13.479h-2.96z" fill="#d78b00"/><path d="m605.743 212.301h2.961v13.479h-2.961z" fill="#d78b00"/><path d="m610.306 212.301h2.96v13.479h-2.96z" fill="#d78b00"/><path d="m614.869 212.301h2.96v13.479h-2.96z" fill="#d78b00"/><path d="m619.432 212.301h2.961v13.479h-2.961z" fill="#d78b00"/><path d="m623.995 212.301h2.96v13.479h-2.96z" fill="#d78b00"/><path d="m628.559 212.301h2.96v13.479h-2.96z" fill="#d78b00"/><path d="m633.121 212.301h2.961v13.479h-2.961z" fill="#d78b00"/><path d="m637.685 212.301h2.96v13.479h-2.96z" fill="#d78b00"/><path d="m642.248 212.301h2.96v13.479h-2.96z" fill="#d78b00"/><path d="m646.812 212.301h2.96v13.479h-2.96z" fill="#d78b00"/><path d="m651.374 212.301h2.96v13.479h-2.96z" fill="#d78b00"/><path d="m655.938 212.301h2.96v13.479h-2.96z" fill="#d78b00"/><path d="m660.501 212.301h2.96v13.479h-2.96z" fill="#d78b00"/><path d="m665.064 212.301h2.961v13.479h-2.961z" fill="#d78b00"/><path d="m669.627 212.301h2.96v13.479h-2.96z" fill="#d78b00"/><path d="m674.191 212.301h2.96v13.479h-2.96z" fill="#d78b00"/><path d="m678.754 212.301h2.96v13.479h-2.96z" fill="#d78b00"/><path d="m683.317 212.301h2.961v13.479h-2.961z" fill="#d78b00"/><path d="m687.88 212.301h2.96v13.479h-2.96z" fill="#d78b00"/><path d="m692.444 212.301h2.96v13.479h-2.96z" fill="#d78b00"/><path d="m697.006 212.301h2.961v13.479h-2.961z" fill="#d78b00"/><path d="m701.57 212.301h2.96v13.479h-2.96z" fill="#d78b00"/><path d="m706.133 212.301h2.96v13.479h-2.96z" fill="#d78b00"/><path d="m710.696 212.301h2.961v13.479h-2.961z" fill="#d78b00"/><path d="m715.259 212.301h2.96v15.911h-2.96z" fill="#d78b00"/><path d="m560.095 123.048h162.705v73.5h-162.705z" fill="url(#b)"/><path d="m670.136 120.447 9.535-3.47 4.193 2.084-4.83 1.386z" fill="#a12d2b"/><path d="m690.396 110.494-4.133 1.583-14.75-7.296h10.926l17.359 8.439-1.981.736z" fill="#a12d2b"/><path d="m575.589 115.129v-10.348h8.468v10.348z" fill="url(#d)"/><path d="m575.589 120.447v-2.499h23.489v2.499z" fill="url(#e)"/><path d="m606.248 120.447v-4.269l17.905-11.397h6.157l-15.471 9.394v6.272z" fill="url(#f)"/><path d="m592.213 104.781h10.822l7.144 5.512-5.452 3.365z" fill="url(#g)"/><path d="m634.588 120.447v-13.427l8.53 5.256v8.171z" fill="url(#h)"/><path d="m661.044 120.447-24.192-15.666h5.915l19.11 13.155v-13.155h2.813v15.666z" fill="url(#i)"/><path d="m693.485 120.447-16.65-8.146 2.341-.864 7.024 3.56 3.72-1.48 14.911 6.93z" fill="url(#k)"/><path d="m692.761 106.555 4.65-1.774h9.074l-9.927 3.63z" fill="url(#l)"/><g fill="#fff"><path d="m713.5 102.918h-1.145v-.413h2.787v.413h-1.15v3.351h-.492z"/><path d="m718.73 104.616c-.028-.525-.062-1.156-.056-1.625h-.017c-.128.441-.285.911-.475 1.43l-.665 1.826h-.369l-.609-1.792c-.179-.531-.33-1.017-.436-1.463h-.011c-.011.469-.039 1.1-.072 1.665l-.101 1.614h-.464l.263-3.764h.62l.642 1.821c.156.463.285.876.38 1.268h.017c.095-.38.229-.793.396-1.268l.67-1.821h.62l.234 3.764h-.475z"/><path clip-rule="evenodd" d="m563.754 118.722v-.516h1.648c1.384 0 2.546-.834 2.871-1.964l.936-.001c-.266 1.409-1.66 2.484-3.333 2.483zm0 .981v.516h1.648c1.384 0 2.546.836 2.871 1.964l.936.002c-.266-1.409-1.66-2.484-3.333-2.483zm0-.121v-.737h5.458v.737zm3.337-11.691-1.696.457 1.693.409zm.847 1.072 1.265.306v.845l-4.863-1.181c-.281-.073-.487-.304-.487-.576s.206-.503.487-.577l4.871-1.295-.008.839-1.263.339zm-.847 4.105-1.696.457 1.693.408zm.847 1.072 1.265.305v.845l-4.863-1.18c-.281-.074-.487-.304-.487-.577 0-.272.206-.503.487-.578l4.871-1.294-.008.839-1.263.34zm-.923-9.752c-.232-.535-.82-.913-1.508-.913-.892 0-1.615.636-1.615 1.421l-.004.55c-.003.51.303.805.915.805h4.377v-.805h-4.405v-.496c0-.378.348-.683.778-.683.383 0 .7.242.765.562.015.057.034.113.07.166.193.28.607.371.925.202l1.899-1.011v-.85l-2.055 1.099c-.045.024-.102.011-.129-.028-.005-.007-.007-.016-.01-.023zm-2.213 7.921h-.906v-2.809h.906v.999l4.41.003v.804h-4.405zm-.91-9.209v-.805h5.32v.805z" fill-rule="evenodd"/><path d="m573.526 203.039v-3.406h-.634v-.821h2.097v.821h-.669v3.406z"/><path d="m575.26 203.039v-3.174h.655v.444c.079-.16.163-.28.256-.362.095-.082.199-.131.316-.146v1.006c-.04-.009-.077-.019-.113-.024s-.068-.007-.099-.007c-.115 0-.193.05-.238.151-.046.101-.068.297-.068.59v1.523h-.709z"/><path d="m578.066 203.039-.042-.291c-.089.118-.187.205-.294.265s-.222.09-.346.09c-.199 0-.356-.08-.473-.243-.117-.16-.175-.379-.175-.653 0-.239.048-.437.149-.592.099-.157.26-.291.487-.403.054-.026.127-.06.22-.103.266-.121.399-.258.399-.409 0-.093-.02-.164-.058-.213s-.093-.073-.165-.073c-.087 0-.151.034-.191.097-.042.065-.062.166-.062.3v.022h-.713c0-.358.079-.625.24-.801.159-.174.403-.261.727-.261.147 0 .278.017.393.05.117.034.211.084.29.147.101.084.169.185.209.304s.06.336.06.651v.095 1.129c0 .248.008.439.022.569.014.131.036.237.068.319h-.745zm-.091-1.528c-.183.063-.316.144-.401.239s-.127.215-.127.356c0 .101.02.181.062.241.042.062.099.091.169.091.103 0 .179-.045.226-.132.046-.088.07-.235.07-.44v-.355z"/><path d="m581.016 198.813v4.227h-.653v-.349c-.068.144-.151.252-.248.327-.099.075-.205.114-.326.114-.099 0-.189-.022-.27-.069-.083-.045-.151-.108-.207-.19-.062-.099-.107-.23-.133-.396-.024-.166-.038-.476-.038-.931 0-.718.048-1.189.145-1.416.097-.226.272-.338.522-.338.107 0 .201.03.282.09.081.058.153.151.217.274v-1.342h.709zm-.924 1.731c-.089 0-.151.058-.183.174s-.05.369-.05.765c0 .412.016.668.046.771.032.101.089.151.169.151.095 0 .159-.062.195-.183.036-.123.054-.446.054-.968 0-.269-.018-.455-.052-.556-.034-.103-.095-.154-.179-.154z"/><path d="m582.637 201.925h.667v.08c0 .371-.079.649-.234.838-.155.187-.387.282-.695.282-.155 0-.296-.028-.423-.084-.127-.054-.224-.131-.294-.228-.081-.11-.137-.259-.169-.444-.034-.185-.052-.48-.052-.886 0-.448.018-.761.052-.939s.095-.323.177-.439c.081-.108.183-.19.306-.244.125-.054.27-.082.433-.082.167 0 .312.03.433.09.123.06.222.147.298.265.064.099.111.216.139.353.028.138.042.371.042.704v.381h-1.158c-.002.009-.002.022-.002.035-.006.134-.01.228-.01.28 0 .224.02.379.058.467.038.086.103.129.195.129.081 0 .141-.032.183-.099.04-.067.06-.168.06-.304 0-.026-.002-.069-.006-.125 0-.013 0-.022 0-.03zm-.459-.903h.477c0-.004 0-.009 0-.017.006-.08.008-.136.008-.17 0-.155-.02-.271-.06-.343-.04-.075-.103-.112-.187-.112-.087 0-.149.035-.187.108-.036.073-.056.192-.056.358 0 .047.002.082.002.106-.001.027.001.05.003.07z"/><path d="m583.745 203.039v-3.174h.63v.375c.075-.151.161-.263.254-.334.095-.069.205-.105.332-.105.117 0 .218.037.302.112.083.075.149.185.193.327.077-.149.163-.261.26-.332.095-.071.205-.106.33-.106.189 0 .328.08.415.244.087.162.131.422.131.778v2.215h-.681v-2.012c0-.226-.012-.369-.038-.429-.024-.06-.07-.09-.133-.09-.077 0-.135.049-.179.146-.042.097-.064.231-.064.401v1.984h-.667v-2.012c0-.226-.012-.369-.038-.429-.024-.06-.068-.09-.133-.09-.077 0-.135.049-.177.146-.044.097-.066.231-.066.401v1.984z"/><path d="m588.275 203.039-.042-.291c-.089.118-.187.205-.294.265s-.222.09-.346.09c-.199 0-.357-.08-.473-.243-.117-.16-.175-.379-.175-.653 0-.239.048-.437.149-.592.099-.157.26-.291.487-.403.054-.026.127-.06.219-.103.266-.121.399-.258.399-.409 0-.093-.02-.164-.058-.213s-.093-.073-.165-.073c-.087 0-.151.034-.191.097-.042.065-.062.166-.062.3v.022h-.713c0-.358.079-.625.24-.801.159-.174.403-.261.727-.261.147 0 .278.017.393.05.117.034.211.084.29.147.101.084.169.185.209.304s.06.336.06.651v.095 1.129c0 .248.008.439.022.569.014.131.036.237.068.319h-.744zm-.091-1.528c-.183.063-.316.144-.401.239s-.127.215-.127.356c0 .101.02.181.062.241.042.062.099.091.169.091.103 0 .179-.045.226-.132.046-.088.07-.235.07-.44v-.355z"/><path d="m589.38 203.039v-3.174h.655v.444c.079-.16.163-.28.256-.362.095-.082.199-.131.316-.146v1.006c-.04-.009-.077-.019-.113-.024s-.068-.007-.099-.007c-.115 0-.193.05-.238.151-.046.101-.068.297-.068.59v1.523h-.709z"/><path d="m590.957 203.039v-4.227h.697v2.092l.56-1.039h.713l-.743 1.213.757 1.961h-.713l-.457-1.293-.117.203v1.09z"/><path d="m594.178 203.039.739-4.227h.943l.731 4.227h-.791l-.101-.81h-.622l-.099.81zm.98-1.573h.455l-.228-1.844z"/><path d="m598.01 203.028c-.087.021-.161.035-.226.045-.064.011-.121.015-.165.015-.141 0-.262-.028-.36-.084-.099-.056-.171-.138-.22-.244-.03-.073-.052-.164-.064-.276-.012-.11-.018-.28-.018-.506v-.392-1.066h-.276v-.655h.276v-.879h.715v.879h.338v.655h-.338v1.295c0 .276.016.446.048.511.032.063.095.095.187.095.016 0 .042-.002.079-.007.01-.002.018-.004.024-.004z"/><path d="m599.583 203.039-.042-.291c-.089.118-.187.205-.294.265s-.222.09-.346.09c-.199 0-.356-.08-.473-.243-.117-.16-.175-.379-.175-.653 0-.239.048-.437.149-.592.099-.157.26-.291.487-.403.054-.026.127-.06.22-.103.266-.121.399-.258.399-.409 0-.093-.02-.164-.058-.213s-.093-.073-.165-.073c-.087 0-.151.034-.191.097-.042.065-.062.166-.062.3v.022h-.713c0-.358.079-.625.24-.801.159-.174.403-.261.727-.261.147 0 .278.017.393.05.117.034.211.084.29.147.101.084.169.185.209.304s.06.336.06.651v.095 1.129c0 .248.008.439.022.569.014.131.036.237.068.319h-.745zm-.09-1.528c-.183.063-.316.144-.401.239s-.127.215-.127.356c0 .101.02.181.062.241.042.062.099.091.169.091.103 0 .179-.045.226-.132.046-.088.07-.235.07-.44v-.355z"/><path d="m600.691 203.039v-3.174h.655v.444c.079-.16.163-.28.256-.362.095-.082.199-.131.316-.146v1.006c-.04-.009-.077-.019-.113-.024s-.068-.007-.099-.007c-.115 0-.193.05-.238.151-.046.101-.068.297-.068.59v1.523h-.709z"/><path d="m602.266 199.548v-.767h.707v.767zm0 3.491v-3.174h.707v3.174z"/><path d="m606.088 201.405h.779c.002.024.002.052.004.082v.131c0 .517-.091.899-.272 1.149s-.459.373-.832.373c-.222 0-.409-.045-.566-.136s-.284-.23-.381-.414c-.068-.132-.117-.315-.145-.549-.03-.235-.044-.606-.044-1.114 0-.509.014-.881.044-1.114.028-.235.076-.418.145-.55.095-.183.22-.319.377-.412.155-.091.34-.138.556-.138.371 0 .648.129.836.386.185.256.278.64.278 1.153v.041l-.771-.004c-.002-.286-.028-.489-.079-.605-.05-.116-.133-.174-.25-.174-.129 0-.216.071-.262.213-.048.142-.07.517-.07 1.123v.08c0 .653.022 1.052.07 1.2.046.147.133.22.262.22.119 0 .201-.052.25-.16.046-.106.07-.306.07-.595v-.186z"/><path d="m607.283 201.453c0-.618.073-1.052.214-1.301.143-.248.387-.373.733-.373s.59.123.733.369c.143.248.214.683.214 1.304 0 .618-.07 1.051-.214 1.299s-.387.373-.733.373c-.348 0-.592-.123-.733-.369-.144-.246-.214-.68-.214-1.302zm.723 0c0 .446.014.726.046.838.032.114.091.17.177.17s.145-.054.177-.162.048-.39.048-.845-.016-.737-.048-.847c-.032-.108-.091-.162-.177-.162s-.145.056-.177.17-.046.392-.046.838z"/><path d="m609.577 203.039v-3.174h.655v.444c.079-.16.163-.28.256-.362.095-.082.199-.131.316-.146v1.006c-.04-.009-.077-.019-.113-.024-.036-.006-.068-.007-.099-.007-.115 0-.193.05-.238.151-.046.101-.068.297-.068.59v1.523h-.709z"/><path d="m611.17 204.107v-4.242h.653v.358c.066-.142.149-.25.246-.323.099-.075.207-.11.326-.11.101 0 .191.022.274.065.083.045.151.106.205.187.062.099.107.231.133.397.024.164.038.476.038.931 0 .722-.048 1.196-.145 1.422-.095.224-.268.338-.518.338-.107 0-.201-.032-.284-.093-.083-.062-.157-.153-.222-.278v1.347h-.706zm.924-1.732c.093 0 .155-.065.189-.198.034-.131.052-.437.052-.912 0-.287-.016-.485-.05-.592-.034-.104-.093-.159-.173-.159-.095 0-.159.062-.195.185-.036.121-.054.444-.054.968 0 .269.018.453.052.556.034.102.095.152.179.152z"/><path d="m613.393 201.453c0-.618.073-1.052.214-1.301.143-.248.387-.373.733-.373s.59.123.733.369c.143.248.213.683.213 1.304 0 .618-.07 1.051-.213 1.299s-.387.373-.733.373c-.348 0-.592-.123-.733-.369-.143-.246-.214-.68-.214-1.302zm.723 0c0 .446.014.726.046.838.032.114.091.17.177.17.087 0 .145-.054.177-.162s.048-.39.048-.845-.016-.737-.048-.847c-.032-.108-.091-.162-.177-.162-.087 0-.145.056-.177.17s-.046.392-.046.838z"/><path d="m615.685 203.039v-3.174h.655v.444c.079-.16.163-.28.256-.362.095-.082.199-.131.316-.146v1.006c-.04-.009-.077-.019-.113-.024s-.068-.007-.099-.007c-.115 0-.193.05-.238.151-.046.101-.068.297-.068.59v1.523h-.709z"/><path d="m618.493 203.039-.042-.291c-.089.118-.187.205-.294.265s-.221.09-.346.09c-.199 0-.357-.08-.473-.243-.117-.16-.175-.379-.175-.653 0-.239.048-.437.149-.592.099-.157.26-.291.487-.403.054-.026.127-.06.22-.103.266-.121.399-.258.399-.409 0-.093-.02-.164-.058-.213s-.093-.073-.165-.073c-.087 0-.151.034-.191.097-.042.065-.062.166-.062.3v.022h-.713c0-.358.079-.625.24-.801.159-.174.403-.261.727-.261.147 0 .278.017.393.05.117.034.211.084.29.147.101.084.169.185.209.304s.06.336.06.651v.095 1.129c0 .248.008.439.022.569.014.131.036.237.068.319h-.745zm-.091-1.528c-.183.063-.316.144-.401.239s-.127.215-.127.356c0 .101.02.181.062.241.042.062.099.091.169.091.103 0 .179-.045.226-.132.046-.088.07-.235.07-.44v-.355z"/><path d="m620.758 203.028c-.087.021-.161.035-.226.045-.064.011-.121.015-.165.015-.141 0-.262-.028-.36-.084-.099-.056-.171-.138-.22-.244-.03-.073-.052-.164-.064-.276-.012-.11-.018-.28-.018-.506v-.392-1.066h-.276v-.655h.276v-.879h.715v.879h.338v.655h-.338v1.295c0 .276.016.446.048.511.032.063.095.095.187.095.016 0 .042-.002.079-.007.01-.002.018-.004.024-.004z"/><path d="m621.101 199.548v-.767h.707v.767zm0 3.491v-3.174h.707v3.174z"/><path d="m622.225 201.453c0-.618.073-1.052.214-1.301.143-.248.387-.373.733-.373s.59.123.733.369c.143.248.213.683.213 1.304 0 .618-.07 1.051-.213 1.299s-.387.373-.733.373c-.348 0-.592-.123-.733-.369-.144-.246-.214-.68-.214-1.302zm.723 0c0 .446.014.726.046.838.032.114.091.17.177.17s.145-.054.177-.162.048-.39.048-.845-.016-.737-.048-.847c-.032-.108-.091-.162-.177-.162s-.145.056-.177.17-.046.392-.046.838z"/><path d="m624.537 203.039v-3.174h.667v.375c.079-.149.167-.261.268-.332.099-.071.215-.106.348-.106.197 0 .34.082.431.244.093.164.137.424.137.778v2.215h-.707v-1.961c0-.256-.012-.414-.038-.476s-.075-.093-.141-.093c-.079 0-.141.049-.185.144-.046.097-.068.231-.068.403v1.984h-.712z"/><path d="m626.839 203.039v-.967h.781v.967z"/><path d="m629.215 201.606h.727v.125c0 .231.022.396.066.491.042.095.117.142.222.142.083 0 .149-.035.197-.108s.073-.17.073-.295c0-.205-.117-.401-.354-.59-.038-.034-.066-.058-.087-.075-.008-.006-.02-.015-.038-.03-.318-.267-.516-.468-.594-.605-.056-.101-.099-.216-.127-.345-.03-.127-.044-.267-.044-.42 0-.369.087-.659.258-.87s.407-.315.709-.315c.326 0 .576.103.749.31.171.207.258.506.258.898 0 .017 0 .039-.002.069-.002.028-.002.052-.002.067h-.711v-.05c0-.185-.024-.325-.07-.42-.044-.095-.113-.144-.199-.144-.077 0-.137.034-.181.101-.046.067-.068.155-.068.265 0 .179.129.369.387.571.048.037.083.067.109.088.02.013.048.037.087.067.276.22.453.405.532.554.048.097.085.207.111.332.026.123.038.258.038.401 0 .424-.087.748-.264.978-.175.228-.427.341-.755.341-.342 0-.6-.108-.773-.327-.171-.218-.258-.545-.258-.976 0-.028 0-.056 0-.086-.002-.03 0-.077.004-.144z"/><path d="m631.582 201.453c0-.618.073-1.052.214-1.301.143-.248.387-.373.733-.373s.59.123.733.369c.143.248.214.683.214 1.304 0 .618-.07 1.051-.214 1.299s-.387.373-.733.373c-.348 0-.592-.123-.733-.369-.144-.246-.214-.68-.214-1.302zm.723 0c0 .446.014.726.046.838.032.114.091.17.177.17s.145-.054.177-.162.048-.39.048-.845-.016-.737-.048-.847c-.032-.108-.091-.162-.177-.162s-.145.056-.177.17-.046.392-.046.838z"/><path d="m634.01 203.039v-2.501h-.288v-.674h.288c0-.021 0-.049-.002-.084-.002-.034-.002-.058-.002-.073 0-.334.056-.569.171-.705.113-.138.306-.207.582-.207.04 0 .083.002.129.006.044.002.091.006.139.011v.64c-.01-.002-.022-.004-.032-.004-.012-.002-.03-.002-.052-.002-.081 0-.139.024-.173.071-.034.049-.052.127-.052.239v.063c.002.015.004.03.006.045h.306v.674h-.306v2.501z"/><path d="m636.596 203.028c-.087.021-.161.035-.226.045-.064.011-.121.015-.165.015-.141 0-.262-.028-.36-.084-.099-.056-.171-.138-.22-.244-.03-.073-.052-.164-.064-.276-.012-.11-.018-.28-.018-.506v-.392-1.066h-.276v-.655h.276v-.879h.715v.879h.338v.655h-.338v1.295c0 .276.016.446.048.511.032.063.095.095.187.095.016 0 .042-.002.079-.007.01-.002.018-.004.024-.004z"/><path d="m637.231 203.039-.491-3.174h.691l.197 2.208.272-2.208h.594l.266 2.208.201-2.208h.689l-.495 3.174h-.739l-.224-1.748-.219 1.748z"/><path d="m641.14 203.039-.042-.291c-.089.118-.187.205-.294.265s-.222.09-.346.09c-.199 0-.356-.08-.473-.243-.117-.16-.175-.379-.175-.653 0-.239.048-.437.149-.592.099-.157.26-.291.487-.403.054-.026.127-.06.22-.103.266-.121.399-.258.399-.409 0-.093-.02-.164-.058-.213s-.093-.073-.165-.073c-.087 0-.151.034-.191.097-.042.065-.062.166-.062.3v.022h-.713c0-.358.079-.625.24-.801.159-.174.403-.261.727-.261.147 0 .278.017.393.05.117.034.211.084.29.147.101.084.169.185.209.304s.06.336.06.651v.095 1.129c0 .248.008.439.022.569.014.131.036.237.068.319h-.745zm-.091-1.528c-.183.063-.316.144-.401.239s-.127.215-.127.356c0 .101.02.181.062.241.042.062.099.091.169.091.103 0 .179-.045.226-.132.046-.088.07-.235.07-.44v-.355z"/><path d="m642.248 203.039v-3.174h.655v.444c.079-.16.163-.28.256-.362.095-.082.199-.131.316-.146v1.006c-.04-.009-.077-.019-.113-.024-.036-.006-.068-.007-.099-.007-.115 0-.193.05-.238.151-.046.101-.068.297-.068.59v1.523h-.709z"/><path d="m644.958 201.925h.667v.08c0 .371-.078.649-.234.838-.155.187-.387.282-.695.282-.155 0-.296-.028-.423-.084-.127-.054-.224-.131-.294-.228-.081-.11-.137-.259-.169-.444-.034-.185-.052-.48-.052-.886 0-.448.018-.761.052-.939s.095-.323.177-.439c.081-.108.183-.19.306-.244.125-.054.27-.082.433-.082.167 0 .312.03.433.09.123.06.222.147.298.265.064.099.111.216.139.353.028.138.042.371.042.704v.381h-1.158c-.002.009-.002.022-.002.035-.006.134-.01.228-.01.28 0 .224.02.379.058.467.038.086.103.129.195.129.081 0 .141-.032.183-.099.04-.067.06-.168.06-.304 0-.026-.002-.069-.006-.125 0-.013 0-.022 0-.03zm-.459-.903h.477c0-.004 0-.009 0-.017.006-.08.008-.136.008-.17 0-.155-.02-.271-.06-.343-.04-.075-.103-.112-.187-.112-.087 0-.149.035-.187.108-.036.073-.056.192-.056.358 0 .047.002.082.002.106-.001.027.001.05.003.07z"/><path d="m648.91 198.941c.228 0 .443.052.644.155s.381.252.538.446c.151.192.27.416.352.668.083.252.125.517.125.795 0 .282-.04.547-.123.793-.081.244-.199.463-.354.651-.163.198-.346.349-.55.457-.203.106-.415.16-.632.16s-.425-.052-.624-.157c-.197-.105-.377-.256-.536-.455-.159-.196-.28-.418-.363-.668-.085-.248-.127-.509-.127-.782 0-.276.042-.539.127-.793.085-.252.207-.48.367-.679.151-.192.326-.34.524-.44.197-.1.408-.151.632-.151zm1.319 2.064c0-.22-.032-.429-.099-.629-.064-.2-.159-.375-.282-.528-.129-.16-.272-.28-.429-.362-.157-.08-.326-.121-.503-.121-.181 0-.35.039-.508.119-.155.078-.296.196-.417.353-.127.159-.224.338-.29.539-.068.202-.101.411-.101.629 0 .216.032.425.099.623.068.198.163.375.288.53.125.157.268.278.427.36.157.084.324.125.501.125.173 0 .34-.041.501-.125s.306-.207.435-.366c.125-.151.217-.325.282-.519.066-.195.096-.404.096-.628zm-1.023-.39c-.004-.114-.032-.205-.083-.271-.05-.065-.119-.099-.203-.099-.107 0-.191.065-.252.196s-.091.315-.091.552c0 .241.03.42.091.539.058.121.149.181.268.181.089 0 .155-.034.203-.101.046-.067.073-.164.077-.293l.546-.002c-.01.272-.089.489-.24.651s-.35.243-.598.243c-.286 0-.51-.105-.675-.317-.163-.213-.244-.506-.244-.879 0-.366.081-.661.244-.888.163-.226.375-.338.634-.338.258 0 .463.073.612.218.151.146.232.347.244.606h-.533z"/><path d="m652.968 203.039v-2.917h-.677v-.646h.038c.244 0 .437-.058.582-.172.147-.116.244-.289.292-.519h.522v4.253h-.757z"/><path d="m655.834 201.446c-.085.065-.167.114-.25.146s-.167.049-.254.049c-.25 0-.435-.108-.558-.327-.121-.218-.183-.549-.183-.993 0-.517.083-.901.248-1.155s.417-.379.755-.379c.161 0 .306.028.431.088.127.058.234.147.324.265.099.132.169.313.209.547.04.231.06.64.06 1.224 0 .509-.012.875-.032 1.094-.022.218-.056.396-.107.53-.07.19-.183.338-.338.439-.157.101-.346.153-.568.153-.298 0-.53-.095-.693-.286s-.246-.461-.246-.814l.723.004c.002.131.022.231.06.297.038.067.095.101.167.101.093 0 .159-.05.197-.153.036-.101.056-.278.056-.534 0-.077 0-.136-.002-.179.003-.045.001-.084.001-.117zm.018-1.239c0-.254-.022-.433-.062-.539-.04-.105-.109-.157-.205-.157-.085 0-.145.052-.179.155-.036.103-.054.289-.054.558 0 .258.02.44.058.545s.103.159.195.159.157-.049.193-.146c.036-.098.054-.29.054-.575z"/><path d="m658.251 201.446c-.085.065-.167.114-.25.146s-.167.049-.254.049c-.25 0-.435-.108-.558-.327-.121-.218-.183-.549-.183-.993 0-.517.083-.901.248-1.155s.417-.379.755-.379c.161 0 .306.028.431.088.127.058.234.147.324.265.099.132.169.313.209.547.04.231.06.64.06 1.224 0 .509-.012.875-.032 1.094-.022.218-.056.396-.107.53-.07.19-.183.338-.338.439-.157.101-.346.153-.568.153-.298 0-.53-.095-.693-.286s-.246-.461-.246-.814l.723.004c.002.131.022.231.06.297.038.067.095.101.167.101.093 0 .159-.05.197-.153.036-.101.056-.278.056-.534 0-.077 0-.136-.002-.179.003-.045.001-.084.001-.117zm.018-1.239c0-.254-.022-.433-.062-.539-.04-.105-.109-.157-.205-.157-.085 0-.145.052-.179.155-.036.103-.054.289-.054.558 0 .258.02.44.058.545s.103.159.195.159.157-.049.193-.146c.036-.098.054-.29.054-.575z"/><path d="m659.429 200.953c0-.526.012-.905.036-1.135.026-.23.068-.403.131-.523.085-.164.201-.291.348-.379.149-.088.318-.131.512-.131.193 0 .365.043.512.132.149.088.266.216.348.383.06.121.103.289.129.506.026.218.038.537.038.963 0 .461-.006.806-.018 1.036s-.034.418-.062.564c-.044.226-.153.407-.328.547-.173.138-.379.209-.618.209-.197 0-.371-.047-.522-.138-.149-.091-.268-.224-.352-.397-.056-.112-.095-.286-.119-.522-.025-.236-.035-.607-.035-1.115zm.761 0v.312c0 .481.018.787.056.914.036.127.107.19.209.19.101 0 .171-.063.209-.19s.056-.433.056-.914v-.312-.375c0-.452-.018-.739-.056-.862s-.109-.183-.209-.183c-.103 0-.173.063-.209.19-.038.127-.056.435-.056.924z"/><path d="m661.884 203.039v-.967h.777v.763c0 .368-.06.636-.179.802-.119.168-.318.263-.594.286v-.343c.137-.015.242-.069.312-.16.068-.091.105-.218.105-.381z"/><path d="m664.116 203.039.739-4.227h.943l.731 4.227h-.792l-.101-.81h-.622l-.099.81zm.98-1.573h.455l-.228-1.844z"/><path d="m667.946 203.028c-.087.021-.161.035-.226.045-.064.011-.121.015-.165.015-.141 0-.262-.028-.361-.084s-.171-.138-.219-.244c-.03-.073-.052-.164-.064-.276-.012-.11-.018-.28-.018-.506v-.392-1.066h-.276v-.655h.276v-.879h.715v.879h.338v.655h-.338v1.295c0 .276.016.446.048.511.032.063.095.095.187.095.016 0 .042-.002.078-.007.01-.002.018-.004.024-.004v.618z"/><path d="m669.521 203.039-.042-.291c-.089.118-.187.205-.294.265s-.222.09-.346.09c-.199 0-.356-.08-.473-.243-.117-.16-.175-.379-.175-.653 0-.239.048-.437.149-.592.099-.157.26-.291.487-.403.054-.026.127-.06.22-.103.266-.121.399-.258.399-.409 0-.093-.02-.164-.058-.213s-.093-.073-.165-.073c-.087 0-.151.034-.191.097-.042.065-.062.166-.062.3v.022h-.713c0-.358.079-.625.24-.801.159-.174.403-.261.727-.261.147 0 .278.017.393.05.117.034.211.084.29.147.101.084.169.185.209.304s.06.336.06.651v.095 1.129c0 .248.008.439.022.569.014.131.036.237.068.319h-.745zm-.09-1.528c-.183.063-.316.144-.401.239s-.127.215-.127.356c0 .101.02.181.062.241.042.062.099.091.169.091.103 0 .179-.045.226-.132.046-.088.07-.235.07-.44v-.355z"/><path d="m670.627 203.039v-3.174h.655v.444c.079-.16.163-.28.256-.362.095-.082.199-.131.316-.146v1.006c-.04-.009-.077-.019-.113-.024s-.068-.007-.099-.007c-.115 0-.193.05-.238.151-.046.101-.068.297-.068.59v1.523h-.709z"/><path d="m672.202 199.548v-.767h.707v.767zm0 3.491v-3.174h.707v3.174z"/><path d="m676.717 200.723v2.316h-.546l-.034-.263c-.081.114-.167.198-.264.254s-.205.084-.326.084c-.139 0-.266-.032-.383-.097-.117-.063-.218-.157-.304-.276-.107-.149-.183-.349-.228-.599-.042-.25-.064-.676-.064-1.273 0-.427.014-.767.046-1.024.03-.256.079-.448.143-.577.093-.185.218-.323.373-.416s.338-.14.552-.14c.332 0 .584.112.751.34.169.226.254.562.254 1.01 0 .017 0 .043-.002.077s-.002.06-.002.08h-.753v-.052c0-.243-.02-.416-.062-.521-.042-.104-.111-.157-.203-.157-.113 0-.189.063-.23.192-.042.129-.062.427-.062.898v.416.291c0 .47.018.767.058.89.04.121.113.183.22.183s.185-.054.234-.16c.048-.108.073-.284.073-.524 0-.056 0-.097 0-.127-.002-.03-.002-.058-.004-.086h-.31v-.737h1.073z"/><path d="m678.429 203.039-.042-.291c-.089.118-.187.205-.294.265s-.222.09-.346.09c-.199 0-.356-.08-.473-.243-.117-.16-.175-.379-.175-.653 0-.239.048-.437.149-.592.099-.157.26-.291.487-.403.054-.026.127-.06.22-.103.266-.121.399-.258.399-.409 0-.093-.02-.164-.058-.213s-.093-.073-.165-.073c-.087 0-.151.034-.191.097-.042.065-.062.166-.062.3v.022h-.713c0-.358.079-.625.24-.801.159-.174.403-.261.727-.261.147 0 .278.017.393.05.117.034.211.084.29.147.101.084.169.185.209.304s.06.336.06.651v.095 1.129c0 .248.008.439.022.569.014.131.036.237.068.319h-.745zm-.091-1.528c-.183.063-.316.144-.401.239s-.127.215-.127.356c0 .101.02.181.062.241.042.062.099.091.169.091.103 0 .179-.045.226-.132.046-.088.07-.235.07-.44v-.355z"/><path d="m679.551 203.039v-3.174h.63v.375c.075-.151.161-.263.254-.334.095-.069.205-.105.332-.105.117 0 .218.037.302.112.083.075.149.185.193.327.077-.149.163-.261.26-.332.095-.071.205-.106.33-.106.189 0 .328.08.415.244.087.162.131.422.131.778v2.215h-.681v-2.012c0-.226-.012-.369-.038-.429-.024-.06-.07-.09-.133-.09-.077 0-.135.049-.179.146-.042.097-.064.231-.064.401v1.984h-.667v-2.012c0-.226-.012-.369-.038-.429-.024-.06-.068-.09-.133-.09-.077 0-.135.049-.177.146-.044.097-.066.231-.066.401v1.984z"/><path d="m683.986 201.925h.667v.08c0 .371-.079.649-.234.838-.155.187-.387.282-.695.282-.155 0-.296-.028-.423-.084-.127-.054-.224-.131-.294-.228-.081-.11-.137-.259-.169-.444-.034-.185-.052-.48-.052-.886 0-.448.018-.761.052-.939s.095-.323.177-.439c.081-.108.183-.19.306-.244.125-.054.27-.082.433-.082.167 0 .312.03.433.09.123.06.221.147.298.265.064.099.111.216.139.353.028.138.042.371.042.704v.381h-1.158c-.002.009-.002.022-.002.035-.006.134-.01.228-.01.28 0 .224.02.379.058.467.038.086.103.129.195.129.081 0 .141-.032.183-.099.04-.067.06-.168.06-.304 0-.026-.002-.069-.006-.125 0-.013 0-.022 0-.03zm-.46-.903h.477c0-.004 0-.009 0-.017.006-.08.008-.136.008-.17 0-.155-.02-.271-.06-.343-.04-.075-.103-.112-.187-.112-.087 0-.149.035-.187.108-.036.073-.056.192-.056.358 0 .047.002.082.002.106-.001.027.001.05.003.07z"/><path d="m684.94 202.032.634.004c.008.164.034.284.079.36.042.077.109.114.197.114.07 0 .129-.026.173-.078.046-.052.068-.119.068-.202 0-.071-.016-.131-.046-.177-.032-.047-.103-.101-.211-.166-.022-.013-.06-.035-.109-.065-.258-.147-.437-.287-.538-.416-.073-.09-.127-.19-.165-.308s-.056-.241-.056-.368c0-.289.079-.521.236-.692s.371-.258.64-.258c.278 0 .493.082.642.248.151.166.226.403.226.713v.058l-.622-.004c-.002-.159-.022-.272-.058-.34-.036-.069-.095-.103-.175-.103-.073 0-.129.024-.171.073s-.064.112-.064.19c0 .14.107.269.32.384.028.017.052.03.068.039.29.162.483.321.582.474.099.155.147.356.147.605 0 .319-.079.567-.238.743-.157.177-.385.265-.677.265-.28 0-.495-.09-.651-.267s-.232-.425-.232-.746v-.08z"/><path d="m689.703 201.405h.779c.002.024.002.052.004.082v.131c0 .517-.091.899-.272 1.149s-.459.373-.832.373c-.222 0-.409-.045-.566-.136s-.284-.23-.381-.414c-.068-.132-.117-.315-.145-.549-.03-.235-.044-.606-.044-1.114 0-.509.014-.881.044-1.114.028-.235.077-.418.145-.55.095-.183.22-.319.377-.412.155-.091.34-.138.556-.138.371 0 .648.129.836.386.185.256.278.64.278 1.153v.041l-.771-.004c-.002-.286-.028-.489-.079-.605-.05-.116-.133-.174-.25-.174-.129 0-.216.071-.262.213-.048.142-.07.517-.07 1.123v.08c0 .653.022 1.052.07 1.2.046.147.133.22.262.22.119 0 .201-.052.25-.16.046-.106.07-.306.07-.595v-.186z"/><path d="m690.9 201.453c0-.618.072-1.052.213-1.301.143-.248.387-.373.733-.373s.59.123.733.369c.143.248.214.683.214 1.304 0 .618-.07 1.051-.214 1.299s-.387.373-.733.373c-.348 0-.592-.123-.733-.369-.143-.246-.213-.68-.213-1.302zm.723 0c0 .446.014.726.046.838.032.114.091.17.177.17s.145-.054.177-.162.048-.39.048-.845-.016-.737-.048-.847c-.032-.108-.091-.162-.177-.162s-.145.056-.177.17c-.032.112-.046.392-.046.838z"/><path d="m693.192 203.039v-3.174h.655v.444c.078-.16.163-.28.256-.362.095-.082.199-.131.316-.146v1.006c-.04-.009-.077-.019-.113-.024s-.068-.007-.099-.007c-.115 0-.193.05-.238.151-.046.101-.068.297-.068.59v1.523h-.709z"/><path d="m694.787 204.107v-4.242h.653v.358c.066-.142.149-.25.246-.323.099-.075.207-.11.326-.11.101 0 .191.022.274.065.083.045.151.106.205.187.062.099.107.231.133.397.024.164.038.476.038.931 0 .722-.048 1.196-.145 1.422-.095.224-.268.338-.518.338-.107 0-.201-.032-.284-.093s-.157-.153-.222-.278v1.347h-.706zm.924-1.732c.093 0 .155-.065.189-.198.034-.131.052-.437.052-.912 0-.287-.016-.485-.05-.592-.034-.104-.093-.159-.173-.159-.095 0-.159.062-.195.185-.036.121-.054.444-.054.968 0 .269.018.453.052.556.034.102.095.152.179.152z"/><path d="m697.008 201.453c0-.618.073-1.052.214-1.301.143-.248.387-.373.733-.373s.59.123.733.369c.143.248.214.683.214 1.304 0 .618-.07 1.051-.214 1.299s-.387.373-.733.373c-.348 0-.592-.123-.733-.369-.143-.246-.214-.68-.214-1.302zm.723 0c0 .446.014.726.046.838.032.114.091.17.177.17s.145-.054.177-.162.048-.39.048-.845-.016-.737-.048-.847c-.032-.108-.091-.162-.177-.162s-.145.056-.177.17-.046.392-.046.838z"/><path d="m699.3 203.039v-3.174h.655v.444c.079-.16.163-.28.256-.362.095-.082.199-.131.316-.146v1.006c-.04-.009-.077-.019-.113-.024s-.068-.007-.099-.007c-.115 0-.193.05-.238.151-.046.101-.068.297-.068.59v1.523h-.709z"/><path d="m702.108 203.039-.042-.291c-.089.118-.187.205-.294.265s-.222.09-.346.09c-.199 0-.356-.08-.473-.243-.117-.16-.175-.379-.175-.653 0-.239.048-.437.149-.592.099-.157.26-.291.487-.403.054-.026.127-.06.22-.103.266-.121.399-.258.399-.409 0-.093-.02-.164-.058-.213s-.093-.073-.165-.073c-.087 0-.151.034-.191.097-.042.065-.062.166-.062.3v.022h-.713c0-.358.079-.625.24-.801.159-.174.403-.261.727-.261.147 0 .278.017.393.05.117.034.211.084.29.147.101.084.169.185.209.304s.06.336.06.651v.095 1.129c0 .248.008.439.022.569.014.131.036.237.068.319h-.745zm-.091-1.528c-.183.063-.316.144-.401.239s-.127.215-.127.356c0 .101.02.181.062.241.042.062.099.091.169.091.103 0 .179-.045.226-.132.046-.088.07-.235.07-.44v-.355z"/><path d="m704.373 203.028c-.087.021-.161.035-.226.045-.064.011-.121.015-.165.015-.141 0-.262-.028-.361-.084s-.171-.138-.219-.244c-.03-.073-.052-.164-.064-.276-.012-.11-.018-.28-.018-.506v-.392-1.066h-.276v-.655h.276v-.879h.715v.879h.338v.655h-.338v1.295c0 .276.016.446.048.511.032.063.095.095.187.095.016 0 .042-.002.078-.007.01-.002.018-.004.024-.004v.618z"/><path d="m704.718 199.548v-.767h.707v.767zm0 3.491v-3.174h.707v3.174z"/><path d="m705.84 201.453c0-.618.073-1.052.214-1.301.143-.248.387-.373.733-.373s.59.123.733.369c.143.248.214.683.214 1.304 0 .618-.07 1.051-.214 1.299s-.387.373-.733.373c-.348 0-.592-.123-.733-.369-.144-.246-.214-.68-.214-1.302zm.723 0c0 .446.014.726.046.838.032.114.091.17.177.17s.145-.054.177-.162.048-.39.048-.845-.016-.737-.048-.847c-.032-.108-.091-.162-.177-.162s-.145.056-.177.17-.046.392-.046.838z"/><path d="m708.152 203.039v-3.174h.667v.375c.079-.149.167-.261.268-.332.099-.071.216-.106.348-.106.197 0 .34.082.431.244.093.164.137.424.137.778v2.215h-.707v-1.961c0-.256-.012-.414-.038-.476s-.075-.093-.141-.093c-.079 0-.141.049-.185.144-.046.097-.068.231-.068.403v1.984h-.712z"/><path d="m572.892 209.132.739-4.227h.943l.731 4.227h-.792l-.101-.81h-.622l-.099.81zm.981-1.573h.455l-.228-1.844z"/><path d="m576.285 209.132h-.707v-4.227h.707z"/><path d="m577.478 209.132h-.707v-4.227h.707z"/><path d="m579.153 209.132v-3.174h.655v.444c.079-.16.163-.28.256-.362.095-.082.199-.131.316-.146v1.006c-.04-.009-.077-.019-.113-.024-.036-.006-.068-.007-.099-.007-.115 0-.193.05-.238.151-.046.101-.068.297-.068.59v1.523h-.709z"/><path d="m580.728 205.641v-.767h.707v.767zm0 3.491v-3.174h.707v3.174z"/><path d="m583.721 205.958v2.842c0 .291-.012.506-.038.646-.024.14-.066.259-.125.356-.083.131-.191.231-.328.297-.137.067-.302.101-.497.101-.296 0-.518-.077-.665-.228-.145-.151-.218-.384-.218-.7h.703c0 .119.016.205.05.261.036.054.089.082.163.082.091 0 .153-.037.189-.108.034-.073.052-.215.052-.424v-.373c-.095.105-.183.183-.268.231-.085.049-.169.073-.258.073-.123 0-.234-.043-.328-.125-.095-.084-.169-.203-.222-.358-.028-.082-.048-.202-.062-.355-.012-.155-.02-.355-.02-.601 0-.235.006-.446.014-.631.01-.185.022-.334.038-.45.028-.177.097-.325.201-.44.107-.114.23-.172.367-.172.113 0 .22.034.316.105.099.069.193.177.286.323v-.353h.65zm-1.156 1.168v.231c0 .414.016.679.048.791.03.112.089.168.171.168s.141-.049.173-.149c.034-.099.05-.31.05-.633v-.129c0-.343-.016-.56-.048-.651-.03-.09-.089-.134-.171-.134-.077 0-.133.041-.169.119-.036.081-.054.21-.054.387z"/><path d="m584.196 209.132v-4.227h.709v1.388c.06-.132.139-.233.234-.3.095-.065.207-.099.338-.099.197 0 .34.082.433.244.091.164.135.424.135.778v2.215h-.705v-1.961c0-.256-.014-.414-.04-.476s-.075-.093-.141-.093c-.079 0-.141.049-.185.144-.046.097-.068.231-.068.403v1.984z"/><path d="m587.632 209.121c-.087.021-.161.035-.226.045-.064.011-.121.015-.165.015-.141 0-.262-.028-.36-.084-.099-.056-.171-.138-.22-.244-.03-.073-.052-.164-.064-.276-.012-.11-.018-.28-.018-.506v-.392-1.066h-.276v-.655h.276v-.879h.715v.879h.338v.655h-.338v1.295c0 .276.016.446.048.511.032.063.095.095.187.095.016 0 .042-.002.079-.007.01-.002.018-.004.024-.004z"/><path d="m587.821 208.124.634.004c.008.164.034.284.079.36.042.077.109.114.197.114.07 0 .129-.026.173-.078.046-.052.068-.119.068-.202 0-.071-.016-.131-.046-.177-.032-.047-.103-.101-.211-.166-.022-.013-.06-.035-.109-.065-.258-.147-.437-.287-.538-.416-.073-.09-.127-.19-.165-.308s-.056-.241-.056-.368c0-.289.079-.521.236-.692s.371-.258.64-.258c.278 0 .493.082.642.248.151.166.226.403.226.713v.058l-.622-.004c-.002-.159-.022-.272-.058-.34-.036-.069-.095-.103-.175-.103-.073 0-.129.024-.171.073s-.064.112-.064.19c0 .14.107.269.32.384.028.017.052.03.068.039.29.162.483.321.582.474.099.155.147.356.147.605 0 .319-.079.567-.238.743-.157.177-.385.265-.677.265-.28 0-.495-.09-.651-.267s-.232-.425-.232-.746v-.08z"/><path d="m591.147 209.132v-3.174h.655v.444c.079-.16.163-.28.256-.362.095-.082.199-.131.316-.146v1.006c-.04-.009-.077-.019-.113-.024-.036-.006-.068-.007-.099-.007-.115 0-.193.05-.238.151-.046.101-.068.297-.068.59v1.523h-.709z"/><path d="m593.857 208.018h.667v.08c0 .371-.079.649-.234.838-.155.187-.387.282-.695.282-.155 0-.296-.028-.423-.084-.127-.054-.224-.131-.294-.228-.081-.11-.137-.259-.169-.444-.034-.185-.052-.48-.052-.886 0-.448.018-.761.052-.939s.095-.323.177-.439c.081-.108.183-.19.306-.244.125-.054.27-.082.433-.082.167 0 .312.03.433.09.123.06.222.147.298.265.064.099.111.216.139.353.028.138.042.371.042.704v.381h-1.158c-.002.009-.002.022-.002.035-.006.134-.01.228-.01.28 0 .224.02.379.058.467.038.086.103.129.195.129.081 0 .141-.032.183-.099.04-.067.06-.168.06-.304 0-.026-.002-.069-.006-.125 0-.013 0-.023 0-.03zm-.459-.903h.477c0-.004 0-.009 0-.017.006-.08.008-.136.008-.17 0-.155-.02-.271-.06-.343-.04-.075-.103-.112-.187-.112-.087 0-.149.035-.187.108-.036.073-.056.192-.056.358 0 .047.002.082.002.106-.001.027.001.049.003.07z"/><path d="m594.814 208.124.634.004c.008.164.034.284.079.36.042.077.109.114.197.114.07 0 .129-.026.173-.078.046-.052.068-.119.068-.202 0-.071-.016-.131-.046-.177-.032-.047-.103-.101-.211-.166-.022-.013-.06-.035-.109-.065-.258-.147-.437-.287-.538-.416-.073-.09-.127-.19-.165-.308s-.056-.241-.056-.368c0-.289.079-.521.236-.692.157-.172.371-.258.641-.258.278 0 .493.082.642.248.151.166.226.403.226.713v.058l-.622-.004c-.002-.159-.022-.272-.058-.34-.036-.069-.095-.103-.175-.103-.073 0-.129.024-.171.073s-.064.112-.064.19c0 .14.107.269.32.384.028.017.052.03.068.039.29.162.483.321.582.474.099.155.147.356.147.605 0 .319-.078.567-.238.743-.157.177-.385.265-.677.265-.28 0-.495-.09-.651-.267-.155-.177-.232-.425-.232-.746z"/><path d="m598.081 208.018h.667v.08c0 .371-.079.649-.234.838-.155.187-.387.282-.695.282-.155 0-.296-.028-.423-.084-.127-.054-.224-.131-.294-.228-.081-.11-.137-.259-.169-.444-.034-.185-.052-.48-.052-.886 0-.448.018-.761.052-.939s.095-.323.177-.439c.081-.108.183-.19.306-.244.125-.054.27-.082.433-.082.167 0 .312.03.433.09.123.06.222.147.298.265.064.099.111.216.139.353.028.138.042.371.042.704v.381h-1.158c-.002.009-.002.022-.002.035-.006.134-.01.228-.01.28 0 .224.02.379.058.467.038.086.103.129.195.129.081 0 .141-.032.183-.099.04-.067.06-.168.06-.304 0-.026-.002-.069-.006-.125 0-.013 0-.023 0-.03zm-.459-.903h.477c0-.004 0-.009 0-.017.006-.08.008-.136.008-.17 0-.155-.02-.271-.06-.343-.04-.075-.103-.112-.187-.112-.087 0-.149.035-.187.108-.036.073-.056.192-.056.358 0 .047.002.082.002.106-.001.027.001.049.003.07z"/><path d="m599.174 209.132v-3.174h.655v.444c.079-.16.163-.28.256-.362.095-.082.199-.131.316-.146v1.006c-.04-.009-.077-.019-.113-.024-.036-.006-.068-.007-.099-.007-.115 0-.193.05-.238.151-.046.101-.068.297-.068.59v1.523h-.709z"/><path d="m601.18 209.132-.56-3.174h.713l.25 2.155.246-2.155h.709l-.564 3.174z"/><path d="m603.944 208.018h.667v.08c0 .371-.079.649-.234.838-.155.187-.387.282-.695.282-.155 0-.296-.028-.423-.084-.127-.054-.224-.131-.294-.228-.081-.11-.137-.259-.169-.444-.034-.185-.052-.48-.052-.886 0-.448.018-.761.052-.939s.095-.323.177-.439c.081-.108.183-.19.306-.244.125-.054.27-.082.433-.082.167 0 .312.03.433.09.123.06.222.147.298.265.064.099.111.216.139.353.028.138.042.371.042.704v.381h-1.158c-.002.009-.002.022-.002.035-.006.134-.01.228-.01.28 0 .224.02.379.058.467.038.086.103.129.195.129.081 0 .141-.032.183-.099.04-.067.06-.168.06-.304 0-.026-.002-.069-.006-.125 0-.013 0-.023 0-.03zm-.46-.903h.477c0-.004 0-.009 0-.017.006-.08.008-.136.008-.17 0-.155-.02-.271-.06-.343-.04-.075-.103-.112-.187-.112-.087 0-.149.035-.187.108-.036.073-.056.192-.056.358 0 .047.002.082.002.106-.001.027.001.049.003.07z"/><path d="m606.882 204.905v4.227h-.653v-.349c-.068.144-.151.252-.248.327-.099.075-.205.114-.326.114-.099 0-.189-.022-.27-.069-.083-.045-.151-.108-.207-.19-.062-.099-.107-.23-.133-.396-.024-.166-.038-.476-.038-.931 0-.718.048-1.189.145-1.416.097-.226.272-.338.522-.338.107 0 .201.03.282.09.081.058.153.151.218.274v-1.342h.708zm-.924 1.732c-.089 0-.151.058-.183.174s-.05.369-.05.765c0 .412.016.668.046.771.032.101.089.151.169.151.095 0 .159-.062.195-.183.036-.123.054-.446.054-.968 0-.269-.018-.455-.052-.556-.034-.104-.095-.154-.179-.154z"/><path d="m607.341 209.132v-.967h.781v.967z"/></g></svg>