<svg enable-background="new 0 0 506.92 236.681" viewBox="0 0 506.92 236.681" xmlns="http://www.w3.org/2000/svg"><path d="m107.066 8.21h295.718v220.033h-295.718z" fill="#262626"/><path d="m289.316 30.792-9.475 3.438h9.536l3.627-2.003z" fill="#d78b00"/><path d="m280.468 20.876h11.257l14.988 7.599h-5.878l-4.132-1.9-2.549 1.036z" fill="#d78b00"/><path d="m301.434 24.357 9.476-3.434h-9.536l-3.627 2z" fill="#d78b00"/><path d="m310.283 34.274h-11.257l-14.988-7.599h5.878l4.132 1.901 2.548-1.037z" fill="#d78b00"/><path d="m209.422 20.785h7.461v9.117h-7.461z" fill="#d78b00"/><path d="m209.422 31.018h19.119v2.791h-19.119z" fill="#d78b00"/><path d="m221.547 20.785h8.861l6.062 5.115-4.382 3.216z" fill="#d78b00"/><path d="m232.739 29.623v4.186h6.995v-4.186l13.525-8.838h-6.53l-13.523 8.838z" fill="#d78b00"/><path d="m254.191 22.179 7.462 4.653v6.977h-7.462z" fill="#d78b00"/><path d="m255.124 20.785 19.121 13.024h4.196v-13.026h-3.637v9.16l-13.616-9.158z" fill="#d78b00"/><path d="m339.499 192.61c9.165 0 16.596-33.251 16.596-74.269 0-41.017-7.431-74.269-16.596-74.269h-171.148c-9.166 0-16.596 33.252-16.596 74.269 0 41.019 7.43 74.269 16.596 74.269z" fill="#333"/><path d="m170.693 65.144h165.107v106.427h-165.107z" fill="#1a1a1a"/><path d="m331.856 66.902c1.122 0 2.039.917 2.039 2.039v98.572c0 1.122-.917 2.039-2.039 2.039h-156.809c-1.12 0-2.038-.917-2.038-2.039v-98.572c0-1.122.918-2.039 2.038-2.039zm0-5.44h-156.809c-4.123 0-7.477 3.356-7.477 7.479v98.572c0 4.123 3.354 7.479 7.477 7.479h156.809c4.124 0 7.479-3.355 7.479-7.479v-98.572c0-4.123-3.355-7.479-7.479-7.479z" fill="#262626"/><path d="m133.934 228.515-25.039 8.055c-.231.072-.473.111-.714.111h-82.647c-.924 0-1.76-.546-2.134-1.391-15.308-34.759-23.4-75.199-23.4-116.949 0-41.752 8.092-82.191 23.4-116.949.374-.846 1.21-1.392 2.134-1.392h82.646c.241 0 .482.038.714.112l25.039 8.053c-13.945 31.662-22.058 69.447-22.058 110.174.001 40.729 8.113 78.515 22.059 110.176z" fill="#262626"/><path d="m131.866 224.291-24.08 7.745c-.222.07-.452.107-.686.107h-79.475c-.89 0-1.694-.524-2.053-1.339-14.721-33.426-22.504-72.314-22.504-112.463 0-40.15 7.782-79.039 22.504-112.464.358-.813 1.163-1.338 2.053-1.338h79.476c.233 0 .464.037.686.107l24.08 7.745c-13.409 30.446-21.213 66.783-21.213 105.948-.001 39.166 7.803 75.504 21.212 105.952z" fill="#333"/><path d="m372.985 228.515 25.04 8.055c.231.072.472.111.714.111h82.646c.924 0 1.761-.546 2.134-1.391 15.31-34.76 23.4-75.199 23.4-116.949 0-41.752-8.091-82.191-23.4-116.949-.373-.846-1.209-1.392-2.133-1.392h-82.646c-.242 0-.483.038-.714.112l-25.04 8.053c13.946 31.662 22.059 69.447 22.059 110.174-.001 40.729-8.113 78.515-22.06 110.176z" fill="#262626"/><path d="m374.932 224.291 24.079 7.745c.222.07.454.107.687.107h79.477c.889 0 1.693-.524 2.051-1.339 14.723-33.426 22.505-72.314 22.505-112.463 0-40.15-7.782-79.039-22.505-112.464-.357-.813-1.162-1.338-2.051-1.338h-79.477c-.233 0-.465.037-.687.107l-24.079 7.745c13.41 30.446 21.212 66.783 21.212 105.948 0 39.166-7.802 75.504-21.212 105.952z" fill="#333"/><path d="m99.33 166.863c-.656 0-1.233-.475-1.341-1.142-2.491-15.434-3.755-31.375-3.755-47.381 0-15.88 1.246-31.711 3.703-47.053.119-.741.813-1.248 1.557-1.127.742.119 1.247.816 1.128 1.557-2.434 15.2-3.668 30.887-3.668 46.623 0 15.861 1.251 31.656 3.72 46.947.12.741-.384 1.439-1.125 1.559-.074.011-.148.017-.219.017z" fill="#262626"/><path d="m106.159 164.904c-.66 0-1.239-.48-1.342-1.152-2.285-14.811-3.443-30.09-3.443-45.412 0-15.216 1.141-30.385 3.392-45.084.113-.742.81-1.25 1.549-1.139.743.113 1.252.807 1.138 1.549-2.229 14.564-3.36 29.596-3.36 44.674 0 15.184 1.147 30.322 3.412 44.998.114.742-.395 1.436-1.136 1.551-.072.01-.142.015-.21.015z" fill="#262626"/><path d="m384.882 128.083c0 1.502-1.219 2.72-2.72 2.72h-6.798c-1.502 0-2.72-1.218-2.72-2.72v-19.941c0-1.501 1.218-2.719 2.72-2.719h6.798c1.501 0 2.72 1.218 2.72 2.719z" fill="#404040"/><path d="m382.176 164.181c-.157 1.492-1.496 2.576-2.989 2.42l-6.761-.711c-1.493-.157-2.577-1.496-2.42-2.989l2.083-19.831c.157-1.493 1.496-2.576 2.989-2.42l6.761.711c1.493.156 2.577 1.494 2.42 2.988z" fill="#404040"/><path d="m382.176 71.82c-.157-1.493-1.496-2.576-2.989-2.42l-6.761.71c-1.493.157-2.577 1.495-2.42 2.989l2.083 19.832c.157 1.492 1.496 2.576 2.989 2.419l6.761-.71c1.493-.157 2.577-1.496 2.42-2.988z" fill="#404040"/><path d="m123.56 128.083c0 1.502 1.218 2.72 2.719 2.72h6.799c1.501 0 2.719-1.218 2.719-2.72v-19.941c0-1.501-1.218-2.719-2.719-2.719h-6.799c-1.501 0-2.719 1.218-2.719 2.719z" fill="#404040"/><path d="m126.266 164.181c.157 1.492 1.495 2.576 2.988 2.42l6.762-.711c1.493-.157 2.577-1.496 2.42-2.989l-2.084-19.831c-.157-1.493-1.495-2.576-2.99-2.42l-6.76.711c-1.493.156-2.576 1.494-2.42 2.988z" fill="#404040"/><path d="m126.266 71.82c.157-1.493 1.495-2.576 2.988-2.42l6.762.71c1.493.157 2.577 1.495 2.42 2.989l-2.084 19.832c-.157 1.492-1.495 2.576-2.99 2.419l-6.76-.71c-1.493-.157-2.576-1.496-2.42-2.988z" fill="#404040"/><path d="m150.007 25.886c0 1.877-1.521 3.398-3.399 3.398-1.877 0-3.398-1.521-3.398-3.398 0-1.878 1.521-3.399 3.398-3.399s3.399 1.521 3.399 3.399z" fill="#ce6d30"/><path d="m428.584 48.452c.385 1.415-.451 2.878-1.868 3.262l-25.968 7.059c-1.416.386-2.876-.45-3.262-1.868l-7.06-25.967c-.384-1.418.451-2.877 1.868-3.263l25.968-7.058c1.416-.386 2.876.449 3.261 1.867z" fill="#1a1a1a"/><path d="m422.329 36.208c1.926 7.083-2.255 14.385-9.338 16.311-7.082 1.925-14.385-2.256-16.31-9.339-1.926-7.082 2.257-14.385 9.339-16.309 7.082-1.926 14.384 2.254 16.309 9.337z" fill="#404040"/><path d="m470.732 36.555c.385 1.415-.452 2.878-1.869 3.262l-25.967 7.059c-1.416.385-2.877-.45-3.263-1.868l-7.058-25.968c-.385-1.417.451-2.876 1.867-3.262l25.968-7.059c1.416-.385 2.875.451 3.262 1.868z" fill="#1a1a1a"/><path d="m464.477 24.311c1.926 7.083-2.254 14.385-9.337 16.31s-14.385-2.256-16.31-9.338c-1.926-7.083 2.257-14.385 9.338-16.308 7.082-1.927 14.384 2.253 16.309 9.336z" fill="#404040"/><path d="m432.575 218.064c-.386 1.416.452 2.878 1.868 3.262l25.968 7.059c1.416.385 2.875-.45 3.262-1.867l7.059-25.969c.385-1.416-.451-2.876-1.868-3.262l-25.967-7.059c-1.416-.385-2.877.451-3.262 1.867z" fill="#1a1a1a"/><path d="m438.83 205.82c-1.926 7.084 2.254 14.385 9.338 16.311 7.081 1.924 14.385-2.256 16.309-9.339 1.926-7.082-2.256-14.384-9.339-16.308-7.081-1.926-14.382 2.254-16.308 9.336z" fill="#404040"/><path d="m390.427 206.167c-.386 1.416.451 2.877 1.868 3.262l25.968 7.059c1.416.385 2.876-.451 3.262-1.867l7.06-25.969c.384-1.416-.451-2.876-1.868-3.262l-25.968-7.059c-1.416-.385-2.876.451-3.261 1.867z" fill="#1a1a1a"/><path d="m396.682 193.923c-1.926 7.084 2.255 14.385 9.338 16.311 7.082 1.924 14.385-2.256 16.31-9.339s-2.258-14.384-9.339-16.308c-7.083-1.925-14.385 2.254-16.309 9.336z" fill="#404040"/><path d="m89.887 108.056c0-2.243-1.836-4.078-4.079-4.078h-11.729c-2.244 0-4.08-1.836-4.08-4.079v-11.729c0-2.244-1.835-4.078-4.078-4.078h-21.291c-2.244 0-4.08 1.834-4.08 4.078v11.729c0 2.243-1.836 4.079-4.078 4.079h-11.73c-2.243 0-4.08 1.835-4.08 4.078v21.292c0 2.243 1.837 4.079 4.08 4.079h11.729c2.242 0 4.078 1.836 4.078 4.079v11.729c0 2.243 1.836 4.079 4.08 4.079h21.291c2.243 0 4.078-1.836 4.078-4.079v-11.729c0-2.243 1.836-4.079 4.08-4.079h11.729c2.243 0 4.079-1.836 4.079-4.079v-21.292z" fill="#1a1a1a"/><path d="m86.656 118.683c0 6.523-5.287 11.792-11.81 11.792l-4.614-.038c-1.751 0-3.184 1.434-3.184 3.184v4.575c0 6.524-5.289 11.811-11.811 11.811s-11.753-5.287-11.753-11.811l.018-4.575c0-1.751-1.433-3.184-3.185-3.184l-4.614.038c-6.521 0-11.809-5.269-11.809-11.792 0-6.521 5.287-11.791 11.809-11.791l4.614.037c1.752 0 3.185-1.433 3.185-3.184l-.018-4.576c0-6.522 5.23-11.811 11.753-11.811s11.811 5.288 11.811 11.811v4.576c0 1.751 1.433 3.184 3.184 3.184l4.614-.037c6.523 0 11.81 5.27 11.81 11.791z" fill="#404040"/><path clip-rule="evenodd" d="m243.26 201.501h.934v2.625c0 2.204 1.511 4.056 3.556 4.573l.002 1.491c-2.551-.423-4.497-2.644-4.495-5.31zm-1.777 0h-.934v2.625c0 2.204-1.513 4.056-3.556 4.573l-.004 1.491c2.552-.423 4.498-2.644 4.496-5.31zm.219 0h1.335v8.693h-1.335zm21.166 5.316-.827-2.701-.74 2.696zm-1.94 1.349-.554 2.016h-1.53l2.138-7.746c.133-.447.55-.775 1.043-.775s.911.328 1.045.775l2.344 7.759-1.519-.013-.614-2.012zm-7.432-1.349-.828-2.701-.739 2.696zm-1.941 1.349-.553 2.016h-1.529l2.136-7.746c.134-.447.55-.775 1.044-.775.492 0 .911.328 1.046.775l2.343 7.759-1.518-.013-.615-2.012zm17.656-1.471c.968-.37 1.652-1.306 1.652-2.402 0-1.421-1.151-2.572-2.573-2.572l-.996-.006c-.923-.004-1.457.483-1.457 1.458v6.972h1.457v-7.017h.898c.684 0 1.237.555 1.237 1.239 0 .609-.439 1.114-1.018 1.219-.102.024-.205.055-.301.111-.507.307-.671.967-.365 1.473l1.831 3.024h1.539l-1.99-3.273c-.044-.071-.021-.163.051-.206.013-.008.028-.012.041-.016zm-14.342-3.526v-1.442h5.085v1.442h-1.809l-.006 7.024h-1.456v-7.018zm16.674-1.449h1.457v8.474h-1.457z" fill="#666" fill-rule="evenodd"/><path d="m462.782 182.578c-.097 0-.195-.01-.295-.031-.732-.162-1.195-.889-1.033-1.621 4.449-20.128 6.705-41.184 6.705-62.586 0-21.284-2.232-42.234-6.635-62.267-.161-.733.303-1.459 1.036-1.62.738-.158 1.459.303 1.62 1.036 4.444 20.224 6.697 41.37 6.697 62.851 0 21.598-2.277 42.852-6.77 63.172-.138.634-.701 1.066-1.325 1.066z" fill="#262626"/><path d="m449.011 178.628c-.091 0-.183-.009-.274-.028-.736-.15-1.21-.869-1.059-1.605 3.892-18.928 5.865-38.662 5.865-58.654 0-19.889-1.951-39.516-5.798-58.334-.15-.736.324-1.454 1.06-1.604.737-.155 1.454.325 1.604 1.06 3.884 18.997 5.853 38.807 5.853 58.879 0 20.176-1.991 40.095-5.92 59.202-.133.641-.699 1.084-1.331 1.084z" fill="#262626"/><path d="m434.538 174.476c-.085 0-.17-.008-.256-.024-.737-.14-1.222-.852-1.082-1.589 3.349-17.649 5.047-35.993 5.047-54.523 0-18.41-1.678-36.646-4.987-54.201-.14-.738.346-1.449 1.084-1.588.734-.141 1.448.346 1.588 1.084 3.341 17.721 5.034 36.127 5.034 54.705 0 18.699-1.714 37.215-5.094 55.029-.124.652-.694 1.107-1.334 1.107z" fill="#262626"/><path d="m424.206 171.512c-.08 0-.16-.007-.241-.021-.739-.132-1.231-.839-1.1-1.577 2.989-16.73 4.505-34.082 4.505-51.574 0-17.386-1.496-34.629-4.445-51.252-.131-.738.362-1.444 1.102-1.576.732-.131 1.444.362 1.576 1.102 2.977 16.779 4.486 34.182 4.486 51.727 0 17.651-1.529 35.164-4.546 52.053-.118.656-.691 1.118-1.337 1.118z" fill="#262626"/><path d="m413.842 168.54c-.075 0-.15-.007-.227-.019-.74-.125-1.24-.826-1.116-1.566 2.65-15.812 3.994-32.168 3.994-48.615 0-16.334-1.326-32.582-3.94-48.292-.124-.741.377-1.44 1.117-1.564.748-.116 1.441.378 1.564 1.118 2.639 15.857 3.977 32.254 3.977 48.738 0 16.598-1.356 33.105-4.031 49.064-.111.665-.687 1.136-1.338 1.136z" fill="#262626"/><path d="m407.999 166.863c-.072 0-.146-.006-.219-.017-.741-.119-1.245-.817-1.125-1.559 2.468-15.291 3.72-31.086 3.72-46.947 0-15.749-1.234-31.436-3.669-46.622-.118-.741.386-1.438 1.128-1.558.731-.115 1.439.385 1.558 1.127 2.457 15.329 3.702 31.16 3.702 47.053 0 16.006-1.263 31.947-3.755 47.381-.108.667-.685 1.142-1.34 1.142z" fill="#262626"/><path d="m401.17 164.904c-.069 0-.139-.005-.209-.016-.742-.115-1.251-.809-1.137-1.551 2.265-14.674 3.413-29.813 3.413-44.998 0-15.08-1.131-30.111-3.361-44.673-.114-.743.396-1.436 1.138-1.55.751-.111 1.436.396 1.55 1.138 2.251 14.698 3.393 29.867 3.393 45.085 0 15.324-1.159 30.604-3.444 45.412-.105.672-.684 1.153-1.343 1.153z" fill="#262626"/><g fill="#1a1a1a"><path d="m453.42 109.902c.049 1.717.085 3.438.103 5.16l2.719-.059c-.02-1.757-.055-3.512-.104-5.265z"/><path d="m427.072 104.996 2.707-.291c-.058-1.285-.134-2.567-.208-3.85l-2.699.438c.07 1.233.146 2.466.2 3.703z"/><path d="m416.247 106.158 2.708-.29c-.045-1.091-.108-2.177-.166-3.267l-2.7.438c.054 1.04.116 2.078.158 3.119z"/><path d="m429.765 132.246-2.707-.291c-.056 1.236-.13 2.469-.202 3.703l2.7.438c.076-1.284.15-2.565.209-3.85z"/><path d="m453.521 121.89c-.021 1.723-.06 3.442-.109 5.16l2.716.162c.052-1.752.091-3.507.112-5.264z"/><path d="m440.59 133.408-2.708-.291c-.07 1.432-.151 2.859-.242 4.287l2.696.436c.096-1.475.18-2.952.254-4.432z"/><path d="m455.799 135.041-2.707-.29c-.094 1.704-.2 3.405-.321 5.104l2.695.436c.127-1.747.236-3.497.333-5.25z"/><path d="m465.862 81.362c.254 2.021.488 4.045.7 6.077l2.676-.572c-.218-2.076-.463-4.145-.724-6.209z"/><path d="m437.656 99.546c.089 1.427.17 2.856.239 4.288l2.708-.291c-.072-1.479-.156-2.958-.251-4.434z"/><path d="m430.004 111.302-2.715.163c.031 1.382.039 2.767.052 4.149l2.719-.058c-.013-1.418-.023-2.837-.056-4.254z"/><path d="m419.185 121.166-2.721-.059c-.011 1.244-.018 2.486-.043 3.729l2.715.163c.027-1.278.036-2.556.049-3.833z"/><path d="m416.468 115.844 2.719-.058c-.01-1.277-.017-2.557-.043-3.833l-2.715.163c.024 1.241.029 2.485.039 3.728z"/><path d="m438.15 110.816c.038 1.521.064 3.044.081 4.568l2.717-.057c-.015-1.561-.043-3.118-.083-4.675z"/><path d="m440.947 121.625-2.719-.057c-.016 1.523-.047 3.047-.085 4.568l2.716.162c.04-1.556.072-3.113.088-4.673z"/><path d="m430.056 121.395-2.718-.058c-.015 1.383-.025 2.768-.059 4.148l2.716.162c.034-1.415.047-2.834.061-4.252z"/><path d="m418.943 131.083-2.709-.291c-.043 1.041-.105 2.079-.159 3.118l2.699.438c.059-1.089.121-2.175.169-3.265z"/><path d="m469.211 150.08-2.676-.572c-.215 2.031-.451 4.056-.706 6.074l2.65.703c.265-2.063.511-4.129.732-6.205z"/><path d="m454.899 147.017-2.678-.573c-.169 1.797-.351 3.592-.553 5.38l2.654.705c.211-1.833.401-3.67.577-5.512z"/><path d="m439.894 143.804-2.681-.572c-.129 1.551-.272 3.098-.425 4.643l2.663.707c.16-1.59.307-3.182.443-4.778z"/><path d="m467.617 136.31c-.117 1.965-.247 3.928-.403 5.884l2.691.437c.162-2.005.298-4.016.419-6.029z"/><path d="m452.79 97.094c.12 1.698.226 3.4.317 5.106l2.706-.291c-.094-1.754-.203-3.505-.327-5.252z"/><path d="m468.011 109.029c.058 1.904.103 3.813.125 5.725l2.718-.059c-.022-1.946-.067-3.889-.128-5.829z"/><path d="m468.134 122.199c-.024 1.912-.073 3.82-.133 5.725l2.715.162c.063-1.939.112-3.883.136-5.828z"/><path d="m467.234 94.755c.154 1.956.283 3.92.399 5.885l2.706-.291c-.119-2.014-.251-4.025-.411-6.031z"/><path d="m426.524 96.009 2.685-.575c-.109-1.42-.217-2.839-.345-4.254l-2.664.706c.121 1.371.223 2.748.324 4.123z"/><path d="m437.235 93.716 2.68-.574c-.134-1.596-.279-3.188-.438-4.777l-2.664.706c.153 1.546.294 3.094.422 4.645z"/><path d="m429.186 141.513-2.684-.574c-.103 1.374-.206 2.749-.327 4.119l2.662.707c.131-1.414.24-2.832.349-4.252z"/><path d="m451.7 85.121c.201 1.789.379 3.584.548 5.383l2.677-.573c-.174-1.843-.361-3.681-.57-5.515z"/><path d="m415.813 98.302 2.686-.576c-.086-1.242-.167-2.484-.267-3.725l-2.676.709c.094 1.196.176 2.394.257 3.592z"/><path d="m418.478 139.221-2.685-.574c-.08 1.196-.162 2.395-.258 3.588l2.675.71c.103-1.238.184-2.483.268-3.724z"/></g></svg>