<?xml version="1.0" encoding="utf-8"?>
<!-- Generator: Adobe Illustrator 22.0.0, SVG Export Plug-In . SVG Version: 6.00 Build 0)  -->
<svg version="1.1" xmlns:x="&ns_extend;" xmlns:i="&ns_ai;" xmlns:graph="&ns_graphs;"
	 xmlns="http://www.w3.org/2000/svg" xmlns:xlink="http://www.w3.org/1999/xlink" x="0px" y="0px" viewBox="0 0 569.643 236.681"
	 style="enable-background:new 0 0 569.643 236.681;" xml:space="preserve">
<metadata>
	<sfw  xmlns="&ns_sfw;">
		<slices></slices>
		<sliceSourceBounds  bottomLeftOrigin="true" height="236.681" width="569.643" x="44.346" y="-539.434"></sliceSourceBounds>
	</sfw>
</metadata>
<g>
	<g>
		<rect x="107.066" y="8.21" style="fill:#262626;" width="295.718" height="220.033"/>
	</g>
	<g>
		<g>
			<polygon style="fill:#D78B00;" points="289.316,30.792 279.841,34.23 289.377,34.23 293.004,32.227 			"/>
		</g>
		<g>
			<polygon style="fill:#D78B00;" points="280.468,20.876 291.725,20.876 306.713,28.475 300.835,28.475 296.703,26.575 
				294.154,27.611 			"/>
		</g>
		<g>
			<polygon style="fill:#D78B00;" points="301.434,24.357 310.91,20.923 301.374,20.923 297.747,22.923 			"/>
		</g>
		<g>
			<polygon style="fill:#D78B00;" points="310.283,34.274 299.026,34.274 284.038,26.675 289.916,26.675 294.048,28.576 
				296.596,27.539 			"/>
		</g>
		<g>
			<rect x="209.422" y="20.785" style="fill:#D78B00;" width="7.461" height="9.117"/>
		</g>
		<g>
			<rect x="209.422" y="31.018" style="fill:#D78B00;" width="19.119" height="2.791"/>
		</g>
		<g>
			<polygon style="fill:#D78B00;" points="221.547,20.785 230.408,20.785 236.47,25.9 232.088,29.116 			"/>
		</g>
		<g>
			<polygon style="fill:#D78B00;" points="232.739,29.623 232.739,33.809 239.734,33.809 239.734,29.623 253.259,20.785 
				246.729,20.785 233.206,29.623 			"/>
		</g>
		<g>
			<polygon style="fill:#D78B00;" points="254.191,22.179 261.653,26.832 261.653,33.809 254.191,33.809 			"/>
		</g>
		<g>
			<polygon style="fill:#D78B00;" points="255.124,20.785 274.245,33.809 278.441,33.809 278.441,20.783 274.804,20.783 
				274.804,29.943 261.188,20.785 			"/>
		</g>
	</g>
	<g>
		<path style="fill:#333333;" d="M339.499,192.61c9.165,0,16.596-33.251,16.596-74.269c0-41.017-7.431-74.269-16.596-74.269H168.351
			c-9.166,0-16.596,33.252-16.596,74.269c0,41.019,7.43,74.269,16.596,74.269H339.499z"/>
	</g>
	<g>
		<rect x="170.693" y="65.144" style="fill:#1A1A1A;" width="165.107" height="106.427"/>
	</g>
	<g>
		<g>
			<path style="fill:#262626;" d="M331.856,66.902c1.122,0,2.039,0.917,2.039,2.039v98.572c0,1.122-0.917,2.039-2.039,2.039H175.047
				c-1.12,0-2.038-0.917-2.038-2.039V68.941c0-1.122,0.918-2.039,2.038-2.039H331.856 M331.856,61.462H175.047
				c-4.123,0-7.477,3.356-7.477,7.479v98.572c0,4.123,3.354,7.479,7.477,7.479h156.809c4.124,0,7.479-3.355,7.479-7.479V68.941
				C339.335,64.818,335.98,61.462,331.856,61.462L331.856,61.462z"/>
		</g>
	</g>
	<g>
		<path style="fill:#262626;" d="M133.934,228.515l-25.039,8.055c-0.231,0.072-0.473,0.111-0.714,0.111H25.534
			c-0.924,0-1.76-0.546-2.134-1.391C8.092,200.531,0,160.091,0,118.341C0,76.589,8.092,36.15,23.4,1.392
			C23.774,0.546,24.61,0,25.534,0h82.646c0.241,0,0.482,0.038,0.714,0.112l25.039,8.053
			c-13.945,31.662-22.058,69.447-22.058,110.174C111.876,159.068,119.988,196.854,133.934,228.515z"/>
	</g>
	<g>
		<path style="fill:#333333;" d="M131.866,224.291l-24.08,7.745c-0.222,0.07-0.452,0.107-0.686,0.107H27.625
			c-0.89,0-1.694-0.524-2.053-1.339C10.851,197.378,3.068,158.49,3.068,118.341c0-40.15,7.782-79.039,22.504-112.464
			c0.358-0.813,1.163-1.338,2.053-1.338h79.476c0.233,0,0.464,0.037,0.686,0.107l24.08,7.745
			c-13.409,30.446-21.213,66.783-21.213,105.948C110.653,157.505,118.457,193.843,131.866,224.291z"/>
	</g>
	<g>
		<path style="fill:#262626;" d="M372.985,228.515l25.04,8.055c0.231,0.072,0.472,0.111,0.714,0.111h82.646
			c0.924,0,1.761-0.546,2.134-1.391c15.31-34.76,23.4-75.199,23.4-116.949c0-41.752-8.091-82.191-23.4-116.949
			C483.146,0.546,482.31,0,481.386,0h-82.646c-0.242,0-0.483,0.038-0.714,0.112l-25.04,8.053
			c13.946,31.662,22.059,69.447,22.059,110.174C395.044,159.068,386.932,196.854,372.985,228.515z"/>
	</g>
	<g>
		<path style="fill:#333333;" d="M374.932,224.291l24.079,7.745c0.222,0.07,0.454,0.107,0.687,0.107h79.477
			c0.889,0,1.693-0.524,2.051-1.339c14.723-33.426,22.505-72.314,22.505-112.463c0-40.15-7.782-79.039-22.505-112.464
			c-0.357-0.813-1.162-1.338-2.051-1.338h-79.477c-0.233,0-0.465,0.037-0.687,0.107l-24.079,7.745
			c13.41,30.446,21.212,66.783,21.212,105.948C396.144,157.505,388.342,193.843,374.932,224.291z"/>
	</g>
	<g>
		<g>
			<path style="fill:#262626;" d="M99.33,166.863c-0.656,0-1.233-0.475-1.341-1.142c-2.491-15.434-3.755-31.375-3.755-47.381
				c0-15.88,1.246-31.711,3.703-47.053c0.119-0.741,0.813-1.248,1.557-1.127c0.742,0.119,1.247,0.816,1.128,1.557
				c-2.434,15.2-3.668,30.887-3.668,46.623c0,15.861,1.251,31.656,3.72,46.947c0.12,0.741-0.384,1.439-1.125,1.559
				C99.475,166.857,99.401,166.863,99.33,166.863z"/>
		</g>
		<g>
			<path style="fill:#262626;" d="M106.159,164.904c-0.66,0-1.239-0.48-1.342-1.152c-2.285-14.811-3.443-30.09-3.443-45.412
				c0-15.216,1.141-30.385,3.392-45.084c0.113-0.742,0.81-1.25,1.549-1.139c0.743,0.113,1.252,0.807,1.138,1.549
				c-2.229,14.564-3.36,29.596-3.36,44.674c0,15.184,1.147,30.322,3.412,44.998c0.114,0.742-0.395,1.436-1.136,1.551
				C106.297,164.899,106.227,164.904,106.159,164.904z"/>
		</g>
	</g>
	<g>
		<g>
			<path style="fill:#404040;" d="M384.882,128.083c0,1.502-1.219,2.72-2.72,2.72h-6.798c-1.502,0-2.72-1.218-2.72-2.72v-19.941
				c0-1.501,1.218-2.719,2.72-2.719h6.798c1.501,0,2.72,1.218,2.72,2.719V128.083z"/>
		</g>
		<g>
			<path style="fill:#404040;" d="M382.176,164.181c-0.157,1.492-1.496,2.576-2.989,2.42l-6.761-0.711
				c-1.493-0.157-2.577-1.496-2.42-2.989l2.083-19.831c0.157-1.493,1.496-2.576,2.989-2.42l6.761,0.711
				c1.493,0.156,2.577,1.494,2.42,2.988L382.176,164.181z"/>
		</g>
		<g>
			<path style="fill:#404040;" d="M382.176,71.82c-0.157-1.493-1.496-2.576-2.989-2.42l-6.761,0.71
				c-1.493,0.157-2.577,1.495-2.42,2.989l2.083,19.832c0.157,1.492,1.496,2.576,2.989,2.419l6.761-0.71
				c1.493-0.157,2.577-1.496,2.42-2.988L382.176,71.82z"/>
		</g>
	</g>
	<g>
		<g>
			<path style="fill:#404040;" d="M123.56,128.083c0,1.502,1.218,2.72,2.719,2.72h6.799c1.501,0,2.719-1.218,2.719-2.72v-19.941
				c0-1.501-1.218-2.719-2.719-2.719h-6.799c-1.501,0-2.719,1.218-2.719,2.719V128.083z"/>
		</g>
		<g>
			<path style="fill:#404040;" d="M126.266,164.181c0.157,1.492,1.495,2.576,2.988,2.42l6.762-0.711
				c1.493-0.157,2.577-1.496,2.42-2.989l-2.084-19.831c-0.157-1.493-1.495-2.576-2.99-2.42l-6.76,0.711
				c-1.493,0.156-2.576,1.494-2.42,2.988L126.266,164.181z"/>
		</g>
		<g>
			<path style="fill:#404040;" d="M126.266,71.82c0.157-1.493,1.495-2.576,2.988-2.42l6.762,0.71
				c1.493,0.157,2.577,1.495,2.42,2.989l-2.084,19.832c-0.157,1.492-1.495,2.576-2.99,2.419l-6.76-0.71
				c-1.493-0.157-2.576-1.496-2.42-2.988L126.266,71.82z"/>
		</g>
	</g>
	<g>
		<path style="fill:#CE6D30;" d="M150.007,25.886c0,1.877-1.521,3.398-3.399,3.398c-1.877,0-3.398-1.521-3.398-3.398
			c0-1.878,1.521-3.399,3.398-3.399C148.485,22.487,150.007,24.008,150.007,25.886z"/>
	</g>
	<g>
		<g>
			<g>
				<path style="fill:#1A1A1A;" d="M428.584,48.452c0.385,1.415-0.451,2.878-1.868,3.262l-25.968,7.059
					c-1.416,0.386-2.876-0.45-3.262-1.868l-7.06-25.967c-0.384-1.418,0.451-2.877,1.868-3.263l25.968-7.058
					c1.416-0.386,2.876,0.449,3.261,1.867L428.584,48.452z"/>
			</g>
			<g>
				<path style="fill:#404040;" d="M422.329,36.208c1.926,7.083-2.255,14.385-9.338,16.311c-7.082,1.925-14.385-2.256-16.31-9.339
					c-1.926-7.082,2.257-14.385,9.339-16.309C413.102,24.945,420.404,29.125,422.329,36.208z"/>
			</g>
		</g>
		<g>
			<g>
				<path style="fill:#1A1A1A;" d="M470.732,36.555c0.385,1.415-0.452,2.878-1.869,3.262l-25.967,7.059
					c-1.416,0.385-2.877-0.45-3.263-1.868l-7.058-25.968c-0.385-1.417,0.451-2.876,1.867-3.262l25.968-7.059
					c1.416-0.385,2.875,0.451,3.262,1.868L470.732,36.555z"/>
			</g>
			<g>
				<path style="fill:#404040;" d="M464.477,24.311c1.926,7.083-2.254,14.385-9.337,16.31c-7.083,1.925-14.385-2.256-16.31-9.338
					c-1.926-7.083,2.257-14.385,9.338-16.308C455.25,13.048,462.552,17.228,464.477,24.311z"/>
			</g>
		</g>
	</g>
	<g>
		<g>
			<g>
				<path style="fill:#1A1A1A;" d="M432.575,218.064c-0.386,1.416,0.452,2.878,1.868,3.262l25.968,7.059
					c1.416,0.385,2.875-0.45,3.262-1.867l7.059-25.969c0.385-1.416-0.451-2.876-1.868-3.262l-25.967-7.059
					c-1.416-0.385-2.877,0.451-3.262,1.867L432.575,218.064z"/>
			</g>
			<g>
				<path style="fill:#404040;" d="M438.83,205.82c-1.926,7.084,2.254,14.385,9.338,16.311c7.081,1.924,14.385-2.256,16.309-9.339
					c1.926-7.082-2.256-14.384-9.339-16.308C448.057,194.558,440.756,198.738,438.83,205.82z"/>
			</g>
		</g>
		<g>
			<g>
				<path style="fill:#1A1A1A;" d="M390.427,206.167c-0.386,1.416,0.451,2.877,1.868,3.262l25.968,7.059
					c1.416,0.385,2.876-0.451,3.262-1.867l7.06-25.969c0.384-1.416-0.451-2.876-1.868-3.262l-25.968-7.059
					c-1.416-0.385-2.876,0.451-3.261,1.867L390.427,206.167z"/>
			</g>
			<g>
				<path style="fill:#404040;" d="M396.682,193.923c-1.926,7.084,2.255,14.385,9.338,16.311c7.082,1.924,14.385-2.256,16.31-9.339
					c1.925-7.083-2.258-14.384-9.339-16.308C405.908,182.662,398.606,186.841,396.682,193.923z"/>
			</g>
		</g>
	</g>
	<g>
		<path style="fill:#1A1A1A;" d="M89.887,108.056c0-2.243-1.836-4.078-4.079-4.078H74.079c-2.244,0-4.08-1.836-4.08-4.079V88.17
			c0-2.244-1.835-4.078-4.078-4.078H44.63c-2.244,0-4.08,1.834-4.08,4.078v11.729c0,2.243-1.836,4.079-4.078,4.079H24.742
			c-2.243,0-4.08,1.835-4.08,4.078v21.292c0,2.243,1.837,4.079,4.08,4.079h11.729c2.242,0,4.078,1.836,4.078,4.079v11.729
			c0,2.243,1.836,4.079,4.08,4.079h21.291c2.243,0,4.078-1.836,4.078-4.079v-11.729c0-2.243,1.836-4.079,4.08-4.079h11.729
			c2.243,0,4.079-1.836,4.079-4.079V108.056z"/>
	</g>
	<g>
		<path style="fill:#404040;" d="M86.656,118.683c0,6.523-5.287,11.792-11.81,11.792l-4.614-0.038c-1.751,0-3.184,1.434-3.184,3.184
			v4.575c0,6.524-5.289,11.811-11.811,11.811s-11.753-5.287-11.753-11.811l0.018-4.575c0-1.751-1.433-3.184-3.185-3.184
			l-4.614,0.038c-6.521,0-11.809-5.269-11.809-11.792c0-6.521,5.287-11.791,11.809-11.791l4.614,0.037
			c1.752,0,3.185-1.433,3.185-3.184l-0.018-4.576c0-6.522,5.23-11.811,11.753-11.811s11.811,5.288,11.811,11.811v4.576
			c0,1.751,1.433,3.184,3.184,3.184l4.614-0.037C81.369,106.892,86.656,112.162,86.656,118.683z"/>
	</g>
	<g>
		<g>
			<path style="fill-rule:evenodd;clip-rule:evenodd;fill:#666666;" d="M243.26,201.501h0.934v2.625
				c0,2.204,1.511,4.056,3.556,4.573l0.002,1.491c-2.551-0.423-4.497-2.644-4.495-5.31L243.26,201.501L243.26,201.501z
				 M241.483,201.501h-0.934v2.625c0,2.204-1.513,4.056-3.556,4.573l-0.004,1.491c2.552-0.423,4.498-2.644,4.496-5.31
				L241.483,201.501L241.483,201.501z M241.702,201.501h1.335v8.693h-1.335V201.501L241.702,201.501z M262.868,206.817l-0.827-2.701
				l-0.74,2.696L262.868,206.817L262.868,206.817z M260.928,208.166l-0.554,2.016h-1.53l2.138-7.746
				c0.133-0.447,0.55-0.775,1.043-0.775c0.493,0,0.911,0.328,1.045,0.775l2.344,7.759l-1.519-0.013l-0.614-2.012L260.928,208.166
				L260.928,208.166z M253.496,206.817l-0.828-2.701l-0.739,2.696L253.496,206.817L253.496,206.817z M251.555,208.166l-0.553,2.016
				h-1.529l2.136-7.746c0.134-0.447,0.55-0.775,1.044-0.775c0.492,0,0.911,0.328,1.046,0.775l2.343,7.759l-1.518-0.013l-0.615-2.012
				L251.555,208.166L251.555,208.166z M269.211,206.695c0.968-0.37,1.652-1.306,1.652-2.402c0-1.421-1.151-2.572-2.573-2.572
				l-0.996-0.006c-0.923-0.004-1.457,0.483-1.457,1.458v6.972h1.457v-7.017h0.898c0.684,0,1.237,0.555,1.237,1.239
				c0,0.609-0.439,1.114-1.018,1.219c-0.102,0.024-0.205,0.055-0.301,0.111c-0.507,0.307-0.671,0.967-0.365,1.473l1.831,3.024h1.539
				l-1.99-3.273c-0.044-0.071-0.021-0.163,0.051-0.206c0.013-0.008,0.028-0.012,0.041-0.016L269.211,206.695L269.211,206.695z
				 M254.869,203.169v-1.442h5.085v1.442h-1.809l-0.006,7.024h-1.456v-7.018L254.869,203.169L254.869,203.169z M271.543,201.72H273
				v8.474h-1.457V201.72L271.543,201.72z"/>
		</g>
	</g>
	<g>
		<g>
			<g>
				<path style="fill:#262626;" d="M462.782,182.578c-0.097,0-0.195-0.01-0.295-0.031c-0.732-0.162-1.195-0.889-1.033-1.621
					c4.449-20.128,6.705-41.184,6.705-62.586c0-21.284-2.232-42.234-6.635-62.267c-0.161-0.733,0.303-1.459,1.036-1.62
					c0.738-0.158,1.459,0.303,1.62,1.036c4.444,20.224,6.697,41.37,6.697,62.851c0,21.598-2.277,42.852-6.77,63.172
					C463.969,182.146,463.406,182.578,462.782,182.578z"/>
			</g>
			<g>
				<path style="fill:#262626;" d="M449.011,178.628c-0.091,0-0.183-0.009-0.274-0.028c-0.736-0.15-1.21-0.869-1.059-1.605
					c3.892-18.928,5.865-38.662,5.865-58.654c0-19.889-1.951-39.516-5.798-58.334c-0.15-0.736,0.324-1.454,1.06-1.604
					c0.737-0.155,1.454,0.325,1.604,1.06c3.884,18.997,5.853,38.807,5.853,58.879c0,20.176-1.991,40.095-5.92,59.202
					C450.209,178.185,449.643,178.628,449.011,178.628z"/>
			</g>
			<g>
				<path style="fill:#262626;" d="M434.538,174.476c-0.085,0-0.17-0.008-0.256-0.024c-0.737-0.14-1.222-0.852-1.082-1.589
					c3.349-17.649,5.047-35.993,5.047-54.523c0-18.41-1.678-36.646-4.987-54.201c-0.14-0.738,0.346-1.449,1.084-1.588
					c0.734-0.141,1.448,0.346,1.588,1.084c3.341,17.721,5.034,36.127,5.034,54.705c0,18.699-1.714,37.215-5.094,55.029
					C435.748,174.021,435.178,174.476,434.538,174.476z"/>
			</g>
			<g>
				<path style="fill:#262626;" d="M424.206,171.512c-0.08,0-0.16-0.007-0.241-0.021c-0.739-0.132-1.231-0.839-1.1-1.577
					c2.989-16.73,4.505-34.082,4.505-51.574c0-17.386-1.496-34.629-4.445-51.252c-0.131-0.738,0.362-1.444,1.102-1.576
					c0.732-0.131,1.444,0.362,1.576,1.102c2.977,16.779,4.486,34.182,4.486,51.727c0,17.651-1.529,35.164-4.546,52.053
					C425.425,171.05,424.852,171.512,424.206,171.512z"/>
			</g>
			<g>
				<path style="fill:#262626;" d="M413.842,168.54c-0.075,0-0.15-0.007-0.227-0.019c-0.74-0.125-1.24-0.826-1.116-1.566
					c2.65-15.812,3.994-32.168,3.994-48.615c0-16.334-1.326-32.582-3.94-48.292c-0.124-0.741,0.377-1.44,1.117-1.564
					c0.748-0.116,1.441,0.378,1.564,1.118c2.639,15.857,3.977,32.254,3.977,48.738c0,16.598-1.356,33.105-4.031,49.064
					C415.069,168.069,414.493,168.54,413.842,168.54z"/>
			</g>
			<g>
				<path style="fill:#262626;" d="M407.999,166.863c-0.072,0-0.146-0.006-0.219-0.017c-0.741-0.119-1.245-0.817-1.125-1.559
					c2.468-15.291,3.72-31.086,3.72-46.947c0-15.749-1.234-31.436-3.669-46.622c-0.118-0.741,0.386-1.438,1.128-1.558
					c0.731-0.115,1.439,0.385,1.558,1.127c2.457,15.329,3.702,31.16,3.702,47.053c0,16.006-1.263,31.947-3.755,47.381
					C409.231,166.388,408.654,166.863,407.999,166.863z"/>
			</g>
			<g>
				<path style="fill:#262626;" d="M401.17,164.904c-0.069,0-0.139-0.005-0.209-0.016c-0.742-0.115-1.251-0.809-1.137-1.551
					c2.265-14.674,3.413-29.813,3.413-44.998c0-15.08-1.131-30.111-3.361-44.673c-0.114-0.743,0.396-1.436,1.138-1.55
					c0.751-0.111,1.436,0.396,1.55,1.138c2.251,14.698,3.393,29.867,3.393,45.085c0,15.324-1.159,30.604-3.444,45.412
					C402.408,164.423,401.829,164.904,401.17,164.904z"/>
			</g>
		</g>
		<g>
			<g>
				<path style="fill:#1A1A1A;" d="M453.42,109.902c0.049,1.717,0.085,3.438,0.103,5.16l2.719-0.059
					c-0.02-1.757-0.055-3.512-0.104-5.265L453.42,109.902z"/>
			</g>
			<g>
				<path style="fill:#1A1A1A;" d="M427.072,104.996l2.707-0.291c-0.058-1.285-0.134-2.567-0.208-3.85l-2.699,0.438
					C426.942,102.526,427.018,103.759,427.072,104.996z"/>
			</g>
			<g>
				<path style="fill:#1A1A1A;" d="M416.247,106.158l2.708-0.29c-0.045-1.091-0.108-2.177-0.166-3.267l-2.7,0.438
					C416.143,104.079,416.205,105.117,416.247,106.158z"/>
			</g>
			<g>
				<path style="fill:#1A1A1A;" d="M429.765,132.246l-2.707-0.291c-0.056,1.236-0.13,2.469-0.202,3.703l2.7,0.438
					C429.632,134.812,429.706,133.531,429.765,132.246z"/>
			</g>
			<g>
				<path style="fill:#1A1A1A;" d="M453.521,121.89c-0.021,1.723-0.06,3.442-0.109,5.16l2.716,0.162
					c0.052-1.752,0.091-3.507,0.112-5.264L453.521,121.89z"/>
			</g>
			<g>
				<path style="fill:#1A1A1A;" d="M440.59,133.408l-2.708-0.291c-0.07,1.432-0.151,2.859-0.242,4.287l2.696,0.436
					C440.432,136.365,440.516,134.888,440.59,133.408z"/>
			</g>
			<g>
				<path style="fill:#1A1A1A;" d="M455.799,135.041l-2.707-0.29c-0.094,1.704-0.2,3.405-0.321,5.104l2.695,0.436
					C455.593,138.544,455.702,136.794,455.799,135.041z"/>
			</g>
			<g>
				<path style="fill:#1A1A1A;" d="M465.862,81.362c0.254,2.021,0.488,4.045,0.7,6.077l2.676-0.572
					c-0.218-2.076-0.463-4.145-0.724-6.209L465.862,81.362z"/>
			</g>
			<g>
				<path style="fill:#1A1A1A;" d="M437.656,99.546c0.089,1.427,0.17,2.856,0.239,4.288l2.708-0.291
					c-0.072-1.479-0.156-2.958-0.251-4.434L437.656,99.546z"/>
			</g>
			<g>
				<path style="fill:#1A1A1A;" d="M430.004,111.302l-2.715,0.163c0.031,1.382,0.039,2.767,0.052,4.149l2.719-0.058
					C430.047,114.138,430.037,112.719,430.004,111.302z"/>
			</g>
			<g>
				<path style="fill:#1A1A1A;" d="M419.185,121.166l-2.721-0.059c-0.011,1.244-0.018,2.486-0.043,3.729l2.715,0.163
					C419.163,123.721,419.172,122.443,419.185,121.166z"/>
			</g>
			<g>
				<path style="fill:#1A1A1A;" d="M416.468,115.844l2.719-0.058c-0.01-1.277-0.017-2.557-0.043-3.833l-2.715,0.163
					C416.453,113.357,416.458,114.601,416.468,115.844z"/>
			</g>
			<g>
				<path style="fill:#1A1A1A;" d="M438.15,110.816c0.038,1.521,0.064,3.044,0.081,4.568l2.717-0.057
					c-0.015-1.561-0.043-3.118-0.083-4.675L438.15,110.816z"/>
			</g>
			<g>
				<path style="fill:#1A1A1A;" d="M440.947,121.625l-2.719-0.057c-0.016,1.523-0.047,3.047-0.085,4.568l2.716,0.162
					C440.899,124.742,440.931,123.185,440.947,121.625z"/>
			</g>
			<g>
				<path style="fill:#1A1A1A;" d="M430.056,121.395l-2.718-0.058c-0.015,1.383-0.025,2.768-0.059,4.148l2.716,0.162
					C430.029,124.232,430.042,122.813,430.056,121.395z"/>
			</g>
			<g>
				<path style="fill:#1A1A1A;" d="M418.943,131.083l-2.709-0.291c-0.043,1.041-0.105,2.079-0.159,3.118l2.699,0.438
					C418.833,133.259,418.895,132.173,418.943,131.083z"/>
			</g>
			<g>
				<path style="fill:#1A1A1A;" d="M469.211,150.08l-2.676-0.572c-0.215,2.031-0.451,4.056-0.706,6.074l2.65,0.703
					C468.744,154.222,468.99,152.156,469.211,150.08z"/>
			</g>
			<g>
				<path style="fill:#1A1A1A;" d="M454.899,147.017l-2.678-0.573c-0.169,1.797-0.351,3.592-0.553,5.38l2.654,0.705
					C454.533,150.696,454.723,148.859,454.899,147.017z"/>
			</g>
			<g>
				<path style="fill:#1A1A1A;" d="M439.894,143.804l-2.681-0.572c-0.129,1.551-0.272,3.098-0.425,4.643l2.663,0.707
					C439.611,146.992,439.758,145.4,439.894,143.804z"/>
			</g>
			<g>
				<path style="fill:#1A1A1A;" d="M467.617,136.31c-0.117,1.965-0.247,3.928-0.403,5.884l2.691,0.437
					c0.162-2.005,0.298-4.016,0.419-6.029L467.617,136.31z"/>
			</g>
			<g>
				<path style="fill:#1A1A1A;" d="M452.79,97.094c0.12,1.698,0.226,3.4,0.317,5.106l2.706-0.291
					c-0.094-1.754-0.203-3.505-0.327-5.252L452.79,97.094z"/>
			</g>
			<g>
				<path style="fill:#1A1A1A;" d="M468.011,109.029c0.058,1.904,0.103,3.813,0.125,5.725l2.718-0.059
					c-0.022-1.946-0.067-3.889-0.128-5.829L468.011,109.029z"/>
			</g>
			<g>
				<path style="fill:#1A1A1A;" d="M468.134,122.199c-0.024,1.912-0.073,3.82-0.133,5.725l2.715,0.162
					c0.063-1.939,0.112-3.883,0.136-5.828L468.134,122.199z"/>
			</g>
			<g>
				<path style="fill:#1A1A1A;" d="M467.234,94.755c0.154,1.956,0.283,3.92,0.399,5.885l2.706-0.291
					c-0.119-2.014-0.251-4.025-0.411-6.031L467.234,94.755z"/>
			</g>
			<g>
				<path style="fill:#1A1A1A;" d="M426.524,96.009l2.685-0.575c-0.109-1.42-0.217-2.839-0.345-4.254l-2.664,0.706
					C426.321,93.257,426.423,94.634,426.524,96.009z"/>
			</g>
			<g>
				<path style="fill:#1A1A1A;" d="M437.235,93.716l2.68-0.574c-0.134-1.596-0.279-3.188-0.438-4.777l-2.664,0.706
					C436.966,90.617,437.107,92.165,437.235,93.716z"/>
			</g>
			<g>
				<path style="fill:#1A1A1A;" d="M429.186,141.513l-2.684-0.574c-0.103,1.374-0.206,2.749-0.327,4.119l2.662,0.707
					C428.968,144.351,429.077,142.933,429.186,141.513z"/>
			</g>
			<g>
				<path style="fill:#1A1A1A;" d="M451.7,85.121c0.201,1.789,0.379,3.584,0.548,5.383l2.677-0.573
					c-0.174-1.843-0.361-3.681-0.57-5.515L451.7,85.121z"/>
			</g>
			<g>
				<path style="fill:#1A1A1A;" d="M415.813,98.302l2.686-0.576c-0.086-1.242-0.167-2.484-0.267-3.725l-2.676,0.709
					C415.65,95.906,415.732,97.104,415.813,98.302z"/>
			</g>
			<g>
				<path style="fill:#1A1A1A;" d="M418.478,139.221l-2.685-0.574c-0.08,1.196-0.162,2.395-0.258,3.588l2.675,0.71
					C418.313,141.707,418.394,140.462,418.478,139.221z"/>
			</g>
		</g>
	</g>
</g>
<g>
	<path style="fill:#F5F5F4;" d="M157.082,171.332H13.191c-2.614,0-4.733,2.12-4.733,4.734v43.384c0,2.614,2.119,4.733,4.733,4.733
		h143.891c2.614,0,4.733-2.119,4.733-4.733v-43.384C161.815,173.452,159.696,171.332,157.082,171.332"/>
	<path style="fill:#35485C;" d="M13.191,171.332v0.496h143.891c1.172,0,2.228,0.474,2.996,1.241
		c0.768,0.769,1.241,1.825,1.241,2.997v43.384c0,1.172-0.473,2.228-1.241,2.996c-0.768,0.768-1.824,1.241-2.996,1.241H13.191
		c-1.172,0-2.228-0.473-2.996-1.241c-0.768-0.768-1.241-1.824-1.241-2.996v-43.384c0-1.172,0.473-2.228,1.241-2.997
		c0.768-0.768,1.824-1.241,2.996-1.241V171.332v-0.496c-2.889,0-5.229,2.342-5.23,5.231v43.384c0,2.888,2.341,5.229,5.23,5.23
		h143.891c2.889,0,5.229-2.341,5.23-5.23v-43.384c0-2.888-2.341-5.23-5.23-5.231H13.191V171.332z"/>
	<path style="fill:#35485C;" d="M39.243,221.498h-9.054c-2.914,0-3.971-2.376-3.971-3.974v-11.118h-11.12
		c-2.916,0-3.974-2.375-3.974-3.974v-9.053c0-2.914,2.377-3.972,3.974-3.972h11.12v-11.12c0-2.915,2.375-3.974,3.971-3.974h9.054
		c2.916,0,3.974,2.378,3.974,3.974v11.12h11.117c1.529,0,2.743,0.668,3.417,1.884c0.264,0.478,0.581,1.416,0.546,2.087h0.01v9.053
		c0,2.916-2.375,3.974-3.974,3.974H43.216v11.118C43.216,220.44,40.84,221.498,39.243,221.498z M15.097,191.316
		c-0.479,0.008-2.064,0.177-2.064,2.063v9.053c0.007,0.479,0.177,2.063,2.064,2.063h13.029v13.028
		c0.006,0.479,0.177,2.063,2.062,2.063h9.05c0.489-0.007,2.068-0.181,2.068-2.063v-13.026h13.026
		c0.479-0.008,2.064-0.179,2.064-2.064v-9.066c-0.006-0.365-0.143-2.049-2.063-2.049H41.308v-13.029
		c-0.007-0.479-0.177-2.063-2.064-2.063H30.19c-0.479,0.008-2.062,0.177-2.062,2.063v13.028H15.097z"/>
	<path style="fill:#35485C;" d="M34.717,202.556c-2.562,0-4.646-2.086-4.646-4.648c0-2.563,2.084-4.647,4.646-4.647
		c2.563,0,4.647,2.085,4.647,4.647C39.365,200.471,37.279,202.556,34.717,202.556z M34.717,195.169
		c-1.509,0-2.736,1.229-2.736,2.738c0,1.511,1.227,2.738,2.736,2.738c1.51,0,2.738-1.229,2.738-2.738
		C37.455,196.397,36.226,195.169,34.717,195.169z"/>
	<polygon style="fill:#35485C;" points="34.716,178.367 30.89,184.331 38.545,184.331 	"/>
	<path style="fill:#35485C;" d="M38.543,185.286h-7.655c-0.349,0-0.669-0.19-0.837-0.496c-0.167-0.308-0.154-0.681,0.034-0.975
		l3.826-5.964c0.352-0.549,1.257-0.547,1.607,0l3.829,5.964c0.188,0.294,0.202,0.667,0.034,0.975
		C39.214,185.095,38.894,185.286,38.543,185.286z M32.637,183.376h4.16l-2.081-3.24L32.637,183.376z"/>
	<polygon style="fill:#35485C;" points="15.102,197.908 21.066,201.732 21.066,194.08 	"/>
	<path style="fill:#35485C;" d="M21.066,202.687c-0.18,0-0.359-0.051-0.516-0.151l-5.964-3.825
		c-0.274-0.174-0.439-0.478-0.439-0.803c0-0.326,0.166-0.628,0.439-0.804l5.964-3.827c0.293-0.188,0.667-0.203,0.974-0.034
		c0.305,0.166,0.497,0.488,0.497,0.837v7.652c0,0.349-0.19,0.67-0.497,0.838C21.38,202.649,21.223,202.687,21.066,202.687z
		 M16.871,197.908l3.24,2.077v-4.156L16.871,197.908z"/>
	<polygon style="fill:#35485C;" points="54.259,197.906 48.294,194.08 48.294,201.732 	"/>
	<path style="fill:#35485C;" d="M48.295,202.687c-0.158,0-0.314-0.038-0.457-0.117c-0.307-0.168-0.498-0.489-0.498-0.838v-7.652
		c0-0.349,0.19-0.669,0.498-0.837c0.304-0.169,0.677-0.157,0.974,0.034l5.965,3.826c0.274,0.176,0.439,0.479,0.439,0.803
		c0,0.325-0.166,0.628-0.439,0.804l-5.966,3.826C48.654,202.636,48.474,202.687,48.295,202.687z M49.25,195.827v4.158l3.242-2.079
		L49.25,195.827z"/>
	<polygon style="fill:#35485C;" points="34.716,217.447 38.545,211.483 30.89,211.483 	"/>
	<path style="fill:#35485C;" d="M34.716,218.402c-0.325,0-0.628-0.166-0.804-0.439l-3.826-5.964
		c-0.188-0.294-0.201-0.667-0.035-0.975c0.168-0.307,0.489-0.497,0.838-0.497h7.655c0.349,0,0.669,0.189,0.838,0.497
		c0.168,0.306,0.154,0.681-0.035,0.975l-3.829,5.964C35.344,218.236,35.041,218.402,34.716,218.402z M32.637,212.438l2.079,3.24
		l2.081-3.24H32.637z"/>
	<path style="fill:#35485C;" d="M73.756,207.157v-19.484h5.5c1.695,0,3.194,0.374,4.497,1.124c1.303,0.749,2.306,1.815,3.011,3.198
		c0.713,1.383,1.075,2.971,1.084,4.764v1.245c0,1.838-0.357,3.448-1.071,4.831c-0.705,1.383-1.717,2.444-3.038,3.185
		c-1.312,0.74-2.842,1.12-4.59,1.138H73.756z M76.326,189.787v15.27h2.703c1.981,0,3.52-0.616,4.617-1.848
		c1.106-1.23,1.659-2.983,1.659-5.259v-1.138c0-2.212-0.521-3.93-1.565-5.152c-1.035-1.23-2.507-1.855-4.417-1.873H76.326z"/>
	<rect x="89.976" y="197.87" style="fill:#35485C;" width="6.531" height="2.021"/>
	<path style="fill:#35485C;" d="M101.859,199.529v7.628H99.29v-19.484h7.186c2.132,0,3.801,0.544,5.005,1.632
		c1.213,1.089,1.82,2.529,1.82,4.323c0,1.891-0.593,3.35-1.78,4.376c-1.178,1.017-2.868,1.525-5.072,1.525H101.859z
		 M101.859,197.428h4.617c1.374,0,2.427-0.321,3.159-0.964c0.731-0.651,1.097-1.588,1.097-2.811c0-1.16-0.366-2.088-1.097-2.783
		c-0.732-0.696-1.735-1.058-3.011-1.084h-4.764V197.428z"/>
	<path style="fill:#35485C;" d="M125.52,202.072h-8.164l-1.833,5.085h-2.65l7.44-19.484h2.249l7.454,19.484h-2.637L125.52,202.072z
		 M118.132,199.958h6.625l-3.319-9.114L118.132,199.958z"/>
	<path style="fill:#35485C;" d="M132.639,207.157v-19.484h5.5c1.695,0,3.194,0.374,4.496,1.124c1.303,0.749,2.307,1.815,3.011,3.198
		c0.714,1.383,1.075,2.971,1.084,4.764v1.245c0,1.838-0.357,3.448-1.071,4.831c-0.705,1.383-1.717,2.444-3.038,3.185
		c-1.312,0.74-2.841,1.12-4.59,1.138H132.639z M135.208,189.787v15.27h2.703c1.98,0,3.52-0.616,4.617-1.848
		c1.106-1.23,1.66-2.983,1.66-5.259v-1.138c0-2.212-0.522-3.93-1.566-5.152c-1.035-1.23-2.507-1.855-4.416-1.873H135.208z"/>
	<path style="fill:#F5F5F4;" d="M345.548,92.99h-147.19c-1.17,0-2.225,0.473-2.992,1.239c-0.767,0.767-1.239,1.822-1.239,2.992
		v43.376c0,1.17,0.473,2.224,1.239,2.992c0.767,0.766,1.822,1.239,2.992,1.239h147.19c1.17,0,2.224-0.473,2.992-1.239
		c0.767-0.767,1.239-1.822,1.239-2.992V97.221c0-1.17-0.473-2.224-1.239-2.992C347.772,93.463,346.718,92.991,345.548,92.99"/>
	<path style="fill:#35485C;" d="M198.357,92.489v0.501h147.19c1.17,0,2.224,0.473,2.992,1.239c0.766,0.767,1.239,1.822,1.239,2.992
		v43.376c0,1.17-0.473,2.224-1.239,2.992c-0.767,0.766-1.822,1.239-2.992,1.239h-147.19c-1.17,0-2.225-0.473-2.992-1.239
		c-0.767-0.767-1.239-1.822-1.239-2.992V97.221c0-1.17,0.473-2.224,1.239-2.992c0.767-0.767,1.822-1.239,2.992-1.239V92.489v-0.502
		c-2.891,0-5.234,2.343-5.235,5.234v43.376c0,2.891,2.344,5.234,5.235,5.234h147.19c2.891,0,5.234-2.343,5.234-5.234V97.221
		c0-2.891-2.344-5.234-5.234-5.234h-147.19V92.489"/>
	<path style="fill:#35485C;" d="M238.096,114.833h1.804v-7.624h3.215v-1.417h-8.234v1.417h3.216L238.096,114.833z M227.164,109.846
		v-2.637h3.114c0.947,0,1.538,0.366,1.538,1.304c0,1.014-0.542,1.333-1.538,1.333H227.164z M225.365,114.833h1.799v-3.571h3.065
		c1.321,0,1.49,0.912,1.49,2.202c0,0.66,0.085,1.117,0.218,1.369h1.947c-0.353-0.496-0.364-1.504-0.364-1.94
		c0-1.278-0.226-2.215-1.247-2.44v-0.026c0.807-0.265,1.415-1,1.415-2.179c0-1.404-0.706-2.451-2.892-2.451h-5.428L225.365,114.833z
		 M214.219,114.833h1.946l0.888-2.241h4.036l0.901,2.241H224l-3.82-9.042h-2.138L214.219,114.833z M217.595,111.174l1.489-3.816
		l1.465,3.816H217.595z M209.15,114.833h1.799v-7.624h3.22v-1.417h-8.24v1.417h3.22V114.833z M196.85,108.334
		c0,3.708,6.317,1.756,6.317,4c0,0.993-1.02,1.334-2.112,1.334c-1.479,0-2.413-0.572-2.463-1.765h-1.944
		c0.026,1.902,1.261,3.184,4.352,3.184c1.825,0,4.115-0.61,4.115-2.942c0-3.863-6.389-1.824-6.389-3.949
		c0-0.848,0.792-1.239,1.993-1.239c1.5,0,2.103,0.758,2.166,1.457h1.946c-0.232-2.626-2.873-2.875-4.196-2.875
		C198.542,105.538,196.85,106.319,196.85,108.334"/>
	<path style="fill:#35485C;" d="M238.287,119.311h-36.848c-2.664,0-4.824,2.223-4.824,4.964s2.16,4.965,4.824,4.965h36.848
		c2.664,0,4.823-2.223,4.823-4.965S240.95,119.311,238.287,119.311z"/>
	<path style="fill:#35485C;" d="M264.659,119.623c-2.203-0.633-3.81-1.409-4.817-2.328c-0.999-0.928-1.499-2.07-1.499-3.426
		c0-1.535,0.611-2.801,1.834-3.801c1.23-1.008,2.828-1.512,4.79-1.512c1.339,0,2.529,0.259,3.573,0.776
		c1.053,0.517,1.865,1.231,2.436,2.141c0.58,0.91,0.87,1.905,0.87,2.984h-2.583c0-1.178-0.374-2.101-1.124-2.771
		c-0.749-0.678-1.807-1.017-3.172-1.017c-1.267,0-2.257,0.281-2.971,0.843c-0.705,0.553-1.057,1.325-1.057,2.315
		c0,0.794,0.334,1.467,1.003,2.021c0.679,0.544,1.825,1.044,3.439,1.499c1.624,0.455,2.891,0.959,3.801,1.512
		c0.919,0.544,1.597,1.182,2.034,1.914c0.446,0.731,0.669,1.593,0.669,2.583c0,1.579-0.615,2.846-1.847,3.801
		c-1.231,0.945-2.877,1.418-4.938,1.418c-1.338,0-2.587-0.254-3.747-0.763c-1.159-0.518-2.056-1.223-2.689-2.114
		c-0.624-0.893-0.937-1.905-0.937-3.038h2.583c0,1.178,0.433,2.11,1.298,2.797c0.874,0.679,2.038,1.018,3.492,1.018
		c1.356,0,2.396-0.277,3.118-0.83s1.084-1.307,1.084-2.262c0-0.954-0.334-1.69-1.003-2.208
		C267.63,120.649,266.417,120.131,264.659,119.623z"/>
	<polygon style="fill:#35485C;" points="288.654,110.938 282.391,110.938 282.391,128.308 279.835,128.308 279.835,110.938 
		273.585,110.938 273.585,108.823 288.654,108.823 	"/>
	<path style="fill:#35485C;" d="M301.26,123.223h-8.163l-1.833,5.085h-2.649l7.44-19.485h2.248l7.454,19.485h-2.637L301.26,123.223z
		 M293.873,121.108h6.624l-3.318-9.113L293.873,121.108z"/>
	<path style="fill:#35485C;" d="M315.525,120.426h-4.576v7.882h-2.583v-19.485h6.45c2.195,0,3.881,0.5,5.059,1.499
		c1.187,0.999,1.78,2.454,1.78,4.363c0,1.213-0.33,2.271-0.99,3.171c-0.651,0.901-1.562,1.575-2.73,2.021l4.577,8.271v0.16h-2.757
		L315.525,120.426z M310.949,118.325h3.947c1.276,0,2.289-0.33,3.038-0.99c0.759-0.66,1.138-1.543,1.138-2.649
		c0-1.205-0.361-2.128-1.084-2.771c-0.714-0.642-1.749-0.968-3.104-0.977h-3.935V118.325z"/>
	<polygon style="fill:#35485C;" points="337.634,110.938 331.37,110.938 331.37,128.308 328.814,128.308 328.814,110.938 
		322.565,110.938 322.565,108.823 337.634,108.823 	"/>
	<path style="fill:#F5F5F4;" d="M345.53,36.454h-92.139c-2.623,0-4.75,2.126-4.75,4.75v43.535c0,1.859,1.068,3.468,2.623,4.248
		h94.283c0.541,0,1.064,0.082,1.555,0.235c1.85-0.649,3.177-2.412,3.177-4.484V41.204C350.28,38.581,348.153,36.454,345.53,36.454"
		/>
	<path style="fill:#35485C;" d="M253.392,36.454v1.273h92.139c0.964,0.001,1.825,0.387,2.458,1.018
		c0.631,0.633,1.018,1.494,1.018,2.458v43.535c-0.001,0.964-0.387,1.825-1.018,2.458c-0.633,0.631-1.494,1.018-2.458,1.018h-92.139
		c-0.964-0.001-1.825-0.387-2.458-1.018c-0.631-0.633-1.018-1.494-1.018-2.458V41.204c0.001-0.964,0.387-1.825,1.018-2.458
		c0.633-0.631,1.494-1.018,2.458-1.018V36.454v-1.273c-3.327,0.001-6.023,2.696-6.023,6.023v43.535
		c0.001,3.327,2.696,6.022,6.023,6.023h92.139c3.327-0.001,6.022-2.696,6.023-6.023V41.204c-0.001-3.327-2.697-6.023-6.023-6.023
		h-92.139V36.454z"/>
	<polygon style="fill:#35485C;" points="316.615,70.269 325.849,70.269 325.849,72.37 314.032,72.37 314.032,52.885 316.615,52.885 
			"/>
	<polygon style="fill:#35485C;" points="336.301,72.37 333.812,72.37 333.812,55.87 328.819,57.703 328.819,55.455 335.912,52.792 
		336.301,52.792 	"/>
	<path style="fill:#35485C;" d="M287.695,54.392c4.185,0,7.588,3.777,7.588,8.417c0,4.651-3.403,8.435-7.588,8.435h-25.857
		c-4.153-0.036-7.531-3.822-7.531-8.435c0-4.605,3.378-8.38,7.516-8.417H287.695z M287.695,52.587h-25.873
		c-5.15,0.046-9.32,4.596-9.32,10.222c0,5.628,4.17,10.193,9.32,10.239h25.873c5.188,0,9.393-4.586,9.393-10.239
		C297.088,57.157,292.883,52.587,287.695,52.587z"/>
	<polygon style="fill:#35485C;" points="271.654,58.371 271.654,67.248 277.936,67.248 277.936,65.609 273.606,65.609 
		273.606,58.371 	"/>
	<path style="fill:#F5F5F4;" d="M347.103,148.596c-0.491,0.153-1.013,0.235-1.555,0.235h-94.283c-1.556,0.78-2.623,2.39-2.623,4.248
		v43.535c0,2.623,2.127,4.75,4.75,4.75h92.139c2.623,0,4.75-2.127,4.75-4.75V153.08C350.28,151.008,348.953,149.245,347.103,148.596
		"/>
	<path style="fill:#35485C;" d="M253.392,148.33v0.405h92.139c1.201,0,2.285,0.486,3.072,1.273c0.787,0.788,1.273,1.871,1.273,3.072
		v43.535c0,1.201-0.486,2.285-1.273,3.072c-0.788,0.787-1.871,1.273-3.072,1.273h-92.139c-1.201,0-2.285-0.486-3.072-1.273
		c-0.787-0.788-1.273-1.871-1.273-3.072V153.08c0-1.201,0.486-2.285,1.273-3.072c0.788-0.787,1.871-1.273,3.072-1.273V148.33v-0.405
		c-2.847,0-5.154,2.308-5.155,5.155v43.535c0,2.847,2.308,5.154,5.155,5.155h92.139c2.847,0,5.154-2.308,5.155-5.155V153.08
		c0-2.847-2.308-5.154-5.155-5.155h-92.139V148.33z"/>
	<path style="fill:#35485C;" d="M320.942,176.478h-4.577v7.883h-2.583v-19.485h6.45c2.195,0,3.881,0.5,5.059,1.499
		c1.187,0.999,1.78,2.453,1.78,4.363c0,1.213-0.33,2.271-0.99,3.171c-0.651,0.901-1.562,1.575-2.73,2.021l4.577,8.271v0.161h-2.757
		L320.942,176.478z M316.365,174.377h3.948c1.275,0,2.288-0.33,3.037-0.99c0.759-0.66,1.138-1.544,1.138-2.649
		c0-1.205-0.361-2.128-1.084-2.771c-0.714-0.643-1.748-0.968-3.104-0.977h-3.935V174.377z"/>
	<polygon style="fill:#35485C;" points="338.152,184.361 335.663,184.361 335.663,167.86 330.671,169.694 330.671,167.445 
		337.764,164.782 338.152,164.782 	"/>
	<path style="fill:#35485C;" d="M272.632,171.747h2.127c0.863,0,1.335,0.373,1.335,1.222c0,0.894-0.474,1.268-1.335,1.268h-2.127
		V171.747z M270.695,179.07h1.937v-3.45h1.942c0.976,0,1.336,0.409,1.471,1.337c0.098,0.704,0.073,1.559,0.309,2.114h1.938
		c-0.346-0.494-0.333-1.529-0.374-2.089c-0.061-0.89-0.329-1.818-1.279-2.066c0,0,1.394-0.362,1.394-2.238
		c0-1.337-1.001-2.435-2.582-2.435h-4.756L270.695,179.07z"/>
	<path style="fill:#35485C;" d="M287.313,166.295c4.158,0,7.54,3.754,7.54,8.363c0,4.622-3.382,8.383-7.54,8.383h-25.693
		c-4.127-0.036-7.484-3.798-7.484-8.383c0-4.574,3.357-8.327,7.468-8.363H287.313z M287.313,164.502h-25.709
		c-5.118,0.045-9.261,4.566-9.261,10.156c0,5.594,4.143,10.129,9.261,10.176h25.709c5.156,0,9.333-4.558,9.333-10.176
		C296.646,169.042,292.468,164.502,287.313,164.502z"/>
	<path style="fill:#F5F5F4;" d="M563.128,46.885H473.9c-2.624,0-4.751,2.127-4.751,4.751V95.18c0,2.624,2.127,4.751,4.751,4.751
		h89.228c2.624,0,4.751-2.127,4.751-4.751V51.636C567.879,49.012,565.752,46.885,563.128,46.885"/>
	<path style="fill:#35485C;" d="M473.9,46.885v1.255h89.228c0.969,0.001,1.835,0.389,2.472,1.024
		c0.635,0.637,1.023,1.503,1.024,2.472V95.18c-0.003,1.93-1.565,3.492-3.496,3.496H473.9c-1.93-0.003-3.492-1.565-3.496-3.496
		V51.636c0.001-0.969,0.389-1.835,1.024-2.472c0.637-0.635,1.503-1.023,2.472-1.024V46.885V45.63
		c-3.318,0.001-6.005,2.689-6.006,6.006V95.18c0.001,3.318,2.689,6.005,6.006,6.006h89.228c3.318-0.001,6.005-2.689,6.006-6.006
		V51.636c-0.001-3.317-2.688-6.005-6.006-6.006H473.9V46.885z"/>
	<path style="fill:#35485C;" d="M545.305,77.722h-8.163l-1.833,5.085h-2.65l7.44-19.485h2.249l7.454,19.485h-2.637L545.305,77.722z
		 M537.918,75.607h6.624l-3.318-9.113L537.918,75.607z"/>
	<g>
		<defs>
			<polyline id="SVGID_1_" points="472.241,50.548 518.463,50.548 518.463,96.77 472.241,96.77 472.241,50.548 			"/>
		</defs>
		<clipPath id="SVGID_2_">
			<use xlink:href="#SVGID_1_"  style="overflow:visible;"/>
		</clipPath>
		<path style="clip-path:url(#SVGID_2_);fill:#35485C;" d="M509.943,79.168c-3.524,0-6.383-2.858-6.383-6.384
			c0-3.524,2.858-6.382,6.383-6.382c3.526,0,6.384,2.857,6.384,6.382C516.327,76.309,513.47,79.168,509.943,79.168 M496.512,68.695
			c-3.526,0-6.383-2.858-6.383-6.384c0-3.524,2.856-6.383,6.383-6.383c3.525,0,6.383,2.858,6.383,6.383
			C502.895,65.836,500.037,68.695,496.512,68.695 M494.212,91.536c-3.526,0-6.383-2.858-6.383-6.383
			c0-3.526,2.856-6.383,6.383-6.383c3.524,0,6.383,2.857,6.383,6.383C500.595,88.677,497.736,91.536,494.212,91.536 M480.943,80.796
			c-3.526,0-6.384-2.857-6.384-6.384c0-3.524,2.857-6.382,6.384-6.382c3.525,0,6.383,2.857,6.383,6.382
			C487.326,77.939,484.469,80.796,480.943,80.796 M495.439,50.548c-12.741,0-23.071,10.328-23.071,23.07
			c0,12.741,10.33,23.071,23.071,23.071s23.07-10.33,23.07-23.071C518.51,60.877,508.181,50.548,495.439,50.548"/>
		<path style="clip-path:url(#SVGID_2_);fill:#35485C;" d="M498.726,85.152c0,2.492-2.022,4.514-4.514,4.514
			c-2.493,0-4.514-2.021-4.514-4.514c0-2.493,2.021-4.513,4.514-4.513C496.703,80.639,498.726,82.659,498.726,85.152"/>
		<path style="clip-path:url(#SVGID_2_);fill:#35485C;" d="M485.696,74.413c0,2.625-2.129,4.755-4.754,4.755
			s-4.754-2.13-4.754-4.755s2.129-4.754,4.754-4.754S485.696,71.787,485.696,74.413"/>
		<path style="clip-path:url(#SVGID_2_);fill:#35485C;" d="M501.018,62.44c0,2.493-2.021,4.514-4.514,4.514
			c-2.493,0-4.514-2.021-4.514-4.514c0-2.493,2.021-4.513,4.514-4.513C498.996,57.927,501.018,59.947,501.018,62.44"/>
	</g>
	<path style="fill:#F5F5F4;" d="M563.637,121.668h-89.229c-2.624,0-4.751,2.127-4.751,4.751v43.544c0,2.624,2.127,4.751,4.751,4.751
		h89.229c2.623,0,4.751-2.127,4.751-4.751v-43.544C568.388,123.795,566.26,121.668,563.637,121.668"/>
	<path style="fill:#35485C;" d="M474.408,121.668v1.255h89.229c0.969,0.001,1.835,0.389,2.472,1.024
		c0.635,0.637,1.023,1.503,1.024,2.472v43.544c-0.001,0.969-0.389,1.835-1.024,2.472c-0.637,0.635-1.503,1.023-2.472,1.024h-89.229
		c-1.93-0.003-3.492-1.565-3.496-3.496v-43.544c0.003-1.93,1.565-3.492,3.496-3.496V121.668v-1.255
		c-3.318,0.001-6.005,2.689-6.006,6.006v43.544c0.001,3.318,2.689,6.005,6.006,6.006h89.229c3.317-0.001,6.005-2.688,6.006-6.006
		v-43.544c-0.001-3.318-2.689-6.005-6.006-6.006h-89.229V121.668z"/>
	<path style="fill:#35485C;" d="M535.054,157.59v-19.484h6.37c2.114,0,3.702,0.437,4.764,1.312c1.071,0.874,1.606,2.168,1.606,3.881
		c0,0.909-0.259,1.717-0.776,2.422c-0.518,0.696-1.223,1.235-2.114,1.619c1.053,0.295,1.883,0.856,2.489,1.687
		c0.615,0.82,0.923,1.802,0.923,2.944c0,1.748-0.566,3.122-1.699,4.121s-2.734,1.499-4.805,1.499H535.054z M537.623,148.477v7.013
		h4.242c1.195,0,2.137-0.309,2.824-0.924c0.695-0.624,1.044-1.48,1.044-2.569c0-2.347-1.276-3.52-3.828-3.52H537.623z
		 M537.623,146.417h3.881c1.124,0,2.021-0.281,2.69-0.844c0.678-0.562,1.017-1.324,1.017-2.288c0-1.07-0.313-1.847-0.937-2.329
		c-0.625-0.49-1.575-0.735-2.851-0.735h-3.801V146.417z"/>
	<g>
		<defs>
			<polyline id="SVGID_3_" points="471.945,124.721 519.152,124.721 519.152,171.928 471.945,171.928 471.945,124.721 			"/>
		</defs>
		<clipPath id="SVGID_4_">
			<use xlink:href="#SVGID_3_"  style="overflow:visible;"/>
		</clipPath>
		<path style="clip-path:url(#SVGID_4_);fill:#35485C;" d="M510.452,153.951c-3.6,0-6.52-2.919-6.52-6.521
			c0-3.6,2.92-6.518,6.52-6.518c3.601,0,6.52,2.918,6.52,6.518C516.972,151.032,514.053,153.951,510.452,153.951 M496.733,143.255
			c-3.601,0-6.52-2.92-6.52-6.521c0-3.6,2.919-6.52,6.52-6.52c3.602,0,6.52,2.92,6.52,6.52
			C503.253,140.335,500.335,143.255,496.733,143.255 M494.385,166.583c-3.601,0-6.52-2.919-6.52-6.519c0-3.602,2.919-6.52,6.52-6.52
			c3.6,0,6.52,2.918,6.52,6.52C500.904,163.664,497.984,166.583,494.385,166.583 M480.833,155.615c-3.601,0-6.52-2.919-6.52-6.521
			c0-3.6,2.919-6.519,6.52-6.519s6.52,2.919,6.52,6.519C487.353,152.696,484.434,155.615,480.833,155.615 M495.638,124.721
			c-13.013,0-23.562,10.549-23.562,23.563c0,13.013,10.549,23.563,23.562,23.563c13.014,0,23.563-10.55,23.563-23.563
			C519.2,135.27,508.651,124.721,495.638,124.721"/>
		<path style="clip-path:url(#SVGID_4_);fill:#35485C;" d="M515.107,147.431c0,2.571-2.084,4.655-4.655,4.655
			s-4.655-2.084-4.655-4.655s2.084-4.654,4.655-4.654S515.107,144.86,515.107,147.431"/>
		<path style="clip-path:url(#SVGID_4_);fill:#35485C;" d="M485.688,149.094c0,2.682-2.175,4.857-4.856,4.857
			c-2.681,0-4.855-2.176-4.855-4.857c0-2.681,2.175-4.855,4.855-4.855C483.514,144.239,485.688,146.414,485.688,149.094"/>
		<path style="clip-path:url(#SVGID_4_);fill:#35485C;" d="M501.335,136.867c0,2.547-2.064,4.61-4.609,4.61
			c-2.546,0-4.61-2.063-4.61-4.61c0-2.546,2.064-4.609,4.61-4.609C499.271,132.257,501.335,134.321,501.335,136.867"/>
	</g>
</g>
<g>
	<ellipse style="fill:#A4A4A6;" cx="55.318" cy="117.935" rx="3.084" ry="3.018"/>
	<ellipse style="fill:#A4A4A6;" cx="376.526" cy="82.438" rx="3.084" ry="3.018"/>
	<ellipse style="fill:#A4A4A6;" cx="378.292" cy="117.935" rx="3.084" ry="3.018"/>
	<ellipse style="fill:#A4A4A6;" cx="376.702" cy="152.548" rx="3.084" ry="3.018"/>
	<ellipse style="fill:#A4A4A6;" cx="450.698" cy="27.516" rx="3.084" ry="3.018"/>
	<ellipse style="fill:#A4A4A6;" cx="408.844" cy="39.878" rx="3.084" ry="3.018"/>
	<ellipse style="fill:#A4A4A6;" cx="408.844" cy="195.639" rx="3.084" ry="3.018"/>
	<ellipse style="fill:#A4A4A6;" cx="450.874" cy="207.824" rx="3.084" ry="3.018"/>
	<path style="fill:#A4A4A6;stroke:#A4A4A6;stroke-width:0.7558;" d="M377.388,82.395l-27.004,0.086"/>
	<path style="fill:#A4A4A6;stroke:#A4A4A6;stroke-width:0.7558;" d="M377.489,152.682l-27.004,0.086"/>
	<path style="fill:#A4A4A6;stroke:#A4A4A6;stroke-width:0.7558;" d="M377.666,117.892l-27.004,0.086"/>
	<path style="fill:#A4A4A6;stroke:#A4A4A6;stroke-width:1.8012;" d="M408.625,39.863l0.084,155.79"/>
	<path style="fill:#969696;stroke:#A4A4A6;stroke-width:1.0764;" d="M55.233,115.848l0.085,55.132"/>
	<path style="fill:#969696;stroke:#A4A4A6;stroke-width:1.9359;" d="M450.497,27.18l0.084,180.269"/>
	<path style="fill:#969696;stroke:#A4A4A6;stroke-width:1.0772;" d="M468.607,72.975l-19.218,0.245"/>
	<path style="fill:#969696;stroke:#A4A4A6;stroke-width:1.3819;" d="M469.22,146.916l-60.363,0.128"/>
</g>
</svg>
