<svg enable-background="new 0 0 166.995 178.208" viewBox="0 0 166.995 178.208" xmlns="http://www.w3.org/2000/svg" xmlns:xlink="http://www.w3.org/1999/xlink"><linearGradient id="a" gradientUnits="userSpaceOnUse" x1="83.4976" x2="83.4976" y1="178.2085" y2=".4912"><stop offset="0" stop-color="#12171b"/><stop offset=".5851" stop-color="#111519"/><stop offset=".7955" stop-color="#0c1012"/><stop offset=".9453" stop-color="#040607"/><stop offset="1"/></linearGradient><linearGradient id="b" gradientUnits="userSpaceOnUse" x1="83.4976" x2="83.4976" y1="138.0752" y2="64.5752"><stop offset="0" stop-color="#156636"/><stop offset="1" stop-color="#005779"/></linearGradient><linearGradient id="c"><stop offset="0" stop-color="#e9d03b"/><stop offset=".1352" stop-color="#e8cd3b"/><stop offset=".2754" stop-color="#e5c43b"/><stop offset=".4179" stop-color="#dfb63a"/><stop offset=".5621" stop-color="#d8a138"/><stop offset=".7074" stop-color="#d18735"/><stop offset=".8517" stop-color="#c96932"/><stop offset=".95" stop-color="#c2482e"/></linearGradient><linearGradient id="d" gradientUnits="userSpaceOnUse" x1="16.8415" x2="26.9063" xlink:href="#c" y1="47.2594" y2="55.7048"/><linearGradient id="e" gradientUnits="userSpaceOnUse" x1="27.7545" x2="31.0134" y1="55.9929" y2="65.4574"><stop offset=".299" stop-color="#e9d03b"/><stop offset=".3988" stop-color="#e8cd3b"/><stop offset=".5022" stop-color="#e5c43b"/><stop offset=".6074" stop-color="#dfb63a"/><stop offset=".7137" stop-color="#d8a138"/><stop offset=".821" stop-color="#d18735"/><stop offset=".9275" stop-color="#c96932"/><stop offset="1" stop-color="#c2482e"/></linearGradient><linearGradient id="f" gradientUnits="userSpaceOnUse" x1="57.8674" x2="62.8659" xlink:href="#c" y1="50.7529" y2="57.6327"/><linearGradient id="g" gradientUnits="userSpaceOnUse" x1="34.2631" x2="52.2297" y1="50.7467" y2="50.7467"><stop offset=".2165" stop-color="#e9d03b"/><stop offset=".3209" stop-color="#e8cd3b"/><stop offset=".4291" stop-color="#e5c43b"/><stop offset=".5392" stop-color="#dfb63a"/><stop offset=".6505" stop-color="#d8a138"/><stop offset=".7627" stop-color="#d18735"/><stop offset=".8741" stop-color="#c96932"/><stop offset=".95" stop-color="#c2482e"/></linearGradient><linearGradient id="h" gradientUnits="userSpaceOnUse" x1="73.8009" x2="85.4179" xlink:href="#c" y1="51.9293" y2="61.6771"/><linearGradient id="i" gradientUnits="userSpaceOnUse" x1="84.6533" x2="108.7036" y1="39.4542" y2="59.6348"><stop offset=".5" stop-color="#e9d03b"/><stop offset=".5712" stop-color="#e8cd3b"/><stop offset=".645" stop-color="#e5c43b"/><stop offset=".72" stop-color="#dfb63a"/><stop offset=".7958" stop-color="#d8a138"/><stop offset=".8723" stop-color="#d18735"/><stop offset=".9483" stop-color="#c96932"/><stop offset="1" stop-color="#c2482e"/></linearGradient><linearGradient id="j"><stop offset="0" stop-color="#e9d03b"/><stop offset=".1423" stop-color="#e8cd3b"/><stop offset=".2899" stop-color="#e5c43b"/><stop offset=".4399" stop-color="#dfb63a"/><stop offset=".5916" stop-color="#d8a138"/><stop offset=".7447" stop-color="#d18735"/><stop offset=".8966" stop-color="#c96932"/><stop offset="1" stop-color="#c2482e"/></linearGradient><linearGradient id="k" gradientUnits="userSpaceOnUse" x1="122.663" x2="143.1033" xlink:href="#j" y1="49.3256" y2="66.4771"/><linearGradient id="l" gradientUnits="userSpaceOnUse" x1="138.0837" x2="145.2635" xlink:href="#j" y1="44.183" y2="50.2075"/><path d="m166.995 4.704v166.136c0 4.053-3.316 7.369-7.369 7.369h-152.257c-4.053 0-7.369-3.316-7.369-7.369v-166.136c0-2.326 1.886-4.212 4.212-4.212h158.57c2.327-.001 4.213 1.885 4.213 4.212z" fill="url(#a)"/><path d="m164.85 153.891v-110.277c0-1.013-.828-1.842-1.842-1.842h-159.021c-1.013 0-1.842.829-1.842 1.842v110.277z"/><path d="m2.145 153.891h162.705v16.786h-162.705z" fill="#595959"/><path d="m6.725 153.828h2.96v15.911h-2.96z" fill="#d78b00"/><path d="m11.288 153.828h2.96v15.911h-2.96z" fill="#d78b00"/><path d="m15.851 153.828h2.96v15.911h-2.96z" fill="#d78b00"/><path d="m20.414 153.828h2.96v13.479h-2.96z" fill="#d78b00"/><path d="m24.977 153.828h2.96v13.479h-2.96z" fill="#d78b00"/><path d="m29.54 153.828h2.961v13.479h-2.961z" fill="#d78b00"/><path d="m34.104 153.828h2.96v13.479h-2.96z" fill="#d78b00"/><path d="m38.667 153.828h2.96v13.479h-2.96z" fill="#d78b00"/><path d="m43.23 153.828h2.96v13.479h-2.96z" fill="#d78b00"/><path d="m47.793 153.828h2.961v13.479h-2.961z" fill="#d78b00"/><path d="m52.356 153.828h2.96v13.479h-2.96z" fill="#d78b00"/><path d="m56.92 153.828h2.96v13.479h-2.96z" fill="#d78b00"/><path d="m61.482 153.828h2.961v13.479h-2.961z" fill="#d78b00"/><path d="m66.046 153.828h2.96v13.479h-2.96z" fill="#d78b00"/><path d="m70.609 153.828h2.96v13.479h-2.96z" fill="#d78b00"/><path d="m75.172 153.828h2.961v13.479h-2.961z" fill="#d78b00"/><path d="m79.735 153.828h2.96v13.479h-2.96z" fill="#d78b00"/><path d="m84.299 153.828h2.96v13.479h-2.96z" fill="#d78b00"/><path d="m88.862 153.828h2.96v13.479h-2.96z" fill="#d78b00"/><path d="m93.425 153.828h2.96v13.479h-2.96z" fill="#d78b00"/><path d="m97.988 153.828h2.96v13.479h-2.96z" fill="#d78b00"/><path d="m102.552 153.828h2.96v13.479h-2.96z" fill="#d78b00"/><path d="m107.114 153.828h2.961v13.479h-2.961z" fill="#d78b00"/><path d="m111.678 153.828h2.96v13.479h-2.96z" fill="#d78b00"/><path d="m116.241 153.828h2.96v13.479h-2.96z" fill="#d78b00"/><path d="m120.805 153.828h2.96v13.479h-2.96z" fill="#d78b00"/><path d="m125.367 153.828h2.961v13.479h-2.961z" fill="#d78b00"/><path d="m129.931 153.828h2.96v13.479h-2.96z" fill="#d78b00"/><path d="m134.494 153.828h2.96v13.479h-2.96z" fill="#d78b00"/><path d="m139.057 153.828h2.961v13.479h-2.961z" fill="#d78b00"/><path d="m143.62 153.828h2.96v13.479h-2.96z" fill="#d78b00"/><path d="m148.184 153.828h2.96v13.479h-2.96z" fill="#d78b00"/><path d="m152.746 153.828h2.961v13.479h-2.961z" fill="#d78b00"/><path d="m157.31 153.828h2.96v15.911h-2.96z" fill="#d78b00"/><path d="m2.145 64.575h162.705v73.5h-162.705z" fill="url(#b)"/><path d="m112.187 61.975 9.535-3.47 4.192 2.083-4.829 1.387z" fill="#a12d2b"/><path d="m132.447 52.021-4.133 1.583-14.751-7.296h10.927l17.359 8.439-1.982.736z" fill="#a12d2b"/><path d="m17.64 56.656v-10.348h8.468v10.348z" fill="url(#d)"/><path d="m17.64 61.975v-2.499h23.488v2.499z" fill="url(#e)"/><path d="m48.298 61.975v-4.27l17.905-11.397h6.157l-15.47 9.394v6.273z" fill="url(#f)"/><path d="m34.263 46.308h10.822l7.145 5.512-5.453 3.365z" fill="url(#g)"/><path d="m76.638 61.975v-13.427l8.53 5.255v8.172z" fill="url(#h)"/><path d="m103.094 61.975-24.192-15.667h5.916l19.11 13.155v-13.155h2.812v15.667z" fill="url(#i)"/><path d="m135.535 61.975-16.65-8.147 2.341-.864 7.024 3.56 3.721-1.48 14.91 6.931z" fill="url(#k)"/><path d="m134.812 48.083 4.649-1.775h9.075l-9.928 3.631z" fill="url(#l)"/><g fill="#fff"><path d="m155.55 44.445h-1.145v-.413h2.787v.413h-1.15v3.351h-.492z"/><path d="m160.781 46.143c-.028-.525-.062-1.156-.056-1.625h-.017c-.128.441-.285.911-.475 1.43l-.665 1.826h-.368l-.609-1.792c-.179-.531-.33-1.017-.436-1.463h-.011c-.011.469-.039 1.1-.072 1.665l-.101 1.614h-.464l.263-3.764h.62l.642 1.821c.156.463.285.876.38 1.268h.017c.095-.38.229-.793.396-1.268l.67-1.821h.62l.234 3.764h-.475z"/><path clip-rule="evenodd" d="m5.804 60.249v-.516h1.648c1.384 0 2.546-.834 2.871-1.964l.936-.001c-.265 1.409-1.66 2.484-3.333 2.483zm0 .981v.516h1.648c1.384 0 2.546.836 2.871 1.964l.936.002c-.265-1.409-1.66-2.484-3.333-2.483zm0-.121v-.737h5.457v.737zm3.338-11.69-1.696.457 1.693.409zm.846 1.071 1.265.306v.845l-4.863-1.181c-.281-.073-.487-.304-.487-.576s.206-.503.487-.577l4.871-1.295-.008.839-1.263.339zm-.846 4.105-1.696.457 1.693.408zm.846 1.072 1.265.305v.845l-4.863-1.18c-.281-.074-.487-.304-.487-.577 0-.272.206-.503.487-.578l4.871-1.294-.008.839-1.263.34zm-.923-9.752c-.232-.535-.82-.913-1.508-.913-.892 0-1.615.636-1.615 1.421l-.004.55c-.002.51.303.805.915.805h4.377v-.805h-4.404v-.496c0-.378.348-.683.778-.683.383 0 .7.242.765.562.015.057.034.113.07.166.193.28.607.371.925.202l1.899-1.011v-.85l-2.055 1.099c-.045.024-.102.011-.129-.028-.005-.007-.007-.016-.01-.023zm-2.213 7.922h-.906v-2.809h.906v.999l4.41.003v.804h-4.406zm-.91-9.21v-.805h5.32v.805z" fill-rule="evenodd"/><path d="m15.577 144.567v-3.406h-.634v-.821h2.097v.821h-.67v3.406z"/><path d="m17.311 144.567v-3.174h.655v.444c.079-.16.163-.28.256-.362.095-.082.199-.131.316-.146v1.006c-.04-.009-.077-.019-.113-.024-.036-.006-.068-.007-.099-.007-.115 0-.193.05-.238.151-.046.101-.068.297-.068.59v1.523h-.709z"/><path d="m20.116 144.567-.042-.291c-.089.118-.187.205-.294.265s-.222.09-.346.09c-.199 0-.356-.08-.473-.243-.117-.16-.175-.379-.175-.653 0-.239.048-.437.149-.592.099-.157.26-.291.487-.403.054-.026.127-.06.22-.103.266-.121.399-.258.399-.409 0-.093-.02-.164-.058-.213s-.093-.073-.165-.073c-.087 0-.151.034-.191.097-.042.065-.062.166-.062.3v.022h-.713c0-.358.079-.625.24-.801.159-.174.403-.261.727-.261.147 0 .278.017.393.05.117.034.211.084.29.147.101.084.169.185.209.304s.06.336.06.651v.095 1.129c0 .248.008.439.022.569.014.131.036.237.068.319h-.745zm-.09-1.529c-.183.063-.316.144-.401.239s-.127.215-.127.356c0 .101.02.181.062.241.042.062.099.091.169.091.103 0 .179-.045.226-.132s.07-.235.07-.44v-.355z"/><path d="m23.067 140.34v4.227h-.653v-.349c-.068.144-.151.252-.248.327-.099.075-.205.114-.326.114-.099 0-.189-.022-.27-.069-.083-.045-.151-.108-.207-.19-.062-.099-.107-.23-.133-.396-.024-.166-.038-.476-.038-.931 0-.718.048-1.189.145-1.416.097-.226.272-.338.522-.338.107 0 .201.03.282.09.081.058.153.151.218.274v-1.342h.708zm-.925 1.732c-.089 0-.151.058-.183.174s-.05.369-.05.765c0 .412.016.668.046.771.032.101.089.151.169.151.095 0 .159-.062.195-.183.036-.123.054-.446.054-.968 0-.269-.018-.455-.052-.556-.034-.104-.094-.154-.179-.154z"/><path d="m24.688 143.453h.667v.08c0 .371-.079.649-.234.838-.155.187-.387.282-.695.282-.155 0-.296-.028-.423-.084-.127-.054-.224-.131-.294-.228-.081-.11-.137-.259-.169-.444-.034-.185-.052-.48-.052-.886 0-.448.018-.761.052-.939.034-.177.095-.323.177-.439.081-.108.183-.19.306-.244.125-.054.27-.082.433-.082.167 0 .312.03.433.09.123.06.222.147.298.265.064.099.111.216.139.353.028.138.042.371.042.704v.381h-1.158c-.002.009-.002.022-.002.035-.006.134-.01.228-.01.28 0 .224.02.379.058.467.038.086.103.129.195.129.081 0 .141-.032.183-.099.04-.067.06-.168.06-.304 0-.026-.002-.069-.006-.125 0-.014 0-.023 0-.03zm-.459-.904h.477c0-.004 0-.009 0-.017.006-.08.008-.136.008-.17 0-.155-.02-.271-.06-.343-.04-.075-.103-.112-.187-.112-.087 0-.149.035-.187.108-.036.073-.056.192-.056.358 0 .047.002.082.002.106-.001.027.001.05.003.07z"/><path d="m25.796 144.567v-3.174h.63v.375c.075-.151.161-.263.254-.334.095-.069.205-.105.332-.105.117 0 .218.037.302.112.083.075.149.185.193.327.077-.149.163-.261.26-.332.095-.071.205-.106.33-.106.189 0 .328.08.415.244.087.162.131.422.131.778v2.215h-.681v-2.012c0-.226-.012-.369-.038-.429-.024-.06-.07-.09-.133-.09-.077 0-.135.049-.179.146-.042.097-.064.231-.064.401v1.984h-.667v-2.012c0-.226-.012-.369-.038-.429-.024-.06-.068-.09-.133-.09-.077 0-.135.049-.177.146-.044.097-.066.231-.066.401v1.984z"/><path d="m30.325 144.567-.042-.291c-.089.118-.187.205-.294.265s-.222.09-.346.09c-.199 0-.356-.08-.473-.243-.117-.16-.175-.379-.175-.653 0-.239.048-.437.149-.592.099-.157.26-.291.487-.403.054-.026.127-.06.22-.103.266-.121.399-.258.399-.409 0-.093-.02-.164-.058-.213s-.093-.073-.165-.073c-.087 0-.151.034-.191.097-.042.065-.062.166-.062.3v.022h-.713c0-.358.079-.625.24-.801.159-.174.403-.261.727-.261.147 0 .278.017.393.05.117.034.211.084.29.147.101.084.169.185.209.304s.06.336.06.651v.095 1.129c0 .248.008.439.022.569s.036.237.068.319h-.745zm-.091-1.529c-.183.063-.316.144-.401.239s-.127.215-.127.356c0 .101.02.181.062.241.042.062.099.091.169.091.103 0 .179-.045.226-.132s.07-.235.07-.44v-.355z"/><path d="m31.431 144.567v-3.174h.655v.444c.079-.16.163-.28.256-.362.095-.082.199-.131.316-.146v1.006c-.04-.009-.077-.019-.113-.024s-.068-.007-.099-.007c-.115 0-.193.05-.238.151-.046.101-.068.297-.068.59v1.523h-.709z"/><path d="m33.008 144.567v-4.227h.697v2.092l.56-1.039h.713l-.743 1.213.757 1.961h-.713l-.457-1.293-.117.203v1.09z"/><path d="m36.228 144.567.739-4.227h.943l.731 4.227h-.792l-.101-.81h-.622l-.099.81zm.981-1.574h.455l-.228-1.844z"/><path d="m40.061 144.555c-.087.021-.161.035-.226.045-.064.011-.121.015-.165.015-.141 0-.262-.028-.361-.084s-.171-.138-.22-.244c-.03-.073-.052-.164-.064-.276-.012-.11-.018-.28-.018-.506v-.392-1.066h-.276v-.655h.276v-.879h.715v.879h.338v.655h-.338v1.295c0 .276.016.446.048.511.032.063.095.095.187.095.016 0 .042-.002.079-.007.01-.002.018-.004.024-.004v.618z"/><path d="m41.634 144.567-.042-.291c-.089.118-.187.205-.294.265s-.222.09-.346.09c-.199 0-.356-.08-.473-.243-.117-.16-.175-.379-.175-.653 0-.239.048-.437.149-.592.099-.157.26-.291.487-.403.054-.026.127-.06.22-.103.266-.121.399-.258.399-.409 0-.093-.02-.164-.058-.213s-.093-.073-.165-.073c-.087 0-.151.034-.191.097-.042.065-.062.166-.062.3v.022h-.713c0-.358.079-.625.24-.801.159-.174.403-.261.727-.261.147 0 .278.017.393.05.117.034.211.084.29.147.101.084.169.185.209.304s.06.336.06.651v.095 1.129c0 .248.008.439.022.569s.036.237.068.319h-.745zm-.091-1.529c-.183.063-.316.144-.401.239s-.127.215-.127.356c0 .101.02.181.062.241.042.062.099.091.169.091.103 0 .179-.045.226-.132s.07-.235.07-.44v-.355z"/><path d="m42.741 144.567v-3.174h.655v.444c.079-.16.163-.28.256-.362.095-.082.199-.131.316-.146v1.006c-.04-.009-.077-.019-.113-.024-.036-.006-.068-.007-.099-.007-.115 0-.193.05-.238.151-.046.101-.068.297-.068.59v1.523h-.709z"/><path d="m44.316 141.075v-.767h.707v.767zm0 3.492v-3.174h.707v3.174z"/><path d="m48.139 142.932h.779c.002.024.002.052.004.082v.131c0 .517-.091.899-.272 1.149s-.459.373-.832.373c-.222 0-.409-.045-.566-.136s-.284-.23-.381-.414c-.068-.132-.117-.315-.145-.549-.03-.235-.044-.606-.044-1.114 0-.509.014-.881.044-1.114.028-.235.077-.418.145-.55.095-.183.22-.319.377-.412.155-.091.34-.138.556-.138.371 0 .649.129.836.386.185.256.278.64.278 1.153v.041l-.771-.004c-.002-.286-.028-.489-.079-.605s-.133-.174-.25-.174c-.129 0-.215.071-.262.213-.048.142-.07.517-.07 1.123v.08c0 .653.022 1.052.07 1.2.046.147.133.22.262.22.119 0 .201-.052.25-.16.046-.106.07-.306.07-.595v-.186z"/><path d="m49.333 142.98c0-.618.073-1.052.213-1.301.143-.248.387-.373.733-.373s.59.123.733.369c.143.248.213.683.213 1.304 0 .618-.07 1.051-.213 1.299s-.387.373-.733.373c-.348 0-.592-.123-.733-.369-.142-.245-.213-.68-.213-1.302zm.723 0c0 .446.014.726.046.838.032.114.091.17.177.17s.145-.054.177-.162.048-.39.048-.845-.016-.737-.048-.847c-.032-.108-.091-.162-.177-.162s-.145.056-.177.17-.046.392-.046.838z"/><path d="m51.627 144.567v-3.174h.655v.444c.079-.16.163-.28.256-.362.095-.082.199-.131.316-.146v1.006c-.04-.009-.077-.019-.113-.024s-.068-.007-.099-.007c-.115 0-.193.05-.238.151-.046.101-.068.297-.068.59v1.523h-.709z"/><path d="m53.22 145.634v-4.242h.653v.358c.066-.142.149-.25.246-.323.099-.075.207-.11.326-.11.101 0 .191.022.274.065.083.045.151.106.205.187.062.099.107.231.133.397.024.164.038.476.038.931 0 .722-.048 1.196-.145 1.422-.095.224-.268.338-.518.338-.107 0-.201-.032-.284-.093s-.157-.153-.222-.278v1.347h-.706zm.925-1.732c.093 0 .155-.065.189-.198.034-.131.052-.437.052-.912 0-.287-.016-.485-.05-.592-.034-.105-.093-.159-.173-.159-.095 0-.159.062-.195.185-.036.121-.054.444-.054.968 0 .269.018.453.052.556.034.102.094.152.179.152z"/><path d="m55.444 142.98c0-.618.073-1.052.213-1.301.143-.248.387-.373.733-.373s.59.123.733.369c.143.248.213.683.213 1.304 0 .618-.07 1.051-.213 1.299s-.387.373-.733.373c-.348 0-.592-.123-.733-.369-.143-.245-.213-.68-.213-1.302zm.723 0c0 .446.014.726.046.838.032.114.091.17.177.17s.145-.054.177-.162.048-.39.048-.845-.016-.737-.048-.847c-.032-.108-.091-.162-.177-.162s-.145.056-.177.17c-.032.113-.046.392-.046.838z"/><path d="m57.736 144.567v-3.174h.655v.444c.079-.16.163-.28.256-.362.095-.082.199-.131.316-.146v1.006c-.04-.009-.077-.019-.113-.024-.036-.006-.068-.007-.099-.007-.115 0-.193.05-.238.151-.046.101-.068.297-.068.59v1.523h-.709z"/><path d="m60.543 144.567-.042-.291c-.089.118-.187.205-.294.265s-.222.09-.346.09c-.199 0-.356-.08-.473-.243-.117-.16-.175-.379-.175-.653 0-.239.048-.437.149-.592.099-.157.26-.291.487-.403.054-.026.127-.06.22-.103.266-.121.399-.258.399-.409 0-.093-.02-.164-.058-.213s-.093-.073-.165-.073c-.087 0-.151.034-.191.097-.042.065-.062.166-.062.3v.022h-.713c0-.358.079-.625.24-.801.159-.174.403-.261.727-.261.147 0 .278.017.393.05.117.034.211.084.29.147.101.084.169.185.209.304s.06.336.06.651v.095 1.129c0 .248.008.439.022.569.014.131.036.237.068.319h-.745zm-.091-1.529c-.183.063-.316.144-.401.239s-.127.215-.127.356c0 .101.02.181.062.241.042.062.099.091.169.091.103 0 .179-.045.226-.132s.07-.235.07-.44v-.355z"/><path d="m62.809 144.555c-.087.021-.161.035-.226.045-.064.011-.121.015-.165.015-.141 0-.262-.028-.361-.084s-.171-.138-.22-.244c-.03-.073-.052-.164-.064-.276-.012-.11-.018-.28-.018-.506v-.392-1.066h-.275v-.655h.276v-.879h.715v.879h.338v.655h-.339v1.295c0 .276.016.446.048.511.032.063.095.095.187.095.016 0 .042-.002.079-.007.01-.002.018-.004.024-.004v.618z"/><path d="m63.151 141.075v-.767h.707v.767zm0 3.492v-3.174h.707v3.174z"/><path d="m64.275 142.98c0-.618.073-1.052.213-1.301.143-.248.387-.373.733-.373s.59.123.733.369c.143.248.213.683.213 1.304 0 .618-.07 1.051-.213 1.299s-.387.373-.733.373c-.348 0-.592-.123-.733-.369-.143-.245-.213-.68-.213-1.302zm.723 0c0 .446.014.726.046.838.032.114.091.17.177.17s.145-.054.177-.162.048-.39.048-.845-.016-.737-.048-.847c-.032-.108-.091-.162-.177-.162s-.145.056-.177.17c-.032.113-.046.392-.046.838z"/><path d="m66.587 144.567v-3.174h.667v.375c.079-.149.167-.261.268-.332.099-.071.215-.106.348-.106.197 0 .34.082.431.244.093.164.137.424.137.778v2.215h-.707v-1.961c0-.256-.012-.414-.038-.476s-.075-.093-.141-.093c-.079 0-.141.049-.185.144-.046.097-.068.231-.068.403v1.984h-.712z"/><path d="m68.889 144.567v-.967h.781v.967z"/><path d="m71.266 143.133h.727v.125c0 .231.022.396.066.491.042.095.117.142.222.142.083 0 .149-.035.197-.108s.073-.17.073-.295c0-.205-.117-.401-.354-.59-.038-.034-.066-.058-.087-.075-.008-.006-.02-.015-.038-.03-.318-.267-.516-.468-.594-.605-.056-.101-.099-.216-.127-.345-.03-.127-.044-.267-.044-.42 0-.369.087-.659.258-.87s.407-.315.709-.315c.326 0 .576.103.749.31.171.207.258.506.258.898 0 .017 0 .039-.002.069-.002.028-.002.052-.002.067h-.711v-.05c0-.185-.024-.325-.07-.42-.044-.095-.113-.144-.199-.144-.077 0-.137.034-.181.101-.046.067-.068.155-.068.265 0 .179.129.369.387.571.048.037.083.067.109.088.02.013.048.037.087.067.276.22.453.405.532.554.048.097.085.207.111.332.026.123.038.258.038.401 0 .424-.087.748-.264.978-.175.228-.427.341-.755.341-.342 0-.6-.108-.773-.327-.171-.218-.258-.545-.258-.976 0-.028 0-.056 0-.086-.002-.03 0-.076.004-.144z"/><path d="m73.632 142.98c0-.618.073-1.052.213-1.301.143-.248.387-.373.733-.373s.59.123.733.369c.143.248.213.683.213 1.304 0 .618-.07 1.051-.213 1.299s-.387.373-.733.373c-.348 0-.592-.123-.733-.369-.143-.245-.213-.68-.213-1.302zm.723 0c0 .446.014.726.046.838.032.114.091.17.177.17s.145-.054.177-.162.048-.39.048-.845-.016-.737-.048-.847c-.032-.108-.091-.162-.177-.162s-.145.056-.177.17-.046.392-.046.838z"/><path d="m76.061 144.567v-2.501h-.288v-.674h.288c0-.021 0-.049-.002-.084-.002-.034-.002-.058-.002-.073 0-.334.056-.569.171-.705.113-.138.306-.207.582-.207.04 0 .083.002.129.006.044.002.091.006.139.011v.64c-.01-.002-.022-.004-.032-.004-.012-.002-.03-.002-.052-.002-.081 0-.139.024-.173.071-.034.049-.052.127-.052.239v.063c.002.015.004.03.006.045h.306v.674h-.306v2.501z"/><path d="m78.647 144.555c-.087.021-.161.035-.226.045-.064.011-.121.015-.165.015-.141 0-.262-.028-.361-.084s-.171-.138-.22-.244c-.03-.073-.052-.164-.064-.276-.012-.11-.018-.28-.018-.506v-.392-1.066h-.276v-.655h.276v-.879h.715v.879h.338v.655h-.338v1.295c0 .276.016.446.048.511.032.063.095.095.187.095.016 0 .042-.002.079-.007.01-.002.018-.004.024-.004v.618z"/><path d="m79.281 144.567-.491-3.174h.691l.197 2.208.272-2.208h.594l.266 2.208.201-2.208h.689l-.495 3.174h-.739l-.224-1.748-.22 1.748z"/><path d="m83.19 144.567-.042-.291c-.089.118-.187.205-.294.265s-.222.09-.346.09c-.199 0-.356-.08-.473-.243-.117-.16-.175-.379-.175-.653 0-.239.048-.437.149-.592.099-.157.26-.291.487-.403.054-.026.127-.06.22-.103.266-.121.399-.258.399-.409 0-.093-.02-.164-.058-.213s-.093-.073-.165-.073c-.087 0-.151.034-.191.097-.042.065-.062.166-.062.3v.022h-.713c0-.358.079-.625.24-.801.159-.174.403-.261.727-.261.147 0 .278.017.393.05.117.034.211.084.29.147.101.084.169.185.209.304s.06.336.06.651v.095 1.129c0 .248.008.439.022.569s.036.237.068.319h-.745zm-.09-1.529c-.183.063-.316.144-.401.239s-.127.215-.127.356c0 .101.02.181.062.241.042.062.099.091.169.091.103 0 .179-.045.226-.132.046-.088.07-.235.07-.44v-.355z"/><path d="m84.298 144.567v-3.174h.655v.444c.079-.16.163-.28.256-.362.095-.082.199-.131.316-.146v1.006c-.04-.009-.077-.019-.113-.024-.036-.006-.068-.007-.099-.007-.115 0-.193.05-.238.151-.046.101-.068.297-.068.59v1.523h-.709z"/><path d="m87.009 143.453h.667v.08c0 .371-.079.649-.234.838-.155.187-.387.282-.695.282-.155 0-.296-.028-.423-.084-.127-.054-.224-.131-.294-.228-.081-.11-.137-.259-.169-.444-.034-.185-.052-.48-.052-.886 0-.448.018-.761.052-.939.034-.177.095-.323.177-.439.081-.108.183-.19.306-.244.125-.054.27-.082.433-.082.167 0 .312.03.433.09.123.06.222.147.298.265.064.099.111.216.139.353.028.138.042.371.042.704v.381h-1.158c-.002.009-.002.022-.002.035-.006.134-.01.228-.01.28 0 .224.02.379.058.467.038.086.103.129.195.129.081 0 .141-.032.183-.099.04-.067.06-.168.06-.304 0-.026-.002-.069-.006-.125 0-.014 0-.023 0-.03zm-.459-.904h.477c0-.004 0-.009 0-.017.006-.08.008-.136.008-.17 0-.155-.02-.271-.06-.343-.04-.075-.103-.112-.187-.112-.087 0-.149.035-.187.108-.036.073-.056.192-.056.358 0 .047.002.082.002.106-.001.027.001.05.003.07z"/><path d="m90.96 140.469c.228 0 .443.052.644.155s.381.252.538.446c.151.192.27.416.352.668.083.252.125.517.125.795 0 .282-.04.547-.123.793-.081.244-.199.463-.354.651-.163.198-.346.349-.55.457-.203.106-.415.16-.632.16-.218 0-.425-.052-.624-.157-.197-.105-.377-.256-.536-.455-.159-.196-.28-.418-.363-.668-.085-.248-.127-.509-.127-.782 0-.276.042-.539.127-.793.085-.252.207-.48.367-.679.151-.192.326-.34.524-.44.197-.101.409-.151.632-.151zm1.32 2.064c0-.22-.032-.429-.099-.629-.064-.2-.159-.375-.282-.528-.129-.16-.272-.28-.429-.362-.157-.08-.326-.121-.504-.121-.181 0-.35.039-.508.119-.155.078-.296.196-.417.353-.127.159-.224.338-.29.539-.068.202-.101.411-.101.629 0 .216.032.425.099.623.068.198.163.375.288.53.125.157.268.278.427.36.157.084.324.125.501.125.173 0 .34-.041.501-.125s.306-.207.435-.366c.125-.151.218-.325.282-.519.066-.196.097-.405.097-.628zm-1.024-.39c-.004-.114-.032-.205-.083-.271-.05-.065-.119-.099-.203-.099-.107 0-.191.065-.252.196s-.091.315-.091.552c0 .241.03.42.091.539.058.121.149.181.268.181.089 0 .155-.034.203-.101.046-.067.073-.164.077-.293l.546-.002c-.01.272-.089.489-.24.651s-.35.243-.598.243c-.286 0-.51-.104-.675-.317-.163-.213-.244-.506-.244-.879 0-.366.081-.661.244-.888.163-.226.375-.338.634-.338.258 0 .463.073.612.218.151.146.232.347.244.606h-.533z"/><path d="m95.019 144.567v-2.917h-.677v-.646h.038c.244 0 .437-.058.582-.172.147-.116.244-.289.292-.519h.522v4.253h-.757z"/><path d="m97.885 142.973c-.085.065-.167.114-.25.146s-.167.049-.254.049c-.25 0-.435-.108-.558-.327-.121-.218-.183-.549-.183-.993 0-.517.083-.901.248-1.155s.417-.379.755-.379c.161 0 .306.028.431.088.127.058.234.147.324.265.099.132.169.313.209.547.04.231.06.64.06 1.224 0 .509-.012.875-.032 1.094-.022.218-.056.396-.107.53-.07.19-.183.338-.338.439-.157.101-.346.153-.568.153-.298 0-.53-.095-.693-.286s-.246-.461-.246-.814l.723.004c.002.131.022.231.06.297.038.067.095.101.167.101.093 0 .159-.05.197-.153.036-.101.056-.278.056-.534 0-.077 0-.136-.002-.179.003-.044.001-.083.001-.117zm.018-1.239c0-.254-.022-.433-.062-.539-.04-.104-.109-.157-.205-.157-.085 0-.145.052-.179.155-.036.103-.054.289-.054.558 0 .258.02.44.058.545.038.104.103.159.195.159s.157-.049.193-.146.054-.29.054-.575z"/><path d="m100.301 142.973c-.085.065-.167.114-.25.146s-.167.049-.254.049c-.25 0-.435-.108-.558-.327-.121-.218-.183-.549-.183-.993 0-.517.083-.901.248-1.155s.417-.379.755-.379c.161 0 .306.028.431.088.127.058.234.147.324.265.099.132.169.313.209.547.04.231.06.64.06 1.224 0 .509-.012.875-.032 1.094-.022.218-.056.396-.107.53-.07.19-.183.338-.338.439-.157.101-.346.153-.568.153-.298 0-.53-.095-.693-.286s-.246-.461-.246-.814l.723.004c.002.131.022.231.06.297.038.067.095.101.167.101.093 0 .159-.05.197-.153.036-.101.056-.278.056-.534 0-.077 0-.136-.002-.179.003-.044.001-.083.001-.117zm.018-1.239c0-.254-.022-.433-.062-.539-.04-.104-.109-.157-.205-.157-.085 0-.145.052-.179.155-.036.103-.054.289-.054.558 0 .258.02.44.058.545.038.104.103.159.195.159s.157-.049.193-.146.054-.29.054-.575z"/><path d="m101.479 142.48c0-.526.012-.905.036-1.135.026-.23.068-.403.131-.522.085-.164.201-.291.348-.379.149-.088.318-.131.512-.131s.365.043.512.132c.149.088.266.216.348.383.06.121.103.289.129.506.026.218.038.537.038.963 0 .461-.006.806-.018 1.036s-.034.418-.062.564c-.044.226-.153.407-.328.547-.173.138-.379.209-.618.209-.197 0-.371-.047-.522-.138-.149-.091-.268-.224-.352-.397-.056-.112-.095-.286-.119-.522-.024-.237-.035-.608-.035-1.116zm.762 0v.312c0 .481.018.787.056.914.036.127.107.19.209.19.101 0 .171-.063.209-.19s.056-.433.056-.914v-.312-.375c0-.452-.018-.739-.056-.862s-.109-.183-.209-.183c-.103 0-.173.063-.209.19-.038.127-.056.435-.056.924z"/><path d="m103.935 144.567v-.967h.777v.763c0 .368-.06.636-.179.802-.119.168-.318.263-.594.286v-.343c.137-.015.242-.069.312-.16.068-.091.105-.218.105-.381z"/><path d="m106.166 144.567.739-4.227h.943l.731 4.227h-.792l-.101-.81h-.622l-.099.81zm.981-1.574h.455l-.228-1.844z"/><path d="m109.997 144.555c-.087.021-.161.035-.226.045-.064.011-.121.015-.165.015-.141 0-.262-.028-.361-.084s-.171-.138-.22-.244c-.03-.073-.052-.164-.064-.276-.012-.11-.018-.28-.018-.506v-.392-1.066h-.276v-.655h.276v-.879h.715v.879h.338v.655h-.338v1.295c0 .276.016.446.048.511.032.063.095.095.187.095.016 0 .042-.002.079-.007.01-.002.018-.004.024-.004v.618z"/><path d="m111.572 144.567-.042-.291c-.089.118-.187.205-.294.265s-.222.09-.346.09c-.199 0-.356-.08-.473-.243-.117-.16-.175-.379-.175-.653 0-.239.048-.437.149-.592.099-.157.26-.291.487-.403.054-.026.127-.06.22-.103.266-.121.399-.258.399-.409 0-.093-.02-.164-.058-.213s-.093-.073-.165-.073c-.087 0-.151.034-.191.097-.042.065-.062.166-.062.3v.022h-.713c0-.358.079-.625.24-.801.159-.174.403-.261.727-.261.147 0 .278.017.393.05.117.034.211.084.29.147.101.084.169.185.209.304s.06.336.06.651v.095 1.129c0 .248.008.439.022.569s.036.237.068.319h-.745zm-.091-1.529c-.183.063-.316.144-.401.239s-.127.215-.127.356c0 .101.02.181.062.241.042.062.099.091.169.091.103 0 .179-.045.226-.132.046-.088.07-.235.07-.44v-.355z"/><path d="m112.677 144.567v-3.174h.655v.444c.079-.16.163-.28.256-.362.095-.082.199-.131.316-.146v1.006c-.04-.009-.077-.019-.113-.024-.036-.006-.068-.007-.099-.007-.115 0-.193.05-.238.151-.046.101-.068.297-.068.59v1.523h-.709z"/><path d="m114.252 141.075v-.767h.707v.767zm0 3.492v-3.174h.707v3.174z"/><path d="m118.768 142.251v2.316h-.546l-.034-.263c-.081.114-.167.198-.264.254s-.205.084-.326.084c-.139 0-.266-.032-.383-.097-.117-.063-.218-.157-.304-.276-.107-.149-.183-.349-.228-.599-.042-.25-.064-.676-.064-1.273 0-.427.014-.767.046-1.024.03-.256.079-.448.143-.577.093-.185.218-.323.373-.416s.338-.14.552-.14c.332 0 .584.112.751.34.169.226.254.562.254 1.01 0 .017 0 .043-.002.077s-.002.06-.002.08h-.753v-.052c0-.243-.02-.416-.062-.521s-.111-.157-.203-.157c-.113 0-.189.063-.23.192-.042.129-.062.427-.062.898v.416.291c0 .47.018.767.058.89.04.121.113.183.22.183s.185-.054.234-.16c.048-.108.073-.284.073-.524 0-.056 0-.097 0-.127-.002-.03-.002-.058-.004-.086h-.31v-.737h1.073z"/><path d="m120.48 144.567-.042-.291c-.089.118-.187.205-.294.265s-.222.09-.346.09c-.199 0-.356-.08-.473-.243-.117-.16-.175-.379-.175-.653 0-.239.048-.437.149-.592.099-.157.26-.291.487-.403.054-.026.127-.06.22-.103.266-.121.399-.258.399-.409 0-.093-.02-.164-.058-.213s-.093-.073-.165-.073c-.087 0-.151.034-.191.097-.042.065-.062.166-.062.3v.022h-.713c0-.358.079-.625.24-.801.159-.174.403-.261.727-.261.147 0 .278.017.393.05.117.034.211.084.29.147.101.084.169.185.209.304s.06.336.06.651v.095 1.129c0 .248.008.439.022.569.014.131.036.237.068.319h-.745zm-.091-1.529c-.183.063-.316.144-.401.239s-.127.215-.127.356c0 .101.02.181.062.241.042.062.099.091.169.091.103 0 .179-.045.226-.132.046-.088.07-.235.07-.44v-.355z"/><path d="m121.601 144.567v-3.174h.63v.375c.075-.151.161-.263.254-.334.095-.069.205-.105.332-.105.117 0 .218.037.302.112.083.075.149.185.193.327.077-.149.163-.261.26-.332.095-.071.205-.106.33-.106.189 0 .328.08.415.244.087.162.131.422.131.778v2.215h-.681v-2.012c0-.226-.012-.369-.038-.429-.024-.06-.07-.09-.133-.09-.077 0-.135.049-.179.146-.042.097-.064.231-.064.401v1.984h-.667v-2.012c0-.226-.012-.369-.038-.429-.024-.06-.068-.09-.133-.09-.077 0-.135.049-.177.146-.044.097-.066.231-.066.401v1.984z"/><path d="m126.036 143.453h.667v.08c0 .371-.079.649-.234.838-.155.187-.387.282-.695.282-.155 0-.296-.028-.423-.084-.127-.054-.224-.131-.294-.228-.081-.11-.137-.259-.169-.444-.034-.185-.052-.48-.052-.886 0-.448.018-.761.052-.939.034-.177.095-.323.177-.439.081-.108.183-.19.306-.244.125-.054.27-.082.433-.082.167 0 .312.03.433.09.123.06.222.147.298.265.064.099.111.216.139.353.028.138.042.371.042.704v.381h-1.158c-.002.009-.002.022-.002.035-.006.134-.01.228-.01.28 0 .224.02.379.058.467.038.086.103.129.195.129.081 0 .141-.032.183-.099.04-.067.06-.168.06-.304 0-.026-.002-.069-.006-.125 0-.014 0-.023 0-.03zm-.459-.904h.477c0-.004 0-.009 0-.017.006-.08.008-.136.008-.17 0-.155-.02-.271-.06-.343-.04-.075-.103-.112-.187-.112-.087 0-.149.035-.187.108-.036.073-.056.192-.056.358 0 .047.002.082.002.106-.001.027.001.05.003.07z"/><path d="m126.991 143.559.634.004c.008.164.034.284.079.36.042.077.109.114.197.114.07 0 .129-.026.173-.078.046-.052.068-.119.068-.202 0-.071-.016-.131-.046-.177-.032-.047-.103-.101-.211-.166-.022-.013-.06-.035-.109-.065-.258-.147-.437-.287-.538-.416-.073-.09-.127-.19-.165-.308s-.056-.241-.056-.368c0-.289.079-.521.236-.692.157-.172.371-.258.64-.258.278 0 .493.082.642.248.151.166.226.403.226.713v.058l-.622-.004c-.002-.159-.022-.272-.058-.34-.036-.069-.095-.103-.175-.103-.073 0-.129.024-.171.073s-.064.112-.064.19c0 .14.107.269.32.384.028.017.052.03.068.039.29.162.483.321.582.474.099.155.147.356.147.605 0 .319-.079.567-.238.743-.157.177-.385.265-.677.265-.28 0-.495-.09-.651-.267s-.232-.425-.232-.746v-.08z"/><path d="m131.754 142.932h.779c.002.024.002.052.004.082v.131c0 .517-.091.899-.272 1.149s-.459.373-.832.373c-.222 0-.409-.045-.566-.136s-.284-.23-.381-.414c-.068-.132-.117-.315-.145-.549-.03-.235-.044-.606-.044-1.114 0-.509.014-.881.044-1.114.028-.235.077-.418.145-.55.095-.183.22-.319.377-.412.155-.091.34-.138.556-.138.371 0 .649.129.836.386.185.256.278.64.278 1.153v.041l-.771-.004c-.002-.286-.028-.489-.079-.605s-.133-.174-.25-.174c-.129 0-.215.071-.262.213-.048.142-.07.517-.07 1.123v.08c0 .653.022 1.052.07 1.2.046.147.133.22.262.22.119 0 .201-.052.25-.16.046-.106.07-.306.07-.595v-.186z"/><path d="m132.95 142.98c0-.618.073-1.052.213-1.301.143-.248.387-.373.733-.373s.59.123.733.369c.143.248.213.683.213 1.304 0 .618-.07 1.051-.213 1.299s-.387.373-.733.373c-.348 0-.592-.123-.733-.369-.142-.245-.213-.68-.213-1.302zm.723 0c0 .446.014.726.046.838.032.114.091.17.177.17.087 0 .145-.054.177-.162s.048-.39.048-.845-.016-.737-.048-.847c-.032-.108-.091-.162-.177-.162-.087 0-.145.056-.177.17s-.046.392-.046.838z"/><path d="m135.242 144.567v-3.174h.655v.444c.079-.16.163-.28.256-.362.095-.082.199-.131.316-.146v1.006c-.04-.009-.077-.019-.113-.024s-.068-.007-.099-.007c-.115 0-.193.05-.238.151-.046.101-.068.297-.068.59v1.523h-.709z"/><path d="m136.837 145.634v-4.242h.653v.358c.066-.142.149-.25.246-.323.099-.075.207-.11.326-.11.101 0 .191.022.274.065.083.045.151.106.205.187.062.099.107.231.133.397.024.164.038.476.038.931 0 .722-.048 1.196-.145 1.422-.095.224-.268.338-.518.338-.107 0-.201-.032-.284-.093-.083-.062-.157-.153-.222-.278v1.347h-.706zm.925-1.732c.093 0 .155-.065.189-.198.034-.131.052-.437.052-.912 0-.287-.016-.485-.05-.592-.034-.105-.093-.159-.173-.159-.095 0-.159.062-.195.185-.036.121-.054.444-.054.968 0 .269.018.453.052.556.034.102.094.152.179.152z"/><path d="m139.059 142.98c0-.618.073-1.052.213-1.301.143-.248.387-.373.733-.373s.59.123.733.369c.143.248.213.683.213 1.304 0 .618-.07 1.051-.213 1.299s-.387.373-.733.373c-.348 0-.592-.123-.733-.369-.143-.245-.213-.68-.213-1.302zm.723 0c0 .446.014.726.046.838.032.114.091.17.177.17.087 0 .145-.054.177-.162s.048-.39.048-.845-.016-.737-.048-.847c-.032-.108-.091-.162-.177-.162-.087 0-.145.056-.177.17s-.046.392-.046.838z"/><path d="m141.351 144.567v-3.174h.655v.444c.079-.16.163-.28.256-.362.095-.082.199-.131.316-.146v1.006c-.04-.009-.077-.019-.113-.024s-.068-.007-.099-.007c-.115 0-.193.05-.238.151-.046.101-.068.297-.068.59v1.523h-.709z"/><path d="m144.158 144.567-.042-.291c-.089.118-.187.205-.294.265s-.222.09-.346.09c-.199 0-.356-.08-.473-.243-.117-.16-.175-.379-.175-.653 0-.239.048-.437.149-.592.099-.157.26-.291.487-.403.054-.026.127-.06.22-.103.266-.121.399-.258.399-.409 0-.093-.02-.164-.058-.213s-.093-.073-.165-.073c-.087 0-.151.034-.191.097-.042.065-.062.166-.062.3v.022h-.713c0-.358.079-.625.24-.801.159-.174.403-.261.727-.261.147 0 .278.017.393.05.117.034.211.084.29.147.101.084.169.185.209.304s.06.336.06.651v.095 1.129c0 .248.008.439.022.569s.036.237.068.319h-.745zm-.091-1.529c-.183.063-.316.144-.401.239s-.127.215-.127.356c0 .101.02.181.062.241.042.062.099.091.169.091.103 0 .179-.045.226-.132.046-.088.07-.235.07-.44v-.355z"/><path d="m146.424 144.555c-.087.021-.161.035-.226.045-.064.011-.121.015-.165.015-.141 0-.262-.028-.361-.084s-.171-.138-.22-.244c-.03-.073-.052-.164-.064-.276-.012-.11-.018-.28-.018-.506v-.392-1.066h-.276v-.655h.276v-.879h.715v.879h.338v.655h-.338v1.295c0 .276.016.446.048.511.032.063.095.095.187.095.016 0 .042-.002.079-.007.01-.002.018-.004.024-.004v.618z"/><path d="m146.768 141.075v-.767h.707v.767zm0 3.492v-3.174h.707v3.174z"/><path d="m147.89 142.98c0-.618.072-1.052.213-1.301.143-.248.387-.373.733-.373s.59.123.733.369c.143.248.213.683.213 1.304 0 .618-.07 1.051-.213 1.299s-.387.373-.733.373c-.348 0-.592-.123-.733-.369-.143-.245-.213-.68-.213-1.302zm.723 0c0 .446.014.726.046.838.032.114.091.17.177.17.087 0 .145-.054.177-.162s.048-.39.048-.845-.016-.737-.048-.847c-.032-.108-.091-.162-.177-.162-.087 0-.145.056-.177.17-.032.113-.046.392-.046.838z"/><path d="m150.202 144.567v-3.174h.667v.375c.079-.149.167-.261.268-.332.099-.071.215-.106.348-.106.197 0 .34.082.431.244.093.164.137.424.137.778v2.215h-.707v-1.961c0-.256-.012-.414-.038-.476s-.075-.093-.141-.093c-.079 0-.141.049-.185.144-.046.097-.068.231-.068.403v1.984h-.712z"/><path d="m14.942 150.659.739-4.227h.943l.731 4.227h-.792l-.101-.81h-.622l-.099.81zm.981-1.573h.455l-.228-1.844z"/><path d="m18.336 150.659h-.707v-4.227h.707z"/><path d="m19.528 150.659h-.707v-4.227h.707z"/><path d="m21.204 150.659v-3.174h.655v.444c.079-.16.163-.28.256-.362.095-.082.199-.131.316-.146v1.006c-.04-.009-.077-.019-.113-.024-.036-.006-.068-.007-.099-.007-.115 0-.193.05-.238.151-.046.101-.068.297-.068.59v1.523h-.709z"/><path d="m22.779 147.168v-.767h.707v.767zm0 3.491v-3.174h.707v3.174z"/><path d="m25.771 147.485v2.842c0 .291-.012.506-.038.646-.024.14-.066.259-.125.356-.083.131-.191.231-.328.297-.137.067-.302.101-.497.101-.296 0-.518-.077-.665-.228-.145-.151-.218-.384-.218-.7h.703c0 .119.016.205.05.261.036.054.089.082.163.082.091 0 .153-.037.189-.108.034-.073.052-.215.052-.424v-.373c-.095.104-.183.183-.268.231-.085.049-.169.073-.258.073-.123 0-.234-.043-.328-.125-.095-.084-.169-.203-.222-.358-.028-.082-.048-.202-.062-.355-.012-.155-.02-.355-.02-.601 0-.235.006-.446.014-.631.01-.185.022-.334.038-.45.028-.177.097-.325.201-.44.107-.114.23-.172.367-.172.113 0 .22.034.316.105.099.069.193.177.286.323v-.353h.65zm-1.156 1.168v.231c0 .414.016.679.048.791.03.112.089.168.171.168.083 0 .141-.049.173-.149.034-.099.05-.31.05-.633v-.129c0-.343-.016-.56-.048-.651-.03-.09-.089-.134-.171-.134-.077 0-.133.041-.169.119-.035.081-.054.21-.054.387z"/><path d="m26.247 150.659v-4.227h.709v1.388c.06-.132.139-.233.234-.3.095-.065.207-.099.338-.099.197 0 .34.082.433.244.091.164.135.424.135.778v2.215h-.705v-1.961c0-.256-.014-.414-.04-.476s-.075-.093-.141-.093c-.079 0-.141.049-.185.144-.046.097-.068.231-.068.403v1.984z"/><path d="m29.683 150.648c-.087.021-.161.035-.226.045-.064.011-.121.015-.165.015-.141 0-.262-.028-.361-.084s-.171-.138-.22-.244c-.03-.073-.052-.164-.064-.276-.012-.11-.018-.28-.018-.506v-.392-1.066h-.276v-.655h.276v-.879h.715v.879h.338v.655h-.338v1.295c0 .276.016.446.048.511.032.063.095.095.187.095.016 0 .042-.002.079-.007.01-.002.018-.004.024-.004v.618z"/><path d="m29.872 149.652.634.004c.008.164.034.284.079.36.042.077.109.114.197.114.07 0 .129-.026.173-.078.046-.052.068-.119.068-.202 0-.071-.016-.131-.046-.177-.032-.047-.103-.101-.211-.166-.022-.013-.06-.035-.109-.065-.258-.147-.437-.287-.538-.416-.073-.09-.127-.19-.165-.308s-.056-.241-.056-.368c0-.289.079-.521.236-.692.157-.172.371-.258.64-.258.278 0 .493.082.642.248.151.166.226.403.226.713v.058l-.622-.004c-.002-.159-.022-.272-.058-.34-.036-.069-.095-.103-.175-.103-.073 0-.129.024-.171.073s-.064.112-.064.19c0 .14.107.269.32.384.028.017.052.03.068.039.29.162.483.321.582.474.099.155.147.356.147.605 0 .319-.079.567-.238.743-.157.177-.385.265-.677.265-.28 0-.495-.09-.651-.267-.155-.177-.232-.425-.232-.746v-.08z"/><path d="m33.197 150.659v-3.174h.655v.444c.079-.16.163-.28.256-.362.095-.082.199-.131.316-.146v1.006c-.04-.009-.077-.019-.113-.024-.036-.006-.068-.007-.099-.007-.115 0-.193.05-.238.151-.046.101-.068.297-.068.59v1.523h-.709z"/><path d="m35.908 149.545h.667v.08c0 .371-.079.649-.234.838-.155.187-.387.282-.695.282-.155 0-.296-.028-.423-.084-.127-.054-.224-.131-.294-.228-.081-.11-.137-.259-.169-.444-.034-.185-.052-.48-.052-.886 0-.448.018-.761.052-.939.034-.177.095-.323.177-.439.081-.108.183-.19.306-.244.125-.054.27-.082.433-.082.167 0 .312.03.433.09.123.06.222.147.298.265.064.099.111.216.139.353.028.138.042.371.042.704v.381h-1.158c-.002.009-.002.022-.002.035-.006.134-.01.228-.01.28 0 .224.02.379.058.467.038.086.103.129.195.129.081 0 .141-.032.183-.099.04-.067.06-.168.06-.304 0-.026-.002-.069-.006-.125 0-.013 0-.022 0-.03zm-.459-.903h.477c0-.004 0-.009 0-.017.006-.08.008-.136.008-.17 0-.155-.02-.271-.06-.343-.04-.075-.103-.112-.187-.112-.087 0-.149.035-.187.108-.036.073-.056.192-.056.358 0 .047.002.082.002.106-.001.027.001.05.003.07z"/><path d="m36.865 149.652.634.004c.008.164.034.284.079.36.042.077.109.114.197.114.07 0 .129-.026.173-.078.046-.052.068-.119.068-.202 0-.071-.016-.131-.046-.177-.032-.047-.103-.101-.211-.166-.022-.013-.06-.035-.109-.065-.258-.147-.437-.287-.538-.416-.073-.09-.127-.19-.165-.308s-.056-.241-.056-.368c0-.289.079-.521.236-.692.157-.172.371-.258.64-.258.278 0 .493.082.642.248.151.166.226.403.226.713v.058l-.622-.004c-.002-.159-.022-.272-.058-.34-.036-.069-.095-.103-.175-.103-.073 0-.129.024-.171.073s-.064.112-.064.19c0 .14.107.269.32.384.028.017.052.03.068.039.29.162.483.321.582.474.099.155.147.356.147.605 0 .319-.079.567-.238.743-.157.177-.385.265-.677.265-.28 0-.495-.09-.651-.267-.155-.177-.232-.425-.232-.746v-.08z"/><path d="m40.131 149.545h.667v.08c0 .371-.079.649-.234.838-.155.187-.387.282-.695.282-.155 0-.296-.028-.423-.084-.127-.054-.224-.131-.294-.228-.081-.11-.137-.259-.169-.444-.034-.185-.052-.48-.052-.886 0-.448.018-.761.052-.939.034-.177.095-.323.177-.439.081-.108.183-.19.306-.244.125-.054.27-.082.433-.082.167 0 .312.03.433.09.123.06.222.147.298.265.064.099.111.216.139.353.028.138.042.371.042.704v.381h-1.158c-.002.009-.002.022-.002.035-.006.134-.01.228-.01.28 0 .224.02.379.058.467.038.086.103.129.195.129.081 0 .141-.032.183-.099.04-.067.06-.168.06-.304 0-.026-.002-.069-.006-.125 0-.013 0-.022 0-.03zm-.459-.903h.477c0-.004 0-.009 0-.017.006-.08.008-.136.008-.17 0-.155-.02-.271-.06-.343-.04-.075-.103-.112-.187-.112-.087 0-.149.035-.187.108-.036.073-.056.192-.056.358 0 .047.002.082.002.106-.001.027.001.05.003.07z"/><path d="m41.225 150.659v-3.174h.655v.444c.079-.16.163-.28.256-.362.095-.082.199-.131.316-.146v1.006c-.04-.009-.077-.019-.113-.024-.036-.006-.068-.007-.099-.007-.115 0-.193.05-.238.151-.046.101-.068.297-.068.59v1.523h-.709z"/><path d="m43.231 150.659-.56-3.174h.713l.25 2.155.246-2.155h.709l-.564 3.174z"/><path d="m45.994 149.545h.667v.08c0 .371-.079.649-.234.838-.155.187-.387.282-.695.282-.155 0-.296-.028-.423-.084-.127-.054-.224-.131-.294-.228-.081-.11-.137-.259-.169-.444-.034-.185-.052-.48-.052-.886 0-.448.018-.761.052-.939.034-.177.095-.323.177-.439.081-.108.183-.19.306-.244.125-.054.27-.082.433-.082.167 0 .312.03.433.09.123.06.222.147.298.265.064.099.111.216.139.353.028.138.042.371.042.704v.381h-1.158c-.002.009-.002.022-.002.035-.006.134-.01.228-.01.28 0 .224.02.379.058.467.038.086.103.129.195.129.081 0 .141-.032.183-.099.04-.067.06-.168.06-.304 0-.026-.002-.069-.006-.125 0-.013 0-.022 0-.03zm-.459-.903h.477c0-.004 0-.009 0-.017.006-.08.008-.136.008-.17 0-.155-.02-.271-.06-.343-.04-.075-.103-.112-.187-.112-.087 0-.149.035-.187.108-.036.073-.056.192-.056.358 0 .047.002.082.002.106-.001.027.001.05.003.07z"/><path d="m48.932 146.433v4.227h-.652v-.349c-.068.144-.151.252-.248.327-.099.075-.205.114-.326.114-.099 0-.189-.022-.27-.069-.083-.045-.151-.108-.207-.19-.062-.099-.107-.23-.133-.396-.024-.166-.038-.476-.038-.931 0-.718.048-1.189.145-1.416.097-.226.272-.338.522-.338.107 0 .201.03.282.09.081.058.153.151.218.274v-1.342h.707zm-.924 1.731c-.089 0-.151.058-.183.174s-.05.369-.05.765c0 .412.016.668.046.771.032.101.089.151.169.151.095 0 .159-.062.195-.183.036-.123.054-.446.054-.968 0-.269-.018-.455-.052-.556-.034-.103-.094-.154-.179-.154z"/><path d="m49.392 150.659v-.967h.781v.967z"/></g></svg>