<svg enable-background="new 0 0 627.841 107.698" viewBox="0 0 627.841 107.698" xmlns="http://www.w3.org/2000/svg" xmlns:xlink="http://www.w3.org/1999/xlink"><linearGradient id="a" gradientUnits="userSpaceOnUse" x1="313.9207" x2="313.9207" y1="3.3905" y2="104.3078"><stop offset="0" stop-color="#87868a"/><stop offset="1" stop-color="#323131"/></linearGradient><linearGradient id="b" gradientUnits="userSpaceOnUse" x1="303.042" x2="324.7993" y1="-34.7503" y2="142.4487"><stop offset=".35" stop-color="#aeadb3"/><stop offset=".57"/></linearGradient><linearGradient id="c" gradientUnits="userSpaceOnUse" x1="458.3051" x2="461.9661" y1="74.2829" y2="87.0504"><stop offset=".86" stop-color="#af0e16"/><stop offset="1" stop-color="#fff"/></linearGradient><linearGradient id="d" gradientUnits="userSpaceOnUse" x1="484.0514" x2="511.3968" y1="1.637" y2="72.8742"><stop offset=".97" stop-color="#af0e16"/><stop offset="1" stop-color="#fff"/></linearGradient><linearGradient id="e"><stop offset="0" stop-color="#f6de00"/><stop offset=".1304" stop-color="#f5db00"/><stop offset=".2655" stop-color="#f1d300"/><stop offset=".4029" stop-color="#ebc400"/><stop offset=".5419" stop-color="#e3ae00"/><stop offset=".682" stop-color="#d99300"/><stop offset=".8211" stop-color="#d07500"/><stop offset=".95" stop-color="#c64c0c"/></linearGradient><linearGradient id="f" gradientUnits="userSpaceOnUse" x1="21.1517" x2="63.6773" xlink:href="#e" y1="23.3762" y2="59.0594"/><linearGradient id="g" gradientUnits="userSpaceOnUse" x1="67.7724" x2="81.6757" y1="59.3882" y2="99.7662"><stop offset=".299" stop-color="#f6de00"/><stop offset=".3952" stop-color="#f5db00"/><stop offset=".4949" stop-color="#f1d300"/><stop offset=".5963" stop-color="#ebc400"/><stop offset=".6988" stop-color="#e3ae00"/><stop offset=".8023" stop-color="#d99300"/><stop offset=".9049" stop-color="#d07500"/><stop offset="1" stop-color="#c64c0c"/></linearGradient><linearGradient id="h" gradientUnits="userSpaceOnUse" x1="197.0072" x2="218.203" xlink:href="#e" y1="37.3211" y2="66.4946"/><linearGradient id="i" gradientUnits="userSpaceOnUse" x1="95.7148" x2="173.0106" y1="38.1658" y2="38.1658"><stop offset=".2165" stop-color="#f6de00"/><stop offset=".3171" stop-color="#f5db00"/><stop offset=".4215" stop-color="#f1d300"/><stop offset=".5276" stop-color="#ebc400"/><stop offset=".6349" stop-color="#e3ae00"/><stop offset=".7431" stop-color="#d99300"/><stop offset=".8505" stop-color="#d07500"/><stop offset=".95" stop-color="#c64c0c"/></linearGradient><linearGradient id="j" gradientUnits="userSpaceOnUse" x1="266.5135" x2="315.4866" xlink:href="#e" y1="42.7542" y2="83.8474"/><linearGradient id="k" gradientUnits="userSpaceOnUse" x1="312.5027" x2="414.7983" y1="-9.7415" y2="76.0947"><stop offset=".5" stop-color="#f6de00"/><stop offset=".5686" stop-color="#f5db00"/><stop offset=".6397" stop-color="#f1d300"/><stop offset=".7121" stop-color="#ebc400"/><stop offset=".7852" stop-color="#e3ae00"/><stop offset=".859" stop-color="#d99300"/><stop offset=".9322" stop-color="#d07500"/><stop offset="1" stop-color="#c64c0c"/></linearGradient><linearGradient id="l"><stop offset="0" stop-color="#f6de00"/><stop offset=".1372" stop-color="#f5db00"/><stop offset=".2795" stop-color="#f1d300"/><stop offset=".4242" stop-color="#ebc400"/><stop offset=".5704" stop-color="#e3ae00"/><stop offset=".7179" stop-color="#d99300"/><stop offset=".8643" stop-color="#d07500"/><stop offset="1" stop-color="#c64c0c"/></linearGradient><linearGradient id="m" gradientUnits="userSpaceOnUse" x1="476.3326" x2="563.6607" xlink:href="#l" y1="31.2196" y2="104.4966"/><linearGradient id="n" gradientUnits="userSpaceOnUse" x1="542.3037" x2="573.3254" xlink:href="#l" y1="10.4118" y2="36.442"/><linearGradient id="o" gradientUnits="userSpaceOnUse" x1="123.9812" x2="131.8377" y1="75.0063" y2="84.3692"><stop offset="0" stop-color="#cd7d7e"/><stop offset=".3389" stop-color="#771819"/></linearGradient><linearGradient id="p"><stop offset="0" stop-color="#cd7d7e"/><stop offset=".2" stop-color="#97151a"/></linearGradient><linearGradient id="q" gradientUnits="userSpaceOnUse" x1="43.5467" x2="106.1225" xlink:href="#p" y1="61.1693" y2="113.6766"/><linearGradient id="r" gradientUnits="userSpaceOnUse" x1="30.1973" x2="54.853" xlink:href="#p" y1="55.0071" y2="75.6957"/><linearGradient id="s" gradientUnits="userSpaceOnUse" x1="51.2103" x2="75.3707" xlink:href="#p" y1="30.9707" y2="51.2437"/><linearGradient id="t" gradientUnits="userSpaceOnUse" x1="142.2739" x2="178.0346" xlink:href="#p" y1="29.9162" y2="29.9162"/><linearGradient id="u" gradientUnits="userSpaceOnUse" x1="86.6905" x2="149.5527" y1="38.4257" y2="38.4257"><stop offset="0" stop-color="#cd7d7e"/><stop offset=".6124" stop-color="#97151a"/></linearGradient><linearGradient id="v" gradientUnits="userSpaceOnUse" x1="162.2043" x2="187.1721" xlink:href="#p" y1="76.9477" y2="97.8983"/><linearGradient id="w" gradientUnits="userSpaceOnUse" x1="198.5676" x2="264.0033" y1="65.2949" y2="10.3878"><stop offset="0" stop-color="#cd7d7e"/><stop offset=".3598" stop-color="#97151a"/></linearGradient><linearGradient id="x"><stop offset="0" stop-color="#cd7d7e"/><stop offset=".7" stop-color="#97151a"/></linearGradient><linearGradient id="y" gradientUnits="userSpaceOnUse" x1="289.3729" x2="302.5888" xlink:href="#x" y1="42.5683" y2="31.4789"/><linearGradient id="z" gradientUnits="userSpaceOnUse" x1="284.0745" x2="308.8864" xlink:href="#p" y1="77.0131" y2="97.8327"/><linearGradient id="A" gradientUnits="userSpaceOnUse" x1="343.1239" x2="365.411" xlink:href="#x" y1="55.3936" y2="36.6925"/><linearGradient id="B" gradientUnits="userSpaceOnUse" x1="392.6711" x2="427.6997" xlink:href="#p" y1="37.4468" y2="66.8392"/><linearGradient id="C" gradientUnits="userSpaceOnUse" x1="284.8394" x2="385.9252" y1="8.8268" y2="93.6479"><stop offset="0" stop-color="#cd7d7e"/><stop offset=".5711" stop-color="#97151a"/></linearGradient><linearGradient id="D"><stop offset="0" stop-color="#cd7d7e"/><stop offset=".3753" stop-color="#97151a"/></linearGradient><linearGradient id="E" gradientUnits="userSpaceOnUse" x1="426.5529" x2="458.8551" xlink:href="#D" y1="73.2766" y2="100.3813"/><linearGradient id="F" gradientUnits="userSpaceOnUse" x1="471.3151" x2="498.0663" xlink:href="#p" y1="69.6224" y2="79.359"/><linearGradient id="G" gradientUnits="userSpaceOnUse" x1="460.3609" x2="524.5182" xlink:href="#D" y1="41.1827" y2="95.0171"/><linearGradient id="H" gradientUnits="userSpaceOnUse" x1="469.8461" x2="500.1989" xlink:href="#D" y1="53.2429" y2="53.2429"/><linearGradient id="I" gradientUnits="userSpaceOnUse" x1="516.0709" x2="593.2715" xlink:href="#D" y1="70.2665" y2="70.2665"/><linearGradient id="J" gradientUnits="userSpaceOnUse" x1="432.0598" x2="494.2311" xlink:href="#D" y1="7.9956" y2="60.1635"/><linearGradient id="K"><stop offset="0" stop-color="#cd7d7e"/><stop offset=".15" stop-color="#97151a"/></linearGradient><linearGradient id="L" gradientUnits="userSpaceOnUse" x1="491.109" x2="557.6501" xlink:href="#K" y1="9.0875" y2="64.9221"/><linearGradient id="M" gradientUnits="userSpaceOnUse" x1="518.0156" x2="550.0445" xlink:href="#K" y1="52.1422" y2="52.1422"/><linearGradient id="N" gradientUnits="userSpaceOnUse" x1="523.965" x2="543.1314" y1="23.3459" y2="39.4285"><stop offset="0" stop-color="#cd7d7e"/><stop offset=".4696" stop-color="#97151a"/></linearGradient><linearGradient id="O" gradientUnits="userSpaceOnUse" x1="453.7113" x2="453.7113" y1="78.6054" y2="84.7627"><stop offset=".7518" stop-color="#fff" stop-opacity="0"/><stop offset="1" stop-color="#fff"/></linearGradient><linearGradient id="P" gradientUnits="userSpaceOnUse" x1="497.5081" x2="502.8171" y1="35.4982" y2="49.3288"><stop offset=".85" stop-color="#fff" stop-opacity="0"/><stop offset="1" stop-color="#fff"/></linearGradient><path d="m606.501 0h-585.161c-11.767 0-21.34 9.573-21.34 21.34v65.018c0 11.767 9.573 21.34 21.34 21.34h585.161c11.767 0 21.34-9.573 21.34-21.34v-65.018c0-11.767-9.573-21.34-21.34-21.34z"/><path d="m606.501 104.308h-585.161c-9.872 0-17.95-8.077-17.95-17.95v-65.018c0-9.872 8.077-17.95 17.95-17.95h585.161c9.872 0 17.95 8.077 17.95 17.95v65.018c0 9.872-8.078 17.95-17.95 17.95z" fill="url(#a)"/><path d="m606.501 3.39c9.872 0 17.95 8.077 17.95 17.95v65.018c0 9.872-8.077 17.95-17.95 17.95h-585.161c-9.872 0-17.95-8.077-17.95-17.95v-65.018c0-9.872 8.077-17.95 17.95-17.95zm0-3.39h-585.161c-11.767 0-21.34 9.573-21.34 21.34v65.018c0 11.767 9.573 21.34 21.34 21.34h585.161c11.767 0 21.34-9.573 21.34-21.34v-65.018c0-11.767-9.573-21.34-21.34-21.34z" fill="url(#b)"/><path d="m66.215 68.674h-42.016v-48.53h42.016zm64.619 6.117h-106.635v15.955h106.635zm104.241-54.647-78.979 48.531v22.071h42.547v-27.257l73.66-43.345zm-82.835 42.946 28.587-17.019-34.836-25.927h-56.508zm168.063-10.637-42.282-25.13v63.422h42.282zm75.123-32.309v52.182l-78.58-52.182h-36.032l113.016 70.602h1.596 13.429 4.255v-70.602zm21.938 70.602h55.046l28.321-7.845-25.794-12.365zm37.894-36.963 78.314 36.963h62.492l-77.117-34.577-15.955 6.123-30.182-14.759zm-27.922-33.639 75.655 36.099 17.817-6.582 31.911 14.36 15.955-5.717-81.372-38.16zm96.53 9.839 23.401 11.036 59.168-20.875h-55.844z"/><path d="m430.956 84.763 41.023-14.401 18.035 8.646-20.776 5.755z" fill="url(#c)"/><path d="m518.12 43.455-17.783 6.569-63.458-30.279h47.008l74.682 35.022-8.525 3.054z" fill="url(#d)"/><path d="m24.199 62.691v-42.946h36.431v42.946z" fill="url(#f)"/><path d="m24.199 84.763v-10.371h101.05v10.371z" fill="url(#g)"/><path d="m156.096 84.763v-17.718l77.031-47.3h26.49l-66.558 38.985v26.033z" fill="url(#h)"/><path d="m95.715 19.745h46.559l30.737 22.876-23.458 13.966z" fill="url(#i)"/><path d="m278.021 84.763v-55.723l36.698 21.81v33.913z" fill="url(#j)"/><path d="m391.838 84.763-104.077-65.018h25.45l82.215 54.596v-54.596h12.099v65.018z" fill="url(#k)"/><path d="m531.406 84.763-71.632-33.809 10.072-3.587 30.219 14.776 16.006-6.142 64.148 28.762z" fill="url(#m)"/><path d="m528.293 27.109 20.004-7.364h39.039l-42.708 15.068z" fill="url(#n)"/><path d="m24.199 84.763v-10.371h101.05l2.792-2.793h-106.634v15.956z" fill="#e9d4d6"/><path d="m125.249 84.763v-10.371l2.792-2.793v15.956z" fill="url(#o)"/><path d="m24.199 84.763h101.05l2.792 2.792h-106.634z" fill="url(#q)"/><path d="m21.407 65.483 2.792-2.792v-42.946h36.431l2.792-2.792h-42.015z" fill="#e9d4d6"/><path d="m60.63 62.691 2.792 2.792h-42.015l2.792-2.792z" fill="url(#r)"/><path d="m60.63 19.745 2.792-2.792v48.53l-2.792-2.792z" fill="url(#s)"/><path d="m95.715 19.745-9.025-2.792h56.509l-.925 2.792z" fill="#e9d4d6"/><path d="m149.553 56.587-.105 3.312 28.587-17.019-5.024-.259z" fill="#771819"/><path d="m142.274 19.745 30.737 22.876 5.024.259-34.836-25.927z" fill="url(#t)"/><path d="m86.69 16.953 9.025 2.792 53.838 36.842-.105 3.312z" fill="url(#u)"/><path d="m156.096 84.763-2.792 2.792v-22.072l78.979-48.53h37.229l-9.895 2.792h-26.49l-77.031 47.3z" fill="#e9d4d6"/><path d="m193.059 84.763h-36.963l-2.792 2.792h42.547z" fill="url(#v)"/><path d="m193.059 58.73 2.792 1.568v27.257l-2.792-2.792z" fill="#771819"/><path d="m193.059 58.73 2.792 1.568 73.661-43.345-9.895 2.792z" fill="url(#w)"/><path d="m278.021 29.04-2.792-4.908 42.282 25.13-2.792 1.588z" fill="url(#y)"/><path d="m314.719 50.85v33.913l2.792 2.792v-38.293z" fill="#771819"/><path d="m278.021 84.763-2.792 2.792h42.282l-2.792-2.792z" fill="url(#z)"/><path d="m275.229 24.132 2.792 4.908v55.723l-2.792 2.792z" fill="#e9d4d6"/><path d="m278.021 16.953 9.74 2.792h25.45l.843-2.792z" fill="#e9d4d6"/><path d="m395.426 74.341-82.215-54.596.843-2.792 78.58 52.182z" fill="url(#A)"/><path d="m407.525 19.745 2.792-2.792h-17.683v52.182l2.792 5.206v-54.596z" fill="#e9d4d6"/><path d="m407.525 84.763 2.792 2.792v-70.602l-2.792 2.792z" fill="url(#B)"/><path d="m391.838 84.763-.8 2.792h19.279l-2.792-2.792z" fill="#771819"/><path d="m287.761 19.745 104.077 65.018-.8 2.792-113.017-70.602z" fill="url(#C)"/><path d="m490.014 79.008 7.925.702-28.321 7.845-.38-2.792z" fill="#771819"/><path d="m414.572 87.555 16.384-2.792h38.282l.38 2.792z" fill="url(#E)"/><path d="m471.979 70.362.165-3.017-57.572 20.21 16.384-2.792z" fill="#e9d4d6"/><path d="m472.144 67.345-.165 3.017 18.035 8.646 7.925.702z" fill="url(#F)"/><g fill="#e9d4d6"><path d="m459.774 50.954-7.308-.362 17.551-6.25-.171 3.025z"/><path d="m500.065 62.143.134-3.042 15.955-6.123-.083 3.023z"/><path d="m436.879 19.745-12.335-2.792h59.965l-.622 2.792z"/><path d="m528.293 27.109 20.004-7.364h39.039l16.306-2.792h-55.843l-26.725 9.839z"/></g><path d="m550.044 57.821-.118 3.009 15.956-5.718-7.313-.345z" fill="#771819"/><path d="m500.337 50.024-.138 3.027 17.817-6.581.104-3.015z" fill="#771819"/><path d="m544.628 34.813-.153 3.014 59.167-20.874-16.306 2.792z" fill="#771819"/><path d="m531.406 84.763-.626 2.792h62.491l-13.052-2.792z" fill="#771819"/><path d="m459.774 50.954 71.632 33.809-.626 2.792-78.314-36.963z" fill="url(#G)"/><path d="m470.017 44.342-.171 3.025 30.219 14.776.134-3.042z" fill="url(#H)"/><path d="m516.154 52.978-.083 3.023 64.148 28.762 13.052 2.792z" fill="url(#I)"/><path d="m424.544 16.953 12.335 2.792 63.458 30.279-.138 3.027z" fill="url(#J)"/><path d="m483.887 19.745 74.682 35.022 7.313.345-81.373-38.159z" fill="url(#L)"/><path d="m518.12 43.455-.104 3.015 31.91 14.36.118-3.009z" fill="url(#M)"/><path d="m544.628 34.813-.153 3.014-23.401-11.035 7.219.317z" fill="url(#N)"/><path d="m469.238 84.763 7.229-2.003-7.229-3.752-20.742-.403-17.54 6.158z" fill="url(#O)"/><path d="m518.12 43.455-16.159-8.642-19.755 6.559 18.131 8.652z" fill="url(#P)"/></svg>