<svg enable-background="new 0 0 703.511 278.27" viewBox="0 0 703.511 278.27" xmlns="http://www.w3.org/2000/svg"><path d="m0 0h504.23v278.27h-504.23z" fill="none"/><path d="m479.423 278.082h-454.973s-24.449 3.912-24.449-24.014v-175.04c0-1.535.912-2.923 2.322-3.533l9.32-4.023v-62.888c0-1.158.643-2.22 1.669-2.756l11.138-5.828v41.043l13.1 15.076v72.034l-27.223 91.717v31.409s-2.513 16.333 18.427 16.333h448.533s14.239 1.675 14.239-13.82v-33.922l-23.52-91.717-.075-72.034 12.078-15.076-.007-41.043 11.441 5.668c.882.438 1.442 1.338 1.442 2.323v61.253l9.048 2.296c1.142.29 1.941 1.318 1.941 2.496v171.656c-.001 0 5.242 32.39-24.451 32.39" fill="#bcbdb5"/><path d="m359.186 11.166c0-2.002-1.625-3.626-3.626-3.626h-203.47c-1.734 0-3.141 1.407-3.141 3.141v11.173c-.008.301 0 .486 0 .486v18.704h-124.5v-41.044h455.552l.009 41.043h-120.824z" fill="#e3e5db"/><path d="m491.525 219.867v33.921c0 15.505-14.238 13.83-14.238 13.83h-448.527c-20.949 0-18.436-16.342-18.436-16.342v-31.408h481.201z" fill="#d6d7c3"/><path d="m491.525 219.867h-481.201l27.23-91.712h430.45z" fill="#d4d4d0"/><path d="m148.95 41.043v15.077h-111.4l-13.101-15.077zm331.06 0-12.078 15.077h-108.746v-15.077z" fill="#dddcd8"/><path d="m468.004 128.155h-430.45v-72.039h111.394v-33.781s-.01-.179 0-.479c.06-1.526.698-6.082 6.282-6.082h195.996s7.957-.08 7.957 6.481v33.861h108.752z" fill="#e3e5db"/><path d="m359.186 11.166v11.09c0-6.558-7.957-6.483-7.957-6.483h-195.998c-5.587 0-6.223 4.557-6.282 6.081v-11.174c0-1.734 1.407-3.141 3.141-3.141h203.47c2.001 0 3.626 1.624 3.626 3.627" fill="#d2d2d0"/><path d="m356.251 24.708v93.536c0 2.233-1.805 4.048-4.038 4.048h-195.159c-2.243 0-4.058-1.815-4.058-4.048v-93.536c0-2.233 1.815-4.048 4.058-4.048h195.159c2.233 0 4.038 1.815 4.038 4.048" fill="#949995"/><path d="m334.477 54.235v19.474h-159.981v-19.474c0-2.663 2.153-4.816 4.816-4.816h150.349c2.664 0 4.816 2.152 4.816 4.816m0 20.94v13.821c0 2.663-2.153 4.816-4.816 4.816h-150.349c-2.663 0-4.816-2.153-4.816-4.816v-13.821z" fill="#7e7f80"/><path d="m334.477 74.908h-159.981v-2.121h159.981z" fill="#252222"/><path d="m141.41 125.224h-90.246v-67.852h90.246z" fill="#e1deac"/><path d="m56.672 118.663h80.551v-7.262h-80.551zm0-13.267h80.551v-6.7h-80.551zm0-12.699h80.551v-6.491h-80.551zm0-12.145h80.551v-6.843h-80.551zm80.551-12.43h-80.551v-7.538h80.551z" fill="#7f7d59"/><path d="m56.672 121.594h80.551v-2.931h-80.551zm0-12.706h80.551v-3.493h-80.551zm0-12.497h80.551v-3.694h-80.551zm0-12.489h80.551v-3.35h-80.551zm80.551-13.125h-80.551v-2.655h80.551z" fill="#e4e1cd"/><path d="m456.837 125.224h-90.256v-67.852h90.256z" fill="#e1deac"/><path d="m372.102 118.663h80.543v-7.262h-80.543zm0-13.267h80.543v-6.7h-80.543zm0-12.699h80.543v-6.491h-80.543zm0-12.145h80.543v-6.843h-80.543zm80.543-12.43h-80.543v-7.538h80.543z" fill="#7f7d59"/><path d="m372.102 121.594h80.543v-2.931h-80.543zm0-12.706h80.543v-3.493h-80.543zm0-12.497h80.543v-3.694h-80.543zm0-12.489h80.543v-3.35h-80.543zm80.543-13.125h-80.543v-2.655h80.543z" fill="#e4e1cd"/><path d="m478.124 215.679h-452.515c-3.978 0-2.513-4.816-2.513-4.816l24.508-77.264h413.978s18.915 73.146 20.031 77.752c1.118 4.607-3.489 4.328-3.489 4.328" fill="#070308"/><path d="m416.286 248.347h-39.928v-23.176h39.928z" fill="#9f2028"/><path d="m259.412 233.171h-9.431v-4.715h9.431z" fill="#bf75a9"/><path d="m476.24 212.189h-449.579v-3.836h449.579z" fill="#bbbdbd"/><path d="m39.418 174.639-2.807 8.477h431.395l-2.354-8.477z" fill="#932426"/><path d="m465.653 174.639h-426.235l11.743-35.506h404.626z" fill="#bbbdbd"/><path d="m166.824 199.882c-.771.373-1.777.559-3.018.559-1.619 0-2.894-.476-3.821-1.428s-1.391-2.221-1.391-3.806c0-1.689.521-3.058 1.564-4.108 1.043-1.051 2.396-1.575 4.059-1.575 1.031 0 1.899.13 2.606.39v2.289c-.707-.422-1.512-.633-2.415-.633-.991 0-1.791.312-2.4.935-.608.623-.912 1.468-.912 2.533 0 1.021.287 1.834.861 2.44s1.347.909 2.318.909c.928 0 1.777-.225 2.548-.677v2.172zm5.264-5.565c-.549 0-.977.188-1.281.567-.304.378-.456.912-.456 1.604 0 1.448.583 2.172 1.752 2.172 1.114 0 1.671-.744 1.671-2.23 0-1.409-.563-2.113-1.686-2.113m-.059 6.125c-1.256 0-2.243-.352-2.962-1.057-.719-.704-1.079-1.66-1.079-2.867 0-1.247.373-2.222 1.119-2.926.746-.705 1.754-1.057 3.025-1.057 1.251 0 2.233.352 2.945 1.057.711.704 1.067 1.635 1.067 2.794 0 1.251-.366 2.24-1.1 2.966-.734.727-1.739 1.09-3.015 1.09m17.594-.184h-2.319v-4.299c0-1.094-.402-1.641-1.207-1.641-.382 0-.694.165-.934.493-.24.329-.361.739-.361 1.229v4.219h-2.326v-4.343c0-1.065-.395-1.597-1.186-1.597-.398 0-.715.157-.953.471-.237.314-.357.742-.357 1.281v4.189h-2.326v-7.538h2.326v1.178h.03c.24-.403.577-.73 1.012-.983.435-.252.909-.379 1.424-.379 1.065 0 1.794.469 2.187 1.406.574-.937 1.419-1.406 2.533-1.406 1.639 0 2.459 1.011 2.459 3.033v4.687zm4.13-3.968v.603c0 .52.138.945.412 1.274.275.329.636.493 1.083.493.529 0 .941-.204 1.233-.614s.438-.99.438-1.741c0-1.325-.515-1.988-1.546-1.988-.476 0-.864.18-1.167.541-.301.361-.453.838-.453 1.432m.066 3.092h-.029v4.343h-2.326v-11.006h2.326v1.134h.029c.574-.878 1.382-1.317 2.423-1.317.976 0 1.731.334 2.263 1.004s.799 1.582.799 2.735c0 1.256-.31 2.265-.931 3.026-.62.761-1.447 1.141-2.477 1.141-.909 0-1.601-.353-2.077-1.06m14.157.876h-2.319v-1.149h-.037c-.574.888-1.342 1.333-2.304 1.333-1.747 0-2.62-1.058-2.62-3.174v-4.549h2.319v4.343c0 1.065.422 1.597 1.266 1.597.417 0 .751-.147 1.001-.438.25-.292.375-.689.375-1.19v-4.313h2.319zm6.515-.089c-.344.181-.861.272-1.553.272-1.639 0-2.459-.852-2.459-2.555v-3.453h-1.221v-1.715h1.221v-1.627l2.319-.662v2.289h1.693v1.715h-1.693v3.048c0 .786.311 1.178.935 1.178.245 0 .498-.071.758-.213zm5.926-4.446c0-1.08-.437-1.619-1.31-1.619-.373 0-.696.155-.968.464s-.438.694-.497 1.156zm2.157 1.428h-4.918c.079 1.095.769 1.642 2.069 1.642.83 0 1.558-.196 2.187-.589v1.679c-.697.373-1.602.559-2.717.559-1.216 0-2.162-.338-2.834-1.013-.672-.674-1.009-1.615-1.009-2.823 0-1.251.364-2.242 1.09-2.974.727-.731 1.619-1.097 2.68-1.097 1.099 0 1.949.326 2.551.979.601.653.901 1.538.901 2.657zm6.302-2.334c-.28-.153-.606-.228-.979-.228-.506 0-.9.185-1.186.556-.284.37-.427.874-.427 1.513v3.599h-2.326v-7.538h2.326v1.399h.03c.368-1.021 1.03-1.532 1.987-1.532.245 0 .437.029.574.088zm14.259-5.116-3.636 10.557h-2.695l-3.592-10.557h2.563l2.201 7.346c.118.398.189.749.213 1.053h.045c.034-.329.111-.689.228-1.082l2.186-7.318h2.487zm3.365 10.557h-2.326v-7.538h2.326zm-1.149-8.731c-.393 0-.714-.117-.964-.349-.25-.233-.376-.519-.376-.858 0-.348.126-.633.376-.854s.571-.331.964-.331c.398 0 .721.11.968.331.248.22.372.506.372.854 0 .354-.124.643-.372.869-.247.225-.57.338-.968.338m8.201 5.065v-.567c0-.491-.143-.897-.427-1.221-.285-.324-.655-.486-1.112-.486-.515 0-.918.202-1.207.607s-.435.96-.435 1.667c0 .662.141 1.173.42 1.532.28.358.668.537 1.164.537.471 0 .855-.189 1.153-.567.296-.379.444-.879.444-1.502m2.282 3.666h-2.326v-1.038h-.03c-.529.815-1.308 1.221-2.333 1.221-.942 0-1.701-.332-2.275-.997s-.861-1.593-.861-2.787c0-1.246.317-2.244.95-2.996.633-.751 1.463-1.126 2.488-1.126.972 0 1.649.348 2.032 1.045h.03v-4.483h2.326v11.161zm6.574-4.535c0-1.08-.437-1.619-1.31-1.619-.373 0-.696.155-.968.464s-.438.694-.497 1.156h2.775zm2.157 1.428h-4.918c.079 1.095.769 1.642 2.069 1.642.83 0 1.558-.196 2.187-.589v1.679c-.697.373-1.602.559-2.717.559-1.216 0-2.162-.338-2.834-1.013-.672-.674-1.009-1.615-1.009-2.823 0-1.251.364-2.242 1.09-2.974.727-.731 1.619-1.097 2.68-1.097 1.099 0 1.949.326 2.551.979.601.653.901 1.538.901 2.657zm5.035-2.834c-.549 0-.977.188-1.281.567-.304.378-.456.912-.456 1.604 0 1.448.583 2.172 1.752 2.172 1.114 0 1.671-.744 1.671-2.23 0-1.409-.562-2.113-1.686-2.113m-.058 6.125c-1.256 0-2.243-.352-2.962-1.057-.72-.704-1.079-1.66-1.079-2.867 0-1.247.373-2.222 1.119-2.926.746-.705 1.754-1.057 3.025-1.057 1.251 0 2.233.352 2.945 1.057.711.704 1.067 1.635 1.067 2.794 0 1.251-.366 2.24-1.1 2.966-.734.727-1.739 1.09-3.015 1.09m18.676-.891c-1.031.594-2.311.89-3.843.89-1.698 0-3.036-.47-4.015-1.41-.979-.939-1.47-2.233-1.47-3.883 0-1.659.535-3.011 1.605-4.056 1.07-1.046 2.493-1.568 4.27-1.568 1.12 0 2.106.155 2.959.464v2.23c-.815-.471-1.811-.706-2.988-.706-.987 0-1.79.32-2.411.96s-.931 1.496-.931 2.565c0 1.085.278 1.924.836 2.518.557.594 1.309.891 2.256.891.569 0 1.021-.082 1.354-.243v-2.061h-2.113v-1.899h4.491zm5.912-2.356v-.508l-1.369.176c-.756.098-1.134.439-1.134 1.023 0 .265.092.483.276.651.184.169.433.254.747.254.437 0 .793-.151 1.068-.453.274-.3.412-.681.412-1.143m2.186 3.062h-2.202v-1.082h-.029c-.506.845-1.254 1.266-2.245 1.266-.732 0-1.306-.207-1.726-.622s-.63-.968-.63-1.66c0-1.463.866-2.306 2.598-2.533l2.047-.272c0-.825-.447-1.236-1.34-1.236-.898 0-1.752.267-2.561.803v-1.753c.324-.167.767-.314 1.329-.442s1.073-.191 1.535-.191c2.15 0 3.225 1.073 3.225 3.218zm13.81.001h-2.319v-4.299c0-1.094-.402-1.641-1.207-1.641-.382 0-.694.165-.934.493-.24.329-.361.739-.361 1.229v4.219h-2.326v-4.343c0-1.065-.395-1.597-1.186-1.597-.398 0-.715.157-.953.471-.237.314-.357.742-.357 1.281v4.189h-2.326v-7.538h2.326v1.178h.03c.24-.403.577-.73 1.012-.983.435-.252.909-.379 1.424-.379 1.065 0 1.794.469 2.187 1.406.574-.937 1.419-1.406 2.533-1.406 1.639 0 2.459 1.011 2.459 3.033zm6.457-4.535c0-1.08-.437-1.619-1.31-1.619-.373 0-.696.155-.968.464s-.438.694-.497 1.156zm2.156 1.428h-4.918c.079 1.095.769 1.642 2.069 1.642.83 0 1.558-.196 2.187-.589v1.679c-.697.373-1.602.559-2.717.559-1.216 0-2.162-.338-2.834-1.013-.672-.674-1.009-1.615-1.009-2.823 0-1.251.364-2.242 1.09-2.974.727-.731 1.619-1.097 2.68-1.097 1.099 0 1.949.326 2.551.979s.901 1.538.901 2.657z" fill="#bbbdbd"/><path d="m215.487 152.972c0-1.084.389-2.02 1.168-2.809s1.868-1.183 3.267-1.183h10.643v3.548h-10.643c-.591 0-.887.148-.887.444s.296.444.887.444h2.66c2.031 0 3.869.823 5.515 2.469 1.645 1.645 2.468 3.631 2.468 5.958 0 2.305-.823 4.286-2.468 5.943-1.646 1.655-3.484 2.483-5.515 2.483h-11.53v-3.548h10.644c1.636 0 2.931-.483 3.888-1.449.956-.965 1.434-2.109 1.434-3.429 0-1.341-.478-2.489-1.434-3.445s-2.251-1.434-3.888-1.434h-1.774c-1.4 0-2.489-.389-3.267-1.168-.779-.779-1.168-1.72-1.168-2.824m-4.435 0c0-2.306.824-4.287 2.469-5.943 1.646-1.656 3.484-2.484 5.514-2.484h11.53v3.548h-10.643c-1.636 0-2.932.484-3.888 1.449-.956.966-1.435 2.11-1.435 3.43 0 1.34.479 2.489 1.435 3.444.955.956 2.251 1.435 3.888 1.435h1.774c1.399 0 2.489.389 3.266 1.168.779.779 1.169 1.72 1.169 2.824 0 1.084-.39 2.02-1.169 2.809-.778.788-1.868 1.183-3.266 1.183h-10.644v-3.549h10.644c.591 0 .886-.148.886-.443 0-.296-.295-.444-.886-.444h-2.661c-2.03 0-3.868-.824-5.514-2.469-1.645-1.647-2.469-3.632-2.469-5.958m25.722 4.878h11.53v3.548h-7.983c0 .591.296.887.887.887h9.756v3.548h-10.644c-2.365 0-3.548-1.183-3.548-3.548v-4.435zm0-.887v-4.434c0-2.365 1.183-3.549 3.548-3.549h10.644v3.549h-9.756c-.591 0-.887.295-.887.886h7.983v3.548zm-4.435-4.434c0-5.322 2.661-7.983 7.983-7.983h10.644v3.548h-10.644c-2.956 0-4.435 1.478-4.435 4.435v9.756c0 2.956 1.479 4.435 4.435 4.435h10.644v3.548h-10.644c-5.321 0-7.983-2.661-7.983-7.983zm24.835 0c0-2.365 1.183-3.548 3.548-3.548h10.644v3.548h-9.756c-.591 0-.887.296-.887.887v7.983c0 .591.296.886.887.886h1.774v-.886h-1.774v-3.549h5.321v7.983h-6.209c-2.365 0-3.548-1.183-3.548-3.548zm-4.435 0c0-5.321 2.661-7.983 7.983-7.983h10.644v3.548h-10.644c-2.956 0-4.435 1.479-4.435 4.435v9.756c0 2.956 1.479 4.435 4.435 4.435h7.096v-9.756h-6.209v-3.548h9.756v16.852h-10.644c-5.321 0-7.983-2.661-7.983-7.983z" fill="#294591"/><path d="m283.192 158.146-1.626 4.139h3.252zm-2.218 7.686v-1.921l-2.513 6.356h-3.549l7.688-20.695c.099-.394.295-.591.591-.591s.493.197.591.591l6.209 16.26zm0 .888h10.496l-7.096-18.035c-.197-.394-.591-.591-1.183-.591-.493 0-.887.197-1.183.591l-7.983 21.583h-3.548l8.278-22.765c.986-1.97 2.464-2.956 4.435-2.956 2.266 0 3.745.986 4.435 2.956l8.574 22.765h-15.226z" fill="#294591"/><path d="m39.418 174.639-1.379 4.166h160.238l-.005.012h211.966l-.002-.012h56.573l-1.157-4.166h-209.43l-.005.012h-7.366l-.002-.012z" fill="#cfa362"/><path d="m61.566 194.308v-1.755c0-1.56.78-2.34 2.34-2.34h10.53v2.34h-10.53v1.755h8.19c1.56 0 2.34.78 2.34 2.34v1.755c0 1.56-.78 2.34-2.34 2.34h-10.53v-2.34h10.53v-1.755h-8.19c-1.56 0-2.34-.78-2.34-2.34z" fill="#b9966d"/><path d="m75.607 198.403v-5.85c0-1.56.78-2.34 2.34-2.34h10.53v2.34h-10.53v5.85h8.19v-1.755h-4.68v-2.34h7.02v6.435h-10.53c-1.56 0-2.34-.78-2.34-2.34z" fill="#b9966d"/><path d="m89.647 196.648v-2.34h4.095v2.34z" fill="#b9966d"/><path d="m94.912 200.743v-2.34h3.51v-5.85h-3.51v-2.34h6.435v8.19h3.51v2.34z" fill="#b9966d"/><path d="m119.483 198.403c0 1.56-.78 2.34-2.34 2.34h-8.775c-1.56 0-2.34-.78-2.34-2.34v-5.85c0-1.56.78-2.34 2.34-2.34h8.775c1.56 0 2.34.78 2.34 2.34zm-2.34 0v-5.85h-8.775v5.85z" fill="#b9966d"/><path d="m134.109 198.403c0 1.56-.78 2.34-2.34 2.34h-8.775c-1.56 0-2.34-.78-2.34-2.34v-5.85c0-1.56.78-2.34 2.34-2.34h8.775c1.56 0 2.34.78 2.34 2.34zm-2.34 0v-5.85h-8.775v5.85z" fill="#b9966d"/><path d="m148.734 198.403c0 1.56-.78 2.34-2.34 2.34h-8.775c-1.56 0-2.34-.78-2.34-2.34v-5.85c0-1.56.78-2.34 2.34-2.34h8.775c1.56 0 2.34.78 2.34 2.34zm-2.34 0v-5.85h-8.775v5.85z" fill="#b9966d"/><path d="m698.274 278.27h-148.098c-1.581 0-2.862-1.281-2.862-2.862v-192.309c0-1.581 1.281-2.862 2.862-2.862h7.369l1.827 1.461h129.159l2.192-1.461h7.551c1.581 0 2.862 1.281 2.862 2.862v192.308c0 1.581-1.281 2.863-2.862 2.863z" fill="#20221f"/><path d="m559.372 81.699v111.074c0 1.816 1.472 3.288 3.288 3.288h122.765c1.715 0 3.106-1.39 3.106-3.106v-111.256" fill="#2b2b26"/><path d="m544.939 156.418h2.375v4.019h-2.375zm0-3.334h2.375v-4.019h-2.375zm0-7.445h2.375v-4.019h-2.375zm0-7.307h2.375v-4.019h-2.375zm0-7.399h2.375v-4.019h-2.375zm0-14.569h2.375v-4.019h-2.375zm0 7.307h2.375v-4.019h-2.375zm0-13.884h2.375v-4.019h-2.375zm0-7.947h2.375v-4.019h-2.375zm0-7.582h2.375v-4.019h-2.375zm156.197 66.179h2.375v-4.019h-2.375zm0-7.353h2.375v-4.019h-2.375zm0-7.445h2.375v-4.019h-2.375zm0-7.307h2.375v-4.019h-2.375zm0-7.399h2.375v-4.019h-2.375zm0-14.569h2.375v-4.019h-2.375zm0 7.307h2.375v-4.019h-2.375zm0-13.884h2.375v-4.019h-2.375zm0-7.947h2.375v-4.019h-2.375zm0-7.582h2.375v-4.019h-2.375z" fill="#20221f"/><path d="m680.297 191.88-.053.266-.106.399-.425.106h-7.097v-1.515c-.346 1.01-.638 1.568-1.675 1.568-.292 0-.664-.053-1.143-.106l-.611-.08h-.053c-.239.133-.425.186-.744.186h-.08c-.771-.027-1.542-.027-2.313-.027h-3.721c-1.861-.027-3.243-1.037-3.748-2.658v2.658h-5.528c-.399 0-.824 0-1.249-.027-1.754-.133-3.269-1.728-3.322-3.508v-.213c-.133.718-.425 1.409-.851 1.993-.797 1.063-1.94 1.675-3.163 1.728-.744.027-1.462.053-2.206.053l-4.12-.027v-4.944h2.233c-.744-.425-1.382-1.09-1.807-2.02-.797-1.648-.664-3.322.372-4.864.797-1.143 1.86-1.781 3.057-1.834.824-.027 1.621-.027 2.445-.027h4.013v2.233h.027v1.276c.027-1.701 1.488-3.349 3.083-3.429.877-.053 1.754-.08 2.658-.08l4.412.027v2.498c.505-1.568 1.834-2.498 3.668-2.552h3.827 2.233v2.684h-.027v1.808h.053v4.572l2.18-6.671c.558-1.728 1.621-2.605 3.136-2.605.213 0 .452.027.718.053 1.143.186 1.967.877 2.339 1.967.93 2.844 1.834 5.688 2.764 8.532z" fill="#fff"/><g fill="#67889d"><path d="m679.705 192.107c-2.157 0-4.319 0-6.555 0 0-.493 0-.942 0-1.533h4.493c-.327-.988-.597-1.792-.858-2.599-.652-2.012-1.26-4.04-1.976-6.027-.173-.481-.641-1.077-1.068-1.176-.72-.167-.953.58-1.153 1.198-.997 3.083-2.022 6.155-2.986 9.249-.227.727-.557.972-1.289.952-2.011-.055-4.024-.005-6.036-.023-2.038-.018-3.371-1.352-3.416-3.462-.04-1.9-.043-3.803 0-5.704.05-2.143 1.34-3.447 3.399-3.477 1.813-.026 3.628-.005 5.505-.005v1.614c-1.559 0-3.108 0-4.658 0-2.186-.001-2.688.528-2.689 2.833 0 1.435-.006 2.869.002 4.304.009 1.534.708 2.282 2.152 2.298 1.172.012 2.345.003 3.577.003 0-1.704 0-3.286 0-5.004-.997 0-1.966 0-2.984 0 0-.585 0-1.036 0-1.557h4.649v6.592c.085.01.169.02.254.03.983-3.031 1.969-6.061 2.95-9.092.561-1.733 1.593-2.437 3.259-2.182.927.142 1.613.683 1.916 1.6 1.204 3.639 2.372 7.292 3.55 10.941.018.054-.019.128-.038.227z"/><path d="m638.629 192.141c0-.559 0-1.012 0-1.596 1.749 0 3.464.019 5.178-.006 1.435-.021 2.507-1.062 2.559-2.425.05-1.332-1.011-2.472-2.421-2.571-.573-.04-1.153.015-1.723-.047-.877-.095-1.516-.922-1.516-1.877.001-.969.634-1.834 1.518-1.86 1.875-.055 3.753-.017 5.679-.017v1.579c-.959 0-1.906 0-2.853 0-.887 0-1.773 0-2.66 0-.002.177-.003.354-.005.531.526.023 1.051.056 1.577.068 1.982.045 3.414 1.201 3.908 3.162.603 2.395-1.116 4.944-3.483 5.042-1.879.079-3.762.017-5.758.017z"/><path d="m638.613 189.919c0-.573 0-1.001 0-1.648h5.532c.001-.154.001-.309.002-.463-.564-.023-1.128-.057-1.692-.066-1.584-.027-2.762-.786-3.456-2.244-.707-1.485-.598-2.973.333-4.338.639-.936 1.521-1.571 2.634-1.607 1.943-.062 3.89-.017 5.911-.017v1.581c-1.746 0-3.493-.029-5.239.008-1.734.038-2.859 1.656-2.336 3.286.315.981 1.214 1.639 2.366 1.707.542.032 1.089-.008 1.627.047.874.089 1.536.913 1.546 1.855s-.651 1.86-1.504 1.884c-1.875.051-3.754.015-5.724.015z"/><path d="m658.052 179.555v1.56c-1.729 0-3.442-.001-5.154 0-1.8.002-2.428.638-2.44 2.502-.009 1.5-.004 3 .007 4.5.013 1.732.678 2.429 2.311 2.433 1.717.005 3.433.001 5.215.001v1.601c-1.281 0-2.543.003-3.804-.001-.798-.002-1.598.026-2.392-.03-1.464-.103-2.795-1.472-2.833-3.003-.054-2.198-.051-4.4-.001-6.598.032-1.408 1.221-2.857 2.567-2.933 2.154-.12 4.318-.032 6.524-.032z"/><path d="m669.846 192.071c1.112-3.435 2.193-6.796 3.3-10.147.078-.237.323-.49.546-.57.122-.044.463.218.527.408.903 2.686 1.776 5.384 2.68 8.155-1.312 0-2.512 0-3.755 0-.042-.399-.079-.753-.116-1.107-.054-.02-.107-.039-.161-.059-.214.622-.433 1.242-.641 1.866-.55 1.656-.548 1.657-2.38 1.454zm3.21-3.968h1.317c-.205-.635-.379-1.174-.553-1.713-.076.005-.151.01-.227.014-.165.522-.33 1.043-.537 1.699z"/><path d="m664.265 187.942c-.48-.141-.766-.224-1.107-.324 0-.436 0-.89 0-1.417h2.435v3.713c-1.245 0-2.483.071-3.704-.048-.317-.031-.817-.643-.832-1.006-.083-1.998-.059-4.002-.035-6.003.008-.702.419-1.113 1.096-1.12 1.85-.018 3.7-.006 5.632-.006v1.587c-1.391 0-2.757.039-4.119-.014-.836-.033-1.158.272-1.105 1.153.056.93.004 1.868.015 2.802.013 1.113.527 1.382 1.724.683z"/><path d="m652.716 188.211c1.718.321 3.499-.015 5.281.186v1.514c-2.038 0-4.036.049-6.028-.05-.318-.016-.794-.665-.866-1.084-.139-.803-.04-1.651-.04-2.565h5.67v1.497c-1.322 0-2.643 0-3.964 0-.018.167-.036.334-.053.502z"/><path d="m658.052 181.746v1.504c-1.768.251-3.581-.161-5.319.223.006.138.012.276.018.414h3.984v1.571c-1.844 0-3.681 0-5.656 0 0-.922-.079-1.883.042-2.817.043-.334.563-.843.881-.855 2-.079 4.003-.04 6.05-.04z"/></g><path d="m559.372 171.581h129.159v2.923h-129.159z" fill="#fff"/><path d="m562.751 99.83h113.631v2.923h-113.631z" fill="#fff"/></svg>