<svg enable-background="new 0 0 376.24 357.583" viewBox="0 0 376.24 357.583" xmlns="http://www.w3.org/2000/svg" xmlns:xlink="http://www.w3.org/1999/xlink"><clipPath id="a"><path d="m3.312 24.643h35.226v35.226h-35.226z"/></clipPath><clipPath id="b"><path d="m261.651 20.741h35.977v35.977h-35.977z"/></clipPath><path d="m105.438 3.486h129.504v354.097h-129.504z" fill="#a09f9c"/><path d="m126.92 3.486h-21.482v101.214s-5.976.219-5.976-3.719 0-94.94 0-94.94 0-6.011 5.355-6.011h18.603s3.5-.517 3.5 3.456z" fill="#852c23"/><path d="m240.918 6.041v94.94s-5.976 3.719-5.976 3.719v-101.214h-21.473c0-3.973 3.5-3.465 3.5-3.465s13.23.009 18.594.009c5.355 0 5.355 6.011 5.355 6.011z" fill="#852c23"/><path d="m116.236 14.861h107.917v22.462h-107.917z" fill="#282922"/><path d="m116.236 37.323h107.917v11.087h-107.917z" fill="#fff"/><path d="m148.021 41.223v-1.015c0-.902.451-1.354 1.354-1.354h6.091v1.354h-6.091v1.015h4.737c.902 0 1.354.451 1.354 1.354v1.015c0 .902-.451 1.354-1.354 1.354h-6.091v-1.354h6.091v-1.015h-4.737c-.903 0-1.354-.451-1.354-1.354z"/><path d="m158.511 40.208v-1.354h5.076v1.354h-1.015v3.384c0 .902-.451 1.354-1.354 1.354h-3.722c-.902 0-1.354-.451-1.354-1.354v-1.015h1.354v1.015h3.722v-3.384z"/><path d="m164.264 42.577v-1.354h2.369v1.354z"/><path d="m175.092 41.223c0 .902-.451 1.354-1.354 1.354h-5.076v1.015h6.429v1.354h-7.783v-2.369c0-.902.451-1.354 1.354-1.354h5.076v-1.015h-6.429v-1.354h6.429c.902 0 1.354.451 1.354 1.354z"/><path d="m183.552 43.592c0 .902-.451 1.354-1.354 1.354h-5.076c-.902 0-1.354-.451-1.354-1.354v-3.384c0-.902.451-1.354 1.354-1.354h5.076c.902 0 1.354.451 1.354 1.354zm-1.354 0v-3.384h-5.076v3.384z"/><path d="m192.012 43.592c0 .902-.451 1.354-1.354 1.354h-5.076c-.902 0-1.354-.451-1.354-1.354v-3.384c0-.902.451-1.354 1.354-1.354h5.076c.902 0 1.354.451 1.354 1.354zm-1.354 0v-3.384h-5.076v3.384z"/><path d="m169.945 94.786c-28.675 0-51.915 23.241-51.915 51.915 0 28.675 23.241 51.915 51.915 51.915 28.675 0 51.915-23.241 51.915-51.915s-23.241-51.915-51.915-51.915zm0 98.511c-25.734 0-46.595-20.861-46.595-46.595 0-25.735 20.861-46.595 46.595-46.595 25.735 0 46.595 20.861 46.595 46.595s-20.861 46.595-46.595 46.595z" fill="#70706e"/><circle cx="169.945" cy="146.702" fill="#8d8a89" r="46.595"/><path d="m198.864 146.702c0 15.969-12.95 28.92-28.92 28.92s-28.92-12.95-28.92-28.92c0-10.737 5.854-20.108 14.543-25.096-.595 1.584-.936 3.29-.971 5.075v.009c-5.609 4.489-9.197 11.393-9.197 19.137 0 13.554 10.99 24.544 24.544 24.544s24.544-10.99 24.544-24.544c0-7.744-3.588-14.648-9.196-19.137v-.009c-.035-1.785-.376-3.491-.971-5.075 8.69 4.987 14.544 14.359 14.544 25.096z" fill="#70706e"/><path d="m194.489 145.826c0 13.554-10.99 24.544-24.544 24.544s-24.544-10.99-24.544-24.544c0-7.744 3.588-14.648 9.197-19.137-.009.105-.009.219-.009.324 0 2.546.621 4.953 1.724 7.07-2.669 3.176-4.27 7.272-4.27 11.743 0 10.089 8.173 18.262 18.262 18.262s18.262-8.173 18.262-18.262c0-4.716-1.785-9.022-4.725-12.259.936-1.995 1.461-4.209 1.461-6.554 0-.105 0-.219-.009-.324 5.608 4.49 9.195 11.393 9.195 19.137z" fill="#2c2b25"/><path d="m138.348 146.754c0 .543-.219 1.033-.577 1.391-.359.359-.849.578-1.391.578h-7.77c-1.085 0-1.969-.884-1.969-1.969 0-.543.219-1.033.577-1.391.359-.359.849-.577 1.391-.577h7.77c1.085-.001 1.969.883 1.969 1.968zm72.478-1.969h-7.761c-.543 0-1.033.219-1.391.577-.359.359-.577.849-.577 1.391 0 1.085.884 1.969 1.969 1.969h7.761c.543 0 1.033-.219 1.391-.578.359-.359.578-.849.578-1.391-.001-1.084-.885-1.968-1.97-1.968zm-39.437 34.091c-.359-.359-.849-.577-1.391-.577-1.085 0-1.969.884-1.969 1.969v7.77c0 .543.219 1.033.578 1.391.359.359.849.578 1.391.578 1.085 0 1.969-.893 1.969-1.969v-7.77c-.001-.543-.22-1.033-.578-1.392zm0-74.447c-.359-.359-.849-.578-1.391-.578-1.085 0-1.969.884-1.969 1.969v5.959c.63-.079 1.269-.122 1.916-.122.683 0 1.365.044 2.021.131v-5.968c0-.542-.219-1.032-.577-1.391zm-23.127 64.402c-.77-.77-2.021-.77-2.791 0l-5.486 5.486c-.385.385-.577.892-.577 1.391 0 .508.192 1.006.577 1.391.761.77 2.021.77 2.783 0l5.495-5.486c.376-.385.569-.893.569-1.391-.002-.507-.194-1.015-.57-1.391zm52.641-52.65c-.77-.761-2.021-.761-2.783 0l-5.495 5.495c-.376.385-.569.884-.569 1.391s.192 1.006.569 1.391c.77.77 2.021.77 2.783 0l5.495-5.486c.376-.385.569-.893.569-1.391 0-.508-.193-1.015-.569-1.4zm.315 58.058-5.486-5.486c-.385-.385-.893-.578-1.391-.578-.508 0-1.006.193-1.391.578-.77.761-.77 2.021 0 2.783l5.486 5.495c.385.385.893.569 1.391.569.508 0 1.015-.184 1.391-.569.77-.771.77-2.022 0-2.792zm-52.641-52.642-5.486-5.486c-.385-.385-.892-.577-1.4-.577-.499 0-1.006.192-1.391.577-.761.761-.761 2.013 0 2.783l5.495 5.486c.376.385.884.577 1.391.577.508 0 1.015-.192 1.391-.577.77-.762.77-2.013 0-2.783z" fill="#a09f9c"/><path d="m185.301 127.013c0 2.345-.525 4.559-1.461 6.554-.656 1.374-1.505 2.634-2.511 3.754-1.094 1.208-2.38 2.24-3.806 3.045-2.231 1.278-4.821 2.004-7.578 2.004-2.756 0-5.346-.726-7.578-2.004-1.251-.709-2.398-1.593-3.395-2.616-1.059-1.076-1.96-2.31-2.66-3.666-1.102-2.118-1.724-4.524-1.724-7.07 0-.105 0-.219.009-.324v-.009c.035-1.785.376-3.491.971-5.075 1.978-5.241 6.729-9.118 12.46-9.827.63-.079 1.269-.122 1.916-.122.683 0 1.365.044 2.021.131 5.688.753 10.395 4.611 12.355 9.818.595 1.584.936 3.29.971 5.075v.009c.01.105.01.218.01.323z" fill="#1a1b13"/><path d="m188.565 145.826c0 10.089-8.173 18.262-18.262 18.262s-18.262-8.173-18.262-18.262c0-4.471 1.601-8.567 4.27-11.743.7 1.356 1.601 2.59 2.66 3.666-1.636 2.275-2.59 5.058-2.59 8.077 0 4.743 2.371 8.925 5.985 11.437 2.249 1.566 4.979 2.485 7.936 2.485 2.643 0 5.119-.735 7.219-2.013 4.016-2.441 6.703-6.86 6.703-11.909 0-3.211-1.085-6.151-2.896-8.505 1.006-1.12 1.855-2.38 2.511-3.754 2.941 3.238 4.726 7.543 4.726 12.259z" fill="#1e1e18"/><path d="m177.522 140.366v17.369c-2.1 1.278-4.576 2.013-7.219 2.013-2.958 0-5.688-.919-7.936-2.485v-16.897c2.231 1.278 4.821 2.004 7.578 2.004 2.756 0 5.346-.726 7.577-2.004z" fill="#1a1b13"/><path d="m162.367 140.366v16.897c-3.614-2.511-5.985-6.694-5.985-11.437 0-3.019.954-5.801 2.59-8.077.997 1.025 2.144 1.909 3.395 2.617z" fill="#20201a"/><path d="m184.225 145.826c0 5.049-2.686 9.468-6.703 11.909v-17.369c1.426-.805 2.713-1.838 3.806-3.045 1.812 2.354 2.897 5.294 2.897 8.505z" fill="#20201a"/><path d="m141.028 23.303c0-1.6.571-2.974 1.712-4.122 1.142-1.148 2.417-1.723 3.825-1.723h7.998v2.461h-7.383c-1.135 0-2.034.335-2.697 1.005s-.995 1.463-.995 2.379c0 .93.332 1.726.995 2.389s1.562.995 2.697.995h1.23c.971 0 1.726.27 2.266.81s.81 1.193.81 1.959c0 .752-.27 1.401-.81 1.948s-1.295.82-2.266.82h-7.383v-2.461h7.383c.41 0 .615-.103.615-.308s-.205-.308-.615-.308h-1.846c-1.408 0-2.683-.571-3.825-1.712-1.14-1.141-1.711-2.519-1.711-4.132zm3.076 0c0-.752.27-1.401.81-1.948s1.295-.82 2.266-.82h7.383v2.461h-7.383c-.41 0-.615.103-.615.308s.205.308.615.308h1.846c1.408 0 2.683.571 3.825 1.712 1.142 1.142 1.712 2.519 1.712 4.132 0 1.6-.571 2.974-1.712 4.122-1.142 1.148-2.417 1.723-3.825 1.723h-7.998v-2.461h7.383c1.135 0 2.034-.335 2.697-1.005s.995-1.463.995-2.379c0-.93-.332-1.726-.995-2.389s-1.562-.995-2.697-.995h-1.23c-.971 0-1.726-.27-2.266-.81-.541-.541-.811-1.193-.811-1.959z" fill="#00448f"/><path d="m155.794 22.995c0-3.692 1.846-5.537 5.537-5.537h7.383v2.461h-7.383c-2.051 0-3.076 1.025-3.076 3.076v6.768c0 2.051 1.025 3.076 3.076 3.076h7.383v2.461h-7.383c-3.692 0-5.537-1.846-5.537-5.537zm3.076 3.077v-3.076c0-1.641.82-2.461 2.461-2.461h7.383v2.461h-6.768c-.41 0-.615.205-.615.615h5.537v2.461zm0 .615h7.998v2.461h-5.537c0 .41.205.615.615.615h6.768v2.461h-7.383c-1.641 0-2.461-.82-2.461-2.461z" fill="#00448f"/><path d="m169.945 22.995c0-3.692 1.846-5.537 5.537-5.537h7.383v2.461h-7.383c-2.051 0-3.076 1.025-3.076 3.076v6.768c0 2.051 1.025 3.076 3.076 3.076h4.922v-6.768h-4.307v-2.461h6.768v11.69h-7.383c-3.692 0-5.537-1.846-5.537-5.537zm3.076 0c0-1.641.82-2.461 2.461-2.461h7.383v2.461h-6.768c-.41 0-.615.205-.615.615v5.537c0 .41.205.615.615.615h1.23v-.615h-1.23v-2.461h3.691v5.537h-4.307c-1.641 0-2.461-.82-2.461-2.461v-6.767z" fill="#00448f"/><path d="m189.53 32.839h7.28l-4.922-12.51c-.137-.273-.41-.41-.82-.41-.342 0-.615.137-.82.41l-5.537 14.971h-2.461l5.742-15.791c.684-1.367 1.709-2.051 3.076-2.051 1.572 0 2.598.684 3.076 2.051l5.947 15.791h-10.561zm0-.615v-1.333l-1.743 4.409h-2.461l5.332-14.356c.068-.273.205-.41.41-.41s.342.137.41.41l4.307 11.28zm1.538-5.332-1.128 2.871h2.256z" fill="#00448f"/><path d="m72.578 21.851h-68.001c-2 0-3.621 1.621-3.621 3.621v33.185c0 2 1.621 3.621 3.621 3.621h68.001c1.999 0 3.621-1.621 3.621-3.621v-33.185c0-2-1.621-3.621-3.621-3.621" fill="#f5f4f4"/><path d="m4.577 21.851v.957h68.001c1.471.003 2.661 1.193 2.664 2.664v33.185c-.003 1.471-1.194 2.662-2.664 2.664h-68.001c-1.471-.003-2.661-1.193-2.664-2.664v-33.185c.003-1.471 1.193-2.661 2.664-2.664v-.957-.957c-2.528.001-4.576 2.049-4.577 4.578v33.185c.001 2.528 2.049 4.577 4.577 4.578h68.001c2.528-.001 4.577-2.049 4.577-4.578v-33.185c-.001-2.529-2.049-4.577-4.577-4.577h-68.001z" fill="#35485c"/><path d="m58.995 45.352h-6.221l-1.397 3.875h-2.019l5.67-14.849h1.713l5.681 14.849h-2.009zm-5.63-1.611h5.049l-2.529-6.946z" fill="#35485c"/><path clip-path="url(#a)" d="m32.046 46.454c-2.686 0-4.865-2.178-4.865-4.865 0-2.686 2.179-4.864 4.865-4.864 2.687 0 4.865 2.178 4.865 4.864s-2.178 4.865-4.865 4.865m-10.236-7.981c-2.687 0-4.865-2.179-4.865-4.866 0-2.686 2.178-4.864 4.865-4.864s4.865 2.179 4.865 4.864c-.001 2.687-2.178 4.866-4.865 4.866m-1.753 17.407c-2.687 0-4.864-2.179-4.864-4.865 0-2.687 2.177-4.865 4.864-4.865 2.686 0 4.865 2.178 4.865 4.865 0 2.686-2.179 4.865-4.865 4.865m-10.113-8.185c-2.687 0-4.864-2.177-4.864-4.865 0-2.686 2.178-4.864 4.864-4.864 2.687 0 4.865 2.178 4.865 4.864 0 2.688-2.177 4.865-4.865 4.865m11.048-23.052c-9.71 0-17.582 7.871-17.582 17.582 0 9.71 7.871 17.582 17.582 17.582s17.582-7.872 17.582-17.582c0-9.711-7.872-17.582-17.582-17.582" fill="#35485c"/><path clip-path="url(#a)" d="m23.496 51.015c0 1.899-1.54 3.44-3.44 3.44s-3.44-1.541-3.44-3.44c0-1.9 1.54-3.44 3.44-3.44s3.44 1.54 3.44 3.44" fill="#35485c"/><path clip-path="url(#a)" d="m13.567 42.83c0 2.001-1.622 3.624-3.623 3.624s-3.623-1.623-3.623-3.624 1.622-3.623 3.623-3.623 3.623 1.622 3.623 3.623" fill="#35485c"/><path clip-path="url(#a)" d="m25.243 33.706c0 1.9-1.541 3.44-3.44 3.44-1.9 0-3.44-1.54-3.44-3.44s1.539-3.44 3.44-3.44c1.9 0 3.44 1.54 3.44 3.44" fill="#35485c"/><path d="m331.529 18.415h-68.001c-2 0-3.621 1.621-3.621 3.621v33.185c0 1.999 1.621 3.621 3.621 3.621h68.001c2 0 3.621-1.621 3.621-3.621v-33.186c0-2-1.621-3.62-3.621-3.62" fill="#f5f4f4"/><path d="m263.528 18.415v.957h68.001c1.471.003 2.661 1.193 2.664 2.664v33.185c-.003 1.471-1.193 2.661-2.664 2.664h-68.001c-1.471-.003-2.661-1.193-2.664-2.664v-33.186c.003-1.471 1.193-2.661 2.664-2.664v-.956-.957c-2.528.001-4.577 2.049-4.577 4.577v33.185c.001 2.528 2.049 4.577 4.577 4.577h68.001c2.529-.001 4.577-2.049 4.577-4.577v-33.185c-.001-2.528-2.049-4.577-4.577-4.577h-68.001z" fill="#35485c"/><path d="m309.747 45.791v-14.85h4.854c1.611 0 2.821.333 3.631.999.816.666 1.224 1.652 1.224 2.958 0 .694-.197 1.309-.591 1.846-.395.53-.932.941-1.611 1.234.802.225 1.435.653 1.897 1.285.469.626.704 1.374.704 2.244 0 1.333-.431 2.38-1.295 3.141-.864.762-2.084 1.142-3.662 1.142h-5.151zm1.957-6.946v5.344h3.233c.911 0 1.628-.234 2.151-.704.531-.476.795-1.129.795-1.958 0-1.788-.971-2.682-2.916-2.682zm0-1.57h2.958c.856 0 1.539-.214 2.049-.642.517-.429.775-1.01.775-1.744 0-.816-.238-1.407-.713-1.775-.476-.374-1.201-.561-2.173-.561h-2.896z" fill="#35485c"/><path clip-path="url(#b)" d="m290.997 43.017c-2.743 0-4.968-2.225-4.968-4.97 0-2.743 2.225-4.967 4.968-4.967 2.745 0 4.969 2.224 4.969 4.967 0 2.745-2.224 4.97-4.969 4.97m-10.455-8.152c-2.744 0-4.968-2.225-4.968-4.969 0-2.743 2.224-4.968 4.968-4.968 2.745 0 4.968 2.225 4.968 4.968 0 2.745-2.223 4.969-4.968 4.969m-1.79 17.779c-2.744 0-4.968-2.225-4.968-4.968 0-2.744 2.224-4.968 4.968-4.968s4.968 2.224 4.968 4.968c0 2.743-2.224 4.968-4.968 4.968m-10.327-8.359c-2.745 0-4.968-2.224-4.968-4.969 0-2.743 2.223-4.967 4.968-4.967 2.744 0 4.968 2.224 4.968 4.967 0 2.745-2.225 4.969-4.968 4.969m11.283-23.544c-9.918 0-17.957 8.039-17.957 17.957 0 9.917 8.039 17.957 17.957 17.957s17.957-8.04 17.957-17.957c0-9.918-8.04-17.957-17.957-17.957" fill="#35485c"/><path clip-path="url(#b)" d="m294.545 38.048c0 1.96-1.588 3.548-3.547 3.548-1.961 0-3.549-1.588-3.549-3.548 0-1.959 1.588-3.547 3.549-3.547 1.959 0 3.547 1.588 3.547 3.547" fill="#35485c"/><path clip-path="url(#b)" d="m272.125 39.316c0 2.043-1.657 3.702-3.701 3.702-2.043 0-3.7-1.658-3.7-3.702s1.657-3.701 3.7-3.701c2.043.001 3.701 1.658 3.701 3.701" fill="#35485c"/><path clip-path="url(#b)" d="m284.05 29.997c0 1.94-1.574 3.513-3.513 3.513-1.941 0-3.514-1.573-3.514-3.513 0-1.941 1.573-3.513 3.514-3.513 1.939 0 3.513 1.573 3.513 3.513" fill="#35485c"/><path d="m372.255 104.976h-109.66c-1.992 0-3.608 1.615-3.608 3.608v33.063c0 1.992 1.615 3.608 3.608 3.608h109.659c1.992 0 3.608-1.615 3.608-3.608v-33.063c0-1.993-1.615-3.608-3.607-3.608" fill="#f5f4f4"/><g fill="#35485c"><path d="m262.595 104.976v.378h109.659c1.783.003 3.226 1.446 3.229 3.229v33.063c-.003 1.783-1.446 3.226-3.229 3.229h-109.659c-1.783-.003-3.226-1.446-3.229-3.229v-33.063c.003-1.783 1.446-3.226 3.229-3.229v-.378-.378c-2.201 0-3.986 1.784-3.986 3.986v33.063c0 2.201 1.784 3.985 3.986 3.986h109.659c2.201 0 3.985-1.784 3.986-3.986v-33.063c0-2.201-1.784-3.985-3.986-3.986h-109.659z"/><path d="m282.449 143.207h-6.901c-2.221 0-3.026-1.811-3.026-3.029v-8.473h-8.475c-2.223 0-3.028-1.811-3.028-3.029v-6.899c0-2.221 1.812-3.028 3.028-3.028h8.475v-8.474c0-2.222 1.81-3.029 3.026-3.029h6.901c2.222 0 3.028 1.812 3.028 3.029v8.474h8.472c1.165 0 2.091.51 2.604 1.436.201.364.443 1.079.416 1.59h.007v6.899c0 2.222-1.811 3.029-3.028 3.029h-8.472v8.473c.002 2.225-1.809 3.031-3.027 3.031zm-18.401-23.002c-.365.006-1.573.135-1.573 1.572v6.899c.006.365.135 1.573 1.573 1.573h9.93v9.928c.005.365.135 1.573 1.57 1.573h6.898c.372-.006 1.576-.138 1.576-1.573v-9.927h9.927c.365-.006 1.573-.136 1.573-1.573v-6.909c-.005-.278-.109-1.561-1.572-1.561h-9.926v-9.929c-.007-.365-.136-1.573-1.573-1.573h-6.901c-.365.006-1.57.135-1.57 1.573v9.928h-9.932z"/><path d="m279.001 128.771c-1.953 0-3.541-1.589-3.541-3.542s1.588-3.542 3.541-3.542 3.541 1.589 3.541 3.542c0 1.954-1.589 3.542-3.541 3.542zm0-5.629c-1.15 0-2.086.937-2.086 2.086 0 1.152.936 2.087 2.086 2.087s2.086-.936 2.086-2.087c0-1.15-.937-2.086-2.086-2.086z"/><path d="m279 110.337-2.916 4.545h5.834z"/><path d="m281.916 115.61h-5.833c-.267 0-.511-.146-.639-.378-.127-.234-.117-.518.026-.743l2.916-4.545c.268-.418.958-.417 1.225 0l2.918 4.545c.143.224.154.509.026.743-.127.232-.371.378-.639.378zm-4.501-1.455h3.171l-1.585-2.47z"/><path d="m264.052 125.229 4.545 2.915v-5.832z"/><path d="m268.597 128.871c-.137 0-.274-.039-.393-.116l-4.545-2.915c-.209-.133-.335-.364-.335-.612s.126-.478.335-.612l4.545-2.916c.223-.143.508-.154.742-.026.233.127.379.372.379.638v5.832c0 .266-.145.51-.379.638-.11.06-.23.089-.349.089zm-3.198-3.642 2.47 1.583v-3.168z"/><path d="m293.893 125.228-4.546-2.916v5.832z"/><path d="m289.348 128.871c-.12 0-.24-.029-.348-.089-.234-.128-.38-.372-.38-.638v-5.832c0-.266.145-.51.38-.638.232-.128.517-.12.742.026l4.546 2.915c.209.134.335.365.335.612 0 .248-.126.478-.335.612l-4.547 2.916c-.119.078-.257.116-.393.116zm.728-5.228v3.169l2.471-1.584z"/><path d="m279 140.12 2.918-4.545h-5.834z"/><path d="m279 140.847c-.248 0-.479-.126-.613-.335l-2.916-4.545c-.143-.224-.153-.509-.026-.743.128-.233.373-.379.639-.379h5.834c.266 0 .51.145.638.379.128.233.117.518-.026.743l-2.918 4.545c-.134.209-.365.335-.612.335zm-1.585-4.545 1.585 2.47 1.585-2.47z"/><path d="m308.752 132.278v-14.849h4.191c1.292 0 2.435.285 3.427.857.993.571 1.757 1.384 2.295 2.437.545 1.054.82 2.264.826 3.631v.948c0 1.401-.271 2.628-.816 3.682-.537 1.054-1.308 1.863-2.315 2.427-.999.564-2.165.853-3.498.867zm1.959-13.238v11.637h2.06c1.509 0 2.682-.469 3.519-1.407.843-.938 1.265-2.274 1.265-4.008v-.867c0-1.686-.398-2.995-1.194-3.927-.788-.938-1.91-1.414-3.365-1.428z"/><path d="m321.113 125.2h4.978v1.54h-4.978z"/><path d="m330.17 126.465v5.813h-1.959v-14.849h5.477c1.625 0 2.896.415 3.814 1.244.925.83 1.387 1.928 1.387 3.294 0 1.441-.452 2.553-1.356 3.335-.898.775-2.186 1.163-3.866 1.163zm0-1.602h3.519c1.047 0 1.849-.245 2.407-.735.558-.496.837-1.21.837-2.142 0-.884-.279-1.591-.837-2.121s-1.322-.806-2.295-.826h-3.631z"/><path d="m348.201 128.402h-6.221l-1.397 3.876h-2.019l5.671-14.849h1.713l5.68 14.849h-2.009zm-5.63-1.611h5.049l-2.529-6.945z"/><path d="m353.627 132.278v-14.849h4.191c1.292 0 2.435.285 3.427.857.993.571 1.758 1.384 2.296 2.437.544 1.054.819 2.264.825 3.631v.948c0 1.401-.271 2.628-.816 3.682-.537 1.054-1.308 1.863-2.315 2.427-.999.564-2.165.853-3.498.867zm1.958-13.238v11.637h2.06c1.509 0 2.683-.469 3.519-1.407.843-.938 1.265-2.274 1.265-4.008v-.867c0-1.686-.398-2.995-1.194-3.927-.788-.938-1.91-1.414-3.365-1.428z"/></g><ellipse cx="170.437" cy="124.303" fill="#040006" rx="2.35" ry="2.3" stroke="#040006" stroke-width=".9583"/><ellipse cx="98.974" cy="39.846" fill="#040006" rx="2.35" ry="2.3" stroke="#040006" stroke-width=".9583"/><ellipse cx="242.713" cy="38.222" fill="#040006" rx="2.35" ry="2.3" stroke="#040006" stroke-width=".9583"/><path d="m258.888 123.864-87.165.065" fill="#040006" stroke="#040006" stroke-width="1.1806"/><path d="m259.615 38.189-17.575.065" fill="#040006" stroke="#040006" stroke-width=".5313"/><path d="m96.996 39.547-20.592.065" fill="#040006" stroke="#040006" stroke-width=".5738"/></svg>