<svg enable-background="new 0 0 141.457 357.583" viewBox="0 0 141.457 357.583" xmlns="http://www.w3.org/2000/svg"><path d="m5.976 3.486h129.504v354.097h-129.504z" fill="#a09f9c"/><path d="m27.458 3.486h-21.482v101.214s-5.976.219-5.976-3.719 0-94.94 0-94.94 0-6.011 5.355-6.011h18.603s3.5-.517 3.5 3.456z" fill="#852c23"/><path d="m141.457 6.041v94.94s-5.976 3.719-5.976 3.719v-101.214h-21.473c0-3.973 3.5-3.465 3.5-3.465s13.23.009 18.594.009c5.355 0 5.355 6.011 5.355 6.011z" fill="#852c23"/><path d="m16.774 14.861h107.917v22.462h-107.917z" fill="#282922"/><path d="m16.774 37.323h107.917v11.087h-107.917z" fill="#fff"/><path d="m48.56 41.223v-1.015c0-.902.451-1.354 1.354-1.354h6.091v1.354h-6.091v1.015h4.737c.902 0 1.354.451 1.354 1.354v1.015c0 .902-.451 1.354-1.354 1.354h-6.091v-1.354h6.091v-1.015h-4.737c-.903 0-1.354-.451-1.354-1.354z"/><path d="m59.05 40.208v-1.354h5.076v1.354h-1.016v3.384c0 .902-.451 1.354-1.354 1.354h-3.722c-.902 0-1.354-.451-1.354-1.354v-1.015h1.354v1.015h3.722v-3.384z"/><path d="m64.802 42.577v-1.354h2.369v1.354z"/><path d="m75.631 41.223c0 .902-.451 1.354-1.354 1.354h-5.076v1.015h6.429v1.354h-7.783v-2.369c0-.902.451-1.354 1.354-1.354h5.076v-1.015h-6.429v-1.354h6.429c.902 0 1.354.451 1.354 1.354z"/><path d="m84.09 43.592c0 .902-.451 1.354-1.354 1.354h-5.076c-.902 0-1.354-.451-1.354-1.354v-3.384c0-.902.451-1.354 1.354-1.354h5.076c.902 0 1.354.451 1.354 1.354zm-1.353 0v-3.384h-5.076v3.384z"/><path d="m92.55 43.592c0 .902-.451 1.354-1.354 1.354h-5.076c-.902 0-1.354-.451-1.354-1.354v-3.384c0-.902.451-1.354 1.354-1.354h5.076c.902 0 1.354.451 1.354 1.354zm-1.353 0v-3.384h-5.076v3.384z"/><path d="m70.483 94.786c-28.675 0-51.915 23.241-51.915 51.915 0 28.675 23.241 51.915 51.915 51.915 28.675 0 51.915-23.241 51.915-51.915.001-28.674-23.24-51.915-51.915-51.915zm0 98.511c-25.734 0-46.595-20.861-46.595-46.595 0-25.735 20.861-46.595 46.595-46.595 25.735 0 46.595 20.861 46.595 46.595s-20.86 46.595-46.595 46.595z" fill="#70706e"/><circle cx="70.483" cy="146.702" fill="#8d8a89" r="46.595"/><path d="m99.403 146.702c0 15.969-12.95 28.92-28.92 28.92s-28.92-12.95-28.92-28.92c0-10.737 5.854-20.108 14.543-25.096-.595 1.584-.936 3.29-.971 5.075v.009c-5.609 4.489-9.197 11.393-9.197 19.137 0 13.554 10.99 24.544 24.544 24.544s24.544-10.99 24.544-24.544c0-7.744-3.588-14.648-9.196-19.137v-.009c-.035-1.785-.376-3.491-.971-5.075 8.69 4.987 14.544 14.359 14.544 25.096z" fill="#70706e"/><path d="m95.028 145.826c0 13.554-10.99 24.544-24.544 24.544s-24.544-10.99-24.544-24.544c0-7.744 3.588-14.648 9.197-19.137-.009.105-.009.219-.009.324 0 2.546.621 4.953 1.724 7.07-2.669 3.176-4.27 7.272-4.27 11.743 0 10.089 8.173 18.262 18.262 18.262s18.262-8.173 18.262-18.262c0-4.716-1.785-9.022-4.725-12.259.936-1.995 1.461-4.209 1.461-6.554 0-.105 0-.219-.009-.324 5.607 4.49 9.195 11.393 9.195 19.137z" fill="#2c2b25"/><path d="m38.886 146.754c0 .543-.219 1.033-.577 1.391-.359.359-.849.578-1.391.578h-7.77c-1.085 0-1.969-.884-1.969-1.969 0-.543.219-1.033.577-1.391.359-.359.849-.577 1.391-.577h7.77c1.085-.001 1.969.883 1.969 1.968zm72.478-1.969h-7.761c-.543 0-1.033.219-1.391.577-.359.359-.577.849-.577 1.391 0 1.085.884 1.969 1.969 1.969h7.761c.543 0 1.033-.219 1.391-.578.359-.359.578-.849.578-1.391-.001-1.084-.884-1.968-1.97-1.968zm-39.437 34.091c-.359-.359-.849-.577-1.391-.577-1.085 0-1.969.884-1.969 1.969v7.77c0 .543.219 1.033.578 1.391.359.359.849.578 1.391.578 1.085 0 1.969-.893 1.969-1.969v-7.77c0-.543-.219-1.033-.578-1.392zm0-74.447c-.359-.359-.849-.578-1.391-.578-1.085 0-1.969.884-1.969 1.969v5.959c.63-.079 1.269-.122 1.916-.122.683 0 1.365.044 2.021.131v-5.968c.001-.542-.218-1.032-.577-1.391zm-23.127 64.402c-.77-.77-2.021-.77-2.791 0l-5.486 5.486c-.385.385-.577.892-.577 1.391 0 .508.192 1.006.577 1.391.761.77 2.021.77 2.783 0l5.495-5.486c.376-.385.569-.893.569-1.391-.001-.507-.194-1.015-.57-1.391zm52.642-52.65c-.77-.761-2.021-.761-2.783 0l-5.495 5.495c-.376.385-.569.884-.569 1.391s.192 1.006.569 1.391c.77.77 2.021.77 2.783 0l5.495-5.486c.376-.385.569-.893.569-1.391-.001-.508-.193-1.015-.569-1.4zm.315 58.058-5.486-5.486c-.385-.385-.893-.578-1.391-.578-.508 0-1.006.193-1.391.578-.77.761-.77 2.021 0 2.783l5.486 5.495c.385.385.893.569 1.391.569.508 0 1.015-.184 1.391-.569.77-.771.77-2.022 0-2.792zm-52.642-52.642-5.486-5.486c-.385-.385-.892-.577-1.4-.577-.499 0-1.006.192-1.391.577-.761.761-.761 2.013 0 2.783l5.495 5.486c.376.385.884.577 1.391.577.508 0 1.015-.192 1.391-.577.77-.762.77-2.013 0-2.783z" fill="#a09f9c"/><path d="m85.84 127.013c0 2.345-.525 4.559-1.461 6.554-.656 1.374-1.505 2.634-2.511 3.754-1.094 1.208-2.38 2.24-3.806 3.045-2.231 1.278-4.821 2.004-7.578 2.004-2.756 0-5.346-.726-7.578-2.004-1.251-.709-2.398-1.593-3.395-2.616-1.059-1.076-1.96-2.31-2.66-3.666-1.102-2.118-1.724-4.524-1.724-7.07 0-.105 0-.219.009-.324v-.009c.035-1.785.376-3.491.971-5.075 1.978-5.241 6.729-9.118 12.46-9.827.63-.079 1.269-.122 1.916-.122.683 0 1.365.044 2.021.131 5.688.753 10.395 4.611 12.355 9.818.595 1.584.936 3.29.971 5.075v.009c.01.105.01.218.01.323z" fill="#1a1b13"/><path d="m89.104 145.826c0 10.089-8.173 18.262-18.262 18.262s-18.262-8.173-18.262-18.262c0-4.471 1.601-8.567 4.27-11.743.7 1.356 1.601 2.59 2.66 3.666-1.636 2.275-2.59 5.058-2.59 8.077 0 4.743 2.371 8.925 5.985 11.437 2.249 1.566 4.979 2.485 7.936 2.485 2.643 0 5.119-.735 7.219-2.013 4.016-2.441 6.703-6.86 6.703-11.909 0-3.211-1.085-6.151-2.896-8.505 1.006-1.12 1.855-2.38 2.511-3.754 2.941 3.238 4.726 7.543 4.726 12.259z" fill="#1e1e18"/><path d="m78.061 140.366v17.369c-2.1 1.278-4.576 2.013-7.219 2.013-2.958 0-5.688-.919-7.936-2.485v-16.897c2.231 1.278 4.821 2.004 7.578 2.004 2.756 0 5.346-.726 7.577-2.004z" fill="#1a1b13"/><path d="m62.906 140.366v16.897c-3.614-2.511-5.985-6.694-5.985-11.437 0-3.019.954-5.801 2.59-8.077.997 1.025 2.143 1.909 3.395 2.617z" fill="#20201a"/><path d="m84.764 145.826c0 5.049-2.686 9.468-6.703 11.909v-17.369c1.426-.805 2.713-1.838 3.806-3.045 1.812 2.354 2.897 5.294 2.897 8.505z" fill="#20201a"/><g fill="#00448f"><path d="m41.566 23.303c0-1.6.571-2.974 1.712-4.122 1.142-1.148 2.417-1.723 3.825-1.723h7.998v2.461h-7.383c-1.135 0-2.034.335-2.697 1.005s-.995 1.463-.995 2.379c0 .93.332 1.726.995 2.389s1.562.995 2.697.995h1.231c.971 0 1.726.27 2.266.81s.81 1.193.81 1.959c0 .752-.27 1.401-.81 1.948s-1.295.82-2.266.82h-7.383v-2.461h7.383c.41 0 .615-.103.615-.308s-.205-.308-.615-.308h-1.846c-1.408 0-2.683-.571-3.825-1.712-1.141-1.141-1.712-2.519-1.712-4.132zm3.077 0c0-.752.27-1.401.81-1.948s1.295-.82 2.266-.82h7.383v2.461h-7.383c-.41 0-.615.103-.615.308s.205.308.615.308h1.846c1.408 0 2.683.571 3.825 1.712 1.142 1.142 1.712 2.519 1.712 4.132 0 1.6-.571 2.974-1.712 4.122-1.142 1.148-2.417 1.723-3.825 1.723h-7.998v-2.461h7.383c1.135 0 2.034-.335 2.697-1.005s.995-1.463.995-2.379c0-.93-.332-1.726-.995-2.389s-1.562-.995-2.697-.995h-1.231c-.971 0-1.726-.27-2.266-.81-.54-.541-.81-1.193-.81-1.959z"/><path d="m56.332 22.995c0-3.692 1.846-5.537 5.537-5.537h7.383v2.461h-7.382c-2.051 0-3.076 1.025-3.076 3.076v6.768c0 2.051 1.025 3.076 3.076 3.076h7.383v2.461h-7.383c-3.692 0-5.537-1.846-5.537-5.537v-6.768zm3.077 3.077v-3.076c0-1.641.82-2.461 2.461-2.461h7.383v2.461h-6.768c-.41 0-.615.205-.615.615h5.537v2.461zm0 .615h7.998v2.461h-5.537c0 .41.205.615.615.615h6.768v2.461h-7.383c-1.641 0-2.461-.82-2.461-2.461z"/><path d="m70.483 22.995c0-3.692 1.846-5.537 5.537-5.537h7.383v2.461h-7.383c-2.051 0-3.076 1.025-3.076 3.076v6.768c0 2.051 1.025 3.076 3.076 3.076h4.922v-6.768h-4.307v-2.461h6.768v11.69h-7.383c-3.692 0-5.537-1.846-5.537-5.537zm3.076 0c0-1.641.82-2.461 2.461-2.461h7.383v2.461h-6.768c-.41 0-.615.205-.615.615v5.537c0 .41.205.615.615.615h1.231v-.615h-1.231v-2.461h3.692v5.537h-4.307c-1.641 0-2.461-.82-2.461-2.461z"/><path d="m90.069 32.839h7.28l-4.922-12.51c-.137-.273-.41-.41-.82-.41-.342 0-.615.137-.82.41l-5.538 14.971h-2.461l5.742-15.791c.684-1.367 1.709-2.051 3.076-2.051 1.572 0 2.598.684 3.076 2.051l5.948 15.791h-10.561zm0-.615v-1.333l-1.744 4.409h-2.461l5.332-14.356c.068-.273.205-.41.41-.41s.342.137.41.41l4.307 11.28zm1.538-5.332-1.128 2.871h2.256z"/></g></svg>