<svg enable-background="new 0 0 158.572 198.032" viewBox="0 0 158.572 198.032" xmlns="http://www.w3.org/2000/svg"><path d="m153.335 198.032h-148.098c-1.581 0-2.862-1.281-2.862-2.862v-192.308c0-1.581 1.281-2.862 2.862-2.862h7.369l1.827 1.461h129.159l2.192-1.461h7.551c1.581 0 2.862 1.281 2.862 2.862v192.308c0 1.581-1.281 2.862-2.862 2.862z" fill="#20221f"/><path d="m14.433 1.461v111.074c0 1.816 1.472 3.288 3.288 3.288h122.765c1.715 0 3.106-1.39 3.106-3.106v-111.256" fill="#2b2b26"/><path d="m0 76.18h2.375v4.019h-2.375zm0-3.334h2.375v-4.019h-2.375zm0-7.444h2.375v-4.019h-2.375zm0-7.308h2.375v-4.019h-2.375zm0-7.398h2.375v-4.019h-2.375zm0-14.57h2.375v-4.019h-2.375zm0 7.308h2.375v-4.019h-2.375zm0-13.884h2.375v-4.02h-2.375zm0-7.947h2.375v-4.019h-2.375zm0-7.582h2.375v-4.019h-2.375zm156.197 66.178h2.375v-4.019h-2.375zm0-7.353h2.375v-4.019h-2.375zm0-7.444h2.375v-4.019h-2.375zm0-7.308h2.375v-4.019h-2.375zm0-7.398h2.375v-4.019h-2.375zm0-14.57h2.375v-4.019h-2.375zm0 7.308h2.375v-4.019h-2.375zm0-13.884h2.375v-4.02h-2.375zm0-7.947h2.375v-4.019h-2.375zm0-7.582h2.375v-4.019h-2.375z" fill="#20221f"/><path d="m135.358 111.642-.053.266-.106.399-.425.106h-7.097v-1.515c-.346 1.01-.638 1.568-1.675 1.568-.292 0-.664-.053-1.143-.106l-.611-.08h-.053c-.239.133-.425.186-.744.186h-.08c-.771-.027-1.542-.027-2.313-.027h-3.721c-1.861-.027-3.243-1.037-3.748-2.658v2.658h-5.528c-.399 0-.824 0-1.249-.027-1.754-.133-3.269-1.728-3.322-3.508v-.213c-.133.718-.425 1.409-.851 1.993-.797 1.063-1.94 1.675-3.163 1.728-.744.027-1.462.053-2.206.053l-4.12-.027v-4.944h2.233c-.744-.425-1.382-1.09-1.807-2.02-.797-1.648-.664-3.322.372-4.864.797-1.143 1.86-1.781 3.057-1.834.824-.027 1.621-.027 2.445-.027h4.013v2.233h.027v1.276c.027-1.701 1.488-3.349 3.083-3.429.877-.053 1.754-.08 2.658-.08l4.412.027v2.498c.505-1.568 1.834-2.498 3.668-2.552h3.827 2.233v2.684h-.027v1.808h.053v4.572l2.18-6.671c.558-1.728 1.621-2.605 3.136-2.605.213 0 .452.027.718.053 1.143.186 1.967.877 2.339 1.967.93 2.844 1.834 5.688 2.764 8.532z" fill="#fff"/><g fill="#67889d"><path d="m134.766 111.87c-2.157 0-4.319 0-6.555 0 0-.493 0-.942 0-1.533h4.493c-.327-.988-.597-1.792-.858-2.599-.652-2.012-1.26-4.04-1.976-6.027-.173-.481-.641-1.077-1.068-1.176-.72-.167-.953.58-1.153 1.198-.997 3.083-2.022 6.155-2.986 9.249-.226.727-.557.972-1.289.952-2.011-.055-4.024-.005-6.036-.023-2.038-.018-3.371-1.352-3.416-3.462-.04-1.9-.043-3.803.001-5.704.05-2.143 1.34-3.447 3.399-3.477 1.813-.026 3.628-.005 5.505-.005v1.614c-1.559 0-3.108 0-4.658 0-2.186-.001-2.688.528-2.689 2.833 0 1.435-.006 2.869.002 4.304.009 1.534.708 2.282 2.152 2.298 1.172.012 2.345.003 3.577.003 0-1.704 0-3.286 0-5.004-.997 0-1.966 0-2.984 0 0-.585 0-1.036 0-1.557h4.649v6.592c.085.01.169.02.254.03.983-3.031 1.969-6.061 2.95-9.092.561-1.733 1.593-2.437 3.259-2.182.927.142 1.613.683 1.916 1.6 1.204 3.639 2.372 7.292 3.55 10.941.017.054-.021.127-.039.227z"/><path d="m93.69 111.903c0-.559 0-1.012 0-1.596 1.749 0 3.464.019 5.178-.006 1.435-.021 2.507-1.062 2.559-2.425.05-1.332-1.011-2.472-2.421-2.571-.573-.04-1.153.015-1.723-.047-.877-.095-1.516-.922-1.516-1.877.001-.969.634-1.834 1.518-1.86 1.875-.055 3.753-.017 5.679-.017v1.579c-.959 0-1.906 0-2.853 0-.887 0-1.773 0-2.66 0-.002.177-.003.354-.005.531.526.023 1.051.056 1.577.068 1.982.045 3.414 1.201 3.908 3.162.603 2.395-1.115 4.944-3.483 5.042-1.879.08-3.762.017-5.758.017z"/><path d="m93.674 109.682c0-.573 0-1.001 0-1.648h5.532c.001-.154.001-.309.002-.463-.564-.023-1.128-.057-1.692-.066-1.584-.027-2.762-.786-3.456-2.244-.707-1.485-.598-2.973.333-4.338.639-.936 1.521-1.571 2.634-1.607 1.943-.062 3.89-.017 5.912-.017v1.581c-1.746 0-3.493-.029-5.239.008-1.734.038-2.859 1.656-2.336 3.286.315.981 1.214 1.639 2.366 1.707.542.032 1.089-.008 1.627.047.874.089 1.536.913 1.546 1.855s-.651 1.86-1.504 1.884c-1.876.051-3.755.015-5.725.015z"/><path d="m113.113 99.318v1.56c-1.729 0-3.442-.001-5.154 0-1.8.002-2.428.638-2.44 2.502-.009 1.5-.004 3 .007 4.5.013 1.732.678 2.429 2.311 2.433 1.717.005 3.433.001 5.215.001v1.601c-1.281 0-2.543.003-3.804-.001-.798-.002-1.598.026-2.392-.03-1.464-.103-2.795-1.472-2.833-3.003-.054-2.198-.051-4.4-.001-6.598.032-1.408 1.221-2.857 2.567-2.933 2.153-.121 4.318-.032 6.524-.032z"/><path d="m124.907 111.834c1.112-3.435 2.193-6.796 3.3-10.147.078-.237.323-.49.546-.57.122-.044.463.218.527.408.903 2.686 1.776 5.384 2.68 8.155-1.312 0-2.512 0-3.755 0-.042-.399-.079-.753-.116-1.107-.054-.02-.108-.039-.161-.059-.214.622-.433 1.242-.641 1.866-.55 1.656-.548 1.656-2.38 1.454zm3.209-3.968h1.317c-.205-.635-.379-1.174-.553-1.713-.076.005-.151.01-.227.014-.164.521-.329 1.043-.537 1.699z"/><path d="m119.325 107.705c-.48-.141-.766-.224-1.107-.324 0-.436 0-.89 0-1.417h2.435v3.713c-1.245 0-2.483.071-3.704-.048-.317-.031-.817-.643-.832-1.006-.083-1.998-.059-4.002-.035-6.003.008-.702.419-1.113 1.096-1.12 1.85-.018 3.7-.006 5.632-.006v1.587c-1.391 0-2.757.039-4.119-.014-.836-.033-1.158.272-1.105 1.153.056.93.004 1.868.015 2.802.013 1.113.528 1.381 1.724.683z"/><path d="m107.776 107.974c1.718.321 3.499-.015 5.281.186v1.514c-2.038 0-4.036.049-6.028-.05-.318-.016-.794-.665-.866-1.084-.139-.803-.04-1.651-.04-2.565h5.67v1.497c-1.322 0-2.643 0-3.964 0-.018.166-.035.334-.053.502z"/><path d="m113.113 101.508v1.504c-1.768.251-3.581-.161-5.319.223.006.138.012.276.018.414h3.984v1.571c-1.844 0-3.681 0-5.655 0 0-.922-.079-1.883.042-2.817.043-.334.563-.843.881-.855 1.999-.078 4.002-.04 6.049-.04z"/></g><path d="m14.433 91.343h129.159v2.923h-129.159z" fill="#fff"/><path d="m17.812 19.593h113.631v2.923h-113.631z" fill="#fff"/></svg>