<svg enable-background="new 0 0 304.069 43.666" viewBox="0 0 304.069 43.666" xmlns="http://www.w3.org/2000/svg"><g fill="#f00"><path d="m203.88 34.947c0 5.813-2.907 8.72-8.72 8.72h-26.163c-5.77 0-8.655-2.906-8.655-8.72v-26.227c0-1.239.235-2.393.705-3.462.47-1.068 1.101-1.987 1.891-2.757.791-.77 1.71-1.379 2.757-1.828 1.049-.449 2.15-.673 3.303-.673h26.163c1.196 0 2.329.224 3.398.673s1.999 1.069 2.789 1.86 1.41 1.721 1.859 2.79c.449 1.068.673 2.201.673 3.397zm-8.72 0v-26.227h-26.163v26.227z"/><path d="m253.974 34.947c0 5.813-2.907 8.72-8.72 8.72h-26.163c-5.77 0-8.655-2.906-8.655-8.72v-26.227c0-1.239.235-2.393.705-3.462.47-1.068 1.101-1.987 1.891-2.757.791-.77 1.71-1.379 2.757-1.828 1.05-.449 2.15-.673 3.303-.673h26.163c1.196 0 2.329.224 3.398.673s1.999 1.069 2.789 1.86c.791.791 1.41 1.721 1.859 2.79.449 1.068.673 2.201.673 3.397zm-8.719 0v-26.227h-26.163v26.227z"/><path d="m304.069 34.947c0 5.813-2.907 8.72-8.72 8.72h-26.163c-5.77 0-8.655-2.906-8.655-8.72v-26.227c0-1.239.235-2.393.705-3.462.47-1.068 1.101-1.987 1.891-2.757.791-.77 1.71-1.379 2.757-1.828 1.049-.449 2.149-.673 3.303-.673h26.163c1.196 0 2.329.224 3.398.673s1.999 1.069 2.789 1.86 1.41 1.721 1.859 2.79c.449 1.068.673 2.201.673 3.397zm-8.72 0v-26.227h-26.163v26.227z"/><path d="m154.49 43.666h-26.163v-8.72h8.784v-26.226h-8.784v-8.72h17.506v34.947h8.657z"/><path d="m124.118 26.225h-26.162v-8.72h26.163v8.72z"/><path d="m91.311 43.666h-34.945c-5.814 0-8.722-2.906-8.722-8.72v-26.226c0-1.239.235-2.393.705-3.462.47-1.068 1.101-1.987 1.892-2.757s1.71-1.379 2.757-1.828c1.048-.449 2.17-.673 3.368-.673h33.471v8.72h-33.471v26.227h26.161v-8.721h-17.377v-8.72h26.161z"/><path d="m40.653 34.947c0 2.606-.791 4.711-2.373 6.315-1.582 1.603-3.719 2.405-6.411 2.405h-31.163v-8.72h31.162v-8.721h-23.211c-2.565 0-4.649-.812-6.252-2.436-1.603-1.625-2.405-3.719-2.405-6.284v-8.786c0-1.239.235-2.393.705-3.462.47-1.068 1.101-1.987 1.891-2.757.791-.77 1.71-1.379 2.757-1.828 1.048-.448 2.149-.673 3.304-.673h29.047v8.72h-29.047v8.786h23.212c1.239 0 2.393.224 3.463.673 1.069.449 1.999 1.058 2.789 1.827.791.769 1.41 1.688 1.859 2.757s.673 2.223.673 3.463z"/></g></svg>