<svg viewBox="0 0 99.5 99.5" xmlns="http://www.w3.org/2000/svg"><path d="m90.5 99.5h-81.4c-5 0-9.1-4.1-9.1-9.1v-81.3c0-5 4.1-9.1 9.1-9.1h81.4c5 0 9.1 4.1 9.1 9.1v81.4c-.1 5-4.1 9-9.1 9z" fill="#1b1b1b"/><path d="m96.7 11v77.5c0 4.7-3.8 8.5-8.5 8.5h-76.9c-4.7 0-8.5-3.8-8.5-8.5v-77.5c0-4.7 3.8-8.5 8.5-8.5h76.9c4.7 0 8.5 3.8 8.5 8.5z" fill="#0d0c0d"/><path d="m88.3 55.4c0 21.3-17.2 38.5-38.5 38.5s-38.5-17.2-38.5-38.5c0-7.6 2.2-14.6 6-20.6l-9.3-9.5c-1.6-2.2-2.6-4.9-2.6-7.8 0-7.2 5.8-13 13-13 3.9 0 7.4 1.7 9.8 4.5l9 9.9c3.9-1.3 8.1-2.1 12.5-2.1 21.3.1 38.6 17.3 38.6 38.6z" fill="#070208"/><path d="m79.1 54.9c0 16.2-13.2 29.4-29.4 29.4s-29.4-13.1-29.4-29.4c0-16.2 13.2-29.4 29.4-29.4 16.3 0 29.4 13.2 29.4 29.4z" fill="#131212"/><path d="m49.8 34.3c-11.4 0-20.6 9.2-20.6 20.6s9.2 20.6 20.6 20.6 20.6-9.2 20.6-20.6c-.1-11.4-9.3-20.6-20.6-20.6zm0 35.1c-8 0-14.5-6.5-14.5-14.5s6.5-14.5 14.5-14.5 14.5 6.5 14.5 14.5-6.5 14.5-14.5 14.5z" fill="#131212"/><path d="m49.8 29.4c-14.1 0-25.5 11.4-25.5 25.5s11.4 25.5 25.5 25.5 25.5-11.4 25.5-25.5c-.1-14.1-11.5-25.5-25.5-25.5zm0 46c-11.4 0-20.6-9.2-20.6-20.6s9.2-20.6 20.6-20.6 20.6 9.2 20.6 20.6c-.1 11.4-9.3 20.6-20.6 20.6z" fill="#070208"/><path d="m49.8 24.6c-16.7 0-30.3 13.6-30.3 30.3s13.6 30.3 30.3 30.3 30.3-13.6 30.3-30.3-13.6-30.3-30.3-30.3zm0 59.7c-16.2 0-29.4-13.1-29.4-29.4 0-16.2 13.2-29.4 29.4-29.4s29.4 13.1 29.4 29.4c-.1 16.2-13.2 29.4-29.4 29.4z" fill="#5d5d5d"/><path d="m18.3 8.4c-5 0-9.1 4.1-9.1 9.1s4.1 9.1 9.1 9.1 9.1-4.1 9.1-9.1-4.1-9.1-9.1-9.1z" fill="#891d22"/><path d="m26.7 17.5c0 4.7-3.8 8.4-8.4 8.4-4.7 0-8.4-3.8-8.4-8.4s3.7-8.5 8.4-8.5 8.4 3.8 8.4 8.5z" fill="#af2728"/><path d="m61.5 21-.7 1.9c-1.2-.4-2.3-.7-3.6-1l.3-2.1c1.3.4 2.7.7 4 1.2zm5.8 2.6-1 1.8c-1.1-.6-2.2-1.1-3.3-1.6l.7-1.9c1.2.4 2.4 1 3.6 1.7zm5.4 3.7-1.5 1.5c-.9-.8-1.9-1.5-2.9-2.1l1.2-1.7c1.1.6 2.2 1.4 3.2 2.3zm4.5 4.4-1.6 1.3c-.7-.9-1.5-1.7-2.4-2.5l1.5-1.4c.8.8 1.7 1.7 2.5 2.6zm3.3 4.7-1.9.9c-.5-.9-1.1-1.7-1.7-2.5l1.6-1.3c.8.9 1.4 1.9 2 2.9zm2.7 5.4-2 .7c-.4-1-.8-2-1.3-2.9l1.8-1c.6 1.1 1.1 2.1 1.5 3.2zm1.6 5.4-2 .4c-.2-.9-.4-1.8-.7-2.7l1.9-.7c.3 1 .6 2 .8 3zm0 14.9c-.2 1.1-.5 2.1-.8 3.1l-2-.7c.3-.9.5-1.8.7-2.8zm-1.7 5.4c-.4 1.1-.9 2.2-1.4 3.2l-1.8-1.1c.5-.9.9-1.9 1.3-2.9zm-2.6 5.4c-.6 1-1.2 1.9-1.9 2.8l-1.6-1.3c.6-.8 1.1-1.6 1.7-2.5zm-3.4 4.7c-.8 1-1.7 1.9-2.6 2.8l-1.4-1.6c.8-.8 1.6-1.6 2.3-2.4zm-4.4 4.3c-1.1.9-2.2 1.7-3.4 2.5l-.9-1.9c1-.7 2-1.4 2.9-2.2zm-5.4 3.7c-1.1.6-2.3 1.2-3.6 1.7l-.7-1.9c1.1-.5 2.2-1 3.2-1.6zm-5.8 2.6c-1.2.4-2.5.8-3.8 1.1l-.4-2c1.2-.3 2.3-.6 3.4-1zm-18.6-.9-.4 2c-1.3-.3-2.6-.6-3.8-1.1l.7-1.9c1.2.4 2.3.7 3.5 1zm-5.8-1.9-.7 1.9c-1.2-.5-2.4-1.1-3.6-1.7l1.1-1.8c1.1.7 2.1 1.2 3.2 1.6zm-5.3-2.8-1.1 1.8c-1.2-.8-2.3-1.6-3.3-2.5l1.4-1.5c1 .8 2 1.6 3 2.2zm-4.7-3.7-1.4 1.5c-.9-.9-1.8-1.8-2.6-2.7l1.6-1.3c.7.8 1.5 1.7 2.4 2.5zm-4-4.5-1.7 1.2c-.7-.9-1.3-1.8-1.8-2.7l1.8-1c.6.9 1.1 1.7 1.7 2.5zm-2.8-4.6-1.8 1.1c-.5-1-1-2.1-1.5-3.2l1.9-.7c.4.9.9 1.8 1.4 2.8zm-2.2-5.4-1.9.8c-.3-1-.6-2.1-.8-3.1l2-.3c.2.8.4 1.7.7 2.6zm0-19.6c-.3.9-.5 1.8-.7 2.8l-2-.4c.2-1 .5-2 .8-3zm2.1-5.2c-.5.9-.9 1.9-1.3 2.9l-2-.7c.4-1.1.9-2.1 1.4-3.1zm2.9-4.7c-.6.8-1.1 1.6-1.6 2.4l-1.8-1c.6-.9 1.2-1.9 1.8-2.7zm4-4.5c-.8.8-1.6 1.6-2.4 2.5l-1.6-1.3c.8-1 1.7-1.9 2.6-2.7zm4.7-3.8c-1 .7-2 1.4-2.9 2.1l-1.4-1.6c1-.8 2.1-1.6 3.2-2.3zm5.4-2.9c-1.1.5-2.2 1-3.2 1.5l-1-1.7c1.1-.6 2.2-1.1 3.4-1.6zm5.7-1.8c-1.2.3-2.3.6-3.4.9l-.9-1.8c1.2-.4 2.5-.8 3.8-1.1z" fill="#ce6e32"/><g fill="#cd6c30"><path d="m48.1 19.9h-1.2v1.8h-.5v-1.8h-1.2v-.2h2.8v.2zm2.1-.3c.5 0 .9.1 1.2.3s.5.5.5.8-.2.6-.5.8-.7.3-1.2.3-.9-.1-1.2-.3-.5-.5-.5-.8.2-.6.5-.8.7-.3 1.2-.3zm0 2c.4 0 .7-.1.9-.2s.3-.4.3-.6c0-.3-.1-.5-.3-.6s-.5-.2-.9-.2-.7.1-.9.2-.3.4-.3.6c0 .3.1.5.3.6s.5.2.9.2zm2.3-1.9h2c.2 0 .4.1.5.2s.2.2.2.4-.1.4-.3.5-.6.2-1 .2h-.9v.8h-.5zm.5 1h.9c.3 0 .5 0 .6-.1s.2-.2.2-.3 0-.2-.1-.2c-.1-.1-.2-.1-.3-.1h-1.3z"/><path d="m15.4 49.8 1.5.2-.2 3.4h-4.8v-.5l3.3-1.2zm0 9.7 1.5-.2-.2-3.4h-4.8v.5l3.3 1.2z"/><path d="m84.6 59.5-1.5-.2.2-3.4h4.8v.5l-3.3 1.2zm0-9.7-1.5.2.2 3.4h4.8v-.5l-3.3-1.2z"/></g><path d="m64.3 55.1c0 8-6.5 14.5-14.5 14.5s-14.5-6.5-14.5-14.5 6.5-14.5 14.5-14.5 14.5 6.5 14.5 14.5z" fill="#070208"/><path d="m39.7 49.2v11.7l10.1 5.9 10.1-5.9v-11.7l-10.1-5.8z" fill="#161717"/><path d="m40.8 60.3v-10.4l9-5.2 9 5.2v10.4l-9 5.2z" fill="#2f2e2e"/><circle cx="49.8" cy="55.1" fill="#161717" r="3.4"/></svg>