<svg enable-background="new 0 0 225.067 99.542" viewBox="0 0 225.067 99.542" xmlns="http://www.w3.org/2000/svg" xmlns:xlink="http://www.w3.org/1999/xlink"><clipPath id="a"><path d="m1.401 7.019h18.673v18.673h-18.673z"/></clipPath><path d="m145.626 99.542h-81.376c-4.996 0-9.083-4.087-9.083-9.083v-81.376c0-4.996 4.087-9.083 9.083-9.083h81.376c4.996 0 9.083 4.087 9.083 9.083v81.376c0 4.996-4.088 9.083-9.083 9.083z" fill="#1b1b1b"/><path d="m151.862 11.038v77.47c0 4.7-3.799 8.528-8.467 8.528h-76.91c-4.668 0-8.462-3.827-8.462-8.528v-77.47c0-4.701 3.794-8.528 8.462-8.528h76.909c4.669.001 8.468 3.828 8.468 8.528z" fill="#0d0c0d"/><path d="m143.436 55.412c0 21.263-17.233 38.496-38.496 38.496-21.262 0-38.496-17.233-38.496-38.496 0-7.57 2.189-14.635 5.965-20.591l-9.254-9.479c-1.614-2.166-2.571-4.853-2.571-7.759 0-7.175 5.813-12.988 12.988-12.988 3.928 0 7.441 1.743 9.819 4.49v.004l9.046 9.902c3.919-1.343 8.123-2.074 12.501-2.074 21.264-.001 38.498 17.232 38.498 38.495z" fill="#070208"/><path d="m134.315 54.883c0 16.226-13.154 29.375-29.376 29.375s-29.376-13.149-29.376-29.375c0-16.222 13.154-29.371 29.376-29.371s29.376 13.149 29.376 29.371z" fill="#131212"/><path d="m104.94 34.324c-11.356 0-20.559 9.208-20.559 20.559 0 11.355 9.203 20.558 20.559 20.558s20.559-9.203 20.559-20.558c0-11.351-9.203-20.559-20.559-20.559zm0 35.065c-8.007 0-14.501-6.494-14.501-14.506 0-8.007 6.494-14.502 14.501-14.502 8.012 0 14.502 6.495 14.502 14.502 0 8.012-6.49 14.506-14.502 14.506z" fill="#131212"/><path d="m104.94 29.422c-14.064 0-25.466 11.402-25.466 25.462 0 14.065 11.402 25.466 25.466 25.466 14.065 0 25.466-11.401 25.466-25.466 0-14.061-11.401-25.462-25.466-25.462zm0 46.02c-11.356 0-20.559-9.203-20.559-20.558 0-11.351 9.203-20.559 20.559-20.559s20.559 9.208 20.559 20.559c0 11.355-9.203 20.558-20.559 20.558z" fill="#070208"/><path d="m104.94 24.592c-16.732 0-30.295 13.563-30.295 30.291 0 16.732 13.563 30.295 30.295 30.295 16.733 0 30.295-13.563 30.295-30.295 0-16.728-13.563-30.291-30.295-30.291zm0 59.666c-16.222 0-29.376-13.149-29.376-29.375 0-16.222 13.154-29.371 29.376-29.371s29.376 13.149 29.376 29.371c-.001 16.226-13.155 29.375-29.376 29.375z" fill="#5d5d5d"/><path d="m73.458 8.384c-5.018 0-9.084 4.066-9.084 9.084s4.065 9.084 9.084 9.084c5.018 0 9.083-4.066 9.083-9.084s-4.065-9.084-9.083-9.084z" fill="#891d22"/><path d="m81.889 17.468c0 4.659-3.771 8.431-8.43 8.431s-8.431-3.772-8.431-8.431 3.771-8.43 8.431-8.43c4.658-.001 8.43 3.771 8.43 8.43z" fill="#af2728"/><g fill="#ce6e32"><path d="m116.636 20.981-.731 1.937c-1.154-.391-2.341-.718-3.551-.975l.299-2.056c1.361.285 2.691.653 3.983 1.094z"/><path d="m122.454 23.562-1.007 1.812c-1.062-.594-2.157-1.132-3.289-1.601l.726-1.941c1.229.511 2.42 1.091 3.57 1.73z"/><path d="m127.877 27.268-1.463 1.481c-.933-.768-1.909-1.481-2.921-2.143l1.159-1.711c1.122.727 2.199 1.523 3.225 2.373z"/><path d="m132.333 31.684-1.592 1.329c-.75-.887-1.545-1.733-2.382-2.539l1.481-1.445c.874.838 1.707 1.726 2.493 2.655z"/><path d="m135.704 36.408-1.858.924c-.524-.874-1.09-1.72-1.697-2.539l1.633-1.274c.69.93 1.333 1.89 1.922 2.889z"/><path d="m138.353 41.834-1.959.667c-.391-1.003-.823-1.978-1.306-2.93l1.84-.951c.529 1.044 1.002 2.116 1.425 3.214z"/><path d="m139.95 47.211-2.042.354c-.193-.916-.427-1.812-.699-2.695l1.95-.722c.308 1.003.574 2.024.791 3.063z"/><path d="m139.922 62.113c-.225 1.062-.501 2.102-.818 3.123l-1.941-.745c.285-.915.529-1.849.731-2.796z"/><path d="m138.307 67.494c-.432 1.104-.915 2.184-1.448 3.233l-1.78-1.076c.473-.933.901-1.895 1.288-2.879z"/><path d="m135.636 72.917c-.585.975-1.219 1.918-1.895 2.824l-1.55-1.384c.593-.805 1.149-1.637 1.665-2.498z"/><path d="m132.292 77.566c-.818.971-1.688 1.89-2.608 2.759l-1.366-1.554c.805-.768 1.568-1.578 2.29-2.419z"/><path d="m127.858 81.95c-1.071.887-2.194 1.711-3.367 2.47l-.943-1.854c1.012-.667 1.987-1.384 2.921-2.152z"/><path d="m122.509 85.611c-1.15.648-2.346 1.233-3.574 1.743l-.736-1.932c1.108-.469 2.185-.993 3.229-1.573z"/><path d="m116.659 88.218c-1.237.423-2.502.777-3.799 1.057l-.381-2.032c1.172-.257 2.318-.58 3.44-.957z"/><path d="m98.091 87.271-.372 2.038c-1.306-.281-2.585-.635-3.831-1.053l.731-1.937c1.132.377 2.291.694 3.472.952z"/><path d="m92.315 85.449-.731 1.937c-1.228-.506-2.419-1.085-3.569-1.725l1.099-1.756c1.035.57 2.102 1.084 3.201 1.544z"/><path d="m87.003 82.635-1.081 1.771c-1.158-.754-2.272-1.573-3.329-2.451l1.393-1.532c.961.791 1.968 1.531 3.017 2.212z"/><path d="m82.224 78.864-1.421 1.503c-.915-.865-1.78-1.78-2.599-2.741l1.624-1.279c.755.879 1.554 1.721 2.396 2.517z"/><path d="m78.31 74.434-1.651 1.242c-.653-.874-1.26-1.78-1.821-2.714l1.788-1.034c.525.86 1.086 1.697 1.684 2.506z"/><path d="m75.417 69.757-1.775 1.071c-.543-1.048-1.03-2.129-1.467-3.233l1.946-.713c.386.985.818 1.942 1.296 2.875z"/><path d="m73.251 64.38-1.913.837c-.317-1.021-.593-2.064-.818-3.127l2.042-.345c.192.892.418 1.771.689 2.635z"/><path d="m73.247 44.838c-.285.916-.524 1.845-.722 2.792l-2.033-.381c.207-1.016.464-2.015.768-2.994z"/><path d="m75.362 39.562c-.469.925-.896 1.877-1.279 2.852l-1.955-.681c.409-1.053.869-2.084 1.375-3.086z"/><path d="m78.232 34.881c-.575.782-1.117 1.591-1.619 2.419l-1.799-1.021c.566-.942 1.177-1.858 1.83-2.736z"/><path d="m82.22 30.35c-.832.787-1.619 1.615-2.364 2.484l-1.637-1.274c.81-.952 1.67-1.853 2.576-2.713z"/><path d="m87.012 26.565c-1.016.658-1.991 1.376-2.925 2.139l-1.375-1.551c1.021-.842 2.092-1.628 3.21-2.345z"/><path d="m92.37 23.736c-1.095.456-2.162.966-3.192 1.532l-1.058-1.78c1.095-.603 2.226-1.15 3.39-1.637z"/><path d="m98.082 21.943c-1.177.253-2.327.566-3.449.947l-.828-1.909c1.237-.423 2.511-.777 3.807-1.053z"/></g><path d="m103.291 19.919h-1.183v1.847h-.475v-1.847h-1.173v-.249h2.832v.249z" fill="#cd6c30"/><path d="m105.35 19.634c.501 0 .911.099 1.229.297.318.199.478.461.478.786 0 .326-.16.588-.478.787-.318.198-.729.297-1.229.297-.502 0-.913-.1-1.234-.298-.32-.199-.481-.461-.481-.786s.161-.588.481-.786.732-.297 1.234-.297zm-.005 1.93c.357 0 .651-.074.879-.223s.342-.356.342-.624c0-.267-.113-.475-.341-.623-.228-.149-.518-.223-.871-.223-.359 0-.653.074-.884.223-.23.148-.345.356-.345.623 0 .266.115.474.344.623.23.15.522.224.876.224z" fill="#cd6c30"/><path d="m107.686 19.67h1.334c.292 0 .538.016.735.048.199.032.354.102.47.208.116.107.173.225.173.356 0 .212-.115.372-.345.482-.229.11-.56.164-.995.164h-.9v.838h-.473v-2.096zm.473 1.01h.906c.304 0 .52-.034.65-.101.129-.066.194-.163.194-.289 0-.084-.036-.158-.107-.223-.072-.065-.162-.105-.272-.123s-.268-.026-.475-.026h-.896z" fill="#cd6c30"/><path d="m70.526 49.771 1.533.217-.23 3.373h-4.714v-.498l3.238-1.188z" fill="#cd6c30"/><path d="m70.526 59.513 1.533-.218-.23-3.372h-4.714v.498l3.238 1.188z" fill="#cd6c30"/><path d="m139.814 59.538-1.533-.217.23-3.372h4.715v.497l-3.24 1.189z" fill="#cd6c30"/><path d="m139.814 49.797-1.533.218.23 3.372h4.715v-.498l-3.24-1.189z" fill="#cd6c30"/><path d="m119.467 55.063c0 8.011-6.49 14.506-14.502 14.506-8.007 0-14.501-6.494-14.501-14.506 0-8.007 6.494-14.502 14.501-14.502 8.012 0 14.502 6.495 14.502 14.502z" fill="#070208"/><path d="m94.831 49.214v11.702l10.134 5.851 10.134-5.851v-11.702l-10.134-5.851z" fill="#161717"/><path d="m95.967 60.26v-10.39l8.998-5.196 8.999 5.196v10.39l-8.999 5.195z" fill="#2f2e2e"/><circle cx="104.965" cy="55.065" fill="#161717" r="3.406"/><path d="m222.998 43.942h-56.915c-1.034 0-1.872.838-1.872 1.872v17.16c0 1.034.838 1.872 1.872 1.872h56.915c1.034 0 1.872-.838 1.872-1.872v-17.16c.001-1.033-.838-1.872-1.872-1.872" fill="#f4f4f4"/><path d="m166.083 43.942v.196h56.915c.926.002 1.674.751 1.676 1.676v17.16c-.002.926-.751 1.674-1.676 1.676h-56.915c-.926-.002-1.674-.751-1.676-1.676v-17.16c.002-.926.751-1.674 1.676-1.676v-.196-.196c-1.143 0-2.069.926-2.069 2.069v17.16c0 1.143.926 2.069 2.069 2.069h56.915c1.143 0 2.069-.926 2.069-2.069v-17.16c0-1.143-.926-2.069-2.069-2.069h-56.915z" fill="#35495e"/><path d="m176.388 63.785h-3.581c-1.153 0-1.571-.94-1.571-1.572v-4.398h-4.399c-1.153 0-1.572-.939-1.572-1.572v-3.581c0-1.153.94-1.571 1.572-1.571h4.399v-4.398c0-1.153.939-1.572 1.571-1.572h3.581c1.154 0 1.572.94 1.572 1.572v4.398h4.397c.605 0 1.085.264 1.352.745.104.189.23.56.216.826h.004v3.581c0 1.154-.94 1.572-1.572 1.572h-4.397v4.398c0 1.154-.94 1.572-1.572 1.572zm-9.551-11.938c-.189.003-.816.07-.816.816v3.581c.003.189.07.816.816.816h5.154v5.153c.002.189.07.816.815.816h3.58c.193-.003.818-.071.818-.816v-5.153h5.152c.189-.003.816-.07.816-.816v-3.586c-.002-.144-.056-.81-.816-.81h-5.152v-5.154c-.003-.189-.07-.816-.816-.816h-3.581c-.189.003-.815.07-.815.816v5.153z" fill="#35495e"/><path d="m174.598 56.293c-1.013 0-1.838-.825-1.838-1.839s.825-1.838 1.838-1.838c1.014 0 1.838.825 1.838 1.838 0 1.014-.825 1.839-1.838 1.839zm0-2.922c-.597 0-1.082.486-1.082 1.083 0 .598.485 1.083 1.082 1.083s1.083-.486 1.083-1.083-.486-1.083-1.083-1.083z" fill="#35495e"/><path d="m174.598 46.725-1.514 2.359h3.028z" fill="#35495e"/><path d="m176.111 49.462h-3.028c-.138 0-.265-.076-.331-.196-.066-.121-.061-.269.014-.385l1.513-2.359c.139-.217.497-.217.635 0l1.514 2.359c.075.116.08.264.014.385-.065.12-.192.196-.331.196zm-2.336-.756h1.645l-.823-1.282z" fill="#35495e"/><path d="m166.839 54.454 2.359 1.513v-3.027z" fill="#35495e"/><path d="m169.198 56.345c-.071 0-.142-.02-.204-.06l-2.359-1.513c-.108-.069-.173-.188-.173-.318 0-.129.065-.248.173-.318l2.359-1.514c.116-.074.264-.08.385-.014s.197.193.197.331v3.027c0 .138-.075.265-.197.331-.057.033-.119.048-.181.048zm-1.659-1.891 1.282.822v-1.644z" fill="#35495e"/><path d="m182.327 54.453-2.359-1.513v3.027z" fill="#35495e"/><path d="m179.968 56.345c-.062 0-.124-.015-.181-.047-.121-.067-.197-.193-.197-.331v-3.027c0-.138.075-.265.197-.331.12-.067.268-.062.385.014l2.36 1.513c.108.069.174.189.174.318s-.066.248-.174.318l-2.36 1.513c-.061.039-.133.06-.204.06zm.378-2.714v1.645l1.282-.822z" fill="#35495e"/><path d="m174.598 62.182 1.514-2.358h-3.028z" fill="#35495e"/><path d="m174.598 62.56c-.129 0-.248-.066-.318-.174l-1.513-2.359c-.075-.117-.08-.264-.014-.386.067-.121.193-.197.331-.197h3.028c.138 0 .265.075.331.197.067.121.061.269-.014.386l-1.514 2.359c-.069.109-.189.174-.317.174zm-.823-2.359.822 1.282.823-1.282z" fill="#35495e"/><path d="m190.04 58.113v-7.707h2.175c.67 0 1.263.148 1.779.444.515.296.912.718 1.191 1.265.282.547.425 1.175.429 1.885v.492c0 .727-.141 1.364-.424 1.911-.279.547-.679.967-1.202 1.26-.519.293-1.124.443-1.816.45zm1.016-6.871v6.04h1.07c.783 0 1.392-.244 1.826-.73.438-.487.657-1.181.657-2.08v-.45c0-.875-.206-1.554-.619-2.038-.409-.487-.992-.734-1.747-.741h-1.187z" fill="#35495e"/><path d="m196.455 54.439h2.583v.799h-2.583z" fill="#35495e"/><path d="m201.156 55.096v3.017h-1.016v-7.707h2.842c.844 0 1.503.215 1.98.645.48.431.72 1.001.72 1.71 0 .748-.235 1.325-.704 1.731-.466.402-1.135.604-2.006.604zm0-.831h1.826c.544 0 .96-.127 1.249-.381.289-.258.434-.628.434-1.112 0-.458-.145-.826-.434-1.101s-.686-.418-1.191-.428h-1.885v3.022z" fill="#35495e"/><path d="m210.514 56.101h-3.229l-.725 2.012h-1.048l2.943-7.707h.889l2.949 7.707h-1.043zm-2.922-.836h2.62l-1.312-3.605z" fill="#35495e"/><path d="m213.331 58.113v-7.707h2.175c.67 0 1.263.148 1.779.444.515.296.912.718 1.191 1.265.282.547.425 1.175.429 1.885v.492c0 .727-.141 1.364-.424 1.911-.279.547-.68.967-1.202 1.26-.519.293-1.124.443-1.816.45zm1.016-6.871v6.04h1.07c.783 0 1.392-.244 1.826-.73.437-.487.656-1.181.656-2.08v-.45c0-.875-.206-1.554-.619-2.038-.409-.487-.992-.734-1.747-.741h-1.186z" fill="#35495e"/><path d="m37.669 5.812h-35.293c-1.038 0-1.879.841-1.879 1.879v17.224c0 1.038.841 1.879 1.879 1.879h35.294c1.038 0 1.879-.842 1.879-1.879v-17.224c0-1.038-.842-1.879-1.88-1.879" fill="#f4f4f4"/><path d="m2.376 5.811v.496h35.294c.763.001 1.381.619 1.383 1.383v17.224c-.001.763-.619 1.381-1.383 1.383h-35.294c-.764-.001-1.381-.619-1.383-1.383v-17.223c.001-.764.619-1.381 1.383-1.383v-.497-.496c-1.313 0-2.376 1.063-2.376 2.376v17.224c0 1.312 1.063 2.375 2.376 2.376h35.294c1.312 0 2.375-1.063 2.376-2.376v-17.224c0-1.312-1.064-2.375-2.376-2.376h-35.294z" fill="#35495e"/><path d="m26.364 20.02v-7.707h2.52c.836 0 1.464.173 1.884.519.424.346.635.858.635 1.535 0 .36-.102.679-.307.958-.205.275-.484.489-.836.64.416.117.745.339.985.667.244.325.365.713.365 1.164 0 .692-.224 1.235-.672 1.63s-1.082.593-1.9.593h-2.674zm1.016-3.604v2.774h1.678c.473 0 .845-.122 1.117-.365.275-.247.413-.586.413-1.016 0-.928-.505-1.392-1.514-1.392h-1.694zm0-.816h1.535c.445 0 .799-.111 1.064-.333.268-.222.402-.524.402-.905 0-.424-.123-.73-.371-.921-.247-.194-.623-.291-1.127-.291h-1.503z" fill="#35495e"/><path clip-path="url(#a)" d="m16.633 18.581c-1.424 0-2.579-1.155-2.579-2.579s1.155-2.578 2.579-2.578 2.579 1.154 2.579 2.578c-.001 1.424-1.155 2.579-2.579 2.579m-5.427-4.231c-1.424 0-2.579-1.155-2.579-2.579s1.154-2.579 2.579-2.579 2.579 1.155 2.579 2.579-1.154 2.579-2.579 2.579m-.929 9.227c-1.424 0-2.579-1.155-2.579-2.579s1.155-2.579 2.579-2.579 2.579 1.154 2.579 2.579c0 1.424-1.155 2.579-2.579 2.579m-5.36-4.338c-1.424 0-2.579-1.154-2.579-2.579 0-1.424 1.154-2.578 2.579-2.578s2.579 1.154 2.579 2.578c-.001 1.424-1.155 2.579-2.579 2.579m5.856-12.22c-5.147 0-9.32 4.172-9.32 9.32 0 5.147 4.173 9.32 9.32 9.32s9.32-4.173 9.32-9.32c0-5.148-4.173-9.32-9.32-9.32" fill="#35495e"/><path clip-path="url(#a)" d="m18.474 16.002c0 1.017-.824 1.842-1.841 1.842s-1.842-.824-1.842-1.842c0-1.017.824-1.841 1.842-1.841 1.016 0 1.841.824 1.841 1.841" fill="#35495e"/><path clip-path="url(#a)" d="m6.837 16.66c0 1.061-.86 1.921-1.921 1.921s-1.92-.861-1.92-1.921.86-1.921 1.921-1.921 1.92.86 1.92 1.921" fill="#35495e"/><path clip-path="url(#a)" d="m13.027 11.823c0 1.007-.817 1.823-1.824 1.823s-1.823-.816-1.823-1.823.816-1.824 1.823-1.824c1.007.001 1.824.817 1.824 1.824" fill="#35495e"/><ellipse cx="73.333" cy="17.576" fill="#434547" rx="1.22" ry="1.194"/><ellipse cx="105.01" cy="55.131" fill="#434547" rx="1.22" ry="1.194"/><path d="m164.024 55.05-59.246.034" fill="#434547" stroke="#434547" stroke-width=".7012"/><path d="m73.339 17.475-33.68.034" fill="#434547" stroke="#434547" stroke-width=".5292"/></svg>