<svg enable-background="new 0 0 30 30" viewBox="0 0 30 30" xmlns="http://www.w3.org/2000/svg"><g transform="matrix(.23701688 0 0 -.23701688 .000249 25.994195)"><g fill="#5f5f5f"><path d="m69.878-16.573h-13.41v10.675h13.41z"/><path d="m126.572-5.898v-10.962c-5.35-.227-10.556.478-15.583 2.161-5.062 1.696-9.732 4.048-13.838 7.26-.645.501-1.302 1.016-1.935 1.541z"/><path d="m31.489-5.898c-4.31-3.642-9.254-6.424-14.747-8.395-5.027-1.79-10.197-2.722-15.594-2.567h-1.146c0 3.725-.013 7.355.024 10.962z"/></g><path d="m44.863 10.365c-1.803-3.343-3.952-6.508-6.568-9.433-1.994-2.232-4.035-4.442-6.316-6.424-.167-.144-.322-.274-.49-.406h-31.463c-.012 1.015 0 2.017.012 3.033 0 .298.418.812.704.859 4.24.693 8.264 1.994 11.953 3.964 2.938 1.576 5.804 3.344 8.455 5.301 1.325.967 2.579 2.007 3.772 3.105z" fill="#676767"/><path d="m126.572-2.184v-3.714h-31.356c-1.182.943-2.328 1.91-3.403 2.938-3.272 3.164-6.042 6.687-8.406 10.484-.585.931-1.135 1.887-1.66 2.841h20.012c.849-.824 1.72-1.624 2.639-2.365 6.162-5.014 13.194-8.597 21.41-9.981.263-.036.513-.132.764-.203" fill="#676767"/><path d="m69.878-5.898h-13.41v16.263h13.41z" fill="#676767"/><path d="m69.878 10.365h-13.41v15.917h13.41z" fill="#909090"/><path d="m101.76 10.365h-20.012c-1.684 3.021-3.081 6.162-4.191 9.421-.729 2.149-1.385 4.299-1.887 6.496h14.066c1.923-3.881 4.263-7.559 7.26-10.878 1.54-1.708 3.092-3.439 4.764-5.039" fill="#909090"/><path d="m50.893 26.282c-.657-3.117-1.648-6.15-2.854-9.123-.943-2.328-1.982-4.596-3.176-6.794h-19.941c2.961 2.662 5.529 5.672 7.774 8.931 1.551 2.257 2.997 4.574 4.227 6.986z" fill="#909090"/><path d="m52.421 39.417c0-.597-.012-1.194-.012-1.791-.024-3.02-.645-6.054-1.099-9.063-.119-.764-.251-1.528-.418-2.28h-13.97c.8 1.576 1.504 3.187 2.089 4.848.956 2.734 1.791 5.504 2.568 8.286z" fill="#b8b8b8"/><path d="m69.878 26.282h-13.41v13.135h13.41z" fill="#b8b8b8"/><path d="m89.735 26.282h-14.065c-.394 1.66-.681 3.343-.837 5.039-.251 2.699-.525 5.397-.644 8.096h10.651c.645-2.77 1.611-5.469 2.674-8.156.669-1.683 1.409-3.355 2.221-4.979" fill="#b8b8b8"/><path d="m52.481 56.528c0-5.707-.024-11.415-.06-17.111h-10.842c.322 1.17.633 2.328.931 3.498.49 1.875.729 3.857.752 5.791.036 2.604.06 5.218.084 7.821h9.135z" fill="#d1d1d1"/><path d="m84.84 39.417h-10.651c-.024.68-.048 1.362-.048 2.042-.024 5.027-.035 10.041-.035 15.068h8.955c0-1.314.025-2.627.036-3.928.047-3.284.692-6.556 1.123-9.827.142-1.134.357-2.245.62-3.355" fill="#d1d1d1"/><path d="m69.878 39.416h-13.41v17.111h13.41z" fill="#d1d1d1"/><path d="m69.878 56.528h-13.41v13.541h13.41z" fill="#b2b2b2"/><path d="m83.061 56.528h-8.956c-.012 4.514-.012 9.027-.012 13.541h8.932c-.013-4.527-.013-9.039.036-13.541" fill="#b2b2b2"/><path d="m52.481 70.068v-13.54h-9.135c.036 4.514.072 9.027.095 13.541h9.04z" fill="#b2b2b2"/><path d="m52.469 83.513c0-4.489 0-8.968.012-13.445h-9.038c.035 4.669.059 9.337.084 14.007v.704h8.943v-1.266z" fill="#757575"/><path d="m83.049 84.791v-1.206c0-4.501-.024-9.015-.024-13.516h-8.932c.013 4.466.013 8.92.013 13.385v1.337z" fill="#757575"/><path d="m56.469 85.065h13.41v-14.998h-13.41z" fill="#757575"/></g></svg>