<svg viewBox="0 0 408.295 109.564" xmlns="http://www.w3.org/2000/svg"><path d="m88.517 109.192h-22.903l-5.694-20.427h-30.95l-5.942 20.427h-23.028l28.598-94.831c1.114-3.714 2.971-6.809 5.695-9.409 2.6-2.6 5.819-3.962 9.533-3.962 4.085 0 7.676 1.362 10.771 4.209s5.2 6.314 6.438 10.399zm-34.788-40.235-9.161-46.301-10.151 46.301zm93.718-46.054h-20.056v86.289h-22.532v-86.289h-20.303v-20.303h62.891zm84.679 86.289h-22.903l-5.695-20.427h-30.95l-5.942 20.427h-23.027l28.598-94.831c1.114-3.714 2.971-6.809 5.695-9.409 2.6-2.6 5.819-3.962 9.533-3.962 4.085 0 7.676 1.362 10.771 4.209s5.2 6.314 6.438 10.399zm-34.788-40.235-9.161-46.301-10.152 46.301zm115.135 40.235h-25.998l-21.913-41.968c-.99-1.981-1.857-3.838-2.476-5.571-.619-1.609-.99-2.971-.99-3.838 0-4.704 3.59-8.542 11.018-11.513 7.304-2.971 11.018-6.809 11.018-11.266 0-2.724-.99-5.447-3.095-8.171-2.105-2.6-4.333-3.962-6.809-3.962h-12.875v86.289h-21.789v-92.108c0-3.219 1.486-6.438 4.457-9.533s5.942-4.581 8.914-4.581h21.665c8.418 0 15.846 3.095 22.16 9.161 6.314 6.19 9.533 13.247 9.533 21.294 0 6.438-1.857 11.885-5.447 16.342s-8.666 8.171-14.98 11.142zm31.074.372h-22.656v-106.593h22.656zm51.13-18.323v15.351c0 .619-.371 1.238-1.238 1.857s-1.733.867-2.6.867c-1.362 0-3.095-.99-5.323-2.971-2.105-1.981-4.333-3.962-6.438-6.066-2.105-1.981-3.838-3.095-5.076-3.095-.619 0-1.238.248-1.857.867-.619.495-.867 1.238-.867 2.105s.248 1.609.867 2.228 1.362.867 2.352.867v5.942c-2.476 0-4.581-.867-6.438-2.724-1.733-1.857-2.724-3.962-2.724-6.438s.867-4.581 2.724-6.314c1.733-1.733 3.838-2.6 6.314-2.6s5.076 1.238 7.428 3.59c2.476 2.352 4.828 4.581 7.057 6.809l.124-10.399h5.695zm-2.476-20.551c-1.981-2.105-4.333-3.095-7.18-3.095-2.6 0-4.828.99-6.438 2.724-1.733 1.857-2.6 4.209-2.6 7.057l-10.647-5.076v6.809s1.486.743 4.333 2.228c2.847 1.486 5.819 2.847 8.79 4.209s4.952 1.981 6.066 1.981c2.724 0 5.2-.99 7.304-2.724 2.105-1.733 3.219-3.962 3.219-6.685 0-2.847-.867-5.323-2.847-7.428zm-4.21 9.657c-.743.619-1.609.99-2.847.99-.99 0-1.857-.371-2.724-1.114s-1.238-1.733-1.238-2.724.495-1.981 1.238-2.724 1.733-1.114 2.847-1.114c.99 0 1.857.371 2.6.99.743.743 1.114 1.609 1.114 2.847.001 1.239-.371 2.106-.99 2.849zm6.809-30.455c0-4.333-1.486-7.799-4.457-10.399-3.095-2.724-6.561-4.085-10.399-4.085s-7.304 1.486-10.275 4.457-4.457 6.438-4.457 10.399 1.486 7.552 4.457 10.523c2.847 2.971 6.561 4.457 10.771 4.457 4.333 0 7.799-1.486 10.399-4.581 2.6-2.972 3.961-6.686 3.961-10.771zm-8.17 6.437c-1.609 1.857-3.714 2.724-6.19 2.724-2.352 0-4.457-.867-6.314-2.6s-2.724-3.838-2.724-6.438c0-2.228.867-4.209 2.6-5.942s3.714-2.6 5.942-2.6c2.724 0 4.828.867 6.561 2.352 1.609 1.733 2.476 3.714 2.476 6.066.001 2.477-.742 4.705-2.351 6.438zm8.17-38.873c0-4.333-1.486-7.799-4.457-10.399-3.095-2.724-6.561-4.085-10.399-4.085s-7.304 1.486-10.275 4.457-4.457 6.438-4.457 10.399 1.486 7.552 4.457 10.523c2.847 2.971 6.561 4.457 10.771 4.457 4.333 0 7.799-1.486 10.399-4.581 2.6-2.972 3.961-6.686 3.961-10.771zm-8.17 6.437c-1.609 1.857-3.714 2.724-6.19 2.724-2.352 0-4.457-.867-6.314-2.6s-2.724-3.838-2.724-6.438c0-2.228.867-4.209 2.6-5.942s3.714-2.6 5.942-2.6c2.724 0 4.828.867 6.561 2.352 1.609 1.733 2.476 3.714 2.476 6.066.001 2.477-.742 4.705-2.351 6.438zm-32.56-23.893c.743 0 1.486.248 2.228.619.743.371 1.238.99 1.733 1.609.371.743.619 1.486.619 2.228s-.248 1.486-.619 2.228c-.371.743-.99 1.238-1.609 1.733-.743.371-1.486.619-2.228.619s-1.486-.248-2.228-.619c-.743-.371-1.238-.99-1.733-1.733-.371-.743-.619-1.486-.619-2.228s.248-1.486.619-2.228c.371-.743.99-1.238 1.733-1.609.618-.371 1.361-.619 2.104-.619zm0 .743c-.619 0-1.238.124-1.857.495s-1.114.743-1.362 1.362c-.371.619-.495 1.238-.495 1.857s.124 1.238.495 1.857.743 1.114 1.362 1.362c.619.371 1.238.495 1.857.495s1.238-.124 1.857-.495 1.114-.743 1.362-1.362c.371-.619.495-1.238.495-1.857s-.124-1.238-.495-1.857-.867-1.114-1.362-1.362-1.238-.495-1.857-.495zm-1.981 6.314v-4.952h1.609c.619 0 .99 0 1.238.124s.495.248.619.495.248.495.248.743c0 .371-.124.619-.371.867-.248.248-.619.371-.99.495.124.124.248.124.371.248.248.248.495.495.743.99l.619.99h-.867l-.495-.867c-.371-.619-.619-.99-.867-1.114-.124-.124-.248-.124-.619-.124h-.495v2.105zm.867-2.724h.99c.495 0 .743-.124.99-.248.124-.124.248-.371.248-.495s0-.248-.124-.371c-.124-.124-.248-.248-.371-.248s-.371-.124-.743-.124h-.867v1.486zm46.054 3.095v-4.952h-1.857v-.867h4.828v.867h-2.105v4.952zm3.466 0v-5.819h1.486l1.486 4.704 1.486-4.704h1.362v5.819h-.867v-4.952l-1.486 4.952h-.867l-1.609-4.952v4.952z" fill="#ed1c24"/></svg>