<svg xmlns="http://www.w3.org/2000/svg" viewBox="0 0 1043.293 449.027"><path d="M391.829 0H136.764c-6.6 0-12 5.4-12 12v242.383c0 6.6 5.4 12 12 12h255.065c6.6 0 12-5.4 12-12V12c0-6.6-5.4-12-12-12z" fill="#2b2b2b"/><path d="M204.607 8.267h5.5v1.8h-1.7v19.5h-1.9v-19.5h-1.9v-1.8zM313.107 11.467c2.5-.4 5.101.2 7.101 1.7 1.5 1.1 2.6 2.6 3.199 4.3.7 2 .801 4.2.101 6.2-.601 1.8-1.7 3.3-3.2 4.5a9.75 9.75 0 0 1-5.7 1.9c-3.1 0-6.1-1.6-7.7-4.1-1.7-2.6-2.1-6-.8-8.9 1.1-2.9 3.9-5.1 6.999-5.6zm-4.799 5.3v1.1h1v5.9h-1v1.1h3.1v-1.1h-1v-7h-2.1zm4.099.7v6.6c.2.3.5.5.7.7h7c.3-.3.8-.6.7-1v-2.8c-.1-.3-.4-.4-.6-.6h-6.801v-2.5h6.4v1h1v-1.4l-.6-.6h-7.101c-.198.1-.397.3-.698.6zM213.908 11.867h1.8v15.9h2v-15.9h1.8v15.2c0 .4 0 .7-.1 1.1-.2.8-.9 1.4-1.7 1.4h-2.2c-1 0-1.8-.9-1.7-1.9.1-5.2.1-10.5.1-15.8zM224.208 11.867h3.8c.9 0 1.8.7 1.9 1.6v5.8c0 .8-.6 1.7-1.4 1.9l1.8 8.4h-1.7c-.6-2.8-1.3-5.5-1.9-8.3h-.6v8.3h-1.7c-.2-5.9-.2-11.8-.2-17.7zm1.799 1.8v5.8h2v-5.8h-2zM234.808 11.867h4c.8 0 1.6.7 1.7 1.5v5.6c0 .5-.4.9-.7 1.3.4.3.7.7.7 1.2.1.8 0 1.5 0 2.3v3.5c0 .5.1 1-.2 1.5-.3.6-.9.9-1.5.9h-4v-17.8zm1.9 1.8v5.8h2v-5.8h-2zm0 7.6v6.6h2v-6.6h-2zM246.308 11.967c.5-.2 1.1-.1 1.7-.1.6 0 1.3-.1 1.8.2.6.3 1 .9 1 1.5v13.6c0 .4 0 .8-.101 1.2-.3.6-.8 1.1-1.5 1.2h-1.8c-.399 0-.7 0-1-.1-.7-.3-1.3-1-1.3-1.7v-13.6c0-.4 0-.7.1-1.1.2-.5.601-.9 1.101-1.1zm.7 1.7v14.1h1.899v-14.1h-1.899z" fill="#4e4e4e"/><path d="M313.508 21.267h6.3v2.4h-6.3v-2.4zM256.008 10.267c0-.9.699-1.8 1.6-1.9h2.2c1-.1 2 .9 2 1.9v3.1h-1.9v-3.2h-2.1v17.6h2.2v-8.5h-.9v-1.7h2.8v12h-3.899c-.7 0-1.5-.5-1.8-1.2-.101-.4-.101-.8-.101-1.2-.1-5.6-.1-11.3-.1-16.9zM266.607 11.867h3.7c.8 0 1.5.4 1.8 1.1.101.3.101.6.101.8v5.6c0 .8-.601 1.6-1.4 1.7l1.8 8.4h-1.7c-.6-2.8-1.3-5.5-1.899-8.3h-.601v8.3h-1.7c-.101-5.8-.101-11.7-.101-17.6zm1.8 1.7v5.7h2v-5.7h-2zM277.008 13.467c0-.8.7-1.6 1.5-1.6h2.399c.4 0 .8.1 1.2.4.4.3.601.8.601 1.3v16h-1.7v-8.4h-2.101v8.4h-1.7c-.199-5.4-.199-10.7-.199-16.1zm1.8.2v5.7h2v-5.7h-2zM287.008 13.367c0-.8.7-1.5 1.5-1.5h3v1.6h-2.601v5.9h2.2v1.7h-2.2v8.4h-1.8c-.099-5.3-.099-10.7-.099-16.1zM295.808 11.867h1.8v4.9c.3.5.7 1 1 1.5.3-.5.7-1 1-1.5v-4.9h1.9v3.5c0 .5.1 1.1-.101 1.6-.399 1.1-1 2.1-1.6 3.1.7 1.1 1.5 2.3 1.8 3.5v5.9h-1.7v-5.9c-.3-.6-.7-1.1-1.1-1.7-.4.5-.7 1.1-1.101 1.6v6h-1.8v-5.5c0-.5.2-1 .4-1.4.399-.9.899-1.7 1.5-2.5-.7-1.1-1.5-2.2-1.9-3.5-.098-1.5-.098-3.1-.098-4.7z" fill="#4e4e4e"/><path fill="#0b0b0c" d="M395.434 38.549h8.396v3.75h-8.396z"/><path fill="#353636" d="M395.434 42.299h8.396v1h-8.396z"/><path fill="#151616" d="M395.434 43.299h8.396v1h-8.396z"/><path fill="#0b0b0c" d="M395.434 44.299h8.396v3.75h-8.396z"/><path fill="#353636" d="M395.434 48.049h8.396v1h-8.396z"/><path fill="#151616" d="M395.434 49.049h8.396v1h-8.396z"/><path fill="#0b0b0c" d="M395.434 50.049h8.396v3.75h-8.396z"/><path fill="#353636" d="M395.434 53.799h8.396v1h-8.396z"/><path fill="#151616" d="M395.434 54.799h8.396v1h-8.396z"/><path fill="#0b0b0c" d="M395.434 55.799h8.396v3.75h-8.396z"/><path fill="#353636" d="M395.434 59.549h8.396v1h-8.396z"/><path fill="#151616" d="M395.434 60.549h8.396v1h-8.396z"/><path fill="#0b0b0c" d="M395.434 61.549h8.396v3.75h-8.396z"/><path fill="#353636" d="M395.434 65.299h8.396v1h-8.396z"/><path fill="#151616" d="M395.434 66.299h8.396v1h-8.396z"/><path fill="#0b0b0c" d="M395.434 89.591h8.396v3.75h-8.396z"/><path fill="#353636" d="M395.434 93.341h8.396v1h-8.396z"/><path fill="#151616" d="M395.434 94.341h8.396v1h-8.396z"/><path fill="#0b0b0c" d="M395.434 95.341h8.396v3.75h-8.396z"/><path fill="#353636" d="M395.434 99.091h8.396v1h-8.396z"/><path fill="#151616" d="M395.434 100.091h8.396v1h-8.396z"/><path fill="#0b0b0c" d="M395.434 101.091h8.396v3.75h-8.396z"/><path fill="#353636" d="M395.434 104.841h8.396v1h-8.396z"/><path fill="#151616" d="M395.434 105.841h8.396v1h-8.396z"/><path fill="#0b0b0c" d="M395.434 106.841h8.396v3.75h-8.396z"/><path fill="#353636" d="M395.434 110.591h8.396v1h-8.396z"/><path fill="#151616" d="M395.434 111.591h8.396v1h-8.396z"/><path fill="#0b0b0c" d="M395.434 112.591h8.396v3.75h-8.396z"/><path fill="#353636" d="M395.434 116.341h8.396v1h-8.396z"/><path fill="#151616" d="M395.434 117.341h8.396v1h-8.396z"/><path fill="#0b0b0c" d="M124.764 38.549h8.396v3.75h-8.396z"/><path fill="#353636" d="M124.764 42.299h8.396v1h-8.396z"/><path fill="#151616" d="M124.764 43.299h8.396v1h-8.396z"/><path fill="#0b0b0c" d="M124.764 44.299h8.396v3.75h-8.396z"/><path fill="#353636" d="M124.764 48.049h8.396v1h-8.396z"/><path fill="#151616" d="M124.764 49.049h8.396v1h-8.396z"/><path fill="#0b0b0c" d="M124.764 50.049h8.396v3.75h-8.396z"/><path fill="#353636" d="M124.764 53.799h8.396v1h-8.396z"/><path fill="#151616" d="M124.764 54.799h8.396v1h-8.396z"/><path fill="#0b0b0c" d="M124.764 55.799h8.396v3.75h-8.396z"/><path fill="#353636" d="M124.764 59.549h8.396v1h-8.396z"/><path fill="#151616" d="M124.764 60.549h8.396v1h-8.396z"/><path fill="#0b0b0c" d="M124.764 61.549h8.396v3.75h-8.396z"/><path fill="#353636" d="M124.764 65.299h8.396v1h-8.396z"/><path fill="#151616" d="M124.764 66.299h8.396v1h-8.396z"/><path fill="#0b0b0c" d="M124.764 89.591h8.396v3.75h-8.396z"/><path fill="#353636" d="M124.764 93.341h8.396v1h-8.396z"/><path fill="#151616" d="M124.764 94.341h8.396v1h-8.396z"/><path fill="#0b0b0c" d="M124.764 95.341h8.396v3.75h-8.396z"/><path fill="#353636" d="M124.764 99.091h8.396v1h-8.396z"/><path fill="#151616" d="M124.764 100.091h8.396v1h-8.396z"/><path fill="#0b0b0c" d="M124.764 101.091h8.396v3.75h-8.396z"/><path fill="#353636" d="M124.764 104.841h8.396v1h-8.396z"/><path fill="#151616" d="M124.764 105.841h8.396v1h-8.396z"/><path fill="#0b0b0c" d="M124.764 106.841h8.396v3.75h-8.396z"/><path fill="#353636" d="M124.764 110.591h8.396v1h-8.396z"/><path fill="#151616" d="M124.764 111.591h8.396v1h-8.396z"/><path fill="#0b0b0c" d="M124.764 112.591h8.396v3.75h-8.396z"/><path fill="#353636" d="M124.764 116.341h8.396v1h-8.396z"/><path fill="#151616" d="M124.764 117.341h8.396v1h-8.396z"/><path d="M407.173 105.341h-3.344V78.917h3.344a3.354 3.354 0 0 1 3.344 3.344v19.736a3.354 3.354 0 0 1-3.344 3.344z" fill="#16191b"/><linearGradient id="a" gradientUnits="userSpaceOnUse" x1="-60.733" y1="544.763" x2="-59.733" y2="544.763" gradientTransform="matrix(528.5926 0 0 -528.5926 32103.225 288307.719)"><stop offset="0" stop-color="#151616"/><stop offset=".03" stop-color="#101111"/><stop offset=".97" stop-color="#101111"/><stop offset="1" stop-color="#151616"/></linearGradient><path d="M516.593 449.027H12c-6.6 0-12-5.399-12-12V263.361c0-6.601 5.4-12 12-12h504.593c6.6 0 12 5.399 12 12v173.666c0 6.601-5.401 12-12 12z" fill-rule="evenodd" clip-rule="evenodd" fill="url(#a)"/><radialGradient id="b" cx="-60.733" cy="544.763" r="1" gradientTransform="matrix(-38.5701 -66.8055 -534.4437 308.5612 289184.094 -171785.422)" gradientUnits="userSpaceOnUse"><stop offset="0" stop-color="#111212"/><stop offset=".678" stop-color="#131414"/><stop offset=".921" stop-color="#181b1a"/><stop offset="1" stop-color="#1c1f1e"/><stop offset="1" stop-color="#1c1f1e"/></radialGradient><path d="M450.63 449.027h-138v-100c0-38.107 30.893-69 69-69s69 30.893 69 69v100z" fill="url(#b)"/><path d="M433.505 449.027h-103.75v-88.916a4.764 4.764 0 0 1 4.75-4.75h94.25a4.764 4.764 0 0 1 4.75 4.75v88.916z" fill="#0f0f0f"/><path d="M339.765 434.694h-.104a.864.864 0 0 1-.865-.864v-77.604c0-.478.388-.864.865-.864h.104c.478 0 .865.387.865.864v77.604a.864.864 0 0 1-.865.864zM347.765 434.694h-.104a.864.864 0 0 1-.865-.864v-77.604c0-.478.388-.864.865-.864h.104c.478 0 .865.387.865.864v77.604a.864.864 0 0 1-.865.864zM355.765 416.534h-.104a.865.865 0 0 1-.865-.865v-59.443c0-.478.388-.864.865-.864h.104c.478 0 .865.387.865.864v59.443a.866.866 0 0 1-.865.865zM364.682 409.694h-.104a.864.864 0 0 1-.864-.864v-52.604c0-.478.388-.864.864-.864h.104c.478 0 .864.387.864.864v52.604a.864.864 0 0 1-.864.864zM373.599 406.027h-.104a.864.864 0 0 1-.864-.864v-48.938c0-.478.387-.864.864-.864h.104c.478 0 .864.387.864.864v48.938a.864.864 0 0 1-.864.864zM381.682 404.527h-.104a.864.864 0 0 1-.864-.864V363.42c0-.478.388-.864.864-.864h.104c.478 0 .864.387.864.864v40.243a.864.864 0 0 1-.864.864z" fill="#141414"/><path d="M386.439 368.204l-.073.073a.864.864 0 0 1-1.223 0l-4.178-4.177a.866.866 0 0 1 0-1.223l.074-.074a.866.866 0 0 1 1.223 0l4.177 4.178a.864.864 0 0 1 0 1.223z" fill="#141414"/><path d="M382.22 362.804l.073.074a.864.864 0 0 1 0 1.223l-4.177 4.177a.864.864 0 0 1-1.223 0l-.074-.073a.866.866 0 0 1 0-1.223l4.178-4.178a.866.866 0 0 1 1.223 0zM423.494 434.736h.104a.864.864 0 0 0 .864-.865v-77.604a.864.864 0 0 0-.864-.865h-.104a.864.864 0 0 0-.864.865v77.604c0 .478.387.865.864.865zM415.494 434.736h.104a.864.864 0 0 0 .864-.865v-77.604a.864.864 0 0 0-.864-.865h-.104a.864.864 0 0 0-.864.865v77.604c0 .478.387.865.864.865zM407.494 416.575h.104a.864.864 0 0 0 .864-.864v-59.443a.864.864 0 0 0-.864-.865h-.104a.864.864 0 0 0-.864.865v59.443c0 .477.387.864.864.864zM398.577 409.736h.104a.864.864 0 0 0 .864-.865v-52.604a.864.864 0 0 0-.864-.865h-.104a.865.865 0 0 0-.864.865v52.604c0 .478.388.865.864.865zM389.661 406.069h.104a.864.864 0 0 0 .865-.864v-48.938a.865.865 0 0 0-.865-.865h-.104a.865.865 0 0 0-.865.865v48.938c0 .478.388.864.865.864z" fill="#141414"/><path d="M329.755 438.986h19.291v2.625h-19.291z"/><path d="M408.88 449.027h-54.5v-13.282c0-15.05 12.2-27.25 27.25-27.25s27.25 12.2 27.25 27.25v13.282z" fill="#070707"/><path d="M275.996 417.194a4.262 4.262 0 0 1 4.25 4.25v17.917a4.262 4.262 0 0 1-4.25 4.25 4.263 4.263 0 0 1-4.25-4.25v-13.667h-26.783a4.263 4.263 0 0 1-4.25-4.25 4.262 4.262 0 0 1 4.25-4.25h30.917a4.262 4.262 0 0 1 4.25 4.25" fill="#151616"/><path d="M278.196 440.299a2.2 2.2 0 1 1-4.398 0 2.2 2.2 0 0 1 4.398 0z" fill="#44f518"/><path d="M245.433 423.798v-5.011h1.237c.461 0 .763.024.904.071.226.078.412.243.56.496.146.253.221.579.221.978 0 .362-.063.666-.19.911s-.285.417-.476.516c-.19.1-.519.148-.983.148h-.506v1.891h-.767zm.767-4.163v1.425h.427c.286 0 .48-.021.583-.064a.536.536 0 0 0 .253-.234.825.825 0 0 0 .099-.417.81.81 0 0 0-.102-.421.51.51 0 0 0-.252-.229c-.1-.039-.311-.059-.632-.059h-.376zM248.83 421.323c0-.597.082-1.089.246-1.475.163-.387.378-.674.642-.863.265-.189.585-.283.961-.283.546 0 .99.224 1.334.673s.516 1.088.516 1.917c0 .839-.182 1.494-.546 1.966-.319.417-.753.626-1.3.626-.553 0-.988-.207-1.308-.619-.363-.472-.545-1.119-.545-1.942zm.793-.034c0 .576.102 1.009.305 1.297s.455.433.756.433c.303 0 .554-.143.753-.429s.299-.726.299-1.317c0-.582-.097-1.011-.291-1.289-.193-.278-.447-.417-.761-.417s-.568.14-.766.421c-.196.279-.295.713-.295 1.301zM253.674 423.798l-.914-5.011h.79l.572 3.443.697-3.443h.917l.669 3.502.589-3.502h.774l-.926 5.011h-.82l-.761-3.748-.755 3.748zM258.161 423.798v-5.011h2.829v.848h-2.061v1.11h1.915v.845h-1.915v1.36h2.131v.848zM261.713 423.798v-5.011h1.621c.414 0 .71.045.888.135s.324.246.438.469c.115.222.172.488.172.798 0 .392-.088.707-.262.947a1.16 1.16 0 0 1-.744.451c.165.127.302.267.409.418.108.151.255.424.44.815l.463.978h-.918l-.557-1.09c-.2-.395-.337-.642-.408-.74a.6.6 0 0 0-.229-.205c-.08-.038-.21-.057-.387-.057h-.159v2.092h-.767zm.767-2.892h.571c.349 0 .57-.017.666-.05a.435.435 0 0 0 .231-.199.777.777 0 0 0 .089-.4c0-.159-.029-.288-.089-.385s-.14-.163-.241-.199c-.072-.025-.28-.038-.625-.038h-.603v1.271z" fill="#070707"/><path d="M469.646 417.194a4.262 4.262 0 0 0-4.25 4.25v17.917a4.262 4.262 0 0 0 4.25 4.25 4.263 4.263 0 0 0 4.25-4.25v-13.667h26.783a4.262 4.262 0 0 0 4.25-4.25 4.262 4.262 0 0 0-4.25-4.25h-30.917a4.262 4.262 0 0 0-4.25 4.25" fill="#151616"/><path d="M467.446 440.299a2.2 2.2 0 1 0 4.398 0 2.2 2.2 0 0 0-4.398 0z" fill="#44f518"/><path d="M488.7 424.298v-5.011h1.237c.461 0 .763.024.903.071.227.078.413.243.561.496.146.253.221.579.221.978 0 .362-.064.666-.191.911s-.285.417-.475.516c-.191.1-.519.148-.984.148h-.504v1.891h-.768zm.768-4.163v1.425h.426c.287 0 .48-.021.584-.064a.53.53 0 0 0 .252-.234.815.815 0 0 0 .1-.417.82.82 0 0 0-.102-.421.51.51 0 0 0-.252-.229c-.1-.039-.311-.059-.633-.059h-.375zM495.304 424.298h-.834l-.334-1.135h-1.527l-.314 1.135h-.818l1.484-5.011h.815l1.528 5.011zm-1.416-1.983l-.526-1.859-.517 1.859h1.043zM495.704 419.287h1.403c.354 0 .622.043.804.128.18.086.346.229.498.433s.271.466.358.79c.087.323.13.726.13 1.206 0 .433-.045.81-.137 1.13-.09.32-.205.573-.345.76a1.36 1.36 0 0 1-.505.423c-.198.095-.452.142-.763.142h-1.444v-5.012zm.768.848v3.315h.576c.248 0 .428-.025.538-.075s.202-.126.272-.227c.071-.102.13-.262.176-.48.047-.218.07-.506.07-.863 0-.371-.023-.664-.071-.878s-.122-.382-.222-.505a.706.706 0 0 0-.367-.243c-.107-.029-.315-.044-.625-.044h-.347z" fill="#070707"/><path d="M47.046 312.277H11.13a3.929 3.929 0 0 1-3.917-3.916 3.929 3.929 0 0 1 3.917-3.917h35.917a3.929 3.929 0 0 1 3.917 3.917 3.929 3.929 0 0 1-3.918 3.916z" fill="#151616"/><path d="M31.667 308.719l.746.311c-.117.561-.31.97-.581 1.229a1.391 1.391 0 0 1-.999.389c-.497 0-.9-.207-1.208-.619-.355-.477-.533-1.119-.533-1.928 0-.854.179-1.523.536-2.006.312-.42.729-.629 1.254-.629.427 0 .785.156 1.073.471.206.224.355.556.451.995l-.761.239c-.049-.271-.146-.479-.291-.624s-.316-.217-.513-.217c-.282 0-.512.132-.689.396s-.267.7-.267 1.31c0 .631.086 1.08.26 1.346.173.268.398.4.676.4.203 0 .378-.085.526-.255s.255-.439.32-.808zM33.073 310.561v-5.011h.767v1.971h1.513v-1.971h.768v5.011h-.768v-2.192H33.84v2.192zM38.208 309.234l.708-.113c.019.236.08.417.181.541a.454.454 0 0 0 .359.188c.151 0 .278-.074.382-.223.104-.147.156-.353.156-.615 0-.243-.05-.435-.149-.574-.1-.139-.221-.208-.363-.208-.093 0-.205.024-.334.071l.079-.782a.577.577 0 0 0 .45-.164c.108-.113.163-.273.163-.48 0-.172-.04-.308-.118-.405-.079-.098-.18-.146-.303-.146s-.229.057-.32.169c-.09.113-.144.28-.161.501l-.675-.15c.07-.458.206-.791.41-.998.203-.207.459-.311.769-.311a.99.99 0 0 1 .827.398c.205.267.307.562.307.885 0 .218-.046.415-.138.59-.092.176-.23.329-.414.461a.914.914 0 0 1 .521.406c.134.21.202.473.202.787 0 .457-.126.836-.38 1.136-.253.3-.554.45-.903.45-.334 0-.618-.127-.85-.379-.233-.253-.368-.598-.406-1.035zM40.964 310.646l.945-5.181h.549l-.955 5.181zM44.11 310.561v-1.008h-1.561v-.842l1.653-3.178h.615v3.175h.473v.845h-.473v1.008h-.707zm0-1.853v-1.711l-.875 1.711h.875z" fill="#070707"/><path d="M13.113 308.361a2.2 2.2 0 1 1-4.398 0 2.2 2.2 0 0 1 4.398 0z" fill="#44f518"/><path d="M58.005 284.277H11.13a3.929 3.929 0 0 1-3.917-3.916 3.929 3.929 0 0 1 3.917-3.917h46.875a3.929 3.929 0 0 1 3.917 3.917 3.929 3.929 0 0 1-3.917 3.916z" fill="#151616"/><path d="M29.706 282.799h-.816l-.327-1.135h-1.492l-.308 1.135h-.8l1.451-5.011h.797l1.495 5.011zm-1.385-1.983l-.515-1.859-.505 1.859h1.02zM30.109 282.799v-5.011h.731l1.526 3.347v-3.347h.7v5.011h-.756l-1.5-3.268v3.268zM34.697 282.799v-4.163h-1.106v-.848h2.961v.848h-1.104v4.163zM38.297 281.165l.735-.096c.083.641.354.96.813.96.228 0 .406-.065.536-.196a.663.663 0 0 0 .195-.486.575.575 0 0 0-.068-.291.52.52 0 0 0-.208-.196c-.093-.051-.318-.137-.676-.258-.32-.106-.555-.223-.704-.348a1.3 1.3 0 0 1-.355-.493 1.646 1.646 0 0 1-.132-.658c0-.272.056-.519.169-.737.112-.219.268-.384.466-.495.199-.111.443-.167.735-.167.438 0 .78.131 1.026.393s.376.637.391 1.125l-.753.044c-.033-.269-.104-.457-.214-.563-.109-.107-.266-.161-.468-.161s-.358.047-.468.14a.44.44 0 0 0-.164.348c0 .137.05.251.149.344.1.094.328.196.686.308.378.121.651.248.82.381.168.134.297.306.386.517s.133.466.133.767c0 .436-.122.801-.364 1.098-.243.296-.623.444-1.14.444-.914-.004-1.423-.577-1.526-1.724zM42.489 282.799l-.893-5.011h.772l.56 3.443.681-3.443h.897l.654 3.502.575-3.502h.757l-.906 5.011h-.8l-.745-3.748-.738 3.748zM46.851 277.788h.75v5.011h-.75zM49.161 282.799v-4.163h-1.107v-.848h2.961v.848h-1.104v4.163zM53.889 280.957l.729.311c-.114.561-.303.97-.567 1.229s-.59.389-.977.389c-.486 0-.879-.207-1.181-.619-.347-.477-.521-1.119-.521-1.928 0-.854.175-1.523.524-2.006.304-.42.713-.629 1.226-.629.418 0 .768.156 1.049.471.201.224.348.556.441.995l-.744.239c-.048-.271-.143-.479-.284-.624a.679.679 0 0 0-.502-.217c-.275 0-.5.132-.674.396s-.261.7-.261 1.31c0 .631.085 1.08.254 1.346.169.268.39.4.661.4.198 0 .37-.085.515-.255.144-.17.248-.439.312-.808zM55.263 282.799v-5.011h.75v1.972h1.479v-1.972h.75v5.011h-.75v-2.192h-1.479v2.192z" fill="#070707"/><path d="M12.863 280.361a2.2 2.2 0 1 1-4.398 0 2.2 2.2 0 0 1 4.398 0z" fill="#44f518"/><path d="M215.381 369.545H99.214a2.758 2.758 0 0 1-2.75-2.75v-26.334a2.759 2.759 0 0 1 2.75-2.75h116.167a2.759 2.759 0 0 1 2.75 2.75v26.334a2.758 2.758 0 0 1-2.75 2.75z" fill="#181919"/><path d="M200.878 346.455a8.11 8.11 0 0 1 6.353 1.622c1.298 1.002 2.295 2.414 2.853 3.994a9.17 9.17 0 0 1 .063 5.804 8.698 8.698 0 0 1-2.882 4.165c-1.453 1.146-3.273 1.788-5.097 1.751-2.73.026-5.403-1.493-6.903-3.866-1.562-2.396-1.843-5.621-.742-8.279 1.086-2.71 3.569-4.75 6.355-5.191zm-4.242 4.886c-.003.342-.003.684-.002 1.025l.891-.001.001 5.468h-.892v1.023h2.787v-1.023c-.298 0-.596 0-.893-.002.005-2.16-.004-4.321.004-6.482-.631-.015-1.263-.002-1.896-.008zm3.655.642c.005 2.046-.012 4.091.008 6.137.166.264.423.457.628.69h6.24c.229-.31.711-.52.64-.976-.011-.876.01-1.75-.01-2.625-.127-.233-.35-.396-.525-.59-2.028.009-4.056-.006-6.084.007-.013-.761-.003-1.523-.005-2.284h5.753c-.001.318-.001.637.002.955l.868-.001c0-.45-.003-.9.003-1.35-.18-.198-.366-.391-.551-.583-2.118.008-4.236-.01-6.354.009-.229.176-.409.407-.613.611zM112.303 346.806c.542-.002 1.082.004 1.623-.004.011 4.934.001 9.867.004 14.801h1.829c.003-4.935-.007-9.867.005-14.802.549.011 1.098 0 1.647.008-.006 4.729-.002 9.456-.003 14.185-.006.341.029.689-.052 1.024-.155.718-.826 1.263-1.53 1.26-.654 0-1.309.003-1.962-.002-.854-.017-1.58-.844-1.557-1.729-.011-4.914-.002-9.828-.004-14.741zM121.534 346.806c1.125.007 2.253-.013 3.378.009.797.012 1.651.642 1.659 1.529a2430 2430 0 0 1 0 5.4c-.006.779-.505 1.591-1.273 1.734.532 2.6 1.054 5.199 1.588 7.798-.51.002-1.021.001-1.531.001-.564-2.567-1.137-5.133-1.701-7.7l-.561-.002v7.702h-1.56l.001-16.471zm1.627 1.63v5.373c.602.001 1.203-.003 1.805.003.004-1.793.001-3.585.001-5.377-.602.001-1.204-.001-1.806.001zM131.007 346.81c1.18-.003 2.36-.014 3.539.004.748-.002 1.453.644 1.479 1.436.004 1.737 0 3.476.002 5.214.004.483-.327.864-.651 1.166.314.272.618.628.647 1.074.048.708.017 1.419.026 2.129-.008 1.084.02 2.169-.022 3.254-.014.46.068.953-.152 1.378-.238.513-.786.809-1.319.813-1.181.003-2.361-.005-3.542.003-.011-5.492.004-10.982-.007-16.471zm1.632 1.625c0 1.791-.001 3.583.001 5.375.602-.002 1.203 0 1.805-.001.001-1.792-.002-3.582.001-5.372-.602-.004-1.204-.001-1.807-.002zm.001 7.093c-.004 2.04 0 4.08-.001 6.12.602-.001 1.205.002 1.807-.001-.003-2.04 0-4.078-.001-6.117-.601-.001-1.203.002-1.805-.002zM141.282 346.897c.48-.144.985-.078 1.479-.092.543.011 1.13-.069 1.626.216.494.273.933.795.917 1.408v12.666c-.006.368.041.758-.121 1.1-.251.549-.752 1.018-1.349 1.078-.535.013-1.07-.003-1.604.005-.313-.003-.639.029-.935-.097-.626-.257-1.142-.901-1.121-1.626.001-4.218.002-8.436 0-12.654.003-.34-.032-.698.104-1.018.186-.451.558-.82 1.004-.986zm.61 1.56v13.098c.58.002 1.16.002 1.741 0l-.001-13.098h-1.74z" fill="#f79226"/><path d="M201.228 355.6c1.88.001 3.761-.001 5.643.001-.002.736-.001 1.473-.001 2.209-1.882-.003-3.764.007-5.645-.005.007-.736 0-1.47.003-2.205zM105.54 345.115h-1.532v-1.651h4.905v1.651h-1.532v18.147h-1.841z" fill="#f79226"/><path d="M149.918 345.268c-.035-.845.618-1.651 1.414-1.779.65-.026 1.301.001 1.952-.012.938-.103 1.814.82 1.764 1.788 0 .971-.003 1.941.001 2.911-.558.005-1.116.002-1.674.003-.003-.987.005-1.973-.004-2.959-.622.007-1.244.005-1.865.001-.008 5.476-.001 10.952-.003 16.428.64-.003 1.281.006 1.922-.006-.01-2.649-.002-5.3-.004-7.95h-.847v-1.582c.823-.002 1.647.003 2.471-.003.004 3.717.009 7.434-.002 11.149-1.15-.008-2.299-.001-3.449-.002a1.727 1.727 0 0 1-1.58-1.096c-.132-.341-.087-.715-.094-1.073-.001-5.273.001-10.546-.002-15.818zM159.373 346.807c1.093.001 2.186-.006 3.279.003.673-.009 1.362.374 1.649 1.023.118.245.087.524.092.789-.005 1.736 0 3.473-.003 5.21-.037.735-.536 1.485-1.263 1.613.54 2.6 1.063 5.204 1.588 7.808l-1.529.001c-.567-2.577-1.14-5.15-1.708-7.727l-.544.004c-.002 2.582.002 5.164-.003 7.747-.52-.003-1.04.001-1.559-.003.004-5.489.002-10.979.001-16.468zm1.584 1.604v5.351c.609.001 1.219-.001 1.828.001.003-1.784.001-3.567.001-5.352h-1.829zM168.628 348.335c.004-.749.601-1.467 1.33-1.502.716-.011 1.433.001 2.148-.006.366-.007.746.091 1.033.338.332.279.505.729.505 1.17v14.919h-1.539l-.001-7.818c-.639.001-1.277.002-1.915-.001-.004 2.607.001 5.214-.003 7.82-.52-.002-1.039-.001-1.559-.001.001-4.973-.001-9.946.001-14.919zm1.605.169c.002 1.762-.005 3.523.003 5.285.608-.008 1.216-.003 1.825-.004-.001-1.761.002-3.521-.001-5.282-.609.002-1.218 0-1.827.001zM177.569 348.243c.005-.722.611-1.402 1.312-1.413.878-.004 1.756.001 2.635-.001v1.466c-.787-.002-1.573.003-2.359-.004-.01 1.84-.002 3.679-.003 5.519.646-.002 1.292-.001 1.939-.001 0 .542-.001 1.085.001 1.627-.646.002-1.293.001-1.94 0-.002 2.606 0 5.213-.001 7.818h-1.583l-.001-15.011zM185.44 346.829h1.65c.01 1.521-.021 3.045.014 4.565.28.487.606.946.899 1.428.287-.472.624-.911.882-1.401.025-1.528.005-3.061.009-4.59.551-.003 1.103-.004 1.654 0-.005 1.093-.001 2.187-.002 3.28-.006.508.046 1.033-.134 1.519-.366 1.018-.916 1.946-1.463 2.865.622 1.042 1.296 2.098 1.582 3.302.033 1.826.009 3.655.012 5.482-.512-.004-1.023-.001-1.535-.002-.005-1.835.011-3.671-.007-5.505-.258-.556-.648-1.041-.958-1.568-.319.51-.655 1.008-.976 1.516-.001 1.854.008 3.707-.003 5.562-.542-.009-1.082-.002-1.623-.004-.001-1.722.002-3.443-.001-5.165-.007-.467.207-.895.385-1.311a21.12 21.12 0 0 1 1.314-2.324c-.644-1.03-1.36-2.06-1.679-3.259-.046-1.461-.006-2.927-.02-4.39z" fill="#d5e14d"/><path fill="#0b0b0c" d="M0 379.861h308.171v3.75H0z"/><path fill="#353636" d="M0 383.611h308.171v1H0z"/><path fill="#151616" d="M0 384.611h308.171v1H0z"/><path fill="#0b0b0c" d="M0 385.611h308.171v3.75H0z"/><path fill="#353636" d="M0 389.361h308.171v1H0z"/><path fill="#151616" d="M0 390.361h308.171v1H0z"/><path fill="#0b0b0c" d="M0 391.361h308.171v3.75H0z"/><path fill="#353636" d="M0 395.111h308.171v1H0z"/><path fill="#151616" d="M0 396.111h308.171v1H0z"/><path fill="#0b0b0c" d="M0 397.111h308.171v3.75H0z"/><path fill="#353636" d="M0 400.861h308.171v1H0z"/><path fill="#151616" d="M0 401.861h308.171v1H0z"/><path fill="#0b0b0c" d="M0 402.861h308.171v3.75H0z"/><path fill="#353636" d="M0 406.611h308.171v1H0z"/><path fill="#151616" d="M0 407.611h308.171v1H0z"/><path fill="#0b0b0c" d="M455.088 379.861h73.505v3.75h-73.505z"/><path fill="#353636" d="M455.088 383.611h73.505v1h-73.505z"/><path fill="#151616" d="M455.088 384.611h73.505v1h-73.505z"/><path fill="#0b0b0c" d="M455.088 385.611h73.505v3.75h-73.505z"/><path fill="#353636" d="M455.088 389.361h73.505v1h-73.505z"/><path fill="#151616" d="M455.088 390.361h73.505v1h-73.505z"/><path fill="#0b0b0c" d="M455.088 391.361h73.505v3.75h-73.505z"/><path fill="#353636" d="M455.088 395.111h73.505v1h-73.505z"/><path fill="#151616" d="M455.088 396.111h73.505v1h-73.505z"/><path fill="#0b0b0c" d="M455.088 397.111h73.505v3.75h-73.505z"/><path fill="#353636" d="M455.088 400.861h73.505v1h-73.505z"/><path fill="#151616" d="M455.088 401.861h73.505v1h-73.505z"/><path fill="#0b0b0c" d="M455.088 402.861h73.505v3.75h-73.505z"/><path fill="#353636" d="M455.088 406.611h73.505v1h-73.505z"/><path fill="#151616" d="M455.088 407.611h73.505v1h-73.505z"/><path d="M495.234 267.631l-4.636-4.158-2.105 1.803 1.011.691-1.208 5.004 2.424-.796-1.251-.867.694-2.646 4.883 4.215 1.686-5.747 1.707-.773-2.063-.939-1.142 4.213zm4.083-3.462c.146.124.329.282.287.45l-.57 2.247c-.045.176-.253.304-.416.392s-.364.111-.564.135c.173.051.347.102.462.195.117.094.277.229.235.369l-.652 2.189c-.061.201-.336.328-.531.438-.195.11-.418.166-.641.223h7.8l.548-2.19c-.299.455-.6.909-1.11 1.201-.513.291-1.213.547-1.955.547h-1.429l.713-2.71c.259-.066.552-.06.815.037.266.096.501.281.713.482.211.202.397.42.545.65l.747-2.851a5.696 5.696 0 0 1-.845.569c-.308.171-.635.323-.941.398a1.867 1.867 0 0 1-.858.018l.739-2.668 1.15-.009c.521-.003 1.041-.05 1.46.207.421.258.743.799 1.063 1.339l.569-1.952h-7.929c.224.086.448.17.595.294zm9.345.685c-.583.372-1.11.867-1.46 1.406-.351.54-.528 1.125-.537 1.66-.008.537.15 1.025.441 1.473.293.448.718.855 1.243 1.13.527.275 1.153.42 1.727.485a7.05 7.05 0 0 0 1.512.012 3.45 3.45 0 0 0 .997-.234l1.646-2.561c-.427.15-.859.287-1.31.426-.449.139-.915.28-1.409.325-.494.044-1.017-.008-1.48-.214s-.869-.567-1.08-.972a1.544 1.544 0 0 1-.077-1.256c.146-.404.457-.765.835-1.08.377-.315.82-.587 1.232-.766s.793-.266 1.182-.286l1.243 1.34 1.43-.399-1.002-1.837c-.282-.008-.567.001-.903.028s-.725.073-1.128.15-.821.187-1.35.366c-.53.18-1.17.43-1.752.804z" fill-rule="evenodd" clip-rule="evenodd" fill="#181919"/><path d="M379.145 36.025H149.449c-6.6 0-12 5.4-12 12v206.357c0 6.6 5.4 12 12 12h229.696c6.6 0 12-5.4 12-12V48.025c0-6.6-5.401-12-12-12z" fill="#16191b"/><path d="M153.446 51.423l-4.069-4.442-1.849 1.926.887.739-1.06 5.346 2.127-.851-1.098-.926.609-2.828 4.287 4.502 1.48-6.139 1.499-.826-1.812-1.004-1.001 4.503zm3.585-3.698c.128.132.289.301.251.48l-.5 2.401c-.039.188-.222.324-.365.418-.143.094-.319.119-.495.144.152.054.304.109.405.209.103.101.244.244.206.395l-.572 2.338c-.053.216-.295.351-.466.468-.172.118-.367.177-.563.237h6.848l.481-2.34c-.263.486-.527.971-.975 1.283-.45.311-1.065.585-1.716.585h-1.254l.625-2.895c.228-.071.485-.064.717.039.233.102.439.3.626.516.185.216.348.448.478.694l.656-3.045a4.985 4.985 0 0 1-.743.608c-.269.183-.556.345-.826.426a1.35 1.35 0 0 1-.754.018l.649-2.85 1.01-.009c.457-.003.914-.054 1.282.221.37.275.652.853.933 1.431l.5-2.086h-6.96c.196.091.392.182.522.314zm8.203.731a4.833 4.833 0 0 0-1.282 1.503 3.936 3.936 0 0 0-.471 1.773 3.187 3.187 0 0 0 .388 1.573c.257.479.63.914 1.091 1.207.462.295 1.012.449 1.516.519a5.02 5.02 0 0 0 1.327.012c.363-.047.631-.126.875-.25l1.444-2.735c-.374.16-.754.306-1.149.454-.395.148-.803.3-1.237.348-.434.047-.893-.008-1.3-.229a2.195 2.195 0 0 1-.947-1.039c-.185-.431-.197-.91-.068-1.341s.401-.817.733-1.154c.331-.337.72-.627 1.082-.817a2.52 2.52 0 0 1 1.038-.306l1.091 1.432 1.255-.427-.88-1.962a5.958 5.958 0 0 0-.793.03 7.787 7.787 0 0 0-.99.161 7.478 7.478 0 0 0-1.185.391c-.465.191-1.027.459-1.538.857z" fill-rule="evenodd" clip-rule="evenodd" fill="#fff"/><path d="M377.031 47.03l-.006.137c-.017.146 0 .216-.423.216-.422 0-.405-.069-.422-.216a6.958 6.958 0 0 1-.01-.43 7.9 7.9 0 0 1 .01-.431c.017-.146 0-.215.422-.215.423 0 .406.069.423.215l.006.146h.578a3.944 3.944 0 0 0-.017-.297c-.033-.292.082-.573-.989-.573s-.956.28-.989.573a6.368 6.368 0 0 0-.02.582c.001.244.009.486.02.581.033.293-.082.573.989.573s.956-.28.989-.573c.007-.056.012-.162.015-.288h-.576zM370.179 45.641l-.564 1.646-.563-1.646-.844-.005v2.21h.563V46.2l.565 1.646h.563l.56-1.646v1.646h.563v-2.21zM377.735 45.636h1.621v.564h-.528v1.646h-.564V46.2h-.529zM373.39 47.846l.646-2.212h.84l.648 2.212h-.563l-.134-.457h-.739l.104-.359h.53l-.263-.901-.506 1.717zM366.851 46.091c.422 0 .405.069.422.215a7.9 7.9 0 0 1 .01.431c.001.122-.004.382-.01.43-.017.146 0 .216-.422.216-.423 0-.406-.069-.423-.216a9.075 9.075 0 0 1 0-.861c.016-.146 0-.215.423-.215v-.508c-1.071 0-.956.28-.988.573a6.276 6.276 0 0 0-.021.582c.001.244.009.486.021.581.032.293-.083.573.988.573s.956-.28.989-.573c.011-.095.019-.337.021-.581a6.292 6.292 0 0 0-.021-.582c-.033-.292.083-.573-.989-.573v.508zM364.946 47.03l-.006.137c-.017.146 0 .216-.422.216-.423 0-.406-.069-.423-.216a6.958 6.958 0 0 1-.01-.43 7.9 7.9 0 0 1 .01-.431c.017-.146 0-.215.423-.215.422 0 .405.069.422.215l.006.146h.578a4.576 4.576 0 0 0-.017-.297c-.033-.292.082-.573-.989-.573s-.956.28-.989.573a6.368 6.368 0 0 0-.02.582c.001.244.009.486.02.581.033.293-.082.573.989.573s.956-.28.989-.573c.006-.056.012-.162.016-.288h-.577zM372.396 47.34h-.342v-.504l.342-.002c.422 0 .409-.069.426-.216.006-.047.005-.008.004-.13 0-.122.002-.08-.004-.128-.017-.146-.004-.215-.426-.215l-.343.001.001 1.698h-.564v-2.208h.906c1.071 0 .954.281.993.573l.005.281-.005.279c-.028.294.078.571-.993.571zM361.431 56.165l-3.529-.004a.925.925 0 0 1-.925-.924v-5.368c0-.51.414-.924.925-.924l2.209-.002a.48.48 0 0 0 .48-.48l.006-2.146c0-.111.091-.201.201-.201h1.295c.111 0 .202.09.202.201l.013 9.648c0 .111-.09.201-.201.201l-.676-.001-.017.479h.884a.48.48 0 0 0 .479-.48V46.111a.48.48 0 0 0-.479-.48h-1.699a.48.48 0 0 0-.48.48l.002 2.151c0 .111-.09.202-.201.202l-2.018-.004c-.778 0-1.41.63-1.41 1.409l.001 5.368c0 .778.631 1.408 1.409 1.408l3.513-.001.016-.479z" fill="#eff8fb"/><path d="M360.118 54.189v-3.473a.527.527 0 0 0-1.054 0v3.749a.527.527 0 0 0 1.054 0v-.276l.479.017v.259a1.006 1.006 0 0 1-2.014 0v-3.749a1.007 1.007 0 1 1 2.014 0v3.489l-.479-.016zM364.785 56.165h-.661a.202.202 0 0 1-.201-.201l.008-6.813c0-.111.091-.201.202-.201h1.294c.111 0 .202.09.202.201l.014 6.813a.202.202 0 0 1-.201.201h-.657v.477l.847.001a.48.48 0 0 0 .48-.48v-7.218a.48.48 0 0 0-.48-.48h-1.699a.48.48 0 0 0-.48.48l-.001 7.216c0 .265.214.48.479.48h.855v-.476zM370.886 50.29l-1.423-.002a.792.792 0 1 0 0 1.584l1.949.005c.511 0 .924.414.924.924l-.006 2.424c0 .51-.414.924-.925.924l-3.869.007a.202.202 0 0 1-.201-.201v-.939c0-.111.09-.201.201-.201l2.637-.009a.792.792 0 1 0 0-1.584l-1.909-.008a.924.924 0 0 1-.924-.924v-2.422c0-.51.414-.924.924-.924l3.587-.017c.111 0 .201.09.201.201v.96c0 .111-.09.201-.201.201l-.965.001-.017.472h1.18c.265 0 .48-.213.48-.478l.001-1.346a.48.48 0 0 0-.479-.48l-3.787.002c-.778 0-1.409.63-1.409 1.408v2.422a1.41 1.41 0 0 0 1.409 1.409l1.909-.003c.176 0 .319.143.319.318s-.144.318-.319.318h-2.842a.48.48 0 0 0-.48.48v1.343a.48.48 0 0 0 .48.479h4.074a1.41 1.41 0 0 0 1.409-1.409l.007-2.424a1.41 1.41 0 0 0-1.409-1.409l-1.949.006a.318.318 0 1 1 0-.636h1.406l.017-.472zM378.055 51.622h.611c.111 0 .201-.09.201-.201l-.003-1.552a.923.923 0 0 0-.925-.924h-3.056a.924.924 0 0 0-.925.924v5.368c0 .51.413.924.925.924h3.056a.924.924 0 0 0 .925-.924l.003-1.476a.201.201 0 0 0-.201-.201h-1.153a.201.201 0 0 0-.201.201l.006.703c0 .556-.35 1.006-.905 1.006-.557 0-.906-.45-.906-1.006v-3.749c0-.556.35-1.006.906-1.006s.905.45.905 1.006l-.006.705c0 .111.09.201.201.201h.542l-.017.484h-.725a.48.48 0 0 1-.48-.48l.005-.909c0-.291-.135-.527-.426-.527-.292 0-.427.236-.427.527v3.749c0 .292.135.527.427.527.291 0 .426-.236.426-.527l-.005-.908a.48.48 0 0 1 .48-.48h1.557a.48.48 0 0 1 .48.48l-.001 1.681a1.41 1.41 0 0 1-1.41 1.408h-3.056a1.41 1.41 0 0 1-1.41-1.408V49.87a1.41 1.41 0 0 1 1.41-1.409h3.056c.778 0 1.41.631 1.41 1.409l.001 1.756a.48.48 0 0 1-.48.48h-.832l.017-.484z" fill="#eff8fb"/><path d="M161.759 259.792c-10.188 0-18.476-8.289-18.476-18.477s8.289-18.476 18.476-18.476c10.188 0 18.476 8.288 18.476 18.476s-8.288 18.477-18.476 18.477zm0-34.359c-8.758 0-15.883 7.125-15.883 15.883 0 8.759 7.125 15.883 15.883 15.883s15.883-7.124 15.883-15.883c.001-8.758-7.125-15.883-15.883-15.883z" fill="#131313"/><circle cx="161.759" cy="241.315" r="17.18" fill="#1b0d18"/><path d="M148.091 237.349a1.232 1.232 0 1 1-2.464 0 1.232 1.232 0 0 1 2.464 0z" fill="#a60998"/><path fill="#fff" d="M146.471 214.066v-3.033h-.962v-.617h2.576v.617h-.959v3.033zM148.51 214.066v-3.65h1.378c.346 0 .598.033.755.099a.771.771 0 0 1 .377.35c.095.168.142.359.142.575 0 .274-.071.5-.214.679s-.357.291-.642.338c.142.092.259.194.351.306.092.111.216.309.373.592l.396.713h-.783l-.473-.794a5.165 5.165 0 0 0-.345-.537l-.197-.151a.97.97 0 0 0-.33-.042h-.133v1.524h-.655zm.655-2.106h.484c.314 0 .51-.016.588-.045l.184-.154a.52.52 0 0 0 .066-.273c0-.123-.029-.223-.087-.298s-.14-.123-.247-.144a4.916 4.916 0 0 0-.478-.013h-.511v.927zM154.703 214.066h-.712l-.283-.829h-1.296l-.268.829h-.694l1.263-3.65h.692l1.298 3.65zm-1.205-1.444l-.447-1.354-.438 1.354h.885zM157.125 212.724l.635.228c-.098.397-.259.694-.486.887-.226.194-.513.29-.861.29-.43 0-.784-.165-1.062-.496s-.416-.784-.416-1.358c0-.607.139-1.079.418-1.415s.645-.504 1.099-.504c.396 0 .719.132.966.396.147.156.258.38.332.673l-.648.174c-.039-.189-.119-.339-.24-.448s-.27-.165-.443-.165c-.24 0-.435.098-.585.292s-.225.509-.225.943c0 .462.074.79.221.985a.687.687 0 0 0 .575.294.614.614 0 0 0 .449-.187c.126-.125.216-.322.271-.589zM158.33 214.066v-3.65h.654v1.621l1.323-1.621h.881l-1.222 1.422 1.287 2.228h-.846l-.892-1.712-.531.609v1.103zM145.732 220.009v-3.651h.98l.588 2.49.582-2.49h.982v3.651h-.608v-2.873l-.644 2.873h-.63l-.642-2.873v2.873zM149.381 218.206c0-.372.049-.684.148-.937.074-.186.174-.353.302-.5a1.24 1.24 0 0 1 .419-.328c.202-.097.435-.145.699-.145.478 0 .86.166 1.147.5.287.333.43.798.43 1.392 0 .589-.143 1.05-.427 1.383-.285.333-.665.499-1.142.499-.482 0-.865-.165-1.15-.496s-.426-.788-.426-1.368zm.675-.025c0 .413.085.727.254.94.17.213.385.319.646.319a.784.784 0 0 0 .643-.317c.167-.211.251-.529.251-.952 0-.418-.082-.73-.245-.937a.789.789 0 0 0-.649-.309.79.79 0 0 0-.652.313c-.165.209-.248.523-.248.943zM153.035 216.358h1.196c.27 0 .476.023.617.07.19.063.353.175.489.336.136.16.239.358.31.591a3 3 0 0 1 .106.862c0 .301-.033.56-.1.777-.081.266-.196.48-.347.645a1.11 1.11 0 0 1-.46.291 1.75 1.75 0 0 1-.579.078h-1.232v-3.65zm.654.618v2.418h.489a1.6 1.6 0 0 0 .396-.035.605.605 0 0 0 .265-.151c.07-.071.127-.188.171-.353.044-.163.067-.387.067-.669 0-.281-.022-.498-.067-.649-.044-.151-.106-.269-.186-.354s-.181-.143-.303-.172c-.091-.023-.271-.035-.537-.035h-.295zM156.309 220.009v-3.651h2.403v.618h-1.749v.809h1.628v.615h-1.628v.994h1.811v.615zM184.641 248.533v-3.65h1.378c.346 0 .598.033.755.099a.771.771 0 0 1 .377.35c.094.168.142.359.142.575 0 .274-.072.5-.215.679-.143.179-.357.291-.641.337.141.093.258.195.351.307s.216.309.373.592l.396.713h-.783l-.473-.794a5.165 5.165 0 0 0-.345-.537l-.197-.152a1.002 1.002 0 0 0-.33-.041h-.133v1.524h-.655zm.654-2.106h.484c.314 0 .51-.016.589-.045l.184-.154a.52.52 0 0 0 .066-.273c0-.123-.029-.223-.087-.298s-.14-.123-.247-.144a4.916 4.916 0 0 0-.478-.013h-.511v.927zM187.909 248.533v-3.65h2.404v.617h-1.749v.81h1.627v.615h-1.627v.993h1.811v.615zM190.93 248.533v-3.65h1.051c.398 0 .657.019.778.055a.863.863 0 0 1 .467.357c.125.184.188.421.188.711 0 .224-.036.412-.108.565-.072.152-.164.272-.275.359s-.225.145-.34.174a3.39 3.39 0 0 1-.679.052h-.427v1.377h-.655zm.655-3.033v1.036h.358c.258 0 .43-.019.518-.057l.205-.18a.539.539 0 0 0 .074-.284c0-.133-.034-.242-.104-.328s-.157-.141-.264-.162a2.749 2.749 0 0 0-.471-.025h-.316zM193.951 248.533v-3.65h2.404v.617h-1.749v.81h1.628v.615h-1.628v.993h1.811v.615zM199.896 248.533h-.712l-.283-.83h-1.296l-.268.83h-.694l1.263-3.65h.692l1.298 3.65zm-1.205-1.444l-.447-1.354-.438 1.354h.885zM200.638 248.533V245.5h-.963v-.617h2.577v.617h-.96v3.033z"/><path d="M381.202 216.086c-4.558 0-8.266-3.708-8.266-8.266s3.708-8.266 8.266-8.266 8.267 3.708 8.267 8.266-3.709 8.266-8.267 8.266zm0-15.235c-3.843 0-6.969 3.127-6.969 6.97s3.126 6.969 6.969 6.969c3.844 0 6.97-3.126 6.97-6.969s-3.126-6.97-6.97-6.97z" fill="#131313"/><path d="M381.202 215.438c-4.2 0-7.617-3.417-7.617-7.617s3.417-7.617 7.617-7.617c4.201 0 7.618 3.417 7.618 7.617s-3.417 7.617-7.618 7.617zm0-12.642c-2.77 0-5.023 2.254-5.023 5.024s2.254 5.024 5.023 5.024c2.771 0 5.024-2.254 5.024-5.024s-2.253-5.024-5.024-5.024z" fill="#707070"/><path d="M387.523 207.82a6.32 6.32 0 1 1-12.641-.001 6.32 6.32 0 0 1 12.641.001z" fill="#212327"/><path fill="#fff" d="M379.151 205.768h4.104v4.104h-4.104z"/><path d="M374.645 246.169c-7.939 0-14.397-6.459-14.397-14.397 0-7.938 6.458-14.396 14.397-14.396 7.938 0 14.396 6.459 14.396 14.396 0 7.938-6.458 14.397-14.396 14.397zm0-27.498c-7.224 0-13.101 5.877-13.101 13.101s5.877 13.101 13.101 13.101 13.101-5.877 13.101-13.101-5.878-13.101-13.101-13.101z" fill="#131313"/><path d="M374.645 245.521c-7.582 0-13.749-6.168-13.749-13.749 0-7.58 6.167-13.749 13.749-13.749 7.581 0 13.749 6.169 13.749 13.749 0 7.581-6.168 13.749-13.749 13.749zm0-22.818c-5.001 0-9.068 4.068-9.068 9.068 0 5.001 4.067 9.068 9.068 9.068 5 0 9.068-4.067 9.068-9.068 0-5-4.068-9.068-9.068-9.068z" fill="#707070"/><path d="M386.053 231.771c0 6.301-5.107 11.409-11.408 11.409s-11.409-5.108-11.409-11.409 5.108-11.408 11.409-11.408 11.408 5.108 11.408 11.408z" fill="#212327"/><path fill="#fff" d="M367.365 234.473v-5.403l6.429 2.701zM375.469 229.07h2.863v5.402h-2.863zM379.06 229.07h2.863v5.402h-2.863z"/><path fill="#070707" d="M378.117 188.156v-2.761h.562v2.293h1.398v.468zM380.461 185.372h.562v2.784h-.562zM381.563 188.156v-2.784h1.908v.471h-1.347v.659h1.163v.471h-1.163v1.183zM384.562 188.156v-2.313h-.827v-.471h2.212v.471h-.824v2.313zM376.58 191.449c0-.284.043-.521.128-.714.063-.143.149-.27.259-.382.109-.113.229-.196.36-.251.173-.073.373-.11.6-.11.41 0 .738.127.985.382.246.255.369.608.369 1.062 0 .449-.122.802-.366 1.056-.245.254-.571.38-.98.38-.414 0-.743-.126-.987-.379-.246-.253-.368-.6-.368-1.044zm.58-.019c0 .315.072.555.218.717a.712.712 0 0 0 .555.244.709.709 0 0 0 .552-.241c.144-.162.216-.404.216-.727 0-.319-.07-.558-.21-.715-.14-.156-.326-.235-.558-.235s-.418.08-.561.238c-.142.159-.212.398-.212.719zM379.72 192.824v-2.784h.902c.342 0 .564.014.669.042a.731.731 0 0 1 .4.271.872.872 0 0 1 .161.543c0 .171-.03.314-.093.431a.78.78 0 0 1-.528.407 3.274 3.274 0 0 1-.583.039h-.366v1.051h-.562zm.562-2.313v.79h.308c.222 0 .37-.015.444-.044l.176-.137.063-.216a.355.355 0 0 0-.089-.251.393.393 0 0 0-.227-.124 2.784 2.784 0 0 0-.404-.019h-.271zM382.314 192.824v-2.784h2.065v.471h-1.502v.617h1.397v.469h-1.397v.757h1.555v.47zM384.914 192.824v-2.784h.548l1.139 1.859v-1.859h.522v2.784h-.563l-1.123-1.815v1.815z"/><path d="M264.296 257.908c-41.158 0-78.423-22.63-97.442-59.109h-29.398v-2.594h31.491v.997c18.506 35.854 55.012 58.113 95.349 58.113 40.338 0 76.844-22.259 95.35-58.113v-.982l1.297-.015h30.194v2.594h-29.398c-19.019 36.479-56.285 59.109-97.443 59.109z"/><circle cx="264.296" cy="147.962" r="108.534" fill="#242729"/><circle cx="264.296" cy="147.962" r="103.107" fill="#141618"/><path d="M362.644 116.905c3.092 9.801 4.76 20.235 4.76 31.058s-1.667 21.255-4.759 31.055H165.948v-.001c-3.092-9.8-4.759-20.232-4.759-31.054s1.667-21.255 4.759-31.056l.002.001h196.693" fill="#0f0f0f"/><path fill="#fff" d="M363.886 243.707v4.924h-1.816v-2.257l-4.537 2.052v-2.052l-4.537 2.052v-4.514l4.537 2.052v-2.052l4.537 2.052v-2.257zM340.278 243.707v2.257l4.537-2.052v2.052l4.539-2.052v4.514l-4.539-2.052v2.052l-4.537-2.052v2.257h-1.814v-4.924z"/><path d="M367.409 260.552H334.94c-3.023 0-5.483-2.46-5.483-5.483s2.46-5.483 5.483-5.483h32.469c3.023 0 5.482 2.46 5.482 5.483s-2.458 5.483-5.482 5.483zm-32.469-9.671c-2.309 0-4.187 1.879-4.187 4.188s1.878 4.187 4.187 4.187h32.469c2.309 0 4.187-1.878 4.187-4.187s-1.878-4.188-4.187-4.188H334.94z" fill="#131313"/><path d="M367.57 259.903h-32.846a4.66 4.66 0 0 1-4.646-4.646v-.378a4.66 4.66 0 0 1 4.646-4.646h32.846a4.66 4.66 0 0 1 4.646 4.646v.378a4.658 4.658 0 0 1-4.646 4.646z" fill="#707070"/><path d="M367.139 257.148H335.21a2.004 2.004 0 0 1-1.998-1.999v-.162c0-1.1.899-1.999 1.998-1.999h31.929c1.1 0 1.999.899 1.999 1.999v.162c0 1.1-.9 1.999-1.999 1.999z" fill="#212327"/><path fill="#d3d8ca" d="M334.778 254.541h32.955v1.054h-32.955z"/><path fill="#242729" d="M350.445 251.719h1.351v6.699h-1.351z"/><path d="M199.358 263.195h-13.869c-2.659 0-4.822-2.163-4.822-4.821s2.163-4.822 4.822-4.822h7.998a6.59 6.59 0 0 1 5.871-3.589 6.6 6.6 0 0 1 6.592 6.592c0 3.416-2.612 6.234-5.944 6.561v.032l-.648.047zm-13.869-8.346a3.529 3.529 0 0 0-3.525 3.525 3.528 3.528 0 0 0 3.525 3.524h13.221l.648-.048c2.92 0 5.296-2.376 5.296-5.296s-2.376-5.296-5.296-5.296a5.296 5.296 0 0 0-4.865 3.198l-.542-.233v.625h-8.462z" fill="#131313"/><path d="M199.358 262.547h-14.032a4.022 4.022 0 0 1-4.01-4.01v-.326a4.023 4.023 0 0 1 4.01-4.011h14.032v8.347z" fill="#707070"/><path d="M188.388 258.495a2.432 2.432 0 1 1-4.864 0 2.432 2.432 0 0 1 4.864 0z" fill="#43544a"/><path d="M205.302 256.555a5.944 5.944 0 1 1-5.944-5.944 5.942 5.942 0 0 1 5.944 5.944z" fill="#707070"/><path d="M203.904 256.555a4.546 4.546 0 1 1-9.092 0 4.546 4.546 0 0 1 9.092 0z" fill="#212327"/><path d="M214.595 170.063a57.848 57.848 0 0 1-4.322-22.014 57.857 57.857 0 0 1 4.31-21.985v.03h-40.358l-.125-.03a93.02 93.02 0 0 0-2.599 21.899c0 7.626.92 15.038 2.655 22.129l.007-.003h40.432v-.026zM313.998 169.948a57.857 57.857 0 0 0 4.322-22.015 57.838 57.838 0 0 0-4.311-21.985v.03h40.358l.125-.03a93.028 93.028 0 0 1 2.599 21.9c0 7.626-.92 15.038-2.654 22.128l-.007-.002h-40.432v-.026z" fill="#27292b"/><g><radialGradient id="c" cx="-60.733" cy="544.763" r="1" gradientTransform="matrix(93.7419 0 0 -93.7419 6358.673 51419.527)" gradientUnits="userSpaceOnUse"><stop offset="0" stop-color="#30241a"/><stop offset="1" stop-color="#604832"/></radialGradient><path d="M759.153 352.458c0 51.772-41.97 93.742-93.742 93.742s-93.742-41.97-93.742-93.742c0-51.771 41.97-93.741 93.742-93.741s93.742 41.97 93.742 93.741zm-77.645-34.136a37.518 37.518 0 0 0-16.097-3.607c-20.813 0-37.743 16.932-37.743 37.743 0 20.813 16.931 37.743 37.743 37.743s37.743-16.931 37.743-37.743c0-15.058-8.862-28.084-21.646-34.136" fill="url(#c)"/><path d="M665.41 449.027c-53.248 0-96.568-43.32-96.568-96.569 0-53.248 43.32-96.568 96.568-96.568 53.249 0 96.57 43.32 96.57 96.568 0 53.249-43.321 96.569-96.57 96.569zm0-192.972c-53.156 0-96.403 43.247-96.403 96.403 0 53.158 43.247 96.404 96.403 96.404 53.158 0 96.405-43.246 96.405-96.404 0-53.156-43.247-96.403-96.405-96.403z" fill="#0f1417"/><path d="M665.412 369.191c-9.227 0-16.733-7.507-16.733-16.733s7.507-16.732 16.733-16.732 16.731 7.506 16.731 16.732-7.505 16.733-16.731 16.733zm0-32.325c-8.599 0-15.594 6.994-15.594 15.592s6.995 15.593 15.594 15.593c8.597 0 15.592-6.995 15.592-15.593s-6.995-15.592-15.592-15.592z" fill="#a198a0"/><path d="M665.412 365.959c-7.445 0-13.501-6.057-13.501-13.501s6.056-13.5 13.501-13.5c7.443 0 13.499 6.056 13.499 13.5s-6.056 13.501-13.499 13.501zm0-25.86c-6.815 0-12.36 5.545-12.36 12.359 0 6.815 5.545 12.36 12.36 12.36 6.813 0 12.358-5.545 12.358-12.36.001-6.814-5.544-12.359-12.358-12.359z" fill="#a198a0"/><path d="M571.637 352.459c0 51.772 41.97 93.741 93.742 93.741 51.771 0 93.741-41.969 93.741-93.741l.255-.376h-56.221c0 20.813-16.355 37.744-37.168 37.744-20.812 0-37.743-16.932-37.743-37.744h-56.796" fill="#1e1c1a"/><path d="M653.641 398.072c-.036-.826.629-1.613 1.44-1.738.663-.026 1.327 0 1.991-.012.955-.101 1.849.802 1.798 1.747-.001.948-.004 1.896.001 2.844-.569.006-1.138.002-1.707.003-.002-.964.006-1.927-.004-2.891-.634.007-1.268.005-1.901.001-.008 5.351-.001 10.701-.004 16.051.653-.002 1.306.006 1.96-.005-.011-2.59-.002-5.18-.005-7.769h-.863v-1.546c.839-.002 1.679.004 2.52-.003.004 3.632.009 7.264-.003 10.894-1.172-.007-2.345-.001-3.517-.002-.682.002-1.358-.432-1.61-1.069-.134-.334-.089-.699-.095-1.05 0-5.151.001-10.303-.001-15.455zM663.278 399.576c1.114.001 2.229-.006 3.343.003.687-.009 1.388.365 1.681 1 .12.239.089.513.094.771-.005 1.697 0 3.394-.003 5.09-.037.72-.546 1.452-1.287 1.577.55 2.54 1.084 5.084 1.619 7.629h-1.559c-.578-2.518-1.162-5.032-1.741-7.549l-.555.004c-.002 2.522.003 5.046-.002 7.569-.53-.003-1.061.001-1.59-.003.003-5.363.001-10.728 0-16.091zm1.616 1.568v5.229h1.862c.003-1.742.001-3.485.001-5.229h-1.863zM672.714 401.069c.003-.731.611-1.434 1.355-1.468.73-.01 1.46.001 2.19-.006.373-.006.76.089 1.053.33.338.273.516.712.515 1.144v14.576h-1.568c-.001-2.546.001-5.092-.001-7.638-.651 0-1.302.001-1.952-.001-.005 2.547.001 5.093-.004 7.64l-1.589-.001c.001-4.858-.002-9.717.001-14.576zm1.636.165c.003 1.722-.006 3.442.003 5.164.62-.008 1.24-.003 1.86-.004 0-1.721.002-3.44-.001-5.161-.621.002-1.241 0-1.862.001zM681.828 400.979c.005-.705.623-1.37 1.337-1.381.896-.004 1.791.001 2.687-.001v1.433c-.802-.002-1.604.003-2.405-.004-.01 1.798-.003 3.594-.004 5.392.658-.002 1.318-.001 1.978-.001 0 .53-.002 1.061 0 1.591h-1.978c-.002 2.546 0 5.092-.001 7.638h-1.613l-.001-14.667zM689.853 399.598h1.682c.01 1.486-.021 2.976.015 4.461.285.477.618.925.916 1.395.293-.46.636-.89.899-1.368.025-1.494.006-2.99.01-4.485.562-.003 1.123-.004 1.686 0-.006 1.068-.001 2.137-.002 3.205-.007.496.047 1.009-.137 1.483-.372.994-.934 1.902-1.491 2.8.634 1.019 1.321 2.05 1.612 3.227.034 1.783.009 3.571.012 5.356-.521-.004-1.043-.001-1.564-.002-.006-1.793.011-3.586-.008-5.379-.264-.542-.661-1.017-.978-1.532-.325.498-.667.984-.994 1.48-.001 1.812.008 3.623-.004 5.434-.552-.008-1.103-.001-1.653-.003-.001-1.683.001-3.364-.001-5.047-.008-.456.211-.873.392-1.28.392-.787.85-1.541 1.34-2.271-.656-1.007-1.387-2.013-1.711-3.185-.049-1.428-.009-2.86-.021-4.289zM711.508 405.153h-2.615v5.029h2.615v-5.029z" fill="#604832"/><path d="M715.037 410.391a8.603 8.603 0 0 0-.063-5.671 8.548 8.548 0 0 0-2.907-3.902c-1.825-1.381-4.222-1.96-6.477-1.585-2.841.431-5.371 2.424-6.479 5.071-1.122 2.597-.836 5.748.756 8.09 1.528 2.318 4.254 3.803 7.037 3.777 1.859.036 3.715-.591 5.196-1.711a8.5 8.5 0 0 0 2.937-4.069zm-13.172-6.407l3.403-.002c.21.209.395.382.606.594v1.382h-1.006a54.003 54.003 0 0 1 0-.805h-2.414v5.029h2.414a54.003 54.003 0 0 1 0-.805h1.006v1.382c-.212.212-.394.381-.603.592h-3.407l-.577-.567-.004-6.227.582-.573zm5.217 1.169v-1.171h5.013l.584.573v6.223l-.582.573h-5.027c-.002-.402.011-.767.013-1.169h.604v-5.029h-.605zM615.294 399.575c.552-.002 1.103.004 1.654-.004.011 4.82.001 9.641.005 14.461h1.864c.003-4.821-.008-9.641.005-14.462.561.01 1.119 0 1.68.008-.007 4.619-.002 9.239-.003 13.859-.007.333.029.674-.054 1-.158.702-.842 1.234-1.56 1.231-.666 0-1.334.003-2-.002-.871-.017-1.61-.825-1.588-1.689-.01-4.8-.001-9.601-.003-14.402zM624.704 399.575c1.147.006 2.297-.013 3.444.009.813.011 1.684.627 1.691 1.494.003 1.759.003 3.518 0 5.276-.007.761-.515 1.554-1.298 1.694.542 2.54 1.075 5.08 1.619 7.619-.521.002-1.041.001-1.561.001-.576-2.509-1.159-5.015-1.734-7.523l-.57-.002c-.001 2.509.001 5.018-.001 7.525h-1.591l.001-16.093zm1.658 1.592c.002 1.75 0 3.5.001 5.25.613.001 1.227-.003 1.84.003.005-1.751.001-3.503.002-5.254-.615.001-1.228-.001-1.843.001zM634.361 399.579c1.203-.003 2.406-.014 3.608.003.762-.002 1.48.63 1.508 1.403.005 1.697 0 3.396.002 5.095.005.472-.333.845-.664 1.139.32.267.631.613.66 1.05.05.691.018 1.387.026 2.08-.008 1.06.021 2.119-.022 3.179-.015.45.069.932-.155 1.347-.243.501-.801.79-1.345.795-1.204.003-2.407-.005-3.61.003-.012-5.366.003-10.731-.008-16.094zm1.663 1.587c0 1.75-.001 3.502.001 5.252.613-.002 1.227 0 1.84-.001.001-1.75-.001-3.5.002-5.249-.614-.004-1.228-.001-1.843-.002zm.002 6.932c-.005 1.993-.001 3.986-.002 5.979.614-.001 1.229.002 1.842-.001-.002-1.992 0-3.984-.001-5.977-.612 0-1.226.002-1.839-.001zM644.836 399.665c.489-.141 1.005-.076 1.508-.09.554.011 1.151-.068 1.658.211.504.268.951.776.935 1.376-.002 4.125-.001 8.25 0 12.375-.006.359.042.74-.123 1.074-.257.536-.767.995-1.375 1.054-.546.013-1.091-.003-1.636.005-.319-.003-.651.028-.953-.095-.639-.251-1.164-.88-1.143-1.589.001-4.12.002-8.242 0-12.363.003-.332-.033-.683.106-.994a1.778 1.778 0 0 1 1.023-.964zm.622 1.523c-.001 4.266.001 8.532-.001 12.797.591.002 1.183.002 1.774 0v-12.797h-1.773zM608.399 397.924h-1.561v-1.614h5.001v1.614h-1.563v17.73h-1.877z" fill="#604832"/><path d="M722.567 364.302l-5.929-6.471-2.694 2.806 1.293 1.076-1.544 7.788 3.1-1.238-1.6-1.351.887-4.119 6.245 6.56 2.156-8.943 2.184-1.204-2.64-1.463-1.458 6.559zm5.222-5.387c.187.192.421.438.366.7l-.729 3.497c-.057.274-.323.473-.532.609-.208.137-.465.173-.721.21.221.079.442.158.59.305.15.146.355.354.301.574l-.834 3.407c-.078.313-.43.511-.679.682-.25.171-.535.259-.819.346h9.976l.7-3.409c-.383.708-.768 1.415-1.421 1.869-.655.453-1.551.853-2.5.853h-1.827l.911-4.218a1.48 1.48 0 0 1 1.044.057c.339.148.64.438.912.752.269.313.507.652.696 1.011l.956-4.436c-.326.326-.69.621-1.082.887s-.811.502-1.203.619a1.973 1.973 0 0 1-1.098.027l.945-4.152 1.471-.013c.666-.005 1.332-.079 1.868.322.538.401.95 1.242 1.359 2.084l.728-3.04h-10.14c.286.132.573.265.762.457zm11.95 1.064c-.746.579-1.419 1.35-1.867 2.189s-.675 1.751-.687 2.584a4.648 4.648 0 0 0 .564 2.292c.374.697.918 1.33 1.591 1.758.673.43 1.474.653 2.208.756a7.392 7.392 0 0 0 1.932.019c.53-.069.92-.185 1.275-.365l2.104-3.984c-.545.233-1.1.445-1.674.661-.575.217-1.171.438-1.803.507-.632.068-1.301-.012-1.894-.333a3.21 3.21 0 0 1-1.381-1.513c-.269-.628-.287-1.325-.1-1.954s.586-1.19 1.068-1.682 1.049-.913 1.576-1.191 1.014-.413 1.512-.445l1.59 2.086 1.829-.622-1.282-2.859a8.506 8.506 0 0 0-1.155.045c-.43.042-.928.114-1.442.234-.516.12-1.051.29-1.727.569s-1.492.668-2.237 1.248z" fill-rule="evenodd" clip-rule="evenodd" fill="#604832"/><path d="M613.16 357.41a3.082 3.082 0 0 1-.009.2c-.024.214 0 .314-.615.314-.616 0-.592-.101-.616-.314a15.333 15.333 0 0 1 0-1.254c.024-.213 0-.313.616-.313.615 0 .591.101.615.313.004.029.007.113.009.214h.841a6.263 6.263 0 0 0-.023-.434c-.048-.426.12-.835-1.441-.835s-1.393.409-1.44.835c-.016.14-.03.492-.028.847.001.355.013.708.028.847.048.427-.12.835 1.44.835 1.562 0 1.394-.408 1.441-.835.01-.081.018-.234.022-.42h-.84zM603.178 355.388l-.822 2.397-.821-2.397-1.228-.007v3.219h.821v-2.398l.821 2.398h.822l.814-2.398v2.398h.821v-3.219zM614.186 355.381h2.361v.821h-.77v2.398h-.822v-2.398h-.769zM607.854 358.6l.942-3.222h1.225l.944 3.222h-.821l-.195-.666h-1.077l.152-.524h.771l-.383-1.311-.736 2.501zM598.328 356.043c.615 0 .591.101.615.313.009.07.014.449.015.627 0 .178-.006.558-.015.627-.024.214 0 .314-.615.314s-.591-.101-.615-.314a11.11 11.11 0 0 1-.015-.627c.001-.178.006-.557.015-.627.024-.212 0-.313.615-.313l.001-.741c-1.561 0-1.393.409-1.44.835-.017.14-.031.492-.029.847.002.355.013.708.029.847.048.427-.12.835 1.44.835s1.393-.408 1.441-.835c.015-.139.027-.491.028-.847.002-.354-.014-.707-.028-.847-.049-.426.119-.835-1.441-.835l-.001.741zM595.555 357.41a4.088 4.088 0 0 1-.009.2c-.024.214 0 .314-.615.314s-.591-.101-.615-.314a11.11 11.11 0 0 1-.015-.627c0-.178.007-.557.015-.627.024-.213 0-.313.615-.313s.591.101.615.313c.003.029.006.113.009.214h.842a6.98 6.98 0 0 0-.023-.434c-.049-.426.119-.835-1.441-.835s-1.393.409-1.441.835c-.016.14-.03.492-.029.847.002.355.014.708.029.847.049.427-.119.835 1.441.835s1.393-.408 1.441-.835a5.56 5.56 0 0 0 .021-.42h-.84zM606.407 357.863h-.499v-.734l.499-.003c.614 0 .596-.101.619-.314.009-.069.007-.012.007-.189-.001-.178.002-.117-.007-.187-.023-.213-.005-.313-.619-.313l-.499.001.001 2.474h-.823v-3.216h1.321c1.561 0 1.389.409 1.446.835.007.051.007.283.007.408 0 .102 0 .334-.007.407-.039.427.115.831-1.446.831zM590.433 370.72l-5.142-.007a1.347 1.347 0 0 1-1.347-1.346v-7.82c0-.743.603-1.346 1.347-1.346l3.218-.004a.7.7 0 0 0 .7-.699l.009-3.127c0-.162.132-.293.294-.293h1.886c.163 0 .294.131.294.293l.02 14.056a.294.294 0 0 1-.294.293h-.985l-.024.697h1.287a.7.7 0 0 0 .699-.699v-14.645a.7.7 0 0 0-.699-.7h-2.475a.7.7 0 0 0-.7.699l.004 3.135a.294.294 0 0 1-.294.293l-2.939-.005a2.053 2.053 0 0 0-2.054 2.052v7.82c0 1.134.92 2.052 2.054 2.052l5.117-.001.024-.698z" fill="#604832"/><path d="M588.521 367.84v-5.059a.768.768 0 0 0-1.537 0v5.461a.77.77 0 0 0 1.537 0v-.402l.698.024v.378a1.466 1.466 0 1 1-2.934 0v-5.461a1.466 1.466 0 0 1 2.934 0v5.083l-.698-.024zM595.319 370.72h-.963a.294.294 0 0 1-.293-.294l.012-9.926c0-.162.132-.293.293-.293h1.887c.162 0 .294.131.294.293l.02 9.926a.293.293 0 0 1-.293.293l-.957.001v.694l1.233.002a.7.7 0 0 0 .7-.699v-10.516a.7.7 0 0 0-.7-.699h-2.476a.7.7 0 0 0-.699.699l-.001 10.513c0 .387.311.699.697.699l1.245.001v-.694h.001zM604.206 362.16l-2.072-.003a1.154 1.154 0 1 0 0 2.307l2.84.008c.744 0 1.347.603 1.347 1.347l-.009 3.531c0 .744-.604 1.347-1.348 1.347l-5.636.01a.294.294 0 0 1-.294-.293v-1.368c0-.162.132-.293.294-.293l3.841-.013a1.154 1.154 0 1 0 0-2.307l-2.781-.011a1.348 1.348 0 0 1-1.347-1.347v-3.528c0-.743.604-1.346 1.347-1.346l5.226-.024c.161 0 .293.131.293.293v1.399a.294.294 0 0 1-.293.293l-1.408-.002-.023.688 1.719.001a.697.697 0 0 0 .699-.697l.003-1.96a.7.7 0 0 0-.699-.699l-5.517.003a2.052 2.052 0 0 0-2.053 2.052v3.528c0 1.133.919 2.053 2.053 2.053l2.781-.006a.465.465 0 0 1 0 .929l-4.141-.001a.698.698 0 0 0-.699.699v1.956a.7.7 0 0 0 .699.699l5.936-.001a2.054 2.054 0 0 0 2.054-2.053l.009-3.531a2.053 2.053 0 0 0-2.053-2.053l-2.84.009a.465.465 0 0 1 0-.928h2.049l.023-.688zM614.651 364.101h.89a.294.294 0 0 0 .294-.293l-.004-2.261c0-.743-.604-1.346-1.348-1.346h-4.452c-.745 0-1.348.603-1.348 1.346v7.82c0 .743.603 1.347 1.348 1.347h4.452c.744 0 1.348-.604 1.348-1.347l.004-2.149a.294.294 0 0 0-.294-.293h-1.68a.293.293 0 0 0-.293.293l.009 1.024c0 .81-.51 1.467-1.32 1.467s-1.319-.657-1.319-1.467v-5.461c0-.81.51-1.466 1.319-1.466.811 0 1.32.656 1.32 1.466l-.009 1.026c0 .162.131.293.293.293h.79l-.024.705h-1.057a.7.7 0 0 1-.7-.699l.009-1.325c0-.424-.197-.768-.622-.768-.424 0-.621.344-.621.768v5.461c0 .425.197.769.621.769.425 0 .622-.344.622-.769l-.009-1.323a.7.7 0 0 1 .7-.699h2.268a.7.7 0 0 1 .7.699l-.001 2.448c0 1.134-.92 2.052-2.054 2.052h-4.452a2.052 2.052 0 0 1-2.054-2.052v-7.82c0-1.133.919-2.052 2.054-2.052h4.452c1.134 0 2.054.919 2.054 2.052l.001 2.56a.7.7 0 0 1-.7.699h-1.211l.024-.705z" fill="#604832"/><path d="M665.411 390.201c-20.813 0-37.743-16.931-37.743-37.743s16.931-37.743 37.743-37.743 37.743 16.932 37.743 37.743c0 20.813-16.93 37.743-37.743 37.743zm0-74.346c-20.184 0-36.604 16.42-36.604 36.603s16.42 36.604 36.604 36.604c20.183 0 36.604-16.421 36.604-36.604s-16.421-36.603-36.604-36.603z"/><path d="M702.585 352.458c0 20.53-16.644 37.174-37.174 37.174s-37.174-16.644-37.174-37.174 16.644-37.173 37.174-37.173 37.174 16.643 37.174 37.173zm-37.174-32.324c-17.853 0-32.325 14.472-32.325 32.324s14.473 32.325 32.325 32.325 32.325-14.473 32.325-32.325-14.472-32.324-32.325-32.324z" fill="#aa9885"/><path d="M902.555 443.188c0 3.212-2.629 5.84-5.841 5.84H808.1c-3.212 0-5.84-2.628-5.84-5.84V300.096c0-3.212 2.628-5.84 5.84-5.84h88.614c3.212 0 5.841 2.628 5.841 5.84v143.092z" fill="#e6e6e6"/><path fill="#070506" d="M806.336 348.031h92.143v87.125h-92.143zM804.955 297.659v40.304c0 3.25 2.628 5.909 5.841 5.909h83.223c3.213 0 5.841-2.659 5.841-5.909v-40.304h-94.905z"/><path fill="#22211d" d="M804.955 297.659h94.904v8.056h-94.904z"/><path d="M865.898 441.947l-13.33-3.993a.573.573 0 0 0-.323 0l-13.329 3.993a.563.563 0 0 0-.402.54v3.484c0 .311.253.563.564.563h26.658a.564.564 0 0 0 .564-.563v-3.484a.563.563 0 0 0-.402-.54z" fill="#d3d3d3"/><path fill="#d1ad2d" d="M807.488 299.639h1.357v5.365h-1.357zM809.88 298.799h1.357v6.205h-1.357zM812.271 298.799h1.356v6.205h-1.356zM814.663 298.799h1.356v6.205h-1.356zM817.054 298.799h1.357v6.205h-1.357zM819.445 298.799h1.357v6.205h-1.357zM821.837 298.799h1.357v6.205h-1.357zM824.229 298.799h1.356v6.205h-1.356zM826.619 298.799h1.357v6.205h-1.357zM829.011 298.799h1.357v6.205h-1.357zM831.402 298.799h1.357v6.205h-1.357zM833.793 298.799h1.357v6.205h-1.357zM836.185 298.799h1.357v6.205h-1.357zM838.576 298.799h1.357v6.205h-1.357zM840.967 298.799h1.358v6.205h-1.358zM843.358 298.799h1.357v6.205h-1.357zM845.75 298.799h1.357v6.205h-1.357zM848.142 297.659h1.357v8.056h-1.357zM850.532 298.799h1.358v6.205h-1.358zM852.924 298.799h1.357v6.205h-1.357zM855.315 298.799h1.357v6.205h-1.357zM857.707 298.799h1.357v6.205h-1.357zM860.098 298.799h1.358v6.205h-1.358zM862.489 298.799h1.357v6.205h-1.357zM864.881 298.799h1.357v6.205h-1.357zM867.271 298.799h1.358v6.205h-1.358zM869.663 298.799h1.357v6.205h-1.357zM872.055 298.799h1.357v6.205h-1.357zM874.446 298.799h1.357v6.205h-1.357zM876.837 298.799h1.358v6.205h-1.358zM879.229 298.799h1.357v6.205h-1.357zM881.62 298.799h1.357v6.205h-1.357zM884.011 298.799h1.358v6.205h-1.358zM886.402 298.799h1.358v6.205h-1.358zM888.794 298.799h1.357v6.205h-1.357zM891.186 298.799h1.357v6.205h-1.357zM893.576 298.799h1.358v6.205h-1.358zM895.968 297.659h1.357v8.056h-1.357z"/><circle cx="808.167" cy="304.401" r=".328" fill="#1f1713"/><circle cx="810.559" cy="304.401" r=".328" fill="#1f1713"/><circle cx="812.949" cy="304.401" r=".328" fill="#1f1713"/><circle cx="815.341" cy="304.401" r=".328" fill="#1f1713"/><path d="M818.061 304.401a.328.328 0 1 1-.328-.328.33.33 0 0 1 .328.328z" fill="#1f1713"/><circle cx="820.123" cy="304.401" r=".328" fill="#1f1713"/><circle cx="822.515" cy="304.401" r=".328" fill="#1f1713"/><path d="M825.234 304.401a.328.328 0 1 1-.328-.328c.181 0 .328.148.328.328z" fill="#1f1713"/><circle cx="827.297" cy="304.401" r=".328" fill="#1f1713"/><circle cx="829.688" cy="304.401" r=".328" fill="#1f1713"/><path d="M832.408 304.401a.328.328 0 1 1-.656 0 .328.328 0 0 1 .656 0z" fill="#1f1713"/><circle cx="834.471" cy="304.401" r=".328" fill="#1f1713"/><circle cx="836.862" cy="304.401" r=".328" fill="#1f1713"/><circle cx="839.253" cy="304.401" r=".328" fill="#1f1713"/><circle cx="841.645" cy="304.401" r=".328" fill="#1f1713"/><path d="M844.364 304.401a.328.328 0 1 1-.328-.328c.181 0 .328.148.328.328z" fill="#1f1713"/><circle cx="846.427" cy="304.401" r=".328" fill="#1f1713"/><circle cx="848.818" cy="304.401" r=".328" fill="#1f1713"/><path d="M851.538 304.401a.328.328 0 1 1-.328-.328c.181 0 .328.148.328.328z" fill="#1f1713"/><circle cx="853.601" cy="304.401" r=".328" fill="#1f1713"/><circle cx="855.992" cy="304.401" r=".328" fill="#1f1713"/><path d="M858.712 304.401a.328.328 0 1 1-.656 0 .328.328 0 0 1 .656 0z" fill="#1f1713"/><circle cx="860.774" cy="304.401" r=".328" fill="#1f1713"/><circle cx="863.166" cy="304.401" r=".328" fill="#1f1713"/><path d="M865.886 304.401a.328.328 0 1 1-.656 0 .328.328 0 0 1 .656 0z" fill="#1f1713"/><circle cx="867.948" cy="304.401" r=".328" fill="#1f1713"/><circle cx="870.34" cy="304.401" r=".328" fill="#1f1713"/><circle cx="872.73" cy="304.401" r=".328" fill="#1f1713"/><circle cx="875.122" cy="304.401" r=".328" fill="#1f1713"/><path d="M877.842 304.401a.328.328 0 1 1-.328-.328.33.33 0 0 1 .328.328z" fill="#1f1713"/><circle cx="879.904" cy="304.401" r=".328" fill="#1f1713"/><circle cx="882.296" cy="304.401" r=".328" fill="#1f1713"/><path d="M885.016 304.401a.328.328 0 1 1-.656 0 .328.328 0 0 1 .656 0z" fill="#1f1713"/><circle cx="887.078" cy="304.401" r=".328" fill="#1f1713"/><circle cx="889.47" cy="304.401" r=".328" fill="#1f1713"/><path d="M892.189 304.401a.328.328 0 1 1-.656 0 .328.328 0 0 1 .656 0z" fill="#1f1713"/><circle cx="894.252" cy="304.401" r=".328" fill="#1f1713"/><circle cx="896.644" cy="304.401" r=".328" fill="#1f1713"/><path d="M866.301 442.487a.564.564 0 0 0-.402-.54l-.695-.208h-25.592l-.695.208a.563.563 0 0 0-.402.54h27.786zM862.99 441.076h-21.167l2.499-.749h16.232zM838.514 443.15h27.787v.748h-27.787z" fill="#c1c1c1"/><path d="M866.301 442.487a.564.564 0 0 0-.402-.54l-.695-.208h-25.592l-.695.208a.563.563 0 0 0-.402.54h27.786zM862.99 441.076h-21.167l2.499-.749h16.232zM858.278 439.665h-11.743l2.498-.749h6.747zM838.514 443.15h27.787v.709h-27.787zM838.514 444.488h27.787v.709h-27.787zM866.301 445.826h-27.787v.146c0 .311.253.563.564.563h26.658a.564.564 0 0 0 .564-.563v-.146z" fill="#b7b7b7"/><path fill="#d3d3d3" d="M846.535 445.826h11.744v.709h-11.744z"/><path d="M871.112 402.539c1.447-4.226 1.375-8.94-.146-13.133-1.316-3.575-3.671-6.77-6.734-9.037-4.226-3.196-9.776-4.538-14.998-3.67-6.578.998-12.438 5.613-15.005 11.745-2.599 6.014-1.935 13.31 1.752 18.733 3.54 5.369 9.851 8.806 16.296 8.747 4.306.084 8.604-1.369 12.033-3.961 3.137-2.368 5.562-5.689 6.802-9.424z" fill="#f9541c"/><path d="M840.56 387.656l7.883-.005c.484.484.913.886 1.402 1.374v3.201h-2.329c-.005-.62-.005-1.244 0-1.863h-5.591v11.646h5.591c-.005-.619-.005-1.243 0-1.863h2.329v3.201c-.489.488-.91.88-1.395 1.369h-7.891l-1.337-1.313-.009-14.419 1.347-1.328zM864.25 387.651h-11.609v2.712h1.397v11.646h-1.397c-.005.933-.034 1.775-.029 2.707h11.644l1.347-1.328v-14.409l-1.353-1.328zm-1.36 14.359h-6.057v-11.646h6.057v11.646z" fill="#fff"/><path d="M854.71 357.271c-.03-.707.538-1.381 1.233-1.488.567-.021 1.135.001 1.703-.009.817-.087 1.582.686 1.538 1.494-.001.812-.003 1.623.001 2.434-.487.005-.973.002-1.46.002-.003-.824.005-1.648-.004-2.473-.542.006-1.085.004-1.627.001-.007 4.577-.001 9.155-.003 13.732.559-.002 1.117.005 1.677-.004-.009-2.216-.002-4.432-.004-6.647h-.739v-1.322c.718-.002 1.437.003 2.155-.002.004 3.106.008 6.214-.002 9.32-1.003-.006-2.006-.001-3.009-.002-.583.002-1.162-.369-1.377-.915-.115-.286-.076-.599-.082-.898.001-4.407.003-8.815 0-13.223zM862.956 358.558c.953.001 1.907-.005 2.86.003.587-.008 1.188.313 1.438.855.103.204.076.438.08.659-.004 1.452 0 2.903-.003 4.355-.031.615-.468 1.242-1.102 1.349.471 2.174.928 4.351 1.386 6.527l-1.333.001c-.495-2.154-.995-4.307-1.49-6.46-.158.002-.316.003-.475.003-.001 2.159.003 4.318-.002 6.477-.454-.002-.907.001-1.36-.002.004-4.589.002-9.179.001-13.767zm1.382 1.341v4.473c.531.001 1.063-.001 1.594.001.003-1.491.001-2.982.001-4.474h-1.595zM871.029 359.835c.003-.625.523-1.226 1.159-1.256.625-.008 1.25.001 1.874-.004.319-.006.65.076.901.282.289.233.441.609.44.978v12.473h-1.342l-.001-6.536c-.557.001-1.114.002-1.67-.001-.004 2.18 0 4.358-.004 6.537h-1.359c.002-4.159-.001-8.316.002-12.473zm1.4.142c.002 1.473-.005 2.945.003 4.418.53-.006 1.062-.002 1.592-.003-.001-1.472.001-2.943-.002-4.416-.532.002-1.062 0-1.593.001zM878.827 359.759c.005-.604.533-1.172 1.145-1.182.766-.003 1.531.001 2.298-.001v1.226c-.687-.002-1.372.003-2.058-.003-.009 1.538-.002 3.075-.003 4.613.563-.002 1.127-.001 1.691-.001 0 .453-.002.907 0 1.36-.563.002-1.128.001-1.691 0-.003 2.179 0 4.357-.001 6.536h-1.381v-12.548zM885.692 358.576h1.439c.009 1.272-.019 2.546.013 3.816.244.408.528.792.784 1.193.25-.394.543-.761.769-1.17.022-1.278.005-2.559.008-3.838.481-.003.962-.003 1.442 0-.005.914-.001 1.828-.001 2.742-.006.425.04.863-.117 1.27-.318.851-.799 1.628-1.275 2.396.542.871 1.13 1.753 1.379 2.76.029 1.526.008 3.056.01 4.583-.446-.003-.892-.001-1.339-.002-.004-1.534.01-3.067-.006-4.602-.226-.464-.565-.87-.836-1.312-.278.427-.571.843-.852 1.268-.001 1.55.007 3.1-.003 4.649-.472-.008-.943-.002-1.415-.004-.001-1.438.002-2.878-.001-4.317-.006-.391.181-.747.336-1.095a17.37 17.37 0 0 1 1.146-1.943c-.562-.861-1.187-1.722-1.464-2.725-.04-1.221-.005-2.445-.017-3.669zM821.901 358.557c.472-.001.943.004 1.416-.003.009 4.124 0 8.249.004 12.373h1.595c.003-4.125-.007-8.249.004-12.374.479.009.958 0 1.438.007-.006 3.952-.002 7.905-.003 11.858-.005.284.025.576-.046.855-.135.601-.72 1.056-1.334 1.053-.57 0-1.141.003-1.711-.001-.745-.015-1.378-.706-1.358-1.445-.01-4.108-.003-8.216-.005-12.323zM829.953 358.557c.981.006 1.965-.011 2.946.008.695.01 1.44.536 1.447 1.278.002 1.505.002 3.01 0 4.515-.006.651-.44 1.329-1.11 1.45.464 2.173.92 4.346 1.385 6.519h-1.335c-.492-2.146-.991-4.29-1.483-6.437l-.488-.001c-.001 2.146.001 4.292-.001 6.438h-1.36l-.001-13.77zm1.419 1.362l.001 4.492c.523.001 1.048-.003 1.573.002.004-1.498.001-2.996.002-4.495l-1.576.001zM838.216 358.561c1.028-.003 2.058-.012 3.087.003.651-.002 1.267.538 1.29 1.2.004 1.452 0 2.905.002 4.358.004.404-.285.723-.568.975.274.229.539.524.565.898.042.592.015 1.187.022 1.779-.008.906.017 1.813-.02 2.72-.013.386.059.798-.134 1.152-.207.429-.685.676-1.15.68-1.029.003-2.059-.004-3.089.003-.009-4.59.004-9.18-.005-13.768zm1.423 1.357v4.494c.525-.002 1.05 0 1.575-.001.001-1.498-.002-2.994.001-4.491-.526-.003-1.051-.001-1.576-.002zm.001 5.931c-.004 1.705-.001 3.411-.001 5.116.524 0 1.051.002 1.576 0-.003-1.706 0-3.41-.001-5.114-.525-.001-1.05.001-1.574-.002zM847.178 358.634c.418-.12.859-.065 1.289-.077.474.01.986-.058 1.419.181.432.229.814.664.8 1.177v10.589c-.005.308.036.634-.105.919-.22.459-.656.851-1.177.901-.467.011-.933-.002-1.399.004-.272-.002-.557.025-.815-.081-.546-.214-.995-.753-.978-1.358.001-3.526.002-7.053 0-10.579.003-.283-.028-.583.091-.85.161-.38.485-.689.875-.826zm.531 1.304v10.949h1.519c-.002-3.65 0-7.3-.001-10.949h-1.518zM816.003 357.145h-1.337v-1.381h4.279v1.381h-1.337v15.168h-1.605zM821.157 428.143h-.397c-.975 0-1.083-.232-1.083-.835v-.852h.866v1.119h.771v-1.102c0-.758.072-.767-.518-1.489l-.457-.56c-.711-.852-.662-.74-.662-1.695v-.576c0-.594.132-.844 1.035-.844h.397c.963 0 1.071.232 1.071.835v.619h-.867v-.834h-.771v.619c0 .766-.048.783.397 1.309l.566.653c.746.887.674.775.674 1.645v1.145c.002.594-.118.843-1.022.843zM833.891 428.143h-.397c-.975 0-1.083-.232-1.083-.835v-.852h.866v1.119h.771v-1.102c0-.758.072-.767-.518-1.489l-.457-.56c-.711-.852-.662-.74-.662-1.695v-.576c0-.594.132-.844 1.035-.844h.397c.963 0 1.071.232 1.071.835v.619h-.867v-.834h-.771v.619c0 .766-.048.783.397 1.309l.566.653c.746.887.674.775.674 1.645v1.145c.001.594-.119.843-1.022.843zM841.028 421.31v.62h-.831v6.213h-.867v-6.213h-.83v-.62zM846.697 421.31v.62h-1.204v2.521h1.132v.611h-1.132v2.513h1.204v.568h-2.071v-6.833zM851.317 421.31l1.145 3.692 1.071-3.692h.866v6.833h-.866v-1.626c0-.62.048-2.72.048-2.72l-.854 3.081h-.59l-.867-3.099s.048 2.117.048 2.737v1.626h-.866v-6.833h.865zM865.026 421.93h-.71v5.646h.71v-1.102h.915v.826c0 .594-.12.843-1.023.843h-.445c-.963 0-1.083-.232-1.083-.835v-5.154c0-.594.132-.844 1.035-.844h.445c.963 0 1.071.232 1.071.835v.568h-.915v-.783zM876.291 421.31h.987c1.288 0 1.517.009 1.517.921v2.048c0 .259.012.311-.205.457.229.12.205.181.205.473v2.935h-.867v-3.098h-.771v3.098h-.866v-6.834zm.866 3.132h.771v-2.513h-.771v2.513zM885.138 422.145v5.155c0 .594-.12.843-1.023.843h-1.48v-6.833h1.433c.961 0 1.07.232 1.07.835zm-.867 5.43v-5.646h-.771v5.646h.771zM869.981 421.937c.001-.311.26-.609.577-.624.311-.005.621 0 .933-.003a.679.679 0 0 1 .447.141c.145.116.22.303.22.486v6.206h-.668v-3.252c-.277 0-.555.001-.831-.001-.002 1.085 0 2.169-.002 3.253h-.677l.001-6.206zm.697.07c.001.733-.003 1.466.001 2.198.265-.003.528-.001.792-.001 0-.732.001-1.465-.001-2.197h-.792zM827.29 424.174l-.328-.262v-2.154a.447.447 0 0 0-.12-.322.415.415 0 0 0-.313-.126.417.417 0 0 0-.312.124.445.445 0 0 0-.121.324v2.429l.761.78v2.728c0 .131.04.238.121.322.08.084.184.126.312.126a.417.417 0 0 0 .312-.124.44.44 0 0 0 .121-.324v-2.728l.761-.78v-2.429a.445.445 0 0 0-.121-.324.415.415 0 0 0-.312-.124.417.417 0 0 0-.313.126.447.447 0 0 0-.12.322v2.154l-.328.262zM891.154 370.746h1.283v.239h-.503v1.345h-.278v-1.345h-.502zM892.617 370.746h.379l.437 1.24h.005l.426-1.24h.374v1.584h-.253v-1.222h-.004l-.439 1.222h-.229l-.439-1.222h-.005v1.222h-.252z" fill="#d8d222"/><path d="M1043.293 443.188c0 3.212-2.628 5.84-5.84 5.84h-88.614c-3.213 0-5.841-2.628-5.841-5.84V300.096c0-3.212 2.628-5.84 5.841-5.84h88.614c3.212 0 5.84 2.628 5.84 5.84v143.092z" fill="#e6e6e6"/><path d="M945.694 297.659v70.542c0 3.25 2.627 5.909 5.84 5.909h83.224c3.212 0 5.84-2.659 5.84-5.909v-70.542h-94.904z" fill="#1c1714"/><path fill="#22211d" d="M945.694 297.659h94.903v8.056h-94.903z"/><path d="M1006.637 441.947l-13.329-3.993a.576.576 0 0 0-.324 0l-13.329 3.993a.563.563 0 0 0-.401.54v3.484c0 .311.252.563.563.563h26.659a.563.563 0 0 0 .563-.563v-3.484a.564.564 0 0 0-.402-.54z" fill="#d3d3d3"/><path fill="#d1ad2d" d="M948.227 299.639h1.358v5.365h-1.358zM950.618 298.799h1.357v6.205h-1.357zM953.01 298.799h1.357v6.205h-1.357zM955.401 298.799h1.357v6.205h-1.357zM957.792 298.799h1.358v6.205h-1.358zM960.184 298.799h1.357v6.205h-1.357zM962.575 298.799h1.357v6.205h-1.357zM964.967 298.799h1.357v6.205h-1.357zM967.357 298.799h1.358v6.205h-1.358zM969.749 298.799h1.357v6.205h-1.357zM972.141 298.799h1.357v6.205h-1.357zM974.532 298.799h1.357v6.205h-1.357zM976.924 298.799h1.356v6.205h-1.356zM979.314 298.799h1.357v6.205h-1.357zM981.706 298.799h1.357v6.205h-1.357zM984.098 298.799h1.356v6.205h-1.356zM986.489 298.799h1.356v6.205h-1.356zM988.88 297.659h1.357v8.056h-1.357zM991.271 298.799h1.357v6.205h-1.357zM993.663 298.799h1.356v6.205h-1.356zM996.055 298.799h1.356v6.205h-1.356zM998.445 298.799h1.357v6.205h-1.357zM1000.837 298.799h1.357v6.205h-1.357zM1003.229 298.799h1.356v6.205h-1.356zM1005.62 298.799h1.356v6.205h-1.356zM1008.011 298.799h1.357v6.205h-1.357zM1010.402 298.799h1.356v6.205h-1.356zM1012.794 298.799h1.356v6.205h-1.356zM1015.186 298.799h1.356v6.205h-1.356zM1017.576 298.799h1.357v6.205h-1.357zM1019.968 298.799h1.357v6.205h-1.357zM1022.359 298.799h1.356v6.205h-1.356zM1024.75 298.799h1.357v6.205h-1.357zM1027.142 298.799h1.357v6.205h-1.357zM1029.533 298.799h1.357v6.205h-1.357zM1031.925 298.799h1.357v6.205h-1.357zM1034.315 298.799h1.357v6.205h-1.357zM1036.707 297.659h1.357v8.056h-1.357z"/><circle cx="948.906" cy="304.401" r=".328" fill="#1f1713"/><circle cx="951.297" cy="304.401" r=".328" fill="#1f1713"/><circle cx="953.688" cy="304.401" r=".328" fill="#1f1713"/><path d="M956.408 304.401a.328.328 0 1 1-.328-.328c.181 0 .328.148.328.328z" fill="#1f1713"/><circle cx="958.471" cy="304.401" r=".328" fill="#1f1713"/><circle cx="960.862" cy="304.401" r=".328" fill="#1f1713"/><path d="M963.582 304.401a.328.328 0 1 1-.656 0 .328.328 0 0 1 .656 0z" fill="#1f1713"/><circle cx="965.645" cy="304.401" r=".328" fill="#1f1713"/><circle cx="968.036" cy="304.401" r=".328" fill="#1f1713"/><path d="M970.756 304.401a.328.328 0 1 1-.656 0 .328.328 0 0 1 .656 0z" fill="#1f1713"/><circle cx="972.818" cy="304.401" r=".328" fill="#1f1713"/><circle cx="975.21" cy="304.401" r=".328" fill="#1f1713"/><circle cx="977.601" cy="304.401" r=".328" fill="#1f1713"/><circle cx="979.992" cy="304.401" r=".328" fill="#1f1713"/><path d="M982.712 304.401a.328.328 0 1 1-.328-.328.33.33 0 0 1 .328.328z" fill="#1f1713"/><circle cx="984.774" cy="304.401" r=".328" fill="#1f1713"/><circle cx="987.166" cy="304.401" r=".328" fill="#1f1713"/><path d="M989.886 304.401a.328.328 0 1 1-.328-.328.33.33 0 0 1 .328.328z" fill="#1f1713"/><circle cx="991.948" cy="304.401" r=".328" fill="#1f1713"/><circle cx="994.34" cy="304.401" r=".328" fill="#1f1713"/><path d="M997.06 304.401a.328.328 0 1 1-.656 0 .328.328 0 0 1 .656 0z" fill="#1f1713"/><circle cx="999.122" cy="304.401" r=".328" fill="#1f1713"/><circle cx="1001.514" cy="304.401" r=".328" fill="#1f1713"/><circle cx="1003.904" cy="304.401" r=".328" fill="#1f1713"/><circle cx="1006.296" cy="304.401" r=".328" fill="#1f1713"/><path d="M1009.016 304.401a.328.328 0 1 1-.328-.328.33.33 0 0 1 .328.328z" fill="#1f1713"/><circle cx="1011.078" cy="304.401" r=".328" fill="#1f1713"/><circle cx="1013.47" cy="304.401" r=".328" fill="#1f1713"/><path d="M1016.189 304.401a.328.328 0 1 1-.328-.328c.181 0 .328.148.328.328z" fill="#1f1713"/><circle cx="1018.252" cy="304.401" r=".328" fill="#1f1713"/><circle cx="1020.644" cy="304.401" r=".328" fill="#1f1713"/><path d="M1023.363 304.401a.328.328 0 1 1-.656 0 .328.328 0 0 1 .656 0z" fill="#1f1713"/><circle cx="1025.426" cy="304.401" r=".328" fill="#1f1713"/><circle cx="1027.817" cy="304.401" r=".328" fill="#1f1713"/><path d="M1030.537 304.401a.328.328 0 1 1-.656 0 .328.328 0 0 1 .656 0z" fill="#1f1713"/><circle cx="1032.6" cy="304.401" r=".328" fill="#1f1713"/><circle cx="1034.991" cy="304.401" r=".328" fill="#1f1713"/><circle cx="1037.382" cy="304.401" r=".328" fill="#1f1713"/><path d="M1007.039 442.487a.563.563 0 0 0-.402-.54l-.694-.208H980.35l-.695.208a.563.563 0 0 0-.401.54h27.785zM1003.729 441.076h-21.166l2.499-.749h16.23zM979.253 443.15h27.786v.748h-27.786z" fill="#c1c1c1"/><path fill="#d3d3d3" d="M987.274 445.826h11.743v.709h-11.743z"/><path d="M1026.021 443.164v1.031a3.108 3.108 0 0 1-3.107 3.107h-59.535a3.107 3.107 0 0 1-3.107-3.107v-1.031a4.008 4.008 0 0 0-4.008-4.008h-3.76a3.857 3.857 0 0 1-3.857-3.857V374.66a3.857 3.857 0 0 1 3.857-3.857h81.285a3.857 3.857 0 0 1 3.857 3.857v60.639a3.858 3.858 0 0 1-3.857 3.857h-3.761a4.007 4.007 0 0 0-4.007 4.008z" fill="#ddd"/><path d="M1026.021 443.164h-.05v1.031a3.061 3.061 0 0 1-3.057 3.057h-59.535a3.06 3.06 0 0 1-3.057-3.057v-1.031a4.058 4.058 0 0 0-4.058-4.058h-3.76a3.812 3.812 0 0 1-3.807-3.807V374.66a3.81 3.81 0 0 1 3.807-3.807h81.285a3.812 3.812 0 0 1 3.807 3.807v60.639a3.812 3.812 0 0 1-3.807 3.807h-3.761a4.057 4.057 0 0 0-4.057 4.058h.1c0-1.093.443-2.082 1.159-2.799a3.944 3.944 0 0 1 2.798-1.159h3.761a3.908 3.908 0 0 0 3.907-3.907V374.66a3.907 3.907 0 0 0-3.907-3.907h-81.285a3.906 3.906 0 0 0-3.907 3.907v60.639a3.907 3.907 0 0 0 3.907 3.907h3.76c1.093 0 2.082.443 2.798 1.159a3.945 3.945 0 0 1 1.159 2.799v1.031a3.157 3.157 0 0 0 3.157 3.157h59.535a3.158 3.158 0 0 0 3.157-3.157v-1.031h-.049z" fill="#999"/><path d="M1007.039 442.487a.563.563 0 0 0-.402-.54l-.694-.208H980.35l-.695.208a.563.563 0 0 0-.401.54h27.785zM1003.729 441.076h-21.166l2.499-.749h16.23zM999.018 439.665h-11.745l2.499-.749h6.747zM979.253 443.15h27.786v.709h-27.786zM979.253 444.488h27.786v.709h-27.786zM1007.039 445.826h-27.786v.146c0 .311.252.563.563.563h26.659a.563.563 0 0 0 .563-.563v-.146z" fill="#b7b7b7"/><linearGradient id="d" gradientUnits="userSpaceOnUse" x1="-60.733" y1="544.763" x2="-59.733" y2="544.763" gradientTransform="matrix(79 0 0 -79 5751.585 43442.234)"><stop offset="0" stop-color="#141118"/><stop offset="1" stop-color="#0d0d19"/><stop offset="1" stop-color="#0d0d19"/></linearGradient><path fill="url(#d)" d="M953.646 376.803h79v58.354h-79z"/><path d="M960.69 388.96c0 .53.104.949.311 1.259s.486.465.837.465a.935.935 0 0 0 .767-.362c.191-.24.288-.562.288-.961 0-.541-.342-.949-1.024-1.227l-.317-.128c-.549-.232-.91-.49-1.085-.772-.176-.281-.264-.676-.264-1.182 0-.646.143-1.169.427-1.567.285-.398.657-.598 1.116-.598.526 0 .934.205 1.223.613s.434.985.434 1.731v.021h-.635c-.025-.486-.124-.857-.296-1.116a.804.804 0 0 0-.705-.387.794.794 0 0 0-.66.315c-.165.21-.248.489-.248.838 0 .35.063.605.187.77s.451.339.981.523c.616.216 1.022.472 1.217.77s.292.727.292 1.287c0 .708-.155 1.271-.466 1.688-.311.418-.73.626-1.258.626-.54 0-.961-.226-1.265-.677s-.469-1.095-.493-1.929h.636zM964.039 388.591v-4.514h.642v4.569c0 .691.084 1.203.253 1.537.168.333.427.5.774.5.344 0 .6-.17.769-.508.168-.339.252-.849.252-1.529v-4.569h.652v4.514c0 1.012-.137 1.761-.409 2.246-.273.486-.694.729-1.264.729-.564 0-.983-.242-1.258-.729-.274-.485-.411-1.234-.411-2.246zM968.149 391.365v-7.288h1.68c.482 0 .848.178 1.096.533s.372.877.372 1.564c0 .366-.041.69-.124.975a1.971 1.971 0 0 1-.371.718 1.102 1.102 0 0 1-.45.326c-.169.063-.449.095-.844.095h-.713v3.077h-.646zm1.506-6.395h-.86v2.426h.809c.38 0 .646-.094.796-.282.15-.188.226-.501.226-.938 0-.431-.074-.739-.221-.926s-.397-.28-.75-.28zM972.071 391.365v-7.288h3.022v.882h-2.376v2.186h2.168v.871h-2.168v2.467h2.43v.882zM975.898 391.365v-7.288h1.622c.478 0 .842.177 1.092.53.251.354.376.87.376 1.547 0 .4-.055.738-.162 1.016a1.356 1.356 0 0 1-.479.636c.177.082.305.213.382.393s.126.495.146.946l.052 1.185c.012.257.033.445.064.564a.54.54 0 0 0 .15.271v.2h-.733c-.032-.078-.059-.196-.079-.354s-.036-.369-.048-.636l-.034-.944c-.018-.476-.083-.785-.194-.929s-.392-.215-.84-.215h-.666v3.077h-.649zm1.441-6.395h-.792v2.426h.748c.38 0 .646-.094.795-.282.15-.188.226-.501.226-.938 0-.431-.074-.739-.222-.926-.149-.187-.4-.28-.755-.28zM984.183 388.96c0 .53.104.949.311 1.259s.486.465.837.465a.935.935 0 0 0 .767-.362c.191-.24.288-.562.288-.961 0-.541-.342-.949-1.024-1.227l-.317-.128c-.549-.232-.91-.49-1.085-.772-.176-.281-.264-.676-.264-1.182 0-.646.143-1.169.427-1.567.285-.398.657-.598 1.116-.598.526 0 .934.205 1.223.613s.434.985.434 1.731v.021h-.635c-.025-.486-.124-.857-.296-1.116a.804.804 0 0 0-.705-.387.794.794 0 0 0-.66.315c-.165.21-.248.489-.248.838 0 .35.063.605.187.77s.451.339.981.523c.616.216 1.022.472 1.217.77s.292.727.292 1.287c0 .708-.155 1.271-.466 1.688-.311.418-.73.626-1.258.626-.54 0-.961-.226-1.265-.677s-.469-1.095-.493-1.929h.636zM989.566 391.365h-.651v-2.887l-1.663-4.412h.775l1.212 3.453 1.195-3.453h.727l-1.595 4.35zM992.014 388.96c0 .53.104.949.311 1.259s.486.465.837.465a.935.935 0 0 0 .767-.362c.191-.24.288-.562.288-.961 0-.541-.342-.949-1.024-1.227l-.317-.128c-.549-.232-.91-.49-1.085-.772-.176-.281-.264-.676-.264-1.182 0-.646.143-1.169.427-1.567.285-.398.657-.598 1.116-.598.526 0 .934.205 1.223.613s.434.985.434 1.731v.021h-.635c-.025-.486-.124-.857-.296-1.116a.804.804 0 0 0-.705-.387.794.794 0 0 0-.66.315c-.165.21-.248.489-.248.838 0 .35.063.605.187.77s.451.339.981.523c.616.216 1.022.472 1.217.77s.292.727.292 1.287c0 .708-.155 1.271-.466 1.688-.311.418-.73.626-1.258.626-.54 0-.961-.226-1.265-.677s-.469-1.095-.493-1.929h.636zM996.712 391.365v-6.406h-1.475v-.882h3.587v.882h-1.468v6.406zM999.479 391.365v-7.288h3.022v.882h-2.376v2.186h2.168v.871h-2.168v2.467h2.431v.882zM1003.115 391.365v-7.288h.86l.887 6.427.899-6.427h.849v7.288h-.543v-6.616l-.901 6.616h-.603l-.909-6.616v6.616zM1013.827 388.657h.672c-.061.906-.246 1.617-.556 2.134s-.705.774-1.185.774c-.561 0-.999-.341-1.318-1.023-.318-.682-.478-1.623-.478-2.823 0-1.204.159-2.145.478-2.824.319-.679.758-1.018 1.318-1.018.437 0 .804.215 1.103.644.298.429.484 1.013.56 1.752h-.662c-.073-.482-.197-.856-.372-1.124-.176-.267-.385-.399-.628-.399-.349 0-.623.263-.824.79-.202.526-.303 1.253-.303 2.18 0 .92.102 1.644.304 2.172.203.528.477.793.823.793.284 0 .521-.179.71-.536.188-.359.308-.856.358-1.492zM1014.486 391.365l1.769-7.299h.713l1.775 7.299h-.655l-.512-2.144h-1.936l-.513 2.144h-.641zm1.376-3.036h1.498l-.751-3.216-.747 3.216zM1018.968 391.365v-7.288h1.622c.478 0 .842.177 1.092.53.251.354.376.87.376 1.547 0 .4-.055.738-.162 1.016a1.356 1.356 0 0 1-.479.636c.177.082.305.213.382.393s.126.495.146.946l.052 1.185c.012.257.033.445.064.564a.54.54 0 0 0 .15.271v.2h-.733c-.032-.078-.059-.196-.079-.354s-.036-.369-.048-.636l-.034-.944c-.018-.476-.083-.785-.194-.929s-.392-.215-.84-.215h-.666v3.077h-.649zm1.44-6.395h-.792v2.426h.748c.38 0 .646-.094.795-.282.15-.188.226-.501.226-.938 0-.431-.074-.739-.222-.926-.148-.187-.399-.28-.755-.28zM1024.433 384.077c.608 0 1.061.301 1.359.902.298.602.446 1.515.446 2.739 0 1.166-.156 2.065-.471 2.698-.314.632-.759.948-1.335.948h-1.614v-7.288h1.615zm-.048.872h-.914v5.544h.914c.4 0 .698-.227.892-.682s.29-1.152.29-2.093c0-.981-.093-1.688-.276-2.121-.186-.432-.487-.648-.906-.648zM983.052 381.524l.56.115c-.118.375-.328.661-.633.858s-.678.296-1.117.296c-.456 0-.826-.076-1.111-.228s-.503-.371-.651-.658a1.988 1.988 0 0 1-.224-.926c0-.36.084-.674.252-.941.169-.269.408-.472.718-.61.311-.14.652-.209 1.025-.209.423 0 .778.088 1.066.264s.489.424.603.742l-.551.106c-.098-.251-.24-.435-.427-.549-.187-.115-.421-.172-.703-.172-.325 0-.597.063-.814.19s-.371.298-.46.513a1.732 1.732 0 0 0-.133.663c0 .294.053.551.157.77.105.219.268.383.489.491.221.108.46.163.718.163.313 0 .578-.074.795-.222.217-.146.364-.366.441-.656zM984.341 382.735v-3.455h1.456c.329 0 .579.017.752.05.242.046.449.128.62.247.223.154.39.352.5.591s.166.514.166.821c0 .262-.037.494-.112.697s-.171.37-.288.503-.246.237-.385.313a1.78 1.78 0 0 1-.505.173c-.197.04-.423.06-.679.06h-1.525zm.559-.408h.902c.278 0 .497-.021.655-.063.159-.042.285-.102.38-.179.132-.108.235-.254.31-.438.074-.183.111-.404.111-.665 0-.361-.073-.64-.218-.833a1.063 1.063 0 0 0-.529-.391c-.149-.047-.391-.07-.724-.07h-.887v2.639zM988.378 381.271h1.594v.427h-1.594zM990.661 382.735v-3.455h1.874c.377 0 .663.031.858.094.196.062.354.171.471.328s.176.331.176.521a.79.79 0 0 1-.291.619c-.194.168-.494.275-.899.32.147.059.26.116.337.172.163.123.318.276.464.46l.735.94h-.703l-.56-.719a6.98 6.98 0 0 0-.403-.477 1.16 1.16 0 0 0-.284-.23l-.255-.092a2.03 2.03 0 0 0-.312-.017h-.648v1.534h-.56zm.56-1.929h1.202c.255 0 .455-.022.6-.065.144-.043.253-.112.328-.207s.112-.198.112-.31a.476.476 0 0 0-.218-.403c-.145-.105-.374-.158-.688-.158h-1.337v1.143zM994.787 381.053c0-.573.188-1.022.565-1.347.376-.324.862-.486 1.458-.486.391 0 .742.076 1.056.229.313.152.552.364.716.637.164.273.247.582.247.928 0 .351-.087.664-.26.94s-.418.485-.735.628a2.477 2.477 0 0 1-1.026.213c-.397 0-.753-.078-1.066-.235a1.675 1.675 0 0 1-.955-1.507zm.577.007c0 .416.137.744.41.984.274.239.617.359 1.03.359.421 0 .768-.121 1.04-.363.271-.242.407-.585.407-1.03a1.5 1.5 0 0 0-.174-.736c-.116-.209-.287-.372-.511-.487s-.475-.173-.754-.173c-.396 0-.736.11-1.021.333s-.427.593-.427 1.113zM999.574 382.735v-3.455h.842l1 2.446c.092.228.159.398.201.512.049-.126.123-.311.226-.554l1.012-2.404h.752v3.455h-.539v-2.892l-1.228 2.892h-.505l-1.222-2.941v2.941h-.539zM1004.185 380.588a.632.632 0 0 1 .168-.334c.15-.168.398-.354.742-.559s.548-.335.612-.394l.133-.246a.274.274 0 0 0-.125-.231c-.084-.061-.207-.091-.369-.091-.158 0-.275.022-.354.068a.501.501 0 0 0-.191.266l-.541-.047c.069-.217.189-.377.36-.479s.416-.153.736-.153c.36 0 .625.058.794.173.168.115.252.256.252.422 0 .164-.07.319-.211.466-.107.109-.353.276-.734.501-.199.119-.34.214-.423.284h1.383v.354h-2.232zM1022.939 428.153h-3.473c-.16 0-.226-.064-.226-.223 0-.566-.001-1.134.002-1.701l-.104-.082a2.232 2.232 0 0 1-.383.051c-.242.009-.485.026-.726.047-.625.055-1.251.034-1.876.032a10.946 10.946 0 0 1-1.024-.061c-.275-.025-.553-.043-.826-.097l-.099.087c.004.573.002 1.147.002 1.721 0 .16-.064.226-.222.226h-2.114c-.157 0-.221-.065-.221-.226 0-.712-.004-1.423.003-2.135.001-.114-.05-.164-.141-.195-.263-.091-.523-.188-.796-.249l-.227-.094c-.107-.053-.113-.104-.033-.188.279-.293.6-.538.963-.703.197-.089.238-.191.234-.384-.013-.499-.004-.999-.004-1.499 0-.165.063-.227.23-.227h2.104c.157 0 .223.065.223.224 0 .769.002 1.537-.002 2.306l.112.149c.15.036.3.069.455.081.284.021.567.052.851.078l.061.001c.233.007.468.003.7.024.144.013.287.021.43.014.472-.022.944-.048 1.417-.064a4.96 4.96 0 0 0 .856-.093c.146-.031.153-.031.153-.181v-2.315c0-.158.065-.224.224-.224h6.926c.152 0 .22.066.22.217v.573c0 .15-.067.217-.221.217h-4.439c-.134 0-.171.033-.171.169-.002.355 0 .711-.002 1.066l.08.064.256-.027c.646-.035 1.292-.03 1.938-.021.335.005.671.025 1.004.061.436.046.876.063 1.303.177l.106.067-.07.135c-.269.217-.557.407-.838.608l-.159.115c-.091.071-.193.074-.294.058l-.168-.015a4.797 4.797 0 0 1-.71-.028c-.448-.049-.896-.031-1.342-.029-.309.001-.616.036-.925.058l-.038.008c-.119.008-.148.068-.146.186.009.376.003.752.003 1.128 0 .133.056.188.193.188h4.43c.16 0 .209.049.209.206 0 .178.001.355 0 .534 0 .131-.056.187-.188.187-1.157-.002-2.318-.002-3.48-.002zM1020.231 430.086h-.795a.404.404 0 0 1-.378-.328 1.777 1.777 0 0 1-.016-.398c.004-.098-.028-.159-.114-.198l-.042-.024c-.15-.126-.146-.203.026-.297l.126-.17.051-.095.146-.037.064.09c.052.201.088.229.293.229h1.489c.136 0 .188.032.192.118.006.115-.046.169-.181.184l-.07.001-1.439-.001-.163.032-.101.152.001.181c0 .209.051.26.259.26h1.51c.137 0 .202.073.161.194-.033.096-.13.104-.216.106-.266.003-.534.001-.803.001zM1023.853 429.538c0-.174-.008-.312.003-.448.01-.135.091-.221.242-.228.268-.013.536-.011.804.001.141.005.282.083.42.051.337-.079.676-.049 1.015-.056.248-.006.342.104.336.332-.005.218-.002.436 0 .654l-.02.136c-.019.118-.101.117-.185.104l-.079-.147v-.554c0-.139-.082-.222-.219-.223a47.349 47.349 0 0 0-.533 0c-.178 0-.268.114-.257.254.012.171.003.342.002.514 0 .105-.041.158-.12.158s-.12-.053-.121-.159c0-.171-.009-.343.003-.513.01-.14-.076-.251-.248-.254a20.388 20.388 0 0 0-.553 0c-.123.001-.207.088-.208.213-.002.191-.001.383-.001.573l-.078.138c-.077.009-.157.022-.184-.094-.037-.163-.007-.326-.019-.452zM1014.915 430.563c-.103 0-.158-.07-.114-.16l.146-.244.01-.146a5.794 5.794 0 0 0-.223-.271c-.211-.214-.416-.438-.626-.652l-.05-.168.197-.06.095.05c.184.185.378.359.542.563.076.094.158.184.239.273l.152-.005c.086-.104.168-.209.252-.313.146-.183.286-.383.454-.53l.233-.002.025.123c-.072.109-.168.199-.246.304-.163.22-.331.436-.509.644-.149.177-.287.366-.456.526l-.121.068zM1021.944 429.619l.117-.016 1.388-.001c.126 0 .181-.047.226-.166l.016-.197c.002-.258-.046-.318-.292-.376l-.09-.005-1.337-.001-.247.022c-.151.042-.295.109-.289.354.004.144-.007.289.003.433.01.146.032.293.201.351.112.039.227.07.347.069h.704c.248 0 .496.002.744-.001l.212-.099c.05-.114-.02-.202-.151-.202l-1.459-.001-.098-.009-.077-.105.082-.05zm-.141-.389l.092-.092h1.361l.092.092-.092.092h-1.361l-.092-.092zM1018.072 429.603h.112l.091.091-.091.091h-.888-.728l-.15.151.15.151h.153c.242-.002.483-.001.725-.001.255 0 .51.003.765-.001a.437.437 0 0 0 .286-.091c.1-.086.142-.355.081-.49-.067-.15-.196-.2-.346-.202-.362-.004-.725 0-1.087-.002h-.207l-.092-.07.092-.069H1018.32l.126-.02c.104-.038.134-.082.109-.189l-.155-.094h-1.429a1.603 1.603 0 0 0-.344.037c-.119.024-.182.093-.199.2v.25c.018.101.072.177.188.204.112.027.225.052.34.053.372.002.744.001 1.116.001M1013.281 429.603h.112l.091.091-.091.091h-.888l-.699-.001-.029.001-.15.151.15.15h.153v.001c.242-.002.483-.001.725-.001.255 0 .51.003.765-.002a.43.43 0 0 0 .286-.09c.1-.086.142-.356.081-.49-.067-.15-.196-.2-.346-.202-.362-.004-.725-.001-1.087-.002h-.207l-.092-.07.092-.07h.044l1.338.001.126-.02c.104-.038.134-.082.109-.189l-.155-.094c-.476 0-.952.001-1.429-.001a1.67 1.67 0 0 0-.344.038c-.119.024-.182.093-.199.2v.25c.018.101.072.177.188.204.112.027.225.052.34.053.372.002.744.001 1.116.001M961.162 430.614l-1.543-4.295h.57l1.035 3.12c.083.25.153.484.209.703.062-.234.133-.469.215-.703l1.075-3.12h.538l-1.56 4.295h-.539zM965.379 429.612l.505.067c-.08.318-.228.565-.442.741-.216.176-.491.264-.826.264-.422 0-.757-.14-1.004-.42s-.37-.674-.37-1.18c0-.523.125-.93.374-1.219.25-.289.574-.434.973-.434.386 0 .701.142.945.425s.367.682.367 1.195l-.003.141h-2.151c.018.342.107.604.269.785s.362.272.604.272c.179 0 .332-.051.459-.152s.226-.262.3-.485zm-1.606-.852h1.61c-.021-.262-.083-.458-.185-.589a.729.729 0 0 0-.605-.305.745.745 0 0 0-.566.243c-.153.162-.238.379-.254.651zM966.531 430.614v-3.111h.44v.472c.111-.221.216-.366.311-.437s.199-.105.313-.105a.91.91 0 0 1 .503.17l-.169.489a.66.66 0 0 0-.358-.114.45.45 0 0 0-.288.104.563.563 0 0 0-.182.288 2.184 2.184 0 0 0-.081.615v1.629h-.489zM969.572 429.48l.489-.07c.056.299.151.515.286.646s.3.197.493.197c.23 0 .424-.086.583-.258a.91.91 0 0 0 .237-.639c0-.242-.073-.441-.22-.599s-.333-.236-.56-.236c-.093 0-.208.02-.345.059l.054-.463.079.006a.96.96 0 0 0 .563-.176c.166-.117.25-.298.25-.542 0-.193-.062-.354-.183-.48s-.277-.19-.47-.19c-.19 0-.349.064-.476.193s-.208.322-.244.58l-.489-.094c.06-.354.196-.627.407-.821.212-.194.476-.292.791-.292.217 0 .417.051.601.151.183.101.322.237.419.411s.146.358.146.554a.954.954 0 0 1-.139.507.967.967 0 0 1-.41.363.923.923 0 0 1 .549.365c.131.185.195.415.195.692 0 .375-.126.693-.38.954s-.574.391-.962.391c-.35 0-.64-.112-.87-.337-.23-.223-.361-.514-.394-.872zM975.068 426.246c.263 0 .478.098.643.293.166.195.249.465.249.809 0 .342-.084.61-.25.806a.804.804 0 0 1-.639.293c-.263 0-.477-.096-.644-.287s-.25-.458-.25-.8c0-.352.083-.625.249-.82a.804.804 0 0 1 .642-.294zm0 .39a.433.433 0 0 0-.354.167c-.089.111-.134.293-.134.545 0 .246.046.427.137.541a.432.432 0 0 0 .352.171c.146 0 .263-.057.354-.171s.136-.3.136-.556c0-.238-.046-.414-.137-.527a.435.435 0 0 0-.354-.17zM968.838 430.314a.3.3 0 1 1-.3-.301.3.3 0 0 1 .3.301zM973.554 428.501a.3.3 0 1 1-.6 0 .3.3 0 0 1 .6 0z" fill="#ededed"/><radialGradient id="e" cx="-60.733" cy="544.763" r="1" gradientTransform="matrix(-8.2703 -14.3245 -28.649 16.5405 16098.926 -9465.849)" gradientUnits="userSpaceOnUse"><stop offset="0" stop-color="#c9cdd0"/><stop offset=".398" stop-color="#82848a"/><stop offset=".808" stop-color="#3f3f48"/><stop offset="1" stop-color="#24242e"/></radialGradient><path d="M972.619 423.103c.559 1.454 10.717-1.093 22.688-5.688 11.973-4.596 21.226-9.5 20.667-10.954-.559-1.455-10.716 1.092-22.688 5.688s-21.224 9.498-20.667 10.954z" fill="url(#e)"/><radialGradient id="f" cx="-60.733" cy="544.763" r="1" gradientTransform="matrix(-.726 -4.8105 15.7499 7.2812 -7598.654 -3860.04)" gradientUnits="userSpaceOnUse"><stop offset="0" stop-color="#e3569b"/><stop offset=".106" stop-color="#d95395"/><stop offset=".288" stop-color="#bd4c86"/><stop offset=".524" stop-color="#91416c"/><stop offset=".801" stop-color="#543149"/><stop offset="1" stop-color="#24242e"/></radialGradient><path d="M1030.567 400.146c-.238.831-2.752.839-5.614.019-2.862-.821-4.99-2.16-4.752-2.99.238-.831 2.752-.839 5.614-.019 2.863.822 4.99 2.16 4.752 2.99z" fill="url(#f)"/><radialGradient id="g" cx="-60.733" cy="544.763" r="1" gradientTransform="matrix(-.6244 -2.974 -7.6918 6.8765 5151.676 -3527.712)" gradientUnits="userSpaceOnUse"><stop offset="0" stop-color="#572e8c"/><stop offset=".233" stop-color="#3d378f"/><stop offset=".475" stop-color="#2b3d91"/><stop offset=".727" stop-color="#204193"/><stop offset="1" stop-color="#1c4293"/><stop offset="1" stop-color="#1c4293"/></radialGradient><path d="M996.471 400.875c.279.43 1.821-.076 3.444-1.13 1.623-1.055 2.713-2.257 2.434-2.687-.279-.431-1.821.076-3.444 1.13s-2.713 2.257-2.434 2.687z" fill="url(#g)"/><radialGradient id="h" cx="-60.733" cy="544.763" r="1" gradientTransform="matrix(2.0178 -4.7008 3.9913 5.3295 -1063.427 -2788.722)" gradientUnits="userSpaceOnUse"><stop offset="0" stop-color="#f35fa9"/><stop offset=".069" stop-color="#d557a3"/><stop offset=".196" stop-color="#a34b99"/><stop offset=".325" stop-color="#784090"/><stop offset=".456" stop-color="#563789"/><stop offset=".588" stop-color="#3b3184"/><stop offset=".721" stop-color="#272c80"/><stop offset=".857" stop-color="#1c297e"/><stop offset="1" stop-color="#18287d"/><stop offset="1" stop-color="#18287d"/></radialGradient><path d="M992.229 404.526c-.65.565-2.911-.969-5.049-3.428-2.138-2.458-3.342-4.91-2.691-5.477.651-.566 2.912.969 5.05 3.427 2.137 2.46 3.342 4.912 2.69 5.478z" fill="url(#h)"/><radialGradient id="i" cx="-60.733" cy="544.763" r="1" gradientTransform="matrix(-1.0244 -3.2803 -6.4448 2.388 4433.9 -1075.039)" gradientUnits="userSpaceOnUse"><stop offset="0" stop-color="#f35fa9"/><stop offset=".051" stop-color="#dd59a5"/><stop offset=".185" stop-color="#a94d9a"/><stop offset=".322" stop-color="#7d4191"/><stop offset=".458" stop-color="#58388a"/><stop offset=".594" stop-color="#3c3184"/><stop offset=".73" stop-color="#282c80"/><stop offset=".865" stop-color="#1c297e"/><stop offset="1" stop-color="#18287d"/><stop offset="1" stop-color="#18287d"/></radialGradient><path d="M980.755 426.797c.124.323 2.22-.181 4.681-1.125 2.461-.945 4.355-1.973 4.231-2.296s-2.22.181-4.681 1.125c-2.461.945-4.355 1.973-4.231 2.296z" fill="url(#i)"/><radialGradient id="j" cx="-60.733" cy="544.763" r="1" gradientTransform="matrix(-2.6832 4.6474 13.9421 8.0495 -6757.55 -3672.936)" gradientUnits="userSpaceOnUse"><stop offset="0" stop-color="#f35fa9"/><stop offset=".109" stop-color="#cc55a1"/><stop offset=".28" stop-color="#964896"/><stop offset=".447" stop-color="#693c8d"/><stop offset=".606" stop-color="#463386"/><stop offset=".755" stop-color="#2d2d81"/><stop offset=".891" stop-color="#1d297e"/><stop offset="1" stop-color="#18287d"/><stop offset="1" stop-color="#18287d"/></radialGradient><path d="M1005.979 435.156h-3.44a76.403 76.403 0 0 1-1.631-1.815c-3.744-4.308-6.308-8.208-5.727-8.713.581-.506 4.087 2.577 7.831 6.884a69.84 69.84 0 0 1 2.967 3.644z" fill="url(#j)"/><radialGradient id="k" cx="-60.733" cy="544.763" r="1" gradientTransform="matrix(-1.2622 2.1862 6.5585 3.7866 -2638 -1512.56)" gradientUnits="userSpaceOnUse"><stop offset="0" stop-color="#f35fa9"/><stop offset=".099" stop-color="#ec5da8"/><stop offset=".239" stop-color="#da59a4"/><stop offset=".405" stop-color="#bb519e"/><stop offset=".589" stop-color="#904695"/><stop offset=".79" stop-color="#5a388a"/><stop offset="1" stop-color="#18287d"/><stop offset="1" stop-color="#18287d"/></radialGradient><path d="M1013.51 417.627c.349.987 1.409 1.979.417 1.979-.48 0-2.338.06-3.5-.729-1.239-.842-1.771-2.55-1.771-3.063 0-.992 1.783-.281 2.775-.281.994 0 1.749 1.158 2.079 2.094z" fill="url(#k)"/><radialGradient id="l" cx="-60.733" cy="544.763" r="1" gradientTransform="matrix(-3.8696 6.7023 20.1068 11.6087 -10161.249 -5503.7)" gradientUnits="userSpaceOnUse"><stop offset="0" stop-color="#f35fa9"/><stop offset=".302" stop-color="#a84c9a"/><stop offset=".64" stop-color="#5b398a"/><stop offset=".881" stop-color="#2b2d81"/><stop offset="1" stop-color="#18287d"/><stop offset="1" stop-color="#18287d"/></radialGradient><path d="M1025.239 403.242c-.362.048-.443 1.65-.438 2.375.009 1.146.25 2.026.5 2.938.845 3.084.875 3.187.875 3.188.168.571.223.74.125.938-.347.696-1.87.241-3.188 1.25-.118.09-.504.385-.438.563.04.108.25.171.875.125 1.741-.129 2.563-.798 3.063-.438.198.142.224.357.313.813.224 1.146 1.502 5.646 1.625 6 .27.776.773 2.231 1.25 2.188.079-.008.251-.065.438-.563.92-2.455-1.436-7.342-1.625-8.25-.136-.65-.056-.866 0-.938.153-.198.351-.221 1.188-.375 1.046-.194 1.316-.267 1.563-.5.192-.184.409-.503.313-.688-.105-.203-.541-.162-.938-.125a5.85 5.85 0 0 0-1.688.438c-.528.234-.706.168-.896.083-.298-.133-.364-1.104-.411-1.393-.175-1.087-.386-1.369-.568-2.378-.38-2.107-1.411-5.321-1.938-5.251z" fill="url(#l)"/><radialGradient id="m" cx="-60.733" cy="544.763" r="1" gradientTransform="matrix(-1.9077 3.3042 9.9126 5.723 -4537.483 -2508.03)" gradientUnits="userSpaceOnUse"><stop offset="0" stop-color="#da2477"/><stop offset=".225" stop-color="#a82579"/><stop offset=".6" stop-color="#5b277b"/><stop offset=".868" stop-color="#2b287c"/><stop offset="1" stop-color="#18287d"/><stop offset="1" stop-color="#18287d"/></radialGradient><path d="M973.864 406.273c-.219.296.211.941.25 1 .482.71 1.024.539 1.583 1.291.143.191.262.419.5.875.323.618.277.646.417.834.458.619 1.272.754 1.5.791.728.12.762-.075 1.5.053.592.102 1.519.594 2.5.719.576.072.711-.126.792-.229.157-.202-.203-.724-.25-.792-.514-.731-1.06-.589-1.709-1.291-.167-.182-.333-.469-.666-1.042-.587-1.01-.456-1.047-.667-1.208-.623-.479-1.285.205-2.625-.209a8.929 8.929 0 0 1-.875-.333c-.612-.269-.724-.396-1.125-.5-.235-.062-.918-.24-1.125.041z" fill="url(#m)"/><radialGradient id="n" cx="-60.733" cy="544.763" r="1" gradientTransform="rotate(120 1772.442 -2403.718) scale(4.1346 -8.2693)" gradientUnits="userSpaceOnUse"><stop offset="0" stop-color="#da2477"/><stop offset=".224" stop-color="#ac2578"/><stop offset=".76" stop-color="#42277c"/><stop offset="1" stop-color="#18287d"/><stop offset="1" stop-color="#18287d"/></radialGradient><path d="M959.989 401.555c-.269-.173-.387-.648-.25-1 .226-.58.962-.357 1.5-1 .445-.532.149-.936.563-1.625.354-.593.903-.848 1.5-1.125.235-.11 2.322-1.08 3.25-.25.299.268.333.593.75.75.224.084.347.039 1 0 .753-.047 1.133-.067 1.25.063.26.284.042 1.048-.375 1.5-.333.359-.56.269-.813.625-.303.425-.099.722-.313 1.188-.206.448-.612.645-1.375 1-.955.443-2.12.671-2.75.63-1.244-.082-.909-.921-2-.786-.793.096-1.765.14-1.937.03z" fill="url(#n)"/></g></svg>