<svg xmlns="http://www.w3.org/2000/svg" viewBox="0 0 528.593 449.027"><path d="M391.829 0H136.764c-6.6 0-12 5.4-12 12v242.383c0 6.6 5.4 12 12 12h255.065c6.6 0 12-5.4 12-12V12c0-6.6-5.4-12-12-12z" fill="#2b2b2b"/><path d="M204.607 8.267h5.5v1.8h-1.7v19.5h-1.9v-19.5h-1.9v-1.8zM313.107 11.467c2.5-.4 5.101.2 7.101 1.7 1.5 1.1 2.6 2.6 3.199 4.3.7 2 .801 4.2.101 6.2-.601 1.8-1.7 3.3-3.2 4.5a9.75 9.75 0 0 1-5.7 1.9c-3.1 0-6.1-1.6-7.7-4.1-1.7-2.6-2.1-6-.8-8.9 1.1-2.9 3.9-5.1 6.999-5.6zm-4.799 5.3v1.1h1v5.9h-1v1.1h3.1v-1.1h-1v-7h-2.1zm4.099.7v6.6c.2.3.5.5.7.7h7c.3-.3.8-.6.7-1v-2.8c-.1-.3-.4-.4-.6-.6h-6.801v-2.5h6.4v1h1v-1.4l-.6-.6h-7.101c-.198.1-.397.3-.698.6zM213.908 11.867h1.8v15.9h2v-15.9h1.8v15.2c0 .4 0 .7-.1 1.1-.2.8-.9 1.4-1.7 1.4h-2.2c-1 0-1.8-.9-1.7-1.9.1-5.2.1-10.5.1-15.8zM224.207 11.867h3.8c.9 0 1.8.7 1.9 1.6v5.8c0 .8-.6 1.7-1.4 1.9l1.8 8.4h-1.7c-.6-2.8-1.3-5.5-1.9-8.3h-.6v8.3h-1.7c-.2-5.9-.2-11.8-.2-17.7zm1.8 1.8v5.8h2v-5.8h-2zM234.808 11.867h4c.8 0 1.6.7 1.7 1.5v5.6c0 .5-.4.9-.7 1.3.4.3.7.7.7 1.2.1.8 0 1.5 0 2.3v3.5c0 .5.1 1-.2 1.5-.3.6-.9.9-1.5.9h-4v-17.8zm1.899 1.8v5.8h2v-5.8h-2zm0 7.6v6.6h2v-6.6h-2zM246.308 11.967c.5-.2 1.1-.1 1.7-.1.6 0 1.3-.1 1.8.2.6.3 1 .9 1 1.5v13.6c0 .4 0 .8-.101 1.2-.3.6-.8 1.1-1.5 1.2h-1.8c-.399 0-.7 0-1-.1-.7-.3-1.3-1-1.3-1.7v-13.6c0-.4 0-.7.1-1.1.2-.5.601-.9 1.101-1.1zm.7 1.7v14.1h1.899v-14.1h-1.899z" fill="#4e4e4e"/><path d="M313.508 21.267h6.3v2.4h-6.3v-2.4zM256.008 10.267c0-.9.699-1.8 1.6-1.9h2.2c1-.1 2 .9 2 1.9v3.1h-1.9v-3.2h-2.1v17.6h2.2v-8.5h-.9v-1.7h2.8v12h-3.899c-.7 0-1.5-.5-1.8-1.2-.101-.4-.101-.8-.101-1.2-.1-5.6-.1-11.3-.1-16.9zM266.607 11.867h3.7c.8 0 1.5.4 1.8 1.1.101.3.101.6.101.8v5.6c0 .8-.601 1.6-1.4 1.7l1.8 8.4h-1.7c-.6-2.8-1.3-5.5-1.899-8.3h-.601v8.3h-1.7c-.101-5.8-.101-11.7-.101-17.6zm1.8 1.7v5.7h2v-5.7h-2zM277.008 13.467c0-.8.7-1.6 1.5-1.6h2.399c.4 0 .8.1 1.2.4.4.3.601.8.601 1.3v16h-1.7v-8.4h-2.101v8.4h-1.7c-.199-5.4-.199-10.7-.199-16.1zm1.8.2v5.7h2v-5.7h-2zM287.008 13.367c0-.8.7-1.5 1.5-1.5h3v1.6h-2.601v5.9h2.2v1.7h-2.2v8.4h-1.8c-.099-5.3-.099-10.7-.099-16.1zM295.808 11.867h1.8v4.9c.3.5.7 1 1 1.5.3-.5.7-1 1-1.5v-4.9h1.9v3.5c0 .5.1 1.1-.101 1.6-.399 1.1-1 2.1-1.6 3.1.7 1.1 1.5 2.3 1.8 3.5v5.9h-1.7v-5.9c-.3-.6-.7-1.1-1.1-1.7-.4.5-.7 1.1-1.101 1.6v6h-1.8v-5.5c0-.5.2-1 .4-1.4.399-.9.899-1.7 1.5-2.5-.7-1.1-1.5-2.2-1.9-3.5-.098-1.5-.098-3.1-.098-4.7z" fill="#4e4e4e"/><path fill="#0b0b0c" d="M395.434 38.549h8.396v3.75h-8.396z"/><path fill="#353636" d="M395.434 42.299h8.396v1h-8.396z"/><path fill="#151616" d="M395.434 43.299h8.396v1h-8.396z"/><path fill="#0b0b0c" d="M395.434 44.299h8.396v3.75h-8.396z"/><path fill="#353636" d="M395.434 48.049h8.396v1h-8.396z"/><path fill="#151616" d="M395.434 49.049h8.396v1h-8.396z"/><path fill="#0b0b0c" d="M395.434 50.049h8.396v3.75h-8.396z"/><path fill="#353636" d="M395.434 53.799h8.396v1h-8.396z"/><path fill="#151616" d="M395.434 54.799h8.396v1h-8.396z"/><path fill="#0b0b0c" d="M395.434 55.799h8.396v3.75h-8.396z"/><path fill="#353636" d="M395.434 59.549h8.396v1h-8.396z"/><path fill="#151616" d="M395.434 60.549h8.396v1h-8.396z"/><path fill="#0b0b0c" d="M395.434 61.549h8.396v3.75h-8.396z"/><path fill="#353636" d="M395.434 65.299h8.396v1h-8.396z"/><path fill="#151616" d="M395.434 66.299h8.396v1h-8.396z"/><path fill="#0b0b0c" d="M395.434 89.591h8.396v3.75h-8.396z"/><path fill="#353636" d="M395.434 93.341h8.396v1h-8.396z"/><path fill="#151616" d="M395.434 94.341h8.396v1h-8.396z"/><path fill="#0b0b0c" d="M395.434 95.341h8.396v3.75h-8.396z"/><path fill="#353636" d="M395.434 99.091h8.396v1h-8.396z"/><path fill="#151616" d="M395.434 100.091h8.396v1h-8.396z"/><path fill="#0b0b0c" d="M395.434 101.091h8.396v3.75h-8.396z"/><path fill="#353636" d="M395.434 104.841h8.396v1h-8.396z"/><path fill="#151616" d="M395.434 105.841h8.396v1h-8.396z"/><path fill="#0b0b0c" d="M395.434 106.841h8.396v3.75h-8.396z"/><path fill="#353636" d="M395.434 110.591h8.396v1h-8.396z"/><path fill="#151616" d="M395.434 111.591h8.396v1h-8.396z"/><path fill="#0b0b0c" d="M395.434 112.591h8.396v3.75h-8.396z"/><path fill="#353636" d="M395.434 116.341h8.396v1h-8.396z"/><path fill="#151616" d="M395.434 117.341h8.396v1h-8.396z"/><path fill="#0b0b0c" d="M124.764 38.549h8.396v3.75h-8.396z"/><path fill="#353636" d="M124.764 42.299h8.396v1h-8.396z"/><path fill="#151616" d="M124.764 43.299h8.396v1h-8.396z"/><path fill="#0b0b0c" d="M124.764 44.299h8.396v3.75h-8.396z"/><path fill="#353636" d="M124.764 48.049h8.396v1h-8.396z"/><path fill="#151616" d="M124.764 49.049h8.396v1h-8.396z"/><path fill="#0b0b0c" d="M124.764 50.049h8.396v3.75h-8.396z"/><path fill="#353636" d="M124.764 53.799h8.396v1h-8.396z"/><path fill="#151616" d="M124.764 54.799h8.396v1h-8.396z"/><path fill="#0b0b0c" d="M124.764 55.799h8.396v3.75h-8.396z"/><path fill="#353636" d="M124.764 59.549h8.396v1h-8.396z"/><path fill="#151616" d="M124.764 60.549h8.396v1h-8.396z"/><path fill="#0b0b0c" d="M124.764 61.549h8.396v3.75h-8.396z"/><path fill="#353636" d="M124.764 65.299h8.396v1h-8.396z"/><path fill="#151616" d="M124.764 66.299h8.396v1h-8.396z"/><path fill="#0b0b0c" d="M124.764 89.591h8.396v3.75h-8.396z"/><path fill="#353636" d="M124.764 93.341h8.396v1h-8.396z"/><path fill="#151616" d="M124.764 94.341h8.396v1h-8.396z"/><path fill="#0b0b0c" d="M124.764 95.341h8.396v3.75h-8.396z"/><path fill="#353636" d="M124.764 99.091h8.396v1h-8.396z"/><path fill="#151616" d="M124.764 100.091h8.396v1h-8.396z"/><path fill="#0b0b0c" d="M124.764 101.091h8.396v3.75h-8.396z"/><path fill="#353636" d="M124.764 104.841h8.396v1h-8.396z"/><path fill="#151616" d="M124.764 105.841h8.396v1h-8.396z"/><path fill="#0b0b0c" d="M124.764 106.841h8.396v3.75h-8.396z"/><path fill="#353636" d="M124.764 110.591h8.396v1h-8.396z"/><path fill="#151616" d="M124.764 111.591h8.396v1h-8.396z"/><path fill="#0b0b0c" d="M124.764 112.591h8.396v3.75h-8.396z"/><path fill="#353636" d="M124.764 116.341h8.396v1h-8.396z"/><path fill="#151616" d="M124.764 117.341h8.396v1h-8.396z"/><path d="M407.173 105.341h-3.344V78.917h3.344a3.354 3.354 0 0 1 3.344 3.344v19.736a3.354 3.354 0 0 1-3.344 3.344z" fill="#16191b"/><linearGradient id="a" gradientUnits="userSpaceOnUse" x1="-60.733" y1="545.667" x2="-59.733" y2="545.667" gradientTransform="matrix(528.5926 0 0 -528.5926 32103.26 288785.625)"><stop offset="0" stop-color="#151616"/><stop offset=".03" stop-color="#101111"/><stop offset=".97" stop-color="#101111"/><stop offset="1" stop-color="#151616"/></linearGradient><path d="M516.593 449.027H12c-6.6 0-12-5.399-12-12V263.361c0-6.601 5.4-12 12-12h504.593c6.6 0 12 5.399 12 12v173.666c0 6.601-5.401 12-12 12z" fill-rule="evenodd" clip-rule="evenodd" fill="url(#a)"/><radialGradient id="b" cx="-60.733" cy="545.667" r="1" gradientTransform="matrix(-38.5701 -66.8055 -534.4437 308.5612 289667.313 -172064.406)" gradientUnits="userSpaceOnUse"><stop offset="0" stop-color="#111212"/><stop offset=".678" stop-color="#131414"/><stop offset=".921" stop-color="#181b1a"/><stop offset="1" stop-color="#1c1f1e"/><stop offset="1" stop-color="#1c1f1e"/></radialGradient><path d="M450.63 449.027h-138v-100c0-38.107 30.893-69 69-69s69 30.893 69 69v100z" fill="url(#b)"/><path d="M433.505 449.027h-103.75v-88.916a4.764 4.764 0 0 1 4.75-4.75h94.25a4.764 4.764 0 0 1 4.75 4.75v88.916z" fill="#0f0f0f"/><path d="M339.765 434.694h-.104a.864.864 0 0 1-.865-.864v-77.604c0-.478.388-.864.865-.864h.104c.478 0 .865.387.865.864v77.604a.865.865 0 0 1-.865.864zM347.765 434.694h-.104a.864.864 0 0 1-.865-.864v-77.604c0-.478.388-.864.865-.864h.104c.478 0 .865.387.865.864v77.604a.865.865 0 0 1-.865.864zM355.765 416.534h-.104a.865.865 0 0 1-.865-.865v-59.443c0-.478.388-.864.865-.864h.104c.478 0 .865.387.865.864v59.443a.866.866 0 0 1-.865.865zM364.682 409.694h-.104a.864.864 0 0 1-.864-.864v-52.604c0-.478.388-.864.864-.864h.104c.478 0 .864.387.864.864v52.604a.864.864 0 0 1-.864.864zM373.599 406.027h-.104a.864.864 0 0 1-.864-.864v-48.938c0-.478.387-.864.864-.864h.104c.478 0 .864.387.864.864v48.938a.864.864 0 0 1-.864.864zM381.682 404.527h-.104a.864.864 0 0 1-.864-.864V363.42c0-.478.388-.864.864-.864h.104c.478 0 .864.387.864.864v40.243a.864.864 0 0 1-.864.864z" fill="#141414"/><path d="M386.439 368.204l-.073.073a.864.864 0 0 1-1.223 0l-4.178-4.177a.866.866 0 0 1 0-1.223l.074-.073a.864.864 0 0 1 1.223 0l4.177 4.177a.864.864 0 0 1 0 1.223z" fill="#141414"/><path d="M382.22 362.805l.073.073a.864.864 0 0 1 0 1.223l-4.177 4.177a.864.864 0 0 1-1.223 0l-.074-.073a.866.866 0 0 1 0-1.223l4.178-4.177a.864.864 0 0 1 1.223 0zM423.494 434.736h.104a.864.864 0 0 0 .864-.865v-77.604a.864.864 0 0 0-.864-.865h-.104a.864.864 0 0 0-.864.865v77.604c0 .477.387.865.864.865zM415.494 434.736h.104a.864.864 0 0 0 .864-.865v-77.604a.864.864 0 0 0-.864-.865h-.104a.864.864 0 0 0-.864.865v77.604c0 .477.387.865.864.865zM407.494 416.575h.104a.864.864 0 0 0 .864-.864v-59.443a.864.864 0 0 0-.864-.865h-.104a.864.864 0 0 0-.864.865v59.443c0 .477.387.864.864.864zM398.577 409.736h.104a.864.864 0 0 0 .864-.865v-52.604a.864.864 0 0 0-.864-.865h-.104a.865.865 0 0 0-.864.865v52.604c0 .477.388.865.864.865zM389.661 406.069h.104a.864.864 0 0 0 .865-.864v-48.938a.865.865 0 0 0-.865-.865h-.104a.865.865 0 0 0-.865.865v48.938c0 .477.388.864.865.864z" fill="#141414"/><path d="M329.755 438.986h19.291v2.625h-19.291z"/><path d="M408.88 449.027h-54.5v-13.282c0-15.05 12.2-27.25 27.25-27.25s27.25 12.2 27.25 27.25v13.282z" fill="#070707"/><path d="M275.996 417.194a4.262 4.262 0 0 1 4.25 4.25v17.917a4.262 4.262 0 0 1-4.25 4.25 4.263 4.263 0 0 1-4.25-4.25v-13.667h-26.783c-2.337 0-4.25-1.912-4.25-4.25s1.913-4.25 4.25-4.25h30.917a4.262 4.262 0 0 1 4.25 4.25" fill="#151616"/><path d="M278.196 440.299a2.2 2.2 0 1 1-4.398 0 2.2 2.2 0 0 1 4.398 0z" fill="#44f518"/><path d="M245.433 423.798v-5.011h1.237c.461 0 .763.024.904.071.226.078.412.243.56.496.146.253.221.579.221.978 0 .362-.063.666-.19.911s-.285.417-.476.516c-.19.1-.519.148-.983.148h-.506v1.891h-.767zm.767-4.163v1.425h.427c.286 0 .48-.021.583-.064a.536.536 0 0 0 .253-.234.825.825 0 0 0 .099-.417.81.81 0 0 0-.102-.421.51.51 0 0 0-.252-.229c-.1-.039-.311-.059-.632-.059h-.376zM248.83 421.323c0-.597.082-1.089.246-1.475.163-.387.378-.674.642-.863.265-.189.585-.283.961-.283.546 0 .99.224 1.334.673s.516 1.088.516 1.917c0 .839-.182 1.494-.546 1.966-.319.417-.753.626-1.3.626-.553 0-.988-.207-1.308-.619-.363-.472-.545-1.12-.545-1.942zm.793-.034c0 .576.102 1.009.305 1.297s.455.433.756.433c.303 0 .554-.143.753-.429s.299-.726.299-1.317c0-.582-.097-1.011-.291-1.289-.193-.278-.447-.417-.761-.417s-.568.14-.766.421c-.196.278-.295.713-.295 1.301zM253.674 423.798l-.914-5.011h.79l.572 3.443.697-3.443h.917l.669 3.502.589-3.502h.774l-.926 5.011h-.82l-.761-3.748-.755 3.748zM258.161 423.798v-5.011h2.829v.848h-2.061v1.11h1.915v.845h-1.915v1.36h2.131v.848zM261.713 423.798v-5.011h1.621c.414 0 .71.045.888.135s.324.246.438.469c.115.222.172.488.172.798 0 .392-.088.707-.262.947a1.16 1.16 0 0 1-.744.451c.165.127.302.267.409.418.108.151.255.424.44.815l.463.978h-.918l-.557-1.09c-.2-.395-.337-.642-.408-.74a.6.6 0 0 0-.229-.205c-.08-.038-.21-.057-.387-.057h-.159v2.092h-.767zm.767-2.892h.571c.349 0 .57-.017.666-.05a.435.435 0 0 0 .231-.199.777.777 0 0 0 .089-.4c0-.159-.029-.288-.089-.385s-.14-.163-.241-.199c-.072-.025-.28-.038-.625-.038h-.603v1.271z" fill="#070707"/><path d="M469.646 417.194a4.262 4.262 0 0 0-4.25 4.25v17.917a4.262 4.262 0 0 0 4.25 4.25 4.263 4.263 0 0 0 4.25-4.25v-13.667h26.783c2.338 0 4.25-1.912 4.25-4.25s-1.912-4.25-4.25-4.25h-30.917a4.262 4.262 0 0 0-4.25 4.25" fill="#151616"/><path d="M467.446 440.299a2.2 2.2 0 1 0 4.398 0 2.2 2.2 0 0 0-4.398 0z" fill="#44f518"/><path d="M488.7 424.298v-5.011h1.237c.461 0 .763.024.903.071.227.078.413.243.561.496.146.253.221.579.221.978 0 .362-.064.666-.191.911s-.285.417-.475.516c-.191.1-.519.148-.984.148h-.504v1.891h-.768zm.768-4.163v1.425h.426c.287 0 .48-.021.584-.064a.53.53 0 0 0 .252-.234.815.815 0 0 0 .1-.417.82.82 0 0 0-.102-.421.51.51 0 0 0-.252-.229c-.1-.039-.311-.059-.633-.059h-.375zM495.304 424.298h-.834l-.334-1.135h-1.527l-.314 1.135h-.818l1.484-5.011h.815l1.528 5.011zm-1.416-1.983l-.526-1.859-.517 1.859h1.043zM495.704 419.287h1.403c.354 0 .622.043.804.128.18.086.346.229.498.433s.271.466.358.79c.087.323.13.726.13 1.206 0 .433-.045.81-.137 1.13-.09.32-.205.573-.345.76a1.36 1.36 0 0 1-.505.423c-.198.095-.452.142-.763.142h-1.444v-5.012zm.768.848v3.315h.576c.248 0 .428-.025.538-.075s.202-.126.272-.227c.071-.102.13-.262.176-.48.047-.218.07-.506.07-.863 0-.371-.023-.664-.071-.878s-.122-.382-.222-.505a.706.706 0 0 0-.367-.243c-.107-.029-.315-.044-.625-.044h-.347z" fill="#070707"/><path d="M47.046 312.277H11.13a3.929 3.929 0 0 1-3.917-3.916 3.929 3.929 0 0 1 3.917-3.917h35.917a3.929 3.929 0 0 1 3.917 3.917 3.93 3.93 0 0 1-3.918 3.916z" fill="#151616"/><path d="M31.667 308.719l.746.311c-.117.561-.31.97-.581 1.229a1.391 1.391 0 0 1-.999.389c-.497 0-.9-.207-1.208-.619-.355-.477-.533-1.119-.533-1.928 0-.854.179-1.523.536-2.006.312-.42.729-.629 1.254-.629.427 0 .785.156 1.073.471.206.224.355.556.451.995l-.761.239c-.049-.271-.146-.479-.291-.624s-.316-.217-.513-.217c-.282 0-.512.132-.689.396s-.267.7-.267 1.31c0 .631.086 1.08.26 1.346.173.268.398.4.676.4.203 0 .378-.085.526-.255s.255-.439.32-.808zM33.073 310.56v-5.01h.767v1.971h1.513v-1.971h.768v5.01h-.768v-2.191H33.84v2.191zM38.207 309.234l.708-.113c.019.236.08.417.181.541a.454.454 0 0 0 .359.188c.151 0 .278-.074.382-.223.104-.147.156-.353.156-.615 0-.243-.05-.435-.149-.574-.1-.139-.221-.208-.363-.208-.093 0-.205.024-.334.071l.079-.782a.577.577 0 0 0 .45-.164c.108-.113.163-.273.163-.48 0-.172-.04-.308-.118-.405-.079-.098-.18-.146-.303-.146s-.229.057-.32.169c-.09.113-.144.28-.161.501l-.675-.15c.07-.458.206-.791.41-.998.203-.207.459-.311.769-.311a.99.99 0 0 1 .827.398c.205.267.307.562.307.885 0 .218-.046.415-.138.59-.092.176-.23.329-.414.461a.914.914 0 0 1 .521.406c.134.21.202.473.202.787 0 .457-.126.836-.38 1.136-.253.3-.554.45-.903.45-.334 0-.618-.127-.85-.379-.232-.254-.367-.598-.406-1.035zM40.964 310.646l.945-5.181h.548l-.954 5.181zM44.11 310.56v-1.008h-1.561v-.842l1.653-3.178h.615v3.175h.473v.845h-.473v1.008h-.707zm0-1.852v-1.711l-.875 1.711h.875z" fill="#070707"/><path d="M13.113 308.361a2.2 2.2 0 1 1-4.398 0 2.2 2.2 0 0 1 4.398 0z" fill="#44f518"/><path d="M58.005 284.277H11.13a3.929 3.929 0 0 1-3.917-3.916 3.929 3.929 0 0 1 3.917-3.917h46.875a3.929 3.929 0 0 1 3.917 3.917 3.93 3.93 0 0 1-3.917 3.916z" fill="#151616"/><path d="M29.705 282.799h-.815l-.327-1.135h-1.492l-.308 1.135h-.8l1.451-5.011h.797l1.494 5.011zm-1.384-1.983l-.515-1.859-.505 1.859h1.02zM30.109 282.799v-5.011h.731l1.526 3.347v-3.347h.7v5.011h-.756l-1.5-3.268v3.268zM34.697 282.799v-4.163h-1.106v-.848h2.961v.848h-1.104v4.163zM38.297 281.165l.735-.096c.083.641.354.96.813.96.228 0 .406-.065.536-.196a.663.663 0 0 0 .195-.486.575.575 0 0 0-.068-.291.52.52 0 0 0-.208-.196c-.093-.051-.318-.137-.676-.258-.32-.106-.555-.223-.704-.348a1.3 1.3 0 0 1-.355-.493 1.646 1.646 0 0 1-.132-.658c0-.272.056-.519.169-.737.112-.219.268-.384.466-.495.199-.111.443-.167.735-.167.438 0 .78.131 1.026.393s.376.637.391 1.125l-.753.044c-.033-.269-.104-.457-.214-.563-.109-.107-.266-.161-.468-.161s-.358.047-.468.14a.44.44 0 0 0-.164.348c0 .137.05.251.149.344.1.094.328.196.686.308.378.121.651.248.82.381.168.134.297.306.386.517s.133.466.133.767c0 .436-.122.801-.364 1.098-.243.296-.623.444-1.14.444-.914-.004-1.423-.578-1.526-1.724zM42.489 282.799l-.893-5.011h.772l.56 3.443.681-3.443h.897l.654 3.502.575-3.502h.757l-.906 5.011h-.8l-.745-3.748-.738 3.748zM46.851 277.788h.75v5.011h-.75zM49.161 282.799v-4.163h-1.107v-.848h2.961v.848h-1.104v4.163zM53.889 280.957l.729.311c-.114.561-.303.97-.567 1.229s-.59.389-.977.389c-.486 0-.879-.207-1.181-.619-.347-.477-.521-1.119-.521-1.928 0-.854.175-1.523.524-2.006.304-.42.713-.629 1.226-.629.418 0 .768.156 1.049.471.201.224.348.556.441.995l-.744.239c-.048-.271-.143-.479-.284-.624a.679.679 0 0 0-.502-.217c-.275 0-.5.132-.674.396s-.261.7-.261 1.31c0 .631.085 1.08.254 1.346.169.268.39.4.661.4.198 0 .37-.085.515-.255.144-.17.248-.439.312-.808zM55.263 282.799v-5.011h.75v1.972h1.479v-1.972h.75v5.011h-.75v-2.192h-1.479v2.192z" fill="#070707"/><path d="M12.863 280.361a2.2 2.2 0 1 1-4.398 0 2.2 2.2 0 0 1 4.398 0z" fill="#44f518"/><path d="M215.381 369.545H99.214a2.758 2.758 0 0 1-2.75-2.75v-26.334a2.759 2.759 0 0 1 2.75-2.75h116.167a2.759 2.759 0 0 1 2.75 2.75v26.334a2.759 2.759 0 0 1-2.75 2.75z" fill="#181919"/><path d="M200.878 346.455a8.11 8.11 0 0 1 6.353 1.622c1.298 1.002 2.295 2.414 2.853 3.994a9.17 9.17 0 0 1 .063 5.804 8.698 8.698 0 0 1-2.882 4.165c-1.453 1.146-3.273 1.788-5.097 1.751-2.73.026-5.403-1.493-6.903-3.866-1.562-2.396-1.843-5.621-.742-8.279 1.086-2.711 3.569-4.751 6.355-5.191zm-4.242 4.886c-.003.342-.003.684-.002 1.025l.891-.001.001 5.468h-.892v1.023h2.787v-1.023c-.298 0-.596 0-.893-.002.005-2.16-.004-4.321.004-6.482-.631-.015-1.264-.002-1.896-.008zm3.655.642c.005 2.046-.012 4.091.008 6.137.166.264.423.457.628.69h6.24c.229-.31.711-.52.64-.976-.011-.876.01-1.75-.01-2.625-.127-.233-.35-.396-.525-.59-2.028.009-4.056-.006-6.084.007-.013-.761-.003-1.523-.005-2.284h5.753c-.001.318-.001.637.002.955l.868-.001c0-.45-.003-.9.003-1.35-.18-.198-.366-.391-.551-.583-2.118.008-4.236-.01-6.354.009-.229.176-.409.407-.613.611zM112.303 346.806c.542-.002 1.082.004 1.623-.004.011 4.934.001 9.867.004 14.801h1.829c.003-4.935-.007-9.867.005-14.802.549.011 1.098 0 1.647.008-.006 4.729-.002 9.457-.003 14.185-.006.341.029.689-.052 1.024-.155.718-.826 1.263-1.53 1.26-.654 0-1.309.003-1.962-.002-.854-.017-1.58-.844-1.557-1.729-.011-4.914-.002-9.828-.004-14.741zM121.534 346.806c1.125.007 2.253-.013 3.378.01.797.011 1.651.641 1.659 1.528a2430 2430 0 0 1 0 5.4c-.006.779-.505 1.591-1.273 1.734.532 2.6 1.054 5.199 1.588 7.798-.51.002-1.021.001-1.531.001-.564-2.567-1.137-5.133-1.701-7.7l-.561-.002v7.702h-1.56l.001-16.471zm1.627 1.629v5.373c.602.001 1.203-.003 1.805.003.004-1.793.001-3.585.001-5.377-.602.001-1.204-.001-1.806.001zM131.007 346.809c1.18-.003 2.36-.014 3.539.004.748-.002 1.453.644 1.479 1.436.004 1.737 0 3.476.002 5.214.004.483-.327.865-.651 1.166.314.272.618.628.647 1.074.048.708.017 1.419.026 2.129-.008 1.084.02 2.17-.022 3.254-.014.46.068.953-.152 1.378-.238.513-.786.809-1.319.813-1.181.003-2.361-.005-3.542.003-.011-5.491.004-10.981-.007-16.471zm1.632 1.625c0 1.791-.001 3.583.001 5.375.602-.002 1.203 0 1.805-.001.001-1.792-.002-3.582.001-5.372-.602-.004-1.204-.001-1.807-.002zm.001 7.094c-.004 2.04 0 4.08-.001 6.12.602-.001 1.205.002 1.807-.001-.003-2.04 0-4.078-.001-6.117-.601-.001-1.203.002-1.805-.002zM141.282 346.897c.48-.144.985-.078 1.479-.092.543.011 1.13-.069 1.626.216.494.273.933.795.917 1.408v12.666c-.006.368.041.758-.121 1.1-.251.549-.752 1.018-1.349 1.078-.535.013-1.07-.003-1.604.005-.313-.003-.639.029-.935-.097-.626-.257-1.142-.901-1.121-1.626.001-4.218.002-8.436 0-12.654.003-.34-.032-.698.104-1.018a1.778 1.778 0 0 1 1.004-.986zm.61 1.56v13.098c.58.002 1.16.002 1.741 0l-.001-13.098h-1.74z" fill="#f79226"/><path d="M201.227 355.599c1.88.001 3.761-.001 5.643.001-.002.736-.001 1.473-.001 2.209-1.882-.003-3.764.007-5.645-.005.008-.735.001-1.469.003-2.205zM105.54 345.115h-1.532v-1.651h4.905v1.651h-1.532v18.147h-1.841z" fill="#f79226"/><path d="M149.918 345.267c-.035-.845.618-1.651 1.414-1.779.65-.026 1.301.001 1.952-.012.938-.103 1.814.82 1.764 1.788 0 .971-.003 1.941.001 2.911-.558.005-1.116.002-1.674.003-.003-.987.005-1.973-.004-2.959-.622.007-1.244.005-1.865.001-.008 5.476-.001 10.952-.003 16.428.64-.003 1.281.006 1.922-.005-.01-2.65-.002-5.301-.004-7.951h-.847v-1.582c.823-.002 1.647.004 2.471-.003.004 3.717.009 7.434-.002 11.149-1.15-.008-2.299-.001-3.449-.002a1.727 1.727 0 0 1-1.58-1.096c-.132-.341-.087-.715-.094-1.073-.001-5.273.001-10.545-.002-15.818zM159.373 346.806c1.093.001 2.186-.006 3.279.003.673-.009 1.362.374 1.649 1.023.118.245.087.524.092.789-.005 1.736 0 3.473-.003 5.21-.037.735-.536 1.485-1.263 1.613.54 2.6 1.063 5.204 1.588 7.808l-1.529.001c-.567-2.577-1.14-5.15-1.708-7.727l-.544.004c-.002 2.582.002 5.164-.003 7.747-.52-.003-1.04.001-1.559-.003.004-5.488.002-10.978.001-16.468zm1.584 1.605v5.351c.609.001 1.219-.001 1.828.001.003-1.784.001-3.567.001-5.352h-1.829zM168.628 348.335c.004-.748.601-1.467 1.33-1.502.716-.011 1.433.001 2.148-.006.366-.007.746.091 1.033.338.332.279.505.729.505 1.17v14.919h-1.539l-.001-7.818c-.639.001-1.277.002-1.915 0-.004 2.606.001 5.213-.003 7.819-.52-.002-1.039-.001-1.559-.001.001-4.973-.001-9.947.001-14.919zm1.605.169c.002 1.762-.005 3.523.003 5.285.608-.008 1.216-.003 1.825-.004-.001-1.761.002-3.521-.001-5.282-.609.002-1.218 0-1.827.001zM177.569 348.243c.005-.722.611-1.402 1.312-1.413.878-.004 1.756.001 2.635-.001v1.466c-.787-.002-1.573.004-2.359-.004-.01 1.84-.002 3.679-.003 5.519.646-.002 1.292-.001 1.939-.001 0 .542-.001 1.085.001 1.627-.646.002-1.293.001-1.94 0-.002 2.606 0 5.213-.001 7.818h-1.583l-.001-15.011zM185.44 346.829h1.65c.01 1.521-.021 3.045.014 4.565.28.487.606.946.899 1.428.287-.471.624-.911.882-1.4.025-1.529.005-3.062.009-4.591.551-.003 1.103-.004 1.654 0-.005 1.093-.001 2.187-.002 3.28-.006.508.046 1.033-.134 1.519-.366 1.018-.916 1.947-1.463 2.865.622 1.042 1.296 2.098 1.582 3.302.033 1.826.009 3.655.012 5.482-.512-.004-1.023-.001-1.535-.002-.005-1.835.011-3.671-.007-5.505-.258-.556-.648-1.041-.958-1.568-.319.51-.655 1.008-.976 1.516-.001 1.854.008 3.707-.003 5.562-.542-.009-1.082-.002-1.623-.004-.001-1.722.002-3.443-.001-5.165-.007-.467.207-.895.385-1.311a21.12 21.12 0 0 1 1.314-2.324c-.644-1.03-1.36-2.06-1.679-3.259-.046-1.461-.006-2.927-.02-4.39z" fill="#d5e14d"/><path fill="#0b0b0c" d="M0 379.861h308.171v3.75H0z"/><path fill="#353636" d="M0 383.611h308.171v1H0z"/><path fill="#151616" d="M0 384.611h308.171v1H0z"/><path fill="#0b0b0c" d="M0 385.611h308.171v3.75H0z"/><path fill="#353636" d="M0 389.361h308.171v1H0z"/><path fill="#151616" d="M0 390.361h308.171v1H0z"/><path fill="#0b0b0c" d="M0 391.361h308.171v3.75H0z"/><path fill="#353636" d="M0 395.111h308.171v1H0z"/><path fill="#151616" d="M0 396.111h308.171v1H0z"/><path fill="#0b0b0c" d="M0 397.111h308.171v3.75H0z"/><path fill="#353636" d="M0 400.861h308.171v1H0z"/><path fill="#151616" d="M0 401.861h308.171v1H0z"/><path fill="#0b0b0c" d="M0 402.861h308.171v3.75H0z"/><path fill="#353636" d="M0 406.611h308.171v1H0z"/><path fill="#151616" d="M0 407.611h308.171v1H0z"/><path fill="#0b0b0c" d="M455.088 379.861h73.505v3.75h-73.505z"/><path fill="#353636" d="M455.088 383.611h73.505v1h-73.505z"/><path fill="#151616" d="M455.088 384.611h73.505v1h-73.505z"/><path fill="#0b0b0c" d="M455.088 385.611h73.505v3.75h-73.505z"/><path fill="#353636" d="M455.088 389.361h73.505v1h-73.505z"/><path fill="#151616" d="M455.088 390.361h73.505v1h-73.505z"/><path fill="#0b0b0c" d="M455.088 391.361h73.505v3.75h-73.505z"/><path fill="#353636" d="M455.088 395.111h73.505v1h-73.505z"/><path fill="#151616" d="M455.088 396.111h73.505v1h-73.505z"/><path fill="#0b0b0c" d="M455.088 397.111h73.505v3.75h-73.505z"/><path fill="#353636" d="M455.088 400.861h73.505v1h-73.505z"/><path fill="#151616" d="M455.088 401.861h73.505v1h-73.505z"/><path fill="#0b0b0c" d="M455.088 402.861h73.505v3.75h-73.505z"/><path fill="#353636" d="M455.088 406.611h73.505v1h-73.505z"/><path fill="#151616" d="M455.088 407.611h73.505v1h-73.505z"/><path d="M495.234 267.631l-4.636-4.158-2.105 1.803 1.011.691-1.208 5.004 2.424-.796-1.251-.867.694-2.646 4.883 4.215 1.686-5.747 1.707-.773-2.063-.939-1.142 4.213zm4.083-3.462c.146.124.329.282.287.45l-.57 2.247c-.045.176-.253.304-.416.392s-.364.111-.564.135c.173.051.347.102.462.195.117.094.277.229.235.369l-.652 2.189c-.061.201-.336.328-.531.438-.195.11-.418.166-.641.223h7.8l.548-2.19c-.299.455-.6.909-1.11 1.201-.513.291-1.213.547-1.955.547h-1.429l.713-2.71c.259-.066.552-.06.815.037.266.096.501.281.713.482.211.202.397.42.545.65l.747-2.851a5.62 5.62 0 0 1-.845.569c-.308.171-.635.323-.941.398a1.867 1.867 0 0 1-.858.018l.739-2.668 1.15-.009c.521-.003 1.041-.05 1.46.207.421.258.743.799 1.063 1.34l.569-1.953h-7.929c.224.086.448.171.595.294zm9.345.684c-.583.372-1.11.867-1.46 1.406-.351.54-.528 1.125-.537 1.66-.008.537.15 1.025.441 1.473.293.448.718.855 1.243 1.13.527.275 1.153.42 1.727.485a7.05 7.05 0 0 0 1.512.012 3.45 3.45 0 0 0 .997-.234l1.646-2.561c-.427.15-.859.287-1.31.426-.449.139-.915.28-1.409.325-.494.044-1.017-.008-1.48-.214s-.869-.567-1.08-.972a1.544 1.544 0 0 1-.077-1.256c.146-.404.457-.765.835-1.08.377-.315.82-.587 1.232-.766s.793-.266 1.182-.286l1.243 1.34 1.43-.399-1.002-1.837c-.282-.008-.567.001-.903.028s-.725.073-1.128.15c-.403.078-.821.187-1.35.366-.53.181-1.17.431-1.752.804z" fill-rule="evenodd" clip-rule="evenodd" fill="#181919"/><path d="M379.144 36.025H149.449c-6.6 0-12 5.4-12 12v206.357c0 6.6 5.4 12 12 12h229.696c6.6 0 12-5.4 12-12V48.025c-.001-6.6-5.401-12-12.001-12z" fill="#16191b"/><path d="M153.446 51.423l-4.069-4.442-1.849 1.926.887.739-1.06 5.346 2.127-.851-1.098-.926.609-2.828 4.287 4.502 1.48-6.139 1.499-.826-1.812-1.004-1.001 4.503zm3.585-3.698c.128.132.289.301.251.48l-.5 2.401c-.039.188-.222.324-.365.418s-.319.119-.495.144c.152.054.304.109.405.209.103.101.244.244.206.395l-.572 2.338c-.053.216-.295.351-.466.468-.172.118-.367.178-.563.237h6.848l.481-2.34c-.263.486-.527.971-.975 1.283-.45.311-1.065.584-1.716.584h-1.254l.625-2.895c.228-.071.485-.064.717.039.233.102.439.3.626.516.185.215.348.448.478.694l.656-3.044a5.112 5.112 0 0 1-.743.608c-.269.183-.556.345-.826.426a1.35 1.35 0 0 1-.754.018l.649-2.85 1.01-.009c.457-.003.914-.054 1.282.221.37.275.652.853.933 1.431l.5-2.086h-6.96c.196.091.392.182.522.314zm8.203.731a4.833 4.833 0 0 0-1.282 1.503 3.936 3.936 0 0 0-.471 1.773 3.187 3.187 0 0 0 .388 1.573c.257.479.63.914 1.091 1.207.462.295 1.012.449 1.516.52.504.07.963.058 1.327.012.363-.047.631-.126.875-.25l1.444-2.735c-.374.16-.754.306-1.149.454-.395.148-.803.3-1.237.348-.434.047-.893-.008-1.3-.229a2.195 2.195 0 0 1-.947-1.039c-.185-.431-.197-.91-.068-1.341s.401-.817.733-1.154c.331-.337.72-.627 1.082-.817a2.52 2.52 0 0 1 1.038-.306l1.091 1.432 1.255-.427-.88-1.962a5.958 5.958 0 0 0-.793.03 7.787 7.787 0 0 0-.99.161 7.478 7.478 0 0 0-1.185.391c-.465.19-1.027.457-1.538.856z" fill-rule="evenodd" clip-rule="evenodd" fill="#fff"/><path d="M377.031 47.03l-.006.137c-.017.146 0 .216-.423.216-.422 0-.405-.069-.422-.216a6.958 6.958 0 0 1-.01-.43c0-.122.004-.383.01-.43.017-.146 0-.216.422-.216.423 0 .406.069.423.216l.006.146h.578a3.944 3.944 0 0 0-.017-.297c-.033-.293.082-.573-.989-.573s-.956.28-.989.573a6.343 6.343 0 0 0-.02.581c.001.244.009.486.02.581.033.293-.082.573.989.573s.956-.28.989-.573c.007-.056.012-.161.015-.288h-.576zM370.179 45.641l-.564 1.645-.563-1.645-.844-.004v2.209h.563V46.2l.565 1.646h.563l.56-1.646v1.646h.563v-2.209zM377.735 45.637h1.621v.563h-.528v1.646h-.564V46.2h-.529zM373.39 47.846l.646-2.212h.84l.648 2.212h-.563l-.134-.457h-.739l.104-.359h.53l-.263-.901-.506 1.717zM366.851 46.091c.422 0 .405.069.422.216.006.047.01.308.01.43.001.122-.004.382-.01.43-.017.146 0 .216-.422.216-.423 0-.406-.069-.423-.216a8.992 8.992 0 0 1 0-.86c.016-.147 0-.216.423-.216v-.508c-1.071 0-.956.28-.988.573a6.25 6.25 0 0 0-.021.581c.001.244.009.486.021.581.032.293-.083.573.988.573s.956-.28.989-.573c.011-.095.019-.337.021-.581a6.25 6.25 0 0 0-.021-.581c-.033-.293.083-.573-.989-.573v.508zM364.946 47.03l-.006.137c-.017.146 0 .216-.422.216-.423 0-.406-.069-.423-.216a6.958 6.958 0 0 1-.01-.43c0-.122.004-.383.01-.43.017-.146 0-.216.423-.216.422 0 .405.069.422.216l.006.146h.578a4.576 4.576 0 0 0-.017-.297c-.033-.293.082-.573-.989-.573s-.956.28-.989.573a6.343 6.343 0 0 0-.02.581c.001.244.009.486.02.581.033.293-.082.573.989.573s.956-.28.989-.573c.006-.056.012-.161.016-.288h-.577zM372.395 47.34h-.342v-.504l.342-.002c.422 0 .409-.069.426-.216.006-.047.005-.008.004-.13 0-.122.002-.08-.004-.128-.017-.146-.004-.215-.426-.215l-.343.001.001 1.698h-.564v-2.207h.906c1.071 0 .954.281.993.573l.005.281-.005.279c-.027.293.079.571-.993.57zM361.431 56.165l-3.529-.004a.925.925 0 0 1-.925-.924v-5.368c0-.51.414-.924.925-.924l2.209-.002a.48.48 0 0 0 .48-.48l.006-2.146c0-.111.091-.201.201-.201h1.295c.111 0 .202.09.202.201l.013 9.648c0 .111-.09.202-.201.202l-.676-.002-.017.479h.884a.48.48 0 0 0 .479-.48V46.111a.48.48 0 0 0-.479-.48h-1.699a.48.48 0 0 0-.48.48l.002 2.151c0 .111-.09.202-.201.202l-2.018-.004c-.778 0-1.41.63-1.41 1.409l.001 5.368c0 .778.631 1.408 1.409 1.408l3.513-.001.016-.479z" fill="#eff8fb"/><path d="M360.118 54.189v-3.473a.527.527 0 0 0-1.054 0v3.749a.527.527 0 0 0 1.054 0v-.276l.479.017v.259a1.006 1.006 0 0 1-2.014 0v-3.749a1.007 1.007 0 1 1 2.014 0v3.489l-.479-.016zM364.785 56.165h-.661a.202.202 0 0 1-.201-.201l.008-6.813c0-.111.091-.201.202-.201h1.294c.111 0 .202.09.202.201l.014 6.813a.202.202 0 0 1-.201.201h-.657v.477l.847.001a.48.48 0 0 0 .48-.48v-7.218a.48.48 0 0 0-.48-.48h-1.699a.48.48 0 0 0-.48.48l-.001 7.216c0 .265.214.48.479.48h.855v-.476zM370.886 50.29l-1.423-.002a.792.792 0 1 0 0 1.584l1.949.005c.511 0 .924.414.924.924l-.006 2.424c0 .51-.414.924-.925.924l-3.869.007a.201.201 0 0 1-.201-.201v-.939c0-.111.09-.201.201-.201l2.637-.009a.792.792 0 1 0 0-1.584l-1.909-.007a.924.924 0 0 1-.924-.924v-2.422c0-.511.414-.924.924-.924l3.587-.017c.111 0 .201.09.201.201v.96c0 .111-.09.201-.201.201h-.965l-.017.472h1.18c.265 0 .48-.213.48-.478l.001-1.346a.48.48 0 0 0-.479-.479l-3.787.001c-.778 0-1.409.63-1.409 1.409v2.422a1.41 1.41 0 0 0 1.409 1.409l1.909-.003a.319.319 0 0 1 0 .637h-2.842a.48.48 0 0 0-.48.48v1.343a.48.48 0 0 0 .48.479h4.074c.778 0 1.409-.63 1.409-1.409l.007-2.424a1.41 1.41 0 0 0-1.409-1.409l-1.949.005a.318.318 0 1 1 0-.636h1.406l.017-.473zM378.055 51.622h.611c.111 0 .201-.09.201-.201l-.003-1.552a.923.923 0 0 0-.925-.924h-3.056a.924.924 0 0 0-.925.924v5.368c0 .51.413.924.925.924h3.056a.924.924 0 0 0 .925-.924l.003-1.476a.201.201 0 0 0-.201-.201h-1.153a.201.201 0 0 0-.201.201l.006.703c0 .556-.35 1.007-.905 1.007-.557 0-.906-.451-.906-1.007v-3.749c0-.556.35-1.006.906-1.006s.905.45.905 1.006l-.006.705c0 .111.09.201.201.201h.542l-.017.484h-.725a.48.48 0 0 1-.48-.48l.005-.909c0-.291-.135-.527-.426-.527-.292 0-.427.236-.427.527v3.749c0 .292.135.527.427.527.291 0 .426-.236.426-.527l-.005-.908a.48.48 0 0 1 .48-.48h1.557a.48.48 0 0 1 .48.48l-.001 1.681a1.41 1.41 0 0 1-1.41 1.408h-3.056a1.41 1.41 0 0 1-1.41-1.408V49.87a1.41 1.41 0 0 1 1.41-1.409h3.056c.778 0 1.41.631 1.41 1.409l.001 1.756a.48.48 0 0 1-.48.48h-.832l.017-.484z" fill="#eff8fb"/><path d="M161.759 259.792c-10.188 0-18.476-8.288-18.476-18.477 0-10.188 8.289-18.476 18.476-18.476 10.188 0 18.476 8.288 18.476 18.476 0 10.189-8.288 18.477-18.476 18.477zm0-34.36c-8.758 0-15.883 7.125-15.883 15.883 0 8.759 7.125 15.883 15.883 15.883s15.883-7.124 15.883-15.883c.001-8.758-7.125-15.883-15.883-15.883z" fill="#131313"/><circle cx="161.759" cy="241.315" r="17.18" fill="#1b0d18"/><path d="M148.091 237.348a1.232 1.232 0 1 1-2.464 0 1.232 1.232 0 0 1 2.464 0z" fill="#a60998"/><path fill="#fff" d="M146.471 214.066v-3.032h-.962v-.618h2.576v.618h-.959v3.032zM148.51 214.066v-3.65h1.378c.346 0 .598.033.755.099a.771.771 0 0 1 .377.35c.095.168.142.359.142.575 0 .274-.071.5-.214.679s-.357.291-.642.338c.142.092.259.194.351.306.092.111.216.309.373.593l.396.712h-.783l-.473-.794a5.165 5.165 0 0 0-.345-.537l-.197-.151a.97.97 0 0 0-.33-.042h-.133v1.524h-.655zm.654-2.106h.484c.314 0 .51-.016.588-.045l.184-.154a.52.52 0 0 0 .066-.273c0-.123-.029-.223-.087-.298s-.14-.123-.247-.143a4.584 4.584 0 0 0-.478-.013h-.511v.926zM154.703 214.066h-.712l-.283-.829h-1.296l-.268.829h-.694l1.263-3.65h.692l1.298 3.65zm-1.206-1.444l-.447-1.354-.438 1.354h.885zM157.124 212.723l.635.228c-.098.397-.259.694-.486.887-.226.194-.513.29-.861.29-.43 0-.784-.165-1.062-.496s-.416-.783-.416-1.357c0-.608.139-1.08.418-1.416s.645-.504 1.099-.504c.396 0 .719.132.966.396.147.156.258.38.332.673l-.648.174c-.039-.189-.119-.339-.24-.448s-.27-.165-.443-.165c-.24 0-.435.098-.585.292s-.225.509-.225.943c0 .462.074.79.221.986a.688.688 0 0 0 .575.293.614.614 0 0 0 .449-.187c.127-.125.217-.321.271-.589zM158.33 214.066v-3.65h.654v1.621l1.323-1.621h.88l-1.221 1.422 1.287 2.228h-.846l-.892-1.713-.531.611v1.102zM145.732 220.009v-3.651h.98l.588 2.489.582-2.489h.982v3.651h-.608v-2.873l-.644 2.873h-.63l-.642-2.873v2.873zM149.381 218.206c0-.372.049-.684.148-.937.074-.186.174-.353.302-.5a1.24 1.24 0 0 1 .419-.328c.202-.097.435-.145.699-.145.478 0 .86.166 1.147.5s.43.798.43 1.392c0 .589-.143 1.05-.427 1.383-.285.333-.665.499-1.142.499-.482 0-.865-.165-1.15-.496s-.426-.788-.426-1.368zm.675-.026c0 .413.085.727.254.94.17.213.385.319.646.319a.784.784 0 0 0 .643-.317c.167-.211.251-.529.251-.952 0-.418-.082-.73-.245-.937a.789.789 0 0 0-.649-.309.79.79 0 0 0-.652.313c-.165.21-.248.524-.248.943zM153.035 216.358h1.196c.27 0 .476.023.617.07.19.063.353.175.489.336.136.16.239.358.31.591a3 3 0 0 1 .106.862c0 .301-.033.56-.1.777-.081.266-.196.48-.347.645a1.122 1.122 0 0 1-.46.292 1.78 1.78 0 0 1-.579.077h-1.232v-3.65zm.654.617v2.418h.489a1.6 1.6 0 0 0 .396-.035.595.595 0 0 0 .265-.151c.07-.071.127-.188.171-.353.044-.163.067-.387.067-.669 0-.281-.022-.498-.067-.649-.044-.151-.106-.269-.186-.354s-.181-.143-.303-.172c-.091-.023-.271-.035-.537-.035h-.295zM156.309 220.009v-3.651h2.403v.617h-1.749v.81h1.628v.615h-1.628v.993h1.811v.616zM184.641 248.533v-3.65h1.378c.346 0 .598.033.755.099a.771.771 0 0 1 .377.35c.094.168.142.359.142.575 0 .274-.072.5-.215.679-.143.179-.357.291-.641.338.141.092.258.194.351.306s.216.309.373.592l.396.713h-.783l-.473-.794a5.165 5.165 0 0 0-.345-.537l-.197-.152a1.002 1.002 0 0 0-.33-.041h-.133v1.524h-.655zm.654-2.106h.484c.314 0 .51-.016.589-.045l.184-.154a.52.52 0 0 0 .066-.273c0-.123-.029-.223-.087-.298s-.14-.123-.247-.144a4.916 4.916 0 0 0-.478-.013h-.511v.927zM187.909 248.533v-3.65h2.404v.617h-1.749v.809h1.627v.616h-1.627v.993h1.811v.615zM190.93 248.533v-3.65h1.051c.398 0 .657.019.778.055a.863.863 0 0 1 .467.357c.125.184.188.421.188.711 0 .224-.036.412-.108.565-.072.152-.164.272-.275.359s-.225.145-.34.174a3.39 3.39 0 0 1-.679.052h-.427v1.377h-.655zm.655-3.033v1.036h.358c.258 0 .43-.019.518-.057l.205-.18a.539.539 0 0 0 .074-.284c0-.133-.034-.242-.104-.328s-.157-.141-.264-.162a2.749 2.749 0 0 0-.471-.025h-.316zM193.951 248.533v-3.65h2.404v.617h-1.749v.809h1.628v.616h-1.628v.993h1.811v.615zM199.896 248.533h-.712l-.283-.829h-1.296l-.268.829h-.694l1.263-3.65h.692l1.298 3.65zm-1.205-1.444l-.447-1.354-.438 1.354h.885zM200.638 248.533V245.5h-.963v-.617h2.577v.617h-.96v3.033z"/><path d="M381.202 216.086c-4.558 0-8.266-3.708-8.266-8.266s3.708-8.266 8.266-8.266 8.267 3.708 8.267 8.266-3.709 8.266-8.267 8.266zm0-15.235c-3.843 0-6.969 3.126-6.969 6.969s3.126 6.969 6.969 6.969c3.844 0 6.97-3.126 6.97-6.969s-3.126-6.969-6.97-6.969z" fill="#131313"/><path d="M381.202 215.437c-4.2 0-7.617-3.417-7.617-7.617s3.417-7.617 7.617-7.617c4.201 0 7.618 3.417 7.618 7.617s-3.417 7.617-7.618 7.617zm0-12.641c-2.77 0-5.023 2.254-5.023 5.024s2.254 5.024 5.023 5.024c2.771 0 5.024-2.254 5.024-5.024s-2.253-5.024-5.024-5.024z" fill="#707070"/><path d="M387.523 207.82a6.32 6.32 0 1 1-12.641-.001 6.32 6.32 0 0 1 12.641.001z" fill="#212327"/><path fill="#fff" d="M379.151 205.768h4.104v4.104h-4.104z"/><path d="M374.644 246.169c-7.939 0-14.397-6.459-14.397-14.397 0-7.938 6.458-14.396 14.397-14.396 7.938 0 14.396 6.459 14.396 14.396.001 7.938-6.457 14.397-14.396 14.397zm0-27.498c-7.224 0-13.101 5.877-13.101 13.101s5.877 13.101 13.101 13.101 13.101-5.877 13.101-13.101-5.877-13.101-13.101-13.101z" fill="#131313"/><path d="M374.644 245.52c-7.582 0-13.749-6.168-13.749-13.749 0-7.58 6.167-13.749 13.749-13.749 7.581 0 13.749 6.169 13.749 13.749 0 7.581-6.167 13.749-13.749 13.749zm0-22.817c-5.001 0-9.068 4.068-9.068 9.068 0 5.001 4.067 9.068 9.068 9.068 5 0 9.068-4.067 9.068-9.068.001-5-4.068-9.068-9.068-9.068z" fill="#707070"/><path d="M386.053 231.771c0 6.301-5.107 11.409-11.408 11.409s-11.409-5.108-11.409-11.409 5.108-11.408 11.409-11.408 11.408 5.108 11.408 11.408z" fill="#212327"/><path fill="#fff" d="M367.365 234.472v-5.402l6.429 2.701zM375.469 229.07h2.863v5.402h-2.863zM379.06 229.07h2.863v5.402h-2.863z"/><path fill="#070707" d="M378.117 188.156v-2.762h.562v2.293h1.398v.469zM380.461 185.372h.562v2.784h-.562zM381.562 188.156v-2.784h1.909v.471h-1.347v.659h1.163v.47h-1.163v1.184zM384.561 188.156v-2.313h-.826v-.471h2.212v.471h-.824v2.313zM376.58 191.449c0-.284.043-.521.128-.714.063-.143.149-.27.259-.382.109-.113.229-.196.36-.251.173-.073.373-.11.6-.11.41 0 .738.127.985.382.246.255.369.608.369 1.062 0 .45-.122.802-.366 1.056-.245.254-.571.381-.98.381-.414 0-.743-.126-.987-.38-.246-.253-.368-.601-.368-1.044zm.58-.019c0 .315.072.555.218.717a.709.709 0 0 0 .555.244c.225 0 .408-.08.552-.241.144-.162.216-.404.216-.727 0-.319-.07-.558-.21-.715-.14-.156-.326-.235-.558-.235s-.418.08-.561.238c-.142.159-.212.398-.212.719zM379.72 192.824v-2.784h.902c.342 0 .564.014.669.042a.731.731 0 0 1 .4.271.872.872 0 0 1 .161.543c0 .171-.03.314-.093.431a.78.78 0 0 1-.528.407 3.274 3.274 0 0 1-.583.039h-.366v1.051h-.562zm.562-2.313v.79h.308c.222 0 .37-.015.444-.044l.176-.137.063-.216c0-.102-.029-.186-.089-.251s-.135-.107-.227-.123a2.598 2.598 0 0 0-.404-.02h-.271zM382.314 192.824v-2.784h2.065v.471h-1.502v.617h1.397v.469h-1.397v.758h1.555v.469zM384.914 192.824v-2.784h.548l1.139 1.859v-1.859h.522v2.784h-.563l-1.124-1.815v1.815z"/><path d="M264.296 257.908c-41.158 0-78.423-22.63-97.442-59.109h-29.398v-2.594h31.491v.997c18.506 35.854 55.012 58.113 95.349 58.113 40.338 0 76.844-22.259 95.35-58.113v-.982l1.297-.015h30.194v2.594h-29.398c-19.019 36.479-56.285 59.109-97.443 59.109z"/><ellipse transform="rotate(-45.001 264.296 147.966)" cx="264.296" cy="147.962" rx="108.533" ry="108.534" fill="#242729"/><ellipse transform="rotate(-45.001 264.296 147.966)" cx="264.296" cy="147.962" rx="103.107" ry="103.107" fill="#141618"/><path d="M362.643 116.905a103.068 103.068 0 0 1 4.76 31.058c0 10.822-1.667 21.255-4.759 31.055H165.948v-.001c-3.092-9.8-4.759-20.232-4.759-31.054 0-10.823 1.667-21.256 4.759-31.057l.002.001h196.693" fill="#0f0f0f"/><path fill="#fff" d="M363.886 243.707v4.924h-1.816v-2.257l-4.537 2.052v-2.052l-4.537 2.052v-4.514l4.537 2.052v-2.052l4.537 2.052v-2.257zM340.278 243.707v2.257l4.537-2.052v2.052l4.538-2.052v4.514l-4.538-2.052v2.052l-4.537-2.052v2.257h-1.814v-4.924z"/><path d="M367.409 260.552H334.94a5.49 5.49 0 0 1-5.483-5.483 5.49 5.49 0 0 1 5.483-5.483h32.469a5.489 5.489 0 0 1 5.482 5.483 5.488 5.488 0 0 1-5.482 5.483zm-32.469-9.671a4.192 4.192 0 0 0-4.187 4.188 4.191 4.191 0 0 0 4.187 4.187h32.469a4.191 4.191 0 0 0 4.187-4.187 4.192 4.192 0 0 0-4.187-4.188H334.94z" fill="#131313"/><path d="M367.57 259.903h-32.846a4.66 4.66 0 0 1-4.646-4.646v-.378a4.66 4.66 0 0 1 4.646-4.646h32.846a4.66 4.66 0 0 1 4.646 4.646v.378a4.659 4.659 0 0 1-4.646 4.646z" fill="#707070"/><path d="M367.139 257.148H335.21a2.004 2.004 0 0 1-1.998-1.999v-.162c0-1.1.899-1.999 1.998-1.999h31.929c1.1 0 1.999.899 1.999 1.999v.162c0 1.1-.9 1.999-1.999 1.999z" fill="#212327"/><path fill="#d3d8ca" d="M334.778 254.541h32.955v1.054h-32.955z"/><path fill="#242729" d="M350.445 251.719h1.351v6.699h-1.351z"/><path d="M199.358 263.195h-13.869a4.827 4.827 0 0 1-4.822-4.821 4.828 4.828 0 0 1 4.822-4.822h7.998a6.59 6.59 0 0 1 5.871-3.589 6.6 6.6 0 0 1 6.592 6.592c0 3.416-2.612 6.234-5.944 6.561v.032l-.648.047zm-13.869-8.347a3.529 3.529 0 0 0-3.525 3.525 3.528 3.528 0 0 0 3.525 3.524h13.221l.648-.048a5.302 5.302 0 0 0 5.296-5.296 5.296 5.296 0 1 0-10.161-2.098l-.542-.233v.625h-8.462z" fill="#131313"/><path d="M199.358 262.547h-14.032a4.022 4.022 0 0 1-4.01-4.01v-.326a4.023 4.023 0 0 1 4.01-4.011h14.032v8.347z" fill="#707070"/><path d="M188.388 258.495a2.432 2.432 0 1 1-4.864 0 2.432 2.432 0 0 1 4.864 0z" fill="#43544a"/><path d="M205.302 256.555a5.944 5.944 0 1 1-5.944-5.944 5.942 5.942 0 0 1 5.944 5.944z" fill="#707070"/><path d="M203.904 256.555a4.546 4.546 0 1 1-9.092 0 4.546 4.546 0 0 1 9.092 0z" fill="#212327"/><path d="M214.595 170.062a57.848 57.848 0 0 1-4.322-22.014 57.857 57.857 0 0 1 4.31-21.985v.03h-40.358l-.125-.03a93.022 93.022 0 0 0-2.599 21.9c0 7.626.92 15.037 2.655 22.129l.007-.003h40.432v-.027zM313.998 169.948a57.853 57.853 0 0 0 4.322-22.015 57.838 57.838 0 0 0-4.311-21.985v.03h40.358l.125-.03a93.028 93.028 0 0 1 2.599 21.9c0 7.626-.92 15.038-2.654 22.128l-.007-.002h-40.432v-.026z" fill="#27292b"/></svg>