<svg xmlns="http://www.w3.org/2000/svg" viewBox="288.456 315.765 104.8 216.439"><linearGradient id="a" gradientUnits="userSpaceOnUse" x1="340.856" y1="476.385" x2="340.856" y2="374.017" gradientTransform="rotate(90 340.856 423.984)"><stop offset="0" stop-color="#232323"/><stop offset=".827" stop-color="#232323"/><stop offset=".865" stop-color="#252525"/><stop offset=".879" stop-color="#2c2c2c"/><stop offset=".889" stop-color="#373737"/><stop offset=".89" stop-color="#393939"/><stop offset=".9" stop-color="#2b2b2b"/><stop offset=".916" stop-color="#202020"/><stop offset=".938" stop-color="#191919"/><stop offset="1" stop-color="#171717"/></linearGradient><path d="M288.456 424.089v-103.29c0-2.769 2.266-5.034 5.034-5.034h83.068c2.769 0 5.328 2.853 5.328 5.622l8.936 102.703v-.21l-8.936 102.703c0 2.769-2.559 5.622-5.328 5.622H293.49c-2.769 0-5.034-2.266-5.034-5.034v-103.29" fill="url(#a)"/><radialGradient id="b" cx="340.709" cy="402.965" r="32.329" gradientTransform="rotate(90 340.856 423.984)" gradientUnits="userSpaceOnUse"><stop offset="0" stop-color="#484848"/><stop offset="1" stop-color="#313130"/></radialGradient><path d="M361.875 390.274c-17.159 0-31.046 15.019-31.046 33.563s13.887 33.563 31.046 33.563h28.109c1.594 0 2.937-1.343 2.937-2.937v-61.252c0-1.594-1.343-2.937-2.937-2.937h-28.109z" fill="url(#b)"/><path d="M365.357 398.875v2.307h-.755v-.713h-8.181v-.797h8.181v-.797h.755zM364.015 444.395c.168 1.049-.084 2.14-.713 2.979a3.808 3.808 0 0 1-1.804 1.343c-.839.294-1.762.336-2.601.042-.755-.252-1.384-.713-1.888-1.343a4.092 4.092 0 0 1-.797-2.391c0-1.301.671-2.559 1.72-3.23 1.091-.713 2.517-.881 3.734-.336 1.216.46 2.139 1.635 2.349 2.936zm-2.224-2.014h-.461v.42h-2.475v-.42h-.461v1.301h.461v-.42h2.937l-.001-.881zm-.294 1.72h-2.769c-.126.084-.21.21-.294.294v2.937c.126.126.252.336.42.294h1.175c.126-.042.168-.168.252-.252v-2.853h1.049v2.685h-.42v.42h.587l.252-.252v-2.979c-.042-.084-.126-.168-.252-.294zM363.847 402.777v.755h-6.671v.839h6.671v.755h-6.377c-.168 0-.294 0-.461-.042-.336-.084-.587-.378-.587-.713v-.923c0-.42.378-.755.797-.713 2.181.042 4.404.042 6.628.042zM363.847 407.098v1.594c0 .378-.294.755-.671.797h-2.433c-.336 0-.713-.252-.797-.587l-3.524.755v-.713c1.175-.252 2.307-.545 3.482-.797v-.252h-3.482v-.713c2.474-.084 4.95-.084 7.425-.084zm-.755.755h-2.433v.839h2.433v-.839zM363.847 411.545v1.678a.76.76 0 0 1-.629.713h-2.349c-.21 0-.378-.168-.545-.294-.126.168-.294.294-.503.294-.336.042-.629 0-.965 0h-1.468c-.21 0-.42.042-.629-.084a.693.693 0 0 1-.378-.629v-1.678h7.466zm-.755.797h-2.433v.839h2.433v-.839zm-3.189 0h-2.769v.839h2.769v-.839zM363.805 416.37c.084.21.042.461.042.713 0 .252.042.545-.084.755-.126.252-.378.42-.629.42h-5.706c-.168 0-.336 0-.503-.042-.252-.126-.461-.336-.503-.629v-.755c0-.168 0-.294.042-.42.126-.294.42-.545.713-.545h5.706c.168 0 .294 0 .461.042a.829.829 0 0 1 .461.461zm-.713.293h-5.915v.797h5.915v-.797z" fill="#4e4e4e"/><path d="M359.903 444.563v2.643h-1.007v-2.643h1.007zM364.518 420.439c.378 0 .755.294.797.671v.923c.042.42-.378.839-.797.839h-1.301v-.797h1.343v-.881h-7.384v.923h3.566v-.378h.713v1.175h-5.034v-1.636c0-.294.21-.629.503-.755.168-.042.336-.042.503-.042 2.35-.042 4.742-.042 7.091-.042zM363.847 424.886v1.552c0 .336-.168.629-.461.755-.126.042-.252.042-.336.042h-2.349c-.336 0-.671-.252-.713-.587l-3.524.755v-.713c1.175-.252 2.307-.545 3.482-.797v-.252h-3.482v-.713c2.432-.042 4.908-.042 7.383-.042zm-.713.755h-2.391v.839h2.391v-.839zM363.176 429.249c.336 0 .671.294.671.629v1.007c0 .168-.042.336-.168.503s-.336.252-.545.252h-6.713v-.713h3.524v-.881h-3.524v-.713c2.265-.084 4.489-.084 6.755-.084zm-.084.756h-2.391v.839h2.391v-.839zM363.217 433.445c.336 0 .629.294.629.629v1.259h-.671v-1.091H360.7v.923h-.713v-.923h-3.524v-.755c2.223-.042 4.489-.042 6.754-.042zM363.847 437.137v.755h-2.056c-.21.126-.42.294-.629.42.21.126.42.294.629.42h2.056v.797h-1.468c-.21 0-.461.042-.671-.042-.461-.168-.881-.42-1.301-.671-.462.294-.965.629-1.468.755h-2.475v-.713h2.475c.252-.126.461-.294.713-.461-.21-.168-.461-.294-.671-.462h-2.517v-.755h2.307c.21 0 .42.084.587.168.378.168.713.378 1.049.629.461-.294.923-.629 1.468-.797.629-.043 1.301-.043 1.972-.043z" fill="#4e4e4e"/><path d="M302.51 346.139c0-10.656 8.684-19.341 19.383-19.341s19.341 8.684 19.341 19.341-8.684 19.341-19.341 19.341-19.383-8.643-19.383-19.341zm37.885 0c0-10.195-8.307-18.502-18.502-18.502s-18.544 8.307-18.544 18.502 8.307 18.502 18.544 18.502c10.195.042 18.502-8.265 18.502-18.502z" fill="#1a1a1a"/><circle cx="321.893" cy="346.139" r="18.963" fill="#404040"/><path d="M327.892 362.837V352.18h10.698a.842.842 0 0 0 .839-.839v-10.405a.842.842 0 0 0-.839-.839h-10.698v-10.656a.842.842 0 0 0-.839-.839H316.69a.842.842 0 0 0-.839.839v10.698h-10.698a.841.841 0 0 0-.839.839v10.363c0 .461.378.839.839.839h10.698v10.698c0 .461.378.839.839.839h10.363c.462-.041.839-.419.839-.88" fill="#4c4c4c"/><circle cx="321.851" cy="346.139" r="4.405" fill="#595959"/><path d="M330.326 423.879c0-18.753 14.096-33.983 31.465-33.983H389.9a3.366 3.366 0 0 1 3.356 3.356v61.294a3.366 3.366 0 0 1-3.356 3.356h-28.109c-17.369-.04-31.465-15.311-31.465-34.023zm62.091-30.668a2.525 2.525 0 0 0-2.517-2.517h-28.109c-16.907 0-30.626 14.894-30.626 33.143 0 18.292 13.719 33.143 30.626 33.143H389.9a2.525 2.525 0 0 0 2.517-2.517v-61.252z" fill="#1a1a1a"/><path d="M322.648 423.879c0 22.739 18.46 41.199 41.199 41.199 2.769 0 5.076 1.972 5.076 4.405v40.695c0 2.433-2.266 4.405-5.076 4.405h-40.443a16.472 16.472 0 0 1-10.363 3.65c-8.978 0-16.236-7.09-16.236-15.859v-78.453.21-65.112c.126-.252.168-1.552 1.72-1.846 1.72-.378 2.266-1.804 5.118 1.175 3.986 5.915 10.782 9.817 18.46 9.733 11.999-.168 21.732-10.153 21.606-22.152-.042-4.111-1.217-7.971-3.272-11.244-.336-.545.084-1.259.713-1.259h22.613c2.853-.042 5.16 1.93 5.16 4.363v40.695c0 2.433-2.266 4.405-5.076 4.405-22.739 0-41.199 18.46-41.199 41.199" fill="#434342"/><path fill="#ecf332" d="M327.557 501.704h8.349v.881h-8.349zM327.557 477.79h8.349v.881h-8.349zM327.557 475.273h8.349v.881h-8.349z"/><circle cx="358.099" cy="485.803" r="1.384" fill="#fd5a17"/><circle cx="358.099" cy="489.579" r="1.384" fill="#fd5a17"/><circle cx="358.099" cy="493.355" r="1.384" fill="#fd5a17"/><circle cx="352.645" cy="485.803" r=".881" fill="#fd5a17"/><circle cx="352.645" cy="489.579" r=".881" fill="#fd5a17"/><circle cx="352.645" cy="493.355" r=".881" fill="#fd5a17"/><circle cx="348.03" cy="485.803" r=".42" fill="#fd5a17"/><circle cx="348.03" cy="489.579" r=".42" fill="#fd5a17"/><circle cx="348.03" cy="493.355" r=".42" fill="#fd5a17"/><g><path d="M302.888 476.951c0-5.454 4.447-9.901 9.943-9.901s9.943 4.447 9.943 9.901-4.447 9.943-9.943 9.943-9.943-4.489-9.943-9.943zm19.005 0c0-4.992-4.07-9.062-9.104-9.062s-9.104 4.07-9.104 9.062 4.069 9.104 9.104 9.104 9.104-4.112 9.104-9.104z" fill="#1a1a1a"/><circle cx="312.789" cy="476.951" r="9.482" fill="#2c2c2e"/><path d="M304.314 476.951c0-4.699 3.776-8.475 8.475-8.475s8.517 3.818 8.517 8.517-3.818 8.517-8.517 8.517-8.475-3.86-8.475-8.559zm16.153 0c0-4.237-3.44-7.678-7.678-7.678s-7.678 3.44-7.678 7.678 3.44 7.678 7.678 7.678 7.678-3.441 7.678-7.678z" fill="#1a1a1a"/><circle cx="312.789" cy="476.951" r="8.097" fill="#41413b"/></g><g><path d="M302.888 502.165c0-5.454 4.447-9.901 9.943-9.901s9.943 4.447 9.943 9.901-4.447 9.943-9.943 9.943-9.943-4.489-9.943-9.943zm19.005 0c0-4.992-4.07-9.062-9.104-9.062s-9.104 4.07-9.104 9.062 4.069 9.104 9.104 9.104 9.104-4.111 9.104-9.104z" fill="#1a1a1a"/><circle cx="312.789" cy="502.165" r="9.482" fill="#2c2c2e"/><path d="M304.314 502.165c0-4.699 3.818-8.517 8.517-8.517s8.517 3.818 8.517 8.517-3.818 8.517-8.517 8.517-8.517-3.86-8.517-8.517zm16.153 0c0-4.237-3.44-7.678-7.678-7.678s-7.678 3.44-7.678 7.678c0 4.237 3.44 7.678 7.678 7.678s7.678-3.483 7.678-7.678z" fill="#1a1a1a"/><circle cx="312.789" cy="502.165" r="8.097" fill="#41413b"/></g><g><path d="M306.874 441.29v-10.195a4.96 4.96 0 0 1 4.951-4.951 4.96 4.96 0 0 1 4.951 4.951v10.195a4.96 4.96 0 0 1-4.951 4.951 4.96 4.96 0 0 1-4.951-4.951zm9.02-10.195c0-2.266-1.846-4.111-4.111-4.111s-4.111 1.846-4.111 4.111v10.195c0 2.266 1.846 4.111 4.111 4.111s4.111-1.846 4.111-4.111v-10.195z" fill="#1a1a1a"/><path d="M307.293 441.29v-10.195a4.494 4.494 0 0 1 4.489-4.489 4.494 4.494 0 0 1 4.489 4.489v10.195a4.494 4.494 0 0 1-4.489 4.489c-2.475.042-4.489-2.014-4.489-4.489z" fill="#2c2c2e"/><path d="M308.174 441.248v-10.111c0-2.014 1.636-3.608 3.608-3.608s3.608 1.636 3.608 3.608v10.111c0 2.014-1.636 3.608-3.608 3.608s-3.608-1.594-3.608-3.608zm6.419-10.111a2.767 2.767 0 0 0-2.769-2.769c-1.51 0-2.769 1.259-2.769 2.769v10.111a2.767 2.767 0 0 0 2.769 2.769c1.51 0 2.769-1.259 2.769-2.769v-10.111z" fill="#1a1a1a"/><path d="M308.594 441.248v-10.111a3.187 3.187 0 0 1 3.189-3.189 3.187 3.187 0 0 1 3.188 3.189v10.111a3.186 3.186 0 0 1-3.188 3.188 3.186 3.186 0 0 1-3.189-3.188z" fill="#33322d"/></g><g><path d="M306.874 416.621v-10.195a4.96 4.96 0 0 1 4.951-4.951 4.96 4.96 0 0 1 4.951 4.951v10.195a4.96 4.96 0 0 1-4.951 4.951 4.96 4.96 0 0 1-4.951-4.951zm9.02-10.194c0-2.266-1.846-4.111-4.111-4.111s-4.111 1.846-4.111 4.111v10.195c0 2.265 1.846 4.111 4.111 4.111s4.111-1.846 4.111-4.111v-10.195z" fill="#1a1a1a"/><path d="M307.293 416.621v-10.195a4.494 4.494 0 0 1 4.489-4.489 4.494 4.494 0 0 1 4.489 4.489v10.195a4.494 4.494 0 0 1-4.489 4.489c-2.475.042-4.489-1.971-4.489-4.489z" fill="#2c2c2e"/><path d="M308.174 416.579v-10.111c0-2.014 1.636-3.608 3.608-3.608s3.608 1.636 3.608 3.608v10.111c0 2.014-1.636 3.608-3.608 3.608s-3.608-1.594-3.608-3.608zm6.419-10.11a2.767 2.767 0 0 0-2.769-2.769c-1.51 0-2.769 1.259-2.769 2.769v10.111a2.767 2.767 0 0 0 2.769 2.769c1.51 0 2.769-1.259 2.769-2.769v-10.111z" fill="#1a1a1a"/><path d="M308.594 416.579v-10.111a3.187 3.187 0 0 1 3.189-3.188 3.186 3.186 0 0 1 3.188 3.188v10.111a3.186 3.186 0 0 1-3.188 3.188c-1.763.043-3.189-1.426-3.189-3.188z" fill="#33322d"/></g><g fill="#ecf332"><path d="M303.601 406.888h1.133v-.671h-1.846V406.679c0 .21 0 .336-.042.42a.231.231 0 0 1-.126.21c-.042.084-.126.126-.168.126-.042 0-.168.042-.336.042h-1.804c-.252 0-.42-.084-.503-.21-.084-.126-.168-.42-.168-.755s.042-.587.168-.755c.084-.168.252-.21.503-.21H301.587v.671h-1.384v.671h2.266v-.504c0-.21 0-.336.042-.42 0-.084.042-.168.084-.252.042-.084.126-.126.168-.126.084 0 .168-.042.336-.042h1.385c.252 0 .42.084.503.21.084.126.168.42.168.755 0 .21 0 .336-.042.461-.042.126-.084.21-.126.294-.042.084-.126.126-.168.168-.042.042-.168.042-.294.042h-.881v-.587h-.043zM300.539 409.909h-.168c-.21 0-.378-.084-.461-.21-.084-.126-.126-.378-.126-.713s.042-.587.126-.713c.084-.126.252-.21.503-.21h2.56c.21 0 .378.084.461.21.084.126.126.378.126.713s-.042.587-.126.713c-.084.126-.252.21-.503.21H301.63v-1.217h-1.384v.629h.881v.629h-.587v-.041zm1.468-1.217v.629h1.133v-.629h-1.133zM305.112 411.125h-5.328v-.629h5.328v.629zM300.539 413.517h-.168c-.21 0-.378-.084-.461-.21-.084-.126-.126-.378-.126-.713s.042-.587.126-.713c.084-.126.252-.21.503-.21h2.56c.21 0 .378.084.461.21.084.126.126.378.126.713s-.042.587-.126.713c-.084.126-.252.21-.503.21H301.63V412.3h-1.384v.629h.881v.629h-.587v-.041zm1.468-1.217v.629h1.133v-.629h-1.133zM302.468 415.279h.671v-.629h-2.937v.629h.881v.629H300.37c-.21 0-.378-.084-.462-.21-.084-.126-.126-.378-.126-.713s.042-.587.126-.713c.084-.126.252-.21.503-.21h2.56c.126 0 .252 0 .294.042a.328.328 0 0 1 .168.168c.084.168.126.42.126.713 0 .336-.042.587-.126.713s-.252.21-.461.21h-.504v-.629zM303.098 417.167h-2.853v.587h-.42V417.292c0-.294.042-.503.168-.587.084-.126.294-.168.545-.168H303.097v-.503h.42v.503h1.007v.629h-1.007v.587h-.42v-.586z"/></g><g fill="#ecf332"><path d="M305.112 433.571v.378c0 .084 0 .21-.042.252-.042.042-.042.126-.042.168s-.042.084-.084.126c-.042.042-.084.084-.084.126-.042.042-.084.042-.126.084-.042 0-.126.042-.168.042h-1.385c-.126 0-.252-.042-.294-.084-.084-.042-.126-.168-.168-.336-.042.168-.126.252-.168.336-.084.042-.168.084-.294.084h-2.391v-.671h2.643v-.671h-2.643v-.671h5.328v.839h-.082zm-2.224-.084v.671h1.846v-.671h-1.846zM299.993 436.591c-.126-.21-.21-.42-.21-.671 0-.378.168-.545.461-.545h3.273v.629h-3.314v.629h3.314v.629h-3.692v-.671h.168zM303.349 438.395c.126.21.21.42.21.671 0 .378-.168.545-.461.545h-3.273v-.629h3.314v-.629h-3.314v-.629h3.692v.629h-.168v.042z"/></g><g><path d="M358.603 481.776h-10.195c-2.727 0-4.951-2.224-4.951-4.951s2.224-4.951 4.951-4.951h10.195c2.727 0 4.951 2.224 4.951 4.951s-2.224 4.951-4.951 4.951zm-10.195-9.021a4.117 4.117 0 0 0-4.111 4.111 4.117 4.117 0 0 0 4.111 4.111h10.195a4.117 4.117 0 0 0 4.111-4.111 4.118 4.118 0 0 0-4.111-4.111h-10.195z" fill="#1a1a1a"/><path d="M358.603 481.356h-10.195c-2.475 0-4.489-2.014-4.489-4.531a4.494 4.494 0 0 1 4.489-4.489h10.195a4.494 4.494 0 0 1 4.489 4.489c.042 2.517-1.972 4.531-4.489 4.531z" fill="#2c2c2e"/><path d="M358.561 480.475H348.45a3.608 3.608 0 1 1 0-7.216h10.111a3.608 3.608 0 0 1 3.608 3.608c.042 1.972-1.595 3.608-3.608 3.608zm-10.111-6.419a2.767 2.767 0 0 0-2.769 2.769 2.767 2.767 0 0 0 2.769 2.769h10.111a2.767 2.767 0 0 0 2.769-2.769 2.767 2.767 0 0 0-2.769-2.769H348.45z" fill="#1a1a1a"/><path d="M358.561 480.055H348.45a3.187 3.187 0 0 1-3.189-3.189 3.187 3.187 0 0 1 3.189-3.188h10.111a3.186 3.186 0 0 1 3.188 3.188c.042 1.763-1.426 3.189-3.188 3.189z" fill="#30302b"/><path d="M345.639 476.867c0-1.552 1.259-2.853 2.853-2.853s2.853 1.259 2.853 2.853-1.259 2.853-2.853 2.853-2.853-1.301-2.853-2.853zm4.825 0a2.014 2.014 0 0 0-2.014-2.014 1.988 1.988 0 0 0-2.014 2.014c0 1.133.881 2.014 2.014 2.014a2.014 2.014 0 0 0 2.014-2.014z" fill="#242420"/><circle cx="348.492" cy="476.867" r="2.433" fill="#444440"/></g><g><path d="M357.763 507.158h-10.195c-2.727 0-4.951-2.224-4.951-4.951s2.224-4.951 4.951-4.951h10.195c2.727 0 4.951 2.224 4.951 4.951s-2.224 4.951-4.951 4.951zm-10.194-9.021c-2.266 0-4.111 1.846-4.111 4.111s1.846 4.111 4.111 4.111h10.195c2.266 0 4.111-1.846 4.111-4.111s-1.846-4.111-4.111-4.111h-10.195z" fill="#1a1a1a"/><path d="M357.763 506.738h-10.195a4.494 4.494 0 0 1-4.489-4.489c0-2.475 2.014-4.531 4.489-4.531h10.195c2.475 0 4.489 2.014 4.489 4.531.042 2.433-1.971 4.489-4.489 4.489z" fill="#2c2c2e"/><path d="M357.722 505.857h-10.111a3.608 3.608 0 1 1 0-7.216h10.111a3.608 3.608 0 0 1 3.608 3.608c.042 1.972-1.595 3.608-3.608 3.608zm-10.111-6.419a2.767 2.767 0 0 0-2.769 2.769 2.767 2.767 0 0 0 2.769 2.769h10.111a2.767 2.767 0 0 0 2.769-2.769 2.767 2.767 0 0 0-2.769-2.769h-10.111z" fill="#1a1a1a"/><path d="M357.722 505.437h-10.111a3.187 3.187 0 0 1-3.188-3.189 3.186 3.186 0 0 1 3.188-3.188h10.111a3.186 3.186 0 0 1 3.188 3.188c.042 1.721-1.426 3.189-3.188 3.189z" fill="#30302b"/><path d="M349.834 502.207a2.856 2.856 0 0 1 2.853-2.853c1.594 0 2.853 1.259 2.853 2.853s-1.259 2.853-2.853 2.853a2.856 2.856 0 0 1-2.853-2.853zm4.825 0a2.014 2.014 0 0 0-2.014-2.014 1.988 1.988 0 0 0-2.014 2.014c0 1.133.881 2.014 2.014 2.014a2.014 2.014 0 0 0 2.014-2.014z" fill="#242420"/><circle cx="352.687" cy="502.207" r="2.433" fill="#444440"/></g><g><path d="M363.637 338.378v-1.217h-10.279v-1.217h10.279v-1.217h.881v3.608h-.881v.043z" fill="#fd5a17"/><g fill="#fd5a17"><path d="M354.533 342.07h-.252c-.378 0-.629-.126-.797-.42-.168-.252-.21-.755-.21-1.426 0-.629.084-1.091.252-1.384.168-.252.42-.42.755-.42H361.455v1.217h-7.552v1.217h7.552v1.217h-6.922zM361.455 344.545v.713c0 .21 0 .336-.042.503a.791.791 0 0 1-.084.336l-.126.252c-.042.084-.084.168-.168.252a.231.231 0 0 1-.21.126c-.084.042-.168.042-.294.084h-2.098a.667.667 0 0 1-.461-.168c-.084-.084-.168-.294-.252-.587-.084.294-.168.503-.252.587-.084.126-.252.168-.461.168h-3.692v-1.217h4.07v-1.217h-4.07v-1.217h8.139v1.385zm-3.398-.126v1.217h2.811v-1.217h-2.811zM361.455 349.328v.713c0 .21 0 .336-.042.503a.791.791 0 0 1-.084.336l-.126.252c-.042.084-.084.168-.168.252a.231.231 0 0 1-.21.126c-.084.042-.168.042-.294.084h-2.098a.667.667 0 0 1-.461-.168c-.084-.084-.168-.294-.252-.587-.084.294-.168.503-.252.587-.084.126-.252.168-.461.168h-2.854c-.126 0-.21-.042-.294-.084-.084-.042-.126-.084-.21-.168-.084-.084-.084-.168-.168-.294a.597.597 0 0 1-.084-.252c0-.126 0-.21-.042-.336 0-.126 0-.294-.042-.461v-2.013h8.139v1.342zm-3.398-.168v1.217h2.811v-1.217h-2.811zm-4.069 0v1.217h3.44v-1.217h-3.44zM354.533 356.292h-.252c-.378 0-.671-.126-.797-.378s-.21-.713-.21-1.426c0-.629.084-1.091.252-1.384.168-.252.42-.42.755-.42h6c.294 0 .461 0 .629.042a.653.653 0 0 1 .336.252c.126.168.21.336.252.587.042.252.084.545.084.965 0 .629-.084 1.091-.252 1.384s-.42.42-.755.42h-6.042v-.042zm6.335-2.391h-6.922v1.217h6.922v-1.217z"/></g><path d="M364.518 358.683v.713c0 .21-.042.336-.042.503-.042.126-.042.252-.084.336-.042.084-.084.168-.168.252-.084.084-.126.168-.21.252-.084.084-.168.126-.252.126-.126.042-.252.042-.378.084H360.112a.842.842 0 0 1-.378-.084c-.126-.042-.21-.084-.252-.168-.084-.084-.126-.168-.21-.294l-.126-.252c-.042-.084-.042-.21-.084-.336 0-.126-.042-.294-.042-.461v-.797h-5.58v-1.217h11.076v1.343zm-4.741-.126v1.217h3.818v-1.217h-3.818z" fill="#ecf332"/><g fill="#ecf332"><path d="M353.358 364.347h4.237v-1.217h-4.237v-1.217h7.468c.378 0 .671.126.839.42.168.252.252.755.252 1.468 0 .671-.084 1.133-.252 1.384-.168.294-.42.42-.797.42H353.4v-1.259h-.042zm7.846 0v-1.217h-2.937v1.217h2.937zM361.833 368.123v.713c0 .21 0 .378-.042.503s-.042.252-.084.336l-.126.252c-.042.084-.084.168-.168.252a.231.231 0 0 1-.21.126c-.084.042-.168.042-.294.084h-6.672c-.126 0-.21-.042-.294-.084-.084-.042-.168-.084-.21-.168-.042-.084-.126-.168-.168-.294l-.126-.252c-.042-.084-.042-.21-.084-.336 0-.126 0-.294-.042-.461V366.739h8.517v1.384zm-7.803-.168v1.217h7.132v-1.217h-7.132z"/></g></g></svg>