<svg xmlns="http://www.w3.org/2000/svg" viewBox="0 0 474.451 193.138"><radialGradient id="a" cx="96.569" cy="96.569" r="93.742" gradientUnits="userSpaceOnUse"><stop offset="0" stop-color="#30241a"/><stop offset="1" stop-color="#604832"/></radialGradient><path d="M190.311 96.569c0 51.772-41.97 93.742-93.742 93.742S2.827 148.341 2.827 96.569 44.797 2.827 96.569 2.827s93.742 41.97 93.742 93.742zm-77.645-34.136a37.518 37.518 0 0 0-16.097-3.607c-20.812 0-37.743 16.931-37.743 37.743s16.931 37.743 37.743 37.743 37.744-16.931 37.744-37.743c0-15.058-8.863-28.084-21.647-34.136" fill="url(#a)"/><path d="M96.569 193.138C43.32 193.138 0 149.817 0 96.569S43.32 0 96.569 0s96.57 43.32 96.57 96.569-43.321 96.569-96.57 96.569zm0-192.973C43.412.165.165 43.412.165 96.569c0 53.158 43.247 96.404 96.404 96.404 53.158 0 96.405-43.246 96.405-96.404 0-53.157-43.248-96.404-96.405-96.404z" fill="#0f1417"/><path d="M96.57 113.301c-9.226 0-16.733-7.507-16.733-16.733s7.507-16.732 16.733-16.732 16.732 7.506 16.732 16.732-7.506 16.733-16.732 16.733zm0-32.325c-8.598 0-15.593 6.995-15.593 15.592 0 8.598 6.995 15.593 15.593 15.593 8.597 0 15.592-6.995 15.592-15.593 0-8.597-6.995-15.592-15.592-15.592z" fill="#a198a0"/><path d="M96.57 110.069c-7.445 0-13.5-6.056-13.5-13.5s6.056-13.5 13.5-13.5c7.443 0 13.499 6.056 13.499 13.5s-6.056 13.5-13.499 13.5zm0-25.86c-6.815 0-12.36 5.545-12.36 12.36 0 6.815 5.545 12.36 12.36 12.36 6.814 0 12.359-5.545 12.359-12.36 0-6.815-5.545-12.36-12.359-12.36z" fill="#a198a0"/><path d="M2.795 96.569c0 51.772 41.97 93.742 93.742 93.742s93.742-41.97 93.742-93.742l.255-.375h-56.221c0 20.812-16.356 37.743-37.168 37.743-20.812 0-37.743-16.931-37.743-37.743H2.605" fill="#1e1c1a"/><path d="M84.798 142.182c-.035-.826.629-1.613 1.441-1.738.663-.025 1.327.001 1.99-.011.956-.101 1.849.801 1.799 1.747-.001.948-.004 1.897.001 2.844-.569.005-1.137.002-1.707.003-.003-.964.005-1.927-.005-2.891-.634.006-1.267.005-1.901.001-.008 5.35-.001 10.701-.004 16.051.653-.003 1.306.005 1.959-.005-.01-2.59-.002-5.179-.005-7.769h-.864v-1.546c.839-.002 1.679.004 2.52-.003.005 3.632.009 7.263-.003 10.894-1.172-.007-2.344-.001-3.516-.002-.682.002-1.358-.432-1.61-1.07-.135-.334-.089-.699-.095-1.049.001-5.152.003-10.304 0-15.456zM94.436 143.686c1.114.001 2.229-.005 3.342.003.686-.008 1.388.366 1.681 1 .12.239.089.513.094.771-.005 1.697 0 3.393-.003 5.09-.037.719-.546 1.452-1.287 1.577.55 2.54 1.084 5.085 1.619 7.629l-1.558.001c-.578-2.518-1.162-5.033-1.741-7.549l-.555.004c-.002 2.523.003 5.046-.003 7.57-.53-.003-1.06.001-1.589-.003.003-5.365.001-10.729 0-16.093zm1.615 1.568v5.228c.621.001 1.242-.001 1.863.001.003-1.743.001-3.486.001-5.229h-1.864zM103.872 145.179c.004-.731.612-1.433 1.356-1.468.73-.01 1.46.001 2.19-.005.373-.006.76.089 1.053.33.338.273.516.712.515 1.143v14.577h-1.568c-.001-2.546.001-5.093-.001-7.639-.651.001-1.302.002-1.952-.001-.005 2.547.001 5.094-.004 7.64-.53-.002-1.059-.001-1.589-.001 0-4.858-.003-9.717 0-14.576zm1.636.166c.003 1.721-.005 3.442.004 5.164.62-.007 1.24-.003 1.86-.004-.001-1.72.002-3.441-.002-5.161-.621.002-1.241 0-1.862.001zM112.986 145.09c.005-.706.623-1.37 1.338-1.381.896-.004 1.79.001 2.686-.001v1.432c-.802-.002-1.604.004-2.405-.004-.01 1.798-.003 3.594-.004 5.392.658-.002 1.318-.001 1.977-.001 0 .53-.002 1.06.001 1.59-.659.002-1.318.001-1.978 0-.003 2.546 0 5.093-.001 7.639h-1.614V145.09zM121.01 143.708h1.682c.01 1.487-.021 2.975.015 4.461.286.476.618.925.917 1.395.293-.46.636-.89.899-1.368.025-1.494.005-2.991.009-4.485.562-.003 1.124-.004 1.686 0-.005 1.068-.001 2.137-.002 3.205-.006.496.047 1.009-.136 1.484-.373.994-.934 1.902-1.491 2.8.634 1.018 1.321 2.049 1.612 3.226.034 1.784.009 3.572.012 5.356-.522-.004-1.043-.001-1.565-.002-.005-1.793.011-3.586-.007-5.378-.264-.543-.661-1.017-.977-1.533-.326.498-.667.985-.995 1.481-.001 1.811.008 3.622-.004 5.434-.552-.008-1.103-.002-1.654-.004-.001-1.682.002-3.364-.001-5.046-.007-.456.211-.874.392-1.28.392-.787.85-1.541 1.34-2.271-.656-1.007-1.387-2.012-1.711-3.184-.048-1.429-.007-2.862-.021-4.291z" fill="#604832"/><g fill="#604832"><path d="M142.666 149.264h-2.615v5.029h2.615v-5.029z"/><path d="M146.196 154.501a8.597 8.597 0 0 0-.064-5.671 8.556 8.556 0 0 0-2.908-3.903c-1.825-1.38-4.222-1.959-6.477-1.585-2.84.431-5.371 2.424-6.479 5.072-1.122 2.597-.836 5.747.757 8.09 1.528 2.319 4.253 3.802 7.037 3.777 1.859.036 3.715-.591 5.196-1.71a8.51 8.51 0 0 0 2.938-4.07zm-13.173-6.406l3.404-.002c.209.209.395.382.606.593v1.382h-1.006a54.003 54.003 0 0 1 0-.805h-2.414v5.029h2.414a54.003 54.003 0 0 1 0-.805h1.006v1.382c-.211.211-.393.38-.602.591h-3.407l-.577-.567-.004-6.227.58-.571zm5.217 1.169v-1.171h5.013l.583.573v6.223l-.581.573h-5.028c-.002-.402.011-.766.013-1.169h.604v-5.029h-.604z"/></g><g><path d="M46.452 143.685c.552-.002 1.103.004 1.655-.004.011 4.82.001 9.641.005 14.461h1.864c.004-4.821-.007-9.641.005-14.462.56.01 1.119 0 1.679.007-.006 4.62-.002 9.24-.003 13.86-.006.333.029.674-.054 1-.158.702-.842 1.234-1.559 1.231-.666 0-1.334.003-2-.002-.871-.016-1.61-.825-1.588-1.689-.011-4.8-.002-9.601-.004-14.402zM55.862 143.685c1.147.006 2.297-.013 3.444.009.813.011 1.683.626 1.691 1.494.003 1.758.003 3.518 0 5.276-.006.761-.515 1.554-1.297 1.695.542 2.54 1.075 5.08 1.618 7.619-.52.002-1.04.001-1.56.001-.576-2.509-1.159-5.015-1.734-7.523l-.571-.002c-.001 2.509.001 5.017-.001 7.525h-1.59v-16.094zm1.659 1.593c.002 1.75 0 3.5.001 5.25.613.001 1.226-.003 1.839.003.005-1.751.001-3.502.002-5.254-.615.001-1.228-.001-1.842.001zM65.52 143.689c1.203-.003 2.406-.013 3.608.004.762-.002 1.481.629 1.508 1.403.005 1.698 0 3.396.002 5.095.005.472-.333.845-.664 1.139.32.266.63.613.66 1.049.049.692.017 1.387.026 2.08-.008 1.059.02 2.119-.023 3.179-.015.45.069.932-.155 1.347-.243.501-.801.79-1.345.795-1.204.003-2.407-.005-3.611.003-.01-5.366.005-10.73-.006-16.094zm1.663 1.588c0 1.75-.001 3.502.001 5.252.614-.002 1.227 0 1.84-.001.001-1.75-.002-3.5.002-5.249-.615-.004-1.229-.001-1.843-.002zm.001 6.931c-.005 1.993-.001 3.987-.002 5.98.614-.001 1.228.002 1.842-.001-.003-1.993 0-3.985-.001-5.977-.612-.001-1.226.001-1.839-.002zM75.994 143.775c.489-.141 1.005-.076 1.508-.09.554.011 1.152-.068 1.658.211.504.267.951.777.935 1.376-.002 4.125-.001 8.251 0 12.376-.006.359.042.74-.124 1.074-.256.536-.766.995-1.375 1.054-.546.013-1.091-.003-1.636.005-.319-.003-.651.029-.953-.095-.638-.251-1.164-.88-1.143-1.588.001-4.121.002-8.242 0-12.364.004-.332-.033-.682.106-.994a1.78 1.78 0 0 1 1.024-.965zm.622 1.524c-.001 4.265.001 8.531-.001 12.797.591.002 1.183.002 1.775 0-.002-4.266 0-8.531-.001-12.797h-1.773zM39.558 142.034h-1.562v-1.614h5.001v1.614h-1.563v17.73h-1.876z" fill="#604832"/></g><g><path d="M153.725 108.412l-5.929-6.471-2.694 2.806 1.293 1.076-1.544 7.788 3.099-1.239-1.599-1.35.887-4.119 6.245 6.559 2.156-8.943 2.183-1.204-2.639-1.463-1.458 6.56zm5.222-5.386c.186.192.421.438.367.7l-.729 3.498c-.057.274-.324.472-.532.609-.208.137-.465.173-.721.21.221.079.443.158.591.305.15.146.355.355.3.575l-.834 3.407c-.078.314-.43.511-.679.682-.25.171-.535.258-.82.346h9.976l.701-3.409c-.383.708-.768 1.415-1.421 1.869-.655.453-1.551.852-2.501.852h-1.827l.912-4.217a1.486 1.486 0 0 1 1.044.057c.339.149.64.438.912.752.269.314.508.653.697 1.011l.956-4.436c-.326.326-.69.621-1.081.886-.392.266-.811.502-1.203.62a1.973 1.973 0 0 1-1.098.027l.945-4.152 1.471-.013c.666-.005 1.331-.078 1.867.322.539.401.951 1.243 1.36 2.084l.728-3.039h-10.14c.284.128.57.261.759.454zm11.95 1.064a7.044 7.044 0 0 0-1.867 2.19 5.738 5.738 0 0 0-.686 2.584c-.01.835.192 1.595.565 2.292.374.697.918 1.331 1.59 1.758.674.429 1.474.654 2.208.756a7.387 7.387 0 0 0 1.932.018c.53-.069.92-.184 1.276-.365l2.104-3.985c-.545.234-1.099.446-1.674.662-.575.216-1.171.437-1.803.506-.632.068-1.3-.012-1.893-.333a3.207 3.207 0 0 1-1.38-1.513 2.88 2.88 0 0 1-.1-1.954c.188-.629.585-1.19 1.068-1.682a6.63 6.63 0 0 1 1.576-1.191 3.657 3.657 0 0 1 1.511-.446l1.59 2.086 1.829-.622-1.282-2.859a8.666 8.666 0 0 0-1.155.044c-.43.042-.927.114-1.443.235-.515.12-1.05.29-1.726.569-.676.28-1.495.67-2.24 1.25z" fill-rule="evenodd" clip-rule="evenodd" fill="#604832"/></g><g><g fill="#604832"><path d="M44.318 101.521a3.123 3.123 0 0 1-.009.2c-.024.213 0 .314-.615.314s-.591-.101-.615-.314a15.333 15.333 0 0 1 0-1.254c.024-.213 0-.314.615-.314s.591.101.615.314c.004.029.007.113.009.213h.841a5.52 5.52 0 0 0-.024-.433c-.048-.427.12-.835-1.441-.835s-1.392.408-1.441.835c-.016.139-.03.491-.029.847.001.355.013.708.029.847.048.427-.12.835 1.441.835s1.393-.408 1.441-.835a5.46 5.46 0 0 0 .022-.42h-.839zM34.336 99.498l-.821 2.398-.822-2.398-1.229-.007v3.219h.822v-2.398l.821 2.398h.822l.814-2.398v2.398h.822v-3.219zM45.344 99.491h2.361v.821h-.769v2.398h-.823v-2.398h-.769zM39.012 102.71l.942-3.222h1.225l.944 3.222h-.821l-.194-.666H40.03l.152-.523h.771l-.382-1.312-.737 2.501zM29.486 100.153c.615 0 .591.101.615.314a13.668 13.668 0 0 1 0 1.254c-.024.213 0 .314-.615.314s-.591-.101-.615-.314a13.704 13.704 0 0 1 0-1.254c.024-.213 0-.314.615-.314l.001-.741c-1.561 0-1.392.409-1.441.835-.016.139-.03.491-.029.847.001.355.013.708.029.847.048.427-.12.835 1.441.835s1.392-.408 1.441-.835c.016-.139.027-.491.029-.847a9.468 9.468 0 0 0-.029-.847c-.049-.427.12-.835-1.441-.835l-.001.741zM26.713 101.521a3.404 3.404 0 0 1-.008.2c-.024.213 0 .314-.615.314s-.591-.101-.615-.314a13.46 13.46 0 0 1 0-1.254c.024-.213 0-.314.615-.314s.591.101.615.314c.003.029.006.113.008.213h.842a6.071 6.071 0 0 0-.024-.433c-.049-.427.119-.835-1.441-.835-1.561 0-1.392.408-1.441.835-.016.139-.03.491-.029.847.001.355.013.708.029.847.049.427-.119.835 1.441.835 1.561 0 1.392-.408 1.441-.835.009-.081.017-.235.022-.42h-.84zM37.565 101.974h-.498v-.734l.498-.003c.615 0 .596-.101.62-.314.008-.069.007-.012.006-.19s.002-.117-.006-.186c-.024-.213-.005-.314-.62-.314l-.499.001.001 2.473h-.824v-3.215h1.321c1.561 0 1.389.41 1.446.835.007.05.007.283.007.408 0 .101 0 .333-.007.407-.038.428.116.832-1.445.832zM21.591 114.83l-5.141-.006a1.347 1.347 0 0 1-1.347-1.346v-7.821c0-.743.603-1.346 1.347-1.346l3.218-.004a.7.7 0 0 0 .7-.699l.009-3.127c0-.162.131-.293.293-.293h1.886c.162 0 .293.131.293.293l.019 14.056a.293.293 0 0 1-.293.293h-.984l-.024.698h1.287a.7.7 0 0 0 .699-.699v-14.645a.7.7 0 0 0-.699-.7h-2.475a.7.7 0 0 0-.7.699l.003 3.135a.293.293 0 0 1-.293.293l-2.94-.005a2.053 2.053 0 0 0-2.053 2.052v7.821c0 1.133.919 2.052 2.053 2.052l5.117-.001.025-.7z"/><path d="M19.679 111.951v-5.059a.768.768 0 0 0-1.536 0v5.461a.768.768 0 0 0 1.536 0v-.402l.698.024v.377a1.466 1.466 0 0 1-2.934 0v-5.461a1.466 1.466 0 0 1 2.934 0v5.084l-.698-.024zM26.478 114.83h-.963a.294.294 0 0 1-.293-.293l.012-9.926c0-.162.132-.293.293-.293h1.886c.162 0 .294.131.294.293l.019 9.925a.293.293 0 0 1-.293.293l-.955.001v.695l1.233.001a.7.7 0 0 0 .7-.699v-10.515a.7.7 0 0 0-.7-.699h-2.475a.7.7 0 0 0-.699.699l-.001 10.512c0 .386.31.699.697.699l1.246.001-.001-.694zM35.365 106.27l-2.072-.003a1.155 1.155 0 1 0 0 2.308l2.84.008c.744 0 1.346.602 1.346 1.346l-.009 3.532c0 .744-.604 1.346-1.347 1.346l-5.636.01a.294.294 0 0 1-.294-.293v-1.368c0-.162.132-.293.294-.293l3.841-.013a1.155 1.155 0 1 0 0-2.308l-2.781-.011a1.345 1.345 0 0 1-1.346-1.346v-3.529c0-.743.603-1.346 1.346-1.346l5.225-.024c.161 0 .293.131.293.293v1.399a.293.293 0 0 1-.293.293l-1.407-.001-.024.688 1.718.001c.387 0 .7-.311.7-.697l.002-1.96a.7.7 0 0 0-.699-.699l-5.516.002a2.053 2.053 0 0 0-2.053 2.052v3.529c0 1.133.919 2.052 2.053 2.052l2.781-.005a.464.464 0 0 1 0 .928l-4.14-.001a.7.7 0 0 0-.7.699v1.956a.7.7 0 0 0 .7.699l5.935-.001a2.052 2.052 0 0 0 2.053-2.052l.01-3.532a2.053 2.053 0 0 0-2.053-2.052l-2.84.008a.464.464 0 1 1 0-.927h2.049l.024-.688zM45.809 108.211h.89a.293.293 0 0 0 .293-.293l-.004-2.261c0-.743-.603-1.346-1.347-1.346h-4.453c-.744 0-1.347.603-1.347 1.346v7.821c0 .743.603 1.346 1.347 1.346h4.453c.744 0 1.347-.603 1.347-1.346l.004-2.149a.293.293 0 0 0-.293-.293h-1.68a.293.293 0 0 0-.293.293l.009 1.024c0 .81-.51 1.466-1.32 1.466s-1.32-.656-1.32-1.466v-5.461c0-.809.51-1.465 1.32-1.465s1.32.656 1.32 1.465l-.009 1.027c0 .162.131.293.293.293l.79-.001-.024.705h-1.057a.7.7 0 0 1-.7-.699l.008-1.325c0-.424-.197-.768-.621-.768s-.621.344-.621.768v5.461c0 .424.197.768.621.768s.621-.344.621-.768l-.008-1.323a.7.7 0 0 1 .7-.699h2.268a.7.7 0 0 1 .7.699l-.001 2.448c0 1.133-.92 2.052-2.054 2.052h-4.453a2.053 2.053 0 0 1-2.054-2.052v-7.821c0-1.133.92-2.052 2.054-2.052h4.453c1.134 0 2.054.919 2.054 2.052l.001 2.559a.7.7 0 0 1-.7.699h-1.211l.024-.704z"/></g></g><g><path d="M96.569 134.312c-20.812 0-37.743-16.931-37.743-37.743s16.931-37.743 37.743-37.743 37.744 16.931 37.744 37.743-16.932 37.743-37.744 37.743zm0-74.346c-20.183 0-36.603 16.42-36.603 36.603s16.42 36.603 36.603 36.603 36.604-16.42 36.604-36.603c0-20.184-16.421-36.603-36.604-36.603z"/></g><g><path d="M133.743 96.569c0 20.53-16.643 37.173-37.174 37.173s-37.173-16.643-37.173-37.173 16.643-37.174 37.173-37.174 37.174 16.643 37.174 37.174zM96.569 64.244c-17.852 0-32.325 14.472-32.325 32.325s14.472 32.325 32.325 32.325 32.325-14.472 32.325-32.325-14.472-32.325-32.325-32.325z" fill="#aa9885"/></g><g><path d="M333.713 187.298c0 3.213-2.628 5.84-5.84 5.84h-88.614c-3.213 0-5.84-2.628-5.84-5.84V44.206c0-3.213 2.628-5.84 5.84-5.84h88.614c3.212 0 5.84 2.628 5.84 5.84v143.092z" fill="#e6e6e6"/><path fill="#070506" d="M237.494 92.141h92.143v87.125h-92.143zM236.113 41.77v40.304c0 3.249 2.628 5.909 5.84 5.909h83.223c3.213 0 5.84-2.659 5.84-5.909V41.77h-94.903z"/><path fill="#22211d" d="M236.113 41.77h94.904v8.055h-94.904z"/><path d="M297.056 186.058l-13.33-3.993a.559.559 0 0 0-.324 0l-13.329 3.993a.563.563 0 0 0-.402.54v3.484c0 .311.252.564.564.564h26.659a.564.564 0 0 0 .564-.564v-3.484a.563.563 0 0 0-.402-.54z" fill="#d3d3d3"/><g fill="#d1ad2d"><path d="M238.646 43.749h1.358v5.365h-1.358zM241.038 42.909h1.357v6.205h-1.357zM243.429 42.909h1.357v6.205h-1.357zM245.821 42.909h1.357v6.205h-1.357zM248.212 42.909h1.358v6.205h-1.358zM250.603 42.909h1.357v6.205h-1.357zM252.995 42.909h1.357v6.205h-1.357zM255.386 42.909h1.357v6.205h-1.357zM257.777 42.909h1.358v6.205h-1.358zM260.169 42.909h1.357v6.205h-1.357zM262.56 42.909h1.357v6.205h-1.357zM264.951 42.909h1.358v6.205h-1.358zM267.343 42.909h1.357v6.205h-1.357zM269.734 42.909h1.357v6.205h-1.357zM272.125 42.909h1.358v6.205h-1.358zM274.517 42.909h1.357v6.205h-1.357zM276.908 42.909h1.357v6.205h-1.357zM279.3 41.77h1.357v8.055H279.3zM281.69 42.909h1.358v6.205h-1.358zM284.082 42.909h1.357v6.205h-1.357zM286.474 42.909h1.357v6.205h-1.357zM288.865 42.909h1.357v6.205h-1.357zM291.256 42.909h1.358v6.205h-1.358zM293.647 42.909h1.357v6.205h-1.357zM296.039 42.909h1.357v6.205h-1.357zM298.43 42.909h1.358v6.205h-1.358zM300.821 42.909h1.357v6.205h-1.357zM303.213 42.909h1.357v6.205h-1.357zM305.604 42.909h1.357v6.205h-1.357zM307.995 42.909h1.358v6.205h-1.358zM310.387 42.909h1.357v6.205h-1.357zM312.778 42.909h1.357v6.205h-1.357zM315.169 42.909h1.358v6.205h-1.358zM317.561 42.909h1.358v6.205h-1.358zM319.952 42.909h1.357v6.205h-1.357zM322.344 42.909h1.357v6.205h-1.357zM324.735 42.909h1.358v6.205h-1.358zM327.126 41.77h1.357v8.055h-1.357z"/></g><g fill="#1f1713"><circle cx="239.325" cy="48.512" r=".328"/><circle cx="241.716" cy="48.512" r=".328"/><circle cx="244.108" cy="48.512" r=".328"/><circle cx="246.499" cy="48.512" r=".328"/><circle cx="248.89" cy="48.512" r=".328"/><circle cx="251.281" cy="48.512" r=".328"/><circle cx="253.673" cy="48.512" r=".328"/><circle cx="256.064" cy="48.512" r=".328"/><circle cx="258.455" cy="48.512" r=".328"/><circle cx="260.846" cy="48.512" r=".328"/><circle cx="263.238" cy="48.512" r=".328"/><circle cx="265.629" cy="48.512" r=".328"/><circle cx="268.02" cy="48.512" r=".328"/><circle cx="270.411" cy="48.512" r=".328"/><circle cx="272.803" cy="48.512" r=".328"/><circle cx="275.194" cy="48.512" r=".328"/><circle cx="277.585" cy="48.512" r=".328"/><circle cx="279.976" cy="48.512" r=".328"/><circle cx="282.368" cy="48.512" r=".328"/><circle cx="284.759" cy="48.512" r=".328"/><circle cx="287.15" cy="48.512" r=".328"/><circle cx="289.541" cy="48.512" r=".328"/><circle cx="291.933" cy="48.512" r=".328"/><circle cx="294.324" cy="48.512" r=".328"/><circle cx="296.715" cy="48.512" r=".328"/><circle cx="299.106" cy="48.512" r=".328"/><circle cx="301.498" cy="48.512" r=".328"/><circle cx="303.889" cy="48.512" r=".328"/><circle cx="306.28" cy="48.512" r=".328"/><circle cx="308.671" cy="48.512" r=".328"/><circle cx="311.063" cy="48.512" r=".328"/><circle cx="313.454" cy="48.512" r=".328"/><circle cx="315.845" cy="48.512" r=".328"/><circle cx="318.236" cy="48.512" r=".328"/><circle cx="320.628" cy="48.512" r=".328"/><circle cx="323.019" cy="48.512" r=".328"/><circle cx="325.41" cy="48.512" r=".328"/><circle cx="327.801" cy="48.512" r=".328"/></g><path d="M297.458 186.598a.563.563 0 0 0-.402-.54l-.695-.208h-25.592l-.695.208a.563.563 0 0 0-.402.54h27.786zM294.148 185.186h-21.166l2.498-.748h16.231zM269.672 187.261h27.787v.748h-27.787z" fill="#c1c1c1"/><g fill="#b7b7b7"><path d="M297.458 186.598a.563.563 0 0 0-.402-.54l-.695-.208h-25.592l-.695.208a.563.563 0 0 0-.402.54h27.786zM294.148 185.186h-21.166l2.498-.748h16.231zM289.437 183.775h-11.744l2.499-.748h6.746zM269.672 187.261h27.787v.709h-27.787zM269.672 188.598h27.787v.709h-27.787zM297.458 189.936h-27.787v.146c0 .311.252.564.564.564h26.659a.564.564 0 0 0 .564-.564v-.146z"/></g><path fill="#d3d3d3" d="M277.693 189.936h11.744v.709h-11.744z"/><path d="M302.271 146.649c1.447-4.226 1.375-8.94-.147-13.133-1.316-3.575-3.67-6.77-6.734-9.037-4.226-3.196-9.776-4.538-14.998-3.67-6.578.998-12.438 5.614-15.005 11.745-2.598 6.014-1.935 13.31 1.752 18.734 3.54 5.369 9.85 8.806 16.295 8.747 4.306.084 8.604-1.369 12.033-3.961 3.138-2.369 5.564-5.689 6.804-9.425z" fill="#f9541c"/><g fill="#fff"><path d="M271.718 131.766l7.882-.004c.484.484.914.885 1.403 1.374v3.201h-2.329c-.005-.62-.005-1.244 0-1.863h-5.591v11.647h5.591c-.005-.62-.005-1.244 0-1.863h2.329v3.201c-.489.489-.91.881-1.395 1.37h-7.891l-1.337-1.314-.009-14.419 1.347-1.33zM295.408 131.762h-11.61v2.711h1.398v11.647h-1.398c-.005.932-.033 1.775-.029 2.707h11.644l1.346-1.328v-14.41l-1.351-1.327zm-1.36 14.358h-6.057v-11.647h6.057v11.647z"/></g><path d="M285.868 101.381c-.03-.706.538-1.38 1.233-1.487.567-.022 1.135.001 1.703-.009.818-.086 1.582.685 1.539 1.494-.001.811-.003 1.623.001 2.433-.487.005-.973.002-1.46.002-.002-.825.005-1.648-.004-2.473-.542.005-1.084.004-1.627.001-.007 4.577-.001 9.156-.003 13.733.559-.002 1.117.005 1.676-.005-.009-2.216-.002-4.431-.004-6.647h-.739V107.1c.718-.002 1.437.003 2.156-.002.004 3.107.008 6.214-.002 9.321-1.003-.006-2.006-.001-3.008-.002-.583.002-1.162-.37-1.378-.916-.115-.285-.076-.598-.082-.898 0-4.406.002-8.814-.001-13.222zM294.114 102.668c.953.001 1.907-.005 2.86.002.587-.007 1.188.313 1.438.856.103.205.076.439.08.66-.004 1.452 0 2.903-.002 4.355-.032.615-.468 1.242-1.102 1.349.471 2.174.927 4.35 1.386 6.527l-1.333.001c-.495-2.154-.994-4.306-1.49-6.459l-.475.003c-.002 2.159.002 4.318-.002 6.476-.454-.002-.907.001-1.36-.002.003-4.59.001-9.179 0-13.768zm1.382 1.341v4.473c.531.001 1.063-.001 1.594.001.002-1.491.001-2.983.001-4.474h-1.595zM302.187 103.946c.003-.625.524-1.226 1.16-1.256.625-.009 1.249.001 1.874-.005.319-.005.65.076.901.282.289.233.441.609.44.978v12.472h-1.342c-.001-2.178.001-4.357-.001-6.535-.557.001-1.114.002-1.67-.001-.004 2.179.001 4.358-.003 6.537-.454-.002-.906-.001-1.36-.001.001-4.157-.001-8.314.001-12.471zm1.4.141c.002 1.473-.005 2.945.003 4.418.531-.006 1.061-.002 1.592-.003-.001-1.472.002-2.944-.002-4.416-.531.002-1.062 0-1.593.001zM309.985 103.869c.005-.604.533-1.172 1.144-1.182.766-.003 1.532.001 2.298-.001v1.225c-.686-.002-1.372.003-2.058-.003-.009 1.538-.002 3.075-.003 4.613.563-.002 1.127-.001 1.691-.001 0 .454-.002.907.001 1.361-.564.002-1.128.001-1.692 0-.002 2.178 0 4.357-.001 6.535h-1.381c.002-4.181.001-8.364.001-12.547zM316.851 102.687h1.439c.009 1.272-.018 2.545.012 3.817.244.408.529.791.784 1.193.25-.394.544-.762.769-1.171.022-1.278.005-2.559.008-3.838.481-.002.962-.003 1.442 0-.005.914-.001 1.828-.002 2.742-.005.425.04.864-.117 1.27-.319.85-.799 1.627-1.276 2.395.542.871 1.13 1.753 1.379 2.76.029 1.526.008 3.056.01 4.583-.447-.003-.892-.001-1.339-.002-.005-1.534.009-3.068-.006-4.602-.226-.464-.566-.871-.836-1.312-.279.426-.571.843-.851 1.267-.001 1.55.007 3.099-.003 4.649-.472-.007-.944-.002-1.415-.003-.001-1.439.002-2.878-.001-4.318-.006-.391.18-.748.335-1.095.335-.674.727-1.319 1.147-1.943-.562-.861-1.186-1.722-1.464-2.724-.039-1.22-.004-2.445-.015-3.668z" fill="#d8d222"/><g><path d="M253.059 102.667c.472-.002.944.003 1.416-.003.009 4.124.001 8.249.004 12.372h1.595c.003-4.125-.006-8.249.005-12.373.479.009.958 0 1.437.006-.005 3.953-.002 7.905-.002 11.858-.005.285.025.576-.046.856-.135.601-.72 1.056-1.334 1.053-.57 0-1.141.002-1.711-.002-.745-.014-1.378-.706-1.358-1.445-.011-4.107-.003-8.214-.006-12.322zM261.111 102.667c.982.005 1.965-.011 2.947.008.695.009 1.44.536 1.447 1.278.002 1.505.002 3.01 0 4.514-.005.651-.44 1.33-1.11 1.45.464 2.173.92 4.346 1.385 6.518-.445.002-.89.001-1.335.001-.492-2.146-.992-4.29-1.484-6.437l-.489-.002c-.001 2.146.001 4.293-.001 6.438h-1.361l.001-13.768zm1.419 1.363c.002 1.498 0 2.994.001 4.492.524.001 1.049-.002 1.574.002.004-1.498.001-2.997.002-4.495-.527.001-1.052-.001-1.577.001zM269.374 102.671c1.029-.002 2.058-.011 3.087.003.652-.002 1.267.538 1.291 1.2.004 1.452 0 2.906.002 4.359.004.404-.285.723-.568.975.274.228.539.524.565.898.042.592.015 1.186.023 1.78-.007.906.017 1.813-.019 2.72-.012.385.059.797-.133 1.152-.208.429-.685.676-1.151.68-1.03.002-2.059-.004-3.089.002-.012-4.591.001-9.18-.008-13.769zm1.422 1.358c0 1.498-.001 2.996.001 4.493.525-.002 1.049 0 1.575-.001.001-1.498-.002-2.994.002-4.491-.527-.003-1.052 0-1.578-.001zm.002 5.93c-.004 1.705-.001 3.411-.002 5.117.525-.001 1.051.002 1.576-.001-.002-1.705 0-3.41-.001-5.114-.524-.001-1.049.001-1.573-.002zM278.335 102.744c.419-.121.86-.065 1.29-.077.474.009.986-.058 1.419.18.431.229.814.664.8 1.177-.002 3.53-.001 7.059 0 10.589-.005.307.036.633-.106.919-.219.459-.656.851-1.176.902-.467.011-.934-.002-1.4.004-.273-.002-.557.025-.815-.081-.546-.215-.996-.753-.978-1.359.001-3.526.002-7.052 0-10.578.003-.284-.028-.583.091-.85a1.52 1.52 0 0 1 .875-.826zm.533 1.304c-.001 3.649.001 7.299-.001 10.949.506.002 1.012.002 1.519 0-.002-3.65 0-7.299-.001-10.949h-1.517zM247.161 101.254h-1.337v-1.38h4.279v1.38h-1.336v15.17h-1.606z" fill="#d8d222"/></g><g><path d="M252.316 172.253h-.397c-.975 0-1.083-.232-1.083-.835v-.852h.866v1.119h.771v-1.102c0-.757.072-.766-.518-1.489l-.457-.56c-.711-.852-.662-.74-.662-1.695v-.577c0-.594.132-.843 1.035-.843h.397c.963 0 1.071.232 1.071.834v.62h-.867v-.834h-.771v.62c0 .766-.048.783.397 1.308l.566.654c.746.887.674.775.674 1.644v1.145c.001.594-.119.843-1.022.843zM265.049 172.253h-.397c-.975 0-1.083-.232-1.083-.835v-.852h.866v1.119h.771v-1.102c0-.757.072-.766-.518-1.489l-.457-.56c-.711-.852-.662-.74-.662-1.695v-.577c0-.594.132-.843 1.035-.843h.397c.963 0 1.071.232 1.071.834v.62h-.867v-.834h-.771v.62c0 .766-.048.783.397 1.308l.566.654c.746.887.674.775.674 1.644v1.145c.002.594-.118.843-1.022.843zM272.187 165.42v.62h-.831v6.213h-.867v-6.213h-.83v-.62h2.528zM277.856 165.42v.62h-1.204v2.521h1.132v.611h-1.132v2.513h1.204v.568h-2.071v-6.833h2.071zM282.476 165.42l1.145 3.692 1.071-3.692h.866v6.833h-.866v-1.626c0-.62.048-2.72.048-2.72l-.854 3.081h-.59l-.867-3.098s.048 2.117.048 2.737v1.626h-.866v-6.833h.865zM296.185 166.04h-.71v5.646h.71v-1.102h.915v.826c0 .594-.12.843-1.023.843h-.445c-.963 0-1.083-.232-1.083-.835v-5.155c0-.594.132-.843 1.035-.843h.445c.963 0 1.071.232 1.071.834v.568h-.915v-.782zM307.45 165.42h.987c1.288 0 1.517.008 1.517.921v2.048c0 .258.012.31-.205.457.229.12.205.181.205.473v2.935h-.867v-3.098h-.771v3.098h-.866v-6.834zm.866 3.132h.771v-2.513h-.771v2.513zM316.296 166.255v5.155c0 .594-.12.843-1.023.843h-1.48v-6.833h1.433c.962 0 1.07.232 1.07.835zm-.867 5.43v-5.646h-.771v5.646h.771zM301.139 166.047c.002-.311.26-.61.577-.625.311-.004.622 0 .932-.002a.68.68 0 0 1 .448.141.627.627 0 0 1 .219.487v6.205h-.668v-3.252h-.831c-.002 1.084 0 2.168-.002 3.253h-.677c.002-2.07.001-4.138.002-6.207zm.697.071c.001.733-.002 1.465.002 2.198.264-.003.528-.001.792-.002 0-.732.001-1.465-.001-2.197l-.793.001zM258.448 168.284l-.328-.262v-2.155a.447.447 0 0 0-.12-.322.415.415 0 0 0-.313-.126c-.127 0-.231.041-.312.124s-.121.19-.121.324v2.43l.76.78v2.727c0 .131.04.238.121.322.08.084.184.126.312.126a.417.417 0 0 0 .312-.124.442.442 0 0 0 .121-.324v-2.727l.76-.78v-2.43c0-.134-.041-.242-.121-.324s-.185-.124-.312-.124a.417.417 0 0 0-.313.126.447.447 0 0 0-.12.322v2.155l-.326.262z" fill="#d8d222"/></g><g fill="#d8d222"><path d="M322.313 114.857h1.282v.239h-.503v1.344h-.277v-1.344h-.502zM323.775 114.857h.379l.437 1.239h.005l.426-1.239h.374v1.583h-.252v-1.222h-.005l-.439 1.222h-.228l-.44-1.222h-.004v1.222h-.253z"/></g></g><g><path d="M474.451 187.298c0 3.213-2.628 5.84-5.84 5.84h-88.614c-3.213 0-5.84-2.628-5.84-5.84V44.206c0-3.213 2.628-5.84 5.84-5.84h88.614c3.212 0 5.84 2.628 5.84 5.84v143.092z" fill="#e6e6e6"/><path d="M376.852 41.77v70.542c0 3.249 2.628 5.909 5.84 5.909h83.223c3.213 0 5.84-2.659 5.84-5.909V41.77h-94.903z" fill="#1c1714"/><path fill="#22211d" d="M376.852 41.77h94.904v8.055h-94.904z"/><path d="M437.795 186.058l-13.33-3.993a.559.559 0 0 0-.324 0l-13.329 3.993a.563.563 0 0 0-.402.54v3.484c0 .311.252.564.564.564h26.659a.564.564 0 0 0 .564-.564v-3.484a.563.563 0 0 0-.402-.54z" fill="#d3d3d3"/><g fill="#d1ad2d"><path d="M379.385 43.749h1.358v5.365h-1.358zM381.777 42.909h1.357v6.205h-1.357zM384.168 42.909h1.357v6.205h-1.357zM386.56 42.909h1.357v6.205h-1.357zM388.951 42.909h1.358v6.205h-1.358zM391.342 42.909h1.357v6.205h-1.357zM393.734 42.909h1.357v6.205h-1.357zM396.125 42.909h1.357v6.205h-1.357zM398.516 42.909h1.358v6.205h-1.358zM400.908 42.909h1.357v6.205h-1.357zM403.299 42.909h1.357v6.205h-1.357zM405.69 42.909h1.358v6.205h-1.358zM408.081 42.909h1.357v6.205h-1.357zM410.473 42.909h1.357v6.205h-1.357zM412.864 42.909h1.358v6.205h-1.358zM415.255 42.909h1.357v6.205h-1.357zM417.647 42.909h1.357v6.205h-1.357zM420.038 41.77h1.357v8.055h-1.357zM422.429 42.909h1.358v6.205h-1.358zM424.821 42.909h1.357v6.205h-1.357zM427.212 42.909h1.357v6.205h-1.357zM429.604 42.909h1.357v6.205h-1.357zM431.995 42.909h1.358v6.205h-1.358zM434.386 42.909h1.357v6.205h-1.357zM436.778 42.909h1.357v6.205h-1.357zM439.169 42.909h1.358v6.205h-1.358zM441.56 42.909h1.357v6.205h-1.357zM443.952 42.909h1.357v6.205h-1.357zM446.343 42.909h1.357v6.205h-1.357zM448.734 42.909h1.358v6.205h-1.358zM451.126 42.909h1.357v6.205h-1.357zM453.517 42.909h1.357v6.205h-1.357zM455.908 42.909h1.358v6.205h-1.358zM458.3 42.909h1.358v6.205H458.3zM460.691 42.909h1.357v6.205h-1.357zM463.083 42.909h1.357v6.205h-1.357zM465.474 42.909h1.358v6.205h-1.358zM467.865 41.77h1.357v8.055h-1.357z"/></g><g fill="#1f1713"><circle cx="380.064" cy="48.512" r=".328"/><circle cx="382.455" cy="48.512" r=".328"/><circle cx="384.847" cy="48.512" r=".328"/><circle cx="387.238" cy="48.512" r=".328"/><circle cx="389.629" cy="48.512" r=".328"/><circle cx="392.02" cy="48.512" r=".328"/><circle cx="394.412" cy="48.512" r=".328"/><circle cx="396.803" cy="48.512" r=".328"/><circle cx="399.194" cy="48.512" r=".328"/><circle cx="401.585" cy="48.512" r=".328"/><circle cx="403.977" cy="48.512" r=".328"/><circle cx="406.368" cy="48.512" r=".328"/><circle cx="408.759" cy="48.512" r=".328"/><circle cx="411.15" cy="48.512" r=".328"/><circle cx="413.542" cy="48.512" r=".328"/><circle cx="415.933" cy="48.512" r=".328"/><circle cx="418.324" cy="48.512" r=".328"/><circle cx="420.715" cy="48.512" r=".328"/><circle cx="423.107" cy="48.512" r=".328"/><circle cx="425.498" cy="48.512" r=".328"/><circle cx="427.889" cy="48.512" r=".328"/><circle cx="430.28" cy="48.512" r=".328"/><circle cx="432.672" cy="48.512" r=".328"/><circle cx="435.063" cy="48.512" r=".328"/><circle cx="437.454" cy="48.512" r=".328"/><circle cx="439.845" cy="48.512" r=".328"/><circle cx="442.237" cy="48.512" r=".328"/><circle cx="444.628" cy="48.512" r=".328"/><circle cx="447.019" cy="48.512" r=".328"/><circle cx="449.41" cy="48.512" r=".328"/><circle cx="451.802" cy="48.512" r=".328"/><circle cx="454.193" cy="48.512" r=".328"/><circle cx="456.584" cy="48.512" r=".328"/><circle cx="458.975" cy="48.512" r=".328"/><circle cx="461.367" cy="48.512" r=".328"/><circle cx="463.758" cy="48.512" r=".328"/><circle cx="466.149" cy="48.512" r=".328"/><circle cx="468.54" cy="48.512" r=".328"/></g><path d="M438.197 186.598a.563.563 0 0 0-.402-.54l-.695-.208h-25.592l-.695.208a.563.563 0 0 0-.402.54h27.786zM434.887 185.186h-21.166l2.498-.748h16.231zM410.411 187.261h27.787v.748h-27.787z" fill="#c1c1c1"/><path fill="#d3d3d3" d="M418.432 189.936h11.744v.709h-11.744z"/><path d="M457.179 187.274v1.032a3.107 3.107 0 0 1-3.107 3.107h-59.535a3.107 3.107 0 0 1-3.107-3.107v-1.032a4.008 4.008 0 0 0-4.008-4.008h-3.76a3.857 3.857 0 0 1-3.857-3.857V118.77a3.857 3.857 0 0 1 3.857-3.857h81.285a3.857 3.857 0 0 1 3.857 3.857v60.639a3.857 3.857 0 0 1-3.857 3.857h-3.76a4.01 4.01 0 0 0-4.008 4.008z" fill="#ddd" stroke="#999" stroke-width=".1" stroke-miterlimit="10"/><g fill="#b7b7b7"><path d="M438.197 186.598a.563.563 0 0 0-.402-.54l-.695-.208h-25.592l-.695.208a.563.563 0 0 0-.402.54h27.786zM434.887 185.186h-21.166l2.498-.748h16.231zM430.176 183.775h-11.744l2.498-.748h6.747zM410.411 187.261h27.787v.709h-27.787zM410.411 188.598h27.787v.709h-27.787zM438.197 189.936H410.41v.146c0 .311.252.564.564.564h26.659a.564.564 0 0 0 .564-.564v-.146z"/></g><linearGradient id="b" gradientUnits="userSpaceOnUse" x1="384.804" y1="150.09" x2="463.804" y2="150.09"><stop offset="0" stop-color="#141118"/><stop offset="1" stop-color="#0d0d19"/></linearGradient><path fill="url(#b)" d="M384.804 120.913h79v58.354h-79z"/><g fill="#ededed"><path d="M391.849 133.07c0 .53.104.95.311 1.259s.486.464.837.464a.935.935 0 0 0 .767-.362c.191-.241.288-.562.288-.961 0-.541-.342-.949-1.024-1.226l-.317-.128c-.549-.232-.91-.49-1.085-.772-.176-.282-.264-.676-.264-1.182 0-.646.143-1.168.427-1.567.285-.398.657-.598 1.116-.598.526 0 .934.205 1.223.613.289.409.434.986.434 1.731v.021h-.635c-.025-.486-.124-.857-.296-1.116s-.406-.387-.705-.387c-.275 0-.495.105-.66.315s-.248.49-.248.838c0 .349.063.605.187.77s.451.338.981.523c.616.215 1.022.472 1.217.769.194.298.292.727.292 1.288 0 .708-.155 1.271-.466 1.688-.311.417-.73.626-1.258.626-.54 0-.961-.226-1.265-.677s-.469-1.094-.493-1.929h.636zM395.198 132.701v-4.514h.642v4.57c0 .691.084 1.203.253 1.537.168.333.427.5.774.5.344 0 .6-.169.769-.508.168-.338.252-.848.252-1.529v-4.57h.652v4.514c0 1.012-.137 1.761-.409 2.247-.273.486-.694.729-1.264.729-.564 0-.983-.243-1.258-.729s-.411-1.235-.411-2.247zM399.308 135.476v-7.289h1.68c.482 0 .848.178 1.096.533.248.356.372.877.372 1.564 0 .366-.041.691-.124.975a1.963 1.963 0 0 1-.371.718 1.111 1.111 0 0 1-.45.326c-.169.063-.449.095-.844.095h-.713v3.078h-.646zm1.506-6.396h-.86v2.426h.809c.38 0 .646-.094.796-.282s.226-.501.226-.939c0-.431-.074-.739-.221-.926s-.398-.279-.75-.279zM403.23 135.476v-7.289h3.021v.882h-2.376v2.185h2.168v.872h-2.168v2.467h2.431v.882h-3.076zM407.057 135.476v-7.289h1.622c.478 0 .842.177 1.092.531.251.354.376.87.376 1.546 0 .4-.055.739-.162 1.016a1.351 1.351 0 0 1-.479.636.743.743 0 0 1 .382.392c.077.18.126.495.146.946l.052 1.185c.012.256.033.445.064.564a.54.54 0 0 0 .15.271v.2h-.733c-.032-.079-.059-.197-.079-.354s-.036-.369-.048-.636l-.034-.944c-.018-.476-.083-.785-.194-.929s-.392-.215-.84-.215h-.666v3.078h-.649zm1.44-6.396h-.792v2.426h.748c.38 0 .646-.094.795-.282.15-.188.226-.501.226-.939 0-.431-.074-.739-.222-.926-.148-.186-.399-.279-.755-.279zM415.341 133.07c0 .53.104.95.311 1.259s.486.464.837.464a.935.935 0 0 0 .767-.362c.191-.241.288-.562.288-.961 0-.541-.342-.949-1.024-1.226l-.317-.128c-.549-.232-.91-.49-1.085-.772-.176-.282-.264-.676-.264-1.182 0-.646.143-1.168.427-1.567.285-.398.657-.598 1.116-.598.526 0 .934.205 1.223.613.289.409.434.986.434 1.731v.021h-.635c-.025-.486-.124-.857-.296-1.116s-.406-.387-.705-.387c-.275 0-.495.105-.66.315s-.248.49-.248.838c0 .349.063.605.187.77s.451.338.981.523c.616.215 1.022.472 1.217.769.194.298.292.727.292 1.288 0 .708-.155 1.271-.466 1.688-.311.417-.73.626-1.258.626-.54 0-.961-.226-1.265-.677s-.469-1.094-.493-1.929h.636zM420.725 135.476h-.651v-2.888l-1.663-4.411h.775l1.212 3.452 1.194-3.452h.728l-1.595 4.35v2.949zM423.172 133.07c0 .53.104.95.311 1.259s.486.464.837.464a.935.935 0 0 0 .767-.362c.191-.241.288-.562.288-.961 0-.541-.342-.949-1.024-1.226l-.317-.128c-.549-.232-.91-.49-1.085-.772-.176-.282-.264-.676-.264-1.182 0-.646.143-1.168.427-1.567.285-.398.657-.598 1.116-.598.526 0 .934.205 1.223.613.289.409.434.986.434 1.731v.021h-.635c-.025-.486-.124-.857-.296-1.116s-.406-.387-.705-.387c-.275 0-.495.105-.66.315s-.248.49-.248.838c0 .349.063.605.187.77s.451.338.981.523c.616.215 1.022.472 1.217.769.194.298.292.727.292 1.288 0 .708-.155 1.271-.466 1.688-.311.417-.73.626-1.258.626-.54 0-.961-.226-1.265-.677s-.469-1.094-.493-1.929h.636zM427.87 135.476v-6.406h-1.475v-.882h3.587v.882h-1.468v6.406h-.644zM430.638 135.476v-7.289h3.021v.882h-2.376v2.185h2.168v.872h-2.168v2.467h2.431v.882h-3.076zM434.274 135.476v-7.289h.859l.888 6.427.898-6.427h.85v7.289h-.543v-6.617l-.901 6.617h-.604l-.908-6.617v6.617h-.539zM444.986 132.768h.672c-.061.906-.246 1.617-.556 2.133-.31.517-.705.775-1.185.775-.561 0-.999-.341-1.318-1.023-.318-.682-.478-1.624-.478-2.824 0-1.204.159-2.145.478-2.824.319-.679.758-1.018 1.318-1.018.437 0 .804.215 1.103.644.298.429.484 1.013.56 1.752h-.662c-.073-.482-.197-.856-.372-1.124-.176-.267-.385-.4-.628-.4-.349 0-.623.263-.824.79-.202.526-.303 1.253-.303 2.18 0 .92.102 1.644.304 2.172.203.528.477.792.823.792.284 0 .521-.179.71-.536.188-.357.308-.853.358-1.489zM445.645 135.476l1.769-7.299h.713l1.775 7.299h-.655l-.512-2.144h-1.936l-.513 2.144h-.641zm1.376-3.037h1.498l-.751-3.216-.747 3.216zM450.126 135.476v-7.289h1.622c.478 0 .842.177 1.092.531.251.354.376.87.376 1.546 0 .4-.055.739-.162 1.016a1.351 1.351 0 0 1-.479.636.743.743 0 0 1 .382.392c.077.18.126.495.146.946l.052 1.185c.012.256.033.445.064.564a.54.54 0 0 0 .15.271v.2h-.733c-.032-.079-.059-.197-.079-.354s-.036-.369-.048-.636l-.034-.944c-.018-.476-.083-.785-.194-.929s-.392-.215-.84-.215h-.666v3.078h-.649zm1.441-6.396h-.792v2.426h.748c.38 0 .646-.094.795-.282.15-.188.226-.501.226-.939 0-.431-.074-.739-.222-.926-.149-.186-.4-.279-.755-.279zM455.591 128.187c.608 0 1.061.301 1.359.903.298.602.446 1.515.446 2.739 0 1.166-.156 2.065-.471 2.698-.314.632-.759.949-1.335.949h-1.614v-7.289h1.615zm-.048.872h-.914v5.544h.914c.4 0 .698-.227.892-.682.193-.455.29-1.152.29-2.093 0-.981-.093-1.688-.276-2.121-.185-.431-.487-.648-.906-.648z"/><g><path d="M414.21 125.635l.56.115c-.118.375-.328.662-.633.859s-.678.296-1.117.296c-.456 0-.826-.076-1.111-.228s-.503-.371-.651-.659a1.985 1.985 0 0 1-.224-.926c0-.36.084-.674.252-.941a1.59 1.59 0 0 1 .718-.61 2.481 2.481 0 0 1 1.025-.208c.423 0 .778.088 1.066.264s.489.423.603.742l-.551.106c-.098-.251-.24-.434-.427-.549s-.421-.172-.703-.172c-.325 0-.597.063-.814.191a1.053 1.053 0 0 0-.46.512 1.734 1.734 0 0 0-.133.664c0 .293.053.55.157.769.105.219.268.383.489.492.221.108.46.163.718.163.313 0 .578-.074.795-.222.217-.149.364-.368.441-.658zM415.499 126.846v-3.455h1.456c.329 0 .579.017.752.05.242.045.449.128.62.247.223.154.39.351.5.59.11.24.166.514.166.821 0 .262-.037.495-.112.697-.075.203-.171.371-.288.503s-.246.237-.385.313a1.78 1.78 0 0 1-.505.173 3.44 3.44 0 0 1-.679.059h-1.525zm.559-.408h.902c.278 0 .497-.021.655-.063.159-.042.285-.102.38-.179.132-.108.235-.254.31-.437s.111-.405.111-.666c0-.361-.073-.639-.218-.833a1.055 1.055 0 0 0-.529-.39c-.149-.047-.391-.071-.724-.071h-.888v2.639zM419.536 125.809v-.427h1.594v.427h-1.594zM421.819 126.846v-3.455h1.874c.377 0 .663.031.858.093.196.062.354.171.471.329s.176.331.176.521a.793.793 0 0 1-.291.62c-.194.168-.494.275-.899.32.147.058.26.116.337.172.163.123.318.276.464.459l.735.94h-.703l-.56-.719a6.683 6.683 0 0 0-.403-.476c-.105-.11-.2-.187-.284-.231s-.169-.074-.255-.092a2.03 2.03 0 0 0-.312-.017h-.648v1.534h-.56zm.56-1.93h1.202c.255 0 .455-.022.6-.065a.629.629 0 0 0 .328-.208.489.489 0 0 0 .112-.31.476.476 0 0 0-.218-.403c-.145-.105-.374-.158-.688-.158h-1.337v1.144zM425.945 125.163c0-.573.188-1.022.565-1.347.376-.324.862-.486 1.458-.486.391 0 .742.076 1.056.229.313.152.552.365.716.637.164.273.247.582.247.927 0 .351-.087.664-.26.94s-.418.486-.735.628a2.477 2.477 0 0 1-1.026.213c-.397 0-.753-.079-1.066-.236a1.679 1.679 0 0 1-.955-1.505zm.577.007c0 .416.137.744.41.984.274.239.617.359 1.03.359.421 0 .768-.121 1.04-.363.271-.242.407-.585.407-1.03 0-.281-.058-.526-.174-.736a1.2 1.2 0 0 0-.511-.488 1.626 1.626 0 0 0-.754-.173c-.396 0-.736.111-1.021.333-.284.223-.427.594-.427 1.114zM430.732 126.846v-3.455h.842l1 2.446c.092.228.159.398.201.511.049-.126.123-.311.226-.554l1.012-2.404h.752v3.455h-.539v-2.891l-1.228 2.891h-.505l-1.222-2.941v2.941h-.539zM435.343 124.698a.632.632 0 0 1 .168-.334c.15-.168.398-.354.742-.558s.548-.335.612-.394c.089-.08.133-.162.133-.246a.274.274 0 0 0-.125-.231c-.084-.061-.207-.091-.369-.091-.158 0-.275.023-.354.069a.498.498 0 0 0-.191.265l-.541-.047c.069-.217.189-.376.36-.479s.416-.154.736-.154c.36 0 .625.058.794.173.168.115.252.256.252.422 0 .164-.07.319-.211.466-.107.109-.353.276-.734.501-.199.119-.34.214-.423.284h1.383v.354h-2.232z"/></g><g><path d="M454.098 172.263h-3.473c-.159 0-.225-.065-.225-.222 0-.567-.001-1.134.001-1.701 0-.083-.019-.101-.104-.082a2.137 2.137 0 0 1-.382.05 14.5 14.5 0 0 0-.726.047c-.625.054-1.25.034-1.875.032a11.34 11.34 0 0 1-1.025-.06c-.276-.026-.553-.043-.826-.097-.066-.013-.1.002-.099.087.004.574.002 1.148.002 1.721 0 .159-.065.225-.222.225h-2.114c-.157 0-.221-.066-.221-.226 0-.711-.003-1.423.003-2.134.001-.115-.05-.164-.141-.195-.263-.091-.523-.189-.796-.249-.079-.017-.153-.059-.226-.094-.108-.052-.114-.103-.033-.188.278-.293.599-.538.963-.703.197-.089.239-.191.234-.384-.012-.5-.004-1-.004-1.5 0-.164.063-.226.231-.226h2.104c.158 0 .222.065.222.224 0 .768.002 1.537-.002 2.305 0 .09.028.129.112.15.151.036.3.069.456.081.284.022.567.052.85.078.02.002.04.001.06.001.234.007.468.003.7.024.144.013.287.021.429.014.473-.023.945-.048 1.418-.064a4.96 4.96 0 0 0 .856-.093c.146-.031.154-.031.154-.181v-2.315c0-.158.065-.223.223-.223h6.926c.153 0 .22.066.22.217v.574c0 .15-.067.216-.22.216h-4.439c-.134 0-.171.033-.172.169-.002.356 0 .711-.001 1.067 0 .06.012.088.08.064.082-.029.172-.023.256-.027a27.857 27.857 0 0 1 1.939-.022c.335.005.671.026 1.005.061.435.046.875.063 1.302.177.046.012.104.014.107.067.002.05-.027.1-.07.135-.269.217-.557.408-.837.608-.053.038-.108.076-.16.116-.091.071-.193.074-.294.057a.794.794 0 0 0-.168-.014 4.792 4.792 0 0 1-.71-.028c-.448-.049-.895-.031-1.342-.03-.308.001-.616.037-.924.057-.013.001-.026.007-.039.008-.119.008-.148.068-.146.186.009.376.003.752.003 1.127 0 .133.056.188.194.188h4.429c.16 0 .209.048.209.206v.534c0 .132-.055.187-.188.187l-3.484-.002zM451.389 174.196h-.795c-.18 0-.344-.149-.378-.328a1.715 1.715 0 0 1-.016-.398c.004-.098-.028-.159-.114-.198a.194.194 0 0 1-.042-.025c-.151-.126-.145-.203.026-.296.071-.039.1-.102.126-.17a.364.364 0 0 1 .051-.095c.041-.054.095-.043.147-.037.048.005.055.052.065.09.052.202.087.23.292.23h1.489c.136 0 .187.031.192.118.007.116-.045.169-.181.184-.023.003-.047.001-.07.001-.48 0-.959.001-1.439-.001a.389.389 0 0 0-.163.032c-.065.029-.109.071-.101.153.006.06.001.121.001.181 0 .208.051.259.259.259h1.509c.137 0 .203.073.161.195-.033.095-.13.105-.215.106-.267.002-.535-.001-.804-.001zM455.011 173.648c0-.173-.008-.311.002-.448.01-.135.091-.22.242-.227.268-.013.537-.01.804 0 .14.006.282.083.419.051.337-.079.676-.049 1.015-.056.248-.005.342.105.336.332-.005.218-.002.436-.001.654 0 .047-.013.091-.02.136-.018.118-.1.117-.184.104-.085-.013-.078-.085-.078-.148v-.553c-.001-.138-.082-.222-.219-.223h-.533c-.179 0-.268.115-.258.255.012.17.003.342.003.513 0 .106-.042.159-.121.159-.079 0-.12-.053-.12-.159-.001-.171-.009-.343.003-.513.01-.139-.076-.251-.248-.254a20.388 20.388 0 0 0-.553 0c-.123.001-.207.088-.208.213v.573c0 .061.001.128-.079.137-.077.009-.157.022-.183-.094-.037-.162-.006-.325-.019-.452zM446.073 174.673c-.102 0-.158-.07-.114-.159.042-.085.092-.159.146-.245.032-.043.045-.1.01-.146a5.908 5.908 0 0 0-.223-.271c-.211-.215-.416-.437-.626-.653-.047-.049-.086-.105-.05-.168.042-.072.122-.075.197-.06a.197.197 0 0 1 .095.049c.184.185.378.359.542.563.076.094.157.184.239.274.051.056.106.052.153-.005.085-.103.168-.209.251-.314.145-.182.286-.382.455-.53.089-.073.173-.081.233-.002.033.043.05.064.025.122-.072.11-.168.2-.246.304a12.6 12.6 0 0 1-.508.644c-.15.177-.287.365-.456.526-.039.04-.07.076-.123.071zM453.102 173.729c.039-.019.078-.016.117-.016l1.388-.001c.126 0 .181-.047.226-.166.025-.066.014-.132.015-.197.002-.258-.046-.319-.291-.376-.029-.007-.06-.005-.09-.005l-1.338-.001c-.083 0-.167 0-.247.022-.151.042-.295.109-.289.354.004.144-.007.289.003.432.01.146.033.294.201.351.112.038.226.069.346.069h.704c.248 0 .496.002.744-.001.083-.001.175-.013.212-.098.05-.115-.019-.202-.152-.202l-1.458-.001c-.033 0-.065.005-.098-.009-.049-.021-.077-.056-.076-.105.001-.052.053-.035.083-.05zm-.141-.388c0-.051.041-.092.092-.092h1.361c.051 0 .092.041.092.092a.092.092 0 0 1-.092.092h-1.361a.092.092 0 0 1-.092-.092zM449.231 173.713h.112a.091.091 0 0 1 0 .182h-.888l-.699-.001-.029.001a.152.152 0 0 0-.151.151c0 .083.068.151.151.151h.153c.241-.002.483-.001.724-.001.255 0 .51.003.765-.001a.432.432 0 0 0 .285-.09c.1-.086.142-.356.081-.491-.068-.15-.197-.2-.346-.202-.362-.004-.724-.001-1.087-.002h-.207c-.051 0-.092-.032-.092-.07s.041-.07.092-.07H449.477a.34.34 0 0 0 .126-.02c.104-.038.134-.082.109-.189-.018-.08-.084-.093-.155-.093-.476 0-.953.001-1.429-.001a1.67 1.67 0 0 0-.344.037c-.119.025-.182.093-.2.2a.75.75 0 0 0 0 .25c.018.101.073.177.187.204.113.027.225.052.34.053.375.004.747.002 1.12.002M444.44 173.713h.112a.091.091 0 0 1 0 .182h-.888l-.699-.001-.029.001a.152.152 0 0 0-.151.151c0 .083.068.151.151.151h.153c.241-.002.483-.001.724-.001.255 0 .51.003.765-.001a.432.432 0 0 0 .285-.09c.1-.086.142-.356.081-.491-.068-.15-.197-.2-.346-.202-.362-.004-.724-.001-1.087-.002h-.207c-.051 0-.092-.032-.092-.07s.041-.07.092-.07H444.686a.34.34 0 0 0 .126-.02c.103-.038.134-.082.109-.189-.018-.08-.084-.093-.155-.093-.476 0-.952.001-1.429-.001a1.67 1.67 0 0 0-.344.037c-.119.025-.182.093-.2.2a.75.75 0 0 0 0 .25c.018.101.073.177.187.204.113.027.225.052.34.053.375.004.747.002 1.12.002"/><g><path d="M392.321 174.725l-1.543-4.295h.57l1.035 3.12c.083.25.153.484.209.703.062-.234.133-.469.215-.703l1.075-3.12h.538l-1.56 4.295h-.539zM396.537 173.723l.505.067c-.08.318-.228.565-.442.741-.216.176-.491.264-.826.264-.422 0-.757-.14-1.004-.42s-.37-.673-.37-1.179c0-.523.125-.93.374-1.219.25-.289.574-.434.973-.434.386 0 .701.142.945.425s.367.682.367 1.195l-.003.141h-2.151c.018.342.107.604.269.785s.362.272.604.272c.179 0 .332-.051.459-.152s.226-.263.3-.486zm-1.605-.853h1.61c-.021-.262-.083-.458-.185-.589a.729.729 0 0 0-.605-.305.745.745 0 0 0-.566.243c-.153.163-.238.38-.254.651zM397.69 174.725v-3.111h.44v.472c.111-.221.216-.366.311-.437s.199-.105.313-.105a.91.91 0 0 1 .503.17l-.169.489a.66.66 0 0 0-.358-.114.45.45 0 0 0-.288.104.566.566 0 0 0-.182.289 2.184 2.184 0 0 0-.081.615v1.629h-.489zM400.731 173.591l.489-.07c.056.299.151.514.286.646s.3.198.493.198c.23 0 .424-.086.583-.258a.91.91 0 0 0 .237-.639c0-.242-.073-.442-.22-.599s-.333-.236-.56-.236c-.093 0-.208.02-.345.059l.054-.463a.96.96 0 0 0 .642-.17c.166-.117.25-.298.25-.542 0-.193-.062-.354-.183-.48s-.277-.19-.47-.19c-.19 0-.349.064-.476.193s-.208.322-.244.58l-.489-.094c.06-.354.196-.627.407-.822.212-.194.476-.292.791-.292.217 0 .417.05.601.151.183.101.322.238.419.412s.146.358.146.554a.954.954 0 0 1-.139.507.967.967 0 0 1-.41.363c.235.059.419.18.549.365.131.185.195.416.195.693 0 .375-.126.693-.38.954s-.574.391-.962.391c-.35 0-.64-.112-.87-.337-.23-.225-.361-.516-.394-.874zM406.227 170.357c.263 0 .478.098.643.293.166.195.249.465.249.809 0 .342-.084.61-.25.806a.804.804 0 0 1-.639.293c-.263 0-.477-.096-.644-.287s-.25-.458-.25-.8c0-.352.083-.625.249-.82a.798.798 0 0 1 .642-.294zm0 .389a.433.433 0 0 0-.354.167c-.089.111-.134.293-.134.545 0 .246.046.426.137.541a.432.432 0 0 0 .352.171c.146 0 .263-.057.354-.171s.136-.299.136-.555c0-.238-.046-.414-.137-.527a.437.437 0 0 0-.354-.171z"/><circle cx="399.696" cy="174.425" r=".3"/><circle cx="404.411" cy="172.611" r=".3"/></g></g></g><radialGradient id="c" cx="425.455" cy="158.891" r="16.541" gradientTransform="matrix(-.5 -.866 1.7321 -1 362.975 686.237)" gradientUnits="userSpaceOnUse"><stop offset="0" stop-color="#c9cdd0"/><stop offset=".398" stop-color="#82848a"/><stop offset=".808" stop-color="#3f3f48"/><stop offset="1" stop-color="#24242e"/></radialGradient><path d="M403.777 167.212c.558 1.454 10.716-1.092 22.688-5.688s21.225-9.5 20.667-10.954-10.716 1.092-22.688 5.688-21.225 9.5-20.667 10.954z" fill="url(#c)"/><radialGradient id="d" cx="399.242" cy="151.58" r="6.236" gradientTransform="matrix(.4932 -1.3704 -1.0426 -.7779 417.682 807.793)" gradientUnits="userSpaceOnUse"><stop offset="0" stop-color="#e3569b"/><stop offset=".106" stop-color="#d95395"/><stop offset=".288" stop-color="#bd4c86"/><stop offset=".524" stop-color="#91416c"/><stop offset=".801" stop-color="#543149"/><stop offset="1" stop-color="#24242e"/></radialGradient><path d="M461.725 144.257c-.238.831-2.752.839-5.614.018s-4.99-2.159-4.752-2.99c.238-.831 2.752-.839 5.614-.018 2.863.821 4.99 2.16 4.752 2.99z" fill="url(#d)"/><radialGradient id="e" cx="444.5" cy="138.254" r="6.236" gradientTransform="matrix(-.522 -.6888 .5145 -.6597 591.455 540.438)" gradientUnits="userSpaceOnUse"><stop offset="0" stop-color="#572e8c"/><stop offset=".233" stop-color="#3d378f"/><stop offset=".475" stop-color="#2b3d91"/><stop offset=".727" stop-color="#204193"/><stop offset="1" stop-color="#1c4293"/></radialGradient><path d="M427.629 144.986c.279.43 1.821-.076 3.444-1.13 1.623-1.054 2.713-2.257 2.434-2.687-.279-.43-1.821.076-3.444 1.13-1.623 1.054-2.713 2.257-2.434 2.687z" fill="url(#e)"/><radialGradient id="f" cx="414.039" cy="146.07" r="6.236" gradientTransform="matrix(1.1247 -.9438 -.3064 -.4177 -1.415 595.963)" gradientUnits="userSpaceOnUse"><stop offset="0" stop-color="#f35fa9"/><stop offset=".069" stop-color="#d557a3"/><stop offset=".196" stop-color="#a34b99"/><stop offset=".325" stop-color="#784090"/><stop offset=".456" stop-color="#563789"/><stop offset=".588" stop-color="#3b3184"/><stop offset=".721" stop-color="#272c80"/><stop offset=".857" stop-color="#1c297e"/><stop offset="1" stop-color="#18287d"/></radialGradient><path d="M423.388 148.637c-.651.566-2.912-.968-5.049-3.427-2.137-2.459-3.342-4.911-2.691-5.477.651-.566 2.912.968 5.049 3.427 2.137 2.459 3.342 4.911 2.691 5.477z" fill="url(#f)"/><radialGradient id="g" cx="399.185" cy="167.046" r="3.357" gradientTransform="matrix(-.3745 -1.0288 1.7985 -.6486 265.425 688.235)" gradientUnits="userSpaceOnUse"><stop offset="0" stop-color="#f35fa9"/><stop offset=".051" stop-color="#dd59a5"/><stop offset=".185" stop-color="#a94d9a"/><stop offset=".322" stop-color="#7d4191"/><stop offset=".458" stop-color="#58388a"/><stop offset=".594" stop-color="#3c3184"/><stop offset=".73" stop-color="#282c80"/><stop offset=".865" stop-color="#1c297e"/><stop offset="1" stop-color="#18287d"/></radialGradient><path d="M411.913 170.907c.124.323 2.22-.181 4.68-1.125 2.461-.945 4.355-1.972 4.231-2.296-.124-.323-2.22.181-4.68 1.125-2.46.945-4.355 1.973-4.231 2.296z" fill="url(#g)"/><radialGradient id="h" cx="431.696" cy="173.975" r="5.366" gradientTransform="matrix(-.5 .866 -2.5981 -1.5 1099.545 61.078)" gradientUnits="userSpaceOnUse"><stop offset="0" stop-color="#f35fa9"/><stop offset=".109" stop-color="#cc55a1"/><stop offset=".28" stop-color="#964896"/><stop offset=".447" stop-color="#693c8d"/><stop offset=".606" stop-color="#463386"/><stop offset=".755" stop-color="#2d2d81"/><stop offset=".891" stop-color="#1d297e"/><stop offset="1" stop-color="#18287d"/></radialGradient><path d="M437.136 179.267h-3.441a74.584 74.584 0 0 1-1.63-1.816c-3.744-4.307-6.308-8.208-5.727-8.713s4.087 2.577 7.831 6.884a68.823 68.823 0 0 1 2.967 3.645z" fill="url(#h)"/><radialGradient id="i" cx="442.656" cy="161.557" r="2.524" gradientTransform="matrix(-.5 .866 -2.5981 -1.5 1083.723 20.542)" gradientUnits="userSpaceOnUse"><stop offset="0" stop-color="#f35fa9"/><stop offset=".099" stop-color="#ec5da8"/><stop offset=".239" stop-color="#da59a4"/><stop offset=".405" stop-color="#bb519e"/><stop offset=".589" stop-color="#904695"/><stop offset=".79" stop-color="#5a388a"/><stop offset="1" stop-color="#18287d"/></radialGradient><path d="M444.668 161.738c.348.987 1.409 1.979.417 1.979-.48 0-2.338.06-3.5-.729-1.24-.842-1.771-2.55-1.771-3.063 0-.992 1.784-.281 2.776-.281.992 0 1.748 1.158 2.078 2.094z" fill="url(#i)"/><radialGradient id="j" cx="458.343" cy="157.321" r="7.739" gradientTransform="matrix(-.5 .866 -2.5981 -1.5 1096.246 -3.635)" gradientUnits="userSpaceOnUse"><stop offset="0" stop-color="#f35fa9"/><stop offset=".302" stop-color="#a84c9a"/><stop offset=".64" stop-color="#5b398a"/><stop offset=".881" stop-color="#2b2d81"/><stop offset="1" stop-color="#18287d"/></radialGradient><path d="M456.397 147.352c-.363.048-.443 1.651-.438 2.375.009 1.146.25 2.026.5 2.938.845 3.084.875 3.187.875 3.188.168.572.223.741.125.938-.346.697-1.87.242-3.188 1.25-.118.09-.504.385-.438.563.04.108.25.171.875.125 1.741-.129 2.563-.797 3.063-.438.198.142.224.358.313.813.224 1.146 1.502 5.646 1.625 6 .269.777.774 2.232 1.25 2.188.079-.007.251-.065.438-.563.92-2.455-1.435-7.342-1.625-8.25-.136-.65-.056-.866 0-.938.154-.198.351-.22 1.188-.375 1.046-.194 1.317-.266 1.563-.5.192-.183.409-.502.313-.688-.105-.202-.541-.162-.938-.125a5.875 5.875 0 0 0-1.688.438c-.528.235-.706.168-.896.083-.297-.133-.364-1.104-.411-1.393-.175-1.087-.386-1.369-.568-2.378-.38-2.107-1.411-5.321-1.938-5.251z" fill="url(#j)"/><radialGradient id="k" cx="409.532" cy="153.096" r="3.815" gradientTransform="matrix(-.5 .866 -2.5981 -1.5 1012.052 28.074)" gradientUnits="userSpaceOnUse"><stop offset="0" stop-color="#da2477"/><stop offset=".225" stop-color="#a82579"/><stop offset=".6" stop-color="#5b277b"/><stop offset=".868" stop-color="#2b287c"/><stop offset="1" stop-color="#18287d"/></radialGradient><path d="M405.022 150.383c-.219.297.211.942.25 1 .482.71 1.024.54 1.583 1.292.142.191.261.419.5.875.323.618.277.645.417.833.458.619 1.273.754 1.5.792.728.12.761-.076 1.5.052.592.102 1.518.594 2.5.719.576.073.711-.126.792-.229.158-.202-.202-.724-.25-.792-.513-.732-1.06-.589-1.708-1.292-.167-.181-.334-.468-.667-1.042-.586-1.01-.456-1.046-.667-1.208-.623-.478-1.285.205-2.625-.208a9.027 9.027 0 0 1-.875-.333c-.612-.269-.724-.395-1.125-.5-.235-.062-.917-.24-1.125.041z" fill="url(#k)"/><radialGradient id="l" cx="395.831" cy="143.378" r="4.135" gradientTransform="matrix(-.5 -.866 1.7321 -1 345.408 629.556)" gradientUnits="userSpaceOnUse"><stop offset="0" stop-color="#da2477"/><stop offset=".224" stop-color="#ac2578"/><stop offset=".76" stop-color="#42277c"/><stop offset="1" stop-color="#18287d"/></radialGradient><path d="M391.147 145.665c-.269-.173-.387-.648-.25-1 .226-.58.962-.357 1.5-1 .445-.532.15-.935.563-1.625.355-.593.903-.848 1.5-1.125.236-.109 2.323-1.08 3.25-.25.299.268.333.593.75.75.224.084.347.04 1 0 .753-.046 1.133-.066 1.25.063.26.285.042 1.048-.375 1.5-.333.36-.559.269-.813.625-.302.425-.099.722-.313 1.188-.206.449-.613.645-1.375 1-.955.444-2.12.671-2.75.63-1.244-.082-.909-.921-2-.786-.793.096-1.765.14-1.937.03z" fill="url(#l)"/></g></svg>