<svg xmlns="http://www.w3.org/2000/svg" viewBox="0 0 200.602 71.845"><path d="M91.908 28.59c1.665-.166 3.329-.402 5.008-.372 2.613-.059 5.206.364 7.766.846a35.441 35.441 0 0 1 5.515 1.84c2.003.787 3.853 1.984 5.31 3.577 1.246 1.185 2.069 2.783 2.392 4.465.096 1.622.299 3.344-.379 4.877-.514 1.344-1.151 2.687-2.209 3.693-1.588 1.606-3.612 2.679-5.62 3.663-1.209.62-2.443 1.191-3.717 1.661-2.303.828-4.592 1.706-6.962 2.326-2.508.63-4.919 1.574-7.355 2.427-3.054 1.053-5.995 2.512-8.505 4.565-.388.329-.601.807-.869 1.229.547.45 1.298.331 1.96.37 11.144-.022 22.288-.005 33.432-.008.539-.014 1.123-.025 1.608-.292.558-.352 1.089-.759 1.714-.994.243 1.276.15 2.586.178 3.879-.031 1.795.044 3.593-.077 5.385-.244.038-.487.077-.728.117-.44-.394-.783-.977-1.385-1.136-.687-.184-1.407-.168-2.109-.184-15.303.02-30.605-.001-45.909.012-.358.016-.771-.16-.853-.541-.128-1.947.43-3.865 1.154-5.652 1.225-2.945 3.739-5.051 6.131-7.041 1.667-1.115 3.446-2.06 5.249-2.937 1.032-.503 2.037-1.069 3.113-1.472 1.607-.616 3.18-1.315 4.803-1.89 2.29-.809 4.551-1.695 6.823-2.554 2.151-.845 4.296-1.732 6.305-2.882 1.574-.874 2.733-2.332 3.571-3.896.579-1.377-.117-2.95-1.039-3.997-2.434-2.149-5.779-2.721-8.911-2.938-4.718-.02-9.475 1.429-13.271 4.26-.666.519-1.426.973-1.889 1.702a8.283 8.283 0 0 0-.934 1.662c-.241.675.015 1.403-.017 2.094-.132.374-.668.31-.907.082-1.378-1.107-2.503-2.488-3.861-3.616-1.118-.941-2.079-2.05-3.19-2.998-.364-.381-.906-.734-.902-1.321.652-.247 1.4-.161 2.028-.492 1.339-.754 2.508-1.769 3.826-2.559 2.255-1.374 4.583-2.686 7.115-3.478 2.141-.71 4.345-1.27 6.597-1.482zM32.49 29.26c2.687-.524 5.413-.814 8.147-.933 3.045-.036 6.125-.08 9.123.535 1.724.242 3.391.76 5.058 1.245 1.796.602 3.454 1.548 5.066 2.526 1.907 1.293 3.549 3.124 4.183 5.381.305 1.447.434 2.986-.042 4.412-.318.905-.696 1.826-1.364 2.535-.641.731-1.54 1.148-2.375 1.612-.928.529-1.973.793-2.93 1.262.157.177.205.516.441.64 1.144.519 2.398.77 3.486 1.419 1.669.823 3.096 2.064 4.363 3.413.85 1.133 1.537 2.434 1.721 3.856.117.881.298 1.782.101 2.666-.308 1.707-1.006 3.41-2.252 4.649-1.814 1.869-4.149 3.134-6.516 4.164-2.301.882-4.689 1.559-7.13 1.924-4.731.771-9.551.624-14.322.438-3.227-.295-6.462-.649-9.615-1.424a50.493 50.493 0 0 1-7.25-2.544c-.831-.364-1.658-.771-2.565-.917-.745-.032-1.473.202-2.217.2-.262-.053-.499-.366-.363-.633.263-.691.679-1.305 1.058-1.933.968-1.562 1.906-3.141 2.88-4.699.433-.668.769-1.404 1.28-2.019.294-.353.947-.364 1.169.069.426.842.633 1.87 1.46 2.44 1.949 1.594 4.324 2.501 6.686 3.281 1.916.527 3.846 1.04 5.825 1.266 3.787.642 7.659.694 11.476.307 1.901-.307 3.814-.665 5.615-1.366 1.588-.572 2.919-1.764 3.808-3.182 1.051-1.695.186-4.039-1.398-5.073-2.166-1.785-4.997-2.416-7.713-2.768-2.223-.413-4.495-.345-6.746-.336a13.01 13.01 0 0 0-4.182.625c-.58.2-.982.769-1.597.88-.535-.195-.372-.864-.411-1.3.034-2.516-.087-5.04.081-7.551.912-.057 1.549.719 2.42.842 3.135.753 6.401.354 9.563-.004 1.779-.357 3.701-.544 5.195-1.684.832-.658 1.649-1.421 2.063-2.42.409-1.23-.144-2.598-1.078-3.433-.694-.602-1.488-1.078-2.313-1.474-1.854-.832-3.9-1.007-5.89-1.268-2.018-.216-4.041.012-6.049.22-2.727.249-5.394 1-7.916 2.058-1.497.64-2.921 1.473-4.164 2.527-.635.665-.67 1.618-.741 2.475-.016.435-.558.822-.934.52-2.29-2.029-4.261-4.389-6.48-6.492-.279-.31-.667-.573-.793-.99.031-.215.134-.409.216-.607.811.056 1.682.177 2.441-.202 2.084-1.023 4.068-2.246 6.192-3.189a43.86 43.86 0 0 1 6.229-1.946zM126.57 28.331c5.08-.201 10.168-.015 15.251-.101.499.043 1.089-.109 1.526.222-.247.477-.622.875-.843 1.368 1.641 1.854 3.499 3.5 5.141 5.355 1.867 1.946 3.794 3.833 5.668 5.773.28.299.742.687 1.157.395 1.113-.88 2.015-2 3.041-2.979 2.517-2.469 4.863-5.106 7.393-7.562.313-.368.85-.724.71-1.297-.236-.369-.517-.708-.719-1.097 1.242-.217 2.511-.164 3.768-.171 4.193.03 8.387-.009 12.581.007.398-.071.452.451.609.684-.881.388-1.849.515-2.723.917-1.422.618-2.359 1.925-3.457 2.967-1.647 1.599-3.154 3.336-4.789 4.947-2.19 2.226-4.405 4.427-6.578 6.669-.982 1.125-2.077 2.142-3.098 3.227-.246.268-.485.741-.217 1.07 1.012 1.32 2.349 2.334 3.436 3.588.967.876 1.742 1.936 2.662 2.858 2.543 2.575 5.1 5.136 7.63 7.725 1.39 1.551 2.893 2.996 4.342 4.491a6.086 6.086 0 0 0 2.876 1.727c.633.257 1.548.282 1.808 1.044-.924.193-1.873.177-2.808.186-3.991-.015-7.984-.017-11.974.002-.687-.039-1.407.074-2.053-.207.245-.422.647-.786.657-1.311-.152-.331-.434-.579-.668-.846-1.043-1.067-2.121-2.096-3.144-3.18-2.372-2.774-5.07-5.234-7.587-7.87-.55-.516-1.012-1.154-1.657-1.549-.633-.371-1.065.296-1.492.64-2.431 2.486-4.904 4.93-7.317 7.435-1.375 1.665-2.949 3.143-4.464 4.672-.263.28-.62.605-.456 1.049.163.299.363.578.552.863-.077.094-.153.189-.226.285-4.819.021-9.636-.004-14.454.017-.707-.033-1.437.053-2.114-.189.167-.304.355-.639.747-.68 1.123-.397 2.332-.65 3.258-1.466 1.268-1.135 2.407-2.411 3.622-3.605 3.648-3.977 7.65-7.61 11.239-11.642 1.087-.953 1.992-2.093 3.077-3.047a5.1 5.1 0 0 0 .922-1.101c.171-.597-.41-.962-.715-1.369-.49-.516-1.006-1.004-1.5-1.514-3.133-3.387-6.478-6.569-9.666-9.902-1.23-1.379-2.572-2.648-3.852-3.978-.635-.639-1.238-1.335-2.034-1.775-.843-.518-1.856-.584-2.751-.968-.33-.099-.275-.507-.317-.777z"/><path d="M93.569 27.044c1.665-.166 3.329-.402 5.008-.372 2.613-.059 5.206.364 7.766.846a35.441 35.441 0 0 1 5.515 1.84c2.003.787 3.853 1.984 5.31 3.577 1.246 1.185 2.069 2.783 2.392 4.465.096 1.622.299 3.344-.379 4.877-.514 1.344-1.151 2.687-2.209 3.693-1.588 1.606-3.612 2.679-5.62 3.663-1.209.62-2.443 1.191-3.717 1.661-2.303.828-4.592 1.706-6.962 2.326-2.508.63-4.919 1.574-7.355 2.427-3.054 1.053-5.995 2.512-8.505 4.565-.388.329-.601.807-.869 1.229.547.45 1.298.331 1.96.37 11.144-.022 22.288-.005 33.432-.008.539-.014 1.123-.025 1.608-.292.558-.352 1.089-.759 1.714-.994.243 1.276.15 2.586.178 3.879-.031 1.795.044 3.593-.077 5.385-.244.038-.487.077-.728.117-.44-.394-.783-.977-1.385-1.136-.687-.184-1.407-.168-2.109-.184-15.305.022-30.607.001-45.91.014-.358.016-.771-.16-.853-.541-.128-1.947.43-3.865 1.154-5.652 1.225-2.945 3.739-5.051 6.131-7.041 1.667-1.115 3.446-2.06 5.249-2.937 1.032-.503 2.037-1.069 3.113-1.472 1.607-.616 3.18-1.315 4.803-1.89 2.29-.809 4.551-1.695 6.823-2.554 2.151-.845 4.296-1.732 6.305-2.882 1.574-.874 2.733-2.332 3.571-3.896.579-1.377-.117-2.95-1.039-3.997-2.434-2.149-5.779-2.721-8.911-2.938-4.718-.02-9.475 1.429-13.271 4.26-.666.519-1.426.973-1.889 1.702a8.283 8.283 0 0 0-.934 1.662c-.241.675.015 1.403-.017 2.094-.132.374-.668.31-.907.082-1.378-1.107-2.503-2.488-3.861-3.616-1.118-.941-2.079-2.05-3.19-2.998-.364-.381-.906-.734-.902-1.321.652-.247 1.4-.161 2.028-.492 1.339-.754 2.508-1.769 3.826-2.559 2.255-1.374 4.583-2.686 7.115-3.478 2.142-.712 4.346-1.272 6.598-1.484zM34.15 27.715c2.687-.524 5.413-.814 8.147-.933 3.045-.036 6.125-.08 9.123.535 1.724.242 3.391.76 5.058 1.245 1.796.602 3.454 1.548 5.066 2.526 1.907 1.293 3.549 3.124 4.183 5.381.305 1.447.434 2.986-.042 4.412-.318.905-.696 1.826-1.364 2.535-.641.731-1.54 1.148-2.375 1.612-.928.529-1.973.793-2.93 1.262.157.177.205.516.441.64 1.144.519 2.398.77 3.486 1.419 1.669.823 3.096 2.064 4.363 3.413.85 1.133 1.537 2.434 1.721 3.856.117.881.298 1.782.101 2.666-.308 1.707-1.006 3.41-2.252 4.649-1.814 1.869-4.149 3.134-6.516 4.164-2.301.882-4.689 1.559-7.13 1.924-4.731.771-9.551.624-14.322.438-3.227-.295-6.462-.649-9.615-1.424a50.493 50.493 0 0 1-7.25-2.544c-.831-.364-1.658-.771-2.565-.917-.745-.032-1.473.202-2.217.2-.262-.053-.499-.366-.363-.633.263-.691.679-1.305 1.058-1.933.968-1.562 1.906-3.141 2.88-4.699.433-.668.769-1.404 1.28-2.019.294-.353.947-.364 1.169.069.426.842.633 1.87 1.46 2.44 1.949 1.594 4.324 2.501 6.686 3.281 1.916.527 3.846 1.04 5.825 1.266 3.787.642 7.659.694 11.476.307 1.901-.307 3.814-.665 5.615-1.366 1.588-.572 2.919-1.764 3.808-3.182 1.051-1.695.186-4.039-1.398-5.073-2.166-1.785-4.997-2.416-7.713-2.768-2.223-.413-4.495-.345-6.746-.336a13.01 13.01 0 0 0-4.182.625c-.58.2-.982.769-1.597.88-.535-.195-.372-.864-.411-1.3.034-2.516-.087-5.04.081-7.551.912-.057 1.549.719 2.42.842 3.135.753 6.401.354 9.563-.004 1.779-.357 3.701-.544 5.195-1.684.832-.658 1.649-1.421 2.063-2.42.409-1.23-.144-2.598-1.078-3.433-.694-.602-1.488-1.078-2.313-1.474-1.854-.832-3.9-1.007-5.89-1.268-2.018-.216-4.041.012-6.049.22-2.727.249-5.394 1-7.916 2.058-1.497.64-2.921 1.473-4.164 2.527-.635.665-.67 1.618-.741 2.475-.016.435-.558.822-.934.52-2.29-2.029-4.261-4.389-6.48-6.492-.279-.31-.667-.573-.793-.99.031-.215.134-.409.216-.607.811.056 1.682.177 2.441-.202 2.084-1.023 4.068-2.246 6.192-3.189a43.644 43.644 0 0 1 6.229-1.946z" fill="#0084e2"/><path d="M128.231 26.767c5.08-.201 10.168-.015 15.251-.101.499.043 1.089-.109 1.526.222-.247.477-.622.875-.843 1.368 1.641 1.854 3.499 3.5 5.141 5.355 1.867 1.946 3.794 3.833 5.668 5.773.28.299.742.687 1.157.395 1.113-.88 2.015-2 3.041-2.979 2.517-2.469 4.863-5.106 7.393-7.562.313-.368.85-.724.71-1.297-.236-.369-.517-.708-.719-1.097 1.242-.217 2.511-.164 3.768-.171 4.193.03 8.387-.009 12.581.007.398-.071.452.451.609.684-.881.388-1.849.515-2.723.917-1.422.618-2.359 1.925-3.457 2.967-1.647 1.599-3.154 3.336-4.789 4.947-2.19 2.226-4.405 4.427-6.578 6.669-.982 1.125-2.077 2.142-3.098 3.227-.246.268-.485.741-.217 1.07 1.012 1.32 2.349 2.334 3.436 3.588.967.876 1.742 1.936 2.662 2.858 2.543 2.575 5.1 5.136 7.63 7.725 1.39 1.551 2.893 2.996 4.342 4.491a6.086 6.086 0 0 0 2.876 1.727c.633.257 1.548.282 1.808 1.044-.924.193-1.873.177-2.808.186-3.991-.015-7.984-.017-11.974.002-.687-.039-1.407.074-2.053-.207.245-.422.647-.786.657-1.311-.152-.331-.434-.579-.668-.846-1.043-1.067-2.121-2.096-3.144-3.18-2.372-2.774-5.07-5.234-7.587-7.87-.55-.516-1.012-1.154-1.657-1.549-.633-.371-1.065.296-1.492.64-2.431 2.486-4.904 4.93-7.317 7.435-1.375 1.665-2.949 3.143-4.464 4.672-.263.28-.62.605-.456 1.049.163.299.363.578.552.863-.077.094-.153.189-.226.285-4.819.021-9.636-.004-14.454.017-.707-.033-1.437.053-2.114-.189.167-.304.355-.639.747-.68 1.123-.397 2.332-.65 3.258-1.466 1.268-1.135 2.407-2.411 3.622-3.605 3.648-3.977 7.65-7.61 11.239-11.642 1.087-.953 1.992-2.093 3.077-3.047a5.1 5.1 0 0 0 .922-1.101c.171-.597-.41-.962-.715-1.369-.49-.516-1.006-1.004-1.5-1.514-3.133-3.387-6.478-6.569-9.666-9.902-1.23-1.379-2.572-2.648-3.852-3.978-.635-.639-1.238-1.335-2.034-1.775-.843-.518-1.856-.584-2.751-.968-.33-.099-.275-.506-.317-.777z" fill="#ed0a0a"/><g><path fill="#ffe607" d="M0 0h200.602v20.344H0z"/><path d="M23.378 11.164h-2.99c-.185 0-.32.043-.412.13-.092.088-.167.242-.227.466h-.284V8.799h.284c.06.229.135.386.227.471.089.082.227.125.412.125h5.746v.298c-.213.061-.359.143-.444.242-.085.099-.124.246-.124.438v2.608c0 .192.039.339.121.438s.231.181.447.242v.233c-2.301 1.378-4.531 2.067-6.69 2.067-1.96 0-3.555-.488-4.79-1.462-1.555-1.229-2.333-2.937-2.333-5.122 0-2.036.689-3.656 2.074-4.861 1.314-1.142 3.061-1.714 5.241-1.714.689 0 1.342.067 1.957.199.611.134 1.31.359 2.092.676.401.168.689.251.859.251.124 0 .27-.071.433-.214l.249.14-1.424 3.045-.256-.14c-.007-.203-.032-.35-.082-.44-.046-.089-.153-.199-.32-.33-.359-.283-.888-.525-1.587-.726a7.169 7.169 0 0 0-1.978-.302c-1.268 0-2.315.373-3.15 1.116-.941.844-1.41 1.957-1.41 3.341 0 1.339.458 2.421 1.374 3.246.842.756 1.946 1.134 3.32 1.134.668 0 1.328-.08 1.981-.242.65-.162 1.211-.382 1.683-.661v-1.731zM45.05 10.158v3.483h7.798c.178 0 .312-.043.405-.13.096-.088.174-.242.234-.466h.284v3.287h-.284c-.06-.224-.138-.378-.234-.466-.092-.088-.227-.13-.405-.13H41.84v-.298c.213-.061.359-.143.44-.242.085-.099.128-.246.128-.438V4.003c0-.192-.043-.339-.128-.438-.082-.099-.227-.181-.44-.242v-.298h10.795c.178 0 .312-.045.405-.132.096-.089.174-.244.234-.464h.284v3.287h-.284c-.06-.222-.138-.374-.234-.464-.092-.088-.227-.132-.405-.132H45.05v3.017h4.922c.178 0 .312-.043.405-.13.096-.088.174-.242.234-.466h.284v3.213h-.284c-.06-.218-.138-.371-.234-.46-.092-.091-.227-.136-.405-.136H45.05zM72.28 7.029v7.729c0 .192.043.339.124.438s.231.181.444.242v.298H69.29v-.298c.213-.061.359-.143.44-.242.085-.099.128-.246.128-.438V3.993c0-.186-.043-.33-.128-.428-.082-.099-.227-.181-.44-.242v-.298h4.119v.298c-.256.069-.384.21-.384.428 0 .149.082.313.249.494l6.683 7.292V3.993c0-.186-.039-.33-.121-.428-.085-.099-.234-.181-.447-.242v-.298h3.562v.298c-.213.061-.362.143-.444.242-.082.099-.124.242-.124.428v10.765c0 .192.043.339.124.438.082.099.231.181.444.242v.298h-3.817v-.298c.249-.056.373-.19.373-.4 0-.125-.146-.341-.437-.652l-6.79-7.357zM101.981 10.158v3.483h7.798c.178 0 .312-.043.405-.13.096-.088.174-.242.234-.466h.284v3.287h-.284c-.06-.224-.138-.378-.234-.466-.092-.088-.227-.13-.405-.13H98.771v-.298c.213-.061.359-.143.44-.242.085-.099.128-.246.128-.438V4.003c0-.192-.043-.339-.128-.438-.082-.099-.227-.181-.44-.242v-.298h10.795c.178 0 .312-.045.405-.132.096-.089.174-.244.234-.464h.284v3.287h-.284c-.06-.222-.138-.374-.234-.464-.092-.088-.227-.132-.405-.132h-7.585v3.017h4.922c.178 0 .313-.043.405-.13.096-.088.174-.242.234-.466h.284v3.213h-.284c-.06-.218-.138-.371-.234-.46-.092-.091-.227-.136-.405-.136h-4.922zM137.492 4.101l-1.445 2.993-.249-.149c.007-.061.011-.112.011-.149 0-.21-.174-.438-.518-.68-1.051-.769-2.287-1.155-3.707-1.155-.629 0-1.183.08-1.662.242a1.966 1.966 0 0 0-.849.559 1.202 1.202 0 0 0-.323.808c0 .477.277.803.824.978.284.086.895.179 1.832.278l1.392.149c.827.093 1.499.222 2.01.382.511.162.966.387 1.364.68.401.304.721.704.955 1.199.234.497.352 1.028.352 1.592 0 .892-.277 1.687-.827 2.382-.497.631-1.268 1.101-2.319 1.404a8.875 8.875 0 0 1-2.511.345c-1.605 0-3.185-.404-4.748-1.211-.334-.162-.533-.242-.597-.242-.078 0-.199.069-.362.205l-.259-.14 1.314-3.12.259.13v.121c0 .279.124.536.38.773.384.359.98.671 1.786.931.803.261 1.566.391 2.287.391.788 0 1.46-.14 2.017-.419.309-.155.554-.359.739-.616a1.38 1.38 0 0 0 .273-.805c0-.421-.217-.723-.65-.901-.298-.125-.909-.238-1.825-.345l-1.371-.149c-.916-.099-1.562-.194-1.942-.283a4.902 4.902 0 0 1-1.136-.434 2.984 2.984 0 0 1-1.268-1.259c-.281-.503-.419-1.08-.419-1.732 0-1.075.352-1.963 1.058-2.665.923-.926 2.308-1.389 4.155-1.389.774 0 1.495.082 2.166.248.668.166 1.502.469 2.5.913.344.143.554.214.632.214.124 0 .27-.071.433-.214l.248.14zM158.067 14.759V3.993c0-.186-.043-.33-.128-.428-.082-.099-.227-.181-.44-.242v-.298h3.778v.298c-.213.056-.359.136-.44.237-.085.104-.128.248-.128.434v10.765c0 .192.046.341.131.441.085.104.231.183.437.238v.298h-3.778v-.298c.213-.061.359-.143.44-.242.085-.098.128-.245.128-.437zM188.361 4.101l-1.445 2.993-.249-.149c.007-.061.011-.112.011-.149 0-.21-.174-.438-.518-.68-1.051-.769-2.287-1.155-3.707-1.155-.629 0-1.183.08-1.662.242a1.966 1.966 0 0 0-.849.559 1.202 1.202 0 0 0-.323.808c0 .477.277.803.824.978.284.086.895.179 1.832.278l1.392.149c.827.093 1.499.222 2.01.382.511.162.966.387 1.364.68.401.304.721.704.955 1.199.234.497.352 1.028.352 1.592 0 .892-.277 1.687-.827 2.382-.497.631-1.268 1.101-2.319 1.404a8.875 8.875 0 0 1-2.511.345c-1.605 0-3.185-.404-4.748-1.211-.334-.162-.533-.242-.597-.242-.078 0-.199.069-.362.205l-.259-.14 1.314-3.12.259.13v.121c0 .279.124.536.38.773.384.359.98.671 1.786.931.803.261 1.566.391 2.287.391.788 0 1.459-.14 2.017-.419.309-.155.554-.359.739-.616a1.38 1.38 0 0 0 .273-.805c0-.421-.217-.723-.65-.901-.298-.125-.909-.238-1.825-.345l-1.371-.149c-.916-.099-1.562-.194-1.942-.283a4.902 4.902 0 0 1-1.136-.434 2.984 2.984 0 0 1-1.268-1.259c-.281-.503-.419-1.08-.419-1.732 0-1.075.352-1.963 1.058-2.665.923-.926 2.308-1.389 4.155-1.389.774 0 1.495.082 2.166.248.668.166 1.502.469 2.5.913.344.143.554.214.632.214.124 0 .27-.071.433-.214l.248.14z"/></g></svg>