<?xml version="1.0" encoding="utf-8"?>
<!-- Generator: Adobe Illustrator 16.0.0, SVG Export Plug-In . SVG Version: 6.00 Build 0)  -->
<!DOCTYPE svg PUBLIC "-//W3C//DTD SVG 1.1//EN" "http://www.w3.org/Graphics/SVG/1.1/DTD/svg11.dtd">
<svg version="1.1"
	 id="svg4511" xmlns:dc="http://purl.org/dc/elements/1.1/" xmlns:cc="http://creativecommons.org/ns#" xmlns:rdf="http://www.w3.org/1999/02/22-rdf-syntax-ns#" xmlns:svg="http://www.w3.org/2000/svg" xmlns:sodipodi="http://sodipodi.sourceforge.net/DTD/sodipodi-0.dtd" xmlns:inkscape="http://www.inkscape.org/namespaces/inkscape" sodipodi:docname="controller-only.svg" inkscape:version="0.92.1 r15371"
	 xmlns="http://www.w3.org/2000/svg" xmlns:xlink="http://www.w3.org/1999/xlink" x="0px" y="0px" width="422.289px"
	 height="486.385px" viewBox="0 0 422.289 486.385" enable-background="new 0 0 422.289 486.385" xml:space="preserve">
<sodipodi:namedview  id="base" inkscape:cy="195.03322" inkscape:cx="-357.04503" inkscape:zoom="0.35" fit-margin-left="0" borderopacity="1.0" fit-margin-top="0" bordercolor="#666666" pagecolor="#ffffff" showgrid="false" inkscape:window-maximized="1" inkscape:window-y="27" inkscape:window-x="0" inkscape:window-height="1016" inkscape:window-width="1920" fit-margin-bottom="0" fit-margin-right="0" inkscape:current-layer="layer1" inkscape:document-units="mm" inkscape:pageshadow="2" inkscape:pageopacity="0.0">
	</sodipodi:namedview>
<g id="layer1" transform="translate(-28.700307,-28.850277)" inkscape:label="Calque 1" inkscape:groupmode="layer">
	
		<g id="g5106" transform="matrix(2.2376732,0,0,2.2376732,-35.521598,-35.707211)" inkscape:export-ydpi="96" inkscape:export-xdpi="96">
		<path id="path67" inkscape:connector-curvature="0" fill="#FF0000" d="M96.965,113.462c-10.425,0-18.975-8.475-18.975-18.975
			c0-10.5,8.475-18.975,18.975-18.975c10.5,0,18.975,8.475,18.975,18.975C115.941,104.987,107.466,113.462,96.965,113.462z
			 M96.965,83.312c-6.15,0-11.175,5.025-11.175,11.175c0,6.15,5.025,11.175,11.175,11.175c6.15,0,11.175-5.025,11.175-11.175
			C108.14,88.337,103.115,83.312,96.965,83.312z"/>
		<path id="path69" inkscape:connector-curvature="0" fill="#FF5DDC" d="M160.416,114.662c-0.15,0-0.375,0-0.525,0l-28.8-3.75
			c-1.05-0.15-1.95-0.675-2.55-1.5c-0.6-0.825-0.9-1.875-0.75-2.85l3.75-28.8c0.3-2.1,2.25-3.675,4.35-3.375l28.8,3.75
			c1.05,0.15,1.95,0.675,2.55,1.5c0.6,0.825,0.9,1.875,0.75,2.85l-3.75,28.8C164.016,113.237,162.365,114.662,160.416,114.662z
			 M136.041,103.637l21,2.775l2.775-21l-21-2.775L136.041,103.637z"/>
		<path id="path73" inkscape:connector-curvature="0" fill="#027FE1" d="M97.49,66.062c-0.225,0-0.525,0-0.825-0.075
			c-2.1-0.45-3.45-2.475-3-4.575l6.15-29.475c0.45-2.1,2.475-3.45,4.575-3c2.1,0.45,3.45,2.475,3,4.575l-6.15,29.475
			C100.94,64.787,99.291,66.062,97.49,66.062L97.49,66.062z"/>
		<path id="path75" inkscape:connector-curvature="0" fill="#027FE1" d="M115.34,54.362c-0.225,0-0.525,0-0.825-0.075l-29.475-6.15
			c-2.1-0.45-3.45-2.475-3-4.575c0.45-2.1,2.475-3.45,4.575-3l29.475,6.15c2.1,0.45,3.45,2.475,3,4.575
			C118.716,53.087,117.141,54.362,115.34,54.362L115.34,54.362z"/>
		<path id="path77" inkscape:connector-curvature="0" fill="#8AEE49" d="M135.591,63.962c-0.975,0-1.875-0.375-2.55-0.975
			c-1.05-0.9-1.5-2.325-1.2-3.675l5.325-25.35c0.3-1.35,1.275-2.475,2.55-2.85c1.35-0.45,2.775-0.15,3.825,0.75l19.425,17.1
			c1.05,0.9,1.5,2.325,1.2,3.675c-0.3,1.35-1.275,2.475-2.55,2.925l-24.75,8.175C136.416,63.887,135.966,63.962,135.591,63.962
			L135.591,63.962z M143.315,42.062l-2.55,12.225l11.925-3.975L143.315,42.062z"/>
	</g>
	<path fill="#808080" d="M450.645,409.688c-0.667-31.383-1.511-41.283-4.362-53.36c-9.901-41.285-26.51-73.002-51.517-97.838
		c-33.394-33.222-73.162-36.236-120.815-9.061l-13.262,7.554c0,0-9.46,0-20.819,0c-11.354,0-20.819,0-20.819,0l-13.259-7.554
		c-47.653-27.183-87.427-24.161-120.819,9.061c-25.002,24.836-41.615,56.553-51.515,97.838c-2.859,12.077-3.691,21.979-4.361,53.36
		c-1.18,45.979,0.501,61.922,7.717,76.681c8.222,17.124,25.168,28.866,41.11,28.866c19.296,0,53.194-26.015,77.187-59.23
		l10.239-14.103h74.513h74.517l10.243,14.103c23.994,33.217,57.89,59.23,77.188,59.23c15.942,0,32.889-11.742,41.116-28.866
		C450.141,471.61,451.826,455.664,450.645,409.688z M184.344,349.61h-22.662v22.65c0,7.054-5.871,12.918-12.914,12.918
		c-7.05,0-12.928-5.864-12.928-12.918v-22.65h-22.65c-7.046,0-12.917-5.878-12.917-12.924s5.871-12.924,12.917-12.924h22.651
		v-22.649c0-7.049,5.875-12.924,12.928-12.924c7.043,0,12.914,5.875,12.914,12.924v22.649h22.662
		c7.042,0,12.921,5.871,12.921,12.924C197.093,343.901,191.387,349.61,184.344,349.61z M351.141,278.797
		c10.907,0,19.803,8.896,19.803,19.803c0,10.905-8.896,19.798-19.803,19.798c-10.913,0-19.802-8.886-19.802-19.798
		C331.508,287.692,340.227,278.797,351.141,278.797z M286.87,317.06c0-10.91,8.893-19.804,19.804-19.804
		c10.908,0,19.794,8.894,19.794,19.804c0,10.911-8.886,19.799-19.794,19.799C295.763,336.859,286.87,327.972,286.87,317.06z
		 M327.976,384.011c-10.906,0-19.791-8.896-19.791-19.799c0-10.905,8.885-19.799,19.791-19.799c10.914,0,19.806,8.891,19.806,19.799
		C347.781,375.115,338.888,384.011,327.976,384.011z M369.592,364.212c-10.905,0-19.799-8.896-19.799-19.799
		c0-10.91,8.894-19.805,19.799-19.805c10.913,0,19.805,8.895,19.805,19.805C389.396,355.482,380.502,364.212,369.592,364.212z"/>
</g>
</svg>
