<svg enable-background="new 0 0 171.16 105.162" viewBox="0 0 171.16 105.162" xmlns="http://www.w3.org/2000/svg" xmlns:xlink="http://www.w3.org/1999/xlink"><linearGradient id="a" gradientTransform="matrix(167.9382 0 0 -167.9382 79817.3594 -36673.1211)" gradientUnits="userSpaceOnUse" x1="-475.2686" x2="-474.2686" y1="-218.6858" y2="-218.6858"><stop offset="0" stop-color="#181817"/><stop offset="1" stop-color="#161615"/></linearGradient><linearGradient id="b"><stop offset="0" stop-color="#252525"/><stop offset="1"/></linearGradient><linearGradient id="c" gradientTransform="matrix(4.2788 4.2788 4.2788 -4.2788 2974.4009 1101.4486)" gradientUnits="userSpaceOnUse" x1="-475.2686" x2="-474.2686" xlink:href="#b" y1="-218.6857" y2="-218.6857"/><linearGradient id="d" gradientTransform="matrix(4.2788 4.2788 4.2788 -4.2788 2974.4009 1195.1589)" gradientUnits="userSpaceOnUse" x1="-475.2686" x2="-474.2687" xlink:href="#b" y1="-218.6857" y2="-218.6857"/><linearGradient id="e" gradientTransform="matrix(4.2788 4.2788 4.2788 -4.2788 3130.928 1195.1589)" gradientUnits="userSpaceOnUse" x1="-475.2686" x2="-474.2686" xlink:href="#b" y1="-218.6857" y2="-218.6857"/><linearGradient id="f" gradientTransform="matrix(4.2788 4.2788 4.2788 -4.2788 3130.928 1101.4486)" gradientUnits="userSpaceOnUse" x1="-475.2686" x2="-474.2686" xlink:href="#b" y1="-218.6857" y2="-218.6857"/><linearGradient id="g" gradientTransform="matrix(4.2788 4.2788 4.2788 -4.2788 3052.7195 1182.7223)" gradientUnits="userSpaceOnUse" x1="-475.2686" x2="-474.2687" xlink:href="#b" y1="-218.6858" y2="-218.6858"/><path d="m168.949 67.348c1.515 1.557 1.99 2.076 1.99 2.076s.259.173.216.908 0 24.178 0 24.912c0 .735-.216.735-.433.995-.216.26-1.773 2.076-1.773 2.076z" fill="#111"/><path d="m2.211 67.348c-1.514 1.557-1.99 2.076-1.99 2.076s-.259.173-.216.908 0 24.178 0 24.912c0 .735.216.735.432.995s1.773 2.076 1.773 2.076v-30.967z" fill="#111"/><path d="m166.442 0h-161.793c-1.69 0-3.072 1.383-3.072 3.073v99.017c0 1.689 1.382 3.072 3.072 3.072h161.793c1.689 0 3.072-1.383 3.072-3.072v-99.017c0-1.69-1.382-3.073-3.072-3.073zm-121.489 102.919c-2.01 0-3.639-1.629-3.639-3.639s1.629-3.639 3.639-3.639 3.639 1.629 3.639 3.639-1.629 3.639-3.639 3.639zm4.723-46.234c-5.046 0-9.136-4.09-9.136-9.136s4.09-9.135 9.136-9.135c5.045 0 9.136 4.09 9.136 9.135s-4.092 9.136-9.136 9.136zm15.638 41.821c0 .724-.593 1.316-1.316 1.316h-4.024c-.725 0-1.317-.593-1.317-1.316v-3.638c0-.725.593-1.316 1.317-1.316h4.024c.724 0 1.316.592 1.316 1.316zm33.959-51.217c0 .07-.139.127-.308.127h-26.771c-.169 0-.307-.057-.307-.127v-5.187c0-.07.138-.127.307-.127h26.771c.169 0 .308.057.308.127zm13.231 51.217c0 .724-.592 1.316-1.316 1.316h-4.024c-.725 0-1.317-.593-1.317-1.316v-3.638c0-.725.593-1.316 1.317-1.316h4.024c.725 0 1.316.592 1.316 1.316zm13.703 4.413c-2.009 0-3.639-1.629-3.639-3.639s1.63-3.639 3.639-3.639c2.01 0 3.64 1.629 3.64 3.639s-1.63 3.639-3.64 3.639zm-4.723-46.234c-5.045 0-9.135-4.09-9.135-9.136s4.09-9.135 9.135-9.135c5.046 0 9.136 4.09 9.136 9.135s-4.09 9.136-9.136 9.136z" fill="url(#a)"/><path d="m49.676 26.788c-11.468 0-20.765 9.297-20.765 20.765s9.297 20.765 20.765 20.765 20.765-9.296 20.765-20.765c0-11.468-9.297-20.765-20.765-20.765zm0 34.231c-7.438 0-13.467-6.029-13.467-13.466s6.029-13.466 13.467-13.466 13.466 6.029 13.466 13.466-6.028 13.466-13.466 13.466z"/><path d="m121.484 21.123c-14.597 0-26.43 11.833-26.43 26.429s11.833 26.43 26.43 26.43 26.43-11.833 26.43-26.43-11.833-26.429-26.43-26.429zm0 39.892c-7.438 0-13.466-6.029-13.466-13.466s6.028-13.466 13.466-13.466c7.437 0 13.467 6.029 13.467 13.466s-6.029 13.466-13.467 13.466z"/><path d="m121.484 37.922c-5.316 0-9.627 4.31-9.627 9.627s4.311 9.627 9.627 9.627c5.317 0 9.628-4.31 9.628-9.627s-4.311-9.627-9.628-9.627zm.589 17.655v-1.753h-1.144v1.756c-2.547-.174-4.77-1.53-6.119-3.526l1.521-.878-.572-.99-1.521.878c-.516-1.062-.806-2.254-.806-3.514 0-1.27.294-2.47.817-3.538l1.504.868.571-.99-1.5-.866c1.35-1.981 3.56-3.327 6.093-3.503v1.711h1.144v-1.712c2.528.18 4.734 1.524 6.082 3.503l-1.484.856.572.991 1.486-.858c.523 1.068.817 2.268.817 3.537 0 1.252-.285 2.438-.796 3.495l-1.503-.868-.571.99 1.505.87c-1.341 1.997-3.555 3.357-6.096 3.541z" fill="#e2e2df"/><path d="m49.676 37.922c-5.317 0-9.628 4.31-9.628 9.627s4.311 9.627 9.628 9.627 9.627-4.31 9.627-9.627c-.001-5.317-4.31-9.627-9.627-9.627zm.554 17.658v-1.756h-1.144v1.753c-2.54-.184-4.755-1.544-6.098-3.541l1.506-.87-.572-.99-1.503.868c-.51-1.057-.796-2.242-.796-3.495 0-1.269.295-2.469.818-3.537l1.486.858.573-.99-1.483-.856c1.347-1.979 3.553-3.323 6.081-3.503v1.711h1.144v-1.712c2.533.176 4.744 1.521 6.094 3.503l-1.501.866.572.99 1.503-.868c.523 1.068.818 2.268.818 3.538 0 1.26-.29 2.452-.806 3.514l-1.522-.878-.571.99 1.521.878c-1.35 1.997-3.572 3.353-6.12 3.527z" fill="#e2e2df"/><path d="m144.702 105.162c-1.052-4.787-4.57-21.569-4.946-23.224-.387-1.703-1.084-3.097-3.252-3.097-2.167 0-99.68 0-101.848 0s-2.864 1.394-3.252 3.097c-.376 1.654-3.895 18.437-4.946 23.224h1.612c1.272-5.864 4.179-19.609 4.657-21.9.535-2.563 1.084-3.097 3.252-3.097s97.034 0 99.202 0c2.167 0 2.716.534 3.251 3.097.479 2.291 3.386 16.036 4.658 21.9z" fill="#111"/><path d="m10.287 5.726c0 1.671-1.354 3.026-3.025 3.026s-3.026-1.355-3.026-3.026 1.355-3.026 3.025-3.026 3.026 1.355 3.026 3.026z" fill="url(#c)"/><circle cx="7.261" cy="99.436" fill="url(#d)" r="3.025"/><path d="m160.762 99.436c0-1.671 1.355-3.025 3.026-3.025s3.025 1.354 3.025 3.025-1.354 3.025-3.025 3.025-3.026-1.354-3.026-3.025z" fill="url(#e)"/><path d="m160.762 5.726c0 1.671 1.355 3.026 3.026 3.026s3.025-1.355 3.025-3.026-1.353-3.026-3.024-3.026-3.027 1.355-3.027 3.026z" fill="url(#f)"/><circle cx="85.58" cy="87" fill="url(#g)" r="3.025"/><path clip-rule="evenodd" d="m158.833 14.732c-.144-.165-5.323-5.571-5.546-5.809-.155-.167-.408-.171-.408-.171h-134.597s-.253.004-.409.171c-.223.238-5.402 5.644-5.546 5.809-.223.256-.178.418-.178.418v57.916c0 .241.198.438.439.438h145.983c.241 0 .438-.197.438-.438v-57.915c.001 0 .046-.162-.176-.419zm-26.233 32.817c0 6.114-5.002 11.116-11.116 11.116h-71.808c-6.113 0-11.115-5.002-11.115-11.116s5.002-11.116 11.115-11.116h71.809c6.113 0 11.115 5.002 11.115 11.116z" fill="#eef3f6" fill-rule="evenodd"/><path d="m99.39 41.635h-27.62c-.175 0-.317.064-.317.143v5.836c0 .079.143.143.317.143h27.62c.174 0 .316-.064.316-.143v-5.836c.001-.079-.142-.143-.316-.143zm-.117 5.654c0 .07-.139.127-.308.127h-26.771c-.169 0-.307-.057-.307-.127v-5.187c0-.07.138-.127.307-.127h26.771c.169 0 .308.057.308.127z" fill="#111"/><path clip-rule="evenodd" d="m121.484 36.433c-6.139 0-65.67 0-71.809 0s-11.115 4.977-11.115 11.116 4.977 11.116 11.115 11.116 65.67 0 71.809 0c6.14 0 11.116-4.977 11.116-11.116s-4.976-11.116-11.116-11.116zm-71.826 20.252c-5.055 0-9.153-4.098-9.153-9.153s4.099-9.153 9.153-9.153 9.153 4.098 9.153 9.153-4.098 9.153-9.153 9.153zm50.049-9.071c0 .079-.143.143-.316.143h-27.621c-.175 0-.317-.064-.317-.143v-5.836c0-.079.143-.143.317-.143h27.62c.174 0 .316.064.316.143v5.836zm21.777 9.071c-5.056 0-9.153-4.098-9.153-9.153s4.098-9.153 9.153-9.153 9.153 4.098 9.153 9.153-4.098 9.153-9.153 9.153z" fill="#161615" fill-rule="evenodd"/><g fill="#f46169"><path d="m32.911 20.251h-1.805l4.295-7.438c.829-1.443 2.375-2.339 4.038-2.339h8.875l-.902 1.563h-7.973c-1.106 0-2.135.597-2.684 1.556zm4.833-6.09c.348-.607.997-.984 1.695-.984h7.314l.391-.676h-7.705c-.939 0-1.814.508-2.281 1.323l-3.711 6.427h.78zm.683 2.87h6.102l1.055-1.827.321-.556.581-1.006h-7.047c-.532 0-1.027.288-1.292.75l-3.384 5.86h1.805zm-13.864 0-.001.019c-.015.048-.08.187-.31.573-.486.816-.983 1.835-.984 3.21 0 2.567 2.089 4.655 4.656 4.655h17.726l-1.841 3.187h1.805l1.445-2.503c.136-.228.207-.49.207-.758 0-.82-.667-1.488-1.488-1.488h-17.853c-1.706 0-3.093-1.388-3.093-3.093 0-.938.305-1.642.763-2.41.427-.716.534-.962.534-1.465 0-.82-.668-1.488-1.488-1.488h-5.235l.901 1.562zm21.215 5.754h-17.854c-1.076 0-1.952-.876-1.952-1.953 0-.595.163-1.09.603-1.827.472-.792.694-1.252.694-2.049 0-1.449-1.179-2.628-2.628-2.628h-7.2l-.255-.44-1.707.772 2.643.847-.291-.503h6.811c1.076 0 1.952.876 1.952 1.953 0 .606-.135.924-.599 1.703-.502.842-.698 1.452-.698 2.173 0 1.449 1.18 2.628 2.629 2.628h17.854c1.077 0 1.953.876 1.953 1.953 0 .351-.095.695-.274.999l-1.307 2.263h.78l1.109-1.921c.239-.405.367-.868.367-1.34-.001-1.451-1.181-2.63-2.63-2.63zm-16.184 3.209h-1.804l-1.548 2.68h1.805zm-.23 2.681 1.548-2.68h-.78l-1.548 2.68zm3.888-2.681h-1.804l-1.548 2.68h1.804zm12.526-5.236h-17.777c.01-.114.059-.286.314-.715.556-.932.979-1.751.979-3.087 0-2.567-2.088-4.655-4.655-4.655h-.122l-1.029 1.03-1.029-1.03h-4.883l.901 1.563h6.162c1.706 0 3.093 1.388 3.093 3.093 0 .944-.287 1.494-.76 2.287-.396.665-.537 1.081-.537 1.589 0 .82.668 1.488 1.488 1.488h17.854c1.705 0 3.093 1.387 3.093 3.093 0 .554-.148 1.097-.43 1.572l-.975 1.689h1.804l.521-.901c.42-.714.643-1.53.643-2.36 0-2.568-2.088-4.656-4.655-4.656zm-20.746-8.655-1.544-1.543-1.543 1.543h.717l.826-.827.827.827z"/><path d="m24.545 68.607h1.077c.386 0 .677.126.872.379.183.233.273.538.273.92s-.091.687-.273.92c-.2.253-.49.379-.872.379h-1.077zm.455 2.227h.447c.327 0 .561-.089.701-.266.109-.145.164-.365.164-.664 0-.297-.055-.516-.164-.658-.136-.179-.369-.268-.701-.268h-.447z"/><path d="m28.017 69.665-.178.044c-.13.057-.22.165-.272.326-.027.08-.041.172-.041.274v.896h-.414v-1.881h.389v.363h.007c.024-.099.091-.195.198-.283.108-.086.226-.131.352-.131l.156.011v.401z"/><path d="m29.551 69.856c0-.169-.123-.256-.37-.256-.112 0-.207.026-.282.075-.074.048-.117.122-.129.223h-.413c.013-.221.107-.386.283-.494.141-.088.331-.131.573-.131.333 0 .562.099.687.291.043.07.065.155.065.258v.963l.019.11.078.032h.046l.056-.006v.287c-.095.032-.184.049-.265.049-.196 0-.31-.079-.341-.231-.079.08-.177.141-.291.175-.113.036-.218.054-.313.057-.194 0-.354-.049-.48-.146-.125-.094-.188-.23-.185-.407 0-.209.077-.359.231-.453.101-.061.266-.104.491-.129l.215-.032.172-.03c.103-.031.153-.098.153-.205zm-.847.827.119.187.226.058c.212 0 .363-.062.457-.19l.046-.165v-.309c-.063.042-.162.068-.299.08s-.249.032-.337.063c-.142.043-.212.136-.212.276z"/><path d="m31.737 69.585v-.261h.414v1.782c0 .283-.079.496-.237.635-.159.141-.388.211-.686.211-.353 0-.602-.104-.746-.31-.053-.074-.084-.166-.094-.276h.413c.032.142.132.225.299.248l.152.009c.326 0 .487-.157.484-.468v-.279h-.006c-.059.103-.138.185-.238.243-.103.056-.22.086-.353.086-.264 0-.467-.095-.607-.281s-.212-.417-.21-.69c.001-.275.078-.504.231-.685.153-.185.362-.275.625-.275.265 0 .448.103.552.312h.007zm-.892.226c-.073.115-.11.26-.11.434 0 .175.043.323.129.444.085.124.211.188.377.188s.29-.064.371-.19c.084-.127.125-.279.125-.458s-.041-.327-.125-.445c-.083-.123-.208-.184-.378-.184s-.299.073-.389.211z"/><path d="m32.483 70.267c0-.297.085-.536.256-.719.169-.185.401-.277.695-.277.293 0 .524.093.691.277.17.181.254.42.254.715s-.084.534-.255.719c-.17.183-.401.275-.693.275-.15 0-.284-.026-.401-.075-.238-.1-.399-.272-.483-.518-.043-.121-.064-.254-.064-.397zm1.484-.004c0-.289-.099-.49-.295-.603-.067-.04-.147-.061-.24-.061s-.173.021-.24.061c-.191.112-.29.313-.295.603 0 .181.046.337.138.468s.223.196.396.196c.174 0 .306-.065.398-.194.092-.131.138-.287.138-.47z"/><path d="m34.727 69.324h.393v.276l.007.009c.063-.104.145-.187.247-.245.102-.061.215-.091.339-.091.206 0 .368.055.486.159.117.108.178.269.179.481v1.291h-.414v-1.183c-.005-.148-.036-.255-.094-.321-.059-.066-.152-.101-.283-.101-.13 0-.237.049-.319.145-.082.093-.124.211-.126.35v1.11h-.414v-1.88z"/><path d="m37.884 68.607h1.077c.385 0 .676.126.872.379.183.233.273.538.273.92s-.091.687-.273.92c-.201.253-.491.379-.872.379h-1.077zm.455 2.227h.448c.327 0 .56-.089.7-.266.109-.145.165-.365.165-.664 0-.297-.056-.516-.165-.658-.135-.179-.368-.268-.7-.268h-.448z"/><path d="m41.612 69.856c0-.169-.123-.256-.37-.256-.112 0-.207.026-.282.075-.074.048-.117.122-.128.223h-.414c.014-.221.107-.386.283-.494.141-.088.331-.131.573-.131.333 0 .563.099.687.291.043.07.065.155.065.258v.963l.019.11.079.032h.045l.056-.006v.287c-.095.032-.184.049-.265.049-.195 0-.31-.079-.34-.231-.08.08-.177.141-.292.175-.113.036-.218.054-.313.057-.194 0-.354-.049-.48-.146-.125-.094-.188-.23-.185-.407 0-.209.077-.359.231-.453.102-.061.266-.104.491-.129l.215-.032.172-.03c.102-.031.153-.098.153-.205zm-.848.827.119.187.226.058c.212 0 .363-.062.457-.19l.046-.165v-.309c-.063.042-.162.068-.299.08s-.249.032-.337.063c-.141.043-.212.136-.212.276z"/><path d="m43.065 71.223c-.171 0-.289-.036-.357-.108-.068-.07-.105-.193-.109-.366v-1.096h-.315v-.329h.315v-.544h.413v.544h.375v.329h-.375v.987c0 .093.008.153.025.181l.169.072.181-.014v.321c-.139.015-.246.023-.322.023z"/><path d="m44.844 69.856c0-.169-.123-.256-.37-.256-.112 0-.207.026-.282.075-.074.048-.117.122-.129.223h-.413c.013-.221.107-.386.283-.494.141-.088.331-.131.573-.131.333 0 .562.099.687.291.043.07.065.155.065.258v.963l.019.11.078.032h.046l.056-.006v.287c-.095.032-.184.049-.265.049-.196 0-.31-.079-.341-.231-.079.08-.177.141-.291.175-.113.036-.218.054-.313.057-.194 0-.354-.049-.48-.146-.125-.094-.188-.23-.185-.407 0-.209.077-.359.231-.453.101-.061.266-.104.491-.129l.215-.032.172-.03c.103-.031.153-.098.153-.205zm-.847.827.119.187.226.058c.212 0 .363-.062.457-.19l.046-.165v-.309c-.063.042-.162.068-.299.08s-.249.032-.338.063c-.141.043-.211.136-.211.276z"/><path d="m46.775 68.607h.454v2.206h1.321v.392h-1.775z"/><path d="m49.396 71.223c-.171 0-.289-.036-.357-.108-.068-.07-.105-.193-.109-.366v-1.096h-.315v-.329h.315v-.544h.413v.544h.375v.329h-.375v.987c0 .093.008.153.025.181l.169.072.181-.014v.321c-.139.015-.246.023-.322.023z"/><path d="m51.385 70.95c-.104.205-.306.308-.604.308-.134 0-.256-.026-.365-.079-.215-.1-.361-.276-.438-.531-.036-.121-.055-.26-.055-.416.002-.305.082-.542.24-.709.159-.168.348-.251.563-.251s.389.057.519.165l.119.131h.008v-.96h.413v2.598h-.393v-.256zm-.913-.209c.09.125.22.188.389.187.171-.002.301-.065.39-.198.09-.133.135-.293.135-.488 0-.194-.046-.349-.141-.464-.094-.116-.224-.177-.393-.177-.168 0-.3.072-.396.218-.079.116-.118.269-.118.453s.045.341.134.469z"/><path d="m53.168 69.906c0-.382.111-.701.331-.958.106-.122.236-.223.392-.295.153-.072.328-.108.521-.108.378 0 .68.133.906.394.227.265.34.586.34.968 0 .297-.067.558-.201.787l-.168.209.335.293-.222.247-.379-.332c-.178.103-.372.153-.584.155-.213 0-.396-.036-.549-.106-.308-.145-.52-.386-.637-.727-.057-.166-.085-.34-.085-.527zm1.809.723c.15-.181.226-.413.226-.698s-.066-.526-.197-.721c-.132-.195-.329-.294-.592-.294-.264 0-.463.099-.595.296-.133.196-.199.43-.198.698.002.267.067.498.198.692.13.195.328.291.593.291.109 0 .206-.02.291-.062l-.261-.229.219-.251z"/><path d="m57.663 71.205h-.406v-.261h-.007c-.052.094-.128.171-.228.227-.101.059-.203.087-.308.087-.248 0-.427-.061-.537-.184-.109-.124-.164-.309-.164-.558v-1.192h.413v1.152c0 .164.032.281.097.35.063.067.146.102.245.102.172 0 .297-.046.371-.134.073-.091.11-.217.11-.378v-1.092h.413v1.881z"/><path d="m58.918 69.273c.147 0 .281.03.397.093.237.124.392.323.463.597.035.132.044.269.026.409h-1.383c0 .156.045.289.132.397.088.108.213.16.376.158.231 0 .384-.104.457-.313h.393c-.042.202-.145.361-.305.476-.153.11-.335.167-.545.167-.288 0-.515-.091-.677-.271-.164-.183-.246-.416-.244-.703.001-.282.084-.521.251-.716s.386-.294.659-.294zm.472.825c-.016-.217-.109-.369-.282-.453l-.192-.045-.196.041c-.119.052-.204.138-.254.263l-.044.194z"/><path d="m60.939 69.273c.148 0 .281.03.398.093.236.124.391.323.462.597.035.132.045.269.026.409h-1.382c0 .156.044.289.131.397.088.108.213.16.376.158.231 0 .384-.104.457-.313h.393c-.042.202-.145.361-.305.476-.152.11-.334.167-.545.167-.288 0-.515-.091-.677-.271-.164-.183-.246-.416-.244-.703.001-.282.085-.521.251-.716.168-.195.387-.294.659-.294zm.474.825c-.017-.217-.109-.369-.283-.453l-.193-.045-.196.041c-.118.052-.204.138-.254.263l-.043.194z"/><path d="m62.144 69.324h.393v.276l.007.009c.063-.104.145-.187.247-.245.102-.061.215-.091.339-.091.206 0 .368.055.486.159.117.108.178.269.179.481v1.291h-.414v-1.183c-.005-.148-.036-.255-.094-.321-.059-.066-.153-.101-.283-.101s-.237.049-.319.145c-.082.093-.125.211-.127.35v1.11h-.413v-1.88z"/><path d="m64.972 69.6c-.26 0-.389.064-.389.193 0 .09.064.156.191.202.057.021.155.045.297.072.141.028.252.057.335.083.264.088.396.253.396.493 0 .207-.092.366-.275.475-.149.088-.338.134-.564.139-.381 0-.636-.123-.767-.368-.042-.08-.064-.177-.065-.289h.414c.012.121.058.205.138.253.081.051.176.074.287.074.188 0 .313-.038.382-.118l.037-.129c-.005-.096-.07-.168-.196-.214-.058-.019-.154-.043-.29-.068-.259-.051-.445-.119-.561-.203-.114-.082-.172-.213-.172-.39 0-.181.089-.319.265-.417.137-.077.311-.115.52-.115.33 0 .563.103.697.312.048.072.078.16.09.265h-.433c-.021-.096-.065-.164-.137-.196z"/><path d="m65.948 69.324h.438l.368 1.405h.006l.355-1.405h.419l.337 1.405h.007l.382-1.405h.423l-.59 1.881h-.426l-.348-1.396h-.004l-.346 1.396h-.44z"/><path d="m70.109 69.856c0-.169-.123-.256-.37-.256-.112 0-.207.026-.282.075-.074.048-.117.122-.128.223h-.414c.013-.221.107-.386.283-.494.141-.088.331-.131.573-.131.333 0 .563.099.687.291.043.07.065.155.065.258v.963l.019.11.078.032h.046l.056-.006v.287c-.095.032-.184.049-.265.049-.196 0-.31-.079-.341-.231-.079.08-.176.141-.291.175-.113.036-.218.054-.313.057-.194 0-.354-.049-.48-.146-.125-.094-.188-.23-.185-.407 0-.209.077-.359.231-.453.101-.061.266-.104.491-.129l.215-.032.172-.03c.102-.031.153-.098.153-.205zm-.848.827.119.187.226.058c.212 0 .363-.062.457-.19l.046-.165v-.309c-.063.042-.162.068-.299.08s-.249.032-.337.063c-.141.043-.212.136-.212.276z"/><path d="m71.166 71.604c.104 0 .178-.05.223-.152l.04-.108.048-.145-.714-1.875h.455l.492 1.405h.007l.476-1.405h.434l-.731 1.981-.102.247-.118.202c-.104.131-.253.195-.447.197-.096 0-.192-.008-.287-.022v-.35c.119.017.194.025.224.025z"/><path d="m73.926 68.607h1.793v.392h-1.337v.682h1.174v.37h-1.174v1.154h-.456z"/><path d="m76.781 68.936-.157.04-.06.154v.193h.353v.329h-.353v1.552h-.414v-1.552h-.31v-.329h.311v-.157c0-.217.054-.371.16-.461.08-.064.193-.099.339-.099s.251.01.312.026v.325z"/><path d="m77.085 70.267c0-.297.085-.536.256-.719.17-.185.401-.277.696-.277.293 0 .523.093.691.277.17.181.254.42.254.715s-.084.534-.255.719c-.171.183-.401.275-.694.275-.15 0-.283-.026-.401-.075-.237-.1-.399-.272-.482-.518-.044-.121-.065-.254-.065-.397zm1.483-.004c0-.289-.098-.49-.295-.603-.067-.04-.147-.061-.24-.061-.092 0-.172.021-.239.061-.192.112-.29.313-.295.603 0 .181.046.337.137.468.092.131.224.196.396.196.174 0 .307-.065.399-.194.091-.131.137-.287.137-.47z"/><path d="m80.233 69.665-.178.044c-.13.057-.22.165-.272.326-.027.08-.041.172-.041.274v.896h-.414v-1.881h.389v.363h.007c.024-.099.091-.195.198-.283.108-.086.226-.131.352-.131l.156.011v.401z"/><path d="m81.359 69.273c.147 0 .281.03.397.093.237.124.392.323.463.597.035.132.044.269.026.409h-1.383c0 .156.044.289.132.397.087.108.213.16.375.158.232 0 .385-.104.458-.313h.393c-.042.202-.145.361-.306.476-.152.11-.334.167-.545.167-.288 0-.514-.091-.677-.271-.163-.183-.245-.416-.243-.703.001-.282.084-.521.251-.716s.386-.294.659-.294zm.473.825c-.016-.217-.109-.369-.283-.453l-.192-.045-.197.041c-.118.052-.203.138-.254.263l-.043.194z"/><path d="m83.303 69.6c-.259 0-.389.064-.389.193 0 .09.064.156.191.202.057.021.156.045.298.072.141.028.252.057.334.083.264.088.396.253.396.493 0 .207-.092.366-.275.475-.149.088-.338.134-.563.139-.382 0-.637-.123-.768-.368-.042-.08-.063-.177-.064-.289h.413c.012.121.059.205.139.253.08.051.176.074.287.074.187 0 .313-.038.381-.118l.038-.129c-.006-.096-.07-.168-.197-.214-.058-.019-.153-.043-.29-.068-.258-.051-.444-.119-.561-.203-.114-.082-.171-.213-.171-.39 0-.181.088-.319.264-.417.138-.077.312-.115.52-.115.331 0 .563.103.698.312.047.072.077.16.089.265h-.433c-.02-.096-.065-.164-.137-.196z"/><path d="m85.042 71.223c-.17 0-.289-.036-.357-.108-.068-.07-.105-.193-.109-.366v-1.096h-.316v-.329h.314v-.544h.414v.544h.374v.329h-.374v.987c0 .093.008.153.024.181l.169.072.181-.014v.321c-.138.015-.244.023-.32.023z"/><path d="m86.416 68.936-.156.04-.061.154v.193h.354v.329h-.354v1.552h-.413v-1.552h-.312v-.329h.312v-.157c0-.217.053-.371.159-.461.081-.064.194-.099.34-.099s.251.01.311.026v.325z"/><path d="m87.968 69.856c0-.169-.124-.256-.371-.256-.112 0-.206.026-.282.075-.074.048-.117.122-.128.223h-.414c.014-.221.107-.386.283-.494.141-.088.331-.131.573-.131.333 0 .563.099.687.291.043.07.065.155.065.258v.963l.02.11.078.032h.045l.057-.006v.287c-.096.032-.185.049-.266.049-.195 0-.309-.079-.34-.231-.079.08-.177.141-.291.175-.114.036-.218.054-.313.057-.193 0-.354-.049-.479-.146-.126-.094-.188-.23-.186-.407 0-.209.078-.359.231-.453.102-.061.266-.104.492-.129l.215-.032.171-.03c.101-.031.153-.098.153-.205zm-.849.827.119.187.227.058c.211 0 .363-.062.456-.19l.047-.165v-.309c-.063.042-.163.068-.3.08s-.249.032-.337.063c-.142.043-.212.136-.212.276z"/><path d="m89.668 69.6c-.223 0-.379.113-.467.338-.034.088-.052.187-.052.297 0 .211.043.38.127.506.084.127.209.188.373.187.122 0 .222-.038.302-.112.079-.074.128-.179.147-.315h.414c-.039.245-.132.435-.278.563-.148.131-.353.195-.616.195s-.476-.091-.639-.271c-.165-.183-.246-.418-.243-.711.001-.289.082-.53.243-.719.16-.188.389-.283.686-.283.229 0 .423.059.583.173.158.114.247.283.265.506h-.414c-.017-.114-.063-.202-.141-.261s-.174-.093-.29-.093z"/><path d="m90.851 68.607h.413v.966h.007c.052-.087.127-.157.228-.215.101-.059.214-.087.337-.085.206 0 .368.055.487.159.117.108.178.269.179.481v1.291h-.414v-1.183c-.005-.148-.036-.255-.095-.321-.058-.066-.152-.101-.282-.101s-.237.049-.319.145c-.083.093-.125.211-.127.35v1.11h-.413v-2.597z"/><path d="m94.308 70.34c0 .188.061.329.183.42.122.09.278.136.467.136s.329-.038.418-.112c.091-.074.136-.166.137-.271.001-.106-.02-.183-.065-.231l-.18-.102c-.074-.022-.172-.049-.293-.083-.122-.034-.256-.07-.4-.11-.146-.04-.255-.084-.328-.132-.197-.129-.296-.313-.296-.553 0-.238.094-.424.282-.556.188-.135.417-.201.685-.201.269 0 .5.072.692.219.191.146.288.35.288.612h-.455c-.021-.307-.209-.46-.561-.46-.203 0-.348.059-.431.177l-.047.188.086.196c.056.055.13.095.222.12.284.072.534.139.75.201.162.05.287.137.374.255s.131.251.132.399c.003.271-.105.479-.323.627-.188.124-.434.188-.732.188-.3 0-.545-.074-.735-.221-.211-.165-.318-.397-.323-.707h.453z"/><path d="m96.136 69.324h.439l.367 1.405h.007l.354-1.405h.419l.337 1.405h.007l.383-1.405h.423l-.591 1.881h-.426l-.347-1.396h-.004l-.346 1.396h-.44z"/><path d="m100.299 69.856c0-.169-.124-.256-.371-.256-.112 0-.207.026-.283.075-.072.048-.116.122-.129.223h-.412c.013-.221.107-.386.283-.494.142-.088.33-.131.573-.131.333 0 .562.099.687.291.043.07.067.155.067.258v.963l.018.11.078.032h.045l.056-.006v.287c-.094.032-.183.049-.266.049-.195 0-.31-.079-.34-.231-.078.08-.177.141-.291.175-.112.036-.217.054-.313.057-.193 0-.354-.049-.48-.146-.125-.094-.188-.23-.185-.407 0-.209.077-.359.231-.453.101-.061.265-.104.491-.129l.215-.032.173-.03c.101-.031.153-.098.153-.205zm-.849.827.118.187.227.058c.211 0 .363-.062.456-.19l.048-.165v-.309c-.064.042-.164.068-.301.08s-.249.032-.338.063c-.14.043-.21.136-.21.276z"/><path d="m101.161 69.324h.392v.276l.008.009c.063-.104.145-.187.247-.245.103-.061.215-.091.34-.091.204 0 .367.055.485.159.118.108.177.269.179.481v1.291h-.413v-1.183c-.007-.148-.036-.255-.095-.321s-.152-.101-.283-.101-.237.049-.319.145c-.082.093-.124.211-.126.35v1.11h-.414v-1.88z"/><path d="m103.986 69.6c-.257 0-.388.064-.388.193 0 .09.064.156.19.202.059.021.157.045.297.072.143.028.254.057.336.083.263.088.396.253.396.493 0 .207-.091.366-.275.475-.15.088-.337.134-.564.139-.381 0-.636-.123-.767-.368-.042-.08-.064-.177-.066-.289h.416c.012.121.056.205.137.253.082.051.177.074.289.074.185 0 .313-.038.379-.118l.038-.129c-.004-.096-.07-.168-.196-.214-.057-.019-.154-.043-.291-.068-.257-.051-.444-.119-.559-.203-.116-.082-.173-.213-.173-.39 0-.181.089-.319.266-.417.137-.077.309-.115.52-.115.329 0 .563.103.697.312.048.072.076.16.088.265h-.432c-.02-.096-.066-.164-.137-.196z"/><path d="m105.951 69.273c.148 0 .281.03.397.093.237.124.392.323.462.597.036.132.044.269.028.409h-1.383c0 .156.044.289.132.397.087.108.211.16.374.158.232 0 .385-.104.459-.313h.392c-.042.202-.145.361-.305.476-.152.11-.336.167-.546.167-.287 0-.513-.091-.677-.271-.163-.183-.245-.416-.243-.703 0-.282.084-.521.251-.716.168-.195.386-.294.659-.294zm.472.825c-.014-.217-.108-.369-.28-.453l-.193-.045-.196.041c-.118.052-.203.138-.255.263l-.042.194z"/><path d="m108.316 69.856c0-.169-.124-.256-.369-.256-.114 0-.207.026-.283.075-.074.048-.116.122-.129.223h-.413c.014-.221.106-.386.283-.494.141-.088.331-.131.574-.131.333 0 .56.099.685.291.044.07.066.155.066.258v.963l.02.11.078.032h.044l.057-.006v.287c-.097.032-.185.049-.265.049-.195 0-.31-.079-.34-.231-.08.08-.177.141-.293.175-.112.036-.217.054-.313.057-.192 0-.351-.049-.479-.146-.124-.094-.187-.23-.185-.407 0-.209.078-.359.23-.453.103-.061.268-.104.494-.129l.215-.032.171-.03c.1-.031.152-.098.152-.205zm-.848.827.119.187.225.058c.213 0 .365-.062.458-.19l.046-.165v-.309c-.064.042-.162.068-.299.08s-.249.032-.338.063c-.14.043-.211.136-.211.276z"/><path d="m110.549 70.34c0 .188.061.329.183.42.121.09.277.136.466.136s.329-.038.42-.112c.088-.074.134-.166.137-.271 0-.106-.022-.183-.066-.231l-.179-.102c-.076-.022-.173-.049-.295-.083-.121-.034-.256-.07-.4-.11s-.255-.084-.327-.132c-.198-.129-.297-.313-.297-.553 0-.238.095-.424.283-.556.188-.135.416-.201.685-.201s.498.072.692.219c.191.146.287.35.287.612h-.455c-.021-.307-.207-.46-.561-.46-.203 0-.348.059-.432.177l-.046.188.086.196.221.12c.285.072.534.139.751.201.163.05.287.137.373.255.089.118.133.251.133.399.002.271-.104.479-.323.627-.188.124-.434.188-.732.188s-.544-.074-.735-.221c-.21-.165-.318-.397-.323-.707h.454z"/><path d="m113.301 68.607h.483l1 2.598h-.486l-.245-.688h-1.037l-.243.688h-.468zm-.161 1.564h.793l-.39-1.116h-.01z"/><path d="m115.395 69.685c.114-.131.276-.195.493-.195.104 0 .207.022.308.064.194.082.329.235.405.448.034.104.053.213.053.325 0 .244-.068.451-.207.626-.16.201-.377.304-.648.304-.27 0-.488-.066-.652-.203-.167-.133-.255-.325-.263-.574h.413c.012.141.059.245.143.319.082.074.19.11.327.11.31 0 .468-.187.474-.559 0-.24-.09-.403-.269-.489l-.217-.044c-.217 0-.354.08-.41.232h-.415l.272-1.394h1.317v.372h-1.008l-.122.65z"/><path d="m119.687 70.6h-.305v.604h-.414v-.604h-1.072v-.409l1.072-1.534h.414v1.614h.305zm-.719-.329v-1.12h-.01l-.763 1.12z"/><path d="m120.087 68.607h1.869v.392h-1.413v.682h1.308v.37h-1.308v.762h1.439v.392h-1.895z"/><path d="m122.37 68.607h.453v1.034h1.183v-1.034h.454v2.598h-.454v-1.17h-1.183v1.17h-.453z"/><path d="m137.507 70.25c0 .253-.046.483-.135.69-.176.415-.474.708-.889.879-.201.08-.418.12-.648.12-.233 0-.452-.044-.654-.13-.408-.173-.697-.47-.868-.89-.082-.207-.124-.434-.124-.681s.044-.474.133-.683c.177-.413.474-.706.891-.877.203-.082.416-.123.637-.123.223 0 .434.041.635.123.415.169.713.462.889.877.089.21.133.441.133.695zm-.362 0c0-.412-.124-.747-.373-1.009-.249-.261-.559-.391-.926-.391s-.677.13-.926.391c-.249.262-.373.595-.373.998s.12.739.361 1.008c.239.268.548.399.926.399.375 0 .688-.13.938-.392.249-.26.373-.595.373-1.004zm-1.222-.679c-.198 0-.349.062-.453.187-.104.126-.157.291-.159.496-.002.202.055.373.165.514.112.141.247.211.403.211.154 0 .275-.036.361-.112.086-.079.139-.175.154-.294h.312c-.019.111-.052.207-.103.294-.158.269-.401.405-.73.405-.123 0-.241-.026-.359-.078-.239-.104-.405-.285-.5-.54-.044-.125-.066-.257-.066-.397.002-.287.091-.522.263-.707.175-.185.404-.275.687-.271.209 0 .388.059.536.175.149.115.237.283.27.508h-.308c-.025-.116-.082-.208-.17-.28-.091-.075-.191-.111-.303-.111z"/><path d="m138.86 69.394c.299 0 .516-.074.648-.226l.092-.194h.34v2.548h-.454v-1.799h-.626z"/><path d="m141.384 71.13c.064.064.15.097.263.097.11 0 .199-.03.266-.089l.154-.223c.036-.088.061-.183.074-.285.012-.101.024-.192.032-.277l-.01-.008c-.055.101-.131.177-.229.229-.096.052-.204.078-.323.078-.236.002-.43-.076-.578-.235-.148-.156-.223-.365-.221-.62 0-.257.078-.466.233-.629.152-.162.369-.244.644-.244.482 0 .77.269.859.809.059.35.055.685-.016 1.008-.068.323-.219.561-.452.711-.122.082-.278.122-.47.122-.19 0-.361-.066-.512-.198-.15-.131-.23-.297-.239-.498h.414c.01.103.046.187.111.252zm-.157-1.341c0 .232.082.397.246.489l.199.045c.148 0 .263-.053.344-.155.078-.104.116-.229.116-.375 0-.145-.04-.27-.121-.372-.08-.1-.192-.152-.339-.152s-.257.051-.331.152c-.076.1-.114.223-.114.368z"/><path d="m142.823 70.77c0-.163.04-.299.124-.409.083-.11.197-.186.34-.224v-.007c-.123-.042-.217-.11-.283-.2-.066-.091-.099-.197-.099-.319 0-.215.072-.384.217-.504.146-.123.346-.183.601-.183.253 0 .452.06.597.181.145.12.217.289.217.506 0 .122-.032.229-.099.319-.064.09-.159.158-.281.2v.008c.143.036.255.11.339.222.083.108.125.234.125.377 0 .267-.086.472-.253.618-.169.145-.384.219-.646.219-.261 0-.478-.072-.646-.215-.171-.147-.253-.342-.253-.589zm.55.35c.093.082.209.124.348.124s.255-.042.348-.124c.092-.085.138-.197.138-.342 0-.146-.046-.259-.138-.337-.093-.078-.209-.118-.348-.118s-.255.04-.348.12c-.092.078-.139.19-.137.335-.002.145.045.257.137.342zm.347-1.867c-.11 0-.205.032-.283.096s-.118.157-.118.275c0 .12.038.213.114.277.076.063.173.094.287.094.116 0 .213-.031.289-.094.074-.063.11-.152.11-.273 0-.118-.038-.213-.114-.279-.078-.064-.174-.096-.285-.096z"/><path d="m146.611 71.548h-1.738c.004-.392.19-.713.56-.966.083-.061.169-.119.26-.175.333-.211.504-.432.51-.66 0-.121-.022-.211-.064-.27l-.148-.137-.211-.046-.213.05c-.146.089-.223.285-.23.587h-.414c0-.289.076-.526.229-.709.154-.183.369-.273.646-.273.278 0 .491.091.645.27.116.143.174.315.174.514 0 .261-.118.492-.357.694-.11.095-.229.184-.353.262-.123.078-.215.139-.277.185-.141.106-.227.207-.257.303h1.24v.371z"/></g><path d="m138.891 44.059h.688l1.424 3.699h-.692l-.347-.979h-1.478l-.347.979h-.667zm-.227 2.226h1.129l-.554-1.589h-.017z"/><path d="m142.404 44.059c.467 0 .808.211 1.017.635.156.32.234.736.234 1.251 0 .843-.204 1.411-.618 1.707-.161.12-.373.18-.633.18s-.472-.06-.635-.18c-.412-.302-.619-.871-.619-1.707 0-.523.078-.941.234-1.251.093-.188.219-.34.385-.458.163-.119.375-.177.635-.177zm.662 1.886c0-.929-.221-1.393-.662-1.393s-.665.464-.665 1.393c0 .656.115 1.082.341 1.281.085.075.19.111.324.111.441.001.662-.464.662-1.392z"/><path d="m144.758 45.592c.16-.184.393-.276.701-.276.149 0 .294.03.437.091.279.12.47.333.578.641.051.148.075.301.075.46 0 .347-.099.644-.294.891-.23.288-.538.433-.923.433-.386 0-.696-.094-.932-.287-.236-.191-.36-.463-.375-.82h.589c.019.199.086.351.203.456.119.104.273.157.467.157.441 0 .667-.266.674-.797 0-.34-.126-.573-.382-.696-.087-.042-.19-.062-.309-.061-.308 0-.503.11-.584.332h-.591l.389-1.986h1.875v.529h-1.436l-.175.926z"/><path d="m148.162 44.059c.469 0 .807.211 1.019.635.156.32.234.736.234 1.251 0 .843-.207 1.411-.618 1.707-.163.12-.375.18-.635.18-.261 0-.472-.06-.635-.18-.412-.302-.617-.871-.617-1.707 0-.523.078-.941.235-1.251.092-.188.218-.34.382-.458.163-.119.374-.177.635-.177zm.662 1.886c0-.929-.221-1.393-.662-1.393-.442 0-.663.464-.663 1.393 0 .656.113 1.082.339 1.281.085.075.192.111.324.111.441.001.662-.464.662-1.392z"/><path d="m152.176 45.017c0 .394-.17.65-.511.771v.01c.207.043.368.146.483.312.117.167.175.352.175.555-.003.37-.129.656-.38.86-.251.203-.555.306-.908.306-.605 0-.999-.251-1.185-.747-.056-.155-.086-.328-.088-.519h.589c-.005.221.051.405.163.551.115.147.281.221.495.221.216 0 .389-.056.521-.167.134-.112.2-.272.2-.481 0-.253-.099-.429-.301-.527-.141-.069-.356-.1-.648-.091v-.468c.36.011.604-.082.735-.281.046-.074.069-.176.069-.305 0-.13-.053-.239-.159-.33-.104-.091-.223-.137-.358-.137-.331-.002-.536.154-.619.468-.025.087-.034.178-.029.271h-.592c.015-.353.127-.646.339-.881.214-.233.501-.351.862-.351.302 0 .565.082.798.247.233.169.349.406.349.713z"/></svg>