<svg enable-background="new 0 0 559.249 81.18" viewBox="0 0 559.249 81.18" xmlns="http://www.w3.org/2000/svg" xmlns:xlink="http://www.w3.org/1999/xlink"><linearGradient id="a" gradientUnits="userSpaceOnUse" x1="159.974584" x2="434.7494032" y1="40.0285288" y2="40.0285288"><stop offset="0" stop-color="#f50019"/><stop offset=".2761" stop-color="#f66d19"/><stop offset=".4785" stop-color="#fbfa35"/><stop offset=".681" stop-color="#74b719"/><stop offset=".7914" stop-color="#17710a"/><stop offset=".8834" stop-color="#226887"/><stop offset="1" stop-color="#3262d9"/></linearGradient><path d="m559.249 75.466c0 3.154-2.15 5.714-4.801 5.714h-549.647c-2.651 0-4.801-2.56-4.801-5.714v-69.751c0-3.155 2.15-5.715 4.801-5.715h549.646c2.651 0 4.801 2.56 4.801 5.715v69.751z"/><path d="m159.942 18.077h22.146c14.6 0 19.753 10.796 19.753 21.839 0 13.435-7.116 21.962-22.391 21.962h-19.507zm13.495 32.575h5.276c8.404 0 9.631-6.81 9.631-10.919 0-2.76-.859-10.43-10.613-10.43h-4.295zm33.003-32.575h25.705c7.668 0 14.293 4.233 14.293 12.515 0 4.54-2.086 9.325-6.564 10.981 3.681 1.412 5.95 5.46 6.441 10.919.183 2.147.245 7.361 1.472 9.386h-13.496c-.675-2.208-.921-4.477-1.105-6.748-.368-4.172-.737-8.527-6.074-8.527h-7.179v15.277h-13.496v-43.803zm13.496 19.14h7.055c2.515 0 5.951-.43 5.951-4.355 0-2.76-1.533-4.355-6.687-4.355h-6.318v8.71zm46.561-19.14h13.189l15.95 43.801h-13.986l-1.84-6.257h-13.926l-1.963 6.257h-13.558zm10.612 28.157-3.926-13.496h-.123l-4.233 13.496zm52.388 11.166c-3.006 3.864-7.668 5.52-12.452 5.52-12.945 0-20.92-10.061-20.92-22.513 0-16.686 11.718-23.372 21.594-23.372 11.165 0 18.22 6.073 20.182 16.379h-12.945c-.49-3.19-3.189-5.46-6.379-5.46-9.263 0-8.957 9.754-8.957 12.76 0 4.109 1.656 11.288 9.876 11.288 3.129 0 6.318-1.595 6.993-4.846h-5.95v-9.387h17.913v24.109h-8.527zm37.787-40.366c13.313 0 22.207 9.569 22.207 22.944s-8.895 22.944-22.207 22.944-22.208-9.569-22.208-22.944c0-13.374 8.896-22.944 22.208-22.944zm0 34.967c3.435 0 8.711-2.27 8.711-12.025 0-9.754-5.276-12.024-8.711-12.024s-8.711 2.27-8.711 12.024c0 9.755 5.277 12.025 8.711 12.025zm27.972-33.924h13.803l12.76 23.434h.123v-23.434h12.76v43.801h-13.128l-13.435-23.925h-.123v23.925h-12.76z" fill="url(#a)"/><path d="m447.336 33.413c.062-5.03 2.086-8.711 5.337-11.165 3.252-2.393 7.668-3.558 12.453-3.558 12.39 0 16.502 7.361 16.502 10.981 0 8.956-5.644 8.956-5.644 9.141v.123c0 .491 6.994.491 6.994 9.999 0 5.214-3.926 13.435-17.913 13.435-19.2 0-19.263-13.496-18.956-16.687h11.657c-.062 2.27.49 3.989 1.657 5.091 1.165 1.411 2.945 1.902 5.091 1.902 3.496 0 5.704-1.288 5.704-4.784 0-3.742-2.883-4.417-5.704-4.417-1.779 0-2.639.183-3.558.306v-8.344c.919.062 1.901.245 3.558.245 2.576 0 5.828-.552 5.828-3.864 0-2.701-3.067-3.742-5.583-3.742-3.313 0-6.011 1.779-5.89 5.337zm38.218 3.743c-.675-11.718 6.625-18.465 18.098-18.465 10.367 0 17.422 4.355 17.422 13.435 0 10.919-10.674 14.354-18.711 19.263v.062h19.324v10.43h-36.992c-.245-4.11.982-7.669 3.066-10.552 3.558-4.97 9.693-8.22 15.153-11.533 2.208-1.35 5.766-3.068 5.766-6.197 0-3.865-2.27-5.214-5.153-5.214-4.908 0-6.564 3.558-6.441 8.772z" fill="#fff"/><path d="m373.437 67.356h3.887c2.562 0 3.467 1.894 3.467 3.832 0 2.359-1.249 3.854-3.931 3.854h-3.424v-7.687h.001zm2.37 5.717h.925c1.474 0 1.691-1.195 1.691-1.918 0-.484-.151-1.83-1.862-1.83h-.753zm8.141-5.717h2.314l2.799 7.687h-2.455l-.322-1.099h-2.445l-.345 1.099h-2.379zm1.862 4.942-.689-2.369h-.021l-.742 2.369zm4.848-2.972h-2.153v-1.971h6.675v1.971h-2.154v5.717h-2.367v-5.717zm6.731-1.97h2.314l2.799 7.687h-2.455l-.322-1.099h-2.444l-.345 1.099h-2.379zm1.862 4.942-.689-2.369h-.021l-.742 2.369zm13.41-4.942h2.368v5.717h3.401v1.971h-5.771v-7.688zm7.193 1.97h-2.152v-1.971h6.675v1.971h-2.154v5.717h-2.367v-5.717zm5.396-1.97h3.887c2.562 0 3.467 1.894 3.467 3.832 0 2.359-1.249 3.854-3.93 3.854h-3.424v-7.687zm2.369 5.717h.925c1.475 0 1.691-1.195 1.691-1.918 0-.484-.151-1.83-1.862-1.83h-.753zm6.075-.161h2.239v2.131h-2.239z" fill="#dedede"/><path d="m76.055 41.738h-6.642l15.812-27.385c3.05-5.311 8.744-8.61 14.864-8.61h32.674l-3.321 5.752h-29.353c-4.071 0-7.859 2.199-9.879 5.727zm17.793-22.421c1.279-2.236 3.671-3.625 6.241-3.625h26.929l1.437-2.488h-28.366c-3.459 0-6.678 1.869-8.398 4.872l-13.661 23.662h2.872zm2.516 10.565h22.462l3.884-6.727 1.182-2.048 2.14-3.705h-25.942c-1.959 0-3.782 1.059-4.757 2.764l-12.456 21.572h6.642zm-51.039 0c-.004.047-.007.069-.005.069-.052.177-.294.687-1.141 2.108-1.789 3.004-3.62 6.757-3.621 11.819 0 9.45 7.688 17.138 17.138 17.138h65.256l-6.774 11.733h6.642l5.321-9.216c.499-.841.763-1.806.763-2.79 0-3.021-2.457-5.479-5.479-5.479h-65.727c-6.279 0-11.386-5.108-11.386-11.386 0-3.453 1.124-6.045 2.811-8.874 1.569-2.634 1.964-3.543 1.963-5.395 0-3.02-2.457-5.478-5.478-5.478h-19.275l3.32 5.752h15.672zm78.1 21.185h-65.728c-3.963 0-7.189-3.225-7.189-7.189.001-2.19.602-4.013 2.218-6.725 1.738-2.916 2.556-4.61 2.556-7.544 0-5.334-4.34-9.675-9.676-9.675h-26.506l-.937-1.621-6.286 2.842 9.728 3.119-1.07-1.853h25.071c3.964 0 7.188 3.225 7.188 7.188.001 2.232-.496 3.402-2.205 6.269-1.849 3.101-2.568 5.344-2.568 7.999 0 5.335 4.341 9.676 9.676 9.676h65.729c3.964 0 7.189 3.225 7.189 7.189 0 1.292-.347 2.559-1.009 3.676l-4.809 8.33h2.871l4.084-7.073c.883-1.489 1.351-3.195 1.351-4.933-.001-5.335-4.341-9.675-9.678-9.675zm-59.577 11.815h-6.642l-5.698 9.867h6.642zm-.85 9.866 5.697-9.867h-2.871l-5.697 9.867zm14.313-9.866h-6.642l-5.697 9.867h6.642zm46.114-19.278h-65.446c.035-.42.216-1.052 1.157-2.632 2.045-3.43 3.608-6.445 3.608-11.364 0-9.45-7.687-17.138-17.138-17.138h-.45l-3.79 3.791-3.79-3.791h-17.977l3.322 5.753h22.685c6.279 0 11.386 5.108 11.386 11.386.001 3.475-1.056 5.498-2.797 8.419-1.459 2.449-1.976 3.979-1.976 5.85 0 3.02 2.458 5.479 5.479 5.479h65.729c6.279 0 11.386 5.108 11.386 11.386 0 2.039-.546 4.041-1.58 5.789l-3.59 6.217h6.642l1.915-3.318c1.547-2.628 2.365-5.631 2.365-8.688-.001-9.451-7.689-17.139-17.14-17.139zm-76.377-31.864-5.682-5.681-5.681 5.681h2.638l3.043-3.043 3.044 3.043z" fill="#f50019"/></svg>