<svg enable-background="new 0 0 114.788 70.756" viewBox="0 0 114.788 70.756" xmlns="http://www.w3.org/2000/svg"><path d="m109.285.014c1.928 0 3.506 1.595 3.506 3.546v63.651c0 1.95-1.578 3.546-3.506 3.546h-13.609-76.564-13.609c-1.928 0-3.506-1.595-3.506-3.546v-63.651c0-1.95 1.578-3.546 3.506-3.546h3.518 48.388-.03 48.388 3.518zm-64.691 66.354v-1.925c0-.732-.599-1.331-1.331-1.331h-2.448c-.732 0-1.331.599-1.331 1.331v1.925c0 .732.599 1.331 1.331 1.331h2.448c.732 0 1.331-.599 1.331-1.331zm26.931 1.331h2.448c.732 0 1.331-.599 1.331-1.331v-1.925c0-.732-.599-1.331-1.331-1.331h-2.448c-.732 0-1.331.599-1.331 1.331v1.925c0 .732.599 1.331 1.331 1.331zm9.794-.558c0 1.575 1.277 2.853 2.853 2.853 1.575 0 2.853-1.277 2.853-2.853s-1.277-2.853-2.853-2.853-2.853 1.277-2.853 2.853zm-50.702-2.853c-1.575 0-2.853 1.277-2.853 2.853s1.277 2.853 2.853 2.853 2.853-1.277 2.853-2.853-1.278-2.853-2.853-2.853zm8.901-32.498c0-3.343-2.71-6.053-6.053-6.053s-6.053 2.71-6.053 6.053 2.71 6.053 6.053 6.053 6.053-2.71 6.053-6.053zm48.117.103c0-3.343-2.71-6.053-6.053-6.053s-6.053 2.71-6.053 6.053 2.71 6.053 6.053 6.053c3.343-.001 6.053-2.711 6.053-6.053z" fill="#515151"/><circle cx="6.012" cy="59.225" fill="#212121" r="1.141"/><circle cx="108.776" cy="59.225" fill="#212121" r="1.141"/><path d="m57.568 20.081h-48.366c4.319-9.016 13.53-15.243 24.196-15.243 10.644 0 19.839 6.256 24.17 15.243" fill="#341d0e"/><path d="m57.724 43.225h-48.584c4.338 8.967 13.629 15.24 24.258 15.24 10.646 0 19.997-6.25 24.326-15.24" fill="#341d0e"/><path d="m9.895.499h5.562" fill="none" stroke="#404040" stroke-miterlimit="10" stroke-width=".7131"/><path d="m20.253 4.19h-3.851v-3.69h4.297v3.245c-.001.244-.201.445-.446.445z" fill="none" stroke="#404040" stroke-miterlimit="10" stroke-width=".7131"/><path d="m1.997 65.631v-20.181l-1.64 1.64v16.901z" fill="#545454" stroke="#404040" stroke-miterlimit="10" stroke-width=".7131"/><circle cx="57.478" cy="8.985" fill="#414141" r="1.141"/><path d="m104.893.499h-5.562" fill="none" stroke="#404040" stroke-miterlimit="10" stroke-width=".7131"/><path d="m94.535 4.19h3.851v-3.69h-4.296v3.245c0 .244.2.445.445.445z" fill="none" stroke="#404040" stroke-miterlimit="10" stroke-width=".7131"/><path d="m112.791 65.631v-20.181l1.641 1.64v16.901z" fill="#545454" stroke="#404040" stroke-miterlimit="10" stroke-width=".7131"/><circle cx="12.729" cy="64.288" fill="#939393" r="4.421"/><circle cx="12.729" cy="64.288" fill="#232323" r=".891"/><path d="m14.396 64.288v.481l1.426.802c.251 0 .455-.383.455-.856v-.428-.427c0-.473-.204-.856-.455-.856l-1.426.802z" fill="#717171"/><path d="m13.527 62.832.417.241 1.408-.834c.126-.217-.104-.585-.514-.822l-.371-.214-.371-.214c-.409-.236-.843-.252-.968-.034l-.018 1.636z" fill="#717171"/><path d="m11.128 64.265v.481l-1.426.802c-.251 0-.455-.383-.455-.856v-.428-.428c0-.473.204-.856.455-.856l1.426.802z" fill="#717171"/><path d="m11.98 62.832-.417.241-1.408-.834c-.126-.217.104-.585.514-.822l.371-.214.371-.214c.409-.236.843-.252.968-.034l.018 1.636z" fill="#717171"/><path d="m11.997 65.745-.417-.241-1.408.834c-.126.217.104.585.514.822l.371.214.371.214c.409.236.843.252.968.034l.018-1.636z" fill="#717171"/><path d="m13.544 65.745.417-.241 1.408.834c.126.217-.104.585-.514.822l-.371.214-.371.214c-.409.236-.843.252-.968.034l-.018-1.636z" fill="#717171"/><circle cx="102.059" cy="64.288" fill="#939393" r="4.421"/><circle cx="102.059" cy="64.288" fill="#232323" r=".891"/><path d="m100.392 64.288v.481l-1.426.802c-.251 0-.455-.383-.455-.856v-.428-.427c0-.473.204-.856.455-.856l1.426.802z" fill="#717171"/><path d="m101.262 62.832-.417.241-1.408-.834c-.126-.217.104-.585.514-.822l.371-.214.371-.214c.409-.236.843-.252.968-.034l.018 1.636z" fill="#717171"/><path d="m103.66 64.265v.481l1.426.802c.251 0 .455-.383.455-.856v-.428-.428c0-.473-.204-.856-.455-.856l-1.426.802z" fill="#717171"/><path d="m102.808 62.832.417.241 1.408-.834c.126-.217-.104-.585-.514-.822l-.371-.214-.371-.214c-.409-.236-.843-.252-.968-.034l-.018 1.636z" fill="#717171"/><path d="m102.791 65.745.417-.241 1.408.834c.126.217-.104.585-.514.822l-.371.214-.371.214c-.409.236-.843.252-.968.034l-.018-1.636z" fill="#717171"/><path d="m101.244 65.745-.417-.241-1.408.834c-.126.217.104.585.514.822l.371.214.371.214c.409.236.843.252.968.034l.018-1.636z" fill="#717171"/><path d="m63.361 9.638h30.385v.828h-30.385z" fill="#f00"/><path d="m63.361 11.295h30.385v.828h-30.385z" fill="#fd4120"/><path d="m63.361 12.952h30.385v.828h-30.385z" fill="#fc0"/><path d="m63.361 14.608h30.385v.829h-30.385z" fill="#4dac26"/><path d="m63.361 16.265h30.385v.829h-30.385z" fill="#00a0c6"/><path d="m102.665 14.571c0 1.05-.904 1.575-2.711 1.575h-.925c-1.018 0-1.725-.18-2.119-.538-.395-.359-.592-.98-.592-1.864v-1.189c0-.879.197-1.497.592-1.856.394-.359 1.101-.538 2.119-.538h.925c.839 0 1.47.115 1.893.345s.635.568.635 1.012v.426h-2.173v-.152c0-.139-.04-.23-.118-.273-.079-.043-.237-.064-.473-.064h-.517c-.294 0-.482.024-.565.073-.082.048-.123.163-.123.345v.819c.315-.177.706-.265 1.172-.265h.764c.768 0 1.329.133 1.683.397.355.265.533.674.533 1.225zm-48.76-2.877h-1.047v3.068h1.092v-1.604c0-.418.251-.628.706-.628s.569.139.591.534h1.024c0-1.046-.137-1.441-1.229-1.441-.66 0-.888.14-1.138.651zm-42.952 1.843h-1.757v1.472h3.16zm1.402-1.775h-3.16v1.472h1.738zm46.579 2.396c-1.047 0-1.206-.093-1.206-.628h2.868c-.046-1.487-.046-1.836-1.98-1.836-1.639 0-2.003.302-2.003 1.627 0 1.232.478 1.534 1.798 1.558 1.479 0 2.185-.07 2.185-1.069h-1.07c-.045.232-.136.348-.592.348zm-1.229-1.279c.045-.325.136-.442.864-.442.798 0 .911.047.957.442zm-40.692.117h1.092c-.091-1.046-.387-1.302-1.911-1.302-1.73 0-2.117.278-2.117 1.581 0 1.302.364 1.604 1.98 1.604 1.707 0 2.048-.233 2.048-1.325h-1.092c0 .302-.114.442-.956.442-.729 0-.888-.186-.888-.79 0-.581.159-.581 1.024-.581.638-.001.751.069.82.371zm25.376.185c0-1.255-.364-1.51-2.117-1.51-1.889 0-2.116.325-2.116 1.627s.318 1.581 2.116 1.581c1.912 0 2.117-.326 2.117-1.698zm-3.118.07c0-.628.137-.697.933-.697.888 0 1.047.023 1.047.697 0 .628-.114.744-.956.744-.91 0-1.024-.093-1.024-.744zm12.926-.07c0-1.255-.341-1.51-2.093-1.51-1.866 0-2.094.301-2.094 1.604 0 1.325.318 1.604 2.094 1.604 1.911 0 2.093-.326 2.093-1.698zm-3.094.07c0-.628.136-.697.933-.697.888 0 1.047.023 1.047.697 0 .628-.114.744-.956.744-.91 0-1.024-.093-1.024-.744zm-26.15-.07c0-1.255-.341-1.51-2.094-1.51-1.889 0-2.117.301-2.117 1.604 0 1.325.319 1.604 2.117 1.604 1.912 0 2.094-.326 2.094-1.698zm-3.073.07c0-.628.137-.697.911-.697.887 0 1.047.023 1.047.697 0 .628-.114.744-.956.744-.888 0-1.002-.093-1.002-.744zm26.309-2.859v1.79c-.25-.349-.478-.534-1.388-.534-1.457 0-1.73.395-1.73 1.604 0 1.232.387 1.58 1.798 1.58.888 0 1.161-.232 1.366-.627v.558h1.092v-4.37h-1.138zm-.796 2.139c.614 0 .819.093.819.581 0 .744-.046.814-.91.814-.865 0-1.092-.024-1.092-.651 0-.721.273-.744 1.183-.744zm-36.296-.87v-1.895c-.375-.101-.632-.142-1.007-.142-1.955 0-3.673 1.675-3.673 3.752 0 2.138 1.737 3.732 3.693 3.732.355 0 .553-.041.987-.162v-1.936c-.435.222-.652.282-1.007.282-1.086 0-1.916-.927-1.916-1.957 0-1.069.81-1.977 1.896-1.977.375.001.691.102 1.027.303zm15.585.033h-1.024v3.068h1.092v-1.581c0-.465.228-.627.842-.627.569 0 .729.209.729.79v1.418h1.115v-1.627c0-.442.341-.581.864-.581.501 0 .728.139.728.581v1.627h1.092v-1.813c0-.906-.547-1.325-1.548-1.325-.865 0-1.184.326-1.297.674-.227-.395-.546-.674-1.411-.674-.819 0-1.047.279-1.184.79zm7.352 0h-1.024v3.068h1.092v-1.581c0-.465.273-.627.819-.627.569 0 .728.186.728.79v1.418h1.116v-1.627c0-.442.319-.581.842-.581.5 0 .751.163.751.581v1.627h1.092v-1.813c0-.906-.546-1.325-1.547-1.325-.865 0-1.161.302-1.297.674-.228-.395-.547-.674-1.411-.674-.796 0-1.001.279-1.16.79v-.72zm78.501 3.287h-.925v1.093h-2.173v-1.093h-3.927l.011-1.591 3.109-3.157h2.98v3.455h.925zm-3.098-1.294v-1.936l-1.882 1.936zm-6.945.796v-.425c0-.15-.049-.245-.145-.285s-.307-.06-.629-.06h-.42c-.323 0-.534.019-.635.056-.1.037-.15.134-.15.289v.425c0 .161.05.261.15.301.101.04.312.06.635.06h.42c.33 0 .541-.02.634-.06.094-.04.14-.14.14-.301z" fill="#fff"/><path d="m107.318 43.225h-100.134c-.941 0-1.712-.77-1.712-1.712v-19.724c0-.941.77-1.712 1.712-1.712h100.134c.941 0 1.712.77 1.712 1.712v19.724c0 .942-.77 1.712-1.712 1.712zm-19.683-11.396c0-3.343-2.71-6.053-6.053-6.053s-6.053 2.71-6.053 6.053 2.71 6.053 6.053 6.053 6.053-2.71 6.053-6.053zm-48.155-.086c0-3.343-2.71-6.053-6.053-6.053s-6.053 2.71-6.053 6.053 2.71 6.053 6.053 6.053 6.053-2.71 6.053-6.053z" fill="#5a5a5b" stroke="#2d2c2c" stroke-miterlimit="10" stroke-width=".1426"/><path d="m35.133 70.314h4.35" fill="none" stroke="#292929" stroke-miterlimit="10" stroke-width=".8558"/><path d="m35.133 70.314h-14.31" fill="none" stroke="#404040" stroke-miterlimit="10" stroke-width=".7131"/><path d="m39.483 70.314h4.636" fill="none" stroke="#404040" stroke-miterlimit="10" stroke-width=".7131"/><path d="m44.784 61.567-6.049 1.45h6.049z" fill="#292929"/><path d="m79.655 70.314h-4.35" fill="none" stroke="#292929" stroke-miterlimit="10" stroke-width=".8558"/><path d="m80.487 25.886c3.297-.581 6.441 1.62 7.022 4.917s-1.62 6.441-4.917 7.022-6.441-1.62-7.022-4.917 1.621-6.441 4.917-7.022zm-5.572 7.137c.645 3.659 4.134 6.102 7.793 5.457s6.102-4.134 5.457-7.793-4.134-6.102-7.793-5.457-6.102 4.135-5.457 7.793z" fill="#9d9d9d"/><path d="m81.568 38.061c-1.261 0-2.491-.385-3.545-1.124-1.358-.951-2.264-2.373-2.551-4.005-.594-3.369 1.664-6.593 5.033-7.187 3.37-.594 6.593 1.664 7.187 5.033.288 1.632-.077 3.278-1.028 4.636-.951 1.357-2.373 2.264-4.005 2.551-.364.064-.729.096-1.091.096zm-1.014-12.035c-3.214.567-5.368 3.643-4.801 6.857.275 1.557 1.139 2.914 2.434 3.821s2.866 1.255 4.423.981c1.557-.275 2.914-1.139 3.821-2.434s1.255-2.866.981-4.423c-.568-3.215-3.643-5.369-6.858-4.802z" fill="#e4e4e3"/><path d="m75.72 33.089h1.662v.428h-1.662z" fill="#e4e4e3" transform="matrix(.9848 -.1738 .1738 .9848 -4.6238 13.8149)"/><path d="m75.529 32.002h1.662v.428h-1.662z" fill="#e4e4e3" transform="matrix(.9848 -.1738 .1738 .9848 -4.4378 13.765)"/><path d="m85.997 31.277h1.662v.428h-1.662z" fill="#e4e4e3" transform="matrix(.9848 -.1738 .1738 .9848 -4.1523 15.5738)"/><path d="m85.806 30.189h1.662v.428h-1.662z" fill="#e4e4e3" transform="matrix(.9848 -.1738 .1738 .9848 -3.9662 15.524)"/><path d="m79.489 36.721h1.662v.428h-1.662z" fill="#e4e4e3" transform="matrix(.3419 -.9397 .9397 .3419 18.1493 99.7871)"/><path d="m78.452 36.344h1.662v.428h-1.662z" fill="#e4e4e3" transform="matrix(.3419 -.9397 .9397 .3419 17.8214 98.5638)"/><path d="m83.058 26.915h1.662v.428h-1.662z" fill="#e4e4e3" transform="matrix(.3422 -.9396 .9396 .3422 29.6919 96.6708)"/><path d="m82.021 26.538h1.662v.428h-1.662z" fill="#e4e4e3" transform="matrix(.3422 -.9396 .9396 .3422 29.3643 95.4477)"/><path d="m85.149 34.654h.428v1.662h-.428z" fill="#e4e4e3" transform="matrix(.766 -.6428 .6428 .766 -2.8384 63.1729)"/><path d="m84.303 35.364h.428v1.662h-.428z" fill="#e4e4e3" transform="matrix(.766 -.6428 .6428 .766 -3.4923 62.7954)"/><path d="m78.441 26.661h.428v1.662h-.428z" fill="#e4e4e3" transform="matrix(.766 -.6428 .6428 .766 .7314 56.9929)"/><path d="m77.595 27.37h.428v1.662h-.428z" fill="#e4e4e3" transform="matrix(.766 -.6428 .6428 .766 .0766 56.6132)"/><path d="m80.178 24.138c4.267-.752 8.335 2.097 9.087 6.363s-2.097 8.335-6.363 9.087c-4.267.752-8.335-2.097-9.087-6.363-.753-4.266 2.096-8.334 6.363-9.087zm-5.263 8.894c.645 3.659 4.134 6.102 7.793 5.457s6.102-4.134 5.457-7.793-4.134-6.102-7.793-5.457-6.102 4.134-5.457 7.793z" fill="#bcbdbc"/><path d="m80.173 24.138c4.267-.752 8.335 2.097 9.087 6.363s-2.097 8.335-6.363 9.087c-4.267.752-8.335-2.097-9.087-6.363-.753-4.266 2.096-8.334 6.363-9.087zm-10.502 9.847c1.142 6.477 7.382 10.791 13.937 9.636 6.555-1.156 10.943-7.344 9.801-13.821s-7.382-10.791-13.937-9.636-10.943 7.344-9.801 13.821z" fill="#ccc"/><path d="m75.125 22.618c1.248-.873 2.692-1.506 4.278-1.818l.421 2.388c-1.152.233-2.208.682-3.133 1.296z" fill="#9c9c9c"/><path d="m79.536 21.555c-1.449.287-2.77.862-3.916 1.654l.609.727c1.021-.691 2.191-1.193 3.471-1.45z" fill="#525252"/><path d="m84.489 20.967c-1.471-.394-3.045-.494-4.642-.245l.421 2.388c1.162-.175 2.308-.114 3.387.147z" fill="#9c9c9c"/><path d="m79.98 21.477c1.459-.226 2.898-.138 4.245.215l-.324.891c-1.195-.3-2.467-.372-3.757-.175z" fill="#525252"/><path d="m70.353 32.828c-.133-1.517.042-3.085.565-4.614l2.279.829c-.374 1.114-.513 2.253-.444 3.361z" fill="#9c9c9c"/><path d="m71.639 28.477c-.476 1.398-.639 2.83-.526 4.218l.934-.164c-.088-1.229.062-2.494.48-3.73z" fill="#525252"/><path d="m73.606 23.893c-1.077 1.077-1.95 2.39-2.533 3.898l2.279.829c.429-1.094 1.055-2.056 1.821-2.86z" fill="#9c9c9c"/><path d="m71.793 28.053c.534-1.377 1.33-2.579 2.309-3.569l.61.726c-.857.885-1.556 1.951-2.03 3.166-.001 0-.889-.323-.889-.323z" fill="#525252"/><path d="m76.81 42.066c-1.38-.644-2.65-1.579-3.713-2.796l1.858-1.559c.778.881 1.694 1.571 2.689 2.065z" fill="#9c9c9c"/><path d="m73.684 38.777c.973 1.111 2.132 1.968 3.39 2.564l.325-.891c-1.108-.539-2.129-1.301-2.991-2.281 0 0-.724.608-.724.608z" fill="#525252"/><path d="m70.698 34.782c.394 1.471 1.095 2.884 2.109 4.142l1.858-1.559c-.733-.919-1.253-1.941-1.567-3.007z" fill="#9c9c9c"/><path d="m73.395 38.431c-.925-1.151-1.568-2.441-1.937-3.784l.934-.165c.338 1.185.912 2.322 1.727 3.341z" fill="#525252"/><path d="m88.038 41.092c-1.248.873-2.692 1.506-4.278 1.818l-.421-2.388c1.152-.233 2.208-.682 3.133-1.296z" fill="#9c9c9c"/><path d="m83.626 42.155c1.449-.287 2.77-.862 3.916-1.654l-.609-.727c-1.021.691-2.191 1.193-3.471 1.45z" fill="#525252"/><path d="m78.674 42.744c1.471.394 3.045.494 4.642.245l-.421-2.389c-1.162.175-2.308.114-3.387-.147z" fill="#9c9c9c"/><path d="m83.183 42.233c-1.459.226-2.898.138-4.245-.215l.324-.891c1.195.3 2.467.372 3.757.175z" fill="#525252"/><path d="m92.81 30.885c.133 1.517-.042 3.085-.565 4.614l-2.279-.829c.374-1.114.513-2.253.444-3.361z" fill="#9c9c9c"/><path d="m91.524 35.236c.476-1.398.639-2.83.526-4.218l-.934.164c.088 1.229-.062 2.494-.48 3.73z" fill="#525252"/><path d="m89.558 39.82c1.077-1.077 1.95-2.39 2.533-3.898l-2.279-.829c-.429 1.094-1.055 2.056-1.821 2.86z" fill="#9c9c9c"/><path d="m91.37 35.66c-.534 1.377-1.33 2.579-2.309 3.569l-.61-.726c.857-.885 1.556-1.951 2.03-3.166z" fill="#525252"/><path d="m91.271 29.038 1.801-.318c-.932-3.431-3.312-6.152-6.348-7.608l-.609 1.543-.521 1.319c2.082 1.062 3.722 2.935 4.441 5.281z" fill="#525252"/><path d="m86.712 21.046.012.067c3.036 1.456 5.416 4.177 6.348 7.608l-1.801.318c.347.313.491.537.432.67-.087.196-.611.198-1.574.006.038-.35.236-2.473-1.33-4.291-1.559-1.81-3.269-1.584-3.622-1.599-.01-.981.089-1.497.298-1.545.142-.033.335.15.578.549l.646-1.711m3.909 7.238 1.59-.28c-.917-2.586-2.728-4.683-5.008-5.993l-.617 1.325c.268.014 1.53.152 2.723 1.584 1.198 1.438 1.405 3.078 1.377 3.353" fill="#9c9c9c"/><path d="m79.655 70.314h14.31" fill="none" stroke="#404040" stroke-miterlimit="10" stroke-width=".7131"/><path d="m75.305 70.314h-4.636" fill="none" stroke="#404040" stroke-miterlimit="10" stroke-width=".7131"/><path d="m70.004 61.567 6.05 1.45h-6.05z" fill="#292929"/><path d="m44.784 61.567h25.219v.856h-25.219z" fill="#292929"/><path d="m55.197 66.939h4.42v2.306h-4.42z" fill="#100b06"/><g fill="#434343"><path d="m2.353 52.721h110.035v.666h-110.035z"/><path d="m2.353 53.862h110.035v.666h-110.035z"/><path d="m2.353 55.003h110.035v.666h-110.035z"/><path d="m2.353 56.144h110.035v.666h-110.035z"/><path d="m2.353 57.285h110.035v.666h-110.035z"/><path d="m2.353 58.426h110.035v.666h-110.035z"/><path d="m2.353 59.568h110.035v.666h-110.035z"/><path d="m2.353 60.709h110.035v.666h-110.035z"/><path d="m2.353 61.861h110.035v.666h-110.035z"/><path d="m2.353 63.668h37.382c.242-.336.636-.556 1.079-.556h2.448c.443 0 .837.22 1.079.556h26.104c.242-.336.636-.556 1.079-.556h2.448c.443 0 .837.22 1.079.556h37.336v-.666h-110.034z"/><path d="m32.257 64.809h7.227v-.366c0-.103.013-.203.035-.299h-37.166v.666h26.624c.464-.327 1.029-.521 1.64-.521s1.175.193 1.64.52z"/><path d="m44.594 64.443v.366h25.6v-.366c0-.103.013-.203.035-.299h-25.67c.022.096.035.196.035.299z"/><path d="m75.305 64.809h7.227c.464-.327 1.029-.521 1.64-.521s1.176.194 1.64.521h26.578v-.666h-37.121c.022.096.035.196.035.299v.367z"/><path d="m39.483 65.284h-6.703c.172.2.315.424.427.666h6.277v-.666z"/><path d="m112.389 65.95v-.666h-26.055c.172.2.315.424.427.666z"/><path d="m75.305 65.95h6.277c.112-.242.255-.466.427-.666h-6.704z"/><path d="m2.353 65.284v.666h25.674c.112-.242.255-.466.427-.666z"/><path d="m44.594 65.284h25.6v.666h-25.6z"/><path d="m2.353 66.425v.666h25.414c.004-.23.036-.452.092-.666z"/><path d="m44.378 67.091h26.032c-.126-.193-.202-.421-.213-.666h-25.606c-.01.245-.087.473-.213.666z"/><path d="m112.389 67.091v-.666h-25.459c.055.213.088.436.092.666z"/><path d="m75.089 67.091h6.232c.004-.23.036-.452.092-.666h-6.111c-.011.245-.087.473-.213.666z"/><path d="m39.486 66.425h-6.111c.055.213.088.436.092.666h6.232c-.126-.193-.202-.421-.213-.666z"/><path d="m73.974 67.699h-2.448c-.206 0-.4-.049-.575-.133h-27.113c-.174.084-.369.133-.575.133h-2.448c-.206 0-.4-.049-.575-.133h-6.806c-.035.232-.095.455-.182.666h48.284c-.087-.21-.147-.434-.182-.666h-6.806c-.174.085-.369.133-.574.133z"/><path d="m112.389 68.232v-.666h-25.4c-.035.232-.095.455-.182.666z"/><path d="m2.353 67.566v.666h25.628c-.087-.21-.147-.434-.182-.666z"/><path d="m81.79 68.71h-48.792c-.166.251-.37.473-.604.66h50.001c-.235-.187-.439-.409-.605-.66z"/><path d="m28.236 68.71h-25.432v.66h26.036c-.234-.187-.438-.409-.604-.66z"/><path d="m85.948 69.37h25.934v-.66h-25.33c-.166.251-.37.473-.604.66z"/></g><path d="m44.784 62.969h-23.157v.856h18.011c.224-.423.668-.713 1.177-.713h2.448c.509 0 .954.29 1.177.713h.344z" fill="#292929"/><path d="m93.161 62.969h-23.157v.856h.344c.224-.423.668-.713 1.177-.713h2.448c.509 0 .954.29 1.177.713h18.011z" fill="#292929"/><path d="m84.171 64.288c1.126 0 2.097.654 2.561 1.602l1.147-2.494h-3.7-3.7l1.139 2.476c.468-.937 1.434-1.584 2.553-1.584z" fill="#292929"/><path d="m30.617 64.288c1.119 0 2.085.646 2.552 1.584l1.139-2.476h-3.7-3.7l1.147 2.494c.465-.947 1.436-1.602 2.562-1.602z" fill="#292929"/><path d="m57.662 43.225h-48.522c-1.702-3.482-2.656-7.386-2.656-11.509 0-4.173.977-8.122 2.718-11.636l48.365.001c1.741 3.514 2.812 7.462 2.812 11.635 0 4.123-.954 8.027-2.656 11.509m-18.201-11.396c0-3.343-2.71-6.053-6.053-6.053s-6.053 2.71-6.053 6.053 2.71 6.053 6.053 6.053 6.053-2.71 6.053-6.053z" fill="#392010"/><path d="m39.489 31.743c0 3.348-2.714 6.062-6.062 6.062s-6.062-2.714-6.062-6.062 2.714-6.062 6.062-6.062 6.062 2.714 6.062 6.062zm-6.061-6.727c-3.715 0-6.727 3.012-6.727 6.727s3.012 6.727 6.727 6.727 6.727-3.012 6.727-6.727-3.012-6.727-6.727-6.727z" fill="#9d9d9d"/><path d="m33.428 37.995c-3.421 0-6.204-2.783-6.204-6.204s2.783-6.204 6.204-6.204 6.204 2.783 6.204 6.204-2.783 6.204-6.204 6.204zm0-12.124c-3.264 0-5.919 2.655-5.919 5.919s2.655 5.919 5.919 5.919 5.919-2.655 5.919-5.919-2.656-5.919-5.919-5.919z" fill="#e4e4e3"/><path d="m32.661 25.754h.428v1.662h-.428z" fill="#e4e4e3"/><path d="m33.765 25.754h.428v1.662h-.428z" fill="#e4e4e3"/><path d="m32.662 36.19h.428v1.662h-.428z" fill="#e4e4e3"/><path d="m33.766 36.19h.428v1.662h-.428z" fill="#e4e4e3"/><path d="m28.43 28.835h.428v1.662h-.428z" fill="#e4e4e3" transform="matrix(.5 -.866 .866 .5 -11.3701 39.6377)"/><path d="m28.982 27.879h.428v1.662h-.428z" fill="#e4e4e3" transform="matrix(.5 -.866 .866 .5 -10.2656 39.64)"/><path d="m37.467 34.052h.428v1.662h-.428z" fill="#e4e4e3" transform="matrix(.5 -.866 .866 .5 -11.3696 50.0738)"/><path d="m38.019 33.096h.428v1.662h-.428z" fill="#e4e4e3" transform="matrix(.5 -.866 .866 .5 -10.2657 50.0738)"/><path d="m28.365 34.67h1.662v.428h-1.662z" fill="#e4e4e3" transform="matrix(.866 -.5001 .5001 .866 -13.5315 19.2744)"/><path d="m27.813 33.714h1.662v.428h-1.662z" fill="#e4e4e3" transform="matrix(.866 -.5001 .5001 .866 -13.1274 18.8703)"/><path d="m37.402 29.452h1.662v.428h-1.662z" fill="#e4e4e3" transform="matrix(.866 -.5001 .5001 .866 -9.7111 23.0943)"/><path d="m36.85 28.496h1.662v.428h-1.662z" fill="#e4e4e3" transform="matrix(.866 -.5001 .5001 .866 -9.307 22.6902)"/><path d="m41.272 31.743c0 4.332-3.512 7.844-7.844 7.844s-7.844-3.512-7.844-7.844 3.512-7.844 7.844-7.844 7.844 3.512 7.844 7.844zm-7.844-6.727c-3.715 0-6.727 3.012-6.727 6.727s3.012 6.727 6.727 6.727 6.727-3.012 6.727-6.727-3.012-6.727-6.727-6.727z" fill="#bcbdbc"/><path d="m41.272 31.743c0 4.332-3.512 7.844-7.844 7.844s-7.844-3.512-7.844-7.844 3.512-7.844 7.844-7.844 7.844 3.512 7.844 7.844zm-7.874-12.052c-6.577 0-11.909 5.396-11.909 12.052s5.332 12.052 11.909 12.052 11.909-5.396 11.909-12.052-5.332-12.052-11.909-12.052z" fill="#ccc"/><path d="m43.646 27.036c.643 1.38 1.015 2.913 1.047 4.529h-2.425c-.029-1.175-.288-2.293-.733-3.31z" fill="#9c9c9c"/><path d="m43.926 31.565c-.031-1.477-.368-2.878-.949-4.144l-.821.474c.503 1.125.795 2.365.825 3.67z" fill="#525252"/><path d="m43.646 36.544c.643-1.38 1.015-2.913 1.047-4.529h-2.425c-.029 1.175-.288 2.293-.733 3.31z" fill="#9c9c9c"/><path d="m43.926 32.015c-.031 1.477-.368 2.878-.949 4.144l-.821-.474c.503-1.125.795-2.365.825-3.67z" fill="#525252"/><path d="m34.419 20.564c1.517.133 3.03.577 4.446 1.358l-1.213 2.1c-1.032-.562-2.129-.897-3.233-1.021z" fill="#9c9c9c"/><path d="m38.481 22.585c-1.294-.711-2.676-1.121-4.063-1.25v.948c1.226.127 2.445.494 3.59 1.121z" fill="#525252"/><path d="m42.654 25.318c-.874-1.247-2.015-2.336-3.399-3.171l-1.213 2.1c1.003.613 1.841 1.396 2.501 2.29z" fill="#9c9c9c"/><path d="m38.872 22.811c1.263.765 2.309 1.757 3.114 2.894l-.821.474c-.723-.998-1.651-1.871-2.766-2.549z" fill="#525252"/><path d="m24.201 25.318c.874-1.247 2.015-2.336 3.399-3.171l1.213 2.1c-1.003.613-1.841 1.396-2.501 2.29z" fill="#9c9c9c"/><path d="m27.983 22.811c-1.263.765-2.309 1.757-3.114 2.894l.821.474c.723-.998 1.651-1.871 2.766-2.549z" fill="#525252"/><path d="m32.436 20.564c-1.517.133-3.03.577-4.446 1.358l1.213 2.1c1.032-.562 2.129-.897 3.233-1.021z" fill="#9c9c9c"/><path d="m28.373 22.586c1.294-.711 2.676-1.121 4.063-1.25v.948c-1.226.127-2.445.494-3.59 1.121 0-.001-.473-.819-.473-.819z" fill="#525252"/><path d="m23.21 36.544c-.643-1.38-1.015-2.913-1.047-4.529h2.425c.029 1.175.288 2.293.733 3.31z" fill="#9c9c9c"/><path d="m22.929 32.016c.031 1.477.368 2.878.949 4.144l.821-.474c-.503-1.125-.795-2.365-.825-3.67z" fill="#525252"/><path d="m23.21 27.036c-.643 1.38-1.015 2.913-1.047 4.529h2.425c.029-1.175.288-2.293.733-3.31z" fill="#9c9c9c"/><path d="m22.929 31.565c.031-1.477.368-2.878.949-4.144l.821.474c-.503 1.125-.795 2.365-.825 3.67z" fill="#525252"/><path d="m32.434 43.016c-1.517-.133-3.03-.577-4.446-1.358l1.213-2.1c1.032.562 2.129.897 3.233 1.021z" fill="#9c9c9c"/><path d="m28.371 40.995c1.294.711 2.676 1.121 4.063 1.25v-.948c-1.226-.127-2.445-.494-3.59-1.121z" fill="#525252"/><path d="m24.199 38.262c.874 1.247 2.015 2.336 3.399 3.171l1.213-2.1c-1.003-.613-1.841-1.396-2.501-2.29z" fill="#9c9c9c"/><path d="m27.981 40.77c-1.263-.765-2.309-1.757-3.114-2.894l.821-.474c.723.998 1.651 1.871 2.766 2.549z" fill="#525252"/><path d="m34.519 41.822v1.829c3.54-.322 6.633-2.193 8.595-4.93l-1.414-.869-1.208-.742c-1.407 1.866-3.536 3.156-5.972 3.456v1.256z" fill="#525252"/><path d="m43.182 38.72h-.068c-1.962 2.737-5.054 4.608-8.595 4.93v-1.829c-.369.287-.614.39-.735.309-.178-.12-.089-.637.267-1.551.338.099 2.394.662 4.457-.565 2.053-1.221 2.127-2.944 2.203-3.289.968.161 1.458.348 1.47.562.008.146-.205.304-.641.474l1.572.933m-7.806 2.593v1.614c2.706-.454 5.085-1.873 6.771-3.891l-1.198-.838c-.06.262-.416 1.481-2.032 2.407-1.624.931-3.275.849-3.541.774" fill="#9c9c9c"/><path d="m95.676 70.314h13.609c1.928 0 3.506-1.578 3.506-3.506v-62.945c0-1.928-1.578-3.506-3.506-3.506h-3.518v5.117c0 .245-.201.446-.446.446h-6.489c-.245 0-.446-.201-.446-.446v-5.117h-41.004.025-41.005v5.117c0 .245-.201.446-.446.446h-6.489c-.245 0-.446-.201-.446-.446v-5.117h-3.518c-1.928 0-3.506 1.578-3.506 3.506v62.945c0 1.928 1.578 3.506 3.506 3.506h13.609" fill="none" stroke="#404040" stroke-miterlimit="10" stroke-width=".7131"/><path d="m6.882 3.066c0 1.22-.989 2.21-2.21 2.21s-2.21-.989-2.21-2.21" fill="#3a3a3a"/><path d="m2.462 3.066c0-1.22.989-2.21 2.21-2.21s2.21.989 2.21 2.21" fill="#525252"/><path d="m4.065 2.615h1.141v1.141h-1.141z" fill="#1f1f1f"/><path d="m3.383 2.902h2.505v.567h-2.505z" fill="#1f1f1f" transform="matrix(.6018 -.7986 .7986 .6018 -.6982 4.9703)"/><path d="m3.383 2.902h2.505v.567h-2.505z" fill="#1f1f1f" transform="matrix(-.7986 -.6018 .6018 -.7986 6.4203 8.5188)"/><circle cx="4.672" cy="3.066" fill="none" r="2.21" stroke="#404040" stroke-miterlimit="10" stroke-width=".1426"/><path d="m107.906 3.066c0 1.22.989 2.21 2.21 2.21 1.22 0 2.21-.989 2.21-2.21" fill="#3a3a3a"/><path d="m112.326 3.066c0-1.22-.989-2.21-2.21-2.21-1.22 0-2.21.989-2.21 2.21" fill="#525252"/><path d="m109.582 2.615h1.141v1.141h-1.141z" fill="#1f1f1f" transform="matrix(-1 0 0 -1 220.3056 6.3706)"/><path d="m108.9 2.902h2.505v.567h-2.505z" fill="#1f1f1f" transform="matrix(-.6018 -.7986 .7986 -.6018 173.9005 93.0742)"/><path d="m108.9 2.902h2.505v.567h-2.505z" fill="#1f1f1f" transform="matrix(.7986 -.6018 .6018 .7986 20.2639 66.933)"/><circle cx="110.116" cy="3.066" fill="none" r="2.21" stroke="#404040" stroke-miterlimit="10" stroke-width=".1426"/><path d="m6.909 67.841c0 1.22-.989 2.21-2.21 2.21s-2.21-.989-2.21-2.21" fill="#3a3a3a"/><path d="m2.49 67.841c0-1.22.989-2.21 2.21-2.21s2.21.989 2.21 2.21" fill="#525252"/><path d="m4.092 67.39h1.141v1.141h-1.141z" fill="#1f1f1f"/><path d="m3.411 67.677h2.505v.567h-2.505z" fill="#1f1f1f" transform="matrix(.6018 -.7986 .7986 .6018 -52.4193 30.785)"/><path d="m3.411 67.677h2.505v.567h-2.505z" fill="#1f1f1f" transform="matrix(-.7986 -.6018 .6018 -.7986 -32.5129 125.0432)"/><circle cx="4.7" cy="67.841" fill="none" r="2.21" stroke="#404040" stroke-miterlimit="10" stroke-width=".1426"/><path d="m107.879 67.841c0 1.22.989 2.21 2.21 2.21 1.22 0 2.21-.989 2.21-2.21" fill="#3a3a3a"/><path d="m112.298 67.841c0-1.22-.989-2.21-2.21-2.21-1.22 0-2.21.989-2.21 2.21" fill="#525252"/><path d="m109.555 67.39h1.141v1.141h-1.141z" fill="#1f1f1f" transform="matrix(-1 0 0 -1 220.2503 135.9219)"/><path d="m108.873 67.677h2.505v.567h-2.505z" fill="#1f1f1f" transform="matrix(-.6018 -.7986 .7986 -.6018 122.1241 196.8107)"/><path d="m108.873 67.677h2.505v.567h-2.505z" fill="#1f1f1f" transform="matrix(.7986 -.6018 .6018 .7986 -18.7246 79.9599)"/><circle cx="110.089" cy="67.841" fill="none" r="2.21" stroke="#404040" stroke-miterlimit="10" stroke-width=".1426"/><path d="m67.223 65.374-.166-1.834h-19.326l-.166 1.834-.284-.026.19-2.094h19.846l.19 2.094z" fill="#b7b8b6"/><path d="m59.688 58.571c0 1.22-.989 2.21-2.21 2.21-1.22 0-2.21-.989-2.21-2.21" fill="#3a3a3a"/><path d="m55.268 58.571c0-1.22.989-2.21 2.21-2.21 1.22 0 2.21.989 2.21 2.21" fill="#525252"/><path d="m56.871 58.12h1.141v1.141h-1.141z" fill="#1f1f1f"/><path d="m56.189 58.407h2.505v.567h-2.505z" fill="#1f1f1f" transform="matrix(.6018 -.7986 .7986 .6018 -23.9999 69.2443)"/><path d="m56.189 58.407h2.505v.567h-2.505z" fill="#1f1f1f" transform="matrix(-.7986 -.6018 .6018 -.7986 67.9954 140.1315)"/><circle cx="57.478" cy="58.571" fill="none" r="2.21" stroke="#404040" stroke-miterlimit="10" stroke-width=".1426"/><path d="m20.48 70.409-.835-.189 3.366-14.884c.027-1.156.976-2.089 2.139-2.089h64.489c1.163 0 2.112.932 2.139 2.089l3.365 14.884-.835.189-3.386-14.975v-.048c0-.708-.576-1.284-1.284-1.284h-64.488c-.708 0-1.284.576-1.284 1.284v.048l-.011.047z" fill="#292929"/><path d="m36.322 63.397h.856v5.206h-.856z" fill="#292929"/><path d="m77.61 63.397h.856v5.206h-.856z" fill="#292929"/><path d="m70.669 70.742h-5.467v-6.989h.856v6.133h4.611z" fill="#292929"/><path d="m49.586 70.742h-5.467v-.856h4.611v-6.133h.856z" fill="#292929"/><path d="m68.649 67.081h-22.51v-.974h.286v.689h21.939v-.689h.285z" fill="#81472e"/><path d="m6.484 31.841c-1.164 15.986-1.613 27.572-1.613 27.572-.201 1.89 2.853 9.075 7.858 9.485 28.109 1.284 58.007.517 89.33 0 5.005-.41 8.059-7.595 7.858-9.485-.274-5.028-9.889-26.098-16.369-28.358" fill="none" stroke="#f2f2f2" stroke-miterlimit="10" stroke-width=".0713"/><path d="m45.545 27.717v8.32" fill="none" stroke="#fff" stroke-miterlimit="10" stroke-width=".1426"/><path d="m48.6 27.717v8.32" fill="none" stroke="#fff" stroke-miterlimit="10" stroke-width=".1426"/><path d="m51.523 27.717v8.32" fill="none" stroke="#fff" stroke-miterlimit="10" stroke-width=".1426"/><path d="m54.483 27.717v8.32" fill="none" stroke="#fff" stroke-miterlimit="10" stroke-width=".1426"/><path d="m57.478 27.717v8.32" fill="none" stroke="#fff" stroke-miterlimit="10" stroke-width=".1426"/><path d="m60.437 27.717v8.32" fill="none" stroke="#fff" stroke-miterlimit="10" stroke-width=".1426"/><path d="m63.397 27.717v8.32" fill="none" stroke="#fff" stroke-miterlimit="10" stroke-width=".1426"/><path d="m66.392 27.717v8.32" fill="none" stroke="#fff" stroke-miterlimit="10" stroke-width=".1426"/><path d="m69.387 27.717v8.32" fill="none" stroke="#fff" stroke-miterlimit="10" stroke-width=".1426"/></svg>