<svg enable-background="new 0 0 21.775 20.762" viewBox="0 0 21.775 20.762" xmlns="http://www.w3.org/2000/svg"><path d="m9.139 14.901c-.725-.034-2.003-.215-3.152-1.125-.242-.192-.45-.393-.628-.592.014.101-.254.213-.318.242-.471.212-.944.862-1.141 1.224-.417.767-.305 1.553-.291 1.646.016.105.198 1.159 1.152 1.781 1.107.722 2.622.45 3.413-.342.16-.16.606-.607.695-1.235.087-.619.073-.809.073-.809s-.034-.43.099-.695c.011-.022.032-.059.073-.083.008-.005.016-.009.025-.012z" fill="#f38b92" stroke="#000" stroke-miterlimit="10" stroke-width=".0992"/><circle cx="4.554" cy="16.307" fill="#f8f8f8" r=".349"/><g stroke="#000" stroke-miterlimit="10" stroke-width=".0992"><path d="m14.602 13.818c-.299.301-.767.753-1.504 1.027-.227.085-.58.154-1.292.244-1.462.184-2.109-.023-2.236-.093-.082-.045-.13-.058-.228-.083-.104-.027-.162-.027-.203-.012-.725-.034-2.003-.215-3.152-1.125-.242-.192-.45-.393-.628-.592-.005-.039-.05-.062-.06-.067-.174-.096-.526-.785-.663-1.264-.221-.774-.144-1.926.425-2.936.209-.371.589-1.045 1.35-1.35.153-.061.882-.354 1.273-.062.071.053.255.219.287.19.002-.001.003-.003.004-.006.188.63.469 1.491 1.287 2.008.179.113.817.517 1.591.36.043-.009.783-.168 1.162-.678.048-.065.122-.178.262-.328.081-.088.254-.262.513-.433.287-.189.536-.28.636-.318.633-.24 1.102-.554 1.439-.761.49-.301.479-.353.83-.526.644-.317 1-.299 1.107-.291.06.005.397.032.636.194.647.436.486 1.769.401 2.103-.472 1.841-1.409 2.954-3.237 4.799z" fill="#f28d93"/><path d="m14.677 13.743c.109-.11.46.655.615 1.06.077.201.318.839.318 1.778 0 3.728-6.688 5.242-10.88 3.396-2.576-1.134-3.863-5.245-3.132-5.543.112-.046.245-.083.413-.205.473-.343.567-.88.519-1.058-.004-.016-.014-.05-.042-.083-.088-.107-.268-.087-.31-.084-.404.026-1.326-.676-1.888-1.3-.115-.127-.254-.296-.284-.54-.01-.088-.025-.342.131-.505.147-.153.374-.152.474-.156.72-.025 1.498-.516 1.868-.913.134-.144.505-.542.498-1.089-.01-.829-.88-1.346-1.058-1.453-.468-.278-1.111-.273-1.36-.283-.216-.009-.029-.67.236-1.107.268-.442.667-.621 1.01-.775 1.018-.456 2.33-.398 2.518-.346.006.002.023.007.042 0 .152-.055.024-.769.013-.83-.207-1.148-1.714-1.773-1.875-1.805-.004-.001-.014-.002-.024-.01-.096-.076.131-.505.155-.55.123-.23.268-.401.332-.463.539-.533 2.169-.236 3.085-.069 1.052.192 1.529.392 1.66.45.179.077.603.281 1.079.552.006.003.023.026.049.028.052.003.095-.076.104-.09.094-.159.845-.708 1.259-.975.358-.231.744-.481 1.314-.643.329-.094.534-.152.823-.125.544.053 1.009.376 1.266.754.081.119.147.217.173.367.044.256-.089.326-.27.92 0 0-.188.618-.076.823.004.007.026.041.014.059-.022.032-.138-.012-.163-.021-.199-.071-.58-.03-.844.052-.468.146-.789.489-.809.598-.001.005-.004.027-.017.031-.048.017-.166-.213-.19-.256-.177-.316-.83-.496-1.297-.498-.871-.004-1.487.608-1.691.84-.691.786-.688 1.793-.686 2.324.002.456.097 1.403.202 1.613.006.011.035.067.019.081-.032.028-.216-.137-.287-.19-.39-.292-1.12.001-1.273.062-.76.306-1.14.98-1.348 1.35-.569 1.01-.646 2.162-.425 2.936.137.479.489 1.168.663 1.264.01.005.054.028.06.067.014.101-.254.213-.318.242-.472.213-.945.863-1.142 1.225-.417.767-.305 1.553-.291 1.646.016.105.198 1.159 1.152 1.781 1.107.722 2.622.45 3.413-.342.16-.16.606-.607.695-1.235.087-.619.073-.809.073-.809s-.034-.43.099-.695c.011-.022.032-.059.073-.083.043-.026.101-.033.228 0 .098.025.147.038.228.083.127.07.774.277 2.236.093.625-.079.938-.118 1.292-.244.737-.275 1.206-.726 1.504-1.027.025-.025.05-.05.075-.075z" fill="#ffea02"/><path d="m15.61 16.58c.381.45 2.498.019 3.147-1.459.33-.751.158-1.494.062-1.812-.171-.797-.686-1.425-1.364-1.617-.379-.107-.719-.052-.932.005-.478.628-1.083 1.273-1.847 2.046.153.022.46.655.615 1.06.007.018.034.088.062.169.102.294.257.855.257 1.608z" fill="#f38b92"/></g><path d="m16.478 11.679c-.735.591-1.874.764-2.804.391-.219-.088-.714-.294-1.079-.82-.61-.877-.372-2.141-.093-2.415.077-.075.177-.144.287-.217.251-.166.443-.245.636-.318.633-.24 1.102-.554 1.439-.761.49-.301.479-.353.83-.526.644-.317 1-.299 1.107-.291.06.005.397.032.636.194.647.436.486 1.769.401 2.103-.115.45-.258.857-.435 1.242-.285.618-.443.957-.749 1.262-.056.055-.115.107-.176.156" fill="#feeb01"/><path d="m12.502 8.835c.077-.075.177-.144.287-.217.251-.166.443-.245.636-.318.633-.24 1.102-.554 1.439-.761.49-.301.479-.353.83-.526.644-.317 1-.299 1.107-.291.06.005.397.032.636.194.647.436.486 1.769.401 2.103-.115.45-.258.857-.435 1.242-.285.618-.722 1.258-.98 1.566" fill="none" stroke="#000" stroke-miterlimit="10" stroke-width=".1245"/><path d="m9.676 11.717c-.036 0-.089.311-.069.387.203.77 2.755.775 2.947.733.008-.002.054-.013.059-.002.01.021-.141.109-.183.133-.516.3-2.137.152-2.137.152-.509-.046-.799-.088-1.127-.263-.2-.107-.443-.236-.463-.443-.03-.296.409-.63.809-.692.059-.007.128-.005.164-.005z" fill="#0c0c0c"/><ellipse cx="15.849" cy="8.047" fill="#fff" rx=".524" ry=".384" transform="matrix(.9113 -.4117 .4117 .9113 -1.9075 7.2386)"/><ellipse cx="14.754" cy="8.75" fill="#fff" rx=".195" ry=".27"/><path d="m13.445 2.929c-.074-.012-.163-.021-.163-.021-.225-.022-.517-.05-.844.052-.468.146-.789.489-.809.598-.001.005-.004.027-.017.031-.048.017-.166-.213-.19-.256-.177-.316-.83-.496-1.297-.498-.871-.004-1.487.608-1.691.84-.69.787-.687 1.794-.685 2.325.003.777.129 1.366.202 1.613.189.636.459 1.547 1.31 2.084.179.113.817.517 1.591.36.043-.009.783-.168 1.162-.678.048-.065.122-.178.262-.328.081-.088.254-.262.513-.433.287-.189.536-.28.636-.318.052-.02 1.042-.399 1.439-.761.792-.721.469-2.508-.125-3.5-.38-.634-.935-1.051-1.294-1.11z" fill="#fff" stroke="#000" stroke-miterlimit="10" stroke-width=".0992"/><path d="m10.336 6.889c-.086 0-.166-.022-.237-.066-.23-.139-.236-.409-.236-.439v-.078l.274-.113-.167-.385.062-.056c.078-.072.17-.116.266-.127.017-.002.033-.003.05-.003.212 0 .383.158.465.294.178.293.094.716-.176.887-.022.014-.145.086-.301.086z" fill="#b7b7b7"/><path d="m10.112 5.838c.036-.033.105-.086.201-.097.185-.022.336.128.401.235.138.227.086.585-.138.726-.015.009-.224.137-.415.021-.177-.107-.181-.325-.181-.339l.311-.129z" fill="#101010"/><path d="m12.401 6.889c-.086 0-.166-.022-.237-.066-.23-.139-.236-.409-.236-.439v-.078l.274-.113-.166-.385.062-.056c.078-.072.17-.116.266-.127.017-.002.033-.003.05-.003.212 0 .383.158.465.294.178.293.094.716-.176.887-.024.014-.147.086-.302.086z" fill="#b7b7b7"/><path d="m12.176 5.838c.036-.033.105-.086.201-.097.185-.022.336.128.401.235.138.227.086.585-.138.726-.015.009-.224.137-.415.021-.176-.107-.18-.325-.18-.339l.311-.129z" fill="#101010"/></svg>