<svg enable-background="new 94 357.575 800 79.424" viewBox="94 357.575 800 79.424" xmlns="http://www.w3.org/2000/svg"><path d="m133.711 357.575h720.575c21.844 0 39.714 17.87 39.714 39.712 0 21.843-17.87 39.712-39.714 39.712h-720.575c-21.841.001-39.711-17.868-39.711-39.712 0-21.842 17.87-39.712 39.711-39.712z" fill="#5b5652"/><path d="m535.507 371.149h217.601v5.808h-217.601z" fill="#e81921"/><path d="m535.507 382.766h217.601v5.809h-217.601z" fill="#ec603d"/><path d="m535.507 394.383h217.601v5.809h-217.601z" fill="#ffd101"/><path d="m535.507 406h217.601v5.809h-217.601z" fill="#53b139"/><path d="m535.507 417.616h217.601v5.81h-217.601z" fill="#00a2ea"/><path d="m816.987 405.739c0 7.36-6.474 11.04-19.415 11.04h-6.625c-7.293 0-12.354-1.259-15.175-3.772-2.828-2.518-4.24-6.874-4.24-13.071v-8.334c0-6.16 1.412-10.496 4.24-13.012 2.82-2.517 7.882-3.773 15.175-3.773h6.625c6.011 0 10.531.807 13.559 2.422 3.032 1.614 4.548 3.98 4.548 7.096v2.986h-15.563v-1.069c0-.977-.285-1.616-.847-1.917-.565-.298-1.696-.452-3.39-.452h-3.7c-2.104 0-3.453.171-4.044.509-.588.338-.884 1.145-.884 2.421v5.744c2.259-1.238 5.057-1.856 8.395-1.856h5.472c5.497 0 9.516.93 12.055 2.787 2.543 1.858 3.815 4.723 3.815 8.59zm-349.202-20.173h-7.497v21.511h7.822v-11.243c0-2.934 1.794-4.4 5.054-4.4 3.258 0 4.076.977 4.236 3.746h7.336c0-7.333-.979-10.104-8.802-10.104-4.727 0-6.358.979-8.15 4.563v-4.073zm-307.6 12.922h-12.589v10.324h22.627zm10.038-12.444h-22.627v10.323h12.447zm333.581 16.797c-7.496 0-8.637-.652-8.637-4.4h20.54c-.329-10.428-.329-12.874-14.181-12.874-11.74 0-14.348 2.118-14.348 11.407 0 8.64 3.426 10.756 12.88 10.921 10.591 0 15.648-.49 15.648-7.497h-7.663c-.324 1.629-.976 2.443-4.239 2.443zm-8.801-8.963c.325-2.282.975-3.098 6.19-3.098 5.712 0 6.525.327 6.851 3.098zm-291.424.815h7.823c-.651-7.335-2.772-9.127-13.689-9.127-12.389 0-15.16 1.951-15.16 11.083 0 9.127 2.608 11.246 14.181 11.246 12.222 0 14.668-1.631 14.668-9.292h-7.823c0 2.12-.813 3.1-6.845 3.1-5.218 0-6.356-1.305-6.356-5.542 0-4.076 1.138-4.076 7.336-4.076 4.562-.001 5.376.489 5.865 2.608zm181.732 1.3c0-8.799-2.606-10.59-15.158-10.59-13.528 0-15.156 2.281-15.156 11.406 0 9.129 2.279 11.085 15.156 11.085 13.694 0 15.158-2.281 15.158-11.901zm-22.328.493c0-4.402.978-4.89 6.683-4.89 6.356 0 7.496.162 7.496 4.89 0 4.401-.817 5.216-6.846 5.216-6.519 0-7.333-.654-7.333-5.216zm92.574-.493c0-8.799-2.443-10.59-14.991-10.59-13.366 0-14.995 2.113-14.995 11.245 0 9.29 2.28 11.246 14.995 11.246 13.687 0 14.991-2.281 14.991-11.901zm-22.162.493c0-4.402.977-4.89 6.682-4.89 6.357 0 7.498.162 7.498 4.89 0 4.401-.814 5.216-6.845 5.216-6.519 0-7.335-.654-7.335-5.216zm-187.275-.493c0-8.799-2.444-10.59-14.995-10.59-13.529 0-15.159 2.113-15.159 11.245 0 9.29 2.284 11.246 15.159 11.246 13.692 0 14.995-2.281 14.995-11.901zm-22.006.493c0-4.402.978-4.89 6.522-4.89 6.355 0 7.497.162 7.497 4.89 0 4.401-.817 5.216-6.845 5.216-6.36 0-7.174-.654-7.174-5.216zm188.416-20.05v12.55c-1.791-2.445-3.421-3.745-9.94-3.745-10.431 0-12.389 2.771-12.389 11.244 0 8.641 2.772 11.081 12.876 11.081 6.357 0 8.312-1.629 9.78-4.399v3.909h7.823v-30.64zm-5.703 14.998c4.399 0 5.868.65 5.868 4.072 0 5.217-.328 5.709-6.518 5.709-6.195 0-7.824-.167-7.824-4.566 0-5.053 1.956-5.215 8.474-5.215zm-259.937-6.096v-13.293c-2.686-.707-4.526-.993-7.211-.993-14.003 0-26.306 11.741-26.306 26.305 0 14.992 12.443 26.166 26.445 26.166 2.545 0 3.959-.285 7.072-1.134v-13.577c-3.112 1.555-4.666 1.979-7.211 1.979-7.779 0-13.721-6.503-13.721-13.718 0-7.492 5.799-13.859 13.579-13.859 2.687 0 4.949.708 7.353 2.124zm111.614.228h-7.333v21.511h7.824v-11.084c0-3.257 1.63-4.397 6.03-4.397 4.076 0 5.218 1.465 5.218 5.54v9.941h7.986v-11.407c0-3.096 2.442-4.074 6.191-4.074 3.588 0 5.217.978 5.217 4.074v11.407h7.824v-12.712c0-6.353-3.914-9.29-11.083-9.29-6.196 0-8.477 2.283-9.292 4.726-1.629-2.771-3.91-4.726-10.106-4.726-5.867 0-7.498 1.955-8.477 5.542v-5.051zm52.649 0h-7.333v21.511h7.822v-11.084c0-3.257 1.956-4.397 5.865-4.397 4.078 0 5.215 1.304 5.215 5.54v9.941h7.991v-11.407c0-3.096 2.282-4.074 6.031-4.074 3.584 0 5.375 1.14 5.375 4.074v11.407h7.824v-12.712c0-6.353-3.91-9.29-11.082-9.29-6.195 0-8.314 2.119-9.29 4.726-1.631-2.771-3.914-4.726-10.107-4.726-5.704 0-7.17 1.955-8.311 5.542zm562.19 23.045h-6.624v7.661h-15.56v-7.661h-28.121l.078-11.152 22.265-22.138h21.338v24.221h6.624zm-22.184-9.069v-13.573l-13.481 13.573zm-49.735 5.576v-2.983c0-1.054-.348-1.719-1.039-2-.691-.28-2.195-.423-4.506-.423h-3.006c-2.313 0-3.826.131-4.547.396-.717.261-1.075.937-1.075 2.027v2.983c0 1.129.358 1.833 1.075 2.112.721.281 2.233.424 4.547.424h3.006c2.362 0 3.878-.143 4.543-.424.669-.279 1.002-.983 1.002-2.112z" fill="#fff"/></svg>
