<svg enable-background="new 0 0 288 289.901" viewBox="0 0 288 289.901" xmlns="http://www.w3.org/2000/svg"><path d="m223.145 4h-158.29c-1.104 0-2-.895-2-2s.896-2 2-2h158.289c1.104 0 2 .896 2 2s-.896 2-1.999 2z" fill="#c01e10"/><path d="m44.5 281.166v5.871c0 1.584-.918 2.864-2.5 2.864s-2.5-1.28-2.5-2.864v-5.871c0-1.583.918-2.864 2.5-2.864s2.5 1.281 2.5 2.864z" fill="#356631"/><path d="m285 285.022c1.65-.013 3-1.372 3-3.022v-260.5c0-11-9-20-20-20h-248c-11 0-20 9-20 20v260.5c0 1.65 1.35 3 3 3h13.5c1.65 0 4.191-.635 5.648-1.409l118.702-63.182c1.457-.774 3.854-.802 5.328-.06l125.892 63.398c1.474.742 4.029 1.34 5.68 1.327z" fill="#ccc"/><path d="m280 21.345c0-6.6-5.3-11.845-11.899-11.845h-248.202c-6.6 0-11.899 5.245-11.899 11.845l-.1 262.53c-.001 1.1.898 2 1.999 2h21.034c1.101 0 2-.9 2-2v-1.945c0-1.1.9-2 2-2h8.238c1.101 0 2 .9 2 2v1.945c0 1.1.9 2 2 2h14.782c1.101 0 2.767-.471 3.704-1.047l76.138-46.781c.938-.576 2.474-.58 3.414-.01l77.126 46.801c.941.57 2.609 1.037 3.71 1.037h14.881c1.101 0 2-.9 2-2v-1.945c0-1.1.9-2 2-2h8.239c1.1 0 2 .9 2 2v1.945c0 1.1.9 2 2 2h20.935c1.1 0 2-.9 2-2z" fill="#e6e6e6"/><path d="m223 287c1.1 0 2-.9 2-2v-180.343c0-44.889-36.111-81.33-81-81.33s-81 36.338-81 81.227v180.446c0 1.1.9 2 2 2h16.5c1.1 0 2-.9 2-2v-.459c0-1.1.9-2 2-2h23.012c1.1 0 2.854-.284 3.898-.632l29.192-9.72c1.044-.348 2.748-.337 3.787.023l29.222 10.132c1.039.36 2.79.655 3.89.655h24c1.1 0 2 .9 2 2 0 1.1.9 2 2 2h16.499z" fill="#d9d9d9"/><path d="m38.485 81c3.506 0 6.015 2.445 6.015 5.951v50.74c0 3.506-2.494 6.348-6 6.348s-6-2.842-6-6.348v-43.691h-24.601l-5.565-6.219 5.565-6.781z" fill="#ccc"/><path d="m249.682 81c-3.506 0-6.182 2.445-6.182 5.951v50.74c0 3.506 2.994 6.348 6.5 6.348s6.5-2.842 6.5-6.348v-43.691h23.768l5.566-6.219-5.566-6.781z" fill="#ccc"/><path d="m45.5 285v-23.372c0-3.506-2.994-6.348-6.5-6.348s-6.5 2.842-6.5 6.348v23.372" fill="#ccc"/><path d="m53.5 281c0 1.104-.896 2-2 2h-25c-1.104 0-2-.896-2-2v-15c0-1.104.896-2 2-2h25c1.104 0 2 .896 2 2z" fill="#ccc"/><path d="m255.5 285v-23.188c0-3.506-2.994-6.348-6.5-6.348s-6.5 2.842-6.5 6.348v23.188" fill="#ccc"/><path d="m7.5 209h55.5v4h-55.5z" fill="#b3b3b3"/><path d="m7.5 217h55.5v4h-55.5z" fill="#b3b3b3"/><path d="m7.5 225h55.5v4h-55.5z" fill="#b3b3b3"/><path d="m7.5 233h55.5v4h-55.5z" fill="#b3b3b3"/><path d="m7.5 241h55.5v4h-55.5z" fill="#b3b3b3"/><path d="m225 209h55.5v4h-55.5z" fill="#b3b3b3"/><path d="m225 217h55.5v4h-55.5z" fill="#b3b3b3"/><path d="m225 225h55.5v4h-55.5z" fill="#b3b3b3"/><path d="m225 233h55.5v4h-55.5z" fill="#b3b3b3"/><path d="m225 241h55.5v4h-55.5z" fill="#b3b3b3"/><path d="m204.5 285v-115.5c0-2.75-2.25-4.5-5-4.5h-111c-2.75 0-5 1.75-5 4.5v115.5h28l32.5-22.166 31.5 22.166z" fill="#bfbfbf"/><path d="m85.5 169h116v3h-116z" fill="#080a00"/><path d="m85.5 173h116v2h-116z" fill="#b3b3b3"/><path d="m90.5 174h2v70h-2z" fill="#b3b3b3"/><path d="m100.5 174h2v70h-2z" fill="#b3b3b3"/><path d="m111.5 174h2v43h-2z" fill="#b3b3b3"/><path d="m121.5 174h2v43h-2z" fill="#b3b3b3"/><path d="m132.5 174h2v43h-2z" fill="#b3b3b3"/><path d="m142.5 184h2v33h-2z" fill="#b3b3b3"/><path d="m137.365 188.597 1.099 1.023 5.034-5.418 5.037 5.418 1.098-1.023-6.135-6.597z" fill="#b3b3b3"/><path d="m153.5 174h2v43h-2z" fill="#b3b3b3"/><path d="m163.5 174h2v43h-2z" fill="#b3b3b3"/><path d="m174.5 174h2v43h-2z" fill="#b3b3b3"/><path d="m184.5 174h2v70h-2z" fill="#b3b3b3"/><path d="m195.5 174h2v70h-2z" fill="#b3b3b3"/><path d="m143.5 281.001c19.333 0 32 3.997 32 3.997v-29.439c0-17.734-14.266-32.131-32-32.131s-32 14.356-32 32.09v29.48s12.667-3.997 32-3.997z" fill="#a6a6a6"/><path d="m109.121 132.27c-.061 0-.122-.015-.18-.041-5.921-2.874-8.979-6.225-8.842-9.69.111-2.852 2.439-5.544 6.731-7.788 4.071-2.129 9.816-3.816 16.612-4.883.227-.037.438.118.473.345.037.228-.119.439-.346.474-13.764 2.163-22.439 6.716-22.641 11.885-.121 3.066 2.851 6.23 8.373 8.909.207.101.293.349.192.556-.069.147-.218.233-.372.233z" fill="#c01e10"/><path d="m160.734 110.992c-.023 0-.045-.002-.067-.006-4.373-.719-8.991-1.197-13.722-1.424-.23-.012-.406-.205-.395-.436.011-.228.21-.403.435-.393 4.764.228 9.412.709 13.816 1.434.227.036.381.25.344.477-.034.204-.21.348-.411.348z" fill="#c01e10"/><path d="m147.668 139c-.116 0-.232 0-.349 0-.229 0-.414 0-.414 0s.186 0 .415 0h.002c.114 0 .23-.242.346-.242 22.215 0 39.745-5.898 39.975-13.318.081-2.596-2.005-5.292-6.034-7.68-4.012-2.378-9.762-4.434-16.627-5.891-.225-.049-.368-.283-.32-.508.047-.225.268-.373.492-.326 6.953 1.475 12.789 3.53 16.879 5.953 4.305 2.551 6.531 5.44 6.439 8.357-.122 3.947-4.481 7.371-12.275 9.955-7.535 2.501-17.654 3.7-28.529 3.7z" fill="#c01e10"/><path d="m155.186 117.732 10.959-8.353-12.872 5.137-3.618-3.765 1.154 5.218-10.959 8.353 12.872-5.139 3.617 3.764z" fill="#c01e10"/><path d="m141.461 128.161c.156-.774.443-.661 1.228-.786l.73-.116-.227 1.218-.731.117c-.783.124-1.129.334-1-.433zm-1.583-1.114-.568 3.057c-.155.834.097 1.104.899.976l4.65-.737.997-5.361-4.651.736c-.803.127-1.174.494-1.327 1.329zm29.521-4.826-.055.297 4.798-.762c.378-.062.747-.444.824-.857.076-.414-.168-.701-.547-.641l-1.232.195-1.966.313-.497.077c-.576.093-1.208.749-1.325 1.378zm-33.655 13.824.039-.215c.164.014.386.076.578.047l4.986-.781c-.186.996-1.499 1.243-3.504 1.561l-2.282.363-1.224 6.578 2.998-.475c7.381-.729 10.19-4.541 11.09-9.09l8.993-1.427 1.449-7.798.731-.118c.802-.128.684-.272.529.562l-1.326 7.135 6.457-1.025.088-.473c.487.215 1.057.291 1.66.196l11.165-1.771 1.042-5.605-.725-.516c.628-.742 1.116-1.65 1.258-2.414l.176-.885c.558-3.305-2.49-4.183-3.881-3.961l-6.408 1.016c-1.135.181-2.385.971-3.294 2.018-.841-.831-2.138-1.155-2.894-1.035l-7.133 1.131.798 1.765 6.435-1.019c.928-.148 1.547.223 1.717.957-.068.195-1.717 8.977-1.717 8.977l-2.307.365 1.236-6.648c.154-.831-.099-1.102-.9-.973l-4.42.701-1.45 7.799-2.536.402 1.66-8.928-2.088-2.463-7.516 2.717 3.562-.566.058-.006-2.265 12.182c-.576 3.098-3.879 6.057-6.809 6.521l-2.998.475.455-2.438 2.28-.361c2.005-.318 4.262-2.326 4.65-4.424l.246-1.32-5.938.942c-1.273.202-1.965-.571-1.713-1.915l1.064-5.729c.188-1.018.823-1.863 1.674-2.303l.014-.151 2.979-2.294-1.74.294c-.926.146-2.643.84-3.734 2.231-.824-.983-2.268-1.37-3.08-1.241l-6.4 1.017 1.044-5.606 4.669-.741c2.485-.394 5.236-3.189 5.725-5.814l.701-3.778c.489-2.627-1.357-4.693-3.844-4.299l-10.204 1.619-2.175 11.698-9.396 1.491c-.795.127-1.568.91-1.725 1.751l-3.512 18.888c-.154.84.363 1.421 1.158 1.295l17.93-2.845 1.45-7.798.73-.118c.804-.126.685-.271.529.563l-1.326 7.133zm-13.305-4.277-5.996.952.227-1.217 4.842-.77 1.178-6.337-4.842.77.226-1.219 5.995-.951zm-.363 1.951-.498 2.68-10.607 1.684 3.307-17.791 8.762-1.391-.452 2.438-6.226.987-.951 5.118 5.072-.805-.453 2.437-5.072.805-.953 5.118zm12.185.67-2.537.4 1.235-6.646c.156-.833-.096-1.102-.898-.977l-4.421.703-1.449 7.799-2.537.402 1.901-10.235.059-.01 8.416-1.335c1.272-.202 1.964.57 1.714 1.916zm16.487-12.551 2.479-.392-1.903 10.235-2.535.4 1.902-10.233zm15.385 4.822.881-4.733c.278-1.497 1.888-2.968 3.259-3.187l5.932-.94c.999-.159 1.693.958 1.489 2.05l-.291 1.524c-.203 1.093-1.319 2.254-2.318 2.413l-6.158.977-.088.553c-.117.629.301 1.119.876 1.027l6.883-1.096-.464 2.496-7.764 1.231c-1.372.218-2.515-.814-2.237-2.315zm-36.697-13.267.861-4.631 3.226-.512c.424-.067.641.174.557.621l-.589 3.169c-.083.448-.404.773-.827.841z" fill="#c01e10"/><path d="m150.069 115.559-.685-2.714-.386.047-.125.669c-.085.465-.459.842-.896.912l-2.651.42c-.439.07-.689-.209-.603-.674l1.337-7.19c.086-.461.459-.84.896-.91l2.652-.42c.436-.07.688.21.601.672l-.171.915 5.362-.852.203-1.095c.514-2.767-1.365-4.869-3.984-4.455l-5.129.814c-2.617.414-5.419 3.261-5.933 6.025l-1.427 7.678c-.514 2.766 1.365 4.868 3.984 4.453l1.715-.271z" fill="#c01e10"/><path d="m153.871 113.922c.14-.377.236-.521.308-.906l.183-.976-2.135.339z" fill="#c01e10"/><path d="m83.546 280h17.11c1.313 0 2.373-1.19 2.373-2.5 0-1.311-1.061-2.5-2.373-2.5h-17.11" fill="#080a00"/><path clip-rule="evenodd" d="m26.85 29.623-4.471-5.355-2.031 2.322.975.891-1.164 6.445 2.337-1.025-1.206-1.117.669-3.409 4.709 5.428 1.626-7.401 1.646-.996-1.99-1.211zm3.937-4.458c.141.159.317.363.276.579l-.55 2.895c-.043.226-.244.391-.401.504s-.351.144-.544.174c.167.065.334.131.445.252.113.121.267.294.227.476l-.629 2.819c-.059.26-.324.423-.512.564-.189.142-.403.214-.618.286h7.523l.528-2.821c-.289.586-.579 1.171-1.071 1.547-.494.375-1.17.705-1.886.705h-1.378l.688-3.49c.25-.086.532-.077.787.047.256.123.482.362.688.622.203.26.383.54.525.837l.721-3.671c-.246.27-.521.514-.815.733-.296.22-.611.416-.907.513-.297.098-.572.098-.828.022l.713-3.436 1.109-.011c.502-.004 1.004-.065 1.408.267.406.332.717 1.028 1.025 1.725l.549-2.515h-7.647c.216.108.431.217.574.377zm9.012.881c-.563.479-1.07 1.117-1.408 1.812s-.509 1.449-.518 2.138c-.008.691.145 1.32.426 1.896.282.577.692 1.101 1.199 1.455.508.355 1.111.541 1.665.626s1.058.07 1.457.015c.399-.057.693-.152.962-.302l1.587-3.298c-.411.193-.829.369-1.263.548s-.883.361-1.359.419c-.477.057-.98-.01-1.428-.275-.447-.266-.838-.73-1.041-1.252-.203-.52-.217-1.097-.075-1.617.142-.521.441-.985.806-1.392.363-.406.791-.756 1.188-.986s.765-.342 1.14-.369l1.199 1.727 1.379-.515-.967-2.366c-.272-.01-.547.001-.871.037-.324.035-.699.095-1.088.194-.389.1-.792.24-1.302.471-.509.231-1.127.554-1.688 1.034z" fill="#d3d3d4" fill-rule="evenodd"/><g fill="#e6e6e6"><path d="m72.934 9.845v-8.345c0-.718.782-1.3 1.5-1.3s1.5.582 1.5 1.3v8.345"/><path d="m79.258 9.845v-8.345c0-.718.782-1.3 1.5-1.3s1.5.582 1.5 1.3v8.345"/><path d="m85.582 9.845v-8.345c0-.718.782-1.3 1.5-1.3s1.5.582 1.5 1.3v8.345"/><path d="m91.906 9.845v-8.345c0-.718.782-1.3 1.5-1.3s1.5.582 1.5 1.3v8.345"/><path d="m98.23 9.845v-8.345c0-.718.782-1.3 1.5-1.3s1.5.582 1.5 1.3v8.345"/><path d="m104.555 9.845v-8.345c0-.718.782-1.3 1.5-1.3s1.5.582 1.5 1.3v8.345"/><path d="m110.879 9.845v-8.345c0-.718.782-1.3 1.5-1.3s1.5.582 1.5 1.3v8.345"/><path d="m117.203 9.845v-8.345c0-.718.782-1.3 1.5-1.3s1.5.582 1.5 1.3v8.345"/><path d="m123.527 9.845v-8.345c0-.718.782-1.3 1.5-1.3s1.5.582 1.5 1.3v8.345"/><path d="m129.852 9.845v-8.345c0-.718.782-1.3 1.5-1.3s1.5.582 1.5 1.3v8.345"/><path d="m136.176 9.845v-8.345c0-.718.782-1.3 1.5-1.3s1.5.582 1.5 1.3v8.345"/><path d="m142.5 9.845v-8.345c0-.718.782-1.3 1.5-1.3s1.5.582 1.5 1.3v8.345"/><path d="m148.824 9.845v-8.345c0-.718.782-1.3 1.5-1.3s1.5.582 1.5 1.3v8.345"/><path d="m155.148 9.845v-8.345c0-.718.782-1.3 1.5-1.3s1.5.582 1.5 1.3v8.345"/><path d="m161.473 9.845v-8.345c0-.718.782-1.3 1.5-1.3s1.5.582 1.5 1.3v8.345"/><path d="m167.797 9.845v-8.345c0-.718.782-1.3 1.5-1.3s1.5.582 1.5 1.3v8.345"/><path d="m174.121 9.845v-8.345c0-.718.782-1.3 1.5-1.3s1.5.582 1.5 1.3v8.345"/><path d="m180.445 9.845v-8.345c0-.718.782-1.3 1.5-1.3s1.5.582 1.5 1.3v8.345"/><path d="m186.77 9.845v-8.345c0-.718.782-1.3 1.5-1.3s1.5.582 1.5 1.3v8.345"/><path d="m193.094 9.845v-8.345c0-.718.782-1.3 1.5-1.3s1.5.582 1.5 1.3v8.345"/><path d="m199.418 9.845v-8.345c0-.718.782-1.3 1.5-1.3s1.5.582 1.5 1.3v8.345"/><path d="m205.742 9.845v-8.345c0-.718.782-1.3 1.5-1.3s1.5.582 1.5 1.3v8.345"/><path d="m212.066 9.845v-8.345c0-.718.782-1.3 1.5-1.3s1.5.582 1.5 1.3v8.345"/></g></svg>