<svg enable-background="new 0 0 400 193.402" viewBox="0 0 400 193.402" xmlns="http://www.w3.org/2000/svg"><g fill="#f00"><path d="m40.871 142.18c-.282 0-.564-.071-.847-.212-26.81-12.982-40.639-28.151-40.004-43.814.495-12.911 11.007-25.116 30.48-35.276 18.414-9.595 44.449-17.286 75.21-22.083 1.058-.141 1.975.564 2.117 1.552.141 1.058-.564 1.975-1.552 2.117-62.299 9.877-101.527 30.479-102.444 53.832-.564 13.899 12.911 28.221 37.887 40.286.917.423 1.341 1.552.847 2.54-.283.705-.988 1.058-1.694 1.058zm233.602-96.305h-.282c-19.825-3.245-40.709-5.433-62.087-6.42-1.058-.07-1.834-.917-1.764-1.975s.917-1.834 1.975-1.764c21.589 1.058 42.614 3.245 62.51 6.491.988.141 1.693 1.129 1.552 2.187-.211.846-.987 1.481-1.904 1.481zm-59.124 128.336h-1.552c-1.058 0-1.905-.847-1.905-1.905s.847-1.905 1.905-1.905h1.552c100.538 0 179.911-26.105 180.898-59.688.353-11.782-9.101-23.706-27.304-34.501-18.132-10.795-44.166-19.967-75.28-26.528-.988-.212-1.693-1.199-1.482-2.258.212-.988 1.199-1.693 2.258-1.482 31.467 6.703 57.854 16.016 76.409 26.951 19.473 11.571 29.562 24.623 29.138 37.817-.564 17.85-20.319 34.148-55.525 45.86-34.076 11.43-79.936 17.639-129.112 17.639z"/><path d="m249.356 76.424 49.599-37.817-58.277 23.213-16.368-17.004 5.221 23.635-49.599 37.746 58.277-23.212 16.368 17.003"/><path d="m187.269 123.624c.706-3.528 1.975-2.963 5.574-3.528l3.316-.494-1.058 5.503-3.316.494c-3.528.495-5.151 1.483-4.516-1.975zm-7.196-5.079-2.54 13.828c-.706 3.81.423 5.009 4.092 4.445l21.025-3.316 4.515-24.27-21.025 3.316c-3.668.564-5.362 2.257-6.067 5.997zm133.628-21.801-.212 1.341 21.73-3.457c1.693-.282 3.387-1.975 3.739-3.88.353-1.905-.776-3.175-2.469-2.893l-5.574.847-8.89 1.411-2.258.353c-2.68.422-5.573 3.385-6.066 6.278zm-152.325 62.51.212-.988c.776.071 1.764.353 2.61.212l22.577-3.528c-.847 4.515-6.773 5.644-15.874 7.055l-10.301 1.623-5.503 29.773 13.546-2.117c33.372-3.316 46.142-20.531 50.163-41.133l40.709-6.491 6.561-35.277 3.316-.564c3.598-.564 3.104-1.199 2.399 2.54l-5.997 32.313 29.209-4.657.423-2.117c2.187.988 4.798 1.341 7.479.917l50.516-8.043 4.727-25.399-3.245-2.328c2.822-3.387 5.08-7.479 5.715-10.936l.776-4.022c2.54-14.957-11.289-18.908-17.568-17.921l-28.997 4.586c-5.15.847-10.795 4.374-14.887 9.101-3.81-3.739-9.666-5.221-13.123-4.657l-32.313 5.15 3.598 7.973 29.138-4.586c4.233-.635 6.985.988 7.761 4.304-.282.847-7.761 40.639-7.761 40.639l-10.442 1.623 5.574-30.056c.706-3.739-.423-5.009-4.092-4.445l-20.037 3.175-6.561 35.277-11.5 1.834 7.479-40.427-9.454-11.147-33.936 12.417 16.086-2.54.282-.071-10.23 55.173c-2.61 14.04-17.568 27.375-30.832 29.491l-13.546 2.117 2.046-11.006 10.301-1.623c9.101-1.411 19.261-10.512 21.025-20.037l1.129-5.997-26.881 4.233c-5.785.917-8.89-2.61-7.761-8.678l4.798-25.893c.847-4.586 3.739-8.466 7.549-10.442l.071-.706 13.476-10.371-7.902 1.341c-4.163.635-11.994 3.81-16.933 10.089-3.739-4.445-10.23-6.209-13.97-5.644l-28.997 4.586 4.727-25.399 21.166-3.387c11.218-1.764 23.706-14.463 25.893-26.316l3.175-17.074c2.187-11.923-6.138-21.237-17.427-19.473l-46.212 7.338-9.807 52.915-42.544 6.773c-3.598.564-7.126 4.092-7.831 7.902l-15.592 85.722c-.706 3.81 1.623 6.42 5.221 5.856l81.136-12.911 6.561-35.277 3.316-.494c3.669-.564 3.104-1.199 2.399 2.54l-5.997 32.313zm-60.182-19.332-27.163 4.304.988-5.503 21.942-3.457 5.362-28.645-21.942 3.457.988-5.503 27.163-4.304zm-1.693 8.819-2.258 12.135-47.976 7.62 14.957-80.501 39.651-6.279-2.046 11.006-28.151 4.445-4.304 23.141 22.93-3.669-2.046 11.006-22.93 3.739-4.304 23.141zm55.173 3.034-11.5 1.834 5.574-30.056c.706-3.739-.423-5.009-4.092-4.445l-20.037 3.175-6.561 35.277-11.5 1.834 8.607-46.353.282-.071 38.099-6.068c5.785-.917 8.89 2.61 7.761 8.678zm74.574-56.795 11.218-1.764-8.607 46.353-11.5 1.834 8.607-46.283zm69.636 21.871 3.951-21.448c1.27-6.773 8.537-13.405 14.746-14.393l26.81-4.233c4.515-.706 7.69 4.304 6.773 9.242l-1.341 6.914c-.917 4.939-5.997 10.23-10.512 10.936l-27.869 4.445-.423 2.469c-.564 2.822 1.341 5.08 3.951 4.657l31.114-4.939-2.117 11.289-35.136 5.574c-5.996.917-11.146-3.74-9.947-10.513zm-166.082-60.111 3.88-20.954 14.605-2.328c1.905-.282 2.893.776 2.54 2.822l-2.681 14.322c-.353 2.046-1.834 3.528-3.739 3.81 0 0-14.605 2.328-14.605 2.328z"/><path d="m226.215 66.547-3.104-12.276-1.764.212-.564 3.034c-.423 2.117-2.046 3.81-4.092 4.163l-11.994 1.905c-1.975.282-3.104-.917-2.752-3.034l6.068-32.525c.353-2.117 2.046-3.81 4.022-4.092l11.994-1.905c1.975-.282 3.104.917 2.752 3.034l-.776 4.163 24.27-3.88.917-4.939c2.328-12.488-6.209-22.013-18.062-20.178l-23.212 3.669c-11.853 1.905-24.553 14.746-26.81 27.304l-6.491 34.712c-2.328 12.488 6.209 22.013 18.062 20.178l7.761-1.199zm17.215-7.408c.635-1.693 1.058-2.328 1.411-4.092l.847-4.445-9.666 1.552c-.001 0 7.408 6.985 7.408 6.985z"/></g></svg>