<svg xmlns="http://www.w3.org/2000/svg" viewBox="0 0 88.59 237.767"><circle transform="rotate(-45.001 44.787 193.968)" cx="44.789" cy="193.966" fill="#211c1d" r="43.801"/><g opacity=".1" fill="#808094"><path d="M44.789 234.548l8.892-8.59h-4.343v-9.829H40.24v9.829h-4.343zM73.485 222.662l.213-12.362-3.071 3.071-6.95-6.95-6.433 6.433 6.95 6.95-3.072 3.071zM85.371 193.967l-8.591-8.893v4.343h-9.828v9.098h9.828v4.344zM73.485 165.271l-12.362-.213 3.071 3.071-6.95 6.949 6.433 6.434 6.95-6.95 3.071 3.071zM44.789 153.384l-8.892 8.591h4.343v9.829h9.098v-9.829h4.343zM16.093 165.27l-.213 12.363 3.071-3.071 6.95 6.95 6.433-6.434-6.949-6.949 3.071-3.072zM4.207 193.966l8.591 8.892v-4.343h9.828v-9.098h-9.828v-4.343zM16.093 222.662l12.362.213-3.071-3.071 6.95-6.95-6.433-6.433-6.95 6.95-3.071-3.071z"/></g><path d="M44.295 237.761C20.332 237.496.988 217.992.988 193.966c0-24.025 19.344-43.529 43.307-43.795-.165-.002-.329-.006-.494-.006C19.61 150.165 0 169.776 0 193.966c0 24.191 19.61 43.801 43.801 43.801.165 0 .329-.004.494-.006z" fill="#6d6e6f"/><linearGradient id="a" gradientUnits="userSpaceOnUse" x1="313.098" y1="1146.832" x2="292.139" y2="1125.873" gradientTransform="rotate(90 644.88 536.228)"><stop offset="0" stop-color="#a4a5a9"/><stop offset="1" stop-color="#e6e6e7"/></linearGradient><circle cx="44.755" cy="193.966" r="14.82" fill="url(#a)"/><circle cx="44.755" cy="193.966" r="11.808" opacity=".3" fill="#211c1d"/><linearGradient id="b" gradientUnits="userSpaceOnUse" x1="292.215" y1="1146.825" x2="313.091" y2="1125.949" gradientTransform="rotate(90 644.88 536.228)"><stop offset="0" stop-color="#211c1d" stop-opacity="0"/><stop offset=".045" stop-color="#211c1d" stop-opacity=".09"/><stop offset=".5" stop-color="#211c1d"/><stop offset=".955" stop-color="#211c1d" stop-opacity=".09"/><stop offset="1" stop-color="#211c1d" stop-opacity="0"/></linearGradient><path d="M59.482 194c0-8.153-6.609-14.761-14.762-14.761-8.152 0-14.761 6.609-14.761 14.761s6.609 14.761 14.761 14.761c8.153.001 14.762-6.608 14.762-14.761zm-28.728-.182c0-7.814 6.335-14.149 14.149-14.149 7.814 0 14.149 6.335 14.149 14.149s-6.335 14.149-14.149 14.149c-7.814 0-14.149-6.335-14.149-14.149z" opacity=".15" fill="url(#b)"/><linearGradient id="c" gradientUnits="userSpaceOnUse" x1="-3911.756" y1="-2407.465" x2="-3890.88" y2="-2428.341" gradientTransform="rotate(-90 -622.347 -3084.97)"><stop offset="0" stop-color="#fff" stop-opacity="0"/><stop offset=".5" stop-color="#fff"/><stop offset="1" stop-color="#fff" stop-opacity="0"/></linearGradient><path d="M29.96 194c0 8.152 6.609 14.762 14.761 14.762 8.153 0 14.761-6.609 14.761-14.762s-6.609-14.761-14.761-14.761c-8.153 0-14.761 6.609-14.761 14.761zm28.728.182c0 7.814-6.335 14.149-14.149 14.149-7.814 0-14.149-6.335-14.149-14.149 0-7.814 6.335-14.149 14.149-14.149 7.814.001 14.149 6.335 14.149 14.149z" opacity=".4" fill="url(#c)"/><linearGradient id="d" gradientUnits="userSpaceOnUse" x1="291.366" y1="1118.745" x2="313.939" y2="1141.319" gradientTransform="rotate(90 644.88 536.228)"><stop offset="0" stop-color="#999"/><stop offset="1" stop-color="#e6e6e6"/></linearGradient><radialGradient id="e" cx="55.743" cy="193.795" r="20.511" gradientTransform="matrix(.866 -.5 .35 .6062 -60.36 104.185)" gradientUnits="userSpaceOnUse"><stop offset="0" stop-color="#ac6566"/><stop offset=".033" stop-color="#ac6463"/><stop offset=".314" stop-color="#ac564c"/><stop offset=".577" stop-color="#ac4a3c"/><stop offset=".813" stop-color="#ab4032"/><stop offset="1" stop-color="#ab3d2f"/></radialGradient><circle cx="55.743" cy="193.795" r="20.511" fill="url(#e)"/><g><circle cx="61.4" cy="96.678" r="17.455" fill="#a33e2f"/><circle cx="61.4" cy="96.678" r="13.877" fill="#9d2d20"/><circle cx="27.23" cy="41.464" r="17.455" fill="#a33e2f"/><circle cx="27.23" cy="41.464" r="13.877" fill="#9d2d20"/><circle cx="61.224" cy="59.698" r="17.455" fill="#a33e2f"/><circle cx="61.224" cy="59.698" r="13.877" fill="#9d2d20"/><g><circle cx="27.19" cy="115.782" r="17.455" fill="#a33e2f"/><circle cx="27.19" cy="115.782" r="13.877" fill="#9d2d20"/></g><g><circle cx="27.486" cy="78.443" r="17.455" fill="#a33e2f"/><circle cx="27.486" cy="78.443" r="13.877" fill="#9d2d20"/></g><g><circle cx="60.969" cy="17.455" r="17.455" fill="#a33e2f"/><circle cx="60.969" cy="17.455" r="13.877" fill="#9d2d20"/></g></g></svg>