<svg enable-background="new 0 0 1162 296.827" viewBox="0 0 1162 296.827" xmlns="http://www.w3.org/2000/svg"><text fill="#f90041" font-family="ArialMT" font-size="3" transform="translate(544.6306 213.9738)">I hate bugs!</text><path d="m771.341 108.171c5.97-11.496 9.624-26.923 9.624-43.883 0-35.541-21.626-64.352-41.417-64.352h-139.375v220.704h139.375c20.666 0 43.25-29.938 43.25-66.869 0-17.623-5.223-33.654-11.457-45.6zm-24.394 47.481c0 7.694-5.876 13.989-13.059 13.989h-1.441-82.958v-119.167h82.958c6.885 0 12.518 5.633 12.518 12.518v7.962c0 8.216-5.876 14.938-13.059 14.938h-1.441-68.583v34l31.917 16.583h40.632c6.885 0 12.518 5.275 12.518 11.722v7.455z" fill="#00c6ff"/><g fill="#ab2d2a"><path d="m553.464 92.307h101.208v57.5h-101.208z"/><path d="m469.982 60.335 76.406 24.211v72.261h24.41v63.833h-134.167v-32.75l33.351-16.25z"/><path d="m654.673 50.474c0-24.795-17.295-45.513-40.375-50.537h-235.095v27.633l186.22 59.008h89.25z"/></g><path d="m565.464 259.201h67.959v-23.625h-67.959v-13.938h70.5v-23.625h-95.166v98.75h97.25v-23.625h-72.584z" fill="#ff9600"/><path d="m445.464 296.636v-75.123h55.521c3.762 0 6.813 3.05 6.813 6.813v68.31h26v-66.415c0-17.788-14.42-32.208-32.208-32.208h-80.625v98.623z" fill="#ff9600"/><path d="m732.964 198.013h-55.5c-18.333 0-33.333 15-33.333 33.333v31.956c0 18.333 15 33.333 33.333 33.333h55.5c18.333 0 33.333-15 33.333-33.333v-31.956c.001-18.333-14.999-33.333-33.333-33.333zm7.679 66.112c0 5.134-4.2 9.334-9.334 9.334h-52.189c-5.134 0-9.334-4.2-9.334-9.334v-33.602c0-5.134 4.2-9.334 9.334-9.334h52.188c5.134 0 9.334 4.2 9.334 9.334v33.602z" fill="#ff9600"/></svg>